<?xml version="1.0" encoding="UTF-8" standalone="no"?>
<!DOCTYPE svg PUBLIC "-//W3C//DTD SVG 1.1//EN"
 "http://www.w3.org/Graphics/SVG/1.1/DTD/svg11.dtd">
<!-- Generated by graphviz version 2.38.0 (20140413.2041)
 -->
<!-- Title: include/tvm/arith/analyzer.h Pages: 1 -->
<svg width="2826pt" height="1069pt"
 viewBox="0.00 0.00 2826.00 1069.00" xmlns="http://www.w3.org/2000/svg" xmlns:xlink="http://www.w3.org/1999/xlink">
<g id="graph0" class="graph" transform="scale(1 1) rotate(0) translate(4 1065)">
<title>include/tvm/arith/analyzer.h</title>
<polygon fill="white" stroke="none" points="-4,4 -4,-1065 2822,-1065 2822,4 -4,4"/>
<!-- Node1 -->
<g id="node1" class="node"><title>Node1</title>
<polygon fill="#bfbfbf" stroke="black" points="2055.5,-1041.5 2055.5,-1060.5 2204.5,-1060.5 2204.5,-1041.5 2055.5,-1041.5"/>
<text text-anchor="middle" x="2130" y="-1048.5" font-family="Helvetica,sans-Serif" font-size="10.00">include/tvm/arith/analyzer.h</text>
</g>
<!-- Node2 -->
<g id="node2" class="node"><title>Node2</title>
<g id="a_node2"><a xlink:href="with_8h.html" target="_top" xlink:title="RAII wrapper function to enter and exit a context object similar to python&#39;s with syntax...">
<polygon fill="white" stroke="black" points="1978,-123.5 1978,-142.5 2084,-142.5 2084,-123.5 1978,-123.5"/>
<text text-anchor="middle" x="2031" y="-130.5" font-family="Helvetica,sans-Serif" font-size="10.00">tvm/support/with.h</text>
</a>
</g>
</g>
<!-- Node1&#45;&gt;Node2 -->
<g id="edge1" class="edge"><title>Node1&#45;&gt;Node2</title>
<path fill="none" stroke="midnightblue" d="M2204.69,-1047.59C2335.55,-1042.76 2600.82,-1030.16 2690,-1005 2751.41,-987.672 2818,-1003.8 2818,-940 2818,-940 2818,-940 2818,-244 2818,-204.985 2794.17,-195.891 2759,-179 2699.92,-150.624 2260.23,-138.713 2094.21,-135.195"/>
<polygon fill="midnightblue" stroke="midnightblue" points="2094.22,-131.694 2084.15,-134.985 2094.08,-138.693 2094.22,-131.694"/>
</g>
<!-- Node5 -->
<g id="node5" class="node"><title>Node5</title>
<g id="a_node5"><a xlink:href="ir_2expr_8h.html" target="_top" xlink:title="Base expr nodes in TVM. ">
<polygon fill="white" stroke="black" points="1850.5,-761.5 1850.5,-780.5 1927.5,-780.5 1927.5,-761.5 1850.5,-761.5"/>
<text text-anchor="middle" x="1889" y="-768.5" font-family="Helvetica,sans-Serif" font-size="10.00">tvm/ir/expr.h</text>
</a>
</g>
</g>
<!-- Node1&#45;&gt;Node5 -->
<g id="edge4" class="edge"><title>Node1&#45;&gt;Node5</title>
<path fill="none" stroke="midnightblue" d="M2055.43,-1044.95C1938.7,-1034.97 1726,-1007.51 1726,-940 1726,-940 1726,-940 1726,-882 1726,-826.106 1792.67,-796.714 1840.73,-782.787"/>
<polygon fill="midnightblue" stroke="midnightblue" points="1841.66,-786.16 1850.37,-780.125 1839.8,-779.413 1841.66,-786.16"/>
</g>
<!-- Node21 -->
<g id="node21" class="node"><title>Node21</title>
<polygon fill="white" stroke="#bfbfbf" points="1316.5,-179.5 1316.5,-198.5 1373.5,-198.5 1373.5,-179.5 1316.5,-179.5"/>
<text text-anchor="middle" x="1345" y="-186.5" font-family="Helvetica,sans-Serif" font-size="10.00">memory</text>
</g>
<!-- Node1&#45;&gt;Node21 -->
<g id="edge161" class="edge"><title>Node1&#45;&gt;Node21</title>
<path fill="none" stroke="midnightblue" d="M2055.08,-1047.81C1772.89,-1039.05 790,-1003.97 790,-940 790,-940 790,-940 790,-546 790,-407.178 720.464,-332.786 819,-235 836.287,-217.844 1187.58,-198.15 1306.24,-191.964"/>
<polygon fill="midnightblue" stroke="midnightblue" points="1306.52,-195.454 1316.33,-191.441 1306.16,-188.463 1306.52,-195.454"/>
</g>
<!-- Node22 -->
<g id="node22" class="node"><title>Node22</title>
<polygon fill="white" stroke="#bfbfbf" points="1644.5,-179.5 1644.5,-198.5 1691.5,-198.5 1691.5,-179.5 1644.5,-179.5"/>
<text text-anchor="middle" x="1668" y="-186.5" font-family="Helvetica,sans-Serif" font-size="10.00">vector</text>
</g>
<!-- Node1&#45;&gt;Node22 -->
<g id="edge159" class="edge"><title>Node1&#45;&gt;Node22</title>
<path fill="none" stroke="midnightblue" d="M2055.2,-1046.95C1963.42,-1042.16 1813.93,-1030.62 1765,-1005 1676.32,-958.572 1650.68,-930.524 1615,-837 1611.83,-828.695 1612.92,-825.643 1615,-817 1638.77,-718.045 1695.23,-711.955 1719,-613 1755.92,-459.3 1695.66,-267.447 1674.74,-208.242"/>
<polygon fill="midnightblue" stroke="midnightblue" points="1678.01,-206.989 1671.32,-198.769 1671.43,-209.364 1678.01,-206.989"/>
</g>
<!-- Node23 -->
<g id="node23" class="node"><title>Node23</title>
<polygon fill="white" stroke="#bfbfbf" points="2657.5,-179.5 2657.5,-198.5 2750.5,-198.5 2750.5,-179.5 2657.5,-179.5"/>
<text text-anchor="middle" x="2704" y="-186.5" font-family="Helvetica,sans-Serif" font-size="10.00">unordered_map</text>
</g>
<!-- Node1&#45;&gt;Node23 -->
<g id="edge160" class="edge"><title>Node1&#45;&gt;Node23</title>
<path fill="none" stroke="midnightblue" d="M2204.75,-1047.95C2296.27,-1044.23 2455.56,-1033.84 2589,-1005 2676.65,-986.055 2780,-1029.67 2780,-940 2780,-940 2780,-940 2780,-305.5 2780,-263.812 2745.02,-225.53 2722.52,-205.219"/>
<polygon fill="midnightblue" stroke="midnightblue" points="2724.73,-202.498 2714.89,-198.575 2720.14,-207.78 2724.73,-202.498"/>
</g>
<!-- Node30 -->
<g id="node30" class="node"><title>Node30</title>
<polygon fill="white" stroke="#bfbfbf" points="2596,-235.5 2596,-254.5 2638,-254.5 2638,-235.5 2596,-235.5"/>
<text text-anchor="middle" x="2617" y="-242.5" font-family="Helvetica,sans-Serif" font-size="10.00">limits</text>
</g>
<!-- Node1&#45;&gt;Node30 -->
<g id="edge162" class="edge"><title>Node1&#45;&gt;Node30</title>
<path fill="none" stroke="midnightblue" d="M2204.56,-1048.85C2343.48,-1044.67 2628,-1025.66 2628,-940 2628,-940 2628,-940 2628,-367 2628,-330.745 2623.04,-288.631 2619.78,-264.867"/>
<polygon fill="midnightblue" stroke="midnightblue" points="2623.22,-264.189 2618.35,-254.781 2616.29,-265.174 2623.22,-264.189"/>
</g>
<!-- Node43 -->
<g id="node43" class="node"><title>Node43</title>
<g id="a_node43"><a xlink:href="int__set_8h.html" target="_top" xlink:title="Integer set. ">
<polygon fill="white" stroke="black" points="2078,-985.5 2078,-1004.5 2182,-1004.5 2182,-985.5 2078,-985.5"/>
<text text-anchor="middle" x="2130" y="-992.5" font-family="Helvetica,sans-Serif" font-size="10.00">tvm/arith/int_set.h</text>
</a>
</g>
</g>
<!-- Node1&#45;&gt;Node43 -->
<g id="edge133" class="edge"><title>Node1&#45;&gt;Node43</title>
<path fill="none" stroke="midnightblue" d="M2130,-1041.08C2130,-1034.01 2130,-1023.86 2130,-1014.99"/>
<polygon fill="midnightblue" stroke="midnightblue" points="2133.5,-1014.75 2130,-1004.75 2126.5,-1014.75 2133.5,-1014.75"/>
</g>
<!-- Node3 -->
<g id="node3" class="node"><title>Node3</title>
<polygon fill="white" stroke="#bfbfbf" points="1051,-62 1051,-81 1137,-81 1137,-62 1051,-62"/>
<text text-anchor="middle" x="1094" y="-69" font-family="Helvetica,sans-Serif" font-size="10.00">dmlc/logging.h</text>
</g>
<!-- Node2&#45;&gt;Node3 -->
<g id="edge2" class="edge"><title>Node2&#45;&gt;Node3</title>
<path fill="none" stroke="midnightblue" d="M1977.87,-128.534C1951.97,-126.852 1920.36,-124.807 1892,-123 1636.91,-106.742 1573.09,-103.256 1318,-87 1259.73,-83.2867 1192.94,-78.9531 1147.56,-75.9973"/>
<polygon fill="midnightblue" stroke="midnightblue" points="1147.57,-72.4904 1137.36,-75.3326 1147.11,-79.4755 1147.57,-72.4904"/>
</g>
<!-- Node4 -->
<g id="node4" class="node"><title>Node4</title>
<polygon fill="white" stroke="#bfbfbf" points="1839,-62 1839,-81 1881,-81 1881,-62 1839,-62"/>
<text text-anchor="middle" x="1860" y="-69" font-family="Helvetica,sans-Serif" font-size="10.00">utility</text>
</g>
<!-- Node2&#45;&gt;Node4 -->
<g id="edge3" class="edge"><title>Node2&#45;&gt;Node4</title>
<path fill="none" stroke="midnightblue" d="M2006.5,-123.475C1976.04,-112.875 1924.01,-94.7739 1890.86,-83.2375"/>
<polygon fill="midnightblue" stroke="midnightblue" points="1891.81,-79.8643 1881.22,-79.8836 1889.51,-86.4755 1891.81,-79.8643"/>
</g>
<!-- Node6 -->
<g id="node6" class="node"><title>Node6</title>
<g id="a_node6"><a xlink:href="object_8h.html" target="_top" xlink:title="A managed object in the TVM runtime. ">
<polygon fill="white" stroke="black" points="1468.5,-123.5 1468.5,-142.5 1585.5,-142.5 1585.5,-123.5 1468.5,-123.5"/>
<text text-anchor="middle" x="1527" y="-130.5" font-family="Helvetica,sans-Serif" font-size="10.00">tvm/runtime/object.h</text>
</a>
</g>
</g>
<!-- Node5&#45;&gt;Node6 -->
<g id="edge5" class="edge"><title>Node5&#45;&gt;Node6</title>
<path fill="none" stroke="midnightblue" d="M1894.41,-761.389C1908.52,-739.583 1948.66,-681.607 1996,-649 2054.26,-608.873 2078.57,-617.321 2145,-593 2189.75,-576.617 2209.24,-587.325 2246,-557 2298.57,-513.638 2324,-493.144 2324,-425 2324,-425 2324,-425 2324,-367 2324,-227.978 2205.03,-225.445 2074,-179 1987.74,-148.424 1722.93,-138.397 1596.11,-135.296"/>
<polygon fill="midnightblue" stroke="midnightblue" points="1595.82,-131.789 1585.74,-135.051 1595.66,-138.787 1595.82,-131.789"/>
</g>
<!-- Node11 -->
<g id="node11" class="node"><title>Node11</title>
<polygon fill="white" stroke="#bfbfbf" points="2230,-62 2230,-81 2298,-81 2298,-62 2230,-62"/>
<text text-anchor="middle" x="2264" y="-69" font-family="Helvetica,sans-Serif" font-size="10.00">type_traits</text>
</g>
<!-- Node5&#45;&gt;Node11 -->
<g id="edge132" class="edge"><title>Node5&#45;&gt;Node11</title>
<path fill="none" stroke="midnightblue" d="M1899.7,-761.417C1916.19,-748.394 1949.03,-723.234 1979,-705 2175.85,-585.225 2278.82,-615.331 2421,-434 2491.83,-343.669 2501.45,-286.797 2462,-179 2451.12,-149.276 2443.93,-141.155 2418,-123 2385.04,-99.9187 2340.84,-86.8653 2308.25,-79.8393"/>
<polygon fill="midnightblue" stroke="midnightblue" points="2308.6,-76.3393 2298.1,-77.7648 2307.2,-83.1974 2308.6,-76.3393"/>
</g>
<!-- Node12 -->
<g id="node12" class="node"><title>Node12</title>
<polygon fill="white" stroke="#bfbfbf" points="263,-62 263,-81 307,-81 307,-62 263,-62"/>
<text text-anchor="middle" x="285" y="-69" font-family="Helvetica,sans-Serif" font-size="10.00">string</text>
</g>
<!-- Node5&#45;&gt;Node12 -->
<g id="edge129" class="edge"><title>Node5&#45;&gt;Node12</title>
<path fill="none" stroke="midnightblue" d="M1850.22,-770.27C1662.47,-771.329 846.829,-773.033 598,-725 514.486,-708.879 418,-745.056 418,-660 418,-660 418,-660 418,-602 418,-418.077 76,-552.923 76,-369 76,-369 76,-369 76,-188 76,-157.205 77.2958,-143.805 100,-123 142.473,-84.0786 212.051,-74.7009 252.687,-72.7105"/>
<polygon fill="midnightblue" stroke="midnightblue" points="252.983,-76.2021 262.848,-72.3381 252.726,-69.2068 252.983,-76.2021"/>
</g>
<!-- Node14 -->
<g id="node14" class="node"><title>Node14</title>
<g id="a_node14"><a xlink:href="node_8h.html" target="_top" xlink:title="Definitions and helper macros for IR/AST nodes. ">
<polygon fill="white" stroke="black" points="1612,-593.5 1612,-612.5 1710,-612.5 1710,-593.5 1612,-593.5"/>
<text text-anchor="middle" x="1661" y="-600.5" font-family="Helvetica,sans-Serif" font-size="10.00">tvm/node/node.h</text>
</a>
</g>
</g>
<!-- Node5&#45;&gt;Node14 -->
<g id="edge15" class="edge"><title>Node5&#45;&gt;Node14</title>
<path fill="none" stroke="midnightblue" d="M1877.06,-761.309C1840.13,-734.416 1727.41,-652.352 1681.14,-618.666"/>
<polygon fill="midnightblue" stroke="midnightblue" points="1682.96,-615.662 1672.82,-612.605 1678.84,-621.321 1682.96,-615.662"/>
</g>
<!-- Node5&#45;&gt;Node30 -->
<g id="edge131" class="edge"><title>Node5&#45;&gt;Node30</title>
<path fill="none" stroke="midnightblue" d="M1906.08,-761.296C1931.26,-748.544 1979.92,-724.215 2022,-705 2174.89,-635.188 2233.59,-655.188 2370,-557 2491.36,-469.645 2483.44,-408.438 2576,-291 2583.93,-280.935 2593.55,-270.31 2601.47,-261.913"/>
<polygon fill="midnightblue" stroke="midnightblue" points="2604.05,-264.278 2608.44,-254.635 2599,-259.436 2604.05,-264.278"/>
</g>
<!-- Node36 -->
<g id="node36" class="node"><title>Node36</title>
<g id="a_node36"><a xlink:href="node_2container_8h.html" target="_top" xlink:title="Array/Map container in the DSL graph. ">
<polygon fill="white" stroke="black" points="1808.5,-414.5 1808.5,-433.5 1927.5,-433.5 1927.5,-414.5 1808.5,-414.5"/>
<text text-anchor="middle" x="1868" y="-421.5" font-family="Helvetica,sans-Serif" font-size="10.00">tvm/node/container.h</text>
</a>
</g>
</g>
<!-- Node5&#45;&gt;Node36 -->
<g id="edge117" class="edge"><title>Node5&#45;&gt;Node36</title>
<path fill="none" stroke="midnightblue" d="M1889,-761.442C1889,-742.936 1889,-697.812 1889,-660 1889,-660 1889,-660 1889,-546 1889,-509.188 1879.45,-466.992 1873.23,-443.419"/>
<polygon fill="midnightblue" stroke="midnightblue" points="1876.59,-442.438 1870.58,-433.716 1869.84,-444.285 1876.59,-442.438"/>
</g>
<!-- Node40 -->
<g id="node40" class="node"><title>Node40</title>
<g id="a_node40"><a xlink:href="span_8h.html" target="_top" xlink:title="Span information for debugging purposes. ">
<polygon fill="white" stroke="black" points="606,-649.5 606,-668.5 686,-668.5 686,-649.5 606,-649.5"/>
<text text-anchor="middle" x="646" y="-656.5" font-family="Helvetica,sans-Serif" font-size="10.00">tvm/ir/span.h</text>
</a>
</g>
</g>
<!-- Node5&#45;&gt;Node40 -->
<g id="edge118" class="edge"><title>Node5&#45;&gt;Node40</title>
<path fill="none" stroke="midnightblue" d="M1850.44,-766.587C1669.09,-750.539 901.374,-682.599 696.453,-664.465"/>
<polygon fill="midnightblue" stroke="midnightblue" points="696.551,-660.96 686.281,-663.565 695.934,-667.933 696.551,-660.96"/>
</g>
<!-- Node41 -->
<g id="node41" class="node"><title>Node41</title>
<g id="a_node41"><a xlink:href="ir_2type_8h.html" target="_top" xlink:title="IR/AST nodes for the unified type system in TVM. ">
<polygon fill="white" stroke="black" points="607.5,-705.5 607.5,-724.5 684.5,-724.5 684.5,-705.5 607.5,-705.5"/>
<text text-anchor="middle" x="646" y="-712.5" font-family="Helvetica,sans-Serif" font-size="10.00">tvm/ir/type.h</text>
</a>
</g>
</g>
<!-- Node5&#45;&gt;Node41 -->
<g id="edge122" class="edge"><title>Node5&#45;&gt;Node41</title>
<path fill="none" stroke="midnightblue" d="M1850.44,-768.325C1668.58,-760.424 897.107,-726.909 694.76,-718.118"/>
<polygon fill="midnightblue" stroke="midnightblue" points="694.87,-714.62 684.727,-717.682 694.566,-721.613 694.87,-714.62"/>
</g>
<!-- Node42 -->
<g id="node42" class="node"><title>Node42</title>
<polygon fill="white" stroke="#bfbfbf" points="2031,-705.5 2031,-724.5 2093,-724.5 2093,-705.5 2031,-705.5"/>
<text text-anchor="middle" x="2062" y="-712.5" font-family="Helvetica,sans-Serif" font-size="10.00">algorithm</text>
</g>
<!-- Node5&#45;&gt;Node42 -->
<g id="edge130" class="edge"><title>Node5&#45;&gt;Node42</title>
<path fill="none" stroke="midnightblue" d="M1916.41,-761.444C1945.77,-752.28 1992.52,-737.688 2025.1,-727.519"/>
<polygon fill="midnightblue" stroke="midnightblue" points="2026.21,-730.837 2034.72,-724.516 2024.13,-724.155 2026.21,-730.837"/>
</g>
<!-- Node6&#45;&gt;Node3 -->
<g id="edge6" class="edge"><title>Node6&#45;&gt;Node3</title>
<path fill="none" stroke="midnightblue" d="M1468.15,-123.914C1383.45,-112.274 1228.41,-90.9702 1147.05,-79.7904"/>
<polygon fill="midnightblue" stroke="midnightblue" points="1147.41,-76.307 1137.03,-78.413 1146.46,-83.2418 1147.41,-76.307"/>
</g>
<!-- Node6&#45;&gt;Node4 -->
<g id="edge13" class="edge"><title>Node6&#45;&gt;Node4</title>
<path fill="none" stroke="midnightblue" d="M1574.71,-123.475C1643.96,-111.103 1770.39,-88.5106 1828.84,-78.0668"/>
<polygon fill="midnightblue" stroke="midnightblue" points="1829.71,-81.4677 1838.94,-76.2632 1828.48,-74.5768 1829.71,-81.4677"/>
</g>
<!-- Node7 -->
<g id="node7" class="node"><title>Node7</title>
<g id="a_node7"><a xlink:href="c__runtime__api_8h.html" target="_top" xlink:title="tvm/runtime/c_runtime\l_api.h">
<polygon fill="white" stroke="black" points="734.5,-56.5 734.5,-86.5 861.5,-86.5 861.5,-56.5 734.5,-56.5"/>
<text text-anchor="start" x="742.5" y="-74.5" font-family="Helvetica,sans-Serif" font-size="10.00">tvm/runtime/c_runtime</text>
<text text-anchor="middle" x="798" y="-63.5" font-family="Helvetica,sans-Serif" font-size="10.00">_api.h</text>
</a>
</g>
</g>
<!-- Node6&#45;&gt;Node7 -->
<g id="edge7" class="edge"><title>Node6&#45;&gt;Node7</title>
<path fill="none" stroke="midnightblue" d="M1468.46,-124.543C1463.57,-123.993 1458.7,-123.471 1454,-123 1243.34,-101.917 993.847,-84.8906 872.181,-77.0986"/>
<polygon fill="midnightblue" stroke="midnightblue" points="872.075,-73.5849 861.873,-76.441 871.63,-80.5707 872.075,-73.5849"/>
</g>
<!-- Node6&#45;&gt;Node11 -->
<g id="edge11" class="edge"><title>Node6&#45;&gt;Node11</title>
<path fill="none" stroke="midnightblue" d="M1585.76,-127.256C1728.88,-115.701 2093.11,-86.2965 2219.78,-76.0703"/>
<polygon fill="midnightblue" stroke="midnightblue" points="2220.2,-79.5476 2229.89,-75.2541 2219.64,-72.5703 2220.2,-79.5476"/>
</g>
<!-- Node6&#45;&gt;Node12 -->
<g id="edge12" class="edge"><title>Node6&#45;&gt;Node12</title>
<path fill="none" stroke="midnightblue" d="M1468.35,-129.19C1249.56,-118.709 485.068,-82.0846 317.588,-74.0612"/>
<polygon fill="midnightblue" stroke="midnightblue" points="317.588,-70.5573 307.432,-73.5746 317.253,-77.5492 317.588,-70.5573"/>
</g>
<!-- Node13 -->
<g id="node13" class="node"><title>Node13</title>
<polygon fill="white" stroke="#bfbfbf" points="1327,-62 1327,-81 1377,-81 1377,-62 1327,-62"/>
<text text-anchor="middle" x="1352" y="-69" font-family="Helvetica,sans-Serif" font-size="10.00">atomic</text>
</g>
<!-- Node6&#45;&gt;Node13 -->
<g id="edge14" class="edge"><title>Node6&#45;&gt;Node13</title>
<path fill="none" stroke="midnightblue" d="M1501.93,-123.475C1471.65,-113.18 1420.56,-95.8103 1386.56,-84.2502"/>
<polygon fill="midnightblue" stroke="midnightblue" points="1387.62,-80.9145 1377.03,-81.0091 1385.37,-87.5419 1387.62,-80.9145"/>
</g>
<!-- Node8 -->
<g id="node8" class="node"><title>Node8</title>
<polygon fill="white" stroke="#bfbfbf" points="663,-0.5 663,-19.5 753,-19.5 753,-0.5 663,-0.5"/>
<text text-anchor="middle" x="708" y="-7.5" font-family="Helvetica,sans-Serif" font-size="10.00">dlpack/dlpack.h</text>
</g>
<!-- Node7&#45;&gt;Node8 -->
<g id="edge8" class="edge"><title>Node7&#45;&gt;Node8</title>
<path fill="none" stroke="midnightblue" d="M776.671,-56.3993C762.515,-47.0402 743.989,-34.7924 729.747,-25.3771"/>
<polygon fill="midnightblue" stroke="midnightblue" points="731.368,-22.2531 721.096,-19.6578 727.507,-28.0923 731.368,-22.2531"/>
</g>
<!-- Node9 -->
<g id="node9" class="node"><title>Node9</title>
<polygon fill="white" stroke="#bfbfbf" points="771.5,-0.5 771.5,-19.5 824.5,-19.5 824.5,-0.5 771.5,-0.5"/>
<text text-anchor="middle" x="798" y="-7.5" font-family="Helvetica,sans-Serif" font-size="10.00">stdint.h</text>
</g>
<!-- Node7&#45;&gt;Node9 -->
<g id="edge9" class="edge"><title>Node7&#45;&gt;Node9</title>
<path fill="none" stroke="midnightblue" d="M798,-56.3993C798,-48.4664 798,-38.458 798,-29.8583"/>
<polygon fill="midnightblue" stroke="midnightblue" points="801.5,-29.6577 798,-19.6578 794.5,-29.6578 801.5,-29.6577"/>
</g>
<!-- Node10 -->
<g id="node10" class="node"><title>Node10</title>
<polygon fill="white" stroke="#bfbfbf" points="842.5,-0.5 842.5,-19.5 897.5,-19.5 897.5,-0.5 842.5,-0.5"/>
<text text-anchor="middle" x="870" y="-7.5" font-family="Helvetica,sans-Serif" font-size="10.00">stddef.h</text>
</g>
<!-- Node7&#45;&gt;Node10 -->
<g id="edge10" class="edge"><title>Node7&#45;&gt;Node10</title>
<path fill="none" stroke="midnightblue" d="M815.063,-56.3993C826.065,-47.3076 840.365,-35.4899 851.618,-26.1909"/>
<polygon fill="midnightblue" stroke="midnightblue" points="854.044,-28.726 859.523,-19.6578 849.585,-23.33 854.044,-28.726"/>
</g>
<!-- Node14&#45;&gt;Node4 -->
<g id="edge115" class="edge"><title>Node14&#45;&gt;Node4</title>
<path fill="none" stroke="midnightblue" d="M1710.45,-599.738C1844.27,-593.393 2204.7,-574.732 2223,-557 2286.83,-495.139 2267.91,-443.328 2243,-358 2208.28,-239.058 2194.7,-193.786 2093,-123 2030.94,-79.8033 1938.8,-72.5412 1891.12,-71.9246"/>
<polygon fill="midnightblue" stroke="midnightblue" points="1891.1,-68.4246 1881.09,-71.886 1891.08,-75.4246 1891.1,-68.4246"/>
</g>
<!-- Node14&#45;&gt;Node6 -->
<g id="edge69" class="edge"><title>Node14&#45;&gt;Node6</title>
<path fill="none" stroke="midnightblue" d="M1688.22,-593.426C1744.02,-574.382 1871.55,-523.062 1936,-434 1988.99,-360.771 2030.85,-308.33 1978,-235 1933.82,-173.71 1710.59,-147.938 1595.64,-138.594"/>
<polygon fill="midnightblue" stroke="midnightblue" points="1595.78,-135.094 1585.54,-137.793 1595.23,-142.073 1595.78,-135.094"/>
</g>
<!-- Node14&#45;&gt;Node7 -->
<g id="edge16" class="edge"><title>Node14&#45;&gt;Node7</title>
<path fill="none" stroke="midnightblue" d="M1611.74,-600.577C1507.71,-597.086 1258.15,-586.153 1051,-557 930.504,-540.042 896.423,-545.07 783,-501 689.582,-464.703 671.369,-441.707 594,-378 565.589,-354.606 553.754,-352.393 533,-322 514.987,-295.622 512.878,-286.396 507,-255 500.223,-218.804 514.212,-205.287 540,-179 589.78,-128.257 667.225,-100.698 724.284,-86.415"/>
<polygon fill="midnightblue" stroke="midnightblue" points="725.434,-89.7376 734.331,-83.9836 723.788,-82.934 725.434,-89.7376"/>
</g>
<!-- Node14&#45;&gt;Node11 -->
<g id="edge116" class="edge"><title>Node14&#45;&gt;Node11</title>
<path fill="none" stroke="midnightblue" d="M1710.16,-600.661C1842.65,-596.712 2200.24,-583.68 2246,-557 2392.15,-471.785 2455.03,-404.069 2449,-235 2448.11,-210.064 2455.36,-201.698 2445,-179 2430.38,-146.982 2418.35,-142.427 2389,-123 2362.81,-105.665 2329.73,-92.6283 2304.18,-84.1462"/>
<polygon fill="midnightblue" stroke="midnightblue" points="2305.03,-80.7426 2294.44,-81.0098 2302.89,-87.4058 2305.03,-80.7426"/>
</g>
<!-- Node14&#45;&gt;Node12 -->
<g id="edge113" class="edge"><title>Node14&#45;&gt;Node12</title>
<path fill="none" stroke="midnightblue" d="M1611.92,-600.589C1466.07,-596.162 1036.84,-581.368 899,-557 813.567,-541.897 792.458,-533.456 712,-501 510.966,-419.905 453.694,-376.32 329,-199 312.511,-175.552 306.664,-169.988 297,-143 290.989,-126.214 287.946,-106.075 286.432,-91.6277"/>
<polygon fill="midnightblue" stroke="midnightblue" points="289.897,-91.0818 285.519,-81.4341 282.925,-91.7065 289.897,-91.0818"/>
</g>
<!-- Node15 -->
<g id="node15" class="node"><title>Node15</title>
<g id="a_node15"><a xlink:href="runtime_2container_8h.html" target="_top" xlink:title="Common POD(plain old data) container types. ">
<polygon fill="white" stroke="black" points="1539,-358.5 1539,-377.5 1671,-377.5 1671,-358.5 1539,-358.5"/>
<text text-anchor="middle" x="1605" y="-365.5" font-family="Helvetica,sans-Serif" font-size="10.00">tvm/runtime/container.h</text>
</a>
</g>
</g>
<!-- Node14&#45;&gt;Node15 -->
<g id="edge17" class="edge"><title>Node14&#45;&gt;Node15</title>
<path fill="none" stroke="midnightblue" d="M1658.94,-593.431C1650.83,-559.683 1620.98,-435.47 1609.52,-387.799"/>
<polygon fill="midnightblue" stroke="midnightblue" points="1612.88,-386.801 1607.14,-377.896 1606.07,-388.437 1612.88,-386.801"/>
</g>
<!-- Node16 -->
<g id="node16" class="node"><title>Node16</title>
<g id="a_node16"><a xlink:href="runtime_2memory_8h.html" target="_top" xlink:title="Runtime memory management. ">
<polygon fill="white" stroke="black" points="1938.5,-179.5 1938.5,-198.5 2065.5,-198.5 2065.5,-179.5 1938.5,-179.5"/>
<text text-anchor="middle" x="2002" y="-186.5" font-family="Helvetica,sans-Serif" font-size="10.00">tvm/runtime/memory.h</text>
</a>
</g>
</g>
<!-- Node14&#45;&gt;Node16 -->
<g id="edge70" class="edge"><title>Node14&#45;&gt;Node16</title>
<path fill="none" stroke="midnightblue" d="M1710.05,-600.34C1825.03,-593.439 2110.73,-558.096 2224,-378 2277.08,-293.613 2116.32,-227.59 2039.93,-201.782"/>
<polygon fill="midnightblue" stroke="midnightblue" points="2040.77,-198.373 2030.18,-198.55 2038.57,-205.018 2040.77,-198.373"/>
</g>
<!-- Node14&#45;&gt;Node22 -->
<g id="edge114" class="edge"><title>Node14&#45;&gt;Node22</title>
<path fill="none" stroke="midnightblue" d="M1611.79,-598.016C1546.11,-589.704 1438,-564.217 1438,-486.5 1438,-486.5 1438,-486.5 1438,-367 1438,-275.405 1537.11,-309.132 1611,-255 1629.27,-241.612 1645.81,-221.415 1656.31,-207.093"/>
<polygon fill="midnightblue" stroke="midnightblue" points="1659.36,-208.841 1662.3,-198.66 1653.66,-204.79 1659.36,-208.841"/>
</g>
<!-- Node33 -->
<g id="node33" class="node"><title>Node33</title>
<g id="a_node33"><a xlink:href="reflection_8h.html" target="_top" xlink:title="Reflection and serialization of compiler IR/AST nodes. ">
<polygon fill="white" stroke="black" points="1093.5,-537.5 1093.5,-556.5 1212.5,-556.5 1212.5,-537.5 1093.5,-537.5"/>
<text text-anchor="middle" x="1153" y="-544.5" font-family="Helvetica,sans-Serif" font-size="10.00">tvm/node/reflection.h</text>
</a>
</g>
</g>
<!-- Node14&#45;&gt;Node33 -->
<g id="edge71" class="edge"><title>Node14&#45;&gt;Node33</title>
<path fill="none" stroke="midnightblue" d="M1611.83,-596.773C1521.1,-587.129 1327.13,-566.51 1222.82,-555.421"/>
<polygon fill="midnightblue" stroke="midnightblue" points="1223.01,-551.923 1212.7,-554.346 1222.27,-558.884 1223.01,-551.923"/>
</g>
<!-- Node34 -->
<g id="node34" class="node"><title>Node34</title>
<g id="a_node34"><a xlink:href="structural__equal_8h.html" target="_top" xlink:title="Structural equality comparison. ">
<polygon fill="white" stroke="black" points="1275.5,-470.5 1275.5,-500.5 1386.5,-500.5 1386.5,-470.5 1275.5,-470.5"/>
<text text-anchor="start" x="1283.5" y="-488.5" font-family="Helvetica,sans-Serif" font-size="10.00">tvm/node/structural</text>
<text text-anchor="middle" x="1331" y="-477.5" font-family="Helvetica,sans-Serif" font-size="10.00">_equal.h</text>
</a>
</g>
</g>
<!-- Node14&#45;&gt;Node34 -->
<g id="edge111" class="edge"><title>Node14&#45;&gt;Node34</title>
<path fill="none" stroke="midnightblue" d="M1611.85,-599.241C1562.51,-594.986 1485.24,-584.21 1424,-557 1396.87,-544.943 1370.32,-523.585 1352.58,-507.528"/>
<polygon fill="midnightblue" stroke="midnightblue" points="1354.79,-504.806 1345.08,-500.575 1350.04,-509.94 1354.79,-504.806"/>
</g>
<!-- Node14&#45;&gt;Node36 -->
<g id="edge110" class="edge"><title>Node14&#45;&gt;Node36</title>
<path fill="none" stroke="midnightblue" d="M1668.63,-593.183C1679.97,-580.291 1702.15,-555.79 1723,-537 1764.8,-499.344 1818.05,-460.262 1846.98,-439.697"/>
<polygon fill="midnightblue" stroke="midnightblue" points="1849.32,-442.325 1855.47,-433.696 1845.28,-436.608 1849.32,-442.325"/>
</g>
<!-- Node37 -->
<g id="node37" class="node"><title>Node37</title>
<g id="a_node37"><a xlink:href="structural__hash_8h.html" target="_top" xlink:title="tvm/node/structural\l_hash.h">
<polygon fill="white" stroke="black" points="955.5,-470.5 955.5,-500.5 1066.5,-500.5 1066.5,-470.5 955.5,-470.5"/>
<text text-anchor="start" x="963.5" y="-488.5" font-family="Helvetica,sans-Serif" font-size="10.00">tvm/node/structural</text>
<text text-anchor="middle" x="1011" y="-477.5" font-family="Helvetica,sans-Serif" font-size="10.00">_hash.h</text>
</a>
</g>
</g>
<!-- Node14&#45;&gt;Node37 -->
<g id="edge112" class="edge"><title>Node14&#45;&gt;Node37</title>
<path fill="none" stroke="midnightblue" d="M1611.72,-602.389C1489.89,-602.681 1177.69,-599.165 1084,-557 1060.6,-546.47 1040.2,-525.109 1026.96,-508.646"/>
<polygon fill="midnightblue" stroke="midnightblue" points="1029.6,-506.334 1020.71,-500.566 1024.06,-510.617 1029.6,-506.334"/>
</g>
<!-- Node38 -->
<g id="node38" class="node"><title>Node38</title>
<g id="a_node38"><a xlink:href="repr__printer_8h.html" target="_top" xlink:title="Printer class to print repr string of each AST/IR nodes. ">
<polygon fill="white" stroke="black" points="2084,-537.5 2084,-556.5 2214,-556.5 2214,-537.5 2084,-537.5"/>
<text text-anchor="middle" x="2149" y="-544.5" font-family="Helvetica,sans-Serif" font-size="10.00">tvm/node/repr_printer.h</text>
</a>
</g>
</g>
<!-- Node14&#45;&gt;Node38 -->
<g id="edge107" class="edge"><title>Node14&#45;&gt;Node38</title>
<path fill="none" stroke="midnightblue" d="M1710.03,-596.575C1795.55,-587.111 1972.53,-567.528 2073.7,-556.332"/>
<polygon fill="midnightblue" stroke="midnightblue" points="2074.3,-559.788 2083.85,-555.209 2073.53,-552.83 2074.3,-559.788"/>
</g>
<!-- Node15&#45;&gt;Node3 -->
<g id="edge18" class="edge"><title>Node15&#45;&gt;Node3</title>
<path fill="none" stroke="midnightblue" d="M1538.74,-362.381C1379.05,-349.58 981.459,-307.179 919,-199 907.274,-178.691 924.63,-133.678 935,-123 962.64,-94.5398 1006.22,-82.0779 1040.77,-76.642"/>
<polygon fill="midnightblue" stroke="midnightblue" points="1041.31,-80.1011 1050.72,-75.229 1040.33,-73.1707 1041.31,-80.1011"/>
</g>
<!-- Node15&#45;&gt;Node4 -->
<g id="edge67" class="edge"><title>Node15&#45;&gt;Node4</title>
<path fill="none" stroke="midnightblue" d="M1626.23,-358.403C1646.91,-349.831 1679.07,-335.962 1706,-322 1729.89,-309.614 1732.66,-300.04 1758,-291 1860.42,-254.467 1899.75,-297.119 2000,-255 2038.03,-239.024 2055.63,-235.93 2074,-199 2112.22,-122.141 2015.96,-186.841 1936,-143 1910.97,-129.275 1887.78,-105.491 1873.76,-89.3834"/>
<polygon fill="midnightblue" stroke="midnightblue" points="1876.09,-86.7164 1866.96,-81.337 1870.74,-91.2343 1876.09,-86.7164"/>
</g>
<!-- Node15&#45;&gt;Node6 -->
<g id="edge24" class="edge"><title>Node15&#45;&gt;Node6</title>
<path fill="none" stroke="midnightblue" d="M1595.73,-358.438C1580.93,-343.723 1555.17,-313.09 1571,-291 1599.98,-250.555 1640.74,-289.068 1677,-255 1702.72,-230.835 1721.59,-206.919 1700,-179 1692.53,-169.344 1628.92,-154.563 1580.98,-144.602"/>
<polygon fill="midnightblue" stroke="midnightblue" points="1581.51,-141.138 1571.01,-142.553 1580.1,-147.995 1581.51,-141.138"/>
</g>
<!-- Node15&#45;&gt;Node11 -->
<g id="edge66" class="edge"><title>Node15&#45;&gt;Node11</title>
<path fill="none" stroke="midnightblue" d="M1641.77,-358.444C1670.91,-350.92 1712.2,-338.58 1746,-322 1767.8,-311.304 1768.4,-299.886 1791,-291 1893.43,-250.734 1931.13,-288.406 2036,-255 2088.27,-238.349 2099.79,-228.575 2146,-199 2179.85,-177.334 2189.74,-172.53 2217,-143 2232.06,-126.686 2245.7,-105.102 2254.36,-90.133"/>
<polygon fill="midnightblue" stroke="midnightblue" points="2257.44,-91.804 2259.29,-81.3737 2251.34,-88.3677 2257.44,-91.804"/>
</g>
<!-- Node15&#45;&gt;Node12 -->
<g id="edge65" class="edge"><title>Node15&#45;&gt;Node12</title>
<path fill="none" stroke="midnightblue" d="M1538.95,-365.608C1440.37,-362.548 1249.27,-352.813 1090,-322 1043.48,-313 1033.88,-302.835 988,-291 913.638,-271.817 892.403,-277.576 819,-255 800.422,-249.286 513.502,-128.956 495,-123 432.974,-103.033 358.392,-86.9043 316.881,-78.6032"/>
<polygon fill="midnightblue" stroke="midnightblue" points="317.556,-75.1691 307.067,-76.6639 316.199,-82.0362 317.556,-75.1691"/>
</g>
<!-- Node15&#45;&gt;Node16 -->
<g id="edge19" class="edge"><title>Node15&#45;&gt;Node16</title>
<path fill="none" stroke="midnightblue" d="M1614.62,-358.424C1633.37,-342.233 1676.79,-307.327 1720,-291 1828.3,-250.073 1887.82,-327.608 1978,-255 1991.89,-243.818 1997.74,-223.795 2000.2,-208.917"/>
<polygon fill="midnightblue" stroke="midnightblue" points="2003.71,-209.139 2001.51,-198.775 1996.76,-208.247 2003.71,-209.139"/>
</g>
<!-- Node18 -->
<g id="node18" class="node"><title>Node18</title>
<g id="a_node18"><a xlink:href="packed__func_8h.html" target="_top" xlink:title="Type&#45;erased function used across TVM API. ">
<polygon fill="white" stroke="black" points="1258.5,-291.5 1258.5,-321.5 1371.5,-321.5 1371.5,-291.5 1258.5,-291.5"/>
<text text-anchor="start" x="1266.5" y="-309.5" font-family="Helvetica,sans-Serif" font-size="10.00">tvm/runtime/packed</text>
<text text-anchor="middle" x="1315" y="-298.5" font-family="Helvetica,sans-Serif" font-size="10.00">_func.h</text>
</a>
</g>
</g>
<!-- Node15&#45;&gt;Node18 -->
<g id="edge25" class="edge"><title>Node15&#45;&gt;Node18</title>
<path fill="none" stroke="midnightblue" d="M1563.45,-358.475C1515.95,-348.729 1437.54,-332.643 1381.52,-321.147"/>
<polygon fill="midnightblue" stroke="midnightblue" points="1382.18,-317.71 1371.68,-319.129 1380.77,-324.567 1382.18,-317.71"/>
</g>
<!-- Node15&#45;&gt;Node22 -->
<g id="edge68" class="edge"><title>Node15&#45;&gt;Node22</title>
<path fill="none" stroke="midnightblue" d="M1582.21,-358.471C1566.67,-351.316 1547.29,-339.435 1538,-322 1531.52,-309.841 1529.78,-302.054 1538,-291 1571.24,-246.327 1621.45,-297.009 1658,-255 1668.88,-242.494 1670.64,-223.266 1670.12,-208.964"/>
<polygon fill="midnightblue" stroke="midnightblue" points="1673.59,-208.478 1669.34,-198.772 1666.61,-209.008 1673.59,-208.478"/>
</g>
<!-- Node31 -->
<g id="node31" class="node"><title>Node31</title>
<polygon fill="white" stroke="#bfbfbf" points="1580.5,-297 1580.5,-316 1629.5,-316 1629.5,-297 1580.5,-297"/>
<text text-anchor="middle" x="1605" y="-304" font-family="Helvetica,sans-Serif" font-size="10.00">cstring</text>
</g>
<!-- Node15&#45;&gt;Node31 -->
<g id="edge63" class="edge"><title>Node15&#45;&gt;Node31</title>
<path fill="none" stroke="midnightblue" d="M1605,-358.475C1605,-350.08 1605,-336.981 1605,-326.163"/>
<polygon fill="midnightblue" stroke="midnightblue" points="1608.5,-326.009 1605,-316.009 1601.5,-326.009 1608.5,-326.009"/>
</g>
<!-- Node32 -->
<g id="node32" class="node"><title>Node32</title>
<polygon fill="white" stroke="#bfbfbf" points="1800.5,-297 1800.5,-316 1877.5,-316 1877.5,-297 1800.5,-297"/>
<text text-anchor="middle" x="1839" y="-304" font-family="Helvetica,sans-Serif" font-size="10.00">initializer_list</text>
</g>
<!-- Node15&#45;&gt;Node32 -->
<g id="edge64" class="edge"><title>Node15&#45;&gt;Node32</title>
<path fill="none" stroke="midnightblue" d="M1640.44,-358.449C1676.97,-349.572 1735.56,-335.168 1786,-322 1790.05,-320.943 1794.27,-319.822 1798.48,-318.691"/>
<polygon fill="midnightblue" stroke="midnightblue" points="1799.47,-322.049 1808.2,-316.056 1797.64,-315.292 1799.47,-322.049"/>
</g>
<!-- Node16&#45;&gt;Node4 -->
<g id="edge22" class="edge"><title>Node16&#45;&gt;Node4</title>
<path fill="none" stroke="midnightblue" d="M1938.31,-179.872C1894.11,-172.773 1840.79,-160.787 1827,-143 1814.14,-126.42 1829.02,-104.021 1842.72,-88.9593"/>
<polygon fill="midnightblue" stroke="midnightblue" points="1845.57,-91.0441 1850.02,-81.4299 1840.55,-86.1695 1845.57,-91.0441"/>
</g>
<!-- Node16&#45;&gt;Node6 -->
<g id="edge20" class="edge"><title>Node16&#45;&gt;Node6</title>
<path fill="none" stroke="midnightblue" d="M1938.43,-180.773C1849.25,-170.635 1687.64,-152.262 1595.75,-141.816"/>
<polygon fill="midnightblue" stroke="midnightblue" points="1596.05,-138.327 1585.72,-140.675 1595.26,-145.282 1596.05,-138.327"/>
</g>
<!-- Node16&#45;&gt;Node11 -->
<g id="edge23" class="edge"><title>Node16&#45;&gt;Node11</title>
<path fill="none" stroke="midnightblue" d="M2028.5,-179.449C2053.86,-171.016 2093.03,-157.339 2126,-143 2166.83,-125.244 2212.54,-100.984 2239.76,-86.0482"/>
<polygon fill="midnightblue" stroke="midnightblue" points="2241.51,-89.0772 2248.58,-81.1801 2238.13,-82.949 2241.51,-89.0772"/>
</g>
<!-- Node17 -->
<g id="node17" class="node"><title>Node17</title>
<polygon fill="white" stroke="#bfbfbf" points="1836.5,-123.5 1836.5,-142.5 1883.5,-142.5 1883.5,-123.5 1836.5,-123.5"/>
<text text-anchor="middle" x="1860" y="-130.5" font-family="Helvetica,sans-Serif" font-size="10.00">cstdlib</text>
</g>
<!-- Node16&#45;&gt;Node17 -->
<g id="edge21" class="edge"><title>Node16&#45;&gt;Node17</title>
<path fill="none" stroke="midnightblue" d="M1979.5,-179.444C1955.92,-170.478 1918.68,-156.314 1892.04,-146.183"/>
<polygon fill="midnightblue" stroke="midnightblue" points="1892.99,-142.8 1882.4,-142.516 1890.5,-149.342 1892.99,-142.8"/>
</g>
<!-- Node18&#45;&gt;Node3 -->
<g id="edge26" class="edge"><title>Node18&#45;&gt;Node3</title>
<path fill="none" stroke="midnightblue" d="M1258.2,-293.854C1156.07,-272.327 950.19,-226.049 931,-199 892.811,-145.174 994.02,-103.302 1053.76,-84.0578"/>
<polygon fill="midnightblue" stroke="midnightblue" points="1054.83,-87.391 1063.32,-81.056 1052.73,-80.7125 1054.83,-87.391"/>
</g>
<!-- Node18&#45;&gt;Node4 -->
<g id="edge61" class="edge"><title>Node18&#45;&gt;Node4</title>
<path fill="none" stroke="midnightblue" d="M1371.86,-292.721C1420.09,-281.523 1485.28,-265.448 1510,-255 1517.49,-251.836 1627.85,-182.855 1635,-179 1703.65,-142.011 1787.31,-104.254 1830.71,-85.1889"/>
<polygon fill="midnightblue" stroke="midnightblue" points="1832.34,-88.2983 1840.1,-81.0831 1829.53,-81.8853 1832.34,-88.2983"/>
</g>
<!-- Node18&#45;&gt;Node6 -->
<g id="edge54" class="edge"><title>Node18&#45;&gt;Node6</title>
<path fill="none" stroke="midnightblue" d="M1346.41,-291.425C1366.12,-282.085 1391.74,-269.001 1413,-255 1445.7,-233.466 1454.35,-227.677 1481,-199 1494.78,-184.17 1507.85,-165.035 1516.51,-151.374"/>
<polygon fill="midnightblue" stroke="midnightblue" points="1519.7,-152.879 1521.99,-142.534 1513.74,-149.194 1519.7,-152.879"/>
</g>
<!-- Node18&#45;&gt;Node7 -->
<g id="edge27" class="edge"><title>Node18&#45;&gt;Node7</title>
<path fill="none" stroke="midnightblue" d="M1258.38,-301.949C1197.1,-296.738 1097.24,-284.235 1016,-255 927.344,-223.095 899.241,-212.846 836,-143 823.565,-129.266 813.779,-110.729 807.255,-96.1095"/>
<polygon fill="midnightblue" stroke="midnightblue" points="810.398,-94.5566 803.266,-86.7217 803.955,-97.2941 810.398,-94.5566"/>
</g>
<!-- Node18&#45;&gt;Node11 -->
<g id="edge62" class="edge"><title>Node18&#45;&gt;Node11</title>
<path fill="none" stroke="midnightblue" d="M1371.66,-302.268C1521.36,-293.574 1919.94,-269.379 1978,-255 2081.82,-229.286 2107.7,-210.086 2191,-143 2212.3,-125.843 2234.62,-103.567 2248.88,-88.6914"/>
<polygon fill="midnightblue" stroke="midnightblue" points="2251.58,-90.9329 2255.92,-81.2677 2246.5,-86.1168 2251.58,-90.9329"/>
</g>
<!-- Node18&#45;&gt;Node12 -->
<g id="edge58" class="edge"><title>Node18&#45;&gt;Node12</title>
<path fill="none" stroke="midnightblue" d="M1258.28,-300.735C1187.52,-294.043 1063.14,-279.81 959,-255 932.066,-248.584 926.312,-243.621 900,-235 743.183,-183.619 705.94,-163.63 546,-123 464.527,-102.303 366.87,-85.4941 317.299,-77.5173"/>
<polygon fill="midnightblue" stroke="midnightblue" points="317.615,-74.0236 307.189,-75.906 316.513,-80.9364 317.615,-74.0236"/>
</g>
<!-- Node19 -->
<g id="node19" class="node"><title>Node19</title>
<g id="a_node19"><a xlink:href="runtime_2module_8h.html" target="_top" xlink:title="Runtime container of the functions generated by TVM, This is used to support dynamically link...">
<polygon fill="white" stroke="black" points="1280,-235.5 1280,-254.5 1404,-254.5 1404,-235.5 1280,-235.5"/>
<text text-anchor="middle" x="1342" y="-242.5" font-family="Helvetica,sans-Serif" font-size="10.00">tvm/runtime/module.h</text>
</a>
</g>
</g>
<!-- Node18&#45;&gt;Node19 -->
<g id="edge28" class="edge"><title>Node18&#45;&gt;Node19</title>
<path fill="none" stroke="midnightblue" d="M1315.56,-291.399C1318.29,-283.021 1323.02,-272.327 1327.89,-263.423"/>
<polygon fill="midnightblue" stroke="midnightblue" points="1331,-265.034 1333.14,-254.658 1325,-261.435 1331,-265.034"/>
</g>
<!-- Node18&#45;&gt;Node21 -->
<g id="edge60" class="edge"><title>Node18&#45;&gt;Node21</title>
<path fill="none" stroke="midnightblue" d="M1295.99,-291.418C1279.45,-277.349 1259.76,-254.996 1271,-235 1279.22,-220.378 1294.33,-209.954 1308.76,-202.846"/>
<polygon fill="midnightblue" stroke="midnightblue" points="1310.4,-205.949 1318.07,-198.644 1307.52,-199.569 1310.4,-205.949"/>
</g>
<!-- Node18&#45;&gt;Node22 -->
<g id="edge57" class="edge"><title>Node18&#45;&gt;Node22</title>
<path fill="none" stroke="midnightblue" d="M1371.6,-293.837C1434.06,-280.838 1527.91,-260.871 1544,-255 1581.29,-241.391 1621.47,-218.691 1645.67,-204.038"/>
<polygon fill="midnightblue" stroke="midnightblue" points="1647.73,-206.882 1654.42,-198.669 1644.07,-200.916 1647.73,-206.882"/>
</g>
<!-- Node24 -->
<g id="node24" class="node"><title>Node24</title>
<g id="a_node24"><a xlink:href="ndarray_8h.html" target="_top" xlink:title="A device&#45;independent managed NDArray abstraction. ">
<polygon fill="white" stroke="black" points="1100.5,-235.5 1100.5,-254.5 1223.5,-254.5 1223.5,-235.5 1100.5,-235.5"/>
<text text-anchor="middle" x="1162" y="-242.5" font-family="Helvetica,sans-Serif" font-size="10.00">tvm/runtime/ndarray.h</text>
</a>
</g>
</g>
<!-- Node18&#45;&gt;Node24 -->
<g id="edge38" class="edge"><title>Node18&#45;&gt;Node24</title>
<path fill="none" stroke="midnightblue" d="M1278.74,-291.399C1252.96,-281.372 1218.64,-268.028 1193.9,-258.405"/>
<polygon fill="midnightblue" stroke="midnightblue" points="1194.85,-255.02 1184.26,-254.658 1192.31,-261.544 1194.85,-255.02"/>
</g>
<!-- Node27 -->
<g id="node27" class="node"><title>Node27</title>
<g id="a_node27"><a xlink:href="data__type_8h.html" target="_top" xlink:title="tvm/runtime/data_type.h">
<polygon fill="white" stroke="black" points="522,-235.5 522,-254.5 658,-254.5 658,-235.5 522,-235.5"/>
<text text-anchor="middle" x="590" y="-242.5" font-family="Helvetica,sans-Serif" font-size="10.00">tvm/runtime/data_type.h</text>
</a>
</g>
</g>
<!-- Node18&#45;&gt;Node27 -->
<g id="edge49" class="edge"><title>Node18&#45;&gt;Node27</title>
<path fill="none" stroke="midnightblue" d="M1258.41,-300.856C1129.86,-290.306 815.61,-264.516 668.441,-252.438"/>
<polygon fill="midnightblue" stroke="midnightblue" points="668.391,-248.922 658.138,-251.592 667.818,-255.898 668.391,-248.922"/>
</g>
<!-- Node28 -->
<g id="node28" class="node"><title>Node28</title>
<polygon fill="white" stroke="#bfbfbf" points="828.5,-235.5 828.5,-254.5 891.5,-254.5 891.5,-235.5 828.5,-235.5"/>
<text text-anchor="middle" x="860" y="-242.5" font-family="Helvetica,sans-Serif" font-size="10.00">functional</text>
</g>
<!-- Node18&#45;&gt;Node28 -->
<g id="edge55" class="edge"><title>Node18&#45;&gt;Node28</title>
<path fill="none" stroke="midnightblue" d="M1258.25,-299.769C1179.12,-291.488 1031.24,-274.957 906,-255 904.543,-254.768 903.063,-254.524 901.568,-254.27"/>
<polygon fill="midnightblue" stroke="midnightblue" points="902.082,-250.806 891.622,-252.49 900.849,-257.697 902.082,-250.806"/>
</g>
<!-- Node29 -->
<g id="node29" class="node"><title>Node29</title>
<polygon fill="white" stroke="#bfbfbf" points="1460.5,-235.5 1460.5,-254.5 1501.5,-254.5 1501.5,-235.5 1460.5,-235.5"/>
<text text-anchor="middle" x="1481" y="-242.5" font-family="Helvetica,sans-Serif" font-size="10.00">tuple</text>
</g>
<!-- Node18&#45;&gt;Node29 -->
<g id="edge56" class="edge"><title>Node18&#45;&gt;Node29</title>
<path fill="none" stroke="midnightblue" d="M1354.34,-291.399C1383.75,-280.856 1423.4,-266.647 1450.45,-256.951"/>
<polygon fill="midnightblue" stroke="midnightblue" points="1451.92,-260.142 1460.15,-253.473 1449.56,-253.552 1451.92,-260.142"/>
</g>
<!-- Node18&#45;&gt;Node30 -->
<g id="edge59" class="edge"><title>Node18&#45;&gt;Node30</title>
<path fill="none" stroke="midnightblue" d="M1371.68,-302.068C1423.54,-298.981 1502.42,-294.417 1571,-291 1971.87,-271.025 2459.42,-252.029 2585.87,-247.185"/>
<polygon fill="midnightblue" stroke="midnightblue" points="2586.14,-250.677 2596,-246.797 2585.87,-243.682 2586.14,-250.677"/>
</g>
<!-- Node19&#45;&gt;Node6 -->
<g id="edge31" class="edge"><title>Node19&#45;&gt;Node6</title>
<path fill="none" stroke="midnightblue" d="M1370.91,-235.453C1394.32,-227.824 1427.64,-215.336 1454,-199 1476.19,-185.251 1498.07,-164.559 1512,-150.23"/>
<polygon fill="midnightblue" stroke="midnightblue" points="1514.87,-152.289 1519.22,-142.63 1509.8,-147.465 1514.87,-152.289"/>
</g>
<!-- Node19&#45;&gt;Node7 -->
<g id="edge30" class="edge"><title>Node19&#45;&gt;Node7</title>
<path fill="none" stroke="midnightblue" d="M1359.28,-235.403C1381.56,-223.178 1415.61,-199.928 1399,-179 1366.42,-137.947 1025.29,-96.744 871.946,-80.1386"/>
<polygon fill="midnightblue" stroke="midnightblue" points="871.996,-76.6239 861.679,-79.0333 871.246,-83.5837 871.996,-76.6239"/>
</g>
<!-- Node19&#45;&gt;Node12 -->
<g id="edge35" class="edge"><title>Node19&#45;&gt;Node12</title>
<path fill="none" stroke="midnightblue" d="M1279.74,-238.448C1181.8,-229.501 996.187,-211.62 931,-199 808.189,-175.223 782.506,-148.298 660,-123 534.46,-97.0756 382.42,-81.3311 317.222,-75.31"/>
<polygon fill="midnightblue" stroke="midnightblue" points="317.437,-71.8152 307.161,-74.3948 316.802,-78.7864 317.437,-71.8152"/>
</g>
<!-- Node19&#45;&gt;Node16 -->
<g id="edge32" class="edge"><title>Node19&#45;&gt;Node16</title>
<path fill="none" stroke="midnightblue" d="M1404.25,-238.85C1419.54,-237.588 1435.86,-236.243 1451,-235 1621.8,-220.974 1822.39,-204.622 1928.12,-196.012"/>
<polygon fill="midnightblue" stroke="midnightblue" points="1928.68,-199.479 1938.37,-195.178 1928.11,-192.502 1928.68,-199.479"/>
</g>
<!-- Node19&#45;&gt;Node18 -->
<g id="edge37" class="edge"><title>Node19&#45;&gt;Node18</title>
<path fill="none" stroke="midnightblue" d="M1343,-254.658C1341.26,-261.956 1336.92,-272.741 1332.03,-282.502"/>
<polygon fill="midnightblue" stroke="midnightblue" points="1328.9,-280.935 1327.24,-291.399 1335.06,-284.254 1328.9,-280.935"/>
</g>
<!-- Node20 -->
<g id="node20" class="node"><title>Node20</title>
<polygon fill="white" stroke="#bfbfbf" points="1090,-123.5 1090,-142.5 1150,-142.5 1150,-123.5 1090,-123.5"/>
<text text-anchor="middle" x="1120" y="-130.5" font-family="Helvetica,sans-Serif" font-size="10.00">dmlc/io.h</text>
</g>
<!-- Node19&#45;&gt;Node20 -->
<g id="edge29" class="edge"><title>Node19&#45;&gt;Node20</title>
<path fill="none" stroke="midnightblue" d="M1353.99,-235.468C1370.77,-222.513 1397.54,-197.439 1382,-179 1354.12,-145.922 1226.57,-137.158 1160.28,-134.837"/>
<polygon fill="midnightblue" stroke="midnightblue" points="1160.3,-131.335 1150.19,-134.516 1160.07,-138.332 1160.3,-131.335"/>
</g>
<!-- Node19&#45;&gt;Node21 -->
<g id="edge33" class="edge"><title>Node19&#45;&gt;Node21</title>
<path fill="none" stroke="midnightblue" d="M1342.5,-235.083C1342.89,-228.006 1343.45,-217.861 1343.95,-208.986"/>
<polygon fill="midnightblue" stroke="midnightblue" points="1347.45,-208.93 1344.51,-198.751 1340.46,-208.542 1347.45,-208.93"/>
</g>
<!-- Node19&#45;&gt;Node22 -->
<g id="edge34" class="edge"><title>Node19&#45;&gt;Node22</title>
<path fill="none" stroke="midnightblue" d="M1393.66,-235.444C1461.09,-224.273 1577.24,-205.034 1634.33,-195.577"/>
<polygon fill="midnightblue" stroke="midnightblue" points="1634.98,-199.017 1644.28,-193.93 1633.84,-192.111 1634.98,-199.017"/>
</g>
<!-- Node19&#45;&gt;Node23 -->
<g id="edge36" class="edge"><title>Node19&#45;&gt;Node23</title>
<path fill="none" stroke="midnightblue" d="M1404.22,-238.361C1419.51,-237.113 1435.84,-235.898 1451,-235 1912.25,-207.69 2470.08,-194.73 2647.19,-191.1"/>
<polygon fill="midnightblue" stroke="midnightblue" points="2647.39,-194.597 2657.31,-190.894 2647.24,-187.598 2647.39,-194.597"/>
</g>
<!-- Node24&#45;&gt;Node4 -->
<g id="edge48" class="edge"><title>Node24&#45;&gt;Node4</title>
<path fill="none" stroke="midnightblue" d="M1172.51,-235.407C1189.78,-221.678 1225.67,-194.744 1260,-179 1462.14,-86.298 1736.86,-74.0285 1828.67,-72.6053"/>
<polygon fill="midnightblue" stroke="midnightblue" points="1828.99,-76.1018 1838.95,-72.4809 1828.91,-69.1024 1828.99,-76.1018"/>
</g>
<!-- Node24&#45;&gt;Node6 -->
<g id="edge40" class="edge"><title>Node24&#45;&gt;Node6</title>
<path fill="none" stroke="midnightblue" d="M1181.61,-235.488C1202.18,-226.524 1235.44,-211.941 1264,-199 1283.2,-190.301 1286.98,-185.601 1307,-179 1356.46,-162.688 1414.21,-151.146 1458.13,-143.838"/>
<polygon fill="midnightblue" stroke="midnightblue" points="1458.83,-147.271 1468.13,-142.207 1457.7,-140.362 1458.83,-147.271"/>
</g>
<!-- Node24&#45;&gt;Node7 -->
<g id="edge39" class="edge"><title>Node24&#45;&gt;Node7</title>
<path fill="none" stroke="midnightblue" d="M1100.07,-241.366C1051.69,-237.144 984.011,-226.354 931,-199 881.469,-173.441 837.535,-123.757 814.672,-94.8448"/>
<polygon fill="midnightblue" stroke="midnightblue" points="817.163,-92.3464 808.27,-86.5886 811.632,-96.6359 817.163,-92.3464"/>
</g>
<!-- Node24&#45;&gt;Node13 -->
<g id="edge46" class="edge"><title>Node24&#45;&gt;Node13</title>
<path fill="none" stroke="midnightblue" d="M1162.32,-235.336C1163.61,-213.405 1170.02,-155.159 1202,-123 1232.68,-92.1465 1282.81,-80.1403 1316.58,-75.4702"/>
<polygon fill="midnightblue" stroke="midnightblue" points="1317.42,-78.8925 1326.92,-74.197 1316.57,-71.9449 1317.42,-78.8925"/>
</g>
<!-- Node24&#45;&gt;Node22 -->
<g id="edge47" class="edge"><title>Node24&#45;&gt;Node22</title>
<path fill="none" stroke="midnightblue" d="M1223.62,-237.817C1307.14,-229.377 1460.89,-213.622 1592,-199 1605.86,-197.454 1621.13,-195.664 1634.32,-194.088"/>
<polygon fill="midnightblue" stroke="midnightblue" points="1634.88,-197.547 1644.39,-192.88 1634.04,-190.596 1634.88,-197.547"/>
</g>
<!-- Node25 -->
<g id="node25" class="node"><title>Node25</title>
<g id="a_node25"><a xlink:href="serializer_8h.html" target="_top" xlink:title="Serializer extension to support TVM data types Include this file to enable serialization of DLDataTyp...">
<polygon fill="white" stroke="black" points="940,-179.5 940,-198.5 1070,-198.5 1070,-179.5 940,-179.5"/>
<text text-anchor="middle" x="1005" y="-186.5" font-family="Helvetica,sans-Serif" font-size="10.00">tvm/runtime/serializer.h</text>
</a>
</g>
</g>
<!-- Node24&#45;&gt;Node25 -->
<g id="edge41" class="edge"><title>Node24&#45;&gt;Node25</title>
<path fill="none" stroke="midnightblue" d="M1132.03,-235.444C1103.88,-226.438 1062.24,-212.189 1034.3,-202.049"/>
<polygon fill="midnightblue" stroke="midnightblue" points="1035.27,-198.678 1024.68,-198.516 1032.86,-205.249 1035.27,-198.678"/>
</g>
<!-- Node25&#45;&gt;Node7 -->
<g id="edge44" class="edge"><title>Node25&#45;&gt;Node7</title>
<path fill="none" stroke="midnightblue" d="M989.441,-179.319C956.191,-160.766 877.543,-116.883 832.072,-91.5112"/>
<polygon fill="midnightblue" stroke="midnightblue" points="833.61,-88.3615 823.172,-86.5453 830.199,-94.4743 833.61,-88.3615"/>
</g>
<!-- Node25&#45;&gt;Node20 -->
<g id="edge42" class="edge"><title>Node25&#45;&gt;Node20</title>
<path fill="none" stroke="midnightblue" d="M1023.22,-179.444C1041.9,-170.675 1071.16,-156.935 1092.62,-146.858"/>
<polygon fill="midnightblue" stroke="midnightblue" points="1094.3,-149.935 1101.86,-142.516 1091.32,-143.599 1094.3,-149.935"/>
</g>
<!-- Node25&#45;&gt;Node24 -->
<g id="edge45" class="edge"><title>Node25&#45;&gt;Node24</title>
<path fill="none" stroke="midnightblue" d="M1034.84,-198.516C1062.96,-207.506 1104.6,-221.754 1132.57,-231.906"/>
<polygon fill="midnightblue" stroke="midnightblue" points="1131.62,-235.283 1142.21,-235.444 1134.03,-228.712 1131.62,-235.283"/>
</g>
<!-- Node26 -->
<g id="node26" class="node"><title>Node26</title>
<polygon fill="white" stroke="#bfbfbf" points="978,-123.5 978,-142.5 1072,-142.5 1072,-123.5 978,-123.5"/>
<text text-anchor="middle" x="1025" y="-130.5" font-family="Helvetica,sans-Serif" font-size="10.00">dmlc/serializer.h</text>
</g>
<!-- Node25&#45;&gt;Node26 -->
<g id="edge43" class="edge"><title>Node25&#45;&gt;Node26</title>
<path fill="none" stroke="midnightblue" d="M1008.3,-179.083C1010.98,-171.849 1014.85,-161.409 1018.19,-152.397"/>
<polygon fill="midnightblue" stroke="midnightblue" points="1021.57,-153.344 1021.76,-142.751 1015,-150.913 1021.57,-153.344"/>
</g>
<!-- Node27&#45;&gt;Node3 -->
<g id="edge51" class="edge"><title>Node27&#45;&gt;Node3</title>
<path fill="none" stroke="midnightblue" d="M602.969,-235.448C637.219,-213.27 733.536,-153.514 822,-123 895.519,-97.6407 984.853,-84.158 1040.58,-77.6732"/>
<polygon fill="midnightblue" stroke="midnightblue" points="1041.04,-81.1435 1050.59,-76.5425 1040.26,-74.1878 1041.04,-81.1435"/>
</g>
<!-- Node27&#45;&gt;Node7 -->
<g id="edge50" class="edge"><title>Node27&#45;&gt;Node7</title>
<path fill="none" stroke="midnightblue" d="M597.003,-235.252C614.237,-214.102 660.749,-159.268 708,-123 723.564,-111.054 742.281,-100.087 758.606,-91.4483"/>
<polygon fill="midnightblue" stroke="midnightblue" points="760.625,-94.3442 767.899,-86.6409 757.409,-88.1269 760.625,-94.3442"/>
</g>
<!-- Node27&#45;&gt;Node11 -->
<g id="edge52" class="edge"><title>Node27&#45;&gt;Node11</title>
<path fill="none" stroke="midnightblue" d="M658.099,-240.639C795.189,-233.762 1114.23,-217.189 1382,-199 1494.54,-191.356 1522.55,-187.864 1635,-179 1838.55,-162.955 1898.65,-205.609 2093,-143 2109.32,-137.741 2110.54,-130.426 2126,-123 2158.77,-107.258 2197.82,-93.3938 2226,-84.1946"/>
<polygon fill="midnightblue" stroke="midnightblue" points="2227.41,-87.4169 2235.86,-81.0217 2225.27,-80.7534 2227.41,-87.4169"/>
</g>
<!-- Node27&#45;&gt;Node12 -->
<g id="edge53" class="edge"><title>Node27&#45;&gt;Node12</title>
<path fill="none" stroke="midnightblue" d="M575.537,-235.473C562.112,-227.158 541.998,-213.653 527,-199 496.799,-169.493 504.922,-146.732 470,-123 422.958,-91.031 356.315,-79.2406 317.181,-74.934"/>
<polygon fill="midnightblue" stroke="midnightblue" points="317.446,-71.4431 307.147,-73.9284 316.748,-78.4082 317.446,-71.4431"/>
</g>
<!-- Node33&#45;&gt;Node6 -->
<g id="edge73" class="edge"><title>Node33&#45;&gt;Node6</title>
<path fill="none" stroke="midnightblue" d="M1146.94,-537.312C1120.33,-498.042 1018.46,-334.731 1091,-235 1114.77,-202.322 1224.76,-188.655 1264,-179 1329.18,-162.962 1404.84,-150.662 1458.23,-143.007"/>
<polygon fill="midnightblue" stroke="midnightblue" points="1458.86,-146.453 1468.27,-141.585 1457.88,-139.522 1458.86,-146.453"/>
</g>
<!-- Node33&#45;&gt;Node7 -->
<g id="edge72" class="edge"><title>Node33&#45;&gt;Node7</title>
<path fill="none" stroke="midnightblue" d="M1093.41,-541.425C957.865,-527.314 629.239,-471.224 513,-255 485.95,-204.683 664.442,-125.505 751.821,-90.3451"/>
<polygon fill="midnightblue" stroke="midnightblue" points="753.259,-93.5396 761.248,-86.5804 750.663,-87.0388 753.259,-93.5396"/>
</g>
<!-- Node33&#45;&gt;Node11 -->
<g id="edge106" class="edge"><title>Node33&#45;&gt;Node11</title>
<path fill="none" stroke="midnightblue" d="M1212.86,-542.613C1446.13,-527.98 2288.35,-461.317 2430,-255 2478.11,-184.928 2351.87,-113.825 2292.69,-85.3979"/>
<polygon fill="midnightblue" stroke="midnightblue" points="2294.01,-82.1501 2283.47,-81.0546 2291.02,-88.4826 2294.01,-82.1501"/>
</g>
<!-- Node33&#45;&gt;Node12 -->
<g id="edge105" class="edge"><title>Node33&#45;&gt;Node12</title>
<path fill="none" stroke="midnightblue" d="M1093.34,-546.224C1018.79,-544.828 888.21,-536.815 783,-501 561.233,-425.507 508.936,-372.02 351,-199 330.026,-176.022 323.527,-170.511 309,-143 300.148,-126.236 293.563,-105.548 289.552,-90.9302"/>
<polygon fill="midnightblue" stroke="midnightblue" points="292.899,-89.8956 286.991,-81.1008 286.125,-91.6602 292.899,-89.8956"/>
</g>
<!-- Node33&#45;&gt;Node16 -->
<g id="edge74" class="edge"><title>Node33&#45;&gt;Node16</title>
<path fill="none" stroke="midnightblue" d="M1212.57,-538.677C1389.95,-516.713 1904.34,-451.816 1936,-434 1988.86,-404.25 1995.4,-379.738 2014,-322 2025.89,-285.077 2028.7,-273.02 2021,-235 2019.11,-225.649 2015.21,-215.827 2011.43,-207.753"/>
<polygon fill="midnightblue" stroke="midnightblue" points="2014.47,-206.011 2006.88,-198.628 2008.21,-209.138 2014.47,-206.011"/>
</g>
<!-- Node33&#45;&gt;Node18 -->
<g id="edge75" class="edge"><title>Node33&#45;&gt;Node18</title>
<path fill="none" stroke="midnightblue" d="M1154.14,-537.292C1157.36,-515.113 1168.13,-455.332 1195,-414 1218.43,-377.966 1257.21,-346.68 1284.32,-327.508"/>
<polygon fill="midnightblue" stroke="midnightblue" points="1286.46,-330.29 1292.68,-321.719 1282.47,-324.535 1286.46,-330.29"/>
</g>
<!-- Node33&#45;&gt;Node22 -->
<g id="edge104" class="edge"><title>Node33&#45;&gt;Node22</title>
<path fill="none" stroke="midnightblue" d="M1160.89,-537.466C1198.42,-497.04 1359.76,-325.337 1424,-291 1486.75,-257.456 1515.37,-284.759 1580,-255 1607.33,-242.418 1634.53,-220.523 1651.29,-205.655"/>
<polygon fill="midnightblue" stroke="midnightblue" points="1654.01,-207.921 1659.06,-198.608 1649.3,-202.738 1654.01,-207.921"/>
</g>
<!-- Node33&#45;&gt;Node24 -->
<g id="edge76" class="edge"><title>Node33&#45;&gt;Node24</title>
<path fill="none" stroke="midnightblue" d="M1153.26,-537.345C1154.48,-496.54 1159.69,-322.938 1161.43,-264.948"/>
<polygon fill="midnightblue" stroke="midnightblue" points="1164.94,-264.79 1161.74,-254.69 1157.94,-264.581 1164.94,-264.79"/>
</g>
<!-- Node33&#45;&gt;Node27 -->
<g id="edge77" class="edge"><title>Node33&#45;&gt;Node27</title>
<path fill="none" stroke="midnightblue" d="M1093.45,-539.589C1050.97,-533.474 993.227,-521.967 946,-501 800.179,-436.261 654.199,-306.3 606.314,-261.556"/>
<polygon fill="midnightblue" stroke="midnightblue" points="608.687,-258.983 599.008,-254.675 603.888,-264.079 608.687,-258.983"/>
</g>
<!-- Node33&#45;&gt;Node34 -->
<g id="edge78" class="edge"><title>Node33&#45;&gt;Node34</title>
<path fill="none" stroke="midnightblue" d="M1178.5,-537.475C1204.75,-528.701 1246.37,-514.788 1279.51,-503.712"/>
<polygon fill="midnightblue" stroke="midnightblue" points="1280.67,-507.013 1289.05,-500.523 1278.46,-500.374 1280.67,-507.013"/>
</g>
<!-- Node33&#45;&gt;Node37 -->
<g id="edge98" class="edge"><title>Node33&#45;&gt;Node37</title>
<path fill="none" stroke="midnightblue" d="M1132.65,-537.475C1112.16,-528.889 1079.93,-515.383 1053.79,-504.429"/>
<polygon fill="midnightblue" stroke="midnightblue" points="1055.04,-501.16 1044.47,-500.523 1052.34,-507.616 1055.04,-501.16"/>
</g>
<!-- Node34&#45;&gt;Node12 -->
<g id="edge97" class="edge"><title>Node34&#45;&gt;Node12</title>
<path fill="none" stroke="midnightblue" d="M1275.39,-481.263C1129.1,-470.506 725.641,-426.195 447,-255 384.563,-216.639 370.172,-201.47 326,-143 313.241,-126.11 301.401,-104.904 293.759,-90.1829"/>
<polygon fill="midnightblue" stroke="midnightblue" points="296.826,-88.4928 289.179,-81.1602 290.584,-91.6614 296.826,-88.4928"/>
</g>
<!-- Node34&#45;&gt;Node27 -->
<g id="edge79" class="edge"><title>Node34&#45;&gt;Node27</title>
<path fill="none" stroke="midnightblue" d="M1320.8,-470.314C1308.46,-454.211 1286.19,-428.326 1261,-414 1066.37,-303.301 799.314,-264.735 668.571,-251.95"/>
<polygon fill="midnightblue" stroke="midnightblue" points="668.54,-248.432 658.253,-250.968 667.876,-255.4 668.54,-248.432"/>
</g>
<!-- Node35 -->
<g id="node35" class="node"><title>Node35</title>
<g id="a_node35"><a xlink:href="functor_8h.html" target="_top" xlink:title="Defines the Functor data structures. ">
<polygon fill="white" stroke="black" points="1862.5,-235.5 1862.5,-254.5 1969.5,-254.5 1969.5,-235.5 1862.5,-235.5"/>
<text text-anchor="middle" x="1916" y="-242.5" font-family="Helvetica,sans-Serif" font-size="10.00">tvm/node/functor.h</text>
</a>
</g>
</g>
<!-- Node34&#45;&gt;Node35 -->
<g id="edge80" class="edge"><title>Node34&#45;&gt;Node35</title>
<path fill="none" stroke="midnightblue" d="M1386.73,-483.664C1496.33,-479.055 1741.77,-453.649 1886,-322 1902.42,-307.016 1909.97,-281.906 1913.37,-264.676"/>
<polygon fill="midnightblue" stroke="midnightblue" points="1916.84,-265.12 1915.05,-254.678 1909.94,-263.959 1916.84,-265.12"/>
</g>
<!-- Node34&#45;&gt;Node36 -->
<g id="edge86" class="edge"><title>Node34&#45;&gt;Node36</title>
<path fill="none" stroke="midnightblue" d="M1386.7,-478.329C1485.34,-467.399 1690.48,-444.67 1798.31,-432.721"/>
<polygon fill="midnightblue" stroke="midnightblue" points="1798.89,-436.179 1808.44,-431.599 1798.12,-429.222 1798.89,-436.179"/>
</g>
<!-- Node35&#45;&gt;Node3 -->
<g id="edge81" class="edge"><title>Node35&#45;&gt;Node3</title>
<path fill="none" stroke="midnightblue" d="M1904.54,-235.379C1885.74,-221.61 1846.75,-194.621 1810,-179 1718.73,-140.209 1691.62,-140.479 1594,-123 1432.75,-94.1285 1239.06,-80.4421 1147.26,-75.1973"/>
<polygon fill="midnightblue" stroke="midnightblue" points="1147.29,-71.6935 1137.11,-74.6281 1146.9,-78.6825 1147.29,-71.6935"/>
</g>
<!-- Node35&#45;&gt;Node4 -->
<g id="edge85" class="edge"><title>Node35&#45;&gt;Node4</title>
<path fill="none" stroke="midnightblue" d="M1913.93,-235.419C1910.31,-221.947 1901.67,-195.653 1886,-179 1862.83,-154.383 1836.35,-172.014 1819,-143 1807.68,-124.062 1825.33,-102.056 1840.88,-87.7351"/>
<polygon fill="midnightblue" stroke="midnightblue" points="1843.39,-90.1953 1848.66,-81.0035 1838.81,-84.9033 1843.39,-90.1953"/>
</g>
<!-- Node35&#45;&gt;Node6 -->
<g id="edge82" class="edge"><title>Node35&#45;&gt;Node6</title>
<path fill="none" stroke="midnightblue" d="M1897.82,-235.495C1862.03,-218.797 1784.8,-182.998 1772,-179 1713.88,-160.841 1645.58,-149.045 1595.88,-142.105"/>
<polygon fill="midnightblue" stroke="midnightblue" points="1596.26,-138.625 1585.88,-140.739 1595.31,-145.56 1596.26,-138.625"/>
</g>
<!-- Node35&#45;&gt;Node11 -->
<g id="edge84" class="edge"><title>Node35&#45;&gt;Node11</title>
<path fill="none" stroke="midnightblue" d="M1958.41,-235.435C1990.91,-228.045 2036.4,-215.884 2074,-199 2116.29,-180.008 2123.37,-168.628 2162,-143 2190.59,-124.029 2223.13,-101.348 2243.61,-86.9335"/>
<polygon fill="midnightblue" stroke="midnightblue" points="2245.7,-89.74 2251.86,-81.116 2241.67,-84.0197 2245.7,-89.74"/>
</g>
<!-- Node35&#45;&gt;Node22 -->
<g id="edge83" class="edge"><title>Node35&#45;&gt;Node22</title>
<path fill="none" stroke="midnightblue" d="M1876.7,-235.444C1828.43,-224.932 1747.34,-207.275 1701.75,-197.349"/>
<polygon fill="midnightblue" stroke="midnightblue" points="1702.29,-193.885 1691.78,-195.177 1700.8,-200.725 1702.29,-193.885"/>
</g>
<!-- Node36&#45;&gt;Node4 -->
<g id="edge95" class="edge"><title>Node36&#45;&gt;Node4</title>
<path fill="none" stroke="midnightblue" d="M1906.38,-414.488C1930.17,-407.706 1960.23,-396.253 1982,-378 2059.43,-313.063 2152.6,-259.874 2092,-179 2057.85,-133.416 2020.79,-166.715 1969,-143 1959.85,-138.809 1910.38,-106.129 1881.33,-86.7669"/>
<polygon fill="midnightblue" stroke="midnightblue" points="1882.95,-83.6417 1872.69,-81.0014 1879.06,-89.464 1882.95,-83.6417"/>
</g>
<!-- Node36&#45;&gt;Node6 -->
<g id="edge87" class="edge"><title>Node36&#45;&gt;Node6</title>
<path fill="none" stroke="midnightblue" d="M1878.44,-414.245C1887.42,-405.969 1899.75,-392.663 1905,-378 1918.04,-341.6 1924.02,-324.663 1905,-291 1899.07,-280.499 1730.17,-183.542 1719,-179 1678.82,-162.667 1631.39,-151.48 1593.73,-144.344"/>
<polygon fill="midnightblue" stroke="midnightblue" points="1594.34,-140.899 1583.88,-142.528 1593.07,-147.783 1594.34,-140.899"/>
</g>
<!-- Node36&#45;&gt;Node11 -->
<g id="edge91" class="edge"><title>Node36&#45;&gt;Node11</title>
<path fill="none" stroke="midnightblue" d="M1906.24,-414.495C1935.21,-407.169 1975.44,-395.064 2008,-378 2137.72,-310.022 2164.71,-269.216 2239,-143 2248.66,-126.59 2255.45,-105.851 2259.5,-91.1242"/>
<polygon fill="midnightblue" stroke="midnightblue" points="2262.95,-91.7636 2262.06,-81.2063 2256.17,-90.0154 2262.95,-91.7636"/>
</g>
<!-- Node36&#45;&gt;Node12 -->
<g id="edge96" class="edge"><title>Node36&#45;&gt;Node12</title>
<path fill="none" stroke="midnightblue" d="M1808.41,-421.224C1577.49,-413.495 743.032,-377.467 513,-255 443.278,-217.881 457.567,-169.886 394,-123 370.314,-105.53 339.621,-91.9752 316.842,-83.3276"/>
<polygon fill="midnightblue" stroke="midnightblue" points="317.891,-79.9844 307.298,-79.8142 315.473,-86.5534 317.891,-79.9844"/>
</g>
<!-- Node36&#45;&gt;Node15 -->
<g id="edge90" class="edge"><title>Node36&#45;&gt;Node15</title>
<path fill="none" stroke="midnightblue" d="M1826.33,-414.444C1780.25,-404.984 1706,-389.738 1656.37,-379.547"/>
<polygon fill="midnightblue" stroke="midnightblue" points="1656.98,-376.099 1646.48,-377.516 1655.57,-382.956 1656.98,-376.099"/>
</g>
<!-- Node36&#45;&gt;Node16 -->
<g id="edge88" class="edge"><title>Node36&#45;&gt;Node16</title>
<path fill="none" stroke="midnightblue" d="M1893.34,-414.367C1912.6,-406.906 1938.94,-394.686 1958,-378 1980.63,-358.187 1986.31,-350.475 1996,-322 2009.13,-283.406 2006.92,-234.789 2004.34,-208.659"/>
<polygon fill="midnightblue" stroke="midnightblue" points="2007.81,-208.191 2003.22,-198.642 2000.86,-208.969 2007.81,-208.191"/>
</g>
<!-- Node36&#45;&gt;Node18 -->
<g id="edge89" class="edge"><title>Node36&#45;&gt;Node18</title>
<path fill="none" stroke="midnightblue" d="M1808.49,-418.422C1740.51,-412.423 1626.23,-399.986 1530,-378 1470.31,-364.364 1403.61,-341.2 1360.56,-325.164"/>
<polygon fill="midnightblue" stroke="midnightblue" points="1361.54,-321.792 1350.94,-321.554 1359.08,-328.345 1361.54,-321.792"/>
</g>
<!-- Node36&#45;&gt;Node22 -->
<g id="edge92" class="edge"><title>Node36&#45;&gt;Node22</title>
<path fill="none" stroke="midnightblue" d="M1872.67,-414.489C1884.18,-392.27 1911.19,-331.441 1886,-291 1878.54,-279.021 1784.81,-240.915 1772,-235 1747.17,-223.539 1718.65,-211.259 1697.76,-202.427"/>
<polygon fill="midnightblue" stroke="midnightblue" points="1699.03,-199.164 1688.46,-198.507 1696.31,-205.615 1699.03,-199.164"/>
</g>
<!-- Node36&#45;&gt;Node23 -->
<g id="edge94" class="edge"><title>Node36&#45;&gt;Node23</title>
<path fill="none" stroke="midnightblue" d="M1922.64,-414.488C1971.91,-406.422 2046.21,-393.289 2110,-378 2328.27,-325.687 2582.96,-234.663 2671.62,-202.052"/>
<polygon fill="midnightblue" stroke="midnightblue" points="2672.95,-205.293 2681.12,-198.548 2670.53,-198.725 2672.95,-205.293"/>
</g>
<!-- Node36&#45;&gt;Node32 -->
<g id="edge93" class="edge"><title>Node36&#45;&gt;Node32</title>
<path fill="none" stroke="midnightblue" d="M1865.08,-414.441C1862.07,-405.438 1857.35,-390.824 1854,-378 1849.46,-360.613 1845.29,-340.548 1842.51,-326.28"/>
<polygon fill="midnightblue" stroke="midnightblue" points="1845.9,-325.41 1840.59,-316.243 1839.03,-326.722 1845.9,-325.41"/>
</g>
<!-- Node37&#45;&gt;Node12 -->
<g id="edge102" class="edge"><title>Node37&#45;&gt;Node12</title>
<path fill="none" stroke="midnightblue" d="M957.428,-470.411C844.143,-438.426 576.557,-351.069 404,-199 362.72,-162.621 319.824,-113.828 298.592,-88.8044"/>
<polygon fill="midnightblue" stroke="midnightblue" points="301.141,-86.3987 292.023,-81.0038 295.787,-90.9076 301.141,-86.3987"/>
</g>
<!-- Node37&#45;&gt;Node27 -->
<g id="edge99" class="edge"><title>Node37&#45;&gt;Node27</title>
<path fill="none" stroke="midnightblue" d="M986.236,-470.471C911.509,-428.138 688.848,-301.998 614.487,-259.872"/>
<polygon fill="midnightblue" stroke="midnightblue" points="615.821,-256.605 605.395,-254.721 612.371,-262.696 615.821,-256.605"/>
</g>
<!-- Node37&#45;&gt;Node28 -->
<g id="edge103" class="edge"><title>Node37&#45;&gt;Node28</title>
<path fill="none" stroke="midnightblue" d="M1002.01,-470.295C975.862,-429 899.915,-309.045 871.187,-263.669"/>
<polygon fill="midnightblue" stroke="midnightblue" points="873.97,-261.522 865.664,-254.946 868.056,-265.267 873.97,-261.522"/>
</g>
<!-- Node37&#45;&gt;Node35 -->
<g id="edge100" class="edge"><title>Node37&#45;&gt;Node35</title>
<path fill="none" stroke="midnightblue" d="M1044.07,-470.405C1129.54,-434.566 1365.49,-339.378 1571,-291 1667.61,-268.257 1782.33,-256.171 1852.12,-250.43"/>
<polygon fill="midnightblue" stroke="midnightblue" points="1852.81,-253.886 1862.5,-249.596 1852.25,-246.908 1852.81,-253.886"/>
</g>
<!-- Node37&#45;&gt;Node36 -->
<g id="edge101" class="edge"><title>Node37&#45;&gt;Node36</title>
<path fill="none" stroke="midnightblue" d="M1066.57,-480.642C1217.07,-470.193 1632.36,-441.36 1798.23,-429.844"/>
<polygon fill="midnightblue" stroke="midnightblue" points="1798.59,-433.328 1808.32,-429.143 1798.1,-426.345 1798.59,-433.328"/>
</g>
<!-- Node38&#45;&gt;Node35 -->
<g id="edge108" class="edge"><title>Node38&#45;&gt;Node35</title>
<path fill="none" stroke="midnightblue" d="M2142.28,-537.345C2110.19,-496.029 1972.36,-318.568 1929.07,-262.824"/>
<polygon fill="midnightblue" stroke="midnightblue" points="1931.65,-260.441 1922.75,-254.69 1926.12,-264.735 1931.65,-260.441"/>
</g>
<!-- Node39 -->
<g id="node39" class="node"><title>Node39</title>
<polygon fill="white" stroke="#bfbfbf" points="2160.5,-476 2160.5,-495 2219.5,-495 2219.5,-476 2160.5,-476"/>
<text text-anchor="middle" x="2190" y="-483" font-family="Helvetica,sans-Serif" font-size="10.00">iostream</text>
</g>
<!-- Node38&#45;&gt;Node39 -->
<g id="edge109" class="edge"><title>Node38&#45;&gt;Node39</title>
<path fill="none" stroke="midnightblue" d="M2154.87,-537.475C2160.96,-528.638 2170.64,-514.589 2178.3,-503.475"/>
<polygon fill="midnightblue" stroke="midnightblue" points="2181.34,-505.229 2184.14,-495.009 2175.58,-501.258 2181.34,-505.229"/>
</g>
<!-- Node40&#45;&gt;Node6 -->
<g id="edge119" class="edge"><title>Node40&#45;&gt;Node6</title>
<path fill="none" stroke="midnightblue" d="M646.746,-649.419C651.707,-594.492 681.769,-292.666 748,-235 809.303,-181.624 1032.74,-217.03 1112,-199 1137.36,-193.23 1141.71,-185.096 1167,-179 1266.71,-154.962 1385.23,-143.297 1458.29,-137.991"/>
<polygon fill="midnightblue" stroke="midnightblue" points="1458.56,-141.48 1468.29,-137.283 1458.07,-134.498 1458.56,-141.48"/>
</g>
<!-- Node40&#45;&gt;Node12 -->
<g id="edge121" class="edge"><title>Node40&#45;&gt;Node12</title>
<path fill="none" stroke="midnightblue" d="M633.696,-649.292C573.239,-606.38 309.781,-417.89 290,-378 241.246,-279.682 268.027,-140.753 280.098,-91.0635"/>
<polygon fill="midnightblue" stroke="midnightblue" points="283.549,-91.6905 282.608,-81.1376 276.763,-89.9741 283.549,-91.6905"/>
</g>
<!-- Node40&#45;&gt;Node14 -->
<g id="edge120" class="edge"><title>Node40&#45;&gt;Node14</title>
<path fill="none" stroke="midnightblue" d="M686.032,-650.786C690.73,-650.101 695.464,-649.483 700,-649 1039.8,-612.856 1450.25,-605.742 1601.41,-604.343"/>
<polygon fill="midnightblue" stroke="midnightblue" points="1601.87,-607.839 1611.84,-604.251 1601.81,-600.839 1601.87,-607.839"/>
</g>
<!-- Node41&#45;&gt;Node6 -->
<g id="edge123" class="edge"><title>Node41&#45;&gt;Node6</title>
<path fill="none" stroke="midnightblue" d="M631.339,-705.402C619.594,-697.585 603.969,-684.862 597,-669 593.425,-660.862 595.759,-657.802 597,-649 623.963,-457.765 569.359,-343.685 729,-235 793.631,-190.998 1004.87,-223.868 1079,-199 1095.26,-193.545 1095.76,-184.5 1112,-179 1174.38,-157.88 1357.38,-144.066 1458.27,-137.83"/>
<polygon fill="midnightblue" stroke="midnightblue" points="1458.6,-141.317 1468.37,-137.214 1458.18,-134.33 1458.6,-141.317"/>
</g>
<!-- Node41&#45;&gt;Node12 -->
<g id="edge128" class="edge"><title>Node41&#45;&gt;Node12</title>
<path fill="none" stroke="midnightblue" d="M607.291,-708.888C577.706,-703.31 537.323,-691.906 509,-669 456.19,-626.291 475.802,-588.907 432,-537 415.926,-517.951 407.448,-517.76 389,-501 334.499,-451.484 311.123,-443.765 278,-378 226.964,-276.668 239.77,-233.385 266,-123 268.612,-112.008 272.98,-100.164 276.87,-90.7111"/>
<polygon fill="midnightblue" stroke="midnightblue" points="280.213,-91.7966 280.939,-81.2267 273.78,-89.0365 280.213,-91.7966"/>
</g>
<!-- Node41&#45;&gt;Node14 -->
<g id="edge125" class="edge"><title>Node41&#45;&gt;Node14</title>
<path fill="none" stroke="midnightblue" d="M654.668,-705.214C669.918,-690.419 703.24,-660.98 738,-649 819.217,-621.008 1410.63,-608.356 1601.67,-604.969"/>
<polygon fill="midnightblue" stroke="midnightblue" points="1601.86,-608.466 1611.8,-604.792 1601.74,-601.467 1601.86,-608.466"/>
</g>
<!-- Node41&#45;&gt;Node27 -->
<g id="edge124" class="edge"><title>Node41&#45;&gt;Node27</title>
<path fill="none" stroke="midnightblue" d="M611.128,-705.398C566.253,-691.997 494,-661.493 494,-604 494,-604 494,-604 494,-546 494,-433.644 555.837,-308.396 580.253,-263.323"/>
<polygon fill="midnightblue" stroke="midnightblue" points="583.347,-264.96 585.107,-254.512 577.216,-261.582 583.347,-264.96"/>
</g>
<!-- Node41&#45;&gt;Node36 -->
<g id="edge126" class="edge"><title>Node41&#45;&gt;Node36</title>
<path fill="none" stroke="midnightblue" d="M684.604,-714.352C854.487,-715.307 1535.23,-712.736 1719,-613 1791.6,-573.597 1841.15,-482.391 1859.78,-443.312"/>
<polygon fill="midnightblue" stroke="midnightblue" points="1863.18,-444.303 1864.21,-433.759 1856.83,-441.359 1863.18,-444.303"/>
</g>
<!-- Node41&#45;&gt;Node40 -->
<g id="edge127" class="edge"><title>Node41&#45;&gt;Node40</title>
<path fill="none" stroke="midnightblue" d="M646,-705.083C646,-698.006 646,-687.861 646,-678.986"/>
<polygon fill="midnightblue" stroke="midnightblue" points="649.5,-678.751 646,-668.751 642.5,-678.751 649.5,-678.751"/>
</g>
<!-- Node43&#45;&gt;Node5 -->
<g id="edge134" class="edge"><title>Node43&#45;&gt;Node5</title>
<path fill="none" stroke="midnightblue" d="M2079.93,-985.454C2028.34,-973.874 1949.76,-947.954 1908,-893 1885.24,-863.048 1884.86,-816.71 1886.8,-790.936"/>
<polygon fill="midnightblue" stroke="midnightblue" points="1890.32,-790.962 1887.78,-780.674 1883.35,-790.295 1890.32,-790.962"/>
</g>
<!-- Node43&#45;&gt;Node23 -->
<g id="edge158" class="edge"><title>Node43&#45;&gt;Node23</title>
<path fill="none" stroke="midnightblue" d="M2182.19,-990.312C2306.95,-980.637 2618.42,-951.168 2703,-893 2730.76,-873.91 2742,-861.69 2742,-828 2742,-828 2742,-828 2742,-305.5 2742,-269.254 2724.91,-229.671 2713.65,-207.533"/>
<polygon fill="midnightblue" stroke="midnightblue" points="2716.73,-205.875 2708.97,-198.663 2710.54,-209.141 2716.73,-205.875"/>
</g>
<!-- Node44 -->
<g id="node44" class="node"><title>Node44</title>
<g id="a_node44"><a xlink:href="tir_2expr_8h.html" target="_top" xlink:title="TIR expressions. ">
<polygon fill="white" stroke="black" points="2090,-929.5 2090,-948.5 2170,-948.5 2170,-929.5 2090,-929.5"/>
<text text-anchor="middle" x="2130" y="-936.5" font-family="Helvetica,sans-Serif" font-size="10.00">tvm/tir/expr.h</text>
</a>
</g>
</g>
<!-- Node43&#45;&gt;Node44 -->
<g id="edge135" class="edge"><title>Node43&#45;&gt;Node44</title>
<path fill="none" stroke="midnightblue" d="M2130,-985.083C2130,-978.006 2130,-967.861 2130,-958.986"/>
<polygon fill="midnightblue" stroke="midnightblue" points="2133.5,-958.751 2130,-948.751 2126.5,-958.751 2133.5,-958.751"/>
</g>
<!-- Node44&#45;&gt;Node4 -->
<g id="edge157" class="edge"><title>Node44&#45;&gt;Node4</title>
<path fill="none" stroke="midnightblue" d="M2170.29,-938.295C2294.94,-938.137 2666,-929.17 2666,-828 2666,-828 2666,-828 2666,-305.5 2666,-50.058 2371.33,-173.864 2121,-123 2037.99,-106.133 1939.85,-87.4948 1890.95,-78.2942"/>
<polygon fill="midnightblue" stroke="midnightblue" points="1891.48,-74.8325 1881,-76.4258 1890.18,-81.7121 1891.48,-74.8325"/>
</g>
<!-- Node44&#45;&gt;Node5 -->
<g id="edge141" class="edge"><title>Node44&#45;&gt;Node5</title>
<path fill="none" stroke="midnightblue" d="M2117.38,-929.309C2078.26,-902.36 1958.7,-820.01 1909.99,-786.457"/>
<polygon fill="midnightblue" stroke="midnightblue" points="1911.71,-783.395 1901.49,-780.605 1907.74,-789.16 1911.71,-783.395"/>
</g>
<!-- Node44&#45;&gt;Node7 -->
<g id="edge139" class="edge"><title>Node44&#45;&gt;Node7</title>
<path fill="none" stroke="midnightblue" d="M2089.97,-938.035C1961.66,-937.72 1549.24,-933.403 1211,-893 1079.36,-877.275 1047.29,-866.332 918,-837 883.938,-829.273 876.463,-822.678 842,-817 727.927,-798.206 423.393,-838.332 323,-781 163.676,-690.014 114,-608.474 114,-425 114,-425 114,-425 114,-367 114,-235.258 547.469,-126.635 724.264,-87.8109"/>
<polygon fill="midnightblue" stroke="midnightblue" points="725.241,-91.1802 734.265,-85.6291 723.749,-84.3411 725.241,-91.1802"/>
</g>
<!-- Node44&#45;&gt;Node12 -->
<g id="edge152" class="edge"><title>Node44&#45;&gt;Node12</title>
<path fill="none" stroke="midnightblue" d="M2089.99,-938.223C1852.28,-939.012 624.769,-935.453 288,-781 84.9254,-687.864 0,-592.414 0,-369 0,-369 0,-369 0,-188 0,-151.28 19.87,-142.475 51,-123 114.711,-83.1426 205.166,-74.3957 252.797,-72.6956"/>
<polygon fill="midnightblue" stroke="midnightblue" points="252.939,-76.1932 262.839,-72.4204 252.747,-69.1958 252.939,-76.1932"/>
</g>
<!-- Node44&#45;&gt;Node14 -->
<g id="edge136" class="edge"><title>Node44&#45;&gt;Node14</title>
<path fill="none" stroke="midnightblue" d="M2133.91,-929.365C2141.83,-911.073 2159,-866.907 2159,-828 2159,-828 2159,-828 2159,-714 2159,-625.098 1852.57,-607.985 1720.45,-604.737"/>
<polygon fill="midnightblue" stroke="midnightblue" points="1720.19,-601.231 1710.11,-604.503 1720.03,-608.229 1720.19,-601.231"/>
</g>
<!-- Node44&#45;&gt;Node23 -->
<g id="edge154" class="edge"><title>Node44&#45;&gt;Node23</title>
<path fill="none" stroke="midnightblue" d="M2170.42,-937.17C2290.57,-934.364 2639.65,-923.631 2680,-893 2704.53,-874.379 2704,-858.795 2704,-828 2704,-828 2704,-828 2704,-305.5 2704,-271.364 2704,-231.552 2704,-208.709"/>
<polygon fill="midnightblue" stroke="midnightblue" points="2707.5,-208.693 2704,-198.693 2700.5,-208.693 2707.5,-208.693"/>
</g>
<!-- Node44&#45;&gt;Node27 -->
<g id="edge140" class="edge"><title>Node44&#45;&gt;Node27</title>
<path fill="none" stroke="midnightblue" d="M2089.73,-936.17C1910.73,-927.784 1186.39,-891.09 966,-837 943.555,-831.491 940.503,-822.268 918,-817 798.309,-788.98 477.372,-833.034 366,-781 329.83,-764.101 304,-755.923 304,-716 304,-716 304,-716 304,-367 304,-276.466 427.058,-252.641 511.734,-246.963"/>
<polygon fill="midnightblue" stroke="midnightblue" points="512.086,-250.449 521.859,-246.358 511.668,-243.461 512.086,-250.449"/>
</g>
<!-- Node44&#45;&gt;Node30 -->
<g id="edge156" class="edge"><title>Node44&#45;&gt;Node30</title>
<path fill="none" stroke="midnightblue" d="M2170.02,-936.944C2281.93,-932.915 2590,-914.013 2590,-828 2590,-828 2590,-828 2590,-367 2590,-329.838 2602.28,-287.764 2610.28,-264.308"/>
<polygon fill="midnightblue" stroke="midnightblue" points="2613.66,-265.252 2613.69,-254.657 2607.06,-262.919 2613.66,-265.252"/>
</g>
<!-- Node44&#45;&gt;Node35 -->
<g id="edge138" class="edge"><title>Node44&#45;&gt;Node35</title>
<path fill="none" stroke="midnightblue" d="M2170.09,-934.607C2232.6,-928.71 2349.81,-915.048 2385,-893 2415.21,-874.072 2432,-863.65 2432,-828 2432,-828 2432,-828 2432,-602 2432,-380.31 2105.32,-286.023 1971.82,-256.748"/>
<polygon fill="midnightblue" stroke="midnightblue" points="1972.3,-253.272 1961.79,-254.591 1970.83,-260.115 1972.3,-253.272"/>
</g>
<!-- Node44&#45;&gt;Node36 -->
<g id="edge137" class="edge"><title>Node44&#45;&gt;Node36</title>
<path fill="none" stroke="midnightblue" d="M2139.89,-929.402C2158.52,-912.183 2197,-871.38 2197,-828 2197,-828 2197,-828 2197,-658 2197,-649.488 1962.17,-474.586 1955,-470 1936.02,-457.865 1913.39,-446.239 1895.97,-437.845"/>
<polygon fill="midnightblue" stroke="midnightblue" points="1897.41,-434.658 1886.88,-433.532 1894.41,-440.982 1897.41,-434.658"/>
</g>
<!-- Node44&#45;&gt;Node39 -->
<g id="edge155" class="edge"><title>Node44&#45;&gt;Node39</title>
<path fill="none" stroke="midnightblue" d="M2170.1,-938.704C2243.95,-937.687 2394,-923.83 2394,-828 2394,-828 2394,-828 2394,-602 2394,-527.324 2289.2,-500.36 2229.83,-491.077"/>
<polygon fill="midnightblue" stroke="midnightblue" points="2230.06,-487.573 2219.66,-489.589 2229.05,-494.5 2230.06,-487.573"/>
</g>
<!-- Node44&#45;&gt;Node42 -->
<g id="edge153" class="edge"><title>Node44&#45;&gt;Node42</title>
<path fill="none" stroke="midnightblue" d="M2127.33,-929.297C2117.31,-896.563 2081.72,-780.375 2067.72,-734.666"/>
<polygon fill="midnightblue" stroke="midnightblue" points="2071,-733.42 2064.72,-724.884 2064.3,-735.47 2071,-733.42"/>
</g>
<!-- Node45 -->
<g id="node45" class="node"><title>Node45</title>
<g id="a_node45"><a xlink:href="var_8h.html" target="_top" xlink:title="Variables in the TIR. ">
<polygon fill="white" stroke="black" points="1624,-817.5 1624,-836.5 1698,-836.5 1698,-817.5 1624,-817.5"/>
<text text-anchor="middle" x="1661" y="-824.5" font-family="Helvetica,sans-Serif" font-size="10.00">tvm/tir/var.h</text>
</a>
</g>
</g>
<!-- Node44&#45;&gt;Node45 -->
<g id="edge142" class="edge"><title>Node44&#45;&gt;Node45</title>
<path fill="none" stroke="midnightblue" d="M2089.75,-930.56C2045.15,-922.15 1971.2,-907.708 1908,-893 1834.62,-875.922 1749.84,-852.88 1701.11,-839.314"/>
<polygon fill="midnightblue" stroke="midnightblue" points="1701.85,-835.887 1691.28,-836.568 1699.97,-842.629 1701.85,-835.887"/>
</g>
<!-- Node46 -->
<g id="node46" class="node"><title>Node46</title>
<g id="a_node46"><a xlink:href="buffer_8h.html" target="_top" xlink:title="Symbolic n&#45;dimensional array, to represent a memory buffer. ">
<polygon fill="white" stroke="black" points="1917.5,-873.5 1917.5,-892.5 2004.5,-892.5 2004.5,-873.5 1917.5,-873.5"/>
<text text-anchor="middle" x="1961" y="-880.5" font-family="Helvetica,sans-Serif" font-size="10.00">tvm/tir/buffer.h</text>
</a>
</g>
</g>
<!-- Node44&#45;&gt;Node46 -->
<g id="edge147" class="edge"><title>Node44&#45;&gt;Node46</title>
<path fill="none" stroke="midnightblue" d="M2103.22,-929.444C2074.67,-920.32 2029.27,-905.813 1997.46,-895.651"/>
<polygon fill="midnightblue" stroke="midnightblue" points="1998.24,-892.226 1987.65,-892.516 1996.11,-898.894 1998.24,-892.226"/>
</g>
<!-- Node45&#45;&gt;Node5 -->
<g id="edge145" class="edge"><title>Node45&#45;&gt;Node5</title>
<path fill="none" stroke="midnightblue" d="M1697.13,-817.444C1736.65,-808.083 1800.1,-793.056 1843.11,-782.868"/>
<polygon fill="midnightblue" stroke="midnightblue" points="1844.12,-786.227 1853.04,-780.516 1842.5,-779.415 1844.12,-786.227"/>
</g>
<!-- Node45&#45;&gt;Node12 -->
<g id="edge146" class="edge"><title>Node45&#45;&gt;Node12</title>
<path fill="none" stroke="midnightblue" d="M1623.94,-826.035C1454.54,-825.965 752.942,-823.09 538,-781 255.422,-725.665 38,-656.945 38,-369 38,-369 38,-369 38,-188 38,-94.3111 185.626,-76.4515 252.62,-73.1702"/>
<polygon fill="midnightblue" stroke="midnightblue" points="252.796,-76.666 262.645,-72.7594 252.51,-69.6719 252.796,-76.666"/>
</g>
<!-- Node45&#45;&gt;Node14 -->
<g id="edge143" class="edge"><title>Node45&#45;&gt;Node14</title>
<path fill="none" stroke="midnightblue" d="M1661,-817.297C1661,-784.633 1661,-668.866 1661,-622.957"/>
<polygon fill="midnightblue" stroke="midnightblue" points="1664.5,-622.884 1661,-612.884 1657.5,-622.884 1664.5,-622.884"/>
</g>
<!-- Node45&#45;&gt;Node27 -->
<g id="edge144" class="edge"><title>Node45&#45;&gt;Node27</title>
<path fill="none" stroke="midnightblue" d="M1623.73,-825.363C1425.85,-821.675 503.611,-800.51 404,-725 379.459,-706.397 380,-690.795 380,-660 380,-660 380,-660 380,-484.5 380,-374.197 508.089,-290.713 564.194,-259.436"/>
<polygon fill="midnightblue" stroke="midnightblue" points="566.069,-262.4 573.17,-254.537 562.715,-256.256 566.069,-262.4"/>
</g>
<!-- Node46&#45;&gt;Node5 -->
<g id="edge149" class="edge"><title>Node46&#45;&gt;Node5</title>
<path fill="none" stroke="midnightblue" d="M1955.35,-873.368C1943.47,-855.215 1915.71,-812.802 1900.12,-788.99"/>
<polygon fill="midnightblue" stroke="midnightblue" points="1903.03,-787.042 1894.62,-780.591 1897.17,-790.875 1903.03,-787.042"/>
</g>
<!-- Node46&#45;&gt;Node12 -->
<g id="edge151" class="edge"><title>Node46&#45;&gt;Node12</title>
<path fill="none" stroke="midnightblue" d="M1917.28,-879.237C1685.39,-864.541 607.167,-795.654 538,-781 466.343,-765.818 442.157,-768.192 383,-725 247.09,-625.769 152,-593.28 152,-425 152,-425 152,-425 152,-367 152,-251.775 237.612,-131.873 271.461,-88.9687"/>
<polygon fill="midnightblue" stroke="midnightblue" points="274.318,-91.0006 277.849,-81.0115 268.86,-86.6184 274.318,-91.0006"/>
</g>
<!-- Node46&#45;&gt;Node36 -->
<g id="edge148" class="edge"><title>Node46&#45;&gt;Node36</title>
<path fill="none" stroke="midnightblue" d="M1977.57,-873.431C2020.43,-849.992 2129.74,-781.448 2102,-705 2057.86,-583.343 1935.16,-477.548 1887.39,-439.769"/>
<polygon fill="midnightblue" stroke="midnightblue" points="1889.41,-436.909 1879.37,-433.518 1885.1,-442.428 1889.41,-436.909"/>
</g>
<!-- Node46&#45;&gt;Node45 -->
<g id="edge150" class="edge"><title>Node46&#45;&gt;Node45</title>
<path fill="none" stroke="midnightblue" d="M1917.38,-874.148C1861.57,-864.103 1765.3,-846.775 1707.95,-836.451"/>
<polygon fill="midnightblue" stroke="midnightblue" points="1708.52,-832.997 1698.05,-834.67 1707.28,-839.886 1708.52,-832.997"/>
</g>
</g>
</svg>
