<?xml version="1.0" encoding="UTF-8" standalone="no"?>
<!DOCTYPE svg PUBLIC "-//W3C//DTD SVG 1.1//EN"
 "http://www.w3.org/Graphics/SVG/1.1/DTD/svg11.dtd">
<!-- Generated by graphviz version 2.38.0 (20140413.2041)
 -->
<!-- Title: include/tvm/te/autodiff.h Pages: 1 -->
<svg width="2758pt" height="1013pt"
 viewBox="0.00 0.00 2757.52 1013.00" xmlns="http://www.w3.org/2000/svg" xmlns:xlink="http://www.w3.org/1999/xlink">
<g id="graph0" class="graph" transform="scale(1 1) rotate(0) translate(4 1009)">
<title>include/tvm/te/autodiff.h</title>
<polygon fill="white" stroke="none" points="-4,4 -4,-1009 2753.52,-1009 2753.52,4 -4,4"/>
<!-- Node1 -->
<g id="node1" class="node"><title>Node1</title>
<polygon fill="#bfbfbf" stroke="black" points="2036.5,-985.5 2036.5,-1004.5 2169.5,-1004.5 2169.5,-985.5 2036.5,-985.5"/>
<text text-anchor="middle" x="2103" y="-992.5" font-family="Helvetica,sans-Serif" font-size="10.00">include/tvm/te/autodiff.h</text>
</g>
<!-- Node2 -->
<g id="node2" class="node"><title>Node2</title>
<g id="a_node2"><a xlink:href="object_8h.html" target="_top" xlink:title="A managed object in the TVM runtime. ">
<polygon fill="white" stroke="black" points="1260.5,-123.5 1260.5,-142.5 1377.5,-142.5 1377.5,-123.5 1260.5,-123.5"/>
<text text-anchor="middle" x="1319" y="-130.5" font-family="Helvetica,sans-Serif" font-size="10.00">tvm/runtime/object.h</text>
</a>
</g>
</g>
<!-- Node1&#45;&gt;Node2 -->
<g id="edge1" class="edge"><title>Node1&#45;&gt;Node2</title>
<path fill="none" stroke="midnightblue" d="M2169.52,-994.809C2318.5,-994.832 2666,-984.151 2666,-884 2666,-884 2666,-884 2666,-428.5 2666,-319.686 2612.61,-285.063 2516,-235 2436.7,-193.91 1799.55,-221.038 1713,-199 1693.35,-193.997 1691.43,-184.804 1672,-179 1576.09,-150.344 1460.17,-139.936 1388,-136.155"/>
<polygon fill="midnightblue" stroke="midnightblue" points="1387.84,-132.643 1377.68,-135.644 1387.49,-139.635 1387.84,-132.643"/>
</g>
<!-- Node12 -->
<g id="node12" class="node"><title>Node12</title>
<g id="a_node12"><a xlink:href="tir_2expr_8h.html" target="_top" xlink:title="TIR expressions. ">
<polygon fill="white" stroke="black" points="2000,-761.5 2000,-780.5 2080,-780.5 2080,-761.5 2000,-761.5"/>
<text text-anchor="middle" x="2040" y="-768.5" font-family="Helvetica,sans-Serif" font-size="10.00">tvm/tir/expr.h</text>
</a>
</g>
</g>
<!-- Node1&#45;&gt;Node12 -->
<g id="edge11" class="edge"><title>Node1&#45;&gt;Node12</title>
<path fill="none" stroke="midnightblue" d="M2103.89,-985.374C2106.27,-958.798 2110.78,-876.383 2083,-817 2077.6,-805.46 2068.05,-795.004 2059.32,-787.082"/>
<polygon fill="midnightblue" stroke="midnightblue" points="2061.56,-784.388 2051.68,-780.56 2057.02,-789.713 2061.56,-784.388"/>
</g>
<!-- Node41 -->
<g id="node41" class="node"><title>Node41</title>
<g id="a_node41"><a xlink:href="tensor_8h.html" target="_top" xlink:title="Dataflow tensor object. ">
<polygon fill="white" stroke="black" points="1935,-929.5 1935,-948.5 1991,-948.5 1991,-929.5 1935,-929.5"/>
<text text-anchor="middle" x="1963" y="-936.5" font-family="Helvetica,sans-Serif" font-size="10.00">tensor.h</text>
</a>
</g>
</g>
<!-- Node1&#45;&gt;Node41 -->
<g id="edge130" class="edge"><title>Node1&#45;&gt;Node41</title>
<path fill="none" stroke="midnightblue" d="M2080.82,-985.444C2057.57,-976.478 2020.85,-962.314 1994.58,-952.183"/>
<polygon fill="midnightblue" stroke="midnightblue" points="1995.67,-948.85 1985.08,-948.516 1993.15,-955.381 1995.67,-948.85"/>
</g>
<!-- Node3 -->
<g id="node3" class="node"><title>Node3</title>
<polygon fill="white" stroke="#bfbfbf" points="2052,-62 2052,-81 2138,-81 2138,-62 2052,-62"/>
<text text-anchor="middle" x="2095" y="-69" font-family="Helvetica,sans-Serif" font-size="10.00">dmlc/logging.h</text>
</g>
<!-- Node2&#45;&gt;Node3 -->
<g id="edge2" class="edge"><title>Node2&#45;&gt;Node3</title>
<path fill="none" stroke="midnightblue" d="M1377.91,-129.443C1494.82,-124.06 1764.38,-110.115 1990,-87 2006.9,-85.2682 2025.27,-82.8993 2041.85,-80.5782"/>
<polygon fill="midnightblue" stroke="midnightblue" points="2042.51,-84.0202 2051.91,-79.1453 2041.52,-77.0901 2042.51,-84.0202"/>
</g>
<!-- Node4 -->
<g id="node4" class="node"><title>Node4</title>
<g id="a_node4"><a xlink:href="c__runtime__api_8h.html" target="_top" xlink:title="tvm/runtime/c_runtime\l_api.h">
<polygon fill="white" stroke="black" points="1854.5,-56.5 1854.5,-86.5 1981.5,-86.5 1981.5,-56.5 1854.5,-56.5"/>
<text text-anchor="start" x="1862.5" y="-74.5" font-family="Helvetica,sans-Serif" font-size="10.00">tvm/runtime/c_runtime</text>
<text text-anchor="middle" x="1918" y="-63.5" font-family="Helvetica,sans-Serif" font-size="10.00">_api.h</text>
</a>
</g>
</g>
<!-- Node2&#45;&gt;Node4 -->
<g id="edge3" class="edge"><title>Node2&#45;&gt;Node4</title>
<path fill="none" stroke="midnightblue" d="M1377.53,-126.187C1487.22,-115.29 1723.54,-91.8165 1844.05,-79.8453"/>
<polygon fill="midnightblue" stroke="midnightblue" points="1844.68,-83.2999 1854.29,-78.8285 1843.99,-76.3341 1844.68,-83.2999"/>
</g>
<!-- Node8 -->
<g id="node8" class="node"><title>Node8</title>
<polygon fill="white" stroke="#bfbfbf" points="2359,-62 2359,-81 2427,-81 2427,-62 2359,-62"/>
<text text-anchor="middle" x="2393" y="-69" font-family="Helvetica,sans-Serif" font-size="10.00">type_traits</text>
</g>
<!-- Node2&#45;&gt;Node8 -->
<g id="edge7" class="edge"><title>Node2&#45;&gt;Node8</title>
<path fill="none" stroke="midnightblue" d="M1377.73,-128.901C1513.29,-121.727 1858.46,-103.344 2147,-87 2217.58,-83.0018 2299.54,-78.1236 2348.78,-75.1674"/>
<polygon fill="midnightblue" stroke="midnightblue" points="2349.01,-78.6604 2358.78,-74.5668 2348.59,-71.6731 2349.01,-78.6604"/>
</g>
<!-- Node9 -->
<g id="node9" class="node"><title>Node9</title>
<polygon fill="white" stroke="#bfbfbf" points="377,-62 377,-81 421,-81 421,-62 377,-62"/>
<text text-anchor="middle" x="399" y="-69" font-family="Helvetica,sans-Serif" font-size="10.00">string</text>
</g>
<!-- Node2&#45;&gt;Node9 -->
<g id="edge8" class="edge"><title>Node2&#45;&gt;Node9</title>
<path fill="none" stroke="midnightblue" d="M1260.4,-128.21C1084.68,-116.846 565.992,-83.3 431.269,-74.587"/>
<polygon fill="midnightblue" stroke="midnightblue" points="431.388,-71.0875 421.183,-73.9347 430.936,-78.0729 431.388,-71.0875"/>
</g>
<!-- Node10 -->
<g id="node10" class="node"><title>Node10</title>
<polygon fill="white" stroke="#bfbfbf" points="843,-62 843,-81 885,-81 885,-62 843,-62"/>
<text text-anchor="middle" x="864" y="-69" font-family="Helvetica,sans-Serif" font-size="10.00">utility</text>
</g>
<!-- Node2&#45;&gt;Node10 -->
<g id="edge9" class="edge"><title>Node2&#45;&gt;Node10</title>
<path fill="none" stroke="midnightblue" d="M1260.45,-124.343C1162.99,-111.599 970.783,-86.464 895.394,-76.6054"/>
<polygon fill="midnightblue" stroke="midnightblue" points="895.513,-73.0912 885.144,-75.265 894.606,-80.0322 895.513,-73.0912"/>
</g>
<!-- Node11 -->
<g id="node11" class="node"><title>Node11</title>
<polygon fill="white" stroke="#bfbfbf" points="1410,-62 1410,-81 1460,-81 1460,-62 1410,-62"/>
<text text-anchor="middle" x="1435" y="-69" font-family="Helvetica,sans-Serif" font-size="10.00">atomic</text>
</g>
<!-- Node2&#45;&gt;Node11 -->
<g id="edge10" class="edge"><title>Node2&#45;&gt;Node11</title>
<path fill="none" stroke="midnightblue" d="M1335.62,-123.475C1354.92,-113.578 1386.96,-97.1416 1409.43,-85.6151"/>
<polygon fill="midnightblue" stroke="midnightblue" points="1411.11,-88.6873 1418.41,-81.0091 1407.92,-82.4589 1411.11,-88.6873"/>
</g>
<!-- Node5 -->
<g id="node5" class="node"><title>Node5</title>
<polygon fill="white" stroke="#bfbfbf" points="1783,-0.5 1783,-19.5 1873,-19.5 1873,-0.5 1783,-0.5"/>
<text text-anchor="middle" x="1828" y="-7.5" font-family="Helvetica,sans-Serif" font-size="10.00">dlpack/dlpack.h</text>
</g>
<!-- Node4&#45;&gt;Node5 -->
<g id="edge4" class="edge"><title>Node4&#45;&gt;Node5</title>
<path fill="none" stroke="midnightblue" d="M1896.67,-56.3993C1882.51,-47.0402 1863.99,-34.7924 1849.75,-25.3771"/>
<polygon fill="midnightblue" stroke="midnightblue" points="1851.37,-22.2531 1841.1,-19.6578 1847.51,-28.0923 1851.37,-22.2531"/>
</g>
<!-- Node6 -->
<g id="node6" class="node"><title>Node6</title>
<polygon fill="white" stroke="#bfbfbf" points="1891.5,-0.5 1891.5,-19.5 1944.5,-19.5 1944.5,-0.5 1891.5,-0.5"/>
<text text-anchor="middle" x="1918" y="-7.5" font-family="Helvetica,sans-Serif" font-size="10.00">stdint.h</text>
</g>
<!-- Node4&#45;&gt;Node6 -->
<g id="edge5" class="edge"><title>Node4&#45;&gt;Node6</title>
<path fill="none" stroke="midnightblue" d="M1918,-56.3993C1918,-48.4664 1918,-38.458 1918,-29.8583"/>
<polygon fill="midnightblue" stroke="midnightblue" points="1921.5,-29.6577 1918,-19.6578 1914.5,-29.6578 1921.5,-29.6577"/>
</g>
<!-- Node7 -->
<g id="node7" class="node"><title>Node7</title>
<polygon fill="white" stroke="#bfbfbf" points="1962.5,-0.5 1962.5,-19.5 2017.5,-19.5 2017.5,-0.5 1962.5,-0.5"/>
<text text-anchor="middle" x="1990" y="-7.5" font-family="Helvetica,sans-Serif" font-size="10.00">stddef.h</text>
</g>
<!-- Node4&#45;&gt;Node7 -->
<g id="edge6" class="edge"><title>Node4&#45;&gt;Node7</title>
<path fill="none" stroke="midnightblue" d="M1935.06,-56.3993C1946.06,-47.3076 1960.37,-35.4899 1971.62,-26.1909"/>
<polygon fill="midnightblue" stroke="midnightblue" points="1974.04,-28.726 1979.52,-19.6578 1969.59,-23.33 1974.04,-28.726"/>
</g>
<!-- Node12&#45;&gt;Node4 -->
<g id="edge103" class="edge"><title>Node12&#45;&gt;Node4</title>
<path fill="none" stroke="midnightblue" d="M2080.14,-766.919C2150.77,-761.014 2294.04,-746.727 2339,-725 2371.84,-709.129 2377.95,-698.791 2399,-669 2448.5,-598.936 2476,-577.788 2476,-492 2476,-492 2476,-492 2476,-428.5 2476,-342.086 2546.7,-304.241 2495,-235 2434.46,-153.921 2132.97,-102.256 1991.51,-82.1012"/>
<polygon fill="midnightblue" stroke="midnightblue" points="1992,-78.6354 1981.61,-80.7045 1991.02,-85.5668 1992,-78.6354"/>
</g>
<!-- Node12&#45;&gt;Node9 -->
<g id="edge124" class="edge"><title>Node12&#45;&gt;Node9</title>
<path fill="none" stroke="midnightblue" d="M1999.73,-769.708C1757.25,-767.844 499.637,-756.673 425,-725 299.029,-671.543 38,-382.845 38,-246 38,-246 38,-246 38,-188 38,-143.215 74.4525,-142.016 115,-123 199.8,-83.2293 312.281,-74.6158 366.732,-72.8613"/>
<polygon fill="midnightblue" stroke="midnightblue" points="366.919,-76.3577 376.823,-72.5946 366.734,-69.3601 366.919,-76.3577"/>
</g>
<!-- Node12&#45;&gt;Node10 -->
<g id="edge129" class="edge"><title>Node12&#45;&gt;Node10</title>
<path fill="none" stroke="midnightblue" d="M1999.72,-769.783C1818.16,-768.606 1074.76,-761.6 845,-725 755.531,-710.748 734.797,-698.097 649,-669 531.775,-629.244 459.263,-662.181 394,-557 293.79,-395.497 442.084,-293.223 594,-179 669.705,-122.079 779.801,-91.3295 832.97,-79.0065"/>
<polygon fill="midnightblue" stroke="midnightblue" points="833.833,-82.3999 842.818,-76.7852 832.293,-75.5714 833.833,-82.3999"/>
</g>
<!-- Node13 -->
<g id="node13" class="node"><title>Node13</title>
<g id="a_node13"><a xlink:href="node_8h.html" target="_top" xlink:title="Definitions and helper macros for IR/AST nodes. ">
<polygon fill="white" stroke="black" points="1391,-537.5 1391,-556.5 1489,-556.5 1489,-537.5 1391,-537.5"/>
<text text-anchor="middle" x="1440" y="-544.5" font-family="Helvetica,sans-Serif" font-size="10.00">tvm/node/node.h</text>
</a>
</g>
</g>
<!-- Node12&#45;&gt;Node13 -->
<g id="edge12" class="edge"><title>Node12&#45;&gt;Node13</title>
<path fill="none" stroke="midnightblue" d="M2016.85,-761.433C1924.22,-727.163 1580.19,-599.872 1472.47,-560.013"/>
<polygon fill="midnightblue" stroke="midnightblue" points="1473.68,-556.729 1463.08,-556.541 1471.25,-563.294 1473.68,-556.729"/>
</g>
<!-- Node22 -->
<g id="node22" class="node"><title>Node22</title>
<polygon fill="white" stroke="#bfbfbf" points="124.5,-179.5 124.5,-198.5 217.5,-198.5 217.5,-179.5 124.5,-179.5"/>
<text text-anchor="middle" x="171" y="-186.5" font-family="Helvetica,sans-Serif" font-size="10.00">unordered_map</text>
</g>
<!-- Node12&#45;&gt;Node22 -->
<g id="edge126" class="edge"><title>Node12&#45;&gt;Node22</title>
<path fill="none" stroke="midnightblue" d="M1999.61,-769.98C1757.89,-769.719 510.689,-766.366 442,-725 430.982,-718.365 219.184,-333.771 214,-322 196.736,-282.804 182.72,-234.42 175.762,-208.49"/>
<polygon fill="midnightblue" stroke="midnightblue" points="179.078,-207.337 173.149,-198.557 172.308,-209.118 179.078,-207.337"/>
</g>
<!-- Node26 -->
<g id="node26" class="node"><title>Node26</title>
<g id="a_node26"><a xlink:href="data__type_8h.html" target="_top" xlink:title="tvm/runtime/data_type.h">
<polygon fill="white" stroke="black" points="2214,-235.5 2214,-254.5 2350,-254.5 2350,-235.5 2214,-235.5"/>
<text text-anchor="middle" x="2282" y="-242.5" font-family="Helvetica,sans-Serif" font-size="10.00">tvm/runtime/data_type.h</text>
</a>
</g>
</g>
<!-- Node12&#45;&gt;Node26 -->
<g id="edge104" class="edge"><title>Node12&#45;&gt;Node26</title>
<path fill="none" stroke="midnightblue" d="M2080.25,-769.554C2174.19,-766.175 2400,-743.542 2400,-604 2400,-604 2400,-604 2400,-546 2400,-431.289 2324.36,-307.958 2294.2,-263.34"/>
<polygon fill="midnightblue" stroke="midnightblue" points="2296.89,-261.081 2288.34,-254.825 2291.13,-265.047 2296.89,-261.081"/>
</g>
<!-- Node29 -->
<g id="node29" class="node"><title>Node29</title>
<polygon fill="white" stroke="#bfbfbf" points="2444,-235.5 2444,-254.5 2486,-254.5 2486,-235.5 2444,-235.5"/>
<text text-anchor="middle" x="2465" y="-242.5" font-family="Helvetica,sans-Serif" font-size="10.00">limits</text>
</g>
<!-- Node12&#45;&gt;Node29 -->
<g id="edge128" class="edge"><title>Node12&#45;&gt;Node29</title>
<path fill="none" stroke="midnightblue" d="M2080.13,-767.647C2166.45,-760.197 2362,-729.474 2362,-604 2362,-604 2362,-604 2362,-546 2362,-487.412 2433.16,-318.954 2457.19,-263.751"/>
<polygon fill="midnightblue" stroke="midnightblue" points="2460.41,-265.113 2461.21,-254.549 2454,-262.307 2460.41,-265.113"/>
</g>
<!-- Node31 -->
<g id="node31" class="node"><title>Node31</title>
<g id="a_node31"><a xlink:href="functor_8h.html" target="_top" xlink:title="Defines the Functor data structures. ">
<polygon fill="white" stroke="black" points="1936.5,-235.5 1936.5,-254.5 2043.5,-254.5 2043.5,-235.5 1936.5,-235.5"/>
<text text-anchor="middle" x="1990" y="-242.5" font-family="Helvetica,sans-Serif" font-size="10.00">tvm/node/functor.h</text>
</a>
</g>
</g>
<!-- Node12&#45;&gt;Node31 -->
<g id="edge102" class="edge"><title>Node12&#45;&gt;Node31</title>
<path fill="none" stroke="midnightblue" d="M2070.9,-761.491C2120.59,-745.911 2210.79,-708.799 2191,-649 2165.25,-571.193 2119.64,-573.275 2081,-501 2036.45,-417.665 2005.75,-307.96 1994.62,-264.693"/>
<polygon fill="midnightblue" stroke="midnightblue" points="1997.95,-263.59 1992.11,-254.751 1991.17,-265.304 1997.95,-263.59"/>
</g>
<!-- Node32 -->
<g id="node32" class="node"><title>Node32</title>
<g id="a_node32"><a xlink:href="node_2container_8h.html" target="_top" xlink:title="Array/Map container in the DSL graph. ">
<polygon fill="white" stroke="black" points="729.5,-358.5 729.5,-377.5 848.5,-377.5 848.5,-358.5 729.5,-358.5"/>
<text text-anchor="middle" x="789" y="-365.5" font-family="Helvetica,sans-Serif" font-size="10.00">tvm/node/container.h</text>
</a>
</g>
</g>
<!-- Node12&#45;&gt;Node32 -->
<g id="edge101" class="edge"><title>Node12&#45;&gt;Node32</title>
<path fill="none" stroke="midnightblue" d="M1999.78,-768.986C1771.22,-762.968 646,-729.795 646,-660 646,-660 646,-660 646,-490 646,-433.731 711.322,-398.25 753.668,-381.161"/>
<polygon fill="midnightblue" stroke="midnightblue" points="755.046,-384.381 763.104,-377.501 752.515,-377.854 755.046,-384.381"/>
</g>
<!-- Node36 -->
<g id="node36" class="node"><title>Node36</title>
<polygon fill="white" stroke="#bfbfbf" points="2178.5,-420 2178.5,-439 2237.5,-439 2237.5,-420 2178.5,-420"/>
<text text-anchor="middle" x="2208" y="-427" font-family="Helvetica,sans-Serif" font-size="10.00">iostream</text>
</g>
<!-- Node12&#45;&gt;Node36 -->
<g id="edge127" class="edge"><title>Node12&#45;&gt;Node36</title>
<path fill="none" stroke="midnightblue" d="M2080.29,-765.819C2128.87,-759.859 2206.24,-747.115 2224,-725 2290.9,-641.697 2238.11,-498.541 2216.3,-448.443"/>
<polygon fill="midnightblue" stroke="midnightblue" points="2219.45,-446.916 2212.17,-439.22 2213.07,-449.777 2219.45,-446.916"/>
</g>
<!-- Node37 -->
<g id="node37" class="node"><title>Node37</title>
<g id="a_node37"><a xlink:href="ir_2expr_8h.html" target="_top" xlink:title="Base expr nodes in TVM. ">
<polygon fill="white" stroke="black" points="1502.5,-705.5 1502.5,-724.5 1579.5,-724.5 1579.5,-705.5 1502.5,-705.5"/>
<text text-anchor="middle" x="1541" y="-712.5" font-family="Helvetica,sans-Serif" font-size="10.00">tvm/ir/expr.h</text>
</a>
</g>
</g>
<!-- Node12&#45;&gt;Node37 -->
<g id="edge105" class="edge"><title>Node12&#45;&gt;Node37</title>
<path fill="none" stroke="midnightblue" d="M1999.59,-765.627C1908.61,-755.781 1688,-731.908 1589.68,-721.268"/>
<polygon fill="midnightblue" stroke="midnightblue" points="1590.03,-717.786 1579.72,-720.19 1589.28,-724.745 1590.03,-717.786"/>
</g>
<!-- Node40 -->
<g id="node40" class="node"><title>Node40</title>
<polygon fill="white" stroke="#bfbfbf" points="2120,-649.5 2120,-668.5 2182,-668.5 2182,-649.5 2120,-649.5"/>
<text text-anchor="middle" x="2151" y="-656.5" font-family="Helvetica,sans-Serif" font-size="10.00">algorithm</text>
</g>
<!-- Node12&#45;&gt;Node40 -->
<g id="edge125" class="edge"><title>Node12&#45;&gt;Node40</title>
<path fill="none" stroke="midnightblue" d="M2048.71,-761.368C2067.35,-742.894 2111.35,-699.293 2135.11,-675.744"/>
<polygon fill="midnightblue" stroke="midnightblue" points="2137.69,-678.117 2142.33,-668.591 2132.76,-673.144 2137.69,-678.117"/>
</g>
<!-- Node13&#45;&gt;Node2 -->
<g id="edge14" class="edge"><title>Node13&#45;&gt;Node2</title>
<path fill="none" stroke="midnightblue" d="M1411.23,-537.448C1362.63,-522.402 1261.98,-488.613 1184,-445 1168.66,-436.42 938.856,-270.725 931,-255 883.243,-159.41 921.396,-260.856 1110,-199 1130.03,-192.432 1133.2,-186.228 1153,-179 1191.64,-164.895 1236.76,-152.94 1270.2,-144.905"/>
<polygon fill="midnightblue" stroke="midnightblue" points="1271.26,-148.251 1280.18,-142.54 1269.64,-141.44 1271.26,-148.251"/>
</g>
<!-- Node13&#45;&gt;Node4 -->
<g id="edge13" class="edge"><title>Node13&#45;&gt;Node4</title>
<path fill="none" stroke="midnightblue" d="M1489.27,-538.868C1532.02,-531.852 1595.17,-519.486 1648,-501 1705.95,-480.724 1943.91,-368.686 2006,-322 2043.95,-293.466 2077.55,-281.511 2068,-235 2056.05,-176.796 2039.82,-162.01 1995,-123 1981.84,-111.549 1965.92,-100.686 1951.97,-91.9898"/>
<polygon fill="midnightblue" stroke="midnightblue" points="1953.5,-88.823 1943.14,-86.6037 1949.85,-94.799 1953.5,-88.823"/>
</g>
<!-- Node13&#45;&gt;Node8 -->
<g id="edge100" class="edge"><title>Node13&#45;&gt;Node8</title>
<path fill="none" stroke="midnightblue" d="M1489.15,-537.77C1538.91,-529.259 1618.01,-515.242 1686,-501 1940.92,-447.604 2005.18,-425.909 2244,-322 2306.15,-294.958 2333.92,-303.759 2381,-255 2422.86,-211.649 2422.78,-182.29 2412,-123 2409.96,-111.765 2405.55,-99.7786 2401.5,-90.3041"/>
<polygon fill="midnightblue" stroke="midnightblue" points="2404.67,-88.8328 2397.36,-81.1636 2398.29,-91.7174 2404.67,-88.8328"/>
</g>
<!-- Node13&#45;&gt;Node9 -->
<g id="edge97" class="edge"><title>Node13&#45;&gt;Node9</title>
<path fill="none" stroke="midnightblue" d="M1390.64,-544.127C1271.6,-539.28 971.385,-525.002 874,-501 812.521,-485.847 799.629,-473.327 743,-445 645.233,-396.094 609.485,-397.049 530,-322 482.759,-277.396 485.077,-254.317 451,-199 435.728,-174.209 428.28,-169.843 417,-143 409.895,-126.092 405.059,-105.686 402.204,-91.1886"/>
<polygon fill="midnightblue" stroke="midnightblue" points="405.583,-90.2109 400.334,-81.0081 398.699,-91.476 405.583,-90.2109"/>
</g>
<!-- Node13&#45;&gt;Node10 -->
<g id="edge99" class="edge"><title>Node13&#45;&gt;Node10</title>
<path fill="none" stroke="midnightblue" d="M1390.89,-543.798C1284.99,-538.664 1038.25,-524.515 958,-501 843.736,-467.518 781.92,-479.702 720,-378 655.732,-272.443 794.897,-133.619 846.082,-87.8563"/>
<polygon fill="midnightblue" stroke="midnightblue" points="848.565,-90.3333 853.762,-81.1005 843.942,-85.0773 848.565,-90.3333"/>
</g>
<!-- Node14 -->
<g id="node14" class="node"><title>Node14</title>
<g id="a_node14"><a xlink:href="runtime_2memory_8h.html" target="_top" xlink:title="Runtime memory management. ">
<polygon fill="white" stroke="black" points="940.5,-179.5 940.5,-198.5 1067.5,-198.5 1067.5,-179.5 940.5,-179.5"/>
<text text-anchor="middle" x="1004" y="-186.5" font-family="Helvetica,sans-Serif" font-size="10.00">tvm/runtime/memory.h</text>
</a>
</g>
</g>
<!-- Node13&#45;&gt;Node14 -->
<g id="edge15" class="edge"><title>Node13&#45;&gt;Node14</title>
<path fill="none" stroke="midnightblue" d="M1390.78,-544.33C1303.25,-540.658 1124.59,-529.786 1070,-501 1033.09,-481.538 1008,-472.226 1008,-430.5 1008,-430.5 1008,-430.5 1008,-367 1008,-297.229 924.409,-319.579 898,-255 886.781,-227.567 918.085,-210.863 949.528,-201.271"/>
<polygon fill="midnightblue" stroke="midnightblue" points="950.576,-204.612 959.243,-198.518 948.668,-197.877 950.576,-204.612"/>
</g>
<!-- Node16 -->
<g id="node16" class="node"><title>Node16</title>
<g id="a_node16"><a xlink:href="reflection_8h.html" target="_top" xlink:title="Reflection and serialization of compiler IR/AST nodes. ">
<polygon fill="white" stroke="black" points="1460.5,-481.5 1460.5,-500.5 1579.5,-500.5 1579.5,-481.5 1460.5,-481.5"/>
<text text-anchor="middle" x="1520" y="-488.5" font-family="Helvetica,sans-Serif" font-size="10.00">tvm/node/reflection.h</text>
</a>
</g>
</g>
<!-- Node13&#45;&gt;Node16 -->
<g id="edge20" class="edge"><title>Node13&#45;&gt;Node16</title>
<path fill="none" stroke="midnightblue" d="M1452.85,-537.324C1465.22,-528.979 1484.13,-516.212 1498.74,-506.352"/>
<polygon fill="midnightblue" stroke="midnightblue" points="1500.85,-509.15 1507.18,-500.655 1496.93,-503.348 1500.85,-509.15"/>
</g>
<!-- Node21 -->
<g id="node21" class="node"><title>Node21</title>
<polygon fill="white" stroke="#bfbfbf" points="1580.5,-179.5 1580.5,-198.5 1627.5,-198.5 1627.5,-179.5 1580.5,-179.5"/>
<text text-anchor="middle" x="1604" y="-186.5" font-family="Helvetica,sans-Serif" font-size="10.00">vector</text>
</g>
<!-- Node13&#45;&gt;Node21 -->
<g id="edge98" class="edge"><title>Node13&#45;&gt;Node21</title>
<path fill="none" stroke="midnightblue" d="M1485.92,-537.455C1575.66,-517.917 1771.84,-460.515 1844,-322 1892.86,-228.223 1745.12,-231.06 1637.18,-200.461"/>
<polygon fill="midnightblue" stroke="midnightblue" points="1638.1,-197.084 1627.52,-197.596 1636.11,-203.795 1638.1,-197.084"/>
</g>
<!-- Node30 -->
<g id="node30" class="node"><title>Node30</title>
<g id="a_node30"><a xlink:href="structural__equal_8h.html" target="_top" xlink:title="Structural equality comparison. ">
<polygon fill="white" stroke="black" points="1322.5,-414.5 1322.5,-444.5 1433.5,-444.5 1433.5,-414.5 1322.5,-414.5"/>
<text text-anchor="start" x="1330.5" y="-432.5" font-family="Helvetica,sans-Serif" font-size="10.00">tvm/node/structural</text>
<text text-anchor="middle" x="1378" y="-421.5" font-family="Helvetica,sans-Serif" font-size="10.00">_equal.h</text>
</a>
</g>
</g>
<!-- Node13&#45;&gt;Node30 -->
<g id="edge95" class="edge"><title>Node13&#45;&gt;Node30</title>
<path fill="none" stroke="midnightblue" d="M1435.34,-537.319C1425.9,-519.734 1404.25,-479.394 1390.42,-453.629"/>
<polygon fill="midnightblue" stroke="midnightblue" points="1393.35,-451.701 1385.54,-444.545 1387.19,-455.012 1393.35,-451.701"/>
</g>
<!-- Node13&#45;&gt;Node32 -->
<g id="edge94" class="edge"><title>Node13&#45;&gt;Node32</title>
<path fill="none" stroke="midnightblue" d="M1390.69,-544.741C1290,-541.57 1064.34,-531.223 994,-501 939.566,-477.612 943.206,-445.457 893,-414 871.268,-400.384 844.702,-388.966 823.86,-381.039"/>
<polygon fill="midnightblue" stroke="midnightblue" points="825.024,-377.738 814.431,-377.541 822.589,-384.301 825.024,-377.738"/>
</g>
<!-- Node34 -->
<g id="node34" class="node"><title>Node34</title>
<g id="a_node34"><a xlink:href="structural__hash_8h.html" target="_top" xlink:title="tvm/node/structural\l_hash.h">
<polygon fill="white" stroke="black" points="1193.5,-414.5 1193.5,-444.5 1304.5,-444.5 1304.5,-414.5 1193.5,-414.5"/>
<text text-anchor="start" x="1201.5" y="-432.5" font-family="Helvetica,sans-Serif" font-size="10.00">tvm/node/structural</text>
<text text-anchor="middle" x="1249" y="-421.5" font-family="Helvetica,sans-Serif" font-size="10.00">_hash.h</text>
</a>
</g>
</g>
<!-- Node13&#45;&gt;Node34 -->
<g id="edge96" class="edge"><title>Node13&#45;&gt;Node34</title>
<path fill="none" stroke="midnightblue" d="M1425.64,-537.319C1395.09,-518.843 1323,-475.249 1280.97,-449.83"/>
<polygon fill="midnightblue" stroke="midnightblue" points="1282.59,-446.725 1272.23,-444.545 1278.97,-452.715 1282.59,-446.725"/>
</g>
<!-- Node35 -->
<g id="node35" class="node"><title>Node35</title>
<g id="a_node35"><a xlink:href="repr__printer_8h.html" target="_top" xlink:title="Printer class to print repr string of each AST/IR nodes. ">
<polygon fill="white" stroke="black" points="2090,-481.5 2090,-500.5 2220,-500.5 2220,-481.5 2090,-481.5"/>
<text text-anchor="middle" x="2155" y="-488.5" font-family="Helvetica,sans-Serif" font-size="10.00">tvm/node/repr_printer.h</text>
</a>
</g>
</g>
<!-- Node13&#45;&gt;Node35 -->
<g id="edge91" class="edge"><title>Node13&#45;&gt;Node35</title>
<path fill="none" stroke="midnightblue" d="M1489.13,-543.242C1595.99,-537.087 1857.48,-521.169 2076,-501 2077.28,-500.882 2078.56,-500.761 2079.86,-500.637"/>
<polygon fill="midnightblue" stroke="midnightblue" points="2080.32,-504.109 2089.93,-499.637 2079.63,-497.143 2080.32,-504.109"/>
</g>
<!-- Node14&#45;&gt;Node2 -->
<g id="edge16" class="edge"><title>Node14&#45;&gt;Node2</title>
<path fill="none" stroke="midnightblue" d="M1053.91,-179.444C1109.67,-169.885 1199.89,-154.419 1259.33,-144.23"/>
<polygon fill="midnightblue" stroke="midnightblue" points="1260.06,-147.656 1269.32,-142.516 1258.87,-140.756 1260.06,-147.656"/>
</g>
<!-- Node14&#45;&gt;Node8 -->
<g id="edge19" class="edge"><title>Node14&#45;&gt;Node8</title>
<path fill="none" stroke="midnightblue" d="M1029.22,-179.41C1073.49,-164.774 1168.34,-135.387 1251,-123 1645.14,-63.9388 1748.94,-106.726 2147,-87 2217.61,-83.5008 2299.56,-78.4775 2348.79,-75.3556"/>
<polygon fill="midnightblue" stroke="midnightblue" points="2349.03,-78.8478 2358.79,-74.7195 2348.58,-71.8619 2349.03,-78.8478"/>
</g>
<!-- Node14&#45;&gt;Node10 -->
<g id="edge18" class="edge"><title>Node14&#45;&gt;Node10</title>
<path fill="none" stroke="midnightblue" d="M993.434,-179.131C978.467,-166.583 950.216,-142.951 926,-123 911.375,-110.95 894.719,-97.3931 882.356,-87.3618"/>
<polygon fill="midnightblue" stroke="midnightblue" points="884.533,-84.6208 874.561,-81.0421 880.125,-90.0585 884.533,-84.6208"/>
</g>
<!-- Node15 -->
<g id="node15" class="node"><title>Node15</title>
<polygon fill="white" stroke="#bfbfbf" points="980.5,-123.5 980.5,-142.5 1027.5,-142.5 1027.5,-123.5 980.5,-123.5"/>
<text text-anchor="middle" x="1004" y="-130.5" font-family="Helvetica,sans-Serif" font-size="10.00">cstdlib</text>
</g>
<!-- Node14&#45;&gt;Node15 -->
<g id="edge17" class="edge"><title>Node14&#45;&gt;Node15</title>
<path fill="none" stroke="midnightblue" d="M1004,-179.083C1004,-172.006 1004,-161.861 1004,-152.986"/>
<polygon fill="midnightblue" stroke="midnightblue" points="1007.5,-152.751 1004,-142.751 1000.5,-152.751 1007.5,-152.751"/>
</g>
<!-- Node16&#45;&gt;Node2 -->
<g id="edge22" class="edge"><title>Node16&#45;&gt;Node2</title>
<path fill="none" stroke="midnightblue" d="M1522.21,-481.261C1527.01,-461.436 1538,-411.476 1538,-369 1538,-369 1538,-369 1538,-305.5 1538,-259.427 1501.82,-258.167 1462,-235 1416.07,-208.283 1387.65,-234.374 1348,-199 1334.48,-186.938 1326.93,-167.37 1322.95,-152.851"/>
<polygon fill="midnightblue" stroke="midnightblue" points="1326.31,-151.842 1320.57,-142.941 1319.51,-153.482 1326.31,-151.842"/>
</g>
<!-- Node16&#45;&gt;Node4 -->
<g id="edge21" class="edge"><title>Node16&#45;&gt;Node4</title>
<path fill="none" stroke="midnightblue" d="M1549.83,-481.483C1653.09,-451.336 1992.34,-346.58 2052,-255 2072.86,-222.987 1984.77,-134.355 1941.16,-93.5543"/>
<polygon fill="midnightblue" stroke="midnightblue" points="1943.29,-90.7513 1933.58,-86.517 1938.53,-95.8836 1943.29,-90.7513"/>
</g>
<!-- Node16&#45;&gt;Node8 -->
<g id="edge90" class="edge"><title>Node16&#45;&gt;Node8</title>
<path fill="none" stroke="midnightblue" d="M1579.62,-486.663C1649.58,-481.748 1768.66,-470.25 1868,-445 1875.09,-443.199 2353.98,-260.319 2359,-255 2401.91,-209.519 2399.31,-128.161 2395.53,-91.4235"/>
<polygon fill="midnightblue" stroke="midnightblue" points="2398.97,-90.6862 2394.32,-81.1655 2392.02,-91.5068 2398.97,-90.6862"/>
</g>
<!-- Node16&#45;&gt;Node9 -->
<g id="edge89" class="edge"><title>Node16&#45;&gt;Node9</title>
<path fill="none" stroke="midnightblue" d="M1460.36,-490.096C1320.17,-488.618 960.382,-474.852 680,-378 536.474,-328.422 511.612,-272.304 432,-143 421.509,-125.961 412.115,-105.049 406.058,-90.4433"/>
<polygon fill="midnightblue" stroke="midnightblue" points="409.261,-89.0285 402.269,-81.0683 402.771,-91.6513 409.261,-89.0285"/>
</g>
<!-- Node16&#45;&gt;Node14 -->
<g id="edge23" class="edge"><title>Node16&#45;&gt;Node14</title>
<path fill="none" stroke="midnightblue" d="M1512.39,-481.33C1499.07,-466.453 1470.24,-435.583 1442,-414 1305.61,-309.774 1113.42,-231.139 1037.1,-202.151"/>
<polygon fill="midnightblue" stroke="midnightblue" points="1038.13,-198.799 1027.54,-198.549 1035.66,-205.349 1038.13,-198.799"/>
</g>
<!-- Node17 -->
<g id="node17" class="node"><title>Node17</title>
<g id="a_node17"><a xlink:href="packed__func_8h.html" target="_top" xlink:title="Type&#45;erased function used across TVM API. ">
<polygon fill="white" stroke="black" points="1396.5,-291.5 1396.5,-321.5 1509.5,-321.5 1509.5,-291.5 1396.5,-291.5"/>
<text text-anchor="start" x="1404.5" y="-309.5" font-family="Helvetica,sans-Serif" font-size="10.00">tvm/runtime/packed</text>
<text text-anchor="middle" x="1453" y="-298.5" font-family="Helvetica,sans-Serif" font-size="10.00">_func.h</text>
</a>
</g>
</g>
<!-- Node16&#45;&gt;Node17 -->
<g id="edge24" class="edge"><title>Node16&#45;&gt;Node17</title>
<path fill="none" stroke="midnightblue" d="M1517.43,-481.238C1511.1,-459.898 1493.94,-403.637 1476,-358 1472.5,-349.107 1468.26,-339.524 1464.38,-331.121"/>
<polygon fill="midnightblue" stroke="midnightblue" points="1467.47,-329.473 1460.05,-321.911 1461.14,-332.45 1467.47,-329.473"/>
</g>
<!-- Node16&#45;&gt;Node21 -->
<g id="edge88" class="edge"><title>Node16&#45;&gt;Node21</title>
<path fill="none" stroke="midnightblue" d="M1533.38,-481.34C1574.02,-454.097 1695.72,-365.359 1736,-255 1739.05,-246.65 1741.17,-242.229 1736,-235 1734.49,-232.893 1675.97,-213.479 1637.36,-200.848"/>
<polygon fill="midnightblue" stroke="midnightblue" points="1638.13,-197.419 1627.54,-197.642 1635.96,-204.073 1638.13,-197.419"/>
</g>
<!-- Node23 -->
<g id="node23" class="node"><title>Node23</title>
<g id="a_node23"><a xlink:href="ndarray_8h.html" target="_top" xlink:title="A device&#45;independent managed NDArray abstraction. ">
<polygon fill="white" stroke="black" points="1604.5,-235.5 1604.5,-254.5 1727.5,-254.5 1727.5,-235.5 1604.5,-235.5"/>
<text text-anchor="middle" x="1666" y="-242.5" font-family="Helvetica,sans-Serif" font-size="10.00">tvm/runtime/ndarray.h</text>
</a>
</g>
</g>
<!-- Node16&#45;&gt;Node23 -->
<g id="edge61" class="edge"><title>Node16&#45;&gt;Node23</title>
<path fill="none" stroke="midnightblue" d="M1526.64,-481.212C1533.3,-472.268 1543.73,-457.92 1552,-445 1593.8,-379.676 1637.98,-298.559 1656.73,-263.494"/>
<polygon fill="midnightblue" stroke="midnightblue" points="1659.9,-264.988 1661.51,-254.516 1653.72,-261.698 1659.9,-264.988"/>
</g>
<!-- Node16&#45;&gt;Node26 -->
<g id="edge62" class="edge"><title>Node16&#45;&gt;Node26</title>
<path fill="none" stroke="midnightblue" d="M1579.75,-484.714C1638.22,-478.583 1729.41,-466.459 1806,-445 1944.37,-406.234 1972.53,-377.682 2105,-322 2157.19,-300.062 2217.76,-273.904 2252.8,-258.7"/>
<polygon fill="midnightblue" stroke="midnightblue" points="2254.62,-261.726 2262.4,-254.533 2251.83,-255.305 2254.62,-261.726"/>
</g>
<!-- Node16&#45;&gt;Node30 -->
<g id="edge63" class="edge"><title>Node16&#45;&gt;Node30</title>
<path fill="none" stroke="midnightblue" d="M1499.65,-481.475C1479.16,-472.889 1446.93,-459.383 1420.79,-448.429"/>
<polygon fill="midnightblue" stroke="midnightblue" points="1422.04,-445.16 1411.47,-444.523 1419.34,-451.616 1422.04,-445.16"/>
</g>
<!-- Node16&#45;&gt;Node34 -->
<g id="edge82" class="edge"><title>Node16&#45;&gt;Node34</title>
<path fill="none" stroke="midnightblue" d="M1480.29,-481.476C1440.72,-472.957 1377.95,-459.378 1314.95,-445.424"/>
<polygon fill="midnightblue" stroke="midnightblue" points="1315.36,-441.93 1304.84,-443.182 1313.85,-448.764 1315.36,-441.93"/>
</g>
<!-- Node17&#45;&gt;Node2 -->
<g id="edge52" class="edge"><title>Node17&#45;&gt;Node2</title>
<path fill="none" stroke="midnightblue" d="M1454.94,-291.453C1456.27,-275.723 1455.79,-250.42 1442,-235 1401.46,-189.673 1346.91,-247.326 1310,-199 1299.76,-185.595 1304.38,-165.953 1310.09,-151.772"/>
<polygon fill="midnightblue" stroke="midnightblue" points="1313.31,-153.133 1314.25,-142.579 1306.94,-150.249 1313.31,-153.133"/>
</g>
<!-- Node17&#45;&gt;Node3 -->
<g id="edge25" class="edge"><title>Node17&#45;&gt;Node3</title>
<path fill="none" stroke="midnightblue" d="M1509.51,-300.759C1573.98,-294.387 1682.12,-280.76 1772,-255 1833.26,-237.443 1847.86,-229.166 1904,-199 1969.61,-163.744 2041.44,-112.377 2075.28,-87.336"/>
<polygon fill="midnightblue" stroke="midnightblue" points="2077.47,-90.0625 2083.41,-81.2837 2073.29,-84.4473 2077.47,-90.0625"/>
</g>
<!-- Node17&#45;&gt;Node4 -->
<g id="edge26" class="edge"><title>Node17&#45;&gt;Node4</title>
<path fill="none" stroke="midnightblue" d="M1509.56,-299.627C1567.41,-292.646 1659.39,-278.832 1736,-255 1756.51,-248.619 1760.08,-243.027 1780,-235 1824.59,-217.036 1847.42,-232.393 1882,-199 1909.84,-172.116 1916.6,-125.376 1917.98,-96.8596"/>
<polygon fill="midnightblue" stroke="midnightblue" points="1921.49,-96.655 1918.29,-86.5558 1914.49,-96.4479 1921.49,-96.655"/>
</g>
<!-- Node17&#45;&gt;Node8 -->
<g id="edge60" class="edge"><title>Node17&#45;&gt;Node8</title>
<path fill="none" stroke="midnightblue" d="M1509.75,-302.007C1649.16,-293.242 2000.78,-269.955 2052,-255 2077.67,-247.505 2241.45,-155.673 2265,-143 2301.25,-123.489 2342.97,-100.387 2368.67,-86.0853"/>
<polygon fill="midnightblue" stroke="midnightblue" points="2370.65,-88.9857 2377.68,-81.0608 2367.24,-82.8708 2370.65,-88.9857"/>
</g>
<!-- Node17&#45;&gt;Node9 -->
<g id="edge56" class="edge"><title>Node17&#45;&gt;Node9</title>
<path fill="none" stroke="midnightblue" d="M1396.21,-303.029C1323.44,-298.649 1194.02,-286.747 1088,-255 1068.19,-249.069 1065.7,-241.274 1046,-235 957.022,-206.664 930.05,-219.735 839,-199 749.831,-178.694 725.926,-176.926 641,-143 623.277,-135.92 620.838,-129.787 603,-123 544.181,-100.62 472.014,-85.4727 431.188,-77.9715"/>
<polygon fill="midnightblue" stroke="midnightblue" points="431.73,-74.5129 421.268,-76.1866 430.49,-81.4022 431.73,-74.5129"/>
</g>
<!-- Node17&#45;&gt;Node10 -->
<g id="edge59" class="edge"><title>Node17&#45;&gt;Node10</title>
<path fill="none" stroke="midnightblue" d="M1396.27,-295.068C1342.76,-285.128 1260.33,-269.56 1189,-255 1174.63,-252.066 942.688,-207.861 931,-199 894.811,-171.561 876.147,-118.836 868.429,-90.9075"/>
<polygon fill="midnightblue" stroke="midnightblue" points="871.814,-90.0165 865.919,-81.2133 865.037,-91.7714 871.814,-90.0165"/>
</g>
<!-- Node18 -->
<g id="node18" class="node"><title>Node18</title>
<g id="a_node18"><a xlink:href="runtime_2module_8h.html" target="_top" xlink:title="Runtime container of the functions generated by TVM, This is used to support dynamically link...">
<polygon fill="white" stroke="black" points="1212,-235.5 1212,-254.5 1336,-254.5 1336,-235.5 1212,-235.5"/>
<text text-anchor="middle" x="1274" y="-242.5" font-family="Helvetica,sans-Serif" font-size="10.00">tvm/runtime/module.h</text>
</a>
</g>
</g>
<!-- Node17&#45;&gt;Node18 -->
<g id="edge27" class="edge"><title>Node17&#45;&gt;Node18</title>
<path fill="none" stroke="midnightblue" d="M1404.74,-291.399C1372.87,-281.238 1332.15,-267.672 1304.62,-258.022"/>
<polygon fill="midnightblue" stroke="midnightblue" points="1305.71,-254.695 1295.12,-254.658 1303.38,-261.294 1305.71,-254.695"/>
</g>
<!-- Node20 -->
<g id="node20" class="node"><title>Node20</title>
<polygon fill="white" stroke="#bfbfbf" points="1162.5,-179.5 1162.5,-198.5 1219.5,-198.5 1219.5,-179.5 1162.5,-179.5"/>
<text text-anchor="middle" x="1191" y="-186.5" font-family="Helvetica,sans-Serif" font-size="10.00">memory</text>
</g>
<!-- Node17&#45;&gt;Node20 -->
<g id="edge58" class="edge"><title>Node17&#45;&gt;Node20</title>
<path fill="none" stroke="midnightblue" d="M1396.34,-297.458C1326.83,-287.075 1216.49,-268.714 1203,-255 1191.19,-242.992 1188.98,-223.388 1189.24,-208.845"/>
<polygon fill="midnightblue" stroke="midnightblue" points="1192.75,-208.696 1189.84,-198.508 1185.77,-208.287 1192.75,-208.696"/>
</g>
<!-- Node17&#45;&gt;Node21 -->
<g id="edge55" class="edge"><title>Node17&#45;&gt;Node21</title>
<path fill="none" stroke="midnightblue" d="M1471.52,-291.337C1500.21,-269.392 1555.14,-227.37 1584.45,-204.953"/>
<polygon fill="midnightblue" stroke="midnightblue" points="1586.85,-207.525 1592.67,-198.669 1582.6,-201.965 1586.85,-207.525"/>
</g>
<!-- Node17&#45;&gt;Node23 -->
<g id="edge37" class="edge"><title>Node17&#45;&gt;Node23</title>
<path fill="none" stroke="midnightblue" d="M1503.21,-291.475C1540.6,-281.03 1590.98,-266.958 1625.74,-257.247"/>
<polygon fill="midnightblue" stroke="midnightblue" points="1626.86,-260.568 1635.55,-254.506 1624.98,-253.826 1626.86,-260.568"/>
</g>
<!-- Node17&#45;&gt;Node26 -->
<g id="edge48" class="edge"><title>Node17&#45;&gt;Node26</title>
<path fill="none" stroke="midnightblue" d="M1509.65,-301.434C1654.41,-291.044 2038.06,-263.508 2203.86,-251.608"/>
<polygon fill="midnightblue" stroke="midnightblue" points="2204.26,-255.089 2213.98,-250.882 2203.76,-248.107 2204.26,-255.089"/>
</g>
<!-- Node27 -->
<g id="node27" class="node"><title>Node27</title>
<polygon fill="white" stroke="#bfbfbf" points="940.5,-235.5 940.5,-254.5 1003.5,-254.5 1003.5,-235.5 940.5,-235.5"/>
<text text-anchor="middle" x="972" y="-242.5" font-family="Helvetica,sans-Serif" font-size="10.00">functional</text>
</g>
<!-- Node17&#45;&gt;Node27 -->
<g id="edge53" class="edge"><title>Node17&#45;&gt;Node27</title>
<path fill="none" stroke="midnightblue" d="M1396.41,-298.5C1298.57,-286.397 1100,-261.833 1013.66,-251.153"/>
<polygon fill="midnightblue" stroke="midnightblue" points="1014.05,-247.675 1003.7,-249.921 1013.19,-254.622 1014.05,-247.675"/>
</g>
<!-- Node28 -->
<g id="node28" class="node"><title>Node28</title>
<polygon fill="white" stroke="#bfbfbf" points="1392.5,-235.5 1392.5,-254.5 1433.5,-254.5 1433.5,-235.5 1392.5,-235.5"/>
<text text-anchor="middle" x="1413" y="-242.5" font-family="Helvetica,sans-Serif" font-size="10.00">tuple</text>
</g>
<!-- Node17&#45;&gt;Node28 -->
<g id="edge54" class="edge"><title>Node17&#45;&gt;Node28</title>
<path fill="none" stroke="midnightblue" d="M1443.52,-291.399C1437.83,-282.932 1430.55,-272.099 1424.52,-263.139"/>
<polygon fill="midnightblue" stroke="midnightblue" points="1427.3,-261.004 1418.82,-254.658 1421.49,-264.909 1427.3,-261.004"/>
</g>
<!-- Node17&#45;&gt;Node29 -->
<g id="edge57" class="edge"><title>Node17&#45;&gt;Node29</title>
<path fill="none" stroke="midnightblue" d="M1509.75,-302.91C1652.5,-296.27 2038.03,-277.567 2359,-255 2384.22,-253.227 2412.77,-250.777 2433.88,-248.881"/>
<polygon fill="midnightblue" stroke="midnightblue" points="2434.25,-252.362 2443.9,-247.973 2433.62,-245.391 2434.25,-252.362"/>
</g>
<!-- Node18&#45;&gt;Node2 -->
<g id="edge30" class="edge"><title>Node18&#45;&gt;Node2</title>
<path fill="none" stroke="midnightblue" d="M1271.47,-235.157C1268.25,-222.232 1264.02,-197.69 1272,-179 1277.15,-166.947 1287.28,-156.576 1296.83,-148.839"/>
<polygon fill="midnightblue" stroke="midnightblue" points="1299.04,-151.553 1304.92,-142.741 1294.83,-145.962 1299.04,-151.553"/>
</g>
<!-- Node18&#45;&gt;Node4 -->
<g id="edge29" class="edge"><title>Node18&#45;&gt;Node4</title>
<path fill="none" stroke="midnightblue" d="M1293.17,-235.418C1343.04,-213.428 1481.33,-154.576 1602,-123 1683.63,-101.639 1779.62,-87.8496 1844.21,-80.1658"/>
<polygon fill="midnightblue" stroke="midnightblue" points="1844.77,-83.6239 1854.3,-78.9848 1843.96,-76.6713 1844.77,-83.6239"/>
</g>
<!-- Node18&#45;&gt;Node9 -->
<g id="edge34" class="edge"><title>Node18&#45;&gt;Node9</title>
<path fill="none" stroke="midnightblue" d="M1211.97,-238.235C1142.97,-231.273 1028.4,-218.073 931,-199 800.242,-173.394 770.702,-153.508 641,-123 566.194,-105.405 477.645,-87.7181 431.172,-78.6756"/>
<polygon fill="midnightblue" stroke="midnightblue" points="431.588,-75.1911 421.105,-76.724 430.256,-82.0632 431.588,-75.1911"/>
</g>
<!-- Node18&#45;&gt;Node14 -->
<g id="edge31" class="edge"><title>Node18&#45;&gt;Node14</title>
<path fill="none" stroke="midnightblue" d="M1231.22,-235.444C1183.82,-225.964 1107.37,-210.675 1056.42,-200.483"/>
<polygon fill="midnightblue" stroke="midnightblue" points="1057.07,-197.046 1046.58,-198.516 1055.7,-203.91 1057.07,-197.046"/>
</g>
<!-- Node18&#45;&gt;Node17 -->
<g id="edge36" class="edge"><title>Node18&#45;&gt;Node17</title>
<path fill="none" stroke="midnightblue" d="M1304.7,-254.571C1332.82,-263.291 1374.66,-277.054 1406.79,-288.076"/>
<polygon fill="midnightblue" stroke="midnightblue" points="1405.82,-291.446 1416.42,-291.399 1408.11,-284.829 1405.82,-291.446"/>
</g>
<!-- Node19 -->
<g id="node19" class="node"><title>Node19</title>
<polygon fill="white" stroke="#bfbfbf" points="1611,-123.5 1611,-142.5 1671,-142.5 1671,-123.5 1611,-123.5"/>
<text text-anchor="middle" x="1641" y="-130.5" font-family="Helvetica,sans-Serif" font-size="10.00">dmlc/io.h</text>
</g>
<!-- Node18&#45;&gt;Node19 -->
<g id="edge28" class="edge"><title>Node18&#45;&gt;Node19</title>
<path fill="none" stroke="midnightblue" d="M1311.75,-235.424C1347.96,-226.972 1404.04,-213.283 1452,-199 1507.48,-182.48 1570.91,-159.889 1608.37,-146.155"/>
<polygon fill="midnightblue" stroke="midnightblue" points="1610.04,-149.268 1618.22,-142.528 1607.62,-142.699 1610.04,-149.268"/>
</g>
<!-- Node18&#45;&gt;Node20 -->
<g id="edge32" class="edge"><title>Node18&#45;&gt;Node20</title>
<path fill="none" stroke="midnightblue" d="M1260.66,-235.324C1247.84,-226.979 1228.22,-214.212 1213.06,-204.352"/>
<polygon fill="midnightblue" stroke="midnightblue" points="1214.59,-201.174 1204.3,-198.655 1210.78,-207.042 1214.59,-201.174"/>
</g>
<!-- Node18&#45;&gt;Node21 -->
<g id="edge33" class="edge"><title>Node18&#45;&gt;Node21</title>
<path fill="none" stroke="midnightblue" d="M1326.29,-235.444C1394.73,-224.245 1512.72,-204.937 1570.35,-195.506"/>
<polygon fill="midnightblue" stroke="midnightblue" points="1571.08,-198.934 1580.38,-193.865 1569.95,-192.025 1571.08,-198.934"/>
</g>
<!-- Node18&#45;&gt;Node22 -->
<g id="edge35" class="edge"><title>Node18&#45;&gt;Node22</title>
<path fill="none" stroke="midnightblue" d="M1211.94,-240.962C1016.58,-231.397 416.137,-202.001 227.99,-192.79"/>
<polygon fill="midnightblue" stroke="midnightblue" points="227.926,-189.283 217.767,-192.29 227.584,-196.274 227.926,-189.283"/>
</g>
<!-- Node23&#45;&gt;Node2 -->
<g id="edge39" class="edge"><title>Node23&#45;&gt;Node2</title>
<path fill="none" stroke="midnightblue" d="M1613.2,-235.493C1571.52,-228.032 1512.23,-215.751 1462,-199 1419.19,-184.724 1371.97,-161.742 1343.93,-147.277"/>
<polygon fill="midnightblue" stroke="midnightblue" points="1345.34,-144.063 1334.85,-142.543 1342.1,-150.27 1345.34,-144.063"/>
</g>
<!-- Node23&#45;&gt;Node4 -->
<g id="edge38" class="edge"><title>Node23&#45;&gt;Node4</title>
<path fill="none" stroke="midnightblue" d="M1727.76,-235.821C1776.95,-228.222 1840.79,-215.584 1861,-199 1877.64,-185.35 1898.81,-129.138 1910.09,-96.4213"/>
<polygon fill="midnightblue" stroke="midnightblue" points="1913.49,-97.3026 1913.39,-86.7083 1906.86,-95.0536 1913.49,-97.3026"/>
</g>
<!-- Node23&#45;&gt;Node10 -->
<g id="edge47" class="edge"><title>Node23&#45;&gt;Node10</title>
<path fill="none" stroke="midnightblue" d="M1639.34,-235.353C1613.8,-226.85 1574.34,-213.125 1541,-199 1470.35,-169.072 1459.82,-143.92 1386,-123 1292.7,-96.5591 993.25,-79.1558 895.318,-74.0568"/>
<polygon fill="midnightblue" stroke="midnightblue" points="895.342,-70.5535 885.176,-73.5354 894.983,-77.5443 895.342,-70.5535"/>
</g>
<!-- Node23&#45;&gt;Node11 -->
<g id="edge45" class="edge"><title>Node23&#45;&gt;Node11</title>
<path fill="none" stroke="midnightblue" d="M1643.07,-235.461C1623.15,-227.512 1593.96,-214.567 1571,-199 1521.84,-165.672 1473.02,-114.822 1449.5,-88.9133"/>
<polygon fill="midnightblue" stroke="midnightblue" points="1451.81,-86.2495 1442.53,-81.1445 1446.6,-90.9247 1451.81,-86.2495"/>
</g>
<!-- Node23&#45;&gt;Node21 -->
<g id="edge46" class="edge"><title>Node23&#45;&gt;Node21</title>
<path fill="none" stroke="midnightblue" d="M1656.04,-235.324C1646.87,-227.341 1633.06,-215.313 1621.97,-205.653"/>
<polygon fill="midnightblue" stroke="midnightblue" points="1623.98,-202.762 1614.14,-198.834 1619.38,-208.041 1623.98,-202.762"/>
</g>
<!-- Node24 -->
<g id="node24" class="node"><title>Node24</title>
<g id="a_node24"><a xlink:href="serializer_8h.html" target="_top" xlink:title="Serializer extension to support TVM data types Include this file to enable serialization of DLDataTyp...">
<polygon fill="white" stroke="black" points="1722,-179.5 1722,-198.5 1852,-198.5 1852,-179.5 1722,-179.5"/>
<text text-anchor="middle" x="1787" y="-186.5" font-family="Helvetica,sans-Serif" font-size="10.00">tvm/runtime/serializer.h</text>
</a>
</g>
</g>
<!-- Node23&#45;&gt;Node24 -->
<g id="edge40" class="edge"><title>Node23&#45;&gt;Node24</title>
<path fill="none" stroke="midnightblue" d="M1680.33,-235.324C1698.25,-226.467 1729.03,-212.63 1753.02,-202.573"/>
<polygon fill="midnightblue" stroke="midnightblue" points="1754.59,-205.71 1762.5,-198.655 1751.92,-199.241 1754.59,-205.71"/>
</g>
<!-- Node24&#45;&gt;Node4 -->
<g id="edge43" class="edge"><title>Node24&#45;&gt;Node4</title>
<path fill="none" stroke="midnightblue" d="M1796.85,-179.319C1817.41,-161.192 1865.39,-118.885 1894.42,-93.2879"/>
<polygon fill="midnightblue" stroke="midnightblue" points="1896.88,-95.784 1902.07,-86.5453 1892.25,-90.5334 1896.88,-95.784"/>
</g>
<!-- Node24&#45;&gt;Node19 -->
<g id="edge41" class="edge"><title>Node24&#45;&gt;Node19</title>
<path fill="none" stroke="midnightblue" d="M1763.87,-179.444C1739.52,-170.438 1700.99,-156.189 1673.58,-146.049"/>
<polygon fill="midnightblue" stroke="midnightblue" points="1674.62,-142.703 1664.03,-142.516 1672.19,-149.268 1674.62,-142.703"/>
</g>
<!-- Node24&#45;&gt;Node23 -->
<g id="edge44" class="edge"><title>Node24&#45;&gt;Node23</title>
<path fill="none" stroke="midnightblue" d="M1773,-198.516C1755.07,-207.388 1723.96,-221.38 1699.8,-231.503"/>
<polygon fill="midnightblue" stroke="midnightblue" points="1698.17,-228.39 1690.26,-235.444 1700.84,-234.86 1698.17,-228.39"/>
</g>
<!-- Node25 -->
<g id="node25" class="node"><title>Node25</title>
<polygon fill="white" stroke="#bfbfbf" points="1720,-123.5 1720,-142.5 1814,-142.5 1814,-123.5 1720,-123.5"/>
<text text-anchor="middle" x="1767" y="-130.5" font-family="Helvetica,sans-Serif" font-size="10.00">dmlc/serializer.h</text>
</g>
<!-- Node24&#45;&gt;Node25 -->
<g id="edge42" class="edge"><title>Node24&#45;&gt;Node25</title>
<path fill="none" stroke="midnightblue" d="M1783.7,-179.083C1781.02,-171.849 1777.15,-161.409 1773.81,-152.397"/>
<polygon fill="midnightblue" stroke="midnightblue" points="1777,-150.913 1770.24,-142.751 1770.43,-153.344 1777,-150.913"/>
</g>
<!-- Node26&#45;&gt;Node3 -->
<g id="edge50" class="edge"><title>Node26&#45;&gt;Node3</title>
<path fill="none" stroke="midnightblue" d="M2277.08,-235.375C2269.37,-222.297 2253.51,-197.065 2236,-179 2199.01,-140.84 2147.51,-105.553 2118.08,-86.7277"/>
<polygon fill="midnightblue" stroke="midnightblue" points="2119.67,-83.5928 2109.34,-81.2113 2115.93,-89.511 2119.67,-83.5928"/>
</g>
<!-- Node26&#45;&gt;Node4 -->
<g id="edge49" class="edge"><title>Node26&#45;&gt;Node4</title>
<path fill="none" stroke="midnightblue" d="M2270.09,-235.217C2240.19,-213.509 2158.98,-156.656 2084,-123 2053,-109.085 2017.1,-97.6289 1986.62,-89.1657"/>
<polygon fill="midnightblue" stroke="midnightblue" points="1987.5,-85.7775 1976.93,-86.5237 1985.66,-92.531 1987.5,-85.7775"/>
</g>
<!-- Node26&#45;&gt;Node8 -->
<g id="edge51" class="edge"><title>Node26&#45;&gt;Node8</title>
<path fill="none" stroke="midnightblue" d="M2301.57,-235.435C2316.76,-227.87 2337.29,-215.479 2350,-199 2375.3,-166.199 2386.22,-117.606 2390.52,-91.2134"/>
<polygon fill="midnightblue" stroke="midnightblue" points="2394.02,-91.482 2392.02,-81.0779 2387.09,-90.4593 2394.02,-91.482"/>
</g>
<!-- Node30&#45;&gt;Node9 -->
<g id="edge81" class="edge"><title>Node30&#45;&gt;Node9</title>
<path fill="none" stroke="midnightblue" d="M1349.76,-414.347C1292.17,-385.345 1157.17,-316.695 1046,-255 1030.67,-246.493 1028.56,-240.741 1012,-235 900.11,-196.221 862.979,-227.336 748,-199 625.553,-168.823 486.387,-110.869 427.603,-85.2338"/>
<polygon fill="midnightblue" stroke="midnightblue" points="428.791,-81.9328 418.227,-81.1208 425.979,-88.3431 428.791,-81.9328"/>
</g>
<!-- Node30&#45;&gt;Node26 -->
<g id="edge64" class="edge"><title>Node30&#45;&gt;Node26</title>
<path fill="none" stroke="midnightblue" d="M1433.83,-424.655C1515.94,-418.381 1673.85,-403.961 1806,-378 1973.51,-345.093 2168.32,-283.549 2246.69,-257.801"/>
<polygon fill="midnightblue" stroke="midnightblue" points="2248.13,-261.012 2256.53,-254.555 2245.94,-254.364 2248.13,-261.012"/>
</g>
<!-- Node30&#45;&gt;Node31 -->
<g id="edge65" class="edge"><title>Node30&#45;&gt;Node31</title>
<path fill="none" stroke="midnightblue" d="M1425.01,-414.483C1542.01,-379.592 1844.57,-289.368 1951.7,-257.42"/>
<polygon fill="midnightblue" stroke="midnightblue" points="1952.87,-260.726 1961.45,-254.514 1950.87,-254.018 1952.87,-260.726"/>
</g>
<!-- Node30&#45;&gt;Node32 -->
<g id="edge71" class="edge"><title>Node30&#45;&gt;Node32</title>
<path fill="none" stroke="midnightblue" d="M1322.42,-415.589C1319.24,-415.01 1316.09,-414.474 1313,-414 1151.37,-389.146 959.423,-377.043 858.689,-372.014"/>
<polygon fill="midnightblue" stroke="midnightblue" points="858.798,-368.515 848.638,-371.521 858.455,-375.507 858.798,-368.515"/>
</g>
<!-- Node31&#45;&gt;Node2 -->
<g id="edge67" class="edge"><title>Node31&#45;&gt;Node2</title>
<path fill="none" stroke="midnightblue" d="M1936.21,-236.592C1850.71,-224.761 1692.15,-202.565 1680,-199 1659.39,-192.952 1656.62,-185.015 1636,-179 1552.55,-154.658 1452.76,-143.263 1387.74,-138.081"/>
<polygon fill="midnightblue" stroke="midnightblue" points="1387.84,-134.579 1377.61,-137.302 1387.31,-141.559 1387.84,-134.579"/>
</g>
<!-- Node31&#45;&gt;Node3 -->
<g id="edge66" class="edge"><title>Node31&#45;&gt;Node3</title>
<path fill="none" stroke="midnightblue" d="M1995.35,-235.26C2011.85,-208.306 2062.17,-126.116 2084.33,-89.9237"/>
<polygon fill="midnightblue" stroke="midnightblue" points="2087.55,-91.3754 2089.78,-81.0194 2081.58,-87.7203 2087.55,-91.3754"/>
</g>
<!-- Node31&#45;&gt;Node8 -->
<g id="edge69" class="edge"><title>Node31&#45;&gt;Node8</title>
<path fill="none" stroke="midnightblue" d="M2009.98,-235.495C2075.78,-207.495 2285.87,-118.092 2363.66,-84.9857"/>
<polygon fill="midnightblue" stroke="midnightblue" points="2365.06,-88.1924 2372.89,-81.056 2362.32,-81.7513 2365.06,-88.1924"/>
</g>
<!-- Node31&#45;&gt;Node10 -->
<g id="edge70" class="edge"><title>Node31&#45;&gt;Node10</title>
<path fill="none" stroke="midnightblue" d="M1981.99,-235.451C1959.58,-212.187 1893.21,-147.822 1823,-123 1733.97,-91.5244 1051.39,-76.2075 895.594,-73.1011"/>
<polygon fill="midnightblue" stroke="midnightblue" points="895.369,-69.5961 885.302,-72.8985 895.231,-76.5947 895.369,-69.5961"/>
</g>
<!-- Node31&#45;&gt;Node21 -->
<g id="edge68" class="edge"><title>Node31&#45;&gt;Node21</title>
<path fill="none" stroke="midnightblue" d="M1936.18,-236.858C1931.39,-236.227 1926.61,-235.601 1922,-235 1797.59,-218.769 1765.44,-221.489 1642,-199 1640.54,-198.734 1639.05,-198.448 1637.55,-198.147"/>
<polygon fill="midnightblue" stroke="midnightblue" points="1638.15,-194.695 1627.64,-196.002 1636.67,-201.537 1638.15,-194.695"/>
</g>
<!-- Node32&#45;&gt;Node2 -->
<g id="edge72" class="edge"><title>Node32&#45;&gt;Node2</title>
<path fill="none" stroke="midnightblue" d="M803.078,-358.259C814.353,-350.355 829.346,-337.584 836,-322 841.411,-309.329 842.394,-303.204 836,-291 822.954,-266.102 797.046,-279.898 784,-255 779.875,-247.126 779.991,-242.934 784,-235 802.923,-197.552 820.828,-194.03 860,-179 929.502,-152.332 1140.2,-140.663 1250.31,-136.274"/>
<polygon fill="midnightblue" stroke="midnightblue" points="1250.46,-139.771 1260.32,-135.884 1250.19,-132.776 1250.46,-139.771"/>
</g>
<!-- Node32&#45;&gt;Node8 -->
<g id="edge75" class="edge"><title>Node32&#45;&gt;Node8</title>
<path fill="none" stroke="midnightblue" d="M848.617,-364.44C973.128,-358.846 1269.82,-344.228 1518,-322 1549.76,-319.156 2057.5,-264.295 2088,-255 2208.08,-218.406 2329.92,-124.722 2374.89,-87.7936"/>
<polygon fill="midnightblue" stroke="midnightblue" points="2377.38,-90.2784 2382.84,-81.1984 2372.91,-84.892 2377.38,-90.2784"/>
</g>
<!-- Node32&#45;&gt;Node9 -->
<g id="edge80" class="edge"><title>Node32&#45;&gt;Node9</title>
<path fill="none" stroke="midnightblue" d="M776.237,-358.32C763.358,-349.459 742.998,-335.175 726,-322 617.289,-237.741 602.136,-201.217 489,-123 468.544,-108.857 443.812,-95.2049 425.454,-85.6687"/>
<polygon fill="midnightblue" stroke="midnightblue" points="426.988,-82.5218 416.492,-81.0763 423.796,-88.7516 426.988,-82.5218"/>
</g>
<!-- Node32&#45;&gt;Node10 -->
<g id="edge79" class="edge"><title>Node32&#45;&gt;Node10</title>
<path fill="none" stroke="midnightblue" d="M771.498,-358.465C758.213,-350.917 740.924,-338.533 733,-322 727.045,-309.576 729.324,-304.278 733,-291 745.092,-247.316 821.793,-133.522 851.897,-89.8831"/>
<polygon fill="midnightblue" stroke="midnightblue" points="854.91,-91.6794 857.727,-81.4658 849.156,-87.6937 854.91,-91.6794"/>
</g>
<!-- Node32&#45;&gt;Node14 -->
<g id="edge73" class="edge"><title>Node32&#45;&gt;Node14</title>
<path fill="none" stroke="midnightblue" d="M774.63,-358.33C763.12,-350.469 747.811,-337.722 741,-322 735.523,-309.358 734.602,-303.202 741,-291 776.251,-223.773 865.42,-200.937 930.178,-193.377"/>
<polygon fill="midnightblue" stroke="midnightblue" points="930.777,-196.833 940.349,-192.29 930.034,-189.872 930.777,-196.833"/>
</g>
<!-- Node32&#45;&gt;Node17 -->
<g id="edge74" class="edge"><title>Node32&#45;&gt;Node17</title>
<path fill="none" stroke="midnightblue" d="M848.51,-361.667C972.17,-350.586 1256.18,-325.137 1386.02,-313.502"/>
<polygon fill="midnightblue" stroke="midnightblue" points="1386.58,-316.966 1396.22,-312.588 1385.95,-309.994 1386.58,-316.966"/>
</g>
<!-- Node32&#45;&gt;Node21 -->
<g id="edge76" class="edge"><title>Node32&#45;&gt;Node21</title>
<path fill="none" stroke="midnightblue" d="M848.516,-360.667C951.905,-348.433 1170.35,-317.101 1345,-255 1362.98,-248.606 1365.02,-241.413 1383,-235 1447.05,-212.15 1525.91,-199.592 1570.01,-193.879"/>
<polygon fill="midnightblue" stroke="midnightblue" points="1570.69,-197.32 1580.18,-192.603 1569.82,-190.375 1570.69,-197.32"/>
</g>
<!-- Node32&#45;&gt;Node22 -->
<g id="edge78" class="edge"><title>Node32&#45;&gt;Node22</title>
<path fill="none" stroke="midnightblue" d="M759.193,-358.463C657.734,-329.404 325.737,-234.318 210.682,-201.365"/>
<polygon fill="midnightblue" stroke="midnightblue" points="211.447,-197.944 200.869,-198.555 209.519,-204.673 211.447,-197.944"/>
</g>
<!-- Node33 -->
<g id="node33" class="node"><title>Node33</title>
<polygon fill="white" stroke="#bfbfbf" points="750.5,-297 750.5,-316 827.5,-316 827.5,-297 750.5,-297"/>
<text text-anchor="middle" x="789" y="-304" font-family="Helvetica,sans-Serif" font-size="10.00">initializer_list</text>
</g>
<!-- Node32&#45;&gt;Node33 -->
<g id="edge77" class="edge"><title>Node32&#45;&gt;Node33</title>
<path fill="none" stroke="midnightblue" d="M789,-358.475C789,-350.08 789,-336.981 789,-326.163"/>
<polygon fill="midnightblue" stroke="midnightblue" points="792.5,-326.009 789,-316.009 785.5,-326.009 792.5,-326.009"/>
</g>
<!-- Node34&#45;&gt;Node9 -->
<g id="edge86" class="edge"><title>Node34&#45;&gt;Node9</title>
<path fill="none" stroke="midnightblue" d="M1193.11,-424.152C1061.45,-413.777 741.3,-387.715 720,-378 570.768,-309.934 447.463,-143.354 410.404,-89.5553"/>
<polygon fill="midnightblue" stroke="midnightblue" points="413.192,-87.4312 404.674,-81.1303 407.404,-91.3676 413.192,-87.4312"/>
</g>
<!-- Node34&#45;&gt;Node26 -->
<g id="edge83" class="edge"><title>Node34&#45;&gt;Node26</title>
<path fill="none" stroke="midnightblue" d="M1304.81,-415.679C1307.58,-415.099 1310.32,-414.536 1313,-414 1651.93,-346.271 2060.74,-280.608 2216.99,-256.093"/>
<polygon fill="midnightblue" stroke="midnightblue" points="2217.57,-259.544 2226.91,-254.539 2216.49,-252.629 2217.57,-259.544"/>
</g>
<!-- Node34&#45;&gt;Node27 -->
<g id="edge87" class="edge"><title>Node34&#45;&gt;Node27</title>
<path fill="none" stroke="midnightblue" d="M1233.11,-414.302C1202.9,-387.774 1134.43,-329.86 1070,-291 1048.88,-278.261 1023.54,-266.716 1003.92,-258.51"/>
<polygon fill="midnightblue" stroke="midnightblue" points="1005.1,-255.208 994.518,-254.647 1002.44,-261.683 1005.1,-255.208"/>
</g>
<!-- Node34&#45;&gt;Node31 -->
<g id="edge84" class="edge"><title>Node34&#45;&gt;Node31</title>
<path fill="none" stroke="midnightblue" d="M1292.65,-414.453C1377.02,-387.67 1568.66,-328.625 1733,-291 1798.2,-276.073 1873.68,-263.395 1925.9,-255.337"/>
<polygon fill="midnightblue" stroke="midnightblue" points="1926.67,-258.761 1936.02,-253.788 1925.61,-251.841 1926.67,-258.761"/>
</g>
<!-- Node34&#45;&gt;Node32 -->
<g id="edge85" class="edge"><title>Node34&#45;&gt;Node32</title>
<path fill="none" stroke="midnightblue" d="M1193.05,-421.264C1108.93,-410.383 950.007,-389.826 858.545,-377.995"/>
<polygon fill="midnightblue" stroke="midnightblue" points="858.917,-374.515 848.551,-376.703 858.019,-381.457 858.917,-374.515"/>
</g>
<!-- Node35&#45;&gt;Node31 -->
<g id="edge92" class="edge"><title>Node35&#45;&gt;Node31</title>
<path fill="none" stroke="midnightblue" d="M2150.58,-481.207C2135.97,-452.485 2087.07,-359.344 2034,-291 2025.89,-280.56 2015.62,-269.939 2007.04,-261.638"/>
<polygon fill="midnightblue" stroke="midnightblue" points="2009.42,-259.069 1999.75,-254.74 2004.61,-264.155 2009.42,-259.069"/>
</g>
<!-- Node35&#45;&gt;Node36 -->
<g id="edge93" class="edge"><title>Node35&#45;&gt;Node36</title>
<path fill="none" stroke="midnightblue" d="M2162.59,-481.475C2170.7,-472.373 2183.73,-457.741 2193.76,-446.483"/>
<polygon fill="midnightblue" stroke="midnightblue" points="2196.38,-448.804 2200.42,-439.009 2191.16,-444.148 2196.38,-448.804"/>
</g>
<!-- Node37&#45;&gt;Node2 -->
<g id="edge106" class="edge"><title>Node37&#45;&gt;Node2</title>
<path fill="none" stroke="midnightblue" d="M1502.28,-712.027C1404.42,-705.332 1142.62,-676.636 969,-557 943.6,-539.498 940.135,-529.359 928,-501 871.696,-369.423 814.395,-261.981 931,-179 980.76,-143.589 1152.59,-135.731 1250.07,-134.184"/>
<polygon fill="midnightblue" stroke="midnightblue" points="1250.18,-137.683 1260.13,-134.042 1250.08,-130.683 1250.18,-137.683"/>
</g>
<!-- Node37&#45;&gt;Node8 -->
<g id="edge123" class="edge"><title>Node37&#45;&gt;Node8</title>
<path fill="none" stroke="midnightblue" d="M1579.65,-712.688C1652.54,-709.563 1814.96,-699.501 1948,-669 2020.62,-652.351 2035.89,-638.2 2106,-613 2253.79,-559.878 2438,-649.05 2438,-492 2438,-492 2438,-492 2438,-428.5 2438,-338.846 2518.87,-321.416 2495,-235 2478.44,-175.062 2431.79,-116.125 2407.74,-88.6048"/>
<polygon fill="midnightblue" stroke="midnightblue" points="2410.33,-86.2456 2401.06,-81.1062 2405.1,-90.9015 2410.33,-86.2456"/>
</g>
<!-- Node37&#45;&gt;Node9 -->
<g id="edge120" class="edge"><title>Node37&#45;&gt;Node9</title>
<path fill="none" stroke="midnightblue" d="M1502.3,-713.295C1347.7,-710.291 779.171,-697.396 704,-669 390.702,-550.649 254.558,-503.443 115,-199 68.4573,-97.468 282.717,-77.424 366.566,-73.4703"/>
<polygon fill="midnightblue" stroke="midnightblue" points="366.964,-76.9567 376.808,-73.0376 366.669,-69.9629 366.964,-76.9567"/>
</g>
<!-- Node37&#45;&gt;Node13 -->
<g id="edge107" class="edge"><title>Node37&#45;&gt;Node13</title>
<path fill="none" stroke="midnightblue" d="M1529.46,-705.426C1518.86,-697.079 1503.28,-683.552 1493,-669 1480.68,-651.569 1458.26,-595.515 1446.93,-566.22"/>
<polygon fill="midnightblue" stroke="midnightblue" points="1450.15,-564.842 1443.3,-556.759 1443.62,-567.349 1450.15,-564.842"/>
</g>
<!-- Node37&#45;&gt;Node29 -->
<g id="edge122" class="edge"><title>Node37&#45;&gt;Node29</title>
<path fill="none" stroke="midnightblue" d="M1579.87,-713.262C1696.49,-709.014 2047.9,-681.123 2252,-501 2342.45,-421.17 2345.12,-382.288 2424,-291 2432.48,-281.182 2442.26,-270.432 2450.14,-261.901"/>
<polygon fill="midnightblue" stroke="midnightblue" points="2452.76,-264.215 2457,-254.506 2447.63,-259.452 2452.76,-264.215"/>
</g>
<!-- Node37&#45;&gt;Node32 -->
<g id="edge108" class="edge"><title>Node37&#45;&gt;Node32</title>
<path fill="none" stroke="midnightblue" d="M1502.35,-713.472C1352.54,-711.202 815.023,-700.888 746,-669 709.757,-652.256 684,-643.923 684,-604 684,-604 684,-604 684,-490 684,-441.143 733.437,-402.364 764.467,-382.836"/>
<polygon fill="midnightblue" stroke="midnightblue" points="766.32,-385.805 773.053,-377.624 762.688,-379.821 766.32,-385.805"/>
</g>
<!-- Node38 -->
<g id="node38" class="node"><title>Node38</title>
<g id="a_node38"><a xlink:href="span_8h.html" target="_top" xlink:title="Span information for debugging purposes. ">
<polygon fill="white" stroke="black" points="1366,-593.5 1366,-612.5 1446,-612.5 1446,-593.5 1366,-593.5"/>
<text text-anchor="middle" x="1406" y="-600.5" font-family="Helvetica,sans-Serif" font-size="10.00">tvm/ir/span.h</text>
</a>
</g>
</g>
<!-- Node37&#45;&gt;Node38 -->
<g id="edge109" class="edge"><title>Node37&#45;&gt;Node38</title>
<path fill="none" stroke="midnightblue" d="M1521.08,-705.482C1503.85,-697.546 1478.82,-684.609 1460,-669 1443.14,-655.018 1427.58,-635.237 1417.54,-621.177"/>
<polygon fill="midnightblue" stroke="midnightblue" points="1420.35,-619.098 1411.78,-612.881 1414.6,-623.091 1420.35,-619.098"/>
</g>
<!-- Node39 -->
<g id="node39" class="node"><title>Node39</title>
<g id="a_node39"><a xlink:href="ir_2type_8h.html" target="_top" xlink:title="IR/AST nodes for the unified type system in TVM. ">
<polygon fill="white" stroke="black" points="1502.5,-649.5 1502.5,-668.5 1579.5,-668.5 1579.5,-649.5 1502.5,-649.5"/>
<text text-anchor="middle" x="1541" y="-656.5" font-family="Helvetica,sans-Serif" font-size="10.00">tvm/ir/type.h</text>
</a>
</g>
</g>
<!-- Node37&#45;&gt;Node39 -->
<g id="edge113" class="edge"><title>Node37&#45;&gt;Node39</title>
<path fill="none" stroke="midnightblue" d="M1541,-705.083C1541,-698.006 1541,-687.861 1541,-678.986"/>
<polygon fill="midnightblue" stroke="midnightblue" points="1544.5,-678.751 1541,-668.751 1537.5,-678.751 1544.5,-678.751"/>
</g>
<!-- Node37&#45;&gt;Node40 -->
<g id="edge121" class="edge"><title>Node37&#45;&gt;Node40</title>
<path fill="none" stroke="midnightblue" d="M1579.53,-712.499C1671.17,-708.59 1909.13,-696.429 2106,-669 2107.1,-668.846 2108.22,-668.682 2109.35,-668.51"/>
<polygon fill="midnightblue" stroke="midnightblue" points="2110.34,-671.893 2119.61,-666.769 2109.16,-664.991 2110.34,-671.893"/>
</g>
<!-- Node38&#45;&gt;Node2 -->
<g id="edge110" class="edge"><title>Node38&#45;&gt;Node2</title>
<path fill="none" stroke="midnightblue" d="M1366,-601.225C1251.72,-597.939 932,-580.808 932,-492 932,-492 932,-492 932,-367 932,-308.004 881.208,-281.118 918,-235 962.916,-178.699 1009.06,-225.572 1076,-199 1092.29,-192.532 1093.67,-185.371 1110,-179 1155.2,-161.369 1208.74,-150.01 1250.31,-143.116"/>
<polygon fill="midnightblue" stroke="midnightblue" points="1251.02,-146.546 1260.34,-141.5 1249.91,-139.635 1251.02,-146.546"/>
</g>
<!-- Node38&#45;&gt;Node9 -->
<g id="edge112" class="edge"><title>Node38&#45;&gt;Node9</title>
<path fill="none" stroke="midnightblue" d="M1365.83,-600.536C1288.35,-597.127 1113.2,-586.562 969,-557 706.801,-503.248 600.417,-548.382 394,-378 303.716,-303.477 274.328,-227.039 328,-123 336.557,-106.413 353.36,-94.0833 368.472,-85.7607"/>
<polygon fill="midnightblue" stroke="midnightblue" points="370.272,-88.7711 377.573,-81.0943 367.078,-82.5421 370.272,-88.7711"/>
</g>
<!-- Node38&#45;&gt;Node13 -->
<g id="edge111" class="edge"><title>Node38&#45;&gt;Node13</title>
<path fill="none" stroke="midnightblue" d="M1411.61,-593.083C1416.37,-585.534 1423.32,-574.495 1429.15,-565.23"/>
<polygon fill="midnightblue" stroke="midnightblue" points="1432.12,-567.078 1434.49,-556.751 1426.2,-563.349 1432.12,-567.078"/>
</g>
<!-- Node39&#45;&gt;Node2 -->
<g id="edge114" class="edge"><title>Node39&#45;&gt;Node2</title>
<path fill="none" stroke="midnightblue" d="M1579.8,-653.285C1666.41,-641.677 1868,-608.196 1868,-548 1868,-548 1868,-548 1868,-490 1868,-289.552 1672.04,-330.868 1496,-235 1459.61,-215.183 1446.2,-219.168 1410,-199 1383.33,-184.139 1355.08,-163.006 1337.26,-148.916"/>
<polygon fill="midnightblue" stroke="midnightblue" points="1339.4,-146.143 1329.41,-142.623 1335.02,-151.606 1339.4,-146.143"/>
</g>
<!-- Node39&#45;&gt;Node9 -->
<g id="edge119" class="edge"><title>Node39&#45;&gt;Node9</title>
<path fill="none" stroke="midnightblue" d="M1502.34,-656.439C1396.68,-651.899 1104.81,-637.45 1012,-613 758.521,-546.222 666.077,-523.981 499,-322 441.857,-252.919 430.889,-229.128 406,-143 401.096,-126.031 399.492,-105.914 399.028,-91.5218"/>
<polygon fill="midnightblue" stroke="midnightblue" points="402.525,-91.3162 398.859,-81.3759 395.526,-91.4327 402.525,-91.3162"/>
</g>
<!-- Node39&#45;&gt;Node13 -->
<g id="edge116" class="edge"><title>Node39&#45;&gt;Node13</title>
<path fill="none" stroke="midnightblue" d="M1534.49,-649.282C1524.82,-636.512 1505.88,-612.162 1488,-593 1478.36,-582.665 1466.82,-571.807 1457.47,-563.346"/>
<polygon fill="midnightblue" stroke="midnightblue" points="1459.72,-560.656 1449.93,-556.601 1455.05,-565.875 1459.72,-560.656"/>
</g>
<!-- Node39&#45;&gt;Node26 -->
<g id="edge115" class="edge"><title>Node39&#45;&gt;Node26</title>
<path fill="none" stroke="midnightblue" d="M1579.8,-654.568C1711.21,-642.154 2136.37,-595.267 2229,-501 2293.86,-434.995 2288.89,-311.553 2284.29,-264.693"/>
<polygon fill="midnightblue" stroke="midnightblue" points="2287.74,-264.068 2283.17,-254.51 2280.78,-264.833 2287.74,-264.068"/>
</g>
<!-- Node39&#45;&gt;Node32 -->
<g id="edge117" class="edge"><title>Node39&#45;&gt;Node32</title>
<path fill="none" stroke="midnightblue" d="M1502.09,-655.67C1381.54,-647.845 1016.44,-619.413 918,-557 851.69,-514.957 810.693,-425.203 795.591,-386.911"/>
<polygon fill="midnightblue" stroke="midnightblue" points="798.856,-385.651 792.019,-377.558 792.317,-388.148 798.856,-385.651"/>
</g>
<!-- Node39&#45;&gt;Node38 -->
<g id="edge118" class="edge"><title>Node39&#45;&gt;Node38</title>
<path fill="none" stroke="midnightblue" d="M1519.61,-649.444C1497.29,-640.517 1462.1,-626.439 1436.79,-616.317"/>
<polygon fill="midnightblue" stroke="midnightblue" points="1437.88,-612.981 1427.29,-612.516 1435.28,-619.48 1437.88,-612.981"/>
</g>
<!-- Node41&#45;&gt;Node8 -->
<g id="edge158" class="edge"><title>Node41&#45;&gt;Node8</title>
<path fill="none" stroke="midnightblue" d="M1991.34,-937.664C2103.37,-935.739 2513.5,-922.844 2603,-837 2797.74,-650.221 2742,-515.834 2742,-246 2742,-246 2742,-246 2742,-188 2742,-150.157 2719.85,-141.781 2687,-123 2645.11,-99.0534 2508.44,-83.2121 2437.16,-76.3637"/>
<polygon fill="midnightblue" stroke="midnightblue" points="2437.42,-72.8729 2427.14,-75.4187 2436.76,-79.842 2437.42,-72.8729"/>
</g>
<!-- Node41&#45;&gt;Node9 -->
<g id="edge155" class="edge"><title>Node41&#45;&gt;Node9</title>
<path fill="none" stroke="midnightblue" d="M1934.77,-938.084C1716.87,-938.629 306.494,-940.307 124,-893 63.767,-877.386 0,-890.224 0,-828 0,-828 0,-828 0,-188 0,-147.769 27.2243,-141.403 63,-123 115.746,-95.8673 292.979,-80.199 366.557,-74.7273"/>
<polygon fill="midnightblue" stroke="midnightblue" points="366.914,-78.2106 376.634,-73.9938 366.406,-71.2291 366.914,-78.2106"/>
</g>
<!-- Node41&#45;&gt;Node10 -->
<g id="edge157" class="edge"><title>Node41&#45;&gt;Node10</title>
<path fill="none" stroke="midnightblue" d="M1934.79,-938.199C1745.97,-939.387 663.372,-943.858 338,-893 235.581,-876.991 114,-931.662 114,-828 114,-828 114,-828 114,-602 114,-442.257 503.315,-186.257 650,-123 711.882,-96.3139 790.184,-82.418 832.832,-76.3626"/>
<polygon fill="midnightblue" stroke="midnightblue" points="833.441,-79.812 842.875,-74.989 832.493,-72.8765 833.441,-79.812"/>
</g>
<!-- Node41&#45;&gt;Node12 -->
<g id="edge147" class="edge"><title>Node41&#45;&gt;Node12</title>
<path fill="none" stroke="midnightblue" d="M1962.28,-929.368C1960.97,-908.476 1960.05,-854.171 1982,-817 1989.64,-804.057 2002.55,-793.489 2014.26,-785.854"/>
<polygon fill="midnightblue" stroke="midnightblue" points="2016.15,-788.797 2022.86,-780.597 2012.5,-782.823 2016.15,-788.797"/>
</g>
<!-- Node41&#45;&gt;Node21 -->
<g id="edge156" class="edge"><title>Node41&#45;&gt;Node21</title>
<path fill="none" stroke="midnightblue" d="M1991.16,-936.088C2113.16,-927.438 2590,-889.682 2590,-828 2590,-828 2590,-828 2590,-546 2590,-509.868 2523.56,-257.131 2495,-235 2459.17,-207.24 1725.17,-202.667 1680,-199 1666.1,-197.872 1650.83,-196.156 1637.64,-194.524"/>
<polygon fill="midnightblue" stroke="midnightblue" points="1637.94,-191.034 1627.58,-193.246 1637.06,-197.978 1637.94,-191.034"/>
</g>
<!-- Node41&#45;&gt;Node32 -->
<g id="edge131" class="edge"><title>Node41&#45;&gt;Node32</title>
<path fill="none" stroke="midnightblue" d="M1934.79,-937.779C1707.98,-935.822 190,-919.317 190,-828 190,-828 190,-828 190,-714 190,-472.094 561.379,-397.242 719.289,-376.349"/>
<polygon fill="midnightblue" stroke="midnightblue" points="719.905,-379.798 729.376,-375.049 719.01,-372.856 719.905,-379.798"/>
</g>
<!-- Node42 -->
<g id="node42" class="node"><title>Node42</title>
<g id="a_node42"><a xlink:href="bound_8h.html" target="_top" xlink:title="Bound deducers. ">
<polygon fill="white" stroke="black" points="1570,-873.5 1570,-892.5 1672,-892.5 1672,-873.5 1570,-873.5"/>
<text text-anchor="middle" x="1621" y="-880.5" font-family="Helvetica,sans-Serif" font-size="10.00">tvm/arith/bound.h</text>
</a>
</g>
</g>
<!-- Node41&#45;&gt;Node42 -->
<g id="edge132" class="edge"><title>Node41&#45;&gt;Node42</title>
<path fill="none" stroke="midnightblue" d="M1934.72,-933.535C1879.7,-924.847 1757.1,-905.489 1682.5,-893.71"/>
<polygon fill="midnightblue" stroke="midnightblue" points="1682.72,-890.202 1672.3,-892.1 1681.63,-897.117 1682.72,-890.202"/>
</g>
<!-- Node45 -->
<g id="node45" class="node"><title>Node45</title>
<g id="a_node45"><a xlink:href="tir_2op_8h.html" target="_top" xlink:title="Common operators defined for Expr. ">
<polygon fill="white" stroke="black" points="2143,-873.5 2143,-892.5 2215,-892.5 2215,-873.5 2143,-873.5"/>
<text text-anchor="middle" x="2179" y="-880.5" font-family="Helvetica,sans-Serif" font-size="10.00">tvm/tir/op.h</text>
</a>
</g>
</g>
<!-- Node41&#45;&gt;Node45 -->
<g id="edge148" class="edge"><title>Node41&#45;&gt;Node45</title>
<path fill="none" stroke="midnightblue" d="M1991.24,-930.94C2027.76,-921.809 2091.78,-905.804 2134.78,-895.054"/>
<polygon fill="midnightblue" stroke="midnightblue" points="2135.84,-898.397 2144.7,-892.576 2134.15,-891.606 2135.84,-898.397"/>
</g>
<!-- Node42&#45;&gt;Node12 -->
<g id="edge139" class="edge"><title>Node42&#45;&gt;Node12</title>
<path fill="none" stroke="midnightblue" d="M1653.53,-873.46C1728.64,-853.742 1914.09,-805.055 1997.8,-783.078"/>
<polygon fill="midnightblue" stroke="midnightblue" points="1998.71,-786.459 2007.49,-780.535 1996.93,-779.689 1998.71,-786.459"/>
</g>
<!-- Node42&#45;&gt;Node22 -->
<g id="edge146" class="edge"><title>Node42&#45;&gt;Node22</title>
<path fill="none" stroke="midnightblue" d="M1569.91,-881.295C1354.73,-878.162 528.204,-864.435 415,-837 237.32,-793.94 76,-786.823 76,-604 76,-604 76,-604 76,-305.5 76,-260.518 119.51,-223.521 147.639,-204.303"/>
<polygon fill="midnightblue" stroke="midnightblue" points="149.725,-207.12 156.156,-198.7 145.878,-201.271 149.725,-207.12"/>
</g>
<!-- Node42&#45;&gt;Node32 -->
<g id="edge133" class="edge"><title>Node42&#45;&gt;Node32</title>
<path fill="none" stroke="midnightblue" d="M1569.84,-882C1340.39,-881.479 413.666,-873.618 328,-781 245.701,-692.022 415.966,-556.218 660,-414 685.962,-398.87 717.819,-387.695 743.379,-380.265"/>
<polygon fill="midnightblue" stroke="midnightblue" points="744.517,-383.581 753.196,-377.504 742.622,-376.842 744.517,-383.581"/>
</g>
<!-- Node42&#45;&gt;Node37 -->
<g id="edge134" class="edge"><title>Node42&#45;&gt;Node37</title>
<path fill="none" stroke="midnightblue" d="M1619.22,-873.338C1616.45,-860.639 1610.51,-836.376 1602,-817 1588.27,-785.731 1566.55,-752.354 1553.07,-732.876"/>
<polygon fill="midnightblue" stroke="midnightblue" points="1555.8,-730.671 1547.19,-724.5 1550.07,-734.695 1555.8,-730.671"/>
</g>
<!-- Node43 -->
<g id="node43" class="node"><title>Node43</title>
<g id="a_node43"><a xlink:href="int__set_8h.html" target="_top" xlink:title="Integer set. ">
<polygon fill="white" stroke="black" points="1489,-817.5 1489,-836.5 1593,-836.5 1593,-817.5 1489,-817.5"/>
<text text-anchor="middle" x="1541" y="-824.5" font-family="Helvetica,sans-Serif" font-size="10.00">tvm/arith/int_set.h</text>
</a>
</g>
</g>
<!-- Node42&#45;&gt;Node43 -->
<g id="edge135" class="edge"><title>Node42&#45;&gt;Node43</title>
<path fill="none" stroke="midnightblue" d="M1608.15,-873.324C1595.78,-864.979 1576.87,-852.212 1562.26,-842.352"/>
<polygon fill="midnightblue" stroke="midnightblue" points="1564.07,-839.348 1553.82,-836.655 1560.15,-845.15 1564.07,-839.348"/>
</g>
<!-- Node44 -->
<g id="node44" class="node"><title>Node44</title>
<g id="a_node44"><a xlink:href="stmt_8h.html" target="_top" xlink:title="TIR statements. ">
<polygon fill="white" stroke="black" points="1991.5,-817.5 1991.5,-836.5 2074.5,-836.5 2074.5,-817.5 1991.5,-817.5"/>
<text text-anchor="middle" x="2033" y="-824.5" font-family="Helvetica,sans-Serif" font-size="10.00">tvm/tir/stmt.h</text>
</a>
</g>
</g>
<!-- Node42&#45;&gt;Node44 -->
<g id="edge140" class="edge"><title>Node42&#45;&gt;Node44</title>
<path fill="none" stroke="midnightblue" d="M1672.35,-875.27C1751.31,-864.92 1901.72,-845.207 1981.05,-834.809"/>
<polygon fill="midnightblue" stroke="midnightblue" points="1981.83,-838.237 1991.29,-833.467 1980.92,-831.296 1981.83,-838.237"/>
</g>
<!-- Node43&#45;&gt;Node12 -->
<g id="edge137" class="edge"><title>Node43&#45;&gt;Node12</title>
<path fill="none" stroke="midnightblue" d="M1593.46,-820.323C1690.05,-809.87 1894.83,-787.71 1989.75,-777.438"/>
<polygon fill="midnightblue" stroke="midnightblue" points="1990.38,-780.89 1999.95,-776.334 1989.63,-773.93 1990.38,-780.89"/>
</g>
<!-- Node43&#45;&gt;Node22 -->
<g id="edge138" class="edge"><title>Node43&#45;&gt;Node22</title>
<path fill="none" stroke="midnightblue" d="M1488.97,-825.438C1259.06,-822.789 343.188,-810.422 290,-781 83.8135,-666.943 148.244,-296.426 166.78,-208.731"/>
<polygon fill="midnightblue" stroke="midnightblue" points="170.218,-209.391 168.926,-198.875 163.378,-207.901 170.218,-209.391"/>
</g>
<!-- Node43&#45;&gt;Node37 -->
<g id="edge136" class="edge"><title>Node43&#45;&gt;Node37</title>
<path fill="none" stroke="midnightblue" d="M1541,-817.368C1541,-799.617 1541,-758.666 1541,-734.597"/>
<polygon fill="midnightblue" stroke="midnightblue" points="1544.5,-734.591 1541,-724.591 1537.5,-734.591 1544.5,-734.591"/>
</g>
<!-- Node44&#45;&gt;Node8 -->
<g id="edge142" class="edge"><title>Node44&#45;&gt;Node8</title>
<path fill="none" stroke="midnightblue" d="M2074.68,-824.504C2184.96,-819.421 2476,-798.217 2476,-716 2476,-716 2476,-716 2476,-658 2476,-511.236 2552.43,-491.225 2614,-358 2637.02,-308.181 2666,-300.881 2666,-246 2666,-246 2666,-246 2666,-188 2666,-89.9432 2514.77,-73.8685 2437.42,-72.0593"/>
<polygon fill="midnightblue" stroke="midnightblue" points="2437.08,-68.5534 2427.02,-71.8917 2436.97,-75.5525 2437.08,-68.5534"/>
</g>
<!-- Node44&#45;&gt;Node9 -->
<g id="edge143" class="edge"><title>Node44&#45;&gt;Node9</title>
<path fill="none" stroke="midnightblue" d="M1991.42,-824.945C1764.95,-819.162 687.611,-791.208 618,-781 454.321,-756.997 266,-825.429 266,-660 266,-660 266,-660 266,-428.5 266,-290.987 231.352,-232.147 315,-123 328.362,-105.565 349.608,-92.8722 367.389,-84.5725"/>
<polygon fill="midnightblue" stroke="midnightblue" points="369.098,-87.6447 376.839,-80.4114 366.276,-81.2383 369.098,-87.6447"/>
</g>
<!-- Node44&#45;&gt;Node10 -->
<g id="edge145" class="edge"><title>Node44&#45;&gt;Node10</title>
<path fill="none" stroke="midnightblue" d="M1991.17,-824.973C1743.7,-818.698 480.263,-783.843 425,-725 212.277,-498.497 724.739,-159.025 841.115,-86.4589"/>
<polygon fill="midnightblue" stroke="midnightblue" points="843.017,-89.3983 849.676,-81.1582 839.332,-83.4467 843.017,-89.3983"/>
</g>
<!-- Node44&#45;&gt;Node12 -->
<g id="edge141" class="edge"><title>Node44&#45;&gt;Node12</title>
<path fill="none" stroke="midnightblue" d="M2034.16,-817.083C2035.08,-809.927 2036.42,-799.635 2037.58,-790.691"/>
<polygon fill="midnightblue" stroke="midnightblue" points="2041.05,-791.118 2038.87,-780.751 2034.11,-790.218 2041.05,-791.118"/>
</g>
<!-- Node44&#45;&gt;Node21 -->
<g id="edge144" class="edge"><title>Node44&#45;&gt;Node21</title>
<path fill="none" stroke="midnightblue" d="M2074.85,-819.577C2125.22,-809.359 2207.68,-784.124 2245,-725 2271.97,-682.277 2266.93,-699.713 2182,-593 2144.19,-545.489 2124.4,-543.47 2081,-501 1964.39,-386.881 1971.49,-312.655 1828,-235 1753,-194.41 1720.35,-218.633 1637.57,-200.199"/>
<polygon fill="midnightblue" stroke="midnightblue" points="1638.31,-196.777 1627.77,-197.871 1636.69,-203.587 1638.31,-196.777"/>
</g>
<!-- Node45&#45;&gt;Node8 -->
<g id="edge153" class="edge"><title>Node45&#45;&gt;Node8</title>
<path fill="none" stroke="midnightblue" d="M2215.44,-881.636C2270.96,-879.907 2379.1,-871.876 2463,-837 2508.23,-818.198 2552,-820.982 2552,-772 2552,-772 2552,-772 2552,-658 2552,-576.858 2628,-573.142 2628,-492 2628,-492 2628,-492 2628,-428.5 2628,-340.637 2704,-333.863 2704,-246 2704,-246 2704,-246 2704,-188 2704,-152.864 2688.46,-142.151 2659,-123 2623.09,-99.654 2503.49,-83.9542 2437.57,-76.846"/>
<polygon fill="midnightblue" stroke="midnightblue" points="2437.78,-73.3491 2427.47,-75.7791 2437.05,-80.3104 2437.78,-73.3491"/>
</g>
<!-- Node45&#45;&gt;Node12 -->
<g id="edge150" class="edge"><title>Node45&#45;&gt;Node12</title>
<path fill="none" stroke="midnightblue" d="M2172.03,-873.259C2161.21,-860.029 2139.27,-834.602 2117,-817 2101.41,-804.675 2082.09,-793.396 2066.71,-785.213"/>
<polygon fill="midnightblue" stroke="midnightblue" points="2068.2,-782.04 2057.71,-780.536 2064.97,-788.252 2068.2,-782.04"/>
</g>
<!-- Node45&#45;&gt;Node29 -->
<g id="edge154" class="edge"><title>Node45&#45;&gt;Node29</title>
<path fill="none" stroke="midnightblue" d="M2215.17,-877.917C2301.79,-867.137 2514,-834.363 2514,-772 2514,-772 2514,-772 2514,-428.5 2514,-366.309 2487.13,-296.15 2473.19,-263.926"/>
<polygon fill="midnightblue" stroke="midnightblue" points="2476.27,-262.238 2469.01,-254.518 2469.87,-265.078 2476.27,-262.238"/>
</g>
<!-- Node45&#45;&gt;Node39 -->
<g id="edge149" class="edge"><title>Node45&#45;&gt;Node39</title>
<path fill="none" stroke="midnightblue" d="M2175.62,-873.217C2166.12,-849.93 2136.74,-786.645 2089,-761 1922.11,-671.358 1689.9,-659.758 1589.94,-659.259"/>
<polygon fill="midnightblue" stroke="midnightblue" points="1589.84,-655.759 1579.84,-659.244 1589.83,-662.759 1589.84,-655.759"/>
</g>
<!-- Node45&#45;&gt;Node40 -->
<g id="edge152" class="edge"><title>Node45&#45;&gt;Node40</title>
<path fill="none" stroke="midnightblue" d="M2182.6,-873.222C2186.06,-864.285 2191.03,-849.942 2193,-837 2201.83,-778.918 2208.48,-759.277 2186,-705 2181.61,-694.413 2174.04,-684.198 2167.05,-676.183"/>
<polygon fill="midnightblue" stroke="midnightblue" points="2169.5,-673.677 2160.14,-668.705 2164.36,-678.426 2169.5,-673.677"/>
</g>
<!-- Node45&#45;&gt;Node44 -->
<g id="edge151" class="edge"><title>Node45&#45;&gt;Node44</title>
<path fill="none" stroke="midnightblue" d="M2155.87,-873.444C2131.52,-864.438 2092.99,-850.189 2065.58,-840.049"/>
<polygon fill="midnightblue" stroke="midnightblue" points="2066.62,-836.703 2056.03,-836.516 2064.19,-843.268 2066.62,-836.703"/>
</g>
</g>
</svg>
