<?xml version="1.0" encoding="UTF-8" standalone="no"?>
<!DOCTYPE svg PUBLIC "-//W3C//DTD SVG 1.1//EN"
 "http://www.w3.org/Graphics/SVG/1.1/DTD/svg11.dtd">
<!-- Generated by graphviz version 2.38.0 (20140413.2041)
 -->
<!-- Title: include/tvm/relay/attrs/bitserial.h Pages: 1 -->
<svg width="2964pt" height="1080pt"
 viewBox="0.00 0.00 2964.00 1080.00" xmlns="http://www.w3.org/2000/svg" xmlns:xlink="http://www.w3.org/1999/xlink">
<g id="graph0" class="graph" transform="scale(1 1) rotate(0) translate(4 1076)">
<title>include/tvm/relay/attrs/bitserial.h</title>
<polygon fill="white" stroke="none" points="-4,4 -4,-1076 2960,-1076 2960,4 -4,4"/>
<!-- Node1 -->
<g id="node1" class="node"><title>Node1</title>
<polygon fill="#bfbfbf" stroke="black" points="128,-1041.5 128,-1071.5 252,-1071.5 252,-1041.5 128,-1041.5"/>
<text text-anchor="start" x="136" y="-1059.5" font-family="Helvetica,sans-Serif" font-size="10.00">include/tvm/relay/attrs</text>
<text text-anchor="middle" x="190" y="-1048.5" font-family="Helvetica,sans-Serif" font-size="10.00">/bitserial.h</text>
</g>
<!-- Node2 -->
<g id="node2" class="node"><title>Node2</title>
<g id="a_node2"><a xlink:href="ir_2attrs_8h.html" target="_top" xlink:title="Helpers for attribute objects. ">
<polygon fill="white" stroke="black" points="814.5,-817.5 814.5,-836.5 893.5,-836.5 893.5,-817.5 814.5,-817.5"/>
<text text-anchor="middle" x="854" y="-824.5" font-family="Helvetica,sans-Serif" font-size="10.00">tvm/ir/attrs.h</text>
</a>
</g>
</g>
<!-- Node1&#45;&gt;Node2 -->
<g id="edge1" class="edge"><title>Node1&#45;&gt;Node2</title>
<path fill="none" stroke="midnightblue" d="M231.035,-1041.44C352.211,-999.923 707.002,-878.365 819.416,-839.849"/>
<polygon fill="midnightblue" stroke="midnightblue" points="820.593,-843.146 828.919,-836.593 818.324,-836.524 820.593,-843.146"/>
</g>
<!-- Node12 -->
<g id="node12" class="node"><title>Node12</title>
<polygon fill="white" stroke="#bfbfbf" points="480,-62 480,-81 524,-81 524,-62 480,-62"/>
<text text-anchor="middle" x="502" y="-69" font-family="Helvetica,sans-Serif" font-size="10.00">string</text>
</g>
<!-- Node1&#45;&gt;Node12 -->
<g id="edge169" class="edge"><title>Node1&#45;&gt;Node12</title>
<path fill="none" stroke="midnightblue" d="M127.787,-1044.5C72.3749,-1030.69 0,-1000.99 0,-940 0,-940 0,-940 0,-188 0,-149.868 22.2871,-140.818 56,-123 127.997,-84.949 379.713,-75.3688 469.706,-73.1338"/>
<polygon fill="midnightblue" stroke="midnightblue" points="469.94,-76.6293 479.856,-72.8962 469.777,-69.6312 469.94,-76.6293"/>
</g>
<!-- Node44 -->
<g id="node44" class="node"><title>Node44</title>
<g id="a_node44"><a xlink:href="base_8h.html" target="_top" xlink:title="Base classes for the Relay IR. ">
<polygon fill="white" stroke="black" points="141.5,-985.5 141.5,-1004.5 238.5,-1004.5 238.5,-985.5 141.5,-985.5"/>
<text text-anchor="middle" x="190" y="-992.5" font-family="Helvetica,sans-Serif" font-size="10.00">tvm/relay/base.h</text>
</a>
</g>
</g>
<!-- Node1&#45;&gt;Node44 -->
<g id="edge141" class="edge"><title>Node1&#45;&gt;Node44</title>
<path fill="none" stroke="midnightblue" d="M190,-1041.4C190,-1033.47 190,-1023.46 190,-1014.86"/>
<polygon fill="midnightblue" stroke="midnightblue" points="193.5,-1014.66 190,-1004.66 186.5,-1014.66 193.5,-1014.66"/>
</g>
<!-- Node3 -->
<g id="node3" class="node"><title>Node3</title>
<polygon fill="white" stroke="#bfbfbf" points="446.5,-761.5 446.5,-780.5 541.5,-780.5 541.5,-761.5 446.5,-761.5"/>
<text text-anchor="middle" x="494" y="-768.5" font-family="Helvetica,sans-Serif" font-size="10.00">dmlc/common.h</text>
</g>
<!-- Node2&#45;&gt;Node3 -->
<g id="edge2" class="edge"><title>Node2&#45;&gt;Node3</title>
<path fill="none" stroke="midnightblue" d="M814.444,-820.067C750.771,-810.516 625.252,-791.688 551.623,-780.643"/>
<polygon fill="midnightblue" stroke="midnightblue" points="551.998,-777.161 541.59,-779.138 550.96,-784.083 551.998,-777.161"/>
</g>
<!-- Node4 -->
<g id="node4" class="node"><title>Node4</title>
<g id="a_node4"><a xlink:href="ir_2expr_8h.html" target="_top" xlink:title="Base expr nodes in TVM. ">
<polygon fill="white" stroke="black" points="1691.5,-761.5 1691.5,-780.5 1768.5,-780.5 1768.5,-761.5 1691.5,-761.5"/>
<text text-anchor="middle" x="1730" y="-768.5" font-family="Helvetica,sans-Serif" font-size="10.00">tvm/ir/expr.h</text>
</a>
</g>
</g>
<!-- Node2&#45;&gt;Node4 -->
<g id="edge3" class="edge"><title>Node2&#45;&gt;Node4</title>
<path fill="none" stroke="midnightblue" d="M893.628,-823.557C1036.39,-814.757 1524.21,-784.686 1681.03,-775.019"/>
<polygon fill="midnightblue" stroke="midnightblue" points="1681.54,-778.494 1691.31,-774.385 1681.11,-771.507 1681.54,-778.494"/>
</g>
<!-- Node11 -->
<g id="node11" class="node"><title>Node11</title>
<polygon fill="white" stroke="#bfbfbf" points="2466,-62 2466,-81 2534,-81 2534,-62 2466,-62"/>
<text text-anchor="middle" x="2500" y="-69" font-family="Helvetica,sans-Serif" font-size="10.00">type_traits</text>
</g>
<!-- Node2&#45;&gt;Node11 -->
<g id="edge138" class="edge"><title>Node2&#45;&gt;Node11</title>
<path fill="none" stroke="midnightblue" d="M893.654,-825.131C1021.72,-822.097 1435.75,-810.51 1777,-781 1977.79,-763.636 2028.12,-757.648 2227,-725 2349.65,-704.866 2399.68,-740.991 2501,-669 2686.77,-537.01 2706.72,-400.217 2652,-179 2645.37,-152.178 2645.17,-141.89 2625,-123 2602.51,-101.93 2570.08,-89.1747 2543.89,-81.7548"/>
<polygon fill="midnightblue" stroke="midnightblue" points="2544.76,-78.3635 2534.19,-79.166 2542.95,-85.1267 2544.76,-78.3635"/>
</g>
<!-- Node2&#45;&gt;Node12 -->
<g id="edge139" class="edge"><title>Node2&#45;&gt;Node12</title>
<path fill="none" stroke="midnightblue" d="M814.489,-826.042C722.941,-825.464 499.362,-819.984 437,-781 384.93,-748.45 152,-368.906 152,-307.5 152,-307.5 152,-307.5 152,-188 152,-157.205 152.159,-142.493 176,-123 220.585,-86.547 396.307,-76.2021 469.613,-73.4418"/>
<polygon fill="midnightblue" stroke="midnightblue" points="469.788,-76.9379 479.658,-73.0874 469.541,-69.9423 469.788,-76.9379"/>
</g>
<!-- Node13 -->
<g id="node13" class="node"><title>Node13</title>
<polygon fill="white" stroke="#bfbfbf" points="2764,-62 2764,-81 2806,-81 2806,-62 2764,-62"/>
<text text-anchor="middle" x="2785" y="-69" font-family="Helvetica,sans-Serif" font-size="10.00">utility</text>
</g>
<!-- Node2&#45;&gt;Node13 -->
<g id="edge140" class="edge"><title>Node2&#45;&gt;Node13</title>
<path fill="none" stroke="midnightblue" d="M893.784,-825.434C1032.22,-823.221 1505.62,-813.591 1895,-781 2095.84,-764.19 2147.9,-767.089 2345,-725 2428.18,-707.237 2448.54,-699.336 2528,-669 2617.39,-634.873 2918,-582.186 2918,-486.5 2918,-486.5 2918,-486.5 2918,-188 2918,-134.011 2854.75,-99.5576 2815.49,-83.3708"/>
<polygon fill="midnightblue" stroke="midnightblue" points="2816.66,-80.0713 2806.07,-79.6483 2814.09,-86.5807 2816.66,-80.0713"/>
</g>
<!-- Node19 -->
<g id="node19" class="node"><title>Node19</title>
<g id="a_node19"><a xlink:href="packed__func_8h.html" target="_top" xlink:title="Type&#45;erased function used across TVM API. ">
<polygon fill="white" stroke="black" points="1376.5,-291.5 1376.5,-321.5 1489.5,-321.5 1489.5,-291.5 1376.5,-291.5"/>
<text text-anchor="start" x="1384.5" y="-309.5" font-family="Helvetica,sans-Serif" font-size="10.00">tvm/runtime/packed</text>
<text text-anchor="middle" x="1433" y="-298.5" font-family="Helvetica,sans-Serif" font-size="10.00">_func.h</text>
</a>
</g>
</g>
<!-- Node2&#45;&gt;Node19 -->
<g id="edge134" class="edge"><title>Node2&#45;&gt;Node19</title>
<path fill="none" stroke="midnightblue" d="M859.284,-817.231C869.725,-799.043 892,-755.601 892,-716 892,-716 892,-716 892,-546 892,-340.884 1221.64,-310.668 1366.29,-307.283"/>
<polygon fill="midnightblue" stroke="midnightblue" points="1366.45,-310.781 1376.38,-307.083 1366.31,-303.782 1366.45,-310.781"/>
</g>
<!-- Node23 -->
<g id="node23" class="node"><title>Node23</title>
<polygon fill="white" stroke="#bfbfbf" points="1398.5,-179.5 1398.5,-198.5 1445.5,-198.5 1445.5,-179.5 1398.5,-179.5"/>
<text text-anchor="middle" x="1422" y="-186.5" font-family="Helvetica,sans-Serif" font-size="10.00">vector</text>
</g>
<!-- Node2&#45;&gt;Node23 -->
<g id="edge136" class="edge"><title>Node2&#45;&gt;Node23</title>
<path fill="none" stroke="midnightblue" d="M852.501,-817.376C844.632,-768.99 812.889,-529.306 934,-414 1042.6,-310.601 1081.26,-291.901 1220,-235 1276.57,-211.798 1347.2,-199.557 1388.19,-193.958"/>
<polygon fill="midnightblue" stroke="midnightblue" points="1388.74,-197.417 1398.2,-192.644 1387.83,-190.476 1388.74,-197.417"/>
</g>
<!-- Node24 -->
<g id="node24" class="node"><title>Node24</title>
<polygon fill="white" stroke="#bfbfbf" points="644.5,-179.5 644.5,-198.5 737.5,-198.5 737.5,-179.5 644.5,-179.5"/>
<text text-anchor="middle" x="691" y="-186.5" font-family="Helvetica,sans-Serif" font-size="10.00">unordered_map</text>
</g>
<!-- Node2&#45;&gt;Node24 -->
<g id="edge135" class="edge"><title>Node2&#45;&gt;Node24</title>
<path fill="none" stroke="midnightblue" d="M814.444,-825.578C720.926,-822.286 494,-799.886 494,-660 494,-660 494,-660 494,-602 494,-508.429 380,-518.571 380,-425 380,-425 380,-425 380,-305.5 380,-272.401 378.665,-256.3 404,-235 437.966,-206.443 560.847,-195.883 634.354,-192.071"/>
<polygon fill="midnightblue" stroke="midnightblue" points="634.568,-195.565 644.384,-191.577 634.224,-188.573 634.568,-195.565"/>
</g>
<!-- Node29 -->
<g id="node29" class="node"><title>Node29</title>
<polygon fill="white" stroke="#bfbfbf" points="696.5,-235.5 696.5,-254.5 759.5,-254.5 759.5,-235.5 696.5,-235.5"/>
<text text-anchor="middle" x="728" y="-242.5" font-family="Helvetica,sans-Serif" font-size="10.00">functional</text>
</g>
<!-- Node2&#45;&gt;Node29 -->
<g id="edge137" class="edge"><title>Node2&#45;&gt;Node29</title>
<path fill="none" stroke="midnightblue" d="M819.128,-817.398C774.253,-803.997 702,-773.493 702,-716 702,-716 702,-716 702,-367 702,-329.902 713.827,-287.806 721.527,-264.328"/>
<polygon fill="midnightblue" stroke="midnightblue" points="724.906,-265.262 724.812,-254.668 718.279,-263.009 724.906,-265.262"/>
</g>
<!-- Node35 -->
<g id="node35" class="node"><title>Node35</title>
<g id="a_node35"><a xlink:href="structural__equal_8h.html" target="_top" xlink:title="Structural equality comparison. ">
<polygon fill="white" stroke="black" points="1946.5,-470.5 1946.5,-500.5 2057.5,-500.5 2057.5,-470.5 1946.5,-470.5"/>
<text text-anchor="start" x="1954.5" y="-488.5" font-family="Helvetica,sans-Serif" font-size="10.00">tvm/node/structural</text>
<text text-anchor="middle" x="2002" y="-477.5" font-family="Helvetica,sans-Serif" font-size="10.00">_equal.h</text>
</a>
</g>
</g>
<!-- Node2&#45;&gt;Node35 -->
<g id="edge132" class="edge"><title>Node2&#45;&gt;Node35</title>
<path fill="none" stroke="midnightblue" d="M893.675,-825.268C1049.4,-821.85 1618.07,-804.089 1777,-725 1878.26,-674.61 1957.88,-558.766 1988.45,-509.427"/>
<polygon fill="midnightblue" stroke="midnightblue" points="1991.52,-511.112 1993.74,-500.752 1985.54,-507.466 1991.52,-511.112"/>
</g>
<!-- Node38 -->
<g id="node38" class="node"><title>Node38</title>
<g id="a_node38"><a xlink:href="structural__hash_8h.html" target="_top" xlink:title="tvm/node/structural\l_hash.h">
<polygon fill="white" stroke="black" points="1543.5,-470.5 1543.5,-500.5 1654.5,-500.5 1654.5,-470.5 1543.5,-470.5"/>
<text text-anchor="start" x="1551.5" y="-488.5" font-family="Helvetica,sans-Serif" font-size="10.00">tvm/node/structural</text>
<text text-anchor="middle" x="1599" y="-477.5" font-family="Helvetica,sans-Serif" font-size="10.00">_hash.h</text>
</a>
</g>
</g>
<!-- Node2&#45;&gt;Node38 -->
<g id="edge133" class="edge"><title>Node2&#45;&gt;Node38</title>
<path fill="none" stroke="midnightblue" d="M873.444,-817.38C963.168,-777.59 1337.77,-611.294 1454,-557 1490.84,-539.789 1532.57,-519.408 1561.77,-504.998"/>
<polygon fill="midnightblue" stroke="midnightblue" points="1563.37,-508.109 1570.78,-500.54 1560.27,-501.834 1563.37,-508.109"/>
</g>
<!-- Node5 -->
<g id="node5" class="node"><title>Node5</title>
<g id="a_node5"><a xlink:href="object_8h.html" target="_top" xlink:title="A managed object in the TVM runtime. ">
<polygon fill="white" stroke="black" points="1869.5,-123.5 1869.5,-142.5 1986.5,-142.5 1986.5,-123.5 1869.5,-123.5"/>
<text text-anchor="middle" x="1928" y="-130.5" font-family="Helvetica,sans-Serif" font-size="10.00">tvm/runtime/object.h</text>
</a>
</g>
</g>
<!-- Node4&#45;&gt;Node5 -->
<g id="edge4" class="edge"><title>Node4&#45;&gt;Node5</title>
<path fill="none" stroke="midnightblue" d="M1763.66,-761.483C1807.89,-748.036 1880,-717.321 1880,-660 1880,-660 1880,-660 1880,-367 1880,-325.043 1909.34,-323.4 1936,-291 1949.79,-274.239 1961.13,-275.229 1969,-255 1975.78,-237.563 1965.82,-193.221 1960,-179 1955.78,-168.707 1948.82,-158.5 1942.46,-150.415"/>
<polygon fill="midnightblue" stroke="midnightblue" points="1945.03,-148.037 1935.95,-142.573 1939.64,-152.505 1945.03,-148.037"/>
</g>
<!-- Node4&#45;&gt;Node11 -->
<g id="edge131" class="edge"><title>Node4&#45;&gt;Node11</title>
<path fill="none" stroke="midnightblue" d="M1768.86,-766.739C1886.75,-755.35 2247.55,-709.347 2497,-557 2611.55,-487.041 2647.16,-425.032 2640,-291 2635.92,-214.556 2655.45,-177.805 2602,-123 2584.61,-105.17 2559.62,-92.656 2538.73,-84.545"/>
<polygon fill="midnightblue" stroke="midnightblue" points="2539.75,-81.1916 2529.16,-81.0191 2537.33,-87.7601 2539.75,-81.1916"/>
</g>
<!-- Node4&#45;&gt;Node12 -->
<g id="edge128" class="edge"><title>Node4&#45;&gt;Node12</title>
<path fill="none" stroke="midnightblue" d="M1691.37,-767.942C1611.63,-763.323 1423.23,-750.483 1267,-725 1029.13,-686.199 266,-548.517 266,-307.5 266,-307.5 266,-307.5 266,-188 266,-98.3385 405.127,-78.272 469.737,-73.7874"/>
<polygon fill="midnightblue" stroke="midnightblue" points="470.029,-77.2762 479.798,-73.174 469.603,-70.2891 470.029,-77.2762"/>
</g>
<!-- Node15 -->
<g id="node15" class="node"><title>Node15</title>
<g id="a_node15"><a xlink:href="node_8h.html" target="_top" xlink:title="Definitions and helper macros for IR/AST nodes. ">
<polygon fill="white" stroke="black" points="1965,-593.5 1965,-612.5 2063,-612.5 2063,-593.5 1965,-593.5"/>
<text text-anchor="middle" x="2014" y="-600.5" font-family="Helvetica,sans-Serif" font-size="10.00">tvm/node/node.h</text>
</a>
</g>
</g>
<!-- Node4&#45;&gt;Node15 -->
<g id="edge14" class="edge"><title>Node4&#45;&gt;Node15</title>
<path fill="none" stroke="midnightblue" d="M1768.66,-765.183C1803.37,-759.56 1854.74,-747.933 1894,-725 1941.08,-697.501 1982.56,-646.896 2002.1,-620.697"/>
<polygon fill="midnightblue" stroke="midnightblue" points="2005,-622.665 2008.08,-612.526 1999.35,-618.534 2005,-622.665"/>
</g>
<!-- Node31 -->
<g id="node31" class="node"><title>Node31</title>
<polygon fill="white" stroke="#bfbfbf" points="446,-235.5 446,-254.5 488,-254.5 488,-235.5 446,-235.5"/>
<text text-anchor="middle" x="467" y="-242.5" font-family="Helvetica,sans-Serif" font-size="10.00">limits</text>
</g>
<!-- Node4&#45;&gt;Node31 -->
<g id="edge130" class="edge"><title>Node4&#45;&gt;Node31</title>
<path fill="none" stroke="midnightblue" d="M1691.43,-766.155C1500.32,-746.062 664,-645.538 664,-425 664,-425 664,-425 664,-367 664,-328.379 552.673,-279.445 497.397,-257.529"/>
<polygon fill="midnightblue" stroke="midnightblue" points="498.67,-254.269 488.082,-253.882 496.118,-260.787 498.67,-254.269"/>
</g>
<!-- Node37 -->
<g id="node37" class="node"><title>Node37</title>
<g id="a_node37"><a xlink:href="node_2container_8h.html" target="_top" xlink:title="Array/Map container in the DSL graph. ">
<polygon fill="white" stroke="black" points="2141.5,-414.5 2141.5,-433.5 2260.5,-433.5 2260.5,-414.5 2141.5,-414.5"/>
<text text-anchor="middle" x="2201" y="-421.5" font-family="Helvetica,sans-Serif" font-size="10.00">tvm/node/container.h</text>
</a>
</g>
</g>
<!-- Node4&#45;&gt;Node37 -->
<g id="edge116" class="edge"><title>Node4&#45;&gt;Node37</title>
<path fill="none" stroke="midnightblue" d="M1768.66,-764.738C1808.27,-758.481 1871.09,-746.13 1922,-725 2009.02,-688.881 2026.97,-669.995 2102,-613 2154.44,-573.166 2179.61,-563.933 2199,-501 2204.82,-482.12 2204.51,-459.338 2203.26,-443.671"/>
<polygon fill="midnightblue" stroke="midnightblue" points="2206.74,-443.276 2202.25,-433.677 2199.77,-443.977 2206.74,-443.276"/>
</g>
<!-- Node41 -->
<g id="node41" class="node"><title>Node41</title>
<g id="a_node41"><a xlink:href="span_8h.html" target="_top" xlink:title="Span information for debugging purposes. ">
<polygon fill="white" stroke="black" points="1262,-649.5 1262,-668.5 1342,-668.5 1342,-649.5 1262,-649.5"/>
<text text-anchor="middle" x="1302" y="-656.5" font-family="Helvetica,sans-Serif" font-size="10.00">tvm/ir/span.h</text>
</a>
</g>
</g>
<!-- Node4&#45;&gt;Node41 -->
<g id="edge117" class="edge"><title>Node4&#45;&gt;Node41</title>
<path fill="none" stroke="midnightblue" d="M1696.77,-761.46C1620.05,-741.742 1430.61,-693.055 1345.11,-671.078"/>
<polygon fill="midnightblue" stroke="midnightblue" points="1345.76,-667.634 1335.21,-668.535 1344.02,-674.414 1345.76,-667.634"/>
</g>
<!-- Node42 -->
<g id="node42" class="node"><title>Node42</title>
<g id="a_node42"><a xlink:href="ir_2type_8h.html" target="_top" xlink:title="IR/AST nodes for the unified type system in TVM. ">
<polygon fill="white" stroke="black" points="1691.5,-705.5 1691.5,-724.5 1768.5,-724.5 1768.5,-705.5 1691.5,-705.5"/>
<text text-anchor="middle" x="1730" y="-712.5" font-family="Helvetica,sans-Serif" font-size="10.00">tvm/ir/type.h</text>
</a>
</g>
</g>
<!-- Node4&#45;&gt;Node42 -->
<g id="edge121" class="edge"><title>Node4&#45;&gt;Node42</title>
<path fill="none" stroke="midnightblue" d="M1730,-761.083C1730,-754.006 1730,-743.861 1730,-734.986"/>
<polygon fill="midnightblue" stroke="midnightblue" points="1733.5,-734.751 1730,-724.751 1726.5,-734.751 1733.5,-734.751"/>
</g>
<!-- Node43 -->
<g id="node43" class="node"><title>Node43</title>
<polygon fill="white" stroke="#bfbfbf" points="2156,-705.5 2156,-724.5 2218,-724.5 2218,-705.5 2156,-705.5"/>
<text text-anchor="middle" x="2187" y="-712.5" font-family="Helvetica,sans-Serif" font-size="10.00">algorithm</text>
</g>
<!-- Node4&#45;&gt;Node43 -->
<g id="edge129" class="edge"><title>Node4&#45;&gt;Node43</title>
<path fill="none" stroke="midnightblue" d="M1768.57,-765.443C1853.87,-755.364 2057.89,-731.256 2145.68,-720.883"/>
<polygon fill="midnightblue" stroke="midnightblue" points="2146.27,-724.337 2155.79,-719.688 2145.45,-717.385 2146.27,-724.337"/>
</g>
<!-- Node6 -->
<g id="node6" class="node"><title>Node6</title>
<polygon fill="white" stroke="#bfbfbf" points="1885,-62 1885,-81 1971,-81 1971,-62 1885,-62"/>
<text text-anchor="middle" x="1928" y="-69" font-family="Helvetica,sans-Serif" font-size="10.00">dmlc/logging.h</text>
</g>
<!-- Node5&#45;&gt;Node6 -->
<g id="edge5" class="edge"><title>Node5&#45;&gt;Node6</title>
<path fill="none" stroke="midnightblue" d="M1928,-123.475C1928,-115.08 1928,-101.981 1928,-91.1631"/>
<polygon fill="midnightblue" stroke="midnightblue" points="1931.5,-91.0091 1928,-81.0091 1924.5,-91.0091 1931.5,-91.0091"/>
</g>
<!-- Node7 -->
<g id="node7" class="node"><title>Node7</title>
<g id="a_node7"><a xlink:href="c__runtime__api_8h.html" target="_top" xlink:title="tvm/runtime/c_runtime\l_api.h">
<polygon fill="white" stroke="black" points="1006.5,-56.5 1006.5,-86.5 1133.5,-86.5 1133.5,-56.5 1006.5,-56.5"/>
<text text-anchor="start" x="1014.5" y="-74.5" font-family="Helvetica,sans-Serif" font-size="10.00">tvm/runtime/c_runtime</text>
<text text-anchor="middle" x="1070" y="-63.5" font-family="Helvetica,sans-Serif" font-size="10.00">_api.h</text>
</a>
</g>
</g>
<!-- Node5&#45;&gt;Node7 -->
<g id="edge6" class="edge"><title>Node5&#45;&gt;Node7</title>
<path fill="none" stroke="midnightblue" d="M1869.36,-127.934C1717.42,-117.397 1311.14,-89.2224 1143.7,-77.6108"/>
<polygon fill="midnightblue" stroke="midnightblue" points="1143.72,-74.1039 1133.5,-76.9036 1143.23,-81.0871 1143.72,-74.1039"/>
</g>
<!-- Node5&#45;&gt;Node11 -->
<g id="edge10" class="edge"><title>Node5&#45;&gt;Node11</title>
<path fill="none" stroke="midnightblue" d="M1986.56,-124.667C1991.44,-124.09 1996.3,-123.527 2001,-123 2168.76,-104.172 2368.61,-84.8991 2455.73,-76.6529"/>
<polygon fill="midnightblue" stroke="midnightblue" points="2456.16,-80.1279 2465.79,-75.7027 2455.51,-73.159 2456.16,-80.1279"/>
</g>
<!-- Node5&#45;&gt;Node12 -->
<g id="edge11" class="edge"><title>Node5&#45;&gt;Node12</title>
<path fill="none" stroke="midnightblue" d="M1869.44,-129.557C1628.44,-119.501 717.321,-81.4843 534.181,-73.8428"/>
<polygon fill="midnightblue" stroke="midnightblue" points="534.251,-70.3427 524.114,-73.4227 533.959,-77.3366 534.251,-70.3427"/>
</g>
<!-- Node5&#45;&gt;Node13 -->
<g id="edge12" class="edge"><title>Node5&#45;&gt;Node13</title>
<path fill="none" stroke="midnightblue" d="M1986.57,-127.934C2153.44,-116.348 2627.47,-83.4373 2753.76,-74.6688"/>
<polygon fill="midnightblue" stroke="midnightblue" points="2754.17,-78.1491 2763.9,-73.9648 2753.68,-71.1659 2754.17,-78.1491"/>
</g>
<!-- Node14 -->
<g id="node14" class="node"><title>Node14</title>
<polygon fill="white" stroke="#bfbfbf" points="1583,-62 1583,-81 1633,-81 1633,-62 1583,-62"/>
<text text-anchor="middle" x="1608" y="-69" font-family="Helvetica,sans-Serif" font-size="10.00">atomic</text>
</g>
<!-- Node5&#45;&gt;Node14 -->
<g id="edge13" class="edge"><title>Node5&#45;&gt;Node14</title>
<path fill="none" stroke="midnightblue" d="M1882.15,-123.475C1817.73,-111.496 1701.78,-89.9364 1643.49,-79.0987"/>
<polygon fill="midnightblue" stroke="midnightblue" points="1643.77,-75.5917 1633.3,-77.2046 1642.49,-82.4737 1643.77,-75.5917"/>
</g>
<!-- Node8 -->
<g id="node8" class="node"><title>Node8</title>
<polygon fill="white" stroke="#bfbfbf" points="935,-0.5 935,-19.5 1025,-19.5 1025,-0.5 935,-0.5"/>
<text text-anchor="middle" x="980" y="-7.5" font-family="Helvetica,sans-Serif" font-size="10.00">dlpack/dlpack.h</text>
</g>
<!-- Node7&#45;&gt;Node8 -->
<g id="edge7" class="edge"><title>Node7&#45;&gt;Node8</title>
<path fill="none" stroke="midnightblue" d="M1048.67,-56.3993C1034.51,-47.0402 1015.99,-34.7924 1001.75,-25.3771"/>
<polygon fill="midnightblue" stroke="midnightblue" points="1003.37,-22.2531 993.096,-19.6578 999.507,-28.0923 1003.37,-22.2531"/>
</g>
<!-- Node9 -->
<g id="node9" class="node"><title>Node9</title>
<polygon fill="white" stroke="#bfbfbf" points="1043.5,-0.5 1043.5,-19.5 1096.5,-19.5 1096.5,-0.5 1043.5,-0.5"/>
<text text-anchor="middle" x="1070" y="-7.5" font-family="Helvetica,sans-Serif" font-size="10.00">stdint.h</text>
</g>
<!-- Node7&#45;&gt;Node9 -->
<g id="edge8" class="edge"><title>Node7&#45;&gt;Node9</title>
<path fill="none" stroke="midnightblue" d="M1070,-56.3993C1070,-48.4664 1070,-38.458 1070,-29.8583"/>
<polygon fill="midnightblue" stroke="midnightblue" points="1073.5,-29.6577 1070,-19.6578 1066.5,-29.6578 1073.5,-29.6577"/>
</g>
<!-- Node10 -->
<g id="node10" class="node"><title>Node10</title>
<polygon fill="white" stroke="#bfbfbf" points="1114.5,-0.5 1114.5,-19.5 1169.5,-19.5 1169.5,-0.5 1114.5,-0.5"/>
<text text-anchor="middle" x="1142" y="-7.5" font-family="Helvetica,sans-Serif" font-size="10.00">stddef.h</text>
</g>
<!-- Node7&#45;&gt;Node10 -->
<g id="edge9" class="edge"><title>Node7&#45;&gt;Node10</title>
<path fill="none" stroke="midnightblue" d="M1087.06,-56.3993C1098.06,-47.3076 1112.37,-35.4899 1123.62,-26.1909"/>
<polygon fill="midnightblue" stroke="midnightblue" points="1126.04,-28.726 1131.52,-19.6578 1121.59,-23.33 1126.04,-28.726"/>
</g>
<!-- Node15&#45;&gt;Node5 -->
<g id="edge68" class="edge"><title>Node15&#45;&gt;Node5</title>
<path fill="none" stroke="midnightblue" d="M2005.41,-593.373C1989.48,-576.889 1955.34,-539.154 1937,-501 1921.91,-469.621 1918,-459.817 1918,-425 1918,-425 1918,-425 1918,-367 1918,-299.071 1997.17,-318.228 2022,-255 2039.51,-210.414 1985.88,-168.684 1952.52,-147.852"/>
<polygon fill="midnightblue" stroke="midnightblue" points="1954.1,-144.716 1943.73,-142.546 1950.48,-150.709 1954.1,-144.716"/>
</g>
<!-- Node15&#45;&gt;Node7 -->
<g id="edge15" class="edge"><title>Node15&#45;&gt;Node7</title>
<path fill="none" stroke="midnightblue" d="M1964.97,-600.798C1822.83,-597.026 1412.36,-584.035 1281,-557 1024.02,-504.109 986.241,-413.068 754,-291 694.825,-259.897 657.197,-262.059 635,-199 632.049,-190.615 629.513,-185.993 635,-179 679.102,-122.799 884.032,-92.4062 996.174,-79.7292"/>
<polygon fill="midnightblue" stroke="midnightblue" points="996.845,-83.1762 1006.4,-78.5934 996.072,-76.219 996.845,-83.1762"/>
</g>
<!-- Node15&#45;&gt;Node11 -->
<g id="edge115" class="edge"><title>Node15&#45;&gt;Node11</title>
<path fill="none" stroke="midnightblue" d="M2063.19,-601.218C2165.41,-598.934 2397.16,-590.15 2468,-557 2500.17,-541.948 2503,-528.882 2525,-501 2588.91,-419.989 2636.89,-393.376 2624,-291 2614.37,-214.53 2626.53,-185.189 2581,-123 2568.81,-106.345 2549.3,-93.9425 2532.49,-85.5967"/>
<polygon fill="midnightblue" stroke="midnightblue" points="2533.52,-82.2139 2522.98,-81.1502 2530.56,-88.5554 2533.52,-82.2139"/>
</g>
<!-- Node15&#45;&gt;Node12 -->
<g id="edge112" class="edge"><title>Node15&#45;&gt;Node12</title>
<path fill="none" stroke="midnightblue" d="M1964.82,-601.144C1811.62,-598.188 1344.4,-586.896 1196,-557 1123.38,-542.37 1105.65,-533.338 1039,-501 818.294,-393.92 749.082,-373.829 577,-199 544.73,-166.215 520.733,-116.917 509.348,-90.5903"/>
<polygon fill="midnightblue" stroke="midnightblue" points="512.471,-88.9854 505.372,-81.12 506.016,-91.6952 512.471,-88.9854"/>
</g>
<!-- Node15&#45;&gt;Node13 -->
<g id="edge114" class="edge"><title>Node15&#45;&gt;Node13</title>
<path fill="none" stroke="midnightblue" d="M2063.04,-600.663C2246.24,-595.031 2880,-569.544 2880,-486.5 2880,-486.5 2880,-486.5 2880,-188 2880,-143.018 2836.49,-106.021 2808.36,-86.8025"/>
<polygon fill="midnightblue" stroke="midnightblue" points="2810.12,-83.7713 2799.84,-81.2 2806.28,-89.6196 2810.12,-83.7713"/>
</g>
<!-- Node16 -->
<g id="node16" class="node"><title>Node16</title>
<g id="a_node16"><a xlink:href="runtime_2container_8h.html" target="_top" xlink:title="Common POD(plain old data) container types. ">
<polygon fill="white" stroke="black" points="2136,-358.5 2136,-377.5 2268,-377.5 2268,-358.5 2136,-358.5"/>
<text text-anchor="middle" x="2202" y="-365.5" font-family="Helvetica,sans-Serif" font-size="10.00">tvm/runtime/container.h</text>
</a>
</g>
</g>
<!-- Node15&#45;&gt;Node16 -->
<g id="edge16" class="edge"><title>Node15&#45;&gt;Node16</title>
<path fill="none" stroke="midnightblue" d="M2017.8,-593.214C2030.51,-564.61 2074,-472.627 2132,-414 2144.55,-401.315 2161.28,-390.397 2175.24,-382.492"/>
<polygon fill="midnightblue" stroke="midnightblue" points="2177.27,-385.373 2184.37,-377.516 2173.92,-379.226 2177.27,-385.373"/>
</g>
<!-- Node17 -->
<g id="node17" class="node"><title>Node17</title>
<g id="a_node17"><a xlink:href="runtime_2memory_8h.html" target="_top" xlink:title="Runtime memory management. ">
<polygon fill="white" stroke="black" points="2420.5,-179.5 2420.5,-198.5 2547.5,-198.5 2547.5,-179.5 2420.5,-179.5"/>
<text text-anchor="middle" x="2484" y="-186.5" font-family="Helvetica,sans-Serif" font-size="10.00">tvm/runtime/memory.h</text>
</a>
</g>
</g>
<!-- Node15&#45;&gt;Node17 -->
<g id="edge69" class="edge"><title>Node15&#45;&gt;Node17</title>
<path fill="none" stroke="midnightblue" d="M2047.73,-593.458C2107.96,-577.806 2237.58,-542.314 2343,-501 2406.85,-475.976 2421.52,-466.33 2482,-434 2525.22,-410.895 2543.31,-413.593 2577,-378 2620.69,-331.844 2621.76,-279.105 2576,-235 2560.77,-220.321 2539.83,-209.567 2521.77,-202.26"/>
<polygon fill="midnightblue" stroke="midnightblue" points="2522.68,-198.86 2512.09,-198.552 2520.17,-205.397 2522.68,-198.86"/>
</g>
<!-- Node15&#45;&gt;Node23 -->
<g id="edge113" class="edge"><title>Node15&#45;&gt;Node23</title>
<path fill="none" stroke="midnightblue" d="M1964.8,-600.734C1815.8,-596.637 1376.03,-582.497 1317,-557 1208.13,-509.979 1253.47,-401.7 1296,-291 1306.28,-264.241 1307.01,-254.52 1328,-235 1345.26,-218.948 1369.3,-207.579 1388.75,-200.284"/>
<polygon fill="midnightblue" stroke="midnightblue" points="1390.19,-203.486 1398.44,-196.837 1387.84,-196.891 1390.19,-203.486"/>
</g>
<!-- Node34 -->
<g id="node34" class="node"><title>Node34</title>
<g id="a_node34"><a xlink:href="reflection_8h.html" target="_top" xlink:title="Reflection and serialization of compiler IR/AST nodes. ">
<polygon fill="white" stroke="black" points="1326.5,-537.5 1326.5,-556.5 1445.5,-556.5 1445.5,-537.5 1326.5,-537.5"/>
<text text-anchor="middle" x="1386" y="-544.5" font-family="Helvetica,sans-Serif" font-size="10.00">tvm/node/reflection.h</text>
</a>
</g>
</g>
<!-- Node15&#45;&gt;Node34 -->
<g id="edge70" class="edge"><title>Node15&#45;&gt;Node34</title>
<path fill="none" stroke="midnightblue" d="M1964.98,-597.785C1854.25,-588.263 1584.43,-565.062 1456.07,-554.025"/>
<polygon fill="midnightblue" stroke="midnightblue" points="1456.22,-550.526 1445.96,-553.156 1455.62,-557.5 1456.22,-550.526"/>
</g>
<!-- Node15&#45;&gt;Node35 -->
<g id="edge110" class="edge"><title>Node15&#45;&gt;Node35</title>
<path fill="none" stroke="midnightblue" d="M2013.1,-593.319C2011.3,-575.967 2007.19,-536.457 2004.51,-510.658"/>
<polygon fill="midnightblue" stroke="midnightblue" points="2007.97,-510.13 2003.46,-500.545 2001.01,-510.853 2007.97,-510.13"/>
</g>
<!-- Node15&#45;&gt;Node37 -->
<g id="edge109" class="edge"><title>Node15&#45;&gt;Node37</title>
<path fill="none" stroke="midnightblue" d="M2037.11,-593.386C2055.68,-585.719 2081.75,-573.211 2101,-557 2141.35,-523.023 2175.22,-469.949 2191.18,-442.602"/>
<polygon fill="midnightblue" stroke="midnightblue" points="2194.31,-444.192 2196.23,-433.773 2188.23,-440.717 2194.31,-444.192"/>
</g>
<!-- Node15&#45;&gt;Node38 -->
<g id="edge111" class="edge"><title>Node15&#45;&gt;Node38</title>
<path fill="none" stroke="midnightblue" d="M1983.15,-593.413C1914.71,-574.365 1749.15,-528.288 1659.34,-503.295"/>
<polygon fill="midnightblue" stroke="midnightblue" points="1660.15,-499.885 1649.57,-500.575 1658.27,-506.629 1660.15,-499.885"/>
</g>
<!-- Node39 -->
<g id="node39" class="node"><title>Node39</title>
<g id="a_node39"><a xlink:href="repr__printer_8h.html" target="_top" xlink:title="Printer class to print repr string of each AST/IR nodes. ">
<polygon fill="white" stroke="black" points="2329,-537.5 2329,-556.5 2459,-556.5 2459,-537.5 2329,-537.5"/>
<text text-anchor="middle" x="2394" y="-544.5" font-family="Helvetica,sans-Serif" font-size="10.00">tvm/node/repr_printer.h</text>
</a>
</g>
</g>
<!-- Node15&#45;&gt;Node39 -->
<g id="edge106" class="edge"><title>Node15&#45;&gt;Node39</title>
<path fill="none" stroke="midnightblue" d="M2063.29,-594.996C2129.79,-585.546 2248.6,-568.662 2324.24,-557.913"/>
<polygon fill="midnightblue" stroke="midnightblue" points="2324.75,-561.375 2334.16,-556.503 2323.77,-554.445 2324.75,-561.375"/>
</g>
<!-- Node16&#45;&gt;Node5 -->
<g id="edge23" class="edge"><title>Node16&#45;&gt;Node5</title>
<path fill="none" stroke="midnightblue" d="M2191.94,-358.3C2176.22,-343.642 2149.18,-313.427 2165,-291 2194.58,-249.054 2295.86,-276.748 2266,-235 2234.4,-190.812 2084.26,-159.362 1995.07,-144.218"/>
<polygon fill="midnightblue" stroke="midnightblue" points="1995.48,-140.738 1985.03,-142.54 1994.32,-147.642 1995.48,-140.738"/>
</g>
<!-- Node16&#45;&gt;Node6 -->
<g id="edge17" class="edge"><title>Node16&#45;&gt;Node6</title>
<path fill="none" stroke="midnightblue" d="M2209.46,-358.222C2228.04,-336.144 2275.42,-278.401 2283,-255 2285.74,-246.543 2287.22,-242.826 2283,-235 2223.6,-124.726 2064.98,-88.9814 1981.33,-77.628"/>
<polygon fill="midnightblue" stroke="midnightblue" points="1981.63,-74.1382 1971.27,-76.331 1980.74,-81.0807 1981.63,-74.1382"/>
</g>
<!-- Node16&#45;&gt;Node11 -->
<g id="edge65" class="edge"><title>Node16&#45;&gt;Node11</title>
<path fill="none" stroke="midnightblue" d="M2224.63,-358.415C2245.85,-350.06 2278.25,-336.528 2305,-322 2326.99,-310.058 2330.08,-303.071 2352,-291 2439.12,-243.022 2502.03,-282.544 2556,-199 2579.87,-162.046 2540.91,-113.209 2516.81,-88.4149"/>
<polygon fill="midnightblue" stroke="midnightblue" points="2519.17,-85.8222 2509.61,-81.255 2514.23,-90.787 2519.17,-85.8222"/>
</g>
<!-- Node16&#45;&gt;Node12 -->
<g id="edge64" class="edge"><title>Node16&#45;&gt;Node12</title>
<path fill="none" stroke="midnightblue" d="M2135.78,-365.769C1994.29,-362.626 1652.12,-352.287 1367,-322 1319.9,-316.997 989.349,-274.089 946,-255 859.734,-217.012 865.845,-161.929 780,-123 697.036,-85.3775 588.148,-75.7644 534.605,-73.3218"/>
<polygon fill="midnightblue" stroke="midnightblue" points="534.485,-69.8143 524.353,-72.9122 534.205,-76.8087 534.485,-69.8143"/>
</g>
<!-- Node16&#45;&gt;Node13 -->
<g id="edge66" class="edge"><title>Node16&#45;&gt;Node13</title>
<path fill="none" stroke="midnightblue" d="M2240.13,-358.441C2269.27,-351.054 2309.94,-338.895 2343,-322 2363.66,-311.443 2364.12,-301.113 2385,-291 2439.73,-264.493 2461.06,-278.845 2517,-255 2606.12,-217.012 2625.6,-199.912 2704,-143 2727.64,-125.84 2752.69,-103.275 2768.56,-88.3502"/>
<polygon fill="midnightblue" stroke="midnightblue" points="2771.13,-90.7361 2775.97,-81.311 2766.31,-85.6611 2771.13,-90.7361"/>
</g>
<!-- Node16&#45;&gt;Node17 -->
<g id="edge18" class="edge"><title>Node16&#45;&gt;Node17</title>
<path fill="none" stroke="midnightblue" d="M2214.24,-358.277C2234.64,-343.839 2277,-314.259 2314,-291 2340.98,-274.044 2348.57,-271.216 2376,-255 2405.51,-237.557 2439.33,-217.127 2461.15,-203.894"/>
<polygon fill="midnightblue" stroke="midnightblue" points="2462.99,-206.875 2469.72,-198.693 2459.35,-200.891 2462.99,-206.875"/>
</g>
<!-- Node16&#45;&gt;Node19 -->
<g id="edge24" class="edge"><title>Node16&#45;&gt;Node19</title>
<path fill="none" stroke="midnightblue" d="M2135.77,-361.876C1990.52,-350.637 1645.36,-323.931 1499.69,-312.66"/>
<polygon fill="midnightblue" stroke="midnightblue" points="1499.79,-309.158 1489.55,-311.876 1499.25,-316.137 1499.79,-309.158"/>
</g>
<!-- Node16&#45;&gt;Node23 -->
<g id="edge67" class="edge"><title>Node16&#45;&gt;Node23</title>
<path fill="none" stroke="midnightblue" d="M2187.39,-358.324C2141.67,-331.325 2001.33,-249.718 1951,-235 1903.59,-221.136 1564.67,-198.938 1455.67,-192.084"/>
<polygon fill="midnightblue" stroke="midnightblue" points="1455.76,-188.583 1445.56,-191.451 1455.33,-195.569 1455.76,-188.583"/>
</g>
<!-- Node32 -->
<g id="node32" class="node"><title>Node32</title>
<polygon fill="white" stroke="#bfbfbf" points="2174.5,-297 2174.5,-316 2223.5,-316 2223.5,-297 2174.5,-297"/>
<text text-anchor="middle" x="2199" y="-304" font-family="Helvetica,sans-Serif" font-size="10.00">cstring</text>
</g>
<!-- Node16&#45;&gt;Node32 -->
<g id="edge62" class="edge"><title>Node16&#45;&gt;Node32</title>
<path fill="none" stroke="midnightblue" d="M2201.57,-358.475C2201.15,-350.08 2200.49,-336.981 2199.94,-326.163"/>
<polygon fill="midnightblue" stroke="midnightblue" points="2203.43,-325.82 2199.43,-316.009 2196.44,-326.173 2203.43,-325.82"/>
</g>
<!-- Node33 -->
<g id="node33" class="node"><title>Node33</title>
<polygon fill="white" stroke="#bfbfbf" points="2394.5,-297 2394.5,-316 2471.5,-316 2471.5,-297 2394.5,-297"/>
<text text-anchor="middle" x="2433" y="-304" font-family="Helvetica,sans-Serif" font-size="10.00">initializer_list</text>
</g>
<!-- Node16&#45;&gt;Node33 -->
<g id="edge63" class="edge"><title>Node16&#45;&gt;Node33</title>
<path fill="none" stroke="midnightblue" d="M2236.51,-358.487C2272.41,-349.582 2330.22,-335.101 2380,-322 2384.05,-320.935 2388.26,-319.809 2392.47,-318.674"/>
<polygon fill="midnightblue" stroke="midnightblue" points="2393.46,-322.032 2402.2,-316.035 2391.63,-315.276 2393.46,-322.032"/>
</g>
<!-- Node17&#45;&gt;Node5 -->
<g id="edge19" class="edge"><title>Node17&#45;&gt;Node5</title>
<path fill="none" stroke="midnightblue" d="M2420.49,-181.832C2315.32,-171.618 2105.85,-151.273 1997.11,-140.712"/>
<polygon fill="midnightblue" stroke="midnightblue" points="1997.19,-137.204 1986.9,-139.721 1996.52,-144.171 1997.19,-137.204"/>
</g>
<!-- Node17&#45;&gt;Node11 -->
<g id="edge22" class="edge"><title>Node17&#45;&gt;Node11</title>
<path fill="none" stroke="midnightblue" d="M2485.2,-179.319C2487.77,-160.757 2493.86,-116.839 2497.37,-91.4734"/>
<polygon fill="midnightblue" stroke="midnightblue" points="2500.88,-91.6677 2498.78,-81.282 2493.94,-90.7071 2500.88,-91.6677"/>
</g>
<!-- Node17&#45;&gt;Node13 -->
<g id="edge21" class="edge"><title>Node17&#45;&gt;Node13</title>
<path fill="none" stroke="midnightblue" d="M2506.62,-179.319C2559.98,-158.844 2693.74,-107.518 2754.33,-84.2705"/>
<polygon fill="midnightblue" stroke="midnightblue" points="2755.65,-87.5094 2763.74,-80.6591 2753.15,-80.974 2755.65,-87.5094"/>
</g>
<!-- Node18 -->
<g id="node18" class="node"><title>Node18</title>
<polygon fill="white" stroke="#bfbfbf" points="2424.5,-123.5 2424.5,-142.5 2471.5,-142.5 2471.5,-123.5 2424.5,-123.5"/>
<text text-anchor="middle" x="2448" y="-130.5" font-family="Helvetica,sans-Serif" font-size="10.00">cstdlib</text>
</g>
<!-- Node17&#45;&gt;Node18 -->
<g id="edge20" class="edge"><title>Node17&#45;&gt;Node18</title>
<path fill="none" stroke="midnightblue" d="M2478.06,-179.083C2473.02,-171.534 2465.66,-160.495 2459.49,-151.23"/>
<polygon fill="midnightblue" stroke="midnightblue" points="2462.29,-149.13 2453.83,-142.751 2456.47,-153.013 2462.29,-149.13"/>
</g>
<!-- Node19&#45;&gt;Node5 -->
<g id="edge53" class="edge"><title>Node19&#45;&gt;Node5</title>
<path fill="none" stroke="midnightblue" d="M1489.68,-293.887C1561.89,-279.082 1677.51,-255.34 1678,-255 1710.85,-232.265 1693.33,-201.996 1726,-179 1764.81,-151.679 1817.36,-140.572 1859.13,-136.221"/>
<polygon fill="midnightblue" stroke="midnightblue" points="1859.6,-139.692 1869.23,-135.277 1858.95,-132.723 1859.6,-139.692"/>
</g>
<!-- Node19&#45;&gt;Node6 -->
<g id="edge25" class="edge"><title>Node19&#45;&gt;Node6</title>
<path fill="none" stroke="midnightblue" d="M1489.56,-293.855C1537.43,-283.412 1601.85,-267.807 1625,-255 1668.19,-231.1 1665.27,-206.891 1706,-179 1768.14,-136.45 1849.89,-102.026 1894.83,-84.6956"/>
<polygon fill="midnightblue" stroke="midnightblue" points="1896.27,-87.8916 1904.37,-81.0606 1893.78,-81.3503 1896.27,-87.8916"/>
</g>
<!-- Node19&#45;&gt;Node7 -->
<g id="edge26" class="edge"><title>Node19&#45;&gt;Node7</title>
<path fill="none" stroke="midnightblue" d="M1376.19,-300.922C1260.94,-291.363 1009.48,-269.011 997,-255 954.192,-206.948 1014.07,-130.654 1048.57,-93.8049"/>
<polygon fill="midnightblue" stroke="midnightblue" points="1051.12,-96.2084 1055.51,-86.5647 1046.06,-91.3676 1051.12,-96.2084"/>
</g>
<!-- Node19&#45;&gt;Node11 -->
<g id="edge61" class="edge"><title>Node19&#45;&gt;Node11</title>
<path fill="none" stroke="midnightblue" d="M1489.65,-295.783C1544.03,-286.232 1628.37,-270.823 1701,-255 1939.45,-203.05 1995.58,-175.113 2234,-123 2311.71,-106.015 2402.91,-89.4192 2455.81,-80.1196"/>
<polygon fill="midnightblue" stroke="midnightblue" points="2456.62,-83.5314 2465.87,-78.3589 2455.41,-76.6363 2456.62,-83.5314"/>
</g>
<!-- Node19&#45;&gt;Node12 -->
<g id="edge57" class="edge"><title>Node19&#45;&gt;Node12</title>
<path fill="none" stroke="midnightblue" d="M1376.12,-301.025C1262.95,-291.848 1017.38,-270.457 982,-255 934.645,-234.309 934.388,-211.241 894,-179 861.21,-152.824 856.698,-139.213 818,-123 720.316,-82.0736 592.885,-74.0965 534.179,-72.6912"/>
<polygon fill="midnightblue" stroke="midnightblue" points="534.104,-69.1892 524.039,-72.4987 533.971,-76.1879 534.104,-69.1892"/>
</g>
<!-- Node19&#45;&gt;Node13 -->
<g id="edge60" class="edge"><title>Node19&#45;&gt;Node13</title>
<path fill="none" stroke="midnightblue" d="M1489.8,-304.603C1624.86,-301.916 1975.64,-291.677 2266,-255 2396.24,-238.549 2432.59,-243.731 2556,-199 2637.83,-169.34 2725.47,-113.199 2764.37,-86.8435"/>
<polygon fill="midnightblue" stroke="midnightblue" points="2766.48,-89.642 2772.76,-81.1082 2762.53,-83.8638 2766.48,-89.642"/>
</g>
<!-- Node20 -->
<g id="node20" class="node"><title>Node20</title>
<g id="a_node20"><a xlink:href="runtime_2module_8h.html" target="_top" xlink:title="Runtime container of the functions generated by TVM, This is used to support dynamically link...">
<polygon fill="white" stroke="black" points="1474,-235.5 1474,-254.5 1598,-254.5 1598,-235.5 1474,-235.5"/>
<text text-anchor="middle" x="1536" y="-242.5" font-family="Helvetica,sans-Serif" font-size="10.00">tvm/runtime/module.h</text>
</a>
</g>
</g>
<!-- Node19&#45;&gt;Node20 -->
<g id="edge27" class="edge"><title>Node19&#45;&gt;Node20</title>
<path fill="none" stroke="midnightblue" d="M1451.57,-291.399C1467.14,-281.684 1489.38,-268.855 1507.22,-259.314"/>
<polygon fill="midnightblue" stroke="midnightblue" points="1508.86,-262.406 1516.08,-254.658 1505.6,-256.209 1508.86,-262.406"/>
</g>
<!-- Node22 -->
<g id="node22" class="node"><title>Node22</title>
<polygon fill="white" stroke="#bfbfbf" points="1578.5,-179.5 1578.5,-198.5 1635.5,-198.5 1635.5,-179.5 1578.5,-179.5"/>
<text text-anchor="middle" x="1607" y="-186.5" font-family="Helvetica,sans-Serif" font-size="10.00">memory</text>
</g>
<!-- Node19&#45;&gt;Node22 -->
<g id="edge59" class="edge"><title>Node19&#45;&gt;Node22</title>
<path fill="none" stroke="midnightblue" d="M1489.93,-292.561C1537.84,-281.097 1599.7,-264.715 1607,-255 1616.84,-241.899 1615.52,-222.751 1612.53,-208.629"/>
<polygon fill="midnightblue" stroke="midnightblue" points="1615.83,-207.411 1609.96,-198.593 1609.05,-209.149 1615.83,-207.411"/>
</g>
<!-- Node19&#45;&gt;Node23 -->
<g id="edge56" class="edge"><title>Node19&#45;&gt;Node23</title>
<path fill="none" stroke="midnightblue" d="M1422.56,-291.315C1416.1,-281.627 1408.41,-268.199 1405,-255 1400.9,-239.139 1406.41,-221.117 1412.23,-208.079"/>
<polygon fill="midnightblue" stroke="midnightblue" points="1415.51,-209.346 1416.78,-198.827 1409.22,-206.256 1415.51,-209.346"/>
</g>
<!-- Node25 -->
<g id="node25" class="node"><title>Node25</title>
<g id="a_node25"><a xlink:href="ndarray_8h.html" target="_top" xlink:title="A device&#45;independent managed NDArray abstraction. ">
<polygon fill="white" stroke="black" points="1006.5,-235.5 1006.5,-254.5 1129.5,-254.5 1129.5,-235.5 1006.5,-235.5"/>
<text text-anchor="middle" x="1068" y="-242.5" font-family="Helvetica,sans-Serif" font-size="10.00">tvm/runtime/ndarray.h</text>
</a>
</g>
</g>
<!-- Node19&#45;&gt;Node25 -->
<g id="edge37" class="edge"><title>Node19&#45;&gt;Node25</title>
<path fill="none" stroke="midnightblue" d="M1376.37,-296.268C1309.67,-285.395 1199.23,-267.392 1130.2,-256.139"/>
<polygon fill="midnightblue" stroke="midnightblue" points="1130.75,-252.684 1120.32,-254.529 1129.63,-259.593 1130.75,-252.684"/>
</g>
<!-- Node28 -->
<g id="node28" class="node"><title>Node28</title>
<g id="a_node28"><a xlink:href="data__type_8h.html" target="_top" xlink:title="tvm/runtime/data_type.h">
<polygon fill="white" stroke="black" points="1806,-235.5 1806,-254.5 1942,-254.5 1942,-235.5 1806,-235.5"/>
<text text-anchor="middle" x="1874" y="-242.5" font-family="Helvetica,sans-Serif" font-size="10.00">tvm/runtime/data_type.h</text>
</a>
</g>
</g>
<!-- Node19&#45;&gt;Node28 -->
<g id="edge48" class="edge"><title>Node19&#45;&gt;Node28</title>
<path fill="none" stroke="midnightblue" d="M1489.75,-297.843C1569.08,-287.14 1713.18,-267.698 1800.59,-255.904"/>
<polygon fill="midnightblue" stroke="midnightblue" points="1801.26,-259.346 1810.7,-254.541 1800.32,-252.409 1801.26,-259.346"/>
</g>
<!-- Node19&#45;&gt;Node29 -->
<g id="edge54" class="edge"><title>Node19&#45;&gt;Node29</title>
<path fill="none" stroke="midnightblue" d="M1376.5,-300.731C1239.32,-289.154 891.081,-259.764 770.145,-249.557"/>
<polygon fill="midnightblue" stroke="midnightblue" points="770.088,-246.04 759.829,-248.686 769.499,-253.015 770.088,-246.04"/>
</g>
<!-- Node30 -->
<g id="node30" class="node"><title>Node30</title>
<polygon fill="white" stroke="#bfbfbf" points="1414.5,-235.5 1414.5,-254.5 1455.5,-254.5 1455.5,-235.5 1414.5,-235.5"/>
<text text-anchor="middle" x="1435" y="-242.5" font-family="Helvetica,sans-Serif" font-size="10.00">tuple</text>
</g>
<!-- Node19&#45;&gt;Node30 -->
<g id="edge55" class="edge"><title>Node19&#45;&gt;Node30</title>
<path fill="none" stroke="midnightblue" d="M1433.47,-291.399C1433.74,-283.466 1434.08,-273.458 1434.37,-264.858"/>
<polygon fill="midnightblue" stroke="midnightblue" points="1437.87,-264.77 1434.71,-254.658 1430.87,-264.535 1437.87,-264.77"/>
</g>
<!-- Node19&#45;&gt;Node31 -->
<g id="edge58" class="edge"><title>Node19&#45;&gt;Node31</title>
<path fill="none" stroke="midnightblue" d="M1376.18,-302C1195.44,-290.868 637.548,-256.505 498.594,-247.946"/>
<polygon fill="midnightblue" stroke="midnightblue" points="498.439,-244.43 488.242,-247.308 498.008,-251.417 498.439,-244.43"/>
</g>
<!-- Node20&#45;&gt;Node5 -->
<g id="edge30" class="edge"><title>Node20&#45;&gt;Node5</title>
<path fill="none" stroke="midnightblue" d="M1537.73,-235.115C1541.05,-220.718 1549.74,-192.54 1569,-179 1614.39,-147.08 1768.14,-137.785 1859.05,-135.09"/>
<polygon fill="midnightblue" stroke="midnightblue" points="1859.37,-138.583 1869.27,-134.807 1859.18,-131.585 1859.37,-138.583"/>
</g>
<!-- Node20&#45;&gt;Node7 -->
<g id="edge29" class="edge"><title>Node20&#45;&gt;Node7</title>
<path fill="none" stroke="midnightblue" d="M1530.84,-235.313C1522.38,-221.694 1504.34,-195.205 1483,-179 1382.36,-102.56 1232.34,-80.7072 1143.52,-74.6315"/>
<polygon fill="midnightblue" stroke="midnightblue" points="1143.73,-71.1379 1133.53,-73.9971 1143.29,-78.1239 1143.73,-71.1379"/>
</g>
<!-- Node20&#45;&gt;Node12 -->
<g id="edge34" class="edge"><title>Node20&#45;&gt;Node12</title>
<path fill="none" stroke="midnightblue" d="M1473.96,-236.1C1470.59,-235.717 1467.26,-235.347 1464,-235 1282.99,-215.707 1233.43,-239.716 1056,-199 963.319,-177.731 948.077,-146.749 856,-123 739.791,-93.0269 597.226,-79.5246 534.377,-74.7094"/>
<polygon fill="midnightblue" stroke="midnightblue" points="534.522,-71.2106 524.29,-73.9594 534.003,-78.1913 534.522,-71.2106"/>
</g>
<!-- Node20&#45;&gt;Node17 -->
<g id="edge31" class="edge"><title>Node20&#45;&gt;Node17</title>
<path fill="none" stroke="midnightblue" d="M1598.2,-240.457C1766.3,-230.882 2229.15,-204.517 2410.11,-194.209"/>
<polygon fill="midnightblue" stroke="midnightblue" points="2410.54,-197.69 2420.33,-193.627 2410.14,-190.701 2410.54,-197.69"/>
</g>
<!-- Node20&#45;&gt;Node19 -->
<g id="edge36" class="edge"><title>Node20&#45;&gt;Node19</title>
<path fill="none" stroke="midnightblue" d="M1525.94,-254.658C1513.34,-262.971 1491.58,-275.81 1472.22,-286.506"/>
<polygon fill="midnightblue" stroke="midnightblue" points="1470.35,-283.539 1463.25,-291.399 1473.7,-289.684 1470.35,-283.539"/>
</g>
<!-- Node21 -->
<g id="node21" class="node"><title>Node21</title>
<polygon fill="white" stroke="#bfbfbf" points="1286,-123.5 1286,-142.5 1346,-142.5 1346,-123.5 1286,-123.5"/>
<text text-anchor="middle" x="1316" y="-130.5" font-family="Helvetica,sans-Serif" font-size="10.00">dmlc/io.h</text>
</g>
<!-- Node20&#45;&gt;Node21 -->
<g id="edge28" class="edge"><title>Node20&#45;&gt;Node21</title>
<path fill="none" stroke="midnightblue" d="M1527.18,-235.22C1512.93,-221.473 1483.45,-194.812 1454,-179 1422.86,-162.279 1384.41,-150.371 1356.01,-143.022"/>
<polygon fill="midnightblue" stroke="midnightblue" points="1356.59,-139.559 1346.04,-140.521 1354.89,-146.348 1356.59,-139.559"/>
</g>
<!-- Node20&#45;&gt;Node22 -->
<g id="edge32" class="edge"><title>Node20&#45;&gt;Node22</title>
<path fill="none" stroke="midnightblue" d="M1547.41,-235.324C1558.11,-227.185 1574.34,-214.839 1587.16,-205.087"/>
<polygon fill="midnightblue" stroke="midnightblue" points="1589.54,-207.673 1595.39,-198.834 1585.31,-202.102 1589.54,-207.673"/>
</g>
<!-- Node20&#45;&gt;Node23 -->
<g id="edge33" class="edge"><title>Node20&#45;&gt;Node23</title>
<path fill="none" stroke="midnightblue" d="M1517.94,-235.444C1499.43,-226.675 1470.42,-212.935 1449.14,-202.858"/>
<polygon fill="midnightblue" stroke="midnightblue" points="1450.51,-199.634 1439.98,-198.516 1447.52,-205.96 1450.51,-199.634"/>
</g>
<!-- Node20&#45;&gt;Node24 -->
<g id="edge35" class="edge"><title>Node20&#45;&gt;Node24</title>
<path fill="none" stroke="midnightblue" d="M1473.98,-235.982C1470.6,-235.629 1467.26,-235.298 1464,-235 1196.75,-210.545 876.226,-196.865 748.046,-192.027"/>
<polygon fill="midnightblue" stroke="midnightblue" points="747.821,-188.516 737.697,-191.64 747.559,-195.511 747.821,-188.516"/>
</g>
<!-- Node25&#45;&gt;Node5 -->
<g id="edge39" class="edge"><title>Node25&#45;&gt;Node5</title>
<path fill="none" stroke="midnightblue" d="M1129.5,-236.094C1178.49,-228.933 1248.49,-216.763 1308,-199 1330.15,-192.39 1333.53,-184.418 1356,-179 1449.69,-156.404 1728.57,-142.256 1859.14,-136.696"/>
<polygon fill="midnightblue" stroke="midnightblue" points="1859.57,-140.181 1869.41,-136.263 1859.27,-133.187 1859.57,-140.181"/>
</g>
<!-- Node25&#45;&gt;Node7 -->
<g id="edge38" class="edge"><title>Node25&#45;&gt;Node7</title>
<path fill="none" stroke="midnightblue" d="M1068.1,-235.26C1068.4,-209.974 1069.26,-136.079 1069.71,-97.149"/>
<polygon fill="midnightblue" stroke="midnightblue" points="1073.22,-96.7629 1069.83,-86.7228 1066.22,-96.6812 1073.22,-96.7629"/>
</g>
<!-- Node25&#45;&gt;Node13 -->
<g id="edge47" class="edge"><title>Node25&#45;&gt;Node13</title>
<path fill="none" stroke="midnightblue" d="M1129.86,-239.829C1235.4,-232.564 1457.01,-216.665 1644,-199 2084.95,-157.343 2620.17,-92.6817 2753.7,-76.348"/>
<polygon fill="midnightblue" stroke="midnightblue" points="2754.15,-79.8186 2763.65,-75.1287 2753.3,-72.8705 2754.15,-79.8186"/>
</g>
<!-- Node25&#45;&gt;Node14 -->
<g id="edge45" class="edge"><title>Node25&#45;&gt;Node14</title>
<path fill="none" stroke="midnightblue" d="M1129.81,-236.041C1171.8,-229.323 1228.03,-217.732 1275,-199 1290.93,-192.647 1292.51,-186.351 1308,-179 1400.37,-135.176 1515.89,-99.0773 1572.88,-82.422"/>
<polygon fill="midnightblue" stroke="midnightblue" points="1574.19,-85.6865 1582.82,-79.5409 1572.24,-78.9632 1574.19,-85.6865"/>
</g>
<!-- Node25&#45;&gt;Node23 -->
<g id="edge46" class="edge"><title>Node25&#45;&gt;Node23</title>
<path fill="none" stroke="midnightblue" d="M1124.09,-235.444C1198.39,-224.109 1327.15,-204.469 1388.12,-195.169"/>
<polygon fill="midnightblue" stroke="midnightblue" points="1388.98,-198.577 1398.34,-193.609 1387.93,-191.657 1388.98,-198.577"/>
</g>
<!-- Node26 -->
<g id="node26" class="node"><title>Node26</title>
<g id="a_node26"><a xlink:href="serializer_8h.html" target="_top" xlink:title="Serializer extension to support TVM data types Include this file to enable serialization of DLDataTyp...">
<polygon fill="white" stroke="black" points="1136,-179.5 1136,-198.5 1266,-198.5 1266,-179.5 1136,-179.5"/>
<text text-anchor="middle" x="1201" y="-186.5" font-family="Helvetica,sans-Serif" font-size="10.00">tvm/runtime/serializer.h</text>
</a>
</g>
</g>
<!-- Node25&#45;&gt;Node26 -->
<g id="edge40" class="edge"><title>Node25&#45;&gt;Node26</title>
<path fill="none" stroke="midnightblue" d="M1083.99,-235.444C1104.1,-226.478 1138.77,-212.314 1165.24,-202.183"/>
<polygon fill="midnightblue" stroke="midnightblue" points="1166.83,-205.326 1174.94,-198.516 1164.35,-198.778 1166.83,-205.326"/>
</g>
<!-- Node26&#45;&gt;Node7 -->
<g id="edge43" class="edge"><title>Node26&#45;&gt;Node7</title>
<path fill="none" stroke="midnightblue" d="M1191.15,-179.319C1170.59,-161.192 1122.61,-118.885 1093.58,-93.2879"/>
<polygon fill="midnightblue" stroke="midnightblue" points="1095.75,-90.5334 1085.93,-86.5453 1091.12,-95.784 1095.75,-90.5334"/>
</g>
<!-- Node26&#45;&gt;Node21 -->
<g id="edge41" class="edge"><title>Node26&#45;&gt;Node21</title>
<path fill="none" stroke="midnightblue" d="M1219.22,-179.444C1237.9,-170.675 1267.16,-156.935 1288.62,-146.858"/>
<polygon fill="midnightblue" stroke="midnightblue" points="1290.3,-149.935 1297.86,-142.516 1287.32,-143.599 1290.3,-149.935"/>
</g>
<!-- Node26&#45;&gt;Node25 -->
<g id="edge44" class="edge"><title>Node26&#45;&gt;Node25</title>
<path fill="none" stroke="midnightblue" d="M1185.1,-198.516C1164.94,-207.506 1130.07,-221.754 1103.52,-231.906"/>
<polygon fill="midnightblue" stroke="midnightblue" points="1102.28,-228.634 1094.16,-235.444 1104.75,-235.182 1102.28,-228.634"/>
</g>
<!-- Node27 -->
<g id="node27" class="node"><title>Node27</title>
<polygon fill="white" stroke="#bfbfbf" points="1174,-123.5 1174,-142.5 1268,-142.5 1268,-123.5 1174,-123.5"/>
<text text-anchor="middle" x="1221" y="-130.5" font-family="Helvetica,sans-Serif" font-size="10.00">dmlc/serializer.h</text>
</g>
<!-- Node26&#45;&gt;Node27 -->
<g id="edge42" class="edge"><title>Node26&#45;&gt;Node27</title>
<path fill="none" stroke="midnightblue" d="M1204.3,-179.083C1206.98,-171.849 1210.85,-161.409 1214.19,-152.397"/>
<polygon fill="midnightblue" stroke="midnightblue" points="1217.57,-153.344 1217.76,-142.751 1211,-150.913 1217.57,-153.344"/>
</g>
<!-- Node28&#45;&gt;Node6 -->
<g id="edge50" class="edge"><title>Node28&#45;&gt;Node6</title>
<path fill="none" stroke="midnightblue" d="M1869.83,-235.214C1860.62,-214.437 1840.81,-161.162 1860,-123 1868.18,-106.728 1884.37,-94.3793 1898.89,-85.9673"/>
<polygon fill="midnightblue" stroke="midnightblue" points="1900.96,-88.8314 1908.1,-81.0062 1897.64,-82.6693 1900.96,-88.8314"/>
</g>
<!-- Node28&#45;&gt;Node7 -->
<g id="edge49" class="edge"><title>Node28&#45;&gt;Node7</title>
<path fill="none" stroke="midnightblue" d="M1805.74,-241.794C1626.57,-235.75 1154.69,-218.099 1127,-199 1109.29,-186.782 1088.53,-130.003 1077.61,-96.8133"/>
<polygon fill="midnightblue" stroke="midnightblue" points="1080.83,-95.3932 1074.43,-86.9526 1074.17,-97.5443 1080.83,-95.3932"/>
</g>
<!-- Node28&#45;&gt;Node11 -->
<g id="edge51" class="edge"><title>Node28&#45;&gt;Node11</title>
<path fill="none" stroke="midnightblue" d="M1903.73,-235.43C1973.6,-215.335 2153.8,-163.797 2305,-123 2356.87,-109.004 2416.71,-93.6198 2456.27,-83.5538"/>
<polygon fill="midnightblue" stroke="midnightblue" points="2457.3,-86.9053 2466.13,-81.0504 2455.57,-80.1209 2457.3,-86.9053"/>
</g>
<!-- Node28&#45;&gt;Node12 -->
<g id="edge52" class="edge"><title>Node28&#45;&gt;Node12</title>
<path fill="none" stroke="midnightblue" d="M1805.76,-241.129C1630.8,-233.606 1175.22,-212.941 1108,-199 1011.63,-179.013 995.642,-146.229 900,-123 766.689,-90.6219 602.915,-78.1726 534.468,-74.1526"/>
<polygon fill="midnightblue" stroke="midnightblue" points="534.502,-70.649 524.32,-73.578 534.106,-77.6378 534.502,-70.649"/>
</g>
<!-- Node34&#45;&gt;Node5 -->
<g id="edge72" class="edge"><title>Node34&#45;&gt;Node5</title>
<path fill="none" stroke="midnightblue" d="M1391.39,-537.5C1417.09,-497.23 1528.05,-326.137 1580,-291 1626.48,-259.567 1649.09,-276.303 1701,-255 1779.03,-222.976 1865.47,-172.348 1905.45,-147.995"/>
<polygon fill="midnightblue" stroke="midnightblue" points="1907.44,-150.878 1914.14,-142.667 1903.78,-144.91 1907.44,-150.878"/>
</g>
<!-- Node34&#45;&gt;Node7 -->
<g id="edge71" class="edge"><title>Node34&#45;&gt;Node7</title>
<path fill="none" stroke="midnightblue" d="M1357.88,-537.479C1331.44,-529.169 1290.97,-515.667 1257,-501 1130.53,-446.394 1106.2,-417.591 982,-358 973.68,-354.008 838.728,-293.998 830,-291 768.017,-269.707 727.291,-306.691 687,-255 681.535,-247.989 682.093,-242.412 687,-235 692.022,-227.413 926.513,-131.058 1026.06,-90.404"/>
<polygon fill="midnightblue" stroke="midnightblue" points="1027.6,-93.5532 1035.54,-86.5334 1024.96,-87.0724 1027.6,-93.5532"/>
</g>
<!-- Node34&#45;&gt;Node11 -->
<g id="edge105" class="edge"><title>Node34&#45;&gt;Node11</title>
<path fill="none" stroke="midnightblue" d="M1445.68,-543.985C1588.73,-538.842 1947.98,-523.995 2066,-501 2159.26,-482.829 2181.62,-471.295 2269,-434 2366.65,-392.324 2425.29,-412.986 2480,-322 2487.1,-310.193 2484.36,-304.071 2480,-291 2463.84,-242.512 2427.16,-247.488 2411,-199 2408.19,-190.567 2410.68,-187.883 2411,-179 2411.89,-154.064 2401.89,-144.233 2415,-123 2425.88,-105.376 2445.38,-93.1474 2462.97,-85.1428"/>
<polygon fill="midnightblue" stroke="midnightblue" points="2464.63,-88.2419 2472.47,-81.1229 2461.9,-81.7948 2464.63,-88.2419"/>
</g>
<!-- Node34&#45;&gt;Node12 -->
<g id="edge104" class="edge"><title>Node34&#45;&gt;Node12</title>
<path fill="none" stroke="midnightblue" d="M1326.22,-537.454C1285.94,-530.502 1232.12,-518.871 1187,-501 1128.75,-477.926 1001.24,-383.485 944,-358 895.461,-336.388 879.671,-340.865 830,-322 795.871,-309.038 711.817,-272.901 680,-255 641.857,-233.539 631.041,-228.813 599,-199 575.625,-177.25 573.48,-168.298 554,-143 540.146,-125.01 524.766,-104.025 514.351,-89.6573"/>
<polygon fill="midnightblue" stroke="midnightblue" points="516.983,-87.3248 508.29,-81.2692 511.31,-91.4246 516.983,-87.3248"/>
</g>
<!-- Node34&#45;&gt;Node17 -->
<g id="edge73" class="edge"><title>Node34&#45;&gt;Node17</title>
<path fill="none" stroke="midnightblue" d="M1445.76,-546.048C1620.81,-545.714 2130.18,-541.214 2291,-501 2322.1,-493.223 2527.64,-398.836 2552,-378 2574.86,-358.451 2581.17,-350.752 2590,-322 2605.73,-270.806 2545.36,-225.614 2509.26,-203.817"/>
<polygon fill="midnightblue" stroke="midnightblue" points="2510.63,-200.566 2500.23,-198.546 2507.1,-206.611 2510.63,-200.566"/>
</g>
<!-- Node34&#45;&gt;Node19 -->
<g id="edge74" class="edge"><title>Node34&#45;&gt;Node19</title>
<path fill="none" stroke="midnightblue" d="M1387.47,-537.333C1391.09,-516.204 1400.78,-460.376 1410,-414 1415.65,-385.591 1422.77,-353.063 1427.58,-331.508"/>
<polygon fill="midnightblue" stroke="midnightblue" points="1431.03,-332.119 1429.8,-321.596 1424.2,-330.588 1431.03,-332.119"/>
</g>
<!-- Node34&#45;&gt;Node23 -->
<g id="edge103" class="edge"><title>Node34&#45;&gt;Node23</title>
<path fill="none" stroke="midnightblue" d="M1375.75,-537.469C1355.01,-519.179 1310,-473.87 1310,-425 1310,-425 1310,-425 1310,-305.5 1310,-257.325 1360.84,-221.637 1394.01,-203.478"/>
<polygon fill="midnightblue" stroke="midnightblue" points="1396.03,-206.37 1403.25,-198.617 1392.77,-200.174 1396.03,-206.37"/>
</g>
<!-- Node34&#45;&gt;Node25 -->
<g id="edge75" class="edge"><title>Node34&#45;&gt;Node25</title>
<path fill="none" stroke="midnightblue" d="M1363.2,-537.426C1344.14,-529.624 1316.82,-516.909 1296,-501 1198.84,-426.765 1110.49,-306.994 1079.62,-262.952"/>
<polygon fill="midnightblue" stroke="midnightblue" points="1082.35,-260.747 1073.77,-254.528 1076.6,-264.739 1082.35,-260.747"/>
</g>
<!-- Node34&#45;&gt;Node28 -->
<g id="edge76" class="edge"><title>Node34&#45;&gt;Node28</title>
<path fill="none" stroke="midnightblue" d="M1395.98,-537.383C1406.45,-528.333 1423.4,-513.681 1438,-501 1545.27,-407.85 1552.45,-355.568 1679,-291 1715.07,-272.598 1758.71,-261.624 1795.55,-255.13"/>
<polygon fill="midnightblue" stroke="midnightblue" points="1796.47,-258.524 1805.75,-253.414 1795.31,-251.621 1796.47,-258.524"/>
</g>
<!-- Node34&#45;&gt;Node35 -->
<g id="edge77" class="edge"><title>Node34&#45;&gt;Node35</title>
<path fill="none" stroke="midnightblue" d="M1445.62,-540.241C1561.37,-529.061 1815.67,-504.498 1936.17,-492.858"/>
<polygon fill="midnightblue" stroke="midnightblue" points="1936.74,-496.319 1946.36,-491.874 1936.07,-489.352 1936.74,-496.319"/>
</g>
<!-- Node34&#45;&gt;Node38 -->
<g id="edge97" class="edge"><title>Node34&#45;&gt;Node38</title>
<path fill="none" stroke="midnightblue" d="M1416.52,-537.475C1448.4,-528.569 1499.23,-514.369 1539.16,-503.215"/>
<polygon fill="midnightblue" stroke="midnightblue" points="1540.11,-506.584 1548.8,-500.523 1538.23,-499.843 1540.11,-506.584"/>
</g>
<!-- Node35&#45;&gt;Node12 -->
<g id="edge96" class="edge"><title>Node35&#45;&gt;Node12</title>
<path fill="none" stroke="midnightblue" d="M1946.35,-474.237C1823.12,-451.679 1517.81,-396.715 1261,-358 1139.11,-339.625 1100.33,-368.065 986,-322 964.48,-313.33 963.782,-303.122 944,-291 913.494,-272.308 903.342,-272.253 872,-255 814.708,-223.463 804.094,-209.034 746,-179 671.829,-140.654 580.834,-103.394 533.695,-84.7818"/>
<polygon fill="midnightblue" stroke="midnightblue" points="534.91,-81.499 524.323,-81.0996 532.35,-88.0142 534.91,-81.499"/>
</g>
<!-- Node35&#45;&gt;Node28 -->
<g id="edge78" class="edge"><title>Node35&#45;&gt;Node28</title>
<path fill="none" stroke="midnightblue" d="M1994.38,-470.295C1972.26,-429.087 1908.11,-309.548 1883.64,-263.955"/>
<polygon fill="midnightblue" stroke="midnightblue" points="1886.61,-262.102 1878.8,-254.946 1880.45,-265.412 1886.61,-262.102"/>
</g>
<!-- Node36 -->
<g id="node36" class="node"><title>Node36</title>
<g id="a_node36"><a xlink:href="functor_8h.html" target="_top" xlink:title="Defines the Functor data structures. ">
<polygon fill="white" stroke="black" points="2150.5,-235.5 2150.5,-254.5 2257.5,-254.5 2257.5,-235.5 2150.5,-235.5"/>
<text text-anchor="middle" x="2204" y="-242.5" font-family="Helvetica,sans-Serif" font-size="10.00">tvm/node/functor.h</text>
</a>
</g>
</g>
<!-- Node35&#45;&gt;Node36 -->
<g id="edge79" class="edge"><title>Node35&#45;&gt;Node36</title>
<path fill="none" stroke="midnightblue" d="M2008.08,-470.217C2026.24,-427.774 2079.71,-304.516 2094,-291 2110.82,-275.087 2134.03,-264.478 2154.8,-257.58"/>
<polygon fill="midnightblue" stroke="midnightblue" points="2155.94,-260.891 2164.45,-254.576 2153.86,-254.207 2155.94,-260.891"/>
</g>
<!-- Node35&#45;&gt;Node37 -->
<g id="edge85" class="edge"><title>Node35&#45;&gt;Node37</title>
<path fill="none" stroke="midnightblue" d="M2048.91,-470.475C2083.69,-460.075 2130.5,-446.078 2162.97,-436.372"/>
<polygon fill="midnightblue" stroke="midnightblue" points="2163.97,-439.724 2172.55,-433.506 2161.97,-433.018 2163.97,-439.724"/>
</g>
<!-- Node36&#45;&gt;Node5 -->
<g id="edge81" class="edge"><title>Node36&#45;&gt;Node5</title>
<path fill="none" stroke="midnightblue" d="M2187.04,-235.348C2160.98,-222.236 2109.34,-196.959 2064,-179 2031.67,-166.195 1994.08,-153.953 1966.63,-145.479"/>
<polygon fill="midnightblue" stroke="midnightblue" points="1967.59,-142.112 1957,-142.534 1965.54,-148.806 1967.59,-142.112"/>
</g>
<!-- Node36&#45;&gt;Node6 -->
<g id="edge80" class="edge"><title>Node36&#45;&gt;Node6</title>
<path fill="none" stroke="midnightblue" d="M2190.52,-235.3C2171.05,-222.757 2133.88,-198.912 2102,-179 2048.18,-145.386 1984.47,-106.661 1951.07,-86.4408"/>
<polygon fill="midnightblue" stroke="midnightblue" points="1952.86,-83.43 1942.49,-81.2481 1949.24,-89.4192 1952.86,-83.43"/>
</g>
<!-- Node36&#45;&gt;Node11 -->
<g id="edge83" class="edge"><title>Node36&#45;&gt;Node11</title>
<path fill="none" stroke="midnightblue" d="M2210.87,-235.456C2221.5,-222.484 2242.95,-197.389 2264,-179 2296.68,-150.446 2305.15,-142.342 2344,-123 2379.99,-105.085 2423.74,-91.5678 2455.74,-83.0482"/>
<polygon fill="midnightblue" stroke="midnightblue" points="2456.9,-86.364 2465.69,-80.4584 2455.14,-79.5896 2456.9,-86.364"/>
</g>
<!-- Node36&#45;&gt;Node13 -->
<g id="edge84" class="edge"><title>Node36&#45;&gt;Node13</title>
<path fill="none" stroke="midnightblue" d="M2215.14,-235.494C2245.37,-212.898 2332.25,-151.173 2415,-123 2535.38,-82.013 2688.51,-74.1879 2753.53,-72.7693"/>
<polygon fill="midnightblue" stroke="midnightblue" points="2753.97,-76.262 2763.9,-72.5822 2753.84,-69.2631 2753.97,-76.262"/>
</g>
<!-- Node36&#45;&gt;Node23 -->
<g id="edge82" class="edge"><title>Node36&#45;&gt;Node23</title>
<path fill="none" stroke="midnightblue" d="M2150.25,-240.288C2000.02,-229.914 1578.73,-200.823 1455.97,-192.346"/>
<polygon fill="midnightblue" stroke="midnightblue" points="1455.9,-188.833 1445.69,-191.636 1455.42,-195.816 1455.9,-188.833"/>
</g>
<!-- Node37&#45;&gt;Node5 -->
<g id="edge86" class="edge"><title>Node37&#45;&gt;Node5</title>
<path fill="none" stroke="midnightblue" d="M2168.9,-414.445C2150.09,-407.706 2127.62,-396.314 2115,-378 2078.68,-325.304 2129.47,-290.732 2098,-235 2078.07,-199.7 2060.65,-200.043 2026,-179 2004.92,-166.198 1979.58,-154.654 1959.95,-146.465"/>
<polygon fill="midnightblue" stroke="midnightblue" points="1961.12,-143.161 1950.54,-142.611 1958.47,-149.639 1961.12,-143.161"/>
</g>
<!-- Node37&#45;&gt;Node11 -->
<g id="edge90" class="edge"><title>Node37&#45;&gt;Node11</title>
<path fill="none" stroke="midnightblue" d="M2260.54,-421.435C2311.51,-417.939 2385.55,-407.609 2443,-378 2474.85,-361.585 2478.77,-350.102 2501,-322 2545.27,-266.036 2581.52,-249.961 2574,-179 2571.32,-153.688 2575.29,-144.711 2562,-123 2552.81,-107.991 2537.53,-95.465 2524.43,-86.6423"/>
<polygon fill="midnightblue" stroke="midnightblue" points="2526.13,-83.5734 2515.82,-81.141 2522.36,-89.4731 2526.13,-83.5734"/>
</g>
<!-- Node37&#45;&gt;Node12 -->
<g id="edge95" class="edge"><title>Node37&#45;&gt;Node12</title>
<path fill="none" stroke="midnightblue" d="M2141.22,-417.813C2047.26,-409.62 1859.32,-393.064 1700,-378 1637.3,-372.072 1197.82,-334.005 1136,-322 1031.9,-301.785 1001.08,-303.94 907,-255 823.687,-211.659 826.925,-163.092 742,-123 672.554,-90.2158 581.835,-78.5602 534.288,-74.5346"/>
<polygon fill="midnightblue" stroke="midnightblue" points="534.512,-71.0415 524.269,-73.7463 533.963,-78.0199 534.512,-71.0415"/>
</g>
<!-- Node37&#45;&gt;Node13 -->
<g id="edge94" class="edge"><title>Node37&#45;&gt;Node13</title>
<path fill="none" stroke="midnightblue" d="M2260.73,-422.661C2317.67,-420.182 2404.49,-410.668 2472,-378 2617.72,-307.481 2737.82,-142.534 2773.9,-89.3496"/>
<polygon fill="midnightblue" stroke="midnightblue" points="2776.82,-91.2792 2779.48,-81.0232 2771,-87.3831 2776.82,-91.2792"/>
</g>
<!-- Node37&#45;&gt;Node16 -->
<g id="edge89" class="edge"><title>Node37&#45;&gt;Node16</title>
<path fill="none" stroke="midnightblue" d="M2201.17,-414.083C2201.3,-407.006 2201.48,-396.861 2201.65,-387.986"/>
<polygon fill="midnightblue" stroke="midnightblue" points="2205.15,-387.814 2201.84,-377.751 2198.15,-387.685 2205.15,-387.814"/>
</g>
<!-- Node37&#45;&gt;Node17 -->
<g id="edge87" class="edge"><title>Node37&#45;&gt;Node17</title>
<path fill="none" stroke="midnightblue" d="M2260.79,-420.15C2326.63,-413.458 2429.81,-391.709 2480,-322 2504.26,-288.313 2496.2,-236.25 2489.41,-208.654"/>
<polygon fill="midnightblue" stroke="midnightblue" points="2492.73,-207.509 2486.76,-198.753 2485.96,-209.318 2492.73,-207.509"/>
</g>
<!-- Node37&#45;&gt;Node19 -->
<g id="edge88" class="edge"><title>Node37&#45;&gt;Node19</title>
<path fill="none" stroke="midnightblue" d="M2146.86,-414.487C2066.73,-401.924 1911.83,-377.77 1780,-358 1682.45,-343.371 1569.38,-327.03 1499.51,-317.004"/>
<polygon fill="midnightblue" stroke="midnightblue" points="1499.91,-313.527 1489.52,-315.572 1498.92,-320.456 1499.91,-313.527"/>
</g>
<!-- Node37&#45;&gt;Node23 -->
<g id="edge91" class="edge"><title>Node37&#45;&gt;Node23</title>
<path fill="none" stroke="midnightblue" d="M2141.33,-419.466C2059.37,-413.968 1907.6,-401.47 1780,-378 1745.65,-371.681 1738.35,-364.317 1704,-358 1629.93,-344.378 1417.35,-378.013 1367,-322 1336.02,-287.531 1379.47,-233.137 1405.27,-206.209"/>
<polygon fill="midnightblue" stroke="midnightblue" points="1408.07,-208.358 1412.61,-198.786 1403.09,-203.437 1408.07,-208.358"/>
</g>
<!-- Node37&#45;&gt;Node24 -->
<g id="edge93" class="edge"><title>Node37&#45;&gt;Node24</title>
<path fill="none" stroke="midnightblue" d="M2141.28,-418.076C2047.91,-410.269 1861.71,-394.261 1704,-378 1339.17,-340.384 1242.54,-348.904 888,-255 829.196,-239.425 762.23,-216.107 723.471,-202.043"/>
<polygon fill="midnightblue" stroke="midnightblue" points="724.376,-198.647 713.782,-198.506 721.976,-205.223 724.376,-198.647"/>
</g>
<!-- Node37&#45;&gt;Node33 -->
<g id="edge92" class="edge"><title>Node37&#45;&gt;Node33</title>
<path fill="none" stroke="midnightblue" d="M2218.44,-414.319C2258.76,-394.245 2358.65,-344.515 2406.55,-320.667"/>
<polygon fill="midnightblue" stroke="midnightblue" points="2408.28,-323.714 2415.68,-316.124 2405.16,-317.448 2408.28,-323.714"/>
</g>
<!-- Node38&#45;&gt;Node12 -->
<g id="edge101" class="edge"><title>Node38&#45;&gt;Node12</title>
<path fill="none" stroke="midnightblue" d="M1543.45,-472.002C1389.98,-437.4 967.477,-341.612 906,-322 871.246,-310.913 864.663,-302.37 830,-291 767.726,-270.573 744.066,-287.23 687,-255 614.484,-214.044 613.429,-181.345 554,-123 542.096,-111.313 528.577,-98.1885 518.307,-88.249"/>
<polygon fill="midnightblue" stroke="midnightblue" points="520.483,-85.484 510.861,-81.0489 515.617,-90.5163 520.483,-85.484"/>
</g>
<!-- Node38&#45;&gt;Node28 -->
<g id="edge98" class="edge"><title>Node38&#45;&gt;Node28</title>
<path fill="none" stroke="midnightblue" d="M1603.31,-470.327C1614.93,-434.51 1650.44,-339.76 1714,-291 1737.55,-272.933 1768.01,-262.119 1796.02,-255.647"/>
<polygon fill="midnightblue" stroke="midnightblue" points="1796.78,-259.065 1805.82,-253.535 1795.3,-252.223 1796.78,-259.065"/>
</g>
<!-- Node38&#45;&gt;Node29 -->
<g id="edge102" class="edge"><title>Node38&#45;&gt;Node29</title>
<path fill="none" stroke="midnightblue" d="M1563.13,-470.49C1495.24,-444.503 1342.85,-388.694 1210,-358 1098.05,-332.135 1061.67,-362.107 954,-322 930.202,-313.135 929.285,-301.135 906,-291 881.733,-280.437 814.047,-264.643 769.485,-254.848"/>
<polygon fill="midnightblue" stroke="midnightblue" points="770.04,-251.387 759.524,-252.674 768.548,-258.226 770.04,-251.387"/>
</g>
<!-- Node38&#45;&gt;Node36 -->
<g id="edge99" class="edge"><title>Node38&#45;&gt;Node36</title>
<path fill="none" stroke="midnightblue" d="M1631.5,-470.485C1707.95,-437.69 1905.33,-353.964 2073,-291 2104.94,-279.006 2141.71,-266.485 2168.15,-257.705"/>
<polygon fill="midnightblue" stroke="midnightblue" points="2169.35,-260.994 2177.75,-254.532 2167.15,-254.348 2169.35,-260.994"/>
</g>
<!-- Node38&#45;&gt;Node37 -->
<g id="edge100" class="edge"><title>Node38&#45;&gt;Node37</title>
<path fill="none" stroke="midnightblue" d="M1654.56,-479.009C1764.58,-468.135 2009.97,-443.881 2130.9,-431.929"/>
<polygon fill="midnightblue" stroke="midnightblue" points="2131.54,-435.382 2141.15,-430.916 2130.85,-428.416 2131.54,-435.382"/>
</g>
<!-- Node39&#45;&gt;Node36 -->
<g id="edge107" class="edge"><title>Node39&#45;&gt;Node36</title>
<path fill="none" stroke="midnightblue" d="M2388.76,-537.481C2373.58,-513.584 2326.9,-445.602 2269,-414 2211.85,-382.808 2166.98,-429.385 2127,-378 2096.47,-338.765 2151.89,-286.245 2183.79,-260.91"/>
<polygon fill="midnightblue" stroke="midnightblue" points="2186.29,-263.398 2192.07,-254.518 2182.02,-257.856 2186.29,-263.398"/>
</g>
<!-- Node40 -->
<g id="node40" class="node"><title>Node40</title>
<polygon fill="white" stroke="#bfbfbf" points="2457.5,-476 2457.5,-495 2516.5,-495 2516.5,-476 2457.5,-476"/>
<text text-anchor="middle" x="2487" y="-483" font-family="Helvetica,sans-Serif" font-size="10.00">iostream</text>
</g>
<!-- Node39&#45;&gt;Node40 -->
<g id="edge108" class="edge"><title>Node39&#45;&gt;Node40</title>
<path fill="none" stroke="midnightblue" d="M2407.32,-537.475C2422.38,-527.843 2447.12,-512.017 2465.04,-500.552"/>
<polygon fill="midnightblue" stroke="midnightblue" points="2467.16,-503.347 2473.7,-495.009 2463.39,-497.45 2467.16,-503.347"/>
</g>
<!-- Node41&#45;&gt;Node5 -->
<g id="edge118" class="edge"><title>Node41&#45;&gt;Node5</title>
<path fill="none" stroke="midnightblue" d="M1261.97,-649.641C1189.5,-633.348 1044,-594.806 1044,-548 1044,-548 1044,-548 1044,-484.5 1044,-433.298 1340.8,-196.273 1389,-179 1473.69,-148.651 1733.57,-138.523 1858.94,-135.348"/>
<polygon fill="midnightblue" stroke="midnightblue" points="1859.27,-138.841 1869.18,-135.097 1859.1,-131.843 1859.27,-138.841"/>
</g>
<!-- Node41&#45;&gt;Node12 -->
<g id="edge120" class="edge"><title>Node41&#45;&gt;Node12</title>
<path fill="none" stroke="midnightblue" d="M1261.9,-656.391C1196.41,-652.973 1062.88,-642.688 954,-613 793.964,-569.364 304,-411.878 304,-246 304,-246 304,-246 304,-188 304,-157.205 305.463,-143.986 328,-123 367.243,-86.4578 431.379,-76.1897 469.853,-73.4075"/>
<polygon fill="midnightblue" stroke="midnightblue" points="470.208,-76.8927 479.983,-72.8056 469.793,-69.905 470.208,-76.8927"/>
</g>
<!-- Node41&#45;&gt;Node15 -->
<g id="edge119" class="edge"><title>Node41&#45;&gt;Node15</title>
<path fill="none" stroke="midnightblue" d="M1342.06,-654.962C1461.19,-645.927 1813.65,-619.195 1954.68,-608.499"/>
<polygon fill="midnightblue" stroke="midnightblue" points="1955.16,-611.973 1964.87,-607.726 1954.63,-604.993 1955.16,-611.973"/>
</g>
<!-- Node42&#45;&gt;Node5 -->
<g id="edge122" class="edge"><title>Node42&#45;&gt;Node5</title>
<path fill="none" stroke="midnightblue" d="M1732.61,-705.157C1750.19,-645.833 1850.81,-307.617 1866,-291 1893.68,-260.721 1928.34,-289.202 1951,-255 1972.16,-223.053 1952.42,-176.537 1938.68,-151.506"/>
<polygon fill="midnightblue" stroke="midnightblue" points="1941.66,-149.671 1933.63,-142.758 1935.6,-153.169 1941.66,-149.671"/>
</g>
<!-- Node42&#45;&gt;Node12 -->
<g id="edge127" class="edge"><title>Node42&#45;&gt;Node12</title>
<path fill="none" stroke="midnightblue" d="M1691.36,-707.056C1489.18,-669.844 556.586,-487.042 404,-255 365.056,-195.776 444.166,-119.569 482.635,-87.6345"/>
<polygon fill="midnightblue" stroke="midnightblue" points="485.037,-90.1932 490.598,-81.1749 480.627,-84.7571 485.037,-90.1932"/>
</g>
<!-- Node42&#45;&gt;Node15 -->
<g id="edge124" class="edge"><title>Node42&#45;&gt;Node15</title>
<path fill="none" stroke="midnightblue" d="M1752.29,-705.368C1802.47,-685.93 1924.48,-638.674 1982.43,-616.228"/>
<polygon fill="midnightblue" stroke="midnightblue" points="1983.76,-619.467 1991.82,-612.591 1981.23,-612.94 1983.76,-619.467"/>
</g>
<!-- Node42&#45;&gt;Node28 -->
<g id="edge123" class="edge"><title>Node42&#45;&gt;Node28</title>
<path fill="none" stroke="midnightblue" d="M1729.74,-705.443C1729.2,-686.939 1728,-641.819 1728,-604 1728,-604 1728,-604 1728,-367 1728,-310.226 1794.26,-275.033 1837.5,-258.109"/>
<polygon fill="midnightblue" stroke="midnightblue" points="1838.75,-261.378 1846.88,-254.581 1836.29,-254.826 1838.75,-261.378"/>
</g>
<!-- Node42&#45;&gt;Node37 -->
<g id="edge125" class="edge"><title>Node42&#45;&gt;Node37</title>
<path fill="none" stroke="midnightblue" d="M1768.54,-709.242C1834.78,-699.684 1972.65,-673.639 2072,-613 2130.5,-577.293 2143.88,-560.439 2178,-501 2188.27,-483.106 2194.39,-460.157 2197.71,-444.181"/>
<polygon fill="midnightblue" stroke="midnightblue" points="2201.22,-444.428 2199.64,-433.952 2194.35,-443.126 2201.22,-444.428"/>
</g>
<!-- Node42&#45;&gt;Node41 -->
<g id="edge126" class="edge"><title>Node42&#45;&gt;Node41</title>
<path fill="none" stroke="midnightblue" d="M1691.43,-709.943C1623.51,-702.67 1478.19,-686.524 1356,-669 1354.73,-668.818 1353.44,-668.63 1352.15,-668.437"/>
<polygon fill="midnightblue" stroke="midnightblue" points="1352.49,-664.949 1342.07,-666.887 1351.42,-671.867 1352.49,-664.949"/>
</g>
<!-- Node44&#45;&gt;Node12 -->
<g id="edge167" class="edge"><title>Node44&#45;&gt;Node12</title>
<path fill="none" stroke="midnightblue" d="M155.128,-985.398C110.253,-971.997 38,-941.493 38,-884 38,-884 38,-884 38,-188 38,-150.157 59.7118,-141 93,-123 158.106,-87.7954 385.132,-76.5095 469.821,-73.4753"/>
<polygon fill="midnightblue" stroke="midnightblue" points="470.008,-76.9711 479.882,-73.1301 469.768,-69.9752 470.008,-76.9711"/>
</g>
<!-- Node44&#45;&gt;Node15 -->
<g id="edge166" class="edge"><title>Node44&#45;&gt;Node15</title>
<path fill="none" stroke="midnightblue" d="M238.74,-993.901C576.225,-992.986 2554.64,-983.75 2640,-893 2815.47,-706.447 2260.38,-629.856 2073.31,-609.73"/>
<polygon fill="midnightblue" stroke="midnightblue" points="2073.42,-606.221 2063.1,-608.648 2072.68,-613.182 2073.42,-606.221"/>
</g>
<!-- Node44&#45;&gt;Node23 -->
<g id="edge168" class="edge"><title>Node44&#45;&gt;Node23</title>
<path fill="none" stroke="midnightblue" d="M195.222,-985.473C212.022,-958.491 267.144,-873.435 328,-817 685.433,-485.536 1248.78,-256.314 1389.39,-202.256"/>
<polygon fill="midnightblue" stroke="midnightblue" points="1391.05,-205.369 1399.14,-198.528 1388.55,-198.83 1391.05,-205.369"/>
</g>
<!-- Node44&#45;&gt;Node41 -->
<g id="edge142" class="edge"><title>Node44&#45;&gt;Node41</title>
<path fill="none" stroke="midnightblue" d="M184.716,-985.231C174.275,-967.043 152,-923.601 152,-884 152,-884 152,-884 152,-826 152,-713.187 1030.11,-670.779 1251.7,-661.873"/>
<polygon fill="midnightblue" stroke="midnightblue" points="1251.89,-665.368 1261.75,-661.474 1251.61,-658.374 1251.89,-665.368"/>
</g>
<!-- Node45 -->
<g id="node45" class="node"><title>Node45</title>
<g id="a_node45"><a xlink:href="tir_2expr_8h.html" target="_top" xlink:title="TIR expressions. ">
<polygon fill="white" stroke="black" points="1637,-929.5 1637,-948.5 1717,-948.5 1717,-929.5 1637,-929.5"/>
<text text-anchor="middle" x="1677" y="-936.5" font-family="Helvetica,sans-Serif" font-size="10.00">tvm/tir/expr.h</text>
</a>
</g>
</g>
<!-- Node44&#45;&gt;Node45 -->
<g id="edge143" class="edge"><title>Node44&#45;&gt;Node45</title>
<path fill="none" stroke="midnightblue" d="M238.63,-992.234C463.185,-984.079 1398.56,-950.111 1626.67,-941.828"/>
<polygon fill="midnightblue" stroke="midnightblue" points="1627.13,-945.314 1636.99,-941.453 1626.87,-938.318 1627.13,-945.314"/>
</g>
<!-- Node45&#45;&gt;Node4 -->
<g id="edge149" class="edge"><title>Node45&#45;&gt;Node4</title>
<path fill="none" stroke="midnightblue" d="M1693,-929.295C1705.37,-921.574 1721.59,-909.04 1729,-893 1744.44,-859.594 1739.22,-815.251 1734.38,-790.579"/>
<polygon fill="midnightblue" stroke="midnightblue" points="1737.79,-789.777 1732.26,-780.738 1730.94,-791.251 1737.79,-789.777"/>
</g>
<!-- Node45&#45;&gt;Node7 -->
<g id="edge147" class="edge"><title>Node45&#45;&gt;Node7</title>
<path fill="none" stroke="midnightblue" d="M1636.68,-936.842C1413.75,-930.179 342,-894.678 342,-828 342,-828 342,-828 342,-770 342,-697.289 312.934,-683.712 296,-613 271.253,-509.663 261.82,-483.805 252,-378 246.127,-314.716 213.049,-285.221 252,-235 342.954,-117.729 812.78,-84.0717 996.368,-75.3156"/>
<polygon fill="midnightblue" stroke="midnightblue" points="996.643,-78.8067 1006.47,-74.8453 996.317,-71.8142 996.643,-78.8067"/>
</g>
<!-- Node45&#45;&gt;Node12 -->
<g id="edge160" class="edge"><title>Node45&#45;&gt;Node12</title>
<path fill="none" stroke="midnightblue" d="M1636.75,-937.529C1415.14,-934.832 351.44,-920.489 288,-893 114.516,-817.827 76,-610.09 76,-425 76,-425 76,-425 76,-188 76,-151.28 95.1281,-141.235 127,-123 185.27,-89.6615 389.528,-77.3673 469.523,-73.765"/>
<polygon fill="midnightblue" stroke="midnightblue" points="470.118,-77.2426 479.957,-73.3131 469.815,-70.2492 470.118,-77.2426"/>
</g>
<!-- Node45&#45;&gt;Node13 -->
<g id="edge165" class="edge"><title>Node45&#45;&gt;Node13</title>
<path fill="none" stroke="midnightblue" d="M1717.08,-938.309C1872.5,-939.161 2435.33,-938.939 2607,-893 2837.02,-831.446 2956,-724.617 2956,-486.5 2956,-486.5 2956,-486.5 2956,-188 2956,-121.275 2865.49,-90.5042 2816.16,-78.69"/>
<polygon fill="midnightblue" stroke="midnightblue" points="2816.84,-75.2542 2806.31,-76.4506 2815.29,-82.0801 2816.84,-75.2542"/>
</g>
<!-- Node45&#45;&gt;Node15 -->
<g id="edge144" class="edge"><title>Node45&#45;&gt;Node15</title>
<path fill="none" stroke="midnightblue" d="M1717.01,-938.772C1846.53,-940.213 2246,-935.908 2246,-828 2246,-828 2246,-828 2246,-770 2246,-739.902 2246.53,-727.899 2227,-705 2184.72,-655.436 2112.67,-628.46 2064.22,-615.144"/>
<polygon fill="midnightblue" stroke="midnightblue" points="2064.82,-611.683 2054.25,-612.507 2063.03,-618.45 2064.82,-611.683"/>
</g>
<!-- Node45&#45;&gt;Node24 -->
<g id="edge162" class="edge"><title>Node45&#45;&gt;Node24</title>
<path fill="none" stroke="midnightblue" d="M1636.9,-935.795C1433.75,-924.25 524.379,-867.966 437,-781 398.416,-742.599 418,-714.437 418,-660 418,-660 418,-660 418,-602 418,-521.541 456,-505.459 456,-425 456,-425 456,-425 456,-367 456,-307.729 398.92,-280.42 437,-235 461.665,-205.581 567.219,-195.383 634.252,-191.856"/>
<polygon fill="midnightblue" stroke="midnightblue" points="634.439,-195.352 644.255,-191.364 634.095,-188.36 634.439,-195.352"/>
</g>
<!-- Node45&#45;&gt;Node28 -->
<g id="edge148" class="edge"><title>Node45&#45;&gt;Node28</title>
<path fill="none" stroke="midnightblue" d="M1636.94,-936.683C1509.23,-930.154 1120,-891.284 1120,-660 1120,-660 1120,-660 1120,-484.5 1120,-301.634 1330.02,-394.269 1498,-322 1530,-308.231 1536.49,-300.52 1570,-291 1645.11,-269.664 1733.7,-258.016 1795.8,-251.952"/>
<polygon fill="midnightblue" stroke="midnightblue" points="1796.3,-255.421 1805.92,-250.99 1795.64,-248.452 1796.3,-255.421"/>
</g>
<!-- Node45&#45;&gt;Node31 -->
<g id="edge164" class="edge"><title>Node45&#45;&gt;Node31</title>
<path fill="none" stroke="midnightblue" d="M1636.8,-937.587C1419.02,-935.235 388.169,-922.567 328,-893 265.385,-862.231 228,-841.766 228,-772 228,-772 228,-772 228,-546 228,-408.836 382.728,-298.18 443.193,-260.174"/>
<polygon fill="midnightblue" stroke="midnightblue" points="445.38,-262.937 452.049,-254.705 441.702,-256.981 445.38,-262.937"/>
</g>
<!-- Node45&#45;&gt;Node36 -->
<g id="edge146" class="edge"><title>Node45&#45;&gt;Node36</title>
<path fill="none" stroke="midnightblue" d="M1717.18,-937.984C1906.69,-937.392 2702,-928.896 2702,-828 2702,-828 2702,-828 2702,-714 2702,-501.682 2652.24,-415.15 2480,-291 2446.92,-267.155 2338.41,-255.227 2267.71,-249.844"/>
<polygon fill="midnightblue" stroke="midnightblue" points="2267.79,-246.341 2257.56,-249.097 2267.28,-253.322 2267.79,-246.341"/>
</g>
<!-- Node45&#45;&gt;Node37 -->
<g id="edge145" class="edge"><title>Node45&#45;&gt;Node37</title>
<path fill="none" stroke="midnightblue" d="M1717.28,-937.208C1846.01,-934.391 2246.39,-923.354 2372,-893 2509.26,-859.831 2588,-801.208 2588,-660 2588,-660 2588,-660 2588,-546 2588,-502.126 2563.33,-491.354 2525,-470 2482.62,-446.385 2352.46,-434.246 2270.59,-428.785"/>
<polygon fill="midnightblue" stroke="midnightblue" points="2270.82,-425.292 2260.61,-428.136 2270.36,-432.277 2270.82,-425.292"/>
</g>
<!-- Node45&#45;&gt;Node40 -->
<g id="edge163" class="edge"><title>Node45&#45;&gt;Node40</title>
<path fill="none" stroke="midnightblue" d="M1717.17,-936.827C1880.61,-931.531 2487,-906.586 2487,-828 2487,-828 2487,-828 2487,-602 2487,-567.864 2487,-528.052 2487,-505.209"/>
<polygon fill="midnightblue" stroke="midnightblue" points="2490.5,-505.193 2487,-495.193 2483.5,-505.193 2490.5,-505.193"/>
</g>
<!-- Node45&#45;&gt;Node43 -->
<g id="edge161" class="edge"><title>Node45&#45;&gt;Node43</title>
<path fill="none" stroke="midnightblue" d="M1696.68,-929.433C1775.01,-895.336 2064.9,-769.151 2158,-728.622"/>
<polygon fill="midnightblue" stroke="midnightblue" points="2159.61,-731.742 2167.38,-724.541 2156.81,-725.323 2159.61,-731.742"/>
</g>
<!-- Node46 -->
<g id="node46" class="node"><title>Node46</title>
<g id="a_node46"><a xlink:href="var_8h.html" target="_top" xlink:title="Variables in the TIR. ">
<polygon fill="white" stroke="black" points="1589,-817.5 1589,-836.5 1663,-836.5 1663,-817.5 1589,-817.5"/>
<text text-anchor="middle" x="1626" y="-824.5" font-family="Helvetica,sans-Serif" font-size="10.00">tvm/tir/var.h</text>
</a>
</g>
</g>
<!-- Node45&#45;&gt;Node46 -->
<g id="edge150" class="edge"><title>Node45&#45;&gt;Node46</title>
<path fill="none" stroke="midnightblue" d="M1660.67,-929.387C1648.04,-921.72 1631.5,-909.213 1624,-893 1617.33,-878.591 1618.59,-860.399 1621.08,-846.927"/>
<polygon fill="midnightblue" stroke="midnightblue" points="1624.56,-847.431 1623.32,-836.908 1617.73,-845.907 1624.56,-847.431"/>
</g>
<!-- Node47 -->
<g id="node47" class="node"><title>Node47</title>
<g id="a_node47"><a xlink:href="buffer_8h.html" target="_top" xlink:title="Symbolic n&#45;dimensional array, to represent a memory buffer. ">
<polygon fill="white" stroke="black" points="1633.5,-873.5 1633.5,-892.5 1720.5,-892.5 1720.5,-873.5 1633.5,-873.5"/>
<text text-anchor="middle" x="1677" y="-880.5" font-family="Helvetica,sans-Serif" font-size="10.00">tvm/tir/buffer.h</text>
</a>
</g>
</g>
<!-- Node45&#45;&gt;Node47 -->
<g id="edge155" class="edge"><title>Node45&#45;&gt;Node47</title>
<path fill="none" stroke="midnightblue" d="M1677,-929.083C1677,-922.006 1677,-911.861 1677,-902.986"/>
<polygon fill="midnightblue" stroke="midnightblue" points="1680.5,-902.751 1677,-892.751 1673.5,-902.751 1680.5,-902.751"/>
</g>
<!-- Node46&#45;&gt;Node4 -->
<g id="edge153" class="edge"><title>Node46&#45;&gt;Node4</title>
<path fill="none" stroke="midnightblue" d="M1642.71,-817.324C1659.31,-808.703 1685,-795.364 1704.22,-785.386"/>
<polygon fill="midnightblue" stroke="midnightblue" points="1706.07,-788.369 1713.33,-780.655 1702.84,-782.156 1706.07,-788.369"/>
</g>
<!-- Node46&#45;&gt;Node12 -->
<g id="edge154" class="edge"><title>Node46&#45;&gt;Node12</title>
<path fill="none" stroke="midnightblue" d="M1588.87,-824.337C1431.05,-815.71 805.037,-765.551 388,-501 256.816,-417.782 217.396,-330.449 252,-179 258.155,-152.063 257.379,-140.204 279,-123 308.266,-99.7126 415.273,-83.3463 469.717,-76.3296"/>
<polygon fill="midnightblue" stroke="midnightblue" points="470.382,-79.7736 479.866,-75.0517 469.507,-72.8285 470.382,-79.7736"/>
</g>
<!-- Node46&#45;&gt;Node15 -->
<g id="edge151" class="edge"><title>Node46&#45;&gt;Node15</title>
<path fill="none" stroke="midnightblue" d="M1663.31,-818.768C1721.73,-806.276 1836.93,-776.875 1922,-725 1953.98,-705.495 1962.87,-699.229 1985,-669 1995.48,-654.681 2003.33,-635.972 2008.2,-622.305"/>
<polygon fill="midnightblue" stroke="midnightblue" points="2011.59,-623.199 2011.46,-612.605 2004.96,-620.968 2011.59,-623.199"/>
</g>
<!-- Node46&#45;&gt;Node28 -->
<g id="edge152" class="edge"><title>Node46&#45;&gt;Node28</title>
<path fill="none" stroke="midnightblue" d="M1588.97,-824.439C1484.66,-819.044 1196,-796.813 1196,-716 1196,-716 1196,-716 1196,-602 1196,-572.698 1595.05,-302.51 1622,-291 1677.37,-267.352 1744.7,-256.131 1795.84,-250.807"/>
<polygon fill="midnightblue" stroke="midnightblue" points="1796.23,-254.285 1805.84,-249.818 1795.54,-247.319 1796.23,-254.285"/>
</g>
<!-- Node47&#45;&gt;Node4 -->
<g id="edge157" class="edge"><title>Node47&#45;&gt;Node4</title>
<path fill="none" stroke="midnightblue" d="M1681.16,-873.368C1689.83,-855.376 1709.98,-813.55 1721.51,-789.627"/>
<polygon fill="midnightblue" stroke="midnightblue" points="1724.67,-791.119 1725.86,-780.591 1718.37,-788.081 1724.67,-791.119"/>
</g>
<!-- Node47&#45;&gt;Node12 -->
<g id="edge159" class="edge"><title>Node47&#45;&gt;Node12</title>
<path fill="none" stroke="midnightblue" d="M1633.38,-882.038C1437.8,-881.675 641.191,-874.389 413,-781 203.607,-695.304 114,-595.25 114,-369 114,-369 114,-369 114,-188 114,-153.844 126.361,-141.612 155,-123 206.572,-89.4847 392.914,-77.4153 469.147,-73.8173"/>
<polygon fill="midnightblue" stroke="midnightblue" points="469.735,-77.2944 479.567,-73.3463 469.419,-70.3015 469.735,-77.2944"/>
</g>
<!-- Node47&#45;&gt;Node37 -->
<g id="edge156" class="edge"><title>Node47&#45;&gt;Node37</title>
<path fill="none" stroke="midnightblue" d="M1720.77,-876.266C1839.81,-859.685 2164.73,-807.539 2227,-725 2292.85,-637.726 2233.76,-492.844 2209.92,-442.713"/>
<polygon fill="midnightblue" stroke="midnightblue" points="2212.96,-440.958 2205.42,-433.509 2206.67,-444.03 2212.96,-440.958"/>
</g>
<!-- Node47&#45;&gt;Node46 -->
<g id="edge158" class="edge"><title>Node47&#45;&gt;Node46</title>
<path fill="none" stroke="midnightblue" d="M1668.58,-873.083C1661.15,-865.22 1650.15,-853.569 1641.19,-844.081"/>
<polygon fill="midnightblue" stroke="midnightblue" points="1643.68,-841.618 1634.26,-836.751 1638.59,-846.424 1643.68,-841.618"/>
</g>
</g>
</svg>
