<?xml version="1.0" encoding="UTF-8" standalone="no"?>
<!DOCTYPE svg PUBLIC "-//W3C//DTD SVG 1.1//EN"
 "http://www.w3.org/Graphics/SVG/1.1/DTD/svg11.dtd">
<!-- Generated by graphviz version 2.38.0 (20140413.2041)
 -->
<!-- Title: tvm::BaseFuncNode Pages: 1 -->
<svg width="436pt" height="662pt"
 viewBox="0.00 0.00 436.00 662.00" xmlns="http://www.w3.org/2000/svg" xmlns:xlink="http://www.w3.org/1999/xlink">
<g id="graph0" class="graph" transform="scale(1 1) rotate(0) translate(4 658)">
<title>tvm::BaseFuncNode</title>
<polygon fill="white" stroke="none" points="-4,4 -4,-658 432,-658 432,4 -4,4"/>
<!-- Node1 -->
<g id="node1" class="node"><title>Node1</title>
<polygon fill="#bfbfbf" stroke="black" points="111.5,-182.5 111.5,-283.5 315.5,-283.5 315.5,-182.5 111.5,-182.5"/>
<text text-anchor="middle" x="213.5" y="-271.5" font-family="Helvetica,sans-Serif" font-size="10.00">tvm::BaseFuncNode</text>
<polyline fill="none" stroke="black" points="111.5,-264.5 315.5,-264.5 "/>
<text text-anchor="start" x="119.5" y="-252.5" font-family="Helvetica,sans-Serif" font-size="10.00">+ attrs</text>
<text text-anchor="start" x="119.5" y="-241.5" font-family="Helvetica,sans-Serif" font-size="10.00">+ _type_key</text>
<polyline fill="none" stroke="black" points="111.5,-234.5 315.5,-234.5 "/>
<text text-anchor="start" x="119.5" y="-222.5" font-family="Helvetica,sans-Serif" font-size="10.00">+ GetAttr()</text>
<text text-anchor="start" x="119.5" y="-211.5" font-family="Helvetica,sans-Serif" font-size="10.00">+ GetAttr()</text>
<text text-anchor="start" x="119.5" y="-200.5" font-family="Helvetica,sans-Serif" font-size="10.00">+ HasNonzeroAttr()</text>
<text text-anchor="start" x="119.5" y="-189.5" font-family="Helvetica,sans-Serif" font-size="10.00">+ TVM_DECLARE_BASE_OBJECT_INFO()</text>
</g>
<!-- Node5 -->
<g id="node5" class="node"><title>Node5</title>
<g id="a_node5"><a xlink:href="classtvm_1_1relay_1_1FunctionNode.html" target="_top" xlink:title="Relay Function container. ">
<polygon fill="white" stroke="black" points="0,-0.5 0,-145.5 205,-145.5 205,-0.5 0,-0.5"/>
<text text-anchor="middle" x="102.5" y="-133.5" font-family="Helvetica,sans-Serif" font-size="10.00">tvm::relay::FunctionNode</text>
<polyline fill="none" stroke="black" points="0,-126.5 205,-126.5 "/>
<text text-anchor="start" x="8" y="-114.5" font-family="Helvetica,sans-Serif" font-size="10.00">+ params</text>
<text text-anchor="start" x="8" y="-103.5" font-family="Helvetica,sans-Serif" font-size="10.00">+ body</text>
<text text-anchor="start" x="8" y="-92.5" font-family="Helvetica,sans-Serif" font-size="10.00">+ ret_type</text>
<text text-anchor="start" x="8" y="-81.5" font-family="Helvetica,sans-Serif" font-size="10.00">+ type_params</text>
<text text-anchor="start" x="8" y="-70.5" font-family="Helvetica,sans-Serif" font-size="10.00">+ _type_key</text>
<polyline fill="none" stroke="black" points="0,-63.5 205,-63.5 "/>
<text text-anchor="start" x="8" y="-51.5" font-family="Helvetica,sans-Serif" font-size="10.00">+ VisitAttrs()</text>
<text text-anchor="start" x="8" y="-40.5" font-family="Helvetica,sans-Serif" font-size="10.00">+ SEqualReduce()</text>
<text text-anchor="start" x="8" y="-29.5" font-family="Helvetica,sans-Serif" font-size="10.00">+ SHashReduce()</text>
<text text-anchor="start" x="8" y="-18.5" font-family="Helvetica,sans-Serif" font-size="10.00">+ func_type_annotation()</text>
<text text-anchor="start" x="8" y="-7.5" font-family="Helvetica,sans-Serif" font-size="10.00">+ TVM_DECLARE_FINAL_OBJECT_INFO()</text>
</a>
</g>
</g>
<!-- Node1&#45;&gt;Node5 -->
<g id="edge4" class="edge"><title>Node1&#45;&gt;Node5</title>
<path fill="none" stroke="midnightblue" d="M172.812,-174.084C166.317,-164.839 159.53,-155.178 152.844,-145.66"/>
<polygon fill="none" stroke="midnightblue" points="170.071,-176.271 178.683,-182.441 175.799,-172.247 170.071,-176.271"/>
</g>
<!-- Node6 -->
<g id="node6" class="node"><title>Node6</title>
<g id="a_node6"><a xlink:href="classtvm_1_1tir_1_1PrimFuncNode.html" target="_top" xlink:title="Primitive functions that contains TIR statements. ">
<polygon fill="white" stroke="black" points="223,-0.5 223,-145.5 428,-145.5 428,-0.5 223,-0.5"/>
<text text-anchor="middle" x="325.5" y="-133.5" font-family="Helvetica,sans-Serif" font-size="10.00">tvm::tir::PrimFuncNode</text>
<polyline fill="none" stroke="black" points="223,-126.5 428,-126.5 "/>
<text text-anchor="start" x="231" y="-114.5" font-family="Helvetica,sans-Serif" font-size="10.00">+ params</text>
<text text-anchor="start" x="231" y="-103.5" font-family="Helvetica,sans-Serif" font-size="10.00">+ body</text>
<text text-anchor="start" x="231" y="-92.5" font-family="Helvetica,sans-Serif" font-size="10.00">+ ret_type</text>
<text text-anchor="start" x="231" y="-81.5" font-family="Helvetica,sans-Serif" font-size="10.00">+ buffer_map</text>
<text text-anchor="start" x="231" y="-70.5" font-family="Helvetica,sans-Serif" font-size="10.00">+ _type_key</text>
<polyline fill="none" stroke="black" points="223,-63.5 428,-63.5 "/>
<text text-anchor="start" x="231" y="-51.5" font-family="Helvetica,sans-Serif" font-size="10.00">+ VisitAttrs()</text>
<text text-anchor="start" x="231" y="-40.5" font-family="Helvetica,sans-Serif" font-size="10.00">+ SEqualReduce()</text>
<text text-anchor="start" x="231" y="-29.5" font-family="Helvetica,sans-Serif" font-size="10.00">+ SHashReduce()</text>
<text text-anchor="start" x="231" y="-18.5" font-family="Helvetica,sans-Serif" font-size="10.00">+ func_type_annotation()</text>
<text text-anchor="start" x="231" y="-7.5" font-family="Helvetica,sans-Serif" font-size="10.00">+ TVM_DECLARE_FINAL_OBJECT_INFO()</text>
</a>
</g>
</g>
<!-- Node1&#45;&gt;Node6 -->
<g id="edge5" class="edge"><title>Node1&#45;&gt;Node6</title>
<path fill="none" stroke="midnightblue" d="M254.555,-174.084C261.108,-164.839 267.956,-155.178 274.703,-145.66"/>
<polygon fill="none" stroke="midnightblue" points="251.558,-172.259 248.63,-182.441 257.269,-176.307 251.558,-172.259"/>
</g>
<!-- Node2 -->
<g id="node2" class="node"><title>Node2</title>
<g id="a_node2"><a xlink:href="classtvm_1_1RelayExprNode.html" target="_top" xlink:title="Base node of all non&#45;primitive expressions. ">
<polygon fill="white" stroke="black" points="111.5,-320.5 111.5,-421.5 315.5,-421.5 315.5,-320.5 111.5,-320.5"/>
<text text-anchor="middle" x="213.5" y="-409.5" font-family="Helvetica,sans-Serif" font-size="10.00">tvm::RelayExprNode</text>
<polyline fill="none" stroke="black" points="111.5,-402.5 315.5,-402.5 "/>
<text text-anchor="start" x="119.5" y="-390.5" font-family="Helvetica,sans-Serif" font-size="10.00">+ span</text>
<text text-anchor="start" x="119.5" y="-379.5" font-family="Helvetica,sans-Serif" font-size="10.00">+ checked_type_</text>
<text text-anchor="start" x="119.5" y="-368.5" font-family="Helvetica,sans-Serif" font-size="10.00">+ _type_key</text>
<polyline fill="none" stroke="black" points="111.5,-361.5 315.5,-361.5 "/>
<text text-anchor="start" x="119.5" y="-349.5" font-family="Helvetica,sans-Serif" font-size="10.00">+ checked_type()</text>
<text text-anchor="start" x="119.5" y="-338.5" font-family="Helvetica,sans-Serif" font-size="10.00">+ type_as()</text>
<text text-anchor="start" x="119.5" y="-327.5" font-family="Helvetica,sans-Serif" font-size="10.00">+ TVM_DECLARE_BASE_OBJECT_INFO()</text>
</a>
</g>
</g>
<!-- Node2&#45;&gt;Node1 -->
<g id="edge1" class="edge"><title>Node2&#45;&gt;Node1</title>
<path fill="none" stroke="midnightblue" d="M213.5,-310C213.5,-301.271 213.5,-292.363 213.5,-283.863"/>
<polygon fill="none" stroke="midnightblue" points="210,-310.131 213.5,-320.131 217,-310.131 210,-310.131"/>
</g>
<!-- Node3 -->
<g id="node3" class="node"><title>Node3</title>
<g id="a_node3"><a xlink:href="classtvm_1_1BaseExprNode.html" target="_top" xlink:title="Base type of all the expressions. ">
<polygon fill="white" stroke="black" points="111.5,-458.5 111.5,-559.5 315.5,-559.5 315.5,-458.5 111.5,-458.5"/>
<text text-anchor="middle" x="213.5" y="-547.5" font-family="Helvetica,sans-Serif" font-size="10.00">tvm::BaseExprNode</text>
<polyline fill="none" stroke="black" points="111.5,-540.5 315.5,-540.5 "/>
<text text-anchor="start" x="119.5" y="-528.5" font-family="Helvetica,sans-Serif" font-size="10.00">+ _type_key</text>
<text text-anchor="start" x="119.5" y="-517.5" font-family="Helvetica,sans-Serif" font-size="10.00">+ _type_has_method_sequal</text>
<text text-anchor="start" x="119.5" y="-506.5" font-family="Helvetica,sans-Serif" font-size="10.00">_reduce</text>
<text text-anchor="start" x="119.5" y="-495.5" font-family="Helvetica,sans-Serif" font-size="10.00">+ _type_has_method_shash</text>
<text text-anchor="start" x="119.5" y="-484.5" font-family="Helvetica,sans-Serif" font-size="10.00">_reduce</text>
<polyline fill="none" stroke="black" points="111.5,-477.5 315.5,-477.5 "/>
<text text-anchor="start" x="119.5" y="-465.5" font-family="Helvetica,sans-Serif" font-size="10.00">+ TVM_DECLARE_BASE_OBJECT_INFO()</text>
</a>
</g>
</g>
<!-- Node3&#45;&gt;Node2 -->
<g id="edge2" class="edge"><title>Node3&#45;&gt;Node2</title>
<path fill="none" stroke="midnightblue" d="M213.5,-448C213.5,-439.271 213.5,-430.363 213.5,-421.863"/>
<polygon fill="none" stroke="midnightblue" points="210,-448.131 213.5,-458.131 217,-448.131 210,-448.131"/>
</g>
<!-- Node4 -->
<g id="node4" class="node"><title>Node4</title>
<polygon fill="white" stroke="#bfbfbf" points="190,-596.5 190,-653.5 237,-653.5 237,-596.5 190,-596.5"/>
<text text-anchor="middle" x="213.5" y="-641.5" font-family="Helvetica,sans-Serif" font-size="10.00">Object</text>
<polyline fill="none" stroke="#bfbfbf" points="190,-634.5 237,-634.5 "/>
<text text-anchor="middle" x="213.5" y="-622.5" font-family="Helvetica,sans-Serif" font-size="10.00"> </text>
<polyline fill="none" stroke="#bfbfbf" points="190,-615.5 237,-615.5 "/>
<text text-anchor="middle" x="213.5" y="-603.5" font-family="Helvetica,sans-Serif" font-size="10.00"> </text>
</g>
<!-- Node4&#45;&gt;Node3 -->
<g id="edge3" class="edge"><title>Node4&#45;&gt;Node3</title>
<path fill="none" stroke="midnightblue" d="M213.5,-586.354C213.5,-577.796 213.5,-568.578 213.5,-559.608"/>
<polygon fill="none" stroke="midnightblue" points="210,-586.404 213.5,-596.404 217,-586.404 210,-586.404"/>
</g>
</g>
</svg>
