<?xml version="1.0" encoding="UTF-8" standalone="no"?>
<!DOCTYPE svg PUBLIC "-//W3C//DTD SVG 1.1//EN"
 "http://www.w3.org/Graphics/SVG/1.1/DTD/svg11.dtd">
<!-- Generated by graphviz version 2.38.0 (20140413.2041)
 -->
<!-- Title: tvm::arith::Analyzer Pages: 1 -->
<svg width="833pt" height="303pt"
 viewBox="0.00 0.00 832.50 303.00" xmlns="http://www.w3.org/2000/svg" xmlns:xlink="http://www.w3.org/1999/xlink">
<g id="graph0" class="graph" transform="scale(1 1) rotate(0) translate(4 299)">
<title>tvm::arith::Analyzer</title>
<polygon fill="white" stroke="none" points="-4,4 -4,-299 828.5,-299 828.5,4 -4,4"/>
<!-- Node1 -->
<g id="node1" class="node"><title>Node1</title>
<polygon fill="#bfbfbf" stroke="black" points="342,-0.5 342,-145.5 486,-145.5 486,-0.5 342,-0.5"/>
<text text-anchor="middle" x="414" y="-133.5" font-family="Helvetica,sans-Serif" font-size="10.00">tvm::arith::Analyzer</text>
<polyline fill="none" stroke="black" points="342,-126.5 486,-126.5 "/>
<text text-anchor="middle" x="414" y="-114.5" font-family="Helvetica,sans-Serif" font-size="10.00"> </text>
<polyline fill="none" stroke="black" points="342,-107.5 486,-107.5 "/>
<text text-anchor="start" x="350" y="-95.5" font-family="Helvetica,sans-Serif" font-size="10.00">+ Analyzer()</text>
<text text-anchor="start" x="350" y="-84.5" font-family="Helvetica,sans-Serif" font-size="10.00">+ operator=()</text>
<text text-anchor="start" x="350" y="-73.5" font-family="Helvetica,sans-Serif" font-size="10.00">+ Analyzer()</text>
<text text-anchor="start" x="350" y="-62.5" font-family="Helvetica,sans-Serif" font-size="10.00">+ Bind()</text>
<text text-anchor="start" x="350" y="-51.5" font-family="Helvetica,sans-Serif" font-size="10.00">+ Bind()</text>
<text text-anchor="start" x="350" y="-40.5" font-family="Helvetica,sans-Serif" font-size="10.00">+ Bind()</text>
<text text-anchor="start" x="350" y="-29.5" font-family="Helvetica,sans-Serif" font-size="10.00">+ CanProveGreaterEqual()</text>
<text text-anchor="start" x="350" y="-18.5" font-family="Helvetica,sans-Serif" font-size="10.00">+ CanProve()</text>
<text text-anchor="start" x="350" y="-7.5" font-family="Helvetica,sans-Serif" font-size="10.00">+ Simplify()</text>
</g>
<!-- Node2 -->
<g id="node2" class="node"><title>Node2</title>
<g id="a_node2"><a xlink:href="classtvm_1_1arith_1_1CanonicalSimplifier.html" target="_top" xlink:title="Canonical&#45;form based simplifier. ">
<polygon fill="white" stroke="black" points="0,-210 0,-278 160,-278 160,-210 0,-210"/>
<text text-anchor="middle" x="80" y="-266" font-family="Helvetica,sans-Serif" font-size="10.00">tvm::arith::CanonicalSimplifier</text>
<polyline fill="none" stroke="black" points="0,-259 160,-259 "/>
<text text-anchor="middle" x="80" y="-247" font-family="Helvetica,sans-Serif" font-size="10.00"> </text>
<polyline fill="none" stroke="black" points="0,-240 160,-240 "/>
<text text-anchor="start" x="8" y="-228" font-family="Helvetica,sans-Serif" font-size="10.00">+ operator()()</text>
<text text-anchor="start" x="8" y="-217" font-family="Helvetica,sans-Serif" font-size="10.00">+ Update()</text>
</a>
</g>
</g>
<!-- Node2&#45;&gt;Node1 -->
<g id="edge1" class="edge"><title>Node2&#45;&gt;Node1</title>
<path fill="none" stroke="#404040" d="M132.599,-209.863C156.733,-195.154 185.941,-178.035 213,-164 250.987,-144.297 294.177,-124.619 330.761,-108.711"/>
<polygon fill="none" stroke="#404040" points="330.874,-108.662 334.794,-102.609 341.889,-103.899 337.969,-109.952 330.874,-108.662"/>
<text text-anchor="middle" x="262" y="-167" font-family="Helvetica,sans-Serif" font-size="10.00"> +canonical_simplify</text>
</g>
<!-- Node3 -->
<g id="node3" class="node"><title>Node3</title>
<g id="a_node3"><a xlink:href="classtvm_1_1arith_1_1RewriteSimplifier.html" target="_top" xlink:title="Rewrite&#45;rule based simplifier. ">
<polygon fill="white" stroke="black" points="178.5,-204.5 178.5,-283.5 325.5,-283.5 325.5,-204.5 178.5,-204.5"/>
<text text-anchor="middle" x="252" y="-271.5" font-family="Helvetica,sans-Serif" font-size="10.00">tvm::arith::RewriteSimplifier</text>
<polyline fill="none" stroke="black" points="178.5,-264.5 325.5,-264.5 "/>
<text text-anchor="middle" x="252" y="-252.5" font-family="Helvetica,sans-Serif" font-size="10.00"> </text>
<polyline fill="none" stroke="black" points="178.5,-245.5 325.5,-245.5 "/>
<text text-anchor="start" x="186.5" y="-233.5" font-family="Helvetica,sans-Serif" font-size="10.00">+ operator()()</text>
<text text-anchor="start" x="186.5" y="-222.5" font-family="Helvetica,sans-Serif" font-size="10.00">+ Update()</text>
<text text-anchor="start" x="186.5" y="-211.5" font-family="Helvetica,sans-Serif" font-size="10.00">+ EnterConstraint()</text>
</a>
</g>
</g>
<!-- Node3&#45;&gt;Node1 -->
<g id="edge2" class="edge"><title>Node3&#45;&gt;Node1</title>
<path fill="none" stroke="#404040" d="M287.385,-204.182C299.25,-191.308 312.612,-176.959 325,-164 328.065,-160.793 331.201,-157.533 334.376,-154.247"/>
<polygon fill="none" stroke="#404040" points="334.498,-154.121 335.805,-147.029 342.854,-145.508 341.547,-152.6 334.498,-154.121"/>
<text text-anchor="middle" x="367.5" y="-167" font-family="Helvetica,sans-Serif" font-size="10.00"> +rewrite_simplify</text>
</g>
<!-- Node4 -->
<g id="node4" class="node"><title>Node4</title>
<g id="a_node4"><a xlink:href="classtvm_1_1arith_1_1ConstIntBoundAnalyzer.html" target="_top" xlink:title="Analyzer to get constant integer bound over expression. ">
<polygon fill="white" stroke="black" points="344,-193.5 344,-294.5 484,-294.5 484,-193.5 344,-193.5"/>
<text text-anchor="start" x="352" y="-282.5" font-family="Helvetica,sans-Serif" font-size="10.00">tvm::arith::ConstIntBound</text>
<text text-anchor="middle" x="414" y="-271.5" font-family="Helvetica,sans-Serif" font-size="10.00">Analyzer</text>
<polyline fill="none" stroke="black" points="344,-264.5 484,-264.5 "/>
<text text-anchor="middle" x="414" y="-252.5" font-family="Helvetica,sans-Serif" font-size="10.00"> </text>
<polyline fill="none" stroke="black" points="344,-245.5 484,-245.5 "/>
<text text-anchor="start" x="352" y="-233.5" font-family="Helvetica,sans-Serif" font-size="10.00">+ operator()()</text>
<text text-anchor="start" x="352" y="-222.5" font-family="Helvetica,sans-Serif" font-size="10.00">+ operator()()</text>
<text text-anchor="start" x="352" y="-211.5" font-family="Helvetica,sans-Serif" font-size="10.00">+ Update()</text>
<text text-anchor="start" x="352" y="-200.5" font-family="Helvetica,sans-Serif" font-size="10.00">+ Bind()</text>
</a>
</g>
</g>
<!-- Node4&#45;&gt;Node1 -->
<g id="edge3" class="edge"><title>Node4&#45;&gt;Node1</title>
<path fill="none" stroke="#404040" d="M414,-193.208C414,-182.036 414,-169.883 414,-157.752"/>
<polygon fill="none" stroke="#404040" points="414,-157.664 410,-151.664 414,-145.664 418,-151.664 414,-157.664"/>
<text text-anchor="middle" x="459.5" y="-167" font-family="Helvetica,sans-Serif" font-size="10.00"> +const_int_bound</text>
</g>
<!-- Node5 -->
<g id="node5" class="node"><title>Node5</title>
<g id="a_node5"><a xlink:href="classtvm_1_1arith_1_1IntSetAnalyzer.html" target="_top" xlink:title="Integer set analyzer. ">
<polygon fill="white" stroke="black" points="502.5,-215.5 502.5,-272.5 641.5,-272.5 641.5,-215.5 502.5,-215.5"/>
<text text-anchor="middle" x="572" y="-260.5" font-family="Helvetica,sans-Serif" font-size="10.00">tvm::arith::IntSetAnalyzer</text>
<polyline fill="none" stroke="black" points="502.5,-253.5 641.5,-253.5 "/>
<text text-anchor="middle" x="572" y="-241.5" font-family="Helvetica,sans-Serif" font-size="10.00"> </text>
<polyline fill="none" stroke="black" points="502.5,-234.5 641.5,-234.5 "/>
<text text-anchor="start" x="510.5" y="-222.5" font-family="Helvetica,sans-Serif" font-size="10.00">+ operator()()</text>
</a>
</g>
</g>
<!-- Node5&#45;&gt;Node1 -->
<g id="edge4" class="edge"><title>Node5&#45;&gt;Node1</title>
<path fill="none" stroke="#404040" d="M551.327,-215.169C539.445,-199.673 523.95,-180.281 509,-164 504.486,-159.084 499.757,-154.112 494.922,-149.16"/>
<polygon fill="none" stroke="#404040" points="494.575,-148.81 487.511,-147.364 486.128,-140.286 493.193,-141.732 494.575,-148.81"/>
<text text-anchor="middle" x="541" y="-167" font-family="Helvetica,sans-Serif" font-size="10.00"> +int_set</text>
</g>
<!-- Node6 -->
<g id="node6" class="node"><title>Node6</title>
<g id="a_node6"><a xlink:href="classtvm_1_1arith_1_1ModularSetAnalyzer.html" target="_top" xlink:title="Analyzer to get modular information over expression. ">
<polygon fill="white" stroke="black" points="659.5,-210 659.5,-278 824.5,-278 824.5,-210 659.5,-210"/>
<text text-anchor="middle" x="742" y="-266" font-family="Helvetica,sans-Serif" font-size="10.00">tvm::arith::ModularSetAnalyzer</text>
<polyline fill="none" stroke="black" points="659.5,-259 824.5,-259 "/>
<text text-anchor="middle" x="742" y="-247" font-family="Helvetica,sans-Serif" font-size="10.00"> </text>
<polyline fill="none" stroke="black" points="659.5,-240 824.5,-240 "/>
<text text-anchor="start" x="667.5" y="-228" font-family="Helvetica,sans-Serif" font-size="10.00">+ operator()()</text>
<text text-anchor="start" x="667.5" y="-217" font-family="Helvetica,sans-Serif" font-size="10.00">+ Update()</text>
</a>
</g>
</g>
<!-- Node6&#45;&gt;Node1 -->
<g id="edge5" class="edge"><title>Node6&#45;&gt;Node1</title>
<path fill="none" stroke="#404040" d="M681.767,-209.921C671.21,-204.221 660.307,-198.398 650,-193 599.491,-166.549 542.415,-137.74 497.047,-115.094"/>
<polygon fill="none" stroke="#404040" points="496.812,-114.977 489.658,-115.88 486.073,-109.623 493.228,-108.72 496.812,-114.977"/>
<text text-anchor="middle" x="648" y="-167" font-family="Helvetica,sans-Serif" font-size="10.00"> +modular_set</text>
</g>
</g>
</svg>
