<?xml version="1.0" encoding="UTF-8" standalone="no"?>
<!DOCTYPE svg PUBLIC "-//W3C//DTD SVG 1.1//EN"
 "http://www.w3.org/Graphics/SVG/1.1/DTD/svg11.dtd">
<!-- Generated by graphviz version 2.38.0 (20140413.2041)
 -->
<!-- Title: tvm::tir::PrimFuncNode Pages: 1 -->
<svg width="970pt" height="868pt"
 viewBox="0.00 0.00 970.00 868.00" xmlns="http://www.w3.org/2000/svg" xmlns:xlink="http://www.w3.org/1999/xlink">
<g id="graph0" class="graph" transform="scale(1 1) rotate(0) translate(4 864)">
<title>tvm::tir::PrimFuncNode</title>
<polygon fill="white" stroke="none" points="-4,4 -4,-864 966,-864 966,4 -4,4"/>
<!-- Node1 -->
<g id="node1" class="node"><title>Node1</title>
<polygon fill="#bfbfbf" stroke="black" points="573.5,-0.5 573.5,-101.5 778.5,-101.5 778.5,-0.5 573.5,-0.5"/>
<text text-anchor="middle" x="676" y="-89.5" font-family="Helvetica,sans-Serif" font-size="10.00">tvm::tir::PrimFuncNode</text>
<polyline fill="none" stroke="black" points="573.5,-82.5 778.5,-82.5 "/>
<text text-anchor="start" x="581.5" y="-70.5" font-family="Helvetica,sans-Serif" font-size="10.00">+ _type_key</text>
<polyline fill="none" stroke="black" points="573.5,-63.5 778.5,-63.5 "/>
<text text-anchor="start" x="581.5" y="-51.5" font-family="Helvetica,sans-Serif" font-size="10.00">+ VisitAttrs()</text>
<text text-anchor="start" x="581.5" y="-40.5" font-family="Helvetica,sans-Serif" font-size="10.00">+ SEqualReduce()</text>
<text text-anchor="start" x="581.5" y="-29.5" font-family="Helvetica,sans-Serif" font-size="10.00">+ SHashReduce()</text>
<text text-anchor="start" x="581.5" y="-18.5" font-family="Helvetica,sans-Serif" font-size="10.00">+ func_type_annotation()</text>
<text text-anchor="start" x="581.5" y="-7.5" font-family="Helvetica,sans-Serif" font-size="10.00">+ TVM_DECLARE_FINAL_OBJECT_INFO()</text>
</g>
<!-- Node2 -->
<g id="node2" class="node"><title>Node2</title>
<g id="a_node2"><a xlink:href="classtvm_1_1BaseFuncNode.html" target="_top" xlink:title="Base node of all functions. ">
<polygon fill="white" stroke="black" points="369,-139.5 369,-229.5 573,-229.5 573,-139.5 369,-139.5"/>
<text text-anchor="middle" x="471" y="-217.5" font-family="Helvetica,sans-Serif" font-size="10.00">tvm::BaseFuncNode</text>
<polyline fill="none" stroke="black" points="369,-210.5 573,-210.5 "/>
<text text-anchor="start" x="377" y="-198.5" font-family="Helvetica,sans-Serif" font-size="10.00">+ _type_key</text>
<polyline fill="none" stroke="black" points="369,-191.5 573,-191.5 "/>
<text text-anchor="start" x="377" y="-179.5" font-family="Helvetica,sans-Serif" font-size="10.00">+ GetAttr()</text>
<text text-anchor="start" x="377" y="-168.5" font-family="Helvetica,sans-Serif" font-size="10.00">+ GetAttr()</text>
<text text-anchor="start" x="377" y="-157.5" font-family="Helvetica,sans-Serif" font-size="10.00">+ HasNonzeroAttr()</text>
<text text-anchor="start" x="377" y="-146.5" font-family="Helvetica,sans-Serif" font-size="10.00">+ TVM_DECLARE_BASE_OBJECT_INFO()</text>
</a>
</g>
</g>
<!-- Node2&#45;&gt;Node1 -->
<g id="edge1" class="edge"><title>Node2&#45;&gt;Node1</title>
<path fill="none" stroke="midnightblue" d="M548.327,-133.898C564.749,-123.363 582.091,-112.239 598.519,-101.701"/>
<polygon fill="none" stroke="midnightblue" points="546.36,-131.001 539.832,-139.347 550.139,-136.893 546.36,-131.001"/>
</g>
<!-- Node3 -->
<g id="node3" class="node"><title>Node3</title>
<g id="a_node3"><a xlink:href="classtvm_1_1RelayExprNode.html" target="_top" xlink:title="Base node of all non&#45;primitive expressions. ">
<polygon fill="white" stroke="black" points="188,-346.5 188,-425.5 392,-425.5 392,-346.5 188,-346.5"/>
<text text-anchor="middle" x="290" y="-413.5" font-family="Helvetica,sans-Serif" font-size="10.00">tvm::RelayExprNode</text>
<polyline fill="none" stroke="black" points="188,-406.5 392,-406.5 "/>
<text text-anchor="start" x="196" y="-394.5" font-family="Helvetica,sans-Serif" font-size="10.00">+ _type_key</text>
<polyline fill="none" stroke="black" points="188,-387.5 392,-387.5 "/>
<text text-anchor="start" x="196" y="-375.5" font-family="Helvetica,sans-Serif" font-size="10.00">+ checked_type()</text>
<text text-anchor="start" x="196" y="-364.5" font-family="Helvetica,sans-Serif" font-size="10.00">+ type_as()</text>
<text text-anchor="start" x="196" y="-353.5" font-family="Helvetica,sans-Serif" font-size="10.00">+ TVM_DECLARE_BASE_OBJECT_INFO()</text>
</a>
</g>
</g>
<!-- Node3&#45;&gt;Node2 -->
<g id="edge2" class="edge"><title>Node3&#45;&gt;Node2</title>
<path fill="none" stroke="midnightblue" d="M332.297,-338.38C362.103,-305.527 401.76,-261.817 431.035,-229.55"/>
<polygon fill="none" stroke="midnightblue" points="329.456,-336.303 325.328,-346.061 334.64,-341.006 329.456,-336.303"/>
</g>
<!-- Node4 -->
<g id="node4" class="node"><title>Node4</title>
<g id="a_node4"><a xlink:href="classtvm_1_1BaseExprNode.html" target="_top" xlink:title="Base type of all the expressions. ">
<polygon fill="white" stroke="black" points="0,-663.5 0,-764.5 204,-764.5 204,-663.5 0,-663.5"/>
<text text-anchor="middle" x="102" y="-752.5" font-family="Helvetica,sans-Serif" font-size="10.00">tvm::BaseExprNode</text>
<polyline fill="none" stroke="black" points="0,-745.5 204,-745.5 "/>
<text text-anchor="start" x="8" y="-733.5" font-family="Helvetica,sans-Serif" font-size="10.00">+ _type_key</text>
<text text-anchor="start" x="8" y="-722.5" font-family="Helvetica,sans-Serif" font-size="10.00">+ _type_has_method_sequal</text>
<text text-anchor="start" x="8" y="-711.5" font-family="Helvetica,sans-Serif" font-size="10.00">_reduce</text>
<text text-anchor="start" x="8" y="-700.5" font-family="Helvetica,sans-Serif" font-size="10.00">+ _type_has_method_shash</text>
<text text-anchor="start" x="8" y="-689.5" font-family="Helvetica,sans-Serif" font-size="10.00">_reduce</text>
<polyline fill="none" stroke="black" points="0,-682.5 204,-682.5 "/>
<text text-anchor="start" x="8" y="-670.5" font-family="Helvetica,sans-Serif" font-size="10.00">+ TVM_DECLARE_BASE_OBJECT_INFO()</text>
</a>
</g>
</g>
<!-- Node4&#45;&gt;Node3 -->
<g id="edge3" class="edge"><title>Node4&#45;&gt;Node3</title>
<path fill="none" stroke="midnightblue" d="M135.782,-654.42C173.955,-588.228 235.008,-482.358 267.67,-425.722"/>
<polygon fill="none" stroke="midnightblue" points="132.517,-653.076 130.553,-663.488 138.581,-656.573 132.517,-653.076"/>
</g>
<!-- Node5 -->
<g id="node5" class="node"><title>Node5</title>
<polygon fill="white" stroke="#bfbfbf" points="78.5,-802.5 78.5,-859.5 125.5,-859.5 125.5,-802.5 78.5,-802.5"/>
<text text-anchor="middle" x="102" y="-847.5" font-family="Helvetica,sans-Serif" font-size="10.00">Object</text>
<polyline fill="none" stroke="#bfbfbf" points="78.5,-840.5 125.5,-840.5 "/>
<text text-anchor="middle" x="102" y="-828.5" font-family="Helvetica,sans-Serif" font-size="10.00"> </text>
<polyline fill="none" stroke="#bfbfbf" points="78.5,-821.5 125.5,-821.5 "/>
<text text-anchor="middle" x="102" y="-809.5" font-family="Helvetica,sans-Serif" font-size="10.00"> </text>
</g>
<!-- Node5&#45;&gt;Node4 -->
<g id="edge4" class="edge"><title>Node5&#45;&gt;Node4</title>
<path fill="none" stroke="midnightblue" d="M102,-792.187C102,-783.435 102,-773.99 102,-764.812"/>
<polygon fill="none" stroke="midnightblue" points="98.5001,-792.455 102,-802.455 105.5,-792.455 98.5001,-792.455"/>
</g>
<!-- Node6 -->
<g id="node6" class="node"><title>Node6</title>
<g id="a_node6"><a xlink:href="classtvm_1_1Span.html" target="_top" xlink:title="{tvm::Span\n||+ TVM_DEFINE_OBJECT_REF\l_METHODS()\l}">
<polygon fill="white" stroke="black" points="222,-680 222,-748 372,-748 372,-680 222,-680"/>
<text text-anchor="middle" x="297" y="-736" font-family="Helvetica,sans-Serif" font-size="10.00">tvm::Span</text>
<polyline fill="none" stroke="black" points="222,-729 372,-729 "/>
<text text-anchor="middle" x="297" y="-717" font-family="Helvetica,sans-Serif" font-size="10.00"> </text>
<polyline fill="none" stroke="black" points="222,-710 372,-710 "/>
<text text-anchor="start" x="230" y="-698" font-family="Helvetica,sans-Serif" font-size="10.00">+ TVM_DEFINE_OBJECT_REF</text>
<text text-anchor="start" x="230" y="-687" font-family="Helvetica,sans-Serif" font-size="10.00">_METHODS()</text>
</a>
</g>
</g>
<!-- Node6&#45;&gt;Node3 -->
<g id="edge5" class="edge"><title>Node6&#45;&gt;Node3</title>
<path fill="none" stroke="#404040" d="M296.29,-679.947C295.063,-622.802 292.538,-505.188 291.088,-437.66"/>
<polygon fill="none" stroke="#404040" points="291.088,-437.658 286.96,-431.745 290.83,-425.66 294.958,-431.573 291.088,-437.658"/>
<text text-anchor="middle" x="313.5" y="-547.5" font-family="Helvetica,sans-Serif" font-size="10.00"> +span</text>
</g>
<!-- Node7 -->
<g id="node7" class="node"><title>Node7</title>
<polygon fill="white" stroke="#bfbfbf" points="673,-802.5 673,-859.5 735,-859.5 735,-802.5 673,-802.5"/>
<text text-anchor="middle" x="704" y="-847.5" font-family="Helvetica,sans-Serif" font-size="10.00">ObjectRef</text>
<polyline fill="none" stroke="#bfbfbf" points="673,-840.5 735,-840.5 "/>
<text text-anchor="middle" x="704" y="-828.5" font-family="Helvetica,sans-Serif" font-size="10.00"> </text>
<polyline fill="none" stroke="#bfbfbf" points="673,-821.5 735,-821.5 "/>
<text text-anchor="middle" x="704" y="-809.5" font-family="Helvetica,sans-Serif" font-size="10.00"> </text>
</g>
<!-- Node7&#45;&gt;Node6 -->
<g id="edge6" class="edge"><title>Node7&#45;&gt;Node6</title>
<path fill="none" stroke="midnightblue" d="M662.47,-826.172C599.745,-819.397 477.878,-802.325 381,-765 369.281,-760.485 357.318,-754.402 346.232,-748.036"/>
<polygon fill="none" stroke="midnightblue" points="662.437,-829.688 672.747,-827.247 663.165,-822.726 662.437,-829.688"/>
</g>
<!-- Node8 -->
<g id="node8" class="node"><title>Node8</title>
<g id="a_node8"><a xlink:href="classtvm_1_1Type.html" target="_top" xlink:title="Managed reference to TypeNode. ">
<polygon fill="white" stroke="black" points="558,-680 558,-748 708,-748 708,-680 558,-680"/>
<text text-anchor="middle" x="633" y="-736" font-family="Helvetica,sans-Serif" font-size="10.00">tvm::Type</text>
<polyline fill="none" stroke="black" points="558,-729 708,-729 "/>
<text text-anchor="middle" x="633" y="-717" font-family="Helvetica,sans-Serif" font-size="10.00"> </text>
<polyline fill="none" stroke="black" points="558,-710 708,-710 "/>
<text text-anchor="start" x="566" y="-698" font-family="Helvetica,sans-Serif" font-size="10.00">+ TVM_DEFINE_OBJECT_REF</text>
<text text-anchor="start" x="566" y="-687" font-family="Helvetica,sans-Serif" font-size="10.00">_METHODS()</text>
</a>
</g>
</g>
<!-- Node7&#45;&gt;Node8 -->
<g id="edge8" class="edge"><title>Node7&#45;&gt;Node8</title>
<path fill="none" stroke="midnightblue" d="M681.57,-793.67C672.547,-779.055 662.215,-762.32 653.406,-748.052"/>
<polygon fill="none" stroke="midnightblue" points="678.762,-795.784 686.994,-802.455 684.718,-792.107 678.762,-795.784"/>
</g>
<!-- Node10 -->
<g id="node10" class="node"><title>Node10</title>
<g id="a_node10"><a xlink:href="classtvm_1_1Attrs.html" target="_top" xlink:title="Managed reference to BaseAttrsNode. ">
<polygon fill="white" stroke="black" points="390,-680 390,-748 540,-748 540,-680 390,-680"/>
<text text-anchor="middle" x="465" y="-736" font-family="Helvetica,sans-Serif" font-size="10.00">tvm::Attrs</text>
<polyline fill="none" stroke="black" points="390,-729 540,-729 "/>
<text text-anchor="middle" x="465" y="-717" font-family="Helvetica,sans-Serif" font-size="10.00"> </text>
<polyline fill="none" stroke="black" points="390,-710 540,-710 "/>
<text text-anchor="start" x="398" y="-698" font-family="Helvetica,sans-Serif" font-size="10.00">+ TVM_DEFINE_OBJECT_REF</text>
<text text-anchor="start" x="398" y="-687" font-family="Helvetica,sans-Serif" font-size="10.00">_METHODS()</text>
</a>
</g>
</g>
<!-- Node7&#45;&gt;Node10 -->
<g id="edge11" class="edge"><title>Node7&#45;&gt;Node10</title>
<path fill="none" stroke="midnightblue" d="M663.454,-814.795C631.769,-802.486 586.899,-784.108 549,-765 538.847,-759.881 528.254,-754.016 518.148,-748.147"/>
<polygon fill="none" stroke="midnightblue" points="662.252,-818.083 672.842,-818.415 664.77,-811.552 662.252,-818.083"/>
</g>
<!-- Node11 -->
<g id="node11" class="node"><title>Node11</title>
<g id="a_node11"><a xlink:href="classtvm_1_1Array.html" target="_top" xlink:title="{tvm::Array\&lt; tir::tvm\l::tir::Var \&gt;\n||+ Array()\l+ Array()\l+ Array()\l+ Array()\l+ Array()\l+ Array()\l+ Array()\l+ Array()\l+ operator=()\l+ operator=()\land 13 more...\l}">
<polygon fill="white" stroke="black" points="647.5,-461 647.5,-639 760.5,-639 760.5,-461 647.5,-461"/>
<text text-anchor="start" x="655.5" y="-627" font-family="Helvetica,sans-Serif" font-size="10.00">tvm::Array&lt; tir::tvm</text>
<text text-anchor="middle" x="704" y="-616" font-family="Helvetica,sans-Serif" font-size="10.00">::tir::Var &gt;</text>
<polyline fill="none" stroke="black" points="647.5,-609 760.5,-609 "/>
<text text-anchor="middle" x="704" y="-597" font-family="Helvetica,sans-Serif" font-size="10.00"> </text>
<polyline fill="none" stroke="black" points="647.5,-590 760.5,-590 "/>
<text text-anchor="start" x="655.5" y="-578" font-family="Helvetica,sans-Serif" font-size="10.00">+ Array()</text>
<text text-anchor="start" x="655.5" y="-567" font-family="Helvetica,sans-Serif" font-size="10.00">+ Array()</text>
<text text-anchor="start" x="655.5" y="-556" font-family="Helvetica,sans-Serif" font-size="10.00">+ Array()</text>
<text text-anchor="start" x="655.5" y="-545" font-family="Helvetica,sans-Serif" font-size="10.00">+ Array()</text>
<text text-anchor="start" x="655.5" y="-534" font-family="Helvetica,sans-Serif" font-size="10.00">+ Array()</text>
<text text-anchor="start" x="655.5" y="-523" font-family="Helvetica,sans-Serif" font-size="10.00">+ Array()</text>
<text text-anchor="start" x="655.5" y="-512" font-family="Helvetica,sans-Serif" font-size="10.00">+ Array()</text>
<text text-anchor="start" x="655.5" y="-501" font-family="Helvetica,sans-Serif" font-size="10.00">+ Array()</text>
<text text-anchor="start" x="655.5" y="-490" font-family="Helvetica,sans-Serif" font-size="10.00">+ operator=()</text>
<text text-anchor="start" x="655.5" y="-479" font-family="Helvetica,sans-Serif" font-size="10.00">+ operator=()</text>
<text text-anchor="start" x="655.5" y="-468" font-family="Helvetica,sans-Serif" font-size="10.00">and 13 more...</text>
</a>
</g>
</g>
<!-- Node7&#45;&gt;Node11 -->
<g id="edge14" class="edge"><title>Node7&#45;&gt;Node11</title>
<path fill="none" stroke="midnightblue" d="M712.801,-792.542C714.544,-783.571 716.11,-773.986 717,-765 721.089,-723.7 719.151,-677.78 715.659,-639.1"/>
<polygon fill="none" stroke="midnightblue" points="709.371,-791.846 710.783,-802.346 716.227,-793.257 709.371,-791.846"/>
</g>
<!-- Node12 -->
<g id="node12" class="node"><title>Node12</title>
<g id="a_node12"><a xlink:href="classtvm_1_1tir_1_1Stmt.html" target="_top" xlink:title="Container of all statements. ">
<polygon fill="white" stroke="black" points="730,-248.5 730,-316.5 880,-316.5 880,-248.5 730,-248.5"/>
<text text-anchor="middle" x="805" y="-304.5" font-family="Helvetica,sans-Serif" font-size="10.00">tvm::tir::Stmt</text>
<polyline fill="none" stroke="black" points="730,-297.5 880,-297.5 "/>
<text text-anchor="middle" x="805" y="-285.5" font-family="Helvetica,sans-Serif" font-size="10.00"> </text>
<polyline fill="none" stroke="black" points="730,-278.5 880,-278.5 "/>
<text text-anchor="start" x="738" y="-266.5" font-family="Helvetica,sans-Serif" font-size="10.00">+ TVM_DEFINE_OBJECT_REF</text>
<text text-anchor="start" x="738" y="-255.5" font-family="Helvetica,sans-Serif" font-size="10.00">_METHODS()</text>
</a>
</g>
</g>
<!-- Node7&#45;&gt;Node12 -->
<g id="edge16" class="edge"><title>Node7&#45;&gt;Node12</title>
<path fill="none" stroke="midnightblue" d="M724.906,-793.181C726.373,-790.113 727.759,-787.028 729,-784 753.382,-724.518 756.876,-708.131 769,-645 791.957,-525.458 800.76,-380.695 803.703,-316.685"/>
<polygon fill="none" stroke="midnightblue" points="721.709,-791.749 720.333,-802.254 727.96,-794.9 721.709,-791.749"/>
</g>
<!-- Node13 -->
<g id="node13" class="node"><title>Node13</title>
<g id="a_node13"><a xlink:href="classtvm_1_1Map.html" target="_top" xlink:title="{tvm::Map\&lt; tir::tvm\l::tir::Var, tvm::tir\l::Buffer \&gt;\n||+ Map()\l+ Map()\l+ Map()\l+ Map()\l+ Map()\l+ Map()\l+ Map()\l+ operator=()\l+ operator=()\l+ assign()\land 10 more...\l}">
<polygon fill="white" stroke="black" points="834.5,-455.5 834.5,-644.5 941.5,-644.5 941.5,-455.5 834.5,-455.5"/>
<text text-anchor="start" x="842.5" y="-632.5" font-family="Helvetica,sans-Serif" font-size="10.00">tvm::Map&lt; tir::tvm</text>
<text text-anchor="start" x="842.5" y="-621.5" font-family="Helvetica,sans-Serif" font-size="10.00">::tir::Var, tvm::tir</text>
<text text-anchor="middle" x="888" y="-610.5" font-family="Helvetica,sans-Serif" font-size="10.00">::Buffer &gt;</text>
<polyline fill="none" stroke="black" points="834.5,-603.5 941.5,-603.5 "/>
<text text-anchor="middle" x="888" y="-591.5" font-family="Helvetica,sans-Serif" font-size="10.00"> </text>
<polyline fill="none" stroke="black" points="834.5,-584.5 941.5,-584.5 "/>
<text text-anchor="start" x="842.5" y="-572.5" font-family="Helvetica,sans-Serif" font-size="10.00">+ Map()</text>
<text text-anchor="start" x="842.5" y="-561.5" font-family="Helvetica,sans-Serif" font-size="10.00">+ Map()</text>
<text text-anchor="start" x="842.5" y="-550.5" font-family="Helvetica,sans-Serif" font-size="10.00">+ Map()</text>
<text text-anchor="start" x="842.5" y="-539.5" font-family="Helvetica,sans-Serif" font-size="10.00">+ Map()</text>
<text text-anchor="start" x="842.5" y="-528.5" font-family="Helvetica,sans-Serif" font-size="10.00">+ Map()</text>
<text text-anchor="start" x="842.5" y="-517.5" font-family="Helvetica,sans-Serif" font-size="10.00">+ Map()</text>
<text text-anchor="start" x="842.5" y="-506.5" font-family="Helvetica,sans-Serif" font-size="10.00">+ Map()</text>
<text text-anchor="start" x="842.5" y="-495.5" font-family="Helvetica,sans-Serif" font-size="10.00">+ operator=()</text>
<text text-anchor="start" x="842.5" y="-484.5" font-family="Helvetica,sans-Serif" font-size="10.00">+ operator=()</text>
<text text-anchor="start" x="842.5" y="-473.5" font-family="Helvetica,sans-Serif" font-size="10.00">+ assign()</text>
<text text-anchor="start" x="842.5" y="-462.5" font-family="Helvetica,sans-Serif" font-size="10.00">and 10 more...</text>
</a>
</g>
</g>
<!-- Node7&#45;&gt;Node13 -->
<g id="edge18" class="edge"><title>Node7&#45;&gt;Node13</title>
<path fill="none" stroke="midnightblue" d="M744.532,-819.237C764.459,-812.123 787.467,-800.915 803,-784 838.312,-745.545 859.242,-691.248 871.493,-644.743"/>
<polygon fill="none" stroke="midnightblue" points="743.418,-815.919 735.043,-822.408 745.637,-822.558 743.418,-815.919"/>
</g>
<!-- Node8&#45;&gt;Node1 -->
<g id="edge12" class="edge"><title>Node8&#45;&gt;Node1</title>
<path fill="none" stroke="#404040" d="M627.441,-679.778C615.548,-603.157 590.625,-408.343 615,-248 622.038,-201.702 637.923,-151.291 651.719,-113.189"/>
<polygon fill="none" stroke="#404040" points="651.774,-113.038 650.094,-106.026 655.921,-101.777 657.601,-108.79 651.774,-113.038"/>
<text text-anchor="middle" x="641" y="-280" font-family="Helvetica,sans-Serif" font-size="10.00"> +ret_type</text>
</g>
<!-- Node8&#45;&gt;Node3 -->
<g id="edge7" class="edge"><title>Node8&#45;&gt;Node3</title>
<path fill="none" stroke="#404040" d="M580.373,-679.977C570.125,-674.033 559.347,-668.11 549,-663 529.686,-653.462 521.413,-657.681 504,-645 462.051,-614.451 374.689,-501.25 325.548,-435.385"/>
<polygon fill="none" stroke="#404040" points="325.456,-435.261 318.665,-432.834 318.293,-425.633 325.084,-428.059 325.456,-435.261"/>
<text text-anchor="middle" x="545.5" y="-547.5" font-family="Helvetica,sans-Serif" font-size="10.00"> +checked_type_</text>
</g>
<!-- Node9 -->
<g id="node9" class="node"><title>Node9</title>
<g id="a_node9"><a xlink:href="classtvm_1_1DictAttrs.html" target="_top" xlink:title="Managed reference to DictAttrsNode. ">
<polygon fill="white" stroke="black" points="410,-335.5 410,-436.5 560,-436.5 560,-335.5 410,-335.5"/>
<text text-anchor="middle" x="485" y="-424.5" font-family="Helvetica,sans-Serif" font-size="10.00">tvm::DictAttrs</text>
<polyline fill="none" stroke="black" points="410,-417.5 560,-417.5 "/>
<text text-anchor="middle" x="485" y="-405.5" font-family="Helvetica,sans-Serif" font-size="10.00"> </text>
<polyline fill="none" stroke="black" points="410,-398.5 560,-398.5 "/>
<text text-anchor="start" x="418" y="-386.5" font-family="Helvetica,sans-Serif" font-size="10.00">+ DictAttrs()</text>
<text text-anchor="start" x="418" y="-375.5" font-family="Helvetica,sans-Serif" font-size="10.00">+ TVM_DEFINE_OBJECT_REF</text>
<text text-anchor="start" x="418" y="-364.5" font-family="Helvetica,sans-Serif" font-size="10.00">_METHODS()</text>
<text text-anchor="start" x="418" y="-353.5" font-family="Helvetica,sans-Serif" font-size="10.00">+ TVM_DEFINE_OBJECT_REF</text>
<text text-anchor="start" x="418" y="-342.5" font-family="Helvetica,sans-Serif" font-size="10.00">_COW_METHOD()</text>
</a>
</g>
</g>
<!-- Node9&#45;&gt;Node2 -->
<g id="edge9" class="edge"><title>Node9&#45;&gt;Node2</title>
<path fill="none" stroke="#404040" d="M481.521,-335.429C479.53,-307.055 477.025,-271.357 474.959,-241.913"/>
<polygon fill="none" stroke="#404040" points="474.943,-241.687 470.533,-235.981 474.103,-229.716 478.513,-235.421 474.943,-241.687"/>
<text text-anchor="middle" x="498" y="-280" font-family="Helvetica,sans-Serif" font-size="10.00"> +attrs</text>
</g>
<!-- Node10&#45;&gt;Node9 -->
<g id="edge10" class="edge"><title>Node10&#45;&gt;Node9</title>
<path fill="none" stroke="midnightblue" d="M466.891,-669.939C469.245,-618.695 473.618,-530.558 479,-455 479.421,-449.089 479.906,-442.893 480.415,-436.749"/>
<polygon fill="none" stroke="midnightblue" points="463.392,-669.84 466.434,-679.989 470.385,-670.158 463.392,-669.84"/>
</g>
<!-- Node11&#45;&gt;Node1 -->
<g id="edge13" class="edge"><title>Node11&#45;&gt;Node1</title>
<path fill="none" stroke="#404040" d="M688.951,-460.886C682.311,-417.671 675.279,-364.764 672,-317 669.9,-286.405 671.687,-278.665 672,-248 672.459,-203.011 673.511,-152.221 674.42,-113.618"/>
<polygon fill="none" stroke="#404040" points="674.422,-113.533 670.567,-107.438 674.71,-101.536 678.565,-107.63 674.422,-113.533"/>
<text text-anchor="middle" x="696.5" y="-280" font-family="Helvetica,sans-Serif" font-size="10.00"> +params</text>
</g>
<!-- Node12&#45;&gt;Node1 -->
<g id="edge15" class="edge"><title>Node12&#45;&gt;Node1</title>
<path fill="none" stroke="#404040" d="M786.242,-248.129C766.272,-212.601 734.249,-155.63 709.85,-112.222"/>
<polygon fill="none" stroke="#404040" points="709.704,-111.961 703.277,-108.69 703.824,-101.5 710.25,-104.77 709.704,-111.961"/>
<text text-anchor="middle" x="793.5" y="-182" font-family="Helvetica,sans-Serif" font-size="10.00"> +body</text>
</g>
<!-- Node13&#45;&gt;Node1 -->
<g id="edge17" class="edge"><title>Node13&#45;&gt;Node1</title>
<path fill="none" stroke="#404040" d="M898.091,-455.225C901.618,-394.854 900.653,-315.366 881,-248 865.139,-193.633 854.748,-179.341 815,-139 804.173,-128.011 791.701,-117.777 778.767,-108.469"/>
<polygon fill="none" stroke="#404040" points="778.654,-108.391 771.444,-108.246 768.805,-101.535 776.015,-101.68 778.654,-108.391"/>
<text text-anchor="middle" x="928.5" y="-280" font-family="Helvetica,sans-Serif" font-size="10.00"> +buffer_map</text>
</g>
</g>
</svg>
