<?xml version="1.0" encoding="UTF-8" standalone="no"?>
<!DOCTYPE svg PUBLIC "-//W3C//DTD SVG 1.1//EN"
 "http://www.w3.org/Graphics/SVG/1.1/DTD/svg11.dtd">
<!-- Generated by graphviz version 2.38.0 (20140413.2041)
 -->
<!-- Title: tvm::runtime::ObjectRef Pages: 1 -->
<svg width="1004pt" height="639pt"
 viewBox="0.00 0.00 1003.50 639.00" xmlns="http://www.w3.org/2000/svg" xmlns:xlink="http://www.w3.org/1999/xlink">
<g id="graph0" class="graph" transform="scale(1 1) rotate(0) translate(4 635)">
<title>tvm::runtime::ObjectRef</title>
<polygon fill="white" stroke="none" points="-4,4 -4,-635 999.5,-635 999.5,4 -4,4"/>
<!-- Node1 -->
<g id="node1" class="node"><title>Node1</title>
<polygon fill="#bfbfbf" stroke="black" points="384,-397.5 384,-630.5 514,-630.5 514,-397.5 384,-397.5"/>
<text text-anchor="middle" x="449" y="-618.5" font-family="Helvetica,sans-Serif" font-size="10.00">tvm::runtime::ObjectRef</text>
<polyline fill="none" stroke="black" points="384,-611.5 514,-611.5 "/>
<text text-anchor="start" x="392" y="-599.5" font-family="Helvetica,sans-Serif" font-size="10.00">+ _type_is_nullable</text>
<text text-anchor="start" x="392" y="-588.5" font-family="Helvetica,sans-Serif" font-size="10.00"># data_</text>
<polyline fill="none" stroke="black" points="384,-581.5 514,-581.5 "/>
<text text-anchor="start" x="392" y="-569.5" font-family="Helvetica,sans-Serif" font-size="10.00">+ ObjectRef()</text>
<text text-anchor="start" x="392" y="-558.5" font-family="Helvetica,sans-Serif" font-size="10.00">+ ObjectRef()</text>
<text text-anchor="start" x="392" y="-547.5" font-family="Helvetica,sans-Serif" font-size="10.00">+ same_as()</text>
<text text-anchor="start" x="392" y="-536.5" font-family="Helvetica,sans-Serif" font-size="10.00">+ operator==()</text>
<text text-anchor="start" x="392" y="-525.5" font-family="Helvetica,sans-Serif" font-size="10.00">+ operator!=()</text>
<text text-anchor="start" x="392" y="-514.5" font-family="Helvetica,sans-Serif" font-size="10.00">+ operator&lt;()</text>
<text text-anchor="start" x="392" y="-503.5" font-family="Helvetica,sans-Serif" font-size="10.00">+ defined()</text>
<text text-anchor="start" x="392" y="-492.5" font-family="Helvetica,sans-Serif" font-size="10.00">+ get()</text>
<text text-anchor="start" x="392" y="-481.5" font-family="Helvetica,sans-Serif" font-size="10.00">+ operator&#45;&gt;()</text>
<text text-anchor="start" x="392" y="-470.5" font-family="Helvetica,sans-Serif" font-size="10.00">+ unique()</text>
<text text-anchor="start" x="392" y="-459.5" font-family="Helvetica,sans-Serif" font-size="10.00">+ use_count()</text>
<text text-anchor="start" x="392" y="-448.5" font-family="Helvetica,sans-Serif" font-size="10.00">+ as()</text>
<text text-anchor="start" x="392" y="-437.5" font-family="Helvetica,sans-Serif" font-size="10.00"># get_mutable()</text>
<text text-anchor="start" x="392" y="-426.5" font-family="Helvetica,sans-Serif" font-size="10.00"># DowncastNoCheck()</text>
<text text-anchor="start" x="392" y="-415.5" font-family="Helvetica,sans-Serif" font-size="10.00"># FFIClearAfterMove()</text>
<text text-anchor="start" x="392" y="-404.5" font-family="Helvetica,sans-Serif" font-size="10.00"># GetDataPtr()</text>
</g>
<!-- Node2 -->
<g id="node2" class="node"><title>Node2</title>
<g id="a_node2"><a xlink:href="classtvm_1_1runtime_1_1ADT.html" target="_top" xlink:title="reference to algebraic data type objects. ">
<polygon fill="white" stroke="black" points="-1.42109e-14,-166 -1.42109e-14,-311 150,-311 150,-166 -1.42109e-14,-166"/>
<text text-anchor="middle" x="75" y="-299" font-family="Helvetica,sans-Serif" font-size="10.00">tvm::runtime::ADT</text>
<polyline fill="none" stroke="black" points="-1.42109e-14,-292 150,-292 "/>
<text text-anchor="middle" x="75" y="-280" font-family="Helvetica,sans-Serif" font-size="10.00"> </text>
<polyline fill="none" stroke="black" points="-1.42109e-14,-273 150,-273 "/>
<text text-anchor="start" x="8" y="-261" font-family="Helvetica,sans-Serif" font-size="10.00">+ ADT()</text>
<text text-anchor="start" x="8" y="-250" font-family="Helvetica,sans-Serif" font-size="10.00">+ ADT()</text>
<text text-anchor="start" x="8" y="-239" font-family="Helvetica,sans-Serif" font-size="10.00">+ ADT()</text>
<text text-anchor="start" x="8" y="-228" font-family="Helvetica,sans-Serif" font-size="10.00">+ operator[]()</text>
<text text-anchor="start" x="8" y="-217" font-family="Helvetica,sans-Serif" font-size="10.00">+ tag()</text>
<text text-anchor="start" x="8" y="-206" font-family="Helvetica,sans-Serif" font-size="10.00">+ size()</text>
<text text-anchor="start" x="8" y="-195" font-family="Helvetica,sans-Serif" font-size="10.00">+ TVM_DEFINE_OBJECT_REF</text>
<text text-anchor="start" x="8" y="-184" font-family="Helvetica,sans-Serif" font-size="10.00">_METHODS()</text>
<text text-anchor="start" x="8" y="-173" font-family="Helvetica,sans-Serif" font-size="10.00">+ Tuple()</text>
</a>
</g>
</g>
<!-- Node1&#45;&gt;Node2 -->
<g id="edge1" class="edge"><title>Node1&#45;&gt;Node2</title>
<path fill="none" stroke="midnightblue" d="M374.558,-485.461C312.392,-459.9 223.924,-417.323 160,-361 143.872,-346.789 129.222,-328.923 116.801,-311.297"/>
<polygon fill="none" stroke="midnightblue" points="373.334,-488.742 383.916,-489.262 375.969,-482.256 373.334,-488.742"/>
</g>
<!-- Node3 -->
<g id="node3" class="node"><title>Node3</title>
<g id="a_node3"><a xlink:href="classtvm_1_1runtime_1_1Module.html" target="_top" xlink:title="Module container of TVM. ">
<polygon fill="white" stroke="black" points="168.5,-177 168.5,-300 287.5,-300 287.5,-177 168.5,-177"/>
<text text-anchor="middle" x="228" y="-288" font-family="Helvetica,sans-Serif" font-size="10.00">tvm::runtime::Module</text>
<polyline fill="none" stroke="black" points="168.5,-281 287.5,-281 "/>
<text text-anchor="middle" x="228" y="-269" font-family="Helvetica,sans-Serif" font-size="10.00"> </text>
<polyline fill="none" stroke="black" points="168.5,-262 287.5,-262 "/>
<text text-anchor="start" x="176.5" y="-250" font-family="Helvetica,sans-Serif" font-size="10.00">+ Module()</text>
<text text-anchor="start" x="176.5" y="-239" font-family="Helvetica,sans-Serif" font-size="10.00">+ Module()</text>
<text text-anchor="start" x="176.5" y="-228" font-family="Helvetica,sans-Serif" font-size="10.00">+ GetFunction()</text>
<text text-anchor="start" x="176.5" y="-217" font-family="Helvetica,sans-Serif" font-size="10.00">+ Import()</text>
<text text-anchor="start" x="176.5" y="-206" font-family="Helvetica,sans-Serif" font-size="10.00">+ operator&#45;&gt;()</text>
<text text-anchor="start" x="176.5" y="-195" font-family="Helvetica,sans-Serif" font-size="10.00">+ operator&#45;&gt;()</text>
<text text-anchor="start" x="176.5" y="-184" font-family="Helvetica,sans-Serif" font-size="10.00">+ LoadFromFile()</text>
</a>
</g>
</g>
<!-- Node1&#45;&gt;Node3 -->
<g id="edge2" class="edge"><title>Node1&#45;&gt;Node3</title>
<path fill="none" stroke="midnightblue" d="M376.552,-448.341C349.869,-422.6 320.46,-391.8 297,-361 282.742,-342.281 269.383,-320.304 258.288,-300.225"/>
<polygon fill="none" stroke="midnightblue" points="374.353,-451.081 383.999,-455.463 379.191,-446.022 374.353,-451.081"/>
</g>
<!-- Node4 -->
<g id="node4" class="node"><title>Node4</title>
<g id="a_node4"><a xlink:href="classtvm_1_1runtime_1_1NDArray.html" target="_top" xlink:title="Managed NDArray. The array is backed by reference counted blocks. ">
<polygon fill="white" stroke="black" points="305.5,-116.5 305.5,-360.5 434.5,-360.5 434.5,-116.5 305.5,-116.5"/>
<text text-anchor="middle" x="370" y="-348.5" font-family="Helvetica,sans-Serif" font-size="10.00">tvm::runtime::NDArray</text>
<polyline fill="none" stroke="black" points="305.5,-341.5 434.5,-341.5 "/>
<text text-anchor="middle" x="370" y="-329.5" font-family="Helvetica,sans-Serif" font-size="10.00"> </text>
<polyline fill="none" stroke="black" points="305.5,-322.5 434.5,-322.5 "/>
<text text-anchor="start" x="313.5" y="-310.5" font-family="Helvetica,sans-Serif" font-size="10.00">+ NDArray()</text>
<text text-anchor="start" x="313.5" y="-299.5" font-family="Helvetica,sans-Serif" font-size="10.00">+ NDArray()</text>
<text text-anchor="start" x="313.5" y="-288.5" font-family="Helvetica,sans-Serif" font-size="10.00">+ reset()</text>
<text text-anchor="start" x="313.5" y="-277.5" font-family="Helvetica,sans-Serif" font-size="10.00">+ use_count()</text>
<text text-anchor="start" x="313.5" y="-266.5" font-family="Helvetica,sans-Serif" font-size="10.00">+ operator&#45;&gt;()</text>
<text text-anchor="start" x="313.5" y="-255.5" font-family="Helvetica,sans-Serif" font-size="10.00">+ IsContiguous()</text>
<text text-anchor="start" x="313.5" y="-244.5" font-family="Helvetica,sans-Serif" font-size="10.00">+ CopyFrom()</text>
<text text-anchor="start" x="313.5" y="-233.5" font-family="Helvetica,sans-Serif" font-size="10.00">+ CopyFrom()</text>
<text text-anchor="start" x="313.5" y="-222.5" font-family="Helvetica,sans-Serif" font-size="10.00">+ CopyFromBytes()</text>
<text text-anchor="start" x="313.5" y="-211.5" font-family="Helvetica,sans-Serif" font-size="10.00">+ CopyTo()</text>
<text text-anchor="start" x="313.5" y="-200.5" font-family="Helvetica,sans-Serif" font-size="10.00">and 8 more...</text>
<text text-anchor="start" x="313.5" y="-189.5" font-family="Helvetica,sans-Serif" font-size="10.00">+ Empty()</text>
<text text-anchor="start" x="313.5" y="-178.5" font-family="Helvetica,sans-Serif" font-size="10.00">+ FromDLPack()</text>
<text text-anchor="start" x="313.5" y="-167.5" font-family="Helvetica,sans-Serif" font-size="10.00">+ CopyFromTo()</text>
<text text-anchor="start" x="313.5" y="-156.5" font-family="Helvetica,sans-Serif" font-size="10.00"># get_mutable()</text>
<text text-anchor="start" x="313.5" y="-145.5" font-family="Helvetica,sans-Serif" font-size="10.00"># FFIDataFromHandle()</text>
<text text-anchor="start" x="313.5" y="-134.5" font-family="Helvetica,sans-Serif" font-size="10.00"># FFIDecRef()</text>
<text text-anchor="start" x="313.5" y="-123.5" font-family="Helvetica,sans-Serif" font-size="10.00"># FFIGetHandle()</text>
</a>
</g>
</g>
<!-- Node1&#45;&gt;Node4 -->
<g id="edge3" class="edge"><title>Node1&#45;&gt;Node4</title>
<path fill="none" stroke="midnightblue" d="M412.814,-387.725C410.228,-378.77 407.622,-369.75 405.043,-360.818"/>
<polygon fill="none" stroke="midnightblue" points="409.474,-388.772 415.611,-397.408 416.199,-386.829 409.474,-388.772"/>
</g>
<!-- Node5 -->
<g id="node5" class="node"><title>Node5</title>
<g id="a_node5"><a xlink:href="classtvm_1_1runtime_1_1Optional.html" target="_top" xlink:title="Optional container that to represent to a Nullable variant of T. ">
<polygon fill="white" stroke="black" points="453,-155 453,-322 605,-322 605,-155 453,-155"/>
<text text-anchor="middle" x="529" y="-310" font-family="Helvetica,sans-Serif" font-size="10.00">tvm::runtime::Optional&lt; T &gt;</text>
<polyline fill="none" stroke="black" points="453,-303 605,-303 "/>
<text text-anchor="start" x="461" y="-291" font-family="Helvetica,sans-Serif" font-size="10.00">+ _type_is_nullable</text>
<polyline fill="none" stroke="black" points="453,-284 605,-284 "/>
<text text-anchor="start" x="461" y="-272" font-family="Helvetica,sans-Serif" font-size="10.00">+ Optional()</text>
<text text-anchor="start" x="461" y="-261" font-family="Helvetica,sans-Serif" font-size="10.00">+ Optional()</text>
<text text-anchor="start" x="461" y="-250" font-family="Helvetica,sans-Serif" font-size="10.00">+ Optional()</text>
<text text-anchor="start" x="461" y="-239" font-family="Helvetica,sans-Serif" font-size="10.00">+ operator=()</text>
<text text-anchor="start" x="461" y="-228" font-family="Helvetica,sans-Serif" font-size="10.00">+ operator=()</text>
<text text-anchor="start" x="461" y="-217" font-family="Helvetica,sans-Serif" font-size="10.00">+ Optional()</text>
<text text-anchor="start" x="461" y="-206" font-family="Helvetica,sans-Serif" font-size="10.00">+ Optional()</text>
<text text-anchor="start" x="461" y="-195" font-family="Helvetica,sans-Serif" font-size="10.00">+ operator=()</text>
<text text-anchor="start" x="461" y="-184" font-family="Helvetica,sans-Serif" font-size="10.00">+ Optional()</text>
<text text-anchor="start" x="461" y="-173" font-family="Helvetica,sans-Serif" font-size="10.00">+ operator=()</text>
<text text-anchor="start" x="461" y="-162" font-family="Helvetica,sans-Serif" font-size="10.00">and 13 more...</text>
</a>
</g>
</g>
<!-- Node1&#45;&gt;Node5 -->
<g id="edge4" class="edge"><title>Node1&#45;&gt;Node5</title>
<path fill="none" stroke="midnightblue" d="M485.676,-387.613C492.152,-365.473 498.746,-342.932 504.77,-322.335"/>
<polygon fill="none" stroke="midnightblue" points="482.259,-386.827 482.811,-397.408 488.978,-388.793 482.259,-386.827"/>
</g>
<!-- Node6 -->
<g id="node6" class="node"><title>Node6</title>
<g id="a_node6"><a xlink:href="classtvm_1_1runtime_1_1String.html" target="_top" xlink:title="Reference to string objects. ">
<polygon fill="white" stroke="black" points="623.5,-149.5 623.5,-327.5 736.5,-327.5 736.5,-149.5 623.5,-149.5"/>
<text text-anchor="middle" x="680" y="-315.5" font-family="Helvetica,sans-Serif" font-size="10.00">tvm::runtime::String</text>
<polyline fill="none" stroke="black" points="623.5,-308.5 736.5,-308.5 "/>
<text text-anchor="middle" x="680" y="-296.5" font-family="Helvetica,sans-Serif" font-size="10.00"> </text>
<polyline fill="none" stroke="black" points="623.5,-289.5 736.5,-289.5 "/>
<text text-anchor="start" x="631.5" y="-277.5" font-family="Helvetica,sans-Serif" font-size="10.00">+ String()</text>
<text text-anchor="start" x="631.5" y="-266.5" font-family="Helvetica,sans-Serif" font-size="10.00">+ String()</text>
<text text-anchor="start" x="631.5" y="-255.5" font-family="Helvetica,sans-Serif" font-size="10.00">+ String()</text>
<text text-anchor="start" x="631.5" y="-244.5" font-family="Helvetica,sans-Serif" font-size="10.00">+ operator=()</text>
<text text-anchor="start" x="631.5" y="-233.5" font-family="Helvetica,sans-Serif" font-size="10.00">+ operator==()</text>
<text text-anchor="start" x="631.5" y="-222.5" font-family="Helvetica,sans-Serif" font-size="10.00">+ operator!=()</text>
<text text-anchor="start" x="631.5" y="-211.5" font-family="Helvetica,sans-Serif" font-size="10.00">+ operator==()</text>
<text text-anchor="start" x="631.5" y="-200.5" font-family="Helvetica,sans-Serif" font-size="10.00">+ operator!=()</text>
<text text-anchor="start" x="631.5" y="-189.5" font-family="Helvetica,sans-Serif" font-size="10.00">+ compare()</text>
<text text-anchor="start" x="631.5" y="-178.5" font-family="Helvetica,sans-Serif" font-size="10.00">+ compare()</text>
<text text-anchor="start" x="631.5" y="-167.5" font-family="Helvetica,sans-Serif" font-size="10.00">and 8 more...</text>
<text text-anchor="start" x="631.5" y="-156.5" font-family="Helvetica,sans-Serif" font-size="10.00">+ HashBytes()</text>
</a>
</g>
</g>
<!-- Node1&#45;&gt;Node6 -->
<g id="edge5" class="edge"><title>Node1&#45;&gt;Node6</title>
<path fill="none" stroke="midnightblue" d="M521.81,-455.16C552.535,-428.532 587.294,-395.268 614,-361 622.042,-350.681 629.651,-339.249 636.647,-327.645"/>
<polygon fill="none" stroke="midnightblue" points="519.402,-452.615 514.093,-461.784 523.961,-457.927 519.402,-452.615"/>
</g>
<!-- Node7 -->
<g id="node7" class="node"><title>Node7</title>
<g id="a_node7"><a xlink:href="classtvm_1_1runtime_1_1vm_1_1Closure.html" target="_top" xlink:title="reference to closure. ">
<polygon fill="white" stroke="black" points="755,-204.5 755,-272.5 905,-272.5 905,-204.5 755,-204.5"/>
<text text-anchor="middle" x="830" y="-260.5" font-family="Helvetica,sans-Serif" font-size="10.00">tvm::runtime::vm::Closure</text>
<polyline fill="none" stroke="black" points="755,-253.5 905,-253.5 "/>
<text text-anchor="middle" x="830" y="-241.5" font-family="Helvetica,sans-Serif" font-size="10.00"> </text>
<polyline fill="none" stroke="black" points="755,-234.5 905,-234.5 "/>
<text text-anchor="start" x="763" y="-222.5" font-family="Helvetica,sans-Serif" font-size="10.00">+ TVM_DEFINE_OBJECT_REF</text>
<text text-anchor="start" x="763" y="-211.5" font-family="Helvetica,sans-Serif" font-size="10.00">_METHODS()</text>
</a>
</g>
</g>
<!-- Node1&#45;&gt;Node7 -->
<g id="edge6" class="edge"><title>Node1&#45;&gt;Node7</title>
<path fill="none" stroke="midnightblue" d="M523.801,-486.707C587.84,-461.564 679.903,-418.909 746,-361 774.643,-335.905 798.321,-299.041 813.156,-272.505"/>
<polygon fill="none" stroke="midnightblue" points="522.227,-483.564 514.167,-490.441 524.756,-490.091 522.227,-483.564"/>
</g>
<!-- Node8 -->
<g id="node8" class="node"><title>Node8</title>
<g id="a_node8"><a xlink:href="classtvm_1_1relay_1_1InterpreterClosure.html" target="_top" xlink:title="{tvm::relay::InterpreterClosure\n||+ InterpreterClosure()\l+ TVM_DEFINE_OBJECT_REF\l_METHODS()\l}">
<polygon fill="white" stroke="black" points="663.5,-0.5 663.5,-79.5 820.5,-79.5 820.5,-0.5 663.5,-0.5"/>
<text text-anchor="middle" x="742" y="-67.5" font-family="Helvetica,sans-Serif" font-size="10.00">tvm::relay::InterpreterClosure</text>
<polyline fill="none" stroke="black" points="663.5,-60.5 820.5,-60.5 "/>
<text text-anchor="middle" x="742" y="-48.5" font-family="Helvetica,sans-Serif" font-size="10.00"> </text>
<polyline fill="none" stroke="black" points="663.5,-41.5 820.5,-41.5 "/>
<text text-anchor="start" x="671.5" y="-29.5" font-family="Helvetica,sans-Serif" font-size="10.00">+ InterpreterClosure()</text>
<text text-anchor="start" x="671.5" y="-18.5" font-family="Helvetica,sans-Serif" font-size="10.00">+ TVM_DEFINE_OBJECT_REF</text>
<text text-anchor="start" x="671.5" y="-7.5" font-family="Helvetica,sans-Serif" font-size="10.00">_METHODS()</text>
</a>
</g>
</g>
<!-- Node7&#45;&gt;Node8 -->
<g id="edge7" class="edge"><title>Node7&#45;&gt;Node8</title>
<path fill="none" stroke="midnightblue" d="M810.908,-194.869C795.541,-160.555 774.129,-112.744 759.269,-79.5602"/>
<polygon fill="none" stroke="midnightblue" points="807.79,-196.47 815.072,-204.166 814.179,-193.609 807.79,-196.47"/>
</g>
<!-- Node9 -->
<g id="node9" class="node"><title>Node9</title>
<g id="a_node9"><a xlink:href="classtvm_1_1runtime_1_1vm_1_1VMClosure.html" target="_top" xlink:title="reference to closure. ">
<polygon fill="white" stroke="black" points="838.5,-0.5 838.5,-79.5 995.5,-79.5 995.5,-0.5 838.5,-0.5"/>
<text text-anchor="middle" x="917" y="-67.5" font-family="Helvetica,sans-Serif" font-size="10.00">tvm::runtime::vm::VMClosure</text>
<polyline fill="none" stroke="black" points="838.5,-60.5 995.5,-60.5 "/>
<text text-anchor="middle" x="917" y="-48.5" font-family="Helvetica,sans-Serif" font-size="10.00"> </text>
<polyline fill="none" stroke="black" points="838.5,-41.5 995.5,-41.5 "/>
<text text-anchor="start" x="846.5" y="-29.5" font-family="Helvetica,sans-Serif" font-size="10.00">+ VMClosure()</text>
<text text-anchor="start" x="846.5" y="-18.5" font-family="Helvetica,sans-Serif" font-size="10.00">+ TVM_DEFINE_OBJECT_REF</text>
<text text-anchor="start" x="846.5" y="-7.5" font-family="Helvetica,sans-Serif" font-size="10.00">_METHODS()</text>
</a>
</g>
</g>
<!-- Node7&#45;&gt;Node9 -->
<g id="edge8" class="edge"><title>Node7&#45;&gt;Node9</title>
<path fill="none" stroke="midnightblue" d="M848.875,-194.869C864.067,-160.555 885.236,-112.744 899.928,-79.5602"/>
<polygon fill="none" stroke="midnightblue" points="845.606,-193.606 844.758,-204.166 852.007,-196.44 845.606,-193.606"/>
</g>
</g>
</svg>
