<?xml version="1.0" encoding="UTF-8" standalone="no"?>
<!DOCTYPE svg PUBLIC "-//W3C//DTD SVG 1.1//EN"
 "http://www.w3.org/Graphics/SVG/1.1/DTD/svg11.dtd">
<!-- Generated by graphviz version 2.38.0 (20140413.2041)
 -->
<!-- Title: tvm::tir::EvaluateNode Pages: 1 -->
<svg width="380pt" height="460pt"
 viewBox="0.00 0.00 380.00 460.00" xmlns="http://www.w3.org/2000/svg" xmlns:xlink="http://www.w3.org/1999/xlink">
<g id="graph0" class="graph" transform="scale(1 1) rotate(0) translate(4 456)">
<title>tvm::tir::EvaluateNode</title>
<polygon fill="white" stroke="none" points="-4,4 -4,-456 376,-456 376,4 -4,4"/>
<!-- Node1 -->
<g id="node1" class="node"><title>Node1</title>
<polygon fill="#bfbfbf" stroke="black" points="116.5,-0.5 116.5,-101.5 321.5,-101.5 321.5,-0.5 116.5,-0.5"/>
<text text-anchor="middle" x="219" y="-89.5" font-family="Helvetica,sans-Serif" font-size="10.00">tvm::tir::EvaluateNode</text>
<polyline fill="none" stroke="black" points="116.5,-82.5 321.5,-82.5 "/>
<text text-anchor="start" x="124.5" y="-70.5" font-family="Helvetica,sans-Serif" font-size="10.00">+ _type_key</text>
<polyline fill="none" stroke="black" points="116.5,-63.5 321.5,-63.5 "/>
<text text-anchor="start" x="124.5" y="-51.5" font-family="Helvetica,sans-Serif" font-size="10.00">+ VisitAttrs()</text>
<text text-anchor="start" x="124.5" y="-40.5" font-family="Helvetica,sans-Serif" font-size="10.00">+ SEqualReduce()</text>
<text text-anchor="start" x="124.5" y="-29.5" font-family="Helvetica,sans-Serif" font-size="10.00">+ SHashReduce()</text>
<text text-anchor="start" x="124.5" y="-18.5" font-family="Helvetica,sans-Serif" font-size="10.00">+ TVM_DECLARE_FINAL_OBJECT_INFO()</text>
<text text-anchor="start" x="124.5" y="-7.5" font-family="Helvetica,sans-Serif" font-size="10.00">+ make()</text>
</g>
<!-- Node2 -->
<g id="node2" class="node"><title>Node2</title>
<g id="a_node2"><a xlink:href="classtvm_1_1tir_1_1StmtNode.html" target="_top" xlink:title="Base node of all statements. ">
<polygon fill="white" stroke="black" points="0,-149.5 0,-250.5 204,-250.5 204,-149.5 0,-149.5"/>
<text text-anchor="middle" x="102" y="-238.5" font-family="Helvetica,sans-Serif" font-size="10.00">tvm::tir::StmtNode</text>
<polyline fill="none" stroke="black" points="0,-231.5 204,-231.5 "/>
<text text-anchor="start" x="8" y="-219.5" font-family="Helvetica,sans-Serif" font-size="10.00">+ _type_key</text>
<text text-anchor="start" x="8" y="-208.5" font-family="Helvetica,sans-Serif" font-size="10.00">+ _type_has_method_sequal</text>
<text text-anchor="start" x="8" y="-197.5" font-family="Helvetica,sans-Serif" font-size="10.00">_reduce</text>
<text text-anchor="start" x="8" y="-186.5" font-family="Helvetica,sans-Serif" font-size="10.00">+ _type_has_method_shash</text>
<text text-anchor="start" x="8" y="-175.5" font-family="Helvetica,sans-Serif" font-size="10.00">_reduce</text>
<polyline fill="none" stroke="black" points="0,-168.5 204,-168.5 "/>
<text text-anchor="start" x="8" y="-156.5" font-family="Helvetica,sans-Serif" font-size="10.00">+ TVM_DECLARE_BASE_OBJECT_INFO()</text>
</a>
</g>
</g>
<!-- Node2&#45;&gt;Node1 -->
<g id="edge1" class="edge"><title>Node2&#45;&gt;Node1</title>
<path fill="none" stroke="midnightblue" d="M147.997,-141.209C158.388,-128.154 169.331,-114.405 179.43,-101.716"/>
<polygon fill="none" stroke="midnightblue" points="145.1,-139.229 141.611,-149.233 150.577,-143.588 145.1,-139.229"/>
</g>
<!-- Node3 -->
<g id="node3" class="node"><title>Node3</title>
<polygon fill="white" stroke="#bfbfbf" points="78.5,-294 78.5,-351 125.5,-351 125.5,-294 78.5,-294"/>
<text text-anchor="middle" x="102" y="-339" font-family="Helvetica,sans-Serif" font-size="10.00">Object</text>
<polyline fill="none" stroke="#bfbfbf" points="78.5,-332 125.5,-332 "/>
<text text-anchor="middle" x="102" y="-320" font-family="Helvetica,sans-Serif" font-size="10.00"> </text>
<polyline fill="none" stroke="#bfbfbf" points="78.5,-313 125.5,-313 "/>
<text text-anchor="middle" x="102" y="-301" font-family="Helvetica,sans-Serif" font-size="10.00"> </text>
</g>
<!-- Node3&#45;&gt;Node2 -->
<g id="edge2" class="edge"><title>Node3&#45;&gt;Node2</title>
<path fill="none" stroke="midnightblue" d="M102,-283.798C102,-273.33 102,-261.801 102,-250.757"/>
<polygon fill="none" stroke="midnightblue" points="98.5001,-283.855 102,-293.855 105.5,-283.855 98.5001,-283.855"/>
</g>
<!-- Node4 -->
<g id="node4" class="node"><title>Node4</title>
<g id="a_node4"><a xlink:href="classtvm_1_1PrimExpr.html" target="_top" xlink:title="Reference to PrimExprNode. ">
<polygon fill="white" stroke="black" points="222,-149.5 222,-250.5 372,-250.5 372,-149.5 222,-149.5"/>
<text text-anchor="middle" x="297" y="-238.5" font-family="Helvetica,sans-Serif" font-size="10.00">tvm::PrimExpr</text>
<polyline fill="none" stroke="black" points="222,-231.5 372,-231.5 "/>
<text text-anchor="middle" x="297" y="-219.5" font-family="Helvetica,sans-Serif" font-size="10.00"> </text>
<polyline fill="none" stroke="black" points="222,-212.5 372,-212.5 "/>
<text text-anchor="start" x="230" y="-200.5" font-family="Helvetica,sans-Serif" font-size="10.00">+ PrimExpr()</text>
<text text-anchor="start" x="230" y="-189.5" font-family="Helvetica,sans-Serif" font-size="10.00">+ PrimExpr()</text>
<text text-anchor="start" x="230" y="-178.5" font-family="Helvetica,sans-Serif" font-size="10.00">+ dtype()</text>
<text text-anchor="start" x="230" y="-167.5" font-family="Helvetica,sans-Serif" font-size="10.00">+ TVM_DEFINE_OBJECT_REF</text>
<text text-anchor="start" x="230" y="-156.5" font-family="Helvetica,sans-Serif" font-size="10.00">_METHODS()</text>
</a>
</g>
</g>
<!-- Node4&#45;&gt;Node1 -->
<g id="edge3" class="edge"><title>Node4&#45;&gt;Node1</title>
<path fill="none" stroke="#404040" d="M270.593,-149.233C264.303,-137.379 257.524,-124.603 251.013,-112.333"/>
<polygon fill="none" stroke="#404040" points="251.005,-112.316 244.659,-108.891 245.38,-101.716 251.726,-105.141 251.005,-112.316"/>
<text text-anchor="middle" x="278.5" y="-123" font-family="Helvetica,sans-Serif" font-size="10.00"> +value</text>
</g>
<!-- Node5 -->
<g id="node5" class="node"><title>Node5</title>
<g id="a_node5"><a xlink:href="classtvm_1_1BaseExpr.html" target="_top" xlink:title="Managed reference to BaseExprNode. ">
<polygon fill="white" stroke="black" points="222,-288.5 222,-356.5 372,-356.5 372,-288.5 222,-288.5"/>
<text text-anchor="middle" x="297" y="-344.5" font-family="Helvetica,sans-Serif" font-size="10.00">tvm::BaseExpr</text>
<polyline fill="none" stroke="black" points="222,-337.5 372,-337.5 "/>
<text text-anchor="middle" x="297" y="-325.5" font-family="Helvetica,sans-Serif" font-size="10.00"> </text>
<polyline fill="none" stroke="black" points="222,-318.5 372,-318.5 "/>
<text text-anchor="start" x="230" y="-306.5" font-family="Helvetica,sans-Serif" font-size="10.00">+ TVM_DEFINE_OBJECT_REF</text>
<text text-anchor="start" x="230" y="-295.5" font-family="Helvetica,sans-Serif" font-size="10.00">_METHODS()</text>
</a>
</g>
</g>
<!-- Node5&#45;&gt;Node4 -->
<g id="edge4" class="edge"><title>Node5&#45;&gt;Node4</title>
<path fill="none" stroke="midnightblue" d="M297,-278.151C297,-269.293 297,-259.906 297,-250.842"/>
<polygon fill="none" stroke="midnightblue" points="293.5,-278.254 297,-288.254 300.5,-278.254 293.5,-278.254"/>
</g>
<!-- Node6 -->
<g id="node6" class="node"><title>Node6</title>
<polygon fill="white" stroke="#bfbfbf" points="266,-394.5 266,-451.5 328,-451.5 328,-394.5 266,-394.5"/>
<text text-anchor="middle" x="297" y="-439.5" font-family="Helvetica,sans-Serif" font-size="10.00">ObjectRef</text>
<polyline fill="none" stroke="#bfbfbf" points="266,-432.5 328,-432.5 "/>
<text text-anchor="middle" x="297" y="-420.5" font-family="Helvetica,sans-Serif" font-size="10.00"> </text>
<polyline fill="none" stroke="#bfbfbf" points="266,-413.5 328,-413.5 "/>
<text text-anchor="middle" x="297" y="-401.5" font-family="Helvetica,sans-Serif" font-size="10.00"> </text>
</g>
<!-- Node6&#45;&gt;Node5 -->
<g id="edge5" class="edge"><title>Node6&#45;&gt;Node5</title>
<path fill="none" stroke="midnightblue" d="M297,-384.007C297,-374.962 297,-365.383 297,-356.578"/>
<polygon fill="none" stroke="midnightblue" points="293.5,-384.3 297,-394.3 300.5,-384.3 293.5,-384.3"/>
</g>
</g>
</svg>
