<?xml version="1.0" encoding="UTF-8" standalone="no"?>
<!DOCTYPE svg PUBLIC "-//W3C//DTD SVG 1.1//EN"
 "http://www.w3.org/Graphics/SVG/1.1/DTD/svg11.dtd">
<!-- Generated by graphviz version 2.38.0 (20140413.2041)
 -->
<!-- Title: tvm::tir::NotNode Pages: 1 -->
<svg width="530pt" height="635pt"
 viewBox="0.00 0.00 530.00 635.00" xmlns="http://www.w3.org/2000/svg" xmlns:xlink="http://www.w3.org/1999/xlink">
<g id="graph0" class="graph" transform="scale(1 1) rotate(0) translate(4 631)">
<title>tvm::tir::NotNode</title>
<polygon fill="white" stroke="none" points="-4,4 -4,-631 526,-631 526,4 -4,4"/>
<!-- Node1 -->
<g id="node1" class="node"><title>Node1</title>
<polygon fill="#bfbfbf" stroke="black" points="266.5,-0.5 266.5,-101.5 471.5,-101.5 471.5,-0.5 266.5,-0.5"/>
<text text-anchor="middle" x="369" y="-89.5" font-family="Helvetica,sans-Serif" font-size="10.00">tvm::tir::NotNode</text>
<polyline fill="none" stroke="black" points="266.5,-82.5 471.5,-82.5 "/>
<text text-anchor="start" x="274.5" y="-70.5" font-family="Helvetica,sans-Serif" font-size="10.00">+ _type_key</text>
<polyline fill="none" stroke="black" points="266.5,-63.5 471.5,-63.5 "/>
<text text-anchor="start" x="274.5" y="-51.5" font-family="Helvetica,sans-Serif" font-size="10.00">+ VisitAttrs()</text>
<text text-anchor="start" x="274.5" y="-40.5" font-family="Helvetica,sans-Serif" font-size="10.00">+ SEqualReduce()</text>
<text text-anchor="start" x="274.5" y="-29.5" font-family="Helvetica,sans-Serif" font-size="10.00">+ SHashReduce()</text>
<text text-anchor="start" x="274.5" y="-18.5" font-family="Helvetica,sans-Serif" font-size="10.00">+ TVM_DECLARE_FINAL_OBJECT_INFO()</text>
<text text-anchor="start" x="274.5" y="-7.5" font-family="Helvetica,sans-Serif" font-size="10.00">+ make()</text>
</g>
<!-- Node2 -->
<g id="node2" class="node"><title>Node2</title>
<g id="a_node2"><a xlink:href="classtvm_1_1PrimExprNode.html" target="_top" xlink:title="Base node of all primitive expressions. ">
<polygon fill="white" stroke="black" points="150,-171.5 150,-228.5 354,-228.5 354,-171.5 150,-171.5"/>
<text text-anchor="middle" x="252" y="-216.5" font-family="Helvetica,sans-Serif" font-size="10.00">tvm::PrimExprNode</text>
<polyline fill="none" stroke="black" points="150,-209.5 354,-209.5 "/>
<text text-anchor="start" x="158" y="-197.5" font-family="Helvetica,sans-Serif" font-size="10.00">+ _type_key</text>
<polyline fill="none" stroke="black" points="150,-190.5 354,-190.5 "/>
<text text-anchor="start" x="158" y="-178.5" font-family="Helvetica,sans-Serif" font-size="10.00">+ TVM_DECLARE_BASE_OBJECT_INFO()</text>
</a>
</g>
</g>
<!-- Node2&#45;&gt;Node1 -->
<g id="edge1" class="edge"><title>Node2&#45;&gt;Node1</title>
<path fill="none" stroke="midnightblue" d="M280.318,-163.421C295.099,-144.85 313.421,-121.83 329.568,-101.543"/>
<polygon fill="none" stroke="midnightblue" points="277.496,-161.347 274.007,-171.35 282.973,-165.706 277.496,-161.347"/>
</g>
<!-- Node3 -->
<g id="node3" class="node"><title>Node3</title>
<g id="a_node3"><a xlink:href="classtvm_1_1BaseExprNode.html" target="_top" xlink:title="Base type of all the expressions. ">
<polygon fill="white" stroke="black" points="0,-364.5 0,-465.5 204,-465.5 204,-364.5 0,-364.5"/>
<text text-anchor="middle" x="102" y="-453.5" font-family="Helvetica,sans-Serif" font-size="10.00">tvm::BaseExprNode</text>
<polyline fill="none" stroke="black" points="0,-446.5 204,-446.5 "/>
<text text-anchor="start" x="8" y="-434.5" font-family="Helvetica,sans-Serif" font-size="10.00">+ _type_key</text>
<text text-anchor="start" x="8" y="-423.5" font-family="Helvetica,sans-Serif" font-size="10.00">+ _type_has_method_sequal</text>
<text text-anchor="start" x="8" y="-412.5" font-family="Helvetica,sans-Serif" font-size="10.00">_reduce</text>
<text text-anchor="start" x="8" y="-401.5" font-family="Helvetica,sans-Serif" font-size="10.00">+ _type_has_method_shash</text>
<text text-anchor="start" x="8" y="-390.5" font-family="Helvetica,sans-Serif" font-size="10.00">_reduce</text>
<polyline fill="none" stroke="black" points="0,-383.5 204,-383.5 "/>
<text text-anchor="start" x="8" y="-371.5" font-family="Helvetica,sans-Serif" font-size="10.00">+ TVM_DECLARE_BASE_OBJECT_INFO()</text>
</a>
</g>
</g>
<!-- Node3&#45;&gt;Node2 -->
<g id="edge2" class="edge"><title>Node3&#45;&gt;Node2</title>
<path fill="none" stroke="midnightblue" d="M142.878,-355.954C172.06,-314.515 210.001,-260.639 232.594,-228.556"/>
<polygon fill="none" stroke="midnightblue" points="139.875,-354.138 136.979,-364.33 145.598,-358.169 139.875,-354.138"/>
</g>
<!-- Node4 -->
<g id="node4" class="node"><title>Node4</title>
<polygon fill="white" stroke="#bfbfbf" points="78.5,-569.5 78.5,-626.5 125.5,-626.5 125.5,-569.5 78.5,-569.5"/>
<text text-anchor="middle" x="102" y="-614.5" font-family="Helvetica,sans-Serif" font-size="10.00">Object</text>
<polyline fill="none" stroke="#bfbfbf" points="78.5,-607.5 125.5,-607.5 "/>
<text text-anchor="middle" x="102" y="-595.5" font-family="Helvetica,sans-Serif" font-size="10.00"> </text>
<polyline fill="none" stroke="#bfbfbf" points="78.5,-588.5 125.5,-588.5 "/>
<text text-anchor="middle" x="102" y="-576.5" font-family="Helvetica,sans-Serif" font-size="10.00"> </text>
</g>
<!-- Node4&#45;&gt;Node3 -->
<g id="edge3" class="edge"><title>Node4&#45;&gt;Node3</title>
<path fill="none" stroke="midnightblue" d="M102,-558.876C102,-531.799 102,-495.183 102,-465.799"/>
<polygon fill="none" stroke="midnightblue" points="98.5001,-559.115 102,-569.115 105.5,-559.115 98.5001,-559.115"/>
</g>
<!-- Node5 -->
<g id="node5" class="node"><title>Node5</title>
<g id="a_node5"><a xlink:href="classtvm_1_1runtime_1_1DataType.html" target="_top" xlink:title="Runtime primitive data type. ">
<polygon fill="white" stroke="black" points="222.5,-298.5 222.5,-531.5 351.5,-531.5 351.5,-298.5 222.5,-298.5"/>
<text text-anchor="middle" x="287" y="-519.5" font-family="Helvetica,sans-Serif" font-size="10.00">tvm::runtime::DataType</text>
<polyline fill="none" stroke="black" points="222.5,-512.5 351.5,-512.5 "/>
<text text-anchor="middle" x="287" y="-500.5" font-family="Helvetica,sans-Serif" font-size="10.00"> </text>
<polyline fill="none" stroke="black" points="222.5,-493.5 351.5,-493.5 "/>
<text text-anchor="start" x="230.5" y="-481.5" font-family="Helvetica,sans-Serif" font-size="10.00">+ DataType()</text>
<text text-anchor="start" x="230.5" y="-470.5" font-family="Helvetica,sans-Serif" font-size="10.00">+ DataType()</text>
<text text-anchor="start" x="230.5" y="-459.5" font-family="Helvetica,sans-Serif" font-size="10.00">+ DataType()</text>
<text text-anchor="start" x="230.5" y="-448.5" font-family="Helvetica,sans-Serif" font-size="10.00">+ code()</text>
<text text-anchor="start" x="230.5" y="-437.5" font-family="Helvetica,sans-Serif" font-size="10.00">+ bits()</text>
<text text-anchor="start" x="230.5" y="-426.5" font-family="Helvetica,sans-Serif" font-size="10.00">+ bytes()</text>
<text text-anchor="start" x="230.5" y="-415.5" font-family="Helvetica,sans-Serif" font-size="10.00">+ lanes()</text>
<text text-anchor="start" x="230.5" y="-404.5" font-family="Helvetica,sans-Serif" font-size="10.00">+ is_scalar()</text>
<text text-anchor="start" x="230.5" y="-393.5" font-family="Helvetica,sans-Serif" font-size="10.00">+ is_bool()</text>
<text text-anchor="start" x="230.5" y="-382.5" font-family="Helvetica,sans-Serif" font-size="10.00">+ is_float()</text>
<text text-anchor="start" x="230.5" y="-371.5" font-family="Helvetica,sans-Serif" font-size="10.00">and 12 more...</text>
<text text-anchor="start" x="230.5" y="-360.5" font-family="Helvetica,sans-Serif" font-size="10.00">+ Int()</text>
<text text-anchor="start" x="230.5" y="-349.5" font-family="Helvetica,sans-Serif" font-size="10.00">+ UInt()</text>
<text text-anchor="start" x="230.5" y="-338.5" font-family="Helvetica,sans-Serif" font-size="10.00">+ Float()</text>
<text text-anchor="start" x="230.5" y="-327.5" font-family="Helvetica,sans-Serif" font-size="10.00">+ Bool()</text>
<text text-anchor="start" x="230.5" y="-316.5" font-family="Helvetica,sans-Serif" font-size="10.00">+ Handle()</text>
<text text-anchor="start" x="230.5" y="-305.5" font-family="Helvetica,sans-Serif" font-size="10.00">+ ShapeIndex()</text>
</a>
</g>
</g>
<!-- Node5&#45;&gt;Node2 -->
<g id="edge4" class="edge"><title>Node5&#45;&gt;Node2</title>
<path fill="none" stroke="#404040" d="M268.015,-298.461C264.608,-277.731 261.278,-257.461 258.544,-240.823"/>
<polygon fill="none" stroke="#404040" points="258.524,-240.702 253.604,-235.43 256.578,-228.861 261.498,-234.133 258.524,-240.702"/>
<text text-anchor="middle" x="284.5" y="-272" font-family="Helvetica,sans-Serif" font-size="10.00"> +dtype</text>
</g>
<!-- Node6 -->
<g id="node6" class="node"><title>Node6</title>
<g id="a_node6"><a xlink:href="classtvm_1_1PrimExpr.html" target="_top" xlink:title="Reference to PrimExprNode. ">
<polygon fill="white" stroke="black" points="372,-149.5 372,-250.5 522,-250.5 522,-149.5 372,-149.5"/>
<text text-anchor="middle" x="447" y="-238.5" font-family="Helvetica,sans-Serif" font-size="10.00">tvm::PrimExpr</text>
<polyline fill="none" stroke="black" points="372,-231.5 522,-231.5 "/>
<text text-anchor="middle" x="447" y="-219.5" font-family="Helvetica,sans-Serif" font-size="10.00"> </text>
<polyline fill="none" stroke="black" points="372,-212.5 522,-212.5 "/>
<text text-anchor="start" x="380" y="-200.5" font-family="Helvetica,sans-Serif" font-size="10.00">+ PrimExpr()</text>
<text text-anchor="start" x="380" y="-189.5" font-family="Helvetica,sans-Serif" font-size="10.00">+ PrimExpr()</text>
<text text-anchor="start" x="380" y="-178.5" font-family="Helvetica,sans-Serif" font-size="10.00">+ dtype()</text>
<text text-anchor="start" x="380" y="-167.5" font-family="Helvetica,sans-Serif" font-size="10.00">+ TVM_DEFINE_OBJECT_REF</text>
<text text-anchor="start" x="380" y="-156.5" font-family="Helvetica,sans-Serif" font-size="10.00">_METHODS()</text>
</a>
</g>
</g>
<!-- Node6&#45;&gt;Node1 -->
<g id="edge5" class="edge"><title>Node6&#45;&gt;Node1</title>
<path fill="none" stroke="#404040" d="M420.593,-149.233C414.303,-137.379 407.524,-124.603 401.013,-112.333"/>
<polygon fill="none" stroke="#404040" points="401.005,-112.316 394.659,-108.891 395.38,-101.716 401.726,-105.141 401.005,-112.316"/>
<text text-anchor="middle" x="420" y="-123" font-family="Helvetica,sans-Serif" font-size="10.00"> +a</text>
</g>
<!-- Node7 -->
<g id="node7" class="node"><title>Node7</title>
<g id="a_node7"><a xlink:href="classtvm_1_1BaseExpr.html" target="_top" xlink:title="Managed reference to BaseExprNode. ">
<polygon fill="white" stroke="black" points="372,-381 372,-449 522,-449 522,-381 372,-381"/>
<text text-anchor="middle" x="447" y="-437" font-family="Helvetica,sans-Serif" font-size="10.00">tvm::BaseExpr</text>
<polyline fill="none" stroke="black" points="372,-430 522,-430 "/>
<text text-anchor="middle" x="447" y="-418" font-family="Helvetica,sans-Serif" font-size="10.00"> </text>
<polyline fill="none" stroke="black" points="372,-411 522,-411 "/>
<text text-anchor="start" x="380" y="-399" font-family="Helvetica,sans-Serif" font-size="10.00">+ TVM_DEFINE_OBJECT_REF</text>
<text text-anchor="start" x="380" y="-388" font-family="Helvetica,sans-Serif" font-size="10.00">_METHODS()</text>
</a>
</g>
</g>
<!-- Node7&#45;&gt;Node6 -->
<g id="edge6" class="edge"><title>Node7&#45;&gt;Node6</title>
<path fill="none" stroke="midnightblue" d="M447,-370.406C447,-335.642 447,-286.938 447,-250.67"/>
<polygon fill="none" stroke="midnightblue" points="443.5,-370.719 447,-380.719 450.5,-370.719 443.5,-370.719"/>
</g>
<!-- Node8 -->
<g id="node8" class="node"><title>Node8</title>
<polygon fill="white" stroke="#bfbfbf" points="416,-569.5 416,-626.5 478,-626.5 478,-569.5 416,-569.5"/>
<text text-anchor="middle" x="447" y="-614.5" font-family="Helvetica,sans-Serif" font-size="10.00">ObjectRef</text>
<polyline fill="none" stroke="#bfbfbf" points="416,-607.5 478,-607.5 "/>
<text text-anchor="middle" x="447" y="-595.5" font-family="Helvetica,sans-Serif" font-size="10.00"> </text>
<polyline fill="none" stroke="#bfbfbf" points="416,-588.5 478,-588.5 "/>
<text text-anchor="middle" x="447" y="-576.5" font-family="Helvetica,sans-Serif" font-size="10.00"> </text>
</g>
<!-- Node8&#45;&gt;Node7 -->
<g id="edge7" class="edge"><title>Node8&#45;&gt;Node7</title>
<path fill="none" stroke="midnightblue" d="M447,-559.083C447,-526.57 447,-480.192 447,-449.141"/>
<polygon fill="none" stroke="midnightblue" points="443.5,-559.115 447,-569.115 450.5,-559.115 443.5,-559.115"/>
</g>
</g>
</svg>
