<?xml version="1.0" encoding="UTF-8" standalone="no"?>
<!DOCTYPE svg PUBLIC "-//W3C//DTD SVG 1.1//EN"
 "http://www.w3.org/Graphics/SVG/1.1/DTD/svg11.dtd">
<!-- Generated by graphviz version 2.38.0 (20140413.2041)
 -->
<!-- Title: tvm::te::ScanOpNode Pages: 1 -->
<svg width="548pt" height="924pt"
 viewBox="0.00 0.00 547.50 924.00" xmlns="http://www.w3.org/2000/svg" xmlns:xlink="http://www.w3.org/1999/xlink">
<g id="graph0" class="graph" transform="scale(1 1) rotate(0) translate(4 920)">
<title>tvm::te::ScanOpNode</title>
<polygon fill="white" stroke="none" points="-4,4 -4,-920 543.5,-920 543.5,4 -4,4"/>
<!-- Node1 -->
<g id="node1" class="node"><title>Node1</title>
<polygon fill="#bfbfbf" stroke="black" points="185.5,-0.5 185.5,-200.5 390.5,-200.5 390.5,-0.5 185.5,-0.5"/>
<text text-anchor="middle" x="288" y="-188.5" font-family="Helvetica,sans-Serif" font-size="10.00">tvm::te::ScanOpNode</text>
<polyline fill="none" stroke="black" points="185.5,-181.5 390.5,-181.5 "/>
<text text-anchor="start" x="193.5" y="-169.5" font-family="Helvetica,sans-Serif" font-size="10.00">+ _type_key</text>
<polyline fill="none" stroke="black" points="185.5,-162.5 390.5,-162.5 "/>
<text text-anchor="start" x="193.5" y="-150.5" font-family="Helvetica,sans-Serif" font-size="10.00">+ ScanOpNode()</text>
<text text-anchor="start" x="193.5" y="-139.5" font-family="Helvetica,sans-Serif" font-size="10.00">+ num_outputs()</text>
<text text-anchor="start" x="193.5" y="-128.5" font-family="Helvetica,sans-Serif" font-size="10.00">+ root_iter_vars()</text>
<text text-anchor="start" x="193.5" y="-117.5" font-family="Helvetica,sans-Serif" font-size="10.00">+ output_dtype()</text>
<text text-anchor="start" x="193.5" y="-106.5" font-family="Helvetica,sans-Serif" font-size="10.00">+ output_shape()</text>
<text text-anchor="start" x="193.5" y="-95.5" font-family="Helvetica,sans-Serif" font-size="10.00">+ InputTensors()</text>
<text text-anchor="start" x="193.5" y="-84.5" font-family="Helvetica,sans-Serif" font-size="10.00">+ ReplaceInputs()</text>
<text text-anchor="start" x="193.5" y="-73.5" font-family="Helvetica,sans-Serif" font-size="10.00">+ PropBoundToInputs()</text>
<text text-anchor="start" x="193.5" y="-62.5" font-family="Helvetica,sans-Serif" font-size="10.00">+ GatherBound()</text>
<text text-anchor="start" x="193.5" y="-51.5" font-family="Helvetica,sans-Serif" font-size="10.00">+ BuildRealize()</text>
<text text-anchor="start" x="193.5" y="-40.5" font-family="Helvetica,sans-Serif" font-size="10.00">+ BuildProvide()</text>
<text text-anchor="start" x="193.5" y="-29.5" font-family="Helvetica,sans-Serif" font-size="10.00">+ VisitAttrs()</text>
<text text-anchor="start" x="193.5" y="-18.5" font-family="Helvetica,sans-Serif" font-size="10.00">+ TVM_DECLARE_FINAL_OBJECT_INFO()</text>
<text text-anchor="start" x="193.5" y="-7.5" font-family="Helvetica,sans-Serif" font-size="10.00">+ make()</text>
</g>
<!-- Node2 -->
<g id="node2" class="node"><title>Node2</title>
<g id="a_node2"><a xlink:href="classtvm_1_1te_1_1OperationNode.html" target="_top" xlink:title="Base class of all operation nodes. ">
<polygon fill="white" stroke="black" points="1,-281.5 1,-470.5 205,-470.5 205,-281.5 1,-281.5"/>
<text text-anchor="middle" x="103" y="-458.5" font-family="Helvetica,sans-Serif" font-size="10.00">tvm::te::OperationNode</text>
<polyline fill="none" stroke="black" points="1,-451.5 205,-451.5 "/>
<text text-anchor="start" x="9" y="-439.5" font-family="Helvetica,sans-Serif" font-size="10.00">+ name</text>
<text text-anchor="start" x="9" y="-428.5" font-family="Helvetica,sans-Serif" font-size="10.00">+ tag</text>
<text text-anchor="start" x="9" y="-417.5" font-family="Helvetica,sans-Serif" font-size="10.00">+ _type_key</text>
<polyline fill="none" stroke="black" points="1,-410.5 205,-410.5 "/>
<text text-anchor="start" x="9" y="-398.5" font-family="Helvetica,sans-Serif" font-size="10.00">+ func_name()</text>
<text text-anchor="start" x="9" y="-387.5" font-family="Helvetica,sans-Serif" font-size="10.00">+ root_iter_vars()</text>
<text text-anchor="start" x="9" y="-376.5" font-family="Helvetica,sans-Serif" font-size="10.00">+ output_dtype()</text>
<text text-anchor="start" x="9" y="-365.5" font-family="Helvetica,sans-Serif" font-size="10.00">+ output_shape()</text>
<text text-anchor="start" x="9" y="-354.5" font-family="Helvetica,sans-Serif" font-size="10.00">+ InputTensors()</text>
<text text-anchor="start" x="9" y="-343.5" font-family="Helvetica,sans-Serif" font-size="10.00">+ ReplaceInputs()</text>
<text text-anchor="start" x="9" y="-332.5" font-family="Helvetica,sans-Serif" font-size="10.00">+ PropBoundToInputs()</text>
<text text-anchor="start" x="9" y="-321.5" font-family="Helvetica,sans-Serif" font-size="10.00">+ GatherBound()</text>
<text text-anchor="start" x="9" y="-310.5" font-family="Helvetica,sans-Serif" font-size="10.00">+ BuildRealize()</text>
<text text-anchor="start" x="9" y="-299.5" font-family="Helvetica,sans-Serif" font-size="10.00">+ BuildProvide()</text>
<text text-anchor="start" x="9" y="-288.5" font-family="Helvetica,sans-Serif" font-size="10.00">+ TVM_DECLARE_BASE_OBJECT_INFO()</text>
</a>
</g>
</g>
<!-- Node2&#45;&gt;Node1 -->
<g id="edge1" class="edge"><title>Node2&#45;&gt;Node1</title>
<path fill="none" stroke="midnightblue" d="M172.016,-272.968C188.001,-249.337 204.987,-224.225 220.888,-200.717"/>
<polygon fill="none" stroke="midnightblue" points="169.111,-271.015 166.408,-281.259 174.91,-274.937 169.111,-271.015"/>
</g>
<!-- Node3 -->
<g id="node3" class="node"><title>Node3</title>
<g id="a_node3"><a xlink:href="classtvm_1_1tir_1_1FunctionBaseNode.html" target="_top" xlink:title="Base node of internal functions. ">
<polygon fill="white" stroke="black" points="0,-686.5 0,-820.5 156,-820.5 156,-686.5 0,-686.5"/>
<text text-anchor="middle" x="78" y="-808.5" font-family="Helvetica,sans-Serif" font-size="10.00">tvm::tir::FunctionBaseNode</text>
<polyline fill="none" stroke="black" points="0,-801.5 156,-801.5 "/>
<text text-anchor="start" x="8" y="-789.5" font-family="Helvetica,sans-Serif" font-size="10.00">+ _type_has_method_sequal</text>
<text text-anchor="start" x="8" y="-778.5" font-family="Helvetica,sans-Serif" font-size="10.00">_reduce</text>
<text text-anchor="start" x="8" y="-767.5" font-family="Helvetica,sans-Serif" font-size="10.00">+ _type_has_method_shash</text>
<text text-anchor="start" x="8" y="-756.5" font-family="Helvetica,sans-Serif" font-size="10.00">_reduce</text>
<polyline fill="none" stroke="black" points="0,-749.5 156,-749.5 "/>
<text text-anchor="start" x="8" y="-737.5" font-family="Helvetica,sans-Serif" font-size="10.00">+ ~FunctionBaseNode()</text>
<text text-anchor="start" x="8" y="-726.5" font-family="Helvetica,sans-Serif" font-size="10.00">+ func_name()</text>
<text text-anchor="start" x="8" y="-715.5" font-family="Helvetica,sans-Serif" font-size="10.00">+ num_outputs()</text>
<text text-anchor="start" x="8" y="-704.5" font-family="Helvetica,sans-Serif" font-size="10.00">+ SEqualReduce()</text>
<text text-anchor="start" x="8" y="-693.5" font-family="Helvetica,sans-Serif" font-size="10.00">+ SHashReduce()</text>
</a>
</g>
</g>
<!-- Node3&#45;&gt;Node2 -->
<g id="edge2" class="edge"><title>Node3&#45;&gt;Node2</title>
<path fill="none" stroke="midnightblue" d="M83.0817,-676.172C87.0339,-616.811 92.5362,-534.167 96.7564,-470.778"/>
<polygon fill="none" stroke="midnightblue" points="79.5841,-676.022 82.412,-686.233 86.5686,-676.487 79.5841,-676.022"/>
</g>
<!-- Node4 -->
<g id="node4" class="node"><title>Node4</title>
<polygon fill="white" stroke="#bfbfbf" points="54.5,-858.5 54.5,-915.5 101.5,-915.5 101.5,-858.5 54.5,-858.5"/>
<text text-anchor="middle" x="78" y="-903.5" font-family="Helvetica,sans-Serif" font-size="10.00">Object</text>
<polyline fill="none" stroke="#bfbfbf" points="54.5,-896.5 101.5,-896.5 "/>
<text text-anchor="middle" x="78" y="-884.5" font-family="Helvetica,sans-Serif" font-size="10.00"> </text>
<polyline fill="none" stroke="#bfbfbf" points="54.5,-877.5 101.5,-877.5 "/>
<text text-anchor="middle" x="78" y="-865.5" font-family="Helvetica,sans-Serif" font-size="10.00"> </text>
</g>
<!-- Node4&#45;&gt;Node3 -->
<g id="edge3" class="edge"><title>Node4&#45;&gt;Node3</title>
<path fill="none" stroke="midnightblue" d="M78,-848.331C78,-839.682 78,-830.234 78,-820.771"/>
<polygon fill="none" stroke="midnightblue" points="74.5001,-848.433 78,-858.433 81.5001,-848.433 74.5001,-848.433"/>
</g>
<!-- Node5 -->
<g id="node5" class="node"><title>Node5</title>
<polygon fill="white" stroke="#bfbfbf" points="174,-719.5 174,-787.5 298,-787.5 298,-719.5 174,-719.5"/>
<text text-anchor="start" x="182" y="-775.5" font-family="Helvetica,sans-Serif" font-size="10.00">tvm::Map&lt; std::string,</text>
<text text-anchor="middle" x="236" y="-764.5" font-family="Helvetica,sans-Serif" font-size="10.00"> ObjectRef &gt;</text>
<polyline fill="none" stroke="#bfbfbf" points="174,-757.5 298,-757.5 "/>
<text text-anchor="middle" x="236" y="-745.5" font-family="Helvetica,sans-Serif" font-size="10.00"> </text>
<polyline fill="none" stroke="#bfbfbf" points="174,-738.5 298,-738.5 "/>
<text text-anchor="middle" x="236" y="-726.5" font-family="Helvetica,sans-Serif" font-size="10.00"> </text>
</g>
<!-- Node5&#45;&gt;Node2 -->
<g id="edge4" class="edge"><title>Node5&#45;&gt;Node2</title>
<path fill="none" stroke="#404040" d="M203.166,-719.401C191.519,-708.304 178.055,-696.174 165,-686 153.331,-676.906 144.832,-680.551 137,-668 118.068,-637.661 109.676,-552.854 105.957,-482.569"/>
<polygon fill="none" stroke="#404040" points="105.954,-482.515 101.661,-476.722 105.357,-470.53 109.651,-476.324 105.954,-482.515"/>
<text text-anchor="middle" x="154" y="-576" font-family="Helvetica,sans-Serif" font-size="10.00"> +attrs</text>
</g>
<!-- Node6 -->
<g id="node6" class="node"><title>Node6</title>
<polygon fill="white" stroke="#bfbfbf" points="314,-858.5 314,-915.5 376,-915.5 376,-858.5 314,-858.5"/>
<text text-anchor="middle" x="345" y="-903.5" font-family="Helvetica,sans-Serif" font-size="10.00">ObjectRef</text>
<polyline fill="none" stroke="#bfbfbf" points="314,-896.5 376,-896.5 "/>
<text text-anchor="middle" x="345" y="-884.5" font-family="Helvetica,sans-Serif" font-size="10.00"> </text>
<polyline fill="none" stroke="#bfbfbf" points="314,-877.5 376,-877.5 "/>
<text text-anchor="middle" x="345" y="-865.5" font-family="Helvetica,sans-Serif" font-size="10.00"> </text>
</g>
<!-- Node6&#45;&gt;Node5 -->
<g id="edge5" class="edge"><title>Node6&#45;&gt;Node5</title>
<path fill="none" stroke="midnightblue" d="M315.677,-850.624C299.439,-831.035 279.381,-806.835 263.451,-787.618"/>
<polygon fill="none" stroke="midnightblue" points="313.074,-852.968 322.15,-858.433 318.463,-848.501 313.074,-852.968"/>
</g>
<!-- Node7 -->
<g id="node7" class="node"><title>Node7</title>
<g id="a_node7"><a xlink:href="classtvm_1_1tir_1_1IterVar.html" target="_top" xlink:title="Iteration Variable, represents an iteration over an integer interval. ">
<polygon fill="white" stroke="black" points="180,-533.5 180,-623.5 302,-623.5 302,-533.5 180,-533.5"/>
<text text-anchor="middle" x="241" y="-611.5" font-family="Helvetica,sans-Serif" font-size="10.00">tvm::tir::IterVar</text>
<polyline fill="none" stroke="black" points="180,-604.5 302,-604.5 "/>
<text text-anchor="middle" x="241" y="-592.5" font-family="Helvetica,sans-Serif" font-size="10.00"> </text>
<polyline fill="none" stroke="black" points="180,-585.5 302,-585.5 "/>
<text text-anchor="start" x="188" y="-573.5" font-family="Helvetica,sans-Serif" font-size="10.00">+ IterVar()</text>
<text text-anchor="start" x="188" y="-562.5" font-family="Helvetica,sans-Serif" font-size="10.00">+ IterVar()</text>
<text text-anchor="start" x="188" y="-551.5" font-family="Helvetica,sans-Serif" font-size="10.00">+ operator&#45;&gt;()</text>
<text text-anchor="start" x="188" y="-540.5" font-family="Helvetica,sans-Serif" font-size="10.00">+ operator PrimExpr()</text>
</a>
</g>
</g>
<!-- Node6&#45;&gt;Node7 -->
<g id="edge7" class="edge"><title>Node6&#45;&gt;Node7</title>
<path fill="none" stroke="midnightblue" d="M341.968,-848.158C337.734,-807.071 328.056,-740.082 307,-686 298.556,-664.311 285.64,-642.147 273.466,-623.695"/>
<polygon fill="none" stroke="midnightblue" points="338.5,-848.66 342.954,-858.273 345.467,-847.981 338.5,-848.66"/>
</g>
<!-- Node8 -->
<g id="node8" class="node"><title>Node8</title>
<g id="a_node8"><a xlink:href="classtvm_1_1Array.html" target="_top" xlink:title="{tvm::Array\&lt; tvm::tir\l::IterVar \&gt;\n||+ Array()\l+ Array()\l+ Array()\l+ Array()\l+ Array()\l+ Array()\l+ Array()\l+ Array()\l+ operator=()\l+ operator=()\land 13 more...\l}">
<polygon fill="white" stroke="black" points="307.5,-489.5 307.5,-667.5 420.5,-667.5 420.5,-489.5 307.5,-489.5"/>
<text text-anchor="start" x="315.5" y="-655.5" font-family="Helvetica,sans-Serif" font-size="10.00">tvm::Array&lt; tvm::tir</text>
<text text-anchor="middle" x="364" y="-644.5" font-family="Helvetica,sans-Serif" font-size="10.00">::IterVar &gt;</text>
<polyline fill="none" stroke="black" points="307.5,-637.5 420.5,-637.5 "/>
<text text-anchor="middle" x="364" y="-625.5" font-family="Helvetica,sans-Serif" font-size="10.00"> </text>
<polyline fill="none" stroke="black" points="307.5,-618.5 420.5,-618.5 "/>
<text text-anchor="start" x="315.5" y="-606.5" font-family="Helvetica,sans-Serif" font-size="10.00">+ Array()</text>
<text text-anchor="start" x="315.5" y="-595.5" font-family="Helvetica,sans-Serif" font-size="10.00">+ Array()</text>
<text text-anchor="start" x="315.5" y="-584.5" font-family="Helvetica,sans-Serif" font-size="10.00">+ Array()</text>
<text text-anchor="start" x="315.5" y="-573.5" font-family="Helvetica,sans-Serif" font-size="10.00">+ Array()</text>
<text text-anchor="start" x="315.5" y="-562.5" font-family="Helvetica,sans-Serif" font-size="10.00">+ Array()</text>
<text text-anchor="start" x="315.5" y="-551.5" font-family="Helvetica,sans-Serif" font-size="10.00">+ Array()</text>
<text text-anchor="start" x="315.5" y="-540.5" font-family="Helvetica,sans-Serif" font-size="10.00">+ Array()</text>
<text text-anchor="start" x="315.5" y="-529.5" font-family="Helvetica,sans-Serif" font-size="10.00">+ Array()</text>
<text text-anchor="start" x="315.5" y="-518.5" font-family="Helvetica,sans-Serif" font-size="10.00">+ operator=()</text>
<text text-anchor="start" x="315.5" y="-507.5" font-family="Helvetica,sans-Serif" font-size="10.00">+ operator=()</text>
<text text-anchor="start" x="315.5" y="-496.5" font-family="Helvetica,sans-Serif" font-size="10.00">and 13 more...</text>
</a>
</g>
</g>
<!-- Node6&#45;&gt;Node8 -->
<g id="edge9" class="edge"><title>Node6&#45;&gt;Node8</title>
<path fill="none" stroke="midnightblue" d="M347.349,-848.11C350.126,-803.303 354.84,-727.268 358.544,-667.508"/>
<polygon fill="none" stroke="midnightblue" points="343.845,-848.062 346.72,-858.26 350.832,-848.495 343.845,-848.062"/>
</g>
<!-- Node9 -->
<g id="node9" class="node"><title>Node9</title>
<g id="a_node9"><a xlink:href="classtvm_1_1Array.html" target="_top" xlink:title="{tvm::Array\&lt; tvm::te\l::Tensor \&gt;\n||+ Array()\l+ Array()\l+ Array()\l+ Array()\l+ Array()\l+ Array()\l+ Array()\l+ Array()\l+ operator=()\l+ operator=()\land 13 more...\l}">
<polygon fill="white" stroke="black" points="426.5,-287 426.5,-465 539.5,-465 539.5,-287 426.5,-287"/>
<text text-anchor="start" x="434.5" y="-453" font-family="Helvetica,sans-Serif" font-size="10.00">tvm::Array&lt; tvm::te</text>
<text text-anchor="middle" x="483" y="-442" font-family="Helvetica,sans-Serif" font-size="10.00">::Tensor &gt;</text>
<polyline fill="none" stroke="black" points="426.5,-435 539.5,-435 "/>
<text text-anchor="middle" x="483" y="-423" font-family="Helvetica,sans-Serif" font-size="10.00"> </text>
<polyline fill="none" stroke="black" points="426.5,-416 539.5,-416 "/>
<text text-anchor="start" x="434.5" y="-404" font-family="Helvetica,sans-Serif" font-size="10.00">+ Array()</text>
<text text-anchor="start" x="434.5" y="-393" font-family="Helvetica,sans-Serif" font-size="10.00">+ Array()</text>
<text text-anchor="start" x="434.5" y="-382" font-family="Helvetica,sans-Serif" font-size="10.00">+ Array()</text>
<text text-anchor="start" x="434.5" y="-371" font-family="Helvetica,sans-Serif" font-size="10.00">+ Array()</text>
<text text-anchor="start" x="434.5" y="-360" font-family="Helvetica,sans-Serif" font-size="10.00">+ Array()</text>
<text text-anchor="start" x="434.5" y="-349" font-family="Helvetica,sans-Serif" font-size="10.00">+ Array()</text>
<text text-anchor="start" x="434.5" y="-338" font-family="Helvetica,sans-Serif" font-size="10.00">+ Array()</text>
<text text-anchor="start" x="434.5" y="-327" font-family="Helvetica,sans-Serif" font-size="10.00">+ Array()</text>
<text text-anchor="start" x="434.5" y="-316" font-family="Helvetica,sans-Serif" font-size="10.00">+ operator=()</text>
<text text-anchor="start" x="434.5" y="-305" font-family="Helvetica,sans-Serif" font-size="10.00">+ operator=()</text>
<text text-anchor="start" x="434.5" y="-294" font-family="Helvetica,sans-Serif" font-size="10.00">and 13 more...</text>
</a>
</g>
</g>
<!-- Node6&#45;&gt;Node9 -->
<g id="edge11" class="edge"><title>Node6&#45;&gt;Node9</title>
<path fill="none" stroke="midnightblue" d="M361.599,-849.172C380.312,-806.39 410.528,-733.312 429,-668 447.949,-601.004 461.967,-523.404 470.965,-465.195"/>
<polygon fill="none" stroke="midnightblue" points="358.388,-847.78 357.561,-858.343 364.794,-850.601 358.388,-847.78"/>
</g>
<!-- Node7&#45;&gt;Node1 -->
<g id="edge6" class="edge"><title>Node7&#45;&gt;Node1</title>
<path fill="none" stroke="#404040" d="M241.236,-533.145C241.97,-475.043 244.756,-370.08 255,-281 257.547,-258.854 261.186,-235.322 265.125,-212.84"/>
<polygon fill="none" stroke="#404040" points="265.16,-212.647 262.279,-206.036 267.274,-200.835 270.154,-207.445 265.16,-212.647"/>
<text text-anchor="middle" x="284" y="-373.5" font-family="Helvetica,sans-Serif" font-size="10.00"> +scan_axis</text>
</g>
<!-- Node8&#45;&gt;Node1 -->
<g id="edge8" class="edge"><title>Node8&#45;&gt;Node1</title>
<path fill="none" stroke="#404040" d="M347.223,-489.498C346.108,-483.242 345.022,-477.028 344,-471 329.328,-384.501 314.531,-286.288 303.835,-212.87"/>
<polygon fill="none" stroke="#404040" points="303.814,-212.721 298.992,-207.358 302.088,-200.846 306.909,-206.208 303.814,-212.721"/>
<text text-anchor="middle" x="380.5" y="-373.5" font-family="Helvetica,sans-Serif" font-size="10.00"> +spatial_axis_</text>
</g>
<!-- Node9&#45;&gt;Node1 -->
<g id="edge10" class="edge"><title>Node9&#45;&gt;Node1</title>
<path fill="none" stroke="#404040" d="M426.336,-295.525C407.425,-269.001 386.013,-238.969 365.782,-210.594"/>
<polygon fill="none" stroke="#404040" points="365.648,-210.406 358.908,-207.843 358.682,-200.636 365.422,-203.199 365.648,-210.406"/>
<text text-anchor="middle" x="450" y="-255" font-family="Helvetica,sans-Serif" font-size="10.00"> +inputs</text>
<text text-anchor="middle" x="450" y="-244" font-family="Helvetica,sans-Serif" font-size="10.00">+update</text>
<text text-anchor="middle" x="450" y="-233" font-family="Helvetica,sans-Serif" font-size="10.00">+init</text>
<text text-anchor="middle" x="450" y="-222" font-family="Helvetica,sans-Serif" font-size="10.00">+state_placeholder</text>
</g>
</g>
</svg>
