<?xml version="1.0" encoding="UTF-8" standalone="no"?>
<!DOCTYPE svg PUBLIC "-//W3C//DTD SVG 1.1//EN"
 "http://www.w3.org/Graphics/SVG/1.1/DTD/svg11.dtd">
<!-- Generated by graphviz version 2.38.0 (20140413.2041)
 -->
<!-- Title: tvm::tir::AllocateNode Pages: 1 -->
<svg width="690pt" height="988pt"
 viewBox="0.00 0.00 689.50 988.00" xmlns="http://www.w3.org/2000/svg" xmlns:xlink="http://www.w3.org/1999/xlink">
<g id="graph0" class="graph" transform="scale(1 1) rotate(0) translate(4 984)">
<title>tvm::tir::AllocateNode</title>
<polygon fill="white" stroke="none" points="-4,4 -4,-984 685.5,-984 685.5,4 -4,4"/>
<!-- Node1 -->
<g id="node1" class="node"><title>Node1</title>
<polygon fill="#bfbfbf" stroke="black" points="312.5,-0.5 312.5,-123.5 517.5,-123.5 517.5,-0.5 312.5,-0.5"/>
<text text-anchor="middle" x="415" y="-111.5" font-family="Helvetica,sans-Serif" font-size="10.00">tvm::tir::AllocateNode</text>
<polyline fill="none" stroke="black" points="312.5,-104.5 517.5,-104.5 "/>
<text text-anchor="start" x="320.5" y="-92.5" font-family="Helvetica,sans-Serif" font-size="10.00">+ _type_key</text>
<polyline fill="none" stroke="black" points="312.5,-85.5 517.5,-85.5 "/>
<text text-anchor="start" x="320.5" y="-73.5" font-family="Helvetica,sans-Serif" font-size="10.00">+ VisitAttrs()</text>
<text text-anchor="start" x="320.5" y="-62.5" font-family="Helvetica,sans-Serif" font-size="10.00">+ SEqualReduce()</text>
<text text-anchor="start" x="320.5" y="-51.5" font-family="Helvetica,sans-Serif" font-size="10.00">+ SHashReduce()</text>
<text text-anchor="start" x="320.5" y="-40.5" font-family="Helvetica,sans-Serif" font-size="10.00">+ constant_allocation_size()</text>
<text text-anchor="start" x="320.5" y="-29.5" font-family="Helvetica,sans-Serif" font-size="10.00">+ TVM_DECLARE_FINAL_OBJECT_INFO()</text>
<text text-anchor="start" x="320.5" y="-18.5" font-family="Helvetica,sans-Serif" font-size="10.00">+ make()</text>
<text text-anchor="start" x="320.5" y="-7.5" font-family="Helvetica,sans-Serif" font-size="10.00">+ constant_allocation_size()</text>
</g>
<!-- Node2 -->
<g id="node2" class="node"><title>Node2</title>
<g id="a_node2"><a xlink:href="classtvm_1_1tir_1_1StmtNode.html" target="_top" xlink:title="Base node of all statements. ">
<polygon fill="white" stroke="black" points="0,-237.5 0,-338.5 204,-338.5 204,-237.5 0,-237.5"/>
<text text-anchor="middle" x="102" y="-326.5" font-family="Helvetica,sans-Serif" font-size="10.00">tvm::tir::StmtNode</text>
<polyline fill="none" stroke="black" points="0,-319.5 204,-319.5 "/>
<text text-anchor="start" x="8" y="-307.5" font-family="Helvetica,sans-Serif" font-size="10.00">+ _type_key</text>
<text text-anchor="start" x="8" y="-296.5" font-family="Helvetica,sans-Serif" font-size="10.00">+ _type_has_method_sequal</text>
<text text-anchor="start" x="8" y="-285.5" font-family="Helvetica,sans-Serif" font-size="10.00">_reduce</text>
<text text-anchor="start" x="8" y="-274.5" font-family="Helvetica,sans-Serif" font-size="10.00">+ _type_has_method_shash</text>
<text text-anchor="start" x="8" y="-263.5" font-family="Helvetica,sans-Serif" font-size="10.00">_reduce</text>
<polyline fill="none" stroke="black" points="0,-256.5 204,-256.5 "/>
<text text-anchor="start" x="8" y="-244.5" font-family="Helvetica,sans-Serif" font-size="10.00">+ TVM_DECLARE_BASE_OBJECT_INFO()</text>
</a>
</g>
</g>
<!-- Node2&#45;&gt;Node1 -->
<g id="edge1" class="edge"><title>Node2&#45;&gt;Node1</title>
<path fill="none" stroke="midnightblue" d="M141.246,-229.311C163.409,-200.112 193.208,-165.889 226,-142 251.87,-123.153 282.91,-107.794 312.287,-95.7994"/>
<polygon fill="none" stroke="midnightblue" points="138.383,-227.295 135.201,-237.401 143.991,-231.485 138.383,-227.295"/>
</g>
<!-- Node3 -->
<g id="node3" class="node"><title>Node3</title>
<polygon fill="white" stroke="#bfbfbf" points="78.5,-532.5 78.5,-589.5 125.5,-589.5 125.5,-532.5 78.5,-532.5"/>
<text text-anchor="middle" x="102" y="-577.5" font-family="Helvetica,sans-Serif" font-size="10.00">Object</text>
<polyline fill="none" stroke="#bfbfbf" points="78.5,-570.5 125.5,-570.5 "/>
<text text-anchor="middle" x="102" y="-558.5" font-family="Helvetica,sans-Serif" font-size="10.00"> </text>
<polyline fill="none" stroke="#bfbfbf" points="78.5,-551.5 125.5,-551.5 "/>
<text text-anchor="middle" x="102" y="-539.5" font-family="Helvetica,sans-Serif" font-size="10.00"> </text>
</g>
<!-- Node3&#45;&gt;Node2 -->
<g id="edge2" class="edge"><title>Node3&#45;&gt;Node2</title>
<path fill="none" stroke="midnightblue" d="M102,-522.018C102,-474.086 102,-391.532 102,-338.647"/>
<polygon fill="none" stroke="midnightblue" points="98.5001,-522.272 102,-532.272 105.5,-522.272 98.5001,-522.272"/>
</g>
<!-- Node4 -->
<g id="node4" class="node"><title>Node4</title>
<g id="a_node4"><a xlink:href="classtvm_1_1tir_1_1Var.html" target="_top" xlink:title="a named variable in TVM ">
<polygon fill="white" stroke="black" points="313,-232 313,-344 425,-344 425,-232 313,-232"/>
<text text-anchor="middle" x="369" y="-332" font-family="Helvetica,sans-Serif" font-size="10.00">tvm::tir::Var</text>
<polyline fill="none" stroke="black" points="313,-325 425,-325 "/>
<text text-anchor="middle" x="369" y="-313" font-family="Helvetica,sans-Serif" font-size="10.00"> </text>
<polyline fill="none" stroke="black" points="313,-306 425,-306 "/>
<text text-anchor="start" x="321" y="-294" font-family="Helvetica,sans-Serif" font-size="10.00">+ Var()</text>
<text text-anchor="start" x="321" y="-283" font-family="Helvetica,sans-Serif" font-size="10.00">+ Var()</text>
<text text-anchor="start" x="321" y="-272" font-family="Helvetica,sans-Serif" font-size="10.00">+ Var()</text>
<text text-anchor="start" x="321" y="-261" font-family="Helvetica,sans-Serif" font-size="10.00">+ copy_with_suffix()</text>
<text text-anchor="start" x="321" y="-250" font-family="Helvetica,sans-Serif" font-size="10.00">+ operator&#45;&gt;()</text>
<text text-anchor="start" x="321" y="-239" font-family="Helvetica,sans-Serif" font-size="10.00">+ get()</text>
</a>
</g>
</g>
<!-- Node4&#45;&gt;Node1 -->
<g id="edge3" class="edge"><title>Node4&#45;&gt;Node1</title>
<path fill="none" stroke="#404040" d="M368.188,-231.875C368.943,-204.486 371.623,-171.107 379,-142 379.546,-139.847 380.148,-137.681 380.798,-135.509"/>
<polygon fill="none" stroke="#404040" points="380.877,-135.274 378.989,-128.314 384.687,-123.895 386.575,-130.854 380.877,-135.274"/>
<text text-anchor="middle" x="409" y="-145" font-family="Helvetica,sans-Serif" font-size="10.00"> +buffer_var</text>
</g>
<!-- Node5 -->
<g id="node5" class="node"><title>Node5</title>
<g id="a_node5"><a xlink:href="classtvm_1_1PrimExpr.html" target="_top" xlink:title="Reference to PrimExprNode. ">
<polygon fill="white" stroke="black" points="275,-510.5 275,-611.5 425,-611.5 425,-510.5 275,-510.5"/>
<text text-anchor="middle" x="350" y="-599.5" font-family="Helvetica,sans-Serif" font-size="10.00">tvm::PrimExpr</text>
<polyline fill="none" stroke="black" points="275,-592.5 425,-592.5 "/>
<text text-anchor="middle" x="350" y="-580.5" font-family="Helvetica,sans-Serif" font-size="10.00"> </text>
<polyline fill="none" stroke="black" points="275,-573.5 425,-573.5 "/>
<text text-anchor="start" x="283" y="-561.5" font-family="Helvetica,sans-Serif" font-size="10.00">+ PrimExpr()</text>
<text text-anchor="start" x="283" y="-550.5" font-family="Helvetica,sans-Serif" font-size="10.00">+ PrimExpr()</text>
<text text-anchor="start" x="283" y="-539.5" font-family="Helvetica,sans-Serif" font-size="10.00">+ dtype()</text>
<text text-anchor="start" x="283" y="-528.5" font-family="Helvetica,sans-Serif" font-size="10.00">+ TVM_DEFINE_OBJECT_REF</text>
<text text-anchor="start" x="283" y="-517.5" font-family="Helvetica,sans-Serif" font-size="10.00">_METHODS()</text>
</a>
</g>
</g>
<!-- Node5&#45;&gt;Node1 -->
<g id="edge9" class="edge"><title>Node5&#45;&gt;Node1</title>
<path fill="none" stroke="#404040" d="M306.969,-510.353C284.976,-481.646 260.478,-443.64 249,-405 219.385,-305.306 199.414,-262.418 249,-171 261.312,-148.301 280.688,-129.626 301.923,-114.566"/>
<polygon fill="none" stroke="#404040" points="302.182,-114.391 304.92,-107.72 312.131,-107.681 309.393,-114.353 302.182,-114.391"/>
<text text-anchor="middle" x="276.5" y="-285.5" font-family="Helvetica,sans-Serif" font-size="10.00"> +condition</text>
</g>
<!-- Node5&#45;&gt;Node4 -->
<g id="edge4" class="edge"><title>Node5&#45;&gt;Node4</title>
<path fill="none" stroke="midnightblue" d="M354.202,-500.069C357.459,-453.616 361.937,-389.742 365.112,-344.459"/>
<polygon fill="none" stroke="midnightblue" points="350.693,-500.074 353.485,-510.294 357.676,-500.564 350.693,-500.074"/>
</g>
<!-- Node6 -->
<g id="node6" class="node"><title>Node6</title>
<g id="a_node6"><a xlink:href="classtvm_1_1BaseExpr.html" target="_top" xlink:title="Managed reference to BaseExprNode. ">
<polygon fill="white" stroke="black" points="275,-816.5 275,-884.5 425,-884.5 425,-816.5 275,-816.5"/>
<text text-anchor="middle" x="350" y="-872.5" font-family="Helvetica,sans-Serif" font-size="10.00">tvm::BaseExpr</text>
<polyline fill="none" stroke="black" points="275,-865.5 425,-865.5 "/>
<text text-anchor="middle" x="350" y="-853.5" font-family="Helvetica,sans-Serif" font-size="10.00"> </text>
<polyline fill="none" stroke="black" points="275,-846.5 425,-846.5 "/>
<text text-anchor="start" x="283" y="-834.5" font-family="Helvetica,sans-Serif" font-size="10.00">+ TVM_DEFINE_OBJECT_REF</text>
<text text-anchor="start" x="283" y="-823.5" font-family="Helvetica,sans-Serif" font-size="10.00">_METHODS()</text>
</a>
</g>
</g>
<!-- Node6&#45;&gt;Node5 -->
<g id="edge5" class="edge"><title>Node6&#45;&gt;Node5</title>
<path fill="none" stroke="midnightblue" d="M350,-805.963C350,-753.711 350,-666.304 350,-611.526"/>
<polygon fill="none" stroke="midnightblue" points="346.5,-806.239 350,-816.239 353.5,-806.239 346.5,-806.239"/>
</g>
<!-- Node7 -->
<g id="node7" class="node"><title>Node7</title>
<polygon fill="white" stroke="#bfbfbf" points="422,-922.5 422,-979.5 484,-979.5 484,-922.5 422,-922.5"/>
<text text-anchor="middle" x="453" y="-967.5" font-family="Helvetica,sans-Serif" font-size="10.00">ObjectRef</text>
<polyline fill="none" stroke="#bfbfbf" points="422,-960.5 484,-960.5 "/>
<text text-anchor="middle" x="453" y="-948.5" font-family="Helvetica,sans-Serif" font-size="10.00"> </text>
<polyline fill="none" stroke="#bfbfbf" points="422,-941.5 484,-941.5 "/>
<text text-anchor="middle" x="453" y="-929.5" font-family="Helvetica,sans-Serif" font-size="10.00"> </text>
</g>
<!-- Node7&#45;&gt;Node6 -->
<g id="edge6" class="edge"><title>Node7&#45;&gt;Node6</title>
<path fill="none" stroke="midnightblue" d="M416.637,-915.226C406.22,-905.264 394.897,-894.435 384.59,-884.578"/>
<polygon fill="none" stroke="midnightblue" points="414.388,-917.918 424.035,-922.3 419.226,-912.859 414.388,-917.918"/>
</g>
<!-- Node8 -->
<g id="node8" class="node"><title>Node8</title>
<g id="a_node8"><a xlink:href="classtvm_1_1Array.html" target="_top" xlink:title="{tvm::Array\&lt; tvm::PrimExpr \&gt;\n||+ Array()\l+ Array()\l+ Array()\l+ Array()\l+ Array()\l+ Array()\l+ Array()\l+ Array()\l+ operator=()\l+ operator=()\land 13 more...\l}">
<polygon fill="white" stroke="black" points="374.5,-630.5 374.5,-797.5 531.5,-797.5 531.5,-630.5 374.5,-630.5"/>
<text text-anchor="middle" x="453" y="-785.5" font-family="Helvetica,sans-Serif" font-size="10.00">tvm::Array&lt; tvm::PrimExpr &gt;</text>
<polyline fill="none" stroke="black" points="374.5,-778.5 531.5,-778.5 "/>
<text text-anchor="middle" x="453" y="-766.5" font-family="Helvetica,sans-Serif" font-size="10.00"> </text>
<polyline fill="none" stroke="black" points="374.5,-759.5 531.5,-759.5 "/>
<text text-anchor="start" x="382.5" y="-747.5" font-family="Helvetica,sans-Serif" font-size="10.00">+ Array()</text>
<text text-anchor="start" x="382.5" y="-736.5" font-family="Helvetica,sans-Serif" font-size="10.00">+ Array()</text>
<text text-anchor="start" x="382.5" y="-725.5" font-family="Helvetica,sans-Serif" font-size="10.00">+ Array()</text>
<text text-anchor="start" x="382.5" y="-714.5" font-family="Helvetica,sans-Serif" font-size="10.00">+ Array()</text>
<text text-anchor="start" x="382.5" y="-703.5" font-family="Helvetica,sans-Serif" font-size="10.00">+ Array()</text>
<text text-anchor="start" x="382.5" y="-692.5" font-family="Helvetica,sans-Serif" font-size="10.00">+ Array()</text>
<text text-anchor="start" x="382.5" y="-681.5" font-family="Helvetica,sans-Serif" font-size="10.00">+ Array()</text>
<text text-anchor="start" x="382.5" y="-670.5" font-family="Helvetica,sans-Serif" font-size="10.00">+ Array()</text>
<text text-anchor="start" x="382.5" y="-659.5" font-family="Helvetica,sans-Serif" font-size="10.00">+ operator=()</text>
<text text-anchor="start" x="382.5" y="-648.5" font-family="Helvetica,sans-Serif" font-size="10.00">+ operator=()</text>
<text text-anchor="start" x="382.5" y="-637.5" font-family="Helvetica,sans-Serif" font-size="10.00">and 13 more...</text>
</a>
</g>
</g>
<!-- Node7&#45;&gt;Node8 -->
<g id="edge8" class="edge"><title>Node7&#45;&gt;Node8</title>
<path fill="none" stroke="midnightblue" d="M453,-911.811C453,-880.965 453,-836.443 453,-797.544"/>
<polygon fill="none" stroke="midnightblue" points="449.5,-912.12 453,-922.12 456.5,-912.12 449.5,-912.12"/>
</g>
<!-- Node9 -->
<g id="node9" class="node"><title>Node9</title>
<g id="a_node9"><a xlink:href="classtvm_1_1tir_1_1Stmt.html" target="_top" xlink:title="Container of all statements. ">
<polygon fill="white" stroke="black" points="506,-423.5 506,-491.5 656,-491.5 656,-423.5 506,-423.5"/>
<text text-anchor="middle" x="581" y="-479.5" font-family="Helvetica,sans-Serif" font-size="10.00">tvm::tir::Stmt</text>
<polyline fill="none" stroke="black" points="506,-472.5 656,-472.5 "/>
<text text-anchor="middle" x="581" y="-460.5" font-family="Helvetica,sans-Serif" font-size="10.00"> </text>
<polyline fill="none" stroke="black" points="506,-453.5 656,-453.5 "/>
<text text-anchor="start" x="514" y="-441.5" font-family="Helvetica,sans-Serif" font-size="10.00">+ TVM_DEFINE_OBJECT_REF</text>
<text text-anchor="start" x="514" y="-430.5" font-family="Helvetica,sans-Serif" font-size="10.00">_METHODS()</text>
</a>
</g>
</g>
<!-- Node7&#45;&gt;Node9 -->
<g id="edge11" class="edge"><title>Node7&#45;&gt;Node9</title>
<path fill="none" stroke="midnightblue" d="M479.056,-914.141C499.179,-884.513 525.897,-840.556 540,-798 575.766,-690.08 580.965,-553.643 581.315,-491.742"/>
<polygon fill="none" stroke="midnightblue" points="476.101,-912.261 473.308,-922.481 481.865,-916.233 476.101,-912.261"/>
</g>
<!-- Node8&#45;&gt;Node1 -->
<g id="edge7" class="edge"><title>Node8&#45;&gt;Node1</title>
<path fill="none" stroke="#404040" d="M451.56,-630.272C448.822,-477.762 442.802,-165.603 439,-142 438.671,-139.957 438.302,-137.893 437.9,-135.817"/>
<polygon fill="none" stroke="#404040" points="437.848,-135.577 432.651,-130.578 435.267,-123.858 440.464,-128.857 437.848,-135.577"/>
<text text-anchor="middle" x="473" y="-455" font-family="Helvetica,sans-Serif" font-size="10.00"> +extents</text>
</g>
<!-- Node9&#45;&gt;Node1 -->
<g id="edge10" class="edge"><title>Node9&#45;&gt;Node1</title>
<path fill="none" stroke="#404040" d="M523.563,-423.246C517.578,-417.807 512.172,-411.721 508,-405 445.609,-304.489 509.602,-252.364 467,-142 466.039,-139.511 464.991,-137.019 463.87,-134.536"/>
<polygon fill="none" stroke="#404040" points="463.848,-134.491 457.605,-130.881 458.537,-123.73 464.779,-127.34 463.848,-134.491"/>
<text text-anchor="middle" x="525.5" y="-285.5" font-family="Helvetica,sans-Serif" font-size="10.00"> +body</text>
</g>
<!-- Node10 -->
<g id="node10" class="node"><title>Node10</title>
<g id="a_node10"><a xlink:href="classtvm_1_1runtime_1_1DataType.html" target="_top" xlink:title="Runtime primitive data type. ">
<polygon fill="white" stroke="black" points="552.5,-171.5 552.5,-404.5 681.5,-404.5 681.5,-171.5 552.5,-171.5"/>
<text text-anchor="middle" x="617" y="-392.5" font-family="Helvetica,sans-Serif" font-size="10.00">tvm::runtime::DataType</text>
<polyline fill="none" stroke="black" points="552.5,-385.5 681.5,-385.5 "/>
<text text-anchor="middle" x="617" y="-373.5" font-family="Helvetica,sans-Serif" font-size="10.00"> </text>
<polyline fill="none" stroke="black" points="552.5,-366.5 681.5,-366.5 "/>
<text text-anchor="start" x="560.5" y="-354.5" font-family="Helvetica,sans-Serif" font-size="10.00">+ DataType()</text>
<text text-anchor="start" x="560.5" y="-343.5" font-family="Helvetica,sans-Serif" font-size="10.00">+ DataType()</text>
<text text-anchor="start" x="560.5" y="-332.5" font-family="Helvetica,sans-Serif" font-size="10.00">+ DataType()</text>
<text text-anchor="start" x="560.5" y="-321.5" font-family="Helvetica,sans-Serif" font-size="10.00">+ code()</text>
<text text-anchor="start" x="560.5" y="-310.5" font-family="Helvetica,sans-Serif" font-size="10.00">+ bits()</text>
<text text-anchor="start" x="560.5" y="-299.5" font-family="Helvetica,sans-Serif" font-size="10.00">+ bytes()</text>
<text text-anchor="start" x="560.5" y="-288.5" font-family="Helvetica,sans-Serif" font-size="10.00">+ lanes()</text>
<text text-anchor="start" x="560.5" y="-277.5" font-family="Helvetica,sans-Serif" font-size="10.00">+ is_scalar()</text>
<text text-anchor="start" x="560.5" y="-266.5" font-family="Helvetica,sans-Serif" font-size="10.00">+ is_bool()</text>
<text text-anchor="start" x="560.5" y="-255.5" font-family="Helvetica,sans-Serif" font-size="10.00">+ is_float()</text>
<text text-anchor="start" x="560.5" y="-244.5" font-family="Helvetica,sans-Serif" font-size="10.00">and 12 more...</text>
<text text-anchor="start" x="560.5" y="-233.5" font-family="Helvetica,sans-Serif" font-size="10.00">+ Int()</text>
<text text-anchor="start" x="560.5" y="-222.5" font-family="Helvetica,sans-Serif" font-size="10.00">+ UInt()</text>
<text text-anchor="start" x="560.5" y="-211.5" font-family="Helvetica,sans-Serif" font-size="10.00">+ Float()</text>
<text text-anchor="start" x="560.5" y="-200.5" font-family="Helvetica,sans-Serif" font-size="10.00">+ Bool()</text>
<text text-anchor="start" x="560.5" y="-189.5" font-family="Helvetica,sans-Serif" font-size="10.00">+ Handle()</text>
<text text-anchor="start" x="560.5" y="-178.5" font-family="Helvetica,sans-Serif" font-size="10.00">+ ShapeIndex()</text>
</a>
</g>
</g>
<!-- Node10&#45;&gt;Node1 -->
<g id="edge12" class="edge"><title>Node10&#45;&gt;Node1</title>
<path fill="none" stroke="#404040" d="M552.42,-186.784C540.234,-170.995 526.915,-155.463 513,-142 509.422,-138.538 505.705,-135.067 501.901,-131.615"/>
<polygon fill="none" stroke="#404040" points="501.865,-131.583 494.723,-130.586 492.896,-123.611 500.038,-124.607 501.865,-131.583"/>
<text text-anchor="middle" x="543.5" y="-145" font-family="Helvetica,sans-Serif" font-size="10.00"> +dtype</text>
</g>
</g>
</svg>
