<?xml version="1.0" encoding="UTF-8" standalone="no"?>
<!DOCTYPE svg PUBLIC "-//W3C//DTD SVG 1.1//EN"
 "http://www.w3.org/Graphics/SVG/1.1/DTD/svg11.dtd">
<!-- Generated by graphviz version 2.38.0 (20140413.2041)
 -->
<!-- Title: tvm::BaseExpr Pages: 1 -->
<svg width="3418pt" height="662pt"
 viewBox="0.00 0.00 3418.00 662.00" xmlns="http://www.w3.org/2000/svg" xmlns:xlink="http://www.w3.org/1999/xlink">
<g id="graph0" class="graph" transform="scale(1 1) rotate(0) translate(4 658)">
<title>tvm::BaseExpr</title>
<polygon fill="white" stroke="none" points="-4,4 -4,-658 3414,-658 3414,4 -4,4"/>
<!-- Node1 -->
<g id="node1" class="node"><title>Node1</title>
<polygon fill="#bfbfbf" stroke="black" points="1210,-491.5 1210,-559.5 1360,-559.5 1360,-491.5 1210,-491.5"/>
<text text-anchor="middle" x="1285" y="-547.5" font-family="Helvetica,sans-Serif" font-size="10.00">tvm::BaseExpr</text>
<polyline fill="none" stroke="black" points="1210,-540.5 1360,-540.5 "/>
<text text-anchor="middle" x="1285" y="-528.5" font-family="Helvetica,sans-Serif" font-size="10.00"> </text>
<polyline fill="none" stroke="black" points="1210,-521.5 1360,-521.5 "/>
<text text-anchor="start" x="1218" y="-509.5" font-family="Helvetica,sans-Serif" font-size="10.00">+ TVM_DEFINE_OBJECT_REF</text>
<text text-anchor="start" x="1218" y="-498.5" font-family="Helvetica,sans-Serif" font-size="10.00">_METHODS()</text>
</g>
<!-- Node3 -->
<g id="node3" class="node"><title>Node3</title>
<g id="a_node3"><a xlink:href="classtvm_1_1PrimExpr.html" target="_top" xlink:title="Reference to PrimExprNode. ">
<polygon fill="white" stroke="black" points="420,-353.5 420,-454.5 570,-454.5 570,-353.5 420,-353.5"/>
<text text-anchor="middle" x="495" y="-442.5" font-family="Helvetica,sans-Serif" font-size="10.00">tvm::PrimExpr</text>
<polyline fill="none" stroke="black" points="420,-435.5 570,-435.5 "/>
<text text-anchor="middle" x="495" y="-423.5" font-family="Helvetica,sans-Serif" font-size="10.00"> </text>
<polyline fill="none" stroke="black" points="420,-416.5 570,-416.5 "/>
<text text-anchor="start" x="428" y="-404.5" font-family="Helvetica,sans-Serif" font-size="10.00">+ PrimExpr()</text>
<text text-anchor="start" x="428" y="-393.5" font-family="Helvetica,sans-Serif" font-size="10.00">+ PrimExpr()</text>
<text text-anchor="start" x="428" y="-382.5" font-family="Helvetica,sans-Serif" font-size="10.00">+ dtype()</text>
<text text-anchor="start" x="428" y="-371.5" font-family="Helvetica,sans-Serif" font-size="10.00">+ TVM_DEFINE_OBJECT_REF</text>
<text text-anchor="start" x="428" y="-360.5" font-family="Helvetica,sans-Serif" font-size="10.00">_METHODS()</text>
</a>
</g>
</g>
<!-- Node1&#45;&gt;Node3 -->
<g id="edge2" class="edge"><title>Node1&#45;&gt;Node3</title>
<path fill="none" stroke="midnightblue" d="M1199.99,-511.641C1044.73,-488.156 717.718,-438.69 570.109,-416.361"/>
<polygon fill="none" stroke="midnightblue" points="1199.56,-515.115 1209.97,-513.15 1200.6,-508.194 1199.56,-515.115"/>
</g>
<!-- Node12 -->
<g id="node12" class="node"><title>Node12</title>
<g id="a_node12"><a xlink:href="classtvm_1_1RelayExpr.html" target="_top" xlink:title="Managed reference to RelayExprNode. ">
<polygon fill="white" stroke="black" points="1916,-370 1916,-438 2066,-438 2066,-370 1916,-370"/>
<text text-anchor="middle" x="1991" y="-426" font-family="Helvetica,sans-Serif" font-size="10.00">tvm::RelayExpr</text>
<polyline fill="none" stroke="black" points="1916,-419 2066,-419 "/>
<text text-anchor="middle" x="1991" y="-407" font-family="Helvetica,sans-Serif" font-size="10.00"> </text>
<polyline fill="none" stroke="black" points="1916,-400 2066,-400 "/>
<text text-anchor="start" x="1924" y="-388" font-family="Helvetica,sans-Serif" font-size="10.00">+ TVM_DEFINE_OBJECT_REF</text>
<text text-anchor="start" x="1924" y="-377" font-family="Helvetica,sans-Serif" font-size="10.00">_METHODS()</text>
</a>
</g>
</g>
<!-- Node1&#45;&gt;Node12 -->
<g id="edge11" class="edge"><title>Node1&#45;&gt;Node12</title>
<path fill="none" stroke="midnightblue" d="M1370.42,-510.041C1509.74,-486.46 1783.58,-440.108 1915.9,-417.711"/>
<polygon fill="none" stroke="midnightblue" points="1369.5,-506.648 1360.22,-511.768 1370.66,-513.55 1369.5,-506.648"/>
</g>
<!-- Node2 -->
<g id="node2" class="node"><title>Node2</title>
<polygon fill="white" stroke="#bfbfbf" points="1254,-596.5 1254,-653.5 1316,-653.5 1316,-596.5 1254,-596.5"/>
<text text-anchor="middle" x="1285" y="-641.5" font-family="Helvetica,sans-Serif" font-size="10.00">ObjectRef</text>
<polyline fill="none" stroke="#bfbfbf" points="1254,-634.5 1316,-634.5 "/>
<text text-anchor="middle" x="1285" y="-622.5" font-family="Helvetica,sans-Serif" font-size="10.00"> </text>
<polyline fill="none" stroke="#bfbfbf" points="1254,-615.5 1316,-615.5 "/>
<text text-anchor="middle" x="1285" y="-603.5" font-family="Helvetica,sans-Serif" font-size="10.00"> </text>
</g>
<!-- Node2&#45;&gt;Node1 -->
<g id="edge1" class="edge"><title>Node2&#45;&gt;Node1</title>
<path fill="none" stroke="midnightblue" d="M1285,-586.063C1285,-577.393 1285,-568.243 1285,-559.786"/>
<polygon fill="none" stroke="midnightblue" points="1281.5,-586.321 1285,-596.321 1288.5,-586.321 1281.5,-586.321"/>
</g>
<!-- Node4 -->
<g id="node4" class="node"><title>Node4</title>
<g id="a_node4"><a xlink:href="classtvm_1_1FloatImm.html" target="_top" xlink:title="Managed reference class to FloatImmNode. ">
<polygon fill="white" stroke="black" points="0,-221 0,-300 150,-300 150,-221 0,-221"/>
<text text-anchor="middle" x="75" y="-288" font-family="Helvetica,sans-Serif" font-size="10.00">tvm::FloatImm</text>
<polyline fill="none" stroke="black" points="0,-281 150,-281 "/>
<text text-anchor="middle" x="75" y="-269" font-family="Helvetica,sans-Serif" font-size="10.00"> </text>
<polyline fill="none" stroke="black" points="0,-262 150,-262 "/>
<text text-anchor="start" x="8" y="-250" font-family="Helvetica,sans-Serif" font-size="10.00">+ FloatImm()</text>
<text text-anchor="start" x="8" y="-239" font-family="Helvetica,sans-Serif" font-size="10.00">+ TVM_DEFINE_OBJECT_REF</text>
<text text-anchor="start" x="8" y="-228" font-family="Helvetica,sans-Serif" font-size="10.00">_METHODS()</text>
</a>
</g>
</g>
<!-- Node3&#45;&gt;Node4 -->
<g id="edge3" class="edge"><title>Node3&#45;&gt;Node4</title>
<path fill="none" stroke="midnightblue" d="M409.852,-389.333C340.327,-376.279 240.588,-353.163 159,-317 148.453,-312.325 137.762,-306.372 127.701,-300.11"/>
<polygon fill="none" stroke="midnightblue" points="409.416,-392.812 419.885,-391.187 410.687,-385.928 409.416,-392.812"/>
</g>
<!-- Node5 -->
<g id="node5" class="node"><title>Node5</title>
<g id="a_node5"><a xlink:href="classtvm_1_1IntImm.html" target="_top" xlink:title="Managed reference class to IntImmNode. ">
<polygon fill="white" stroke="black" points="168,-221 168,-300 318,-300 318,-221 168,-221"/>
<text text-anchor="middle" x="243" y="-288" font-family="Helvetica,sans-Serif" font-size="10.00">tvm::IntImm</text>
<polyline fill="none" stroke="black" points="168,-281 318,-281 "/>
<text text-anchor="middle" x="243" y="-269" font-family="Helvetica,sans-Serif" font-size="10.00"> </text>
<polyline fill="none" stroke="black" points="168,-262 318,-262 "/>
<text text-anchor="start" x="176" y="-250" font-family="Helvetica,sans-Serif" font-size="10.00">+ IntImm()</text>
<text text-anchor="start" x="176" y="-239" font-family="Helvetica,sans-Serif" font-size="10.00">+ TVM_DEFINE_OBJECT_REF</text>
<text text-anchor="start" x="176" y="-228" font-family="Helvetica,sans-Serif" font-size="10.00">_METHODS()</text>
</a>
</g>
</g>
<!-- Node3&#45;&gt;Node5 -->
<g id="edge4" class="edge"><title>Node3&#45;&gt;Node5</title>
<path fill="none" stroke="midnightblue" d="M410.561,-362.074C383.526,-348.363 353.693,-332.586 327,-317 318.094,-311.8 308.832,-306.049 299.85,-300.277"/>
<polygon fill="none" stroke="midnightblue" points="409.109,-365.262 419.613,-366.642 412.262,-359.012 409.109,-365.262"/>
</g>
<!-- Node8 -->
<g id="node8" class="node"><title>Node8</title>
<g id="a_node8"><a xlink:href="classtvm_1_1tir_1_1BufferLoad.html" target="_top" xlink:title="{tvm::tir::BufferLoad\n||+ BufferLoad()\l+ TVM_DEFINE_OBJECT_REF\l_METHODS()\l}">
<polygon fill="white" stroke="black" points="336,-221 336,-300 486,-300 486,-221 336,-221"/>
<text text-anchor="middle" x="411" y="-288" font-family="Helvetica,sans-Serif" font-size="10.00">tvm::tir::BufferLoad</text>
<polyline fill="none" stroke="black" points="336,-281 486,-281 "/>
<text text-anchor="middle" x="411" y="-269" font-family="Helvetica,sans-Serif" font-size="10.00"> </text>
<polyline fill="none" stroke="black" points="336,-262 486,-262 "/>
<text text-anchor="start" x="344" y="-250" font-family="Helvetica,sans-Serif" font-size="10.00">+ BufferLoad()</text>
<text text-anchor="start" x="344" y="-239" font-family="Helvetica,sans-Serif" font-size="10.00">+ TVM_DEFINE_OBJECT_REF</text>
<text text-anchor="start" x="344" y="-228" font-family="Helvetica,sans-Serif" font-size="10.00">_METHODS()</text>
</a>
</g>
</g>
<!-- Node3&#45;&gt;Node8 -->
<g id="edge7" class="edge"><title>Node3&#45;&gt;Node8</title>
<path fill="none" stroke="midnightblue" d="M460.241,-344.447C451.397,-329.549 442.111,-313.907 434.017,-300.272"/>
<polygon fill="none" stroke="midnightblue" points="457.27,-346.3 465.385,-353.112 463.29,-342.727 457.27,-346.3"/>
</g>
<!-- Node9 -->
<g id="node9" class="node"><title>Node9</title>
<g id="a_node9"><a xlink:href="classtvm_1_1tir_1_1StringImm.html" target="_top" xlink:title="{tvm::tir::StringImm\n||+ TVM_DEFINE_OBJECT_REF\l_METHODS()\l}">
<polygon fill="white" stroke="black" points="504,-226.5 504,-294.5 654,-294.5 654,-226.5 504,-226.5"/>
<text text-anchor="middle" x="579" y="-282.5" font-family="Helvetica,sans-Serif" font-size="10.00">tvm::tir::StringImm</text>
<polyline fill="none" stroke="black" points="504,-275.5 654,-275.5 "/>
<text text-anchor="middle" x="579" y="-263.5" font-family="Helvetica,sans-Serif" font-size="10.00"> </text>
<polyline fill="none" stroke="black" points="504,-256.5 654,-256.5 "/>
<text text-anchor="start" x="512" y="-244.5" font-family="Helvetica,sans-Serif" font-size="10.00">+ TVM_DEFINE_OBJECT_REF</text>
<text text-anchor="start" x="512" y="-233.5" font-family="Helvetica,sans-Serif" font-size="10.00">_METHODS()</text>
</a>
</g>
</g>
<!-- Node3&#45;&gt;Node9 -->
<g id="edge8" class="edge"><title>Node3&#45;&gt;Node9</title>
<path fill="none" stroke="midnightblue" d="M529.825,-344.336C539.911,-327.346 550.567,-309.397 559.37,-294.567"/>
<polygon fill="none" stroke="midnightblue" points="526.71,-342.727 524.615,-353.112 532.73,-346.3 526.71,-342.727"/>
</g>
<!-- Node10 -->
<g id="node10" class="node"><title>Node10</title>
<g id="a_node10"><a xlink:href="classtvm_1_1tir_1_1Var.html" target="_top" xlink:title="a named variable in TVM ">
<polygon fill="white" stroke="black" points="672,-204.5 672,-316.5 784,-316.5 784,-204.5 672,-204.5"/>
<text text-anchor="middle" x="728" y="-304.5" font-family="Helvetica,sans-Serif" font-size="10.00">tvm::tir::Var</text>
<polyline fill="none" stroke="black" points="672,-297.5 784,-297.5 "/>
<text text-anchor="middle" x="728" y="-285.5" font-family="Helvetica,sans-Serif" font-size="10.00"> </text>
<polyline fill="none" stroke="black" points="672,-278.5 784,-278.5 "/>
<text text-anchor="start" x="680" y="-266.5" font-family="Helvetica,sans-Serif" font-size="10.00">+ Var()</text>
<text text-anchor="start" x="680" y="-255.5" font-family="Helvetica,sans-Serif" font-size="10.00">+ Var()</text>
<text text-anchor="start" x="680" y="-244.5" font-family="Helvetica,sans-Serif" font-size="10.00">+ Var()</text>
<text text-anchor="start" x="680" y="-233.5" font-family="Helvetica,sans-Serif" font-size="10.00">+ copy_with_suffix()</text>
<text text-anchor="start" x="680" y="-222.5" font-family="Helvetica,sans-Serif" font-size="10.00">+ operator&#45;&gt;()</text>
<text text-anchor="start" x="680" y="-211.5" font-family="Helvetica,sans-Serif" font-size="10.00">+ get()</text>
</a>
</g>
</g>
<!-- Node3&#45;&gt;Node10 -->
<g id="edge9" class="edge"><title>Node3&#45;&gt;Node10</title>
<path fill="none" stroke="midnightblue" d="M579.484,-364.581C606.9,-350.858 636.947,-334.441 663,-317 665.959,-315.019 668.935,-312.921 671.898,-310.747"/>
<polygon fill="none" stroke="midnightblue" points="577.706,-361.556 570.297,-369.129 580.812,-367.829 577.706,-361.556"/>
</g>
<!-- Node6 -->
<g id="node6" class="node"><title>Node6</title>
<g id="a_node6"><a xlink:href="classtvm_1_1Bool.html" target="_top" xlink:title="Boolean constant. ">
<polygon fill="white" stroke="black" points="83,-33.5 83,-134.5 247,-134.5 247,-33.5 83,-33.5"/>
<text text-anchor="middle" x="165" y="-122.5" font-family="Helvetica,sans-Serif" font-size="10.00">tvm::Bool</text>
<polyline fill="none" stroke="black" points="83,-115.5 247,-115.5 "/>
<text text-anchor="middle" x="165" y="-103.5" font-family="Helvetica,sans-Serif" font-size="10.00"> </text>
<polyline fill="none" stroke="black" points="83,-96.5 247,-96.5 "/>
<text text-anchor="start" x="91" y="-84.5" font-family="Helvetica,sans-Serif" font-size="10.00">+ Bool()</text>
<text text-anchor="start" x="91" y="-73.5" font-family="Helvetica,sans-Serif" font-size="10.00">+ operator!()</text>
<text text-anchor="start" x="91" y="-62.5" font-family="Helvetica,sans-Serif" font-size="10.00">+ operator bool()</text>
<text text-anchor="start" x="91" y="-51.5" font-family="Helvetica,sans-Serif" font-size="10.00">+ TVM_DEFINE_NOTNULLABLE</text>
<text text-anchor="start" x="91" y="-40.5" font-family="Helvetica,sans-Serif" font-size="10.00">_OBJECT_REF_METHODS()</text>
</a>
</g>
</g>
<!-- Node5&#45;&gt;Node6 -->
<g id="edge5" class="edge"><title>Node5&#45;&gt;Node6</title>
<path fill="none" stroke="midnightblue" d="M221.559,-211.533C210.867,-187.614 197.95,-158.715 187.161,-134.578"/>
<polygon fill="none" stroke="midnightblue" points="218.413,-213.072 225.689,-220.773 224.804,-210.215 218.413,-213.072"/>
</g>
<!-- Node7 -->
<g id="node7" class="node"><title>Node7</title>
<g id="a_node7"><a xlink:href="classtvm_1_1Integer.html" target="_top" xlink:title="Container of constant int that adds more constructors. ">
<polygon fill="white" stroke="black" points="265.5,-0.5 265.5,-167.5 378.5,-167.5 378.5,-0.5 265.5,-0.5"/>
<text text-anchor="middle" x="322" y="-155.5" font-family="Helvetica,sans-Serif" font-size="10.00">tvm::Integer</text>
<polyline fill="none" stroke="black" points="265.5,-148.5 378.5,-148.5 "/>
<text text-anchor="middle" x="322" y="-136.5" font-family="Helvetica,sans-Serif" font-size="10.00"> </text>
<polyline fill="none" stroke="black" points="265.5,-129.5 378.5,-129.5 "/>
<text text-anchor="start" x="273.5" y="-117.5" font-family="Helvetica,sans-Serif" font-size="10.00">+ Integer()</text>
<text text-anchor="start" x="273.5" y="-106.5" font-family="Helvetica,sans-Serif" font-size="10.00">+ Integer()</text>
<text text-anchor="start" x="273.5" y="-95.5" font-family="Helvetica,sans-Serif" font-size="10.00">+ Integer()</text>
<text text-anchor="start" x="273.5" y="-84.5" font-family="Helvetica,sans-Serif" font-size="10.00">+ Integer()</text>
<text text-anchor="start" x="273.5" y="-73.5" font-family="Helvetica,sans-Serif" font-size="10.00">+ Integer()</text>
<text text-anchor="start" x="273.5" y="-62.5" font-family="Helvetica,sans-Serif" font-size="10.00">+ operator=()</text>
<text text-anchor="start" x="273.5" y="-51.5" font-family="Helvetica,sans-Serif" font-size="10.00">+ operator int64_t()</text>
<text text-anchor="start" x="273.5" y="-40.5" font-family="Helvetica,sans-Serif" font-size="10.00">+ operator==()</text>
<text text-anchor="start" x="273.5" y="-29.5" font-family="Helvetica,sans-Serif" font-size="10.00">+ operator!=()</text>
<text text-anchor="start" x="273.5" y="-18.5" font-family="Helvetica,sans-Serif" font-size="10.00">+ operator==()</text>
<text text-anchor="start" x="273.5" y="-7.5" font-family="Helvetica,sans-Serif" font-size="10.00">+ operator!=()</text>
</a>
</g>
</g>
<!-- Node5&#45;&gt;Node7 -->
<g id="edge6" class="edge"><title>Node5&#45;&gt;Node7</title>
<path fill="none" stroke="midnightblue" d="M264.685,-211.601C270.867,-197.945 277.786,-182.662 284.62,-167.567"/>
<polygon fill="none" stroke="midnightblue" points="261.469,-210.219 260.533,-220.773 267.845,-213.106 261.469,-210.219"/>
</g>
<!-- Node11 -->
<g id="node11" class="node"><title>Node11</title>
<g id="a_node11"><a xlink:href="classtvm_1_1tir_1_1SizeVar.html" target="_top" xlink:title="a named variable represents a tensor index size ">
<polygon fill="white" stroke="black" points="681.5,-39 681.5,-129 774.5,-129 774.5,-39 681.5,-39"/>
<text text-anchor="middle" x="728" y="-117" font-family="Helvetica,sans-Serif" font-size="10.00">tvm::tir::SizeVar</text>
<polyline fill="none" stroke="black" points="681.5,-110 774.5,-110 "/>
<text text-anchor="middle" x="728" y="-98" font-family="Helvetica,sans-Serif" font-size="10.00"> </text>
<polyline fill="none" stroke="black" points="681.5,-91 774.5,-91 "/>
<text text-anchor="start" x="689.5" y="-79" font-family="Helvetica,sans-Serif" font-size="10.00">+ SizeVar()</text>
<text text-anchor="start" x="689.5" y="-68" font-family="Helvetica,sans-Serif" font-size="10.00">+ SizeVar()</text>
<text text-anchor="start" x="689.5" y="-57" font-family="Helvetica,sans-Serif" font-size="10.00">+ operator&#45;&gt;()</text>
<text text-anchor="start" x="689.5" y="-46" font-family="Helvetica,sans-Serif" font-size="10.00">+ get()</text>
</a>
</g>
</g>
<!-- Node10&#45;&gt;Node11 -->
<g id="edge10" class="edge"><title>Node10&#45;&gt;Node11</title>
<path fill="none" stroke="midnightblue" d="M728,-194.143C728,-172.438 728,-148.8 728,-129.09"/>
<polygon fill="none" stroke="midnightblue" points="724.5,-194.287 728,-204.287 731.5,-194.287 724.5,-194.287"/>
</g>
<!-- Node13 -->
<g id="node13" class="node"><title>Node13</title>
<g id="a_node13"><a xlink:href="classtvm_1_1BaseFunc.html" target="_top" xlink:title="Managed reference to BaseFuncNode. ">
<polygon fill="white" stroke="black" points="802,-226.5 802,-294.5 952,-294.5 952,-226.5 802,-226.5"/>
<text text-anchor="middle" x="877" y="-282.5" font-family="Helvetica,sans-Serif" font-size="10.00">tvm::BaseFunc</text>
<polyline fill="none" stroke="black" points="802,-275.5 952,-275.5 "/>
<text text-anchor="middle" x="877" y="-263.5" font-family="Helvetica,sans-Serif" font-size="10.00"> </text>
<polyline fill="none" stroke="black" points="802,-256.5 952,-256.5 "/>
<text text-anchor="start" x="810" y="-244.5" font-family="Helvetica,sans-Serif" font-size="10.00">+ TVM_DEFINE_OBJECT_REF</text>
<text text-anchor="start" x="810" y="-233.5" font-family="Helvetica,sans-Serif" font-size="10.00">_METHODS()</text>
</a>
</g>
</g>
<!-- Node12&#45;&gt;Node13 -->
<g id="edge12" class="edge"><title>Node12&#45;&gt;Node13</title>
<path fill="none" stroke="midnightblue" d="M1905.4,-401.292C1690.83,-396.146 1134.8,-377.229 961,-317 946.136,-311.849 931.341,-303.46 918.404,-294.747"/>
<polygon fill="none" stroke="midnightblue" points="1905.58,-404.797 1915.66,-401.534 1905.75,-397.799 1905.58,-404.797"/>
</g>
<!-- Node16 -->
<g id="node16" class="node"><title>Node16</title>
<g id="a_node16"><a xlink:href="classtvm_1_1Constructor.html" target="_top" xlink:title="Managed reference to ConstructorNode. ">
<polygon fill="white" stroke="black" points="970,-221 970,-300 1120,-300 1120,-221 970,-221"/>
<text text-anchor="middle" x="1045" y="-288" font-family="Helvetica,sans-Serif" font-size="10.00">tvm::Constructor</text>
<polyline fill="none" stroke="black" points="970,-281 1120,-281 "/>
<text text-anchor="middle" x="1045" y="-269" font-family="Helvetica,sans-Serif" font-size="10.00"> </text>
<polyline fill="none" stroke="black" points="970,-262 1120,-262 "/>
<text text-anchor="start" x="978" y="-250" font-family="Helvetica,sans-Serif" font-size="10.00">+ Constructor()</text>
<text text-anchor="start" x="978" y="-239" font-family="Helvetica,sans-Serif" font-size="10.00">+ TVM_DEFINE_OBJECT_REF</text>
<text text-anchor="start" x="978" y="-228" font-family="Helvetica,sans-Serif" font-size="10.00">_METHODS()</text>
</a>
</g>
</g>
<!-- Node12&#45;&gt;Node16 -->
<g id="edge15" class="edge"><title>Node12&#45;&gt;Node16</title>
<path fill="none" stroke="midnightblue" d="M1905.84,-399.697C1717.43,-391.552 1270.75,-367.407 1129,-317 1117.31,-312.842 1105.64,-306.721 1094.88,-300.047"/>
<polygon fill="none" stroke="midnightblue" points="1905.83,-403.2 1915.97,-400.13 1906.13,-396.206 1905.83,-403.2"/>
</g>
<!-- Node17 -->
<g id="node17" class="node"><title>Node17</title>
<g id="a_node17"><a xlink:href="classtvm_1_1GlobalVar.html" target="_top" xlink:title="Managed reference to GlobalVarNode. ">
<polygon fill="white" stroke="black" points="1138,-221 1138,-300 1288,-300 1288,-221 1138,-221"/>
<text text-anchor="middle" x="1213" y="-288" font-family="Helvetica,sans-Serif" font-size="10.00">tvm::GlobalVar</text>
<polyline fill="none" stroke="black" points="1138,-281 1288,-281 "/>
<text text-anchor="middle" x="1213" y="-269" font-family="Helvetica,sans-Serif" font-size="10.00"> </text>
<polyline fill="none" stroke="black" points="1138,-262 1288,-262 "/>
<text text-anchor="start" x="1146" y="-250" font-family="Helvetica,sans-Serif" font-size="10.00">+ GlobalVar()</text>
<text text-anchor="start" x="1146" y="-239" font-family="Helvetica,sans-Serif" font-size="10.00">+ TVM_DEFINE_OBJECT_REF</text>
<text text-anchor="start" x="1146" y="-228" font-family="Helvetica,sans-Serif" font-size="10.00">_METHODS()</text>
</a>
</g>
</g>
<!-- Node12&#45;&gt;Node17 -->
<g id="edge16" class="edge"><title>Node12&#45;&gt;Node17</title>
<path fill="none" stroke="midnightblue" d="M1905.6,-397.311C1745.59,-385.85 1406.92,-357.57 1297,-317 1285.52,-312.763 1274.04,-306.694 1263.42,-300.111"/>
<polygon fill="none" stroke="midnightblue" points="1905.65,-400.824 1915.87,-398.042 1906.15,-393.841 1905.65,-400.824"/>
</g>
<!-- Node18 -->
<g id="node18" class="node"><title>Node18</title>
<g id="a_node18"><a xlink:href="classtvm_1_1Op.html" target="_top" xlink:title="Managed reference class to OpNode. ">
<polygon fill="white" stroke="black" points="1306,-204.5 1306,-316.5 1394,-316.5 1394,-204.5 1306,-204.5"/>
<text text-anchor="middle" x="1350" y="-304.5" font-family="Helvetica,sans-Serif" font-size="10.00">tvm::Op</text>
<polyline fill="none" stroke="black" points="1306,-297.5 1394,-297.5 "/>
<text text-anchor="middle" x="1350" y="-285.5" font-family="Helvetica,sans-Serif" font-size="10.00"> </text>
<polyline fill="none" stroke="black" points="1306,-278.5 1394,-278.5 "/>
<text text-anchor="start" x="1314" y="-266.5" font-family="Helvetica,sans-Serif" font-size="10.00">+ Op()</text>
<text text-anchor="start" x="1314" y="-255.5" font-family="Helvetica,sans-Serif" font-size="10.00">+ Op()</text>
<text text-anchor="start" x="1314" y="-244.5" font-family="Helvetica,sans-Serif" font-size="10.00">+ operator&#45;&gt;()</text>
<text text-anchor="start" x="1314" y="-233.5" font-family="Helvetica,sans-Serif" font-size="10.00">+ GetAttr()</text>
<text text-anchor="start" x="1314" y="-222.5" font-family="Helvetica,sans-Serif" font-size="10.00">+ HasAttr()</text>
<text text-anchor="start" x="1314" y="-211.5" font-family="Helvetica,sans-Serif" font-size="10.00">+ Get()</text>
</a>
</g>
</g>
<!-- Node12&#45;&gt;Node18 -->
<g id="edge17" class="edge"><title>Node12&#45;&gt;Node18</title>
<path fill="none" stroke="midnightblue" d="M1905.54,-397.347C1764.22,-386.873 1488.9,-361.376 1403,-317 1399.92,-315.41 1396.92,-313.571 1394.02,-311.549"/>
<polygon fill="none" stroke="midnightblue" points="1905.66,-400.865 1915.89,-398.105 1906.18,-393.884 1905.66,-400.865"/>
</g>
<!-- Node19 -->
<g id="node19" class="node"><title>Node19</title>
<g id="a_node19"><a xlink:href="classtvm_1_1relay_1_1Call.html" target="_top" xlink:title="{tvm::relay::Call\n||+ Call()\l+ TVM_DEFINE_OBJECT_REF\l_METHODS()\l}">
<polygon fill="white" stroke="black" points="1412,-221 1412,-300 1562,-300 1562,-221 1412,-221"/>
<text text-anchor="middle" x="1487" y="-288" font-family="Helvetica,sans-Serif" font-size="10.00">tvm::relay::Call</text>
<polyline fill="none" stroke="black" points="1412,-281 1562,-281 "/>
<text text-anchor="middle" x="1487" y="-269" font-family="Helvetica,sans-Serif" font-size="10.00"> </text>
<polyline fill="none" stroke="black" points="1412,-262 1562,-262 "/>
<text text-anchor="start" x="1420" y="-250" font-family="Helvetica,sans-Serif" font-size="10.00">+ Call()</text>
<text text-anchor="start" x="1420" y="-239" font-family="Helvetica,sans-Serif" font-size="10.00">+ TVM_DEFINE_OBJECT_REF</text>
<text text-anchor="start" x="1420" y="-228" font-family="Helvetica,sans-Serif" font-size="10.00">_METHODS()</text>
</a>
</g>
</g>
<!-- Node12&#45;&gt;Node19 -->
<g id="edge18" class="edge"><title>Node12&#45;&gt;Node19</title>
<path fill="none" stroke="midnightblue" d="M1905.56,-395.147C1818.66,-384.969 1681.45,-362.779 1571,-317 1560.18,-312.516 1549.27,-306.578 1539.06,-300.253"/>
<polygon fill="none" stroke="midnightblue" points="1905.31,-398.641 1915.64,-396.301 1906.1,-391.687 1905.31,-398.641"/>
</g>
<!-- Node20 -->
<g id="node20" class="node"><title>Node20</title>
<g id="a_node20"><a xlink:href="classtvm_1_1relay_1_1Constant.html" target="_top" xlink:title="{tvm::relay::Constant\n||+ Constant()\l+ TVM_DEFINE_OBJECT_REF\l_METHODS()\l}">
<polygon fill="white" stroke="black" points="1580,-221 1580,-300 1730,-300 1730,-221 1580,-221"/>
<text text-anchor="middle" x="1655" y="-288" font-family="Helvetica,sans-Serif" font-size="10.00">tvm::relay::Constant</text>
<polyline fill="none" stroke="black" points="1580,-281 1730,-281 "/>
<text text-anchor="middle" x="1655" y="-269" font-family="Helvetica,sans-Serif" font-size="10.00"> </text>
<polyline fill="none" stroke="black" points="1580,-262 1730,-262 "/>
<text text-anchor="start" x="1588" y="-250" font-family="Helvetica,sans-Serif" font-size="10.00">+ Constant()</text>
<text text-anchor="start" x="1588" y="-239" font-family="Helvetica,sans-Serif" font-size="10.00">+ TVM_DEFINE_OBJECT_REF</text>
<text text-anchor="start" x="1588" y="-228" font-family="Helvetica,sans-Serif" font-size="10.00">_METHODS()</text>
</a>
</g>
</g>
<!-- Node12&#45;&gt;Node20 -->
<g id="edge19" class="edge"><title>Node12&#45;&gt;Node20</title>
<path fill="none" stroke="midnightblue" d="M1906.16,-379.956C1856.24,-364.959 1792.59,-343.309 1739,-317 1728.96,-312.07 1718.69,-306.136 1708.93,-300.009"/>
<polygon fill="none" stroke="midnightblue" points="1905.37,-383.373 1915.96,-382.866 1907.37,-376.663 1905.37,-383.373"/>
</g>
<!-- Node21 -->
<g id="node21" class="node"><title>Node21</title>
<g id="a_node21"><a xlink:href="classtvm_1_1relay_1_1If.html" target="_top" xlink:title="{tvm::relay::If\n||+ If()\l+ TVM_DEFINE_OBJECT_REF\l_METHODS()\l}">
<polygon fill="white" stroke="black" points="1748,-221 1748,-300 1898,-300 1898,-221 1748,-221"/>
<text text-anchor="middle" x="1823" y="-288" font-family="Helvetica,sans-Serif" font-size="10.00">tvm::relay::If</text>
<polyline fill="none" stroke="black" points="1748,-281 1898,-281 "/>
<text text-anchor="middle" x="1823" y="-269" font-family="Helvetica,sans-Serif" font-size="10.00"> </text>
<polyline fill="none" stroke="black" points="1748,-262 1898,-262 "/>
<text text-anchor="start" x="1756" y="-250" font-family="Helvetica,sans-Serif" font-size="10.00">+ If()</text>
<text text-anchor="start" x="1756" y="-239" font-family="Helvetica,sans-Serif" font-size="10.00">+ TVM_DEFINE_OBJECT_REF</text>
<text text-anchor="start" x="1756" y="-228" font-family="Helvetica,sans-Serif" font-size="10.00">_METHODS()</text>
</a>
</g>
</g>
<!-- Node12&#45;&gt;Node21 -->
<g id="edge20" class="edge"><title>Node12&#45;&gt;Node21</title>
<path fill="none" stroke="midnightblue" d="M1943.87,-363.3C1920.44,-343.573 1892.25,-319.828 1868.99,-300.235"/>
<polygon fill="none" stroke="midnightblue" points="1941.71,-366.059 1951.61,-369.825 1946.22,-360.705 1941.71,-366.059"/>
</g>
<!-- Node22 -->
<g id="node22" class="node"><title>Node22</title>
<g id="a_node22"><a xlink:href="classtvm_1_1relay_1_1Let.html" target="_top" xlink:title="{tvm::relay::Let\n||+ Let()\l+ TVM_DEFINE_OBJECT_REF\l_METHODS()\l}">
<polygon fill="white" stroke="black" points="1916,-221 1916,-300 2066,-300 2066,-221 1916,-221"/>
<text text-anchor="middle" x="1991" y="-288" font-family="Helvetica,sans-Serif" font-size="10.00">tvm::relay::Let</text>
<polyline fill="none" stroke="black" points="1916,-281 2066,-281 "/>
<text text-anchor="middle" x="1991" y="-269" font-family="Helvetica,sans-Serif" font-size="10.00"> </text>
<polyline fill="none" stroke="black" points="1916,-262 2066,-262 "/>
<text text-anchor="start" x="1924" y="-250" font-family="Helvetica,sans-Serif" font-size="10.00">+ Let()</text>
<text text-anchor="start" x="1924" y="-239" font-family="Helvetica,sans-Serif" font-size="10.00">+ TVM_DEFINE_OBJECT_REF</text>
<text text-anchor="start" x="1924" y="-228" font-family="Helvetica,sans-Serif" font-size="10.00">_METHODS()</text>
</a>
</g>
</g>
<!-- Node12&#45;&gt;Node22 -->
<g id="edge21" class="edge"><title>Node12&#45;&gt;Node22</title>
<path fill="none" stroke="midnightblue" d="M1991,-359.655C1991,-340.698 1991,-318.636 1991,-300.235"/>
<polygon fill="none" stroke="midnightblue" points="1987.5,-359.825 1991,-369.825 1994.5,-359.825 1987.5,-359.825"/>
</g>
<!-- Node23 -->
<g id="node23" class="node"><title>Node23</title>
<g id="a_node23"><a xlink:href="classtvm_1_1relay_1_1Match.html" target="_top" xlink:title="{tvm::relay::Match\n||+ Match()\l+ TVM_DEFINE_OBJECT_REF\l_METHODS()\l}">
<polygon fill="white" stroke="black" points="2084,-221 2084,-300 2234,-300 2234,-221 2084,-221"/>
<text text-anchor="middle" x="2159" y="-288" font-family="Helvetica,sans-Serif" font-size="10.00">tvm::relay::Match</text>
<polyline fill="none" stroke="black" points="2084,-281 2234,-281 "/>
<text text-anchor="middle" x="2159" y="-269" font-family="Helvetica,sans-Serif" font-size="10.00"> </text>
<polyline fill="none" stroke="black" points="2084,-262 2234,-262 "/>
<text text-anchor="start" x="2092" y="-250" font-family="Helvetica,sans-Serif" font-size="10.00">+ Match()</text>
<text text-anchor="start" x="2092" y="-239" font-family="Helvetica,sans-Serif" font-size="10.00">+ TVM_DEFINE_OBJECT_REF</text>
<text text-anchor="start" x="2092" y="-228" font-family="Helvetica,sans-Serif" font-size="10.00">_METHODS()</text>
</a>
</g>
</g>
<!-- Node12&#45;&gt;Node23 -->
<g id="edge22" class="edge"><title>Node12&#45;&gt;Node23</title>
<path fill="none" stroke="midnightblue" d="M2038.13,-363.3C2061.56,-343.573 2089.75,-319.828 2113.01,-300.235"/>
<polygon fill="none" stroke="midnightblue" points="2035.78,-360.705 2030.39,-369.825 2040.29,-366.059 2035.78,-360.705"/>
</g>
<!-- Node24 -->
<g id="node24" class="node"><title>Node24</title>
<g id="a_node24"><a xlink:href="classtvm_1_1relay_1_1RefCreate.html" target="_top" xlink:title="{tvm::relay::RefCreate\n||+ RefCreate()\l+ TVM_DEFINE_OBJECT_REF\l_METHODS()\l}">
<polygon fill="white" stroke="black" points="2252,-221 2252,-300 2402,-300 2402,-221 2252,-221"/>
<text text-anchor="middle" x="2327" y="-288" font-family="Helvetica,sans-Serif" font-size="10.00">tvm::relay::RefCreate</text>
<polyline fill="none" stroke="black" points="2252,-281 2402,-281 "/>
<text text-anchor="middle" x="2327" y="-269" font-family="Helvetica,sans-Serif" font-size="10.00"> </text>
<polyline fill="none" stroke="black" points="2252,-262 2402,-262 "/>
<text text-anchor="start" x="2260" y="-250" font-family="Helvetica,sans-Serif" font-size="10.00">+ RefCreate()</text>
<text text-anchor="start" x="2260" y="-239" font-family="Helvetica,sans-Serif" font-size="10.00">+ TVM_DEFINE_OBJECT_REF</text>
<text text-anchor="start" x="2260" y="-228" font-family="Helvetica,sans-Serif" font-size="10.00">_METHODS()</text>
</a>
</g>
</g>
<!-- Node12&#45;&gt;Node24 -->
<g id="edge23" class="edge"><title>Node12&#45;&gt;Node24</title>
<path fill="none" stroke="midnightblue" d="M2075.84,-379.956C2125.76,-364.959 2189.41,-343.309 2243,-317 2253.04,-312.07 2263.31,-306.136 2273.07,-300.009"/>
<polygon fill="none" stroke="midnightblue" points="2074.63,-376.663 2066.04,-382.866 2076.63,-383.373 2074.63,-376.663"/>
</g>
<!-- Node25 -->
<g id="node25" class="node"><title>Node25</title>
<g id="a_node25"><a xlink:href="classtvm_1_1relay_1_1RefRead.html" target="_top" xlink:title="{tvm::relay::RefRead\n||+ RefRead()\l+ TVM_DEFINE_OBJECT_REF\l_METHODS()\l}">
<polygon fill="white" stroke="black" points="2420,-221 2420,-300 2570,-300 2570,-221 2420,-221"/>
<text text-anchor="middle" x="2495" y="-288" font-family="Helvetica,sans-Serif" font-size="10.00">tvm::relay::RefRead</text>
<polyline fill="none" stroke="black" points="2420,-281 2570,-281 "/>
<text text-anchor="middle" x="2495" y="-269" font-family="Helvetica,sans-Serif" font-size="10.00"> </text>
<polyline fill="none" stroke="black" points="2420,-262 2570,-262 "/>
<text text-anchor="start" x="2428" y="-250" font-family="Helvetica,sans-Serif" font-size="10.00">+ RefRead()</text>
<text text-anchor="start" x="2428" y="-239" font-family="Helvetica,sans-Serif" font-size="10.00">+ TVM_DEFINE_OBJECT_REF</text>
<text text-anchor="start" x="2428" y="-228" font-family="Helvetica,sans-Serif" font-size="10.00">_METHODS()</text>
</a>
</g>
</g>
<!-- Node12&#45;&gt;Node25 -->
<g id="edge24" class="edge"><title>Node12&#45;&gt;Node25</title>
<path fill="none" stroke="midnightblue" d="M2076.44,-395.147C2163.34,-384.969 2300.55,-362.779 2411,-317 2421.82,-312.516 2432.73,-306.578 2442.94,-300.253"/>
<polygon fill="none" stroke="midnightblue" points="2075.9,-391.687 2066.36,-396.301 2076.69,-398.641 2075.9,-391.687"/>
</g>
<!-- Node26 -->
<g id="node26" class="node"><title>Node26</title>
<g id="a_node26"><a xlink:href="classtvm_1_1relay_1_1RefWrite.html" target="_top" xlink:title="{tvm::relay::RefWrite\n||+ RefWrite()\l+ TVM_DEFINE_OBJECT_REF\l_METHODS()\l}">
<polygon fill="white" stroke="black" points="2588,-221 2588,-300 2738,-300 2738,-221 2588,-221"/>
<text text-anchor="middle" x="2663" y="-288" font-family="Helvetica,sans-Serif" font-size="10.00">tvm::relay::RefWrite</text>
<polyline fill="none" stroke="black" points="2588,-281 2738,-281 "/>
<text text-anchor="middle" x="2663" y="-269" font-family="Helvetica,sans-Serif" font-size="10.00"> </text>
<polyline fill="none" stroke="black" points="2588,-262 2738,-262 "/>
<text text-anchor="start" x="2596" y="-250" font-family="Helvetica,sans-Serif" font-size="10.00">+ RefWrite()</text>
<text text-anchor="start" x="2596" y="-239" font-family="Helvetica,sans-Serif" font-size="10.00">+ TVM_DEFINE_OBJECT_REF</text>
<text text-anchor="start" x="2596" y="-228" font-family="Helvetica,sans-Serif" font-size="10.00">_METHODS()</text>
</a>
</g>
</g>
<!-- Node12&#45;&gt;Node26 -->
<g id="edge25" class="edge"><title>Node12&#45;&gt;Node26</title>
<path fill="none" stroke="midnightblue" d="M2076.34,-402.064C2193.42,-398.233 2408.71,-381.983 2579,-317 2590.27,-312.7 2601.56,-306.686 2612.05,-300.195"/>
<polygon fill="none" stroke="midnightblue" points="2075.9,-398.575 2066.02,-402.378 2076.12,-405.572 2075.9,-398.575"/>
</g>
<!-- Node27 -->
<g id="node27" class="node"><title>Node27</title>
<g id="a_node27"><a xlink:href="classtvm_1_1relay_1_1TempExpr.html" target="_top" xlink:title="{tvm::relay::TempExpr\n||+ TVM_DEFINE_OBJECT_REF\l_METHODS()\l}">
<polygon fill="white" stroke="black" points="2756,-226.5 2756,-294.5 2906,-294.5 2906,-226.5 2756,-226.5"/>
<text text-anchor="middle" x="2831" y="-282.5" font-family="Helvetica,sans-Serif" font-size="10.00">tvm::relay::TempExpr</text>
<polyline fill="none" stroke="black" points="2756,-275.5 2906,-275.5 "/>
<text text-anchor="middle" x="2831" y="-263.5" font-family="Helvetica,sans-Serif" font-size="10.00"> </text>
<polyline fill="none" stroke="black" points="2756,-256.5 2906,-256.5 "/>
<text text-anchor="start" x="2764" y="-244.5" font-family="Helvetica,sans-Serif" font-size="10.00">+ TVM_DEFINE_OBJECT_REF</text>
<text text-anchor="start" x="2764" y="-233.5" font-family="Helvetica,sans-Serif" font-size="10.00">_METHODS()</text>
</a>
</g>
</g>
<!-- Node12&#45;&gt;Node27 -->
<g id="edge26" class="edge"><title>Node12&#45;&gt;Node27</title>
<path fill="none" stroke="midnightblue" d="M2076.4,-398.309C2247.3,-388.103 2625.41,-361.187 2747,-317 2761.62,-311.687 2776.23,-303.36 2789.06,-294.757"/>
<polygon fill="none" stroke="midnightblue" points="2075.96,-394.828 2066.19,-398.913 2076.38,-401.816 2075.96,-394.828"/>
</g>
<!-- Node28 -->
<g id="node28" class="node"><title>Node28</title>
<g id="a_node28"><a xlink:href="classtvm_1_1relay_1_1Tuple.html" target="_top" xlink:title="{tvm::relay::Tuple\n||+ Tuple()\l+ TVM_DEFINE_OBJECT_REF\l_METHODS()\l}">
<polygon fill="white" stroke="black" points="2924,-221 2924,-300 3074,-300 3074,-221 2924,-221"/>
<text text-anchor="middle" x="2999" y="-288" font-family="Helvetica,sans-Serif" font-size="10.00">tvm::relay::Tuple</text>
<polyline fill="none" stroke="black" points="2924,-281 3074,-281 "/>
<text text-anchor="middle" x="2999" y="-269" font-family="Helvetica,sans-Serif" font-size="10.00"> </text>
<polyline fill="none" stroke="black" points="2924,-262 3074,-262 "/>
<text text-anchor="start" x="2932" y="-250" font-family="Helvetica,sans-Serif" font-size="10.00">+ Tuple()</text>
<text text-anchor="start" x="2932" y="-239" font-family="Helvetica,sans-Serif" font-size="10.00">+ TVM_DEFINE_OBJECT_REF</text>
<text text-anchor="start" x="2932" y="-228" font-family="Helvetica,sans-Serif" font-size="10.00">_METHODS()</text>
</a>
</g>
</g>
<!-- Node12&#45;&gt;Node28 -->
<g id="edge27" class="edge"><title>Node12&#45;&gt;Node28</title>
<path fill="none" stroke="midnightblue" d="M2076.18,-400.356C2274.41,-393.355 2761.42,-371.04 2915,-317 2926.71,-312.881 2938.38,-306.777 2949.14,-300.107"/>
<polygon fill="none" stroke="midnightblue" points="2075.98,-396.861 2066.1,-400.707 2076.22,-403.856 2075.98,-396.861"/>
</g>
<!-- Node29 -->
<g id="node29" class="node"><title>Node29</title>
<g id="a_node29"><a xlink:href="classtvm_1_1relay_1_1TupleGetItem.html" target="_top" xlink:title="{tvm::relay::TupleGetItem\n||+ TupleGetItem()\l+ TVM_DEFINE_OBJECT_REF\l_METHODS()\l}">
<polygon fill="white" stroke="black" points="3092,-221 3092,-300 3242,-300 3242,-221 3092,-221"/>
<text text-anchor="middle" x="3167" y="-288" font-family="Helvetica,sans-Serif" font-size="10.00">tvm::relay::TupleGetItem</text>
<polyline fill="none" stroke="black" points="3092,-281 3242,-281 "/>
<text text-anchor="middle" x="3167" y="-269" font-family="Helvetica,sans-Serif" font-size="10.00"> </text>
<polyline fill="none" stroke="black" points="3092,-262 3242,-262 "/>
<text text-anchor="start" x="3100" y="-250" font-family="Helvetica,sans-Serif" font-size="10.00">+ TupleGetItem()</text>
<text text-anchor="start" x="3100" y="-239" font-family="Helvetica,sans-Serif" font-size="10.00">+ TVM_DEFINE_OBJECT_REF</text>
<text text-anchor="start" x="3100" y="-228" font-family="Helvetica,sans-Serif" font-size="10.00">_METHODS()</text>
</a>
</g>
</g>
<!-- Node12&#45;&gt;Node29 -->
<g id="edge28" class="edge"><title>Node12&#45;&gt;Node29</title>
<path fill="none" stroke="midnightblue" d="M2076.22,-401.771C2299.52,-397.684 2897.14,-380.916 3083,-317 3094.74,-312.964 3106.42,-306.898 3117.19,-300.238"/>
<polygon fill="none" stroke="midnightblue" points="2076.13,-398.272 2066.2,-401.951 2076.26,-405.271 2076.13,-398.272"/>
</g>
<!-- Node30 -->
<g id="node30" class="node"><title>Node30</title>
<g id="a_node30"><a xlink:href="classtvm_1_1relay_1_1Var.html" target="_top" xlink:title="{tvm::relay::Var\n||+ Var()\l+ Var()\l+ TVM_DEFINE_OBJECT_REF\l_METHODS()\l}">
<polygon fill="white" stroke="black" points="3260,-215.5 3260,-305.5 3410,-305.5 3410,-215.5 3260,-215.5"/>
<text text-anchor="middle" x="3335" y="-293.5" font-family="Helvetica,sans-Serif" font-size="10.00">tvm::relay::Var</text>
<polyline fill="none" stroke="black" points="3260,-286.5 3410,-286.5 "/>
<text text-anchor="middle" x="3335" y="-274.5" font-family="Helvetica,sans-Serif" font-size="10.00"> </text>
<polyline fill="none" stroke="black" points="3260,-267.5 3410,-267.5 "/>
<text text-anchor="start" x="3268" y="-255.5" font-family="Helvetica,sans-Serif" font-size="10.00">+ Var()</text>
<text text-anchor="start" x="3268" y="-244.5" font-family="Helvetica,sans-Serif" font-size="10.00">+ Var()</text>
<text text-anchor="start" x="3268" y="-233.5" font-family="Helvetica,sans-Serif" font-size="10.00">+ TVM_DEFINE_OBJECT_REF</text>
<text text-anchor="start" x="3268" y="-222.5" font-family="Helvetica,sans-Serif" font-size="10.00">_METHODS()</text>
</a>
</g>
</g>
<!-- Node12&#45;&gt;Node30 -->
<g id="edge29" class="edge"><title>Node12&#45;&gt;Node30</title>
<path fill="none" stroke="midnightblue" d="M2076.49,-402.814C2323.2,-401.391 3032.67,-390.813 3251,-317 3259.61,-314.089 3268.19,-310.071 3276.39,-305.515"/>
<polygon fill="none" stroke="midnightblue" points="2076.13,-399.316 2066.15,-402.87 2076.17,-406.316 2076.13,-399.316"/>
</g>
<!-- Node14 -->
<g id="node14" class="node"><title>Node14</title>
<g id="a_node14"><a xlink:href="classtvm_1_1relay_1_1Function.html" target="_top" xlink:title="Managed reference to FunctionNode. ">
<polygon fill="white" stroke="black" points="797,-33.5 797,-134.5 947,-134.5 947,-33.5 797,-33.5"/>
<text text-anchor="middle" x="872" y="-122.5" font-family="Helvetica,sans-Serif" font-size="10.00">tvm::relay::Function</text>
<polyline fill="none" stroke="black" points="797,-115.5 947,-115.5 "/>
<text text-anchor="middle" x="872" y="-103.5" font-family="Helvetica,sans-Serif" font-size="10.00"> </text>
<polyline fill="none" stroke="black" points="797,-96.5 947,-96.5 "/>
<text text-anchor="start" x="805" y="-84.5" font-family="Helvetica,sans-Serif" font-size="10.00">+ Function()</text>
<text text-anchor="start" x="805" y="-73.5" font-family="Helvetica,sans-Serif" font-size="10.00">+ TVM_DEFINE_OBJECT_REF</text>
<text text-anchor="start" x="805" y="-62.5" font-family="Helvetica,sans-Serif" font-size="10.00">_METHODS()</text>
<text text-anchor="start" x="805" y="-51.5" font-family="Helvetica,sans-Serif" font-size="10.00">+ TVM_DEFINE_OBJECT_REF</text>
<text text-anchor="start" x="805" y="-40.5" font-family="Helvetica,sans-Serif" font-size="10.00">_COW_METHOD()</text>
</a>
</g>
</g>
<!-- Node13&#45;&gt;Node14 -->
<g id="edge13" class="edge"><title>Node13&#45;&gt;Node14</title>
<path fill="none" stroke="midnightblue" d="M875.756,-216.095C875.048,-191.373 874.158,-160.305 873.422,-134.62"/>
<polygon fill="none" stroke="midnightblue" points="872.263,-216.372 876.048,-226.267 879.26,-216.171 872.263,-216.372"/>
</g>
<!-- Node15 -->
<g id="node15" class="node"><title>Node15</title>
<g id="a_node15"><a xlink:href="classtvm_1_1tir_1_1PrimFunc.html" target="_top" xlink:title="Managed reference to PrimFuncNode. ">
<polygon fill="white" stroke="black" points="965,-33.5 965,-134.5 1115,-134.5 1115,-33.5 965,-33.5"/>
<text text-anchor="middle" x="1040" y="-122.5" font-family="Helvetica,sans-Serif" font-size="10.00">tvm::tir::PrimFunc</text>
<polyline fill="none" stroke="black" points="965,-115.5 1115,-115.5 "/>
<text text-anchor="middle" x="1040" y="-103.5" font-family="Helvetica,sans-Serif" font-size="10.00"> </text>
<polyline fill="none" stroke="black" points="965,-96.5 1115,-96.5 "/>
<text text-anchor="start" x="973" y="-84.5" font-family="Helvetica,sans-Serif" font-size="10.00">+ PrimFunc()</text>
<text text-anchor="start" x="973" y="-73.5" font-family="Helvetica,sans-Serif" font-size="10.00">+ TVM_DEFINE_OBJECT_REF</text>
<text text-anchor="start" x="973" y="-62.5" font-family="Helvetica,sans-Serif" font-size="10.00">_METHODS()</text>
<text text-anchor="start" x="973" y="-51.5" font-family="Helvetica,sans-Serif" font-size="10.00">+ TVM_DEFINE_OBJECT_REF</text>
<text text-anchor="start" x="973" y="-40.5" font-family="Helvetica,sans-Serif" font-size="10.00">_COW_METHOD()</text>
</a>
</g>
</g>
<!-- Node13&#45;&gt;Node15 -->
<g id="edge14" class="edge"><title>Node13&#45;&gt;Node15</title>
<path fill="none" stroke="midnightblue" d="M915.094,-218.719C938.558,-193.599 968.801,-161.223 993.65,-134.62"/>
<polygon fill="none" stroke="midnightblue" points="912.311,-216.57 908.043,-226.267 917.427,-221.349 912.311,-216.57"/>
</g>
</g>
</svg>
