<?xml version="1.0" encoding="UTF-8" standalone="no"?>
<!DOCTYPE svg PUBLIC "-//W3C//DTD SVG 1.1//EN"
 "http://www.w3.org/Graphics/SVG/1.1/DTD/svg11.dtd">
<!-- Generated by graphviz version 2.38.0 (20140413.2041)
 -->
<!-- Title: tvm::TargetNode Pages: 1 -->
<svg width="236pt" height="519pt"
 viewBox="0.00 0.00 235.50 519.00" xmlns="http://www.w3.org/2000/svg" xmlns:xlink="http://www.w3.org/1999/xlink">
<g id="graph0" class="graph" transform="scale(1 1) rotate(0) translate(4 515)">
<title>tvm::TargetNode</title>
<polygon fill="white" stroke="none" points="-4,4 -4,-515 231.5,-515 231.5,4 -4,4"/>
<!-- Node1 -->
<g id="node1" class="node"><title>Node1</title>
<polygon fill="#bfbfbf" stroke="black" points="-1.42109e-14,-0.5 -1.42109e-14,-167.5 205,-167.5 205,-0.5 -1.42109e-14,-0.5"/>
<text text-anchor="middle" x="102.5" y="-155.5" font-family="Helvetica,sans-Serif" font-size="10.00">tvm::TargetNode</text>
<polyline fill="none" stroke="black" points="-1.42109e-14,-148.5 205,-148.5 "/>
<text text-anchor="start" x="8" y="-136.5" font-family="Helvetica,sans-Serif" font-size="10.00">+ target_name</text>
<text text-anchor="start" x="8" y="-125.5" font-family="Helvetica,sans-Serif" font-size="10.00">+ device_name</text>
<text text-anchor="start" x="8" y="-114.5" font-family="Helvetica,sans-Serif" font-size="10.00">+ device_type</text>
<text text-anchor="start" x="8" y="-103.5" font-family="Helvetica,sans-Serif" font-size="10.00">+ max_num_threads</text>
<text text-anchor="start" x="8" y="-92.5" font-family="Helvetica,sans-Serif" font-size="10.00">+ thread_warp_size</text>
<text text-anchor="start" x="8" y="-81.5" font-family="Helvetica,sans-Serif" font-size="10.00">+ _type_key</text>
<polyline fill="none" stroke="black" points="-1.42109e-14,-74.5 205,-74.5 "/>
<text text-anchor="start" x="8" y="-62.5" font-family="Helvetica,sans-Serif" font-size="10.00">+ str()</text>
<text text-anchor="start" x="8" y="-51.5" font-family="Helvetica,sans-Serif" font-size="10.00">+ VisitAttrs()</text>
<text text-anchor="start" x="8" y="-40.5" font-family="Helvetica,sans-Serif" font-size="10.00">+ keys()</text>
<text text-anchor="start" x="8" y="-29.5" font-family="Helvetica,sans-Serif" font-size="10.00">+ options()</text>
<text text-anchor="start" x="8" y="-18.5" font-family="Helvetica,sans-Serif" font-size="10.00">+ libs()</text>
<text text-anchor="start" x="8" y="-7.5" font-family="Helvetica,sans-Serif" font-size="10.00">+ TVM_DECLARE_FINAL_OBJECT_INFO()</text>
</g>
<!-- Node2 -->
<g id="node2" class="node"><title>Node2</title>
<polygon fill="white" stroke="#bfbfbf" points="46,-298 46,-355 93,-355 93,-298 46,-298"/>
<text text-anchor="middle" x="69.5" y="-343" font-family="Helvetica,sans-Serif" font-size="10.00">Object</text>
<polyline fill="none" stroke="#bfbfbf" points="46,-336 93,-336 "/>
<text text-anchor="middle" x="69.5" y="-324" font-family="Helvetica,sans-Serif" font-size="10.00"> </text>
<polyline fill="none" stroke="#bfbfbf" points="46,-317 93,-317 "/>
<text text-anchor="middle" x="69.5" y="-305" font-family="Helvetica,sans-Serif" font-size="10.00"> </text>
</g>
<!-- Node2&#45;&gt;Node1 -->
<g id="edge1" class="edge"><title>Node2&#45;&gt;Node1</title>
<path fill="none" stroke="midnightblue" d="M74.6966,-287.628C79.1043,-255.505 85.5842,-208.28 91.1797,-167.501"/>
<polygon fill="none" stroke="midnightblue" points="71.1775,-287.529 73.2855,-297.912 78.1125,-288.48 71.1775,-287.529"/>
</g>
<!-- Node3 -->
<g id="node3" class="node"><title>Node3</title>
<g id="a_node3"><a xlink:href="classtvm_1_1Array.html" target="_top" xlink:title="{tvm::Array\&lt; runtime\l::String \&gt;\n||+ Array()\l+ Array()\l+ Array()\l+ Array()\l+ Array()\l+ Array()\l+ Array()\l+ Array()\l+ operator=()\l+ operator=()\land 13 more...\l}">
<polygon fill="white" stroke="black" points="111.5,-237.5 111.5,-415.5 227.5,-415.5 227.5,-237.5 111.5,-237.5"/>
<text text-anchor="start" x="119.5" y="-403.5" font-family="Helvetica,sans-Serif" font-size="10.00">tvm::Array&lt; runtime</text>
<text text-anchor="middle" x="169.5" y="-392.5" font-family="Helvetica,sans-Serif" font-size="10.00">::String &gt;</text>
<polyline fill="none" stroke="black" points="111.5,-385.5 227.5,-385.5 "/>
<text text-anchor="middle" x="169.5" y="-373.5" font-family="Helvetica,sans-Serif" font-size="10.00"> </text>
<polyline fill="none" stroke="black" points="111.5,-366.5 227.5,-366.5 "/>
<text text-anchor="start" x="119.5" y="-354.5" font-family="Helvetica,sans-Serif" font-size="10.00">+ Array()</text>
<text text-anchor="start" x="119.5" y="-343.5" font-family="Helvetica,sans-Serif" font-size="10.00">+ Array()</text>
<text text-anchor="start" x="119.5" y="-332.5" font-family="Helvetica,sans-Serif" font-size="10.00">+ Array()</text>
<text text-anchor="start" x="119.5" y="-321.5" font-family="Helvetica,sans-Serif" font-size="10.00">+ Array()</text>
<text text-anchor="start" x="119.5" y="-310.5" font-family="Helvetica,sans-Serif" font-size="10.00">+ Array()</text>
<text text-anchor="start" x="119.5" y="-299.5" font-family="Helvetica,sans-Serif" font-size="10.00">+ Array()</text>
<text text-anchor="start" x="119.5" y="-288.5" font-family="Helvetica,sans-Serif" font-size="10.00">+ Array()</text>
<text text-anchor="start" x="119.5" y="-277.5" font-family="Helvetica,sans-Serif" font-size="10.00">+ Array()</text>
<text text-anchor="start" x="119.5" y="-266.5" font-family="Helvetica,sans-Serif" font-size="10.00">+ operator=()</text>
<text text-anchor="start" x="119.5" y="-255.5" font-family="Helvetica,sans-Serif" font-size="10.00">+ operator=()</text>
<text text-anchor="start" x="119.5" y="-244.5" font-family="Helvetica,sans-Serif" font-size="10.00">and 13 more...</text>
</a>
</g>
</g>
<!-- Node3&#45;&gt;Node1 -->
<g id="edge2" class="edge"><title>Node3&#45;&gt;Node1</title>
<path fill="none" stroke="#404040" d="M144.932,-237.312C139.674,-218.439 134.1,-198.429 128.78,-179.335"/>
<polygon fill="none" stroke="#404040" points="128.727,-179.142 123.263,-174.436 125.506,-167.582 130.97,-172.289 128.727,-179.142"/>
<text text-anchor="middle" x="174.5" y="-211" font-family="Helvetica,sans-Serif" font-size="10.00"> +libs_array</text>
<text text-anchor="middle" x="174.5" y="-200" font-family="Helvetica,sans-Serif" font-size="10.00">+keys_array</text>
<text text-anchor="middle" x="174.5" y="-189" font-family="Helvetica,sans-Serif" font-size="10.00">+options_array</text>
</g>
<!-- Node4 -->
<g id="node4" class="node"><title>Node4</title>
<polygon fill="white" stroke="#bfbfbf" points="138.5,-453.5 138.5,-510.5 200.5,-510.5 200.5,-453.5 138.5,-453.5"/>
<text text-anchor="middle" x="169.5" y="-498.5" font-family="Helvetica,sans-Serif" font-size="10.00">ObjectRef</text>
<polyline fill="none" stroke="#bfbfbf" points="138.5,-491.5 200.5,-491.5 "/>
<text text-anchor="middle" x="169.5" y="-479.5" font-family="Helvetica,sans-Serif" font-size="10.00"> </text>
<polyline fill="none" stroke="#bfbfbf" points="138.5,-472.5 200.5,-472.5 "/>
<text text-anchor="middle" x="169.5" y="-460.5" font-family="Helvetica,sans-Serif" font-size="10.00"> </text>
</g>
<!-- Node4&#45;&gt;Node3 -->
<g id="edge3" class="edge"><title>Node4&#45;&gt;Node3</title>
<path fill="none" stroke="midnightblue" d="M169.5,-442.957C169.5,-434.471 169.5,-425.13 169.5,-415.549"/>
<polygon fill="none" stroke="midnightblue" points="166,-443.202 169.5,-453.202 173,-443.202 166,-443.202"/>
</g>
</g>
</svg>
