<?xml version="1.0" encoding="UTF-8" standalone="no"?>
<!DOCTYPE svg PUBLIC "-//W3C//DTD SVG 1.1//EN"
 "http://www.w3.org/Graphics/SVG/1.1/DTD/svg11.dtd">
<!-- Generated by graphviz version 2.38.0 (20140413.2041)
 -->
<!-- Title: tvm::tir::StmtNode Pages: 1 -->
<svg width="3112pt" height="419pt"
 viewBox="0.00 0.00 3112.00 419.00" xmlns="http://www.w3.org/2000/svg" xmlns:xlink="http://www.w3.org/1999/xlink">
<g id="graph0" class="graph" transform="scale(1 1) rotate(0) translate(4 415)">
<title>tvm::tir::StmtNode</title>
<polygon fill="white" stroke="none" points="-4,4 -4,-415 3108,-415 3108,4 -4,4"/>
<!-- Node1 -->
<g id="node1" class="node"><title>Node1</title>
<polygon fill="#bfbfbf" stroke="black" points="1449.5,-215.5 1449.5,-316.5 1653.5,-316.5 1653.5,-215.5 1449.5,-215.5"/>
<text text-anchor="middle" x="1551.5" y="-304.5" font-family="Helvetica,sans-Serif" font-size="10.00">tvm::tir::StmtNode</text>
<polyline fill="none" stroke="black" points="1449.5,-297.5 1653.5,-297.5 "/>
<text text-anchor="start" x="1457.5" y="-285.5" font-family="Helvetica,sans-Serif" font-size="10.00">+ _type_key</text>
<text text-anchor="start" x="1457.5" y="-274.5" font-family="Helvetica,sans-Serif" font-size="10.00">+ _type_has_method_sequal</text>
<text text-anchor="start" x="1457.5" y="-263.5" font-family="Helvetica,sans-Serif" font-size="10.00">_reduce</text>
<text text-anchor="start" x="1457.5" y="-252.5" font-family="Helvetica,sans-Serif" font-size="10.00">+ _type_has_method_shash</text>
<text text-anchor="start" x="1457.5" y="-241.5" font-family="Helvetica,sans-Serif" font-size="10.00">_reduce</text>
<polyline fill="none" stroke="black" points="1449.5,-234.5 1653.5,-234.5 "/>
<text text-anchor="start" x="1457.5" y="-222.5" font-family="Helvetica,sans-Serif" font-size="10.00">+ TVM_DECLARE_BASE_OBJECT_INFO()</text>
</g>
<!-- Node3 -->
<g id="node3" class="node"><title>Node3</title>
<g id="a_node3"><a xlink:href="classtvm_1_1tir_1_1AllocateNode.html" target="_top" xlink:title="Allocate a buffer that can be used in body. ">
<polygon fill="white" stroke="black" points="0,-0.5 0,-178.5 205,-178.5 205,-0.5 0,-0.5"/>
<text text-anchor="middle" x="102.5" y="-166.5" font-family="Helvetica,sans-Serif" font-size="10.00">tvm::tir::AllocateNode</text>
<polyline fill="none" stroke="black" points="0,-159.5 205,-159.5 "/>
<text text-anchor="start" x="8" y="-147.5" font-family="Helvetica,sans-Serif" font-size="10.00">+ buffer_var</text>
<text text-anchor="start" x="8" y="-136.5" font-family="Helvetica,sans-Serif" font-size="10.00">+ dtype</text>
<text text-anchor="start" x="8" y="-125.5" font-family="Helvetica,sans-Serif" font-size="10.00">+ extents</text>
<text text-anchor="start" x="8" y="-114.5" font-family="Helvetica,sans-Serif" font-size="10.00">+ condition</text>
<text text-anchor="start" x="8" y="-103.5" font-family="Helvetica,sans-Serif" font-size="10.00">+ body</text>
<text text-anchor="start" x="8" y="-92.5" font-family="Helvetica,sans-Serif" font-size="10.00">+ _type_key</text>
<polyline fill="none" stroke="black" points="0,-85.5 205,-85.5 "/>
<text text-anchor="start" x="8" y="-73.5" font-family="Helvetica,sans-Serif" font-size="10.00">+ VisitAttrs()</text>
<text text-anchor="start" x="8" y="-62.5" font-family="Helvetica,sans-Serif" font-size="10.00">+ SEqualReduce()</text>
<text text-anchor="start" x="8" y="-51.5" font-family="Helvetica,sans-Serif" font-size="10.00">+ SHashReduce()</text>
<text text-anchor="start" x="8" y="-40.5" font-family="Helvetica,sans-Serif" font-size="10.00">+ constant_allocation_size()</text>
<text text-anchor="start" x="8" y="-29.5" font-family="Helvetica,sans-Serif" font-size="10.00">+ TVM_DECLARE_FINAL_OBJECT_INFO()</text>
<text text-anchor="start" x="8" y="-18.5" font-family="Helvetica,sans-Serif" font-size="10.00">+ make()</text>
<text text-anchor="start" x="8" y="-7.5" font-family="Helvetica,sans-Serif" font-size="10.00">+ constant_allocation_size()</text>
</a>
</g>
</g>
<!-- Node1&#45;&gt;Node3 -->
<g id="edge2" class="edge"><title>Node1&#45;&gt;Node3</title>
<path fill="none" stroke="midnightblue" d="M1439.18,-261.64C1137.78,-252.081 326.315,-222.58 213.5,-179 210.741,-177.934 207.997,-176.774 205.272,-175.53"/>
<polygon fill="none" stroke="midnightblue" points="1439.14,-265.14 1449.25,-261.958 1439.37,-258.144 1439.14,-265.14"/>
</g>
<!-- Node4 -->
<g id="node4" class="node"><title>Node4</title>
<g id="a_node4"><a xlink:href="classtvm_1_1tir_1_1AssertStmtNode.html" target="_top" xlink:title="Assert condition, if an error occurs, return the error message. ">
<polygon fill="white" stroke="black" points="223,-22.5 223,-156.5 428,-156.5 428,-22.5 223,-22.5"/>
<text text-anchor="middle" x="325.5" y="-144.5" font-family="Helvetica,sans-Serif" font-size="10.00">tvm::tir::AssertStmtNode</text>
<polyline fill="none" stroke="black" points="223,-137.5 428,-137.5 "/>
<text text-anchor="start" x="231" y="-125.5" font-family="Helvetica,sans-Serif" font-size="10.00">+ condition</text>
<text text-anchor="start" x="231" y="-114.5" font-family="Helvetica,sans-Serif" font-size="10.00">+ message</text>
<text text-anchor="start" x="231" y="-103.5" font-family="Helvetica,sans-Serif" font-size="10.00">+ body</text>
<text text-anchor="start" x="231" y="-92.5" font-family="Helvetica,sans-Serif" font-size="10.00">+ _type_key</text>
<polyline fill="none" stroke="black" points="223,-85.5 428,-85.5 "/>
<text text-anchor="start" x="231" y="-73.5" font-family="Helvetica,sans-Serif" font-size="10.00">+ VisitAttrs()</text>
<text text-anchor="start" x="231" y="-62.5" font-family="Helvetica,sans-Serif" font-size="10.00">+ SEqualReduce()</text>
<text text-anchor="start" x="231" y="-51.5" font-family="Helvetica,sans-Serif" font-size="10.00">+ SHashReduce()</text>
<text text-anchor="start" x="231" y="-40.5" font-family="Helvetica,sans-Serif" font-size="10.00">+ TVM_DECLARE_FINAL_OBJECT_INFO()</text>
<text text-anchor="start" x="231" y="-29.5" font-family="Helvetica,sans-Serif" font-size="10.00">+ make()</text>
</a>
</g>
</g>
<!-- Node1&#45;&gt;Node4 -->
<g id="edge3" class="edge"><title>Node1&#45;&gt;Node4</title>
<path fill="none" stroke="midnightblue" d="M1439.27,-264.652C1193.81,-262.555 616.803,-249.979 436.5,-179 422.396,-173.448 408.663,-165.456 395.935,-156.516"/>
<polygon fill="none" stroke="midnightblue" points="1439.26,-268.152 1449.29,-264.733 1439.31,-261.152 1439.26,-268.152"/>
</g>
<!-- Node5 -->
<g id="node5" class="node"><title>Node5</title>
<g id="a_node5"><a xlink:href="classtvm_1_1tir_1_1AttrStmtNode.html" target="_top" xlink:title="Define certain auxiliary attribute for the body to be a symbolic value. This provide auxiliary inform...">
<polygon fill="white" stroke="black" points="446,-17 446,-162 651,-162 651,-17 446,-17"/>
<text text-anchor="middle" x="548.5" y="-150" font-family="Helvetica,sans-Serif" font-size="10.00">tvm::tir::AttrStmtNode</text>
<polyline fill="none" stroke="black" points="446,-143 651,-143 "/>
<text text-anchor="start" x="454" y="-131" font-family="Helvetica,sans-Serif" font-size="10.00">+ node</text>
<text text-anchor="start" x="454" y="-120" font-family="Helvetica,sans-Serif" font-size="10.00">+ attr_key</text>
<text text-anchor="start" x="454" y="-109" font-family="Helvetica,sans-Serif" font-size="10.00">+ value</text>
<text text-anchor="start" x="454" y="-98" font-family="Helvetica,sans-Serif" font-size="10.00">+ body</text>
<text text-anchor="start" x="454" y="-87" font-family="Helvetica,sans-Serif" font-size="10.00">+ _type_key</text>
<polyline fill="none" stroke="black" points="446,-80 651,-80 "/>
<text text-anchor="start" x="454" y="-68" font-family="Helvetica,sans-Serif" font-size="10.00">+ VisitAttrs()</text>
<text text-anchor="start" x="454" y="-57" font-family="Helvetica,sans-Serif" font-size="10.00">+ SEqualReduce()</text>
<text text-anchor="start" x="454" y="-46" font-family="Helvetica,sans-Serif" font-size="10.00">+ SHashReduce()</text>
<text text-anchor="start" x="454" y="-35" font-family="Helvetica,sans-Serif" font-size="10.00">+ TVM_DECLARE_FINAL_OBJECT_INFO()</text>
<text text-anchor="start" x="454" y="-24" font-family="Helvetica,sans-Serif" font-size="10.00">+ make()</text>
</a>
</g>
</g>
<!-- Node1&#45;&gt;Node5 -->
<g id="edge4" class="edge"><title>Node1&#45;&gt;Node5</title>
<path fill="none" stroke="midnightblue" d="M1438.91,-262.096C1231.62,-255.447 798.129,-235.111 659.5,-179 648.534,-174.561 637.778,-168.676 627.539,-162.042"/>
<polygon fill="none" stroke="midnightblue" points="1439.1,-265.604 1449.21,-262.421 1439.33,-258.607 1439.1,-265.604"/>
</g>
<!-- Node6 -->
<g id="node6" class="node"><title>Node6</title>
<g id="a_node6"><a xlink:href="classtvm_1_1tir_1_1BufferStoreNode.html" target="_top" xlink:title="{tvm::tir::BufferStoreNode\n|+ buffer\l+ value\l+ indices\l+ _type_key\l|+ VisitAttrs()\l+ SEqualReduce()\l+ SHashReduce()\l+ TVM_DECLARE_FINAL_OBJECT_INFO()\l}">
<polygon fill="white" stroke="black" points="669,-28 669,-151 874,-151 874,-28 669,-28"/>
<text text-anchor="middle" x="771.5" y="-139" font-family="Helvetica,sans-Serif" font-size="10.00">tvm::tir::BufferStoreNode</text>
<polyline fill="none" stroke="black" points="669,-132 874,-132 "/>
<text text-anchor="start" x="677" y="-120" font-family="Helvetica,sans-Serif" font-size="10.00">+ buffer</text>
<text text-anchor="start" x="677" y="-109" font-family="Helvetica,sans-Serif" font-size="10.00">+ value</text>
<text text-anchor="start" x="677" y="-98" font-family="Helvetica,sans-Serif" font-size="10.00">+ indices</text>
<text text-anchor="start" x="677" y="-87" font-family="Helvetica,sans-Serif" font-size="10.00">+ _type_key</text>
<polyline fill="none" stroke="black" points="669,-80 874,-80 "/>
<text text-anchor="start" x="677" y="-68" font-family="Helvetica,sans-Serif" font-size="10.00">+ VisitAttrs()</text>
<text text-anchor="start" x="677" y="-57" font-family="Helvetica,sans-Serif" font-size="10.00">+ SEqualReduce()</text>
<text text-anchor="start" x="677" y="-46" font-family="Helvetica,sans-Serif" font-size="10.00">+ SHashReduce()</text>
<text text-anchor="start" x="677" y="-35" font-family="Helvetica,sans-Serif" font-size="10.00">+ TVM_DECLARE_FINAL_OBJECT_INFO()</text>
</a>
</g>
</g>
<!-- Node1&#45;&gt;Node6 -->
<g id="edge5" class="edge"><title>Node1&#45;&gt;Node6</title>
<path fill="none" stroke="midnightblue" d="M1439.23,-257.906C1275.58,-246.328 980.335,-220.418 882.5,-179 866.159,-172.082 850.229,-162.055 835.772,-151.215"/>
<polygon fill="none" stroke="midnightblue" points="1439.12,-261.406 1449.34,-258.614 1439.61,-254.423 1439.12,-261.406"/>
</g>
<!-- Node7 -->
<g id="node7" class="node"><title>Node7</title>
<g id="a_node7"><a xlink:href="classtvm_1_1tir_1_1EvaluateNode.html" target="_top" xlink:title="Evaluates an expression. This is mostly used for putting a Call node into Stmt. ">
<polygon fill="white" stroke="black" points="892,-33.5 892,-145.5 1097,-145.5 1097,-33.5 892,-33.5"/>
<text text-anchor="middle" x="994.5" y="-133.5" font-family="Helvetica,sans-Serif" font-size="10.00">tvm::tir::EvaluateNode</text>
<polyline fill="none" stroke="black" points="892,-126.5 1097,-126.5 "/>
<text text-anchor="start" x="900" y="-114.5" font-family="Helvetica,sans-Serif" font-size="10.00">+ value</text>
<text text-anchor="start" x="900" y="-103.5" font-family="Helvetica,sans-Serif" font-size="10.00">+ _type_key</text>
<polyline fill="none" stroke="black" points="892,-96.5 1097,-96.5 "/>
<text text-anchor="start" x="900" y="-84.5" font-family="Helvetica,sans-Serif" font-size="10.00">+ VisitAttrs()</text>
<text text-anchor="start" x="900" y="-73.5" font-family="Helvetica,sans-Serif" font-size="10.00">+ SEqualReduce()</text>
<text text-anchor="start" x="900" y="-62.5" font-family="Helvetica,sans-Serif" font-size="10.00">+ SHashReduce()</text>
<text text-anchor="start" x="900" y="-51.5" font-family="Helvetica,sans-Serif" font-size="10.00">+ TVM_DECLARE_FINAL_OBJECT_INFO()</text>
<text text-anchor="start" x="900" y="-40.5" font-family="Helvetica,sans-Serif" font-size="10.00">+ make()</text>
</a>
</g>
</g>
<!-- Node1&#45;&gt;Node7 -->
<g id="edge6" class="edge"><title>Node1&#45;&gt;Node7</title>
<path fill="none" stroke="midnightblue" d="M1439.39,-258.314C1346.35,-249.326 1212.43,-228.274 1105.5,-179 1087.03,-170.491 1068.94,-158.275 1052.9,-145.625"/>
<polygon fill="none" stroke="midnightblue" points="1439.12,-261.803 1449.4,-259.249 1439.77,-254.833 1439.12,-261.803"/>
</g>
<!-- Node8 -->
<g id="node8" class="node"><title>Node8</title>
<g id="a_node8"><a xlink:href="classtvm_1_1tir_1_1ForNode.html" target="_top" xlink:title="A for loop, with poissible type annotations. ">
<polygon fill="white" stroke="black" points="1115,-6 1115,-173 1320,-173 1320,-6 1115,-6"/>
<text text-anchor="middle" x="1217.5" y="-161" font-family="Helvetica,sans-Serif" font-size="10.00">tvm::tir::ForNode</text>
<polyline fill="none" stroke="black" points="1115,-154 1320,-154 "/>
<text text-anchor="start" x="1123" y="-142" font-family="Helvetica,sans-Serif" font-size="10.00">+ loop_var</text>
<text text-anchor="start" x="1123" y="-131" font-family="Helvetica,sans-Serif" font-size="10.00">+ min</text>
<text text-anchor="start" x="1123" y="-120" font-family="Helvetica,sans-Serif" font-size="10.00">+ extent</text>
<text text-anchor="start" x="1123" y="-109" font-family="Helvetica,sans-Serif" font-size="10.00">+ for_type</text>
<text text-anchor="start" x="1123" y="-98" font-family="Helvetica,sans-Serif" font-size="10.00">+ device_api</text>
<text text-anchor="start" x="1123" y="-87" font-family="Helvetica,sans-Serif" font-size="10.00">+ body</text>
<text text-anchor="start" x="1123" y="-76" font-family="Helvetica,sans-Serif" font-size="10.00">+ _type_key</text>
<polyline fill="none" stroke="black" points="1115,-69 1320,-69 "/>
<text text-anchor="start" x="1123" y="-57" font-family="Helvetica,sans-Serif" font-size="10.00">+ VisitAttrs()</text>
<text text-anchor="start" x="1123" y="-46" font-family="Helvetica,sans-Serif" font-size="10.00">+ SEqualReduce()</text>
<text text-anchor="start" x="1123" y="-35" font-family="Helvetica,sans-Serif" font-size="10.00">+ SHashReduce()</text>
<text text-anchor="start" x="1123" y="-24" font-family="Helvetica,sans-Serif" font-size="10.00">+ TVM_DECLARE_FINAL_OBJECT_INFO()</text>
<text text-anchor="start" x="1123" y="-13" font-family="Helvetica,sans-Serif" font-size="10.00">+ make()</text>
</a>
</g>
</g>
<!-- Node1&#45;&gt;Node8 -->
<g id="edge7" class="edge"><title>Node1&#45;&gt;Node8</title>
<path fill="none" stroke="midnightblue" d="M1439.74,-229.496C1403.19,-215.916 1363.11,-198.846 1328.5,-179 1325.19,-177.1 1321.87,-175.105 1318.55,-173.035"/>
<polygon fill="none" stroke="midnightblue" points="1438.85,-232.899 1449.44,-233.053 1441.26,-226.326 1438.85,-232.899"/>
</g>
<!-- Node9 -->
<g id="node9" class="node"><title>Node9</title>
<g id="a_node9"><a xlink:href="classtvm_1_1tir_1_1FreeNode.html" target="_top" xlink:title="Free the resources in the buffer before the scope ends. ">
<polygon fill="white" stroke="black" points="1338,-33.5 1338,-145.5 1543,-145.5 1543,-33.5 1338,-33.5"/>
<text text-anchor="middle" x="1440.5" y="-133.5" font-family="Helvetica,sans-Serif" font-size="10.00">tvm::tir::FreeNode</text>
<polyline fill="none" stroke="black" points="1338,-126.5 1543,-126.5 "/>
<text text-anchor="start" x="1346" y="-114.5" font-family="Helvetica,sans-Serif" font-size="10.00">+ buffer_var</text>
<text text-anchor="start" x="1346" y="-103.5" font-family="Helvetica,sans-Serif" font-size="10.00">+ _type_key</text>
<polyline fill="none" stroke="black" points="1338,-96.5 1543,-96.5 "/>
<text text-anchor="start" x="1346" y="-84.5" font-family="Helvetica,sans-Serif" font-size="10.00">+ VisitAttrs()</text>
<text text-anchor="start" x="1346" y="-73.5" font-family="Helvetica,sans-Serif" font-size="10.00">+ SEqualReduce()</text>
<text text-anchor="start" x="1346" y="-62.5" font-family="Helvetica,sans-Serif" font-size="10.00">+ SHashReduce()</text>
<text text-anchor="start" x="1346" y="-51.5" font-family="Helvetica,sans-Serif" font-size="10.00">+ TVM_DECLARE_FINAL_OBJECT_INFO()</text>
<text text-anchor="start" x="1346" y="-40.5" font-family="Helvetica,sans-Serif" font-size="10.00">+ make()</text>
</a>
</g>
</g>
<!-- Node1&#45;&gt;Node9 -->
<g id="edge8" class="edge"><title>Node1&#45;&gt;Node9</title>
<path fill="none" stroke="midnightblue" d="M1514.52,-206.867C1501.97,-187.141 1488,-165.172 1475.6,-145.683"/>
<polygon fill="none" stroke="midnightblue" points="1511.67,-208.903 1519.99,-215.462 1517.57,-205.146 1511.67,-208.903"/>
</g>
<!-- Node10 -->
<g id="node10" class="node"><title>Node10</title>
<g id="a_node10"><a xlink:href="classtvm_1_1tir_1_1IfThenElseNode.html" target="_top" xlink:title="IfThenElse statment. ">
<polygon fill="white" stroke="black" points="1561,-22.5 1561,-156.5 1766,-156.5 1766,-22.5 1561,-22.5"/>
<text text-anchor="middle" x="1663.5" y="-144.5" font-family="Helvetica,sans-Serif" font-size="10.00">tvm::tir::IfThenElseNode</text>
<polyline fill="none" stroke="black" points="1561,-137.5 1766,-137.5 "/>
<text text-anchor="start" x="1569" y="-125.5" font-family="Helvetica,sans-Serif" font-size="10.00">+ condition</text>
<text text-anchor="start" x="1569" y="-114.5" font-family="Helvetica,sans-Serif" font-size="10.00">+ then_case</text>
<text text-anchor="start" x="1569" y="-103.5" font-family="Helvetica,sans-Serif" font-size="10.00">+ else_case</text>
<text text-anchor="start" x="1569" y="-92.5" font-family="Helvetica,sans-Serif" font-size="10.00">+ _type_key</text>
<polyline fill="none" stroke="black" points="1561,-85.5 1766,-85.5 "/>
<text text-anchor="start" x="1569" y="-73.5" font-family="Helvetica,sans-Serif" font-size="10.00">+ VisitAttrs()</text>
<text text-anchor="start" x="1569" y="-62.5" font-family="Helvetica,sans-Serif" font-size="10.00">+ SEqualReduce()</text>
<text text-anchor="start" x="1569" y="-51.5" font-family="Helvetica,sans-Serif" font-size="10.00">+ SHashReduce()</text>
<text text-anchor="start" x="1569" y="-40.5" font-family="Helvetica,sans-Serif" font-size="10.00">+ TVM_DECLARE_FINAL_OBJECT_INFO()</text>
<text text-anchor="start" x="1569" y="-29.5" font-family="Helvetica,sans-Serif" font-size="10.00">+ make()</text>
</a>
</g>
</g>
<!-- Node1&#45;&gt;Node10 -->
<g id="edge9" class="edge"><title>Node1&#45;&gt;Node10</title>
<path fill="none" stroke="midnightblue" d="M1588.9,-206.73C1599.18,-190.71 1610.41,-173.221 1620.96,-156.786"/>
<polygon fill="none" stroke="midnightblue" points="1585.75,-205.156 1583.3,-215.462 1591.64,-208.937 1585.75,-205.156"/>
</g>
<!-- Node11 -->
<g id="node11" class="node"><title>Node11</title>
<g id="a_node11"><a xlink:href="classtvm_1_1tir_1_1LetStmtNode.html" target="_top" xlink:title="Let binding, bind var to value, then run body. ">
<polygon fill="white" stroke="black" points="1784,-22.5 1784,-156.5 1989,-156.5 1989,-22.5 1784,-22.5"/>
<text text-anchor="middle" x="1886.5" y="-144.5" font-family="Helvetica,sans-Serif" font-size="10.00">tvm::tir::LetStmtNode</text>
<polyline fill="none" stroke="black" points="1784,-137.5 1989,-137.5 "/>
<text text-anchor="start" x="1792" y="-125.5" font-family="Helvetica,sans-Serif" font-size="10.00">+ var</text>
<text text-anchor="start" x="1792" y="-114.5" font-family="Helvetica,sans-Serif" font-size="10.00">+ value</text>
<text text-anchor="start" x="1792" y="-103.5" font-family="Helvetica,sans-Serif" font-size="10.00">+ body</text>
<text text-anchor="start" x="1792" y="-92.5" font-family="Helvetica,sans-Serif" font-size="10.00">+ _type_key</text>
<polyline fill="none" stroke="black" points="1784,-85.5 1989,-85.5 "/>
<text text-anchor="start" x="1792" y="-73.5" font-family="Helvetica,sans-Serif" font-size="10.00">+ VisitAttrs()</text>
<text text-anchor="start" x="1792" y="-62.5" font-family="Helvetica,sans-Serif" font-size="10.00">+ SEqualReduce()</text>
<text text-anchor="start" x="1792" y="-51.5" font-family="Helvetica,sans-Serif" font-size="10.00">+ SHashReduce()</text>
<text text-anchor="start" x="1792" y="-40.5" font-family="Helvetica,sans-Serif" font-size="10.00">+ TVM_DECLARE_FINAL_OBJECT_INFO()</text>
<text text-anchor="start" x="1792" y="-29.5" font-family="Helvetica,sans-Serif" font-size="10.00">+ make()</text>
</a>
</g>
</g>
<!-- Node1&#45;&gt;Node11 -->
<g id="edge10" class="edge"><title>Node1&#45;&gt;Node11</title>
<path fill="none" stroke="midnightblue" d="M1663.51,-229.654C1700.29,-216.062 1740.65,-198.945 1775.5,-179 1786.94,-172.45 1798.45,-164.773 1809.5,-156.725"/>
<polygon fill="none" stroke="midnightblue" points="1661.94,-226.501 1653.74,-233.212 1664.33,-233.078 1661.94,-226.501"/>
</g>
<!-- Node12 -->
<g id="node12" class="node"><title>Node12</title>
<g id="a_node12"><a xlink:href="classtvm_1_1tir_1_1PrefetchNode.html" target="_top" xlink:title="A prefetch hint of func. ">
<polygon fill="white" stroke="black" points="2007,-17 2007,-162 2212,-162 2212,-17 2007,-17"/>
<text text-anchor="middle" x="2109.5" y="-150" font-family="Helvetica,sans-Serif" font-size="10.00">tvm::tir::PrefetchNode</text>
<polyline fill="none" stroke="black" points="2007,-143 2212,-143 "/>
<text text-anchor="start" x="2015" y="-131" font-family="Helvetica,sans-Serif" font-size="10.00">+ func</text>
<text text-anchor="start" x="2015" y="-120" font-family="Helvetica,sans-Serif" font-size="10.00">+ value_index</text>
<text text-anchor="start" x="2015" y="-109" font-family="Helvetica,sans-Serif" font-size="10.00">+ dtype</text>
<text text-anchor="start" x="2015" y="-98" font-family="Helvetica,sans-Serif" font-size="10.00">+ bounds</text>
<text text-anchor="start" x="2015" y="-87" font-family="Helvetica,sans-Serif" font-size="10.00">+ _type_key</text>
<polyline fill="none" stroke="black" points="2007,-80 2212,-80 "/>
<text text-anchor="start" x="2015" y="-68" font-family="Helvetica,sans-Serif" font-size="10.00">+ VisitAttrs()</text>
<text text-anchor="start" x="2015" y="-57" font-family="Helvetica,sans-Serif" font-size="10.00">+ SEqualReduce()</text>
<text text-anchor="start" x="2015" y="-46" font-family="Helvetica,sans-Serif" font-size="10.00">+ SHashReduce()</text>
<text text-anchor="start" x="2015" y="-35" font-family="Helvetica,sans-Serif" font-size="10.00">+ TVM_DECLARE_FINAL_OBJECT_INFO()</text>
<text text-anchor="start" x="2015" y="-24" font-family="Helvetica,sans-Serif" font-size="10.00">+ make()</text>
</a>
</g>
</g>
<!-- Node1&#45;&gt;Node12 -->
<g id="edge11" class="edge"><title>Node1&#45;&gt;Node12</title>
<path fill="none" stroke="midnightblue" d="M1663.86,-258.358C1757.11,-249.396 1891.32,-228.358 1998.5,-179 2008.69,-174.309 2018.76,-168.49 2028.43,-162.092"/>
<polygon fill="none" stroke="midnightblue" points="1663.46,-254.879 1653.83,-259.29 1664.11,-261.849 1663.46,-254.879"/>
</g>
<!-- Node13 -->
<g id="node13" class="node"><title>Node13</title>
<g id="a_node13"><a xlink:href="classtvm_1_1tir_1_1ProvideNode.html" target="_top" xlink:title="Store value into mult&#45;dimensional array defined by func. ">
<polygon fill="white" stroke="black" points="2230,-17 2230,-162 2435,-162 2435,-17 2230,-17"/>
<text text-anchor="middle" x="2332.5" y="-150" font-family="Helvetica,sans-Serif" font-size="10.00">tvm::tir::ProvideNode</text>
<polyline fill="none" stroke="black" points="2230,-143 2435,-143 "/>
<text text-anchor="start" x="2238" y="-131" font-family="Helvetica,sans-Serif" font-size="10.00">+ func</text>
<text text-anchor="start" x="2238" y="-120" font-family="Helvetica,sans-Serif" font-size="10.00">+ value_index</text>
<text text-anchor="start" x="2238" y="-109" font-family="Helvetica,sans-Serif" font-size="10.00">+ value</text>
<text text-anchor="start" x="2238" y="-98" font-family="Helvetica,sans-Serif" font-size="10.00">+ args</text>
<text text-anchor="start" x="2238" y="-87" font-family="Helvetica,sans-Serif" font-size="10.00">+ _type_key</text>
<polyline fill="none" stroke="black" points="2230,-80 2435,-80 "/>
<text text-anchor="start" x="2238" y="-68" font-family="Helvetica,sans-Serif" font-size="10.00">+ VisitAttrs()</text>
<text text-anchor="start" x="2238" y="-57" font-family="Helvetica,sans-Serif" font-size="10.00">+ SEqualReduce()</text>
<text text-anchor="start" x="2238" y="-46" font-family="Helvetica,sans-Serif" font-size="10.00">+ SHashReduce()</text>
<text text-anchor="start" x="2238" y="-35" font-family="Helvetica,sans-Serif" font-size="10.00">+ TVM_DECLARE_FINAL_OBJECT_INFO()</text>
<text text-anchor="start" x="2238" y="-24" font-family="Helvetica,sans-Serif" font-size="10.00">+ make()</text>
</a>
</g>
</g>
<!-- Node1&#45;&gt;Node13 -->
<g id="edge12" class="edge"><title>Node1&#45;&gt;Node13</title>
<path fill="none" stroke="midnightblue" d="M1663.93,-257.919C1827.83,-246.358 2123.52,-220.47 2221.5,-179 2232.17,-174.485 2242.66,-168.645 2252.68,-162.118"/>
<polygon fill="none" stroke="midnightblue" points="1663.55,-254.437 1653.81,-258.626 1664.03,-261.42 1663.55,-254.437"/>
</g>
<!-- Node14 -->
<g id="node14" class="node"><title>Node14</title>
<g id="a_node14"><a xlink:href="classtvm_1_1tir_1_1RealizeNode.html" target="_top" xlink:title="Annotate the bounds where func need to be written and read in body. We will need to allocate space fo...">
<polygon fill="white" stroke="black" points="2453,-6 2453,-173 2658,-173 2658,-6 2453,-6"/>
<text text-anchor="middle" x="2555.5" y="-161" font-family="Helvetica,sans-Serif" font-size="10.00">tvm::tir::RealizeNode</text>
<polyline fill="none" stroke="black" points="2453,-154 2658,-154 "/>
<text text-anchor="start" x="2461" y="-142" font-family="Helvetica,sans-Serif" font-size="10.00">+ func</text>
<text text-anchor="start" x="2461" y="-131" font-family="Helvetica,sans-Serif" font-size="10.00">+ value_index</text>
<text text-anchor="start" x="2461" y="-120" font-family="Helvetica,sans-Serif" font-size="10.00">+ dtype</text>
<text text-anchor="start" x="2461" y="-109" font-family="Helvetica,sans-Serif" font-size="10.00">+ bounds</text>
<text text-anchor="start" x="2461" y="-98" font-family="Helvetica,sans-Serif" font-size="10.00">+ condition</text>
<text text-anchor="start" x="2461" y="-87" font-family="Helvetica,sans-Serif" font-size="10.00">+ body</text>
<text text-anchor="start" x="2461" y="-76" font-family="Helvetica,sans-Serif" font-size="10.00">+ _type_key</text>
<polyline fill="none" stroke="black" points="2453,-69 2658,-69 "/>
<text text-anchor="start" x="2461" y="-57" font-family="Helvetica,sans-Serif" font-size="10.00">+ VisitAttrs()</text>
<text text-anchor="start" x="2461" y="-46" font-family="Helvetica,sans-Serif" font-size="10.00">+ SEqualReduce()</text>
<text text-anchor="start" x="2461" y="-35" font-family="Helvetica,sans-Serif" font-size="10.00">+ SHashReduce()</text>
<text text-anchor="start" x="2461" y="-24" font-family="Helvetica,sans-Serif" font-size="10.00">+ TVM_DECLARE_FINAL_OBJECT_INFO()</text>
<text text-anchor="start" x="2461" y="-13" font-family="Helvetica,sans-Serif" font-size="10.00">+ make()</text>
</a>
</g>
</g>
<!-- Node1&#45;&gt;Node14 -->
<g id="edge13" class="edge"><title>Node1&#45;&gt;Node14</title>
<path fill="none" stroke="midnightblue" d="M1663.51,-262.129C1870.75,-255.521 2305.56,-235.23 2444.5,-179 2448.84,-177.243 2453.15,-175.26 2457.4,-173.093"/>
<polygon fill="none" stroke="midnightblue" points="1663.4,-258.63 1653.52,-262.442 1663.62,-265.627 1663.4,-258.63"/>
</g>
<!-- Node15 -->
<g id="node15" class="node"><title>Node15</title>
<g id="a_node15"><a xlink:href="classtvm_1_1tir_1_1SeqStmtNode.html" target="_top" xlink:title="The container of seq statement. Represent a sequence of statements. ">
<polygon fill="white" stroke="black" points="2676,-28 2676,-151 2881,-151 2881,-28 2676,-28"/>
<text text-anchor="middle" x="2778.5" y="-139" font-family="Helvetica,sans-Serif" font-size="10.00">tvm::tir::SeqStmtNode</text>
<polyline fill="none" stroke="black" points="2676,-132 2881,-132 "/>
<text text-anchor="start" x="2684" y="-120" font-family="Helvetica,sans-Serif" font-size="10.00">+ seq</text>
<text text-anchor="start" x="2684" y="-109" font-family="Helvetica,sans-Serif" font-size="10.00">+ _type_key</text>
<polyline fill="none" stroke="black" points="2676,-102 2881,-102 "/>
<text text-anchor="start" x="2684" y="-90" font-family="Helvetica,sans-Serif" font-size="10.00">+ size()</text>
<text text-anchor="start" x="2684" y="-79" font-family="Helvetica,sans-Serif" font-size="10.00">+ operator[]()</text>
<text text-anchor="start" x="2684" y="-68" font-family="Helvetica,sans-Serif" font-size="10.00">+ VisitAttrs()</text>
<text text-anchor="start" x="2684" y="-57" font-family="Helvetica,sans-Serif" font-size="10.00">+ SEqualReduce()</text>
<text text-anchor="start" x="2684" y="-46" font-family="Helvetica,sans-Serif" font-size="10.00">+ SHashReduce()</text>
<text text-anchor="start" x="2684" y="-35" font-family="Helvetica,sans-Serif" font-size="10.00">+ TVM_DECLARE_FINAL_OBJECT_INFO()</text>
</a>
</g>
</g>
<!-- Node1&#45;&gt;Node15 -->
<g id="edge14" class="edge"><title>Node1&#45;&gt;Node15</title>
<path fill="none" stroke="midnightblue" d="M1663.83,-264.66C1909.51,-262.581 2487.03,-250.036 2667.5,-179 2684.36,-172.365 2700.68,-162.245 2715.4,-151.187"/>
<polygon fill="none" stroke="midnightblue" points="1663.78,-261.16 1653.81,-264.741 1663.83,-268.16 1663.78,-261.16"/>
</g>
<!-- Node16 -->
<g id="node16" class="node"><title>Node16</title>
<g id="a_node16"><a xlink:href="classtvm_1_1tir_1_1StoreNode.html" target="_top" xlink:title="Store value to the buffer. ">
<polygon fill="white" stroke="black" points="2899,-17 2899,-162 3104,-162 3104,-17 2899,-17"/>
<text text-anchor="middle" x="3001.5" y="-150" font-family="Helvetica,sans-Serif" font-size="10.00">tvm::tir::StoreNode</text>
<polyline fill="none" stroke="black" points="2899,-143 3104,-143 "/>
<text text-anchor="start" x="2907" y="-131" font-family="Helvetica,sans-Serif" font-size="10.00">+ buffer_var</text>
<text text-anchor="start" x="2907" y="-120" font-family="Helvetica,sans-Serif" font-size="10.00">+ value</text>
<text text-anchor="start" x="2907" y="-109" font-family="Helvetica,sans-Serif" font-size="10.00">+ index</text>
<text text-anchor="start" x="2907" y="-98" font-family="Helvetica,sans-Serif" font-size="10.00">+ predicate</text>
<text text-anchor="start" x="2907" y="-87" font-family="Helvetica,sans-Serif" font-size="10.00">+ _type_key</text>
<polyline fill="none" stroke="black" points="2899,-80 3104,-80 "/>
<text text-anchor="start" x="2907" y="-68" font-family="Helvetica,sans-Serif" font-size="10.00">+ VisitAttrs()</text>
<text text-anchor="start" x="2907" y="-57" font-family="Helvetica,sans-Serif" font-size="10.00">+ SEqualReduce()</text>
<text text-anchor="start" x="2907" y="-46" font-family="Helvetica,sans-Serif" font-size="10.00">+ SHashReduce()</text>
<text text-anchor="start" x="2907" y="-35" font-family="Helvetica,sans-Serif" font-size="10.00">+ TVM_DECLARE_FINAL_OBJECT_INFO()</text>
<text text-anchor="start" x="2907" y="-24" font-family="Helvetica,sans-Serif" font-size="10.00">+ make()</text>
</a>
</g>
</g>
<!-- Node1&#45;&gt;Node16 -->
<g id="edge15" class="edge"><title>Node1&#45;&gt;Node16</title>
<path fill="none" stroke="midnightblue" d="M1663.64,-261.652C1965.05,-252.109 2777.57,-222.623 2890.5,-179 2901.65,-174.693 2912.56,-168.841 2922.92,-162.185"/>
<polygon fill="none" stroke="midnightblue" points="1663.45,-258.156 1653.56,-261.969 1663.67,-265.152 1663.45,-258.156"/>
</g>
<!-- Node2 -->
<g id="node2" class="node"><title>Node2</title>
<polygon fill="white" stroke="#bfbfbf" points="1528,-353.5 1528,-410.5 1575,-410.5 1575,-353.5 1528,-353.5"/>
<text text-anchor="middle" x="1551.5" y="-398.5" font-family="Helvetica,sans-Serif" font-size="10.00">Object</text>
<polyline fill="none" stroke="#bfbfbf" points="1528,-391.5 1575,-391.5 "/>
<text text-anchor="middle" x="1551.5" y="-379.5" font-family="Helvetica,sans-Serif" font-size="10.00"> </text>
<polyline fill="none" stroke="#bfbfbf" points="1528,-372.5 1575,-372.5 "/>
<text text-anchor="middle" x="1551.5" y="-360.5" font-family="Helvetica,sans-Serif" font-size="10.00"> </text>
</g>
<!-- Node2&#45;&gt;Node1 -->
<g id="edge1" class="edge"><title>Node2&#45;&gt;Node1</title>
<path fill="none" stroke="midnightblue" d="M1551.5,-343.354C1551.5,-334.796 1551.5,-325.578 1551.5,-316.608"/>
<polygon fill="none" stroke="midnightblue" points="1548,-343.404 1551.5,-353.404 1555,-343.404 1548,-343.404"/>
</g>
</g>
</svg>
