<?xml version="1.0" encoding="UTF-8" standalone="no"?>
<!DOCTYPE svg PUBLIC "-//W3C//DTD SVG 1.1//EN"
 "http://www.w3.org/Graphics/SVG/1.1/DTD/svg11.dtd">
<!-- Generated by graphviz version 2.38.0 (20140413.2041)
 -->
<!-- Title: tvm::tir::BufferRealizeNode Pages: 1 -->
<svg width="678pt" height="638pt"
 viewBox="0.00 0.00 678.00 638.00" xmlns="http://www.w3.org/2000/svg" xmlns:xlink="http://www.w3.org/1999/xlink">
<g id="graph0" class="graph" transform="scale(1 1) rotate(0) translate(4 634)">
<title>tvm::tir::BufferRealizeNode</title>
<polygon fill="white" stroke="none" points="-4,4 -4,-634 674,-634 674,4 -4,4"/>
<!-- Node1 -->
<g id="node1" class="node"><title>Node1</title>
<polygon fill="#bfbfbf" stroke="black" points="277.5,-0.5 277.5,-112.5 482.5,-112.5 482.5,-0.5 277.5,-0.5"/>
<text text-anchor="middle" x="380" y="-100.5" font-family="Helvetica,sans-Serif" font-size="10.00">tvm::tir::BufferRealizeNode</text>
<polyline fill="none" stroke="black" points="277.5,-93.5 482.5,-93.5 "/>
<text text-anchor="start" x="285.5" y="-81.5" font-family="Helvetica,sans-Serif" font-size="10.00">+ _type_key</text>
<polyline fill="none" stroke="black" points="277.5,-74.5 482.5,-74.5 "/>
<text text-anchor="start" x="285.5" y="-62.5" font-family="Helvetica,sans-Serif" font-size="10.00">+ VisitAttrs()</text>
<text text-anchor="start" x="285.5" y="-51.5" font-family="Helvetica,sans-Serif" font-size="10.00">+ SEqualReduce()</text>
<text text-anchor="start" x="285.5" y="-40.5" font-family="Helvetica,sans-Serif" font-size="10.00">+ SHashReduce()</text>
<text text-anchor="start" x="285.5" y="-29.5" font-family="Helvetica,sans-Serif" font-size="10.00">+ BufferRealizeNode()</text>
<text text-anchor="start" x="285.5" y="-18.5" font-family="Helvetica,sans-Serif" font-size="10.00">+ BufferRealizeNode()</text>
<text text-anchor="start" x="285.5" y="-7.5" font-family="Helvetica,sans-Serif" font-size="10.00">+ TVM_DECLARE_FINAL_OBJECT_INFO()</text>
</g>
<!-- Node2 -->
<g id="node2" class="node"><title>Node2</title>
<g id="a_node2"><a xlink:href="classtvm_1_1tir_1_1StmtNode.html" target="_top" xlink:title="Base node of all statements. ">
<polygon fill="white" stroke="black" points="0,-160.5 0,-261.5 204,-261.5 204,-160.5 0,-160.5"/>
<text text-anchor="middle" x="102" y="-249.5" font-family="Helvetica,sans-Serif" font-size="10.00">tvm::tir::StmtNode</text>
<polyline fill="none" stroke="black" points="0,-242.5 204,-242.5 "/>
<text text-anchor="start" x="8" y="-230.5" font-family="Helvetica,sans-Serif" font-size="10.00">+ _type_key</text>
<text text-anchor="start" x="8" y="-219.5" font-family="Helvetica,sans-Serif" font-size="10.00">+ _type_has_method_sequal</text>
<text text-anchor="start" x="8" y="-208.5" font-family="Helvetica,sans-Serif" font-size="10.00">_reduce</text>
<text text-anchor="start" x="8" y="-197.5" font-family="Helvetica,sans-Serif" font-size="10.00">+ _type_has_method_shash</text>
<text text-anchor="start" x="8" y="-186.5" font-family="Helvetica,sans-Serif" font-size="10.00">_reduce</text>
<polyline fill="none" stroke="black" points="0,-179.5 204,-179.5 "/>
<text text-anchor="start" x="8" y="-167.5" font-family="Helvetica,sans-Serif" font-size="10.00">+ TVM_DECLARE_BASE_OBJECT_INFO()</text>
</a>
</g>
</g>
<!-- Node2&#45;&gt;Node1 -->
<g id="edge1" class="edge"><title>Node2&#45;&gt;Node1</title>
<path fill="none" stroke="midnightblue" d="M185.283,-154.996C198.733,-146.679 212.632,-138.412 226,-131 242.323,-121.949 259.938,-112.902 277.221,-104.405"/>
<polygon fill="none" stroke="midnightblue" points="183.154,-152.199 176.519,-160.46 186.857,-158.139 183.154,-152.199"/>
</g>
<!-- Node3 -->
<g id="node3" class="node"><title>Node3</title>
<polygon fill="white" stroke="#bfbfbf" points="78.5,-472 78.5,-529 125.5,-529 125.5,-472 78.5,-472"/>
<text text-anchor="middle" x="102" y="-517" font-family="Helvetica,sans-Serif" font-size="10.00">Object</text>
<polyline fill="none" stroke="#bfbfbf" points="78.5,-510 125.5,-510 "/>
<text text-anchor="middle" x="102" y="-498" font-family="Helvetica,sans-Serif" font-size="10.00"> </text>
<polyline fill="none" stroke="#bfbfbf" points="78.5,-491 125.5,-491 "/>
<text text-anchor="middle" x="102" y="-479" font-family="Helvetica,sans-Serif" font-size="10.00"> </text>
</g>
<!-- Node3&#45;&gt;Node2 -->
<g id="edge2" class="edge"><title>Node3&#45;&gt;Node2</title>
<path fill="none" stroke="midnightblue" d="M102,-461.62C102,-410.286 102,-318.533 102,-261.711"/>
<polygon fill="none" stroke="midnightblue" points="98.5001,-461.933 102,-471.933 105.5,-461.933 98.5001,-461.933"/>
</g>
<!-- Node4 -->
<g id="node4" class="node"><title>Node4</title>
<g id="a_node4"><a xlink:href="classtvm_1_1Array.html" target="_top" xlink:title="{tvm::Array\&lt; tvm::Range \&gt;\n||+ Array()\l+ Array()\l+ Array()\l+ Array()\l+ Array()\l+ Array()\l+ Array()\l+ Array()\l+ operator=()\l+ operator=()\land 13 more...\l}">
<polygon fill="white" stroke="black" points="180,-280.5 180,-447.5 324,-447.5 324,-280.5 180,-280.5"/>
<text text-anchor="middle" x="252" y="-435.5" font-family="Helvetica,sans-Serif" font-size="10.00">tvm::Array&lt; tvm::Range &gt;</text>
<polyline fill="none" stroke="black" points="180,-428.5 324,-428.5 "/>
<text text-anchor="middle" x="252" y="-416.5" font-family="Helvetica,sans-Serif" font-size="10.00"> </text>
<polyline fill="none" stroke="black" points="180,-409.5 324,-409.5 "/>
<text text-anchor="start" x="188" y="-397.5" font-family="Helvetica,sans-Serif" font-size="10.00">+ Array()</text>
<text text-anchor="start" x="188" y="-386.5" font-family="Helvetica,sans-Serif" font-size="10.00">+ Array()</text>
<text text-anchor="start" x="188" y="-375.5" font-family="Helvetica,sans-Serif" font-size="10.00">+ Array()</text>
<text text-anchor="start" x="188" y="-364.5" font-family="Helvetica,sans-Serif" font-size="10.00">+ Array()</text>
<text text-anchor="start" x="188" y="-353.5" font-family="Helvetica,sans-Serif" font-size="10.00">+ Array()</text>
<text text-anchor="start" x="188" y="-342.5" font-family="Helvetica,sans-Serif" font-size="10.00">+ Array()</text>
<text text-anchor="start" x="188" y="-331.5" font-family="Helvetica,sans-Serif" font-size="10.00">+ Array()</text>
<text text-anchor="start" x="188" y="-320.5" font-family="Helvetica,sans-Serif" font-size="10.00">+ Array()</text>
<text text-anchor="start" x="188" y="-309.5" font-family="Helvetica,sans-Serif" font-size="10.00">+ operator=()</text>
<text text-anchor="start" x="188" y="-298.5" font-family="Helvetica,sans-Serif" font-size="10.00">+ operator=()</text>
<text text-anchor="start" x="188" y="-287.5" font-family="Helvetica,sans-Serif" font-size="10.00">and 13 more...</text>
</a>
</g>
</g>
<!-- Node4&#45;&gt;Node1 -->
<g id="edge3" class="edge"><title>Node4&#45;&gt;Node1</title>
<path fill="none" stroke="#404040" d="M234.22,-280.245C230.027,-241.881 231.09,-196.755 249,-160 256.006,-145.623 266.111,-132.669 277.648,-121.196"/>
<polygon fill="none" stroke="#404040" points="277.956,-120.908 279.607,-113.888 286.721,-112.712 285.071,-119.731 277.956,-120.908"/>
<text text-anchor="middle" x="272.5" y="-208.5" font-family="Helvetica,sans-Serif" font-size="10.00"> +bounds</text>
</g>
<!-- Node5 -->
<g id="node5" class="node"><title>Node5</title>
<polygon fill="white" stroke="#bfbfbf" points="404,-572.5 404,-629.5 466,-629.5 466,-572.5 404,-572.5"/>
<text text-anchor="middle" x="435" y="-617.5" font-family="Helvetica,sans-Serif" font-size="10.00">ObjectRef</text>
<polyline fill="none" stroke="#bfbfbf" points="404,-610.5 466,-610.5 "/>
<text text-anchor="middle" x="435" y="-598.5" font-family="Helvetica,sans-Serif" font-size="10.00"> </text>
<polyline fill="none" stroke="#bfbfbf" points="404,-591.5 466,-591.5 "/>
<text text-anchor="middle" x="435" y="-579.5" font-family="Helvetica,sans-Serif" font-size="10.00"> </text>
</g>
<!-- Node5&#45;&gt;Node4 -->
<g id="edge4" class="edge"><title>Node5&#45;&gt;Node4</title>
<path fill="none" stroke="midnightblue" d="M393.607,-593.969C357.868,-586.488 307.736,-570.119 280,-535 260.719,-510.588 252.483,-477.954 249.5,-447.807"/>
<polygon fill="none" stroke="midnightblue" points="393.252,-597.465 403.735,-595.933 394.585,-590.593 393.252,-597.465"/>
</g>
<!-- Node7 -->
<g id="node7" class="node"><title>Node7</title>
<g id="a_node7"><a xlink:href="classtvm_1_1BaseExpr.html" target="_top" xlink:title="Managed reference to BaseExprNode. ">
<polygon fill="white" stroke="black" points="289,-466.5 289,-534.5 439,-534.5 439,-466.5 289,-466.5"/>
<text text-anchor="middle" x="364" y="-522.5" font-family="Helvetica,sans-Serif" font-size="10.00">tvm::BaseExpr</text>
<polyline fill="none" stroke="black" points="289,-515.5 439,-515.5 "/>
<text text-anchor="middle" x="364" y="-503.5" font-family="Helvetica,sans-Serif" font-size="10.00"> </text>
<polyline fill="none" stroke="black" points="289,-496.5 439,-496.5 "/>
<text text-anchor="start" x="297" y="-484.5" font-family="Helvetica,sans-Serif" font-size="10.00">+ TVM_DEFINE_OBJECT_REF</text>
<text text-anchor="start" x="297" y="-473.5" font-family="Helvetica,sans-Serif" font-size="10.00">_METHODS()</text>
</a>
</g>
</g>
<!-- Node5&#45;&gt;Node7 -->
<g id="edge7" class="edge"><title>Node5&#45;&gt;Node7</title>
<path fill="none" stroke="midnightblue" d="M409.095,-564.062C402.149,-554.425 394.672,-544.053 387.843,-534.578"/>
<polygon fill="none" stroke="midnightblue" points="406.347,-566.234 415.034,-572.3 412.025,-562.141 406.347,-566.234"/>
</g>
<!-- Node8 -->
<g id="node8" class="node"><title>Node8</title>
<g id="a_node8"><a xlink:href="classtvm_1_1tir_1_1Buffer.html" target="_top" xlink:title="Buffer is a symbolic n&#45;darray structure. It is a composition of primitive symbolic types...">
<polygon fill="white" stroke="black" points="404.5,-297 404.5,-431 515.5,-431 515.5,-297 404.5,-297"/>
<text text-anchor="middle" x="460" y="-419" font-family="Helvetica,sans-Serif" font-size="10.00">tvm::tir::Buffer</text>
<polyline fill="none" stroke="black" points="404.5,-412 515.5,-412 "/>
<text text-anchor="middle" x="460" y="-400" font-family="Helvetica,sans-Serif" font-size="10.00"> </text>
<polyline fill="none" stroke="black" points="404.5,-393 515.5,-393 "/>
<text text-anchor="start" x="412.5" y="-381" font-family="Helvetica,sans-Serif" font-size="10.00">+ Buffer()</text>
<text text-anchor="start" x="412.5" y="-370" font-family="Helvetica,sans-Serif" font-size="10.00">+ Buffer()</text>
<text text-anchor="start" x="412.5" y="-359" font-family="Helvetica,sans-Serif" font-size="10.00">+ MakeStrideView()</text>
<text text-anchor="start" x="412.5" y="-348" font-family="Helvetica,sans-Serif" font-size="10.00">+ MakeSlice()</text>
<text text-anchor="start" x="412.5" y="-337" font-family="Helvetica,sans-Serif" font-size="10.00">+ access_ptr()</text>
<text text-anchor="start" x="412.5" y="-326" font-family="Helvetica,sans-Serif" font-size="10.00">+ vload()</text>
<text text-anchor="start" x="412.5" y="-315" font-family="Helvetica,sans-Serif" font-size="10.00">+ vstore()</text>
<text text-anchor="start" x="412.5" y="-304" font-family="Helvetica,sans-Serif" font-size="10.00">+ operator&#45;&gt;()</text>
</a>
</g>
</g>
<!-- Node5&#45;&gt;Node8 -->
<g id="edge9" class="edge"><title>Node5&#45;&gt;Node8</title>
<path fill="none" stroke="midnightblue" d="M443.345,-562.489C445.106,-553.52 446.794,-543.949 448,-535 452.583,-500.986 455.477,-462.892 457.271,-431.4"/>
<polygon fill="none" stroke="midnightblue" points="439.914,-561.798 441.347,-572.295 446.773,-563.195 439.914,-561.798"/>
</g>
<!-- Node9 -->
<g id="node9" class="node"><title>Node9</title>
<g id="a_node9"><a xlink:href="classtvm_1_1tir_1_1Stmt.html" target="_top" xlink:title="Container of all statements. ">
<polygon fill="white" stroke="black" points="520,-330 520,-398 670,-398 670,-330 520,-330"/>
<text text-anchor="middle" x="595" y="-386" font-family="Helvetica,sans-Serif" font-size="10.00">tvm::tir::Stmt</text>
<polyline fill="none" stroke="black" points="520,-379 670,-379 "/>
<text text-anchor="middle" x="595" y="-367" font-family="Helvetica,sans-Serif" font-size="10.00"> </text>
<polyline fill="none" stroke="black" points="520,-360 670,-360 "/>
<text text-anchor="start" x="528" y="-348" font-family="Helvetica,sans-Serif" font-size="10.00">+ TVM_DEFINE_OBJECT_REF</text>
<text text-anchor="start" x="528" y="-337" font-family="Helvetica,sans-Serif" font-size="10.00">_METHODS()</text>
</a>
</g>
</g>
<!-- Node5&#45;&gt;Node9 -->
<g id="edge11" class="edge"><title>Node5&#45;&gt;Node9</title>
<path fill="none" stroke="midnightblue" d="M459.656,-563.787C490.443,-518.569 542.673,-441.856 572.444,-398.129"/>
<polygon fill="none" stroke="midnightblue" points="456.717,-561.884 453.982,-572.12 462.503,-565.823 456.717,-561.884"/>
</g>
<!-- Node6 -->
<g id="node6" class="node"><title>Node6</title>
<g id="a_node6"><a xlink:href="classtvm_1_1PrimExpr.html" target="_top" xlink:title="Reference to PrimExprNode. ">
<polygon fill="white" stroke="black" points="305,-160.5 305,-261.5 455,-261.5 455,-160.5 305,-160.5"/>
<text text-anchor="middle" x="380" y="-249.5" font-family="Helvetica,sans-Serif" font-size="10.00">tvm::PrimExpr</text>
<polyline fill="none" stroke="black" points="305,-242.5 455,-242.5 "/>
<text text-anchor="middle" x="380" y="-230.5" font-family="Helvetica,sans-Serif" font-size="10.00"> </text>
<polyline fill="none" stroke="black" points="305,-223.5 455,-223.5 "/>
<text text-anchor="start" x="313" y="-211.5" font-family="Helvetica,sans-Serif" font-size="10.00">+ PrimExpr()</text>
<text text-anchor="start" x="313" y="-200.5" font-family="Helvetica,sans-Serif" font-size="10.00">+ PrimExpr()</text>
<text text-anchor="start" x="313" y="-189.5" font-family="Helvetica,sans-Serif" font-size="10.00">+ dtype()</text>
<text text-anchor="start" x="313" y="-178.5" font-family="Helvetica,sans-Serif" font-size="10.00">+ TVM_DEFINE_OBJECT_REF</text>
<text text-anchor="start" x="313" y="-167.5" font-family="Helvetica,sans-Serif" font-size="10.00">_METHODS()</text>
</a>
</g>
</g>
<!-- Node6&#45;&gt;Node1 -->
<g id="edge5" class="edge"><title>Node6&#45;&gt;Node1</title>
<path fill="none" stroke="#404040" d="M380,-160.488C380,-149.127 380,-136.86 380,-124.888"/>
<polygon fill="none" stroke="#404040" points="380,-124.569 376,-118.57 380,-112.569 384,-118.569 380,-124.569"/>
<text text-anchor="middle" x="407.5" y="-134" font-family="Helvetica,sans-Serif" font-size="10.00"> +condition</text>
</g>
<!-- Node7&#45;&gt;Node6 -->
<g id="edge6" class="edge"><title>Node7&#45;&gt;Node6</title>
<path fill="none" stroke="midnightblue" d="M366.423,-455.963C369.331,-403.711 374.195,-316.304 377.244,-261.526"/>
<polygon fill="none" stroke="midnightblue" points="362.912,-456.06 365.851,-466.239 369.901,-456.449 362.912,-456.06"/>
</g>
<!-- Node8&#45;&gt;Node1 -->
<g id="edge8" class="edge"><title>Node8&#45;&gt;Node1</title>
<path fill="none" stroke="#404040" d="M472.987,-296.633C478.119,-256.019 479.601,-203.649 464,-160 459.329,-146.93 452.194,-134.328 444.017,-122.698"/>
<polygon fill="none" stroke="#404040" points="443.768,-122.365 436.975,-119.943 436.598,-112.742 443.39,-115.163 443.768,-122.365"/>
<text text-anchor="middle" x="497" y="-208.5" font-family="Helvetica,sans-Serif" font-size="10.00"> +buffer</text>
</g>
<!-- Node9&#45;&gt;Node1 -->
<g id="edge10" class="edge"><title>Node9&#45;&gt;Node1</title>
<path fill="none" stroke="#404040" d="M589.179,-329.903C580.354,-287.172 560.287,-212.123 521,-160 510.092,-145.528 496.572,-132.218 482.258,-120.318"/>
<polygon fill="none" stroke="#404040" points="482.121,-120.208 474.938,-119.577 472.758,-112.703 479.941,-113.334 482.121,-120.208"/>
<text text-anchor="middle" x="588.5" y="-208.5" font-family="Helvetica,sans-Serif" font-size="10.00"> +body</text>
</g>
</g>
</svg>
