<?xml version="1.0" encoding="UTF-8" standalone="no"?>
<!DOCTYPE svg PUBLIC "-//W3C//DTD SVG 1.1//EN"
 "http://www.w3.org/Graphics/SVG/1.1/DTD/svg11.dtd">
<!-- Generated by graphviz version 2.38.0 (20140413.2041)
 -->
<!-- Title: tvm::te::StageNode Pages: 1 -->
<svg width="891pt" height="792pt"
 viewBox="0.00 0.00 890.50 792.00" xmlns="http://www.w3.org/2000/svg" xmlns:xlink="http://www.w3.org/1999/xlink">
<g id="graph0" class="graph" transform="scale(1 1) rotate(0) translate(4 788)">
<title>tvm::te::StageNode</title>
<polygon fill="white" stroke="none" points="-4,4 -4,-788 886.5,-788 886.5,4 -4,4"/>
<!-- Node1 -->
<g id="node1" class="node"><title>Node1</title>
<polygon fill="#bfbfbf" stroke="black" points="250,-0.5 250,-134.5 455,-134.5 455,-0.5 250,-0.5"/>
<text text-anchor="middle" x="352.5" y="-122.5" font-family="Helvetica,sans-Serif" font-size="10.00">tvm::te::StageNode</text>
<polyline fill="none" stroke="black" points="250,-115.5 455,-115.5 "/>
<text text-anchor="start" x="258" y="-103.5" font-family="Helvetica,sans-Serif" font-size="10.00">+ attach_type</text>
<text text-anchor="start" x="258" y="-92.5" font-family="Helvetica,sans-Serif" font-size="10.00">+ scope</text>
<text text-anchor="start" x="258" y="-81.5" font-family="Helvetica,sans-Serif" font-size="10.00">+ is_output</text>
<text text-anchor="start" x="258" y="-70.5" font-family="Helvetica,sans-Serif" font-size="10.00">+ is_opengl</text>
<text text-anchor="start" x="258" y="-59.5" font-family="Helvetica,sans-Serif" font-size="10.00">+ double_buffer</text>
<text text-anchor="start" x="258" y="-48.5" font-family="Helvetica,sans-Serif" font-size="10.00">+ num_child_stages</text>
<text text-anchor="start" x="258" y="-37.5" font-family="Helvetica,sans-Serif" font-size="10.00">+ _type_key</text>
<polyline fill="none" stroke="black" points="250,-30.5 455,-30.5 "/>
<text text-anchor="start" x="258" y="-18.5" font-family="Helvetica,sans-Serif" font-size="10.00">+ VisitAttrs()</text>
<text text-anchor="start" x="258" y="-7.5" font-family="Helvetica,sans-Serif" font-size="10.00">+ TVM_DECLARE_FINAL_OBJECT_INFO()</text>
</g>
<!-- Node2 -->
<g id="node2" class="node"><title>Node2</title>
<polygon fill="white" stroke="#bfbfbf" points="0,-215.5 0,-272.5 47,-272.5 47,-215.5 0,-215.5"/>
<text text-anchor="middle" x="23.5" y="-260.5" font-family="Helvetica,sans-Serif" font-size="10.00">Object</text>
<polyline fill="none" stroke="#bfbfbf" points="0,-253.5 47,-253.5 "/>
<text text-anchor="middle" x="23.5" y="-241.5" font-family="Helvetica,sans-Serif" font-size="10.00"> </text>
<polyline fill="none" stroke="#bfbfbf" points="0,-234.5 47,-234.5 "/>
<text text-anchor="middle" x="23.5" y="-222.5" font-family="Helvetica,sans-Serif" font-size="10.00"> </text>
</g>
<!-- Node2&#45;&gt;Node1 -->
<g id="edge1" class="edge"><title>Node2&#45;&gt;Node1</title>
<path fill="none" stroke="midnightblue" d="M34.7324,-205.742C41.9731,-187.508 53.1528,-166.609 69.5,-153 120.237,-110.763 191.521,-89.637 249.852,-79.0709"/>
<polygon fill="none" stroke="midnightblue" points="31.3991,-204.665 31.203,-215.258 37.9622,-207.099 31.3991,-204.665"/>
</g>
<!-- Node3 -->
<g id="node3" class="node"><title>Node3</title>
<g id="a_node3"><a xlink:href="classtvm_1_1tir_1_1IterVar.html" target="_top" xlink:title="Iteration Variable, represents an iteration over an integer interval. ">
<polygon fill="white" stroke="black" points="13.5,-363 13.5,-453 135.5,-453 135.5,-363 13.5,-363"/>
<text text-anchor="middle" x="74.5" y="-441" font-family="Helvetica,sans-Serif" font-size="10.00">tvm::tir::IterVar</text>
<polyline fill="none" stroke="black" points="13.5,-434 135.5,-434 "/>
<text text-anchor="middle" x="74.5" y="-422" font-family="Helvetica,sans-Serif" font-size="10.00"> </text>
<polyline fill="none" stroke="black" points="13.5,-415 135.5,-415 "/>
<text text-anchor="start" x="21.5" y="-403" font-family="Helvetica,sans-Serif" font-size="10.00">+ IterVar()</text>
<text text-anchor="start" x="21.5" y="-392" font-family="Helvetica,sans-Serif" font-size="10.00">+ IterVar()</text>
<text text-anchor="start" x="21.5" y="-381" font-family="Helvetica,sans-Serif" font-size="10.00">+ operator&#45;&gt;()</text>
<text text-anchor="start" x="21.5" y="-370" font-family="Helvetica,sans-Serif" font-size="10.00">+ operator PrimExpr()</text>
</a>
</g>
</g>
<!-- Node3&#45;&gt;Node1 -->
<g id="edge2" class="edge"><title>Node3&#45;&gt;Node1</title>
<path fill="none" stroke="#404040" d="M75.3449,-362.824C78.3654,-316.181 89.4241,-242.664 127.5,-193 155.803,-156.084 198.341,-128.593 238.837,-108.972"/>
<polygon fill="none" stroke="#404040" points="239.049,-108.872 242.78,-102.701 249.911,-103.772 246.18,-109.943 239.049,-108.872"/>
<text text-anchor="middle" x="160" y="-241.5" font-family="Helvetica,sans-Serif" font-size="10.00"> +attach_ivar</text>
</g>
<!-- Node4 -->
<g id="node4" class="node"><title>Node4</title>
<polygon fill="white" stroke="#bfbfbf" points="379.5,-726.5 379.5,-783.5 441.5,-783.5 441.5,-726.5 379.5,-726.5"/>
<text text-anchor="middle" x="410.5" y="-771.5" font-family="Helvetica,sans-Serif" font-size="10.00">ObjectRef</text>
<polyline fill="none" stroke="#bfbfbf" points="379.5,-764.5 441.5,-764.5 "/>
<text text-anchor="middle" x="410.5" y="-752.5" font-family="Helvetica,sans-Serif" font-size="10.00"> </text>
<polyline fill="none" stroke="#bfbfbf" points="379.5,-745.5 441.5,-745.5 "/>
<text text-anchor="middle" x="410.5" y="-733.5" font-family="Helvetica,sans-Serif" font-size="10.00"> </text>
</g>
<!-- Node4&#45;&gt;Node3 -->
<g id="edge3" class="edge"><title>Node4&#45;&gt;Node3</title>
<path fill="none" stroke="midnightblue" d="M369.321,-746.756C331.502,-738.34 275.696,-721.271 237.5,-689 161.02,-624.385 112.091,-514.256 89.3751,-453.145"/>
<polygon fill="none" stroke="midnightblue" points="368.973,-750.26 379.481,-748.906 370.423,-743.412 368.973,-750.26"/>
</g>
<!-- Node5 -->
<g id="node5" class="node"><title>Node5</title>
<g id="a_node5"><a xlink:href="classtvm_1_1Map.html" target="_top" xlink:title="{tvm::Map\&lt; tvm::tir\l::IterVar, tvm::te::\lIterVarAttr \&gt;\n||+ Map()\l+ Map()\l+ Map()\l+ Map()\l+ Map()\l+ Map()\l+ Map()\l+ operator=()\l+ operator=()\l+ assign()\land 10 more...\l}">
<polygon fill="white" stroke="black" points="141,-313.5 141,-502.5 248,-502.5 248,-313.5 141,-313.5"/>
<text text-anchor="start" x="149" y="-490.5" font-family="Helvetica,sans-Serif" font-size="10.00">tvm::Map&lt; tvm::tir</text>
<text text-anchor="start" x="149" y="-479.5" font-family="Helvetica,sans-Serif" font-size="10.00">::IterVar, tvm::te::</text>
<text text-anchor="middle" x="194.5" y="-468.5" font-family="Helvetica,sans-Serif" font-size="10.00">IterVarAttr &gt;</text>
<polyline fill="none" stroke="black" points="141,-461.5 248,-461.5 "/>
<text text-anchor="middle" x="194.5" y="-449.5" font-family="Helvetica,sans-Serif" font-size="10.00"> </text>
<polyline fill="none" stroke="black" points="141,-442.5 248,-442.5 "/>
<text text-anchor="start" x="149" y="-430.5" font-family="Helvetica,sans-Serif" font-size="10.00">+ Map()</text>
<text text-anchor="start" x="149" y="-419.5" font-family="Helvetica,sans-Serif" font-size="10.00">+ Map()</text>
<text text-anchor="start" x="149" y="-408.5" font-family="Helvetica,sans-Serif" font-size="10.00">+ Map()</text>
<text text-anchor="start" x="149" y="-397.5" font-family="Helvetica,sans-Serif" font-size="10.00">+ Map()</text>
<text text-anchor="start" x="149" y="-386.5" font-family="Helvetica,sans-Serif" font-size="10.00">+ Map()</text>
<text text-anchor="start" x="149" y="-375.5" font-family="Helvetica,sans-Serif" font-size="10.00">+ Map()</text>
<text text-anchor="start" x="149" y="-364.5" font-family="Helvetica,sans-Serif" font-size="10.00">+ Map()</text>
<text text-anchor="start" x="149" y="-353.5" font-family="Helvetica,sans-Serif" font-size="10.00">+ operator=()</text>
<text text-anchor="start" x="149" y="-342.5" font-family="Helvetica,sans-Serif" font-size="10.00">+ operator=()</text>
<text text-anchor="start" x="149" y="-331.5" font-family="Helvetica,sans-Serif" font-size="10.00">+ assign()</text>
<text text-anchor="start" x="149" y="-320.5" font-family="Helvetica,sans-Serif" font-size="10.00">and 10 more...</text>
</a>
</g>
</g>
<!-- Node4&#45;&gt;Node5 -->
<g id="edge5" class="edge"><title>Node4&#45;&gt;Node5</title>
<path fill="none" stroke="midnightblue" d="M371.577,-723.476C360.065,-713.289 348.011,-701.363 338.5,-689 294.588,-631.918 257.734,-559.429 232.304,-502.51"/>
<polygon fill="none" stroke="midnightblue" points="369.561,-726.359 379.422,-730.234 374.13,-721.056 369.561,-726.359"/>
</g>
<!-- Node6 -->
<g id="node6" class="node"><title>Node6</title>
<g id="a_node6"><a xlink:href="classtvm_1_1Array.html" target="_top" xlink:title="{tvm::Array\&lt; tvm::tir\l::IterVar \&gt;\n||+ Array()\l+ Array()\l+ Array()\l+ Array()\l+ Array()\l+ Array()\l+ Array()\l+ Array()\l+ operator=()\l+ operator=()\land 13 more...\l}">
<polygon fill="white" stroke="black" points="253,-319 253,-497 366,-497 366,-319 253,-319"/>
<text text-anchor="start" x="261" y="-485" font-family="Helvetica,sans-Serif" font-size="10.00">tvm::Array&lt; tvm::tir</text>
<text text-anchor="middle" x="309.5" y="-474" font-family="Helvetica,sans-Serif" font-size="10.00">::IterVar &gt;</text>
<polyline fill="none" stroke="black" points="253,-467 366,-467 "/>
<text text-anchor="middle" x="309.5" y="-455" font-family="Helvetica,sans-Serif" font-size="10.00"> </text>
<polyline fill="none" stroke="black" points="253,-448 366,-448 "/>
<text text-anchor="start" x="261" y="-436" font-family="Helvetica,sans-Serif" font-size="10.00">+ Array()</text>
<text text-anchor="start" x="261" y="-425" font-family="Helvetica,sans-Serif" font-size="10.00">+ Array()</text>
<text text-anchor="start" x="261" y="-414" font-family="Helvetica,sans-Serif" font-size="10.00">+ Array()</text>
<text text-anchor="start" x="261" y="-403" font-family="Helvetica,sans-Serif" font-size="10.00">+ Array()</text>
<text text-anchor="start" x="261" y="-392" font-family="Helvetica,sans-Serif" font-size="10.00">+ Array()</text>
<text text-anchor="start" x="261" y="-381" font-family="Helvetica,sans-Serif" font-size="10.00">+ Array()</text>
<text text-anchor="start" x="261" y="-370" font-family="Helvetica,sans-Serif" font-size="10.00">+ Array()</text>
<text text-anchor="start" x="261" y="-359" font-family="Helvetica,sans-Serif" font-size="10.00">+ Array()</text>
<text text-anchor="start" x="261" y="-348" font-family="Helvetica,sans-Serif" font-size="10.00">+ operator=()</text>
<text text-anchor="start" x="261" y="-337" font-family="Helvetica,sans-Serif" font-size="10.00">+ operator=()</text>
<text text-anchor="start" x="261" y="-326" font-family="Helvetica,sans-Serif" font-size="10.00">and 13 more...</text>
</a>
</g>
</g>
<!-- Node4&#45;&gt;Node6 -->
<g id="edge7" class="edge"><title>Node4&#45;&gt;Node6</title>
<path fill="none" stroke="midnightblue" d="M399.527,-716.52C384.25,-664.334 356.111,-568.215 335.344,-497.277"/>
<polygon fill="none" stroke="midnightblue" points="396.237,-717.737 402.405,-726.35 402.955,-715.77 396.237,-717.737"/>
</g>
<!-- Node7 -->
<g id="node7" class="node"><title>Node7</title>
<g id="a_node7"><a xlink:href="classtvm_1_1Array.html" target="_top" xlink:title="{tvm::Array\&lt; tvm::te\l::IterVarRelation \&gt;\n||+ Array()\l+ Array()\l+ Array()\l+ Array()\l+ Array()\l+ Array()\l+ Array()\l+ Array()\l+ operator=()\l+ operator=()\land 13 more...\l}">
<polygon fill="white" stroke="black" points="371,-319 371,-497 484,-497 484,-319 371,-319"/>
<text text-anchor="start" x="379" y="-485" font-family="Helvetica,sans-Serif" font-size="10.00">tvm::Array&lt; tvm::te</text>
<text text-anchor="middle" x="427.5" y="-474" font-family="Helvetica,sans-Serif" font-size="10.00">::IterVarRelation &gt;</text>
<polyline fill="none" stroke="black" points="371,-467 484,-467 "/>
<text text-anchor="middle" x="427.5" y="-455" font-family="Helvetica,sans-Serif" font-size="10.00"> </text>
<polyline fill="none" stroke="black" points="371,-448 484,-448 "/>
<text text-anchor="start" x="379" y="-436" font-family="Helvetica,sans-Serif" font-size="10.00">+ Array()</text>
<text text-anchor="start" x="379" y="-425" font-family="Helvetica,sans-Serif" font-size="10.00">+ Array()</text>
<text text-anchor="start" x="379" y="-414" font-family="Helvetica,sans-Serif" font-size="10.00">+ Array()</text>
<text text-anchor="start" x="379" y="-403" font-family="Helvetica,sans-Serif" font-size="10.00">+ Array()</text>
<text text-anchor="start" x="379" y="-392" font-family="Helvetica,sans-Serif" font-size="10.00">+ Array()</text>
<text text-anchor="start" x="379" y="-381" font-family="Helvetica,sans-Serif" font-size="10.00">+ Array()</text>
<text text-anchor="start" x="379" y="-370" font-family="Helvetica,sans-Serif" font-size="10.00">+ Array()</text>
<text text-anchor="start" x="379" y="-359" font-family="Helvetica,sans-Serif" font-size="10.00">+ Array()</text>
<text text-anchor="start" x="379" y="-348" font-family="Helvetica,sans-Serif" font-size="10.00">+ operator=()</text>
<text text-anchor="start" x="379" y="-337" font-family="Helvetica,sans-Serif" font-size="10.00">+ operator=()</text>
<text text-anchor="start" x="379" y="-326" font-family="Helvetica,sans-Serif" font-size="10.00">and 13 more...</text>
</a>
</g>
</g>
<!-- Node4&#45;&gt;Node7 -->
<g id="edge9" class="edge"><title>Node4&#45;&gt;Node7</title>
<path fill="none" stroke="midnightblue" d="M412.363,-716.193C414.938,-663.934 419.662,-568.067 423.15,-497.277"/>
<polygon fill="none" stroke="midnightblue" points="408.859,-716.19 411.862,-726.35 415.85,-716.535 408.859,-716.19"/>
</g>
<!-- Node9 -->
<g id="node9" class="node"><title>Node9</title>
<g id="a_node9"><a xlink:href="classtvm_1_1BaseExpr.html" target="_top" xlink:title="Managed reference to BaseExprNode. ">
<polygon fill="white" stroke="black" points="438.5,-571 438.5,-639 588.5,-639 588.5,-571 438.5,-571"/>
<text text-anchor="middle" x="513.5" y="-627" font-family="Helvetica,sans-Serif" font-size="10.00">tvm::BaseExpr</text>
<polyline fill="none" stroke="black" points="438.5,-620 588.5,-620 "/>
<text text-anchor="middle" x="513.5" y="-608" font-family="Helvetica,sans-Serif" font-size="10.00"> </text>
<polyline fill="none" stroke="black" points="438.5,-601 588.5,-601 "/>
<text text-anchor="start" x="446.5" y="-589" font-family="Helvetica,sans-Serif" font-size="10.00">+ TVM_DEFINE_OBJECT_REF</text>
<text text-anchor="start" x="446.5" y="-578" font-family="Helvetica,sans-Serif" font-size="10.00">_METHODS()</text>
</a>
</g>
</g>
<!-- Node4&#45;&gt;Node9 -->
<g id="edge12" class="edge"><title>Node4&#45;&gt;Node9</title>
<path fill="none" stroke="midnightblue" d="M435.78,-717.675C452.482,-693.677 474.201,-662.469 490.432,-639.146"/>
<polygon fill="none" stroke="midnightblue" points="432.713,-715.955 429.874,-726.162 438.459,-719.954 432.713,-715.955"/>
</g>
<!-- Node10 -->
<g id="node10" class="node"><title>Node10</title>
<g id="a_node10"><a xlink:href="classtvm_1_1te_1_1Stage.html" target="_top" xlink:title="Stage, contains scheduling for a stage of computation. ">
<polygon fill="white" stroke="black" points="606.5,-521.5 606.5,-688.5 714.5,-688.5 714.5,-521.5 606.5,-521.5"/>
<text text-anchor="middle" x="660.5" y="-676.5" font-family="Helvetica,sans-Serif" font-size="10.00">tvm::te::Stage</text>
<polyline fill="none" stroke="black" points="606.5,-669.5 714.5,-669.5 "/>
<text text-anchor="middle" x="660.5" y="-657.5" font-family="Helvetica,sans-Serif" font-size="10.00"> </text>
<polyline fill="none" stroke="black" points="606.5,-650.5 714.5,-650.5 "/>
<text text-anchor="start" x="614.5" y="-638.5" font-family="Helvetica,sans-Serif" font-size="10.00">+ Stage()</text>
<text text-anchor="start" x="614.5" y="-627.5" font-family="Helvetica,sans-Serif" font-size="10.00">+ Stage()</text>
<text text-anchor="start" x="614.5" y="-616.5" font-family="Helvetica,sans-Serif" font-size="10.00">+ Stage()</text>
<text text-anchor="start" x="614.5" y="-605.5" font-family="Helvetica,sans-Serif" font-size="10.00">+ operator&#45;&gt;()</text>
<text text-anchor="start" x="614.5" y="-594.5" font-family="Helvetica,sans-Serif" font-size="10.00">+ operator&#45;&gt;()</text>
<text text-anchor="start" x="614.5" y="-583.5" font-family="Helvetica,sans-Serif" font-size="10.00">+ set_scope()</text>
<text text-anchor="start" x="614.5" y="-572.5" font-family="Helvetica,sans-Serif" font-size="10.00">+ compute_at()</text>
<text text-anchor="start" x="614.5" y="-561.5" font-family="Helvetica,sans-Serif" font-size="10.00">+ compute_inline()</text>
<text text-anchor="start" x="614.5" y="-550.5" font-family="Helvetica,sans-Serif" font-size="10.00">+ compute_root()</text>
<text text-anchor="start" x="614.5" y="-539.5" font-family="Helvetica,sans-Serif" font-size="10.00">+ bind()</text>
<text text-anchor="start" x="614.5" y="-528.5" font-family="Helvetica,sans-Serif" font-size="10.00">and 19 more...</text>
</a>
</g>
</g>
<!-- Node4&#45;&gt;Node10 -->
<g id="edge14" class="edge"><title>Node4&#45;&gt;Node10</title>
<path fill="none" stroke="midnightblue" d="M451.54,-746.929C491.739,-738.439 553.238,-721.139 597.5,-689 600.574,-686.768 603.568,-684.343 606.474,-681.773"/>
<polygon fill="none" stroke="midnightblue" points="450.659,-743.536 441.551,-748.95 452.047,-750.397 450.659,-743.536"/>
</g>
<!-- Node12 -->
<g id="node12" class="node"><title>Node12</title>
<g id="a_node12"><a xlink:href="classtvm_1_1tir_1_1FunctionRef.html" target="_top" xlink:title="reference to a function ">
<polygon fill="white" stroke="black" points="732.5,-571 732.5,-639 882.5,-639 882.5,-571 732.5,-571"/>
<text text-anchor="middle" x="807.5" y="-627" font-family="Helvetica,sans-Serif" font-size="10.00">tvm::tir::FunctionRef</text>
<polyline fill="none" stroke="black" points="732.5,-620 882.5,-620 "/>
<text text-anchor="middle" x="807.5" y="-608" font-family="Helvetica,sans-Serif" font-size="10.00"> </text>
<polyline fill="none" stroke="black" points="732.5,-601 882.5,-601 "/>
<text text-anchor="start" x="740.5" y="-589" font-family="Helvetica,sans-Serif" font-size="10.00">+ TVM_DEFINE_OBJECT_REF</text>
<text text-anchor="start" x="740.5" y="-578" font-family="Helvetica,sans-Serif" font-size="10.00">_METHODS()</text>
</a>
</g>
</g>
<!-- Node4&#45;&gt;Node12 -->
<g id="edge17" class="edge"><title>Node4&#45;&gt;Node12</title>
<path fill="none" stroke="midnightblue" d="M452.039,-752.781C514.495,-749.373 634.72,-736.592 723.5,-689 746.267,-676.795 766.972,-656.498 782.129,-639.031"/>
<polygon fill="none" stroke="midnightblue" points="451.613,-749.298 441.797,-753.284 451.956,-756.289 451.613,-749.298"/>
</g>
<!-- Node5&#45;&gt;Node1 -->
<g id="edge4" class="edge"><title>Node5&#45;&gt;Node1</title>
<path fill="none" stroke="#404040" d="M193.852,-313.477C196.887,-274.475 204.862,-229.79 223.5,-193 232.554,-175.128 245.21,-158.373 259.085,-143.302"/>
<polygon fill="none" stroke="#404040" points="259.085,-143.302 260.34,-136.201 267.377,-134.628 266.122,-141.729 259.085,-143.302"/>
<text text-anchor="middle" x="261.5" y="-241.5" font-family="Helvetica,sans-Serif" font-size="10.00"> +iter_var_attrs</text>
</g>
<!-- Node6&#45;&gt;Node1 -->
<g id="edge6" class="edge"><title>Node6&#45;&gt;Node1</title>
<path fill="none" stroke="#404040" d="M303.598,-318.744C302.623,-279.932 303.68,-233.955 310.5,-193 313.068,-177.579 317.271,-161.493 322.049,-146.202"/>
<polygon fill="none" stroke="#404040" points="322.083,-146.099 320.137,-139.155 325.798,-134.689 327.744,-141.632 322.083,-146.099"/>
<text text-anchor="middle" x="348.5" y="-252.5" font-family="Helvetica,sans-Serif" font-size="10.00"> +leaf_iter_vars</text>
<text text-anchor="middle" x="348.5" y="-241.5" font-family="Helvetica,sans-Serif" font-size="10.00">+env_threads</text>
<text text-anchor="middle" x="348.5" y="-230.5" font-family="Helvetica,sans-Serif" font-size="10.00">+all_iter_vars</text>
</g>
<!-- Node7&#45;&gt;Node1 -->
<g id="edge8" class="edge"><title>Node7&#45;&gt;Node1</title>
<path fill="none" stroke="#404040" d="M412.216,-318.958C405.078,-280.186 396.053,-234.18 386.5,-193 382.99,-177.868 378.887,-161.801 374.771,-146.416"/>
<polygon fill="none" stroke="#404040" points="374.765,-146.393 369.336,-141.646 371.629,-134.81 377.058,-139.556 374.765,-146.393"/>
<text text-anchor="middle" x="434" y="-241.5" font-family="Helvetica,sans-Serif" font-size="10.00"> +relations</text>
</g>
<!-- Node8 -->
<g id="node8" class="node"><title>Node8</title>
<g id="a_node8"><a xlink:href="classtvm_1_1PrimExpr.html" target="_top" xlink:title="Reference to PrimExprNode. ">
<polygon fill="white" stroke="black" points="479.5,-193.5 479.5,-294.5 629.5,-294.5 629.5,-193.5 479.5,-193.5"/>
<text text-anchor="middle" x="554.5" y="-282.5" font-family="Helvetica,sans-Serif" font-size="10.00">tvm::PrimExpr</text>
<polyline fill="none" stroke="black" points="479.5,-275.5 629.5,-275.5 "/>
<text text-anchor="middle" x="554.5" y="-263.5" font-family="Helvetica,sans-Serif" font-size="10.00"> </text>
<polyline fill="none" stroke="black" points="479.5,-256.5 629.5,-256.5 "/>
<text text-anchor="start" x="487.5" y="-244.5" font-family="Helvetica,sans-Serif" font-size="10.00">+ PrimExpr()</text>
<text text-anchor="start" x="487.5" y="-233.5" font-family="Helvetica,sans-Serif" font-size="10.00">+ PrimExpr()</text>
<text text-anchor="start" x="487.5" y="-222.5" font-family="Helvetica,sans-Serif" font-size="10.00">+ dtype()</text>
<text text-anchor="start" x="487.5" y="-211.5" font-family="Helvetica,sans-Serif" font-size="10.00">+ TVM_DEFINE_OBJECT_REF</text>
<text text-anchor="start" x="487.5" y="-200.5" font-family="Helvetica,sans-Serif" font-size="10.00">_METHODS()</text>
</a>
</g>
</g>
<!-- Node8&#45;&gt;Node1 -->
<g id="edge10" class="edge"><title>Node8&#45;&gt;Node1</title>
<path fill="none" stroke="#404040" d="M497.155,-193.462C478.93,-177.718 458.356,-159.945 438.564,-142.847"/>
<polygon fill="none" stroke="#404040" points="438.313,-142.631 431.158,-141.735 429.232,-134.786 436.387,-135.681 438.313,-142.631"/>
<text text-anchor="middle" x="516" y="-161.5" font-family="Helvetica,sans-Serif" font-size="10.00"> +store_predicate</text>
</g>
<!-- Node9&#45;&gt;Node8 -->
<g id="edge11" class="edge"><title>Node9&#45;&gt;Node8</title>
<path fill="none" stroke="midnightblue" d="M518.449,-560.668C526.095,-493.714 540.741,-365.476 548.813,-294.8"/>
<polygon fill="none" stroke="midnightblue" points="514.941,-560.537 517.284,-570.87 521.896,-561.331 514.941,-560.537"/>
</g>
<!-- Node10&#45;&gt;Node1 -->
<g id="edge13" class="edge"><title>Node10&#45;&gt;Node1</title>
<path fill="none" stroke="#404040" d="M665.435,-521.096C670.054,-416.954 671.946,-245.509 638.5,-193 601.192,-134.429 529.498,-103.297 467.228,-86.8114"/>
<polygon fill="none" stroke="#404040" points="466.952,-86.7418 460.155,-89.1506 455.317,-83.803 462.114,-81.3942 466.952,-86.7418"/>
<text text-anchor="middle" x="699.5" y="-247" font-family="Helvetica,sans-Serif" font-size="10.00"> +group</text>
<text text-anchor="middle" x="699.5" y="-236" font-family="Helvetica,sans-Serif" font-size="10.00">+attach_stage</text>
</g>
<!-- Node11 -->
<g id="node11" class="node"><title>Node11</title>
<g id="a_node11"><a xlink:href="classtvm_1_1te_1_1Operation.html" target="_top" xlink:title="Operation that produces tensors. ">
<polygon fill="white" stroke="black" points="755.5,-199 755.5,-289 859.5,-289 859.5,-199 755.5,-199"/>
<text text-anchor="middle" x="807.5" y="-277" font-family="Helvetica,sans-Serif" font-size="10.00">tvm::te::Operation</text>
<polyline fill="none" stroke="black" points="755.5,-270 859.5,-270 "/>
<text text-anchor="middle" x="807.5" y="-258" font-family="Helvetica,sans-Serif" font-size="10.00"> </text>
<polyline fill="none" stroke="black" points="755.5,-251 859.5,-251 "/>
<text text-anchor="start" x="763.5" y="-239" font-family="Helvetica,sans-Serif" font-size="10.00">+ Operation()</text>
<text text-anchor="start" x="763.5" y="-228" font-family="Helvetica,sans-Serif" font-size="10.00">+ Operation()</text>
<text text-anchor="start" x="763.5" y="-217" font-family="Helvetica,sans-Serif" font-size="10.00">+ operator&#45;&gt;()</text>
<text text-anchor="start" x="763.5" y="-206" font-family="Helvetica,sans-Serif" font-size="10.00">+ output()</text>
</a>
</g>
</g>
<!-- Node11&#45;&gt;Node1 -->
<g id="edge15" class="edge"><title>Node11&#45;&gt;Node1</title>
<path fill="none" stroke="#404040" d="M755.258,-199.112C733.103,-182.466 706.249,-164.719 679.5,-153 611.622,-123.262 531.067,-102.292 466.895,-88.68"/>
<polygon fill="none" stroke="#404040" points="466.857,-88.6723 460.167,-91.3638 455.11,-86.2236 461.8,-83.5321 466.857,-88.6723"/>
<text text-anchor="middle" x="745" y="-167" font-family="Helvetica,sans-Serif" font-size="10.00"> +origin_op</text>
<text text-anchor="middle" x="745" y="-156" font-family="Helvetica,sans-Serif" font-size="10.00">+op</text>
</g>
<!-- Node12&#45;&gt;Node11 -->
<g id="edge16" class="edge"><title>Node12&#45;&gt;Node11</title>
<path fill="none" stroke="midnightblue" d="M807.5,-560.812C807.5,-492.062 807.5,-358.436 807.5,-289.11"/>
<polygon fill="none" stroke="midnightblue" points="804,-560.87 807.5,-570.87 811,-560.87 804,-560.87"/>
</g>
</g>
</svg>
