<?xml version="1.0" encoding="UTF-8" standalone="no"?>
<!DOCTYPE svg PUBLIC "-//W3C//DTD SVG 1.1//EN"
 "http://www.w3.org/Graphics/SVG/1.1/DTD/svg11.dtd">
<!-- Generated by graphviz version 2.38.0 (20140413.2041)
 -->
<!-- Title: tvm::te::TensorComputeOpNode Pages: 1 -->
<svg width="668pt" height="1176pt"
 viewBox="0.00 0.00 668.00 1176.00" xmlns="http://www.w3.org/2000/svg" xmlns:xlink="http://www.w3.org/1999/xlink">
<g id="graph0" class="graph" transform="scale(1 1) rotate(0) translate(4 1172)">
<title>tvm::te::TensorComputeOpNode</title>
<polygon fill="white" stroke="none" points="-4,4 -4,-1172 664,-1172 664,4 -4,4"/>
<!-- Node1 -->
<g id="node1" class="node"><title>Node1</title>
<polygon fill="#bfbfbf" stroke="black" points="333.5,-0.5 333.5,-178.5 538.5,-178.5 538.5,-0.5 333.5,-0.5"/>
<text text-anchor="middle" x="436" y="-166.5" font-family="Helvetica,sans-Serif" font-size="10.00">tvm::te::TensorComputeOpNode</text>
<polyline fill="none" stroke="black" points="333.5,-159.5 538.5,-159.5 "/>
<text text-anchor="start" x="341.5" y="-147.5" font-family="Helvetica,sans-Serif" font-size="10.00">+ schedulable_ndim</text>
<text text-anchor="start" x="341.5" y="-136.5" font-family="Helvetica,sans-Serif" font-size="10.00">+ _type_key</text>
<polyline fill="none" stroke="black" points="333.5,-129.5 538.5,-129.5 "/>
<text text-anchor="start" x="341.5" y="-117.5" font-family="Helvetica,sans-Serif" font-size="10.00">+ TensorComputeOpNode()</text>
<text text-anchor="start" x="341.5" y="-106.5" font-family="Helvetica,sans-Serif" font-size="10.00">+ num_outputs()</text>
<text text-anchor="start" x="341.5" y="-95.5" font-family="Helvetica,sans-Serif" font-size="10.00">+ output_dtype()</text>
<text text-anchor="start" x="341.5" y="-84.5" font-family="Helvetica,sans-Serif" font-size="10.00">+ InputTensors()</text>
<text text-anchor="start" x="341.5" y="-73.5" font-family="Helvetica,sans-Serif" font-size="10.00">+ ReplaceInputs()</text>
<text text-anchor="start" x="341.5" y="-62.5" font-family="Helvetica,sans-Serif" font-size="10.00">+ PropBoundToInputs()</text>
<text text-anchor="start" x="341.5" y="-51.5" font-family="Helvetica,sans-Serif" font-size="10.00">+ BuildProvide()</text>
<text text-anchor="start" x="341.5" y="-40.5" font-family="Helvetica,sans-Serif" font-size="10.00">+ num_schedulable_dims()</text>
<text text-anchor="start" x="341.5" y="-29.5" font-family="Helvetica,sans-Serif" font-size="10.00">+ VisitAttrs()</text>
<text text-anchor="start" x="341.5" y="-18.5" font-family="Helvetica,sans-Serif" font-size="10.00">+ TVM_DECLARE_FINAL_OBJECT_INFO()</text>
<text text-anchor="start" x="341.5" y="-7.5" font-family="Helvetica,sans-Serif" font-size="10.00">+ make()</text>
</g>
<!-- Node2 -->
<g id="node2" class="node"><title>Node2</title>
<g id="a_node2"><a xlink:href="classtvm_1_1te_1_1BaseComputeOpNode.html" target="_top" xlink:title="A Compute op that compute a tensor on certain domain. This is the base class for ComputeOp (operating...">
<polygon fill="white" stroke="black" points="93,-216.5 93,-328.5 297,-328.5 297,-216.5 93,-216.5"/>
<text text-anchor="middle" x="195" y="-316.5" font-family="Helvetica,sans-Serif" font-size="10.00">tvm::te::BaseComputeOpNode</text>
<polyline fill="none" stroke="black" points="93,-309.5 297,-309.5 "/>
<text text-anchor="start" x="101" y="-297.5" font-family="Helvetica,sans-Serif" font-size="10.00">+ _type_key</text>
<polyline fill="none" stroke="black" points="93,-290.5 297,-290.5 "/>
<text text-anchor="start" x="101" y="-278.5" font-family="Helvetica,sans-Serif" font-size="10.00">+ root_iter_vars()</text>
<text text-anchor="start" x="101" y="-267.5" font-family="Helvetica,sans-Serif" font-size="10.00">+ output_shape()</text>
<text text-anchor="start" x="101" y="-256.5" font-family="Helvetica,sans-Serif" font-size="10.00">+ GatherBound()</text>
<text text-anchor="start" x="101" y="-245.5" font-family="Helvetica,sans-Serif" font-size="10.00">+ BuildRealize()</text>
<text text-anchor="start" x="101" y="-234.5" font-family="Helvetica,sans-Serif" font-size="10.00">+ num_schedulable_dims()</text>
<text text-anchor="start" x="101" y="-223.5" font-family="Helvetica,sans-Serif" font-size="10.00">+ TVM_DECLARE_BASE_OBJECT_INFO()</text>
</a>
</g>
</g>
<!-- Node2&#45;&gt;Node1 -->
<g id="edge1" class="edge"><title>Node2&#45;&gt;Node1</title>
<path fill="none" stroke="midnightblue" d="M276.563,-210.243C294.79,-196.554 314.348,-181.865 333.306,-167.627"/>
<polygon fill="none" stroke="midnightblue" points="274.184,-207.653 268.29,-216.457 278.387,-213.25 274.184,-207.653"/>
</g>
<!-- Node3 -->
<g id="node3" class="node"><title>Node3</title>
<g id="a_node3"><a xlink:href="classtvm_1_1te_1_1OperationNode.html" target="_top" xlink:title="Base class of all operation nodes. ">
<polygon fill="white" stroke="black" points="0,-533.5 0,-722.5 204,-722.5 204,-533.5 0,-533.5"/>
<text text-anchor="middle" x="102" y="-710.5" font-family="Helvetica,sans-Serif" font-size="10.00">tvm::te::OperationNode</text>
<polyline fill="none" stroke="black" points="0,-703.5 204,-703.5 "/>
<text text-anchor="start" x="8" y="-691.5" font-family="Helvetica,sans-Serif" font-size="10.00">+ name</text>
<text text-anchor="start" x="8" y="-680.5" font-family="Helvetica,sans-Serif" font-size="10.00">+ tag</text>
<text text-anchor="start" x="8" y="-669.5" font-family="Helvetica,sans-Serif" font-size="10.00">+ _type_key</text>
<polyline fill="none" stroke="black" points="0,-662.5 204,-662.5 "/>
<text text-anchor="start" x="8" y="-650.5" font-family="Helvetica,sans-Serif" font-size="10.00">+ func_name()</text>
<text text-anchor="start" x="8" y="-639.5" font-family="Helvetica,sans-Serif" font-size="10.00">+ root_iter_vars()</text>
<text text-anchor="start" x="8" y="-628.5" font-family="Helvetica,sans-Serif" font-size="10.00">+ output_dtype()</text>
<text text-anchor="start" x="8" y="-617.5" font-family="Helvetica,sans-Serif" font-size="10.00">+ output_shape()</text>
<text text-anchor="start" x="8" y="-606.5" font-family="Helvetica,sans-Serif" font-size="10.00">+ InputTensors()</text>
<text text-anchor="start" x="8" y="-595.5" font-family="Helvetica,sans-Serif" font-size="10.00">+ ReplaceInputs()</text>
<text text-anchor="start" x="8" y="-584.5" font-family="Helvetica,sans-Serif" font-size="10.00">+ PropBoundToInputs()</text>
<text text-anchor="start" x="8" y="-573.5" font-family="Helvetica,sans-Serif" font-size="10.00">+ GatherBound()</text>
<text text-anchor="start" x="8" y="-562.5" font-family="Helvetica,sans-Serif" font-size="10.00">+ BuildRealize()</text>
<text text-anchor="start" x="8" y="-551.5" font-family="Helvetica,sans-Serif" font-size="10.00">+ BuildProvide()</text>
<text text-anchor="start" x="8" y="-540.5" font-family="Helvetica,sans-Serif" font-size="10.00">+ TVM_DECLARE_BASE_OBJECT_INFO()</text>
</a>
</g>
</g>
<!-- Node3&#45;&gt;Node2 -->
<g id="edge2" class="edge"><title>Node3&#45;&gt;Node2</title>
<path fill="none" stroke="midnightblue" d="M129.228,-523.505C146.003,-459.742 166.843,-380.527 180.512,-328.569"/>
<polygon fill="none" stroke="midnightblue" points="125.838,-522.635 126.678,-533.197 132.607,-524.416 125.838,-522.635"/>
</g>
<!-- Node4 -->
<g id="node4" class="node"><title>Node4</title>
<g id="a_node4"><a xlink:href="classtvm_1_1tir_1_1FunctionBaseNode.html" target="_top" xlink:title="Base node of internal functions. ">
<polygon fill="white" stroke="black" points="0,-938.5 0,-1072.5 156,-1072.5 156,-938.5 0,-938.5"/>
<text text-anchor="middle" x="78" y="-1060.5" font-family="Helvetica,sans-Serif" font-size="10.00">tvm::tir::FunctionBaseNode</text>
<polyline fill="none" stroke="black" points="0,-1053.5 156,-1053.5 "/>
<text text-anchor="start" x="8" y="-1041.5" font-family="Helvetica,sans-Serif" font-size="10.00">+ _type_has_method_sequal</text>
<text text-anchor="start" x="8" y="-1030.5" font-family="Helvetica,sans-Serif" font-size="10.00">_reduce</text>
<text text-anchor="start" x="8" y="-1019.5" font-family="Helvetica,sans-Serif" font-size="10.00">+ _type_has_method_shash</text>
<text text-anchor="start" x="8" y="-1008.5" font-family="Helvetica,sans-Serif" font-size="10.00">_reduce</text>
<polyline fill="none" stroke="black" points="0,-1001.5 156,-1001.5 "/>
<text text-anchor="start" x="8" y="-989.5" font-family="Helvetica,sans-Serif" font-size="10.00">+ ~FunctionBaseNode()</text>
<text text-anchor="start" x="8" y="-978.5" font-family="Helvetica,sans-Serif" font-size="10.00">+ func_name()</text>
<text text-anchor="start" x="8" y="-967.5" font-family="Helvetica,sans-Serif" font-size="10.00">+ num_outputs()</text>
<text text-anchor="start" x="8" y="-956.5" font-family="Helvetica,sans-Serif" font-size="10.00">+ SEqualReduce()</text>
<text text-anchor="start" x="8" y="-945.5" font-family="Helvetica,sans-Serif" font-size="10.00">+ SHashReduce()</text>
</a>
</g>
</g>
<!-- Node4&#45;&gt;Node3 -->
<g id="edge3" class="edge"><title>Node4&#45;&gt;Node3</title>
<path fill="none" stroke="midnightblue" d="M82.8785,-928.172C86.6725,-868.811 91.9547,-786.167 96.0062,-722.778"/>
<polygon fill="none" stroke="midnightblue" points="79.3805,-928.03 82.2355,-938.233 86.3663,-928.476 79.3805,-928.03"/>
</g>
<!-- Node5 -->
<g id="node5" class="node"><title>Node5</title>
<polygon fill="white" stroke="#bfbfbf" points="54.5,-1110.5 54.5,-1167.5 101.5,-1167.5 101.5,-1110.5 54.5,-1110.5"/>
<text text-anchor="middle" x="78" y="-1155.5" font-family="Helvetica,sans-Serif" font-size="10.00">Object</text>
<polyline fill="none" stroke="#bfbfbf" points="54.5,-1148.5 101.5,-1148.5 "/>
<text text-anchor="middle" x="78" y="-1136.5" font-family="Helvetica,sans-Serif" font-size="10.00"> </text>
<polyline fill="none" stroke="#bfbfbf" points="54.5,-1129.5 101.5,-1129.5 "/>
<text text-anchor="middle" x="78" y="-1117.5" font-family="Helvetica,sans-Serif" font-size="10.00"> </text>
</g>
<!-- Node5&#45;&gt;Node4 -->
<g id="edge4" class="edge"><title>Node5&#45;&gt;Node4</title>
<path fill="none" stroke="midnightblue" d="M78,-1100.33C78,-1091.68 78,-1082.23 78,-1072.77"/>
<polygon fill="none" stroke="midnightblue" points="74.5001,-1100.43 78,-1110.43 81.5001,-1100.43 74.5001,-1100.43"/>
</g>
<!-- Node6 -->
<g id="node6" class="node"><title>Node6</title>
<polygon fill="white" stroke="#bfbfbf" points="174,-971.5 174,-1039.5 298,-1039.5 298,-971.5 174,-971.5"/>
<text text-anchor="start" x="182" y="-1027.5" font-family="Helvetica,sans-Serif" font-size="10.00">tvm::Map&lt; std::string,</text>
<text text-anchor="middle" x="236" y="-1016.5" font-family="Helvetica,sans-Serif" font-size="10.00"> ObjectRef &gt;</text>
<polyline fill="none" stroke="#bfbfbf" points="174,-1009.5 298,-1009.5 "/>
<text text-anchor="middle" x="236" y="-997.5" font-family="Helvetica,sans-Serif" font-size="10.00"> </text>
<polyline fill="none" stroke="#bfbfbf" points="174,-990.5 298,-990.5 "/>
<text text-anchor="middle" x="236" y="-978.5" font-family="Helvetica,sans-Serif" font-size="10.00"> </text>
</g>
<!-- Node6&#45;&gt;Node3 -->
<g id="edge5" class="edge"><title>Node6&#45;&gt;Node3</title>
<path fill="none" stroke="#404040" d="M202.275,-971.37C189.152,-956.748 175.109,-938.66 166,-920 137.769,-862.172 121.863,-791.83 112.969,-734.791"/>
<polygon fill="none" stroke="#404040" points="112.955,-734.698 108.109,-729.357 111.176,-722.83 116.021,-728.171 112.955,-734.698"/>
<text text-anchor="middle" x="183" y="-828" font-family="Helvetica,sans-Serif" font-size="10.00"> +attrs</text>
</g>
<!-- Node7 -->
<g id="node7" class="node"><title>Node7</title>
<polygon fill="white" stroke="#bfbfbf" points="360,-1110.5 360,-1167.5 422,-1167.5 422,-1110.5 360,-1110.5"/>
<text text-anchor="middle" x="391" y="-1155.5" font-family="Helvetica,sans-Serif" font-size="10.00">ObjectRef</text>
<polyline fill="none" stroke="#bfbfbf" points="360,-1148.5 422,-1148.5 "/>
<text text-anchor="middle" x="391" y="-1136.5" font-family="Helvetica,sans-Serif" font-size="10.00"> </text>
<polyline fill="none" stroke="#bfbfbf" points="360,-1129.5 422,-1129.5 "/>
<text text-anchor="middle" x="391" y="-1117.5" font-family="Helvetica,sans-Serif" font-size="10.00"> </text>
</g>
<!-- Node7&#45;&gt;Node6 -->
<g id="edge6" class="edge"><title>Node7&#45;&gt;Node6</title>
<path fill="none" stroke="midnightblue" d="M351.093,-1118.02C338.051,-1110.66 323.877,-1101.72 312,-1092 293.247,-1076.66 275.108,-1056.52 261.256,-1039.64"/>
<polygon fill="none" stroke="midnightblue" points="349.45,-1121.11 359.9,-1122.85 352.819,-1114.97 349.45,-1121.11"/>
</g>
<!-- Node8 -->
<g id="node8" class="node"><title>Node8</title>
<g id="a_node8"><a xlink:href="classtvm_1_1Array.html" target="_top" xlink:title="{tvm::Array\&lt; tvm::tir\l::IterVar \&gt;\n||+ Array()\l+ Array()\l+ Array()\l+ Array()\l+ Array()\l+ Array()\l+ Array()\l+ Array()\l+ operator=()\l+ operator=()\land 13 more...\l}">
<polygon fill="white" stroke="black" points="209.5,-741.5 209.5,-919.5 322.5,-919.5 322.5,-741.5 209.5,-741.5"/>
<text text-anchor="start" x="217.5" y="-907.5" font-family="Helvetica,sans-Serif" font-size="10.00">tvm::Array&lt; tvm::tir</text>
<text text-anchor="middle" x="266" y="-896.5" font-family="Helvetica,sans-Serif" font-size="10.00">::IterVar &gt;</text>
<polyline fill="none" stroke="black" points="209.5,-889.5 322.5,-889.5 "/>
<text text-anchor="middle" x="266" y="-877.5" font-family="Helvetica,sans-Serif" font-size="10.00"> </text>
<polyline fill="none" stroke="black" points="209.5,-870.5 322.5,-870.5 "/>
<text text-anchor="start" x="217.5" y="-858.5" font-family="Helvetica,sans-Serif" font-size="10.00">+ Array()</text>
<text text-anchor="start" x="217.5" y="-847.5" font-family="Helvetica,sans-Serif" font-size="10.00">+ Array()</text>
<text text-anchor="start" x="217.5" y="-836.5" font-family="Helvetica,sans-Serif" font-size="10.00">+ Array()</text>
<text text-anchor="start" x="217.5" y="-825.5" font-family="Helvetica,sans-Serif" font-size="10.00">+ Array()</text>
<text text-anchor="start" x="217.5" y="-814.5" font-family="Helvetica,sans-Serif" font-size="10.00">+ Array()</text>
<text text-anchor="start" x="217.5" y="-803.5" font-family="Helvetica,sans-Serif" font-size="10.00">+ Array()</text>
<text text-anchor="start" x="217.5" y="-792.5" font-family="Helvetica,sans-Serif" font-size="10.00">+ Array()</text>
<text text-anchor="start" x="217.5" y="-781.5" font-family="Helvetica,sans-Serif" font-size="10.00">+ Array()</text>
<text text-anchor="start" x="217.5" y="-770.5" font-family="Helvetica,sans-Serif" font-size="10.00">+ operator=()</text>
<text text-anchor="start" x="217.5" y="-759.5" font-family="Helvetica,sans-Serif" font-size="10.00">+ operator=()</text>
<text text-anchor="start" x="217.5" y="-748.5" font-family="Helvetica,sans-Serif" font-size="10.00">and 13 more...</text>
</a>
</g>
</g>
<!-- Node7&#45;&gt;Node8 -->
<g id="edge8" class="edge"><title>Node7&#45;&gt;Node8</title>
<path fill="none" stroke="midnightblue" d="M356.525,-1102.28C354.126,-1098.94 351.908,-1095.49 350,-1092 315.922,-1029.64 329.346,-1005.46 307,-938 305.006,-931.982 302.87,-925.804 300.659,-919.6"/>
<polygon fill="none" stroke="midnightblue" points="353.887,-1104.59 362.786,-1110.34 359.415,-1100.3 353.887,-1104.59"/>
</g>
<!-- Node9 -->
<g id="node9" class="node"><title>Node9</title>
<g id="a_node9"><a xlink:href="classtvm_1_1Array.html" target="_top" xlink:title="{tvm::Array\&lt; tvm::PrimExpr \&gt;\n||+ Array()\l+ Array()\l+ Array()\l+ Array()\l+ Array()\l+ Array()\l+ Array()\l+ Array()\l+ operator=()\l+ operator=()\land 13 more...\l}">
<polygon fill="white" stroke="black" points="255.5,-347.5 255.5,-514.5 412.5,-514.5 412.5,-347.5 255.5,-347.5"/>
<text text-anchor="middle" x="334" y="-502.5" font-family="Helvetica,sans-Serif" font-size="10.00">tvm::Array&lt; tvm::PrimExpr &gt;</text>
<polyline fill="none" stroke="black" points="255.5,-495.5 412.5,-495.5 "/>
<text text-anchor="middle" x="334" y="-483.5" font-family="Helvetica,sans-Serif" font-size="10.00"> </text>
<polyline fill="none" stroke="black" points="255.5,-476.5 412.5,-476.5 "/>
<text text-anchor="start" x="263.5" y="-464.5" font-family="Helvetica,sans-Serif" font-size="10.00">+ Array()</text>
<text text-anchor="start" x="263.5" y="-453.5" font-family="Helvetica,sans-Serif" font-size="10.00">+ Array()</text>
<text text-anchor="start" x="263.5" y="-442.5" font-family="Helvetica,sans-Serif" font-size="10.00">+ Array()</text>
<text text-anchor="start" x="263.5" y="-431.5" font-family="Helvetica,sans-Serif" font-size="10.00">+ Array()</text>
<text text-anchor="start" x="263.5" y="-420.5" font-family="Helvetica,sans-Serif" font-size="10.00">+ Array()</text>
<text text-anchor="start" x="263.5" y="-409.5" font-family="Helvetica,sans-Serif" font-size="10.00">+ Array()</text>
<text text-anchor="start" x="263.5" y="-398.5" font-family="Helvetica,sans-Serif" font-size="10.00">+ Array()</text>
<text text-anchor="start" x="263.5" y="-387.5" font-family="Helvetica,sans-Serif" font-size="10.00">+ Array()</text>
<text text-anchor="start" x="263.5" y="-376.5" font-family="Helvetica,sans-Serif" font-size="10.00">+ operator=()</text>
<text text-anchor="start" x="263.5" y="-365.5" font-family="Helvetica,sans-Serif" font-size="10.00">+ operator=()</text>
<text text-anchor="start" x="263.5" y="-354.5" font-family="Helvetica,sans-Serif" font-size="10.00">and 13 more...</text>
</a>
</g>
</g>
<!-- Node7&#45;&gt;Node9 -->
<g id="edge10" class="edge"><title>Node7&#45;&gt;Node9</title>
<path fill="none" stroke="midnightblue" d="M387.934,-1100.03C379.033,-989.774 353.035,-667.766 340.676,-514.683"/>
<polygon fill="none" stroke="midnightblue" points="384.472,-1100.64 388.766,-1110.32 391.449,-1100.07 384.472,-1100.64"/>
</g>
<!-- Node10 -->
<g id="node10" class="node"><title>Node10</title>
<g id="a_node10"><a xlink:href="classtvm_1_1Array.html" target="_top" xlink:title="{tvm::Array\&lt; tvm::te\l::Tensor \&gt;\n||+ Array()\l+ Array()\l+ Array()\l+ Array()\l+ Array()\l+ Array()\l+ Array()\l+ Array()\l+ operator=()\l+ operator=()\land 13 more...\l}">
<polygon fill="white" stroke="black" points="379.5,-741.5 379.5,-919.5 492.5,-919.5 492.5,-741.5 379.5,-741.5"/>
<text text-anchor="start" x="387.5" y="-907.5" font-family="Helvetica,sans-Serif" font-size="10.00">tvm::Array&lt; tvm::te</text>
<text text-anchor="middle" x="436" y="-896.5" font-family="Helvetica,sans-Serif" font-size="10.00">::Tensor &gt;</text>
<polyline fill="none" stroke="black" points="379.5,-889.5 492.5,-889.5 "/>
<text text-anchor="middle" x="436" y="-877.5" font-family="Helvetica,sans-Serif" font-size="10.00"> </text>
<polyline fill="none" stroke="black" points="379.5,-870.5 492.5,-870.5 "/>
<text text-anchor="start" x="387.5" y="-858.5" font-family="Helvetica,sans-Serif" font-size="10.00">+ Array()</text>
<text text-anchor="start" x="387.5" y="-847.5" font-family="Helvetica,sans-Serif" font-size="10.00">+ Array()</text>
<text text-anchor="start" x="387.5" y="-836.5" font-family="Helvetica,sans-Serif" font-size="10.00">+ Array()</text>
<text text-anchor="start" x="387.5" y="-825.5" font-family="Helvetica,sans-Serif" font-size="10.00">+ Array()</text>
<text text-anchor="start" x="387.5" y="-814.5" font-family="Helvetica,sans-Serif" font-size="10.00">+ Array()</text>
<text text-anchor="start" x="387.5" y="-803.5" font-family="Helvetica,sans-Serif" font-size="10.00">+ Array()</text>
<text text-anchor="start" x="387.5" y="-792.5" font-family="Helvetica,sans-Serif" font-size="10.00">+ Array()</text>
<text text-anchor="start" x="387.5" y="-781.5" font-family="Helvetica,sans-Serif" font-size="10.00">+ Array()</text>
<text text-anchor="start" x="387.5" y="-770.5" font-family="Helvetica,sans-Serif" font-size="10.00">+ operator=()</text>
<text text-anchor="start" x="387.5" y="-759.5" font-family="Helvetica,sans-Serif" font-size="10.00">+ operator=()</text>
<text text-anchor="start" x="387.5" y="-748.5" font-family="Helvetica,sans-Serif" font-size="10.00">and 13 more...</text>
</a>
</g>
</g>
<!-- Node7&#45;&gt;Node10 -->
<g id="edge12" class="edge"><title>Node7&#45;&gt;Node10</title>
<path fill="none" stroke="midnightblue" d="M396.563,-1100.11C403.141,-1055.3 414.305,-979.268 423.079,-919.508"/>
<polygon fill="none" stroke="midnightblue" points="393.063,-1099.86 395.073,-1110.26 399.988,-1100.87 393.063,-1099.86"/>
</g>
<!-- Node11 -->
<g id="node11" class="node"><title>Node11</title>
<g id="a_node11"><a xlink:href="classtvm_1_1Array.html" target="_top" xlink:title="{tvm::Array\&lt; Array\&lt;\l Range \&gt; \&gt;\n||+ Array()\l+ Array()\l+ Array()\l+ Array()\l+ Array()\l+ Array()\l+ Array()\l+ Array()\l+ operator=()\l+ operator=()\land 13 more...\l}">
<polygon fill="white" stroke="black" points="464,-539 464,-717 576,-717 576,-539 464,-539"/>
<text text-anchor="start" x="472" y="-705" font-family="Helvetica,sans-Serif" font-size="10.00">tvm::Array&lt; Array&lt;</text>
<text text-anchor="middle" x="520" y="-694" font-family="Helvetica,sans-Serif" font-size="10.00"> Range &gt; &gt;</text>
<polyline fill="none" stroke="black" points="464,-687 576,-687 "/>
<text text-anchor="middle" x="520" y="-675" font-family="Helvetica,sans-Serif" font-size="10.00"> </text>
<polyline fill="none" stroke="black" points="464,-668 576,-668 "/>
<text text-anchor="start" x="472" y="-656" font-family="Helvetica,sans-Serif" font-size="10.00">+ Array()</text>
<text text-anchor="start" x="472" y="-645" font-family="Helvetica,sans-Serif" font-size="10.00">+ Array()</text>
<text text-anchor="start" x="472" y="-634" font-family="Helvetica,sans-Serif" font-size="10.00">+ Array()</text>
<text text-anchor="start" x="472" y="-623" font-family="Helvetica,sans-Serif" font-size="10.00">+ Array()</text>
<text text-anchor="start" x="472" y="-612" font-family="Helvetica,sans-Serif" font-size="10.00">+ Array()</text>
<text text-anchor="start" x="472" y="-601" font-family="Helvetica,sans-Serif" font-size="10.00">+ Array()</text>
<text text-anchor="start" x="472" y="-590" font-family="Helvetica,sans-Serif" font-size="10.00">+ Array()</text>
<text text-anchor="start" x="472" y="-579" font-family="Helvetica,sans-Serif" font-size="10.00">+ Array()</text>
<text text-anchor="start" x="472" y="-568" font-family="Helvetica,sans-Serif" font-size="10.00">+ operator=()</text>
<text text-anchor="start" x="472" y="-557" font-family="Helvetica,sans-Serif" font-size="10.00">+ operator=()</text>
<text text-anchor="start" x="472" y="-546" font-family="Helvetica,sans-Serif" font-size="10.00">and 13 more...</text>
</a>
</g>
</g>
<!-- Node7&#45;&gt;Node11 -->
<g id="edge14" class="edge"><title>Node7&#45;&gt;Node11</title>
<path fill="none" stroke="midnightblue" d="M414.887,-1101.76C441.052,-1059.92 481.722,-988.106 500,-920 517.851,-853.483 522.38,-775.513 522.704,-717.031"/>
<polygon fill="none" stroke="midnightblue" points="411.924,-1099.89 409.538,-1110.22 417.84,-1103.63 411.924,-1099.89"/>
</g>
<!-- Node12 -->
<g id="node12" class="node"><title>Node12</title>
<g id="a_node12"><a xlink:href="classtvm_1_1te_1_1TensorIntrin.html" target="_top" xlink:title="Tensor intrinsic node. ">
<polygon fill="white" stroke="black" points="548,-391.5 548,-470.5 660,-470.5 660,-391.5 548,-391.5"/>
<text text-anchor="middle" x="604" y="-458.5" font-family="Helvetica,sans-Serif" font-size="10.00">tvm::te::TensorIntrin</text>
<polyline fill="none" stroke="black" points="548,-451.5 660,-451.5 "/>
<text text-anchor="middle" x="604" y="-439.5" font-family="Helvetica,sans-Serif" font-size="10.00"> </text>
<polyline fill="none" stroke="black" points="548,-432.5 660,-432.5 "/>
<text text-anchor="start" x="556" y="-420.5" font-family="Helvetica,sans-Serif" font-size="10.00">+ TensorIntrin()</text>
<text text-anchor="start" x="556" y="-409.5" font-family="Helvetica,sans-Serif" font-size="10.00">+ TensorIntrin()</text>
<text text-anchor="start" x="556" y="-398.5" font-family="Helvetica,sans-Serif" font-size="10.00">+ operator&#45;&gt;()</text>
</a>
</g>
</g>
<!-- Node7&#45;&gt;Node12 -->
<g id="edge16" class="edge"><title>Node7&#45;&gt;Node12</title>
<path fill="none" stroke="midnightblue" d="M430.843,-1115.91C447.479,-1104.93 465.745,-1090.29 478,-1073 614.408,-880.535 612.333,-577.666 606.759,-470.856"/>
<polygon fill="none" stroke="midnightblue" points="428.898,-1113 422.332,-1121.31 432.651,-1118.91 428.898,-1113"/>
</g>
<!-- Node8&#45;&gt;Node2 -->
<g id="edge7" class="edge"><title>Node8&#45;&gt;Node2</title>
<path fill="none" stroke="#404040" d="M254.75,-741.4C240.542,-630.142 216.409,-441.153 203.593,-340.789"/>
<polygon fill="none" stroke="#404040" points="203.57,-340.609 198.842,-335.164 202.05,-328.705 206.777,-334.15 203.57,-340.609"/>
<text text-anchor="middle" x="285" y="-631" font-family="Helvetica,sans-Serif" font-size="10.00"> +axis</text>
<text text-anchor="middle" x="285" y="-620" font-family="Helvetica,sans-Serif" font-size="10.00">+reduce_axis</text>
</g>
<!-- Node9&#45;&gt;Node1 -->
<g id="edge9" class="edge"><title>Node9&#45;&gt;Node1</title>
<path fill="none" stroke="#404040" d="M328.537,-347.37C328.453,-306.748 332.311,-257.688 347,-216 350.187,-206.955 354.23,-197.979 358.827,-189.23"/>
<polygon fill="none" stroke="#404040" points="358.86,-189.171 358.278,-181.983 364.689,-178.682 365.271,-185.869 358.86,-189.171"/>
<text text-anchor="middle" x="384.5" y="-270" font-family="Helvetica,sans-Serif" font-size="10.00"> +scalar_inputs</text>
</g>
<!-- Node10&#45;&gt;Node1 -->
<g id="edge11" class="edge"><title>Node10&#45;&gt;Node1</title>
<path fill="none" stroke="#404040" d="M434.815,-741.455C433.663,-644.731 432.194,-484.798 433,-347 433.301,-295.484 433.943,-238.15 434.556,-190.776"/>
<polygon fill="none" stroke="#404040" points="434.557,-190.64 430.636,-184.588 434.715,-178.641 438.636,-184.693 434.557,-190.64"/>
<text text-anchor="middle" x="453.5" y="-428.5" font-family="Helvetica,sans-Serif" font-size="10.00"> +inputs</text>
</g>
<!-- Node11&#45;&gt;Node1 -->
<g id="edge13" class="edge"><title>Node11&#45;&gt;Node1</title>
<path fill="none" stroke="#404040" d="M507.108,-538.991C498.948,-483.815 488.074,-411.222 478,-347 469.911,-295.431 460.556,-238.092 452.731,-190.728"/>
<polygon fill="none" stroke="#404040" points="452.683,-190.436 447.757,-185.169 450.725,-178.596 455.65,-183.863 452.683,-190.436"/>
<text text-anchor="middle" x="513" y="-270" font-family="Helvetica,sans-Serif" font-size="10.00"> +input_regions</text>
</g>
<!-- Node12&#45;&gt;Node1 -->
<g id="edge15" class="edge"><title>Node12&#45;&gt;Node1</title>
<path fill="none" stroke="#404040" d="M605.725,-391.295C606.085,-346.507 601.533,-271.774 572,-216 565.119,-203.006 556.352,-190.647 546.593,-179.111"/>
<polygon fill="none" stroke="#404040" points="546.521,-179.029 539.549,-177.184 538.571,-170.039 545.542,-171.884 546.521,-179.029"/>
<text text-anchor="middle" x="621" y="-270" font-family="Helvetica,sans-Serif" font-size="10.00"> +intrin</text>
</g>
</g>
</svg>
