<?xml version="1.0" encoding="UTF-8" standalone="no"?>
<!DOCTYPE svg PUBLIC "-//W3C//DTD SVG 1.1//EN"
 "http://www.w3.org/Graphics/SVG/1.1/DTD/svg11.dtd">
<!-- Generated by graphviz version 2.38.0 (20140413.2041)
 -->
<!-- Title: tvm::arith::IntConstraintsNode Pages: 1 -->
<svg width="484pt" height="442pt"
 viewBox="0.00 0.00 484.00 442.00" xmlns="http://www.w3.org/2000/svg" xmlns:xlink="http://www.w3.org/1999/xlink">
<g id="graph0" class="graph" transform="scale(1 1) rotate(0) translate(4 438)">
<title>tvm::arith::IntConstraintsNode</title>
<polygon fill="white" stroke="none" points="-4,4 -4,-438 480,-438 480,4 -4,4"/>
<!-- Node1 -->
<g id="node1" class="node"><title>Node1</title>
<polygon fill="#bfbfbf" stroke="black" points="95,-0.5 95,-112.5 300,-112.5 300,-0.5 95,-0.5"/>
<text text-anchor="middle" x="197.5" y="-100.5" font-family="Helvetica,sans-Serif" font-size="10.00">tvm::arith::IntConstraintsNode</text>
<polyline fill="none" stroke="black" points="95,-93.5 300,-93.5 "/>
<text text-anchor="start" x="103" y="-81.5" font-family="Helvetica,sans-Serif" font-size="10.00">+ _type_has_method_sequal</text>
<text text-anchor="start" x="103" y="-70.5" font-family="Helvetica,sans-Serif" font-size="10.00">_reduce</text>
<text text-anchor="start" x="103" y="-59.5" font-family="Helvetica,sans-Serif" font-size="10.00">+ _type_key</text>
<polyline fill="none" stroke="black" points="95,-52.5 300,-52.5 "/>
<text text-anchor="start" x="103" y="-40.5" font-family="Helvetica,sans-Serif" font-size="10.00">+ VisitAttrs()</text>
<text text-anchor="start" x="103" y="-29.5" font-family="Helvetica,sans-Serif" font-size="10.00">+ SEqualReduce()</text>
<text text-anchor="start" x="103" y="-18.5" font-family="Helvetica,sans-Serif" font-size="10.00">+ SHashReduce()</text>
<text text-anchor="start" x="103" y="-7.5" font-family="Helvetica,sans-Serif" font-size="10.00">+ TVM_DECLARE_FINAL_OBJECT_INFO()</text>
</g>
<!-- Node2 -->
<g id="node2" class="node"><title>Node2</title>
<polygon fill="white" stroke="#bfbfbf" points="0,-221 0,-278 47,-278 47,-221 0,-221"/>
<text text-anchor="middle" x="23.5" y="-266" font-family="Helvetica,sans-Serif" font-size="10.00">Object</text>
<polyline fill="none" stroke="#bfbfbf" points="0,-259 47,-259 "/>
<text text-anchor="middle" x="23.5" y="-247" font-family="Helvetica,sans-Serif" font-size="10.00"> </text>
<polyline fill="none" stroke="#bfbfbf" points="0,-240 47,-240 "/>
<text text-anchor="middle" x="23.5" y="-228" font-family="Helvetica,sans-Serif" font-size="10.00"> </text>
</g>
<!-- Node2&#45;&gt;Node1 -->
<g id="edge1" class="edge"><title>Node2&#45;&gt;Node1</title>
<path fill="none" stroke="midnightblue" d="M31.7248,-210.868C36.6738,-194.14 44.256,-174.906 55.5,-160 68.8661,-142.281 86.1559,-126.332 104.045,-112.585"/>
<polygon fill="none" stroke="midnightblue" points="28.2436,-210.328 28.9745,-220.898 34.9944,-212.18 28.2436,-210.328"/>
</g>
<!-- Node3 -->
<g id="node3" class="node"><title>Node3</title>
<g id="a_node3"><a xlink:href="classtvm_1_1Map.html" target="_top" xlink:title="{tvm::Map\&lt; Var, tvm\l::Range \&gt;\n||+ Map()\l+ Map()\l+ Map()\l+ Map()\l+ Map()\l+ Map()\l+ Map()\l+ operator=()\l+ operator=()\l+ assign()\land 10 more...\l}">
<polygon fill="white" stroke="black" points="65,-160.5 65,-338.5 178,-338.5 178,-160.5 65,-160.5"/>
<text text-anchor="start" x="73" y="-326.5" font-family="Helvetica,sans-Serif" font-size="10.00">tvm::Map&lt; Var, tvm</text>
<text text-anchor="middle" x="121.5" y="-315.5" font-family="Helvetica,sans-Serif" font-size="10.00">::Range &gt;</text>
<polyline fill="none" stroke="black" points="65,-308.5 178,-308.5 "/>
<text text-anchor="middle" x="121.5" y="-296.5" font-family="Helvetica,sans-Serif" font-size="10.00"> </text>
<polyline fill="none" stroke="black" points="65,-289.5 178,-289.5 "/>
<text text-anchor="start" x="73" y="-277.5" font-family="Helvetica,sans-Serif" font-size="10.00">+ Map()</text>
<text text-anchor="start" x="73" y="-266.5" font-family="Helvetica,sans-Serif" font-size="10.00">+ Map()</text>
<text text-anchor="start" x="73" y="-255.5" font-family="Helvetica,sans-Serif" font-size="10.00">+ Map()</text>
<text text-anchor="start" x="73" y="-244.5" font-family="Helvetica,sans-Serif" font-size="10.00">+ Map()</text>
<text text-anchor="start" x="73" y="-233.5" font-family="Helvetica,sans-Serif" font-size="10.00">+ Map()</text>
<text text-anchor="start" x="73" y="-222.5" font-family="Helvetica,sans-Serif" font-size="10.00">+ Map()</text>
<text text-anchor="start" x="73" y="-211.5" font-family="Helvetica,sans-Serif" font-size="10.00">+ Map()</text>
<text text-anchor="start" x="73" y="-200.5" font-family="Helvetica,sans-Serif" font-size="10.00">+ operator=()</text>
<text text-anchor="start" x="73" y="-189.5" font-family="Helvetica,sans-Serif" font-size="10.00">+ operator=()</text>
<text text-anchor="start" x="73" y="-178.5" font-family="Helvetica,sans-Serif" font-size="10.00">+ assign()</text>
<text text-anchor="start" x="73" y="-167.5" font-family="Helvetica,sans-Serif" font-size="10.00">and 10 more...</text>
</a>
</g>
</g>
<!-- Node3&#45;&gt;Node1 -->
<g id="edge2" class="edge"><title>Node3&#45;&gt;Node1</title>
<path fill="none" stroke="#404040" d="M156.608,-160.268C161.45,-148.099 166.355,-135.771 171.007,-124.082"/>
<polygon fill="none" stroke="#404040" points="171.125,-123.785 169.627,-116.731 175.561,-112.635 177.06,-119.689 171.125,-123.785"/>
<text text-anchor="middle" x="189" y="-134" font-family="Helvetica,sans-Serif" font-size="10.00"> +ranges</text>
</g>
<!-- Node4 -->
<g id="node4" class="node"><title>Node4</title>
<polygon fill="white" stroke="#bfbfbf" points="243.5,-376.5 243.5,-433.5 305.5,-433.5 305.5,-376.5 243.5,-376.5"/>
<text text-anchor="middle" x="274.5" y="-421.5" font-family="Helvetica,sans-Serif" font-size="10.00">ObjectRef</text>
<polyline fill="none" stroke="#bfbfbf" points="243.5,-414.5 305.5,-414.5 "/>
<text text-anchor="middle" x="274.5" y="-402.5" font-family="Helvetica,sans-Serif" font-size="10.00"> </text>
<polyline fill="none" stroke="#bfbfbf" points="243.5,-395.5 305.5,-395.5 "/>
<text text-anchor="middle" x="274.5" y="-383.5" font-family="Helvetica,sans-Serif" font-size="10.00"> </text>
</g>
<!-- Node4&#45;&gt;Node3 -->
<g id="edge3" class="edge"><title>Node4&#45;&gt;Node3</title>
<path fill="none" stroke="midnightblue" d="M234.796,-378.508C218.911,-367.363 200.985,-353.525 186.5,-339 183.673,-336.165 180.873,-333.2 178.113,-330.145"/>
<polygon fill="none" stroke="midnightblue" points="233.153,-381.627 243.376,-384.411 237.121,-375.859 233.153,-381.627"/>
</g>
<!-- Node5 -->
<g id="node5" class="node"><title>Node5</title>
<g id="a_node5"><a xlink:href="classtvm_1_1Array.html" target="_top" xlink:title="{tvm::Array\&lt; tvm::PrimExpr \&gt;\n||+ Array()\l+ Array()\l+ Array()\l+ Array()\l+ Array()\l+ Array()\l+ Array()\l+ Array()\l+ operator=()\l+ operator=()\land 13 more...\l}">
<polygon fill="white" stroke="black" points="196,-166 196,-333 353,-333 353,-166 196,-166"/>
<text text-anchor="middle" x="274.5" y="-321" font-family="Helvetica,sans-Serif" font-size="10.00">tvm::Array&lt; tvm::PrimExpr &gt;</text>
<polyline fill="none" stroke="black" points="196,-314 353,-314 "/>
<text text-anchor="middle" x="274.5" y="-302" font-family="Helvetica,sans-Serif" font-size="10.00"> </text>
<polyline fill="none" stroke="black" points="196,-295 353,-295 "/>
<text text-anchor="start" x="204" y="-283" font-family="Helvetica,sans-Serif" font-size="10.00">+ Array()</text>
<text text-anchor="start" x="204" y="-272" font-family="Helvetica,sans-Serif" font-size="10.00">+ Array()</text>
<text text-anchor="start" x="204" y="-261" font-family="Helvetica,sans-Serif" font-size="10.00">+ Array()</text>
<text text-anchor="start" x="204" y="-250" font-family="Helvetica,sans-Serif" font-size="10.00">+ Array()</text>
<text text-anchor="start" x="204" y="-239" font-family="Helvetica,sans-Serif" font-size="10.00">+ Array()</text>
<text text-anchor="start" x="204" y="-228" font-family="Helvetica,sans-Serif" font-size="10.00">+ Array()</text>
<text text-anchor="start" x="204" y="-217" font-family="Helvetica,sans-Serif" font-size="10.00">+ Array()</text>
<text text-anchor="start" x="204" y="-206" font-family="Helvetica,sans-Serif" font-size="10.00">+ Array()</text>
<text text-anchor="start" x="204" y="-195" font-family="Helvetica,sans-Serif" font-size="10.00">+ operator=()</text>
<text text-anchor="start" x="204" y="-184" font-family="Helvetica,sans-Serif" font-size="10.00">+ operator=()</text>
<text text-anchor="start" x="204" y="-173" font-family="Helvetica,sans-Serif" font-size="10.00">and 13 more...</text>
</a>
</g>
</g>
<!-- Node4&#45;&gt;Node5 -->
<g id="edge5" class="edge"><title>Node4&#45;&gt;Node5</title>
<path fill="none" stroke="midnightblue" d="M274.5,-366.112C274.5,-355.959 274.5,-344.573 274.5,-333.011"/>
<polygon fill="none" stroke="midnightblue" points="271,-366.202 274.5,-376.202 278,-366.202 271,-366.202"/>
</g>
<!-- Node6 -->
<g id="node6" class="node"><title>Node6</title>
<g id="a_node6"><a xlink:href="classtvm_1_1Array.html" target="_top" xlink:title="{tvm::Array\&lt; Var \&gt;\n||+ Array()\l+ Array()\l+ Array()\l+ Array()\l+ Array()\l+ Array()\l+ Array()\l+ Array()\l+ operator=()\l+ operator=()\land 13 more...\l}">
<polygon fill="white" stroke="black" points="371,-166 371,-333 476,-333 476,-166 371,-166"/>
<text text-anchor="middle" x="423.5" y="-321" font-family="Helvetica,sans-Serif" font-size="10.00">tvm::Array&lt; Var &gt;</text>
<polyline fill="none" stroke="black" points="371,-314 476,-314 "/>
<text text-anchor="middle" x="423.5" y="-302" font-family="Helvetica,sans-Serif" font-size="10.00"> </text>
<polyline fill="none" stroke="black" points="371,-295 476,-295 "/>
<text text-anchor="start" x="379" y="-283" font-family="Helvetica,sans-Serif" font-size="10.00">+ Array()</text>
<text text-anchor="start" x="379" y="-272" font-family="Helvetica,sans-Serif" font-size="10.00">+ Array()</text>
<text text-anchor="start" x="379" y="-261" font-family="Helvetica,sans-Serif" font-size="10.00">+ Array()</text>
<text text-anchor="start" x="379" y="-250" font-family="Helvetica,sans-Serif" font-size="10.00">+ Array()</text>
<text text-anchor="start" x="379" y="-239" font-family="Helvetica,sans-Serif" font-size="10.00">+ Array()</text>
<text text-anchor="start" x="379" y="-228" font-family="Helvetica,sans-Serif" font-size="10.00">+ Array()</text>
<text text-anchor="start" x="379" y="-217" font-family="Helvetica,sans-Serif" font-size="10.00">+ Array()</text>
<text text-anchor="start" x="379" y="-206" font-family="Helvetica,sans-Serif" font-size="10.00">+ Array()</text>
<text text-anchor="start" x="379" y="-195" font-family="Helvetica,sans-Serif" font-size="10.00">+ operator=()</text>
<text text-anchor="start" x="379" y="-184" font-family="Helvetica,sans-Serif" font-size="10.00">+ operator=()</text>
<text text-anchor="start" x="379" y="-173" font-family="Helvetica,sans-Serif" font-size="10.00">and 13 more...</text>
</a>
</g>
</g>
<!-- Node4&#45;&gt;Node6 -->
<g id="edge7" class="edge"><title>Node4&#45;&gt;Node6</title>
<path fill="none" stroke="midnightblue" d="M314.424,-378.725C330.343,-367.612 348.234,-353.74 362.5,-339 365.355,-336.05 368.17,-332.953 370.93,-329.757"/>
<polygon fill="none" stroke="midnightblue" points="312.103,-376.072 305.819,-384.602 316.051,-381.852 312.103,-376.072"/>
</g>
<!-- Node5&#45;&gt;Node1 -->
<g id="edge4" class="edge"><title>Node5&#45;&gt;Node1</title>
<path fill="none" stroke="#404040" d="M241.175,-165.835C235.522,-151.815 229.719,-137.419 224.263,-123.885"/>
<polygon fill="none" stroke="#404040" points="224.259,-123.877 218.306,-119.808 219.772,-112.747 225.726,-116.816 224.259,-123.877"/>
<text text-anchor="middle" x="258" y="-134" font-family="Helvetica,sans-Serif" font-size="10.00"> +relations</text>
</g>
<!-- Node6&#45;&gt;Node1 -->
<g id="edge6" class="edge"><title>Node6&#45;&gt;Node1</title>
<path fill="none" stroke="#404040" d="M370.834,-168.525C368.117,-165.56 365.336,-162.704 362.5,-160 346.952,-145.175 328.925,-131.382 310.615,-119.024"/>
<polygon fill="none" stroke="#404040" points="310.447,-118.913 303.236,-118.951 300.428,-112.309 307.639,-112.271 310.447,-118.913"/>
<text text-anchor="middle" x="366" y="-134" font-family="Helvetica,sans-Serif" font-size="10.00"> +variables</text>
</g>
</g>
</svg>
