<?xml version="1.0" encoding="UTF-8" standalone="no"?>
<!DOCTYPE svg PUBLIC "-//W3C//DTD SVG 1.1//EN"
 "http://www.w3.org/Graphics/SVG/1.1/DTD/svg11.dtd">
<!-- Generated by graphviz version 2.38.0 (20140413.2041)
 -->
<!-- Title: tvm::relay::FunctionNode Pages: 1 -->
<svg width="1086pt" height="857pt"
 viewBox="0.00 0.00 1085.50 857.00" xmlns="http://www.w3.org/2000/svg" xmlns:xlink="http://www.w3.org/1999/xlink">
<g id="graph0" class="graph" transform="scale(1 1) rotate(0) translate(4 853)">
<title>tvm::relay::FunctionNode</title>
<polygon fill="white" stroke="none" points="-4,4 -4,-853 1081.5,-853 1081.5,4 -4,4"/>
<!-- Node1 -->
<g id="node1" class="node"><title>Node1</title>
<polygon fill="#bfbfbf" stroke="black" points="662.5,-0.5 662.5,-101.5 867.5,-101.5 867.5,-0.5 662.5,-0.5"/>
<text text-anchor="middle" x="765" y="-89.5" font-family="Helvetica,sans-Serif" font-size="10.00">tvm::relay::FunctionNode</text>
<polyline fill="none" stroke="black" points="662.5,-82.5 867.5,-82.5 "/>
<text text-anchor="start" x="670.5" y="-70.5" font-family="Helvetica,sans-Serif" font-size="10.00">+ _type_key</text>
<polyline fill="none" stroke="black" points="662.5,-63.5 867.5,-63.5 "/>
<text text-anchor="start" x="670.5" y="-51.5" font-family="Helvetica,sans-Serif" font-size="10.00">+ VisitAttrs()</text>
<text text-anchor="start" x="670.5" y="-40.5" font-family="Helvetica,sans-Serif" font-size="10.00">+ SEqualReduce()</text>
<text text-anchor="start" x="670.5" y="-29.5" font-family="Helvetica,sans-Serif" font-size="10.00">+ SHashReduce()</text>
<text text-anchor="start" x="670.5" y="-18.5" font-family="Helvetica,sans-Serif" font-size="10.00">+ func_type_annotation()</text>
<text text-anchor="start" x="670.5" y="-7.5" font-family="Helvetica,sans-Serif" font-size="10.00">+ TVM_DECLARE_FINAL_OBJECT_INFO()</text>
</g>
<!-- Node2 -->
<g id="node2" class="node"><title>Node2</title>
<g id="a_node2"><a xlink:href="classtvm_1_1BaseFuncNode.html" target="_top" xlink:title="Base node of all functions. ">
<polygon fill="white" stroke="black" points="390,-139.5 390,-229.5 594,-229.5 594,-139.5 390,-139.5"/>
<text text-anchor="middle" x="492" y="-217.5" font-family="Helvetica,sans-Serif" font-size="10.00">BaseFuncNode</text>
<polyline fill="none" stroke="black" points="390,-210.5 594,-210.5 "/>
<text text-anchor="start" x="398" y="-198.5" font-family="Helvetica,sans-Serif" font-size="10.00">+ _type_key</text>
<polyline fill="none" stroke="black" points="390,-191.5 594,-191.5 "/>
<text text-anchor="start" x="398" y="-179.5" font-family="Helvetica,sans-Serif" font-size="10.00">+ GetAttr()</text>
<text text-anchor="start" x="398" y="-168.5" font-family="Helvetica,sans-Serif" font-size="10.00">+ GetAttr()</text>
<text text-anchor="start" x="398" y="-157.5" font-family="Helvetica,sans-Serif" font-size="10.00">+ HasNonzeroAttr()</text>
<text text-anchor="start" x="398" y="-146.5" font-family="Helvetica,sans-Serif" font-size="10.00">+ TVM_DECLARE_BASE_OBJECT_INFO()</text>
</a>
</g>
</g>
<!-- Node2&#45;&gt;Node1 -->
<g id="edge1" class="edge"><title>Node2&#45;&gt;Node1</title>
<path fill="none" stroke="midnightblue" d="M588.345,-134.977C598.673,-129.88 609.041,-124.808 619,-120 632.975,-113.253 647.753,-106.236 662.329,-99.382"/>
<polygon fill="none" stroke="midnightblue" points="586.701,-131.885 579.29,-139.457 589.805,-138.16 586.701,-131.885"/>
</g>
<!-- Node3 -->
<g id="node3" class="node"><title>Node3</title>
<g id="a_node3"><a xlink:href="classtvm_1_1RelayExprNode.html" target="_top" xlink:title="Base node of all non&#45;primitive expressions. ">
<polygon fill="white" stroke="black" points="195,-346.5 195,-425.5 399,-425.5 399,-346.5 195,-346.5"/>
<text text-anchor="middle" x="297" y="-413.5" font-family="Helvetica,sans-Serif" font-size="10.00">tvm::RelayExprNode</text>
<polyline fill="none" stroke="black" points="195,-406.5 399,-406.5 "/>
<text text-anchor="start" x="203" y="-394.5" font-family="Helvetica,sans-Serif" font-size="10.00">+ _type_key</text>
<polyline fill="none" stroke="black" points="195,-387.5 399,-387.5 "/>
<text text-anchor="start" x="203" y="-375.5" font-family="Helvetica,sans-Serif" font-size="10.00">+ checked_type()</text>
<text text-anchor="start" x="203" y="-364.5" font-family="Helvetica,sans-Serif" font-size="10.00">+ type_as()</text>
<text text-anchor="start" x="203" y="-353.5" font-family="Helvetica,sans-Serif" font-size="10.00">+ TVM_DECLARE_BASE_OBJECT_INFO()</text>
</a>
</g>
</g>
<!-- Node3&#45;&gt;Node2 -->
<g id="edge2" class="edge"><title>Node3&#45;&gt;Node2</title>
<path fill="none" stroke="midnightblue" d="M342.162,-338.796C374.319,-305.896 417.272,-261.953 448.943,-229.55"/>
<polygon fill="none" stroke="midnightblue" points="339.548,-336.463 335.061,-346.061 344.554,-341.356 339.548,-336.463"/>
</g>
<!-- Node4 -->
<g id="node4" class="node"><title>Node4</title>
<g id="a_node4"><a xlink:href="classtvm_1_1BaseExprNode.html" target="_top" xlink:title="Base type of all the expressions. ">
<polygon fill="white" stroke="black" points="0,-652.5 0,-753.5 204,-753.5 204,-652.5 0,-652.5"/>
<text text-anchor="middle" x="102" y="-741.5" font-family="Helvetica,sans-Serif" font-size="10.00">tvm::BaseExprNode</text>
<polyline fill="none" stroke="black" points="0,-734.5 204,-734.5 "/>
<text text-anchor="start" x="8" y="-722.5" font-family="Helvetica,sans-Serif" font-size="10.00">+ _type_key</text>
<text text-anchor="start" x="8" y="-711.5" font-family="Helvetica,sans-Serif" font-size="10.00">+ _type_has_method_sequal</text>
<text text-anchor="start" x="8" y="-700.5" font-family="Helvetica,sans-Serif" font-size="10.00">_reduce</text>
<text text-anchor="start" x="8" y="-689.5" font-family="Helvetica,sans-Serif" font-size="10.00">+ _type_has_method_shash</text>
<text text-anchor="start" x="8" y="-678.5" font-family="Helvetica,sans-Serif" font-size="10.00">_reduce</text>
<polyline fill="none" stroke="black" points="0,-671.5 204,-671.5 "/>
<text text-anchor="start" x="8" y="-659.5" font-family="Helvetica,sans-Serif" font-size="10.00">+ TVM_DECLARE_BASE_OBJECT_INFO()</text>
</a>
</g>
</g>
<!-- Node4&#45;&gt;Node3 -->
<g id="edge3" class="edge"><title>Node4&#45;&gt;Node3</title>
<path fill="none" stroke="midnightblue" d="M138.075,-643.724C177.383,-580.227 239.163,-480.429 272.951,-425.848"/>
<polygon fill="none" stroke="midnightblue" points="134.971,-642.09 132.683,-652.435 140.923,-645.774 134.971,-642.09"/>
</g>
<!-- Node5 -->
<g id="node5" class="node"><title>Node5</title>
<polygon fill="white" stroke="#bfbfbf" points="78.5,-791.5 78.5,-848.5 125.5,-848.5 125.5,-791.5 78.5,-791.5"/>
<text text-anchor="middle" x="102" y="-836.5" font-family="Helvetica,sans-Serif" font-size="10.00">Object</text>
<polyline fill="none" stroke="#bfbfbf" points="78.5,-829.5 125.5,-829.5 "/>
<text text-anchor="middle" x="102" y="-817.5" font-family="Helvetica,sans-Serif" font-size="10.00"> </text>
<polyline fill="none" stroke="#bfbfbf" points="78.5,-810.5 125.5,-810.5 "/>
<text text-anchor="middle" x="102" y="-798.5" font-family="Helvetica,sans-Serif" font-size="10.00"> </text>
</g>
<!-- Node5&#45;&gt;Node4 -->
<g id="edge4" class="edge"><title>Node5&#45;&gt;Node4</title>
<path fill="none" stroke="midnightblue" d="M102,-781.187C102,-772.435 102,-762.99 102,-753.812"/>
<polygon fill="none" stroke="midnightblue" points="98.5001,-781.455 102,-791.455 105.5,-781.455 98.5001,-781.455"/>
</g>
<!-- Node6 -->
<g id="node6" class="node"><title>Node6</title>
<g id="a_node6"><a xlink:href="classtvm_1_1Span.html" target="_top" xlink:title="{tvm::Span\n||+ TVM_DEFINE_OBJECT_REF\l_METHODS()\l}">
<polygon fill="white" stroke="black" points="222,-669 222,-737 372,-737 372,-669 222,-669"/>
<text text-anchor="middle" x="297" y="-725" font-family="Helvetica,sans-Serif" font-size="10.00">tvm::Span</text>
<polyline fill="none" stroke="black" points="222,-718 372,-718 "/>
<text text-anchor="middle" x="297" y="-706" font-family="Helvetica,sans-Serif" font-size="10.00"> </text>
<polyline fill="none" stroke="black" points="222,-699 372,-699 "/>
<text text-anchor="start" x="230" y="-687" font-family="Helvetica,sans-Serif" font-size="10.00">+ TVM_DEFINE_OBJECT_REF</text>
<text text-anchor="start" x="230" y="-676" font-family="Helvetica,sans-Serif" font-size="10.00">_METHODS()</text>
</a>
</g>
</g>
<!-- Node6&#45;&gt;Node3 -->
<g id="edge5" class="edge"><title>Node6&#45;&gt;Node3</title>
<path fill="none" stroke="#404040" d="M297,-668.885C297,-613.797 297,-502.97 297,-437.896"/>
<polygon fill="none" stroke="#404040" points="297,-437.522 293,-431.522 297,-425.522 301,-431.522 297,-437.522"/>
<text text-anchor="middle" x="314.5" y="-542" font-family="Helvetica,sans-Serif" font-size="10.00"> +span</text>
</g>
<!-- Node7 -->
<g id="node7" class="node"><title>Node7</title>
<polygon fill="white" stroke="#bfbfbf" points="668,-791.5 668,-848.5 730,-848.5 730,-791.5 668,-791.5"/>
<text text-anchor="middle" x="699" y="-836.5" font-family="Helvetica,sans-Serif" font-size="10.00">ObjectRef</text>
<polyline fill="none" stroke="#bfbfbf" points="668,-829.5 730,-829.5 "/>
<text text-anchor="middle" x="699" y="-817.5" font-family="Helvetica,sans-Serif" font-size="10.00"> </text>
<polyline fill="none" stroke="#bfbfbf" points="668,-810.5 730,-810.5 "/>
<text text-anchor="middle" x="699" y="-798.5" font-family="Helvetica,sans-Serif" font-size="10.00"> </text>
</g>
<!-- Node7&#45;&gt;Node6 -->
<g id="edge6" class="edge"><title>Node7&#45;&gt;Node6</title>
<path fill="none" stroke="midnightblue" d="M657.63,-815.014C595.735,-808.068 476.132,-790.818 381,-754 369.288,-749.467 357.328,-743.377 346.242,-737.009"/>
<polygon fill="none" stroke="midnightblue" points="657.457,-818.516 667.777,-816.118 658.214,-811.557 657.457,-818.516"/>
</g>
<!-- Node8 -->
<g id="node8" class="node"><title>Node8</title>
<g id="a_node8"><a xlink:href="classtvm_1_1Type.html" target="_top" xlink:title="Managed reference to TypeNode. ">
<polygon fill="white" stroke="black" points="558,-669 558,-737 708,-737 708,-669 558,-669"/>
<text text-anchor="middle" x="633" y="-725" font-family="Helvetica,sans-Serif" font-size="10.00">tvm::Type</text>
<polyline fill="none" stroke="black" points="558,-718 708,-718 "/>
<text text-anchor="middle" x="633" y="-706" font-family="Helvetica,sans-Serif" font-size="10.00"> </text>
<polyline fill="none" stroke="black" points="558,-699 708,-699 "/>
<text text-anchor="start" x="566" y="-687" font-family="Helvetica,sans-Serif" font-size="10.00">+ TVM_DEFINE_OBJECT_REF</text>
<text text-anchor="start" x="566" y="-676" font-family="Helvetica,sans-Serif" font-size="10.00">_METHODS()</text>
</a>
</g>
</g>
<!-- Node7&#45;&gt;Node8 -->
<g id="edge8" class="edge"><title>Node7&#45;&gt;Node8</title>
<path fill="none" stroke="midnightblue" d="M678.15,-782.67C669.762,-768.055 660.157,-751.32 651.969,-737.052"/>
<polygon fill="none" stroke="midnightblue" points="675.178,-784.524 683.191,-791.455 681.249,-781.039 675.178,-784.524"/>
</g>
<!-- Node10 -->
<g id="node10" class="node"><title>Node10</title>
<g id="a_node10"><a xlink:href="classtvm_1_1Attrs.html" target="_top" xlink:title="Managed reference to BaseAttrsNode. ">
<polygon fill="white" stroke="black" points="390,-669 390,-737 540,-737 540,-669 390,-669"/>
<text text-anchor="middle" x="465" y="-725" font-family="Helvetica,sans-Serif" font-size="10.00">tvm::Attrs</text>
<polyline fill="none" stroke="black" points="390,-718 540,-718 "/>
<text text-anchor="middle" x="465" y="-706" font-family="Helvetica,sans-Serif" font-size="10.00"> </text>
<polyline fill="none" stroke="black" points="390,-699 540,-699 "/>
<text text-anchor="start" x="398" y="-687" font-family="Helvetica,sans-Serif" font-size="10.00">+ TVM_DEFINE_OBJECT_REF</text>
<text text-anchor="start" x="398" y="-676" font-family="Helvetica,sans-Serif" font-size="10.00">_METHODS()</text>
</a>
</g>
</g>
<!-- Node7&#45;&gt;Node10 -->
<g id="edge11" class="edge"><title>Node7&#45;&gt;Node10</title>
<path fill="none" stroke="midnightblue" d="M658.256,-802.998C627.714,-790.607 585.137,-772.489 549,-754 538.877,-748.821 528.299,-742.928 518.198,-737.049"/>
<polygon fill="none" stroke="midnightblue" points="657.143,-806.322 667.726,-806.813 659.759,-799.829 657.143,-806.322"/>
</g>
<!-- Node12 -->
<g id="node12" class="node"><title>Node12</title>
<g id="a_node12"><a xlink:href="classtvm_1_1BaseExpr.html" target="_top" xlink:title="Managed reference to BaseExprNode. ">
<polygon fill="white" stroke="black" points="726,-669 726,-737 876,-737 876,-669 726,-669"/>
<text text-anchor="middle" x="801" y="-725" font-family="Helvetica,sans-Serif" font-size="10.00">tvm::BaseExpr</text>
<polyline fill="none" stroke="black" points="726,-718 876,-718 "/>
<text text-anchor="middle" x="801" y="-706" font-family="Helvetica,sans-Serif" font-size="10.00"> </text>
<polyline fill="none" stroke="black" points="726,-699 876,-699 "/>
<text text-anchor="start" x="734" y="-687" font-family="Helvetica,sans-Serif" font-size="10.00">+ TVM_DEFINE_OBJECT_REF</text>
<text text-anchor="start" x="734" y="-676" font-family="Helvetica,sans-Serif" font-size="10.00">_METHODS()</text>
</a>
</g>
</g>
<!-- Node7&#45;&gt;Node12 -->
<g id="edge14" class="edge"><title>Node7&#45;&gt;Node12</title>
<path fill="none" stroke="midnightblue" d="M730.127,-783.906C743.344,-769.004 758.671,-751.723 771.684,-737.052"/>
<polygon fill="none" stroke="midnightblue" points="727.449,-781.651 723.432,-791.455 732.686,-786.296 727.449,-781.651"/>
</g>
<!-- Node13 -->
<g id="node13" class="node"><title>Node13</title>
<g id="a_node13"><a xlink:href="classtvm_1_1Array.html" target="_top" xlink:title="{tvm::Array\&lt; tvm::relay\l::Var \&gt;\n||+ Array()\l+ Array()\l+ Array()\l+ Array()\l+ Array()\l+ Array()\l+ Array()\l+ Array()\l+ operator=()\l+ operator=()\land 13 more...\l}">
<polygon fill="white" stroke="black" points="795,-455.5 795,-633.5 921,-633.5 921,-455.5 795,-455.5"/>
<text text-anchor="start" x="803" y="-621.5" font-family="Helvetica,sans-Serif" font-size="10.00">tvm::Array&lt; tvm::relay</text>
<text text-anchor="middle" x="858" y="-610.5" font-family="Helvetica,sans-Serif" font-size="10.00">::Var &gt;</text>
<polyline fill="none" stroke="black" points="795,-603.5 921,-603.5 "/>
<text text-anchor="middle" x="858" y="-591.5" font-family="Helvetica,sans-Serif" font-size="10.00"> </text>
<polyline fill="none" stroke="black" points="795,-584.5 921,-584.5 "/>
<text text-anchor="start" x="803" y="-572.5" font-family="Helvetica,sans-Serif" font-size="10.00">+ Array()</text>
<text text-anchor="start" x="803" y="-561.5" font-family="Helvetica,sans-Serif" font-size="10.00">+ Array()</text>
<text text-anchor="start" x="803" y="-550.5" font-family="Helvetica,sans-Serif" font-size="10.00">+ Array()</text>
<text text-anchor="start" x="803" y="-539.5" font-family="Helvetica,sans-Serif" font-size="10.00">+ Array()</text>
<text text-anchor="start" x="803" y="-528.5" font-family="Helvetica,sans-Serif" font-size="10.00">+ Array()</text>
<text text-anchor="start" x="803" y="-517.5" font-family="Helvetica,sans-Serif" font-size="10.00">+ Array()</text>
<text text-anchor="start" x="803" y="-506.5" font-family="Helvetica,sans-Serif" font-size="10.00">+ Array()</text>
<text text-anchor="start" x="803" y="-495.5" font-family="Helvetica,sans-Serif" font-size="10.00">+ Array()</text>
<text text-anchor="start" x="803" y="-484.5" font-family="Helvetica,sans-Serif" font-size="10.00">+ operator=()</text>
<text text-anchor="start" x="803" y="-473.5" font-family="Helvetica,sans-Serif" font-size="10.00">+ operator=()</text>
<text text-anchor="start" x="803" y="-462.5" font-family="Helvetica,sans-Serif" font-size="10.00">and 13 more...</text>
</a>
</g>
</g>
<!-- Node7&#45;&gt;Node13 -->
<g id="edge17" class="edge"><title>Node7&#45;&gt;Node13</title>
<path fill="none" stroke="midnightblue" d="M740.213,-817.664C784.298,-813.765 852.28,-800.095 885,-754 909.455,-719.548 906.276,-673.626 895.452,-633.649"/>
<polygon fill="none" stroke="midnightblue" points="739.81,-814.184 730.101,-818.425 740.336,-821.164 739.81,-814.184"/>
</g>
<!-- Node14 -->
<g id="node14" class="node"><title>Node14</title>
<g id="a_node14"><a xlink:href="classtvm_1_1Array.html" target="_top" xlink:title="{tvm::Array\&lt; tvm::TypeVar \&gt;\n||+ Array()\l+ Array()\l+ Array()\l+ Array()\l+ Array()\l+ Array()\l+ Array()\l+ Array()\l+ operator=()\l+ operator=()\land 13 more...\l}">
<polygon fill="white" stroke="black" points="926.5,-461 926.5,-628 1077.5,-628 1077.5,-461 926.5,-461"/>
<text text-anchor="middle" x="1002" y="-616" font-family="Helvetica,sans-Serif" font-size="10.00">tvm::Array&lt; tvm::TypeVar &gt;</text>
<polyline fill="none" stroke="black" points="926.5,-609 1077.5,-609 "/>
<text text-anchor="middle" x="1002" y="-597" font-family="Helvetica,sans-Serif" font-size="10.00"> </text>
<polyline fill="none" stroke="black" points="926.5,-590 1077.5,-590 "/>
<text text-anchor="start" x="934.5" y="-578" font-family="Helvetica,sans-Serif" font-size="10.00">+ Array()</text>
<text text-anchor="start" x="934.5" y="-567" font-family="Helvetica,sans-Serif" font-size="10.00">+ Array()</text>
<text text-anchor="start" x="934.5" y="-556" font-family="Helvetica,sans-Serif" font-size="10.00">+ Array()</text>
<text text-anchor="start" x="934.5" y="-545" font-family="Helvetica,sans-Serif" font-size="10.00">+ Array()</text>
<text text-anchor="start" x="934.5" y="-534" font-family="Helvetica,sans-Serif" font-size="10.00">+ Array()</text>
<text text-anchor="start" x="934.5" y="-523" font-family="Helvetica,sans-Serif" font-size="10.00">+ Array()</text>
<text text-anchor="start" x="934.5" y="-512" font-family="Helvetica,sans-Serif" font-size="10.00">+ Array()</text>
<text text-anchor="start" x="934.5" y="-501" font-family="Helvetica,sans-Serif" font-size="10.00">+ Array()</text>
<text text-anchor="start" x="934.5" y="-490" font-family="Helvetica,sans-Serif" font-size="10.00">+ operator=()</text>
<text text-anchor="start" x="934.5" y="-479" font-family="Helvetica,sans-Serif" font-size="10.00">+ operator=()</text>
<text text-anchor="start" x="934.5" y="-468" font-family="Helvetica,sans-Serif" font-size="10.00">and 13 more...</text>
</a>
</g>
</g>
<!-- Node7&#45;&gt;Node14 -->
<g id="edge19" class="edge"><title>Node7&#45;&gt;Node14</title>
<path fill="none" stroke="midnightblue" d="M740.348,-819.008C788.974,-816.573 868.216,-804.471 909,-754 938.894,-717.006 961.197,-668.881 976.457,-628.188"/>
<polygon fill="none" stroke="midnightblue" points="740.024,-815.518 730.166,-819.4 740.293,-822.513 740.024,-815.518"/>
</g>
<!-- Node8&#45;&gt;Node1 -->
<g id="edge15" class="edge"><title>Node8&#45;&gt;Node1</title>
<path fill="none" stroke="#404040" d="M631.536,-668.874C627.377,-571.039 616.567,-287.728 629,-248 644.954,-197.021 679.353,-147.66 709.561,-111.226"/>
<polygon fill="none" stroke="#404040" points="709.799,-110.944 710.615,-103.779 717.543,-101.777 716.727,-108.942 709.799,-110.944"/>
<text text-anchor="middle" x="655" y="-280" font-family="Helvetica,sans-Serif" font-size="10.00"> +ret_type</text>
</g>
<!-- Node8&#45;&gt;Node3 -->
<g id="edge7" class="edge"><title>Node8&#45;&gt;Node3</title>
<path fill="none" stroke="#404040" d="M582.046,-668.986C566.785,-658.389 550.312,-646.218 536,-634 461.448,-570.355 384.161,-486.683 338.348,-434.894"/>
<polygon fill="none" stroke="#404040" points="338.099,-434.611 331.132,-432.753 330.168,-425.607 337.135,-427.465 338.099,-434.611"/>
<text text-anchor="middle" x="577.5" y="-542" font-family="Helvetica,sans-Serif" font-size="10.00"> +checked_type_</text>
</g>
<!-- Node9 -->
<g id="node9" class="node"><title>Node9</title>
<g id="a_node9"><a xlink:href="classtvm_1_1DictAttrs.html" target="_top" xlink:title="Managed reference to DictAttrsNode. ">
<polygon fill="white" stroke="black" points="417,-335.5 417,-436.5 567,-436.5 567,-335.5 417,-335.5"/>
<text text-anchor="middle" x="492" y="-424.5" font-family="Helvetica,sans-Serif" font-size="10.00">tvm::DictAttrs</text>
<polyline fill="none" stroke="black" points="417,-417.5 567,-417.5 "/>
<text text-anchor="middle" x="492" y="-405.5" font-family="Helvetica,sans-Serif" font-size="10.00"> </text>
<polyline fill="none" stroke="black" points="417,-398.5 567,-398.5 "/>
<text text-anchor="start" x="425" y="-386.5" font-family="Helvetica,sans-Serif" font-size="10.00">+ DictAttrs()</text>
<text text-anchor="start" x="425" y="-375.5" font-family="Helvetica,sans-Serif" font-size="10.00">+ TVM_DEFINE_OBJECT_REF</text>
<text text-anchor="start" x="425" y="-364.5" font-family="Helvetica,sans-Serif" font-size="10.00">_METHODS()</text>
<text text-anchor="start" x="425" y="-353.5" font-family="Helvetica,sans-Serif" font-size="10.00">+ TVM_DEFINE_OBJECT_REF</text>
<text text-anchor="start" x="425" y="-342.5" font-family="Helvetica,sans-Serif" font-size="10.00">_COW_METHOD()</text>
</a>
</g>
</g>
<!-- Node9&#45;&gt;Node2 -->
<g id="edge9" class="edge"><title>Node9&#45;&gt;Node2</title>
<path fill="none" stroke="#404040" d="M492,-335.429C492,-307.055 492,-271.357 492,-241.913"/>
<polygon fill="none" stroke="#404040" points="492,-241.716 488,-235.716 492,-229.716 496,-235.716 492,-241.716"/>
<text text-anchor="middle" x="509" y="-280" font-family="Helvetica,sans-Serif" font-size="10.00"> +attrs</text>
</g>
<!-- Node10&#45;&gt;Node9 -->
<g id="edge10" class="edge"><title>Node10&#45;&gt;Node9</title>
<path fill="none" stroke="midnightblue" d="M468.722,-658.578C473.701,-600.489 482.508,-497.735 487.745,-436.643"/>
<polygon fill="none" stroke="midnightblue" points="465.205,-658.622 467.838,-668.885 472.18,-659.22 465.205,-658.622"/>
</g>
<!-- Node11 -->
<g id="node11" class="node"><title>Node11</title>
<g id="a_node11"><a xlink:href="classtvm_1_1RelayExpr.html" target="_top" xlink:title="Managed reference to RelayExprNode. ">
<polygon fill="white" stroke="black" points="690,-248.5 690,-316.5 840,-316.5 840,-248.5 690,-248.5"/>
<text text-anchor="middle" x="765" y="-304.5" font-family="Helvetica,sans-Serif" font-size="10.00">tvm::RelayExpr</text>
<polyline fill="none" stroke="black" points="690,-297.5 840,-297.5 "/>
<text text-anchor="middle" x="765" y="-285.5" font-family="Helvetica,sans-Serif" font-size="10.00"> </text>
<polyline fill="none" stroke="black" points="690,-278.5 840,-278.5 "/>
<text text-anchor="start" x="698" y="-266.5" font-family="Helvetica,sans-Serif" font-size="10.00">+ TVM_DEFINE_OBJECT_REF</text>
<text text-anchor="start" x="698" y="-255.5" font-family="Helvetica,sans-Serif" font-size="10.00">_METHODS()</text>
</a>
</g>
</g>
<!-- Node11&#45;&gt;Node1 -->
<g id="edge12" class="edge"><title>Node11&#45;&gt;Node1</title>
<path fill="none" stroke="#404040" d="M765,-248.129C765,-212.977 765,-156.835 765,-113.606"/>
<polygon fill="none" stroke="#404040" points="765,-113.5 761,-107.5 765,-101.5 769,-107.5 765,-113.5"/>
<text text-anchor="middle" x="782.5" y="-182" font-family="Helvetica,sans-Serif" font-size="10.00"> +body</text>
</g>
<!-- Node12&#45;&gt;Node11 -->
<g id="edge13" class="edge"><title>Node12&#45;&gt;Node11</title>
<path fill="none" stroke="midnightblue" d="M792.704,-659.027C791.308,-650.746 789.992,-642.121 789,-634 774.841,-518.059 768.436,-379.446 766.106,-316.958"/>
<polygon fill="none" stroke="midnightblue" points="789.261,-659.655 794.432,-668.903 796.156,-658.449 789.261,-659.655"/>
</g>
<!-- Node13&#45;&gt;Node1 -->
<g id="edge16" class="edge"><title>Node13&#45;&gt;Node1</title>
<path fill="none" stroke="#404040" d="M859.111,-455.452C858.352,-396.29 854.409,-316.849 841,-248 831.22,-197.784 822.706,-186.617 804,-139 800.675,-130.537 796.982,-121.701 793.231,-113.041"/>
<polygon fill="none" stroke="#404040" points="793.121,-112.79 787.045,-108.906 788.293,-101.804 794.369,-105.688 793.121,-112.79"/>
<text text-anchor="middle" x="875.5" y="-280" font-family="Helvetica,sans-Serif" font-size="10.00"> +params</text>
</g>
<!-- Node14&#45;&gt;Node1 -->
<g id="edge18" class="edge"><title>Node14&#45;&gt;Node1</title>
<path fill="none" stroke="#404040" d="M980.459,-460.84C963.316,-400.404 936.792,-317.243 904,-248 879.46,-196.182 868.358,-185.632 835,-139 828.471,-129.872 821.315,-120.424 814.149,-111.266"/>
<polygon fill="none" stroke="#404040" points="814.149,-111.266 807.29,-109.042 806.705,-101.854 813.564,-104.079 814.149,-111.266"/>
<text text-anchor="middle" x="970.5" y="-280" font-family="Helvetica,sans-Serif" font-size="10.00"> +type_params</text>
</g>
</g>
</svg>
