<?xml version="1.0" encoding="UTF-8" standalone="no"?>
<!DOCTYPE svg PUBLIC "-//W3C//DTD SVG 1.1//EN"
 "http://www.w3.org/Graphics/SVG/1.1/DTD/svg11.dtd">
<!-- Generated by graphviz version 2.38.0 (20140413.2041)
 -->
<!-- Title: tvm::tir::AllocateNode Pages: 1 -->
<svg width="692pt" height="999pt"
 viewBox="0.00 0.00 691.50 999.00" xmlns="http://www.w3.org/2000/svg" xmlns:xlink="http://www.w3.org/1999/xlink">
<g id="graph0" class="graph" transform="scale(1 1) rotate(0) translate(4 995)">
<title>tvm::tir::AllocateNode</title>
<polygon fill="white" stroke="none" points="-4,4 -4,-995 687.5,-995 687.5,4 -4,4"/>
<!-- Node1 -->
<g id="node1" class="node"><title>Node1</title>
<polygon fill="#bfbfbf" stroke="black" points="314.5,-0.5 314.5,-134.5 519.5,-134.5 519.5,-0.5 314.5,-0.5"/>
<text text-anchor="middle" x="417" y="-122.5" font-family="Helvetica,sans-Serif" font-size="10.00">tvm::tir::AllocateNode</text>
<polyline fill="none" stroke="black" points="314.5,-115.5 519.5,-115.5 "/>
<text text-anchor="start" x="322.5" y="-103.5" font-family="Helvetica,sans-Serif" font-size="10.00">+ free_function</text>
<text text-anchor="start" x="322.5" y="-92.5" font-family="Helvetica,sans-Serif" font-size="10.00">+ _type_key</text>
<polyline fill="none" stroke="black" points="314.5,-85.5 519.5,-85.5 "/>
<text text-anchor="start" x="322.5" y="-73.5" font-family="Helvetica,sans-Serif" font-size="10.00">+ VisitAttrs()</text>
<text text-anchor="start" x="322.5" y="-62.5" font-family="Helvetica,sans-Serif" font-size="10.00">+ SEqualReduce()</text>
<text text-anchor="start" x="322.5" y="-51.5" font-family="Helvetica,sans-Serif" font-size="10.00">+ SHashReduce()</text>
<text text-anchor="start" x="322.5" y="-40.5" font-family="Helvetica,sans-Serif" font-size="10.00">+ constant_allocation_size()</text>
<text text-anchor="start" x="322.5" y="-29.5" font-family="Helvetica,sans-Serif" font-size="10.00">+ TVM_DECLARE_FINAL_OBJECT_INFO()</text>
<text text-anchor="start" x="322.5" y="-18.5" font-family="Helvetica,sans-Serif" font-size="10.00">+ make()</text>
<text text-anchor="start" x="322.5" y="-7.5" font-family="Helvetica,sans-Serif" font-size="10.00">+ constant_allocation_size()</text>
</g>
<!-- Node2 -->
<g id="node2" class="node"><title>Node2</title>
<g id="a_node2"><a xlink:href="classtvm_1_1tir_1_1StmtNode.html" target="_top" xlink:title="Base node of all statements. ">
<polygon fill="white" stroke="black" points="0,-248.5 0,-349.5 204,-349.5 204,-248.5 0,-248.5"/>
<text text-anchor="middle" x="102" y="-337.5" font-family="Helvetica,sans-Serif" font-size="10.00">tvm::tir::StmtNode</text>
<polyline fill="none" stroke="black" points="0,-330.5 204,-330.5 "/>
<text text-anchor="start" x="8" y="-318.5" font-family="Helvetica,sans-Serif" font-size="10.00">+ _type_key</text>
<text text-anchor="start" x="8" y="-307.5" font-family="Helvetica,sans-Serif" font-size="10.00">+ _type_has_method_sequal</text>
<text text-anchor="start" x="8" y="-296.5" font-family="Helvetica,sans-Serif" font-size="10.00">_reduce</text>
<text text-anchor="start" x="8" y="-285.5" font-family="Helvetica,sans-Serif" font-size="10.00">+ _type_has_method_shash</text>
<text text-anchor="start" x="8" y="-274.5" font-family="Helvetica,sans-Serif" font-size="10.00">_reduce</text>
<polyline fill="none" stroke="black" points="0,-267.5 204,-267.5 "/>
<text text-anchor="start" x="8" y="-255.5" font-family="Helvetica,sans-Serif" font-size="10.00">+ TVM_DECLARE_BASE_OBJECT_INFO()</text>
</a>
</g>
</g>
<!-- Node2&#45;&gt;Node1 -->
<g id="edge1" class="edge"><title>Node2&#45;&gt;Node1</title>
<path fill="none" stroke="midnightblue" d="M141.697,-240.26C163.89,-211.208 193.578,-177.136 226,-153 252.468,-133.297 284.253,-116.924 314.231,-104.004"/>
<polygon fill="none" stroke="midnightblue" points="138.857,-238.213 135.64,-248.308 144.45,-242.423 138.857,-238.213"/>
</g>
<!-- Node3 -->
<g id="node3" class="node"><title>Node3</title>
<polygon fill="white" stroke="#bfbfbf" points="78.5,-543.5 78.5,-600.5 125.5,-600.5 125.5,-543.5 78.5,-543.5"/>
<text text-anchor="middle" x="102" y="-588.5" font-family="Helvetica,sans-Serif" font-size="10.00">Object</text>
<polyline fill="none" stroke="#bfbfbf" points="78.5,-581.5 125.5,-581.5 "/>
<text text-anchor="middle" x="102" y="-569.5" font-family="Helvetica,sans-Serif" font-size="10.00"> </text>
<polyline fill="none" stroke="#bfbfbf" points="78.5,-562.5 125.5,-562.5 "/>
<text text-anchor="middle" x="102" y="-550.5" font-family="Helvetica,sans-Serif" font-size="10.00"> </text>
</g>
<!-- Node3&#45;&gt;Node2 -->
<g id="edge2" class="edge"><title>Node3&#45;&gt;Node2</title>
<path fill="none" stroke="midnightblue" d="M102,-533.018C102,-485.086 102,-402.532 102,-349.647"/>
<polygon fill="none" stroke="midnightblue" points="98.5001,-533.272 102,-543.272 105.5,-533.272 98.5001,-533.272"/>
</g>
<!-- Node4 -->
<g id="node4" class="node"><title>Node4</title>
<g id="a_node4"><a xlink:href="classtvm_1_1tir_1_1Var.html" target="_top" xlink:title="a named variable in TVM ">
<polygon fill="white" stroke="black" points="315,-243 315,-355 427,-355 427,-243 315,-243"/>
<text text-anchor="middle" x="371" y="-343" font-family="Helvetica,sans-Serif" font-size="10.00">tvm::tir::Var</text>
<polyline fill="none" stroke="black" points="315,-336 427,-336 "/>
<text text-anchor="middle" x="371" y="-324" font-family="Helvetica,sans-Serif" font-size="10.00"> </text>
<polyline fill="none" stroke="black" points="315,-317 427,-317 "/>
<text text-anchor="start" x="323" y="-305" font-family="Helvetica,sans-Serif" font-size="10.00">+ Var()</text>
<text text-anchor="start" x="323" y="-294" font-family="Helvetica,sans-Serif" font-size="10.00">+ Var()</text>
<text text-anchor="start" x="323" y="-283" font-family="Helvetica,sans-Serif" font-size="10.00">+ Var()</text>
<text text-anchor="start" x="323" y="-272" font-family="Helvetica,sans-Serif" font-size="10.00">+ copy_with_suffix()</text>
<text text-anchor="start" x="323" y="-261" font-family="Helvetica,sans-Serif" font-size="10.00">+ operator&#45;&gt;()</text>
<text text-anchor="start" x="323" y="-250" font-family="Helvetica,sans-Serif" font-size="10.00">+ get()</text>
</a>
</g>
</g>
<!-- Node4&#45;&gt;Node1 -->
<g id="edge3" class="edge"><title>Node4&#45;&gt;Node1</title>
<path fill="none" stroke="#404040" d="M370.499,-242.951C371.331,-215.581 373.985,-182.197 381,-153 381.545,-150.732 382.145,-148.448 382.792,-146.157"/>
<polygon fill="none" stroke="#404040" points="382.8,-146.132 380.774,-139.211 386.384,-134.68 388.409,-141.601 382.8,-146.132"/>
<text text-anchor="middle" x="411" y="-156" font-family="Helvetica,sans-Serif" font-size="10.00"> +buffer_var</text>
</g>
<!-- Node5 -->
<g id="node5" class="node"><title>Node5</title>
<g id="a_node5"><a xlink:href="classtvm_1_1PrimExpr.html" target="_top" xlink:title="Reference to PrimExprNode. ">
<polygon fill="white" stroke="black" points="277,-521.5 277,-622.5 427,-622.5 427,-521.5 277,-521.5"/>
<text text-anchor="middle" x="352" y="-610.5" font-family="Helvetica,sans-Serif" font-size="10.00">tvm::PrimExpr</text>
<polyline fill="none" stroke="black" points="277,-603.5 427,-603.5 "/>
<text text-anchor="middle" x="352" y="-591.5" font-family="Helvetica,sans-Serif" font-size="10.00"> </text>
<polyline fill="none" stroke="black" points="277,-584.5 427,-584.5 "/>
<text text-anchor="start" x="285" y="-572.5" font-family="Helvetica,sans-Serif" font-size="10.00">+ PrimExpr()</text>
<text text-anchor="start" x="285" y="-561.5" font-family="Helvetica,sans-Serif" font-size="10.00">+ PrimExpr()</text>
<text text-anchor="start" x="285" y="-550.5" font-family="Helvetica,sans-Serif" font-size="10.00">+ dtype()</text>
<text text-anchor="start" x="285" y="-539.5" font-family="Helvetica,sans-Serif" font-size="10.00">+ TVM_DEFINE_OBJECT_REF</text>
<text text-anchor="start" x="285" y="-528.5" font-family="Helvetica,sans-Serif" font-size="10.00">_METHODS()</text>
</a>
</g>
</g>
<!-- Node5&#45;&gt;Node1 -->
<g id="edge9" class="edge"><title>Node5&#45;&gt;Node1</title>
<path fill="none" stroke="#404040" d="M308.129,-521.491C285.704,-492.826 260.721,-454.817 249,-416 218.937,-316.44 200.209,-273.845 249,-182 261.73,-158.036 282.029,-138.212 304.182,-122.208"/>
<polygon fill="none" stroke="#404040" points="304.243,-122.167 306.911,-115.467 314.121,-115.353 311.453,-122.053 304.243,-122.167"/>
<text text-anchor="middle" x="277.5" y="-302" font-family="Helvetica,sans-Serif" font-size="10.00"> +new_expr</text>
<text text-anchor="middle" x="277.5" y="-291" font-family="Helvetica,sans-Serif" font-size="10.00">+condition</text>
</g>
<!-- Node5&#45;&gt;Node4 -->
<g id="edge4" class="edge"><title>Node5&#45;&gt;Node4</title>
<path fill="none" stroke="midnightblue" d="M356.202,-511.069C359.459,-464.616 363.937,-400.742 367.112,-355.459"/>
<polygon fill="none" stroke="midnightblue" points="352.693,-511.074 355.485,-521.294 359.676,-511.564 352.693,-511.074"/>
</g>
<!-- Node6 -->
<g id="node6" class="node"><title>Node6</title>
<g id="a_node6"><a xlink:href="classtvm_1_1BaseExpr.html" target="_top" xlink:title="Managed reference to BaseExprNode. ">
<polygon fill="white" stroke="black" points="277,-827.5 277,-895.5 427,-895.5 427,-827.5 277,-827.5"/>
<text text-anchor="middle" x="352" y="-883.5" font-family="Helvetica,sans-Serif" font-size="10.00">tvm::BaseExpr</text>
<polyline fill="none" stroke="black" points="277,-876.5 427,-876.5 "/>
<text text-anchor="middle" x="352" y="-864.5" font-family="Helvetica,sans-Serif" font-size="10.00"> </text>
<polyline fill="none" stroke="black" points="277,-857.5 427,-857.5 "/>
<text text-anchor="start" x="285" y="-845.5" font-family="Helvetica,sans-Serif" font-size="10.00">+ TVM_DEFINE_OBJECT_REF</text>
<text text-anchor="start" x="285" y="-834.5" font-family="Helvetica,sans-Serif" font-size="10.00">_METHODS()</text>
</a>
</g>
</g>
<!-- Node6&#45;&gt;Node5 -->
<g id="edge5" class="edge"><title>Node6&#45;&gt;Node5</title>
<path fill="none" stroke="midnightblue" d="M352,-816.963C352,-764.711 352,-677.304 352,-622.526"/>
<polygon fill="none" stroke="midnightblue" points="348.5,-817.239 352,-827.239 355.5,-817.239 348.5,-817.239"/>
</g>
<!-- Node7 -->
<g id="node7" class="node"><title>Node7</title>
<polygon fill="white" stroke="#bfbfbf" points="424,-933.5 424,-990.5 486,-990.5 486,-933.5 424,-933.5"/>
<text text-anchor="middle" x="455" y="-978.5" font-family="Helvetica,sans-Serif" font-size="10.00">ObjectRef</text>
<polyline fill="none" stroke="#bfbfbf" points="424,-971.5 486,-971.5 "/>
<text text-anchor="middle" x="455" y="-959.5" font-family="Helvetica,sans-Serif" font-size="10.00"> </text>
<polyline fill="none" stroke="#bfbfbf" points="424,-952.5 486,-952.5 "/>
<text text-anchor="middle" x="455" y="-940.5" font-family="Helvetica,sans-Serif" font-size="10.00"> </text>
</g>
<!-- Node7&#45;&gt;Node6 -->
<g id="edge6" class="edge"><title>Node7&#45;&gt;Node6</title>
<path fill="none" stroke="midnightblue" d="M418.637,-926.226C408.22,-916.264 396.897,-905.435 386.59,-895.578"/>
<polygon fill="none" stroke="midnightblue" points="416.388,-928.918 426.035,-933.3 421.226,-923.859 416.388,-928.918"/>
</g>
<!-- Node8 -->
<g id="node8" class="node"><title>Node8</title>
<g id="a_node8"><a xlink:href="classtvm_1_1Array.html" target="_top" xlink:title="{tvm::Array\&lt; tvm::PrimExpr \&gt;\n||+ Array()\l+ Array()\l+ Array()\l+ Array()\l+ Array()\l+ Array()\l+ Array()\l+ Array()\l+ operator=()\l+ operator=()\land 13 more...\l}">
<polygon fill="white" stroke="black" points="376.5,-641.5 376.5,-808.5 533.5,-808.5 533.5,-641.5 376.5,-641.5"/>
<text text-anchor="middle" x="455" y="-796.5" font-family="Helvetica,sans-Serif" font-size="10.00">tvm::Array&lt; tvm::PrimExpr &gt;</text>
<polyline fill="none" stroke="black" points="376.5,-789.5 533.5,-789.5 "/>
<text text-anchor="middle" x="455" y="-777.5" font-family="Helvetica,sans-Serif" font-size="10.00"> </text>
<polyline fill="none" stroke="black" points="376.5,-770.5 533.5,-770.5 "/>
<text text-anchor="start" x="384.5" y="-758.5" font-family="Helvetica,sans-Serif" font-size="10.00">+ Array()</text>
<text text-anchor="start" x="384.5" y="-747.5" font-family="Helvetica,sans-Serif" font-size="10.00">+ Array()</text>
<text text-anchor="start" x="384.5" y="-736.5" font-family="Helvetica,sans-Serif" font-size="10.00">+ Array()</text>
<text text-anchor="start" x="384.5" y="-725.5" font-family="Helvetica,sans-Serif" font-size="10.00">+ Array()</text>
<text text-anchor="start" x="384.5" y="-714.5" font-family="Helvetica,sans-Serif" font-size="10.00">+ Array()</text>
<text text-anchor="start" x="384.5" y="-703.5" font-family="Helvetica,sans-Serif" font-size="10.00">+ Array()</text>
<text text-anchor="start" x="384.5" y="-692.5" font-family="Helvetica,sans-Serif" font-size="10.00">+ Array()</text>
<text text-anchor="start" x="384.5" y="-681.5" font-family="Helvetica,sans-Serif" font-size="10.00">+ Array()</text>
<text text-anchor="start" x="384.5" y="-670.5" font-family="Helvetica,sans-Serif" font-size="10.00">+ operator=()</text>
<text text-anchor="start" x="384.5" y="-659.5" font-family="Helvetica,sans-Serif" font-size="10.00">+ operator=()</text>
<text text-anchor="start" x="384.5" y="-648.5" font-family="Helvetica,sans-Serif" font-size="10.00">and 13 more...</text>
</a>
</g>
</g>
<!-- Node7&#45;&gt;Node8 -->
<g id="edge8" class="edge"><title>Node7&#45;&gt;Node8</title>
<path fill="none" stroke="midnightblue" d="M455,-922.811C455,-891.965 455,-847.443 455,-808.544"/>
<polygon fill="none" stroke="midnightblue" points="451.5,-923.12 455,-933.12 458.5,-923.12 451.5,-923.12"/>
</g>
<!-- Node9 -->
<g id="node9" class="node"><title>Node9</title>
<g id="a_node9"><a xlink:href="classtvm_1_1tir_1_1Stmt.html" target="_top" xlink:title="Container of all statements. ">
<polygon fill="white" stroke="black" points="508,-434.5 508,-502.5 658,-502.5 658,-434.5 508,-434.5"/>
<text text-anchor="middle" x="583" y="-490.5" font-family="Helvetica,sans-Serif" font-size="10.00">tvm::tir::Stmt</text>
<polyline fill="none" stroke="black" points="508,-483.5 658,-483.5 "/>
<text text-anchor="middle" x="583" y="-471.5" font-family="Helvetica,sans-Serif" font-size="10.00"> </text>
<polyline fill="none" stroke="black" points="508,-464.5 658,-464.5 "/>
<text text-anchor="start" x="516" y="-452.5" font-family="Helvetica,sans-Serif" font-size="10.00">+ TVM_DEFINE_OBJECT_REF</text>
<text text-anchor="start" x="516" y="-441.5" font-family="Helvetica,sans-Serif" font-size="10.00">_METHODS()</text>
</a>
</g>
</g>
<!-- Node7&#45;&gt;Node9 -->
<g id="edge11" class="edge"><title>Node7&#45;&gt;Node9</title>
<path fill="none" stroke="midnightblue" d="M481.056,-925.141C501.179,-895.513 527.897,-851.556 542,-809 577.766,-701.08 582.965,-564.643 583.315,-502.742"/>
<polygon fill="none" stroke="midnightblue" points="478.101,-923.261 475.308,-933.481 483.865,-927.233 478.101,-923.261"/>
</g>
<!-- Node8&#45;&gt;Node1 -->
<g id="edge7" class="edge"><title>Node8&#45;&gt;Node1</title>
<path fill="none" stroke="#404040" d="M453.52,-641.278C450.716,-488.778 444.587,-176.637 441,-153 440.671,-150.833 440.303,-148.642 439.902,-146.438"/>
<polygon fill="none" stroke="#404040" points="439.88,-146.33 434.757,-141.256 437.47,-134.575 442.594,-139.649 439.88,-146.33"/>
<text text-anchor="middle" x="475" y="-466" font-family="Helvetica,sans-Serif" font-size="10.00"> +extents</text>
</g>
<!-- Node9&#45;&gt;Node1 -->
<g id="edge10" class="edge"><title>Node9&#45;&gt;Node1</title>
<path fill="none" stroke="#404040" d="M525.563,-434.246C519.578,-428.807 514.172,-422.721 510,-416 447.609,-315.489 509.915,-264 469,-153 468.08,-150.505 467.082,-148.004 466.019,-145.506"/>
<polygon fill="none" stroke="#404040" points="466.016,-145.498 459.866,-141.731 460.978,-134.606 467.127,-138.373 466.016,-145.498"/>
<text text-anchor="middle" x="527.5" y="-296.5" font-family="Helvetica,sans-Serif" font-size="10.00"> +body</text>
</g>
<!-- Node10 -->
<g id="node10" class="node"><title>Node10</title>
<g id="a_node10"><a xlink:href="classtvm_1_1runtime_1_1DataType.html" target="_top" xlink:title="Runtime primitive data type. ">
<polygon fill="white" stroke="black" points="554.5,-182.5 554.5,-415.5 683.5,-415.5 683.5,-182.5 554.5,-182.5"/>
<text text-anchor="middle" x="619" y="-403.5" font-family="Helvetica,sans-Serif" font-size="10.00">tvm::runtime::DataType</text>
<polyline fill="none" stroke="black" points="554.5,-396.5 683.5,-396.5 "/>
<text text-anchor="middle" x="619" y="-384.5" font-family="Helvetica,sans-Serif" font-size="10.00"> </text>
<polyline fill="none" stroke="black" points="554.5,-377.5 683.5,-377.5 "/>
<text text-anchor="start" x="562.5" y="-365.5" font-family="Helvetica,sans-Serif" font-size="10.00">+ DataType()</text>
<text text-anchor="start" x="562.5" y="-354.5" font-family="Helvetica,sans-Serif" font-size="10.00">+ DataType()</text>
<text text-anchor="start" x="562.5" y="-343.5" font-family="Helvetica,sans-Serif" font-size="10.00">+ DataType()</text>
<text text-anchor="start" x="562.5" y="-332.5" font-family="Helvetica,sans-Serif" font-size="10.00">+ code()</text>
<text text-anchor="start" x="562.5" y="-321.5" font-family="Helvetica,sans-Serif" font-size="10.00">+ bits()</text>
<text text-anchor="start" x="562.5" y="-310.5" font-family="Helvetica,sans-Serif" font-size="10.00">+ bytes()</text>
<text text-anchor="start" x="562.5" y="-299.5" font-family="Helvetica,sans-Serif" font-size="10.00">+ lanes()</text>
<text text-anchor="start" x="562.5" y="-288.5" font-family="Helvetica,sans-Serif" font-size="10.00">+ is_scalar()</text>
<text text-anchor="start" x="562.5" y="-277.5" font-family="Helvetica,sans-Serif" font-size="10.00">+ is_bool()</text>
<text text-anchor="start" x="562.5" y="-266.5" font-family="Helvetica,sans-Serif" font-size="10.00">+ is_float()</text>
<text text-anchor="start" x="562.5" y="-255.5" font-family="Helvetica,sans-Serif" font-size="10.00">and 12 more...</text>
<text text-anchor="start" x="562.5" y="-244.5" font-family="Helvetica,sans-Serif" font-size="10.00">+ Int()</text>
<text text-anchor="start" x="562.5" y="-233.5" font-family="Helvetica,sans-Serif" font-size="10.00">+ UInt()</text>
<text text-anchor="start" x="562.5" y="-222.5" font-family="Helvetica,sans-Serif" font-size="10.00">+ Float()</text>
<text text-anchor="start" x="562.5" y="-211.5" font-family="Helvetica,sans-Serif" font-size="10.00">+ Bool()</text>
<text text-anchor="start" x="562.5" y="-200.5" font-family="Helvetica,sans-Serif" font-size="10.00">+ Handle()</text>
<text text-anchor="start" x="562.5" y="-189.5" font-family="Helvetica,sans-Serif" font-size="10.00">+ ShapeIndex()</text>
</a>
</g>
</g>
<!-- Node10&#45;&gt;Node1 -->
<g id="edge12" class="edge"><title>Node10&#45;&gt;Node1</title>
<path fill="none" stroke="#404040" d="M554.326,-198.555C542.106,-182.591 528.8,-166.801 515,-153 511.656,-149.655 508.198,-146.289 504.67,-142.928"/>
<polygon fill="none" stroke="#404040" points="504.533,-142.8 497.419,-141.618 495.774,-134.597 502.888,-135.779 504.533,-142.8"/>
<text text-anchor="middle" x="544.5" y="-156" font-family="Helvetica,sans-Serif" font-size="10.00"> +dtype</text>
</g>
</g>
</svg>
