<?xml version="1.0" encoding="UTF-8" standalone="no"?>
<!DOCTYPE svg PUBLIC "-//W3C//DTD SVG 1.1//EN"
 "http://www.w3.org/Graphics/SVG/1.1/DTD/svg11.dtd">
<!-- Generated by graphviz version 2.38.0 (20140413.2041)
 -->
<!-- Title: tvm::BaseExpr Pages: 1 -->
<svg width="3418pt" height="618pt"
 viewBox="0.00 0.00 3418.00 618.00" xmlns="http://www.w3.org/2000/svg" xmlns:xlink="http://www.w3.org/1999/xlink">
<g id="graph0" class="graph" transform="scale(1 1) rotate(0) translate(4 614)">
<title>tvm::BaseExpr</title>
<polygon fill="white" stroke="none" points="-4,4 -4,-614 3414,-614 3414,4 -4,4"/>
<!-- Node1 -->
<g id="node1" class="node"><title>Node1</title>
<polygon fill="#bfbfbf" stroke="black" points="1210,-447.5 1210,-515.5 1360,-515.5 1360,-447.5 1210,-447.5"/>
<text text-anchor="middle" x="1285" y="-503.5" font-family="Helvetica,sans-Serif" font-size="10.00">tvm::BaseExpr</text>
<polyline fill="none" stroke="black" points="1210,-496.5 1360,-496.5 "/>
<text text-anchor="middle" x="1285" y="-484.5" font-family="Helvetica,sans-Serif" font-size="10.00"> </text>
<polyline fill="none" stroke="black" points="1210,-477.5 1360,-477.5 "/>
<text text-anchor="start" x="1218" y="-465.5" font-family="Helvetica,sans-Serif" font-size="10.00">+ TVM_DEFINE_OBJECT_REF</text>
<text text-anchor="start" x="1218" y="-454.5" font-family="Helvetica,sans-Serif" font-size="10.00">_METHODS()</text>
</g>
<!-- Node3 -->
<g id="node3" class="node"><title>Node3</title>
<g id="a_node3"><a xlink:href="classtvm_1_1PrimExpr.html" target="_top" xlink:title="Reference to PrimExprNode. ">
<polygon fill="white" stroke="black" points="420,-309.5 420,-410.5 570,-410.5 570,-309.5 420,-309.5"/>
<text text-anchor="middle" x="495" y="-398.5" font-family="Helvetica,sans-Serif" font-size="10.00">tvm::PrimExpr</text>
<polyline fill="none" stroke="black" points="420,-391.5 570,-391.5 "/>
<text text-anchor="middle" x="495" y="-379.5" font-family="Helvetica,sans-Serif" font-size="10.00"> </text>
<polyline fill="none" stroke="black" points="420,-372.5 570,-372.5 "/>
<text text-anchor="start" x="428" y="-360.5" font-family="Helvetica,sans-Serif" font-size="10.00">+ PrimExpr()</text>
<text text-anchor="start" x="428" y="-349.5" font-family="Helvetica,sans-Serif" font-size="10.00">+ PrimExpr()</text>
<text text-anchor="start" x="428" y="-338.5" font-family="Helvetica,sans-Serif" font-size="10.00">+ dtype()</text>
<text text-anchor="start" x="428" y="-327.5" font-family="Helvetica,sans-Serif" font-size="10.00">+ TVM_DEFINE_OBJECT_REF</text>
<text text-anchor="start" x="428" y="-316.5" font-family="Helvetica,sans-Serif" font-size="10.00">_METHODS()</text>
</a>
</g>
</g>
<!-- Node1&#45;&gt;Node3 -->
<g id="edge2" class="edge"><title>Node1&#45;&gt;Node3</title>
<path fill="none" stroke="midnightblue" d="M1199.99,-467.641C1044.73,-444.156 717.718,-394.69 570.109,-372.361"/>
<polygon fill="none" stroke="midnightblue" points="1199.56,-471.115 1209.97,-469.15 1200.6,-464.194 1199.56,-471.115"/>
</g>
<!-- Node11 -->
<g id="node11" class="node"><title>Node11</title>
<g id="a_node11"><a xlink:href="classtvm_1_1RelayExpr.html" target="_top" xlink:title="Managed reference to RelayExprNode. ">
<polygon fill="white" stroke="black" points="1916,-326 1916,-394 2066,-394 2066,-326 1916,-326"/>
<text text-anchor="middle" x="1991" y="-382" font-family="Helvetica,sans-Serif" font-size="10.00">tvm::RelayExpr</text>
<polyline fill="none" stroke="black" points="1916,-375 2066,-375 "/>
<text text-anchor="middle" x="1991" y="-363" font-family="Helvetica,sans-Serif" font-size="10.00"> </text>
<polyline fill="none" stroke="black" points="1916,-356 2066,-356 "/>
<text text-anchor="start" x="1924" y="-344" font-family="Helvetica,sans-Serif" font-size="10.00">+ TVM_DEFINE_OBJECT_REF</text>
<text text-anchor="start" x="1924" y="-333" font-family="Helvetica,sans-Serif" font-size="10.00">_METHODS()</text>
</a>
</g>
</g>
<!-- Node1&#45;&gt;Node11 -->
<g id="edge10" class="edge"><title>Node1&#45;&gt;Node11</title>
<path fill="none" stroke="midnightblue" d="M1370.42,-466.041C1509.74,-442.46 1783.58,-396.108 1915.9,-373.711"/>
<polygon fill="none" stroke="midnightblue" points="1369.5,-462.648 1360.22,-467.768 1370.66,-469.55 1369.5,-462.648"/>
</g>
<!-- Node2 -->
<g id="node2" class="node"><title>Node2</title>
<polygon fill="white" stroke="#bfbfbf" points="1254,-552.5 1254,-609.5 1316,-609.5 1316,-552.5 1254,-552.5"/>
<text text-anchor="middle" x="1285" y="-597.5" font-family="Helvetica,sans-Serif" font-size="10.00">ObjectRef</text>
<polyline fill="none" stroke="#bfbfbf" points="1254,-590.5 1316,-590.5 "/>
<text text-anchor="middle" x="1285" y="-578.5" font-family="Helvetica,sans-Serif" font-size="10.00"> </text>
<polyline fill="none" stroke="#bfbfbf" points="1254,-571.5 1316,-571.5 "/>
<text text-anchor="middle" x="1285" y="-559.5" font-family="Helvetica,sans-Serif" font-size="10.00"> </text>
</g>
<!-- Node2&#45;&gt;Node1 -->
<g id="edge1" class="edge"><title>Node2&#45;&gt;Node1</title>
<path fill="none" stroke="midnightblue" d="M1285,-542.063C1285,-533.393 1285,-524.243 1285,-515.786"/>
<polygon fill="none" stroke="midnightblue" points="1281.5,-542.321 1285,-552.321 1288.5,-542.321 1281.5,-542.321"/>
</g>
<!-- Node4 -->
<g id="node4" class="node"><title>Node4</title>
<g id="a_node4"><a xlink:href="classtvm_1_1FloatImm.html" target="_top" xlink:title="Managed reference class to FloatImmNode. ">
<polygon fill="white" stroke="black" points="0,-177 0,-256 150,-256 150,-177 0,-177"/>
<text text-anchor="middle" x="75" y="-244" font-family="Helvetica,sans-Serif" font-size="10.00">tvm::FloatImm</text>
<polyline fill="none" stroke="black" points="0,-237 150,-237 "/>
<text text-anchor="middle" x="75" y="-225" font-family="Helvetica,sans-Serif" font-size="10.00"> </text>
<polyline fill="none" stroke="black" points="0,-218 150,-218 "/>
<text text-anchor="start" x="8" y="-206" font-family="Helvetica,sans-Serif" font-size="10.00">+ FloatImm()</text>
<text text-anchor="start" x="8" y="-195" font-family="Helvetica,sans-Serif" font-size="10.00">+ TVM_DEFINE_OBJECT_REF</text>
<text text-anchor="start" x="8" y="-184" font-family="Helvetica,sans-Serif" font-size="10.00">_METHODS()</text>
</a>
</g>
</g>
<!-- Node3&#45;&gt;Node4 -->
<g id="edge3" class="edge"><title>Node3&#45;&gt;Node4</title>
<path fill="none" stroke="midnightblue" d="M409.852,-345.333C340.327,-332.279 240.588,-309.163 159,-273 148.453,-268.325 137.762,-262.372 127.701,-256.11"/>
<polygon fill="none" stroke="midnightblue" points="409.416,-348.812 419.885,-347.187 410.687,-341.928 409.416,-348.812"/>
</g>
<!-- Node5 -->
<g id="node5" class="node"><title>Node5</title>
<g id="a_node5"><a xlink:href="classtvm_1_1IntImm.html" target="_top" xlink:title="Managed reference class to IntImmNode. ">
<polygon fill="white" stroke="black" points="168,-177 168,-256 318,-256 318,-177 168,-177"/>
<text text-anchor="middle" x="243" y="-244" font-family="Helvetica,sans-Serif" font-size="10.00">tvm::IntImm</text>
<polyline fill="none" stroke="black" points="168,-237 318,-237 "/>
<text text-anchor="middle" x="243" y="-225" font-family="Helvetica,sans-Serif" font-size="10.00"> </text>
<polyline fill="none" stroke="black" points="168,-218 318,-218 "/>
<text text-anchor="start" x="176" y="-206" font-family="Helvetica,sans-Serif" font-size="10.00">+ IntImm()</text>
<text text-anchor="start" x="176" y="-195" font-family="Helvetica,sans-Serif" font-size="10.00">+ TVM_DEFINE_OBJECT_REF</text>
<text text-anchor="start" x="176" y="-184" font-family="Helvetica,sans-Serif" font-size="10.00">_METHODS()</text>
</a>
</g>
</g>
<!-- Node3&#45;&gt;Node5 -->
<g id="edge4" class="edge"><title>Node3&#45;&gt;Node5</title>
<path fill="none" stroke="midnightblue" d="M410.561,-318.074C383.526,-304.363 353.693,-288.586 327,-273 318.094,-267.8 308.832,-262.049 299.85,-256.277"/>
<polygon fill="none" stroke="midnightblue" points="409.109,-321.262 419.613,-322.642 412.262,-315.012 409.109,-321.262"/>
</g>
<!-- Node7 -->
<g id="node7" class="node"><title>Node7</title>
<g id="a_node7"><a xlink:href="classtvm_1_1tir_1_1BufferLoad.html" target="_top" xlink:title="{tvm::tir::BufferLoad\n||+ BufferLoad()\l+ TVM_DEFINE_OBJECT_REF\l_METHODS()\l}">
<polygon fill="white" stroke="black" points="336,-177 336,-256 486,-256 486,-177 336,-177"/>
<text text-anchor="middle" x="411" y="-244" font-family="Helvetica,sans-Serif" font-size="10.00">tvm::tir::BufferLoad</text>
<polyline fill="none" stroke="black" points="336,-237 486,-237 "/>
<text text-anchor="middle" x="411" y="-225" font-family="Helvetica,sans-Serif" font-size="10.00"> </text>
<polyline fill="none" stroke="black" points="336,-218 486,-218 "/>
<text text-anchor="start" x="344" y="-206" font-family="Helvetica,sans-Serif" font-size="10.00">+ BufferLoad()</text>
<text text-anchor="start" x="344" y="-195" font-family="Helvetica,sans-Serif" font-size="10.00">+ TVM_DEFINE_OBJECT_REF</text>
<text text-anchor="start" x="344" y="-184" font-family="Helvetica,sans-Serif" font-size="10.00">_METHODS()</text>
</a>
</g>
</g>
<!-- Node3&#45;&gt;Node7 -->
<g id="edge6" class="edge"><title>Node3&#45;&gt;Node7</title>
<path fill="none" stroke="midnightblue" d="M460.241,-300.447C451.397,-285.549 442.111,-269.907 434.017,-256.272"/>
<polygon fill="none" stroke="midnightblue" points="457.27,-302.3 465.385,-309.112 463.29,-298.727 457.27,-302.3"/>
</g>
<!-- Node8 -->
<g id="node8" class="node"><title>Node8</title>
<g id="a_node8"><a xlink:href="classtvm_1_1tir_1_1StringImm.html" target="_top" xlink:title="{tvm::tir::StringImm\n||+ TVM_DEFINE_OBJECT_REF\l_METHODS()\l}">
<polygon fill="white" stroke="black" points="504,-182.5 504,-250.5 654,-250.5 654,-182.5 504,-182.5"/>
<text text-anchor="middle" x="579" y="-238.5" font-family="Helvetica,sans-Serif" font-size="10.00">tvm::tir::StringImm</text>
<polyline fill="none" stroke="black" points="504,-231.5 654,-231.5 "/>
<text text-anchor="middle" x="579" y="-219.5" font-family="Helvetica,sans-Serif" font-size="10.00"> </text>
<polyline fill="none" stroke="black" points="504,-212.5 654,-212.5 "/>
<text text-anchor="start" x="512" y="-200.5" font-family="Helvetica,sans-Serif" font-size="10.00">+ TVM_DEFINE_OBJECT_REF</text>
<text text-anchor="start" x="512" y="-189.5" font-family="Helvetica,sans-Serif" font-size="10.00">_METHODS()</text>
</a>
</g>
</g>
<!-- Node3&#45;&gt;Node8 -->
<g id="edge7" class="edge"><title>Node3&#45;&gt;Node8</title>
<path fill="none" stroke="midnightblue" d="M529.825,-300.336C539.911,-283.346 550.567,-265.397 559.37,-250.567"/>
<polygon fill="none" stroke="midnightblue" points="526.71,-298.727 524.615,-309.112 532.73,-302.3 526.71,-298.727"/>
</g>
<!-- Node9 -->
<g id="node9" class="node"><title>Node9</title>
<g id="a_node9"><a xlink:href="classtvm_1_1tir_1_1Var.html" target="_top" xlink:title="a named variable in TVM ">
<polygon fill="white" stroke="black" points="672,-160.5 672,-272.5 784,-272.5 784,-160.5 672,-160.5"/>
<text text-anchor="middle" x="728" y="-260.5" font-family="Helvetica,sans-Serif" font-size="10.00">tvm::tir::Var</text>
<polyline fill="none" stroke="black" points="672,-253.5 784,-253.5 "/>
<text text-anchor="middle" x="728" y="-241.5" font-family="Helvetica,sans-Serif" font-size="10.00"> </text>
<polyline fill="none" stroke="black" points="672,-234.5 784,-234.5 "/>
<text text-anchor="start" x="680" y="-222.5" font-family="Helvetica,sans-Serif" font-size="10.00">+ Var()</text>
<text text-anchor="start" x="680" y="-211.5" font-family="Helvetica,sans-Serif" font-size="10.00">+ Var()</text>
<text text-anchor="start" x="680" y="-200.5" font-family="Helvetica,sans-Serif" font-size="10.00">+ Var()</text>
<text text-anchor="start" x="680" y="-189.5" font-family="Helvetica,sans-Serif" font-size="10.00">+ copy_with_suffix()</text>
<text text-anchor="start" x="680" y="-178.5" font-family="Helvetica,sans-Serif" font-size="10.00">+ operator&#45;&gt;()</text>
<text text-anchor="start" x="680" y="-167.5" font-family="Helvetica,sans-Serif" font-size="10.00">+ get()</text>
</a>
</g>
</g>
<!-- Node3&#45;&gt;Node9 -->
<g id="edge8" class="edge"><title>Node3&#45;&gt;Node9</title>
<path fill="none" stroke="midnightblue" d="M579.484,-320.581C606.9,-306.858 636.947,-290.441 663,-273 665.959,-271.019 668.935,-268.921 671.898,-266.747"/>
<polygon fill="none" stroke="midnightblue" points="577.706,-317.556 570.297,-325.129 580.812,-323.829 577.706,-317.556"/>
</g>
<!-- Node6 -->
<g id="node6" class="node"><title>Node6</title>
<g id="a_node6"><a xlink:href="classtvm_1_1Integer.html" target="_top" xlink:title="Container of constant int that adds more constructors. ">
<polygon fill="white" stroke="black" points="186.5,-0.5 186.5,-123.5 299.5,-123.5 299.5,-0.5 186.5,-0.5"/>
<text text-anchor="middle" x="243" y="-111.5" font-family="Helvetica,sans-Serif" font-size="10.00">tvm::Integer</text>
<polyline fill="none" stroke="black" points="186.5,-104.5 299.5,-104.5 "/>
<text text-anchor="middle" x="243" y="-92.5" font-family="Helvetica,sans-Serif" font-size="10.00"> </text>
<polyline fill="none" stroke="black" points="186.5,-85.5 299.5,-85.5 "/>
<text text-anchor="start" x="194.5" y="-73.5" font-family="Helvetica,sans-Serif" font-size="10.00">+ Integer()</text>
<text text-anchor="start" x="194.5" y="-62.5" font-family="Helvetica,sans-Serif" font-size="10.00">+ Integer()</text>
<text text-anchor="start" x="194.5" y="-51.5" font-family="Helvetica,sans-Serif" font-size="10.00">+ Integer()</text>
<text text-anchor="start" x="194.5" y="-40.5" font-family="Helvetica,sans-Serif" font-size="10.00">+ Integer()</text>
<text text-anchor="start" x="194.5" y="-29.5" font-family="Helvetica,sans-Serif" font-size="10.00">+ Integer()</text>
<text text-anchor="start" x="194.5" y="-18.5" font-family="Helvetica,sans-Serif" font-size="10.00">+ operator=()</text>
<text text-anchor="start" x="194.5" y="-7.5" font-family="Helvetica,sans-Serif" font-size="10.00">+ operator int64_t()</text>
</a>
</g>
</g>
<!-- Node5&#45;&gt;Node6 -->
<g id="edge5" class="edge"><title>Node5&#45;&gt;Node6</title>
<path fill="none" stroke="midnightblue" d="M243,-166.507C243,-152.892 243,-137.943 243,-123.743"/>
<polygon fill="none" stroke="midnightblue" points="239.5,-166.623 243,-176.623 246.5,-166.623 239.5,-166.623"/>
</g>
<!-- Node10 -->
<g id="node10" class="node"><title>Node10</title>
<g id="a_node10"><a xlink:href="classtvm_1_1tir_1_1SizeVar.html" target="_top" xlink:title="a named variable represents a tensor index size ">
<polygon fill="white" stroke="black" points="681.5,-17 681.5,-107 774.5,-107 774.5,-17 681.5,-17"/>
<text text-anchor="middle" x="728" y="-95" font-family="Helvetica,sans-Serif" font-size="10.00">tvm::tir::SizeVar</text>
<polyline fill="none" stroke="black" points="681.5,-88 774.5,-88 "/>
<text text-anchor="middle" x="728" y="-76" font-family="Helvetica,sans-Serif" font-size="10.00"> </text>
<polyline fill="none" stroke="black" points="681.5,-69 774.5,-69 "/>
<text text-anchor="start" x="689.5" y="-57" font-family="Helvetica,sans-Serif" font-size="10.00">+ SizeVar()</text>
<text text-anchor="start" x="689.5" y="-46" font-family="Helvetica,sans-Serif" font-size="10.00">+ SizeVar()</text>
<text text-anchor="start" x="689.5" y="-35" font-family="Helvetica,sans-Serif" font-size="10.00">+ operator&#45;&gt;()</text>
<text text-anchor="start" x="689.5" y="-24" font-family="Helvetica,sans-Serif" font-size="10.00">+ get()</text>
</a>
</g>
</g>
<!-- Node9&#45;&gt;Node10 -->
<g id="edge9" class="edge"><title>Node9&#45;&gt;Node10</title>
<path fill="none" stroke="midnightblue" d="M728,-150.093C728,-135.709 728,-120.799 728,-107.468"/>
<polygon fill="none" stroke="midnightblue" points="724.5,-150.444 728,-160.444 731.5,-150.444 724.5,-150.444"/>
</g>
<!-- Node12 -->
<g id="node12" class="node"><title>Node12</title>
<g id="a_node12"><a xlink:href="classtvm_1_1BaseFunc.html" target="_top" xlink:title="Managed reference to BaseFuncNode. ">
<polygon fill="white" stroke="black" points="802,-182.5 802,-250.5 952,-250.5 952,-182.5 802,-182.5"/>
<text text-anchor="middle" x="877" y="-238.5" font-family="Helvetica,sans-Serif" font-size="10.00">tvm::BaseFunc</text>
<polyline fill="none" stroke="black" points="802,-231.5 952,-231.5 "/>
<text text-anchor="middle" x="877" y="-219.5" font-family="Helvetica,sans-Serif" font-size="10.00"> </text>
<polyline fill="none" stroke="black" points="802,-212.5 952,-212.5 "/>
<text text-anchor="start" x="810" y="-200.5" font-family="Helvetica,sans-Serif" font-size="10.00">+ TVM_DEFINE_OBJECT_REF</text>
<text text-anchor="start" x="810" y="-189.5" font-family="Helvetica,sans-Serif" font-size="10.00">_METHODS()</text>
</a>
</g>
</g>
<!-- Node11&#45;&gt;Node12 -->
<g id="edge11" class="edge"><title>Node11&#45;&gt;Node12</title>
<path fill="none" stroke="midnightblue" d="M1905.4,-357.292C1690.83,-352.146 1134.8,-333.229 961,-273 946.136,-267.849 931.341,-259.46 918.404,-250.747"/>
<polygon fill="none" stroke="midnightblue" points="1905.58,-360.797 1915.66,-357.534 1905.75,-353.799 1905.58,-360.797"/>
</g>
<!-- Node15 -->
<g id="node15" class="node"><title>Node15</title>
<g id="a_node15"><a xlink:href="classtvm_1_1Constructor.html" target="_top" xlink:title="Managed reference to ConstructorNode. ">
<polygon fill="white" stroke="black" points="970,-177 970,-256 1120,-256 1120,-177 970,-177"/>
<text text-anchor="middle" x="1045" y="-244" font-family="Helvetica,sans-Serif" font-size="10.00">tvm::Constructor</text>
<polyline fill="none" stroke="black" points="970,-237 1120,-237 "/>
<text text-anchor="middle" x="1045" y="-225" font-family="Helvetica,sans-Serif" font-size="10.00"> </text>
<polyline fill="none" stroke="black" points="970,-218 1120,-218 "/>
<text text-anchor="start" x="978" y="-206" font-family="Helvetica,sans-Serif" font-size="10.00">+ Constructor()</text>
<text text-anchor="start" x="978" y="-195" font-family="Helvetica,sans-Serif" font-size="10.00">+ TVM_DEFINE_OBJECT_REF</text>
<text text-anchor="start" x="978" y="-184" font-family="Helvetica,sans-Serif" font-size="10.00">_METHODS()</text>
</a>
</g>
</g>
<!-- Node11&#45;&gt;Node15 -->
<g id="edge14" class="edge"><title>Node11&#45;&gt;Node15</title>
<path fill="none" stroke="midnightblue" d="M1905.84,-355.697C1717.43,-347.552 1270.75,-323.407 1129,-273 1117.31,-268.842 1105.64,-262.721 1094.88,-256.047"/>
<polygon fill="none" stroke="midnightblue" points="1905.83,-359.2 1915.97,-356.13 1906.13,-352.206 1905.83,-359.2"/>
</g>
<!-- Node16 -->
<g id="node16" class="node"><title>Node16</title>
<g id="a_node16"><a xlink:href="classtvm_1_1GlobalVar.html" target="_top" xlink:title="Managed reference to GlobalVarNode. ">
<polygon fill="white" stroke="black" points="1138,-177 1138,-256 1288,-256 1288,-177 1138,-177"/>
<text text-anchor="middle" x="1213" y="-244" font-family="Helvetica,sans-Serif" font-size="10.00">tvm::GlobalVar</text>
<polyline fill="none" stroke="black" points="1138,-237 1288,-237 "/>
<text text-anchor="middle" x="1213" y="-225" font-family="Helvetica,sans-Serif" font-size="10.00"> </text>
<polyline fill="none" stroke="black" points="1138,-218 1288,-218 "/>
<text text-anchor="start" x="1146" y="-206" font-family="Helvetica,sans-Serif" font-size="10.00">+ GlobalVar()</text>
<text text-anchor="start" x="1146" y="-195" font-family="Helvetica,sans-Serif" font-size="10.00">+ TVM_DEFINE_OBJECT_REF</text>
<text text-anchor="start" x="1146" y="-184" font-family="Helvetica,sans-Serif" font-size="10.00">_METHODS()</text>
</a>
</g>
</g>
<!-- Node11&#45;&gt;Node16 -->
<g id="edge15" class="edge"><title>Node11&#45;&gt;Node16</title>
<path fill="none" stroke="midnightblue" d="M1905.6,-353.311C1745.59,-341.85 1406.92,-313.57 1297,-273 1285.52,-268.763 1274.04,-262.694 1263.42,-256.111"/>
<polygon fill="none" stroke="midnightblue" points="1905.65,-356.824 1915.87,-354.042 1906.15,-349.841 1905.65,-356.824"/>
</g>
<!-- Node17 -->
<g id="node17" class="node"><title>Node17</title>
<g id="a_node17"><a xlink:href="classtvm_1_1Op.html" target="_top" xlink:title="Managed reference class to OpNode. ">
<polygon fill="white" stroke="black" points="1306,-160.5 1306,-272.5 1394,-272.5 1394,-160.5 1306,-160.5"/>
<text text-anchor="middle" x="1350" y="-260.5" font-family="Helvetica,sans-Serif" font-size="10.00">tvm::Op</text>
<polyline fill="none" stroke="black" points="1306,-253.5 1394,-253.5 "/>
<text text-anchor="middle" x="1350" y="-241.5" font-family="Helvetica,sans-Serif" font-size="10.00"> </text>
<polyline fill="none" stroke="black" points="1306,-234.5 1394,-234.5 "/>
<text text-anchor="start" x="1314" y="-222.5" font-family="Helvetica,sans-Serif" font-size="10.00">+ Op()</text>
<text text-anchor="start" x="1314" y="-211.5" font-family="Helvetica,sans-Serif" font-size="10.00">+ Op()</text>
<text text-anchor="start" x="1314" y="-200.5" font-family="Helvetica,sans-Serif" font-size="10.00">+ operator&#45;&gt;()</text>
<text text-anchor="start" x="1314" y="-189.5" font-family="Helvetica,sans-Serif" font-size="10.00">+ GetAttr()</text>
<text text-anchor="start" x="1314" y="-178.5" font-family="Helvetica,sans-Serif" font-size="10.00">+ HasAttr()</text>
<text text-anchor="start" x="1314" y="-167.5" font-family="Helvetica,sans-Serif" font-size="10.00">+ Get()</text>
</a>
</g>
</g>
<!-- Node11&#45;&gt;Node17 -->
<g id="edge16" class="edge"><title>Node11&#45;&gt;Node17</title>
<path fill="none" stroke="midnightblue" d="M1905.54,-353.347C1764.22,-342.873 1488.9,-317.376 1403,-273 1399.92,-271.41 1396.92,-269.571 1394.02,-267.549"/>
<polygon fill="none" stroke="midnightblue" points="1905.66,-356.865 1915.89,-354.105 1906.18,-349.884 1905.66,-356.865"/>
</g>
<!-- Node18 -->
<g id="node18" class="node"><title>Node18</title>
<g id="a_node18"><a xlink:href="classtvm_1_1relay_1_1Call.html" target="_top" xlink:title="{tvm::relay::Call\n||+ Call()\l+ TVM_DEFINE_OBJECT_REF\l_METHODS()\l}">
<polygon fill="white" stroke="black" points="1412,-177 1412,-256 1562,-256 1562,-177 1412,-177"/>
<text text-anchor="middle" x="1487" y="-244" font-family="Helvetica,sans-Serif" font-size="10.00">tvm::relay::Call</text>
<polyline fill="none" stroke="black" points="1412,-237 1562,-237 "/>
<text text-anchor="middle" x="1487" y="-225" font-family="Helvetica,sans-Serif" font-size="10.00"> </text>
<polyline fill="none" stroke="black" points="1412,-218 1562,-218 "/>
<text text-anchor="start" x="1420" y="-206" font-family="Helvetica,sans-Serif" font-size="10.00">+ Call()</text>
<text text-anchor="start" x="1420" y="-195" font-family="Helvetica,sans-Serif" font-size="10.00">+ TVM_DEFINE_OBJECT_REF</text>
<text text-anchor="start" x="1420" y="-184" font-family="Helvetica,sans-Serif" font-size="10.00">_METHODS()</text>
</a>
</g>
</g>
<!-- Node11&#45;&gt;Node18 -->
<g id="edge17" class="edge"><title>Node11&#45;&gt;Node18</title>
<path fill="none" stroke="midnightblue" d="M1905.56,-351.147C1818.66,-340.969 1681.45,-318.779 1571,-273 1560.18,-268.516 1549.27,-262.578 1539.06,-256.253"/>
<polygon fill="none" stroke="midnightblue" points="1905.31,-354.641 1915.64,-352.301 1906.1,-347.687 1905.31,-354.641"/>
</g>
<!-- Node19 -->
<g id="node19" class="node"><title>Node19</title>
<g id="a_node19"><a xlink:href="classtvm_1_1relay_1_1Constant.html" target="_top" xlink:title="{tvm::relay::Constant\n||+ Constant()\l+ TVM_DEFINE_OBJECT_REF\l_METHODS()\l}">
<polygon fill="white" stroke="black" points="1580,-177 1580,-256 1730,-256 1730,-177 1580,-177"/>
<text text-anchor="middle" x="1655" y="-244" font-family="Helvetica,sans-Serif" font-size="10.00">tvm::relay::Constant</text>
<polyline fill="none" stroke="black" points="1580,-237 1730,-237 "/>
<text text-anchor="middle" x="1655" y="-225" font-family="Helvetica,sans-Serif" font-size="10.00"> </text>
<polyline fill="none" stroke="black" points="1580,-218 1730,-218 "/>
<text text-anchor="start" x="1588" y="-206" font-family="Helvetica,sans-Serif" font-size="10.00">+ Constant()</text>
<text text-anchor="start" x="1588" y="-195" font-family="Helvetica,sans-Serif" font-size="10.00">+ TVM_DEFINE_OBJECT_REF</text>
<text text-anchor="start" x="1588" y="-184" font-family="Helvetica,sans-Serif" font-size="10.00">_METHODS()</text>
</a>
</g>
</g>
<!-- Node11&#45;&gt;Node19 -->
<g id="edge18" class="edge"><title>Node11&#45;&gt;Node19</title>
<path fill="none" stroke="midnightblue" d="M1906.16,-335.956C1856.24,-320.959 1792.59,-299.309 1739,-273 1728.96,-268.07 1718.69,-262.136 1708.93,-256.009"/>
<polygon fill="none" stroke="midnightblue" points="1905.37,-339.373 1915.96,-338.866 1907.37,-332.663 1905.37,-339.373"/>
</g>
<!-- Node20 -->
<g id="node20" class="node"><title>Node20</title>
<g id="a_node20"><a xlink:href="classtvm_1_1relay_1_1If.html" target="_top" xlink:title="{tvm::relay::If\n||+ If()\l+ TVM_DEFINE_OBJECT_REF\l_METHODS()\l}">
<polygon fill="white" stroke="black" points="1748,-177 1748,-256 1898,-256 1898,-177 1748,-177"/>
<text text-anchor="middle" x="1823" y="-244" font-family="Helvetica,sans-Serif" font-size="10.00">tvm::relay::If</text>
<polyline fill="none" stroke="black" points="1748,-237 1898,-237 "/>
<text text-anchor="middle" x="1823" y="-225" font-family="Helvetica,sans-Serif" font-size="10.00"> </text>
<polyline fill="none" stroke="black" points="1748,-218 1898,-218 "/>
<text text-anchor="start" x="1756" y="-206" font-family="Helvetica,sans-Serif" font-size="10.00">+ If()</text>
<text text-anchor="start" x="1756" y="-195" font-family="Helvetica,sans-Serif" font-size="10.00">+ TVM_DEFINE_OBJECT_REF</text>
<text text-anchor="start" x="1756" y="-184" font-family="Helvetica,sans-Serif" font-size="10.00">_METHODS()</text>
</a>
</g>
</g>
<!-- Node11&#45;&gt;Node20 -->
<g id="edge19" class="edge"><title>Node11&#45;&gt;Node20</title>
<path fill="none" stroke="midnightblue" d="M1943.87,-319.3C1920.44,-299.573 1892.25,-275.828 1868.99,-256.235"/>
<polygon fill="none" stroke="midnightblue" points="1941.71,-322.059 1951.61,-325.825 1946.22,-316.705 1941.71,-322.059"/>
</g>
<!-- Node21 -->
<g id="node21" class="node"><title>Node21</title>
<g id="a_node21"><a xlink:href="classtvm_1_1relay_1_1Let.html" target="_top" xlink:title="{tvm::relay::Let\n||+ Let()\l+ TVM_DEFINE_OBJECT_REF\l_METHODS()\l}">
<polygon fill="white" stroke="black" points="1916,-177 1916,-256 2066,-256 2066,-177 1916,-177"/>
<text text-anchor="middle" x="1991" y="-244" font-family="Helvetica,sans-Serif" font-size="10.00">tvm::relay::Let</text>
<polyline fill="none" stroke="black" points="1916,-237 2066,-237 "/>
<text text-anchor="middle" x="1991" y="-225" font-family="Helvetica,sans-Serif" font-size="10.00"> </text>
<polyline fill="none" stroke="black" points="1916,-218 2066,-218 "/>
<text text-anchor="start" x="1924" y="-206" font-family="Helvetica,sans-Serif" font-size="10.00">+ Let()</text>
<text text-anchor="start" x="1924" y="-195" font-family="Helvetica,sans-Serif" font-size="10.00">+ TVM_DEFINE_OBJECT_REF</text>
<text text-anchor="start" x="1924" y="-184" font-family="Helvetica,sans-Serif" font-size="10.00">_METHODS()</text>
</a>
</g>
</g>
<!-- Node11&#45;&gt;Node21 -->
<g id="edge20" class="edge"><title>Node11&#45;&gt;Node21</title>
<path fill="none" stroke="midnightblue" d="M1991,-315.655C1991,-296.698 1991,-274.636 1991,-256.235"/>
<polygon fill="none" stroke="midnightblue" points="1987.5,-315.825 1991,-325.825 1994.5,-315.825 1987.5,-315.825"/>
</g>
<!-- Node22 -->
<g id="node22" class="node"><title>Node22</title>
<g id="a_node22"><a xlink:href="classtvm_1_1relay_1_1Match.html" target="_top" xlink:title="{tvm::relay::Match\n||+ Match()\l+ TVM_DEFINE_OBJECT_REF\l_METHODS()\l}">
<polygon fill="white" stroke="black" points="2084,-177 2084,-256 2234,-256 2234,-177 2084,-177"/>
<text text-anchor="middle" x="2159" y="-244" font-family="Helvetica,sans-Serif" font-size="10.00">tvm::relay::Match</text>
<polyline fill="none" stroke="black" points="2084,-237 2234,-237 "/>
<text text-anchor="middle" x="2159" y="-225" font-family="Helvetica,sans-Serif" font-size="10.00"> </text>
<polyline fill="none" stroke="black" points="2084,-218 2234,-218 "/>
<text text-anchor="start" x="2092" y="-206" font-family="Helvetica,sans-Serif" font-size="10.00">+ Match()</text>
<text text-anchor="start" x="2092" y="-195" font-family="Helvetica,sans-Serif" font-size="10.00">+ TVM_DEFINE_OBJECT_REF</text>
<text text-anchor="start" x="2092" y="-184" font-family="Helvetica,sans-Serif" font-size="10.00">_METHODS()</text>
</a>
</g>
</g>
<!-- Node11&#45;&gt;Node22 -->
<g id="edge21" class="edge"><title>Node11&#45;&gt;Node22</title>
<path fill="none" stroke="midnightblue" d="M2038.13,-319.3C2061.56,-299.573 2089.75,-275.828 2113.01,-256.235"/>
<polygon fill="none" stroke="midnightblue" points="2035.78,-316.705 2030.39,-325.825 2040.29,-322.059 2035.78,-316.705"/>
</g>
<!-- Node23 -->
<g id="node23" class="node"><title>Node23</title>
<g id="a_node23"><a xlink:href="classtvm_1_1relay_1_1RefCreate.html" target="_top" xlink:title="{tvm::relay::RefCreate\n||+ RefCreate()\l+ TVM_DEFINE_OBJECT_REF\l_METHODS()\l}">
<polygon fill="white" stroke="black" points="2252,-177 2252,-256 2402,-256 2402,-177 2252,-177"/>
<text text-anchor="middle" x="2327" y="-244" font-family="Helvetica,sans-Serif" font-size="10.00">tvm::relay::RefCreate</text>
<polyline fill="none" stroke="black" points="2252,-237 2402,-237 "/>
<text text-anchor="middle" x="2327" y="-225" font-family="Helvetica,sans-Serif" font-size="10.00"> </text>
<polyline fill="none" stroke="black" points="2252,-218 2402,-218 "/>
<text text-anchor="start" x="2260" y="-206" font-family="Helvetica,sans-Serif" font-size="10.00">+ RefCreate()</text>
<text text-anchor="start" x="2260" y="-195" font-family="Helvetica,sans-Serif" font-size="10.00">+ TVM_DEFINE_OBJECT_REF</text>
<text text-anchor="start" x="2260" y="-184" font-family="Helvetica,sans-Serif" font-size="10.00">_METHODS()</text>
</a>
</g>
</g>
<!-- Node11&#45;&gt;Node23 -->
<g id="edge22" class="edge"><title>Node11&#45;&gt;Node23</title>
<path fill="none" stroke="midnightblue" d="M2075.84,-335.956C2125.76,-320.959 2189.41,-299.309 2243,-273 2253.04,-268.07 2263.31,-262.136 2273.07,-256.009"/>
<polygon fill="none" stroke="midnightblue" points="2074.63,-332.663 2066.04,-338.866 2076.63,-339.373 2074.63,-332.663"/>
</g>
<!-- Node24 -->
<g id="node24" class="node"><title>Node24</title>
<g id="a_node24"><a xlink:href="classtvm_1_1relay_1_1RefRead.html" target="_top" xlink:title="{tvm::relay::RefRead\n||+ RefRead()\l+ TVM_DEFINE_OBJECT_REF\l_METHODS()\l}">
<polygon fill="white" stroke="black" points="2420,-177 2420,-256 2570,-256 2570,-177 2420,-177"/>
<text text-anchor="middle" x="2495" y="-244" font-family="Helvetica,sans-Serif" font-size="10.00">tvm::relay::RefRead</text>
<polyline fill="none" stroke="black" points="2420,-237 2570,-237 "/>
<text text-anchor="middle" x="2495" y="-225" font-family="Helvetica,sans-Serif" font-size="10.00"> </text>
<polyline fill="none" stroke="black" points="2420,-218 2570,-218 "/>
<text text-anchor="start" x="2428" y="-206" font-family="Helvetica,sans-Serif" font-size="10.00">+ RefRead()</text>
<text text-anchor="start" x="2428" y="-195" font-family="Helvetica,sans-Serif" font-size="10.00">+ TVM_DEFINE_OBJECT_REF</text>
<text text-anchor="start" x="2428" y="-184" font-family="Helvetica,sans-Serif" font-size="10.00">_METHODS()</text>
</a>
</g>
</g>
<!-- Node11&#45;&gt;Node24 -->
<g id="edge23" class="edge"><title>Node11&#45;&gt;Node24</title>
<path fill="none" stroke="midnightblue" d="M2076.44,-351.147C2163.34,-340.969 2300.55,-318.779 2411,-273 2421.82,-268.516 2432.73,-262.578 2442.94,-256.253"/>
<polygon fill="none" stroke="midnightblue" points="2075.9,-347.687 2066.36,-352.301 2076.69,-354.641 2075.9,-347.687"/>
</g>
<!-- Node25 -->
<g id="node25" class="node"><title>Node25</title>
<g id="a_node25"><a xlink:href="classtvm_1_1relay_1_1RefWrite.html" target="_top" xlink:title="{tvm::relay::RefWrite\n||+ RefWrite()\l+ TVM_DEFINE_OBJECT_REF\l_METHODS()\l}">
<polygon fill="white" stroke="black" points="2588,-177 2588,-256 2738,-256 2738,-177 2588,-177"/>
<text text-anchor="middle" x="2663" y="-244" font-family="Helvetica,sans-Serif" font-size="10.00">tvm::relay::RefWrite</text>
<polyline fill="none" stroke="black" points="2588,-237 2738,-237 "/>
<text text-anchor="middle" x="2663" y="-225" font-family="Helvetica,sans-Serif" font-size="10.00"> </text>
<polyline fill="none" stroke="black" points="2588,-218 2738,-218 "/>
<text text-anchor="start" x="2596" y="-206" font-family="Helvetica,sans-Serif" font-size="10.00">+ RefWrite()</text>
<text text-anchor="start" x="2596" y="-195" font-family="Helvetica,sans-Serif" font-size="10.00">+ TVM_DEFINE_OBJECT_REF</text>
<text text-anchor="start" x="2596" y="-184" font-family="Helvetica,sans-Serif" font-size="10.00">_METHODS()</text>
</a>
</g>
</g>
<!-- Node11&#45;&gt;Node25 -->
<g id="edge24" class="edge"><title>Node11&#45;&gt;Node25</title>
<path fill="none" stroke="midnightblue" d="M2076.34,-358.064C2193.42,-354.233 2408.71,-337.983 2579,-273 2590.27,-268.7 2601.56,-262.686 2612.05,-256.195"/>
<polygon fill="none" stroke="midnightblue" points="2075.9,-354.575 2066.02,-358.378 2076.12,-361.572 2075.9,-354.575"/>
</g>
<!-- Node26 -->
<g id="node26" class="node"><title>Node26</title>
<g id="a_node26"><a xlink:href="classtvm_1_1relay_1_1TempExpr.html" target="_top" xlink:title="{tvm::relay::TempExpr\n||+ TVM_DEFINE_OBJECT_REF\l_METHODS()\l}">
<polygon fill="white" stroke="black" points="2756,-182.5 2756,-250.5 2906,-250.5 2906,-182.5 2756,-182.5"/>
<text text-anchor="middle" x="2831" y="-238.5" font-family="Helvetica,sans-Serif" font-size="10.00">tvm::relay::TempExpr</text>
<polyline fill="none" stroke="black" points="2756,-231.5 2906,-231.5 "/>
<text text-anchor="middle" x="2831" y="-219.5" font-family="Helvetica,sans-Serif" font-size="10.00"> </text>
<polyline fill="none" stroke="black" points="2756,-212.5 2906,-212.5 "/>
<text text-anchor="start" x="2764" y="-200.5" font-family="Helvetica,sans-Serif" font-size="10.00">+ TVM_DEFINE_OBJECT_REF</text>
<text text-anchor="start" x="2764" y="-189.5" font-family="Helvetica,sans-Serif" font-size="10.00">_METHODS()</text>
</a>
</g>
</g>
<!-- Node11&#45;&gt;Node26 -->
<g id="edge25" class="edge"><title>Node11&#45;&gt;Node26</title>
<path fill="none" stroke="midnightblue" d="M2076.4,-354.309C2247.3,-344.103 2625.41,-317.187 2747,-273 2761.62,-267.687 2776.23,-259.36 2789.06,-250.757"/>
<polygon fill="none" stroke="midnightblue" points="2075.96,-350.828 2066.19,-354.913 2076.38,-357.816 2075.96,-350.828"/>
</g>
<!-- Node27 -->
<g id="node27" class="node"><title>Node27</title>
<g id="a_node27"><a xlink:href="classtvm_1_1relay_1_1Tuple.html" target="_top" xlink:title="{tvm::relay::Tuple\n||+ Tuple()\l+ TVM_DEFINE_OBJECT_REF\l_METHODS()\l}">
<polygon fill="white" stroke="black" points="2924,-177 2924,-256 3074,-256 3074,-177 2924,-177"/>
<text text-anchor="middle" x="2999" y="-244" font-family="Helvetica,sans-Serif" font-size="10.00">tvm::relay::Tuple</text>
<polyline fill="none" stroke="black" points="2924,-237 3074,-237 "/>
<text text-anchor="middle" x="2999" y="-225" font-family="Helvetica,sans-Serif" font-size="10.00"> </text>
<polyline fill="none" stroke="black" points="2924,-218 3074,-218 "/>
<text text-anchor="start" x="2932" y="-206" font-family="Helvetica,sans-Serif" font-size="10.00">+ Tuple()</text>
<text text-anchor="start" x="2932" y="-195" font-family="Helvetica,sans-Serif" font-size="10.00">+ TVM_DEFINE_OBJECT_REF</text>
<text text-anchor="start" x="2932" y="-184" font-family="Helvetica,sans-Serif" font-size="10.00">_METHODS()</text>
</a>
</g>
</g>
<!-- Node11&#45;&gt;Node27 -->
<g id="edge26" class="edge"><title>Node11&#45;&gt;Node27</title>
<path fill="none" stroke="midnightblue" d="M2076.18,-356.356C2274.41,-349.355 2761.42,-327.04 2915,-273 2926.71,-268.881 2938.38,-262.777 2949.14,-256.107"/>
<polygon fill="none" stroke="midnightblue" points="2075.98,-352.861 2066.1,-356.707 2076.22,-359.856 2075.98,-352.861"/>
</g>
<!-- Node28 -->
<g id="node28" class="node"><title>Node28</title>
<g id="a_node28"><a xlink:href="classtvm_1_1relay_1_1TupleGetItem.html" target="_top" xlink:title="{tvm::relay::TupleGetItem\n||+ TupleGetItem()\l+ TVM_DEFINE_OBJECT_REF\l_METHODS()\l}">
<polygon fill="white" stroke="black" points="3092,-177 3092,-256 3242,-256 3242,-177 3092,-177"/>
<text text-anchor="middle" x="3167" y="-244" font-family="Helvetica,sans-Serif" font-size="10.00">tvm::relay::TupleGetItem</text>
<polyline fill="none" stroke="black" points="3092,-237 3242,-237 "/>
<text text-anchor="middle" x="3167" y="-225" font-family="Helvetica,sans-Serif" font-size="10.00"> </text>
<polyline fill="none" stroke="black" points="3092,-218 3242,-218 "/>
<text text-anchor="start" x="3100" y="-206" font-family="Helvetica,sans-Serif" font-size="10.00">+ TupleGetItem()</text>
<text text-anchor="start" x="3100" y="-195" font-family="Helvetica,sans-Serif" font-size="10.00">+ TVM_DEFINE_OBJECT_REF</text>
<text text-anchor="start" x="3100" y="-184" font-family="Helvetica,sans-Serif" font-size="10.00">_METHODS()</text>
</a>
</g>
</g>
<!-- Node11&#45;&gt;Node28 -->
<g id="edge27" class="edge"><title>Node11&#45;&gt;Node28</title>
<path fill="none" stroke="midnightblue" d="M2076.22,-357.771C2299.52,-353.684 2897.14,-336.916 3083,-273 3094.74,-268.964 3106.42,-262.898 3117.19,-256.238"/>
<polygon fill="none" stroke="midnightblue" points="2076.13,-354.272 2066.2,-357.951 2076.26,-361.271 2076.13,-354.272"/>
</g>
<!-- Node29 -->
<g id="node29" class="node"><title>Node29</title>
<g id="a_node29"><a xlink:href="classtvm_1_1relay_1_1Var.html" target="_top" xlink:title="{tvm::relay::Var\n||+ Var()\l+ Var()\l+ TVM_DEFINE_OBJECT_REF\l_METHODS()\l}">
<polygon fill="white" stroke="black" points="3260,-171.5 3260,-261.5 3410,-261.5 3410,-171.5 3260,-171.5"/>
<text text-anchor="middle" x="3335" y="-249.5" font-family="Helvetica,sans-Serif" font-size="10.00">tvm::relay::Var</text>
<polyline fill="none" stroke="black" points="3260,-242.5 3410,-242.5 "/>
<text text-anchor="middle" x="3335" y="-230.5" font-family="Helvetica,sans-Serif" font-size="10.00"> </text>
<polyline fill="none" stroke="black" points="3260,-223.5 3410,-223.5 "/>
<text text-anchor="start" x="3268" y="-211.5" font-family="Helvetica,sans-Serif" font-size="10.00">+ Var()</text>
<text text-anchor="start" x="3268" y="-200.5" font-family="Helvetica,sans-Serif" font-size="10.00">+ Var()</text>
<text text-anchor="start" x="3268" y="-189.5" font-family="Helvetica,sans-Serif" font-size="10.00">+ TVM_DEFINE_OBJECT_REF</text>
<text text-anchor="start" x="3268" y="-178.5" font-family="Helvetica,sans-Serif" font-size="10.00">_METHODS()</text>
</a>
</g>
</g>
<!-- Node11&#45;&gt;Node29 -->
<g id="edge28" class="edge"><title>Node11&#45;&gt;Node29</title>
<path fill="none" stroke="midnightblue" d="M2076.49,-358.814C2323.2,-357.391 3032.67,-346.813 3251,-273 3259.61,-270.089 3268.19,-266.071 3276.39,-261.515"/>
<polygon fill="none" stroke="midnightblue" points="2076.13,-355.316 2066.15,-358.87 2076.17,-362.316 2076.13,-355.316"/>
</g>
<!-- Node13 -->
<g id="node13" class="node"><title>Node13</title>
<g id="a_node13"><a xlink:href="classtvm_1_1relay_1_1Function.html" target="_top" xlink:title="Managed reference to FunctionNode. ">
<polygon fill="white" stroke="black" points="797,-11.5 797,-112.5 947,-112.5 947,-11.5 797,-11.5"/>
<text text-anchor="middle" x="872" y="-100.5" font-family="Helvetica,sans-Serif" font-size="10.00">tvm::relay::Function</text>
<polyline fill="none" stroke="black" points="797,-93.5 947,-93.5 "/>
<text text-anchor="middle" x="872" y="-81.5" font-family="Helvetica,sans-Serif" font-size="10.00"> </text>
<polyline fill="none" stroke="black" points="797,-74.5 947,-74.5 "/>
<text text-anchor="start" x="805" y="-62.5" font-family="Helvetica,sans-Serif" font-size="10.00">+ Function()</text>
<text text-anchor="start" x="805" y="-51.5" font-family="Helvetica,sans-Serif" font-size="10.00">+ TVM_DEFINE_OBJECT_REF</text>
<text text-anchor="start" x="805" y="-40.5" font-family="Helvetica,sans-Serif" font-size="10.00">_METHODS()</text>
<text text-anchor="start" x="805" y="-29.5" font-family="Helvetica,sans-Serif" font-size="10.00">+ TVM_DEFINE_OBJECT_REF</text>
<text text-anchor="start" x="805" y="-18.5" font-family="Helvetica,sans-Serif" font-size="10.00">_COW_METHOD()</text>
</a>
</g>
</g>
<!-- Node12&#45;&gt;Node13 -->
<g id="edge12" class="edge"><title>Node12&#45;&gt;Node13</title>
<path fill="none" stroke="midnightblue" d="M875.579,-172.17C874.97,-153.585 874.255,-131.77 873.624,-112.547"/>
<polygon fill="none" stroke="midnightblue" points="872.089,-172.53 875.915,-182.41 879.085,-172.3 872.089,-172.53"/>
</g>
<!-- Node14 -->
<g id="node14" class="node"><title>Node14</title>
<g id="a_node14"><a xlink:href="classtvm_1_1tir_1_1PrimFunc.html" target="_top" xlink:title="Managed reference to PrimFuncNode. ">
<polygon fill="white" stroke="black" points="965,-11.5 965,-112.5 1115,-112.5 1115,-11.5 965,-11.5"/>
<text text-anchor="middle" x="1040" y="-100.5" font-family="Helvetica,sans-Serif" font-size="10.00">tvm::tir::PrimFunc</text>
<polyline fill="none" stroke="black" points="965,-93.5 1115,-93.5 "/>
<text text-anchor="middle" x="1040" y="-81.5" font-family="Helvetica,sans-Serif" font-size="10.00"> </text>
<polyline fill="none" stroke="black" points="965,-74.5 1115,-74.5 "/>
<text text-anchor="start" x="973" y="-62.5" font-family="Helvetica,sans-Serif" font-size="10.00">+ PrimFunc()</text>
<text text-anchor="start" x="973" y="-51.5" font-family="Helvetica,sans-Serif" font-size="10.00">+ TVM_DEFINE_OBJECT_REF</text>
<text text-anchor="start" x="973" y="-40.5" font-family="Helvetica,sans-Serif" font-size="10.00">_METHODS()</text>
<text text-anchor="start" x="973" y="-29.5" font-family="Helvetica,sans-Serif" font-size="10.00">+ TVM_DEFINE_OBJECT_REF</text>
<text text-anchor="start" x="973" y="-18.5" font-family="Helvetica,sans-Serif" font-size="10.00">_COW_METHOD()</text>
</a>
</g>
</g>
<!-- Node12&#45;&gt;Node14 -->
<g id="edge13" class="edge"><title>Node12&#45;&gt;Node14</title>
<path fill="none" stroke="midnightblue" d="M919.749,-175.505C940.349,-156.232 965.253,-132.932 987.042,-112.547"/>
<polygon fill="none" stroke="midnightblue" points="917.28,-173.022 912.369,-182.41 922.062,-178.134 917.28,-173.022"/>
</g>
</g>
</svg>
