<?xml version="1.0" encoding="UTF-8" standalone="no"?>
<!DOCTYPE svg PUBLIC "-//W3C//DTD SVG 1.1//EN"
 "http://www.w3.org/Graphics/SVG/1.1/DTD/svg11.dtd">
<!-- Generated by graphviz version 2.38.0 (20140413.2041)
 -->
<!-- Title: topi/include/topi/detail/constant_utils.h Pages: 1 -->
<svg width="3229pt" height="1192pt"
 viewBox="0.00 0.00 3228.89 1192.00" xmlns="http://www.w3.org/2000/svg" xmlns:xlink="http://www.w3.org/1999/xlink">
<g id="graph0" class="graph" transform="scale(1 1) rotate(0) translate(4 1188)">
<title>topi/include/topi/detail/constant_utils.h</title>
<polygon fill="white" stroke="none" points="-4,4 -4,-1188 3224.89,-1188 3224.89,4 -4,4"/>
<!-- Node1 -->
<g id="node1" class="node"><title>Node1</title>
<polygon fill="#bfbfbf" stroke="black" points="312,-1153.5 312,-1183.5 434,-1183.5 434,-1153.5 312,-1153.5"/>
<text text-anchor="start" x="320" y="-1171.5" font-family="Helvetica,sans-Serif" font-size="10.00">topi/include/topi/detail</text>
<text text-anchor="middle" x="373" y="-1160.5" font-family="Helvetica,sans-Serif" font-size="10.00">/constant_utils.h</text>
</g>
<!-- Node2 -->
<g id="node2" class="node"><title>Node2</title>
<g id="a_node2"><a xlink:href="tir_2expr_8h.html" target="_top" xlink:title="TIR expressions. ">
<polygon fill="white" stroke="black" points="931,-873.5 931,-892.5 1011,-892.5 1011,-873.5 931,-873.5"/>
<text text-anchor="middle" x="971" y="-880.5" font-family="Helvetica,sans-Serif" font-size="10.00">tvm/tir/expr.h</text>
</a>
</g>
</g>
<!-- Node1&#45;&gt;Node2 -->
<g id="edge1" class="edge"><title>Node1&#45;&gt;Node2</title>
<path fill="none" stroke="midnightblue" d="M434.145,-1165.79C706.516,-1157.78 1796,-1121.4 1796,-1052 1796,-1052 1796,-1052 1796,-994 1796,-915.415 1200.26,-890.956 1021.26,-885.381"/>
<polygon fill="midnightblue" stroke="midnightblue" points="1021.17,-881.877 1011.07,-885.07 1020.96,-888.874 1021.17,-881.877"/>
</g>
<!-- Node13 -->
<g id="node13" class="node"><title>Node13</title>
<polygon fill="white" stroke="#bfbfbf" points="434,-62 434,-81 478,-81 478,-62 434,-62"/>
<text text-anchor="middle" x="456" y="-69" font-family="Helvetica,sans-Serif" font-size="10.00">string</text>
</g>
<!-- Node1&#45;&gt;Node13 -->
<g id="edge194" class="edge"><title>Node1&#45;&gt;Node13</title>
<path fill="none" stroke="midnightblue" d="M311.824,-1161.32C206.005,-1148.91 0,-1116.49 0,-1052 0,-1052 0,-1052 0,-188 0,-150.157 21.7336,-141.04 55,-123 118.597,-88.5115 339.927,-76.8179 423.613,-73.5739"/>
<polygon fill="midnightblue" stroke="midnightblue" points="423.936,-77.0644 433.799,-73.1948 423.676,-70.0692 423.936,-77.0644"/>
</g>
<!-- Node19 -->
<g id="node19" class="node"><title>Node19</title>
<polygon fill="white" stroke="#bfbfbf" points="1052.5,-123.5 1052.5,-142.5 1099.5,-142.5 1099.5,-123.5 1052.5,-123.5"/>
<text text-anchor="middle" x="1076" y="-130.5" font-family="Helvetica,sans-Serif" font-size="10.00">vector</text>
</g>
<!-- Node1&#45;&gt;Node19 -->
<g id="edge195" class="edge"><title>Node1&#45;&gt;Node19</title>
<path fill="none" stroke="midnightblue" d="M311.949,-1166.03C235.377,-1160.56 114,-1138.28 114,-1052 114,-1052 114,-1052 114,-882 114,-493.135 352.479,-403.376 703,-235 768.272,-203.646 786.335,-198.755 856,-179 920.968,-160.577 998.74,-146.483 1042.24,-139.294"/>
<polygon fill="midnightblue" stroke="midnightblue" points="1042.97,-142.721 1052.28,-137.658 1041.85,-135.813 1042.97,-142.721"/>
</g>
<!-- Node39 -->
<g id="node39" class="node"><title>Node39</title>
<g id="a_node39"><a xlink:href="ir__pass_8h.html" target="_top" xlink:title="Collection of IR pass functions. ">
<polygon fill="white" stroke="black" points="326,-1097.5 326,-1116.5 420,-1116.5 420,-1097.5 326,-1097.5"/>
<text text-anchor="middle" x="373" y="-1104.5" font-family="Helvetica,sans-Serif" font-size="10.00">tvm/tir/ir_pass.h</text>
</a>
</g>
</g>
<!-- Node1&#45;&gt;Node39 -->
<g id="edge135" class="edge"><title>Node1&#45;&gt;Node39</title>
<path fill="none" stroke="midnightblue" d="M373,-1153.4C373,-1145.47 373,-1135.46 373,-1126.86"/>
<polygon fill="midnightblue" stroke="midnightblue" points="376.5,-1126.66 373,-1116.66 369.5,-1126.66 376.5,-1126.66"/>
</g>
<!-- Node48 -->
<g id="node48" class="node"><title>Node48</title>
<g id="a_node48"><a xlink:href="tir_2analysis_8h.html" target="_top" xlink:title="Analysis utilitie and passes for TIR. ">
<polygon fill="white" stroke="black" points="1824,-1041.5 1824,-1060.5 1922,-1060.5 1922,-1041.5 1824,-1041.5"/>
<text text-anchor="middle" x="1873" y="-1048.5" font-family="Helvetica,sans-Serif" font-size="10.00">tvm/tir/analysis.h</text>
</a>
</g>
</g>
<!-- Node1&#45;&gt;Node48 -->
<g id="edge175" class="edge"><title>Node1&#45;&gt;Node48</title>
<path fill="none" stroke="midnightblue" d="M434.411,-1166.62C700.863,-1162.64 1746.34,-1145.28 1810,-1117 1832.57,-1106.97 1851.17,-1084.76 1862.17,-1069.1"/>
<polygon fill="midnightblue" stroke="midnightblue" points="1865.09,-1071.04 1867.74,-1060.78 1859.27,-1067.15 1865.09,-1071.04"/>
</g>
<!-- Node3 -->
<g id="node3" class="node"><title>Node3</title>
<g id="a_node3"><a xlink:href="node_8h.html" target="_top" xlink:title="Definitions and helper macros for IR/AST nodes. ">
<polygon fill="white" stroke="black" points="1666,-537.5 1666,-556.5 1764,-556.5 1764,-537.5 1666,-537.5"/>
<text text-anchor="middle" x="1715" y="-544.5" font-family="Helvetica,sans-Serif" font-size="10.00">tvm/node/node.h</text>
</a>
</g>
</g>
<!-- Node2&#45;&gt;Node3 -->
<g id="edge2" class="edge"><title>Node2&#45;&gt;Node3</title>
<path fill="none" stroke="midnightblue" d="M1011.24,-880.013C1160.92,-872.096 1677,-839.878 1677,-772 1677,-772 1677,-772 1677,-658 1677,-623.813 1693.6,-586.764 1704.86,-565.571"/>
<polygon fill="midnightblue" stroke="midnightblue" points="1707.95,-567.215 1709.72,-556.769 1701.82,-563.832 1707.95,-567.215"/>
</g>
<!-- Node4 -->
<g id="node4" class="node"><title>Node4</title>
<g id="a_node4"><a xlink:href="c__runtime__api_8h.html" target="_top" xlink:title="tvm/runtime/c_runtime\l_api.h">
<polygon fill="white" stroke="black" points="1173.5,-56.5 1173.5,-86.5 1300.5,-86.5 1300.5,-56.5 1173.5,-56.5"/>
<text text-anchor="start" x="1181.5" y="-74.5" font-family="Helvetica,sans-Serif" font-size="10.00">tvm/runtime/c_runtime</text>
<text text-anchor="middle" x="1237" y="-63.5" font-family="Helvetica,sans-Serif" font-size="10.00">_api.h</text>
</a>
</g>
</g>
<!-- Node2&#45;&gt;Node4 -->
<g id="edge98" class="edge"><title>Node2&#45;&gt;Node4</title>
<path fill="none" stroke="midnightblue" d="M930.791,-874.368C893.665,-866.769 837.287,-853.821 790,-837 632.259,-780.889 494,-771.423 494,-604 494,-604 494,-604 494,-546 494,-461.973 476.261,-433.075 514,-358 566.69,-253.181 604.023,-233.333 708,-179 857.007,-101.137 1057.07,-80.104 1163.37,-74.487"/>
<polygon fill="midnightblue" stroke="midnightblue" points="1163.55,-77.9827 1173.36,-73.9902 1163.2,-70.9913 1163.55,-77.9827"/>
</g>
<!-- Node2&#45;&gt;Node13 -->
<g id="edge129" class="edge"><title>Node2&#45;&gt;Node13</title>
<path fill="none" stroke="midnightblue" d="M930.743,-880.138C845.549,-875.735 649.857,-863.039 589,-837 366.855,-741.951 228,-672.125 228,-430.5 228,-430.5 228,-430.5 228,-188 228,-101.382 360.57,-79.7038 423.534,-74.2927"/>
<polygon fill="midnightblue" stroke="midnightblue" points="424.022,-77.7655 433.723,-73.5074 423.484,-70.7862 424.022,-77.7655"/>
</g>
<!-- Node14 -->
<g id="node14" class="node"><title>Node14</title>
<polygon fill="white" stroke="#bfbfbf" points="2871,-62 2871,-81 2913,-81 2913,-62 2871,-62"/>
<text text-anchor="middle" x="2892" y="-69" font-family="Helvetica,sans-Serif" font-size="10.00">utility</text>
</g>
<!-- Node2&#45;&gt;Node14 -->
<g id="edge134" class="edge"><title>Node2&#45;&gt;Node14</title>
<path fill="none" stroke="midnightblue" d="M1011.43,-881.935C1292.99,-881.224 2950,-872.759 2950,-772 2950,-772 2950,-772 2950,-714 2950,-619.786 3022.21,-392.021 3050,-302 3074.75,-221.829 3162.21,-188.685 3110,-123 3087,-94.0602 2977.72,-80.2395 2923.15,-75.0523"/>
<polygon fill="midnightblue" stroke="midnightblue" points="2923.28,-71.5501 2913.01,-74.128 2922.65,-78.5212 2923.28,-71.5501"/>
</g>
<!-- Node20 -->
<g id="node20" class="node"><title>Node20</title>
<g id="a_node20"><a xlink:href="data__type_8h.html" target="_top" xlink:title="tvm/runtime/data_type.h">
<polygon fill="white" stroke="black" points="1169,-179.5 1169,-198.5 1305,-198.5 1305,-179.5 1169,-179.5"/>
<text text-anchor="middle" x="1237" y="-186.5" font-family="Helvetica,sans-Serif" font-size="10.00">tvm/runtime/data_type.h</text>
</a>
</g>
</g>
<!-- Node2&#45;&gt;Node20 -->
<g id="edge99" class="edge"><title>Node2&#45;&gt;Node20</title>
<path fill="none" stroke="midnightblue" d="M930.836,-877.008C905.917,-871.606 875.742,-860.368 860,-837 799.412,-747.06 828.149,-696.662 860,-593 868.834,-564.248 878.034,-559.495 898,-537 1019.92,-399.632 1106.52,-417.748 1210,-266 1222.05,-248.329 1229.33,-224.688 1233.25,-208.492"/>
<polygon fill="midnightblue" stroke="midnightblue" points="1236.69,-209.156 1235.44,-198.635 1229.85,-207.638 1236.69,-209.156"/>
</g>
<!-- Node22 -->
<g id="node22" class="node"><title>Node22</title>
<polygon fill="white" stroke="#bfbfbf" points="1889,-179.5 1889,-198.5 1931,-198.5 1931,-179.5 1889,-179.5"/>
<text text-anchor="middle" x="1910" y="-186.5" font-family="Helvetica,sans-Serif" font-size="10.00">limits</text>
</g>
<!-- Node2&#45;&gt;Node22 -->
<g id="edge133" class="edge"><title>Node2&#45;&gt;Node22</title>
<path fill="none" stroke="midnightblue" d="M954.982,-873.482C927.432,-857.537 874,-820.377 874,-772 874,-772 874,-772 874,-658 874,-373.747 1237.43,-623.356 1494,-501 1582.98,-458.566 1823.43,-261.749 1891.7,-205.22"/>
<polygon fill="midnightblue" stroke="midnightblue" points="1894.03,-207.837 1899.49,-198.759 1889.56,-202.449 1894.03,-207.837"/>
</g>
<!-- Node27 -->
<g id="node27" class="node"><title>Node27</title>
<g id="a_node27"><a xlink:href="functor_8h.html" target="_top" xlink:title="Defines the Functor data structures. ">
<polygon fill="white" stroke="black" points="2433.5,-179.5 2433.5,-198.5 2540.5,-198.5 2540.5,-179.5 2433.5,-179.5"/>
<text text-anchor="middle" x="2487" y="-186.5" font-family="Helvetica,sans-Serif" font-size="10.00">tvm/node/functor.h</text>
</a>
</g>
</g>
<!-- Node2&#45;&gt;Node27 -->
<g id="edge97" class="edge"><title>Node2&#45;&gt;Node27</title>
<path fill="none" stroke="midnightblue" d="M1011.04,-881.816C1220.05,-880.702 2187.63,-873.622 2485,-837 2600.59,-822.764 2654.69,-859.2 2741,-781 2823.61,-706.152 2957.45,-390.753 2890,-302 2848.97,-248.006 2653.28,-213.18 2550.46,-198.294"/>
<polygon fill="midnightblue" stroke="midnightblue" points="2550.9,-194.822 2540.5,-196.874 2549.91,-201.752 2550.9,-194.822"/>
</g>
<!-- Node28 -->
<g id="node28" class="node"><title>Node28</title>
<g id="a_node28"><a xlink:href="node_2container_8h.html" target="_top" xlink:title="Array/Map container in the DSL graph. ">
<polygon fill="white" stroke="black" points="1990.5,-358.5 1990.5,-377.5 2109.5,-377.5 2109.5,-358.5 1990.5,-358.5"/>
<text text-anchor="middle" x="2050" y="-365.5" font-family="Helvetica,sans-Serif" font-size="10.00">tvm/node/container.h</text>
</a>
</g>
</g>
<!-- Node2&#45;&gt;Node28 -->
<g id="edge96" class="edge"><title>Node2&#45;&gt;Node28</title>
<path fill="none" stroke="midnightblue" d="M1011.23,-881.731C1227.2,-880.151 2244.3,-870.949 2380,-837 2489.14,-809.697 2524.25,-801.219 2607,-725 2631.78,-702.175 2646,-693.69 2646,-660 2646,-660 2646,-660 2646,-546 2646,-435.76 2539.98,-450.619 2436,-414 2379.36,-394.053 2214.85,-380.088 2119.87,-373.43"/>
<polygon fill="midnightblue" stroke="midnightblue" points="2119.99,-369.931 2109.77,-372.732 2119.51,-376.914 2119.99,-369.931"/>
</g>
<!-- Node29 -->
<g id="node29" class="node"><title>Node29</title>
<polygon fill="white" stroke="#bfbfbf" points="2788.5,-302.5 2788.5,-321.5 2881.5,-321.5 2881.5,-302.5 2788.5,-302.5"/>
<text text-anchor="middle" x="2835" y="-309.5" font-family="Helvetica,sans-Serif" font-size="10.00">unordered_map</text>
</g>
<!-- Node2&#45;&gt;Node29 -->
<g id="edge131" class="edge"><title>Node2&#45;&gt;Node29</title>
<path fill="none" stroke="midnightblue" d="M1011.2,-881.627C1231.64,-879.466 2288.99,-867.567 2431,-837 2530.98,-815.48 2568.86,-805.448 2632,-725 2737.67,-590.361 2808.85,-391.867 2829.09,-331.244"/>
<polygon fill="midnightblue" stroke="midnightblue" points="2832.47,-332.168 2832.27,-321.575 2825.82,-329.979 2832.47,-332.168"/>
</g>
<!-- Node32 -->
<g id="node32" class="node"><title>Node32</title>
<polygon fill="white" stroke="#bfbfbf" points="2368.5,-420 2368.5,-439 2427.5,-439 2427.5,-420 2368.5,-420"/>
<text text-anchor="middle" x="2398" y="-427" font-family="Helvetica,sans-Serif" font-size="10.00">iostream</text>
</g>
<!-- Node2&#45;&gt;Node32 -->
<g id="edge132" class="edge"><title>Node2&#45;&gt;Node32</title>
<path fill="none" stroke="midnightblue" d="M1011.18,-881.796C1200.16,-880.653 2001.66,-873.689 2249,-837 2360.44,-820.47 2494,-884.656 2494,-772 2494,-772 2494,-772 2494,-602 2494,-537.714 2442,-475.163 2414.55,-446.611"/>
<polygon fill="midnightblue" stroke="midnightblue" points="2416.72,-443.835 2407.2,-439.181 2411.74,-448.755 2416.72,-443.835"/>
</g>
<!-- Node33 -->
<g id="node33" class="node"><title>Node33</title>
<g id="a_node33"><a xlink:href="ir_2expr_8h.html" target="_top" xlink:title="Base expr nodes in TVM. ">
<polygon fill="white" stroke="black" points="1571.5,-705.5 1571.5,-724.5 1648.5,-724.5 1648.5,-705.5 1571.5,-705.5"/>
<text text-anchor="middle" x="1610" y="-712.5" font-family="Helvetica,sans-Serif" font-size="10.00">tvm/ir/expr.h</text>
</a>
</g>
</g>
<!-- Node2&#45;&gt;Node33 -->
<g id="edge100" class="edge"><title>Node2&#45;&gt;Node33</title>
<path fill="none" stroke="midnightblue" d="M1004.01,-873.425C1110.91,-845.653 1447.64,-758.179 1567.29,-727.095"/>
<polygon fill="midnightblue" stroke="midnightblue" points="1568.39,-730.426 1577.19,-724.524 1566.63,-723.651 1568.39,-730.426"/>
</g>
<!-- Node36 -->
<g id="node36" class="node"><title>Node36</title>
<polygon fill="white" stroke="#bfbfbf" points="940,-649.5 940,-668.5 1002,-668.5 1002,-649.5 940,-649.5"/>
<text text-anchor="middle" x="971" y="-656.5" font-family="Helvetica,sans-Serif" font-size="10.00">algorithm</text>
</g>
<!-- Node2&#45;&gt;Node36 -->
<g id="edge130" class="edge"><title>Node2&#45;&gt;Node36</title>
<path fill="none" stroke="midnightblue" d="M971,-873.297C971,-840.633 971,-724.866 971,-678.957"/>
<polygon fill="midnightblue" stroke="midnightblue" points="974.5,-678.884 971,-668.884 967.5,-678.884 974.5,-678.884"/>
</g>
<!-- Node37 -->
<g id="node37" class="node"><title>Node37</title>
<g id="a_node37"><a xlink:href="var_8h.html" target="_top" xlink:title="Variables in the TIR. ">
<polygon fill="white" stroke="black" points="704,-761.5 704,-780.5 778,-780.5 778,-761.5 704,-761.5"/>
<text text-anchor="middle" x="741" y="-768.5" font-family="Helvetica,sans-Serif" font-size="10.00">tvm/tir/var.h</text>
</a>
</g>
</g>
<!-- Node2&#45;&gt;Node37 -->
<g id="edge119" class="edge"><title>Node2&#45;&gt;Node37</title>
<path fill="none" stroke="midnightblue" d="M930.807,-874.254C899.865,-867.271 856.667,-855.259 822,-837 797.233,-823.955 772.716,-802.827 757.254,-788.217"/>
<polygon fill="midnightblue" stroke="midnightblue" points="759.273,-785.301 749.652,-780.864 754.406,-790.332 759.273,-785.301"/>
</g>
<!-- Node38 -->
<g id="node38" class="node"><title>Node38</title>
<g id="a_node38"><a xlink:href="buffer_8h.html" target="_top" xlink:title="Symbolic n&#45;dimensional array, to represent a memory buffer. ">
<polygon fill="white" stroke="black" points="598.5,-817.5 598.5,-836.5 685.5,-836.5 685.5,-817.5 598.5,-817.5"/>
<text text-anchor="middle" x="642" y="-824.5" font-family="Helvetica,sans-Serif" font-size="10.00">tvm/tir/buffer.h</text>
</a>
</g>
</g>
<!-- Node2&#45;&gt;Node38 -->
<g id="edge124" class="edge"><title>Node2&#45;&gt;Node38</title>
<path fill="none" stroke="midnightblue" d="M930.987,-875.433C872.062,-865.761 761.816,-847.666 695.843,-836.837"/>
<polygon fill="midnightblue" stroke="midnightblue" points="696.085,-833.33 685.65,-835.164 694.951,-840.238 696.085,-833.33"/>
</g>
<!-- Node3&#45;&gt;Node4 -->
<g id="edge3" class="edge"><title>Node3&#45;&gt;Node4</title>
<path fill="none" stroke="midnightblue" d="M1665.84,-542.641C1536.32,-533.696 1194.07,-509.409 1171,-501 1130.57,-486.259 1122.82,-475.041 1092,-445 983.603,-339.337 872.192,-228.24 981,-123 1006.59,-98.2485 1097.26,-84.8537 1163.45,-78.2007"/>
<polygon fill="midnightblue" stroke="midnightblue" points="1163.83,-81.6809 1173.44,-77.2288 1163.15,-74.7138 1163.83,-81.6809"/>
</g>
<!-- Node8 -->
<g id="node8" class="node"><title>Node8</title>
<g id="a_node8"><a xlink:href="runtime_2container_8h.html" target="_top" xlink:title="Common POD(plain old data) container types. ">
<polygon fill="white" stroke="black" points="1984,-302.5 1984,-321.5 2116,-321.5 2116,-302.5 1984,-302.5"/>
<text text-anchor="middle" x="2050" y="-309.5" font-family="Helvetica,sans-Serif" font-size="10.00">tvm/runtime/container.h</text>
</a>
</g>
</g>
<!-- Node3&#45;&gt;Node8 -->
<g id="edge7" class="edge"><title>Node3&#45;&gt;Node8</title>
<path fill="none" stroke="midnightblue" d="M1757.57,-537.489C1785.18,-530.623 1821.09,-519.075 1849,-501 1921.6,-453.985 1914.94,-413.829 1981,-358 1994.85,-346.299 2011.9,-335.154 2025.58,-326.882"/>
<polygon fill="midnightblue" stroke="midnightblue" points="2027.61,-329.746 2034.44,-321.643 2024.05,-323.721 2027.61,-329.746"/>
</g>
<!-- Node10 -->
<g id="node10" class="node"><title>Node10</title>
<g id="a_node10"><a xlink:href="runtime_2memory_8h.html" target="_top" xlink:title="Runtime memory management. ">
<polygon fill="white" stroke="black" points="2223.5,-241 2223.5,-260 2350.5,-260 2350.5,-241 2223.5,-241"/>
<text text-anchor="middle" x="2287" y="-248" font-family="Helvetica,sans-Serif" font-size="10.00">tvm/runtime/memory.h</text>
</a>
</g>
</g>
<!-- Node3&#45;&gt;Node10 -->
<g id="edge49" class="edge"><title>Node3&#45;&gt;Node10</title>
<path fill="none" stroke="midnightblue" d="M1764.31,-539.169C1805.56,-532.458 1865.44,-520.364 1915,-501 2063.19,-443.1 2101.95,-422.848 2225,-322 2244.6,-305.936 2263.26,-283.378 2274.9,-268.141"/>
<polygon fill="midnightblue" stroke="midnightblue" points="2277.71,-270.227 2280.89,-260.12 2272.1,-266.038 2277.71,-270.227"/>
</g>
<!-- Node11 -->
<g id="node11" class="node"><title>Node11</title>
<g id="a_node11"><a xlink:href="object_8h.html" target="_top" xlink:title="A managed object in the TVM runtime. ">
<polygon fill="white" stroke="black" points="2003.5,-123.5 2003.5,-142.5 2120.5,-142.5 2120.5,-123.5 2003.5,-123.5"/>
<text text-anchor="middle" x="2062" y="-130.5" font-family="Helvetica,sans-Serif" font-size="10.00">tvm/runtime/object.h</text>
</a>
</g>
</g>
<!-- Node3&#45;&gt;Node11 -->
<g id="edge48" class="edge"><title>Node3&#45;&gt;Node11</title>
<path fill="none" stroke="midnightblue" d="M1724.89,-537.272C1743.38,-520.621 1783.75,-482.618 1811,-445 1873.17,-359.162 1845.36,-306.053 1924,-235 1955.05,-206.947 1977.66,-224.289 2011,-199 2028.09,-186.041 2042.61,-166.05 2051.74,-151.66"/>
<polygon fill="midnightblue" stroke="midnightblue" points="2054.95,-153.11 2057.16,-142.748 2048.97,-149.472 2054.95,-153.11"/>
</g>
<!-- Node12 -->
<g id="node12" class="node"><title>Node12</title>
<polygon fill="white" stroke="#bfbfbf" points="2535,-62 2535,-81 2603,-81 2603,-62 2535,-62"/>
<text text-anchor="middle" x="2569" y="-69" font-family="Helvetica,sans-Serif" font-size="10.00">type_traits</text>
</g>
<!-- Node3&#45;&gt;Node12 -->
<g id="edge95" class="edge"><title>Node3&#45;&gt;Node12</title>
<path fill="none" stroke="midnightblue" d="M1764.21,-539.709C1813.02,-532.777 1889.62,-520.026 1954,-501 2218.36,-422.874 2302.12,-424.012 2528,-266 2580.09,-229.561 2594.3,-206.216 2601,-143 2601.94,-134.161 2603.48,-131.537 2601,-123 2597.41,-110.611 2589.76,-98.3494 2582.84,-89.0109"/>
<polygon fill="midnightblue" stroke="midnightblue" points="2585.52,-86.7504 2576.59,-81.0445 2580.01,-91.072 2585.52,-86.7504"/>
</g>
<!-- Node3&#45;&gt;Node13 -->
<g id="edge92" class="edge"><title>Node3&#45;&gt;Node13</title>
<path fill="none" stroke="midnightblue" d="M1665.59,-542.576C1526.29,-532.875 1139.6,-505.61 1127,-501 857.314,-402.357 857.986,-255.074 603,-123 565.326,-103.486 518.48,-88.8934 487.939,-80.5374"/>
<polygon fill="midnightblue" stroke="midnightblue" points="488.808,-77.1469 478.243,-77.9446 486.999,-83.9092 488.808,-77.1469"/>
</g>
<!-- Node3&#45;&gt;Node14 -->
<g id="edge94" class="edge"><title>Node3&#45;&gt;Node14</title>
<path fill="none" stroke="midnightblue" d="M1764.08,-545.874C1905.33,-545.049 2310.74,-539.314 2437,-501 2605.28,-449.936 2624.54,-386.08 2779,-302 2916.04,-227.4 3010.39,-275.988 3092,-143 3130.21,-80.7271 2988.99,-72.6362 2923.57,-72.1455"/>
<polygon fill="midnightblue" stroke="midnightblue" points="2923.4,-68.6453 2913.39,-72.1262 2923.39,-75.6453 2923.4,-68.6453"/>
</g>
<!-- Node3&#45;&gt;Node19 -->
<g id="edge93" class="edge"><title>Node3&#45;&gt;Node19</title>
<path fill="none" stroke="midnightblue" d="M1665.88,-542.231C1593.63,-536.214 1454.62,-522.839 1338,-501 1239.67,-482.587 1193.02,-513.369 1120,-445 1036.2,-366.538 1060.47,-206.801 1071.74,-152.526"/>
<polygon fill="midnightblue" stroke="midnightblue" points="1075.19,-153.129 1073.9,-142.613 1068.35,-151.636 1075.19,-153.129"/>
</g>
<!-- Node25 -->
<g id="node25" class="node"><title>Node25</title>
<g id="a_node25"><a xlink:href="reflection_8h.html" target="_top" xlink:title="Reflection and serialization of compiler IR/AST nodes. ">
<polygon fill="white" stroke="black" points="1366.5,-481.5 1366.5,-500.5 1485.5,-500.5 1485.5,-481.5 1366.5,-481.5"/>
<text text-anchor="middle" x="1426" y="-488.5" font-family="Helvetica,sans-Serif" font-size="10.00">tvm/node/reflection.h</text>
</a>
</g>
</g>
<!-- Node3&#45;&gt;Node25 -->
<g id="edge50" class="edge"><title>Node3&#45;&gt;Node25</title>
<path fill="none" stroke="midnightblue" d="M1669.21,-537.444C1618.26,-527.925 1535.97,-512.547 1481.43,-502.356"/>
<polygon fill="midnightblue" stroke="midnightblue" points="1482.05,-498.913 1471.58,-500.516 1480.77,-505.794 1482.05,-498.913"/>
</g>
<!-- Node26 -->
<g id="node26" class="node"><title>Node26</title>
<g id="a_node26"><a xlink:href="structural__equal_8h.html" target="_top" xlink:title="Structural equality comparison. ">
<polygon fill="white" stroke="black" points="1657.5,-414.5 1657.5,-444.5 1768.5,-444.5 1768.5,-414.5 1657.5,-414.5"/>
<text text-anchor="start" x="1665.5" y="-432.5" font-family="Helvetica,sans-Serif" font-size="10.00">tvm/node/structural</text>
<text text-anchor="middle" x="1713" y="-421.5" font-family="Helvetica,sans-Serif" font-size="10.00">_equal.h</text>
</a>
</g>
</g>
<!-- Node3&#45;&gt;Node26 -->
<g id="edge90" class="edge"><title>Node3&#45;&gt;Node26</title>
<path fill="none" stroke="midnightblue" d="M1714.85,-537.319C1714.55,-519.967 1713.87,-480.457 1713.42,-454.658"/>
<polygon fill="midnightblue" stroke="midnightblue" points="1716.92,-454.483 1713.24,-444.545 1709.92,-454.604 1716.92,-454.483"/>
</g>
<!-- Node3&#45;&gt;Node28 -->
<g id="edge89" class="edge"><title>Node3&#45;&gt;Node28</title>
<path fill="none" stroke="midnightblue" d="M1764.36,-540.213C1800.27,-534.361 1849.04,-522.913 1887,-501 1934.09,-473.818 1930.05,-447.336 1973,-414 1988.7,-401.814 2008.01,-390.535 2023.37,-382.317"/>
<polygon fill="midnightblue" stroke="midnightblue" points="2025.12,-385.354 2032.35,-377.615 2021.87,-379.152 2025.12,-385.354"/>
</g>
<!-- Node30 -->
<g id="node30" class="node"><title>Node30</title>
<g id="a_node30"><a xlink:href="structural__hash_8h.html" target="_top" xlink:title="tvm/node/structural\l_hash.h">
<polygon fill="white" stroke="black" points="1271.5,-414.5 1271.5,-444.5 1382.5,-444.5 1382.5,-414.5 1271.5,-414.5"/>
<text text-anchor="start" x="1279.5" y="-432.5" font-family="Helvetica,sans-Serif" font-size="10.00">tvm/node/structural</text>
<text text-anchor="middle" x="1327" y="-421.5" font-family="Helvetica,sans-Serif" font-size="10.00">_hash.h</text>
</a>
</g>
</g>
<!-- Node3&#45;&gt;Node30 -->
<g id="edge91" class="edge"><title>Node3&#45;&gt;Node30</title>
<path fill="none" stroke="midnightblue" d="M1665.73,-542.528C1573.34,-535.626 1381.18,-519.261 1357,-501 1342.42,-489.994 1334.85,-470.511 1330.97,-454.813"/>
<polygon fill="midnightblue" stroke="midnightblue" points="1334.32,-453.756 1328.82,-444.699 1327.47,-455.207 1334.32,-453.756"/>
</g>
<!-- Node31 -->
<g id="node31" class="node"><title>Node31</title>
<g id="a_node31"><a xlink:href="repr__printer_8h.html" target="_top" xlink:title="Printer class to print repr string of each AST/IR nodes. ">
<polygon fill="white" stroke="black" points="2298,-481.5 2298,-500.5 2428,-500.5 2428,-481.5 2298,-481.5"/>
<text text-anchor="middle" x="2363" y="-488.5" font-family="Helvetica,sans-Serif" font-size="10.00">tvm/node/repr_printer.h</text>
</a>
</g>
</g>
<!-- Node3&#45;&gt;Node31 -->
<g id="edge86" class="edge"><title>Node3&#45;&gt;Node31</title>
<path fill="none" stroke="midnightblue" d="M1764.24,-541.897C1876.79,-532.518 2153.49,-509.459 2287.64,-498.28"/>
<polygon fill="midnightblue" stroke="midnightblue" points="2288.16,-501.749 2297.83,-497.431 2287.58,-494.773 2288.16,-501.749"/>
</g>
<!-- Node5 -->
<g id="node5" class="node"><title>Node5</title>
<polygon fill="white" stroke="#bfbfbf" points="1102,-0.5 1102,-19.5 1192,-19.5 1192,-0.5 1102,-0.5"/>
<text text-anchor="middle" x="1147" y="-7.5" font-family="Helvetica,sans-Serif" font-size="10.00">dlpack/dlpack.h</text>
</g>
<!-- Node4&#45;&gt;Node5 -->
<g id="edge4" class="edge"><title>Node4&#45;&gt;Node5</title>
<path fill="none" stroke="midnightblue" d="M1215.67,-56.3993C1201.51,-47.0402 1182.99,-34.7924 1168.75,-25.3771"/>
<polygon fill="midnightblue" stroke="midnightblue" points="1170.37,-22.2531 1160.1,-19.6578 1166.51,-28.0923 1170.37,-22.2531"/>
</g>
<!-- Node6 -->
<g id="node6" class="node"><title>Node6</title>
<polygon fill="white" stroke="#bfbfbf" points="1210.5,-0.5 1210.5,-19.5 1263.5,-19.5 1263.5,-0.5 1210.5,-0.5"/>
<text text-anchor="middle" x="1237" y="-7.5" font-family="Helvetica,sans-Serif" font-size="10.00">stdint.h</text>
</g>
<!-- Node4&#45;&gt;Node6 -->
<g id="edge5" class="edge"><title>Node4&#45;&gt;Node6</title>
<path fill="none" stroke="midnightblue" d="M1237,-56.3993C1237,-48.4664 1237,-38.458 1237,-29.8583"/>
<polygon fill="midnightblue" stroke="midnightblue" points="1240.5,-29.6577 1237,-19.6578 1233.5,-29.6578 1240.5,-29.6577"/>
</g>
<!-- Node7 -->
<g id="node7" class="node"><title>Node7</title>
<polygon fill="white" stroke="#bfbfbf" points="1281.5,-0.5 1281.5,-19.5 1336.5,-19.5 1336.5,-0.5 1281.5,-0.5"/>
<text text-anchor="middle" x="1309" y="-7.5" font-family="Helvetica,sans-Serif" font-size="10.00">stddef.h</text>
</g>
<!-- Node4&#45;&gt;Node7 -->
<g id="edge6" class="edge"><title>Node4&#45;&gt;Node7</title>
<path fill="none" stroke="midnightblue" d="M1254.06,-56.3993C1265.06,-47.3076 1279.37,-35.4899 1290.62,-26.1909"/>
<polygon fill="midnightblue" stroke="midnightblue" points="1293.04,-28.726 1298.52,-19.6578 1288.59,-23.33 1293.04,-28.726"/>
</g>
<!-- Node9 -->
<g id="node9" class="node"><title>Node9</title>
<polygon fill="white" stroke="#bfbfbf" points="2062,-62 2062,-81 2148,-81 2148,-62 2062,-62"/>
<text text-anchor="middle" x="2105" y="-69" font-family="Helvetica,sans-Serif" font-size="10.00">dmlc/logging.h</text>
</g>
<!-- Node8&#45;&gt;Node9 -->
<g id="edge8" class="edge"><title>Node8&#45;&gt;Node9</title>
<path fill="none" stroke="midnightblue" d="M2071.28,-302.386C2086.42,-295.068 2105.82,-283.022 2116,-266 2148.75,-211.225 2143.04,-185.254 2129,-123 2126.37,-111.334 2120.71,-99.1999 2115.55,-89.7508"/>
<polygon fill="midnightblue" stroke="midnightblue" points="2118.53,-87.9155 2110.5,-81.0078 2112.47,-91.4175 2118.53,-87.9155"/>
</g>
<!-- Node8&#45;&gt;Node10 -->
<g id="edge9" class="edge"><title>Node8&#45;&gt;Node10</title>
<path fill="none" stroke="midnightblue" d="M2083.96,-302.475C2125.84,-291.959 2197.13,-274.062 2243.13,-262.514"/>
<polygon fill="midnightblue" stroke="midnightblue" points="2244.26,-265.839 2253.11,-260.009 2242.56,-259.049 2244.26,-265.839"/>
</g>
<!-- Node8&#45;&gt;Node11 -->
<g id="edge20" class="edge"><title>Node8&#45;&gt;Node11</title>
<path fill="none" stroke="midnightblue" d="M2064.66,-302.402C2076.41,-294.585 2092.03,-281.862 2099,-266 2116.32,-226.585 2090.69,-176.965 2074.16,-151.242"/>
<polygon fill="midnightblue" stroke="midnightblue" points="2076.85,-148.979 2068.38,-142.624 2071.04,-152.879 2076.85,-148.979"/>
</g>
<!-- Node8&#45;&gt;Node12 -->
<g id="edge45" class="edge"><title>Node8&#45;&gt;Node12</title>
<path fill="none" stroke="midnightblue" d="M2073.31,-302.362C2092.06,-294.68 2118.41,-282.166 2138,-266 2175.85,-234.76 2165.4,-206.564 2206,-179 2306.87,-110.529 2452.3,-85.3606 2524.65,-76.697"/>
<polygon fill="midnightblue" stroke="midnightblue" points="2525.24,-80.152 2534.78,-75.5353 2524.44,-73.1975 2525.24,-80.152"/>
</g>
<!-- Node8&#45;&gt;Node13 -->
<g id="edge44" class="edge"><title>Node8&#45;&gt;Node13</title>
<path fill="none" stroke="midnightblue" d="M1983.82,-309.084C1871.72,-305.114 1649.57,-293.905 1577,-266 1575.11,-265.273 1461.85,-179.827 1460,-179 1279.94,-98.4035 640.288,-77.2019 488.486,-73.2577"/>
<polygon fill="midnightblue" stroke="midnightblue" points="488.497,-69.757 478.412,-73.003 488.32,-76.7547 488.497,-69.757"/>
</g>
<!-- Node8&#45;&gt;Node14 -->
<g id="edge46" class="edge"><title>Node8&#45;&gt;Node14</title>
<path fill="none" stroke="midnightblue" d="M2116.45,-308.221C2240.82,-301.267 2515.75,-277.556 2732,-199 2779.15,-181.872 2791.13,-174.711 2830,-143 2849.64,-126.98 2868.29,-104.413 2879.91,-89.1618"/>
<polygon fill="midnightblue" stroke="midnightblue" points="2882.73,-91.2419 2885.9,-81.1322 2877.12,-87.0589 2882.73,-91.2419"/>
</g>
<!-- Node17 -->
<g id="node17" class="node"><title>Node17</title>
<g id="a_node17"><a xlink:href="packed__func_8h.html" target="_top" xlink:title="Type&#45;erased function used across TVM API. ">
<polygon fill="white" stroke="red" points="1586.5,-235.5 1586.5,-265.5 1699.5,-265.5 1699.5,-235.5 1586.5,-235.5"/>
<text text-anchor="start" x="1594.5" y="-253.5" font-family="Helvetica,sans-Serif" font-size="10.00">tvm/runtime/packed</text>
<text text-anchor="middle" x="1643" y="-242.5" font-family="Helvetica,sans-Serif" font-size="10.00">_func.h</text>
</a>
</g>
</g>
<!-- Node8&#45;&gt;Node17 -->
<g id="edge21" class="edge"><title>Node8&#45;&gt;Node17</title>
<path fill="none" stroke="midnightblue" d="M1991.69,-302.475C1917.11,-291.573 1788.27,-272.737 1709.82,-261.268"/>
<polygon fill="midnightblue" stroke="midnightblue" points="1709.97,-257.753 1699.57,-259.77 1708.96,-264.679 1709.97,-257.753"/>
</g>
<!-- Node8&#45;&gt;Node19 -->
<g id="edge47" class="edge"><title>Node8&#45;&gt;Node19</title>
<path fill="none" stroke="midnightblue" d="M1983.9,-309.633C1865.57,-306.443 1622.58,-296.314 1544,-266 1484.21,-242.933 1488.34,-203.202 1429,-179 1371.5,-155.548 1186.6,-141.178 1109.87,-136.089"/>
<polygon fill="midnightblue" stroke="midnightblue" points="1109.99,-132.589 1099.78,-135.432 1109.53,-139.575 1109.99,-132.589"/>
</g>
<!-- Node23 -->
<g id="node23" class="node"><title>Node23</title>
<polygon fill="white" stroke="#bfbfbf" points="2041.5,-241 2041.5,-260 2090.5,-260 2090.5,-241 2041.5,-241"/>
<text text-anchor="middle" x="2066" y="-248" font-family="Helvetica,sans-Serif" font-size="10.00">cstring</text>
</g>
<!-- Node8&#45;&gt;Node23 -->
<g id="edge42" class="edge"><title>Node8&#45;&gt;Node23</title>
<path fill="none" stroke="midnightblue" d="M2052.29,-302.475C2054.57,-293.992 2058.15,-280.704 2061.07,-269.822"/>
<polygon fill="midnightblue" stroke="midnightblue" points="2064.49,-270.575 2063.71,-260.009 2057.74,-268.757 2064.49,-270.575"/>
</g>
<!-- Node24 -->
<g id="node24" class="node"><title>Node24</title>
<polygon fill="white" stroke="#bfbfbf" points="1946.5,-241 1946.5,-260 2023.5,-260 2023.5,-241 1946.5,-241"/>
<text text-anchor="middle" x="1985" y="-248" font-family="Helvetica,sans-Serif" font-size="10.00">initializer_list</text>
</g>
<!-- Node8&#45;&gt;Node24 -->
<g id="edge43" class="edge"><title>Node8&#45;&gt;Node24</title>
<path fill="none" stroke="midnightblue" d="M2040.69,-302.475C2030.55,-293.197 2014.14,-278.171 2001.75,-266.831"/>
<polygon fill="midnightblue" stroke="midnightblue" points="2004.04,-264.18 1994.3,-260.009 1999.31,-269.343 2004.04,-264.18"/>
</g>
<!-- Node10&#45;&gt;Node11 -->
<g id="edge10" class="edge"><title>Node10&#45;&gt;Node11</title>
<path fill="none" stroke="midnightblue" d="M2287.76,-240.732C2288.54,-225.835 2287.78,-195.592 2271,-179 2251.35,-159.569 2183.85,-147.518 2130.81,-140.835"/>
<polygon fill="midnightblue" stroke="midnightblue" points="2131.11,-137.345 2120.76,-139.61 2130.26,-144.294 2131.11,-137.345"/>
</g>
<!-- Node10&#45;&gt;Node12 -->
<g id="edge19" class="edge"><title>Node10&#45;&gt;Node12</title>
<path fill="none" stroke="midnightblue" d="M2300.6,-240.963C2345.73,-212.639 2490.8,-121.581 2546.73,-86.4803"/>
<polygon fill="midnightblue" stroke="midnightblue" points="2548.6,-89.4395 2555.2,-81.1588 2544.87,-83.5105 2548.6,-89.4395"/>
</g>
<!-- Node10&#45;&gt;Node14 -->
<g id="edge18" class="edge"><title>Node10&#45;&gt;Node14</title>
<path fill="none" stroke="midnightblue" d="M2350.51,-250.407C2432.89,-249.645 2579.9,-241.613 2697,-199 2769.41,-172.651 2842.28,-115.236 2874.65,-87.7537"/>
<polygon fill="midnightblue" stroke="midnightblue" points="2877.03,-90.3227 2882.32,-81.1467 2872.46,-85.017 2877.03,-90.3227"/>
</g>
<!-- Node16 -->
<g id="node16" class="node"><title>Node16</title>
<polygon fill="white" stroke="#bfbfbf" points="2215.5,-179.5 2215.5,-198.5 2262.5,-198.5 2262.5,-179.5 2215.5,-179.5"/>
<text text-anchor="middle" x="2239" y="-186.5" font-family="Helvetica,sans-Serif" font-size="10.00">cstdlib</text>
</g>
<!-- Node10&#45;&gt;Node16 -->
<g id="edge17" class="edge"><title>Node10&#45;&gt;Node16</title>
<path fill="none" stroke="midnightblue" d="M2280.12,-240.975C2272.85,-231.962 2261.2,-217.525 2252.16,-206.312"/>
<polygon fill="midnightblue" stroke="midnightblue" points="2254.87,-204.095 2245.86,-198.509 2249.42,-208.49 2254.87,-204.095"/>
</g>
<!-- Node11&#45;&gt;Node4 -->
<g id="edge12" class="edge"><title>Node11&#45;&gt;Node4</title>
<path fill="none" stroke="midnightblue" d="M2003.33,-127.769C1856.45,-117.176 1473.12,-89.5293 1311.06,-77.841"/>
<polygon fill="midnightblue" stroke="midnightblue" points="1310.93,-74.323 1300.71,-77.0945 1310.43,-81.3049 1310.93,-74.323"/>
</g>
<!-- Node11&#45;&gt;Node9 -->
<g id="edge11" class="edge"><title>Node11&#45;&gt;Node9</title>
<path fill="none" stroke="midnightblue" d="M2068.16,-123.475C2074.61,-114.55 2084.9,-100.307 2092.97,-89.1425"/>
<polygon fill="midnightblue" stroke="midnightblue" points="2095.83,-91.1642 2098.85,-81.0091 2090.16,-87.064 2095.83,-91.1642"/>
</g>
<!-- Node11&#45;&gt;Node12 -->
<g id="edge13" class="edge"><title>Node11&#45;&gt;Node12</title>
<path fill="none" stroke="midnightblue" d="M2120.65,-125.116C2223.31,-113.069 2433.3,-88.4249 2524.78,-77.6901"/>
<polygon fill="midnightblue" stroke="midnightblue" points="2525.29,-81.1542 2534.81,-76.5124 2524.47,-74.2019 2525.29,-81.1542"/>
</g>
<!-- Node11&#45;&gt;Node13 -->
<g id="edge14" class="edge"><title>Node11&#45;&gt;Node13</title>
<path fill="none" stroke="midnightblue" d="M2003.42,-129.83C1742.1,-120.148 686.984,-81.0576 488.336,-73.698"/>
<polygon fill="midnightblue" stroke="midnightblue" points="488.374,-70.1971 478.252,-73.3244 488.115,-77.1923 488.374,-70.1971"/>
</g>
<!-- Node11&#45;&gt;Node14 -->
<g id="edge15" class="edge"><title>Node11&#45;&gt;Node14</title>
<path fill="none" stroke="midnightblue" d="M2120.69,-127.792C2283.43,-116.126 2736.51,-83.6465 2860.36,-74.768"/>
<polygon fill="midnightblue" stroke="midnightblue" points="2860.93,-78.236 2870.66,-74.0299 2860.43,-71.2539 2860.93,-78.236"/>
</g>
<!-- Node15 -->
<g id="node15" class="node"><title>Node15</title>
<polygon fill="white" stroke="#bfbfbf" points="1825,-62 1825,-81 1875,-81 1875,-62 1825,-62"/>
<text text-anchor="middle" x="1850" y="-69" font-family="Helvetica,sans-Serif" font-size="10.00">atomic</text>
</g>
<!-- Node11&#45;&gt;Node15 -->
<g id="edge16" class="edge"><title>Node11&#45;&gt;Node15</title>
<path fill="none" stroke="midnightblue" d="M2031.63,-123.475C1992.78,-112.574 1925.68,-93.739 1884.81,-82.2702"/>
<polygon fill="midnightblue" stroke="midnightblue" points="1885.59,-78.8548 1875.02,-79.5224 1883.7,-85.5944 1885.59,-78.8548"/>
</g>
<!-- Node17&#45;&gt;Node4 -->
<g id="edge23" class="edge"><title>Node17&#45;&gt;Node4</title>
<path fill="none" stroke="midnightblue" d="M1636.27,-235.273C1622.75,-208.405 1589.54,-150.441 1543,-123 1504.71,-100.428 1388.55,-85.967 1310.88,-78.5429"/>
<polygon fill="midnightblue" stroke="midnightblue" points="1310.94,-75.0336 1300.66,-77.5853 1310.29,-82.0031 1310.94,-75.0336"/>
</g>
<!-- Node17&#45;&gt;Node9 -->
<g id="edge22" class="edge"><title>Node17&#45;&gt;Node9</title>
<path fill="none" stroke="midnightblue" d="M1694.2,-235.472C1717.44,-227.389 1744.29,-215.499 1765,-199 1797.41,-173.18 1783.98,-145.147 1819,-123 1856.88,-99.0475 1980.05,-84.0103 2051.8,-77.056"/>
<polygon fill="midnightblue" stroke="midnightblue" points="2052.37,-80.5175 2061.99,-76.0885 2051.71,-73.5488 2052.37,-80.5175"/>
</g>
<!-- Node17&#45;&gt;Node11 -->
<g id="edge35" class="edge"><title>Node17&#45;&gt;Node11</title>
<path fill="none" stroke="midnightblue" d="M1699.85,-237.556C1738.96,-228.649 1791.8,-215.243 1837,-199 1856.84,-191.872 1860.12,-186.007 1880,-179 1921.81,-164.264 1970.64,-152.471 2007.2,-144.66"/>
<polygon fill="midnightblue" stroke="midnightblue" points="2008.1,-148.047 2017.17,-142.563 2006.66,-141.197 2008.1,-148.047"/>
</g>
<!-- Node17&#45;&gt;Node12 -->
<g id="edge41" class="edge"><title>Node17&#45;&gt;Node12</title>
<path fill="none" stroke="midnightblue" d="M1685.09,-235.492C1714.14,-225.663 1753.59,-212.005 1788,-199 1810,-190.685 1815.03,-187.398 1837,-179 1906.2,-152.551 1921.62,-138.814 1994,-123 2188.59,-80.4846 2427.63,-73.5459 2524.8,-72.5685"/>
<polygon fill="midnightblue" stroke="midnightblue" points="2524.87,-76.0681 2534.84,-72.484 2524.82,-69.0683 2524.87,-76.0681"/>
</g>
<!-- Node17&#45;&gt;Node13 -->
<g id="edge38" class="edge"><title>Node17&#45;&gt;Node13</title>
<path fill="none" stroke="midnightblue" d="M1629.96,-235.33C1601.68,-204.981 1534.85,-135.445 1505,-123 1409.28,-83.0922 655.222,-74.2323 488.539,-72.7544"/>
<polygon fill="midnightblue" stroke="midnightblue" points="488.453,-69.2536 478.423,-72.6675 488.393,-76.2534 488.453,-69.2536"/>
</g>
<!-- Node17&#45;&gt;Node14 -->
<g id="edge40" class="edge"><title>Node17&#45;&gt;Node14</title>
<path fill="none" stroke="midnightblue" d="M1699.56,-246.573C1894.58,-236.454 2528.13,-203.329 2549,-199 2671.53,-173.587 2808.78,-112.284 2865.39,-85.4479"/>
<polygon fill="midnightblue" stroke="midnightblue" points="2867.18,-88.4712 2874.7,-81.002 2864.16,-82.1551 2867.18,-88.4712"/>
</g>
<!-- Node18 -->
<g id="node18" class="node"><title>Node18</title>
<g id="a_node18"><a xlink:href="ndarray_8h.html" target="_top" xlink:title="A device&#45;independent managed NDArray abstraction. ">
<polygon fill="white" stroke="red" points="1633.5,-179.5 1633.5,-198.5 1756.5,-198.5 1756.5,-179.5 1633.5,-179.5"/>
<text text-anchor="middle" x="1695" y="-186.5" font-family="Helvetica,sans-Serif" font-size="10.00">tvm/runtime/ndarray.h</text>
</a>
</g>
</g>
<!-- Node17&#45;&gt;Node18 -->
<g id="edge24" class="edge"><title>Node17&#45;&gt;Node18</title>
<path fill="none" stroke="midnightblue" d="M1655.32,-235.399C1662.96,-226.664 1672.79,-215.413 1680.76,-206.296"/>
<polygon fill="midnightblue" stroke="midnightblue" points="1683.49,-208.491 1687.43,-198.658 1678.22,-203.884 1683.49,-208.491"/>
</g>
<!-- Node17&#45;&gt;Node19 -->
<g id="edge37" class="edge"><title>Node17&#45;&gt;Node19</title>
<path fill="none" stroke="midnightblue" d="M1614.82,-235.479C1580.71,-219.154 1521.09,-192.684 1467,-179 1337.78,-146.31 1178.47,-137.31 1109.95,-134.879"/>
<polygon fill="midnightblue" stroke="midnightblue" points="1109.86,-131.374 1099.75,-134.542 1109.63,-138.37 1109.86,-131.374"/>
</g>
<!-- Node17&#45;&gt;Node20 -->
<g id="edge30" class="edge"><title>Node17&#45;&gt;Node20</title>
<path fill="none" stroke="midnightblue" d="M1586.12,-241.164C1512.5,-230.375 1384.33,-211.591 1305.45,-200.032"/>
<polygon fill="midnightblue" stroke="midnightblue" points="1305.54,-196.507 1295.14,-198.52 1304.52,-203.433 1305.54,-196.507"/>
</g>
<!-- Node21 -->
<g id="node21" class="node"><title>Node21</title>
<polygon fill="white" stroke="#bfbfbf" points="1323.5,-179.5 1323.5,-198.5 1386.5,-198.5 1386.5,-179.5 1323.5,-179.5"/>
<text text-anchor="middle" x="1355" y="-186.5" font-family="Helvetica,sans-Serif" font-size="10.00">functional</text>
</g>
<!-- Node17&#45;&gt;Node21 -->
<g id="edge36" class="edge"><title>Node17&#45;&gt;Node21</title>
<path fill="none" stroke="midnightblue" d="M1586.44,-237.816C1530.66,-226.291 1446.69,-208.944 1396.71,-198.618"/>
<polygon fill="midnightblue" stroke="midnightblue" points="1397.39,-195.184 1386.89,-196.588 1395.97,-202.039 1397.39,-195.184"/>
</g>
<!-- Node17&#45;&gt;Node22 -->
<g id="edge39" class="edge"><title>Node17&#45;&gt;Node22</title>
<path fill="none" stroke="midnightblue" d="M1699.86,-237.741C1746.91,-227.864 1815.44,-213.135 1875,-199 1876.27,-198.698 1877.57,-198.387 1878.87,-198.068"/>
<polygon fill="midnightblue" stroke="midnightblue" points="1880.08,-201.374 1888.93,-195.553 1878.38,-194.583 1880.08,-201.374"/>
</g>
<!-- Node18&#45;&gt;Node4 -->
<g id="edge25" class="edge"><title>Node18&#45;&gt;Node4</title>
<path fill="none" stroke="midnightblue" d="M1688.07,-179.492C1675.82,-165.118 1648.81,-136.294 1619,-123 1565.43,-99.1102 1406.01,-84.2535 1310.89,-77.2643"/>
<polygon fill="midnightblue" stroke="midnightblue" points="1310.98,-73.762 1300.75,-76.5316 1310.47,-80.7438 1310.98,-73.762"/>
</g>
<!-- Node18&#45;&gt;Node11 -->
<g id="edge26" class="edge"><title>Node18&#45;&gt;Node11</title>
<path fill="none" stroke="midnightblue" d="M1753.15,-179.444C1818.65,-169.806 1924.96,-154.163 1994.19,-143.978"/>
<polygon fill="midnightblue" stroke="midnightblue" points="1994.74,-147.435 2004.12,-142.516 1993.72,-140.51 1994.74,-147.435"/>
</g>
<!-- Node18&#45;&gt;Node14 -->
<g id="edge29" class="edge"><title>Node18&#45;&gt;Node14</title>
<path fill="none" stroke="midnightblue" d="M1726.57,-179.411C1780.79,-165.049 1895.3,-136.417 1994,-123 2037.82,-117.043 2707.43,-82.0763 2860.85,-74.1134"/>
<polygon fill="midnightblue" stroke="midnightblue" points="2861.18,-77.6009 2870.99,-73.5875 2860.82,-70.6103 2861.18,-77.6009"/>
</g>
<!-- Node18&#45;&gt;Node15 -->
<g id="edge27" class="edge"><title>Node18&#45;&gt;Node15</title>
<path fill="none" stroke="midnightblue" d="M1699.52,-179.356C1706.99,-165.797 1723.06,-139.387 1743,-123 1764.43,-105.392 1793.02,-92.3098 1815.25,-83.8776"/>
<polygon fill="midnightblue" stroke="midnightblue" points="1816.47,-87.1589 1824.66,-80.4401 1814.07,-80.5838 1816.47,-87.1589"/>
</g>
<!-- Node18&#45;&gt;Node19 -->
<g id="edge28" class="edge"><title>Node18&#45;&gt;Node19</title>
<path fill="none" stroke="midnightblue" d="M1633.38,-182.625C1504.45,-171.377 1209.87,-145.679 1109.91,-136.958"/>
<polygon fill="midnightblue" stroke="midnightblue" points="1110.04,-133.456 1099.77,-136.074 1109.43,-140.43 1110.04,-133.456"/>
</g>
<!-- Node20&#45;&gt;Node4 -->
<g id="edge31" class="edge"><title>Node20&#45;&gt;Node4</title>
<path fill="none" stroke="midnightblue" d="M1237,-179.319C1237,-161.967 1237,-122.457 1237,-96.6579"/>
<polygon fill="midnightblue" stroke="midnightblue" points="1240.5,-96.5453 1237,-86.5453 1233.5,-96.5453 1240.5,-96.5453"/>
</g>
<!-- Node20&#45;&gt;Node9 -->
<g id="edge32" class="edge"><title>Node20&#45;&gt;Node9</title>
<path fill="none" stroke="midnightblue" d="M1296.81,-179.451C1385.76,-166.791 1558.22,-142.458 1705,-123 1828.93,-106.572 1974.63,-88.4864 2051.4,-79.0523"/>
<polygon fill="midnightblue" stroke="midnightblue" points="2052.27,-82.4721 2061.77,-77.7796 2051.42,-75.5243 2052.27,-82.4721"/>
</g>
<!-- Node20&#45;&gt;Node12 -->
<g id="edge33" class="edge"><title>Node20&#45;&gt;Node12</title>
<path fill="none" stroke="midnightblue" d="M1305.01,-179.982C1308.05,-179.646 1311.06,-179.317 1314,-179 1566.65,-151.804 1629.82,-144.774 1883,-123 2125.05,-102.183 2415.61,-82.5601 2524.73,-75.3798"/>
<polygon fill="midnightblue" stroke="midnightblue" points="2524.96,-78.8719 2534.71,-74.7241 2524.51,-71.887 2524.96,-78.8719"/>
</g>
<!-- Node20&#45;&gt;Node13 -->
<g id="edge34" class="edge"><title>Node20&#45;&gt;Node13</title>
<path fill="none" stroke="midnightblue" d="M1229.45,-179.3C1216.13,-164.636 1186.83,-135.388 1155,-123 1031.04,-74.7513 608.913,-72.082 488.379,-72.3301"/>
<polygon fill="midnightblue" stroke="midnightblue" points="488.295,-68.8302 478.306,-72.3594 488.316,-75.8302 488.295,-68.8302"/>
</g>
<!-- Node25&#45;&gt;Node4 -->
<g id="edge51" class="edge"><title>Node25&#45;&gt;Node4</title>
<path fill="none" stroke="midnightblue" d="M1366.2,-487.252C1288.79,-482.683 1159.19,-471.276 1120,-445 1014.4,-374.202 1007.64,-321.607 974,-199 950.915,-114.87 1077.86,-86.6845 1163.46,-77.2463"/>
<polygon fill="midnightblue" stroke="midnightblue" points="1163.83,-80.7261 1173.42,-76.2111 1163.11,-73.7636 1163.83,-80.7261"/>
</g>
<!-- Node25&#45;&gt;Node10 -->
<g id="edge53" class="edge"><title>Node25&#45;&gt;Node10</title>
<path fill="none" stroke="midnightblue" d="M1454.51,-481.419C1483.11,-472.692 1528.32,-458.561 1567,-445 1603.38,-432.246 1611.11,-425.179 1648,-414 1755.73,-381.356 1784.44,-379.16 1895,-358 1996.62,-338.55 2025.64,-350.878 2125,-322 2175.23,-307.4 2230.43,-280.965 2261.69,-264.942"/>
<polygon fill="midnightblue" stroke="midnightblue" points="2263.69,-267.846 2270.96,-260.134 2260.47,-261.632 2263.69,-267.846"/>
</g>
<!-- Node25&#45;&gt;Node11 -->
<g id="edge52" class="edge"><title>Node25&#45;&gt;Node11</title>
<path fill="none" stroke="midnightblue" d="M1437.21,-481.349C1483.18,-446.229 1662.6,-312.492 1828,-235 1875.35,-212.817 1891.85,-219.374 1940,-199 1975.71,-183.892 2014.93,-161.966 2039.02,-147.844"/>
<polygon fill="midnightblue" stroke="midnightblue" points="2040.94,-150.773 2047.76,-142.667 2037.38,-144.749 2040.94,-150.773"/>
</g>
<!-- Node25&#45;&gt;Node12 -->
<g id="edge85" class="edge"><title>Node25&#45;&gt;Node12</title>
<path fill="none" stroke="midnightblue" d="M1485.8,-483.56C1555.79,-475.738 1675.12,-461.521 1777,-445 1938.04,-418.886 2346.1,-344.709 2489,-266 2529.62,-243.625 2543.74,-237.896 2569,-199 2587.8,-170.05 2590.27,-157.113 2585,-123 2583.3,-112.038 2579.66,-100.196 2576.27,-90.7361"/>
<polygon fill="midnightblue" stroke="midnightblue" points="2579.49,-89.356 2572.68,-81.2419 2572.94,-91.8334 2579.49,-89.356"/>
</g>
<!-- Node25&#45;&gt;Node13 -->
<g id="edge84" class="edge"><title>Node25&#45;&gt;Node13</title>
<path fill="none" stroke="midnightblue" d="M1366.19,-486.395C1280.28,-480.527 1126.69,-467.272 1076,-445 920.641,-376.738 912.476,-309.86 784,-199 745.381,-165.676 743.599,-145.861 698,-123 628.623,-88.2172 536.515,-77.3761 488.401,-74.0084"/>
<polygon fill="midnightblue" stroke="midnightblue" points="488.47,-70.5058 478.269,-73.3655 488.027,-77.4918 488.47,-70.5058"/>
</g>
<!-- Node25&#45;&gt;Node17 -->
<g id="edge54" class="edge"><title>Node25&#45;&gt;Node17</title>
<path fill="none" stroke="midnightblue" d="M1429.41,-481.382C1441.19,-452.517 1482.87,-357.926 1544,-302 1558.53,-288.703 1577.22,-277.98 1594.44,-269.893"/>
<polygon fill="midnightblue" stroke="midnightblue" points="1596.13,-272.968 1603.81,-265.672 1593.26,-266.585 1596.13,-272.968"/>
</g>
<!-- Node25&#45;&gt;Node18 -->
<g id="edge55" class="edge"><title>Node25&#45;&gt;Node18</title>
<path fill="none" stroke="midnightblue" d="M1426.94,-481.265C1428.72,-466.81 1433.31,-437.205 1443,-414 1481.31,-322.301 1496.34,-293.056 1577,-235 1598.57,-219.478 1626.16,-208.567 1649.24,-201.381"/>
<polygon fill="midnightblue" stroke="midnightblue" points="1650.23,-204.735 1658.82,-198.526 1648.24,-198.026 1650.23,-204.735"/>
</g>
<!-- Node25&#45;&gt;Node19 -->
<g id="edge83" class="edge"><title>Node25&#45;&gt;Node19</title>
<path fill="none" stroke="midnightblue" d="M1366.19,-486.867C1317.29,-482.38 1247.43,-471.479 1192,-445 1144.76,-422.434 1102,-421.354 1102,-369 1102,-369 1102,-369 1102,-249.5 1102,-214.35 1090.4,-174.619 1082.69,-152.114"/>
<polygon fill="midnightblue" stroke="midnightblue" points="1085.94,-150.795 1079.29,-142.545 1079.34,-153.14 1085.94,-150.795"/>
</g>
<!-- Node25&#45;&gt;Node20 -->
<g id="edge56" class="edge"><title>Node25&#45;&gt;Node20</title>
<path fill="none" stroke="midnightblue" d="M1366.28,-486.402C1292.9,-478.375 1178,-452.478 1178,-369 1178,-369 1178,-369 1178,-311 1178,-270.148 1205.51,-228.671 1222.96,-206.469"/>
<polygon fill="midnightblue" stroke="midnightblue" points="1225.69,-208.658 1229.29,-198.693 1220.26,-204.239 1225.69,-208.658"/>
</g>
<!-- Node25&#45;&gt;Node26 -->
<g id="edge57" class="edge"><title>Node25&#45;&gt;Node26</title>
<path fill="none" stroke="midnightblue" d="M1467.12,-481.475C1514.18,-471.719 1591.88,-455.61 1647.34,-444.112"/>
<polygon fill="midnightblue" stroke="midnightblue" points="1648.35,-447.478 1657.43,-442.021 1646.93,-440.624 1648.35,-447.478"/>
</g>
<!-- Node25&#45;&gt;Node30 -->
<g id="edge77" class="edge"><title>Node25&#45;&gt;Node30</title>
<path fill="none" stroke="midnightblue" d="M1411.82,-481.475C1398.16,-473.266 1377.01,-460.558 1359.25,-449.885"/>
<polygon fill="midnightblue" stroke="midnightblue" points="1360.71,-446.674 1350.33,-444.523 1357.1,-452.674 1360.71,-446.674"/>
</g>
<!-- Node26&#45;&gt;Node13 -->
<g id="edge76" class="edge"><title>Node26&#45;&gt;Node13</title>
<path fill="none" stroke="midnightblue" d="M1668.48,-414.421C1581.11,-386.697 1381.14,-322.786 1214,-266 1033.65,-204.728 994.969,-168.451 810,-123 693.455,-94.3623 551.061,-80.1785 488.316,-74.9495"/>
<polygon fill="midnightblue" stroke="midnightblue" points="488.498,-71.4528 478.247,-74.1309 487.93,-78.4298 488.498,-71.4528"/>
</g>
<!-- Node26&#45;&gt;Node20 -->
<g id="edge58" class="edge"><title>Node26&#45;&gt;Node20</title>
<path fill="none" stroke="midnightblue" d="M1685,-414.471C1600.17,-371.965 1346.7,-244.967 1263.67,-203.361"/>
<polygon fill="midnightblue" stroke="midnightblue" points="1264.91,-200.072 1254.41,-198.721 1261.78,-206.33 1264.91,-200.072"/>
</g>
<!-- Node26&#45;&gt;Node27 -->
<g id="edge59" class="edge"><title>Node26&#45;&gt;Node27</title>
<path fill="none" stroke="midnightblue" d="M1761.1,-414.428C1814.49,-399.138 1903.39,-374.67 1981,-358 2075.73,-337.655 2101.48,-343.279 2196,-322 2240.4,-312.004 2352.6,-286.953 2393,-266 2423.86,-249.997 2454.13,-222.887 2471.67,-205.742"/>
<polygon fill="midnightblue" stroke="midnightblue" points="2474.17,-208.183 2478.78,-198.642 2469.23,-203.229 2474.17,-208.183"/>
</g>
<!-- Node26&#45;&gt;Node28 -->
<g id="edge65" class="edge"><title>Node26&#45;&gt;Node28</title>
<path fill="none" stroke="midnightblue" d="M1768.65,-418.675C1830.19,-407.81 1928.89,-390.382 1991.54,-379.322"/>
<polygon fill="midnightblue" stroke="midnightblue" points="1992.41,-382.722 2001.65,-377.536 1991.2,-375.828 1992.41,-382.722"/>
</g>
<!-- Node27&#45;&gt;Node9 -->
<g id="edge60" class="edge"><title>Node27&#45;&gt;Node9</title>
<path fill="none" stroke="midnightblue" d="M2458.6,-179.413C2390.84,-158.924 2219.64,-107.161 2143.05,-84.0055"/>
<polygon fill="midnightblue" stroke="midnightblue" points="2143.91,-80.609 2133.33,-81.065 2141.89,-87.3094 2143.91,-80.609"/>
</g>
<!-- Node27&#45;&gt;Node11 -->
<g id="edge61" class="edge"><title>Node27&#45;&gt;Node11</title>
<path fill="none" stroke="midnightblue" d="M2433.18,-180.846C2428.39,-180.218 2423.61,-179.595 2419,-179 2318.91,-166.068 2202.97,-151.537 2131.05,-142.575"/>
<polygon fill="midnightblue" stroke="midnightblue" points="2131.12,-139.057 2120.76,-141.294 2130.25,-146.003 2131.12,-139.057"/>
</g>
<!-- Node27&#45;&gt;Node12 -->
<g id="edge63" class="edge"><title>Node27&#45;&gt;Node12</title>
<path fill="none" stroke="midnightblue" d="M2489.27,-179.413C2492.98,-166.385 2501.24,-141.218 2514,-123 2523.48,-109.461 2537.16,-96.8816 2548.5,-87.6642"/>
<polygon fill="midnightblue" stroke="midnightblue" points="2550.9,-90.2324 2556.62,-81.3108 2546.59,-84.7215 2550.9,-90.2324"/>
</g>
<!-- Node27&#45;&gt;Node14 -->
<g id="edge64" class="edge"><title>Node27&#45;&gt;Node14</title>
<path fill="none" stroke="midnightblue" d="M2508.3,-179.448C2542,-166.13 2609.88,-140.184 2669,-123 2736.61,-103.348 2817.59,-86.6852 2860.95,-78.3035"/>
<polygon fill="midnightblue" stroke="midnightblue" points="2861.72,-81.7203 2870.88,-76.4021 2860.4,-74.8452 2861.72,-81.7203"/>
</g>
<!-- Node27&#45;&gt;Node19 -->
<g id="edge62" class="edge"><title>Node27&#45;&gt;Node19</title>
<path fill="none" stroke="midnightblue" d="M2433.3,-185.703C2389.6,-183.847 2326.32,-181.194 2271,-179 1811.04,-160.757 1251.41,-140.358 1109.79,-135.223"/>
<polygon fill="midnightblue" stroke="midnightblue" points="1109.71,-131.718 1099.59,-134.853 1109.45,-138.713 1109.71,-131.718"/>
</g>
<!-- Node28&#45;&gt;Node8 -->
<g id="edge69" class="edge"><title>Node28&#45;&gt;Node8</title>
<path fill="none" stroke="midnightblue" d="M2050,-358.083C2050,-351.006 2050,-340.861 2050,-331.986"/>
<polygon fill="midnightblue" stroke="midnightblue" points="2053.5,-331.751 2050,-321.751 2046.5,-331.751 2053.5,-331.751"/>
</g>
<!-- Node28&#45;&gt;Node10 -->
<g id="edge67" class="edge"><title>Node28&#45;&gt;Node10</title>
<path fill="none" stroke="midnightblue" d="M2091.51,-358.429C2121.6,-351.223 2162.69,-339.3 2196,-322 2224.65,-307.117 2253.39,-282.94 2270.68,-267.127"/>
<polygon fill="midnightblue" stroke="midnightblue" points="2273.28,-269.493 2278.21,-260.114 2268.51,-264.373 2273.28,-269.493"/>
</g>
<!-- Node28&#45;&gt;Node11 -->
<g id="edge66" class="edge"><title>Node28&#45;&gt;Node11</title>
<path fill="none" stroke="midnightblue" d="M2025.44,-358.437C2007.21,-351.081 1982.73,-338.963 1966,-322 1937.38,-292.979 1912.99,-267.936 1937,-235 1967.8,-192.748 2014.19,-238.011 2049,-199 2060.12,-186.534 2062.81,-167.301 2063.05,-152.986"/>
<polygon fill="midnightblue" stroke="midnightblue" points="2066.55,-152.707 2062.84,-142.783 2059.55,-152.855 2066.55,-152.707"/>
</g>
<!-- Node28&#45;&gt;Node12 -->
<g id="edge70" class="edge"><title>Node28&#45;&gt;Node12</title>
<path fill="none" stroke="midnightblue" d="M2096.81,-358.498C2210.51,-336.784 2495.79,-275.561 2549,-199 2571.66,-166.397 2572.44,-117.726 2570.84,-91.2676"/>
<polygon fill="midnightblue" stroke="midnightblue" points="2574.31,-90.7975 2570.03,-81.1049 2567.33,-91.35 2574.31,-90.7975"/>
</g>
<!-- Node28&#45;&gt;Node13 -->
<g id="edge75" class="edge"><title>Node28&#45;&gt;Node13</title>
<path fill="none" stroke="midnightblue" d="M1990.47,-363.883C1906.28,-358.787 1747.87,-346.667 1615,-322 1409.04,-283.765 1330.81,-320.269 1160,-199 1126.63,-175.307 1143.44,-143.479 1108,-123 1054.03,-91.8091 612.798,-76.968 488.487,-73.3799"/>
<polygon fill="midnightblue" stroke="midnightblue" points="488.212,-69.8708 478.117,-73.0857 488.013,-76.868 488.212,-69.8708"/>
</g>
<!-- Node28&#45;&gt;Node14 -->
<g id="edge74" class="edge"><title>Node28&#45;&gt;Node14</title>
<path fill="none" stroke="midnightblue" d="M2109.76,-361.786C2236.89,-348.866 2541.18,-308.126 2770,-199 2810.83,-179.526 2824.64,-176.537 2855,-143 2869.02,-127.514 2879.38,-105.743 2885.52,-90.5045"/>
<polygon fill="midnightblue" stroke="midnightblue" points="2888.79,-91.7464 2889.08,-81.1557 2882.25,-89.2515 2888.79,-91.7464"/>
</g>
<!-- Node28&#45;&gt;Node17 -->
<g id="edge68" class="edge"><title>Node28&#45;&gt;Node17</title>
<path fill="none" stroke="midnightblue" d="M2019.74,-358.413C1952.69,-339.385 1790.58,-293.381 1702.45,-268.371"/>
<polygon fill="midnightblue" stroke="midnightblue" points="1703.17,-264.939 1692.6,-265.575 1701.26,-271.673 1703.17,-264.939"/>
</g>
<!-- Node28&#45;&gt;Node19 -->
<g id="edge71" class="edge"><title>Node28&#45;&gt;Node19</title>
<path fill="none" stroke="midnightblue" d="M1990.08,-360.108C1865.55,-345.135 1583.11,-307.619 1496,-266 1469.27,-253.23 1421.98,-191.231 1395,-179 1344.61,-156.157 1181.58,-141.745 1110.11,-136.375"/>
<polygon fill="midnightblue" stroke="midnightblue" points="1110.08,-132.864 1099.85,-135.62 1109.57,-139.845 1110.08,-132.864"/>
</g>
<!-- Node28&#45;&gt;Node24 -->
<g id="edge72" class="edge"><title>Node28&#45;&gt;Node24</title>
<path fill="none" stroke="midnightblue" d="M2022.72,-358.453C2005.71,-351.548 1985.17,-339.971 1975,-322 1965.98,-306.072 1970.74,-284.986 1976.36,-270.036"/>
<polygon fill="midnightblue" stroke="midnightblue" points="1979.76,-270.971 1980.41,-260.396 1973.31,-268.256 1979.76,-270.971"/>
</g>
<!-- Node28&#45;&gt;Node29 -->
<g id="edge73" class="edge"><title>Node28&#45;&gt;Node29</title>
<path fill="none" stroke="midnightblue" d="M2109.65,-362.897C2256.43,-352.8 2633.66,-326.85 2777.82,-316.933"/>
<polygon fill="midnightblue" stroke="midnightblue" points="2778.46,-320.398 2788.2,-316.22 2777.98,-313.414 2778.46,-320.398"/>
</g>
<!-- Node30&#45;&gt;Node13 -->
<g id="edge81" class="edge"><title>Node30&#45;&gt;Node13</title>
<path fill="none" stroke="midnightblue" d="M1299.34,-414.418C1230.7,-379.318 1047.31,-284.594 898,-199 841.923,-166.852 834.638,-145.387 774,-123 674.277,-86.1829 547.238,-76.1978 488.491,-73.497"/>
<polygon fill="midnightblue" stroke="midnightblue" points="488.476,-69.9934 478.339,-73.0726 488.184,-76.9873 488.476,-69.9934"/>
</g>
<!-- Node30&#45;&gt;Node20 -->
<g id="edge78" class="edge"><title>Node30&#45;&gt;Node20</title>
<path fill="none" stroke="midnightblue" d="M1324.25,-414.347C1317.55,-381.605 1298.68,-298.577 1268,-235 1263.22,-225.086 1256.4,-214.915 1250.38,-206.756"/>
<polygon fill="midnightblue" stroke="midnightblue" points="1253.14,-204.613 1244.29,-198.8 1247.59,-208.868 1253.14,-204.613"/>
</g>
<!-- Node30&#45;&gt;Node21 -->
<g id="edge82" class="edge"><title>Node30&#45;&gt;Node21</title>
<path fill="none" stroke="midnightblue" d="M1328.67,-414.295C1333.46,-373.433 1347.3,-255.551 1352.76,-209.12"/>
<polygon fill="midnightblue" stroke="midnightblue" points="1356.26,-209.286 1353.95,-198.946 1349.31,-208.469 1356.26,-209.286"/>
</g>
<!-- Node30&#45;&gt;Node27 -->
<g id="edge79" class="edge"><title>Node30&#45;&gt;Node27</title>
<path fill="none" stroke="midnightblue" d="M1382.6,-421.595C1551.66,-400.528 2052.49,-337.561 2125,-322 2155.38,-315.48 2161.9,-309.725 2192,-302 2265.54,-283.127 2291.51,-300.778 2359,-266 2377.18,-256.633 2376.04,-246.426 2393,-235 2412.42,-221.914 2436.24,-210.557 2455.03,-202.526"/>
<polygon fill="midnightblue" stroke="midnightblue" points="2456.47,-205.717 2464.36,-198.638 2453.78,-199.257 2456.47,-205.717"/>
</g>
<!-- Node30&#45;&gt;Node28 -->
<g id="edge80" class="edge"><title>Node30&#45;&gt;Node28</title>
<path fill="none" stroke="midnightblue" d="M1382.53,-423.93C1512.67,-413.22 1837.11,-386.52 1980.26,-374.74"/>
<polygon fill="midnightblue" stroke="midnightblue" points="1980.57,-378.226 1990.25,-373.918 1979.99,-371.25 1980.57,-378.226"/>
</g>
<!-- Node31&#45;&gt;Node27 -->
<g id="edge87" class="edge"><title>Node31&#45;&gt;Node27</title>
<path fill="none" stroke="midnightblue" d="M2360.85,-481.388C2357.66,-467.109 2352.69,-437.752 2359,-414 2362.03,-402.586 2446.97,-257.9 2476.78,-207.317"/>
<polygon fill="midnightblue" stroke="midnightblue" points="2479.9,-208.915 2481.97,-198.523 2473.87,-205.359 2479.9,-208.915"/>
</g>
<!-- Node31&#45;&gt;Node32 -->
<g id="edge88" class="edge"><title>Node31&#45;&gt;Node32</title>
<path fill="none" stroke="midnightblue" d="M2368.01,-481.475C2373.16,-472.727 2381.31,-458.869 2387.82,-447.809"/>
<polygon fill="midnightblue" stroke="midnightblue" points="2390.94,-449.403 2392.99,-439.009 2384.91,-445.854 2390.94,-449.403"/>
</g>
<!-- Node33&#45;&gt;Node3 -->
<g id="edge102" class="edge"><title>Node33&#45;&gt;Node3</title>
<path fill="none" stroke="midnightblue" d="M1612.32,-705.408C1618.24,-684.602 1635.38,-630.477 1663,-593 1671.52,-581.437 1683.52,-570.804 1693.84,-562.78"/>
<polygon fill="midnightblue" stroke="midnightblue" points="1696.08,-565.474 1702.01,-556.69 1691.9,-559.863 1696.08,-565.474"/>
</g>
<!-- Node33&#45;&gt;Node11 -->
<g id="edge101" class="edge"><title>Node33&#45;&gt;Node11</title>
<path fill="none" stroke="midnightblue" d="M1610.25,-705.395C1611.43,-678.183 1618.22,-592.515 1657,-537 1695.49,-481.909 1733.25,-496.015 1777,-445 1846.27,-364.223 1813.23,-306.543 1892,-235 1922.07,-207.692 1940.87,-219.395 1976,-199 2001.22,-184.355 2027.6,-163.454 2044.39,-149.34"/>
<polygon fill="midnightblue" stroke="midnightblue" points="2046.9,-151.8 2052.23,-142.647 2042.36,-146.474 2046.9,-151.8"/>
</g>
<!-- Node33&#45;&gt;Node12 -->
<g id="edge118" class="edge"><title>Node33&#45;&gt;Node12</title>
<path fill="none" stroke="midnightblue" d="M1648.51,-711.639C1718.46,-706.881 1870.84,-694.363 1997,-669 2211.2,-625.938 2314.17,-664.591 2459,-501 2558.08,-389.083 2561.76,-341.462 2607,-199 2617.3,-166.582 2628.45,-154.653 2616,-123 2610.53,-109.104 2599.25,-96.7661 2589.1,-87.7639"/>
<polygon fill="midnightblue" stroke="midnightblue" points="2591.27,-85.0114 2581.34,-81.2935 2586.78,-90.3868 2591.27,-85.0114"/>
</g>
<!-- Node33&#45;&gt;Node13 -->
<g id="edge115" class="edge"><title>Node33&#45;&gt;Node13</title>
<path fill="none" stroke="midnightblue" d="M1571.29,-713.043C1443.24,-708.2 1025.62,-678.845 746,-501 638.762,-432.793 604.543,-419.483 523,-322 483.059,-274.252 481.881,-255.616 456,-199 441.43,-167.129 428.139,-157.365 435,-123 437.266,-111.649 442.136,-99.6568 446.616,-90.2084"/>
<polygon fill="midnightblue" stroke="midnightblue" points="449.827,-91.6127 451.183,-81.1049 443.57,-88.474 449.827,-91.6127"/>
</g>
<!-- Node33&#45;&gt;Node22 -->
<g id="edge117" class="edge"><title>Node33&#45;&gt;Node22</title>
<path fill="none" stroke="midnightblue" d="M1594.31,-705.396C1567.33,-689.314 1515,-651.943 1515,-604 1515,-604 1515,-604 1515,-490 1515,-410.331 1695.1,-269.315 1767,-235 1786.94,-225.486 1843.3,-208.804 1879.03,-198.643"/>
<polygon fill="midnightblue" stroke="midnightblue" points="1880.28,-201.927 1888.95,-195.838 1878.37,-195.191 1880.28,-201.927"/>
</g>
<!-- Node33&#45;&gt;Node28 -->
<g id="edge103" class="edge"><title>Node33&#45;&gt;Node28</title>
<path fill="none" stroke="midnightblue" d="M1648.72,-712.397C1754.75,-706.961 2042,-684.779 2042,-604 2042,-604 2042,-604 2042,-546 2042,-530.503 2046.96,-429.72 2049.07,-387.529"/>
<polygon fill="midnightblue" stroke="midnightblue" points="2052.56,-387.675 2049.57,-377.513 2045.57,-387.325 2052.56,-387.675"/>
</g>
<!-- Node34 -->
<g id="node34" class="node"><title>Node34</title>
<g id="a_node34"><a xlink:href="span_8h.html" target="_top" xlink:title="Span information for debugging purposes. ">
<polygon fill="white" stroke="black" points="1781,-593.5 1781,-612.5 1861,-612.5 1861,-593.5 1781,-593.5"/>
<text text-anchor="middle" x="1821" y="-600.5" font-family="Helvetica,sans-Serif" font-size="10.00">tvm/ir/span.h</text>
</a>
</g>
</g>
<!-- Node33&#45;&gt;Node34 -->
<g id="edge104" class="edge"><title>Node33&#45;&gt;Node34</title>
<path fill="none" stroke="midnightblue" d="M1626.56,-705.368C1663.3,-686.211 1751.88,-640.036 1795.65,-617.217"/>
<polygon fill="midnightblue" stroke="midnightblue" points="1797.27,-620.318 1804.52,-612.591 1794.03,-614.111 1797.27,-620.318"/>
</g>
<!-- Node35 -->
<g id="node35" class="node"><title>Node35</title>
<g id="a_node35"><a xlink:href="ir_2type_8h.html" target="_top" xlink:title="IR/AST nodes for the unified type system in TVM. ">
<polygon fill="white" stroke="black" points="1850.5,-649.5 1850.5,-668.5 1927.5,-668.5 1927.5,-649.5 1850.5,-649.5"/>
<text text-anchor="middle" x="1889" y="-656.5" font-family="Helvetica,sans-Serif" font-size="10.00">tvm/ir/type.h</text>
</a>
</g>
</g>
<!-- Node33&#45;&gt;Node35 -->
<g id="edge108" class="edge"><title>Node33&#45;&gt;Node35</title>
<path fill="none" stroke="midnightblue" d="M1648.5,-706.548C1698.5,-696.872 1785.79,-679.975 1840.33,-669.42"/>
<polygon fill="midnightblue" stroke="midnightblue" points="1841.29,-672.798 1850.45,-667.462 1839.96,-665.926 1841.29,-672.798"/>
</g>
<!-- Node33&#45;&gt;Node36 -->
<g id="edge116" class="edge"><title>Node33&#45;&gt;Node36</title>
<path fill="none" stroke="midnightblue" d="M1571.26,-712.699C1476.25,-709.154 1224.25,-697.604 1016,-669 1014.89,-668.848 1013.78,-668.686 1012.65,-668.515"/>
<polygon fill="midnightblue" stroke="midnightblue" points="1012.83,-664.997 1002.39,-666.785 1011.67,-671.899 1012.83,-664.997"/>
</g>
<!-- Node34&#45;&gt;Node3 -->
<g id="edge106" class="edge"><title>Node34&#45;&gt;Node3</title>
<path fill="none" stroke="midnightblue" d="M1803.97,-593.324C1786.97,-584.664 1760.62,-571.242 1741.01,-561.249"/>
<polygon fill="midnightblue" stroke="midnightblue" points="1742.49,-558.075 1731.99,-556.655 1739.31,-564.312 1742.49,-558.075"/>
</g>
<!-- Node34&#45;&gt;Node11 -->
<g id="edge105" class="edge"><title>Node34&#45;&gt;Node11</title>
<path fill="none" stroke="midnightblue" d="M1836.29,-593.439C1877.52,-570.264 1994.29,-504.073 2089,-445 2119.54,-425.951 2341.98,-297.713 2359,-266 2408.09,-174.558 2233.32,-146.374 2131.03,-137.753"/>
<polygon fill="midnightblue" stroke="midnightblue" points="2131.01,-134.24 2120.76,-136.932 2130.45,-141.218 2131.01,-134.24"/>
</g>
<!-- Node34&#45;&gt;Node13 -->
<g id="edge107" class="edge"><title>Node34&#45;&gt;Node13</title>
<path fill="none" stroke="midnightblue" d="M1780.92,-598.368C1617.34,-583.139 1000.57,-521.659 822,-445 813.816,-441.487 562.767,-271.791 556,-266 499.37,-217.537 469.212,-212.391 442,-143 435.255,-125.799 440.995,-104.912 447.035,-90.3568"/>
<polygon fill="midnightblue" stroke="midnightblue" points="450.329,-91.5697 451.311,-81.0205 443.965,-88.6546 450.329,-91.5697"/>
</g>
<!-- Node35&#45;&gt;Node3 -->
<g id="edge111" class="edge"><title>Node35&#45;&gt;Node3</title>
<path fill="none" stroke="midnightblue" d="M1888.97,-649.094C1888.43,-635.176 1885.31,-608.283 1870,-593 1844.86,-567.903 1806.6,-556.627 1774.39,-551.639"/>
<polygon fill="midnightblue" stroke="midnightblue" points="1774.55,-548.128 1764.17,-550.23 1773.6,-555.062 1774.55,-548.128"/>
</g>
<!-- Node35&#45;&gt;Node11 -->
<g id="edge109" class="edge"><title>Node35&#45;&gt;Node11</title>
<path fill="none" stroke="midnightblue" d="M1927.85,-651.919C2040.51,-633.538 2363.93,-575.232 2437,-501 2459.76,-477.873 2456,-462.951 2456,-430.5 2456,-430.5 2456,-430.5 2456,-367 2456,-270.859 2428.11,-233.638 2349,-179 2314.57,-155.218 2204.18,-143.359 2130.78,-137.959"/>
<polygon fill="midnightblue" stroke="midnightblue" points="2130.9,-134.459 2120.68,-137.239 2130.4,-141.441 2130.9,-134.459"/>
</g>
<!-- Node35&#45;&gt;Node13 -->
<g id="edge114" class="edge"><title>Node35&#45;&gt;Node13</title>
<path fill="none" stroke="midnightblue" d="M1850.5,-649.852C1790.89,-637.295 1672.64,-612.611 1572,-593 1296.9,-539.391 1196.81,-593.327 959,-445 761.514,-321.822 739.82,-251.87 546,-123 525.164,-109.146 500.277,-95.3785 481.959,-85.7262"/>
<polygon fill="midnightblue" stroke="midnightblue" points="483.521,-82.5935 473.036,-81.0751 480.286,-88.8009 483.521,-82.5935"/>
</g>
<!-- Node35&#45;&gt;Node20 -->
<g id="edge110" class="edge"><title>Node35&#45;&gt;Node20</title>
<path fill="none" stroke="midnightblue" d="M1890.95,-649.419C1896.61,-622.277 1910.55,-536.796 1876,-481 1813.47,-380.038 1644.45,-340.346 1372,-235 1339.57,-222.462 1302.01,-210.111 1274.75,-201.53"/>
<polygon fill="midnightblue" stroke="midnightblue" points="1275.79,-198.188 1265.2,-198.546 1273.7,-204.87 1275.79,-198.188"/>
</g>
<!-- Node35&#45;&gt;Node28 -->
<g id="edge112" class="edge"><title>Node35&#45;&gt;Node28</title>
<path fill="none" stroke="midnightblue" d="M1902.24,-649.353C1913.95,-641.15 1930.87,-627.89 1942,-613 1997.75,-538.4 2032.54,-430.494 2044.91,-387.597"/>
<polygon fill="midnightblue" stroke="midnightblue" points="2048.35,-388.299 2047.69,-377.725 2041.61,-386.403 2048.35,-388.299"/>
</g>
<!-- Node35&#45;&gt;Node34 -->
<g id="edge113" class="edge"><title>Node35&#45;&gt;Node34</title>
<path fill="none" stroke="midnightblue" d="M1878.07,-649.324C1867.83,-641.185 1852.28,-628.839 1840,-619.087"/>
<polygon fill="midnightblue" stroke="midnightblue" points="1842.13,-616.312 1832.12,-612.834 1837.78,-621.794 1842.13,-616.312"/>
</g>
<!-- Node37&#45;&gt;Node3 -->
<g id="edge120" class="edge"><title>Node37&#45;&gt;Node3</title>
<path fill="none" stroke="midnightblue" d="M750.853,-761.429C777.637,-738.669 854.889,-676.575 931,-649 1064.91,-600.483 1497.08,-564.244 1655.81,-552.268"/>
<polygon fill="midnightblue" stroke="midnightblue" points="1656.16,-555.752 1665.87,-551.514 1655.63,-548.771 1656.16,-555.752"/>
</g>
<!-- Node37&#45;&gt;Node13 -->
<g id="edge123" class="edge"><title>Node37&#45;&gt;Node13</title>
<path fill="none" stroke="midnightblue" d="M729.749,-761.36C673.183,-716.999 420.431,-507.516 366,-266 350.223,-195.994 409.841,-121.152 439.797,-88.8673"/>
<polygon fill="midnightblue" stroke="midnightblue" points="442.676,-90.9192 447.042,-81.2656 437.609,-86.0897 442.676,-90.9192"/>
</g>
<!-- Node37&#45;&gt;Node20 -->
<g id="edge121" class="edge"><title>Node37&#45;&gt;Node20</title>
<path fill="none" stroke="midnightblue" d="M738.438,-761.249C733.251,-742.738 722,-698.179 722,-660 722,-660 722,-660 722,-546 722,-485.587 1110.43,-261.599 1212.61,-203.721"/>
<polygon fill="midnightblue" stroke="midnightblue" points="1214.6,-206.617 1221.59,-198.65 1211.16,-200.523 1214.6,-206.617"/>
</g>
<!-- Node37&#45;&gt;Node33 -->
<g id="edge122" class="edge"><title>Node37&#45;&gt;Node33</title>
<path fill="none" stroke="midnightblue" d="M778.062,-767.697C916.611,-759.087 1404.16,-728.791 1561.01,-719.044"/>
<polygon fill="midnightblue" stroke="midnightblue" points="1561.52,-722.519 1571.29,-718.406 1561.09,-715.533 1561.52,-722.519"/>
</g>
<!-- Node38&#45;&gt;Node13 -->
<g id="edge128" class="edge"><title>Node38&#45;&gt;Node13</title>
<path fill="none" stroke="midnightblue" d="M620.129,-817.365C601.871,-809.525 575.738,-796.789 556,-781 381.14,-641.121 266,-592.924 266,-369 266,-369 266,-369 266,-188 266,-157.205 267.598,-144.131 290,-123 326.797,-88.2905 386.746,-77.3878 423.64,-73.9941"/>
<polygon fill="midnightblue" stroke="midnightblue" points="424.152,-77.4648 433.847,-73.193 423.604,-70.4863 424.152,-77.4648"/>
</g>
<!-- Node38&#45;&gt;Node28 -->
<g id="edge125" class="edge"><title>Node38&#45;&gt;Node28</title>
<path fill="none" stroke="midnightblue" d="M685.653,-825.791C872.777,-824.675 1607.94,-817.975 1836,-781 1923.74,-766.774 1949.73,-767.124 2028,-725 2061.88,-706.77 2077.84,-703.91 2094,-669 2129.11,-593.167 2100.02,-564.078 2091,-481 2087.74,-451 2091.06,-442.075 2080,-414 2076.05,-403.972 2069.61,-393.888 2063.71,-385.816"/>
<polygon fill="midnightblue" stroke="midnightblue" points="2066.31,-383.455 2057.43,-377.667 2060.76,-387.726 2066.31,-383.455"/>
</g>
<!-- Node38&#45;&gt;Node33 -->
<g id="edge126" class="edge"><title>Node38&#45;&gt;Node33</title>
<path fill="none" stroke="midnightblue" d="M685.79,-821.024C845.218,-802.907 1394.06,-740.539 1561.26,-721.538"/>
<polygon fill="midnightblue" stroke="midnightblue" points="1561.72,-725.009 1571.26,-720.402 1560.93,-718.054 1561.72,-725.009"/>
</g>
<!-- Node38&#45;&gt;Node37 -->
<g id="edge127" class="edge"><title>Node38&#45;&gt;Node37</title>
<path fill="none" stroke="midnightblue" d="M657.906,-817.324C673.638,-808.743 697.942,-795.486 716.209,-785.522"/>
<polygon fill="midnightblue" stroke="midnightblue" points="718.03,-788.516 725.133,-780.655 714.678,-782.37 718.03,-788.516"/>
</g>
<!-- Node39&#45;&gt;Node2 -->
<g id="edge154" class="edge"><title>Node39&#45;&gt;Node2</title>
<path fill="none" stroke="midnightblue" d="M363.9,-1097.23C342.998,-1076.03 295.469,-1021.09 324,-985 397.52,-891.993 780.695,-883.494 920.166,-883.538"/>
<polygon fill="midnightblue" stroke="midnightblue" points="920.554,-887.039 930.561,-883.558 920.567,-880.039 920.554,-887.039"/>
</g>
<!-- Node39&#45;&gt;Node13 -->
<g id="edge174" class="edge"><title>Node39&#45;&gt;Node13</title>
<path fill="none" stroke="midnightblue" d="M325.713,-1100.5C233.37,-1088.43 38,-1055.84 38,-996 38,-996 38,-996 38,-188 38,-151.28 57.1544,-141.281 89,-123 145.869,-90.3542 344.984,-77.675 423.662,-73.8668"/>
<polygon fill="midnightblue" stroke="midnightblue" points="424.111,-77.3497 433.937,-73.3872 423.785,-70.3573 424.111,-77.3497"/>
</g>
<!-- Node39&#45;&gt;Node19 -->
<g id="edge173" class="edge"><title>Node39&#45;&gt;Node19</title>
<path fill="none" stroke="midnightblue" d="M325.873,-1098.64C271.651,-1087.17 190,-1059.39 190,-996 190,-996 190,-996 190,-938 190,-804.459 304,-793.541 304,-660 304,-660 304,-660 304,-602 304,-437.589 755.309,-231.832 911,-179 955.847,-163.782 1008.86,-150.058 1042.46,-141.875"/>
<polygon fill="midnightblue" stroke="midnightblue" points="1043.33,-145.265 1052.23,-139.517 1041.69,-138.46 1043.33,-145.265"/>
</g>
<!-- Node39&#45;&gt;Node29 -->
<g id="edge171" class="edge"><title>Node39&#45;&gt;Node29</title>
<path fill="none" stroke="midnightblue" d="M420.125,-1106.3C642.336,-1107.41 1607.64,-1109.1 2397,-1061 2537.26,-1052.45 3026,-1136.52 3026,-996 3026,-996 3026,-996 3026,-546 3026,-441.856 2910.46,-358.765 2859.11,-326.977"/>
<polygon fill="midnightblue" stroke="midnightblue" points="2860.67,-323.834 2850.31,-321.645 2857.05,-329.821 2860.67,-323.834"/>
</g>
<!-- Node39&#45;&gt;Node38 -->
<g id="edge155" class="edge"><title>Node39&#45;&gt;Node38</title>
<path fill="none" stroke="midnightblue" d="M341.537,-1097.48C298.891,-1083.8 228,-1052.56 228,-996 228,-996 228,-996 228,-938 228,-864.26 476.431,-838.756 588.401,-831.007"/>
<polygon fill="midnightblue" stroke="midnightblue" points="588.734,-834.492 598.477,-830.332 588.266,-827.508 588.734,-834.492"/>
</g>
<!-- Node40 -->
<g id="node40" class="node"><title>Node40</title>
<g id="a_node40"><a xlink:href="schedule_8h.html" target="_top" xlink:title="Define a schedule. ">
<polygon fill="white" stroke="black" points="429.5,-1041.5 429.5,-1060.5 532.5,-1060.5 532.5,-1041.5 429.5,-1041.5"/>
<text text-anchor="middle" x="481" y="-1048.5" font-family="Helvetica,sans-Serif" font-size="10.00">tvm/te/schedule.h</text>
</a>
</g>
</g>
<!-- Node39&#45;&gt;Node40 -->
<g id="edge136" class="edge"><title>Node39&#45;&gt;Node40</title>
<path fill="none" stroke="midnightblue" d="M390.352,-1097.32C407.672,-1088.66 434.515,-1075.24 454.502,-1065.25"/>
<polygon fill="midnightblue" stroke="midnightblue" points="456.312,-1068.26 463.691,-1060.65 453.181,-1062 456.312,-1068.26"/>
</g>
<!-- Node44 -->
<g id="node44" class="node"><title>Node44</title>
<g id="a_node44"><a xlink:href="tir_2function_8h.html" target="_top" xlink:title="TIR Function. ">
<polygon fill="white" stroke="black" points="872,-985.5 872,-1004.5 970,-1004.5 970,-985.5 872,-985.5"/>
<text text-anchor="middle" x="921" y="-992.5" font-family="Helvetica,sans-Serif" font-size="10.00">tvm/tir/function.h</text>
</a>
</g>
</g>
<!-- Node39&#45;&gt;Node44 -->
<g id="edge156" class="edge"><title>Node39&#45;&gt;Node44</title>
<path fill="none" stroke="midnightblue" d="M415.545,-1097.46C514.575,-1077.58 760.281,-1028.26 868.453,-1006.55"/>
<polygon fill="midnightblue" stroke="midnightblue" points="869.367,-1009.93 878.482,-1004.53 867.989,-1003.07 869.367,-1009.93"/>
</g>
<!-- Node47 -->
<g id="node47" class="node"><title>Node47</title>
<polygon fill="white" stroke="#bfbfbf" points="2646,-761.5 2646,-780.5 2732,-780.5 2732,-761.5 2646,-761.5"/>
<text text-anchor="middle" x="2689" y="-768.5" font-family="Helvetica,sans-Serif" font-size="10.00">unordered_set</text>
</g>
<!-- Node39&#45;&gt;Node47 -->
<g id="edge172" class="edge"><title>Node39&#45;&gt;Node47</title>
<path fill="none" stroke="midnightblue" d="M420.207,-1105.26C770.355,-1099.62 2950,-1061.89 2950,-996 2950,-996 2950,-996 2950,-938 2950,-840.353 2818.32,-797.672 2742.02,-781.138"/>
<polygon fill="midnightblue" stroke="midnightblue" points="2742.6,-777.683 2732.1,-779.066 2741.17,-784.536 2742.6,-777.683"/>
</g>
<!-- Node40&#45;&gt;Node2 -->
<g id="edge137" class="edge"><title>Node40&#45;&gt;Node2</title>
<path fill="none" stroke="midnightblue" d="M485.936,-1041.35C499.561,-1018.41 540.205,-955.901 593,-929 649.147,-900.391 831.398,-889.434 920.722,-885.706"/>
<polygon fill="midnightblue" stroke="midnightblue" points="921.031,-889.196 930.882,-885.296 920.749,-882.202 921.031,-889.196"/>
</g>
<!-- Node40&#45;&gt;Node13 -->
<g id="edge152" class="edge"><title>Node40&#45;&gt;Node13</title>
<path fill="none" stroke="midnightblue" d="M429.232,-1043.6C336.581,-1030.7 152,-997.742 152,-940 152,-940 152,-940 152,-882 152,-777.712 76,-764.288 76,-660 76,-660 76,-660 76,-188 76,-153.844 88.392,-141.66 117,-123 167.234,-90.2339 348.559,-77.7573 423.372,-73.9337"/>
<polygon fill="midnightblue" stroke="midnightblue" points="423.793,-77.4174 433.609,-73.431 423.449,-70.4258 423.793,-77.4174"/>
</g>
<!-- Node40&#45;&gt;Node29 -->
<g id="edge153" class="edge"><title>Node40&#45;&gt;Node29</title>
<path fill="none" stroke="midnightblue" d="M532.646,-1049.6C881.027,-1046.23 2874,-1016.28 2874,-772 2874,-772 2874,-772 2874,-546 2874,-524.599 2848.08,-383.219 2838.5,-331.721"/>
<polygon fill="midnightblue" stroke="midnightblue" points="2841.9,-330.859 2836.63,-321.67 2835.02,-332.142 2841.9,-330.859"/>
</g>
<!-- Node41 -->
<g id="node41" class="node"><title>Node41</title>
<g id="a_node41"><a xlink:href="tensor_8h.html" target="_top" xlink:title="Dataflow tensor object. ">
<polygon fill="white" stroke="red" points="602,-929.5 602,-948.5 692,-948.5 692,-929.5 602,-929.5"/>
<text text-anchor="middle" x="647" y="-936.5" font-family="Helvetica,sans-Serif" font-size="10.00">tvm/te/tensor.h</text>
</a>
</g>
</g>
<!-- Node40&#45;&gt;Node41 -->
<g id="edge138" class="edge"><title>Node40&#45;&gt;Node41</title>
<path fill="none" stroke="midnightblue" d="M494.026,-1041.37C522.511,-1022.49 590.583,-977.385 625.516,-954.237"/>
<polygon fill="midnightblue" stroke="midnightblue" points="627.632,-957.033 634.035,-948.591 623.765,-951.198 627.632,-957.033"/>
</g>
<!-- Node42 -->
<g id="node42" class="node"><title>Node42</title>
<g id="a_node42"><a xlink:href="tensor__intrin_8h.html" target="_top" xlink:title="Tensor intrinsic operations. ">
<polygon fill="white" stroke="black" points="333,-985.5 333,-1004.5 453,-1004.5 453,-985.5 333,-985.5"/>
<text text-anchor="middle" x="393" y="-992.5" font-family="Helvetica,sans-Serif" font-size="10.00">tvm/te/tensor_intrin.h</text>
</a>
</g>
</g>
<!-- Node40&#45;&gt;Node42 -->
<g id="edge145" class="edge"><title>Node40&#45;&gt;Node42</title>
<path fill="none" stroke="midnightblue" d="M466.861,-1041.32C453.134,-1032.9 432.064,-1019.97 415.936,-1010.07"/>
<polygon fill="midnightblue" stroke="midnightblue" points="417.457,-1006.9 407.104,-1004.65 413.796,-1012.87 417.457,-1006.9"/>
</g>
<!-- Node43 -->
<g id="node43" class="node"><title>Node43</title>
<g id="a_node43"><a xlink:href="with_8h.html" target="_top" xlink:title="RAII wrapper function to enter and exit a context object similar to python&#39;s with syntax...">
<polygon fill="white" stroke="black" points="2977,-123.5 2977,-142.5 3083,-142.5 3083,-123.5 2977,-123.5"/>
<text text-anchor="middle" x="3030" y="-130.5" font-family="Helvetica,sans-Serif" font-size="10.00">tvm/support/with.h</text>
</a>
</g>
</g>
<!-- Node40&#45;&gt;Node43 -->
<g id="edge149" class="edge"><title>Node40&#45;&gt;Node43</title>
<path fill="none" stroke="midnightblue" d="M532.549,-1049.84C720.465,-1048.94 1386.4,-1043.08 1934,-1005 2164.56,-988.966 2221.29,-974.487 2451,-949 2765.24,-914.134 3140,-1088.17 3140,-772 3140,-772 3140,-772 3140,-367 3140,-278.338 3074.06,-187.298 3044.29,-150.709"/>
<polygon fill="midnightblue" stroke="midnightblue" points="3046.64,-148.067 3037.56,-142.614 3041.26,-152.542 3046.64,-148.067"/>
</g>
<!-- Node41&#45;&gt;Node2 -->
<g id="edge140" class="edge"><title>Node41&#45;&gt;Node2</title>
<path fill="none" stroke="midnightblue" d="M692.051,-930.492C752.17,-920.472 858.301,-902.783 920.884,-892.353"/>
<polygon fill="midnightblue" stroke="midnightblue" points="921.627,-895.777 930.916,-890.681 920.476,-888.872 921.627,-895.777"/>
</g>
<!-- Node41&#45;&gt;Node12 -->
<g id="edge144" class="edge"><title>Node41&#45;&gt;Node12</title>
<path fill="none" stroke="midnightblue" d="M692.119,-936.587C910.835,-929.721 1855.59,-899.903 1987,-893 2335.41,-874.697 2461.03,-999.049 2770,-837 2859.31,-790.156 2912,-760.854 2912,-660 2912,-660 2912,-660 2912,-546 2912,-437.552 2971.21,-391.52 2910,-302 2830.53,-185.781 2671.01,-112.385 2602.03,-84.8353"/>
<polygon fill="midnightblue" stroke="midnightblue" points="2603.12,-81.5021 2592.53,-81.1037 2600.56,-88.0175 2603.12,-81.5021"/>
</g>
<!-- Node41&#45;&gt;Node13 -->
<g id="edge141" class="edge"><title>Node41&#45;&gt;Node13</title>
<path fill="none" stroke="midnightblue" d="M601.789,-934.403C539.955,-928.704 433.118,-915.835 402,-893 320.734,-833.366 190,-592.798 190,-492 190,-492 190,-492 190,-188 190,-87.1962 352.714,-73.4209 423.619,-72.2036"/>
<polygon fill="midnightblue" stroke="midnightblue" points="423.813,-75.702 433.779,-72.1054 423.745,-68.7024 423.813,-75.702"/>
</g>
<!-- Node41&#45;&gt;Node14 -->
<g id="edge143" class="edge"><title>Node41&#45;&gt;Node14</title>
<path fill="none" stroke="midnightblue" d="M692.172,-936.539C749.719,-934.695 852.246,-931.466 940,-929 1738.95,-906.552 1948.31,-972.546 2736,-837 2882.46,-811.797 3064,-920.613 3064,-772 3064,-772 3064,-772 3064,-367 3064,-254.542 3203.37,-209.076 3131,-123 3104.66,-91.6779 2982.21,-78.8814 2923.52,-74.4795"/>
<polygon fill="midnightblue" stroke="midnightblue" points="2923.57,-70.974 2913.35,-73.7527 2923.07,-77.9562 2923.57,-70.974"/>
</g>
<!-- Node41&#45;&gt;Node19 -->
<g id="edge142" class="edge"><title>Node41&#45;&gt;Node19</title>
<path fill="none" stroke="midnightblue" d="M601.933,-935.678C558.503,-931.757 492.173,-921.233 442,-893 407.207,-873.422 380,-867.923 380,-828 380,-828 380,-828 380,-770 380,-406.31 904.297,-194.835 1042.79,-145.319"/>
<polygon fill="midnightblue" stroke="midnightblue" points="1044.18,-148.538 1052.44,-141.906 1041.85,-141.938 1044.18,-148.538"/>
</g>
<!-- Node41&#45;&gt;Node28 -->
<g id="edge139" class="edge"><title>Node41&#45;&gt;Node28</title>
<path fill="none" stroke="midnightblue" d="M692.42,-936.27C993.233,-924.757 2687.86,-859.002 2736,-837 2772.31,-820.406 2798,-811.923 2798,-772 2798,-772 2798,-772 2798,-714 2798,-529.171 2687.82,-464.4 2510,-414 2375.64,-375.918 2211.36,-368.817 2119.94,-368.174"/>
<polygon fill="midnightblue" stroke="midnightblue" points="2119.72,-364.673 2109.7,-368.127 2119.68,-371.673 2119.72,-364.673"/>
</g>
<!-- Node42&#45;&gt;Node13 -->
<g id="edge148" class="edge"><title>Node42&#45;&gt;Node13</title>
<path fill="none" stroke="midnightblue" d="M377.2,-985.455C318.18,-952.26 114,-825.466 114,-660 114,-660 114,-660 114,-188 114,-157.205 114.196,-142.538 138,-123 181.257,-87.4951 351.372,-76.637 423.45,-73.5909"/>
<polygon fill="midnightblue" stroke="midnightblue" points="423.891,-77.0762 433.744,-73.1813 423.613,-70.0817 423.891,-77.0762"/>
</g>
<!-- Node42&#45;&gt;Node38 -->
<g id="edge147" class="edge"><title>Node42&#45;&gt;Node38</title>
<path fill="none" stroke="midnightblue" d="M401.635,-985.392C414.977,-972.338 441.709,-947.135 467,-929 516.9,-893.218 580.378,-859.148 615.537,-841.178"/>
<polygon fill="midnightblue" stroke="midnightblue" points="617.331,-844.193 624.667,-836.549 614.165,-837.949 617.331,-844.193"/>
</g>
<!-- Node42&#45;&gt;Node41 -->
<g id="edge146" class="edge"><title>Node42&#45;&gt;Node41</title>
<path fill="none" stroke="midnightblue" d="M433.247,-985.444C477.65,-976.004 549.153,-960.802 597.088,-950.611"/>
<polygon fill="midnightblue" stroke="midnightblue" points="597.888,-954.02 606.941,-948.516 596.432,-947.173 597.888,-954.02"/>
</g>
<!-- Node43&#45;&gt;Node9 -->
<g id="edge150" class="edge"><title>Node43&#45;&gt;Node9</title>
<path fill="none" stroke="midnightblue" d="M2976.95,-128.587C2814.01,-118.107 2322.02,-86.4598 2158.5,-75.9411"/>
<polygon fill="midnightblue" stroke="midnightblue" points="2158.41,-72.4285 2148.21,-75.2792 2157.96,-79.414 2158.41,-72.4285"/>
</g>
<!-- Node43&#45;&gt;Node14 -->
<g id="edge151" class="edge"><title>Node43&#45;&gt;Node14</title>
<path fill="none" stroke="midnightblue" d="M3010.23,-123.475C2986.86,-113.401 2947.79,-96.5525 2921,-85.0023"/>
<polygon fill="midnightblue" stroke="midnightblue" points="2922.3,-81.7544 2911.74,-81.0091 2919.53,-88.1824 2922.3,-81.7544"/>
</g>
<!-- Node44&#45;&gt;Node2 -->
<g id="edge162" class="edge"><title>Node44&#45;&gt;Node2</title>
<path fill="none" stroke="midnightblue" d="M922.627,-985.269C925.211,-972.483 930.913,-948.112 940,-929 944.727,-919.059 951.537,-908.885 957.571,-900.731"/>
<polygon fill="midnightblue" stroke="midnightblue" points="960.361,-902.845 963.679,-892.783 954.81,-898.58 960.361,-902.845"/>
</g>
<!-- Node44&#45;&gt;Node13 -->
<g id="edge170" class="edge"><title>Node44&#45;&gt;Node13</title>
<path fill="none" stroke="midnightblue" d="M871.618,-989.602C753.517,-978.34 458.446,-945.594 376,-893 203.894,-783.209 152,-696.143 152,-492 152,-492 152,-492 152,-188 152,-151.822 170.351,-142.223 201,-123 271.496,-78.7856 372.727,-72.0647 423.848,-71.7646"/>
<polygon fill="midnightblue" stroke="midnightblue" points="423.96,-75.2647 433.967,-71.7868 423.975,-68.2647 423.96,-75.2647"/>
</g>
<!-- Node44&#45;&gt;Node38 -->
<g id="edge163" class="edge"><title>Node44&#45;&gt;Node38</title>
<path fill="none" stroke="midnightblue" d="M906.393,-985.309C860.817,-958.192 720.961,-874.98 665.252,-841.834"/>
<polygon fill="midnightblue" stroke="midnightblue" points="666.846,-838.711 656.463,-836.605 663.267,-844.726 666.846,-838.711"/>
</g>
<!-- Node45 -->
<g id="node45" class="node"><title>Node45</title>
<g id="a_node45"><a xlink:href="ir_2function_8h.html" target="_top" xlink:title="Function nodes. ">
<polygon fill="white" stroke="red" points="2241.5,-761.5 2241.5,-780.5 2336.5,-780.5 2336.5,-761.5 2241.5,-761.5"/>
<text text-anchor="middle" x="2289" y="-768.5" font-family="Helvetica,sans-Serif" font-size="10.00">tvm/ir/function.h</text>
</a>
</g>
</g>
<!-- Node44&#45;&gt;Node45 -->
<g id="edge157" class="edge"><title>Node44&#45;&gt;Node45</title>
<path fill="none" stroke="midnightblue" d="M970.277,-993.795C1184.12,-992.074 2030.72,-976.42 2249,-837 2265.88,-826.221 2276.77,-805.516 2282.86,-790.361"/>
<polygon fill="midnightblue" stroke="midnightblue" points="2286.15,-791.54 2286.32,-780.946 2279.58,-789.122 2286.15,-791.54"/>
</g>
<!-- Node46 -->
<g id="node46" class="node"><title>Node46</title>
<g id="a_node46"><a xlink:href="stmt_8h.html" target="_top" xlink:title="TIR statements. ">
<polygon fill="white" stroke="black" points="949.5,-929.5 949.5,-948.5 1032.5,-948.5 1032.5,-929.5 949.5,-929.5"/>
<text text-anchor="middle" x="991" y="-936.5" font-family="Helvetica,sans-Serif" font-size="10.00">tvm/tir/stmt.h</text>
</a>
</g>
</g>
<!-- Node44&#45;&gt;Node46 -->
<g id="edge164" class="edge"><title>Node44&#45;&gt;Node46</title>
<path fill="none" stroke="midnightblue" d="M932.247,-985.324C942.797,-977.185 958.801,-964.839 971.442,-955.087"/>
<polygon fill="midnightblue" stroke="midnightblue" points="973.769,-957.713 979.549,-948.834 969.493,-952.171 973.769,-957.713"/>
</g>
<!-- Node45&#45;&gt;Node8 -->
<g id="edge159" class="edge"><title>Node45&#45;&gt;Node8</title>
<path fill="none" stroke="midnightblue" d="M2290.23,-761.4C2295.84,-718.672 2315.23,-526.775 2229,-414 2193.56,-367.65 2130.36,-339.304 2089.33,-324.873"/>
<polygon fill="midnightblue" stroke="midnightblue" points="2090.25,-321.49 2079.66,-321.585 2088,-328.118 2090.25,-321.49"/>
</g>
<!-- Node45&#45;&gt;Node12 -->
<g id="edge160" class="edge"><title>Node45&#45;&gt;Node12</title>
<path fill="none" stroke="midnightblue" d="M2336.67,-761.513C2416.84,-745.871 2570,-709.508 2570,-660 2570,-660 2570,-660 2570,-602 2570,-396.087 2618.97,-348.434 2633,-143 2633.61,-134.132 2636.88,-130.999 2633,-123 2625.3,-107.12 2609.92,-94.7288 2596.17,-86.1953"/>
<polygon fill="midnightblue" stroke="midnightblue" points="2597.87,-83.1353 2587.46,-81.1468 2594.35,-89.1909 2597.87,-83.1353"/>
</g>
<!-- Node45&#45;&gt;Node13 -->
<g id="edge161" class="edge"><title>Node45&#45;&gt;Node13</title>
<path fill="none" stroke="midnightblue" d="M2241.21,-763.713C2013.36,-733.149 1037.56,-595.431 774,-445 667.783,-384.376 642.64,-360.496 565,-266 517.53,-208.224 479.427,-126.935 463.743,-90.9165"/>
<polygon fill="midnightblue" stroke="midnightblue" points="466.764,-89.0817 459.609,-81.268 460.33,-91.8383 466.764,-89.0817"/>
</g>
<!-- Node45&#45;&gt;Node33 -->
<g id="edge158" class="edge"><title>Node45&#45;&gt;Node33</title>
<path fill="none" stroke="midnightblue" d="M2241.25,-766.203C2116.91,-756.314 1784.05,-729.842 1658.68,-719.871"/>
<polygon fill="midnightblue" stroke="midnightblue" points="1658.85,-716.374 1648.6,-719.07 1658.29,-723.352 1658.85,-716.374"/>
</g>
<!-- Node46&#45;&gt;Node2 -->
<g id="edge165" class="edge"><title>Node46&#45;&gt;Node2</title>
<path fill="none" stroke="midnightblue" d="M987.697,-929.083C985.018,-921.849 981.151,-911.409 977.814,-902.397"/>
<polygon fill="midnightblue" stroke="midnightblue" points="980.996,-900.913 974.241,-892.751 974.432,-903.344 980.996,-900.913"/>
</g>
<!-- Node46&#45;&gt;Node12 -->
<g id="edge166" class="edge"><title>Node46&#45;&gt;Node12</title>
<path fill="none" stroke="midnightblue" d="M1032.81,-937.971C1281.95,-937.656 2565.87,-934.042 2736,-893 2856.78,-863.864 2988,-896.242 2988,-772 2988,-772 2988,-772 2988,-714 2988,-560.666 2987,-522.334 2987,-369 2987,-369 2987,-369 2987,-249.5 2987,-88.5751 2721.04,-71.7585 2613.42,-71.5418"/>
<polygon fill="midnightblue" stroke="midnightblue" points="2613.2,-68.0423 2603.21,-71.5706 2613.22,-75.0423 2613.2,-68.0423"/>
</g>
<!-- Node46&#45;&gt;Node13 -->
<g id="edge167" class="edge"><title>Node46&#45;&gt;Node13</title>
<path fill="none" stroke="midnightblue" d="M949.465,-938.277C823.764,-938.011 456,-928.633 456,-828 456,-828 456,-828 456,-770 456,-665.712 380,-652.288 380,-548 380,-548 380,-548 380,-490 380,-404.388 304,-398.612 304,-313 304,-313 304,-313 304,-188 304,-128.195 379.518,-95.3149 424.095,-81.1157"/>
<polygon fill="midnightblue" stroke="midnightblue" points="425.349,-84.3924 433.898,-78.1337 423.312,-77.6954 425.349,-84.3924"/>
</g>
<!-- Node46&#45;&gt;Node14 -->
<g id="edge169" class="edge"><title>Node46&#45;&gt;Node14</title>
<path fill="none" stroke="midnightblue" d="M1032.91,-937.666C1294.62,-935.495 2699.22,-922.53 2888,-893 2909.74,-889.599 3061.92,-852.032 3078,-837 3100.49,-815.967 3102,-802.795 3102,-772 3102,-772 3102,-772 3102,-367 3102,-310.283 3153.78,-316.29 3180,-266 3209.7,-209.042 3242.6,-171.949 3201,-123 3165.59,-81.3366 2995.02,-73.9687 2923.58,-72.7238"/>
<polygon fill="midnightblue" stroke="midnightblue" points="2923.44,-69.2215 2913.39,-72.5767 2923.34,-76.2208 2923.44,-69.2215"/>
</g>
<!-- Node46&#45;&gt;Node19 -->
<g id="edge168" class="edge"><title>Node46&#45;&gt;Node19</title>
<path fill="none" stroke="midnightblue" d="M949.457,-936.867C836.47,-932.668 532,-913.427 532,-828 532,-828 532,-828 532,-714 532,-557.366 959.415,-222.71 1056.53,-148.692"/>
<polygon fill="midnightblue" stroke="midnightblue" points="1058.79,-151.371 1064.64,-142.535 1054.56,-145.796 1058.79,-151.371"/>
</g>
<!-- Node48&#45;&gt;Node2 -->
<g id="edge191" class="edge"><title>Node48&#45;&gt;Node2</title>
<path fill="none" stroke="midnightblue" d="M1871.49,-1041.32C1866.97,-1018.27 1851.22,-955.545 1810,-929 1743.78,-886.354 1192.12,-883.636 1021.25,-883.829"/>
<polygon fill="midnightblue" stroke="midnightblue" points="1021.02,-880.329 1011.03,-883.844 1021.03,-887.329 1021.02,-880.329"/>
</g>
<!-- Node48&#45;&gt;Node44 -->
<g id="edge192" class="edge"><title>Node48&#45;&gt;Node44</title>
<path fill="none" stroke="midnightblue" d="M1823.82,-1047.21C1663.2,-1038.1 1154.38,-1009.24 980.177,-999.357"/>
<polygon fill="midnightblue" stroke="midnightblue" points="980.352,-995.861 970.17,-998.789 979.956,-1002.85 980.352,-995.861"/>
</g>
<!-- Node48&#45;&gt;Node46 -->
<g id="edge193" class="edge"><title>Node48&#45;&gt;Node46</title>
<path fill="none" stroke="midnightblue" d="M1823.69,-1043.85C1669.96,-1024.68 1200.29,-966.102 1042.97,-946.482"/>
<polygon fill="midnightblue" stroke="midnightblue" points="1042.99,-942.956 1032.63,-945.192 1042.12,-949.903 1042.99,-942.956"/>
</g>
<!-- Node49 -->
<g id="node49" class="node"><title>Node49</title>
<g id="a_node49"><a xlink:href="ir_2module_8h.html" target="_top" xlink:title="IRModule that holds the functions and type definitions. ">
<polygon fill="white" stroke="black" points="2148,-817.5 2148,-836.5 2240,-836.5 2240,-817.5 2148,-817.5"/>
<text text-anchor="middle" x="2194" y="-824.5" font-family="Helvetica,sans-Serif" font-size="10.00">tvm/ir/module.h</text>
</a>
</g>
</g>
<!-- Node48&#45;&gt;Node49 -->
<g id="edge176" class="edge"><title>Node48&#45;&gt;Node49</title>
<path fill="none" stroke="midnightblue" d="M1885.58,-1041.3C1934.43,-1007.52 2111.77,-884.871 2173.02,-842.509"/>
<polygon fill="midnightblue" stroke="midnightblue" points="2175.27,-845.209 2181.5,-836.643 2171.29,-839.452 2175.27,-845.209"/>
</g>
<!-- Node49&#45;&gt;Node13 -->
<g id="edge187" class="edge"><title>Node49&#45;&gt;Node13</title>
<path fill="none" stroke="midnightblue" d="M2147.9,-826.08C1902.12,-826.32 754.897,-825.074 695,-781 575.073,-692.753 478.164,-193.745 459.32,-90.9996"/>
<polygon fill="midnightblue" stroke="midnightblue" points="462.764,-90.3714 457.533,-81.1577 455.876,-91.6221 462.764,-90.3714"/>
</g>
<!-- Node49&#45;&gt;Node19 -->
<g id="edge188" class="edge"><title>Node49&#45;&gt;Node19</title>
<path fill="none" stroke="midnightblue" d="M2147.66,-823.873C1938.47,-813.185 1085.82,-757.656 936,-557 835.205,-422.008 1007.24,-210.553 1060.84,-150.436"/>
<polygon fill="midnightblue" stroke="midnightblue" points="1063.73,-152.457 1067.84,-142.692 1058.54,-147.762 1063.73,-152.457"/>
</g>
<!-- Node49&#45;&gt;Node29 -->
<g id="edge189" class="edge"><title>Node49&#45;&gt;Node29</title>
<path fill="none" stroke="midnightblue" d="M2240.2,-819.48C2332.07,-805.667 2533.23,-770.918 2584,-725 2606.84,-704.343 2608,-690.795 2608,-660 2608,-660 2608,-660 2608,-602 2608,-541.875 2661.33,-548.65 2698,-501 2716.19,-477.359 2719.56,-470.524 2735,-445 2757.86,-407.214 2755.2,-392.316 2783,-358 2792.16,-346.693 2804.38,-335.953 2814.68,-327.803"/>
<polygon fill="midnightblue" stroke="midnightblue" points="2816.95,-330.47 2822.76,-321.61 2812.69,-324.913 2816.95,-330.47"/>
</g>
<!-- Node49&#45;&gt;Node33 -->
<g id="edge178" class="edge"><title>Node49&#45;&gt;Node33</title>
<path fill="none" stroke="midnightblue" d="M2147.89,-826.552C2065.59,-826.406 1888.65,-820.936 1746,-781 1703.81,-769.187 1658.63,-745.021 1632.42,-729.714"/>
<polygon fill="midnightblue" stroke="midnightblue" points="1634.05,-726.61 1623.66,-724.515 1630.47,-732.629 1634.05,-726.61"/>
</g>
<!-- Node49&#45;&gt;Node35 -->
<g id="edge177" class="edge"><title>Node49&#45;&gt;Node35</title>
<path fill="none" stroke="midnightblue" d="M2178.03,-817.309C2128,-790.08 1974.05,-706.292 1913.67,-673.426"/>
<polygon fill="midnightblue" stroke="midnightblue" points="1915.27,-670.311 1904.81,-668.605 1911.92,-676.46 1915.27,-670.311"/>
</g>
<!-- Node49&#45;&gt;Node45 -->
<g id="edge179" class="edge"><title>Node49&#45;&gt;Node45</title>
<path fill="none" stroke="midnightblue" d="M2209.26,-817.324C2224.22,-808.822 2247.25,-795.729 2264.73,-785.797"/>
<polygon fill="midnightblue" stroke="midnightblue" points="2266.81,-788.639 2273.77,-780.655 2263.35,-782.553 2266.81,-788.639"/>
</g>
<!-- Node49&#45;&gt;Node47 -->
<g id="edge190" class="edge"><title>Node49&#45;&gt;Node47</title>
<path fill="none" stroke="midnightblue" d="M2240.12,-820.968C2332.15,-810.929 2538.09,-788.463 2635.71,-777.814"/>
<polygon fill="midnightblue" stroke="midnightblue" points="2636.1,-781.292 2645.66,-776.728 2635.34,-774.334 2636.1,-781.292"/>
</g>
<!-- Node50 -->
<g id="node50" class="node"><title>Node50</title>
<g id="a_node50"><a xlink:href="ir_2adt_8h.html" target="_top" xlink:title="Algebraic data type definitions. ">
<polygon fill="white" stroke="black" points="1755,-761.5 1755,-780.5 1827,-780.5 1827,-761.5 1755,-761.5"/>
<text text-anchor="middle" x="1791" y="-768.5" font-family="Helvetica,sans-Serif" font-size="10.00">tvm/ir/adt.h</text>
</a>
</g>
</g>
<!-- Node49&#45;&gt;Node50 -->
<g id="edge180" class="edge"><title>Node49&#45;&gt;Node50</title>
<path fill="none" stroke="midnightblue" d="M2147.77,-819.806C2070.21,-809.412 1914.76,-788.584 1837.21,-778.192"/>
<polygon fill="midnightblue" stroke="midnightblue" points="1837.63,-774.717 1827.25,-776.858 1836.7,-781.655 1837.63,-774.717"/>
</g>
<!-- Node50&#45;&gt;Node3 -->
<g id="edge182" class="edge"><title>Node50&#45;&gt;Node3</title>
<path fill="none" stroke="midnightblue" d="M1788.02,-761.297C1776.79,-728.494 1736.87,-611.884 1721.29,-566.377"/>
<polygon fill="midnightblue" stroke="midnightblue" points="1724.59,-565.211 1718.04,-556.884 1717.97,-567.478 1724.59,-565.211"/>
</g>
<!-- Node50&#45;&gt;Node11 -->
<g id="edge181" class="edge"><title>Node50&#45;&gt;Node11</title>
<path fill="none" stroke="midnightblue" d="M1827.21,-769.646C1961.04,-766.066 2425.33,-732.77 2527,-445 2566.52,-333.15 2628.93,-266.655 2549,-179 2521.39,-148.724 2258.55,-138.521 2130.9,-135.333"/>
<polygon fill="midnightblue" stroke="midnightblue" points="2130.92,-131.833 2120.84,-135.089 2130.75,-138.831 2130.92,-131.833"/>
</g>
<!-- Node50&#45;&gt;Node13 -->
<g id="edge186" class="edge"><title>Node50&#45;&gt;Node13</title>
<path fill="none" stroke="midnightblue" d="M1754.88,-770.196C1634.92,-769.921 1239.89,-761.571 931,-669 824.759,-637.161 785.095,-636.732 708,-557 560.367,-404.318 630.698,-296.357 508,-123 498.707,-109.87 485.729,-97.2609 475.064,-87.9266"/>
<polygon fill="midnightblue" stroke="midnightblue" points="477.012,-84.9903 467.12,-81.1953 472.487,-90.3306 477.012,-84.9903"/>
</g>
<!-- Node50&#45;&gt;Node28 -->
<g id="edge183" class="edge"><title>Node50&#45;&gt;Node28</title>
<path fill="none" stroke="midnightblue" d="M1827.02,-764.116C1904.49,-750.441 2080,-713.551 2080,-660 2080,-660 2080,-660 2080,-546 2080,-486.79 2073.65,-472.052 2062,-414 2060.23,-405.171 2057.73,-395.507 2055.47,-387.405"/>
<polygon fill="midnightblue" stroke="midnightblue" points="2058.76,-386.189 2052.62,-377.551 2052.03,-388.13 2058.76,-386.189"/>
</g>
<!-- Node50&#45;&gt;Node33 -->
<g id="edge184" class="edge"><title>Node50&#45;&gt;Node33</title>
<path fill="none" stroke="midnightblue" d="M1762.32,-761.444C1731.47,-752.241 1682.27,-737.562 1648.17,-727.388"/>
<polygon fill="midnightblue" stroke="midnightblue" points="1649.13,-724.021 1638.55,-724.516 1647.13,-730.729 1649.13,-724.021"/>
</g>
<!-- Node50&#45;&gt;Node35 -->
<g id="edge185" class="edge"><title>Node50&#45;&gt;Node35</title>
<path fill="none" stroke="midnightblue" d="M1798.69,-761.368C1815.01,-743.055 1853.32,-700.049 1874.42,-676.362"/>
<polygon fill="midnightblue" stroke="midnightblue" points="1877.31,-678.386 1881.35,-668.591 1872.08,-673.73 1877.31,-678.386"/>
</g>
</g>
</svg>
