<?xml version="1.0" encoding="UTF-8" standalone="no"?>
<!DOCTYPE svg PUBLIC "-//W3C//DTD SVG 1.1//EN"
 "http://www.w3.org/Graphics/SVG/1.1/DTD/svg11.dtd">
<!-- Generated by graphviz version 2.38.0 (20140413.2041)
 -->
<!-- Title: include/tvm Pages: 1 -->
<svg width="410pt" height="615pt"
 viewBox="0.00 0.00 410.00 615.00" xmlns="http://www.w3.org/2000/svg" xmlns:xlink="http://www.w3.org/1999/xlink">
<g id="graph0" class="graph" transform="scale(1 1) rotate(0) translate(4 611)">
<title>include/tvm</title>
<polygon fill="white" stroke="none" points="-4,4 -4,-611 406,-611 406,4 -4,4"/>
<g id="clust1" class="cluster"><title>clusterdir_d44c64559bbebec7f509842c48db8b23</title>
<g id="a_clust1"><a xlink:href="dir_d44c64559bbebec7f509842c48db8b23.html" target="_top" xlink:title="include">
<polygon fill="#ddddee" stroke="black" points="8,-8 8,-599 394,-599 394,-8 8,-8"/>
<text text-anchor="middle" x="201" y="-587" font-family="Helvetica,sans-Serif" font-size="10.00">include</text>
</a>
</g>
</g>
<g id="clust2" class="cluster"><title>clusterdir_b4c7d8e826c599ba55146c099a14beb5</title>
<g id="a_clust2"><a xlink:href="dir_b4c7d8e826c599ba55146c099a14beb5.html" target="_top">
<polygon fill="#eeeeff" stroke="black" points="16,-16 16,-572 386,-572 386,-16 16,-16"/>
</a>
</g>
</g>
<!-- dir_b4c7d8e826c599ba55146c099a14beb5 -->
<g id="node1" class="node"><title>dir_b4c7d8e826c599ba55146c099a14beb5</title>
<text text-anchor="middle" x="340" y="-543.5" font-family="Helvetica,sans-Serif" font-size="10.00">tvm</text>
</g>
<!-- dir_194ecda214f05a38134392ac6a69b970 -->
<g id="node2" class="node"><title>dir_194ecda214f05a38134392ac6a69b970</title>
<g id="a_node2"><a xlink:href="dir_194ecda214f05a38134392ac6a69b970.html" target="_top" xlink:title="arith">
<polygon fill="white" stroke="black" points="132,-564 78,-564 78,-528 132,-528 132,-564"/>
<text text-anchor="middle" x="105" y="-543.5" font-family="Helvetica,sans-Serif" font-size="10.00">arith</text>
</a>
</g>
</g>
<!-- dir_dc867ff9a37cad1764f1670dc7eba6c1 -->
<g id="node4" class="node"><title>dir_dc867ff9a37cad1764f1670dc7eba6c1</title>
<g id="a_node4"><a xlink:href="dir_dc867ff9a37cad1764f1670dc7eba6c1.html" target="_top" xlink:title="ir">
<polygon fill="white" stroke="black" points="218,-492 164,-492 164,-456 218,-456 218,-492"/>
<text text-anchor="middle" x="191" y="-471.5" font-family="Helvetica,sans-Serif" font-size="10.00">ir</text>
</a>
</g>
</g>
<!-- dir_194ecda214f05a38134392ac6a69b970&#45;&gt;dir_dc867ff9a37cad1764f1670dc7eba6c1 -->
<g id="edge8" class="edge"><title>dir_194ecda214f05a38134392ac6a69b970&#45;&gt;dir_dc867ff9a37cad1764f1670dc7eba6c1</title>
<path fill="none" stroke="black" d="M126.258,-527.697C137.089,-518.881 150.418,-508.032 162.16,-498.474"/>
<polygon fill="black" stroke="black" points="164.44,-501.132 169.986,-492.104 160.021,-495.703 164.44,-501.132"/>
<g id="a_edge8&#45;headlabel"><a xlink:href="dir_000002_000007.html" target="_top" xlink:title="5">
<text text-anchor="middle" x="163.444" y="-503.103" font-family="Helvetica,sans-Serif" font-size="10.00">5</text>
</a>
</g>
</g>
<!-- dir_6cd4295f6ad5aa17e5b568d0e5b190e5 -->
<g id="node5" class="node"><title>dir_6cd4295f6ad5aa17e5b568d0e5b190e5</title>
<g id="a_node5"><a xlink:href="dir_6cd4295f6ad5aa17e5b568d0e5b190e5.html" target="_top" xlink:title="node">
<polygon fill="white" stroke="black" points="184,-132 130,-132 130,-96 184,-96 184,-132"/>
<text text-anchor="middle" x="157" y="-111.5" font-family="Helvetica,sans-Serif" font-size="10.00">node</text>
</a>
</g>
</g>
<!-- dir_194ecda214f05a38134392ac6a69b970&#45;&gt;dir_6cd4295f6ad5aa17e5b568d0e5b190e5 -->
<g id="edge7" class="edge"><title>dir_194ecda214f05a38134392ac6a69b970&#45;&gt;dir_6cd4295f6ad5aa17e5b568d0e5b190e5</title>
<path fill="none" stroke="black" d="M83.3468,-527.831C72.5813,-518.292 60.1618,-505.617 52,-492 30.7488,-456.545 25,-444.336 25,-403 25,-403 25,-403 25,-257 25,-213.261 37.5153,-200.307 67,-168 81.781,-151.804 102.679,-139.083 120.617,-130.168"/>
<polygon fill="black" stroke="black" points="122.154,-133.313 129.68,-125.855 119.146,-126.992 122.154,-133.313"/>
<g id="a_edge7&#45;headlabel"><a xlink:href="dir_000002_000013.html" target="_top" xlink:title="2">
<text text-anchor="middle" x="120.129" y="-134.921" font-family="Helvetica,sans-Serif" font-size="10.00">2</text>
</a>
</g>
</g>
<!-- dir_fb1b1bc11a768ab8cf63a96a73170118 -->
<g id="node8" class="node"><title>dir_fb1b1bc11a768ab8cf63a96a73170118</title>
<g id="a_node8"><a xlink:href="dir_fb1b1bc11a768ab8cf63a96a73170118.html" target="_top" xlink:title="support">
<polygon fill="white" stroke="black" points="330,-132 276,-132 276,-96 330,-96 330,-132"/>
<text text-anchor="middle" x="303" y="-111.5" font-family="Helvetica,sans-Serif" font-size="10.00">support</text>
</a>
</g>
</g>
<!-- dir_194ecda214f05a38134392ac6a69b970&#45;&gt;dir_fb1b1bc11a768ab8cf63a96a73170118 -->
<g id="edge10" class="edge"><title>dir_194ecda214f05a38134392ac6a69b970&#45;&gt;dir_fb1b1bc11a768ab8cf63a96a73170118</title>
<path fill="none" stroke="black" d="M132.067,-541.371C193.266,-531.49 337,-498.155 337,-403 337,-403 337,-403 337,-329 337,-292.989 317.984,-191.151 308.395,-142.086"/>
<polygon fill="black" stroke="black" points="311.811,-141.321 306.447,-132.185 304.943,-142.672 311.811,-141.321"/>
<g id="a_edge10&#45;headlabel"><a xlink:href="dir_000002_000017.html" target="_top" xlink:title="1">
<text text-anchor="middle" x="315.291" y="-141.8" font-family="Helvetica,sans-Serif" font-size="10.00">1</text>
</a>
</g>
</g>
<!-- dir_72c2f11201cd7636dc7624de0754daa5 -->
<g id="node11" class="node"><title>dir_72c2f11201cd7636dc7624de0754daa5</title>
<g id="a_node11"><a xlink:href="dir_72c2f11201cd7636dc7624de0754daa5.html" target="_top" xlink:title="tir">
<polygon fill="white" stroke="black" points="178,-276 124,-276 124,-240 178,-240 178,-276"/>
<text text-anchor="middle" x="151" y="-255.5" font-family="Helvetica,sans-Serif" font-size="10.00">tir</text>
</a>
</g>
</g>
<!-- dir_194ecda214f05a38134392ac6a69b970&#45;&gt;dir_72c2f11201cd7636dc7624de0754daa5 -->
<g id="edge9" class="edge"><title>dir_194ecda214f05a38134392ac6a69b970&#45;&gt;dir_72c2f11201cd7636dc7624de0754daa5</title>
<path fill="none" stroke="black" d="M107.469,-527.722C113.043,-489.027 127.194,-392.482 141,-312 142.447,-303.564 144.136,-294.396 145.709,-286.093"/>
<polygon fill="black" stroke="black" points="149.168,-286.64 147.613,-276.16 142.293,-285.322 149.168,-286.64"/>
<g id="a_edge9&#45;headlabel"><a xlink:href="dir_000002_000010.html" target="_top" xlink:title="5">
<text text-anchor="middle" x="151.28" y="-288.205" font-family="Helvetica,sans-Serif" font-size="10.00">5</text>
</a>
</g>
</g>
<!-- dir_02be2c9d68e402f80df60bd528724ee5 -->
<g id="node3" class="node"><title>dir_02be2c9d68e402f80df60bd528724ee5</title>
<g id="a_node3"><a xlink:href="dir_02be2c9d68e402f80df60bd528724ee5.html" target="_top" xlink:title="driver">
<polygon fill="white" stroke="black" points="284,-564 230,-564 230,-528 284,-528 284,-564"/>
<text text-anchor="middle" x="257" y="-543.5" font-family="Helvetica,sans-Serif" font-size="10.00">driver</text>
</a>
</g>
</g>
<!-- dir_02be2c9d68e402f80df60bd528724ee5&#45;&gt;dir_dc867ff9a37cad1764f1670dc7eba6c1 -->
<g id="edge25" class="edge"><title>dir_02be2c9d68e402f80df60bd528724ee5&#45;&gt;dir_dc867ff9a37cad1764f1670dc7eba6c1</title>
<path fill="none" stroke="black" d="M240.685,-527.697C232.693,-519.22 222.928,-508.864 214.178,-499.583"/>
<polygon fill="black" stroke="black" points="216.534,-496.979 207.127,-492.104 211.441,-501.781 216.534,-496.979"/>
<g id="a_edge25&#45;headlabel"><a xlink:href="dir_000006_000007.html" target="_top" xlink:title="1">
<text text-anchor="middle" x="221.065" y="-495.147" font-family="Helvetica,sans-Serif" font-size="10.00">1</text>
</a>
</g>
</g>
<!-- dir_404558507ed35459f0d7a6d81d8c508d -->
<g id="node7" class="node"><title>dir_404558507ed35459f0d7a6d81d8c508d</title>
<g id="a_node7"><a xlink:href="dir_404558507ed35459f0d7a6d81d8c508d.html" target="_top" xlink:title="runtime">
<polygon fill="white" stroke="red" points="264,-60 210,-60 210,-24 264,-24 264,-60"/>
<text text-anchor="middle" x="237" y="-39.5" font-family="Helvetica,sans-Serif" font-size="10.00">runtime</text>
</a>
</g>
</g>
<!-- dir_02be2c9d68e402f80df60bd528724ee5&#45;&gt;dir_404558507ed35459f0d7a6d81d8c508d -->
<g id="edge24" class="edge"><title>dir_02be2c9d68e402f80df60bd528724ee5&#45;&gt;dir_404558507ed35459f0d7a6d81d8c508d</title>
<path fill="none" stroke="black" d="M284.012,-533.393C309.615,-521.881 345.529,-504.237 355,-492 379.94,-459.778 377,-443.746 377,-403 377,-403 377,-403 377,-185 377,-143.258 374.633,-127.287 347,-96 327.845,-74.3121 297.843,-60.6841 274.008,-52.6869"/>
<polygon fill="black" stroke="black" points="274.81,-49.2698 264.22,-49.5972 272.703,-55.9451 274.81,-49.2698"/>
<g id="a_edge24&#45;headlabel"><a xlink:href="dir_000006_000011.html" target="_top" xlink:title="1">
<text text-anchor="middle" x="279.092" y="-45.1442" font-family="Helvetica,sans-Serif" font-size="10.00">1</text>
</a>
</g>
</g>
<!-- dir_02be2c9d68e402f80df60bd528724ee5&#45;&gt;dir_fb1b1bc11a768ab8cf63a96a73170118 -->
<g id="edge26" class="edge"><title>dir_02be2c9d68e402f80df60bd528724ee5&#45;&gt;dir_fb1b1bc11a768ab8cf63a96a73170118</title>
<path fill="none" stroke="black" d="M284.38,-535.037C303.609,-526.581 328.259,-512.518 342,-492 364.321,-458.671 357,-443.113 357,-403 357,-403 357,-403 357,-329 357,-259.589 329.961,-181.257 314.15,-141.385"/>
<polygon fill="black" stroke="black" points="317.391,-140.062 310.395,-132.105 310.902,-142.688 317.391,-140.062"/>
<g id="a_edge26&#45;headlabel"><a xlink:href="dir_000006_000017.html" target="_top" xlink:title="1">
<text text-anchor="middle" x="321.371" y="-139.829" font-family="Helvetica,sans-Serif" font-size="10.00">1</text>
</a>
</g>
</g>
<!-- dir_5da96592f3a7c442b838b075c58254c2 -->
<g id="node9" class="node"><title>dir_5da96592f3a7c442b838b075c58254c2</title>
<g id="a_node9"><a xlink:href="dir_5da96592f3a7c442b838b075c58254c2.html" target="_top" xlink:title="target">
<polygon fill="white" stroke="black" points="278,-348 224,-348 224,-312 278,-312 278,-348"/>
<text text-anchor="middle" x="251" y="-327.5" font-family="Helvetica,sans-Serif" font-size="10.00">target</text>
</a>
</g>
</g>
<!-- dir_02be2c9d68e402f80df60bd528724ee5&#45;&gt;dir_5da96592f3a7c442b838b075c58254c2 -->
<g id="edge23" class="edge"><title>dir_02be2c9d68e402f80df60bd528724ee5&#45;&gt;dir_5da96592f3a7c442b838b075c58254c2</title>
<path fill="none" stroke="black" d="M256.519,-527.849C255.481,-490.832 253.024,-403.181 251.768,-358.386"/>
<polygon fill="black" stroke="black" points="255.262,-358.13 251.483,-348.232 248.265,-358.327 255.262,-358.13"/>
<g id="a_edge23&#45;headlabel"><a xlink:href="dir_000006_000018.html" target="_top" xlink:title="1">
<text text-anchor="middle" x="258.201" y="-359.144" font-family="Helvetica,sans-Serif" font-size="10.00">1</text>
</a>
</g>
</g>
<!-- dir_f97d855a3173728370e632aa77170e34 -->
<g id="node10" class="node"><title>dir_f97d855a3173728370e632aa77170e34</title>
<g id="a_node10"><a xlink:href="dir_f97d855a3173728370e632aa77170e34.html" target="_top" xlink:title="te">
<polygon fill="white" stroke="black" points="138,-204 84,-204 84,-168 138,-168 138,-204"/>
<text text-anchor="middle" x="111" y="-183.5" font-family="Helvetica,sans-Serif" font-size="10.00">te</text>
</a>
</g>
</g>
<!-- dir_02be2c9d68e402f80df60bd528724ee5&#45;&gt;dir_f97d855a3173728370e632aa77170e34 -->
<g id="edge22" class="edge"><title>dir_02be2c9d68e402f80df60bd528724ee5&#45;&gt;dir_f97d855a3173728370e632aa77170e34</title>
<path fill="none" stroke="black" d="M229.811,-537.903C206.446,-530.381 173.656,-516.171 155,-492 90.3568,-408.248 99.3288,-271.888 106.758,-214.175"/>
<polygon fill="black" stroke="black" points="110.258,-214.415 108.155,-204.031 103.323,-213.46 110.258,-214.415"/>
<g id="a_edge22&#45;headlabel"><a xlink:href="dir_000006_000019.html" target="_top" xlink:title="1">
<text text-anchor="middle" x="112.58" y="-215.863" font-family="Helvetica,sans-Serif" font-size="10.00">1</text>
</a>
</g>
</g>
<!-- dir_dc867ff9a37cad1764f1670dc7eba6c1&#45;&gt;dir_6cd4295f6ad5aa17e5b568d0e5b190e5 -->
<g id="edge28" class="edge"><title>dir_dc867ff9a37cad1764f1670dc7eba6c1&#45;&gt;dir_6cd4295f6ad5aa17e5b568d0e5b190e5</title>
<path fill="none" stroke="black" d="M172.414,-455.83C162.805,-446.103 151.542,-433.254 144,-420 94.1581,-332.409 90.5184,-303.577 75,-204 72.5363,-188.191 67.3503,-182.053 75,-168 84.7784,-150.037 103.555,-137.233 120.675,-128.715"/>
<polygon fill="black" stroke="black" points="122.346,-131.799 129.948,-124.419 119.403,-125.447 122.346,-131.799"/>
<g id="a_edge28&#45;headlabel"><a xlink:href="dir_000007_000013.html" target="_top" xlink:title="12">
<text text-anchor="middle" x="120.278" y="-133.386" font-family="Helvetica,sans-Serif" font-size="10.00">12</text>
</a>
</g>
</g>
<!-- dir_63946bee875c6d52bce55e72a67a86ad -->
<g id="node6" class="node"><title>dir_63946bee875c6d52bce55e72a67a86ad</title>
<g id="a_node6"><a xlink:href="dir_63946bee875c6d52bce55e72a67a86ad.html" target="_top" xlink:title="relay">
<polygon fill="white" stroke="red" points="218,-420 164,-420 164,-384 218,-384 218,-420"/>
<text text-anchor="middle" x="191" y="-399.5" font-family="Helvetica,sans-Serif" font-size="10.00">relay</text>
</a>
</g>
</g>
<!-- dir_dc867ff9a37cad1764f1670dc7eba6c1&#45;&gt;dir_63946bee875c6d52bce55e72a67a86ad -->
<g id="edge27" class="edge"><title>dir_dc867ff9a37cad1764f1670dc7eba6c1&#45;&gt;dir_63946bee875c6d52bce55e72a67a86ad</title>
<path fill="none" stroke="black" d="M185.084,-455.697C184.289,-447.983 184.062,-438.712 184.405,-430.112"/>
<polygon fill="black" stroke="black" points="187.898,-430.324 185.105,-420.104 180.915,-429.836 187.898,-430.324"/>
<g id="a_edge27&#45;headlabel"><a xlink:href="dir_000007_000008.html" target="_top" xlink:title="2">
<text text-anchor="middle" x="190.48" y="-431.608" font-family="Helvetica,sans-Serif" font-size="10.00">2</text>
</a>
</g>
</g>
<!-- dir_dc867ff9a37cad1764f1670dc7eba6c1&#45;&gt;dir_404558507ed35459f0d7a6d81d8c508d -->
<g id="edge29" class="edge"><title>dir_dc867ff9a37cad1764f1670dc7eba6c1&#45;&gt;dir_404558507ed35459f0d7a6d81d8c508d</title>
<path fill="none" stroke="black" d="M218.116,-461.555C236.403,-452.615 259.866,-438.587 275,-420 324.738,-358.913 335.793,-169.714 339,-132 340.356,-116.058 347.306,-109.675 339,-96 324.923,-72.8213 297.05,-59.3162 273.994,-51.7459"/>
<polygon fill="black" stroke="black" points="274.72,-48.309 264.135,-48.7629 272.693,-55.009 274.72,-48.309"/>
<g id="a_edge29&#45;headlabel"><a xlink:href="dir_000007_000011.html" target="_top" xlink:title="8">
<text text-anchor="middle" x="278.983" y="-44.1323" font-family="Helvetica,sans-Serif" font-size="10.00">8</text>
</a>
</g>
</g>
<!-- dir_dc867ff9a37cad1764f1670dc7eba6c1&#45;&gt;dir_fb1b1bc11a768ab8cf63a96a73170118 -->
<g id="edge30" class="edge"><title>dir_dc867ff9a37cad1764f1670dc7eba6c1&#45;&gt;dir_fb1b1bc11a768ab8cf63a96a73170118</title>
<path fill="none" stroke="black" d="M215.585,-455.928C246.898,-431.958 297,-385.145 297,-331 297,-331 297,-331 297,-257 297,-216.96 299.411,-170.627 301.176,-142.065"/>
<polygon fill="black" stroke="black" points="304.672,-142.242 301.815,-132.039 297.686,-141.797 304.672,-142.242"/>
<g id="a_edge30&#45;headlabel"><a xlink:href="dir_000007_000017.html" target="_top" xlink:title="1">
<text text-anchor="middle" x="307.277" y="-143.51" font-family="Helvetica,sans-Serif" font-size="10.00">1</text>
</a>
</g>
</g>
<!-- dir_6cd4295f6ad5aa17e5b568d0e5b190e5&#45;&gt;dir_404558507ed35459f0d7a6d81d8c508d -->
<g id="edge21" class="edge"><title>dir_6cd4295f6ad5aa17e5b568d0e5b190e5&#45;&gt;dir_404558507ed35459f0d7a6d81d8c508d</title>
<path fill="none" stroke="black" d="M176.775,-95.6966C186.754,-86.9655 199.011,-76.2405 209.857,-66.7503"/>
<polygon fill="black" stroke="black" points="212.231,-69.3234 217.452,-60.1043 207.622,-64.0554 212.231,-69.3234"/>
<g id="a_edge21&#45;headlabel"><a xlink:href="dir_000013_000011.html" target="_top" xlink:title="19">
<text text-anchor="middle" x="211.396" y="-71.3272" font-family="Helvetica,sans-Serif" font-size="10.00">19</text>
</a>
</g>
</g>
<!-- dir_63946bee875c6d52bce55e72a67a86ad&#45;&gt;dir_dc867ff9a37cad1764f1670dc7eba6c1 -->
<g id="edge5" class="edge"><title>dir_63946bee875c6d52bce55e72a67a86ad&#45;&gt;dir_dc867ff9a37cad1764f1670dc7eba6c1</title>
<path fill="none" stroke="black" d="M196.895,-420.104C197.701,-427.791 197.937,-437.054 197.604,-445.665"/>
<polygon fill="black" stroke="black" points="194.109,-445.48 196.916,-455.697 201.092,-445.96 194.109,-445.48"/>
<g id="a_edge5&#45;headlabel"><a xlink:href="dir_000008_000007.html" target="_top" xlink:title="32">
<text text-anchor="middle" x="191.522" y="-439.2" font-family="Helvetica,sans-Serif" font-size="10.00">32</text>
</a>
</g>
</g>
<!-- dir_63946bee875c6d52bce55e72a67a86ad&#45;&gt;dir_6cd4295f6ad5aa17e5b568d0e5b190e5 -->
<g id="edge3" class="edge"><title>dir_63946bee875c6d52bce55e72a67a86ad&#45;&gt;dir_6cd4295f6ad5aa17e5b568d0e5b190e5</title>
<path fill="none" stroke="black" d="M191.748,-383.988C192.783,-354.517 193.824,-292.12 187,-240 182.513,-205.728 172.475,-167.174 165.245,-142.062"/>
<polygon fill="black" stroke="black" points="168.517,-140.784 162.342,-132.175 161.801,-142.756 168.517,-140.784"/>
<g id="a_edge3&#45;headlabel"><a xlink:href="dir_000008_000013.html" target="_top" xlink:title="4">
<text text-anchor="middle" x="172.254" y="-140.933" font-family="Helvetica,sans-Serif" font-size="10.00">4</text>
</a>
</g>
</g>
<!-- dir_63946bee875c6d52bce55e72a67a86ad&#45;&gt;dir_404558507ed35459f0d7a6d81d8c508d -->
<g id="edge4" class="edge"><title>dir_63946bee875c6d52bce55e72a67a86ad&#45;&gt;dir_404558507ed35459f0d7a6d81d8c508d</title>
<path fill="none" stroke="black" d="M193.288,-383.817C194.664,-373.445 196.445,-359.965 198,-348 211.324,-245.483 226.808,-123.531 233.559,-70.2142"/>
<polygon fill="black" stroke="black" points="237.042,-70.5612 234.826,-60.2008 230.098,-69.6822 237.042,-70.5612"/>
<g id="a_edge4&#45;headlabel"><a xlink:href="dir_000008_000011.html" target="_top" xlink:title="6">
<text text-anchor="middle" x="239.408" y="-71.9838" font-family="Helvetica,sans-Serif" font-size="10.00">6</text>
</a>
</g>
</g>
<!-- dir_63946bee875c6d52bce55e72a67a86ad&#45;&gt;dir_5da96592f3a7c442b838b075c58254c2 -->
<g id="edge2" class="edge"><title>dir_63946bee875c6d52bce55e72a67a86ad&#45;&gt;dir_5da96592f3a7c442b838b075c58254c2</title>
<path fill="none" stroke="black" d="M205.831,-383.697C213.025,-375.305 221.797,-365.07 229.69,-355.861"/>
<polygon fill="black" stroke="black" points="232.489,-357.975 236.339,-348.104 227.174,-353.419 232.489,-357.975"/>
<g id="a_edge2&#45;headlabel"><a xlink:href="dir_000008_000018.html" target="_top" xlink:title="4">
<text text-anchor="middle" x="232.305" y="-360.052" font-family="Helvetica,sans-Serif" font-size="10.00">4</text>
</a>
</g>
</g>
<!-- dir_63946bee875c6d52bce55e72a67a86ad&#45;&gt;dir_f97d855a3173728370e632aa77170e34 -->
<g id="edge1" class="edge"><title>dir_63946bee875c6d52bce55e72a67a86ad&#45;&gt;dir_f97d855a3173728370e632aa77170e34</title>
<path fill="none" stroke="black" d="M176.565,-383.753C158.357,-360.83 127.874,-318.275 115,-276 108.889,-255.933 108.131,-232.15 108.768,-214.219"/>
<polygon fill="black" stroke="black" points="112.267,-214.323 109.292,-204.154 105.277,-213.959 112.267,-214.323"/>
<g id="a_edge1&#45;headlabel"><a xlink:href="dir_000008_000019.html" target="_top" xlink:title="4">
<text text-anchor="middle" x="114.916" y="-215.56" font-family="Helvetica,sans-Serif" font-size="10.00">4</text>
</a>
</g>
</g>
<!-- dir_63946bee875c6d52bce55e72a67a86ad&#45;&gt;dir_72c2f11201cd7636dc7624de0754daa5 -->
<g id="edge6" class="edge"><title>dir_63946bee875c6d52bce55e72a67a86ad&#45;&gt;dir_72c2f11201cd7636dc7624de0754daa5</title>
<path fill="none" stroke="black" d="M186.175,-383.871C179.328,-359.564 166.724,-314.819 158.609,-286.013"/>
<polygon fill="black" stroke="black" points="161.922,-284.866 155.842,-276.189 155.185,-286.764 161.922,-284.866"/>
<g id="a_edge6&#45;headlabel"><a xlink:href="dir_000008_000010.html" target="_top" xlink:title="3">
<text text-anchor="middle" x="165.63" y="-285.056" font-family="Helvetica,sans-Serif" font-size="10.00">3</text>
</a>
</g>
</g>
<!-- dir_5da96592f3a7c442b838b075c58254c2&#45;&gt;dir_dc867ff9a37cad1764f1670dc7eba6c1 -->
<g id="edge18" class="edge"><title>dir_5da96592f3a7c442b838b075c58254c2&#45;&gt;dir_dc867ff9a37cad1764f1670dc7eba6c1</title>
<path fill="none" stroke="black" d="M248.105,-348.316C244.631,-366.691 237.875,-396.29 227,-420 222.663,-429.455 216.691,-439.075 210.857,-447.477"/>
<polygon fill="black" stroke="black" points="207.912,-445.576 204.902,-455.734 213.59,-449.671 207.912,-445.576"/>
<g id="a_edge18&#45;headlabel"><a xlink:href="dir_000018_000007.html" target="_top" xlink:title="3">
<text text-anchor="middle" x="207.712" y="-438.5" font-family="Helvetica,sans-Serif" font-size="10.00">3</text>
</a>
</g>
</g>
<!-- dir_5da96592f3a7c442b838b075c58254c2&#45;&gt;dir_6cd4295f6ad5aa17e5b568d0e5b190e5 -->
<g id="edge16" class="edge"><title>dir_5da96592f3a7c442b838b075c58254c2&#45;&gt;dir_6cd4295f6ad5aa17e5b568d0e5b190e5</title>
<path fill="none" stroke="black" d="M243.947,-311.992C231.675,-282.526 205.459,-220.136 182,-168 178.057,-159.237 173.62,-149.725 169.591,-141.211"/>
<polygon fill="black" stroke="black" points="172.72,-139.64 165.263,-132.114 166.399,-142.647 172.72,-139.64"/>
<g id="a_edge16&#45;headlabel"><a xlink:href="dir_000018_000013.html" target="_top" xlink:title="1">
<text text-anchor="middle" x="176.828" y="-139.166" font-family="Helvetica,sans-Serif" font-size="10.00">1</text>
</a>
</g>
</g>
<!-- dir_5da96592f3a7c442b838b075c58254c2&#45;&gt;dir_404558507ed35459f0d7a6d81d8c508d -->
<g id="edge17" class="edge"><title>dir_5da96592f3a7c442b838b075c58254c2&#45;&gt;dir_404558507ed35459f0d7a6d81d8c508d</title>
<path fill="none" stroke="black" d="M250.661,-311.737C249.829,-273.072 247.353,-176.583 242,-96 241.446,-87.6643 240.66,-78.6074 239.875,-70.378"/>
<polygon fill="black" stroke="black" points="243.332,-69.7723 238.863,-60.1664 236.366,-70.4629 243.332,-69.7723"/>
<g id="a_edge17&#45;headlabel"><a xlink:href="dir_000018_000011.html" target="_top" xlink:title="2">
<text text-anchor="middle" x="246.512" y="-70.5693" font-family="Helvetica,sans-Serif" font-size="10.00">2</text>
</a>
</g>
</g>
<!-- dir_5da96592f3a7c442b838b075c58254c2&#45;&gt;dir_fb1b1bc11a768ab8cf63a96a73170118 -->
<g id="edge20" class="edge"><title>dir_5da96592f3a7c442b838b075c58254c2&#45;&gt;dir_fb1b1bc11a768ab8cf63a96a73170118</title>
<path fill="none" stroke="black" d="M255.167,-311.849C264.181,-274.753 285.551,-186.81 296.414,-142.103"/>
<polygon fill="black" stroke="black" points="299.852,-142.776 298.813,-132.232 293.05,-141.123 299.852,-142.776"/>
<g id="a_edge20&#45;headlabel"><a xlink:href="dir_000018_000017.html" target="_top" xlink:title="2">
<text text-anchor="middle" x="301.763" y="-144.439" font-family="Helvetica,sans-Serif" font-size="10.00">2</text>
</a>
</g>
</g>
<!-- dir_5da96592f3a7c442b838b075c58254c2&#45;&gt;dir_72c2f11201cd7636dc7624de0754daa5 -->
<g id="edge19" class="edge"><title>dir_5da96592f3a7c442b838b075c58254c2&#45;&gt;dir_72c2f11201cd7636dc7624de0754daa5</title>
<path fill="none" stroke="black" d="M226.537,-311.876C213.704,-302.893 197.804,-291.763 183.906,-282.034"/>
<polygon fill="black" stroke="black" points="185.756,-279.057 175.557,-276.19 181.742,-284.792 185.756,-279.057"/>
<g id="a_edge19&#45;headlabel"><a xlink:href="dir_000018_000010.html" target="_top" xlink:title="1">
<text text-anchor="middle" x="190.329" y="-276.292" font-family="Helvetica,sans-Serif" font-size="10.00">1</text>
</a>
</g>
</g>
<!-- dir_f97d855a3173728370e632aa77170e34&#45;&gt;dir_194ecda214f05a38134392ac6a69b970 -->
<g id="edge11" class="edge"><title>dir_f97d855a3173728370e632aa77170e34&#45;&gt;dir_194ecda214f05a38134392ac6a69b970</title>
<path fill="none" stroke="black" d="M97.0031,-204.176C77.6294,-229.743 45,-280.066 45,-329 45,-403 45,-403 45,-403 45,-446.281 68.9437,-491.546 86.58,-519.017"/>
<polygon fill="black" stroke="black" points="83.8377,-521.215 92.2755,-527.623 89.675,-517.352 83.8377,-521.215"/>
<g id="a_edge11&#45;headlabel"><a xlink:href="dir_000019_000002.html" target="_top" xlink:title="2">
<text text-anchor="middle" x="79.4861" y="-517.285" font-family="Helvetica,sans-Serif" font-size="10.00">2</text>
</a>
</g>
</g>
<!-- dir_f97d855a3173728370e632aa77170e34&#45;&gt;dir_6cd4295f6ad5aa17e5b568d0e5b190e5 -->
<g id="edge12" class="edge"><title>dir_f97d855a3173728370e632aa77170e34&#45;&gt;dir_6cd4295f6ad5aa17e5b568d0e5b190e5</title>
<path fill="none" stroke="black" d="M122.371,-167.697C127.718,-159.559 134.204,-149.689 140.111,-140.701"/>
<polygon fill="black" stroke="black" points="143.193,-142.384 145.76,-132.104 137.343,-138.539 143.193,-142.384"/>
<g id="a_edge12&#45;headlabel"><a xlink:href="dir_000019_000013.html" target="_top" xlink:title="1">
<text text-anchor="middle" x="143.592" y="-144.447" font-family="Helvetica,sans-Serif" font-size="10.00">1</text>
</a>
</g>
</g>
<!-- dir_f97d855a3173728370e632aa77170e34&#45;&gt;dir_404558507ed35459f0d7a6d81d8c508d -->
<g id="edge13" class="edge"><title>dir_f97d855a3173728370e632aa77170e34&#45;&gt;dir_404558507ed35459f0d7a6d81d8c508d</title>
<path fill="none" stroke="black" d="M108.261,-167.833C106.151,-148.494 105.764,-117.026 121,-96 139.523,-70.4376 173.394,-56.9091 199.772,-49.9391"/>
<polygon fill="black" stroke="black" points="200.935,-53.2584 209.827,-47.4973 199.283,-46.4561 200.935,-53.2584"/>
<g id="a_edge13&#45;headlabel"><a xlink:href="dir_000019_000011.html" target="_top" xlink:title="1">
<text text-anchor="middle" x="198.112" y="-54.3657" font-family="Helvetica,sans-Serif" font-size="10.00">1</text>
</a>
</g>
</g>
<!-- dir_f97d855a3173728370e632aa77170e34&#45;&gt;dir_fb1b1bc11a768ab8cf63a96a73170118 -->
<g id="edge15" class="edge"><title>dir_f97d855a3173728370e632aa77170e34&#45;&gt;dir_fb1b1bc11a768ab8cf63a96a73170118</title>
<path fill="none" stroke="black" d="M138.102,-175.119C171.598,-162.907 228.746,-142.072 266.191,-128.42"/>
<polygon fill="black" stroke="black" points="267.53,-131.657 275.726,-124.944 265.132,-125.081 267.53,-131.657"/>
<g id="a_edge15&#45;headlabel"><a xlink:href="dir_000019_000017.html" target="_top" xlink:title="1">
<text text-anchor="middle" x="265.125" y="-133.056" font-family="Helvetica,sans-Serif" font-size="10.00">1</text>
</a>
</g>
</g>
<!-- dir_f97d855a3173728370e632aa77170e34&#45;&gt;dir_72c2f11201cd7636dc7624de0754daa5 -->
<g id="edge14" class="edge"><title>dir_f97d855a3173728370e632aa77170e34&#45;&gt;dir_72c2f11201cd7636dc7624de0754daa5</title>
<path fill="none" stroke="black" d="M126.669,-204.104C132.038,-212.045 137.761,-221.666 142.435,-230.515"/>
<polygon fill="black" stroke="black" points="139.424,-232.319 147.028,-239.697 145.684,-229.187 139.424,-232.319"/>
<g id="a_edge14&#45;headlabel"><a xlink:href="dir_000019_000010.html" target="_top" xlink:title="8">
<text text-anchor="middle" x="135.276" y="-227.875" font-family="Helvetica,sans-Serif" font-size="10.00">8</text>
</a>
</g>
</g>
<!-- dir_72c2f11201cd7636dc7624de0754daa5&#45;&gt;dir_dc867ff9a37cad1764f1670dc7eba6c1 -->
<g id="edge34" class="edge"><title>dir_72c2f11201cd7636dc7624de0754daa5&#45;&gt;dir_dc867ff9a37cad1764f1670dc7eba6c1</title>
<path fill="none" stroke="black" d="M148.295,-276.451C144.304,-306.584 138.927,-369.953 155,-420 158.13,-429.747 163.662,-439.335 169.465,-447.62"/>
<polygon fill="black" stroke="black" points="166.734,-449.812 175.52,-455.733 172.344,-445.625 166.734,-449.812"/>
<g id="a_edge34&#45;headlabel"><a xlink:href="dir_000010_000007.html" target="_top" xlink:title="7">
<text text-anchor="middle" x="162.309" y="-446.13" font-family="Helvetica,sans-Serif" font-size="10.00">7</text>
</a>
</g>
</g>
<!-- dir_72c2f11201cd7636dc7624de0754daa5&#45;&gt;dir_6cd4295f6ad5aa17e5b568d0e5b190e5 -->
<g id="edge32" class="edge"><title>dir_72c2f11201cd7636dc7624de0754daa5&#45;&gt;dir_6cd4295f6ad5aa17e5b568d0e5b190e5</title>
<path fill="none" stroke="black" d="M151.724,-239.871C152.746,-215.67 154.625,-171.211 155.843,-142.393"/>
<polygon fill="black" stroke="black" points="159.348,-142.328 156.274,-132.189 152.355,-142.033 159.348,-142.328"/>
<g id="a_edge32&#45;headlabel"><a xlink:href="dir_000010_000013.html" target="_top" xlink:title="7">
<text text-anchor="middle" x="162.033" y="-143.539" font-family="Helvetica,sans-Serif" font-size="10.00">7</text>
</a>
</g>
</g>
<!-- dir_72c2f11201cd7636dc7624de0754daa5&#45;&gt;dir_404558507ed35459f0d7a6d81d8c508d -->
<g id="edge33" class="edge"><title>dir_72c2f11201cd7636dc7624de0754daa5&#45;&gt;dir_404558507ed35459f0d7a6d81d8c508d</title>
<path fill="none" stroke="black" d="M157.892,-239.849C172.863,-202.597 208.44,-114.067 226.335,-69.5391"/>
<polygon fill="black" stroke="black" points="229.593,-70.8164 230.075,-60.2325 223.098,-68.2061 229.593,-70.8164"/>
<g id="a_edge33&#45;headlabel"><a xlink:href="dir_000010_000011.html" target="_top" xlink:title="3">
<text text-anchor="middle" x="230.888" y="-72.7104" font-family="Helvetica,sans-Serif" font-size="10.00">3</text>
</a>
</g>
</g>
<!-- dir_72c2f11201cd7636dc7624de0754daa5&#45;&gt;dir_f97d855a3173728370e632aa77170e34 -->
<g id="edge31" class="edge"><title>dir_72c2f11201cd7636dc7624de0754daa5&#45;&gt;dir_f97d855a3173728370e632aa77170e34</title>
<path fill="none" stroke="black" d="M135.197,-239.697C129.821,-231.728 124.105,-222.1 119.449,-213.264"/>
<polygon fill="black" stroke="black" points="122.475,-211.49 114.879,-204.104 116.211,-214.615 122.475,-211.49"/>
<g id="a_edge31&#45;headlabel"><a xlink:href="dir_000010_000019.html" target="_top" xlink:title="1">
<text text-anchor="middle" x="126.62" y="-210.939" font-family="Helvetica,sans-Serif" font-size="10.00">1</text>
</a>
</g>
</g>
</g>
</svg>
