<?xml version="1.0" encoding="UTF-8" standalone="no"?>
<!DOCTYPE svg PUBLIC "-//W3C//DTD SVG 1.1//EN"
 "http://www.w3.org/Graphics/SVG/1.1/DTD/svg11.dtd">
<!-- Generated by graphviz version 2.38.0 (20140413.2041)
 -->
<!-- Title: include/tvm/te Pages: 1 -->
<svg width="205pt" height="295pt"
 viewBox="0.00 0.00 205.00 295.00" xmlns="http://www.w3.org/2000/svg" xmlns:xlink="http://www.w3.org/1999/xlink">
<g id="graph0" class="graph" transform="scale(1 1) rotate(0) translate(4 291)">
<title>include/tvm/te</title>
<polygon fill="white" stroke="none" points="-4,4 -4,-291 201,-291 201,4 -4,4"/>
<g id="clust1" class="cluster"><title>clusterdir_b4c7d8e826c599ba55146c099a14beb5</title>
<g id="a_clust1"><a xlink:href="dir_b4c7d8e826c599ba55146c099a14beb5.html" target="_top" xlink:title="tvm">
<polygon fill="#ddddee" stroke="black" points="8,-208 8,-279 78,-279 78,-208 8,-208"/>
<text text-anchor="middle" x="43" y="-267" font-family="Helvetica,sans-Serif" font-size="10.00">tvm</text>
</a>
</g>
</g>
<!-- dir_f97d855a3173728370e632aa77170e34 -->
<g id="node1" class="node"><title>dir_f97d855a3173728370e632aa77170e34</title>
<g id="a_node1"><a xlink:href="dir_f97d855a3173728370e632aa77170e34.html" target="_top" xlink:title="te">
<polygon fill="#eeeeff" stroke="black" points="70,-252 16,-252 16,-216 70,-216 70,-252"/>
<text text-anchor="middle" x="43" y="-231.5" font-family="Helvetica,sans-Serif" font-size="10.00">te</text>
</a>
</g>
</g>
<!-- dir_194ecda214f05a38134392ac6a69b970 -->
<g id="node2" class="node"><title>dir_194ecda214f05a38134392ac6a69b970</title>
<g id="a_node2"><a xlink:href="dir_194ecda214f05a38134392ac6a69b970.html" target="_top" xlink:title="arith">
<polygon fill="none" stroke="black" points="142,-252 88,-252 88,-216 142,-216 142,-252"/>
<text text-anchor="middle" x="115" y="-231.5" font-family="Helvetica,sans-Serif" font-size="10.00">arith</text>
</a>
</g>
</g>
<!-- dir_f97d855a3173728370e632aa77170e34&#45;&gt;dir_194ecda214f05a38134392ac6a69b970 -->
<g id="edge4" class="edge"><title>dir_f97d855a3173728370e632aa77170e34&#45;&gt;dir_194ecda214f05a38134392ac6a69b970</title>
<path fill="none" stroke="black" d="M70.2812,-234C72.7377,-234 75.1942,-234 77.6507,-234"/>
<polygon fill="black" stroke="black" points="77.7495,-237.5 87.7495,-234 77.7495,-230.5 77.7495,-237.5"/>
<g id="a_edge4&#45;headlabel"><a xlink:href="dir_000018_000002.html" target="_top" xlink:title="2">
<text text-anchor="middle" x="74.1549" y="-237.839" font-family="Helvetica,sans-Serif" font-size="10.00">2</text>
</a>
</g>
</g>
<!-- dir_6cd4295f6ad5aa17e5b568d0e5b190e5 -->
<g id="node3" class="node"><title>dir_6cd4295f6ad5aa17e5b568d0e5b190e5</title>
<g id="a_node3"><a xlink:href="dir_6cd4295f6ad5aa17e5b568d0e5b190e5.html" target="_top" xlink:title="node">
<polygon fill="none" stroke="black" points="142,-108 88,-108 88,-72 142,-72 142,-108"/>
<text text-anchor="middle" x="115" y="-87.5" font-family="Helvetica,sans-Serif" font-size="10.00">node</text>
</a>
</g>
</g>
<!-- dir_f97d855a3173728370e632aa77170e34&#45;&gt;dir_6cd4295f6ad5aa17e5b568d0e5b190e5 -->
<g id="edge5" class="edge"><title>dir_f97d855a3173728370e632aa77170e34&#45;&gt;dir_6cd4295f6ad5aa17e5b568d0e5b190e5</title>
<path fill="none" stroke="black" d="M32.5796,-215.825C22.6566,-197.041 11.0082,-166.601 24,-144 35.6668,-123.704 58.4292,-110.451 78.2687,-102.274"/>
<polygon fill="black" stroke="black" points="79.6242,-105.503 87.7119,-98.6592 77.1215,-98.9659 79.6242,-105.503"/>
<g id="a_edge5&#45;headlabel"><a xlink:href="dir_000018_000013.html" target="_top" xlink:title="1">
<text text-anchor="middle" x="77.2823" y="-106.94" font-family="Helvetica,sans-Serif" font-size="10.00">1</text>
</a>
</g>
</g>
<!-- dir_404558507ed35459f0d7a6d81d8c508d -->
<g id="node4" class="node"><title>dir_404558507ed35459f0d7a6d81d8c508d</title>
<g id="a_node4"><a xlink:href="dir_404558507ed35459f0d7a6d81d8c508d.html" target="_top" xlink:title="runtime">
<polygon fill="white" stroke="red" points="142,-36 88,-36 88,-0 142,-0 142,-36"/>
<text text-anchor="middle" x="115" y="-15.5" font-family="Helvetica,sans-Serif" font-size="10.00">runtime</text>
</a>
</g>
</g>
<!-- dir_f97d855a3173728370e632aa77170e34&#45;&gt;dir_404558507ed35459f0d7a6d81d8c508d -->
<g id="edge6" class="edge"><title>dir_f97d855a3173728370e632aa77170e34&#45;&gt;dir_404558507ed35459f0d7a6d81d8c508d</title>
<path fill="none" stroke="black" d="M30.9337,-215.829C19.834,-197.824 6.31412,-168.762 15,-144 29.1943,-103.535 62.607,-66.4381 86.9141,-43.3496"/>
<polygon fill="black" stroke="black" points="89.4989,-45.7259 94.4501,-36.3591 84.7384,-40.5938 89.4989,-45.7259"/>
<g id="a_edge6&#45;headlabel"><a xlink:href="dir_000018_000008.html" target="_top" xlink:title="1">
<text text-anchor="middle" x="88.7945" y="-47.752" font-family="Helvetica,sans-Serif" font-size="10.00">1</text>
</a>
</g>
</g>
<!-- dir_72c2f11201cd7636dc7624de0754daa5 -->
<g id="node5" class="node"><title>dir_72c2f11201cd7636dc7624de0754daa5</title>
<g id="a_node5"><a xlink:href="dir_72c2f11201cd7636dc7624de0754daa5.html" target="_top" xlink:title="tir">
<polygon fill="none" stroke="black" points="197,-180 143,-180 143,-144 197,-144 197,-180"/>
<text text-anchor="middle" x="170" y="-159.5" font-family="Helvetica,sans-Serif" font-size="10.00">tir</text>
</a>
</g>
</g>
<!-- dir_f97d855a3173728370e632aa77170e34&#45;&gt;dir_72c2f11201cd7636dc7624de0754daa5 -->
<g id="edge7" class="edge"><title>dir_f97d855a3173728370e632aa77170e34&#45;&gt;dir_72c2f11201cd7636dc7624de0754daa5</title>
<path fill="none" stroke="black" d="M57.816,-215.82C61.7304,-213.1 65.937,-210.398 70,-208 90.1269,-196.123 113.818,-184.477 133.231,-176.009"/>
<polygon fill="black" stroke="black" points="134.83,-179.133 142.667,-172.003 132.094,-172.689 134.83,-179.133"/>
<g id="a_edge7&#45;headlabel"><a xlink:href="dir_000018_000007.html" target="_top" xlink:title="8">
<text text-anchor="middle" x="132.63" y="-180.651" font-family="Helvetica,sans-Serif" font-size="10.00">8</text>
</a>
</g>
</g>
<!-- dir_fb1b1bc11a768ab8cf63a96a73170118 -->
<g id="node6" class="node"><title>dir_fb1b1bc11a768ab8cf63a96a73170118</title>
<g id="a_node6"><a xlink:href="dir_fb1b1bc11a768ab8cf63a96a73170118.html" target="_top" xlink:title="support">
<polygon fill="none" stroke="black" points="87,-180 33,-180 33,-144 87,-144 87,-180"/>
<text text-anchor="middle" x="60" y="-159.5" font-family="Helvetica,sans-Serif" font-size="10.00">support</text>
</a>
</g>
</g>
<!-- dir_f97d855a3173728370e632aa77170e34&#45;&gt;dir_fb1b1bc11a768ab8cf63a96a73170118 -->
<g id="edge8" class="edge"><title>dir_f97d855a3173728370e632aa77170e34&#45;&gt;dir_fb1b1bc11a768ab8cf63a96a73170118</title>
<path fill="none" stroke="black" d="M47.2022,-215.697C49.0962,-207.898 51.3765,-198.509 53.4843,-189.829"/>
<polygon fill="black" stroke="black" points="56.8872,-190.648 55.8461,-180.104 50.0849,-188.996 56.8872,-190.648"/>
<g id="a_edge8&#45;headlabel"><a xlink:href="dir_000018_000016.html" target="_top" xlink:title="1">
<text text-anchor="middle" x="58.798" y="-192.311" font-family="Helvetica,sans-Serif" font-size="10.00">1</text>
</a>
</g>
</g>
<!-- dir_194ecda214f05a38134392ac6a69b970&#45;&gt;dir_6cd4295f6ad5aa17e5b568d0e5b190e5 -->
<g id="edge1" class="edge"><title>dir_194ecda214f05a38134392ac6a69b970&#45;&gt;dir_6cd4295f6ad5aa17e5b568d0e5b190e5</title>
<path fill="none" stroke="black" d="M115,-215.871C115,-191.67 115,-147.211 115,-118.393"/>
<polygon fill="black" stroke="black" points="118.5,-118.189 115,-108.189 111.5,-118.189 118.5,-118.189"/>
<g id="a_edge1&#45;headlabel"><a xlink:href="dir_000002_000013.html" target="_top" xlink:title="2">
<text text-anchor="middle" x="121.339" y="-119.284" font-family="Helvetica,sans-Serif" font-size="10.00">2</text>
</a>
</g>
</g>
<!-- dir_194ecda214f05a38134392ac6a69b970&#45;&gt;dir_72c2f11201cd7636dc7624de0754daa5 -->
<g id="edge2" class="edge"><title>dir_194ecda214f05a38134392ac6a69b970&#45;&gt;dir_72c2f11201cd7636dc7624de0754daa5</title>
<path fill="none" stroke="black" d="M128.596,-215.697C135.123,-207.389 143.068,-197.277 150.247,-188.141"/>
<polygon fill="black" stroke="black" points="153.135,-190.13 156.561,-180.104 147.631,-185.805 153.135,-190.13"/>
<g id="a_edge2&#45;headlabel"><a xlink:href="dir_000002_000007.html" target="_top" xlink:title="4">
<text text-anchor="middle" x="153.147" y="-192.211" font-family="Helvetica,sans-Serif" font-size="10.00">4</text>
</a>
</g>
</g>
<!-- dir_194ecda214f05a38134392ac6a69b970&#45;&gt;dir_fb1b1bc11a768ab8cf63a96a73170118 -->
<g id="edge3" class="edge"><title>dir_194ecda214f05a38134392ac6a69b970&#45;&gt;dir_fb1b1bc11a768ab8cf63a96a73170118</title>
<path fill="none" stroke="black" d="M101.404,-215.697C94.8773,-207.389 86.932,-197.277 79.7534,-188.141"/>
<polygon fill="black" stroke="black" points="82.3695,-185.805 73.4391,-180.104 76.8653,-190.13 82.3695,-185.805"/>
<g id="a_edge3&#45;headlabel"><a xlink:href="dir_000002_000016.html" target="_top" xlink:title="1">
<text text-anchor="middle" x="86.8229" y="-184.377" font-family="Helvetica,sans-Serif" font-size="10.00">1</text>
</a>
</g>
</g>
<!-- dir_6cd4295f6ad5aa17e5b568d0e5b190e5&#45;&gt;dir_404558507ed35459f0d7a6d81d8c508d -->
<g id="edge9" class="edge"><title>dir_6cd4295f6ad5aa17e5b568d0e5b190e5&#45;&gt;dir_404558507ed35459f0d7a6d81d8c508d</title>
<path fill="none" stroke="black" d="M115,-71.6966C115,-63.9827 115,-54.7125 115,-46.1124"/>
<polygon fill="black" stroke="black" points="118.5,-46.1043 115,-36.1043 111.5,-46.1044 118.5,-46.1043"/>
<g id="a_edge9&#45;headlabel"><a xlink:href="dir_000013_000008.html" target="_top" xlink:title="17">
<text text-anchor="middle" x="121.339" y="-47.199" font-family="Helvetica,sans-Serif" font-size="10.00">17</text>
</a>
</g>
</g>
<!-- dir_72c2f11201cd7636dc7624de0754daa5&#45;&gt;dir_f97d855a3173728370e632aa77170e34 -->
<g id="edge10" class="edge"><title>dir_72c2f11201cd7636dc7624de0754daa5&#45;&gt;dir_f97d855a3173728370e632aa77170e34</title>
<path fill="none" stroke="black" d="M142.912,-178.917C126.645,-187.044 105.911,-197.43 88,-208 85.0264,-209.755 81.976,-211.673 78.9192,-213.641"/>
<polygon fill="black" stroke="black" points="76.8134,-210.836 70.3465,-219.228 80.6354,-216.7 76.8134,-210.836"/>
<g id="a_edge10&#45;headlabel"><a xlink:href="dir_000007_000018.html" target="_top" xlink:title="1">
<text text-anchor="middle" x="78.2747" y="-203.995" font-family="Helvetica,sans-Serif" font-size="10.00">1</text>
</a>
</g>
</g>
<!-- dir_72c2f11201cd7636dc7624de0754daa5&#45;&gt;dir_6cd4295f6ad5aa17e5b568d0e5b190e5 -->
<g id="edge11" class="edge"><title>dir_72c2f11201cd7636dc7624de0754daa5&#45;&gt;dir_6cd4295f6ad5aa17e5b568d0e5b190e5</title>
<path fill="none" stroke="black" d="M156.404,-143.697C149.877,-135.389 141.932,-125.277 134.753,-116.141"/>
<polygon fill="black" stroke="black" points="137.369,-113.805 128.439,-108.104 131.865,-118.13 137.369,-113.805"/>
<g id="a_edge11&#45;headlabel"><a xlink:href="dir_000007_000013.html" target="_top" xlink:title="7">
<text text-anchor="middle" x="141.823" y="-112.377" font-family="Helvetica,sans-Serif" font-size="10.00">7</text>
</a>
</g>
</g>
<!-- dir_72c2f11201cd7636dc7624de0754daa5&#45;&gt;dir_404558507ed35459f0d7a6d81d8c508d -->
<g id="edge12" class="edge"><title>dir_72c2f11201cd7636dc7624de0754daa5&#45;&gt;dir_404558507ed35459f0d7a6d81d8c508d</title>
<path fill="none" stroke="black" d="M168.303,-143.674C166.05,-125.29 161.112,-95.6852 151,-72 146.916,-62.4333 141.012,-52.7836 135.162,-44.3881"/>
<polygon fill="black" stroke="black" points="137.88,-42.1741 129.165,-36.1492 132.22,-46.2938 137.88,-42.1741"/>
<g id="a_edge12&#45;headlabel"><a xlink:href="dir_000007_000008.html" target="_top" xlink:title="2">
<text text-anchor="middle" x="142.291" y="-40.9093" font-family="Helvetica,sans-Serif" font-size="10.00">2</text>
</a>
</g>
</g>
</g>
</svg>
