<?xml version="1.0" encoding="UTF-8" standalone="no"?>
<!DOCTYPE svg PUBLIC "-//W3C//DTD SVG 1.1//EN"
 "http://www.w3.org/Graphics/SVG/1.1/DTD/svg11.dtd">
<!-- Generated by graphviz version 2.38.0 (20140413.2041)
 -->
<!-- Title: include/tvm/relay Pages: 1 -->
<svg width="410pt" height="447pt"
 viewBox="0.00 0.00 410.00 447.00" xmlns="http://www.w3.org/2000/svg" xmlns:xlink="http://www.w3.org/1999/xlink">
<g id="graph0" class="graph" transform="scale(1 1) rotate(0) translate(4 443)">
<title>include/tvm/relay</title>
<polygon fill="white" stroke="none" points="-4,4 -4,-443 406,-443 406,4 -4,4"/>
<g id="clust1" class="cluster"><title>clusterdir_b4c7d8e826c599ba55146c099a14beb5</title>
<g id="a_clust1"><a xlink:href="dir_b4c7d8e826c599ba55146c099a14beb5.html" target="_top" xlink:title="tvm">
<polygon fill="#ddddee" stroke="black" points="211,-272 211,-431 369,-431 369,-272 211,-272"/>
<text text-anchor="middle" x="290" y="-419" font-family="Helvetica,sans-Serif" font-size="10.00">tvm</text>
</a>
</g>
</g>
<g id="clust2" class="cluster"><title>clusterdir_63946bee875c6d52bce55e72a67a86ad</title>
<g id="a_clust2"><a xlink:href="dir_63946bee875c6d52bce55e72a67a86ad.html" target="_top">
<polygon fill="#eeeeff" stroke="black" points="219,-280 219,-404 361,-404 361,-280 219,-280"/>
</a>
</g>
</g>
<!-- dir_63946bee875c6d52bce55e72a67a86ad -->
<g id="node1" class="node"><title>dir_63946bee875c6d52bce55e72a67a86ad</title>
<text text-anchor="middle" x="254" y="-375.5" font-family="Helvetica,sans-Serif" font-size="10.00">relay</text>
</g>
<!-- dir_519be2d4a83a987dbf989f1de527b870 -->
<g id="node2" class="node"><title>dir_519be2d4a83a987dbf989f1de527b870</title>
<g id="a_node2"><a xlink:href="dir_519be2d4a83a987dbf989f1de527b870.html" target="_top" xlink:title="attrs">
<polygon fill="white" stroke="black" points="336,-324 282,-324 282,-288 336,-288 336,-324"/>
<text text-anchor="middle" x="309" y="-303.5" font-family="Helvetica,sans-Serif" font-size="10.00">attrs</text>
</a>
</g>
</g>
<!-- dir_63946bee875c6d52bce55e72a67a86ad&#45;&gt;dir_519be2d4a83a987dbf989f1de527b870 -->
<g id="edge1" class="edge"><title>dir_63946bee875c6d52bce55e72a67a86ad&#45;&gt;dir_519be2d4a83a987dbf989f1de527b870</title>
<path fill="none" stroke="black" d="M267.596,-359.697C274.123,-351.389 282.068,-341.277 289.247,-332.141"/>
<polygon fill="black" stroke="black" points="292.135,-334.13 295.561,-324.104 286.631,-329.805 292.135,-334.13"/>
<g id="a_edge1&#45;headlabel"><a xlink:href="dir_000008_000012.html" target="_top" xlink:title="1">
<text text-anchor="middle" x="292.147" y="-336.211" font-family="Helvetica,sans-Serif" font-size="10.00">1</text>
</a>
</g>
</g>
<!-- dir_f97d855a3173728370e632aa77170e34 -->
<g id="node4" class="node"><title>dir_f97d855a3173728370e632aa77170e34</title>
<g id="a_node4"><a xlink:href="dir_f97d855a3173728370e632aa77170e34.html" target="_top" xlink:title="te">
<polygon fill="none" stroke="black" points="54,-324 0,-324 0,-288 54,-288 54,-324"/>
<text text-anchor="middle" x="27" y="-303.5" font-family="Helvetica,sans-Serif" font-size="10.00">te</text>
</a>
</g>
</g>
<!-- dir_63946bee875c6d52bce55e72a67a86ad&#45;&gt;dir_f97d855a3173728370e632aa77170e34 -->
<g id="edge2" class="edge"><title>dir_63946bee875c6d52bce55e72a67a86ad&#45;&gt;dir_f97d855a3173728370e632aa77170e34</title>
<path fill="none" stroke="black" d="M226.898,-370.326C190.411,-361.104 123.646,-343.392 68,-324 66.5902,-323.509 65.1589,-322.994 63.7175,-322.463"/>
<polygon fill="black" stroke="black" points="64.7674,-319.117 54.1778,-318.783 62.2478,-325.648 64.7674,-319.117"/>
<g id="a_edge2&#45;headlabel"><a xlink:href="dir_000008_000019.html" target="_top" xlink:title="4">
<text text-anchor="middle" x="69.143" y="-315.262" font-family="Helvetica,sans-Serif" font-size="10.00">4</text>
</a>
</g>
</g>
<!-- dir_5da96592f3a7c442b838b075c58254c2 -->
<g id="node5" class="node"><title>dir_5da96592f3a7c442b838b075c58254c2</title>
<g id="a_node5"><a xlink:href="dir_5da96592f3a7c442b838b075c58254c2.html" target="_top" xlink:title="target">
<polygon fill="none" stroke="black" points="203,-324 149,-324 149,-288 203,-288 203,-324"/>
<text text-anchor="middle" x="176" y="-303.5" font-family="Helvetica,sans-Serif" font-size="10.00">target</text>
</a>
</g>
</g>
<!-- dir_63946bee875c6d52bce55e72a67a86ad&#45;&gt;dir_5da96592f3a7c442b838b075c58254c2 -->
<g id="edge3" class="edge"><title>dir_63946bee875c6d52bce55e72a67a86ad&#45;&gt;dir_5da96592f3a7c442b838b075c58254c2</title>
<path fill="none" stroke="black" d="M234.719,-359.697C225.085,-351.05 213.271,-340.449 202.773,-331.027"/>
<polygon fill="black" stroke="black" points="204.839,-328.179 195.059,-324.104 200.164,-333.388 204.839,-328.179"/>
<g id="a_edge3&#45;headlabel"><a xlink:href="dir_000008_000018.html" target="_top" xlink:title="4">
<text text-anchor="middle" x="209.411" y="-325.966" font-family="Helvetica,sans-Serif" font-size="10.00">4</text>
</a>
</g>
</g>
<!-- dir_6cd4295f6ad5aa17e5b568d0e5b190e5 -->
<g id="node6" class="node"><title>dir_6cd4295f6ad5aa17e5b568d0e5b190e5</title>
<g id="a_node6"><a xlink:href="dir_6cd4295f6ad5aa17e5b568d0e5b190e5.html" target="_top" xlink:title="node">
<polygon fill="none" stroke="black" points="157,-108 103,-108 103,-72 157,-72 157,-108"/>
<text text-anchor="middle" x="130" y="-87.5" font-family="Helvetica,sans-Serif" font-size="10.00">node</text>
</a>
</g>
</g>
<!-- dir_63946bee875c6d52bce55e72a67a86ad&#45;&gt;dir_6cd4295f6ad5aa17e5b568d0e5b190e5 -->
<g id="edge4" class="edge"><title>dir_63946bee875c6d52bce55e72a67a86ad&#45;&gt;dir_6cd4295f6ad5aa17e5b568d0e5b190e5</title>
<path fill="none" stroke="black" d="M226.874,-372.645C199.833,-366.728 159.589,-353.305 140,-324 97.6237,-260.607 112.185,-164.386 122.844,-117.946"/>
<polygon fill="black" stroke="black" points="126.291,-118.581 125.235,-108.039 119.486,-116.939 126.291,-118.581"/>
<g id="a_edge4&#45;headlabel"><a xlink:href="dir_000008_000013.html" target="_top" xlink:title="4">
<text text-anchor="middle" x="128.208" y="-120.241" font-family="Helvetica,sans-Serif" font-size="10.00">4</text>
</a>
</g>
</g>
<!-- dir_72c2f11201cd7636dc7624de0754daa5 -->
<g id="node9" class="node"><title>dir_72c2f11201cd7636dc7624de0754daa5</title>
<g id="a_node9"><a xlink:href="dir_72c2f11201cd7636dc7624de0754daa5.html" target="_top" xlink:title="tir">
<polygon fill="none" stroke="black" points="92,-252 38,-252 38,-216 92,-216 92,-252"/>
<text text-anchor="middle" x="65" y="-231.5" font-family="Helvetica,sans-Serif" font-size="10.00">tir</text>
</a>
</g>
</g>
<!-- dir_63946bee875c6d52bce55e72a67a86ad&#45;&gt;dir_72c2f11201cd7636dc7624de0754daa5 -->
<g id="edge5" class="edge"><title>dir_63946bee875c6d52bce55e72a67a86ad&#45;&gt;dir_72c2f11201cd7636dc7624de0754daa5</title>
<path fill="none" stroke="black" d="M226.985,-373.73C194.572,-368.503 140.317,-355.428 106,-324 88.0276,-307.54 77.3309,-281.633 71.3948,-262.005"/>
<polygon fill="black" stroke="black" points="74.6969,-260.816 68.641,-252.122 67.9537,-262.695 74.6969,-260.816"/>
<g id="a_edge5&#45;headlabel"><a xlink:href="dir_000008_000010.html" target="_top" xlink:title="3">
<text text-anchor="middle" x="78.3967" y="-261.017" font-family="Helvetica,sans-Serif" font-size="10.00">3</text>
</a>
</g>
</g>
<!-- dir_dc867ff9a37cad1764f1670dc7eba6c1 -->
<g id="node8" class="node"><title>dir_dc867ff9a37cad1764f1670dc7eba6c1</title>
<g id="a_node8"><a xlink:href="dir_dc867ff9a37cad1764f1670dc7eba6c1.html" target="_top" xlink:title="ir">
<polygon fill="none" stroke="black" points="278,-180 224,-180 224,-144 278,-144 278,-180"/>
<text text-anchor="middle" x="251" y="-159.5" font-family="Helvetica,sans-Serif" font-size="10.00">ir</text>
</a>
</g>
</g>
<!-- dir_519be2d4a83a987dbf989f1de527b870&#45;&gt;dir_dc867ff9a37cad1764f1670dc7eba6c1 -->
<g id="edge6" class="edge"><title>dir_519be2d4a83a987dbf989f1de527b870&#45;&gt;dir_dc867ff9a37cad1764f1670dc7eba6c1</title>
<path fill="none" stroke="black" d="M306.282,-287.708C303.001,-269.352 296.566,-239.771 286,-216 281.812,-206.577 276.013,-196.966 270.339,-188.562"/>
<polygon fill="black" stroke="black" points="273.152,-186.477 264.544,-180.299 267.421,-190.496 273.152,-186.477"/>
<g id="a_edge6&#45;headlabel"><a xlink:href="dir_000012_000007.html" target="_top" xlink:title="11">
<text text-anchor="middle" x="277.54" y="-185.29" font-family="Helvetica,sans-Serif" font-size="10.00">11</text>
</a>
</g>
</g>
<!-- dir_d523279167051dc3aad9a40981221f4d -->
<g id="node3" class="node"><title>dir_d523279167051dc3aad9a40981221f4d</title>
<g id="a_node3"><a xlink:href="dir_d523279167051dc3aad9a40981221f4d.html" target="_top" xlink:title="qnn">
<polygon fill="white" stroke="black" points="353,-396 299,-396 299,-360 353,-360 353,-396"/>
<text text-anchor="middle" x="326" y="-375.5" font-family="Helvetica,sans-Serif" font-size="10.00">qnn</text>
</a>
</g>
</g>
<!-- dir_404558507ed35459f0d7a6d81d8c508d -->
<g id="node7" class="node"><title>dir_404558507ed35459f0d7a6d81d8c508d</title>
<g id="a_node7"><a xlink:href="dir_404558507ed35459f0d7a6d81d8c508d.html" target="_top" xlink:title="runtime">
<polygon fill="white" stroke="red" points="190,-36 136,-36 136,-0 190,-0 190,-36"/>
<text text-anchor="middle" x="163" y="-15.5" font-family="Helvetica,sans-Serif" font-size="10.00">runtime</text>
</a>
</g>
</g>
<!-- dir_d523279167051dc3aad9a40981221f4d&#45;&gt;dir_404558507ed35459f0d7a6d81d8c508d -->
<g id="edge22" class="edge"><title>dir_d523279167051dc3aad9a40981221f4d&#45;&gt;dir_404558507ed35459f0d7a6d81d8c508d</title>
<path fill="none" stroke="black" d="M342.491,-359.772C364.843,-334.534 402,-285.051 402,-235 402,-235 402,-235 402,-161 402,-68.4572 267.923,-34.8816 200.615,-23.8567"/>
<polygon fill="black" stroke="black" points="200.835,-20.3491 190.416,-22.2754 199.762,-27.2664 200.835,-20.3491"/>
<g id="a_edge22&#45;headlabel"><a xlink:href="dir_000009_000011.html" target="_top" xlink:title="1">
<text text-anchor="middle" x="204.822" y="-15.594" font-family="Helvetica,sans-Serif" font-size="10.00">1</text>
</a>
</g>
</g>
<!-- dir_d523279167051dc3aad9a40981221f4d&#45;&gt;dir_dc867ff9a37cad1764f1670dc7eba6c1 -->
<g id="edge23" class="edge"><title>dir_d523279167051dc3aad9a40981221f4d&#45;&gt;dir_dc867ff9a37cad1764f1670dc7eba6c1</title>
<path fill="none" stroke="black" d="M333.97,-359.975C342.701,-338.958 354.304,-302.281 345,-272 334.299,-237.171 305.294,-206.657 282.307,-186.841"/>
<polygon fill="black" stroke="black" points="284.384,-184.016 274.467,-180.288 279.895,-189.387 284.384,-184.016"/>
<g id="a_edge23&#45;headlabel"><a xlink:href="dir_000009_000007.html" target="_top" xlink:title="1">
<text text-anchor="middle" x="288.963" y="-181.643" font-family="Helvetica,sans-Serif" font-size="10.00">1</text>
</a>
</g>
</g>
<!-- dir_f97d855a3173728370e632aa77170e34&#45;&gt;dir_6cd4295f6ad5aa17e5b568d0e5b190e5 -->
<g id="edge7" class="edge"><title>dir_f97d855a3173728370e632aa77170e34&#45;&gt;dir_6cd4295f6ad5aa17e5b568d0e5b190e5</title>
<path fill="none" stroke="black" d="M24.217,-287.68C21.9808,-269.3 20.4551,-239.699 29,-216 43.6021,-175.502 77.2943,-138.412 101.759,-115.334"/>
<polygon fill="black" stroke="black" points="104.36,-117.697 109.342,-108.347 99.6162,-112.549 104.36,-117.697"/>
<g id="a_edge7&#45;headlabel"><a xlink:href="dir_000019_000013.html" target="_top" xlink:title="1">
<text text-anchor="middle" x="103.64" y="-119.721" font-family="Helvetica,sans-Serif" font-size="10.00">1</text>
</a>
</g>
</g>
<!-- dir_f97d855a3173728370e632aa77170e34&#45;&gt;dir_404558507ed35459f0d7a6d81d8c508d -->
<g id="edge8" class="edge"><title>dir_f97d855a3173728370e632aa77170e34&#45;&gt;dir_404558507ed35459f0d7a6d81d8c508d</title>
<path fill="none" stroke="black" d="M22.8655,-287.837C19.1339,-269.84 14.82,-240.782 19,-216 30.4212,-148.287 29.8427,-123.733 75,-72 88.9529,-56.0154 108.942,-43.4414 126.344,-34.5601"/>
<polygon fill="black" stroke="black" points="128.233,-37.5332 135.691,-30.0078 125.168,-31.2399 128.233,-37.5332"/>
<g id="a_edge8&#45;headlabel"><a xlink:href="dir_000019_000011.html" target="_top" xlink:title="1">
<text text-anchor="middle" x="126.245" y="-39.1597" font-family="Helvetica,sans-Serif" font-size="10.00">1</text>
</a>
</g>
</g>
<!-- dir_f97d855a3173728370e632aa77170e34&#45;&gt;dir_72c2f11201cd7636dc7624de0754daa5 -->
<g id="edge9" class="edge"><title>dir_f97d855a3173728370e632aa77170e34&#45;&gt;dir_72c2f11201cd7636dc7624de0754daa5</title>
<path fill="none" stroke="black" d="M30.4775,-287.697C34.0558,-279.559 39.2077,-269.689 44.5142,-260.701"/>
<polygon fill="black" stroke="black" points="47.5464,-262.452 49.8198,-252.104 41.5894,-258.776 47.5464,-262.452"/>
<g id="a_edge9&#45;headlabel"><a xlink:href="dir_000019_000010.html" target="_top" xlink:title="9">
<text text-anchor="middle" x="48.0748" y="-264.502" font-family="Helvetica,sans-Serif" font-size="10.00">9</text>
</a>
</g>
</g>
<!-- dir_5da96592f3a7c442b838b075c58254c2&#45;&gt;dir_6cd4295f6ad5aa17e5b568d0e5b190e5 -->
<g id="edge10" class="edge"><title>dir_5da96592f3a7c442b838b075c58254c2&#45;&gt;dir_6cd4295f6ad5aa17e5b568d0e5b190e5</title>
<path fill="none" stroke="black" d="M172.313,-287.849C164.34,-250.753 145.436,-162.81 135.826,-118.103"/>
<polygon fill="black" stroke="black" points="139.228,-117.274 133.704,-108.232 132.384,-118.745 139.228,-117.274"/>
<g id="a_edge10&#45;headlabel"><a xlink:href="dir_000018_000013.html" target="_top" xlink:title="1">
<text text-anchor="middle" x="142.759" y="-117.691" font-family="Helvetica,sans-Serif" font-size="10.00">1</text>
</a>
</g>
</g>
<!-- dir_5da96592f3a7c442b838b075c58254c2&#45;&gt;dir_404558507ed35459f0d7a6d81d8c508d -->
<g id="edge11" class="edge"><title>dir_5da96592f3a7c442b838b075c58254c2&#45;&gt;dir_404558507ed35459f0d7a6d81d8c508d</title>
<path fill="none" stroke="black" d="M176.059,-287.932C176.063,-270.012 175.902,-241.017 175,-216 172.815,-155.382 167.913,-84.398 165.098,-46.3705"/>
<polygon fill="black" stroke="black" points="168.567,-45.8248 164.329,-36.1142 161.586,-46.3478 168.567,-45.8248"/>
<g id="a_edge11&#45;headlabel"><a xlink:href="dir_000018_000011.html" target="_top" xlink:title="2">
<text text-anchor="middle" x="171.666" y="-46.6973" font-family="Helvetica,sans-Serif" font-size="10.00">2</text>
</a>
</g>
</g>
<!-- dir_5da96592f3a7c442b838b075c58254c2&#45;&gt;dir_dc867ff9a37cad1764f1670dc7eba6c1 -->
<g id="edge12" class="edge"><title>dir_5da96592f3a7c442b838b075c58254c2&#45;&gt;dir_dc867ff9a37cad1764f1670dc7eba6c1</title>
<path fill="none" stroke="black" d="M187.959,-287.705C194.779,-277.523 203.279,-264.273 210,-252 221.238,-231.479 232.235,-207.32 240.006,-189.355"/>
<polygon fill="black" stroke="black" points="243.261,-190.645 243.972,-180.074 236.824,-187.894 243.261,-190.645"/>
<g id="a_edge12&#45;headlabel"><a xlink:href="dir_000018_000007.html" target="_top" xlink:title="3">
<text text-anchor="middle" x="244.459" y="-192.566" font-family="Helvetica,sans-Serif" font-size="10.00">3</text>
</a>
</g>
</g>
<!-- dir_5da96592f3a7c442b838b075c58254c2&#45;&gt;dir_72c2f11201cd7636dc7624de0754daa5 -->
<g id="edge13" class="edge"><title>dir_5da96592f3a7c442b838b075c58254c2&#45;&gt;dir_72c2f11201cd7636dc7624de0754daa5</title>
<path fill="none" stroke="black" d="M148.846,-287.876C134.467,-278.808 116.619,-267.552 101.09,-257.759"/>
<polygon fill="black" stroke="black" points="102.584,-254.564 92.258,-252.19 98.8496,-260.484 102.584,-254.564"/>
<g id="a_edge13&#45;headlabel"><a xlink:href="dir_000018_000010.html" target="_top" xlink:title="1">
<text text-anchor="middle" x="107.139" y="-251.579" font-family="Helvetica,sans-Serif" font-size="10.00">1</text>
</a>
</g>
</g>
<!-- dir_6cd4295f6ad5aa17e5b568d0e5b190e5&#45;&gt;dir_404558507ed35459f0d7a6d81d8c508d -->
<g id="edge14" class="edge"><title>dir_6cd4295f6ad5aa17e5b568d0e5b190e5&#45;&gt;dir_404558507ed35459f0d7a6d81d8c508d</title>
<path fill="none" stroke="black" d="M138.157,-71.6966C141.914,-63.7284 146.453,-54.0995 150.618,-45.2641"/>
<polygon fill="black" stroke="black" points="153.838,-46.6421 154.937,-36.1043 147.506,-43.6571 153.838,-46.6421"/>
<g id="a_edge14&#45;headlabel"><a xlink:href="dir_000013_000011.html" target="_top" xlink:title="19">
<text text-anchor="middle" x="154.874" y="-48.6042" font-family="Helvetica,sans-Serif" font-size="10.00">19</text>
</a>
</g>
</g>
<!-- dir_dc867ff9a37cad1764f1670dc7eba6c1&#45;&gt;dir_63946bee875c6d52bce55e72a67a86ad -->
<g id="edge15" class="edge"><title>dir_dc867ff9a37cad1764f1670dc7eba6c1&#45;&gt;dir_63946bee875c6d52bce55e72a67a86ad</title>
<path fill="none" stroke="black" d="M251.242,-180.232C251.762,-217.324 252.99,-304.981 253.617,-349.712"/>
<polygon fill="black" stroke="black" points="250.12,-349.899 253.76,-359.849 257.119,-349.801 250.12,-349.899"/>
<g id="a_edge15&#45;headlabel"><a xlink:href="dir_000007_000008.html" target="_top" xlink:title="2">
<text text-anchor="middle" x="247.23" y="-343.845" font-family="Helvetica,sans-Serif" font-size="10.00">2</text>
</a>
</g>
</g>
<!-- dir_dc867ff9a37cad1764f1670dc7eba6c1&#45;&gt;dir_6cd4295f6ad5aa17e5b568d0e5b190e5 -->
<g id="edge16" class="edge"><title>dir_dc867ff9a37cad1764f1670dc7eba6c1&#45;&gt;dir_6cd4295f6ad5aa17e5b568d0e5b190e5</title>
<path fill="none" stroke="black" d="M223.845,-145.291C206.72,-135.383 184.411,-122.477 165.841,-111.734"/>
<polygon fill="black" stroke="black" points="167.473,-108.635 157.064,-106.657 163.967,-114.694 167.473,-108.635"/>
<g id="a_edge16&#45;headlabel"><a xlink:href="dir_000007_000013.html" target="_top" xlink:title="12">
<text text-anchor="middle" x="172.006" y="-105.477" font-family="Helvetica,sans-Serif" font-size="10.00">12</text>
</a>
</g>
</g>
<!-- dir_dc867ff9a37cad1764f1670dc7eba6c1&#45;&gt;dir_404558507ed35459f0d7a6d81d8c508d -->
<g id="edge17" class="edge"><title>dir_dc867ff9a37cad1764f1670dc7eba6c1&#45;&gt;dir_404558507ed35459f0d7a6d81d8c508d</title>
<path fill="none" stroke="black" d="M244.832,-143.829C237.792,-125.315 225.257,-95.3589 210,-72 203.512,-62.067 195.24,-52.0941 187.45,-43.5218"/>
<polygon fill="black" stroke="black" points="189.882,-40.9983 180.495,-36.0843 184.769,-45.7792 189.882,-40.9983"/>
<g id="a_edge17&#45;headlabel"><a xlink:href="dir_000007_000011.html" target="_top" xlink:title="9">
<text text-anchor="middle" x="194.411" y="-39.1848" font-family="Helvetica,sans-Serif" font-size="10.00">9</text>
</a>
</g>
</g>
<!-- dir_72c2f11201cd7636dc7624de0754daa5&#45;&gt;dir_f97d855a3173728370e632aa77170e34 -->
<g id="edge18" class="edge"><title>dir_72c2f11201cd7636dc7624de0754daa5&#45;&gt;dir_f97d855a3173728370e632aa77170e34</title>
<path fill="none" stroke="black" d="M61.6098,-252.104C58.0574,-260.214 52.9197,-270.076 47.6158,-279.078"/>
<polygon fill="black" stroke="black" points="44.572,-277.346 42.309,-287.697 50.5326,-281.017 44.572,-277.346"/>
<g id="a_edge18&#45;headlabel"><a xlink:href="dir_000010_000019.html" target="_top" xlink:title="1">
<text text-anchor="middle" x="44.039" y="-270.297" font-family="Helvetica,sans-Serif" font-size="10.00">1</text>
</a>
</g>
</g>
<!-- dir_72c2f11201cd7636dc7624de0754daa5&#45;&gt;dir_6cd4295f6ad5aa17e5b568d0e5b190e5 -->
<g id="edge19" class="edge"><title>dir_72c2f11201cd7636dc7624de0754daa5&#45;&gt;dir_6cd4295f6ad5aa17e5b568d0e5b190e5</title>
<path fill="none" stroke="black" d="M72.8405,-215.871C84.0162,-191.457 104.629,-146.426 117.808,-117.635"/>
<polygon fill="black" stroke="black" points="121.152,-118.739 122.132,-108.189 114.787,-115.825 121.152,-118.739"/>
<g id="a_edge19&#45;headlabel"><a xlink:href="dir_000010_000013.html" target="_top" xlink:title="7">
<text text-anchor="middle" x="122.238" y="-120.689" font-family="Helvetica,sans-Serif" font-size="10.00">7</text>
</a>
</g>
</g>
<!-- dir_72c2f11201cd7636dc7624de0754daa5&#45;&gt;dir_404558507ed35459f0d7a6d81d8c508d -->
<g id="edge20" class="edge"><title>dir_72c2f11201cd7636dc7624de0754daa5&#45;&gt;dir_404558507ed35459f0d7a6d81d8c508d</title>
<path fill="none" stroke="black" d="M64.192,-215.604C63.5532,-184.45 65.9324,-118.088 94,-72 102.107,-58.6877 114.889,-47.4962 127.26,-38.8787"/>
<polygon fill="black" stroke="black" points="129.265,-41.7491 135.697,-33.3295 125.419,-35.9008 129.265,-41.7491"/>
<g id="a_edge20&#45;headlabel"><a xlink:href="dir_000010_000011.html" target="_top" xlink:title="3">
<text text-anchor="middle" x="127.822" y="-43.5965" font-family="Helvetica,sans-Serif" font-size="10.00">3</text>
</a>
</g>
</g>
<!-- dir_72c2f11201cd7636dc7624de0754daa5&#45;&gt;dir_dc867ff9a37cad1764f1670dc7eba6c1 -->
<g id="edge21" class="edge"><title>dir_72c2f11201cd7636dc7624de0754daa5&#45;&gt;dir_dc867ff9a37cad1764f1670dc7eba6c1</title>
<path fill="none" stroke="black" d="M92.046,-222.821C124.28,-210.69 178.292,-190.363 214.282,-176.819"/>
<polygon fill="black" stroke="black" points="215.795,-179.989 223.921,-173.191 213.329,-173.438 215.795,-179.989"/>
<g id="a_edge21&#45;headlabel"><a xlink:href="dir_000010_000007.html" target="_top" xlink:title="7">
<text text-anchor="middle" x="213.431" y="-181.412" font-family="Helvetica,sans-Serif" font-size="10.00">7</text>
</a>
</g>
</g>
</g>
</svg>
