<?xml version="1.0" encoding="UTF-8" standalone="no"?>
<!DOCTYPE svg PUBLIC "-//W3C//DTD SVG 1.1//EN"
 "http://www.w3.org/Graphics/SVG/1.1/DTD/svg11.dtd">
<!-- Generated by graphviz version 2.38.0 (20140413.2041)
 -->
<!-- Title: include/tvm Pages: 1 -->
<svg width="430pt" height="615pt"
 viewBox="0.00 0.00 430.00 615.00" xmlns="http://www.w3.org/2000/svg" xmlns:xlink="http://www.w3.org/1999/xlink">
<g id="graph0" class="graph" transform="scale(1 1) rotate(0) translate(4 611)">
<title>include/tvm</title>
<polygon fill="white" stroke="none" points="-4,4 -4,-611 426,-611 426,4 -4,4"/>
<g id="clust1" class="cluster"><title>clusterdir_d44c64559bbebec7f509842c48db8b23</title>
<g id="a_clust1"><a xlink:href="dir_d44c64559bbebec7f509842c48db8b23.html" target="_top" xlink:title="include">
<polygon fill="#ddddee" stroke="black" points="8,-8 8,-599 414,-599 414,-8 8,-8"/>
<text text-anchor="middle" x="211" y="-587" font-family="Helvetica,sans-Serif" font-size="10.00">include</text>
</a>
</g>
</g>
<g id="clust2" class="cluster"><title>clusterdir_b4c7d8e826c599ba55146c099a14beb5</title>
<g id="a_clust2"><a xlink:href="dir_b4c7d8e826c599ba55146c099a14beb5.html" target="_top">
<polygon fill="#eeeeff" stroke="black" points="16,-16 16,-572 406,-572 406,-16 16,-16"/>
</a>
</g>
</g>
<!-- dir_b4c7d8e826c599ba55146c099a14beb5 -->
<g id="node1" class="node"><title>dir_b4c7d8e826c599ba55146c099a14beb5</title>
<text text-anchor="middle" x="314" y="-543.5" font-family="Helvetica,sans-Serif" font-size="10.00">tvm</text>
</g>
<!-- dir_194ecda214f05a38134392ac6a69b970 -->
<g id="node2" class="node"><title>dir_194ecda214f05a38134392ac6a69b970</title>
<g id="a_node2"><a xlink:href="dir_194ecda214f05a38134392ac6a69b970.html" target="_top" xlink:title="arith">
<polygon fill="white" stroke="black" points="195,-564 141,-564 141,-528 195,-528 195,-564"/>
<text text-anchor="middle" x="168" y="-543.5" font-family="Helvetica,sans-Serif" font-size="10.00">arith</text>
</a>
</g>
</g>
<!-- dir_dc867ff9a37cad1764f1670dc7eba6c1 -->
<g id="node4" class="node"><title>dir_dc867ff9a37cad1764f1670dc7eba6c1</title>
<g id="a_node4"><a xlink:href="dir_dc867ff9a37cad1764f1670dc7eba6c1.html" target="_top" xlink:title="ir">
<polygon fill="white" stroke="black" points="195,-492 141,-492 141,-456 195,-456 195,-492"/>
<text text-anchor="middle" x="168" y="-471.5" font-family="Helvetica,sans-Serif" font-size="10.00">ir</text>
</a>
</g>
</g>
<!-- dir_194ecda214f05a38134392ac6a69b970&#45;&gt;dir_dc867ff9a37cad1764f1670dc7eba6c1 -->
<g id="edge8" class="edge"><title>dir_194ecda214f05a38134392ac6a69b970&#45;&gt;dir_dc867ff9a37cad1764f1670dc7eba6c1</title>
<path fill="none" stroke="black" d="M168,-527.697C168,-519.983 168,-510.712 168,-502.112"/>
<polygon fill="black" stroke="black" points="171.5,-502.104 168,-492.104 164.5,-502.104 171.5,-502.104"/>
<g id="a_edge8&#45;headlabel"><a xlink:href="dir_000002_000004.html" target="_top" xlink:title="4">
<text text-anchor="middle" x="174.339" y="-503.199" font-family="Helvetica,sans-Serif" font-size="10.00">4</text>
</a>
</g>
</g>
<!-- dir_6cd4295f6ad5aa17e5b568d0e5b190e5 -->
<g id="node5" class="node"><title>dir_6cd4295f6ad5aa17e5b568d0e5b190e5</title>
<g id="a_node5"><a xlink:href="dir_6cd4295f6ad5aa17e5b568d0e5b190e5.html" target="_top" xlink:title="node">
<polygon fill="white" stroke="black" points="118,-132 64,-132 64,-96 118,-96 118,-132"/>
<text text-anchor="middle" x="91" y="-111.5" font-family="Helvetica,sans-Serif" font-size="10.00">node</text>
</a>
</g>
</g>
<!-- dir_194ecda214f05a38134392ac6a69b970&#45;&gt;dir_6cd4295f6ad5aa17e5b568d0e5b190e5 -->
<g id="edge7" class="edge"><title>dir_194ecda214f05a38134392ac6a69b970&#45;&gt;dir_6cd4295f6ad5aa17e5b568d0e5b190e5</title>
<path fill="none" stroke="black" d="M140.766,-533.063C99.2761,-512.815 25,-467.552 25,-403 25,-403 25,-403 25,-257 25,-212.845 51.5676,-167.558 70.9907,-140.35"/>
<polygon fill="black" stroke="black" points="73.8973,-142.306 77.0031,-132.176 68.2584,-138.158 73.8973,-142.306"/>
<g id="a_edge7&#45;headlabel"><a xlink:href="dir_000002_000013.html" target="_top" xlink:title="2">
<text text-anchor="middle" x="74.0547" y="-144.384" font-family="Helvetica,sans-Serif" font-size="10.00">2</text>
</a>
</g>
</g>
<!-- dir_fb1b1bc11a768ab8cf63a96a73170118 -->
<g id="node8" class="node"><title>dir_fb1b1bc11a768ab8cf63a96a73170118</title>
<g id="a_node8"><a xlink:href="dir_fb1b1bc11a768ab8cf63a96a73170118.html" target="_top" xlink:title="support">
<polygon fill="white" stroke="black" points="378,-132 324,-132 324,-96 378,-96 378,-132"/>
<text text-anchor="middle" x="351" y="-111.5" font-family="Helvetica,sans-Serif" font-size="10.00">support</text>
</a>
</g>
</g>
<!-- dir_194ecda214f05a38134392ac6a69b970&#45;&gt;dir_fb1b1bc11a768ab8cf63a96a73170118 -->
<g id="edge10" class="edge"><title>dir_194ecda214f05a38134392ac6a69b970&#45;&gt;dir_fb1b1bc11a768ab8cf63a96a73170118</title>
<path fill="none" stroke="black" d="M195.004,-536.493C238.623,-521.144 323.39,-484.288 360,-420 411.578,-329.427 378.557,-197.914 360.511,-141.893"/>
<polygon fill="black" stroke="black" points="363.811,-140.726 357.339,-132.338 357.168,-142.931 363.811,-140.726"/>
<g id="a_edge10&#45;headlabel"><a xlink:href="dir_000002_000016.html" target="_top" xlink:title="1">
<text text-anchor="middle" x="367.638" y="-140.743" font-family="Helvetica,sans-Serif" font-size="10.00">1</text>
</a>
</g>
</g>
<!-- dir_72c2f11201cd7636dc7624de0754daa5 -->
<g id="node11" class="node"><title>dir_72c2f11201cd7636dc7624de0754daa5</title>
<g id="a_node11"><a xlink:href="dir_72c2f11201cd7636dc7624de0754daa5.html" target="_top" xlink:title="tir">
<polygon fill="white" stroke="black" points="138,-276 84,-276 84,-240 138,-240 138,-276"/>
<text text-anchor="middle" x="111" y="-255.5" font-family="Helvetica,sans-Serif" font-size="10.00">tir</text>
</a>
</g>
</g>
<!-- dir_194ecda214f05a38134392ac6a69b970&#45;&gt;dir_72c2f11201cd7636dc7624de0754daa5 -->
<g id="edge9" class="edge"><title>dir_194ecda214f05a38134392ac6a69b970&#45;&gt;dir_72c2f11201cd7636dc7624de0754daa5</title>
<path fill="none" stroke="black" d="M153.677,-527.917C146.102,-518.017 137.298,-504.975 132,-492 103.491,-422.178 105.291,-331.058 108.431,-286.272"/>
<polygon fill="black" stroke="black" points="111.93,-286.419 109.218,-276.177 104.951,-285.875 111.93,-286.419"/>
<g id="a_edge9&#45;headlabel"><a xlink:href="dir_000002_000007.html" target="_top" xlink:title="4">
<text text-anchor="middle" x="114.481" y="-287.724" font-family="Helvetica,sans-Serif" font-size="10.00">4</text>
</a>
</g>
</g>
<!-- dir_02be2c9d68e402f80df60bd528724ee5 -->
<g id="node3" class="node"><title>dir_02be2c9d68e402f80df60bd528724ee5</title>
<g id="a_node3"><a xlink:href="dir_02be2c9d68e402f80df60bd528724ee5.html" target="_top" xlink:title="driver">
<polygon fill="white" stroke="black" points="338,-420 284,-420 284,-384 338,-384 338,-420"/>
<text text-anchor="middle" x="311" y="-399.5" font-family="Helvetica,sans-Serif" font-size="10.00">driver</text>
</a>
</g>
</g>
<!-- dir_404558507ed35459f0d7a6d81d8c508d -->
<g id="node7" class="node"><title>dir_404558507ed35459f0d7a6d81d8c508d</title>
<g id="a_node7"><a xlink:href="dir_404558507ed35459f0d7a6d81d8c508d.html" target="_top" xlink:title="runtime">
<polygon fill="white" stroke="red" points="250,-60 196,-60 196,-24 250,-24 250,-60"/>
<text text-anchor="middle" x="223" y="-39.5" font-family="Helvetica,sans-Serif" font-size="10.00">runtime</text>
</a>
</g>
</g>
<!-- dir_02be2c9d68e402f80df60bd528724ee5&#45;&gt;dir_404558507ed35459f0d7a6d81d8c508d -->
<g id="edge24" class="edge"><title>dir_02be2c9d68e402f80df60bd528724ee5&#45;&gt;dir_404558507ed35459f0d7a6d81d8c508d</title>
<path fill="none" stroke="black" d="M309.374,-383.867C307.554,-365.893 304.287,-336.855 300,-312 283.283,-215.089 286.613,-188.049 252,-96 248.567,-86.8696 243.801,-77.3784 239.123,-68.9936"/>
<polygon fill="black" stroke="black" points="241.998,-66.973 233.956,-60.0751 235.941,-70.4823 241.998,-66.973"/>
<g id="a_edge24&#45;headlabel"><a xlink:href="dir_000003_000008.html" target="_top" xlink:title="1">
<text text-anchor="middle" x="246.257" y="-66.1598" font-family="Helvetica,sans-Serif" font-size="10.00">1</text>
</a>
</g>
</g>
<!-- dir_02be2c9d68e402f80df60bd528724ee5&#45;&gt;dir_fb1b1bc11a768ab8cf63a96a73170118 -->
<g id="edge26" class="edge"><title>dir_02be2c9d68e402f80df60bd528724ee5&#45;&gt;dir_fb1b1bc11a768ab8cf63a96a73170118</title>
<path fill="none" stroke="black" d="M314.92,-383.88C317.197,-373.531 320.003,-360.052 322,-348 334.288,-273.854 343.919,-185.651 348.346,-142.099"/>
<polygon fill="black" stroke="black" points="351.841,-142.324 349.358,-132.024 344.876,-141.624 351.841,-142.324"/>
<g id="a_edge26&#45;headlabel"><a xlink:href="dir_000003_000016.html" target="_top" xlink:title="1">
<text text-anchor="middle" x="354.307" y="-143.684" font-family="Helvetica,sans-Serif" font-size="10.00">1</text>
</a>
</g>
</g>
<!-- dir_5da96592f3a7c442b838b075c58254c2 -->
<g id="node9" class="node"><title>dir_5da96592f3a7c442b838b075c58254c2</title>
<g id="a_node9"><a xlink:href="dir_5da96592f3a7c442b838b075c58254c2.html" target="_top" xlink:title="target">
<polygon fill="white" stroke="black" points="258,-348 204,-348 204,-312 258,-312 258,-348"/>
<text text-anchor="middle" x="231" y="-327.5" font-family="Helvetica,sans-Serif" font-size="10.00">target</text>
</a>
</g>
</g>
<!-- dir_02be2c9d68e402f80df60bd528724ee5&#45;&gt;dir_5da96592f3a7c442b838b075c58254c2 -->
<g id="edge23" class="edge"><title>dir_02be2c9d68e402f80df60bd528724ee5&#45;&gt;dir_5da96592f3a7c442b838b075c58254c2</title>
<path fill="none" stroke="black" d="M291.225,-383.697C281.246,-374.965 268.989,-364.24 258.143,-354.75"/>
<polygon fill="black" stroke="black" points="260.378,-352.055 250.548,-348.104 255.769,-357.323 260.378,-352.055"/>
<g id="a_edge23&#45;headlabel"><a xlink:href="dir_000003_000017.html" target="_top" xlink:title="1">
<text text-anchor="middle" x="264.953" y="-349.786" font-family="Helvetica,sans-Serif" font-size="10.00">1</text>
</a>
</g>
</g>
<!-- dir_f97d855a3173728370e632aa77170e34 -->
<g id="node10" class="node"><title>dir_f97d855a3173728370e632aa77170e34</title>
<g id="a_node10"><a xlink:href="dir_f97d855a3173728370e632aa77170e34.html" target="_top" xlink:title="te">
<polygon fill="white" stroke="black" points="250,-204 196,-204 196,-168 250,-168 250,-204"/>
<text text-anchor="middle" x="223" y="-183.5" font-family="Helvetica,sans-Serif" font-size="10.00">te</text>
</a>
</g>
</g>
<!-- dir_02be2c9d68e402f80df60bd528724ee5&#45;&gt;dir_f97d855a3173728370e632aa77170e34 -->
<g id="edge22" class="edge"><title>dir_02be2c9d68e402f80df60bd528724ee5&#45;&gt;dir_f97d855a3173728370e632aa77170e34</title>
<path fill="none" stroke="black" d="M307.775,-383.831C301.667,-353.591 286.758,-289.36 262,-240 257.16,-230.35 250.579,-220.602 244.202,-212.144"/>
<polygon fill="black" stroke="black" points="246.881,-209.889 237.964,-204.167 241.367,-214.201 246.881,-209.889"/>
<g id="a_edge22&#45;headlabel"><a xlink:href="dir_000003_000018.html" target="_top" xlink:title="1">
<text text-anchor="middle" x="251.332" y="-208.472" font-family="Helvetica,sans-Serif" font-size="10.00">1</text>
</a>
</g>
</g>
<!-- dir_02be2c9d68e402f80df60bd528724ee5&#45;&gt;dir_72c2f11201cd7636dc7624de0754daa5 -->
<g id="edge25" class="edge"><title>dir_02be2c9d68e402f80df60bd528724ee5&#45;&gt;dir_72c2f11201cd7636dc7624de0754daa5</title>
<path fill="none" stroke="black" d="M283.632,-391.918C259.07,-382.999 222.723,-367.852 195,-348 169.758,-329.925 145.964,-303.487 130.189,-284.122"/>
<polygon fill="black" stroke="black" points="132.916,-281.928 123.938,-276.301 127.447,-286.298 132.916,-281.928"/>
<g id="a_edge25&#45;headlabel"><a xlink:href="dir_000003_000007.html" target="_top" xlink:title="1">
<text text-anchor="middle" x="137.378" y="-280.463" font-family="Helvetica,sans-Serif" font-size="10.00">1</text>
</a>
</g>
</g>
<!-- dir_dc867ff9a37cad1764f1670dc7eba6c1&#45;&gt;dir_6cd4295f6ad5aa17e5b568d0e5b190e5 -->
<g id="edge28" class="edge"><title>dir_dc867ff9a37cad1764f1670dc7eba6c1&#45;&gt;dir_6cd4295f6ad5aa17e5b568d0e5b190e5</title>
<path fill="none" stroke="black" d="M149.107,-455.65C139.23,-445.87 127.469,-433.028 119,-420 81.7484,-362.691 75.5251,-343.537 65,-276 62.4514,-259.646 62.4579,-183.313 66,-168 68.0764,-159.023 71.8124,-149.765 75.7739,-141.548"/>
<polygon fill="black" stroke="black" points="78.9866,-142.954 80.442,-132.459 72.7599,-139.756 78.9866,-142.954"/>
<g id="a_edge28&#45;headlabel"><a xlink:href="dir_000004_000013.html" target="_top" xlink:title="12">
<text text-anchor="middle" x="79.87" y="-144.948" font-family="Helvetica,sans-Serif" font-size="10.00">12</text>
</a>
</g>
</g>
<!-- dir_63946bee875c6d52bce55e72a67a86ad -->
<g id="node6" class="node"><title>dir_63946bee875c6d52bce55e72a67a86ad</title>
<g id="a_node6"><a xlink:href="dir_63946bee875c6d52bce55e72a67a86ad.html" target="_top" xlink:title="relay">
<polygon fill="white" stroke="red" points="195,-420 141,-420 141,-384 195,-384 195,-420"/>
<text text-anchor="middle" x="168" y="-399.5" font-family="Helvetica,sans-Serif" font-size="10.00">relay</text>
</a>
</g>
</g>
<!-- dir_dc867ff9a37cad1764f1670dc7eba6c1&#45;&gt;dir_63946bee875c6d52bce55e72a67a86ad -->
<g id="edge27" class="edge"><title>dir_dc867ff9a37cad1764f1670dc7eba6c1&#45;&gt;dir_63946bee875c6d52bce55e72a67a86ad</title>
<path fill="none" stroke="black" d="M162.084,-455.697C161.289,-447.983 161.062,-438.712 161.405,-430.112"/>
<polygon fill="black" stroke="black" points="164.898,-430.324 162.105,-420.104 157.915,-429.836 164.898,-430.324"/>
<g id="a_edge27&#45;headlabel"><a xlink:href="dir_000004_000005.html" target="_top" xlink:title="2">
<text text-anchor="middle" x="167.48" y="-431.608" font-family="Helvetica,sans-Serif" font-size="10.00">2</text>
</a>
</g>
</g>
<!-- dir_dc867ff9a37cad1764f1670dc7eba6c1&#45;&gt;dir_404558507ed35459f0d7a6d81d8c508d -->
<g id="edge29" class="edge"><title>dir_dc867ff9a37cad1764f1670dc7eba6c1&#45;&gt;dir_404558507ed35459f0d7a6d81d8c508d</title>
<path fill="none" stroke="black" d="M195.257,-473.679C236.928,-473.151 316.236,-465.708 360,-420 410.777,-366.968 397,-332.421 397,-259 397,-259 397,-259 397,-185 397,-145.196 412.185,-126.824 387,-96 356.197,-58.2997 298.303,-47.1124 260.196,-43.9654"/>
<polygon fill="black" stroke="black" points="260.225,-40.4594 250.012,-43.2756 259.752,-47.4434 260.225,-40.4594"/>
<g id="a_edge29&#45;headlabel"><a xlink:href="dir_000004_000008.html" target="_top" xlink:title="7">
<text text-anchor="middle" x="264.003" y="-35.3694" font-family="Helvetica,sans-Serif" font-size="10.00">7</text>
</a>
</g>
</g>
<!-- dir_dc867ff9a37cad1764f1670dc7eba6c1&#45;&gt;dir_fb1b1bc11a768ab8cf63a96a73170118 -->
<g id="edge30" class="edge"><title>dir_dc867ff9a37cad1764f1670dc7eba6c1&#45;&gt;dir_fb1b1bc11a768ab8cf63a96a73170118</title>
<path fill="none" stroke="black" d="M195.057,-473.603C235.036,-472.884 309.221,-465.089 347,-420 372.564,-389.49 357,-370.804 357,-331 357,-331 357,-331 357,-257 357,-216.96 354.589,-170.627 352.824,-142.065"/>
<polygon fill="black" stroke="black" points="356.314,-141.797 352.185,-132.039 349.328,-142.242 356.314,-141.797"/>
<g id="a_edge30&#45;headlabel"><a xlink:href="dir_000004_000016.html" target="_top" xlink:title="1">
<text text-anchor="middle" x="359.376" y="-142.704" font-family="Helvetica,sans-Serif" font-size="10.00">1</text>
</a>
</g>
</g>
<!-- dir_6cd4295f6ad5aa17e5b568d0e5b190e5&#45;&gt;dir_404558507ed35459f0d7a6d81d8c508d -->
<g id="edge21" class="edge"><title>dir_6cd4295f6ad5aa17e5b568d0e5b190e5&#45;&gt;dir_404558507ed35459f0d7a6d81d8c508d</title>
<path fill="none" stroke="black" d="M118.031,-98.6655C137.83,-88.1658 164.919,-73.8004 186.619,-62.293"/>
<polygon fill="black" stroke="black" points="188.357,-65.333 195.552,-57.5558 185.077,-59.1488 188.357,-65.333"/>
<g id="a_edge21&#45;headlabel"><a xlink:href="dir_000013_000008.html" target="_top" xlink:title="17">
<text text-anchor="middle" x="186.511" y="-67.0255" font-family="Helvetica,sans-Serif" font-size="10.00">17</text>
</a>
</g>
</g>
<!-- dir_63946bee875c6d52bce55e72a67a86ad&#45;&gt;dir_dc867ff9a37cad1764f1670dc7eba6c1 -->
<g id="edge5" class="edge"><title>dir_63946bee875c6d52bce55e72a67a86ad&#45;&gt;dir_dc867ff9a37cad1764f1670dc7eba6c1</title>
<path fill="none" stroke="black" d="M173.895,-420.104C174.701,-427.791 174.937,-437.054 174.604,-445.665"/>
<polygon fill="black" stroke="black" points="171.109,-445.48 173.916,-455.697 178.092,-445.96 171.109,-445.48"/>
<g id="a_edge5&#45;headlabel"><a xlink:href="dir_000005_000004.html" target="_top" xlink:title="32">
<text text-anchor="middle" x="168.522" y="-439.2" font-family="Helvetica,sans-Serif" font-size="10.00">32</text>
</a>
</g>
</g>
<!-- dir_63946bee875c6d52bce55e72a67a86ad&#45;&gt;dir_6cd4295f6ad5aa17e5b568d0e5b190e5 -->
<g id="edge3" class="edge"><title>dir_63946bee875c6d52bce55e72a67a86ad&#45;&gt;dir_6cd4295f6ad5aa17e5b568d0e5b190e5</title>
<path fill="none" stroke="black" d="M148.955,-383.819C125.969,-361.606 88.6945,-320.463 75,-276 60.9739,-230.461 72.5627,-174.578 81.9776,-142.057"/>
<polygon fill="black" stroke="black" points="85.365,-142.947 84.9228,-132.362 78.6672,-140.912 85.365,-142.947"/>
<g id="a_edge3&#45;headlabel"><a xlink:href="dir_000005_000013.html" target="_top" xlink:title="4">
<text text-anchor="middle" x="87.0369" y="-144.712" font-family="Helvetica,sans-Serif" font-size="10.00">4</text>
</a>
</g>
</g>
<!-- dir_63946bee875c6d52bce55e72a67a86ad&#45;&gt;dir_404558507ed35459f0d7a6d81d8c508d -->
<g id="edge4" class="edge"><title>dir_63946bee875c6d52bce55e72a67a86ad&#45;&gt;dir_404558507ed35459f0d7a6d81d8c508d</title>
<path fill="none" stroke="black" d="M168.233,-383.892C169.015,-345.145 172.397,-247.847 187,-168 193.32,-133.441 205.253,-94.7241 213.643,-69.6645"/>
<polygon fill="black" stroke="black" points="216.979,-70.7254 216.886,-60.1309 210.352,-68.4715 216.979,-70.7254"/>
<g id="a_edge4&#45;headlabel"><a xlink:href="dir_000005_000008.html" target="_top" xlink:title="5">
<text text-anchor="middle" x="218.51" y="-72.5427" font-family="Helvetica,sans-Serif" font-size="10.00">5</text>
</a>
</g>
</g>
<!-- dir_63946bee875c6d52bce55e72a67a86ad&#45;&gt;dir_5da96592f3a7c442b838b075c58254c2 -->
<g id="edge2" class="edge"><title>dir_63946bee875c6d52bce55e72a67a86ad&#45;&gt;dir_5da96592f3a7c442b838b075c58254c2</title>
<path fill="none" stroke="black" d="M183.573,-383.697C191.202,-375.22 200.523,-364.864 208.876,-355.583"/>
<polygon fill="black" stroke="black" points="211.518,-357.879 215.606,-348.104 206.315,-353.196 211.518,-357.879"/>
<g id="a_edge2&#45;headlabel"><a xlink:href="dir_000005_000017.html" target="_top" xlink:title="4">
<text text-anchor="middle" x="211.224" y="-359.95" font-family="Helvetica,sans-Serif" font-size="10.00">4</text>
</a>
</g>
</g>
<!-- dir_63946bee875c6d52bce55e72a67a86ad&#45;&gt;dir_f97d855a3173728370e632aa77170e34 -->
<g id="edge1" class="edge"><title>dir_63946bee875c6d52bce55e72a67a86ad&#45;&gt;dir_f97d855a3173728370e632aa77170e34</title>
<path fill="none" stroke="black" d="M172.408,-383.849C181.942,-346.753 204.544,-258.81 216.034,-214.103"/>
<polygon fill="black" stroke="black" points="219.472,-214.789 218.571,-204.232 212.692,-213.046 219.472,-214.789"/>
<g id="a_edge1&#45;headlabel"><a xlink:href="dir_000005_000018.html" target="_top" xlink:title="4">
<text text-anchor="middle" x="221.327" y="-216.477" font-family="Helvetica,sans-Serif" font-size="10.00">4</text>
</a>
</g>
</g>
<!-- dir_63946bee875c6d52bce55e72a67a86ad&#45;&gt;dir_72c2f11201cd7636dc7624de0754daa5 -->
<g id="edge6" class="edge"><title>dir_63946bee875c6d52bce55e72a67a86ad&#45;&gt;dir_72c2f11201cd7636dc7624de0754daa5</title>
<path fill="none" stroke="black" d="M157.895,-383.7C152.193,-373.516 145.193,-360.266 140,-348 131.367,-327.609 123.708,-303.711 118.432,-285.816"/>
<polygon fill="black" stroke="black" points="121.748,-284.682 115.612,-276.045 115.023,-286.624 121.748,-284.682"/>
<g id="a_edge6&#45;headlabel"><a xlink:href="dir_000005_000007.html" target="_top" xlink:title="3">
<text text-anchor="middle" x="125.473" y="-284.849" font-family="Helvetica,sans-Serif" font-size="10.00">3</text>
</a>
</g>
</g>
<!-- dir_5da96592f3a7c442b838b075c58254c2&#45;&gt;dir_dc867ff9a37cad1764f1670dc7eba6c1 -->
<g id="edge18" class="edge"><title>dir_5da96592f3a7c442b838b075c58254c2&#45;&gt;dir_dc867ff9a37cad1764f1670dc7eba6c1</title>
<path fill="none" stroke="black" d="M227.39,-348.3C223.188,-366.663 215.344,-396.251 204,-420 199.517,-429.386 193.505,-438.987 187.68,-447.394"/>
<polygon fill="black" stroke="black" points="184.733,-445.497 181.749,-455.663 190.421,-449.577 184.733,-445.497"/>
<g id="a_edge18&#45;headlabel"><a xlink:href="dir_000017_000004.html" target="_top" xlink:title="2">
<text text-anchor="middle" x="184.521" y="-438.421" font-family="Helvetica,sans-Serif" font-size="10.00">2</text>
</a>
</g>
</g>
<!-- dir_5da96592f3a7c442b838b075c58254c2&#45;&gt;dir_6cd4295f6ad5aa17e5b568d0e5b190e5 -->
<g id="edge16" class="edge"><title>dir_5da96592f3a7c442b838b075c58254c2&#45;&gt;dir_6cd4295f6ad5aa17e5b568d0e5b190e5</title>
<path fill="none" stroke="black" d="M219.78,-311.849C195.256,-274.362 136.761,-184.949 107.815,-140.702"/>
<polygon fill="black" stroke="black" points="110.677,-138.685 102.274,-132.232 104.819,-142.517 110.677,-138.685"/>
<g id="a_edge16&#45;headlabel"><a xlink:href="dir_000017_000013.html" target="_top" xlink:title="1">
<text text-anchor="middle" x="115.021" y="-137.638" font-family="Helvetica,sans-Serif" font-size="10.00">1</text>
</a>
</g>
</g>
<!-- dir_5da96592f3a7c442b838b075c58254c2&#45;&gt;dir_404558507ed35459f0d7a6d81d8c508d -->
<g id="edge17" class="edge"><title>dir_5da96592f3a7c442b838b075c58254c2&#45;&gt;dir_404558507ed35459f0d7a6d81d8c508d</title>
<path fill="none" stroke="black" d="M237.622,-311.666C248.056,-282.226 266.414,-220.533 259,-168 254.09,-133.212 241.854,-94.5448 233.008,-69.559"/>
<polygon fill="black" stroke="black" points="236.264,-68.2712 229.573,-60.0567 229.681,-70.651 236.264,-68.2712"/>
<g id="a_edge17&#45;headlabel"><a xlink:href="dir_000017_000008.html" target="_top" xlink:title="2">
<text text-anchor="middle" x="240.156" y="-68.1865" font-family="Helvetica,sans-Serif" font-size="10.00">2</text>
</a>
</g>
</g>
<!-- dir_5da96592f3a7c442b838b075c58254c2&#45;&gt;dir_fb1b1bc11a768ab8cf63a96a73170118 -->
<g id="edge20" class="edge"><title>dir_5da96592f3a7c442b838b075c58254c2&#45;&gt;dir_fb1b1bc11a768ab8cf63a96a73170118</title>
<path fill="none" stroke="black" d="M240.617,-311.849C261.594,-274.44 311.567,-185.322 336.432,-140.98"/>
<polygon fill="black" stroke="black" points="339.499,-142.667 341.337,-132.232 333.393,-139.243 339.499,-142.667"/>
<g id="a_edge20&#45;headlabel"><a xlink:href="dir_000017_000016.html" target="_top" xlink:title="2">
<text text-anchor="middle" x="340.217" y="-144.691" font-family="Helvetica,sans-Serif" font-size="10.00">2</text>
</a>
</g>
</g>
<!-- dir_5da96592f3a7c442b838b075c58254c2&#45;&gt;dir_72c2f11201cd7636dc7624de0754daa5 -->
<g id="edge19" class="edge"><title>dir_5da96592f3a7c442b838b075c58254c2&#45;&gt;dir_72c2f11201cd7636dc7624de0754daa5</title>
<path fill="none" stroke="black" d="M203.77,-313.116C186.893,-303.271 165.026,-290.515 146.761,-279.861"/>
<polygon fill="black" stroke="black" points="148.523,-276.837 138.122,-274.821 144.996,-282.883 148.523,-276.837"/>
<g id="a_edge19&#45;headlabel"><a xlink:href="dir_000017_000007.html" target="_top" xlink:title="2">
<text text-anchor="middle" x="153.059" y="-273.695" font-family="Helvetica,sans-Serif" font-size="10.00">2</text>
</a>
</g>
</g>
<!-- dir_f97d855a3173728370e632aa77170e34&#45;&gt;dir_194ecda214f05a38134392ac6a69b970 -->
<g id="edge11" class="edge"><title>dir_f97d855a3173728370e632aa77170e34&#45;&gt;dir_194ecda214f05a38134392ac6a69b970</title>
<path fill="none" stroke="black" d="M231.207,-204.298C241.941,-227.972 260.18,-272.087 267,-312 269.695,-327.771 270.276,-332.339 267,-348 253.092,-414.488 210.893,-483.462 186.31,-519.525"/>
<polygon fill="black" stroke="black" points="183.282,-517.749 180.467,-527.963 189.037,-521.734 183.282,-517.749"/>
<g id="a_edge11&#45;headlabel"><a xlink:href="dir_000018_000002.html" target="_top" xlink:title="2">
<text text-anchor="middle" x="182.994" y="-510.677" font-family="Helvetica,sans-Serif" font-size="10.00">2</text>
</a>
</g>
</g>
<!-- dir_f97d855a3173728370e632aa77170e34&#45;&gt;dir_6cd4295f6ad5aa17e5b568d0e5b190e5 -->
<g id="edge12" class="edge"><title>dir_f97d855a3173728370e632aa77170e34&#45;&gt;dir_6cd4295f6ad5aa17e5b568d0e5b190e5</title>
<path fill="none" stroke="black" d="M195.969,-170.666C176.17,-160.166 149.081,-145.8 127.381,-134.293"/>
<polygon fill="black" stroke="black" points="128.923,-131.149 118.448,-129.556 125.643,-137.333 128.923,-131.149"/>
<g id="a_edge12&#45;headlabel"><a xlink:href="dir_000018_000013.html" target="_top" xlink:title="1">
<text text-anchor="middle" x="133.428" y="-127.824" font-family="Helvetica,sans-Serif" font-size="10.00">1</text>
</a>
</g>
</g>
<!-- dir_f97d855a3173728370e632aa77170e34&#45;&gt;dir_404558507ed35459f0d7a6d81d8c508d -->
<g id="edge13" class="edge"><title>dir_f97d855a3173728370e632aa77170e34&#45;&gt;dir_404558507ed35459f0d7a6d81d8c508d</title>
<path fill="none" stroke="black" d="M223,-167.871C223,-143.67 223,-99.2108 223,-70.3932"/>
<polygon fill="black" stroke="black" points="226.5,-70.1892 223,-60.1893 219.5,-70.1893 226.5,-70.1892"/>
<g id="a_edge13&#45;headlabel"><a xlink:href="dir_000018_000008.html" target="_top" xlink:title="1">
<text text-anchor="middle" x="229.339" y="-71.2839" font-family="Helvetica,sans-Serif" font-size="10.00">1</text>
</a>
</g>
</g>
<!-- dir_f97d855a3173728370e632aa77170e34&#45;&gt;dir_fb1b1bc11a768ab8cf63a96a73170118 -->
<g id="edge15" class="edge"><title>dir_f97d855a3173728370e632aa77170e34&#45;&gt;dir_fb1b1bc11a768ab8cf63a96a73170118</title>
<path fill="none" stroke="black" d="M250.146,-170.155C269.067,-159.807 294.509,-145.893 315.105,-134.63"/>
<polygon fill="black" stroke="black" points="316.799,-137.693 323.894,-129.824 313.441,-131.551 316.799,-137.693"/>
<g id="a_edge15&#45;headlabel"><a xlink:href="dir_000018_000016.html" target="_top" xlink:title="1">
<text text-anchor="middle" x="315.008" y="-139.409" font-family="Helvetica,sans-Serif" font-size="10.00">1</text>
</a>
</g>
</g>
<!-- dir_f97d855a3173728370e632aa77170e34&#45;&gt;dir_72c2f11201cd7636dc7624de0754daa5 -->
<g id="edge14" class="edge"><title>dir_f97d855a3173728370e632aa77170e34&#45;&gt;dir_72c2f11201cd7636dc7624de0754daa5</title>
<path fill="none" stroke="black" d="M201.415,-204.18C185.981,-214.498 165.015,-227.634 147.098,-238.225"/>
<polygon fill="black" stroke="black" points="144.926,-235.441 138.053,-243.503 148.454,-241.487 144.926,-235.441"/>
<g id="a_edge14&#45;headlabel"><a xlink:href="dir_000018_000007.html" target="_top" xlink:title="8">
<text text-anchor="middle" x="146.6" y="-228.677" font-family="Helvetica,sans-Serif" font-size="10.00">8</text>
</a>
</g>
</g>
<!-- dir_72c2f11201cd7636dc7624de0754daa5&#45;&gt;dir_dc867ff9a37cad1764f1670dc7eba6c1 -->
<g id="edge34" class="edge"><title>dir_72c2f11201cd7636dc7624de0754daa5&#45;&gt;dir_dc867ff9a37cad1764f1670dc7eba6c1</title>
<path fill="none" stroke="black" d="M110.673,-276.078C110.647,-306.178 113.074,-370.199 132,-420 135.637,-429.569 141.311,-439.108 147.088,-447.401"/>
<polygon fill="black" stroke="black" points="144.326,-449.552 153.065,-455.542 149.968,-445.41 144.326,-449.552"/>
<g id="a_edge34&#45;headlabel"><a xlink:href="dir_000007_000004.html" target="_top" xlink:title="4">
<text text-anchor="middle" x="139.91" y="-445.835" font-family="Helvetica,sans-Serif" font-size="10.00">4</text>
</a>
</g>
</g>
<!-- dir_72c2f11201cd7636dc7624de0754daa5&#45;&gt;dir_6cd4295f6ad5aa17e5b568d0e5b190e5 -->
<g id="edge32" class="edge"><title>dir_72c2f11201cd7636dc7624de0754daa5&#45;&gt;dir_6cd4295f6ad5aa17e5b568d0e5b190e5</title>
<path fill="none" stroke="black" d="M108.588,-239.871C105.179,-215.67 98.917,-171.211 94.8582,-142.393"/>
<polygon fill="black" stroke="black" points="98.2816,-141.603 93.421,-132.189 91.35,-142.58 98.2816,-141.603"/>
<g id="a_edge32&#45;headlabel"><a xlink:href="dir_000007_000013.html" target="_top" xlink:title="7">
<text text-anchor="middle" x="101.594" y="-142.267" font-family="Helvetica,sans-Serif" font-size="10.00">7</text>
</a>
</g>
</g>
<!-- dir_72c2f11201cd7636dc7624de0754daa5&#45;&gt;dir_404558507ed35459f0d7a6d81d8c508d -->
<g id="edge33" class="edge"><title>dir_72c2f11201cd7636dc7624de0754daa5&#45;&gt;dir_404558507ed35459f0d7a6d81d8c508d</title>
<path fill="none" stroke="black" d="M115.018,-239.984C122.74,-209.431 141.633,-143.991 172,-96 178.549,-85.651 187.348,-75.6176 195.794,-67.1159"/>
<polygon fill="black" stroke="black" points="198.317,-69.5442 203.058,-60.0694 193.443,-64.5195 198.317,-69.5442"/>
<g id="a_edge33&#45;headlabel"><a xlink:href="dir_000007_000008.html" target="_top" xlink:title="2">
<text text-anchor="middle" x="197.714" y="-71.5849" font-family="Helvetica,sans-Serif" font-size="10.00">2</text>
</a>
</g>
</g>
<!-- dir_72c2f11201cd7636dc7624de0754daa5&#45;&gt;dir_f97d855a3173728370e632aa77170e34 -->
<g id="edge31" class="edge"><title>dir_72c2f11201cd7636dc7624de0754daa5&#45;&gt;dir_f97d855a3173728370e632aa77170e34</title>
<path fill="none" stroke="black" d="M132.501,-239.876C147.861,-229.605 168.728,-216.526 186.612,-205.946"/>
<polygon fill="black" stroke="black" points="188.778,-208.734 195.648,-200.669 185.248,-202.689 188.778,-208.734"/>
<g id="a_edge31&#45;headlabel"><a xlink:href="dir_000007_000018.html" target="_top" xlink:title="1">
<text text-anchor="middle" x="187.106" y="-210.499" font-family="Helvetica,sans-Serif" font-size="10.00">1</text>
</a>
</g>
</g>
</g>
</svg>
