<?xml version="1.0" encoding="UTF-8" standalone="no"?>
<!DOCTYPE svg PUBLIC "-//W3C//DTD SVG 1.1//EN"
 "http://www.w3.org/Graphics/SVG/1.1/DTD/svg11.dtd">
<!-- Generated by graphviz version 2.38.0 (20140413.2041)
 -->
<!-- Title: include/tvm/driver/driver_api.h Pages: 1 -->
<svg width="3382pt" height="1069pt"
 viewBox="0.00 0.00 3382.00 1069.00" xmlns="http://www.w3.org/2000/svg" xmlns:xlink="http://www.w3.org/1999/xlink">
<g id="graph0" class="graph" transform="scale(1 1) rotate(0) translate(4 1065)">
<title>include/tvm/driver/driver_api.h</title>
<polygon fill="white" stroke="none" points="-4,4 -4,-1065 3378,-1065 3378,4 -4,4"/>
<!-- Node1 -->
<g id="node1" class="node"><title>Node1</title>
<polygon fill="#bfbfbf" stroke="black" points="272,-1030.5 272,-1060.5 374,-1060.5 374,-1030.5 272,-1030.5"/>
<text text-anchor="start" x="280" y="-1048.5" font-family="Helvetica,sans-Serif" font-size="10.00">include/tvm/driver</text>
<text text-anchor="middle" x="323" y="-1037.5" font-family="Helvetica,sans-Serif" font-size="10.00">/driver_api.h</text>
</g>
<!-- Node2 -->
<g id="node2" class="node"><title>Node2</title>
<g id="a_node2"><a xlink:href="packed__func_8h.html" target="_top" xlink:title="Type&#45;erased function used across TVM API. ">
<polygon fill="white" stroke="black" points="1679.5,-291.5 1679.5,-321.5 1792.5,-321.5 1792.5,-291.5 1679.5,-291.5"/>
<text text-anchor="start" x="1687.5" y="-309.5" font-family="Helvetica,sans-Serif" font-size="10.00">tvm/runtime/packed</text>
<text text-anchor="middle" x="1736" y="-298.5" font-family="Helvetica,sans-Serif" font-size="10.00">_func.h</text>
</a>
</g>
</g>
<!-- Node1&#45;&gt;Node2 -->
<g id="edge1" class="edge"><title>Node1&#45;&gt;Node2</title>
<path fill="none" stroke="midnightblue" d="M374.032,-1043.92C769.963,-1039.29 3336,-1006.29 3336,-929 3336,-929 3336,-929 3336,-871 3336,-760.375 3252.01,-756.887 3161,-694 2710.23,-382.525 2018.76,-321.737 1802.8,-310.156"/>
<polygon fill="midnightblue" stroke="midnightblue" points="1802.74,-306.648 1792.57,-309.625 1802.38,-313.639 1802.74,-306.648"/>
</g>
<!-- Node12 -->
<g id="node12" class="node"><title>Node12</title>
<polygon fill="white" stroke="#bfbfbf" points="2896,-62 2896,-81 2940,-81 2940,-62 2896,-62"/>
<text text-anchor="middle" x="2918" y="-69" font-family="Helvetica,sans-Serif" font-size="10.00">string</text>
</g>
<!-- Node1&#45;&gt;Node12 -->
<g id="edge180" class="edge"><title>Node1&#45;&gt;Node12</title>
<path fill="none" stroke="midnightblue" d="M374.088,-1044.1C685.688,-1041.55 2333.69,-1026.69 2838,-994 2957.73,-986.24 3374,-1048.98 3374,-929 3374,-929 3374,-929 3374,-188 3374,-151.28 3354.96,-141.079 3323,-123 3259.27,-86.9522 3034.5,-76.1949 2950.23,-73.3874"/>
<polygon fill="midnightblue" stroke="midnightblue" points="2950.32,-69.8885 2940.21,-73.0695 2950.1,-76.885 2950.32,-69.8885"/>
</g>
<!-- Node13 -->
<g id="node13" class="node"><title>Node13</title>
<polygon fill="white" stroke="#bfbfbf" points="435,-62 435,-81 477,-81 477,-62 435,-62"/>
<text text-anchor="middle" x="456" y="-69" font-family="Helvetica,sans-Serif" font-size="10.00">utility</text>
</g>
<!-- Node1&#45;&gt;Node13 -->
<g id="edge182" class="edge"><title>Node1&#45;&gt;Node13</title>
<path fill="none" stroke="midnightblue" d="M271.82,-1037.06C180.742,-1022.36 0,-986.023 0,-929 0,-929 0,-929 0,-188 0,-153.844 12.1447,-141.275 41,-123 104.874,-82.5462 339.643,-74.4903 424.845,-72.8929"/>
<polygon fill="midnightblue" stroke="midnightblue" points="424.992,-76.391 434.931,-72.7213 424.873,-69.392 424.992,-76.391"/>
</g>
<!-- Node18 -->
<g id="node18" class="node"><title>Node18</title>
<polygon fill="white" stroke="#bfbfbf" points="907.5,-179.5 907.5,-198.5 954.5,-198.5 954.5,-179.5 907.5,-179.5"/>
<text text-anchor="middle" x="931" y="-186.5" font-family="Helvetica,sans-Serif" font-size="10.00">vector</text>
</g>
<!-- Node1&#45;&gt;Node18 -->
<g id="edge181" class="edge"><title>Node1&#45;&gt;Node18</title>
<path fill="none" stroke="midnightblue" d="M319.155,-1030.4C313.603,-1008.76 304,-965.985 304,-929 304,-929 304,-929 304,-703 304,-434.507 448.94,-361.059 686,-235 754.656,-198.491 847.733,-191.068 897.055,-189.884"/>
<polygon fill="midnightblue" stroke="midnightblue" points="897.239,-193.381 907.179,-189.715 897.122,-186.382 897.239,-193.381"/>
</g>
<!-- Node19 -->
<g id="node19" class="node"><title>Node19</title>
<polygon fill="white" stroke="#bfbfbf" points="296.5,-179.5 296.5,-198.5 389.5,-198.5 389.5,-179.5 296.5,-179.5"/>
<text text-anchor="middle" x="343" y="-186.5" font-family="Helvetica,sans-Serif" font-size="10.00">unordered_map</text>
</g>
<!-- Node1&#45;&gt;Node19 -->
<g id="edge183" class="edge"><title>Node1&#45;&gt;Node19</title>
<path fill="none" stroke="midnightblue" d="M300.003,-1030.45C271.888,-1011.3 228,-974.177 228,-929 228,-929 228,-929 228,-703 228,-627.314 190,-612.686 190,-537 190,-537 190,-537 190,-305.5 190,-249.534 256.018,-217.256 301.322,-201.695"/>
<polygon fill="midnightblue" stroke="midnightblue" points="302.52,-204.986 310.926,-198.537 300.333,-198.336 302.52,-204.986"/>
</g>
<!-- Node27 -->
<g id="node27" class="node"><title>Node27</title>
<g id="a_node27"><a xlink:href="target_8h.html" target="_top" xlink:title="Compilation target object. ">
<polygon fill="white" stroke="black" points="484.5,-694.5 484.5,-713.5 593.5,-713.5 593.5,-694.5 484.5,-694.5"/>
<text text-anchor="middle" x="539" y="-701.5" font-family="Helvetica,sans-Serif" font-size="10.00">tvm/target/target.h</text>
</a>
</g>
</g>
<!-- Node1&#45;&gt;Node27 -->
<g id="edge52" class="edge"><title>Node1&#45;&gt;Node27</title>
<path fill="none" stroke="midnightblue" d="M332.006,-1030.34C366.495,-976.137 490.12,-781.828 527.933,-722.395"/>
<polygon fill="midnightblue" stroke="midnightblue" points="531.005,-724.087 533.42,-713.771 525.099,-720.329 531.005,-724.087"/>
</g>
<!-- Node28 -->
<g id="node28" class="node"><title>Node28</title>
<g id="a_node28"><a xlink:href="with_8h.html" target="_top" xlink:title="RAII wrapper function to enter and exit a context object similar to python&#39;s with syntax...">
<polygon fill="white" stroke="black" points="94,-638.5 94,-657.5 200,-657.5 200,-638.5 94,-638.5"/>
<text text-anchor="middle" x="147" y="-645.5" font-family="Helvetica,sans-Serif" font-size="10.00">tvm/support/with.h</text>
</a>
</g>
</g>
<!-- Node1&#45;&gt;Node28 -->
<g id="edge109" class="edge"><title>Node1&#45;&gt;Node28</title>
<path fill="none" stroke="midnightblue" d="M271.735,-1033.51C220.41,-1019.14 149,-988.463 149,-929 149,-929 149,-929 149,-759 149,-726.943 148.14,-689.639 147.548,-667.747"/>
<polygon fill="midnightblue" stroke="midnightblue" points="151.041,-667.454 147.261,-657.557 144.044,-667.651 151.041,-667.454"/>
</g>
<!-- Node38 -->
<g id="node38" class="node"><title>Node38</title>
<polygon fill="white" stroke="#bfbfbf" points="332,-638.5 332,-657.5 418,-657.5 418,-638.5 332,-638.5"/>
<text text-anchor="middle" x="375" y="-645.5" font-family="Helvetica,sans-Serif" font-size="10.00">unordered_set</text>
</g>
<!-- Node1&#45;&gt;Node38 -->
<g id="edge184" class="edge"><title>Node1&#45;&gt;Node38</title>
<path fill="none" stroke="midnightblue" d="M310.388,-1030.19C302.859,-1020.66 294.005,-1007.45 290,-994 287.463,-985.481 288.866,-982.816 290,-974 305.388,-854.344 351.406,-715.863 368.507,-667.104"/>
<polygon fill="midnightblue" stroke="midnightblue" points="371.823,-668.222 371.865,-657.628 365.225,-665.884 371.823,-668.222"/>
</g>
<!-- Node39 -->
<g id="node39" class="node"><title>Node39</title>
<g id="a_node39"><a xlink:href="ir_2module_8h.html" target="_top" xlink:title="IRModule that holds the functions and type definitions. ">
<polygon fill="white" stroke="black" points="628,-806.5 628,-825.5 720,-825.5 720,-806.5 628,-806.5"/>
<text text-anchor="middle" x="674" y="-813.5" font-family="Helvetica,sans-Serif" font-size="10.00">tvm/ir/module.h</text>
</a>
</g>
</g>
<!-- Node1&#45;&gt;Node39 -->
<g id="edge110" class="edge"><title>Node1&#45;&gt;Node39</title>
<path fill="none" stroke="midnightblue" d="M344.692,-1030.44C407.516,-989.721 589.131,-872.008 652.152,-831.161"/>
<polygon fill="midnightblue" stroke="midnightblue" points="654.073,-834.086 660.561,-825.71 650.266,-828.212 654.073,-834.086"/>
</g>
<!-- Node43 -->
<g id="node43" class="node"><title>Node43</title>
<g id="a_node43"><a xlink:href="schedule__pass_8h.html" target="_top" xlink:title="Collection of Schedule pass functions. ">
<polygon fill="white" stroke="black" points="1107.5,-974.5 1107.5,-993.5 1238.5,-993.5 1238.5,-974.5 1107.5,-974.5"/>
<text text-anchor="middle" x="1173" y="-981.5" font-family="Helvetica,sans-Serif" font-size="10.00">tvm/te/schedule_pass.h</text>
</a>
</g>
</g>
<!-- Node1&#45;&gt;Node43 -->
<g id="edge138" class="edge"><title>Node1&#45;&gt;Node43</title>
<path fill="none" stroke="midnightblue" d="M374.257,-1040.91C518.295,-1030.83 927.234,-1002.2 1097.33,-990.297"/>
<polygon fill="midnightblue" stroke="midnightblue" points="1097.72,-993.778 1107.45,-989.588 1097.23,-986.795 1097.72,-993.778"/>
</g>
<!-- Node3 -->
<g id="node3" class="node"><title>Node3</title>
<polygon fill="white" stroke="#bfbfbf" points="1198,-62 1198,-81 1284,-81 1284,-62 1198,-62"/>
<text text-anchor="middle" x="1241" y="-69" font-family="Helvetica,sans-Serif" font-size="10.00">dmlc/logging.h</text>
</g>
<!-- Node2&#45;&gt;Node3 -->
<g id="edge2" class="edge"><title>Node2&#45;&gt;Node3</title>
<path fill="none" stroke="midnightblue" d="M1679.17,-299.967C1586.53,-290.551 1410.85,-270.888 1387,-255 1330.1,-217.098 1353.7,-173.852 1308,-123 1295.22,-108.781 1277.93,-95.8675 1264.12,-86.6588"/>
<polygon fill="midnightblue" stroke="midnightblue" points="1265.92,-83.6575 1255.63,-81.1658 1262.12,-89.5353 1265.92,-83.6575"/>
</g>
<!-- Node4 -->
<g id="node4" class="node"><title>Node4</title>
<g id="a_node4"><a xlink:href="c__runtime__api_8h.html" target="_top" xlink:title="tvm/runtime/c_runtime\l_api.h">
<polygon fill="white" stroke="black" points="1758.5,-56.5 1758.5,-86.5 1885.5,-86.5 1885.5,-56.5 1758.5,-56.5"/>
<text text-anchor="start" x="1766.5" y="-74.5" font-family="Helvetica,sans-Serif" font-size="10.00">tvm/runtime/c_runtime</text>
<text text-anchor="middle" x="1822" y="-63.5" font-family="Helvetica,sans-Serif" font-size="10.00">_api.h</text>
</a>
</g>
</g>
<!-- Node2&#45;&gt;Node4 -->
<g id="edge3" class="edge"><title>Node2&#45;&gt;Node4</title>
<path fill="none" stroke="midnightblue" d="M1766.86,-291.453C1781.59,-283.06 1797.95,-270.908 1807,-255 1835.49,-204.918 1831.16,-134.27 1826.2,-97.2829"/>
<polygon fill="midnightblue" stroke="midnightblue" points="1829.6,-96.3274 1824.67,-86.9448 1822.67,-97.3483 1829.6,-96.3274"/>
</g>
<!-- Node8 -->
<g id="node8" class="node"><title>Node8</title>
<g id="a_node8"><a xlink:href="runtime_2module_8h.html" target="_top" xlink:title="Runtime container of the functions generated by TVM, This is used to support dynamically link...">
<polygon fill="white" stroke="black" points="1674,-235.5 1674,-254.5 1798,-254.5 1798,-235.5 1674,-235.5"/>
<text text-anchor="middle" x="1736" y="-242.5" font-family="Helvetica,sans-Serif" font-size="10.00">tvm/runtime/module.h</text>
</a>
</g>
</g>
<!-- Node2&#45;&gt;Node8 -->
<g id="edge7" class="edge"><title>Node2&#45;&gt;Node8</title>
<path fill="none" stroke="midnightblue" d="M1730.16,-291.399C1729.13,-283.377 1728.97,-273.233 1729.69,-264.569"/>
<polygon fill="midnightblue" stroke="midnightblue" points="1733.16,-265.044 1731.07,-254.658 1726.23,-264.081 1733.16,-265.044"/>
</g>
<!-- Node10 -->
<g id="node10" class="node"><title>Node10</title>
<g id="a_node10"><a xlink:href="object_8h.html" target="_top" xlink:title="A managed object in the TVM runtime. ">
<polygon fill="white" stroke="black" points="1182.5,-123.5 1182.5,-142.5 1299.5,-142.5 1299.5,-123.5 1182.5,-123.5"/>
<text text-anchor="middle" x="1241" y="-130.5" font-family="Helvetica,sans-Serif" font-size="10.00">tvm/runtime/object.h</text>
</a>
</g>
</g>
<!-- Node2&#45;&gt;Node10 -->
<g id="edge43" class="edge"><title>Node2&#45;&gt;Node10</title>
<path fill="none" stroke="midnightblue" d="M1679.49,-298.664C1627.83,-291.359 1549.83,-277.656 1485,-255 1466.61,-248.574 1463.89,-242.703 1446,-235 1401.84,-215.989 1387.26,-219.959 1344,-199 1313.64,-184.29 1281.11,-162.666 1260.91,-148.46"/>
<polygon fill="midnightblue" stroke="midnightblue" points="1262.73,-145.457 1252.55,-142.507 1258.67,-151.159 1262.73,-145.457"/>
</g>
<!-- Node11 -->
<g id="node11" class="node"><title>Node11</title>
<polygon fill="white" stroke="#bfbfbf" points="2295,-62 2295,-81 2363,-81 2363,-62 2295,-62"/>
<text text-anchor="middle" x="2329" y="-69" font-family="Helvetica,sans-Serif" font-size="10.00">type_traits</text>
</g>
<!-- Node2&#45;&gt;Node11 -->
<g id="edge51" class="edge"><title>Node2&#45;&gt;Node11</title>
<path fill="none" stroke="midnightblue" d="M1792.69,-291.476C1852.62,-275.079 1948.46,-244.285 2022,-199 2064.31,-172.945 2060.02,-146.127 2104,-123 2161.81,-92.5985 2237.33,-80.4359 2284.5,-75.6127"/>
<polygon fill="midnightblue" stroke="midnightblue" points="2285.07,-79.0739 2294.69,-74.6396 2284.41,-72.1056 2285.07,-79.0739"/>
</g>
<!-- Node2&#45;&gt;Node12 -->
<g id="edge47" class="edge"><title>Node2&#45;&gt;Node12</title>
<path fill="none" stroke="midnightblue" d="M1792.64,-295.189C1845.59,-285.397 1926.81,-269.983 1997,-255 2249.19,-201.164 2308.54,-170.489 2562,-123 2680.61,-100.777 2823.09,-83.3198 2885.75,-76.1033"/>
<polygon fill="midnightblue" stroke="midnightblue" points="2886.27,-79.5672 2895.81,-74.9547 2885.48,-72.6125 2886.27,-79.5672"/>
</g>
<!-- Node2&#45;&gt;Node13 -->
<g id="edge50" class="edge"><title>Node2&#45;&gt;Node13</title>
<path fill="none" stroke="midnightblue" d="M1679.21,-302.388C1604.97,-297.296 1471.4,-284.606 1361,-255 1212.01,-215.045 1189.9,-159.397 1040,-123 833.518,-72.8647 575.375,-70.9172 487.189,-71.9038"/>
<polygon fill="midnightblue" stroke="midnightblue" points="487.01,-68.4058 477.058,-72.0393 487.104,-75.4052 487.01,-68.4058"/>
</g>
<!-- Node17 -->
<g id="node17" class="node"><title>Node17</title>
<polygon fill="white" stroke="#bfbfbf" points="1472.5,-179.5 1472.5,-198.5 1529.5,-198.5 1529.5,-179.5 1472.5,-179.5"/>
<text text-anchor="middle" x="1501" y="-186.5" font-family="Helvetica,sans-Serif" font-size="10.00">memory</text>
</g>
<!-- Node2&#45;&gt;Node17 -->
<g id="edge49" class="edge"><title>Node2&#45;&gt;Node17</title>
<path fill="none" stroke="midnightblue" d="M1716.91,-291.378C1695.56,-276.046 1659.57,-251.54 1626,-235 1597.87,-221.142 1564.36,-209.312 1539.13,-201.264"/>
<polygon fill="midnightblue" stroke="midnightblue" points="1540.13,-197.911 1529.54,-198.263 1538.04,-204.592 1540.13,-197.911"/>
</g>
<!-- Node2&#45;&gt;Node18 -->
<g id="edge46" class="edge"><title>Node2&#45;&gt;Node18</title>
<path fill="none" stroke="midnightblue" d="M1679.42,-300.644C1592.74,-292.894 1422.01,-276.397 1278,-255 1162.52,-237.843 1026.78,-210.232 964.861,-197.222"/>
<polygon fill="midnightblue" stroke="midnightblue" points="965.382,-193.755 954.875,-195.116 963.937,-200.604 965.382,-193.755"/>
</g>
<!-- Node20 -->
<g id="node20" class="node"><title>Node20</title>
<g id="a_node20"><a xlink:href="ndarray_8h.html" target="_top" xlink:title="A device&#45;independent managed NDArray abstraction. ">
<polygon fill="white" stroke="black" points="1494.5,-235.5 1494.5,-254.5 1617.5,-254.5 1617.5,-235.5 1494.5,-235.5"/>
<text text-anchor="middle" x="1556" y="-242.5" font-family="Helvetica,sans-Serif" font-size="10.00">tvm/runtime/ndarray.h</text>
</a>
</g>
</g>
<!-- Node2&#45;&gt;Node20 -->
<g id="edge27" class="edge"><title>Node2&#45;&gt;Node20</title>
<path fill="none" stroke="midnightblue" d="M1693.34,-291.399C1662.37,-281.163 1620.95,-267.47 1591.72,-257.808"/>
<polygon fill="midnightblue" stroke="midnightblue" points="1592.52,-254.386 1581.93,-254.571 1590.33,-261.033 1592.52,-254.386"/>
</g>
<!-- Node23 -->
<g id="node23" class="node"><title>Node23</title>
<g id="a_node23"><a xlink:href="data__type_8h.html" target="_top" xlink:title="tvm/runtime/data_type.h">
<polygon fill="white" stroke="black" points="2146,-123.5 2146,-142.5 2282,-142.5 2282,-123.5 2146,-123.5"/>
<text text-anchor="middle" x="2214" y="-130.5" font-family="Helvetica,sans-Serif" font-size="10.00">tvm/runtime/data_type.h</text>
</a>
</g>
</g>
<!-- Node2&#45;&gt;Node23 -->
<g id="edge38" class="edge"><title>Node2&#45;&gt;Node23</title>
<path fill="none" stroke="midnightblue" d="M1792.64,-294.856C1837.02,-285.924 1900.07,-271.924 1954,-255 2017.94,-234.935 2033.32,-227.451 2094,-199 2128.47,-182.838 2166.94,-161.359 2190.81,-147.604"/>
<polygon fill="midnightblue" stroke="midnightblue" points="2192.61,-150.608 2199.5,-142.565 2189.1,-144.552 2192.61,-150.608"/>
</g>
<!-- Node24 -->
<g id="node24" class="node"><title>Node24</title>
<polygon fill="white" stroke="#bfbfbf" points="2196.5,-235.5 2196.5,-254.5 2259.5,-254.5 2259.5,-235.5 2196.5,-235.5"/>
<text text-anchor="middle" x="2228" y="-242.5" font-family="Helvetica,sans-Serif" font-size="10.00">functional</text>
</g>
<!-- Node2&#45;&gt;Node24 -->
<g id="edge44" class="edge"><title>Node2&#45;&gt;Node24</title>
<path fill="none" stroke="midnightblue" d="M1792.92,-298.616C1892.94,-286.52 2097.98,-261.724 2186.16,-251.06"/>
<polygon fill="midnightblue" stroke="midnightblue" points="2186.81,-254.506 2196.32,-249.831 2185.97,-247.557 2186.81,-254.506"/>
</g>
<!-- Node25 -->
<g id="node25" class="node"><title>Node25</title>
<polygon fill="white" stroke="#bfbfbf" points="1396.5,-235.5 1396.5,-254.5 1437.5,-254.5 1437.5,-235.5 1396.5,-235.5"/>
<text text-anchor="middle" x="1417" y="-242.5" font-family="Helvetica,sans-Serif" font-size="10.00">tuple</text>
</g>
<!-- Node2&#45;&gt;Node25 -->
<g id="edge45" class="edge"><title>Node2&#45;&gt;Node25</title>
<path fill="none" stroke="midnightblue" d="M1679.44,-296.738C1621.95,-287.528 1530.42,-272.03 1452,-255 1450.54,-254.684 1449.06,-254.349 1447.56,-254.001"/>
<polygon fill="midnightblue" stroke="midnightblue" points="1448.21,-250.558 1437.67,-251.591 1446.55,-257.359 1448.21,-250.558"/>
</g>
<!-- Node26 -->
<g id="node26" class="node"><title>Node26</title>
<polygon fill="white" stroke="#bfbfbf" points="2506,-235.5 2506,-254.5 2548,-254.5 2548,-235.5 2506,-235.5"/>
<text text-anchor="middle" x="2527" y="-242.5" font-family="Helvetica,sans-Serif" font-size="10.00">limits</text>
</g>
<!-- Node2&#45;&gt;Node26 -->
<g id="edge48" class="edge"><title>Node2&#45;&gt;Node26</title>
<path fill="none" stroke="midnightblue" d="M1792.57,-301.245C1947.56,-289.587 2375.43,-257.401 2495.38,-248.379"/>
<polygon fill="midnightblue" stroke="midnightblue" points="2495.98,-251.843 2505.69,-247.603 2495.46,-244.863 2495.98,-251.843"/>
</g>
<!-- Node5 -->
<g id="node5" class="node"><title>Node5</title>
<polygon fill="white" stroke="#bfbfbf" points="1687,-0.5 1687,-19.5 1777,-19.5 1777,-0.5 1687,-0.5"/>
<text text-anchor="middle" x="1732" y="-7.5" font-family="Helvetica,sans-Serif" font-size="10.00">dlpack/dlpack.h</text>
</g>
<!-- Node4&#45;&gt;Node5 -->
<g id="edge4" class="edge"><title>Node4&#45;&gt;Node5</title>
<path fill="none" stroke="midnightblue" d="M1800.67,-56.3993C1786.51,-47.0402 1767.99,-34.7924 1753.75,-25.3771"/>
<polygon fill="midnightblue" stroke="midnightblue" points="1755.37,-22.2531 1745.1,-19.6578 1751.51,-28.0923 1755.37,-22.2531"/>
</g>
<!-- Node6 -->
<g id="node6" class="node"><title>Node6</title>
<polygon fill="white" stroke="#bfbfbf" points="1795.5,-0.5 1795.5,-19.5 1848.5,-19.5 1848.5,-0.5 1795.5,-0.5"/>
<text text-anchor="middle" x="1822" y="-7.5" font-family="Helvetica,sans-Serif" font-size="10.00">stdint.h</text>
</g>
<!-- Node4&#45;&gt;Node6 -->
<g id="edge5" class="edge"><title>Node4&#45;&gt;Node6</title>
<path fill="none" stroke="midnightblue" d="M1822,-56.3993C1822,-48.4664 1822,-38.458 1822,-29.8583"/>
<polygon fill="midnightblue" stroke="midnightblue" points="1825.5,-29.6577 1822,-19.6578 1818.5,-29.6578 1825.5,-29.6577"/>
</g>
<!-- Node7 -->
<g id="node7" class="node"><title>Node7</title>
<polygon fill="white" stroke="#bfbfbf" points="1866.5,-0.5 1866.5,-19.5 1921.5,-19.5 1921.5,-0.5 1866.5,-0.5"/>
<text text-anchor="middle" x="1894" y="-7.5" font-family="Helvetica,sans-Serif" font-size="10.00">stddef.h</text>
</g>
<!-- Node4&#45;&gt;Node7 -->
<g id="edge6" class="edge"><title>Node4&#45;&gt;Node7</title>
<path fill="none" stroke="midnightblue" d="M1839.06,-56.3993C1850.06,-47.3076 1864.37,-35.4899 1875.62,-26.1909"/>
<polygon fill="midnightblue" stroke="midnightblue" points="1878.04,-28.726 1883.52,-19.6578 1873.59,-23.33 1878.04,-28.726"/>
</g>
<!-- Node8&#45;&gt;Node2 -->
<g id="edge26" class="edge"><title>Node8&#45;&gt;Node2</title>
<path fill="none" stroke="midnightblue" d="M1740.93,-254.658C1742.43,-261.655 1743.01,-271.857 1742.64,-281.289"/>
<polygon fill="midnightblue" stroke="midnightblue" points="1739.14,-281.153 1741.84,-291.399 1746.12,-281.709 1739.14,-281.153"/>
</g>
<!-- Node8&#45;&gt;Node4 -->
<g id="edge9" class="edge"><title>Node8&#45;&gt;Node4</title>
<path fill="none" stroke="midnightblue" d="M1740.38,-235.26C1753.23,-209.649 1791.08,-134.168 1810.38,-95.6628"/>
<polygon fill="midnightblue" stroke="midnightblue" points="1813.51,-97.2307 1814.87,-86.7228 1807.26,-94.0929 1813.51,-97.2307"/>
</g>
<!-- Node9 -->
<g id="node9" class="node"><title>Node9</title>
<polygon fill="white" stroke="#bfbfbf" points="1657,-123.5 1657,-142.5 1717,-142.5 1717,-123.5 1657,-123.5"/>
<text text-anchor="middle" x="1687" y="-130.5" font-family="Helvetica,sans-Serif" font-size="10.00">dmlc/io.h</text>
</g>
<!-- Node8&#45;&gt;Node9 -->
<g id="edge8" class="edge"><title>Node8&#45;&gt;Node9</title>
<path fill="none" stroke="midnightblue" d="M1735.96,-235.156C1735.59,-222.231 1733.67,-197.687 1725,-179 1719.96,-168.148 1711.59,-157.816 1703.99,-149.795"/>
<polygon fill="midnightblue" stroke="midnightblue" points="1706.34,-147.198 1696.79,-142.611 1701.4,-152.153 1706.34,-147.198"/>
</g>
<!-- Node8&#45;&gt;Node10 -->
<g id="edge10" class="edge"><title>Node8&#45;&gt;Node10</title>
<path fill="none" stroke="midnightblue" d="M1697.72,-235.425C1665.07,-227.581 1617.18,-214.807 1577,-199 1558.87,-191.868 1556.54,-184.982 1538,-179 1462.23,-154.552 1371.2,-143.259 1310.07,-138.127"/>
<polygon fill="midnightblue" stroke="midnightblue" points="1310.02,-134.611 1299.77,-137.296 1309.45,-141.588 1310.02,-134.611"/>
</g>
<!-- Node8&#45;&gt;Node12 -->
<g id="edge24" class="edge"><title>Node8&#45;&gt;Node12</title>
<path fill="none" stroke="midnightblue" d="M1798.23,-241.819C1857.53,-237.998 1948.43,-227.538 2022,-199 2079.12,-176.845 2078.93,-142.52 2137,-123 2279.18,-75.207 2757.06,-72.2894 2885.82,-72.3909"/>
<polygon fill="midnightblue" stroke="midnightblue" points="2885.83,-75.8908 2895.83,-72.4057 2885.84,-68.8908 2885.83,-75.8908"/>
</g>
<!-- Node15 -->
<g id="node15" class="node"><title>Node15</title>
<g id="a_node15"><a xlink:href="runtime_2memory_8h.html" target="_top" xlink:title="Runtime memory management. ">
<polygon fill="white" stroke="black" points="1886.5,-179.5 1886.5,-198.5 2013.5,-198.5 2013.5,-179.5 1886.5,-179.5"/>
<text text-anchor="middle" x="1950" y="-186.5" font-family="Helvetica,sans-Serif" font-size="10.00">tvm/runtime/memory.h</text>
</a>
</g>
</g>
<!-- Node8&#45;&gt;Node15 -->
<g id="edge17" class="edge"><title>Node8&#45;&gt;Node15</title>
<path fill="none" stroke="midnightblue" d="M1769.91,-235.444C1806.85,-226.122 1866.05,-211.183 1906.42,-200.997"/>
<polygon fill="midnightblue" stroke="midnightblue" points="1907.41,-204.357 1916.25,-198.516 1905.7,-197.57 1907.41,-204.357"/>
</g>
<!-- Node8&#45;&gt;Node17 -->
<g id="edge22" class="edge"><title>Node8&#45;&gt;Node17</title>
<path fill="none" stroke="midnightblue" d="M1698.76,-235.444C1655.18,-225.428 1583.37,-208.928 1539.32,-198.806"/>
<polygon fill="midnightblue" stroke="midnightblue" points="1540.09,-195.392 1529.56,-196.563 1538.52,-202.214 1540.09,-195.392"/>
</g>
<!-- Node8&#45;&gt;Node18 -->
<g id="edge23" class="edge"><title>Node8&#45;&gt;Node18</title>
<path fill="none" stroke="midnightblue" d="M1673.77,-238.723C1658.18,-237.452 1641.48,-236.134 1626,-235 1372.07,-216.392 1065.64,-197.949 964.893,-191.99"/>
<polygon fill="midnightblue" stroke="midnightblue" points="964.901,-188.484 954.712,-191.389 964.488,-195.472 964.901,-188.484"/>
</g>
<!-- Node8&#45;&gt;Node19 -->
<g id="edge25" class="edge"><title>Node8&#45;&gt;Node19</title>
<path fill="none" stroke="midnightblue" d="M1673.79,-238.402C1658.2,-237.138 1641.49,-235.905 1626,-235 1152.37,-207.333 579.313,-194.563 399.655,-191.046"/>
<polygon fill="midnightblue" stroke="midnightblue" points="399.706,-187.546 389.64,-190.851 399.57,-194.545 399.706,-187.546"/>
</g>
<!-- Node10&#45;&gt;Node3 -->
<g id="edge11" class="edge"><title>Node10&#45;&gt;Node3</title>
<path fill="none" stroke="midnightblue" d="M1241,-123.475C1241,-115.08 1241,-101.981 1241,-91.1631"/>
<polygon fill="midnightblue" stroke="midnightblue" points="1244.5,-91.0091 1241,-81.0091 1237.5,-91.0091 1244.5,-91.0091"/>
</g>
<!-- Node10&#45;&gt;Node4 -->
<g id="edge12" class="edge"><title>Node10&#45;&gt;Node4</title>
<path fill="none" stroke="midnightblue" d="M1299.64,-125.995C1406.2,-115.082 1631.37,-92.0226 1748.19,-80.0584"/>
<polygon fill="midnightblue" stroke="midnightblue" points="1748.88,-83.5067 1758.47,-79.0061 1748.17,-76.5431 1748.88,-83.5067"/>
</g>
<!-- Node10&#45;&gt;Node11 -->
<g id="edge13" class="edge"><title>Node10&#45;&gt;Node11</title>
<path fill="none" stroke="midnightblue" d="M1299.88,-128.78C1494.34,-118.145 2113.38,-84.2915 2284.69,-74.9232"/>
<polygon fill="midnightblue" stroke="midnightblue" points="2285.06,-78.4083 2294.85,-74.3674 2284.68,-71.4187 2285.06,-78.4083"/>
</g>
<!-- Node10&#45;&gt;Node12 -->
<g id="edge14" class="edge"><title>Node10&#45;&gt;Node12</title>
<path fill="none" stroke="midnightblue" d="M1299.7,-129.917C1568.95,-120.364 2681.33,-80.8969 2885.67,-73.647"/>
<polygon fill="midnightblue" stroke="midnightblue" points="2885.89,-77.1416 2895.76,-73.2891 2885.64,-70.146 2885.89,-77.1416"/>
</g>
<!-- Node10&#45;&gt;Node13 -->
<g id="edge15" class="edge"><title>Node10&#45;&gt;Node13</title>
<path fill="none" stroke="midnightblue" d="M1182.32,-127.552C1026.47,-115.74 606.037,-83.8722 487.498,-74.8874"/>
<polygon fill="midnightblue" stroke="midnightblue" points="487.532,-71.38 477.296,-74.1141 487.003,-78.36 487.532,-71.38"/>
</g>
<!-- Node14 -->
<g id="node14" class="node"><title>Node14</title>
<polygon fill="white" stroke="#bfbfbf" points="1361,-62 1361,-81 1411,-81 1411,-62 1361,-62"/>
<text text-anchor="middle" x="1386" y="-69" font-family="Helvetica,sans-Serif" font-size="10.00">atomic</text>
</g>
<!-- Node10&#45;&gt;Node14 -->
<g id="edge16" class="edge"><title>Node10&#45;&gt;Node14</title>
<path fill="none" stroke="midnightblue" d="M1261.77,-123.475C1286.43,-113.357 1327.75,-96.4046 1355.9,-84.8507"/>
<polygon fill="midnightblue" stroke="midnightblue" points="1357.34,-88.0434 1365.26,-81.0091 1354.68,-81.5674 1357.34,-88.0434"/>
</g>
<!-- Node15&#45;&gt;Node10 -->
<g id="edge18" class="edge"><title>Node15&#45;&gt;Node10</title>
<path fill="none" stroke="midnightblue" d="M1886.46,-183.16C1753.49,-173.033 1446.89,-149.681 1309.62,-139.226"/>
<polygon fill="midnightblue" stroke="midnightblue" points="1309.88,-135.736 1299.64,-138.466 1309.34,-142.716 1309.88,-135.736"/>
</g>
<!-- Node15&#45;&gt;Node11 -->
<g id="edge21" class="edge"><title>Node15&#45;&gt;Node11</title>
<path fill="none" stroke="midnightblue" d="M1957.62,-179.147C1970.53,-164.796 1998.2,-136.682 2028,-123 2113.12,-83.9117 2224.21,-74.7266 2284.82,-72.7852"/>
<polygon fill="midnightblue" stroke="midnightblue" points="2284.91,-76.284 2294.81,-72.5166 2284.72,-69.2866 2284.91,-76.284"/>
</g>
<!-- Node15&#45;&gt;Node13 -->
<g id="edge20" class="edge"><title>Node15&#45;&gt;Node13</title>
<path fill="none" stroke="midnightblue" d="M1927.52,-179.496C1887.63,-164.854 1801.54,-135.275 1726,-123 1600.41,-102.592 670.151,-77.9634 487.186,-73.2868"/>
<polygon fill="midnightblue" stroke="midnightblue" points="487.24,-69.7872 477.154,-73.0313 487.061,-76.7849 487.24,-69.7872"/>
</g>
<!-- Node16 -->
<g id="node16" class="node"><title>Node16</title>
<polygon fill="white" stroke="#bfbfbf" points="1890.5,-123.5 1890.5,-142.5 1937.5,-142.5 1937.5,-123.5 1890.5,-123.5"/>
<text text-anchor="middle" x="1914" y="-130.5" font-family="Helvetica,sans-Serif" font-size="10.00">cstdlib</text>
</g>
<!-- Node15&#45;&gt;Node16 -->
<g id="edge19" class="edge"><title>Node15&#45;&gt;Node16</title>
<path fill="none" stroke="midnightblue" d="M1944.06,-179.083C1939.02,-171.534 1931.66,-160.495 1925.49,-151.23"/>
<polygon fill="midnightblue" stroke="midnightblue" points="1928.29,-149.13 1919.83,-142.751 1922.47,-153.013 1928.29,-149.13"/>
</g>
<!-- Node20&#45;&gt;Node4 -->
<g id="edge28" class="edge"><title>Node20&#45;&gt;Node4</title>
<path fill="none" stroke="midnightblue" d="M1617.86,-237.4C1651.74,-231.468 1693.18,-220.235 1725,-199 1730.33,-195.442 1778.76,-130.76 1805.11,-95.3033"/>
<polygon fill="midnightblue" stroke="midnightblue" points="1808.14,-97.0894 1811.29,-86.9735 1802.52,-92.9174 1808.14,-97.0894"/>
</g>
<!-- Node20&#45;&gt;Node10 -->
<g id="edge29" class="edge"><title>Node20&#45;&gt;Node10</title>
<path fill="none" stroke="midnightblue" d="M1519.08,-235.424C1485.54,-227.27 1434.91,-214.04 1392,-199 1379.87,-194.748 1310.04,-164.293 1269.72,-146.618"/>
<polygon fill="midnightblue" stroke="midnightblue" points="1270.96,-143.341 1260.4,-142.529 1268.15,-149.751 1270.96,-143.341"/>
</g>
<!-- Node20&#45;&gt;Node13 -->
<g id="edge37" class="edge"><title>Node20&#45;&gt;Node13</title>
<path fill="none" stroke="midnightblue" d="M1531.56,-235.48C1508.19,-227.069 1472.14,-213.408 1442,-199 1380.23,-169.469 1373.66,-142.419 1308,-123 1149.75,-76.1967 621.894,-72.6081 487.397,-72.4657"/>
<polygon fill="midnightblue" stroke="midnightblue" points="487.005,-68.9656 477.004,-72.461 487.002,-75.9656 487.005,-68.9656"/>
</g>
<!-- Node20&#45;&gt;Node14 -->
<g id="edge35" class="edge"><title>Node20&#45;&gt;Node14</title>
<path fill="none" stroke="midnightblue" d="M1528.32,-235.364C1508.41,-228.097 1481.85,-216.124 1463,-199 1428.54,-167.704 1404.31,-117.401 1393.07,-90.6305"/>
<polygon fill="midnightblue" stroke="midnightblue" points="1396.18,-88.9699 1389.18,-81.0167 1389.69,-91.5992 1396.18,-88.9699"/>
</g>
<!-- Node20&#45;&gt;Node18 -->
<g id="edge36" class="edge"><title>Node20&#45;&gt;Node18</title>
<path fill="none" stroke="midnightblue" d="M1494.36,-238.674C1364.36,-227.443 1065.79,-201.646 964.97,-192.935"/>
<polygon fill="midnightblue" stroke="midnightblue" points="965.018,-189.426 954.754,-192.052 964.416,-196.4 965.018,-189.426"/>
</g>
<!-- Node21 -->
<g id="node21" class="node"><title>Node21</title>
<g id="a_node21"><a xlink:href="serializer_8h.html" target="_top" xlink:title="Serializer extension to support TVM data types Include this file to enable serialization of DLDataTyp...">
<polygon fill="white" stroke="black" points="1586,-179.5 1586,-198.5 1716,-198.5 1716,-179.5 1586,-179.5"/>
<text text-anchor="middle" x="1651" y="-186.5" font-family="Helvetica,sans-Serif" font-size="10.00">tvm/runtime/serializer.h</text>
</a>
</g>
</g>
<!-- Node20&#45;&gt;Node21 -->
<g id="edge30" class="edge"><title>Node20&#45;&gt;Node21</title>
<path fill="none" stroke="midnightblue" d="M1566.15,-235.324C1579.45,-226.703 1602.65,-213.364 1621.53,-203.386"/>
<polygon fill="midnightblue" stroke="midnightblue" points="1623.39,-206.362 1630.66,-198.655 1620.18,-200.146 1623.39,-206.362"/>
</g>
<!-- Node21&#45;&gt;Node4 -->
<g id="edge33" class="edge"><title>Node21&#45;&gt;Node4</title>
<path fill="none" stroke="midnightblue" d="M1605.44,-179.476C1563.87,-169.704 1512.27,-151.288 1536,-123 1562.54,-91.364 1672.2,-79.5375 1747.75,-75.1223"/>
<polygon fill="midnightblue" stroke="midnightblue" points="1748.38,-78.593 1758.17,-74.5472 1747.99,-71.6036 1748.38,-78.593"/>
</g>
<!-- Node21&#45;&gt;Node9 -->
<g id="edge31" class="edge"><title>Node21&#45;&gt;Node9</title>
<path fill="none" stroke="midnightblue" d="M1656.94,-179.083C1661.98,-171.534 1669.34,-160.495 1675.51,-151.23"/>
<polygon fill="midnightblue" stroke="midnightblue" points="1678.53,-153.013 1681.17,-142.751 1672.71,-149.13 1678.53,-153.013"/>
</g>
<!-- Node21&#45;&gt;Node20 -->
<g id="edge34" class="edge"><title>Node21&#45;&gt;Node20</title>
<path fill="none" stroke="midnightblue" d="M1640.88,-198.655C1627.6,-207.267 1604.41,-220.605 1585.52,-230.59"/>
<polygon fill="midnightblue" stroke="midnightblue" points="1583.65,-227.616 1576.38,-235.324 1586.87,-233.831 1583.65,-227.616"/>
</g>
<!-- Node22 -->
<g id="node22" class="node"><title>Node22</title>
<polygon fill="white" stroke="#bfbfbf" points="1545,-123.5 1545,-142.5 1639,-142.5 1639,-123.5 1545,-123.5"/>
<text text-anchor="middle" x="1592" y="-130.5" font-family="Helvetica,sans-Serif" font-size="10.00">dmlc/serializer.h</text>
</g>
<!-- Node21&#45;&gt;Node22 -->
<g id="edge32" class="edge"><title>Node21&#45;&gt;Node22</title>
<path fill="none" stroke="midnightblue" d="M1641.52,-179.324C1632.8,-171.341 1619.66,-159.313 1609.1,-149.653"/>
<polygon fill="midnightblue" stroke="midnightblue" points="1611.39,-147.004 1601.65,-142.834 1606.67,-152.167 1611.39,-147.004"/>
</g>
<!-- Node23&#45;&gt;Node3 -->
<g id="edge40" class="edge"><title>Node23&#45;&gt;Node3</title>
<path fill="none" stroke="midnightblue" d="M2145.79,-129.126C1970.21,-121.619 1505.71,-101.031 1352,-87 1333.06,-85.2709 1312.37,-82.7445 1294.05,-80.2832"/>
<polygon fill="midnightblue" stroke="midnightblue" points="1294.52,-76.815 1284.14,-78.9279 1293.57,-83.7505 1294.52,-76.815"/>
</g>
<!-- Node23&#45;&gt;Node4 -->
<g id="edge39" class="edge"><title>Node23&#45;&gt;Node4</title>
<path fill="none" stroke="midnightblue" d="M2157.84,-123.475C2088.85,-113.004 1971.63,-95.2124 1895.53,-83.6607"/>
<polygon fill="midnightblue" stroke="midnightblue" points="1895.95,-80.1841 1885.53,-82.1437 1894.9,-87.1048 1895.95,-80.1841"/>
</g>
<!-- Node23&#45;&gt;Node11 -->
<g id="edge41" class="edge"><title>Node23&#45;&gt;Node11</title>
<path fill="none" stroke="midnightblue" d="M2230.48,-123.475C2249.61,-113.578 2281.37,-97.1416 2303.65,-85.6151"/>
<polygon fill="midnightblue" stroke="midnightblue" points="2305.28,-88.713 2312.55,-81.0091 2302.06,-82.4958 2305.28,-88.713"/>
</g>
<!-- Node23&#45;&gt;Node12 -->
<g id="edge42" class="edge"><title>Node23&#45;&gt;Node12</title>
<path fill="none" stroke="midnightblue" d="M2282.14,-126.241C2430.43,-113.708 2777.75,-84.3538 2885.52,-75.2452"/>
<polygon fill="midnightblue" stroke="midnightblue" points="2886.09,-78.7098 2895.76,-74.3799 2885.5,-71.7346 2886.09,-78.7098"/>
</g>
<!-- Node27&#45;&gt;Node12 -->
<g id="edge105" class="edge"><title>Node27&#45;&gt;Node12</title>
<path fill="none" stroke="midnightblue" d="M593.699,-699.836C826.684,-684.791 1756.17,-608.827 2452,-322 2630.31,-248.499 2829.92,-127.526 2895.68,-86.5622"/>
<polygon fill="midnightblue" stroke="midnightblue" points="2897.77,-89.3835 2904.39,-81.1141 2894.06,-83.4483 2897.77,-89.3835"/>
</g>
<!-- Node27&#45;&gt;Node13 -->
<g id="edge108" class="edge"><title>Node27&#45;&gt;Node13</title>
<path fill="none" stroke="midnightblue" d="M524.931,-694.222C456.951,-651.573 163.201,-464.533 100,-378 80.4779,-351.271 76,-340.599 76,-307.5 76,-307.5 76,-307.5 76,-188 76,-157.205 76.0352,-142.34 100,-123 149.644,-82.9366 346.939,-74.6556 424.476,-72.945"/>
<polygon fill="midnightblue" stroke="midnightblue" points="424.666,-76.442 434.595,-72.7446 424.527,-69.4434 424.666,-76.442"/>
</g>
<!-- Node27&#45;&gt;Node18 -->
<g id="edge106" class="edge"><title>Node27&#45;&gt;Node18</title>
<path fill="none" stroke="midnightblue" d="M536.707,-694.231C532.067,-675.687 522,-631.068 522,-593 522,-593 522,-593 522,-535 522,-500.445 676.227,-256.803 708,-235 738.301,-214.207 842.388,-199.865 896.974,-193.583"/>
<polygon fill="midnightblue" stroke="midnightblue" points="897.648,-197.029 907.195,-192.434 896.867,-190.073 897.648,-197.029"/>
</g>
<!-- Node27&#45;&gt;Node28 -->
<g id="edge53" class="edge"><title>Node27&#45;&gt;Node28</title>
<path fill="none" stroke="midnightblue" d="M484.494,-695.492C412.517,-685.576 286.03,-668.152 210.025,-657.682"/>
<polygon fill="midnightblue" stroke="midnightblue" points="210.487,-654.213 200.103,-656.315 209.531,-661.147 210.487,-654.213"/>
</g>
<!-- Node29 -->
<g id="node29" class="node"><title>Node29</title>
<g id="a_node29"><a xlink:href="node_2container_8h.html" target="_top" xlink:title="Array/Map container in the DSL graph. ">
<polygon fill="white" stroke="black" points="1068.5,-414.5 1068.5,-433.5 1187.5,-433.5 1187.5,-414.5 1068.5,-414.5"/>
<text text-anchor="middle" x="1128" y="-421.5" font-family="Helvetica,sans-Serif" font-size="10.00">tvm/node/container.h</text>
</a>
</g>
</g>
<!-- Node27&#45;&gt;Node29 -->
<g id="edge56" class="edge"><title>Node27&#45;&gt;Node29</title>
<path fill="none" stroke="midnightblue" d="M551.58,-694.364C601.44,-660.525 790.89,-535.595 964,-470 1001.78,-455.684 1046.03,-443.815 1079.04,-435.867"/>
<polygon fill="midnightblue" stroke="midnightblue" points="1079.98,-439.241 1088.9,-433.528 1078.37,-432.43 1079.98,-439.241"/>
</g>
<!-- Node33 -->
<g id="node33" class="node"><title>Node33</title>
<g id="a_node33"><a xlink:href="ir_2expr_8h.html" target="_top" xlink:title="Base expr nodes in TVM. ">
<polygon fill="white" stroke="black" points="1530.5,-638.5 1530.5,-657.5 1607.5,-657.5 1607.5,-638.5 1530.5,-638.5"/>
<text text-anchor="middle" x="1569" y="-645.5" font-family="Helvetica,sans-Serif" font-size="10.00">tvm/ir/expr.h</text>
</a>
</g>
</g>
<!-- Node27&#45;&gt;Node33 -->
<g id="edge77" class="edge"><title>Node27&#45;&gt;Node33</title>
<path fill="none" stroke="midnightblue" d="M593.65,-700.135C774.012,-690.679 1348.58,-660.556 1520.16,-651.56"/>
<polygon fill="midnightblue" stroke="midnightblue" points="1520.6,-655.042 1530.4,-651.023 1520.23,-648.052 1520.6,-655.042"/>
</g>
<!-- Node27&#45;&gt;Node38 -->
<g id="edge107" class="edge"><title>Node27&#45;&gt;Node38</title>
<path fill="none" stroke="midnightblue" d="M513.014,-694.444C485.304,-685.32 441.248,-670.813 410.384,-660.651"/>
<polygon fill="midnightblue" stroke="midnightblue" points="411.458,-657.32 400.865,-657.516 409.268,-663.968 411.458,-657.32"/>
</g>
<!-- Node28&#45;&gt;Node3 -->
<g id="edge54" class="edge"><title>Node28&#45;&gt;Node3</title>
<path fill="none" stroke="midnightblue" d="M144.791,-638.482C133.402,-592.549 85.2637,-371.427 176,-235 206.6,-188.991 234.039,-194.759 287,-179 618.866,-80.2523 1040.42,-71.6403 1187.5,-71.9008"/>
<polygon fill="midnightblue" stroke="midnightblue" points="1187.6,-75.4011 1197.61,-71.9338 1187.62,-68.4011 1187.6,-75.4011"/>
</g>
<!-- Node28&#45;&gt;Node13 -->
<g id="edge55" class="edge"><title>Node28&#45;&gt;Node13</title>
<path fill="none" stroke="midnightblue" d="M140.827,-638.372C117.769,-605.266 38,-482.532 38,-369 38,-369 38,-369 38,-188 38,-157.205 37.9058,-142.179 62,-123 117.955,-78.461 341.866,-72.9435 424.852,-72.4536"/>
<polygon fill="midnightblue" stroke="midnightblue" points="424.939,-75.9534 434.926,-72.4153 424.913,-68.9534 424.939,-75.9534"/>
</g>
<!-- Node29&#45;&gt;Node2 -->
<g id="edge59" class="edge"><title>Node29&#45;&gt;Node2</title>
<path fill="none" stroke="midnightblue" d="M1187.76,-422.922C1274.65,-421.486 1440.32,-413.742 1576,-378 1621.42,-366.036 1670.38,-342.78 1702.02,-326.253"/>
<polygon fill="midnightblue" stroke="midnightblue" points="1703.66,-329.345 1710.86,-321.573 1700.38,-323.158 1703.66,-329.345"/>
</g>
<!-- Node29&#45;&gt;Node10 -->
<g id="edge57" class="edge"><title>Node29&#45;&gt;Node10</title>
<path fill="none" stroke="midnightblue" d="M1124.71,-414.455C1117.71,-395.507 1102,-348.402 1102,-307.5 1102,-307.5 1102,-307.5 1102,-244 1102,-192.575 1161.23,-161.416 1202.36,-145.978"/>
<polygon fill="midnightblue" stroke="midnightblue" points="1203.63,-149.239 1211.86,-142.565 1201.27,-142.65 1203.63,-149.239"/>
</g>
<!-- Node29&#45;&gt;Node11 -->
<g id="edge71" class="edge"><title>Node29&#45;&gt;Node11</title>
<path fill="none" stroke="midnightblue" d="M1187.85,-422.62C1293.15,-421.001 1517.99,-413.284 1704,-378 1787.57,-362.148 1807.31,-351.726 1887,-322 2071.01,-253.365 2146.87,-276.4 2291,-143 2306.59,-128.573 2317.1,-106.263 2323.05,-90.6133"/>
<polygon fill="midnightblue" stroke="midnightblue" points="2326.41,-91.6165 2326.44,-81.0218 2319.81,-89.282 2326.41,-91.6165"/>
</g>
<!-- Node29&#45;&gt;Node12 -->
<g id="edge76" class="edge"><title>Node29&#45;&gt;Node12</title>
<path fill="none" stroke="midnightblue" d="M1187.57,-421.712C1300.02,-418.628 1551.03,-408.632 1760,-378 2007.83,-341.671 2069.49,-324.962 2310,-255 2393.02,-230.85 2592.81,-146.556 2676,-123 2749.94,-102.063 2838.83,-85.7097 2885.59,-77.7701"/>
<polygon fill="midnightblue" stroke="midnightblue" points="2886.44,-81.1765 2895.73,-76.0697 2885.28,-74.273 2886.44,-81.1765"/>
</g>
<!-- Node29&#45;&gt;Node13 -->
<g id="edge75" class="edge"><title>Node29&#45;&gt;Node13</title>
<path fill="none" stroke="midnightblue" d="M1111.39,-414.336C1021.24,-367.315 590.763,-142.79 481.342,-85.7178"/>
<polygon fill="midnightblue" stroke="midnightblue" points="482.815,-82.5388 472.33,-81.0175 479.578,-88.7453 482.815,-82.5388"/>
</g>
<!-- Node29&#45;&gt;Node15 -->
<g id="edge58" class="edge"><title>Node29&#45;&gt;Node15</title>
<path fill="none" stroke="midnightblue" d="M1187.58,-420.55C1337.61,-413.437 1726.74,-388.87 1835,-322 1883.11,-292.281 1922.04,-236.033 1939.71,-207.518"/>
<polygon fill="midnightblue" stroke="midnightblue" points="1942.88,-209.046 1945.06,-198.678 1936.89,-205.423 1942.88,-209.046"/>
</g>
<!-- Node29&#45;&gt;Node18 -->
<g id="edge72" class="edge"><title>Node29&#45;&gt;Node18</title>
<path fill="none" stroke="midnightblue" d="M1119.13,-414.336C1094.66,-390.226 1024.67,-319.854 974,-255 961.935,-239.556 949.757,-220.78 941.456,-207.387"/>
<polygon fill="midnightblue" stroke="midnightblue" points="944.355,-205.418 936.155,-198.71 938.382,-209.068 944.355,-205.418"/>
</g>
<!-- Node29&#45;&gt;Node19 -->
<g id="edge74" class="edge"><title>Node29&#45;&gt;Node19</title>
<path fill="none" stroke="midnightblue" d="M1098.46,-414.419C1067.45,-405.399 1017.28,-390.77 974,-378 749.255,-311.684 479.834,-231.025 381.398,-201.517"/>
<polygon fill="midnightblue" stroke="midnightblue" points="382.184,-198.099 371.6,-198.579 380.173,-204.804 382.184,-198.099"/>
</g>
<!-- Node30 -->
<g id="node30" class="node"><title>Node30</title>
<g id="a_node30"><a xlink:href="runtime_2container_8h.html" target="_top" xlink:title="Common POD(plain old data) container types. ">
<polygon fill="white" stroke="black" points="1435,-358.5 1435,-377.5 1567,-377.5 1567,-358.5 1435,-358.5"/>
<text text-anchor="middle" x="1501" y="-365.5" font-family="Helvetica,sans-Serif" font-size="10.00">tvm/runtime/container.h</text>
</a>
</g>
</g>
<!-- Node29&#45;&gt;Node30 -->
<g id="edge60" class="edge"><title>Node29&#45;&gt;Node30</title>
<path fill="none" stroke="midnightblue" d="M1187.1,-414.444C1253.67,-404.806 1361.72,-389.163 1432.08,-378.978"/>
<polygon fill="midnightblue" stroke="midnightblue" points="1432.78,-382.413 1442.17,-377.516 1431.78,-375.485 1432.78,-382.413"/>
</g>
<!-- Node32 -->
<g id="node32" class="node"><title>Node32</title>
<polygon fill="white" stroke="#bfbfbf" points="1244.5,-297 1244.5,-316 1321.5,-316 1321.5,-297 1244.5,-297"/>
<text text-anchor="middle" x="1283" y="-304" font-family="Helvetica,sans-Serif" font-size="10.00">initializer_list</text>
</g>
<!-- Node29&#45;&gt;Node32 -->
<g id="edge73" class="edge"><title>Node29&#45;&gt;Node32</title>
<path fill="none" stroke="midnightblue" d="M1139.65,-414.319C1165.91,-394.753 1229.97,-347.017 1262.83,-322.53"/>
<polygon fill="midnightblue" stroke="midnightblue" points="1265.29,-325.064 1271.21,-316.282 1261.1,-319.451 1265.29,-325.064"/>
</g>
<!-- Node30&#45;&gt;Node2 -->
<g id="edge64" class="edge"><title>Node30&#45;&gt;Node2</title>
<path fill="none" stroke="midnightblue" d="M1534.67,-358.475C1570.07,-349.513 1626.64,-335.188 1670.82,-324.003"/>
<polygon fill="midnightblue" stroke="midnightblue" points="1671.78,-327.37 1680.62,-321.523 1670.06,-320.585 1671.78,-327.37"/>
</g>
<!-- Node30&#45;&gt;Node3 -->
<g id="edge61" class="edge"><title>Node30&#45;&gt;Node3</title>
<path fill="none" stroke="midnightblue" d="M1485.26,-358.318C1452.83,-340.255 1376.55,-296.819 1316,-255 1249.57,-209.124 1208.35,-215.58 1173,-143 1161.5,-119.38 1188.64,-98.5931 1211.98,-85.8219"/>
<polygon fill="midnightblue" stroke="midnightblue" points="1213.7,-88.8742 1220.97,-81.1719 1210.48,-82.6563 1213.7,-88.8742"/>
</g>
<!-- Node30&#45;&gt;Node10 -->
<g id="edge63" class="edge"><title>Node30&#45;&gt;Node10</title>
<path fill="none" stroke="midnightblue" d="M1496.05,-358.306C1486.84,-342.835 1465.68,-310.337 1440,-291 1406.9,-266.074 1390.05,-275.435 1354,-255 1317.5,-234.308 1305.87,-230.359 1278,-199 1265.49,-184.924 1255.28,-165.935 1248.78,-152.118"/>
<polygon fill="midnightblue" stroke="midnightblue" points="1251.85,-150.41 1244.55,-142.726 1245.46,-153.282 1251.85,-150.41"/>
</g>
<!-- Node30&#45;&gt;Node11 -->
<g id="edge68" class="edge"><title>Node30&#45;&gt;Node11</title>
<path fill="none" stroke="midnightblue" d="M1567.05,-365.583C1635.69,-362.4 1745.4,-352.47 1835,-322 1938.86,-286.681 1959.53,-262.473 2049,-199 2091.15,-169.099 2091.28,-147.083 2137,-123 2184.13,-98.1767 2244.33,-84.9201 2284.64,-78.3116"/>
<polygon fill="midnightblue" stroke="midnightblue" points="2285.36,-81.7419 2294.7,-76.7337 2284.28,-74.8266 2285.36,-81.7419"/>
</g>
<!-- Node30&#45;&gt;Node12 -->
<g id="edge67" class="edge"><title>Node30&#45;&gt;Node12</title>
<path fill="none" stroke="midnightblue" d="M1567.06,-360.477C1644.05,-352.602 1775.01,-338.36 1887,-322 2057.13,-297.146 2103.19,-303.967 2268,-255 2350.46,-230.501 2365.01,-207.984 2446,-179 2529.69,-149.05 2551.47,-143.361 2638,-123 2726.84,-102.094 2833.3,-85.0587 2885.67,-77.1976"/>
<polygon fill="midnightblue" stroke="midnightblue" points="2886.32,-80.639 2895.69,-75.7052 2885.29,-73.7153 2886.32,-80.639"/>
</g>
<!-- Node30&#45;&gt;Node13 -->
<g id="edge69" class="edge"><title>Node30&#45;&gt;Node13</title>
<path fill="none" stroke="midnightblue" d="M1488.12,-358.342C1464.72,-342.928 1413.23,-310.519 1366,-291 1090.64,-177.197 1008.56,-184.375 717,-123 634.111,-105.551 535.923,-87.1653 486.976,-78.1543"/>
<polygon fill="midnightblue" stroke="midnightblue" points="487.49,-74.6903 477.022,-76.3262 486.226,-81.5751 487.49,-74.6903"/>
</g>
<!-- Node30&#45;&gt;Node15 -->
<g id="edge62" class="edge"><title>Node30&#45;&gt;Node15</title>
<path fill="none" stroke="midnightblue" d="M1567.29,-361.914C1642.9,-355.272 1761.21,-342.071 1801,-322 1849.82,-297.374 1846.41,-270.504 1888,-235 1900.86,-224.021 1916.24,-212.848 1928.46,-204.381"/>
<polygon fill="midnightblue" stroke="midnightblue" points="1930.44,-207.268 1936.73,-198.736 1926.49,-201.488 1930.44,-207.268"/>
</g>
<!-- Node30&#45;&gt;Node18 -->
<g id="edge70" class="edge"><title>Node30&#45;&gt;Node18</title>
<path fill="none" stroke="midnightblue" d="M1469.48,-358.454C1443.16,-350.709 1405.06,-338.06 1374,-322 1352.75,-311.014 1351.93,-300.562 1330,-291 1259.21,-260.128 1234.97,-273.555 1160,-255 1089.84,-237.636 1008.68,-213.663 964.278,-200.214"/>
<polygon fill="midnightblue" stroke="midnightblue" points="965.18,-196.83 954.594,-197.27 963.144,-203.527 965.18,-196.83"/>
</g>
<!-- Node31 -->
<g id="node31" class="node"><title>Node31</title>
<polygon fill="white" stroke="#bfbfbf" points="1492.5,-297 1492.5,-316 1541.5,-316 1541.5,-297 1492.5,-297"/>
<text text-anchor="middle" x="1517" y="-304" font-family="Helvetica,sans-Serif" font-size="10.00">cstring</text>
</g>
<!-- Node30&#45;&gt;Node31 -->
<g id="edge65" class="edge"><title>Node30&#45;&gt;Node31</title>
<path fill="none" stroke="midnightblue" d="M1503.29,-358.475C1505.57,-349.992 1509.15,-336.704 1512.07,-325.822"/>
<polygon fill="midnightblue" stroke="midnightblue" points="1515.49,-326.575 1514.71,-316.009 1508.74,-324.757 1515.49,-326.575"/>
</g>
<!-- Node30&#45;&gt;Node32 -->
<g id="edge66" class="edge"><title>Node30&#45;&gt;Node32</title>
<path fill="none" stroke="midnightblue" d="M1469.67,-358.464C1436.48,-349.419 1382.54,-334.714 1336,-322 1332.12,-320.942 1328.09,-319.839 1324.05,-318.735"/>
<polygon fill="midnightblue" stroke="midnightblue" points="1324.68,-315.277 1314.11,-316.015 1322.83,-322.029 1324.68,-315.277"/>
</g>
<!-- Node33&#45;&gt;Node10 -->
<g id="edge78" class="edge"><title>Node33&#45;&gt;Node10</title>
<path fill="none" stroke="midnightblue" d="M1551.35,-638.457C1489.07,-607.099 1279.99,-491.287 1219,-322 1197.46,-262.205 1203.49,-240.374 1220,-179 1222.55,-169.53 1226.98,-159.591 1231.11,-151.47"/>
<polygon fill="midnightblue" stroke="midnightblue" points="1234.22,-153.085 1235.87,-142.619 1228.05,-149.773 1234.22,-153.085"/>
</g>
<!-- Node33&#45;&gt;Node11 -->
<g id="edge104" class="edge"><title>Node33&#45;&gt;Node11</title>
<path fill="none" stroke="midnightblue" d="M1595.61,-638.392C1693.06,-606.175 2037.74,-486.104 2286,-322 2322.74,-297.716 2337.79,-293.595 2359,-255 2371.18,-232.842 2366.77,-224.184 2369,-199 2371.99,-165.249 2374.61,-154.833 2363,-123 2358.5,-110.659 2350.36,-98.3986 2343.17,-89.0488"/>
<polygon fill="midnightblue" stroke="midnightblue" points="2345.72,-86.6458 2336.72,-81.069 2340.28,-91.0462 2345.72,-86.6458"/>
</g>
<!-- Node33&#45;&gt;Node12 -->
<g id="edge101" class="edge"><title>Node33&#45;&gt;Node12</title>
<path fill="none" stroke="midnightblue" d="M1607.85,-645.535C1719.29,-641.081 2038.5,-626.486 2140,-602 2162.47,-596.58 2165.92,-588.829 2188,-582 2263.03,-558.793 2288.44,-576.052 2361,-546 2578.98,-455.717 2636.83,-420.492 2805,-255 2856.51,-204.307 2894.83,-125.682 2910.38,-90.5394"/>
<polygon fill="midnightblue" stroke="midnightblue" points="2913.7,-91.6754 2914.46,-81.1081 2907.28,-88.8935 2913.7,-91.6754"/>
</g>
<!-- Node33&#45;&gt;Node26 -->
<g id="edge103" class="edge"><title>Node33&#45;&gt;Node26</title>
<path fill="none" stroke="midnightblue" d="M1607.79,-647.8C1696.63,-648.755 1921.12,-646.17 2102,-602 2124.45,-596.517 2127.88,-588.697 2150,-582 2229.75,-557.853 2264.48,-591.938 2334,-546 2442.76,-474.133 2503.15,-317.62 2521.18,-264.253"/>
<polygon fill="midnightblue" stroke="midnightblue" points="2524.51,-265.346 2524.31,-254.753 2517.86,-263.158 2524.51,-265.346"/>
</g>
<!-- Node33&#45;&gt;Node29 -->
<g id="edge89" class="edge"><title>Node33&#45;&gt;Node29</title>
<path fill="none" stroke="midnightblue" d="M1530.34,-646.674C1453.45,-645.244 1285.03,-637.975 1242,-602 1194.66,-562.425 1236.85,-518.728 1199,-470 1188.35,-456.291 1172.27,-445.607 1158.1,-438.096"/>
<polygon fill="midnightblue" stroke="midnightblue" points="1159.66,-434.959 1149.15,-433.618 1156.53,-441.221 1159.66,-434.959"/>
</g>
<!-- Node34 -->
<g id="node34" class="node"><title>Node34</title>
<g id="a_node34"><a xlink:href="node_8h.html" target="_top" xlink:title="Definitions and helper macros for IR/AST nodes. ">
<polygon fill="white" stroke="red" points="1452,-470.5 1452,-489.5 1550,-489.5 1550,-470.5 1452,-470.5"/>
<text text-anchor="middle" x="1501" y="-477.5" font-family="Helvetica,sans-Serif" font-size="10.00">tvm/node/node.h</text>
</a>
</g>
</g>
<!-- Node33&#45;&gt;Node34 -->
<g id="edge79" class="edge"><title>Node33&#45;&gt;Node34</title>
<path fill="none" stroke="midnightblue" d="M1569.52,-638.481C1570.39,-617.84 1570.39,-564.05 1550,-526 1543.59,-514.031 1532.73,-503.565 1522.86,-495.746"/>
<polygon fill="midnightblue" stroke="midnightblue" points="1524.7,-492.747 1514.59,-489.584 1520.52,-498.362 1524.7,-492.747"/>
</g>
<!-- Node35 -->
<g id="node35" class="node"><title>Node35</title>
<g id="a_node35"><a xlink:href="span_8h.html" target="_top" xlink:title="Span information for debugging purposes. ">
<polygon fill="white" stroke="black" points="1461,-526.5 1461,-545.5 1541,-545.5 1541,-526.5 1461,-526.5"/>
<text text-anchor="middle" x="1501" y="-533.5" font-family="Helvetica,sans-Serif" font-size="10.00">tvm/ir/span.h</text>
</a>
</g>
</g>
<!-- Node33&#45;&gt;Node35 -->
<g id="edge90" class="edge"><title>Node33&#45;&gt;Node35</title>
<path fill="none" stroke="midnightblue" d="M1563.66,-638.368C1552.49,-620.296 1526.45,-578.176 1511.7,-554.307"/>
<polygon fill="midnightblue" stroke="midnightblue" points="1514.55,-552.257 1506.31,-545.591 1508.59,-555.938 1514.55,-552.257"/>
</g>
<!-- Node36 -->
<g id="node36" class="node"><title>Node36</title>
<g id="a_node36"><a xlink:href="ir_2type_8h.html" target="_top" xlink:title="IR/AST nodes for the unified type system in TVM. ">
<polygon fill="white" stroke="black" points="1251.5,-582.5 1251.5,-601.5 1328.5,-601.5 1328.5,-582.5 1251.5,-582.5"/>
<text text-anchor="middle" x="1290" y="-589.5" font-family="Helvetica,sans-Serif" font-size="10.00">tvm/ir/type.h</text>
</a>
</g>
</g>
<!-- Node33&#45;&gt;Node36 -->
<g id="edge94" class="edge"><title>Node33&#45;&gt;Node36</title>
<path fill="none" stroke="midnightblue" d="M1530.5,-639.548C1480.5,-629.872 1393.21,-612.975 1338.67,-602.42"/>
<polygon fill="midnightblue" stroke="midnightblue" points="1339.04,-598.926 1328.55,-600.462 1337.71,-605.798 1339.04,-598.926"/>
</g>
<!-- Node37 -->
<g id="node37" class="node"><title>Node37</title>
<polygon fill="white" stroke="#bfbfbf" points="2268,-582.5 2268,-601.5 2330,-601.5 2330,-582.5 2268,-582.5"/>
<text text-anchor="middle" x="2299" y="-589.5" font-family="Helvetica,sans-Serif" font-size="10.00">algorithm</text>
</g>
<!-- Node33&#45;&gt;Node37 -->
<g id="edge102" class="edge"><title>Node33&#45;&gt;Node37</title>
<path fill="none" stroke="midnightblue" d="M1607.83,-644.137C1704.29,-637.025 1962.58,-617.97 2178,-602 2204.51,-600.035 2234.28,-597.821 2257.66,-596.08"/>
<polygon fill="midnightblue" stroke="midnightblue" points="2258.2,-599.549 2267.91,-595.316 2257.68,-592.569 2258.2,-599.549"/>
</g>
<!-- Node34&#45;&gt;Node4 -->
<g id="edge80" class="edge"><title>Node34&#45;&gt;Node4</title>
<path fill="none" stroke="midnightblue" d="M1550.27,-472.504C1664.46,-454.317 1943.41,-390.961 2022,-199 2046.96,-138.028 1962.17,-103.805 1895.33,-86.7447"/>
<polygon fill="midnightblue" stroke="midnightblue" points="1896.17,-83.3449 1885.62,-84.351 1894.49,-90.1417 1896.17,-83.3449"/>
</g>
<!-- Node34&#45;&gt;Node10 -->
<g id="edge82" class="edge"><title>Node34&#45;&gt;Node10</title>
<path fill="none" stroke="midnightblue" d="M1466.2,-470.453C1406.29,-453.644 1285.25,-410.014 1235,-322 1203.73,-267.239 1223.05,-188.124 1234.43,-152.553"/>
<polygon fill="midnightblue" stroke="midnightblue" points="1237.9,-153.214 1237.77,-142.62 1231.26,-150.982 1237.9,-153.214"/>
</g>
<!-- Node34&#45;&gt;Node11 -->
<g id="edge88" class="edge"><title>Node34&#45;&gt;Node11</title>
<path fill="none" stroke="midnightblue" d="M1550.02,-474.81C1670.63,-463.177 1989.72,-424.324 2234,-322 2285.41,-300.467 2313.11,-303.815 2340,-255 2369.44,-201.566 2348.47,-125.497 2336.19,-90.8994"/>
<polygon fill="midnightblue" stroke="midnightblue" points="2339.36,-89.3571 2332.59,-81.205 2332.79,-91.7978 2339.36,-89.3571"/>
</g>
<!-- Node34&#45;&gt;Node12 -->
<g id="edge85" class="edge"><title>Node34&#45;&gt;Node12</title>
<path fill="none" stroke="midnightblue" d="M1550.21,-475.739C1626.32,-470.191 1776.95,-457.199 1903,-434 2000.96,-415.97 2024.53,-406.383 2120,-378 2194.63,-355.813 2213.7,-350.902 2286,-322 2383.4,-283.066 2615.08,-157.875 2714,-123 2773.35,-102.075 2845.33,-86.4223 2885.98,-78.4361"/>
<polygon fill="midnightblue" stroke="midnightblue" points="2886.7,-81.8617 2895.86,-76.5264 2885.37,-74.9891 2886.7,-81.8617"/>
</g>
<!-- Node34&#45;&gt;Node13 -->
<g id="edge87" class="edge"><title>Node34&#45;&gt;Node13</title>
<path fill="none" stroke="midnightblue" d="M1451.92,-479.153C1301.05,-478.036 832.979,-462.673 480,-322 385.511,-284.343 335.917,-288.182 287,-199 252.832,-136.707 367.326,-96.217 424.922,-80.2308"/>
<polygon fill="midnightblue" stroke="midnightblue" points="425.89,-83.595 434.637,-77.6169 424.071,-76.8354 425.89,-83.595"/>
</g>
<!-- Node34&#45;&gt;Node15 -->
<g id="edge83" class="edge"><title>Node34&#45;&gt;Node15</title>
<path fill="none" stroke="midnightblue" d="M1532.77,-470.435C1599.39,-451.445 1756.75,-401.128 1868,-322 1900.82,-298.659 1908.8,-289.837 1929,-255 1937.37,-240.574 1942.88,-222.383 1946.15,-208.917"/>
<polygon fill="midnightblue" stroke="midnightblue" points="1949.62,-209.424 1948.38,-198.902 1942.79,-207.902 1949.62,-209.424"/>
</g>
<!-- Node34&#45;&gt;Node18 -->
<g id="edge86" class="edge"><title>Node34&#45;&gt;Node18</title>
<path fill="none" stroke="midnightblue" d="M1451.86,-474.953C1405.48,-469.793 1334.79,-458.411 1278,-434 1136.62,-373.227 994.857,-249.104 947.526,-205.535"/>
<polygon fill="midnightblue" stroke="midnightblue" points="949.753,-202.827 940.042,-198.59 944.991,-207.958 949.753,-202.827"/>
</g>
<!-- Node34&#45;&gt;Node29 -->
<g id="edge84" class="edge"><title>Node34&#45;&gt;Node29</title>
<path fill="none" stroke="midnightblue" d="M1451.85,-471.885C1386.58,-462.435 1270.92,-445.691 1196.94,-434.98"/>
<polygon fill="midnightblue" stroke="midnightblue" points="1197.18,-431.48 1186.79,-433.511 1196.18,-438.407 1197.18,-431.48"/>
</g>
<!-- Node34&#45;&gt;Node30 -->
<g id="edge81" class="edge"><title>Node34&#45;&gt;Node30</title>
<path fill="none" stroke="midnightblue" d="M1501,-470.368C1501,-452.617 1501,-411.666 1501,-387.597"/>
<polygon fill="midnightblue" stroke="midnightblue" points="1504.5,-387.591 1501,-377.591 1497.5,-387.591 1504.5,-387.591"/>
</g>
<!-- Node35&#45;&gt;Node10 -->
<g id="edge91" class="edge"><title>Node35&#45;&gt;Node10</title>
<path fill="none" stroke="midnightblue" d="M1460.84,-534.238C1335.07,-529.357 953.834,-494.724 898,-255 890.338,-222.103 875.723,-204.39 898,-179 915.771,-158.745 1077.19,-144.774 1172.12,-138.231"/>
<polygon fill="midnightblue" stroke="midnightblue" points="1172.48,-141.714 1182.22,-137.545 1172.01,-134.73 1172.48,-141.714"/>
</g>
<!-- Node35&#45;&gt;Node12 -->
<g id="edge93" class="edge"><title>Node35&#45;&gt;Node12</title>
<path fill="none" stroke="midnightblue" d="M1541.26,-529.966C1685.36,-510.806 2186.51,-434.268 2557,-255 2651.21,-209.416 2657.55,-168.068 2752,-123 2796.35,-101.839 2851.58,-87.1413 2885.82,-79.2619"/>
<polygon fill="midnightblue" stroke="midnightblue" points="2886.74,-82.6413 2895.73,-77.0359 2885.21,-75.8113 2886.74,-82.6413"/>
</g>
<!-- Node35&#45;&gt;Node34 -->
<g id="edge92" class="edge"><title>Node35&#45;&gt;Node34</title>
<path fill="none" stroke="midnightblue" d="M1501,-526.083C1501,-519.006 1501,-508.861 1501,-499.986"/>
<polygon fill="midnightblue" stroke="midnightblue" points="1504.5,-499.751 1501,-489.751 1497.5,-499.751 1504.5,-499.751"/>
</g>
<!-- Node36&#45;&gt;Node10 -->
<g id="edge95" class="edge"><title>Node36&#45;&gt;Node10</title>
<path fill="none" stroke="midnightblue" d="M1251.35,-588.453C1152.81,-579.629 892.351,-541.17 784,-378 748.842,-325.054 751.862,-289.831 784,-235 809.758,-191.054 835.614,-194.924 884,-179 980.769,-147.153 1099.12,-137.62 1172.29,-134.895"/>
<polygon fill="midnightblue" stroke="midnightblue" points="1172.43,-138.392 1182.31,-134.554 1172.19,-131.396 1172.43,-138.392"/>
</g>
<!-- Node36&#45;&gt;Node12 -->
<g id="edge100" class="edge"><title>Node36&#45;&gt;Node12</title>
<path fill="none" stroke="midnightblue" d="M1328.77,-584.293C1333.56,-583.501 1338.39,-582.719 1343,-582 1455.22,-564.491 1484.29,-566.501 1596,-546 2041.42,-464.259 2154.82,-447.295 2590,-322 2676.05,-297.226 2709.6,-310.336 2780,-255 2835.05,-211.729 2821.5,-177.058 2866,-123 2876.35,-110.427 2889.52,-97.6614 2900.02,-88.1103"/>
<polygon fill="midnightblue" stroke="midnightblue" points="2902.63,-90.4738 2907.76,-81.2049 2897.97,-85.2504 2902.63,-90.4738"/>
</g>
<!-- Node36&#45;&gt;Node23 -->
<g id="edge96" class="edge"><title>Node36&#45;&gt;Node23</title>
<path fill="none" stroke="midnightblue" d="M1328.52,-584.441C1399.61,-572.324 1544.69,-547.518 1550,-546 1632.77,-522.358 2219.9,-326.391 2268,-255 2291.33,-220.376 2254.44,-174.032 2230.99,-149.987"/>
<polygon fill="midnightblue" stroke="midnightblue" points="2233.23,-147.28 2223.66,-142.736 2228.31,-152.257 2233.23,-147.28"/>
</g>
<!-- Node36&#45;&gt;Node29 -->
<g id="edge98" class="edge"><title>Node36&#45;&gt;Node29</title>
<path fill="none" stroke="midnightblue" d="M1288.53,-582.422C1284.37,-560.695 1270.6,-502.888 1237,-470 1220.64,-453.989 1197.79,-443.381 1177.23,-436.509"/>
<polygon fill="midnightblue" stroke="midnightblue" points="1178.25,-433.163 1167.66,-433.519 1176.16,-439.844 1178.25,-433.163"/>
</g>
<!-- Node36&#45;&gt;Node34 -->
<g id="edge97" class="edge"><title>Node36&#45;&gt;Node34</title>
<path fill="none" stroke="midnightblue" d="M1300.06,-582.453C1316.25,-569.027 1349.47,-542.797 1381,-526 1406.95,-512.177 1438.07,-500.636 1462.12,-492.703"/>
<polygon fill="midnightblue" stroke="midnightblue" points="1463.52,-495.93 1471.96,-489.528 1461.37,-489.269 1463.52,-495.93"/>
</g>
<!-- Node36&#45;&gt;Node35 -->
<g id="edge99" class="edge"><title>Node36&#45;&gt;Node35</title>
<path fill="none" stroke="midnightblue" d="M1323.43,-582.444C1359.86,-573.122 1418.23,-558.183 1458.03,-547.997"/>
<polygon fill="midnightblue" stroke="midnightblue" points="1458.9,-551.387 1467.72,-545.516 1457.17,-544.605 1458.9,-551.387"/>
</g>
<!-- Node39&#45;&gt;Node12 -->
<g id="edge134" class="edge"><title>Node39&#45;&gt;Node12</title>
<path fill="none" stroke="midnightblue" d="M720.367,-813.937C999.39,-807.527 2444.61,-774.175 2490,-770 2646.87,-755.572 2692.3,-768.78 2840,-714 3056.22,-633.806 3073.41,-485.457 3082,-255 3084.2,-195.89 3105.35,-166.248 3065,-123 3035.02,-90.8656 2983.68,-79.1791 2950.3,-74.929"/>
<polygon fill="midnightblue" stroke="midnightblue" points="2950.47,-71.4263 2940.15,-73.7939 2949.69,-78.383 2950.47,-71.4263"/>
</g>
<!-- Node39&#45;&gt;Node18 -->
<g id="edge135" class="edge"><title>Node39&#45;&gt;Node18</title>
<path fill="none" stroke="midnightblue" d="M673.978,-806.241C674.297,-748.447 683.337,-418.563 845,-235 859.002,-219.102 879.992,-207.966 897.729,-200.749"/>
<polygon fill="midnightblue" stroke="midnightblue" points="899.091,-203.975 907.184,-197.137 896.594,-197.436 899.091,-203.975"/>
</g>
<!-- Node39&#45;&gt;Node19 -->
<g id="edge136" class="edge"><title>Node39&#45;&gt;Node19</title>
<path fill="none" stroke="midnightblue" d="M637.609,-806.441C592.564,-793.924 516.709,-766.22 475,-714 409.437,-631.914 357.56,-292.391 345.604,-208.706"/>
<polygon fill="midnightblue" stroke="midnightblue" points="349.047,-208.061 344.184,-198.648 342.116,-209.039 349.047,-208.061"/>
</g>
<!-- Node39&#45;&gt;Node33 -->
<g id="edge112" class="edge"><title>Node39&#45;&gt;Node33</title>
<path fill="none" stroke="midnightblue" d="M719.924,-806.482C872.792,-778.129 1363.63,-687.091 1520.39,-658.016"/>
<polygon fill="midnightblue" stroke="midnightblue" points="1521.03,-661.457 1530.22,-656.192 1519.75,-654.575 1521.03,-661.457"/>
</g>
<!-- Node39&#45;&gt;Node36 -->
<g id="edge111" class="edge"><title>Node39&#45;&gt;Node36</title>
<path fill="none" stroke="midnightblue" d="M697.033,-806.401C730.625,-793.882 795.042,-769.953 850,-750 1001.09,-695.147 1181.94,-631.134 1255.92,-605.015"/>
<polygon fill="midnightblue" stroke="midnightblue" points="1257.37,-608.214 1265.64,-601.586 1255.04,-601.613 1257.37,-608.214"/>
</g>
<!-- Node39&#45;&gt;Node38 -->
<g id="edge137" class="edge"><title>Node39&#45;&gt;Node38</title>
<path fill="none" stroke="midnightblue" d="M627.994,-810.7C569.072,-804.42 471.085,-791.132 442,-770 406.828,-744.445 387.893,-694.514 379.821,-667.468"/>
<polygon fill="midnightblue" stroke="midnightblue" points="383.157,-666.402 377.09,-657.717 376.417,-668.29 383.157,-666.402"/>
</g>
<!-- Node40 -->
<g id="node40" class="node"><title>Node40</title>
<g id="a_node40"><a xlink:href="ir_2function_8h.html" target="_top" xlink:title="Function nodes. ">
<polygon fill="white" stroke="black" points="2386.5,-750.5 2386.5,-769.5 2481.5,-769.5 2481.5,-750.5 2386.5,-750.5"/>
<text text-anchor="middle" x="2434" y="-757.5" font-family="Helvetica,sans-Serif" font-size="10.00">tvm/ir/function.h</text>
</a>
</g>
</g>
<!-- Node39&#45;&gt;Node40 -->
<g id="edge113" class="edge"><title>Node39&#45;&gt;Node40</title>
<path fill="none" stroke="midnightblue" d="M720.171,-813.583C964.484,-806.087 2105.49,-771.079 2376.26,-762.772"/>
<polygon fill="midnightblue" stroke="midnightblue" points="2376.38,-766.27 2386.27,-762.465 2376.17,-759.273 2376.38,-766.27"/>
</g>
<!-- Node42 -->
<g id="node42" class="node"><title>Node42</title>
<g id="a_node42"><a xlink:href="ir_2adt_8h.html" target="_top" xlink:title="Algebraic data type definitions. ">
<polygon fill="white" stroke="black" points="1075,-694.5 1075,-713.5 1147,-713.5 1147,-694.5 1075,-694.5"/>
<text text-anchor="middle" x="1111" y="-701.5" font-family="Helvetica,sans-Serif" font-size="10.00">tvm/ir/adt.h</text>
</a>
</g>
</g>
<!-- Node39&#45;&gt;Node42 -->
<g id="edge127" class="edge"><title>Node39&#45;&gt;Node42</title>
<path fill="none" stroke="midnightblue" d="M707.927,-806.46C786.341,-786.722 980.076,-737.956 1067.25,-716.012"/>
<polygon fill="midnightblue" stroke="midnightblue" points="1068.25,-719.37 1077.09,-713.535 1066.54,-712.582 1068.25,-719.37"/>
</g>
<!-- Node40&#45;&gt;Node11 -->
<g id="edge125" class="edge"><title>Node40&#45;&gt;Node11</title>
<path fill="none" stroke="midnightblue" d="M2481.54,-756.524C2591.1,-749.523 2852,-724.884 2852,-649 2852,-649 2852,-649 2852,-479 2852,-259.288 2710.9,-209.652 2509,-123 2464.29,-103.811 2410.22,-89.7791 2373.08,-81.4441"/>
<polygon fill="midnightblue" stroke="midnightblue" points="2373.6,-77.9738 2363.08,-79.2448 2372.1,-84.8105 2373.6,-77.9738"/>
</g>
<!-- Node40&#45;&gt;Node12 -->
<g id="edge126" class="edge"><title>Node40&#45;&gt;Node12</title>
<path fill="none" stroke="midnightblue" d="M2481.66,-756.752C2568.39,-752.083 2748.29,-739.573 2805,-714 2907.45,-667.796 2935.51,-641.968 2994,-546 3043.29,-465.129 3099.28,-201.299 3046,-123 3024.72,-91.7291 2980.8,-79.822 2950.38,-75.288"/>
<polygon fill="midnightblue" stroke="midnightblue" points="2950.62,-71.7888 2940.25,-73.9721 2949.72,-78.7305 2950.62,-71.7888"/>
</g>
<!-- Node40&#45;&gt;Node30 -->
<g id="edge124" class="edge"><title>Node40&#45;&gt;Node30</title>
<path fill="none" stroke="midnightblue" d="M2481.74,-757.113C2545.09,-753.492 2651.79,-743.126 2676,-714 2681.68,-707.164 2680.7,-701.545 2676,-694 2556.51,-502.172 1818.69,-404.224 1577.33,-377.019"/>
<polygon fill="midnightblue" stroke="midnightblue" points="1577.57,-373.524 1567.24,-375.891 1576.79,-380.481 1577.57,-373.524"/>
</g>
<!-- Node40&#45;&gt;Node33 -->
<g id="edge114" class="edge"><title>Node40&#45;&gt;Node33</title>
<path fill="none" stroke="midnightblue" d="M2386.26,-752.929C2235.48,-733.755 1770.42,-674.614 1617.96,-655.226"/>
<polygon fill="midnightblue" stroke="midnightblue" points="1618.31,-651.743 1607.95,-653.954 1617.43,-658.687 1618.31,-651.743"/>
</g>
<!-- Node41 -->
<g id="node41" class="node"><title>Node41</title>
<g id="a_node41"><a xlink:href="ir_2attrs_8h.html" target="_top" xlink:title="Helpers for attribute objects. ">
<polygon fill="white" stroke="red" points="2394.5,-694.5 2394.5,-713.5 2473.5,-713.5 2473.5,-694.5 2394.5,-694.5"/>
<text text-anchor="middle" x="2434" y="-701.5" font-family="Helvetica,sans-Serif" font-size="10.00">tvm/ir/attrs.h</text>
</a>
</g>
</g>
<!-- Node40&#45;&gt;Node41 -->
<g id="edge115" class="edge"><title>Node40&#45;&gt;Node41</title>
<path fill="none" stroke="midnightblue" d="M2434,-750.083C2434,-743.006 2434,-732.861 2434,-723.986"/>
<polygon fill="midnightblue" stroke="midnightblue" points="2437.5,-723.751 2434,-713.751 2430.5,-723.751 2437.5,-723.751"/>
</g>
<!-- Node41&#45;&gt;Node2 -->
<g id="edge117" class="edge"><title>Node41&#45;&gt;Node2</title>
<path fill="none" stroke="midnightblue" d="M2430.89,-694.461C2422.6,-672.826 2398.01,-615.216 2360,-582 2189.45,-432.967 1925.18,-353.356 1802.62,-322.657"/>
<polygon fill="midnightblue" stroke="midnightblue" points="1803.17,-319.188 1792.63,-320.183 1801.49,-325.983 1803.17,-319.188"/>
</g>
<!-- Node41&#45;&gt;Node11 -->
<g id="edge121" class="edge"><title>Node41&#45;&gt;Node11</title>
<path fill="none" stroke="midnightblue" d="M2447.85,-694.459C2514,-652.525 2791.17,-463.501 2704,-291 2675.62,-234.828 2531.74,-152.228 2476,-123 2443.04,-105.717 2402.93,-92.3996 2372.94,-83.7908"/>
<polygon fill="midnightblue" stroke="midnightblue" points="2373.76,-80.3846 2363.18,-81.0528 2371.87,-87.1243 2373.76,-80.3846"/>
</g>
<!-- Node41&#45;&gt;Node12 -->
<g id="edge122" class="edge"><title>Node41&#45;&gt;Node12</title>
<path fill="none" stroke="midnightblue" d="M2465.31,-694.46C2583.24,-660.201 2994,-521.131 2994,-246 2994,-246 2994,-246 2994,-188 2994,-157.205 2986.8,-148.812 2970,-123 2961.14,-109.383 2947.99,-96.6579 2937.13,-87.3876"/>
<polygon fill="midnightblue" stroke="midnightblue" points="2939.33,-84.6642 2929.39,-81.0144 2934.89,-90.0702 2939.33,-84.6642"/>
</g>
<!-- Node41&#45;&gt;Node13 -->
<g id="edge123" class="edge"><title>Node41&#45;&gt;Node13</title>
<path fill="none" stroke="midnightblue" d="M2394.32,-703.128C2212.07,-703.472 1454.33,-702.169 1222,-658 785.456,-575.006 590.448,-597.222 307,-255 269.368,-209.565 251.748,-165.175 293,-123 328.069,-87.1461 388.036,-76.628 424.637,-73.6161"/>
<polygon fill="midnightblue" stroke="midnightblue" points="425.007,-77.099 434.746,-72.9264 424.531,-70.1153 425.007,-77.099"/>
</g>
<!-- Node41&#45;&gt;Node18 -->
<g id="edge119" class="edge"><title>Node41&#45;&gt;Node18</title>
<path fill="none" stroke="midnightblue" d="M2394.24,-702.965C2266.79,-702.442 1857.1,-697.572 1521,-658 1386.73,-642.191 1342.91,-662.496 1222,-602 1051,-516.444 960.007,-277.12 936.937,-208.566"/>
<polygon fill="midnightblue" stroke="midnightblue" points="940.161,-207.168 933.713,-198.761 933.512,-209.354 940.161,-207.168"/>
</g>
<!-- Node41&#45;&gt;Node19 -->
<g id="edge118" class="edge"><title>Node41&#45;&gt;Node19</title>
<path fill="none" stroke="midnightblue" d="M2394.37,-703.134C2220.6,-703.459 1525.25,-701.933 1312,-658 1107.79,-615.931 1062.61,-578.855 874,-490 669.575,-393.696 436.951,-249.464 365.219,-204.146"/>
<polygon fill="midnightblue" stroke="midnightblue" points="366.868,-201.048 356.548,-198.654 363.123,-206.961 366.868,-201.048"/>
</g>
<!-- Node41&#45;&gt;Node24 -->
<g id="edge120" class="edge"><title>Node41&#45;&gt;Node24</title>
<path fill="none" stroke="midnightblue" d="M2432.83,-694.406C2430.96,-681.791 2426.81,-657.631 2420,-638 2367.41,-486.344 2270.4,-317.286 2238.48,-263.447"/>
<polygon fill="midnightblue" stroke="midnightblue" points="2241.43,-261.562 2233.31,-254.766 2235.42,-265.147 2241.43,-261.562"/>
</g>
<!-- Node41&#45;&gt;Node33 -->
<g id="edge116" class="edge"><title>Node41&#45;&gt;Node33</title>
<path fill="none" stroke="midnightblue" d="M2394.26,-695.868C2389.46,-695.159 2384.63,-694.513 2380,-694 2092.01,-662.108 1743.86,-652.421 1617.65,-649.84"/>
<polygon fill="midnightblue" stroke="midnightblue" points="1617.61,-646.338 1607.54,-649.639 1617.47,-653.337 1617.61,-646.338"/>
</g>
<!-- Node42&#45;&gt;Node10 -->
<g id="edge128" class="edge"><title>Node42&#45;&gt;Node10</title>
<path fill="none" stroke="midnightblue" d="M1092.9,-694.394C1016.74,-656.804 727.555,-499.534 755,-291 762.424,-234.591 766.776,-205.734 817,-179 876.839,-147.148 1068.08,-137.839 1172.07,-135.12"/>
<polygon fill="midnightblue" stroke="midnightblue" points="1172.25,-138.617 1182.16,-134.87 1172.08,-131.619 1172.25,-138.617"/>
</g>
<!-- Node42&#45;&gt;Node12 -->
<g id="edge133" class="edge"><title>Node42&#45;&gt;Node12</title>
<path fill="none" stroke="midnightblue" d="M1147.14,-699.91C1230.05,-692.793 1440.3,-674.582 1616,-658 1865.9,-634.416 1932.4,-653.853 2178,-602 2205.92,-596.106 2211.5,-589.585 2239,-582 2309.27,-562.624 2329.81,-568.912 2399,-546 2457.18,-526.736 2470.33,-517.682 2525,-490 2704.57,-399.081 2759.59,-365.961 2872,-199 2888.01,-175.221 2893.97,-169.853 2904,-143 2910.27,-126.213 2913.91,-106.075 2915.9,-91.6273"/>
<polygon fill="midnightblue" stroke="midnightblue" points="2919.41,-91.7874 2917.16,-81.4338 2912.46,-90.9296 2919.41,-91.7874"/>
</g>
<!-- Node42&#45;&gt;Node29 -->
<g id="edge130" class="edge"><title>Node42&#45;&gt;Node29</title>
<path fill="none" stroke="midnightblue" d="M1111.53,-694.375C1113.89,-655.782 1123.51,-498.454 1126.85,-443.807"/>
<polygon fill="midnightblue" stroke="midnightblue" points="1130.36,-443.719 1127.48,-433.524 1123.37,-443.292 1130.36,-443.719"/>
</g>
<!-- Node42&#45;&gt;Node33 -->
<g id="edge131" class="edge"><title>Node42&#45;&gt;Node33</title>
<path fill="none" stroke="midnightblue" d="M1147,-696.217C1151.7,-695.42 1156.46,-694.658 1161,-694 1290.16,-675.275 1443.32,-660.312 1520.05,-653.311"/>
<polygon fill="midnightblue" stroke="midnightblue" points="1520.71,-656.765 1530.36,-652.376 1520.08,-649.793 1520.71,-656.765"/>
</g>
<!-- Node42&#45;&gt;Node34 -->
<g id="edge129" class="edge"><title>Node42&#45;&gt;Node34</title>
<path fill="none" stroke="midnightblue" d="M1131.38,-694.336C1152.39,-685.37 1186.07,-670.897 1215,-658 1269.49,-633.708 1285.61,-632.315 1337,-602 1393.31,-568.783 1453.76,-520.486 1483.05,-496.178"/>
<polygon fill="midnightblue" stroke="midnightblue" points="1485.35,-498.817 1490.78,-489.719 1480.86,-493.447 1485.35,-498.817"/>
</g>
<!-- Node42&#45;&gt;Node36 -->
<g id="edge132" class="edge"><title>Node42&#45;&gt;Node36</title>
<path fill="none" stroke="midnightblue" d="M1125.05,-694.368C1155.89,-675.412 1229.79,-630.001 1267.31,-606.942"/>
<polygon fill="midnightblue" stroke="midnightblue" points="1269.33,-609.809 1276.02,-601.591 1265.67,-603.845 1269.33,-609.809"/>
</g>
<!-- Node44 -->
<g id="node44" class="node"><title>Node44</title>
<g id="a_node44"><a xlink:href="schedule_8h.html" target="_top" xlink:title="Define a schedule. ">
<polygon fill="white" stroke="black" points="1121.5,-918.5 1121.5,-937.5 1224.5,-937.5 1224.5,-918.5 1121.5,-918.5"/>
<text text-anchor="middle" x="1173" y="-925.5" font-family="Helvetica,sans-Serif" font-size="10.00">tvm/te/schedule.h</text>
</a>
</g>
</g>
<!-- Node43&#45;&gt;Node44 -->
<g id="edge139" class="edge"><title>Node43&#45;&gt;Node44</title>
<path fill="none" stroke="midnightblue" d="M1173,-974.083C1173,-967.006 1173,-956.861 1173,-947.986"/>
<polygon fill="midnightblue" stroke="midnightblue" points="1176.5,-947.751 1173,-937.751 1169.5,-947.751 1176.5,-947.751"/>
</g>
<!-- Node49 -->
<g id="node49" class="node"><title>Node49</title>
<g id="a_node49"><a xlink:href="tir_2function_8h.html" target="_top" xlink:title="TIR Function. ">
<polygon fill="white" stroke="black" points="1626,-862.5 1626,-881.5 1724,-881.5 1724,-862.5 1626,-862.5"/>
<text text-anchor="middle" x="1675" y="-869.5" font-family="Helvetica,sans-Serif" font-size="10.00">tvm/tir/function.h</text>
</a>
</g>
</g>
<!-- Node43&#45;&gt;Node49 -->
<g id="edge169" class="edge"><title>Node43&#45;&gt;Node49</title>
<path fill="none" stroke="midnightblue" d="M1211.97,-974.46C1302.51,-954.622 1526.86,-905.46 1626.26,-883.679"/>
<polygon fill="midnightblue" stroke="midnightblue" points="1627.03,-887.094 1636.05,-881.535 1625.53,-880.256 1627.03,-887.094"/>
</g>
<!-- Node44&#45;&gt;Node12 -->
<g id="edge167" class="edge"><title>Node44&#45;&gt;Node12</title>
<path fill="none" stroke="midnightblue" d="M1224.58,-927.142C1528.38,-927.635 3077.54,-925.237 3262,-826 3317.51,-796.135 3336,-768.038 3336,-705 3336,-705 3336,-705 3336,-188 3336,-154.31 3325.15,-141.503 3297,-123 3240.19,-85.6674 3031.71,-75.7469 2950.59,-73.272"/>
<polygon fill="midnightblue" stroke="midnightblue" points="2950.56,-69.7697 2940.46,-72.9819 2950.36,-76.7668 2950.56,-69.7697"/>
</g>
<!-- Node44&#45;&gt;Node19 -->
<g id="edge168" class="edge"><title>Node44&#45;&gt;Node19</title>
<path fill="none" stroke="midnightblue" d="M1121.31,-922.528C929.009,-904.492 266,-829.239 266,-649 266,-649 266,-649 266,-305.5 266,-263.646 301.438,-225.423 324.231,-205.167"/>
<polygon fill="midnightblue" stroke="midnightblue" points="326.648,-207.706 331.968,-198.544 322.095,-202.388 326.648,-207.706"/>
</g>
<!-- Node44&#45;&gt;Node28 -->
<g id="edge166" class="edge"><title>Node44&#45;&gt;Node28</title>
<path fill="none" stroke="midnightblue" d="M1121.49,-925.609C965.495,-921.147 504.987,-906.069 442,-882 315.118,-833.516 199.563,-709.865 160.78,-665.312"/>
<polygon fill="midnightblue" stroke="midnightblue" points="163.239,-662.803 154.067,-657.501 157.931,-667.366 163.239,-662.803"/>
</g>
<!-- Node45 -->
<g id="node45" class="node"><title>Node45</title>
<g id="a_node45"><a xlink:href="tir_2expr_8h.html" target="_top" xlink:title="TIR expressions. ">
<polygon fill="white" stroke="red" points="1601,-750.5 1601,-769.5 1681,-769.5 1681,-750.5 1601,-750.5"/>
<text text-anchor="middle" x="1641" y="-757.5" font-family="Helvetica,sans-Serif" font-size="10.00">tvm/tir/expr.h</text>
</a>
</g>
</g>
<!-- Node44&#45;&gt;Node45 -->
<g id="edge140" class="edge"><title>Node44&#45;&gt;Node45</title>
<path fill="none" stroke="midnightblue" d="M1197.18,-918.425C1274.76,-890.904 1517.64,-804.757 1607.3,-772.953"/>
<polygon fill="midnightblue" stroke="midnightblue" points="1608.71,-776.166 1616.97,-769.524 1606.37,-769.568 1608.71,-776.166"/>
</g>
<!-- Node47 -->
<g id="node47" class="node"><title>Node47</title>
<g id="a_node47"><a xlink:href="tensor_8h.html" target="_top" xlink:title="Dataflow tensor object. ">
<polygon fill="white" stroke="red" points="1091,-806.5 1091,-825.5 1181,-825.5 1181,-806.5 1091,-806.5"/>
<text text-anchor="middle" x="1136" y="-813.5" font-family="Helvetica,sans-Serif" font-size="10.00">tvm/te/tensor.h</text>
</a>
</g>
</g>
<!-- Node44&#45;&gt;Node47 -->
<g id="edge155" class="edge"><title>Node44&#45;&gt;Node47</title>
<path fill="none" stroke="midnightblue" d="M1167.13,-918.439C1161.39,-909.671 1152.83,-895.458 1148,-882 1142.6,-866.965 1139.52,-849.059 1137.84,-835.852"/>
<polygon fill="midnightblue" stroke="midnightblue" points="1141.29,-835.193 1136.7,-825.645 1134.33,-835.972 1141.29,-835.193"/>
</g>
<!-- Node48 -->
<g id="node48" class="node"><title>Node48</title>
<g id="a_node48"><a xlink:href="tensor__intrin_8h.html" target="_top" xlink:title="Tensor intrinsic operations. ">
<polygon fill="white" stroke="black" points="1157,-862.5 1157,-881.5 1277,-881.5 1277,-862.5 1157,-862.5"/>
<text text-anchor="middle" x="1217" y="-869.5" font-family="Helvetica,sans-Serif" font-size="10.00">tvm/te/tensor_intrin.h</text>
</a>
</g>
</g>
<!-- Node44&#45;&gt;Node48 -->
<g id="edge162" class="edge"><title>Node44&#45;&gt;Node48</title>
<path fill="none" stroke="midnightblue" d="M1180.27,-918.083C1186.54,-910.377 1195.79,-899.033 1203.43,-889.653"/>
<polygon fill="midnightblue" stroke="midnightblue" points="1206.27,-891.714 1209.87,-881.751 1200.84,-887.293 1206.27,-891.714"/>
</g>
<!-- Node45&#45;&gt;Node4 -->
<g id="edge143" class="edge"><title>Node45&#45;&gt;Node4</title>
<path fill="none" stroke="midnightblue" d="M1681.06,-758.308C1868.43,-754.942 2651.07,-739.407 2696,-714 2752.12,-682.268 2776,-657.469 2776,-593 2776,-593 2776,-593 2776,-535 2776,-375.975 2699.36,-341.208 2581,-235 2548.7,-206.014 2540.35,-197.316 2501,-179 2413.43,-138.236 2385.97,-140.667 2291,-123 2152.67,-97.266 1988.77,-83.3277 1895.93,-76.9433"/>
<polygon fill="midnightblue" stroke="midnightblue" points="1896,-73.4405 1885.79,-76.2569 1895.53,-80.4246 1896,-73.4405"/>
</g>
<!-- Node45&#45;&gt;Node12 -->
<g id="edge150" class="edge"><title>Node45&#45;&gt;Node12</title>
<path fill="none" stroke="midnightblue" d="M1681.23,-759.074C1866.09,-759.181 2629.19,-756.994 2726,-714 2953.13,-613.135 3032,-494.516 3032,-246 3032,-246 3032,-246 3032,-188 3032,-139.198 2979.81,-103.559 2946.05,-85.6129"/>
<polygon fill="midnightblue" stroke="midnightblue" points="2947.58,-82.4611 2937.08,-81.024 2944.39,-88.6934 2947.58,-82.4611"/>
</g>
<!-- Node45&#45;&gt;Node13 -->
<g id="edge154" class="edge"><title>Node45&#45;&gt;Node13</title>
<path fill="none" stroke="midnightblue" d="M1600.68,-759.059C1484.27,-758.74 1149.6,-754.252 1049,-714 729.338,-586.1 510.299,-180.59 464.792,-90.3937"/>
<polygon fill="midnightblue" stroke="midnightblue" points="467.803,-88.5869 460.208,-81.1998 461.538,-91.7108 467.803,-88.5869"/>
</g>
<!-- Node45&#45;&gt;Node19 -->
<g id="edge152" class="edge"><title>Node45&#45;&gt;Node19</title>
<path fill="none" stroke="midnightblue" d="M1600.68,-757.819C1459.02,-753.486 989.26,-737.475 926,-714 829.329,-678.127 634.05,-501.382 556,-434 502.236,-387.584 488.774,-375.452 442,-322 407.726,-282.833 372.235,-232.773 354.519,-207.01"/>
<polygon fill="midnightblue" stroke="midnightblue" points="357.362,-204.966 348.831,-198.683 351.581,-208.915 357.362,-204.966"/>
</g>
<!-- Node45&#45;&gt;Node23 -->
<g id="edge144" class="edge"><title>Node45&#45;&gt;Node23</title>
<path fill="none" stroke="midnightblue" d="M1681.02,-759.401C1839.43,-760.65 2417.09,-761.861 2482,-714 2655.43,-586.119 2716.27,-380.143 2557,-235 2483.78,-168.273 2368.56,-145.489 2292.15,-137.793"/>
<polygon fill="midnightblue" stroke="midnightblue" points="2292.39,-134.3 2282.1,-136.845 2291.73,-141.269 2292.39,-134.3"/>
</g>
<!-- Node45&#45;&gt;Node26 -->
<g id="edge153" class="edge"><title>Node45&#45;&gt;Node26</title>
<path fill="none" stroke="midnightblue" d="M1681.01,-758.789C1867.16,-757.618 2641,-750.558 2676,-714 2741.89,-645.184 2579.21,-339.901 2536.8,-263.419"/>
<polygon fill="midnightblue" stroke="midnightblue" points="2539.78,-261.57 2531.85,-254.544 2533.66,-264.982 2539.78,-261.57"/>
</g>
<!-- Node45&#45;&gt;Node29 -->
<g id="edge142" class="edge"><title>Node45&#45;&gt;Node29</title>
<path fill="none" stroke="midnightblue" d="M1600.85,-758.931C1476.22,-758.303 1102.2,-753.146 1066,-714 992.845,-634.896 1081.4,-491.14 1115.61,-441.999"/>
<polygon fill="midnightblue" stroke="midnightblue" points="1118.55,-443.899 1121.49,-433.72 1112.85,-439.846 1118.55,-443.899"/>
</g>
<!-- Node45&#45;&gt;Node33 -->
<g id="edge145" class="edge"><title>Node45&#45;&gt;Node33</title>
<path fill="none" stroke="midnightblue" d="M1639.9,-750.358C1637.9,-737.258 1632.74,-711.998 1621,-694 1613.25,-682.125 1601.51,-671.584 1591.13,-663.695"/>
<polygon fill="midnightblue" stroke="midnightblue" points="1593.02,-660.74 1582.86,-657.721 1588.92,-666.414 1593.02,-660.74"/>
</g>
<!-- Node45&#45;&gt;Node34 -->
<g id="edge141" class="edge"><title>Node45&#45;&gt;Node34</title>
<path fill="none" stroke="midnightblue" d="M1681.24,-758.796C1765.17,-757.605 1964.6,-750.769 2127,-714 2235.25,-689.49 2412.64,-665.047 2339,-582 2287.29,-523.685 1742.79,-492.541 1560.26,-483.681"/>
<polygon fill="midnightblue" stroke="midnightblue" points="1560.2,-480.175 1550.04,-483.191 1559.86,-487.167 1560.2,-480.175"/>
</g>
<!-- Node45&#45;&gt;Node37 -->
<g id="edge151" class="edge"><title>Node45&#45;&gt;Node37</title>
<path fill="none" stroke="midnightblue" d="M1681.39,-756.435C1802.08,-748.146 2157.62,-719 2254,-658 2271.53,-646.907 2284.04,-626.259 2291.36,-611.203"/>
<polygon fill="midnightblue" stroke="midnightblue" points="2294.65,-612.413 2295.58,-601.86 2288.27,-609.526 2294.65,-612.413"/>
</g>
<!-- Node46 -->
<g id="node46" class="node"><title>Node46</title>
<g id="a_node46"><a xlink:href="buffer_8h.html" target="_top" xlink:title="Symbolic n&#45;dimensional array, to represent a memory buffer. ">
<polygon fill="white" stroke="red" points="1525.5,-694.5 1525.5,-713.5 1612.5,-713.5 1612.5,-694.5 1525.5,-694.5"/>
<text text-anchor="middle" x="1569" y="-701.5" font-family="Helvetica,sans-Serif" font-size="10.00">tvm/tir/buffer.h</text>
</a>
</g>
</g>
<!-- Node45&#45;&gt;Node46 -->
<g id="edge146" class="edge"><title>Node45&#45;&gt;Node46</title>
<path fill="none" stroke="midnightblue" d="M1629.43,-750.324C1618.58,-742.185 1602.12,-729.839 1589.12,-720.087"/>
<polygon fill="midnightblue" stroke="midnightblue" points="1590.88,-717.034 1580.78,-713.834 1586.68,-722.634 1590.88,-717.034"/>
</g>
<!-- Node46&#45;&gt;Node12 -->
<g id="edge149" class="edge"><title>Node46&#45;&gt;Node12</title>
<path fill="none" stroke="midnightblue" d="M1612.85,-702.333C1750.09,-699.921 2165.23,-690.022 2216,-658 2248.83,-637.297 2226.87,-603.768 2259,-582 2357.4,-515.332 2411.7,-584.946 2524,-546 2721.66,-477.449 2763.78,-418.747 2894,-255 2912.72,-231.458 2923.17,-227.752 2932,-199 2941.92,-166.712 2936.55,-156.469 2932,-123 2930.52,-112.127 2927.33,-100.29 2924.36,-90.8109"/>
<polygon fill="midnightblue" stroke="midnightblue" points="2927.68,-89.6855 2921.22,-81.2874 2921.03,-91.8806 2927.68,-89.6855"/>
</g>
<!-- Node46&#45;&gt;Node29 -->
<g id="edge147" class="edge"><title>Node46&#45;&gt;Node29</title>
<path fill="none" stroke="midnightblue" d="M1525.37,-700.972C1454.31,-695.539 1312.41,-675.547 1222,-602 1169.64,-559.403 1142.65,-479.717 1132.66,-443.619"/>
<polygon fill="midnightblue" stroke="midnightblue" points="1135.93,-442.31 1130,-433.533 1129.16,-444.095 1135.93,-442.31"/>
</g>
<!-- Node46&#45;&gt;Node33 -->
<g id="edge148" class="edge"><title>Node46&#45;&gt;Node33</title>
<path fill="none" stroke="midnightblue" d="M1569,-694.083C1569,-687.006 1569,-676.861 1569,-667.986"/>
<polygon fill="midnightblue" stroke="midnightblue" points="1572.5,-667.751 1569,-657.751 1565.5,-667.751 1572.5,-667.751"/>
</g>
<!-- Node47&#45;&gt;Node11 -->
<g id="edge161" class="edge"><title>Node47&#45;&gt;Node11</title>
<path fill="none" stroke="midnightblue" d="M1181.22,-814.041C1469.8,-807.909 3041.79,-774.31 3046,-770 3176.72,-636.165 2918,-556.082 2918,-369 2918,-369 2918,-369 2918,-305.5 2918,-213.222 2632.52,-152.245 2545,-123 2486.72,-103.524 2417.17,-88.707 2373.04,-80.3078"/>
<polygon fill="midnightblue" stroke="midnightblue" points="2373.69,-76.8674 2363.21,-78.4626 2372.4,-83.7473 2373.69,-76.8674"/>
</g>
<!-- Node47&#45;&gt;Node12 -->
<g id="edge158" class="edge"><title>Node47&#45;&gt;Node12</title>
<path fill="none" stroke="midnightblue" d="M1181.12,-814.095C1470.78,-808.266 3057.42,-776.072 3068,-770 3097.42,-753.11 3108,-738.921 3108,-705 3108,-705 3108,-705 3108,-479 3108,-395.629 3184,-390.871 3184,-307.5 3184,-307.5 3184,-307.5 3184,-188 3184,-157.205 3183.33,-143.106 3160,-123 3128.86,-96.1584 3008.8,-81.2094 2950.35,-75.3852"/>
<polygon fill="midnightblue" stroke="midnightblue" points="2950.48,-71.8813 2940.19,-74.4031 2949.8,-78.8489 2950.48,-71.8813"/>
</g>
<!-- Node47&#45;&gt;Node13 -->
<g id="edge160" class="edge"><title>Node47&#45;&gt;Node13</title>
<path fill="none" stroke="midnightblue" d="M1090.93,-815.198C1025.9,-814.092 902.916,-806.739 806,-770 719.524,-737.218 114,-399.981 114,-307.5 114,-307.5 114,-307.5 114,-188 114,-122.717 340.511,-87.195 424.852,-76.2311"/>
<polygon fill="midnightblue" stroke="midnightblue" points="425.386,-79.6915 434.864,-74.9587 424.503,-72.7473 425.386,-79.6915"/>
</g>
<!-- Node47&#45;&gt;Node18 -->
<g id="edge159" class="edge"><title>Node47&#45;&gt;Node18</title>
<path fill="none" stroke="midnightblue" d="M1090.89,-812.621C1036.36,-808.586 942.508,-797.895 867,-770 821.741,-753.28 797.739,-756.004 774,-714 680.349,-548.289 784.438,-472.746 841,-291 848.81,-265.905 843.751,-255.658 860,-235 870.806,-221.262 887.04,-210.529 901.26,-202.997"/>
<polygon fill="midnightblue" stroke="midnightblue" points="902.856,-206.112 910.235,-198.509 899.726,-199.851 902.856,-206.112"/>
</g>
<!-- Node47&#45;&gt;Node29 -->
<g id="edge156" class="edge"><title>Node47&#45;&gt;Node29</title>
<path fill="none" stroke="midnightblue" d="M1090.92,-808.621C1004.95,-795.181 826,-760.537 826,-705 826,-705 826,-705 826,-647 826,-579.119 1026.58,-474.432 1100.81,-438.016"/>
<polygon fill="midnightblue" stroke="midnightblue" points="1102.55,-441.059 1110.01,-433.534 1099.49,-434.766 1102.55,-441.059"/>
</g>
<!-- Node47&#45;&gt;Node45 -->
<g id="edge157" class="edge"><title>Node47&#45;&gt;Node45</title>
<path fill="none" stroke="midnightblue" d="M1181.26,-810.16C1275.61,-800.072 1492.68,-776.86 1590.99,-766.347"/>
<polygon fill="midnightblue" stroke="midnightblue" points="1591.4,-769.824 1600.97,-765.28 1590.66,-762.863 1591.4,-769.824"/>
</g>
<!-- Node48&#45;&gt;Node12 -->
<g id="edge165" class="edge"><title>Node48&#45;&gt;Node12</title>
<path fill="none" stroke="midnightblue" d="M1277.11,-869.229C1596.75,-859.646 3085.86,-812.834 3173,-770 3232.44,-740.78 3260,-715.236 3260,-649 3260,-649 3260,-649 3260,-188 3260,-154.31 3248.85,-141.961 3221,-123 3177.27,-93.2284 3019.35,-79.2722 2950.49,-74.4983"/>
<polygon fill="midnightblue" stroke="midnightblue" points="2950.44,-70.9875 2940.23,-73.81 2949.97,-77.9718 2950.44,-70.9875"/>
</g>
<!-- Node48&#45;&gt;Node46 -->
<g id="edge164" class="edge"><title>Node48&#45;&gt;Node46</title>
<path fill="none" stroke="midnightblue" d="M1235.43,-862.309C1293.41,-834.968 1472.3,-750.601 1541.38,-718.023"/>
<polygon fill="midnightblue" stroke="midnightblue" points="1543.2,-721.036 1550.75,-713.605 1540.22,-714.705 1543.2,-721.036"/>
</g>
<!-- Node48&#45;&gt;Node47 -->
<g id="edge163" class="edge"><title>Node48&#45;&gt;Node47</title>
<path fill="none" stroke="midnightblue" d="M1203.99,-862.324C1191.47,-853.979 1172.32,-841.212 1157.53,-831.352"/>
<polygon fill="midnightblue" stroke="midnightblue" points="1159.24,-828.289 1148.98,-825.655 1155.36,-834.114 1159.24,-828.289"/>
</g>
<!-- Node49&#45;&gt;Node12 -->
<g id="edge179" class="edge"><title>Node49&#45;&gt;Node12</title>
<path fill="none" stroke="midnightblue" d="M1724.27,-871.139C1982.85,-871.671 3173.59,-871.632 3236,-826 3303.29,-776.802 3298,-732.353 3298,-649 3298,-649 3298,-649 3298,-188 3298,-157.205 3297.96,-142.34 3274,-123 3224.59,-83.1238 3028.9,-74.7337 2950.62,-72.9694"/>
<polygon fill="midnightblue" stroke="midnightblue" points="2950.45,-69.4653 2940.38,-72.7618 2950.31,-76.4639 2950.45,-69.4653"/>
</g>
<!-- Node49&#45;&gt;Node40 -->
<g id="edge170" class="edge"><title>Node49&#45;&gt;Node40</title>
<path fill="none" stroke="midnightblue" d="M1724.22,-863.867C1858.79,-844.364 2232.42,-790.214 2376.4,-769.348"/>
<polygon fill="midnightblue" stroke="midnightblue" points="2376.97,-772.802 2386.36,-767.904 2375.96,-765.874 2376.97,-772.802"/>
</g>
<!-- Node49&#45;&gt;Node45 -->
<g id="edge171" class="edge"><title>Node49&#45;&gt;Node45</title>
<path fill="none" stroke="midnightblue" d="M1680.4,-862.261C1687.56,-849.467 1698.39,-825.086 1690,-806 1684.61,-793.732 1674.04,-783.341 1664.1,-775.646"/>
<polygon fill="midnightblue" stroke="midnightblue" points="1665.83,-772.581 1655.66,-769.598 1661.75,-778.27 1665.83,-772.581"/>
</g>
<!-- Node49&#45;&gt;Node46 -->
<g id="edge172" class="edge"><title>Node49&#45;&gt;Node46</title>
<path fill="none" stroke="midnightblue" d="M1643.62,-862.393C1624.84,-855.595 1602.14,-844.159 1589,-826 1566.92,-795.481 1565.81,-749.36 1567.23,-723.774"/>
<polygon fill="midnightblue" stroke="midnightblue" points="1570.73,-723.827 1567.99,-713.593 1563.75,-723.303 1570.73,-723.827"/>
</g>
<!-- Node50 -->
<g id="node50" class="node"><title>Node50</title>
<g id="a_node50"><a xlink:href="stmt_8h.html" target="_top" xlink:title="TIR statements. ">
<polygon fill="white" stroke="black" points="1598.5,-806.5 1598.5,-825.5 1681.5,-825.5 1681.5,-806.5 1598.5,-806.5"/>
<text text-anchor="middle" x="1640" y="-813.5" font-family="Helvetica,sans-Serif" font-size="10.00">tvm/tir/stmt.h</text>
</a>
</g>
</g>
<!-- Node49&#45;&gt;Node50 -->
<g id="edge173" class="edge"><title>Node49&#45;&gt;Node50</title>
<path fill="none" stroke="midnightblue" d="M1669.22,-862.083C1664.33,-854.534 1657.17,-843.495 1651.17,-834.23"/>
<polygon fill="midnightblue" stroke="midnightblue" points="1654.05,-832.239 1645.67,-825.751 1648.17,-836.046 1654.05,-832.239"/>
</g>
<!-- Node50&#45;&gt;Node11 -->
<g id="edge175" class="edge"><title>Node50&#45;&gt;Node11</title>
<path fill="none" stroke="midnightblue" d="M1681.66,-815.04C1916.04,-815.099 3061.99,-813.177 3122,-770 3147,-752.014 3146,-735.795 3146,-705 3146,-705 3146,-705 3146,-367 3146,-201.227 2543.2,-102.952 2373.17,-78.5289"/>
<polygon fill="midnightblue" stroke="midnightblue" points="2373.46,-75.0353 2363.07,-77.092 2372.47,-81.9655 2373.46,-75.0353"/>
</g>
<!-- Node50&#45;&gt;Node12 -->
<g id="edge176" class="edge"><title>Node50&#45;&gt;Node12</title>
<path fill="none" stroke="midnightblue" d="M1681.52,-815.011C1917.74,-814.918 3083.83,-812.31 3146,-770 3216.78,-721.833 3222,-678.612 3222,-593 3222,-593 3222,-593 3222,-188 3222,-157.205 3221.6,-142.786 3198,-123 3160.8,-91.8093 3015.66,-78.7444 2950.26,-74.3588"/>
<polygon fill="midnightblue" stroke="midnightblue" points="2950.32,-70.8552 2940.11,-73.7054 2949.87,-77.8408 2950.32,-70.8552"/>
</g>
<!-- Node50&#45;&gt;Node13 -->
<g id="edge178" class="edge"><title>Node50&#45;&gt;Node13</title>
<path fill="none" stroke="midnightblue" d="M1598.36,-813.135C1491.22,-808.062 1208.05,-792.843 1117,-770 933.546,-723.972 865.487,-729.739 726,-602 558.07,-448.213 479.03,-166.113 460.412,-91.1822"/>
<polygon fill="midnightblue" stroke="midnightblue" points="463.78,-90.2175 458.019,-81.3257 456.978,-91.8693 463.78,-90.2175"/>
</g>
<!-- Node50&#45;&gt;Node18 -->
<g id="edge177" class="edge"><title>Node50&#45;&gt;Node18</title>
<path fill="none" stroke="midnightblue" d="M1598.3,-813.557C1477.37,-808.524 1129.97,-787.806 1049,-714 896.597,-575.074 919.446,-285.138 928.492,-208.767"/>
<polygon fill="midnightblue" stroke="midnightblue" points="931.977,-209.102 929.75,-198.744 925.031,-208.23 931.977,-209.102"/>
</g>
<!-- Node50&#45;&gt;Node45 -->
<g id="edge174" class="edge"><title>Node50&#45;&gt;Node45</title>
<path fill="none" stroke="midnightblue" d="M1640.17,-806.083C1640.3,-799.006 1640.48,-788.861 1640.65,-779.986"/>
<polygon fill="midnightblue" stroke="midnightblue" points="1644.15,-779.814 1640.84,-769.751 1637.15,-779.685 1644.15,-779.814"/>
</g>
</g>
</svg>
