<?xml version="1.0" encoding="UTF-8" standalone="no"?>
<!DOCTYPE svg PUBLIC "-//W3C//DTD SVG 1.1//EN"
 "http://www.w3.org/Graphics/SVG/1.1/DTD/svg11.dtd">
<!-- Generated by graphviz version 2.38.0 (20140413.2041)
 -->
<!-- Title: include/tvm/driver/driver_api.h Pages: 1 -->
<svg width="3498pt" height="1136pt"
 viewBox="0.00 0.00 3498.00 1136.00" xmlns="http://www.w3.org/2000/svg" xmlns:xlink="http://www.w3.org/1999/xlink">
<g id="graph0" class="graph" transform="scale(1 1) rotate(0) translate(4 1132)">
<title>include/tvm/driver/driver_api.h</title>
<polygon fill="white" stroke="none" points="-4,4 -4,-1132 3494,-1132 3494,4 -4,4"/>
<!-- Node1 -->
<g id="node1" class="node"><title>Node1</title>
<polygon fill="#bfbfbf" stroke="black" points="522,-1097.5 522,-1127.5 624,-1127.5 624,-1097.5 522,-1097.5"/>
<text text-anchor="start" x="530" y="-1115.5" font-family="Helvetica,sans-Serif" font-size="10.00">include/tvm/driver</text>
<text text-anchor="middle" x="573" y="-1104.5" font-family="Helvetica,sans-Serif" font-size="10.00">/driver_api.h</text>
</g>
<!-- Node2 -->
<g id="node2" class="node"><title>Node2</title>
<g id="a_node2"><a xlink:href="packed__func_8h.html" target="_top" xlink:title="Type&#45;erased function used across TVM API. ">
<polygon fill="white" stroke="black" points="1604.5,-291.5 1604.5,-321.5 1717.5,-321.5 1717.5,-291.5 1604.5,-291.5"/>
<text text-anchor="start" x="1612.5" y="-309.5" font-family="Helvetica,sans-Serif" font-size="10.00">tvm/runtime/packed</text>
<text text-anchor="middle" x="1661" y="-298.5" font-family="Helvetica,sans-Serif" font-size="10.00">_func.h</text>
</a>
</g>
</g>
<!-- Node1&#45;&gt;Node2 -->
<g id="edge1" class="edge"><title>Node1&#45;&gt;Node2</title>
<path fill="none" stroke="midnightblue" d="M579.375,-1097.18C595.002,-1063.54 638.336,-978.579 698,-929 775.744,-864.396 814.202,-879.321 906,-837 1029.12,-780.24 1052.62,-748.575 1181,-705 1528.06,-587.201 1798.92,-819.647 1980,-501 2040.44,-394.644 1838.1,-339.902 1727.8,-318.502"/>
<polygon fill="midnightblue" stroke="midnightblue" points="1728.23,-315.021 1717.75,-316.595 1726.92,-321.898 1728.23,-315.021"/>
</g>
<!-- Node12 -->
<g id="node12" class="node"><title>Node12</title>
<polygon fill="white" stroke="#bfbfbf" points="3031,-62 3031,-81 3075,-81 3075,-62 3031,-62"/>
<text text-anchor="middle" x="3053" y="-69" font-family="Helvetica,sans-Serif" font-size="10.00">string</text>
</g>
<!-- Node1&#45;&gt;Node12 -->
<g id="edge180" class="edge"><title>Node1&#45;&gt;Node12</title>
<path fill="none" stroke="midnightblue" d="M624.215,-1111C925.214,-1107.98 2466.99,-1091.22 2940,-1061 3062.82,-1053.15 3490,-1119.07 3490,-996 3490,-996 3490,-996 3490,-188 3490,-104.336 3186.82,-79.9136 3085.52,-74.0886"/>
<polygon fill="midnightblue" stroke="midnightblue" points="3085.45,-70.5796 3075.27,-73.5239 3085.06,-77.569 3085.45,-70.5796"/>
</g>
<!-- Node13 -->
<g id="node13" class="node"><title>Node13</title>
<polygon fill="white" stroke="#bfbfbf" points="245,-62 245,-81 287,-81 287,-62 245,-62"/>
<text text-anchor="middle" x="266" y="-69" font-family="Helvetica,sans-Serif" font-size="10.00">utility</text>
</g>
<!-- Node1&#45;&gt;Node13 -->
<g id="edge182" class="edge"><title>Node1&#45;&gt;Node13</title>
<path fill="none" stroke="midnightblue" d="M521.898,-1111.97C381.459,-1111.91 0,-1101.98 0,-996 0,-996 0,-996 0,-188 0,-86.7173 164.263,-73.292 234.623,-72.1871"/>
<polygon fill="midnightblue" stroke="midnightblue" points="234.711,-75.6866 244.682,-72.1042 234.653,-68.6869 234.711,-75.6866"/>
</g>
<!-- Node18 -->
<g id="node18" class="node"><title>Node18</title>
<polygon fill="white" stroke="#bfbfbf" points="858.5,-179.5 858.5,-198.5 905.5,-198.5 905.5,-179.5 858.5,-179.5"/>
<text text-anchor="middle" x="882" y="-186.5" font-family="Helvetica,sans-Serif" font-size="10.00">vector</text>
</g>
<!-- Node1&#45;&gt;Node18 -->
<g id="edge181" class="edge"><title>Node1&#45;&gt;Node18</title>
<path fill="none" stroke="midnightblue" d="M521.936,-1110.76C392.179,-1107.52 60,-1090.03 60,-996 60,-996 60,-996 60,-826 60,-664.234 338.968,-304.591 485,-235 549.103,-204.452 764.609,-193.983 848.337,-191.016"/>
<polygon fill="midnightblue" stroke="midnightblue" points="848.46,-194.514 858.335,-190.675 848.221,-187.518 848.46,-194.514"/>
</g>
<!-- Node19 -->
<g id="node19" class="node"><title>Node19</title>
<polygon fill="white" stroke="#bfbfbf" points="2033.5,-179.5 2033.5,-198.5 2126.5,-198.5 2126.5,-179.5 2033.5,-179.5"/>
<text text-anchor="middle" x="2080" y="-186.5" font-family="Helvetica,sans-Serif" font-size="10.00">unordered_map</text>
</g>
<!-- Node1&#45;&gt;Node19 -->
<g id="edge183" class="edge"><title>Node1&#45;&gt;Node19</title>
<path fill="none" stroke="midnightblue" d="M624.192,-1110.83C1010.45,-1105.61 3452,-1069.71 3452,-996 3452,-996 3452,-996 3452,-770 3452,-546.622 2818.8,-284.607 2601,-235 2513.89,-215.16 2252.79,-199.229 2136.71,-192.923"/>
<polygon fill="midnightblue" stroke="midnightblue" points="2136.77,-189.421 2126.6,-192.378 2136.4,-196.411 2136.77,-189.421"/>
</g>
<!-- Node27 -->
<g id="node27" class="node"><title>Node27</title>
<g id="a_node27"><a xlink:href="target_8h.html" target="_top" xlink:title="Compilation target object. ">
<polygon fill="white" stroke="black" points="401.5,-817.5 401.5,-836.5 510.5,-836.5 510.5,-817.5 401.5,-817.5"/>
<text text-anchor="middle" x="456" y="-824.5" font-family="Helvetica,sans-Serif" font-size="10.00">tvm/target/target.h</text>
</a>
</g>
</g>
<!-- Node1&#45;&gt;Node27 -->
<g id="edge52" class="edge"><title>Node1&#45;&gt;Node27</title>
<path fill="none" stroke="midnightblue" d="M521.614,-1107.83C411.765,-1098.56 164,-1069.51 164,-996 164,-996 164,-996 164,-938 164,-889.148 308.937,-854.532 394.586,-838.34"/>
<polygon fill="midnightblue" stroke="midnightblue" points="395.276,-841.772 404.468,-836.504 393.997,-834.89 395.276,-841.772"/>
</g>
<!-- Node28 -->
<g id="node28" class="node"><title>Node28</title>
<g id="a_node28"><a xlink:href="with_8h.html" target="_top" xlink:title="RAII wrapper function to enter and exit a context object similar to python&#39;s with syntax...">
<polygon fill="white" stroke="black" points="496,-761.5 496,-780.5 602,-780.5 602,-761.5 496,-761.5"/>
<text text-anchor="middle" x="549" y="-768.5" font-family="Helvetica,sans-Serif" font-size="10.00">tvm/support/with.h</text>
</a>
</g>
</g>
<!-- Node1&#45;&gt;Node28 -->
<g id="edge125" class="edge"><title>Node1&#45;&gt;Node28</title>
<path fill="none" stroke="midnightblue" d="M568.953,-1097.41C563.109,-1075.79 553,-1033.04 553,-996 553,-996 553,-996 553,-882 553,-849.927 551.281,-812.628 550.096,-790.741"/>
<polygon fill="midnightblue" stroke="midnightblue" points="553.58,-790.341 549.523,-780.554 546.591,-790.735 553.58,-790.341"/>
</g>
<!-- Node41 -->
<g id="node41" class="node"><title>Node41</title>
<polygon fill="white" stroke="#bfbfbf" points="88,-761.5 88,-780.5 174,-780.5 174,-761.5 88,-761.5"/>
<text text-anchor="middle" x="131" y="-768.5" font-family="Helvetica,sans-Serif" font-size="10.00">unordered_set</text>
</g>
<!-- Node1&#45;&gt;Node41 -->
<g id="edge184" class="edge"><title>Node1&#45;&gt;Node41</title>
<path fill="none" stroke="midnightblue" d="M521.738,-1108.05C433.975,-1101.55 258.982,-1085.89 203,-1061 162.077,-1042.8 126,-1040.79 126,-996 126,-996 126,-996 126,-882 126,-849.915 128.149,-812.62 129.629,-790.737"/>
<polygon fill="midnightblue" stroke="midnightblue" points="133.135,-790.773 130.346,-780.552 126.153,-790.281 133.135,-790.773"/>
</g>
<!-- Node42 -->
<g id="node42" class="node"><title>Node42</title>
<g id="a_node42"><a xlink:href="ir_2module_8h.html" target="_top" xlink:title="IRModule that holds the functions and type definitions. ">
<polygon fill="white" stroke="black" points="1367,-929.5 1367,-948.5 1459,-948.5 1459,-929.5 1367,-929.5"/>
<text text-anchor="middle" x="1413" y="-936.5" font-family="Helvetica,sans-Serif" font-size="10.00">tvm/ir/module.h</text>
</a>
</g>
</g>
<!-- Node1&#45;&gt;Node42 -->
<g id="edge126" class="edge"><title>Node1&#45;&gt;Node42</title>
<path fill="none" stroke="midnightblue" d="M624.281,-1101.03C774.183,-1070.43 1210.51,-981.343 1361.14,-950.588"/>
<polygon fill="midnightblue" stroke="midnightblue" points="1361.97,-953.992 1371.06,-948.562 1360.57,-947.133 1361.97,-953.992"/>
</g>
<!-- Node46 -->
<g id="node46" class="node"><title>Node46</title>
<g id="a_node46"><a xlink:href="schedule__pass_8h.html" target="_top" xlink:title="Collection of Schedule pass functions. ">
<polygon fill="white" stroke="black" points="661.5,-1041.5 661.5,-1060.5 792.5,-1060.5 792.5,-1041.5 661.5,-1041.5"/>
<text text-anchor="middle" x="727" y="-1048.5" font-family="Helvetica,sans-Serif" font-size="10.00">tvm/te/schedule_pass.h</text>
</a>
</g>
</g>
<!-- Node1&#45;&gt;Node46 -->
<g id="edge154" class="edge"><title>Node1&#45;&gt;Node46</title>
<path fill="none" stroke="midnightblue" d="M609.496,-1097.4C635.565,-1087.33 670.294,-1073.91 695.224,-1064.28"/>
<polygon fill="midnightblue" stroke="midnightblue" points="696.525,-1067.53 704.592,-1060.66 694.002,-1061 696.525,-1067.53"/>
</g>
<!-- Node3 -->
<g id="node3" class="node"><title>Node3</title>
<polygon fill="white" stroke="#bfbfbf" points="2564,-62 2564,-81 2650,-81 2650,-62 2564,-62"/>
<text text-anchor="middle" x="2607" y="-69" font-family="Helvetica,sans-Serif" font-size="10.00">dmlc/logging.h</text>
</g>
<!-- Node2&#45;&gt;Node3 -->
<g id="edge2" class="edge"><title>Node2&#45;&gt;Node3</title>
<path fill="none" stroke="midnightblue" d="M1717.65,-300.774C1870.32,-287.521 2287.44,-247.768 2416,-199 2486.7,-172.181 2557.74,-115.424 2589.61,-87.9905"/>
<polygon fill="midnightblue" stroke="midnightblue" points="2592.3,-90.2917 2597.53,-81.0796 2587.7,-85.0175 2592.3,-90.2917"/>
</g>
<!-- Node4 -->
<g id="node4" class="node"><title>Node4</title>
<g id="a_node4"><a xlink:href="c__runtime__api_8h.html" target="_top" xlink:title="tvm/runtime/c_runtime\l_api.h">
<polygon fill="white" stroke="black" points="1554.5,-56.5 1554.5,-86.5 1681.5,-86.5 1681.5,-56.5 1554.5,-56.5"/>
<text text-anchor="start" x="1562.5" y="-74.5" font-family="Helvetica,sans-Serif" font-size="10.00">tvm/runtime/c_runtime</text>
<text text-anchor="middle" x="1618" y="-63.5" font-family="Helvetica,sans-Serif" font-size="10.00">_api.h</text>
</a>
</g>
</g>
<!-- Node2&#45;&gt;Node4 -->
<g id="edge3" class="edge"><title>Node2&#45;&gt;Node4</title>
<path fill="none" stroke="midnightblue" d="M1612.91,-291.497C1591.92,-283.491 1568.22,-271.655 1551,-255 1531,-235.654 1529.39,-226.082 1523,-199 1512.62,-155.02 1554.82,-115.319 1586.31,-92.5639"/>
<polygon fill="midnightblue" stroke="midnightblue" points="1588.65,-95.1968 1594.85,-86.6056 1584.65,-89.4552 1588.65,-95.1968"/>
</g>
<!-- Node8 -->
<g id="node8" class="node"><title>Node8</title>
<g id="a_node8"><a xlink:href="runtime_2module_8h.html" target="_top" xlink:title="Runtime container of the functions generated by TVM, This is used to support dynamically link...">
<polygon fill="white" stroke="black" points="1570,-235.5 1570,-254.5 1694,-254.5 1694,-235.5 1570,-235.5"/>
<text text-anchor="middle" x="1632" y="-242.5" font-family="Helvetica,sans-Serif" font-size="10.00">tvm/runtime/module.h</text>
</a>
</g>
</g>
<!-- Node2&#45;&gt;Node8 -->
<g id="edge7" class="edge"><title>Node2&#45;&gt;Node8</title>
<path fill="none" stroke="midnightblue" d="M1648.29,-291.399C1643.29,-283.288 1638.13,-273.007 1634.63,-264.281"/>
<polygon fill="midnightblue" stroke="midnightblue" points="1637.87,-262.959 1631.29,-254.658 1631.26,-265.253 1637.87,-262.959"/>
</g>
<!-- Node10 -->
<g id="node10" class="node"><title>Node10</title>
<g id="a_node10"><a xlink:href="object_8h.html" target="_top" xlink:title="A managed object in the TVM runtime. ">
<polygon fill="white" stroke="black" points="1857.5,-123.5 1857.5,-142.5 1974.5,-142.5 1974.5,-123.5 1857.5,-123.5"/>
<text text-anchor="middle" x="1916" y="-130.5" font-family="Helvetica,sans-Serif" font-size="10.00">tvm/runtime/object.h</text>
</a>
</g>
</g>
<!-- Node2&#45;&gt;Node10 -->
<g id="edge43" class="edge"><title>Node2&#45;&gt;Node10</title>
<path fill="none" stroke="midnightblue" d="M1693.29,-291.394C1713.57,-282.042 1739.98,-268.956 1762,-255 1814.84,-221.519 1871.26,-173.671 1898.83,-149.396"/>
<polygon fill="midnightblue" stroke="midnightblue" points="1901.27,-151.915 1906.43,-142.661 1896.62,-146.678 1901.27,-151.915"/>
</g>
<!-- Node11 -->
<g id="node11" class="node"><title>Node11</title>
<polygon fill="white" stroke="#bfbfbf" points="791,-62 791,-81 859,-81 859,-62 791,-62"/>
<text text-anchor="middle" x="825" y="-69" font-family="Helvetica,sans-Serif" font-size="10.00">type_traits</text>
</g>
<!-- Node2&#45;&gt;Node11 -->
<g id="edge51" class="edge"><title>Node2&#45;&gt;Node11</title>
<path fill="none" stroke="midnightblue" d="M1621.22,-291.498C1595.21,-281.991 1560.68,-268.696 1531,-255 1418.69,-203.174 1404.1,-159.747 1286,-123 1138.37,-77.0648 952.814,-71.6285 869.307,-71.7795"/>
<polygon fill="midnightblue" stroke="midnightblue" points="869.147,-68.2801 859.164,-71.8268 869.18,-75.28 869.147,-68.2801"/>
</g>
<!-- Node2&#45;&gt;Node12 -->
<g id="edge47" class="edge"><title>Node2&#45;&gt;Node12</title>
<path fill="none" stroke="midnightblue" d="M1717.64,-302.906C1817.87,-297.739 2032.79,-284.064 2212,-255 2451.62,-216.139 2504.49,-173.181 2742,-123 2843.06,-101.648 2964.24,-84.3192 3020.88,-76.6956"/>
<polygon fill="midnightblue" stroke="midnightblue" points="3021.55,-80.1368 3031,-75.3441 3020.62,-73.1983 3021.55,-80.1368"/>
</g>
<!-- Node2&#45;&gt;Node13 -->
<g id="edge50" class="edge"><title>Node2&#45;&gt;Node13</title>
<path fill="none" stroke="midnightblue" d="M1612.5,-291.449C1557.66,-275.95 1465.51,-251.08 1385,-235 1166.47,-191.351 455.452,-97.3156 297.344,-76.5941"/>
<polygon fill="midnightblue" stroke="midnightblue" points="297.704,-73.1114 287.334,-75.2834 296.795,-80.0522 297.704,-73.1114"/>
</g>
<!-- Node17 -->
<g id="node17" class="node"><title>Node17</title>
<polygon fill="white" stroke="#bfbfbf" points="1532.5,-179.5 1532.5,-198.5 1589.5,-198.5 1589.5,-179.5 1532.5,-179.5"/>
<text text-anchor="middle" x="1561" y="-186.5" font-family="Helvetica,sans-Serif" font-size="10.00">memory</text>
</g>
<!-- Node2&#45;&gt;Node17 -->
<g id="edge49" class="edge"><title>Node2&#45;&gt;Node17</title>
<path fill="none" stroke="midnightblue" d="M1608.31,-291.452C1590.09,-283.792 1571.6,-272.228 1561,-255 1552.51,-241.197 1553.54,-222.426 1556.09,-208.603"/>
<polygon fill="midnightblue" stroke="midnightblue" points="1559.52,-209.293 1558.3,-198.769 1552.69,-207.757 1559.52,-209.293"/>
</g>
<!-- Node2&#45;&gt;Node18 -->
<g id="edge46" class="edge"><title>Node2&#45;&gt;Node18</title>
<path fill="none" stroke="midnightblue" d="M1604.01,-294.299C1553.89,-284.34 1479,-269.199 1414,-255 1375.66,-246.625 1366.71,-241.427 1328,-235 1175.43,-209.67 990.972,-196.549 916.073,-191.946"/>
<polygon fill="midnightblue" stroke="midnightblue" points="916.026,-188.437 905.834,-191.328 915.605,-195.424 916.026,-188.437"/>
</g>
<!-- Node20 -->
<g id="node20" class="node"><title>Node20</title>
<g id="a_node20"><a xlink:href="ndarray_8h.html" target="_top" xlink:title="A device&#45;independent managed NDArray abstraction. ">
<polygon fill="white" stroke="black" points="1810.5,-235.5 1810.5,-254.5 1933.5,-254.5 1933.5,-235.5 1810.5,-235.5"/>
<text text-anchor="middle" x="1872" y="-242.5" font-family="Helvetica,sans-Serif" font-size="10.00">tvm/runtime/ndarray.h</text>
</a>
</g>
</g>
<!-- Node2&#45;&gt;Node20 -->
<g id="edge27" class="edge"><title>Node2&#45;&gt;Node20</title>
<path fill="none" stroke="midnightblue" d="M1710.74,-291.475C1747.77,-281.03 1797.68,-266.958 1832.12,-257.247"/>
<polygon fill="midnightblue" stroke="midnightblue" points="1833.16,-260.589 1841.83,-254.506 1831.26,-253.852 1833.16,-260.589"/>
</g>
<!-- Node23 -->
<g id="node23" class="node"><title>Node23</title>
<g id="a_node23"><a xlink:href="data__type_8h.html" target="_top" xlink:title="tvm/runtime/data_type.h">
<polygon fill="white" stroke="black" points="2332,-235.5 2332,-254.5 2468,-254.5 2468,-235.5 2332,-235.5"/>
<text text-anchor="middle" x="2400" y="-242.5" font-family="Helvetica,sans-Serif" font-size="10.00">tvm/runtime/data_type.h</text>
</a>
</g>
</g>
<!-- Node2&#45;&gt;Node23 -->
<g id="edge38" class="edge"><title>Node2&#45;&gt;Node23</title>
<path fill="none" stroke="midnightblue" d="M1717.74,-301.765C1831.63,-294.128 2096.17,-275.693 2318,-255 2319.11,-254.897 2320.22,-254.792 2321.34,-254.685"/>
<polygon fill="midnightblue" stroke="midnightblue" points="2321.95,-258.142 2331.56,-253.68 2321.27,-251.175 2321.95,-258.142"/>
</g>
<!-- Node24 -->
<g id="node24" class="node"><title>Node24</title>
<polygon fill="white" stroke="#bfbfbf" points="2486.5,-235.5 2486.5,-254.5 2549.5,-254.5 2549.5,-235.5 2486.5,-235.5"/>
<text text-anchor="middle" x="2518" y="-242.5" font-family="Helvetica,sans-Serif" font-size="10.00">functional</text>
</g>
<!-- Node2&#45;&gt;Node24 -->
<g id="edge44" class="edge"><title>Node2&#45;&gt;Node24</title>
<path fill="none" stroke="midnightblue" d="M1717.53,-302.119C1888.84,-291.857 2395.03,-261.429 2476.33,-254.468"/>
<polygon fill="midnightblue" stroke="midnightblue" points="2476.7,-257.948 2486.3,-253.464 2476,-250.983 2476.7,-257.948"/>
</g>
<!-- Node25 -->
<g id="node25" class="node"><title>Node25</title>
<polygon fill="white" stroke="#bfbfbf" points="1712.5,-235.5 1712.5,-254.5 1753.5,-254.5 1753.5,-235.5 1712.5,-235.5"/>
<text text-anchor="middle" x="1733" y="-242.5" font-family="Helvetica,sans-Serif" font-size="10.00">tuple</text>
</g>
<!-- Node2&#45;&gt;Node25 -->
<g id="edge45" class="edge"><title>Node2&#45;&gt;Node25</title>
<path fill="none" stroke="midnightblue" d="M1678.06,-291.399C1689.06,-282.308 1703.37,-270.49 1714.62,-261.191"/>
<polygon fill="midnightblue" stroke="midnightblue" points="1717.04,-263.726 1722.52,-254.658 1712.59,-258.33 1717.04,-263.726"/>
</g>
<!-- Node26 -->
<g id="node26" class="node"><title>Node26</title>
<polygon fill="white" stroke="#bfbfbf" points="560,-235.5 560,-254.5 602,-254.5 602,-235.5 560,-235.5"/>
<text text-anchor="middle" x="581" y="-242.5" font-family="Helvetica,sans-Serif" font-size="10.00">limits</text>
</g>
<!-- Node2&#45;&gt;Node26 -->
<g id="edge48" class="edge"><title>Node2&#45;&gt;Node26</title>
<path fill="none" stroke="midnightblue" d="M1604.15,-299.96C1572.36,-296.999 1532,-293.466 1496,-291 1149.79,-267.283 729.061,-251.305 612.329,-247.103"/>
<polygon fill="midnightblue" stroke="midnightblue" points="612.416,-243.604 602.297,-246.744 612.165,-250.599 612.416,-243.604"/>
</g>
<!-- Node5 -->
<g id="node5" class="node"><title>Node5</title>
<polygon fill="white" stroke="#bfbfbf" points="1483,-0.5 1483,-19.5 1573,-19.5 1573,-0.5 1483,-0.5"/>
<text text-anchor="middle" x="1528" y="-7.5" font-family="Helvetica,sans-Serif" font-size="10.00">dlpack/dlpack.h</text>
</g>
<!-- Node4&#45;&gt;Node5 -->
<g id="edge4" class="edge"><title>Node4&#45;&gt;Node5</title>
<path fill="none" stroke="midnightblue" d="M1596.67,-56.3993C1582.51,-47.0402 1563.99,-34.7924 1549.75,-25.3771"/>
<polygon fill="midnightblue" stroke="midnightblue" points="1551.37,-22.2531 1541.1,-19.6578 1547.51,-28.0923 1551.37,-22.2531"/>
</g>
<!-- Node6 -->
<g id="node6" class="node"><title>Node6</title>
<polygon fill="white" stroke="#bfbfbf" points="1591.5,-0.5 1591.5,-19.5 1644.5,-19.5 1644.5,-0.5 1591.5,-0.5"/>
<text text-anchor="middle" x="1618" y="-7.5" font-family="Helvetica,sans-Serif" font-size="10.00">stdint.h</text>
</g>
<!-- Node4&#45;&gt;Node6 -->
<g id="edge5" class="edge"><title>Node4&#45;&gt;Node6</title>
<path fill="none" stroke="midnightblue" d="M1618,-56.3993C1618,-48.4664 1618,-38.458 1618,-29.8583"/>
<polygon fill="midnightblue" stroke="midnightblue" points="1621.5,-29.6577 1618,-19.6578 1614.5,-29.6578 1621.5,-29.6577"/>
</g>
<!-- Node7 -->
<g id="node7" class="node"><title>Node7</title>
<polygon fill="white" stroke="#bfbfbf" points="1662.5,-0.5 1662.5,-19.5 1717.5,-19.5 1717.5,-0.5 1662.5,-0.5"/>
<text text-anchor="middle" x="1690" y="-7.5" font-family="Helvetica,sans-Serif" font-size="10.00">stddef.h</text>
</g>
<!-- Node4&#45;&gt;Node7 -->
<g id="edge6" class="edge"><title>Node4&#45;&gt;Node7</title>
<path fill="none" stroke="midnightblue" d="M1635.06,-56.3993C1646.06,-47.3076 1660.37,-35.4899 1671.62,-26.1909"/>
<polygon fill="midnightblue" stroke="midnightblue" points="1674.04,-28.726 1679.52,-19.6578 1669.59,-23.33 1674.04,-28.726"/>
</g>
<!-- Node8&#45;&gt;Node2 -->
<g id="edge26" class="edge"><title>Node8&#45;&gt;Node2</title>
<path fill="none" stroke="midnightblue" d="M1641.15,-254.658C1646.17,-261.805 1651.85,-272.297 1656.12,-281.897"/>
<polygon fill="midnightblue" stroke="midnightblue" points="1652.97,-283.446 1659.97,-291.399 1659.45,-280.817 1652.97,-283.446"/>
</g>
<!-- Node8&#45;&gt;Node4 -->
<g id="edge9" class="edge"><title>Node8&#45;&gt;Node4</title>
<path fill="none" stroke="midnightblue" d="M1631.29,-235.26C1629.22,-209.974 1623.19,-136.079 1620.01,-97.149"/>
<polygon fill="midnightblue" stroke="midnightblue" points="1623.46,-96.4048 1619.16,-86.7228 1616.49,-96.9744 1623.46,-96.4048"/>
</g>
<!-- Node9 -->
<g id="node9" class="node"><title>Node9</title>
<polygon fill="white" stroke="#bfbfbf" points="2077,-123.5 2077,-142.5 2137,-142.5 2137,-123.5 2077,-123.5"/>
<text text-anchor="middle" x="2107" y="-130.5" font-family="Helvetica,sans-Serif" font-size="10.00">dmlc/io.h</text>
</g>
<!-- Node8&#45;&gt;Node9 -->
<g id="edge8" class="edge"><title>Node8&#45;&gt;Node9</title>
<path fill="none" stroke="midnightblue" d="M1668.88,-235.46C1756.4,-215.192 1976.1,-164.314 2066.83,-143.302"/>
<polygon fill="midnightblue" stroke="midnightblue" points="2067.78,-146.675 2076.73,-141.009 2066.2,-139.855 2067.78,-146.675"/>
</g>
<!-- Node8&#45;&gt;Node10 -->
<g id="edge10" class="edge"><title>Node8&#45;&gt;Node10</title>
<path fill="none" stroke="midnightblue" d="M1647.33,-235.292C1671.39,-221.879 1719.74,-195.945 1763,-179 1798.32,-165.165 1839.66,-153.249 1870.46,-145.161"/>
<polygon fill="midnightblue" stroke="midnightblue" points="1871.67,-148.462 1880.47,-142.568 1869.92,-141.686 1871.67,-148.462"/>
</g>
<!-- Node8&#45;&gt;Node12 -->
<g id="edge24" class="edge"><title>Node8&#45;&gt;Node12</title>
<path fill="none" stroke="midnightblue" d="M1694.31,-235.836C1697.25,-235.535 1700.15,-235.254 1703,-235 2011.08,-207.533 2092.01,-244.139 2398,-199 2537.91,-178.361 2568.2,-150.133 2707,-123 2821.37,-100.642 2958.78,-83.4178 3020.36,-76.2008"/>
<polygon fill="midnightblue" stroke="midnightblue" points="3021.08,-79.6407 3030.61,-75.0102 3020.27,-72.6875 3021.08,-79.6407"/>
</g>
<!-- Node15 -->
<g id="node15" class="node"><title>Node15</title>
<g id="a_node15"><a xlink:href="runtime_2memory_8h.html" target="_top" xlink:title="Runtime memory management. ">
<polygon fill="white" stroke="black" points="1190.5,-179.5 1190.5,-198.5 1317.5,-198.5 1317.5,-179.5 1190.5,-179.5"/>
<text text-anchor="middle" x="1254" y="-186.5" font-family="Helvetica,sans-Serif" font-size="10.00">tvm/runtime/memory.h</text>
</a>
</g>
</g>
<!-- Node8&#45;&gt;Node15 -->
<g id="edge17" class="edge"><title>Node8&#45;&gt;Node15</title>
<path fill="none" stroke="midnightblue" d="M1572.1,-235.444C1504.64,-225.806 1395.14,-210.163 1323.85,-199.978"/>
<polygon fill="midnightblue" stroke="midnightblue" points="1324.01,-196.466 1313.62,-198.516 1323.02,-203.396 1324.01,-196.466"/>
</g>
<!-- Node8&#45;&gt;Node17 -->
<g id="edge22" class="edge"><title>Node8&#45;&gt;Node17</title>
<path fill="none" stroke="midnightblue" d="M1620.59,-235.324C1609.89,-227.185 1593.66,-214.839 1580.84,-205.087"/>
<polygon fill="midnightblue" stroke="midnightblue" points="1582.69,-202.102 1572.61,-198.834 1578.46,-207.673 1582.69,-202.102"/>
</g>
<!-- Node8&#45;&gt;Node18 -->
<g id="edge23" class="edge"><title>Node8&#45;&gt;Node18</title>
<path fill="none" stroke="midnightblue" d="M1569.99,-239.535C1418.2,-228.606 1031.93,-200.795 915.633,-192.422"/>
<polygon fill="midnightblue" stroke="midnightblue" points="915.772,-188.923 905.546,-191.695 915.269,-195.905 915.772,-188.923"/>
</g>
<!-- Node8&#45;&gt;Node19 -->
<g id="edge25" class="edge"><title>Node8&#45;&gt;Node19</title>
<path fill="none" stroke="midnightblue" d="M1694.33,-236.072C1697.26,-235.708 1700.16,-235.349 1703,-235 1816.56,-221.025 1949.46,-205.312 2023.25,-196.643"/>
<polygon fill="midnightblue" stroke="midnightblue" points="2023.74,-200.11 2033.26,-195.468 2022.92,-193.158 2023.74,-200.11"/>
</g>
<!-- Node10&#45;&gt;Node3 -->
<g id="edge11" class="edge"><title>Node10&#45;&gt;Node3</title>
<path fill="none" stroke="midnightblue" d="M1974.62,-126.953C2106.79,-115.572 2426.41,-88.0503 2553.54,-77.1031"/>
<polygon fill="midnightblue" stroke="midnightblue" points="2554.14,-80.5649 2563.8,-76.2198 2553.54,-73.5907 2554.14,-80.5649"/>
</g>
<!-- Node10&#45;&gt;Node4 -->
<g id="edge12" class="edge"><title>Node10&#45;&gt;Node4</title>
<path fill="none" stroke="midnightblue" d="M1873.3,-123.475C1826.01,-114.033 1748.91,-98.6374 1691.79,-87.2329"/>
<polygon fill="midnightblue" stroke="midnightblue" points="1692.22,-83.7499 1681.73,-85.224 1690.85,-90.6144 1692.22,-83.7499"/>
</g>
<!-- Node10&#45;&gt;Node11 -->
<g id="edge13" class="edge"><title>Node10&#45;&gt;Node11</title>
<path fill="none" stroke="midnightblue" d="M1857.34,-128.801C1662.69,-118.185 1040.75,-84.2663 869.193,-74.9102"/>
<polygon fill="midnightblue" stroke="midnightblue" points="869.193,-71.4051 859.018,-74.3552 868.812,-78.3947 869.193,-71.4051"/>
</g>
<!-- Node10&#45;&gt;Node12 -->
<g id="edge14" class="edge"><title>Node10&#45;&gt;Node12</title>
<path fill="none" stroke="midnightblue" d="M1974.82,-128.408C2003.01,-126.715 2037.25,-124.699 2068,-123 2442.24,-102.327 2896.64,-80.0857 3020.5,-74.0724"/>
<polygon fill="midnightblue" stroke="midnightblue" points="3020.99,-77.5532 3030.8,-73.5728 3020.65,-70.5615 3020.99,-77.5532"/>
</g>
<!-- Node10&#45;&gt;Node13 -->
<g id="edge15" class="edge"><title>Node10&#45;&gt;Node13</title>
<path fill="none" stroke="midnightblue" d="M1857.28,-129.882C1590.36,-120.257 495.985,-80.7934 297.087,-73.621"/>
<polygon fill="midnightblue" stroke="midnightblue" points="297.148,-70.121 287.029,-73.2583 296.896,-77.1165 297.148,-70.121"/>
</g>
<!-- Node14 -->
<g id="node14" class="node"><title>Node14</title>
<polygon fill="white" stroke="#bfbfbf" points="2141,-62 2141,-81 2191,-81 2191,-62 2141,-62"/>
<text text-anchor="middle" x="2166" y="-69" font-family="Helvetica,sans-Serif" font-size="10.00">atomic</text>
</g>
<!-- Node10&#45;&gt;Node14 -->
<g id="edge16" class="edge"><title>Node10&#45;&gt;Node14</title>
<path fill="none" stroke="midnightblue" d="M1951.82,-123.475C1999.62,-112.099 2083.72,-92.0835 2131.06,-80.815"/>
<polygon fill="midnightblue" stroke="midnightblue" points="2131.94,-84.203 2140.86,-78.4827 2130.32,-77.3932 2131.94,-84.203"/>
</g>
<!-- Node15&#45;&gt;Node10 -->
<g id="edge18" class="edge"><title>Node15&#45;&gt;Node10</title>
<path fill="none" stroke="midnightblue" d="M1317.78,-182.798C1442.56,-172.619 1718.03,-150.149 1846.94,-139.633"/>
<polygon fill="midnightblue" stroke="midnightblue" points="1847.4,-143.107 1857.08,-138.806 1846.83,-136.131 1847.4,-143.107"/>
</g>
<!-- Node15&#45;&gt;Node11 -->
<g id="edge21" class="edge"><title>Node15&#45;&gt;Node11</title>
<path fill="none" stroke="midnightblue" d="M1246.41,-179.069C1233.56,-164.605 1205.95,-136.334 1176,-123 1121.97,-98.9488 951.345,-82.5547 869.561,-75.871"/>
<polygon fill="midnightblue" stroke="midnightblue" points="869.35,-72.3427 859.101,-75.0296 868.789,-79.3202 869.35,-72.3427"/>
</g>
<!-- Node15&#45;&gt;Node13 -->
<g id="edge20" class="edge"><title>Node15&#45;&gt;Node13</title>
<path fill="none" stroke="midnightblue" d="M1216.29,-179.484C1153.23,-165.555 1022.21,-137.956 910,-123 675.819,-91.7873 390.967,-77.7479 297.411,-73.7539"/>
<polygon fill="midnightblue" stroke="midnightblue" points="297.351,-70.2484 287.213,-73.3263 297.057,-77.2423 297.351,-70.2484"/>
</g>
<!-- Node16 -->
<g id="node16" class="node"><title>Node16</title>
<polygon fill="white" stroke="#bfbfbf" points="1230.5,-123.5 1230.5,-142.5 1277.5,-142.5 1277.5,-123.5 1230.5,-123.5"/>
<text text-anchor="middle" x="1254" y="-130.5" font-family="Helvetica,sans-Serif" font-size="10.00">cstdlib</text>
</g>
<!-- Node15&#45;&gt;Node16 -->
<g id="edge19" class="edge"><title>Node15&#45;&gt;Node16</title>
<path fill="none" stroke="midnightblue" d="M1254,-179.083C1254,-172.006 1254,-161.861 1254,-152.986"/>
<polygon fill="midnightblue" stroke="midnightblue" points="1257.5,-152.751 1254,-142.751 1250.5,-152.751 1257.5,-152.751"/>
</g>
<!-- Node20&#45;&gt;Node4 -->
<g id="edge28" class="edge"><title>Node20&#45;&gt;Node4</title>
<path fill="none" stroke="midnightblue" d="M1859.4,-235.495C1820.64,-209.32 1702.4,-129.485 1647.09,-92.1435"/>
<polygon fill="midnightblue" stroke="midnightblue" points="1649.03,-89.2252 1638.78,-86.53 1645.11,-95.0266 1649.03,-89.2252"/>
</g>
<!-- Node20&#45;&gt;Node10 -->
<g id="edge29" class="edge"><title>Node20&#45;&gt;Node10</title>
<path fill="none" stroke="midnightblue" d="M1875.45,-235.368C1882.62,-217.456 1899.23,-175.923 1908.82,-151.948"/>
<polygon fill="midnightblue" stroke="midnightblue" points="1912.1,-153.176 1912.56,-142.591 1905.6,-150.576 1912.1,-153.176"/>
</g>
<!-- Node20&#45;&gt;Node13 -->
<g id="edge37" class="edge"><title>Node20&#45;&gt;Node13</title>
<path fill="none" stroke="midnightblue" d="M1838.81,-235.5C1787.41,-222.476 1685.35,-197.186 1598,-179 1460.07,-150.285 1425.98,-138.96 1286,-123 1087.29,-100.342 446.649,-78.3997 297.32,-73.5085"/>
<polygon fill="midnightblue" stroke="midnightblue" points="297.156,-70.0013 287.047,-73.1736 296.927,-76.9976 297.156,-70.0013"/>
</g>
<!-- Node20&#45;&gt;Node14 -->
<g id="edge35" class="edge"><title>Node20&#45;&gt;Node14</title>
<path fill="none" stroke="midnightblue" d="M1933.62,-238.997C2072.1,-227.718 2396.05,-201.123 2398,-199 2414.36,-181.178 2401.4,-142.772 2380,-123 2354.24,-99.2026 2255.21,-83.5499 2201.36,-76.6103"/>
<polygon fill="midnightblue" stroke="midnightblue" points="2201.59,-73.1113 2191.23,-75.3387 2200.71,-80.0568 2201.59,-73.1113"/>
</g>
<!-- Node20&#45;&gt;Node18 -->
<g id="edge36" class="edge"><title>Node20&#45;&gt;Node18</title>
<path fill="none" stroke="midnightblue" d="M1810.36,-238.623C1794.6,-237.34 1777.68,-236.042 1762,-235 1432.66,-213.111 1033.36,-196.153 915.975,-191.363"/>
<polygon fill="midnightblue" stroke="midnightblue" points="915.95,-187.86 905.816,-190.951 915.666,-194.854 915.95,-187.86"/>
</g>
<!-- Node21 -->
<g id="node21" class="node"><title>Node21</title>
<g id="a_node21"><a xlink:href="serializer_8h.html" target="_top" xlink:title="Serializer extension to support TVM data types Include this file to enable serialization of DLDataTyp...">
<polygon fill="white" stroke="black" points="2259,-179.5 2259,-198.5 2389,-198.5 2389,-179.5 2259,-179.5"/>
<text text-anchor="middle" x="2324" y="-186.5" font-family="Helvetica,sans-Serif" font-size="10.00">tvm/runtime/serializer.h</text>
</a>
</g>
</g>
<!-- Node20&#45;&gt;Node21 -->
<g id="edge30" class="edge"><title>Node20&#45;&gt;Node21</title>
<path fill="none" stroke="midnightblue" d="M1933.74,-236.032C2015.79,-225.947 2160.51,-208.654 2248.82,-198.378"/>
<polygon fill="midnightblue" stroke="midnightblue" points="2249.24,-201.853 2258.77,-197.222 2248.44,-194.9 2249.24,-201.853"/>
</g>
<!-- Node21&#45;&gt;Node4 -->
<g id="edge33" class="edge"><title>Node21&#45;&gt;Node4</title>
<path fill="none" stroke="midnightblue" d="M2305.51,-179.456C2273.68,-165.161 2206.16,-136.626 2146,-123 1986.89,-86.9615 1795.12,-76.6178 1692.11,-73.6647"/>
<polygon fill="midnightblue" stroke="midnightblue" points="1691.9,-70.158 1681.81,-73.3859 1691.71,-77.1554 1691.9,-70.158"/>
</g>
<!-- Node21&#45;&gt;Node9 -->
<g id="edge31" class="edge"><title>Node21&#45;&gt;Node9</title>
<path fill="none" stroke="midnightblue" d="M2289.62,-179.444C2250.84,-169.793 2187.86,-154.121 2146.93,-143.937"/>
<polygon fill="midnightblue" stroke="midnightblue" points="2147.58,-140.492 2137.03,-141.473 2145.89,-147.284 2147.58,-140.492"/>
</g>
<!-- Node21&#45;&gt;Node20 -->
<g id="edge34" class="edge"><title>Node21&#45;&gt;Node20</title>
<path fill="none" stroke="midnightblue" d="M2258.94,-198.376C2175.32,-208.64 2030.77,-225.906 1943.95,-235.997"/>
<polygon fill="midnightblue" stroke="midnightblue" points="1943.45,-232.532 1933.92,-237.161 1944.26,-239.485 1943.45,-232.532"/>
</g>
<!-- Node22 -->
<g id="node22" class="node"><title>Node22</title>
<polygon fill="white" stroke="#bfbfbf" points="2277,-123.5 2277,-142.5 2371,-142.5 2371,-123.5 2277,-123.5"/>
<text text-anchor="middle" x="2324" y="-130.5" font-family="Helvetica,sans-Serif" font-size="10.00">dmlc/serializer.h</text>
</g>
<!-- Node21&#45;&gt;Node22 -->
<g id="edge32" class="edge"><title>Node21&#45;&gt;Node22</title>
<path fill="none" stroke="midnightblue" d="M2324,-179.083C2324,-172.006 2324,-161.861 2324,-152.986"/>
<polygon fill="midnightblue" stroke="midnightblue" points="2327.5,-152.751 2324,-142.751 2320.5,-152.751 2327.5,-152.751"/>
</g>
<!-- Node23&#45;&gt;Node3 -->
<g id="edge40" class="edge"><title>Node23&#45;&gt;Node3</title>
<path fill="none" stroke="midnightblue" d="M2465.61,-235.438C2511.31,-228.114 2566.85,-216.038 2583,-199 2610.72,-169.755 2611.3,-118.98 2609.22,-91.4912"/>
<polygon fill="midnightblue" stroke="midnightblue" points="2612.68,-90.8857 2608.24,-81.2669 2605.71,-91.5562 2612.68,-90.8857"/>
</g>
<!-- Node23&#45;&gt;Node4 -->
<g id="edge39" class="edge"><title>Node23&#45;&gt;Node4</title>
<path fill="none" stroke="midnightblue" d="M2447.96,-235.43C2485.51,-227.63 2533.27,-214.916 2545,-199 2565.03,-171.805 2568.23,-147.526 2545,-123 2530.37,-107.547 1908.52,-83.2053 1691.67,-75.171"/>
<polygon fill="midnightblue" stroke="midnightblue" points="1691.77,-71.6726 1681.65,-74.8008 1691.52,-78.6678 1691.77,-71.6726"/>
</g>
<!-- Node23&#45;&gt;Node11 -->
<g id="edge41" class="edge"><title>Node23&#45;&gt;Node11</title>
<path fill="none" stroke="midnightblue" d="M2401.95,-235.315C2406.55,-212.271 2415.19,-149.537 2380,-123 2364.5,-111.313 1122.24,-79.877 869.556,-73.5995"/>
<polygon fill="midnightblue" stroke="midnightblue" points="869.37,-70.0939 859.286,-73.3447 869.196,-77.0918 869.37,-70.0939"/>
</g>
<!-- Node23&#45;&gt;Node12 -->
<g id="edge42" class="edge"><title>Node23&#45;&gt;Node12</title>
<path fill="none" stroke="midnightblue" d="M2465.43,-235.493C2530.18,-226.563 2624.47,-212.035 2659,-199 2719.47,-176.173 2722.67,-146.216 2783,-123 2865.06,-91.4186 2968.98,-79.1328 3020.7,-74.7305"/>
<polygon fill="midnightblue" stroke="midnightblue" points="3021.23,-78.1991 3030.92,-73.9066 3020.67,-71.2217 3021.23,-78.1991"/>
</g>
<!-- Node27&#45;&gt;Node12 -->
<g id="edge121" class="edge"><title>Node27&#45;&gt;Node12</title>
<path fill="none" stroke="midnightblue" d="M510.552,-823.838C856.714,-810.095 2734.9,-735.164 2793,-725 2886.32,-708.674 2996,-754.734 2996,-660 2996,-660 2996,-660 2996,-602 2996,-435.863 3110,-412.137 3110,-246 3110,-246 3110,-246 3110,-188 3110,-149.283 3083.93,-110.104 3067.05,-88.7979"/>
<polygon fill="midnightblue" stroke="midnightblue" points="3069.74,-86.5616 3060.69,-81.0574 3064.33,-91.0057 3069.74,-86.5616"/>
</g>
<!-- Node27&#45;&gt;Node13 -->
<g id="edge124" class="edge"><title>Node27&#45;&gt;Node13</title>
<path fill="none" stroke="midnightblue" d="M447.349,-817.345C390.786,-760.38 76,-437.519 76,-307.5 76,-307.5 76,-307.5 76,-188 76,-114.534 181.005,-86.4668 234.891,-76.9"/>
<polygon fill="midnightblue" stroke="midnightblue" points="235.652,-80.3216 244.941,-75.2254 234.501,-73.4168 235.652,-80.3216"/>
</g>
<!-- Node27&#45;&gt;Node18 -->
<g id="edge122" class="edge"><title>Node27&#45;&gt;Node18</title>
<path fill="none" stroke="midnightblue" d="M452.494,-817.325C445.397,-798.959 430,-754.658 430,-716 430,-716 430,-716 430,-658 430,-465.975 351.913,-331.378 518,-235 573.691,-202.683 768.558,-193.343 847.95,-190.845"/>
<polygon fill="midnightblue" stroke="midnightblue" points="848.468,-194.331 858.36,-190.536 848.26,-187.334 848.468,-194.331"/>
</g>
<!-- Node27&#45;&gt;Node28 -->
<g id="edge53" class="edge"><title>Node27&#45;&gt;Node28</title>
<path fill="none" stroke="midnightblue" d="M470.942,-817.324C485.585,-808.822 508.134,-795.729 525.238,-785.797"/>
<polygon fill="midnightblue" stroke="midnightblue" points="527.205,-788.703 534.095,-780.655 523.69,-782.649 527.205,-788.703"/>
</g>
<!-- Node29 -->
<g id="node29" class="node"><title>Node29</title>
<g id="a_node29"><a xlink:href="node_2container_8h.html" target="_top" xlink:title="Array/Map container in the DSL graph. ">
<polygon fill="white" stroke="black" points="1097.5,-414.5 1097.5,-433.5 1216.5,-433.5 1216.5,-414.5 1097.5,-414.5"/>
<text text-anchor="middle" x="1157" y="-421.5" font-family="Helvetica,sans-Serif" font-size="10.00">tvm/node/container.h</text>
</a>
</g>
</g>
<!-- Node27&#45;&gt;Node29 -->
<g id="edge56" class="edge"><title>Node27&#45;&gt;Node29</title>
<path fill="none" stroke="midnightblue" d="M458.846,-817.406C463.427,-804.368 473.328,-779.189 487,-761 618.02,-586.7 677.185,-544.818 882,-470 949.162,-445.466 1030.44,-434.261 1087.14,-429.173"/>
<polygon fill="midnightblue" stroke="midnightblue" points="1087.77,-432.632 1097.44,-428.292 1087.18,-425.657 1087.77,-432.632"/>
</g>
<!-- Node33 -->
<g id="node33" class="node"><title>Node33</title>
<g id="a_node33"><a xlink:href="ir_2expr_8h.html" target="_top" xlink:title="Base expr nodes in TVM. ">
<polygon fill="white" stroke="black" points="1374.5,-761.5 1374.5,-780.5 1451.5,-780.5 1451.5,-761.5 1374.5,-761.5"/>
<text text-anchor="middle" x="1413" y="-768.5" font-family="Helvetica,sans-Serif" font-size="10.00">tvm/ir/expr.h</text>
</a>
</g>
</g>
<!-- Node27&#45;&gt;Node33 -->
<g id="edge77" class="edge"><title>Node27&#45;&gt;Node33</title>
<path fill="none" stroke="midnightblue" d="M510.542,-822.922C680.968,-813.306 1201.8,-783.917 1364.15,-774.757"/>
<polygon fill="midnightblue" stroke="midnightblue" points="1364.53,-778.241 1374.32,-774.183 1364.13,-771.252 1364.53,-778.241"/>
</g>
<!-- Node27&#45;&gt;Node41 -->
<g id="edge123" class="edge"><title>Node27&#45;&gt;Node41</title>
<path fill="none" stroke="midnightblue" d="M404.503,-817.444C344.353,-807.449 245.335,-790.997 184.385,-780.87"/>
<polygon fill="midnightblue" stroke="midnightblue" points="184.643,-777.365 174.204,-779.179 183.495,-784.27 184.643,-777.365"/>
</g>
<!-- Node28&#45;&gt;Node3 -->
<g id="edge54" class="edge"><title>Node28&#45;&gt;Node3</title>
<path fill="none" stroke="midnightblue" d="M602.268,-769.287C899.174,-765.249 2343.51,-744.723 2541,-725 2694.52,-709.668 2882,-814.284 2882,-660 2882,-660 2882,-660 2882,-546 2882,-399.238 2868.04,-345.103 2771,-235 2720.86,-178.104 2655.25,-116.542 2624.42,-88.2928"/>
<polygon fill="midnightblue" stroke="midnightblue" points="2626.44,-85.3952 2616.7,-81.2399 2621.72,-90.5659 2626.44,-85.3952"/>
</g>
<!-- Node28&#45;&gt;Node13 -->
<g id="edge55" class="edge"><title>Node28&#45;&gt;Node13</title>
<path fill="none" stroke="midnightblue" d="M538.521,-761.454C491.225,-722.378 295.277,-555.014 187,-378 126.78,-279.551 73.0741,-218.411 138,-123 159.52,-91.3758 204.195,-79.5553 234.641,-75.1371"/>
<polygon fill="midnightblue" stroke="midnightblue" points="235.271,-78.5855 244.755,-73.8627 234.396,-71.6404 235.271,-78.5855"/>
</g>
<!-- Node29&#45;&gt;Node2 -->
<g id="edge59" class="edge"><title>Node29&#45;&gt;Node2</title>
<path fill="none" stroke="midnightblue" d="M1216.65,-418.942C1282.28,-413.504 1390.48,-401.66 1481,-378 1531.22,-364.873 1586.47,-341.871 1622.33,-325.72"/>
<polygon fill="midnightblue" stroke="midnightblue" points="1623.81,-328.893 1631.46,-321.566 1620.91,-322.521 1623.81,-328.893"/>
</g>
<!-- Node29&#45;&gt;Node10 -->
<g id="edge57" class="edge"><title>Node29&#45;&gt;Node10</title>
<path fill="none" stroke="midnightblue" d="M1152.35,-414.212C1140.96,-391.324 1114.57,-329.019 1143,-291 1227.23,-178.365 1673.95,-145.404 1847.23,-136.775"/>
<polygon fill="midnightblue" stroke="midnightblue" points="1847.44,-140.269 1857.26,-136.287 1847.1,-133.277 1847.44,-140.269"/>
</g>
<!-- Node29&#45;&gt;Node11 -->
<g id="edge71" class="edge"><title>Node29&#45;&gt;Node11</title>
<path fill="none" stroke="midnightblue" d="M1135.26,-414.477C1117.14,-406.705 1091.26,-394.007 1072,-378 985.141,-305.826 985.325,-266.557 914,-179 887.9,-146.961 856.827,-110.052 839.158,-89.1778"/>
<polygon fill="midnightblue" stroke="midnightblue" points="841.595,-86.64 832.46,-81.2742 836.255,-91.1659 841.595,-86.64"/>
</g>
<!-- Node29&#45;&gt;Node12 -->
<g id="edge76" class="edge"><title>Node29&#45;&gt;Node12</title>
<path fill="none" stroke="midnightblue" d="M1216.74,-419.1C1453.38,-403.172 2324.8,-339.86 2587,-255 2703.19,-217.396 2714,-166.794 2828,-123 2894.26,-97.5484 2976.65,-83.1292 3021.06,-76.6683"/>
<polygon fill="midnightblue" stroke="midnightblue" points="3021.57,-80.1314 3030.98,-75.2663 3020.59,-73.2003 3021.57,-80.1314"/>
</g>
<!-- Node29&#45;&gt;Node13 -->
<g id="edge75" class="edge"><title>Node29&#45;&gt;Node13</title>
<path fill="none" stroke="midnightblue" d="M1134.98,-414.336C1014.59,-366.98 436.519,-139.578 296.562,-84.5226"/>
<polygon fill="midnightblue" stroke="midnightblue" points="297.842,-81.265 287.255,-80.8612 295.28,-87.7791 297.842,-81.265"/>
</g>
<!-- Node29&#45;&gt;Node15 -->
<g id="edge58" class="edge"><title>Node29&#45;&gt;Node15</title>
<path fill="none" stroke="midnightblue" d="M1142.92,-414.259C1131.65,-406.355 1116.65,-393.584 1110,-378 1094.82,-342.44 1092.56,-325.511 1110,-291 1132.6,-246.283 1185.38,-217.397 1220.37,-202.419"/>
<polygon fill="midnightblue" stroke="midnightblue" points="1221.82,-205.608 1229.73,-198.561 1219.15,-199.136 1221.82,-205.608"/>
</g>
<!-- Node29&#45;&gt;Node18 -->
<g id="edge72" class="edge"><title>Node29&#45;&gt;Node18</title>
<path fill="none" stroke="midnightblue" d="M1145.3,-414.217C1133.48,-405.276 1114.77,-390.931 1099,-378 1023.36,-315.963 936.152,-238.548 899.575,-205.798"/>
<polygon fill="midnightblue" stroke="midnightblue" points="901.568,-202.884 891.786,-198.813 896.895,-208.095 901.568,-202.884"/>
</g>
<!-- Node29&#45;&gt;Node19 -->
<g id="edge74" class="edge"><title>Node29&#45;&gt;Node19</title>
<path fill="none" stroke="midnightblue" d="M1216.91,-422.744C1340.88,-420.434 1632.96,-405.717 1860,-322 1940.13,-292.451 2023.65,-233.111 2060.53,-205.186"/>
<polygon fill="midnightblue" stroke="midnightblue" points="2063.05,-207.659 2068.87,-198.801 2058.8,-202.102 2063.05,-207.659"/>
</g>
<!-- Node30 -->
<g id="node30" class="node"><title>Node30</title>
<g id="a_node30"><a xlink:href="runtime_2container_8h.html" target="_top" xlink:title="Common POD(plain old data) container types. ">
<polygon fill="white" stroke="black" points="1340,-358.5 1340,-377.5 1472,-377.5 1472,-358.5 1340,-358.5"/>
<text text-anchor="middle" x="1406" y="-365.5" font-family="Helvetica,sans-Serif" font-size="10.00">tvm/runtime/container.h</text>
</a>
</g>
</g>
<!-- Node29&#45;&gt;Node30 -->
<g id="edge60" class="edge"><title>Node29&#45;&gt;Node30</title>
<path fill="none" stroke="midnightblue" d="M1196.45,-414.444C1239.89,-405.023 1309.79,-389.866 1356.78,-379.675"/>
<polygon fill="midnightblue" stroke="midnightblue" points="1357.7,-383.056 1366.73,-377.516 1356.22,-376.215 1357.7,-383.056"/>
</g>
<!-- Node32 -->
<g id="node32" class="node"><title>Node32</title>
<polygon fill="white" stroke="#bfbfbf" points="1152.5,-297 1152.5,-316 1229.5,-316 1229.5,-297 1152.5,-297"/>
<text text-anchor="middle" x="1191" y="-304" font-family="Helvetica,sans-Serif" font-size="10.00">initializer_list</text>
</g>
<!-- Node29&#45;&gt;Node32 -->
<g id="edge73" class="edge"><title>Node29&#45;&gt;Node32</title>
<path fill="none" stroke="midnightblue" d="M1159.56,-414.319C1165.04,-395.673 1178.06,-351.443 1185.52,-326.132"/>
<polygon fill="midnightblue" stroke="midnightblue" points="1188.95,-326.863 1188.41,-316.282 1182.23,-324.887 1188.95,-326.863"/>
</g>
<!-- Node30&#45;&gt;Node2 -->
<g id="edge64" class="edge"><title>Node30&#45;&gt;Node2</title>
<path fill="none" stroke="midnightblue" d="M1442.54,-358.475C1482.09,-349.246 1546.01,-334.33 1594.52,-323.012"/>
<polygon fill="midnightblue" stroke="midnightblue" points="1595.37,-326.408 1604.31,-320.727 1593.78,-319.591 1595.37,-326.408"/>
</g>
<!-- Node30&#45;&gt;Node3 -->
<g id="edge61" class="edge"><title>Node30&#45;&gt;Node3</title>
<path fill="none" stroke="midnightblue" d="M1472.01,-362.289C1560.56,-355.552 1722.61,-341.756 1860,-322 1933.42,-311.443 1950.42,-300.4 2024,-291 2141.98,-275.928 2452.24,-309.417 2558,-255 2609.18,-228.667 2613.63,-199.785 2623,-143 2625.96,-125.04 2620.43,-104.803 2615.08,-90.6324"/>
<polygon fill="midnightblue" stroke="midnightblue" points="2618.21,-89.0343 2611.17,-81.1172 2611.74,-91.6968 2618.21,-89.0343"/>
</g>
<!-- Node30&#45;&gt;Node10 -->
<g id="edge63" class="edge"><title>Node30&#45;&gt;Node10</title>
<path fill="none" stroke="midnightblue" d="M1472.17,-363.741C1602.99,-355.711 1886.84,-329.86 1942,-255 1965.06,-223.71 1942.55,-176.225 1927.35,-151.055"/>
<polygon fill="midnightblue" stroke="midnightblue" points="1930.3,-149.166 1922,-142.581 1924.38,-152.905 1930.3,-149.166"/>
</g>
<!-- Node30&#45;&gt;Node11 -->
<g id="edge68" class="edge"><title>Node30&#45;&gt;Node11</title>
<path fill="none" stroke="midnightblue" d="M1401.4,-358.297C1392.81,-342.812 1372.95,-310.292 1348,-291 1271.73,-232.02 1037.04,-159.976 948,-123 916.382,-109.87 880.115,-95.0034 855.199,-84.8198"/>
<polygon fill="midnightblue" stroke="midnightblue" points="856.495,-81.5685 845.914,-81.0269 853.848,-88.0486 856.495,-81.5685"/>
</g>
<!-- Node30&#45;&gt;Node12 -->
<g id="edge67" class="edge"><title>Node30&#45;&gt;Node12</title>
<path fill="none" stroke="midnightblue" d="M1472.37,-365.376C1714.11,-358.471 2545.29,-325.801 2773,-199 2817.56,-174.184 2813.97,-146.97 2859,-123 2911.74,-94.9255 2980.98,-81.7951 3020.88,-76.1905"/>
<polygon fill="midnightblue" stroke="midnightblue" points="3021.39,-79.6535 3030.84,-74.863 3020.46,-72.7148 3021.39,-79.6535"/>
</g>
<!-- Node30&#45;&gt;Node13 -->
<g id="edge69" class="edge"><title>Node30&#45;&gt;Node13</title>
<path fill="none" stroke="midnightblue" d="M1387.59,-358.388C1347.2,-339.541 1253.23,-295.925 1238,-291 1161.62,-266.301 1139.46,-271.982 1061,-255 762.636,-190.422 403.034,-105.194 296.896,-79.8853"/>
<polygon fill="midnightblue" stroke="midnightblue" points="297.687,-76.4759 287.147,-77.5593 296.062,-83.2847 297.687,-76.4759"/>
</g>
<!-- Node30&#45;&gt;Node15 -->
<g id="edge62" class="edge"><title>Node30&#45;&gt;Node15</title>
<path fill="none" stroke="midnightblue" d="M1405.53,-358.281C1404.34,-343.329 1400.22,-312.349 1386,-291 1359.16,-250.69 1310.77,-219.823 1280.63,-203.344"/>
<polygon fill="midnightblue" stroke="midnightblue" points="1282.01,-200.112 1271.54,-198.505 1278.72,-206.292 1282.01,-200.112"/>
</g>
<!-- Node30&#45;&gt;Node18 -->
<g id="edge70" class="edge"><title>Node30&#45;&gt;Node18</title>
<path fill="none" stroke="midnightblue" d="M1397.91,-358.413C1382.43,-342.519 1346.85,-308.538 1310,-291 1243.4,-259.307 1219.83,-271.755 1148,-255 1064.19,-235.45 965.898,-211.046 915.515,-198.429"/>
<polygon fill="midnightblue" stroke="midnightblue" points="916.355,-195.031 905.804,-195.995 914.653,-201.821 916.355,-195.031"/>
</g>
<!-- Node31 -->
<g id="node31" class="node"><title>Node31</title>
<polygon fill="white" stroke="#bfbfbf" points="1438.5,-297 1438.5,-316 1487.5,-316 1487.5,-297 1438.5,-297"/>
<text text-anchor="middle" x="1463" y="-304" font-family="Helvetica,sans-Serif" font-size="10.00">cstring</text>
</g>
<!-- Node30&#45;&gt;Node31 -->
<g id="edge65" class="edge"><title>Node30&#45;&gt;Node31</title>
<path fill="none" stroke="midnightblue" d="M1414.17,-358.475C1422.89,-349.373 1436.9,-334.741 1447.69,-323.483"/>
<polygon fill="midnightblue" stroke="midnightblue" points="1450.46,-325.651 1454.85,-316.009 1445.4,-320.809 1450.46,-325.651"/>
</g>
<!-- Node30&#45;&gt;Node32 -->
<g id="edge66" class="edge"><title>Node30&#45;&gt;Node32</title>
<path fill="none" stroke="midnightblue" d="M1375.2,-358.475C1337.44,-348.026 1273.34,-330.287 1231.59,-318.733"/>
<polygon fill="midnightblue" stroke="midnightblue" points="1232.32,-315.303 1221.75,-316.009 1230.45,-322.05 1232.32,-315.303"/>
</g>
<!-- Node33&#45;&gt;Node10 -->
<g id="edge78" class="edge"><title>Node33&#45;&gt;Node10</title>
<path fill="none" stroke="midnightblue" d="M1451.61,-769.237C1559.39,-765.456 1869.46,-743.19 2081,-613 2134.22,-580.247 2133.3,-554.254 2166,-501 2230.33,-396.219 2306.93,-339.412 2242,-235 2222.9,-204.28 2200.83,-216.182 2169,-199 2153.57,-190.673 2151.36,-185.294 2135,-179 2086.43,-160.32 2028.68,-148.864 1984.67,-142.188"/>
<polygon fill="midnightblue" stroke="midnightblue" points="1985.06,-138.707 1974.65,-140.714 1984.04,-145.632 1985.06,-138.707"/>
</g>
<!-- Node33&#45;&gt;Node11 -->
<g id="edge120" class="edge"><title>Node33&#45;&gt;Node11</title>
<path fill="none" stroke="midnightblue" d="M1394.55,-761.312C1366.21,-748.153 1310.1,-722.817 1261,-705 1027.63,-620.321 917.408,-675.68 741,-501 642.835,-403.797 595.613,-385.745 551,-255 514.862,-149.091 694.273,-98.432 780.663,-80.4613"/>
<polygon fill="midnightblue" stroke="midnightblue" points="781.608,-83.8413 790.717,-78.4303 780.222,-76.9799 781.608,-83.8413"/>
</g>
<!-- Node33&#45;&gt;Node12 -->
<g id="edge117" class="edge"><title>Node33&#45;&gt;Node12</title>
<path fill="none" stroke="midnightblue" d="M1451.67,-769.3C1630.15,-765.954 2375.31,-750.681 2607,-725 2764.69,-707.522 2958,-818.652 2958,-660 2958,-660 2958,-660 2958,-484.5 2958,-367.013 3072,-363.487 3072,-246 3072,-246 3072,-246 3072,-188 3072,-153.405 3063.6,-113.745 3057.97,-91.0547"/>
<polygon fill="midnightblue" stroke="midnightblue" points="3061.29,-89.9237 3055.41,-81.1136 3054.51,-91.6707 3061.29,-89.9237"/>
</g>
<!-- Node33&#45;&gt;Node26 -->
<g id="edge119" class="edge"><title>Node33&#45;&gt;Node26</title>
<path fill="none" stroke="midnightblue" d="M1404.35,-761.14C1390.35,-747.285 1361.34,-720.477 1332,-705 1319.47,-698.392 855.836,-564.782 844,-557 719.111,-474.883 621.157,-316.343 590.803,-263.569"/>
<polygon fill="midnightblue" stroke="midnightblue" points="593.768,-261.701 585.788,-254.732 587.68,-265.156 593.768,-261.701"/>
</g>
<!-- Node33&#45;&gt;Node29 -->
<g id="edge105" class="edge"><title>Node33&#45;&gt;Node29</title>
<path fill="none" stroke="midnightblue" d="M1408.77,-761.104C1402.04,-747.674 1387.83,-721.987 1370,-705 1306.37,-644.377 1200,-691.884 1200,-604 1200,-604 1200,-604 1200,-546 1200,-507.354 1180.28,-465.565 1167.55,-442.609"/>
<polygon fill="midnightblue" stroke="midnightblue" points="1170.46,-440.651 1162.45,-433.726 1164.4,-444.14 1170.46,-440.651"/>
</g>
<!-- Node34 -->
<g id="node34" class="node"><title>Node34</title>
<g id="a_node34"><a xlink:href="node_8h.html" target="_top" xlink:title="Definitions and helper macros for IR/AST nodes. ">
<polygon fill="white" stroke="red" points="1353,-593.5 1353,-612.5 1451,-612.5 1451,-593.5 1353,-593.5"/>
<text text-anchor="middle" x="1402" y="-600.5" font-family="Helvetica,sans-Serif" font-size="10.00">tvm/node/node.h</text>
</a>
</g>
</g>
<!-- Node33&#45;&gt;Node34 -->
<g id="edge79" class="edge"><title>Node33&#45;&gt;Node34</title>
<path fill="none" stroke="midnightblue" d="M1412.41,-761.075C1410.68,-734.945 1405.59,-658.211 1403.23,-622.577"/>
<polygon fill="midnightblue" stroke="midnightblue" points="1406.72,-622.315 1402.57,-612.568 1399.74,-622.778 1406.72,-622.315"/>
</g>
<!-- Node38 -->
<g id="node38" class="node"><title>Node38</title>
<g id="a_node38"><a xlink:href="span_8h.html" target="_top" xlink:title="Span information for debugging purposes. ">
<polygon fill="white" stroke="black" points="2766,-649.5 2766,-668.5 2846,-668.5 2846,-649.5 2766,-649.5"/>
<text text-anchor="middle" x="2806" y="-656.5" font-family="Helvetica,sans-Serif" font-size="10.00">tvm/ir/span.h</text>
</a>
</g>
</g>
<!-- Node33&#45;&gt;Node38 -->
<g id="edge106" class="edge"><title>Node33&#45;&gt;Node38</title>
<path fill="none" stroke="midnightblue" d="M1451.57,-769.5C1623.82,-767.109 2323.77,-755.658 2541,-725 2623.72,-713.326 2718.23,-686.891 2769.03,-671.571"/>
<polygon fill="midnightblue" stroke="midnightblue" points="2770.34,-674.831 2778.89,-668.571 2768.3,-668.134 2770.34,-674.831"/>
</g>
<!-- Node39 -->
<g id="node39" class="node"><title>Node39</title>
<g id="a_node39"><a xlink:href="ir_2type_8h.html" target="_top" xlink:title="IR/AST nodes for the unified type system in TVM. ">
<polygon fill="white" stroke="black" points="2455.5,-705.5 2455.5,-724.5 2532.5,-724.5 2532.5,-705.5 2455.5,-705.5"/>
<text text-anchor="middle" x="2494" y="-712.5" font-family="Helvetica,sans-Serif" font-size="10.00">tvm/ir/type.h</text>
</a>
</g>
</g>
<!-- Node33&#45;&gt;Node39 -->
<g id="edge110" class="edge"><title>Node33&#45;&gt;Node39</title>
<path fill="none" stroke="midnightblue" d="M1451.79,-768.062C1617.06,-759.807 2262.27,-727.576 2445.33,-718.431"/>
<polygon fill="midnightblue" stroke="midnightblue" points="2445.65,-721.92 2455.47,-717.925 2445.3,-714.928 2445.65,-721.92"/>
</g>
<!-- Node40 -->
<g id="node40" class="node"><title>Node40</title>
<polygon fill="white" stroke="#bfbfbf" points="1190,-705.5 1190,-724.5 1252,-724.5 1252,-705.5 1190,-705.5"/>
<text text-anchor="middle" x="1221" y="-712.5" font-family="Helvetica,sans-Serif" font-size="10.00">algorithm</text>
</g>
<!-- Node33&#45;&gt;Node40 -->
<g id="edge118" class="edge"><title>Node33&#45;&gt;Node40</title>
<path fill="none" stroke="midnightblue" d="M1382.58,-761.444C1349.72,-752.201 1297.22,-737.436 1261.03,-727.257"/>
<polygon fill="midnightblue" stroke="midnightblue" points="1261.85,-723.855 1251.28,-724.516 1259.96,-730.593 1261.85,-723.855"/>
</g>
<!-- Node34&#45;&gt;Node4 -->
<g id="edge80" class="edge"><title>Node34&#45;&gt;Node4</title>
<path fill="none" stroke="midnightblue" d="M1352.6,-594.238C1311.55,-586.999 1252.01,-574.651 1202,-557 1157.39,-541.254 820,-416.306 820,-369 820,-369 820,-369 820,-305.5 820,-247.819 806.695,-218.209 849,-179 949.073,-86.2518 1371.86,-73.5943 1544.31,-72.3563"/>
<polygon fill="midnightblue" stroke="midnightblue" points="1544.33,-75.8563 1554.31,-72.2954 1544.29,-68.8565 1544.33,-75.8563"/>
</g>
<!-- Node34&#45;&gt;Node10 -->
<g id="edge82" class="edge"><title>Node34&#45;&gt;Node10</title>
<path fill="none" stroke="midnightblue" d="M1451.22,-602.392C1581.31,-602.15 1927.85,-592.777 1980,-501 2050.73,-376.527 2039.12,-304.921 1971,-179 1964.1,-166.242 1951.94,-155.711 1940.8,-148.053"/>
<polygon fill="midnightblue" stroke="midnightblue" points="1942.52,-144.995 1932.21,-142.539 1938.73,-150.886 1942.52,-144.995"/>
</g>
<!-- Node34&#45;&gt;Node11 -->
<g id="edge104" class="edge"><title>Node34&#45;&gt;Node11</title>
<path fill="none" stroke="midnightblue" d="M1352.99,-597.853C1252.32,-587.103 1019.03,-550.482 868,-434 779.653,-365.863 734.26,-358.256 692,-255 662.964,-184.054 755.871,-115.018 801.383,-86.3625"/>
<polygon fill="midnightblue" stroke="midnightblue" points="803.374,-89.2469 810.059,-81.0274 799.707,-83.2841 803.374,-89.2469"/>
</g>
<!-- Node34&#45;&gt;Node12 -->
<g id="edge101" class="edge"><title>Node34&#45;&gt;Node12</title>
<path fill="none" stroke="midnightblue" d="M1451.28,-599.837C1544.82,-595.279 1754.38,-582.902 1929,-557 2189.23,-518.401 2265.44,-535.84 2508,-434 2566.64,-409.382 2940.05,-150.982 3032.38,-86.8455"/>
<polygon fill="midnightblue" stroke="midnightblue" points="3034.43,-89.6815 3040.65,-81.1003 3030.44,-83.9335 3034.43,-89.6815"/>
</g>
<!-- Node34&#45;&gt;Node13 -->
<g id="edge103" class="edge"><title>Node34&#45;&gt;Node13</title>
<path fill="none" stroke="midnightblue" d="M1352.78,-601.153C1197.36,-596.004 709.937,-560.634 415,-322 334.753,-257.072 287.603,-136.562 271.903,-90.7845"/>
<polygon fill="midnightblue" stroke="midnightblue" points="275.218,-89.6611 268.733,-81.283 268.578,-91.8767 275.218,-89.6611"/>
</g>
<!-- Node34&#45;&gt;Node15 -->
<g id="edge83" class="edge"><title>Node34&#45;&gt;Node15</title>
<path fill="none" stroke="midnightblue" d="M1357.83,-593.452C1286.16,-576.927 1146.64,-533.101 1088,-434 1041.72,-355.789 1062.99,-290.434 1135,-235 1155.51,-219.215 1182.17,-208.453 1205.06,-201.422"/>
<polygon fill="midnightblue" stroke="midnightblue" points="1206.32,-204.701 1214.94,-198.542 1204.36,-197.98 1206.32,-204.701"/>
</g>
<!-- Node34&#45;&gt;Node18 -->
<g id="edge102" class="edge"><title>Node34&#45;&gt;Node18</title>
<path fill="none" stroke="midnightblue" d="M1384.31,-593.404C1366.08,-584.492 1336.91,-570.06 1312,-557 1211.41,-504.26 1176.88,-504.712 1088,-434 1035.78,-392.453 1031.13,-372.922 988,-322 953.657,-281.451 914.953,-232.339 895.177,-206.983"/>
<polygon fill="midnightblue" stroke="midnightblue" points="897.694,-204.519 888.791,-198.776 892.17,-208.818 897.694,-204.519"/>
</g>
<!-- Node34&#45;&gt;Node29 -->
<g id="edge99" class="edge"><title>Node34&#45;&gt;Node29</title>
<path fill="none" stroke="midnightblue" d="M1390.18,-593.463C1351.22,-565.314 1226.49,-475.205 1177.26,-439.638"/>
<polygon fill="midnightblue" stroke="midnightblue" points="1179.14,-436.678 1168.99,-433.659 1175.04,-442.352 1179.14,-436.678"/>
</g>
<!-- Node34&#45;&gt;Node30 -->
<g id="edge81" class="edge"><title>Node34&#45;&gt;Node30</title>
<path fill="none" stroke="midnightblue" d="M1402.15,-593.431C1402.73,-559.754 1404.85,-435.994 1405.67,-388.102"/>
<polygon fill="midnightblue" stroke="midnightblue" points="1409.18,-387.954 1405.85,-377.896 1402.18,-387.834 1409.18,-387.954"/>
</g>
<!-- Node35 -->
<g id="node35" class="node"><title>Node35</title>
<g id="a_node35"><a xlink:href="reflection_8h.html" target="_top" xlink:title="Reflection and serialization of compiler IR/AST nodes. ">
<polygon fill="white" stroke="red" points="1582.5,-537.5 1582.5,-556.5 1701.5,-556.5 1701.5,-537.5 1582.5,-537.5"/>
<text text-anchor="middle" x="1642" y="-544.5" font-family="Helvetica,sans-Serif" font-size="10.00">tvm/node/reflection.h</text>
</a>
</g>
</g>
<!-- Node34&#45;&gt;Node35 -->
<g id="edge84" class="edge"><title>Node34&#45;&gt;Node35</title>
<path fill="none" stroke="midnightblue" d="M1440.03,-593.444C1481.81,-584.043 1548.98,-568.929 1594.27,-558.739"/>
<polygon fill="midnightblue" stroke="midnightblue" points="1595.16,-562.126 1604.15,-556.516 1593.62,-555.297 1595.16,-562.126"/>
</g>
<!-- Node36 -->
<g id="node36" class="node"><title>Node36</title>
<g id="a_node36"><a xlink:href="structural__equal_8h.html" target="_top" xlink:title="Structural equality comparison. ">
<polygon fill="white" stroke="red" points="1860.5,-470.5 1860.5,-500.5 1971.5,-500.5 1971.5,-470.5 1860.5,-470.5"/>
<text text-anchor="start" x="1868.5" y="-488.5" font-family="Helvetica,sans-Serif" font-size="10.00">tvm/node/structural</text>
<text text-anchor="middle" x="1916" y="-477.5" font-family="Helvetica,sans-Serif" font-size="10.00">_equal.h</text>
</a>
</g>
</g>
<!-- Node34&#45;&gt;Node36 -->
<g id="edge100" class="edge"><title>Node34&#45;&gt;Node36</title>
<path fill="none" stroke="midnightblue" d="M1451.05,-601.885C1554.14,-600.893 1789.53,-594.459 1859,-557 1878.69,-546.384 1894.08,-525.83 1903.88,-509.642"/>
<polygon fill="midnightblue" stroke="midnightblue" points="1907.06,-511.14 1909,-500.724 1900.99,-507.657 1907.06,-511.14"/>
</g>
<!-- Node37 -->
<g id="node37" class="node"><title>Node37</title>
<g id="a_node37"><a xlink:href="repr__printer_8h.html" target="_top" xlink:title="Printer class to print repr string of each AST/IR nodes. ">
<polygon fill="white" stroke="red" points="1720,-537.5 1720,-556.5 1850,-556.5 1850,-537.5 1720,-537.5"/>
<text text-anchor="middle" x="1785" y="-544.5" font-family="Helvetica,sans-Serif" font-size="10.00">tvm/node/repr_printer.h</text>
</a>
</g>
</g>
<!-- Node34&#45;&gt;Node37 -->
<g id="edge98" class="edge"><title>Node34&#45;&gt;Node37</title>
<path fill="none" stroke="midnightblue" d="M1451.29,-595.051C1518.19,-585.619 1638.14,-568.706 1714.54,-557.935"/>
<polygon fill="midnightblue" stroke="midnightblue" points="1715.14,-561.384 1724.55,-556.522 1714.16,-554.453 1715.14,-561.384"/>
</g>
<!-- Node35&#45;&gt;Node2 -->
<g id="edge88" class="edge"><title>Node35&#45;&gt;Node2</title>
<path fill="none" stroke="midnightblue" d="M1642.7,-537.229C1645.36,-503.805 1654.93,-383.692 1659.07,-331.734"/>
<polygon fill="midnightblue" stroke="midnightblue" points="1662.56,-331.983 1659.87,-321.737 1655.58,-331.427 1662.56,-331.983"/>
</g>
<!-- Node35&#45;&gt;Node4 -->
<g id="edge85" class="edge"><title>Node35&#45;&gt;Node4</title>
<path fill="none" stroke="midnightblue" d="M1637.16,-537.254C1616.28,-498.846 1534.24,-340.735 1518,-199 1514.08,-164.794 1512.21,-150.446 1533,-123 1543.03,-109.755 1557.63,-99.3063 1571.91,-91.4329"/>
<polygon fill="midnightblue" stroke="midnightblue" points="1573.92,-94.3324 1581.19,-86.6272 1570.7,-88.1158 1573.92,-94.3324"/>
</g>
<!-- Node35&#45;&gt;Node10 -->
<g id="edge86" class="edge"><title>Node35&#45;&gt;Node10</title>
<path fill="none" stroke="midnightblue" d="M1659.04,-537.399C1715.67,-507.71 1897.55,-403.158 1961,-255 1967.92,-238.84 1960.65,-196.362 1953,-179 1948.23,-168.171 1940.09,-157.841 1932.66,-149.816"/>
<polygon fill="midnightblue" stroke="midnightblue" points="1935.11,-147.319 1925.61,-142.625 1930.11,-152.218 1935.11,-147.319"/>
</g>
<!-- Node35&#45;&gt;Node11 -->
<g id="edge97" class="edge"><title>Node35&#45;&gt;Node11</title>
<path fill="none" stroke="midnightblue" d="M1582.1,-544.893C1476.29,-540.632 1252.01,-521.105 1088,-434 956.435,-364.126 919.196,-330.394 849,-199 830.366,-164.121 826.025,-117.039 825.121,-91.2758"/>
<polygon fill="midnightblue" stroke="midnightblue" points="828.616,-90.9842 824.909,-81.0592 821.617,-91.1298 828.616,-90.9842"/>
</g>
<!-- Node35&#45;&gt;Node12 -->
<g id="edge96" class="edge"><title>Node35&#45;&gt;Node12</title>
<path fill="none" stroke="midnightblue" d="M1701.72,-538.164C1796.94,-525.652 1973.25,-502.416 1980,-501 2372.79,-418.625 2486.98,-405.689 2831,-199 2882.88,-167.829 2891.27,-152.703 2944,-123 2969.8,-108.467 3000.51,-94.52 3022.75,-84.9797"/>
<polygon fill="midnightblue" stroke="midnightblue" points="3024.18,-88.1737 3032.02,-81.0463 3021.45,-81.7296 3024.18,-88.1737"/>
</g>
<!-- Node35&#45;&gt;Node15 -->
<g id="edge87" class="edge"><title>Node35&#45;&gt;Node15</title>
<path fill="none" stroke="midnightblue" d="M1604.8,-537.438C1575.85,-529.982 1535.16,-517.733 1502,-501 1418.42,-458.829 1388.99,-451.497 1331,-378 1288.81,-324.531 1266.46,-244.759 1258.02,-208.787"/>
<polygon fill="midnightblue" stroke="midnightblue" points="1261.37,-207.725 1255.76,-198.736 1254.54,-209.26 1261.37,-207.725"/>
</g>
<!-- Node35&#45;&gt;Node18 -->
<g id="edge95" class="edge"><title>Node35&#45;&gt;Node18</title>
<path fill="none" stroke="midnightblue" d="M1620.91,-537.382C1585.04,-521.16 1516,-482.472 1516,-425 1516,-425 1516,-425 1516,-367 1516,-332.072 1521.83,-314.506 1496,-291 1485.05,-281.033 1042.15,-214.005 915.504,-195.009"/>
<polygon fill="midnightblue" stroke="midnightblue" points="915.998,-191.544 905.59,-193.523 914.961,-198.467 915.998,-191.544"/>
</g>
<!-- Node35&#45;&gt;Node20 -->
<g id="edge89" class="edge"><title>Node35&#45;&gt;Node20</title>
<path fill="none" stroke="midnightblue" d="M1648.64,-537.345C1680.31,-496.029 1816.36,-318.568 1859.1,-262.824"/>
<polygon fill="midnightblue" stroke="midnightblue" points="1862.03,-264.756 1865.34,-254.69 1856.48,-260.497 1862.03,-264.756"/>
</g>
<!-- Node35&#45;&gt;Node23 -->
<g id="edge90" class="edge"><title>Node35&#45;&gt;Node23</title>
<path fill="none" stroke="midnightblue" d="M1691.58,-537.429C1725.47,-530.417 1770.8,-518.726 1808,-501 1829.27,-490.865 1830.44,-481.501 1851,-470 2031.31,-369.15 2087.91,-367.061 2280,-291 2309.27,-279.409 2342.85,-266.883 2367.03,-257.997"/>
<polygon fill="midnightblue" stroke="midnightblue" points="2368.26,-261.271 2376.45,-254.543 2365.86,-254.698 2368.26,-261.271"/>
</g>
<!-- Node35&#45;&gt;Node36 -->
<g id="edge91" class="edge"><title>Node35&#45;&gt;Node36</title>
<path fill="none" stroke="midnightblue" d="M1681.26,-537.475C1725.4,-527.89 1797.78,-512.173 1850.51,-500.721"/>
<polygon fill="midnightblue" stroke="midnightblue" points="1851.42,-504.105 1860.45,-498.563 1849.94,-497.265 1851.42,-504.105"/>
</g>
<!-- Node36&#45;&gt;Node12 -->
<g id="edge94" class="edge"><title>Node36&#45;&gt;Node12</title>
<path fill="none" stroke="midnightblue" d="M1971.66,-474.507C2116,-446.959 2511.26,-361.021 2801,-199 2851.28,-170.883 2854.87,-149.537 2906,-123 2943.66,-103.456 2990.51,-88.8701 3021.05,-80.5239"/>
<polygon fill="midnightblue" stroke="midnightblue" points="3021.99,-83.8959 3030.75,-77.9345 3020.19,-77.1329 3021.99,-83.8959"/>
</g>
<!-- Node36&#45;&gt;Node23 -->
<g id="edge92" class="edge"><title>Node36&#45;&gt;Node23</title>
<path fill="none" stroke="midnightblue" d="M1951.95,-470.473C2018.22,-444.179 2163.51,-384.468 2280,-322 2316.07,-302.658 2355.81,-276.452 2379.3,-260.411"/>
<polygon fill="midnightblue" stroke="midnightblue" points="2381.49,-263.151 2387.75,-254.601 2377.52,-257.383 2381.49,-263.151"/>
</g>
<!-- Node36&#45;&gt;Node29 -->
<g id="edge93" class="edge"><title>Node36&#45;&gt;Node29</title>
<path fill="none" stroke="midnightblue" d="M1860.5,-480.149C1724.7,-469.503 1375.94,-442.163 1226.58,-430.454"/>
<polygon fill="midnightblue" stroke="midnightblue" points="1226.85,-426.965 1216.6,-429.673 1226.3,-433.943 1226.85,-426.965"/>
</g>
<!-- Node38&#45;&gt;Node10 -->
<g id="edge107" class="edge"><title>Node38&#45;&gt;Node10</title>
<path fill="none" stroke="midnightblue" d="M2806,-649.442C2806,-630.936 2806,-585.812 2806,-548 2806,-548 2806,-548 2806,-367 2806,-302.184 2797.41,-271.716 2744,-235 2653.29,-172.649 2356.54,-226.663 2250,-199 2229.6,-193.703 2227.17,-185.116 2207,-179 2132.89,-156.53 2044.59,-144.896 1984.85,-139.141"/>
<polygon fill="midnightblue" stroke="midnightblue" points="1985.05,-135.646 1974.77,-138.201 1984.4,-142.615 1985.05,-135.646"/>
</g>
<!-- Node38&#45;&gt;Node12 -->
<g id="edge109" class="edge"><title>Node38&#45;&gt;Node12</title>
<path fill="none" stroke="midnightblue" d="M2809.27,-649.126C2831.92,-587.845 2965.99,-226.835 3020,-123 3026.08,-111.312 3034.15,-98.9164 3040.79,-89.3312"/>
<polygon fill="midnightblue" stroke="midnightblue" points="3043.69,-91.3015 3046.61,-81.1172 3037.97,-87.2572 3043.69,-91.3015"/>
</g>
<!-- Node38&#45;&gt;Node34 -->
<g id="edge108" class="edge"><title>Node38&#45;&gt;Node34</title>
<path fill="none" stroke="midnightblue" d="M2765.87,-656.457C2568.13,-648.851 1697.52,-615.366 1461.31,-606.281"/>
<polygon fill="midnightblue" stroke="midnightblue" points="1461.32,-602.779 1451.2,-605.892 1461.06,-609.774 1461.32,-602.779"/>
</g>
<!-- Node39&#45;&gt;Node10 -->
<g id="edge111" class="edge"><title>Node39&#45;&gt;Node10</title>
<path fill="none" stroke="midnightblue" d="M2516.95,-705.485C2552.29,-690.711 2616,-656.76 2616,-604 2616,-604 2616,-604 2616,-423 2616,-335.558 2625.61,-290.449 2558,-235 2497.37,-185.279 2282.06,-221.672 2207,-199 2188.73,-193.481 2187.05,-185.189 2169,-179 2108.47,-158.249 2036.34,-146.624 1984.62,-140.414"/>
<polygon fill="midnightblue" stroke="midnightblue" points="1984.89,-136.922 1974.55,-139.242 1984.08,-143.875 1984.89,-136.922"/>
</g>
<!-- Node39&#45;&gt;Node12 -->
<g id="edge116" class="edge"><title>Node39&#45;&gt;Node12</title>
<path fill="none" stroke="midnightblue" d="M2532.54,-712.346C2613.59,-708.363 2798.83,-696.462 2855,-669 2891.7,-651.057 2920,-644.855 2920,-604 2920,-604 2920,-604 2920,-484.5 2920,-367.013 3034,-363.487 3034,-246 3034,-246 3034,-246 3034,-188 3034,-153.405 3042.4,-113.745 3048.03,-91.0547"/>
<polygon fill="midnightblue" stroke="midnightblue" points="3051.49,-91.6707 3050.59,-81.1136 3044.71,-89.9237 3051.49,-91.6707"/>
</g>
<!-- Node39&#45;&gt;Node23 -->
<g id="edge112" class="edge"><title>Node39&#45;&gt;Node23</title>
<path fill="none" stroke="midnightblue" d="M2494,-705.442C2494,-686.936 2494,-641.812 2494,-604 2494,-604 2494,-604 2494,-367 2494,-320.194 2449.59,-280.567 2421.82,-260.363"/>
<polygon fill="midnightblue" stroke="midnightblue" points="2423.66,-257.379 2413.47,-254.501 2419.64,-263.11 2423.66,-257.379"/>
</g>
<!-- Node39&#45;&gt;Node29 -->
<g id="edge114" class="edge"><title>Node39&#45;&gt;Node29</title>
<path fill="none" stroke="midnightblue" d="M2455.45,-709.374C2328.25,-693.696 1910.72,-638.948 1573,-557 1427.72,-521.748 1259.28,-462.429 1189.67,-437.079"/>
<polygon fill="midnightblue" stroke="midnightblue" points="1190.73,-433.738 1180.14,-433.592 1188.33,-440.312 1190.73,-433.738"/>
</g>
<!-- Node39&#45;&gt;Node34 -->
<g id="edge113" class="edge"><title>Node39&#45;&gt;Node34</title>
<path fill="none" stroke="midnightblue" d="M2455.46,-710.117C2292.49,-693.702 1659.37,-629.925 1461.46,-609.99"/>
<polygon fill="midnightblue" stroke="midnightblue" points="1461.56,-606.482 1451.26,-608.962 1460.86,-613.447 1461.56,-606.482"/>
</g>
<!-- Node39&#45;&gt;Node38 -->
<g id="edge115" class="edge"><title>Node39&#45;&gt;Node38</title>
<path fill="none" stroke="midnightblue" d="M2532.57,-707.324C2588.79,-697.595 2693.29,-679.507 2755.55,-668.731"/>
<polygon fill="midnightblue" stroke="midnightblue" points="2756.29,-672.156 2765.54,-667.002 2755.09,-665.259 2756.29,-672.156"/>
</g>
<!-- Node42&#45;&gt;Node12 -->
<g id="edge150" class="edge"><title>Node42&#45;&gt;Node12</title>
<path fill="none" stroke="midnightblue" d="M1459.07,-937.657C1744.5,-935.439 3260.68,-922.293 3298,-893 3402.65,-810.851 3376,-737.04 3376,-604 3376,-604 3376,-604 3376,-188 3376,-157.205 3375.71,-142.655 3352,-123 3311.8,-89.6711 3154.34,-77.6711 3085.51,-73.9578"/>
<polygon fill="midnightblue" stroke="midnightblue" points="3085.42,-70.4487 3075.25,-73.431 3085.06,-77.4395 3085.42,-70.4487"/>
</g>
<!-- Node42&#45;&gt;Node18 -->
<g id="edge151" class="edge"><title>Node42&#45;&gt;Node18</title>
<path fill="none" stroke="midnightblue" d="M1366.97,-933.586C1256.79,-923.03 969.2,-895.528 729,-873 685.783,-868.947 369.245,-869.076 340,-837 226.571,-712.589 753.472,-290.226 862.552,-205.045"/>
<polygon fill="midnightblue" stroke="midnightblue" points="864.996,-207.578 870.738,-198.675 860.696,-202.054 864.996,-207.578"/>
</g>
<!-- Node42&#45;&gt;Node19 -->
<g id="edge152" class="edge"><title>Node42&#45;&gt;Node19</title>
<path fill="none" stroke="midnightblue" d="M1459.15,-933.151C1572.01,-920.09 1869.31,-878.366 2097,-781 2208.3,-733.407 2304,-725.047 2304,-604 2304,-604 2304,-604 2304,-484.5 2304,-362.024 2275.79,-319.36 2187,-235 2170.43,-219.254 2147.53,-208.627 2127.17,-201.674"/>
<polygon fill="midnightblue" stroke="midnightblue" points="2128.01,-198.267 2117.42,-198.549 2125.87,-204.933 2128.01,-198.267"/>
</g>
<!-- Node42&#45;&gt;Node33 -->
<g id="edge128" class="edge"><title>Node42&#45;&gt;Node33</title>
<path fill="none" stroke="midnightblue" d="M1413,-929.075C1413,-902.945 1413,-826.211 1413,-790.577"/>
<polygon fill="midnightblue" stroke="midnightblue" points="1416.5,-790.568 1413,-780.568 1409.5,-790.568 1416.5,-790.568"/>
</g>
<!-- Node42&#45;&gt;Node39 -->
<g id="edge127" class="edge"><title>Node42&#45;&gt;Node39</title>
<path fill="none" stroke="midnightblue" d="M1459.1,-937.768C1743.03,-936.231 3243.27,-926.534 3276,-893 3305.57,-862.711 3319.08,-831.509 3162,-761 3106.01,-735.866 2687.69,-721.574 2543.04,-717.342"/>
<polygon fill="midnightblue" stroke="midnightblue" points="2542.8,-713.834 2532.7,-717.043 2542.6,-720.831 2542.8,-713.834"/>
</g>
<!-- Node42&#45;&gt;Node41 -->
<g id="edge153" class="edge"><title>Node42&#45;&gt;Node41</title>
<path fill="none" stroke="midnightblue" d="M1366.94,-936.541C1245.01,-932.427 903.832,-919.29 621,-893 427.786,-875.04 359.237,-928.28 188,-837 167.38,-826.008 150.758,-804.345 140.899,-789.056"/>
<polygon fill="midnightblue" stroke="midnightblue" points="143.87,-787.207 135.658,-780.513 137.903,-790.867 143.87,-787.207"/>
</g>
<!-- Node43 -->
<g id="node43" class="node"><title>Node43</title>
<g id="a_node43"><a xlink:href="ir_2function_8h.html" target="_top" xlink:title="Function nodes. ">
<polygon fill="white" stroke="black" points="1441.5,-873.5 1441.5,-892.5 1536.5,-892.5 1536.5,-873.5 1441.5,-873.5"/>
<text text-anchor="middle" x="1489" y="-880.5" font-family="Helvetica,sans-Serif" font-size="10.00">tvm/ir/function.h</text>
</a>
</g>
</g>
<!-- Node42&#45;&gt;Node43 -->
<g id="edge129" class="edge"><title>Node42&#45;&gt;Node43</title>
<path fill="none" stroke="midnightblue" d="M1425.21,-929.324C1436.78,-921.107 1454.38,-908.602 1468.16,-898.807"/>
<polygon fill="midnightblue" stroke="midnightblue" points="1470.44,-901.479 1476.57,-892.834 1466.39,-895.773 1470.44,-901.479"/>
</g>
<!-- Node45 -->
<g id="node45" class="node"><title>Node45</title>
<g id="a_node45"><a xlink:href="ir_2adt_8h.html" target="_top" xlink:title="Algebraic data type definitions. ">
<polygon fill="white" stroke="black" points="1313,-817.5 1313,-836.5 1385,-836.5 1385,-817.5 1313,-817.5"/>
<text text-anchor="middle" x="1349" y="-824.5" font-family="Helvetica,sans-Serif" font-size="10.00">tvm/ir/adt.h</text>
</a>
</g>
</g>
<!-- Node42&#45;&gt;Node45 -->
<g id="edge143" class="edge"><title>Node42&#45;&gt;Node45</title>
<path fill="none" stroke="midnightblue" d="M1407.98,-929.368C1397.46,-911.296 1372.96,-869.176 1359.07,-845.307"/>
<polygon fill="midnightblue" stroke="midnightblue" points="1362.05,-843.475 1354,-836.591 1356,-846.995 1362.05,-843.475"/>
</g>
<!-- Node43&#45;&gt;Node11 -->
<g id="edge141" class="edge"><title>Node43&#45;&gt;Node11</title>
<path fill="none" stroke="midnightblue" d="M1441.41,-881.629C1235.91,-879.828 433.155,-870.653 392,-837 317.265,-775.888 256.916,-503.543 293,-414 360.084,-247.527 415.595,-209.24 573,-123 639.218,-86.7202 728.002,-76.3378 780.586,-73.4679"/>
<polygon fill="midnightblue" stroke="midnightblue" points="780.782,-76.9626 790.603,-72.9886 780.447,-69.9706 780.782,-76.9626"/>
</g>
<!-- Node43&#45;&gt;Node12 -->
<g id="edge142" class="edge"><title>Node43&#45;&gt;Node12</title>
<path fill="none" stroke="midnightblue" d="M1536.73,-881.491C1798.12,-878.602 3047.09,-863.452 3124,-837 3163.68,-823.354 3173.61,-813.617 3200,-781 3235.44,-737.198 3300,-604.345 3300,-548 3300,-548 3300,-548 3300,-188 3300,-157.205 3299.15,-143.304 3276,-123 3247.88,-98.3415 3140.33,-82.6225 3085.52,-76.0431"/>
<polygon fill="midnightblue" stroke="midnightblue" points="3085.64,-72.5333 3075.3,-74.8491 3084.83,-79.486 3085.64,-72.5333"/>
</g>
<!-- Node43&#45;&gt;Node33 -->
<g id="edge130" class="edge"><title>Node43&#45;&gt;Node33</title>
<path fill="none" stroke="midnightblue" d="M1483.04,-873.368C1470.49,-855.215 1441.19,-812.802 1424.74,-788.99"/>
<polygon fill="midnightblue" stroke="midnightblue" points="1427.5,-786.829 1418.94,-780.591 1421.74,-790.808 1427.5,-786.829"/>
</g>
<!-- Node44 -->
<g id="node44" class="node"><title>Node44</title>
<g id="a_node44"><a xlink:href="ir_2attrs_8h.html" target="_top" xlink:title="Helpers for attribute objects. ">
<polygon fill="white" stroke="red" points="1716.5,-817.5 1716.5,-836.5 1795.5,-836.5 1795.5,-817.5 1716.5,-817.5"/>
<text text-anchor="middle" x="1756" y="-824.5" font-family="Helvetica,sans-Serif" font-size="10.00">tvm/ir/attrs.h</text>
</a>
</g>
</g>
<!-- Node43&#45;&gt;Node44 -->
<g id="edge131" class="edge"><title>Node43&#45;&gt;Node44</title>
<path fill="none" stroke="midnightblue" d="M1531.31,-873.444C1578.77,-863.845 1655.68,-848.289 1706.06,-838.101"/>
<polygon fill="midnightblue" stroke="midnightblue" points="1706.96,-841.488 1716.07,-836.075 1705.58,-834.627 1706.96,-841.488"/>
</g>
<!-- Node44&#45;&gt;Node2 -->
<g id="edge134" class="edge"><title>Node44&#45;&gt;Node2</title>
<path fill="none" stroke="midnightblue" d="M1795.68,-822.294C1888.89,-812.494 2114,-781.996 2114,-716 2114,-716 2114,-716 2114,-423 2114,-344.353 1854.38,-318.59 1728.23,-310.713"/>
<polygon fill="midnightblue" stroke="midnightblue" points="1728.11,-307.2 1717.91,-310.091 1727.68,-314.187 1728.11,-307.2"/>
</g>
<!-- Node44&#45;&gt;Node11 -->
<g id="edge138" class="edge"><title>Node44&#45;&gt;Node11</title>
<path fill="none" stroke="midnightblue" d="M1716.5,-823.822C1645.51,-819.384 1491.94,-807.395 1365,-781 1173.68,-741.218 669.606,-593.707 557,-434 491.66,-341.33 496.58,-279.545 549,-179 592.386,-95.783 714.449,-77.1033 780.771,-73.2277"/>
<polygon fill="midnightblue" stroke="midnightblue" points="781.102,-76.7157 790.917,-72.7252 780.756,-69.7243 781.102,-76.7157"/>
</g>
<!-- Node44&#45;&gt;Node12 -->
<g id="edge139" class="edge"><title>Node44&#45;&gt;Node12</title>
<path fill="none" stroke="midnightblue" d="M1795.75,-825.457C2008.82,-822.441 3008.26,-806.953 3068,-781 3100.28,-766.975 3104.38,-754.224 3124,-725 3156.03,-677.284 3224,-543.97 3224,-486.5 3224,-486.5 3224,-486.5 3224,-188 3224,-157.205 3222.02,-144.526 3200,-123 3168.74,-92.4484 3118.19,-80.3412 3085.28,-75.5689"/>
<polygon fill="midnightblue" stroke="midnightblue" points="3085.62,-72.0847 3075.26,-74.2631 3084.72,-79.026 3085.62,-72.0847"/>
</g>
<!-- Node44&#45;&gt;Node13 -->
<g id="edge140" class="edge"><title>Node44&#45;&gt;Node13</title>
<path fill="none" stroke="midnightblue" d="M1716.38,-825.715C1564.38,-822.828 1008.83,-795.645 645,-557 484.694,-451.852 453.085,-407.573 337,-255 303.301,-210.709 298.23,-195.919 281,-143 275.437,-125.912 271.395,-105.81 268.918,-91.4533"/>
<polygon fill="midnightblue" stroke="midnightblue" points="272.332,-90.6444 267.268,-81.3382 265.424,-91.7713 272.332,-90.6444"/>
</g>
<!-- Node44&#45;&gt;Node18 -->
<g id="edge136" class="edge"><title>Node44&#45;&gt;Node18</title>
<path fill="none" stroke="midnightblue" d="M1731.51,-817.445C1587.59,-767.073 858,-510.537 858,-486.5 858,-486.5 858,-486.5 858,-423 858,-343.054 872.154,-248.487 878.723,-208.903"/>
<polygon fill="midnightblue" stroke="midnightblue" points="882.205,-209.299 880.425,-198.854 875.304,-208.129 882.205,-209.299"/>
</g>
<!-- Node44&#45;&gt;Node19 -->
<g id="edge135" class="edge"><title>Node44&#45;&gt;Node19</title>
<path fill="none" stroke="midnightblue" d="M1795.71,-822.95C1867.57,-816.977 2016.08,-802.424 2063,-781 2178.43,-728.293 2228,-674.892 2228,-548 2228,-548 2228,-548 2228,-423 2228,-379.009 2194.46,-268.543 2166,-235 2153.42,-220.178 2134.72,-209.576 2117.96,-202.401"/>
<polygon fill="midnightblue" stroke="midnightblue" points="2118.97,-199.034 2108.38,-198.567 2116.36,-205.532 2118.97,-199.034"/>
</g>
<!-- Node44&#45;&gt;Node24 -->
<g id="edge137" class="edge"><title>Node44&#45;&gt;Node24</title>
<path fill="none" stroke="midnightblue" d="M1795.63,-826.149C2008.01,-826.758 3003.44,-827.137 3048,-781 3060.65,-767.899 3095.6,-694.968 2972,-537 2964.03,-526.808 2630.96,-317.018 2540.48,-260.126"/>
<polygon fill="midnightblue" stroke="midnightblue" points="2542.14,-257.035 2531.81,-254.676 2538.41,-262.961 2542.14,-257.035"/>
</g>
<!-- Node44&#45;&gt;Node33 -->
<g id="edge132" class="edge"><title>Node44&#45;&gt;Node33</title>
<path fill="none" stroke="midnightblue" d="M1716.32,-819.753C1653.17,-809.811 1529.97,-790.415 1461.61,-779.654"/>
<polygon fill="midnightblue" stroke="midnightblue" points="1461.96,-776.165 1451.54,-778.067 1460.87,-783.08 1461.96,-776.165"/>
</g>
<!-- Node44&#45;&gt;Node36 -->
<g id="edge133" class="edge"><title>Node44&#45;&gt;Node36</title>
<path fill="none" stroke="midnightblue" d="M1795.72,-822.494C1855.58,-814.788 1962,-790.6 1962,-716 1962,-716 1962,-716 1962,-602 1962,-567.854 1944.43,-531.801 1931.01,-509.239"/>
<polygon fill="midnightblue" stroke="midnightblue" points="1933.99,-507.395 1925.76,-500.722 1928.03,-511.071 1933.99,-507.395"/>
</g>
<!-- Node45&#45;&gt;Node10 -->
<g id="edge144" class="edge"><title>Node45&#45;&gt;Node10</title>
<path fill="none" stroke="midnightblue" d="M1312.97,-823.135C1182.72,-810.64 744,-749.064 744,-486.5 744,-486.5 744,-486.5 744,-367 744,-271.296 767.5,-229.17 849,-179 891.495,-152.841 1617.31,-138.852 1846.94,-135.066"/>
<polygon fill="midnightblue" stroke="midnightblue" points="1847.23,-138.562 1857.17,-134.899 1847.12,-131.563 1847.23,-138.562"/>
</g>
<!-- Node45&#45;&gt;Node12 -->
<g id="edge149" class="edge"><title>Node45&#45;&gt;Node12</title>
<path fill="none" stroke="midnightblue" d="M1385.33,-825.066C1624.35,-818.914 2962.29,-784.34 2972,-781 3146.57,-720.939 3186,-609.609 3186,-425 3186,-425 3186,-425 3186,-188 3186,-157.205 3182.89,-145.631 3162,-123 3141.45,-100.738 3109.13,-87.4813 3085.01,-80.1773"/>
<polygon fill="midnightblue" stroke="midnightblue" points="3085.81,-76.7659 3075.24,-77.4026 3083.9,-83.5 3085.81,-76.7659"/>
</g>
<!-- Node45&#45;&gt;Node29 -->
<g id="edge146" class="edge"><title>Node45&#45;&gt;Node29</title>
<path fill="none" stroke="midnightblue" d="M1312.85,-825.394C1276.67,-822.845 1221.67,-813.399 1188,-781 1092.46,-689.062 1134.84,-502.503 1151.44,-443.396"/>
<polygon fill="midnightblue" stroke="midnightblue" points="1154.85,-444.195 1154.29,-433.616 1148.13,-442.24 1154.85,-444.195"/>
</g>
<!-- Node45&#45;&gt;Node33 -->
<g id="edge147" class="edge"><title>Node45&#45;&gt;Node33</title>
<path fill="none" stroke="midnightblue" d="M1359.28,-817.324C1368.84,-809.263 1383.28,-797.077 1394.78,-787.369"/>
<polygon fill="midnightblue" stroke="midnightblue" points="1397.14,-789.958 1402.53,-780.834 1392.63,-784.608 1397.14,-789.958"/>
</g>
<!-- Node45&#45;&gt;Node34 -->
<g id="edge145" class="edge"><title>Node45&#45;&gt;Node34</title>
<path fill="none" stroke="midnightblue" d="M1313.9,-817.476C1254.51,-801.278 1144.09,-762.458 1181,-705 1216.45,-649.818 1290.36,-624.41 1342.94,-612.964"/>
<polygon fill="midnightblue" stroke="midnightblue" points="1343.73,-616.373 1352.82,-610.92 1342.32,-609.518 1343.73,-616.373"/>
</g>
<!-- Node45&#45;&gt;Node39 -->
<g id="edge148" class="edge"><title>Node45&#45;&gt;Node39</title>
<path fill="none" stroke="midnightblue" d="M1385.16,-822.526C1552.66,-806.434 2253.15,-739.138 2445.15,-720.693"/>
<polygon fill="midnightblue" stroke="midnightblue" points="2445.61,-724.165 2455.22,-719.725 2444.94,-717.198 2445.61,-724.165"/>
</g>
<!-- Node47 -->
<g id="node47" class="node"><title>Node47</title>
<g id="a_node47"><a xlink:href="schedule_8h.html" target="_top" xlink:title="Define a schedule. ">
<polygon fill="white" stroke="black" points="715.5,-985.5 715.5,-1004.5 818.5,-1004.5 818.5,-985.5 715.5,-985.5"/>
<text text-anchor="middle" x="767" y="-992.5" font-family="Helvetica,sans-Serif" font-size="10.00">tvm/te/schedule.h</text>
</a>
</g>
</g>
<!-- Node46&#45;&gt;Node47 -->
<g id="edge155" class="edge"><title>Node46&#45;&gt;Node47</title>
<path fill="none" stroke="midnightblue" d="M733.605,-1041.08C739.255,-1033.46 747.545,-1022.26 754.451,-1012.94"/>
<polygon fill="midnightblue" stroke="midnightblue" points="757.378,-1014.87 760.518,-1004.75 751.753,-1010.7 757.378,-1014.87"/>
</g>
<!-- Node47&#45;&gt;Node12 -->
<g id="edge178" class="edge"><title>Node47&#45;&gt;Node12</title>
<path fill="none" stroke="midnightblue" d="M818.525,-994.315C1050.51,-995.428 2021.3,-996.832 2816,-949 2949.43,-940.969 3414,-1017.67 3414,-884 3414,-884 3414,-884 3414,-188 3414,-154.31 3402.94,-141.827 3375,-123 3328.02,-91.3431 3157.56,-78.3138 3085.51,-74.1389"/>
<polygon fill="midnightblue" stroke="midnightblue" points="3085.4,-70.6275 3075.22,-73.5647 3085.01,-77.6166 3085.4,-70.6275"/>
</g>
<!-- Node47&#45;&gt;Node19 -->
<g id="edge179" class="edge"><title>Node47&#45;&gt;Node19</title>
<path fill="none" stroke="midnightblue" d="M818.529,-993.218C1184.49,-987.499 3376,-950.48 3376,-884 3376,-884 3376,-884 3376,-826 3376,-675.732 3249.77,-685.057 3131,-593 2893.66,-409.039 2842.58,-330.854 2558,-235 2391.78,-179.011 2339.55,-216.235 2165,-199 2155.89,-198.101 2146.24,-197.112 2136.83,-196.129"/>
<polygon fill="midnightblue" stroke="midnightblue" points="2137.06,-192.635 2126.75,-195.07 2136.33,-199.597 2137.06,-192.635"/>
</g>
<!-- Node47&#45;&gt;Node28 -->
<g id="edge177" class="edge"><title>Node47&#45;&gt;Node28</title>
<path fill="none" stroke="midnightblue" d="M747.885,-985.405C730.342,-977.141 703.971,-963.758 683,-949 652.633,-927.631 644.535,-921.721 621,-893 593.615,-859.581 569.723,-814.629 557.555,-790"/>
<polygon fill="midnightblue" stroke="midnightblue" points="560.596,-788.251 553.082,-780.782 554.299,-791.307 560.596,-788.251"/>
</g>
<!-- Node48 -->
<g id="node48" class="node"><title>Node48</title>
<g id="a_node48"><a xlink:href="tir_2expr_8h.html" target="_top" xlink:title="TIR expressions. ">
<polygon fill="white" stroke="red" points="817,-817.5 817,-836.5 897,-836.5 897,-817.5 817,-817.5"/>
<text text-anchor="middle" x="857" y="-824.5" font-family="Helvetica,sans-Serif" font-size="10.00">tvm/tir/expr.h</text>
</a>
</g>
</g>
<!-- Node47&#45;&gt;Node48 -->
<g id="edge156" class="edge"><title>Node47&#45;&gt;Node48</title>
<path fill="none" stroke="midnightblue" d="M788.888,-985.421C804.54,-978.12 824.752,-966.08 836,-949 856.643,-917.654 858.826,-872.201 858.175,-846.866"/>
<polygon fill="midnightblue" stroke="midnightblue" points="861.667,-846.601 857.733,-836.763 854.674,-846.907 861.667,-846.601"/>
</g>
<!-- Node49 -->
<g id="node49" class="node"><title>Node49</title>
<g id="a_node49"><a xlink:href="tensor_8h.html" target="_top" xlink:title="Dataflow tensor object. ">
<polygon fill="white" stroke="red" points="630,-873.5 630,-892.5 720,-892.5 720,-873.5 630,-873.5"/>
<text text-anchor="middle" x="675" y="-880.5" font-family="Helvetica,sans-Serif" font-size="10.00">tvm/te/tensor.h</text>
</a>
</g>
</g>
<!-- Node47&#45;&gt;Node49 -->
<g id="edge167" class="edge"><title>Node47&#45;&gt;Node49</title>
<path fill="none" stroke="midnightblue" d="M747.194,-985.46C731.819,-977.909 710.997,-965.524 698,-949 687.372,-935.488 681.43,-916.681 678.261,-902.772"/>
<polygon fill="midnightblue" stroke="midnightblue" points="681.673,-901.98 676.278,-892.861 674.809,-903.354 681.673,-901.98"/>
</g>
<!-- Node50 -->
<g id="node50" class="node"><title>Node50</title>
<g id="a_node50"><a xlink:href="tensor__intrin_8h.html" target="_top" xlink:title="Tensor intrinsic operations. ">
<polygon fill="white" stroke="red" points="707,-929.5 707,-948.5 827,-948.5 827,-929.5 707,-929.5"/>
<text text-anchor="middle" x="767" y="-936.5" font-family="Helvetica,sans-Serif" font-size="10.00">tvm/te/tensor_intrin.h</text>
</a>
</g>
</g>
<!-- Node47&#45;&gt;Node50 -->
<g id="edge174" class="edge"><title>Node47&#45;&gt;Node50</title>
<path fill="none" stroke="midnightblue" d="M767,-985.083C767,-978.006 767,-967.861 767,-958.986"/>
<polygon fill="midnightblue" stroke="midnightblue" points="770.5,-958.751 767,-948.751 763.5,-958.751 770.5,-958.751"/>
</g>
<!-- Node48&#45;&gt;Node4 -->
<g id="edge159" class="edge"><title>Node48&#45;&gt;Node4</title>
<path fill="none" stroke="midnightblue" d="M849.874,-817.344C797.023,-752.675 470.257,-344.5 551,-235 650.95,-99.4524 747.485,-154.108 913,-123 1140.2,-80.2976 1414.82,-73.0967 1544.01,-72.2714"/>
<polygon fill="midnightblue" stroke="midnightblue" points="1544.2,-75.7705 1554.18,-72.2178 1544.16,-68.7706 1544.2,-75.7705"/>
</g>
<!-- Node48&#45;&gt;Node12 -->
<g id="edge162" class="edge"><title>Node48&#45;&gt;Node12</title>
<path fill="none" stroke="midnightblue" d="M897.213,-824.757C1188.64,-815.67 2966.74,-758.895 3010,-725 3184.4,-588.366 3148,-467.548 3148,-246 3148,-246 3148,-246 3148,-188 3148,-157.205 3142.71,-147.457 3124,-123 3112.13,-107.48 3094.15,-94.7641 3079.26,-85.974"/>
<polygon fill="midnightblue" stroke="midnightblue" points="3080.9,-82.8801 3070.47,-81.0183 3077.47,-88.9779 3080.9,-82.8801"/>
</g>
<!-- Node48&#45;&gt;Node13 -->
<g id="edge166" class="edge"><title>Node48&#45;&gt;Node13</title>
<path fill="none" stroke="midnightblue" d="M816.995,-819.002C785.44,-812.348 741.056,-800.418 706,-781 501.881,-667.935 457.783,-616.197 312,-434 222.809,-322.53 199.244,-283.856 176,-143 174.553,-134.23 171.508,-130.671 176,-123 188.682,-101.342 214.432,-88.266 235.151,-80.8643"/>
<polygon fill="midnightblue" stroke="midnightblue" points="236.436,-84.1262 244.84,-77.6739 234.247,-77.4775 236.436,-84.1262"/>
</g>
<!-- Node48&#45;&gt;Node19 -->
<g id="edge164" class="edge"><title>Node48&#45;&gt;Node19</title>
<path fill="none" stroke="midnightblue" d="M874.707,-817.327C901.903,-804.187 955.772,-778.875 1003,-761 1080.56,-731.642 1100.38,-724.436 1181,-705 1562.72,-612.977 1716.3,-760.692 2052,-557 2114.92,-518.82 2152,-498.601 2152,-425 2152,-425 2152,-425 2152,-305.5 2152,-264.643 2119.15,-226.286 2097.83,-205.692"/>
<polygon fill="midnightblue" stroke="midnightblue" points="2100.02,-202.949 2090.32,-198.7 2095.25,-208.074 2100.02,-202.949"/>
</g>
<!-- Node48&#45;&gt;Node23 -->
<g id="edge160" class="edge"><title>Node48&#45;&gt;Node23</title>
<path fill="none" stroke="midnightblue" d="M897.058,-820.892C1081.85,-797.044 1852.69,-694.395 2081,-613 2176.6,-578.919 2208.12,-572.646 2280,-501 2350.6,-430.63 2384.83,-310.76 2395.87,-264.747"/>
<polygon fill="midnightblue" stroke="midnightblue" points="2399.34,-265.246 2398.18,-254.716 2392.52,-263.673 2399.34,-265.246"/>
</g>
<!-- Node48&#45;&gt;Node26 -->
<g id="edge165" class="edge"><title>Node48&#45;&gt;Node26</title>
<path fill="none" stroke="midnightblue" d="M816.979,-819.832C789.78,-813.87 754.439,-802.446 730,-781 646.039,-707.319 648.094,-663.997 616,-557 583.844,-449.798 580.775,-313.76 580.804,-264.698"/>
<polygon fill="midnightblue" stroke="midnightblue" points="584.304,-264.653 580.857,-254.634 577.304,-264.616 584.304,-264.653"/>
</g>
<!-- Node48&#45;&gt;Node29 -->
<g id="edge158" class="edge"><title>Node48&#45;&gt;Node29</title>
<path fill="none" stroke="midnightblue" d="M852.01,-817.49C841.911,-799.436 820,-755.693 820,-716 820,-716 820,-716 820,-658 820,-638.815 1059.41,-486.445 1134.65,-439.031"/>
<polygon fill="midnightblue" stroke="midnightblue" points="1136.77,-441.831 1143.37,-433.542 1133.04,-435.907 1136.77,-441.831"/>
</g>
<!-- Node48&#45;&gt;Node33 -->
<g id="edge161" class="edge"><title>Node48&#45;&gt;Node33</title>
<path fill="none" stroke="midnightblue" d="M897.434,-822.073C997.415,-812.363 1255.96,-787.252 1364.21,-776.739"/>
<polygon fill="midnightblue" stroke="midnightblue" points="1364.59,-780.218 1374.2,-775.768 1363.91,-773.251 1364.59,-780.218"/>
</g>
<!-- Node48&#45;&gt;Node34 -->
<g id="edge157" class="edge"><title>Node48&#45;&gt;Node34</title>
<path fill="none" stroke="midnightblue" d="M863.423,-817.252C873.886,-803.55 895.88,-776.949 920,-761 1055.82,-671.197 1247.07,-629.195 1342.69,-612.806"/>
<polygon fill="midnightblue" stroke="midnightblue" points="1343.48,-616.224 1352.76,-611.116 1342.32,-609.321 1343.48,-616.224"/>
</g>
<!-- Node48&#45;&gt;Node40 -->
<g id="edge163" class="edge"><title>Node48&#45;&gt;Node40</title>
<path fill="none" stroke="midnightblue" d="M885.26,-817.46C950.11,-797.862 1109.66,-749.647 1183,-727.483"/>
<polygon fill="midnightblue" stroke="midnightblue" points="1184.2,-730.778 1192.76,-724.535 1182.17,-724.077 1184.2,-730.778"/>
</g>
<!-- Node49&#45;&gt;Node11 -->
<g id="edge173" class="edge"><title>Node49&#45;&gt;Node11</title>
<path fill="none" stroke="midnightblue" d="M629.918,-879.393C532.425,-873.393 308.52,-857.536 281,-837 210.85,-784.654 126.341,-556.748 138,-470 162.58,-287.11 198.391,-200.203 366,-123 439.227,-89.2705 680.721,-77.369 780.875,-73.8167"/>
<polygon fill="midnightblue" stroke="midnightblue" points="781.089,-77.3115 790.963,-73.4704 780.849,-70.3157 781.089,-77.3115"/>
</g>
<!-- Node49&#45;&gt;Node12 -->
<g id="edge170" class="edge"><title>Node49&#45;&gt;Node12</title>
<path fill="none" stroke="midnightblue" d="M720.023,-881.157C1042.16,-874.995 2987.18,-835.615 3098,-781 3161.36,-749.773 3262,-620.587 3262,-548 3262,-548 3262,-548 3262,-188 3262,-108.383 3144.38,-83.2204 3085.61,-75.6169"/>
<polygon fill="midnightblue" stroke="midnightblue" points="3085.71,-72.1038 3075.37,-74.3923 3084.88,-79.0543 3085.71,-72.1038"/>
</g>
<!-- Node49&#45;&gt;Node13 -->
<g id="edge172" class="edge"><title>Node49&#45;&gt;Node13</title>
<path fill="none" stroke="midnightblue" d="M629.762,-879.276C528.194,-872.856 288.441,-855.886 257,-837 200.981,-803.35 38,-468.394 38,-369 38,-369 38,-369 38,-188 38,-100.752 172.503,-79.3922 234.895,-74.1773"/>
<polygon fill="midnightblue" stroke="midnightblue" points="235.248,-77.6608 244.959,-73.4247 234.726,-70.6803 235.248,-77.6608"/>
</g>
<!-- Node49&#45;&gt;Node18 -->
<g id="edge171" class="edge"><title>Node49&#45;&gt;Node18</title>
<path fill="none" stroke="midnightblue" d="M629.783,-879.175C536.083,-872.948 327.304,-856.989 302,-837 277.835,-817.911 278,-802.795 278,-772 278,-772 278,-772 278,-658 278,-602.062 503.797,-265.016 551,-235 599.859,-203.931 773.878,-193.951 848.082,-191.064"/>
<polygon fill="midnightblue" stroke="midnightblue" points="848.415,-194.555 858.279,-190.688 848.157,-187.559 848.415,-194.555"/>
</g>
<!-- Node49&#45;&gt;Node29 -->
<g id="edge168" class="edge"><title>Node49&#45;&gt;Node29</title>
<path fill="none" stroke="midnightblue" d="M674.085,-873.454C672.187,-854.971 668,-809.889 668,-772 668,-772 668,-772 668,-714 668,-608.224 1011.39,-476.783 1122.65,-436.97"/>
<polygon fill="midnightblue" stroke="midnightblue" points="1123.83,-440.267 1132.08,-433.618 1121.48,-433.671 1123.83,-440.267"/>
</g>
<!-- Node49&#45;&gt;Node48 -->
<g id="edge169" class="edge"><title>Node49&#45;&gt;Node48</title>
<path fill="none" stroke="midnightblue" d="M703.838,-873.444C734.856,-864.241 784.329,-849.562 818.618,-839.388"/>
<polygon fill="midnightblue" stroke="midnightblue" points="819.705,-842.716 828.296,-836.516 817.714,-836.006 819.705,-842.716"/>
</g>
<!-- Node50&#45;&gt;Node12 -->
<g id="edge176" class="edge"><title>Node50&#45;&gt;Node12</title>
<path fill="none" stroke="midnightblue" d="M827.211,-936.6C1187.63,-928.077 3047.68,-882.034 3159,-837 3299.06,-780.339 3338,-699.086 3338,-548 3338,-548 3338,-548 3338,-188 3338,-154.31 3326.49,-142.477 3299,-123 3264.92,-98.8562 3144.08,-82.5672 3085.42,-75.8978"/>
<polygon fill="midnightblue" stroke="midnightblue" points="3085.55,-72.3908 3075.23,-74.7647 3084.78,-79.348 3085.55,-72.3908"/>
</g>
<!-- Node50&#45;&gt;Node49 -->
<g id="edge175" class="edge"><title>Node50&#45;&gt;Node49</title>
<path fill="none" stroke="midnightblue" d="M752.219,-929.324C737.733,-920.822 715.427,-907.729 698.507,-897.797"/>
<polygon fill="midnightblue" stroke="midnightblue" points="700.141,-894.698 689.745,-892.655 696.597,-900.735 700.141,-894.698"/>
</g>
</g>
</svg>
