<?xml version="1.0" encoding="UTF-8" standalone="no"?>
<!DOCTYPE svg PUBLIC "-//W3C//DTD SVG 1.1//EN"
 "http://www.w3.org/Graphics/SVG/1.1/DTD/svg11.dtd">
<!-- Generated by graphviz version 2.38.0 (20140413.2041)
 -->
<!-- Title: include/tvm/driver/driver_api.h Pages: 1 -->
<svg width="3498pt" height="1136pt"
 viewBox="0.00 0.00 3498.00 1136.00" xmlns="http://www.w3.org/2000/svg" xmlns:xlink="http://www.w3.org/1999/xlink">
<g id="graph0" class="graph" transform="scale(1 1) rotate(0) translate(4 1132)">
<title>include/tvm/driver/driver_api.h</title>
<polygon fill="white" stroke="none" points="-4,4 -4,-1132 3494,-1132 3494,4 -4,4"/>
<!-- Node1 -->
<g id="node1" class="node"><title>Node1</title>
<polygon fill="#bfbfbf" stroke="black" points="2251,-1097.5 2251,-1127.5 2353,-1127.5 2353,-1097.5 2251,-1097.5"/>
<text text-anchor="start" x="2259" y="-1115.5" font-family="Helvetica,sans-Serif" font-size="10.00">include/tvm/driver</text>
<text text-anchor="middle" x="2302" y="-1104.5" font-family="Helvetica,sans-Serif" font-size="10.00">/driver_api.h</text>
</g>
<!-- Node2 -->
<g id="node2" class="node"><title>Node2</title>
<g id="a_node2"><a xlink:href="packed__func_8h.html" target="_top" xlink:title="Type&#45;erased function used across TVM API. ">
<polygon fill="white" stroke="black" points="1531.5,-291.5 1531.5,-321.5 1644.5,-321.5 1644.5,-291.5 1531.5,-291.5"/>
<text text-anchor="start" x="1539.5" y="-309.5" font-family="Helvetica,sans-Serif" font-size="10.00">tvm/runtime/packed</text>
<text text-anchor="middle" x="1588" y="-298.5" font-family="Helvetica,sans-Serif" font-size="10.00">_func.h</text>
</a>
</g>
</g>
<!-- Node1&#45;&gt;Node2 -->
<g id="edge1" class="edge"><title>Node1&#45;&gt;Node2</title>
<path fill="none" stroke="midnightblue" d="M2353.2,-1105.14C2413.92,-1094.41 2507,-1066.47 2507,-996 2507,-996 2507,-996 2507,-826 2507,-746.086 2443.37,-744.677 2374,-705 2089.62,-542.339 1670,-814.113 1670,-486.5 1670,-486.5 1670,-486.5 1670,-423 1670,-384.114 1638.72,-349.2 1614.79,-328.187"/>
<polygon fill="midnightblue" stroke="midnightblue" points="1616.91,-325.396 1607.02,-321.608 1612.39,-330.74 1616.91,-325.396"/>
</g>
<!-- Node12 -->
<g id="node12" class="node"><title>Node12</title>
<polygon fill="white" stroke="#bfbfbf" points="2697,-62 2697,-81 2741,-81 2741,-62 2697,-62"/>
<text text-anchor="middle" x="2719" y="-69" font-family="Helvetica,sans-Serif" font-size="10.00">string</text>
</g>
<!-- Node1&#45;&gt;Node12 -->
<g id="edge181" class="edge"><title>Node1&#45;&gt;Node12</title>
<path fill="none" stroke="midnightblue" d="M2353.05,-1111.98C2580.44,-1113.44 3490,-1112.04 3490,-996 3490,-996 3490,-996 3490,-188 3490,-143.215 3454.48,-139.897 3413,-123 3290.69,-73.1716 2871.04,-71.6211 2751.2,-72.2292"/>
<polygon fill="midnightblue" stroke="midnightblue" points="2751.16,-68.7293 2741.18,-72.2889 2751.2,-75.7292 2751.16,-68.7293"/>
</g>
<!-- Node13 -->
<g id="node13" class="node"><title>Node13</title>
<polygon fill="white" stroke="#bfbfbf" points="245,-62 245,-81 287,-81 287,-62 245,-62"/>
<text text-anchor="middle" x="266" y="-69" font-family="Helvetica,sans-Serif" font-size="10.00">utility</text>
</g>
<!-- Node1&#45;&gt;Node13 -->
<g id="edge183" class="edge"><title>Node1&#45;&gt;Node13</title>
<path fill="none" stroke="midnightblue" d="M2250.83,-1111.7C1942.34,-1112.72 336.694,-1115.36 125,-1061 64.3499,-1045.43 0,-1058.62 0,-996 0,-996 0,-996 0,-188 0,-86.7173 164.263,-73.292 234.623,-72.1871"/>
<polygon fill="midnightblue" stroke="midnightblue" points="234.711,-75.6866 244.682,-72.1042 234.653,-68.6869 234.711,-75.6866"/>
</g>
<!-- Node18 -->
<g id="node18" class="node"><title>Node18</title>
<polygon fill="white" stroke="#bfbfbf" points="2272.5,-179.5 2272.5,-198.5 2319.5,-198.5 2319.5,-179.5 2272.5,-179.5"/>
<text text-anchor="middle" x="2296" y="-186.5" font-family="Helvetica,sans-Serif" font-size="10.00">vector</text>
</g>
<!-- Node1&#45;&gt;Node18 -->
<g id="edge182" class="edge"><title>Node1&#45;&gt;Node18</title>
<path fill="none" stroke="midnightblue" d="M2353.08,-1111.44C2566.52,-1110.53 3376,-1100.2 3376,-996 3376,-996 3376,-996 3376,-484.5 3376,-262.033 2512.26,-201.938 2329.65,-191.719"/>
<polygon fill="midnightblue" stroke="midnightblue" points="2329.74,-188.219 2319.56,-191.167 2329.36,-195.208 2329.74,-188.219"/>
</g>
<!-- Node19 -->
<g id="node19" class="node"><title>Node19</title>
<polygon fill="white" stroke="#bfbfbf" points="2987.5,-179.5 2987.5,-198.5 3080.5,-198.5 3080.5,-179.5 2987.5,-179.5"/>
<text text-anchor="middle" x="3034" y="-186.5" font-family="Helvetica,sans-Serif" font-size="10.00">unordered_map</text>
</g>
<!-- Node1&#45;&gt;Node19 -->
<g id="edge184" class="edge"><title>Node1&#45;&gt;Node19</title>
<path fill="none" stroke="midnightblue" d="M2353.18,-1111.67C2529.02,-1111.83 3107.39,-1108.62 3286,-1061 3347.65,-1044.56 3414,-1059.8 3414,-996 3414,-996 3414,-996 3414,-423 3414,-273.064 3196.34,-216.619 3090.48,-198.034"/>
<polygon fill="midnightblue" stroke="midnightblue" points="3091.04,-194.58 3080.6,-196.352 3089.87,-201.48 3091.04,-194.58"/>
</g>
<!-- Node27 -->
<g id="node27" class="node"><title>Node27</title>
<g id="a_node27"><a xlink:href="target_8h.html" target="_top" xlink:title="Compilation target object. ">
<polygon fill="white" stroke="black" points="370.5,-817.5 370.5,-836.5 479.5,-836.5 479.5,-817.5 370.5,-817.5"/>
<text text-anchor="middle" x="425" y="-824.5" font-family="Helvetica,sans-Serif" font-size="10.00">tvm/target/target.h</text>
</a>
</g>
</g>
<!-- Node1&#45;&gt;Node27 -->
<g id="edge52" class="edge"><title>Node1&#45;&gt;Node27</title>
<path fill="none" stroke="midnightblue" d="M2250.78,-1111.34C1935.45,-1110.04 271,-1098.31 271,-996 271,-996 271,-996 271,-938 271,-884.126 334.178,-854.138 379.602,-839.54"/>
<polygon fill="midnightblue" stroke="midnightblue" points="380.748,-842.849 389.282,-836.571 378.696,-836.157 380.748,-842.849"/>
</g>
<!-- Node28 -->
<g id="node28" class="node"><title>Node28</title>
<g id="a_node28"><a xlink:href="with_8h.html" target="_top" xlink:title="RAII wrapper function to enter and exit a context object similar to python&#39;s with syntax...">
<polygon fill="white" stroke="black" points="28,-761.5 28,-780.5 134,-780.5 134,-761.5 28,-761.5"/>
<text text-anchor="middle" x="81" y="-768.5" font-family="Helvetica,sans-Serif" font-size="10.00">tvm/support/with.h</text>
</a>
</g>
</g>
<!-- Node1&#45;&gt;Node28 -->
<g id="edge125" class="edge"><title>Node1&#45;&gt;Node28</title>
<path fill="none" stroke="midnightblue" d="M2250.88,-1111.01C1939.53,-1107.96 308.034,-1090.6 207,-1061 153.602,-1045.36 100,-1051.64 100,-996 100,-996 100,-996 100,-882 100,-849.489 91.841,-812.35 86.2162,-790.61"/>
<polygon fill="midnightblue" stroke="midnightblue" points="89.5414,-789.498 83.5624,-780.751 82.782,-791.317 89.5414,-789.498"/>
</g>
<!-- Node41 -->
<g id="node41" class="node"><title>Node41</title>
<polygon fill="white" stroke="#bfbfbf" points="152,-761.5 152,-780.5 238,-780.5 238,-761.5 152,-761.5"/>
<text text-anchor="middle" x="195" y="-768.5" font-family="Helvetica,sans-Serif" font-size="10.00">unordered_set</text>
</g>
<!-- Node1&#45;&gt;Node41 -->
<g id="edge185" class="edge"><title>Node1&#45;&gt;Node41</title>
<path fill="none" stroke="midnightblue" d="M2250.81,-1110.96C1967.06,-1107.88 593.251,-1091.45 407,-1061 309.74,-1045.1 195,-1094.55 195,-996 195,-996 195,-996 195,-882 195,-849.948 195,-812.643 195,-790.749"/>
<polygon fill="midnightblue" stroke="midnightblue" points="198.5,-790.558 195,-780.558 191.5,-790.558 198.5,-790.558"/>
</g>
<!-- Node42 -->
<g id="node42" class="node"><title>Node42</title>
<g id="a_node42"><a xlink:href="ir_2module_8h.html" target="_top" xlink:title="IRModule that holds the functions and type definitions. ">
<polygon fill="white" stroke="black" points="1642,-929.5 1642,-948.5 1734,-948.5 1734,-929.5 1642,-929.5"/>
<text text-anchor="middle" x="1688" y="-936.5" font-family="Helvetica,sans-Serif" font-size="10.00">tvm/ir/module.h</text>
</a>
</g>
</g>
<!-- Node1&#45;&gt;Node42 -->
<g id="edge126" class="edge"><title>Node1&#45;&gt;Node42</title>
<path fill="none" stroke="midnightblue" d="M2251.75,-1097.47C2133,-1064.3 1836.87,-981.583 1728.53,-951.321"/>
<polygon fill="midnightblue" stroke="midnightblue" points="1729.22,-947.879 1718.65,-948.56 1727.34,-954.621 1729.22,-947.879"/>
</g>
<!-- Node46 -->
<g id="node46" class="node"><title>Node46</title>
<g id="a_node46"><a xlink:href="schedule__pass_8h.html" target="_top" xlink:title="Collection of Schedule pass functions. ">
<polygon fill="white" stroke="black" points="2736.5,-1041.5 2736.5,-1060.5 2867.5,-1060.5 2867.5,-1041.5 2736.5,-1041.5"/>
<text text-anchor="middle" x="2802" y="-1048.5" font-family="Helvetica,sans-Serif" font-size="10.00">tvm/te/schedule_pass.h</text>
</a>
</g>
</g>
<!-- Node1&#45;&gt;Node46 -->
<g id="edge155" class="edge"><title>Node1&#45;&gt;Node46</title>
<path fill="none" stroke="midnightblue" d="M2353.16,-1105.41C2441.56,-1094.89 2623.3,-1073.26 2726.35,-1061"/>
<polygon fill="midnightblue" stroke="midnightblue" points="2726.86,-1064.47 2736.37,-1059.81 2726.03,-1057.52 2726.86,-1064.47"/>
</g>
<!-- Node3 -->
<g id="node3" class="node"><title>Node3</title>
<polygon fill="white" stroke="#bfbfbf" points="1103,-62 1103,-81 1189,-81 1189,-62 1103,-62"/>
<text text-anchor="middle" x="1146" y="-69" font-family="Helvetica,sans-Serif" font-size="10.00">dmlc/logging.h</text>
</g>
<!-- Node2&#45;&gt;Node3 -->
<g id="edge2" class="edge"><title>Node2&#45;&gt;Node3</title>
<path fill="none" stroke="midnightblue" d="M1531.43,-303.176C1446.47,-298.698 1291.07,-286.373 1246,-255 1187.95,-214.598 1160.21,-129.277 1150.36,-91.3543"/>
<polygon fill="midnightblue" stroke="midnightblue" points="1153.66,-90.0842 1147.87,-81.2091 1146.86,-91.7555 1153.66,-90.0842"/>
</g>
<!-- Node4 -->
<g id="node4" class="node"><title>Node4</title>
<g id="a_node4"><a xlink:href="c__runtime__api_8h.html" target="_top" xlink:title="tvm/runtime/c_runtime\l_api.h">
<polygon fill="white" stroke="black" points="1952.5,-56.5 1952.5,-86.5 2079.5,-86.5 2079.5,-56.5 1952.5,-56.5"/>
<text text-anchor="start" x="1960.5" y="-74.5" font-family="Helvetica,sans-Serif" font-size="10.00">tvm/runtime/c_runtime</text>
<text text-anchor="middle" x="2016" y="-63.5" font-family="Helvetica,sans-Serif" font-size="10.00">_api.h</text>
</a>
</g>
</g>
<!-- Node2&#45;&gt;Node4 -->
<g id="edge3" class="edge"><title>Node2&#45;&gt;Node4</title>
<path fill="none" stroke="midnightblue" d="M1644.84,-292.858C1682.32,-283.865 1732.2,-270.633 1775,-255 1775.86,-254.685 1894.21,-199.475 1895,-199 1930.33,-177.716 1940.72,-173.023 1969,-143 1982.49,-128.682 1994.71,-110.088 2003.3,-95.591"/>
<polygon fill="midnightblue" stroke="midnightblue" points="2006.44,-97.1531 2008.41,-86.7419 2000.38,-93.6558 2006.44,-97.1531"/>
</g>
<!-- Node8 -->
<g id="node8" class="node"><title>Node8</title>
<g id="a_node8"><a xlink:href="runtime_2module_8h.html" target="_top" xlink:title="Runtime container of the functions generated by TVM, This is used to support dynamically link...">
<polygon fill="white" stroke="black" points="1642,-235.5 1642,-254.5 1766,-254.5 1766,-235.5 1642,-235.5"/>
<text text-anchor="middle" x="1704" y="-242.5" font-family="Helvetica,sans-Serif" font-size="10.00">tvm/runtime/module.h</text>
</a>
</g>
</g>
<!-- Node2&#45;&gt;Node8 -->
<g id="edge7" class="edge"><title>Node2&#45;&gt;Node8</title>
<path fill="none" stroke="midnightblue" d="M1609.65,-291.399C1627.59,-281.55 1653.08,-268.501 1673.13,-258.922"/>
<polygon fill="midnightblue" stroke="midnightblue" points="1674.63,-262.082 1682.19,-254.658 1671.65,-255.748 1674.63,-262.082"/>
</g>
<!-- Node10 -->
<g id="node10" class="node"><title>Node10</title>
<g id="a_node10"><a xlink:href="object_8h.html" target="_top" xlink:title="A managed object in the TVM runtime. ">
<polygon fill="white" stroke="black" points="1239.5,-123.5 1239.5,-142.5 1356.5,-142.5 1356.5,-123.5 1239.5,-123.5"/>
<text text-anchor="middle" x="1298" y="-130.5" font-family="Helvetica,sans-Serif" font-size="10.00">tvm/runtime/object.h</text>
</a>
</g>
</g>
<!-- Node2&#45;&gt;Node10 -->
<g id="edge43" class="edge"><title>Node2&#45;&gt;Node10</title>
<path fill="none" stroke="midnightblue" d="M1531.37,-291.605C1498.31,-282.725 1456.12,-270.06 1420,-255 1407.98,-249.987 1325.18,-209.141 1317,-199 1306.29,-185.712 1301.61,-166.589 1299.58,-152.524"/>
<polygon fill="midnightblue" stroke="midnightblue" points="1303.05,-152.078 1298.44,-142.536 1296.09,-152.868 1303.05,-152.078"/>
</g>
<!-- Node11 -->
<g id="node11" class="node"><title>Node11</title>
<polygon fill="white" stroke="#bfbfbf" points="702,-62 702,-81 770,-81 770,-62 702,-62"/>
<text text-anchor="middle" x="736" y="-69" font-family="Helvetica,sans-Serif" font-size="10.00">type_traits</text>
</g>
<!-- Node2&#45;&gt;Node11 -->
<g id="edge51" class="edge"><title>Node2&#45;&gt;Node11</title>
<path fill="none" stroke="midnightblue" d="M1531.42,-301.119C1473.94,-295.328 1383.08,-282.448 1309,-255 1200.28,-214.721 1193.4,-161.372 1084,-123 979.281,-86.2711 847.819,-76.2403 780.39,-73.5112"/>
<polygon fill="midnightblue" stroke="midnightblue" points="780.254,-70.0039 770.132,-73.133 779.996,-76.9992 780.254,-70.0039"/>
</g>
<!-- Node2&#45;&gt;Node12 -->
<g id="edge47" class="edge"><title>Node2&#45;&gt;Node12</title>
<path fill="none" stroke="midnightblue" d="M1644.65,-294.293C1700.21,-283.007 1780.86,-265.769 1811,-255 1829.72,-248.312 1832.51,-242.289 1851,-235 2014.41,-170.585 2057.69,-157.055 2230,-123 2399.93,-89.4158 2607.77,-77.342 2686.6,-73.7803"/>
<polygon fill="midnightblue" stroke="midnightblue" points="2687.01,-77.2657 2696.85,-73.3329 2686.71,-70.2724 2687.01,-77.2657"/>
</g>
<!-- Node2&#45;&gt;Node13 -->
<g id="edge50" class="edge"><title>Node2&#45;&gt;Node13</title>
<path fill="none" stroke="midnightblue" d="M1531.42,-300.571C1394.82,-288.197 1036.43,-252.904 741,-199 636.225,-179.883 610.934,-170.347 508,-143 431.72,-122.735 342.804,-96.0309 296.919,-82.0197"/>
<polygon fill="midnightblue" stroke="midnightblue" points="297.857,-78.6467 287.27,-79.0668 295.808,-85.3402 297.857,-78.6467"/>
</g>
<!-- Node17 -->
<g id="node17" class="node"><title>Node17</title>
<polygon fill="white" stroke="#bfbfbf" points="1326.5,-179.5 1326.5,-198.5 1383.5,-198.5 1383.5,-179.5 1326.5,-179.5"/>
<text text-anchor="middle" x="1355" y="-186.5" font-family="Helvetica,sans-Serif" font-size="10.00">memory</text>
</g>
<!-- Node2&#45;&gt;Node17 -->
<g id="edge49" class="edge"><title>Node2&#45;&gt;Node17</title>
<path fill="none" stroke="midnightblue" d="M1531.2,-303.169C1459.91,-298.914 1343.69,-287.117 1317,-255 1304.05,-239.418 1320.71,-218.879 1335.87,-205.096"/>
<polygon fill="midnightblue" stroke="midnightblue" points="1338.18,-207.729 1343.5,-198.567 1333.63,-202.411 1338.18,-207.729"/>
</g>
<!-- Node2&#45;&gt;Node18 -->
<g id="edge46" class="edge"><title>Node2&#45;&gt;Node18</title>
<path fill="none" stroke="midnightblue" d="M1644.58,-300.446C1725.01,-292.852 1876.89,-277.009 2005,-255 2099.18,-238.82 2208.85,-212.175 2262.7,-198.572"/>
<polygon fill="midnightblue" stroke="midnightblue" points="2263.56,-201.963 2272.39,-196.111 2261.84,-195.179 2263.56,-201.963"/>
</g>
<!-- Node20 -->
<g id="node20" class="node"><title>Node20</title>
<g id="a_node20"><a xlink:href="ndarray_8h.html" target="_top" xlink:title="A device&#45;independent managed NDArray abstraction. ">
<polygon fill="white" stroke="black" points="1500.5,-235.5 1500.5,-254.5 1623.5,-254.5 1623.5,-235.5 1500.5,-235.5"/>
<text text-anchor="middle" x="1562" y="-242.5" font-family="Helvetica,sans-Serif" font-size="10.00">tvm/runtime/ndarray.h</text>
</a>
</g>
</g>
<!-- Node2&#45;&gt;Node20 -->
<g id="edge27" class="edge"><title>Node2&#45;&gt;Node20</title>
<path fill="none" stroke="midnightblue" d="M1581.84,-291.399C1578.26,-283.199 1573.7,-272.781 1569.86,-263.994"/>
<polygon fill="midnightblue" stroke="midnightblue" points="1572.99,-262.42 1565.78,-254.658 1566.58,-265.223 1572.99,-262.42"/>
</g>
<!-- Node23 -->
<g id="node23" class="node"><title>Node23</title>
<g id="a_node23"><a xlink:href="data__type_8h.html" target="_top" xlink:title="tvm/runtime/data_type.h">
<polygon fill="white" stroke="black" points="1860,-235.5 1860,-254.5 1996,-254.5 1996,-235.5 1860,-235.5"/>
<text text-anchor="middle" x="1928" y="-242.5" font-family="Helvetica,sans-Serif" font-size="10.00">tvm/runtime/data_type.h</text>
</a>
</g>
</g>
<!-- Node2&#45;&gt;Node23 -->
<g id="edge38" class="edge"><title>Node2&#45;&gt;Node23</title>
<path fill="none" stroke="midnightblue" d="M1644.53,-295.608C1706.68,-284.73 1806.09,-267.334 1869.16,-256.298"/>
<polygon fill="midnightblue" stroke="midnightblue" points="1870.09,-259.687 1879.34,-254.516 1868.88,-252.792 1870.09,-259.687"/>
</g>
<!-- Node24 -->
<g id="node24" class="node"><title>Node24</title>
<polygon fill="white" stroke="#bfbfbf" points="864.5,-235.5 864.5,-254.5 927.5,-254.5 927.5,-235.5 864.5,-235.5"/>
<text text-anchor="middle" x="896" y="-242.5" font-family="Helvetica,sans-Serif" font-size="10.00">functional</text>
</g>
<!-- Node2&#45;&gt;Node24 -->
<g id="edge44" class="edge"><title>Node2&#45;&gt;Node24</title>
<path fill="none" stroke="midnightblue" d="M1531.38,-301.251C1423.85,-293.08 1182.71,-274.276 980,-255 966.271,-253.695 951.294,-252.134 937.839,-250.682"/>
<polygon fill="midnightblue" stroke="midnightblue" points="938.212,-247.202 927.892,-249.598 937.454,-254.16 938.212,-247.202"/>
</g>
<!-- Node25 -->
<g id="node25" class="node"><title>Node25</title>
<polygon fill="white" stroke="#bfbfbf" points="1326.5,-235.5 1326.5,-254.5 1367.5,-254.5 1367.5,-235.5 1326.5,-235.5"/>
<text text-anchor="middle" x="1347" y="-242.5" font-family="Helvetica,sans-Serif" font-size="10.00">tuple</text>
</g>
<!-- Node2&#45;&gt;Node25 -->
<g id="edge45" class="edge"><title>Node2&#45;&gt;Node25</title>
<path fill="none" stroke="midnightblue" d="M1531.12,-291.739C1489.73,-281.682 1432.36,-267.646 1382,-255 1380.55,-254.637 1379.08,-254.264 1377.58,-253.886"/>
<polygon fill="midnightblue" stroke="midnightblue" points="1378.27,-250.45 1367.72,-251.369 1376.54,-257.232 1378.27,-250.45"/>
</g>
<!-- Node26 -->
<g id="node26" class="node"><title>Node26</title>
<polygon fill="white" stroke="#bfbfbf" points="2622,-235.5 2622,-254.5 2664,-254.5 2664,-235.5 2622,-235.5"/>
<text text-anchor="middle" x="2643" y="-242.5" font-family="Helvetica,sans-Serif" font-size="10.00">limits</text>
</g>
<!-- Node2&#45;&gt;Node26 -->
<g id="edge48" class="edge"><title>Node2&#45;&gt;Node26</title>
<path fill="none" stroke="midnightblue" d="M1644.72,-302.301C1837.63,-291.421 2464.52,-256.066 2611.81,-247.759"/>
<polygon fill="midnightblue" stroke="midnightblue" points="2612.17,-251.244 2621.96,-247.187 2611.77,-244.256 2612.17,-251.244"/>
</g>
<!-- Node5 -->
<g id="node5" class="node"><title>Node5</title>
<polygon fill="white" stroke="#bfbfbf" points="1881,-0.5 1881,-19.5 1971,-19.5 1971,-0.5 1881,-0.5"/>
<text text-anchor="middle" x="1926" y="-7.5" font-family="Helvetica,sans-Serif" font-size="10.00">dlpack/dlpack.h</text>
</g>
<!-- Node4&#45;&gt;Node5 -->
<g id="edge4" class="edge"><title>Node4&#45;&gt;Node5</title>
<path fill="none" stroke="midnightblue" d="M1994.67,-56.3993C1980.51,-47.0402 1961.99,-34.7924 1947.75,-25.3771"/>
<polygon fill="midnightblue" stroke="midnightblue" points="1949.37,-22.2531 1939.1,-19.6578 1945.51,-28.0923 1949.37,-22.2531"/>
</g>
<!-- Node6 -->
<g id="node6" class="node"><title>Node6</title>
<polygon fill="white" stroke="#bfbfbf" points="1989.5,-0.5 1989.5,-19.5 2042.5,-19.5 2042.5,-0.5 1989.5,-0.5"/>
<text text-anchor="middle" x="2016" y="-7.5" font-family="Helvetica,sans-Serif" font-size="10.00">stdint.h</text>
</g>
<!-- Node4&#45;&gt;Node6 -->
<g id="edge5" class="edge"><title>Node4&#45;&gt;Node6</title>
<path fill="none" stroke="midnightblue" d="M2016,-56.3993C2016,-48.4664 2016,-38.458 2016,-29.8583"/>
<polygon fill="midnightblue" stroke="midnightblue" points="2019.5,-29.6577 2016,-19.6578 2012.5,-29.6578 2019.5,-29.6577"/>
</g>
<!-- Node7 -->
<g id="node7" class="node"><title>Node7</title>
<polygon fill="white" stroke="#bfbfbf" points="2060.5,-0.5 2060.5,-19.5 2115.5,-19.5 2115.5,-0.5 2060.5,-0.5"/>
<text text-anchor="middle" x="2088" y="-7.5" font-family="Helvetica,sans-Serif" font-size="10.00">stddef.h</text>
</g>
<!-- Node4&#45;&gt;Node7 -->
<g id="edge6" class="edge"><title>Node4&#45;&gt;Node7</title>
<path fill="none" stroke="midnightblue" d="M2033.06,-56.3993C2044.06,-47.3076 2058.37,-35.4899 2069.62,-26.1909"/>
<polygon fill="midnightblue" stroke="midnightblue" points="2072.04,-28.726 2077.52,-19.6578 2067.59,-23.33 2072.04,-28.726"/>
</g>
<!-- Node8&#45;&gt;Node2 -->
<g id="edge26" class="edge"><title>Node8&#45;&gt;Node2</title>
<path fill="none" stroke="midnightblue" d="M1692.05,-254.658C1677.44,-263.084 1652.4,-276.159 1630.49,-286.94"/>
<polygon fill="midnightblue" stroke="midnightblue" points="1628.79,-283.875 1621.33,-291.399 1631.85,-290.169 1628.79,-283.875"/>
</g>
<!-- Node8&#45;&gt;Node4 -->
<g id="edge9" class="edge"><title>Node8&#45;&gt;Node4</title>
<path fill="none" stroke="midnightblue" d="M1754.34,-235.496C1786.91,-228.654 1829.52,-217.131 1864,-199 1917.33,-170.956 1968.97,-121.911 1996.18,-93.8396"/>
<polygon fill="midnightblue" stroke="midnightblue" points="1998.81,-96.1591 2003.19,-86.513 1993.75,-91.3209 1998.81,-96.1591"/>
</g>
<!-- Node9 -->
<g id="node9" class="node"><title>Node9</title>
<polygon fill="white" stroke="#bfbfbf" points="1852,-123.5 1852,-142.5 1912,-142.5 1912,-123.5 1852,-123.5"/>
<text text-anchor="middle" x="1882" y="-130.5" font-family="Helvetica,sans-Serif" font-size="10.00">dmlc/io.h</text>
</g>
<!-- Node8&#45;&gt;Node9 -->
<g id="edge8" class="edge"><title>Node8&#45;&gt;Node9</title>
<path fill="none" stroke="midnightblue" d="M1755.73,-235.494C1782.94,-229.015 1815.61,-217.867 1840,-199 1855.74,-186.829 1867.32,-166.994 1874.29,-152.431"/>
<polygon fill="midnightblue" stroke="midnightblue" points="1877.65,-153.5 1878.54,-142.944 1871.26,-150.636 1877.65,-153.5"/>
</g>
<!-- Node8&#45;&gt;Node10 -->
<g id="edge10" class="edge"><title>Node8&#45;&gt;Node10</title>
<path fill="none" stroke="midnightblue" d="M1684.14,-235.408C1652.05,-221.8 1586.57,-195.181 1529,-179 1474.77,-163.755 1411.94,-151.878 1365.51,-144.163"/>
<polygon fill="midnightblue" stroke="midnightblue" points="1366,-140.697 1355.57,-142.533 1364.87,-147.605 1366,-140.697"/>
</g>
<!-- Node8&#45;&gt;Node12 -->
<g id="edge24" class="edge"><title>Node8&#45;&gt;Node12</title>
<path fill="none" stroke="midnightblue" d="M1742.93,-235.476C1781.63,-226.849 1842.63,-212.842 1895,-199 2010.98,-168.345 2036.13,-145.336 2154,-123 2354.2,-85.062 2599.85,-75.461 2686.71,-73.1737"/>
<polygon fill="midnightblue" stroke="midnightblue" points="2687.06,-76.6662 2696.97,-72.9187 2686.89,-69.6684 2687.06,-76.6662"/>
</g>
<!-- Node15 -->
<g id="node15" class="node"><title>Node15</title>
<g id="a_node15"><a xlink:href="runtime_2memory_8h.html" target="_top" xlink:title="Runtime memory management. ">
<polygon fill="white" stroke="black" points="750.5,-179.5 750.5,-198.5 877.5,-198.5 877.5,-179.5 750.5,-179.5"/>
<text text-anchor="middle" x="814" y="-186.5" font-family="Helvetica,sans-Serif" font-size="10.00">tvm/runtime/memory.h</text>
</a>
</g>
</g>
<!-- Node8&#45;&gt;Node15 -->
<g id="edge17" class="edge"><title>Node8&#45;&gt;Node15</title>
<path fill="none" stroke="midnightblue" d="M1641.98,-235.97C1638.6,-235.62 1635.26,-235.293 1632,-235 1358.09,-210.377 1031.29,-197.278 887.762,-192.341"/>
<polygon fill="midnightblue" stroke="midnightblue" points="887.861,-188.843 877.747,-192 887.622,-195.839 887.861,-188.843"/>
</g>
<!-- Node8&#45;&gt;Node17 -->
<g id="edge22" class="edge"><title>Node8&#45;&gt;Node17</title>
<path fill="none" stroke="midnightblue" d="M1648.7,-235.444C1577.66,-224.451 1456.13,-205.647 1394.02,-196.038"/>
<polygon fill="midnightblue" stroke="midnightblue" points="1394.28,-192.537 1383.87,-194.466 1393.21,-199.454 1394.28,-192.537"/>
</g>
<!-- Node8&#45;&gt;Node18 -->
<g id="edge23" class="edge"><title>Node8&#45;&gt;Node18</title>
<path fill="none" stroke="midnightblue" d="M1766.24,-238.323C1890.7,-226.97 2166.58,-201.805 2262.42,-193.063"/>
<polygon fill="midnightblue" stroke="midnightblue" points="2262.78,-196.545 2272.42,-192.151 2262.14,-189.574 2262.78,-196.545"/>
</g>
<!-- Node8&#45;&gt;Node19 -->
<g id="edge25" class="edge"><title>Node8&#45;&gt;Node19</title>
<path fill="none" stroke="midnightblue" d="M1766.21,-239.872C1792.38,-238.218 1823.16,-236.381 1851,-235 2284.05,-213.51 2806.72,-196.88 2977.24,-191.693"/>
<polygon fill="midnightblue" stroke="midnightblue" points="2977.59,-195.184 2987.48,-191.382 2977.38,-188.187 2977.59,-195.184"/>
</g>
<!-- Node10&#45;&gt;Node3 -->
<g id="edge11" class="edge"><title>Node10&#45;&gt;Node3</title>
<path fill="none" stroke="midnightblue" d="M1276.22,-123.475C1250.26,-113.313 1206.69,-96.2564 1177.17,-84.6996"/>
<polygon fill="midnightblue" stroke="midnightblue" points="1178.33,-81.3951 1167.74,-81.0091 1175.77,-87.9135 1178.33,-81.3951"/>
</g>
<!-- Node10&#45;&gt;Node4 -->
<g id="edge12" class="edge"><title>Node10&#45;&gt;Node4</title>
<path fill="none" stroke="midnightblue" d="M1356.76,-127.131C1486.93,-116.343 1799.37,-90.4519 1942.34,-78.6045"/>
<polygon fill="midnightblue" stroke="midnightblue" points="1942.65,-82.0901 1952.33,-77.7761 1942.08,-75.1141 1942.65,-82.0901"/>
</g>
<!-- Node10&#45;&gt;Node11 -->
<g id="edge13" class="edge"><title>Node10&#45;&gt;Node11</title>
<path fill="none" stroke="midnightblue" d="M1239.44,-124.677C1234.56,-124.098 1229.69,-123.532 1225,-123 1061.16,-104.442 866.119,-85.134 780.275,-76.7766"/>
<polygon fill="midnightblue" stroke="midnightblue" points="780.405,-73.2729 770.114,-75.7889 779.728,-80.24 780.405,-73.2729"/>
</g>
<!-- Node10&#45;&gt;Node12 -->
<g id="edge14" class="edge"><title>Node10&#45;&gt;Node12</title>
<path fill="none" stroke="midnightblue" d="M1356.8,-129.538C1597.65,-119.453 2504.66,-81.4748 2686.97,-73.8413"/>
<polygon fill="midnightblue" stroke="midnightblue" points="2687.14,-77.3371 2696.99,-73.4217 2686.85,-70.3432 2687.14,-77.3371"/>
</g>
<!-- Node10&#45;&gt;Node13 -->
<g id="edge15" class="edge"><title>Node10&#45;&gt;Node13</title>
<path fill="none" stroke="midnightblue" d="M1239.18,-128.609C1047.18,-117.539 442.747,-82.6903 297.576,-74.3205"/>
<polygon fill="midnightblue" stroke="midnightblue" points="297.365,-70.8026 287.18,-73.7211 296.962,-77.791 297.365,-70.8026"/>
</g>
<!-- Node14 -->
<g id="node14" class="node"><title>Node14</title>
<polygon fill="white" stroke="#bfbfbf" points="1406,-62 1406,-81 1456,-81 1456,-62 1406,-62"/>
<text text-anchor="middle" x="1431" y="-69" font-family="Helvetica,sans-Serif" font-size="10.00">atomic</text>
</g>
<!-- Node10&#45;&gt;Node14 -->
<g id="edge16" class="edge"><title>Node10&#45;&gt;Node14</title>
<path fill="none" stroke="midnightblue" d="M1317.06,-123.475C1339.47,-113.445 1376.91,-96.7002 1402.71,-85.1546"/>
<polygon fill="midnightblue" stroke="midnightblue" points="1404.28,-88.2877 1411.98,-81.0091 1401.42,-81.8979 1404.28,-88.2877"/>
</g>
<!-- Node15&#45;&gt;Node10 -->
<g id="edge18" class="edge"><title>Node15&#45;&gt;Node10</title>
<path fill="none" stroke="midnightblue" d="M877.848,-180.609C882.637,-180.062 887.395,-179.521 892,-179 1010.6,-165.585 1148.74,-150.359 1229.46,-141.502"/>
<polygon fill="midnightblue" stroke="midnightblue" points="1229.94,-144.97 1239.5,-140.401 1229.18,-138.012 1229.94,-144.97"/>
</g>
<!-- Node15&#45;&gt;Node11 -->
<g id="edge21" class="edge"><title>Node15&#45;&gt;Node11</title>
<path fill="none" stroke="midnightblue" d="M815.022,-179.311C816.134,-166.15 816.535,-140.811 806,-123 796.397,-106.765 779.314,-94.286 764.428,-85.7947"/>
<polygon fill="midnightblue" stroke="midnightblue" points="765.997,-82.6648 755.53,-81.025 762.69,-88.8343 765.997,-82.6648"/>
</g>
<!-- Node15&#45;&gt;Node13 -->
<g id="edge20" class="edge"><title>Node15&#45;&gt;Node13</title>
<path fill="none" stroke="midnightblue" d="M773.911,-179.437C715.456,-166.961 603.395,-143.085 508,-123 432.217,-107.044 343.034,-88.4917 296.993,-78.9305"/>
<polygon fill="midnightblue" stroke="midnightblue" points="297.549,-75.4713 287.046,-76.8654 296.126,-82.3252 297.549,-75.4713"/>
</g>
<!-- Node16 -->
<g id="node16" class="node"><title>Node16</title>
<polygon fill="white" stroke="#bfbfbf" points="750.5,-123.5 750.5,-142.5 797.5,-142.5 797.5,-123.5 750.5,-123.5"/>
<text text-anchor="middle" x="774" y="-130.5" font-family="Helvetica,sans-Serif" font-size="10.00">cstdlib</text>
</g>
<!-- Node15&#45;&gt;Node16 -->
<g id="edge19" class="edge"><title>Node15&#45;&gt;Node16</title>
<path fill="none" stroke="midnightblue" d="M807.395,-179.083C801.745,-171.455 793.455,-160.264 786.549,-150.941"/>
<polygon fill="midnightblue" stroke="midnightblue" points="789.247,-148.703 780.482,-142.751 783.622,-152.87 789.247,-148.703"/>
</g>
<!-- Node20&#45;&gt;Node4 -->
<g id="edge28" class="edge"><title>Node20&#45;&gt;Node4</title>
<path fill="none" stroke="midnightblue" d="M1623.54,-235.669C1691.28,-226.034 1792.57,-210.081 1807,-199 1836.64,-176.231 1814.56,-147.255 1843,-123 1870.61,-99.4464 1908.72,-86.8695 1942.15,-80.1577"/>
<polygon fill="midnightblue" stroke="midnightblue" points="1943.16,-83.5289 1952.35,-78.2573 1941.88,-76.6471 1943.16,-83.5289"/>
</g>
<!-- Node20&#45;&gt;Node10 -->
<g id="edge29" class="edge"><title>Node20&#45;&gt;Node10</title>
<path fill="none" stroke="midnightblue" d="M1556.55,-235.269C1547.22,-221.092 1526.77,-193.224 1502,-179 1460.74,-155.308 1408.2,-144.081 1366.77,-138.765"/>
<polygon fill="midnightblue" stroke="midnightblue" points="1367.11,-135.28 1356.76,-137.567 1366.28,-142.231 1367.11,-135.28"/>
</g>
<!-- Node20&#45;&gt;Node13 -->
<g id="edge37" class="edge"><title>Node20&#45;&gt;Node13</title>
<path fill="none" stroke="midnightblue" d="M1544.15,-235.318C1513.72,-220.952 1449.53,-192.484 1392,-179 1174.75,-128.078 455.742,-83.6305 297.137,-74.298"/>
<polygon fill="midnightblue" stroke="midnightblue" points="297.292,-70.8012 287.105,-73.7107 296.883,-77.7892 297.292,-70.8012"/>
</g>
<!-- Node20&#45;&gt;Node14 -->
<g id="edge35" class="edge"><title>Node20&#45;&gt;Node14</title>
<path fill="none" stroke="midnightblue" d="M1558.44,-235.163C1553.03,-222.246 1541.99,-197.713 1529,-179 1504.46,-143.65 1468.89,-107.933 1448.04,-88.1609"/>
<polygon fill="midnightblue" stroke="midnightblue" points="1450.26,-85.4486 1440.57,-81.1684 1445.48,-90.5582 1450.26,-85.4486"/>
</g>
<!-- Node20&#45;&gt;Node18 -->
<g id="edge36" class="edge"><title>Node20&#45;&gt;Node18</title>
<path fill="none" stroke="midnightblue" d="M1623.55,-235.975C1626.74,-235.628 1629.91,-235.301 1633,-235 1873.73,-211.593 2164.8,-196.345 2262.33,-191.59"/>
<polygon fill="midnightblue" stroke="midnightblue" points="2262.65,-195.079 2272.47,-191.099 2262.31,-188.087 2262.65,-195.079"/>
</g>
<!-- Node21 -->
<g id="node21" class="node"><title>Node21</title>
<g id="a_node21"><a xlink:href="serializer_8h.html" target="_top" xlink:title="Serializer extension to support TVM data types Include this file to enable serialization of DLDataTyp...">
<polygon fill="white" stroke="black" points="1668,-179.5 1668,-198.5 1798,-198.5 1798,-179.5 1668,-179.5"/>
<text text-anchor="middle" x="1733" y="-186.5" font-family="Helvetica,sans-Serif" font-size="10.00">tvm/runtime/serializer.h</text>
</a>
</g>
</g>
<!-- Node20&#45;&gt;Node21 -->
<g id="edge30" class="edge"><title>Node20&#45;&gt;Node21</title>
<path fill="none" stroke="midnightblue" d="M1584.01,-235.444C1611.13,-226.241 1657.44,-211.562 1691.31,-201.388"/>
<polygon fill="midnightblue" stroke="midnightblue" points="1692.37,-204.726 1700.95,-198.516 1690.37,-198.017 1692.37,-204.726"/>
</g>
<!-- Node21&#45;&gt;Node4 -->
<g id="edge33" class="edge"><title>Node21&#45;&gt;Node4</title>
<path fill="none" stroke="midnightblue" d="M1740.62,-179.388C1753.49,-165.384 1781,-137.758 1810,-123 1851.15,-102.061 1901.4,-89.5191 1941.97,-82.1716"/>
<polygon fill="midnightblue" stroke="midnightblue" points="1942.81,-85.5775 1952.06,-80.4136 1941.61,-78.6813 1942.81,-85.5775"/>
</g>
<!-- Node21&#45;&gt;Node9 -->
<g id="edge31" class="edge"><title>Node21&#45;&gt;Node9</title>
<path fill="none" stroke="midnightblue" d="M1756.61,-179.444C1781.46,-170.438 1820.77,-156.189 1848.75,-146.049"/>
<polygon fill="midnightblue" stroke="midnightblue" points="1850.29,-149.214 1858.5,-142.516 1847.91,-142.633 1850.29,-149.214"/>
</g>
<!-- Node21&#45;&gt;Node20 -->
<g id="edge34" class="edge"><title>Node21&#45;&gt;Node20</title>
<path fill="none" stroke="midnightblue" d="M1711.11,-198.516C1684.04,-207.703 1637.75,-222.381 1603.83,-232.568"/>
<polygon fill="midnightblue" stroke="midnightblue" points="1602.77,-229.233 1594.18,-235.444 1604.77,-235.942 1602.77,-229.233"/>
</g>
<!-- Node22 -->
<g id="node22" class="node"><title>Node22</title>
<polygon fill="white" stroke="#bfbfbf" points="1664,-123.5 1664,-142.5 1758,-142.5 1758,-123.5 1664,-123.5"/>
<text text-anchor="middle" x="1711" y="-130.5" font-family="Helvetica,sans-Serif" font-size="10.00">dmlc/serializer.h</text>
</g>
<!-- Node21&#45;&gt;Node22 -->
<g id="edge32" class="edge"><title>Node21&#45;&gt;Node22</title>
<path fill="none" stroke="midnightblue" d="M1729.37,-179.083C1726.39,-171.77 1722.07,-161.181 1718.38,-152.103"/>
<polygon fill="midnightblue" stroke="midnightblue" points="1721.58,-150.691 1714.57,-142.751 1715.1,-153.333 1721.58,-150.691"/>
</g>
<!-- Node23&#45;&gt;Node3 -->
<g id="edge40" class="edge"><title>Node23&#45;&gt;Node3</title>
<path fill="none" stroke="midnightblue" d="M1867.89,-235.479C1813.18,-227.361 1730.33,-214.155 1659,-199 1592.99,-184.975 1430.55,-139.027 1365,-123 1306.45,-108.685 1238.83,-93.2592 1194.39,-83.2747"/>
<polygon fill="midnightblue" stroke="midnightblue" points="1194.97,-79.8173 1184.45,-81.0436 1193.44,-86.6476 1194.97,-79.8173"/>
</g>
<!-- Node23&#45;&gt;Node4 -->
<g id="edge39" class="edge"><title>Node23&#45;&gt;Node4</title>
<path fill="none" stroke="midnightblue" d="M1974.36,-235.467C1995.07,-229.095 2017.58,-218.052 2030,-199 2050.22,-167.978 2037.97,-123.36 2027.09,-96.2414"/>
<polygon fill="midnightblue" stroke="midnightblue" points="2030.2,-94.6012 2023.06,-86.7699 2023.76,-97.3419 2030.2,-94.6012"/>
</g>
<!-- Node23&#45;&gt;Node11 -->
<g id="edge41" class="edge"><title>Node23&#45;&gt;Node11</title>
<path fill="none" stroke="midnightblue" d="M1930.84,-235.437C1937.6,-213.232 1951.88,-153.417 1921,-123 1918.41,-120.447 995.372,-82.9843 780.38,-74.2919"/>
<polygon fill="midnightblue" stroke="midnightblue" points="780.238,-70.7834 770.105,-73.8766 779.956,-77.7777 780.238,-70.7834"/>
</g>
<!-- Node23&#45;&gt;Node12 -->
<g id="edge42" class="edge"><title>Node23&#45;&gt;Node12</title>
<path fill="none" stroke="midnightblue" d="M1952.61,-235.452C2024.75,-210.5 2235.07,-138.543 2306,-123 2445.65,-92.3966 2616.21,-78.9292 2686.43,-74.3933"/>
<polygon fill="midnightblue" stroke="midnightblue" points="2687.05,-77.8609 2696.82,-73.7407 2686.62,-70.8747 2687.05,-77.8609"/>
</g>
<!-- Node27&#45;&gt;Node12 -->
<g id="edge121" class="edge"><title>Node27&#45;&gt;Node12</title>
<path fill="none" stroke="midnightblue" d="M479.683,-826.788C710.589,-828.374 1625.53,-817.073 2313,-557 2436.07,-510.442 2578,-556.58 2578,-425 2578,-425 2578,-425 2578,-367 2578,-250.858 2668.31,-131.984 2704.38,-89.1435"/>
<polygon fill="midnightblue" stroke="midnightblue" points="2707.17,-91.2694 2711.02,-81.3976 2701.85,-86.7158 2707.17,-91.2694"/>
</g>
<!-- Node27&#45;&gt;Node13 -->
<g id="edge124" class="edge"><title>Node27&#45;&gt;Node13</title>
<path fill="none" stroke="midnightblue" d="M401.198,-817.48C350.376,-798.243 229.954,-746.957 157,-669 62.6324,-568.161 76,-507.108 76,-369 76,-369 76,-369 76,-188 76,-157.205 77.5982,-144.131 100,-123 137.196,-87.9143 198.048,-77.1542 234.832,-73.8864"/>
<polygon fill="midnightblue" stroke="midnightblue" points="235.267,-77.3636 244.975,-73.1215 234.74,-70.3834 235.267,-77.3636"/>
</g>
<!-- Node27&#45;&gt;Node18 -->
<g id="edge122" class="edge"><title>Node27&#45;&gt;Node18</title>
<path fill="none" stroke="midnightblue" d="M479.595,-824.703C645.435,-820.016 1157.43,-800.034 1574,-725 1850.75,-675.151 1919.5,-652.492 2184,-557 2240.88,-536.465 2274.78,-551.526 2308,-501 2370.08,-406.586 2322.73,-258.889 2303.3,-207.966"/>
<polygon fill="midnightblue" stroke="midnightblue" points="2306.55,-206.65 2299.63,-198.623 2300.03,-209.21 2306.55,-206.65"/>
</g>
<!-- Node27&#45;&gt;Node28 -->
<g id="edge53" class="edge"><title>Node27&#45;&gt;Node28</title>
<path fill="none" stroke="midnightblue" d="M370.492,-817.444C308.99,-807.789 209.098,-792.108 144.223,-781.924"/>
<polygon fill="midnightblue" stroke="midnightblue" points="144.544,-778.432 134.122,-780.339 143.459,-785.348 144.544,-778.432"/>
</g>
<!-- Node29 -->
<g id="node29" class="node"><title>Node29</title>
<g id="a_node29"><a xlink:href="node_2container_8h.html" target="_top" xlink:title="Array/Map container in the DSL graph. ">
<polygon fill="white" stroke="black" points="1127.5,-414.5 1127.5,-433.5 1246.5,-433.5 1246.5,-414.5 1127.5,-414.5"/>
<text text-anchor="middle" x="1187" y="-421.5" font-family="Helvetica,sans-Serif" font-size="10.00">tvm/node/container.h</text>
</a>
</g>
</g>
<!-- Node27&#45;&gt;Node29 -->
<g id="edge56" class="edge"><title>Node27&#45;&gt;Node29</title>
<path fill="none" stroke="midnightblue" d="M431.257,-817.37C443.622,-799.437 470,-756.442 470,-716 470,-716 470,-716 470,-658 470,-473.149 664.36,-524.482 841,-470 933.826,-441.369 1046.13,-430.95 1117.08,-427.161"/>
<polygon fill="midnightblue" stroke="midnightblue" points="1117.43,-430.648 1127.24,-426.649 1117.08,-423.657 1117.43,-430.648"/>
</g>
<!-- Node33 -->
<g id="node33" class="node"><title>Node33</title>
<g id="a_node33"><a xlink:href="ir_2expr_8h.html" target="_top" xlink:title="Base expr nodes in TVM. ">
<polygon fill="white" stroke="black" points="1640.5,-761.5 1640.5,-780.5 1717.5,-780.5 1717.5,-761.5 1640.5,-761.5"/>
<text text-anchor="middle" x="1679" y="-768.5" font-family="Helvetica,sans-Serif" font-size="10.00">tvm/ir/expr.h</text>
</a>
</g>
</g>
<!-- Node27&#45;&gt;Node33 -->
<g id="edge77" class="edge"><title>Node27&#45;&gt;Node33</title>
<path fill="none" stroke="midnightblue" d="M479.559,-825.05C645.959,-821.903 1161.65,-810.305 1588,-781 1601.63,-780.063 1616.38,-778.739 1629.96,-777.394"/>
<polygon fill="midnightblue" stroke="midnightblue" points="1630.48,-780.859 1640.07,-776.367 1629.77,-773.895 1630.48,-780.859"/>
</g>
<!-- Node27&#45;&gt;Node41 -->
<g id="edge123" class="edge"><title>Node27&#45;&gt;Node41</title>
<path fill="none" stroke="midnightblue" d="M388.556,-817.444C348.601,-808.063 284.413,-792.993 241.015,-782.804"/>
<polygon fill="midnightblue" stroke="midnightblue" points="241.809,-779.395 231.274,-780.516 240.209,-786.21 241.809,-779.395"/>
</g>
<!-- Node28&#45;&gt;Node3 -->
<g id="edge54" class="edge"><title>Node28&#45;&gt;Node3</title>
<path fill="none" stroke="midnightblue" d="M113.624,-761.389C156.931,-747.755 228,-716.738 228,-660 228,-660 228,-660 228,-244 228,-155.399 897.297,-93.0667 1092.92,-76.7407"/>
<polygon fill="midnightblue" stroke="midnightblue" points="1093.28,-80.2228 1102.95,-75.9087 1092.7,-73.2467 1093.28,-80.2228"/>
</g>
<!-- Node28&#45;&gt;Node13 -->
<g id="edge55" class="edge"><title>Node28&#45;&gt;Node13</title>
<path fill="none" stroke="midnightblue" d="M75.021,-761.328C63.2058,-743.318 38,-700.189 38,-660 38,-660 38,-660 38,-188 38,-157.205 39.0498,-143.534 62,-123 110.607,-79.5111 190.802,-72.1336 234.769,-71.6407"/>
<polygon fill="midnightblue" stroke="midnightblue" points="234.867,-75.1406 244.867,-71.6428 234.868,-68.1406 234.867,-75.1406"/>
</g>
<!-- Node29&#45;&gt;Node2 -->
<g id="edge59" class="edge"><title>Node29&#45;&gt;Node2</title>
<path fill="none" stroke="midnightblue" d="M1216.81,-414.413C1282.88,-395.385 1442.59,-349.381 1529.43,-324.371"/>
<polygon fill="midnightblue" stroke="midnightblue" points="1530.49,-327.707 1539.13,-321.575 1528.55,-320.98 1530.49,-327.707"/>
</g>
<!-- Node29&#45;&gt;Node10 -->
<g id="edge57" class="edge"><title>Node29&#45;&gt;Node10</title>
<path fill="none" stroke="midnightblue" d="M1191.31,-414.297C1195.46,-405.418 1201.47,-391.12 1204,-378 1206.1,-367.143 1202.09,-188.347 1208,-179 1217.83,-163.446 1234.81,-153.073 1251.38,-146.251"/>
<polygon fill="midnightblue" stroke="midnightblue" points="1252.91,-149.419 1261.04,-142.633 1250.45,-142.864 1252.91,-149.419"/>
</g>
<!-- Node29&#45;&gt;Node11 -->
<g id="edge71" class="edge"><title>Node29&#45;&gt;Node11</title>
<path fill="none" stroke="midnightblue" d="M1188.51,-414.268C1191.94,-391.516 1197.97,-329.51 1170,-291 1148.03,-260.761 1127.54,-271.489 1094,-255 968.273,-193.193 819.498,-116.051 761.204,-85.6669"/>
<polygon fill="midnightblue" stroke="midnightblue" points="762.814,-82.5593 752.329,-81.038 759.577,-88.7658 762.814,-82.5593"/>
</g>
<!-- Node29&#45;&gt;Node12 -->
<g id="edge76" class="edge"><title>Node29&#45;&gt;Node12</title>
<path fill="none" stroke="midnightblue" d="M1245.91,-414.492C1352.41,-398.763 1583.85,-362.975 1777,-322 1895.42,-296.879 1924.97,-289.521 2041,-255 2140.96,-225.26 2164.29,-212.647 2263,-179 2336.3,-154.014 2352.96,-142.123 2428,-123 2520.7,-99.3782 2632.83,-83.3655 2686.85,-76.4169"/>
<polygon fill="midnightblue" stroke="midnightblue" points="2687.37,-79.8786 2696.85,-75.1484 2686.49,-72.9342 2687.37,-79.8786"/>
</g>
<!-- Node29&#45;&gt;Node13 -->
<g id="edge75" class="edge"><title>Node29&#45;&gt;Node13</title>
<path fill="none" stroke="midnightblue" d="M1131.03,-414.444C1080.56,-406.349 1004.43,-393.197 939,-378 850.336,-357.406 826.665,-355.426 742,-322 580.224,-258.13 547.523,-224.741 394,-143 357.662,-123.652 315.962,-100.506 290.298,-86.151"/>
<polygon fill="midnightblue" stroke="midnightblue" points="291.727,-82.9396 281.292,-81.1059 288.306,-89.0467 291.727,-82.9396"/>
</g>
<!-- Node29&#45;&gt;Node15 -->
<g id="edge58" class="edge"><title>Node29&#45;&gt;Node15</title>
<path fill="none" stroke="midnightblue" d="M1127.25,-415.612C1085.64,-409.09 1029.49,-397.499 983,-378 940.939,-360.358 931.866,-351.407 897,-322 865.987,-295.843 855.495,-290.014 835,-255 826.575,-240.608 821.07,-222.413 817.818,-208.937"/>
<polygon fill="midnightblue" stroke="midnightblue" points="821.178,-207.923 815.602,-198.914 814.343,-209.434 821.178,-207.923"/>
</g>
<!-- Node29&#45;&gt;Node18 -->
<g id="edge72" class="edge"><title>Node29&#45;&gt;Node18</title>
<path fill="none" stroke="midnightblue" d="M1246.9,-422.354C1361.83,-420.341 1620.98,-412.061 1836,-378 1937.36,-361.944 1964.61,-359.823 2060,-322 2144.01,-288.691 2235.12,-230.836 2275.15,-204.186"/>
<polygon fill="midnightblue" stroke="midnightblue" points="2277.19,-207.03 2283.55,-198.552 2273.29,-201.217 2277.19,-207.03"/>
</g>
<!-- Node29&#45;&gt;Node19 -->
<g id="edge74" class="edge"><title>Node29&#45;&gt;Node19</title>
<path fill="none" stroke="midnightblue" d="M1246.62,-422.054C1370.38,-419.479 1663.99,-410.206 1908,-378 2224.97,-336.165 2297.04,-283.821 2613,-235 2742.75,-214.951 2896.38,-200.973 2977.41,-194.354"/>
<polygon fill="midnightblue" stroke="midnightblue" points="2977.72,-197.841 2987.4,-193.546 2977.15,-190.864 2977.72,-197.841"/>
</g>
<!-- Node30 -->
<g id="node30" class="node"><title>Node30</title>
<g id="a_node30"><a xlink:href="runtime_2container_8h.html" target="_top" xlink:title="Common POD(plain old data) container types. ">
<polygon fill="white" stroke="black" points="992,-358.5 992,-377.5 1124,-377.5 1124,-358.5 992,-358.5"/>
<text text-anchor="middle" x="1058" y="-365.5" font-family="Helvetica,sans-Serif" font-size="10.00">tvm/runtime/container.h</text>
</a>
</g>
</g>
<!-- Node29&#45;&gt;Node30 -->
<g id="edge60" class="edge"><title>Node29&#45;&gt;Node30</title>
<path fill="none" stroke="midnightblue" d="M1166.56,-414.444C1145.33,-405.557 1111.9,-391.563 1087.75,-381.451"/>
<polygon fill="midnightblue" stroke="midnightblue" points="1088.92,-378.149 1078.34,-377.516 1086.22,-384.606 1088.92,-378.149"/>
</g>
<!-- Node32 -->
<g id="node32" class="node"><title>Node32</title>
<polygon fill="white" stroke="#bfbfbf" points="1084.5,-297 1084.5,-316 1161.5,-316 1161.5,-297 1084.5,-297"/>
<text text-anchor="middle" x="1123" y="-304" font-family="Helvetica,sans-Serif" font-size="10.00">initializer_list</text>
</g>
<!-- Node29&#45;&gt;Node32 -->
<g id="edge73" class="edge"><title>Node29&#45;&gt;Node32</title>
<path fill="none" stroke="midnightblue" d="M1182.19,-414.319C1171.72,-395.422 1146.69,-350.248 1132.76,-325.121"/>
<polygon fill="midnightblue" stroke="midnightblue" points="1135.77,-323.333 1127.87,-316.282 1129.65,-326.725 1135.77,-323.333"/>
</g>
<!-- Node30&#45;&gt;Node2 -->
<g id="edge64" class="edge"><title>Node30&#45;&gt;Node2</title>
<path fill="none" stroke="midnightblue" d="M1124.05,-359.585C1225.6,-348.185 1418.98,-326.475 1521.06,-315.015"/>
<polygon fill="midnightblue" stroke="midnightblue" points="1521.7,-318.465 1531.24,-313.872 1520.92,-311.509 1521.7,-318.465"/>
</g>
<!-- Node30&#45;&gt;Node3 -->
<g id="edge61" class="edge"><title>Node30&#45;&gt;Node3</title>
<path fill="none" stroke="midnightblue" d="M1008.59,-358.469C975.746,-351.547 932.318,-339.945 897,-322 796.81,-271.093 666.613,-207.238 741,-123 763.922,-97.0424 988.006,-81.2806 1092.66,-75.2797"/>
<polygon fill="midnightblue" stroke="midnightblue" points="1092.92,-78.7708 1102.7,-74.7127 1092.52,-71.7819 1092.92,-78.7708"/>
</g>
<!-- Node30&#45;&gt;Node10 -->
<g id="edge63" class="edge"><title>Node30&#45;&gt;Node10</title>
<path fill="none" stroke="midnightblue" d="M1058.6,-358.11C1059.9,-343.432 1063.8,-313.514 1075,-291 1104.08,-232.563 1116.23,-216.001 1170,-179 1193.02,-163.156 1222.2,-152.333 1246.88,-145.279"/>
<polygon fill="midnightblue" stroke="midnightblue" points="1248.08,-148.582 1256.8,-142.575 1246.23,-141.828 1248.08,-148.582"/>
</g>
<!-- Node30&#45;&gt;Node11 -->
<g id="edge68" class="edge"><title>Node30&#45;&gt;Node11</title>
<path fill="none" stroke="midnightblue" d="M1007.38,-358.452C931.741,-342.536 792.614,-300.278 741,-199 723.266,-164.201 727.743,-116.76 732.14,-90.9956"/>
<polygon fill="midnightblue" stroke="midnightblue" points="735.594,-91.5695 734.015,-81.0929 728.716,-90.2673 735.594,-91.5695"/>
</g>
<!-- Node30&#45;&gt;Node12 -->
<g id="edge67" class="edge"><title>Node30&#45;&gt;Node12</title>
<path fill="none" stroke="midnightblue" d="M1124.29,-364.426C1234.44,-359.602 1461.99,-347.32 1653,-322 1810.87,-301.073 1853.42,-303.843 2005,-255 2025.06,-248.536 2028.57,-243.18 2048,-235 2080.41,-221.354 2309.91,-131.625 2344,-123 2468.27,-91.5595 2620.98,-78.7082 2686.56,-74.3747"/>
<polygon fill="midnightblue" stroke="midnightblue" points="2686.93,-77.8585 2696.69,-73.7284 2686.48,-70.8727 2686.93,-77.8585"/>
</g>
<!-- Node30&#45;&gt;Node13 -->
<g id="edge69" class="edge"><title>Node30&#45;&gt;Node13</title>
<path fill="none" stroke="midnightblue" d="M996.698,-358.46C951.145,-351.21 887.838,-339.217 834,-322 648.488,-262.675 610.032,-226.348 434,-143 416.036,-134.494 412.151,-131.1 394,-123 361.259,-108.39 322.916,-93.5542 296.791,-83.7785"/>
<polygon fill="midnightblue" stroke="midnightblue" points="297.667,-80.3704 287.074,-80.1653 295.227,-86.9314 297.667,-80.3704"/>
</g>
<!-- Node30&#45;&gt;Node15 -->
<g id="edge62" class="edge"><title>Node30&#45;&gt;Node15</title>
<path fill="none" stroke="midnightblue" d="M1033.49,-358.393C992.455,-342.998 909.053,-307.382 855,-255 840.968,-241.402 829.573,-222.089 822.389,-208.051"/>
<polygon fill="midnightblue" stroke="midnightblue" points="825.461,-206.365 817.926,-198.918 819.172,-209.439 825.461,-206.365"/>
</g>
<!-- Node30&#45;&gt;Node18 -->
<g id="edge70" class="edge"><title>Node30&#45;&gt;Node18</title>
<path fill="none" stroke="midnightblue" d="M1124.09,-364.624C1286.57,-357.718 1717.76,-332.913 2068,-255 2138.08,-239.411 2218.5,-214.892 2262.64,-200.848"/>
<polygon fill="midnightblue" stroke="midnightblue" points="2263.82,-204.146 2272.27,-197.765 2261.68,-197.479 2263.82,-204.146"/>
</g>
<!-- Node31 -->
<g id="node31" class="node"><title>Node31</title>
<polygon fill="white" stroke="#bfbfbf" points="978.5,-297 978.5,-316 1027.5,-316 1027.5,-297 978.5,-297"/>
<text text-anchor="middle" x="1003" y="-304" font-family="Helvetica,sans-Serif" font-size="10.00">cstring</text>
</g>
<!-- Node30&#45;&gt;Node31 -->
<g id="edge65" class="edge"><title>Node30&#45;&gt;Node31</title>
<path fill="none" stroke="midnightblue" d="M1050.12,-358.475C1041.71,-349.373 1028.18,-334.741 1017.77,-323.483"/>
<polygon fill="midnightblue" stroke="midnightblue" points="1020.22,-320.977 1010.87,-316.009 1015.08,-325.728 1020.22,-320.977"/>
</g>
<!-- Node30&#45;&gt;Node32 -->
<g id="edge66" class="edge"><title>Node30&#45;&gt;Node32</title>
<path fill="none" stroke="midnightblue" d="M1067.31,-358.475C1077.45,-349.197 1093.86,-334.171 1106.25,-322.831"/>
<polygon fill="midnightblue" stroke="midnightblue" points="1108.69,-325.343 1113.7,-316.009 1103.96,-320.18 1108.69,-325.343"/>
</g>
<!-- Node33&#45;&gt;Node10 -->
<g id="edge78" class="edge"><title>Node33&#45;&gt;Node10</title>
<path fill="none" stroke="midnightblue" d="M1682.37,-761.294C1702.91,-706.69 1805.3,-409.895 1653,-291 1585.6,-238.381 1539.03,-296.02 1464,-255 1423.17,-232.68 1429.61,-206.392 1392,-179 1373.32,-165.394 1349.88,-154.163 1331.08,-146.324"/>
<polygon fill="midnightblue" stroke="midnightblue" points="1332.3,-143.043 1321.72,-142.539 1329.68,-149.533 1332.3,-143.043"/>
</g>
<!-- Node33&#45;&gt;Node11 -->
<g id="edge120" class="edge"><title>Node33&#45;&gt;Node11</title>
<path fill="none" stroke="midnightblue" d="M1640.28,-762.91C1635.48,-762.183 1630.64,-761.522 1626,-761 1483.79,-744.995 1120.05,-766.198 983,-725 935.696,-710.781 927.065,-697.891 887,-669 795.301,-602.876 756.385,-596.577 696,-501 607.633,-361.133 616.887,-306.853 594,-143 592.77,-134.197 588.875,-130.262 594,-123 615.918,-91.9428 658.69,-79.8716 691.588,-75.2395"/>
<polygon fill="midnightblue" stroke="midnightblue" points="692.382,-78.6687 701.884,-73.9824 691.533,-71.7203 692.382,-78.6687"/>
</g>
<!-- Node33&#45;&gt;Node12 -->
<g id="edge117" class="edge"><title>Node33&#45;&gt;Node12</title>
<path fill="none" stroke="midnightblue" d="M1717.89,-768.691C1829.44,-764.66 2148.9,-751.098 2250,-725 2270.8,-719.631 2273.9,-712.578 2294,-705 2506.07,-625.044 2586.31,-671.345 2782,-557 2855.28,-514.18 2920,-509.874 2920,-425 2920,-425 2920,-425 2920,-188 2920,-157.205 2918.58,-143.935 2896,-123 2855.94,-85.8677 2790.47,-75.8077 2751.38,-73.2222"/>
<polygon fill="midnightblue" stroke="midnightblue" points="2751.26,-69.7114 2741.09,-72.6749 2750.89,-76.7015 2751.26,-69.7114"/>
</g>
<!-- Node33&#45;&gt;Node26 -->
<g id="edge119" class="edge"><title>Node33&#45;&gt;Node26</title>
<path fill="none" stroke="midnightblue" d="M1717.68,-768.608C1824.1,-764.482 2119.55,-750.956 2213,-725 2233.35,-719.348 2538.07,-570.865 2554,-557 2576.69,-537.253 2580.38,-528.741 2592,-501 2627,-417.468 2638.46,-308.264 2641.79,-264.917"/>
<polygon fill="midnightblue" stroke="midnightblue" points="2645.29,-264.948 2642.51,-254.726 2638.31,-264.454 2645.29,-264.948"/>
</g>
<!-- Node33&#45;&gt;Node29 -->
<g id="edge105" class="edge"><title>Node33&#45;&gt;Node29</title>
<path fill="none" stroke="midnightblue" d="M1640.24,-763.272C1635.44,-762.483 1630.61,-761.708 1626,-761 1544.52,-748.487 891,-742.434 891,-660 891,-660 891,-660 891,-602 891,-496.926 1030.09,-452.735 1117.58,-435.331"/>
<polygon fill="midnightblue" stroke="midnightblue" points="1118.29,-438.758 1127.46,-433.436 1116.98,-431.883 1118.29,-438.758"/>
</g>
<!-- Node34 -->
<g id="node34" class="node"><title>Node34</title>
<g id="a_node34"><a xlink:href="node_8h.html" target="_top" xlink:title="Definitions and helper macros for IR/AST nodes. ">
<polygon fill="white" stroke="red" points="1481,-593.5 1481,-612.5 1579,-612.5 1579,-593.5 1481,-593.5"/>
<text text-anchor="middle" x="1530" y="-600.5" font-family="Helvetica,sans-Serif" font-size="10.00">tvm/node/node.h</text>
</a>
</g>
</g>
<!-- Node33&#45;&gt;Node34 -->
<g id="edge79" class="edge"><title>Node33&#45;&gt;Node34</title>
<path fill="none" stroke="midnightblue" d="M1678.98,-761.455C1678.46,-739.803 1674.17,-682.16 1644,-649 1629.1,-632.628 1607.49,-622.131 1587.08,-615.438"/>
<polygon fill="midnightblue" stroke="midnightblue" points="1588.09,-612.086 1577.5,-612.536 1586.06,-618.785 1588.09,-612.086"/>
</g>
<!-- Node38 -->
<g id="node38" class="node"><title>Node38</title>
<g id="a_node38"><a xlink:href="span_8h.html" target="_top" xlink:title="Span information for debugging purposes. ">
<polygon fill="white" stroke="black" points="1555,-649.5 1555,-668.5 1635,-668.5 1635,-649.5 1555,-649.5"/>
<text text-anchor="middle" x="1595" y="-656.5" font-family="Helvetica,sans-Serif" font-size="10.00">tvm/ir/span.h</text>
</a>
</g>
</g>
<!-- Node33&#45;&gt;Node38 -->
<g id="edge106" class="edge"><title>Node33&#45;&gt;Node38</title>
<path fill="none" stroke="midnightblue" d="M1672.41,-761.368C1658.48,-743.135 1625.87,-700.426 1607.73,-676.675"/>
<polygon fill="midnightblue" stroke="midnightblue" points="1610.41,-674.415 1601.56,-668.591 1604.85,-678.663 1610.41,-674.415"/>
</g>
<!-- Node39 -->
<g id="node39" class="node"><title>Node39</title>
<g id="a_node39"><a xlink:href="ir_2type_8h.html" target="_top" xlink:title="IR/AST nodes for the unified type system in TVM. ">
<polygon fill="white" stroke="black" points="1488.5,-705.5 1488.5,-724.5 1565.5,-724.5 1565.5,-705.5 1488.5,-705.5"/>
<text text-anchor="middle" x="1527" y="-712.5" font-family="Helvetica,sans-Serif" font-size="10.00">tvm/ir/type.h</text>
</a>
</g>
</g>
<!-- Node33&#45;&gt;Node39 -->
<g id="edge110" class="edge"><title>Node33&#45;&gt;Node39</title>
<path fill="none" stroke="midnightblue" d="M1654.92,-761.444C1629.46,-752.399 1589.11,-738.064 1560.54,-727.916"/>
<polygon fill="midnightblue" stroke="midnightblue" points="1561.57,-724.566 1550.97,-724.516 1559.22,-731.162 1561.57,-724.566"/>
</g>
<!-- Node40 -->
<g id="node40" class="node"><title>Node40</title>
<polygon fill="white" stroke="#bfbfbf" points="2303,-705.5 2303,-724.5 2365,-724.5 2365,-705.5 2303,-705.5"/>
<text text-anchor="middle" x="2334" y="-712.5" font-family="Helvetica,sans-Serif" font-size="10.00">algorithm</text>
</g>
<!-- Node33&#45;&gt;Node40 -->
<g id="edge118" class="edge"><title>Node33&#45;&gt;Node40</title>
<path fill="none" stroke="midnightblue" d="M1717.71,-768.807C1814.45,-765.465 2074.36,-754.267 2289,-725 2290.11,-724.849 2291.22,-724.688 2292.35,-724.518"/>
<polygon fill="midnightblue" stroke="midnightblue" points="2293.33,-727.903 2302.61,-722.793 2292.17,-721 2293.33,-727.903"/>
</g>
<!-- Node34&#45;&gt;Node4 -->
<g id="edge80" class="edge"><title>Node34&#45;&gt;Node4</title>
<path fill="none" stroke="midnightblue" d="M1579.2,-600.868C1710.94,-597.479 2069.49,-585.806 2184,-557 2242.64,-542.248 2267.9,-546.266 2308,-501 2389.21,-409.318 2424.77,-349.002 2380,-235 2367.59,-203.386 2356.49,-197.49 2328,-179 2253.91,-130.913 2155.76,-102.099 2089.49,-86.7975"/>
<polygon fill="midnightblue" stroke="midnightblue" points="2090.07,-83.3402 2079.54,-84.547 2088.52,-90.1676 2090.07,-83.3402"/>
</g>
<!-- Node34&#45;&gt;Node10 -->
<g id="edge82" class="edge"><title>Node34&#45;&gt;Node10</title>
<path fill="none" stroke="midnightblue" d="M1480.96,-598.345C1414.49,-590.416 1304,-565.373 1304,-486.5 1304,-486.5 1304,-486.5 1304,-367 1304,-287.449 1300.46,-192.67 1298.82,-152.966"/>
<polygon fill="midnightblue" stroke="midnightblue" points="1302.31,-152.73 1298.39,-142.886 1295.32,-153.025 1302.31,-152.73"/>
</g>
<!-- Node34&#45;&gt;Node11 -->
<g id="edge104" class="edge"><title>Node34&#45;&gt;Node11</title>
<path fill="none" stroke="midnightblue" d="M1480.96,-602.989C1299.76,-603.586 667.123,-577.78 447,-199 392.16,-104.633 597.822,-80.5291 691.649,-74.4805"/>
<polygon fill="midnightblue" stroke="midnightblue" points="691.938,-77.9695 701.71,-73.8736 691.517,-70.9822 691.938,-77.9695"/>
</g>
<!-- Node34&#45;&gt;Node12 -->
<g id="edge101" class="edge"><title>Node34&#45;&gt;Node12</title>
<path fill="none" stroke="midnightblue" d="M1579.28,-601.722C1718.65,-600.483 2113.52,-593.738 2237,-557 2285.45,-542.585 2298.74,-535.16 2336,-501 2362.63,-476.592 2361.64,-463.833 2382,-434 2415.91,-384.315 2425.38,-372.545 2458,-322 2514.25,-234.832 2499.64,-188.607 2580,-123 2611.22,-97.5093 2656.43,-84.2912 2686.72,-77.8797"/>
<polygon fill="midnightblue" stroke="midnightblue" points="2687.64,-81.2658 2696.77,-75.8868 2686.28,-74.3996 2687.64,-81.2658"/>
</g>
<!-- Node34&#45;&gt;Node13 -->
<g id="edge103" class="edge"><title>Node34&#45;&gt;Node13</title>
<path fill="none" stroke="midnightblue" d="M1480.81,-601.788C1380.47,-600.565 1145.33,-593.646 952,-557 868.432,-541.159 846.996,-534.929 769,-501 551.165,-406.239 490.048,-372.701 328,-199 307.482,-177.007 303.411,-169.923 290,-143 281.547,-126.031 274.904,-105.373 270.77,-90.8181"/>
<polygon fill="midnightblue" stroke="midnightblue" points="274.113,-89.7704 268.11,-81.0399 267.358,-91.608 274.113,-89.7704"/>
</g>
<!-- Node34&#45;&gt;Node15 -->
<g id="edge83" class="edge"><title>Node34&#45;&gt;Node15</title>
<path fill="none" stroke="midnightblue" d="M1480.97,-600.068C1419.66,-596.462 1312.17,-586.181 1225,-557 1032.38,-492.519 941.613,-493.654 833,-322 810.686,-286.734 810.375,-235.689 812.145,-208.569"/>
<polygon fill="midnightblue" stroke="midnightblue" points="815.639,-208.781 812.973,-198.527 808.663,-208.205 815.639,-208.781"/>
</g>
<!-- Node34&#45;&gt;Node18 -->
<g id="edge102" class="edge"><title>Node34&#45;&gt;Node18</title>
<path fill="none" stroke="midnightblue" d="M1579.28,-601.12C1677.03,-598.694 1902.07,-589.72 2088,-557 2180.6,-540.705 2234.51,-575.398 2292,-501 2296.48,-495.206 2296.24,-275.83 2296.06,-209.076"/>
<polygon fill="midnightblue" stroke="midnightblue" points="2299.56,-208.772 2296.03,-198.782 2292.56,-208.792 2299.56,-208.772"/>
</g>
<!-- Node34&#45;&gt;Node29 -->
<g id="edge99" class="edge"><title>Node34&#45;&gt;Node29</title>
<path fill="none" stroke="midnightblue" d="M1480.89,-602.71C1429.69,-601.295 1348.85,-592.817 1290,-557 1243.78,-528.868 1210.32,-471.859 1195.5,-442.84"/>
<polygon fill="midnightblue" stroke="midnightblue" points="1198.46,-440.934 1190.89,-433.52 1192.19,-444.036 1198.46,-440.934"/>
</g>
<!-- Node34&#45;&gt;Node30 -->
<g id="edge81" class="edge"><title>Node34&#45;&gt;Node30</title>
<path fill="none" stroke="midnightblue" d="M1480.78,-601.617C1424.99,-599.445 1332.5,-590.492 1261,-557 1173.98,-516.24 1099,-424.382 1070.38,-386.176"/>
<polygon fill="midnightblue" stroke="midnightblue" points="1072.87,-383.658 1064.13,-377.682 1067.24,-387.809 1072.87,-383.658"/>
</g>
<!-- Node35 -->
<g id="node35" class="node"><title>Node35</title>
<g id="a_node35"><a xlink:href="reflection_8h.html" target="_top" xlink:title="Reflection and serialization of compiler IR/AST nodes. ">
<polygon fill="white" stroke="red" points="1914.5,-537.5 1914.5,-556.5 2033.5,-556.5 2033.5,-537.5 1914.5,-537.5"/>
<text text-anchor="middle" x="1974" y="-544.5" font-family="Helvetica,sans-Serif" font-size="10.00">tvm/node/reflection.h</text>
</a>
</g>
</g>
<!-- Node34&#45;&gt;Node35 -->
<g id="edge84" class="edge"><title>Node34&#45;&gt;Node35</title>
<path fill="none" stroke="midnightblue" d="M1579.21,-596.015C1658.24,-586.403 1813.71,-567.494 1904.18,-556.491"/>
<polygon fill="midnightblue" stroke="midnightblue" points="1904.84,-559.937 1914.35,-555.255 1904,-552.988 1904.84,-559.937"/>
</g>
<!-- Node36 -->
<g id="node36" class="node"><title>Node36</title>
<g id="a_node36"><a xlink:href="structural__equal_8h.html" target="_top" xlink:title="Structural equality comparison. ">
<polygon fill="white" stroke="red" points="2172.5,-470.5 2172.5,-500.5 2283.5,-500.5 2283.5,-470.5 2172.5,-470.5"/>
<text text-anchor="start" x="2180.5" y="-488.5" font-family="Helvetica,sans-Serif" font-size="10.00">tvm/node/structural</text>
<text text-anchor="middle" x="2228" y="-477.5" font-family="Helvetica,sans-Serif" font-size="10.00">_equal.h</text>
</a>
</g>
</g>
<!-- Node34&#45;&gt;Node36 -->
<g id="edge100" class="edge"><title>Node34&#45;&gt;Node36</title>
<path fill="none" stroke="midnightblue" d="M1579.05,-602.132C1671.03,-601.407 1875.21,-595.171 2042,-557 2094.53,-544.977 2152.14,-521.415 2189.11,-504.849"/>
<polygon fill="midnightblue" stroke="midnightblue" points="2190.84,-507.905 2198.51,-500.589 2187.95,-501.53 2190.84,-507.905"/>
</g>
<!-- Node37 -->
<g id="node37" class="node"><title>Node37</title>
<g id="a_node37"><a xlink:href="repr__printer_8h.html" target="_top" xlink:title="Printer class to print repr string of each AST/IR nodes. ">
<polygon fill="white" stroke="red" points="1465,-537.5 1465,-556.5 1595,-556.5 1595,-537.5 1465,-537.5"/>
<text text-anchor="middle" x="1530" y="-544.5" font-family="Helvetica,sans-Serif" font-size="10.00">tvm/node/repr_printer.h</text>
</a>
</g>
</g>
<!-- Node34&#45;&gt;Node37 -->
<g id="edge98" class="edge"><title>Node34&#45;&gt;Node37</title>
<path fill="none" stroke="midnightblue" d="M1530,-593.083C1530,-586.006 1530,-575.861 1530,-566.986"/>
<polygon fill="midnightblue" stroke="midnightblue" points="1533.5,-566.751 1530,-556.751 1526.5,-566.751 1533.5,-566.751"/>
</g>
<!-- Node35&#45;&gt;Node2 -->
<g id="edge88" class="edge"><title>Node35&#45;&gt;Node2</title>
<path fill="none" stroke="midnightblue" d="M1963.5,-537.366C1945.61,-522.805 1907.85,-492.729 1874,-470 1792.62,-415.361 1769.62,-405.721 1684,-358 1664.53,-347.148 1642.54,-335.535 1624.52,-326.185"/>
<polygon fill="midnightblue" stroke="midnightblue" points="1625.99,-323.003 1615.5,-321.518 1622.77,-329.22 1625.99,-323.003"/>
</g>
<!-- Node35&#45;&gt;Node4 -->
<g id="edge85" class="edge"><title>Node35&#45;&gt;Node4</title>
<path fill="none" stroke="midnightblue" d="M1981.74,-537.4C1989,-528.824 1999.52,-514.953 2005,-501 2054.55,-374.735 2035.58,-333.974 2049,-199 2052.34,-165.362 2062.3,-155.196 2052,-123 2048.74,-112.801 2042.58,-102.905 2036.26,-94.6155"/>
<polygon fill="midnightblue" stroke="midnightblue" points="2038.77,-92.1541 2029.74,-86.6133 2033.34,-96.5762 2038.77,-92.1541"/>
</g>
<!-- Node35&#45;&gt;Node10 -->
<g id="edge86" class="edge"><title>Node35&#45;&gt;Node10</title>
<path fill="none" stroke="midnightblue" d="M1968.45,-537.438C1943.86,-500.309 1840.26,-352.341 1713,-291 1622.96,-247.598 1578.14,-303.971 1491,-255 1452.25,-233.224 1462.67,-204.121 1426,-179 1402.86,-163.145 1373.55,-152.303 1348.81,-145.241"/>
<polygon fill="midnightblue" stroke="midnightblue" points="1349.45,-141.786 1338.88,-142.534 1347.61,-148.54 1349.45,-141.786"/>
</g>
<!-- Node35&#45;&gt;Node11 -->
<g id="edge97" class="edge"><title>Node35&#45;&gt;Node11</title>
<path fill="none" stroke="midnightblue" d="M1951.72,-537.479C1802.19,-480.288 945.186,-152.508 768.038,-84.7536"/>
<polygon fill="midnightblue" stroke="midnightblue" points="769.091,-81.409 758.5,-81.1056 766.59,-87.9471 769.091,-81.409"/>
</g>
<!-- Node35&#45;&gt;Node12 -->
<g id="edge96" class="edge"><title>Node35&#45;&gt;Node12</title>
<path fill="none" stroke="midnightblue" d="M2010.61,-537.437C2039.36,-529.944 2079.92,-517.649 2113,-501 2143.6,-485.6 2339.38,-345.821 2364,-322 2443.98,-244.605 2422.98,-184.1 2516,-123 2569.17,-88.0772 2644.61,-77.3022 2686.96,-73.9796"/>
<polygon fill="midnightblue" stroke="midnightblue" points="2687.24,-77.4683 2696.98,-73.2852 2686.76,-70.485 2687.24,-77.4683"/>
</g>
<!-- Node35&#45;&gt;Node15 -->
<g id="edge87" class="edge"><title>Node35&#45;&gt;Node15</title>
<path fill="none" stroke="midnightblue" d="M1914.49,-541.78C1774.36,-531.07 1413.13,-498.959 1118,-434 1036.59,-416.081 1013.91,-414.562 939,-378 871.196,-344.908 844.855,-326.903 822,-255 817.205,-239.915 815.259,-222.014 814.482,-208.821"/>
<polygon fill="midnightblue" stroke="midnightblue" points="817.971,-208.473 814.057,-198.628 810.977,-208.765 817.971,-208.473"/>
</g>
<!-- Node35&#45;&gt;Node18 -->
<g id="edge95" class="edge"><title>Node35&#45;&gt;Node18</title>
<path fill="none" stroke="midnightblue" d="M2007.81,-537.386C2030.55,-530.354 2060.23,-518.657 2082,-501 2188.91,-414.289 2264.44,-260.522 2288.12,-208.095"/>
<polygon fill="midnightblue" stroke="midnightblue" points="2291.41,-209.317 2292.27,-198.757 2285.01,-206.475 2291.41,-209.317"/>
</g>
<!-- Node35&#45;&gt;Node20 -->
<g id="edge89" class="edge"><title>Node35&#45;&gt;Node20</title>
<path fill="none" stroke="midnightblue" d="M1975,-537.469C1977.85,-509.646 1983.78,-419.784 1950,-358 1927.75,-317.306 1912.33,-309.959 1870,-291 1859.3,-286.205 1721.44,-267.215 1633.82,-255.49"/>
<polygon fill="midnightblue" stroke="midnightblue" points="1634.04,-251.988 1623.66,-254.133 1633.11,-258.926 1634.04,-251.988"/>
</g>
<!-- Node35&#45;&gt;Node23 -->
<g id="edge90" class="edge"><title>Node35&#45;&gt;Node23</title>
<path fill="none" stroke="midnightblue" d="M1977.6,-537.222C1981.06,-528.285 1986.03,-513.942 1988,-501 1997.55,-438.166 2003.47,-419.644 1988,-358 1978.83,-321.471 1955.2,-283.849 1940.48,-262.84"/>
<polygon fill="midnightblue" stroke="midnightblue" points="1943.29,-260.742 1934.61,-254.662 1937.6,-264.826 1943.29,-260.742"/>
</g>
<!-- Node35&#45;&gt;Node36 -->
<g id="edge91" class="edge"><title>Node35&#45;&gt;Node36</title>
<path fill="none" stroke="midnightblue" d="M2010.39,-537.475C2050.05,-528.186 2114.29,-513.136 2162.72,-501.792"/>
<polygon fill="midnightblue" stroke="midnightblue" points="2163.55,-505.192 2172.49,-499.503 2161.96,-498.376 2163.55,-505.192"/>
</g>
<!-- Node36&#45;&gt;Node12 -->
<g id="edge94" class="edge"><title>Node36&#45;&gt;Node12</title>
<path fill="none" stroke="midnightblue" d="M2283.52,-473.244C2310.15,-465.658 2341.14,-453.383 2364,-434 2485.48,-331.006 2416.62,-221.203 2542,-123 2584.66,-89.5896 2648.46,-78.2832 2686.68,-74.4571"/>
<polygon fill="midnightblue" stroke="midnightblue" points="2687.09,-77.9344 2696.74,-73.5641 2686.47,-70.9618 2687.09,-77.9344"/>
</g>
<!-- Node36&#45;&gt;Node23 -->
<g id="edge92" class="edge"><title>Node36&#45;&gt;Node23</title>
<path fill="none" stroke="midnightblue" d="M2215.74,-470.288C2185.57,-435.971 2104.19,-347.267 2022,-291 2002.68,-277.771 1978.86,-266.415 1960.04,-258.421"/>
<polygon fill="midnightblue" stroke="midnightblue" points="1961.28,-255.146 1950.7,-254.554 1958.6,-261.614 1961.28,-255.146"/>
</g>
<!-- Node36&#45;&gt;Node29 -->
<g id="edge93" class="edge"><title>Node36&#45;&gt;Node29</title>
<path fill="none" stroke="midnightblue" d="M2172.4,-481.322C1996.28,-471.255 1450.89,-440.083 1256.61,-428.979"/>
<polygon fill="midnightblue" stroke="midnightblue" points="1256.71,-425.479 1246.52,-428.402 1256.31,-432.467 1256.71,-425.479"/>
</g>
<!-- Node38&#45;&gt;Node10 -->
<g id="edge107" class="edge"><title>Node38&#45;&gt;Node10</title>
<path fill="none" stroke="midnightblue" d="M1554.98,-653.946C1441.38,-640.041 1116.56,-583.135 983,-378 961.631,-345.18 950.38,-325.454 969,-291 1012.19,-211.075 1057.37,-216.762 1140,-179 1173.71,-163.596 1213.9,-152.236 1245.31,-144.783"/>
<polygon fill="midnightblue" stroke="midnightblue" points="1246.23,-148.164 1255.19,-142.501 1244.65,-141.344 1246.23,-148.164"/>
</g>
<!-- Node38&#45;&gt;Node12 -->
<g id="edge109" class="edge"><title>Node38&#45;&gt;Node12</title>
<path fill="none" stroke="midnightblue" d="M1635.07,-655.885C1741.68,-649.449 2040.32,-626.123 2278,-557 2406.95,-519.496 2438.13,-501.902 2554,-434 2674.56,-363.349 2806,-385.734 2806,-246 2806,-246 2806,-246 2806,-188 2806,-144.47 2766.09,-106.919 2740.33,-87.2186"/>
<polygon fill="midnightblue" stroke="midnightblue" points="2742.34,-84.3538 2732.21,-81.239 2738.19,-89.989 2742.34,-84.3538"/>
</g>
<!-- Node38&#45;&gt;Node34 -->
<g id="edge108" class="edge"><title>Node38&#45;&gt;Node34</title>
<path fill="none" stroke="midnightblue" d="M1584.56,-649.324C1574.85,-641.263 1560.18,-629.077 1548.5,-619.369"/>
<polygon fill="midnightblue" stroke="midnightblue" points="1550.56,-616.532 1540.63,-612.834 1546.09,-621.916 1550.56,-616.532"/>
</g>
<!-- Node39&#45;&gt;Node10 -->
<g id="edge111" class="edge"><title>Node39&#45;&gt;Node10</title>
<path fill="none" stroke="midnightblue" d="M1488.18,-714.017C1392.89,-713.442 1150.21,-708.071 1081,-669 980.519,-612.276 956.889,-676.131 855,-255 852.91,-246.36 849.498,-241.981 855,-235 920.926,-151.352 984.144,-202.604 1088,-179 1142.02,-166.721 1204.08,-153.536 1246.65,-144.634"/>
<polygon fill="midnightblue" stroke="midnightblue" points="1247.42,-148.048 1256.49,-142.578 1245.99,-141.195 1247.42,-148.048"/>
</g>
<!-- Node39&#45;&gt;Node12 -->
<g id="edge116" class="edge"><title>Node39&#45;&gt;Node12</title>
<path fill="none" stroke="midnightblue" d="M1565.8,-706.773C1710.08,-679.779 2210.75,-584.985 2278,-557 2504.23,-462.864 2433.86,-284.659 2618,-123 2638.35,-105.135 2666.14,-91.8468 2687.42,-83.3974"/>
<polygon fill="midnightblue" stroke="midnightblue" points="2688.89,-86.5829 2696.99,-79.7481 2686.4,-80.0427 2688.89,-86.5829"/>
</g>
<!-- Node39&#45;&gt;Node23 -->
<g id="edge112" class="edge"><title>Node39&#45;&gt;Node23</title>
<path fill="none" stroke="midnightblue" d="M1559.79,-705.485C1584.28,-698.186 1617.88,-686.119 1644,-669 1677.91,-646.777 1708,-644.542 1708,-604 1708,-604 1708,-604 1708,-546 1708,-412.625 1851.15,-299.217 1906.51,-260.35"/>
<polygon fill="midnightblue" stroke="midnightblue" points="1908.65,-263.121 1914.9,-254.561 1904.68,-257.36 1908.65,-263.121"/>
</g>
<!-- Node39&#45;&gt;Node29 -->
<g id="edge114" class="edge"><title>Node39&#45;&gt;Node29</title>
<path fill="none" stroke="midnightblue" d="M1488.21,-713.445C1373.36,-710.762 1043,-695.125 1043,-604 1043,-604 1043,-604 1043,-546 1043,-489.653 1108.43,-454.291 1151.08,-437.226"/>
<polygon fill="midnightblue" stroke="midnightblue" points="1152.51,-440.425 1160.59,-433.57 1150,-433.891 1152.51,-440.425"/>
</g>
<!-- Node39&#45;&gt;Node34 -->
<g id="edge113" class="edge"><title>Node39&#45;&gt;Node34</title>
<path fill="none" stroke="midnightblue" d="M1527.24,-705.368C1527.72,-687.617 1528.84,-646.666 1529.49,-622.597"/>
<polygon fill="midnightblue" stroke="midnightblue" points="1532.99,-622.683 1529.77,-612.591 1525.99,-622.492 1532.99,-622.683"/>
</g>
<!-- Node39&#45;&gt;Node38 -->
<g id="edge115" class="edge"><title>Node39&#45;&gt;Node38</title>
<path fill="none" stroke="midnightblue" d="M1537.93,-705.324C1548.17,-697.185 1563.72,-684.839 1576,-675.087"/>
<polygon fill="midnightblue" stroke="midnightblue" points="1578.22,-677.794 1583.88,-668.834 1573.87,-672.312 1578.22,-677.794"/>
</g>
<!-- Node42&#45;&gt;Node12 -->
<g id="edge151" class="edge"><title>Node42&#45;&gt;Node12</title>
<path fill="none" stroke="midnightblue" d="M1734.05,-938.376C1940.65,-939.769 2783.22,-942.264 3042,-893 3126.38,-876.937 3224,-913.893 3224,-828 3224,-828 3224,-828 3224,-546 3224,-355.296 3436.74,-251.687 3296,-123 3255.65,-86.1062 2867.42,-75.451 2751.51,-73.08"/>
<polygon fill="midnightblue" stroke="midnightblue" points="2751.23,-69.5739 2741.17,-72.8758 2751.1,-76.5725 2751.23,-69.5739"/>
</g>
<!-- Node42&#45;&gt;Node18 -->
<g id="edge152" class="edge"><title>Node42&#45;&gt;Node18</title>
<path fill="none" stroke="midnightblue" d="M1734.21,-938.337C1924.53,-939.401 2648.19,-940.196 2871,-893 2947.3,-876.838 3034,-905.992 3034,-828 3034,-828 3034,-828 3034,-770 3034,-493.616 2953.1,-378.685 2717,-235 2684.16,-215.015 2423.88,-197.644 2329.79,-191.959"/>
<polygon fill="midnightblue" stroke="midnightblue" points="2329.86,-188.457 2319.67,-191.354 2329.45,-195.445 2329.86,-188.457"/>
</g>
<!-- Node42&#45;&gt;Node19 -->
<g id="edge153" class="edge"><title>Node42&#45;&gt;Node19</title>
<path fill="none" stroke="midnightblue" d="M1734.04,-937.792C1932.31,-936.675 2714.13,-929.968 2957,-893 3070.8,-875.678 3186,-887.112 3186,-772 3186,-772 3186,-772 3186,-546 3186,-460.388 3110,-454.612 3110,-369 3110,-369 3110,-369 3110,-305.5 3110,-263.812 3075.02,-225.53 3052.52,-205.219"/>
<polygon fill="midnightblue" stroke="midnightblue" points="3054.73,-202.498 3044.89,-198.575 3050.14,-207.78 3054.73,-202.498"/>
</g>
<!-- Node42&#45;&gt;Node33 -->
<g id="edge128" class="edge"><title>Node42&#45;&gt;Node33</title>
<path fill="none" stroke="midnightblue" d="M1687.52,-929.075C1686.1,-902.945 1681.94,-826.211 1680.01,-790.577"/>
<polygon fill="midnightblue" stroke="midnightblue" points="1683.5,-790.364 1679.46,-780.568 1676.51,-790.743 1683.5,-790.364"/>
</g>
<!-- Node42&#45;&gt;Node39 -->
<g id="edge127" class="edge"><title>Node42&#45;&gt;Node39</title>
<path fill="none" stroke="midnightblue" d="M1641.82,-934.31C1612.58,-929.457 1576.37,-918.34 1555,-893 1516.43,-847.278 1520,-770.396 1524.17,-734.948"/>
<polygon fill="midnightblue" stroke="midnightblue" points="1527.7,-734.995 1525.55,-724.62 1520.76,-734.07 1527.7,-734.995"/>
</g>
<!-- Node42&#45;&gt;Node41 -->
<g id="edge154" class="edge"><title>Node42&#45;&gt;Node41</title>
<path fill="none" stroke="midnightblue" d="M1641.78,-937.882C1429.57,-936.854 548.012,-927.133 290,-837 259.519,-826.352 229.674,-803.255 211.802,-787.663"/>
<polygon fill="midnightblue" stroke="midnightblue" points="213.821,-784.772 204.04,-780.699 209.146,-789.983 213.821,-784.772"/>
</g>
<!-- Node43 -->
<g id="node43" class="node"><title>Node43</title>
<g id="a_node43"><a xlink:href="ir_2function_8h.html" target="_top" xlink:title="Function nodes. ">
<polygon fill="white" stroke="black" points="1564.5,-873.5 1564.5,-892.5 1659.5,-892.5 1659.5,-873.5 1564.5,-873.5"/>
<text text-anchor="middle" x="1612" y="-880.5" font-family="Helvetica,sans-Serif" font-size="10.00">tvm/ir/function.h</text>
</a>
</g>
</g>
<!-- Node42&#45;&gt;Node43 -->
<g id="edge129" class="edge"><title>Node42&#45;&gt;Node43</title>
<path fill="none" stroke="midnightblue" d="M1675.79,-929.324C1664.22,-921.107 1646.62,-908.602 1632.84,-898.807"/>
<polygon fill="midnightblue" stroke="midnightblue" points="1634.61,-895.773 1624.43,-892.834 1630.56,-901.479 1634.61,-895.773"/>
</g>
<!-- Node45 -->
<g id="node45" class="node"><title>Node45</title>
<g id="a_node45"><a xlink:href="ir_2adt_8h.html" target="_top" xlink:title="Algebraic data type definitions. ">
<polygon fill="white" stroke="black" points="1436,-817.5 1436,-836.5 1508,-836.5 1508,-817.5 1436,-817.5"/>
<text text-anchor="middle" x="1472" y="-824.5" font-family="Helvetica,sans-Serif" font-size="10.00">tvm/ir/adt.h</text>
</a>
</g>
</g>
<!-- Node42&#45;&gt;Node45 -->
<g id="edge144" class="edge"><title>Node42&#45;&gt;Node45</title>
<path fill="none" stroke="midnightblue" d="M1641.73,-933.54C1606.46,-928.323 1557.98,-917.085 1522,-893 1504.12,-881.031 1489.93,-860.541 1481.3,-845.762"/>
<polygon fill="midnightblue" stroke="midnightblue" points="1484.14,-843.672 1476.23,-836.618 1478.02,-847.062 1484.14,-843.672"/>
</g>
<!-- Node43&#45;&gt;Node11 -->
<g id="edge142" class="edge"><title>Node43&#45;&gt;Node11</title>
<path fill="none" stroke="midnightblue" d="M1564.4,-882.114C1340.76,-882.42 403.508,-881.064 361,-837 250.328,-722.275 320.974,-239.291 430,-123 464.864,-85.8125 615.552,-76.0088 691.658,-73.4247"/>
<polygon fill="midnightblue" stroke="midnightblue" points="691.997,-76.916 701.883,-73.1059 691.778,-69.9194 691.997,-76.916"/>
</g>
<!-- Node43&#45;&gt;Node12 -->
<g id="edge143" class="edge"><title>Node43&#45;&gt;Node12</title>
<path fill="none" stroke="midnightblue" d="M1659.62,-881.067C1848.33,-877.227 2543.91,-861.669 2763,-837 2918.92,-819.444 3110,-928.905 3110,-772 3110,-772 3110,-772 3110,-546 3110,-463.864 3160.47,-455.732 3187,-378 3195.25,-353.819 3197.09,-347.385 3200,-322 3207.23,-258.857 3223.51,-238.047 3200,-179 3187.32,-147.163 3177.63,-138.372 3147,-123 3077.51,-88.1222 2838.76,-76.591 2751.38,-73.4864"/>
<polygon fill="midnightblue" stroke="midnightblue" points="2751.37,-69.9842 2741.25,-73.1409 2751.13,-76.9802 2751.37,-69.9842"/>
</g>
<!-- Node43&#45;&gt;Node30 -->
<g id="edge141" class="edge"><title>Node43&#45;&gt;Node30</title>
<path fill="none" stroke="midnightblue" d="M1564.33,-882.026C1372.27,-881.847 661.149,-878.372 570,-837 533.646,-820.499 508,-811.923 508,-772 508,-772 508,-772 508,-658 508,-446.455 830.791,-389.423 981.799,-374.316"/>
<polygon fill="midnightblue" stroke="midnightblue" points="982.312,-377.783 991.931,-373.34 981.641,-370.815 982.312,-377.783"/>
</g>
<!-- Node43&#45;&gt;Node33 -->
<g id="edge130" class="edge"><title>Node43&#45;&gt;Node33</title>
<path fill="none" stroke="midnightblue" d="M1617.26,-873.368C1628.27,-855.296 1653.92,-813.176 1668.46,-789.307"/>
<polygon fill="midnightblue" stroke="midnightblue" points="1671.55,-790.953 1673.77,-780.591 1665.58,-787.311 1671.55,-790.953"/>
</g>
<!-- Node44 -->
<g id="node44" class="node"><title>Node44</title>
<g id="a_node44"><a xlink:href="ir_2attrs_8h.html" target="_top" xlink:title="Helpers for attribute objects. ">
<polygon fill="white" stroke="red" points="1716.5,-817.5 1716.5,-836.5 1795.5,-836.5 1795.5,-817.5 1716.5,-817.5"/>
<text text-anchor="middle" x="1756" y="-824.5" font-family="Helvetica,sans-Serif" font-size="10.00">tvm/ir/attrs.h</text>
</a>
</g>
</g>
<!-- Node43&#45;&gt;Node44 -->
<g id="edge131" class="edge"><title>Node43&#45;&gt;Node44</title>
<path fill="none" stroke="midnightblue" d="M1634.82,-873.444C1658.83,-864.438 1696.83,-850.189 1723.87,-840.049"/>
<polygon fill="midnightblue" stroke="midnightblue" points="1725.16,-843.305 1733.29,-836.516 1722.7,-836.751 1725.16,-843.305"/>
</g>
<!-- Node44&#45;&gt;Node2 -->
<g id="edge134" class="edge"><title>Node44&#45;&gt;Node2</title>
<path fill="none" stroke="midnightblue" d="M1752.43,-817.277C1738.83,-783.889 1689.39,-660.88 1656,-557 1629.73,-475.263 1604.76,-376.418 1593.81,-331.634"/>
<polygon fill="midnightblue" stroke="midnightblue" points="1597.16,-330.589 1591.39,-321.699 1590.36,-332.243 1597.16,-330.589"/>
</g>
<!-- Node44&#45;&gt;Node11 -->
<g id="edge138" class="edge"><title>Node44&#45;&gt;Node11</title>
<path fill="none" stroke="midnightblue" d="M1716.33,-824.146C1569.41,-817.215 1060.97,-792.629 989,-781 894.066,-765.66 858,-781.247 780,-725 547.171,-557.104 412.153,-465.14 435,-179 437.006,-153.872 426.281,-140.931 444,-123 477.863,-88.7314 618.467,-77.5751 691.504,-74.055"/>
<polygon fill="midnightblue" stroke="midnightblue" points="691.938,-77.539 701.769,-73.5892 691.62,-70.5462 691.938,-77.539"/>
</g>
<!-- Node44&#45;&gt;Node12 -->
<g id="edge139" class="edge"><title>Node44&#45;&gt;Node12</title>
<path fill="none" stroke="midnightblue" d="M1795.55,-825.256C1924.81,-822.545 2333.9,-811.696 2462,-781 2531.45,-764.357 2807.96,-620.216 2820,-613 2902.63,-563.481 2996,-582.831 2996,-486.5 2996,-486.5 2996,-486.5 2996,-367 2996,-253.284 3001.72,-201.03 2919,-123 2872.91,-79.5264 2795.01,-72.0217 2751.27,-71.5339"/>
<polygon fill="midnightblue" stroke="midnightblue" points="2751.19,-68.0338 2741.19,-71.5401 2751.19,-75.0338 2751.19,-68.0338"/>
</g>
<!-- Node44&#45;&gt;Node13 -->
<g id="edge140" class="edge"><title>Node44&#45;&gt;Node13</title>
<path fill="none" stroke="midnightblue" d="M1716.28,-824.519C1546.28,-818.12 886.603,-792.639 844,-781 523.364,-693.401 389.53,-660.259 214,-378 153.489,-280.696 118.1,-221.88 176,-123 188.682,-101.342 214.432,-88.266 235.151,-80.8643"/>
<polygon fill="midnightblue" stroke="midnightblue" points="236.436,-84.1262 244.84,-77.6739 234.247,-77.4775 236.436,-84.1262"/>
</g>
<!-- Node44&#45;&gt;Node18 -->
<g id="edge136" class="edge"><title>Node44&#45;&gt;Node18</title>
<path fill="none" stroke="midnightblue" d="M1795.81,-825.826C1936.14,-824.456 2405.5,-813.239 2521,-725 2659.39,-619.279 2661.35,-547.093 2703,-378 2715.45,-327.472 2709.69,-267.514 2673,-235 2647.52,-212.415 2417.56,-196.972 2329.81,-191.855"/>
<polygon fill="midnightblue" stroke="midnightblue" points="2329.78,-188.348 2319.6,-191.269 2329.38,-195.337 2329.78,-188.348"/>
</g>
<!-- Node44&#45;&gt;Node19 -->
<g id="edge135" class="edge"><title>Node44&#45;&gt;Node19</title>
<path fill="none" stroke="midnightblue" d="M1795.67,-825.073C1919.67,-821.898 2298.8,-810.009 2418,-781 2534.89,-752.555 2826.92,-576.713 2858,-557 2893.43,-534.53 2909.59,-535.128 2934,-501 2954.61,-472.188 2958,-460.422 2958,-425 2958,-425 2958,-425 2958,-367 2958,-303.659 2999.6,-237.155 3021.25,-206.842"/>
<polygon fill="midnightblue" stroke="midnightblue" points="3024.17,-208.775 3027.26,-198.64 3018.52,-204.639 3024.17,-208.775"/>
</g>
<!-- Node44&#45;&gt;Node24 -->
<g id="edge137" class="edge"><title>Node44&#45;&gt;Node24</title>
<path fill="none" stroke="midnightblue" d="M1716.3,-823.292C1539.3,-811.029 829.328,-759.805 798,-725 672.714,-585.811 836.159,-330.77 883.725,-262.94"/>
<polygon fill="midnightblue" stroke="midnightblue" points="886.682,-264.82 889.626,-254.643 880.978,-260.764 886.682,-264.82"/>
</g>
<!-- Node44&#45;&gt;Node33 -->
<g id="edge132" class="edge"><title>Node44&#45;&gt;Node33</title>
<path fill="none" stroke="midnightblue" d="M1743.63,-817.324C1731.84,-809.058 1713.87,-796.453 1699.86,-786.632"/>
<polygon fill="midnightblue" stroke="midnightblue" points="1701.54,-783.531 1691.34,-780.655 1697.52,-789.262 1701.54,-783.531"/>
</g>
<!-- Node44&#45;&gt;Node36 -->
<g id="edge133" class="edge"><title>Node44&#45;&gt;Node36</title>
<path fill="none" stroke="midnightblue" d="M1795.85,-823.358C1935.3,-813.588 2393,-776.883 2393,-716 2393,-716 2393,-716 2393,-658 2393,-585.609 2315.71,-531.975 2266.93,-505.332"/>
<polygon fill="midnightblue" stroke="midnightblue" points="2268.35,-502.125 2257.88,-500.519 2265.07,-508.305 2268.35,-502.125"/>
</g>
<!-- Node45&#45;&gt;Node10 -->
<g id="edge145" class="edge"><title>Node45&#45;&gt;Node10</title>
<path fill="none" stroke="midnightblue" d="M1435.82,-826.248C1302.51,-826.808 844.118,-825.463 798,-781 791.356,-774.594 741.581,-211.561 741,-199 740.589,-190.121 734.973,-185.534 741,-179 773.468,-143.803 1087.15,-136.13 1228.98,-134.462"/>
<polygon fill="midnightblue" stroke="midnightblue" points="1229.34,-137.958 1239.3,-134.347 1229.26,-130.958 1229.34,-137.958"/>
</g>
<!-- Node45&#45;&gt;Node12 -->
<g id="edge150" class="edge"><title>Node45&#45;&gt;Node12</title>
<path fill="none" stroke="midnightblue" d="M1508.23,-824.026C1655.46,-815.683 2208.97,-781.143 2374,-725 2470.89,-692.037 2768,-588.847 2768,-486.5 2768,-486.5 2768,-486.5 2768,-423 2768,-374.719 2794.79,-368.439 2808,-322 2816.28,-292.903 2817.32,-285.133 2820,-255 2822.99,-221.355 2825.76,-212.282 2820,-179 2815.49,-152.959 2816.58,-143.581 2800,-123 2786.79,-106.603 2766.74,-94.042 2749.89,-85.5487"/>
<polygon fill="midnightblue" stroke="midnightblue" points="2750.95,-82.1754 2740.42,-81.0198 2747.93,-88.4908 2750.95,-82.1754"/>
</g>
<!-- Node45&#45;&gt;Node29 -->
<g id="edge147" class="edge"><title>Node45&#45;&gt;Node29</title>
<path fill="none" stroke="midnightblue" d="M1435.9,-822.585C1353.33,-813.916 1145.3,-787.183 983,-725 907.287,-695.992 867.13,-689.043 839,-613 821.324,-565.218 810.078,-525.858 874,-470 909.233,-439.211 1036.32,-429.473 1117.32,-426.402"/>
<polygon fill="midnightblue" stroke="midnightblue" points="1117.57,-429.896 1127.44,-426.044 1117.33,-422.9 1117.57,-429.896"/>
</g>
<!-- Node45&#45;&gt;Node33 -->
<g id="edge148" class="edge"><title>Node45&#45;&gt;Node33</title>
<path fill="none" stroke="midnightblue" d="M1504.8,-817.444C1540.38,-808.162 1597.31,-793.309 1636.35,-783.127"/>
<polygon fill="midnightblue" stroke="midnightblue" points="1637.56,-786.427 1646.35,-780.516 1635.79,-779.654 1637.56,-786.427"/>
</g>
<!-- Node45&#45;&gt;Node34 -->
<g id="edge146" class="edge"><title>Node45&#45;&gt;Node34</title>
<path fill="none" stroke="midnightblue" d="M1471.31,-817.3C1469.97,-797.143 1468.02,-745.844 1479,-705 1487.42,-673.68 1506.19,-640.748 1518.46,-621.311"/>
<polygon fill="midnightblue" stroke="midnightblue" points="1521.55,-622.985 1524.04,-612.688 1515.67,-619.182 1521.55,-622.985"/>
</g>
<!-- Node45&#45;&gt;Node39 -->
<g id="edge149" class="edge"><title>Node45&#45;&gt;Node39</title>
<path fill="none" stroke="midnightblue" d="M1476.32,-817.368C1485.31,-799.376 1506.22,-757.55 1518.19,-733.627"/>
<polygon fill="midnightblue" stroke="midnightblue" points="1521.36,-735.101 1522.7,-724.591 1515.1,-731.97 1521.36,-735.101"/>
</g>
<!-- Node47 -->
<g id="node47" class="node"><title>Node47</title>
<g id="a_node47"><a xlink:href="schedule_8h.html" target="_top" xlink:title="Define a schedule. ">
<polygon fill="white" stroke="black" points="2950.5,-985.5 2950.5,-1004.5 3053.5,-1004.5 3053.5,-985.5 2950.5,-985.5"/>
<text text-anchor="middle" x="3002" y="-992.5" font-family="Helvetica,sans-Serif" font-size="10.00">tvm/te/schedule.h</text>
</a>
</g>
</g>
<!-- Node46&#45;&gt;Node47 -->
<g id="edge156" class="edge"><title>Node46&#45;&gt;Node47</title>
<path fill="none" stroke="midnightblue" d="M2833.69,-1041.44C2868.07,-1032.16 2923.08,-1017.31 2960.79,-1007.13"/>
<polygon fill="midnightblue" stroke="midnightblue" points="2961.72,-1010.5 2970.46,-1004.52 2959.89,-1003.74 2961.72,-1010.5"/>
</g>
<!-- Node47&#45;&gt;Node12 -->
<g id="edge179" class="edge"><title>Node47&#45;&gt;Node12</title>
<path fill="none" stroke="midnightblue" d="M3053.76,-987.958C3148.01,-975.506 3338,-943.078 3338,-884 3338,-884 3338,-884 3338,-602 3338,-508.429 3452,-518.571 3452,-425 3452,-425 3452,-425 3452,-188 3452,-142.874 3415.81,-139.983 3374,-123 3259.22,-76.377 2867.56,-72.5164 2751.6,-72.4161"/>
<polygon fill="midnightblue" stroke="midnightblue" points="2751.26,-68.916 2741.26,-72.4168 2751.26,-75.916 2751.26,-68.916"/>
</g>
<!-- Node47&#45;&gt;Node19 -->
<g id="edge180" class="edge"><title>Node47&#45;&gt;Node19</title>
<path fill="none" stroke="midnightblue" d="M3053.7,-986.243C3108.07,-975.262 3191.98,-949.781 3238,-893 3272.52,-850.408 3262,-826.825 3262,-772 3262,-772 3262,-772 3262,-484.5 3262,-352.769 3194.48,-328.815 3102,-235 3089.65,-222.467 3073.26,-211.495 3059.66,-203.523"/>
<polygon fill="midnightblue" stroke="midnightblue" points="3061.21,-200.377 3050.78,-198.501 3057.76,-206.47 3061.21,-200.377"/>
</g>
<!-- Node47&#45;&gt;Node28 -->
<g id="edge178" class="edge"><title>Node47&#45;&gt;Node28</title>
<path fill="none" stroke="midnightblue" d="M2950.43,-993.569C2634.98,-990.687 962.721,-971.859 457,-893 322.858,-872.083 171.318,-811.151 109.517,-784.606"/>
<polygon fill="midnightblue" stroke="midnightblue" points="110.615,-781.268 100.048,-780.505 107.833,-787.691 110.615,-781.268"/>
</g>
<!-- Node48 -->
<g id="node48" class="node"><title>Node48</title>
<g id="a_node48"><a xlink:href="tir_2expr_8h.html" target="_top" xlink:title="TIR expressions. ">
<polygon fill="white" stroke="red" points="2674,-817.5 2674,-836.5 2754,-836.5 2754,-817.5 2674,-817.5"/>
<text text-anchor="middle" x="2714" y="-824.5" font-family="Helvetica,sans-Serif" font-size="10.00">tvm/tir/expr.h</text>
</a>
</g>
</g>
<!-- Node47&#45;&gt;Node48 -->
<g id="edge157" class="edge"><title>Node47&#45;&gt;Node48</title>
<path fill="none" stroke="midnightblue" d="M3023.57,-985.495C3049.75,-973.91 3088.37,-951.97 3071,-929 3033.91,-879.954 2853.54,-847.884 2764.27,-834.751"/>
<polygon fill="midnightblue" stroke="midnightblue" points="2764.5,-831.249 2754.1,-833.28 2763.5,-838.177 2764.5,-831.249"/>
</g>
<!-- Node49 -->
<g id="node49" class="node"><title>Node49</title>
<g id="a_node49"><a xlink:href="tensor_8h.html" target="_top" xlink:title="Dataflow tensor object. ">
<polygon fill="white" stroke="red" points="2772,-873.5 2772,-892.5 2862,-892.5 2862,-873.5 2772,-873.5"/>
<text text-anchor="middle" x="2817" y="-880.5" font-family="Helvetica,sans-Serif" font-size="10.00">tvm/te/tensor.h</text>
</a>
</g>
</g>
<!-- Node47&#45;&gt;Node49 -->
<g id="edge168" class="edge"><title>Node47&#45;&gt;Node49</title>
<path fill="none" stroke="midnightblue" d="M2987.48,-985.368C2955.6,-966.412 2879.23,-921.001 2840.45,-897.942"/>
<polygon fill="midnightblue" stroke="midnightblue" points="2841.83,-894.694 2831.45,-892.591 2838.26,-900.711 2841.83,-894.694"/>
</g>
<!-- Node50 -->
<g id="node50" class="node"><title>Node50</title>
<g id="a_node50"><a xlink:href="tensor__intrin_8h.html" target="_top" xlink:title="Tensor intrinsic operations. ">
<polygon fill="white" stroke="red" points="2942,-929.5 2942,-948.5 3062,-948.5 3062,-929.5 2942,-929.5"/>
<text text-anchor="middle" x="3002" y="-936.5" font-family="Helvetica,sans-Serif" font-size="10.00">tvm/te/tensor_intrin.h</text>
</a>
</g>
</g>
<!-- Node47&#45;&gt;Node50 -->
<g id="edge175" class="edge"><title>Node47&#45;&gt;Node50</title>
<path fill="none" stroke="midnightblue" d="M3002,-985.083C3002,-978.006 3002,-967.861 3002,-958.986"/>
<polygon fill="midnightblue" stroke="midnightblue" points="3005.5,-958.751 3002,-948.751 2998.5,-958.751 3005.5,-958.751"/>
</g>
<!-- Node48&#45;&gt;Node4 -->
<g id="edge160" class="edge"><title>Node48&#45;&gt;Node4</title>
<path fill="none" stroke="midnightblue" d="M2729.19,-817.268C2755.32,-800.983 2806,-763.303 2806,-716 2806,-716 2806,-716 2806,-546 2806,-405.229 2844.97,-335.107 2746,-235 2654.24,-142.187 2256.4,-94.932 2089.8,-78.9198"/>
<polygon fill="midnightblue" stroke="midnightblue" points="2089.93,-75.4166 2079.65,-77.955 2089.27,-82.3852 2089.93,-75.4166"/>
</g>
<!-- Node48&#45;&gt;Node12 -->
<g id="edge163" class="edge"><title>Node48&#45;&gt;Node12</title>
<path fill="none" stroke="midnightblue" d="M2754.03,-820.427C2847.44,-804.935 3072,-752.277 3072,-604 3072,-604 3072,-604 3072,-546 3072,-428.513 3186,-424.987 3186,-307.5 3186,-307.5 3186,-307.5 3186,-188 3186,-98.2708 2857,-77.7995 2751.29,-73.5376"/>
<polygon fill="midnightblue" stroke="midnightblue" points="2751.34,-70.037 2741.21,-73.1538 2751.07,-77.0319 2751.34,-70.037"/>
</g>
<!-- Node48&#45;&gt;Node13 -->
<g id="edge167" class="edge"><title>Node48&#45;&gt;Node13</title>
<path fill="none" stroke="midnightblue" d="M2673.98,-826.069C2442.78,-826.119 1276.23,-821.51 933,-725 720.609,-665.279 651.869,-650.916 490,-501 374.855,-394.358 383.795,-335.87 307,-199 293.285,-174.556 286.902,-169.577 278,-143 272.337,-126.093 269.251,-105.969 267.633,-91.5579"/>
<polygon fill="midnightblue" stroke="midnightblue" points="271.096,-91.0031 266.629,-81.3957 264.13,-91.6914 271.096,-91.0031"/>
</g>
<!-- Node48&#45;&gt;Node19 -->
<g id="edge165" class="edge"><title>Node48&#45;&gt;Node19</title>
<path fill="none" stroke="midnightblue" d="M2742,-817.353C2764.24,-809.741 2795.56,-797.327 2820,-781 2954.53,-691.116 3034,-648.296 3034,-486.5 3034,-486.5 3034,-486.5 3034,-305.5 3034,-271.364 3034,-231.552 3034,-208.709"/>
<polygon fill="midnightblue" stroke="midnightblue" points="3037.5,-208.693 3034,-198.693 3030.5,-208.693 3037.5,-208.693"/>
</g>
<!-- Node48&#45;&gt;Node23 -->
<g id="edge161" class="edge"><title>Node48&#45;&gt;Node23</title>
<path fill="none" stroke="midnightblue" d="M2706.2,-817.219C2674.27,-781.382 2549.98,-643.07 2440,-537 2294.38,-396.559 2240.74,-375.66 2057,-291 2027.81,-277.549 1993.37,-265.73 1967.43,-257.583"/>
<polygon fill="midnightblue" stroke="midnightblue" points="1968.16,-254.147 1957.58,-254.538 1966.1,-260.835 1968.16,-254.147"/>
</g>
<!-- Node48&#45;&gt;Node26 -->
<g id="edge166" class="edge"><title>Node48&#45;&gt;Node26</title>
<path fill="none" stroke="midnightblue" d="M2721.74,-817.306C2736.67,-799.594 2768,-757.485 2768,-716 2768,-716 2768,-716 2768,-658 2768,-576.051 2676.3,-332.229 2649.98,-263.95"/>
<polygon fill="midnightblue" stroke="midnightblue" points="2653.22,-262.613 2646.34,-254.55 2646.69,-265.139 2653.22,-262.613"/>
</g>
<!-- Node48&#45;&gt;Node29 -->
<g id="edge159" class="edge"><title>Node48&#45;&gt;Node29</title>
<path fill="none" stroke="midnightblue" d="M2699.2,-817.383C2663.03,-796.523 2567,-742.286 2483,-705 2351.39,-646.583 2318.8,-627.48 2179,-593 2059.75,-563.588 2026.33,-576.11 1905,-557 1654.7,-517.575 1357.45,-459.224 1239.23,-435.551"/>
<polygon fill="midnightblue" stroke="midnightblue" points="1239.85,-432.106 1229.36,-433.571 1238.47,-438.969 1239.85,-432.106"/>
</g>
<!-- Node48&#45;&gt;Node33 -->
<g id="edge162" class="edge"><title>Node48&#45;&gt;Node33</title>
<path fill="none" stroke="midnightblue" d="M2673.74,-823.9C2511.35,-815.427 1904.67,-783.774 1727.73,-774.542"/>
<polygon fill="midnightblue" stroke="midnightblue" points="1727.84,-771.044 1717.67,-774.018 1727.48,-778.034 1727.84,-771.044"/>
</g>
<!-- Node48&#45;&gt;Node34 -->
<g id="edge158" class="edge"><title>Node48&#45;&gt;Node34</title>
<path fill="none" stroke="midnightblue" d="M2692.15,-817.46C2627.63,-792.363 2438.45,-719.688 2374,-705 2084.13,-638.939 1727.81,-614.303 1589.13,-606.804"/>
<polygon fill="midnightblue" stroke="midnightblue" points="1589.31,-603.309 1579.14,-606.273 1588.94,-610.299 1589.31,-603.309"/>
</g>
<!-- Node48&#45;&gt;Node40 -->
<g id="edge164" class="edge"><title>Node48&#45;&gt;Node40</title>
<path fill="none" stroke="midnightblue" d="M2684.5,-817.46C2616.66,-797.822 2449.55,-749.45 2373.2,-727.348"/>
<polygon fill="midnightblue" stroke="midnightblue" points="2374.06,-723.953 2363.48,-724.535 2372.12,-730.677 2374.06,-723.953"/>
</g>
<!-- Node49&#45;&gt;Node11 -->
<g id="edge174" class="edge"><title>Node49&#45;&gt;Node11</title>
<path fill="none" stroke="midnightblue" d="M2771.89,-882.212C2455.68,-883.412 584,-885.714 584,-772 584,-772 584,-772 584,-714 584,-633.25 527.203,-616.189 543,-537 579.74,-352.826 690.956,-150.283 725.589,-90.2095"/>
<polygon fill="midnightblue" stroke="midnightblue" points="728.801,-91.6492 730.802,-81.245 722.749,-88.1305 728.801,-91.6492"/>
</g>
<!-- Node49&#45;&gt;Node12 -->
<g id="edge171" class="edge"><title>Node49&#45;&gt;Node12</title>
<path fill="none" stroke="midnightblue" d="M2862.15,-877.933C2942.54,-870.321 3103.99,-853.221 3124,-837 3147.92,-817.605 3148,-802.795 3148,-772 3148,-772 3148,-772 3148,-546 3148,-461.294 3205.35,-456.16 3238,-378 3260.06,-325.206 3267.46,-311.575 3276,-255 3284.76,-196.991 3315.57,-166.316 3276,-123 3240.47,-84.1074 2864.96,-74.8646 2751.37,-72.9511"/>
<polygon fill="midnightblue" stroke="midnightblue" points="2751.27,-69.4491 2741.21,-72.788 2751.16,-76.4482 2751.27,-69.4491"/>
</g>
<!-- Node49&#45;&gt;Node13 -->
<g id="edge173" class="edge"><title>Node49&#45;&gt;Node13</title>
<path fill="none" stroke="midnightblue" d="M2772,-881.489C2440.41,-877.682 387.688,-853.467 361,-837 126.061,-692.04 175.371,-529.273 144,-255 137.272,-196.174 123.187,-167.714 162,-123 181.14,-100.95 212.11,-87.6528 235.285,-80.2812"/>
<polygon fill="midnightblue" stroke="midnightblue" points="236.412,-83.5974 244.997,-77.3887 234.414,-76.8886 236.412,-83.5974"/>
</g>
<!-- Node49&#45;&gt;Node18 -->
<g id="edge172" class="edge"><title>Node49&#45;&gt;Node18</title>
<path fill="none" stroke="midnightblue" d="M2834.94,-873.25C2864.45,-857.453 2920,-821.185 2920,-772 2920,-772 2920,-772 2920,-602 2920,-590.057 2706.07,-241.419 2696,-235 2665.35,-215.468 2420.41,-197.967 2329.66,-192.092"/>
<polygon fill="midnightblue" stroke="midnightblue" points="2329.84,-188.596 2319.63,-191.449 2329.39,-195.581 2329.84,-188.596"/>
</g>
<!-- Node49&#45;&gt;Node29 -->
<g id="edge169" class="edge"><title>Node49&#45;&gt;Node29</title>
<path fill="none" stroke="midnightblue" d="M2771.99,-881.351C2564.27,-878.231 1697,-863.817 1427,-837 1276.78,-822.08 1235.29,-828.502 1092,-781 993.452,-748.33 946.452,-754.115 887,-669 834.175,-593.373 868.179,-519.537 946,-470 973.89,-452.246 1056.68,-439.468 1117.47,-432.165"/>
<polygon fill="midnightblue" stroke="midnightblue" points="1117.88,-435.641 1127.4,-430.996 1117.06,-428.689 1117.88,-435.641"/>
</g>
<!-- Node49&#45;&gt;Node48 -->
<g id="edge170" class="edge"><title>Node49&#45;&gt;Node48</title>
<path fill="none" stroke="midnightblue" d="M2800.45,-873.324C2784.01,-864.703 2758.57,-851.364 2739.53,-841.386"/>
<polygon fill="midnightblue" stroke="midnightblue" points="2740.99,-838.198 2730.51,-836.655 2737.74,-844.398 2740.99,-838.198"/>
</g>
<!-- Node50&#45;&gt;Node12 -->
<g id="edge177" class="edge"><title>Node50&#45;&gt;Node12</title>
<path fill="none" stroke="midnightblue" d="M3062.04,-932.567C3122.55,-926.05 3210.79,-913.379 3238,-893 3286.36,-856.776 3300,-832.426 3300,-772 3300,-772 3300,-772 3300,-602 3300,-466.823 3376,-442.677 3376,-307.5 3376,-307.5 3376,-307.5 3376,-188 3376,-157.205 3376.55,-141.596 3352,-123 3303.86,-86.528 2874.31,-75.4929 2751.6,-73.0711"/>
<polygon fill="midnightblue" stroke="midnightblue" points="2751.41,-69.5669 2741.35,-72.8749 2751.28,-76.5656 2751.41,-69.5669"/>
</g>
<!-- Node50&#45;&gt;Node49 -->
<g id="edge176" class="edge"><title>Node50&#45;&gt;Node49</title>
<path fill="none" stroke="midnightblue" d="M2972.69,-929.444C2941.16,-920.241 2890.87,-905.562 2856.01,-895.388"/>
<polygon fill="midnightblue" stroke="midnightblue" points="2856.76,-891.959 2846.18,-892.516 2854.8,-898.678 2856.76,-891.959"/>
</g>
</g>
</svg>
