<?xml version="1.0" encoding="UTF-8" standalone="no"?>
<!DOCTYPE svg PUBLIC "-//W3C//DTD SVG 1.1//EN"
 "http://www.w3.org/Graphics/SVG/1.1/DTD/svg11.dtd">
<!-- Generated by graphviz version 2.38.0 (20140413.2041)
 -->
<!-- Title: include/tvm/ir/error.h Pages: 1 -->
<svg width="3062pt" height="1013pt"
 viewBox="0.00 0.00 3062.00 1013.00" xmlns="http://www.w3.org/2000/svg" xmlns:xlink="http://www.w3.org/1999/xlink">
<g id="graph0" class="graph" transform="scale(1 1) rotate(0) translate(4 1009)">
<title>include/tvm/ir/error.h</title>
<polygon fill="white" stroke="none" points="-4,4 -4,-1009 3058,-1009 3058,4 -4,4"/>
<!-- Node1 -->
<g id="node1" class="node"><title>Node1</title>
<polygon fill="#bfbfbf" stroke="black" points="2119,-985.5 2119,-1004.5 2235,-1004.5 2235,-985.5 2119,-985.5"/>
<text text-anchor="middle" x="2177" y="-992.5" font-family="Helvetica,sans-Serif" font-size="10.00">include/tvm/ir/error.h</text>
</g>
<!-- Node2 -->
<g id="node2" class="node"><title>Node2</title>
<g id="a_node2"><a xlink:href="span_8h.html" target="_top" xlink:title="Span information for debugging purposes. ">
<polygon fill="white" stroke="black" points="2618,-649.5 2618,-668.5 2698,-668.5 2698,-649.5 2618,-649.5"/>
<text text-anchor="middle" x="2658" y="-656.5" font-family="Helvetica,sans-Serif" font-size="10.00">tvm/ir/span.h</text>
</a>
</g>
</g>
<!-- Node1&#45;&gt;Node2 -->
<g id="edge1" class="edge"><title>Node1&#45;&gt;Node2</title>
<path fill="none" stroke="midnightblue" d="M2235.3,-991.633C2412.39,-983.673 2932,-954.328 2932,-884 2932,-884 2932,-884 2932,-826 2932,-722.603 2787.51,-681.838 2708.38,-667.265"/>
<polygon fill="midnightblue" stroke="midnightblue" points="2708.59,-663.749 2698.14,-665.458 2707.37,-670.642 2708.59,-663.749"/>
</g>
<!-- Node10 -->
<g id="node10" class="node"><title>Node10</title>
<polygon fill="white" stroke="#bfbfbf" points="2625,-62 2625,-81 2669,-81 2669,-62 2625,-62"/>
<text text-anchor="middle" x="2647" y="-69" font-family="Helvetica,sans-Serif" font-size="10.00">string</text>
</g>
<!-- Node1&#45;&gt;Node10 -->
<g id="edge161" class="edge"><title>Node1&#45;&gt;Node10</title>
<path fill="none" stroke="midnightblue" d="M2235.2,-992.153C2369.93,-987.505 2699.97,-973.882 2808,-949 2883.6,-931.587 2970,-961.579 2970,-884 2970,-884 2970,-884 2970,-188 2970,-149.868 2947.03,-142.056 2914,-123 2838.11,-79.2194 2731.82,-72.3825 2679.17,-71.9289"/>
<polygon fill="midnightblue" stroke="midnightblue" points="2679.09,-68.4289 2669.08,-71.916 2679.08,-75.4288 2679.09,-68.4289"/>
</g>
<!-- Node21 -->
<g id="node21" class="node"><title>Node21</title>
<polygon fill="white" stroke="#bfbfbf" points="1112.5,-179.5 1112.5,-198.5 1159.5,-198.5 1159.5,-179.5 1112.5,-179.5"/>
<text text-anchor="middle" x="1136" y="-186.5" font-family="Helvetica,sans-Serif" font-size="10.00">vector</text>
</g>
<!-- Node1&#45;&gt;Node21 -->
<g id="edge162" class="edge"><title>Node1&#45;&gt;Node21</title>
<path fill="none" stroke="midnightblue" d="M2118.85,-993.959C1787.45,-993.356 152,-985.251 152,-884 152,-884 152,-884 152,-658 152,-510.243 528.474,-291.503 665,-235 744.295,-202.183 1007.92,-192.958 1102.15,-190.676"/>
<polygon fill="midnightblue" stroke="midnightblue" points="1102.35,-194.172 1112.27,-190.442 1102.19,-187.174 1102.35,-194.172"/>
</g>
<!-- Node22 -->
<g id="node22" class="node"><title>Node22</title>
<polygon fill="white" stroke="#bfbfbf" points="180.5,-179.5 180.5,-198.5 273.5,-198.5 273.5,-179.5 180.5,-179.5"/>
<text text-anchor="middle" x="227" y="-186.5" font-family="Helvetica,sans-Serif" font-size="10.00">unordered_map</text>
</g>
<!-- Node1&#45;&gt;Node22 -->
<g id="edge164" class="edge"><title>Node1&#45;&gt;Node22</title>
<path fill="none" stroke="midnightblue" d="M2118.82,-993.417C1820.76,-990.321 471.859,-974.971 287,-949 173.737,-933.088 38,-998.375 38,-884 38,-884 38,-884 38,-305.5 38,-242.742 114.812,-213.06 170.5,-199.788"/>
<polygon fill="midnightblue" stroke="midnightblue" points="171.302,-203.195 180.281,-197.571 169.755,-196.368 171.302,-203.195"/>
</g>
<!-- Node39 -->
<g id="node39" class="node"><title>Node39</title>
<g id="a_node39"><a xlink:href="ir_2module_8h.html" target="_top" xlink:title="IRModule that holds the functions and type definitions. ">
<polygon fill="white" stroke="black" points="1377,-929.5 1377,-948.5 1469,-948.5 1469,-929.5 1377,-929.5"/>
<text text-anchor="middle" x="1423" y="-936.5" font-family="Helvetica,sans-Serif" font-size="10.00">tvm/ir/module.h</text>
</a>
</g>
</g>
<!-- Node1&#45;&gt;Node39 -->
<g id="edge115" class="edge"><title>Node1&#45;&gt;Node39</title>
<path fill="none" stroke="midnightblue" d="M2118.77,-989.83C1977.58,-979.718 1618.34,-953.99 1479.23,-944.027"/>
<polygon fill="midnightblue" stroke="midnightblue" points="1479.43,-940.532 1469.2,-943.309 1478.93,-947.514 1479.43,-940.532"/>
</g>
<!-- Node48 -->
<g id="node48" class="node"><title>Node48</title>
<polygon fill="white" stroke="#bfbfbf" points="2998,-929.5 2998,-948.5 3054,-948.5 3054,-929.5 2998,-929.5"/>
<text text-anchor="middle" x="3026" y="-936.5" font-family="Helvetica,sans-Serif" font-size="10.00">sstream</text>
</g>
<!-- Node1&#45;&gt;Node48 -->
<g id="edge163" class="edge"><title>Node1&#45;&gt;Node48</title>
<path fill="none" stroke="midnightblue" d="M2235.03,-993.848C2368.07,-992.828 2705.15,-986.42 2984,-949 2985.25,-948.833 2986.51,-948.648 2987.79,-948.45"/>
<polygon fill="midnightblue" stroke="midnightblue" points="2988.4,-951.895 2997.64,-946.702 2987.18,-945.003 2988.4,-951.895"/>
</g>
<!-- Node3 -->
<g id="node3" class="node"><title>Node3</title>
<g id="a_node3"><a xlink:href="object_8h.html" target="_top" xlink:title="A managed object in the TVM runtime. ">
<polygon fill="white" stroke="black" points="1509.5,-123.5 1509.5,-142.5 1626.5,-142.5 1626.5,-123.5 1509.5,-123.5"/>
<text text-anchor="middle" x="1568" y="-130.5" font-family="Helvetica,sans-Serif" font-size="10.00">tvm/runtime/object.h</text>
</a>
</g>
</g>
<!-- Node2&#45;&gt;Node3 -->
<g id="edge2" class="edge"><title>Node2&#45;&gt;Node3</title>
<path fill="none" stroke="midnightblue" d="M2653.95,-649.379C2645.77,-631.114 2628,-586.996 2628,-548 2628,-548 2628,-548 2628,-305.5 2628,-255.1 1871.38,-167.447 1636.62,-141.463"/>
<polygon fill="midnightblue" stroke="midnightblue" points="1636.82,-137.964 1626.5,-140.346 1636.06,-144.922 1636.82,-137.964"/>
</g>
<!-- Node2&#45;&gt;Node10 -->
<g id="edge114" class="edge"><title>Node2&#45;&gt;Node10</title>
<path fill="none" stroke="midnightblue" d="M2671.12,-649.463C2694.75,-632.943 2742,-594.135 2742,-548 2742,-548 2742,-548 2742,-188 2742,-157.205 2736.71,-147.457 2718,-123 2706.13,-107.48 2688.15,-94.7641 2673.26,-85.974"/>
<polygon fill="midnightblue" stroke="midnightblue" points="2674.9,-82.8801 2664.47,-81.0183 2671.47,-88.9779 2674.9,-82.8801"/>
</g>
<!-- Node13 -->
<g id="node13" class="node"><title>Node13</title>
<g id="a_node13"><a xlink:href="node_8h.html" target="_top" xlink:title="Definitions and helper macros for IR/AST nodes. ">
<polygon fill="white" stroke="black" points="1208,-593.5 1208,-612.5 1306,-612.5 1306,-593.5 1208,-593.5"/>
<text text-anchor="middle" x="1257" y="-600.5" font-family="Helvetica,sans-Serif" font-size="10.00">tvm/node/node.h</text>
</a>
</g>
</g>
<!-- Node2&#45;&gt;Node13 -->
<g id="edge12" class="edge"><title>Node2&#45;&gt;Node13</title>
<path fill="none" stroke="midnightblue" d="M2617.96,-656.457C2420.64,-648.851 1551.89,-615.366 1316.18,-606.281"/>
<polygon fill="midnightblue" stroke="midnightblue" points="1316.22,-602.78 1306.09,-605.892 1315.95,-609.775 1316.22,-602.78"/>
</g>
<!-- Node4 -->
<g id="node4" class="node"><title>Node4</title>
<polygon fill="white" stroke="#bfbfbf" points="1221,-62 1221,-81 1307,-81 1307,-62 1221,-62"/>
<text text-anchor="middle" x="1264" y="-69" font-family="Helvetica,sans-Serif" font-size="10.00">dmlc/logging.h</text>
</g>
<!-- Node3&#45;&gt;Node4 -->
<g id="edge3" class="edge"><title>Node3&#45;&gt;Node4</title>
<path fill="none" stroke="midnightblue" d="M1524.44,-123.475C1469.81,-112.783 1376.19,-94.4578 1317.33,-82.9374"/>
<polygon fill="midnightblue" stroke="midnightblue" points="1317.96,-79.4951 1307.47,-81.0091 1316.62,-86.3648 1317.96,-79.4951"/>
</g>
<!-- Node5 -->
<g id="node5" class="node"><title>Node5</title>
<g id="a_node5"><a xlink:href="c__runtime__api_8h.html" target="_top" xlink:title="tvm/runtime/c_runtime\l_api.h">
<polygon fill="white" stroke="black" points="2015.5,-56.5 2015.5,-86.5 2142.5,-86.5 2142.5,-56.5 2015.5,-56.5"/>
<text text-anchor="start" x="2023.5" y="-74.5" font-family="Helvetica,sans-Serif" font-size="10.00">tvm/runtime/c_runtime</text>
<text text-anchor="middle" x="2079" y="-63.5" font-family="Helvetica,sans-Serif" font-size="10.00">_api.h</text>
</a>
</g>
</g>
<!-- Node3&#45;&gt;Node5 -->
<g id="edge4" class="edge"><title>Node3&#45;&gt;Node5</title>
<path fill="none" stroke="midnightblue" d="M1626.62,-125.175C1720.24,-114.274 1903.33,-92.9543 2005.55,-81.0527"/>
<polygon fill="midnightblue" stroke="midnightblue" points="2005.96,-84.5289 2015.48,-79.8957 2005.15,-77.5759 2005.96,-84.5289"/>
</g>
<!-- Node9 -->
<g id="node9" class="node"><title>Node9</title>
<polygon fill="white" stroke="#bfbfbf" points="695,-62 695,-81 763,-81 763,-62 695,-62"/>
<text text-anchor="middle" x="729" y="-69" font-family="Helvetica,sans-Serif" font-size="10.00">type_traits</text>
</g>
<!-- Node3&#45;&gt;Node9 -->
<g id="edge8" class="edge"><title>Node3&#45;&gt;Node9</title>
<path fill="none" stroke="midnightblue" d="M1509.34,-127.84C1350.43,-116.57 914.175,-85.6322 773.414,-75.6498"/>
<polygon fill="midnightblue" stroke="midnightblue" points="773.634,-72.1566 763.411,-74.9404 773.138,-79.1391 773.634,-72.1566"/>
</g>
<!-- Node3&#45;&gt;Node10 -->
<g id="edge9" class="edge"><title>Node3&#45;&gt;Node10</title>
<path fill="none" stroke="midnightblue" d="M1626.78,-128.759C1824.76,-117.841 2463.36,-82.6267 2614.65,-74.2842"/>
<polygon fill="midnightblue" stroke="midnightblue" points="2614.89,-77.776 2624.68,-73.7306 2614.51,-70.7866 2614.89,-77.776"/>
</g>
<!-- Node11 -->
<g id="node11" class="node"><title>Node11</title>
<polygon fill="white" stroke="#bfbfbf" points="390,-62 390,-81 432,-81 432,-62 390,-62"/>
<text text-anchor="middle" x="411" y="-69" font-family="Helvetica,sans-Serif" font-size="10.00">utility</text>
</g>
<!-- Node3&#45;&gt;Node11 -->
<g id="edge10" class="edge"><title>Node3&#45;&gt;Node11</title>
<path fill="none" stroke="midnightblue" d="M1509.43,-129.046C1367.93,-121.903 996.256,-103.094 686,-87 597.519,-82.4102 493.032,-76.867 442.08,-74.156"/>
<polygon fill="midnightblue" stroke="midnightblue" points="442.216,-70.6584 432.045,-73.6219 441.844,-77.6485 442.216,-70.6584"/>
</g>
<!-- Node12 -->
<g id="node12" class="node"><title>Node12</title>
<polygon fill="white" stroke="#bfbfbf" points="1731,-62 1731,-81 1781,-81 1781,-62 1731,-62"/>
<text text-anchor="middle" x="1756" y="-69" font-family="Helvetica,sans-Serif" font-size="10.00">atomic</text>
</g>
<!-- Node3&#45;&gt;Node12 -->
<g id="edge11" class="edge"><title>Node3&#45;&gt;Node12</title>
<path fill="none" stroke="midnightblue" d="M1594.94,-123.475C1628.16,-112.96 1684.71,-95.0632 1721.19,-83.5158"/>
<polygon fill="midnightblue" stroke="midnightblue" points="1722.44,-86.7929 1730.92,-80.4386 1720.33,-80.1192 1722.44,-86.7929"/>
</g>
<!-- Node6 -->
<g id="node6" class="node"><title>Node6</title>
<polygon fill="white" stroke="#bfbfbf" points="1944,-0.5 1944,-19.5 2034,-19.5 2034,-0.5 1944,-0.5"/>
<text text-anchor="middle" x="1989" y="-7.5" font-family="Helvetica,sans-Serif" font-size="10.00">dlpack/dlpack.h</text>
</g>
<!-- Node5&#45;&gt;Node6 -->
<g id="edge5" class="edge"><title>Node5&#45;&gt;Node6</title>
<path fill="none" stroke="midnightblue" d="M2057.67,-56.3993C2043.51,-47.0402 2024.99,-34.7924 2010.75,-25.3771"/>
<polygon fill="midnightblue" stroke="midnightblue" points="2012.37,-22.2531 2002.1,-19.6578 2008.51,-28.0923 2012.37,-22.2531"/>
</g>
<!-- Node7 -->
<g id="node7" class="node"><title>Node7</title>
<polygon fill="white" stroke="#bfbfbf" points="2052.5,-0.5 2052.5,-19.5 2105.5,-19.5 2105.5,-0.5 2052.5,-0.5"/>
<text text-anchor="middle" x="2079" y="-7.5" font-family="Helvetica,sans-Serif" font-size="10.00">stdint.h</text>
</g>
<!-- Node5&#45;&gt;Node7 -->
<g id="edge6" class="edge"><title>Node5&#45;&gt;Node7</title>
<path fill="none" stroke="midnightblue" d="M2079,-56.3993C2079,-48.4664 2079,-38.458 2079,-29.8583"/>
<polygon fill="midnightblue" stroke="midnightblue" points="2082.5,-29.6577 2079,-19.6578 2075.5,-29.6578 2082.5,-29.6577"/>
</g>
<!-- Node8 -->
<g id="node8" class="node"><title>Node8</title>
<polygon fill="white" stroke="#bfbfbf" points="2123.5,-0.5 2123.5,-19.5 2178.5,-19.5 2178.5,-0.5 2123.5,-0.5"/>
<text text-anchor="middle" x="2151" y="-7.5" font-family="Helvetica,sans-Serif" font-size="10.00">stddef.h</text>
</g>
<!-- Node5&#45;&gt;Node8 -->
<g id="edge7" class="edge"><title>Node5&#45;&gt;Node8</title>
<path fill="none" stroke="midnightblue" d="M2096.06,-56.3993C2107.06,-47.3076 2121.37,-35.4899 2132.62,-26.1909"/>
<polygon fill="midnightblue" stroke="midnightblue" points="2135.04,-28.726 2140.52,-19.6578 2130.59,-23.33 2135.04,-28.726"/>
</g>
<!-- Node13&#45;&gt;Node3 -->
<g id="edge66" class="edge"><title>Node13&#45;&gt;Node3</title>
<path fill="none" stroke="midnightblue" d="M1306.22,-597.824C1365.34,-592.048 1467.16,-579.671 1552,-557 1745.67,-505.246 1857.54,-546.589 1966,-378 1992.3,-337.115 2044.01,-339.277 1928,-235 1866.03,-179.295 1824.23,-221.507 1744,-199 1691.34,-184.226 1632.03,-160.866 1597.46,-146.541"/>
<polygon fill="midnightblue" stroke="midnightblue" points="1598.55,-143.204 1587.98,-142.58 1595.86,-149.664 1598.55,-143.204"/>
</g>
<!-- Node13&#45;&gt;Node5 -->
<g id="edge13" class="edge"><title>Node13&#45;&gt;Node5</title>
<path fill="none" stroke="midnightblue" d="M1306.16,-597.208C1375.03,-590.171 1504.03,-575.812 1613,-557 1899,-507.625 2026.56,-573.57 2241,-378 2312.59,-312.713 2359.02,-271.44 2330,-179 2320.92,-150.062 2316.06,-140.079 2291,-123 2250.25,-95.2284 2196.03,-82.6454 2152.63,-76.9837"/>
<polygon fill="midnightblue" stroke="midnightblue" points="2153.04,-73.5083 2142.7,-75.7827 2152.2,-80.4577 2153.04,-73.5083"/>
</g>
<!-- Node13&#45;&gt;Node9 -->
<g id="edge113" class="edge"><title>Node13&#45;&gt;Node9</title>
<path fill="none" stroke="midnightblue" d="M1207.84,-600.842C1119.02,-598.008 926.235,-588.457 767,-557 756.622,-554.95 594.541,-505.57 585,-501 508.786,-464.491 477.995,-453.484 440,-378 411.419,-321.218 401.019,-282.736 443,-235 468.748,-205.722 489.438,-218.844 523,-199 571.358,-170.408 576.01,-152.205 624,-123 648.275,-108.227 677.528,-94.4601 698.985,-85.0438"/>
<polygon fill="midnightblue" stroke="midnightblue" points="700.461,-88.2188 708.249,-81.0356 697.681,-81.7943 700.461,-88.2188"/>
</g>
<!-- Node13&#45;&gt;Node10 -->
<g id="edge110" class="edge"><title>Node13&#45;&gt;Node10</title>
<path fill="none" stroke="midnightblue" d="M1306.08,-602.313C1437.42,-601.838 1806.6,-591.864 2096,-501 2314.21,-432.487 2377.66,-407.623 2548,-255 2594.74,-213.12 2610.91,-201.356 2634,-143 2640.65,-126.198 2643.94,-105.778 2645.54,-91.2482"/>
<polygon fill="midnightblue" stroke="midnightblue" points="2649.05,-91.3224 2646.49,-81.04 2642.08,-90.6709 2649.05,-91.3224"/>
</g>
<!-- Node13&#45;&gt;Node11 -->
<g id="edge112" class="edge"><title>Node13&#45;&gt;Node11</title>
<path fill="none" stroke="midnightblue" d="M1207.9,-601.731C1109.98,-600.389 883.87,-593.241 698,-557 409.37,-500.723 114,-540.065 114,-246 114,-246 114,-246 114,-188 114,-131.462 303.314,-91.5804 379.65,-77.797"/>
<polygon fill="midnightblue" stroke="midnightblue" points="380.405,-81.2179 389.64,-76.0263 379.183,-74.3254 380.405,-81.2179"/>
</g>
<!-- Node14 -->
<g id="node14" class="node"><title>Node14</title>
<g id="a_node14"><a xlink:href="runtime_2container_8h.html" target="_top" xlink:title="Common POD(plain old data) container types. ">
<polygon fill="white" stroke="black" points="878,-358.5 878,-377.5 1010,-377.5 1010,-358.5 878,-358.5"/>
<text text-anchor="middle" x="944" y="-365.5" font-family="Helvetica,sans-Serif" font-size="10.00">tvm/runtime/container.h</text>
</a>
</g>
</g>
<!-- Node13&#45;&gt;Node14 -->
<g id="edge14" class="edge"><title>Node13&#45;&gt;Node14</title>
<path fill="none" stroke="midnightblue" d="M1238.15,-593.481C1219.83,-584.965 1191.42,-571.137 1168,-557 1087.23,-508.245 1063.27,-499.116 995,-434 979.652,-419.36 965.018,-399.945 955.395,-386.156"/>
<polygon fill="midnightblue" stroke="midnightblue" points="958.111,-383.927 949.585,-377.637 952.327,-387.871 958.111,-383.927"/>
</g>
<!-- Node15 -->
<g id="node15" class="node"><title>Node15</title>
<g id="a_node15"><a xlink:href="runtime_2memory_8h.html" target="_top" xlink:title="Runtime memory management. ">
<polygon fill="white" stroke="black" points="625.5,-179.5 625.5,-198.5 752.5,-198.5 752.5,-179.5 625.5,-179.5"/>
<text text-anchor="middle" x="689" y="-186.5" font-family="Helvetica,sans-Serif" font-size="10.00">tvm/runtime/memory.h</text>
</a>
</g>
</g>
<!-- Node13&#45;&gt;Node15 -->
<g id="edge67" class="edge"><title>Node13&#45;&gt;Node15</title>
<path fill="none" stroke="midnightblue" d="M1207.61,-601.343C1082.66,-597.567 747.496,-574.112 517,-434 438.69,-386.398 395.605,-297.099 463,-235 484.961,-214.765 558.163,-202.827 615.376,-196.391"/>
<polygon fill="midnightblue" stroke="midnightblue" points="615.931,-199.851 625.494,-195.29 615.174,-192.892 615.931,-199.851"/>
</g>
<!-- Node13&#45;&gt;Node21 -->
<g id="edge111" class="edge"><title>Node13&#45;&gt;Node21</title>
<path fill="none" stroke="midnightblue" d="M1249.81,-593.252C1236.63,-576.568 1209,-538.512 1199,-501 1195.45,-487.688 1197.98,-483.74 1199,-470 1200.23,-453.42 1219.77,-338.58 1221,-322 1222.02,-308.26 1225.72,-303.943 1221,-291 1219.15,-285.927 1173.94,-233.565 1150.23,-206.304"/>
<polygon fill="midnightblue" stroke="midnightblue" points="1152.84,-203.972 1143.63,-198.73 1147.56,-208.57 1152.84,-203.972"/>
</g>
<!-- Node32 -->
<g id="node32" class="node"><title>Node32</title>
<g id="a_node32"><a xlink:href="reflection_8h.html" target="_top" xlink:title="Reflection and serialization of compiler IR/AST nodes. ">
<polygon fill="white" stroke="black" points="1424.5,-537.5 1424.5,-556.5 1543.5,-556.5 1543.5,-537.5 1424.5,-537.5"/>
<text text-anchor="middle" x="1484" y="-544.5" font-family="Helvetica,sans-Serif" font-size="10.00">tvm/node/reflection.h</text>
</a>
</g>
</g>
<!-- Node13&#45;&gt;Node32 -->
<g id="edge68" class="edge"><title>Node13&#45;&gt;Node32</title>
<path fill="none" stroke="midnightblue" d="M1292.97,-593.444C1332.32,-584.083 1395.49,-569.056 1438.31,-558.868"/>
<polygon fill="midnightblue" stroke="midnightblue" points="1439.28,-562.236 1448.2,-556.516 1437.66,-555.426 1439.28,-562.236"/>
</g>
<!-- Node33 -->
<g id="node33" class="node"><title>Node33</title>
<g id="a_node33"><a xlink:href="structural__equal_8h.html" target="_top" xlink:title="Structural equality comparison. ">
<polygon fill="white" stroke="black" points="1337.5,-470.5 1337.5,-500.5 1448.5,-500.5 1448.5,-470.5 1337.5,-470.5"/>
<text text-anchor="start" x="1345.5" y="-488.5" font-family="Helvetica,sans-Serif" font-size="10.00">tvm/node/structural</text>
<text text-anchor="middle" x="1393" y="-477.5" font-family="Helvetica,sans-Serif" font-size="10.00">_equal.h</text>
</a>
</g>
</g>
<!-- Node13&#45;&gt;Node33 -->
<g id="edge108" class="edge"><title>Node13&#45;&gt;Node33</title>
<path fill="none" stroke="midnightblue" d="M1264.28,-593.482C1275.54,-580.545 1298.18,-555.494 1320,-537 1333.02,-525.965 1348.43,-515.027 1361.74,-506.167"/>
<polygon fill="midnightblue" stroke="midnightblue" points="1363.68,-509.076 1370.13,-500.665 1359.85,-503.222 1363.68,-509.076"/>
</g>
<!-- Node35 -->
<g id="node35" class="node"><title>Node35</title>
<g id="a_node35"><a xlink:href="node_2container_8h.html" target="_top" xlink:title="Array/Map container in the DSL graph. ">
<polygon fill="white" stroke="black" points="1004.5,-414.5 1004.5,-433.5 1123.5,-433.5 1123.5,-414.5 1004.5,-414.5"/>
<text text-anchor="middle" x="1064" y="-421.5" font-family="Helvetica,sans-Serif" font-size="10.00">tvm/node/container.h</text>
</a>
</g>
</g>
<!-- Node13&#45;&gt;Node35 -->
<g id="edge107" class="edge"><title>Node13&#45;&gt;Node35</title>
<path fill="none" stroke="midnightblue" d="M1245.63,-593.451C1233.7,-584.455 1214.45,-569.848 1198,-557 1166.6,-532.473 1156.52,-528.816 1128,-501 1108.8,-482.275 1089.31,-458.26 1076.97,-442.289"/>
<polygon fill="midnightblue" stroke="midnightblue" points="1079.43,-439.745 1070.59,-433.915 1073.87,-443.989 1079.43,-439.745"/>
</g>
<!-- Node36 -->
<g id="node36" class="node"><title>Node36</title>
<g id="a_node36"><a xlink:href="structural__hash_8h.html" target="_top" xlink:title="tvm/node/structural\l_hash.h">
<polygon fill="white" stroke="black" points="1208.5,-470.5 1208.5,-500.5 1319.5,-500.5 1319.5,-470.5 1208.5,-470.5"/>
<text text-anchor="start" x="1216.5" y="-488.5" font-family="Helvetica,sans-Serif" font-size="10.00">tvm/node/structural</text>
<text text-anchor="middle" x="1264" y="-477.5" font-family="Helvetica,sans-Serif" font-size="10.00">_hash.h</text>
</a>
</g>
</g>
<!-- Node13&#45;&gt;Node36 -->
<g id="edge109" class="edge"><title>Node13&#45;&gt;Node36</title>
<path fill="none" stroke="midnightblue" d="M1257.53,-593.319C1258.58,-575.967 1260.97,-536.457 1262.54,-510.658"/>
<polygon fill="midnightblue" stroke="midnightblue" points="1266.04,-510.739 1263.15,-500.545 1259.05,-510.315 1266.04,-510.739"/>
</g>
<!-- Node37 -->
<g id="node37" class="node"><title>Node37</title>
<g id="a_node37"><a xlink:href="repr__printer_8h.html" target="_top" xlink:title="Printer class to print repr string of each AST/IR nodes. ">
<polygon fill="white" stroke="black" points="940,-537.5 940,-556.5 1070,-556.5 1070,-537.5 940,-537.5"/>
<text text-anchor="middle" x="1005" y="-544.5" font-family="Helvetica,sans-Serif" font-size="10.00">tvm/node/repr_printer.h</text>
</a>
</g>
</g>
<!-- Node13&#45;&gt;Node37 -->
<g id="edge104" class="edge"><title>Node13&#45;&gt;Node37</title>
<path fill="none" stroke="midnightblue" d="M1217.07,-593.444C1173.11,-584.023 1102.37,-568.866 1054.82,-558.675"/>
<polygon fill="midnightblue" stroke="midnightblue" points="1055.25,-555.189 1044.74,-556.516 1053.79,-562.034 1055.25,-555.189"/>
</g>
<!-- Node14&#45;&gt;Node3 -->
<g id="edge21" class="edge"><title>Node14&#45;&gt;Node3</title>
<path fill="none" stroke="midnightblue" d="M1010.02,-365.408C1150.28,-361.525 1473.78,-349.774 1580,-322 1647.51,-304.347 1684.64,-313.939 1722,-255 1726.76,-247.492 1727.59,-241.913 1722,-235 1673.99,-175.616 1602.01,-258.384 1554,-199 1543.15,-185.579 1549.75,-165.666 1557.11,-151.42"/>
<polygon fill="midnightblue" stroke="midnightblue" points="1560.22,-153.034 1562.13,-142.613 1554.14,-149.569 1560.22,-153.034"/>
</g>
<!-- Node14&#45;&gt;Node4 -->
<g id="edge15" class="edge"><title>Node14&#45;&gt;Node4</title>
<path fill="none" stroke="midnightblue" d="M930.165,-358.371C918.491,-350.364 902.245,-337.384 893,-322 872.749,-288.302 856.184,-268.352 877,-235 949.183,-119.342 1122.56,-85.9436 1210.67,-76.3434"/>
<polygon fill="midnightblue" stroke="midnightblue" points="1211.13,-79.8144 1220.72,-75.3114 1210.41,-72.851 1211.13,-79.8144"/>
</g>
<!-- Node14&#45;&gt;Node9 -->
<g id="edge63" class="edge"><title>Node14&#45;&gt;Node9</title>
<path fill="none" stroke="midnightblue" d="M877.736,-358.601C793.799,-343.717 655.324,-303.66 616,-199 597.237,-149.064 661.609,-106.458 700.856,-85.8125"/>
<polygon fill="midnightblue" stroke="midnightblue" points="702.9,-88.6992 710.226,-81.0456 699.726,-82.4601 702.9,-88.6992"/>
</g>
<!-- Node14&#45;&gt;Node10 -->
<g id="edge62" class="edge"><title>Node14&#45;&gt;Node10</title>
<path fill="none" stroke="midnightblue" d="M1010.16,-363.73C1135.13,-357.344 1414.38,-342.062 1649,-322 1777.71,-310.994 1809.45,-303.737 1938,-291 2025.93,-282.288 2251.98,-287.876 2334,-255 2421.49,-219.93 2417.34,-168.302 2500,-123 2537.31,-102.551 2584.43,-88.1341 2615.12,-80.0765"/>
<polygon fill="midnightblue" stroke="midnightblue" points="2616.03,-83.4547 2624.85,-77.5882 2614.3,-76.6725 2616.03,-83.4547"/>
</g>
<!-- Node14&#45;&gt;Node11 -->
<g id="edge64" class="edge"><title>Node14&#45;&gt;Node11</title>
<path fill="none" stroke="midnightblue" d="M877.747,-363.466C825.082,-358.747 750.475,-347.729 690,-322 567.881,-270.045 537.109,-243.982 451,-143 437.349,-126.992 426.001,-105.637 418.921,-90.6405"/>
<polygon fill="midnightblue" stroke="midnightblue" points="422.052,-89.0709 414.725,-81.4176 415.68,-91.9693 422.052,-89.0709"/>
</g>
<!-- Node14&#45;&gt;Node15 -->
<g id="edge16" class="edge"><title>Node14&#45;&gt;Node15</title>
<path fill="none" stroke="midnightblue" d="M877.936,-359.066C847.162,-352.836 811.388,-341.74 784,-322 746.099,-294.683 752.725,-272.603 725,-235 717.949,-225.437 709.694,-215.064 702.868,-206.689"/>
<polygon fill="midnightblue" stroke="midnightblue" points="705.438,-204.303 696.383,-198.803 700.031,-208.75 705.438,-204.303"/>
</g>
<!-- Node17 -->
<g id="node17" class="node"><title>Node17</title>
<g id="a_node17"><a xlink:href="packed__func_8h.html" target="_top" xlink:title="Type&#45;erased function used across TVM API. ">
<polygon fill="white" stroke="black" points="1458.5,-291.5 1458.5,-321.5 1571.5,-321.5 1571.5,-291.5 1458.5,-291.5"/>
<text text-anchor="start" x="1466.5" y="-309.5" font-family="Helvetica,sans-Serif" font-size="10.00">tvm/runtime/packed</text>
<text text-anchor="middle" x="1515" y="-298.5" font-family="Helvetica,sans-Serif" font-size="10.00">_func.h</text>
</a>
</g>
</g>
<!-- Node14&#45;&gt;Node17 -->
<g id="edge22" class="edge"><title>Node14&#45;&gt;Node17</title>
<path fill="none" stroke="midnightblue" d="M1010.06,-360.116C1119.8,-348.681 1338.47,-325.895 1448.5,-314.429"/>
<polygon fill="midnightblue" stroke="midnightblue" points="1448.9,-317.907 1458.49,-313.389 1448.18,-310.944 1448.9,-317.907"/>
</g>
<!-- Node14&#45;&gt;Node21 -->
<g id="edge65" class="edge"><title>Node14&#45;&gt;Node21</title>
<path fill="none" stroke="midnightblue" d="M949.018,-358.365C957.887,-343.54 977.444,-312.747 999,-291 1034.66,-255.019 1084.01,-221.932 1112.71,-204.001"/>
<polygon fill="midnightblue" stroke="midnightblue" points="1114.58,-206.956 1121.26,-198.727 1110.91,-200.998 1114.58,-206.956"/>
</g>
<!-- Node30 -->
<g id="node30" class="node"><title>Node30</title>
<polygon fill="white" stroke="#bfbfbf" points="902.5,-297 902.5,-316 951.5,-316 951.5,-297 902.5,-297"/>
<text text-anchor="middle" x="927" y="-304" font-family="Helvetica,sans-Serif" font-size="10.00">cstring</text>
</g>
<!-- Node14&#45;&gt;Node30 -->
<g id="edge60" class="edge"><title>Node14&#45;&gt;Node30</title>
<path fill="none" stroke="midnightblue" d="M941.564,-358.475C939.141,-349.992 935.344,-336.704 932.235,-325.822"/>
<polygon fill="midnightblue" stroke="midnightblue" points="935.544,-324.663 929.431,-316.009 928.813,-326.586 935.544,-324.663"/>
</g>
<!-- Node31 -->
<g id="node31" class="node"><title>Node31</title>
<polygon fill="white" stroke="#bfbfbf" points="1008.5,-297 1008.5,-316 1085.5,-316 1085.5,-297 1008.5,-297"/>
<text text-anchor="middle" x="1047" y="-304" font-family="Helvetica,sans-Serif" font-size="10.00">initializer_list</text>
</g>
<!-- Node14&#45;&gt;Node31 -->
<g id="edge61" class="edge"><title>Node14&#45;&gt;Node31</title>
<path fill="none" stroke="midnightblue" d="M958.757,-358.475C975.661,-348.711 1003.58,-332.581 1023.49,-321.081"/>
<polygon fill="midnightblue" stroke="midnightblue" points="1025.36,-324.042 1032.27,-316.009 1021.86,-317.981 1025.36,-324.042"/>
</g>
<!-- Node15&#45;&gt;Node3 -->
<g id="edge17" class="edge"><title>Node15&#45;&gt;Node3</title>
<path fill="none" stroke="midnightblue" d="M752.569,-184.095C913.064,-174.235 1333.63,-148.398 1499.41,-138.214"/>
<polygon fill="midnightblue" stroke="midnightblue" points="1499.71,-141.702 1509.48,-137.595 1499.28,-134.715 1499.71,-141.702"/>
</g>
<!-- Node15&#45;&gt;Node9 -->
<g id="edge20" class="edge"><title>Node15&#45;&gt;Node9</title>
<path fill="none" stroke="midnightblue" d="M688.668,-179.302C688.459,-166.559 689.128,-142.24 696,-123 700.378,-110.742 708.283,-98.4838 715.258,-89.1146"/>
<polygon fill="midnightblue" stroke="midnightblue" points="718.114,-91.1451 721.516,-81.1113 712.599,-86.8334 718.114,-91.1451"/>
</g>
<!-- Node15&#45;&gt;Node11 -->
<g id="edge19" class="edge"><title>Node15&#45;&gt;Node11</title>
<path fill="none" stroke="midnightblue" d="M668.105,-179.319C619.384,-159.077 498.087,-108.682 441.266,-85.0747"/>
<polygon fill="midnightblue" stroke="midnightblue" points="442.336,-81.7291 431.758,-81.1245 439.65,-88.1934 442.336,-81.7291"/>
</g>
<!-- Node16 -->
<g id="node16" class="node"><title>Node16</title>
<polygon fill="white" stroke="#bfbfbf" points="705.5,-123.5 705.5,-142.5 752.5,-142.5 752.5,-123.5 705.5,-123.5"/>
<text text-anchor="middle" x="729" y="-130.5" font-family="Helvetica,sans-Serif" font-size="10.00">cstdlib</text>
</g>
<!-- Node15&#45;&gt;Node16 -->
<g id="edge18" class="edge"><title>Node15&#45;&gt;Node16</title>
<path fill="none" stroke="midnightblue" d="M695.605,-179.083C701.255,-171.455 709.545,-160.264 716.451,-150.941"/>
<polygon fill="midnightblue" stroke="midnightblue" points="719.378,-152.87 722.518,-142.751 713.753,-148.703 719.378,-152.87"/>
</g>
<!-- Node17&#45;&gt;Node3 -->
<g id="edge51" class="edge"><title>Node17&#45;&gt;Node3</title>
<path fill="none" stroke="midnightblue" d="M1571.9,-298.064C1621.77,-290.241 1688.77,-276.105 1705,-255 1710.42,-247.953 1710.77,-241.76 1705,-235 1638.67,-157.318 1544.33,-276.682 1478,-199 1458.66,-176.352 1495.45,-157.364 1527.67,-145.868"/>
<polygon fill="midnightblue" stroke="midnightblue" points="1529.1,-149.076 1537.45,-142.546 1526.85,-142.448 1529.1,-149.076"/>
</g>
<!-- Node17&#45;&gt;Node4 -->
<g id="edge23" class="edge"><title>Node17&#45;&gt;Node4</title>
<path fill="none" stroke="midnightblue" d="M1499.57,-291.416C1481.91,-275.888 1451.59,-250.992 1422,-235 1380.08,-212.341 1356.03,-231.306 1321,-199 1288.94,-169.434 1273.72,-118.414 1267.55,-91.0754"/>
<polygon fill="midnightblue" stroke="midnightblue" points="1270.97,-90.3158 1265.5,-81.242 1264.12,-91.7463 1270.97,-90.3158"/>
</g>
<!-- Node17&#45;&gt;Node5 -->
<g id="edge24" class="edge"><title>Node17&#45;&gt;Node5</title>
<path fill="none" stroke="midnightblue" d="M1571.56,-295.855C1613.87,-287.653 1672.69,-274.138 1722,-255 1835.85,-210.816 1853.35,-176.762 1963,-123 1986.54,-111.461 2013.34,-99.7056 2035.24,-90.4435"/>
<polygon fill="midnightblue" stroke="midnightblue" points="2036.76,-93.604 2044.62,-86.5042 2034.05,-87.1503 2036.76,-93.604"/>
</g>
<!-- Node17&#45;&gt;Node9 -->
<g id="edge59" class="edge"><title>Node17&#45;&gt;Node9</title>
<path fill="none" stroke="midnightblue" d="M1485.76,-291.425C1453.83,-276.354 1400.96,-252.281 1354,-235 1142.16,-157.05 876.949,-101.199 773.346,-80.9012"/>
<polygon fill="midnightblue" stroke="midnightblue" points="773.736,-77.4117 763.252,-78.9363 772.399,-84.2827 773.736,-77.4117"/>
</g>
<!-- Node17&#45;&gt;Node10 -->
<g id="edge55" class="edge"><title>Node17&#45;&gt;Node10</title>
<path fill="none" stroke="midnightblue" d="M1571.57,-301.941C1751.96,-290.586 2301.89,-255.906 2304,-255 2349.66,-235.39 2347.72,-210.677 2386,-179 2418.33,-152.253 2424.23,-141.278 2462,-123 2512.68,-98.4735 2577.12,-84.3145 2615.04,-77.528"/>
<polygon fill="midnightblue" stroke="midnightblue" points="2615.74,-80.9591 2625,-75.8069 2614.55,-74.0614 2615.74,-80.9591"/>
</g>
<!-- Node17&#45;&gt;Node11 -->
<g id="edge58" class="edge"><title>Node17&#45;&gt;Node11</title>
<path fill="none" stroke="midnightblue" d="M1458.47,-302.944C1346.93,-297.476 1090.75,-282.819 877,-255 808.015,-246.022 634.084,-223.567 569,-199 523.86,-181.962 513.395,-173.487 476,-143 455.938,-126.644 436.268,-104.149 423.914,-89.0064"/>
<polygon fill="midnightblue" stroke="midnightblue" points="426.521,-86.6614 417.539,-81.042 421.056,-91.036 426.521,-86.6614"/>
</g>
<!-- Node18 -->
<g id="node18" class="node"><title>Node18</title>
<g id="a_node18"><a xlink:href="runtime_2module_8h.html" target="_top" xlink:title="Runtime container of the functions generated by TVM, This is used to support dynamically link...">
<polygon fill="white" stroke="black" points="1572,-235.5 1572,-254.5 1696,-254.5 1696,-235.5 1572,-235.5"/>
<text text-anchor="middle" x="1634" y="-242.5" font-family="Helvetica,sans-Serif" font-size="10.00">tvm/runtime/module.h</text>
</a>
</g>
</g>
<!-- Node17&#45;&gt;Node18 -->
<g id="edge25" class="edge"><title>Node17&#45;&gt;Node18</title>
<path fill="none" stroke="midnightblue" d="M1537.36,-291.399C1555.8,-281.55 1581.95,-268.501 1602.48,-258.922"/>
<polygon fill="midnightblue" stroke="midnightblue" points="1604.13,-262.014 1611.76,-254.658 1601.21,-255.653 1604.13,-262.014"/>
</g>
<!-- Node20 -->
<g id="node20" class="node"><title>Node20</title>
<polygon fill="white" stroke="#bfbfbf" points="1330.5,-179.5 1330.5,-198.5 1387.5,-198.5 1387.5,-179.5 1330.5,-179.5"/>
<text text-anchor="middle" x="1359" y="-186.5" font-family="Helvetica,sans-Serif" font-size="10.00">memory</text>
</g>
<!-- Node17&#45;&gt;Node20 -->
<g id="edge57" class="edge"><title>Node17&#45;&gt;Node20</title>
<path fill="none" stroke="midnightblue" d="M1506.91,-291.372C1497.4,-275.805 1480.3,-250.875 1460,-235 1441.29,-220.366 1417.07,-209.364 1397.03,-201.903"/>
<polygon fill="midnightblue" stroke="midnightblue" points="1398.17,-198.594 1387.58,-198.525 1395.82,-205.186 1398.17,-198.594"/>
</g>
<!-- Node17&#45;&gt;Node21 -->
<g id="edge54" class="edge"><title>Node17&#45;&gt;Node21</title>
<path fill="none" stroke="midnightblue" d="M1476.36,-291.402C1434.98,-276.528 1367.26,-252.818 1308,-235 1260.32,-220.663 1204.43,-206.527 1169.62,-198.031"/>
<polygon fill="midnightblue" stroke="midnightblue" points="1170.06,-194.538 1159.52,-195.581 1168.41,-201.34 1170.06,-194.538"/>
</g>
<!-- Node23 -->
<g id="node23" class="node"><title>Node23</title>
<g id="a_node23"><a xlink:href="ndarray_8h.html" target="_top" xlink:title="A device&#45;independent managed NDArray abstraction. ">
<polygon fill="white" stroke="black" points="2172.5,-235.5 2172.5,-254.5 2295.5,-254.5 2295.5,-235.5 2172.5,-235.5"/>
<text text-anchor="middle" x="2234" y="-242.5" font-family="Helvetica,sans-Serif" font-size="10.00">tvm/runtime/ndarray.h</text>
</a>
</g>
</g>
<!-- Node17&#45;&gt;Node23 -->
<g id="edge35" class="edge"><title>Node17&#45;&gt;Node23</title>
<path fill="none" stroke="midnightblue" d="M1571.72,-300.806C1701.41,-290.074 2019.42,-263.757 2162.36,-251.928"/>
<polygon fill="midnightblue" stroke="midnightblue" points="2162.67,-255.415 2172.35,-251.102 2162.09,-248.439 2162.67,-255.415"/>
</g>
<!-- Node26 -->
<g id="node26" class="node"><title>Node26</title>
<g id="a_node26"><a xlink:href="data__type_8h.html" target="_top" xlink:title="tvm/runtime/data_type.h">
<polygon fill="white" stroke="black" points="1980,-235.5 1980,-254.5 2116,-254.5 2116,-235.5 1980,-235.5"/>
<text text-anchor="middle" x="2048" y="-242.5" font-family="Helvetica,sans-Serif" font-size="10.00">tvm/runtime/data_type.h</text>
</a>
</g>
</g>
<!-- Node17&#45;&gt;Node26 -->
<g id="edge46" class="edge"><title>Node17&#45;&gt;Node26</title>
<path fill="none" stroke="midnightblue" d="M1571.54,-299.189C1667.18,-288.512 1861.08,-266.867 1969.72,-254.738"/>
<polygon fill="midnightblue" stroke="midnightblue" points="1970.41,-258.183 1979.96,-253.595 1969.64,-251.226 1970.41,-258.183"/>
</g>
<!-- Node27 -->
<g id="node27" class="node"><title>Node27</title>
<polygon fill="white" stroke="#bfbfbf" points="1202.5,-235.5 1202.5,-254.5 1265.5,-254.5 1265.5,-235.5 1202.5,-235.5"/>
<text text-anchor="middle" x="1234" y="-242.5" font-family="Helvetica,sans-Serif" font-size="10.00">functional</text>
</g>
<!-- Node17&#45;&gt;Node27 -->
<g id="edge52" class="edge"><title>Node17&#45;&gt;Node27</title>
<path fill="none" stroke="midnightblue" d="M1458.47,-293.531C1404.31,-282.062 1323.85,-265.024 1275.4,-254.767"/>
<polygon fill="midnightblue" stroke="midnightblue" points="1276.08,-251.333 1265.57,-252.685 1274.63,-258.181 1276.08,-251.333"/>
</g>
<!-- Node28 -->
<g id="node28" class="node"><title>Node28</title>
<polygon fill="white" stroke="#bfbfbf" points="1512.5,-235.5 1512.5,-254.5 1553.5,-254.5 1553.5,-235.5 1512.5,-235.5"/>
<text text-anchor="middle" x="1533" y="-242.5" font-family="Helvetica,sans-Serif" font-size="10.00">tuple</text>
</g>
<!-- Node17&#45;&gt;Node28 -->
<g id="edge53" class="edge"><title>Node17&#45;&gt;Node28</title>
<path fill="none" stroke="midnightblue" d="M1519.27,-291.399C1521.72,-283.288 1524.83,-273.007 1527.47,-264.281"/>
<polygon fill="midnightblue" stroke="midnightblue" points="1530.84,-265.243 1530.38,-254.658 1524.14,-263.216 1530.84,-265.243"/>
</g>
<!-- Node29 -->
<g id="node29" class="node"><title>Node29</title>
<polygon fill="white" stroke="#bfbfbf" points="674,-235.5 674,-254.5 716,-254.5 716,-235.5 674,-235.5"/>
<text text-anchor="middle" x="695" y="-242.5" font-family="Helvetica,sans-Serif" font-size="10.00">limits</text>
</g>
<!-- Node17&#45;&gt;Node29 -->
<g id="edge56" class="edge"><title>Node17&#45;&gt;Node29</title>
<path fill="none" stroke="midnightblue" d="M1458.31,-301.387C1298.73,-289.807 849.289,-257.195 726.397,-248.278"/>
<polygon fill="midnightblue" stroke="midnightblue" points="726.406,-244.77 716.179,-247.537 725.899,-251.751 726.406,-244.77"/>
</g>
<!-- Node18&#45;&gt;Node3 -->
<g id="edge28" class="edge"><title>Node18&#45;&gt;Node3</title>
<path fill="none" stroke="midnightblue" d="M1582.73,-235.477C1528.32,-225.914 1448.95,-210.268 1440,-199 1417.97,-171.27 1459.84,-154.297 1501.45,-144.683"/>
<polygon fill="midnightblue" stroke="midnightblue" points="1502.4,-148.059 1511.43,-142.511 1500.91,-141.22 1502.4,-148.059"/>
</g>
<!-- Node18&#45;&gt;Node5 -->
<g id="edge27" class="edge"><title>Node18&#45;&gt;Node5</title>
<path fill="none" stroke="midnightblue" d="M1641.48,-235.079C1653.62,-221.139 1679.01,-194.218 1706,-179 1801.72,-125.029 1926.96,-96.5918 2005.2,-83.0649"/>
<polygon fill="midnightblue" stroke="midnightblue" points="2006.17,-86.4506 2015.44,-81.3321 2005,-79.5486 2006.17,-86.4506"/>
</g>
<!-- Node18&#45;&gt;Node10 -->
<g id="edge32" class="edge"><title>Node18&#45;&gt;Node10</title>
<path fill="none" stroke="midnightblue" d="M1696.24,-241.347C1845.21,-234.744 2213.86,-216.819 2267,-199 2281.7,-194.072 2369.62,-128.792 2384,-123 2463.12,-91.1341 2563.9,-79.0058 2614.67,-74.6909"/>
<polygon fill="midnightblue" stroke="midnightblue" points="2615.03,-78.1733 2624.72,-73.8844 2614.47,-71.1957 2615.03,-78.1733"/>
</g>
<!-- Node18&#45;&gt;Node15 -->
<g id="edge29" class="edge"><title>Node18&#45;&gt;Node15</title>
<path fill="none" stroke="midnightblue" d="M1571.98,-235.956C1568.61,-235.61 1565.26,-235.288 1562,-235 1266.44,-208.945 913.148,-196.44 762.689,-191.986"/>
<polygon fill="midnightblue" stroke="midnightblue" points="762.741,-188.486 752.642,-191.692 762.536,-195.483 762.741,-188.486"/>
</g>
<!-- Node18&#45;&gt;Node17 -->
<g id="edge34" class="edge"><title>Node18&#45;&gt;Node17</title>
<path fill="none" stroke="midnightblue" d="M1621.61,-254.658C1606.51,-263.122 1580.65,-276.276 1558.13,-287.084"/>
<polygon fill="midnightblue" stroke="midnightblue" points="1556.57,-283.947 1549.04,-291.399 1559.58,-290.27 1556.57,-283.947"/>
</g>
<!-- Node19 -->
<g id="node19" class="node"><title>Node19</title>
<polygon fill="white" stroke="#bfbfbf" points="1972,-123.5 1972,-142.5 2032,-142.5 2032,-123.5 1972,-123.5"/>
<text text-anchor="middle" x="2002" y="-130.5" font-family="Helvetica,sans-Serif" font-size="10.00">dmlc/io.h</text>
</g>
<!-- Node18&#45;&gt;Node19 -->
<g id="edge26" class="edge"><title>Node18&#45;&gt;Node19</title>
<path fill="none" stroke="midnightblue" d="M1662.57,-235.46C1728.13,-215.862 1889.43,-167.647 1963.58,-145.483"/>
<polygon fill="midnightblue" stroke="midnightblue" points="1964.87,-148.752 1973.45,-142.535 1962.86,-142.045 1964.87,-148.752"/>
</g>
<!-- Node18&#45;&gt;Node20 -->
<g id="edge30" class="edge"><title>Node18&#45;&gt;Node20</title>
<path fill="none" stroke="midnightblue" d="M1589.05,-235.485C1542.29,-226.578 1466.95,-212.096 1402,-199 1400.55,-198.708 1399.08,-198.409 1397.59,-198.105"/>
<polygon fill="midnightblue" stroke="midnightblue" points="1398.17,-194.651 1387.67,-196.062 1396.76,-201.507 1398.17,-194.651"/>
</g>
<!-- Node18&#45;&gt;Node21 -->
<g id="edge31" class="edge"><title>Node18&#45;&gt;Node21</title>
<path fill="none" stroke="midnightblue" d="M1571.96,-236.168C1568.59,-235.767 1565.25,-235.375 1562,-235 1416.18,-218.186 1242,-200.551 1169.86,-193.354"/>
<polygon fill="midnightblue" stroke="midnightblue" points="1169.87,-189.838 1159.57,-192.33 1169.17,-196.804 1169.87,-189.838"/>
</g>
<!-- Node18&#45;&gt;Node22 -->
<g id="edge33" class="edge"><title>Node18&#45;&gt;Node22</title>
<path fill="none" stroke="midnightblue" d="M1571.98,-235.886C1568.61,-235.557 1565.27,-235.259 1562,-235 1307.69,-214.862 504.491,-196.101 283.665,-191.224"/>
<polygon fill="midnightblue" stroke="midnightblue" points="283.669,-187.724 273.595,-191.002 283.515,-194.722 283.669,-187.724"/>
</g>
<!-- Node23&#45;&gt;Node3 -->
<g id="edge37" class="edge"><title>Node23&#45;&gt;Node3</title>
<path fill="none" stroke="midnightblue" d="M2173.88,-235.466C2113.25,-226.748 2017.03,-212.597 1934,-199 1823.83,-180.957 1695.42,-157.618 1623.74,-144.379"/>
<polygon fill="midnightblue" stroke="midnightblue" points="1624.05,-140.878 1613.58,-142.501 1622.78,-147.761 1624.05,-140.878"/>
</g>
<!-- Node23&#45;&gt;Node5 -->
<g id="edge36" class="edge"><title>Node23&#45;&gt;Node5</title>
<path fill="none" stroke="midnightblue" d="M2186.57,-235.462C2163.38,-229.034 2136.72,-217.945 2119,-199 2092.47,-170.636 2083.53,-124.757 2080.53,-96.7403"/>
<polygon fill="midnightblue" stroke="midnightblue" points="2084,-96.2564 2079.61,-86.6105 2077.02,-96.8841 2084,-96.2564"/>
</g>
<!-- Node23&#45;&gt;Node11 -->
<g id="edge45" class="edge"><title>Node23&#45;&gt;Node11</title>
<path fill="none" stroke="midnightblue" d="M2195.69,-235.416C2081.79,-210.031 1746.27,-136.261 1635,-123 1215.88,-73.0506 1107.65,-106.113 686,-87 597.491,-82.988 493.017,-77.1861 442.073,-74.2882"/>
<polygon fill="midnightblue" stroke="midnightblue" points="442.223,-70.7911 432.04,-73.7155 441.824,-77.7798 442.223,-70.7911"/>
</g>
<!-- Node23&#45;&gt;Node12 -->
<g id="edge43" class="edge"><title>Node23&#45;&gt;Node12</title>
<path fill="none" stroke="midnightblue" d="M2208.14,-235.372C2181.49,-226.434 2138.76,-211.982 2102,-199 1986.32,-158.14 1849.73,-107.489 1788.52,-84.661"/>
<polygon fill="midnightblue" stroke="midnightblue" points="1789.61,-81.3309 1779.02,-81.1136 1787.16,-87.8891 1789.61,-81.3309"/>
</g>
<!-- Node23&#45;&gt;Node21 -->
<g id="edge44" class="edge"><title>Node23&#45;&gt;Node21</title>
<path fill="none" stroke="midnightblue" d="M2172.35,-238.502C2156.9,-237.237 2140.35,-235.977 2125,-235 1768.03,-212.279 1678.3,-215.69 1321,-199 1268.23,-196.535 1207,-193.527 1169.9,-191.689"/>
<polygon fill="midnightblue" stroke="midnightblue" points="1169.81,-188.18 1159.65,-191.18 1169.47,-195.171 1169.81,-188.18"/>
</g>
<!-- Node24 -->
<g id="node24" class="node"><title>Node24</title>
<g id="a_node24"><a xlink:href="serializer_8h.html" target="_top" xlink:title="Serializer extension to support TVM data types Include this file to enable serialization of DLDataTyp...">
<polygon fill="white" stroke="black" points="2128,-179.5 2128,-198.5 2258,-198.5 2258,-179.5 2128,-179.5"/>
<text text-anchor="middle" x="2193" y="-186.5" font-family="Helvetica,sans-Serif" font-size="10.00">tvm/runtime/serializer.h</text>
</a>
</g>
</g>
<!-- Node23&#45;&gt;Node24 -->
<g id="edge38" class="edge"><title>Node23&#45;&gt;Node24</title>
<path fill="none" stroke="midnightblue" d="M2222.06,-235.083C2214.82,-227.613 2206.15,-216.724 2199.94,-207.52"/>
<polygon fill="midnightblue" stroke="midnightblue" points="2202.75,-205.415 2194.51,-198.751 2196.8,-209.097 2202.75,-205.415"/>
</g>
<!-- Node24&#45;&gt;Node5 -->
<g id="edge41" class="edge"><title>Node24&#45;&gt;Node5</title>
<path fill="none" stroke="midnightblue" d="M2184.43,-179.319C2166.69,-161.347 2125.49,-119.606 2100.17,-93.9478"/>
<polygon fill="midnightblue" stroke="midnightblue" points="2102.38,-91.2038 2092.86,-86.5453 2097.4,-96.1211 2102.38,-91.2038"/>
</g>
<!-- Node24&#45;&gt;Node19 -->
<g id="edge39" class="edge"><title>Node24&#45;&gt;Node19</title>
<path fill="none" stroke="midnightblue" d="M2162.74,-179.444C2130.04,-170.201 2077.82,-155.436 2041.82,-145.257"/>
<polygon fill="midnightblue" stroke="midnightblue" points="2042.7,-141.869 2032.12,-142.516 2040.79,-148.605 2042.7,-141.869"/>
</g>
<!-- Node24&#45;&gt;Node23 -->
<g id="edge42" class="edge"><title>Node24&#45;&gt;Node23</title>
<path fill="none" stroke="midnightblue" d="M2204.78,-198.751C2212.08,-206.248 2220.86,-217.275 2227.12,-226.566"/>
<polygon fill="midnightblue" stroke="midnightblue" points="2224.16,-228.424 2232.4,-235.083 2230.11,-224.738 2224.16,-228.424"/>
</g>
<!-- Node25 -->
<g id="node25" class="node"><title>Node25</title>
<polygon fill="white" stroke="#bfbfbf" points="2164,-123.5 2164,-142.5 2258,-142.5 2258,-123.5 2164,-123.5"/>
<text text-anchor="middle" x="2211" y="-130.5" font-family="Helvetica,sans-Serif" font-size="10.00">dmlc/serializer.h</text>
</g>
<!-- Node24&#45;&gt;Node25 -->
<g id="edge40" class="edge"><title>Node24&#45;&gt;Node25</title>
<path fill="none" stroke="midnightblue" d="M2195.97,-179.083C2198.38,-171.849 2201.86,-161.409 2204.87,-152.397"/>
<polygon fill="midnightblue" stroke="midnightblue" points="2208.24,-153.345 2208.08,-142.751 2201.6,-151.131 2208.24,-153.345"/>
</g>
<!-- Node26&#45;&gt;Node4 -->
<g id="edge48" class="edge"><title>Node26&#45;&gt;Node4</title>
<path fill="none" stroke="midnightblue" d="M2035.32,-235.5C2000.5,-212.64 1899.72,-149.775 1806,-123 1715.15,-97.0442 1435.53,-80.8253 1317.48,-74.9686"/>
<polygon fill="midnightblue" stroke="midnightblue" points="1317.4,-71.4607 1307.24,-74.4667 1317.06,-78.4523 1317.4,-71.4607"/>
</g>
<!-- Node26&#45;&gt;Node5 -->
<g id="edge47" class="edge"><title>Node26&#45;&gt;Node5</title>
<path fill="none" stroke="midnightblue" d="M2049.58,-235.26C2054.17,-209.866 2067.62,-135.444 2074.63,-96.6497"/>
<polygon fill="midnightblue" stroke="midnightblue" points="2078.09,-97.1859 2076.43,-86.7228 2071.21,-95.9407 2078.09,-97.1859"/>
</g>
<!-- Node26&#45;&gt;Node9 -->
<g id="edge49" class="edge"><title>Node26&#45;&gt;Node9</title>
<path fill="none" stroke="midnightblue" d="M2025.6,-235.447C1964.23,-212.454 1787.79,-149.281 1635,-123 1466.35,-93.9902 931.424,-77.8479 773.381,-73.6265"/>
<polygon fill="midnightblue" stroke="midnightblue" points="773.182,-70.1201 763.093,-73.3544 772.997,-77.1176 773.182,-70.1201"/>
</g>
<!-- Node26&#45;&gt;Node10 -->
<g id="edge50" class="edge"><title>Node26&#45;&gt;Node10</title>
<path fill="none" stroke="midnightblue" d="M2116.15,-238.755C2167.92,-233.136 2240.18,-221.741 2300,-199 2360.42,-176.031 2364.12,-147.352 2424,-123 2488.88,-96.6117 2570.27,-82.6087 2614.58,-76.4541"/>
<polygon fill="midnightblue" stroke="midnightblue" points="2615.31,-79.8877 2624.75,-75.0893 2614.38,-72.9499 2615.31,-79.8877"/>
</g>
<!-- Node32&#45;&gt;Node3 -->
<g id="edge70" class="edge"><title>Node32&#45;&gt;Node3</title>
<path fill="none" stroke="midnightblue" d="M1497.5,-537.301C1544.5,-506.105 1701.05,-394.269 1756,-255 1785.79,-179.509 1648.63,-210.257 1630,-199 1609.44,-186.575 1591.18,-165.57 1579.89,-150.808"/>
<polygon fill="midnightblue" stroke="midnightblue" points="1582.56,-148.527 1573.8,-142.556 1576.92,-152.682 1582.56,-148.527"/>
</g>
<!-- Node32&#45;&gt;Node5 -->
<g id="edge69" class="edge"><title>Node32&#45;&gt;Node5</title>
<path fill="none" stroke="midnightblue" d="M1543.58,-538.518C1602.8,-530.681 1696.08,-517.26 1776,-501 2029.69,-449.384 2190.67,-487.761 2304,-255 2324.24,-213.434 2334.24,-186.534 2267,-123 2236.45,-94.1291 2191.2,-81.3918 2152.75,-75.9259"/>
<polygon fill="midnightblue" stroke="midnightblue" points="2152.99,-72.4274 2142.62,-74.6284 2152.1,-79.3707 2152.99,-72.4274"/>
</g>
<!-- Node32&#45;&gt;Node9 -->
<g id="edge103" class="edge"><title>Node32&#45;&gt;Node9</title>
<path fill="none" stroke="midnightblue" d="M1424.27,-539.214C1366.26,-532.003 1275.91,-519.129 1199,-501 1154.54,-490.519 1144.99,-482.311 1101,-470 934.908,-423.521 857.953,-486.643 724,-378 670.603,-334.692 625.839,-291.509 665,-235 690.955,-197.546 735.045,-236.454 761,-199 780.24,-171.237 770.413,-155.44 761,-123 757.405,-110.611 749.759,-98.3494 742.842,-89.0109"/>
<polygon fill="midnightblue" stroke="midnightblue" points="745.517,-86.7504 736.59,-81.0445 740.011,-91.072 745.517,-86.7504"/>
</g>
<!-- Node32&#45;&gt;Node10 -->
<g id="edge102" class="edge"><title>Node32&#45;&gt;Node10</title>
<path fill="none" stroke="midnightblue" d="M1543.71,-541.807C1623.02,-535.683 1767.28,-522.605 1889,-501 2130.9,-458.065 2196.01,-439.085 2412,-322 2517.46,-264.833 2551.11,-245.146 2614,-143 2624.49,-125.961 2633.89,-105.049 2639.94,-90.4433"/>
<polygon fill="midnightblue" stroke="midnightblue" points="2643.23,-91.6513 2643.73,-81.0683 2636.74,-89.0285 2643.23,-91.6513"/>
</g>
<!-- Node32&#45;&gt;Node15 -->
<g id="edge71" class="edge"><title>Node32&#45;&gt;Node15</title>
<path fill="none" stroke="midnightblue" d="M1424.37,-538.523C1360.35,-530.274 1255.76,-516.145 1166,-501 1095.44,-489.094 1078.72,-480.91 1008,-470 866.99,-448.247 829.188,-460.537 689,-434 594.513,-416.114 538.542,-454.293 480,-378 441.31,-327.578 440.068,-284.445 480,-235 496.951,-214.01 562.052,-202.348 615.149,-196.188"/>
<polygon fill="midnightblue" stroke="midnightblue" points="615.697,-199.649 625.249,-195.065 614.923,-192.692 615.697,-199.649"/>
</g>
<!-- Node32&#45;&gt;Node17 -->
<g id="edge72" class="edge"><title>Node32&#45;&gt;Node17</title>
<path fill="none" stroke="midnightblue" d="M1485.42,-537.385C1486.89,-528.336 1489.23,-513.685 1491,-501 1499.49,-440.235 1507.99,-368.518 1512.23,-331.816"/>
<polygon fill="midnightblue" stroke="midnightblue" points="1515.74,-331.936 1513.4,-321.601 1508.78,-331.136 1515.74,-331.936"/>
</g>
<!-- Node32&#45;&gt;Node21 -->
<g id="edge101" class="edge"><title>Node32&#45;&gt;Node21</title>
<path fill="none" stroke="midnightblue" d="M1481.66,-537.285C1477.63,-522.857 1468.66,-493.29 1457,-470 1397.75,-351.621 1389.07,-300.433 1274,-235 1240.83,-216.141 1198.63,-203.849 1169.68,-196.953"/>
<polygon fill="midnightblue" stroke="midnightblue" points="1170.18,-193.477 1159.65,-194.654 1168.61,-200.3 1170.18,-193.477"/>
</g>
<!-- Node32&#45;&gt;Node23 -->
<g id="edge73" class="edge"><title>Node32&#45;&gt;Node23</title>
<path fill="none" stroke="midnightblue" d="M1533.73,-537.44C1577,-529.52 1641.18,-516.63 1696,-501 1921.38,-436.74 2013.68,-474.077 2192,-322 2209.97,-306.673 2221.68,-281.639 2228.06,-264.521"/>
<polygon fill="midnightblue" stroke="midnightblue" points="2231.53,-265.192 2231.49,-254.597 2224.91,-262.903 2231.53,-265.192"/>
</g>
<!-- Node32&#45;&gt;Node26 -->
<g id="edge74" class="edge"><title>Node32&#45;&gt;Node26</title>
<path fill="none" stroke="midnightblue" d="M1516.04,-537.375C1576.39,-520.667 1710.54,-481.334 1818,-434 1864.97,-413.31 1875.64,-405.458 1919,-378 1955.06,-355.17 1967.3,-352.65 1997,-322 2014.21,-304.233 2029.35,-279.967 2038.57,-263.679"/>
<polygon fill="midnightblue" stroke="midnightblue" points="2041.76,-265.145 2043.52,-254.697 2035.63,-261.771 2041.76,-265.145"/>
</g>
<!-- Node32&#45;&gt;Node33 -->
<g id="edge75" class="edge"><title>Node32&#45;&gt;Node33</title>
<path fill="none" stroke="midnightblue" d="M1470.96,-537.475C1458.52,-529.341 1439.33,-516.791 1423.1,-506.179"/>
<polygon fill="midnightblue" stroke="midnightblue" points="1424.73,-503.066 1414.45,-500.523 1420.9,-508.925 1424.73,-503.066"/>
</g>
<!-- Node32&#45;&gt;Node36 -->
<g id="edge95" class="edge"><title>Node32&#45;&gt;Node36</title>
<path fill="none" stroke="midnightblue" d="M1452.48,-537.475C1419.48,-528.551 1366.82,-514.309 1325.54,-503.144"/>
<polygon fill="midnightblue" stroke="midnightblue" points="1326.42,-499.755 1315.85,-500.523 1324.59,-506.512 1326.42,-499.755"/>
</g>
<!-- Node33&#45;&gt;Node10 -->
<g id="edge94" class="edge"><title>Node33&#45;&gt;Node10</title>
<path fill="none" stroke="midnightblue" d="M1448.74,-480.417C1530.33,-473.868 1686.82,-459.132 1818,-434 2121.56,-375.841 2228.19,-419.27 2490,-255 2526.04,-232.387 2604.06,-130.306 2634.49,-89.4652"/>
<polygon fill="midnightblue" stroke="midnightblue" points="2637.39,-91.4275 2640.54,-81.3106 2631.77,-87.2572 2637.39,-91.4275"/>
</g>
<!-- Node33&#45;&gt;Node26 -->
<g id="edge76" class="edge"><title>Node33&#45;&gt;Node26</title>
<path fill="none" stroke="midnightblue" d="M1448.73,-482.804C1524.36,-479.238 1663.02,-468.189 1776,-434 1830.03,-417.65 1842.67,-408.761 1890,-378 1945.95,-341.638 2004.32,-288.112 2031.83,-261.793"/>
<polygon fill="midnightblue" stroke="midnightblue" points="2034.57,-264.01 2039.34,-254.547 2029.71,-258.973 2034.57,-264.01"/>
</g>
<!-- Node34 -->
<g id="node34" class="node"><title>Node34</title>
<g id="a_node34"><a xlink:href="functor_8h.html" target="_top" xlink:title="Defines the Functor data structures. ">
<polygon fill="white" stroke="black" points="886.5,-235.5 886.5,-254.5 993.5,-254.5 993.5,-235.5 886.5,-235.5"/>
<text text-anchor="middle" x="940" y="-242.5" font-family="Helvetica,sans-Serif" font-size="10.00">tvm/node/functor.h</text>
</a>
</g>
</g>
<!-- Node33&#45;&gt;Node34 -->
<g id="edge77" class="edge"><title>Node33&#45;&gt;Node34</title>
<path fill="none" stroke="midnightblue" d="M1377.98,-470.396C1339.17,-434.744 1231.11,-340.348 1124,-291 1085.91,-273.454 1040.12,-262.222 1003.74,-255.368"/>
<polygon fill="midnightblue" stroke="midnightblue" points="1004.21,-251.896 993.748,-253.55 1002.96,-258.783 1004.21,-251.896"/>
</g>
<!-- Node33&#45;&gt;Node35 -->
<g id="edge83" class="edge"><title>Node33&#45;&gt;Node35</title>
<path fill="none" stroke="midnightblue" d="M1337.37,-471.896C1334.2,-471.239 1331.06,-470.602 1328,-470 1260.28,-456.685 1182.34,-443.682 1128.79,-435.105"/>
<polygon fill="midnightblue" stroke="midnightblue" points="1129.18,-431.623 1118.75,-433.503 1128.08,-438.536 1129.18,-431.623"/>
</g>
<!-- Node34&#45;&gt;Node3 -->
<g id="edge79" class="edge"><title>Node34&#45;&gt;Node3</title>
<path fill="none" stroke="midnightblue" d="M957.075,-235.306C986.18,-220.922 1047.63,-192.429 1103,-179 1240.94,-145.542 1407.59,-136.799 1499.24,-134.616"/>
<polygon fill="midnightblue" stroke="midnightblue" points="1499.57,-138.109 1509.49,-134.391 1499.42,-131.111 1499.57,-138.109"/>
</g>
<!-- Node34&#45;&gt;Node4 -->
<g id="edge78" class="edge"><title>Node34&#45;&gt;Node4</title>
<path fill="none" stroke="midnightblue" d="M951.992,-235.459C970.443,-222.491 1007.11,-197.4 1040,-179 1107.63,-141.16 1190.89,-103.886 1234.37,-85.0858"/>
<polygon fill="midnightblue" stroke="midnightblue" points="1235.97,-88.2044 1243.78,-81.0372 1233.21,-81.7742 1235.97,-88.2044"/>
</g>
<!-- Node34&#45;&gt;Node9 -->
<g id="edge81" class="edge"><title>Node34&#45;&gt;Node9</title>
<path fill="none" stroke="midnightblue" d="M934.189,-235.333C919.456,-213.889 878.562,-157.592 833,-123 811.512,-106.686 783.918,-93.5814 762.554,-84.8136"/>
<polygon fill="midnightblue" stroke="midnightblue" points="763.805,-81.5448 753.22,-81.0944 761.214,-88.0476 763.805,-81.5448"/>
</g>
<!-- Node34&#45;&gt;Node11 -->
<g id="edge82" class="edge"><title>Node34&#45;&gt;Node11</title>
<path fill="none" stroke="midnightblue" d="M886.335,-236.833C795.903,-224.717 622.312,-201.272 616,-199 540.865,-171.961 463.769,-114.885 429.434,-87.62"/>
<polygon fill="midnightblue" stroke="midnightblue" points="431.272,-84.6067 421.286,-81.0675 426.886,-90.0617 431.272,-84.6067"/>
</g>
<!-- Node34&#45;&gt;Node21 -->
<g id="edge80" class="edge"><title>Node34&#45;&gt;Node21</title>
<path fill="none" stroke="midnightblue" d="M971.057,-235.444C1006.97,-225.549 1065.86,-209.323 1102.7,-199.174"/>
<polygon fill="midnightblue" stroke="midnightblue" points="1103.76,-202.513 1112.47,-196.483 1101.9,-195.765 1103.76,-202.513"/>
</g>
<!-- Node35&#45;&gt;Node3 -->
<g id="edge84" class="edge"><title>Node35&#45;&gt;Node3</title>
<path fill="none" stroke="midnightblue" d="M1123.62,-419.083C1277.95,-407.4 1682.42,-366.418 1738,-255 1776.3,-178.232 1676.65,-274.668 1592,-199 1578.71,-187.118 1572.76,-167.205 1570.11,-152.545"/>
<polygon fill="midnightblue" stroke="midnightblue" points="1573.56,-151.969 1568.66,-142.577 1566.64,-152.977 1573.56,-151.969"/>
</g>
<!-- Node35&#45;&gt;Node9 -->
<g id="edge88" class="edge"><title>Node35&#45;&gt;Node9</title>
<path fill="none" stroke="midnightblue" d="M1004.08,-415.878C954.191,-408.771 888.31,-396.264 869,-378 783.266,-296.908 861.638,-220.393 795,-123 784.574,-107.762 768.08,-95.1398 754.189,-86.3254"/>
<polygon fill="midnightblue" stroke="midnightblue" points="755.896,-83.2677 745.527,-81.0939 752.277,-89.2597 755.896,-83.2677"/>
</g>
<!-- Node35&#45;&gt;Node10 -->
<g id="edge93" class="edge"><title>Node35&#45;&gt;Node10</title>
<path fill="none" stroke="midnightblue" d="M1123.61,-417.824C1209.23,-410.199 1371.93,-395 1510,-378 1776.56,-345.178 1842.09,-328.752 2108,-291 2223.5,-274.602 2260.5,-300.311 2368,-255 2456.15,-217.845 2456.3,-172.758 2538,-123 2562.98,-107.785 2593.3,-94.0847 2615.62,-84.8055"/>
<polygon fill="midnightblue" stroke="midnightblue" points="2617.03,-88.0115 2624.96,-80.9859 2614.38,-81.5327 2617.03,-88.0115"/>
</g>
<!-- Node35&#45;&gt;Node11 -->
<g id="edge92" class="edge"><title>Node35&#45;&gt;Node11</title>
<path fill="none" stroke="midnightblue" d="M1004.35,-423.005C934.927,-421.237 817.82,-412.701 724,-378 597.855,-331.344 570.422,-298.564 480,-199 458.155,-174.946 448.588,-171.51 433,-143 423.981,-126.505 418.076,-105.778 414.677,-91.0776"/>
<polygon fill="midnightblue" stroke="midnightblue" points="418.074,-90.2254 412.556,-81.181 411.229,-91.6924 418.074,-90.2254"/>
</g>
<!-- Node35&#45;&gt;Node14 -->
<g id="edge87" class="edge"><title>Node35&#45;&gt;Node14</title>
<path fill="none" stroke="midnightblue" d="M1044.99,-414.444C1025.41,-405.636 994.692,-391.812 972.271,-381.722"/>
<polygon fill="midnightblue" stroke="midnightblue" points="973.481,-378.428 962.925,-377.516 970.608,-384.812 973.481,-378.428"/>
</g>
<!-- Node35&#45;&gt;Node15 -->
<g id="edge85" class="edge"><title>Node35&#45;&gt;Node15</title>
<path fill="none" stroke="midnightblue" d="M1004.38,-416.555C904.621,-404.408 710.749,-374.509 670,-322 646.255,-291.402 655.606,-272.574 665,-235 667.439,-225.245 672.437,-215.29 677.243,-207.231"/>
<polygon fill="midnightblue" stroke="midnightblue" points="680.213,-209.083 682.633,-198.768 674.309,-205.322 680.213,-209.083"/>
</g>
<!-- Node35&#45;&gt;Node17 -->
<g id="edge86" class="edge"><title>Node35&#45;&gt;Node17</title>
<path fill="none" stroke="midnightblue" d="M1097.53,-414.413C1172.13,-395.307 1352.92,-349.007 1450.31,-324.067"/>
<polygon fill="midnightblue" stroke="midnightblue" points="1451.22,-327.447 1460.04,-321.575 1449.48,-320.666 1451.22,-327.447"/>
</g>
<!-- Node35&#45;&gt;Node21 -->
<g id="edge89" class="edge"><title>Node35&#45;&gt;Node21</title>
<path fill="none" stroke="midnightblue" d="M1086.92,-414.394C1119.87,-400.617 1179.36,-370.159 1204,-322 1210.28,-309.734 1209.9,-303.451 1204,-291 1193.18,-268.167 1174.67,-275.573 1160,-255 1149.97,-240.934 1143.64,-222.194 1140.02,-208.451"/>
<polygon fill="midnightblue" stroke="midnightblue" points="1143.41,-207.591 1137.67,-198.685 1136.6,-209.226 1143.41,-207.591"/>
</g>
<!-- Node35&#45;&gt;Node22 -->
<g id="edge91" class="edge"><title>Node35&#45;&gt;Node22</title>
<path fill="none" stroke="midnightblue" d="M1004.36,-420.916C888.717,-416.35 638.163,-403.754 556,-378 427.466,-337.711 294.073,-241.602 245.82,-204.74"/>
<polygon fill="midnightblue" stroke="midnightblue" points="247.878,-201.907 237.821,-198.573 243.604,-207.451 247.878,-201.907"/>
</g>
<!-- Node35&#45;&gt;Node31 -->
<g id="edge90" class="edge"><title>Node35&#45;&gt;Node31</title>
<path fill="none" stroke="midnightblue" d="M1062.72,-414.319C1059.99,-395.757 1053.53,-351.839 1049.79,-326.473"/>
<polygon fill="midnightblue" stroke="midnightblue" points="1053.21,-325.666 1048.29,-316.282 1046.29,-326.685 1053.21,-325.666"/>
</g>
<!-- Node36&#45;&gt;Node10 -->
<g id="edge99" class="edge"><title>Node36&#45;&gt;Node10</title>
<path fill="none" stroke="midnightblue" d="M1319.77,-471.464C1322.55,-470.941 1325.3,-470.449 1328,-470 1475.71,-445.415 1515.47,-459.681 1663,-434 1995.94,-376.045 2096.09,-398.617 2402,-255 2451.6,-231.712 2580.76,-127.113 2628.72,-87.6413"/>
<polygon fill="midnightblue" stroke="midnightblue" points="2631.21,-90.127 2636.69,-81.0633 2626.75,-84.7274 2631.21,-90.127"/>
</g>
<!-- Node36&#45;&gt;Node26 -->
<g id="edge96" class="edge"><title>Node36&#45;&gt;Node26</title>
<path fill="none" stroke="midnightblue" d="M1319.82,-471.729C1322.59,-471.136 1325.32,-470.556 1328,-470 1543.24,-425.261 1608.2,-455.29 1814,-378 1885.43,-351.174 1895.29,-328.032 1962,-291 1981.83,-279.993 2004.58,-268.122 2021.7,-259.337"/>
<polygon fill="midnightblue" stroke="midnightblue" points="2023.75,-262.219 2031.06,-254.552 2020.56,-255.986 2023.75,-262.219"/>
</g>
<!-- Node36&#45;&gt;Node27 -->
<g id="edge100" class="edge"><title>Node36&#45;&gt;Node27</title>
<path fill="none" stroke="midnightblue" d="M1275.03,-470.372C1299.65,-436.977 1354.19,-351.446 1318,-291 1308.55,-275.219 1291.47,-264.657 1275.16,-257.759"/>
<polygon fill="midnightblue" stroke="midnightblue" points="1276.3,-254.448 1265.71,-254.108 1273.78,-260.977 1276.3,-254.448"/>
</g>
<!-- Node36&#45;&gt;Node34 -->
<g id="edge97" class="edge"><title>Node36&#45;&gt;Node34</title>
<path fill="none" stroke="midnightblue" d="M1252.43,-470.445C1217.46,-428.077 1113.99,-303.732 1094,-291 1066.89,-273.733 1032.93,-262.889 1003.8,-256.186"/>
<polygon fill="midnightblue" stroke="midnightblue" points="1004.24,-252.699 993.721,-253.984 1002.74,-259.538 1004.24,-252.699"/>
</g>
<!-- Node36&#45;&gt;Node35 -->
<g id="edge98" class="edge"><title>Node36&#45;&gt;Node35</title>
<path fill="none" stroke="midnightblue" d="M1216.86,-470.475C1181.9,-460.075 1134.85,-446.078 1102.23,-436.372"/>
<polygon fill="midnightblue" stroke="midnightblue" points="1103.18,-433.003 1092.59,-433.506 1101.18,-439.713 1103.18,-433.003"/>
</g>
<!-- Node37&#45;&gt;Node34 -->
<g id="edge105" class="edge"><title>Node37&#45;&gt;Node34</title>
<path fill="none" stroke="midnightblue" d="M984.663,-537.459C968.472,-529.834 946.098,-517.348 931,-501 889.465,-456.026 883.162,-437.558 869,-378 859.721,-338.977 871.168,-324.649 893,-291 900.324,-279.712 911.007,-269.187 920.338,-261.158"/>
<polygon fill="midnightblue" stroke="midnightblue" points="922.578,-263.847 928.071,-254.788 918.127,-258.444 922.578,-263.847"/>
</g>
<!-- Node38 -->
<g id="node38" class="node"><title>Node38</title>
<polygon fill="white" stroke="#bfbfbf" points="940.5,-476 940.5,-495 999.5,-495 999.5,-476 940.5,-476"/>
<text text-anchor="middle" x="970" y="-483" font-family="Helvetica,sans-Serif" font-size="10.00">iostream</text>
</g>
<!-- Node37&#45;&gt;Node38 -->
<g id="edge106" class="edge"><title>Node37&#45;&gt;Node38</title>
<path fill="none" stroke="midnightblue" d="M999.985,-537.475C994.839,-528.727 986.688,-514.869 980.182,-503.809"/>
<polygon fill="midnightblue" stroke="midnightblue" points="983.092,-501.854 975.005,-495.009 977.059,-505.403 983.092,-501.854"/>
</g>
<!-- Node39&#45;&gt;Node10 -->
<g id="edge157" class="edge"><title>Node39&#45;&gt;Node10</title>
<path fill="none" stroke="midnightblue" d="M1469.06,-932.69C1541.43,-924.332 1686.23,-907.557 1809,-893 2062.1,-862.99 2932,-914.87 2932,-660 2932,-660 2932,-660 2932,-188 2932,-152.35 2914.88,-142.445 2885,-123 2820.82,-81.2326 2728.18,-73.2959 2679.58,-72.2208"/>
<polygon fill="midnightblue" stroke="midnightblue" points="2679.39,-68.718 2669.34,-72.0829 2679.29,-75.7173 2679.39,-68.718"/>
</g>
<!-- Node39&#45;&gt;Node21 -->
<g id="edge158" class="edge"><title>Node39&#45;&gt;Node21</title>
<path fill="none" stroke="midnightblue" d="M1376.95,-935.674C1205.13,-926.599 608.1,-891.37 544,-837 466.915,-771.617 486.935,-539.918 518,-470 613.57,-254.895 786.415,-349.482 1002,-255 1018.76,-247.653 1021.67,-243.269 1038,-235 1060.86,-223.422 1087.29,-211.361 1106.94,-202.643"/>
<polygon fill="midnightblue" stroke="midnightblue" points="1108.53,-205.767 1116.27,-198.529 1105.7,-199.362 1108.53,-205.767"/>
</g>
<!-- Node39&#45;&gt;Node22 -->
<g id="edge159" class="edge"><title>Node39&#45;&gt;Node22</title>
<path fill="none" stroke="midnightblue" d="M1376.92,-936.351C1153.08,-928.046 190,-888.78 190,-828 190,-828 190,-828 190,-658 190,-469.83 166.748,-418.593 208,-235 210.092,-225.692 214.014,-215.874 217.754,-207.793"/>
<polygon fill="midnightblue" stroke="midnightblue" points="220.976,-209.172 222.243,-198.653 214.693,-206.086 220.976,-209.172"/>
</g>
<!-- Node40 -->
<g id="node40" class="node"><title>Node40</title>
<g id="a_node40"><a xlink:href="ir_2type_8h.html" target="_top" xlink:title="IR/AST nodes for the unified type system in TVM. ">
<polygon fill="white" stroke="black" points="2291.5,-705.5 2291.5,-724.5 2368.5,-724.5 2368.5,-705.5 2291.5,-705.5"/>
<text text-anchor="middle" x="2330" y="-712.5" font-family="Helvetica,sans-Serif" font-size="10.00">tvm/ir/type.h</text>
</a>
</g>
</g>
<!-- Node39&#45;&gt;Node40 -->
<g id="edge116" class="edge"><title>Node39&#45;&gt;Node40</title>
<path fill="none" stroke="midnightblue" d="M1469.11,-931.516C1528.39,-923.09 1634.48,-907.711 1725,-893 1866.65,-869.978 1904.45,-874.399 2043,-837 2112.51,-818.238 2128.71,-809.093 2195,-781 2233.82,-764.547 2277.61,-742.87 2304.5,-729.18"/>
<polygon fill="midnightblue" stroke="midnightblue" points="2306.3,-732.193 2313.61,-724.523 2303.11,-725.961 2306.3,-732.193"/>
</g>
<!-- Node41 -->
<g id="node41" class="node"><title>Node41</title>
<g id="a_node41"><a xlink:href="ir_2expr_8h.html" target="_top" xlink:title="Base expr nodes in TVM. ">
<polygon fill="white" stroke="black" points="1346.5,-761.5 1346.5,-780.5 1423.5,-780.5 1423.5,-761.5 1346.5,-761.5"/>
<text text-anchor="middle" x="1385" y="-768.5" font-family="Helvetica,sans-Serif" font-size="10.00">tvm/ir/expr.h</text>
</a>
</g>
</g>
<!-- Node39&#45;&gt;Node41 -->
<g id="edge123" class="edge"><title>Node39&#45;&gt;Node41</title>
<path fill="none" stroke="midnightblue" d="M1420.96,-929.075C1414.98,-902.945 1397.41,-826.211 1389.25,-790.577"/>
<polygon fill="midnightblue" stroke="midnightblue" points="1392.6,-789.535 1386.96,-780.568 1385.78,-791.097 1392.6,-789.535"/>
</g>
<!-- Node43 -->
<g id="node43" class="node"><title>Node43</title>
<g id="a_node43"><a xlink:href="ir_2function_8h.html" target="_top" xlink:title="Function nodes. ">
<polygon fill="white" stroke="black" points="1299.5,-873.5 1299.5,-892.5 1394.5,-892.5 1394.5,-873.5 1299.5,-873.5"/>
<text text-anchor="middle" x="1347" y="-880.5" font-family="Helvetica,sans-Serif" font-size="10.00">tvm/ir/function.h</text>
</a>
</g>
</g>
<!-- Node39&#45;&gt;Node43 -->
<g id="edge133" class="edge"><title>Node39&#45;&gt;Node43</title>
<path fill="none" stroke="midnightblue" d="M1410.79,-929.324C1399.22,-921.107 1381.62,-908.602 1367.84,-898.807"/>
<polygon fill="midnightblue" stroke="midnightblue" points="1369.61,-895.773 1359.43,-892.834 1365.56,-901.479 1369.61,-895.773"/>
</g>
<!-- Node46 -->
<g id="node46" class="node"><title>Node46</title>
<g id="a_node46"><a xlink:href="ir_2adt_8h.html" target="_top" xlink:title="Algebraic data type definitions. ">
<polygon fill="white" stroke="black" points="1962,-817.5 1962,-836.5 2034,-836.5 2034,-817.5 1962,-817.5"/>
<text text-anchor="middle" x="1998" y="-824.5" font-family="Helvetica,sans-Serif" font-size="10.00">tvm/ir/adt.h</text>
</a>
</g>
</g>
<!-- Node39&#45;&gt;Node46 -->
<g id="edge150" class="edge"><title>Node39&#45;&gt;Node46</title>
<path fill="none" stroke="midnightblue" d="M1467.64,-929.46C1574.36,-909.044 1843.43,-857.57 1951.76,-836.847"/>
<polygon fill="midnightblue" stroke="midnightblue" points="1952.56,-840.256 1961.73,-834.939 1951.25,-833.381 1952.56,-840.256"/>
</g>
<!-- Node47 -->
<g id="node47" class="node"><title>Node47</title>
<polygon fill="white" stroke="#bfbfbf" points="1195,-873.5 1195,-892.5 1281,-892.5 1281,-873.5 1195,-873.5"/>
<text text-anchor="middle" x="1238" y="-880.5" font-family="Helvetica,sans-Serif" font-size="10.00">unordered_set</text>
</g>
<!-- Node39&#45;&gt;Node47 -->
<g id="edge160" class="edge"><title>Node39&#45;&gt;Node47</title>
<path fill="none" stroke="midnightblue" d="M1393.69,-929.444C1362.16,-920.241 1311.87,-905.562 1277.01,-895.388"/>
<polygon fill="midnightblue" stroke="midnightblue" points="1277.76,-891.959 1267.18,-892.516 1275.8,-898.678 1277.76,-891.959"/>
</g>
<!-- Node40&#45;&gt;Node2 -->
<g id="edge121" class="edge"><title>Node40&#45;&gt;Node2</title>
<path fill="none" stroke="midnightblue" d="M2368.57,-707.694C2421.62,-699.017 2520.06,-682.888 2604,-669 2605.27,-668.791 2606.55,-668.578 2607.84,-668.364"/>
<polygon fill="midnightblue" stroke="midnightblue" points="2608.61,-671.785 2617.9,-666.695 2607.46,-664.88 2608.61,-671.785"/>
</g>
<!-- Node40&#45;&gt;Node3 -->
<g id="edge117" class="edge"><title>Node40&#45;&gt;Node3</title>
<path fill="none" stroke="midnightblue" d="M2341.54,-705.433C2362.8,-688.571 2406,-648.799 2406,-604 2406,-604 2406,-604 2406,-423 2406,-404.217 2142.62,-241.503 2125,-235 1996.95,-187.739 1954.17,-224.103 1820,-199 1743.09,-184.61 1654.91,-159.943 1605.91,-145.489"/>
<polygon fill="midnightblue" stroke="midnightblue" points="1606.65,-142.057 1596.06,-142.567 1604.66,-148.768 1606.65,-142.057"/>
</g>
<!-- Node40&#45;&gt;Node10 -->
<g id="edge122" class="edge"><title>Node40&#45;&gt;Node10</title>
<path fill="none" stroke="midnightblue" d="M2357.33,-705.478C2424.09,-684.276 2590,-629.058 2590,-604 2590,-604 2590,-604 2590,-546 2590,-443.797 2627.54,-423.175 2642,-322 2653.27,-243.122 2649.78,-222.649 2652,-143 2652.25,-134.115 2652.44,-131.878 2652,-123 2651.48,-112.375 2650.33,-100.537 2649.27,-90.9956"/>
<polygon fill="midnightblue" stroke="midnightblue" points="2652.75,-90.5831 2648.11,-81.0588 2645.8,-91.3985 2652.75,-90.5831"/>
</g>
<!-- Node40&#45;&gt;Node13 -->
<g id="edge119" class="edge"><title>Node40&#45;&gt;Node13</title>
<path fill="none" stroke="midnightblue" d="M2296.38,-705.484C2238.65,-691.231 2116.76,-662.757 2012,-649 1754.62,-615.2 1444.51,-606.767 1316.6,-604.68"/>
<polygon fill="midnightblue" stroke="midnightblue" points="1316.31,-601.175 1306.25,-604.518 1316.2,-608.174 1316.31,-601.175"/>
</g>
<!-- Node40&#45;&gt;Node26 -->
<g id="edge118" class="edge"><title>Node40&#45;&gt;Node26</title>
<path fill="none" stroke="midnightblue" d="M2330,-705.442C2330,-686.936 2330,-641.812 2330,-604 2330,-604 2330,-604 2330,-546 2330,-398.877 2147.72,-294.407 2076.26,-259.103"/>
<polygon fill="midnightblue" stroke="midnightblue" points="2077.47,-255.799 2066.94,-254.583 2074.41,-262.097 2077.47,-255.799"/>
</g>
<!-- Node40&#45;&gt;Node35 -->
<g id="edge120" class="edge"><title>Node40&#45;&gt;Node35</title>
<path fill="none" stroke="midnightblue" d="M2291.24,-712.185C2146.55,-705.061 1624.57,-676.244 1199,-613 1138.82,-604.057 969.37,-604.217 931,-557 906.615,-526.992 908.462,-501.419 931,-470 945.736,-449.458 970.36,-438.174 994.443,-432.019"/>
<polygon fill="midnightblue" stroke="midnightblue" points="995.371,-435.397 1004.34,-429.756 993.81,-428.574 995.371,-435.397"/>
</g>
<!-- Node41&#45;&gt;Node2 -->
<g id="edge127" class="edge"><title>Node41&#45;&gt;Node2</title>
<path fill="none" stroke="midnightblue" d="M1423.62,-769.188C1582.69,-765.699 2187.73,-750.963 2377,-725 2464.62,-712.981 2565.09,-686.608 2618.97,-671.407"/>
<polygon fill="midnightblue" stroke="midnightblue" points="2620.13,-674.716 2628.79,-668.614 2618.22,-667.983 2620.13,-674.716"/>
</g>
<!-- Node41&#45;&gt;Node3 -->
<g id="edge124" class="edge"><title>Node41&#45;&gt;Node3</title>
<path fill="none" stroke="midnightblue" d="M1401.9,-761.35C1453.83,-733.475 1605.52,-641.706 1571,-537 1556.38,-492.636 1335.62,-243.364 1321,-199 1318.22,-190.558 1315.31,-185.825 1321,-179 1343.33,-152.234 1434.17,-141.348 1499.2,-136.947"/>
<polygon fill="midnightblue" stroke="midnightblue" points="1499.65,-140.426 1509.4,-136.295 1499.2,-133.44 1499.65,-140.426"/>
</g>
<!-- Node41&#45;&gt;Node9 -->
<g id="edge132" class="edge"><title>Node41&#45;&gt;Node9</title>
<path fill="none" stroke="midnightblue" d="M1346.36,-770.68C1269.42,-771.022 1092.31,-766.722 951,-725 706.98,-652.95 607.1,-640.17 458,-434 405.463,-361.354 373.457,-308.354 425,-235 488.161,-145.111 617.062,-100.578 684.94,-82.5755"/>
<polygon fill="midnightblue" stroke="midnightblue" points="686.083,-85.8952 694.894,-80.0102 684.336,-79.1167 686.083,-85.8952"/>
</g>
<!-- Node41&#45;&gt;Node10 -->
<g id="edge129" class="edge"><title>Node41&#45;&gt;Node10</title>
<path fill="none" stroke="midnightblue" d="M1423.59,-769.215C1589.02,-765.716 2239.04,-750.586 2442,-725 2610.24,-703.791 2780,-717.573 2780,-548 2780,-548 2780,-548 2780,-188 2780,-134.575 2718.07,-100.279 2678.72,-83.8839"/>
<polygon fill="midnightblue" stroke="midnightblue" points="2679.85,-80.5629 2669.26,-80.1005 2677.25,-87.0627 2679.85,-80.5629"/>
</g>
<!-- Node41&#45;&gt;Node13 -->
<g id="edge125" class="edge"><title>Node41&#45;&gt;Node13</title>
<path fill="none" stroke="midnightblue" d="M1378.12,-761.075C1357.62,-734.493 1296.74,-655.538 1269.93,-620.763"/>
<polygon fill="midnightblue" stroke="midnightblue" points="1272.48,-618.35 1263.61,-612.568 1266.94,-622.624 1272.48,-618.35"/>
</g>
<!-- Node41&#45;&gt;Node29 -->
<g id="edge131" class="edge"><title>Node41&#45;&gt;Node29</title>
<path fill="none" stroke="midnightblue" d="M1346.47,-770.027C1276.61,-769.08 1125.06,-762.431 1004,-725 878.926,-686.329 608,-515.745 608,-486.5 608,-486.5 608,-486.5 608,-367 608,-321.671 648.746,-281.715 674.468,-261.007"/>
<polygon fill="midnightblue" stroke="midnightblue" points="676.784,-263.64 682.535,-254.743 672.49,-258.112 676.784,-263.64"/>
</g>
<!-- Node41&#45;&gt;Node35 -->
<g id="edge126" class="edge"><title>Node41&#45;&gt;Node35</title>
<path fill="none" stroke="midnightblue" d="M1346.31,-769.496C1224.95,-765.486 855.598,-734.025 784,-501 779.953,-487.83 775.064,-480.487 784,-470 810.496,-438.906 920.295,-429.215 994.266,-426.245"/>
<polygon fill="midnightblue" stroke="midnightblue" points="994.589,-429.735 1004.45,-425.869 994.331,-422.74 994.589,-429.735"/>
</g>
<!-- Node41&#45;&gt;Node40 -->
<g id="edge128" class="edge"><title>Node41&#45;&gt;Node40</title>
<path fill="none" stroke="midnightblue" d="M1423.51,-767.799C1572.95,-759.26 2114.41,-728.319 2280.93,-718.804"/>
<polygon fill="midnightblue" stroke="midnightblue" points="2281.57,-722.273 2291.35,-718.209 2281.17,-715.285 2281.57,-722.273"/>
</g>
<!-- Node42 -->
<g id="node42" class="node"><title>Node42</title>
<polygon fill="white" stroke="#bfbfbf" points="1362,-705.5 1362,-724.5 1424,-724.5 1424,-705.5 1362,-705.5"/>
<text text-anchor="middle" x="1393" y="-712.5" font-family="Helvetica,sans-Serif" font-size="10.00">algorithm</text>
</g>
<!-- Node41&#45;&gt;Node42 -->
<g id="edge130" class="edge"><title>Node41&#45;&gt;Node42</title>
<path fill="none" stroke="midnightblue" d="M1386.32,-761.083C1387.38,-753.927 1388.91,-743.635 1390.23,-734.691"/>
<polygon fill="midnightblue" stroke="midnightblue" points="1393.7,-735.156 1391.7,-724.751 1386.78,-734.13 1393.7,-735.156"/>
</g>
<!-- Node43&#45;&gt;Node9 -->
<g id="edge148" class="edge"><title>Node43&#45;&gt;Node9</title>
<path fill="none" stroke="midnightblue" d="M1299.46,-874.1C1296.27,-873.69 1293.09,-873.318 1290,-873 1124.9,-856.032 703.68,-882.259 544,-837 345.724,-780.801 242.772,-790.466 138,-613 39.654,-446.419 41.8711,-323.038 171,-179 239.458,-102.638 564.958,-80.0598 684.68,-74.2758"/>
<polygon fill="midnightblue" stroke="midnightblue" points="685.119,-77.7592 694.945,-73.7969 684.792,-70.7668 685.119,-77.7592"/>
</g>
<!-- Node43&#45;&gt;Node10 -->
<g id="edge149" class="edge"><title>Node43&#45;&gt;Node10</title>
<path fill="none" stroke="midnightblue" d="M1394.67,-880.548C1602.69,-873.884 2431.87,-843.821 2684,-781 2745.84,-765.593 2769.55,-768.634 2816,-725 2842.39,-700.205 2894,-574.068 2894,-548 2894,-548 2894,-548 2894,-188 2894,-94.3111 2746.37,-76.4515 2679.38,-73.1702"/>
<polygon fill="midnightblue" stroke="midnightblue" points="2679.49,-69.6719 2669.36,-72.7594 2679.2,-76.666 2679.49,-69.6719"/>
</g>
<!-- Node43&#45;&gt;Node14 -->
<g id="edge147" class="edge"><title>Node43&#45;&gt;Node14</title>
<path fill="none" stroke="midnightblue" d="M1299.46,-874.166C1296.26,-873.74 1293.09,-873.346 1290,-873 1051.41,-846.251 987.313,-879.418 751,-837 651.067,-819.062 532,-873.53 532,-772 532,-772 532,-772 532,-484.5 532,-415.567 748.536,-385.878 867.646,-374.762"/>
<polygon fill="midnightblue" stroke="midnightblue" points="868.164,-378.229 877.805,-373.836 867.529,-371.258 868.164,-378.229"/>
</g>
<!-- Node43&#45;&gt;Node41 -->
<g id="edge134" class="edge"><title>Node43&#45;&gt;Node41</title>
<path fill="none" stroke="midnightblue" d="M1349.98,-873.368C1356.14,-855.537 1370.39,-814.295 1378.69,-790.272"/>
<polygon fill="midnightblue" stroke="midnightblue" points="1382.07,-791.186 1382.03,-780.591 1375.46,-788.9 1382.07,-791.186"/>
</g>
<!-- Node44 -->
<g id="node44" class="node"><title>Node44</title>
<g id="a_node44"><a xlink:href="ir_2attrs_8h.html" target="_top" xlink:title="Helpers for attribute objects. ">
<polygon fill="white" stroke="black" points="760.5,-817.5 760.5,-836.5 839.5,-836.5 839.5,-817.5 760.5,-817.5"/>
<text text-anchor="middle" x="800" y="-824.5" font-family="Helvetica,sans-Serif" font-size="10.00">tvm/ir/attrs.h</text>
</a>
</g>
</g>
<!-- Node43&#45;&gt;Node44 -->
<g id="edge135" class="edge"><title>Node43&#45;&gt;Node44</title>
<path fill="none" stroke="midnightblue" d="M1299.45,-874.255C1296.25,-873.808 1293.08,-873.384 1290,-873 1129.57,-852.989 938.54,-837.971 849.838,-831.501"/>
<polygon fill="midnightblue" stroke="midnightblue" points="850.018,-828.005 839.791,-830.773 849.512,-834.986 850.018,-828.005"/>
</g>
<!-- Node44&#45;&gt;Node9 -->
<g id="edge144" class="edge"><title>Node44&#45;&gt;Node9</title>
<path fill="none" stroke="midnightblue" d="M763.607,-817.486C735.042,-810.02 694.764,-797.737 662,-781 505.33,-700.966 342,-723.929 342,-548 342,-548 342,-548 342,-484.5 342,-340.038 349.282,-279.558 453,-179 483.124,-149.794 491.06,-140.916 529,-123 579.601,-99.1052 642.943,-85.5657 684.621,-78.6425"/>
<polygon fill="midnightblue" stroke="midnightblue" points="685.409,-82.061 694.729,-77.0227 684.301,-75.1492 685.409,-82.061"/>
</g>
<!-- Node44&#45;&gt;Node10 -->
<g id="edge145" class="edge"><title>Node44&#45;&gt;Node10</title>
<path fill="none" stroke="midnightblue" d="M839.685,-824.831C1066.5,-817.976 2200.61,-781.37 2545,-725 2687.7,-701.642 2818,-692.604 2818,-548 2818,-548 2818,-548 2818,-188 2818,-121.61 2728.39,-90.8136 2678.91,-78.8691"/>
<polygon fill="midnightblue" stroke="midnightblue" points="2679.53,-75.4219 2669.01,-76.6004 2677.97,-82.2451 2679.53,-75.4219"/>
</g>
<!-- Node44&#45;&gt;Node11 -->
<g id="edge146" class="edge"><title>Node44&#45;&gt;Node11</title>
<path fill="none" stroke="midnightblue" d="M760.272,-823.148C701.323,-818.248 587.583,-806.222 494,-781 259.612,-717.829 0,-790.752 0,-548 0,-548 0,-548 0,-188 0,-109.228 283.346,-81.6391 379.511,-74.5441"/>
<polygon fill="midnightblue" stroke="midnightblue" points="380.042,-78.0152 389.768,-73.8133 379.545,-71.0329 380.042,-78.0152"/>
</g>
<!-- Node44&#45;&gt;Node17 -->
<g id="edge140" class="edge"><title>Node44&#45;&gt;Node17</title>
<path fill="none" stroke="midnightblue" d="M839.864,-820.537C885.997,-813.672 963.963,-800.391 1029,-781 1174.1,-737.737 1528.37,-593.1 1552,-557 1598.91,-485.344 1552.54,-377.542 1528.05,-330.654"/>
<polygon fill="midnightblue" stroke="midnightblue" points="1531,-328.765 1523.19,-321.608 1524.84,-332.074 1531,-328.765"/>
</g>
<!-- Node44&#45;&gt;Node21 -->
<g id="edge142" class="edge"><title>Node44&#45;&gt;Node21</title>
<path fill="none" stroke="midnightblue" d="M764.282,-817.429C718.789,-804.134 646,-773.827 646,-716 646,-716 646,-716 646,-602 646,-367.199 957.813,-513.271 1094,-322 1119.14,-286.688 1129.7,-235.663 1133.75,-208.557"/>
<polygon fill="midnightblue" stroke="midnightblue" points="1137.23,-208.9 1135.11,-198.521 1130.3,-207.961 1137.23,-208.9"/>
</g>
<!-- Node44&#45;&gt;Node22 -->
<g id="edge141" class="edge"><title>Node44&#45;&gt;Node22</title>
<path fill="none" stroke="midnightblue" d="M760.293,-822.063C711.307,-816.441 625.932,-804.135 556,-781 369.998,-719.466 228,-682.416 228,-486.5 228,-486.5 228,-486.5 228,-423 228,-377.682 217.119,-367.211 214,-322 211.339,-283.425 208.581,-273.285 214,-235 215.268,-226.042 217.889,-216.372 220.448,-208.3"/>
<polygon fill="midnightblue" stroke="midnightblue" points="223.771,-209.398 223.656,-198.803 217.139,-207.157 223.771,-209.398"/>
</g>
<!-- Node44&#45;&gt;Node27 -->
<g id="edge143" class="edge"><title>Node44&#45;&gt;Node27</title>
<path fill="none" stroke="midnightblue" d="M760.413,-817.852C740.135,-811.457 717.199,-800.277 705,-781 700.247,-773.489 702.118,-769.409 705,-761 758.09,-606.088 790.869,-554.733 931,-470 1008.66,-423.041 1053.23,-479.07 1132,-434 1187.19,-402.425 1196.2,-380.544 1221,-322 1228.81,-303.552 1231.94,-280.697 1233.18,-264.894"/>
<polygon fill="midnightblue" stroke="midnightblue" points="1236.68,-264.991 1233.79,-254.797 1229.69,-264.566 1236.68,-264.991"/>
</g>
<!-- Node44&#45;&gt;Node33 -->
<g id="edge138" class="edge"><title>Node44&#45;&gt;Node33</title>
<path fill="none" stroke="midnightblue" d="M839.555,-818.405C932.145,-798.917 1166.36,-739.53 1315,-613 1348.42,-584.551 1371.87,-538.054 1383.84,-510.057"/>
<polygon fill="midnightblue" stroke="midnightblue" points="1387.14,-511.225 1387.73,-500.646 1380.67,-508.552 1387.14,-511.225"/>
</g>
<!-- Node44&#45;&gt;Node36 -->
<g id="edge139" class="edge"><title>Node44&#45;&gt;Node36</title>
<path fill="none" stroke="midnightblue" d="M811.936,-817.267C872.681,-772.82 1148.06,-571.328 1236.54,-506.592"/>
<polygon fill="midnightblue" stroke="midnightblue" points="1238.74,-509.32 1244.74,-500.591 1234.6,-503.671 1238.74,-509.32"/>
</g>
<!-- Node44&#45;&gt;Node41 -->
<g id="edge137" class="edge"><title>Node44&#45;&gt;Node41</title>
<path fill="none" stroke="midnightblue" d="M839.718,-822.923C925.597,-816.176 1134.95,-799.221 1310,-781 1318.53,-780.112 1327.6,-779.09 1336.37,-778.061"/>
<polygon fill="midnightblue" stroke="midnightblue" points="1336.97,-781.515 1346.49,-776.857 1336.14,-774.564 1336.97,-781.515"/>
</g>
<!-- Node45 -->
<g id="node45" class="node"><title>Node45</title>
<polygon fill="white" stroke="#bfbfbf" points="714.5,-761.5 714.5,-780.5 809.5,-780.5 809.5,-761.5 714.5,-761.5"/>
<text text-anchor="middle" x="762" y="-768.5" font-family="Helvetica,sans-Serif" font-size="10.00">dmlc/common.h</text>
</g>
<!-- Node44&#45;&gt;Node45 -->
<g id="edge136" class="edge"><title>Node44&#45;&gt;Node45</title>
<path fill="none" stroke="midnightblue" d="M793.725,-817.083C788.358,-809.455 780.482,-798.264 773.921,-788.941"/>
<polygon fill="midnightblue" stroke="midnightblue" points="776.775,-786.915 768.158,-780.751 771.051,-790.943 776.775,-786.915"/>
</g>
<!-- Node46&#45;&gt;Node3 -->
<g id="edge151" class="edge"><title>Node46&#45;&gt;Node3</title>
<path fill="none" stroke="midnightblue" d="M2028.46,-817.398C2070.19,-803.535 2140,-771.976 2140,-716 2140,-716 2140,-716 2140,-546 2140,-519.275 1796.02,-248.57 1773,-235 1734.1,-212.073 1718.7,-218.557 1678,-199 1645.99,-183.615 1610.98,-162.046 1589.26,-148.048"/>
<polygon fill="midnightblue" stroke="midnightblue" points="1591.1,-145.07 1580.81,-142.553 1587.28,-150.939 1591.1,-145.07"/>
</g>
<!-- Node46&#45;&gt;Node10 -->
<g id="edge156" class="edge"><title>Node46&#45;&gt;Node10</title>
<path fill="none" stroke="midnightblue" d="M2034.32,-825.818C2173.24,-824.465 2669.28,-813.418 2794,-725 2829.98,-699.492 2856,-558.859 2856,-548 2856,-548 2856,-548 2856,-188 2856,-157.205 2854.7,-143.805 2832,-123 2789.53,-84.0786 2719.95,-74.7009 2679.31,-72.7105"/>
<polygon fill="midnightblue" stroke="midnightblue" points="2679.27,-69.2068 2669.15,-72.3381 2679.02,-76.2021 2679.27,-69.2068"/>
</g>
<!-- Node46&#45;&gt;Node13 -->
<g id="edge152" class="edge"><title>Node46&#45;&gt;Node13</title>
<path fill="none" stroke="midnightblue" d="M1969.41,-817.433C1854.44,-782.991 1425.85,-654.588 1295.11,-615.418"/>
<polygon fill="midnightblue" stroke="midnightblue" points="1296.09,-612.058 1285.51,-612.541 1294.08,-618.764 1296.09,-612.058"/>
</g>
<!-- Node46&#45;&gt;Node35 -->
<g id="edge153" class="edge"><title>Node46&#45;&gt;Node35</title>
<path fill="none" stroke="midnightblue" d="M1961.71,-818.655C1918.42,-809.859 1843.88,-794.606 1780,-781 1777.34,-780.433 1017.54,-613.967 1015,-613 967.387,-594.897 941.925,-600.241 915,-557 894.55,-524.157 888.849,-500.999 912,-470 931.012,-444.543 963.79,-432.895 994.05,-427.778"/>
<polygon fill="midnightblue" stroke="midnightblue" points="994.81,-431.204 1004.19,-426.283 993.789,-424.279 994.81,-431.204"/>
</g>
<!-- Node46&#45;&gt;Node40 -->
<g id="edge155" class="edge"><title>Node46&#45;&gt;Node40</title>
<path fill="none" stroke="midnightblue" d="M2030.18,-817.456C2061.87,-808.868 2111.55,-794.94 2154,-781 2205.26,-764.165 2263.87,-741.902 2298.86,-728.284"/>
<polygon fill="midnightblue" stroke="midnightblue" points="2300.46,-731.416 2308.5,-724.517 2297.91,-724.896 2300.46,-731.416"/>
</g>
<!-- Node46&#45;&gt;Node41 -->
<g id="edge154" class="edge"><title>Node46&#45;&gt;Node41</title>
<path fill="none" stroke="midnightblue" d="M1961.85,-824.201C1872.65,-819.52 1634.96,-805.588 1438,-781 1436.7,-780.837 1435.38,-780.666 1434.05,-780.486"/>
<polygon fill="midnightblue" stroke="midnightblue" points="1434.13,-776.961 1423.73,-778.981 1433.12,-783.888 1434.13,-776.961"/>
</g>
</g>
</svg>
