<?xml version="1.0" encoding="UTF-8" standalone="no"?>
<!DOCTYPE svg PUBLIC "-//W3C//DTD SVG 1.1//EN"
 "http://www.w3.org/Graphics/SVG/1.1/DTD/svg11.dtd">
<!-- Generated by graphviz version 2.38.0 (20140413.2041)
 -->
<!-- Title: include/tvm/relay/feature.h Pages: 1 -->
<svg width="3118pt" height="1125pt"
 viewBox="0.00 0.00 3118.00 1125.00" xmlns="http://www.w3.org/2000/svg" xmlns:xlink="http://www.w3.org/1999/xlink">
<g id="graph0" class="graph" transform="scale(1 1) rotate(0) translate(4 1121)">
<title>include/tvm/relay/feature.h</title>
<polygon fill="white" stroke="none" points="-4,4 -4,-1121 3114,-1121 3114,4 -4,4"/>
<!-- Node1 -->
<g id="node1" class="node"><title>Node1</title>
<polygon fill="#bfbfbf" stroke="black" points="1543.5,-1097.5 1543.5,-1116.5 1688.5,-1116.5 1688.5,-1097.5 1543.5,-1097.5"/>
<text text-anchor="middle" x="1616" y="-1104.5" font-family="Helvetica,sans-Serif" font-size="10.00">include/tvm/relay/feature.h</text>
</g>
<!-- Node2 -->
<g id="node2" class="node"><title>Node2</title>
<g id="a_node2"><a xlink:href="node_2container_8h.html" target="_top" xlink:title="Array/Map container in the DSL graph. ">
<polygon fill="white" stroke="black" points="1179.5,-414.5 1179.5,-433.5 1298.5,-433.5 1298.5,-414.5 1179.5,-414.5"/>
<text text-anchor="middle" x="1239" y="-421.5" font-family="Helvetica,sans-Serif" font-size="10.00">tvm/node/container.h</text>
</a>
</g>
</g>
<!-- Node1&#45;&gt;Node2 -->
<g id="edge1" class="edge"><title>Node1&#45;&gt;Node2</title>
<path fill="none" stroke="midnightblue" d="M1543.3,-1103.36C1278.35,-1093.28 380,-1054.77 380,-996 380,-996 380,-996 380,-770 380,-513.13 631.343,-554.261 874,-470 972.65,-435.745 1094.23,-426.892 1169.18,-424.965"/>
<polygon fill="midnightblue" stroke="midnightblue" points="1169.52,-428.459 1179.44,-424.738 1169.36,-421.461 1169.52,-428.459"/>
</g>
<!-- Node27 -->
<g id="node27" class="node"><title>Node27</title>
<g id="a_node27"><a xlink:href="relay_2expr_8h.html" target="_top" xlink:title="Relay expression language. ">
<polygon fill="white" stroke="black" points="1898,-1041.5 1898,-1060.5 1992,-1060.5 1992,-1041.5 1898,-1041.5"/>
<text text-anchor="middle" x="1945" y="-1048.5" font-family="Helvetica,sans-Serif" font-size="10.00">tvm/relay/expr.h</text>
</a>
</g>
</g>
<!-- Node1&#45;&gt;Node27 -->
<g id="edge65" class="edge"><title>Node1&#45;&gt;Node27</title>
<path fill="none" stroke="midnightblue" d="M1668.13,-1097.44C1728.03,-1087.61 1826.01,-1071.53 1887.92,-1061.37"/>
<polygon fill="midnightblue" stroke="midnightblue" points="1888.61,-1064.8 1897.91,-1059.73 1887.48,-1057.89 1888.61,-1064.8"/>
</g>
<!-- Node41 -->
<g id="node41" class="node"><title>Node41</title>
<g id="a_node41"><a xlink:href="ir_2module_8h.html" target="_top" xlink:title="IRModule that holds the functions and type definitions. ">
<polygon fill="white" stroke="black" points="1499,-873.5 1499,-892.5 1591,-892.5 1591,-873.5 1499,-873.5"/>
<text text-anchor="middle" x="1545" y="-880.5" font-family="Helvetica,sans-Serif" font-size="10.00">tvm/ir/module.h</text>
</a>
</g>
</g>
<!-- Node1&#45;&gt;Node41 -->
<g id="edge184" class="edge"><title>Node1&#45;&gt;Node41</title>
<path fill="none" stroke="midnightblue" d="M1613.22,-1097.3C1602.75,-1064.56 1565.59,-948.375 1550.97,-902.666"/>
<polygon fill="midnightblue" stroke="midnightblue" points="1554.22,-901.342 1547.84,-892.884 1547.55,-903.475 1554.22,-901.342"/>
</g>
<!-- Node50 -->
<g id="node50" class="node"><title>Node50</title>
<polygon fill="white" stroke="#bfbfbf" points="2010,-1041.5 2010,-1060.5 2054,-1060.5 2054,-1041.5 2010,-1041.5"/>
<text text-anchor="middle" x="2032" y="-1048.5" font-family="Helvetica,sans-Serif" font-size="10.00">bitset</text>
</g>
<!-- Node1&#45;&gt;Node50 -->
<g id="edge185" class="edge"><title>Node1&#45;&gt;Node50</title>
<path fill="none" stroke="midnightblue" d="M1688.59,-1101.13C1764.21,-1095.24 1886.17,-1083.46 1999.84,-1060.93"/>
<polygon fill="midnightblue" stroke="midnightblue" points="2000.65,-1064.34 2009.76,-1058.94 1999.26,-1057.48 2000.65,-1064.34"/>
</g>
<!-- Node3 -->
<g id="node3" class="node"><title>Node3</title>
<g id="a_node3"><a xlink:href="object_8h.html" target="_top" xlink:title="A managed object in the TVM runtime. ">
<polygon fill="white" stroke="black" points="741.5,-123.5 741.5,-142.5 858.5,-142.5 858.5,-123.5 741.5,-123.5"/>
<text text-anchor="middle" x="800" y="-130.5" font-family="Helvetica,sans-Serif" font-size="10.00">tvm/runtime/object.h</text>
</a>
</g>
</g>
<!-- Node2&#45;&gt;Node3 -->
<g id="edge2" class="edge"><title>Node2&#45;&gt;Node3</title>
<path fill="none" stroke="midnightblue" d="M1237.06,-414.363C1231.3,-390.743 1212,-324.605 1170,-291 1121.52,-252.202 1092.94,-277.342 1035,-255 953.769,-223.676 863.869,-172.324 822.765,-147.833"/>
<polygon fill="midnightblue" stroke="midnightblue" points="824.45,-144.763 814.074,-142.621 820.85,-150.766 824.45,-144.763"/>
</g>
<!-- Node8 -->
<g id="node8" class="node"><title>Node8</title>
<polygon fill="white" stroke="#bfbfbf" points="156,-62 156,-81 224,-81 224,-62 156,-62"/>
<text text-anchor="middle" x="190" y="-69" font-family="Helvetica,sans-Serif" font-size="10.00">type_traits</text>
</g>
<!-- Node2&#45;&gt;Node8 -->
<g id="edge59" class="edge"><title>Node2&#45;&gt;Node8</title>
<path fill="none" stroke="midnightblue" d="M1179.3,-417.104C1000.83,-398.695 474.587,-338.488 326,-255 266.249,-221.427 255.215,-201.798 220,-143 209.979,-126.268 201.596,-105.575 196.261,-90.9477"/>
<polygon fill="midnightblue" stroke="midnightblue" points="199.421,-89.3817 192.8,-81.1104 192.818,-91.7052 199.421,-89.3817"/>
</g>
<!-- Node9 -->
<g id="node9" class="node"><title>Node9</title>
<polygon fill="white" stroke="#bfbfbf" points="2006,-62 2006,-81 2050,-81 2050,-62 2006,-62"/>
<text text-anchor="middle" x="2028" y="-69" font-family="Helvetica,sans-Serif" font-size="10.00">string</text>
</g>
<!-- Node2&#45;&gt;Node9 -->
<g id="edge64" class="edge"><title>Node2&#45;&gt;Node9</title>
<path fill="none" stroke="midnightblue" d="M1264.71,-414.434C1316.61,-397.124 1437.6,-356.669 1539,-322 1624.92,-292.625 1652.98,-299.726 1732,-255 1811.63,-209.927 1810.75,-168.736 1890,-123 1924.05,-103.353 1967.1,-89.0622 1995.98,-80.7974"/>
<polygon fill="midnightblue" stroke="midnightblue" points="1997.25,-84.0792 2005.94,-78.0264 1995.37,-77.3355 1997.25,-84.0792"/>
</g>
<!-- Node10 -->
<g id="node10" class="node"><title>Node10</title>
<polygon fill="white" stroke="#bfbfbf" points="2804,-62 2804,-81 2846,-81 2846,-62 2804,-62"/>
<text text-anchor="middle" x="2825" y="-69" font-family="Helvetica,sans-Serif" font-size="10.00">utility</text>
</g>
<!-- Node2&#45;&gt;Node10 -->
<g id="edge63" class="edge"><title>Node2&#45;&gt;Node10</title>
<path fill="none" stroke="midnightblue" d="M1298.52,-420.409C1386.93,-415.839 1557.92,-404.224 1701,-378 1939.29,-334.325 1993.22,-298.542 2227,-235 2444.2,-175.964 2705.79,-104.889 2794.15,-80.8826"/>
<polygon fill="midnightblue" stroke="midnightblue" points="2795.08,-84.2557 2803.81,-78.2562 2793.25,-77.5006 2795.08,-84.2557"/>
</g>
<!-- Node12 -->
<g id="node12" class="node"><title>Node12</title>
<g id="a_node12"><a xlink:href="runtime_2memory_8h.html" target="_top" xlink:title="Runtime memory management. ">
<polygon fill="white" stroke="black" points="720.5,-179.5 720.5,-198.5 847.5,-198.5 847.5,-179.5 720.5,-179.5"/>
<text text-anchor="middle" x="784" y="-186.5" font-family="Helvetica,sans-Serif" font-size="10.00">tvm/runtime/memory.h</text>
</a>
</g>
</g>
<!-- Node2&#45;&gt;Node12 -->
<g id="edge11" class="edge"><title>Node2&#45;&gt;Node12</title>
<path fill="none" stroke="midnightblue" d="M1179.29,-422.41C1120.2,-419.817 1028.35,-410.286 956,-378 874.985,-341.847 815.348,-246.966 793.312,-207.555"/>
<polygon fill="midnightblue" stroke="midnightblue" points="796.287,-205.7 788.423,-198.599 790.143,-209.054 796.287,-205.7"/>
</g>
<!-- Node14 -->
<g id="node14" class="node"><title>Node14</title>
<g id="a_node14"><a xlink:href="packed__func_8h.html" target="_top" xlink:title="Type&#45;erased function used across TVM API. ">
<polygon fill="white" stroke="black" points="1417.5,-291.5 1417.5,-321.5 1530.5,-321.5 1530.5,-291.5 1417.5,-291.5"/>
<text text-anchor="start" x="1425.5" y="-309.5" font-family="Helvetica,sans-Serif" font-size="10.00">tvm/runtime/packed</text>
<text text-anchor="middle" x="1474" y="-298.5" font-family="Helvetica,sans-Serif" font-size="10.00">_func.h</text>
</a>
</g>
</g>
<!-- Node2&#45;&gt;Node14 -->
<g id="edge16" class="edge"><title>Node2&#45;&gt;Node14</title>
<path fill="none" stroke="midnightblue" d="M1256.66,-414.319C1294.65,-395.65 1384.82,-351.332 1436.28,-326.037"/>
<polygon fill="midnightblue" stroke="midnightblue" points="1437.99,-329.097 1445.42,-321.545 1434.9,-322.815 1437.99,-329.097"/>
</g>
<!-- Node17 -->
<g id="node17" class="node"><title>Node17</title>
<polygon fill="white" stroke="#bfbfbf" points="2094.5,-179.5 2094.5,-198.5 2141.5,-198.5 2141.5,-179.5 2094.5,-179.5"/>
<text text-anchor="middle" x="2118" y="-186.5" font-family="Helvetica,sans-Serif" font-size="10.00">vector</text>
</g>
<!-- Node2&#45;&gt;Node17 -->
<g id="edge60" class="edge"><title>Node2&#45;&gt;Node17</title>
<path fill="none" stroke="midnightblue" d="M1298.53,-421.116C1379.81,-417.512 1529.65,-407.182 1654,-378 1724.09,-361.552 1739.05,-348.478 1806,-322 1911.29,-280.357 2034.67,-226.696 2089.38,-202.643"/>
<polygon fill="midnightblue" stroke="midnightblue" points="2091.04,-205.739 2098.78,-198.506 2088.22,-199.332 2091.04,-205.739"/>
</g>
<!-- Node18 -->
<g id="node18" class="node"><title>Node18</title>
<polygon fill="white" stroke="#bfbfbf" points="980.5,-179.5 980.5,-198.5 1073.5,-198.5 1073.5,-179.5 980.5,-179.5"/>
<text text-anchor="middle" x="1027" y="-186.5" font-family="Helvetica,sans-Serif" font-size="10.00">unordered_map</text>
</g>
<!-- Node2&#45;&gt;Node18 -->
<g id="edge62" class="edge"><title>Node2&#45;&gt;Node18</title>
<path fill="none" stroke="midnightblue" d="M1239.5,-414.447C1240.35,-391.042 1239.33,-325.403 1204,-291 1154.26,-242.567 1104.28,-300.678 1052,-255 1038.5,-243.209 1032.26,-223.283 1029.39,-208.594"/>
<polygon fill="midnightblue" stroke="midnightblue" points="1032.82,-207.924 1027.79,-198.603 1025.91,-209.031 1032.82,-207.924"/>
</g>
<!-- Node24 -->
<g id="node24" class="node"><title>Node24</title>
<g id="a_node24"><a xlink:href="runtime_2container_8h.html" target="_top" xlink:title="Common POD(plain old data) container types. ">
<polygon fill="white" stroke="black" points="965,-358.5 965,-377.5 1097,-377.5 1097,-358.5 965,-358.5"/>
<text text-anchor="middle" x="1031" y="-365.5" font-family="Helvetica,sans-Serif" font-size="10.00">tvm/runtime/container.h</text>
</a>
</g>
</g>
<!-- Node2&#45;&gt;Node24 -->
<g id="edge48" class="edge"><title>Node2&#45;&gt;Node24</title>
<path fill="none" stroke="midnightblue" d="M1206.04,-414.444C1170.21,-405.142 1112.84,-390.246 1073.61,-380.062"/>
<polygon fill="midnightblue" stroke="midnightblue" points="1074.36,-376.642 1063.8,-377.516 1072.6,-383.417 1074.36,-376.642"/>
</g>
<!-- Node26 -->
<g id="node26" class="node"><title>Node26</title>
<polygon fill="white" stroke="#bfbfbf" points="1084.5,-297 1084.5,-316 1161.5,-316 1161.5,-297 1084.5,-297"/>
<text text-anchor="middle" x="1123" y="-304" font-family="Helvetica,sans-Serif" font-size="10.00">initializer_list</text>
</g>
<!-- Node2&#45;&gt;Node26 -->
<g id="edge61" class="edge"><title>Node2&#45;&gt;Node26</title>
<path fill="none" stroke="midnightblue" d="M1224.54,-414.469C1211.12,-406.152 1191.01,-392.645 1176,-378 1159.46,-361.858 1144,-340.243 1134.1,-325.22"/>
<polygon fill="midnightblue" stroke="midnightblue" points="1136.79,-322.938 1128.43,-316.423 1130.9,-326.727 1136.79,-322.938"/>
</g>
<!-- Node4 -->
<g id="node4" class="node"><title>Node4</title>
<polygon fill="white" stroke="#bfbfbf" points="594,-62 594,-81 680,-81 680,-62 594,-62"/>
<text text-anchor="middle" x="637" y="-69" font-family="Helvetica,sans-Serif" font-size="10.00">dmlc/logging.h</text>
</g>
<!-- Node3&#45;&gt;Node4 -->
<g id="edge3" class="edge"><title>Node3&#45;&gt;Node4</title>
<path fill="none" stroke="midnightblue" d="M776.646,-123.475C748.686,-113.269 701.674,-96.108 670.009,-84.5492"/>
<polygon fill="midnightblue" stroke="midnightblue" points="670.905,-81.1503 660.311,-81.0091 668.504,-87.7259 670.905,-81.1503"/>
</g>
<!-- Node5 -->
<g id="node5" class="node"><title>Node5</title>
<g id="a_node5"><a xlink:href="c__runtime__api_8h.html" target="_top" xlink:title="tvm/runtime/c_runtime\l_api.h">
<polygon fill="white" stroke="red" points="736.5,-56.5 736.5,-86.5 863.5,-86.5 863.5,-56.5 736.5,-56.5"/>
<text text-anchor="start" x="744.5" y="-74.5" font-family="Helvetica,sans-Serif" font-size="10.00">tvm/runtime/c_runtime</text>
<text text-anchor="middle" x="800" y="-63.5" font-family="Helvetica,sans-Serif" font-size="10.00">_api.h</text>
</a>
</g>
</g>
<!-- Node3&#45;&gt;Node5 -->
<g id="edge4" class="edge"><title>Node3&#45;&gt;Node5</title>
<path fill="none" stroke="midnightblue" d="M800,-123.475C800,-116.471 800,-106.192 800,-96.6956"/>
<polygon fill="midnightblue" stroke="midnightblue" points="803.5,-96.5229 800,-86.523 796.5,-96.523 803.5,-96.5229"/>
</g>
<!-- Node3&#45;&gt;Node8 -->
<g id="edge7" class="edge"><title>Node3&#45;&gt;Node8</title>
<path fill="none" stroke="midnightblue" d="M741.446,-124.63C736.561,-124.061 731.697,-123.51 727,-123 544.362,-103.158 326.271,-84.0691 234.333,-76.2324"/>
<polygon fill="midnightblue" stroke="midnightblue" points="234.535,-72.7371 224.274,-75.3771 233.942,-79.7119 234.535,-72.7371"/>
</g>
<!-- Node3&#45;&gt;Node9 -->
<g id="edge8" class="edge"><title>Node3&#45;&gt;Node9</title>
<path fill="none" stroke="midnightblue" d="M858.793,-123.798C861.565,-123.507 864.311,-123.239 867,-123 1313.12,-83.4157 1858.54,-74.5091 1995.59,-72.8412"/>
<polygon fill="midnightblue" stroke="midnightblue" points="1995.86,-76.3384 2005.82,-72.7211 1995.78,-69.3388 1995.86,-76.3384"/>
</g>
<!-- Node3&#45;&gt;Node10 -->
<g id="edge9" class="edge"><title>Node3&#45;&gt;Node10</title>
<path fill="none" stroke="midnightblue" d="M858.788,-123.739C861.561,-123.464 864.309,-123.215 867,-123 1066.68,-107.06 2557.64,-77.6791 2793.59,-73.1053"/>
<polygon fill="midnightblue" stroke="midnightblue" points="2793.94,-76.5993 2803.87,-72.9064 2793.8,-69.6006 2793.94,-76.5993"/>
</g>
<!-- Node11 -->
<g id="node11" class="node"><title>Node11</title>
<polygon fill="white" stroke="#bfbfbf" points="1217,-62 1217,-81 1267,-81 1267,-62 1217,-62"/>
<text text-anchor="middle" x="1242" y="-69" font-family="Helvetica,sans-Serif" font-size="10.00">atomic</text>
</g>
<!-- Node3&#45;&gt;Node11 -->
<g id="edge10" class="edge"><title>Node3&#45;&gt;Node11</title>
<path fill="none" stroke="midnightblue" d="M858.694,-124.099C951.995,-111.539 1131.31,-87.4005 1206.96,-77.2166"/>
<polygon fill="midnightblue" stroke="midnightblue" points="1207.49,-80.6778 1216.93,-75.8748 1206.55,-73.7403 1207.49,-80.6778"/>
</g>
<!-- Node6 -->
<g id="node6" class="node"><title>Node6</title>
<polygon fill="white" stroke="#bfbfbf" points="710,-0.5 710,-19.5 800,-19.5 800,-0.5 710,-0.5"/>
<text text-anchor="middle" x="755" y="-7.5" font-family="Helvetica,sans-Serif" font-size="10.00">dlpack/dlpack.h</text>
</g>
<!-- Node5&#45;&gt;Node6 -->
<g id="edge5" class="edge"><title>Node5&#45;&gt;Node6</title>
<path fill="none" stroke="midnightblue" d="M789.336,-56.3993C782.864,-47.8424 774.566,-36.8708 767.749,-27.857"/>
<polygon fill="midnightblue" stroke="midnightblue" points="770.372,-25.5223 761.548,-19.6578 764.789,-29.7449 770.372,-25.5223"/>
</g>
<!-- Node7 -->
<g id="node7" class="node"><title>Node7</title>
<polygon fill="white" stroke="#bfbfbf" points="818.5,-0.5 818.5,-19.5 871.5,-19.5 871.5,-0.5 818.5,-0.5"/>
<text text-anchor="middle" x="845" y="-7.5" font-family="Helvetica,sans-Serif" font-size="10.00">stdint.h</text>
</g>
<!-- Node5&#45;&gt;Node7 -->
<g id="edge6" class="edge"><title>Node5&#45;&gt;Node7</title>
<path fill="none" stroke="midnightblue" d="M810.664,-56.3993C817.136,-47.8424 825.434,-36.8708 832.251,-27.857"/>
<polygon fill="midnightblue" stroke="midnightblue" points="835.211,-29.7449 838.452,-19.6578 829.628,-25.5223 835.211,-29.7449"/>
</g>
<!-- Node12&#45;&gt;Node3 -->
<g id="edge12" class="edge"><title>Node12&#45;&gt;Node3</title>
<path fill="none" stroke="midnightblue" d="M786.642,-179.083C788.786,-171.849 791.879,-161.409 794.549,-152.397"/>
<polygon fill="midnightblue" stroke="midnightblue" points="797.922,-153.333 797.407,-142.751 791.21,-151.345 797.922,-153.333"/>
</g>
<!-- Node12&#45;&gt;Node8 -->
<g id="edge15" class="edge"><title>Node12&#45;&gt;Node8</title>
<path fill="none" stroke="midnightblue" d="M761.151,-179.475C723.084,-165.596 644.036,-138.146 575,-123 453.088,-96.2532 306.141,-81.7801 234.137,-75.8174"/>
<polygon fill="midnightblue" stroke="midnightblue" points="234.319,-72.3208 224.069,-74.999 233.752,-79.2978 234.319,-72.3208"/>
</g>
<!-- Node12&#45;&gt;Node10 -->
<g id="edge14" class="edge"><title>Node12&#45;&gt;Node10</title>
<path fill="none" stroke="midnightblue" d="M847.604,-184.401C1164.44,-166.471 2566.17,-87.147 2793.74,-74.2693"/>
<polygon fill="midnightblue" stroke="midnightblue" points="2794.17,-77.7501 2803.96,-73.6906 2793.78,-70.7613 2794.17,-77.7501"/>
</g>
<!-- Node13 -->
<g id="node13" class="node"><title>Node13</title>
<polygon fill="white" stroke="#bfbfbf" points="876.5,-123.5 876.5,-142.5 923.5,-142.5 923.5,-123.5 876.5,-123.5"/>
<text text-anchor="middle" x="900" y="-130.5" font-family="Helvetica,sans-Serif" font-size="10.00">cstdlib</text>
</g>
<!-- Node12&#45;&gt;Node13 -->
<g id="edge13" class="edge"><title>Node12&#45;&gt;Node13</title>
<path fill="none" stroke="midnightblue" d="M802.381,-179.444C821.216,-170.675 850.731,-156.935 872.379,-146.858"/>
<polygon fill="midnightblue" stroke="midnightblue" points="874.117,-149.91 881.705,-142.516 871.162,-143.564 874.117,-149.91"/>
</g>
<!-- Node14&#45;&gt;Node3 -->
<g id="edge39" class="edge"><title>Node14&#45;&gt;Node3</title>
<path fill="none" stroke="midnightblue" d="M1417.26,-301.057C1361.43,-295.273 1274.55,-282.447 1204,-255 1144.46,-231.839 1141.84,-201.366 1082,-179 1062.39,-171.67 945.882,-154.421 868.887,-143.534"/>
<polygon fill="midnightblue" stroke="midnightblue" points="869.159,-140.038 858.768,-142.108 868.181,-146.97 869.159,-140.038"/>
</g>
<!-- Node14&#45;&gt;Node4 -->
<g id="edge17" class="edge"><title>Node14&#45;&gt;Node4</title>
<path fill="none" stroke="midnightblue" d="M1417.14,-291.717C1381.18,-282.489 1333.92,-269.422 1293,-255 1212.26,-226.544 1196.41,-208.397 1116,-179 1035.72,-149.648 1015.18,-142.695 932,-123 908.924,-117.536 768.748,-94.185 690.214,-81.2359"/>
<polygon fill="midnightblue" stroke="midnightblue" points="690.461,-77.7294 680.025,-79.5572 689.323,-84.6363 690.461,-77.7294"/>
</g>
<!-- Node14&#45;&gt;Node5 -->
<g id="edge18" class="edge"><title>Node14&#45;&gt;Node5</title>
<path fill="none" stroke="midnightblue" d="M1417.18,-292.272C1377.73,-282.241 1329.42,-268.008 1313,-255 1282.23,-230.621 1296.82,-205.654 1268,-179 1226.56,-140.67 1207.94,-139.636 1154,-123 1060,-94.0091 946.738,-81.5594 874.076,-76.281"/>
<polygon fill="midnightblue" stroke="midnightblue" points="873.876,-72.7587 863.657,-75.5532 873.388,-79.7416 873.876,-72.7587"/>
</g>
<!-- Node14&#45;&gt;Node8 -->
<g id="edge47" class="edge"><title>Node14&#45;&gt;Node8</title>
<path fill="none" stroke="midnightblue" d="M1417.21,-299.531C1290.07,-285.741 973.107,-248.984 711,-199 530.044,-164.491 317.489,-107.733 230.348,-83.7526"/>
<polygon fill="midnightblue" stroke="midnightblue" points="231.167,-80.348 220.596,-81.0618 229.305,-87.0958 231.167,-80.348"/>
</g>
<!-- Node14&#45;&gt;Node9 -->
<g id="edge43" class="edge"><title>Node14&#45;&gt;Node9</title>
<path fill="none" stroke="midnightblue" d="M1529.64,-291.472C1560.97,-282.705 1600.43,-270.196 1634,-255 1685.59,-231.644 1800.1,-145.675 1852,-123 1900.38,-101.859 1960.08,-86.8919 1996.03,-78.9874"/>
<polygon fill="midnightblue" stroke="midnightblue" points="1996.91,-82.3782 2005.95,-76.8538 1995.44,-75.5347 1996.91,-82.3782"/>
</g>
<!-- Node14&#45;&gt;Node10 -->
<g id="edge46" class="edge"><title>Node14&#45;&gt;Node10</title>
<path fill="none" stroke="midnightblue" d="M1530.8,-291.895C1532.21,-291.59 1533.62,-291.291 1535,-291 1622.1,-272.702 1648.58,-286.041 1732,-255 1748.43,-248.886 1749.61,-241.218 1766,-235 2007.16,-143.525 2083.4,-177.566 2339,-143 2510.88,-119.756 2716.49,-88.9348 2793.68,-77.257"/>
<polygon fill="midnightblue" stroke="midnightblue" points="2794.34,-80.697 2803.7,-75.739 2793.29,-73.7759 2794.34,-80.697"/>
</g>
<!-- Node15 -->
<g id="node15" class="node"><title>Node15</title>
<g id="a_node15"><a xlink:href="runtime_2module_8h.html" target="_top" xlink:title="Runtime container of the functions generated by TVM, This is used to support dynamically link...">
<polygon fill="white" stroke="red" points="1322,-235.5 1322,-254.5 1446,-254.5 1446,-235.5 1322,-235.5"/>
<text text-anchor="middle" x="1384" y="-242.5" font-family="Helvetica,sans-Serif" font-size="10.00">tvm/runtime/module.h</text>
</a>
</g>
</g>
<!-- Node14&#45;&gt;Node15 -->
<g id="edge19" class="edge"><title>Node14&#45;&gt;Node15</title>
<path fill="none" stroke="midnightblue" d="M1446.83,-291.399C1431.62,-282.129 1413.29,-270.025 1400.25,-260.647"/>
<polygon fill="midnightblue" stroke="midnightblue" points="1402.28,-257.801 1392.17,-254.658 1398.12,-263.424 1402.28,-257.801"/>
</g>
<!-- Node16 -->
<g id="node16" class="node"><title>Node16</title>
<polygon fill="white" stroke="#bfbfbf" points="1434.5,-179.5 1434.5,-198.5 1491.5,-198.5 1491.5,-179.5 1434.5,-179.5"/>
<text text-anchor="middle" x="1463" y="-186.5" font-family="Helvetica,sans-Serif" font-size="10.00">memory</text>
</g>
<!-- Node14&#45;&gt;Node16 -->
<g id="edge45" class="edge"><title>Node14&#45;&gt;Node16</title>
<path fill="none" stroke="midnightblue" d="M1472.65,-291.337C1470.68,-270.622 1467,-232.016 1464.8,-208.899"/>
<polygon fill="midnightblue" stroke="midnightblue" points="1468.26,-208.293 1463.83,-198.669 1461.29,-208.956 1468.26,-208.293"/>
</g>
<!-- Node14&#45;&gt;Node17 -->
<g id="edge42" class="edge"><title>Node14&#45;&gt;Node17</title>
<path fill="none" stroke="midnightblue" d="M1530.55,-299.521C1590,-292.358 1685.85,-278.31 1766,-255 1788.19,-248.546 1791.73,-241.184 1814,-235 1909.87,-208.378 2027.38,-196.663 2084.13,-192.263"/>
<polygon fill="midnightblue" stroke="midnightblue" points="2084.61,-195.737 2094.32,-191.502 2084.09,-188.757 2084.61,-195.737"/>
</g>
<!-- Node19 -->
<g id="node19" class="node"><title>Node19</title>
<g id="a_node19"><a xlink:href="ndarray_8h.html" target="_top" xlink:title="A device&#45;independent managed NDArray abstraction. ">
<polygon fill="white" stroke="red" points="1502.5,-235.5 1502.5,-254.5 1625.5,-254.5 1625.5,-235.5 1502.5,-235.5"/>
<text text-anchor="middle" x="1564" y="-242.5" font-family="Helvetica,sans-Serif" font-size="10.00">tvm/runtime/ndarray.h</text>
</a>
</g>
</g>
<!-- Node14&#45;&gt;Node19 -->
<g id="edge28" class="edge"><title>Node14&#45;&gt;Node19</title>
<path fill="none" stroke="midnightblue" d="M1495.33,-291.399C1509.49,-282.04 1528.01,-269.792 1542.25,-260.377"/>
<polygon fill="midnightblue" stroke="midnightblue" points="1544.49,-263.092 1550.9,-254.658 1540.63,-257.253 1544.49,-263.092"/>
</g>
<!-- Node20 -->
<g id="node20" class="node"><title>Node20</title>
<g id="a_node20"><a xlink:href="data__type_8h.html" target="_top" xlink:title="tvm/runtime/data_type.h">
<polygon fill="white" stroke="black" points="370,-235.5 370,-254.5 506,-254.5 506,-235.5 370,-235.5"/>
<text text-anchor="middle" x="438" y="-242.5" font-family="Helvetica,sans-Serif" font-size="10.00">tvm/runtime/data_type.h</text>
</a>
</g>
</g>
<!-- Node14&#45;&gt;Node20 -->
<g id="edge34" class="edge"><title>Node14&#45;&gt;Node20</title>
<path fill="none" stroke="midnightblue" d="M1417.19,-302.238C1243.1,-292.239 716.703,-262.007 516.464,-250.506"/>
<polygon fill="midnightblue" stroke="midnightblue" points="516.503,-247.003 506.319,-249.924 516.102,-253.991 516.503,-247.003"/>
</g>
<!-- Node21 -->
<g id="node21" class="node"><title>Node21</title>
<polygon fill="white" stroke="#bfbfbf" points="2334.5,-235.5 2334.5,-254.5 2397.5,-254.5 2397.5,-235.5 2334.5,-235.5"/>
<text text-anchor="middle" x="2366" y="-242.5" font-family="Helvetica,sans-Serif" font-size="10.00">functional</text>
</g>
<!-- Node14&#45;&gt;Node21 -->
<g id="edge40" class="edge"><title>Node14&#45;&gt;Node21</title>
<path fill="none" stroke="midnightblue" d="M1530.75,-302.98C1663.3,-296.876 2003.49,-279.938 2287,-255 2299.02,-253.943 2312.04,-252.559 2323.97,-251.194"/>
<polygon fill="midnightblue" stroke="midnightblue" points="2324.61,-254.644 2334.13,-250.008 2323.8,-247.691 2324.61,-254.644"/>
</g>
<!-- Node22 -->
<g id="node22" class="node"><title>Node22</title>
<polygon fill="white" stroke="#bfbfbf" points="1682.5,-235.5 1682.5,-254.5 1723.5,-254.5 1723.5,-235.5 1682.5,-235.5"/>
<text text-anchor="middle" x="1703" y="-242.5" font-family="Helvetica,sans-Serif" font-size="10.00">tuple</text>
</g>
<!-- Node14&#45;&gt;Node22 -->
<g id="edge41" class="edge"><title>Node14&#45;&gt;Node22</title>
<path fill="none" stroke="midnightblue" d="M1527.98,-291.475C1572.99,-279.78 1635.51,-263.535 1672.37,-253.959"/>
<polygon fill="midnightblue" stroke="midnightblue" points="1673.69,-257.232 1682.49,-251.33 1671.93,-250.457 1673.69,-257.232"/>
</g>
<!-- Node23 -->
<g id="node23" class="node"><title>Node23</title>
<polygon fill="white" stroke="#bfbfbf" points="2236,-235.5 2236,-254.5 2278,-254.5 2278,-235.5 2236,-235.5"/>
<text text-anchor="middle" x="2257" y="-242.5" font-family="Helvetica,sans-Serif" font-size="10.00">limits</text>
</g>
<!-- Node14&#45;&gt;Node23 -->
<g id="edge44" class="edge"><title>Node14&#45;&gt;Node23</title>
<path fill="none" stroke="midnightblue" d="M1530.63,-301.197C1684.6,-289.496 2107.29,-257.376 2225.77,-248.374"/>
<polygon fill="midnightblue" stroke="midnightblue" points="2226.25,-251.847 2235.95,-247.599 2225.72,-244.867 2226.25,-251.847"/>
</g>
<!-- Node15&#45;&gt;Node3 -->
<g id="edge21" class="edge"><title>Node15&#45;&gt;Node3</title>
<path fill="none" stroke="midnightblue" d="M1358.44,-235.407C1316.31,-221.556 1229.44,-194.3 1154,-179 1031.21,-154.096 996.246,-159.268 868.962,-143.229"/>
<polygon fill="midnightblue" stroke="midnightblue" points="869.186,-139.729 858.822,-141.931 868.297,-146.672 869.186,-139.729"/>
</g>
<!-- Node15&#45;&gt;Node5 -->
<g id="edge20" class="edge"><title>Node15&#45;&gt;Node5</title>
<path fill="none" stroke="midnightblue" d="M1381.37,-235.365C1373.89,-212.445 1350.14,-149.991 1306,-123 1235.31,-79.7699 996.206,-72.7857 873.695,-72.1352"/>
<polygon fill="midnightblue" stroke="midnightblue" points="873.659,-68.6352 863.645,-72.0947 873.631,-75.6351 873.659,-68.6352"/>
</g>
<!-- Node15&#45;&gt;Node9 -->
<g id="edge25" class="edge"><title>Node15&#45;&gt;Node9</title>
<path fill="none" stroke="midnightblue" d="M1386.9,-235.181C1392.09,-220.879 1404.4,-192.835 1425,-179 1501.43,-127.673 1538.34,-159.01 1629,-143 1765.44,-118.907 1928.12,-90.1549 1995.9,-78.1749"/>
<polygon fill="midnightblue" stroke="midnightblue" points="1996.7,-81.5867 2005.94,-76.3994 1995.48,-74.6936 1996.7,-81.5867"/>
</g>
<!-- Node15&#45;&gt;Node12 -->
<g id="edge22" class="edge"><title>Node15&#45;&gt;Node12</title>
<path fill="none" stroke="midnightblue" d="M1321.77,-238.399C1210.35,-228.372 977.315,-207.398 857.941,-196.655"/>
<polygon fill="midnightblue" stroke="midnightblue" points="858.072,-193.152 847.799,-195.742 857.445,-200.124 858.072,-193.152"/>
</g>
<!-- Node15&#45;&gt;Node14 -->
<g id="edge27" class="edge"><title>Node15&#45;&gt;Node14</title>
<path fill="none" stroke="midnightblue" d="M1402.03,-254.658C1415.93,-262.708 1435.03,-275.001 1450.14,-285.483"/>
<polygon fill="midnightblue" stroke="midnightblue" points="1448.32,-288.486 1458.51,-291.399 1452.37,-282.769 1448.32,-288.486"/>
</g>
<!-- Node15&#45;&gt;Node16 -->
<g id="edge23" class="edge"><title>Node15&#45;&gt;Node16</title>
<path fill="none" stroke="midnightblue" d="M1396.69,-235.324C1408.9,-226.979 1427.58,-214.212 1442,-204.352"/>
<polygon fill="midnightblue" stroke="midnightblue" points="1444.06,-207.187 1450.34,-198.655 1440.11,-201.408 1444.06,-207.187"/>
</g>
<!-- Node15&#45;&gt;Node17 -->
<g id="edge24" class="edge"><title>Node15&#45;&gt;Node17</title>
<path fill="none" stroke="midnightblue" d="M1446.24,-238.747C1461.53,-237.488 1477.85,-236.17 1493,-235 1718.85,-217.546 1990.79,-198.714 2084.42,-192.293"/>
<polygon fill="midnightblue" stroke="midnightblue" points="2084.7,-195.782 2094.44,-191.607 2084.22,-188.799 2084.7,-195.782"/>
</g>
<!-- Node15&#45;&gt;Node18 -->
<g id="edge26" class="edge"><title>Node15&#45;&gt;Node18</title>
<path fill="none" stroke="midnightblue" d="M1327.43,-235.444C1260.67,-225.345 1150.32,-208.653 1083.56,-198.555"/>
<polygon fill="midnightblue" stroke="midnightblue" points="1084.04,-195.089 1073.63,-197.054 1083,-202.01 1084.04,-195.089"/>
</g>
<!-- Node19&#45;&gt;Node3 -->
<g id="edge30" class="edge"><title>Node19&#45;&gt;Node3</title>
<path fill="none" stroke="midnightblue" d="M1558.59,-235.276C1548.93,-220.576 1527.12,-191.276 1500,-179 1374.52,-122.214 1023.51,-154.842 869.122,-143.043"/>
<polygon fill="midnightblue" stroke="midnightblue" points="869.059,-139.525 858.797,-142.158 868.461,-146.499 869.059,-139.525"/>
</g>
<!-- Node19&#45;&gt;Node5 -->
<g id="edge29" class="edge"><title>Node19&#45;&gt;Node5</title>
<path fill="none" stroke="midnightblue" d="M1561.75,-235.427C1557.64,-221.479 1547.58,-193.932 1529,-179 1458.05,-121.984 1421.46,-139.815 1332,-123 1170.08,-92.5638 976.799,-80.0532 873.587,-75.2447"/>
<polygon fill="midnightblue" stroke="midnightblue" points="873.729,-71.7477 863.58,-74.7896 873.411,-78.7404 873.729,-71.7477"/>
</g>
<!-- Node19&#45;&gt;Node10 -->
<g id="edge33" class="edge"><title>Node19&#45;&gt;Node10</title>
<path fill="none" stroke="midnightblue" d="M1614.66,-235.477C1692.32,-222.533 1845.51,-197.473 1976,-179 2294.85,-133.861 2682.49,-88.8012 2793.78,-76.0545"/>
<polygon fill="midnightblue" stroke="midnightblue" points="2794.43,-79.5033 2803.96,-74.8898 2793.63,-72.5486 2794.43,-79.5033"/>
</g>
<!-- Node19&#45;&gt;Node11 -->
<g id="edge31" class="edge"><title>Node19&#45;&gt;Node11</title>
<path fill="none" stroke="midnightblue" d="M1566.61,-235.498C1572.95,-212.911 1586.33,-151.207 1553,-123 1511.81,-88.1411 1349.39,-77.0179 1277.06,-73.7495"/>
<polygon fill="midnightblue" stroke="midnightblue" points="1277.21,-70.2528 1267.07,-73.3224 1276.91,-77.2464 1277.21,-70.2528"/>
</g>
<!-- Node19&#45;&gt;Node17 -->
<g id="edge32" class="edge"><title>Node19&#45;&gt;Node17</title>
<path fill="none" stroke="midnightblue" d="M1625.67,-237.989C1742.74,-226.578 1993.55,-202.13 2084.33,-193.282"/>
<polygon fill="midnightblue" stroke="midnightblue" points="2084.73,-196.76 2094.34,-192.306 2084.05,-189.793 2084.73,-196.76"/>
</g>
<!-- Node20&#45;&gt;Node4 -->
<g id="edge36" class="edge"><title>Node20&#45;&gt;Node4</title>
<path fill="none" stroke="midnightblue" d="M436.384,-235.173C434.44,-221.832 432.709,-196.26 444,-179 478.06,-126.935 546.694,-98.0478 592.254,-83.8973"/>
<polygon fill="midnightblue" stroke="midnightblue" points="593.309,-87.235 601.888,-81.0171 591.304,-80.5283 593.309,-87.235"/>
</g>
<!-- Node20&#45;&gt;Node5 -->
<g id="edge35" class="edge"><title>Node20&#45;&gt;Node5</title>
<path fill="none" stroke="midnightblue" d="M441.745,-235.066C448.037,-221.108 462.031,-194.163 482,-179 554.702,-123.795 657.633,-96.263 726.495,-83.2144"/>
<polygon fill="midnightblue" stroke="midnightblue" points="727.198,-86.6438 736.4,-81.3927 725.932,-79.7593 727.198,-86.6438"/>
</g>
<!-- Node20&#45;&gt;Node8 -->
<g id="edge37" class="edge"><title>Node20&#45;&gt;Node8</title>
<path fill="none" stroke="midnightblue" d="M425.702,-235.495C385.953,-208.008 260.639,-121.349 210.769,-86.8623"/>
<polygon fill="midnightblue" stroke="midnightblue" points="212.588,-83.8652 202.373,-81.056 208.607,-89.6226 212.588,-83.8652"/>
</g>
<!-- Node20&#45;&gt;Node9 -->
<g id="edge38" class="edge"><title>Node20&#45;&gt;Node9</title>
<path fill="none" stroke="midnightblue" d="M446.263,-235.472C460.19,-221.587 489.787,-194.129 520,-179 607.139,-135.364 635.62,-137.428 732,-123 986.658,-84.877 1820.72,-74.5649 1995.64,-72.7996"/>
<polygon fill="midnightblue" stroke="midnightblue" points="1995.79,-76.2984 2005.75,-72.6998 1995.72,-69.2988 1995.79,-76.2984"/>
</g>
<!-- Node24&#45;&gt;Node3 -->
<g id="edge51" class="edge"><title>Node24&#45;&gt;Node3</title>
<path fill="none" stroke="midnightblue" d="M1029.51,-358.191C1026.43,-342.538 1017.87,-309.761 998,-291 964.258,-259.148 935.519,-284.858 900,-255 870.123,-229.885 881.422,-208.616 856,-179 846.129,-167.5 833.011,-156.778 821.953,-148.687"/>
<polygon fill="midnightblue" stroke="midnightblue" points="823.813,-145.716 813.628,-142.798 819.77,-151.43 823.813,-145.716"/>
</g>
<!-- Node24&#45;&gt;Node4 -->
<g id="edge49" class="edge"><title>Node24&#45;&gt;Node4</title>
<path fill="none" stroke="midnightblue" d="M993.379,-358.485C963.829,-351.019 922.115,-338.736 888,-322 801.996,-279.807 776.045,-269.328 711,-199 679.873,-165.345 655.905,-116.402 644.438,-90.3612"/>
<polygon fill="midnightblue" stroke="midnightblue" points="647.582,-88.8129 640.424,-81.002 641.149,-91.572 647.582,-88.8129"/>
</g>
<!-- Node24&#45;&gt;Node8 -->
<g id="edge56" class="edge"><title>Node24&#45;&gt;Node8</title>
<path fill="none" stroke="midnightblue" d="M977.164,-358.471C820.447,-333.583 374.701,-262.339 361,-255 285.11,-214.348 224.195,-127.186 200.585,-89.9487"/>
<polygon fill="midnightblue" stroke="midnightblue" points="203.417,-87.8754 195.165,-81.2308 197.472,-91.5713 203.417,-87.8754"/>
</g>
<!-- Node24&#45;&gt;Node9 -->
<g id="edge55" class="edge"><title>Node24&#45;&gt;Node9</title>
<path fill="none" stroke="midnightblue" d="M1031.22,-358.332C1031.34,-343.973 1030.52,-314.504 1023,-291 1006.28,-238.729 938.041,-222.882 971,-179 1034.23,-94.8111 1825.68,-76.0769 1995.89,-73.0124"/>
<polygon fill="midnightblue" stroke="midnightblue" points="1996.03,-76.5105 2005.97,-72.8363 1995.91,-69.5116 1996.03,-76.5105"/>
</g>
<!-- Node24&#45;&gt;Node10 -->
<g id="edge57" class="edge"><title>Node24&#45;&gt;Node10</title>
<path fill="none" stroke="midnightblue" d="M1097.22,-364.679C1194.63,-360.466 1381.99,-349.316 1539,-322 1786.14,-279.004 1838.25,-224.15 2085,-179 2234.04,-151.729 2273.97,-164.13 2424,-143 2562.53,-123.49 2726.53,-92.0102 2793.83,-78.7287"/>
<polygon fill="midnightblue" stroke="midnightblue" points="2794.65,-82.134 2803.78,-76.7579 2793.29,-75.2673 2794.65,-82.134"/>
</g>
<!-- Node24&#45;&gt;Node12 -->
<g id="edge50" class="edge"><title>Node24&#45;&gt;Node12</title>
<path fill="none" stroke="midnightblue" d="M1006.49,-358.417C985.552,-350.526 955.089,-337.689 931,-322 877.343,-287.054 823.769,-232.879 798.693,-206.104"/>
<polygon fill="midnightblue" stroke="midnightblue" points="801.22,-203.683 791.857,-198.726 796.086,-208.44 801.22,-203.683"/>
</g>
<!-- Node24&#45;&gt;Node14 -->
<g id="edge52" class="edge"><title>Node24&#45;&gt;Node14</title>
<path fill="none" stroke="midnightblue" d="M1094.47,-358.475C1177.58,-347.313 1322.62,-327.832 1407.3,-316.459"/>
<polygon fill="midnightblue" stroke="midnightblue" points="1407.87,-319.913 1417.32,-315.113 1406.94,-312.975 1407.87,-319.913"/>
</g>
<!-- Node24&#45;&gt;Node17 -->
<g id="edge58" class="edge"><title>Node24&#45;&gt;Node17</title>
<path fill="none" stroke="midnightblue" d="M1097.11,-364.014C1194.38,-358.973 1381.57,-346.801 1539,-322 1594.06,-313.326 1969.25,-225.117 2084.44,-197.932"/>
<polygon fill="midnightblue" stroke="midnightblue" points="2085.52,-201.273 2094.45,-195.569 2083.91,-194.46 2085.52,-201.273"/>
</g>
<!-- Node25 -->
<g id="node25" class="node"><title>Node25</title>
<polygon fill="white" stroke="#bfbfbf" points="940.5,-297 940.5,-316 989.5,-316 989.5,-297 940.5,-297"/>
<text text-anchor="middle" x="965" y="-304" font-family="Helvetica,sans-Serif" font-size="10.00">cstring</text>
</g>
<!-- Node24&#45;&gt;Node25 -->
<g id="edge53" class="edge"><title>Node24&#45;&gt;Node25</title>
<path fill="none" stroke="midnightblue" d="M1021.54,-358.475C1011.25,-349.197 994.584,-334.171 982.006,-322.831"/>
<polygon fill="midnightblue" stroke="midnightblue" points="984.21,-320.105 974.439,-316.009 979.522,-325.305 984.21,-320.105"/>
</g>
<!-- Node24&#45;&gt;Node26 -->
<g id="edge54" class="edge"><title>Node24&#45;&gt;Node26</title>
<path fill="none" stroke="midnightblue" d="M1044.18,-358.475C1059.07,-348.843 1083.54,-333.017 1101.27,-321.552"/>
<polygon fill="midnightblue" stroke="midnightblue" points="1103.35,-324.379 1109.84,-316.009 1099.55,-318.501 1103.35,-324.379"/>
</g>
<!-- Node27&#45;&gt;Node9 -->
<g id="edge154" class="edge"><title>Node27&#45;&gt;Node9</title>
<path fill="none" stroke="midnightblue" d="M1992,-1042.04C1995.04,-1041.65 1998.06,-1041.3 2001,-1041 2376.75,-1002.97 2477.37,-1066.51 2850,-1005 2951.44,-988.255 3072,-1042.81 3072,-940 3072,-940 3072,-940 3072,-305.5 3072,-197.302 2959.22,-230.374 2864,-179 2812.91,-151.437 2802.15,-137.736 2746,-123 2613.71,-88.2818 2182.71,-76.0141 2060.54,-73.1871"/>
<polygon fill="midnightblue" stroke="midnightblue" points="2060.42,-69.6835 2050.34,-72.9566 2060.26,-76.6817 2060.42,-69.6835"/>
</g>
<!-- Node27&#45;&gt;Node21 -->
<g id="edge155" class="edge"><title>Node27&#45;&gt;Node21</title>
<path fill="none" stroke="midnightblue" d="M1992,-1042.06C1995.04,-1041.67 1998.06,-1041.31 2001,-1041 2327.17,-1006.93 2413.35,-1051.36 2738,-1005 2843.86,-989.882 2905.77,-1032.96 2972,-949 2996.47,-917.984 3095.47,-1016.9 2865,-705 2786.88,-599.275 2465.21,-328.621 2384.46,-261.325"/>
<polygon fill="midnightblue" stroke="midnightblue" points="2386.54,-258.503 2376.61,-254.797 2382.06,-263.884 2386.54,-258.503"/>
</g>
<!-- Node28 -->
<g id="node28" class="node"><title>Node28</title>
<g id="a_node28"><a xlink:href="ir_2attrs_8h.html" target="_top" xlink:title="Helpers for attribute objects. ">
<polygon fill="white" stroke="black" points="2315.5,-761.5 2315.5,-780.5 2394.5,-780.5 2394.5,-761.5 2315.5,-761.5"/>
<text text-anchor="middle" x="2355" y="-768.5" font-family="Helvetica,sans-Serif" font-size="10.00">tvm/ir/attrs.h</text>
</a>
</g>
</g>
<!-- Node27&#45;&gt;Node28 -->
<g id="edge66" class="edge"><title>Node27&#45;&gt;Node28</title>
<path fill="none" stroke="midnightblue" d="M1992.28,-1041.65C2119.2,-1019.14 2458.38,-958.24 2466,-949 2511.77,-893.501 2419.99,-817.756 2376.33,-786.448"/>
<polygon fill="midnightblue" stroke="midnightblue" points="2378.24,-783.516 2368.05,-780.632 2374.22,-789.244 2378.24,-783.516"/>
</g>
<!-- Node30 -->
<g id="node30" class="node"><title>Node30</title>
<g id="a_node30"><a xlink:href="ir_2expr_8h.html" target="_top" xlink:title="Base expr nodes in TVM. ">
<polygon fill="white" stroke="black" points="1372.5,-705.5 1372.5,-724.5 1449.5,-724.5 1449.5,-705.5 1372.5,-705.5"/>
<text text-anchor="middle" x="1411" y="-712.5" font-family="Helvetica,sans-Serif" font-size="10.00">tvm/ir/expr.h</text>
</a>
</g>
</g>
<!-- Node27&#45;&gt;Node30 -->
<g id="edge114" class="edge"><title>Node27&#45;&gt;Node30</title>
<path fill="none" stroke="midnightblue" d="M1897.97,-1046.61C1753.51,-1035.59 1326,-998.054 1326,-940 1326,-940 1326,-940 1326,-826 1326,-784.765 1363.86,-749.574 1389.05,-730.726"/>
<polygon fill="midnightblue" stroke="midnightblue" points="1391.27,-733.439 1397.34,-724.758 1387.18,-727.756 1391.27,-733.439"/>
</g>
<!-- Node37 -->
<g id="node37" class="node"><title>Node37</title>
<g id="a_node37"><a xlink:href="ir_2op_8h.html" target="_top" xlink:title="Primitive operators(builtin intrinsics) and registry for them. ">
<polygon fill="white" stroke="black" points="2661,-985.5 2661,-1004.5 2729,-1004.5 2729,-985.5 2661,-985.5"/>
<text text-anchor="middle" x="2695" y="-992.5" font-family="Helvetica,sans-Serif" font-size="10.00">tvm/ir/op.h</text>
</a>
</g>
</g>
<!-- Node27&#45;&gt;Node37 -->
<g id="edge115" class="edge"><title>Node27&#45;&gt;Node37</title>
<path fill="none" stroke="midnightblue" d="M1992.01,-1042.09C1995.05,-1041.69 1998.06,-1041.32 2001,-1041 2272.29,-1011.31 2342.06,-1028.08 2614,-1005 2625.89,-1003.99 2638.73,-1002.67 2650.61,-1001.35"/>
<polygon fill="midnightblue" stroke="midnightblue" points="2651.21,-1004.81 2660.75,-1000.2 2650.42,-997.853 2651.21,-1004.81"/>
</g>
<!-- Node27&#45;&gt;Node41 -->
<g id="edge153" class="edge"><title>Node27&#45;&gt;Node41</title>
<path fill="none" stroke="midnightblue" d="M1897.65,-1042.3C1859.38,-1035.19 1804.58,-1022.99 1759,-1005 1683.98,-975.382 1603.1,-923.552 1565.89,-898.446"/>
<polygon fill="midnightblue" stroke="midnightblue" points="1567.64,-895.402 1557.41,-892.668 1563.7,-901.189 1567.64,-895.402"/>
</g>
<!-- Node46 -->
<g id="node46" class="node"><title>Node46</title>
<g id="a_node46"><a xlink:href="base_8h.html" target="_top" xlink:title="Base classes for the Relay IR. ">
<polygon fill="white" stroke="black" points="1953.5,-817.5 1953.5,-836.5 2008.5,-836.5 2008.5,-817.5 1953.5,-817.5"/>
<text text-anchor="middle" x="1981" y="-824.5" font-family="Helvetica,sans-Serif" font-size="10.00">./base.h</text>
</a>
</g>
</g>
<!-- Node27&#45;&gt;Node46 -->
<g id="edge156" class="edge"><title>Node27&#45;&gt;Node46</title>
<path fill="none" stroke="midnightblue" d="M1946.41,-1041.3C1951.71,-1008.63 1970.48,-892.866 1977.93,-846.957"/>
<polygon fill="midnightblue" stroke="midnightblue" points="1981.41,-847.315 1979.56,-836.884 1974.5,-846.195 1981.41,-847.315"/>
</g>
<!-- Node48 -->
<g id="node48" class="node"><title>Node48</title>
<g id="a_node48"><a xlink:href="relay_2type_8h.html" target="_top" xlink:title="Relay typed AST nodes. ">
<polygon fill="white" stroke="black" points="2090.5,-985.5 2090.5,-1004.5 2143.5,-1004.5 2143.5,-985.5 2090.5,-985.5"/>
<text text-anchor="middle" x="2117" y="-992.5" font-family="Helvetica,sans-Serif" font-size="10.00">./type.h</text>
</a>
</g>
</g>
<!-- Node27&#45;&gt;Node48 -->
<g id="edge172" class="edge"><title>Node27&#45;&gt;Node48</title>
<path fill="none" stroke="midnightblue" d="M1972.25,-1041.44C2001.61,-1032.23 2048.47,-1017.52 2080.88,-1007.34"/>
<polygon fill="midnightblue" stroke="midnightblue" points="2081.95,-1010.67 2090.44,-1004.34 2079.85,-1004 2081.95,-1010.67"/>
</g>
<!-- Node28&#45;&gt;Node8 -->
<g id="edge111" class="edge"><title>Node28&#45;&gt;Node8</title>
<path fill="none" stroke="midnightblue" d="M2315.49,-762.333C2209.52,-741.94 1909.94,-685.433 1659,-649 1127.99,-571.905 969.457,-632.635 471,-434 418.931,-413.25 401.396,-413.476 358,-378 280.016,-314.249 269.484,-286.161 219,-199 205.514,-175.717 202.325,-169.152 196,-143 191.853,-125.854 190.471,-105.759 190.056,-91.4194"/>
<polygon fill="midnightblue" stroke="midnightblue" points="193.554,-91.2632 189.897,-81.3196 186.555,-91.3736 193.554,-91.2632"/>
</g>
<!-- Node28&#45;&gt;Node9 -->
<g id="edge112" class="edge"><title>Node28&#45;&gt;Node9</title>
<path fill="none" stroke="midnightblue" d="M2394.59,-767.494C2428.73,-763.415 2477.51,-752.76 2510,-725 2574.77,-669.655 2654.44,-461.149 2673,-378 2683.15,-332.518 2676.6,-294.295 2648,-235 2613.98,-164.471 2586.01,-148.58 2512,-123 2427.91,-93.9332 2154.54,-78.5107 2060.29,-73.9573"/>
<polygon fill="midnightblue" stroke="midnightblue" points="2060.37,-70.4571 2050.21,-73.4791 2060.04,-77.4492 2060.37,-70.4571"/>
</g>
<!-- Node28&#45;&gt;Node10 -->
<g id="edge113" class="edge"><title>Node28&#45;&gt;Node10</title>
<path fill="none" stroke="midnightblue" d="M2394.61,-766.197C2432.46,-761.19 2490.1,-749.895 2534,-725 2791.29,-579.102 2996,-541.776 2996,-246 2996,-246 2996,-246 2996,-188 2996,-157.205 2994.02,-144.526 2972,-123 2940.4,-92.108 2889.07,-80.0737 2856.18,-75.4121"/>
<polygon fill="midnightblue" stroke="midnightblue" points="2856.57,-71.9326 2846.2,-74.1431 2855.68,-78.8767 2856.57,-71.9326"/>
</g>
<!-- Node28&#45;&gt;Node14 -->
<g id="edge107" class="edge"><title>Node28&#45;&gt;Node14</title>
<path fill="none" stroke="midnightblue" d="M2349.51,-761.259C2316.85,-710.132 2141.83,-448.969 1920,-358 1852.95,-330.504 1647.89,-316.304 1540.76,-310.595"/>
<polygon fill="midnightblue" stroke="midnightblue" points="1540.88,-307.096 1530.71,-310.069 1540.51,-314.087 1540.88,-307.096"/>
</g>
<!-- Node28&#45;&gt;Node17 -->
<g id="edge109" class="edge"><title>Node28&#45;&gt;Node17</title>
<path fill="none" stroke="midnightblue" d="M2358.09,-761.473C2380.27,-699.505 2512.53,-318.371 2440,-235 2402.92,-192.381 2226.98,-188.897 2151.99,-189.406"/>
<polygon fill="midnightblue" stroke="midnightblue" points="2151.65,-185.909 2141.69,-189.505 2151.72,-192.908 2151.65,-185.909"/>
</g>
<!-- Node28&#45;&gt;Node18 -->
<g id="edge108" class="edge"><title>Node28&#45;&gt;Node18</title>
<path fill="none" stroke="midnightblue" d="M2342.94,-761.428C2288.04,-722.719 2055.22,-562.127 1844,-470 1767.86,-436.791 1203.44,-289.761 1128,-255 1097.62,-241 1065.65,-219.02 1046.02,-204.56"/>
<polygon fill="midnightblue" stroke="midnightblue" points="1048.02,-201.686 1037.91,-198.501 1043.83,-207.292 1048.02,-201.686"/>
</g>
<!-- Node28&#45;&gt;Node21 -->
<g id="edge110" class="edge"><title>Node28&#45;&gt;Node21</title>
<path fill="none" stroke="midnightblue" d="M2394.6,-769.131C2427.16,-766.065 2471.47,-755.974 2494,-725 2499.23,-717.812 2495.68,-713.73 2494,-705 2469.56,-577.667 2430.84,-555.655 2386,-434 2367.82,-384.679 2356.56,-373.863 2348,-322 2345.76,-308.406 2345.39,-304.529 2348,-291 2349.79,-281.705 2353.48,-271.889 2357.06,-263.805"/>
<polygon fill="midnightblue" stroke="midnightblue" points="2360.27,-265.198 2361.38,-254.661 2353.94,-262.209 2360.27,-265.198"/>
</g>
<!-- Node29 -->
<g id="node29" class="node"><title>Node29</title>
<polygon fill="white" stroke="#bfbfbf" points="2390.5,-705.5 2390.5,-724.5 2485.5,-724.5 2485.5,-705.5 2390.5,-705.5"/>
<text text-anchor="middle" x="2438" y="-712.5" font-family="Helvetica,sans-Serif" font-size="10.00">dmlc/common.h</text>
</g>
<!-- Node28&#45;&gt;Node29 -->
<g id="edge67" class="edge"><title>Node28&#45;&gt;Node29</title>
<path fill="none" stroke="midnightblue" d="M2368.34,-761.324C2381.16,-752.979 2400.78,-740.212 2415.94,-730.352"/>
<polygon fill="midnightblue" stroke="midnightblue" points="2418.22,-733.042 2424.7,-724.655 2414.41,-727.174 2418.22,-733.042"/>
</g>
<!-- Node28&#45;&gt;Node30 -->
<g id="edge68" class="edge"><title>Node28&#45;&gt;Node30</title>
<path fill="none" stroke="midnightblue" d="M2315.34,-767.731C2164.42,-759.098 1626.08,-728.303 1460.09,-718.808"/>
<polygon fill="midnightblue" stroke="midnightblue" points="1459.89,-715.291 1449.7,-718.214 1459.49,-722.279 1459.89,-715.291"/>
</g>
<!-- Node32 -->
<g id="node32" class="node"><title>Node32</title>
<g id="a_node32"><a xlink:href="structural__equal_8h.html" target="_top" xlink:title="Structural equality comparison. ">
<polygon fill="white" stroke="red" points="1408.5,-470.5 1408.5,-500.5 1519.5,-500.5 1519.5,-470.5 1408.5,-470.5"/>
<text text-anchor="start" x="1416.5" y="-488.5" font-family="Helvetica,sans-Serif" font-size="10.00">tvm/node/structural</text>
<text text-anchor="middle" x="1464" y="-477.5" font-family="Helvetica,sans-Serif" font-size="10.00">_equal.h</text>
</a>
</g>
</g>
<!-- Node28&#45;&gt;Node32 -->
<g id="edge105" class="edge"><title>Node28&#45;&gt;Node32</title>
<path fill="none" stroke="midnightblue" d="M2320.32,-761.475C2285.84,-752.847 2231.53,-738.84 2185,-725 1930.2,-649.211 1629.52,-544.862 1513.28,-503.952"/>
<polygon fill="midnightblue" stroke="midnightblue" points="1514.19,-500.561 1503.59,-500.539 1511.86,-507.163 1514.19,-500.561"/>
</g>
<!-- Node33 -->
<g id="node33" class="node"><title>Node33</title>
<g id="a_node33"><a xlink:href="structural__hash_8h.html" target="_top" xlink:title="tvm/node/structural\l_hash.h">
<polygon fill="white" stroke="red" points="1652.5,-470.5 1652.5,-500.5 1763.5,-500.5 1763.5,-470.5 1652.5,-470.5"/>
<text text-anchor="start" x="1660.5" y="-488.5" font-family="Helvetica,sans-Serif" font-size="10.00">tvm/node/structural</text>
<text text-anchor="middle" x="1708" y="-477.5" font-family="Helvetica,sans-Serif" font-size="10.00">_hash.h</text>
</a>
</g>
</g>
<!-- Node28&#45;&gt;Node33 -->
<g id="edge106" class="edge"><title>Node28&#45;&gt;Node33</title>
<path fill="none" stroke="midnightblue" d="M2330.24,-761.362C2305.65,-752.648 2266.95,-738.577 2234,-725 2048.81,-648.688 1832.35,-546.249 1746.19,-504.924"/>
<polygon fill="midnightblue" stroke="midnightblue" points="1747.59,-501.713 1737.06,-500.539 1744.56,-508.023 1747.59,-501.713"/>
</g>
<!-- Node30&#45;&gt;Node2 -->
<g id="edge89" class="edge"><title>Node30&#45;&gt;Node2</title>
<path fill="none" stroke="midnightblue" d="M1387.06,-705.368C1367.41,-697.611 1339.41,-684.99 1318,-669 1264.05,-628.718 1240.31,-619.787 1216,-557 1200.94,-518.105 1218.26,-468.942 1229.99,-442.974"/>
<polygon fill="midnightblue" stroke="midnightblue" points="1233.29,-444.183 1234.42,-433.649 1226.97,-441.179 1233.29,-444.183"/>
</g>
<!-- Node30&#45;&gt;Node3 -->
<g id="edge69" class="edge"><title>Node30&#45;&gt;Node3</title>
<path fill="none" stroke="midnightblue" d="M1372.4,-710.144C1224.68,-694.905 696.155,-635.844 549,-557 518.523,-540.671 515.454,-528.877 495,-501 416.691,-394.271 278.555,-338.567 361,-235 406.521,-177.817 619.599,-150.294 731.288,-139.603"/>
<polygon fill="midnightblue" stroke="midnightblue" points="731.815,-143.069 741.444,-138.651 731.161,-136.1 731.815,-143.069"/>
</g>
<!-- Node30&#45;&gt;Node8 -->
<g id="edge104" class="edge"><title>Node30&#45;&gt;Node8</title>
<path fill="none" stroke="midnightblue" d="M1372.48,-712.16C1287.76,-707.765 1078.99,-695.028 906,-669 787.821,-651.219 759.151,-641.13 643,-613 550.788,-590.667 522.88,-597.33 437,-557 243.301,-466.038 149.332,-450.363 62,-255 38.058,-201.441 28.9951,-171.502 62,-123 80.6945,-95.5276 116.864,-83.0004 145.998,-77.2881"/>
<polygon fill="midnightblue" stroke="midnightblue" points="146.726,-80.714 155.97,-75.5384 145.516,-73.8194 146.726,-80.714"/>
</g>
<!-- Node30&#45;&gt;Node9 -->
<g id="edge101" class="edge"><title>Node30&#45;&gt;Node9</title>
<path fill="none" stroke="midnightblue" d="M1403.19,-705.314C1385.68,-684.752 1346.56,-631.91 1369,-593 1413.63,-515.605 1572.06,-547.725 1528,-470 1451.62,-335.259 1369.07,-357.099 1229,-291 1185.9,-270.662 1155.46,-293.945 1128,-255 1107.91,-226.509 1149.93,-189.273 1164,-179 1300.22,-79.5519 1855.62,-72.558 1995.77,-72.399"/>
<polygon fill="midnightblue" stroke="midnightblue" points="1995.86,-75.8991 2005.86,-72.399 1995.86,-68.8991 1995.86,-75.8991"/>
</g>
<!-- Node30&#45;&gt;Node23 -->
<g id="edge103" class="edge"><title>Node30&#45;&gt;Node23</title>
<path fill="none" stroke="midnightblue" d="M1439.1,-705.435C1465.53,-697.094 1505.99,-683.571 1540,-669 1557.91,-661.329 1560.3,-654.463 1579,-649 1741.41,-601.545 1804.92,-685.078 1958,-613 2119.01,-537.192 2076.29,-422.68 2196,-291 2206.86,-279.05 2221.33,-268.216 2233.45,-260.174"/>
<polygon fill="midnightblue" stroke="midnightblue" points="2235.62,-262.937 2242.16,-254.597 2231.85,-257.042 2235.62,-262.937"/>
</g>
<!-- Node31 -->
<g id="node31" class="node"><title>Node31</title>
<g id="a_node31"><a xlink:href="node_8h.html" target="_top" xlink:title="Definitions and helper macros for IR/AST nodes. ">
<polygon fill="white" stroke="red" points="1225,-537.5 1225,-556.5 1323,-556.5 1323,-537.5 1225,-537.5"/>
<text text-anchor="middle" x="1274" y="-544.5" font-family="Helvetica,sans-Serif" font-size="10.00">tvm/node/node.h</text>
</a>
</g>
</g>
<!-- Node30&#45;&gt;Node31 -->
<g id="edge70" class="edge"><title>Node30&#45;&gt;Node31</title>
<path fill="none" stroke="midnightblue" d="M1390.41,-705.494C1374.02,-697.889 1351.35,-685.414 1336,-669 1307.35,-638.365 1288.6,-591.957 1279.81,-566.435"/>
<polygon fill="midnightblue" stroke="midnightblue" points="1283.02,-564.995 1276.56,-556.596 1276.37,-567.189 1283.02,-564.995"/>
</g>
<!-- Node34 -->
<g id="node34" class="node"><title>Node34</title>
<g id="a_node34"><a xlink:href="span_8h.html" target="_top" xlink:title="Span information for debugging purposes. ">
<polygon fill="white" stroke="black" points="1378,-593.5 1378,-612.5 1458,-612.5 1458,-593.5 1378,-593.5"/>
<text text-anchor="middle" x="1418" y="-600.5" font-family="Helvetica,sans-Serif" font-size="10.00">tvm/ir/span.h</text>
</a>
</g>
</g>
<!-- Node30&#45;&gt;Node34 -->
<g id="edge90" class="edge"><title>Node30&#45;&gt;Node34</title>
<path fill="none" stroke="midnightblue" d="M1411.55,-705.368C1412.68,-687.617 1415.28,-646.666 1416.82,-622.597"/>
<polygon fill="midnightblue" stroke="midnightblue" points="1420.31,-622.794 1417.45,-612.591 1413.33,-622.349 1420.31,-622.794"/>
</g>
<!-- Node35 -->
<g id="node35" class="node"><title>Node35</title>
<g id="a_node35"><a xlink:href="ir_2type_8h.html" target="_top" xlink:title="IR/AST nodes for the unified type system in TVM. ">
<polygon fill="white" stroke="black" points="1454.5,-649.5 1454.5,-668.5 1531.5,-668.5 1531.5,-649.5 1454.5,-649.5"/>
<text text-anchor="middle" x="1493" y="-656.5" font-family="Helvetica,sans-Serif" font-size="10.00">tvm/ir/type.h</text>
</a>
</g>
</g>
<!-- Node30&#45;&gt;Node35 -->
<g id="edge94" class="edge"><title>Node30&#45;&gt;Node35</title>
<path fill="none" stroke="midnightblue" d="M1424.17,-705.324C1436.85,-696.979 1456.23,-684.212 1471.21,-674.352"/>
<polygon fill="midnightblue" stroke="midnightblue" points="1473.43,-677.078 1479.86,-668.655 1469.58,-671.231 1473.43,-677.078"/>
</g>
<!-- Node36 -->
<g id="node36" class="node"><title>Node36</title>
<polygon fill="white" stroke="#bfbfbf" points="1588,-649.5 1588,-668.5 1650,-668.5 1650,-649.5 1588,-649.5"/>
<text text-anchor="middle" x="1619" y="-656.5" font-family="Helvetica,sans-Serif" font-size="10.00">algorithm</text>
</g>
<!-- Node30&#45;&gt;Node36 -->
<g id="edge102" class="edge"><title>Node30&#45;&gt;Node36</title>
<path fill="none" stroke="midnightblue" d="M1443.96,-705.444C1480.31,-696.005 1538.86,-680.807 1578.11,-670.616"/>
<polygon fill="midnightblue" stroke="midnightblue" points="1579.09,-673.976 1587.89,-668.075 1577.34,-667.201 1579.09,-673.976"/>
</g>
<!-- Node31&#45;&gt;Node2 -->
<g id="edge75" class="edge"><title>Node31&#45;&gt;Node2</title>
<path fill="none" stroke="midnightblue" d="M1271.48,-537.298C1265.83,-517.763 1252.04,-470.065 1244.36,-443.547"/>
<polygon fill="midnightblue" stroke="midnightblue" points="1247.64,-442.257 1241.49,-433.623 1240.91,-444.202 1247.64,-442.257"/>
</g>
<!-- Node31&#45;&gt;Node3 -->
<g id="edge73" class="edge"><title>Node31&#45;&gt;Node3</title>
<path fill="none" stroke="midnightblue" d="M1224.93,-540.786C1180.58,-534.895 1114.13,-523.099 1060,-501 1008.75,-480.076 1000.23,-465.917 955,-434 831.982,-347.193 764.4,-339.774 711,-199 707.847,-190.689 706.344,-186.572 711,-179 720.553,-163.465 737.311,-153.096 753.728,-146.272"/>
<polygon fill="midnightblue" stroke="midnightblue" points="755.183,-149.463 763.298,-142.651 752.706,-142.916 755.183,-149.463"/>
</g>
<!-- Node31&#45;&gt;Node5 -->
<g id="edge71" class="edge"><title>Node31&#45;&gt;Node5</title>
<path fill="none" stroke="midnightblue" d="M1224.8,-540.209C1169.6,-533.184 1077.64,-519.891 1000,-501 852.155,-465.026 473.432,-357.525 361,-255 339.654,-235.535 335.601,-226.871 328,-199 325.661,-190.424 322.58,-186.046 328,-179 352.279,-147.436 599.537,-104.203 726.14,-83.9031"/>
<polygon fill="midnightblue" stroke="midnightblue" points="726.83,-87.3373 736.154,-82.305 725.727,-80.4248 726.83,-87.3373"/>
</g>
<!-- Node31&#45;&gt;Node8 -->
<g id="edge88" class="edge"><title>Node31&#45;&gt;Node8</title>
<path fill="none" stroke="midnightblue" d="M1224.83,-544.155C1149.62,-540.491 1001.91,-529.967 880,-501 661.317,-449.038 603.445,-431.234 407,-322 326.123,-277.028 301.101,-267.607 239,-199 219.613,-177.582 216.657,-169.851 206,-143 199.351,-126.247 195.126,-106.104 192.699,-91.6469"/>
<polygon fill="midnightblue" stroke="midnightblue" points="196.109,-90.7942 191.125,-81.4446 189.191,-91.8613 196.109,-90.7942"/>
</g>
<!-- Node31&#45;&gt;Node9 -->
<g id="edge85" class="edge"><title>Node31&#45;&gt;Node9</title>
<path fill="none" stroke="midnightblue" d="M1323.07,-539.918C1386.13,-531.654 1491.81,-516.162 1528,-501 1760.63,-403.548 1963.65,-155.813 2015.32,-89.2042"/>
<polygon fill="midnightblue" stroke="midnightblue" points="2018.28,-91.1036 2021.59,-81.0421 2012.73,-86.8378 2018.28,-91.1036"/>
</g>
<!-- Node31&#45;&gt;Node10 -->
<g id="edge87" class="edge"><title>Node31&#45;&gt;Node10</title>
<path fill="none" stroke="midnightblue" d="M1323.02,-545.258C1542.74,-541.165 2436.4,-516.16 2673,-378 2782.98,-313.775 2809.54,-267.367 2837,-143 2840.88,-125.417 2836.51,-105.129 2832,-90.8448"/>
<polygon fill="midnightblue" stroke="midnightblue" points="2835.25,-89.527 2828.65,-81.2357 2828.64,-91.8305 2835.25,-89.527"/>
</g>
<!-- Node31&#45;&gt;Node12 -->
<g id="edge74" class="edge"><title>Node31&#45;&gt;Node12</title>
<path fill="none" stroke="midnightblue" d="M1241.24,-537.463C1162.39,-515.311 960.257,-448.695 847,-322 823.733,-295.973 820.799,-286.619 806,-255 798.898,-239.826 792.96,-221.709 789.05,-208.461"/>
<polygon fill="midnightblue" stroke="midnightblue" points="792.362,-207.312 786.262,-198.649 785.629,-209.225 792.362,-207.312"/>
</g>
<!-- Node31&#45;&gt;Node17 -->
<g id="edge86" class="edge"><title>Node31&#45;&gt;Node17</title>
<path fill="none" stroke="midnightblue" d="M1323.3,-544.605C1432.2,-541.031 1690.08,-529.72 1772,-501 1935.56,-443.659 2068.03,-263.932 2106.61,-207.282"/>
<polygon fill="midnightblue" stroke="midnightblue" points="2109.68,-208.986 2112.35,-198.733 2103.87,-205.084 2109.68,-208.986"/>
</g>
<!-- Node31&#45;&gt;Node24 -->
<g id="edge72" class="edge"><title>Node31&#45;&gt;Node24</title>
<path fill="none" stroke="midnightblue" d="M1262.28,-537.463C1223.63,-509.314 1099.93,-419.205 1051.1,-383.638"/>
<polygon fill="midnightblue" stroke="midnightblue" points="1053.03,-380.717 1042.89,-377.659 1048.91,-386.376 1053.03,-380.717"/>
</g>
<!-- Node31&#45;&gt;Node32 -->
<g id="edge76" class="edge"><title>Node31&#45;&gt;Node32</title>
<path fill="none" stroke="midnightblue" d="M1301.22,-537.475C1329.36,-528.664 1374.05,-514.668 1409.49,-503.57"/>
<polygon fill="midnightblue" stroke="midnightblue" points="1410.72,-506.852 1419.22,-500.523 1408.63,-500.171 1410.72,-506.852"/>
</g>
<!-- Node31&#45;&gt;Node33 -->
<g id="edge80" class="edge"><title>Node31&#45;&gt;Node33</title>
<path fill="none" stroke="midnightblue" d="M1323.36,-539.233C1401.69,-528.495 1554.51,-507.543 1642.11,-495.534"/>
<polygon fill="midnightblue" stroke="midnightblue" points="1642.76,-498.977 1652.19,-494.151 1641.81,-492.042 1642.76,-498.977"/>
</g>
<!-- Node32&#45;&gt;Node2 -->
<g id="edge78" class="edge"><title>Node32&#45;&gt;Node2</title>
<path fill="none" stroke="midnightblue" d="M1410.96,-470.475C1371.3,-459.986 1317.79,-445.837 1281.06,-436.122"/>
<polygon fill="midnightblue" stroke="midnightblue" points="1281.73,-432.679 1271.17,-433.506 1279.94,-439.447 1281.73,-432.679"/>
</g>
<!-- Node32&#45;&gt;Node9 -->
<g id="edge79" class="edge"><title>Node32&#45;&gt;Node9</title>
<path fill="none" stroke="midnightblue" d="M1482.38,-470.369C1566.73,-405.529 1913.7,-138.969 1938,-123 1958.91,-109.257 1983.79,-95.4797 2002.09,-85.7952"/>
<polygon fill="midnightblue" stroke="midnightblue" points="2003.76,-88.8672 2011,-81.1257 2000.52,-82.6669 2003.76,-88.8672"/>
</g>
<!-- Node32&#45;&gt;Node20 -->
<g id="edge77" class="edge"><title>Node32&#45;&gt;Node20</title>
<path fill="none" stroke="midnightblue" d="M1408.25,-481.231C1311.67,-475.108 1107.14,-460.115 936,-434 816.569,-415.776 782.967,-420.83 670,-378 586.561,-346.365 497.381,-287.636 458.307,-260.472"/>
<polygon fill="midnightblue" stroke="midnightblue" points="460.101,-257.455 449.904,-254.578 456.081,-263.186 460.101,-257.455"/>
</g>
<!-- Node33&#45;&gt;Node2 -->
<g id="edge82" class="edge"><title>Node33&#45;&gt;Node2</title>
<path fill="none" stroke="midnightblue" d="M1652.24,-476.911C1635.45,-474.654 1616.98,-472.198 1600,-470 1498.75,-456.893 1381.43,-442.396 1308.71,-433.491"/>
<polygon fill="midnightblue" stroke="midnightblue" points="1309.1,-430.013 1298.75,-432.272 1308.25,-436.961 1309.1,-430.013"/>
</g>
<!-- Node33&#45;&gt;Node9 -->
<g id="edge83" class="edge"><title>Node33&#45;&gt;Node9</title>
<path fill="none" stroke="midnightblue" d="M1739.65,-470.395C1790.93,-446.246 1892.99,-392.67 1958,-322 2019.92,-254.688 2027.64,-136.934 2028.19,-91.3074"/>
<polygon fill="midnightblue" stroke="midnightblue" points="2031.69,-91.117 2028.21,-81.1126 2024.69,-91.1082 2031.69,-91.117"/>
</g>
<!-- Node33&#45;&gt;Node20 -->
<g id="edge81" class="edge"><title>Node33&#45;&gt;Node20</title>
<path fill="none" stroke="midnightblue" d="M1652.06,-479.652C1523.95,-468.491 1216.74,-441.377 1170,-434 1057.1,-416.179 1029.92,-405.577 919,-378 753.792,-336.927 558.664,-281.093 476.997,-257.391"/>
<polygon fill="midnightblue" stroke="midnightblue" points="477.732,-253.96 467.152,-254.53 475.778,-260.681 477.732,-253.96"/>
</g>
<!-- Node33&#45;&gt;Node21 -->
<g id="edge84" class="edge"><title>Node33&#45;&gt;Node21</title>
<path fill="none" stroke="midnightblue" d="M1746.7,-470.471C1865.18,-427.528 2221.58,-298.346 2332.61,-258.104"/>
<polygon fill="midnightblue" stroke="midnightblue" points="2334.06,-261.299 2342.27,-254.601 2331.68,-254.718 2334.06,-261.299"/>
</g>
<!-- Node34&#45;&gt;Node3 -->
<g id="edge91" class="edge"><title>Node34&#45;&gt;Node3</title>
<path fill="none" stroke="midnightblue" d="M1377.85,-598.134C1219.39,-582.614 646,-523.874 646,-486.5 646,-486.5 646,-486.5 646,-423 646,-311.43 634.6,-265.554 705,-179 717.631,-163.47 736.879,-152.987 754.754,-146.077"/>
<polygon fill="midnightblue" stroke="midnightblue" points="756.254,-149.258 764.493,-142.597 753.898,-142.666 756.254,-149.258"/>
</g>
<!-- Node34&#45;&gt;Node9 -->
<g id="edge93" class="edge"><title>Node34&#45;&gt;Node9</title>
<path fill="none" stroke="midnightblue" d="M1458.15,-596.44C1532.03,-585.231 1693.46,-556.156 1819,-501 1868.66,-479.183 1877.45,-466.334 1921,-434 2038.09,-347.062 2099.54,-335.826 2150,-199 2169.1,-147.212 2100.28,-105.446 2058.26,-85.3996"/>
<polygon fill="midnightblue" stroke="midnightblue" points="2059.53,-82.1308 2048.99,-81.116 2056.6,-88.486 2059.53,-82.1308"/>
</g>
<!-- Node34&#45;&gt;Node31 -->
<g id="edge92" class="edge"><title>Node34&#45;&gt;Node31</title>
<path fill="none" stroke="midnightblue" d="M1395.18,-593.444C1371.17,-584.438 1333.17,-570.189 1306.13,-560.049"/>
<polygon fill="midnightblue" stroke="midnightblue" points="1307.3,-556.751 1296.71,-556.516 1304.84,-563.305 1307.3,-556.751"/>
</g>
<!-- Node35&#45;&gt;Node2 -->
<g id="edge98" class="edge"><title>Node35&#45;&gt;Node2</title>
<path fill="none" stroke="midnightblue" d="M1491.13,-649.233C1487.96,-635.97 1480.53,-610.5 1467,-593 1410.03,-519.307 1312.51,-462.68 1265.66,-438.217"/>
<polygon fill="midnightblue" stroke="midnightblue" points="1267.23,-435.085 1256.73,-433.624 1264.02,-441.31 1267.23,-435.085"/>
</g>
<!-- Node35&#45;&gt;Node3 -->
<g id="edge95" class="edge"><title>Node35&#45;&gt;Node3</title>
<path fill="none" stroke="midnightblue" d="M1454.37,-656.821C1303.06,-651.35 753.506,-623.227 642,-501 562.227,-413.557 612.737,-345.561 655,-235 665.235,-208.224 665.361,-197.801 687,-179 705.316,-163.087 729.955,-152.393 751.55,-145.439"/>
<polygon fill="midnightblue" stroke="midnightblue" points="752.673,-148.756 761.225,-142.502 750.639,-142.058 752.673,-148.756"/>
</g>
<!-- Node35&#45;&gt;Node9 -->
<g id="edge100" class="edge"><title>Node35&#45;&gt;Node9</title>
<path fill="none" stroke="midnightblue" d="M1531.88,-649.728C1533.27,-649.475 1534.65,-649.232 1536,-649 1655.33,-628.586 1697.15,-665.988 1806,-613 1972.44,-531.975 1988.58,-466.729 2104,-322 2147.19,-267.842 2179.41,-246.961 2166,-179 2160.79,-152.603 2161.8,-142.253 2143,-123 2120.51,-99.9608 2085.7,-86.6986 2060.27,-79.5996"/>
<polygon fill="midnightblue" stroke="midnightblue" points="2060.91,-76.1491 2050.35,-77.0069 2059.14,-82.9217 2060.91,-76.1491"/>
</g>
<!-- Node35&#45;&gt;Node20 -->
<g id="edge96" class="edge"><title>Node35&#45;&gt;Node20</title>
<path fill="none" stroke="midnightblue" d="M1454.44,-656.395C1303.66,-649.702 754.452,-621.317 594,-557 555.055,-541.389 542.375,-535.151 518,-501 463.448,-424.569 445.151,-309.614 439.879,-264.814"/>
<polygon fill="midnightblue" stroke="midnightblue" points="443.348,-264.342 438.783,-254.781 436.39,-265.102 443.348,-264.342"/>
</g>
<!-- Node35&#45;&gt;Node31 -->
<g id="edge97" class="edge"><title>Node35&#45;&gt;Node31</title>
<path fill="none" stroke="midnightblue" d="M1463.06,-649.467C1437.38,-641.607 1399.77,-628.787 1369,-613 1340.76,-598.508 1310.99,-576.975 1292.46,-562.718"/>
<polygon fill="midnightblue" stroke="midnightblue" points="1294.59,-559.941 1284.55,-556.549 1290.28,-565.46 1294.59,-559.941"/>
</g>
<!-- Node35&#45;&gt;Node34 -->
<g id="edge99" class="edge"><title>Node35&#45;&gt;Node34</title>
<path fill="none" stroke="midnightblue" d="M1480.95,-649.324C1469.54,-641.107 1452.17,-628.602 1438.57,-618.807"/>
<polygon fill="midnightblue" stroke="midnightblue" points="1440.43,-615.837 1430.27,-612.834 1436.34,-621.517 1440.43,-615.837"/>
</g>
<!-- Node37&#45;&gt;Node9 -->
<g id="edge150" class="edge"><title>Node37&#45;&gt;Node9</title>
<path fill="none" stroke="midnightblue" d="M2729.04,-985.424C2775.36,-973.635 2853.1,-953.38 2858,-949 2981.08,-838.891 2996,-769.145 2996,-604 2996,-604 2996,-604 2996,-484.5 2996,-278.246 2900.23,-189.543 2705,-123 2583.43,-81.5627 2178.17,-74.0784 2060.37,-72.769"/>
<polygon fill="midnightblue" stroke="midnightblue" points="2060.23,-69.2675 2050.2,-72.6636 2060.16,-76.2671 2060.23,-69.2675"/>
</g>
<!-- Node37&#45;&gt;Node10 -->
<g id="edge151" class="edge"><title>Node37&#45;&gt;Node10</title>
<path fill="none" stroke="midnightblue" d="M2729.15,-992.254C2794.42,-988.313 2933.79,-976.811 2972,-949 3020.86,-913.441 3034,-888.426 3034,-828 3034,-828 3034,-828 3034,-423 3034,-337.388 3110,-331.612 3110,-246 3110,-246 3110,-246 3110,-188 3110,-143.215 3072.94,-143.268 3033,-123 2974.78,-93.4512 2898.49,-80.6747 2856.37,-75.5669"/>
<polygon fill="midnightblue" stroke="midnightblue" points="2856.51,-72.0605 2846.18,-74.4013 2855.72,-79.0152 2856.51,-72.0605"/>
</g>
<!-- Node37&#45;&gt;Node17 -->
<g id="edge152" class="edge"><title>Node37&#45;&gt;Node17</title>
<path fill="none" stroke="midnightblue" d="M2693.46,-985.493C2685.71,-943.009 2649.96,-749.647 2613,-593 2607.08,-567.922 2606.72,-561.247 2598,-537 2591.76,-519.642 2474.83,-245.964 2460,-235 2411.59,-199.218 2228.29,-191.884 2151.82,-190.384"/>
<polygon fill="midnightblue" stroke="midnightblue" points="2151.83,-186.884 2141.77,-190.209 2151.7,-193.883 2151.83,-186.884"/>
</g>
<!-- Node37&#45;&gt;Node28 -->
<g id="edge117" class="edge"><title>Node37&#45;&gt;Node28</title>
<path fill="none" stroke="midnightblue" d="M2690.58,-985.359C2679.61,-964.445 2649.46,-910.096 2614,-873 2585.01,-842.67 2576,-834.798 2538,-817 2495.35,-797.02 2442.79,-785.281 2404.96,-778.832"/>
<polygon fill="midnightblue" stroke="midnightblue" points="2405.14,-775.314 2394.7,-777.151 2404.01,-782.222 2405.14,-775.314"/>
</g>
<!-- Node37&#45;&gt;Node30 -->
<g id="edge123" class="edge"><title>Node37&#45;&gt;Node30</title>
<path fill="none" stroke="midnightblue" d="M2660.89,-990.159C2596.13,-982.786 2450.92,-965.882 2329,-949 2005.17,-904.158 1919.69,-914.139 1602,-837 1525.93,-818.529 1491.18,-835.514 1435,-781 1422.47,-768.838 1416.43,-749.564 1413.55,-735.157"/>
<polygon fill="midnightblue" stroke="midnightblue" points="1416.94,-734.173 1411.86,-724.875 1410.03,-735.311 1416.94,-734.173"/>
</g>
<!-- Node37&#45;&gt;Node35 -->
<g id="edge124" class="edge"><title>Node37&#45;&gt;Node35</title>
<path fill="none" stroke="midnightblue" d="M2668.09,-985.393C2625.53,-972.002 2539.92,-945.957 2466,-929 2236.39,-876.324 2172.64,-893.74 1944,-837 1915.9,-830.026 1909.74,-825.283 1882,-817 1824.14,-799.727 1807.08,-803.385 1751,-781 1684.52,-754.462 1674.04,-734.888 1609,-705 1582.04,-692.61 1550.61,-680.559 1527.27,-672.051"/>
<polygon fill="midnightblue" stroke="midnightblue" points="1528.39,-668.736 1517.8,-668.631 1526.02,-675.32 1528.39,-668.736"/>
</g>
<!-- Node38 -->
<g id="node38" class="node"><title>Node38</title>
<polygon fill="white" stroke="#bfbfbf" points="2742,-929.5 2742,-948.5 2828,-948.5 2828,-929.5 2742,-929.5"/>
<text text-anchor="middle" x="2785" y="-936.5" font-family="Helvetica,sans-Serif" font-size="10.00">dmlc/registry.h</text>
</g>
<!-- Node37&#45;&gt;Node38 -->
<g id="edge116" class="edge"><title>Node37&#45;&gt;Node38</title>
<path fill="none" stroke="midnightblue" d="M2709.46,-985.324C2723.5,-976.9 2745.05,-963.971 2761.54,-954.074"/>
<polygon fill="midnightblue" stroke="midnightblue" points="2763.8,-956.801 2770.58,-948.655 2760.2,-950.798 2763.8,-956.801"/>
</g>
<!-- Node39 -->
<g id="node39" class="node"><title>Node39</title>
<g id="a_node39"><a xlink:href="registry_8h.html" target="_top" xlink:title="This file defines the TVM global function registry. ">
<polygon fill="white" stroke="black" points="2542,-358.5 2542,-377.5 2664,-377.5 2664,-358.5 2542,-358.5"/>
<text text-anchor="middle" x="2603" y="-365.5" font-family="Helvetica,sans-Serif" font-size="10.00">tvm/runtime/registry.h</text>
</a>
</g>
</g>
<!-- Node37&#45;&gt;Node39 -->
<g id="edge118" class="edge"><title>Node37&#45;&gt;Node39</title>
<path fill="none" stroke="midnightblue" d="M2729.24,-992.075C2761.34,-988.445 2808.52,-978.124 2837,-949 2858.04,-927.48 2856,-914.098 2856,-884 2856,-884 2856,-884 2856,-770 2856,-594.255 2680.03,-432.74 2621.6,-383.955"/>
<polygon fill="midnightblue" stroke="midnightblue" points="2623.82,-381.243 2613.87,-377.587 2619.37,-386.646 2623.82,-381.243"/>
</g>
<!-- Node40 -->
<g id="node40" class="node"><title>Node40</title>
<g id="a_node40"><a xlink:href="type__relation_8h.html" target="_top" xlink:title="Type relation and function for type inference(checking). ">
<polygon fill="white" stroke="black" points="2338.5,-929.5 2338.5,-948.5 2457.5,-948.5 2457.5,-929.5 2338.5,-929.5"/>
<text text-anchor="middle" x="2398" y="-936.5" font-family="Helvetica,sans-Serif" font-size="10.00">tvm/ir/type_relation.h</text>
</a>
</g>
</g>
<!-- Node37&#45;&gt;Node40 -->
<g id="edge125" class="edge"><title>Node37&#45;&gt;Node40</title>
<path fill="none" stroke="midnightblue" d="M2660.93,-987.806C2610.56,-978.647 2515.61,-961.384 2454.66,-950.302"/>
<polygon fill="midnightblue" stroke="midnightblue" points="2455.27,-946.856 2444.81,-948.511 2454.02,-953.743 2455.27,-946.856"/>
</g>
<!-- Node39&#45;&gt;Node9 -->
<g id="edge120" class="edge"><title>Node39&#45;&gt;Node9</title>
<path fill="none" stroke="midnightblue" d="M2608.36,-358.467C2621.3,-336.697 2651.63,-277.798 2630,-235 2611.08,-197.552 2517.07,-138.305 2478,-123 2401.51,-93.0321 2149.97,-78.3366 2060.19,-73.951"/>
<polygon fill="midnightblue" stroke="midnightblue" points="2060.23,-70.4486 2050.07,-73.4669 2059.89,-77.4406 2060.23,-70.4486"/>
</g>
<!-- Node39&#45;&gt;Node10 -->
<g id="edge122" class="edge"><title>Node39&#45;&gt;Node10</title>
<path fill="none" stroke="midnightblue" d="M2616.76,-358.475C2657.41,-332.359 2776.84,-248.779 2820,-143 2826.73,-126.505 2827.43,-106.044 2826.78,-91.4209"/>
<polygon fill="midnightblue" stroke="midnightblue" points="2830.25,-90.8622 2826.06,-81.1324 2823.27,-91.3534 2830.25,-90.8622"/>
</g>
<!-- Node39&#45;&gt;Node14 -->
<g id="edge119" class="edge"><title>Node39&#45;&gt;Node14</title>
<path fill="none" stroke="midnightblue" d="M2541.9,-363.78C2347.3,-353.524 1742.97,-321.675 1540.72,-311.016"/>
<polygon fill="midnightblue" stroke="midnightblue" points="1540.71,-307.511 1530.54,-310.48 1540.34,-314.501 1540.71,-307.511"/>
</g>
<!-- Node39&#45;&gt;Node17 -->
<g id="edge121" class="edge"><title>Node39&#45;&gt;Node17</title>
<path fill="none" stroke="midnightblue" d="M2600.22,-358.319C2591.94,-333.996 2564.89,-264.999 2516,-235 2455.18,-197.685 2236.1,-191.278 2151.58,-190.205"/>
<polygon fill="midnightblue" stroke="midnightblue" points="2151.54,-186.704 2141.5,-190.094 2151.46,-193.704 2151.54,-186.704"/>
</g>
<!-- Node40&#45;&gt;Node28 -->
<g id="edge149" class="edge"><title>Node40&#45;&gt;Node28</title>
<path fill="none" stroke="midnightblue" d="M2395.69,-929.075C2388.92,-902.945 2369.04,-826.211 2359.81,-790.577"/>
<polygon fill="midnightblue" stroke="midnightblue" points="2363.12,-789.371 2357.22,-780.568 2356.34,-791.126 2363.12,-789.371"/>
</g>
<!-- Node40&#45;&gt;Node35 -->
<g id="edge126" class="edge"><title>Node40&#45;&gt;Node35</title>
<path fill="none" stroke="midnightblue" d="M2338.28,-929.714C2282.97,-921.664 2198.57,-908.421 2126,-893 2079.18,-883.05 1754.14,-799.511 1710,-781 1647.57,-754.821 1637.26,-737.731 1578,-705 1558.33,-694.135 1535.85,-682.256 1518.95,-673.433"/>
<polygon fill="midnightblue" stroke="midnightblue" points="1520.19,-670.135 1509.71,-668.622 1516.96,-676.344 1520.19,-670.135"/>
</g>
<!-- Node40&#45;&gt;Node41 -->
<g id="edge127" class="edge"><title>Node40&#45;&gt;Node41</title>
<path fill="none" stroke="midnightblue" d="M2338.36,-934.224C2180.82,-924.251 1755.19,-897.306 1601.4,-887.57"/>
<polygon fill="midnightblue" stroke="midnightblue" points="1601.44,-884.066 1591.24,-886.927 1601,-891.052 1601.44,-884.066"/>
</g>
<!-- Node45 -->
<g id="node45" class="node"><title>Node45</title>
<g id="a_node45"><a xlink:href="env__func_8h.html" target="_top" xlink:title="Serializable global function used in IR. ">
<polygon fill="white" stroke="red" points="2868.5,-593.5 2868.5,-612.5 2967.5,-612.5 2967.5,-593.5 2868.5,-593.5"/>
<text text-anchor="middle" x="2918" y="-600.5" font-family="Helvetica,sans-Serif" font-size="10.00">tvm/ir/env_func.h</text>
</a>
</g>
</g>
<!-- Node40&#45;&gt;Node45 -->
<g id="edge146" class="edge"><title>Node40&#45;&gt;Node45</title>
<path fill="none" stroke="midnightblue" d="M2410.95,-929.285C2463.89,-893.704 2669.33,-756.246 2842,-649 2859.37,-638.213 2879.26,-626.456 2894.33,-617.665"/>
<polygon fill="midnightblue" stroke="midnightblue" points="2896.15,-620.661 2903.03,-612.61 2892.63,-614.608 2896.15,-620.661"/>
</g>
<!-- Node41&#45;&gt;Node9 -->
<g id="edge142" class="edge"><title>Node41&#45;&gt;Node9</title>
<path fill="none" stroke="midnightblue" d="M1591.04,-876.324C1662.8,-865.966 1803.99,-839.439 1909,-781 1978.7,-742.215 2218.43,-669.873 2414,-322 2433.16,-287.92 2448.54,-267.629 2427,-235 2342.98,-107.713 2139.67,-80.1022 2060.4,-74.1358"/>
<polygon fill="midnightblue" stroke="midnightblue" points="2060.28,-70.6195 2050.07,-73.4295 2059.8,-77.6032 2060.28,-70.6195"/>
</g>
<!-- Node41&#45;&gt;Node17 -->
<g id="edge143" class="edge"><title>Node41&#45;&gt;Node17</title>
<path fill="none" stroke="midnightblue" d="M1591.34,-880.847C1724.83,-876.623 2106.66,-857.932 2200,-781 2290.52,-706.389 2324,-665.307 2324,-548 2324,-548 2324,-548 2324,-423 2324,-331.842 2465.27,-304.255 2406,-235 2373.67,-197.228 2221.31,-190.929 2152.21,-190.041"/>
<polygon fill="midnightblue" stroke="midnightblue" points="2151.9,-186.538 2141.87,-189.941 2151.84,-193.538 2151.9,-186.538"/>
</g>
<!-- Node41&#45;&gt;Node18 -->
<g id="edge144" class="edge"><title>Node41&#45;&gt;Node18</title>
<path fill="none" stroke="midnightblue" d="M1498.82,-881.617C1301.62,-878.837 534.645,-855.993 414,-669 365.703,-594.143 341.304,-544.598 390,-470 522.764,-266.618 839.897,-209.991 969.913,-195.052"/>
<polygon fill="midnightblue" stroke="midnightblue" points="970.503,-198.508 980.057,-193.928 969.732,-191.55 970.503,-198.508"/>
</g>
<!-- Node41&#45;&gt;Node30 -->
<g id="edge129" class="edge"><title>Node41&#45;&gt;Node30</title>
<path fill="none" stroke="midnightblue" d="M1532.74,-873.337C1514.64,-860.637 1479.62,-836.373 1449,-817 1422.4,-800.167 1403.61,-808.338 1388,-781 1379.32,-765.797 1388.06,-746.751 1397.16,-733.214"/>
<polygon fill="midnightblue" stroke="midnightblue" points="1400.21,-734.972 1403.3,-724.838 1394.56,-730.833 1400.21,-734.972"/>
</g>
<!-- Node41&#45;&gt;Node35 -->
<g id="edge128" class="edge"><title>Node41&#45;&gt;Node35</title>
<path fill="none" stroke="midnightblue" d="M1552.88,-873.343C1570.13,-853.276 1608.33,-802.153 1590,-761 1580.27,-739.151 1566.8,-742.021 1550,-725 1534.43,-709.228 1517.86,-690.026 1506.62,-676.598"/>
<polygon fill="midnightblue" stroke="midnightblue" points="1509.15,-674.163 1500.07,-668.701 1503.76,-678.632 1509.15,-674.163"/>
</g>
<!-- Node42 -->
<g id="node42" class="node"><title>Node42</title>
<g id="a_node42"><a xlink:href="ir_2function_8h.html" target="_top" xlink:title="Function nodes. ">
<polygon fill="white" stroke="black" points="1611.5,-817.5 1611.5,-836.5 1706.5,-836.5 1706.5,-817.5 1611.5,-817.5"/>
<text text-anchor="middle" x="1659" y="-824.5" font-family="Helvetica,sans-Serif" font-size="10.00">tvm/ir/function.h</text>
</a>
</g>
</g>
<!-- Node41&#45;&gt;Node42 -->
<g id="edge130" class="edge"><title>Node41&#45;&gt;Node42</title>
<path fill="none" stroke="midnightblue" d="M1563.06,-873.444C1581.57,-864.675 1610.58,-850.935 1631.86,-840.858"/>
<polygon fill="midnightblue" stroke="midnightblue" points="1633.48,-843.96 1641.02,-836.516 1630.49,-837.634 1633.48,-843.96"/>
</g>
<!-- Node43 -->
<g id="node43" class="node"><title>Node43</title>
<g id="a_node43"><a xlink:href="ir_2adt_8h.html" target="_top" xlink:title="Algebraic data type definitions. ">
<polygon fill="white" stroke="black" points="1226,-761.5 1226,-780.5 1298,-780.5 1298,-761.5 1226,-761.5"/>
<text text-anchor="middle" x="1262" y="-768.5" font-family="Helvetica,sans-Serif" font-size="10.00">tvm/ir/adt.h</text>
</a>
</g>
</g>
<!-- Node41&#45;&gt;Node43 -->
<g id="edge135" class="edge"><title>Node41&#45;&gt;Node43</title>
<path fill="none" stroke="midnightblue" d="M1498.63,-877.447C1456.84,-872 1394.52,-860.486 1345,-837 1318.81,-824.578 1293.25,-802.645 1277.57,-787.725"/>
<polygon fill="midnightblue" stroke="midnightblue" points="1279.93,-785.129 1270.32,-780.65 1275.04,-790.139 1279.93,-785.129"/>
</g>
<!-- Node44 -->
<g id="node44" class="node"><title>Node44</title>
<polygon fill="white" stroke="#bfbfbf" points="1354,-817.5 1354,-836.5 1440,-836.5 1440,-817.5 1354,-817.5"/>
<text text-anchor="middle" x="1397" y="-824.5" font-family="Helvetica,sans-Serif" font-size="10.00">unordered_set</text>
</g>
<!-- Node41&#45;&gt;Node44 -->
<g id="edge145" class="edge"><title>Node41&#45;&gt;Node44</title>
<path fill="none" stroke="midnightblue" d="M1521.55,-873.444C1496.87,-864.438 1457.81,-850.189 1430.02,-840.049"/>
<polygon fill="midnightblue" stroke="midnightblue" points="1430.94,-836.656 1420.34,-836.516 1428.54,-843.232 1430.94,-836.656"/>
</g>
<!-- Node42&#45;&gt;Node8 -->
<g id="edge133" class="edge"><title>Node42&#45;&gt;Node8</title>
<path fill="none" stroke="midnightblue" d="M1611.14,-823.469C1339.13,-809.005 0,-736.747 0,-716 0,-716 0,-716 0,-188 0,-120.224 89.3687,-91.087 145.523,-79.4684"/>
<polygon fill="midnightblue" stroke="midnightblue" points="146.451,-82.8532 155.592,-77.4975 145.106,-75.9836 146.451,-82.8532"/>
</g>
<!-- Node42&#45;&gt;Node9 -->
<g id="edge134" class="edge"><title>Node42&#45;&gt;Node9</title>
<path fill="none" stroke="midnightblue" d="M1706.88,-820.326C1762.76,-813.001 1851.08,-799.024 1879,-781 1936.83,-743.67 1985.23,-713.039 1960,-649 1904.45,-508.025 1849.32,-480.159 1713,-414 1625.39,-371.48 1267.53,-321.116 1313,-235 1354.21,-156.948 1393.95,-152.874 1477,-123 1573.58,-88.2616 1892.84,-76.3307 1995.73,-73.3357"/>
<polygon fill="midnightblue" stroke="midnightblue" points="1995.93,-76.8317 2005.83,-73.0507 1995.73,-69.8345 1995.93,-76.8317"/>
</g>
<!-- Node42&#45;&gt;Node28 -->
<g id="edge132" class="edge"><title>Node42&#45;&gt;Node28</title>
<path fill="none" stroke="midnightblue" d="M1706.56,-822.31C1832.96,-812.503 2176.33,-785.862 2305.22,-775.862"/>
<polygon fill="midnightblue" stroke="midnightblue" points="2305.51,-779.35 2315.21,-775.087 2304.97,-772.371 2305.51,-779.35"/>
</g>
<!-- Node42&#45;&gt;Node30 -->
<g id="edge131" class="edge"><title>Node42&#45;&gt;Node30</title>
<path fill="none" stroke="midnightblue" d="M1611.4,-819.21C1560.49,-811.269 1483.74,-797.14 1459,-781 1441.24,-769.417 1427.72,-748.858 1419.63,-733.957"/>
<polygon fill="midnightblue" stroke="midnightblue" points="1422.57,-732.032 1414.9,-724.724 1416.34,-735.221 1422.57,-732.032"/>
</g>
<!-- Node43&#45;&gt;Node2 -->
<g id="edge138" class="edge"><title>Node43&#45;&gt;Node2</title>
<path fill="none" stroke="midnightblue" d="M1225.68,-768.39C1122.66,-762.843 836,-740.203 836,-660 836,-660 836,-660 836,-546 836,-477.305 1053.51,-444.238 1168.94,-431.527"/>
<polygon fill="midnightblue" stroke="midnightblue" points="1169.53,-434.983 1179.1,-430.431 1168.78,-428.023 1169.53,-434.983"/>
</g>
<!-- Node43&#45;&gt;Node3 -->
<g id="edge136" class="edge"><title>Node43&#45;&gt;Node3</title>
<path fill="none" stroke="midnightblue" d="M1225.73,-769.152C1064.19,-764.906 418,-742.75 418,-660 418,-660 418,-660 418,-602 418,-498.307 266,-528.693 266,-425 266,-425 266,-425 266,-305.5 266,-218.291 335.414,-212.337 416,-179 471.431,-156.069 636.649,-143.222 731.327,-137.557"/>
<polygon fill="midnightblue" stroke="midnightblue" points="731.61,-141.046 741.387,-136.966 731.199,-134.058 731.61,-141.046"/>
</g>
<!-- Node43&#45;&gt;Node9 -->
<g id="edge141" class="edge"><title>Node43&#45;&gt;Node9</title>
<path fill="none" stroke="midnightblue" d="M1268.56,-761.448C1279.2,-748.014 1301.45,-721.774 1325,-705 1502.88,-578.324 1653.63,-684.511 1772,-501 1899.81,-302.865 1199.01,-441.396 1313,-235 1381.09,-111.711 1865.67,-80.147 1995.87,-73.853"/>
<polygon fill="midnightblue" stroke="midnightblue" points="1996.16,-77.3431 2005.99,-73.3806 1995.84,-70.3507 1996.16,-77.3431"/>
</g>
<!-- Node43&#45;&gt;Node30 -->
<g id="edge139" class="edge"><title>Node43&#45;&gt;Node30</title>
<path fill="none" stroke="midnightblue" d="M1285.61,-761.444C1310.46,-752.438 1349.77,-738.189 1377.75,-728.049"/>
<polygon fill="midnightblue" stroke="midnightblue" points="1379.29,-731.214 1387.5,-724.516 1376.91,-724.633 1379.29,-731.214"/>
</g>
<!-- Node43&#45;&gt;Node31 -->
<g id="edge137" class="edge"><title>Node43&#45;&gt;Node31</title>
<path fill="none" stroke="midnightblue" d="M1262.47,-761.297C1264.24,-728.633 1270.49,-612.866 1272.98,-566.957"/>
<polygon fill="midnightblue" stroke="midnightblue" points="1276.47,-567.058 1273.52,-556.884 1269.49,-566.68 1276.47,-567.058"/>
</g>
<!-- Node43&#45;&gt;Node35 -->
<g id="edge140" class="edge"><title>Node43&#45;&gt;Node35</title>
<path fill="none" stroke="midnightblue" d="M1273.29,-761.448C1291.41,-748.016 1328.49,-721.776 1363,-705 1391.76,-691.017 1426,-679.351 1452.12,-671.404"/>
<polygon fill="midnightblue" stroke="midnightblue" points="1453.12,-674.757 1461.7,-668.542 1451.12,-668.049 1453.12,-674.757"/>
</g>
<!-- Node45&#45;&gt;Node9 -->
<g id="edge147" class="edge"><title>Node45&#45;&gt;Node9</title>
<path fill="none" stroke="midnightblue" d="M2913.29,-593.304C2903.54,-574.437 2882,-528.087 2882,-486.5 2882,-486.5 2882,-486.5 2882,-367 2882,-331.578 2873.44,-322.88 2858,-291 2844.89,-263.93 2840.85,-256.677 2820,-235 2761.83,-174.523 2746.63,-152.316 2668,-123 2554.69,-80.7521 2173.62,-73.8423 2060.15,-72.7175"/>
<polygon fill="midnightblue" stroke="midnightblue" points="2060.05,-69.2165 2050.02,-72.6257 2059.99,-76.2162 2060.05,-69.2165"/>
</g>
<!-- Node45&#45;&gt;Node10 -->
<g id="edge148" class="edge"><title>Node45&#45;&gt;Node10</title>
<path fill="none" stroke="midnightblue" d="M2923.13,-593.268C2945.58,-554.235 3034,-391.284 3034,-246 3034,-246 3034,-246 3034,-188 3034,-157.205 3032.7,-143.805 3010,-123 2967.19,-83.7689 2896.84,-74.5536 2856.35,-72.6644"/>
<polygon fill="midnightblue" stroke="midnightblue" points="2856.36,-69.1629 2846.25,-72.3172 2856.12,-76.1588 2856.36,-69.1629"/>
</g>
<!-- Node46&#45;&gt;Node9 -->
<g id="edge170" class="edge"><title>Node46&#45;&gt;Node9</title>
<path fill="none" stroke="midnightblue" d="M2008.66,-825.872C2076.83,-824.954 2257.92,-818.836 2403,-781 2464.27,-765.022 2484.42,-764.389 2534,-725 2666.25,-619.925 2668.36,-545.643 2689,-378 2704.72,-250.31 2673.08,-166.487 2552,-123 2460.61,-90.1754 2159.87,-77.0483 2060.32,-73.5353"/>
<polygon fill="midnightblue" stroke="midnightblue" points="2060.38,-70.0351 2050.26,-73.1891 2060.13,-77.031 2060.38,-70.0351"/>
</g>
<!-- Node46&#45;&gt;Node17 -->
<g id="edge171" class="edge"><title>Node46&#45;&gt;Node17</title>
<path fill="none" stroke="midnightblue" d="M2008.62,-825.201C2069.53,-821.818 2210,-804.432 2210,-716 2210,-716 2210,-716 2210,-658 2210,-579.929 2248,-564.571 2248,-486.5 2248,-486.5 2248,-486.5 2248,-367 2248,-305.826 2324.28,-283.503 2287,-235 2270.64,-213.716 2196.25,-200.365 2151.8,-194.143"/>
<polygon fill="midnightblue" stroke="midnightblue" points="2152.11,-190.653 2141.74,-192.784 2151.18,-197.59 2152.11,-190.653"/>
</g>
<!-- Node46&#45;&gt;Node31 -->
<g id="edge169" class="edge"><title>Node46&#45;&gt;Node31</title>
<path fill="none" stroke="midnightblue" d="M1973.47,-817.143C1949.34,-789.181 1870.7,-701.535 1790,-649 1737.28,-614.678 1720.77,-609.258 1660,-593 1547.18,-562.817 1410.44,-552.877 1333.71,-549.605"/>
<polygon fill="midnightblue" stroke="midnightblue" points="1333.43,-546.091 1323.3,-549.186 1333.15,-553.085 1333.43,-546.091"/>
</g>
<!-- Node46&#45;&gt;Node34 -->
<g id="edge157" class="edge"><title>Node46&#45;&gt;Node34</title>
<path fill="none" stroke="midnightblue" d="M1953.4,-820.012C1899.42,-808.27 1784.77,-783.172 1781,-781 1711.79,-741.096 1728.93,-687.627 1659,-649 1650.67,-644.4 1536.39,-624.27 1468.24,-612.55"/>
<polygon fill="midnightblue" stroke="midnightblue" points="1468.57,-609.057 1458.13,-610.815 1467.39,-615.956 1468.57,-609.057"/>
</g>
<!-- Node47 -->
<g id="node47" class="node"><title>Node47</title>
<g id="a_node47"><a xlink:href="tir_2expr_8h.html" target="_top" xlink:title="TIR expressions. ">
<polygon fill="white" stroke="red" points="1790,-761.5 1790,-780.5 1870,-780.5 1870,-761.5 1790,-761.5"/>
<text text-anchor="middle" x="1830" y="-768.5" font-family="Helvetica,sans-Serif" font-size="10.00">tvm/tir/expr.h</text>
</a>
</g>
</g>
<!-- Node46&#45;&gt;Node47 -->
<g id="edge158" class="edge"><title>Node46&#45;&gt;Node47</title>
<path fill="none" stroke="midnightblue" d="M1957.07,-817.444C1931.78,-808.399 1891.7,-794.064 1863.32,-783.916"/>
<polygon fill="midnightblue" stroke="midnightblue" points="1864.41,-780.588 1853.81,-780.516 1862.05,-787.179 1864.41,-780.588"/>
</g>
<!-- Node47&#45;&gt;Node2 -->
<g id="edge160" class="edge"><title>Node47&#45;&gt;Node2</title>
<path fill="none" stroke="midnightblue" d="M1829.33,-761.313C1827.26,-739.824 1819.18,-683.432 1790,-649 1698.82,-541.415 1659.13,-521.906 1528,-470 1456.59,-441.733 1368.68,-431.159 1308.69,-427.239"/>
<polygon fill="midnightblue" stroke="midnightblue" points="1308.77,-423.737 1298.57,-426.623 1308.34,-430.724 1308.77,-423.737"/>
</g>
<!-- Node47&#45;&gt;Node5 -->
<g id="edge161" class="edge"><title>Node47&#45;&gt;Node5</title>
<path fill="none" stroke="midnightblue" d="M1789.71,-766.134C1708.82,-758.368 1520.89,-740.309 1363,-725 1111.45,-700.61 390.691,-709.593 248,-501 165.149,-379.884 215.317,-280.806 321,-179 357.407,-143.929 372.07,-139.067 420,-123 423.614,-121.788 616.825,-96.4275 726.304,-82.1168"/>
<polygon fill="midnightblue" stroke="midnightblue" points="726.842,-85.5763 736.304,-80.8099 725.935,-78.6354 726.842,-85.5763"/>
</g>
<!-- Node47&#45;&gt;Node9 -->
<g id="edge164" class="edge"><title>Node47&#45;&gt;Node9</title>
<path fill="none" stroke="midnightblue" d="M1852.7,-761.405C1958.71,-720.936 2400,-548.738 2400,-486.5 2400,-486.5 2400,-486.5 2400,-423 2400,-303.571 2645.86,-341.593 2592,-235 2582.54,-216.276 2459.49,-130.752 2440,-123 2370.81,-95.4841 2144.83,-79.4836 2060.3,-74.3382"/>
<polygon fill="midnightblue" stroke="midnightblue" points="2060.45,-70.8406 2050.25,-73.7375 2060.03,-77.8282 2060.45,-70.8406"/>
</g>
<!-- Node47&#45;&gt;Node10 -->
<g id="edge168" class="edge"><title>Node47&#45;&gt;Node10</title>
<path fill="none" stroke="midnightblue" d="M1863.61,-761.448C1895.25,-753.116 1943.8,-739.6 1985,-725 2045.45,-703.579 2059.17,-694.557 2118,-669 2384.71,-553.127 2456.11,-530.019 2704,-378 2740.07,-355.878 2752.46,-353.246 2781,-322 2821.89,-277.231 2823.88,-257.448 2840,-199 2849.09,-166.034 2860.31,-156.171 2852,-123 2849.06,-111.262 2842.81,-99.2694 2837.07,-89.9182"/>
<polygon fill="midnightblue" stroke="midnightblue" points="2839.81,-87.7196 2831.42,-81.2507 2833.94,-91.5402 2839.81,-87.7196"/>
</g>
<!-- Node47&#45;&gt;Node18 -->
<g id="edge166" class="edge"><title>Node47&#45;&gt;Node18</title>
<path fill="none" stroke="midnightblue" d="M1822.58,-761.467C1802.86,-739.336 1746.55,-679.684 1687,-649 1597.31,-602.789 1565.97,-612.635 1467,-593 1356.46,-571.069 1320.96,-598.036 1216,-557 1085.34,-505.915 1045.72,-485.854 956,-378 930.271,-347.071 916.077,-328.361 931,-291 945.959,-253.548 982.144,-222.045 1005.57,-204.623"/>
<polygon fill="midnightblue" stroke="midnightblue" points="1007.78,-207.34 1013.85,-198.653 1003.69,-201.662 1007.78,-207.34"/>
</g>
<!-- Node47&#45;&gt;Node20 -->
<g id="edge162" class="edge"><title>Node47&#45;&gt;Node20</title>
<path fill="none" stroke="midnightblue" d="M1789.96,-768.348C1590.03,-759.885 705.047,-719.8 594,-669 528.415,-638.997 380,-497.122 380,-425 380,-425 380,-425 380,-367 380,-326.46 406.802,-285.123 423.967,-262.805"/>
<polygon fill="midnightblue" stroke="midnightblue" points="426.919,-264.716 430.418,-254.716 421.446,-260.352 426.919,-264.716"/>
</g>
<!-- Node47&#45;&gt;Node23 -->
<g id="edge167" class="edge"><title>Node47&#45;&gt;Node23</title>
<path fill="none" stroke="midnightblue" d="M1837.78,-761.343C1849.3,-748.65 1871.7,-724.393 1892,-705 1964.43,-635.792 1995.09,-631.556 2062,-557 2082.26,-534.427 2084.41,-526.392 2101,-501 2158.28,-413.312 2222.2,-305.398 2246.69,-263.648"/>
<polygon fill="midnightblue" stroke="midnightblue" points="2249.77,-265.325 2251.8,-254.927 2243.73,-261.788 2249.77,-265.325"/>
</g>
<!-- Node47&#45;&gt;Node30 -->
<g id="edge163" class="edge"><title>Node47&#45;&gt;Node30</title>
<path fill="none" stroke="midnightblue" d="M1789.82,-764.822C1712.45,-754.851 1543.04,-733.018 1459.52,-722.253"/>
<polygon fill="midnightblue" stroke="midnightblue" points="1459.9,-718.773 1449.53,-720.966 1459,-725.715 1459.9,-718.773"/>
</g>
<!-- Node47&#45;&gt;Node31 -->
<g id="edge159" class="edge"><title>Node47&#45;&gt;Node31</title>
<path fill="none" stroke="midnightblue" d="M1826.76,-761.498C1817.08,-736.509 1787.8,-664.103 1768,-649 1700.18,-597.271 1449.37,-565.772 1333.45,-553.678"/>
<polygon fill="midnightblue" stroke="midnightblue" points="1333.64,-550.179 1323.34,-552.636 1332.92,-557.142 1333.64,-550.179"/>
</g>
<!-- Node47&#45;&gt;Node36 -->
<g id="edge165" class="edge"><title>Node47&#45;&gt;Node36</title>
<path fill="none" stroke="midnightblue" d="M1812.33,-761.357C1794.13,-752.406 1764.97,-737.945 1740,-725 1706.36,-707.559 1667.86,-686.725 1643.5,-673.431"/>
<polygon fill="midnightblue" stroke="midnightblue" points="1645.04,-670.286 1634.59,-668.561 1641.68,-676.428 1645.04,-670.286"/>
</g>
<!-- Node48&#45;&gt;Node9 -->
<g id="edge182" class="edge"><title>Node48&#45;&gt;Node9</title>
<path fill="none" stroke="midnightblue" d="M2143.79,-990.922C2229.26,-981.089 2490.05,-950.962 2494,-949 2769.27,-812.209 2736.76,-596.941 2707,-291 2698.14,-199.929 2673.75,-154.916 2588,-123 2490.14,-86.5787 2164.77,-75.7635 2060.47,-73.1924"/>
<polygon fill="midnightblue" stroke="midnightblue" points="2060.33,-69.6881 2050.25,-72.9496 2060.16,-76.6862 2060.33,-69.6881"/>
</g>
<!-- Node48&#45;&gt;Node28 -->
<g id="edge178" class="edge"><title>Node48&#45;&gt;Node28</title>
<path fill="none" stroke="midnightblue" d="M2127.36,-985.5C2155.27,-962.476 2234.01,-896.627 2295,-837 2311.21,-821.148 2328.69,-801.958 2340.57,-788.555"/>
<polygon fill="midnightblue" stroke="midnightblue" points="2343.52,-790.495 2347.5,-780.675 2338.27,-785.871 2343.52,-790.495"/>
</g>
<!-- Node48&#45;&gt;Node35 -->
<g id="edge173" class="edge"><title>Node48&#45;&gt;Node35</title>
<path fill="none" stroke="midnightblue" d="M2099.12,-985.465C2045.35,-959.805 1880.31,-881.179 1743,-817 1708.41,-800.833 1698.47,-799.377 1665,-781 1624.69,-758.867 1615.63,-751.433 1578,-725 1554.7,-708.632 1528.83,-688.562 1511.82,-675.091"/>
<polygon fill="midnightblue" stroke="midnightblue" points="1513.8,-672.191 1503.79,-668.703 1509.44,-677.668 1513.8,-672.191"/>
</g>
<!-- Node48&#45;&gt;Node39 -->
<g id="edge179" class="edge"><title>Node48&#45;&gt;Node39</title>
<path fill="none" stroke="midnightblue" d="M2143.76,-990.816C2224.22,-981.208 2458.92,-952.921 2466,-949 2508.27,-925.597 2587.71,-826.486 2604,-781 2607,-772.631 2604.13,-769.888 2604,-761 2602.54,-661.419 2596.52,-636.58 2598,-537 2598.8,-482.929 2601.06,-419.102 2602.25,-387.98"/>
<polygon fill="midnightblue" stroke="midnightblue" points="2605.76,-387.871 2602.65,-377.743 2598.76,-387.6 2605.76,-387.871"/>
</g>
<!-- Node48&#45;&gt;Node40 -->
<g id="edge177" class="edge"><title>Node48&#45;&gt;Node40</title>
<path fill="none" stroke="midnightblue" d="M2143.69,-988.871C2189.4,-980.086 2283.56,-961.993 2343.59,-950.457"/>
<polygon fill="midnightblue" stroke="midnightblue" points="2344.49,-953.848 2353.65,-948.523 2343.17,-946.973 2344.49,-953.848"/>
</g>
<!-- Node48&#45;&gt;Node45 -->
<g id="edge180" class="edge"><title>Node48&#45;&gt;Node45</title>
<path fill="none" stroke="midnightblue" d="M2143.74,-993.296C2224.85,-990.827 2466.91,-980.901 2538,-949 2713.55,-870.218 2863.33,-678.858 2905.9,-620.907"/>
<polygon fill="midnightblue" stroke="midnightblue" points="2908.75,-622.937 2911.8,-612.79 2903.09,-618.822 2908.75,-622.937"/>
</g>
<!-- Node48&#45;&gt;Node46 -->
<g id="edge183" class="edge"><title>Node48&#45;&gt;Node46</title>
<path fill="none" stroke="midnightblue" d="M2109.69,-985.075C2087.82,-958.38 2022.67,-878.865 1994.37,-844.322"/>
<polygon fill="midnightblue" stroke="midnightblue" points="1997.06,-842.085 1988.02,-836.568 1991.65,-846.522 1997.06,-842.085"/>
</g>
<!-- Node48&#45;&gt;Node47 -->
<g id="edge181" class="edge"><title>Node48&#45;&gt;Node47</title>
<path fill="none" stroke="midnightblue" d="M2105.75,-985.297C2062.17,-951.588 1904.17,-829.374 1849.1,-786.771"/>
<polygon fill="midnightblue" stroke="midnightblue" points="1851.22,-783.992 1841.17,-780.643 1846.94,-789.529 1851.22,-783.992"/>
</g>
<!-- Node49 -->
<g id="node49" class="node"><title>Node49</title>
<g id="a_node49"><a xlink:href="tensor__type_8h.html" target="_top" xlink:title="Polymorphic tensor types. ">
<polygon fill="white" stroke="black" points="1468.5,-761.5 1468.5,-780.5 1581.5,-780.5 1581.5,-761.5 1468.5,-761.5"/>
<text text-anchor="middle" x="1525" y="-768.5" font-family="Helvetica,sans-Serif" font-size="10.00">tvm/ir/tensor_type.h</text>
</a>
</g>
</g>
<!-- Node48&#45;&gt;Node49 -->
<g id="edge174" class="edge"><title>Node48&#45;&gt;Node49</title>
<path fill="none" stroke="midnightblue" d="M2090.07,-991.98C2028.42,-986.994 1878.94,-972.754 1835,-949 1765.25,-911.294 1783.3,-857.271 1715,-817 1677.61,-794.951 1630.08,-783.701 1591.92,-777.963"/>
<polygon fill="midnightblue" stroke="midnightblue" points="1592.31,-774.485 1581.92,-776.553 1591.34,-781.416 1592.31,-774.485"/>
</g>
<!-- Node49&#45;&gt;Node30 -->
<g id="edge176" class="edge"><title>Node49&#45;&gt;Node30</title>
<path fill="none" stroke="midnightblue" d="M1506.94,-761.444C1488.43,-752.675 1459.42,-738.935 1438.14,-728.858"/>
<polygon fill="midnightblue" stroke="midnightblue" points="1439.51,-725.634 1428.98,-724.516 1436.52,-731.96 1439.51,-725.634"/>
</g>
<!-- Node49&#45;&gt;Node35 -->
<g id="edge175" class="edge"><title>Node49&#45;&gt;Node35</title>
<path fill="none" stroke="midnightblue" d="M1522.49,-761.368C1517.3,-743.537 1505.3,-702.295 1498.32,-678.272"/>
<polygon fill="midnightblue" stroke="midnightblue" points="1501.65,-677.216 1495.5,-668.591 1494.93,-679.171 1501.65,-677.216"/>
</g>
</g>
</svg>
