<?xml version="1.0" encoding="UTF-8" standalone="no"?>
<!DOCTYPE svg PUBLIC "-//W3C//DTD SVG 1.1//EN"
 "http://www.w3.org/Graphics/SVG/1.1/DTD/svg11.dtd">
<!-- Generated by graphviz version 2.38.0 (20140413.2041)
 -->
<!-- Title: include/tvm/relay/qnn/transform.h Pages: 1 -->
<svg width="3098pt" height="923pt"
 viewBox="0.00 0.00 3098.00 923.00" xmlns="http://www.w3.org/2000/svg" xmlns:xlink="http://www.w3.org/1999/xlink">
<g id="graph0" class="graph" transform="scale(1 1) rotate(0) translate(4 919)">
<title>include/tvm/relay/qnn/transform.h</title>
<polygon fill="white" stroke="none" points="-4,4 -4,-919 3094,-919 3094,4 -4,4"/>
<!-- Node1 -->
<g id="node1" class="node"><title>Node1</title>
<polygon fill="#bfbfbf" stroke="black" points="1752.5,-884.5 1752.5,-914.5 1871.5,-914.5 1871.5,-884.5 1752.5,-884.5"/>
<text text-anchor="start" x="1760.5" y="-902.5" font-family="Helvetica,sans-Serif" font-size="10.00">include/tvm/relay/qnn</text>
<text text-anchor="middle" x="1812" y="-891.5" font-family="Helvetica,sans-Serif" font-size="10.00">/transform.h</text>
</g>
<!-- Node2 -->
<g id="node2" class="node"><title>Node2</title>
<g id="a_node2"><a xlink:href="c__runtime__api_8h.html" target="_top" xlink:title="tvm/runtime/c_runtime\l_api.h">
<polygon fill="white" stroke="black" points="1959.5,-56.5 1959.5,-86.5 2086.5,-86.5 2086.5,-56.5 1959.5,-56.5"/>
<text text-anchor="start" x="1967.5" y="-74.5" font-family="Helvetica,sans-Serif" font-size="10.00">tvm/runtime/c_runtime</text>
<text text-anchor="middle" x="2023" y="-63.5" font-family="Helvetica,sans-Serif" font-size="10.00">_api.h</text>
</a>
</g>
</g>
<!-- Node1&#45;&gt;Node2 -->
<g id="edge1" class="edge"><title>Node1&#45;&gt;Node2</title>
<path fill="none" stroke="midnightblue" d="M1871.74,-898.702C2104.53,-898.715 2938,-891.204 2938,-783 2938,-783 2938,-783 2938,-305.5 2938,-207.048 2821.95,-264.423 2728,-235 2557.94,-181.742 2516.92,-161.856 2343,-123 2259.38,-104.317 2161.95,-89.9857 2096.77,-81.4436"/>
<polygon fill="midnightblue" stroke="midnightblue" points="2096.96,-77.939 2086.59,-80.1226 2096.06,-84.8807 2096.96,-77.939"/>
</g>
<!-- Node6 -->
<g id="node6" class="node"><title>Node6</title>
<g id="a_node6"><a xlink:href="include_2tvm_2relay_2transform_8h.html" target="_top" xlink:title="Relay specific transformation passes. ">
<polygon fill="white" stroke="black" points="625.5,-828.5 625.5,-847.5 746.5,-847.5 746.5,-828.5 625.5,-828.5"/>
<text text-anchor="middle" x="686" y="-835.5" font-family="Helvetica,sans-Serif" font-size="10.00">tvm/relay/transform.h</text>
</a>
</g>
</g>
<!-- Node1&#45;&gt;Node6 -->
<g id="edge5" class="edge"><title>Node1&#45;&gt;Node6</title>
<path fill="none" stroke="midnightblue" d="M1752.26,-895.343C1560.78,-885.225 962.899,-853.632 756.728,-842.737"/>
<polygon fill="midnightblue" stroke="midnightblue" points="756.796,-839.236 746.625,-842.204 756.427,-846.226 756.796,-839.236"/>
</g>
<!-- Node3 -->
<g id="node3" class="node"><title>Node3</title>
<polygon fill="white" stroke="#bfbfbf" points="1888,-0.5 1888,-19.5 1978,-19.5 1978,-0.5 1888,-0.5"/>
<text text-anchor="middle" x="1933" y="-7.5" font-family="Helvetica,sans-Serif" font-size="10.00">dlpack/dlpack.h</text>
</g>
<!-- Node2&#45;&gt;Node3 -->
<g id="edge2" class="edge"><title>Node2&#45;&gt;Node3</title>
<path fill="none" stroke="midnightblue" d="M2001.67,-56.3993C1987.51,-47.0402 1968.99,-34.7924 1954.75,-25.3771"/>
<polygon fill="midnightblue" stroke="midnightblue" points="1956.37,-22.2531 1946.1,-19.6578 1952.51,-28.0923 1956.37,-22.2531"/>
</g>
<!-- Node4 -->
<g id="node4" class="node"><title>Node4</title>
<polygon fill="white" stroke="#bfbfbf" points="1996.5,-0.5 1996.5,-19.5 2049.5,-19.5 2049.5,-0.5 1996.5,-0.5"/>
<text text-anchor="middle" x="2023" y="-7.5" font-family="Helvetica,sans-Serif" font-size="10.00">stdint.h</text>
</g>
<!-- Node2&#45;&gt;Node4 -->
<g id="edge3" class="edge"><title>Node2&#45;&gt;Node4</title>
<path fill="none" stroke="midnightblue" d="M2023,-56.3993C2023,-48.4664 2023,-38.458 2023,-29.8583"/>
<polygon fill="midnightblue" stroke="midnightblue" points="2026.5,-29.6577 2023,-19.6578 2019.5,-29.6578 2026.5,-29.6577"/>
</g>
<!-- Node5 -->
<g id="node5" class="node"><title>Node5</title>
<polygon fill="white" stroke="#bfbfbf" points="2067.5,-0.5 2067.5,-19.5 2122.5,-19.5 2122.5,-0.5 2067.5,-0.5"/>
<text text-anchor="middle" x="2095" y="-7.5" font-family="Helvetica,sans-Serif" font-size="10.00">stddef.h</text>
</g>
<!-- Node2&#45;&gt;Node5 -->
<g id="edge4" class="edge"><title>Node2&#45;&gt;Node5</title>
<path fill="none" stroke="midnightblue" d="M2040.06,-56.3993C2051.06,-47.3076 2065.37,-35.4899 2076.62,-26.1909"/>
<polygon fill="midnightblue" stroke="midnightblue" points="2079.04,-28.726 2084.52,-19.6578 2074.59,-23.33 2079.04,-28.726"/>
</g>
<!-- Node7 -->
<g id="node7" class="node"><title>Node7</title>
<g id="a_node7"><a xlink:href="runtime_2container_8h.html" target="_top" xlink:title="Common POD(plain old data) container types. ">
<polygon fill="white" stroke="black" points="1920,-358.5 1920,-377.5 2052,-377.5 2052,-358.5 1920,-358.5"/>
<text text-anchor="middle" x="1986" y="-365.5" font-family="Helvetica,sans-Serif" font-size="10.00">tvm/runtime/container.h</text>
</a>
</g>
</g>
<!-- Node6&#45;&gt;Node7 -->
<g id="edge6" class="edge"><title>Node6&#45;&gt;Node7</title>
<path fill="none" stroke="midnightblue" d="M746.63,-836.661C1066.99,-834.483 2548,-819.417 2548,-727 2548,-727 2548,-727 2548,-669 2548,-451.416 2216.11,-391.082 2062.43,-374.807"/>
<polygon fill="midnightblue" stroke="midnightblue" points="2062.43,-371.289 2052.12,-373.754 2061.71,-378.253 2062.43,-371.289"/>
</g>
<!-- Node12 -->
<g id="node12" class="node"><title>Node12</title>
<polygon fill="white" stroke="#bfbfbf" points="554,-62 554,-81 598,-81 598,-62 554,-62"/>
<text text-anchor="middle" x="576" y="-69" font-family="Helvetica,sans-Serif" font-size="10.00">string</text>
</g>
<!-- Node6&#45;&gt;Node12 -->
<g id="edge174" class="edge"><title>Node6&#45;&gt;Node12</title>
<path fill="none" stroke="midnightblue" d="M625.051,-835.794C496.766,-832.682 202.903,-822.373 108,-792 54.643,-774.924 0,-783.023 0,-727 0,-727 0,-727 0,-188 0,-151.553 18.1096,-140.646 50,-123 135.483,-75.6984 442.825,-72.1492 543.685,-72.2919"/>
<polygon fill="midnightblue" stroke="midnightblue" points="543.857,-75.7922 553.867,-72.3202 543.877,-68.7923 543.857,-75.7922"/>
</g>
<!-- Node27 -->
<g id="node27" class="node"><title>Node27</title>
<g id="a_node27"><a xlink:href="include_2tvm_2relay_2attrs_2transform_8h.html" target="_top" xlink:title="Transform operators. ">
<polygon fill="white" stroke="black" points="117,-772.5 117,-791.5 263,-791.5 263,-772.5 117,-772.5"/>
<text text-anchor="middle" x="190" y="-779.5" font-family="Helvetica,sans-Serif" font-size="10.00">tvm/relay/attrs/transform.h</text>
</a>
</g>
</g>
<!-- Node6&#45;&gt;Node27 -->
<g id="edge57" class="edge"><title>Node6&#45;&gt;Node27</title>
<path fill="none" stroke="midnightblue" d="M625.181,-830.379C536.772,-820.753 372.489,-802.868 273.017,-792.038"/>
<polygon fill="midnightblue" stroke="midnightblue" points="273.323,-788.551 263.003,-790.948 272.566,-795.51 273.323,-788.551"/>
</g>
<!-- Node35 -->
<g id="node35" class="node"><title>Node35</title>
<g id="a_node35"><a xlink:href="relay_2expr_8h.html" target="_top" xlink:title="Relay expression language. ">
<polygon fill="white" stroke="black" points="449,-716.5 449,-735.5 543,-735.5 543,-716.5 449,-716.5"/>
<text text-anchor="middle" x="496" y="-723.5" font-family="Helvetica,sans-Serif" font-size="10.00">tvm/relay/expr.h</text>
</a>
</g>
</g>
<!-- Node6&#45;&gt;Node35 -->
<g id="edge133" class="edge"><title>Node6&#45;&gt;Node35</title>
<path fill="none" stroke="midnightblue" d="M625.157,-829.425C578.707,-822.328 520.034,-810.082 504,-792 493.048,-779.649 491.945,-760.4 493.043,-746.051"/>
<polygon fill="midnightblue" stroke="midnightblue" points="496.554,-746.159 494.249,-735.818 489.602,-745.34 496.554,-746.159"/>
</g>
<!-- Node40 -->
<g id="node40" class="node"><title>Node40</title>
<g id="a_node40"><a xlink:href="include_2tvm_2ir_2transform_8h.html" target="_top" xlink:title="tvm/ir/transform.h">
<polygon fill="white" stroke="black" points="1901,-772.5 1901,-791.5 2005,-791.5 2005,-772.5 1901,-772.5"/>
<text text-anchor="middle" x="1953" y="-779.5" font-family="Helvetica,sans-Serif" font-size="10.00">tvm/ir/transform.h</text>
</a>
</g>
</g>
<!-- Node6&#45;&gt;Node40 -->
<g id="edge120" class="edge"><title>Node6&#45;&gt;Node40</title>
<path fill="none" stroke="midnightblue" d="M746.683,-834.414C960.008,-825.322 1674.23,-794.881 1890.45,-785.666"/>
<polygon fill="midnightblue" stroke="midnightblue" points="1890.83,-789.153 1900.67,-785.23 1890.53,-782.159 1890.83,-789.153"/>
</g>
<!-- Node43 -->
<g id="node43" class="node"><title>Node43</title>
<g id="a_node43"><a xlink:href="relay_2function_8h.html" target="_top" xlink:title="Relay Function. ">
<polygon fill="white" stroke="black" points="513,-772.5 513,-791.5 625,-791.5 625,-772.5 513,-772.5"/>
<text text-anchor="middle" x="569" y="-779.5" font-family="Helvetica,sans-Serif" font-size="10.00">tvm/relay/function.h</text>
</a>
</g>
</g>
<!-- Node6&#45;&gt;Node43 -->
<g id="edge134" class="edge"><title>Node6&#45;&gt;Node43</title>
<path fill="none" stroke="midnightblue" d="M667.461,-828.444C648.377,-819.636 618.425,-805.812 596.564,-795.722"/>
<polygon fill="midnightblue" stroke="midnightblue" points="597.999,-792.529 587.452,-791.516 595.065,-798.885 597.999,-792.529"/>
</g>
<!-- Node44 -->
<g id="node44" class="node"><title>Node44</title>
<g id="a_node44"><a xlink:href="op__attr__types_8h.html" target="_top" xlink:title="The Expr and related elements in DataFlow construction. ">
<polygon fill="white" stroke="black" points="1378,-772.5 1378,-791.5 1518,-791.5 1518,-772.5 1378,-772.5"/>
<text text-anchor="middle" x="1448" y="-779.5" font-family="Helvetica,sans-Serif" font-size="10.00">tvm/relay/op_attr_types.h</text>
</a>
</g>
</g>
<!-- Node6&#45;&gt;Node44 -->
<g id="edge138" class="edge"><title>Node6&#45;&gt;Node44</title>
<path fill="none" stroke="midnightblue" d="M746.749,-832.695C883.238,-823.023 1214.2,-799.569 1367.54,-788.702"/>
<polygon fill="midnightblue" stroke="midnightblue" points="1368.1,-792.171 1377.82,-787.973 1367.6,-785.189 1368.1,-792.171"/>
</g>
<!-- Node50 -->
<g id="node50" class="node"><title>Node50</title>
<g id="a_node50"><a xlink:href="relay_2op_8h.html" target="_top" xlink:title="Primitive operators(builtin intrinsics). ">
<polygon fill="white" stroke="black" points="643,-772.5 643,-791.5 729,-791.5 729,-772.5 643,-772.5"/>
<text text-anchor="middle" x="686" y="-779.5" font-family="Helvetica,sans-Serif" font-size="10.00">tvm/relay/op.h</text>
</a>
</g>
</g>
<!-- Node6&#45;&gt;Node50 -->
<g id="edge170" class="edge"><title>Node6&#45;&gt;Node50</title>
<path fill="none" stroke="midnightblue" d="M686,-828.083C686,-821.006 686,-810.861 686,-801.986"/>
<polygon fill="midnightblue" stroke="midnightblue" points="689.5,-801.751 686,-791.751 682.5,-801.751 689.5,-801.751"/>
</g>
<!-- Node8 -->
<g id="node8" class="node"><title>Node8</title>
<polygon fill="white" stroke="#bfbfbf" points="1565,-62 1565,-81 1651,-81 1651,-62 1565,-62"/>
<text text-anchor="middle" x="1608" y="-69" font-family="Helvetica,sans-Serif" font-size="10.00">dmlc/logging.h</text>
</g>
<!-- Node7&#45;&gt;Node8 -->
<g id="edge7" class="edge"><title>Node7&#45;&gt;Node8</title>
<path fill="none" stroke="midnightblue" d="M1983.91,-358.125C1974.97,-322.203 1936.35,-186.491 1850,-123 1820.52,-101.325 1722.96,-86.1201 1661.08,-78.3823"/>
<polygon fill="midnightblue" stroke="midnightblue" points="1661.45,-74.9012 1651.09,-77.1596 1660.59,-81.8493 1661.45,-74.9012"/>
</g>
<!-- Node9 -->
<g id="node9" class="node"><title>Node9</title>
<g id="a_node9"><a xlink:href="runtime_2memory_8h.html" target="_top" xlink:title="Runtime memory management. ">
<polygon fill="white" stroke="black" points="1452.5,-179.5 1452.5,-198.5 1579.5,-198.5 1579.5,-179.5 1452.5,-179.5"/>
<text text-anchor="middle" x="1516" y="-186.5" font-family="Helvetica,sans-Serif" font-size="10.00">tvm/runtime/memory.h</text>
</a>
</g>
</g>
<!-- Node7&#45;&gt;Node9 -->
<g id="edge8" class="edge"><title>Node7&#45;&gt;Node9</title>
<path fill="none" stroke="midnightblue" d="M1919.72,-363.017C1805.5,-355.735 1580.72,-339.412 1549,-322 1515.72,-303.728 1508.47,-290.862 1496,-255 1490.5,-239.182 1497.23,-220.937 1504.33,-207.812"/>
<polygon fill="midnightblue" stroke="midnightblue" points="1507.53,-209.281 1509.64,-198.897 1501.52,-205.701 1507.53,-209.281"/>
</g>
<!-- Node10 -->
<g id="node10" class="node"><title>Node10</title>
<g id="a_node10"><a xlink:href="object_8h.html" target="_top" xlink:title="A managed object in the TVM runtime. ">
<polygon fill="white" stroke="black" points="1724.5,-123.5 1724.5,-142.5 1841.5,-142.5 1841.5,-123.5 1724.5,-123.5"/>
<text text-anchor="middle" x="1783" y="-130.5" font-family="Helvetica,sans-Serif" font-size="10.00">tvm/runtime/object.h</text>
</a>
</g>
</g>
<!-- Node7&#45;&gt;Node10 -->
<g id="edge19" class="edge"><title>Node7&#45;&gt;Node10</title>
<path fill="none" stroke="midnightblue" d="M2020.18,-358.493C2038.99,-351.877 2060.74,-340.596 2072,-322 2079.14,-310.214 2078.29,-303.258 2072,-291 2026.72,-202.753 1909.83,-161.978 1839.35,-144.883"/>
<polygon fill="midnightblue" stroke="midnightblue" points="1839.84,-141.403 1829.31,-142.53 1838.25,-148.218 1839.84,-141.403"/>
</g>
<!-- Node11 -->
<g id="node11" class="node"><title>Node11</title>
<polygon fill="white" stroke="#bfbfbf" points="1160,-62 1160,-81 1228,-81 1228,-62 1160,-62"/>
<text text-anchor="middle" x="1194" y="-69" font-family="Helvetica,sans-Serif" font-size="10.00">type_traits</text>
</g>
<!-- Node7&#45;&gt;Node11 -->
<g id="edge54" class="edge"><title>Node7&#45;&gt;Node11</title>
<path fill="none" stroke="midnightblue" d="M1919.64,-363.318C1797.24,-356.149 1545.07,-339.481 1509,-322 1398.96,-268.668 1420.18,-191.667 1319,-123 1293.18,-105.48 1260.36,-92.5127 1234.83,-84.1076"/>
<polygon fill="midnightblue" stroke="midnightblue" points="1235.67,-80.7024 1225.08,-81.0016 1233.54,-87.3721 1235.67,-80.7024"/>
</g>
<!-- Node7&#45;&gt;Node12 -->
<g id="edge53" class="edge"><title>Node7&#45;&gt;Node12</title>
<path fill="none" stroke="midnightblue" d="M1919.92,-364.306C1819.75,-359.559 1623.68,-347.668 1459,-322 1326.58,-301.36 1291.4,-299.524 1165,-255 1038.64,-210.491 1021.77,-163.279 894,-123 792.616,-91.0401 666.383,-78.696 608.162,-74.4607"/>
<polygon fill="midnightblue" stroke="midnightblue" points="608.322,-70.9635 598.103,-73.7613 607.836,-77.9466 608.322,-70.9635"/>
</g>
<!-- Node13 -->
<g id="node13" class="node"><title>Node13</title>
<polygon fill="white" stroke="#bfbfbf" points="2784,-62 2784,-81 2826,-81 2826,-62 2784,-62"/>
<text text-anchor="middle" x="2805" y="-69" font-family="Helvetica,sans-Serif" font-size="10.00">utility</text>
</g>
<!-- Node7&#45;&gt;Node13 -->
<g id="edge55" class="edge"><title>Node7&#45;&gt;Node13</title>
<path fill="none" stroke="midnightblue" d="M2024.03,-358.482C2094.36,-343.003 2249.66,-310.095 2382,-291 2463.76,-279.202 2686.86,-305.805 2752,-255 2802.93,-215.281 2806.96,-129.599 2806.04,-91.4679"/>
<polygon fill="midnightblue" stroke="midnightblue" points="2809.53,-91.1199 2805.64,-81.2643 2802.53,-91.3934 2809.53,-91.1199"/>
</g>
<!-- Node16 -->
<g id="node16" class="node"><title>Node16</title>
<g id="a_node16"><a xlink:href="packed__func_8h.html" target="_top" xlink:title="Type&#45;erased function used across TVM API. ">
<polygon fill="white" stroke="black" points="1558.5,-291.5 1558.5,-321.5 1671.5,-321.5 1671.5,-291.5 1558.5,-291.5"/>
<text text-anchor="start" x="1566.5" y="-309.5" font-family="Helvetica,sans-Serif" font-size="10.00">tvm/runtime/packed</text>
<text text-anchor="middle" x="1615" y="-298.5" font-family="Helvetica,sans-Serif" font-size="10.00">_func.h</text>
</a>
</g>
</g>
<!-- Node7&#45;&gt;Node16 -->
<g id="edge20" class="edge"><title>Node7&#45;&gt;Node16</title>
<path fill="none" stroke="midnightblue" d="M1932.84,-358.475C1866.77,-347.878 1753.95,-329.784 1682.01,-318.247"/>
<polygon fill="midnightblue" stroke="midnightblue" points="1682.13,-314.722 1671.71,-316.594 1681.03,-321.634 1682.13,-314.722"/>
</g>
<!-- Node19 -->
<g id="node19" class="node"><title>Node19</title>
<polygon fill="white" stroke="#bfbfbf" points="2168.5,-179.5 2168.5,-198.5 2215.5,-198.5 2215.5,-179.5 2168.5,-179.5"/>
<text text-anchor="middle" x="2192" y="-186.5" font-family="Helvetica,sans-Serif" font-size="10.00">vector</text>
</g>
<!-- Node7&#45;&gt;Node19 -->
<g id="edge56" class="edge"><title>Node7&#45;&gt;Node19</title>
<path fill="none" stroke="midnightblue" d="M1985.99,-358.036C1986.42,-342.716 1989.32,-311.195 2005,-291 2007.78,-287.424 2116.3,-229.92 2166.72,-203.314"/>
<polygon fill="midnightblue" stroke="midnightblue" points="2168.49,-206.339 2175.7,-198.578 2165.23,-200.147 2168.49,-206.339"/>
</g>
<!-- Node25 -->
<g id="node25" class="node"><title>Node25</title>
<polygon fill="white" stroke="#bfbfbf" points="2014.5,-297 2014.5,-316 2063.5,-316 2063.5,-297 2014.5,-297"/>
<text text-anchor="middle" x="2039" y="-304" font-family="Helvetica,sans-Serif" font-size="10.00">cstring</text>
</g>
<!-- Node7&#45;&gt;Node25 -->
<g id="edge51" class="edge"><title>Node7&#45;&gt;Node25</title>
<path fill="none" stroke="midnightblue" d="M1993.59,-358.475C2001.7,-349.373 2014.73,-334.741 2024.76,-323.483"/>
<polygon fill="midnightblue" stroke="midnightblue" points="2027.38,-325.804 2031.42,-316.009 2022.16,-321.148 2027.38,-325.804"/>
</g>
<!-- Node26 -->
<g id="node26" class="node"><title>Node26</title>
<polygon fill="white" stroke="#bfbfbf" points="1804.5,-297 1804.5,-316 1881.5,-316 1881.5,-297 1804.5,-297"/>
<text text-anchor="middle" x="1843" y="-304" font-family="Helvetica,sans-Serif" font-size="10.00">initializer_list</text>
</g>
<!-- Node7&#45;&gt;Node26 -->
<g id="edge52" class="edge"><title>Node7&#45;&gt;Node26</title>
<path fill="none" stroke="midnightblue" d="M1965.51,-358.475C1941.19,-348.357 1900.45,-331.405 1872.68,-319.851"/>
<polygon fill="midnightblue" stroke="midnightblue" points="1874.03,-316.619 1863.45,-316.009 1871.34,-323.082 1874.03,-316.619"/>
</g>
<!-- Node9&#45;&gt;Node10 -->
<g id="edge9" class="edge"><title>Node9&#45;&gt;Node10</title>
<path fill="none" stroke="midnightblue" d="M1558.31,-179.444C1605.08,-169.984 1680.46,-154.738 1730.85,-144.547"/>
<polygon fill="midnightblue" stroke="midnightblue" points="1731.78,-147.929 1740.89,-142.516 1730.4,-141.068 1731.78,-147.929"/>
</g>
<!-- Node9&#45;&gt;Node11 -->
<g id="edge18" class="edge"><title>Node9&#45;&gt;Node11</title>
<path fill="none" stroke="midnightblue" d="M1507.08,-179.341C1492.06,-165.268 1460.19,-137.546 1428,-123 1365.72,-94.8614 1286.91,-82.0357 1238.49,-76.4607"/>
<polygon fill="midnightblue" stroke="midnightblue" points="1238.67,-72.9589 1228.34,-75.3474 1237.9,-79.9171 1238.67,-72.9589"/>
</g>
<!-- Node9&#45;&gt;Node13 -->
<g id="edge17" class="edge"><title>Node9&#45;&gt;Node13</title>
<path fill="none" stroke="midnightblue" d="M1536.15,-179.398C1571.57,-164.745 1647.61,-135.333 1715,-123 1821.44,-103.521 2606.15,-78.5852 2773.62,-73.4498"/>
<polygon fill="midnightblue" stroke="midnightblue" points="2773.85,-76.9443 2783.74,-73.1404 2773.64,-69.9475 2773.85,-76.9443"/>
</g>
<!-- Node15 -->
<g id="node15" class="node"><title>Node15</title>
<polygon fill="white" stroke="#bfbfbf" points="1518.5,-123.5 1518.5,-142.5 1565.5,-142.5 1565.5,-123.5 1518.5,-123.5"/>
<text text-anchor="middle" x="1542" y="-130.5" font-family="Helvetica,sans-Serif" font-size="10.00">cstdlib</text>
</g>
<!-- Node9&#45;&gt;Node15 -->
<g id="edge16" class="edge"><title>Node9&#45;&gt;Node15</title>
<path fill="none" stroke="midnightblue" d="M1520.29,-179.083C1523.85,-171.691 1529.02,-160.953 1533.42,-151.811"/>
<polygon fill="midnightblue" stroke="midnightblue" points="1536.6,-153.279 1537.79,-142.751 1530.29,-150.243 1536.6,-153.279"/>
</g>
<!-- Node10&#45;&gt;Node2 -->
<g id="edge11" class="edge"><title>Node10&#45;&gt;Node2</title>
<path fill="none" stroke="midnightblue" d="M1817.39,-123.475C1853.61,-114.494 1911.56,-100.128 1956.72,-88.9328"/>
<polygon fill="midnightblue" stroke="midnightblue" points="1957.57,-92.3265 1966.44,-86.523 1955.89,-85.5322 1957.57,-92.3265"/>
</g>
<!-- Node10&#45;&gt;Node8 -->
<g id="edge10" class="edge"><title>Node10&#45;&gt;Node8</title>
<path fill="none" stroke="midnightblue" d="M1757.93,-123.475C1727.65,-113.18 1676.56,-95.8103 1642.56,-84.2502"/>
<polygon fill="midnightblue" stroke="midnightblue" points="1643.62,-80.9145 1633.03,-81.0091 1641.37,-87.5419 1643.62,-80.9145"/>
</g>
<!-- Node10&#45;&gt;Node11 -->
<g id="edge12" class="edge"><title>Node10&#45;&gt;Node11</title>
<path fill="none" stroke="midnightblue" d="M1724.37,-126.077C1606.5,-114.17 1343.14,-87.5664 1238.3,-76.9752"/>
<polygon fill="midnightblue" stroke="midnightblue" points="1238.37,-73.4647 1228.07,-75.9419 1237.67,-80.4293 1238.37,-73.4647"/>
</g>
<!-- Node10&#45;&gt;Node12 -->
<g id="edge13" class="edge"><title>Node10&#45;&gt;Node12</title>
<path fill="none" stroke="midnightblue" d="M1724.38,-129.11C1510.01,-118.543 772.665,-82.1947 608.547,-74.1044"/>
<polygon fill="midnightblue" stroke="midnightblue" points="608.316,-70.5889 598.156,-73.5922 607.971,-77.5804 608.316,-70.5889"/>
</g>
<!-- Node10&#45;&gt;Node13 -->
<g id="edge14" class="edge"><title>Node10&#45;&gt;Node13</title>
<path fill="none" stroke="midnightblue" d="M1841.62,-128.587C2031.98,-117.505 2628.86,-82.7548 2773.3,-74.3458"/>
<polygon fill="midnightblue" stroke="midnightblue" points="2773.87,-77.8185 2783.65,-73.7431 2773.46,-70.8303 2773.87,-77.8185"/>
</g>
<!-- Node14 -->
<g id="node14" class="node"><title>Node14</title>
<polygon fill="white" stroke="#bfbfbf" points="2264,-62 2264,-81 2314,-81 2314,-62 2264,-62"/>
<text text-anchor="middle" x="2289" y="-69" font-family="Helvetica,sans-Serif" font-size="10.00">atomic</text>
</g>
<!-- Node10&#45;&gt;Node14 -->
<g id="edge15" class="edge"><title>Node10&#45;&gt;Node14</title>
<path fill="none" stroke="midnightblue" d="M1841.54,-125.116C1947.55,-112.651 2168.26,-86.6974 2253.94,-76.6228"/>
<polygon fill="midnightblue" stroke="midnightblue" points="2254.41,-80.0911 2263.94,-75.4472 2253.6,-73.139 2254.41,-80.0911"/>
</g>
<!-- Node16&#45;&gt;Node2 -->
<g id="edge22" class="edge"><title>Node16&#45;&gt;Node2</title>
<path fill="none" stroke="midnightblue" d="M1671.55,-299.742C1815.77,-284.492 2188.44,-241.32 2224,-199 2268.04,-146.585 2170.39,-108.946 2096.33,-88.9657"/>
<polygon fill="midnightblue" stroke="midnightblue" points="2097.07,-85.5422 2086.51,-86.3816 2095.29,-92.3116 2097.07,-85.5422"/>
</g>
<!-- Node16&#45;&gt;Node8 -->
<g id="edge21" class="edge"><title>Node16&#45;&gt;Node8</title>
<path fill="none" stroke="midnightblue" d="M1592.22,-291.436C1580.21,-282.619 1566.62,-270.072 1560,-255 1548.81,-229.524 1576.94,-224.532 1588,-199 1603.56,-163.086 1607.18,-116.747 1607.92,-91.3032"/>
<polygon fill="midnightblue" stroke="midnightblue" points="1611.42,-91.2534 1608.09,-81.1957 1604.42,-91.1352 1611.42,-91.2534"/>
</g>
<!-- Node16&#45;&gt;Node10 -->
<g id="edge42" class="edge"><title>Node16&#45;&gt;Node10</title>
<path fill="none" stroke="midnightblue" d="M1671.9,-293.407C1710.02,-284.108 1755.44,-270.292 1768,-255 1791.99,-225.791 1789.81,-178.455 1786.3,-152.494"/>
<polygon fill="midnightblue" stroke="midnightblue" points="1789.74,-151.838 1784.73,-142.501 1782.82,-152.922 1789.74,-151.838"/>
</g>
<!-- Node16&#45;&gt;Node11 -->
<g id="edge50" class="edge"><title>Node16&#45;&gt;Node11</title>
<path fill="none" stroke="midnightblue" d="M1589.79,-291.397C1555.63,-271.946 1493.13,-235.173 1443,-199 1400.27,-168.164 1398.18,-148.383 1352,-123 1315.86,-103.137 1270.72,-89.6955 1237.95,-81.7056"/>
<polygon fill="midnightblue" stroke="midnightblue" points="1238.74,-78.2956 1228.21,-79.4 1237.13,-85.1077 1238.74,-78.2956"/>
</g>
<!-- Node16&#45;&gt;Node12 -->
<g id="edge46" class="edge"><title>Node16&#45;&gt;Node12</title>
<path fill="none" stroke="midnightblue" d="M1558.27,-296.988C1503.89,-288.309 1419.72,-273.509 1348,-255 1193.95,-215.242 1154.46,-205.153 1008,-143 990.431,-135.544 988.199,-128.749 970,-123 840.479,-82.0844 677.031,-74.2349 608.533,-72.7904"/>
<polygon fill="midnightblue" stroke="midnightblue" points="608.435,-69.2882 598.374,-72.6095 608.31,-76.2871 608.435,-69.2882"/>
</g>
<!-- Node16&#45;&gt;Node13 -->
<g id="edge49" class="edge"><title>Node16&#45;&gt;Node13</title>
<path fill="none" stroke="midnightblue" d="M1671.71,-300.321C1707.12,-297.238 1753.69,-293.46 1795,-291 1846.78,-287.917 2686.51,-286.136 2728,-255 2777.46,-217.881 2745.09,-178.676 2772,-123 2777.73,-111.138 2785.8,-98.7398 2792.52,-89.1966"/>
<polygon fill="midnightblue" stroke="midnightblue" points="2795.41,-91.1842 2798.44,-81.0323 2789.74,-87.0779 2795.41,-91.1842"/>
</g>
<!-- Node17 -->
<g id="node17" class="node"><title>Node17</title>
<g id="a_node17"><a xlink:href="runtime_2module_8h.html" target="_top" xlink:title="Runtime container of the functions generated by TVM, This is used to support dynamically link...">
<polygon fill="white" stroke="red" points="1576,-235.5 1576,-254.5 1700,-254.5 1700,-235.5 1576,-235.5"/>
<text text-anchor="middle" x="1638" y="-242.5" font-family="Helvetica,sans-Serif" font-size="10.00">tvm/runtime/module.h</text>
</a>
</g>
</g>
<!-- Node16&#45;&gt;Node17 -->
<g id="edge23" class="edge"><title>Node16&#45;&gt;Node17</title>
<path fill="none" stroke="midnightblue" d="M1614.61,-291.399C1616.75,-283.11 1620.7,-272.554 1624.92,-263.708"/>
<polygon fill="midnightblue" stroke="midnightblue" points="1628.13,-265.132 1629.72,-254.658 1621.95,-261.851 1628.13,-265.132"/>
</g>
<!-- Node18 -->
<g id="node18" class="node"><title>Node18</title>
<polygon fill="white" stroke="#bfbfbf" points="1636.5,-179.5 1636.5,-198.5 1693.5,-198.5 1693.5,-179.5 1636.5,-179.5"/>
<text text-anchor="middle" x="1665" y="-186.5" font-family="Helvetica,sans-Serif" font-size="10.00">memory</text>
</g>
<!-- Node16&#45;&gt;Node18 -->
<g id="edge48" class="edge"><title>Node16&#45;&gt;Node18</title>
<path fill="none" stroke="midnightblue" d="M1594.07,-291.342C1575.89,-277.215 1554.29,-254.819 1567,-235 1574.23,-223.73 1603.96,-211.008 1628.81,-201.973"/>
<polygon fill="midnightblue" stroke="midnightblue" points="1630.12,-205.221 1638.38,-198.582 1627.78,-198.623 1630.12,-205.221"/>
</g>
<!-- Node16&#45;&gt;Node19 -->
<g id="edge45" class="edge"><title>Node16&#45;&gt;Node19</title>
<path fill="none" stroke="midnightblue" d="M1671.55,-291.691C1733.72,-276.741 1836.66,-252.669 1926,-235 2009.22,-218.542 2107.83,-202.847 2158.4,-195.074"/>
<polygon fill="midnightblue" stroke="midnightblue" points="2159.08,-198.51 2168.44,-193.538 2158.02,-191.591 2159.08,-198.51"/>
</g>
<!-- Node20 -->
<g id="node20" class="node"><title>Node20</title>
<g id="a_node20"><a xlink:href="ndarray_8h.html" target="_top" xlink:title="A device&#45;independent managed NDArray abstraction. ">
<polygon fill="white" stroke="red" points="2596.5,-235.5 2596.5,-254.5 2719.5,-254.5 2719.5,-235.5 2596.5,-235.5"/>
<text text-anchor="middle" x="2658" y="-242.5" font-family="Helvetica,sans-Serif" font-size="10.00">tvm/runtime/ndarray.h</text>
</a>
</g>
</g>
<!-- Node16&#45;&gt;Node20 -->
<g id="edge31" class="edge"><title>Node16&#45;&gt;Node20</title>
<path fill="none" stroke="midnightblue" d="M1671.71,-300.421C1707.13,-297.375 1753.7,-293.601 1795,-291 2143.4,-269.056 2234.25,-284.88 2586.49,-254.962"/>
<polygon fill="midnightblue" stroke="midnightblue" points="2586.79,-258.449 2596.46,-254.109 2586.2,-251.475 2586.79,-258.449"/>
</g>
<!-- Node21 -->
<g id="node21" class="node"><title>Node21</title>
<g id="a_node21"><a xlink:href="data__type_8h.html" target="_top" xlink:title="tvm/runtime/data_type.h">
<polygon fill="white" stroke="black" points="1174,-123.5 1174,-142.5 1310,-142.5 1310,-123.5 1174,-123.5"/>
<text text-anchor="middle" x="1242" y="-130.5" font-family="Helvetica,sans-Serif" font-size="10.00">tvm/runtime/data_type.h</text>
</a>
</g>
</g>
<!-- Node16&#45;&gt;Node21 -->
<g id="edge37" class="edge"><title>Node16&#45;&gt;Node21</title>
<path fill="none" stroke="midnightblue" d="M1558.27,-301.128C1509.4,-295.555 1438.1,-283.012 1382,-255 1328.57,-228.324 1278.92,-176.593 1255.73,-150.256"/>
<polygon fill="midnightblue" stroke="midnightblue" points="1258.35,-147.933 1249.16,-142.661 1253.06,-152.514 1258.35,-147.933"/>
</g>
<!-- Node22 -->
<g id="node22" class="node"><title>Node22</title>
<polygon fill="white" stroke="#bfbfbf" points="484.5,-235.5 484.5,-254.5 547.5,-254.5 547.5,-235.5 484.5,-235.5"/>
<text text-anchor="middle" x="516" y="-242.5" font-family="Helvetica,sans-Serif" font-size="10.00">functional</text>
</g>
<!-- Node16&#45;&gt;Node22 -->
<g id="edge43" class="edge"><title>Node16&#45;&gt;Node22</title>
<path fill="none" stroke="midnightblue" d="M1558.23,-302.426C1363.74,-291.897 726.983,-257.423 557.664,-248.256"/>
<polygon fill="midnightblue" stroke="midnightblue" points="557.826,-244.759 547.652,-247.714 557.448,-251.749 557.826,-244.759"/>
</g>
<!-- Node23 -->
<g id="node23" class="node"><title>Node23</title>
<polygon fill="white" stroke="#bfbfbf" points="1718.5,-235.5 1718.5,-254.5 1759.5,-254.5 1759.5,-235.5 1718.5,-235.5"/>
<text text-anchor="middle" x="1739" y="-242.5" font-family="Helvetica,sans-Serif" font-size="10.00">tuple</text>
</g>
<!-- Node16&#45;&gt;Node23 -->
<g id="edge44" class="edge"><title>Node16&#45;&gt;Node23</title>
<path fill="none" stroke="midnightblue" d="M1644.39,-291.399C1664.82,-281.595 1691.86,-268.619 1711.8,-259.052"/>
<polygon fill="midnightblue" stroke="midnightblue" points="1713.46,-262.139 1720.96,-254.658 1710.43,-255.828 1713.46,-262.139"/>
</g>
<!-- Node24 -->
<g id="node24" class="node"><title>Node24</title>
<polygon fill="white" stroke="#bfbfbf" points="1174,-235.5 1174,-254.5 1216,-254.5 1216,-235.5 1174,-235.5"/>
<text text-anchor="middle" x="1195" y="-242.5" font-family="Helvetica,sans-Serif" font-size="10.00">limits</text>
</g>
<!-- Node16&#45;&gt;Node24 -->
<g id="edge47" class="edge"><title>Node16&#45;&gt;Node24</title>
<path fill="none" stroke="midnightblue" d="M1558.36,-297.476C1468.69,-284.773 1297.02,-260.452 1226.46,-250.457"/>
<polygon fill="midnightblue" stroke="midnightblue" points="1226.81,-246.972 1216.42,-249.035 1225.83,-253.903 1226.81,-246.972"/>
</g>
<!-- Node17&#45;&gt;Node2 -->
<g id="edge24" class="edge"><title>Node17&#45;&gt;Node2</title>
<path fill="none" stroke="midnightblue" d="M1657.09,-235.495C1716.58,-208.996 1899.52,-127.505 1981.96,-90.7801"/>
<polygon fill="midnightblue" stroke="midnightblue" points="1983.79,-93.7963 1991.5,-86.53 1980.95,-87.402 1983.79,-93.7963"/>
</g>
<!-- Node17&#45;&gt;Node9 -->
<g id="edge26" class="edge"><title>Node17&#45;&gt;Node9</title>
<path fill="none" stroke="midnightblue" d="M1618.67,-235.444C1598.68,-226.596 1567.26,-212.687 1544.44,-202.586"/>
<polygon fill="midnightblue" stroke="midnightblue" points="1545.8,-199.363 1535.24,-198.516 1542.97,-205.764 1545.8,-199.363"/>
</g>
<!-- Node17&#45;&gt;Node10 -->
<g id="edge25" class="edge"><title>Node17&#45;&gt;Node10</title>
<path fill="none" stroke="midnightblue" d="M1650.92,-235.27C1663.97,-226.371 1684.63,-212.057 1702,-199 1723.89,-182.547 1748.32,-162.739 1764.56,-149.347"/>
<polygon fill="midnightblue" stroke="midnightblue" points="1767.21,-151.701 1772.68,-142.629 1762.75,-146.308 1767.21,-151.701"/>
</g>
<!-- Node17&#45;&gt;Node12 -->
<g id="edge29" class="edge"><title>Node17&#45;&gt;Node12</title>
<path fill="none" stroke="midnightblue" d="M1594.68,-235.488C1461.96,-209.438 1066.48,-132.021 1008,-123 859.289,-100.059 680.339,-82.2341 608.332,-75.4608"/>
<polygon fill="midnightblue" stroke="midnightblue" points="608.389,-71.951 598.106,-74.5059 607.738,-78.9207 608.389,-71.951"/>
</g>
<!-- Node17&#45;&gt;Node16 -->
<g id="edge30" class="edge"><title>Node17&#45;&gt;Node16</title>
<path fill="none" stroke="midnightblue" d="M1639.58,-254.658C1638.34,-261.881 1634.79,-272.519 1630.61,-282.199"/>
<polygon fill="midnightblue" stroke="midnightblue" points="1627.38,-280.86 1626.29,-291.399 1633.71,-283.837 1627.38,-280.86"/>
</g>
<!-- Node17&#45;&gt;Node18 -->
<g id="edge27" class="edge"><title>Node17&#45;&gt;Node18</title>
<path fill="none" stroke="midnightblue" d="M1642.46,-235.083C1646.15,-227.691 1651.52,-216.953 1656.09,-207.811"/>
<polygon fill="midnightblue" stroke="midnightblue" points="1659.28,-209.261 1660.62,-198.751 1653.02,-206.13 1659.28,-209.261"/>
</g>
<!-- Node17&#45;&gt;Node19 -->
<g id="edge28" class="edge"><title>Node17&#45;&gt;Node19</title>
<path fill="none" stroke="midnightblue" d="M1700.32,-235.981C1703.26,-235.641 1706.16,-235.312 1709,-235 1877.3,-216.498 2079.14,-199.303 2158.05,-192.773"/>
<polygon fill="midnightblue" stroke="midnightblue" points="2158.67,-196.234 2168.35,-191.923 2158.1,-189.257 2158.67,-196.234"/>
</g>
<!-- Node20&#45;&gt;Node2 -->
<g id="edge32" class="edge"><title>Node20&#45;&gt;Node2</title>
<path fill="none" stroke="midnightblue" d="M2635.87,-235.394C2579.79,-213.847 2427.21,-156.887 2296,-123 2229.33,-105.781 2152.05,-92.0538 2096.77,-83.2832"/>
<polygon fill="midnightblue" stroke="midnightblue" points="2097.13,-79.7974 2086.71,-81.7035 2096.05,-86.7126 2097.13,-79.7974"/>
</g>
<!-- Node20&#45;&gt;Node10 -->
<g id="edge33" class="edge"><title>Node20&#45;&gt;Node10</title>
<path fill="none" stroke="midnightblue" d="M2606.33,-235.459C2525.11,-222.213 2362.52,-196.431 2224,-179 2092.52,-162.456 1938.41,-147.81 1851.59,-139.992"/>
<polygon fill="midnightblue" stroke="midnightblue" points="1851.87,-136.504 1841.59,-139.096 1851.24,-143.476 1851.87,-136.504"/>
</g>
<!-- Node20&#45;&gt;Node13 -->
<g id="edge36" class="edge"><title>Node20&#45;&gt;Node13</title>
<path fill="none" stroke="midnightblue" d="M2661.98,-235.297C2671.9,-214.246 2699.43,-159.616 2734,-123 2747.76,-108.427 2766.3,-95.4109 2780.98,-86.2442"/>
<polygon fill="midnightblue" stroke="midnightblue" points="2782.81,-89.2295 2789.54,-81.0545 2779.18,-83.2424 2782.81,-89.2295"/>
</g>
<!-- Node20&#45;&gt;Node14 -->
<g id="edge34" class="edge"><title>Node20&#45;&gt;Node14</title>
<path fill="none" stroke="midnightblue" d="M2651.92,-235.282C2635.67,-212.703 2588.72,-152.063 2534,-123 2465.75,-86.7524 2374.01,-76.4964 2324.41,-73.612"/>
<polygon fill="midnightblue" stroke="midnightblue" points="2324.36,-70.1052 2314.19,-73.0888 2324,-77.096 2324.36,-70.1052"/>
</g>
<!-- Node20&#45;&gt;Node19 -->
<g id="edge35" class="edge"><title>Node20&#45;&gt;Node19</title>
<path fill="none" stroke="midnightblue" d="M2596.44,-236.099C2593.25,-235.72 2590.09,-235.351 2587,-235 2428.55,-216.971 2387.27,-225.434 2230,-199 2228.54,-198.754 2227.05,-198.485 2225.55,-198.197"/>
<polygon fill="midnightblue" stroke="midnightblue" points="2226.13,-194.743 2215.62,-196.103 2224.68,-201.592 2226.13,-194.743"/>
</g>
<!-- Node21&#45;&gt;Node2 -->
<g id="edge38" class="edge"><title>Node21&#45;&gt;Node2</title>
<path fill="none" stroke="midnightblue" d="M1310.28,-126.798C1456.43,-115.664 1798.47,-89.6056 1949.31,-78.1138"/>
<polygon fill="midnightblue" stroke="midnightblue" points="1949.7,-81.5947 1959.4,-77.3451 1949.17,-74.6149 1949.7,-81.5947"/>
</g>
<!-- Node21&#45;&gt;Node8 -->
<g id="edge39" class="edge"><title>Node21&#45;&gt;Node8</title>
<path fill="none" stroke="midnightblue" d="M1294.44,-123.475C1363.77,-112.204 1485.26,-92.4529 1554.92,-81.1298"/>
<polygon fill="midnightblue" stroke="midnightblue" points="1555.49,-84.5817 1564.8,-79.5224 1554.37,-77.6724 1555.49,-84.5817"/>
</g>
<!-- Node21&#45;&gt;Node11 -->
<g id="edge40" class="edge"><title>Node21&#45;&gt;Node11</title>
<path fill="none" stroke="midnightblue" d="M1235.12,-123.475C1227.85,-114.462 1216.2,-100.025 1207.16,-88.8118"/>
<polygon fill="midnightblue" stroke="midnightblue" points="1209.87,-86.5946 1200.86,-81.0091 1204.42,-90.9898 1209.87,-86.5946"/>
</g>
<!-- Node21&#45;&gt;Node12 -->
<g id="edge41" class="edge"><title>Node21&#45;&gt;Node12</title>
<path fill="none" stroke="midnightblue" d="M1173.86,-125.912C1032.33,-113.268 711.188,-84.5776 608.335,-75.3888"/>
<polygon fill="midnightblue" stroke="midnightblue" points="608.524,-71.8919 598.253,-74.488 607.902,-78.8641 608.524,-71.8919"/>
</g>
<!-- Node27&#45;&gt;Node12 -->
<g id="edge119" class="edge"><title>Node27&#45;&gt;Node12</title>
<path fill="none" stroke="midnightblue" d="M155.128,-772.398C110.253,-758.997 38,-728.493 38,-671 38,-671 38,-671 38,-188 38,-153.844 49.9649,-140.988 79,-123 157.08,-74.6266 446.183,-71.7294 543.665,-72.1706"/>
<polygon fill="midnightblue" stroke="midnightblue" points="543.778,-75.6713 553.799,-72.2321 543.82,-68.6714 543.778,-75.6713"/>
</g>
<!-- Node28 -->
<g id="node28" class="node"><title>Node28</title>
<g id="a_node28"><a xlink:href="ir_2attrs_8h.html" target="_top" xlink:title="Helpers for attribute objects. ">
<polygon fill="white" stroke="red" points="773.5,-537.5 773.5,-556.5 852.5,-556.5 852.5,-537.5 773.5,-537.5"/>
<text text-anchor="middle" x="813" y="-544.5" font-family="Helvetica,sans-Serif" font-size="10.00">tvm/ir/attrs.h</text>
</a>
</g>
</g>
<!-- Node27&#45;&gt;Node28 -->
<g id="edge58" class="edge"><title>Node27&#45;&gt;Node28</title>
<path fill="none" stroke="midnightblue" d="M189.552,-772.471C188.48,-742.224 189.353,-639.415 247,-593 286.761,-560.987 632.744,-551.318 763.362,-548.793"/>
<polygon fill="midnightblue" stroke="midnightblue" points="763.558,-552.291 773.49,-548.604 763.426,-545.292 763.558,-552.291"/>
</g>
<!-- Node34 -->
<g id="node34" class="node"><title>Node34</title>
<g id="a_node34"><a xlink:href="base_8h.html" target="_top" xlink:title="Base classes for the Relay IR. ">
<polygon fill="white" stroke="red" points="256.5,-599 256.5,-618 353.5,-618 353.5,-599 256.5,-599"/>
<text text-anchor="middle" x="305" y="-606" font-family="Helvetica,sans-Serif" font-size="10.00">tvm/relay/base.h</text>
</a>
</g>
</g>
<!-- Node27&#45;&gt;Node34 -->
<g id="edge90" class="edge"><title>Node27&#45;&gt;Node34</title>
<path fill="none" stroke="midnightblue" d="M195.861,-772.26C214.012,-745.191 269.519,-662.413 293.626,-626.462"/>
<polygon fill="midnightblue" stroke="midnightblue" points="296.625,-628.274 299.287,-618.019 290.811,-624.376 296.625,-628.274"/>
</g>
<!-- Node27&#45;&gt;Node35 -->
<g id="edge93" class="edge"><title>Node27&#45;&gt;Node35</title>
<path fill="none" stroke="midnightblue" d="M238.487,-772.444C292.857,-762.849 380.957,-747.302 438.689,-737.114"/>
<polygon fill="midnightblue" stroke="midnightblue" points="439.506,-740.524 448.746,-735.339 438.29,-733.63 439.506,-740.524"/>
</g>
<!-- Node28&#45;&gt;Node11 -->
<g id="edge87" class="edge"><title>Node28&#45;&gt;Node11</title>
<path fill="none" stroke="midnightblue" d="M813.276,-537.426C813.296,-521.854 811.044,-488.802 793,-470 755.329,-430.745 715.518,-471.394 676,-434 653.632,-412.834 652,-399.795 652,-369 652,-369 652,-369 652,-305.5 652,-89.5672 1019.58,-71.2676 1149.32,-71.5335"/>
<polygon fill="midnightblue" stroke="midnightblue" points="1149.66,-75.0356 1159.68,-71.596 1149.71,-68.0357 1149.66,-75.0356"/>
</g>
<!-- Node28&#45;&gt;Node12 -->
<g id="edge88" class="edge"><title>Node28&#45;&gt;Node12</title>
<path fill="none" stroke="midnightblue" d="M773.476,-543.989C704.438,-539.802 565.459,-528.179 526,-501 418.45,-426.92 380,-376.595 380,-246 380,-246 380,-246 380,-188 380,-157.205 381.496,-144.021 404,-123 442.667,-86.8817 505.837,-76.4639 543.909,-73.5403"/>
<polygon fill="midnightblue" stroke="midnightblue" points="544.185,-77.03 553.941,-72.8993 543.738,-70.0442 544.185,-77.03"/>
</g>
<!-- Node28&#45;&gt;Node13 -->
<g id="edge89" class="edge"><title>Node28&#45;&gt;Node13</title>
<path fill="none" stroke="midnightblue" d="M852.573,-545.751C969.11,-544.593 1320.98,-538.044 1610,-501 1676.91,-492.424 2745.61,-296.226 2799,-255 2846.54,-218.29 2840.74,-181.7 2828,-123 2825.48,-111.401 2820.06,-99.2696 2815.11,-89.805"/>
<polygon fill="midnightblue" stroke="midnightblue" points="2818.17,-88.1014 2810.27,-81.0413 2812.04,-91.4868 2818.17,-88.1014"/>
</g>
<!-- Node28&#45;&gt;Node16 -->
<g id="edge84" class="edge"><title>Node28&#45;&gt;Node16</title>
<path fill="none" stroke="midnightblue" d="M852.819,-538.353C899.398,-529.062 973.405,-513.128 999,-501 1056.92,-473.556 1057.77,-444.744 1114,-414 1177.17,-379.463 1196.21,-375.696 1266,-358 1362.58,-333.51 1477.41,-319.748 1548.25,-312.972"/>
<polygon fill="midnightblue" stroke="midnightblue" points="1548.75,-316.441 1558.38,-312.022 1548.1,-309.471 1548.75,-316.441"/>
</g>
<!-- Node28&#45;&gt;Node19 -->
<g id="edge85" class="edge"><title>Node28&#45;&gt;Node19</title>
<path fill="none" stroke="midnightblue" d="M852.767,-545.034C958.695,-542.107 1256.36,-531.584 1502,-501 1664.8,-480.73 1703.7,-463.941 1865,-434 1931.68,-421.623 2112.72,-421.195 2165,-378 2215.21,-336.521 2204.01,-247.144 2196.28,-208.465"/>
<polygon fill="midnightblue" stroke="midnightblue" points="2199.68,-207.626 2194.15,-198.587 2192.84,-209.1 2199.68,-207.626"/>
</g>
<!-- Node28&#45;&gt;Node22 -->
<g id="edge86" class="edge"><title>Node28&#45;&gt;Node22</title>
<path fill="none" stroke="midnightblue" d="M773.485,-544.752C707.98,-541.812 581.115,-532.147 551,-501 487.297,-435.114 503.2,-311.132 512.044,-264.426"/>
<polygon fill="midnightblue" stroke="midnightblue" points="515.495,-265.02 514.039,-254.525 508.633,-263.637 515.495,-265.02"/>
</g>
<!-- Node29 -->
<g id="node29" class="node"><title>Node29</title>
<polygon fill="white" stroke="#bfbfbf" points="560.5,-476 560.5,-495 655.5,-495 655.5,-476 560.5,-476"/>
<text text-anchor="middle" x="608" y="-483" font-family="Helvetica,sans-Serif" font-size="10.00">dmlc/common.h</text>
</g>
<!-- Node28&#45;&gt;Node29 -->
<g id="edge59" class="edge"><title>Node28&#45;&gt;Node29</title>
<path fill="none" stroke="midnightblue" d="M783.628,-537.475C747.703,-527.048 686.768,-509.362 646.956,-497.807"/>
<polygon fill="midnightblue" stroke="midnightblue" points="647.896,-494.435 637.317,-495.009 645.945,-501.158 647.896,-494.435"/>
</g>
<!-- Node30 -->
<g id="node30" class="node"><title>Node30</title>
<g id="a_node30"><a xlink:href="ir_2expr_8h.html" target="_top" xlink:title="Base expr nodes in TVM. ">
<polygon fill="white" stroke="red" points="1085.5,-476 1085.5,-495 1162.5,-495 1162.5,-476 1085.5,-476"/>
<text text-anchor="middle" x="1124" y="-483" font-family="Helvetica,sans-Serif" font-size="10.00">tvm/ir/expr.h</text>
</a>
</g>
</g>
<!-- Node28&#45;&gt;Node30 -->
<g id="edge60" class="edge"><title>Node28&#45;&gt;Node30</title>
<path fill="none" stroke="midnightblue" d="M852.704,-538.404C909.477,-527.542 1013.76,-507.591 1075.18,-495.841"/>
<polygon fill="midnightblue" stroke="midnightblue" points="1075.86,-499.274 1085.02,-493.957 1074.54,-492.399 1075.86,-499.274"/>
</g>
<!-- Node32 -->
<g id="node32" class="node"><title>Node32</title>
<g id="a_node32"><a xlink:href="structural__equal_8h.html" target="_top" xlink:title="Structural equality comparison. ">
<polygon fill="white" stroke="red" points="879.5,-470.5 879.5,-500.5 990.5,-500.5 990.5,-470.5 879.5,-470.5"/>
<text text-anchor="start" x="887.5" y="-488.5" font-family="Helvetica,sans-Serif" font-size="10.00">tvm/node/structural</text>
<text text-anchor="middle" x="935" y="-477.5" font-family="Helvetica,sans-Serif" font-size="10.00">_equal.h</text>
</a>
</g>
</g>
<!-- Node28&#45;&gt;Node32 -->
<g id="edge75" class="edge"><title>Node28&#45;&gt;Node32</title>
<path fill="none" stroke="midnightblue" d="M830.48,-537.475C847.775,-529.04 874.81,-515.855 897.051,-505.008"/>
<polygon fill="midnightblue" stroke="midnightblue" points="898.793,-508.052 906.247,-500.523 895.725,-501.761 898.793,-508.052"/>
</g>
<!-- Node33 -->
<g id="node33" class="node"><title>Node33</title>
<g id="a_node33"><a xlink:href="structural__hash_8h.html" target="_top" xlink:title="tvm/node/structural\l_hash.h">
<polygon fill="white" stroke="red" points="673.5,-470.5 673.5,-500.5 784.5,-500.5 784.5,-470.5 673.5,-470.5"/>
<text text-anchor="start" x="681.5" y="-488.5" font-family="Helvetica,sans-Serif" font-size="10.00">tvm/node/structural</text>
<text text-anchor="middle" x="729" y="-477.5" font-family="Helvetica,sans-Serif" font-size="10.00">_hash.h</text>
</a>
</g>
</g>
<!-- Node28&#45;&gt;Node33 -->
<g id="edge79" class="edge"><title>Node28&#45;&gt;Node33</title>
<path fill="none" stroke="midnightblue" d="M800.965,-537.475C789.588,-529.417 772.091,-517.023 757.199,-506.474"/>
<polygon fill="midnightblue" stroke="midnightblue" points="758.98,-503.447 748.797,-500.523 754.934,-509.159 758.98,-503.447"/>
</g>
<!-- Node30&#45;&gt;Node10 -->
<g id="edge61" class="edge"><title>Node30&#45;&gt;Node10</title>
<path fill="none" stroke="midnightblue" d="M1153.95,-475.944C1267.81,-443.392 1667.97,-328.757 1680,-322 1697.83,-311.985 1697.08,-302.479 1714,-291 1744.27,-270.469 1764.72,-283.211 1788,-255 1809.91,-228.444 1810.15,-212.679 1803,-179 1801,-169.591 1796.9,-159.762 1792.93,-151.698"/>
<polygon fill="midnightblue" stroke="midnightblue" points="1795.89,-149.81 1788.13,-142.593 1789.69,-153.072 1795.89,-149.81"/>
</g>
<!-- Node30&#45;&gt;Node11 -->
<g id="edge74" class="edge"><title>Node30&#45;&gt;Node11</title>
<path fill="none" stroke="midnightblue" d="M1116.05,-475.658C1083.5,-438.323 964.615,-290.369 1020,-179 1045.6,-127.514 1108.72,-98.4974 1151.46,-84.1584"/>
<polygon fill="midnightblue" stroke="midnightblue" points="1152.61,-87.4669 1161.05,-81.0711 1150.46,-80.8036 1152.61,-87.4669"/>
</g>
<!-- Node30&#45;&gt;Node12 -->
<g id="edge72" class="edge"><title>Node30&#45;&gt;Node12</title>
<path fill="none" stroke="midnightblue" d="M1107.29,-475.88C1072.8,-458.031 991.34,-415.552 924,-378 880.859,-353.943 868.049,-350.913 828,-322 791.491,-295.642 782.795,-287.853 752,-255 701.296,-200.907 703.95,-173.855 650,-123 634.91,-108.776 615.466,-95.6698 600.296,-86.3757"/>
<polygon fill="midnightblue" stroke="midnightblue" points="601.859,-83.2326 591.48,-81.1055 598.268,-89.2409 601.859,-83.2326"/>
</g>
<!-- Node30&#45;&gt;Node24 -->
<g id="edge73" class="edge"><title>Node30&#45;&gt;Node24</title>
<path fill="none" stroke="midnightblue" d="M1120.72,-475.731C1116.16,-462.313 1108.99,-435.934 1114,-414 1127.48,-355.011 1164.44,-292.621 1183.42,-263.229"/>
<polygon fill="midnightblue" stroke="midnightblue" points="1186.54,-264.858 1189.11,-254.579 1180.69,-261.012 1186.54,-264.858"/>
</g>
<!-- Node31 -->
<g id="node31" class="node"><title>Node31</title>
<g id="a_node31"><a xlink:href="node_2container_8h.html" target="_top" xlink:title="Array/Map container in the DSL graph. ">
<polygon fill="white" stroke="red" points="1381.5,-414.5 1381.5,-433.5 1500.5,-433.5 1500.5,-414.5 1381.5,-414.5"/>
<text text-anchor="middle" x="1441" y="-421.5" font-family="Helvetica,sans-Serif" font-size="10.00">tvm/node/container.h</text>
</a>
</g>
</g>
<!-- Node30&#45;&gt;Node31 -->
<g id="edge62" class="edge"><title>Node30&#45;&gt;Node31</title>
<path fill="none" stroke="midnightblue" d="M1162.55,-477.264C1218.31,-466.798 1321.76,-447.381 1385.66,-435.387"/>
<polygon fill="midnightblue" stroke="midnightblue" points="1386.38,-438.813 1395.56,-433.528 1385.09,-431.933 1386.38,-438.813"/>
</g>
<!-- Node31&#45;&gt;Node7 -->
<g id="edge66" class="edge"><title>Node31&#45;&gt;Node7</title>
<path fill="none" stroke="midnightblue" d="M1500.62,-417.092C1600.12,-407.234 1799.9,-387.439 1909.59,-376.571"/>
<polygon fill="midnightblue" stroke="midnightblue" points="1909.98,-380.049 1919.59,-375.58 1909.29,-373.083 1909.98,-380.049"/>
</g>
<!-- Node31&#45;&gt;Node9 -->
<g id="edge64" class="edge"><title>Node31&#45;&gt;Node9</title>
<path fill="none" stroke="midnightblue" d="M1442.37,-414.495C1446.92,-387.476 1462.72,-301.464 1490,-235 1493.94,-225.401 1499.59,-215.345 1504.61,-207.18"/>
<polygon fill="midnightblue" stroke="midnightblue" points="1507.66,-208.916 1510.09,-198.604 1501.76,-205.15 1507.66,-208.916"/>
</g>
<!-- Node31&#45;&gt;Node10 -->
<g id="edge63" class="edge"><title>Node31&#45;&gt;Node10</title>
<path fill="none" stroke="midnightblue" d="M1471.07,-414.46C1522.43,-399.312 1629.68,-365.223 1714,-322 1735.94,-310.754 1738.46,-302.991 1760,-291 1794.07,-272.037 1818.83,-287.742 1840,-255 1858.34,-226.635 1854.73,-209.397 1840,-179 1833.6,-165.8 1821.25,-155.303 1809.67,-147.779"/>
<polygon fill="midnightblue" stroke="midnightblue" points="1811.45,-144.768 1801.08,-142.61 1807.84,-150.765 1811.45,-144.768"/>
</g>
<!-- Node31&#45;&gt;Node11 -->
<g id="edge67" class="edge"><title>Node31&#45;&gt;Node11</title>
<path fill="none" stroke="midnightblue" d="M1406.05,-414.477C1343.31,-397.01 1213.59,-350.492 1165,-255 1138.4,-202.713 1149.88,-179.685 1165,-123 1168.2,-110.985 1175.02,-98.8572 1181.25,-89.4993"/>
<polygon fill="midnightblue" stroke="midnightblue" points="1184.21,-91.3624 1187.11,-81.1713 1178.49,-87.3315 1184.21,-91.3624"/>
</g>
<!-- Node31&#45;&gt;Node12 -->
<g id="edge71" class="edge"><title>Node31&#45;&gt;Node12</title>
<path fill="none" stroke="midnightblue" d="M1392.07,-414.467C1356.47,-407.281 1307.59,-395.364 1267,-378 1217.59,-356.864 906.166,-142.277 856,-123 770.374,-90.0963 661.633,-78.3558 608.372,-74.3891"/>
<polygon fill="midnightblue" stroke="midnightblue" points="608.4,-70.8826 598.18,-73.6756 607.911,-77.8655 608.4,-70.8826"/>
</g>
<!-- Node31&#45;&gt;Node13 -->
<g id="edge70" class="edge"><title>Node31&#45;&gt;Node13</title>
<path fill="none" stroke="midnightblue" d="M1500.61,-421.995C1646.91,-419.063 2015.15,-408.688 2061,-378 2142.93,-323.166 2079.89,-237.835 2159,-179 2258.51,-104.989 2657.74,-79.7711 2773.43,-73.9387"/>
<polygon fill="midnightblue" stroke="midnightblue" points="2773.91,-77.4197 2783.72,-73.4338 2773.56,-70.4281 2773.91,-77.4197"/>
</g>
<!-- Node31&#45;&gt;Node16 -->
<g id="edge65" class="edge"><title>Node31&#45;&gt;Node16</title>
<path fill="none" stroke="midnightblue" d="M1454.08,-414.319C1481.74,-395.96 1546.76,-352.796 1585.15,-327.312"/>
<polygon fill="midnightblue" stroke="midnightblue" points="1587.44,-329.992 1593.84,-321.545 1583.57,-324.16 1587.44,-329.992"/>
</g>
<!-- Node31&#45;&gt;Node19 -->
<g id="edge68" class="edge"><title>Node31&#45;&gt;Node19</title>
<path fill="none" stroke="midnightblue" d="M1500.78,-415.233C1575.4,-405.214 1695.53,-387.903 1714,-378 1760.56,-353.032 1749.55,-317.94 1795,-291 1810.98,-281.528 2065.35,-220.234 2158.31,-198.022"/>
<polygon fill="midnightblue" stroke="midnightblue" points="2159.41,-201.359 2168.32,-195.633 2157.78,-194.551 2159.41,-201.359"/>
</g>
<!-- Node31&#45;&gt;Node26 -->
<g id="edge69" class="edge"><title>Node31&#45;&gt;Node26</title>
<path fill="none" stroke="midnightblue" d="M1500.74,-415.593C1599.64,-403.29 1786.89,-379.808 1790,-378 1810.82,-365.878 1826.07,-342.025 1834.73,-325.44"/>
<polygon fill="midnightblue" stroke="midnightblue" points="1837.99,-326.741 1839.26,-316.223 1831.71,-323.653 1837.99,-326.741"/>
</g>
<!-- Node32&#45;&gt;Node12 -->
<g id="edge78" class="edge"><title>Node32&#45;&gt;Node12</title>
<path fill="none" stroke="midnightblue" d="M919.599,-470.277C882.249,-435.422 784.725,-342.215 714,-255 695.055,-231.638 692.477,-224.163 676,-199 654.114,-165.578 653.173,-154.022 628,-123 617.739,-110.354 604.564,-97.5894 594.044,-88.0569"/>
<polygon fill="midnightblue" stroke="midnightblue" points="596.085,-85.1886 586.282,-81.1692 591.439,-90.4244 596.085,-85.1886"/>
</g>
<!-- Node32&#45;&gt;Node21 -->
<g id="edge76" class="edge"><title>Node32&#45;&gt;Node21</title>
<path fill="none" stroke="midnightblue" d="M947.415,-470.326C996.277,-414.54 1175.21,-210.255 1227.54,-150.514"/>
<polygon fill="midnightblue" stroke="midnightblue" points="1230.35,-152.612 1234.31,-142.783 1225.09,-147.999 1230.35,-152.612"/>
</g>
<!-- Node32&#45;&gt;Node31 -->
<g id="edge77" class="edge"><title>Node32&#45;&gt;Node31</title>
<path fill="none" stroke="midnightblue" d="M990.598,-477.962C1083.43,-467.047 1269.77,-445.134 1371.26,-433.201"/>
<polygon fill="midnightblue" stroke="midnightblue" points="1371.88,-436.652 1381.4,-432.008 1371.06,-429.7 1371.88,-436.652"/>
</g>
<!-- Node33&#45;&gt;Node12 -->
<g id="edge82" class="edge"><title>Node33&#45;&gt;Node12</title>
<path fill="none" stroke="midnightblue" d="M687.368,-470.411C669.631,-462.388 650.246,-450.562 638,-434 557.78,-325.504 567.883,-148.938 573.744,-91.327"/>
<polygon fill="midnightblue" stroke="midnightblue" points="577.246,-91.4983 574.864,-81.1748 570.289,-90.7306 577.246,-91.4983"/>
</g>
<!-- Node33&#45;&gt;Node21 -->
<g id="edge80" class="edge"><title>Node33&#45;&gt;Node21</title>
<path fill="none" stroke="midnightblue" d="M749.746,-470.326C832.315,-413.912 1137.16,-205.631 1220.71,-148.549"/>
<polygon fill="midnightblue" stroke="midnightblue" points="1222.86,-151.314 1229.14,-142.783 1218.91,-145.535 1222.86,-151.314"/>
</g>
<!-- Node33&#45;&gt;Node22 -->
<g id="edge83" class="edge"><title>Node33&#45;&gt;Node22</title>
<path fill="none" stroke="midnightblue" d="M678.108,-470.441C645.127,-460.418 606.13,-446.551 594,-434 547.411,-385.794 575.517,-351.193 546,-291 541.194,-281.2 534.567,-271.021 528.763,-262.828"/>
<polygon fill="midnightblue" stroke="midnightblue" points="531.433,-260.549 522.702,-254.548 525.784,-264.684 531.433,-260.549"/>
</g>
<!-- Node33&#45;&gt;Node31 -->
<g id="edge81" class="edge"><title>Node33&#45;&gt;Node31</title>
<path fill="none" stroke="midnightblue" d="M784.554,-478.479C810.501,-475.745 841.816,-472.559 870,-470 1050.6,-453.6 1263.66,-437.729 1371.28,-429.957"/>
<polygon fill="midnightblue" stroke="midnightblue" points="1371.64,-433.44 1381.36,-429.23 1371.14,-426.458 1371.64,-433.44"/>
</g>
<!-- Node34&#45;&gt;Node12 -->
<g id="edge91" class="edge"><title>Node34&#45;&gt;Node12</title>
<path fill="none" stroke="midnightblue" d="M297.096,-598.712C271.114,-568.88 190,-467.832 190,-369 190,-369 190,-369 190,-188 190,-157.205 190.013,-142.312 214,-123 264.393,-82.4278 464.177,-74.4493 543.394,-72.8822"/>
<polygon fill="midnightblue" stroke="midnightblue" points="543.807,-76.3756 553.744,-72.7009 543.684,-69.3767 543.807,-76.3756"/>
</g>
<!-- Node34&#45;&gt;Node19 -->
<g id="edge92" class="edge"><title>Node34&#45;&gt;Node19</title>
<path fill="none" stroke="midnightblue" d="M353.503,-604.538C450.295,-598.31 674.187,-582.307 861,-557 999.74,-538.205 1033.44,-527.057 1171,-501 1175.7,-500.109 1504.49,-435.596 1509,-434 1526.99,-427.634 1528.82,-419.804 1547,-414 1661.49,-377.452 1701.04,-416.164 1815,-378 1937.84,-336.861 1951.34,-289.211 2069,-235 2098.59,-221.369 2133.58,-208.901 2158.66,-200.564"/>
<polygon fill="midnightblue" stroke="midnightblue" points="2160.01,-203.804 2168.42,-197.361 2157.83,-197.153 2160.01,-203.804"/>
</g>
<!-- Node35&#45;&gt;Node12 -->
<g id="edge112" class="edge"><title>Node35&#45;&gt;Node12</title>
<path fill="none" stroke="midnightblue" d="M448.89,-722.148C354.677,-713.633 152,-679.978 152,-548 152,-548 152,-548 152,-188 152,-153.844 164.236,-141.419 193,-123 250.972,-85.876 462.248,-75.8179 543.686,-73.2896"/>
<polygon fill="midnightblue" stroke="midnightblue" points="543.95,-76.7835 553.844,-72.9929 543.746,-69.7865 543.95,-76.7835"/>
</g>
<!-- Node35&#45;&gt;Node22 -->
<g id="edge113" class="edge"><title>Node35&#45;&gt;Node22</title>
<path fill="none" stroke="midnightblue" d="M448.935,-720.885C369.61,-711.471 220.382,-681.815 247,-593 292.81,-440.143 443.585,-305.238 497.018,-261.143"/>
<polygon fill="midnightblue" stroke="midnightblue" points="499.462,-263.667 505.002,-254.636 495.04,-258.241 499.462,-263.667"/>
</g>
<!-- Node35&#45;&gt;Node28 -->
<g id="edge94" class="edge"><title>Node35&#45;&gt;Node28</title>
<path fill="none" stroke="midnightblue" d="M485.25,-716.127C471.894,-703.956 451.805,-681.173 460,-660 474.535,-622.444 485.517,-612.044 521,-593 561.923,-571.037 691.068,-557.629 763.141,-551.662"/>
<polygon fill="midnightblue" stroke="midnightblue" points="763.659,-555.132 773.344,-550.836 763.094,-548.155 763.659,-555.132"/>
</g>
<!-- Node35&#45;&gt;Node30 -->
<g id="edge95" class="edge"><title>Node35&#45;&gt;Node30</title>
<path fill="none" stroke="midnightblue" d="M508.487,-716.294C528.12,-702.885 567.719,-676.955 604,-660 773.119,-580.969 988.352,-521.19 1079.75,-497.557"/>
<polygon fill="midnightblue" stroke="midnightblue" points="1080.68,-500.931 1089.5,-495.053 1078.94,-494.151 1080.68,-500.931"/>
</g>
<!-- Node35&#45;&gt;Node34 -->
<g id="edge114" class="edge"><title>Node35&#45;&gt;Node34</title>
<path fill="none" stroke="midnightblue" d="M455.833,-716.428C429.338,-709.489 394.721,-697.883 368,-680 346.562,-665.652 327.703,-642.352 316.335,-626.497"/>
<polygon fill="midnightblue" stroke="midnightblue" points="319.12,-624.371 310.545,-618.147 313.367,-628.359 319.12,-624.371"/>
</g>
<!-- Node36 -->
<g id="node36" class="node"><title>Node36</title>
<g id="a_node36"><a xlink:href="ir_2op_8h.html" target="_top" xlink:title="Primitive operators(builtin intrinsics) and registry for them. ">
<polygon fill="white" stroke="red" points="921,-599 921,-618 989,-618 989,-599 921,-599"/>
<text text-anchor="middle" x="955" y="-606" font-family="Helvetica,sans-Serif" font-size="10.00">tvm/ir/op.h</text>
</a>
</g>
</g>
<!-- Node35&#45;&gt;Node36 -->
<g id="edge96" class="edge"><title>Node35&#45;&gt;Node36</title>
<path fill="none" stroke="midnightblue" d="M515.12,-716.462C547.002,-702.563 613.323,-675.085 672,-660 776.037,-633.253 806.505,-648.899 911,-624 914.469,-623.173 918.057,-622.198 921.618,-621.15"/>
<polygon fill="midnightblue" stroke="midnightblue" points="922.964,-624.396 931.462,-618.069 920.873,-617.716 922.964,-624.396"/>
</g>
<!-- Node37 -->
<g id="node37" class="node"><title>Node37</title>
<g id="a_node37"><a xlink:href="ir_2module_8h.html" target="_top" xlink:title="IRModule that holds the functions and type definitions. ">
<polygon fill="white" stroke="red" points="1246,-660.5 1246,-679.5 1338,-679.5 1338,-660.5 1246,-660.5"/>
<text text-anchor="middle" x="1292" y="-667.5" font-family="Helvetica,sans-Serif" font-size="10.00">tvm/ir/module.h</text>
</a>
</g>
</g>
<!-- Node35&#45;&gt;Node37 -->
<g id="edge102" class="edge"><title>Node35&#45;&gt;Node37</title>
<path fill="none" stroke="midnightblue" d="M543.115,-721.804C681.403,-712.422 1085.81,-684.988 1235.46,-674.836"/>
<polygon fill="midnightblue" stroke="midnightblue" points="1236.05,-678.304 1245.79,-674.135 1235.57,-671.32 1236.05,-678.304"/>
</g>
<!-- Node39 -->
<g id="node39" class="node"><title>Node39</title>
<g id="a_node39"><a xlink:href="relay_2type_8h.html" target="_top" xlink:title="Relay typed AST nodes. ">
<polygon fill="white" stroke="red" points="469.5,-660.5 469.5,-679.5 522.5,-679.5 522.5,-660.5 469.5,-660.5"/>
<text text-anchor="middle" x="496" y="-667.5" font-family="Helvetica,sans-Serif" font-size="10.00">./type.h</text>
</a>
</g>
</g>
<!-- Node35&#45;&gt;Node39 -->
<g id="edge115" class="edge"><title>Node35&#45;&gt;Node39</title>
<path fill="none" stroke="midnightblue" d="M496,-716.083C496,-709.006 496,-698.861 496,-689.986"/>
<polygon fill="midnightblue" stroke="midnightblue" points="499.5,-689.751 496,-679.751 492.5,-689.751 499.5,-689.751"/>
</g>
<!-- Node36&#45;&gt;Node12 -->
<g id="edge99" class="edge"><title>Node36&#45;&gt;Node12</title>
<path fill="none" stroke="midnightblue" d="M930.473,-598.902C924.167,-596.834 917.365,-594.726 911,-593 722.795,-541.966 650.246,-599.585 482,-501 362.75,-431.125 304,-384.214 304,-246 304,-246 304,-246 304,-188 304,-157.205 304.626,-143.05 328,-123 360.091,-95.4733 484.082,-80.7943 543.668,-75.2024"/>
<polygon fill="midnightblue" stroke="midnightblue" points="544.029,-78.6841 553.67,-74.2926 543.394,-71.7129 544.029,-78.6841"/>
</g>
<!-- Node36&#45;&gt;Node13 -->
<g id="edge100" class="edge"><title>Node36&#45;&gt;Node13</title>
<path fill="none" stroke="midnightblue" d="M989.107,-607.193C1155.86,-605.511 1886.32,-596.008 2110,-557 2157.7,-548.682 2649.13,-409.91 2865,-322 2933.85,-293.962 3014,-320.339 3014,-246 3014,-246 3014,-246 3014,-188 3014,-107.798 2894.64,-82.8533 2836.33,-75.452"/>
<polygon fill="midnightblue" stroke="midnightblue" points="2836.53,-71.9519 2826.19,-74.2648 2835.72,-78.9044 2836.53,-71.9519"/>
</g>
<!-- Node36&#45;&gt;Node19 -->
<g id="edge101" class="edge"><title>Node36&#45;&gt;Node19</title>
<path fill="none" stroke="midnightblue" d="M989.285,-602.044C1046.88,-592.86 1166.71,-573.683 1268,-557 1320.92,-548.284 1334.08,-545.718 1387,-537 1647.06,-494.156 1713.68,-491.01 1971,-434 2068.25,-412.455 2110.99,-441.174 2188,-378 2238.07,-336.924 2231.71,-297.829 2216,-235 2213.56,-225.245 2208.56,-215.29 2203.76,-207.231"/>
<polygon fill="midnightblue" stroke="midnightblue" points="2206.69,-205.322 2198.37,-198.768 2200.79,-209.083 2206.69,-205.322"/>
</g>
<!-- Node36&#45;&gt;Node28 -->
<g id="edge97" class="edge"><title>Node36&#45;&gt;Node28</title>
<path fill="none" stroke="midnightblue" d="M934.655,-598.975C910.613,-588.901 870.403,-572.053 842.837,-560.502"/>
<polygon fill="midnightblue" stroke="midnightblue" points="843.883,-557.146 833.307,-556.509 841.178,-563.602 843.883,-557.146"/>
</g>
<!-- Node36&#45;&gt;Node30 -->
<g id="edge98" class="edge"><title>Node36&#45;&gt;Node30</title>
<path fill="none" stroke="midnightblue" d="M975.075,-598.971C995.188,-589.969 1026.58,-574.657 1051,-557 1073.41,-540.796 1095.77,-517.965 1109.73,-502.721"/>
<polygon fill="midnightblue" stroke="midnightblue" points="1112.48,-504.898 1116.57,-495.123 1107.28,-500.217 1112.48,-504.898"/>
</g>
<!-- Node37&#45;&gt;Node12 -->
<g id="edge110" class="edge"><title>Node37&#45;&gt;Node12</title>
<path fill="none" stroke="midnightblue" d="M1245.71,-666.97C1139.59,-661.962 881.471,-647.681 798,-624 680.02,-590.529 625.741,-598.229 551,-501 492.938,-425.468 551.313,-375.855 508,-291 498.132,-271.668 482.869,-275.229 475,-255 471.778,-246.716 472.56,-243.547 475,-235 491.948,-175.627 537.534,-116.801 561.234,-89.0314"/>
<polygon fill="midnightblue" stroke="midnightblue" points="564.172,-90.9867 568.096,-81.1451 558.891,-86.3918 564.172,-90.9867"/>
</g>
<!-- Node37&#45;&gt;Node19 -->
<g id="edge111" class="edge"><title>Node37&#45;&gt;Node19</title>
<path fill="none" stroke="midnightblue" d="M1338.18,-669.23C1515.68,-669.783 2147.86,-668.579 2225,-624 2362.98,-544.256 2395.71,-445.841 2358,-291 2351.37,-263.768 2350.34,-253.167 2329,-235 2327.97,-234.121 2265.54,-213.807 2225.32,-200.776"/>
<polygon fill="midnightblue" stroke="midnightblue" points="2226.22,-197.388 2215.63,-197.637 2224.06,-204.047 2226.22,-197.388"/>
</g>
<!-- Node37&#45;&gt;Node30 -->
<g id="edge103" class="edge"><title>Node37&#45;&gt;Node30</title>
<path fill="none" stroke="midnightblue" d="M1283.9,-660.198C1257.45,-631.469 1173.39,-540.148 1138.94,-502.729"/>
<polygon fill="midnightblue" stroke="midnightblue" points="1141.37,-500.201 1132.02,-495.214 1136.22,-504.942 1141.37,-500.201"/>
</g>
<!-- Node38 -->
<g id="node38" class="node"><title>Node38</title>
<g id="a_node38"><a xlink:href="ir_2function_8h.html" target="_top" xlink:title="Function nodes. ">
<polygon fill="white" stroke="black" points="807.5,-599 807.5,-618 902.5,-618 902.5,-599 807.5,-599"/>
<text text-anchor="middle" x="855" y="-606" font-family="Helvetica,sans-Serif" font-size="10.00">tvm/ir/function.h</text>
</a>
</g>
</g>
<!-- Node37&#45;&gt;Node38 -->
<g id="edge104" class="edge"><title>Node37&#45;&gt;Node38</title>
<path fill="none" stroke="midnightblue" d="M1245.79,-665.496C1173.96,-659.609 1031.37,-646.152 912,-624 906.604,-622.999 900.961,-621.778 895.412,-620.476"/>
<polygon fill="midnightblue" stroke="midnightblue" points="896.147,-617.052 885.602,-618.071 894.481,-623.851 896.147,-617.052"/>
</g>
<!-- Node38&#45;&gt;Node7 -->
<g id="edge107" class="edge"><title>Node38&#45;&gt;Node7</title>
<path fill="none" stroke="midnightblue" d="M885.3,-598.976C893.879,-596.785 903.261,-594.598 912,-593 1051.91,-567.407 1094.13,-599.065 1230,-557 1308.82,-532.598 1315.93,-496.693 1394,-470 1532.28,-422.723 1573.94,-438.544 1718,-414 1788.78,-401.94 1870.12,-388.315 1924.45,-379.248"/>
<polygon fill="midnightblue" stroke="midnightblue" points="1925.32,-382.652 1934.61,-377.554 1924.17,-375.747 1925.32,-382.652"/>
</g>
<!-- Node38&#45;&gt;Node11 -->
<g id="edge108" class="edge"><title>Node38&#45;&gt;Node11</title>
<path fill="none" stroke="midnightblue" d="M869.861,-598.867C903.714,-578.858 984.739,-528.893 999,-501 1076,-350.408 910.844,-228.552 1043,-123 1073.89,-98.3275 1117.4,-85.4609 1149.78,-78.9095"/>
<polygon fill="midnightblue" stroke="midnightblue" points="1150.7,-82.2977 1159.87,-76.9974 1149.4,-75.42 1150.7,-82.2977"/>
</g>
<!-- Node38&#45;&gt;Node12 -->
<g id="edge109" class="edge"><title>Node38&#45;&gt;Node12</title>
<path fill="none" stroke="midnightblue" d="M807.23,-603.44C741.36,-597.145 619.292,-582.958 518,-557 448.259,-539.128 423.844,-543.863 366,-501 306.865,-457.18 266,-442.601 266,-369 266,-369 266,-369 266,-188 266,-157.205 266.366,-142.743 290,-123 328.121,-91.1549 476.979,-78.4147 543.534,-74.235"/>
<polygon fill="midnightblue" stroke="midnightblue" points="544.079,-77.7087 553.851,-73.6148 543.659,-70.7213 544.079,-77.7087"/>
</g>
<!-- Node38&#45;&gt;Node28 -->
<g id="edge106" class="edge"><title>Node38&#45;&gt;Node28</title>
<path fill="none" stroke="midnightblue" d="M848.982,-598.975C842.745,-590.138 832.827,-576.089 824.982,-564.975"/>
<polygon fill="midnightblue" stroke="midnightblue" points="827.633,-562.66 819.006,-556.509 821.914,-566.697 827.633,-562.66"/>
</g>
<!-- Node38&#45;&gt;Node30 -->
<g id="edge105" class="edge"><title>Node38&#45;&gt;Node30</title>
<path fill="none" stroke="midnightblue" d="M873.916,-598.992C920.396,-578.084 1040.42,-524.096 1095.55,-499.298"/>
<polygon fill="midnightblue" stroke="midnightblue" points="1097.06,-502.455 1104.75,-495.161 1094.19,-496.071 1097.06,-502.455"/>
</g>
<!-- Node39&#45;&gt;Node12 -->
<g id="edge117" class="edge"><title>Node39&#45;&gt;Node12</title>
<path fill="none" stroke="midnightblue" d="M478.416,-660.365C418.793,-629.716 228,-519.853 228,-369 228,-369 228,-369 228,-188 228,-153.605 241.236,-141.859 270,-123 314.665,-93.7151 473.87,-79.4912 543.267,-74.5723"/>
<polygon fill="midnightblue" stroke="midnightblue" points="543.866,-78.0395 553.603,-73.8618 543.386,-71.0559 543.866,-78.0395"/>
</g>
<!-- Node39&#45;&gt;Node28 -->
<g id="edge116" class="edge"><title>Node39&#45;&gt;Node28</title>
<path fill="none" stroke="midnightblue" d="M500.4,-660.227C509.026,-644.022 529.801,-609.544 558,-593 591.975,-573.067 698.929,-559.337 763.026,-552.658"/>
<polygon fill="midnightblue" stroke="midnightblue" points="763.72,-556.106 773.313,-551.608 763.009,-549.142 763.72,-556.106"/>
</g>
<!-- Node39&#45;&gt;Node34 -->
<g id="edge118" class="edge"><title>Node39&#45;&gt;Node34</title>
<path fill="none" stroke="midnightblue" d="M469.442,-660.727C436.462,-650.453 379.993,-632.862 342.581,-621.207"/>
<polygon fill="midnightblue" stroke="midnightblue" points="343.158,-617.721 332.569,-618.088 341.076,-624.404 343.158,-617.721"/>
</g>
<!-- Node40&#45;&gt;Node7 -->
<g id="edge124" class="edge"><title>Node40&#45;&gt;Node7</title>
<path fill="none" stroke="midnightblue" d="M2005.14,-780.902C2136.75,-779.253 2472,-765.754 2472,-671 2472,-671 2472,-671 2472,-607.5 2472,-509.211 2147.59,-412.328 2028.87,-380.162"/>
<polygon fill="midnightblue" stroke="midnightblue" points="2029.59,-376.732 2019.02,-377.516 2027.77,-383.492 2029.59,-376.732"/>
</g>
<!-- Node40&#45;&gt;Node12 -->
<g id="edge131" class="edge"><title>Node40&#45;&gt;Node12</title>
<path fill="none" stroke="midnightblue" d="M1900.62,-777.154C1666.61,-759.669 723.321,-685.864 607,-624 425.854,-527.659 342,-451.172 342,-246 342,-246 342,-246 342,-188 342,-99.1346 479.38,-78.6408 543.613,-73.9156"/>
<polygon fill="midnightblue" stroke="midnightblue" points="544.233,-77.3828 553.986,-73.2436 543.78,-70.3975 544.233,-77.3828"/>
</g>
<!-- Node40&#45;&gt;Node13 -->
<g id="edge132" class="edge"><title>Node40&#45;&gt;Node13</title>
<path fill="none" stroke="midnightblue" d="M2005.14,-779.306C2112.27,-775.302 2353.62,-763.452 2431,-736 2602.99,-674.981 3090,-428.49 3090,-246 3090,-246 3090,-246 3090,-188 3090,-154.079 3077.78,-142.466 3050,-123 3015.76,-99.0104 2894.46,-82.5426 2836.41,-75.8505"/>
<polygon fill="midnightblue" stroke="midnightblue" points="2836.67,-72.3578 2826.34,-74.7151 2835.89,-79.3137 2836.67,-72.3578"/>
</g>
<!-- Node40&#45;&gt;Node31 -->
<g id="edge125" class="edge"><title>Node40&#45;&gt;Node31</title>
<path fill="none" stroke="midnightblue" d="M1952.57,-772.143C1951.91,-759.61 1950.45,-735.996 1948,-716 1942.15,-668.353 1930,-657.505 1930,-609.5 1930,-609.5 1930,-609.5 1930,-546 1930,-460.764 1646.5,-435.178 1511.22,-427.821"/>
<polygon fill="midnightblue" stroke="midnightblue" points="1511.13,-424.311 1500.96,-427.282 1510.76,-431.302 1511.13,-424.311"/>
</g>
<!-- Node40&#45;&gt;Node37 -->
<g id="edge130" class="edge"><title>Node40&#45;&gt;Node37</title>
<path fill="none" stroke="midnightblue" d="M1901.68,-772.46C1780.01,-752.211 1474.75,-701.412 1348.26,-680.363"/>
<polygon fill="midnightblue" stroke="midnightblue" points="1348.82,-676.908 1338.39,-678.719 1347.68,-683.813 1348.82,-676.908"/>
</g>
<!-- Node41 -->
<g id="node41" class="node"><title>Node41</title>
<g id="a_node41"><a xlink:href="with_8h.html" target="_top" xlink:title="RAII wrapper function to enter and exit a context object similar to python&#39;s with syntax...">
<polygon fill="white" stroke="black" points="2110,-476 2110,-495 2216,-495 2216,-476 2110,-476"/>
<text text-anchor="middle" x="2163" y="-483" font-family="Helvetica,sans-Serif" font-size="10.00">tvm/support/with.h</text>
</a>
</g>
</g>
<!-- Node40&#45;&gt;Node41 -->
<g id="edge121" class="edge"><title>Node40&#45;&gt;Node41</title>
<path fill="none" stroke="midnightblue" d="M1989.53,-772.443C2051.08,-755.83 2173.74,-712.769 2225,-624 2249.33,-581.87 2205.69,-528.474 2179.93,-502.351"/>
<polygon fill="midnightblue" stroke="midnightblue" points="2182.19,-499.666 2172.6,-495.162 2177.29,-504.663 2182.19,-499.666"/>
</g>
<!-- Node42 -->
<g id="node42" class="node"><title>Node42</title>
<g id="a_node42"><a xlink:href="error_8h.html" target="_top" xlink:title="Utilities for error tracking and reporting. ">
<polygon fill="white" stroke="red" points="1860.5,-716.5 1860.5,-735.5 1939.5,-735.5 1939.5,-716.5 1860.5,-716.5"/>
<text text-anchor="middle" x="1900" y="-723.5" font-family="Helvetica,sans-Serif" font-size="10.00">tvm/ir/error.h</text>
</a>
</g>
</g>
<!-- Node40&#45;&gt;Node42 -->
<g id="edge126" class="edge"><title>Node40&#45;&gt;Node42</title>
<path fill="none" stroke="midnightblue" d="M1944.25,-772.083C1936.53,-764.22 1925.1,-752.569 1915.78,-743.081"/>
<polygon fill="midnightblue" stroke="midnightblue" points="1918.09,-740.436 1908.59,-735.751 1913.1,-745.34 1918.09,-740.436"/>
</g>
<!-- Node41&#45;&gt;Node8 -->
<g id="edge122" class="edge"><title>Node41&#45;&gt;Node8</title>
<path fill="none" stroke="midnightblue" d="M2109.96,-479.947C1961.55,-466.073 1547.17,-419.211 1459,-322 1416.04,-274.629 1416.13,-237.034 1443,-179 1466.42,-128.408 1527.24,-98.9956 1568.13,-84.3471"/>
<polygon fill="midnightblue" stroke="midnightblue" points="1569.48,-87.5821 1577.8,-81.0212 1567.21,-80.9623 1569.48,-87.5821"/>
</g>
<!-- Node41&#45;&gt;Node13 -->
<g id="edge123" class="edge"><title>Node41&#45;&gt;Node13</title>
<path fill="none" stroke="midnightblue" d="M2193.08,-475.891C2325.93,-437.725 2854.58,-284.395 2876,-255 2910.55,-207.585 2902.9,-175.138 2876,-123 2867.39,-106.301 2850.41,-93.918 2835.22,-85.5937"/>
<polygon fill="midnightblue" stroke="midnightblue" points="2836.59,-82.3591 2826.09,-80.9329 2833.4,-88.5947 2836.59,-82.3591"/>
</g>
<!-- Node42&#45;&gt;Node12 -->
<g id="edge128" class="edge"><title>Node42&#45;&gt;Node12</title>
<path fill="none" stroke="midnightblue" d="M1860.44,-723.017C1662.93,-712.945 788.413,-666.273 675,-624 499.003,-558.4 491.413,-441.483 469,-255 461.551,-193.021 477.216,-171.105 517,-123 528.202,-109.456 543.294,-96.6107 555.41,-87.2648"/>
<polygon fill="midnightblue" stroke="midnightblue" points="557.707,-89.9172 563.608,-81.118 553.507,-84.3166 557.707,-89.9172"/>
</g>
<!-- Node42&#45;&gt;Node19 -->
<g id="edge129" class="edge"><title>Node42&#45;&gt;Node19</title>
<path fill="none" stroke="midnightblue" d="M1939.41,-716.467C2006.85,-701.331 2148.23,-667.258 2263,-624 2328.8,-599.199 2548,-556.819 2548,-486.5 2548,-486.5 2548,-486.5 2548,-367 2548,-261.976 2447.49,-278.731 2352,-235 2299.74,-211.064 2280.42,-215.679 2225.42,-200.484"/>
<polygon fill="midnightblue" stroke="midnightblue" points="2226.08,-197.033 2215.5,-197.639 2224.15,-203.761 2226.08,-197.033"/>
</g>
<!-- Node42&#45;&gt;Node37 -->
<g id="edge127" class="edge"><title>Node42&#45;&gt;Node37</title>
<path fill="none" stroke="midnightblue" d="M1860.24,-717.985C1855.45,-717.254 1850.62,-716.572 1846,-716 1664.71,-693.57 1448.61,-679.706 1348.31,-674.005"/>
<polygon fill="midnightblue" stroke="midnightblue" points="1348.28,-670.498 1338.1,-673.43 1347.89,-677.487 1348.28,-670.498"/>
</g>
<!-- Node43&#45;&gt;Node12 -->
<g id="edge137" class="edge"><title>Node43&#45;&gt;Node12</title>
<path fill="none" stroke="midnightblue" d="M512.753,-776.547C401.012,-766.522 156.922,-738.356 100,-680 76.8882,-656.306 76,-642.599 76,-609.5 76,-609.5 76,-609.5 76,-188 76,-157.205 75.6984,-141.915 100,-123 134.959,-95.7901 441.918,-78.8725 543.508,-73.9792"/>
<polygon fill="midnightblue" stroke="midnightblue" points="543.95,-77.4623 553.772,-73.4923 543.618,-70.4702 543.95,-77.4623"/>
</g>
<!-- Node43&#45;&gt;Node35 -->
<g id="edge136" class="edge"><title>Node43&#45;&gt;Node35</title>
<path fill="none" stroke="midnightblue" d="M557.271,-772.324C546.163,-764.107 529.258,-751.602 516.017,-741.807"/>
<polygon fill="midnightblue" stroke="midnightblue" points="518.063,-738.967 507.942,-735.834 513.9,-744.595 518.063,-738.967"/>
</g>
<!-- Node43&#45;&gt;Node38 -->
<g id="edge135" class="edge"><title>Node43&#45;&gt;Node38</title>
<path fill="none" stroke="midnightblue" d="M583.183,-772.495C629.307,-744.837 775.34,-657.268 832.113,-623.224"/>
<polygon fill="midnightblue" stroke="midnightblue" points="833.955,-626.201 840.732,-618.056 830.355,-620.197 833.955,-626.201"/>
</g>
<!-- Node44&#45;&gt;Node12 -->
<g id="edge169" class="edge"><title>Node44&#45;&gt;Node12</title>
<path fill="none" stroke="midnightblue" d="M1377.92,-779.767C1180.33,-775.99 621.365,-763.148 440,-736 363.149,-724.496 114,-687.207 114,-609.5 114,-609.5 114,-609.5 114,-188 114,-151.553 132.344,-141.063 164,-123 228.825,-86.01 458.486,-75.8174 543.79,-73.2742"/>
<polygon fill="midnightblue" stroke="midnightblue" points="544.021,-76.7691 553.919,-72.9883 543.824,-69.7719 544.021,-76.7691"/>
</g>
<!-- Node44&#45;&gt;Node35 -->
<g id="edge150" class="edge"><title>Node44&#45;&gt;Node35</title>
<path fill="none" stroke="midnightblue" d="M1378,-777.029C1197.64,-766.799 719.614,-739.684 553.697,-730.273"/>
<polygon fill="midnightblue" stroke="midnightblue" points="553.408,-726.751 543.226,-729.679 553.011,-733.74 553.408,-726.751"/>
</g>
<!-- Node44&#45;&gt;Node39 -->
<g id="edge149" class="edge"><title>Node44&#45;&gt;Node39</title>
<path fill="none" stroke="midnightblue" d="M1378,-772.911C1189.28,-751.105 674.65,-691.642 532.693,-675.24"/>
<polygon fill="midnightblue" stroke="midnightblue" points="533.082,-671.762 522.746,-674.09 532.279,-678.715 533.082,-671.762"/>
</g>
<!-- Node45 -->
<g id="node45" class="node"><title>Node45</title>
<g id="a_node45"><a xlink:href="tensor_8h.html" target="_top" xlink:title="Dataflow tensor object. ">
<polygon fill="white" stroke="red" points="1403,-476 1403,-495 1493,-495 1493,-476 1403,-476"/>
<text text-anchor="middle" x="1448" y="-483" font-family="Helvetica,sans-Serif" font-size="10.00">tvm/te/tensor.h</text>
</a>
</g>
</g>
<!-- Node44&#45;&gt;Node45 -->
<g id="edge139" class="edge"><title>Node44&#45;&gt;Node45</title>
<path fill="none" stroke="midnightblue" d="M1454.23,-772.167C1476.4,-739.535 1548.13,-623.218 1508,-537 1500.81,-521.555 1486.32,-509.144 1473.37,-500.49"/>
<polygon fill="midnightblue" stroke="midnightblue" points="1475.11,-497.445 1464.77,-495.109 1471.39,-503.38 1475.11,-497.445"/>
</g>
<!-- Node46 -->
<g id="node46" class="node"><title>Node46</title>
<g id="a_node46"><a xlink:href="schedule_8h.html" target="_top" xlink:title="Define a schedule. ">
<polygon fill="white" stroke="red" points="1396.5,-537.5 1396.5,-556.5 1499.5,-556.5 1499.5,-537.5 1396.5,-537.5"/>
<text text-anchor="middle" x="1448" y="-544.5" font-family="Helvetica,sans-Serif" font-size="10.00">tvm/te/schedule.h</text>
</a>
</g>
</g>
<!-- Node44&#45;&gt;Node46 -->
<g id="edge145" class="edge"><title>Node44&#45;&gt;Node46</title>
<path fill="none" stroke="midnightblue" d="M1448,-772.431C1448,-738.754 1448,-614.994 1448,-567.102"/>
<polygon fill="midnightblue" stroke="midnightblue" points="1451.5,-566.896 1448,-556.896 1444.5,-566.896 1451.5,-566.896"/>
</g>
<!-- Node47 -->
<g id="node47" class="node"><title>Node47</title>
<g id="a_node47"><a xlink:href="target_8h.html" target="_top" xlink:title="Compilation target object. ">
<polygon fill="white" stroke="red" points="1992.5,-537.5 1992.5,-556.5 2101.5,-556.5 2101.5,-537.5 1992.5,-537.5"/>
<text text-anchor="middle" x="2047" y="-544.5" font-family="Helvetica,sans-Serif" font-size="10.00">tvm/target/target.h</text>
</a>
</g>
</g>
<!-- Node44&#45;&gt;Node47 -->
<g id="edge151" class="edge"><title>Node44&#45;&gt;Node47</title>
<path fill="none" stroke="midnightblue" d="M1470.03,-772.431C1561.12,-736.998 1908.6,-601.836 2015.51,-560.249"/>
<polygon fill="midnightblue" stroke="midnightblue" points="2017.04,-563.411 2025.09,-556.524 2014.5,-556.887 2017.04,-563.411"/>
</g>
<!-- Node48 -->
<g id="node48" class="node"><title>Node48</title>
<g id="a_node48"><a xlink:href="generic__func_8h.html" target="_top" xlink:title="Generic function that can be specialzied on a per target basis. ">
<polygon fill="white" stroke="red" points="2110,-593.5 2110,-623.5 2216,-623.5 2216,-593.5 2110,-593.5"/>
<text text-anchor="start" x="2118" y="-611.5" font-family="Helvetica,sans-Serif" font-size="10.00">tvm/target/generic</text>
<text text-anchor="middle" x="2163" y="-600.5" font-family="Helvetica,sans-Serif" font-size="10.00">_func.h</text>
</a>
</g>
</g>
<!-- Node44&#45;&gt;Node48 -->
<g id="edge158" class="edge"><title>Node44&#45;&gt;Node48</title>
<path fill="none" stroke="midnightblue" d="M1518.11,-778.484C1636.29,-773.612 1869.89,-761.088 1948,-736 2022.37,-712.113 2098.66,-659.094 2137.26,-629.849"/>
<polygon fill="midnightblue" stroke="midnightblue" points="2139.55,-632.506 2145.35,-623.644 2135.29,-626.951 2139.55,-632.506"/>
</g>
<!-- Node49 -->
<g id="node49" class="node"><title>Node49</title>
<g id="a_node49"><a xlink:href="data__layout_8h.html" target="_top" xlink:title="Layout expression to describe the data organization of a tensor. And BijectiveLayout to mapping two d...">
<polygon fill="white" stroke="red" points="2462,-235.5 2462,-254.5 2578,-254.5 2578,-235.5 2462,-235.5"/>
<text text-anchor="middle" x="2520" y="-242.5" font-family="Helvetica,sans-Serif" font-size="10.00">tvm/tir/data_layout.h</text>
</a>
</g>
</g>
<!-- Node44&#45;&gt;Node49 -->
<g id="edge165" class="edge"><title>Node44&#45;&gt;Node49</title>
<path fill="none" stroke="midnightblue" d="M1518.08,-780.377C1621.63,-778.283 1821.14,-769.752 1987,-736 2224.45,-687.679 2297.01,-686.226 2502,-557 2532.58,-537.72 2546.48,-534.111 2561,-501 2563.23,-495.923 2562.44,-360.756 2562,-358 2556.42,-323.126 2539.72,-285.159 2529.13,-263.599"/>
<polygon fill="midnightblue" stroke="midnightblue" points="2532.26,-262.023 2524.63,-254.668 2526.01,-265.173 2532.26,-262.023"/>
</g>
<!-- Node45&#45;&gt;Node11 -->
<g id="edge144" class="edge"><title>Node45&#45;&gt;Node11</title>
<path fill="none" stroke="midnightblue" d="M1425.67,-476C1376.32,-456.185 1256.8,-402.42 1187,-322 1143.66,-272.069 1140.17,-244.858 1146,-179 1148.23,-153.816 1145.9,-146.178 1156,-123 1161.44,-110.524 1170.52,-98.2827 1178.45,-88.9775"/>
<polygon fill="midnightblue" stroke="midnightblue" points="1181.22,-91.1283 1185.26,-81.3349 1176,-86.47 1181.22,-91.1283"/>
</g>
<!-- Node45&#45;&gt;Node12 -->
<g id="edge141" class="edge"><title>Node45&#45;&gt;Node12</title>
<path fill="none" stroke="midnightblue" d="M1416.21,-475.968C1385.31,-467.175 1337.41,-452.206 1298,-434 1054.22,-321.393 1028.19,-225.51 780,-123 721.678,-98.9116 649.053,-84.3221 608.068,-77.391"/>
<polygon fill="midnightblue" stroke="midnightblue" points="608.55,-73.9233 598.115,-75.7538 607.414,-80.8305 608.55,-73.9233"/>
</g>
<!-- Node45&#45;&gt;Node13 -->
<g id="edge143" class="edge"><title>Node45&#45;&gt;Node13</title>
<path fill="none" stroke="midnightblue" d="M1493.18,-479.987C1569.84,-472.115 1730.21,-454.72 1865,-434 1999.06,-413.392 2033.14,-409.792 2165,-378 2297.06,-346.16 2324.89,-318.102 2458,-291 2527.47,-276.855 2715.53,-293.597 2775,-255 2828.31,-220.401 2817.12,-130.21 2809.3,-91.0716"/>
<polygon fill="midnightblue" stroke="midnightblue" points="2812.72,-90.3161 2807.19,-81.2751 2805.87,-91.7874 2812.72,-90.3161"/>
</g>
<!-- Node45&#45;&gt;Node19 -->
<g id="edge142" class="edge"><title>Node45&#45;&gt;Node19</title>
<path fill="none" stroke="midnightblue" d="M1493.18,-477.755C1646.98,-454.77 2140.94,-380.772 2144,-378 2169.15,-355.205 2184.45,-251.798 2189.82,-208.82"/>
<polygon fill="midnightblue" stroke="midnightblue" points="2193.33,-208.978 2191.05,-198.631 2186.38,-208.141 2193.33,-208.978"/>
</g>
<!-- Node45&#45;&gt;Node31 -->
<g id="edge140" class="edge"><title>Node45&#45;&gt;Node31</title>
<path fill="none" stroke="midnightblue" d="M1447,-475.975C1446.01,-467.58 1444.47,-454.481 1443.2,-443.663"/>
<polygon fill="midnightblue" stroke="midnightblue" points="1446.65,-443.032 1442,-433.509 1439.69,-443.85 1446.65,-443.032"/>
</g>
<!-- Node46&#45;&gt;Node12 -->
<g id="edge148" class="edge"><title>Node46&#45;&gt;Node12</title>
<path fill="none" stroke="midnightblue" d="M1396.12,-544.452C1262.74,-540.124 915.196,-526.51 870,-501 698.08,-403.962 605.26,-159.744 581.924,-90.8508"/>
<polygon fill="midnightblue" stroke="midnightblue" points="585.138,-89.4227 578.671,-81.0305 578.493,-91.6238 585.138,-89.4227"/>
</g>
<!-- Node46&#45;&gt;Node41 -->
<g id="edge147" class="edge"><title>Node46&#45;&gt;Node41</title>
<path fill="none" stroke="midnightblue" d="M1499.51,-543.309C1604.67,-537.57 1851.55,-522.847 2058,-501 2071.62,-499.559 2086.2,-497.729 2100.02,-495.86"/>
<polygon fill="midnightblue" stroke="midnightblue" points="2100.5,-499.327 2109.93,-494.497 2099.55,-492.392 2100.5,-499.327"/>
</g>
<!-- Node46&#45;&gt;Node45 -->
<g id="edge146" class="edge"><title>Node46&#45;&gt;Node45</title>
<path fill="none" stroke="midnightblue" d="M1448,-537.475C1448,-529.08 1448,-515.981 1448,-505.163"/>
<polygon fill="midnightblue" stroke="midnightblue" points="1451.5,-505.009 1448,-495.009 1444.5,-505.009 1451.5,-505.009"/>
</g>
<!-- Node47&#45;&gt;Node12 -->
<g id="edge155" class="edge"><title>Node47&#45;&gt;Node12</title>
<path fill="none" stroke="midnightblue" d="M1992.09,-544.455C1856.24,-540.273 1507.19,-527.239 1394,-501 1111.63,-435.544 1026.19,-423.014 790,-255 726.358,-209.729 735.564,-171.059 674,-123 653.644,-107.109 627.523,-93.9413 607.369,-85.04"/>
<polygon fill="midnightblue" stroke="midnightblue" points="608.575,-81.749 598.005,-81.0197 605.813,-88.1812 608.575,-81.749"/>
</g>
<!-- Node47&#45;&gt;Node13 -->
<g id="edge157" class="edge"><title>Node47&#45;&gt;Node13</title>
<path fill="none" stroke="midnightblue" d="M2084.4,-537.463C2120.58,-528.987 2176.86,-515.234 2225,-501 2267.25,-488.507 2976,-290.062 2976,-246 2976,-246 2976,-246 2976,-188 2976,-121.275 2885.49,-90.5042 2836.16,-78.69"/>
<polygon fill="midnightblue" stroke="midnightblue" points="2836.84,-75.2542 2826.31,-76.4506 2835.29,-82.0801 2836.84,-75.2542"/>
</g>
<!-- Node47&#45;&gt;Node19 -->
<g id="edge156" class="edge"><title>Node47&#45;&gt;Node19</title>
<path fill="none" stroke="midnightblue" d="M2051.2,-537.366C2059.05,-521.989 2077.33,-489.637 2101,-470 2183.49,-401.559 2320,-476.186 2320,-369 2320,-369 2320,-369 2320,-305.5 2320,-254.256 2262.75,-219.896 2224.83,-202.756"/>
<polygon fill="midnightblue" stroke="midnightblue" points="2225.75,-199.339 2215.18,-198.573 2222.96,-205.761 2225.75,-199.339"/>
</g>
<!-- Node47&#45;&gt;Node30 -->
<g id="edge154" class="edge"><title>Node47&#45;&gt;Node30</title>
<path fill="none" stroke="midnightblue" d="M1992.06,-543.934C1862.95,-538.85 1530.22,-524.418 1253,-501 1226.37,-498.751 1196.74,-495.475 1172.6,-492.606"/>
<polygon fill="midnightblue" stroke="midnightblue" points="1172.96,-489.124 1162.61,-491.405 1172.12,-496.074 1172.96,-489.124"/>
</g>
<!-- Node47&#45;&gt;Node31 -->
<g id="edge153" class="edge"><title>Node47&#45;&gt;Node31</title>
<path fill="none" stroke="midnightblue" d="M2038.9,-537.476C2022.68,-521.05 1984.31,-485.286 1944,-470 1866.63,-440.662 1629.91,-430.123 1510.88,-426.611"/>
<polygon fill="midnightblue" stroke="midnightblue" points="1510.88,-423.109 1500.78,-426.321 1510.68,-430.106 1510.88,-423.109"/>
</g>
<!-- Node47&#45;&gt;Node41 -->
<g id="edge152" class="edge"><title>Node47&#45;&gt;Node41</title>
<path fill="none" stroke="midnightblue" d="M2063.62,-537.475C2082.92,-527.578 2114.96,-511.142 2137.43,-499.615"/>
<polygon fill="midnightblue" stroke="midnightblue" points="2139.11,-502.687 2146.41,-495.009 2135.92,-496.459 2139.11,-502.687"/>
</g>
<!-- Node48&#45;&gt;Node12 -->
<g id="edge163" class="edge"><title>Node48&#45;&gt;Node12</title>
<path fill="none" stroke="midnightblue" d="M2109.9,-607.438C1957.63,-606.727 1521.82,-600.812 1387,-557 1043.52,-445.38 1021.16,-288.199 700,-123 669.526,-107.325 633.026,-92.9553 607.548,-83.5867"/>
<polygon fill="midnightblue" stroke="midnightblue" points="608.618,-80.2518 598.024,-80.1288 606.229,-86.8316 608.618,-80.2518"/>
</g>
<!-- Node48&#45;&gt;Node13 -->
<g id="edge164" class="edge"><title>Node48&#45;&gt;Node13</title>
<path fill="none" stroke="midnightblue" d="M2200.27,-593.391C2306.47,-553.464 2620.09,-437.435 2886,-358 2948.38,-339.364 2980.66,-366.694 3028,-322 3053.76,-297.684 3052,-281.422 3052,-246 3052,-246 3052,-246 3052,-188 3052,-157.205 3051.15,-143.304 3028,-123 2999.67,-98.1574 2890.72,-82.3884 2836.3,-75.8973"/>
<polygon fill="midnightblue" stroke="midnightblue" points="2836.52,-72.3995 2826.19,-74.7229 2835.72,-79.3528 2836.52,-72.3995"/>
</g>
<!-- Node48&#45;&gt;Node16 -->
<g id="edge160" class="edge"><title>Node48&#45;&gt;Node16</title>
<path fill="none" stroke="midnightblue" d="M2178.43,-593.49C2205.44,-567.276 2255.64,-509.865 2225,-470 2208.09,-447.998 1836.06,-359.083 1681.45,-322.915"/>
<polygon fill="midnightblue" stroke="midnightblue" points="1682.12,-319.477 1671.59,-320.61 1680.53,-326.294 1682.12,-319.477"/>
</g>
<!-- Node48&#45;&gt;Node19 -->
<g id="edge162" class="edge"><title>Node48&#45;&gt;Node19</title>
<path fill="none" stroke="midnightblue" d="M2187.35,-593.307C2201.56,-584.198 2219.15,-571.4 2232,-557 2292.96,-488.674 2310.55,-466.512 2334,-378 2350.61,-315.313 2353.06,-278.534 2305,-235 2298.75,-229.34 2256.32,-213.227 2225.28,-201.907"/>
<polygon fill="midnightblue" stroke="midnightblue" points="2226.26,-198.538 2215.66,-198.419 2223.87,-205.119 2226.26,-198.538"/>
</g>
<!-- Node48&#45;&gt;Node41 -->
<g id="edge159" class="edge"><title>Node48&#45;&gt;Node41</title>
<path fill="none" stroke="midnightblue" d="M2163,-593.145C2163,-571.203 2163,-529.327 2163,-505.091"/>
<polygon fill="midnightblue" stroke="midnightblue" points="2166.5,-505.052 2163,-495.052 2159.5,-505.052 2166.5,-505.052"/>
</g>
<!-- Node48&#45;&gt;Node47 -->
<g id="edge161" class="edge"><title>Node48&#45;&gt;Node47</title>
<path fill="none" stroke="midnightblue" d="M2135.51,-593.399C2116.57,-583.684 2091.56,-570.855 2072.96,-561.314"/>
<polygon fill="midnightblue" stroke="midnightblue" points="2074.37,-558.108 2063.88,-556.658 2071.18,-564.336 2074.37,-558.108"/>
</g>
<!-- Node49&#45;&gt;Node12 -->
<g id="edge166" class="edge"><title>Node49&#45;&gt;Node12</title>
<path fill="none" stroke="midnightblue" d="M2461.94,-243.28C2252.14,-240.445 1540.51,-228.715 1443,-199 1381.17,-180.157 1380.58,-142.648 1319,-123 1183.61,-79.8003 732.815,-73.5548 608.176,-72.6523"/>
<polygon fill="midnightblue" stroke="midnightblue" points="608.148,-69.1522 598.125,-72.5862 608.102,-76.152 608.148,-69.1522"/>
</g>
<!-- Node49&#45;&gt;Node13 -->
<g id="edge168" class="edge"><title>Node49&#45;&gt;Node13</title>
<path fill="none" stroke="midnightblue" d="M2533.5,-235.25C2564.86,-214.988 2645.25,-163.483 2714,-123 2736.14,-109.963 2761.77,-95.8261 2780.17,-85.8349"/>
<polygon fill="midnightblue" stroke="midnightblue" points="2781.95,-88.8519 2789.08,-81.0158 2778.62,-82.6949 2781.95,-88.8519"/>
</g>
<!-- Node49&#45;&gt;Node19 -->
<g id="edge167" class="edge"><title>Node49&#45;&gt;Node19</title>
<path fill="none" stroke="midnightblue" d="M2461.99,-236.367C2403.28,-228.32 2310,-214.656 2230,-199 2228.54,-198.715 2227.06,-198.413 2225.56,-198.099"/>
<polygon fill="midnightblue" stroke="midnightblue" points="2226.17,-194.65 2215.65,-195.906 2224.66,-201.485 2226.17,-194.65"/>
</g>
<!-- Node50&#45;&gt;Node35 -->
<g id="edge173" class="edge"><title>Node50&#45;&gt;Node35</title>
<path fill="none" stroke="midnightblue" d="M655.894,-772.444C623.374,-763.201 571.421,-748.436 535.609,-738.257"/>
<polygon fill="midnightblue" stroke="midnightblue" points="536.541,-734.884 525.965,-735.516 534.627,-741.617 536.541,-734.884"/>
</g>
<!-- Node50&#45;&gt;Node36 -->
<g id="edge171" class="edge"><title>Node50&#45;&gt;Node36</title>
<path fill="none" stroke="midnightblue" d="M699.34,-772.495C742.633,-744.894 879.509,-657.629 933.142,-623.436"/>
<polygon fill="midnightblue" stroke="midnightblue" points="935.029,-626.383 941.58,-618.056 931.266,-620.481 935.029,-626.383"/>
</g>
<!-- Node50&#45;&gt;Node39 -->
<g id="edge172" class="edge"><title>Node50&#45;&gt;Node39</title>
<path fill="none" stroke="midnightblue" d="M671.091,-772.368C638.209,-753.332 559.245,-707.615 519.578,-684.65"/>
<polygon fill="midnightblue" stroke="midnightblue" points="521.248,-681.573 510.84,-679.591 517.74,-687.631 521.248,-681.573"/>
</g>
</g>
</svg>
