<?xml version="1.0" encoding="UTF-8" standalone="no"?>
<!DOCTYPE svg PUBLIC "-//W3C//DTD SVG 1.1//EN"
 "http://www.w3.org/Graphics/SVG/1.1/DTD/svg11.dtd">
<!-- Generated by graphviz version 2.38.0 (20140413.2041)
 -->
<!-- Title: include/tvm/ir/transform.h Pages: 1 -->
<svg width="3092pt" height="1069pt"
 viewBox="0.00 0.00 3092.00 1069.00" xmlns="http://www.w3.org/2000/svg" xmlns:xlink="http://www.w3.org/1999/xlink">
<g id="graph0" class="graph" transform="scale(1 1) rotate(0) translate(4 1065)">
<title>include/tvm/ir/transform.h</title>
<polygon fill="white" stroke="none" points="-4,4 -4,-1065 3088,-1065 3088,4 -4,4"/>
<!-- Node1 -->
<g id="node1" class="node"><title>Node1</title>
<polygon fill="#bfbfbf" stroke="black" points="153,-1041.5 153,-1060.5 293,-1060.5 293,-1041.5 153,-1041.5"/>
<text text-anchor="middle" x="223" y="-1048.5" font-family="Helvetica,sans-Serif" font-size="10.00">include/tvm/ir/transform.h</text>
</g>
<!-- Node2 -->
<g id="node2" class="node"><title>Node2</title>
<g id="a_node2"><a xlink:href="with_8h.html" target="_top" xlink:title="RAII wrapper function to enter and exit a context object similar to python&#39;s with syntax...">
<polygon fill="white" stroke="black" points="180,-123.5 180,-142.5 286,-142.5 286,-123.5 180,-123.5"/>
<text text-anchor="middle" x="233" y="-130.5" font-family="Helvetica,sans-Serif" font-size="10.00">tvm/support/with.h</text>
</a>
</g>
</g>
<!-- Node1&#45;&gt;Node2 -->
<g id="edge1" class="edge"><title>Node1&#45;&gt;Node2</title>
<path fill="none" stroke="midnightblue" d="M190.376,-1041.39C147.069,-1027.75 76,-996.738 76,-940 76,-940 76,-940 76,-244 76,-189.739 139.678,-159.976 185.926,-145.516"/>
<polygon fill="midnightblue" stroke="midnightblue" points="187.209,-148.786 195.793,-142.576 185.21,-142.077 187.209,-148.786"/>
</g>
<!-- Node4 -->
<g id="node4" class="node"><title>Node4</title>
<polygon fill="white" stroke="#bfbfbf" points="331,-62 331,-81 373,-81 373,-62 331,-62"/>
<text text-anchor="middle" x="352" y="-69" font-family="Helvetica,sans-Serif" font-size="10.00">utility</text>
</g>
<!-- Node1&#45;&gt;Node4 -->
<g id="edge173" class="edge"><title>Node1&#45;&gt;Node4</title>
<path fill="none" stroke="midnightblue" d="M152.747,-1044.38C87.3818,-1034.85 0,-1009.18 0,-940 0,-940 0,-940 0,-188 0,-142.188 38.4146,-142.22 80,-123 161.202,-85.4695 268.224,-75.8185 320.513,-73.3455"/>
<polygon fill="midnightblue" stroke="midnightblue" points="320.964,-76.8299 330.811,-72.9193 320.675,-69.8359 320.964,-76.8299"/>
</g>
<!-- Node5 -->
<g id="node5" class="node"><title>Node5</title>
<g id="a_node5"><a xlink:href="runtime_2container_8h.html" target="_top" xlink:title="Common POD(plain old data) container types. ">
<polygon fill="white" stroke="black" points="592,-358.5 592,-377.5 724,-377.5 724,-358.5 592,-358.5"/>
<text text-anchor="middle" x="658" y="-365.5" font-family="Helvetica,sans-Serif" font-size="10.00">tvm/runtime/container.h</text>
</a>
</g>
</g>
<!-- Node1&#45;&gt;Node5 -->
<g id="edge4" class="edge"><title>Node1&#45;&gt;Node5</title>
<path fill="none" stroke="midnightblue" d="M211.457,-1041.43C190.196,-1024.57 147,-984.799 147,-940 147,-940 147,-940 147,-826 147,-570.419 506.56,-422.054 622.459,-380.869"/>
<polygon fill="midnightblue" stroke="midnightblue" points="623.677,-384.151 631.957,-377.541 621.362,-377.545 623.677,-384.151"/>
</g>
<!-- Node13 -->
<g id="node13" class="node"><title>Node13</title>
<polygon fill="white" stroke="#bfbfbf" points="2720,-62 2720,-81 2764,-81 2764,-62 2720,-62"/>
<text text-anchor="middle" x="2742" y="-69" font-family="Helvetica,sans-Serif" font-size="10.00">string</text>
</g>
<!-- Node1&#45;&gt;Node13 -->
<g id="edge172" class="edge"><title>Node1&#45;&gt;Node13</title>
<path fill="none" stroke="midnightblue" d="M293.202,-1050.04C642.458,-1050.02 2195.1,-1047.51 2676,-1005 2858.91,-988.832 3084,-1123.62 3084,-940 3084,-940 3084,-940 3084,-188 3084,-149.868 3061.14,-141.854 3028,-123 2984.93,-98.4983 2839.39,-81.8507 2774.13,-75.4407"/>
<polygon fill="midnightblue" stroke="midnightblue" points="2774.3,-71.9408 2764.01,-74.4658 2773.63,-78.9085 2774.3,-71.9408"/>
</g>
<!-- Node31 -->
<g id="node31" class="node"><title>Node31</title>
<g id="a_node31"><a xlink:href="node_2container_8h.html" target="_top" xlink:title="Array/Map container in the DSL graph. ">
<polygon fill="white" stroke="black" points="846.5,-414.5 846.5,-433.5 965.5,-433.5 965.5,-414.5 846.5,-414.5"/>
<text text-anchor="middle" x="906" y="-421.5" font-family="Helvetica,sans-Serif" font-size="10.00">tvm/node/container.h</text>
</a>
</g>
</g>
<!-- Node1&#45;&gt;Node31 -->
<g id="edge65" class="edge"><title>Node1&#45;&gt;Node31</title>
<path fill="none" stroke="midnightblue" d="M223,-1041.44C223,-1022.94 223,-977.812 223,-940 223,-940 223,-940 223,-770 223,-497.288 662.196,-440.101 836.207,-428.146"/>
<polygon fill="midnightblue" stroke="midnightblue" points="836.536,-431.632 846.285,-427.484 836.077,-424.647 836.536,-431.632"/>
</g>
<!-- Node32 -->
<g id="node32" class="node"><title>Node32</title>
<g id="a_node32"><a xlink:href="error_8h.html" target="_top" xlink:title="Utilities for error tracking and reporting. ">
<polygon fill="white" stroke="black" points="2588.5,-985.5 2588.5,-1004.5 2667.5,-1004.5 2667.5,-985.5 2588.5,-985.5"/>
<text text-anchor="middle" x="2628" y="-992.5" font-family="Helvetica,sans-Serif" font-size="10.00">tvm/ir/error.h</text>
</a>
</g>
</g>
<!-- Node1&#45;&gt;Node32 -->
<g id="edge76" class="edge"><title>Node1&#45;&gt;Node32</title>
<path fill="none" stroke="midnightblue" d="M293.028,-1048.43C650.947,-1040.39 2271.03,-1004.02 2577.79,-997.127"/>
<polygon fill="midnightblue" stroke="midnightblue" points="2578.22,-1000.62 2588.14,-996.895 2578.07,-993.62 2578.22,-1000.62"/>
</g>
<!-- Node41 -->
<g id="node41" class="node"><title>Node41</title>
<g id="a_node41"><a xlink:href="ir_2module_8h.html" target="_top" xlink:title="IRModule that holds the functions and type definitions. ">
<polygon fill="white" stroke="black" points="1671,-929.5 1671,-948.5 1763,-948.5 1763,-929.5 1671,-929.5"/>
<text text-anchor="middle" x="1717" y="-936.5" font-family="Helvetica,sans-Serif" font-size="10.00">tvm/ir/module.h</text>
</a>
</g>
</g>
<!-- Node1&#45;&gt;Node41 -->
<g id="edge171" class="edge"><title>Node1&#45;&gt;Node41</title>
<path fill="none" stroke="midnightblue" d="M293.055,-1044.84C548.727,-1026.02 1428.69,-961.227 1660.61,-944.152"/>
<polygon fill="midnightblue" stroke="midnightblue" points="1661.12,-947.624 1670.84,-943.399 1660.61,-940.643 1661.12,-947.624"/>
</g>
<!-- Node3 -->
<g id="node3" class="node"><title>Node3</title>
<polygon fill="white" stroke="#bfbfbf" points="680,-62 680,-81 766,-81 766,-62 680,-62"/>
<text text-anchor="middle" x="723" y="-69" font-family="Helvetica,sans-Serif" font-size="10.00">dmlc/logging.h</text>
</g>
<!-- Node2&#45;&gt;Node3 -->
<g id="edge2" class="edge"><title>Node2&#45;&gt;Node3</title>
<path fill="none" stroke="midnightblue" d="M286.021,-124.805C290.747,-124.185 295.459,-123.576 300,-123 432.713,-106.165 589.059,-87.9092 669.388,-78.6446"/>
<polygon fill="midnightblue" stroke="midnightblue" points="670.206,-82.0736 679.739,-77.452 669.404,-75.1196 670.206,-82.0736"/>
</g>
<!-- Node2&#45;&gt;Node4 -->
<g id="edge3" class="edge"><title>Node2&#45;&gt;Node4</title>
<path fill="none" stroke="midnightblue" d="M250.05,-123.475C269.844,-113.578 302.717,-97.1416 325.77,-85.6151"/>
<polygon fill="midnightblue" stroke="midnightblue" points="327.603,-88.6118 334.982,-81.0091 324.472,-82.3508 327.603,-88.6118"/>
</g>
<!-- Node5&#45;&gt;Node3 -->
<g id="edge5" class="edge"><title>Node5&#45;&gt;Node3</title>
<path fill="none" stroke="midnightblue" d="M591.745,-361.271C565.533,-355.435 537.722,-344.038 521,-322 497.614,-291.178 507.097,-272.122 518,-235 541.565,-154.764 637.287,-105.882 689.174,-84.7593"/>
<polygon fill="midnightblue" stroke="midnightblue" points="690.617,-87.9525 698.629,-81.0203 688.043,-81.443 690.617,-87.9525"/>
</g>
<!-- Node5&#45;&gt;Node4 -->
<g id="edge63" class="edge"><title>Node5&#45;&gt;Node4</title>
<path fill="none" stroke="midnightblue" d="M591.878,-359.931C502.936,-346.381 348.589,-307.646 285,-199 273.055,-178.59 315.898,-118.615 338.671,-89.1806"/>
<polygon fill="midnightblue" stroke="midnightblue" points="341.589,-91.131 345.011,-81.1039 336.083,-86.8087 341.589,-91.131"/>
</g>
<!-- Node6 -->
<g id="node6" class="node"><title>Node6</title>
<g id="a_node6"><a xlink:href="runtime_2memory_8h.html" target="_top" xlink:title="Runtime memory management. ">
<polygon fill="white" stroke="black" points="1070.5,-179.5 1070.5,-198.5 1197.5,-198.5 1197.5,-179.5 1070.5,-179.5"/>
<text text-anchor="middle" x="1134" y="-186.5" font-family="Helvetica,sans-Serif" font-size="10.00">tvm/runtime/memory.h</text>
</a>
</g>
</g>
<!-- Node5&#45;&gt;Node6 -->
<g id="edge6" class="edge"><title>Node5&#45;&gt;Node6</title>
<path fill="none" stroke="midnightblue" d="M658.336,-358.449C659.783,-334.466 667.444,-266.279 708,-235 735.224,-214.003 945.394,-199.86 1060.01,-193.625"/>
<polygon fill="midnightblue" stroke="midnightblue" points="1060.32,-197.113 1070.12,-193.082 1059.94,-190.123 1060.32,-197.113"/>
</g>
<!-- Node7 -->
<g id="node7" class="node"><title>Node7</title>
<g id="a_node7"><a xlink:href="object_8h.html" target="_top" xlink:title="A managed object in the TVM runtime. ">
<polygon fill="white" stroke="black" points="1748.5,-123.5 1748.5,-142.5 1865.5,-142.5 1865.5,-123.5 1748.5,-123.5"/>
<text text-anchor="middle" x="1807" y="-130.5" font-family="Helvetica,sans-Serif" font-size="10.00">tvm/runtime/object.h</text>
</a>
</g>
</g>
<!-- Node5&#45;&gt;Node7 -->
<g id="edge20" class="edge"><title>Node5&#45;&gt;Node7</title>
<path fill="none" stroke="midnightblue" d="M659.832,-358.491C665.45,-334.619 684.807,-266.697 729,-235 810.986,-176.196 1513.69,-144.986 1738.28,-136.446"/>
<polygon fill="midnightblue" stroke="midnightblue" points="1738.44,-139.943 1748.3,-136.069 1738.17,-132.948 1738.44,-139.943"/>
</g>
<!-- Node12 -->
<g id="node12" class="node"><title>Node12</title>
<polygon fill="white" stroke="#bfbfbf" points="829,-62 829,-81 897,-81 897,-62 829,-62"/>
<text text-anchor="middle" x="863" y="-69" font-family="Helvetica,sans-Serif" font-size="10.00">type_traits</text>
</g>
<!-- Node5&#45;&gt;Node12 -->
<g id="edge62" class="edge"><title>Node5&#45;&gt;Node12</title>
<path fill="none" stroke="midnightblue" d="M650.052,-358.356C626.167,-332.367 556.629,-256.625 556,-255 542.507,-220.145 564.1,-203.87 592,-179 658.035,-120.138 760.42,-91.9844 818.604,-80.0611"/>
<polygon fill="midnightblue" stroke="midnightblue" points="819.458,-83.46 828.588,-78.0858 818.099,-76.5931 819.458,-83.46"/>
</g>
<!-- Node5&#45;&gt;Node13 -->
<g id="edge61" class="edge"><title>Node5&#45;&gt;Node13</title>
<path fill="none" stroke="midnightblue" d="M724.213,-363.959C1032.42,-349.646 2314.86,-288.302 2393,-255 2473.17,-220.833 2461.13,-164.059 2538,-123 2593.95,-93.1126 2668,-80.5283 2709.76,-75.5298"/>
<polygon fill="midnightblue" stroke="midnightblue" points="2710.35,-78.9856 2719.89,-74.3905 2709.56,-72.0294 2710.35,-78.9856"/>
</g>
<!-- Node16 -->
<g id="node16" class="node"><title>Node16</title>
<g id="a_node16"><a xlink:href="packed__func_8h.html" target="_top" xlink:title="Type&#45;erased function used across TVM API. ">
<polygon fill="white" stroke="black" points="1240.5,-291.5 1240.5,-321.5 1353.5,-321.5 1353.5,-291.5 1240.5,-291.5"/>
<text text-anchor="start" x="1248.5" y="-309.5" font-family="Helvetica,sans-Serif" font-size="10.00">tvm/runtime/packed</text>
<text text-anchor="middle" x="1297" y="-298.5" font-family="Helvetica,sans-Serif" font-size="10.00">_func.h</text>
</a>
</g>
</g>
<!-- Node5&#45;&gt;Node16 -->
<g id="edge21" class="edge"><title>Node5&#45;&gt;Node16</title>
<path fill="none" stroke="midnightblue" d="M724.276,-360.829C846.783,-349.422 1107.34,-325.16 1230.22,-313.718"/>
<polygon fill="midnightblue" stroke="midnightblue" points="1230.62,-317.196 1240.25,-312.784 1229.97,-310.226 1230.62,-317.196"/>
</g>
<!-- Node20 -->
<g id="node20" class="node"><title>Node20</title>
<polygon fill="white" stroke="#bfbfbf" points="1530.5,-179.5 1530.5,-198.5 1577.5,-198.5 1577.5,-179.5 1530.5,-179.5"/>
<text text-anchor="middle" x="1554" y="-186.5" font-family="Helvetica,sans-Serif" font-size="10.00">vector</text>
</g>
<!-- Node5&#45;&gt;Node20 -->
<g id="edge64" class="edge"><title>Node5&#45;&gt;Node20</title>
<path fill="none" stroke="midnightblue" d="M724.03,-367.326C875.834,-367.346 1245.55,-363.035 1362,-322 1384.56,-314.049 1384.78,-302.039 1406,-291 1447.91,-269.201 1468.12,-283.215 1506,-255 1522.82,-242.473 1536.36,-222.41 1544.72,-207.885"/>
<polygon fill="midnightblue" stroke="midnightblue" points="1547.92,-209.326 1549.66,-198.874 1541.78,-205.964 1547.92,-209.326"/>
</g>
<!-- Node29 -->
<g id="node29" class="node"><title>Node29</title>
<polygon fill="white" stroke="#bfbfbf" points="530.5,-297 530.5,-316 579.5,-316 579.5,-297 530.5,-297"/>
<text text-anchor="middle" x="555" y="-304" font-family="Helvetica,sans-Serif" font-size="10.00">cstring</text>
</g>
<!-- Node5&#45;&gt;Node29 -->
<g id="edge59" class="edge"><title>Node5&#45;&gt;Node29</title>
<path fill="none" stroke="midnightblue" d="M643.243,-358.475C626.339,-348.711 598.417,-332.581 578.51,-321.081"/>
<polygon fill="midnightblue" stroke="midnightblue" points="580.14,-317.981 569.73,-316.009 576.638,-324.042 580.14,-317.981"/>
</g>
<!-- Node30 -->
<g id="node30" class="node"><title>Node30</title>
<polygon fill="white" stroke="#bfbfbf" points="712.5,-297 712.5,-316 789.5,-316 789.5,-297 712.5,-297"/>
<text text-anchor="middle" x="751" y="-304" font-family="Helvetica,sans-Serif" font-size="10.00">initializer_list</text>
</g>
<!-- Node5&#45;&gt;Node30 -->
<g id="edge60" class="edge"><title>Node5&#45;&gt;Node30</title>
<path fill="none" stroke="midnightblue" d="M671.325,-358.475C686.38,-348.843 711.116,-333.017 729.037,-321.552"/>
<polygon fill="midnightblue" stroke="midnightblue" points="731.163,-324.347 737.7,-316.009 727.39,-318.45 731.163,-324.347"/>
</g>
<!-- Node6&#45;&gt;Node4 -->
<g id="edge18" class="edge"><title>Node6&#45;&gt;Node4</title>
<path fill="none" stroke="midnightblue" d="M1076.18,-179.46C921.475,-156.61 501.792,-94.624 383.448,-77.1448"/>
<polygon fill="midnightblue" stroke="midnightblue" points="383.666,-73.6392 373.262,-75.6404 382.644,-80.5641 383.666,-73.6392"/>
</g>
<!-- Node6&#45;&gt;Node7 -->
<g id="edge7" class="edge"><title>Node6&#45;&gt;Node7</title>
<path fill="none" stroke="midnightblue" d="M1197.69,-182.768C1212.87,-181.528 1229.01,-180.212 1244,-179 1422.06,-164.6 1631.82,-147.905 1737.98,-139.475"/>
<polygon fill="midnightblue" stroke="midnightblue" points="1738.54,-142.941 1748.23,-138.661 1737.99,-135.963 1738.54,-142.941"/>
</g>
<!-- Node6&#45;&gt;Node12 -->
<g id="edge19" class="edge"><title>Node6&#45;&gt;Node12</title>
<path fill="none" stroke="midnightblue" d="M1118.01,-179.417C1093.44,-166.395 1044.77,-141.234 1002,-123 967.457,-108.272 927.015,-93.8896 898.688,-84.265"/>
<polygon fill="midnightblue" stroke="midnightblue" points="899.798,-80.9456 889.204,-81.0663 897.561,-87.5785 899.798,-80.9456"/>
</g>
<!-- Node15 -->
<g id="node15" class="node"><title>Node15</title>
<polygon fill="white" stroke="#bfbfbf" points="1110.5,-123.5 1110.5,-142.5 1157.5,-142.5 1157.5,-123.5 1110.5,-123.5"/>
<text text-anchor="middle" x="1134" y="-130.5" font-family="Helvetica,sans-Serif" font-size="10.00">cstdlib</text>
</g>
<!-- Node6&#45;&gt;Node15 -->
<g id="edge17" class="edge"><title>Node6&#45;&gt;Node15</title>
<path fill="none" stroke="midnightblue" d="M1134,-179.083C1134,-172.006 1134,-161.861 1134,-152.986"/>
<polygon fill="midnightblue" stroke="midnightblue" points="1137.5,-152.751 1134,-142.751 1130.5,-152.751 1137.5,-152.751"/>
</g>
<!-- Node7&#45;&gt;Node3 -->
<g id="edge8" class="edge"><title>Node7&#45;&gt;Node3</title>
<path fill="none" stroke="midnightblue" d="M1748.46,-129.136C1711.6,-127.344 1663.02,-125.003 1620,-123 1264.47,-106.445 1174.25,-121.356 820,-87 805.817,-85.6245 790.541,-83.5988 776.402,-81.4949"/>
<polygon fill="midnightblue" stroke="midnightblue" points="776.753,-78.0081 766.339,-79.9573 775.696,-84.9278 776.753,-78.0081"/>
</g>
<!-- Node7&#45;&gt;Node4 -->
<g id="edge15" class="edge"><title>Node7&#45;&gt;Node4</title>
<path fill="none" stroke="midnightblue" d="M1748.47,-129.802C1580.69,-123.475 1083.64,-104.551 671,-87 565.628,-82.5182 440.703,-76.6901 383.475,-73.9916"/>
<polygon fill="midnightblue" stroke="midnightblue" points="383.431,-70.4857 373.277,-73.5101 383.101,-77.478 383.431,-70.4857"/>
</g>
<!-- Node8 -->
<g id="node8" class="node"><title>Node8</title>
<g id="a_node8"><a xlink:href="c__runtime__api_8h.html" target="_top" xlink:title="tvm/runtime/c_runtime\l_api.h">
<polygon fill="white" stroke="black" points="2241.5,-56.5 2241.5,-86.5 2368.5,-86.5 2368.5,-56.5 2241.5,-56.5"/>
<text text-anchor="start" x="2249.5" y="-74.5" font-family="Helvetica,sans-Serif" font-size="10.00">tvm/runtime/c_runtime</text>
<text text-anchor="middle" x="2305" y="-63.5" font-family="Helvetica,sans-Serif" font-size="10.00">_api.h</text>
</a>
</g>
</g>
<!-- Node7&#45;&gt;Node8 -->
<g id="edge9" class="edge"><title>Node7&#45;&gt;Node8</title>
<path fill="none" stroke="midnightblue" d="M1865.59,-125C1956.57,-114.13 2131.67,-93.2089 2231.17,-81.3215"/>
<polygon fill="midnightblue" stroke="midnightblue" points="2231.63,-84.7912 2241.14,-80.1295 2230.8,-77.8407 2231.63,-84.7912"/>
</g>
<!-- Node7&#45;&gt;Node12 -->
<g id="edge13" class="edge"><title>Node7&#45;&gt;Node12</title>
<path fill="none" stroke="midnightblue" d="M1748.46,-124.445C1743.58,-123.917 1738.71,-123.426 1734,-123 1417.8,-94.3722 1035.48,-78.7689 907.293,-74.0538"/>
<polygon fill="midnightblue" stroke="midnightblue" points="907.213,-70.5487 897.092,-73.6819 906.958,-77.544 907.213,-70.5487"/>
</g>
<!-- Node7&#45;&gt;Node13 -->
<g id="edge14" class="edge"><title>Node7&#45;&gt;Node13</title>
<path fill="none" stroke="midnightblue" d="M1865.84,-128.255C2043.9,-116.925 2573.08,-83.2497 2709.58,-74.563"/>
<polygon fill="midnightblue" stroke="midnightblue" points="2710.04,-78.0412 2719.79,-73.9131 2709.59,-71.0554 2710.04,-78.0412"/>
</g>
<!-- Node14 -->
<g id="node14" class="node"><title>Node14</title>
<polygon fill="white" stroke="#bfbfbf" points="1850,-62 1850,-81 1900,-81 1900,-62 1850,-62"/>
<text text-anchor="middle" x="1875" y="-69" font-family="Helvetica,sans-Serif" font-size="10.00">atomic</text>
</g>
<!-- Node7&#45;&gt;Node14 -->
<g id="edge16" class="edge"><title>Node7&#45;&gt;Node14</title>
<path fill="none" stroke="midnightblue" d="M1816.74,-123.475C1827.35,-114.197 1844.52,-99.1706 1857.48,-87.831"/>
<polygon fill="midnightblue" stroke="midnightblue" points="1860.05,-90.2282 1865.28,-81.0091 1855.44,-84.9601 1860.05,-90.2282"/>
</g>
<!-- Node9 -->
<g id="node9" class="node"><title>Node9</title>
<polygon fill="white" stroke="#bfbfbf" points="2170,-0.5 2170,-19.5 2260,-19.5 2260,-0.5 2170,-0.5"/>
<text text-anchor="middle" x="2215" y="-7.5" font-family="Helvetica,sans-Serif" font-size="10.00">dlpack/dlpack.h</text>
</g>
<!-- Node8&#45;&gt;Node9 -->
<g id="edge10" class="edge"><title>Node8&#45;&gt;Node9</title>
<path fill="none" stroke="midnightblue" d="M2283.67,-56.3993C2269.51,-47.0402 2250.99,-34.7924 2236.75,-25.3771"/>
<polygon fill="midnightblue" stroke="midnightblue" points="2238.37,-22.2531 2228.1,-19.6578 2234.51,-28.0923 2238.37,-22.2531"/>
</g>
<!-- Node10 -->
<g id="node10" class="node"><title>Node10</title>
<polygon fill="white" stroke="#bfbfbf" points="2278.5,-0.5 2278.5,-19.5 2331.5,-19.5 2331.5,-0.5 2278.5,-0.5"/>
<text text-anchor="middle" x="2305" y="-7.5" font-family="Helvetica,sans-Serif" font-size="10.00">stdint.h</text>
</g>
<!-- Node8&#45;&gt;Node10 -->
<g id="edge11" class="edge"><title>Node8&#45;&gt;Node10</title>
<path fill="none" stroke="midnightblue" d="M2305,-56.3993C2305,-48.4664 2305,-38.458 2305,-29.8583"/>
<polygon fill="midnightblue" stroke="midnightblue" points="2308.5,-29.6577 2305,-19.6578 2301.5,-29.6578 2308.5,-29.6577"/>
</g>
<!-- Node11 -->
<g id="node11" class="node"><title>Node11</title>
<polygon fill="white" stroke="#bfbfbf" points="2349.5,-0.5 2349.5,-19.5 2404.5,-19.5 2404.5,-0.5 2349.5,-0.5"/>
<text text-anchor="middle" x="2377" y="-7.5" font-family="Helvetica,sans-Serif" font-size="10.00">stddef.h</text>
</g>
<!-- Node8&#45;&gt;Node11 -->
<g id="edge12" class="edge"><title>Node8&#45;&gt;Node11</title>
<path fill="none" stroke="midnightblue" d="M2322.06,-56.3993C2333.06,-47.3076 2347.37,-35.4899 2358.62,-26.1909"/>
<polygon fill="midnightblue" stroke="midnightblue" points="2361.04,-28.726 2366.52,-19.6578 2356.59,-23.33 2361.04,-28.726"/>
</g>
<!-- Node16&#45;&gt;Node3 -->
<g id="edge22" class="edge"><title>Node16&#45;&gt;Node3</title>
<path fill="none" stroke="midnightblue" d="M1240.26,-292.574C1203.48,-283.551 1154.81,-270.393 1113,-255 970.499,-202.535 808.591,-118.425 747.796,-85.9224"/>
<polygon fill="midnightblue" stroke="midnightblue" points="749.392,-82.8067 738.925,-81.1618 746.082,-88.9746 749.392,-82.8067"/>
</g>
<!-- Node16&#45;&gt;Node4 -->
<g id="edge57" class="edge"><title>Node16&#45;&gt;Node4</title>
<path fill="none" stroke="midnightblue" d="M1240.33,-306.404C1138.59,-306.701 918.996,-301.285 741,-255 622.381,-224.155 599.535,-195.951 489,-143 449.293,-123.979 404.012,-100.274 376.739,-85.7705"/>
<polygon fill="midnightblue" stroke="midnightblue" points="378.352,-82.6643 367.881,-81.0471 375.058,-88.841 378.352,-82.6643"/>
</g>
<!-- Node16&#45;&gt;Node7 -->
<g id="edge50" class="edge"><title>Node16&#45;&gt;Node7</title>
<path fill="none" stroke="midnightblue" d="M1296.07,-291.432C1295.17,-264.837 1297.47,-207.317 1331,-179 1361.42,-153.313 1613.59,-140.853 1738.05,-136.222"/>
<polygon fill="midnightblue" stroke="midnightblue" points="1738.37,-139.713 1748.24,-135.85 1738.12,-132.717 1738.37,-139.713"/>
</g>
<!-- Node16&#45;&gt;Node8 -->
<g id="edge23" class="edge"><title>Node16&#45;&gt;Node8</title>
<path fill="none" stroke="midnightblue" d="M1353.62,-303.813C1568.84,-297.27 2324.81,-273.04 2342,-255 2383.73,-211.2 2344.68,-133.911 2320.65,-95.502"/>
<polygon fill="midnightblue" stroke="midnightblue" points="2323.28,-93.1268 2314.92,-86.6186 2317.4,-96.9198 2323.28,-93.1268"/>
</g>
<!-- Node16&#45;&gt;Node12 -->
<g id="edge58" class="edge"><title>Node16&#45;&gt;Node12</title>
<path fill="none" stroke="midnightblue" d="M1249.67,-291.454C1221.35,-282.396 1184.96,-269.602 1154,-255 1045.54,-203.841 927.915,-120.444 882.449,-87.0242"/>
<polygon fill="midnightblue" stroke="midnightblue" points="884.464,-84.1611 874.342,-81.0309 880.302,-89.79 884.464,-84.1611"/>
</g>
<!-- Node16&#45;&gt;Node13 -->
<g id="edge54" class="edge"><title>Node16&#45;&gt;Node13</title>
<path fill="none" stroke="midnightblue" d="M1353.71,-303.92C1567.7,-297.814 2316.37,-275.104 2363,-255 2440.64,-221.523 2425.25,-162.514 2500,-123 2568.79,-86.6383 2661.51,-76.4511 2709.77,-73.602"/>
<polygon fill="midnightblue" stroke="midnightblue" points="2710.13,-77.0885 2719.93,-73.0734 2709.76,-70.0979 2710.13,-77.0885"/>
</g>
<!-- Node17 -->
<g id="node17" class="node"><title>Node17</title>
<g id="a_node17"><a xlink:href="runtime_2module_8h.html" target="_top" xlink:title="Runtime container of the functions generated by TVM, This is used to support dynamically link...">
<polygon fill="white" stroke="black" points="1344,-235.5 1344,-254.5 1468,-254.5 1468,-235.5 1344,-235.5"/>
<text text-anchor="middle" x="1406" y="-242.5" font-family="Helvetica,sans-Serif" font-size="10.00">tvm/runtime/module.h</text>
</a>
</g>
</g>
<!-- Node16&#45;&gt;Node17 -->
<g id="edge24" class="edge"><title>Node16&#45;&gt;Node17</title>
<path fill="none" stroke="midnightblue" d="M1316.99,-291.399C1333.62,-281.639 1357.29,-268.737 1376.13,-259.183"/>
<polygon fill="midnightblue" stroke="midnightblue" points="1377.82,-262.252 1385.21,-254.658 1374.7,-255.987 1377.82,-262.252"/>
</g>
<!-- Node19 -->
<g id="node19" class="node"><title>Node19</title>
<polygon fill="white" stroke="#bfbfbf" points="1340.5,-179.5 1340.5,-198.5 1397.5,-198.5 1397.5,-179.5 1340.5,-179.5"/>
<text text-anchor="middle" x="1369" y="-186.5" font-family="Helvetica,sans-Serif" font-size="10.00">memory</text>
</g>
<!-- Node16&#45;&gt;Node19 -->
<g id="edge56" class="edge"><title>Node16&#45;&gt;Node19</title>
<path fill="none" stroke="midnightblue" d="M1240.34,-291.464C1207.44,-282.041 1170.63,-268.854 1161,-255 1155.93,-247.702 1155.42,-241.918 1161,-235 1181.82,-209.188 1275.74,-197.448 1329.99,-192.737"/>
<polygon fill="midnightblue" stroke="midnightblue" points="1330.59,-196.199 1340.27,-191.887 1330.02,-189.223 1330.59,-196.199"/>
</g>
<!-- Node16&#45;&gt;Node20 -->
<g id="edge53" class="edge"><title>Node16&#45;&gt;Node20</title>
<path fill="none" stroke="midnightblue" d="M1353.85,-292.342C1398.16,-281.572 1455.63,-266.322 1477,-255 1501.26,-242.144 1524.71,-220.623 1539.23,-205.892"/>
<polygon fill="midnightblue" stroke="midnightblue" points="1541.92,-208.141 1546.33,-198.504 1536.87,-203.292 1541.92,-208.141"/>
</g>
<!-- Node22 -->
<g id="node22" class="node"><title>Node22</title>
<g id="a_node22"><a xlink:href="ndarray_8h.html" target="_top" xlink:title="A device&#45;independent managed NDArray abstraction. ">
<polygon fill="white" stroke="black" points="2210.5,-235.5 2210.5,-254.5 2333.5,-254.5 2333.5,-235.5 2210.5,-235.5"/>
<text text-anchor="middle" x="2272" y="-242.5" font-family="Helvetica,sans-Serif" font-size="10.00">tvm/runtime/ndarray.h</text>
</a>
</g>
</g>
<!-- Node16&#45;&gt;Node22 -->
<g id="edge34" class="edge"><title>Node16&#45;&gt;Node22</title>
<path fill="none" stroke="midnightblue" d="M1353.63,-302.044C1521.17,-291.82 2014.2,-261.732 2200.03,-250.392"/>
<polygon fill="midnightblue" stroke="midnightblue" points="2200.47,-253.872 2210.23,-249.769 2200.04,-246.885 2200.47,-253.872"/>
</g>
<!-- Node25 -->
<g id="node25" class="node"><title>Node25</title>
<g id="a_node25"><a xlink:href="data__type_8h.html" target="_top" xlink:title="tvm/runtime/data_type.h">
<polygon fill="white" stroke="black" points="1790,-235.5 1790,-254.5 1926,-254.5 1926,-235.5 1790,-235.5"/>
<text text-anchor="middle" x="1858" y="-242.5" font-family="Helvetica,sans-Serif" font-size="10.00">tvm/runtime/data_type.h</text>
</a>
</g>
</g>
<!-- Node16&#45;&gt;Node25 -->
<g id="edge45" class="edge"><title>Node16&#45;&gt;Node25</title>
<path fill="none" stroke="midnightblue" d="M1353.62,-299.495C1454.35,-288.811 1664.85,-266.486 1779.49,-254.327"/>
<polygon fill="midnightblue" stroke="midnightblue" points="1780.03,-257.789 1789.61,-253.254 1779.29,-250.828 1780.03,-257.789"/>
</g>
<!-- Node26 -->
<g id="node26" class="node"><title>Node26</title>
<polygon fill="white" stroke="#bfbfbf" points="914.5,-235.5 914.5,-254.5 977.5,-254.5 977.5,-235.5 914.5,-235.5"/>
<text text-anchor="middle" x="946" y="-242.5" font-family="Helvetica,sans-Serif" font-size="10.00">functional</text>
</g>
<!-- Node16&#45;&gt;Node26 -->
<g id="edge51" class="edge"><title>Node16&#45;&gt;Node26</title>
<path fill="none" stroke="midnightblue" d="M1240.27,-297.209C1180.11,-288.204 1082.09,-272.923 987.749,-255.055"/>
<polygon fill="midnightblue" stroke="midnightblue" points="988.227,-251.583 977.749,-253.149 986.916,-258.459 988.227,-251.583"/>
</g>
<!-- Node27 -->
<g id="node27" class="node"><title>Node27</title>
<polygon fill="white" stroke="#bfbfbf" points="1170.5,-235.5 1170.5,-254.5 1211.5,-254.5 1211.5,-235.5 1170.5,-235.5"/>
<text text-anchor="middle" x="1191" y="-242.5" font-family="Helvetica,sans-Serif" font-size="10.00">tuple</text>
</g>
<!-- Node16&#45;&gt;Node27 -->
<g id="edge52" class="edge"><title>Node16&#45;&gt;Node27</title>
<path fill="none" stroke="midnightblue" d="M1271.88,-291.399C1254.73,-281.773 1232.14,-269.09 1215.19,-259.577"/>
<polygon fill="midnightblue" stroke="midnightblue" points="1216.86,-256.501 1206.42,-254.658 1213.43,-262.605 1216.86,-256.501"/>
</g>
<!-- Node28 -->
<g id="node28" class="node"><title>Node28</title>
<polygon fill="white" stroke="#bfbfbf" points="996,-235.5 996,-254.5 1038,-254.5 1038,-235.5 996,-235.5"/>
<text text-anchor="middle" x="1017" y="-242.5" font-family="Helvetica,sans-Serif" font-size="10.00">limits</text>
</g>
<!-- Node16&#45;&gt;Node28 -->
<g id="edge55" class="edge"><title>Node16&#45;&gt;Node28</title>
<path fill="none" stroke="midnightblue" d="M1240.23,-293.87C1170.76,-279.63 1061.19,-257.127 1052,-255 1050.73,-254.706 1049.43,-254.399 1048.12,-254.086"/>
<polygon fill="midnightblue" stroke="midnightblue" points="1048.61,-250.6 1038.06,-251.591 1046.92,-257.394 1048.61,-250.6"/>
</g>
<!-- Node17&#45;&gt;Node6 -->
<g id="edge28" class="edge"><title>Node17&#45;&gt;Node6</title>
<path fill="none" stroke="midnightblue" d="M1362.9,-235.444C1315.15,-225.964 1238.14,-210.675 1186.81,-200.483"/>
<polygon fill="midnightblue" stroke="midnightblue" points="1187.39,-197.031 1176.9,-198.516 1186.02,-203.897 1187.39,-197.031"/>
</g>
<!-- Node17&#45;&gt;Node7 -->
<g id="edge27" class="edge"><title>Node17&#45;&gt;Node7</title>
<path fill="none" stroke="midnightblue" d="M1409.23,-235.052C1414.96,-220.565 1428.4,-192.26 1450,-179 1496.91,-150.206 1648.38,-139.731 1738.25,-135.998"/>
<polygon fill="midnightblue" stroke="midnightblue" points="1738.5,-139.491 1748.35,-135.596 1738.22,-132.496 1738.5,-139.491"/>
</g>
<!-- Node17&#45;&gt;Node8 -->
<g id="edge26" class="edge"><title>Node17&#45;&gt;Node8</title>
<path fill="none" stroke="midnightblue" d="M1468.44,-240.816C1584.12,-233.455 1838.42,-210.381 2041,-143 2059.11,-136.976 2061.09,-129.583 2079,-123 2128.47,-104.822 2186.53,-92.0191 2231.42,-83.853"/>
<polygon fill="midnightblue" stroke="midnightblue" points="2232.14,-87.2802 2241.37,-82.0794 2230.91,-80.3888 2232.14,-87.2802"/>
</g>
<!-- Node17&#45;&gt;Node13 -->
<g id="edge31" class="edge"><title>Node17&#45;&gt;Node13</title>
<path fill="none" stroke="midnightblue" d="M1468.25,-242.339C1647.58,-237.31 2157.1,-221.222 2229,-199 2245.39,-193.936 2246.66,-186.674 2262,-179 2321.56,-149.198 2336.72,-140.444 2401,-123 2511.88,-92.9085 2648.22,-79.5496 2709.49,-74.7497"/>
<polygon fill="midnightblue" stroke="midnightblue" points="2709.98,-78.2223 2719.69,-73.9759 2709.45,-71.2423 2709.98,-78.2223"/>
</g>
<!-- Node17&#45;&gt;Node16 -->
<g id="edge33" class="edge"><title>Node17&#45;&gt;Node16</title>
<path fill="none" stroke="midnightblue" d="M1395.07,-254.658C1381.51,-263.047 1358.16,-276.043 1337.58,-286.795"/>
<polygon fill="midnightblue" stroke="midnightblue" points="1335.95,-283.7 1328.67,-291.399 1339.16,-289.919 1335.95,-283.7"/>
</g>
<!-- Node18 -->
<g id="node18" class="node"><title>Node18</title>
<polygon fill="white" stroke="#bfbfbf" points="1972,-123.5 1972,-142.5 2032,-142.5 2032,-123.5 1972,-123.5"/>
<text text-anchor="middle" x="2002" y="-130.5" font-family="Helvetica,sans-Serif" font-size="10.00">dmlc/io.h</text>
</g>
<!-- Node17&#45;&gt;Node18 -->
<g id="edge25" class="edge"><title>Node17&#45;&gt;Node18</title>
<path fill="none" stroke="midnightblue" d="M1417.32,-235.409C1437.12,-220.908 1479.86,-191.901 1521,-179 1562.58,-165.961 1853.66,-144.435 1961.73,-136.795"/>
<polygon fill="midnightblue" stroke="midnightblue" points="1962.18,-140.273 1971.91,-136.079 1961.68,-133.29 1962.18,-140.273"/>
</g>
<!-- Node17&#45;&gt;Node19 -->
<g id="edge29" class="edge"><title>Node17&#45;&gt;Node19</title>
<path fill="none" stroke="midnightblue" d="M1399.89,-235.083C1394.72,-227.534 1387.15,-216.495 1380.81,-207.23"/>
<polygon fill="midnightblue" stroke="midnightblue" points="1383.54,-205.022 1375,-198.751 1377.76,-208.979 1383.54,-205.022"/>
</g>
<!-- Node17&#45;&gt;Node20 -->
<g id="edge30" class="edge"><title>Node17&#45;&gt;Node20</title>
<path fill="none" stroke="midnightblue" d="M1429.45,-235.444C1454.13,-226.438 1493.19,-212.189 1520.98,-202.049"/>
<polygon fill="midnightblue" stroke="midnightblue" points="1522.46,-205.232 1530.66,-198.516 1520.06,-198.656 1522.46,-205.232"/>
</g>
<!-- Node21 -->
<g id="node21" class="node"><title>Node21</title>
<polygon fill="white" stroke="#bfbfbf" points="294.5,-179.5 294.5,-198.5 387.5,-198.5 387.5,-179.5 294.5,-179.5"/>
<text text-anchor="middle" x="341" y="-186.5" font-family="Helvetica,sans-Serif" font-size="10.00">unordered_map</text>
</g>
<!-- Node17&#45;&gt;Node21 -->
<g id="edge32" class="edge"><title>Node17&#45;&gt;Node21</title>
<path fill="none" stroke="midnightblue" d="M1343.75,-240.844C1153.35,-231.19 580.708,-202.154 397.812,-192.881"/>
<polygon fill="midnightblue" stroke="midnightblue" points="397.772,-189.374 387.607,-192.363 397.417,-196.365 397.772,-189.374"/>
</g>
<!-- Node22&#45;&gt;Node4 -->
<g id="edge44" class="edge"><title>Node22&#45;&gt;Node4</title>
<path fill="none" stroke="midnightblue" d="M2214.6,-235.486C2152.98,-226.001 2059.3,-210.492 2025,-199 1953.76,-175.134 1946.83,-141.45 1874,-123 1744.37,-90.1612 804.632,-92.0363 671,-87 565.608,-83.028 440.693,-76.952 383.471,-74.0926"/>
<polygon fill="midnightblue" stroke="midnightblue" points="383.437,-70.5865 373.274,-73.5812 383.087,-77.5778 383.437,-70.5865"/>
</g>
<!-- Node22&#45;&gt;Node7 -->
<g id="edge36" class="edge"><title>Node22&#45;&gt;Node7</title>
<path fill="none" stroke="midnightblue" d="M2210.39,-236.573C2136.06,-227.295 2015.63,-211.161 1972,-199 1949.74,-192.795 1945.45,-187.593 1924,-179 1895.54,-167.6 1862.97,-155.12 1839.44,-146.2"/>
<polygon fill="midnightblue" stroke="midnightblue" points="1840.53,-142.873 1829.94,-142.609 1838.06,-149.42 1840.53,-142.873"/>
</g>
<!-- Node22&#45;&gt;Node8 -->
<g id="edge35" class="edge"><title>Node22&#45;&gt;Node8</title>
<path fill="none" stroke="midnightblue" d="M2279.29,-235.375C2286.07,-226.781 2295.73,-212.897 2300,-199 2310.56,-164.623 2309.66,-122.512 2307.64,-96.5978"/>
<polygon fill="midnightblue" stroke="midnightblue" points="2311.12,-96.1984 2306.74,-86.5531 2304.15,-96.8269 2311.12,-96.1984"/>
</g>
<!-- Node22&#45;&gt;Node14 -->
<g id="edge42" class="edge"><title>Node22&#45;&gt;Node14</title>
<path fill="none" stroke="midnightblue" d="M2223.31,-235.485C2184.22,-227.949 2128.26,-215.571 2081,-199 2026.22,-179.792 2012.21,-173.8 1963,-143 1936.48,-126.398 1908.77,-103.043 1891.69,-87.8404"/>
<polygon fill="midnightblue" stroke="midnightblue" points="1893.99,-85.1964 1884.22,-81.0975 1889.3,-90.3944 1893.99,-85.1964"/>
</g>
<!-- Node22&#45;&gt;Node20 -->
<g id="edge43" class="edge"><title>Node22&#45;&gt;Node20</title>
<path fill="none" stroke="midnightblue" d="M2210.22,-236.434C2205.41,-235.921 2200.63,-235.436 2196,-235 1963.84,-213.13 1683.52,-197.01 1587.87,-191.801"/>
<polygon fill="midnightblue" stroke="midnightblue" points="1587.82,-188.293 1577.64,-191.247 1587.44,-195.283 1587.82,-188.293"/>
</g>
<!-- Node23 -->
<g id="node23" class="node"><title>Node23</title>
<g id="a_node23"><a xlink:href="serializer_8h.html" target="_top" xlink:title="Serializer extension to support TVM data types Include this file to enable serialization of DLDataTyp...">
<polygon fill="white" stroke="black" points="2090,-179.5 2090,-198.5 2220,-198.5 2220,-179.5 2090,-179.5"/>
<text text-anchor="middle" x="2155" y="-186.5" font-family="Helvetica,sans-Serif" font-size="10.00">tvm/runtime/serializer.h</text>
</a>
</g>
</g>
<!-- Node22&#45;&gt;Node23 -->
<g id="edge37" class="edge"><title>Node22&#45;&gt;Node23</title>
<path fill="none" stroke="midnightblue" d="M2248.37,-235.444C2227.64,-226.754 2197.97,-213.183 2177.56,-203.131"/>
<polygon fill="midnightblue" stroke="midnightblue" points="2178.88,-199.875 2168.37,-198.516 2175.74,-206.131 2178.88,-199.875"/>
</g>
<!-- Node23&#45;&gt;Node8 -->
<g id="edge40" class="edge"><title>Node23&#45;&gt;Node8</title>
<path fill="none" stroke="midnightblue" d="M2165.04,-179.353C2179.87,-166.673 2208.61,-142.433 2234,-123 2247.47,-112.69 2262.76,-101.724 2275.69,-92.6542"/>
<polygon fill="midnightblue" stroke="midnightblue" points="2278.02,-95.3001 2284.22,-86.7094 2274.01,-89.5581 2278.02,-95.3001"/>
</g>
<!-- Node23&#45;&gt;Node18 -->
<g id="edge38" class="edge"><title>Node23&#45;&gt;Node18</title>
<path fill="none" stroke="midnightblue" d="M2130.76,-179.444C2105.13,-170.399 2064.51,-156.064 2035.76,-145.916"/>
<polygon fill="midnightblue" stroke="midnightblue" points="2036.72,-142.544 2026.13,-142.516 2034.39,-149.145 2036.72,-142.544"/>
</g>
<!-- Node23&#45;&gt;Node22 -->
<g id="edge41" class="edge"><title>Node23&#45;&gt;Node22</title>
<path fill="none" stroke="midnightblue" d="M2178.86,-198.655C2199.49,-207.307 2228.83,-220.727 2249.15,-230.726"/>
<polygon fill="midnightblue" stroke="midnightblue" points="2247.81,-233.971 2258.32,-235.324 2250.95,-227.713 2247.81,-233.971"/>
</g>
<!-- Node24 -->
<g id="node24" class="node"><title>Node24</title>
<polygon fill="white" stroke="#bfbfbf" points="2088,-123.5 2088,-142.5 2182,-142.5 2182,-123.5 2088,-123.5"/>
<text text-anchor="middle" x="2135" y="-130.5" font-family="Helvetica,sans-Serif" font-size="10.00">dmlc/serializer.h</text>
</g>
<!-- Node23&#45;&gt;Node24 -->
<g id="edge39" class="edge"><title>Node23&#45;&gt;Node24</title>
<path fill="none" stroke="midnightblue" d="M2151.7,-179.083C2149.02,-171.849 2145.15,-161.409 2141.81,-152.397"/>
<polygon fill="midnightblue" stroke="midnightblue" points="2145,-150.913 2138.24,-142.751 2138.43,-153.344 2145,-150.913"/>
</g>
<!-- Node25&#45;&gt;Node3 -->
<g id="edge47" class="edge"><title>Node25&#45;&gt;Node3</title>
<path fill="none" stroke="midnightblue" d="M1826.81,-235.447C1776.48,-221.895 1674.07,-195.351 1586,-179 1248.87,-116.411 1160.17,-130.1 820,-87 805.863,-85.2089 790.603,-83.0392 776.465,-80.93"/>
<polygon fill="midnightblue" stroke="midnightblue" points="776.811,-77.4426 766.401,-79.411 775.766,-84.3642 776.811,-77.4426"/>
</g>
<!-- Node25&#45;&gt;Node8 -->
<g id="edge46" class="edge"><title>Node25&#45;&gt;Node8</title>
<path fill="none" stroke="midnightblue" d="M1926.06,-242.786C2019.21,-239.953 2180.41,-230.504 2229,-199 2266.11,-174.936 2287.73,-125.796 2297.88,-96.3469"/>
<polygon fill="midnightblue" stroke="midnightblue" points="2301.21,-97.4176 2301,-86.8249 2294.56,-95.2402 2301.21,-97.4176"/>
</g>
<!-- Node25&#45;&gt;Node12 -->
<g id="edge48" class="edge"><title>Node25&#45;&gt;Node12</title>
<path fill="none" stroke="midnightblue" d="M1819.97,-235.472C1796.16,-228.664 1765.96,-217.187 1744,-199 1713.23,-173.517 1730.39,-143.335 1696,-123 1627.97,-82.7706 1070.7,-74.4318 907.651,-72.8465"/>
<polygon fill="midnightblue" stroke="midnightblue" points="907.523,-69.3453 897.491,-72.7516 907.458,-76.345 907.523,-69.3453"/>
</g>
<!-- Node25&#45;&gt;Node13 -->
<g id="edge49" class="edge"><title>Node25&#45;&gt;Node13</title>
<path fill="none" stroke="midnightblue" d="M1926.1,-241.167C2005.68,-236.734 2140.86,-225.697 2254,-199 2349.79,-176.396 2367,-148.718 2462,-123 2550.32,-99.0906 2657.43,-83.3415 2709.89,-76.4619"/>
<polygon fill="midnightblue" stroke="midnightblue" points="2710.46,-79.9173 2719.93,-75.1665 2709.57,-72.9748 2710.46,-79.9173"/>
</g>
<!-- Node31&#45;&gt;Node4 -->
<g id="edge74" class="edge"><title>Node31&#45;&gt;Node4</title>
<path fill="none" stroke="midnightblue" d="M846.384,-422.56C772.192,-420.477 642.409,-411.752 537,-378 352.897,-319.05 254.74,-317.232 171,-143 142.601,-83.9124 261.707,-73.9103 320.671,-72.5179"/>
<polygon fill="midnightblue" stroke="midnightblue" points="320.991,-76.0132 330.932,-72.3482 320.875,-69.0142 320.991,-76.0132"/>
</g>
<!-- Node31&#45;&gt;Node5 -->
<g id="edge69" class="edge"><title>Node31&#45;&gt;Node5</title>
<path fill="none" stroke="midnightblue" d="M866.704,-414.444C823.441,-405.023 753.827,-389.866 707.027,-379.675"/>
<polygon fill="midnightblue" stroke="midnightblue" points="707.628,-376.224 697.112,-377.516 706.139,-383.064 707.628,-376.224"/>
</g>
<!-- Node31&#45;&gt;Node6 -->
<g id="edge67" class="edge"><title>Node31&#45;&gt;Node6</title>
<path fill="none" stroke="midnightblue" d="M906.358,-414.176C906.808,-390.654 904.666,-325.871 870,-291 825.934,-246.674 699.394,-281.642 741,-235 746.264,-229.098 947.523,-208.382 1059.93,-197.233"/>
<polygon fill="midnightblue" stroke="midnightblue" points="1060.58,-200.685 1070.19,-196.217 1059.89,-193.719 1060.58,-200.685"/>
</g>
<!-- Node31&#45;&gt;Node7 -->
<g id="edge66" class="edge"><title>Node31&#45;&gt;Node7</title>
<path fill="none" stroke="midnightblue" d="M965.656,-415.785C1054.43,-403.728 1225.5,-375.375 1362,-322 1417.09,-300.458 1435.23,-296.885 1477,-255 1504.56,-227.364 1488.81,-201.071 1521,-179 1555.35,-155.45 1665.06,-143.533 1738.18,-138.056"/>
<polygon fill="midnightblue" stroke="midnightblue" points="1738.52,-141.541 1748.24,-137.326 1738.01,-134.559 1738.52,-141.541"/>
</g>
<!-- Node31&#45;&gt;Node12 -->
<g id="edge70" class="edge"><title>Node31&#45;&gt;Node12</title>
<path fill="none" stroke="midnightblue" d="M900.664,-414.266C886.415,-391.51 845.314,-329.495 798,-291 771.169,-269.17 746.931,-284.579 729,-255 688.705,-188.527 790.625,-115.85 839.089,-86.2197"/>
<polygon fill="midnightblue" stroke="midnightblue" points="840.959,-89.1798 847.741,-81.0404 837.363,-83.1737 840.959,-89.1798"/>
</g>
<!-- Node31&#45;&gt;Node13 -->
<g id="edge75" class="edge"><title>Node31&#45;&gt;Node13</title>
<path fill="none" stroke="midnightblue" d="M965.762,-416.358C1111.02,-400.213 1494.19,-357.617 1814,-322 1937.56,-308.239 1968.42,-304.57 2092,-291 2239.97,-274.751 2285.61,-307.256 2425,-255 2520.94,-219.034 2523.73,-171.466 2614,-123 2645.35,-106.166 2683.56,-91.8237 2710.03,-82.7733"/>
<polygon fill="midnightblue" stroke="midnightblue" points="2711.19,-86.0736 2719.56,-79.5695 2708.96,-79.4385 2711.19,-86.0736"/>
</g>
<!-- Node31&#45;&gt;Node16 -->
<g id="edge68" class="edge"><title>Node31&#45;&gt;Node16</title>
<path fill="none" stroke="midnightblue" d="M927.731,-414.458C961.766,-401.268 1029.87,-375.627 1089,-358 1135.72,-344.073 1189.17,-331.158 1230.2,-321.876"/>
<polygon fill="midnightblue" stroke="midnightblue" points="1231.09,-325.262 1240.08,-319.655 1229.55,-318.433 1231.09,-325.262"/>
</g>
<!-- Node31&#45;&gt;Node20 -->
<g id="edge71" class="edge"><title>Node31&#45;&gt;Node20</title>
<path fill="none" stroke="midnightblue" d="M965.665,-415.928C1059.61,-403.652 1246.86,-374.539 1398,-322 1460.52,-300.267 1487.25,-304.668 1531,-255 1542.49,-241.958 1548.34,-222.803 1551.26,-208.663"/>
<polygon fill="midnightblue" stroke="midnightblue" points="1554.74,-209.064 1553.02,-198.61 1547.85,-207.857 1554.74,-209.064"/>
</g>
<!-- Node31&#45;&gt;Node21 -->
<g id="edge73" class="edge"><title>Node31&#45;&gt;Node21</title>
<path fill="none" stroke="midnightblue" d="M846.313,-421.659C780.222,-418.593 671.344,-408.807 583,-378 481.187,-342.496 388.904,-245.376 354.875,-206.453"/>
<polygon fill="midnightblue" stroke="midnightblue" points="357.352,-203.967 348.175,-198.673 352.048,-208.534 357.352,-203.967"/>
</g>
<!-- Node31&#45;&gt;Node30 -->
<g id="edge72" class="edge"><title>Node31&#45;&gt;Node30</title>
<path fill="none" stroke="midnightblue" d="M893.126,-414.207C880.113,-405.259 859.484,-390.908 842,-378 816.715,-359.332 788.154,-336.994 769.884,-322.541"/>
<polygon fill="midnightblue" stroke="midnightblue" points="771.811,-319.602 761.801,-316.129 767.461,-325.086 771.811,-319.602"/>
</g>
<!-- Node32&#45;&gt;Node13 -->
<g id="edge167" class="edge"><title>Node32&#45;&gt;Node13</title>
<path fill="none" stroke="midnightblue" d="M2667.7,-992.012C2772.04,-985.71 3046,-961.76 3046,-884 3046,-884 3046,-884 3046,-188 3046,-152.864 3030.41,-142.223 3001,-123 2963.92,-98.7643 2835.06,-82.3264 2774.25,-75.7356"/>
<polygon fill="midnightblue" stroke="midnightblue" points="2774.38,-72.2298 2764.06,-74.6553 2773.64,-79.1907 2774.38,-72.2298"/>
</g>
<!-- Node32&#45;&gt;Node20 -->
<g id="edge168" class="edge"><title>Node32&#45;&gt;Node20</title>
<path fill="none" stroke="midnightblue" d="M2633.28,-985.231C2643.73,-967.043 2666,-923.601 2666,-884 2666,-884 2666,-884 2666,-714 2666,-224.64 1773.87,-191.525 1587.77,-189.941"/>
<polygon fill="midnightblue" stroke="midnightblue" points="1587.76,-186.441 1577.74,-189.882 1587.72,-193.441 1587.76,-186.441"/>
</g>
<!-- Node32&#45;&gt;Node21 -->
<g id="edge170" class="edge"><title>Node32&#45;&gt;Node21</title>
<path fill="none" stroke="midnightblue" d="M2588.14,-993.284C2272.2,-987.484 185,-946.789 185,-884 185,-884 185,-884 185,-826 185,-674.4 152,-638.1 152,-486.5 152,-486.5 152,-486.5 152,-367 152,-282.147 254.746,-226.198 308.726,-202.659"/>
<polygon fill="midnightblue" stroke="midnightblue" points="310.362,-205.767 318.202,-198.641 307.629,-199.322 310.362,-205.767"/>
</g>
<!-- Node33 -->
<g id="node33" class="node"><title>Node33</title>
<g id="a_node33"><a xlink:href="span_8h.html" target="_top" xlink:title="Span information for debugging purposes. ">
<polygon fill="white" stroke="black" points="2362,-649.5 2362,-668.5 2442,-668.5 2442,-649.5 2362,-649.5"/>
<text text-anchor="middle" x="2402" y="-656.5" font-family="Helvetica,sans-Serif" font-size="10.00">tvm/ir/span.h</text>
</a>
</g>
</g>
<!-- Node32&#45;&gt;Node33 -->
<g id="edge77" class="edge"><title>Node32&#45;&gt;Node33</title>
<path fill="none" stroke="midnightblue" d="M2628,-985.442C2628,-966.936 2628,-921.812 2628,-884 2628,-884 2628,-884 2628,-770 2628,-692.439 2519.06,-669.554 2452.45,-662.81"/>
<polygon fill="midnightblue" stroke="midnightblue" points="2452.42,-659.293 2442.14,-661.86 2451.78,-666.263 2452.42,-659.293"/>
</g>
<!-- Node32&#45;&gt;Node41 -->
<g id="edge121" class="edge"><title>Node32&#45;&gt;Node41</title>
<path fill="none" stroke="midnightblue" d="M2588.27,-991.645C2443.28,-983.05 1942.3,-953.355 1773.23,-943.333"/>
<polygon fill="midnightblue" stroke="midnightblue" points="1773.25,-939.828 1763.06,-942.73 1772.83,-946.816 1773.25,-939.828"/>
</g>
<!-- Node50 -->
<g id="node50" class="node"><title>Node50</title>
<polygon fill="white" stroke="#bfbfbf" points="2694,-929.5 2694,-948.5 2750,-948.5 2750,-929.5 2694,-929.5"/>
<text text-anchor="middle" x="2722" y="-936.5" font-family="Helvetica,sans-Serif" font-size="10.00">sstream</text>
</g>
<!-- Node32&#45;&gt;Node50 -->
<g id="edge169" class="edge"><title>Node32&#45;&gt;Node50</title>
<path fill="none" stroke="midnightblue" d="M2643.1,-985.324C2657.9,-976.822 2680.69,-963.729 2697.98,-953.797"/>
<polygon fill="midnightblue" stroke="midnightblue" points="2700.01,-956.671 2706.93,-948.655 2696.52,-950.601 2700.01,-956.671"/>
</g>
<!-- Node33&#45;&gt;Node7 -->
<g id="edge78" class="edge"><title>Node33&#45;&gt;Node7</title>
<path fill="none" stroke="midnightblue" d="M2397.95,-649.379C2389.77,-631.114 2372,-586.996 2372,-548 2372,-548 2372,-548 2372,-484.5 2372,-382.357 2332.37,-348.576 2248,-291 2202.71,-260.093 2181.59,-273.567 2130,-255 2108.25,-247.174 2104.13,-241.675 2082,-235 2001.39,-210.682 1973.19,-232.64 1896,-199 1868.22,-186.892 1840.74,-164.885 1823.83,-149.862"/>
<polygon fill="midnightblue" stroke="midnightblue" points="1825.76,-146.88 1816.01,-142.733 1821.04,-152.054 1825.76,-146.88"/>
</g>
<!-- Node33&#45;&gt;Node13 -->
<g id="edge120" class="edge"><title>Node33&#45;&gt;Node13</title>
<path fill="none" stroke="midnightblue" d="M2409.76,-649.349C2451.45,-602.328 2649.93,-371.21 2733,-143 2739.13,-126.166 2741.2,-105.75 2741.85,-91.2303"/>
<polygon fill="midnightblue" stroke="midnightblue" points="2745.35,-91.1171 2742.11,-81.0304 2738.35,-90.9372 2745.35,-91.1171"/>
</g>
<!-- Node34 -->
<g id="node34" class="node"><title>Node34</title>
<g id="a_node34"><a xlink:href="node_8h.html" target="_top" xlink:title="Definitions and helper macros for IR/AST nodes. ">
<polygon fill="white" stroke="black" points="1523,-593.5 1523,-612.5 1621,-612.5 1621,-593.5 1523,-593.5"/>
<text text-anchor="middle" x="1572" y="-600.5" font-family="Helvetica,sans-Serif" font-size="10.00">tvm/node/node.h</text>
</a>
</g>
</g>
<!-- Node33&#45;&gt;Node34 -->
<g id="edge79" class="edge"><title>Node33&#45;&gt;Node34</title>
<path fill="none" stroke="midnightblue" d="M2361.97,-655.395C2227.38,-646.639 1790.74,-618.231 1631.13,-607.847"/>
<polygon fill="midnightblue" stroke="midnightblue" points="1631.23,-604.346 1621.02,-607.189 1630.77,-611.331 1631.23,-604.346"/>
</g>
<!-- Node34&#45;&gt;Node4 -->
<g id="edge118" class="edge"><title>Node34&#45;&gt;Node4</title>
<path fill="none" stroke="midnightblue" d="M1522.76,-598.609C1433.24,-592.21 1237.92,-577.162 1074,-557 855.228,-530.092 114,-527.921 114,-307.5 114,-307.5 114,-307.5 114,-188 114,-97.0724 256.342,-77.7054 320.865,-73.5973"/>
<polygon fill="midnightblue" stroke="midnightblue" points="321.088,-77.0904 330.879,-73.0434 320.701,-70.1011 321.088,-77.0904"/>
</g>
<!-- Node34&#45;&gt;Node5 -->
<g id="edge81" class="edge"><title>Node34&#45;&gt;Node5</title>
<path fill="none" stroke="midnightblue" d="M1522.74,-600.974C1442.66,-598.38 1279.75,-589.234 1146,-557 963.069,-512.915 756.489,-416.992 684.447,-382.059"/>
<polygon fill="midnightblue" stroke="midnightblue" points="685.713,-378.783 675.191,-377.546 682.646,-385.075 685.713,-378.783"/>
</g>
<!-- Node34&#45;&gt;Node6 -->
<g id="edge83" class="edge"><title>Node34&#45;&gt;Node6</title>
<path fill="none" stroke="midnightblue" d="M1572,-593.307C1572,-574.062 1572,-526.404 1572,-486.5 1572,-486.5 1572,-486.5 1572,-423 1572,-345.62 1338.02,-285.731 1267,-255 1228.98,-238.546 1186.1,-217.04 1159.56,-203.369"/>
<polygon fill="midnightblue" stroke="midnightblue" points="1161.05,-200.2 1150.56,-198.711 1157.84,-206.416 1161.05,-200.2"/>
</g>
<!-- Node34&#45;&gt;Node7 -->
<g id="edge82" class="edge"><title>Node34&#45;&gt;Node7</title>
<path fill="none" stroke="midnightblue" d="M1621.23,-596.206C1707.16,-585.922 1876.42,-564.824 1887,-557 1987.8,-482.425 2007.13,-413.634 1981,-291 1975.32,-264.342 1976.76,-252.66 1956,-235 1908.37,-194.488 1862.84,-244.548 1820,-199 1808.55,-186.828 1805.91,-167.556 1805.76,-153.152"/>
<polygon fill="midnightblue" stroke="midnightblue" points="1809.27,-152.97 1806.06,-142.872 1802.27,-152.766 1809.27,-152.97"/>
</g>
<!-- Node34&#45;&gt;Node8 -->
<g id="edge80" class="edge"><title>Node34&#45;&gt;Node8</title>
<path fill="none" stroke="midnightblue" d="M1621.08,-597.795C1687.83,-591.565 1810.77,-578.273 1914,-557 2024.28,-534.275 2326.29,-472.177 2388,-378 2450.2,-283.082 2443.17,-213.721 2375,-123 2365.87,-110.854 2352.99,-100.407 2340.77,-92.2191"/>
<polygon fill="midnightblue" stroke="midnightblue" points="2342.36,-89.083 2332.05,-86.6643 2338.6,-94.9876 2342.36,-89.083"/>
</g>
<!-- Node34&#45;&gt;Node12 -->
<g id="edge119" class="edge"><title>Node34&#45;&gt;Node12</title>
<path fill="none" stroke="midnightblue" d="M1533.04,-593.462C1483.41,-580.026 1404,-548.795 1404,-486.5 1404,-486.5 1404,-486.5 1404,-423 1404,-364.498 944.28,-298.355 905,-255 862.65,-208.256 860.367,-127.55 861.745,-91.2013"/>
<polygon fill="midnightblue" stroke="midnightblue" points="865.249,-91.2268 862.275,-81.0578 858.258,-90.8615 865.249,-91.2268"/>
</g>
<!-- Node34&#45;&gt;Node13 -->
<g id="edge116" class="edge"><title>Node34&#45;&gt;Node13</title>
<path fill="none" stroke="midnightblue" d="M1621.24,-600.133C1729.94,-594.741 1997.35,-574.456 2207,-501 2273.24,-477.792 2290.01,-470.43 2350,-434 2496.87,-344.811 2527.74,-312.22 2657,-199 2683.48,-175.808 2693.48,-172.29 2713,-143 2723.76,-126.852 2731.71,-106.074 2736.54,-91.2676"/>
<polygon fill="midnightblue" stroke="midnightblue" points="2740.01,-91.8716 2739.61,-81.2843 2733.32,-89.8094 2740.01,-91.8716"/>
</g>
<!-- Node34&#45;&gt;Node20 -->
<g id="edge117" class="edge"><title>Node34&#45;&gt;Node20</title>
<path fill="none" stroke="midnightblue" d="M1575.6,-593.222C1579.06,-584.285 1584.03,-569.942 1586,-557 1599.29,-469.559 1594.31,-446.053 1586,-358 1580.81,-302.977 1566.25,-239.15 1558.69,-208.412"/>
<polygon fill="midnightblue" stroke="midnightblue" points="1562.07,-207.514 1556.25,-198.662 1555.28,-209.212 1562.07,-207.514"/>
</g>
<!-- Node34&#45;&gt;Node31 -->
<g id="edge113" class="edge"><title>Node34&#45;&gt;Node31</title>
<path fill="none" stroke="midnightblue" d="M1522.99,-599.126C1433.75,-593.421 1248.38,-579.261 1188,-557 1122.77,-532.951 1120.94,-499.537 1058,-470 1025.66,-454.82 987.026,-443.464 956.804,-435.956"/>
<polygon fill="midnightblue" stroke="midnightblue" points="957.441,-432.51 946.898,-433.558 955.794,-439.313 957.441,-432.51"/>
</g>
<!-- Node35 -->
<g id="node35" class="node"><title>Node35</title>
<g id="a_node35"><a xlink:href="reflection_8h.html" target="_top" xlink:title="Reflection and serialization of compiler IR/AST nodes. ">
<polygon fill="white" stroke="black" points="1759.5,-537.5 1759.5,-556.5 1878.5,-556.5 1878.5,-537.5 1759.5,-537.5"/>
<text text-anchor="middle" x="1819" y="-544.5" font-family="Helvetica,sans-Serif" font-size="10.00">tvm/node/reflection.h</text>
</a>
</g>
</g>
<!-- Node34&#45;&gt;Node35 -->
<g id="edge84" class="edge"><title>Node34&#45;&gt;Node35</title>
<path fill="none" stroke="midnightblue" d="M1611.14,-593.444C1654.23,-584.023 1723.56,-568.866 1770.17,-558.675"/>
<polygon fill="midnightblue" stroke="midnightblue" points="1771.02,-562.072 1780.05,-556.516 1769.53,-555.233 1771.02,-562.072"/>
</g>
<!-- Node36 -->
<g id="node36" class="node"><title>Node36</title>
<g id="a_node36"><a xlink:href="structural__equal_8h.html" target="_top" xlink:title="Structural equality comparison. ">
<polygon fill="white" stroke="black" points="1148.5,-470.5 1148.5,-500.5 1259.5,-500.5 1259.5,-470.5 1148.5,-470.5"/>
<text text-anchor="start" x="1156.5" y="-488.5" font-family="Helvetica,sans-Serif" font-size="10.00">tvm/node/structural</text>
<text text-anchor="middle" x="1204" y="-477.5" font-family="Helvetica,sans-Serif" font-size="10.00">_equal.h</text>
</a>
</g>
</g>
<!-- Node34&#45;&gt;Node36 -->
<g id="edge114" class="edge"><title>Node34&#45;&gt;Node36</title>
<path fill="none" stroke="midnightblue" d="M1522.89,-599.645C1426.53,-594.519 1220.15,-580.854 1199,-557 1187.95,-544.542 1190.02,-525.485 1194.41,-510.323"/>
<polygon fill="midnightblue" stroke="midnightblue" points="1197.81,-511.173 1197.68,-500.579 1191.18,-508.944 1197.81,-511.173"/>
</g>
<!-- Node38 -->
<g id="node38" class="node"><title>Node38</title>
<g id="a_node38"><a xlink:href="structural__hash_8h.html" target="_top" xlink:title="tvm/node/structural\l_hash.h">
<polygon fill="white" stroke="black" points="1432.5,-470.5 1432.5,-500.5 1543.5,-500.5 1543.5,-470.5 1432.5,-470.5"/>
<text text-anchor="start" x="1440.5" y="-488.5" font-family="Helvetica,sans-Serif" font-size="10.00">tvm/node/structural</text>
<text text-anchor="middle" x="1488" y="-477.5" font-family="Helvetica,sans-Serif" font-size="10.00">_hash.h</text>
</a>
</g>
</g>
<!-- Node34&#45;&gt;Node38 -->
<g id="edge115" class="edge"><title>Node34&#45;&gt;Node38</title>
<path fill="none" stroke="midnightblue" d="M1565.69,-593.319C1552.79,-575.579 1523.04,-534.682 1504.33,-508.951"/>
<polygon fill="midnightblue" stroke="midnightblue" points="1506.93,-506.574 1498.21,-500.545 1501.27,-510.691 1506.93,-506.574"/>
</g>
<!-- Node39 -->
<g id="node39" class="node"><title>Node39</title>
<g id="a_node39"><a xlink:href="repr__printer_8h.html" target="_top" xlink:title="Printer class to print repr string of each AST/IR nodes. ">
<polygon fill="white" stroke="black" points="1208,-537.5 1208,-556.5 1338,-556.5 1338,-537.5 1208,-537.5"/>
<text text-anchor="middle" x="1273" y="-544.5" font-family="Helvetica,sans-Serif" font-size="10.00">tvm/node/repr_printer.h</text>
</a>
</g>
</g>
<!-- Node34&#45;&gt;Node39 -->
<g id="edge110" class="edge"><title>Node34&#45;&gt;Node39</title>
<path fill="none" stroke="midnightblue" d="M1524.62,-593.444C1471.92,-583.925 1386.77,-568.547 1330.34,-558.356"/>
<polygon fill="midnightblue" stroke="midnightblue" points="1330.62,-554.849 1320.16,-556.516 1329.37,-561.738 1330.62,-554.849"/>
</g>
<!-- Node35&#45;&gt;Node6 -->
<g id="edge87" class="edge"><title>Node35&#45;&gt;Node6</title>
<path fill="none" stroke="midnightblue" d="M1810.37,-537.074C1773.65,-499.694 1625.24,-354.736 1472,-291 1413.87,-266.823 1395.42,-272.692 1335,-255 1276.11,-237.755 1208.33,-215.285 1168.45,-201.787"/>
<polygon fill="midnightblue" stroke="midnightblue" points="1169.52,-198.457 1158.93,-198.558 1167.27,-205.086 1169.52,-198.457"/>
</g>
<!-- Node35&#45;&gt;Node7 -->
<g id="edge86" class="edge"><title>Node35&#45;&gt;Node7</title>
<path fill="none" stroke="midnightblue" d="M1834.4,-537.495C1847.16,-529.653 1864.82,-516.844 1875,-501 1940.52,-399.046 2010.24,-330.004 1935,-235 1891.63,-180.238 1825.37,-253.762 1782,-199 1770.69,-184.715 1781.36,-164.72 1792.05,-150.69"/>
<polygon fill="midnightblue" stroke="midnightblue" points="1794.87,-152.777 1798.52,-142.83 1789.46,-148.331 1794.87,-152.777"/>
</g>
<!-- Node35&#45;&gt;Node8 -->
<g id="edge85" class="edge"><title>Node35&#45;&gt;Node8</title>
<path fill="none" stroke="midnightblue" d="M1872.81,-537.485C1911.34,-530.365 1963.97,-518.521 2008,-501 2097.18,-465.514 2315.57,-338.442 2363,-255 2392.04,-203.903 2385.51,-173.238 2355,-123 2348.46,-112.233 2339.19,-102.023 2330.4,-93.6367"/>
<polygon fill="midnightblue" stroke="midnightblue" points="2332.62,-90.9292 2322.88,-86.7688 2327.9,-96.0975 2332.62,-90.9292"/>
</g>
<!-- Node35&#45;&gt;Node12 -->
<g id="edge109" class="edge"><title>Node35&#45;&gt;Node12</title>
<path fill="none" stroke="midnightblue" d="M1820.52,-537.093C1822.74,-522.883 1826.36,-494.216 1824,-470 1813.01,-357.026 1814.69,-303.255 1724,-235 1592.12,-135.746 1065.11,-87.9947 907.648,-75.7526"/>
<polygon fill="midnightblue" stroke="midnightblue" points="907.627,-72.2408 897.389,-74.9648 907.091,-79.2202 907.627,-72.2408"/>
</g>
<!-- Node35&#45;&gt;Node13 -->
<g id="edge108" class="edge"><title>Node35&#45;&gt;Node13</title>
<path fill="none" stroke="midnightblue" d="M1878.94,-539.534C1927.42,-533.134 1996.92,-521.286 2055,-501 2327.52,-405.821 2394.61,-366.08 2630,-199 2659.75,-177.887 2665.74,-170.238 2690,-143 2705.27,-125.859 2720.61,-104.423 2730.63,-89.715"/>
<polygon fill="midnightblue" stroke="midnightblue" points="2733.72,-91.3875 2736.39,-81.1343 2727.91,-87.4852 2733.72,-91.3875"/>
</g>
<!-- Node35&#45;&gt;Node16 -->
<g id="edge88" class="edge"><title>Node35&#45;&gt;Node16</title>
<path fill="none" stroke="midnightblue" d="M1794.11,-537.361C1771.58,-529.163 1737.78,-515.907 1710,-501 1609.85,-447.263 1601.79,-404.321 1498,-358 1455.14,-338.871 1403.77,-326.124 1363.69,-318.223"/>
<polygon fill="midnightblue" stroke="midnightblue" points="1364.24,-314.764 1353.76,-316.317 1362.92,-321.638 1364.24,-314.764"/>
</g>
<!-- Node35&#45;&gt;Node20 -->
<g id="edge107" class="edge"><title>Node35&#45;&gt;Node20</title>
<path fill="none" stroke="midnightblue" d="M1818.37,-537.327C1814.96,-496.73 1795.11,-323.733 1700,-235 1662.26,-199.788 1637.37,-213.494 1587.19,-200.369"/>
<polygon fill="midnightblue" stroke="midnightblue" points="1588.1,-196.987 1577.52,-197.588 1586.16,-203.714 1588.1,-196.987"/>
</g>
<!-- Node35&#45;&gt;Node22 -->
<g id="edge89" class="edge"><title>Node35&#45;&gt;Node22</title>
<path fill="none" stroke="midnightblue" d="M1863.88,-537.435C1894.46,-530.426 1935.2,-518.735 1968,-501 2093.81,-432.98 2215.51,-307.566 2257.01,-262.592"/>
<polygon fill="midnightblue" stroke="midnightblue" points="2259.85,-264.676 2264.02,-254.936 2254.68,-259.951 2259.85,-264.676"/>
</g>
<!-- Node35&#45;&gt;Node25 -->
<g id="edge90" class="edge"><title>Node35&#45;&gt;Node25</title>
<path fill="none" stroke="midnightblue" d="M1826.71,-537.307C1842.71,-518.351 1878,-471.275 1878,-425 1878,-425 1878,-425 1878,-367 1878,-330.238 1868.9,-288.025 1862.98,-264.435"/>
<polygon fill="midnightblue" stroke="midnightblue" points="1866.36,-263.52 1860.45,-254.724 1859.58,-265.283 1866.36,-263.52"/>
</g>
<!-- Node35&#45;&gt;Node36 -->
<g id="edge91" class="edge"><title>Node35&#45;&gt;Node36</title>
<path fill="none" stroke="midnightblue" d="M1759.38,-541.775C1663.78,-534.772 1470.35,-519.663 1307,-501 1294.95,-499.623 1282.12,-497.97 1269.77,-496.28"/>
<polygon fill="midnightblue" stroke="midnightblue" points="1269.91,-492.767 1259.53,-494.858 1268.95,-499.7 1269.91,-492.767"/>
</g>
<!-- Node35&#45;&gt;Node38 -->
<g id="edge101" class="edge"><title>Node35&#45;&gt;Node38</title>
<path fill="none" stroke="midnightblue" d="M1771.58,-537.475C1714.39,-527.196 1617.97,-509.863 1553.66,-498.303"/>
<polygon fill="midnightblue" stroke="midnightblue" points="1554.09,-494.824 1543.63,-496.499 1552.85,-501.713 1554.09,-494.824"/>
</g>
<!-- Node36&#45;&gt;Node13 -->
<g id="edge100" class="edge"><title>Node36&#45;&gt;Node13</title>
<path fill="none" stroke="midnightblue" d="M1259.68,-475.646C1488,-439.164 2345.83,-300.276 2460,-255 2467.17,-252.157 2655.14,-129.336 2720.14,-86.8121"/>
<polygon fill="midnightblue" stroke="midnightblue" points="2722.35,-89.5488 2728.8,-81.1445 2718.51,-83.6914 2722.35,-89.5488"/>
</g>
<!-- Node36&#45;&gt;Node25 -->
<g id="edge92" class="edge"><title>Node36&#45;&gt;Node25</title>
<path fill="none" stroke="midnightblue" d="M1242.47,-470.471C1360.23,-427.528 1714.46,-298.346 1824.81,-258.104"/>
<polygon fill="midnightblue" stroke="midnightblue" points="1826.22,-261.315 1834.42,-254.601 1823.82,-254.739 1826.22,-261.315"/>
</g>
<!-- Node36&#45;&gt;Node31 -->
<g id="edge99" class="edge"><title>Node36&#45;&gt;Node31</title>
<path fill="none" stroke="midnightblue" d="M1148.23,-472.897C1143.42,-471.912 1138.62,-470.935 1134,-470 1074.44,-457.954 1006.05,-444.506 959.826,-435.476"/>
<polygon fill="midnightblue" stroke="midnightblue" points="960.219,-431.986 949.733,-433.505 958.877,-438.857 960.219,-431.986"/>
</g>
<!-- Node37 -->
<g id="node37" class="node"><title>Node37</title>
<g id="a_node37"><a xlink:href="functor_8h.html" target="_top" xlink:title="Defines the Functor data structures. ">
<polygon fill="white" stroke="black" points="750.5,-235.5 750.5,-254.5 857.5,-254.5 857.5,-235.5 750.5,-235.5"/>
<text text-anchor="middle" x="804" y="-242.5" font-family="Helvetica,sans-Serif" font-size="10.00">tvm/node/functor.h</text>
</a>
</g>
</g>
<!-- Node36&#45;&gt;Node37 -->
<g id="edge93" class="edge"><title>Node36&#45;&gt;Node37</title>
<path fill="none" stroke="midnightblue" d="M1183.09,-470.38C1133.85,-437.361 1006.35,-353.191 895,-291 874.261,-279.417 850.136,-267.558 831.939,-258.923"/>
<polygon fill="midnightblue" stroke="midnightblue" points="833.295,-255.693 822.756,-254.6 830.313,-262.026 833.295,-255.693"/>
</g>
<!-- Node37&#45;&gt;Node3 -->
<g id="edge94" class="edge"><title>Node37&#45;&gt;Node3</title>
<path fill="none" stroke="midnightblue" d="M799.002,-235.24C789.205,-217.911 767.038,-177.909 751,-143 743.026,-125.644 735.101,-105.326 729.728,-90.9727"/>
<polygon fill="midnightblue" stroke="midnightblue" points="732.906,-89.4752 726.158,-81.3071 726.339,-91.9004 732.906,-89.4752"/>
</g>
<!-- Node37&#45;&gt;Node4 -->
<g id="edge98" class="edge"><title>Node37&#45;&gt;Node4</title>
<path fill="none" stroke="midnightblue" d="M781.585,-235.495C707.134,-207.247 467.973,-116.503 382.623,-84.1192"/>
<polygon fill="midnightblue" stroke="midnightblue" points="383.819,-80.8297 373.228,-80.5545 381.336,-87.3744 383.819,-80.8297"/>
</g>
<!-- Node37&#45;&gt;Node7 -->
<g id="edge95" class="edge"><title>Node37&#45;&gt;Node7</title>
<path fill="none" stroke="midnightblue" d="M857.624,-238.688C951.114,-229.311 1140.25,-209.797 1206,-199 1247.29,-192.219 1256.63,-185.299 1298,-179 1454.49,-155.169 1640.12,-142.697 1738.23,-137.327"/>
<polygon fill="midnightblue" stroke="midnightblue" points="1738.52,-140.817 1748.32,-136.783 1738.14,-133.827 1738.52,-140.817"/>
</g>
<!-- Node37&#45;&gt;Node12 -->
<g id="edge97" class="edge"><title>Node37&#45;&gt;Node12</title>
<path fill="none" stroke="midnightblue" d="M807.007,-235.26C816.2,-208.536 844.073,-127.517 856.683,-90.8618"/>
<polygon fill="midnightblue" stroke="midnightblue" points="860.126,-91.6141 860.069,-81.0194 853.506,-89.3368 860.126,-91.6141"/>
</g>
<!-- Node37&#45;&gt;Node20 -->
<g id="edge96" class="edge"><title>Node37&#45;&gt;Node20</title>
<path fill="none" stroke="midnightblue" d="M857.71,-239.016C872.986,-237.653 889.644,-236.216 905,-235 1140.5,-216.345 1424.41,-198.134 1520.42,-192.095"/>
<polygon fill="midnightblue" stroke="midnightblue" points="1520.65,-195.587 1530.41,-191.467 1520.21,-188.601 1520.65,-195.587"/>
</g>
<!-- Node38&#45;&gt;Node13 -->
<g id="edge105" class="edge"><title>Node38&#45;&gt;Node13</title>
<path fill="none" stroke="midnightblue" d="M1543.74,-484.865C1644.9,-484.336 1864.85,-477.696 2044,-434 2130.76,-412.839 2146.43,-389.487 2230,-358 2361.13,-308.59 2403.96,-320.195 2528,-255 2565.14,-235.48 2571.6,-225.658 2604,-199 2649.97,-161.174 2700.81,-112.713 2726.01,-88.2031"/>
<polygon fill="midnightblue" stroke="midnightblue" points="2728.55,-90.6212 2733.26,-81.1307 2723.66,-85.6127 2728.55,-90.6212"/>
</g>
<!-- Node38&#45;&gt;Node25 -->
<g id="edge102" class="edge"><title>Node38&#45;&gt;Node25</title>
<path fill="none" stroke="midnightblue" d="M1511.84,-470.353C1545.55,-450.251 1608.96,-412.072 1662,-378 1726.64,-336.479 1801.59,-285.071 1837.18,-260.458"/>
<polygon fill="midnightblue" stroke="midnightblue" points="1839.51,-263.099 1845.74,-254.528 1835.53,-257.344 1839.51,-263.099"/>
</g>
<!-- Node38&#45;&gt;Node26 -->
<g id="edge106" class="edge"><title>Node38&#45;&gt;Node26</title>
<path fill="none" stroke="midnightblue" d="M1484.72,-470.128C1477.7,-443.014 1458.46,-384.645 1418,-358 1347.32,-311.448 1312.39,-345.215 1231,-322 1193.93,-311.427 1186.92,-302.071 1150,-291 1148.03,-290.411 1046.84,-268.153 987.736,-255.166"/>
<polygon fill="midnightblue" stroke="midnightblue" points="988.447,-251.739 977.928,-253.012 986.944,-258.576 988.447,-251.739"/>
</g>
<!-- Node38&#45;&gt;Node31 -->
<g id="edge104" class="edge"><title>Node38&#45;&gt;Node31</title>
<path fill="none" stroke="midnightblue" d="M1432.47,-476.29C1416.81,-474.102 1399.75,-471.839 1384,-470 1239.16,-453.094 1069.06,-438.28 975.858,-430.593"/>
<polygon fill="midnightblue" stroke="midnightblue" points="975.959,-427.089 965.706,-429.759 975.386,-434.066 975.959,-427.089"/>
</g>
<!-- Node38&#45;&gt;Node37 -->
<g id="edge103" class="edge"><title>Node38&#45;&gt;Node37</title>
<path fill="none" stroke="midnightblue" d="M1458.59,-470.486C1367.38,-427.061 1094.17,-297.266 1074,-291 1036.55,-279.368 935.184,-264.032 867.868,-254.602"/>
<polygon fill="midnightblue" stroke="midnightblue" points="868.171,-251.111 857.783,-253.198 867.205,-258.044 868.171,-251.111"/>
</g>
<!-- Node39&#45;&gt;Node37 -->
<g id="edge111" class="edge"><title>Node39&#45;&gt;Node37</title>
<path fill="none" stroke="midnightblue" d="M1274.97,-537.189C1277.83,-522.099 1281.44,-490.915 1268,-470 1177.4,-328.958 1089.64,-358.054 936,-291 905.6,-277.732 869.934,-265.778 843.345,-257.53"/>
<polygon fill="midnightblue" stroke="midnightblue" points="844.215,-254.136 833.628,-254.556 842.166,-260.83 844.215,-254.136"/>
</g>
<!-- Node40 -->
<g id="node40" class="node"><title>Node40</title>
<polygon fill="white" stroke="#bfbfbf" points="1316.5,-476 1316.5,-495 1375.5,-495 1375.5,-476 1316.5,-476"/>
<text text-anchor="middle" x="1346" y="-483" font-family="Helvetica,sans-Serif" font-size="10.00">iostream</text>
</g>
<!-- Node39&#45;&gt;Node40 -->
<g id="edge112" class="edge"><title>Node39&#45;&gt;Node40</title>
<path fill="none" stroke="midnightblue" d="M1283.46,-537.475C1294.95,-528.108 1313.63,-512.884 1327.59,-501.508"/>
<polygon fill="midnightblue" stroke="midnightblue" points="1330.02,-504.04 1335.56,-495.009 1325.6,-498.614 1330.02,-504.04"/>
</g>
<!-- Node41&#45;&gt;Node13 -->
<g id="edge163" class="edge"><title>Node41&#45;&gt;Node13</title>
<path fill="none" stroke="midnightblue" d="M1763.33,-936.53C1994.04,-928.91 3008,-891.793 3008,-828 3008,-828 3008,-828 3008,-188 3008,-87.1962 2845.29,-73.4209 2774.38,-72.2036"/>
<polygon fill="midnightblue" stroke="midnightblue" points="2774.25,-68.7024 2764.22,-72.1054 2774.19,-75.702 2774.25,-68.7024"/>
</g>
<!-- Node41&#45;&gt;Node20 -->
<g id="edge164" class="edge"><title>Node41&#45;&gt;Node20</title>
<path fill="none" stroke="midnightblue" d="M1719.05,-929.257C1723.93,-909.007 1737.22,-857.528 1755,-817 1773.96,-773.788 1795.81,-770.586 1808,-725 1845.19,-585.95 1686,-568.937 1686,-425 1686,-425 1686,-425 1686,-305.5 1686,-253.005 1626.14,-218.835 1587.04,-202.114"/>
<polygon fill="midnightblue" stroke="midnightblue" points="1588.18,-198.797 1577.6,-198.239 1585.52,-205.273 1588.18,-198.797"/>
</g>
<!-- Node41&#45;&gt;Node21 -->
<g id="edge165" class="edge"><title>Node41&#45;&gt;Node21</title>
<path fill="none" stroke="midnightblue" d="M1670.91,-937.881C1469.81,-936.827 668.997,-926.955 437,-837 315.999,-790.083 261,-733.779 261,-604 261,-604 261,-604 261,-484.5 261,-376.364 311.851,-253.459 332.469,-208.071"/>
<polygon fill="midnightblue" stroke="midnightblue" points="335.681,-209.464 336.699,-198.919 329.327,-206.528 335.681,-209.464"/>
</g>
<!-- Node42 -->
<g id="node42" class="node"><title>Node42</title>
<g id="a_node42"><a xlink:href="ir_2type_8h.html" target="_top" xlink:title="IR/AST nodes for the unified type system in TVM. ">
<polygon fill="white" stroke="black" points="2363.5,-705.5 2363.5,-724.5 2440.5,-724.5 2440.5,-705.5 2363.5,-705.5"/>
<text text-anchor="middle" x="2402" y="-712.5" font-family="Helvetica,sans-Serif" font-size="10.00">tvm/ir/type.h</text>
</a>
</g>
</g>
<!-- Node41&#45;&gt;Node42 -->
<g id="edge122" class="edge"><title>Node41&#45;&gt;Node42</title>
<path fill="none" stroke="midnightblue" d="M1743.43,-929.433C1849.5,-895.06 2244.32,-767.102 2366.04,-727.654"/>
<polygon fill="midnightblue" stroke="midnightblue" points="2367.21,-730.954 2375.65,-724.541 2365.05,-724.295 2367.21,-730.954"/>
</g>
<!-- Node43 -->
<g id="node43" class="node"><title>Node43</title>
<g id="a_node43"><a xlink:href="ir_2expr_8h.html" target="_top" xlink:title="Base expr nodes in TVM. ">
<polygon fill="white" stroke="black" points="1618.5,-761.5 1618.5,-780.5 1695.5,-780.5 1695.5,-761.5 1618.5,-761.5"/>
<text text-anchor="middle" x="1657" y="-768.5" font-family="Helvetica,sans-Serif" font-size="10.00">tvm/ir/expr.h</text>
</a>
</g>
</g>
<!-- Node41&#45;&gt;Node43 -->
<g id="edge129" class="edge"><title>Node41&#45;&gt;Node43</title>
<path fill="none" stroke="midnightblue" d="M1713.77,-929.075C1704.29,-902.832 1676.35,-825.545 1663.55,-790.117"/>
<polygon fill="midnightblue" stroke="midnightblue" points="1666.79,-788.783 1660.1,-780.568 1660.2,-791.162 1666.79,-788.783"/>
</g>
<!-- Node45 -->
<g id="node45" class="node"><title>Node45</title>
<g id="a_node45"><a xlink:href="ir_2function_8h.html" target="_top" xlink:title="Function nodes. ">
<polygon fill="white" stroke="black" points="1574.5,-873.5 1574.5,-892.5 1669.5,-892.5 1669.5,-873.5 1574.5,-873.5"/>
<text text-anchor="middle" x="1622" y="-880.5" font-family="Helvetica,sans-Serif" font-size="10.00">tvm/ir/function.h</text>
</a>
</g>
</g>
<!-- Node41&#45;&gt;Node45 -->
<g id="edge139" class="edge"><title>Node41&#45;&gt;Node45</title>
<path fill="none" stroke="midnightblue" d="M1701.74,-929.324C1686.78,-920.822 1663.75,-907.729 1646.27,-897.797"/>
<polygon fill="midnightblue" stroke="midnightblue" points="1647.65,-894.553 1637.23,-892.655 1644.19,-900.639 1647.65,-894.553"/>
</g>
<!-- Node48 -->
<g id="node48" class="node"><title>Node48</title>
<g id="a_node48"><a xlink:href="ir_2adt_8h.html" target="_top" xlink:title="Algebraic data type definitions. ">
<polygon fill="white" stroke="black" points="1764,-817.5 1764,-836.5 1836,-836.5 1836,-817.5 1764,-817.5"/>
<text text-anchor="middle" x="1800" y="-824.5" font-family="Helvetica,sans-Serif" font-size="10.00">tvm/ir/adt.h</text>
</a>
</g>
</g>
<!-- Node41&#45;&gt;Node48 -->
<g id="edge156" class="edge"><title>Node41&#45;&gt;Node48</title>
<path fill="none" stroke="midnightblue" d="M1723.51,-929.368C1737.27,-911.135 1769.5,-868.426 1787.42,-844.675"/>
<polygon fill="midnightblue" stroke="midnightblue" points="1790.29,-846.682 1793.52,-836.591 1784.7,-842.466 1790.29,-846.682"/>
</g>
<!-- Node49 -->
<g id="node49" class="node"><title>Node49</title>
<polygon fill="white" stroke="#bfbfbf" points="1470,-873.5 1470,-892.5 1556,-892.5 1556,-873.5 1470,-873.5"/>
<text text-anchor="middle" x="1513" y="-880.5" font-family="Helvetica,sans-Serif" font-size="10.00">unordered_set</text>
</g>
<!-- Node41&#45;&gt;Node49 -->
<g id="edge166" class="edge"><title>Node41&#45;&gt;Node49</title>
<path fill="none" stroke="midnightblue" d="M1684.68,-929.444C1649.61,-920.162 1593.5,-905.309 1555.04,-895.127"/>
<polygon fill="midnightblue" stroke="midnightblue" points="1555.74,-891.692 1545.17,-892.516 1553.94,-898.459 1555.74,-891.692"/>
</g>
<!-- Node42&#45;&gt;Node7 -->
<g id="edge123" class="edge"><title>Node42&#45;&gt;Node7</title>
<path fill="none" stroke="midnightblue" d="M2416.66,-705.402C2428.41,-697.585 2444.03,-684.862 2451,-669 2454.58,-660.862 2452.3,-657.793 2451,-649 2425.34,-475.315 2433.69,-382.75 2284,-291 2251.17,-270.875 2157.26,-244.727 2120,-235 2034.3,-212.629 2006.34,-231.63 1924,-199 1908.76,-192.959 1907.17,-187.254 1893,-179 1873.53,-167.654 1850.93,-155.881 1833.78,-147.223"/>
<polygon fill="midnightblue" stroke="midnightblue" points="1834.89,-143.864 1824.38,-142.512 1831.75,-150.122 1834.89,-143.864"/>
</g>
<!-- Node42&#45;&gt;Node13 -->
<g id="edge128" class="edge"><title>Node42&#45;&gt;Node13</title>
<path fill="none" stroke="midnightblue" d="M2417.33,-705.471C2461,-680.354 2586.84,-602.038 2649,-501 2735.63,-360.192 2727.34,-306.762 2750,-143 2752.42,-125.477 2749.61,-105.428 2746.67,-91.2016"/>
<polygon fill="midnightblue" stroke="midnightblue" points="2750.03,-90.1694 2744.39,-81.2 2743.2,-91.7283 2750.03,-90.1694"/>
</g>
<!-- Node42&#45;&gt;Node25 -->
<g id="edge124" class="edge"><title>Node42&#45;&gt;Node25</title>
<path fill="none" stroke="midnightblue" d="M2389.33,-705.456C2378.21,-697.322 2362.39,-684.106 2353,-669 2337.11,-643.438 2334,-634.098 2334,-604 2334,-604 2334,-604 2334,-546 2334,-355.12 2056.66,-280.848 1925.37,-256.383"/>
<polygon fill="midnightblue" stroke="midnightblue" points="1925.88,-252.918 1915.42,-254.571 1924.63,-259.805 1925.88,-252.918"/>
</g>
<!-- Node42&#45;&gt;Node31 -->
<g id="edge126" class="edge"><title>Node42&#45;&gt;Node31</title>
<path fill="none" stroke="midnightblue" d="M2363.37,-711.278C2178.22,-697.914 1380.91,-636.657 1146,-557 1059.1,-527.532 966.841,-467.488 926.679,-439.707"/>
<polygon fill="midnightblue" stroke="midnightblue" points="928.471,-436.689 918.269,-433.832 924.462,-442.428 928.471,-436.689"/>
</g>
<!-- Node42&#45;&gt;Node33 -->
<g id="edge127" class="edge"><title>Node42&#45;&gt;Node33</title>
<path fill="none" stroke="midnightblue" d="M2402,-705.083C2402,-698.006 2402,-687.861 2402,-678.986"/>
<polygon fill="midnightblue" stroke="midnightblue" points="2405.5,-678.751 2402,-668.751 2398.5,-678.751 2405.5,-678.751"/>
</g>
<!-- Node42&#45;&gt;Node34 -->
<g id="edge125" class="edge"><title>Node42&#45;&gt;Node34</title>
<path fill="none" stroke="midnightblue" d="M2363.36,-708.879C2230.42,-691.261 1791.35,-633.07 1631.16,-611.84"/>
<polygon fill="midnightblue" stroke="midnightblue" points="1631.39,-608.34 1621.01,-610.496 1630.47,-615.279 1631.39,-608.34"/>
</g>
<!-- Node43&#45;&gt;Node7 -->
<g id="edge130" class="edge"><title>Node43&#45;&gt;Node7</title>
<path fill="none" stroke="midnightblue" d="M1692.41,-761.49C1802.62,-734.222 2135.74,-645.609 2196,-557 2300.46,-403.396 2047.5,-277.68 1979,-235 1931.38,-205.33 1904.39,-230.558 1858,-199 1840.08,-186.808 1825.54,-166.359 1816.64,-151.65"/>
<polygon fill="midnightblue" stroke="midnightblue" points="1819.43,-149.477 1811.41,-142.556 1813.36,-152.969 1819.43,-149.477"/>
</g>
<!-- Node43&#45;&gt;Node12 -->
<g id="edge138" class="edge"><title>Node43&#45;&gt;Node12</title>
<path fill="none" stroke="midnightblue" d="M1618.09,-768.775C1499.09,-764.783 1141.26,-750.892 1028,-725 695.166,-648.914 523.576,-628.912 374,-322 346.432,-265.434 419.386,-196.21 440,-179 495.266,-132.86 522.587,-142.107 592,-123 634.047,-111.426 753.575,-90.7368 818.954,-79.777"/>
<polygon fill="midnightblue" stroke="midnightblue" points="819.676,-83.205 828.962,-78.1044 818.522,-76.3007 819.676,-83.205"/>
</g>
<!-- Node43&#45;&gt;Node13 -->
<g id="edge135" class="edge"><title>Node43&#45;&gt;Node13</title>
<path fill="none" stroke="midnightblue" d="M1695.69,-769.299C1845.02,-766.392 2379.09,-754.039 2449,-725 2653.75,-639.955 2699.47,-539.393 2743,-322 2760.47,-234.749 2783.87,-209.959 2765,-123 2762.48,-111.401 2757.06,-99.2696 2752.11,-89.805"/>
<polygon fill="midnightblue" stroke="midnightblue" points="2755.17,-88.1014 2747.27,-81.0413 2749.04,-91.4868 2755.17,-88.1014"/>
</g>
<!-- Node43&#45;&gt;Node28 -->
<g id="edge137" class="edge"><title>Node43&#45;&gt;Node28</title>
<path fill="none" stroke="midnightblue" d="M1618.38,-766.723C1489.46,-755.274 1082,-714.757 1082,-660 1082,-660 1082,-660 1082,-546 1082,-436.966 1040.48,-310.593 1023.81,-264.24"/>
<polygon fill="midnightblue" stroke="midnightblue" points="1027.04,-262.873 1020.31,-254.685 1020.46,-265.279 1027.04,-262.873"/>
</g>
<!-- Node43&#45;&gt;Node31 -->
<g id="edge132" class="edge"><title>Node43&#45;&gt;Node31</title>
<path fill="none" stroke="midnightblue" d="M1618.45,-770.205C1503.99,-770.322 1167.85,-766.989 1068,-725 1030.4,-709.191 930,-644.785 930,-604 930,-604 930,-604 930,-546 930,-509.024 919.083,-466.885 911.975,-443.367"/>
<polygon fill="midnightblue" stroke="midnightblue" points="915.272,-442.184 908.943,-433.688 908.593,-444.277 915.272,-442.184"/>
</g>
<!-- Node43&#45;&gt;Node33 -->
<g id="edge133" class="edge"><title>Node43&#45;&gt;Node33</title>
<path fill="none" stroke="midnightblue" d="M1695.75,-764.279C1820.6,-745.844 2212.39,-687.996 2351.99,-667.384"/>
<polygon fill="midnightblue" stroke="midnightblue" points="2352.6,-670.831 2361.99,-665.908 2351.58,-663.906 2352.6,-670.831"/>
</g>
<!-- Node43&#45;&gt;Node34 -->
<g id="edge131" class="edge"><title>Node43&#45;&gt;Node34</title>
<path fill="none" stroke="midnightblue" d="M1644.64,-761.372C1633.78,-753.182 1618.3,-739.93 1609,-725 1588.55,-692.179 1578.73,-647.28 1574.59,-622.434"/>
<polygon fill="midnightblue" stroke="midnightblue" points="1578.05,-621.897 1573.07,-612.545 1571.13,-622.96 1578.05,-621.897"/>
</g>
<!-- Node43&#45;&gt;Node42 -->
<g id="edge134" class="edge"><title>Node43&#45;&gt;Node42</title>
<path fill="none" stroke="midnightblue" d="M1695.75,-767.192C1820.92,-758.119 2214.35,-729.601 2353.03,-719.55"/>
<polygon fill="midnightblue" stroke="midnightblue" points="2353.62,-723.016 2363.34,-718.802 2353.11,-716.034 2353.62,-723.016"/>
</g>
<!-- Node44 -->
<g id="node44" class="node"><title>Node44</title>
<polygon fill="white" stroke="#bfbfbf" points="1618,-705.5 1618,-724.5 1680,-724.5 1680,-705.5 1618,-705.5"/>
<text text-anchor="middle" x="1649" y="-712.5" font-family="Helvetica,sans-Serif" font-size="10.00">algorithm</text>
</g>
<!-- Node43&#45;&gt;Node44 -->
<g id="edge136" class="edge"><title>Node43&#45;&gt;Node44</title>
<path fill="none" stroke="midnightblue" d="M1655.68,-761.083C1654.62,-753.927 1653.09,-743.635 1651.77,-734.691"/>
<polygon fill="midnightblue" stroke="midnightblue" points="1655.22,-734.13 1650.3,-724.751 1648.3,-735.156 1655.22,-734.13"/>
</g>
<!-- Node45&#45;&gt;Node5 -->
<g id="edge153" class="edge"><title>Node45&#45;&gt;Node5</title>
<path fill="none" stroke="midnightblue" d="M1574.46,-874.11C1571.27,-873.698 1568.09,-873.322 1565,-873 1253.83,-840.558 1172.55,-874.889 862,-837 711.451,-818.632 527,-923.666 527,-772 527,-772 527,-772 527,-484.5 527,-432.51 585.771,-398.349 624.583,-381.457"/>
<polygon fill="midnightblue" stroke="midnightblue" points="626.095,-384.619 633.973,-377.535 623.396,-378.16 626.095,-384.619"/>
</g>
<!-- Node45&#45;&gt;Node12 -->
<g id="edge154" class="edge"><title>Node45&#45;&gt;Node12</title>
<path fill="none" stroke="midnightblue" d="M1574.47,-874.052C1571.27,-873.654 1568.09,-873.297 1565,-873 1450.9,-862.041 641.69,-876.266 534,-837 489.98,-820.95 451,-818.855 451,-772 451,-772 451,-772 451,-602 451,-407.059 438.798,-325.855 567,-179 594.124,-147.929 603.609,-140.409 641,-123 672.203,-108.472 763.698,-90.3385 819.008,-80.2292"/>
<polygon fill="midnightblue" stroke="midnightblue" points="819.677,-83.6651 828.892,-78.4376 818.428,-76.7773 819.677,-83.6651"/>
</g>
<!-- Node45&#45;&gt;Node13 -->
<g id="edge155" class="edge"><title>Node45&#45;&gt;Node13</title>
<path fill="none" stroke="midnightblue" d="M1669.58,-880.662C1908.94,-873.623 2970,-838.663 2970,-772 2970,-772 2970,-772 2970,-188 2970,-101.382 2837.43,-79.7038 2774.47,-74.2927"/>
<polygon fill="midnightblue" stroke="midnightblue" points="2774.52,-70.7862 2764.28,-73.5074 2773.98,-77.7655 2774.52,-70.7862"/>
</g>
<!-- Node45&#45;&gt;Node43 -->
<g id="edge140" class="edge"><title>Node45&#45;&gt;Node43</title>
<path fill="none" stroke="midnightblue" d="M1624.75,-873.368C1630.42,-855.537 1643.54,-814.295 1651.19,-790.272"/>
<polygon fill="midnightblue" stroke="midnightblue" points="1654.57,-791.182 1654.27,-780.591 1647.9,-789.059 1654.57,-791.182"/>
</g>
<!-- Node46 -->
<g id="node46" class="node"><title>Node46</title>
<g id="a_node46"><a xlink:href="ir_2attrs_8h.html" target="_top" xlink:title="Helpers for attribute objects. ">
<polygon fill="white" stroke="black" points="871.5,-817.5 871.5,-836.5 950.5,-836.5 950.5,-817.5 871.5,-817.5"/>
<text text-anchor="middle" x="911" y="-824.5" font-family="Helvetica,sans-Serif" font-size="10.00">tvm/ir/attrs.h</text>
</a>
</g>
</g>
<!-- Node45&#45;&gt;Node46 -->
<g id="edge141" class="edge"><title>Node45&#45;&gt;Node46</title>
<path fill="none" stroke="midnightblue" d="M1574.46,-874.173C1571.26,-873.746 1568.09,-873.349 1565,-873 1340.14,-847.562 1070.04,-834.492 960.629,-829.924"/>
<polygon fill="midnightblue" stroke="midnightblue" points="960.685,-826.423 950.55,-829.508 960.397,-833.418 960.685,-826.423"/>
</g>
<!-- Node46&#45;&gt;Node4 -->
<g id="edge152" class="edge"><title>Node46&#45;&gt;Node4</title>
<path fill="none" stroke="midnightblue" d="M871.197,-824.66C752.848,-820.408 408.635,-806.004 365,-781 296.245,-741.601 38,-400.411 38,-307.5 38,-307.5 38,-307.5 38,-188 38,-128.103 241.796,-89.7518 321.022,-77.1058"/>
<polygon fill="midnightblue" stroke="midnightblue" points="321.571,-80.5625 330.91,-75.5583 320.489,-73.6467 321.571,-80.5625"/>
</g>
<!-- Node46&#45;&gt;Node12 -->
<g id="edge150" class="edge"><title>Node46&#45;&gt;Node12</title>
<path fill="none" stroke="midnightblue" d="M871.142,-824.444C773.19,-820.256 522.934,-807.244 444,-781 391.199,-763.445 337,-771.643 337,-716 337,-716 337,-716 337,-602 337,-412.585 169.166,-328.869 285,-179 352.753,-91.3396 665.399,-103.199 775,-87 789.298,-84.8868 804.869,-82.3868 818.883,-80.0632"/>
<polygon fill="midnightblue" stroke="midnightblue" points="819.486,-83.511 828.773,-78.4103 818.332,-76.6068 819.486,-83.511"/>
</g>
<!-- Node46&#45;&gt;Node13 -->
<g id="edge151" class="edge"><title>Node46&#45;&gt;Node13</title>
<path fill="none" stroke="midnightblue" d="M950.502,-825.844C1164.34,-824.639 2184.79,-814.232 2485,-725 2753.33,-645.241 2894,-525.937 2894,-246 2894,-246 2894,-246 2894,-188 2894,-128.195 2818.48,-95.3149 2773.91,-81.1157"/>
<polygon fill="midnightblue" stroke="midnightblue" points="2774.69,-77.6954 2764.1,-78.1337 2772.65,-84.3924 2774.69,-77.6954"/>
</g>
<!-- Node46&#45;&gt;Node16 -->
<g id="edge146" class="edge"><title>Node46&#45;&gt;Node16</title>
<path fill="none" stroke="midnightblue" d="M921.695,-817.445C931.441,-809.111 945.563,-795.593 954,-781 995.039,-710.019 1006,-685.991 1006,-604 1006,-604 1006,-604 1006,-546 1006,-425.71 1156.58,-355.066 1241.1,-324.888"/>
<polygon fill="midnightblue" stroke="midnightblue" points="1242.28,-328.183 1250.57,-321.579 1239.97,-321.575 1242.28,-328.183"/>
</g>
<!-- Node46&#45;&gt;Node20 -->
<g id="edge148" class="edge"><title>Node46&#45;&gt;Node20</title>
<path fill="none" stroke="midnightblue" d="M950.708,-820.574C1116.75,-797.091 1753.02,-698.965 1887,-557 1936.66,-504.386 1983.06,-289.074 1935,-235 1912.07,-209.197 1676.39,-195.674 1587.6,-191.464"/>
<polygon fill="midnightblue" stroke="midnightblue" points="1587.68,-187.963 1577.52,-190.996 1587.35,-194.956 1587.68,-187.963"/>
</g>
<!-- Node46&#45;&gt;Node21 -->
<g id="edge147" class="edge"><title>Node46&#45;&gt;Node21</title>
<path fill="none" stroke="midnightblue" d="M871.088,-825.672C752.915,-823.634 413,-809.634 413,-716 413,-716 413,-716 413,-602 413,-496.727 353.348,-481.834 336,-378 329.628,-339.862 335.044,-329.655 336,-291 336.711,-262.257 338.559,-228.955 339.798,-208.69"/>
<polygon fill="midnightblue" stroke="midnightblue" points="343.295,-208.841 340.428,-198.641 336.309,-208.403 343.295,-208.841"/>
</g>
<!-- Node46&#45;&gt;Node26 -->
<g id="edge149" class="edge"><title>Node46&#45;&gt;Node26</title>
<path fill="none" stroke="midnightblue" d="M876.736,-817.44C832.184,-804.016 760,-773.408 760,-716 760,-716 760,-716 760,-546 760,-419.657 880.636,-302.24 927.601,-261.315"/>
<polygon fill="midnightblue" stroke="midnightblue" points="930.148,-263.741 935.467,-254.578 925.595,-258.424 930.148,-263.741"/>
</g>
<!-- Node46&#45;&gt;Node36 -->
<g id="edge144" class="edge"><title>Node46&#45;&gt;Node36</title>
<path fill="none" stroke="midnightblue" d="M908.438,-817.249C903.251,-798.738 892,-754.179 892,-716 892,-716 892,-716 892,-602 892,-549.947 1046.67,-513.936 1138.2,-497.182"/>
<polygon fill="midnightblue" stroke="midnightblue" points="1139,-500.595 1148.22,-495.379 1137.76,-493.706 1139,-500.595"/>
</g>
<!-- Node46&#45;&gt;Node38 -->
<g id="edge145" class="edge"><title>Node46&#45;&gt;Node38</title>
<path fill="none" stroke="midnightblue" d="M914.891,-817.41C921.356,-803.924 935.458,-777.613 954,-761 964.405,-751.677 1332.08,-565.361 1451.18,-505.115"/>
<polygon fill="midnightblue" stroke="midnightblue" points="1452.95,-508.141 1460.29,-500.504 1449.79,-501.894 1452.95,-508.141"/>
</g>
<!-- Node46&#45;&gt;Node43 -->
<g id="edge143" class="edge"><title>Node46&#45;&gt;Node43</title>
<path fill="none" stroke="midnightblue" d="M950.588,-824.862C1056.73,-821.502 1356.42,-809.981 1604,-781 1605.3,-780.847 1606.62,-780.684 1607.96,-780.513"/>
<polygon fill="midnightblue" stroke="midnightblue" points="1608.87,-783.918 1618.28,-779.05 1607.89,-776.987 1608.87,-783.918"/>
</g>
<!-- Node47 -->
<g id="node47" class="node"><title>Node47</title>
<polygon fill="white" stroke="#bfbfbf" points="636.5,-761.5 636.5,-780.5 731.5,-780.5 731.5,-761.5 636.5,-761.5"/>
<text text-anchor="middle" x="684" y="-768.5" font-family="Helvetica,sans-Serif" font-size="10.00">dmlc/common.h</text>
</g>
<!-- Node46&#45;&gt;Node47 -->
<g id="edge142" class="edge"><title>Node46&#45;&gt;Node47</title>
<path fill="none" stroke="midnightblue" d="M875.031,-817.444C835.681,-808.083 772.513,-793.056 729.686,-782.868"/>
<polygon fill="midnightblue" stroke="midnightblue" points="730.339,-779.426 719.801,-780.516 728.719,-786.236 730.339,-779.426"/>
</g>
<!-- Node48&#45;&gt;Node7 -->
<g id="edge157" class="edge"><title>Node48&#45;&gt;Node7</title>
<path fill="none" stroke="midnightblue" d="M1836.02,-824.58C1985.85,-818.206 2552,-789.271 2552,-716 2552,-716 2552,-716 2552,-305.5 2552,-207.048 2437.85,-257.491 2342,-235 2228,-208.25 2196.1,-220.539 2081,-199 1997.93,-183.455 1902.12,-159.267 1848.64,-145.196"/>
<polygon fill="midnightblue" stroke="midnightblue" points="1849.41,-141.778 1838.85,-142.606 1847.62,-148.545 1849.41,-141.778"/>
</g>
<!-- Node48&#45;&gt;Node13 -->
<g id="edge162" class="edge"><title>Node48&#45;&gt;Node13</title>
<path fill="none" stroke="midnightblue" d="M1836.06,-826.367C2029.15,-827.869 2932,-828.857 2932,-716 2932,-716 2932,-716 2932,-188 2932,-157.205 2930.4,-144.131 2908,-123 2871.2,-88.2905 2811.25,-77.3878 2774.36,-73.9941"/>
<polygon fill="midnightblue" stroke="midnightblue" points="2774.4,-70.4863 2764.15,-73.193 2773.85,-77.4648 2774.4,-70.4863"/>
</g>
<!-- Node48&#45;&gt;Node31 -->
<g id="edge159" class="edge"><title>Node48&#45;&gt;Node31</title>
<path fill="none" stroke="midnightblue" d="M1763.96,-823.71C1630.48,-814.855 1164.82,-780.56 1028,-725 965.62,-699.669 944.452,-677.749 926,-613 908.866,-552.876 906.157,-478.149 905.892,-443.831"/>
<polygon fill="midnightblue" stroke="midnightblue" points="909.392,-443.817 905.879,-433.821 902.393,-443.826 909.392,-443.817"/>
</g>
<!-- Node48&#45;&gt;Node34 -->
<g id="edge158" class="edge"><title>Node48&#45;&gt;Node34</title>
<path fill="none" stroke="midnightblue" d="M1792.78,-817.472C1775.55,-797.254 1730.33,-745.099 1689,-705 1655.72,-672.714 1614.07,-638.001 1590.5,-618.845"/>
<polygon fill="midnightblue" stroke="midnightblue" points="1592.67,-616.091 1582.69,-612.524 1588.26,-621.534 1592.67,-616.091"/>
</g>
<!-- Node48&#45;&gt;Node42 -->
<g id="edge161" class="edge"><title>Node48&#45;&gt;Node42</title>
<path fill="none" stroke="midnightblue" d="M1836.3,-819.367C1939.69,-800.475 2235.8,-746.369 2353.2,-724.917"/>
<polygon fill="midnightblue" stroke="midnightblue" points="2354.12,-728.306 2363.33,-723.066 2352.86,-721.42 2354.12,-728.306"/>
</g>
<!-- Node48&#45;&gt;Node43 -->
<g id="edge160" class="edge"><title>Node48&#45;&gt;Node43</title>
<path fill="none" stroke="midnightblue" d="M1777.34,-817.444C1753.6,-808.478 1716.09,-794.314 1689.26,-784.183"/>
<polygon fill="midnightblue" stroke="midnightblue" points="1690.14,-780.775 1679.55,-780.516 1687.67,-787.324 1690.14,-780.775"/>
</g>
</g>
</svg>
