<?xml version="1.0" encoding="UTF-8" standalone="no"?>
<!DOCTYPE svg PUBLIC "-//W3C//DTD SVG 1.1//EN"
 "http://www.w3.org/Graphics/SVG/1.1/DTD/svg11.dtd">
<!-- Generated by graphviz version 2.38.0 (20140413.2041)
 -->
<!-- Title: include/tvm/arith/int_set.h Pages: 1 -->
<svg width="2686pt" height="1024pt"
 viewBox="0.00 0.00 2686.00 1024.00" xmlns="http://www.w3.org/2000/svg" xmlns:xlink="http://www.w3.org/1999/xlink">
<g id="graph0" class="graph" transform="scale(1 1) rotate(0) translate(4 1020)">
<title>include/tvm/arith/int_set.h</title>
<polygon fill="white" stroke="none" points="-4,4 -4,-1020 2682,-1020 2682,4 -4,4"/>
<!-- Node1 -->
<g id="node1" class="node"><title>Node1</title>
<polygon fill="#bfbfbf" stroke="black" points="1960,-985.5 1960,-1015.5 2072,-1015.5 2072,-985.5 1960,-985.5"/>
<text text-anchor="start" x="1968" y="-1003.5" font-family="Helvetica,sans-Serif" font-size="10.00">include/tvm/arith/int</text>
<text text-anchor="middle" x="2016" y="-992.5" font-family="Helvetica,sans-Serif" font-size="10.00">_set.h</text>
</g>
<!-- Node2 -->
<g id="node2" class="node"><title>Node2</title>
<g id="a_node2"><a xlink:href="ir_2expr_8h.html" target="_top" xlink:title="Base expr nodes in TVM. ">
<polygon fill="white" stroke="black" points="1712.5,-761.5 1712.5,-780.5 1789.5,-780.5 1789.5,-761.5 1712.5,-761.5"/>
<text text-anchor="middle" x="1751" y="-768.5" font-family="Helvetica,sans-Serif" font-size="10.00">tvm/ir/expr.h</text>
</a>
</g>
</g>
<!-- Node1&#45;&gt;Node2 -->
<g id="edge1" class="edge"><title>Node1&#45;&gt;Node2</title>
<path fill="none" stroke="midnightblue" d="M1969.23,-985.483C1923.1,-969.589 1853.14,-939.65 1808,-893 1779.31,-863.344 1762.98,-816.556 1755.68,-790.71"/>
<polygon fill="midnightblue" stroke="midnightblue" points="1758.98,-789.496 1753.02,-780.735 1752.22,-791.299 1758.98,-789.496"/>
</g>
<!-- Node22 -->
<g id="node22" class="node"><title>Node22</title>
<polygon fill="white" stroke="#bfbfbf" points="2404.5,-179.5 2404.5,-198.5 2497.5,-198.5 2497.5,-179.5 2404.5,-179.5"/>
<text text-anchor="middle" x="2451" y="-186.5" font-family="Helvetica,sans-Serif" font-size="10.00">unordered_map</text>
</g>
<!-- Node1&#45;&gt;Node22 -->
<g id="edge153" class="edge"><title>Node1&#45;&gt;Node22</title>
<path fill="none" stroke="midnightblue" d="M2072.19,-1000.22C2218.86,-1000.6 2602,-991.323 2602,-884 2602,-884 2602,-884 2602,-484.5 2602,-366.767 2583.57,-329.236 2513,-235 2503.38,-222.15 2489.04,-211.414 2476.58,-203.654"/>
<polygon fill="midnightblue" stroke="midnightblue" points="2478.33,-200.618 2467.94,-198.543 2474.76,-206.644 2478.33,-200.618"/>
</g>
<!-- Node42 -->
<g id="node42" class="node"><title>Node42</title>
<g id="a_node42"><a xlink:href="tir_2expr_8h.html" target="_top" xlink:title="TIR expressions. ">
<polygon fill="white" stroke="black" points="1976,-929.5 1976,-948.5 2056,-948.5 2056,-929.5 1976,-929.5"/>
<text text-anchor="middle" x="2016" y="-936.5" font-family="Helvetica,sans-Serif" font-size="10.00">tvm/tir/expr.h</text>
</a>
</g>
</g>
<!-- Node1&#45;&gt;Node42 -->
<g id="edge130" class="edge"><title>Node1&#45;&gt;Node42</title>
<path fill="none" stroke="midnightblue" d="M2016,-985.399C2016,-977.466 2016,-967.458 2016,-958.858"/>
<polygon fill="midnightblue" stroke="midnightblue" points="2019.5,-958.658 2016,-948.658 2012.5,-958.658 2019.5,-958.658"/>
</g>
<!-- Node3 -->
<g id="node3" class="node"><title>Node3</title>
<g id="a_node3"><a xlink:href="object_8h.html" target="_top" xlink:title="A managed object in the TVM runtime. ">
<polygon fill="white" stroke="black" points="1501.5,-123.5 1501.5,-142.5 1618.5,-142.5 1618.5,-123.5 1501.5,-123.5"/>
<text text-anchor="middle" x="1560" y="-130.5" font-family="Helvetica,sans-Serif" font-size="10.00">tvm/runtime/object.h</text>
</a>
</g>
</g>
<!-- Node2&#45;&gt;Node3 -->
<g id="edge2" class="edge"><title>Node2&#45;&gt;Node3</title>
<path fill="none" stroke="midnightblue" d="M1774.77,-761.494C1856.66,-730.512 2122,-615.423 2122,-425 2122,-425 2122,-425 2122,-367 2122,-337.613 2149.07,-257.361 2130,-235 2097.14,-196.47 1953.42,-213.819 1905,-199 1884.85,-192.832 1882.19,-185.06 1862,-179 1783.97,-155.575 1690.78,-144.058 1628.76,-138.593"/>
<polygon fill="midnightblue" stroke="midnightblue" points="1628.96,-135.097 1618.7,-137.736 1628.36,-142.072 1628.96,-135.097"/>
</g>
<!-- Node9 -->
<g id="node9" class="node"><title>Node9</title>
<polygon fill="white" stroke="#bfbfbf" points="780,-62 780,-81 848,-81 848,-62 780,-62"/>
<text text-anchor="middle" x="814" y="-69" font-family="Helvetica,sans-Serif" font-size="10.00">type_traits</text>
</g>
<!-- Node2&#45;&gt;Node9 -->
<g id="edge129" class="edge"><title>Node2&#45;&gt;Node9</title>
<path fill="none" stroke="midnightblue" d="M1712.17,-766.381C1496.8,-745.388 452.962,-631.294 290,-378 167.173,-187.088 622.79,-101.071 769.742,-78.6658"/>
<polygon fill="midnightblue" stroke="midnightblue" points="770.406,-82.1055 779.777,-77.162 769.368,-75.1828 770.406,-82.1055"/>
</g>
<!-- Node10 -->
<g id="node10" class="node"><title>Node10</title>
<polygon fill="white" stroke="#bfbfbf" points="306,-62 306,-81 350,-81 350,-62 306,-62"/>
<text text-anchor="middle" x="328" y="-69" font-family="Helvetica,sans-Serif" font-size="10.00">string</text>
</g>
<!-- Node2&#45;&gt;Node10 -->
<g id="edge126" class="edge"><title>Node2&#45;&gt;Node10</title>
<path fill="none" stroke="midnightblue" d="M1712.3,-768.806C1491.81,-761.813 399.34,-724.567 261,-669 224.987,-654.535 218.073,-643.441 194,-613 163.566,-574.516 114,-432.896 114,-425 114,-425 114,-425 114,-188 114,-106.354 236.123,-82.1508 295.859,-75.1956"/>
<polygon fill="midnightblue" stroke="midnightblue" points="296.333,-78.6649 305.904,-74.1207 295.589,-71.7047 296.333,-78.6649"/>
</g>
<!-- Node13 -->
<g id="node13" class="node"><title>Node13</title>
<g id="a_node13"><a xlink:href="node_8h.html" target="_top" xlink:title="Definitions and helper macros for IR/AST nodes. ">
<polygon fill="white" stroke="black" points="1478,-593.5 1478,-612.5 1576,-612.5 1576,-593.5 1478,-593.5"/>
<text text-anchor="middle" x="1527" y="-600.5" font-family="Helvetica,sans-Serif" font-size="10.00">tvm/node/node.h</text>
</a>
</g>
</g>
<!-- Node2&#45;&gt;Node13 -->
<g id="edge12" class="edge"><title>Node2&#45;&gt;Node13</title>
<path fill="none" stroke="midnightblue" d="M1728.05,-761.485C1708.12,-753.551 1678.93,-740.615 1656,-725 1609.48,-693.321 1563.45,-644.981 1541.05,-620.075"/>
<polygon fill="midnightblue" stroke="midnightblue" points="1543.66,-617.734 1534.4,-612.585 1538.42,-622.384 1543.66,-617.734"/>
</g>
<!-- Node29 -->
<g id="node29" class="node"><title>Node29</title>
<polygon fill="white" stroke="#bfbfbf" points="2444,-235.5 2444,-254.5 2486,-254.5 2486,-235.5 2444,-235.5"/>
<text text-anchor="middle" x="2465" y="-242.5" font-family="Helvetica,sans-Serif" font-size="10.00">limits</text>
</g>
<!-- Node2&#45;&gt;Node29 -->
<g id="edge128" class="edge"><title>Node2&#45;&gt;Node29</title>
<path fill="none" stroke="midnightblue" d="M1785.85,-761.423C1817.2,-753.314 1864.29,-740.154 1904,-725 1905.69,-724.353 2020.61,-670.162 2022,-669 2180.96,-536.445 2123.43,-408.24 2294,-291 2316.61,-275.458 2391.02,-259.679 2433.87,-251.573"/>
<polygon fill="midnightblue" stroke="midnightblue" points="2434.59,-255 2443.78,-249.729 2433.3,-248.118 2434.59,-255"/>
</g>
<!-- Node35 -->
<g id="node35" class="node"><title>Node35</title>
<g id="a_node35"><a xlink:href="node_2container_8h.html" target="_top" xlink:title="Array/Map container in the DSL graph. ">
<polygon fill="white" stroke="black" points="1718.5,-414.5 1718.5,-433.5 1837.5,-433.5 1837.5,-414.5 1718.5,-414.5"/>
<text text-anchor="middle" x="1778" y="-421.5" font-family="Helvetica,sans-Serif" font-size="10.00">tvm/node/container.h</text>
</a>
</g>
</g>
<!-- Node2&#45;&gt;Node35 -->
<g id="edge114" class="edge"><title>Node2&#45;&gt;Node35</title>
<path fill="none" stroke="midnightblue" d="M1767.13,-761.373C1804.52,-740.062 1894,-681.027 1894,-604 1894,-604 1894,-604 1894,-546 1894,-511.072 1896.36,-496.829 1874,-470 1861.07,-454.492 1841.6,-444.012 1823.56,-437.098"/>
<polygon fill="midnightblue" stroke="midnightblue" points="1824.33,-433.659 1813.74,-433.615 1822,-440.256 1824.33,-433.659"/>
</g>
<!-- Node39 -->
<g id="node39" class="node"><title>Node39</title>
<g id="a_node39"><a xlink:href="span_8h.html" target="_top" xlink:title="Span information for debugging purposes. ">
<polygon fill="white" stroke="black" points="1610,-649.5 1610,-668.5 1690,-668.5 1690,-649.5 1610,-649.5"/>
<text text-anchor="middle" x="1650" y="-656.5" font-family="Helvetica,sans-Serif" font-size="10.00">tvm/ir/span.h</text>
</a>
</g>
</g>
<!-- Node2&#45;&gt;Node39 -->
<g id="edge115" class="edge"><title>Node2&#45;&gt;Node39</title>
<path fill="none" stroke="midnightblue" d="M1724.91,-761.432C1707.08,-754.315 1684.18,-742.497 1670,-725 1659.21,-711.683 1654.22,-692.564 1651.93,-678.508"/>
<polygon fill="midnightblue" stroke="midnightblue" points="1655.39,-677.982 1650.61,-668.528 1648.45,-678.9 1655.39,-677.982"/>
</g>
<!-- Node40 -->
<g id="node40" class="node"><title>Node40</title>
<g id="a_node40"><a xlink:href="ir_2type_8h.html" target="_top" xlink:title="IR/AST nodes for the unified type system in TVM. ">
<polygon fill="white" stroke="black" points="1679.5,-705.5 1679.5,-724.5 1756.5,-724.5 1756.5,-705.5 1679.5,-705.5"/>
<text text-anchor="middle" x="1718" y="-712.5" font-family="Helvetica,sans-Serif" font-size="10.00">tvm/ir/type.h</text>
</a>
</g>
</g>
<!-- Node2&#45;&gt;Node40 -->
<g id="edge119" class="edge"><title>Node2&#45;&gt;Node40</title>
<path fill="none" stroke="midnightblue" d="M1745.55,-761.083C1740.99,-753.613 1734.33,-742.724 1728.71,-733.52"/>
<polygon fill="midnightblue" stroke="midnightblue" points="1731.55,-731.459 1723.35,-724.751 1725.58,-735.109 1731.55,-731.459"/>
</g>
<!-- Node41 -->
<g id="node41" class="node"><title>Node41</title>
<polygon fill="white" stroke="#bfbfbf" points="1956,-705.5 1956,-724.5 2018,-724.5 2018,-705.5 1956,-705.5"/>
<text text-anchor="middle" x="1987" y="-712.5" font-family="Helvetica,sans-Serif" font-size="10.00">algorithm</text>
</g>
<!-- Node2&#45;&gt;Node41 -->
<g id="edge127" class="edge"><title>Node2&#45;&gt;Node41</title>
<path fill="none" stroke="midnightblue" d="M1788.39,-761.444C1831.32,-751.621 1901.51,-735.562 1945.92,-725.399"/>
<polygon fill="midnightblue" stroke="midnightblue" points="1946.84,-728.779 1955.81,-723.137 1945.28,-721.956 1946.84,-728.779"/>
</g>
<!-- Node4 -->
<g id="node4" class="node"><title>Node4</title>
<polygon fill="white" stroke="#bfbfbf" points="1023,-62 1023,-81 1109,-81 1109,-62 1023,-62"/>
<text text-anchor="middle" x="1066" y="-69" font-family="Helvetica,sans-Serif" font-size="10.00">dmlc/logging.h</text>
</g>
<!-- Node3&#45;&gt;Node4 -->
<g id="edge3" class="edge"><title>Node3&#45;&gt;Node4</title>
<path fill="none" stroke="midnightblue" d="M1501.39,-124.941C1404.46,-113.265 1212.21,-90.1104 1119.06,-78.8906"/>
<polygon fill="midnightblue" stroke="midnightblue" points="1119.36,-75.4014 1109.01,-77.6804 1118.52,-82.3512 1119.36,-75.4014"/>
</g>
<!-- Node5 -->
<g id="node5" class="node"><title>Node5</title>
<g id="a_node5"><a xlink:href="c__runtime__api_8h.html" target="_top" xlink:title="tvm/runtime/c_runtime\l_api.h">
<polygon fill="white" stroke="black" points="2236.5,-56.5 2236.5,-86.5 2363.5,-86.5 2363.5,-56.5 2236.5,-56.5"/>
<text text-anchor="start" x="2244.5" y="-74.5" font-family="Helvetica,sans-Serif" font-size="10.00">tvm/runtime/c_runtime</text>
<text text-anchor="middle" x="2300" y="-63.5" font-family="Helvetica,sans-Serif" font-size="10.00">_api.h</text>
</a>
</g>
</g>
<!-- Node3&#45;&gt;Node5 -->
<g id="edge4" class="edge"><title>Node3&#45;&gt;Node5</title>
<path fill="none" stroke="midnightblue" d="M1618.87,-128.61C1728.85,-122.079 1972.93,-106.642 2178,-87 2193.59,-85.5069 2210.27,-83.6776 2226.14,-81.8277"/>
<polygon fill="midnightblue" stroke="midnightblue" points="2226.9,-85.2615 2236.42,-80.6125 2226.08,-78.3098 2226.9,-85.2615"/>
</g>
<!-- Node3&#45;&gt;Node9 -->
<g id="edge8" class="edge"><title>Node3&#45;&gt;Node9</title>
<path fill="none" stroke="midnightblue" d="M1501.46,-127.331C1357.14,-115.82 986.686,-86.2732 858.467,-76.0467"/>
<polygon fill="midnightblue" stroke="midnightblue" points="858.485,-72.537 848.238,-75.2308 857.928,-79.5149 858.485,-72.537"/>
</g>
<!-- Node3&#45;&gt;Node10 -->
<g id="edge9" class="edge"><title>Node3&#45;&gt;Node10</title>
<path fill="none" stroke="midnightblue" d="M1501.16,-128.109C1475.08,-126.439 1444.01,-124.525 1416,-123 999.115,-100.299 492.015,-79.1911 360.42,-73.8146"/>
<polygon fill="midnightblue" stroke="midnightblue" points="360.356,-70.3092 350.222,-73.3988 360.071,-77.3034 360.356,-70.3092"/>
</g>
<!-- Node11 -->
<g id="node11" class="node"><title>Node11</title>
<polygon fill="white" stroke="#bfbfbf" points="2127,-62 2127,-81 2169,-81 2169,-62 2127,-62"/>
<text text-anchor="middle" x="2148" y="-69" font-family="Helvetica,sans-Serif" font-size="10.00">utility</text>
</g>
<!-- Node3&#45;&gt;Node11 -->
<g id="edge10" class="edge"><title>Node3&#45;&gt;Node11</title>
<path fill="none" stroke="midnightblue" d="M1618.53,-126.077C1741.46,-113.638 2022.9,-85.1593 2116.83,-75.6539"/>
<polygon fill="midnightblue" stroke="midnightblue" points="2117.24,-79.1306 2126.84,-74.6415 2116.54,-72.1661 2117.24,-79.1306"/>
</g>
<!-- Node12 -->
<g id="node12" class="node"><title>Node12</title>
<polygon fill="white" stroke="#bfbfbf" points="1772,-62 1772,-81 1822,-81 1822,-62 1772,-62"/>
<text text-anchor="middle" x="1797" y="-69" font-family="Helvetica,sans-Serif" font-size="10.00">atomic</text>
</g>
<!-- Node3&#45;&gt;Node12 -->
<g id="edge11" class="edge"><title>Node3&#45;&gt;Node12</title>
<path fill="none" stroke="midnightblue" d="M1593.96,-123.475C1638.6,-112.266 1716.66,-92.6691 1761.88,-81.3167"/>
<polygon fill="midnightblue" stroke="midnightblue" points="1762.97,-84.6515 1771.82,-78.8218 1761.27,-77.8622 1762.97,-84.6515"/>
</g>
<!-- Node6 -->
<g id="node6" class="node"><title>Node6</title>
<polygon fill="white" stroke="#bfbfbf" points="2165,-0.5 2165,-19.5 2255,-19.5 2255,-0.5 2165,-0.5"/>
<text text-anchor="middle" x="2210" y="-7.5" font-family="Helvetica,sans-Serif" font-size="10.00">dlpack/dlpack.h</text>
</g>
<!-- Node5&#45;&gt;Node6 -->
<g id="edge5" class="edge"><title>Node5&#45;&gt;Node6</title>
<path fill="none" stroke="midnightblue" d="M2278.67,-56.3993C2264.51,-47.0402 2245.99,-34.7924 2231.75,-25.3771"/>
<polygon fill="midnightblue" stroke="midnightblue" points="2233.37,-22.2531 2223.1,-19.6578 2229.51,-28.0923 2233.37,-22.2531"/>
</g>
<!-- Node7 -->
<g id="node7" class="node"><title>Node7</title>
<polygon fill="white" stroke="#bfbfbf" points="2273.5,-0.5 2273.5,-19.5 2326.5,-19.5 2326.5,-0.5 2273.5,-0.5"/>
<text text-anchor="middle" x="2300" y="-7.5" font-family="Helvetica,sans-Serif" font-size="10.00">stdint.h</text>
</g>
<!-- Node5&#45;&gt;Node7 -->
<g id="edge6" class="edge"><title>Node5&#45;&gt;Node7</title>
<path fill="none" stroke="midnightblue" d="M2300,-56.3993C2300,-48.4664 2300,-38.458 2300,-29.8583"/>
<polygon fill="midnightblue" stroke="midnightblue" points="2303.5,-29.6577 2300,-19.6578 2296.5,-29.6578 2303.5,-29.6577"/>
</g>
<!-- Node8 -->
<g id="node8" class="node"><title>Node8</title>
<polygon fill="white" stroke="#bfbfbf" points="2344.5,-0.5 2344.5,-19.5 2399.5,-19.5 2399.5,-0.5 2344.5,-0.5"/>
<text text-anchor="middle" x="2372" y="-7.5" font-family="Helvetica,sans-Serif" font-size="10.00">stddef.h</text>
</g>
<!-- Node5&#45;&gt;Node8 -->
<g id="edge7" class="edge"><title>Node5&#45;&gt;Node8</title>
<path fill="none" stroke="midnightblue" d="M2317.06,-56.3993C2328.06,-47.3076 2342.37,-35.4899 2353.62,-26.1909"/>
<polygon fill="midnightblue" stroke="midnightblue" points="2356.04,-28.726 2361.52,-19.6578 2351.59,-23.33 2356.04,-28.726"/>
</g>
<!-- Node13&#45;&gt;Node3 -->
<g id="edge66" class="edge"><title>Node13&#45;&gt;Node3</title>
<path fill="none" stroke="midnightblue" d="M1515.7,-593.448C1470.79,-558.359 1309.45,-421.14 1352,-291 1371.17,-232.361 1384.55,-215.888 1434,-179 1455.6,-162.887 1483.5,-152.136 1507.55,-145.197"/>
<polygon fill="midnightblue" stroke="midnightblue" points="1508.53,-148.558 1517.25,-142.542 1506.68,-141.807 1508.53,-148.558"/>
</g>
<!-- Node13&#45;&gt;Node5 -->
<g id="edge13" class="edge"><title>Node13&#45;&gt;Node5</title>
<path fill="none" stroke="midnightblue" d="M1576.07,-600.457C1729.39,-593.249 2206.86,-552.456 2502,-322 2582.34,-259.269 2682.14,-200.553 2616,-123 2585.5,-87.2401 2457.29,-76.6898 2373.84,-73.6466"/>
<polygon fill="midnightblue" stroke="midnightblue" points="2373.76,-70.1419 2363.64,-73.3037 2373.52,-77.1379 2373.76,-70.1419"/>
</g>
<!-- Node13&#45;&gt;Node9 -->
<g id="edge113" class="edge"><title>Node13&#45;&gt;Node9</title>
<path fill="none" stroke="midnightblue" d="M1477.81,-600.861C1334.73,-597.255 920.428,-584.651 788,-557 717.117,-542.2 698.371,-536.037 635,-501 521.333,-438.155 461.169,-438.624 404,-322 366.134,-244.754 484.621,-201.04 518,-179 572.549,-142.981 592.554,-145.302 654,-123 694.695,-108.23 742.067,-93.5883 774.646,-83.9045"/>
<polygon fill="midnightblue" stroke="midnightblue" points="775.66,-87.2545 784.258,-81.0637 773.676,-80.5415 775.66,-87.2545"/>
</g>
<!-- Node13&#45;&gt;Node10 -->
<g id="edge110" class="edge"><title>Node13&#45;&gt;Node10</title>
<path fill="none" stroke="midnightblue" d="M1477.9,-601.456C1324.42,-599.419 855.092,-590.539 707,-557 643.246,-542.562 629.8,-529.558 571,-501 413.557,-424.534 228,-482.529 228,-307.5 228,-307.5 228,-307.5 228,-188 228,-142.09 273.718,-105.46 303.329,-86.5496"/>
<polygon fill="midnightblue" stroke="midnightblue" points="305.248,-89.4785 311.933,-81.2592 301.581,-83.5155 305.248,-89.4785"/>
</g>
<!-- Node13&#45;&gt;Node11 -->
<g id="edge112" class="edge"><title>Node13&#45;&gt;Node11</title>
<path fill="none" stroke="midnightblue" d="M1576.39,-596.233C1624.02,-589.787 1697.71,-577.473 1759,-557 1812.92,-538.989 1824.06,-528.158 1874,-501 2032.7,-414.702 2056.01,-362.272 2222,-291 2277.48,-267.177 2295.49,-273.393 2353,-255 2387.49,-243.971 2485.26,-228.677 2506,-199 2511.09,-191.714 2511.31,-186.125 2506,-179 2485.85,-151.989 2262.41,-98.6293 2179.08,-79.5162"/>
<polygon fill="midnightblue" stroke="midnightblue" points="2179.71,-76.0707 2169.18,-77.2565 2178.15,-82.895 2179.71,-76.0707"/>
</g>
<!-- Node14 -->
<g id="node14" class="node"><title>Node14</title>
<g id="a_node14"><a xlink:href="runtime_2container_8h.html" target="_top" xlink:title="Common POD(plain old data) container types. ">
<polygon fill="white" stroke="black" points="1425,-358.5 1425,-377.5 1557,-377.5 1557,-358.5 1425,-358.5"/>
<text text-anchor="middle" x="1491" y="-365.5" font-family="Helvetica,sans-Serif" font-size="10.00">tvm/runtime/container.h</text>
</a>
</g>
</g>
<!-- Node13&#45;&gt;Node14 -->
<g id="edge14" class="edge"><title>Node13&#45;&gt;Node14</title>
<path fill="none" stroke="midnightblue" d="M1525.68,-593.431C1520.46,-559.683 1501.27,-435.47 1493.9,-387.799"/>
<polygon fill="midnightblue" stroke="midnightblue" points="1497.36,-387.244 1492.37,-377.896 1490.44,-388.313 1497.36,-387.244"/>
</g>
<!-- Node15 -->
<g id="node15" class="node"><title>Node15</title>
<g id="a_node15"><a xlink:href="runtime_2memory_8h.html" target="_top" xlink:title="Runtime memory management. ">
<polygon fill="white" stroke="black" points="1056.5,-179.5 1056.5,-198.5 1183.5,-198.5 1183.5,-179.5 1056.5,-179.5"/>
<text text-anchor="middle" x="1120" y="-186.5" font-family="Helvetica,sans-Serif" font-size="10.00">tvm/runtime/memory.h</text>
</a>
</g>
</g>
<!-- Node13&#45;&gt;Node15 -->
<g id="edge67" class="edge"><title>Node13&#45;&gt;Node15</title>
<path fill="none" stroke="midnightblue" d="M1477.9,-600.457C1298.23,-594.167 687,-566.865 687,-486.5 687,-486.5 687,-486.5 687,-423 687,-325.052 720.134,-288.776 802,-235 840.994,-209.386 964.89,-198.03 1046.03,-193.237"/>
<polygon fill="midnightblue" stroke="midnightblue" points="1046.41,-196.721 1056.19,-192.657 1046.01,-189.732 1046.41,-196.721"/>
</g>
<!-- Node21 -->
<g id="node21" class="node"><title>Node21</title>
<polygon fill="white" stroke="#bfbfbf" points="1658.5,-179.5 1658.5,-198.5 1705.5,-198.5 1705.5,-179.5 1658.5,-179.5"/>
<text text-anchor="middle" x="1682" y="-186.5" font-family="Helvetica,sans-Serif" font-size="10.00">vector</text>
</g>
<!-- Node13&#45;&gt;Node21 -->
<g id="edge111" class="edge"><title>Node13&#45;&gt;Node21</title>
<path fill="none" stroke="midnightblue" d="M1532.75,-593.399C1557.62,-555.594 1656.16,-399.635 1688,-255 1691.39,-239.592 1689.32,-221.719 1686.72,-208.619"/>
<polygon fill="midnightblue" stroke="midnightblue" points="1690.06,-207.495 1684.43,-198.517 1683.23,-209.044 1690.06,-207.495"/>
</g>
<!-- Node32 -->
<g id="node32" class="node"><title>Node32</title>
<g id="a_node32"><a xlink:href="reflection_8h.html" target="_top" xlink:title="Reflection and serialization of compiler IR/AST nodes. ">
<polygon fill="white" stroke="black" points="1042.5,-537.5 1042.5,-556.5 1161.5,-556.5 1161.5,-537.5 1042.5,-537.5"/>
<text text-anchor="middle" x="1102" y="-544.5" font-family="Helvetica,sans-Serif" font-size="10.00">tvm/node/reflection.h</text>
</a>
</g>
</g>
<!-- Node13&#45;&gt;Node32 -->
<g id="edge68" class="edge"><title>Node13&#45;&gt;Node32</title>
<path fill="none" stroke="midnightblue" d="M1477.83,-595.753C1402.38,-586.166 1257.74,-567.788 1171.56,-556.839"/>
<polygon fill="midnightblue" stroke="midnightblue" points="1171.97,-553.363 1161.61,-555.574 1171.09,-560.307 1171.97,-553.363"/>
</g>
<!-- Node33 -->
<g id="node33" class="node"><title>Node33</title>
<g id="a_node33"><a xlink:href="structural__equal_8h.html" target="_top" xlink:title="Structural equality comparison. ">
<polygon fill="white" stroke="black" points="883.5,-470.5 883.5,-500.5 994.5,-500.5 994.5,-470.5 883.5,-470.5"/>
<text text-anchor="start" x="891.5" y="-488.5" font-family="Helvetica,sans-Serif" font-size="10.00">tvm/node/structural</text>
<text text-anchor="middle" x="939" y="-477.5" font-family="Helvetica,sans-Serif" font-size="10.00">_equal.h</text>
</a>
</g>
</g>
<!-- Node13&#45;&gt;Node33 -->
<g id="edge108" class="edge"><title>Node13&#45;&gt;Node33</title>
<path fill="none" stroke="midnightblue" d="M1477.96,-600.92C1369.68,-597.991 1113.38,-587.915 1033,-557 1004.77,-546.141 977.701,-524.207 959.924,-507.672"/>
<polygon fill="midnightblue" stroke="midnightblue" points="962.086,-504.896 952.439,-500.514 957.248,-509.955 962.086,-504.896"/>
</g>
<!-- Node13&#45;&gt;Node35 -->
<g id="edge107" class="edge"><title>Node13&#45;&gt;Node35</title>
<path fill="none" stroke="midnightblue" d="M1537.7,-593.348C1553.49,-580.66 1584.08,-556.411 1611,-537 1661.77,-500.394 1723.35,-460.123 1755.68,-439.279"/>
<polygon fill="midnightblue" stroke="midnightblue" points="1757.85,-442.048 1764.37,-433.696 1754.06,-436.16 1757.85,-442.048"/>
</g>
<!-- Node36 -->
<g id="node36" class="node"><title>Node36</title>
<g id="a_node36"><a xlink:href="structural__hash_8h.html" target="_top" xlink:title="tvm/node/structural\l_hash.h">
<polygon fill="white" stroke="black" points="715.5,-470.5 715.5,-500.5 826.5,-500.5 826.5,-470.5 715.5,-470.5"/>
<text text-anchor="start" x="723.5" y="-488.5" font-family="Helvetica,sans-Serif" font-size="10.00">tvm/node/structural</text>
<text text-anchor="middle" x="771" y="-477.5" font-family="Helvetica,sans-Serif" font-size="10.00">_hash.h</text>
</a>
</g>
</g>
<!-- Node13&#45;&gt;Node36 -->
<g id="edge109" class="edge"><title>Node13&#45;&gt;Node36</title>
<path fill="none" stroke="midnightblue" d="M1477.9,-601.512C1383.2,-599.769 1169.13,-591.931 993,-557 930.494,-544.604 860.822,-520.755 816.49,-504.251"/>
<polygon fill="midnightblue" stroke="midnightblue" points="817.473,-500.881 806.881,-500.641 815.011,-507.434 817.473,-500.881"/>
</g>
<!-- Node37 -->
<g id="node37" class="node"><title>Node37</title>
<g id="a_node37"><a xlink:href="repr__printer_8h.html" target="_top" xlink:title="Printer class to print repr string of each AST/IR nodes. ">
<polygon fill="white" stroke="black" points="1620,-537.5 1620,-556.5 1750,-556.5 1750,-537.5 1620,-537.5"/>
<text text-anchor="middle" x="1685" y="-544.5" font-family="Helvetica,sans-Serif" font-size="10.00">tvm/node/repr_printer.h</text>
</a>
</g>
</g>
<!-- Node13&#45;&gt;Node37 -->
<g id="edge104" class="edge"><title>Node13&#45;&gt;Node37</title>
<path fill="none" stroke="midnightblue" d="M1552.04,-593.444C1578.62,-584.359 1620.81,-569.939 1650.52,-559.783"/>
<polygon fill="midnightblue" stroke="midnightblue" points="1651.75,-563.062 1660.08,-556.516 1649.49,-556.439 1651.75,-563.062"/>
</g>
<!-- Node14&#45;&gt;Node3 -->
<g id="edge21" class="edge"><title>Node14&#45;&gt;Node3</title>
<path fill="none" stroke="midnightblue" d="M1502.99,-358.333C1515.08,-349.483 1534.17,-335.206 1550,-322 1565.7,-308.898 1568.76,-304.636 1584,-291 1602.07,-274.83 1615,-277.091 1625,-255 1634.44,-234.143 1615.07,-187.275 1610,-179 1602.83,-167.294 1591.7,-156.85 1581.76,-148.976"/>
<polygon fill="midnightblue" stroke="midnightblue" points="1583.56,-145.953 1573.46,-142.753 1579.36,-151.553 1583.56,-145.953"/>
</g>
<!-- Node14&#45;&gt;Node4 -->
<g id="edge15" class="edge"><title>Node14&#45;&gt;Node4</title>
<path fill="none" stroke="midnightblue" d="M1427.95,-358.465C1391.77,-351.871 1346.27,-340.621 1309,-322 1289.5,-312.259 1289.73,-302.15 1271,-291 1224.76,-263.471 1076.96,-243.699 1047,-199 1035.38,-181.667 1051.06,-121.616 1060.22,-90.9025"/>
<polygon fill="midnightblue" stroke="midnightblue" points="1063.65,-91.6345 1063.24,-81.048 1056.96,-89.5852 1063.65,-91.6345"/>
</g>
<!-- Node14&#45;&gt;Node9 -->
<g id="edge63" class="edge"><title>Node14&#45;&gt;Node9</title>
<path fill="none" stroke="midnightblue" d="M1434.68,-358.444C1389.8,-350.92 1325.65,-338.579 1271,-322 1236.09,-311.41 1230.1,-300.923 1195,-291 1100.5,-264.289 1063.05,-302.314 977,-255 903.189,-214.416 845.932,-127.216 823.865,-89.9591"/>
<polygon fill="midnightblue" stroke="midnightblue" points="826.851,-88.1304 818.806,-81.2362 820.795,-91.6425 826.851,-88.1304"/>
</g>
<!-- Node14&#45;&gt;Node10 -->
<g id="edge62" class="edge"><title>Node14&#45;&gt;Node10</title>
<path fill="none" stroke="midnightblue" d="M1431.96,-358.476C1372.17,-349.738 1277.06,-335.546 1195,-322 1027.52,-294.353 977.591,-315.514 819,-255 792.898,-245.04 631.082,-133.012 605,-123 520.464,-90.5503 413.235,-78.6203 360.415,-74.5043"/>
<polygon fill="midnightblue" stroke="midnightblue" points="360.528,-71.0033 350.298,-73.7607 360.015,-77.9844 360.528,-71.0033"/>
</g>
<!-- Node14&#45;&gt;Node11 -->
<g id="edge64" class="edge"><title>Node14&#45;&gt;Node11</title>
<path fill="none" stroke="midnightblue" d="M1513.35,-358.481C1556.6,-342.388 1655.04,-307.642 1741,-291 1831.01,-273.573 2078.57,-309.893 2152,-255 2199.64,-219.39 2188.01,-180.803 2174,-123 2171.17,-111.335 2165.16,-99.346 2159.62,-89.9784"/>
<polygon fill="midnightblue" stroke="midnightblue" points="2162.46,-87.9088 2154.18,-81.2888 2156.52,-91.6224 2162.46,-87.9088"/>
</g>
<!-- Node14&#45;&gt;Node15 -->
<g id="edge16" class="edge"><title>Node14&#45;&gt;Node15</title>
<path fill="none" stroke="midnightblue" d="M1454.36,-358.484C1425.6,-351.017 1385.04,-338.734 1352,-322 1330.98,-311.354 1328.78,-303.795 1309,-291 1267.2,-263.965 1255.94,-258.394 1212,-235 1190.71,-223.667 1166.16,-211.712 1147.78,-202.975"/>
<polygon fill="midnightblue" stroke="midnightblue" points="1149.05,-199.707 1138.52,-198.598 1146.06,-206.036 1149.05,-199.707"/>
</g>
<!-- Node17 -->
<g id="node17" class="node"><title>Node17</title>
<g id="a_node17"><a xlink:href="packed__func_8h.html" target="_top" xlink:title="Type&#45;erased function used across TVM API. ">
<polygon fill="white" stroke="black" points="1428.5,-291.5 1428.5,-321.5 1541.5,-321.5 1541.5,-291.5 1428.5,-291.5"/>
<text text-anchor="start" x="1436.5" y="-309.5" font-family="Helvetica,sans-Serif" font-size="10.00">tvm/runtime/packed</text>
<text text-anchor="middle" x="1485" y="-298.5" font-family="Helvetica,sans-Serif" font-size="10.00">_func.h</text>
</a>
</g>
</g>
<!-- Node14&#45;&gt;Node17 -->
<g id="edge22" class="edge"><title>Node14&#45;&gt;Node17</title>
<path fill="none" stroke="midnightblue" d="M1490.14,-358.475C1489.43,-351.471 1488.4,-341.192 1487.44,-331.696"/>
<polygon fill="midnightblue" stroke="midnightblue" points="1490.9,-331.121 1486.41,-321.523 1483.94,-331.824 1490.9,-331.121"/>
</g>
<!-- Node14&#45;&gt;Node21 -->
<g id="edge65" class="edge"><title>Node14&#45;&gt;Node21</title>
<path fill="none" stroke="midnightblue" d="M1513.99,-358.461C1533.58,-350.598 1561.98,-337.776 1584,-322 1617.98,-297.652 1625.79,-289.076 1650,-255 1660.35,-240.436 1669.06,-222.025 1674.77,-208.518"/>
<polygon fill="midnightblue" stroke="midnightblue" points="1678.16,-209.487 1678.68,-198.905 1671.67,-206.85 1678.16,-209.487"/>
</g>
<!-- Node30 -->
<g id="node30" class="node"><title>Node30</title>
<polygon fill="white" stroke="#bfbfbf" points="1361.5,-297 1361.5,-316 1410.5,-316 1410.5,-297 1361.5,-297"/>
<text text-anchor="middle" x="1386" y="-304" font-family="Helvetica,sans-Serif" font-size="10.00">cstring</text>
</g>
<!-- Node14&#45;&gt;Node30 -->
<g id="edge60" class="edge"><title>Node14&#45;&gt;Node30</title>
<path fill="none" stroke="midnightblue" d="M1475.96,-358.475C1458.72,-348.711 1430.26,-332.581 1409.97,-321.081"/>
<polygon fill="midnightblue" stroke="midnightblue" points="1411.44,-317.894 1401.02,-316.009 1407.99,-323.984 1411.44,-317.894"/>
</g>
<!-- Node31 -->
<g id="node31" class="node"><title>Node31</title>
<polygon fill="white" stroke="#bfbfbf" points="1750.5,-297 1750.5,-316 1827.5,-316 1827.5,-297 1750.5,-297"/>
<text text-anchor="middle" x="1789" y="-304" font-family="Helvetica,sans-Serif" font-size="10.00">initializer_list</text>
</g>
<!-- Node14&#45;&gt;Node31 -->
<g id="edge61" class="edge"><title>Node14&#45;&gt;Node31</title>
<path fill="none" stroke="midnightblue" d="M1533.7,-358.475C1588.35,-347.562 1682.83,-328.699 1740.25,-317.234"/>
<polygon fill="midnightblue" stroke="midnightblue" points="1741.05,-320.642 1750.18,-315.252 1739.68,-313.778 1741.05,-320.642"/>
</g>
<!-- Node15&#45;&gt;Node3 -->
<g id="edge17" class="edge"><title>Node15&#45;&gt;Node3</title>
<path fill="none" stroke="midnightblue" d="M1183.51,-180.206C1265.38,-170.158 1407.2,-152.752 1491.45,-142.413"/>
<polygon fill="midnightblue" stroke="midnightblue" points="1491.93,-145.88 1501.43,-141.188 1491.08,-138.932 1491.93,-145.88"/>
</g>
<!-- Node15&#45;&gt;Node9 -->
<g id="edge20" class="edge"><title>Node15&#45;&gt;Node9</title>
<path fill="none" stroke="midnightblue" d="M1100.75,-179.297C1071.79,-166.337 1015.16,-141.508 966,-123 927.539,-108.52 882.825,-93.9273 851.898,-84.1787"/>
<polygon fill="midnightblue" stroke="midnightblue" points="852.556,-80.7171 841.967,-81.0654 850.462,-87.3966 852.556,-80.7171"/>
</g>
<!-- Node15&#45;&gt;Node11 -->
<g id="edge19" class="edge"><title>Node15&#45;&gt;Node11</title>
<path fill="none" stroke="midnightblue" d="M1140.67,-179.389C1176.61,-164.86 1253.25,-135.81 1321,-123 1400.21,-108.023 1974.78,-80.5552 2116.48,-73.9542"/>
<polygon fill="midnightblue" stroke="midnightblue" points="2116.83,-77.4418 2126.66,-73.4814 2116.5,-70.4494 2116.83,-77.4418"/>
</g>
<!-- Node16 -->
<g id="node16" class="node"><title>Node16</title>
<polygon fill="white" stroke="#bfbfbf" points="1096.5,-123.5 1096.5,-142.5 1143.5,-142.5 1143.5,-123.5 1096.5,-123.5"/>
<text text-anchor="middle" x="1120" y="-130.5" font-family="Helvetica,sans-Serif" font-size="10.00">cstdlib</text>
</g>
<!-- Node15&#45;&gt;Node16 -->
<g id="edge18" class="edge"><title>Node15&#45;&gt;Node16</title>
<path fill="none" stroke="midnightblue" d="M1120,-179.083C1120,-172.006 1120,-161.861 1120,-152.986"/>
<polygon fill="midnightblue" stroke="midnightblue" points="1123.5,-152.751 1120,-142.751 1116.5,-152.751 1123.5,-152.751"/>
</g>
<!-- Node17&#45;&gt;Node3 -->
<g id="edge51" class="edge"><title>Node17&#45;&gt;Node3</title>
<path fill="none" stroke="midnightblue" d="M1448.76,-291.399C1422.65,-278.903 1394.11,-258.95 1407,-235 1431.64,-189.203 1487.16,-160.721 1524.1,-146.108"/>
<polygon fill="midnightblue" stroke="midnightblue" points="1525.42,-149.35 1533.52,-142.521 1522.93,-142.808 1525.42,-149.35"/>
</g>
<!-- Node17&#45;&gt;Node4 -->
<g id="edge23" class="edge"><title>Node17&#45;&gt;Node4</title>
<path fill="none" stroke="midnightblue" d="M1459.73,-291.45C1384.89,-249.83 1164.96,-127.53 1090.77,-86.2725"/>
<polygon fill="midnightblue" stroke="midnightblue" points="1092.12,-83.0213 1081.68,-81.2201 1088.72,-89.139 1092.12,-83.0213"/>
</g>
<!-- Node17&#45;&gt;Node5 -->
<g id="edge24" class="edge"><title>Node17&#45;&gt;Node5</title>
<path fill="none" stroke="midnightblue" d="M1541.59,-302.042C1697.46,-292.406 2123.48,-265.286 2152,-255 2228.6,-227.376 2261.23,-216.151 2297,-143 2303.99,-128.705 2304.66,-110.767 2303.62,-96.5625"/>
<polygon fill="midnightblue" stroke="midnightblue" points="2307.1,-96.1309 2302.57,-86.5502 2300.13,-96.8606 2307.1,-96.1309"/>
</g>
<!-- Node17&#45;&gt;Node9 -->
<g id="edge59" class="edge"><title>Node17&#45;&gt;Node9</title>
<path fill="none" stroke="midnightblue" d="M1428.31,-292.588C1318.09,-267.358 1082.58,-212.776 1047,-199 981.341,-173.576 969.902,-156.55 908,-123 884.592,-110.313 857.841,-95.9552 838.877,-85.8007"/>
<polygon fill="midnightblue" stroke="midnightblue" points="840.454,-82.6751 829.986,-81.0422 837.151,-88.8468 840.454,-82.6751"/>
</g>
<!-- Node17&#45;&gt;Node10 -->
<g id="edge55" class="edge"><title>Node17&#45;&gt;Node10</title>
<path fill="none" stroke="midnightblue" d="M1428.21,-292.513C1425.1,-291.962 1422.02,-291.452 1419,-291 1224.08,-261.787 1168.96,-299.707 977,-255 821.544,-218.794 796.933,-165.216 643,-123 541.888,-95.2703 418.072,-80.9373 360.416,-75.3509"/>
<polygon fill="midnightblue" stroke="midnightblue" points="360.402,-71.834 350.117,-74.3785 359.744,-78.803 360.402,-71.834"/>
</g>
<!-- Node17&#45;&gt;Node11 -->
<g id="edge58" class="edge"><title>Node17&#45;&gt;Node11</title>
<path fill="none" stroke="midnightblue" d="M1541.68,-301.056C1578.29,-298.186 1626.96,-294.371 1670,-291 1721.11,-286.997 2093.38,-290.883 2130,-255 2174.31,-211.581 2161.6,-128.535 2152.99,-91.3355"/>
<polygon fill="midnightblue" stroke="midnightblue" points="2156.32,-90.2234 2150.52,-81.3572 2149.53,-91.9053 2156.32,-90.2234"/>
</g>
<!-- Node18 -->
<g id="node18" class="node"><title>Node18</title>
<g id="a_node18"><a xlink:href="runtime_2module_8h.html" target="_top" xlink:title="Runtime container of the functions generated by TVM, This is used to support dynamically link...">
<polygon fill="white" stroke="black" points="1476,-235.5 1476,-254.5 1600,-254.5 1600,-235.5 1476,-235.5"/>
<text text-anchor="middle" x="1538" y="-242.5" font-family="Helvetica,sans-Serif" font-size="10.00">tvm/runtime/module.h</text>
</a>
</g>
</g>
<!-- Node17&#45;&gt;Node18 -->
<g id="edge25" class="edge"><title>Node17&#45;&gt;Node18</title>
<path fill="none" stroke="midnightblue" d="M1491.72,-291.399C1498.52,-282.486 1508.72,-270.952 1517.94,-261.741"/>
<polygon fill="midnightblue" stroke="midnightblue" points="1520.55,-264.096 1525.36,-254.658 1515.71,-259.034 1520.55,-264.096"/>
</g>
<!-- Node20 -->
<g id="node20" class="node"><title>Node20</title>
<polygon fill="white" stroke="#bfbfbf" points="1544.5,-179.5 1544.5,-198.5 1601.5,-198.5 1601.5,-179.5 1544.5,-179.5"/>
<text text-anchor="middle" x="1573" y="-186.5" font-family="Helvetica,sans-Serif" font-size="10.00">memory</text>
</g>
<!-- Node17&#45;&gt;Node20 -->
<g id="edge57" class="edge"><title>Node17&#45;&gt;Node20</title>
<path fill="none" stroke="midnightblue" d="M1534.71,-291.474C1565.23,-281.747 1600.11,-268.213 1609,-255 1619.93,-238.743 1605.22,-218.898 1591.45,-205.444"/>
<polygon fill="midnightblue" stroke="midnightblue" points="1593.8,-202.854 1584.06,-198.69 1589.08,-208.021 1593.8,-202.854"/>
</g>
<!-- Node17&#45;&gt;Node21 -->
<g id="edge54" class="edge"><title>Node17&#45;&gt;Node21</title>
<path fill="none" stroke="midnightblue" d="M1541.57,-292.171C1568.37,-284.148 1599.92,-272.106 1625,-255 1643.72,-242.236 1660.18,-221.927 1670.54,-207.408"/>
<polygon fill="midnightblue" stroke="midnightblue" points="1673.64,-209.064 1676.42,-198.84 1667.88,-205.099 1673.64,-209.064"/>
</g>
<!-- Node23 -->
<g id="node23" class="node"><title>Node23</title>
<g id="a_node23"><a xlink:href="ndarray_8h.html" target="_top" xlink:title="A device&#45;independent managed NDArray abstraction. ">
<polygon fill="white" stroke="black" points="1998.5,-235.5 1998.5,-254.5 2121.5,-254.5 2121.5,-235.5 1998.5,-235.5"/>
<text text-anchor="middle" x="2060" y="-242.5" font-family="Helvetica,sans-Serif" font-size="10.00">tvm/runtime/ndarray.h</text>
</a>
</g>
</g>
<!-- Node17&#45;&gt;Node23 -->
<g id="edge35" class="edge"><title>Node17&#45;&gt;Node23</title>
<path fill="none" stroke="midnightblue" d="M1541.71,-299.632C1646.9,-288.746 1872.09,-265.444 1987.92,-253.459"/>
<polygon fill="midnightblue" stroke="midnightblue" points="1988.51,-256.916 1998.1,-252.405 1987.79,-249.953 1988.51,-256.916"/>
</g>
<!-- Node26 -->
<g id="node26" class="node"><title>Node26</title>
<g id="a_node26"><a xlink:href="data__type_8h.html" target="_top" xlink:title="tvm/runtime/data_type.h">
<polygon fill="white" stroke="black" points="484,-235.5 484,-254.5 620,-254.5 620,-235.5 484,-235.5"/>
<text text-anchor="middle" x="552" y="-242.5" font-family="Helvetica,sans-Serif" font-size="10.00">tvm/runtime/data_type.h</text>
</a>
</g>
</g>
<!-- Node17&#45;&gt;Node26 -->
<g id="edge46" class="edge"><title>Node17&#45;&gt;Node26</title>
<path fill="none" stroke="midnightblue" d="M1428.22,-292.406C1425.11,-291.882 1422.02,-291.408 1419,-291 1267.82,-270.611 813.645,-254.33 630.164,-248.409"/>
<polygon fill="midnightblue" stroke="midnightblue" points="630.159,-244.907 620.052,-248.084 629.934,-251.903 630.159,-244.907"/>
</g>
<!-- Node27 -->
<g id="node27" class="node"><title>Node27</title>
<polygon fill="white" stroke="#bfbfbf" points="828.5,-235.5 828.5,-254.5 891.5,-254.5 891.5,-235.5 828.5,-235.5"/>
<text text-anchor="middle" x="860" y="-242.5" font-family="Helvetica,sans-Serif" font-size="10.00">functional</text>
</g>
<!-- Node17&#45;&gt;Node27 -->
<g id="edge52" class="edge"><title>Node17&#45;&gt;Node27</title>
<path fill="none" stroke="midnightblue" d="M1428.21,-292.472C1425.11,-291.932 1422.02,-291.435 1419,-291 1192.78,-258.391 1132.58,-285 906,-255 904.538,-254.806 903.052,-254.595 901.554,-254.37"/>
<polygon fill="midnightblue" stroke="midnightblue" points="902.028,-250.901 891.589,-252.712 900.879,-257.806 902.028,-250.901"/>
</g>
<!-- Node28 -->
<g id="node28" class="node"><title>Node28</title>
<polygon fill="white" stroke="#bfbfbf" points="1416.5,-235.5 1416.5,-254.5 1457.5,-254.5 1457.5,-235.5 1416.5,-235.5"/>
<text text-anchor="middle" x="1437" y="-242.5" font-family="Helvetica,sans-Serif" font-size="10.00">tuple</text>
</g>
<!-- Node17&#45;&gt;Node28 -->
<g id="edge53" class="edge"><title>Node17&#45;&gt;Node28</title>
<path fill="none" stroke="midnightblue" d="M1473.62,-291.399C1466.65,-282.753 1457.69,-271.642 1450.37,-262.576"/>
<polygon fill="midnightblue" stroke="midnightblue" points="1452.99,-260.243 1443.98,-254.658 1447.54,-264.638 1452.99,-260.243"/>
</g>
<!-- Node17&#45;&gt;Node29 -->
<g id="edge56" class="edge"><title>Node17&#45;&gt;Node29</title>
<path fill="none" stroke="midnightblue" d="M1541.57,-302.066C1724.11,-290.983 2293.8,-256.394 2433.72,-247.899"/>
<polygon fill="midnightblue" stroke="midnightblue" points="2434,-251.389 2443.77,-247.289 2433.58,-244.401 2434,-251.389"/>
</g>
<!-- Node18&#45;&gt;Node3 -->
<g id="edge28" class="edge"><title>Node18&#45;&gt;Node3</title>
<path fill="none" stroke="midnightblue" d="M1527.2,-235.317C1513.25,-222.991 1491.9,-199.621 1502,-179 1508.52,-165.684 1521.1,-155.177 1532.87,-147.676"/>
<polygon fill="midnightblue" stroke="midnightblue" points="1534.77,-150.621 1541.61,-142.529 1531.22,-144.589 1534.77,-150.621"/>
</g>
<!-- Node18&#45;&gt;Node5 -->
<g id="edge27" class="edge"><title>Node18&#45;&gt;Node5</title>
<path fill="none" stroke="midnightblue" d="M1600.49,-243.443C1731.21,-241.591 2029.23,-233.587 2124,-199 2187.22,-175.929 2248.01,-123.354 2278.9,-93.759"/>
<polygon fill="midnightblue" stroke="midnightblue" points="2281.37,-96.2428 2286.1,-86.7618 2276.49,-91.2247 2281.37,-96.2428"/>
</g>
<!-- Node18&#45;&gt;Node10 -->
<g id="edge32" class="edge"><title>Node18&#45;&gt;Node10</title>
<path fill="none" stroke="midnightblue" d="M1517.12,-235.464C1459.9,-212.516 1295.31,-149.446 1152,-123 995.889,-94.1908 492.954,-77.4266 360.317,-73.4336"/>
<polygon fill="midnightblue" stroke="midnightblue" points="360.124,-69.9264 350.025,-73.1271 359.916,-76.9233 360.124,-69.9264"/>
</g>
<!-- Node18&#45;&gt;Node15 -->
<g id="edge29" class="edge"><title>Node18&#45;&gt;Node15</title>
<path fill="none" stroke="midnightblue" d="M1475.87,-235.974C1400.63,-226.253 1274.03,-209.899 1193.86,-199.542"/>
<polygon fill="midnightblue" stroke="midnightblue" points="1194.21,-196.058 1183.84,-198.247 1193.31,-203 1194.21,-196.058"/>
</g>
<!-- Node18&#45;&gt;Node17 -->
<g id="edge34" class="edge"><title>Node18&#45;&gt;Node17</title>
<path fill="none" stroke="midnightblue" d="M1535.22,-254.658C1530.03,-262.332 1520.29,-273.862 1510.66,-284.002"/>
<polygon fill="midnightblue" stroke="midnightblue" points="1507.91,-281.812 1503.4,-291.399 1512.9,-286.716 1507.91,-281.812"/>
</g>
<!-- Node19 -->
<g id="node19" class="node"><title>Node19</title>
<polygon fill="white" stroke="#bfbfbf" points="1735,-123.5 1735,-142.5 1795,-142.5 1795,-123.5 1735,-123.5"/>
<text text-anchor="middle" x="1765" y="-130.5" font-family="Helvetica,sans-Serif" font-size="10.00">dmlc/io.h</text>
</g>
<!-- Node18&#45;&gt;Node19 -->
<g id="edge26" class="edge"><title>Node18&#45;&gt;Node19</title>
<path fill="none" stroke="midnightblue" d="M1534.29,-235.275C1529.12,-221.606 1521.79,-195.047 1535,-179 1558.54,-150.405 1664.93,-139.722 1724.42,-135.937"/>
<polygon fill="midnightblue" stroke="midnightblue" points="1724.83,-139.419 1734.6,-135.327 1724.41,-132.431 1724.83,-139.419"/>
</g>
<!-- Node18&#45;&gt;Node20 -->
<g id="edge30" class="edge"><title>Node18&#45;&gt;Node20</title>
<path fill="none" stroke="midnightblue" d="M1543.78,-235.083C1548.67,-227.534 1555.83,-216.495 1561.83,-207.23"/>
<polygon fill="midnightblue" stroke="midnightblue" points="1564.83,-209.046 1567.33,-198.751 1558.95,-205.239 1564.83,-209.046"/>
</g>
<!-- Node18&#45;&gt;Node21 -->
<g id="edge31" class="edge"><title>Node18&#45;&gt;Node21</title>
<path fill="none" stroke="midnightblue" d="M1560.82,-235.444C1584.83,-226.438 1622.83,-212.189 1649.87,-202.049"/>
<polygon fill="midnightblue" stroke="midnightblue" points="1651.16,-205.305 1659.29,-198.516 1648.7,-198.751 1651.16,-205.305"/>
</g>
<!-- Node18&#45;&gt;Node22 -->
<g id="edge33" class="edge"><title>Node18&#45;&gt;Node22</title>
<path fill="none" stroke="midnightblue" d="M1600.04,-240.331C1768.42,-230.372 2232.22,-202.94 2394.24,-193.357"/>
<polygon fill="midnightblue" stroke="midnightblue" points="2394.7,-196.836 2404.47,-192.752 2394.28,-189.849 2394.7,-196.836"/>
</g>
<!-- Node23&#45;&gt;Node3 -->
<g id="edge37" class="edge"><title>Node23&#45;&gt;Node3</title>
<path fill="none" stroke="midnightblue" d="M2015.76,-235.498C1977.31,-227.615 1920.35,-214.746 1872,-199 1850.03,-191.843 1846.2,-185.427 1824,-179 1758.97,-160.172 1682.5,-148.204 1628.65,-141.383"/>
<polygon fill="midnightblue" stroke="midnightblue" points="1628.88,-137.885 1618.53,-140.128 1628.02,-144.832 1628.88,-137.885"/>
</g>
<!-- Node23&#45;&gt;Node5 -->
<g id="edge36" class="edge"><title>Node23&#45;&gt;Node5</title>
<path fill="none" stroke="midnightblue" d="M2100,-235.424C2148.25,-223.07 2228.75,-195.714 2276,-143 2287.53,-130.139 2293.56,-111.505 2296.69,-96.6239"/>
<polygon fill="midnightblue" stroke="midnightblue" points="2300.17,-97.0496 2298.5,-86.5877 2293.28,-95.8097 2300.17,-97.0496"/>
</g>
<!-- Node23&#45;&gt;Node11 -->
<g id="edge45" class="edge"><title>Node23&#45;&gt;Node11</title>
<path fill="none" stroke="midnightblue" d="M2065.16,-235.471C2070.54,-226.492 2079.12,-211.898 2086,-199 2106.34,-160.854 2128.15,-115.08 2139.7,-90.396"/>
<polygon fill="midnightblue" stroke="midnightblue" points="2142.94,-91.7343 2143.99,-81.1918 2136.59,-88.7773 2142.94,-91.7343"/>
</g>
<!-- Node23&#45;&gt;Node12 -->
<g id="edge43" class="edge"><title>Node23&#45;&gt;Node12</title>
<path fill="none" stroke="midnightblue" d="M2060.38,-235.286C2060.64,-222.523 2060.04,-198.179 2053,-179 2042.64,-150.763 2039.81,-140.011 2015,-123 1959.12,-84.678 1878.19,-75.133 1832.28,-72.9414"/>
<polygon fill="midnightblue" stroke="midnightblue" points="1832.35,-69.4414 1822.22,-72.553 1832.08,-76.4362 1832.35,-69.4414"/>
</g>
<!-- Node23&#45;&gt;Node21 -->
<g id="edge44" class="edge"><title>Node23&#45;&gt;Node21</title>
<path fill="none" stroke="midnightblue" d="M2000.1,-235.444C1919.65,-223.95 1779.4,-203.914 1715.47,-194.782"/>
<polygon fill="midnightblue" stroke="midnightblue" points="1715.92,-191.311 1705.53,-193.361 1714.93,-198.24 1715.92,-191.311"/>
</g>
<!-- Node24 -->
<g id="node24" class="node"><title>Node24</title>
<g id="a_node24"><a xlink:href="serializer_8h.html" target="_top" xlink:title="Serializer extension to support TVM data types Include this file to enable serialization of DLDataTyp...">
<polygon fill="white" stroke="black" points="1914,-179.5 1914,-198.5 2044,-198.5 2044,-179.5 1914,-179.5"/>
<text text-anchor="middle" x="1979" y="-186.5" font-family="Helvetica,sans-Serif" font-size="10.00">tvm/runtime/serializer.h</text>
</a>
</g>
</g>
<!-- Node23&#45;&gt;Node24 -->
<g id="edge38" class="edge"><title>Node23&#45;&gt;Node24</title>
<path fill="none" stroke="midnightblue" d="M2041.87,-235.324C2027.9,-227.185 2009.04,-214.839 1995.5,-205.087"/>
<polygon fill="midnightblue" stroke="midnightblue" points="1997.21,-201.998 1987.1,-198.834 1993.03,-207.613 1997.21,-201.998"/>
</g>
<!-- Node24&#45;&gt;Node5 -->
<g id="edge41" class="edge"><title>Node24&#45;&gt;Node5</title>
<path fill="none" stroke="midnightblue" d="M2002.86,-179.413C2055.32,-160.539 2181.53,-115.126 2251.41,-89.9837"/>
<polygon fill="midnightblue" stroke="midnightblue" points="2252.66,-93.2545 2260.88,-86.5755 2250.29,-86.6679 2252.66,-93.2545"/>
</g>
<!-- Node24&#45;&gt;Node19 -->
<g id="edge39" class="edge"><title>Node24&#45;&gt;Node19</title>
<path fill="none" stroke="midnightblue" d="M1945.09,-179.444C1907.06,-169.848 1845.44,-154.299 1805.07,-144.111"/>
<polygon fill="midnightblue" stroke="midnightblue" points="1805.84,-140.696 1795.29,-141.643 1804.13,-147.484 1805.84,-140.696"/>
</g>
<!-- Node24&#45;&gt;Node23 -->
<g id="edge42" class="edge"><title>Node24&#45;&gt;Node23</title>
<path fill="none" stroke="midnightblue" d="M1997.09,-198.655C2011.14,-206.835 2030.14,-219.277 2043.7,-229.061"/>
<polygon fill="midnightblue" stroke="midnightblue" points="2041.99,-232.151 2052.1,-235.324 2046.18,-226.54 2041.99,-232.151"/>
</g>
<!-- Node25 -->
<g id="node25" class="node"><title>Node25</title>
<polygon fill="white" stroke="#bfbfbf" points="1912,-123.5 1912,-142.5 2006,-142.5 2006,-123.5 1912,-123.5"/>
<text text-anchor="middle" x="1959" y="-130.5" font-family="Helvetica,sans-Serif" font-size="10.00">dmlc/serializer.h</text>
</g>
<!-- Node24&#45;&gt;Node25 -->
<g id="edge40" class="edge"><title>Node24&#45;&gt;Node25</title>
<path fill="none" stroke="midnightblue" d="M1975.7,-179.083C1973.02,-171.849 1969.15,-161.409 1965.81,-152.397"/>
<polygon fill="midnightblue" stroke="midnightblue" points="1969,-150.913 1962.24,-142.751 1962.43,-153.344 1969,-150.913"/>
</g>
<!-- Node26&#45;&gt;Node4 -->
<g id="edge48" class="edge"><title>Node26&#45;&gt;Node4</title>
<path fill="none" stroke="midnightblue" d="M577.489,-235.495C662.007,-207.295 933.186,-116.814 1030.68,-84.2864"/>
<polygon fill="midnightblue" stroke="midnightblue" points="1031.98,-87.5412 1040.36,-81.056 1029.76,-80.9011 1031.98,-87.5412"/>
</g>
<!-- Node26&#45;&gt;Node5 -->
<g id="edge47" class="edge"><title>Node26&#45;&gt;Node5</title>
<path fill="none" stroke="midnightblue" d="M620.037,-241.622C673.992,-239.756 751.318,-237.128 819,-235 956.102,-230.689 1920.14,-233.101 2053,-199 2097.09,-187.682 2210.69,-124.139 2267.14,-91.6437"/>
<polygon fill="midnightblue" stroke="midnightblue" points="2269.11,-94.5507 2276.02,-86.5196 2265.61,-88.4884 2269.11,-94.5507"/>
</g>
<!-- Node26&#45;&gt;Node9 -->
<g id="edge49" class="edge"><title>Node26&#45;&gt;Node9</title>
<path fill="none" stroke="midnightblue" d="M564.993,-235.495C607.072,-207.951 739.923,-120.989 792.386,-86.6483"/>
<polygon fill="midnightblue" stroke="midnightblue" points="794.479,-89.4613 800.929,-81.056 790.645,-83.6045 794.479,-89.4613"/>
</g>
<!-- Node26&#45;&gt;Node10 -->
<g id="edge50" class="edge"><title>Node26&#45;&gt;Node10</title>
<path fill="none" stroke="midnightblue" d="M542.222,-235.435C518.902,-215.135 457.936,-162.817 404,-123 386.48,-110.066 365.861,-96.4608 350.523,-86.6349"/>
<polygon fill="midnightblue" stroke="midnightblue" points="352.047,-83.4566 341.731,-81.045 348.292,-89.3638 352.047,-83.4566"/>
</g>
<!-- Node32&#45;&gt;Node3 -->
<g id="edge70" class="edge"><title>Node32&#45;&gt;Node3</title>
<path fill="none" stroke="midnightblue" d="M1107.19,-537.24C1118.23,-517.771 1143,-469.138 1143,-425 1143,-425 1143,-425 1143,-367 1143,-335.873 1285.5,-193.266 1312,-179 1342.29,-162.691 1428.94,-149.439 1491.28,-141.642"/>
<polygon fill="midnightblue" stroke="midnightblue" points="1491.96,-145.086 1501.45,-140.391 1491.1,-138.138 1491.96,-145.086"/>
</g>
<!-- Node32&#45;&gt;Node5 -->
<g id="edge69" class="edge"><title>Node32&#45;&gt;Node5</title>
<path fill="none" stroke="midnightblue" d="M1161.56,-544.636C1261,-541.55 1466.81,-531.703 1638,-501 1909.49,-452.308 1961.2,-380.795 2222,-291 2279.09,-271.343 2295.49,-273.393 2353,-255 2387.49,-243.971 2485.26,-228.677 2506,-199 2545.86,-141.962 2447.67,-105.743 2373.54,-87.3024"/>
<polygon fill="midnightblue" stroke="midnightblue" points="2374.26,-83.875 2363.71,-84.9258 2372.61,-90.6788 2374.26,-83.875"/>
</g>
<!-- Node32&#45;&gt;Node9 -->
<g id="edge103" class="edge"><title>Node32&#45;&gt;Node9</title>
<path fill="none" stroke="midnightblue" d="M1042.39,-543.068C947.247,-537.748 765.697,-524.79 706,-501 566.675,-445.477 524.354,-396.628 475,-255 472.075,-246.606 470.274,-242.529 475,-235 505.435,-186.511 655.336,-147.662 707,-123 734.007,-110.108 764.929,-95.5344 786.563,-85.3683"/>
<polygon fill="midnightblue" stroke="midnightblue" points="788.238,-88.4483 795.802,-81.0294 785.262,-82.1123 788.238,-88.4483"/>
</g>
<!-- Node32&#45;&gt;Node10 -->
<g id="edge102" class="edge"><title>Node32&#45;&gt;Node10</title>
<path fill="none" stroke="midnightblue" d="M1042.23,-544.361C933.44,-540.701 707.589,-529.796 635,-501 472.476,-436.528 399.953,-414.354 328,-255 303.048,-199.739 315.401,-125.116 323.229,-90.9575"/>
<polygon fill="midnightblue" stroke="midnightblue" points="326.685,-91.5552 325.649,-81.0111 319.884,-89.8998 326.685,-91.5552"/>
</g>
<!-- Node32&#45;&gt;Node15 -->
<g id="edge71" class="edge"><title>Node32&#45;&gt;Node15</title>
<path fill="none" stroke="midnightblue" d="M1095.15,-537.34C1083.71,-522.991 1059.81,-493.536 1038,-470 940.972,-365.272 725.81,-343.158 819,-235 847.716,-201.671 966.435,-192.661 1045.92,-190.435"/>
<polygon fill="midnightblue" stroke="midnightblue" points="1046.46,-193.922 1056.37,-190.174 1046.29,-186.924 1046.46,-193.922"/>
</g>
<!-- Node32&#45;&gt;Node17 -->
<g id="edge72" class="edge"><title>Node32&#45;&gt;Node17</title>
<path fill="none" stroke="midnightblue" d="M1116.09,-537.229C1171.51,-502.716 1375.37,-375.771 1453.88,-326.876"/>
<polygon fill="midnightblue" stroke="midnightblue" points="1455.75,-329.838 1462.39,-321.581 1452.05,-323.896 1455.75,-329.838"/>
</g>
<!-- Node32&#45;&gt;Node21 -->
<g id="edge101" class="edge"><title>Node32&#45;&gt;Node21</title>
<path fill="none" stroke="midnightblue" d="M1146.16,-537.476C1232.63,-519.252 1427.87,-470.435 1566,-378 1625.5,-338.186 1640.42,-320.193 1670,-255 1676.6,-240.451 1679.57,-222.503 1680.91,-209.156"/>
<polygon fill="midnightblue" stroke="midnightblue" points="1684.43,-209.052 1681.71,-198.811 1677.45,-208.51 1684.43,-209.052"/>
</g>
<!-- Node32&#45;&gt;Node23 -->
<g id="edge73" class="edge"><title>Node32&#45;&gt;Node23</title>
<path fill="none" stroke="midnightblue" d="M1161.69,-541.092C1315.67,-527.789 1722.84,-488.353 1846,-434 1936.89,-393.889 2016.92,-300.957 2047.16,-262.807"/>
<polygon fill="midnightblue" stroke="midnightblue" points="2050.06,-264.78 2053.45,-254.744 2044.54,-260.474 2050.06,-264.78"/>
</g>
<!-- Node32&#45;&gt;Node26 -->
<g id="edge74" class="edge"><title>Node32&#45;&gt;Node26</title>
<path fill="none" stroke="midnightblue" d="M1091.2,-537.291C1069.47,-519.836 1020.99,-481.277 1003,-470 878.709,-392.1 835.354,-394.786 708,-322 685.951,-309.399 682.477,-302.82 660,-291 635.835,-278.293 607.272,-266.524 585.591,-258.211"/>
<polygon fill="midnightblue" stroke="midnightblue" points="586.746,-254.906 576.155,-254.644 584.271,-261.454 586.746,-254.906"/>
</g>
<!-- Node32&#45;&gt;Node33 -->
<g id="edge75" class="edge"><title>Node32&#45;&gt;Node33</title>
<path fill="none" stroke="midnightblue" d="M1078.65,-537.475C1054.82,-528.776 1017.15,-515.026 986.936,-503.998"/>
<polygon fill="midnightblue" stroke="midnightblue" points="988.01,-500.664 977.416,-500.523 985.609,-507.24 988.01,-500.664"/>
</g>
<!-- Node32&#45;&gt;Node36 -->
<g id="edge95" class="edge"><title>Node32&#45;&gt;Node36</title>
<path fill="none" stroke="midnightblue" d="M1054.58,-537.475C997.393,-527.196 900.97,-509.863 836.661,-498.303"/>
<polygon fill="midnightblue" stroke="midnightblue" points="837.088,-494.824 826.626,-496.499 835.849,-501.713 837.088,-494.824"/>
</g>
<!-- Node33&#45;&gt;Node10 -->
<g id="edge94" class="edge"><title>Node33&#45;&gt;Node10</title>
<path fill="none" stroke="midnightblue" d="M895.712,-470.412C809.107,-440.74 611.156,-365.332 475,-255 413.17,-204.897 360.003,-124.809 338.359,-89.8118"/>
<polygon fill="midnightblue" stroke="midnightblue" points="341.303,-87.9161 333.11,-81.1988 335.326,-91.5593 341.303,-87.9161"/>
</g>
<!-- Node33&#45;&gt;Node26 -->
<g id="edge76" class="edge"><title>Node33&#45;&gt;Node26</title>
<path fill="none" stroke="midnightblue" d="M918.044,-470.432C882.014,-446.431 805.758,-396.439 739,-358 709.024,-340.74 699.894,-339.402 670,-322 648.052,-309.224 643.348,-304.755 622,-291 606.015,-280.7 587.962,-269.095 574.194,-260.251"/>
<polygon fill="midnightblue" stroke="midnightblue" points="575.73,-257.078 565.425,-254.618 571.947,-262.968 575.73,-257.078"/>
</g>
<!-- Node34 -->
<g id="node34" class="node"><title>Node34</title>
<g id="a_node34"><a xlink:href="functor_8h.html" target="_top" xlink:title="Defines the Functor data structures. ">
<polygon fill="white" stroke="black" points="986.5,-235.5 986.5,-254.5 1093.5,-254.5 1093.5,-235.5 986.5,-235.5"/>
<text text-anchor="middle" x="1040" y="-242.5" font-family="Helvetica,sans-Serif" font-size="10.00">tvm/node/functor.h</text>
</a>
</g>
</g>
<!-- Node33&#45;&gt;Node34 -->
<g id="edge77" class="edge"><title>Node33&#45;&gt;Node34</title>
<path fill="none" stroke="midnightblue" d="M945.016,-470.295C962.43,-429.173 1012.88,-310.05 1032.27,-264.244"/>
<polygon fill="midnightblue" stroke="midnightblue" points="1035.54,-265.519 1036.21,-254.946 1029.09,-262.789 1035.54,-265.519"/>
</g>
<!-- Node33&#45;&gt;Node35 -->
<g id="edge83" class="edge"><title>Node33&#45;&gt;Node35</title>
<path fill="none" stroke="midnightblue" d="M994.699,-480.55C1142.61,-470.061 1545.03,-441.522 1708.04,-429.962"/>
<polygon fill="midnightblue" stroke="midnightblue" points="1708.69,-433.424 1718.42,-429.225 1708.2,-426.441 1708.69,-433.424"/>
</g>
<!-- Node34&#45;&gt;Node3 -->
<g id="edge79" class="edge"><title>Node34&#45;&gt;Node3</title>
<path fill="none" stroke="midnightblue" d="M1083.76,-235.448C1121.8,-227.533 1178.16,-214.646 1226,-199 1247.97,-191.816 1251.76,-185.285 1274,-179 1346.66,-158.464 1432.54,-146.534 1491.09,-140.181"/>
<polygon fill="midnightblue" stroke="midnightblue" points="1491.76,-143.63 1501.33,-139.096 1491.02,-136.669 1491.76,-143.63"/>
</g>
<!-- Node34&#45;&gt;Node4 -->
<g id="edge78" class="edge"><title>Node34&#45;&gt;Node4</title>
<path fill="none" stroke="midnightblue" d="M1033.11,-235.319C1026.73,-226.684 1017.69,-212.77 1014,-199 1011.7,-190.414 1012,-187.661 1014,-179 1021.8,-145.252 1041.83,-109.836 1054.63,-89.5393"/>
<polygon fill="midnightblue" stroke="midnightblue" points="1057.59,-91.3971 1060.09,-81.1001 1051.72,-87.5941 1057.59,-91.3971"/>
</g>
<!-- Node34&#45;&gt;Node9 -->
<g id="edge81" class="edge"><title>Node34&#45;&gt;Node9</title>
<path fill="none" stroke="midnightblue" d="M1028.79,-235.495C992.721,-208.122 879.319,-122.067 833.496,-87.2943"/>
<polygon fill="midnightblue" stroke="midnightblue" points="835.357,-84.313 825.275,-81.056 831.125,-89.8892 835.357,-84.313"/>
</g>
<!-- Node34&#45;&gt;Node11 -->
<g id="edge82" class="edge"><title>Node34&#45;&gt;Node11</title>
<path fill="none" stroke="midnightblue" d="M1078.07,-235.472C1109.37,-227.817 1154.51,-215.282 1192,-199 1208.08,-192.015 1209.65,-185.333 1226,-179 1338.65,-135.356 1372.41,-140.117 1492,-123 1730.99,-88.7942 2022.5,-76.6474 2116.91,-73.451"/>
<polygon fill="midnightblue" stroke="midnightblue" points="2117.05,-76.9483 2126.93,-73.1206 2116.82,-69.9521 2117.05,-76.9483"/>
</g>
<!-- Node34&#45;&gt;Node21 -->
<g id="edge80" class="edge"><title>Node34&#45;&gt;Node21</title>
<path fill="none" stroke="midnightblue" d="M1093.51,-240.592C1194.57,-233.975 1420.39,-218.325 1610,-199 1622.5,-197.726 1636.2,-196.077 1648.26,-194.541"/>
<polygon fill="midnightblue" stroke="midnightblue" points="1648.89,-197.987 1658.36,-193.231 1647.99,-191.046 1648.89,-197.987"/>
</g>
<!-- Node35&#45;&gt;Node3 -->
<g id="edge84" class="edge"><title>Node35&#45;&gt;Node3</title>
<path fill="none" stroke="midnightblue" d="M1791.43,-414.357C1803.33,-406.158 1820.55,-392.9 1832,-378 1871.11,-327.121 1891.14,-285.858 1852,-235 1824.72,-199.546 1799.27,-216.264 1758,-199 1738.18,-190.71 1734.14,-186.476 1714,-179 1677.6,-165.486 1635.17,-153.345 1604.08,-145.09"/>
<polygon fill="midnightblue" stroke="midnightblue" points="1604.96,-141.704 1594.4,-142.549 1603.19,-148.475 1604.96,-141.704"/>
</g>
<!-- Node35&#45;&gt;Node9 -->
<g id="edge88" class="edge"><title>Node35&#45;&gt;Node9</title>
<path fill="none" stroke="midnightblue" d="M1718.3,-422.203C1526.81,-418.253 933.805,-394.751 819,-255 779.98,-207.502 797.211,-127.231 807.859,-91.1028"/>
<polygon fill="midnightblue" stroke="midnightblue" points="811.251,-91.9812 810.883,-81.3927 804.568,-89.8999 811.251,-91.9812"/>
</g>
<!-- Node35&#45;&gt;Node10 -->
<g id="edge93" class="edge"><title>Node35&#45;&gt;Node10</title>
<path fill="none" stroke="midnightblue" d="M1718.43,-423.758C1594.12,-424.364 1298.41,-420.706 1055,-378 967.869,-362.713 946.778,-353.198 864,-322 759.871,-282.755 447.62,-131.005 354.496,-85.4816"/>
<polygon fill="midnightblue" stroke="midnightblue" points="355.973,-82.3075 345.452,-81.0574 352.897,-88.5956 355.973,-82.3075"/>
</g>
<!-- Node35&#45;&gt;Node11 -->
<g id="edge92" class="edge"><title>Node35&#45;&gt;Node11</title>
<path fill="none" stroke="midnightblue" d="M1794.91,-414.409C1838.87,-392.254 1960.69,-332.051 2066,-291 2114.32,-272.164 2138.96,-290.251 2177,-255 2220.27,-214.901 2215.72,-176.567 2191,-123 2184.89,-109.767 2174.31,-97.2756 2165.18,-88.0266"/>
<polygon fill="midnightblue" stroke="midnightblue" points="2167.6,-85.4995 2157.97,-81.075 2162.74,-90.5371 2167.6,-85.4995"/>
</g>
<!-- Node35&#45;&gt;Node14 -->
<g id="edge87" class="edge"><title>Node35&#45;&gt;Node14</title>
<path fill="none" stroke="midnightblue" d="M1732.52,-414.444C1682.04,-404.944 1600.54,-389.611 1546.38,-379.42"/>
<polygon fill="midnightblue" stroke="midnightblue" points="1546.74,-375.926 1536.26,-377.516 1545.44,-382.805 1546.74,-375.926"/>
</g>
<!-- Node35&#45;&gt;Node15 -->
<g id="edge85" class="edge"><title>Node35&#45;&gt;Node15</title>
<path fill="none" stroke="midnightblue" d="M1718.4,-421.816C1645.58,-418.963 1519.3,-409.441 1416,-378 1363.14,-361.911 1352.29,-350.574 1305,-322 1241.72,-283.767 1171.96,-230.783 1139.11,-205.126"/>
<polygon fill="midnightblue" stroke="midnightblue" points="1140.89,-202.071 1130.86,-198.649 1136.56,-207.577 1140.89,-202.071"/>
</g>
<!-- Node35&#45;&gt;Node17 -->
<g id="edge86" class="edge"><title>Node35&#45;&gt;Node17</title>
<path fill="none" stroke="midnightblue" d="M1755.98,-414.319C1708.13,-395.456 1593.85,-350.41 1530.04,-325.256"/>
<polygon fill="midnightblue" stroke="midnightblue" points="1531.22,-321.957 1520.63,-321.545 1528.65,-328.469 1531.22,-321.957"/>
</g>
<!-- Node35&#45;&gt;Node21 -->
<g id="edge89" class="edge"><title>Node35&#45;&gt;Node21</title>
<path fill="none" stroke="midnightblue" d="M1785.22,-414.463C1808.53,-385.857 1877.64,-291.985 1832,-235 1824.58,-225.737 1757.5,-208.176 1715.6,-197.946"/>
<polygon fill="midnightblue" stroke="midnightblue" points="1716.34,-194.523 1705.8,-195.573 1714.69,-201.327 1716.34,-194.523"/>
</g>
<!-- Node35&#45;&gt;Node22 -->
<g id="edge91" class="edge"><title>Node35&#45;&gt;Node22</title>
<path fill="none" stroke="midnightblue" d="M1816.19,-414.485C1850.56,-406.417 1902.24,-393.282 1946,-378 2037.51,-346.038 2053.67,-320.524 2146,-291 2219.56,-267.477 2242.9,-279.931 2316,-255 2337.51,-247.663 2392.56,-220.055 2425.34,-203.269"/>
<polygon fill="midnightblue" stroke="midnightblue" points="2427.04,-206.328 2434.34,-198.645 2423.84,-200.101 2427.04,-206.328"/>
</g>
<!-- Node35&#45;&gt;Node31 -->
<g id="edge90" class="edge"><title>Node35&#45;&gt;Node31</title>
<path fill="none" stroke="midnightblue" d="M1778.83,-414.319C1780.59,-395.757 1784.78,-351.839 1787.19,-326.473"/>
<polygon fill="midnightblue" stroke="midnightblue" points="1790.7,-326.569 1788.16,-316.282 1783.73,-325.905 1790.7,-326.569"/>
</g>
<!-- Node36&#45;&gt;Node10 -->
<g id="edge99" class="edge"><title>Node36&#45;&gt;Node10</title>
<path fill="none" stroke="midnightblue" d="M736.026,-470.435C665.156,-440.421 502.949,-363.848 404,-255 359.419,-205.959 338.851,-127.064 331.436,-91.256"/>
<polygon fill="midnightblue" stroke="midnightblue" points="334.83,-90.3788 329.476,-81.2364 327.961,-91.7222 334.83,-90.3788"/>
</g>
<!-- Node36&#45;&gt;Node26 -->
<g id="edge96" class="edge"><title>Node36&#45;&gt;Node26</title>
<path fill="none" stroke="midnightblue" d="M757.956,-470.295C719.72,-428.654 608.038,-307.028 567.191,-262.543"/>
<polygon fill="midnightblue" stroke="midnightblue" points="569.556,-259.944 560.214,-254.946 564.4,-264.679 569.556,-259.944"/>
</g>
<!-- Node36&#45;&gt;Node27 -->
<g id="edge100" class="edge"><title>Node36&#45;&gt;Node27</title>
<path fill="none" stroke="midnightblue" d="M776.301,-470.295C791.614,-429.26 835.912,-310.551 853.084,-264.534"/>
<polygon fill="midnightblue" stroke="midnightblue" points="856.445,-265.538 856.662,-254.946 849.886,-263.091 856.445,-265.538"/>
</g>
<!-- Node36&#45;&gt;Node34 -->
<g id="edge97" class="edge"><title>Node36&#45;&gt;Node34</title>
<path fill="none" stroke="midnightblue" d="M781.673,-470.388C811.988,-430.576 898.811,-318.49 936,-291 955.578,-276.528 980.53,-265.533 1001.09,-258.034"/>
<polygon fill="midnightblue" stroke="midnightblue" points="1002.5,-261.246 1010.78,-254.634 1000.19,-254.64 1002.5,-261.246"/>
</g>
<!-- Node36&#45;&gt;Node35 -->
<g id="edge98" class="edge"><title>Node36&#45;&gt;Node35</title>
<path fill="none" stroke="midnightblue" d="M826.753,-475.717C842.037,-473.564 858.63,-471.461 874,-470 1184.24,-440.502 1556.32,-429.701 1708.25,-426.332"/>
<polygon fill="midnightblue" stroke="midnightblue" points="1708.45,-429.828 1718.37,-426.111 1708.29,-422.83 1708.45,-429.828"/>
</g>
<!-- Node37&#45;&gt;Node34 -->
<g id="edge105" class="edge"><title>Node37&#45;&gt;Node34</title>
<path fill="none" stroke="midnightblue" d="M1666.39,-537.345C1575.36,-495.003 1176.89,-309.668 1067.73,-258.899"/>
<polygon fill="midnightblue" stroke="midnightblue" points="1068.92,-255.59 1058.37,-254.546 1065.97,-261.937 1068.92,-255.59"/>
</g>
<!-- Node38 -->
<g id="node38" class="node"><title>Node38</title>
<polygon fill="white" stroke="#bfbfbf" points="1806.5,-476 1806.5,-495 1865.5,-495 1865.5,-476 1806.5,-476"/>
<text text-anchor="middle" x="1836" y="-483" font-family="Helvetica,sans-Serif" font-size="10.00">iostream</text>
</g>
<!-- Node37&#45;&gt;Node38 -->
<g id="edge106" class="edge"><title>Node37&#45;&gt;Node38</title>
<path fill="none" stroke="midnightblue" d="M1706.63,-537.475C1732.42,-527.313 1775.71,-510.256 1805.04,-498.7"/>
<polygon fill="midnightblue" stroke="midnightblue" points="1806.38,-501.932 1814.41,-495.009 1803.82,-495.419 1806.38,-501.932"/>
</g>
<!-- Node39&#45;&gt;Node3 -->
<g id="edge116" class="edge"><title>Node39&#45;&gt;Node3</title>
<path fill="none" stroke="midnightblue" d="M1680.22,-649.365C1735.18,-631.829 1850.15,-586.285 1897,-501 1907.89,-481.165 1928.74,-624.849 1884,-291 1880.63,-265.86 1888.73,-254.901 1873,-235 1870.67,-232.055 1753.55,-180.216 1750,-179 1706.28,-164.03 1655.25,-152.243 1617.09,-144.494"/>
<polygon fill="midnightblue" stroke="midnightblue" points="1617.67,-141.042 1607.18,-142.514 1616.3,-147.906 1617.67,-141.042"/>
</g>
<!-- Node39&#45;&gt;Node10 -->
<g id="edge118" class="edge"><title>Node39&#45;&gt;Node10</title>
<path fill="none" stroke="midnightblue" d="M1609.56,-657.203C1472.11,-653.807 1010.83,-636.791 640,-557 428.098,-511.405 190,-585.752 190,-369 190,-369 190,-369 190,-188 190,-132.872 255.561,-98.8675 296.306,-83.0573"/>
<polygon fill="midnightblue" stroke="midnightblue" points="297.675,-86.2825 305.828,-79.516 295.235,-79.7215 297.675,-86.2825"/>
</g>
<!-- Node39&#45;&gt;Node13 -->
<g id="edge117" class="edge"><title>Node39&#45;&gt;Node13</title>
<path fill="none" stroke="midnightblue" d="M1630.51,-649.444C1610.36,-640.596 1578.68,-626.687 1555.67,-616.586"/>
<polygon fill="midnightblue" stroke="midnightblue" points="1556.96,-613.332 1546.4,-612.516 1554.15,-619.741 1556.96,-613.332"/>
</g>
<!-- Node40&#45;&gt;Node3 -->
<g id="edge120" class="edge"><title>Node40&#45;&gt;Node3</title>
<path fill="none" stroke="midnightblue" d="M1732.07,-705.449C1771.85,-680.274 1884.39,-601.817 1918,-501 1955.56,-388.31 1961.18,-331.565 1892,-235 1872.09,-207.201 1854.15,-215.131 1824,-199 1807.52,-190.182 1804.59,-185.333 1787,-179 1735.52,-160.462 1674.56,-148.912 1628.78,-142.161"/>
<polygon fill="midnightblue" stroke="midnightblue" points="1629.07,-138.666 1618.67,-140.711 1628.07,-145.595 1629.07,-138.666"/>
</g>
<!-- Node40&#45;&gt;Node10 -->
<g id="edge125" class="edge"><title>Node40&#45;&gt;Node10</title>
<path fill="none" stroke="midnightblue" d="M1679.16,-712.136C1578.32,-707.115 1299.95,-692.111 1069,-669 649.359,-627.006 152,-846.737 152,-425 152,-425 152,-425 152,-188 152,-119.958 245.083,-89.7962 295.861,-78.4046"/>
<polygon fill="midnightblue" stroke="midnightblue" points="296.656,-81.814 305.709,-76.3112 295.2,-74.967 296.656,-81.814"/>
</g>
<!-- Node40&#45;&gt;Node13 -->
<g id="edge122" class="edge"><title>Node40&#45;&gt;Node13</title>
<path fill="none" stroke="midnightblue" d="M1718.03,-705.497C1717.61,-691.648 1714.68,-664.241 1699,-649 1669.26,-620.094 1623.35,-609.135 1586.45,-605.246"/>
<polygon fill="midnightblue" stroke="midnightblue" points="1586.57,-601.743 1576.3,-604.328 1585.94,-608.715 1586.57,-601.743"/>
</g>
<!-- Node40&#45;&gt;Node26 -->
<g id="edge121" class="edge"><title>Node40&#45;&gt;Node26</title>
<path fill="none" stroke="midnightblue" d="M1679.33,-712.136C1503.82,-702.856 784.236,-655.737 635,-501 569.154,-432.726 555.545,-311.616 552.732,-265.01"/>
<polygon fill="midnightblue" stroke="midnightblue" points="556.219,-264.656 552.225,-254.843 549.228,-265.005 556.219,-264.656"/>
</g>
<!-- Node40&#45;&gt;Node35 -->
<g id="edge123" class="edge"><title>Node40&#45;&gt;Node35</title>
<path fill="none" stroke="midnightblue" d="M1726.6,-705.465C1743.19,-688.039 1778,-646.419 1778,-604 1778,-604 1778,-604 1778,-546 1778,-509.714 1778,-467.307 1778,-443.559"/>
<polygon fill="midnightblue" stroke="midnightblue" points="1781.5,-443.509 1778,-433.509 1774.5,-443.509 1781.5,-443.509"/>
</g>
<!-- Node40&#45;&gt;Node39 -->
<g id="edge124" class="edge"><title>Node40&#45;&gt;Node39</title>
<path fill="none" stroke="midnightblue" d="M1707.07,-705.324C1696.83,-697.185 1681.28,-684.839 1669,-675.087"/>
<polygon fill="midnightblue" stroke="midnightblue" points="1671.13,-672.312 1661.12,-668.834 1666.78,-677.794 1671.13,-672.312"/>
</g>
<!-- Node42&#45;&gt;Node2 -->
<g id="edge136" class="edge"><title>Node42&#45;&gt;Node2</title>
<path fill="none" stroke="midnightblue" d="M2002.35,-929.355C1982.65,-916.878 1945.06,-893.112 1913,-873 1863.38,-841.877 1805.07,-805.594 1773.71,-786.106"/>
<polygon fill="midnightblue" stroke="midnightblue" points="1775.23,-782.926 1764.88,-780.621 1771.53,-788.872 1775.23,-782.926"/>
</g>
<!-- Node42&#45;&gt;Node5 -->
<g id="edge134" class="edge"><title>Node42&#45;&gt;Node5</title>
<path fill="none" stroke="midnightblue" d="M2056.06,-938.716C2143.04,-939.353 2355.09,-935.922 2526,-893 2597.26,-875.104 2678,-901.473 2678,-828 2678,-828 2678,-828 2678,-188 2678,-153.844 2665.6,-141.673 2637,-123 2594.81,-95.4565 2459.58,-82.2094 2373.79,-76.4277"/>
<polygon fill="midnightblue" stroke="midnightblue" points="2373.79,-72.9202 2363.59,-75.7591 2373.34,-79.9053 2373.79,-72.9202"/>
</g>
<!-- Node42&#45;&gt;Node10 -->
<g id="edge147" class="edge"><title>Node42&#45;&gt;Node10</title>
<path fill="none" stroke="midnightblue" d="M1975.92,-938.114C1703.58,-938.761 133.05,-940.423 45,-893 14.065,-876.339 0,-863.136 0,-828 0,-828 0,-828 0,-188 0,-149.868 22.9391,-142 56,-123 133.527,-78.4455 242.148,-71.9863 295.634,-71.7774"/>
<polygon fill="midnightblue" stroke="midnightblue" points="295.864,-75.2782 305.876,-71.8129 295.888,-68.2782 295.864,-75.2782"/>
</g>
<!-- Node42&#45;&gt;Node11 -->
<g id="edge152" class="edge"><title>Node42&#45;&gt;Node11</title>
<path fill="none" stroke="midnightblue" d="M2056.3,-938.476C2182.85,-938.902 2564,-931.587 2564,-828 2564,-828 2564,-828 2564,-484.5 2564,-404.041 2602,-387.959 2602,-307.5 2602,-307.5 2602,-307.5 2602,-188 2602,-95.3794 2493.6,-146.451 2404,-123 2382.41,-117.35 2242.41,-90.4827 2179.06,-78.4048"/>
<polygon fill="midnightblue" stroke="midnightblue" points="2179.7,-74.9646 2169.22,-76.5313 2178.39,-81.8409 2179.7,-74.9646"/>
</g>
<!-- Node42&#45;&gt;Node13 -->
<g id="edge131" class="edge"><title>Node42&#45;&gt;Node13</title>
<path fill="none" stroke="midnightblue" d="M2020.14,-929.107C2035.18,-895.357 2083.16,-773.64 2027,-705 1971.9,-637.652 1706.74,-614.185 1586.5,-606.916"/>
<polygon fill="midnightblue" stroke="midnightblue" points="1586.56,-603.413 1576.37,-606.321 1586.15,-610.401 1586.56,-603.413"/>
</g>
<!-- Node42&#45;&gt;Node22 -->
<g id="edge149" class="edge"><title>Node42&#45;&gt;Node22</title>
<path fill="none" stroke="midnightblue" d="M2056.24,-937.179C2170.39,-933.77 2488,-916.347 2488,-828 2488,-828 2488,-828 2488,-367 2488,-308.251 2517.18,-289.403 2495,-235 2490.2,-223.225 2480.67,-212.856 2471.71,-205.049"/>
<polygon fill="midnightblue" stroke="midnightblue" points="2473.75,-202.205 2463.78,-198.631 2469.35,-207.645 2473.75,-202.205"/>
</g>
<!-- Node42&#45;&gt;Node26 -->
<g id="edge135" class="edge"><title>Node42&#45;&gt;Node26</title>
<path fill="none" stroke="midnightblue" d="M1975.74,-938.018C1750.61,-937.958 645.724,-935.466 308,-893 185.536,-877.601 38,-951.428 38,-828 38,-828 38,-828 38,-658 38,-531.283 423.149,-315.228 526.653,-259.453"/>
<polygon fill="midnightblue" stroke="midnightblue" points="528.61,-262.376 535.768,-254.565 525.301,-256.207 528.61,-262.376"/>
</g>
<!-- Node42&#45;&gt;Node29 -->
<g id="edge151" class="edge"><title>Node42&#45;&gt;Node29</title>
<path fill="none" stroke="midnightblue" d="M2056.29,-931.508C2136.4,-917.458 2308,-881.157 2308,-828 2308,-828 2308,-828 2308,-367 2308,-303.974 2388.36,-269.197 2434.09,-254.508"/>
<polygon fill="midnightblue" stroke="midnightblue" points="2435.3,-257.8 2443.83,-251.516 2433.24,-251.109 2435.3,-257.8"/>
</g>
<!-- Node42&#45;&gt;Node34 -->
<g id="edge133" class="edge"><title>Node42&#45;&gt;Node34</title>
<path fill="none" stroke="midnightblue" d="M1975.77,-937.796C1704.4,-936.16 152,-922.669 152,-828 152,-828 152,-828 152,-714 152,-396.026 572.203,-680.013 835,-501 847.618,-492.405 983.673,-318.339 1026.9,-262.843"/>
<polygon fill="midnightblue" stroke="midnightblue" points="1029.84,-264.767 1033.22,-254.726 1024.31,-260.467 1029.84,-264.767"/>
</g>
<!-- Node42&#45;&gt;Node35 -->
<g id="edge132" class="edge"><title>Node42&#45;&gt;Node35</title>
<path fill="none" stroke="midnightblue" d="M2047.25,-929.415C2089.6,-915.655 2160,-884.313 2160,-828 2160,-828 2160,-828 2160,-602 2160,-465.91 1957.94,-434.15 1847.73,-426.948"/>
<polygon fill="midnightblue" stroke="midnightblue" points="1847.88,-423.451 1837.69,-426.343 1847.46,-430.438 1847.88,-423.451"/>
</g>
<!-- Node42&#45;&gt;Node38 -->
<g id="edge150" class="edge"><title>Node42&#45;&gt;Node38</title>
<path fill="none" stroke="midnightblue" d="M2034.46,-929.393C2064.83,-913.812 2122,-877.86 2122,-828 2122,-828 2122,-828 2122,-770 2122,-627.149 1939.81,-531.729 1866.25,-499.029"/>
<polygon fill="midnightblue" stroke="midnightblue" points="1867.6,-495.795 1857.03,-495.005 1864.8,-502.211 1867.6,-495.795"/>
</g>
<!-- Node42&#45;&gt;Node41 -->
<g id="edge148" class="edge"><title>Node42&#45;&gt;Node41</title>
<path fill="none" stroke="midnightblue" d="M2014.86,-929.297C2010.6,-896.633 1995.47,-780.866 1989.48,-734.957"/>
<polygon fill="midnightblue" stroke="midnightblue" points="1992.93,-734.346 1988.16,-724.884 1985.99,-735.253 1992.93,-734.346"/>
</g>
<!-- Node43 -->
<g id="node43" class="node"><title>Node43</title>
<g id="a_node43"><a xlink:href="var_8h.html" target="_top" xlink:title="Variables in the TIR. ">
<polygon fill="white" stroke="black" points="936,-817.5 936,-836.5 1010,-836.5 1010,-817.5 936,-817.5"/>
<text text-anchor="middle" x="973" y="-824.5" font-family="Helvetica,sans-Serif" font-size="10.00">tvm/tir/var.h</text>
</a>
</g>
</g>
<!-- Node42&#45;&gt;Node43 -->
<g id="edge137" class="edge"><title>Node42&#45;&gt;Node43</title>
<path fill="none" stroke="midnightblue" d="M1975.75,-933.755C1811.95,-916.48 1195.82,-851.5 1020.07,-832.964"/>
<polygon fill="midnightblue" stroke="midnightblue" points="1020.41,-829.481 1010.1,-831.912 1019.67,-836.442 1020.41,-829.481"/>
</g>
<!-- Node44 -->
<g id="node44" class="node"><title>Node44</title>
<g id="a_node44"><a xlink:href="buffer_8h.html" target="_top" xlink:title="Symbolic n&#45;dimensional array, to represent a memory buffer. ">
<polygon fill="white" stroke="black" points="1817.5,-873.5 1817.5,-892.5 1904.5,-892.5 1904.5,-873.5 1817.5,-873.5"/>
<text text-anchor="middle" x="1861" y="-880.5" font-family="Helvetica,sans-Serif" font-size="10.00">tvm/tir/buffer.h</text>
</a>
</g>
</g>
<!-- Node42&#45;&gt;Node44 -->
<g id="edge142" class="edge"><title>Node42&#45;&gt;Node44</title>
<path fill="none" stroke="midnightblue" d="M1991.44,-929.444C1965.48,-920.399 1924.33,-906.064 1895.2,-895.916"/>
<polygon fill="midnightblue" stroke="midnightblue" points="1896.04,-892.501 1885.45,-892.516 1893.74,-899.112 1896.04,-892.501"/>
</g>
<!-- Node43&#45;&gt;Node2 -->
<g id="edge140" class="edge"><title>Node43&#45;&gt;Node2</title>
<path fill="none" stroke="midnightblue" d="M1010,-823.432C1137.42,-814.588 1558.07,-785.391 1702.11,-775.393"/>
<polygon fill="midnightblue" stroke="midnightblue" points="1702.66,-778.863 1712.4,-774.679 1702.18,-771.88 1702.66,-778.863"/>
</g>
<!-- Node43&#45;&gt;Node10 -->
<g id="edge141" class="edge"><title>Node43&#45;&gt;Node10</title>
<path fill="none" stroke="midnightblue" d="M935.655,-825.732C814.523,-824.506 433.637,-817.751 317,-781 134.764,-723.579 76,-616.068 76,-425 76,-425 76,-425 76,-188 76,-92.5237 227.337,-75.6628 295.455,-72.9094"/>
<polygon fill="midnightblue" stroke="midnightblue" points="295.756,-76.4016 305.637,-72.5788 295.528,-69.4053 295.756,-76.4016"/>
</g>
<!-- Node43&#45;&gt;Node13 -->
<g id="edge138" class="edge"><title>Node43&#45;&gt;Node13</title>
<path fill="none" stroke="midnightblue" d="M994.378,-817.433C1079.64,-783.267 1395.64,-656.64 1496.11,-616.377"/>
<polygon fill="midnightblue" stroke="midnightblue" points="1497.71,-619.51 1505.69,-612.541 1495.1,-613.012 1497.71,-619.51"/>
</g>
<!-- Node43&#45;&gt;Node26 -->
<g id="edge139" class="edge"><title>Node43&#45;&gt;Node26</title>
<path fill="none" stroke="midnightblue" d="M935.8,-824.479C785.1,-817.83 228,-788.358 228,-716 228,-716 228,-716 228,-658 228,-557.647 468.516,-324.378 535.097,-261.727"/>
<polygon fill="midnightblue" stroke="midnightblue" points="537.748,-264.039 542.653,-254.648 532.962,-258.93 537.748,-264.039"/>
</g>
<!-- Node44&#45;&gt;Node2 -->
<g id="edge144" class="edge"><title>Node44&#45;&gt;Node2</title>
<path fill="none" stroke="midnightblue" d="M1852.37,-873.368C1833.89,-854.894 1790.29,-811.293 1766.74,-787.744"/>
<polygon fill="midnightblue" stroke="midnightblue" points="1769.14,-785.188 1759.59,-780.591 1764.19,-790.137 1769.14,-785.188"/>
</g>
<!-- Node44&#45;&gt;Node10 -->
<g id="edge146" class="edge"><title>Node44&#45;&gt;Node10</title>
<path fill="none" stroke="midnightblue" d="M1817.32,-881.659C1543.58,-879.243 76,-862.089 76,-772 76,-772 76,-772 76,-658 76,-579.929 38,-564.571 38,-486.5 38,-486.5 38,-486.5 38,-188 38,-151.004 58.5099,-142.418 90,-123 155.179,-82.8074 247.399,-74.2151 295.674,-72.6232"/>
<polygon fill="midnightblue" stroke="midnightblue" points="295.932,-76.118 305.842,-72.3715 295.759,-69.1201 295.932,-76.118"/>
</g>
<!-- Node44&#45;&gt;Node35 -->
<g id="edge143" class="edge"><title>Node44&#45;&gt;Node35</title>
<path fill="none" stroke="midnightblue" d="M1895.84,-873.438C1958.56,-855.709 2084,-808.667 2084,-716 2084,-716 2084,-716 2084,-602 2084,-539.982 1893.28,-465.568 1812.98,-436.985"/>
<polygon fill="midnightblue" stroke="midnightblue" points="1813.9,-433.599 1803.3,-433.574 1811.57,-440.2 1813.9,-433.599"/>
</g>
<!-- Node44&#45;&gt;Node43 -->
<g id="edge145" class="edge"><title>Node44&#45;&gt;Node43</title>
<path fill="none" stroke="midnightblue" d="M1817.36,-874.75C1812.52,-874.089 1807.66,-873.487 1803,-873 1506.34,-842.02 1147.67,-831.731 1020.5,-828.917"/>
<polygon fill="midnightblue" stroke="midnightblue" points="1020.4,-825.414 1010.33,-828.697 1020.25,-832.413 1020.4,-825.414"/>
</g>
</g>
</svg>
