<?xml version="1.0" encoding="UTF-8" standalone="no"?>
<!DOCTYPE svg PUBLIC "-//W3C//DTD SVG 1.1//EN"
 "http://www.w3.org/Graphics/SVG/1.1/DTD/svg11.dtd">
<!-- Generated by graphviz version 2.38.0 (20140413.2041)
 -->
<!-- Title: include/tvm/arith/int_solver.h Pages: 1 -->
<svg width="2712pt" height="1024pt"
 viewBox="0.00 0.00 2712.00 1024.00" xmlns="http://www.w3.org/2000/svg" xmlns:xlink="http://www.w3.org/1999/xlink">
<g id="graph0" class="graph" transform="scale(1 1) rotate(0) translate(4 1020)">
<title>include/tvm/arith/int_solver.h</title>
<polygon fill="white" stroke="none" points="-4,4 -4,-1020 2708,-1020 2708,4 -4,4"/>
<!-- Node1 -->
<g id="node1" class="node"><title>Node1</title>
<polygon fill="#bfbfbf" stroke="black" points="467,-985.5 467,-1015.5 579,-1015.5 579,-985.5 467,-985.5"/>
<text text-anchor="start" x="475" y="-1003.5" font-family="Helvetica,sans-Serif" font-size="10.00">include/tvm/arith/int</text>
<text text-anchor="middle" x="523" y="-992.5" font-family="Helvetica,sans-Serif" font-size="10.00">_solver.h</text>
</g>
<!-- Node2 -->
<g id="node2" class="node"><title>Node2</title>
<g id="a_node2"><a xlink:href="ir_2expr_8h.html" target="_top" xlink:title="Base expr nodes in TVM. ">
<polygon fill="white" stroke="black" points="1117.5,-761.5 1117.5,-780.5 1194.5,-780.5 1194.5,-761.5 1117.5,-761.5"/>
<text text-anchor="middle" x="1156" y="-768.5" font-family="Helvetica,sans-Serif" font-size="10.00">tvm/ir/expr.h</text>
</a>
</g>
</g>
<!-- Node1&#45;&gt;Node2 -->
<g id="edge1" class="edge"><title>Node1&#45;&gt;Node2</title>
<path fill="none" stroke="midnightblue" d="M579.234,-997.432C660.63,-993.389 815.491,-981.738 943,-949 1007.51,-932.437 1026.78,-930.237 1082,-893 1110.67,-873.669 1118.44,-866.782 1136,-837 1144.53,-822.54 1149.75,-804.091 1152.71,-790.544"/>
<polygon fill="midnightblue" stroke="midnightblue" points="1156.19,-791.002 1154.69,-780.514 1149.32,-789.649 1156.19,-791.002"/>
</g>
<!-- Node21 -->
<g id="node21" class="node"><title>Node21</title>
<polygon fill="white" stroke="#bfbfbf" points="914.5,-179.5 914.5,-198.5 961.5,-198.5 961.5,-179.5 914.5,-179.5"/>
<text text-anchor="middle" x="938" y="-186.5" font-family="Helvetica,sans-Serif" font-size="10.00">vector</text>
</g>
<!-- Node1&#45;&gt;Node21 -->
<g id="edge154" class="edge"><title>Node1&#45;&gt;Node21</title>
<path fill="none" stroke="midnightblue" d="M501.981,-985.489C453.074,-950.976 337.871,-857.621 366,-761 383.301,-701.573 616.845,-329.884 665,-291 738.136,-231.945 849.123,-205.386 904.342,-195.278"/>
<polygon fill="midnightblue" stroke="midnightblue" points="905.057,-198.706 914.298,-193.524 903.843,-191.812 905.057,-198.706"/>
</g>
<!-- Node22 -->
<g id="node22" class="node"><title>Node22</title>
<polygon fill="white" stroke="#bfbfbf" points="153.5,-179.5 153.5,-198.5 246.5,-198.5 246.5,-179.5 153.5,-179.5"/>
<text text-anchor="middle" x="200" y="-186.5" font-family="Helvetica,sans-Serif" font-size="10.00">unordered_map</text>
</g>
<!-- Node1&#45;&gt;Node22 -->
<g id="edge153" class="edge"><title>Node1&#45;&gt;Node22</title>
<path fill="none" stroke="midnightblue" d="M466.797,-999.08C372.432,-997.262 187.587,-988.59 138,-949 113.934,-929.786 114,-914.795 114,-884 114,-884 114,-884 114,-305.5 114,-262.115 153.52,-224.474 178.979,-204.727"/>
<polygon fill="midnightblue" stroke="midnightblue" points="181.39,-207.295 187.31,-198.508 177.203,-201.685 181.39,-207.295"/>
</g>
<!-- Node42 -->
<g id="node42" class="node"><title>Node42</title>
<g id="a_node42"><a xlink:href="tir_2expr_8h.html" target="_top" xlink:title="TIR expressions. ">
<polygon fill="white" stroke="black" points="854,-929.5 854,-948.5 934,-948.5 934,-929.5 854,-929.5"/>
<text text-anchor="middle" x="894" y="-936.5" font-family="Helvetica,sans-Serif" font-size="10.00">tvm/tir/expr.h</text>
</a>
</g>
</g>
<!-- Node1&#45;&gt;Node42 -->
<g id="edge130" class="edge"><title>Node1&#45;&gt;Node42</title>
<path fill="none" stroke="midnightblue" d="M579.347,-990.463C651.265,-978.929 774.6,-959.149 843.561,-948.089"/>
<polygon fill="midnightblue" stroke="midnightblue" points="844.417,-951.497 853.737,-946.457 843.309,-944.585 844.417,-951.497"/>
</g>
<!-- Node3 -->
<g id="node3" class="node"><title>Node3</title>
<g id="a_node3"><a xlink:href="object_8h.html" target="_top" xlink:title="A managed object in the TVM runtime. ">
<polygon fill="white" stroke="black" points="1270.5,-123.5 1270.5,-142.5 1387.5,-142.5 1387.5,-123.5 1270.5,-123.5"/>
<text text-anchor="middle" x="1329" y="-130.5" font-family="Helvetica,sans-Serif" font-size="10.00">tvm/runtime/object.h</text>
</a>
</g>
</g>
<!-- Node2&#45;&gt;Node3 -->
<g id="edge2" class="edge"><title>Node2&#45;&gt;Node3</title>
<path fill="none" stroke="midnightblue" d="M1194.63,-770.136C1343.2,-770.334 1877.62,-767.978 2041,-725 2094.82,-710.842 2123.74,-716.341 2153,-669 2246.55,-517.628 2172.37,-384.553 2021,-291 1977.96,-264.4 1960.83,-271.51 1913,-255 1888.02,-246.376 1882.14,-243.16 1857,-235 1802.82,-217.414 1786.8,-220.371 1734,-199 1716.31,-191.839 1714.21,-184.699 1696,-179 1668.26,-170.322 1496.12,-151.403 1397.76,-141.075"/>
<polygon fill="midnightblue" stroke="midnightblue" points="1397.91,-137.572 1387.6,-140.011 1397.18,-144.534 1397.91,-137.572"/>
</g>
<!-- Node9 -->
<g id="node9" class="node"><title>Node9</title>
<polygon fill="white" stroke="#bfbfbf" points="625,-62 625,-81 693,-81 693,-62 625,-62"/>
<text text-anchor="middle" x="659" y="-69" font-family="Helvetica,sans-Serif" font-size="10.00">type_traits</text>
</g>
<!-- Node2&#45;&gt;Node9 -->
<g id="edge129" class="edge"><title>Node2&#45;&gt;Node9</title>
<path fill="none" stroke="midnightblue" d="M1143.92,-761.315C1120.42,-744.471 1070.02,-708.688 1061,-705 976.593,-670.481 948.531,-686.328 859,-669 620.067,-622.756 525.184,-692.46 323,-557 174.038,-457.198 173.052,-374.643 137,-199 119.457,-113.534 232.923,-142.341 318,-123 423.25,-99.0728 549.447,-83.7949 614.84,-76.855"/>
<polygon fill="midnightblue" stroke="midnightblue" points="615.219,-80.3345 624.801,-75.8127 614.491,-73.3725 615.219,-80.3345"/>
</g>
<!-- Node10 -->
<g id="node10" class="node"><title>Node10</title>
<polygon fill="white" stroke="#bfbfbf" points="2397,-62 2397,-81 2441,-81 2441,-62 2397,-62"/>
<text text-anchor="middle" x="2419" y="-69" font-family="Helvetica,sans-Serif" font-size="10.00">string</text>
</g>
<!-- Node2&#45;&gt;Node10 -->
<g id="edge126" class="edge"><title>Node2&#45;&gt;Node10</title>
<path fill="none" stroke="midnightblue" d="M1194.78,-769.642C1398.33,-767.631 2335.83,-756.671 2388,-725 2465.75,-677.799 2590,-459.959 2590,-369 2590,-369 2590,-369 2590,-188 2590,-121.61 2500.39,-90.8136 2450.91,-78.8691"/>
<polygon fill="midnightblue" stroke="midnightblue" points="2451.53,-75.4219 2441.01,-76.6004 2449.97,-82.2451 2451.53,-75.4219"/>
</g>
<!-- Node13 -->
<g id="node13" class="node"><title>Node13</title>
<g id="a_node13"><a xlink:href="node_8h.html" target="_top" xlink:title="Definitions and helper macros for IR/AST nodes. ">
<polygon fill="white" stroke="black" points="1046,-593.5 1046,-612.5 1144,-612.5 1144,-593.5 1046,-593.5"/>
<text text-anchor="middle" x="1095" y="-600.5" font-family="Helvetica,sans-Serif" font-size="10.00">tvm/node/node.h</text>
</a>
</g>
</g>
<!-- Node2&#45;&gt;Node13 -->
<g id="edge12" class="edge"><title>Node2&#45;&gt;Node13</title>
<path fill="none" stroke="midnightblue" d="M1152.72,-761.075C1143.08,-734.832 1114.68,-657.545 1101.66,-622.117"/>
<polygon fill="midnightblue" stroke="midnightblue" points="1104.88,-620.747 1098.15,-612.568 1098.31,-623.162 1104.88,-620.747"/>
</g>
<!-- Node29 -->
<g id="node29" class="node"><title>Node29</title>
<polygon fill="white" stroke="#bfbfbf" points="2482,-235.5 2482,-254.5 2524,-254.5 2524,-235.5 2482,-235.5"/>
<text text-anchor="middle" x="2503" y="-242.5" font-family="Helvetica,sans-Serif" font-size="10.00">limits</text>
</g>
<!-- Node2&#45;&gt;Node29 -->
<g id="edge128" class="edge"><title>Node2&#45;&gt;Node29</title>
<path fill="none" stroke="midnightblue" d="M1194.55,-769.848C1395.8,-768.896 2318.33,-762.493 2365,-725 2407.69,-690.701 2427,-541.262 2427,-486.5 2427,-486.5 2427,-486.5 2427,-367 2427,-323.475 2462.7,-282.775 2485.16,-261.472"/>
<polygon fill="midnightblue" stroke="midnightblue" points="2487.73,-263.863 2492.75,-254.531 2483.01,-258.698 2487.73,-263.863"/>
</g>
<!-- Node35 -->
<g id="node35" class="node"><title>Node35</title>
<g id="a_node35"><a xlink:href="node_2container_8h.html" target="_top" xlink:title="Array/Map container in the DSL graph. ">
<polygon fill="white" stroke="black" points="788.5,-414.5 788.5,-433.5 907.5,-433.5 907.5,-414.5 788.5,-414.5"/>
<text text-anchor="middle" x="848" y="-421.5" font-family="Helvetica,sans-Serif" font-size="10.00">tvm/node/container.h</text>
</a>
</g>
</g>
<!-- Node2&#45;&gt;Node35 -->
<g id="edge114" class="edge"><title>Node2&#45;&gt;Node35</title>
<path fill="none" stroke="midnightblue" d="M1149.67,-761.308C1139.36,-747.684 1117.69,-721.186 1094,-705 996.407,-638.333 848,-722.19 848,-604 848,-604 848,-604 848,-546 848,-509.714 848,-467.307 848,-443.559"/>
<polygon fill="midnightblue" stroke="midnightblue" points="851.5,-443.509 848,-433.509 844.5,-443.509 851.5,-443.509"/>
</g>
<!-- Node39 -->
<g id="node39" class="node"><title>Node39</title>
<g id="a_node39"><a xlink:href="span_8h.html" target="_top" xlink:title="Span information for debugging purposes. ">
<polygon fill="white" stroke="black" points="2064,-649.5 2064,-668.5 2144,-668.5 2144,-649.5 2064,-649.5"/>
<text text-anchor="middle" x="2104" y="-656.5" font-family="Helvetica,sans-Serif" font-size="10.00">tvm/ir/span.h</text>
</a>
</g>
</g>
<!-- Node2&#45;&gt;Node39 -->
<g id="edge115" class="edge"><title>Node2&#45;&gt;Node39</title>
<path fill="none" stroke="midnightblue" d="M1194.76,-769.161C1350.93,-765.618 1929.4,-750.852 2007,-725 2038.24,-714.593 2068.88,-691.226 2087.11,-675.534"/>
<polygon fill="midnightblue" stroke="midnightblue" points="2089.85,-677.788 2095.01,-668.538 2085.21,-672.547 2089.85,-677.788"/>
</g>
<!-- Node40 -->
<g id="node40" class="node"><title>Node40</title>
<g id="a_node40"><a xlink:href="ir_2type_8h.html" target="_top" xlink:title="IR/AST nodes for the unified type system in TVM. ">
<polygon fill="white" stroke="black" points="1921.5,-705.5 1921.5,-724.5 1998.5,-724.5 1998.5,-705.5 1921.5,-705.5"/>
<text text-anchor="middle" x="1960" y="-712.5" font-family="Helvetica,sans-Serif" font-size="10.00">tvm/ir/type.h</text>
</a>
</g>
</g>
<!-- Node2&#45;&gt;Node40 -->
<g id="edge119" class="edge"><title>Node2&#45;&gt;Node40</title>
<path fill="none" stroke="midnightblue" d="M1194.51,-767.414C1326.96,-758.518 1763.71,-729.183 1911,-719.291"/>
<polygon fill="midnightblue" stroke="midnightblue" points="1911.36,-722.775 1921.1,-718.613 1910.89,-715.791 1911.36,-722.775"/>
</g>
<!-- Node41 -->
<g id="node41" class="node"><title>Node41</title>
<polygon fill="white" stroke="#bfbfbf" points="990,-705.5 990,-724.5 1052,-724.5 1052,-705.5 990,-705.5"/>
<text text-anchor="middle" x="1021" y="-712.5" font-family="Helvetica,sans-Serif" font-size="10.00">algorithm</text>
</g>
<!-- Node2&#45;&gt;Node41 -->
<g id="edge127" class="edge"><title>Node2&#45;&gt;Node41</title>
<path fill="none" stroke="midnightblue" d="M1134.61,-761.444C1112.29,-752.517 1077.1,-738.439 1051.79,-728.317"/>
<polygon fill="midnightblue" stroke="midnightblue" points="1052.88,-724.981 1042.29,-724.516 1050.28,-731.48 1052.88,-724.981"/>
</g>
<!-- Node4 -->
<g id="node4" class="node"><title>Node4</title>
<polygon fill="white" stroke="#bfbfbf" points="1069,-62 1069,-81 1155,-81 1155,-62 1069,-62"/>
<text text-anchor="middle" x="1112" y="-69" font-family="Helvetica,sans-Serif" font-size="10.00">dmlc/logging.h</text>
</g>
<!-- Node3&#45;&gt;Node4 -->
<g id="edge3" class="edge"><title>Node3&#45;&gt;Node4</title>
<path fill="none" stroke="midnightblue" d="M1297.91,-123.475C1259.72,-113.004 1194.83,-95.2118 1152.7,-83.6601"/>
<polygon fill="midnightblue" stroke="midnightblue" points="1153.6,-80.2781 1143.03,-81.0091 1151.75,-87.0289 1153.6,-80.2781"/>
</g>
<!-- Node5 -->
<g id="node5" class="node"><title>Node5</title>
<g id="a_node5"><a xlink:href="c__runtime__api_8h.html" target="_top" xlink:title="tvm/runtime/c_runtime\l_api.h">
<polygon fill="white" stroke="black" points="1918.5,-56.5 1918.5,-86.5 2045.5,-86.5 2045.5,-56.5 1918.5,-56.5"/>
<text text-anchor="start" x="1926.5" y="-74.5" font-family="Helvetica,sans-Serif" font-size="10.00">tvm/runtime/c_runtime</text>
<text text-anchor="middle" x="1982" y="-63.5" font-family="Helvetica,sans-Serif" font-size="10.00">_api.h</text>
</a>
</g>
</g>
<!-- Node3&#45;&gt;Node5 -->
<g id="edge4" class="edge"><title>Node3&#45;&gt;Node5</title>
<path fill="none" stroke="midnightblue" d="M1387.55,-124.594C1392.44,-124.033 1397.3,-123.494 1402,-123 1583.8,-103.885 1798.2,-86.5742 1908.41,-78.0583"/>
<polygon fill="midnightblue" stroke="midnightblue" points="1908.72,-81.5448 1918.42,-77.2867 1908.18,-74.5655 1908.72,-81.5448"/>
</g>
<!-- Node3&#45;&gt;Node9 -->
<g id="edge8" class="edge"><title>Node3&#45;&gt;Node9</title>
<path fill="none" stroke="midnightblue" d="M1270.42,-126.798C1138.42,-115.075 820.12,-86.8084 703.113,-76.4175"/>
<polygon fill="midnightblue" stroke="midnightblue" points="703.35,-72.9249 693.08,-75.5265 702.731,-79.8974 703.35,-72.9249"/>
</g>
<!-- Node3&#45;&gt;Node10 -->
<g id="edge9" class="edge"><title>Node3&#45;&gt;Node10</title>
<path fill="none" stroke="midnightblue" d="M1387.57,-126.675C1402.99,-125.369 1419.61,-124.048 1435,-123 1808.57,-97.562 2262.71,-78.7043 2386.52,-73.7721"/>
<polygon fill="midnightblue" stroke="midnightblue" points="2386.96,-77.2574 2396.81,-73.3637 2386.68,-70.2629 2386.96,-77.2574"/>
</g>
<!-- Node11 -->
<g id="node11" class="node"><title>Node11</title>
<polygon fill="white" stroke="#bfbfbf" points="359,-62 359,-81 401,-81 401,-62 359,-62"/>
<text text-anchor="middle" x="380" y="-69" font-family="Helvetica,sans-Serif" font-size="10.00">utility</text>
</g>
<!-- Node3&#45;&gt;Node11 -->
<g id="edge10" class="edge"><title>Node3&#45;&gt;Node11</title>
<path fill="none" stroke="midnightblue" d="M1270.35,-128.323C1089.95,-117.012 547.285,-82.9884 411.209,-74.4567"/>
<polygon fill="midnightblue" stroke="midnightblue" points="411.263,-70.9533 401.063,-73.8206 410.825,-77.9396 411.263,-70.9533"/>
</g>
<!-- Node12 -->
<g id="node12" class="node"><title>Node12</title>
<polygon fill="white" stroke="#bfbfbf" points="1536,-62 1536,-81 1586,-81 1586,-62 1536,-62"/>
<text text-anchor="middle" x="1561" y="-69" font-family="Helvetica,sans-Serif" font-size="10.00">atomic</text>
</g>
<!-- Node3&#45;&gt;Node12 -->
<g id="edge11" class="edge"><title>Node3&#45;&gt;Node12</title>
<path fill="none" stroke="midnightblue" d="M1362.24,-123.475C1405.71,-112.326 1481.55,-92.8774 1525.91,-81.4986"/>
<polygon fill="midnightblue" stroke="midnightblue" points="1526.86,-84.8687 1535.68,-78.9941 1525.12,-78.0882 1526.86,-84.8687"/>
</g>
<!-- Node6 -->
<g id="node6" class="node"><title>Node6</title>
<polygon fill="white" stroke="#bfbfbf" points="1847,-0.5 1847,-19.5 1937,-19.5 1937,-0.5 1847,-0.5"/>
<text text-anchor="middle" x="1892" y="-7.5" font-family="Helvetica,sans-Serif" font-size="10.00">dlpack/dlpack.h</text>
</g>
<!-- Node5&#45;&gt;Node6 -->
<g id="edge5" class="edge"><title>Node5&#45;&gt;Node6</title>
<path fill="none" stroke="midnightblue" d="M1960.67,-56.3993C1946.51,-47.0402 1927.99,-34.7924 1913.75,-25.3771"/>
<polygon fill="midnightblue" stroke="midnightblue" points="1915.37,-22.2531 1905.1,-19.6578 1911.51,-28.0923 1915.37,-22.2531"/>
</g>
<!-- Node7 -->
<g id="node7" class="node"><title>Node7</title>
<polygon fill="white" stroke="#bfbfbf" points="1955.5,-0.5 1955.5,-19.5 2008.5,-19.5 2008.5,-0.5 1955.5,-0.5"/>
<text text-anchor="middle" x="1982" y="-7.5" font-family="Helvetica,sans-Serif" font-size="10.00">stdint.h</text>
</g>
<!-- Node5&#45;&gt;Node7 -->
<g id="edge6" class="edge"><title>Node5&#45;&gt;Node7</title>
<path fill="none" stroke="midnightblue" d="M1982,-56.3993C1982,-48.4664 1982,-38.458 1982,-29.8583"/>
<polygon fill="midnightblue" stroke="midnightblue" points="1985.5,-29.6577 1982,-19.6578 1978.5,-29.6578 1985.5,-29.6577"/>
</g>
<!-- Node8 -->
<g id="node8" class="node"><title>Node8</title>
<polygon fill="white" stroke="#bfbfbf" points="2026.5,-0.5 2026.5,-19.5 2081.5,-19.5 2081.5,-0.5 2026.5,-0.5"/>
<text text-anchor="middle" x="2054" y="-7.5" font-family="Helvetica,sans-Serif" font-size="10.00">stddef.h</text>
</g>
<!-- Node5&#45;&gt;Node8 -->
<g id="edge7" class="edge"><title>Node5&#45;&gt;Node8</title>
<path fill="none" stroke="midnightblue" d="M1999.06,-56.3993C2010.06,-47.3076 2024.37,-35.4899 2035.62,-26.1909"/>
<polygon fill="midnightblue" stroke="midnightblue" points="2038.04,-28.726 2043.52,-19.6578 2033.59,-23.33 2038.04,-28.726"/>
</g>
<!-- Node13&#45;&gt;Node3 -->
<g id="edge66" class="edge"><title>Node13&#45;&gt;Node3</title>
<path fill="none" stroke="midnightblue" d="M1144.01,-600.739C1274.83,-596.353 1627.87,-577.529 1710,-501 1797.2,-419.75 1828.49,-319.06 1744,-235 1706.33,-197.526 1679.91,-217.236 1630,-199 1608.29,-191.068 1604.18,-185.507 1582,-179 1520.8,-161.042 1449.05,-149.107 1397.62,-142.069"/>
<polygon fill="midnightblue" stroke="midnightblue" points="1397.99,-138.587 1387.61,-140.726 1397.06,-145.525 1397.99,-138.587"/>
</g>
<!-- Node13&#45;&gt;Node5 -->
<g id="edge13" class="edge"><title>Node13&#45;&gt;Node5</title>
<path fill="none" stroke="midnightblue" d="M1144.28,-601.89C1238.26,-600.783 1449.14,-593.965 1622,-557 1784.06,-522.344 1821.13,-497.983 1974,-434 2026.07,-412.205 2054.57,-423.489 2088,-378 2140.54,-306.499 2131.8,-263.262 2104,-179 2094.65,-150.671 2088.59,-143.584 2067,-123 2053.93,-110.543 2037.26,-99.7986 2022.14,-91.4613"/>
<polygon fill="midnightblue" stroke="midnightblue" points="2023.45,-88.1934 2012.98,-86.5875 2020.16,-94.3736 2023.45,-88.1934"/>
</g>
<!-- Node13&#45;&gt;Node9 -->
<g id="edge113" class="edge"><title>Node13&#45;&gt;Node9</title>
<path fill="none" stroke="midnightblue" d="M1045.78,-596.737C986.873,-589.924 885.476,-576.558 800,-557 717.501,-538.123 696.213,-533.33 618,-501 576.245,-483.74 311.685,-342.746 282,-322 214.656,-274.936 177.607,-273.972 144,-199 140.364,-190.889 138.387,-185.893 144,-179 144,-179 490.057,-107.437 614.825,-81.6352"/>
<polygon fill="midnightblue" stroke="midnightblue" points="615.727,-85.0229 624.811,-79.5702 614.309,-78.168 615.727,-85.0229"/>
</g>
<!-- Node13&#45;&gt;Node10 -->
<g id="edge110" class="edge"><title>Node13&#45;&gt;Node10</title>
<path fill="none" stroke="midnightblue" d="M1144.29,-601.722C1245.41,-600.381 1483.27,-593.264 1679,-557 1986.68,-499.993 2055.84,-430.363 2315,-255 2371.76,-216.591 2403.86,-209.359 2421,-143 2425.4,-125.975 2424.23,-105.865 2422.36,-91.4893"/>
<polygon fill="midnightblue" stroke="midnightblue" points="2425.78,-90.7093 2420.8,-81.3581 2418.86,-91.7741 2425.78,-90.7093"/>
</g>
<!-- Node13&#45;&gt;Node11 -->
<g id="edge112" class="edge"><title>Node13&#45;&gt;Node11</title>
<path fill="none" stroke="midnightblue" d="M1045.72,-599.542C972.546,-595.14 831.213,-583.734 714,-557 552.783,-520.229 38,-411.357 38,-246 38,-246 38,-246 38,-188 38,-122.717 264.511,-87.195 348.852,-76.2311"/>
<polygon fill="midnightblue" stroke="midnightblue" points="349.386,-79.6915 358.864,-74.9587 348.503,-72.7473 349.386,-79.6915"/>
</g>
<!-- Node14 -->
<g id="node14" class="node"><title>Node14</title>
<g id="a_node14"><a xlink:href="runtime_2container_8h.html" target="_top" xlink:title="Common POD(plain old data) container types. ">
<polygon fill="white" stroke="black" points="853,-358.5 853,-377.5 985,-377.5 985,-358.5 853,-358.5"/>
<text text-anchor="middle" x="919" y="-365.5" font-family="Helvetica,sans-Serif" font-size="10.00">tvm/runtime/container.h</text>
</a>
</g>
</g>
<!-- Node13&#45;&gt;Node14 -->
<g id="edge14" class="edge"><title>Node13&#45;&gt;Node14</title>
<path fill="none" stroke="midnightblue" d="M1086.03,-593.391C1077.04,-584.586 1062.99,-570.343 1052,-557 1002.71,-497.182 951.802,-420.149 929.992,-386.278"/>
<polygon fill="midnightblue" stroke="midnightblue" points="932.754,-384.101 924.413,-377.568 926.859,-387.876 932.754,-384.101"/>
</g>
<!-- Node15 -->
<g id="node15" class="node"><title>Node15</title>
<g id="a_node15"><a xlink:href="runtime_2memory_8h.html" target="_top" xlink:title="Runtime memory management. ">
<polygon fill="white" stroke="black" points="484.5,-179.5 484.5,-198.5 611.5,-198.5 611.5,-179.5 484.5,-179.5"/>
<text text-anchor="middle" x="548" y="-186.5" font-family="Helvetica,sans-Serif" font-size="10.00">tvm/runtime/memory.h</text>
</a>
</g>
</g>
<!-- Node13&#45;&gt;Node15 -->
<g id="edge67" class="edge"><title>Node13&#45;&gt;Node15</title>
<path fill="none" stroke="midnightblue" d="M1048.04,-593.483C970.949,-578.828 813.318,-546.022 685,-501 654.04,-490.137 647.999,-483.289 618,-470 580.489,-453.384 568.892,-453.873 533,-434 495.031,-412.977 479.319,-412.51 453,-378 414.383,-327.364 417.066,-280.125 462,-235 476.213,-220.726 495.904,-209.971 512.859,-202.56"/>
<polygon fill="midnightblue" stroke="midnightblue" points="514.563,-205.643 522.462,-198.582 511.884,-199.175 514.563,-205.643"/>
</g>
<!-- Node13&#45;&gt;Node21 -->
<g id="edge111" class="edge"><title>Node13&#45;&gt;Node21</title>
<path fill="none" stroke="midnightblue" d="M1093.03,-593.333C1084.38,-556.072 1048.01,-406.165 997,-291 983.288,-260.045 962.413,-226.572 949.52,-206.99"/>
<polygon fill="midnightblue" stroke="midnightblue" points="952.36,-204.94 943.898,-198.565 946.537,-208.826 952.36,-204.94"/>
</g>
<!-- Node32 -->
<g id="node32" class="node"><title>Node32</title>
<g id="a_node32"><a xlink:href="reflection_8h.html" target="_top" xlink:title="Reflection and serialization of compiler IR/AST nodes. ">
<polygon fill="white" stroke="black" points="1322.5,-537.5 1322.5,-556.5 1441.5,-556.5 1441.5,-537.5 1322.5,-537.5"/>
<text text-anchor="middle" x="1382" y="-544.5" font-family="Helvetica,sans-Serif" font-size="10.00">tvm/node/reflection.h</text>
</a>
</g>
</g>
<!-- Node13&#45;&gt;Node32 -->
<g id="edge68" class="edge"><title>Node13&#45;&gt;Node32</title>
<path fill="none" stroke="midnightblue" d="M1140.48,-593.444C1190.96,-583.944 1272.46,-568.611 1326.62,-558.42"/>
<polygon fill="midnightblue" stroke="midnightblue" points="1327.56,-561.805 1336.74,-556.516 1326.26,-554.926 1327.56,-561.805"/>
</g>
<!-- Node33 -->
<g id="node33" class="node"><title>Node33</title>
<g id="a_node33"><a xlink:href="structural__equal_8h.html" target="_top" xlink:title="Structural equality comparison. ">
<polygon fill="white" stroke="black" points="1223.5,-470.5 1223.5,-500.5 1334.5,-500.5 1334.5,-470.5 1223.5,-470.5"/>
<text text-anchor="start" x="1231.5" y="-488.5" font-family="Helvetica,sans-Serif" font-size="10.00">tvm/node/structural</text>
<text text-anchor="middle" x="1279" y="-477.5" font-family="Helvetica,sans-Serif" font-size="10.00">_equal.h</text>
</a>
</g>
</g>
<!-- Node13&#45;&gt;Node33 -->
<g id="edge108" class="edge"><title>Node13&#45;&gt;Node33</title>
<path fill="none" stroke="midnightblue" d="M1108.83,-593.319C1138.2,-574.882 1207.42,-531.431 1247.95,-505.99"/>
<polygon fill="midnightblue" stroke="midnightblue" points="1250.02,-508.826 1256.62,-500.545 1246.29,-502.897 1250.02,-508.826"/>
</g>
<!-- Node13&#45;&gt;Node35 -->
<g id="edge107" class="edge"><title>Node13&#45;&gt;Node35</title>
<path fill="none" stroke="midnightblue" d="M1076.93,-593.481C1059.71,-585.071 1033.32,-571.411 1012,-557 961.789,-523.063 954.437,-507.718 907,-470 894.144,-459.778 879.458,-448.576 867.955,-439.905"/>
<polygon fill="midnightblue" stroke="midnightblue" points="869.96,-437.033 859.862,-433.826 865.756,-442.631 869.96,-437.033"/>
</g>
<!-- Node36 -->
<g id="node36" class="node"><title>Node36</title>
<g id="a_node36"><a xlink:href="structural__hash_8h.html" target="_top" xlink:title="tvm/node/structural\l_hash.h">
<polygon fill="white" stroke="black" points="1094.5,-470.5 1094.5,-500.5 1205.5,-500.5 1205.5,-470.5 1094.5,-470.5"/>
<text text-anchor="start" x="1102.5" y="-488.5" font-family="Helvetica,sans-Serif" font-size="10.00">tvm/node/structural</text>
<text text-anchor="middle" x="1150" y="-477.5" font-family="Helvetica,sans-Serif" font-size="10.00">_hash.h</text>
</a>
</g>
</g>
<!-- Node13&#45;&gt;Node36 -->
<g id="edge109" class="edge"><title>Node13&#45;&gt;Node36</title>
<path fill="none" stroke="midnightblue" d="M1099.13,-593.319C1107.51,-575.734 1126.72,-535.394 1138.99,-509.629"/>
<polygon fill="midnightblue" stroke="midnightblue" points="1142.17,-511.079 1143.31,-500.545 1135.85,-508.069 1142.17,-511.079"/>
</g>
<!-- Node37 -->
<g id="node37" class="node"><title>Node37</title>
<g id="a_node37"><a xlink:href="repr__printer_8h.html" target="_top" xlink:title="Printer class to print repr string of each AST/IR nodes. ">
<polygon fill="white" stroke="black" points="332,-537.5 332,-556.5 462,-556.5 462,-537.5 332,-537.5"/>
<text text-anchor="middle" x="397" y="-544.5" font-family="Helvetica,sans-Serif" font-size="10.00">tvm/node/repr_printer.h</text>
</a>
</g>
</g>
<!-- Node13&#45;&gt;Node37 -->
<g id="edge104" class="edge"><title>Node13&#45;&gt;Node37</title>
<path fill="none" stroke="midnightblue" d="M1045.92,-598.203C925.687,-588.901 615.817,-564.929 472.173,-553.816"/>
<polygon fill="midnightblue" stroke="midnightblue" points="472.363,-550.32 462.123,-553.038 471.823,-557.299 472.363,-550.32"/>
</g>
<!-- Node14&#45;&gt;Node3 -->
<g id="edge21" class="edge"><title>Node14&#45;&gt;Node3</title>
<path fill="none" stroke="midnightblue" d="M985.208,-364.034C1087.59,-358.768 1279.17,-346.008 1343,-322 1365.39,-313.579 1366.09,-302.619 1387,-291 1422.86,-271.072 1449.34,-289.202 1472,-255 1504.73,-205.587 1418.38,-165.203 1365.91,-146.037"/>
<polygon fill="midnightblue" stroke="midnightblue" points="1366.83,-142.647 1356.23,-142.599 1364.48,-149.244 1366.83,-142.647"/>
</g>
<!-- Node14&#45;&gt;Node4 -->
<g id="edge15" class="edge"><title>Node14&#45;&gt;Node4</title>
<path fill="none" stroke="midnightblue" d="M938.906,-358.41C953.225,-351.04 971.458,-338.916 980,-322 986.21,-309.701 987.177,-302.761 980,-291 961.777,-261.137 929.534,-284.023 910,-255 891.099,-226.918 887.37,-207.897 905,-179 910.188,-170.497 1030.17,-111.921 1085.04,-85.4439"/>
<polygon fill="midnightblue" stroke="midnightblue" points="1086.7,-88.5332 1094.19,-81.0397 1083.66,-82.2269 1086.7,-88.5332"/>
</g>
<!-- Node14&#45;&gt;Node9 -->
<g id="edge63" class="edge"><title>Node14&#45;&gt;Node9</title>
<path fill="none" stroke="midnightblue" d="M911.219,-358.186C874.887,-317.033 721.684,-143.502 673.542,-88.9711"/>
<polygon fill="midnightblue" stroke="midnightblue" points="675.993,-86.4595 666.751,-81.2794 670.746,-91.0924 675.993,-86.4595"/>
</g>
<!-- Node14&#45;&gt;Node10 -->
<g id="edge62" class="edge"><title>Node14&#45;&gt;Node10</title>
<path fill="none" stroke="midnightblue" d="M985.126,-365.205C1201.19,-358.637 1884.19,-332.127 2089,-255 2182.85,-219.657 2182.95,-169.122 2272,-123 2309.67,-103.487 2356.52,-88.894 2387.06,-80.5377"/>
<polygon fill="midnightblue" stroke="midnightblue" points="2388,-83.9096 2396.76,-77.9449 2386.19,-77.1472 2388,-83.9096"/>
</g>
<!-- Node14&#45;&gt;Node11 -->
<g id="edge64" class="edge"><title>Node14&#45;&gt;Node11</title>
<path fill="none" stroke="midnightblue" d="M884.22,-358.465C858.191,-351.156 822.347,-339.085 794,-322 776.486,-311.444 778.496,-299.721 760,-291 657.667,-242.75 613.903,-294.807 508,-255 440.618,-229.672 414.339,-211.097 391,-143 385.232,-126.171 382.474,-106.038 381.164,-91.6029"/>
<polygon fill="midnightblue" stroke="midnightblue" points="384.638,-91.128 380.394,-81.4205 377.658,-91.656 384.638,-91.128"/>
</g>
<!-- Node14&#45;&gt;Node15 -->
<g id="edge16" class="edge"><title>Node14&#45;&gt;Node15</title>
<path fill="none" stroke="midnightblue" d="M903.832,-358.402C888.217,-349.487 863.237,-335.054 842,-322 820.365,-308.701 817.643,-300.27 794,-291 707.877,-257.235 665.818,-306.539 589,-255 572.256,-243.766 560.993,-223.144 554.575,-208.132"/>
<polygon fill="midnightblue" stroke="midnightblue" points="557.826,-206.836 550.898,-198.821 551.315,-209.407 557.826,-206.836"/>
</g>
<!-- Node17 -->
<g id="node17" class="node"><title>Node17</title>
<g id="a_node17"><a xlink:href="packed__func_8h.html" target="_top" xlink:title="Type&#45;erased function used across TVM API. ">
<polygon fill="white" stroke="black" points="1221.5,-291.5 1221.5,-321.5 1334.5,-321.5 1334.5,-291.5 1221.5,-291.5"/>
<text text-anchor="start" x="1229.5" y="-309.5" font-family="Helvetica,sans-Serif" font-size="10.00">tvm/runtime/packed</text>
<text text-anchor="middle" x="1278" y="-298.5" font-family="Helvetica,sans-Serif" font-size="10.00">_func.h</text>
</a>
</g>
</g>
<!-- Node14&#45;&gt;Node17 -->
<g id="edge22" class="edge"><title>Node14&#45;&gt;Node17</title>
<path fill="none" stroke="midnightblue" d="M970.436,-358.475C1033.82,-347.97 1141.66,-330.097 1211.34,-318.549"/>
<polygon fill="midnightblue" stroke="midnightblue" points="1212.04,-321.981 1221.33,-316.893 1210.89,-315.075 1212.04,-321.981"/>
</g>
<!-- Node14&#45;&gt;Node21 -->
<g id="edge65" class="edge"><title>Node14&#45;&gt;Node21</title>
<path fill="none" stroke="midnightblue" d="M916.443,-358.451C910.485,-337.125 897.127,-280.056 910,-235 912.902,-224.844 918.832,-214.747 924.49,-206.699"/>
<polygon fill="midnightblue" stroke="midnightblue" points="927.376,-208.685 930.588,-198.589 921.781,-204.479 927.376,-208.685"/>
</g>
<!-- Node30 -->
<g id="node30" class="node"><title>Node30</title>
<polygon fill="white" stroke="#bfbfbf" points="922.5,-297 922.5,-316 971.5,-316 971.5,-297 922.5,-297"/>
<text text-anchor="middle" x="947" y="-304" font-family="Helvetica,sans-Serif" font-size="10.00">cstring</text>
</g>
<!-- Node14&#45;&gt;Node30 -->
<g id="edge60" class="edge"><title>Node14&#45;&gt;Node30</title>
<path fill="none" stroke="midnightblue" d="M923.012,-358.475C927.087,-349.815 933.518,-336.149 938.696,-325.145"/>
<polygon fill="midnightblue" stroke="midnightblue" points="941.905,-326.548 942.996,-316.009 935.571,-323.567 941.905,-326.548"/>
</g>
<!-- Node31 -->
<g id="node31" class="node"><title>Node31</title>
<polygon fill="white" stroke="#bfbfbf" points="674.5,-297 674.5,-316 751.5,-316 751.5,-297 674.5,-297"/>
<text text-anchor="middle" x="713" y="-304" font-family="Helvetica,sans-Serif" font-size="10.00">initializer_list</text>
</g>
<!-- Node14&#45;&gt;Node31 -->
<g id="edge61" class="edge"><title>Node14&#45;&gt;Node31</title>
<path fill="none" stroke="midnightblue" d="M889.485,-358.475C853.384,-348.048 792.152,-330.362 752.146,-318.807"/>
<polygon fill="midnightblue" stroke="midnightblue" points="753.039,-315.422 742.46,-316.009 751.096,-322.147 753.039,-315.422"/>
</g>
<!-- Node15&#45;&gt;Node3 -->
<g id="edge17" class="edge"><title>Node15&#45;&gt;Node3</title>
<path fill="none" stroke="midnightblue" d="M611.581,-183.604C756.56,-173.58 1110.61,-149.1 1260.34,-138.748"/>
<polygon fill="midnightblue" stroke="midnightblue" points="1260.59,-142.238 1270.33,-138.057 1260.11,-135.255 1260.59,-142.238"/>
</g>
<!-- Node15&#45;&gt;Node9 -->
<g id="edge20" class="edge"><title>Node15&#45;&gt;Node9</title>
<path fill="none" stroke="midnightblue" d="M546.437,-179.082C544.591,-165.621 543.115,-139.896 555,-123 569.12,-102.926 593.477,-90.5078 615.072,-83.011"/>
<polygon fill="midnightblue" stroke="midnightblue" points="616.301,-86.2924 624.752,-79.903 614.161,-79.6275 616.301,-86.2924"/>
</g>
<!-- Node15&#45;&gt;Node11 -->
<g id="edge19" class="edge"><title>Node15&#45;&gt;Node11</title>
<path fill="none" stroke="midnightblue" d="M535.373,-179.319C506.793,-159.67 436.885,-111.609 401.406,-87.2169"/>
<polygon fill="midnightblue" stroke="midnightblue" points="402.997,-84.0632 392.774,-81.282 399.031,-89.8315 402.997,-84.0632"/>
</g>
<!-- Node16 -->
<g id="node16" class="node"><title>Node16</title>
<polygon fill="white" stroke="#bfbfbf" points="564.5,-123.5 564.5,-142.5 611.5,-142.5 611.5,-123.5 564.5,-123.5"/>
<text text-anchor="middle" x="588" y="-130.5" font-family="Helvetica,sans-Serif" font-size="10.00">cstdlib</text>
</g>
<!-- Node15&#45;&gt;Node16 -->
<g id="edge18" class="edge"><title>Node15&#45;&gt;Node16</title>
<path fill="none" stroke="midnightblue" d="M554.605,-179.083C560.255,-171.455 568.545,-160.264 575.451,-150.941"/>
<polygon fill="midnightblue" stroke="midnightblue" points="578.378,-152.87 581.518,-142.751 572.753,-148.703 578.378,-152.87"/>
</g>
<!-- Node17&#45;&gt;Node3 -->
<g id="edge51" class="edge"><title>Node17&#45;&gt;Node3</title>
<path fill="none" stroke="midnightblue" d="M1281.08,-291.249C1283.55,-276.028 1285,-251.827 1274,-235 1254.64,-205.388 1221.52,-229.148 1203,-199 1198.35,-191.426 1197.88,-186.266 1203,-179 1216.4,-159.98 1238.61,-148.954 1260.68,-142.58"/>
<polygon fill="midnightblue" stroke="midnightblue" points="1261.64,-145.946 1270.44,-140.044 1259.88,-139.171 1261.64,-145.946"/>
</g>
<!-- Node17&#45;&gt;Node4 -->
<g id="edge23" class="edge"><title>Node17&#45;&gt;Node4</title>
<path fill="none" stroke="midnightblue" d="M1256.41,-291.357C1243.36,-282.085 1226.98,-269.099 1215,-255 1169.52,-201.488 1134.06,-124.913 1119.37,-90.4803"/>
<polygon fill="midnightblue" stroke="midnightblue" points="1122.59,-89.0899 1115.49,-81.2194 1116.13,-91.7951 1122.59,-89.0899"/>
</g>
<!-- Node17&#45;&gt;Node5 -->
<g id="edge24" class="edge"><title>Node17&#45;&gt;Node5</title>
<path fill="none" stroke="midnightblue" d="M1334.83,-292.121C1373.7,-282.625 1426.27,-269.103 1472,-255 1517.94,-240.831 1815.93,-132.84 1933.96,-89.9649"/>
<polygon fill="midnightblue" stroke="midnightblue" points="1935.28,-93.2112 1943.48,-86.5068 1932.89,-86.632 1935.28,-93.2112"/>
</g>
<!-- Node17&#45;&gt;Node9 -->
<g id="edge59" class="edge"><title>Node17&#45;&gt;Node9</title>
<path fill="none" stroke="midnightblue" d="M1251.92,-291.494C1223.41,-276.482 1176.18,-252.459 1134,-235 975.328,-169.322 779.526,-108.483 697.741,-83.9395"/>
<polygon fill="midnightblue" stroke="midnightblue" points="698.697,-80.5724 688.113,-81.0602 696.691,-87.2789 698.697,-80.5724"/>
</g>
<!-- Node17&#45;&gt;Node10 -->
<g id="edge55" class="edge"><title>Node17&#45;&gt;Node10</title>
<path fill="none" stroke="midnightblue" d="M1334.57,-305.898C1490.17,-306.352 1921.73,-303.111 2054,-255 2147.23,-221.088 2144.65,-166.117 2234,-123 2284.57,-98.5974 2348.8,-84.4304 2386.74,-77.6033"/>
<polygon fill="midnightblue" stroke="midnightblue" points="2387.46,-81.0308 2396.71,-75.8699 2386.26,-74.1342 2387.46,-81.0308"/>
</g>
<!-- Node17&#45;&gt;Node11 -->
<g id="edge58" class="edge"><title>Node17&#45;&gt;Node11</title>
<path fill="none" stroke="midnightblue" d="M1221.38,-302.343C1067.65,-293.629 649.861,-268.969 589,-255 523.281,-239.916 502.246,-239.05 448,-199 422.313,-180.036 418.199,-171.079 403,-143 394.014,-126.399 387.776,-105.687 384.087,-91.0195"/>
<polygon fill="midnightblue" stroke="midnightblue" points="387.461,-90.0787 381.759,-81.1494 380.648,-91.6858 387.461,-90.0787"/>
</g>
<!-- Node18 -->
<g id="node18" class="node"><title>Node18</title>
<g id="a_node18"><a xlink:href="runtime_2module_8h.html" target="_top" xlink:title="Runtime container of the functions generated by TVM, This is used to support dynamically link...">
<polygon fill="white" stroke="black" points="1322,-235.5 1322,-254.5 1446,-254.5 1446,-235.5 1322,-235.5"/>
<text text-anchor="middle" x="1384" y="-242.5" font-family="Helvetica,sans-Serif" font-size="10.00">tvm/runtime/module.h</text>
</a>
</g>
</g>
<!-- Node17&#45;&gt;Node18 -->
<g id="edge25" class="edge"><title>Node17&#45;&gt;Node18</title>
<path fill="none" stroke="midnightblue" d="M1297.28,-291.399C1313.34,-281.684 1336.23,-268.855 1354.55,-259.314"/>
<polygon fill="midnightblue" stroke="midnightblue" points="1356.34,-262.328 1363.65,-254.658 1353.15,-256.097 1356.34,-262.328"/>
</g>
<!-- Node20 -->
<g id="node20" class="node"><title>Node20</title>
<polygon fill="white" stroke="#bfbfbf" points="1254.5,-179.5 1254.5,-198.5 1311.5,-198.5 1311.5,-179.5 1254.5,-179.5"/>
<text text-anchor="middle" x="1283" y="-186.5" font-family="Helvetica,sans-Serif" font-size="10.00">memory</text>
</g>
<!-- Node17&#45;&gt;Node20 -->
<g id="edge57" class="edge"><title>Node17&#45;&gt;Node20</title>
<path fill="none" stroke="midnightblue" d="M1334.96,-292.847C1383.82,-281.418 1447.52,-264.916 1455,-255 1460.35,-247.905 1460.43,-242.036 1455,-235 1450.85,-229.625 1371.13,-210.375 1321.69,-198.866"/>
<polygon fill="midnightblue" stroke="midnightblue" points="1322.17,-195.385 1311.64,-196.535 1320.59,-202.204 1322.17,-195.385"/>
</g>
<!-- Node17&#45;&gt;Node21 -->
<g id="edge54" class="edge"><title>Node17&#45;&gt;Node21</title>
<path fill="none" stroke="midnightblue" d="M1239.74,-291.481C1212.87,-281.534 1176.12,-267.741 1144,-255 1122.52,-246.479 1117.82,-242.623 1096,-235 1053.6,-220.187 1003.59,-206.572 971.364,-198.285"/>
<polygon fill="midnightblue" stroke="midnightblue" points="972.113,-194.865 961.559,-195.787 970.385,-201.648 972.113,-194.865"/>
</g>
<!-- Node23 -->
<g id="node23" class="node"><title>Node23</title>
<g id="a_node23"><a xlink:href="ndarray_8h.html" target="_top" xlink:title="A device&#45;independent managed NDArray abstraction. ">
<polygon fill="white" stroke="black" points="1922.5,-235.5 1922.5,-254.5 2045.5,-254.5 2045.5,-235.5 1922.5,-235.5"/>
<text text-anchor="middle" x="1984" y="-242.5" font-family="Helvetica,sans-Serif" font-size="10.00">tvm/runtime/ndarray.h</text>
</a>
</g>
</g>
<!-- Node17&#45;&gt;Node23 -->
<g id="edge35" class="edge"><title>Node17&#45;&gt;Node23</title>
<path fill="none" stroke="midnightblue" d="M1334.58,-300.731C1462.03,-289.99 1771.41,-263.917 1912.15,-252.055"/>
<polygon fill="midnightblue" stroke="midnightblue" points="1912.73,-255.519 1922.4,-251.192 1912.14,-248.544 1912.73,-255.519"/>
</g>
<!-- Node26 -->
<g id="node26" class="node"><title>Node26</title>
<g id="a_node26"><a xlink:href="data__type_8h.html" target="_top" xlink:title="tvm/runtime/data_type.h">
<polygon fill="white" stroke="black" points="1578,-235.5 1578,-254.5 1714,-254.5 1714,-235.5 1578,-235.5"/>
<text text-anchor="middle" x="1646" y="-242.5" font-family="Helvetica,sans-Serif" font-size="10.00">tvm/runtime/data_type.h</text>
</a>
</g>
</g>
<!-- Node17&#45;&gt;Node26 -->
<g id="edge46" class="edge"><title>Node17&#45;&gt;Node26</title>
<path fill="none" stroke="midnightblue" d="M1334.69,-296.334C1401.95,-285.459 1513.72,-267.388 1583.45,-256.114"/>
<polygon fill="midnightblue" stroke="midnightblue" points="1584.11,-259.553 1593.42,-254.502 1582.99,-252.643 1584.11,-259.553"/>
</g>
<!-- Node27 -->
<g id="node27" class="node"><title>Node27</title>
<polygon fill="white" stroke="#bfbfbf" points="990.5,-235.5 990.5,-254.5 1053.5,-254.5 1053.5,-235.5 990.5,-235.5"/>
<text text-anchor="middle" x="1022" y="-242.5" font-family="Helvetica,sans-Serif" font-size="10.00">functional</text>
</g>
<!-- Node17&#45;&gt;Node27 -->
<g id="edge52" class="edge"><title>Node17&#45;&gt;Node27</title>
<path fill="none" stroke="midnightblue" d="M1221.19,-292.295C1173.46,-281.202 1106.36,-265.608 1063.53,-255.653"/>
<polygon fill="midnightblue" stroke="midnightblue" points="1064.25,-252.227 1053.72,-253.372 1062.67,-259.045 1064.25,-252.227"/>
</g>
<!-- Node28 -->
<g id="node28" class="node"><title>Node28</title>
<polygon fill="white" stroke="#bfbfbf" points="1224.5,-235.5 1224.5,-254.5 1265.5,-254.5 1265.5,-235.5 1224.5,-235.5"/>
<text text-anchor="middle" x="1245" y="-242.5" font-family="Helvetica,sans-Serif" font-size="10.00">tuple</text>
</g>
<!-- Node17&#45;&gt;Node28 -->
<g id="edge53" class="edge"><title>Node17&#45;&gt;Node28</title>
<path fill="none" stroke="midnightblue" d="M1270.18,-291.399C1265.53,-283.021 1259.6,-272.327 1254.66,-263.423"/>
<polygon fill="midnightblue" stroke="midnightblue" points="1257.71,-261.705 1249.8,-254.658 1251.59,-265.1 1257.71,-261.705"/>
</g>
<!-- Node17&#45;&gt;Node29 -->
<g id="edge56" class="edge"><title>Node17&#45;&gt;Node29</title>
<path fill="none" stroke="midnightblue" d="M1334.63,-302.75C1548.98,-292.338 2306.78,-255.531 2471.32,-247.539"/>
<polygon fill="midnightblue" stroke="midnightblue" points="2471.89,-251.015 2481.71,-247.034 2471.55,-244.023 2471.89,-251.015"/>
</g>
<!-- Node18&#45;&gt;Node3 -->
<g id="edge28" class="edge"><title>Node18&#45;&gt;Node3</title>
<path fill="none" stroke="midnightblue" d="M1321.84,-235.798C1278.31,-228.631 1225.58,-216.591 1212,-199 1191.32,-172.209 1232.05,-154.863 1271,-144.886"/>
<polygon fill="midnightblue" stroke="midnightblue" points="1271.93,-148.262 1280.83,-142.507 1270.28,-141.458 1271.93,-148.262"/>
</g>
<!-- Node18&#45;&gt;Node5 -->
<g id="edge27" class="edge"><title>Node18&#45;&gt;Node5</title>
<path fill="none" stroke="midnightblue" d="M1384.71,-235.462C1387.08,-212.784 1396.93,-150.877 1435,-123 1472.35,-95.6557 1767.64,-80.7419 1908.16,-75.131"/>
<polygon fill="midnightblue" stroke="midnightblue" points="1908.56,-78.6182 1918.42,-74.7272 1908.29,-71.6236 1908.56,-78.6182"/>
</g>
<!-- Node18&#45;&gt;Node10 -->
<g id="edge32" class="edge"><title>Node18&#45;&gt;Node10</title>
<path fill="none" stroke="midnightblue" d="M1446.01,-240.802C1585.33,-233.385 1914.75,-214.463 1963,-199 2025.28,-179.04 2027.51,-145.259 2089,-123 2193.37,-85.2226 2326.25,-75.7053 2386.59,-73.3075"/>
<polygon fill="midnightblue" stroke="midnightblue" points="2386.78,-76.803 2396.65,-72.948 2386.53,-69.8074 2386.78,-76.803"/>
</g>
<!-- Node18&#45;&gt;Node15 -->
<g id="edge29" class="edge"><title>Node18&#45;&gt;Node15</title>
<path fill="none" stroke="midnightblue" d="M1321.77,-238.693C1306.18,-237.423 1289.48,-236.113 1274,-235 1035.78,-217.873 753.294,-201.491 621.97,-194.102"/>
<polygon fill="midnightblue" stroke="midnightblue" points="621.817,-190.588 611.637,-193.521 621.425,-197.577 621.817,-190.588"/>
</g>
<!-- Node18&#45;&gt;Node17 -->
<g id="edge34" class="edge"><title>Node18&#45;&gt;Node17</title>
<path fill="none" stroke="midnightblue" d="M1373.51,-254.658C1360.42,-263.009 1337.88,-275.926 1317.91,-286.651"/>
<polygon fill="midnightblue" stroke="midnightblue" points="1316.15,-283.621 1308.96,-291.399 1319.43,-289.804 1316.15,-283.621"/>
</g>
<!-- Node19 -->
<g id="node19" class="node"><title>Node19</title>
<polygon fill="white" stroke="#bfbfbf" points="1444,-123.5 1444,-142.5 1504,-142.5 1504,-123.5 1444,-123.5"/>
<text text-anchor="middle" x="1474" y="-130.5" font-family="Helvetica,sans-Serif" font-size="10.00">dmlc/io.h</text>
</g>
<!-- Node18&#45;&gt;Node19 -->
<g id="edge26" class="edge"><title>Node18&#45;&gt;Node19</title>
<path fill="none" stroke="midnightblue" d="M1321.55,-236.102C1273.46,-227.435 1219.19,-210.375 1245,-179 1256.92,-164.513 1371.43,-147.437 1433.87,-139.099"/>
<polygon fill="midnightblue" stroke="midnightblue" points="1434.33,-142.569 1443.78,-137.79 1433.41,-135.629 1434.33,-142.569"/>
</g>
<!-- Node18&#45;&gt;Node20 -->
<g id="edge30" class="edge"><title>Node18&#45;&gt;Node20</title>
<path fill="none" stroke="midnightblue" d="M1367.77,-235.324C1351.65,-226.703 1326.7,-213.364 1308.04,-203.386"/>
<polygon fill="midnightblue" stroke="midnightblue" points="1309.66,-200.283 1299.19,-198.655 1306.36,-206.456 1309.66,-200.283"/>
</g>
<!-- Node18&#45;&gt;Node21 -->
<g id="edge31" class="edge"><title>Node18&#45;&gt;Node21</title>
<path fill="none" stroke="midnightblue" d="M1321.99,-236.492C1226.63,-224.946 1047.17,-203.218 972.234,-194.145"/>
<polygon fill="midnightblue" stroke="midnightblue" points="972.307,-190.628 961.959,-192.901 971.466,-197.578 972.307,-190.628"/>
</g>
<!-- Node18&#45;&gt;Node22 -->
<g id="edge33" class="edge"><title>Node18&#45;&gt;Node22</title>
<path fill="none" stroke="midnightblue" d="M1321.79,-238.476C1306.19,-237.211 1289.49,-235.958 1274,-235 1073.27,-222.588 449.237,-199.178 256.974,-192.087"/>
<polygon fill="midnightblue" stroke="midnightblue" points="256.928,-188.583 246.806,-191.713 256.67,-195.578 256.928,-188.583"/>
</g>
<!-- Node23&#45;&gt;Node3 -->
<g id="edge37" class="edge"><title>Node23&#45;&gt;Node3</title>
<path fill="none" stroke="midnightblue" d="M1934.38,-235.466C1893.09,-227.768 1833.03,-215.178 1782,-199 1759.97,-192.016 1756.38,-184.779 1734,-179 1702.31,-170.817 1504.86,-150.955 1397.81,-140.571"/>
<polygon fill="midnightblue" stroke="midnightblue" points="1398.04,-137.076 1387.74,-139.596 1397.36,-144.044 1398.04,-137.076"/>
</g>
<!-- Node23&#45;&gt;Node5 -->
<g id="edge36" class="edge"><title>Node23&#45;&gt;Node5</title>
<path fill="none" stroke="midnightblue" d="M1987.09,-235.173C1990.05,-226.198 1994.32,-211.827 1996,-199 2000.39,-165.509 2000.55,-156.469 1996,-123 1994.81,-114.253 1992.51,-104.881 1990.11,-96.6157"/>
<polygon fill="midnightblue" stroke="midnightblue" points="1993.4,-95.3888 1987.1,-86.8675 1986.71,-97.455 1993.4,-95.3888"/>
</g>
<!-- Node23&#45;&gt;Node11 -->
<g id="edge45" class="edge"><title>Node23&#45;&gt;Node11</title>
<path fill="none" stroke="midnightblue" d="M1922.1,-237.382C1655.12,-208.836 606.71,-96.7398 411.412,-75.8586"/>
<polygon fill="midnightblue" stroke="midnightblue" points="411.577,-72.3564 401.262,-74.7733 410.833,-79.3167 411.577,-72.3564"/>
</g>
<!-- Node23&#45;&gt;Node12 -->
<g id="edge43" class="edge"><title>Node23&#45;&gt;Node12</title>
<path fill="none" stroke="midnightblue" d="M1942.64,-235.443C1907.97,-227.692 1857.46,-215.039 1815,-199 1791.7,-190.199 1646.69,-116.354 1586.82,-85.728"/>
<polygon fill="midnightblue" stroke="midnightblue" points="1588.14,-82.4739 1577.64,-81.0336 1584.95,-88.7052 1588.14,-82.4739"/>
</g>
<!-- Node23&#45;&gt;Node21 -->
<g id="edge44" class="edge"><title>Node23&#45;&gt;Node21</title>
<path fill="none" stroke="midnightblue" d="M1922.47,-240.824C1726.61,-230.712 1121.68,-199.482 971.84,-191.747"/>
<polygon fill="midnightblue" stroke="midnightblue" points="972.017,-188.252 961.85,-191.231 971.656,-195.242 972.017,-188.252"/>
</g>
<!-- Node24 -->
<g id="node24" class="node"><title>Node24</title>
<g id="a_node24"><a xlink:href="serializer_8h.html" target="_top" xlink:title="Serializer extension to support TVM data types Include this file to enable serialization of DLDataTyp...">
<polygon fill="white" stroke="black" points="1824,-179.5 1824,-198.5 1954,-198.5 1954,-179.5 1824,-179.5"/>
<text text-anchor="middle" x="1889" y="-186.5" font-family="Helvetica,sans-Serif" font-size="10.00">tvm/runtime/serializer.h</text>
</a>
</g>
</g>
<!-- Node23&#45;&gt;Node24 -->
<g id="edge38" class="edge"><title>Node23&#45;&gt;Node24</title>
<path fill="none" stroke="midnightblue" d="M1963.62,-235.324C1946.98,-226.9 1923.93,-213.971 1907.75,-204.074"/>
<polygon fill="midnightblue" stroke="midnightblue" points="1909.45,-201.006 1899.12,-198.655 1905.72,-206.935 1909.45,-201.006"/>
</g>
<!-- Node24&#45;&gt;Node5 -->
<g id="edge41" class="edge"><title>Node24&#45;&gt;Node5</title>
<path fill="none" stroke="midnightblue" d="M1877.42,-179.345C1861.88,-166.654 1837.69,-142.4 1851,-123 1864.34,-103.568 1886.29,-91.6101 1908.44,-84.2534"/>
<polygon fill="midnightblue" stroke="midnightblue" points="1909.7,-87.5275 1918.26,-81.2803 1907.68,-80.8277 1909.7,-87.5275"/>
</g>
<!-- Node24&#45;&gt;Node19 -->
<g id="edge39" class="edge"><title>Node24&#45;&gt;Node19</title>
<path fill="none" stroke="midnightblue" d="M1823.7,-179.503C1736.78,-168.194 1585.73,-148.539 1514.01,-139.206"/>
<polygon fill="midnightblue" stroke="midnightblue" points="1514.39,-135.726 1504.02,-137.907 1513.49,-142.668 1514.39,-135.726"/>
</g>
<!-- Node24&#45;&gt;Node23 -->
<g id="edge42" class="edge"><title>Node24&#45;&gt;Node23</title>
<path fill="none" stroke="midnightblue" d="M1909.34,-198.655C1925.97,-207.071 1949.01,-219.999 1965.21,-229.901"/>
<polygon fill="midnightblue" stroke="midnightblue" points="1963.52,-232.974 1973.85,-235.324 1967.24,-227.044 1963.52,-232.974"/>
</g>
<!-- Node25 -->
<g id="node25" class="node"><title>Node25</title>
<polygon fill="white" stroke="#bfbfbf" points="1860,-123.5 1860,-142.5 1954,-142.5 1954,-123.5 1860,-123.5"/>
<text text-anchor="middle" x="1907" y="-130.5" font-family="Helvetica,sans-Serif" font-size="10.00">dmlc/serializer.h</text>
</g>
<!-- Node24&#45;&gt;Node25 -->
<g id="edge40" class="edge"><title>Node24&#45;&gt;Node25</title>
<path fill="none" stroke="midnightblue" d="M1891.97,-179.083C1894.38,-171.849 1897.86,-161.409 1900.87,-152.397"/>
<polygon fill="midnightblue" stroke="midnightblue" points="1904.24,-153.345 1904.08,-142.751 1897.6,-151.131 1904.24,-153.345"/>
</g>
<!-- Node26&#45;&gt;Node4 -->
<g id="edge48" class="edge"><title>Node26&#45;&gt;Node4</title>
<path fill="none" stroke="midnightblue" d="M1628.34,-235.453C1593.58,-218.68 1518.55,-182.749 1506,-179 1400.55,-147.499 1366.34,-174.884 1261,-143 1214.24,-128.848 1163.59,-102.222 1135.03,-86.051"/>
<polygon fill="midnightblue" stroke="midnightblue" points="1136.64,-82.9415 1126.23,-81.0006 1133.16,-89.0131 1136.64,-82.9415"/>
</g>
<!-- Node26&#45;&gt;Node5 -->
<g id="edge47" class="edge"><title>Node26&#45;&gt;Node5</title>
<path fill="none" stroke="midnightblue" d="M1714.31,-243.537C1796.86,-241.458 1928.96,-232.764 1963,-199 1989.84,-172.373 1989.39,-125.214 1986.07,-96.6085"/>
<polygon fill="midnightblue" stroke="midnightblue" points="1989.53,-96.0702 1984.71,-86.6352 1982.59,-97.0166 1989.53,-96.0702"/>
</g>
<!-- Node26&#45;&gt;Node9 -->
<g id="edge49" class="edge"><title>Node26&#45;&gt;Node9</title>
<path fill="none" stroke="midnightblue" d="M1604.36,-235.463C1542.42,-222.817 1422.33,-198.502 1320,-179 1183.33,-152.952 1149.33,-145.3 1012,-123 901.21,-105.01 770.295,-87.1727 703.328,-78.2948"/>
<polygon fill="midnightblue" stroke="midnightblue" points="703.514,-74.7891 693.142,-76.9482 702.597,-81.7287 703.514,-74.7891"/>
</g>
<!-- Node26&#45;&gt;Node10 -->
<g id="edge50" class="edge"><title>Node26&#45;&gt;Node10</title>
<path fill="none" stroke="midnightblue" d="M1714.35,-240.989C1810.02,-235.943 1978.42,-223.795 2034,-199 2080.58,-178.219 2073.97,-144.982 2120,-123 2209.71,-80.1606 2329.75,-73.0434 2386.58,-72.2578"/>
<polygon fill="midnightblue" stroke="midnightblue" points="2386.78,-75.7564 2396.75,-72.1769 2386.72,-68.7566 2386.78,-75.7564"/>
</g>
<!-- Node32&#45;&gt;Node3 -->
<g id="edge70" class="edge"><title>Node32&#45;&gt;Node3</title>
<path fill="none" stroke="midnightblue" d="M1439.06,-537.495C1468.71,-531.038 1504.42,-519.911 1532,-501 1652.04,-418.697 1811.23,-350.749 1723,-235 1686.4,-186.98 1649.16,-218.443 1592,-199 1569.73,-191.426 1565.49,-185.893 1543,-179 1493.43,-163.809 1435.86,-152.02 1392.92,-144.326"/>
<polygon fill="midnightblue" stroke="midnightblue" points="1393.34,-140.847 1382.89,-142.555 1392.12,-147.741 1393.34,-140.847"/>
</g>
<!-- Node32&#45;&gt;Node5 -->
<g id="edge69" class="edge"><title>Node32&#45;&gt;Node5</title>
<path fill="none" stroke="midnightblue" d="M1441.65,-545.567C1508.87,-543.332 1620.44,-534.307 1710,-501 1757.06,-483.501 2065.04,-299.117 2089,-255 2121.54,-195.089 2050.63,-126.108 2009.19,-92.7098"/>
<polygon fill="midnightblue" stroke="midnightblue" points="2011.35,-89.959 2001.33,-86.5178 2007.02,-95.4568 2011.35,-89.959"/>
</g>
<!-- Node32&#45;&gt;Node9 -->
<g id="edge103" class="edge"><title>Node32&#45;&gt;Node9</title>
<path fill="none" stroke="midnightblue" d="M1322.36,-538.128C1262.25,-529.921 1166.92,-516.158 1085,-501 900.44,-466.851 821.628,-502.307 681,-378 629.851,-332.788 610.546,-319.778 589,-255 586.195,-246.565 585.907,-243.333 589,-235 596.348,-215.205 609.785,-217.479 620,-199 639.661,-163.433 650.769,-116.644 655.758,-91.1068"/>
<polygon fill="midnightblue" stroke="midnightblue" points="659.2,-91.741 657.58,-81.2709 652.317,-90.4665 659.2,-91.741"/>
</g>
<!-- Node32&#45;&gt;Node10 -->
<g id="edge102" class="edge"><title>Node32&#45;&gt;Node10</title>
<path fill="none" stroke="midnightblue" d="M1441.65,-544.115C1515.99,-540.558 1646.36,-530.33 1754,-501 2004.95,-432.624 2065.64,-394.752 2285,-255 2345.98,-216.149 2373.02,-208.797 2403,-143 2410.56,-126.418 2414.69,-105.969 2416.85,-91.372"/>
<polygon fill="midnightblue" stroke="midnightblue" points="2420.37,-91.4749 2418.19,-81.1063 2413.42,-90.5698 2420.37,-91.4749"/>
</g>
<!-- Node32&#45;&gt;Node15 -->
<g id="edge71" class="edge"><title>Node32&#45;&gt;Node15</title>
<path fill="none" stroke="midnightblue" d="M1322.44,-543.627C1233.52,-539.322 1061.09,-528.027 917,-501 718.69,-463.802 643.688,-495.97 480,-378 445.769,-353.33 425.383,-329.784 442,-291 458.745,-251.916 498.865,-220.785 524.663,-203.902"/>
<polygon fill="midnightblue" stroke="midnightblue" points="526.557,-206.845 533.129,-198.534 522.809,-200.933 526.557,-206.845"/>
</g>
<!-- Node32&#45;&gt;Node17 -->
<g id="edge72" class="edge"><title>Node32&#45;&gt;Node17</title>
<path fill="none" stroke="midnightblue" d="M1383.24,-537.387C1385.99,-515.916 1391.31,-458.541 1377,-414 1365.26,-377.451 1332.53,-346.744 1307.9,-327.835"/>
<polygon fill="midnightblue" stroke="midnightblue" points="1309.68,-324.802 1299.57,-321.649 1305.51,-330.421 1309.68,-324.802"/>
</g>
<!-- Node32&#45;&gt;Node21 -->
<g id="edge101" class="edge"><title>Node32&#45;&gt;Node21</title>
<path fill="none" stroke="midnightblue" d="M1378.77,-537.47C1372.96,-522.803 1359.81,-492.242 1343,-470 1272.65,-376.932 1243.45,-362.16 1151,-291 1141.74,-283.874 1072.5,-240.133 1062,-235 1032.4,-220.521 996.894,-208.101 971.478,-200.001"/>
<polygon fill="midnightblue" stroke="midnightblue" points="972.516,-196.658 961.927,-197.008 970.424,-203.338 972.516,-196.658"/>
</g>
<!-- Node32&#45;&gt;Node23 -->
<g id="edge73" class="edge"><title>Node32&#45;&gt;Node23</title>
<path fill="none" stroke="midnightblue" d="M1441.63,-545.656C1501.72,-543.289 1595.9,-533.96 1670,-501 1738.81,-470.391 1912.74,-312.066 1967.34,-261.525"/>
<polygon fill="midnightblue" stroke="midnightblue" points="1969.82,-263.994 1974.77,-254.626 1965.06,-258.863 1969.82,-263.994"/>
</g>
<!-- Node32&#45;&gt;Node26 -->
<g id="edge74" class="edge"><title>Node32&#45;&gt;Node26</title>
<path fill="none" stroke="midnightblue" d="M1417.01,-537.498C1465.98,-523.272 1549,-489.625 1549,-425 1549,-425 1549,-425 1549,-367 1549,-319.869 1594.36,-280.616 1623.04,-260.506"/>
<polygon fill="midnightblue" stroke="midnightblue" points="1625.36,-263.161 1631.69,-254.663 1621.44,-257.361 1625.36,-263.161"/>
</g>
<!-- Node32&#45;&gt;Node33 -->
<g id="edge75" class="edge"><title>Node32&#45;&gt;Node33</title>
<path fill="none" stroke="midnightblue" d="M1367.24,-537.475C1352.9,-529.191 1330.63,-516.325 1312.05,-505.591"/>
<polygon fill="midnightblue" stroke="midnightblue" points="1313.68,-502.494 1303.28,-500.523 1310.18,-508.556 1313.68,-502.494"/>
</g>
<!-- Node32&#45;&gt;Node36 -->
<g id="edge95" class="edge"><title>Node32&#45;&gt;Node36</title>
<path fill="none" stroke="midnightblue" d="M1348.76,-537.475C1313.89,-528.532 1258.2,-514.249 1214.62,-503.074"/>
<polygon fill="midnightblue" stroke="midnightblue" points="1215.23,-499.617 1204.68,-500.523 1213.49,-506.398 1215.23,-499.617"/>
</g>
<!-- Node33&#45;&gt;Node10 -->
<g id="edge94" class="edge"><title>Node33&#45;&gt;Node10</title>
<path fill="none" stroke="midnightblue" d="M1334.52,-482.875C1428.16,-479.264 1623,-467.991 1784,-434 1862.25,-417.48 2053.82,-356.421 2126,-322 2148.92,-311.069 2152.17,-303.978 2174,-291 2245.84,-248.29 2277.43,-256.589 2338,-199 2372.2,-166.479 2398.53,-116.719 2411.02,-90.3462"/>
<polygon fill="midnightblue" stroke="midnightblue" points="2414.24,-91.7218 2415.25,-81.1752 2407.88,-88.7901 2414.24,-91.7218"/>
</g>
<!-- Node33&#45;&gt;Node26 -->
<g id="edge76" class="edge"><title>Node33&#45;&gt;Node26</title>
<path fill="none" stroke="midnightblue" d="M1294.44,-470.484C1332.79,-436.225 1436.4,-346.959 1535,-291 1558.84,-277.471 1587.56,-265.944 1609.81,-257.944"/>
<polygon fill="midnightblue" stroke="midnightblue" points="1611.26,-261.142 1619.54,-254.522 1608.94,-254.539 1611.26,-261.142"/>
</g>
<!-- Node34 -->
<g id="node34" class="node"><title>Node34</title>
<g id="a_node34"><a xlink:href="functor_8h.html" target="_top" xlink:title="Defines the Functor data structures. ">
<polygon fill="white" stroke="black" points="598.5,-235.5 598.5,-254.5 705.5,-254.5 705.5,-235.5 598.5,-235.5"/>
<text text-anchor="middle" x="652" y="-242.5" font-family="Helvetica,sans-Serif" font-size="10.00">tvm/node/functor.h</text>
</a>
</g>
</g>
<!-- Node33&#45;&gt;Node34 -->
<g id="edge77" class="edge"><title>Node33&#45;&gt;Node34</title>
<path fill="none" stroke="midnightblue" d="M1262.9,-470.311C1220.26,-433.607 1099.42,-335.317 980,-291 892.225,-258.425 783.357,-249.086 715.774,-246.601"/>
<polygon fill="midnightblue" stroke="midnightblue" points="715.81,-243.1 705.701,-246.27 715.581,-250.096 715.81,-243.1"/>
</g>
<!-- Node33&#45;&gt;Node35 -->
<g id="edge83" class="edge"><title>Node33&#45;&gt;Node35</title>
<path fill="none" stroke="midnightblue" d="M1223.4,-471.724C1220.23,-471.111 1217.08,-470.531 1214,-470 1111.42,-452.295 991.493,-438.927 917.64,-431.529"/>
<polygon fill="midnightblue" stroke="midnightblue" points="917.829,-428.03 907.532,-430.525 917.137,-434.996 917.829,-428.03"/>
</g>
<!-- Node34&#45;&gt;Node3 -->
<g id="edge79" class="edge"><title>Node34&#45;&gt;Node3</title>
<path fill="none" stroke="midnightblue" d="M684.62,-235.485C750.478,-218.311 894.024,-180.981 905,-179 1029.13,-156.591 1175.86,-144.077 1260.11,-138.213"/>
<polygon fill="midnightblue" stroke="midnightblue" points="1260.58,-141.689 1270.32,-137.514 1260.1,-134.706 1260.58,-141.689"/>
</g>
<!-- Node34&#45;&gt;Node4 -->
<g id="edge78" class="edge"><title>Node34&#45;&gt;Node4</title>
<path fill="none" stroke="midnightblue" d="M674.811,-235.495C750.221,-207.381 991.669,-117.363 1079.59,-84.584"/>
<polygon fill="midnightblue" stroke="midnightblue" points="1080.9,-87.829 1089.05,-81.056 1078.46,-81.27 1080.9,-87.829"/>
</g>
<!-- Node34&#45;&gt;Node9 -->
<g id="edge81" class="edge"><title>Node34&#45;&gt;Node9</title>
<path fill="none" stroke="midnightblue" d="M652.396,-235.374C652.809,-226.316 653.469,-211.658 654,-199 655.608,-160.706 657.345,-115.885 658.29,-91.1983"/>
<polygon fill="midnightblue" stroke="midnightblue" points="661.791,-91.2161 658.675,-81.09 654.797,-90.9494 661.791,-91.2161"/>
</g>
<!-- Node34&#45;&gt;Node11 -->
<g id="edge82" class="edge"><title>Node34&#45;&gt;Node11</title>
<path fill="none" stroke="midnightblue" d="M598.262,-239.763C561.058,-234.687 511.807,-223.528 475,-199 433.049,-171.044 402.417,-118.145 388.44,-90.4431"/>
<polygon fill="midnightblue" stroke="midnightblue" points="391.442,-88.6146 383.909,-81.1642 385.152,-91.6859 391.442,-88.6146"/>
</g>
<!-- Node34&#45;&gt;Node21 -->
<g id="edge80" class="edge"><title>Node34&#45;&gt;Node21</title>
<path fill="none" stroke="midnightblue" d="M703.451,-235.483C753.717,-226.97 832.324,-213.144 900,-199 901.452,-198.697 902.933,-198.379 904.428,-198.053"/>
<polygon fill="midnightblue" stroke="midnightblue" points="905.346,-201.433 914.327,-195.812 903.801,-194.606 905.346,-201.433"/>
</g>
<!-- Node35&#45;&gt;Node3 -->
<g id="edge84" class="edge"><title>Node35&#45;&gt;Node3</title>
<path fill="none" stroke="midnightblue" d="M907.542,-420.242C938.315,-415.479 973.602,-404.138 994,-378 1017.8,-347.499 1005.03,-328.847 997,-291 991.627,-265.679 965.455,-255.698 981,-235 1014.5,-190.394 1168.6,-159.118 1260.13,-144.111"/>
<polygon fill="midnightblue" stroke="midnightblue" points="1260.84,-147.542 1270.15,-142.492 1259.72,-140.632 1260.84,-147.542"/>
</g>
<!-- Node35&#45;&gt;Node9 -->
<g id="edge88" class="edge"><title>Node35&#45;&gt;Node9</title>
<path fill="none" stroke="midnightblue" d="M788.496,-417.435C747.277,-411.749 692.105,-400.408 648,-378 549.361,-327.886 514.241,-302.446 475,-199 450.059,-133.25 552.853,-97.1637 614.88,-81.7155"/>
<polygon fill="midnightblue" stroke="midnightblue" points="615.924,-85.0642 624.83,-79.3258 614.29,-78.2577 615.924,-85.0642"/>
</g>
<!-- Node35&#45;&gt;Node10 -->
<g id="edge93" class="edge"><title>Node35&#45;&gt;Node10</title>
<path fill="none" stroke="midnightblue" d="M907.778,-419.587C1062.43,-410.177 1488.05,-380.592 1838,-322 1854.1,-319.305 2109.12,-261.709 2124,-255 2216.41,-213.328 2222.31,-173.853 2310,-123 2335.46,-108.235 2365.97,-94.4032 2388.23,-84.962"/>
<polygon fill="midnightblue" stroke="midnightblue" points="2389.65,-88.1605 2397.53,-81.0703 2386.95,-81.7035 2389.65,-88.1605"/>
</g>
<!-- Node35&#45;&gt;Node11 -->
<g id="edge92" class="edge"><title>Node35&#45;&gt;Node11</title>
<path fill="none" stroke="midnightblue" d="M788.496,-418.425C738.582,-413.067 666.171,-401.695 607,-378 564.657,-361.044 556.129,-351.092 521,-322 462.655,-273.682 443.35,-263.115 403,-199 388.842,-176.503 387.113,-169.085 382,-143 378.618,-125.744 378.401,-105.663 378.862,-91.3561"/>
<polygon fill="midnightblue" stroke="midnightblue" points="382.362,-91.4366 379.33,-81.2848 375.37,-91.1115 382.362,-91.4366"/>
</g>
<!-- Node35&#45;&gt;Node14 -->
<g id="edge87" class="edge"><title>Node35&#45;&gt;Node14</title>
<path fill="none" stroke="midnightblue" d="M859.407,-414.324C870.109,-406.185 886.341,-393.839 899.163,-384.087"/>
<polygon fill="midnightblue" stroke="midnightblue" points="901.544,-386.673 907.385,-377.834 897.307,-381.102 901.544,-386.673"/>
</g>
<!-- Node35&#45;&gt;Node15 -->
<g id="edge85" class="edge"><title>Node35&#45;&gt;Node15</title>
<path fill="none" stroke="midnightblue" d="M788.421,-415.199C755.042,-408.871 713.687,-397.642 681,-378 616.853,-339.452 602.598,-320.279 566,-255 557.947,-240.637 553.31,-222.44 550.766,-208.955"/>
<polygon fill="midnightblue" stroke="midnightblue" points="554.19,-208.211 549.092,-198.924 547.286,-209.364 554.19,-208.211"/>
</g>
<!-- Node35&#45;&gt;Node17 -->
<g id="edge86" class="edge"><title>Node35&#45;&gt;Node17</title>
<path fill="none" stroke="midnightblue" d="M891.636,-414.497C933.119,-406.15 997.144,-392.578 1052,-378 1112.69,-361.871 1181.44,-339.882 1227.01,-324.773"/>
<polygon fill="midnightblue" stroke="midnightblue" points="1228.27,-328.042 1236.66,-321.563 1226.06,-321.4 1228.27,-328.042"/>
</g>
<!-- Node35&#45;&gt;Node21 -->
<g id="edge89" class="edge"><title>Node35&#45;&gt;Node21</title>
<path fill="none" stroke="midnightblue" d="M813.356,-414.497C749.059,-397.014 621.575,-353.368 665,-291 693.232,-250.452 837.611,-212.921 904.234,-197.455"/>
<polygon fill="midnightblue" stroke="midnightblue" points="905.264,-200.81 914.229,-195.165 903.7,-193.987 905.264,-200.81"/>
</g>
<!-- Node35&#45;&gt;Node22 -->
<g id="edge91" class="edge"><title>Node35&#45;&gt;Node22</title>
<path fill="none" stroke="midnightblue" d="M788.249,-423.072C687.172,-420.751 478.744,-405.251 328,-322 275.78,-293.161 231.592,-236.087 211.536,-207.367"/>
<polygon fill="midnightblue" stroke="midnightblue" points="214.212,-205.08 205.682,-198.796 208.432,-209.028 214.212,-205.08"/>
</g>
<!-- Node35&#45;&gt;Node31 -->
<g id="edge90" class="edge"><title>Node35&#45;&gt;Node31</title>
<path fill="none" stroke="midnightblue" d="M837.853,-414.319C815.082,-394.837 759.665,-347.425 730.935,-322.845"/>
<polygon fill="midnightblue" stroke="midnightblue" points="733.139,-320.124 723.265,-316.282 728.588,-325.442 733.139,-320.124"/>
</g>
<!-- Node36&#45;&gt;Node10 -->
<g id="edge99" class="edge"><title>Node36&#45;&gt;Node10</title>
<path fill="none" stroke="midnightblue" d="M1205.84,-471.793C1208.6,-471.183 1211.33,-470.582 1214,-470 1634.01,-378.466 1768.54,-439.076 2157,-255 2257.55,-207.353 2361.49,-122.228 2401.69,-87.6878"/>
<polygon fill="midnightblue" stroke="midnightblue" points="2404.01,-90.3094 2409.28,-81.1168 2399.43,-85.0182 2404.01,-90.3094"/>
</g>
<!-- Node36&#45;&gt;Node26 -->
<g id="edge96" class="edge"><title>Node36&#45;&gt;Node26</title>
<path fill="none" stroke="midnightblue" d="M1170,-470.317C1220.2,-435.29 1356.53,-343.716 1482,-291 1518.02,-275.868 1560.61,-264.357 1593.36,-256.767"/>
<polygon fill="midnightblue" stroke="midnightblue" points="1594.22,-260.162 1603.2,-254.537 1592.67,-253.336 1594.22,-260.162"/>
</g>
<!-- Node36&#45;&gt;Node27 -->
<g id="edge100" class="edge"><title>Node36&#45;&gt;Node27</title>
<path fill="none" stroke="midnightblue" d="M1152.8,-470.38C1158.78,-435.887 1169.16,-346.135 1128,-291 1119.4,-279.478 1087,-266.698 1060.26,-257.71"/>
<polygon fill="midnightblue" stroke="midnightblue" points="1061.31,-254.372 1050.72,-254.58 1059.13,-261.023 1061.31,-254.372"/>
</g>
<!-- Node36&#45;&gt;Node34 -->
<g id="edge97" class="edge"><title>Node36&#45;&gt;Node34</title>
<path fill="none" stroke="midnightblue" d="M1103.86,-470.444C985.601,-434.235 679.896,-339.385 665,-322 651.554,-306.308 649.597,-281.905 650.163,-265.002"/>
<polygon fill="midnightblue" stroke="midnightblue" points="653.677,-264.909 650.847,-254.699 646.692,-264.445 653.677,-264.909"/>
</g>
<!-- Node36&#45;&gt;Node35 -->
<g id="edge98" class="edge"><title>Node36&#45;&gt;Node35</title>
<path fill="none" stroke="midnightblue" d="M1094.26,-473.517C1039.18,-462.666 955.52,-446.183 901.304,-435.502"/>
<polygon fill="midnightblue" stroke="midnightblue" points="901.692,-432.011 891.204,-433.512 900.339,-438.879 901.692,-432.011"/>
</g>
<!-- Node37&#45;&gt;Node34 -->
<g id="edge105" class="edge"><title>Node37&#45;&gt;Node34</title>
<path fill="none" stroke="midnightblue" d="M404.357,-537.345C439.548,-495.944 590.94,-317.836 637.992,-262.48"/>
<polygon fill="midnightblue" stroke="midnightblue" points="640.804,-264.576 644.614,-254.69 635.47,-260.043 640.804,-264.576"/>
</g>
<!-- Node38 -->
<g id="node38" class="node"><title>Node38</title>
<polygon fill="white" stroke="#bfbfbf" points="294.5,-476 294.5,-495 353.5,-495 353.5,-476 294.5,-476"/>
<text text-anchor="middle" x="324" y="-483" font-family="Helvetica,sans-Serif" font-size="10.00">iostream</text>
</g>
<!-- Node37&#45;&gt;Node38 -->
<g id="edge106" class="edge"><title>Node37&#45;&gt;Node38</title>
<path fill="none" stroke="midnightblue" d="M386.541,-537.475C375.049,-528.108 356.37,-512.884 342.413,-501.508"/>
<polygon fill="midnightblue" stroke="midnightblue" points="344.402,-498.614 334.44,-495.009 339.98,-504.04 344.402,-498.614"/>
</g>
<!-- Node39&#45;&gt;Node3 -->
<g id="edge116" class="edge"><title>Node39&#45;&gt;Node3</title>
<path fill="none" stroke="midnightblue" d="M2093.97,-649.433C2075.05,-632.268 2036,-591.556 2036,-548 2036,-548 2036,-548 2036,-367 2036,-322.052 1709.88,-215.329 1668,-199 1646.47,-190.604 1642.25,-185.256 1620,-179 1545.45,-158.037 1457.23,-146.127 1397.63,-139.895"/>
<polygon fill="midnightblue" stroke="midnightblue" points="1397.88,-136.403 1387.58,-138.87 1397.17,-143.367 1397.88,-136.403"/>
</g>
<!-- Node39&#45;&gt;Node10 -->
<g id="edge118" class="edge"><title>Node39&#45;&gt;Node10</title>
<path fill="none" stroke="midnightblue" d="M2110.91,-649.404C2146.66,-604.627 2312.92,-392.738 2415,-199 2431.39,-167.89 2442.99,-157.65 2437,-123 2435.09,-111.938 2430.98,-100.09 2427.17,-90.6524"/>
<polygon fill="midnightblue" stroke="midnightblue" points="2430.28,-89.0133 2423.13,-81.191 2423.84,-91.7622 2430.28,-89.0133"/>
</g>
<!-- Node39&#45;&gt;Node13 -->
<g id="edge117" class="edge"><title>Node39&#45;&gt;Node13</title>
<path fill="none" stroke="midnightblue" d="M2063.82,-655.85C1907.61,-647.49 1340.16,-617.121 1154.35,-607.176"/>
<polygon fill="midnightblue" stroke="midnightblue" points="1154.4,-603.674 1144.23,-606.635 1154.03,-610.664 1154.4,-603.674"/>
</g>
<!-- Node40&#45;&gt;Node3 -->
<g id="edge120" class="edge"><title>Node40&#45;&gt;Node3</title>
<path fill="none" stroke="midnightblue" d="M1971.77,-705.394C2000.9,-683.004 2074,-619.67 2074,-548 2074,-548 2074,-548 2074,-367 2074,-307.211 2016.12,-318.433 1963,-291 1909.1,-263.167 1762.72,-220.513 1706,-199 1684.39,-190.804 1680.3,-185.061 1658,-179 1610.38,-166.06 1479.35,-150.305 1397.74,-141.285"/>
<polygon fill="midnightblue" stroke="midnightblue" points="1397.87,-137.779 1387.55,-140.165 1397.11,-144.737 1397.87,-137.779"/>
</g>
<!-- Node40&#45;&gt;Node10 -->
<g id="edge125" class="edge"><title>Node40&#45;&gt;Node10</title>
<path fill="none" stroke="midnightblue" d="M1998.7,-707.649C2047.16,-699.243 2126.96,-683.758 2153,-669 2284.26,-594.617 2389,-575.87 2389,-425 2389,-425 2389,-425 2389,-367 2389,-263.582 2437.87,-245.448 2452,-143 2453.21,-134.195 2454.54,-131.519 2452,-123 2448.29,-110.525 2440.4,-98.2604 2433.27,-88.9422"/>
<polygon fill="midnightblue" stroke="midnightblue" points="2435.84,-86.5596 2426.82,-81.0003 2430.41,-90.9706 2435.84,-86.5596"/>
</g>
<!-- Node40&#45;&gt;Node13 -->
<g id="edge122" class="edge"><title>Node40&#45;&gt;Node13</title>
<path fill="none" stroke="midnightblue" d="M1921.43,-709.096C1784.31,-691.658 1319.74,-632.58 1154.19,-611.528"/>
<polygon fill="midnightblue" stroke="midnightblue" points="1154.56,-608.046 1144.19,-610.256 1153.67,-614.99 1154.56,-608.046"/>
</g>
<!-- Node40&#45;&gt;Node26 -->
<g id="edge121" class="edge"><title>Node40&#45;&gt;Node26</title>
<path fill="none" stroke="midnightblue" d="M1960,-705.442C1960,-686.936 1960,-641.812 1960,-604 1960,-604 1960,-604 1960,-423 1960,-359.773 1764.36,-286.08 1681.93,-257.837"/>
<polygon fill="midnightblue" stroke="midnightblue" points="1682.83,-254.445 1672.23,-254.545 1680.58,-261.073 1682.83,-254.445"/>
</g>
<!-- Node40&#45;&gt;Node35 -->
<g id="edge123" class="edge"><title>Node40&#45;&gt;Node35</title>
<path fill="none" stroke="midnightblue" d="M1921.28,-712.933C1767.34,-708.209 1199.12,-686.069 1037,-613 952.593,-574.956 884.692,-481.57 859.043,-442.565"/>
<polygon fill="midnightblue" stroke="midnightblue" points="861.808,-440.395 853.448,-433.887 855.925,-444.188 861.808,-440.395"/>
</g>
<!-- Node40&#45;&gt;Node39 -->
<g id="edge124" class="edge"><title>Node40&#45;&gt;Node39</title>
<path fill="none" stroke="midnightblue" d="M1982.82,-705.444C2006.83,-696.438 2044.83,-682.189 2071.87,-672.049"/>
<polygon fill="midnightblue" stroke="midnightblue" points="2073.16,-675.305 2081.29,-668.516 2070.7,-668.751 2073.16,-675.305"/>
</g>
<!-- Node42&#45;&gt;Node2 -->
<g id="edge136" class="edge"><title>Node42&#45;&gt;Node2</title>
<path fill="none" stroke="midnightblue" d="M934.057,-933.711C968.647,-928.486 1018.78,-917.149 1056,-893 1097.76,-865.905 1130.84,-815.872 1146.36,-789.43"/>
<polygon fill="midnightblue" stroke="midnightblue" points="1149.52,-790.967 1151.44,-780.547 1143.44,-787.496 1149.52,-790.967"/>
</g>
<!-- Node42&#45;&gt;Node5 -->
<g id="edge134" class="edge"><title>Node42&#45;&gt;Node5</title>
<path fill="none" stroke="midnightblue" d="M934.182,-929.613C935.806,-929.385 937.417,-929.179 939,-929 1507.59,-864.658 1657.17,-955.272 2226,-893 2356.92,-878.667 2429.4,-935.349 2517,-837 2655.73,-681.246 2552,-577.581 2552,-369 2552,-369 2552,-369 2552,-244 2552,-141.592 2210.35,-94.9575 2056.06,-79.1191"/>
<polygon fill="midnightblue" stroke="midnightblue" points="2056.03,-75.5982 2045.73,-78.0758 2055.32,-82.5628 2056.03,-75.5982"/>
</g>
<!-- Node42&#45;&gt;Node10 -->
<g id="edge147" class="edge"><title>Node42&#45;&gt;Node10</title>
<path fill="none" stroke="midnightblue" d="M934.363,-937.999C1174.9,-937.849 2414.41,-935.03 2578,-893 2639.03,-877.319 2704,-891.012 2704,-828 2704,-828 2704,-828 2704,-188 2704,-152.35 2686.88,-142.445 2657,-123 2592.82,-81.2326 2500.18,-73.2959 2451.58,-72.2208"/>
<polygon fill="midnightblue" stroke="midnightblue" points="2451.39,-68.718 2441.34,-72.0829 2451.29,-75.7173 2451.39,-68.718"/>
</g>
<!-- Node42&#45;&gt;Node11 -->
<g id="edge152" class="edge"><title>Node42&#45;&gt;Node11</title>
<path fill="none" stroke="midnightblue" d="M853.919,-937.14C721.668,-934.037 304.577,-922.024 252,-893 157.584,-840.88 152,-556.628 152,-548 152,-548 152,-548 152,-484.5 152,-358.803 0,-371.697 0,-246 0,-246 0,-246 0,-188 0,-143.215 36.3501,-141.797 77,-123 169.086,-80.4192 291.636,-73.2362 348.52,-72.3557"/>
<polygon fill="midnightblue" stroke="midnightblue" points="348.709,-75.8541 358.674,-72.2562 348.64,-68.8544 348.709,-75.8541"/>
</g>
<!-- Node42&#45;&gt;Node13 -->
<g id="edge131" class="edge"><title>Node42&#45;&gt;Node13</title>
<path fill="none" stroke="midnightblue" d="M887.604,-929.391C874.964,-911.498 848,-868.572 848,-828 848,-828 848,-828 848,-770 848,-677.601 968.542,-633.287 1041.21,-614.969"/>
<polygon fill="midnightblue" stroke="midnightblue" points="1042.24,-618.32 1051.13,-612.554 1040.58,-611.519 1042.24,-618.32"/>
</g>
<!-- Node42&#45;&gt;Node22 -->
<g id="edge149" class="edge"><title>Node42&#45;&gt;Node22</title>
<path fill="none" stroke="midnightblue" d="M853.931,-937.206C731.309,-934.454 366.848,-923.742 324,-893 268.657,-853.294 190,-955.938 190,-548 190,-548 190,-548 190,-484.5 190,-380.274 196.334,-255.418 198.92,-208.781"/>
<polygon fill="midnightblue" stroke="midnightblue" points="202.421,-208.851 199.49,-198.669 195.432,-208.456 202.421,-208.851"/>
</g>
<!-- Node42&#45;&gt;Node26 -->
<g id="edge135" class="edge"><title>Node42&#45;&gt;Node26</title>
<path fill="none" stroke="midnightblue" d="M934.191,-929.687C935.813,-929.439 937.42,-929.208 939,-929 1025.32,-917.631 2503,-915.07 2503,-828 2503,-828 2503,-828 2503,-770 2503,-406.888 1936.08,-287.806 1724.43,-256.001"/>
<polygon fill="midnightblue" stroke="midnightblue" points="1724.73,-252.507 1714.32,-254.508 1723.7,-259.432 1724.73,-252.507"/>
</g>
<!-- Node42&#45;&gt;Node29 -->
<g id="edge151" class="edge"><title>Node42&#45;&gt;Node29</title>
<path fill="none" stroke="midnightblue" d="M934.289,-937.678C1185.37,-935.578 2525.83,-922.975 2555,-893 2663.15,-781.877 2503,-703.065 2503,-548 2503,-548 2503,-548 2503,-367 2503,-330.714 2503,-288.307 2503,-264.559"/>
<polygon fill="midnightblue" stroke="midnightblue" points="2506.5,-264.509 2503,-254.509 2499.5,-264.509 2506.5,-264.509"/>
</g>
<!-- Node42&#45;&gt;Node34 -->
<g id="edge133" class="edge"><title>Node42&#45;&gt;Node34</title>
<path fill="none" stroke="midnightblue" d="M853.667,-937.941C732.497,-936.689 380,-924.732 380,-828 380,-828 380,-828 380,-714 380,-623.971 295.64,-635.745 252,-557 235.956,-528.049 228,-519.599 228,-486.5 228,-486.5 228,-486.5 228,-423 228,-343.634 484.193,-280.705 598.29,-256.615"/>
<polygon fill="midnightblue" stroke="midnightblue" points="599.148,-260.011 608.222,-254.541 597.717,-253.159 599.148,-260.011"/>
</g>
<!-- Node42&#45;&gt;Node35 -->
<g id="edge132" class="edge"><title>Node42&#45;&gt;Node35</title>
<path fill="none" stroke="midnightblue" d="M853.786,-935.619C751.599,-928.475 490,-902.873 490,-828 490,-828 490,-828 490,-546 490,-485.761 674.21,-449.683 778.354,-434.099"/>
<polygon fill="midnightblue" stroke="midnightblue" points="779.097,-437.528 788.482,-432.611 778.079,-430.602 779.097,-437.528"/>
</g>
<!-- Node42&#45;&gt;Node38 -->
<g id="edge150" class="edge"><title>Node42&#45;&gt;Node38</title>
<path fill="none" stroke="midnightblue" d="M853.985,-938.209C746.209,-938.208 452.174,-934.31 366,-893 329.999,-875.742 304,-867.923 304,-828 304,-828 304,-828 304,-602 304,-567.356 312.844,-527.712 318.77,-505.038"/>
<polygon fill="midnightblue" stroke="midnightblue" points="322.224,-505.673 321.467,-495.105 315.469,-503.839 322.224,-505.673"/>
</g>
<!-- Node42&#45;&gt;Node41 -->
<g id="edge148" class="edge"><title>Node42&#45;&gt;Node41</title>
<path fill="none" stroke="midnightblue" d="M897.967,-929.318C907.249,-909.196 931.386,-857.968 955,-817 972.518,-786.607 995.363,-752.754 1009.07,-732.976"/>
<polygon fill="midnightblue" stroke="midnightblue" points="1011.98,-734.912 1014.83,-724.708 1006.24,-730.908 1011.98,-734.912"/>
</g>
<!-- Node43 -->
<g id="node43" class="node"><title>Node43</title>
<g id="a_node43"><a xlink:href="var_8h.html" target="_top" xlink:title="Variables in the TIR. ">
<polygon fill="white" stroke="black" points="964,-817.5 964,-836.5 1038,-836.5 1038,-817.5 964,-817.5"/>
<text text-anchor="middle" x="1001" y="-824.5" font-family="Helvetica,sans-Serif" font-size="10.00">tvm/tir/var.h</text>
</a>
</g>
</g>
<!-- Node42&#45;&gt;Node43 -->
<g id="edge137" class="edge"><title>Node42&#45;&gt;Node43</title>
<path fill="none" stroke="midnightblue" d="M901.07,-929.299C911.551,-916.551 932.02,-892.226 951,-873 961.153,-862.715 973.174,-851.858 982.884,-843.386"/>
<polygon fill="midnightblue" stroke="midnightblue" points="985.432,-845.81 990.718,-836.628 980.86,-840.51 985.432,-845.81"/>
</g>
<!-- Node44 -->
<g id="node44" class="node"><title>Node44</title>
<g id="a_node44"><a xlink:href="buffer_8h.html" target="_top" xlink:title="Symbolic n&#45;dimensional array, to represent a memory buffer. ">
<polygon fill="white" stroke="black" points="960.5,-873.5 960.5,-892.5 1047.5,-892.5 1047.5,-873.5 960.5,-873.5"/>
<text text-anchor="middle" x="1004" y="-880.5" font-family="Helvetica,sans-Serif" font-size="10.00">tvm/tir/buffer.h</text>
</a>
</g>
</g>
<!-- Node42&#45;&gt;Node44 -->
<g id="edge142" class="edge"><title>Node42&#45;&gt;Node44</title>
<path fill="none" stroke="midnightblue" d="M911.673,-929.324C929.394,-920.625 956.903,-907.12 977.288,-897.113"/>
<polygon fill="midnightblue" stroke="midnightblue" points="978.936,-900.203 986.37,-892.655 975.851,-893.919 978.936,-900.203"/>
</g>
<!-- Node43&#45;&gt;Node2 -->
<g id="edge140" class="edge"><title>Node43&#45;&gt;Node2</title>
<path fill="none" stroke="midnightblue" d="M1025.56,-817.444C1051.52,-808.399 1092.67,-794.064 1121.8,-783.916"/>
<polygon fill="midnightblue" stroke="midnightblue" points="1123.26,-787.112 1131.55,-780.516 1120.96,-780.501 1123.26,-787.112"/>
</g>
<!-- Node43&#45;&gt;Node10 -->
<g id="edge141" class="edge"><title>Node43&#45;&gt;Node10</title>
<path fill="none" stroke="midnightblue" d="M1038.16,-824.913C1248.67,-818.547 2286.61,-784.328 2415,-725 2498.69,-686.329 2628,-461.19 2628,-369 2628,-369 2628,-369 2628,-188 2628,-108.383 2510.38,-83.2204 2451.61,-75.6169"/>
<polygon fill="midnightblue" stroke="midnightblue" points="2451.71,-72.1038 2441.37,-74.3923 2450.88,-79.0543 2451.71,-72.1038"/>
</g>
<!-- Node43&#45;&gt;Node13 -->
<g id="edge138" class="edge"><title>Node43&#45;&gt;Node13</title>
<path fill="none" stroke="midnightblue" d="M984.666,-817.387C972.045,-809.72 955.503,-797.213 948,-781 933.814,-750.346 932.27,-734.892 948,-705 971.592,-660.166 1025.08,-631.384 1060.6,-616.45"/>
<polygon fill="midnightblue" stroke="midnightblue" points="1062.15,-619.599 1070.11,-612.603 1059.53,-613.11 1062.15,-619.599"/>
</g>
<!-- Node43&#45;&gt;Node26 -->
<g id="edge139" class="edge"><title>Node43&#45;&gt;Node26</title>
<path fill="none" stroke="midnightblue" d="M995.61,-817.334C983.036,-795.895 954.749,-739.605 981,-705 1082.67,-570.975 1608.33,-635.025 1710,-501 1766.66,-426.31 1691.21,-307.326 1659.16,-263.2"/>
<polygon fill="midnightblue" stroke="midnightblue" points="1661.81,-260.905 1653.04,-254.964 1656.19,-265.079 1661.81,-260.905"/>
</g>
<!-- Node44&#45;&gt;Node2 -->
<g id="edge144" class="edge"><title>Node44&#45;&gt;Node2</title>
<path fill="none" stroke="midnightblue" d="M1015.93,-873.368C1041.9,-854.573 1103.81,-809.768 1135.92,-786.533"/>
<polygon fill="midnightblue" stroke="midnightblue" points="1138.08,-789.29 1144.13,-780.591 1133.98,-783.619 1138.08,-789.29"/>
</g>
<!-- Node44&#45;&gt;Node10 -->
<g id="edge146" class="edge"><title>Node44&#45;&gt;Node10</title>
<path fill="none" stroke="midnightblue" d="M1047.5,-881.269C1260.05,-877.102 2189.34,-851.806 2444,-725 2610.92,-641.886 2666,-555.466 2666,-369 2666,-369 2666,-369 2666,-188 2666,-94.3111 2518.37,-76.4515 2451.38,-73.1702"/>
<polygon fill="midnightblue" stroke="midnightblue" points="2451.49,-69.6719 2441.36,-72.7594 2451.2,-76.666 2451.49,-69.6719"/>
</g>
<!-- Node44&#45;&gt;Node35 -->
<g id="edge143" class="edge"><title>Node44&#45;&gt;Node35</title>
<path fill="none" stroke="midnightblue" d="M992.556,-873.212C981.976,-864.713 966.239,-851.083 955,-837 885.696,-750.155 868.162,-721.45 844,-613 838.502,-588.322 836.231,-582.184 834,-557 830.404,-516.408 838.456,-468.912 843.78,-443.418"/>
<polygon fill="midnightblue" stroke="midnightblue" points="847.201,-444.155 845.917,-433.639 840.363,-442.66 847.201,-444.155"/>
</g>
<!-- Node44&#45;&gt;Node43 -->
<g id="edge145" class="edge"><title>Node44&#45;&gt;Node43</title>
<path fill="none" stroke="midnightblue" d="M1003.5,-873.083C1003.11,-866.006 1002.55,-855.861 1002.05,-846.986"/>
<polygon fill="midnightblue" stroke="midnightblue" points="1005.54,-846.542 1001.49,-836.751 998.546,-846.93 1005.54,-846.542"/>
</g>
</g>
</svg>
