<?xml version="1.0" encoding="UTF-8" standalone="no"?>
<!DOCTYPE svg PUBLIC "-//W3C//DTD SVG 1.1//EN"
 "http://www.w3.org/Graphics/SVG/1.1/DTD/svg11.dtd">
<!-- Generated by graphviz version 2.38.0 (20140413.2041)
 -->
<!-- Title: include/tvm/relay/interpreter.h Pages: 1 -->
<svg width="3087pt" height="1013pt"
 viewBox="0.00 0.00 3087.03 1013.00" xmlns="http://www.w3.org/2000/svg" xmlns:xlink="http://www.w3.org/1999/xlink">
<g id="graph0" class="graph" transform="scale(1 1) rotate(0) translate(4 1009)">
<title>include/tvm/relay/interpreter.h</title>
<polygon fill="white" stroke="none" points="-4,4 -4,-1009 3083.03,-1009 3083.03,4 -4,4"/>
<!-- Node1 -->
<g id="node1" class="node"><title>Node1</title>
<polygon fill="#bfbfbf" stroke="black" points="2526.5,-985.5 2526.5,-1004.5 2687.5,-1004.5 2687.5,-985.5 2526.5,-985.5"/>
<text text-anchor="middle" x="2607" y="-992.5" font-family="Helvetica,sans-Serif" font-size="10.00">include/tvm/relay/interpreter.h</text>
</g>
<!-- Node2 -->
<g id="node2" class="node"><title>Node2</title>
<g id="a_node2"><a xlink:href="ir_2module_8h.html" target="_top" xlink:title="IRModule that holds the functions and type definitions. ">
<polygon fill="white" stroke="black" points="1310,-761.5 1310,-780.5 1402,-780.5 1402,-761.5 1310,-761.5"/>
<text text-anchor="middle" x="1356" y="-768.5" font-family="Helvetica,sans-Serif" font-size="10.00">tvm/ir/module.h</text>
</a>
</g>
</g>
<!-- Node1&#45;&gt;Node2 -->
<g id="edge1" class="edge"><title>Node1&#45;&gt;Node2</title>
<path fill="none" stroke="midnightblue" d="M2526.26,-993.006C2286.09,-989.734 1586.68,-977.819 1488,-949 1440.59,-935.153 1425.78,-929.035 1392,-893 1365.23,-864.448 1358.29,-816.853 1356.54,-790.674"/>
<polygon fill="midnightblue" stroke="midnightblue" points="1360.03,-790.412 1356.06,-780.591 1353.04,-790.747 1360.03,-790.412"/>
</g>
<!-- Node4 -->
<g id="node4" class="node"><title>Node4</title>
<g id="a_node4"><a xlink:href="object_8h.html" target="_top" xlink:title="A managed object in the TVM runtime. ">
<polygon fill="white" stroke="black" points="1706.5,-123.5 1706.5,-142.5 1823.5,-142.5 1823.5,-123.5 1706.5,-123.5"/>
<text text-anchor="middle" x="1765" y="-130.5" font-family="Helvetica,sans-Serif" font-size="10.00">tvm/runtime/object.h</text>
</a>
</g>
</g>
<!-- Node1&#45;&gt;Node4 -->
<g id="edge169" class="edge"><title>Node1&#45;&gt;Node4</title>
<path fill="none" stroke="midnightblue" d="M2615.17,-985.384C2630.93,-967.812 2664,-925.942 2664,-884 2664,-884 2664,-884 2664,-826 2664,-742.197 2636.29,-724.051 2599,-649 2488.1,-425.782 2445.08,-325.935 2209,-246 2102.26,-209.858 2061.2,-255.271 1958,-210 1938.04,-201.245 1939.3,-189.131 1920,-179 1889.46,-162.969 1852.46,-151.95 1822.27,-144.831"/>
<polygon fill="midnightblue" stroke="midnightblue" points="1822.83,-141.371 1812.31,-142.564 1821.28,-148.196 1822.83,-141.371"/>
</g>
<!-- Node16 -->
<g id="node16" class="node"><title>Node16</title>
<g id="a_node16"><a xlink:href="runtime_2container_8h.html" target="_top" xlink:title="Common POD(plain old data) container types. ">
<polygon fill="white" stroke="black" points="1474,-246.5 1474,-265.5 1606,-265.5 1606,-246.5 1474,-246.5"/>
<text text-anchor="middle" x="1540" y="-253.5" font-family="Helvetica,sans-Serif" font-size="10.00">tvm/runtime/container.h</text>
</a>
</g>
</g>
<!-- Node1&#45;&gt;Node16 -->
<g id="edge170" class="edge"><title>Node1&#45;&gt;Node16</title>
<path fill="none" stroke="midnightblue" d="M2604.44,-985.249C2599.25,-966.738 2588,-922.179 2588,-884 2588,-884 2588,-884 2588,-826 2588,-679.352 2413.97,-737.203 2336,-613 2303.79,-561.691 2343.85,-524.807 2302,-481 2114.78,-285.001 1980.08,-374.844 1719,-302 1674,-289.445 1622.2,-276.595 1585.94,-267.858"/>
<polygon fill="midnightblue" stroke="midnightblue" points="1586.68,-264.438 1576.14,-265.507 1585.05,-271.244 1586.68,-264.438"/>
</g>
<!-- Node38 -->
<g id="node38" class="node"><title>Node38</title>
<g id="a_node38"><a xlink:href="relay_2expr_8h.html" target="_top" xlink:title="Relay expression language. ">
<polygon fill="white" stroke="black" points="1497,-929.5 1497,-948.5 1591,-948.5 1591,-929.5 1497,-929.5"/>
<text text-anchor="middle" x="1544" y="-936.5" font-family="Helvetica,sans-Serif" font-size="10.00">tvm/relay/expr.h</text>
</a>
</g>
</g>
<!-- Node1&#45;&gt;Node38 -->
<g id="edge115" class="edge"><title>Node1&#45;&gt;Node38</title>
<path fill="none" stroke="midnightblue" d="M2526.23,-989.897C2320.18,-979.43 1778.76,-951.926 1601.26,-942.909"/>
<polygon fill="midnightblue" stroke="midnightblue" points="1601.25,-939.404 1591.09,-942.392 1600.9,-946.395 1601.25,-939.404"/>
</g>
<!-- Node48 -->
<g id="node48" class="node"><title>Node48</title>
<g id="a_node48"><a xlink:href="vm_8h.html" target="_top" xlink:title="A virtual machine for executing Relay programs. ">
<polygon fill="white" stroke="black" points="2197.5,-302.5 2197.5,-321.5 2300.5,-321.5 2300.5,-302.5 2197.5,-302.5"/>
<text text-anchor="middle" x="2249" y="-309.5" font-family="Helvetica,sans-Serif" font-size="10.00">tvm/runtime/vm.h</text>
</a>
</g>
</g>
<!-- Node1&#45;&gt;Node48 -->
<g id="edge171" class="edge"><title>Node1&#45;&gt;Node48</title>
<path fill="none" stroke="midnightblue" d="M2609.56,-985.249C2614.75,-966.738 2626,-922.179 2626,-884 2626,-884 2626,-884 2626,-826 2626,-584.416 2351.17,-381.392 2270.81,-327.196"/>
<polygon fill="midnightblue" stroke="midnightblue" points="2272.68,-324.233 2262.42,-321.599 2268.8,-330.058 2272.68,-324.233"/>
</g>
<!-- Node49 -->
<g id="node49" class="node"><title>Node49</title>
<g id="a_node49"><a xlink:href="target_8h.html" target="_top" xlink:title="Compilation target object. ">
<polygon fill="white" stroke="black" points="2654.5,-649.5 2654.5,-668.5 2763.5,-668.5 2763.5,-649.5 2654.5,-649.5"/>
<text text-anchor="middle" x="2709" y="-656.5" font-family="Helvetica,sans-Serif" font-size="10.00">tvm/target/target.h</text>
</a>
</g>
</g>
<!-- Node1&#45;&gt;Node49 -->
<g id="edge181" class="edge"><title>Node1&#45;&gt;Node49</title>
<path fill="none" stroke="midnightblue" d="M2627.14,-985.398C2642.82,-977.813 2664.18,-965.411 2678,-949 2698.15,-925.07 2705,-915.282 2705,-884 2705,-884 2705,-884 2705,-770 2705,-737.927 2706.72,-700.628 2707.9,-678.741"/>
<polygon fill="midnightblue" stroke="midnightblue" points="2711.41,-678.735 2708.48,-668.554 2704.42,-678.341 2711.41,-678.735"/>
</g>
<!-- Node3 -->
<g id="node3" class="node"><title>Node3</title>
<g id="a_node3"><a xlink:href="ir_2type_8h.html" target="_top" xlink:title="IR/AST nodes for the unified type system in TVM. ">
<polygon fill="white" stroke="black" points="1337.5,-537.5 1337.5,-556.5 1414.5,-556.5 1414.5,-537.5 1337.5,-537.5"/>
<text text-anchor="middle" x="1376" y="-544.5" font-family="Helvetica,sans-Serif" font-size="10.00">tvm/ir/type.h</text>
</a>
</g>
</g>
<!-- Node2&#45;&gt;Node3 -->
<g id="edge2" class="edge"><title>Node2&#45;&gt;Node3</title>
<path fill="none" stroke="midnightblue" d="M1354.48,-761.371C1350.22,-735.452 1339.38,-656.174 1354,-593 1356.23,-583.363 1360.82,-573.405 1365.24,-565.315"/>
<polygon fill="midnightblue" stroke="midnightblue" points="1368.35,-566.922 1370.36,-556.519 1362.3,-563.397 1368.35,-566.922"/>
</g>
<!-- Node11 -->
<g id="node11" class="node"><title>Node11</title>
<polygon fill="white" stroke="#bfbfbf" points="586,-62 586,-81 630,-81 630,-62 586,-62"/>
<text text-anchor="middle" x="608" y="-69" font-family="Helvetica,sans-Serif" font-size="10.00">string</text>
</g>
<!-- Node2&#45;&gt;Node11 -->
<g id="edge111" class="edge"><title>Node2&#45;&gt;Node11</title>
<path fill="none" stroke="midnightblue" d="M1309.69,-770.039C1080.21,-769.017 76,-749.818 76,-492 76,-492 76,-492 76,-193.5 76,-154.828 93.5275,-142.369 127,-123 203.627,-78.6601 480.383,-73.1026 575.573,-72.521"/>
<polygon fill="midnightblue" stroke="midnightblue" points="575.765,-76.0203 585.748,-72.474 575.732,-69.0203 575.765,-76.0203"/>
</g>
<!-- Node21 -->
<g id="node21" class="node"><title>Node21</title>
<polygon fill="white" stroke="#bfbfbf" points="2494.5,-123.5 2494.5,-142.5 2541.5,-142.5 2541.5,-123.5 2494.5,-123.5"/>
<text text-anchor="middle" x="2518" y="-130.5" font-family="Helvetica,sans-Serif" font-size="10.00">vector</text>
</g>
<!-- Node2&#45;&gt;Node21 -->
<g id="edge112" class="edge"><title>Node2&#45;&gt;Node21</title>
<path fill="none" stroke="midnightblue" d="M1402.02,-767.398C1641.07,-753.802 2732.74,-690.735 2801,-669 2870.54,-646.857 2912,-620.978 2912,-548 2912,-548 2912,-548 2912,-311 2912,-232.309 2863,-216.828 2794,-179 2752.77,-156.394 2615.9,-142.233 2551.74,-136.681"/>
<polygon fill="midnightblue" stroke="midnightblue" points="2551.99,-133.189 2541.73,-135.833 2551.4,-140.164 2551.99,-133.189"/>
</g>
<!-- Node27 -->
<g id="node27" class="node"><title>Node27</title>
<polygon fill="white" stroke="#bfbfbf" points="2042.5,-246.5 2042.5,-265.5 2135.5,-265.5 2135.5,-246.5 2042.5,-246.5"/>
<text text-anchor="middle" x="2089" y="-253.5" font-family="Helvetica,sans-Serif" font-size="10.00">unordered_map</text>
</g>
<!-- Node2&#45;&gt;Node27 -->
<g id="edge113" class="edge"><title>Node2&#45;&gt;Node27</title>
<path fill="none" stroke="midnightblue" d="M1401.87,-761.466C1473.62,-748.286 1616.85,-722.659 1739,-705 1872.34,-685.723 1918.81,-727.872 2040,-669 2145.89,-617.558 2166,-553.727 2166,-436 2166,-436 2166,-436 2166,-372.5 2166,-330.646 2130.56,-292.423 2107.77,-272.167"/>
<polygon fill="midnightblue" stroke="midnightblue" points="2109.9,-269.388 2100.03,-265.544 2105.35,-274.706 2109.9,-269.388"/>
</g>
<!-- Node31 -->
<g id="node31" class="node"><title>Node31</title>
<g id="a_node31"><a xlink:href="ir_2expr_8h.html" target="_top" xlink:title="Base expr nodes in TVM. ">
<polygon fill="white" stroke="black" points="1054.5,-593.5 1054.5,-612.5 1131.5,-612.5 1131.5,-593.5 1054.5,-593.5"/>
<text text-anchor="middle" x="1093" y="-600.5" font-family="Helvetica,sans-Serif" font-size="10.00">tvm/ir/expr.h</text>
</a>
</g>
</g>
<!-- Node2&#45;&gt;Node31 -->
<g id="edge78" class="edge"><title>Node2&#45;&gt;Node31</title>
<path fill="none" stroke="midnightblue" d="M1320.65,-761.44C1272.87,-748.376 1187.22,-719.501 1131,-669 1116.6,-656.067 1106.15,-636.351 1099.89,-622.024"/>
<polygon fill="midnightblue" stroke="midnightblue" points="1103.11,-620.647 1096.08,-612.719 1096.63,-623.299 1103.11,-620.647"/>
</g>
<!-- Node33 -->
<g id="node33" class="node"><title>Node33</title>
<g id="a_node33"><a xlink:href="ir_2function_8h.html" target="_top" xlink:title="Function nodes. ">
<polygon fill="white" stroke="black" points="950.5,-705.5 950.5,-724.5 1045.5,-724.5 1045.5,-705.5 950.5,-705.5"/>
<text text-anchor="middle" x="998" y="-712.5" font-family="Helvetica,sans-Serif" font-size="10.00">tvm/ir/function.h</text>
</a>
</g>
</g>
<!-- Node2&#45;&gt;Node33 -->
<g id="edge88" class="edge"><title>Node2&#45;&gt;Node33</title>
<path fill="none" stroke="midnightblue" d="M1309.93,-763.051C1244.95,-753.25 1126.43,-735.373 1055.68,-724.701"/>
<polygon fill="midnightblue" stroke="midnightblue" points="1056.01,-721.211 1045.6,-723.18 1054.97,-728.133 1056.01,-721.211"/>
</g>
<!-- Node36 -->
<g id="node36" class="node"><title>Node36</title>
<g id="a_node36"><a xlink:href="ir_2adt_8h.html" target="_top" xlink:title="Algebraic data type definitions. ">
<polygon fill="white" stroke="black" points="1434,-649.5 1434,-668.5 1506,-668.5 1506,-649.5 1434,-649.5"/>
<text text-anchor="middle" x="1470" y="-656.5" font-family="Helvetica,sans-Serif" font-size="10.00">tvm/ir/adt.h</text>
</a>
</g>
</g>
<!-- Node2&#45;&gt;Node36 -->
<g id="edge104" class="edge"><title>Node2&#45;&gt;Node36</title>
<path fill="none" stroke="midnightblue" d="M1364.95,-761.368C1384.09,-742.894 1429.28,-699.293 1453.68,-675.744"/>
<polygon fill="midnightblue" stroke="midnightblue" points="1456.33,-678.054 1461.1,-668.591 1451.47,-673.016 1456.33,-678.054"/>
</g>
<!-- Node37 -->
<g id="node37" class="node"><title>Node37</title>
<polygon fill="white" stroke="#bfbfbf" points="2798,-593.5 2798,-612.5 2884,-612.5 2884,-593.5 2798,-593.5"/>
<text text-anchor="middle" x="2841" y="-600.5" font-family="Helvetica,sans-Serif" font-size="10.00">unordered_set</text>
</g>
<!-- Node2&#45;&gt;Node37 -->
<g id="edge114" class="edge"><title>Node2&#45;&gt;Node37</title>
<path fill="none" stroke="midnightblue" d="M1402.02,-764.909C1473.98,-756.879 1617.47,-740.577 1739,-725 1803.09,-716.785 1818.64,-710.758 1883,-705 1981.47,-696.19 2680.87,-707.317 2772,-669 2795.84,-658.975 2816.41,-636.763 2828.75,-621.104"/>
<polygon fill="midnightblue" stroke="midnightblue" points="2831.79,-622.876 2835.02,-612.784 2826.2,-618.663 2831.79,-622.876"/>
</g>
<!-- Node3&#45;&gt;Node4 -->
<g id="edge3" class="edge"><title>Node3&#45;&gt;Node4</title>
<path fill="none" stroke="midnightblue" d="M1376.86,-537.408C1379.22,-509.398 1383.53,-419.031 1348,-358 1289.8,-258.013 1080.28,-263.783 1159,-179 1177.05,-159.563 1540.8,-142.891 1695.9,-136.637"/>
<polygon fill="midnightblue" stroke="midnightblue" points="1696.4,-140.12 1706.25,-136.223 1696.12,-133.125 1696.4,-140.12"/>
</g>
<!-- Node3&#45;&gt;Node11 -->
<g id="edge77" class="edge"><title>Node3&#45;&gt;Node11</title>
<path fill="none" stroke="midnightblue" d="M1337.47,-545.174C1194.2,-541.899 697.148,-528.635 632,-501 555.403,-468.509 494,-457.703 494,-374.5 494,-374.5 494,-374.5 494,-311 494,-227.213 432.863,-192.27 480,-123 501.279,-91.7291 545.2,-79.822 575.615,-75.288"/>
<polygon fill="midnightblue" stroke="midnightblue" points="576.285,-78.7305 585.751,-73.9721 575.383,-71.7888 576.285,-78.7305"/>
</g>
<!-- Node14 -->
<g id="node14" class="node"><title>Node14</title>
<g id="a_node14"><a xlink:href="data__type_8h.html" target="_top" xlink:title="tvm/runtime/data_type.h">
<polygon fill="white" stroke="black" points="996,-123.5 996,-142.5 1132,-142.5 1132,-123.5 996,-123.5"/>
<text text-anchor="middle" x="1064" y="-130.5" font-family="Helvetica,sans-Serif" font-size="10.00">tvm/runtime/data_type.h</text>
</a>
</g>
</g>
<!-- Node3&#45;&gt;Node14 -->
<g id="edge13" class="edge"><title>Node3&#45;&gt;Node14</title>
<path fill="none" stroke="midnightblue" d="M1337.36,-542.747C1260.43,-533.9 1089.78,-501.848 1023,-389 976.391,-310.24 1030.16,-194.977 1053.88,-151.48"/>
<polygon fill="midnightblue" stroke="midnightblue" points="1056.98,-153.108 1058.82,-142.673 1050.87,-149.687 1056.98,-153.108"/>
</g>
<!-- Node15 -->
<g id="node15" class="node"><title>Node15</title>
<g id="a_node15"><a xlink:href="node_8h.html" target="_top" xlink:title="Definitions and helper macros for IR/AST nodes. ">
<polygon fill="white" stroke="red" points="1146,-425.5 1146,-444.5 1244,-444.5 1244,-425.5 1146,-425.5"/>
<text text-anchor="middle" x="1195" y="-432.5" font-family="Helvetica,sans-Serif" font-size="10.00">tvm/node/node.h</text>
</a>
</g>
</g>
<!-- Node3&#45;&gt;Node15 -->
<g id="edge18" class="edge"><title>Node3&#45;&gt;Node15</title>
<path fill="none" stroke="midnightblue" d="M1337.88,-537.497C1312.09,-530.515 1278.09,-518.832 1252,-501 1233.3,-488.218 1216.83,-467.913 1206.47,-453.399"/>
<polygon fill="midnightblue" stroke="midnightblue" points="1209.13,-451.09 1200.58,-444.835 1203.36,-455.057 1209.13,-451.09"/>
</g>
<!-- Node26 -->
<g id="node26" class="node"><title>Node26</title>
<g id="a_node26"><a xlink:href="node_2container_8h.html" target="_top" xlink:title="Array/Map container in the DSL graph. ">
<polygon fill="white" stroke="black" points="1562.5,-302.5 1562.5,-321.5 1681.5,-321.5 1681.5,-302.5 1562.5,-302.5"/>
<text text-anchor="middle" x="1622" y="-309.5" font-family="Helvetica,sans-Serif" font-size="10.00">tvm/node/container.h</text>
</a>
</g>
</g>
<!-- Node3&#45;&gt;Node26 -->
<g id="edge72" class="edge"><title>Node3&#45;&gt;Node26</title>
<path fill="none" stroke="midnightblue" d="M1385.05,-537.431C1421.51,-502.894 1558.01,-373.608 1605.55,-328.581"/>
<polygon fill="midnightblue" stroke="midnightblue" points="1608.02,-331.065 1612.87,-321.647 1603.2,-325.982 1608.02,-331.065"/>
</g>
<!-- Node30 -->
<g id="node30" class="node"><title>Node30</title>
<g id="a_node30"><a xlink:href="span_8h.html" target="_top" xlink:title="Span information for debugging purposes. ">
<polygon fill="white" stroke="black" points="1261,-481.5 1261,-500.5 1341,-500.5 1341,-481.5 1261,-481.5"/>
<text text-anchor="middle" x="1301" y="-488.5" font-family="Helvetica,sans-Serif" font-size="10.00">tvm/ir/span.h</text>
</a>
</g>
</g>
<!-- Node3&#45;&gt;Node30 -->
<g id="edge73" class="edge"><title>Node3&#45;&gt;Node30</title>
<path fill="none" stroke="midnightblue" d="M1363.95,-537.324C1352.54,-529.107 1335.17,-516.602 1321.57,-506.807"/>
<polygon fill="midnightblue" stroke="midnightblue" points="1323.43,-503.837 1313.27,-500.834 1319.34,-509.517 1323.43,-503.837"/>
</g>
<!-- Node5 -->
<g id="node5" class="node"><title>Node5</title>
<polygon fill="white" stroke="#bfbfbf" points="1765,-62 1765,-81 1851,-81 1851,-62 1765,-62"/>
<text text-anchor="middle" x="1808" y="-69" font-family="Helvetica,sans-Serif" font-size="10.00">dmlc/logging.h</text>
</g>
<!-- Node4&#45;&gt;Node5 -->
<g id="edge4" class="edge"><title>Node4&#45;&gt;Node5</title>
<path fill="none" stroke="midnightblue" d="M1771.16,-123.475C1777.61,-114.55 1787.9,-100.307 1795.97,-89.1425"/>
<polygon fill="midnightblue" stroke="midnightblue" points="1798.83,-91.1642 1801.85,-81.0091 1793.16,-87.064 1798.83,-91.1642"/>
</g>
<!-- Node6 -->
<g id="node6" class="node"><title>Node6</title>
<g id="a_node6"><a xlink:href="c__runtime__api_8h.html" target="_top" xlink:title="tvm/runtime/c_runtime\l_api.h">
<polygon fill="white" stroke="black" points="1000.5,-56.5 1000.5,-86.5 1127.5,-86.5 1127.5,-56.5 1000.5,-56.5"/>
<text text-anchor="start" x="1008.5" y="-74.5" font-family="Helvetica,sans-Serif" font-size="10.00">tvm/runtime/c_runtime</text>
<text text-anchor="middle" x="1064" y="-63.5" font-family="Helvetica,sans-Serif" font-size="10.00">_api.h</text>
</a>
</g>
</g>
<!-- Node4&#45;&gt;Node6 -->
<g id="edge5" class="edge"><title>Node4&#45;&gt;Node6</title>
<path fill="none" stroke="midnightblue" d="M1706.45,-127.554C1605.49,-119.816 1392.13,-103.151 1212,-87 1187.81,-84.8312 1161.42,-82.2985 1137.71,-79.9623"/>
<polygon fill="midnightblue" stroke="midnightblue" points="1138.02,-76.4761 1127.72,-78.9747 1137.33,-83.4421 1138.02,-76.4761"/>
</g>
<!-- Node10 -->
<g id="node10" class="node"><title>Node10</title>
<polygon fill="white" stroke="#bfbfbf" points="1221,-62 1221,-81 1289,-81 1289,-62 1221,-62"/>
<text text-anchor="middle" x="1255" y="-69" font-family="Helvetica,sans-Serif" font-size="10.00">type_traits</text>
</g>
<!-- Node4&#45;&gt;Node10 -->
<g id="edge9" class="edge"><title>Node4&#45;&gt;Node10</title>
<path fill="none" stroke="midnightblue" d="M1706.5,-125.175C1603.33,-113.139 1391.29,-88.4001 1299.25,-77.6627"/>
<polygon fill="midnightblue" stroke="midnightblue" points="1299.5,-74.1676 1289.16,-76.4851 1298.69,-81.1204 1299.5,-74.1676"/>
</g>
<!-- Node4&#45;&gt;Node11 -->
<g id="edge10" class="edge"><title>Node4&#45;&gt;Node11</title>
<path fill="none" stroke="midnightblue" d="M1706.43,-128.988C1498.52,-118.296 799.843,-82.3657 640.527,-74.1727"/>
<polygon fill="midnightblue" stroke="midnightblue" points="640.579,-70.6709 630.412,-73.6526 640.219,-77.6616 640.579,-70.6709"/>
</g>
<!-- Node12 -->
<g id="node12" class="node"><title>Node12</title>
<polygon fill="white" stroke="#bfbfbf" points="2587,-62 2587,-81 2629,-81 2629,-62 2587,-62"/>
<text text-anchor="middle" x="2608" y="-69" font-family="Helvetica,sans-Serif" font-size="10.00">utility</text>
</g>
<!-- Node4&#45;&gt;Node12 -->
<g id="edge11" class="edge"><title>Node4&#45;&gt;Node12</title>
<path fill="none" stroke="midnightblue" d="M1823.61,-127.863C1988.51,-116.225 2452.53,-83.4735 2576.96,-74.6905"/>
<polygon fill="midnightblue" stroke="midnightblue" points="2577.24,-78.1802 2586.96,-73.9847 2576.74,-71.1976 2577.24,-78.1802"/>
</g>
<!-- Node13 -->
<g id="node13" class="node"><title>Node13</title>
<polygon fill="white" stroke="#bfbfbf" points="1697,-62 1697,-81 1747,-81 1747,-62 1697,-62"/>
<text text-anchor="middle" x="1722" y="-69" font-family="Helvetica,sans-Serif" font-size="10.00">atomic</text>
</g>
<!-- Node4&#45;&gt;Node13 -->
<g id="edge12" class="edge"><title>Node4&#45;&gt;Node13</title>
<path fill="none" stroke="midnightblue" d="M1758.84,-123.475C1752.39,-114.55 1742.1,-100.307 1734.03,-89.1425"/>
<polygon fill="midnightblue" stroke="midnightblue" points="1736.84,-87.064 1728.15,-81.0091 1731.17,-91.1642 1736.84,-87.064"/>
</g>
<!-- Node7 -->
<g id="node7" class="node"><title>Node7</title>
<polygon fill="white" stroke="#bfbfbf" points="929,-0.5 929,-19.5 1019,-19.5 1019,-0.5 929,-0.5"/>
<text text-anchor="middle" x="974" y="-7.5" font-family="Helvetica,sans-Serif" font-size="10.00">dlpack/dlpack.h</text>
</g>
<!-- Node6&#45;&gt;Node7 -->
<g id="edge6" class="edge"><title>Node6&#45;&gt;Node7</title>
<path fill="none" stroke="midnightblue" d="M1042.67,-56.3993C1028.51,-47.0402 1009.99,-34.7924 995.747,-25.3771"/>
<polygon fill="midnightblue" stroke="midnightblue" points="997.368,-22.2531 987.096,-19.6578 993.507,-28.0923 997.368,-22.2531"/>
</g>
<!-- Node8 -->
<g id="node8" class="node"><title>Node8</title>
<polygon fill="white" stroke="#bfbfbf" points="1037.5,-0.5 1037.5,-19.5 1090.5,-19.5 1090.5,-0.5 1037.5,-0.5"/>
<text text-anchor="middle" x="1064" y="-7.5" font-family="Helvetica,sans-Serif" font-size="10.00">stdint.h</text>
</g>
<!-- Node6&#45;&gt;Node8 -->
<g id="edge7" class="edge"><title>Node6&#45;&gt;Node8</title>
<path fill="none" stroke="midnightblue" d="M1064,-56.3993C1064,-48.4664 1064,-38.458 1064,-29.8583"/>
<polygon fill="midnightblue" stroke="midnightblue" points="1067.5,-29.6577 1064,-19.6578 1060.5,-29.6578 1067.5,-29.6577"/>
</g>
<!-- Node9 -->
<g id="node9" class="node"><title>Node9</title>
<polygon fill="white" stroke="#bfbfbf" points="1108.5,-0.5 1108.5,-19.5 1163.5,-19.5 1163.5,-0.5 1108.5,-0.5"/>
<text text-anchor="middle" x="1136" y="-7.5" font-family="Helvetica,sans-Serif" font-size="10.00">stddef.h</text>
</g>
<!-- Node6&#45;&gt;Node9 -->
<g id="edge8" class="edge"><title>Node6&#45;&gt;Node9</title>
<path fill="none" stroke="midnightblue" d="M1081.06,-56.3993C1092.06,-47.3076 1106.37,-35.4899 1117.62,-26.1909"/>
<polygon fill="midnightblue" stroke="midnightblue" points="1120.04,-28.726 1125.52,-19.6578 1115.59,-23.33 1120.04,-28.726"/>
</g>
<!-- Node14&#45;&gt;Node5 -->
<g id="edge15" class="edge"><title>Node14&#45;&gt;Node5</title>
<path fill="none" stroke="midnightblue" d="M1132.32,-132.221C1257.11,-131.593 1529.9,-125.448 1756,-87 1761.12,-86.1287 1766.47,-84.9546 1771.7,-83.6496"/>
<polygon fill="midnightblue" stroke="midnightblue" points="1772.76,-86.9876 1781.52,-81.0241 1770.95,-80.2249 1772.76,-86.9876"/>
</g>
<!-- Node14&#45;&gt;Node6 -->
<g id="edge14" class="edge"><title>Node14&#45;&gt;Node6</title>
<path fill="none" stroke="midnightblue" d="M1064,-123.475C1064,-116.471 1064,-106.192 1064,-96.6956"/>
<polygon fill="midnightblue" stroke="midnightblue" points="1067.5,-96.5229 1064,-86.523 1060.5,-96.523 1067.5,-96.5229"/>
</g>
<!-- Node14&#45;&gt;Node10 -->
<g id="edge16" class="edge"><title>Node14&#45;&gt;Node10</title>
<path fill="none" stroke="midnightblue" d="M1091.37,-123.475C1124.55,-113.136 1180.65,-95.6611 1217.76,-84.1017"/>
<polygon fill="midnightblue" stroke="midnightblue" points="1219.18,-87.325 1227.69,-81.0091 1217.1,-80.6417 1219.18,-87.325"/>
</g>
<!-- Node14&#45;&gt;Node11 -->
<g id="edge17" class="edge"><title>Node14&#45;&gt;Node11</title>
<path fill="none" stroke="midnightblue" d="M998.666,-123.475C899.614,-110.55 715.093,-86.4737 640.518,-76.7431"/>
<polygon fill="midnightblue" stroke="midnightblue" points="640.705,-73.2379 630.336,-75.4145 639.799,-80.179 640.705,-73.2379"/>
</g>
<!-- Node15&#45;&gt;Node4 -->
<g id="edge46" class="edge"><title>Node15&#45;&gt;Node4</title>
<path fill="none" stroke="midnightblue" d="M1195.1,-425.261C1195.79,-409.42 1199.6,-375.948 1219,-358 1351.63,-235.287 1450.65,-341.083 1615,-266 1674.76,-238.698 1728.2,-179.538 1751.96,-150.607"/>
<polygon fill="midnightblue" stroke="midnightblue" points="1754.81,-152.651 1758.36,-142.668 1749.36,-148.26 1754.81,-152.651"/>
</g>
<!-- Node15&#45;&gt;Node6 -->
<g id="edge19" class="edge"><title>Node15&#45;&gt;Node6</title>
<path fill="none" stroke="midnightblue" d="M1145.98,-430.287C1109.33,-425.471 1059.47,-414.409 1023,-389 943.386,-333.528 927.12,-302.561 898,-210 879.566,-151.405 953.018,-111.421 1008.1,-90.2722"/>
<polygon fill="midnightblue" stroke="midnightblue" points="1009.65,-93.4317 1017.8,-86.6665 1007.21,-86.8704 1009.65,-93.4317"/>
</g>
<!-- Node15&#45;&gt;Node10 -->
<g id="edge71" class="edge"><title>Node15&#45;&gt;Node10</title>
<path fill="none" stroke="midnightblue" d="M1145.87,-427.148C1102.81,-420.017 1044.96,-407.312 1031,-389 1022.65,-378.044 1027.22,-371.249 1031,-358 1064.74,-239.759 1090.87,-210.753 1177,-123 1191.93,-107.794 1212.21,-94.8361 1228.36,-85.8542"/>
<polygon fill="midnightblue" stroke="midnightblue" points="1230.16,-88.8576 1237.31,-81.0384 1226.84,-82.6927 1230.16,-88.8576"/>
</g>
<!-- Node15&#45;&gt;Node11 -->
<g id="edge68" class="edge"><title>Node15&#45;&gt;Node11</title>
<path fill="none" stroke="midnightblue" d="M1145.91,-431.331C1100.6,-427.156 1032.56,-416.45 980,-389 827.278,-309.245 836.834,-225.03 698,-123 678.206,-108.453 653.8,-95.0036 635.399,-85.6479"/>
<polygon fill="midnightblue" stroke="midnightblue" points="636.891,-82.4805 626.38,-81.1445 633.764,-88.7432 636.891,-82.4805"/>
</g>
<!-- Node15&#45;&gt;Node12 -->
<g id="edge70" class="edge"><title>Node15&#45;&gt;Node12</title>
<path fill="none" stroke="midnightblue" d="M1235.31,-425.483C1277.24,-416.574 1344.79,-402.091 1403,-389 1530.79,-360.261 1562.87,-353.549 1690,-322 1818.9,-290.012 1849.43,-275.145 1979,-246 2063.7,-226.947 2091.68,-245.292 2171,-210 2229.23,-184.092 2226.38,-148.024 2285,-123 2385.25,-80.2038 2516.86,-73.1974 2576.37,-72.3677"/>
<polygon fill="midnightblue" stroke="midnightblue" points="2576.65,-75.8655 2586.61,-72.2774 2576.58,-68.8657 2576.65,-75.8655"/>
</g>
<!-- Node15&#45;&gt;Node16 -->
<g id="edge20" class="edge"><title>Node15&#45;&gt;Node16</title>
<path fill="none" stroke="midnightblue" d="M1145.96,-426.467C1093.25,-416.297 1020.83,-395.04 1051,-358 1102.19,-295.159 1339.5,-270.234 1463.72,-261.362"/>
<polygon fill="midnightblue" stroke="midnightblue" points="1464.19,-264.838 1473.92,-260.651 1463.7,-257.855 1464.19,-264.838"/>
</g>
<!-- Node17 -->
<g id="node17" class="node"><title>Node17</title>
<g id="a_node17"><a xlink:href="runtime_2memory_8h.html" target="_top" xlink:title="Runtime memory management. ">
<polygon fill="white" stroke="black" points="1484.5,-185 1484.5,-204 1611.5,-204 1611.5,-185 1484.5,-185"/>
<text text-anchor="middle" x="1548" y="-192" font-family="Helvetica,sans-Serif" font-size="10.00">tvm/runtime/memory.h</text>
</a>
</g>
</g>
<!-- Node15&#45;&gt;Node17 -->
<g id="edge47" class="edge"><title>Node15&#45;&gt;Node17</title>
<path fill="none" stroke="midnightblue" d="M1145.77,-426.259C1105.38,-418.783 1052.83,-406.085 1040,-389 1031.73,-377.983 1034.03,-370.418 1040,-358 1078.66,-277.555 1347.17,-226.118 1477.43,-205.618"/>
<polygon fill="midnightblue" stroke="midnightblue" points="1478.36,-209.016 1487.7,-204.021 1477.28,-202.099 1478.36,-209.016"/>
</g>
<!-- Node15&#45;&gt;Node21 -->
<g id="edge69" class="edge"><title>Node15&#45;&gt;Node21</title>
<path fill="none" stroke="midnightblue" d="M1244.19,-430.885C1322.21,-425.447 1478.92,-412.497 1610,-389 1730,-367.488 1761.43,-363.665 1876,-322 1948.86,-295.506 1958.6,-267.777 2033,-246 2162.73,-208.029 2204.24,-244.245 2335,-210 2393.41,-194.704 2457.74,-164.662 2492.42,-147.281"/>
<polygon fill="midnightblue" stroke="midnightblue" points="2494.05,-150.38 2501.39,-142.737 2490.88,-144.136 2494.05,-150.38"/>
</g>
<!-- Node15&#45;&gt;Node26 -->
<g id="edge48" class="edge"><title>Node15&#45;&gt;Node26</title>
<path fill="none" stroke="midnightblue" d="M1226.57,-425.465C1257.66,-416.884 1306.4,-402.961 1348,-389 1384.94,-376.605 1392.73,-369.359 1430,-358 1476,-343.982 1529.31,-331.8 1568.07,-323.66"/>
<polygon fill="midnightblue" stroke="midnightblue" points="1569.02,-327.037 1578.1,-321.576 1567.6,-320.184 1569.02,-327.037"/>
</g>
<!-- Node28 -->
<g id="node28" class="node"><title>Node28</title>
<g id="a_node28"><a xlink:href="structural__equal_8h.html" target="_top" xlink:title="Structural equality comparison. ">
<polygon fill="white" stroke="red" points="1060.5,-358.5 1060.5,-388.5 1171.5,-388.5 1171.5,-358.5 1060.5,-358.5"/>
<text text-anchor="start" x="1068.5" y="-376.5" font-family="Helvetica,sans-Serif" font-size="10.00">tvm/node/structural</text>
<text text-anchor="middle" x="1116" y="-365.5" font-family="Helvetica,sans-Serif" font-size="10.00">_equal.h</text>
</a>
</g>
</g>
<!-- Node15&#45;&gt;Node28 -->
<g id="edge59" class="edge"><title>Node15&#45;&gt;Node28</title>
<path fill="none" stroke="midnightblue" d="M1183.68,-425.475C1173.08,-417.492 1156.83,-405.254 1142.91,-394.77"/>
<polygon fill="midnightblue" stroke="midnightblue" points="1144.71,-391.743 1134.62,-388.523 1140.5,-397.335 1144.71,-391.743"/>
</g>
<!-- Node29 -->
<g id="node29" class="node"><title>Node29</title>
<g id="a_node29"><a xlink:href="structural__hash_8h.html" target="_top" xlink:title="tvm/node/structural\l_hash.h">
<polygon fill="white" stroke="red" points="1228.5,-358.5 1228.5,-388.5 1339.5,-388.5 1339.5,-358.5 1228.5,-358.5"/>
<text text-anchor="start" x="1236.5" y="-376.5" font-family="Helvetica,sans-Serif" font-size="10.00">tvm/node/structural</text>
<text text-anchor="middle" x="1284" y="-365.5" font-family="Helvetica,sans-Serif" font-size="10.00">_hash.h</text>
</a>
</g>
</g>
<!-- Node15&#45;&gt;Node29 -->
<g id="edge63" class="edge"><title>Node15&#45;&gt;Node29</title>
<path fill="none" stroke="midnightblue" d="M1207.75,-425.475C1219.92,-417.341 1238.69,-404.791 1254.56,-394.179"/>
<polygon fill="midnightblue" stroke="midnightblue" points="1256.66,-396.99 1263.02,-388.523 1252.77,-391.171 1256.66,-396.99"/>
</g>
<!-- Node16&#45;&gt;Node4 -->
<g id="edge27" class="edge"><title>Node16&#45;&gt;Node4</title>
<path fill="none" stroke="midnightblue" d="M1566.55,-246.423C1590.14,-238.36 1625.25,-225.269 1654,-210 1672.25,-200.306 1718.33,-167.689 1745.02,-148.479"/>
<polygon fill="midnightblue" stroke="midnightblue" points="1747.21,-151.22 1753.27,-142.53 1743.11,-145.544 1747.21,-151.22"/>
</g>
<!-- Node16&#45;&gt;Node5 -->
<g id="edge21" class="edge"><title>Node16&#45;&gt;Node5</title>
<path fill="none" stroke="midnightblue" d="M1559.22,-246.447C1576.16,-238.4 1601.03,-225.318 1620,-210 1660.17,-177.558 1655.48,-153.697 1697,-123 1719.69,-106.225 1748.84,-93.2295 1771.57,-84.6244"/>
<polygon fill="midnightblue" stroke="midnightblue" points="1773.02,-87.8225 1781.2,-81.0946 1770.61,-81.2502 1773.02,-87.8225"/>
</g>
<!-- Node16&#45;&gt;Node10 -->
<g id="edge43" class="edge"><title>Node16&#45;&gt;Node10</title>
<path fill="none" stroke="midnightblue" d="M1526.87,-246.284C1513.62,-237.395 1492.63,-223.089 1475,-210 1457.22,-196.802 1454.25,-191.534 1436,-179 1382.7,-142.402 1316.4,-105.406 1280.67,-86.1229"/>
<polygon fill="midnightblue" stroke="midnightblue" points="1281.91,-82.8153 1271.45,-81.169 1278.6,-88.9828 1281.91,-82.8153"/>
</g>
<!-- Node16&#45;&gt;Node11 -->
<g id="edge42" class="edge"><title>Node16&#45;&gt;Node11</title>
<path fill="none" stroke="midnightblue" d="M1487.78,-246.43C1452.99,-239.491 1406.89,-227.885 1369,-210 1347.69,-199.944 1347.12,-189.444 1326,-179 1249,-140.917 1225.29,-139.578 1141,-123 953.587,-86.1399 723.618,-75.9164 640.169,-73.3171"/>
<polygon fill="midnightblue" stroke="midnightblue" points="640.156,-69.8153 630.057,-73.0177 639.949,-76.8122 640.156,-69.8153"/>
</g>
<!-- Node16&#45;&gt;Node12 -->
<g id="edge44" class="edge"><title>Node16&#45;&gt;Node12</title>
<path fill="none" stroke="midnightblue" d="M1606.19,-252.004C1750.34,-245.187 2083.68,-227.727 2132,-210 2193.85,-187.313 2190.92,-147.686 2252,-123 2364.98,-77.3361 2512.65,-71.949 2576.42,-71.9656"/>
<polygon fill="midnightblue" stroke="midnightblue" points="2576.6,-75.4664 2586.62,-72.016 2576.64,-68.4665 2576.6,-75.4664"/>
</g>
<!-- Node16&#45;&gt;Node17 -->
<g id="edge22" class="edge"><title>Node16&#45;&gt;Node17</title>
<path fill="none" stroke="midnightblue" d="M1541.15,-246.475C1542.27,-238.08 1544.04,-224.981 1545.49,-214.163"/>
<polygon fill="midnightblue" stroke="midnightblue" points="1548.99,-214.386 1546.86,-204.009 1542.05,-213.453 1548.99,-214.386"/>
</g>
<!-- Node19 -->
<g id="node19" class="node"><title>Node19</title>
<g id="a_node19"><a xlink:href="packed__func_8h.html" target="_top" xlink:title="Type&#45;erased function used across TVM API. ">
<polygon fill="white" stroke="red" points="2010.5,-179.5 2010.5,-209.5 2123.5,-209.5 2123.5,-179.5 2010.5,-179.5"/>
<text text-anchor="start" x="2018.5" y="-197.5" font-family="Helvetica,sans-Serif" font-size="10.00">tvm/runtime/packed</text>
<text text-anchor="middle" x="2067" y="-186.5" font-family="Helvetica,sans-Serif" font-size="10.00">_func.h</text>
</a>
</g>
</g>
<!-- Node16&#45;&gt;Node19 -->
<g id="edge28" class="edge"><title>Node16&#45;&gt;Node19</title>
<path fill="none" stroke="midnightblue" d="M1606.21,-247.525C1707.24,-236.118 1898.8,-214.49 2000.19,-203.043"/>
<polygon fill="midnightblue" stroke="midnightblue" points="2000.76,-206.501 2010.31,-201.901 1999.98,-199.545 2000.76,-206.501"/>
</g>
<!-- Node16&#45;&gt;Node21 -->
<g id="edge45" class="edge"><title>Node16&#45;&gt;Node21</title>
<path fill="none" stroke="midnightblue" d="M1606.12,-253.307C1720.67,-249.692 1963.22,-239.032 2166,-210 2284.18,-193.081 2421.9,-159.117 2484.26,-142.95"/>
<polygon fill="midnightblue" stroke="midnightblue" points="2485.52,-146.239 2494.31,-140.329 2483.75,-139.466 2485.52,-146.239"/>
</g>
<!-- Node24 -->
<g id="node24" class="node"><title>Node24</title>
<polygon fill="white" stroke="#bfbfbf" points="1378.5,-185 1378.5,-204 1427.5,-204 1427.5,-185 1378.5,-185"/>
<text text-anchor="middle" x="1403" y="-192" font-family="Helvetica,sans-Serif" font-size="10.00">cstring</text>
</g>
<!-- Node16&#45;&gt;Node24 -->
<g id="edge40" class="edge"><title>Node16&#45;&gt;Node24</title>
<path fill="none" stroke="midnightblue" d="M1520.37,-246.475C1497.18,-236.401 1458.38,-219.553 1431.79,-208.002"/>
<polygon fill="midnightblue" stroke="midnightblue" points="1433.16,-204.782 1422.59,-204.009 1430.37,-211.203 1433.16,-204.782"/>
</g>
<!-- Node25 -->
<g id="node25" class="node"><title>Node25</title>
<polygon fill="white" stroke="#bfbfbf" points="1168.5,-185 1168.5,-204 1245.5,-204 1245.5,-185 1168.5,-185"/>
<text text-anchor="middle" x="1207" y="-192" font-family="Helvetica,sans-Serif" font-size="10.00">initializer_list</text>
</g>
<!-- Node16&#45;&gt;Node25 -->
<g id="edge41" class="edge"><title>Node16&#45;&gt;Node25</title>
<path fill="none" stroke="midnightblue" d="M1492.29,-246.475C1429.43,-235.243 1319.43,-215.589 1255.95,-204.247"/>
<polygon fill="midnightblue" stroke="midnightblue" points="1256.26,-200.747 1245.8,-202.433 1255.03,-207.638 1256.26,-200.747"/>
</g>
<!-- Node17&#45;&gt;Node4 -->
<g id="edge23" class="edge"><title>Node17&#45;&gt;Node4</title>
<path fill="none" stroke="midnightblue" d="M1579.09,-184.975C1617.28,-174.504 1682.17,-156.712 1724.3,-145.16"/>
<polygon fill="midnightblue" stroke="midnightblue" points="1725.25,-148.529 1733.97,-142.509 1723.4,-141.778 1725.25,-148.529"/>
</g>
<!-- Node17&#45;&gt;Node10 -->
<g id="edge26" class="edge"><title>Node17&#45;&gt;Node10</title>
<path fill="none" stroke="midnightblue" d="M1549.96,-184.792C1552.74,-169.988 1555.86,-139.878 1540,-123 1507.86,-88.792 1370.86,-77.6176 1299.16,-74.0762"/>
<polygon fill="midnightblue" stroke="midnightblue" points="1299.22,-70.5756 1289.07,-73.6073 1298.9,-77.568 1299.22,-70.5756"/>
</g>
<!-- Node17&#45;&gt;Node12 -->
<g id="edge25" class="edge"><title>Node17&#45;&gt;Node12</title>
<path fill="none" stroke="midnightblue" d="M1561.69,-184.775C1587.16,-169.075 1644.02,-136.452 1697,-123 1868.89,-79.3547 2437.05,-73.4249 2576.76,-72.6242"/>
<polygon fill="midnightblue" stroke="midnightblue" points="2576.81,-76.1241 2586.79,-72.5715 2576.77,-69.1242 2576.81,-76.1241"/>
</g>
<!-- Node18 -->
<g id="node18" class="node"><title>Node18</title>
<polygon fill="white" stroke="#bfbfbf" points="1484.5,-123.5 1484.5,-142.5 1531.5,-142.5 1531.5,-123.5 1484.5,-123.5"/>
<text text-anchor="middle" x="1508" y="-130.5" font-family="Helvetica,sans-Serif" font-size="10.00">cstdlib</text>
</g>
<!-- Node17&#45;&gt;Node18 -->
<g id="edge24" class="edge"><title>Node17&#45;&gt;Node18</title>
<path fill="none" stroke="midnightblue" d="M1542.27,-184.975C1536.33,-176.138 1526.88,-162.089 1519.41,-150.975"/>
<polygon fill="midnightblue" stroke="midnightblue" points="1522.2,-148.855 1513.72,-142.509 1516.39,-152.761 1522.2,-148.855"/>
</g>
<!-- Node19&#45;&gt;Node4 -->
<g id="edge32" class="edge"><title>Node19&#45;&gt;Node4</title>
<path fill="none" stroke="midnightblue" d="M2010.2,-182.309C1955.14,-171.461 1872.26,-155.133 1818.39,-144.519"/>
<polygon fill="midnightblue" stroke="midnightblue" points="1818.84,-141.04 1808.35,-142.541 1817.49,-147.908 1818.84,-141.04"/>
</g>
<!-- Node19&#45;&gt;Node5 -->
<g id="edge29" class="edge"><title>Node19&#45;&gt;Node5</title>
<path fill="none" stroke="midnightblue" d="M2062.17,-179.241C2055.93,-163.069 2043.51,-137.119 2024,-123 1976.28,-88.4734 1908.49,-77.1764 1861.64,-73.6763"/>
<polygon fill="midnightblue" stroke="midnightblue" points="1861.59,-70.1659 1851.39,-73.0093 1861.14,-77.1512 1861.59,-70.1659"/>
</g>
<!-- Node19&#45;&gt;Node6 -->
<g id="edge30" class="edge"><title>Node19&#45;&gt;Node6</title>
<path fill="none" stroke="midnightblue" d="M2044.5,-179.371C2012.98,-159.7 1958.35,-126.109 1948,-123 1791.17,-75.8837 1375.31,-98.9869 1212,-87 1187.78,-85.2223 1161.38,-82.7934 1137.67,-80.4318"/>
<polygon fill="midnightblue" stroke="midnightblue" points="1137.98,-76.9462 1127.68,-79.4259 1137.28,-83.9109 1137.98,-76.9462"/>
</g>
<!-- Node19&#45;&gt;Node10 -->
<g id="edge39" class="edge"><title>Node19&#45;&gt;Node10</title>
<path fill="none" stroke="midnightblue" d="M2055.88,-179.378C2041.7,-162.555 2015.45,-135.196 1986,-123 1922.66,-96.7703 1447.63,-78.9057 1299.19,-73.9178"/>
<polygon fill="midnightblue" stroke="midnightblue" points="1299.18,-70.4159 1289.07,-73.581 1298.95,-77.412 1299.18,-70.4159"/>
</g>
<!-- Node19&#45;&gt;Node11 -->
<g id="edge35" class="edge"><title>Node19&#45;&gt;Node11</title>
<path fill="none" stroke="midnightblue" d="M2031.77,-179.451C2007.91,-169.713 1975.78,-156.177 1948,-143 1930.76,-134.821 1928.44,-127.936 1910,-123 1906.04,-121.94 841.234,-81.3754 640.445,-73.7343"/>
<polygon fill="midnightblue" stroke="midnightblue" points="640.378,-70.2292 630.252,-73.3464 640.111,-77.2242 640.378,-70.2292"/>
</g>
<!-- Node19&#45;&gt;Node12 -->
<g id="edge38" class="edge"><title>Node19&#45;&gt;Node12</title>
<path fill="none" stroke="midnightblue" d="M2070.33,-179.418C2075.03,-162.902 2085.34,-136.116 2105,-123 2182.76,-71.1295 2479.38,-70.6159 2576.79,-71.9059"/>
<polygon fill="midnightblue" stroke="midnightblue" points="2576.84,-75.4069 2586.89,-72.056 2576.94,-68.4076 2576.84,-75.4069"/>
</g>
<!-- Node19&#45;&gt;Node14 -->
<g id="edge31" class="edge"><title>Node19&#45;&gt;Node14</title>
<path fill="none" stroke="midnightblue" d="M2010.2,-190.131C1840.53,-180.065 1337.17,-150.205 1142.29,-138.644"/>
<polygon fill="midnightblue" stroke="midnightblue" points="1142.32,-135.14 1132.13,-138.041 1141.9,-142.127 1142.32,-135.14"/>
</g>
<!-- Node20 -->
<g id="node20" class="node"><title>Node20</title>
<polygon fill="white" stroke="#bfbfbf" points="2294.5,-123.5 2294.5,-142.5 2357.5,-142.5 2357.5,-123.5 2294.5,-123.5"/>
<text text-anchor="middle" x="2326" y="-130.5" font-family="Helvetica,sans-Serif" font-size="10.00">functional</text>
</g>
<!-- Node19&#45;&gt;Node20 -->
<g id="edge33" class="edge"><title>Node19&#45;&gt;Node20</title>
<path fill="none" stroke="midnightblue" d="M2123.52,-180.516C2172.02,-169.373 2240.81,-153.571 2284.41,-143.554"/>
<polygon fill="midnightblue" stroke="midnightblue" points="2285.42,-146.913 2294.39,-141.262 2283.86,-140.09 2285.42,-146.913"/>
</g>
<!-- Node19&#45;&gt;Node21 -->
<g id="edge34" class="edge"><title>Node19&#45;&gt;Node21</title>
<path fill="none" stroke="midnightblue" d="M2123.66,-186.025C2218.79,-173.475 2407.71,-148.551 2484.44,-138.428"/>
<polygon fill="midnightblue" stroke="midnightblue" points="2485.04,-141.879 2494.5,-137.101 2484.12,-134.939 2485.04,-141.879"/>
</g>
<!-- Node22 -->
<g id="node22" class="node"><title>Node22</title>
<polygon fill="white" stroke="#bfbfbf" points="386,-123.5 386,-142.5 428,-142.5 428,-123.5 386,-123.5"/>
<text text-anchor="middle" x="407" y="-130.5" font-family="Helvetica,sans-Serif" font-size="10.00">limits</text>
</g>
<!-- Node19&#45;&gt;Node22 -->
<g id="edge36" class="edge"><title>Node19&#45;&gt;Node22</title>
<path fill="none" stroke="midnightblue" d="M2010.34,-191.469C1746,-181.994 638.432,-142.295 438.125,-135.116"/>
<polygon fill="midnightblue" stroke="midnightblue" points="438.12,-131.613 428.001,-134.753 437.869,-138.609 438.12,-131.613"/>
</g>
<!-- Node23 -->
<g id="node23" class="node"><title>Node23</title>
<polygon fill="white" stroke="#bfbfbf" points="2114.5,-123.5 2114.5,-142.5 2171.5,-142.5 2171.5,-123.5 2114.5,-123.5"/>
<text text-anchor="middle" x="2143" y="-130.5" font-family="Helvetica,sans-Serif" font-size="10.00">memory</text>
</g>
<!-- Node19&#45;&gt;Node23 -->
<g id="edge37" class="edge"><title>Node19&#45;&gt;Node23</title>
<path fill="none" stroke="midnightblue" d="M2085.01,-179.399C2096.74,-170.218 2112.02,-158.258 2123.94,-148.918"/>
<polygon fill="midnightblue" stroke="midnightblue" points="2126.22,-151.578 2131.94,-142.658 2121.91,-146.066 2126.22,-151.578"/>
</g>
<!-- Node26&#45;&gt;Node4 -->
<g id="edge49" class="edge"><title>Node26&#45;&gt;Node4</title>
<path fill="none" stroke="midnightblue" d="M1632.36,-302.22C1656.35,-281.754 1714.82,-231.023 1730,-210 1742.99,-192.008 1752.94,-168.429 1758.85,-152.336"/>
<polygon fill="midnightblue" stroke="midnightblue" points="1762.28,-153.146 1762.29,-142.551 1755.67,-150.826 1762.28,-153.146"/>
</g>
<!-- Node26&#45;&gt;Node10 -->
<g id="edge53" class="edge"><title>Node26&#45;&gt;Node10</title>
<path fill="none" stroke="midnightblue" d="M1562.2,-311.788C1486.79,-311 1354.18,-303.64 1248,-266 1203.95,-250.385 1181.59,-250.91 1159,-210 1152.34,-197.939 1154.06,-191.861 1159,-179 1174.12,-139.645 1211.25,-105.75 1234.65,-87.3148"/>
<polygon fill="midnightblue" stroke="midnightblue" points="1237.06,-89.8822 1242.87,-81.0273 1232.8,-84.3218 1237.06,-89.8822"/>
</g>
<!-- Node26&#45;&gt;Node11 -->
<g id="edge58" class="edge"><title>Node26&#45;&gt;Node11</title>
<path fill="none" stroke="midnightblue" d="M1562.36,-309.855C1478.52,-307.102 1321.59,-297.746 1192,-266 1023.98,-224.84 995.264,-174.112 830,-123 763.544,-102.447 683.542,-86.2864 640.026,-78.1923"/>
<polygon fill="midnightblue" stroke="midnightblue" points="640.502,-74.7213 630.035,-76.3568 639.238,-81.6061 640.502,-74.7213"/>
</g>
<!-- Node26&#45;&gt;Node12 -->
<g id="edge57" class="edge"><title>Node26&#45;&gt;Node12</title>
<path fill="none" stroke="midnightblue" d="M1681.61,-310.354C1887.21,-307.851 2556.02,-297.324 2589,-266 2637.34,-220.085 2622.4,-129.843 2613.05,-91.0002"/>
<polygon fill="midnightblue" stroke="midnightblue" points="2616.38,-89.9098 2610.51,-81.0918 2609.6,-91.6477 2616.38,-89.9098"/>
</g>
<!-- Node26&#45;&gt;Node16 -->
<g id="edge52" class="edge"><title>Node26&#45;&gt;Node16</title>
<path fill="none" stroke="midnightblue" d="M1608.83,-302.324C1596.15,-293.979 1576.77,-281.212 1561.79,-271.352"/>
<polygon fill="midnightblue" stroke="midnightblue" points="1563.42,-268.231 1553.14,-265.655 1559.57,-274.078 1563.42,-268.231"/>
</g>
<!-- Node26&#45;&gt;Node17 -->
<g id="edge50" class="edge"><title>Node26&#45;&gt;Node17</title>
<path fill="none" stroke="midnightblue" d="M1567.26,-302.448C1527.11,-294.926 1477.5,-282.587 1465,-266 1446.93,-242.022 1483.22,-220.662 1513.38,-207.9"/>
<polygon fill="midnightblue" stroke="midnightblue" points="1514.92,-211.054 1522.88,-204.066 1512.3,-204.563 1514.92,-211.054"/>
</g>
<!-- Node26&#45;&gt;Node19 -->
<g id="edge51" class="edge"><title>Node26&#45;&gt;Node19</title>
<path fill="none" stroke="midnightblue" d="M1655.08,-302.413C1728.62,-283.327 1906.72,-237.101 2002.88,-212.143"/>
<polygon fill="midnightblue" stroke="midnightblue" points="2003.97,-215.476 2012.77,-209.575 2002.21,-208.7 2003.97,-215.476"/>
</g>
<!-- Node26&#45;&gt;Node21 -->
<g id="edge54" class="edge"><title>Node26&#45;&gt;Node21</title>
<path fill="none" stroke="midnightblue" d="M1668.47,-302.481C1739.7,-289.542 1880.23,-264.49 2000,-246 2116.6,-228 2147.68,-234.922 2263,-210 2343.94,-192.508 2436.55,-162.251 2484.81,-145.681"/>
<polygon fill="midnightblue" stroke="midnightblue" points="2486.1,-148.936 2494.41,-142.362 2483.82,-142.32 2486.1,-148.936"/>
</g>
<!-- Node26&#45;&gt;Node25 -->
<g id="edge55" class="edge"><title>Node26&#45;&gt;Node25</title>
<path fill="none" stroke="midnightblue" d="M1562.27,-307.79C1477.38,-302.455 1326.74,-289.903 1278,-266 1253,-253.738 1231.47,-229.186 1218.86,-212.546"/>
<polygon fill="midnightblue" stroke="midnightblue" points="1221.53,-210.266 1212.82,-204.244 1215.87,-214.387 1221.53,-210.266"/>
</g>
<!-- Node26&#45;&gt;Node27 -->
<g id="edge56" class="edge"><title>Node26&#45;&gt;Node27</title>
<path fill="none" stroke="midnightblue" d="M1681.62,-304.106C1772.21,-293.631 1943.36,-273.841 2032.23,-263.565"/>
<polygon fill="midnightblue" stroke="midnightblue" points="2032.85,-267.016 2042.38,-262.39 2032.05,-260.062 2032.85,-267.016"/>
</g>
<!-- Node28&#45;&gt;Node11 -->
<g id="edge62" class="edge"><title>Node28&#45;&gt;Node11</title>
<path fill="none" stroke="midnightblue" d="M1060.42,-364.357C1023.32,-357.184 974.476,-344.288 936,-322 874.539,-286.398 872.301,-260.147 822,-210 783.496,-171.614 781.374,-152.954 736,-123 705.947,-103.16 666.905,-89.1755 639.881,-81.0294"/>
<polygon fill="midnightblue" stroke="midnightblue" points="640.736,-77.633 630.156,-78.1932 638.776,-84.3531 640.736,-77.633"/>
</g>
<!-- Node28&#45;&gt;Node14 -->
<g id="edge60" class="edge"><title>Node28&#45;&gt;Node14</title>
<path fill="none" stroke="midnightblue" d="M1103.49,-358.257C1087.44,-338.935 1060.42,-302.611 1050,-266 1039.41,-228.811 1044.19,-217.228 1050,-179 1051.37,-170.001 1054.19,-160.325 1056.95,-152.26"/>
<polygon fill="midnightblue" stroke="midnightblue" points="1060.27,-153.372 1060.4,-142.778 1053.69,-150.976 1060.27,-153.372"/>
</g>
<!-- Node28&#45;&gt;Node26 -->
<g id="edge61" class="edge"><title>Node28&#45;&gt;Node26</title>
<path fill="none" stroke="midnightblue" d="M1171.55,-364.382C1186.91,-362.219 1203.59,-359.944 1219,-358 1335.72,-343.271 1471.77,-328.597 1552.18,-320.182"/>
<polygon fill="midnightblue" stroke="midnightblue" points="1552.61,-323.657 1562.19,-319.137 1551.88,-316.695 1552.61,-323.657"/>
</g>
<!-- Node29&#45;&gt;Node11 -->
<g id="edge66" class="edge"><title>Node29&#45;&gt;Node11</title>
<path fill="none" stroke="midnightblue" d="M1228.4,-358.959C1195.4,-350.122 1153.08,-337.379 1117,-322 950.962,-251.235 928.274,-195.53 763,-123 721.608,-104.835 671.533,-89.6796 639.72,-80.8488"/>
<polygon fill="midnightblue" stroke="midnightblue" points="640.636,-77.4709 630.067,-78.2081 638.789,-84.2228 640.636,-77.4709"/>
</g>
<!-- Node29&#45;&gt;Node14 -->
<g id="edge64" class="edge"><title>Node29&#45;&gt;Node14</title>
<path fill="none" stroke="midnightblue" d="M1228.48,-364.566C1198.29,-357.736 1162.1,-345.134 1137,-322 1086.6,-275.551 1070.6,-190.215 1065.85,-152.62"/>
<polygon fill="midnightblue" stroke="midnightblue" points="1069.32,-152.124 1064.72,-142.581 1062.36,-152.911 1069.32,-152.124"/>
</g>
<!-- Node29&#45;&gt;Node20 -->
<g id="edge67" class="edge"><title>Node29&#45;&gt;Node20</title>
<path fill="none" stroke="midnightblue" d="M1332.78,-358.367C1386.45,-343.137 1475.38,-318.825 1553,-302 1696.25,-270.947 1733,-267.388 1878,-246 2007.8,-226.855 2045.24,-247.4 2171,-210 2221.03,-195.122 2274.72,-165.315 2303.94,-147.776"/>
<polygon fill="midnightblue" stroke="midnightblue" points="2305.81,-150.736 2312.53,-142.547 2302.17,-144.756 2305.81,-150.736"/>
</g>
<!-- Node29&#45;&gt;Node26 -->
<g id="edge65" class="edge"><title>Node29&#45;&gt;Node26</title>
<path fill="none" stroke="midnightblue" d="M1339.75,-360.754C1344.56,-359.799 1349.36,-358.869 1354,-358 1423.27,-345.016 1502.94,-331.863 1557.3,-323.159"/>
<polygon fill="midnightblue" stroke="midnightblue" points="1558.16,-326.566 1567.48,-321.533 1557.06,-319.654 1558.16,-326.566"/>
</g>
<!-- Node30&#45;&gt;Node4 -->
<g id="edge74" class="edge"><title>Node30&#45;&gt;Node4</title>
<path fill="none" stroke="midnightblue" d="M1326.39,-481.441C1403.31,-455.149 1632.05,-374.178 1690,-322 1732.44,-283.784 1734.25,-263.947 1753,-210 1759.56,-191.115 1762.55,-168.334 1763.91,-152.668"/>
<polygon fill="midnightblue" stroke="midnightblue" points="1767.4,-152.902 1764.63,-142.675 1760.42,-152.397 1767.4,-152.902"/>
</g>
<!-- Node30&#45;&gt;Node11 -->
<g id="edge76" class="edge"><title>Node30&#45;&gt;Node11</title>
<path fill="none" stroke="midnightblue" d="M1260.81,-489.754C1134.69,-488.081 750.345,-475.821 670,-389 590.281,-302.856 599.544,-145.581 605.518,-91.4195"/>
<polygon fill="midnightblue" stroke="midnightblue" points="609.024,-91.578 606.743,-81.2316 602.074,-90.7421 609.024,-91.578"/>
</g>
<!-- Node30&#45;&gt;Node15 -->
<g id="edge75" class="edge"><title>Node30&#45;&gt;Node15</title>
<path fill="none" stroke="midnightblue" d="M1283.97,-481.324C1266.97,-472.664 1240.62,-459.242 1221.01,-449.249"/>
<polygon fill="midnightblue" stroke="midnightblue" points="1222.49,-446.075 1211.99,-444.655 1219.31,-452.312 1222.49,-446.075"/>
</g>
<!-- Node31&#45;&gt;Node3 -->
<g id="edge83" class="edge"><title>Node31&#45;&gt;Node3</title>
<path fill="none" stroke="midnightblue" d="M1131.76,-594.605C1182.63,-584.897 1271.96,-567.853 1327.33,-557.287"/>
<polygon fill="midnightblue" stroke="midnightblue" points="1328.09,-560.705 1337.26,-555.392 1326.78,-553.829 1328.09,-560.705"/>
</g>
<!-- Node31&#45;&gt;Node4 -->
<g id="edge79" class="edge"><title>Node31&#45;&gt;Node4</title>
<path fill="none" stroke="midnightblue" d="M1131.63,-594.8C1168.56,-587.345 1225.5,-574.351 1273,-557 1377.31,-518.9 1636.1,-401.14 1714,-322 1753.18,-282.195 1761.47,-265.034 1771,-210 1774.34,-190.691 1771.81,-168.294 1769.08,-152.841"/>
<polygon fill="midnightblue" stroke="midnightblue" points="1772.51,-152.097 1767.14,-142.959 1765.64,-153.446 1772.51,-152.097"/>
</g>
<!-- Node31&#45;&gt;Node10 -->
<g id="edge87" class="edge"><title>Node31&#45;&gt;Node10</title>
<path fill="none" stroke="midnightblue" d="M1054.19,-595.737C948.925,-578.444 663.795,-529.436 632,-501 582.983,-457.161 580.778,-422.418 594,-358 634.919,-158.644 787.844,-164.883 987,-123 1065.4,-106.511 1157.26,-89.7559 1210.52,-80.2907"/>
<polygon fill="midnightblue" stroke="midnightblue" points="1211.4,-83.6882 1220.64,-78.4972 1210.18,-76.7956 1211.4,-83.6882"/>
</g>
<!-- Node31&#45;&gt;Node11 -->
<g id="edge84" class="edge"><title>Node31&#45;&gt;Node11</title>
<path fill="none" stroke="midnightblue" d="M1054.34,-602.94C982.768,-603.519 825.642,-599.312 702,-557 685.774,-551.447 684.885,-543.465 669,-537 603.495,-510.339 580.436,-525.247 514,-501 397.766,-458.579 266,-498.233 266,-374.5 266,-374.5 266,-374.5 266,-193.5 266,-157.475 276.476,-143.644 306,-123 349.214,-92.7843 506.815,-79.0723 575.563,-74.4308"/>
<polygon fill="midnightblue" stroke="midnightblue" points="576.052,-77.9065 585.803,-73.7627 575.596,-70.9213 576.052,-77.9065"/>
</g>
<!-- Node31&#45;&gt;Node15 -->
<g id="edge80" class="edge"><title>Node31&#45;&gt;Node15</title>
<path fill="none" stroke="midnightblue" d="M1098.48,-593.075C1114.75,-566.606 1162.92,-488.209 1184.43,-453.21"/>
<polygon fill="midnightblue" stroke="midnightblue" points="1187.48,-454.921 1189.74,-444.568 1181.52,-451.256 1187.48,-454.921"/>
</g>
<!-- Node31&#45;&gt;Node22 -->
<g id="edge86" class="edge"><title>Node31&#45;&gt;Node22</title>
<path fill="none" stroke="midnightblue" d="M1054.29,-600.251C990.064,-596.615 857.879,-586.001 750,-557 727.681,-551 723.95,-544.232 702,-537 638.524,-516.086 616.512,-529.369 556,-501 491.11,-470.578 456,-446.168 456,-374.5 456,-374.5 456,-374.5 456,-311 456,-250.842 429.385,-183.216 415.385,-151.806"/>
<polygon fill="midnightblue" stroke="midnightblue" points="418.519,-150.244 411.178,-142.605 412.154,-153.155 418.519,-150.244"/>
</g>
<!-- Node31&#45;&gt;Node26 -->
<g id="edge81" class="edge"><title>Node31&#45;&gt;Node26</title>
<path fill="none" stroke="midnightblue" d="M1102.85,-593.231C1126.99,-572.035 1191.54,-517.105 1252,-481 1370.1,-410.468 1522.95,-349.915 1589.1,-325.059"/>
<polygon fill="midnightblue" stroke="midnightblue" points="1590.44,-328.295 1598.58,-321.517 1587.99,-321.737 1590.44,-328.295"/>
</g>
<!-- Node31&#45;&gt;Node30 -->
<g id="edge82" class="edge"><title>Node31&#45;&gt;Node30</title>
<path fill="none" stroke="midnightblue" d="M1131.72,-597.149C1164.58,-591.591 1211.84,-580.083 1247,-557 1265.71,-544.715 1281.3,-523.984 1290.84,-509.239"/>
<polygon fill="midnightblue" stroke="midnightblue" points="1293.93,-510.908 1296.21,-500.563 1287.97,-507.225 1293.93,-510.908"/>
</g>
<!-- Node32 -->
<g id="node32" class="node"><title>Node32</title>
<polygon fill="white" stroke="#bfbfbf" points="598,-537.5 598,-556.5 660,-556.5 660,-537.5 598,-537.5"/>
<text text-anchor="middle" x="629" y="-544.5" font-family="Helvetica,sans-Serif" font-size="10.00">algorithm</text>
</g>
<!-- Node31&#45;&gt;Node32 -->
<g id="edge85" class="edge"><title>Node31&#45;&gt;Node32</title>
<path fill="none" stroke="midnightblue" d="M1054.43,-599.032C980.41,-593.075 813.389,-578.379 674,-557 672.897,-556.831 671.781,-556.653 670.655,-556.469"/>
<polygon fill="midnightblue" stroke="midnightblue" points="670.864,-552.952 660.407,-554.658 669.645,-559.845 670.864,-552.952"/>
</g>
<!-- Node33&#45;&gt;Node10 -->
<g id="edge102" class="edge"><title>Node33&#45;&gt;Node10</title>
<path fill="none" stroke="midnightblue" d="M950.294,-711.043C799.337,-701.056 342,-665.709 342,-604 342,-604 342,-604 342,-546 342,-242.181 581.319,-183.758 879,-123 910.924,-116.484 1118.14,-89.8702 1210.59,-78.1204"/>
<polygon fill="midnightblue" stroke="midnightblue" points="1211.27,-81.562 1220.75,-76.8301 1210.39,-74.6178 1211.27,-81.562"/>
</g>
<!-- Node33&#45;&gt;Node11 -->
<g id="edge103" class="edge"><title>Node33&#45;&gt;Node11</title>
<path fill="none" stroke="midnightblue" d="M950.319,-713.049C799.845,-709.259 337.683,-691.354 214,-613 155.065,-575.664 114,-561.766 114,-492 114,-492 114,-492 114,-193.5 114,-157.253 124.632,-142.789 155,-123 224.513,-77.7019 484.097,-72.7297 575.725,-72.4129"/>
<polygon fill="midnightblue" stroke="midnightblue" points="575.803,-75.9129 585.796,-72.395 575.79,-68.9129 575.803,-75.9129"/>
</g>
<!-- Node33&#45;&gt;Node31 -->
<g id="edge89" class="edge"><title>Node33&#45;&gt;Node31</title>
<path fill="none" stroke="midnightblue" d="M1005.45,-705.368C1021.27,-687.055 1058.41,-644.049 1078.87,-620.362"/>
<polygon fill="midnightblue" stroke="midnightblue" points="1081.69,-622.447 1085.58,-612.591 1076.4,-617.872 1081.69,-622.447"/>
</g>
<!-- Node34 -->
<g id="node34" class="node"><title>Node34</title>
<g id="a_node34"><a xlink:href="ir_2attrs_8h.html" target="_top" xlink:title="Helpers for attribute objects. ">
<polygon fill="white" stroke="black" points="1952.5,-649.5 1952.5,-668.5 2031.5,-668.5 2031.5,-649.5 1952.5,-649.5"/>
<text text-anchor="middle" x="1992" y="-656.5" font-family="Helvetica,sans-Serif" font-size="10.00">tvm/ir/attrs.h</text>
</a>
</g>
</g>
<!-- Node33&#45;&gt;Node34 -->
<g id="edge90" class="edge"><title>Node33&#45;&gt;Node34</title>
<path fill="none" stroke="midnightblue" d="M1045.61,-711.414C1212.69,-702.337 1771.46,-671.981 1942.09,-662.711"/>
<polygon fill="midnightblue" stroke="midnightblue" points="1942.5,-666.195 1952.29,-662.157 1942.12,-659.205 1942.5,-666.195"/>
</g>
<!-- Node34&#45;&gt;Node10 -->
<g id="edge99" class="edge"><title>Node34&#45;&gt;Node10</title>
<path fill="none" stroke="midnightblue" d="M1987.95,-649.201C1981.84,-636.33 1969.55,-611.855 1956,-593 1904.87,-521.856 1767.12,-343.576 1690,-302 1600.86,-253.941 1560.36,-300.094 1465,-266 1418.49,-249.371 1406.67,-241.947 1369,-210 1325.21,-172.864 1285.12,-117.513 1266.29,-89.7254"/>
<polygon fill="midnightblue" stroke="midnightblue" points="1269.01,-87.4944 1260.55,-81.1213 1263.19,-91.3814 1269.01,-87.4944"/>
</g>
<!-- Node34&#45;&gt;Node11 -->
<g id="edge100" class="edge"><title>Node34&#45;&gt;Node11</title>
<path fill="none" stroke="midnightblue" d="M1952.42,-651.342C1903.89,-643.037 1819.18,-628.084 1747,-613 1602.22,-582.742 1568.5,-563.599 1423,-537 1115.63,-480.808 1017.86,-556.594 726,-445 615.109,-402.6 605.333,-328.552 599,-210 596.937,-171.388 595.595,-161.516 599,-123 599.947,-112.288 602.003,-100.446 603.911,-90.9234"/>
<polygon fill="midnightblue" stroke="midnightblue" points="607.361,-91.5243 606.008,-81.0163 600.513,-90.0749 607.361,-91.5243"/>
</g>
<!-- Node34&#45;&gt;Node12 -->
<g id="edge101" class="edge"><title>Node34&#45;&gt;Node12</title>
<path fill="none" stroke="midnightblue" d="M2031.73,-654.109C2172.38,-637.939 2648.24,-562.3 2835,-266 2870.9,-209.042 2928.13,-174.702 2885,-123 2854,-85.842 2705.28,-75.9537 2639.46,-73.3802"/>
<polygon fill="midnightblue" stroke="midnightblue" points="2639.39,-69.8756 2629.27,-73.0149 2639.14,-76.8711 2639.39,-69.8756"/>
</g>
<!-- Node34&#45;&gt;Node19 -->
<g id="edge95" class="edge"><title>Node34&#45;&gt;Node19</title>
<path fill="none" stroke="midnightblue" d="M1994.97,-649.279C2000.97,-630.824 2014,-586.367 2014,-548 2014,-548 2014,-548 2014,-434 2014,-350.019 2004.47,-324.986 2033,-246 2036.57,-236.114 2042.5,-226.287 2048.41,-217.966"/>
<polygon fill="midnightblue" stroke="midnightblue" points="2051.26,-219.998 2054.47,-209.9 2045.67,-215.793 2051.26,-219.998"/>
</g>
<!-- Node34&#45;&gt;Node20 -->
<g id="edge98" class="edge"><title>Node34&#45;&gt;Node20</title>
<path fill="none" stroke="midnightblue" d="M2006.9,-649.205C2019.64,-641.091 2037.8,-628.049 2050,-613 2091.06,-562.353 2073.56,-532.141 2114,-481 2183.36,-393.286 2256.52,-420.748 2309,-322 2338.57,-266.359 2333.31,-188.252 2328.86,-152.81"/>
<polygon fill="midnightblue" stroke="midnightblue" points="2332.28,-151.944 2327.43,-142.52 2325.34,-152.906 2332.28,-151.944"/>
</g>
<!-- Node34&#45;&gt;Node21 -->
<g id="edge97" class="edge"><title>Node34&#45;&gt;Node21</title>
<path fill="none" stroke="midnightblue" d="M2011.02,-649.456C2027.77,-641.415 2052.35,-628.337 2071,-613 2130.88,-563.771 2122.9,-527.401 2185,-481 2370.63,-342.289 2534.39,-460.733 2660,-266 2679.82,-235.267 2643.3,-198.12 2622,-179 2601.94,-160.992 2573.56,-149.37 2551.52,-142.456"/>
<polygon fill="midnightblue" stroke="midnightblue" points="2552.47,-139.087 2541.89,-139.605 2550.48,-145.8 2552.47,-139.087"/>
</g>
<!-- Node34&#45;&gt;Node27 -->
<g id="edge96" class="edge"><title>Node34&#45;&gt;Node27</title>
<path fill="none" stroke="midnightblue" d="M2000.6,-649.465C2017.19,-632.039 2052,-590.419 2052,-548 2052,-548 2052,-548 2052,-372.5 2052,-336.509 2068.5,-297.088 2079.46,-274.863"/>
<polygon fill="midnightblue" stroke="midnightblue" points="2082.72,-276.176 2084.16,-265.68 2076.49,-272.984 2082.72,-276.176"/>
</g>
<!-- Node34&#45;&gt;Node28 -->
<g id="edge93" class="edge"><title>Node34&#45;&gt;Node28</title>
<path fill="none" stroke="midnightblue" d="M1952.81,-649.443C1915.57,-641.057 1858.12,-627.459 1809,-613 1744.49,-594.011 1313.99,-443.757 1165.91,-391.971"/>
<polygon fill="midnightblue" stroke="midnightblue" points="1166.76,-388.558 1156.16,-388.56 1164.45,-395.165 1166.76,-388.558"/>
</g>
<!-- Node34&#45;&gt;Node29 -->
<g id="edge94" class="edge"><title>Node34&#45;&gt;Node29</title>
<path fill="none" stroke="midnightblue" d="M1952.33,-650.619C1921.28,-643.778 1877.69,-631.783 1843,-613 1762.83,-569.598 1766.9,-523.02 1686,-481 1575.75,-423.736 1432.09,-395.337 1349.74,-382.87"/>
<polygon fill="midnightblue" stroke="midnightblue" points="1350.17,-379.396 1339.76,-381.393 1349.14,-386.32 1350.17,-379.396"/>
</g>
<!-- Node34&#45;&gt;Node31 -->
<g id="edge92" class="edge"><title>Node34&#45;&gt;Node31</title>
<path fill="none" stroke="midnightblue" d="M1952.21,-655.61C1806.32,-646.847 1300.97,-616.492 1141.56,-606.917"/>
<polygon fill="midnightblue" stroke="midnightblue" points="1141.76,-603.423 1131.57,-606.317 1141.34,-610.41 1141.76,-603.423"/>
</g>
<!-- Node35 -->
<g id="node35" class="node"><title>Node35</title>
<polygon fill="white" stroke="#bfbfbf" points="1852.5,-593.5 1852.5,-612.5 1947.5,-612.5 1947.5,-593.5 1852.5,-593.5"/>
<text text-anchor="middle" x="1900" y="-600.5" font-family="Helvetica,sans-Serif" font-size="10.00">dmlc/common.h</text>
</g>
<!-- Node34&#45;&gt;Node35 -->
<g id="edge91" class="edge"><title>Node34&#45;&gt;Node35</title>
<path fill="none" stroke="midnightblue" d="M1977.22,-649.324C1962.73,-640.822 1940.43,-627.729 1923.51,-617.797"/>
<polygon fill="midnightblue" stroke="midnightblue" points="1925.14,-614.698 1914.74,-612.655 1921.6,-620.735 1925.14,-614.698"/>
</g>
<!-- Node36&#45;&gt;Node3 -->
<g id="edge109" class="edge"><title>Node36&#45;&gt;Node3</title>
<path fill="none" stroke="midnightblue" d="M1463.84,-649.332C1454.69,-636.625 1436.8,-612.352 1420,-593 1411.23,-582.893 1400.77,-572.154 1392.26,-563.703"/>
<polygon fill="midnightblue" stroke="midnightblue" points="1394.68,-561.173 1385.09,-556.669 1389.78,-566.17 1394.68,-561.173"/>
</g>
<!-- Node36&#45;&gt;Node4 -->
<g id="edge105" class="edge"><title>Node36&#45;&gt;Node4</title>
<path fill="none" stroke="midnightblue" d="M1506.29,-656.188C1609.96,-648.878 1900,-612.641 1900,-436 1900,-436 1900,-436 1900,-372.5 1900,-277.397 1817.7,-185.407 1781.62,-149.647"/>
<polygon fill="midnightblue" stroke="midnightblue" points="1783.89,-146.977 1774.28,-142.521 1779.01,-151.999 1783.89,-146.977"/>
</g>
<!-- Node36&#45;&gt;Node11 -->
<g id="edge110" class="edge"><title>Node36&#45;&gt;Node11</title>
<path fill="none" stroke="midnightblue" d="M1433.96,-656.384C1288.78,-649.493 747.029,-619.984 589,-557 462.207,-506.465 342,-510.992 342,-374.5 342,-374.5 342,-374.5 342,-255 342,-194.306 333.15,-164.964 377,-123 405.211,-96.0025 519.059,-81.2422 575.687,-75.4405"/>
<polygon fill="midnightblue" stroke="midnightblue" points="576.279,-78.8991 585.885,-74.4295 575.588,-71.9333 576.279,-78.8991"/>
</g>
<!-- Node36&#45;&gt;Node15 -->
<g id="edge106" class="edge"><title>Node36&#45;&gt;Node15</title>
<path fill="none" stroke="midnightblue" d="M1468.32,-649.295C1463.92,-628.239 1450.45,-573.6 1423,-537 1382.61,-483.149 1307.18,-457.454 1254.17,-445.579"/>
<polygon fill="midnightblue" stroke="midnightblue" points="1254.73,-442.119 1244.22,-443.451 1253.27,-448.964 1254.73,-442.119"/>
</g>
<!-- Node36&#45;&gt;Node26 -->
<g id="edge107" class="edge"><title>Node36&#45;&gt;Node26</title>
<path fill="none" stroke="midnightblue" d="M1506.06,-653.482C1581.28,-641.833 1748,-603.443 1748,-492 1748,-492 1748,-492 1748,-434 1748,-381.242 1689.82,-344.313 1652.53,-326.062"/>
<polygon fill="midnightblue" stroke="midnightblue" points="1653.63,-322.71 1643.09,-321.618 1650.65,-329.044 1653.63,-322.71"/>
</g>
<!-- Node36&#45;&gt;Node31 -->
<g id="edge108" class="edge"><title>Node36&#45;&gt;Node31</title>
<path fill="none" stroke="midnightblue" d="M1433.85,-652.822C1365.82,-643.078 1218.71,-622.006 1141.91,-611.006"/>
<polygon fill="midnightblue" stroke="midnightblue" points="1141.95,-607.476 1131.56,-609.523 1140.96,-614.406 1141.95,-607.476"/>
</g>
<!-- Node38&#45;&gt;Node2 -->
<g id="edge138" class="edge"><title>Node38&#45;&gt;Node2</title>
<path fill="none" stroke="midnightblue" d="M1496.95,-931.19C1469.7,-925.143 1436.28,-913.864 1413,-893 1381.98,-865.201 1366.45,-816.953 1359.93,-790.56"/>
<polygon fill="midnightblue" stroke="midnightblue" points="1363.31,-789.674 1357.66,-780.711 1356.49,-791.24 1363.31,-789.674"/>
</g>
<!-- Node38&#45;&gt;Node11 -->
<g id="edge139" class="edge"><title>Node38&#45;&gt;Node11</title>
<path fill="none" stroke="midnightblue" d="M1496.95,-938.003C1238.19,-937.412 0,-926.515 0,-772 0,-772 0,-772 0,-193.5 0,-152.926 22.1422,-141.987 58,-123 148.643,-75.0046 471.874,-71.9594 575.664,-72.2547"/>
<polygon fill="midnightblue" stroke="midnightblue" points="575.825,-75.7553 585.839,-72.2967 575.854,-68.7553 575.825,-75.7553"/>
</g>
<!-- Node38&#45;&gt;Node20 -->
<g id="edge140" class="edge"><title>Node38&#45;&gt;Node20</title>
<path fill="none" stroke="midnightblue" d="M1591.01,-937.197C1774.99,-933.441 2436,-913.965 2436,-828 2436,-828 2436,-828 2436,-658 2436,-462.67 2696.71,-408.946 2589,-246 2539.46,-171.055 2428.47,-146.098 2367.71,-137.908"/>
<polygon fill="midnightblue" stroke="midnightblue" points="2368.05,-134.423 2357.69,-136.648 2367.18,-141.369 2368.05,-134.423"/>
</g>
<!-- Node38&#45;&gt;Node31 -->
<g id="edge117" class="edge"><title>Node38&#45;&gt;Node31</title>
<path fill="none" stroke="midnightblue" d="M1496.99,-937.157C1313.82,-933.26 658,-913.347 658,-828 658,-828 658,-828 658,-714 658,-635.061 930.647,-612.167 1044.24,-606.055"/>
<polygon fill="midnightblue" stroke="midnightblue" points="1044.59,-609.541 1054.4,-605.53 1044.23,-602.551 1044.59,-609.541"/>
</g>
<!-- Node38&#45;&gt;Node34 -->
<g id="edge116" class="edge"><title>Node38&#45;&gt;Node34</title>
<path fill="none" stroke="midnightblue" d="M1591.05,-934.062C1729.37,-921.859 2125,-882.217 2125,-828 2125,-828 2125,-828 2125,-770 2125,-719.725 2067.87,-688.101 2028.5,-672.275"/>
<polygon fill="midnightblue" stroke="midnightblue" points="2029.5,-668.912 2018.91,-668.59 2026.99,-675.446 2029.5,-668.912"/>
</g>
<!-- Node39 -->
<g id="node39" class="node"><title>Node39</title>
<g id="a_node39"><a xlink:href="ir_2op_8h.html" target="_top" xlink:title="Primitive operators(builtin intrinsics) and registry for them. ">
<polygon fill="white" stroke="black" points="2179,-873.5 2179,-892.5 2247,-892.5 2247,-873.5 2179,-873.5"/>
<text text-anchor="middle" x="2213" y="-880.5" font-family="Helvetica,sans-Serif" font-size="10.00">tvm/ir/op.h</text>
</a>
</g>
</g>
<!-- Node38&#45;&gt;Node39 -->
<g id="edge118" class="edge"><title>Node38&#45;&gt;Node39</title>
<path fill="none" stroke="midnightblue" d="M1591.11,-935.169C1691.81,-928.956 1935.39,-913.071 2139,-893 2148.65,-892.048 2159,-890.882 2168.8,-889.709"/>
<polygon fill="midnightblue" stroke="midnightblue" points="2169.27,-893.178 2178.77,-888.492 2168.42,-886.23 2169.27,-893.178"/>
</g>
<!-- Node44 -->
<g id="node44" class="node"><title>Node44</title>
<g id="a_node44"><a xlink:href="base_8h.html" target="_top" xlink:title="Base classes for the Relay IR. ">
<polygon fill="white" stroke="black" points="1506.5,-705.5 1506.5,-724.5 1561.5,-724.5 1561.5,-705.5 1506.5,-705.5"/>
<text text-anchor="middle" x="1534" y="-712.5" font-family="Helvetica,sans-Serif" font-size="10.00">./base.h</text>
</a>
</g>
</g>
<!-- Node38&#45;&gt;Node44 -->
<g id="edge141" class="edge"><title>Node38&#45;&gt;Node44</title>
<path fill="none" stroke="midnightblue" d="M1543.61,-929.297C1542.14,-896.633 1536.92,-780.866 1534.85,-734.957"/>
<polygon fill="midnightblue" stroke="midnightblue" points="1538.35,-734.716 1534.4,-724.884 1531.35,-735.031 1538.35,-734.716"/>
</g>
<!-- Node46 -->
<g id="node46" class="node"><title>Node46</title>
<g id="a_node46"><a xlink:href="relay_2type_8h.html" target="_top" xlink:title="Relay typed AST nodes. ">
<polygon fill="white" stroke="black" points="1422.5,-873.5 1422.5,-892.5 1475.5,-892.5 1475.5,-873.5 1422.5,-873.5"/>
<text text-anchor="middle" x="1449" y="-880.5" font-family="Helvetica,sans-Serif" font-size="10.00">./type.h</text>
</a>
</g>
</g>
<!-- Node38&#45;&gt;Node46 -->
<g id="edge157" class="edge"><title>Node38&#45;&gt;Node46</title>
<path fill="none" stroke="midnightblue" d="M1528.74,-929.324C1513.78,-920.822 1490.75,-907.729 1473.27,-897.797"/>
<polygon fill="midnightblue" stroke="midnightblue" points="1474.65,-894.553 1464.23,-892.655 1471.19,-900.639 1474.65,-894.553"/>
</g>
<!-- Node39&#45;&gt;Node3 -->
<g id="edge127" class="edge"><title>Node39&#45;&gt;Node3</title>
<path fill="none" stroke="midnightblue" d="M2187.56,-873.494C2105.33,-846.214 1839,-759.53 1614,-705 1530.9,-684.859 1491.11,-723.24 1425,-669 1408.62,-655.556 1390.02,-597.171 1381.19,-566.688"/>
<polygon fill="midnightblue" stroke="midnightblue" points="1384.49,-565.519 1378.4,-556.854 1377.76,-567.43 1384.49,-565.519"/>
</g>
<!-- Node39&#45;&gt;Node11 -->
<g id="edge135" class="edge"><title>Node39&#45;&gt;Node11</title>
<path fill="none" stroke="midnightblue" d="M2178.87,-880.61C2081.73,-876.448 1795.47,-862.75 1559,-837 928.717,-768.365 190,-1070.01 190,-436 190,-436 190,-436 190,-193.5 190,-153.207 211.932,-142.844 247,-123 303.022,-91.2992 497.971,-78.0912 575.672,-74.0036"/>
<polygon fill="midnightblue" stroke="midnightblue" points="576.022,-77.4904 585.831,-73.4863 575.666,-70.4994 576.022,-77.4904"/>
</g>
<!-- Node39&#45;&gt;Node12 -->
<g id="edge136" class="edge"><title>Node39&#45;&gt;Node12</title>
<path fill="none" stroke="midnightblue" d="M2247.14,-878.329C2297.31,-872.434 2393.59,-859.21 2473,-837 2740.07,-762.306 3026,-825.317 3026,-548 3026,-548 3026,-548 3026,-490 3026,-326.886 3146.27,-230.96 3024,-123 2967,-72.6729 2725.73,-70.8635 2639.12,-71.8937"/>
<polygon fill="midnightblue" stroke="midnightblue" points="2639.06,-68.394 2629.11,-72.0341 2639.16,-75.3934 2639.06,-68.394"/>
</g>
<!-- Node39&#45;&gt;Node21 -->
<g id="edge137" class="edge"><title>Node39&#45;&gt;Node21</title>
<path fill="none" stroke="midnightblue" d="M2247.13,-880.59C2293.7,-877.526 2378.8,-867.809 2444,-837 2491.95,-814.342 2488.97,-785.509 2536,-761 2671.79,-690.242 2735.89,-746.397 2868,-669 2933.35,-630.715 2988,-623.74 2988,-548 2988,-548 2988,-548 2988,-372.5 2988,-263.139 2935.63,-224.104 2836,-179 2785.75,-156.251 2623.24,-141.787 2552,-136.39"/>
<polygon fill="midnightblue" stroke="midnightblue" points="2552.01,-132.881 2541.78,-135.63 2551.49,-139.862 2552.01,-132.881"/>
</g>
<!-- Node39&#45;&gt;Node31 -->
<g id="edge126" class="edge"><title>Node39&#45;&gt;Node31</title>
<path fill="none" stroke="midnightblue" d="M2178.89,-878.867C2023.58,-864.516 1387.2,-804.742 1301,-781 1206.5,-754.97 1164.09,-751.401 1111,-669 1101.98,-655.004 1097.43,-636.504 1095.16,-622.82"/>
<polygon fill="midnightblue" stroke="midnightblue" points="1098.59,-622.085 1093.75,-612.663 1091.66,-623.05 1098.59,-622.085"/>
</g>
<!-- Node39&#45;&gt;Node34 -->
<g id="edge120" class="edge"><title>Node39&#45;&gt;Node34</title>
<path fill="none" stroke="midnightblue" d="M2211.94,-873.134C2208.05,-844.386 2191.83,-752.846 2139,-705 2112.43,-680.935 2073.27,-669.735 2042.05,-664.525"/>
<polygon fill="midnightblue" stroke="midnightblue" points="2042.21,-661.009 2031.8,-662.977 2041.17,-667.93 2042.21,-661.009"/>
</g>
<!-- Node40 -->
<g id="node40" class="node"><title>Node40</title>
<polygon fill="white" stroke="#bfbfbf" points="2322,-817.5 2322,-836.5 2408,-836.5 2408,-817.5 2322,-817.5"/>
<text text-anchor="middle" x="2365" y="-824.5" font-family="Helvetica,sans-Serif" font-size="10.00">dmlc/registry.h</text>
</g>
<!-- Node39&#45;&gt;Node40 -->
<g id="edge119" class="edge"><title>Node39&#45;&gt;Node40</title>
<path fill="none" stroke="midnightblue" d="M2237.08,-873.444C2262.54,-864.399 2302.89,-850.064 2331.46,-839.916"/>
<polygon fill="midnightblue" stroke="midnightblue" points="2332.78,-843.162 2341.03,-836.516 2330.43,-836.566 2332.78,-843.162"/>
</g>
<!-- Node41 -->
<g id="node41" class="node"><title>Node41</title>
<g id="a_node41"><a xlink:href="registry_8h.html" target="_top" xlink:title="This file defines the TVM global function registry. ">
<polygon fill="white" stroke="black" points="2458,-246.5 2458,-265.5 2580,-265.5 2580,-246.5 2458,-246.5"/>
<text text-anchor="middle" x="2519" y="-253.5" font-family="Helvetica,sans-Serif" font-size="10.00">tvm/runtime/registry.h</text>
</a>
</g>
</g>
<!-- Node39&#45;&gt;Node41 -->
<g id="edge121" class="edge"><title>Node39&#45;&gt;Node41</title>
<path fill="none" stroke="midnightblue" d="M2247.29,-881.156C2289.99,-878.67 2363.78,-869.544 2417,-837 2481.91,-797.308 2459.43,-741.833 2526,-705 2673.14,-623.591 2810.62,-759.594 2893,-613 2941.31,-527.044 2630.42,-325.937 2541.99,-271.052"/>
<polygon fill="midnightblue" stroke="midnightblue" points="2543.59,-267.924 2533.24,-265.647 2539.91,-273.88 2543.59,-267.924"/>
</g>
<!-- Node42 -->
<g id="node42" class="node"><title>Node42</title>
<g id="a_node42"><a xlink:href="type__relation_8h.html" target="_top" xlink:title="Type relation and function for type inference(checking). ">
<polygon fill="white" stroke="black" points="1821.5,-817.5 1821.5,-836.5 1940.5,-836.5 1940.5,-817.5 1821.5,-817.5"/>
<text text-anchor="middle" x="1881" y="-824.5" font-family="Helvetica,sans-Serif" font-size="10.00">tvm/ir/type_relation.h</text>
</a>
</g>
</g>
<!-- Node39&#45;&gt;Node42 -->
<g id="edge128" class="edge"><title>Node39&#45;&gt;Node42</title>
<path fill="none" stroke="midnightblue" d="M2178.72,-876.424C2123.29,-867.409 2013.19,-849.501 1943.53,-838.17"/>
<polygon fill="midnightblue" stroke="midnightblue" points="1943.98,-834.698 1933.55,-836.548 1942.86,-841.608 1943.98,-834.698"/>
</g>
<!-- Node41&#45;&gt;Node11 -->
<g id="edge123" class="edge"><title>Node41&#45;&gt;Node11</title>
<path fill="none" stroke="midnightblue" d="M2457.73,-251.513C2329.85,-243.969 2042.89,-225.559 2001,-210 1978.91,-201.797 1978.43,-190.736 1958,-179 1904.86,-148.474 1891.67,-136.955 1832,-123 1817.05,-119.504 832.404,-81.1963 640.292,-73.75"/>
<polygon fill="midnightblue" stroke="midnightblue" points="640.386,-70.2511 630.258,-73.3612 640.115,-77.2458 640.386,-70.2511"/>
</g>
<!-- Node41&#45;&gt;Node12 -->
<g id="edge125" class="edge"><title>Node41&#45;&gt;Node12</title>
<path fill="none" stroke="midnightblue" d="M2523.29,-246.198C2537.07,-217.952 2580.35,-129.2 2599.14,-90.6606"/>
<polygon fill="midnightblue" stroke="midnightblue" points="2602.51,-91.7364 2603.75,-81.214 2596.22,-88.668 2602.51,-91.7364"/>
</g>
<!-- Node41&#45;&gt;Node19 -->
<g id="edge122" class="edge"><title>Node41&#45;&gt;Node19</title>
<path fill="none" stroke="midnightblue" d="M2457.57,-246.914C2372.94,-235.773 2221.06,-215.78 2133.72,-204.283"/>
<polygon fill="midnightblue" stroke="midnightblue" points="2134.03,-200.794 2123.66,-202.959 2133.12,-207.734 2134.03,-200.794"/>
</g>
<!-- Node41&#45;&gt;Node21 -->
<g id="edge124" class="edge"><title>Node41&#45;&gt;Node21</title>
<path fill="none" stroke="midnightblue" d="M2518.93,-246.298C2518.77,-226.85 2518.38,-179.49 2518.16,-152.904"/>
<polygon fill="midnightblue" stroke="midnightblue" points="2521.65,-152.594 2518.07,-142.623 2514.65,-152.652 2521.65,-152.594"/>
</g>
<!-- Node42&#45;&gt;Node2 -->
<g id="edge130" class="edge"><title>Node42&#45;&gt;Node2</title>
<path fill="none" stroke="midnightblue" d="M1821.29,-819.858C1719.15,-809.352 1512.27,-788.074 1412.43,-777.804"/>
<polygon fill="midnightblue" stroke="midnightblue" points="1412.55,-774.298 1402.24,-776.756 1411.83,-781.261 1412.55,-774.298"/>
</g>
<!-- Node42&#45;&gt;Node3 -->
<g id="edge129" class="edge"><title>Node42&#45;&gt;Node3</title>
<path fill="none" stroke="midnightblue" d="M1862.46,-817.487C1814.84,-795.91 1683.97,-738.427 1570,-705 1492.55,-682.284 1447.1,-727.982 1392,-669 1366.17,-641.348 1368.59,-593.397 1372.42,-566.921"/>
<polygon fill="midnightblue" stroke="midnightblue" points="1375.93,-567.154 1374.12,-556.714 1369.02,-566.001 1375.93,-567.154"/>
</g>
<!-- Node42&#45;&gt;Node34 -->
<g id="edge134" class="edge"><title>Node42&#45;&gt;Node34</title>
<path fill="none" stroke="midnightblue" d="M1895.51,-817.302C1919.45,-802.04 1966.62,-767.942 1987,-725 1993.82,-710.621 1994.66,-692.426 1994.03,-678.946"/>
<polygon fill="midnightblue" stroke="midnightblue" points="1997.51,-678.618 1993.25,-668.919 1990.53,-679.159 1997.51,-678.618"/>
</g>
<!-- Node43 -->
<g id="node43" class="node"><title>Node43</title>
<g id="a_node43"><a xlink:href="env__func_8h.html" target="_top" xlink:title="Serializable global function used in IR. ">
<polygon fill="white" stroke="red" points="2194.5,-481.5 2194.5,-500.5 2293.5,-500.5 2293.5,-481.5 2194.5,-481.5"/>
<text text-anchor="middle" x="2244" y="-488.5" font-family="Helvetica,sans-Serif" font-size="10.00">tvm/ir/env_func.h</text>
</a>
</g>
</g>
<!-- Node42&#45;&gt;Node43 -->
<g id="edge131" class="edge"><title>Node42&#45;&gt;Node43</title>
<path fill="none" stroke="midnightblue" d="M1908.43,-817.488C1974.14,-795.548 2140.82,-730.406 2218,-613 2236.87,-584.3 2224.46,-570.508 2232,-537 2233.98,-528.215 2236.51,-518.556 2238.73,-510.447"/>
<polygon fill="midnightblue" stroke="midnightblue" points="2242.17,-511.151 2241.5,-500.577 2235.43,-509.261 2242.17,-511.151"/>
</g>
<!-- Node43&#45;&gt;Node11 -->
<g id="edge132" class="edge"><title>Node43&#45;&gt;Node11</title>
<path fill="none" stroke="midnightblue" d="M2194.11,-490.282C1942.63,-491.239 821.43,-489.796 708,-389 661.766,-347.915 622.756,-153.188 611.363,-91.3763"/>
<polygon fill="midnightblue" stroke="midnightblue" points="614.739,-90.3731 609.51,-81.1581 607.851,-91.6222 614.739,-90.3731"/>
</g>
<!-- Node43&#45;&gt;Node12 -->
<g id="edge133" class="edge"><title>Node43&#45;&gt;Node12</title>
<path fill="none" stroke="midnightblue" d="M2293.8,-486.757C2406.65,-476.503 2682.11,-434.56 2812,-266 2853.37,-212.311 2908.06,-175.345 2865,-123 2836.74,-88.6423 2701.52,-77.3034 2639.37,-73.8674"/>
<polygon fill="midnightblue" stroke="midnightblue" points="2639.52,-70.3705 2629.36,-73.3475 2639.16,-77.3611 2639.52,-70.3705"/>
</g>
<!-- Node44&#45;&gt;Node11 -->
<g id="edge155" class="edge"><title>Node44&#45;&gt;Node11</title>
<path fill="none" stroke="midnightblue" d="M1506.1,-713.628C1365.55,-711.621 734.247,-700.949 541,-669 467.427,-656.836 228,-622.572 228,-548 228,-548 228,-548 228,-193.5 228,-154.828 245.999,-143.161 279,-123 328.484,-92.7683 502.588,-78.9003 575.501,-74.3194"/>
<polygon fill="midnightblue" stroke="midnightblue" points="576.13,-77.7876 585.899,-73.6864 575.705,-70.8006 576.13,-77.7876"/>
</g>
<!-- Node44&#45;&gt;Node15 -->
<g id="edge154" class="edge"><title>Node44&#45;&gt;Node15</title>
<path fill="none" stroke="midnightblue" d="M1535.78,-705.281C1538,-692.511 1540.74,-668.16 1534,-649 1500.86,-554.86 1472.78,-528.492 1385,-481 1344.49,-459.085 1293.47,-447.756 1254.5,-441.95"/>
<polygon fill="midnightblue" stroke="midnightblue" points="1254.75,-438.451 1244.36,-440.522 1253.77,-445.382 1254.75,-438.451"/>
</g>
<!-- Node44&#45;&gt;Node21 -->
<g id="edge156" class="edge"><title>Node44&#45;&gt;Node21</title>
<path fill="none" stroke="midnightblue" d="M1561.78,-712.822C1684.07,-707.273 2174.31,-681.094 2310,-613 2510.63,-512.319 2609.77,-480.173 2677,-266 2689.09,-227.496 2680.16,-206.903 2651,-179 2623.94,-153.107 2581.46,-142.085 2551.81,-137.411"/>
<polygon fill="midnightblue" stroke="midnightblue" points="2551.91,-133.891 2541.52,-135.96 2550.94,-140.822 2551.91,-133.891"/>
</g>
<!-- Node44&#45;&gt;Node30 -->
<g id="edge142" class="edge"><title>Node44&#45;&gt;Node30</title>
<path fill="none" stroke="midnightblue" d="M1532.58,-705.163C1530.26,-692.245 1524.89,-667.712 1515,-649 1484.91,-592.042 1475.49,-574.337 1423,-537 1400.95,-521.314 1372.8,-510.452 1349.09,-503.334"/>
<polygon fill="midnightblue" stroke="midnightblue" points="1349.82,-499.901 1339.24,-500.51 1347.89,-506.63 1349.82,-499.901"/>
</g>
<!-- Node45 -->
<g id="node45" class="node"><title>Node45</title>
<g id="a_node45"><a xlink:href="tir_2expr_8h.html" target="_top" xlink:title="TIR expressions. ">
<polygon fill="white" stroke="red" points="550,-649.5 550,-668.5 630,-668.5 630,-649.5 550,-649.5"/>
<text text-anchor="middle" x="590" y="-656.5" font-family="Helvetica,sans-Serif" font-size="10.00">tvm/tir/expr.h</text>
</a>
</g>
</g>
<!-- Node44&#45;&gt;Node45 -->
<g id="edge143" class="edge"><title>Node44&#45;&gt;Node45</title>
<path fill="none" stroke="midnightblue" d="M1506.26,-712.413C1374.64,-704.884 812.402,-672.722 640.277,-662.876"/>
<polygon fill="midnightblue" stroke="midnightblue" points="640.408,-659.378 630.224,-662.301 640.008,-666.366 640.408,-659.378"/>
</g>
<!-- Node45&#45;&gt;Node6 -->
<g id="edge146" class="edge"><title>Node45&#45;&gt;Node6</title>
<path fill="none" stroke="midnightblue" d="M549.932,-651.241C471.221,-636.824 304,-600.068 304,-548 304,-548 304,-548 304,-255 304,-187.96 320.541,-159.149 377,-123 427.682,-90.5498 823.384,-77.9087 990.214,-73.9875"/>
<polygon fill="midnightblue" stroke="midnightblue" points="990.47,-77.4826 1000.39,-73.7525 990.309,-70.4844 990.47,-77.4826"/>
</g>
<!-- Node45&#45;&gt;Node11 -->
<g id="edge149" class="edge"><title>Node45&#45;&gt;Node11</title>
<path fill="none" stroke="midnightblue" d="M549.919,-655.658C478.669,-650.901 333.371,-638.338 290,-613 203.871,-562.682 152,-535.751 152,-436 152,-436 152,-436 152,-193.5 152,-160.401 150.253,-143.8 176,-123 237.382,-73.4111 486.484,-71.1326 575.875,-71.9672"/>
<polygon fill="midnightblue" stroke="midnightblue" points="575.922,-75.4679 585.961,-72.0815 576.001,-68.4684 575.922,-75.4679"/>
</g>
<!-- Node45&#45;&gt;Node12 -->
<g id="edge153" class="edge"><title>Node45&#45;&gt;Node12</title>
<path fill="none" stroke="midnightblue" d="M630.45,-656.79C765.747,-652.551 1201.73,-637.303 1340,-613 1462.62,-591.447 2139.68,-430.445 2309,-322 2408.43,-258.32 2388.77,-191.423 2485,-123 2513.4,-102.806 2551.08,-88.8675 2577.21,-80.8294"/>
<polygon fill="midnightblue" stroke="midnightblue" points="2578.37,-84.1371 2586.96,-77.9394 2576.38,-77.4257 2578.37,-84.1371"/>
</g>
<!-- Node45&#45;&gt;Node14 -->
<g id="edge147" class="edge"><title>Node45&#45;&gt;Node14</title>
<path fill="none" stroke="midnightblue" d="M584.647,-649.378C570.289,-625.398 532,-555.498 532,-492 532,-492 532,-492 532,-434 532,-320.022 907.184,-185.907 1027.41,-145.858"/>
<polygon fill="midnightblue" stroke="midnightblue" points="1028.86,-149.064 1037.25,-142.599 1026.66,-142.418 1028.86,-149.064"/>
</g>
<!-- Node45&#45;&gt;Node15 -->
<g id="edge144" class="edge"><title>Node45&#45;&gt;Node15</title>
<path fill="none" stroke="midnightblue" d="M586.582,-649.419C578.55,-627.684 561.163,-569.86 589,-537 658.781,-454.626 997.133,-439.373 1135.67,-436.596"/>
<polygon fill="midnightblue" stroke="midnightblue" points="1135.76,-440.095 1145.69,-436.41 1135.63,-433.096 1135.76,-440.095"/>
</g>
<!-- Node45&#45;&gt;Node22 -->
<g id="edge152" class="edge"><title>Node45&#45;&gt;Node22</title>
<path fill="none" stroke="midnightblue" d="M549.976,-651.751C526.001,-645.867 496.974,-634.563 480,-613 366.396,-468.677 393.476,-222.092 403.9,-152.674"/>
<polygon fill="midnightblue" stroke="midnightblue" points="407.36,-153.199 405.459,-142.776 400.446,-152.11 407.36,-153.199"/>
</g>
<!-- Node45&#45;&gt;Node26 -->
<g id="edge145" class="edge"><title>Node45&#45;&gt;Node26</title>
<path fill="none" stroke="midnightblue" d="M630,-657.215C776.877,-653.717 1285.07,-636.032 1423,-557 1520.89,-500.912 1590.29,-376.667 1613.51,-330.619"/>
<polygon fill="midnightblue" stroke="midnightblue" points="1616.68,-332.092 1617.97,-321.576 1610.41,-328.991 1616.68,-332.092"/>
</g>
<!-- Node45&#45;&gt;Node27 -->
<g id="edge151" class="edge"><title>Node45&#45;&gt;Node27</title>
<path fill="none" stroke="midnightblue" d="M630.062,-656.741C758.121,-652.505 1156.52,-637.64 1283,-613 1615.43,-548.237 1975.7,-329.229 2067.02,-271.205"/>
<polygon fill="midnightblue" stroke="midnightblue" points="2068.93,-274.143 2075.47,-265.809 2065.16,-268.244 2068.93,-274.143"/>
</g>
<!-- Node45&#45;&gt;Node31 -->
<g id="edge148" class="edge"><title>Node45&#45;&gt;Node31</title>
<path fill="none" stroke="midnightblue" d="M630.061,-651.024C634.753,-650.296 639.478,-649.603 644,-649 789.216,-629.643 961.863,-614.554 1044.38,-607.826"/>
<polygon fill="midnightblue" stroke="midnightblue" points="1044.78,-611.305 1054.46,-607.009 1044.21,-604.328 1044.78,-611.305"/>
</g>
<!-- Node45&#45;&gt;Node32 -->
<g id="edge150" class="edge"><title>Node45&#45;&gt;Node32</title>
<path fill="none" stroke="midnightblue" d="M593.06,-649.368C599.382,-631.537 614.004,-590.295 622.522,-566.272"/>
<polygon fill="midnightblue" stroke="midnightblue" points="625.911,-567.186 625.954,-556.591 619.313,-564.847 625.911,-567.186"/>
</g>
<!-- Node46&#45;&gt;Node3 -->
<g id="edge158" class="edge"><title>Node46&#45;&gt;Node3</title>
<path fill="none" stroke="midnightblue" d="M1422.17,-877.151C1374.96,-866.905 1282,-838.31 1282,-772 1282,-772 1282,-772 1282,-714 1282,-651.904 1332.42,-591.723 1359.41,-563.96"/>
<polygon fill="midnightblue" stroke="midnightblue" points="1362.05,-566.265 1366.64,-556.716 1357.1,-561.318 1362.05,-566.265"/>
</g>
<!-- Node46&#45;&gt;Node11 -->
<g id="edge167" class="edge"><title>Node46&#45;&gt;Node11</title>
<path fill="none" stroke="midnightblue" d="M1422.38,-881.366C1228.27,-876.569 38,-844.215 38,-772 38,-772 38,-772 38,-193.5 38,-153.485 58.8588,-142.14 94,-123 177.668,-77.43 476.614,-72.7175 575.777,-72.4316"/>
<polygon fill="midnightblue" stroke="midnightblue" points="575.807,-75.9317 585.801,-72.4162 575.796,-68.9317 575.807,-75.9317"/>
</g>
<!-- Node46&#45;&gt;Node34 -->
<g id="edge163" class="edge"><title>Node46&#45;&gt;Node34</title>
<path fill="none" stroke="midnightblue" d="M1469.95,-873.433C1553.52,-839.267 1863.25,-712.64 1961.73,-672.377"/>
<polygon fill="midnightblue" stroke="midnightblue" points="1963.18,-675.565 1971.11,-668.541 1960.53,-669.086 1963.18,-675.565"/>
</g>
<!-- Node46&#45;&gt;Node41 -->
<g id="edge164" class="edge"><title>Node46&#45;&gt;Node41</title>
<path fill="none" stroke="midnightblue" d="M1475.72,-882.613C1555.44,-883.845 1798.08,-883.242 1992,-837 2056.39,-821.647 2073.05,-814.736 2130,-781 2231.64,-720.785 2261.65,-704.809 2336,-613 2428.46,-498.833 2493.01,-330.449 2512.69,-275.251"/>
<polygon fill="midnightblue" stroke="midnightblue" points="2516.01,-276.365 2516.03,-265.77 2509.41,-274.043 2516.01,-276.365"/>
</g>
<!-- Node46&#45;&gt;Node42 -->
<g id="edge162" class="edge"><title>Node46&#45;&gt;Node42</title>
<path fill="none" stroke="midnightblue" d="M1475.7,-878.663C1541.61,-870.423 1713.78,-848.903 1811.19,-836.726"/>
<polygon fill="midnightblue" stroke="midnightblue" points="1811.75,-840.183 1821.24,-835.47 1810.89,-833.237 1811.75,-840.183"/>
</g>
<!-- Node46&#45;&gt;Node43 -->
<g id="edge165" class="edge"><title>Node46&#45;&gt;Node43</title>
<path fill="none" stroke="midnightblue" d="M1475.58,-881.227C1565.83,-878.351 1859.85,-866.859 1949,-837 2102.76,-785.501 2181.3,-765.291 2237,-613 2249.6,-578.539 2248.29,-534.881 2246.16,-510.546"/>
<polygon fill="midnightblue" stroke="midnightblue" points="2249.64,-510.146 2245.15,-500.552 2242.68,-510.855 2249.64,-510.146"/>
</g>
<!-- Node46&#45;&gt;Node44 -->
<g id="edge168" class="edge"><title>Node46&#45;&gt;Node44</title>
<path fill="none" stroke="midnightblue" d="M1448.1,-873.231C1447.12,-860.398 1446.57,-835.969 1454,-817 1467.63,-782.191 1497.56,-749.786 1516.7,-731.481"/>
<polygon fill="midnightblue" stroke="midnightblue" points="1519.23,-733.909 1524.16,-724.533 1514.46,-728.786 1519.23,-733.909"/>
</g>
<!-- Node46&#45;&gt;Node45 -->
<g id="edge166" class="edge"><title>Node46&#45;&gt;Node45</title>
<path fill="none" stroke="midnightblue" d="M1422.44,-876.473C1383.74,-868.33 1309.63,-852.404 1247,-837 1011.89,-779.171 732.11,-700.483 629.896,-671.405"/>
<polygon fill="midnightblue" stroke="midnightblue" points="630.578,-667.961 620.002,-668.588 628.661,-674.693 630.578,-667.961"/>
</g>
<!-- Node47 -->
<g id="node47" class="node"><title>Node47</title>
<g id="a_node47"><a xlink:href="tensor__type_8h.html" target="_top" xlink:title="Polymorphic tensor types. ">
<polygon fill="white" stroke="black" points="1140.5,-649.5 1140.5,-668.5 1253.5,-668.5 1253.5,-649.5 1140.5,-649.5"/>
<text text-anchor="middle" x="1197" y="-656.5" font-family="Helvetica,sans-Serif" font-size="10.00">tvm/ir/tensor_type.h</text>
</a>
</g>
</g>
<!-- Node46&#45;&gt;Node47 -->
<g id="edge159" class="edge"><title>Node46&#45;&gt;Node47</title>
<path fill="none" stroke="midnightblue" d="M1422.24,-882.578C1383.58,-881.975 1311.95,-875.278 1268,-837 1219.56,-794.815 1203.76,-714.916 1198.95,-678.692"/>
<polygon fill="midnightblue" stroke="midnightblue" points="1202.41,-678.085 1197.75,-668.568 1195.45,-678.912 1202.41,-678.085"/>
</g>
<!-- Node47&#45;&gt;Node3 -->
<g id="edge160" class="edge"><title>Node47&#45;&gt;Node3</title>
<path fill="none" stroke="midnightblue" d="M1200.6,-649.057C1206.66,-635.087 1220.23,-608.125 1240,-593 1254.7,-581.758 1298.26,-568.38 1332.17,-559.148"/>
<polygon fill="midnightblue" stroke="midnightblue" points="1333.14,-562.512 1341.89,-556.542 1331.32,-555.751 1333.14,-562.512"/>
</g>
<!-- Node47&#45;&gt;Node31 -->
<g id="edge161" class="edge"><title>Node47&#45;&gt;Node31</title>
<path fill="none" stroke="midnightblue" d="M1180.29,-649.324C1163.69,-640.703 1138,-627.364 1118.78,-617.386"/>
<polygon fill="midnightblue" stroke="midnightblue" points="1120.16,-614.156 1109.67,-612.655 1116.93,-620.369 1120.16,-614.156"/>
</g>
<!-- Node48&#45;&gt;Node4 -->
<g id="edge172" class="edge"><title>Node48&#45;&gt;Node4</title>
<path fill="none" stroke="midnightblue" d="M2242.53,-302.06C2231.5,-287.584 2207.57,-259.295 2180,-246 2078.88,-197.244 2035.13,-249.359 1930,-210 1906.22,-201.096 1904.64,-190.508 1882,-179 1855.86,-165.711 1824.82,-153.944 1801.28,-145.778"/>
<polygon fill="midnightblue" stroke="midnightblue" points="1802.29,-142.422 1791.69,-142.506 1800.03,-149.047 1802.29,-142.422"/>
</g>
<!-- Node48&#45;&gt;Node11 -->
<g id="edge177" class="edge"><title>Node48&#45;&gt;Node11</title>
<path fill="none" stroke="midnightblue" d="M2197.32,-310.22C2045.9,-307.589 1605.2,-297.374 1465,-266 1400,-251.455 1387.48,-235.616 1326,-210 1293.84,-196.6 1287.58,-188.303 1254,-179 1138.61,-147.027 1105.23,-161.955 987,-143 919.625,-132.198 719.127,-93.8758 640.322,-78.7273"/>
<polygon fill="midnightblue" stroke="midnightblue" points="640.517,-75.2009 630.036,-76.7489 639.195,-82.0749 640.517,-75.2009"/>
</g>
<!-- Node48&#45;&gt;Node12 -->
<g id="edge179" class="edge"><title>Node48&#45;&gt;Node12</title>
<path fill="none" stroke="midnightblue" d="M2300.75,-309.979C2390.2,-307.367 2569.23,-298.162 2622,-266 2678.15,-231.777 2685.61,-183.57 2660,-123 2653.91,-108.591 2641.47,-96.2679 2630.29,-87.4025"/>
<polygon fill="midnightblue" stroke="midnightblue" points="2632.22,-84.4772 2622.11,-81.3198 2628.04,-90.0949 2632.22,-84.4772"/>
</g>
<!-- Node48&#45;&gt;Node17 -->
<g id="edge173" class="edge"><title>Node48&#45;&gt;Node17</title>
<path fill="none" stroke="midnightblue" d="M2238.81,-302.357C2220.96,-287.779 2182.27,-258.657 2144,-246 2048.96,-214.566 1759.02,-201.836 1621.66,-197.466"/>
<polygon fill="midnightblue" stroke="midnightblue" points="1621.74,-193.967 1611.64,-197.154 1621.53,-200.964 1621.74,-193.967"/>
</g>
<!-- Node48&#45;&gt;Node19 -->
<g id="edge174" class="edge"><title>Node48&#45;&gt;Node19</title>
<path fill="none" stroke="midnightblue" d="M2246.81,-302.086C2242.95,-288.156 2233.6,-261.248 2216,-246 2192.92,-226.002 2161.57,-213.84 2133.59,-206.483"/>
<polygon fill="midnightblue" stroke="midnightblue" points="2134.39,-203.077 2123.85,-204.076 2132.72,-209.873 2134.39,-203.077"/>
</g>
<!-- Node48&#45;&gt;Node21 -->
<g id="edge180" class="edge"><title>Node48&#45;&gt;Node21</title>
<path fill="none" stroke="midnightblue" d="M2267.45,-302.496C2301.36,-286.502 2375.35,-249.935 2432,-210 2458.31,-191.452 2485.67,-166.045 2502.27,-149.825"/>
<polygon fill="midnightblue" stroke="midnightblue" points="2504.85,-152.19 2509.5,-142.67 2499.93,-147.213 2504.85,-152.19"/>
</g>
<!-- Node48&#45;&gt;Node23 -->
<g id="edge176" class="edge"><title>Node48&#45;&gt;Node23</title>
<path fill="none" stroke="midnightblue" d="M2248.97,-302.154C2248.6,-289.225 2246.69,-264.678 2238,-246 2219.49,-206.234 2182.96,-169.338 2160.99,-149.412"/>
<polygon fill="midnightblue" stroke="midnightblue" points="2163.15,-146.651 2153.35,-142.635 2158.5,-151.888 2163.15,-146.651"/>
</g>
<!-- Node48&#45;&gt;Node27 -->
<g id="edge178" class="edge"><title>Node48&#45;&gt;Node27</title>
<path fill="none" stroke="midnightblue" d="M2223.65,-302.444C2196.73,-293.359 2154,-278.939 2123.91,-268.783"/>
<polygon fill="midnightblue" stroke="midnightblue" points="2124.83,-265.398 2114.23,-265.516 2122.59,-272.031 2124.83,-265.398"/>
</g>
<!-- Node48&#45;&gt;Node41 -->
<g id="edge175" class="edge"><title>Node48&#45;&gt;Node41</title>
<path fill="none" stroke="midnightblue" d="M2291.78,-302.444C2339.18,-292.964 2415.63,-277.675 2466.58,-267.483"/>
<polygon fill="midnightblue" stroke="midnightblue" points="2467.3,-270.91 2476.42,-265.516 2465.93,-264.046 2467.3,-270.91"/>
</g>
<!-- Node49&#45;&gt;Node11 -->
<g id="edge187" class="edge"><title>Node49&#45;&gt;Node11</title>
<path fill="none" stroke="midnightblue" d="M2691.57,-649.36C2624.75,-616.401 2384.52,-499.5 2302,-481 2003.18,-414.004 1192.6,-541.438 927,-389 783.061,-306.389 658.068,-142.527 619.924,-89.491"/>
<polygon fill="midnightblue" stroke="midnightblue" points="622.658,-87.2957 614.008,-81.1781 616.955,-91.3548 622.658,-87.2957"/>
</g>
<!-- Node49&#45;&gt;Node12 -->
<g id="edge190" class="edge"><title>Node49&#45;&gt;Node12</title>
<path fill="none" stroke="midnightblue" d="M2719.07,-649.364C2763.48,-610.546 2942.16,-446.222 3002,-266 3022.03,-205.683 3043.99,-170.712 3002,-123 2978.06,-95.7938 2727.79,-79.2179 2639.02,-74.1581"/>
<polygon fill="midnightblue" stroke="midnightblue" points="2639.2,-70.6628 2629.02,-73.5982 2638.8,-77.6518 2639.2,-70.6628"/>
</g>
<!-- Node49&#45;&gt;Node21 -->
<g id="edge188" class="edge"><title>Node49&#45;&gt;Node21</title>
<path fill="none" stroke="midnightblue" d="M2710.61,-649.465C2720,-599.581 2767.48,-345.237 2774,-266 2777.17,-227.464 2798.86,-208.614 2774,-179 2746.02,-145.676 2614.93,-137.022 2551.95,-134.781"/>
<polygon fill="midnightblue" stroke="midnightblue" points="2551.84,-131.275 2541.73,-134.452 2551.62,-138.272 2551.84,-131.275"/>
</g>
<!-- Node49&#45;&gt;Node26 -->
<g id="edge185" class="edge"><title>Node49&#45;&gt;Node26</title>
<path fill="none" stroke="midnightblue" d="M2698,-649.395C2670.37,-628.092 2595.32,-572.092 2526,-537 2237.68,-391.05 1848.55,-336.459 1691.75,-319.535"/>
<polygon fill="midnightblue" stroke="midnightblue" points="1692.08,-316.05 1681.77,-318.475 1691.34,-323.011 1692.08,-316.05"/>
</g>
<!-- Node49&#45;&gt;Node31 -->
<g id="edge186" class="edge"><title>Node49&#45;&gt;Node31</title>
<path fill="none" stroke="midnightblue" d="M2654.31,-656.172C2404.95,-647.84 1377.83,-613.518 1141.6,-605.624"/>
<polygon fill="midnightblue" stroke="midnightblue" points="1141.7,-602.126 1131.59,-605.29 1141.47,-609.122 1141.7,-602.126"/>
</g>
<!-- Node49&#45;&gt;Node37 -->
<g id="edge189" class="edge"><title>Node49&#45;&gt;Node37</title>
<path fill="none" stroke="midnightblue" d="M2729.92,-649.444C2751.74,-640.517 2786.15,-626.439 2810.89,-616.317"/>
<polygon fill="midnightblue" stroke="midnightblue" points="2812.25,-619.542 2820.18,-612.516 2809.6,-613.063 2812.25,-619.542"/>
</g>
<!-- Node50 -->
<g id="node50" class="node"><title>Node50</title>
<g id="a_node50"><a xlink:href="with_8h.html" target="_top" xlink:title="RAII wrapper function to enter and exit a context object similar to python&#39;s with syntax...">
<polygon fill="white" stroke="black" points="2750,-123.5 2750,-142.5 2856,-142.5 2856,-123.5 2750,-123.5"/>
<text text-anchor="middle" x="2803" y="-130.5" font-family="Helvetica,sans-Serif" font-size="10.00">tvm/support/with.h</text>
</a>
</g>
</g>
<!-- Node49&#45;&gt;Node50 -->
<g id="edge182" class="edge"><title>Node49&#45;&gt;Node50</title>
<path fill="none" stroke="midnightblue" d="M2712.17,-649.334C2727.24,-607.656 2791.67,-423.367 2812,-266 2816.95,-227.652 2815.81,-217.478 2812,-179 2811.13,-170.17 2809.31,-160.505 2807.53,-152.404"/>
<polygon fill="midnightblue" stroke="midnightblue" points="2810.92,-151.494 2805.23,-142.551 2804.1,-153.085 2810.92,-151.494"/>
</g>
<!-- Node50&#45;&gt;Node5 -->
<g id="edge183" class="edge"><title>Node50&#45;&gt;Node5</title>
<path fill="none" stroke="midnightblue" d="M2749.86,-128.822C2577.3,-118.503 2033.88,-86.0074 1861.22,-75.6823"/>
<polygon fill="midnightblue" stroke="midnightblue" points="1861.3,-72.1809 1851.1,-75.0776 1860.88,-79.1684 1861.3,-72.1809"/>
</g>
<!-- Node50&#45;&gt;Node12 -->
<g id="edge184" class="edge"><title>Node50&#45;&gt;Node12</title>
<path fill="none" stroke="midnightblue" d="M2775.06,-123.475C2738.96,-112.461 2676.32,-93.3469 2638.86,-81.9152"/>
<polygon fill="midnightblue" stroke="midnightblue" points="2639.59,-78.4786 2629,-78.9077 2637.54,-85.1739 2639.59,-78.4786"/>
</g>
</g>
</svg>
