<?xml version="1.0" encoding="UTF-8" standalone="no"?>
<!DOCTYPE svg PUBLIC "-//W3C//DTD SVG 1.1//EN"
 "http://www.w3.org/Graphics/SVG/1.1/DTD/svg11.dtd">
<!-- Generated by graphviz version 2.38.0 (20140413.2041)
 -->
<!-- Title: include/tvm/ir/adt.h Pages: 1 -->
<svg width="2498pt" height="845pt"
 viewBox="0.00 0.00 2498.00 845.00" xmlns="http://www.w3.org/2000/svg" xmlns:xlink="http://www.w3.org/1999/xlink">
<g id="graph0" class="graph" transform="scale(1 1) rotate(0) translate(4 841)">
<title>include/tvm/ir/adt.h</title>
<polygon fill="white" stroke="none" points="-4,4 -4,-841 2494,-841 2494,4 -4,4"/>
<!-- Node1 -->
<g id="node1" class="node"><title>Node1</title>
<polygon fill="#bfbfbf" stroke="black" points="318.5,-817.5 318.5,-836.5 427.5,-836.5 427.5,-817.5 318.5,-817.5"/>
<text text-anchor="middle" x="373" y="-824.5" font-family="Helvetica,sans-Serif" font-size="10.00">include/tvm/ir/adt.h</text>
</g>
<!-- Node2 -->
<g id="node2" class="node"><title>Node2</title>
<g id="a_node2"><a xlink:href="object_8h.html" target="_top" xlink:title="A managed object in the TVM runtime. ">
<polygon fill="white" stroke="black" points="1796.5,-123.5 1796.5,-142.5 1913.5,-142.5 1913.5,-123.5 1796.5,-123.5"/>
<text text-anchor="middle" x="1855" y="-130.5" font-family="Helvetica,sans-Serif" font-size="10.00">tvm/runtime/object.h</text>
</a>
</g>
</g>
<!-- Node1&#45;&gt;Node2 -->
<g id="edge1" class="edge"><title>Node1&#45;&gt;Node2</title>
<path fill="none" stroke="midnightblue" d="M427.727,-826.097C759.752,-826.335 2490,-822.47 2490,-716 2490,-716 2490,-716 2490,-367 2490,-226.553 2366.94,-229.803 2236,-179 2180.66,-157.527 2017.66,-144.139 1923.76,-137.989"/>
<polygon fill="midnightblue" stroke="midnightblue" points="1923.99,-134.496 1913.78,-137.345 1923.54,-141.481 1923.99,-134.496"/>
</g>
<!-- Node9 -->
<g id="node9" class="node"><title>Node9</title>
<polygon fill="white" stroke="#bfbfbf" points="244,-62 244,-81 288,-81 288,-62 244,-62"/>
<text text-anchor="middle" x="266" y="-69" font-family="Helvetica,sans-Serif" font-size="10.00">string</text>
</g>
<!-- Node1&#45;&gt;Node9 -->
<g id="edge134" class="edge"><title>Node1&#45;&gt;Node9</title>
<path fill="none" stroke="midnightblue" d="M318.363,-821.333C214.759,-810.968 0,-781.573 0,-716 0,-716 0,-716 0,-188 0,-87.1962 162.714,-73.4209 233.619,-72.2036"/>
<polygon fill="midnightblue" stroke="midnightblue" points="233.813,-75.702 243.779,-72.1054 233.745,-68.7024 233.813,-75.702"/>
</g>
<!-- Node12 -->
<g id="node12" class="node"><title>Node12</title>
<g id="a_node12"><a xlink:href="node_8h.html" target="_top" xlink:title="Definitions and helper macros for IR/AST nodes. ">
<polygon fill="white" stroke="black" points="857,-593.5 857,-612.5 955,-612.5 955,-593.5 857,-593.5"/>
<text text-anchor="middle" x="906" y="-600.5" font-family="Helvetica,sans-Serif" font-size="10.00">tvm/node/node.h</text>
</a>
</g>
</g>
<!-- Node1&#45;&gt;Node12 -->
<g id="edge11" class="edge"><title>Node1&#45;&gt;Node12</title>
<path fill="none" stroke="midnightblue" d="M393.568,-817.433C475.516,-783.301 779.002,-656.896 875.991,-616.499"/>
<polygon fill="midnightblue" stroke="midnightblue" points="877.608,-619.617 885.494,-612.541 874.917,-613.155 877.608,-619.617"/>
</g>
<!-- Node34 -->
<g id="node34" class="node"><title>Node34</title>
<g id="a_node34"><a xlink:href="node_2container_8h.html" target="_top" xlink:title="Array/Map container in the DSL graph. ">
<polygon fill="white" stroke="black" points="711.5,-414.5 711.5,-433.5 830.5,-433.5 830.5,-414.5 711.5,-414.5"/>
<text text-anchor="middle" x="771" y="-421.5" font-family="Helvetica,sans-Serif" font-size="10.00">tvm/node/container.h</text>
</a>
</g>
</g>
<!-- Node1&#45;&gt;Node34 -->
<g id="edge113" class="edge"><title>Node1&#45;&gt;Node34</title>
<path fill="none" stroke="midnightblue" d="M318.243,-820.687C235.224,-810.127 91.3339,-780.605 133,-705 247.414,-497.39 560.53,-443.554 701.084,-429.721"/>
<polygon fill="midnightblue" stroke="midnightblue" points="701.679,-433.18 711.306,-428.756 701.021,-426.211 701.679,-433.18"/>
</g>
<!-- Node38 -->
<g id="node38" class="node"><title>Node38</title>
<g id="a_node38"><a xlink:href="ir_2expr_8h.html" target="_top" xlink:title="Base expr nodes in TVM. ">
<polygon fill="white" stroke="black" points="262.5,-761.5 262.5,-780.5 339.5,-780.5 339.5,-761.5 262.5,-761.5"/>
<text text-anchor="middle" x="301" y="-768.5" font-family="Helvetica,sans-Serif" font-size="10.00">tvm/ir/expr.h</text>
</a>
</g>
</g>
<!-- Node1&#45;&gt;Node38 -->
<g id="edge114" class="edge"><title>Node1&#45;&gt;Node38</title>
<path fill="none" stroke="midnightblue" d="M361.432,-817.324C350.58,-809.185 334.119,-796.839 321.117,-787.087"/>
<polygon fill="midnightblue" stroke="midnightblue" points="322.879,-784.034 312.779,-780.834 318.679,-789.634 322.879,-784.034"/>
</g>
<!-- Node40 -->
<g id="node40" class="node"><title>Node40</title>
<g id="a_node40"><a xlink:href="ir_2type_8h.html" target="_top" xlink:title="IR/AST nodes for the unified type system in TVM. ">
<polygon fill="white" stroke="black" points="455.5,-705.5 455.5,-724.5 532.5,-724.5 532.5,-705.5 455.5,-705.5"/>
<text text-anchor="middle" x="494" y="-712.5" font-family="Helvetica,sans-Serif" font-size="10.00">tvm/ir/type.h</text>
</a>
</g>
</g>
<!-- Node1&#45;&gt;Node40 -->
<g id="edge133" class="edge"><title>Node1&#45;&gt;Node40</title>
<path fill="none" stroke="midnightblue" d="M382.495,-817.368C402.905,-798.814 451.196,-754.913 477.019,-731.438"/>
<polygon fill="midnightblue" stroke="midnightblue" points="479.504,-733.908 484.549,-724.591 474.796,-728.728 479.504,-733.908"/>
</g>
<!-- Node3 -->
<g id="node3" class="node"><title>Node3</title>
<polygon fill="white" stroke="#bfbfbf" points="2010,-62 2010,-81 2096,-81 2096,-62 2010,-62"/>
<text text-anchor="middle" x="2053" y="-69" font-family="Helvetica,sans-Serif" font-size="10.00">dmlc/logging.h</text>
</g>
<!-- Node2&#45;&gt;Node3 -->
<g id="edge2" class="edge"><title>Node2&#45;&gt;Node3</title>
<path fill="none" stroke="midnightblue" d="M1883.37,-123.475C1917.92,-113.092 1976.42,-95.5116 2014.88,-83.9538"/>
<polygon fill="midnightblue" stroke="midnightblue" points="2016.11,-87.239 2024.68,-81.0091 2014.1,-80.5351 2016.11,-87.239"/>
</g>
<!-- Node4 -->
<g id="node4" class="node"><title>Node4</title>
<g id="a_node4"><a xlink:href="c__runtime__api_8h.html" target="_top" xlink:title="tvm/runtime/c_runtime\l_api.h">
<polygon fill="white" stroke="black" points="2179.5,-56.5 2179.5,-86.5 2306.5,-86.5 2306.5,-56.5 2179.5,-56.5"/>
<text text-anchor="start" x="2187.5" y="-74.5" font-family="Helvetica,sans-Serif" font-size="10.00">tvm/runtime/c_runtime</text>
<text text-anchor="middle" x="2243" y="-63.5" font-family="Helvetica,sans-Serif" font-size="10.00">_api.h</text>
</a>
</g>
</g>
<!-- Node2&#45;&gt;Node4 -->
<g id="edge3" class="edge"><title>Node2&#45;&gt;Node4</title>
<path fill="none" stroke="midnightblue" d="M1910.59,-123.475C1978.67,-113.035 2094.21,-95.3169 2169.56,-83.7626"/>
<polygon fill="midnightblue" stroke="midnightblue" points="2170.1,-87.2202 2179.45,-82.2448 2169.04,-80.3011 2170.1,-87.2202"/>
</g>
<!-- Node8 -->
<g id="node8" class="node"><title>Node8</title>
<polygon fill="white" stroke="#bfbfbf" points="1268,-62 1268,-81 1336,-81 1336,-62 1268,-62"/>
<text text-anchor="middle" x="1302" y="-69" font-family="Helvetica,sans-Serif" font-size="10.00">type_traits</text>
</g>
<!-- Node2&#45;&gt;Node8 -->
<g id="edge7" class="edge"><title>Node2&#45;&gt;Node8</title>
<path fill="none" stroke="midnightblue" d="M1796.44,-124.687C1791.56,-124.106 1786.69,-123.536 1782,-123 1621.56,-104.672 1430.67,-85.3206 1346.09,-76.8727"/>
<polygon fill="midnightblue" stroke="midnightblue" points="1346.37,-73.3833 1336.07,-75.8734 1345.67,-80.3487 1346.37,-73.3833"/>
</g>
<!-- Node2&#45;&gt;Node9 -->
<g id="edge8" class="edge"><title>Node2&#45;&gt;Node9</title>
<path fill="none" stroke="midnightblue" d="M1796.48,-124.318C1791.58,-123.818 1786.71,-123.368 1782,-123 1743.7,-120.007 514.732,-80.4829 298.368,-73.5382"/>
<polygon fill="midnightblue" stroke="midnightblue" points="298.394,-70.0373 288.287,-73.2147 298.17,-77.0337 298.394,-70.0373"/>
</g>
<!-- Node10 -->
<g id="node10" class="node"><title>Node10</title>
<polygon fill="white" stroke="#bfbfbf" points="737,-62 737,-81 779,-81 779,-62 737,-62"/>
<text text-anchor="middle" x="758" y="-69" font-family="Helvetica,sans-Serif" font-size="10.00">utility</text>
</g>
<!-- Node2&#45;&gt;Node10 -->
<g id="edge9" class="edge"><title>Node2&#45;&gt;Node10</title>
<path fill="none" stroke="midnightblue" d="M1796.47,-124.4C1791.58,-123.882 1786.71,-123.406 1782,-123 1391.28,-89.3256 914.602,-76.2085 789.347,-73.2068"/>
<polygon fill="midnightblue" stroke="midnightblue" points="789.381,-69.7067 779.301,-72.9699 789.216,-76.7048 789.381,-69.7067"/>
</g>
<!-- Node11 -->
<g id="node11" class="node"><title>Node11</title>
<polygon fill="white" stroke="#bfbfbf" points="1748,-62 1748,-81 1798,-81 1798,-62 1748,-62"/>
<text text-anchor="middle" x="1773" y="-69" font-family="Helvetica,sans-Serif" font-size="10.00">atomic</text>
</g>
<!-- Node2&#45;&gt;Node11 -->
<g id="edge10" class="edge"><title>Node2&#45;&gt;Node11</title>
<path fill="none" stroke="midnightblue" d="M1843.25,-123.475C1830.22,-114.02 1808.96,-98.5961 1793.24,-87.1871"/>
<polygon fill="midnightblue" stroke="midnightblue" points="1794.88,-84.0492 1784.73,-81.0091 1790.77,-89.7149 1794.88,-84.0492"/>
</g>
<!-- Node5 -->
<g id="node5" class="node"><title>Node5</title>
<polygon fill="white" stroke="#bfbfbf" points="2108,-0.5 2108,-19.5 2198,-19.5 2198,-0.5 2108,-0.5"/>
<text text-anchor="middle" x="2153" y="-7.5" font-family="Helvetica,sans-Serif" font-size="10.00">dlpack/dlpack.h</text>
</g>
<!-- Node4&#45;&gt;Node5 -->
<g id="edge4" class="edge"><title>Node4&#45;&gt;Node5</title>
<path fill="none" stroke="midnightblue" d="M2221.67,-56.3993C2207.51,-47.0402 2188.99,-34.7924 2174.75,-25.3771"/>
<polygon fill="midnightblue" stroke="midnightblue" points="2176.37,-22.2531 2166.1,-19.6578 2172.51,-28.0923 2176.37,-22.2531"/>
</g>
<!-- Node6 -->
<g id="node6" class="node"><title>Node6</title>
<polygon fill="white" stroke="#bfbfbf" points="2216.5,-0.5 2216.5,-19.5 2269.5,-19.5 2269.5,-0.5 2216.5,-0.5"/>
<text text-anchor="middle" x="2243" y="-7.5" font-family="Helvetica,sans-Serif" font-size="10.00">stdint.h</text>
</g>
<!-- Node4&#45;&gt;Node6 -->
<g id="edge5" class="edge"><title>Node4&#45;&gt;Node6</title>
<path fill="none" stroke="midnightblue" d="M2243,-56.3993C2243,-48.4664 2243,-38.458 2243,-29.8583"/>
<polygon fill="midnightblue" stroke="midnightblue" points="2246.5,-29.6577 2243,-19.6578 2239.5,-29.6578 2246.5,-29.6577"/>
</g>
<!-- Node7 -->
<g id="node7" class="node"><title>Node7</title>
<polygon fill="white" stroke="#bfbfbf" points="2287.5,-0.5 2287.5,-19.5 2342.5,-19.5 2342.5,-0.5 2287.5,-0.5"/>
<text text-anchor="middle" x="2315" y="-7.5" font-family="Helvetica,sans-Serif" font-size="10.00">stddef.h</text>
</g>
<!-- Node4&#45;&gt;Node7 -->
<g id="edge6" class="edge"><title>Node4&#45;&gt;Node7</title>
<path fill="none" stroke="midnightblue" d="M2260.06,-56.3993C2271.06,-47.3076 2285.37,-35.4899 2296.62,-26.1909"/>
<polygon fill="midnightblue" stroke="midnightblue" points="2299.04,-28.726 2304.52,-19.6578 2294.59,-23.33 2299.04,-28.726"/>
</g>
<!-- Node12&#45;&gt;Node2 -->
<g id="edge65" class="edge"><title>Node12&#45;&gt;Node2</title>
<path fill="none" stroke="midnightblue" d="M955.164,-601.766C1179.64,-600.5 2098.43,-593.125 2147,-557 2173.56,-537.248 2171,-519.599 2171,-486.5 2171,-486.5 2171,-486.5 2171,-367 2171,-307.664 2226.41,-282.615 2191,-235 2158.58,-191.406 2008.21,-159.527 1920,-144.203"/>
<polygon fill="midnightblue" stroke="midnightblue" points="1920.54,-140.744 1910.09,-142.505 1919.36,-147.643 1920.54,-140.744"/>
</g>
<!-- Node12&#45;&gt;Node4 -->
<g id="edge12" class="edge"><title>Node12&#45;&gt;Node4</title>
<path fill="none" stroke="midnightblue" d="M955.027,-602.367C1174.06,-603.721 2057.25,-606.071 2170,-557 2337,-484.318 2396.67,-430.04 2447,-255 2464.21,-195.15 2451.68,-157.744 2400,-123 2375.02,-106.21 2344.09,-94.6937 2316.3,-86.9516"/>
<polygon fill="midnightblue" stroke="midnightblue" points="2317.19,-83.5644 2306.62,-84.368 2315.38,-90.3278 2317.19,-83.5644"/>
</g>
<!-- Node12&#45;&gt;Node8 -->
<g id="edge112" class="edge"><title>Node12&#45;&gt;Node8</title>
<path fill="none" stroke="midnightblue" d="M955.274,-601.423C1173.02,-598.711 2040.38,-586.112 2090,-557 2121.66,-538.429 2133,-523.202 2133,-486.5 2133,-486.5 2133,-486.5 2133,-423 2133,-310.542 2269.94,-267.061 2200,-179 2146.2,-111.271 1519.58,-81.2287 1346.21,-74.1786"/>
<polygon fill="midnightblue" stroke="midnightblue" points="1346.29,-70.6792 1336.16,-73.7752 1346.01,-77.6736 1346.29,-70.6792"/>
</g>
<!-- Node12&#45;&gt;Node9 -->
<g id="edge109" class="edge"><title>Node12&#45;&gt;Node9</title>
<path fill="none" stroke="midnightblue" d="M856.819,-601.031C689.405,-596.42 152,-570.302 152,-425 152,-425 152,-425 152,-188 152,-139.198 204.191,-103.559 237.946,-85.6129"/>
<polygon fill="midnightblue" stroke="midnightblue" points="239.609,-88.6934 246.919,-81.024 236.422,-82.4611 239.609,-88.6934"/>
</g>
<!-- Node12&#45;&gt;Node10 -->
<g id="edge111" class="edge"><title>Node12&#45;&gt;Node10</title>
<path fill="none" stroke="midnightblue" d="M856.939,-599.896C796.17,-596.12 690.132,-585.67 604,-557 494.754,-520.637 435.003,-532.871 376,-434 318.916,-338.344 559.004,-130.778 571,-123 619.721,-91.4109 687.791,-79.4606 726.944,-75.0277"/>
<polygon fill="midnightblue" stroke="midnightblue" points="727.362,-78.5033 736.947,-73.9887 726.639,-71.5407 727.362,-78.5033"/>
</g>
<!-- Node13 -->
<g id="node13" class="node"><title>Node13</title>
<g id="a_node13"><a xlink:href="runtime_2container_8h.html" target="_top" xlink:title="Common POD(plain old data) container types. ">
<polygon fill="white" stroke="black" points="840,-358.5 840,-377.5 972,-377.5 972,-358.5 840,-358.5"/>
<text text-anchor="middle" x="906" y="-365.5" font-family="Helvetica,sans-Serif" font-size="10.00">tvm/runtime/container.h</text>
</a>
</g>
</g>
<!-- Node12&#45;&gt;Node13 -->
<g id="edge13" class="edge"><title>Node12&#45;&gt;Node13</title>
<path fill="none" stroke="midnightblue" d="M906,-593.431C906,-559.754 906,-435.994 906,-388.102"/>
<polygon fill="midnightblue" stroke="midnightblue" points="909.5,-387.896 906,-377.896 902.5,-387.896 909.5,-387.896"/>
</g>
<!-- Node14 -->
<g id="node14" class="node"><title>Node14</title>
<g id="a_node14"><a xlink:href="runtime_2memory_8h.html" target="_top" xlink:title="Runtime memory management. ">
<polygon fill="white" stroke="black" points="602.5,-179.5 602.5,-198.5 729.5,-198.5 729.5,-179.5 602.5,-179.5"/>
<text text-anchor="middle" x="666" y="-186.5" font-family="Helvetica,sans-Serif" font-size="10.00">tvm/runtime/memory.h</text>
</a>
</g>
</g>
<!-- Node12&#45;&gt;Node14 -->
<g id="edge66" class="edge"><title>Node12&#45;&gt;Node14</title>
<path fill="none" stroke="midnightblue" d="M856.985,-599.531C764.619,-591.92 566.331,-560.848 480,-434 446.825,-385.255 254.608,-521.631 512,-235 532.31,-212.383 563.29,-200.871 592.153,-195.107"/>
<polygon fill="midnightblue" stroke="midnightblue" points="593.026,-198.506 602.252,-193.298 591.792,-191.616 593.026,-198.506"/>
</g>
<!-- Node20 -->
<g id="node20" class="node"><title>Node20</title>
<polygon fill="white" stroke="#bfbfbf" points="1278.5,-179.5 1278.5,-198.5 1325.5,-198.5 1325.5,-179.5 1278.5,-179.5"/>
<text text-anchor="middle" x="1302" y="-186.5" font-family="Helvetica,sans-Serif" font-size="10.00">vector</text>
</g>
<!-- Node12&#45;&gt;Node20 -->
<g id="edge110" class="edge"><title>Node12&#45;&gt;Node20</title>
<path fill="none" stroke="midnightblue" d="M936.161,-593.47C1030.39,-564.882 1318.11,-462.367 1404,-255 1407.4,-246.788 1408.85,-242.447 1404,-235 1399.86,-228.654 1362.65,-213.243 1334.35,-202.225"/>
<polygon fill="midnightblue" stroke="midnightblue" points="1335.37,-198.868 1324.78,-198.534 1332.85,-205.399 1335.37,-198.868"/>
</g>
<!-- Node31 -->
<g id="node31" class="node"><title>Node31</title>
<g id="a_node31"><a xlink:href="reflection_8h.html" target="_top" xlink:title="Reflection and serialization of compiler IR/AST nodes. ">
<polygon fill="white" stroke="black" points="1575.5,-537.5 1575.5,-556.5 1694.5,-556.5 1694.5,-537.5 1575.5,-537.5"/>
<text text-anchor="middle" x="1635" y="-544.5" font-family="Helvetica,sans-Serif" font-size="10.00">tvm/node/reflection.h</text>
</a>
</g>
</g>
<!-- Node12&#45;&gt;Node31 -->
<g id="edge67" class="edge"><title>Node12&#45;&gt;Node31</title>
<path fill="none" stroke="midnightblue" d="M955.249,-598.352C1081.75,-588.981 1418.44,-564.042 1565.09,-553.178"/>
<polygon fill="midnightblue" stroke="midnightblue" points="1565.6,-556.65 1575.32,-552.421 1565.09,-549.669 1565.6,-556.65"/>
</g>
<!-- Node32 -->
<g id="node32" class="node"><title>Node32</title>
<g id="a_node32"><a xlink:href="structural__equal_8h.html" target="_top" xlink:title="Structural equality comparison. ">
<polygon fill="white" stroke="black" points="1337.5,-470.5 1337.5,-500.5 1448.5,-500.5 1448.5,-470.5 1337.5,-470.5"/>
<text text-anchor="start" x="1345.5" y="-488.5" font-family="Helvetica,sans-Serif" font-size="10.00">tvm/node/structural</text>
<text text-anchor="middle" x="1393" y="-477.5" font-family="Helvetica,sans-Serif" font-size="10.00">_equal.h</text>
</a>
</g>
</g>
<!-- Node12&#45;&gt;Node32 -->
<g id="edge107" class="edge"><title>Node12&#45;&gt;Node32</title>
<path fill="none" stroke="midnightblue" d="M955.216,-600.782C1051.09,-597.747 1259.1,-587.728 1323,-557 1345.3,-546.278 1364.58,-525.439 1377.23,-509.185"/>
<polygon fill="midnightblue" stroke="midnightblue" points="1380.38,-510.827 1383.55,-500.721 1374.77,-506.638 1380.38,-510.827"/>
</g>
<!-- Node12&#45;&gt;Node34 -->
<g id="edge106" class="edge"><title>Node12&#45;&gt;Node34</title>
<path fill="none" stroke="midnightblue" d="M899.489,-593.463C878.513,-565.962 812.43,-479.319 784.102,-442.178"/>
<polygon fill="midnightblue" stroke="midnightblue" points="786.611,-439.697 777.764,-433.868 781.046,-443.942 786.611,-439.697"/>
</g>
<!-- Node35 -->
<g id="node35" class="node"><title>Node35</title>
<g id="a_node35"><a xlink:href="structural__hash_8h.html" target="_top" xlink:title="tvm/node/structural\l_hash.h">
<polygon fill="white" stroke="black" points="1466.5,-470.5 1466.5,-500.5 1577.5,-500.5 1577.5,-470.5 1466.5,-470.5"/>
<text text-anchor="start" x="1474.5" y="-488.5" font-family="Helvetica,sans-Serif" font-size="10.00">tvm/node/structural</text>
<text text-anchor="middle" x="1522" y="-477.5" font-family="Helvetica,sans-Serif" font-size="10.00">_hash.h</text>
</a>
</g>
</g>
<!-- Node12&#45;&gt;Node35 -->
<g id="edge108" class="edge"><title>Node12&#45;&gt;Node35</title>
<path fill="none" stroke="midnightblue" d="M955.313,-601.698C1038.41,-600.159 1211.07,-592.511 1352,-557 1400.14,-544.869 1452.48,-521.49 1486.18,-504.987"/>
<polygon fill="midnightblue" stroke="midnightblue" points="1487.76,-508.107 1495.17,-500.53 1484.65,-501.835 1487.76,-508.107"/>
</g>
<!-- Node36 -->
<g id="node36" class="node"><title>Node36</title>
<g id="a_node36"><a xlink:href="repr__printer_8h.html" target="_top" xlink:title="Printer class to print repr string of each AST/IR nodes. ">
<polygon fill="white" stroke="black" points="1951,-537.5 1951,-556.5 2081,-556.5 2081,-537.5 1951,-537.5"/>
<text text-anchor="middle" x="2016" y="-544.5" font-family="Helvetica,sans-Serif" font-size="10.00">tvm/node/repr_printer.h</text>
</a>
</g>
</g>
<!-- Node12&#45;&gt;Node36 -->
<g id="edge103" class="edge"><title>Node12&#45;&gt;Node36</title>
<path fill="none" stroke="midnightblue" d="M955.128,-599.61C1130.78,-591.065 1728.45,-561.989 1940.57,-551.67"/>
<polygon fill="midnightblue" stroke="midnightblue" points="1940.86,-555.16 1950.68,-551.178 1940.52,-548.168 1940.86,-555.16"/>
</g>
<!-- Node13&#45;&gt;Node2 -->
<g id="edge20" class="edge"><title>Node13&#45;&gt;Node2</title>
<path fill="none" stroke="midnightblue" d="M972.077,-363.375C1045.81,-358.29 1168.27,-346.727 1271,-322 1310.1,-312.59 1316.71,-299.563 1356,-291 1454.45,-269.542 1727.17,-315.166 1808,-255 1840.74,-230.627 1850.68,-180.172 1853.69,-152.743"/>
<polygon fill="midnightblue" stroke="midnightblue" points="1857.2,-152.813 1854.61,-142.54 1850.23,-152.189 1857.2,-152.813"/>
</g>
<!-- Node13&#45;&gt;Node3 -->
<g id="edge14" class="edge"><title>Node13&#45;&gt;Node3</title>
<path fill="none" stroke="midnightblue" d="M972.195,-362.21C1156.19,-348.387 1670.79,-306.135 1832,-255 1920.02,-227.08 1945.42,-211.812 2007,-143 2021.57,-126.719 2034.81,-105.41 2043.31,-90.4989"/>
<polygon fill="midnightblue" stroke="midnightblue" points="2046.6,-91.7805 2048.39,-81.3379 2040.48,-88.3854 2046.6,-91.7805"/>
</g>
<!-- Node13&#45;&gt;Node8 -->
<g id="edge62" class="edge"><title>Node13&#45;&gt;Node8</title>
<path fill="none" stroke="midnightblue" d="M912.236,-358.418C922.523,-343.124 940.365,-310.898 924,-291 869.972,-225.308 696.283,-307.353 741,-235 770.259,-187.659 803.01,-203.459 853,-179 904.784,-153.664 914.903,-139.964 970,-123 1070.02,-92.2041 1193.01,-79.7665 1257.58,-75.0832"/>
<polygon fill="midnightblue" stroke="midnightblue" points="1258.07,-78.5574 1267.81,-74.3714 1257.59,-71.5743 1258.07,-78.5574"/>
</g>
<!-- Node13&#45;&gt;Node9 -->
<g id="edge61" class="edge"><title>Node13&#45;&gt;Node9</title>
<path fill="none" stroke="midnightblue" d="M876.566,-358.382C853.145,-350.786 820.088,-338.38 794,-322 776.681,-311.126 777.998,-300.707 760,-291 703.075,-260.298 679.449,-278 619,-255 551.565,-229.342 358.678,-123.783 290.354,-86.0152"/>
<polygon fill="midnightblue" stroke="midnightblue" points="292.01,-82.9316 281.565,-81.1514 288.62,-89.0561 292.01,-82.9316"/>
</g>
<!-- Node13&#45;&gt;Node10 -->
<g id="edge63" class="edge"><title>Node13&#45;&gt;Node10</title>
<path fill="none" stroke="midnightblue" d="M892.39,-358.39C878.383,-349.466 855.987,-335.025 837,-322 817.572,-308.673 814.986,-301.708 794,-291 706.488,-246.347 641.133,-284.648 593,-199 584.935,-184.649 580.327,-144.084 597,-123 628.008,-83.7868 689.22,-74.4129 726.588,-72.521"/>
<polygon fill="midnightblue" stroke="midnightblue" points="727.034,-76.0076 736.905,-72.158 726.788,-69.0119 727.034,-76.0076"/>
</g>
<!-- Node13&#45;&gt;Node14 -->
<g id="edge15" class="edge"><title>Node13&#45;&gt;Node14</title>
<path fill="none" stroke="midnightblue" d="M908.921,-358.25C913.508,-342.689 920.304,-310.055 904,-291 846.421,-223.702 781.625,-304.231 708,-255 691.121,-243.714 679.534,-223.101 672.873,-208.106"/>
<polygon fill="midnightblue" stroke="midnightblue" points="676.088,-206.721 669.044,-198.806 669.615,-209.386 676.088,-206.721"/>
</g>
<!-- Node16 -->
<g id="node16" class="node"><title>Node16</title>
<g id="a_node16"><a xlink:href="packed__func_8h.html" target="_top" xlink:title="Type&#45;erased function used across TVM API. ">
<polygon fill="white" stroke="black" points="1149.5,-291.5 1149.5,-321.5 1262.5,-321.5 1262.5,-291.5 1149.5,-291.5"/>
<text text-anchor="start" x="1157.5" y="-309.5" font-family="Helvetica,sans-Serif" font-size="10.00">tvm/runtime/packed</text>
<text text-anchor="middle" x="1206" y="-298.5" font-family="Helvetica,sans-Serif" font-size="10.00">_func.h</text>
</a>
</g>
</g>
<!-- Node13&#45;&gt;Node16 -->
<g id="edge21" class="edge"><title>Node13&#45;&gt;Node16</title>
<path fill="none" stroke="midnightblue" d="M948.983,-358.475C998.759,-348.603 1081.34,-332.224 1139.44,-320.702"/>
<polygon fill="midnightblue" stroke="midnightblue" points="1140.13,-324.132 1149.26,-318.753 1138.77,-317.266 1140.13,-324.132"/>
</g>
<!-- Node13&#45;&gt;Node20 -->
<g id="edge64" class="edge"><title>Node13&#45;&gt;Node20</title>
<path fill="none" stroke="midnightblue" d="M920.182,-358.457C966.312,-330.711 1110.42,-244.373 1133,-235 1178.24,-216.222 1233.57,-203.241 1268.31,-196.208"/>
<polygon fill="midnightblue" stroke="midnightblue" points="1269.26,-199.587 1278.4,-194.216 1267.91,-192.72 1269.26,-199.587"/>
</g>
<!-- Node29 -->
<g id="node29" class="node"><title>Node29</title>
<polygon fill="white" stroke="#bfbfbf" points="846.5,-297 846.5,-316 895.5,-316 895.5,-297 846.5,-297"/>
<text text-anchor="middle" x="871" y="-304" font-family="Helvetica,sans-Serif" font-size="10.00">cstring</text>
</g>
<!-- Node13&#45;&gt;Node29 -->
<g id="edge59" class="edge"><title>Node13&#45;&gt;Node29</title>
<path fill="none" stroke="midnightblue" d="M900.985,-358.475C895.839,-349.727 887.688,-335.869 881.182,-324.809"/>
<polygon fill="midnightblue" stroke="midnightblue" points="884.092,-322.854 876.005,-316.009 878.059,-326.403 884.092,-322.854"/>
</g>
<!-- Node30 -->
<g id="node30" class="node"><title>Node30</title>
<polygon fill="white" stroke="#bfbfbf" points="674.5,-297 674.5,-316 751.5,-316 751.5,-297 674.5,-297"/>
<text text-anchor="middle" x="713" y="-304" font-family="Helvetica,sans-Serif" font-size="10.00">initializer_list</text>
</g>
<!-- Node13&#45;&gt;Node30 -->
<g id="edge60" class="edge"><title>Node13&#45;&gt;Node30</title>
<path fill="none" stroke="midnightblue" d="M878.348,-358.475C844.812,-348.136 788.127,-330.661 750.632,-319.102"/>
<polygon fill="midnightblue" stroke="midnightblue" points="751.188,-315.611 740.601,-316.009 749.126,-322.3 751.188,-315.611"/>
</g>
<!-- Node14&#45;&gt;Node2 -->
<g id="edge16" class="edge"><title>Node14&#45;&gt;Node2</title>
<path fill="none" stroke="midnightblue" d="M729.613,-184.872C765.785,-183.11 811.927,-180.89 853,-179 1217.41,-162.232 1308.6,-160.009 1673,-143 1710.37,-141.256 1752.06,-139.202 1786.09,-137.497"/>
<polygon fill="midnightblue" stroke="midnightblue" points="1786.59,-140.977 1796.4,-136.98 1786.24,-133.986 1786.59,-140.977"/>
</g>
<!-- Node14&#45;&gt;Node8 -->
<g id="edge19" class="edge"><title>Node14&#45;&gt;Node8</title>
<path fill="none" stroke="midnightblue" d="M682.078,-179.327C709.498,-164.974 767.445,-136.525 820,-123 977.42,-82.4868 1171.75,-74.3606 1257.62,-72.8118"/>
<polygon fill="midnightblue" stroke="midnightblue" points="1257.85,-76.3088 1267.79,-72.6505 1257.74,-69.3097 1257.85,-76.3088"/>
</g>
<!-- Node14&#45;&gt;Node10 -->
<g id="edge18" class="edge"><title>Node14&#45;&gt;Node10</title>
<path fill="none" stroke="midnightblue" d="M672.915,-179.319C688.166,-160.172 724.908,-114.044 744.753,-89.1306"/>
<polygon fill="midnightblue" stroke="midnightblue" points="747.512,-91.2846 751.005,-81.282 742.037,-86.9233 747.512,-91.2846"/>
</g>
<!-- Node15 -->
<g id="node15" class="node"><title>Node15</title>
<polygon fill="white" stroke="#bfbfbf" points="606.5,-123.5 606.5,-142.5 653.5,-142.5 653.5,-123.5 606.5,-123.5"/>
<text text-anchor="middle" x="630" y="-130.5" font-family="Helvetica,sans-Serif" font-size="10.00">cstdlib</text>
</g>
<!-- Node14&#45;&gt;Node15 -->
<g id="edge17" class="edge"><title>Node14&#45;&gt;Node15</title>
<path fill="none" stroke="midnightblue" d="M660.055,-179.083C655.023,-171.534 647.663,-160.495 641.487,-151.23"/>
<polygon fill="midnightblue" stroke="midnightblue" points="644.293,-149.13 635.834,-142.751 638.469,-153.013 644.293,-149.13"/>
</g>
<!-- Node16&#45;&gt;Node2 -->
<g id="edge50" class="edge"><title>Node16&#45;&gt;Node2</title>
<path fill="none" stroke="midnightblue" d="M1212.06,-291.446C1225.77,-259.943 1258.77,-185.887 1269,-179 1290.16,-164.749 1636.02,-145.295 1786.25,-137.469"/>
<polygon fill="midnightblue" stroke="midnightblue" points="1786.48,-140.962 1796.29,-136.948 1786.12,-133.971 1786.48,-140.962"/>
</g>
<!-- Node16&#45;&gt;Node3 -->
<g id="edge22" class="edge"><title>Node16&#45;&gt;Node3</title>
<path fill="none" stroke="midnightblue" d="M1262.61,-299.8C1290.68,-297.031 1325.12,-293.722 1356,-291 1456.37,-282.152 1713.69,-290.482 1808,-255 1908.15,-217.321 2002.6,-125.69 2038.14,-88.5413"/>
<polygon fill="midnightblue" stroke="midnightblue" points="2040.85,-90.7687 2045.17,-81.0944 2035.76,-85.9636 2040.85,-90.7687"/>
</g>
<!-- Node16&#45;&gt;Node4 -->
<g id="edge23" class="edge"><title>Node16&#45;&gt;Node4</title>
<path fill="none" stroke="midnightblue" d="M1262.79,-305.142C1374.78,-303.527 1631.59,-295.312 1843,-255 2009.68,-223.216 2078.64,-252.816 2208,-143 2222.14,-131.001 2231.12,-111.916 2236.44,-96.6272"/>
<polygon fill="midnightblue" stroke="midnightblue" points="2239.88,-97.3733 2239.56,-86.7832 2233.2,-95.2596 2239.88,-97.3733"/>
</g>
<!-- Node16&#45;&gt;Node8 -->
<g id="edge58" class="edge"><title>Node16&#45;&gt;Node8</title>
<path fill="none" stroke="midnightblue" d="M1208.61,-291.062C1214.76,-259.255 1232.01,-181.334 1263,-123 1269.53,-110.717 1279.03,-98.334 1287.03,-88.9044"/>
<polygon fill="midnightblue" stroke="midnightblue" points="1289.85,-90.9894 1293.81,-81.1624 1284.59,-86.3751 1289.85,-90.9894"/>
</g>
<!-- Node16&#45;&gt;Node9 -->
<g id="edge54" class="edge"><title>Node16&#45;&gt;Node9</title>
<path fill="none" stroke="midnightblue" d="M1149.23,-296.534C1088.29,-286.792 988.664,-270.534 903,-255 857.545,-246.757 846.429,-243.384 801,-235 708.739,-217.973 683.414,-224.047 593,-199 577.917,-194.821 375.945,-115.683 297.162,-84.747"/>
<polygon fill="midnightblue" stroke="midnightblue" points="298.341,-81.4498 287.754,-81.0517 295.782,-87.9653 298.341,-81.4498"/>
</g>
<!-- Node16&#45;&gt;Node10 -->
<g id="edge57" class="edge"><title>Node16&#45;&gt;Node10</title>
<path fill="none" stroke="midnightblue" d="M1149.5,-303.114C1073.04,-296.959 936.617,-275.221 853,-199 816.103,-165.367 783.706,-115.716 768.022,-89.7532"/>
<polygon fill="midnightblue" stroke="midnightblue" points="770.968,-87.8589 762.855,-81.0452 764.948,-91.4312 770.968,-87.8589"/>
</g>
<!-- Node17 -->
<g id="node17" class="node"><title>Node17</title>
<g id="a_node17"><a xlink:href="runtime_2module_8h.html" target="_top" xlink:title="Runtime container of the functions generated by TVM, This is used to support dynamically link...">
<polygon fill="white" stroke="black" points="962,-235.5 962,-254.5 1086,-254.5 1086,-235.5 962,-235.5"/>
<text text-anchor="middle" x="1024" y="-242.5" font-family="Helvetica,sans-Serif" font-size="10.00">tvm/runtime/module.h</text>
</a>
</g>
</g>
<!-- Node16&#45;&gt;Node17 -->
<g id="edge24" class="edge"><title>Node16&#45;&gt;Node17</title>
<path fill="none" stroke="midnightblue" d="M1157.03,-291.399C1124.64,-281.238 1083.24,-267.672 1055.23,-258.022"/>
<polygon fill="midnightblue" stroke="midnightblue" points="1056.15,-254.637 1045.55,-254.658 1053.85,-261.248 1056.15,-254.637"/>
</g>
<!-- Node19 -->
<g id="node19" class="node"><title>Node19</title>
<polygon fill="white" stroke="#bfbfbf" points="1012.5,-179.5 1012.5,-198.5 1069.5,-198.5 1069.5,-179.5 1012.5,-179.5"/>
<text text-anchor="middle" x="1041" y="-186.5" font-family="Helvetica,sans-Serif" font-size="10.00">memory</text>
</g>
<!-- Node16&#45;&gt;Node19 -->
<g id="edge56" class="edge"><title>Node16&#45;&gt;Node19</title>
<path fill="none" stroke="midnightblue" d="M1149.46,-302.333C1082.62,-297.269 977.356,-284.697 953,-255 934.171,-232.041 971.154,-212.884 1002.81,-201.446"/>
<polygon fill="midnightblue" stroke="midnightblue" points="1004.07,-204.712 1012.39,-198.149 1001.79,-198.093 1004.07,-204.712"/>
</g>
<!-- Node16&#45;&gt;Node20 -->
<g id="edge53" class="edge"><title>Node16&#45;&gt;Node20</title>
<path fill="none" stroke="midnightblue" d="M1225.19,-291.412C1237.23,-281.969 1252.59,-268.779 1264,-255 1276.09,-240.4 1286.68,-221.48 1293.59,-207.822"/>
<polygon fill="midnightblue" stroke="midnightblue" points="1296.87,-209.082 1298.11,-198.561 1290.58,-206.007 1296.87,-209.082"/>
</g>
<!-- Node22 -->
<g id="node22" class="node"><title>Node22</title>
<g id="a_node22"><a xlink:href="ndarray_8h.html" target="_top" xlink:title="A device&#45;independent managed NDArray abstraction. ">
<polygon fill="white" stroke="black" points="1676.5,-235.5 1676.5,-254.5 1799.5,-254.5 1799.5,-235.5 1676.5,-235.5"/>
<text text-anchor="middle" x="1738" y="-242.5" font-family="Helvetica,sans-Serif" font-size="10.00">tvm/runtime/ndarray.h</text>
</a>
</g>
</g>
<!-- Node16&#45;&gt;Node22 -->
<g id="edge34" class="edge"><title>Node16&#45;&gt;Node22</title>
<path fill="none" stroke="midnightblue" d="M1262.66,-297.918C1280.37,-295.614 1299.99,-293.13 1318,-291 1440.17,-276.549 1582.57,-261.714 1666.24,-253.204"/>
<polygon fill="midnightblue" stroke="midnightblue" points="1666.8,-256.665 1676.39,-252.172 1666.09,-249.701 1666.8,-256.665"/>
</g>
<!-- Node25 -->
<g id="node25" class="node"><title>Node25</title>
<g id="a_node25"><a xlink:href="data__type_8h.html" target="_top" xlink:title="tvm/runtime/data_type.h">
<polygon fill="white" stroke="black" points="2046,-235.5 2046,-254.5 2182,-254.5 2182,-235.5 2046,-235.5"/>
<text text-anchor="middle" x="2114" y="-242.5" font-family="Helvetica,sans-Serif" font-size="10.00">tvm/runtime/data_type.h</text>
</a>
</g>
</g>
<!-- Node16&#45;&gt;Node25 -->
<g id="edge45" class="edge"><title>Node16&#45;&gt;Node25</title>
<path fill="none" stroke="midnightblue" d="M1262.87,-302.068C1392.56,-294.194 1720.15,-274.044 1994,-255 2007.5,-254.061 2021.85,-253.021 2035.76,-251.991"/>
<polygon fill="midnightblue" stroke="midnightblue" points="2036.08,-255.478 2045.79,-251.245 2035.56,-248.497 2036.08,-255.478"/>
</g>
<!-- Node26 -->
<g id="node26" class="node"><title>Node26</title>
<polygon fill="white" stroke="#bfbfbf" points="1316.5,-235.5 1316.5,-254.5 1379.5,-254.5 1379.5,-235.5 1316.5,-235.5"/>
<text text-anchor="middle" x="1348" y="-242.5" font-family="Helvetica,sans-Serif" font-size="10.00">functional</text>
</g>
<!-- Node16&#45;&gt;Node26 -->
<g id="edge51" class="edge"><title>Node16&#45;&gt;Node26</title>
<path fill="none" stroke="midnightblue" d="M1239.65,-291.399C1263.48,-281.416 1295.15,-268.147 1318.09,-258.534"/>
<polygon fill="midnightblue" stroke="midnightblue" points="1319.47,-261.751 1327.34,-254.658 1316.76,-255.294 1319.47,-261.751"/>
</g>
<!-- Node27 -->
<g id="node27" class="node"><title>Node27</title>
<polygon fill="white" stroke="#bfbfbf" points="1142.5,-235.5 1142.5,-254.5 1183.5,-254.5 1183.5,-235.5 1142.5,-235.5"/>
<text text-anchor="middle" x="1163" y="-242.5" font-family="Helvetica,sans-Serif" font-size="10.00">tuple</text>
</g>
<!-- Node16&#45;&gt;Node27 -->
<g id="edge52" class="edge"><title>Node16&#45;&gt;Node27</title>
<path fill="none" stroke="midnightblue" d="M1195.81,-291.399C1189.63,-282.842 1181.7,-271.871 1175.18,-262.857"/>
<polygon fill="midnightblue" stroke="midnightblue" points="1177.95,-260.713 1169.26,-254.658 1172.28,-264.813 1177.95,-260.713"/>
</g>
<!-- Node28 -->
<g id="node28" class="node"><title>Node28</title>
<polygon fill="white" stroke="#bfbfbf" points="750,-235.5 750,-254.5 792,-254.5 792,-235.5 750,-235.5"/>
<text text-anchor="middle" x="771" y="-242.5" font-family="Helvetica,sans-Serif" font-size="10.00">limits</text>
</g>
<!-- Node16&#45;&gt;Node28 -->
<g id="edge55" class="edge"><title>Node16&#45;&gt;Node28</title>
<path fill="none" stroke="midnightblue" d="M1149.13,-297.721C1056.25,-285.017 875.08,-260.236 802.337,-250.286"/>
<polygon fill="midnightblue" stroke="midnightblue" points="802.4,-246.762 792.018,-248.875 801.451,-253.698 802.4,-246.762"/>
</g>
<!-- Node17&#45;&gt;Node2 -->
<g id="edge27" class="edge"><title>Node17&#45;&gt;Node2</title>
<path fill="none" stroke="midnightblue" d="M1045.87,-235.496C1083.87,-221.129 1164.86,-192.316 1236,-179 1288.9,-169.099 1636.23,-147.245 1786.22,-138.124"/>
<polygon fill="midnightblue" stroke="midnightblue" points="1786.47,-141.616 1796.24,-137.516 1786.04,-134.629 1786.47,-141.616"/>
</g>
<!-- Node17&#45;&gt;Node4 -->
<g id="edge26" class="edge"><title>Node17&#45;&gt;Node4</title>
<path fill="none" stroke="midnightblue" d="M1086.24,-238.69C1101.53,-237.433 1117.85,-236.13 1133,-235 1372.87,-217.103 1434.9,-233.155 1673,-199 1860.85,-172.053 2078.78,-116.868 2182.34,-89.1557"/>
<polygon fill="midnightblue" stroke="midnightblue" points="2183.25,-92.5355 2192,-86.5616 2181.43,-85.775 2183.25,-92.5355"/>
</g>
<!-- Node17&#45;&gt;Node9 -->
<g id="edge31" class="edge"><title>Node17&#45;&gt;Node9</title>
<path fill="none" stroke="midnightblue" d="M1040.05,-235.471C1061.62,-222.939 1095.38,-198.88 1078,-179 1064.85,-163.957 448.261,-93.1663 298.512,-76.1735"/>
<polygon fill="midnightblue" stroke="midnightblue" points="298.494,-72.6492 288.164,-75.0006 297.706,-79.6046 298.494,-72.6492"/>
</g>
<!-- Node17&#45;&gt;Node14 -->
<g id="edge28" class="edge"><title>Node17&#45;&gt;Node14</title>
<path fill="none" stroke="midnightblue" d="M967.274,-235.444C903.512,-225.826 800.101,-210.228 732.567,-200.041"/>
<polygon fill="midnightblue" stroke="midnightblue" points="732.871,-196.547 722.461,-198.516 731.827,-203.469 732.871,-196.547"/>
</g>
<!-- Node17&#45;&gt;Node16 -->
<g id="edge33" class="edge"><title>Node17&#45;&gt;Node16</title>
<path fill="none" stroke="midnightblue" d="M1055.13,-254.571C1083.69,-263.291 1126.23,-277.054 1158.91,-288.076"/>
<polygon fill="midnightblue" stroke="midnightblue" points="1158.11,-291.502 1168.71,-291.399 1160.36,-284.873 1158.11,-291.502"/>
</g>
<!-- Node18 -->
<g id="node18" class="node"><title>Node18</title>
<polygon fill="white" stroke="#bfbfbf" points="1272,-123.5 1272,-142.5 1332,-142.5 1332,-123.5 1272,-123.5"/>
<text text-anchor="middle" x="1302" y="-130.5" font-family="Helvetica,sans-Serif" font-size="10.00">dmlc/io.h</text>
</g>
<!-- Node17&#45;&gt;Node18 -->
<g id="edge25" class="edge"><title>Node17&#45;&gt;Node18</title>
<path fill="none" stroke="midnightblue" d="M1040,-235.452C1065.1,-222.254 1115.46,-196.602 1160,-179 1193.89,-165.608 1233.48,-153.327 1262.24,-144.99"/>
<polygon fill="midnightblue" stroke="midnightblue" points="1263.29,-148.332 1271.93,-142.21 1261.36,-141.603 1263.29,-148.332"/>
</g>
<!-- Node17&#45;&gt;Node19 -->
<g id="edge29" class="edge"><title>Node17&#45;&gt;Node19</title>
<path fill="none" stroke="midnightblue" d="M1026.81,-235.083C1029.08,-227.849 1032.37,-217.409 1035.21,-208.397"/>
<polygon fill="midnightblue" stroke="midnightblue" points="1038.58,-209.341 1038.25,-198.751 1031.9,-207.239 1038.58,-209.341"/>
</g>
<!-- Node17&#45;&gt;Node20 -->
<g id="edge30" class="edge"><title>Node17&#45;&gt;Node20</title>
<path fill="none" stroke="midnightblue" d="M1068.05,-235.444C1123.65,-224.643 1218.08,-206.301 1268.28,-196.55"/>
<polygon fill="midnightblue" stroke="midnightblue" points="1269.14,-199.948 1278.29,-194.605 1267.81,-193.076 1269.14,-199.948"/>
</g>
<!-- Node21 -->
<g id="node21" class="node"><title>Node21</title>
<polygon fill="white" stroke="#bfbfbf" points="862.5,-179.5 862.5,-198.5 955.5,-198.5 955.5,-179.5 862.5,-179.5"/>
<text text-anchor="middle" x="909" y="-186.5" font-family="Helvetica,sans-Serif" font-size="10.00">unordered_map</text>
</g>
<!-- Node17&#45;&gt;Node21 -->
<g id="edge32" class="edge"><title>Node17&#45;&gt;Node21</title>
<path fill="none" stroke="midnightblue" d="M1005.78,-235.444C987.104,-226.675 957.844,-212.935 936.383,-202.858"/>
<polygon fill="midnightblue" stroke="midnightblue" points="937.676,-199.599 927.137,-198.516 934.701,-205.935 937.676,-199.599"/>
</g>
<!-- Node22&#45;&gt;Node2 -->
<g id="edge36" class="edge"><title>Node22&#45;&gt;Node2</title>
<path fill="none" stroke="midnightblue" d="M1747.18,-235.368C1766.83,-216.894 1813.21,-173.293 1838.25,-149.744"/>
<polygon fill="midnightblue" stroke="midnightblue" points="1840.97,-151.991 1845.86,-142.591 1836.18,-146.891 1840.97,-151.991"/>
</g>
<!-- Node22&#45;&gt;Node4 -->
<g id="edge35" class="edge"><title>Node22&#45;&gt;Node4</title>
<path fill="none" stroke="midnightblue" d="M1799.69,-241.78C1889.54,-236.047 2058.98,-215.613 2181,-143 2200.79,-131.224 2217.62,-110.975 2228.73,-95.1915"/>
<polygon fill="midnightblue" stroke="midnightblue" points="2231.89,-96.7583 2234.59,-86.5119 2226.09,-92.8416 2231.89,-96.7583"/>
</g>
<!-- Node22&#45;&gt;Node10 -->
<g id="edge44" class="edge"><title>Node22&#45;&gt;Node10</title>
<path fill="none" stroke="midnightblue" d="M1684.35,-235.479C1640.86,-227.902 1578.26,-215.472 1525,-199 1440.47,-172.857 1426.96,-143.95 1341,-123 1134.91,-72.7737 877.186,-70.8836 789.14,-71.8945"/>
<polygon fill="midnightblue" stroke="midnightblue" points="788.976,-68.3964 779.025,-72.0329 789.072,-75.3957 788.976,-68.3964"/>
</g>
<!-- Node22&#45;&gt;Node11 -->
<g id="edge42" class="edge"><title>Node22&#45;&gt;Node11</title>
<path fill="none" stroke="midnightblue" d="M1739.78,-235.26C1745.24,-208.536 1761.77,-127.517 1769.25,-90.8618"/>
<polygon fill="midnightblue" stroke="midnightblue" points="1772.69,-91.5173 1771.26,-81.0194 1765.83,-90.1175 1772.69,-91.5173"/>
</g>
<!-- Node22&#45;&gt;Node20 -->
<g id="edge43" class="edge"><title>Node22&#45;&gt;Node20</title>
<path fill="none" stroke="midnightblue" d="M1676.46,-236.378C1583.16,-224.823 1409.06,-203.26 1335.83,-194.19"/>
<polygon fill="midnightblue" stroke="midnightblue" points="1336.14,-190.701 1325.78,-192.945 1335.28,-197.648 1336.14,-190.701"/>
</g>
<!-- Node23 -->
<g id="node23" class="node"><title>Node23</title>
<g id="a_node23"><a xlink:href="serializer_8h.html" target="_top" xlink:title="Serializer extension to support TVM data types Include this file to enable serialization of DLDataTyp...">
<polygon fill="white" stroke="black" points="1534,-179.5 1534,-198.5 1664,-198.5 1664,-179.5 1534,-179.5"/>
<text text-anchor="middle" x="1599" y="-186.5" font-family="Helvetica,sans-Serif" font-size="10.00">tvm/runtime/serializer.h</text>
</a>
</g>
</g>
<!-- Node22&#45;&gt;Node23 -->
<g id="edge37" class="edge"><title>Node22&#45;&gt;Node23</title>
<path fill="none" stroke="midnightblue" d="M1710.89,-235.444C1686.06,-226.557 1649.81,-212.563 1625.26,-202.451"/>
<polygon fill="midnightblue" stroke="midnightblue" points="1626.42,-199.142 1615.84,-198.516 1623.72,-205.601 1626.42,-199.142"/>
</g>
<!-- Node23&#45;&gt;Node4 -->
<g id="edge40" class="edge"><title>Node23&#45;&gt;Node4</title>
<path fill="none" stroke="midnightblue" d="M1618.88,-179.473C1652.72,-165.334 1724,-137.193 1787,-123 1805.35,-118.866 2045,-93.3264 2169.3,-80.2296"/>
<polygon fill="midnightblue" stroke="midnightblue" points="2169.92,-83.6834 2179.5,-79.1553 2169.19,-76.7219 2169.92,-83.6834"/>
</g>
<!-- Node23&#45;&gt;Node18 -->
<g id="edge38" class="edge"><title>Node23&#45;&gt;Node18</title>
<path fill="none" stroke="midnightblue" d="M1551.94,-179.444C1494.01,-168.911 1396.63,-151.205 1342.09,-141.29"/>
<polygon fill="midnightblue" stroke="midnightblue" points="1342.57,-137.819 1332.1,-139.474 1341.32,-144.706 1342.57,-137.819"/>
</g>
<!-- Node23&#45;&gt;Node22 -->
<g id="edge41" class="edge"><title>Node23&#45;&gt;Node22</title>
<path fill="none" stroke="midnightblue" d="M1626,-198.516C1650.79,-207.388 1687.05,-221.38 1711.63,-231.503"/>
<polygon fill="midnightblue" stroke="midnightblue" points="1710.49,-234.819 1721.06,-235.444 1713.19,-228.36 1710.49,-234.819"/>
</g>
<!-- Node24 -->
<g id="node24" class="node"><title>Node24</title>
<polygon fill="white" stroke="#bfbfbf" points="1570,-123.5 1570,-142.5 1664,-142.5 1664,-123.5 1570,-123.5"/>
<text text-anchor="middle" x="1617" y="-130.5" font-family="Helvetica,sans-Serif" font-size="10.00">dmlc/serializer.h</text>
</g>
<!-- Node23&#45;&gt;Node24 -->
<g id="edge39" class="edge"><title>Node23&#45;&gt;Node24</title>
<path fill="none" stroke="midnightblue" d="M1601.97,-179.083C1604.38,-171.849 1607.86,-161.409 1610.87,-152.397"/>
<polygon fill="midnightblue" stroke="midnightblue" points="1614.24,-153.345 1614.08,-142.751 1607.6,-151.131 1614.24,-153.345"/>
</g>
<!-- Node25&#45;&gt;Node3 -->
<g id="edge47" class="edge"><title>Node25&#45;&gt;Node3</title>
<path fill="none" stroke="midnightblue" d="M2128.37,-235.33C2139.88,-227.469 2155.19,-214.722 2162,-199 2172.34,-175.125 2145.39,-125.881 2143,-123 2128.67,-105.749 2106.83,-93.2945 2088.26,-85.07"/>
<polygon fill="midnightblue" stroke="midnightblue" points="2089.48,-81.7854 2078.9,-81.1517 2086.77,-88.2423 2089.48,-81.7854"/>
</g>
<!-- Node25&#45;&gt;Node4 -->
<g id="edge46" class="edge"><title>Node25&#45;&gt;Node4</title>
<path fill="none" stroke="midnightblue" d="M2150.69,-235.432C2193.96,-223.142 2263.94,-195.909 2295,-143 2305.39,-125.305 2290.38,-106.679 2273.87,-93.0185"/>
<polygon fill="midnightblue" stroke="midnightblue" points="2275.79,-90.0839 2265.74,-86.7373 2271.51,-95.6222 2275.79,-90.0839"/>
</g>
<!-- Node25&#45;&gt;Node8 -->
<g id="edge48" class="edge"><title>Node25&#45;&gt;Node8</title>
<path fill="none" stroke="midnightblue" d="M2104.09,-235.233C2077.15,-211.987 1999.37,-148.795 1922,-123 1814.98,-87.3215 1469.74,-76.2439 1346.35,-73.3759"/>
<polygon fill="midnightblue" stroke="midnightblue" points="1346.22,-69.872 1336.14,-73.1456 1346.06,-76.8702 1346.22,-69.872"/>
</g>
<!-- Node25&#45;&gt;Node9 -->
<g id="edge49" class="edge"><title>Node25&#45;&gt;Node9</title>
<path fill="none" stroke="midnightblue" d="M2090.52,-235.468C2025.34,-212.245 1836.24,-147.977 1673,-123 1637.88,-117.626 505.153,-80.3313 298.268,-73.555"/>
<polygon fill="midnightblue" stroke="midnightblue" points="298.173,-70.0501 288.064,-73.2209 297.944,-77.0463 298.173,-70.0501"/>
</g>
<!-- Node31&#45;&gt;Node2 -->
<g id="edge69" class="edge"><title>Node31&#45;&gt;Node2</title>
<path fill="none" stroke="midnightblue" d="M1694.57,-540.18C1762.42,-529.884 1864,-501.666 1864,-425 1864,-425 1864,-425 1864,-367 1864,-283.274 1894.13,-260.738 1876,-179 1873.88,-169.426 1869.49,-159.476 1865.28,-151.374"/>
<polygon fill="midnightblue" stroke="midnightblue" points="1868.3,-149.601 1860.38,-142.557 1862.18,-152.999 1868.3,-149.601"/>
</g>
<!-- Node31&#45;&gt;Node4 -->
<g id="edge68" class="edge"><title>Node31&#45;&gt;Node4</title>
<path fill="none" stroke="midnightblue" d="M1694.59,-541.425C1752.07,-535.853 1840.99,-524.156 1915,-501 2156.32,-425.491 2293.29,-468.99 2428,-255 2445.99,-226.414 2444.91,-208.242 2428,-179 2401.61,-133.364 2347.44,-105.562 2304.49,-89.8653"/>
<polygon fill="midnightblue" stroke="midnightblue" points="2305.56,-86.5286 2294.96,-86.509 2303.23,-93.1313 2305.56,-86.5286"/>
</g>
<!-- Node31&#45;&gt;Node8 -->
<g id="edge102" class="edge"><title>Node31&#45;&gt;Node8</title>
<path fill="none" stroke="midnightblue" d="M1645.38,-537.498C1666.4,-519.264 1712,-474.052 1712,-425 1712,-425 1712,-425 1712,-367 1712,-297.462 1682.5,-278.191 1628,-235 1589.99,-204.88 1569.16,-219.044 1525,-199 1448.08,-164.083 1362.65,-111.413 1323.6,-86.503"/>
<polygon fill="midnightblue" stroke="midnightblue" points="1325.44,-83.524 1315.13,-81.0706 1321.66,-89.416 1325.44,-83.524"/>
</g>
<!-- Node31&#45;&gt;Node9 -->
<g id="edge101" class="edge"><title>Node31&#45;&gt;Node9</title>
<path fill="none" stroke="midnightblue" d="M1575.42,-544.268C1362.55,-537.498 640.751,-509.377 424,-434 297.995,-390.18 190,-379.407 190,-246 190,-246 190,-246 190,-188 190,-146.312 224.978,-108.03 247.475,-87.7185"/>
<polygon fill="midnightblue" stroke="midnightblue" points="249.864,-90.2796 255.111,-81.0755 245.269,-84.9985 249.864,-90.2796"/>
</g>
<!-- Node31&#45;&gt;Node14 -->
<g id="edge70" class="edge"><title>Node31&#45;&gt;Node14</title>
<path fill="none" stroke="midnightblue" d="M1575.24,-542.382C1395.83,-530.964 864.257,-492.922 702,-434 594.761,-395.057 555.658,-362.697 518,-255 505.239,-218.504 549.076,-202.465 592.289,-195.433"/>
<polygon fill="midnightblue" stroke="midnightblue" points="592.967,-198.871 602.349,-193.949 591.945,-191.946 592.967,-198.871"/>
</g>
<!-- Node31&#45;&gt;Node16 -->
<g id="edge71" class="edge"><title>Node31&#45;&gt;Node16</title>
<path fill="none" stroke="midnightblue" d="M1631.45,-537.287C1624.74,-521.785 1608.79,-489.241 1586,-470 1492.28,-390.882 1354.29,-344.97 1272.94,-323.195"/>
<polygon fill="midnightblue" stroke="midnightblue" points="1273.38,-319.692 1262.82,-320.532 1271.6,-326.462 1273.38,-319.692"/>
</g>
<!-- Node31&#45;&gt;Node20 -->
<g id="edge100" class="edge"><title>Node31&#45;&gt;Node20</title>
<path fill="none" stroke="midnightblue" d="M1633.35,-537.271C1630.43,-522.823 1623.64,-493.229 1613,-470 1561.11,-356.687 1560.56,-308.618 1460,-235 1414.27,-201.523 1390.16,-214.518 1335.34,-200.374"/>
<polygon fill="midnightblue" stroke="midnightblue" points="1336.08,-196.946 1325.51,-197.632 1334.2,-203.689 1336.08,-196.946"/>
</g>
<!-- Node31&#45;&gt;Node22 -->
<g id="edge72" class="edge"><title>Node31&#45;&gt;Node22</title>
<path fill="none" stroke="midnightblue" d="M1664.5,-537.457C1708.96,-522.559 1788,-487.312 1788,-425 1788,-425 1788,-425 1788,-367 1788,-327.422 1764.87,-285.704 1750.07,-263.068"/>
<polygon fill="midnightblue" stroke="midnightblue" points="1752.84,-260.913 1744.33,-254.597 1747.04,-264.839 1752.84,-260.913"/>
</g>
<!-- Node31&#45;&gt;Node25 -->
<g id="edge73" class="edge"><title>Node31&#45;&gt;Node25</title>
<path fill="none" stroke="midnightblue" d="M1694.69,-546.222C1746.5,-543.902 1821.8,-534.293 1878,-501 1915.5,-478.782 1940,-468.592 1940,-425 1940,-425 1940,-425 1940,-367 1940,-305.471 2014.24,-272.696 2065.74,-257.364"/>
<polygon fill="midnightblue" stroke="midnightblue" points="2066.73,-260.721 2075.38,-254.613 2064.81,-253.989 2066.73,-260.721"/>
</g>
<!-- Node31&#45;&gt;Node32 -->
<g id="edge74" class="edge"><title>Node31&#45;&gt;Node32</title>
<path fill="none" stroke="midnightblue" d="M1600.33,-537.475C1563.43,-528.404 1504.2,-513.84 1458.47,-502.598"/>
<polygon fill="midnightblue" stroke="midnightblue" points="1459.19,-499.169 1448.64,-500.18 1457.52,-505.967 1459.19,-499.169"/>
</g>
<!-- Node31&#45;&gt;Node35 -->
<g id="edge94" class="edge"><title>Node31&#45;&gt;Node35</title>
<path fill="none" stroke="midnightblue" d="M1618.81,-537.475C1602.93,-529.115 1578.2,-516.09 1557.7,-505.299"/>
<polygon fill="midnightblue" stroke="midnightblue" points="1559.11,-502.085 1548.63,-500.523 1555.85,-508.279 1559.11,-502.085"/>
</g>
<!-- Node32&#45;&gt;Node9 -->
<g id="edge93" class="edge"><title>Node32&#45;&gt;Node9</title>
<path fill="none" stroke="midnightblue" d="M1337.31,-484.322C1165.15,-483.315 643.273,-476.723 480,-434 412.409,-416.313 228,-315.867 228,-246 228,-246 228,-246 228,-188 228,-151.754 245.095,-112.171 256.353,-90.0327"/>
<polygon fill="midnightblue" stroke="midnightblue" points="259.461,-91.641 261.032,-81.1633 253.27,-88.3745 259.461,-91.641"/>
</g>
<!-- Node32&#45;&gt;Node25 -->
<g id="edge75" class="edge"><title>Node32&#45;&gt;Node25</title>
<path fill="none" stroke="midnightblue" d="M1419.74,-470.39C1488.48,-434.723 1677.76,-340.296 1846,-291 1908.53,-272.68 1981.58,-261.03 2035.61,-254.185"/>
<polygon fill="midnightblue" stroke="midnightblue" points="2036.32,-257.624 2045.81,-252.921 2035.46,-250.677 2036.32,-257.624"/>
</g>
<!-- Node33 -->
<g id="node33" class="node"><title>Node33</title>
<g id="a_node33"><a xlink:href="functor_8h.html" target="_top" xlink:title="Defines the Functor data structures. ">
<polygon fill="white" stroke="black" points="1512.5,-235.5 1512.5,-254.5 1619.5,-254.5 1619.5,-235.5 1512.5,-235.5"/>
<text text-anchor="middle" x="1566" y="-242.5" font-family="Helvetica,sans-Serif" font-size="10.00">tvm/node/functor.h</text>
</a>
</g>
</g>
<!-- Node32&#45;&gt;Node33 -->
<g id="edge76" class="edge"><title>Node32&#45;&gt;Node33</title>
<path fill="none" stroke="midnightblue" d="M1403.3,-470.295C1433.38,-428.827 1521,-308.038 1553.59,-263.102"/>
<polygon fill="midnightblue" stroke="midnightblue" points="1556.47,-265.095 1559.51,-254.946 1550.81,-260.985 1556.47,-265.095"/>
</g>
<!-- Node32&#45;&gt;Node34 -->
<g id="edge82" class="edge"><title>Node32&#45;&gt;Node34</title>
<path fill="none" stroke="midnightblue" d="M1337.25,-479.167C1223.71,-468.306 965.836,-443.638 841.128,-431.708"/>
<polygon fill="midnightblue" stroke="midnightblue" points="841.221,-428.201 830.933,-430.733 840.554,-435.17 841.221,-428.201"/>
</g>
<!-- Node33&#45;&gt;Node2 -->
<g id="edge78" class="edge"><title>Node33&#45;&gt;Node2</title>
<path fill="none" stroke="midnightblue" d="M1588.68,-235.368C1639.75,-215.93 1763.9,-168.674 1822.87,-146.228"/>
<polygon fill="midnightblue" stroke="midnightblue" points="1824.33,-149.42 1832.43,-142.591 1821.84,-142.878 1824.33,-149.42"/>
</g>
<!-- Node33&#45;&gt;Node3 -->
<g id="edge77" class="edge"><title>Node33&#45;&gt;Node3</title>
<path fill="none" stroke="midnightblue" d="M1554.46,-235.49C1544.52,-227.379 1530.88,-214.178 1525,-199 1511.5,-164.146 1529.15,-142.564 1561,-123 1597.79,-100.4 1880.49,-82.1389 1999.97,-75.35"/>
<polygon fill="midnightblue" stroke="midnightblue" points="2000.2,-78.8425 2009.99,-74.7858 1999.81,-71.8536 2000.2,-78.8425"/>
</g>
<!-- Node33&#45;&gt;Node8 -->
<g id="edge80" class="edge"><title>Node33&#45;&gt;Node8</title>
<path fill="none" stroke="midnightblue" d="M1513.05,-235.461C1482.9,-228.865 1445.4,-217.615 1416,-199 1392.01,-183.815 1339.86,-120.225 1315.3,-89.3984"/>
<polygon fill="midnightblue" stroke="midnightblue" points="1317.84,-86.969 1308.89,-81.3055 1312.35,-91.3167 1317.84,-86.969"/>
</g>
<!-- Node33&#45;&gt;Node10 -->
<g id="edge81" class="edge"><title>Node33&#45;&gt;Node10</title>
<path fill="none" stroke="midnightblue" d="M1528.3,-235.43C1492.47,-227.034 1437.2,-213.429 1390,-199 1364.73,-191.274 1359.52,-185.869 1334,-179 1129.44,-123.94 876.397,-87.9692 789.221,-76.4783"/>
<polygon fill="midnightblue" stroke="midnightblue" points="789.564,-72.9933 779.195,-75.1686 788.657,-79.9344 789.564,-72.9933"/>
</g>
<!-- Node33&#45;&gt;Node20 -->
<g id="edge79" class="edge"><title>Node33&#45;&gt;Node20</title>
<path fill="none" stroke="midnightblue" d="M1520.45,-235.429C1474.73,-226.711 1402.35,-212.586 1340,-199 1338.55,-198.684 1337.07,-198.357 1335.58,-198.022"/>
<polygon fill="midnightblue" stroke="midnightblue" points="1336.22,-194.577 1325.69,-195.749 1334.65,-201.399 1336.22,-194.577"/>
</g>
<!-- Node34&#45;&gt;Node2 -->
<g id="edge83" class="edge"><title>Node34&#45;&gt;Node2</title>
<path fill="none" stroke="midnightblue" d="M830.724,-417.003C905.354,-409.254 1036.9,-394.751 1149,-378 1225.26,-366.604 1769.95,-300.775 1832,-255 1861.09,-233.538 1863.39,-215.074 1861,-179 1860.43,-170.341 1859.23,-160.805 1858.06,-152.75"/>
<polygon fill="midnightblue" stroke="midnightblue" points="1861.48,-151.939 1856.49,-142.593 1854.56,-153.011 1861.48,-151.939"/>
</g>
<!-- Node34&#45;&gt;Node8 -->
<g id="edge87" class="edge"><title>Node34&#45;&gt;Node8</title>
<path fill="none" stroke="midnightblue" d="M830.575,-418.443C885.869,-412.828 962.365,-401.052 981,-378 1022.27,-326.947 918.089,-295.319 944,-235 958.27,-201.782 972.193,-197.92 1003,-179 1086.01,-128.023 1196.95,-96.6662 1257.66,-82.14"/>
<polygon fill="midnightblue" stroke="midnightblue" points="1258.75,-85.4809 1267.68,-79.7874 1257.15,-78.6663 1258.75,-85.4809"/>
</g>
<!-- Node34&#45;&gt;Node9 -->
<g id="edge92" class="edge"><title>Node34&#45;&gt;Node9</title>
<path fill="none" stroke="midnightblue" d="M711.465,-414.913C676.803,-408.441 633.149,-397.164 598,-378 560.32,-357.456 343.833,-148.187 282.306,-88.3825"/>
<polygon fill="midnightblue" stroke="midnightblue" points="284.595,-85.7258 274.986,-81.2617 279.714,-90.7434 284.595,-85.7258"/>
</g>
<!-- Node34&#45;&gt;Node10 -->
<g id="edge91" class="edge"><title>Node34&#45;&gt;Node10</title>
<path fill="none" stroke="midnightblue" d="M711.49,-420.499C678.737,-415.915 639.987,-404.665 616,-378 561.951,-317.916 591.139,-279.501 584,-199 581.016,-165.354 563.715,-150.009 584,-123 601.174,-100.133 681.737,-84.2723 726.975,-77.0018"/>
<polygon fill="midnightblue" stroke="midnightblue" points="727.516,-80.4598 736.857,-75.4599 726.437,-73.5435 727.516,-80.4598"/>
</g>
<!-- Node34&#45;&gt;Node13 -->
<g id="edge86" class="edge"><title>Node34&#45;&gt;Node13</title>
<path fill="none" stroke="midnightblue" d="M792.391,-414.444C814.707,-405.517 849.903,-391.439 875.208,-381.317"/>
<polygon fill="midnightblue" stroke="midnightblue" points="876.724,-384.48 884.709,-377.516 874.124,-377.981 876.724,-384.48"/>
</g>
<!-- Node34&#45;&gt;Node14 -->
<g id="edge84" class="edge"><title>Node34&#45;&gt;Node14</title>
<path fill="none" stroke="midnightblue" d="M711.222,-419.427C682.359,-414.325 650.128,-402.923 632,-378 594.616,-326.602 611.795,-295.258 632,-235 635.604,-224.251 642.903,-214.02 649.817,-206.038"/>
<polygon fill="midnightblue" stroke="midnightblue" points="652.477,-208.317 656.712,-198.605 647.345,-203.556 652.477,-208.317"/>
</g>
<!-- Node34&#45;&gt;Node16 -->
<g id="edge85" class="edge"><title>Node34&#45;&gt;Node16</title>
<path fill="none" stroke="midnightblue" d="M830.555,-414.844C880.142,-407.37 952.346,-394.898 1014,-378 1066.57,-363.593 1125.12,-341.118 1163.58,-325.429"/>
<polygon fill="midnightblue" stroke="midnightblue" points="1164.99,-328.633 1172.91,-321.595 1162.33,-322.158 1164.99,-328.633"/>
</g>
<!-- Node34&#45;&gt;Node20 -->
<g id="edge88" class="edge"><title>Node34&#45;&gt;Node20</title>
<path fill="none" stroke="midnightblue" d="M830.527,-417.09C974.004,-401.362 1331.28,-352.847 1388,-255 1392.46,-247.31 1392.6,-242.604 1388,-235 1381.73,-224.64 1355.39,-211.728 1333.49,-202.396"/>
<polygon fill="midnightblue" stroke="midnightblue" points="1334.72,-199.116 1324.15,-198.508 1332.03,-205.579 1334.72,-199.116"/>
</g>
<!-- Node34&#45;&gt;Node21 -->
<g id="edge90" class="edge"><title>Node34&#45;&gt;Node21</title>
<path fill="none" stroke="midnightblue" d="M754.466,-414.494C718.498,-394.775 638.423,-343.596 665,-291 699.255,-223.21 791.357,-200.862 852.092,-193.53"/>
<polygon fill="midnightblue" stroke="midnightblue" points="852.745,-196.98 862.3,-192.403 851.977,-190.022 852.745,-196.98"/>
</g>
<!-- Node34&#45;&gt;Node30 -->
<g id="edge89" class="edge"><title>Node34&#45;&gt;Node30</title>
<path fill="none" stroke="midnightblue" d="M766.641,-414.319C757.193,-395.506 734.667,-350.648 722.017,-325.455"/>
<polygon fill="midnightblue" stroke="midnightblue" points="725.025,-323.648 717.41,-316.282 718.77,-326.789 725.025,-323.648"/>
</g>
<!-- Node35&#45;&gt;Node9 -->
<g id="edge98" class="edge"><title>Node35&#45;&gt;Node9</title>
<path fill="none" stroke="midnightblue" d="M1466.44,-471.448C1463.26,-470.905 1460.09,-470.416 1457,-470 1124.06,-425.264 1029.71,-507.884 702,-434 639.033,-419.804 622.369,-412.79 568,-378 439.553,-295.808 416.931,-259.047 318,-143 303.107,-125.531 287.699,-104.153 277.561,-89.5493"/>
<polygon fill="midnightblue" stroke="midnightblue" points="280.264,-87.3021 271.718,-81.0395 274.493,-91.2644 280.264,-87.3021"/>
</g>
<!-- Node35&#45;&gt;Node25 -->
<g id="edge95" class="edge"><title>Node35&#45;&gt;Node25</title>
<path fill="none" stroke="midnightblue" d="M1546.73,-470.356C1608.71,-435.417 1776.48,-344.028 1926,-291 1968.5,-275.927 2018.18,-264.28 2055.79,-256.615"/>
<polygon fill="midnightblue" stroke="midnightblue" points="2056.95,-259.953 2066.06,-254.559 2055.57,-253.089 2056.95,-259.953"/>
</g>
<!-- Node35&#45;&gt;Node26 -->
<g id="edge99" class="edge"><title>Node35&#45;&gt;Node26</title>
<path fill="none" stroke="midnightblue" d="M1511.64,-470.295C1481.38,-428.827 1393.26,-308.038 1360.48,-263.102"/>
<polygon fill="midnightblue" stroke="midnightblue" points="1363.25,-260.961 1354.53,-254.946 1357.59,-265.087 1363.25,-260.961"/>
</g>
<!-- Node35&#45;&gt;Node33 -->
<g id="edge96" class="edge"><title>Node35&#45;&gt;Node33</title>
<path fill="none" stroke="midnightblue" d="M1540.09,-470.255C1561.98,-451.736 1597.69,-417.101 1612,-378 1625.29,-341.688 1626.99,-326.642 1612,-291 1606.97,-279.053 1597.06,-268.692 1587.71,-260.934"/>
<polygon fill="midnightblue" stroke="midnightblue" points="1589.84,-258.155 1579.79,-254.811 1585.56,-263.694 1589.84,-258.155"/>
</g>
<!-- Node35&#45;&gt;Node34 -->
<g id="edge97" class="edge"><title>Node35&#45;&gt;Node34</title>
<path fill="none" stroke="midnightblue" d="M1466.43,-471.514C1463.25,-470.954 1460.09,-470.443 1457,-470 1233.21,-437.893 965.008,-428.663 840.648,-426.033"/>
<polygon fill="midnightblue" stroke="midnightblue" points="840.574,-422.531 830.505,-425.827 840.431,-429.529 840.574,-422.531"/>
</g>
<!-- Node36&#45;&gt;Node33 -->
<g id="edge104" class="edge"><title>Node36&#45;&gt;Node33</title>
<path fill="none" stroke="midnightblue" d="M2003.02,-537.345C1940.15,-495.433 1667.13,-313.417 1587.73,-260.487"/>
<polygon fill="midnightblue" stroke="midnightblue" points="1589.3,-257.325 1579.03,-254.69 1585.41,-263.149 1589.3,-257.325"/>
</g>
<!-- Node37 -->
<g id="node37" class="node"><title>Node37</title>
<polygon fill="white" stroke="#bfbfbf" points="2044.5,-476 2044.5,-495 2103.5,-495 2103.5,-476 2044.5,-476"/>
<text text-anchor="middle" x="2074" y="-483" font-family="Helvetica,sans-Serif" font-size="10.00">iostream</text>
</g>
<!-- Node36&#45;&gt;Node37 -->
<g id="edge105" class="edge"><title>Node36&#45;&gt;Node37</title>
<path fill="none" stroke="midnightblue" d="M2024.31,-537.475C2033.18,-528.373 2047.45,-513.741 2058.42,-502.483"/>
<polygon fill="midnightblue" stroke="midnightblue" points="2061.23,-504.613 2065.71,-495.009 2056.22,-499.727 2061.23,-504.613"/>
</g>
<!-- Node38&#45;&gt;Node2 -->
<g id="edge115" class="edge"><title>Node38&#45;&gt;Node2</title>
<path fill="none" stroke="midnightblue" d="M339.66,-770.063C625.439,-770.281 2399,-767.312 2399,-660 2399,-660 2399,-660 2399,-546 2399,-399.534 2396.7,-335.332 2290,-235 2255.13,-202.209 2243.15,-194.901 2198,-179 2148.87,-161.698 2008.86,-147.184 1923.67,-139.623"/>
<polygon fill="midnightblue" stroke="midnightblue" points="1923.83,-136.123 1913.56,-138.735 1923.22,-143.096 1923.83,-136.123"/>
</g>
<!-- Node38&#45;&gt;Node8 -->
<g id="edge132" class="edge"><title>Node38&#45;&gt;Node8</title>
<path fill="none" stroke="midnightblue" d="M289.539,-761.322C261.179,-738.765 190,-675.071 190,-604 190,-604 190,-604 190,-546 190,-443.177 293.823,-470.09 380,-414 493.592,-340.067 785.221,-158.584 916,-123 1036.9,-90.1054 1185.11,-78.3702 1257.69,-74.3989"/>
<polygon fill="midnightblue" stroke="midnightblue" points="1258.03,-77.8859 1267.83,-73.8677 1257.66,-70.8954 1258.03,-77.8859"/>
</g>
<!-- Node38&#45;&gt;Node9 -->
<g id="edge129" class="edge"><title>Node38&#45;&gt;Node9</title>
<path fill="none" stroke="midnightblue" d="M262.196,-770.438C223.016,-768.747 163.256,-759.997 127,-725 26.9364,-628.41 38,-564.077 38,-425 38,-425 38,-425 38,-188 38,-101.382 170.57,-79.7038 233.534,-74.2927"/>
<polygon fill="midnightblue" stroke="midnightblue" points="234.022,-77.7655 243.723,-73.5074 233.484,-70.7862 234.022,-77.7655"/>
</g>
<!-- Node38&#45;&gt;Node12 -->
<g id="edge116" class="edge"><title>Node38&#45;&gt;Node12</title>
<path fill="none" stroke="midnightblue" d="M303.468,-761.336C310.524,-738.344 333.153,-675.727 377,-649 416.32,-625.032 716.606,-611.063 846.468,-606.087"/>
<polygon fill="midnightblue" stroke="midnightblue" points="846.775,-609.578 856.635,-605.702 846.51,-602.583 846.775,-609.578"/>
</g>
<!-- Node38&#45;&gt;Node28 -->
<g id="edge131" class="edge"><title>Node38&#45;&gt;Node28</title>
<path fill="none" stroke="midnightblue" d="M262.484,-770.231C206.95,-768.749 113.095,-758.491 133,-705 181.133,-575.648 228.535,-556.602 336,-470 465.615,-365.549 515.1,-363.387 665,-291 689.867,-278.992 718.758,-266.841 740.092,-258.198"/>
<polygon fill="midnightblue" stroke="midnightblue" points="741.641,-261.348 749.613,-254.37 739.029,-254.853 741.641,-261.348"/>
</g>
<!-- Node38&#45;&gt;Node34 -->
<g id="edge117" class="edge"><title>Node38&#45;&gt;Node34</title>
<path fill="none" stroke="midnightblue" d="M299.704,-761.393C294.185,-721.149 276.796,-550.127 366,-470 390.378,-448.103 591.6,-434.331 700.924,-428.392"/>
<polygon fill="midnightblue" stroke="midnightblue" points="701.41,-431.871 711.208,-427.842 701.035,-424.881 701.41,-431.871"/>
</g>
<!-- Node39 -->
<g id="node39" class="node"><title>Node39</title>
<g id="a_node39"><a xlink:href="span_8h.html" target="_top" xlink:title="Span information for debugging purposes. ">
<polygon fill="white" stroke="black" points="386,-649.5 386,-668.5 466,-668.5 466,-649.5 386,-649.5"/>
<text text-anchor="middle" x="426" y="-656.5" font-family="Helvetica,sans-Serif" font-size="10.00">tvm/ir/span.h</text>
</a>
</g>
</g>
<!-- Node38&#45;&gt;Node39 -->
<g id="edge118" class="edge"><title>Node38&#45;&gt;Node39</title>
<path fill="none" stroke="midnightblue" d="M310.809,-761.368C331.893,-742.814 381.781,-698.913 408.457,-675.438"/>
<polygon fill="midnightblue" stroke="midnightblue" points="411.042,-677.825 416.237,-668.591 406.418,-672.57 411.042,-677.825"/>
</g>
<!-- Node38&#45;&gt;Node40 -->
<g id="edge122" class="edge"><title>Node38&#45;&gt;Node40</title>
<path fill="none" stroke="midnightblue" d="M331.581,-761.444C364.615,-752.201 417.388,-737.436 453.766,-727.257"/>
<polygon fill="midnightblue" stroke="midnightblue" points="454.875,-730.582 463.562,-724.516 452.988,-723.84 454.875,-730.582"/>
</g>
<!-- Node41 -->
<g id="node41" class="node"><title>Node41</title>
<polygon fill="white" stroke="#bfbfbf" points="142,-705.5 142,-724.5 204,-724.5 204,-705.5 142,-705.5"/>
<text text-anchor="middle" x="173" y="-712.5" font-family="Helvetica,sans-Serif" font-size="10.00">algorithm</text>
</g>
<!-- Node38&#45;&gt;Node41 -->
<g id="edge130" class="edge"><title>Node38&#45;&gt;Node41</title>
<path fill="none" stroke="midnightblue" d="M280.718,-761.444C259.653,-752.557 226.483,-738.563 202.514,-728.451"/>
<polygon fill="midnightblue" stroke="midnightblue" points="203.761,-725.179 193.187,-724.516 201.04,-731.628 203.761,-725.179"/>
</g>
<!-- Node39&#45;&gt;Node2 -->
<g id="edge119" class="edge"><title>Node39&#45;&gt;Node2</title>
<path fill="none" stroke="midnightblue" d="M466.35,-657.925C713.792,-657.171 2020.3,-648.838 2170,-557 2227.89,-521.483 2247,-492.919 2247,-425 2247,-425 2247,-425 2247,-367 2247,-306.191 2247.33,-283.767 2211,-235 2182.86,-197.219 2165.06,-195.688 2121,-179 2056.57,-154.595 1978.36,-143.379 1923.48,-138.253"/>
<polygon fill="midnightblue" stroke="midnightblue" points="1923.78,-134.766 1913.51,-137.365 1923.16,-141.738 1923.78,-134.766"/>
</g>
<!-- Node39&#45;&gt;Node9 -->
<g id="edge121" class="edge"><title>Node39&#45;&gt;Node9</title>
<path fill="none" stroke="midnightblue" d="M389.905,-649.419C307.777,-627.518 114,-561.392 114,-425 114,-425 114,-425 114,-188 114,-128.195 189.518,-95.3149 234.095,-81.1157"/>
<polygon fill="midnightblue" stroke="midnightblue" points="235.349,-84.3924 243.898,-78.1337 233.312,-77.6954 235.349,-84.3924"/>
</g>
<!-- Node39&#45;&gt;Node12 -->
<g id="edge120" class="edge"><title>Node39&#45;&gt;Node12</title>
<path fill="none" stroke="midnightblue" d="M466.099,-653.489C550.643,-643.978 747.53,-621.828 846.692,-610.672"/>
<polygon fill="midnightblue" stroke="midnightblue" points="847.297,-614.126 856.843,-609.53 846.514,-607.17 847.297,-614.126"/>
</g>
<!-- Node40&#45;&gt;Node2 -->
<g id="edge123" class="edge"><title>Node40&#45;&gt;Node2</title>
<path fill="none" stroke="midnightblue" d="M532.623,-713.761C796.484,-711.883 2323,-696.997 2323,-604 2323,-604 2323,-604 2323,-367 2323,-256.703 2262.29,-222.654 2161,-179 2119.53,-161.127 2000.46,-147.314 1923.66,-139.942"/>
<polygon fill="midnightblue" stroke="midnightblue" points="1923.87,-136.446 1913.58,-138.988 1923.21,-143.415 1923.87,-136.446"/>
</g>
<!-- Node40&#45;&gt;Node9 -->
<g id="edge128" class="edge"><title>Node40&#45;&gt;Node9</title>
<path fill="none" stroke="midnightblue" d="M455.425,-706.684C351.945,-684.601 76,-608.509 76,-425 76,-425 76,-425 76,-188 76,-115.077 179.459,-86.8841 233.688,-77.1152"/>
<polygon fill="midnightblue" stroke="midnightblue" points="234.557,-80.5181 243.833,-75.3992 233.389,-73.6161 234.557,-80.5181"/>
</g>
<!-- Node40&#45;&gt;Node12 -->
<g id="edge125" class="edge"><title>Node40&#45;&gt;Node12</title>
<path fill="none" stroke="midnightblue" d="M525.986,-705.46C599.764,-685.762 781.825,-637.154 864.255,-615.146"/>
<polygon fill="midnightblue" stroke="midnightblue" points="865.276,-618.496 874.034,-612.535 863.47,-611.733 865.276,-618.496"/>
</g>
<!-- Node40&#45;&gt;Node25 -->
<g id="edge124" class="edge"><title>Node40&#45;&gt;Node25</title>
<path fill="none" stroke="midnightblue" d="M532.748,-712.936C771.713,-706.045 2039.25,-664.577 2170,-557 2217.24,-518.133 2209,-486.174 2209,-425 2209,-425 2209,-425 2209,-367 2209,-320.247 2164.58,-280.855 2136.49,-260.619"/>
<polygon fill="midnightblue" stroke="midnightblue" points="2138.23,-257.566 2128.02,-254.737 2134.23,-263.316 2138.23,-257.566"/>
</g>
<!-- Node40&#45;&gt;Node34 -->
<g id="edge126" class="edge"><title>Node40&#45;&gt;Node34</title>
<path fill="none" stroke="midnightblue" d="M494,-705.442C494,-686.936 494,-641.812 494,-604 494,-604 494,-604 494,-546 494,-455.699 619.148,-432.124 701.206,-426.371"/>
<polygon fill="midnightblue" stroke="midnightblue" points="701.475,-429.861 711.236,-425.741 701.036,-422.875 701.475,-429.861"/>
</g>
<!-- Node40&#45;&gt;Node39 -->
<g id="edge127" class="edge"><title>Node40&#45;&gt;Node39</title>
<path fill="none" stroke="midnightblue" d="M483.075,-705.324C472.825,-697.185 457.279,-684.839 444.999,-675.087"/>
<polygon fill="midnightblue" stroke="midnightblue" points="447.132,-672.312 437.124,-668.834 442.779,-677.794 447.132,-672.312"/>
</g>
</g>
</svg>
