<?xml version="1.0" encoding="UTF-8" standalone="no"?>
<!DOCTYPE svg PUBLIC "-//W3C//DTD SVG 1.1//EN"
 "http://www.w3.org/Graphics/SVG/1.1/DTD/svg11.dtd">
<!-- Generated by graphviz version 2.38.0 (20140413.2041)
 -->
<!-- Title: include/tvm/ir/op.h Pages: 1 -->
<svg width="3312pt" height="1069pt"
 viewBox="0.00 0.00 3312.00 1069.00" xmlns="http://www.w3.org/2000/svg" xmlns:xlink="http://www.w3.org/1999/xlink">
<g id="graph0" class="graph" transform="scale(1 1) rotate(0) translate(4 1065)">
<title>include/tvm/ir/op.h</title>
<polygon fill="white" stroke="none" points="-4,4 -4,-1065 3308,-1065 3308,4 -4,4"/>
<!-- Node1 -->
<g id="node1" class="node"><title>Node1</title>
<polygon fill="#bfbfbf" stroke="black" points="1599.5,-1041.5 1599.5,-1060.5 1704.5,-1060.5 1704.5,-1041.5 1599.5,-1041.5"/>
<text text-anchor="middle" x="1652" y="-1048.5" font-family="Helvetica,sans-Serif" font-size="10.00">include/tvm/ir/op.h</text>
</g>
<!-- Node2 -->
<g id="node2" class="node"><title>Node2</title>
<polygon fill="white" stroke="#bfbfbf" points="0,-985.5 0,-1004.5 86,-1004.5 86,-985.5 0,-985.5"/>
<text text-anchor="middle" x="43" y="-992.5" font-family="Helvetica,sans-Serif" font-size="10.00">dmlc/registry.h</text>
</g>
<!-- Node1&#45;&gt;Node2 -->
<g id="edge1" class="edge"><title>Node1&#45;&gt;Node2</title>
<path fill="none" stroke="midnightblue" d="M1599.4,-1049.38C1363.4,-1046.45 400.606,-1032.97 100,-1005 98.7375,-1004.88 97.4605,-1004.75 96.1736,-1004.62"/>
<polygon fill="midnightblue" stroke="midnightblue" points="96.5345,-1001.14 86.187,-1003.41 95.6955,-1008.09 96.5345,-1001.14"/>
</g>
<!-- Node3 -->
<g id="node3" class="node"><title>Node3</title>
<g id="a_node3"><a xlink:href="ir_2attrs_8h.html" target="_top" xlink:title="Helpers for attribute objects. ">
<polygon fill="white" stroke="black" points="1441.5,-817.5 1441.5,-836.5 1520.5,-836.5 1520.5,-817.5 1441.5,-817.5"/>
<text text-anchor="middle" x="1481" y="-824.5" font-family="Helvetica,sans-Serif" font-size="10.00">tvm/ir/attrs.h</text>
</a>
</g>
</g>
<!-- Node1&#45;&gt;Node3 -->
<g id="edge2" class="edge"><title>Node1&#45;&gt;Node3</title>
<path fill="none" stroke="midnightblue" d="M1614.54,-1041.45C1570.77,-1029.23 1500.36,-1002.13 1469,-949 1449.94,-916.709 1463.11,-870.976 1472.95,-846"/>
<polygon fill="midnightblue" stroke="midnightblue" points="1476.23,-847.242 1476.87,-836.666 1469.77,-844.535 1476.23,-847.242"/>
</g>
<!-- Node5 -->
<g id="node5" class="node"><title>Node5</title>
<g id="a_node5"><a xlink:href="ir_2expr_8h.html" target="_top" xlink:title="Base expr nodes in TVM. ">
<polygon fill="white" stroke="black" points="973.5,-761.5 973.5,-780.5 1050.5,-780.5 1050.5,-761.5 973.5,-761.5"/>
<text text-anchor="middle" x="1012" y="-768.5" font-family="Helvetica,sans-Serif" font-size="10.00">tvm/ir/expr.h</text>
</a>
</g>
</g>
<!-- Node1&#45;&gt;Node5 -->
<g id="edge146" class="edge"><title>Node1&#45;&gt;Node5</title>
<path fill="none" stroke="midnightblue" d="M1599.45,-1048.52C1350.42,-1041.19 301,-1006.37 301,-940 301,-940 301,-940 301,-882 301,-814.854 802.629,-782.899 963.195,-774.391"/>
<polygon fill="midnightblue" stroke="midnightblue" points="963.465,-777.882 973.269,-773.864 963.1,-770.891 963.465,-777.882"/>
</g>
<!-- Node13 -->
<g id="node13" class="node"><title>Node13</title>
<polygon fill="white" stroke="#bfbfbf" points="2883,-62 2883,-81 2927,-81 2927,-62 2883,-62"/>
<text text-anchor="middle" x="2905" y="-69" font-family="Helvetica,sans-Serif" font-size="10.00">string</text>
</g>
<!-- Node1&#45;&gt;Node13 -->
<g id="edge175" class="edge"><title>Node1&#45;&gt;Node13</title>
<path fill="none" stroke="midnightblue" d="M1704.54,-1049.54C1922.85,-1047.45 2759.19,-1037.45 3021,-1005 3149.07,-989.128 3304,-1069.05 3304,-940 3304,-940 3304,-940 3304,-188 3304,-148.382 3278.09,-141.39 3243,-123 3190.03,-95.2402 3010.9,-79.8855 2937.14,-74.6123"/>
<polygon fill="midnightblue" stroke="midnightblue" points="2937.27,-71.1129 2927.05,-73.9071 2936.78,-78.0958 2937.27,-71.1129"/>
</g>
<!-- Node14 -->
<g id="node14" class="node"><title>Node14</title>
<polygon fill="white" stroke="#bfbfbf" points="825,-62 825,-81 867,-81 867,-62 825,-62"/>
<text text-anchor="middle" x="846" y="-69" font-family="Helvetica,sans-Serif" font-size="10.00">utility</text>
</g>
<!-- Node1&#45;&gt;Node14 -->
<g id="edge176" class="edge"><title>Node1&#45;&gt;Node14</title>
<path fill="none" stroke="midnightblue" d="M1599.06,-1049.04C1328.62,-1043.82 114,-1016.13 114,-940 114,-940 114,-940 114,-423 114,-239.703 222.754,-179.888 397,-123 547.676,-73.8065 740.222,-70.8088 814.67,-71.7293"/>
<polygon fill="midnightblue" stroke="midnightblue" points="814.724,-75.2305 824.778,-71.8886 814.834,-68.2314 814.724,-75.2305"/>
</g>
<!-- Node24 -->
<g id="node24" class="node"><title>Node24</title>
<polygon fill="white" stroke="#bfbfbf" points="2377.5,-179.5 2377.5,-198.5 2424.5,-198.5 2424.5,-179.5 2377.5,-179.5"/>
<text text-anchor="middle" x="2401" y="-186.5" font-family="Helvetica,sans-Serif" font-size="10.00">vector</text>
</g>
<!-- Node1&#45;&gt;Node24 -->
<g id="edge177" class="edge"><title>Node1&#45;&gt;Node24</title>
<path fill="none" stroke="midnightblue" d="M1704.78,-1049.23C1982.95,-1044.82 3266,-1020.13 3266,-940 3266,-940 3266,-940 3266,-770 3266,-666.884 3184.59,-669.995 3116,-593 3020.83,-486.171 3012.82,-440.601 2896,-358 2784.69,-279.291 2744.83,-276.579 2615,-235 2552.67,-215.039 2477.24,-201.555 2434.62,-194.877"/>
<polygon fill="midnightblue" stroke="midnightblue" points="2434.94,-191.384 2424.52,-193.326 2433.88,-198.303 2434.94,-191.384"/>
</g>
<!-- Node42 -->
<g id="node42" class="node"><title>Node42</title>
<g id="a_node42"><a xlink:href="ir_2type_8h.html" target="_top" xlink:title="IR/AST nodes for the unified type system in TVM. ">
<polygon fill="white" stroke="black" points="1489.5,-705.5 1489.5,-724.5 1566.5,-724.5 1566.5,-705.5 1489.5,-705.5"/>
<text text-anchor="middle" x="1528" y="-712.5" font-family="Helvetica,sans-Serif" font-size="10.00">tvm/ir/type.h</text>
</a>
</g>
</g>
<!-- Node1&#45;&gt;Node42 -->
<g id="edge147" class="edge"><title>Node1&#45;&gt;Node42</title>
<path fill="none" stroke="midnightblue" d="M1675.79,-1041.5C1691.72,-1034.41 1711.46,-1022.61 1721,-1005 1740.5,-969.009 1802.62,-1160.21 1685,-817 1676.04,-790.862 1678.64,-779.372 1658,-761 1635.38,-740.863 1603.27,-729.634 1576.63,-723.429"/>
<polygon fill="midnightblue" stroke="midnightblue" points="1577.23,-719.978 1566.72,-721.289 1575.75,-726.821 1577.23,-719.978"/>
</g>
<!-- Node44 -->
<g id="node44" class="node"><title>Node44</title>
<g id="a_node44"><a xlink:href="registry_8h.html" target="_top" xlink:title="This file defines the TVM global function registry. ">
<polygon fill="white" stroke="black" points="2546,-358.5 2546,-377.5 2668,-377.5 2668,-358.5 2546,-358.5"/>
<text text-anchor="middle" x="2607" y="-365.5" font-family="Helvetica,sans-Serif" font-size="10.00">tvm/runtime/registry.h</text>
</a>
</g>
</g>
<!-- Node1&#45;&gt;Node44 -->
<g id="edge141" class="edge"><title>Node1&#45;&gt;Node44</title>
<path fill="none" stroke="midnightblue" d="M1704.73,-1048.29C1946.34,-1040.13 2936,-1002.86 2936,-940 2936,-940 2936,-940 2936,-484.5 2936,-430.126 2773.99,-395.189 2677.35,-379.185"/>
<polygon fill="midnightblue" stroke="midnightblue" points="2677.78,-375.708 2667.34,-377.557 2676.65,-382.617 2677.78,-375.708"/>
</g>
<!-- Node45 -->
<g id="node45" class="node"><title>Node45</title>
<g id="a_node45"><a xlink:href="type__relation_8h.html" target="_top" xlink:title="Type relation and function for type inference(checking). ">
<polygon fill="white" stroke="black" points="1592.5,-985.5 1592.5,-1004.5 1711.5,-1004.5 1711.5,-985.5 1592.5,-985.5"/>
<text text-anchor="middle" x="1652" y="-992.5" font-family="Helvetica,sans-Serif" font-size="10.00">tvm/ir/type_relation.h</text>
</a>
</g>
</g>
<!-- Node1&#45;&gt;Node45 -->
<g id="edge148" class="edge"><title>Node1&#45;&gt;Node45</title>
<path fill="none" stroke="midnightblue" d="M1652,-1041.08C1652,-1034.01 1652,-1023.86 1652,-1014.99"/>
<polygon fill="midnightblue" stroke="midnightblue" points="1655.5,-1014.75 1652,-1004.75 1648.5,-1014.75 1655.5,-1014.75"/>
</g>
<!-- Node4 -->
<g id="node4" class="node"><title>Node4</title>
<polygon fill="white" stroke="#bfbfbf" points="1471.5,-761.5 1471.5,-780.5 1566.5,-780.5 1566.5,-761.5 1471.5,-761.5"/>
<text text-anchor="middle" x="1519" y="-768.5" font-family="Helvetica,sans-Serif" font-size="10.00">dmlc/common.h</text>
</g>
<!-- Node3&#45;&gt;Node4 -->
<g id="edge3" class="edge"><title>Node3&#45;&gt;Node4</title>
<path fill="none" stroke="midnightblue" d="M1487.27,-817.083C1492.64,-809.455 1500.52,-798.264 1507.08,-788.941"/>
<polygon fill="midnightblue" stroke="midnightblue" points="1509.95,-790.943 1512.84,-780.751 1504.22,-786.915 1509.95,-790.943"/>
</g>
<!-- Node3&#45;&gt;Node5 -->
<g id="edge4" class="edge"><title>Node3&#45;&gt;Node5</title>
<path fill="none" stroke="midnightblue" d="M1441.42,-821.443C1355.85,-811.59 1153.86,-788.333 1060.66,-777.603"/>
<polygon fill="midnightblue" stroke="midnightblue" points="1060.99,-774.117 1050.65,-776.45 1060.19,-781.071 1060.99,-774.117"/>
</g>
<!-- Node12 -->
<g id="node12" class="node"><title>Node12</title>
<polygon fill="white" stroke="#bfbfbf" points="345,-62 345,-81 413,-81 413,-62 345,-62"/>
<text text-anchor="middle" x="379" y="-69" font-family="Helvetica,sans-Serif" font-size="10.00">type_traits</text>
</g>
<!-- Node3&#45;&gt;Node12 -->
<g id="edge138" class="edge"><title>Node3&#45;&gt;Node12</title>
<path fill="none" stroke="midnightblue" d="M1441.39,-822.258C1421.23,-820.458 1396.33,-818.393 1374,-817 1275.89,-810.879 583.135,-812.456 490,-781 330.052,-726.979 190,-716.824 190,-548 190,-548 190,-548 190,-423 190,-337.388 114,-331.612 114,-246 114,-246 114,-246 114,-188 114,-92.8542 259.333,-75.2871 334.744,-72.5762"/>
<polygon fill="midnightblue" stroke="midnightblue" points="335.003,-76.0703 344.898,-72.2857 334.802,-69.0732 335.003,-76.0703"/>
</g>
<!-- Node3&#45;&gt;Node13 -->
<g id="edge139" class="edge"><title>Node3&#45;&gt;Node13</title>
<path fill="none" stroke="midnightblue" d="M1520.6,-825.503C1710.69,-822.975 2524.79,-810.499 2634,-781 2930.92,-700.796 3190,-676.561 3190,-369 3190,-369 3190,-369 3190,-188 3190,-157.205 3189.47,-142.935 3166,-123 3131.83,-93.9799 2999.23,-79.9233 2937.26,-74.8312"/>
<polygon fill="midnightblue" stroke="midnightblue" points="2937.49,-71.3387 2927.24,-74.0363 2936.93,-78.3168 2937.49,-71.3387"/>
</g>
<!-- Node3&#45;&gt;Node14 -->
<g id="edge140" class="edge"><title>Node3&#45;&gt;Node14</title>
<path fill="none" stroke="midnightblue" d="M1441.39,-822.274C1421.23,-820.478 1396.33,-818.412 1374,-817 1279.88,-811.046 614.849,-812.619 526,-781 502.768,-772.732 228,-571.735 228,-548 228,-548 228,-548 228,-367 228,-221.281 312.14,-178.197 447,-123 513.791,-95.6632 732.883,-79.5466 814.76,-74.3546"/>
<polygon fill="midnightblue" stroke="midnightblue" points="815.169,-77.836 824.932,-73.7213 814.734,-70.8496 815.169,-77.836"/>
</g>
<!-- Node20 -->
<g id="node20" class="node"><title>Node20</title>
<g id="a_node20"><a xlink:href="packed__func_8h.html" target="_top" xlink:title="Type&#45;erased function used across TVM API. ">
<polygon fill="white" stroke="black" points="1821.5,-291.5 1821.5,-321.5 1934.5,-321.5 1934.5,-291.5 1821.5,-291.5"/>
<text text-anchor="start" x="1829.5" y="-309.5" font-family="Helvetica,sans-Serif" font-size="10.00">tvm/runtime/packed</text>
<text text-anchor="middle" x="1878" y="-298.5" font-family="Helvetica,sans-Serif" font-size="10.00">_func.h</text>
</a>
</g>
</g>
<!-- Node3&#45;&gt;Node20 -->
<g id="edge134" class="edge"><title>Node3&#45;&gt;Node20</title>
<path fill="none" stroke="midnightblue" d="M1520.7,-826.036C1710.7,-825.695 2518,-818.234 2518,-716 2518,-716 2518,-716 2518,-602 2518,-351.714 2109.07,-313.386 1944.96,-308.082"/>
<polygon fill="midnightblue" stroke="midnightblue" points="1944.61,-304.57 1934.51,-307.779 1944.41,-311.567 1944.61,-304.57"/>
</g>
<!-- Node3&#45;&gt;Node24 -->
<g id="edge136" class="edge"><title>Node3&#45;&gt;Node24</title>
<path fill="none" stroke="midnightblue" d="M1520.67,-826.235C1689.94,-826.947 2352.36,-826.699 2555,-781 2627.07,-764.747 2708,-789.882 2708,-716 2708,-716 2708,-716 2708,-602 2708,-467.346 2577.44,-490.866 2504,-378 2466.12,-319.788 2478.52,-293.44 2441,-235 2434.31,-224.577 2425.24,-214.162 2417.43,-205.98"/>
<polygon fill="midnightblue" stroke="midnightblue" points="2419.69,-203.286 2410.17,-198.625 2414.71,-208.202 2419.69,-203.286"/>
</g>
<!-- Node25 -->
<g id="node25" class="node"><title>Node25</title>
<polygon fill="white" stroke="#bfbfbf" points="408.5,-179.5 408.5,-198.5 501.5,-198.5 501.5,-179.5 408.5,-179.5"/>
<text text-anchor="middle" x="455" y="-186.5" font-family="Helvetica,sans-Serif" font-size="10.00">unordered_map</text>
</g>
<!-- Node3&#45;&gt;Node25 -->
<g id="edge135" class="edge"><title>Node3&#45;&gt;Node25</title>
<path fill="none" stroke="midnightblue" d="M1441.15,-822.588C1328.35,-812.921 1011.92,-785.737 965,-781 747.792,-759.07 646.527,-862.553 477,-725 412.608,-672.753 418,-630.922 418,-548 418,-548 418,-548 418,-367 418,-308.027 437.923,-240.296 448.53,-208.414"/>
<polygon fill="midnightblue" stroke="midnightblue" points="451.926,-209.3 451.845,-198.705 445.301,-207.037 451.926,-209.3"/>
</g>
<!-- Node29 -->
<g id="node29" class="node"><title>Node29</title>
<polygon fill="white" stroke="#bfbfbf" points="2338.5,-235.5 2338.5,-254.5 2401.5,-254.5 2401.5,-235.5 2338.5,-235.5"/>
<text text-anchor="middle" x="2370" y="-242.5" font-family="Helvetica,sans-Serif" font-size="10.00">functional</text>
</g>
<!-- Node3&#45;&gt;Node29 -->
<g id="edge137" class="edge"><title>Node3&#45;&gt;Node29</title>
<path fill="none" stroke="midnightblue" d="M1520.62,-826.459C1723.01,-828.292 2632,-830.169 2632,-716 2632,-716 2632,-716 2632,-658 2632,-610.847 2434.07,-334.408 2382.28,-262.887"/>
<polygon fill="midnightblue" stroke="midnightblue" points="2384.92,-260.572 2376.22,-254.532 2379.26,-264.682 2384.92,-260.572"/>
</g>
<!-- Node35 -->
<g id="node35" class="node"><title>Node35</title>
<g id="a_node35"><a xlink:href="structural__equal_8h.html" target="_top" xlink:title="Structural equality comparison. ">
<polygon fill="white" stroke="black" points="1319.5,-470.5 1319.5,-500.5 1430.5,-500.5 1430.5,-470.5 1319.5,-470.5"/>
<text text-anchor="start" x="1327.5" y="-488.5" font-family="Helvetica,sans-Serif" font-size="10.00">tvm/node/structural</text>
<text text-anchor="middle" x="1375" y="-477.5" font-family="Helvetica,sans-Serif" font-size="10.00">_equal.h</text>
</a>
</g>
</g>
<!-- Node3&#45;&gt;Node35 -->
<g id="edge132" class="edge"><title>Node3&#45;&gt;Node35</title>
<path fill="none" stroke="midnightblue" d="M1477.32,-817.46C1473.5,-808.473 1467.49,-793.871 1463,-781 1428.4,-681.741 1394.94,-560.863 1381.36,-510.409"/>
<polygon fill="midnightblue" stroke="midnightblue" points="1384.74,-509.497 1378.77,-500.745 1377.97,-511.31 1384.74,-509.497"/>
</g>
<!-- Node38 -->
<g id="node38" class="node"><title>Node38</title>
<g id="a_node38"><a xlink:href="structural__hash_8h.html" target="_top" xlink:title="tvm/node/structural\l_hash.h">
<polygon fill="white" stroke="black" points="1577.5,-470.5 1577.5,-500.5 1688.5,-500.5 1688.5,-470.5 1577.5,-470.5"/>
<text text-anchor="start" x="1585.5" y="-488.5" font-family="Helvetica,sans-Serif" font-size="10.00">tvm/node/structural</text>
<text text-anchor="middle" x="1633" y="-477.5" font-family="Helvetica,sans-Serif" font-size="10.00">_hash.h</text>
</a>
</g>
</g>
<!-- Node3&#45;&gt;Node38 -->
<g id="edge133" class="edge"><title>Node3&#45;&gt;Node38</title>
<path fill="none" stroke="midnightblue" d="M1515.87,-817.398C1560.75,-803.997 1633,-773.493 1633,-716 1633,-716 1633,-716 1633,-602 1633,-570.495 1633,-534.155 1633,-510.783"/>
<polygon fill="midnightblue" stroke="midnightblue" points="1636.5,-510.725 1633,-500.725 1629.5,-510.725 1636.5,-510.725"/>
</g>
<!-- Node6 -->
<g id="node6" class="node"><title>Node6</title>
<g id="a_node6"><a xlink:href="object_8h.html" target="_top" xlink:title="A managed object in the TVM runtime. ">
<polygon fill="white" stroke="black" points="1185.5,-123.5 1185.5,-142.5 1302.5,-142.5 1302.5,-123.5 1185.5,-123.5"/>
<text text-anchor="middle" x="1244" y="-130.5" font-family="Helvetica,sans-Serif" font-size="10.00">tvm/runtime/object.h</text>
</a>
</g>
</g>
<!-- Node5&#45;&gt;Node6 -->
<g id="edge5" class="edge"><title>Node5&#45;&gt;Node6</title>
<path fill="none" stroke="midnightblue" d="M1002.41,-761.341C984.328,-744.015 947,-703.033 947,-660 947,-660 947,-660 947,-602 947,-462.467 1064.1,-459.294 1089,-322 1091.46,-308.443 1091.38,-304.571 1089,-291 1086.07,-274.243 1078.93,-271.757 1076,-255 1074.47,-246.244 1071.62,-242.737 1076,-235 1102.93,-187.384 1162.28,-159.744 1202.72,-145.767"/>
<polygon fill="midnightblue" stroke="midnightblue" points="1203.92,-149.057 1212.31,-142.585 1201.71,-142.413 1203.92,-149.057"/>
</g>
<!-- Node5&#45;&gt;Node12 -->
<g id="edge131" class="edge"><title>Node5&#45;&gt;Node12</title>
<path fill="none" stroke="midnightblue" d="M973.336,-768.59C862.423,-764.261 548.655,-749.923 510,-725 410.661,-660.952 287.119,-370.275 261,-255 249.902,-206.019 249.121,-193.125 246,-143 245.448,-134.128 240.952,-130.316 246,-123 265.848,-94.2331 304.39,-81.8386 334.895,-76.5061"/>
<polygon fill="midnightblue" stroke="midnightblue" points="335.549,-79.9466 344.894,-74.9549 334.476,-73.0294 335.549,-79.9466"/>
</g>
<!-- Node5&#45;&gt;Node13 -->
<g id="edge128" class="edge"><title>Node5&#45;&gt;Node13</title>
<path fill="none" stroke="midnightblue" d="M1050.56,-764.287C1130.65,-752.503 1320.91,-724.93 1481,-705 1705.97,-676.992 1762.47,-672.053 1988,-649 2158.09,-631.614 2201.48,-635.233 2371,-613 2519.37,-593.541 2562,-607.098 2703,-557 2804.69,-520.869 3076,-353.921 3076,-246 3076,-246 3076,-246 3076,-188 3076,-121.61 2986.39,-90.8136 2936.91,-78.8691"/>
<polygon fill="midnightblue" stroke="midnightblue" points="2937.53,-75.4219 2927.01,-76.6004 2935.97,-82.2451 2937.53,-75.4219"/>
</g>
<!-- Node16 -->
<g id="node16" class="node"><title>Node16</title>
<g id="a_node16"><a xlink:href="node_8h.html" target="_top" xlink:title="Definitions and helper macros for IR/AST nodes. ">
<polygon fill="white" stroke="black" points="1203,-593.5 1203,-612.5 1301,-612.5 1301,-593.5 1203,-593.5"/>
<text text-anchor="middle" x="1252" y="-600.5" font-family="Helvetica,sans-Serif" font-size="10.00">tvm/node/node.h</text>
</a>
</g>
</g>
<!-- Node5&#45;&gt;Node16 -->
<g id="edge15" class="edge"><title>Node5&#45;&gt;Node16</title>
<path fill="none" stroke="midnightblue" d="M1024.57,-761.309C1063.53,-734.36 1182.59,-652.01 1231.1,-618.457"/>
<polygon fill="midnightblue" stroke="midnightblue" points="1233.33,-621.172 1239.56,-612.605 1229.34,-615.415 1233.33,-621.172"/>
</g>
<!-- Node31 -->
<g id="node31" class="node"><title>Node31</title>
<polygon fill="white" stroke="#bfbfbf" points="1362,-235.5 1362,-254.5 1404,-254.5 1404,-235.5 1362,-235.5"/>
<text text-anchor="middle" x="1383" y="-242.5" font-family="Helvetica,sans-Serif" font-size="10.00">limits</text>
</g>
<!-- Node5&#45;&gt;Node31 -->
<g id="edge130" class="edge"><title>Node5&#45;&gt;Node31</title>
<path fill="none" stroke="midnightblue" d="M973.466,-767.261C905.71,-761.9 768.479,-748.452 727,-725 644.483,-678.346 608,-642.793 608,-548 608,-548 608,-548 608,-423 608,-339.402 665.804,-325.392 742,-291 770.066,-278.332 1226.62,-254.038 1351.59,-247.599"/>
<polygon fill="midnightblue" stroke="midnightblue" points="1351.85,-251.09 1361.66,-247.082 1351.49,-244.099 1351.85,-251.09"/>
</g>
<!-- Node37 -->
<g id="node37" class="node"><title>Node37</title>
<g id="a_node37"><a xlink:href="node_2container_8h.html" target="_top" xlink:title="Array/Map container in the DSL graph. ">
<polygon fill="white" stroke="black" points="856.5,-414.5 856.5,-433.5 975.5,-433.5 975.5,-414.5 856.5,-414.5"/>
<text text-anchor="middle" x="916" y="-421.5" font-family="Helvetica,sans-Serif" font-size="10.00">tvm/node/container.h</text>
</a>
</g>
</g>
<!-- Node5&#45;&gt;Node37 -->
<g id="edge116" class="edge"><title>Node5&#45;&gt;Node37</title>
<path fill="none" stroke="midnightblue" d="M973.41,-765.351C886.706,-753.831 684,-720.437 684,-660 684,-660 684,-660 684,-546 684,-472.113 777.652,-443.27 845.952,-432.06"/>
<polygon fill="midnightblue" stroke="midnightblue" points="846.906,-435.454 856.254,-430.469 845.837,-428.536 846.906,-435.454"/>
</g>
<!-- Node41 -->
<g id="node41" class="node"><title>Node41</title>
<g id="a_node41"><a xlink:href="span_8h.html" target="_top" xlink:title="Span information for debugging purposes. ">
<polygon fill="white" stroke="black" points="1441,-649.5 1441,-668.5 1521,-668.5 1521,-649.5 1441,-649.5"/>
<text text-anchor="middle" x="1481" y="-656.5" font-family="Helvetica,sans-Serif" font-size="10.00">tvm/ir/span.h</text>
</a>
</g>
</g>
<!-- Node5&#45;&gt;Node41 -->
<g id="edge117" class="edge"><title>Node5&#45;&gt;Node41</title>
<path fill="none" stroke="midnightblue" d="M1048.41,-761.46C1132.74,-741.682 1341.33,-692.758 1434.62,-670.878"/>
<polygon fill="midnightblue" stroke="midnightblue" points="1435.68,-674.226 1444.61,-668.535 1434.08,-667.411 1435.68,-674.226"/>
</g>
<!-- Node5&#45;&gt;Node42 -->
<g id="edge121" class="edge"><title>Node5&#45;&gt;Node42</title>
<path fill="none" stroke="midnightblue" d="M1050.78,-765.941C1143.46,-756.242 1377.63,-731.737 1479.46,-721.08"/>
<polygon fill="midnightblue" stroke="midnightblue" points="1479.89,-724.554 1489.47,-720.032 1479.16,-717.592 1479.89,-724.554"/>
</g>
<!-- Node43 -->
<g id="node43" class="node"><title>Node43</title>
<polygon fill="white" stroke="#bfbfbf" points="519,-705.5 519,-724.5 581,-724.5 581,-705.5 519,-705.5"/>
<text text-anchor="middle" x="550" y="-712.5" font-family="Helvetica,sans-Serif" font-size="10.00">algorithm</text>
</g>
<!-- Node5&#45;&gt;Node43 -->
<g id="edge129" class="edge"><title>Node5&#45;&gt;Node43</title>
<path fill="none" stroke="midnightblue" d="M973.331,-766.996C899.517,-761.004 733.545,-746.286 595,-725 593.898,-724.831 592.781,-724.653 591.655,-724.468"/>
<polygon fill="midnightblue" stroke="midnightblue" points="591.864,-720.951 581.407,-722.656 590.645,-727.844 591.864,-720.951"/>
</g>
<!-- Node7 -->
<g id="node7" class="node"><title>Node7</title>
<polygon fill="white" stroke="#bfbfbf" points="1201,-62 1201,-81 1287,-81 1287,-62 1201,-62"/>
<text text-anchor="middle" x="1244" y="-69" font-family="Helvetica,sans-Serif" font-size="10.00">dmlc/logging.h</text>
</g>
<!-- Node6&#45;&gt;Node7 -->
<g id="edge6" class="edge"><title>Node6&#45;&gt;Node7</title>
<path fill="none" stroke="midnightblue" d="M1244,-123.475C1244,-115.08 1244,-101.981 1244,-91.1631"/>
<polygon fill="midnightblue" stroke="midnightblue" points="1247.5,-91.0091 1244,-81.0091 1240.5,-91.0091 1247.5,-91.0091"/>
</g>
<!-- Node8 -->
<g id="node8" class="node"><title>Node8</title>
<g id="a_node8"><a xlink:href="c__runtime__api_8h.html" target="_top" xlink:title="tvm/runtime/c_runtime\l_api.h">
<polygon fill="white" stroke="black" points="2037.5,-56.5 2037.5,-86.5 2164.5,-86.5 2164.5,-56.5 2037.5,-56.5"/>
<text text-anchor="start" x="2045.5" y="-74.5" font-family="Helvetica,sans-Serif" font-size="10.00">tvm/runtime/c_runtime</text>
<text text-anchor="middle" x="2101" y="-63.5" font-family="Helvetica,sans-Serif" font-size="10.00">_api.h</text>
</a>
</g>
</g>
<!-- Node6&#45;&gt;Node8 -->
<g id="edge7" class="edge"><title>Node6&#45;&gt;Node8</title>
<path fill="none" stroke="midnightblue" d="M1302.57,-127.934C1454.24,-117.403 1859.65,-89.2567 2027.08,-77.6321"/>
<polygon fill="midnightblue" stroke="midnightblue" points="2027.55,-81.1082 2037.28,-76.9239 2027.06,-74.125 2027.55,-81.1082"/>
</g>
<!-- Node6&#45;&gt;Node12 -->
<g id="edge11" class="edge"><title>Node6&#45;&gt;Node12</title>
<path fill="none" stroke="midnightblue" d="M1185.23,-127.957C1022.37,-116.755 567.841,-85.4897 423.554,-75.5647"/>
<polygon fill="midnightblue" stroke="midnightblue" points="423.531,-72.0549 413.314,-74.8603 423.05,-79.0384 423.531,-72.0549"/>
</g>
<!-- Node6&#45;&gt;Node13 -->
<g id="edge12" class="edge"><title>Node6&#45;&gt;Node13</title>
<path fill="none" stroke="midnightblue" d="M1302.63,-129.9C1570.04,-120.321 2669.75,-80.9272 2872.71,-73.6566"/>
<polygon fill="midnightblue" stroke="midnightblue" points="2873.13,-77.1441 2882.99,-73.2883 2872.88,-70.1486 2873.13,-77.1441"/>
</g>
<!-- Node6&#45;&gt;Node14 -->
<g id="edge13" class="edge"><title>Node6&#45;&gt;Node14</title>
<path fill="none" stroke="midnightblue" d="M1186.98,-123.475C1101.69,-110.725 943.818,-87.1236 877.078,-77.1461"/>
<polygon fill="midnightblue" stroke="midnightblue" points="877.582,-73.6826 867.174,-75.6655 876.547,-80.6056 877.582,-73.6826"/>
</g>
<!-- Node15 -->
<g id="node15" class="node"><title>Node15</title>
<polygon fill="white" stroke="#bfbfbf" points="1678,-62 1678,-81 1728,-81 1728,-62 1678,-62"/>
<text text-anchor="middle" x="1703" y="-69" font-family="Helvetica,sans-Serif" font-size="10.00">atomic</text>
</g>
<!-- Node6&#45;&gt;Node15 -->
<g id="edge14" class="edge"><title>Node6&#45;&gt;Node15</title>
<path fill="none" stroke="midnightblue" d="M1302.6,-124.404C1399.2,-111.882 1588.99,-87.2786 1667.6,-77.0884"/>
<polygon fill="midnightblue" stroke="midnightblue" points="1668.47,-80.5055 1677.94,-75.7489 1667.57,-73.5636 1668.47,-80.5055"/>
</g>
<!-- Node9 -->
<g id="node9" class="node"><title>Node9</title>
<polygon fill="white" stroke="#bfbfbf" points="1966,-0.5 1966,-19.5 2056,-19.5 2056,-0.5 1966,-0.5"/>
<text text-anchor="middle" x="2011" y="-7.5" font-family="Helvetica,sans-Serif" font-size="10.00">dlpack/dlpack.h</text>
</g>
<!-- Node8&#45;&gt;Node9 -->
<g id="edge8" class="edge"><title>Node8&#45;&gt;Node9</title>
<path fill="none" stroke="midnightblue" d="M2079.67,-56.3993C2065.51,-47.0402 2046.99,-34.7924 2032.75,-25.3771"/>
<polygon fill="midnightblue" stroke="midnightblue" points="2034.37,-22.2531 2024.1,-19.6578 2030.51,-28.0923 2034.37,-22.2531"/>
</g>
<!-- Node10 -->
<g id="node10" class="node"><title>Node10</title>
<polygon fill="white" stroke="#bfbfbf" points="2074.5,-0.5 2074.5,-19.5 2127.5,-19.5 2127.5,-0.5 2074.5,-0.5"/>
<text text-anchor="middle" x="2101" y="-7.5" font-family="Helvetica,sans-Serif" font-size="10.00">stdint.h</text>
</g>
<!-- Node8&#45;&gt;Node10 -->
<g id="edge9" class="edge"><title>Node8&#45;&gt;Node10</title>
<path fill="none" stroke="midnightblue" d="M2101,-56.3993C2101,-48.4664 2101,-38.458 2101,-29.8583"/>
<polygon fill="midnightblue" stroke="midnightblue" points="2104.5,-29.6577 2101,-19.6578 2097.5,-29.6578 2104.5,-29.6577"/>
</g>
<!-- Node11 -->
<g id="node11" class="node"><title>Node11</title>
<polygon fill="white" stroke="#bfbfbf" points="2145.5,-0.5 2145.5,-19.5 2200.5,-19.5 2200.5,-0.5 2145.5,-0.5"/>
<text text-anchor="middle" x="2173" y="-7.5" font-family="Helvetica,sans-Serif" font-size="10.00">stddef.h</text>
</g>
<!-- Node8&#45;&gt;Node11 -->
<g id="edge10" class="edge"><title>Node8&#45;&gt;Node11</title>
<path fill="none" stroke="midnightblue" d="M2118.06,-56.3993C2129.06,-47.3076 2143.37,-35.4899 2154.62,-26.1909"/>
<polygon fill="midnightblue" stroke="midnightblue" points="2157.04,-28.726 2162.52,-19.6578 2152.59,-23.33 2157.04,-28.726"/>
</g>
<!-- Node16&#45;&gt;Node6 -->
<g id="edge68" class="edge"><title>Node16&#45;&gt;Node6</title>
<path fill="none" stroke="midnightblue" d="M1252.13,-593.307C1252.4,-574.063 1253,-526.405 1253,-486.5 1253,-486.5 1253,-486.5 1253,-423 1253,-348.226 1246,-329.747 1244,-255 1243.03,-218.727 1243.37,-176.315 1243.69,-152.563"/>
<polygon fill="midnightblue" stroke="midnightblue" points="1247.19,-152.562 1243.84,-142.511 1240.19,-152.457 1247.19,-152.562"/>
</g>
<!-- Node16&#45;&gt;Node8 -->
<g id="edge16" class="edge"><title>Node16&#45;&gt;Node8</title>
<path fill="none" stroke="midnightblue" d="M1301.14,-601.16C1500.04,-597.6 2239.55,-582.74 2341,-557 2443.73,-530.937 2714.17,-419.377 2756,-322 2792.74,-236.48 2686.34,-220.453 2603,-179 2461.87,-108.799 2276.04,-84.7631 2174.71,-76.6125"/>
<polygon fill="midnightblue" stroke="midnightblue" points="2174.81,-73.1102 2164.57,-75.8277 2174.27,-80.0893 2174.81,-73.1102"/>
</g>
<!-- Node16&#45;&gt;Node12 -->
<g id="edge115" class="edge"><title>Node16&#45;&gt;Node12</title>
<path fill="none" stroke="midnightblue" d="M1202.93,-599.717C1115.19,-595.127 925.804,-582.927 768,-557 661.625,-539.523 630.992,-543.682 532,-501 413.375,-449.853 371.928,-431.256 303,-322 258.862,-252.038 263.443,-224.926 252,-143 250.77,-134.197 247.009,-130.356 252,-123 270.472,-95.7761 306.189,-83.2279 335.053,-77.4444"/>
<polygon fill="midnightblue" stroke="midnightblue" points="335.713,-80.8817 344.937,-75.6678 334.475,-73.9921 335.713,-80.8817"/>
</g>
<!-- Node16&#45;&gt;Node13 -->
<g id="edge112" class="edge"><title>Node16&#45;&gt;Node13</title>
<path fill="none" stroke="midnightblue" d="M1301.03,-602.025C1490.43,-601.815 2174.27,-598.16 2387,-557 2459.73,-542.927 2475.96,-530.313 2544,-501 2631.03,-463.505 2924,-402.262 2924,-307.5 2924,-307.5 2924,-307.5 2924,-188 2924,-153.405 2915.6,-113.745 2909.97,-91.0547"/>
<polygon fill="midnightblue" stroke="midnightblue" points="2913.29,-89.9237 2907.41,-81.1136 2906.51,-91.6707 2913.29,-89.9237"/>
</g>
<!-- Node16&#45;&gt;Node14 -->
<g id="edge114" class="edge"><title>Node16&#45;&gt;Node14</title>
<path fill="none" stroke="midnightblue" d="M1202.8,-598.069C1033.31,-583.28 479.935,-524.195 404,-378 363.224,-299.496 350.872,-252.566 400,-179 446.779,-108.951 720.989,-81.9373 814.655,-74.6766"/>
<polygon fill="midnightblue" stroke="midnightblue" points="815.197,-78.1458 824.906,-73.9056 814.672,-71.1655 815.197,-78.1458"/>
</g>
<!-- Node17 -->
<g id="node17" class="node"><title>Node17</title>
<g id="a_node17"><a xlink:href="runtime_2container_8h.html" target="_top" xlink:title="Common POD(plain old data) container types. ">
<polygon fill="white" stroke="black" points="904,-358.5 904,-377.5 1036,-377.5 1036,-358.5 904,-358.5"/>
<text text-anchor="middle" x="970" y="-365.5" font-family="Helvetica,sans-Serif" font-size="10.00">tvm/runtime/container.h</text>
</a>
</g>
</g>
<!-- Node16&#45;&gt;Node17 -->
<g id="edge17" class="edge"><title>Node16&#45;&gt;Node17</title>
<path fill="none" stroke="midnightblue" d="M1202.98,-601.262C1162.11,-598.259 1104.41,-588.189 1065,-557 1035.92,-533.985 993.292,-429.441 976.833,-386.993"/>
<polygon fill="midnightblue" stroke="midnightblue" points="980.088,-385.707 973.236,-377.627 973.554,-388.217 980.088,-385.707"/>
</g>
<!-- Node18 -->
<g id="node18" class="node"><title>Node18</title>
<g id="a_node18"><a xlink:href="runtime_2memory_8h.html" target="_top" xlink:title="Runtime memory management. ">
<polygon fill="white" stroke="black" points="710.5,-179.5 710.5,-198.5 837.5,-198.5 837.5,-179.5 710.5,-179.5"/>
<text text-anchor="middle" x="774" y="-186.5" font-family="Helvetica,sans-Serif" font-size="10.00">tvm/runtime/memory.h</text>
</a>
</g>
</g>
<!-- Node16&#45;&gt;Node18 -->
<g id="edge69" class="edge"><title>Node16&#45;&gt;Node18</title>
<path fill="none" stroke="midnightblue" d="M1202.63,-597.522C1084.29,-584.418 780.435,-536.441 594,-378 561.848,-350.676 533.285,-326.558 556,-291 589.367,-238.767 657.446,-213.142 708.699,-200.834"/>
<polygon fill="midnightblue" stroke="midnightblue" points="709.741,-204.187 718.71,-198.547 708.181,-197.363 709.741,-204.187"/>
</g>
<!-- Node16&#45;&gt;Node24 -->
<g id="edge113" class="edge"><title>Node16&#45;&gt;Node24</title>
<path fill="none" stroke="midnightblue" d="M1301.24,-602.473C1525.81,-603.995 2442,-603.062 2442,-486.5 2442,-486.5 2442,-486.5 2442,-423 2442,-339.104 2449,-315.392 2425,-235 2422.09,-225.243 2416.95,-215.171 2412.17,-207.036"/>
<polygon fill="midnightblue" stroke="midnightblue" points="2415.13,-205.165 2406.88,-198.511 2409.18,-208.854 2415.13,-205.165"/>
</g>
<!-- Node34 -->
<g id="node34" class="node"><title>Node34</title>
<g id="a_node34"><a xlink:href="reflection_8h.html" target="_top" xlink:title="Reflection and serialization of compiler IR/AST nodes. ">
<polygon fill="white" stroke="black" points="1695.5,-537.5 1695.5,-556.5 1814.5,-556.5 1814.5,-537.5 1695.5,-537.5"/>
<text text-anchor="middle" x="1755" y="-544.5" font-family="Helvetica,sans-Serif" font-size="10.00">tvm/node/reflection.h</text>
</a>
</g>
</g>
<!-- Node16&#45;&gt;Node34 -->
<g id="edge70" class="edge"><title>Node16&#45;&gt;Node34</title>
<path fill="none" stroke="midnightblue" d="M1301.15,-596.724C1390.98,-587.08 1581.93,-566.58 1685.2,-555.493"/>
<polygon fill="midnightblue" stroke="midnightblue" points="1685.65,-558.965 1695.22,-554.418 1684.9,-552.005 1685.65,-558.965"/>
</g>
<!-- Node16&#45;&gt;Node35 -->
<g id="edge110" class="edge"><title>Node16&#45;&gt;Node35</title>
<path fill="none" stroke="midnightblue" d="M1261.24,-593.319C1280.47,-575.27 1325.22,-533.246 1352.51,-507.617"/>
<polygon fill="midnightblue" stroke="midnightblue" points="1355.15,-509.942 1360.04,-500.545 1350.36,-504.839 1355.15,-509.942"/>
</g>
<!-- Node16&#45;&gt;Node37 -->
<g id="edge109" class="edge"><title>Node16&#45;&gt;Node37</title>
<path fill="none" stroke="midnightblue" d="M1202.85,-597.307C1141.39,-590.694 1040.42,-577.145 1009,-557 965.071,-528.838 935.856,-471.843 923.183,-442.833"/>
<polygon fill="midnightblue" stroke="midnightblue" points="926.368,-441.378 919.265,-433.517 919.915,-444.092 926.368,-441.378"/>
</g>
<!-- Node16&#45;&gt;Node38 -->
<g id="edge111" class="edge"><title>Node16&#45;&gt;Node38</title>
<path fill="none" stroke="midnightblue" d="M1280.33,-593.413C1342.97,-574.423 1494.23,-528.568 1576.85,-503.523"/>
<polygon fill="midnightblue" stroke="midnightblue" points="1578.01,-506.826 1586.57,-500.575 1575.98,-500.127 1578.01,-506.826"/>
</g>
<!-- Node39 -->
<g id="node39" class="node"><title>Node39</title>
<g id="a_node39"><a xlink:href="repr__printer_8h.html" target="_top" xlink:title="Printer class to print repr string of each AST/IR nodes. ">
<polygon fill="white" stroke="black" points="1074,-537.5 1074,-556.5 1204,-556.5 1204,-537.5 1074,-537.5"/>
<text text-anchor="middle" x="1139" y="-544.5" font-family="Helvetica,sans-Serif" font-size="10.00">tvm/node/repr_printer.h</text>
</a>
</g>
</g>
<!-- Node16&#45;&gt;Node39 -->
<g id="edge106" class="edge"><title>Node16&#45;&gt;Node39</title>
<path fill="none" stroke="midnightblue" d="M1234.09,-593.444C1215.75,-584.675 1186.99,-570.935 1165.91,-560.858"/>
<polygon fill="midnightblue" stroke="midnightblue" points="1167.35,-557.67 1156.82,-556.516 1164.33,-563.986 1167.35,-557.67"/>
</g>
<!-- Node17&#45;&gt;Node6 -->
<g id="edge24" class="edge"><title>Node17&#45;&gt;Node6</title>
<path fill="none" stroke="midnightblue" d="M1005.01,-358.445C1023.93,-351.844 1045.68,-340.594 1057,-322 1064.16,-310.231 1064.75,-302.394 1057,-291 1032.55,-255.03 990.452,-290.97 966,-255 945.643,-225.055 990.776,-187.664 1004,-179 1031.61,-160.91 1114.45,-148.176 1175.11,-140.976"/>
<polygon fill="midnightblue" stroke="midnightblue" points="1175.86,-144.412 1185.39,-139.782 1175.06,-137.458 1175.86,-144.412"/>
</g>
<!-- Node17&#45;&gt;Node7 -->
<g id="edge18" class="edge"><title>Node17&#45;&gt;Node7</title>
<path fill="none" stroke="midnightblue" d="M966.844,-358.356C956.59,-328.59 927.635,-229.401 977,-179 1035.26,-119.514 1131,-92.3289 1190.61,-80.6091"/>
<polygon fill="midnightblue" stroke="midnightblue" points="1191.4,-84.0215 1200.58,-78.7271 1190.1,-77.143 1191.4,-84.0215"/>
</g>
<!-- Node17&#45;&gt;Node12 -->
<g id="edge65" class="edge"><title>Node17&#45;&gt;Node12</title>
<path fill="none" stroke="midnightblue" d="M950.298,-358.479C931.499,-350.067 902.626,-336.405 879,-322 859.191,-309.922 857.358,-302.128 837,-291 681.953,-206.246 619.45,-234.025 468,-143 440.994,-126.769 413.015,-103.322 395.806,-87.9974"/>
<polygon fill="midnightblue" stroke="midnightblue" points="398.042,-85.3004 388.275,-81.1944 393.35,-90.4949 398.042,-85.3004"/>
</g>
<!-- Node17&#45;&gt;Node13 -->
<g id="edge64" class="edge"><title>Node17&#45;&gt;Node13</title>
<path fill="none" stroke="midnightblue" d="M1036.12,-367.455C1205.03,-367.921 1665.99,-364.811 2047,-322 2210.47,-303.632 2254.24,-304.849 2411,-255 2544.03,-212.697 2564.19,-168.948 2696,-123 2757.12,-101.693 2831.33,-86.081 2872.86,-78.2246"/>
<polygon fill="midnightblue" stroke="midnightblue" points="2873.74,-81.621 2882.93,-76.3506 2872.46,-74.7392 2873.74,-81.621"/>
</g>
<!-- Node17&#45;&gt;Node14 -->
<g id="edge66" class="edge"><title>Node17&#45;&gt;Node14</title>
<path fill="none" stroke="midnightblue" d="M963.425,-358.209C945.226,-333.82 895.187,-266.357 890,-255 864.323,-198.778 852.543,-125.704 848.161,-91.5977"/>
<polygon fill="midnightblue" stroke="midnightblue" points="851.585,-90.7576 846.909,-81.2505 844.636,-91.5985 851.585,-90.7576"/>
</g>
<!-- Node17&#45;&gt;Node18 -->
<g id="edge19" class="edge"><title>Node17&#45;&gt;Node18</title>
<path fill="none" stroke="midnightblue" d="M959.957,-358.457C949.43,-349.467 932.443,-334.864 918,-322 871.41,-280.502 817.416,-230.479 790.72,-205.614"/>
<polygon fill="midnightblue" stroke="midnightblue" points="793.051,-203.002 783.35,-198.743 788.277,-208.122 793.051,-203.002"/>
</g>
<!-- Node17&#45;&gt;Node20 -->
<g id="edge25" class="edge"><title>Node17&#45;&gt;Node20</title>
<path fill="none" stroke="midnightblue" d="M1036.03,-362.673C1203.42,-351.704 1642.96,-322.902 1811.19,-311.878"/>
<polygon fill="midnightblue" stroke="midnightblue" points="1811.64,-315.356 1821.39,-311.209 1811.19,-308.371 1811.64,-315.356"/>
</g>
<!-- Node17&#45;&gt;Node24 -->
<g id="edge67" class="edge"><title>Node17&#45;&gt;Node24</title>
<path fill="none" stroke="midnightblue" d="M1036.31,-365.413C1225.9,-360.641 1767.9,-345.3 1944,-322 2081.16,-303.852 2116.21,-297.118 2248,-255 2251.15,-253.994 2328.1,-221.159 2371.65,-202.552"/>
<polygon fill="midnightblue" stroke="midnightblue" points="2373.09,-205.742 2380.91,-198.594 2370.33,-199.306 2373.09,-205.742"/>
</g>
<!-- Node32 -->
<g id="node32" class="node"><title>Node32</title>
<polygon fill="white" stroke="#bfbfbf" points="998.5,-297 998.5,-316 1047.5,-316 1047.5,-297 998.5,-297"/>
<text text-anchor="middle" x="1023" y="-304" font-family="Helvetica,sans-Serif" font-size="10.00">cstring</text>
</g>
<!-- Node17&#45;&gt;Node32 -->
<g id="edge62" class="edge"><title>Node17&#45;&gt;Node32</title>
<path fill="none" stroke="midnightblue" d="M977.594,-358.475C985.701,-349.373 998.735,-334.741 1008.76,-323.483"/>
<polygon fill="midnightblue" stroke="midnightblue" points="1011.38,-325.804 1015.42,-316.009 1006.16,-321.148 1011.38,-325.804"/>
</g>
<!-- Node33 -->
<g id="node33" class="node"><title>Node33</title>
<polygon fill="white" stroke="#bfbfbf" points="750.5,-297 750.5,-316 827.5,-316 827.5,-297 750.5,-297"/>
<text text-anchor="middle" x="789" y="-304" font-family="Helvetica,sans-Serif" font-size="10.00">initializer_list</text>
</g>
<!-- Node17&#45;&gt;Node33 -->
<g id="edge63" class="edge"><title>Node17&#45;&gt;Node33</title>
<path fill="none" stroke="midnightblue" d="M944.067,-358.475C912.75,-348.18 859.91,-330.81 824.744,-319.25"/>
<polygon fill="midnightblue" stroke="midnightblue" points="825.478,-315.807 814.885,-316.009 823.292,-322.457 825.478,-315.807"/>
</g>
<!-- Node18&#45;&gt;Node6 -->
<g id="edge20" class="edge"><title>Node18&#45;&gt;Node6</title>
<path fill="none" stroke="midnightblue" d="M837.875,-180.661C926.087,-170.526 1084.56,-152.319 1175.27,-141.897"/>
<polygon fill="midnightblue" stroke="midnightblue" points="1175.91,-145.346 1185.45,-140.728 1175.11,-138.392 1175.91,-145.346"/>
</g>
<!-- Node18&#45;&gt;Node12 -->
<g id="edge23" class="edge"><title>Node18&#45;&gt;Node12</title>
<path fill="none" stroke="midnightblue" d="M759.657,-179.485C735.692,-165.621 685.631,-138.191 640,-123 565.899,-98.3302 475.721,-84.2092 423.098,-77.4703"/>
<polygon fill="midnightblue" stroke="midnightblue" points="423.446,-73.9868 413.09,-76.2201 422.578,-80.9328 423.446,-73.9868"/>
</g>
<!-- Node18&#45;&gt;Node14 -->
<g id="edge22" class="edge"><title>Node18&#45;&gt;Node14</title>
<path fill="none" stroke="midnightblue" d="M780.918,-179.271C787.845,-170.372 798.648,-156.058 807,-143 818.038,-125.743 829.21,-105.157 836.751,-90.6999"/>
<polygon fill="midnightblue" stroke="midnightblue" points="840.078,-91.8835 841.546,-81.3908 833.855,-88.678 840.078,-91.8835"/>
</g>
<!-- Node19 -->
<g id="node19" class="node"><title>Node19</title>
<polygon fill="white" stroke="#bfbfbf" points="750.5,-123.5 750.5,-142.5 797.5,-142.5 797.5,-123.5 750.5,-123.5"/>
<text text-anchor="middle" x="774" y="-130.5" font-family="Helvetica,sans-Serif" font-size="10.00">cstdlib</text>
</g>
<!-- Node18&#45;&gt;Node19 -->
<g id="edge21" class="edge"><title>Node18&#45;&gt;Node19</title>
<path fill="none" stroke="midnightblue" d="M774,-179.083C774,-172.006 774,-161.861 774,-152.986"/>
<polygon fill="midnightblue" stroke="midnightblue" points="777.5,-152.751 774,-142.751 770.5,-152.751 777.5,-152.751"/>
</g>
<!-- Node20&#45;&gt;Node6 -->
<g id="edge53" class="edge"><title>Node20&#45;&gt;Node6</title>
<path fill="none" stroke="midnightblue" d="M1821.32,-293.395C1782.66,-284.459 1730.58,-271.085 1686,-255 1666.17,-247.847 1662.66,-242.608 1643,-235 1565.26,-204.913 1544.72,-199.824 1464,-179 1409.89,-165.041 1347.41,-152.606 1302.89,-144.365"/>
<polygon fill="midnightblue" stroke="midnightblue" points="1303.29,-140.881 1292.82,-142.517 1302.03,-147.765 1303.29,-140.881"/>
</g>
<!-- Node20&#45;&gt;Node7 -->
<g id="edge26" class="edge"><title>Node20&#45;&gt;Node7</title>
<path fill="none" stroke="midnightblue" d="M1850.14,-291.378C1773.91,-252.91 1562.71,-147.505 1489,-123 1424.61,-101.594 1347.56,-87.5064 1297.29,-79.7776"/>
<polygon fill="midnightblue" stroke="midnightblue" points="1297.7,-76.3005 1287.29,-78.2705 1296.66,-83.2223 1297.7,-76.3005"/>
</g>
<!-- Node20&#45;&gt;Node8 -->
<g id="edge27" class="edge"><title>Node20&#45;&gt;Node8</title>
<path fill="none" stroke="midnightblue" d="M1934.66,-292.454C1956.73,-284.817 1980.6,-273.003 1997,-255 2038.46,-209.485 2004.36,-173.893 2039,-123 2047.03,-111.203 2058.61,-100.737 2069.59,-92.436"/>
<polygon fill="midnightblue" stroke="midnightblue" points="2071.73,-95.2067 2077.8,-86.5237 2067.64,-89.5255 2071.73,-95.2067"/>
</g>
<!-- Node20&#45;&gt;Node12 -->
<g id="edge61" class="edge"><title>Node20&#45;&gt;Node12</title>
<path fill="none" stroke="midnightblue" d="M1821.2,-303.227C1611.58,-294.423 881.989,-259.991 658,-199 558.143,-171.809 448.889,-112.864 402.221,-86.1501"/>
<polygon fill="midnightblue" stroke="midnightblue" points="403.9,-83.0784 393.49,-81.1088 400.4,-89.1403 403.9,-83.0784"/>
</g>
<!-- Node20&#45;&gt;Node13 -->
<g id="edge57" class="edge"><title>Node20&#45;&gt;Node13</title>
<path fill="none" stroke="midnightblue" d="M1934.72,-292.045C1936.5,-291.684 1938.26,-291.334 1940,-291 2044.62,-270.853 2076.84,-291.313 2177,-255 2193.12,-249.155 2194.5,-242.332 2210,-235 2277.73,-202.969 2296.79,-198.967 2369,-179 2489.22,-145.759 2521.66,-147.292 2644,-123 2726.45,-106.629 2823.69,-87.9903 2872.95,-78.5977"/>
<polygon fill="midnightblue" stroke="midnightblue" points="2873.82,-81.9943 2882.99,-76.684 2872.51,-75.118 2873.82,-81.9943"/>
</g>
<!-- Node20&#45;&gt;Node14 -->
<g id="edge60" class="edge"><title>Node20&#45;&gt;Node14</title>
<path fill="none" stroke="midnightblue" d="M1837.85,-291.415C1809.38,-281.38 1770.29,-267.508 1736,-255 1578.64,-197.602 1546.25,-160.501 1383,-123 1194.37,-79.6674 960.279,-73.3875 877.099,-72.576"/>
<polygon fill="midnightblue" stroke="midnightblue" points="877.075,-69.0758 867.048,-72.4981 877.02,-76.0756 877.075,-69.0758"/>
</g>
<!-- Node21 -->
<g id="node21" class="node"><title>Node21</title>
<g id="a_node21"><a xlink:href="runtime_2module_8h.html" target="_top" xlink:title="Runtime container of the functions generated by TVM, This is used to support dynamically link...">
<polygon fill="white" stroke="black" points="1804,-235.5 1804,-254.5 1928,-254.5 1928,-235.5 1804,-235.5"/>
<text text-anchor="middle" x="1866" y="-242.5" font-family="Helvetica,sans-Serif" font-size="10.00">tvm/runtime/module.h</text>
</a>
</g>
</g>
<!-- Node20&#45;&gt;Node21 -->
<g id="edge28" class="edge"><title>Node20&#45;&gt;Node21</title>
<path fill="none" stroke="midnightblue" d="M1869.32,-291.399C1866.7,-283.466 1864.52,-273.458 1863.47,-264.858"/>
<polygon fill="midnightblue" stroke="midnightblue" points="1866.95,-264.413 1862.82,-254.658 1859.97,-264.862 1866.95,-264.413"/>
</g>
<!-- Node23 -->
<g id="node23" class="node"><title>Node23</title>
<polygon fill="white" stroke="#bfbfbf" points="1744.5,-179.5 1744.5,-198.5 1801.5,-198.5 1801.5,-179.5 1744.5,-179.5"/>
<text text-anchor="middle" x="1773" y="-186.5" font-family="Helvetica,sans-Serif" font-size="10.00">memory</text>
</g>
<!-- Node20&#45;&gt;Node23 -->
<g id="edge59" class="edge"><title>Node20&#45;&gt;Node23</title>
<path fill="none" stroke="midnightblue" d="M1843.74,-291.471C1827,-283.083 1807.76,-270.93 1795,-255 1784.3,-241.646 1778.69,-222.819 1775.81,-208.863"/>
<polygon fill="midnightblue" stroke="midnightblue" points="1779.24,-208.149 1774.05,-198.911 1772.35,-209.368 1779.24,-208.149"/>
</g>
<!-- Node20&#45;&gt;Node24 -->
<g id="edge56" class="edge"><title>Node20&#45;&gt;Node24</title>
<path fill="none" stroke="midnightblue" d="M1934.69,-301.113C2001.5,-294.976 2115.4,-281.475 2210,-255 2232.26,-248.772 2236.29,-242.921 2258,-235 2295.07,-221.475 2338.39,-208.185 2367.56,-199.597"/>
<polygon fill="midnightblue" stroke="midnightblue" points="2368.63,-202.929 2377.25,-196.762 2366.67,-196.21 2368.63,-202.929"/>
</g>
<!-- Node26 -->
<g id="node26" class="node"><title>Node26</title>
<g id="a_node26"><a xlink:href="ndarray_8h.html" target="_top" xlink:title="A device&#45;independent managed NDArray abstraction. ">
<polygon fill="white" stroke="black" points="2044.5,-235.5 2044.5,-254.5 2167.5,-254.5 2167.5,-235.5 2044.5,-235.5"/>
<text text-anchor="middle" x="2106" y="-242.5" font-family="Helvetica,sans-Serif" font-size="10.00">tvm/runtime/ndarray.h</text>
</a>
</g>
</g>
<!-- Node20&#45;&gt;Node26 -->
<g id="edge38" class="edge"><title>Node20&#45;&gt;Node26</title>
<path fill="none" stroke="midnightblue" d="M1931.74,-291.475C1971.94,-280.986 2026.15,-266.837 2063.38,-257.122"/>
<polygon fill="midnightblue" stroke="midnightblue" points="2064.61,-260.418 2073.4,-254.506 2062.84,-253.645 2064.61,-260.418"/>
</g>
<!-- Node28 -->
<g id="node28" class="node"><title>Node28</title>
<g id="a_node28"><a xlink:href="data__type_8h.html" target="_top" xlink:title="tvm/runtime/data_type.h">
<polygon fill="white" stroke="black" points="1498,-235.5 1498,-254.5 1634,-254.5 1634,-235.5 1498,-235.5"/>
<text text-anchor="middle" x="1566" y="-242.5" font-family="Helvetica,sans-Serif" font-size="10.00">tvm/runtime/data_type.h</text>
</a>
</g>
</g>
<!-- Node20&#45;&gt;Node28 -->
<g id="edge48" class="edge"><title>Node20&#45;&gt;Node28</title>
<path fill="none" stroke="midnightblue" d="M1821.44,-293.859C1816.56,-292.881 1811.69,-291.917 1807,-291 1744.21,-278.727 1672.07,-265.353 1623.21,-256.402"/>
<polygon fill="midnightblue" stroke="midnightblue" points="1623.61,-252.918 1613.15,-254.561 1622.35,-259.804 1623.61,-252.918"/>
</g>
<!-- Node20&#45;&gt;Node29 -->
<g id="edge54" class="edge"><title>Node20&#45;&gt;Node29</title>
<path fill="none" stroke="midnightblue" d="M1934.92,-298.616C2034.94,-286.52 2239.98,-261.724 2328.16,-251.06"/>
<polygon fill="midnightblue" stroke="midnightblue" points="2328.81,-254.506 2338.32,-249.831 2327.97,-247.557 2328.81,-254.506"/>
</g>
<!-- Node30 -->
<g id="node30" class="node"><title>Node30</title>
<polygon fill="white" stroke="#bfbfbf" points="1946.5,-235.5 1946.5,-254.5 1987.5,-254.5 1987.5,-235.5 1946.5,-235.5"/>
<text text-anchor="middle" x="1967" y="-242.5" font-family="Helvetica,sans-Serif" font-size="10.00">tuple</text>
</g>
<!-- Node20&#45;&gt;Node30 -->
<g id="edge55" class="edge"><title>Node20&#45;&gt;Node30</title>
<path fill="none" stroke="midnightblue" d="M1899.09,-291.399C1913.09,-282.04 1931.41,-269.792 1945.49,-260.377"/>
<polygon fill="midnightblue" stroke="midnightblue" points="1947.68,-263.125 1954.05,-254.658 1943.79,-257.306 1947.68,-263.125"/>
</g>
<!-- Node20&#45;&gt;Node31 -->
<g id="edge58" class="edge"><title>Node20&#45;&gt;Node31</title>
<path fill="none" stroke="midnightblue" d="M1821.22,-298.675C1716.47,-286.084 1496.08,-259.592 1414.36,-249.77"/>
<polygon fill="midnightblue" stroke="midnightblue" points="1414.56,-246.269 1404.22,-248.55 1413.73,-253.219 1414.56,-246.269"/>
</g>
<!-- Node21&#45;&gt;Node6 -->
<g id="edge31" class="edge"><title>Node21&#45;&gt;Node6</title>
<path fill="none" stroke="midnightblue" d="M1861.65,-235.362C1853.8,-220.792 1835.73,-191.682 1811,-179 1767.66,-156.772 1454.3,-142.076 1312.9,-136.506"/>
<polygon fill="midnightblue" stroke="midnightblue" points="1312.74,-132.997 1302.61,-136.105 1312.47,-139.992 1312.74,-132.997"/>
</g>
<!-- Node21&#45;&gt;Node8 -->
<g id="edge30" class="edge"><title>Node21&#45;&gt;Node8</title>
<path fill="none" stroke="midnightblue" d="M1871.06,-235.385C1884.28,-213.569 1922.05,-155.572 1968,-123 1988.36,-108.565 2013.38,-97.6569 2036.2,-89.7407"/>
<polygon fill="midnightblue" stroke="midnightblue" points="2037.44,-93.0145 2045.82,-86.5296 2035.23,-86.3743 2037.44,-93.0145"/>
</g>
<!-- Node21&#45;&gt;Node13 -->
<g id="edge35" class="edge"><title>Node21&#45;&gt;Node13</title>
<path fill="none" stroke="midnightblue" d="M1876.77,-235.274C1908.63,-209.66 2002.47,-135.687 2039,-123 2118.89,-95.2511 2725.34,-77.3177 2872.77,-73.3391"/>
<polygon fill="midnightblue" stroke="midnightblue" points="2873.06,-76.8328 2882.96,-73.0667 2872.87,-69.8353 2873.06,-76.8328"/>
</g>
<!-- Node21&#45;&gt;Node18 -->
<g id="edge32" class="edge"><title>Node21&#45;&gt;Node18</title>
<path fill="none" stroke="midnightblue" d="M1803.76,-240.922C1615.31,-231.603 1051.38,-203.717 848.085,-193.664"/>
<polygon fill="midnightblue" stroke="midnightblue" points="847.973,-190.154 837.812,-193.156 847.627,-197.145 847.973,-190.154"/>
</g>
<!-- Node21&#45;&gt;Node20 -->
<g id="edge37" class="edge"><title>Node21&#45;&gt;Node20</title>
<path fill="none" stroke="midnightblue" d="M1872.68,-254.658C1875.59,-261.655 1878.22,-271.857 1879.76,-281.289"/>
<polygon fill="midnightblue" stroke="midnightblue" points="1876.31,-281.897 1881,-291.399 1883.26,-281.049 1876.31,-281.897"/>
</g>
<!-- Node22 -->
<g id="node22" class="node"><title>Node22</title>
<polygon fill="white" stroke="#bfbfbf" points="2048,-123.5 2048,-142.5 2108,-142.5 2108,-123.5 2048,-123.5"/>
<text text-anchor="middle" x="2078" y="-130.5" font-family="Helvetica,sans-Serif" font-size="10.00">dmlc/io.h</text>
</g>
<!-- Node21&#45;&gt;Node22 -->
<g id="edge29" class="edge"><title>Node21&#45;&gt;Node22</title>
<path fill="none" stroke="midnightblue" d="M1900.72,-235.427C1927.7,-227.965 1965.53,-215.714 1996,-199 2020.96,-185.31 2046.08,-164.028 2061.82,-149.576"/>
<polygon fill="midnightblue" stroke="midnightblue" points="2064.24,-152.108 2069.14,-142.718 2059.45,-146.998 2064.24,-152.108"/>
</g>
<!-- Node21&#45;&gt;Node23 -->
<g id="edge33" class="edge"><title>Node21&#45;&gt;Node23</title>
<path fill="none" stroke="midnightblue" d="M1851.06,-235.324C1836.41,-226.822 1813.87,-213.729 1796.76,-203.797"/>
<polygon fill="midnightblue" stroke="midnightblue" points="1798.31,-200.649 1787.9,-198.655 1794.8,-206.703 1798.31,-200.649"/>
</g>
<!-- Node21&#45;&gt;Node24 -->
<g id="edge34" class="edge"><title>Node21&#45;&gt;Node24</title>
<path fill="none" stroke="midnightblue" d="M1928.04,-236.135C1931.41,-235.743 1934.74,-235.362 1938,-235 2098.61,-217.161 2291,-199.717 2367.37,-192.949"/>
<polygon fill="midnightblue" stroke="midnightblue" points="2367.71,-196.433 2377.37,-192.066 2367.1,-189.46 2367.71,-196.433"/>
</g>
<!-- Node21&#45;&gt;Node25 -->
<g id="edge36" class="edge"><title>Node21&#45;&gt;Node25</title>
<path fill="none" stroke="midnightblue" d="M1804,-241.457C1759.26,-239.631 1697.4,-237.128 1643,-235 1207.7,-217.972 682.645,-198.433 511.726,-192.099"/>
<polygon fill="midnightblue" stroke="midnightblue" points="511.822,-188.6 501.699,-191.727 511.562,-195.595 511.822,-188.6"/>
</g>
<!-- Node26&#45;&gt;Node6 -->
<g id="edge40" class="edge"><title>Node26&#45;&gt;Node6</title>
<path fill="none" stroke="midnightblue" d="M2073.47,-235.44C2012.43,-219.499 1882.8,-186.222 1837,-179 1648.84,-149.327 1423.9,-139.051 1312.92,-135.626"/>
<polygon fill="midnightblue" stroke="midnightblue" points="1312.96,-132.126 1302.86,-135.325 1312.75,-139.123 1312.96,-132.126"/>
</g>
<!-- Node26&#45;&gt;Node8 -->
<g id="edge39" class="edge"><title>Node26&#45;&gt;Node8</title>
<path fill="none" stroke="midnightblue" d="M2160.74,-235.448C2200.89,-227.926 2250.5,-215.587 2263,-199 2299.16,-151.017 2217.67,-111.43 2157.65,-89.9509"/>
<polygon fill="midnightblue" stroke="midnightblue" points="2158.45,-86.5214 2147.85,-86.5338 2156.14,-93.1311 2158.45,-86.5214"/>
</g>
<!-- Node26&#45;&gt;Node14 -->
<g id="edge47" class="edge"><title>Node26&#45;&gt;Node14</title>
<path fill="none" stroke="midnightblue" d="M2082.02,-235.494C2043.31,-222.006 1964.44,-195.549 1896,-179 1756.51,-145.272 1720.45,-140.407 1578,-123 1307.77,-89.9782 978.581,-76.8963 877.201,-73.4755"/>
<polygon fill="midnightblue" stroke="midnightblue" points="877.15,-69.972 867.04,-73.1395 876.919,-76.9682 877.15,-69.972"/>
</g>
<!-- Node26&#45;&gt;Node15 -->
<g id="edge45" class="edge"><title>Node26&#45;&gt;Node15</title>
<path fill="none" stroke="midnightblue" d="M2107.14,-235.261C2110.64,-208.178 2120.72,-127.205 2117,-123 2092.02,-94.7837 1833.85,-79.0614 1738.3,-74.1735"/>
<polygon fill="midnightblue" stroke="midnightblue" points="1738.43,-70.6754 1728.27,-73.6694 1738.08,-77.6666 1738.43,-70.6754"/>
</g>
<!-- Node26&#45;&gt;Node24 -->
<g id="edge46" class="edge"><title>Node26&#45;&gt;Node24</title>
<path fill="none" stroke="midnightblue" d="M2152.74,-235.444C2212.6,-224.486 2314.87,-205.767 2367.51,-196.131"/>
<polygon fill="midnightblue" stroke="midnightblue" points="2368.14,-199.573 2377.35,-194.329 2366.88,-192.687 2368.14,-199.573"/>
</g>
<!-- Node27 -->
<g id="node27" class="node"><title>Node27</title>
<g id="a_node27"><a xlink:href="serializer_8h.html" target="_top" xlink:title="Serializer extension to support TVM data types Include this file to enable serialization of DLDataTyp...">
<polygon fill="white" stroke="red" points="2124,-179.5 2124,-198.5 2254,-198.5 2254,-179.5 2124,-179.5"/>
<text text-anchor="middle" x="2189" y="-186.5" font-family="Helvetica,sans-Serif" font-size="10.00">tvm/runtime/serializer.h</text>
</a>
</g>
</g>
<!-- Node26&#45;&gt;Node27 -->
<g id="edge41" class="edge"><title>Node26&#45;&gt;Node27</title>
<path fill="none" stroke="midnightblue" d="M2114.22,-235.324C2125.45,-226.822 2145.29,-213.729 2161.82,-203.797"/>
<polygon fill="midnightblue" stroke="midnightblue" points="2163.73,-206.733 2170.59,-198.655 2160.19,-200.694 2163.73,-206.733"/>
</g>
<!-- Node27&#45;&gt;Node8 -->
<g id="edge43" class="edge"><title>Node27&#45;&gt;Node8</title>
<path fill="none" stroke="midnightblue" d="M2184.55,-179.181C2177.85,-166.286 2164.44,-141.781 2150,-123 2142.17,-112.812 2132.5,-102.471 2123.83,-93.8218"/>
<polygon fill="midnightblue" stroke="midnightblue" points="2126.13,-91.1822 2116.53,-86.7032 2121.24,-96.1922 2126.13,-91.1822"/>
</g>
<!-- Node27&#45;&gt;Node22 -->
<g id="edge42" class="edge"><title>Node27&#45;&gt;Node22</title>
<path fill="none" stroke="midnightblue" d="M2171.17,-179.324C2153.28,-170.625 2125.52,-157.12 2104.95,-147.113"/>
<polygon fill="midnightblue" stroke="midnightblue" points="2106.31,-143.882 2095.79,-142.655 2103.25,-150.177 2106.31,-143.882"/>
</g>
<!-- Node27&#45;&gt;Node26 -->
<g id="edge44" class="edge"><title>Node27&#45;&gt;Node26</title>
<path fill="none" stroke="midnightblue" d="M2180.57,-198.834C2169.3,-207.342 2149.6,-220.339 2133.17,-230.21"/>
<polygon fill="midnightblue" stroke="midnightblue" points="2131.31,-227.246 2124.45,-235.324 2134.85,-233.284 2131.31,-227.246"/>
</g>
<!-- Node28&#45;&gt;Node7 -->
<g id="edge50" class="edge"><title>Node28&#45;&gt;Node7</title>
<path fill="none" stroke="midnightblue" d="M1564.8,-235.153C1562.48,-221.316 1556.09,-194.533 1540,-179 1472.5,-113.827 1362.28,-88.1637 1297.08,-78.333"/>
<polygon fill="midnightblue" stroke="midnightblue" points="1297.42,-74.8449 1287.02,-76.8875 1296.42,-81.7738 1297.42,-74.8449"/>
</g>
<!-- Node28&#45;&gt;Node8 -->
<g id="edge49" class="edge"><title>Node28&#45;&gt;Node8</title>
<path fill="none" stroke="midnightblue" d="M1573.7,-235.404C1594.71,-212.584 1655.84,-150.354 1721,-123 1774.73,-100.443 1932.77,-85.1159 2027.26,-77.6825"/>
<polygon fill="midnightblue" stroke="midnightblue" points="2027.63,-81.1645 2037.33,-76.9014 2027.09,-74.1855 2027.63,-81.1645"/>
</g>
<!-- Node28&#45;&gt;Node12 -->
<g id="edge51" class="edge"><title>Node28&#45;&gt;Node12</title>
<path fill="none" stroke="midnightblue" d="M1554.25,-235.321C1535.76,-221.948 1498.43,-196.066 1464,-179 1399.49,-147.027 1382.51,-137.552 1312,-123 1224.47,-104.936 596.255,-80.5499 423.095,-74.1124"/>
<polygon fill="midnightblue" stroke="midnightblue" points="423.184,-70.6134 413.061,-73.7405 422.924,-77.6086 423.184,-70.6134"/>
</g>
<!-- Node28&#45;&gt;Node13 -->
<g id="edge52" class="edge"><title>Node28&#45;&gt;Node13</title>
<path fill="none" stroke="midnightblue" d="M1585.29,-235.489C1616.47,-221.996 1680.09,-195.531 1736,-179 1850.6,-145.113 1880.54,-138.817 1999,-123 2338.57,-77.66 2754.99,-72.9091 2872.67,-72.5062"/>
<polygon fill="midnightblue" stroke="midnightblue" points="2872.82,-76.006 2882.81,-72.4801 2872.8,-69.006 2872.82,-76.006"/>
</g>
<!-- Node34&#45;&gt;Node6 -->
<g id="edge72" class="edge"><title>Node34&#45;&gt;Node6</title>
<path fill="none" stroke="midnightblue" d="M1750.88,-537.257C1733.78,-501.777 1664.84,-366.837 1571,-291 1540.04,-265.982 1520.78,-278.966 1489,-255 1453.97,-228.582 1463.16,-202.325 1426,-179 1405.62,-166.211 1348.1,-153.187 1303.12,-144.464"/>
<polygon fill="midnightblue" stroke="midnightblue" points="1303.63,-140.999 1293.15,-142.561 1302.31,-147.874 1303.63,-140.999"/>
</g>
<!-- Node34&#45;&gt;Node8 -->
<g id="edge71" class="edge"><title>Node34&#45;&gt;Node8</title>
<path fill="none" stroke="midnightblue" d="M1814.8,-543.537C1904.53,-539.108 2079.05,-527.645 2225,-501 2250.6,-496.326 2661.2,-398.677 2677,-378 2818.56,-192.765 2359.51,-107.843 2174.64,-81.7218"/>
<polygon fill="midnightblue" stroke="midnightblue" points="2175.11,-78.2532 2164.72,-80.3395 2174.15,-85.1862 2175.11,-78.2532"/>
</g>
<!-- Node34&#45;&gt;Node12 -->
<g id="edge105" class="edge"><title>Node34&#45;&gt;Node12</title>
<path fill="none" stroke="midnightblue" d="M1695.32,-543.739C1570.41,-538.6 1285.21,-524.619 1191,-501 1157.6,-492.627 1153.26,-478.891 1120,-470 756.67,-372.893 304,-622.083 304,-246 304,-246 304,-246 304,-188 304,-146.477 338.518,-108.136 360.719,-87.7697"/>
<polygon fill="midnightblue" stroke="midnightblue" points="363.081,-90.353 368.254,-81.107 358.444,-85.1089 363.081,-90.353"/>
</g>
<!-- Node34&#45;&gt;Node13 -->
<g id="edge104" class="edge"><title>Node34&#45;&gt;Node13</title>
<path fill="none" stroke="midnightblue" d="M1814.65,-544.687C1915.82,-541.663 2127.18,-531.89 2303,-501 2414.61,-481.391 2441.22,-468.98 2549,-434 2615.89,-412.29 2632.63,-406.323 2697,-378 2747.58,-355.747 2770.86,-362.91 2808,-322 2871.22,-252.363 2895.11,-136.897 2902.34,-91.5852"/>
<polygon fill="midnightblue" stroke="midnightblue" points="2905.84,-91.832 2903.86,-81.4233 2898.92,-90.7933 2905.84,-91.832"/>
</g>
<!-- Node34&#45;&gt;Node18 -->
<g id="edge73" class="edge"><title>Node34&#45;&gt;Node18</title>
<path fill="none" stroke="midnightblue" d="M1695.35,-542.838C1609.75,-537.649 1447.33,-525.373 1311,-501 1256.78,-491.306 1245.21,-479.791 1191,-470 1040.16,-442.756 991.582,-487.66 848,-434 779.966,-408.574 750.752,-391.296 729,-322 723.584,-304.745 734.627,-235.856 735,-235 739.764,-224.051 748.168,-213.822 755.958,-205.891"/>
<polygon fill="midnightblue" stroke="midnightblue" points="758.579,-208.228 763.385,-198.786 753.74,-203.17 758.579,-208.228"/>
</g>
<!-- Node34&#45;&gt;Node20 -->
<g id="edge74" class="edge"><title>Node34&#45;&gt;Node20</title>
<path fill="none" stroke="midnightblue" d="M1759.52,-537.229C1776.87,-503.595 1839.49,-382.181 1866,-330.764"/>
<polygon fill="midnightblue" stroke="midnightblue" points="1869.18,-332.229 1870.66,-321.737 1862.96,-329.02 1869.18,-332.229"/>
</g>
<!-- Node34&#45;&gt;Node24 -->
<g id="edge103" class="edge"><title>Node34&#45;&gt;Node24</title>
<path fill="none" stroke="midnightblue" d="M1814.75,-543.59C1915.42,-538.878 2114.19,-526.591 2179,-501 2263.41,-467.667 2282.31,-446.363 2342,-378 2383.23,-330.785 2395.15,-315.644 2411,-255 2415.06,-239.466 2411.64,-221.384 2407.74,-208.242"/>
<polygon fill="midnightblue" stroke="midnightblue" points="2410.98,-206.905 2404.49,-198.527 2404.34,-209.121 2410.98,-206.905"/>
</g>
<!-- Node34&#45;&gt;Node26 -->
<g id="edge75" class="edge"><title>Node34&#45;&gt;Node26</title>
<path fill="none" stroke="midnightblue" d="M1814.7,-543.422C1943.1,-536.249 2234,-510.558 2234,-425 2234,-425 2234,-425 2234,-367 2234,-313.579 2174.39,-276.721 2136.53,-258.697"/>
<polygon fill="midnightblue" stroke="midnightblue" points="2137.97,-255.507 2127.42,-254.522 2135.06,-261.871 2137.97,-255.507"/>
</g>
<!-- Node34&#45;&gt;Node28 -->
<g id="edge76" class="edge"><title>Node34&#45;&gt;Node28</title>
<path fill="none" stroke="midnightblue" d="M1755,-537.491C1755,-517.736 1755,-467.224 1755,-425 1755,-425 1755,-425 1755,-367 1755,-303.232 1677.74,-271.543 1622.02,-256.98"/>
<polygon fill="midnightblue" stroke="midnightblue" points="1622.78,-253.564 1612.23,-254.539 1621.09,-260.356 1622.78,-253.564"/>
</g>
<!-- Node34&#45;&gt;Node35 -->
<g id="edge77" class="edge"><title>Node34&#45;&gt;Node35</title>
<path fill="none" stroke="midnightblue" d="M1700.56,-537.475C1631.95,-526.734 1514.16,-508.289 1440.65,-496.779"/>
<polygon fill="midnightblue" stroke="midnightblue" points="1441,-493.292 1430.58,-495.203 1439.92,-500.207 1441,-493.292"/>
</g>
<!-- Node34&#45;&gt;Node38 -->
<g id="edge97" class="edge"><title>Node34&#45;&gt;Node38</title>
<path fill="none" stroke="midnightblue" d="M1737.52,-537.475C1720.23,-529.04 1693.19,-515.855 1670.95,-505.008"/>
<polygon fill="midnightblue" stroke="midnightblue" points="1672.28,-501.761 1661.75,-500.523 1669.21,-508.052 1672.28,-501.761"/>
</g>
<!-- Node35&#45;&gt;Node13 -->
<g id="edge96" class="edge"><title>Node35&#45;&gt;Node13</title>
<path fill="none" stroke="midnightblue" d="M1430.81,-480.19C1681.81,-460.786 2694.14,-382.293 2701,-378 2715.53,-368.905 2772,-247.078 2772,-246 2772,-246 2772,-246 2772,-188 2772,-134.575 2833.93,-100.279 2873.28,-83.8839"/>
<polygon fill="midnightblue" stroke="midnightblue" points="2874.75,-87.0627 2882.74,-80.1005 2872.15,-80.5629 2874.75,-87.0627"/>
</g>
<!-- Node35&#45;&gt;Node28 -->
<g id="edge78" class="edge"><title>Node35&#45;&gt;Node28</title>
<path fill="none" stroke="midnightblue" d="M1386.38,-470.295C1419.65,-428.74 1516.72,-307.533 1552.53,-262.822"/>
<polygon fill="midnightblue" stroke="midnightblue" points="1555.32,-264.939 1558.84,-254.946 1549.85,-260.563 1555.32,-264.939"/>
</g>
<!-- Node36 -->
<g id="node36" class="node"><title>Node36</title>
<g id="a_node36"><a xlink:href="functor_8h.html" target="_top" xlink:title="Defines the Functor data structures. ">
<polygon fill="white" stroke="black" points="1084.5,-235.5 1084.5,-254.5 1191.5,-254.5 1191.5,-235.5 1084.5,-235.5"/>
<text text-anchor="middle" x="1138" y="-242.5" font-family="Helvetica,sans-Serif" font-size="10.00">tvm/node/functor.h</text>
</a>
</g>
</g>
<!-- Node35&#45;&gt;Node36 -->
<g id="edge79" class="edge"><title>Node35&#45;&gt;Node36</title>
<path fill="none" stroke="midnightblue" d="M1364.45,-470.299C1339.12,-436.747 1271.92,-350.9 1204,-291 1190.86,-279.411 1174.61,-268.301 1161.53,-260.02"/>
<polygon fill="midnightblue" stroke="midnightblue" points="1163,-256.81 1152.65,-254.523 1159.31,-262.762 1163,-256.81"/>
</g>
<!-- Node35&#45;&gt;Node37 -->
<g id="edge85" class="edge"><title>Node35&#45;&gt;Node37</title>
<path fill="none" stroke="midnightblue" d="M1319.18,-477.264C1235.35,-466.398 1077.09,-445.882 985.77,-434.044"/>
<polygon fill="midnightblue" stroke="midnightblue" points="986.156,-430.565 975.789,-432.75 985.256,-437.507 986.156,-430.565"/>
</g>
<!-- Node36&#45;&gt;Node6 -->
<g id="edge81" class="edge"><title>Node36&#45;&gt;Node6</title>
<path fill="none" stroke="midnightblue" d="M1146.32,-235.368C1164.04,-216.974 1205.77,-173.671 1228.53,-150.052"/>
<polygon fill="midnightblue" stroke="midnightblue" points="1231.3,-152.221 1235.72,-142.591 1226.26,-147.364 1231.3,-152.221"/>
</g>
<!-- Node36&#45;&gt;Node7 -->
<g id="edge80" class="edge"><title>Node36&#45;&gt;Node7</title>
<path fill="none" stroke="midnightblue" d="M1138.98,-235.283C1141.72,-214.201 1151.03,-159.508 1177,-123 1187.81,-107.812 1204.55,-95.189 1218.6,-86.3624"/>
<polygon fill="midnightblue" stroke="midnightblue" points="1220.57,-89.2621 1227.35,-81.1213 1216.97,-83.2568 1220.57,-89.2621"/>
</g>
<!-- Node36&#45;&gt;Node12 -->
<g id="edge83" class="edge"><title>Node36&#45;&gt;Node12</title>
<path fill="none" stroke="midnightblue" d="M1084.14,-239.422C975.652,-230.06 738.08,-208.781 702,-199 681.267,-193.379 677.679,-187.613 658,-179 599.244,-153.283 584.895,-145.94 525,-123 487.758,-108.736 444.524,-94.0055 414.822,-84.1621"/>
<polygon fill="midnightblue" stroke="midnightblue" points="415.89,-80.8287 405.297,-81.019 413.696,-87.4762 415.89,-80.8287"/>
</g>
<!-- Node36&#45;&gt;Node14 -->
<g id="edge84" class="edge"><title>Node36&#45;&gt;Node14</title>
<path fill="none" stroke="midnightblue" d="M1123.52,-235.495C1076.43,-207.837 927.331,-120.268 869.368,-86.2244"/>
<polygon fill="midnightblue" stroke="midnightblue" points="870.963,-83.1025 860.568,-81.056 867.418,-89.1385 870.963,-83.1025"/>
</g>
<!-- Node36&#45;&gt;Node24 -->
<g id="edge82" class="edge"><title>Node36&#45;&gt;Node24</title>
<path fill="none" stroke="midnightblue" d="M1191.9,-241.71C1235.38,-239.87 1298.13,-237.234 1353,-235 1757.43,-218.536 1858.79,-220.172 2263,-199 2298.5,-197.14 2339.11,-194.421 2367.03,-192.458"/>
<polygon fill="midnightblue" stroke="midnightblue" points="2367.35,-195.945 2377.08,-191.747 2366.86,-188.962 2367.35,-195.945"/>
</g>
<!-- Node37&#45;&gt;Node6 -->
<g id="edge86" class="edge"><title>Node37&#45;&gt;Node6</title>
<path fill="none" stroke="midnightblue" d="M967.806,-414.47C993.452,-408.044 1023.45,-396.955 1045,-378 1075.5,-351.173 1087.14,-329.081 1073,-291 1065.65,-271.205 1049.35,-274.795 1042,-255 1030.24,-223.334 1020.87,-205.354 1042,-179 1058.62,-158.272 1123.45,-146.475 1175.24,-140.208"/>
<polygon fill="midnightblue" stroke="midnightblue" points="1175.88,-143.657 1185.41,-139.027 1175.07,-136.704 1175.88,-143.657"/>
</g>
<!-- Node37&#45;&gt;Node12 -->
<g id="edge90" class="edge"><title>Node37&#45;&gt;Node12</title>
<path fill="none" stroke="midnightblue" d="M870.98,-414.499C833.888,-406.859 780.226,-394.332 735,-378 616.652,-335.261 588.561,-318.619 480,-255 442.555,-233.056 423.138,-235.719 400,-199 378.909,-165.53 376.98,-117.573 377.773,-91.3685"/>
<polygon fill="midnightblue" stroke="midnightblue" points="381.274,-91.4361 378.25,-81.2817 374.281,-91.105 381.274,-91.4361"/>
</g>
<!-- Node37&#45;&gt;Node13 -->
<g id="edge95" class="edge"><title>Node37&#45;&gt;Node13</title>
<path fill="none" stroke="midnightblue" d="M975.719,-421.941C1281.64,-416.46 2659.61,-391.065 2677,-378 2772.07,-306.567 2674.9,-208.06 2758,-123 2788.63,-91.6485 2839.57,-79.7513 2872.71,-75.2427"/>
<polygon fill="midnightblue" stroke="midnightblue" points="2873.29,-78.698 2882.8,-74.0232 2872.45,-71.7486 2873.29,-78.698"/>
</g>
<!-- Node37&#45;&gt;Node14 -->
<g id="edge94" class="edge"><title>Node37&#45;&gt;Node14</title>
<path fill="none" stroke="midnightblue" d="M860.86,-414.447C831.42,-407.942 795.659,-396.785 768,-378 710.178,-338.729 693.071,-320.979 670,-255 647.943,-191.919 690.944,-166.117 742,-123 763.676,-104.694 793.122,-91.2077 815.149,-82.7992"/>
<polygon fill="midnightblue" stroke="midnightblue" points="816.513,-86.0271 824.693,-79.2942 814.099,-79.4562 816.513,-86.0271"/>
</g>
<!-- Node37&#45;&gt;Node17 -->
<g id="edge89" class="edge"><title>Node37&#45;&gt;Node17</title>
<path fill="none" stroke="midnightblue" d="M924.917,-414.083C932.78,-406.22 944.431,-394.569 953.919,-385.081"/>
<polygon fill="midnightblue" stroke="midnightblue" points="956.653,-387.297 961.249,-377.751 951.703,-382.347 956.653,-387.297"/>
</g>
<!-- Node37&#45;&gt;Node18 -->
<g id="edge87" class="edge"><title>Node37&#45;&gt;Node18</title>
<path fill="none" stroke="midnightblue" d="M882.137,-414.439C840.617,-401.92 772.065,-374.215 742,-322 720.517,-284.69 745.954,-233.457 762.312,-207.139"/>
<polygon fill="midnightblue" stroke="midnightblue" points="765.318,-208.936 767.824,-198.641 759.445,-205.126 765.318,-208.936"/>
</g>
<!-- Node37&#45;&gt;Node20 -->
<g id="edge88" class="edge"><title>Node37&#45;&gt;Node20</title>
<path fill="none" stroke="midnightblue" d="M975.814,-415.819C1146.15,-395.368 1632.96,-336.92 1811.4,-315.497"/>
<polygon fill="midnightblue" stroke="midnightblue" points="1811.92,-318.958 1821.44,-314.291 1811.09,-312.008 1811.92,-318.958"/>
</g>
<!-- Node37&#45;&gt;Node24 -->
<g id="edge91" class="edge"><title>Node37&#45;&gt;Node24</title>
<path fill="none" stroke="midnightblue" d="M975.696,-421.558C1144.97,-416.638 1642.01,-396.422 2047,-322 2155.08,-302.139 2183.47,-297.041 2285,-255 2319.49,-240.717 2356.7,-218.541 2379.42,-204.143"/>
<polygon fill="midnightblue" stroke="midnightblue" points="2381.42,-207.021 2387.95,-198.676 2377.64,-201.129 2381.42,-207.021"/>
</g>
<!-- Node37&#45;&gt;Node25 -->
<g id="edge93" class="edge"><title>Node37&#45;&gt;Node25</title>
<path fill="none" stroke="midnightblue" d="M878.906,-414.424C848.41,-406.739 804.447,-394.19 768,-378 650.99,-326.023 523.774,-239.033 475.297,-204.636"/>
<polygon fill="midnightblue" stroke="midnightblue" points="477.103,-201.625 466.93,-198.665 473.036,-207.322 477.103,-201.625"/>
</g>
<!-- Node37&#45;&gt;Node33 -->
<g id="edge92" class="edge"><title>Node37&#45;&gt;Node33</title>
<path fill="none" stroke="midnightblue" d="M906.454,-414.319C885.125,-394.921 833.347,-347.831 806.222,-323.162"/>
<polygon fill="midnightblue" stroke="midnightblue" points="808.409,-320.421 798.656,-316.282 803.7,-325.6 808.409,-320.421"/>
</g>
<!-- Node38&#45;&gt;Node13 -->
<g id="edge101" class="edge"><title>Node38&#45;&gt;Node13</title>
<path fill="none" stroke="midnightblue" d="M1688.57,-481.957C1901.25,-471.852 2656.14,-432.427 2748,-378 2794.08,-350.694 2810.61,-237.163 2872,-123 2878.24,-111.396 2886.32,-99.0023 2892.92,-89.3968"/>
<polygon fill="midnightblue" stroke="midnightblue" points="2895.82,-91.3576 2898.68,-81.1586 2890.08,-87.3425 2895.82,-91.3576"/>
</g>
<!-- Node38&#45;&gt;Node28 -->
<g id="edge98" class="edge"><title>Node38&#45;&gt;Node28</title>
<path fill="none" stroke="midnightblue" d="M1636.65,-470.322C1644.45,-436.82 1659.61,-351.073 1628,-291 1620.82,-277.361 1607.44,-266.85 1594.94,-259.429"/>
<polygon fill="midnightblue" stroke="midnightblue" points="1596.55,-256.317 1586.1,-254.571 1593.18,-262.453 1596.55,-256.317"/>
</g>
<!-- Node38&#45;&gt;Node29 -->
<g id="edge102" class="edge"><title>Node38&#45;&gt;Node29</title>
<path fill="none" stroke="midnightblue" d="M1688.71,-477.054C1834.12,-456.746 2221.03,-396.881 2324,-322 2343.83,-307.578 2356.77,-281.753 2363.73,-264.253"/>
<polygon fill="midnightblue" stroke="midnightblue" points="2367.12,-265.203 2367.3,-254.61 2360.55,-262.773 2367.12,-265.203"/>
</g>
<!-- Node38&#45;&gt;Node36 -->
<g id="edge99" class="edge"><title>Node38&#45;&gt;Node36</title>
<path fill="none" stroke="midnightblue" d="M1603.93,-470.336C1538.02,-438.249 1372.16,-357.618 1233,-291 1210.29,-280.129 1184.47,-267.907 1165.49,-258.947"/>
<polygon fill="midnightblue" stroke="midnightblue" points="1166.77,-255.683 1156.23,-254.583 1163.78,-262.014 1166.77,-255.683"/>
</g>
<!-- Node38&#45;&gt;Node37 -->
<g id="edge100" class="edge"><title>Node38&#45;&gt;Node37</title>
<path fill="none" stroke="midnightblue" d="M1577.33,-479.881C1448.13,-469.159 1128.12,-442.602 985.968,-430.806"/>
<polygon fill="midnightblue" stroke="midnightblue" points="985.891,-427.288 975.636,-429.949 985.312,-434.264 985.891,-427.288"/>
</g>
<!-- Node39&#45;&gt;Node36 -->
<g id="edge107" class="edge"><title>Node39&#45;&gt;Node36</title>
<path fill="none" stroke="midnightblue" d="M1142.21,-537.434C1153.98,-504.714 1192.78,-384.744 1166,-291 1163.1,-280.844 1157.17,-270.747 1151.51,-262.699"/>
<polygon fill="midnightblue" stroke="midnightblue" points="1154.22,-260.479 1145.41,-254.589 1148.62,-264.685 1154.22,-260.479"/>
</g>
<!-- Node40 -->
<g id="node40" class="node"><title>Node40</title>
<polygon fill="white" stroke="#bfbfbf" points="1051.5,-476 1051.5,-495 1110.5,-495 1110.5,-476 1051.5,-476"/>
<text text-anchor="middle" x="1081" y="-483" font-family="Helvetica,sans-Serif" font-size="10.00">iostream</text>
</g>
<!-- Node39&#45;&gt;Node40 -->
<g id="edge108" class="edge"><title>Node39&#45;&gt;Node40</title>
<path fill="none" stroke="midnightblue" d="M1130.69,-537.475C1121.82,-528.373 1107.55,-513.741 1096.58,-502.483"/>
<polygon fill="midnightblue" stroke="midnightblue" points="1098.78,-499.727 1089.29,-495.009 1093.77,-504.613 1098.78,-499.727"/>
</g>
<!-- Node41&#45;&gt;Node6 -->
<g id="edge118" class="edge"><title>Node41&#45;&gt;Node6</title>
<path fill="none" stroke="midnightblue" d="M1480.09,-649.486C1477.01,-622.441 1465.67,-536.361 1440,-470 1389.29,-338.916 1291.49,-198.892 1256.68,-151.105"/>
<polygon fill="midnightblue" stroke="midnightblue" points="1259.33,-148.799 1250.59,-142.807 1253.69,-152.94 1259.33,-148.799"/>
</g>
<!-- Node41&#45;&gt;Node13 -->
<g id="edge120" class="edge"><title>Node41&#45;&gt;Node13</title>
<path fill="none" stroke="midnightblue" d="M1521.26,-656.22C1717.35,-647.334 2567.24,-606.241 2674,-557 2726.29,-532.884 2719.89,-498.361 2770,-470 2818.09,-442.784 2840.28,-460.071 2889,-434 2946.3,-403.339 2968.04,-385.241 2983,-322 3003.56,-235.083 3000.73,-199.718 2955,-123 2947.02,-109.621 2934.75,-97.1556 2924.37,-87.957"/>
<polygon fill="midnightblue" stroke="midnightblue" points="2926.44,-85.13 2916.56,-81.3252 2921.91,-90.4658 2926.44,-85.13"/>
</g>
<!-- Node41&#45;&gt;Node16 -->
<g id="edge119" class="edge"><title>Node41&#45;&gt;Node16</title>
<path fill="none" stroke="midnightblue" d="M1444.71,-649.444C1405.02,-640.083 1341.29,-625.056 1298.09,-614.868"/>
<polygon fill="midnightblue" stroke="midnightblue" points="1298.65,-611.405 1288.12,-612.516 1297.05,-618.218 1298.65,-611.405"/>
</g>
<!-- Node42&#45;&gt;Node6 -->
<g id="edge122" class="edge"><title>Node42&#45;&gt;Node6</title>
<path fill="none" stroke="midnightblue" d="M1530.83,-705.268C1536.56,-686.794 1549,-642.301 1549,-604 1549,-604 1549,-604 1549,-546 1549,-395.139 1512.72,-348.201 1413,-235 1375.04,-191.914 1314.13,-161.884 1276.73,-146.327"/>
<polygon fill="midnightblue" stroke="midnightblue" points="1277.88,-143.018 1267.3,-142.505 1275.26,-149.505 1277.88,-143.018"/>
</g>
<!-- Node42&#45;&gt;Node13 -->
<g id="edge127" class="edge"><title>Node42&#45;&gt;Node13</title>
<path fill="none" stroke="midnightblue" d="M1566.74,-707.075C1571.53,-706.32 1576.37,-705.607 1581,-705 2018.7,-647.562 2134.67,-686.294 2570,-613 2672.9,-595.676 2700,-592.842 2798,-557 2826.89,-546.435 3025.21,-456.665 3046,-434 3106.07,-368.526 3114,-334.853 3114,-246 3114,-246 3114,-246 3114,-188 3114,-157.205 3112.7,-143.805 3090,-123 3047.53,-84.0786 2977.95,-74.7009 2937.31,-72.7105"/>
<polygon fill="midnightblue" stroke="midnightblue" points="2937.27,-69.2068 2927.15,-72.3381 2937.02,-76.2021 2937.27,-69.2068"/>
</g>
<!-- Node42&#45;&gt;Node16 -->
<g id="edge124" class="edge"><title>Node42&#45;&gt;Node16</title>
<path fill="none" stroke="midnightblue" d="M1506.34,-705.368C1457.67,-685.97 1339.49,-638.87 1283.03,-616.367"/>
<polygon fill="midnightblue" stroke="midnightblue" points="1284.14,-613.042 1273.56,-612.591 1281.55,-619.545 1284.14,-613.042"/>
</g>
<!-- Node42&#45;&gt;Node28 -->
<g id="edge123" class="edge"><title>Node42&#45;&gt;Node28</title>
<path fill="none" stroke="midnightblue" d="M1566.79,-705.648C1656.16,-685.865 1869,-635.453 1869,-604 1869,-604 1869,-604 1869,-423 1869,-317.303 1729.83,-273.575 1640.13,-256.368"/>
<polygon fill="midnightblue" stroke="midnightblue" points="1640.73,-252.92 1630.26,-254.543 1639.46,-259.803 1640.73,-252.92"/>
</g>
<!-- Node42&#45;&gt;Node37 -->
<g id="edge125" class="edge"><title>Node42&#45;&gt;Node37</title>
<path fill="none" stroke="midnightblue" d="M1489.23,-710.774C1394.81,-701.34 1148.34,-667.105 980,-557 952.807,-539.214 947.401,-530.128 933,-501 924.031,-482.86 919.739,-459.952 917.72,-444.053"/>
<polygon fill="midnightblue" stroke="midnightblue" points="921.175,-443.448 916.618,-433.883 914.216,-444.202 921.175,-443.448"/>
</g>
<!-- Node42&#45;&gt;Node41 -->
<g id="edge126" class="edge"><title>Node42&#45;&gt;Node41</title>
<path fill="none" stroke="midnightblue" d="M1520.24,-705.083C1513.46,-697.298 1503.46,-685.801 1495.24,-676.367"/>
<polygon fill="midnightblue" stroke="midnightblue" points="1497.82,-673.996 1488.62,-668.751 1492.54,-678.592 1497.82,-673.996"/>
</g>
<!-- Node44&#45;&gt;Node13 -->
<g id="edge143" class="edge"><title>Node44&#45;&gt;Node13</title>
<path fill="none" stroke="midnightblue" d="M2611.53,-358.434C2616.26,-349.426 2623.84,-334.807 2630,-322 2672.1,-234.536 2646.15,-185.998 2720,-123 2763.71,-85.7104 2832.56,-75.7471 2872.79,-73.2135"/>
<polygon fill="midnightblue" stroke="midnightblue" points="2873.05,-76.7052 2882.85,-72.698 2872.69,-69.7143 2873.05,-76.7052"/>
</g>
<!-- Node44&#45;&gt;Node14 -->
<g id="edge145" class="edge"><title>Node44&#45;&gt;Node14</title>
<path fill="none" stroke="midnightblue" d="M2545.82,-365.632C2306.77,-359.741 1444.5,-333.188 1353,-255 1306.3,-215.09 1359.43,-162.046 1312,-123 1278.47,-95.3931 976.759,-78.7098 877.498,-73.9309"/>
<polygon fill="midnightblue" stroke="midnightblue" points="877.368,-70.4209 867.214,-73.4437 877.037,-77.4131 877.368,-70.4209"/>
</g>
<!-- Node44&#45;&gt;Node20 -->
<g id="edge142" class="edge"><title>Node44&#45;&gt;Node20</title>
<path fill="none" stroke="midnightblue" d="M2545.79,-362.004C2410.2,-350.938 2085.47,-324.433 1944.83,-312.954"/>
<polygon fill="midnightblue" stroke="midnightblue" points="1944.87,-309.446 1934.62,-312.121 1944.3,-316.423 1944.87,-309.446"/>
</g>
<!-- Node44&#45;&gt;Node24 -->
<g id="edge144" class="edge"><title>Node44&#45;&gt;Node24</title>
<path fill="none" stroke="midnightblue" d="M2609.37,-358.299C2615.12,-335.082 2627.16,-270.989 2596,-235 2575.25,-211.029 2484.97,-198.364 2434.85,-193.069"/>
<polygon fill="midnightblue" stroke="midnightblue" points="2435.1,-189.577 2424.8,-192.05 2434.4,-196.542 2435.1,-189.577"/>
</g>
<!-- Node45&#45;&gt;Node3 -->
<g id="edge174" class="edge"><title>Node45&#45;&gt;Node3</title>
<path fill="none" stroke="midnightblue" d="M1648.55,-985.21C1639.63,-963.487 1613.84,-906.603 1576,-873 1559.5,-858.347 1537.39,-847.496 1518.65,-840.125"/>
<polygon fill="midnightblue" stroke="midnightblue" points="1519.8,-836.818 1509.21,-836.586 1517.35,-843.373 1519.8,-836.818"/>
</g>
<!-- Node45&#45;&gt;Node42 -->
<g id="edge149" class="edge"><title>Node45&#45;&gt;Node42</title>
<path fill="none" stroke="midnightblue" d="M1654.56,-985.249C1659.75,-966.738 1671,-922.179 1671,-884 1671,-884 1671,-884 1671,-826 1671,-773.84 1610.49,-742.994 1568.19,-727.803"/>
<polygon fill="midnightblue" stroke="midnightblue" points="1569.27,-724.474 1558.68,-724.536 1567,-731.094 1569.27,-724.474"/>
</g>
<!-- Node46 -->
<g id="node46" class="node"><title>Node46</title>
<g id="a_node46"><a xlink:href="ir_2module_8h.html" target="_top" xlink:title="IRModule that holds the functions and type definitions. ">
<polygon fill="white" stroke="black" points="1478,-929.5 1478,-948.5 1570,-948.5 1570,-929.5 1478,-929.5"/>
<text text-anchor="middle" x="1524" y="-936.5" font-family="Helvetica,sans-Serif" font-size="10.00">tvm/ir/module.h</text>
</a>
</g>
</g>
<!-- Node45&#45;&gt;Node46 -->
<g id="edge150" class="edge"><title>Node45&#45;&gt;Node46</title>
<path fill="none" stroke="midnightblue" d="M1631.72,-985.444C1610.65,-976.557 1577.48,-962.563 1553.51,-952.451"/>
<polygon fill="midnightblue" stroke="midnightblue" points="1554.76,-949.179 1544.19,-948.516 1552.04,-955.628 1554.76,-949.179"/>
</g>
<!-- Node50 -->
<g id="node50" class="node"><title>Node50</title>
<g id="a_node50"><a xlink:href="env__func_8h.html" target="_top" xlink:title="Serializable global function used in IR. ">
<polygon fill="white" stroke="black" points="2130.5,-593.5 2130.5,-612.5 2229.5,-612.5 2229.5,-593.5 2130.5,-593.5"/>
<text text-anchor="middle" x="2180" y="-600.5" font-family="Helvetica,sans-Serif" font-size="10.00">tvm/ir/env_func.h</text>
</a>
</g>
</g>
<!-- Node45&#45;&gt;Node50 -->
<g id="edge170" class="edge"><title>Node45&#45;&gt;Node50</title>
<path fill="none" stroke="midnightblue" d="M1702.76,-985.448C1882.26,-954.71 2479.21,-848.094 2532,-781 2615.53,-674.834 2360.69,-627.132 2239.84,-610.873"/>
<polygon fill="midnightblue" stroke="midnightblue" points="2240,-607.364 2229.63,-609.531 2239.09,-614.304 2240,-607.364"/>
</g>
<!-- Node46&#45;&gt;Node5 -->
<g id="edge152" class="edge"><title>Node46&#45;&gt;Node5</title>
<path fill="none" stroke="midnightblue" d="M1477.9,-936.07C1390.11,-931.821 1202.5,-919.823 1144,-893 1091.44,-868.903 1045.58,-815.958 1024.43,-788.798"/>
<polygon fill="midnightblue" stroke="midnightblue" points="1027.07,-786.489 1018.23,-780.654 1021.5,-790.73 1027.07,-786.489"/>
</g>
<!-- Node46&#45;&gt;Node13 -->
<g id="edge166" class="edge"><title>Node46&#45;&gt;Node13</title>
<path fill="none" stroke="midnightblue" d="M1570.02,-937.502C1842.06,-934.261 3228,-913.553 3228,-828 3228,-828 3228,-828 3228,-770 3228,-642.873 3266,-613.627 3266,-486.5 3266,-486.5 3266,-486.5 3266,-188 3266,-151.004 3245.94,-141.672 3214,-123 3167.34,-95.7223 3006.71,-80.3506 2937.34,-74.8476"/>
<polygon fill="midnightblue" stroke="midnightblue" points="2937.26,-71.331 2927.02,-74.0488 2936.72,-78.3102 2937.26,-71.331"/>
</g>
<!-- Node46&#45;&gt;Node24 -->
<g id="edge167" class="edge"><title>Node46&#45;&gt;Node24</title>
<path fill="none" stroke="midnightblue" d="M1570.38,-935.307C1806.07,-921.019 2860,-849.654 2860,-716 2860,-716 2860,-716 2860,-546 2860,-384.187 2652.24,-491.596 2537,-378 2485.59,-327.325 2506.86,-289.902 2460,-235 2449.74,-222.976 2435.75,-212.139 2423.98,-204.114"/>
<polygon fill="midnightblue" stroke="midnightblue" points="2425.78,-201.111 2415.5,-198.552 2421.94,-206.964 2425.78,-201.111"/>
</g>
<!-- Node46&#45;&gt;Node25 -->
<g id="edge168" class="edge"><title>Node46&#45;&gt;Node25</title>
<path fill="none" stroke="midnightblue" d="M1477.9,-937.971C1285.87,-936.93 551.625,-923.547 381,-781 202.543,-631.91 394.718,-288.701 444.075,-207.466"/>
<polygon fill="midnightblue" stroke="midnightblue" points="447.323,-208.866 449.584,-198.516 441.362,-205.197 447.323,-208.866"/>
</g>
<!-- Node46&#45;&gt;Node42 -->
<g id="edge151" class="edge"><title>Node46&#45;&gt;Node42</title>
<path fill="none" stroke="midnightblue" d="M1539.78,-929.467C1552.2,-921.769 1568.61,-909.179 1576,-893 1600.39,-839.643 1599.32,-814.832 1576,-761 1570.73,-748.84 1560.38,-738.459 1550.64,-730.743"/>
<polygon fill="midnightblue" stroke="midnightblue" points="1552.5,-727.771 1542.37,-724.67 1548.36,-733.412 1552.5,-727.771"/>
</g>
<!-- Node47 -->
<g id="node47" class="node"><title>Node47</title>
<g id="a_node47"><a xlink:href="ir_2function_8h.html" target="_top" xlink:title="Function nodes. ">
<polygon fill="white" stroke="black" points="1152.5,-873.5 1152.5,-892.5 1247.5,-892.5 1247.5,-873.5 1152.5,-873.5"/>
<text text-anchor="middle" x="1200" y="-880.5" font-family="Helvetica,sans-Serif" font-size="10.00">tvm/ir/function.h</text>
</a>
</g>
</g>
<!-- Node46&#45;&gt;Node47 -->
<g id="edge153" class="edge"><title>Node46&#45;&gt;Node47</title>
<path fill="none" stroke="midnightblue" d="M1477.92,-930.32C1420.08,-920.68 1320.84,-904.14 1257.92,-893.653"/>
<polygon fill="midnightblue" stroke="midnightblue" points="1258.2,-890.152 1247.76,-891.961 1257.05,-897.057 1258.2,-890.152"/>
</g>
<!-- Node48 -->
<g id="node48" class="node"><title>Node48</title>
<g id="a_node48"><a xlink:href="ir_2adt_8h.html" target="_top" xlink:title="Algebraic data type definitions. ">
<polygon fill="white" stroke="black" points="1293,-817.5 1293,-836.5 1365,-836.5 1365,-817.5 1293,-817.5"/>
<text text-anchor="middle" x="1329" y="-824.5" font-family="Helvetica,sans-Serif" font-size="10.00">tvm/ir/adt.h</text>
</a>
</g>
</g>
<!-- Node46&#45;&gt;Node48 -->
<g id="edge159" class="edge"><title>Node46&#45;&gt;Node48</title>
<path fill="none" stroke="midnightblue" d="M1508.7,-929.368C1474.88,-910.292 1393.57,-864.422 1352.94,-841.505"/>
<polygon fill="midnightblue" stroke="midnightblue" points="1354.66,-838.456 1344.23,-836.591 1351.22,-844.553 1354.66,-838.456"/>
</g>
<!-- Node49 -->
<g id="node49" class="node"><title>Node49</title>
<polygon fill="white" stroke="#bfbfbf" points="1481,-873.5 1481,-892.5 1567,-892.5 1567,-873.5 1481,-873.5"/>
<text text-anchor="middle" x="1524" y="-880.5" font-family="Helvetica,sans-Serif" font-size="10.00">unordered_set</text>
</g>
<!-- Node46&#45;&gt;Node49 -->
<g id="edge169" class="edge"><title>Node46&#45;&gt;Node49</title>
<path fill="none" stroke="midnightblue" d="M1524,-929.083C1524,-922.006 1524,-911.861 1524,-902.986"/>
<polygon fill="midnightblue" stroke="midnightblue" points="1527.5,-902.751 1524,-892.751 1520.5,-902.751 1527.5,-902.751"/>
</g>
<!-- Node47&#45;&gt;Node3 -->
<g id="edge155" class="edge"><title>Node47&#45;&gt;Node3</title>
<path fill="none" stroke="midnightblue" d="M1244.53,-873.444C1295.41,-863.665 1378.47,-847.704 1431.39,-837.534"/>
<polygon fill="midnightblue" stroke="midnightblue" points="1432.07,-840.968 1441.23,-835.643 1430.75,-834.093 1432.07,-840.968"/>
</g>
<!-- Node47&#45;&gt;Node5 -->
<g id="edge154" class="edge"><title>Node47&#45;&gt;Node5</title>
<path fill="none" stroke="midnightblue" d="M1186.56,-873.334C1166.73,-860.631 1128.38,-836.361 1095,-817 1075.92,-805.932 1053.96,-794.064 1037.42,-785.296"/>
<polygon fill="midnightblue" stroke="midnightblue" points="1038.85,-782.094 1028.38,-780.522 1035.59,-788.285 1038.85,-782.094"/>
</g>
<!-- Node47&#45;&gt;Node12 -->
<g id="edge157" class="edge"><title>Node47&#45;&gt;Node12</title>
<path fill="none" stroke="midnightblue" d="M1152.28,-880.055C998.73,-873.189 519.423,-846.863 381,-781 249.887,-718.616 152,-693.198 152,-548 152,-548 152,-548 152,-423 152,-337.388 76,-331.612 76,-246 76,-246 76,-246 76,-188 76,-151.822 94.3587,-142.234 125,-123 189.974,-82.2151 281.171,-73.3633 334.772,-71.9953"/>
<polygon fill="midnightblue" stroke="midnightblue" points="335.036,-75.4913 344.972,-71.8143 334.912,-68.4924 335.036,-75.4913"/>
</g>
<!-- Node47&#45;&gt;Node13 -->
<g id="edge158" class="edge"><title>Node47&#45;&gt;Node13</title>
<path fill="none" stroke="midnightblue" d="M1247.77,-879.975C1469.25,-870.398 2397.5,-828.148 2684,-781 2780.16,-765.175 2803.4,-755.373 2896,-725 3101.57,-657.571 3228,-585.349 3228,-369 3228,-369 3228,-369 3228,-188 3228,-154.079 3216.04,-142.093 3188,-123 3147.46,-95.3914 3002.34,-80.4079 2937.13,-74.9382"/>
<polygon fill="midnightblue" stroke="midnightblue" points="2937.27,-71.4377 2927.02,-74.1126 2936.7,-78.4145 2937.27,-71.4377"/>
</g>
<!-- Node47&#45;&gt;Node17 -->
<g id="edge156" class="edge"><title>Node47&#45;&gt;Node17</title>
<path fill="none" stroke="midnightblue" d="M1152.3,-878.642C1009.63,-867.514 591.084,-826.606 510,-725 504.456,-718.052 509.382,-713.867 510,-705 514.901,-634.711 532,-618.46 532,-548 532,-548 532,-548 532,-484.5 532,-410.591 768.13,-382.949 893.638,-373.477"/>
<polygon fill="midnightblue" stroke="midnightblue" points="894.236,-376.942 903.953,-372.72 893.724,-369.961 894.236,-376.942"/>
</g>
<!-- Node48&#45;&gt;Node5 -->
<g id="edge163" class="edge"><title>Node48&#45;&gt;Node5</title>
<path fill="none" stroke="midnightblue" d="M1292.94,-819.858C1235.87,-810.136 1124.65,-791.19 1060.6,-780.278"/>
<polygon fill="midnightblue" stroke="midnightblue" points="1061.18,-776.828 1050.74,-778.599 1060.01,-783.728 1061.18,-776.828"/>
</g>
<!-- Node48&#45;&gt;Node6 -->
<g id="edge160" class="edge"><title>Node48&#45;&gt;Node6</title>
<path fill="none" stroke="midnightblue" d="M1329,-817.442C1329,-798.936 1329,-753.812 1329,-716 1329,-716 1329,-716 1329,-602 1329,-599.098 1263.4,-240.09 1247.46,-152.911"/>
<polygon fill="midnightblue" stroke="midnightblue" points="1250.86,-152.077 1245.62,-142.87 1243.98,-153.336 1250.86,-152.077"/>
</g>
<!-- Node48&#45;&gt;Node13 -->
<g id="edge165" class="edge"><title>Node48&#45;&gt;Node13</title>
<path fill="none" stroke="midnightblue" d="M1342.85,-817.377C1366.51,-803.097 1416.65,-774.753 1463,-761 2053.6,-585.778 2252.76,-761.136 2834,-557 2988.91,-502.595 3152,-533.185 3152,-369 3152,-369 3152,-369 3152,-188 3152,-94.3111 3004.37,-76.4515 2937.38,-73.1702"/>
<polygon fill="midnightblue" stroke="midnightblue" points="2937.49,-69.6719 2927.36,-72.7594 2937.2,-76.666 2937.49,-69.6719"/>
</g>
<!-- Node48&#45;&gt;Node16 -->
<g id="edge161" class="edge"><title>Node48&#45;&gt;Node16</title>
<path fill="none" stroke="midnightblue" d="M1325.98,-817.297C1314.6,-784.494 1274.16,-667.884 1258.37,-622.377"/>
<polygon fill="midnightblue" stroke="midnightblue" points="1261.67,-621.185 1255.08,-612.884 1255.05,-623.479 1261.67,-621.185"/>
</g>
<!-- Node48&#45;&gt;Node37 -->
<g id="edge162" class="edge"><title>Node48&#45;&gt;Node37</title>
<path fill="none" stroke="midnightblue" d="M1292.85,-825.625C1125.44,-823.716 432.292,-813.846 401,-781 269.8,-643.284 527.224,-559.613 695,-470 741.719,-445.046 800.769,-433.9 846.075,-428.936"/>
<polygon fill="midnightblue" stroke="midnightblue" points="846.515,-432.409 856.108,-427.912 845.804,-425.445 846.515,-432.409"/>
</g>
<!-- Node48&#45;&gt;Node42 -->
<g id="edge164" class="edge"><title>Node48&#45;&gt;Node42</title>
<path fill="none" stroke="midnightblue" d="M1335.2,-817.103C1345.32,-803.197 1366.74,-776.32 1391,-761 1418.05,-743.918 1452.24,-732.676 1479.7,-725.701"/>
<polygon fill="midnightblue" stroke="midnightblue" points="1480.59,-729.085 1489.48,-723.321 1478.94,-722.283 1480.59,-729.085"/>
</g>
<!-- Node50&#45;&gt;Node13 -->
<g id="edge172" class="edge"><title>Node50&#45;&gt;Node13</title>
<path fill="none" stroke="midnightblue" d="M2229.73,-601.437C2334.31,-599.572 2573.33,-591.545 2646,-557 2695.1,-533.659 2687.3,-500.95 2732,-470 2814.44,-412.92 2883.44,-462.126 2938,-378 2999.67,-282.915 2970.34,-231.62 2938,-123 2934.29,-110.525 2926.4,-98.2604 2919.27,-88.9422"/>
<polygon fill="midnightblue" stroke="midnightblue" points="2921.84,-86.5596 2912.82,-81.0003 2916.41,-90.9706 2921.84,-86.5596"/>
</g>
<!-- Node50&#45;&gt;Node14 -->
<g id="edge173" class="edge"><title>Node50&#45;&gt;Node14</title>
<path fill="none" stroke="midnightblue" d="M2130.4,-601.111C1927.87,-597.328 1169.41,-581.632 1065,-557 817.371,-498.582 681.129,-535.666 543,-322 464.631,-200.774 723.433,-109.333 815.061,-81.391"/>
<polygon fill="midnightblue" stroke="midnightblue" points="816.308,-84.6709 824.881,-78.4452 814.297,-77.9661 816.308,-84.6709"/>
</g>
<!-- Node50&#45;&gt;Node34 -->
<g id="edge171" class="edge"><title>Node50&#45;&gt;Node34</title>
<path fill="none" stroke="midnightblue" d="M2130.42,-595.7C2054.91,-586.106 1910.81,-567.797 1824.77,-556.865"/>
<polygon fill="midnightblue" stroke="midnightblue" points="1825.19,-553.39 1814.83,-555.602 1824.31,-560.335 1825.19,-553.39"/>
</g>
</g>
</svg>
