<?xml version="1.0" encoding="UTF-8" standalone="no"?>
<!DOCTYPE svg PUBLIC "-//W3C//DTD SVG 1.1//EN"
 "http://www.w3.org/Graphics/SVG/1.1/DTD/svg11.dtd">
<!-- Generated by graphviz version 2.38.0 (20140413.2041)
 -->
<!-- Title: include/tvm/ir/op.h Pages: 1 -->
<svg width="3282pt" height="1069pt"
 viewBox="0.00 0.00 3282.00 1069.00" xmlns="http://www.w3.org/2000/svg" xmlns:xlink="http://www.w3.org/1999/xlink">
<g id="graph0" class="graph" transform="scale(1 1) rotate(0) translate(4 1065)">
<title>include/tvm/ir/op.h</title>
<polygon fill="white" stroke="none" points="-4,4 -4,-1065 3278,-1065 3278,4 -4,4"/>
<!-- Node1 -->
<g id="node1" class="node"><title>Node1</title>
<polygon fill="#bfbfbf" stroke="black" points="1527.5,-1041.5 1527.5,-1060.5 1632.5,-1060.5 1632.5,-1041.5 1527.5,-1041.5"/>
<text text-anchor="middle" x="1580" y="-1048.5" font-family="Helvetica,sans-Serif" font-size="10.00">include/tvm/ir/op.h</text>
</g>
<!-- Node2 -->
<g id="node2" class="node"><title>Node2</title>
<polygon fill="white" stroke="#bfbfbf" points="0,-985.5 0,-1004.5 86,-1004.5 86,-985.5 0,-985.5"/>
<text text-anchor="middle" x="43" y="-992.5" font-family="Helvetica,sans-Serif" font-size="10.00">dmlc/registry.h</text>
</g>
<!-- Node1&#45;&gt;Node2 -->
<g id="edge1" class="edge"><title>Node1&#45;&gt;Node2</title>
<path fill="none" stroke="midnightblue" d="M1527.17,-1049.29C1297.63,-1046.06 385.533,-1031.78 100,-1005 98.7376,-1004.88 97.4607,-1004.75 96.1738,-1004.62"/>
<polygon fill="midnightblue" stroke="midnightblue" points="96.536,-1001.13 86.1876,-1003.41 95.6942,-1008.08 96.536,-1001.13"/>
</g>
<!-- Node3 -->
<g id="node3" class="node"><title>Node3</title>
<g id="a_node3"><a xlink:href="ir_2attrs_8h.html" target="_top" xlink:title="Helpers for attribute objects. ">
<polygon fill="white" stroke="black" points="676.5,-817.5 676.5,-836.5 755.5,-836.5 755.5,-817.5 676.5,-817.5"/>
<text text-anchor="middle" x="716" y="-824.5" font-family="Helvetica,sans-Serif" font-size="10.00">tvm/ir/attrs.h</text>
</a>
</g>
</g>
<!-- Node1&#45;&gt;Node3 -->
<g id="edge2" class="edge"><title>Node1&#45;&gt;Node3</title>
<path fill="none" stroke="midnightblue" d="M1527.06,-1042.2C1475.84,-1034.27 1396.17,-1020.9 1328,-1005 1106.12,-953.253 845.055,-870.179 751.533,-839.699"/>
<polygon fill="midnightblue" stroke="midnightblue" points="752.58,-836.359 741.987,-836.581 750.406,-843.013 752.58,-836.359"/>
</g>
<!-- Node5 -->
<g id="node5" class="node"><title>Node5</title>
<g id="a_node5"><a xlink:href="ir_2expr_8h.html" target="_top" xlink:title="Base expr nodes in TVM. ">
<polygon fill="white" stroke="black" points="1544.5,-761.5 1544.5,-780.5 1621.5,-780.5 1621.5,-761.5 1544.5,-761.5"/>
<text text-anchor="middle" x="1583" y="-768.5" font-family="Helvetica,sans-Serif" font-size="10.00">tvm/ir/expr.h</text>
</a>
</g>
</g>
<!-- Node1&#45;&gt;Node5 -->
<g id="edge146" class="edge"><title>Node1&#45;&gt;Node5</title>
<path fill="none" stroke="midnightblue" d="M1539.38,-1041.42C1479.08,-1026.47 1375.84,-991.147 1404,-929 1435.57,-859.312 1515.06,-808.326 1556.67,-785.426"/>
<polygon fill="midnightblue" stroke="midnightblue" points="1558.51,-788.408 1565.66,-780.59 1555.2,-782.243 1558.51,-788.408"/>
</g>
<!-- Node13 -->
<g id="node13" class="node"><title>Node13</title>
<polygon fill="white" stroke="#bfbfbf" points="2891,-62 2891,-81 2935,-81 2935,-62 2891,-62"/>
<text text-anchor="middle" x="2913" y="-69" font-family="Helvetica,sans-Serif" font-size="10.00">string</text>
</g>
<!-- Node1&#45;&gt;Node13 -->
<g id="edge174" class="edge"><title>Node1&#45;&gt;Node13</title>
<path fill="none" stroke="midnightblue" d="M1632.59,-1049.55C1853.08,-1047.48 2703.82,-1037.5 2970,-1005 3107.15,-988.254 3274,-1078.17 3274,-940 3274,-940 3274,-940 3274,-188 3274,-148.382 3247.92,-141.713 3213,-123 3166.93,-98.3129 3012.79,-81.6141 2945.21,-75.3071"/>
<polygon fill="midnightblue" stroke="midnightblue" points="2945.42,-71.8113 2935.14,-74.3844 2944.78,-78.7821 2945.42,-71.8113"/>
</g>
<!-- Node14 -->
<g id="node14" class="node"><title>Node14</title>
<polygon fill="white" stroke="#bfbfbf" points="587,-62 587,-81 629,-81 629,-62 587,-62"/>
<text text-anchor="middle" x="608" y="-69" font-family="Helvetica,sans-Serif" font-size="10.00">utility</text>
</g>
<!-- Node1&#45;&gt;Node14 -->
<g id="edge175" class="edge"><title>Node1&#45;&gt;Node14</title>
<path fill="none" stroke="midnightblue" d="M1527.39,-1048.86C1265.4,-1042.86 114,-1012.38 114,-940 114,-940 114,-940 114,-188 114,-144.225 148.033,-140.858 188,-123 257.768,-91.8264 491.64,-77.9643 576.717,-73.8682"/>
<polygon fill="midnightblue" stroke="midnightblue" points="576.968,-77.3605 586.793,-73.3957 576.64,-70.3681 576.968,-77.3605"/>
</g>
<!-- Node24 -->
<g id="node24" class="node"><title>Node24</title>
<polygon fill="white" stroke="#bfbfbf" points="2024.5,-179.5 2024.5,-198.5 2071.5,-198.5 2071.5,-179.5 2024.5,-179.5"/>
<text text-anchor="middle" x="2048" y="-186.5" font-family="Helvetica,sans-Serif" font-size="10.00">vector</text>
</g>
<!-- Node1&#45;&gt;Node24 -->
<g id="edge176" class="edge"><title>Node1&#45;&gt;Node24</title>
<path fill="none" stroke="midnightblue" d="M1632.51,-1049.55C1838.8,-1047.58 2593.98,-1038.19 2831,-1005 2950.24,-988.303 3094,-1060.41 3094,-940 3094,-940 3094,-940 3094,-770 3094,-585.162 3026.66,-525.183 2879,-414 2746.67,-314.359 2220.19,-219.286 2081.59,-195.613"/>
<polygon fill="midnightblue" stroke="midnightblue" points="2082,-192.133 2071.56,-193.909 2080.83,-199.035 2082,-192.133"/>
</g>
<!-- Node42 -->
<g id="node42" class="node"><title>Node42</title>
<g id="a_node42"><a xlink:href="ir_2type_8h.html" target="_top" xlink:title="IR/AST nodes for the unified type system in TVM. ">
<polygon fill="white" stroke="black" points="2713.5,-705.5 2713.5,-724.5 2790.5,-724.5 2790.5,-705.5 2713.5,-705.5"/>
<text text-anchor="middle" x="2752" y="-712.5" font-family="Helvetica,sans-Serif" font-size="10.00">tvm/ir/type.h</text>
</a>
</g>
</g>
<!-- Node1&#45;&gt;Node42 -->
<g id="edge147" class="edge"><title>Node1&#45;&gt;Node42</title>
<path fill="none" stroke="midnightblue" d="M1632.56,-1048.56C1882.86,-1041.36 2942,-1006.94 2942,-940 2942,-940 2942,-940 2942,-826 2942,-760.874 2857.36,-733.681 2801.06,-722.797"/>
<polygon fill="midnightblue" stroke="midnightblue" points="2801.37,-719.296 2790.91,-720.949 2800.12,-726.183 2801.37,-719.296"/>
</g>
<!-- Node44 -->
<g id="node44" class="node"><title>Node44</title>
<g id="a_node44"><a xlink:href="registry_8h.html" target="_top" xlink:title="This file defines the TVM global function registry. ">
<polygon fill="white" stroke="black" points="1942,-358.5 1942,-377.5 2064,-377.5 2064,-358.5 1942,-358.5"/>
<text text-anchor="middle" x="2003" y="-365.5" font-family="Helvetica,sans-Serif" font-size="10.00">tvm/runtime/registry.h</text>
</a>
</g>
</g>
<!-- Node1&#45;&gt;Node44 -->
<g id="edge141" class="edge"><title>Node1&#45;&gt;Node44</title>
<path fill="none" stroke="midnightblue" d="M1632.78,-1050.36C1873.97,-1051.44 2863.39,-1049.69 2952,-949 3236.21,-626.04 2306.9,-425.915 2061.08,-379.439"/>
<polygon fill="midnightblue" stroke="midnightblue" points="2061.39,-375.936 2050.92,-377.532 2060.1,-382.816 2061.39,-375.936"/>
</g>
<!-- Node45 -->
<g id="node45" class="node"><title>Node45</title>
<g id="a_node45"><a xlink:href="type__relation_8h.html" target="_top" xlink:title="Type relation and function for type inference(checking). ">
<polygon fill="white" stroke="black" points="1520.5,-985.5 1520.5,-1004.5 1639.5,-1004.5 1639.5,-985.5 1520.5,-985.5"/>
<text text-anchor="middle" x="1580" y="-992.5" font-family="Helvetica,sans-Serif" font-size="10.00">tvm/ir/type_relation.h</text>
</a>
</g>
</g>
<!-- Node1&#45;&gt;Node45 -->
<g id="edge148" class="edge"><title>Node1&#45;&gt;Node45</title>
<path fill="none" stroke="midnightblue" d="M1580,-1041.08C1580,-1034.01 1580,-1023.86 1580,-1014.99"/>
<polygon fill="midnightblue" stroke="midnightblue" points="1583.5,-1014.75 1580,-1004.75 1576.5,-1014.75 1583.5,-1014.75"/>
</g>
<!-- Node4 -->
<g id="node4" class="node"><title>Node4</title>
<polygon fill="white" stroke="#bfbfbf" points="573.5,-761.5 573.5,-780.5 668.5,-780.5 668.5,-761.5 573.5,-761.5"/>
<text text-anchor="middle" x="621" y="-768.5" font-family="Helvetica,sans-Serif" font-size="10.00">dmlc/common.h</text>
</g>
<!-- Node3&#45;&gt;Node4 -->
<g id="edge3" class="edge"><title>Node3&#45;&gt;Node4</title>
<path fill="none" stroke="midnightblue" d="M700.737,-817.324C685.779,-808.822 662.745,-795.729 645.273,-785.797"/>
<polygon fill="midnightblue" stroke="midnightblue" points="646.649,-782.553 636.226,-780.655 643.19,-788.639 646.649,-782.553"/>
</g>
<!-- Node3&#45;&gt;Node5 -->
<g id="edge4" class="edge"><title>Node3&#45;&gt;Node5</title>
<path fill="none" stroke="midnightblue" d="M755.522,-825.396C873.538,-823.254 1233.57,-814.254 1530,-781 1531.3,-780.854 1532.63,-780.696 1533.96,-780.529"/>
<polygon fill="midnightblue" stroke="midnightblue" points="1534.86,-783.937 1544.28,-779.094 1533.9,-777.004 1534.86,-783.937"/>
</g>
<!-- Node12 -->
<g id="node12" class="node"><title>Node12</title>
<polygon fill="white" stroke="#bfbfbf" points="879,-62 879,-81 947,-81 947,-62 879,-62"/>
<text text-anchor="middle" x="913" y="-69" font-family="Helvetica,sans-Serif" font-size="10.00">type_traits</text>
</g>
<!-- Node3&#45;&gt;Node12 -->
<g id="edge138" class="edge"><title>Node3&#45;&gt;Node12</title>
<path fill="none" stroke="midnightblue" d="M676.255,-823.267C600.123,-817.596 436.688,-803.201 385,-781 342.588,-762.784 304,-762.158 304,-716 304,-716 304,-716 304,-658 304,-579.929 266,-564.571 266,-486.5 266,-486.5 266,-486.5 266,-244 266,-136.282 373.713,-156.771 476,-123 548.174,-99.1713 772.284,-81.8688 868.442,-75.3488"/>
<polygon fill="midnightblue" stroke="midnightblue" points="868.958,-78.8221 878.702,-74.6612 868.49,-71.8378 868.958,-78.8221"/>
</g>
<!-- Node3&#45;&gt;Node13 -->
<g id="edge139" class="edge"><title>Node3&#45;&gt;Node13</title>
<path fill="none" stroke="midnightblue" d="M755.563,-825.531C1026.37,-822.129 2601.65,-799.238 2800,-725 2872.22,-697.972 3023.67,-566.095 3065,-501 3127.25,-402.963 3122,-362.13 3122,-246 3122,-246 3122,-246 3122,-188 3122,-108.383 3004.38,-83.2204 2945.61,-75.6169"/>
<polygon fill="midnightblue" stroke="midnightblue" points="2945.71,-72.1038 2935.37,-74.3923 2944.88,-79.0543 2945.71,-72.1038"/>
</g>
<!-- Node3&#45;&gt;Node14 -->
<g id="edge140" class="edge"><title>Node3&#45;&gt;Node14</title>
<path fill="none" stroke="midnightblue" d="M676.351,-824.148C576.479,-819.157 320.344,-804.217 290,-781 222.615,-729.441 152,-509.847 152,-425 152,-425 152,-425 152,-188 152,-100.153 474.042,-78.3851 576.853,-73.6742"/>
<polygon fill="midnightblue" stroke="midnightblue" points="577.082,-77.1677 586.921,-73.236 576.778,-70.1743 577.082,-77.1677"/>
</g>
<!-- Node20 -->
<g id="node20" class="node"><title>Node20</title>
<g id="a_node20"><a xlink:href="packed__func_8h.html" target="_top" xlink:title="Type&#45;erased function used across TVM API. ">
<polygon fill="white" stroke="black" points="1343.5,-291.5 1343.5,-321.5 1456.5,-321.5 1456.5,-291.5 1343.5,-291.5"/>
<text text-anchor="start" x="1351.5" y="-309.5" font-family="Helvetica,sans-Serif" font-size="10.00">tvm/runtime/packed</text>
<text text-anchor="middle" x="1400" y="-298.5" font-family="Helvetica,sans-Serif" font-size="10.00">_func.h</text>
</a>
</g>
</g>
<!-- Node3&#45;&gt;Node20 -->
<g id="edge134" class="edge"><title>Node3&#45;&gt;Node20</title>
<path fill="none" stroke="midnightblue" d="M714.387,-817.389C708.156,-783.347 686,-654.797 686,-548 686,-548 686,-548 686,-484.5 686,-351.927 1155.6,-317.971 1333.12,-309.871"/>
<polygon fill="midnightblue" stroke="midnightblue" points="1333.54,-313.356 1343.38,-309.417 1333.23,-306.363 1333.54,-313.356"/>
</g>
<!-- Node3&#45;&gt;Node24 -->
<g id="edge136" class="edge"><title>Node3&#45;&gt;Node24</title>
<path fill="none" stroke="midnightblue" d="M755.504,-820.596C985.44,-788.76 2144.49,-622.881 2242,-501 2326.67,-395.169 2136.18,-250.171 2069.77,-204.429"/>
<polygon fill="midnightblue" stroke="midnightblue" points="2071.5,-201.374 2061.26,-198.647 2067.56,-207.163 2071.5,-201.374"/>
</g>
<!-- Node25 -->
<g id="node25" class="node"><title>Node25</title>
<polygon fill="white" stroke="#bfbfbf" points="448.5,-179.5 448.5,-198.5 541.5,-198.5 541.5,-179.5 448.5,-179.5"/>
<text text-anchor="middle" x="495" y="-186.5" font-family="Helvetica,sans-Serif" font-size="10.00">unordered_map</text>
</g>
<!-- Node3&#45;&gt;Node25 -->
<g id="edge135" class="edge"><title>Node3&#45;&gt;Node25</title>
<path fill="none" stroke="midnightblue" d="M676.33,-822.806C580.076,-813.967 342,-785.119 342,-716 342,-716 342,-716 342,-484.5 342,-365.036 372.197,-331.949 442,-235 450.486,-223.214 462.701,-212.567 473.267,-204.592"/>
<polygon fill="midnightblue" stroke="midnightblue" points="475.574,-207.243 481.636,-198.554 471.478,-201.566 475.574,-207.243"/>
</g>
<!-- Node29 -->
<g id="node29" class="node"><title>Node29</title>
<polygon fill="white" stroke="#bfbfbf" points="1012.5,-235.5 1012.5,-254.5 1075.5,-254.5 1075.5,-235.5 1012.5,-235.5"/>
<text text-anchor="middle" x="1044" y="-242.5" font-family="Helvetica,sans-Serif" font-size="10.00">functional</text>
</g>
<!-- Node3&#45;&gt;Node29 -->
<g id="edge137" class="edge"><title>Node3&#45;&gt;Node29</title>
<path fill="none" stroke="midnightblue" d="M676.3,-826.511C640.514,-824.584 589.69,-815.398 564,-781 539.183,-747.771 360.386,-1033.55 672,-470 743.017,-341.566 921.144,-278.932 1002.41,-256.294"/>
<polygon fill="midnightblue" stroke="midnightblue" points="1003.56,-259.609 1012.29,-253.607 1001.72,-252.854 1003.56,-259.609"/>
</g>
<!-- Node35 -->
<g id="node35" class="node"><title>Node35</title>
<g id="a_node35"><a xlink:href="structural__equal_8h.html" target="_top" xlink:title="Structural equality comparison. ">
<polygon fill="white" stroke="black" points="1546.5,-470.5 1546.5,-500.5 1657.5,-500.5 1657.5,-470.5 1546.5,-470.5"/>
<text text-anchor="start" x="1554.5" y="-488.5" font-family="Helvetica,sans-Serif" font-size="10.00">tvm/node/structural</text>
<text text-anchor="middle" x="1602" y="-477.5" font-family="Helvetica,sans-Serif" font-size="10.00">_equal.h</text>
</a>
</g>
</g>
<!-- Node3&#45;&gt;Node35 -->
<g id="edge132" class="edge"><title>Node3&#45;&gt;Node35</title>
<path fill="none" stroke="midnightblue" d="M738.344,-817.438C854.86,-772.791 1393.61,-566.352 1555.72,-504.232"/>
<polygon fill="midnightblue" stroke="midnightblue" points="1557.32,-507.369 1565.4,-500.523 1554.81,-500.833 1557.32,-507.369"/>
</g>
<!-- Node38 -->
<g id="node38" class="node"><title>Node38</title>
<g id="a_node38"><a xlink:href="structural__hash_8h.html" target="_top" xlink:title="tvm/node/structural\l_hash.h">
<polygon fill="white" stroke="black" points="1354.5,-470.5 1354.5,-500.5 1465.5,-500.5 1465.5,-470.5 1354.5,-470.5"/>
<text text-anchor="start" x="1362.5" y="-488.5" font-family="Helvetica,sans-Serif" font-size="10.00">tvm/node/structural</text>
<text text-anchor="middle" x="1410" y="-477.5" font-family="Helvetica,sans-Serif" font-size="10.00">_hash.h</text>
</a>
</g>
</g>
<!-- Node3&#45;&gt;Node38 -->
<g id="edge133" class="edge"><title>Node3&#45;&gt;Node38</title>
<path fill="none" stroke="midnightblue" d="M716.377,-817.475C717.833,-795.363 724.89,-735.752 759,-705 862.6,-611.597 1257.2,-640.418 1369,-557 1384.64,-545.331 1395.32,-525.795 1401.85,-510.243"/>
<polygon fill="midnightblue" stroke="midnightblue" points="1405.19,-511.31 1405.55,-500.722 1398.67,-508.773 1405.19,-511.31"/>
</g>
<!-- Node6 -->
<g id="node6" class="node"><title>Node6</title>
<g id="a_node6"><a xlink:href="object_8h.html" target="_top" xlink:title="A managed object in the TVM runtime. ">
<polygon fill="white" stroke="black" points="1677.5,-123.5 1677.5,-142.5 1794.5,-142.5 1794.5,-123.5 1677.5,-123.5"/>
<text text-anchor="middle" x="1736" y="-130.5" font-family="Helvetica,sans-Serif" font-size="10.00">tvm/runtime/object.h</text>
</a>
</g>
</g>
<!-- Node5&#45;&gt;Node6 -->
<g id="edge5" class="edge"><title>Node5&#45;&gt;Node6</title>
<path fill="none" stroke="midnightblue" d="M1544.45,-770.609C1446.11,-771.49 1188.66,-769.378 1118,-725 928.569,-606.023 856.112,-403.711 1003,-235 1013.92,-222.459 1486.91,-164.107 1667.19,-142.274"/>
<polygon fill="midnightblue" stroke="midnightblue" points="1667.85,-145.72 1677.35,-141.044 1667,-138.771 1667.85,-145.72"/>
</g>
<!-- Node5&#45;&gt;Node12 -->
<g id="edge131" class="edge"><title>Node5&#45;&gt;Node12</title>
<path fill="none" stroke="midnightblue" d="M1544.01,-769.039C1399.04,-765.282 896.023,-750.513 829,-725 624.577,-647.185 582.184,-571.397 480,-378 437.133,-296.868 369.693,-252.22 425,-179 478.545,-108.113 758.976,-82.4751 868.816,-75.0635"/>
<polygon fill="midnightblue" stroke="midnightblue" points="869.151,-78.5492 878.9,-74.4022 868.693,-71.5642 869.151,-78.5492"/>
</g>
<!-- Node5&#45;&gt;Node13 -->
<g id="edge128" class="edge"><title>Node5&#45;&gt;Node13</title>
<path fill="none" stroke="midnightblue" d="M1621.55,-769.581C1790.45,-767.259 2465.36,-752.81 2657,-669 2891.01,-566.662 3046,-501.411 3046,-246 3046,-246 3046,-246 3046,-188 3046,-134.575 2984.07,-100.279 2944.72,-83.8839"/>
<polygon fill="midnightblue" stroke="midnightblue" points="2945.85,-80.5629 2935.26,-80.1005 2943.25,-87.0627 2945.85,-80.5629"/>
</g>
<!-- Node16 -->
<g id="node16" class="node"><title>Node16</title>
<g id="a_node16"><a xlink:href="node_8h.html" target="_top" xlink:title="Definitions and helper macros for IR/AST nodes. ">
<polygon fill="white" stroke="black" points="1637,-593.5 1637,-612.5 1735,-612.5 1735,-593.5 1637,-593.5"/>
<text text-anchor="middle" x="1686" y="-600.5" font-family="Helvetica,sans-Serif" font-size="10.00">tvm/node/node.h</text>
</a>
</g>
</g>
<!-- Node5&#45;&gt;Node16 -->
<g id="edge15" class="edge"><title>Node5&#45;&gt;Node16</title>
<path fill="none" stroke="midnightblue" d="M1573.11,-761.15C1560.36,-748.624 1540.98,-725.019 1551,-705 1572.65,-661.764 1622.57,-632.271 1655.26,-616.789"/>
<polygon fill="midnightblue" stroke="midnightblue" points="1656.76,-619.954 1664.4,-612.613 1653.85,-613.588 1656.76,-619.954"/>
</g>
<!-- Node31 -->
<g id="node31" class="node"><title>Node31</title>
<polygon fill="white" stroke="#bfbfbf" points="674,-235.5 674,-254.5 716,-254.5 716,-235.5 674,-235.5"/>
<text text-anchor="middle" x="695" y="-242.5" font-family="Helvetica,sans-Serif" font-size="10.00">limits</text>
</g>
<!-- Node5&#45;&gt;Node31 -->
<g id="edge130" class="edge"><title>Node5&#45;&gt;Node31</title>
<path fill="none" stroke="midnightblue" d="M1544.27,-769.171C1404.93,-765.968 934.062,-753.145 873,-725 778.518,-681.451 751.397,-652.444 710,-557 665.5,-454.402 683.128,-314.519 691.531,-264.621"/>
<polygon fill="midnightblue" stroke="midnightblue" points="694.997,-265.115 693.292,-254.658 688.104,-263.896 694.997,-265.115"/>
</g>
<!-- Node37 -->
<g id="node37" class="node"><title>Node37</title>
<g id="a_node37"><a xlink:href="node_2container_8h.html" target="_top" xlink:title="Array/Map container in the DSL graph. ">
<polygon fill="white" stroke="black" points="1337.5,-414.5 1337.5,-433.5 1456.5,-433.5 1456.5,-414.5 1337.5,-414.5"/>
<text text-anchor="middle" x="1397" y="-421.5" font-family="Helvetica,sans-Serif" font-size="10.00">tvm/node/container.h</text>
</a>
</g>
</g>
<!-- Node5&#45;&gt;Node37 -->
<g id="edge116" class="edge"><title>Node5&#45;&gt;Node37</title>
<path fill="none" stroke="midnightblue" d="M1544.16,-769.638C1427.47,-767.514 1088,-753.316 1088,-660 1088,-660 1088,-660 1088,-546 1088,-510.578 1085.15,-493.11 1112,-470 1143.41,-442.962 1253.28,-432.077 1327.06,-427.759"/>
<polygon fill="midnightblue" stroke="midnightblue" points="1327.43,-431.244 1337.22,-427.192 1327.04,-424.254 1327.43,-431.244"/>
</g>
<!-- Node41 -->
<g id="node41" class="node"><title>Node41</title>
<g id="a_node41"><a xlink:href="span_8h.html" target="_top" xlink:title="Span information for debugging purposes. ">
<polygon fill="white" stroke="black" points="2568,-649.5 2568,-668.5 2648,-668.5 2648,-649.5 2568,-649.5"/>
<text text-anchor="middle" x="2608" y="-656.5" font-family="Helvetica,sans-Serif" font-size="10.00">tvm/ir/span.h</text>
</a>
</g>
</g>
<!-- Node5&#45;&gt;Node41 -->
<g id="edge117" class="edge"><title>Node5&#45;&gt;Node41</title>
<path fill="none" stroke="midnightblue" d="M1621.62,-765.855C1779.97,-748.862 2379.52,-684.52 2557.74,-665.394"/>
<polygon fill="midnightblue" stroke="midnightblue" points="2558.32,-668.852 2567.88,-664.305 2557.57,-661.892 2558.32,-668.852"/>
</g>
<!-- Node5&#45;&gt;Node42 -->
<g id="edge121" class="edge"><title>Node5&#45;&gt;Node42</title>
<path fill="none" stroke="midnightblue" d="M1621.82,-769.874C1764.46,-769.105 2272.95,-763.642 2690,-725 2694.26,-724.605 2698.68,-724.118 2703.11,-723.578"/>
<polygon fill="midnightblue" stroke="midnightblue" points="2703.92,-727.003 2713.38,-722.237 2703.01,-720.061 2703.92,-727.003"/>
</g>
<!-- Node43 -->
<g id="node43" class="node"><title>Node43</title>
<polygon fill="white" stroke="#bfbfbf" points="1560,-705.5 1560,-724.5 1622,-724.5 1622,-705.5 1560,-705.5"/>
<text text-anchor="middle" x="1591" y="-712.5" font-family="Helvetica,sans-Serif" font-size="10.00">algorithm</text>
</g>
<!-- Node5&#45;&gt;Node43 -->
<g id="edge129" class="edge"><title>Node5&#45;&gt;Node43</title>
<path fill="none" stroke="midnightblue" d="M1584.32,-761.083C1585.38,-753.927 1586.91,-743.635 1588.23,-734.691"/>
<polygon fill="midnightblue" stroke="midnightblue" points="1591.7,-735.156 1589.7,-724.751 1584.78,-734.13 1591.7,-735.156"/>
</g>
<!-- Node7 -->
<g id="node7" class="node"><title>Node7</title>
<polygon fill="white" stroke="#bfbfbf" points="1289,-62 1289,-81 1375,-81 1375,-62 1289,-62"/>
<text text-anchor="middle" x="1332" y="-69" font-family="Helvetica,sans-Serif" font-size="10.00">dmlc/logging.h</text>
</g>
<!-- Node6&#45;&gt;Node7 -->
<g id="edge6" class="edge"><title>Node6&#45;&gt;Node7</title>
<path fill="none" stroke="midnightblue" d="M1678.12,-123.475C1599.87,-111.951 1461.42,-91.561 1385.5,-80.3794"/>
<polygon fill="midnightblue" stroke="midnightblue" points="1385.62,-76.8592 1375.22,-78.8647 1384.6,-83.7845 1385.62,-76.8592"/>
</g>
<!-- Node8 -->
<g id="node8" class="node"><title>Node8</title>
<g id="a_node8"><a xlink:href="c__runtime__api_8h.html" target="_top" xlink:title="tvm/runtime/c_runtime\l_api.h">
<polygon fill="white" stroke="black" points="2317.5,-56.5 2317.5,-86.5 2444.5,-86.5 2444.5,-56.5 2317.5,-56.5"/>
<text text-anchor="start" x="2325.5" y="-74.5" font-family="Helvetica,sans-Serif" font-size="10.00">tvm/runtime/c_runtime</text>
<text text-anchor="middle" x="2381" y="-63.5" font-family="Helvetica,sans-Serif" font-size="10.00">_api.h</text>
</a>
</g>
</g>
<!-- Node6&#45;&gt;Node8 -->
<g id="edge7" class="edge"><title>Node6&#45;&gt;Node8</title>
<path fill="none" stroke="midnightblue" d="M1794.66,-126.588C1912.43,-115.725 2177.41,-91.2805 2306.92,-79.3335"/>
<polygon fill="midnightblue" stroke="midnightblue" points="2307.5,-82.7948 2317.14,-78.3909 2306.86,-75.8244 2307.5,-82.7948"/>
</g>
<!-- Node6&#45;&gt;Node12 -->
<g id="edge11" class="edge"><title>Node6&#45;&gt;Node12</title>
<path fill="none" stroke="midnightblue" d="M1677.32,-126.521C1663.76,-125.309 1649.38,-124.069 1636,-123 1379.06,-102.466 1070.37,-82.458 957.276,-75.2828"/>
<polygon fill="midnightblue" stroke="midnightblue" points="957.466,-71.7879 947.264,-74.6488 957.023,-78.7739 957.466,-71.7879"/>
</g>
<!-- Node6&#45;&gt;Node13 -->
<g id="edge12" class="edge"><title>Node6&#45;&gt;Node13</title>
<path fill="none" stroke="midnightblue" d="M1794.77,-129.029C2005.46,-118.378 2718.96,-82.3091 2880.36,-74.1499"/>
<polygon fill="midnightblue" stroke="midnightblue" points="2880.79,-77.6328 2890.6,-73.6323 2880.44,-70.6418 2880.79,-77.6328"/>
</g>
<!-- Node6&#45;&gt;Node14 -->
<g id="edge13" class="edge"><title>Node6&#45;&gt;Node14</title>
<path fill="none" stroke="midnightblue" d="M1677.45,-129.026C1537.75,-121.915 1173.86,-103.303 870,-87 786.685,-82.5299 688.481,-77.0343 639.336,-74.2684"/>
<polygon fill="midnightblue" stroke="midnightblue" points="639.235,-70.7573 629.054,-73.6894 638.842,-77.7463 639.235,-70.7573"/>
</g>
<!-- Node15 -->
<g id="node15" class="node"><title>Node15</title>
<polygon fill="white" stroke="#bfbfbf" points="1980,-62 1980,-81 2030,-81 2030,-62 1980,-62"/>
<text text-anchor="middle" x="2005" y="-69" font-family="Helvetica,sans-Serif" font-size="10.00">atomic</text>
</g>
<!-- Node6&#45;&gt;Node15 -->
<g id="edge14" class="edge"><title>Node6&#45;&gt;Node15</title>
<path fill="none" stroke="midnightblue" d="M1774.54,-123.475C1826.87,-111.901 1919.62,-91.3841 1970.03,-80.2346"/>
<polygon fill="midnightblue" stroke="midnightblue" points="1970.81,-83.6468 1979.82,-78.0696 1969.3,-76.812 1970.81,-83.6468"/>
</g>
<!-- Node9 -->
<g id="node9" class="node"><title>Node9</title>
<polygon fill="white" stroke="#bfbfbf" points="2246,-0.5 2246,-19.5 2336,-19.5 2336,-0.5 2246,-0.5"/>
<text text-anchor="middle" x="2291" y="-7.5" font-family="Helvetica,sans-Serif" font-size="10.00">dlpack/dlpack.h</text>
</g>
<!-- Node8&#45;&gt;Node9 -->
<g id="edge8" class="edge"><title>Node8&#45;&gt;Node9</title>
<path fill="none" stroke="midnightblue" d="M2359.67,-56.3993C2345.51,-47.0402 2326.99,-34.7924 2312.75,-25.3771"/>
<polygon fill="midnightblue" stroke="midnightblue" points="2314.37,-22.2531 2304.1,-19.6578 2310.51,-28.0923 2314.37,-22.2531"/>
</g>
<!-- Node10 -->
<g id="node10" class="node"><title>Node10</title>
<polygon fill="white" stroke="#bfbfbf" points="2354.5,-0.5 2354.5,-19.5 2407.5,-19.5 2407.5,-0.5 2354.5,-0.5"/>
<text text-anchor="middle" x="2381" y="-7.5" font-family="Helvetica,sans-Serif" font-size="10.00">stdint.h</text>
</g>
<!-- Node8&#45;&gt;Node10 -->
<g id="edge9" class="edge"><title>Node8&#45;&gt;Node10</title>
<path fill="none" stroke="midnightblue" d="M2381,-56.3993C2381,-48.4664 2381,-38.458 2381,-29.8583"/>
<polygon fill="midnightblue" stroke="midnightblue" points="2384.5,-29.6577 2381,-19.6578 2377.5,-29.6578 2384.5,-29.6577"/>
</g>
<!-- Node11 -->
<g id="node11" class="node"><title>Node11</title>
<polygon fill="white" stroke="#bfbfbf" points="2425.5,-0.5 2425.5,-19.5 2480.5,-19.5 2480.5,-0.5 2425.5,-0.5"/>
<text text-anchor="middle" x="2453" y="-7.5" font-family="Helvetica,sans-Serif" font-size="10.00">stddef.h</text>
</g>
<!-- Node8&#45;&gt;Node11 -->
<g id="edge10" class="edge"><title>Node8&#45;&gt;Node11</title>
<path fill="none" stroke="midnightblue" d="M2398.06,-56.3993C2409.06,-47.3076 2423.37,-35.4899 2434.62,-26.1909"/>
<polygon fill="midnightblue" stroke="midnightblue" points="2437.04,-28.726 2442.52,-19.6578 2432.59,-23.33 2437.04,-28.726"/>
</g>
<!-- Node16&#45;&gt;Node6 -->
<g id="edge68" class="edge"><title>Node16&#45;&gt;Node6</title>
<path fill="none" stroke="midnightblue" d="M1734.91,-593.473C1775.6,-585.779 1834.77,-573.191 1885,-557 1985.4,-524.637 2021.14,-515.595 2088,-434 2106.6,-411.298 2113.91,-405.906 2123,-378 2130.73,-354.275 2126.11,-346.936 2127,-322 2129.38,-255.28 2135.94,-216.936 2081,-179 2037.55,-148.997 1892.55,-138.986 1804.96,-135.654"/>
<polygon fill="midnightblue" stroke="midnightblue" points="1804.95,-132.152 1794.83,-135.289 1804.7,-139.147 1804.95,-132.152"/>
</g>
<!-- Node16&#45;&gt;Node8 -->
<g id="edge16" class="edge"><title>Node16&#45;&gt;Node8</title>
<path fill="none" stroke="midnightblue" d="M1735.2,-600.581C1839.95,-596.103 2091.29,-577.556 2285,-501 2321.92,-486.409 2535.41,-349.94 2554,-322 2589.23,-269.059 2586.66,-236.266 2559,-179 2536.92,-133.271 2485.15,-105.606 2443.11,-89.9794"/>
<polygon fill="midnightblue" stroke="midnightblue" points="2444.07,-86.6076 2433.48,-86.544 2441.72,-93.2006 2444.07,-86.6076"/>
</g>
<!-- Node16&#45;&gt;Node12 -->
<g id="edge115" class="edge"><title>Node16&#45;&gt;Node12</title>
<path fill="none" stroke="midnightblue" d="M1636.96,-595.486C1628.97,-594.558 1620.76,-593.687 1613,-593 1465.36,-579.924 1087.03,-605.581 947,-557 930.691,-551.342 446.948,-214.325 439,-199 387.697,-100.082 396.299,-192.516 622,-143 710.429,-123.6 813.222,-97.9668 869.907,-83.5604"/>
<polygon fill="midnightblue" stroke="midnightblue" points="871.114,-86.8648 879.941,-81.0051 869.387,-80.0813 871.114,-86.8648"/>
</g>
<!-- Node16&#45;&gt;Node13 -->
<g id="edge112" class="edge"><title>Node16&#45;&gt;Node13</title>
<path fill="none" stroke="midnightblue" d="M1735.16,-598.569C1935.56,-583.722 2688.82,-519.281 2873,-378 2908.04,-351.122 2897.71,-328.519 2921,-291 2931.27,-274.45 2940.18,-273.589 2946,-255 2963.53,-199.015 2962.74,-179.227 2946,-123 2942.29,-110.525 2934.4,-98.2604 2927.27,-88.9422"/>
<polygon fill="midnightblue" stroke="midnightblue" points="2929.84,-86.5596 2920.82,-81.0003 2924.41,-90.9706 2929.84,-86.5596"/>
</g>
<!-- Node16&#45;&gt;Node14 -->
<g id="edge114" class="edge"><title>Node16&#45;&gt;Node14</title>
<path fill="none" stroke="midnightblue" d="M1636.97,-595.468C1628.97,-594.542 1620.76,-593.677 1613,-593 1457.83,-579.462 1062.56,-600.507 913,-557 655.745,-482.165 528.274,-447.447 428,-199 418.983,-176.659 439.163,-126.975 443,-123 478.412,-86.3159 539.669,-76.0883 576.754,-73.3533"/>
<polygon fill="midnightblue" stroke="midnightblue" points="577.207,-76.8326 586.981,-72.7442 576.79,-69.845 577.207,-76.8326"/>
</g>
<!-- Node17 -->
<g id="node17" class="node"><title>Node17</title>
<g id="a_node17"><a xlink:href="runtime_2container_8h.html" target="_top" xlink:title="Common POD(plain old data) container types. ">
<polygon fill="white" stroke="black" points="1422,-358.5 1422,-377.5 1554,-377.5 1554,-358.5 1422,-358.5"/>
<text text-anchor="middle" x="1488" y="-365.5" font-family="Helvetica,sans-Serif" font-size="10.00">tvm/runtime/container.h</text>
</a>
</g>
</g>
<!-- Node16&#45;&gt;Node17 -->
<g id="edge17" class="edge"><title>Node16&#45;&gt;Node17</title>
<path fill="none" stroke="midnightblue" d="M1687.19,-593.366C1689.82,-570.849 1693.93,-509.364 1667,-470 1634.45,-422.425 1571.7,-394.674 1529.83,-380.672"/>
<polygon fill="midnightblue" stroke="midnightblue" points="1530.78,-377.301 1520.18,-377.567 1528.63,-383.964 1530.78,-377.301"/>
</g>
<!-- Node18 -->
<g id="node18" class="node"><title>Node18</title>
<g id="a_node18"><a xlink:href="runtime_2memory_8h.html" target="_top" xlink:title="Runtime memory management. ">
<polygon fill="white" stroke="black" points="1062.5,-179.5 1062.5,-198.5 1189.5,-198.5 1189.5,-179.5 1062.5,-179.5"/>
<text text-anchor="middle" x="1126" y="-186.5" font-family="Helvetica,sans-Serif" font-size="10.00">tvm/runtime/memory.h</text>
</a>
</g>
</g>
<!-- Node16&#45;&gt;Node18 -->
<g id="edge69" class="edge"><title>Node16&#45;&gt;Node18</title>
<path fill="none" stroke="midnightblue" d="M1636.94,-595.739C1628.94,-594.78 1620.74,-593.833 1613,-593 1454.16,-575.919 1002.8,-623.288 900,-501 872.898,-468.761 794.078,-405.183 963,-235 986.42,-211.405 1021.02,-199.879 1052.32,-194.362"/>
<polygon fill="midnightblue" stroke="midnightblue" points="1053.02,-197.795 1062.35,-192.774 1051.92,-190.881 1053.02,-197.795"/>
</g>
<!-- Node16&#45;&gt;Node24 -->
<g id="edge113" class="edge"><title>Node16&#45;&gt;Node24</title>
<path fill="none" stroke="midnightblue" d="M1720.06,-593.495C1752.11,-585.196 1801.28,-571.702 1843,-557 1949.02,-519.637 1984.8,-513.773 2064,-434 2085.92,-411.922 2094.86,-407.047 2106,-378 2119.87,-341.839 2117.31,-329.214 2111,-291 2106.72,-265.068 2105.75,-257.398 2092,-235 2085.17,-223.879 2075.14,-213.339 2066.37,-205.26"/>
<polygon fill="midnightblue" stroke="midnightblue" points="2068.63,-202.579 2058.81,-198.586 2063.99,-207.827 2068.63,-202.579"/>
</g>
<!-- Node34 -->
<g id="node34" class="node"><title>Node34</title>
<g id="a_node34"><a xlink:href="reflection_8h.html" target="_top" xlink:title="Reflection and serialization of compiler IR/AST nodes. ">
<polygon fill="white" stroke="black" points="1714.5,-537.5 1714.5,-556.5 1833.5,-556.5 1833.5,-537.5 1714.5,-537.5"/>
<text text-anchor="middle" x="1774" y="-544.5" font-family="Helvetica,sans-Serif" font-size="10.00">tvm/node/reflection.h</text>
</a>
</g>
</g>
<!-- Node16&#45;&gt;Node34 -->
<g id="edge70" class="edge"><title>Node16&#45;&gt;Node34</title>
<path fill="none" stroke="midnightblue" d="M1700.14,-593.324C1713.87,-584.9 1734.94,-571.971 1751.06,-562.074"/>
<polygon fill="midnightblue" stroke="midnightblue" points="1753.2,-564.868 1759.9,-556.655 1749.54,-558.902 1753.2,-564.868"/>
</g>
<!-- Node16&#45;&gt;Node35 -->
<g id="edge110" class="edge"><title>Node16&#45;&gt;Node35</title>
<path fill="none" stroke="midnightblue" d="M1679.69,-593.319C1666.79,-575.579 1637.04,-534.682 1618.33,-508.951"/>
<polygon fill="midnightblue" stroke="midnightblue" points="1620.93,-506.574 1612.21,-500.545 1615.27,-510.691 1620.93,-506.574"/>
</g>
<!-- Node16&#45;&gt;Node37 -->
<g id="edge109" class="edge"><title>Node16&#45;&gt;Node37</title>
<path fill="none" stroke="midnightblue" d="M1672.77,-593.494C1639.68,-572.268 1550.55,-515.407 1475,-470 1457.13,-459.263 1436.72,-447.504 1421.26,-438.699"/>
<polygon fill="midnightblue" stroke="midnightblue" points="1422.76,-435.529 1412.34,-433.635 1419.31,-441.616 1422.76,-435.529"/>
</g>
<!-- Node16&#45;&gt;Node38 -->
<g id="edge111" class="edge"><title>Node16&#45;&gt;Node38</title>
<path fill="none" stroke="midnightblue" d="M1638.01,-593.493C1589.44,-584.409 1518.04,-569.614 1493,-557 1468.62,-544.721 1445.34,-523.869 1429.68,-508.019"/>
<polygon fill="midnightblue" stroke="midnightblue" points="1432.08,-505.473 1422.62,-500.699 1427.04,-510.329 1432.08,-505.473"/>
</g>
<!-- Node39 -->
<g id="node39" class="node"><title>Node39</title>
<g id="a_node39"><a xlink:href="repr__printer_8h.html" target="_top" xlink:title="Printer class to print repr string of each AST/IR nodes. ">
<polygon fill="white" stroke="black" points="1230,-537.5 1230,-556.5 1360,-556.5 1360,-537.5 1230,-537.5"/>
<text text-anchor="middle" x="1295" y="-544.5" font-family="Helvetica,sans-Serif" font-size="10.00">tvm/node/repr_printer.h</text>
</a>
</g>
</g>
<!-- Node16&#45;&gt;Node39 -->
<g id="edge106" class="edge"><title>Node16&#45;&gt;Node39</title>
<path fill="none" stroke="midnightblue" d="M1636.88,-595.216C1568.86,-585.822 1445.54,-568.79 1367.08,-557.955"/>
<polygon fill="midnightblue" stroke="midnightblue" points="1367.18,-554.435 1356.79,-556.534 1366.22,-561.369 1367.18,-554.435"/>
</g>
<!-- Node17&#45;&gt;Node6 -->
<g id="edge24" class="edge"><title>Node17&#45;&gt;Node6</title>
<path fill="none" stroke="midnightblue" d="M1487.58,-358.416C1487.29,-342.827 1489.02,-309.75 1507,-291 1546.13,-250.195 1581.31,-285.356 1629,-255 1672.19,-227.508 1708.2,-177.684 1725.3,-151.366"/>
<polygon fill="midnightblue" stroke="midnightblue" points="1728.32,-153.137 1730.73,-142.818 1722.41,-149.387 1728.32,-153.137"/>
</g>
<!-- Node17&#45;&gt;Node7 -->
<g id="edge18" class="edge"><title>Node17&#45;&gt;Node7</title>
<path fill="none" stroke="midnightblue" d="M1421.72,-364.875C1390.23,-360.121 1355.15,-348.593 1335,-322 1281.83,-251.825 1311.19,-135.816 1325.56,-90.9808"/>
<polygon fill="midnightblue" stroke="midnightblue" points="1328.9,-92.0014 1328.75,-81.4077 1322.26,-89.7874 1328.9,-92.0014"/>
</g>
<!-- Node17&#45;&gt;Node12 -->
<g id="edge65" class="edge"><title>Node17&#45;&gt;Node12</title>
<path fill="none" stroke="midnightblue" d="M1421.76,-363.033C1370.23,-358.079 1297.84,-346.954 1239,-322 1178.02,-296.141 1173.96,-270.44 1118,-235 1090.1,-217.33 1079.69,-218.447 1053,-199 1013.1,-169.93 1008.76,-155.948 972,-123 958.588,-110.98 943.109,-97.7541 931.372,-87.8538"/>
<polygon fill="midnightblue" stroke="midnightblue" points="933.477,-85.0512 923.569,-81.2974 928.973,-90.4103 933.477,-85.0512"/>
</g>
<!-- Node17&#45;&gt;Node13 -->
<g id="edge64" class="edge"><title>Node17&#45;&gt;Node13</title>
<path fill="none" stroke="midnightblue" d="M1554.32,-362.57C1775.74,-347.45 2480.77,-296.514 2574,-255 2653.91,-219.416 2643.04,-164.593 2720,-123 2772.3,-94.7311 2841.24,-81.6669 2880.99,-76.1272"/>
<polygon fill="midnightblue" stroke="midnightblue" points="2881.46,-79.5959 2890.91,-74.8169 2880.54,-72.6561 2881.46,-79.5959"/>
</g>
<!-- Node17&#45;&gt;Node14 -->
<g id="edge66" class="edge"><title>Node17&#45;&gt;Node14</title>
<path fill="none" stroke="midnightblue" d="M1421.77,-362.938C1230.55,-350.585 687.674,-310.87 632,-255 588.049,-210.894 597.098,-128.207 603.93,-91.218"/>
<polygon fill="midnightblue" stroke="midnightblue" points="607.384,-91.7917 605.918,-81.2989 600.521,-90.4161 607.384,-91.7917"/>
</g>
<!-- Node17&#45;&gt;Node18 -->
<g id="edge19" class="edge"><title>Node17&#45;&gt;Node18</title>
<path fill="none" stroke="midnightblue" d="M1421.83,-362.433C1379.17,-357.207 1323.72,-346.005 1280,-322 1232.34,-295.833 1236.01,-269.52 1194,-235 1180.05,-223.535 1163.12,-212.322 1149.64,-203.957"/>
<polygon fill="midnightblue" stroke="midnightblue" points="1151.3,-200.871 1140.94,-198.653 1147.66,-206.847 1151.3,-200.871"/>
</g>
<!-- Node17&#45;&gt;Node20 -->
<g id="edge25" class="edge"><title>Node17&#45;&gt;Node20</title>
<path fill="none" stroke="midnightblue" d="M1475.39,-358.475C1463.36,-350.341 1444.8,-337.791 1429.1,-327.179"/>
<polygon fill="midnightblue" stroke="midnightblue" points="1430.98,-324.225 1420.74,-321.523 1427.06,-330.024 1430.98,-324.225"/>
</g>
<!-- Node17&#45;&gt;Node24 -->
<g id="edge67" class="edge"><title>Node17&#45;&gt;Node24</title>
<path fill="none" stroke="midnightblue" d="M1491.5,-358.028C1498.48,-341.491 1515.83,-306.483 1543,-291 1619,-247.689 1851.61,-281.418 1935,-255 1970.49,-243.757 2007.03,-220.124 2028.61,-204.666"/>
<polygon fill="midnightblue" stroke="midnightblue" points="2030.9,-207.332 2036.9,-198.602 2026.77,-201.682 2030.9,-207.332"/>
</g>
<!-- Node32 -->
<g id="node32" class="node"><title>Node32</title>
<polygon fill="white" stroke="#bfbfbf" points="1551.5,-297 1551.5,-316 1600.5,-316 1600.5,-297 1551.5,-297"/>
<text text-anchor="middle" x="1576" y="-304" font-family="Helvetica,sans-Serif" font-size="10.00">cstring</text>
</g>
<!-- Node17&#45;&gt;Node32 -->
<g id="edge62" class="edge"><title>Node17&#45;&gt;Node32</title>
<path fill="none" stroke="midnightblue" d="M1500.61,-358.475C1514.72,-348.931 1537.83,-333.307 1554.75,-321.868"/>
<polygon fill="midnightblue" stroke="midnightblue" points="1557.09,-324.51 1563.42,-316.009 1553.17,-318.711 1557.09,-324.51"/>
</g>
<!-- Node33 -->
<g id="node33" class="node"><title>Node33</title>
<polygon fill="white" stroke="#bfbfbf" points="1618.5,-297 1618.5,-316 1695.5,-316 1695.5,-297 1618.5,-297"/>
<text text-anchor="middle" x="1657" y="-304" font-family="Helvetica,sans-Serif" font-size="10.00">initializer_list</text>
</g>
<!-- Node17&#45;&gt;Node33 -->
<g id="edge63" class="edge"><title>Node17&#45;&gt;Node33</title>
<path fill="none" stroke="midnightblue" d="M1512.21,-358.475C1541.33,-348.225 1590.37,-330.959 1623.2,-319.399"/>
<polygon fill="midnightblue" stroke="midnightblue" points="1624.56,-322.631 1632.83,-316.009 1622.24,-316.029 1624.56,-322.631"/>
</g>
<!-- Node18&#45;&gt;Node6 -->
<g id="edge20" class="edge"><title>Node18&#45;&gt;Node6</title>
<path fill="none" stroke="midnightblue" d="M1189.55,-182.374C1304.9,-172.163 1547.75,-150.664 1666.99,-140.109"/>
<polygon fill="midnightblue" stroke="midnightblue" points="1667.44,-143.583 1677.09,-139.215 1666.82,-136.61 1667.44,-143.583"/>
</g>
<!-- Node18&#45;&gt;Node12 -->
<g id="edge23" class="edge"><title>Node18&#45;&gt;Node12</title>
<path fill="none" stroke="midnightblue" d="M1111.22,-179.401C1089.42,-166.781 1047.32,-142.615 1011,-123 986.83,-109.948 958.96,-95.6591 939.135,-85.6219"/>
<polygon fill="midnightblue" stroke="midnightblue" points="940.605,-82.4431 930.1,-81.0601 937.45,-88.6917 940.605,-82.4431"/>
</g>
<!-- Node18&#45;&gt;Node14 -->
<g id="edge22" class="edge"><title>Node18&#45;&gt;Node14</title>
<path fill="none" stroke="midnightblue" d="M1087.49,-179.413C988.929,-157.437 729.004,-99.4806 639.113,-79.4374"/>
<polygon fill="midnightblue" stroke="midnightblue" points="639.778,-75.9998 629.256,-77.2395 638.255,-82.832 639.778,-75.9998"/>
</g>
<!-- Node19 -->
<g id="node19" class="node"><title>Node19</title>
<polygon fill="white" stroke="#bfbfbf" points="1102.5,-123.5 1102.5,-142.5 1149.5,-142.5 1149.5,-123.5 1102.5,-123.5"/>
<text text-anchor="middle" x="1126" y="-130.5" font-family="Helvetica,sans-Serif" font-size="10.00">cstdlib</text>
</g>
<!-- Node18&#45;&gt;Node19 -->
<g id="edge21" class="edge"><title>Node18&#45;&gt;Node19</title>
<path fill="none" stroke="midnightblue" d="M1126,-179.083C1126,-172.006 1126,-161.861 1126,-152.986"/>
<polygon fill="midnightblue" stroke="midnightblue" points="1129.5,-152.751 1126,-142.751 1122.5,-152.751 1129.5,-152.751"/>
</g>
<!-- Node20&#45;&gt;Node6 -->
<g id="edge53" class="edge"><title>Node20&#45;&gt;Node6</title>
<path fill="none" stroke="midnightblue" d="M1419.84,-291.329C1430.68,-282.313 1443.08,-269.604 1449,-255 1452.34,-246.762 1452.34,-243.236 1449,-235 1440.61,-214.324 1422.39,-219.676 1414,-199 1410.66,-190.764 1408.17,-185.706 1414,-179 1446.13,-142.067 1582.54,-134.524 1667.17,-133.499"/>
<polygon fill="midnightblue" stroke="midnightblue" points="1667.26,-136.998 1677.22,-133.405 1667.19,-129.999 1667.26,-136.998"/>
</g>
<!-- Node20&#45;&gt;Node7 -->
<g id="edge26" class="edge"><title>Node20&#45;&gt;Node7</title>
<path fill="none" stroke="midnightblue" d="M1394.3,-291.481C1390.32,-281.418 1385.01,-267.485 1381,-255 1362.05,-196.052 1344.41,-124.821 1336.44,-91.4634"/>
<polygon fill="midnightblue" stroke="midnightblue" points="1339.75,-90.2516 1334.05,-81.3261 1332.94,-91.8633 1339.75,-90.2516"/>
</g>
<!-- Node20&#45;&gt;Node8 -->
<g id="edge27" class="edge"><title>Node20&#45;&gt;Node8</title>
<path fill="none" stroke="midnightblue" d="M1456.64,-298.905C1482.88,-296.069 1514.5,-292.961 1543,-291 1597.91,-287.222 2494.8,-294.617 2533,-255 2552.46,-234.822 2524.6,-203.808 2505,-179 2489.55,-159.444 2480.96,-159.183 2462,-143 2442.68,-126.508 2420.98,-107.601 2404.91,-93.5209"/>
<polygon fill="midnightblue" stroke="midnightblue" points="2406.88,-90.5985 2397.06,-86.6363 2402.27,-95.8613 2406.88,-90.5985"/>
</g>
<!-- Node20&#45;&gt;Node12 -->
<g id="edge61" class="edge"><title>Node20&#45;&gt;Node12</title>
<path fill="none" stroke="midnightblue" d="M1386.21,-291.444C1351.41,-256.859 1255.81,-167.233 1158,-123 1092.06,-93.1785 1008.15,-80.7828 957.606,-75.7628"/>
<polygon fill="midnightblue" stroke="midnightblue" points="957.629,-72.2497 947.346,-74.8 956.975,-79.2191 957.629,-72.2497"/>
</g>
<!-- Node20&#45;&gt;Node13 -->
<g id="edge57" class="edge"><title>Node20&#45;&gt;Node13</title>
<path fill="none" stroke="midnightblue" d="M1456.64,-298.897C1482.88,-296.059 1514.49,-292.953 1543,-291 1598.85,-287.174 2503.1,-285.563 2550,-255 2604.62,-219.404 2561.83,-162.11 2614,-123 2655.78,-91.675 2812.37,-78.573 2880.73,-74.2623"/>
<polygon fill="midnightblue" stroke="midnightblue" points="2881.15,-77.7437 2890.92,-73.6445 2880.72,-70.7566 2881.15,-77.7437"/>
</g>
<!-- Node20&#45;&gt;Node14 -->
<g id="edge60" class="edge"><title>Node20&#45;&gt;Node14</title>
<path fill="none" stroke="midnightblue" d="M1343.35,-302.249C1192.07,-293.404 788.37,-268.651 763,-255 697.471,-219.74 709.697,-178.385 660,-123 648.991,-110.731 635.635,-97.7969 625.215,-88.0897"/>
<polygon fill="midnightblue" stroke="midnightblue" points="627.317,-85.2678 617.589,-81.071 622.577,-90.4184 627.317,-85.2678"/>
</g>
<!-- Node21 -->
<g id="node21" class="node"><title>Node21</title>
<g id="a_node21"><a xlink:href="runtime_2module_8h.html" target="_top" xlink:title="Runtime container of the functions generated by TVM, This is used to support dynamically link...">
<polygon fill="white" stroke="black" points="1496,-235.5 1496,-254.5 1620,-254.5 1620,-235.5 1496,-235.5"/>
<text text-anchor="middle" x="1558" y="-242.5" font-family="Helvetica,sans-Serif" font-size="10.00">tvm/runtime/module.h</text>
</a>
</g>
</g>
<!-- Node20&#45;&gt;Node21 -->
<g id="edge28" class="edge"><title>Node20&#45;&gt;Node21</title>
<path fill="none" stroke="midnightblue" d="M1431.6,-291.399C1457.28,-281.238 1493.41,-267.672 1520.53,-258.022"/>
<polygon fill="midnightblue" stroke="midnightblue" points="1521.81,-261.282 1530.08,-254.658 1519.49,-254.679 1521.81,-261.282"/>
</g>
<!-- Node23 -->
<g id="node23" class="node"><title>Node23</title>
<polygon fill="white" stroke="#bfbfbf" points="1422.5,-179.5 1422.5,-198.5 1479.5,-198.5 1479.5,-179.5 1422.5,-179.5"/>
<text text-anchor="middle" x="1451" y="-186.5" font-family="Helvetica,sans-Serif" font-size="10.00">memory</text>
</g>
<!-- Node20&#45;&gt;Node23 -->
<g id="edge59" class="edge"><title>Node20&#45;&gt;Node23</title>
<path fill="none" stroke="midnightblue" d="M1393.4,-291.469C1387.45,-276.65 1380.92,-252.987 1390,-235 1396.81,-221.52 1409.77,-211.083 1422,-203.67"/>
<polygon fill="midnightblue" stroke="midnightblue" points="1424.07,-206.521 1431.09,-198.59 1420.66,-200.41 1424.07,-206.521"/>
</g>
<!-- Node20&#45;&gt;Node24 -->
<g id="edge56" class="edge"><title>Node20&#45;&gt;Node24</title>
<path fill="none" stroke="midnightblue" d="M1456.75,-294.705C1531.15,-280.622 1665.74,-255.375 1781,-235 1864.84,-220.179 1963.69,-203.805 2014.35,-195.494"/>
<polygon fill="midnightblue" stroke="midnightblue" points="2015.1,-198.917 2024.41,-193.846 2013.97,-192.01 2015.1,-198.917"/>
</g>
<!-- Node26 -->
<g id="node26" class="node"><title>Node26</title>
<g id="a_node26"><a xlink:href="ndarray_8h.html" target="_top" xlink:title="A device&#45;independent managed NDArray abstraction. ">
<polygon fill="white" stroke="black" points="2400.5,-235.5 2400.5,-254.5 2523.5,-254.5 2523.5,-235.5 2400.5,-235.5"/>
<text text-anchor="middle" x="2462" y="-242.5" font-family="Helvetica,sans-Serif" font-size="10.00">tvm/runtime/ndarray.h</text>
</a>
</g>
</g>
<!-- Node20&#45;&gt;Node26 -->
<g id="edge38" class="edge"><title>Node20&#45;&gt;Node26</title>
<path fill="none" stroke="midnightblue" d="M1456.66,-299.069C1482.9,-296.267 1514.51,-293.141 1543,-291 1858.12,-267.324 2235.01,-253.368 2390.02,-248.247"/>
<polygon fill="midnightblue" stroke="midnightblue" points="2390.48,-251.734 2400.35,-247.908 2390.25,-244.738 2390.48,-251.734"/>
</g>
<!-- Node28 -->
<g id="node28" class="node"><title>Node28</title>
<g id="a_node28"><a xlink:href="data__type_8h.html" target="_top" xlink:title="tvm/runtime/data_type.h">
<polygon fill="white" stroke="black" points="1790,-235.5 1790,-254.5 1926,-254.5 1926,-235.5 1790,-235.5"/>
<text text-anchor="middle" x="1858" y="-242.5" font-family="Helvetica,sans-Serif" font-size="10.00">tvm/runtime/data_type.h</text>
</a>
</g>
</g>
<!-- Node20&#45;&gt;Node28 -->
<g id="edge48" class="edge"><title>Node20&#45;&gt;Node28</title>
<path fill="none" stroke="midnightblue" d="M1456.57,-297.931C1473.43,-295.686 1491.96,-293.231 1509,-291 1602.68,-278.73 1710.53,-264.863 1781.25,-255.806"/>
<polygon fill="midnightblue" stroke="midnightblue" points="1781.93,-259.247 1791.41,-254.505 1781.05,-252.304 1781.93,-259.247"/>
</g>
<!-- Node20&#45;&gt;Node29 -->
<g id="edge54" class="edge"><title>Node20&#45;&gt;Node29</title>
<path fill="none" stroke="midnightblue" d="M1343.2,-296.006C1271.42,-284.01 1149.57,-263.644 1085.77,-252.981"/>
<polygon fill="midnightblue" stroke="midnightblue" points="1086.11,-249.49 1075.67,-251.294 1084.96,-256.395 1086.11,-249.49"/>
</g>
<!-- Node30 -->
<g id="node30" class="node"><title>Node30</title>
<polygon fill="white" stroke="#bfbfbf" points="1398.5,-235.5 1398.5,-254.5 1439.5,-254.5 1439.5,-235.5 1398.5,-235.5"/>
<text text-anchor="middle" x="1419" y="-242.5" font-family="Helvetica,sans-Serif" font-size="10.00">tuple</text>
</g>
<!-- Node20&#45;&gt;Node30 -->
<g id="edge55" class="edge"><title>Node20&#45;&gt;Node30</title>
<path fill="none" stroke="midnightblue" d="M1404.5,-291.399C1407.09,-283.288 1410.38,-273.007 1413.16,-264.281"/>
<polygon fill="midnightblue" stroke="midnightblue" points="1416.53,-265.249 1416.24,-254.658 1409.86,-263.119 1416.53,-265.249"/>
</g>
<!-- Node20&#45;&gt;Node31 -->
<g id="edge58" class="edge"><title>Node20&#45;&gt;Node31</title>
<path fill="none" stroke="midnightblue" d="M1343.4,-301.809C1192.8,-291.909 789.705,-264.847 730,-255 728.746,-254.793 727.472,-254.563 726.188,-254.314"/>
<polygon fill="midnightblue" stroke="midnightblue" points="726.865,-250.879 716.344,-252.125 725.346,-257.712 726.865,-250.879"/>
</g>
<!-- Node21&#45;&gt;Node6 -->
<g id="edge31" class="edge"><title>Node21&#45;&gt;Node6</title>
<path fill="none" stroke="midnightblue" d="M1556.92,-235.153C1555.75,-221.315 1555.7,-194.531 1570,-179 1594.57,-152.328 1633.18,-140.835 1666.98,-136.121"/>
<polygon fill="midnightblue" stroke="midnightblue" points="1667.8,-139.549 1677.3,-134.867 1666.95,-132.6 1667.8,-139.549"/>
</g>
<!-- Node21&#45;&gt;Node8 -->
<g id="edge30" class="edge"><title>Node21&#45;&gt;Node8</title>
<path fill="none" stroke="midnightblue" d="M1554.67,-235.221C1550.23,-221.942 1544.13,-196.451 1555,-179 1584.85,-131.086 1614.5,-137.714 1669,-123 1729.42,-106.688 2137.79,-84.6763 2307.39,-76.1158"/>
<polygon fill="midnightblue" stroke="midnightblue" points="2307.66,-79.6063 2317.48,-75.6081 2307.31,-72.6151 2307.66,-79.6063"/>
</g>
<!-- Node21&#45;&gt;Node13 -->
<g id="edge35" class="edge"><title>Node21&#45;&gt;Node13</title>
<path fill="none" stroke="midnightblue" d="M1607.36,-235.492C1684.57,-222.347 1838.68,-196.765 1970,-179 2326.2,-130.812 2760.15,-87.4097 2880.64,-75.6334"/>
<polygon fill="midnightblue" stroke="midnightblue" points="2881.07,-79.1083 2890.68,-74.6543 2880.39,-72.1413 2881.07,-79.1083"/>
</g>
<!-- Node21&#45;&gt;Node18 -->
<g id="edge32" class="edge"><title>Node21&#45;&gt;Node18</title>
<path fill="none" stroke="midnightblue" d="M1495.64,-236.206C1417.36,-226.42 1283.26,-209.657 1199.9,-199.238"/>
<polygon fill="midnightblue" stroke="midnightblue" points="1200.1,-195.735 1189.74,-197.968 1199.23,-202.681 1200.1,-195.735"/>
</g>
<!-- Node21&#45;&gt;Node20 -->
<g id="edge37" class="edge"><title>Node21&#45;&gt;Node20</title>
<path fill="none" stroke="midnightblue" d="M1539.94,-254.658C1518.73,-263.348 1482.96,-276.981 1452.84,-287.944"/>
<polygon fill="midnightblue" stroke="midnightblue" points="1451.5,-284.707 1443.28,-291.399 1453.88,-291.29 1451.5,-284.707"/>
</g>
<!-- Node22 -->
<g id="node22" class="node"><title>Node22</title>
<polygon fill="white" stroke="#bfbfbf" points="2015,-123.5 2015,-142.5 2075,-142.5 2075,-123.5 2015,-123.5"/>
<text text-anchor="middle" x="2045" y="-130.5" font-family="Helvetica,sans-Serif" font-size="10.00">dmlc/io.h</text>
</g>
<!-- Node21&#45;&gt;Node22 -->
<g id="edge29" class="edge"><title>Node21&#45;&gt;Node22</title>
<path fill="none" stroke="midnightblue" d="M1566.29,-235.441C1580.88,-220.99 1612.76,-192.054 1646,-179 1710.69,-153.593 1916.67,-140.465 2004.59,-135.901"/>
<polygon fill="midnightblue" stroke="midnightblue" points="2004.9,-139.39 2014.71,-135.387 2004.55,-132.399 2004.9,-139.39"/>
</g>
<!-- Node21&#45;&gt;Node23 -->
<g id="edge33" class="edge"><title>Node21&#45;&gt;Node23</title>
<path fill="none" stroke="midnightblue" d="M1540.81,-235.324C1523.65,-226.664 1497.05,-213.242 1477.25,-203.249"/>
<polygon fill="midnightblue" stroke="midnightblue" points="1478.65,-200.035 1468.15,-198.655 1475.5,-206.285 1478.65,-200.035"/>
</g>
<!-- Node21&#45;&gt;Node24 -->
<g id="edge34" class="edge"><title>Node21&#45;&gt;Node24</title>
<path fill="none" stroke="midnightblue" d="M1620.21,-236.584C1624.87,-236.043 1629.51,-235.51 1634,-235 1775.1,-218.977 1943.39,-201.051 2014.09,-193.574"/>
<polygon fill="midnightblue" stroke="midnightblue" points="2014.61,-197.039 2024.19,-192.507 2013.88,-190.078 2014.61,-197.039"/>
</g>
<!-- Node21&#45;&gt;Node25 -->
<g id="edge36" class="edge"><title>Node21&#45;&gt;Node25</title>
<path fill="none" stroke="midnightblue" d="M1495.78,-238.481C1480.49,-237.231 1464.16,-235.983 1449,-235 1108.87,-212.943 699.845,-197.293 551.886,-191.983"/>
<polygon fill="midnightblue" stroke="midnightblue" points="551.808,-188.478 541.689,-191.619 551.558,-195.474 551.808,-188.478"/>
</g>
<!-- Node26&#45;&gt;Node6 -->
<g id="edge40" class="edge"><title>Node26&#45;&gt;Node6</title>
<path fill="none" stroke="midnightblue" d="M2418.24,-235.448C2380.2,-227.533 2323.84,-214.646 2276,-199 2254.03,-191.816 2250.43,-184.561 2228,-179 2080.2,-142.36 1900.78,-134.897 1804.68,-133.765"/>
<polygon fill="midnightblue" stroke="midnightblue" points="1804.54,-130.263 1794.51,-133.665 1804.48,-137.263 1804.54,-130.263"/>
</g>
<!-- Node26&#45;&gt;Node8 -->
<g id="edge39" class="edge"><title>Node26&#45;&gt;Node8</title>
<path fill="none" stroke="midnightblue" d="M2470.92,-235.244C2482.86,-222.427 2501.29,-198.018 2490,-179 2472.94,-150.268 2448.19,-166.049 2424,-143 2409.95,-129.614 2398.74,-110.675 2391.29,-95.7974"/>
<polygon fill="midnightblue" stroke="midnightblue" points="2394.41,-94.2202 2386.95,-86.7059 2388.1,-97.2378 2394.41,-94.2202"/>
</g>
<!-- Node26&#45;&gt;Node14 -->
<g id="edge47" class="edge"><title>Node26&#45;&gt;Node14</title>
<path fill="none" stroke="midnightblue" d="M2427.49,-235.428C2396.16,-227.276 2348.9,-214.049 2309,-199 2289.28,-191.561 2285.67,-186.561 2266,-179 2187,-148.639 2167.49,-136.823 2084,-123 1817.73,-78.9159 1139.65,-98.458 870,-87 786.641,-83.4579 688.456,-77.5625 639.325,-74.4939"/>
<polygon fill="midnightblue" stroke="midnightblue" points="639.247,-70.9822 629.047,-73.8484 638.808,-77.9684 639.247,-70.9822"/>
</g>
<!-- Node26&#45;&gt;Node15 -->
<g id="edge45" class="edge"><title>Node26&#45;&gt;Node15</title>
<path fill="none" stroke="midnightblue" d="M2464.16,-235.298C2466.98,-221.659 2470.16,-195.141 2457,-179 2403.85,-113.801 2137.01,-84.1302 2040.18,-75.3885"/>
<polygon fill="midnightblue" stroke="midnightblue" points="2040.29,-71.8852 2030.02,-74.4928 2039.68,-78.8581 2040.29,-71.8852"/>
</g>
<!-- Node26&#45;&gt;Node24 -->
<g id="edge46" class="edge"><title>Node26&#45;&gt;Node24</title>
<path fill="none" stroke="midnightblue" d="M2400.47,-235.974C2311.77,-224.404 2151.01,-203.436 2081.51,-194.37"/>
<polygon fill="midnightblue" stroke="midnightblue" points="2081.92,-190.894 2071.55,-193.071 2081.01,-197.835 2081.92,-190.894"/>
</g>
<!-- Node27 -->
<g id="node27" class="node"><title>Node27</title>
<g id="a_node27"><a xlink:href="serializer_8h.html" target="_top" xlink:title="Serializer extension to support TVM data types Include this file to enable serialization of DLDataTyp...">
<polygon fill="white" stroke="red" points="2318,-179.5 2318,-198.5 2448,-198.5 2448,-179.5 2318,-179.5"/>
<text text-anchor="middle" x="2383" y="-186.5" font-family="Helvetica,sans-Serif" font-size="10.00">tvm/runtime/serializer.h</text>
</a>
</g>
</g>
<!-- Node26&#45;&gt;Node27 -->
<g id="edge41" class="edge"><title>Node26&#45;&gt;Node27</title>
<path fill="none" stroke="midnightblue" d="M2444.19,-235.324C2430.52,-227.185 2412.12,-214.839 2398.94,-205.087"/>
<polygon fill="midnightblue" stroke="midnightblue" points="2400.84,-202.133 2390.77,-198.834 2396.59,-207.692 2400.84,-202.133"/>
</g>
<!-- Node27&#45;&gt;Node8 -->
<g id="edge43" class="edge"><title>Node27&#45;&gt;Node8</title>
<path fill="none" stroke="midnightblue" d="M2382.85,-179.319C2382.55,-161.967 2381.87,-122.457 2381.42,-96.6579"/>
<polygon fill="midnightblue" stroke="midnightblue" points="2384.92,-96.4832 2381.24,-86.5453 2377.92,-96.6044 2384.92,-96.4832"/>
</g>
<!-- Node27&#45;&gt;Node22 -->
<g id="edge42" class="edge"><title>Node27&#45;&gt;Node22</title>
<path fill="none" stroke="midnightblue" d="M2329.44,-179.444C2261.52,-168.592 2145.94,-150.127 2085.13,-140.411"/>
<polygon fill="midnightblue" stroke="midnightblue" points="2085.57,-136.938 2075.15,-138.816 2084.47,-143.85 2085.57,-136.938"/>
</g>
<!-- Node27&#45;&gt;Node26 -->
<g id="edge44" class="edge"><title>Node27&#45;&gt;Node26</title>
<path fill="none" stroke="midnightblue" d="M2400.77,-198.655C2414.51,-206.835 2433.05,-219.277 2446.26,-229.061"/>
<polygon fill="midnightblue" stroke="midnightblue" points="2444.36,-232.015 2454.42,-235.324 2448.62,-226.461 2444.36,-232.015"/>
</g>
<!-- Node28&#45;&gt;Node7 -->
<g id="edge50" class="edge"><title>Node28&#45;&gt;Node7</title>
<path fill="none" stroke="midnightblue" d="M1857.05,-235.476C1854.05,-212.835 1842.51,-151.008 1804,-123 1738.38,-75.2781 1494.48,-71.0912 1385.36,-71.7014"/>
<polygon fill="midnightblue" stroke="midnightblue" points="1385.21,-68.2023 1375.24,-71.7742 1385.26,-75.2022 1385.21,-68.2023"/>
</g>
<!-- Node28&#45;&gt;Node8 -->
<g id="edge49" class="edge"><title>Node28&#45;&gt;Node8</title>
<path fill="none" stroke="midnightblue" d="M1872.02,-235.323C1894.5,-221.719 1940.33,-195.249 1982,-179 2092.18,-136.034 2226.02,-104.223 2307.29,-87.0288"/>
<polygon fill="midnightblue" stroke="midnightblue" points="2308.36,-90.3816 2317.42,-84.9031 2306.92,-83.5307 2308.36,-90.3816"/>
</g>
<!-- Node28&#45;&gt;Node12 -->
<g id="edge51" class="edge"><title>Node28&#45;&gt;Node12</title>
<path fill="none" stroke="midnightblue" d="M1816.33,-235.439C1715.97,-214.927 1452.77,-161.799 1232,-123 1134.12,-105.797 1018.86,-88.2073 957.203,-79.013"/>
<polygon fill="midnightblue" stroke="midnightblue" points="957.461,-75.513 947.055,-77.5033 956.431,-82.4368 957.461,-75.513"/>
</g>
<!-- Node28&#45;&gt;Node13 -->
<g id="edge52" class="edge"><title>Node28&#45;&gt;Node13</title>
<path fill="none" stroke="midnightblue" d="M1881.76,-235.373C1905.35,-226.668 1942.46,-212.604 1974,-199 1992.98,-190.811 1996.01,-184.261 2016,-179 2236.61,-120.949 2306.02,-195.559 2528,-143 2550.49,-137.675 2553.74,-129.204 2576,-123 2685.4,-92.5133 2820.23,-79.3519 2880.83,-74.6755"/>
<polygon fill="midnightblue" stroke="midnightblue" points="2881.21,-78.1571 2890.93,-73.923 2880.69,-71.1764 2881.21,-78.1571"/>
</g>
<!-- Node34&#45;&gt;Node6 -->
<g id="edge72" class="edge"><title>Node34&#45;&gt;Node6</title>
<path fill="none" stroke="midnightblue" d="M1774.46,-537.338C1776.44,-496.517 1782.82,-319.464 1753,-179 1751.05,-169.809 1747.53,-160.006 1744.2,-151.904"/>
<polygon fill="midnightblue" stroke="midnightblue" points="1747.4,-150.501 1740.21,-142.724 1740.98,-153.29 1747.4,-150.501"/>
</g>
<!-- Node34&#45;&gt;Node8 -->
<g id="edge71" class="edge"><title>Node34&#45;&gt;Node8</title>
<path fill="none" stroke="midnightblue" d="M1833.51,-544.485C1942.44,-541.023 2169.37,-530.422 2242,-501 2323.19,-468.11 2512.02,-333.936 2550,-255 2584.3,-183.711 2482.96,-120.993 2422.55,-91.0871"/>
<polygon fill="midnightblue" stroke="midnightblue" points="2423.76,-87.7834 2413.23,-86.5727 2420.71,-94.0829 2423.76,-87.7834"/>
</g>
<!-- Node34&#45;&gt;Node12 -->
<g id="edge105" class="edge"><title>Node34&#45;&gt;Node12</title>
<path fill="none" stroke="midnightblue" d="M1714.5,-545.403C1612.56,-543.438 1398.34,-535.192 1221,-501 1039.2,-465.949 987.169,-463.595 823,-378 739.017,-334.213 619.977,-318.327 665,-235 709.874,-151.947 817.725,-104.495 875.295,-84.2582"/>
<polygon fill="midnightblue" stroke="midnightblue" points="876.433,-87.5682 884.76,-81.0176 874.165,-80.9456 876.433,-87.5682"/>
</g>
<!-- Node34&#45;&gt;Node13 -->
<g id="edge104" class="edge"><title>Node34&#45;&gt;Node13</title>
<path fill="none" stroke="midnightblue" d="M1833.82,-543.335C1949.83,-537.74 2201.34,-523.403 2285,-501 2373.55,-477.289 2384.74,-442.082 2472,-414 2553.81,-387.67 2581.36,-407.729 2662,-378 2756.74,-343.075 2791.06,-334.739 2853,-255 2892.34,-204.358 2906.43,-126.843 2911.01,-91.3861"/>
<polygon fill="midnightblue" stroke="midnightblue" points="2914.53,-91.4133 2912.22,-81.0733 2907.58,-90.5969 2914.53,-91.4133"/>
</g>
<!-- Node34&#45;&gt;Node18 -->
<g id="edge73" class="edge"><title>Node34&#45;&gt;Node18</title>
<path fill="none" stroke="midnightblue" d="M1714.28,-543.15C1613.07,-537.751 1412.41,-524.424 1346,-501 1322.05,-492.552 1321.01,-480.752 1298,-470 1249.1,-447.145 1230.33,-458.052 1182,-434 1071.6,-379.056 1019.62,-367.894 970,-255 966.424,-246.862 964.656,-242.103 970,-235 981.434,-219.802 1024.16,-208.123 1062.01,-200.476"/>
<polygon fill="midnightblue" stroke="midnightblue" points="1062.87,-203.874 1072.01,-198.523 1061.53,-197.004 1062.87,-203.874"/>
</g>
<!-- Node34&#45;&gt;Node20 -->
<g id="edge74" class="edge"><title>Node34&#45;&gt;Node20</title>
<path fill="none" stroke="midnightblue" d="M1767,-537.325C1742.42,-507.458 1656.45,-407.978 1563,-358 1532.94,-341.926 1496.98,-330.1 1466.49,-321.951"/>
<polygon fill="midnightblue" stroke="midnightblue" points="1467.36,-318.56 1456.8,-319.433 1465.6,-325.335 1467.36,-318.56"/>
</g>
<!-- Node34&#45;&gt;Node24 -->
<g id="edge103" class="edge"><title>Node34&#45;&gt;Node24</title>
<path fill="none" stroke="midnightblue" d="M1818.65,-537.499C1890.69,-521.087 2030.31,-477.476 2088,-378 2120.75,-321.536 2080.1,-241.597 2059.09,-207.024"/>
<polygon fill="midnightblue" stroke="midnightblue" points="2062.05,-205.145 2053.77,-198.532 2056.12,-208.864 2062.05,-205.145"/>
</g>
<!-- Node34&#45;&gt;Node26 -->
<g id="edge75" class="edge"><title>Node34&#45;&gt;Node26</title>
<path fill="none" stroke="midnightblue" d="M1833.63,-544.67C1970.59,-540.002 2296,-519.016 2296,-425 2296,-425 2296,-425 2296,-367 2296,-306.777 2368.23,-273.355 2417.4,-257.581"/>
<polygon fill="midnightblue" stroke="midnightblue" points="2418.67,-260.851 2427.2,-254.569 2416.61,-254.16 2418.67,-260.851"/>
</g>
<!-- Node34&#45;&gt;Node28 -->
<g id="edge76" class="edge"><title>Node34&#45;&gt;Node28</title>
<path fill="none" stroke="midnightblue" d="M1802.42,-537.411C1819.9,-530.535 1840.99,-519.005 1852,-501 1898.86,-424.381 1875.24,-309.115 1863.4,-264.526"/>
<polygon fill="midnightblue" stroke="midnightblue" points="1866.74,-263.479 1860.69,-254.779 1860,-265.351 1866.74,-263.479"/>
</g>
<!-- Node34&#45;&gt;Node35 -->
<g id="edge77" class="edge"><title>Node34&#45;&gt;Node35</title>
<path fill="none" stroke="midnightblue" d="M1749.36,-537.475C1724.1,-528.739 1684.12,-514.907 1652.17,-503.855"/>
<polygon fill="midnightblue" stroke="midnightblue" points="1653.13,-500.485 1642.54,-500.523 1650.84,-507.1 1653.13,-500.485"/>
</g>
<!-- Node34&#45;&gt;Node38 -->
<g id="edge97" class="edge"><title>Node34&#45;&gt;Node38</title>
<path fill="none" stroke="midnightblue" d="M1721.85,-537.475C1657.02,-526.878 1546.33,-508.784 1475.75,-497.247"/>
<polygon fill="midnightblue" stroke="midnightblue" points="1476.07,-493.754 1465.64,-495.594 1474.94,-500.662 1476.07,-493.754"/>
</g>
<!-- Node35&#45;&gt;Node13 -->
<g id="edge96" class="edge"><title>Node35&#45;&gt;Node13</title>
<path fill="none" stroke="midnightblue" d="M1657.5,-480.1C1857.25,-464.077 2532.6,-408.199 2625,-378 2696.07,-354.77 2705.11,-329.847 2769,-291 2796.56,-274.246 2811.22,-279.661 2832,-255 2872.23,-207.263 2852.07,-178.831 2880,-123 2885.89,-111.217 2893.96,-98.8197 2900.65,-89.2575"/>
<polygon fill="midnightblue" stroke="midnightblue" points="2903.53,-91.2376 2906.52,-81.0708 2897.85,-87.1597 2903.53,-91.2376"/>
</g>
<!-- Node35&#45;&gt;Node28 -->
<g id="edge78" class="edge"><title>Node35&#45;&gt;Node28</title>
<path fill="none" stroke="midnightblue" d="M1655.45,-470.389C1703.31,-455.13 1772.22,-426.27 1814,-378 1842.64,-344.92 1852.78,-292.572 1856.26,-264.781"/>
<polygon fill="midnightblue" stroke="midnightblue" points="1859.77,-264.822 1857.38,-254.501 1852.82,-264.064 1859.77,-264.822"/>
</g>
<!-- Node36 -->
<g id="node36" class="node"><title>Node36</title>
<g id="a_node36"><a xlink:href="functor_8h.html" target="_top" xlink:title="Defines the Functor data structures. ">
<polygon fill="white" stroke="black" points="772.5,-235.5 772.5,-254.5 879.5,-254.5 879.5,-235.5 772.5,-235.5"/>
<text text-anchor="middle" x="826" y="-242.5" font-family="Helvetica,sans-Serif" font-size="10.00">tvm/node/functor.h</text>
</a>
</g>
</g>
<!-- Node35&#45;&gt;Node36 -->
<g id="edge79" class="edge"><title>Node35&#45;&gt;Node36</title>
<path fill="none" stroke="midnightblue" d="M1546.33,-475.762C1490.75,-466.682 1403.04,-451.384 1328,-434 1238.07,-413.169 1214.95,-409.004 1128,-378 1023.7,-340.806 904.504,-284.411 852.542,-259.101"/>
<polygon fill="midnightblue" stroke="midnightblue" points="853.876,-255.857 843.355,-254.608 850.801,-262.146 853.876,-255.857"/>
</g>
<!-- Node35&#45;&gt;Node37 -->
<g id="edge85" class="edge"><title>Node35&#45;&gt;Node37</title>
<path fill="none" stroke="midnightblue" d="M1553.68,-470.475C1517.85,-460.075 1469.62,-446.078 1436.18,-436.372"/>
<polygon fill="midnightblue" stroke="midnightblue" points="1436.89,-432.933 1426.31,-433.506 1434.94,-439.655 1436.89,-432.933"/>
</g>
<!-- Node36&#45;&gt;Node6 -->
<g id="edge81" class="edge"><title>Node36&#45;&gt;Node6</title>
<path fill="none" stroke="midnightblue" d="M849.469,-235.475C890.242,-221.076 977.074,-192.216 1053,-179 1275.34,-140.3 1543.67,-134.254 1667.4,-133.711"/>
<polygon fill="midnightblue" stroke="midnightblue" points="1667.5,-137.211 1677.49,-133.678 1667.47,-130.211 1667.5,-137.211"/>
</g>
<!-- Node36&#45;&gt;Node7 -->
<g id="edge80" class="edge"><title>Node36&#45;&gt;Node7</title>
<path fill="none" stroke="midnightblue" d="M844.665,-235.297C871.622,-222.749 923.045,-198.898 967,-179 1022.83,-153.727 1034.7,-141.883 1093,-123 1155.53,-102.748 1229.94,-88.509 1278.93,-80.4246"/>
<polygon fill="midnightblue" stroke="midnightblue" points="1279.67,-83.8496 1288.98,-78.7929 1278.55,-76.94 1279.67,-83.8496"/>
</g>
<!-- Node36&#45;&gt;Node12 -->
<g id="edge83" class="edge"><title>Node36&#45;&gt;Node12</title>
<path fill="none" stroke="midnightblue" d="M830.434,-235.26C844.049,-208.421 885.445,-126.818 903.924,-90.3903"/>
<polygon fill="midnightblue" stroke="midnightblue" points="907.275,-91.5209 908.678,-81.0194 901.033,-88.3541 907.275,-91.5209"/>
</g>
<!-- Node36&#45;&gt;Node14 -->
<g id="edge84" class="edge"><title>Node36&#45;&gt;Node14</title>
<path fill="none" stroke="midnightblue" d="M822.328,-235.337C812.613,-213.41 784.134,-155.173 743,-123 712.104,-98.8344 668.429,-85.3289 639.209,-78.4892"/>
<polygon fill="midnightblue" stroke="midnightblue" points="639.668,-75.0061 629.148,-76.2634 638.156,-81.8409 639.668,-75.0061"/>
</g>
<!-- Node36&#45;&gt;Node24 -->
<g id="edge82" class="edge"><title>Node36&#45;&gt;Node24</title>
<path fill="none" stroke="midnightblue" d="M879.83,-241.154C914.902,-239.327 961.661,-236.941 1003,-235 1400.85,-216.319 1884.06,-196.616 2014.31,-191.355"/>
<polygon fill="midnightblue" stroke="midnightblue" points="2014.6,-194.847 2024.45,-190.946 2014.32,-187.852 2014.6,-194.847"/>
</g>
<!-- Node37&#45;&gt;Node6 -->
<g id="edge86" class="edge"><title>Node37&#45;&gt;Node6</title>
<path fill="none" stroke="midnightblue" d="M1456.8,-422.642C1528.96,-418.61 1647.73,-399.681 1705,-322 1743.08,-270.345 1741.25,-189.012 1738.13,-152.649"/>
<polygon fill="midnightblue" stroke="midnightblue" points="1741.59,-152.12 1737.12,-142.517 1734.63,-152.815 1741.59,-152.12"/>
</g>
<!-- Node37&#45;&gt;Node12 -->
<g id="edge90" class="edge"><title>Node37&#45;&gt;Node12</title>
<path fill="none" stroke="midnightblue" d="M1369.9,-414.421C1346.26,-406.447 1311.39,-393.486 1283,-378 1187.39,-325.85 1174.76,-295.197 1084,-235 1058.4,-218.022 1048.88,-218.325 1025,-199 983.37,-165.309 944.152,-115.33 925.081,-89.4337"/>
<polygon fill="midnightblue" stroke="midnightblue" points="927.706,-87.0928 918.999,-81.0572 922.042,-91.2056 927.706,-87.0928"/>
</g>
<!-- Node37&#45;&gt;Node13 -->
<g id="edge95" class="edge"><title>Node37&#45;&gt;Node13</title>
<path fill="none" stroke="midnightblue" d="M1456.75,-420.643C1576.66,-415.574 1855.12,-402.098 2088,-378 2263.93,-359.795 2310.35,-364.638 2482,-322 2567.28,-300.818 2593.47,-301.533 2668,-255 2739.45,-210.391 2734.58,-170.712 2804,-123 2828.25,-106.329 2858.89,-92.6925 2881.5,-83.8104"/>
<polygon fill="midnightblue" stroke="midnightblue" points="2882.88,-87.0306 2890.97,-80.1852 2880.38,-80.4937 2882.88,-87.0306"/>
</g>
<!-- Node37&#45;&gt;Node14 -->
<g id="edge94" class="edge"><title>Node37&#45;&gt;Node14</title>
<path fill="none" stroke="midnightblue" d="M1337.32,-419.233C1143.87,-405.581 540.72,-351.224 439,-199 399.334,-139.639 517.895,-97.3702 576.845,-80.5538"/>
<polygon fill="midnightblue" stroke="midnightblue" points="578.07,-83.8462 586.772,-77.8018 576.2,-77.1006 578.07,-83.8462"/>
</g>
<!-- Node37&#45;&gt;Node17 -->
<g id="edge89" class="edge"><title>Node37&#45;&gt;Node17</title>
<path fill="none" stroke="midnightblue" d="M1411.62,-414.324C1425.95,-405.822 1448.01,-392.729 1464.75,-382.797"/>
<polygon fill="midnightblue" stroke="midnightblue" points="1466.6,-385.768 1473.42,-377.655 1463.03,-379.748 1466.6,-385.768"/>
</g>
<!-- Node37&#45;&gt;Node18 -->
<g id="edge87" class="edge"><title>Node37&#45;&gt;Node18</title>
<path fill="none" stroke="midnightblue" d="M1380.22,-414.416C1350.1,-398.565 1285.68,-362.591 1239,-322 1197.26,-285.699 1157.33,-233.673 1138.04,-207.077"/>
<polygon fill="midnightblue" stroke="midnightblue" points="1140.78,-204.888 1132.11,-198.797 1135.09,-208.965 1140.78,-204.888"/>
</g>
<!-- Node37&#45;&gt;Node20 -->
<g id="edge88" class="edge"><title>Node37&#45;&gt;Node20</title>
<path fill="none" stroke="midnightblue" d="M1397.23,-414.319C1397.68,-396.967 1398.7,-357.457 1399.37,-331.658"/>
<polygon fill="midnightblue" stroke="midnightblue" points="1402.87,-331.633 1399.64,-321.545 1395.88,-331.451 1402.87,-331.633"/>
</g>
<!-- Node37&#45;&gt;Node24 -->
<g id="edge91" class="edge"><title>Node37&#45;&gt;Node24</title>
<path fill="none" stroke="midnightblue" d="M1456.51,-420.112C1619.64,-412.058 2062.52,-389.206 2073,-378 2087.87,-362.106 2054.79,-324.887 2054,-322 2043.35,-282.839 2044.55,-234.767 2046.31,-208.8"/>
<polygon fill="midnightblue" stroke="midnightblue" points="2049.83,-208.78 2047.12,-198.537 2042.85,-208.231 2049.83,-208.78"/>
</g>
<!-- Node37&#45;&gt;Node25 -->
<g id="edge93" class="edge"><title>Node37&#45;&gt;Node25</title>
<path fill="none" stroke="midnightblue" d="M1337.98,-414.471C1283.32,-406.252 1199.86,-392.898 1128,-378 1100.2,-372.237 658.736,-264.549 632,-255 591.372,-240.489 546.62,-217.921 519.672,-203.557"/>
<polygon fill="midnightblue" stroke="midnightblue" points="521.054,-200.326 510.59,-198.666 517.735,-206.489 521.054,-200.326"/>
</g>
<!-- Node37&#45;&gt;Node33 -->
<g id="edge92" class="edge"><title>Node37&#45;&gt;Node33</title>
<path fill="none" stroke="midnightblue" d="M1447.8,-414.426C1481.61,-407.486 1526.37,-395.879 1563,-378 1592.62,-363.543 1622.29,-339.254 1640.15,-323.301"/>
<polygon fill="midnightblue" stroke="midnightblue" points="1642.89,-325.543 1647.92,-316.219 1638.17,-320.37 1642.89,-325.543"/>
</g>
<!-- Node38&#45;&gt;Node13 -->
<g id="edge101" class="edge"><title>Node38&#45;&gt;Node13</title>
<path fill="none" stroke="midnightblue" d="M1465.62,-477.661C1680.37,-451.111 2448.7,-354.729 2554,-322 2668.46,-286.425 2699.71,-272.994 2794,-199 2805.59,-189.901 2868.9,-120.906 2898.16,-88.8183"/>
<polygon fill="midnightblue" stroke="midnightblue" points="2900.98,-90.9189 2905.12,-81.1691 2895.8,-86.2051 2900.98,-90.9189"/>
</g>
<!-- Node38&#45;&gt;Node28 -->
<g id="edge98" class="edge"><title>Node38&#45;&gt;Node28</title>
<path fill="none" stroke="midnightblue" d="M1454.25,-470.455C1542.36,-442.448 1731.83,-381.984 1738,-378 1786.38,-346.75 1827.8,-291.24 1846.84,-263.211"/>
<polygon fill="midnightblue" stroke="midnightblue" points="1849.79,-265.098 1852.41,-254.834 1843.96,-261.219 1849.79,-265.098"/>
</g>
<!-- Node38&#45;&gt;Node29 -->
<g id="edge102" class="edge"><title>Node38&#45;&gt;Node29</title>
<path fill="none" stroke="midnightblue" d="M1354.41,-474.03C1293.64,-460.348 1195.9,-431.557 1128,-378 1088.85,-347.123 1062.66,-292.664 1050.97,-264.313"/>
<polygon fill="midnightblue" stroke="midnightblue" points="1054.15,-262.831 1047.2,-254.829 1047.64,-265.415 1054.15,-262.831"/>
</g>
<!-- Node38&#45;&gt;Node36 -->
<g id="edge99" class="edge"><title>Node38&#45;&gt;Node36</title>
<path fill="none" stroke="midnightblue" d="M1354.38,-474.93C1270.66,-459.624 1108.04,-426.354 976,-378 920.734,-357.762 896.335,-364.86 856,-322 840.992,-306.053 833.175,-281.702 829.334,-264.882"/>
<polygon fill="midnightblue" stroke="midnightblue" points="832.676,-263.748 827.271,-254.636 825.814,-265.13 832.676,-263.748"/>
</g>
<!-- Node38&#45;&gt;Node37 -->
<g id="edge100" class="edge"><title>Node38&#45;&gt;Node37</title>
<path fill="none" stroke="midnightblue" d="M1406.92,-470.399C1405.17,-462.377 1402.95,-452.233 1401.06,-443.569"/>
<polygon fill="midnightblue" stroke="midnightblue" points="1404.45,-442.68 1398.89,-433.658 1397.61,-444.174 1404.45,-442.68"/>
</g>
<!-- Node39&#45;&gt;Node36 -->
<g id="edge107" class="edge"><title>Node39&#45;&gt;Node36</title>
<path fill="none" stroke="midnightblue" d="M1230.46,-537.46C1122.83,-521.932 913.401,-485.82 862,-434 816.189,-387.815 819.388,-302.339 823.431,-264.664"/>
<polygon fill="midnightblue" stroke="midnightblue" points="826.922,-264.953 824.66,-254.603 819.973,-264.105 826.922,-264.953"/>
</g>
<!-- Node40 -->
<g id="node40" class="node"><title>Node40</title>
<polygon fill="white" stroke="#bfbfbf" points="1230.5,-476 1230.5,-495 1289.5,-495 1289.5,-476 1230.5,-476"/>
<text text-anchor="middle" x="1260" y="-483" font-family="Helvetica,sans-Serif" font-size="10.00">iostream</text>
</g>
<!-- Node39&#45;&gt;Node40 -->
<g id="edge108" class="edge"><title>Node39&#45;&gt;Node40</title>
<path fill="none" stroke="midnightblue" d="M1289.99,-537.475C1284.84,-528.727 1276.69,-514.869 1270.18,-503.809"/>
<polygon fill="midnightblue" stroke="midnightblue" points="1273.09,-501.854 1265.01,-495.009 1267.06,-505.403 1273.09,-501.854"/>
</g>
<!-- Node41&#45;&gt;Node6 -->
<g id="edge118" class="edge"><title>Node41&#45;&gt;Node6</title>
<path fill="none" stroke="midnightblue" d="M2606.95,-649.458C2604.79,-630.982 2600,-585.912 2600,-548 2600,-548 2600,-548 2600,-484.5 2600,-451.401 2597.77,-438.936 2576,-414 2571.2,-408.502 2112.99,-181.103 2106,-179 2004.06,-148.321 1880.34,-138.488 1804.93,-135.379"/>
<polygon fill="midnightblue" stroke="midnightblue" points="1804.75,-131.869 1794.62,-134.984 1804.48,-138.864 1804.75,-131.869"/>
</g>
<!-- Node41&#45;&gt;Node13 -->
<g id="edge120" class="edge"><title>Node41&#45;&gt;Node13</title>
<path fill="none" stroke="midnightblue" d="M2620.73,-649.415C2675.8,-611.369 2893.8,-451.152 2962,-255 2981.27,-199.587 2988.75,-175.212 2962,-123 2954.97,-109.274 2942.95,-96.8043 2932.58,-87.6899"/>
<polygon fill="midnightblue" stroke="midnightblue" points="2934.66,-84.8662 2924.74,-81.1399 2930.17,-90.2378 2934.66,-84.8662"/>
</g>
<!-- Node41&#45;&gt;Node16 -->
<g id="edge119" class="edge"><title>Node41&#45;&gt;Node16</title>
<path fill="none" stroke="midnightblue" d="M2567.97,-650.809C2563.27,-650.119 2558.54,-649.494 2554,-649 2251.06,-616.01 1885.92,-607.065 1745.23,-604.759"/>
<polygon fill="midnightblue" stroke="midnightblue" points="1745.15,-601.257 1735.1,-604.598 1745.04,-608.257 1745.15,-601.257"/>
</g>
<!-- Node42&#45;&gt;Node6 -->
<g id="edge122" class="edge"><title>Node42&#45;&gt;Node6</title>
<path fill="none" stroke="midnightblue" d="M2749.51,-705.305C2738.11,-666.73 2687.46,-508.786 2597,-414 2557.58,-372.694 2194.96,-194.482 2140,-179 2025.35,-146.703 1886.27,-137.433 1804.8,-134.864"/>
<polygon fill="midnightblue" stroke="midnightblue" points="1804.77,-131.362 1794.68,-134.57 1804.57,-138.359 1804.77,-131.362"/>
</g>
<!-- Node42&#45;&gt;Node13 -->
<g id="edge127" class="edge"><title>Node42&#45;&gt;Node13</title>
<path fill="none" stroke="midnightblue" d="M2766.6,-705.383C2820.55,-673.26 3007.3,-559.342 3043,-501 3102.92,-403.091 3084,-360.789 3084,-246 3084,-246 3084,-246 3084,-188 3084,-157.205 3082.02,-144.526 3060,-123 3028.74,-92.4484 2978.19,-80.3412 2945.28,-75.5689"/>
<polygon fill="midnightblue" stroke="midnightblue" points="2945.62,-72.0847 2935.26,-74.2631 2944.72,-79.026 2945.62,-72.0847"/>
</g>
<!-- Node42&#45;&gt;Node16 -->
<g id="edge124" class="edge"><title>Node42&#45;&gt;Node16</title>
<path fill="none" stroke="midnightblue" d="M2713.43,-710.02C2553.18,-693.484 1939.28,-630.136 1745.19,-610.108"/>
<polygon fill="midnightblue" stroke="midnightblue" points="1745.49,-606.62 1735.18,-609.075 1744.77,-613.583 1745.49,-606.62"/>
</g>
<!-- Node42&#45;&gt;Node28 -->
<g id="edge123" class="edge"><title>Node42&#45;&gt;Node28</title>
<path fill="none" stroke="midnightblue" d="M2741.45,-705.435C2724.5,-691.985 2689.75,-665.721 2657,-649 2351,-492.762 2189.93,-606.111 1933,-378 1900.14,-348.822 1908.06,-329.008 1886,-291 1880.56,-281.633 1874.21,-271.367 1868.93,-263.009"/>
<polygon fill="midnightblue" stroke="midnightblue" points="1871.85,-261.086 1863.53,-254.532 1865.95,-264.846 1871.85,-261.086"/>
</g>
<!-- Node42&#45;&gt;Node37 -->
<g id="edge125" class="edge"><title>Node42&#45;&gt;Node37</title>
<path fill="none" stroke="midnightblue" d="M2713.45,-711.511C2614.61,-705.075 2344.13,-687.119 2119,-669 1841.89,-646.698 1769.75,-661.437 1496,-613 1462.03,-606.989 1454.67,-600.507 1421,-593 1376.92,-583.174 1249.97,-591.645 1221,-557 1196.2,-527.335 1197.29,-500.541 1221,-470 1234.28,-452.898 1283.94,-441.196 1327.14,-434.022"/>
<polygon fill="midnightblue" stroke="midnightblue" points="1327.78,-437.464 1337.1,-432.427 1326.67,-430.553 1327.78,-437.464"/>
</g>
<!-- Node42&#45;&gt;Node41 -->
<g id="edge126" class="edge"><title>Node42&#45;&gt;Node41</title>
<path fill="none" stroke="midnightblue" d="M2729.18,-705.444C2705.17,-696.438 2667.17,-682.189 2640.13,-672.049"/>
<polygon fill="midnightblue" stroke="midnightblue" points="2641.3,-668.751 2630.71,-668.516 2638.84,-675.305 2641.3,-668.751"/>
</g>
<!-- Node44&#45;&gt;Node13 -->
<g id="edge143" class="edge"><title>Node44&#45;&gt;Node13</title>
<path fill="none" stroke="midnightblue" d="M2064.03,-361.838C2204.16,-349.115 2544.39,-313.004 2642,-255 2706.44,-216.705 2685.01,-165.147 2747,-123 2788.09,-95.0657 2845.14,-82.164 2880.53,-76.5199"/>
<polygon fill="midnightblue" stroke="midnightblue" points="2881.4,-79.9289 2890.77,-74.9927 2880.37,-73.0054 2881.4,-79.9289"/>
</g>
<!-- Node44&#45;&gt;Node14 -->
<g id="edge145" class="edge"><title>Node44&#45;&gt;Node14</title>
<path fill="none" stroke="midnightblue" d="M1941.98,-363.807C1686.7,-350.203 715.197,-295.915 665,-255 639.192,-233.965 618.83,-133.83 611.226,-91.4813"/>
<polygon fill="midnightblue" stroke="midnightblue" points="614.633,-90.6432 609.462,-81.3958 607.738,-91.8493 614.633,-90.6432"/>
</g>
<!-- Node44&#45;&gt;Node20 -->
<g id="edge142" class="edge"><title>Node44&#45;&gt;Node20</title>
<path fill="none" stroke="midnightblue" d="M1941.98,-361.1C1853.88,-352.565 1685.93,-336.237 1543,-322 1518.12,-319.522 1490.82,-316.763 1466.79,-314.322"/>
<polygon fill="midnightblue" stroke="midnightblue" points="1467.01,-310.827 1456.71,-313.297 1466.31,-317.791 1467.01,-310.827"/>
</g>
<!-- Node44&#45;&gt;Node24 -->
<g id="edge144" class="edge"><title>Node44&#45;&gt;Node24</title>
<path fill="none" stroke="midnightblue" d="M2002.35,-358.319C2001.05,-336.694 1999.53,-278.995 2016,-235 2019.85,-224.714 2026.66,-214.623 2033.02,-206.611"/>
<polygon fill="midnightblue" stroke="midnightblue" points="2035.81,-208.729 2039.57,-198.824 2030.45,-204.223 2035.81,-208.729"/>
</g>
<!-- Node45&#45;&gt;Node3 -->
<g id="edge173" class="edge"><title>Node45&#45;&gt;Node3</title>
<path fill="none" stroke="midnightblue" d="M1535.67,-985.482C1389.08,-957.319 920.598,-867.309 766.016,-837.61"/>
<polygon fill="midnightblue" stroke="midnightblue" points="766.346,-834.109 755.865,-835.659 765.025,-840.983 766.346,-834.109"/>
</g>
<!-- Node45&#45;&gt;Node42 -->
<g id="edge149" class="edge"><title>Node45&#45;&gt;Node42</title>
<path fill="none" stroke="midnightblue" d="M1639.9,-992.206C1898.22,-984.084 2904,-948.331 2904,-884 2904,-884 2904,-884 2904,-826 2904,-772.437 2841.29,-742.3 2796.43,-727.593"/>
<polygon fill="midnightblue" stroke="midnightblue" points="2797.46,-724.25 2786.87,-724.602 2795.37,-730.93 2797.46,-724.25"/>
</g>
<!-- Node46 -->
<g id="node46" class="node"><title>Node46</title>
<g id="a_node46"><a xlink:href="ir_2module_8h.html" target="_top" xlink:title="IRModule that holds the functions and type definitions. ">
<polygon fill="white" stroke="black" points="1663,-929.5 1663,-948.5 1755,-948.5 1755,-929.5 1663,-929.5"/>
<text text-anchor="middle" x="1709" y="-936.5" font-family="Helvetica,sans-Serif" font-size="10.00">tvm/ir/module.h</text>
</a>
</g>
</g>
<!-- Node45&#45;&gt;Node46 -->
<g id="edge150" class="edge"><title>Node45&#45;&gt;Node46</title>
<path fill="none" stroke="midnightblue" d="M1600.44,-985.444C1621.67,-976.557 1655.1,-962.563 1679.25,-952.451"/>
<polygon fill="midnightblue" stroke="midnightblue" points="1680.78,-955.606 1688.66,-948.516 1678.08,-949.149 1680.78,-955.606"/>
</g>
<!-- Node50 -->
<g id="node50" class="node"><title>Node50</title>
<g id="a_node50"><a xlink:href="env__func_8h.html" target="_top" xlink:title="Serializable global function used in IR. ">
<polygon fill="white" stroke="black" points="1504.5,-593.5 1504.5,-612.5 1603.5,-612.5 1603.5,-593.5 1504.5,-593.5"/>
<text text-anchor="middle" x="1554" y="-600.5" font-family="Helvetica,sans-Serif" font-size="10.00">tvm/ir/env_func.h</text>
</a>
</g>
</g>
<!-- Node45&#45;&gt;Node50 -->
<g id="edge169" class="edge"><title>Node45&#45;&gt;Node50</title>
<path fill="none" stroke="midnightblue" d="M1540.37,-985.468C1492.41,-972.542 1418,-942.983 1418,-884 1418,-884 1418,-884 1418,-714 1418,-663.081 1476.34,-631.674 1516.6,-616.063"/>
<polygon fill="midnightblue" stroke="midnightblue" points="1517.99,-619.281 1526.15,-612.522 1515.56,-612.718 1517.99,-619.281"/>
</g>
<!-- Node46&#45;&gt;Node5 -->
<g id="edge152" class="edge"><title>Node46&#45;&gt;Node5</title>
<path fill="none" stroke="midnightblue" d="M1696.91,-929.268C1685.72,-920.809 1669.04,-907.207 1657,-893 1628.72,-859.636 1604.06,-814.319 1591.61,-789.698"/>
<polygon fill="midnightblue" stroke="midnightblue" points="1594.63,-787.909 1587.05,-780.508 1588.36,-791.022 1594.63,-787.909"/>
</g>
<!-- Node46&#45;&gt;Node13 -->
<g id="edge165" class="edge"><title>Node46&#45;&gt;Node13</title>
<path fill="none" stroke="midnightblue" d="M1755.07,-937.349C1907.97,-934.905 2397.67,-924.734 2552,-893 2912.8,-818.808 3236,-793.348 3236,-425 3236,-425 3236,-425 3236,-188 3236,-151.004 3215.73,-142.025 3184,-123 3144.04,-99.0363 3008.06,-82.3089 2945.27,-75.6751"/>
<polygon fill="midnightblue" stroke="midnightblue" points="2945.44,-72.1748 2935.14,-74.6257 2944.72,-79.1375 2945.44,-72.1748"/>
</g>
<!-- Node46&#45;&gt;Node24 -->
<g id="edge166" class="edge"><title>Node46&#45;&gt;Node24</title>
<path fill="none" stroke="midnightblue" d="M1755.06,-936.498C1924.31,-930.377 2502,-903.924 2502,-828 2502,-828 2502,-828 2502,-714 2502,-484.031 2361.26,-458.791 2204,-291 2177.46,-262.684 2169.42,-256.339 2137,-235 2118.09,-222.55 2095.27,-211.076 2077.47,-202.83"/>
<polygon fill="midnightblue" stroke="midnightblue" points="2078.71,-199.549 2068.16,-198.596 2075.82,-205.921 2078.71,-199.549"/>
</g>
<!-- Node46&#45;&gt;Node25 -->
<g id="edge167" class="edge"><title>Node46&#45;&gt;Node25</title>
<path fill="none" stroke="midnightblue" d="M1662.64,-937.041C1411.78,-931.556 228,-901.762 228,-828 228,-828 228,-828 228,-714 228,-599.686 432.281,-284.441 483.474,-207.235"/>
<polygon fill="midnightblue" stroke="midnightblue" points="486.548,-208.933 489.175,-198.669 480.721,-205.055 486.548,-208.933"/>
</g>
<!-- Node46&#45;&gt;Node42 -->
<g id="edge151" class="edge"><title>Node46&#45;&gt;Node42</title>
<path fill="none" stroke="midnightblue" d="M1755.06,-936.988C1915.58,-933.245 2444.56,-919.045 2516,-893 2612.63,-857.772 2702.88,-768.9 2737.3,-732.219"/>
<polygon fill="midnightblue" stroke="midnightblue" points="2739.9,-734.555 2744.13,-724.838 2734.77,-729.801 2739.9,-734.555"/>
</g>
<!-- Node47 -->
<g id="node47" class="node"><title>Node47</title>
<g id="a_node47"><a xlink:href="ir_2function_8h.html" target="_top" xlink:title="Function nodes. ">
<polygon fill="white" stroke="black" points="1514.5,-873.5 1514.5,-892.5 1609.5,-892.5 1609.5,-873.5 1514.5,-873.5"/>
<text text-anchor="middle" x="1562" y="-880.5" font-family="Helvetica,sans-Serif" font-size="10.00">tvm/ir/function.h</text>
</a>
</g>
</g>
<!-- Node46&#45;&gt;Node47 -->
<g id="edge153" class="edge"><title>Node46&#45;&gt;Node47</title>
<path fill="none" stroke="midnightblue" d="M1685.71,-929.444C1661.19,-920.438 1622.4,-906.189 1594.8,-896.049"/>
<polygon fill="midnightblue" stroke="midnightblue" points="1595.78,-892.679 1585.18,-892.516 1593.36,-899.25 1595.78,-892.679"/>
</g>
<!-- Node48 -->
<g id="node48" class="node"><title>Node48</title>
<g id="a_node48"><a xlink:href="ir_2adt_8h.html" target="_top" xlink:title="Algebraic data type definitions. ">
<polygon fill="white" stroke="black" points="1744,-817.5 1744,-836.5 1816,-836.5 1816,-817.5 1744,-817.5"/>
<text text-anchor="middle" x="1780" y="-824.5" font-family="Helvetica,sans-Serif" font-size="10.00">tvm/ir/adt.h</text>
</a>
</g>
</g>
<!-- Node46&#45;&gt;Node48 -->
<g id="edge158" class="edge"><title>Node46&#45;&gt;Node48</title>
<path fill="none" stroke="midnightblue" d="M1722.92,-929.314C1734.7,-921.27 1751.19,-908.269 1761,-893 1770.03,-878.934 1774.89,-860.441 1777.43,-846.778"/>
<polygon fill="midnightblue" stroke="midnightblue" points="1780.93,-847.068 1779.05,-836.641 1774.02,-845.961 1780.93,-847.068"/>
</g>
<!-- Node49 -->
<g id="node49" class="node"><title>Node49</title>
<polygon fill="white" stroke="#bfbfbf" points="1666,-873.5 1666,-892.5 1752,-892.5 1752,-873.5 1666,-873.5"/>
<text text-anchor="middle" x="1709" y="-880.5" font-family="Helvetica,sans-Serif" font-size="10.00">unordered_set</text>
</g>
<!-- Node46&#45;&gt;Node49 -->
<g id="edge168" class="edge"><title>Node46&#45;&gt;Node49</title>
<path fill="none" stroke="midnightblue" d="M1709,-929.083C1709,-922.006 1709,-911.861 1709,-902.986"/>
<polygon fill="midnightblue" stroke="midnightblue" points="1712.5,-902.751 1709,-892.751 1705.5,-902.751 1712.5,-902.751"/>
</g>
<!-- Node47&#45;&gt;Node3 -->
<g id="edge155" class="edge"><title>Node47&#45;&gt;Node3</title>
<path fill="none" stroke="midnightblue" d="M1514.4,-878.962C1366.75,-869.537 917.434,-840.857 766.249,-831.207"/>
<polygon fill="midnightblue" stroke="midnightblue" points="766.09,-827.69 755.887,-830.546 765.644,-834.676 766.09,-827.69"/>
</g>
<!-- Node47&#45;&gt;Node5 -->
<g id="edge154" class="edge"><title>Node47&#45;&gt;Node5</title>
<path fill="none" stroke="midnightblue" d="M1563.65,-873.368C1567.04,-855.617 1574.85,-814.666 1579.45,-790.597"/>
<polygon fill="midnightblue" stroke="midnightblue" points="1582.92,-791.07 1581.36,-780.591 1576.05,-789.758 1582.92,-791.07"/>
</g>
<!-- Node47&#45;&gt;Node12 -->
<g id="edge156" class="edge"><title>Node47&#45;&gt;Node12</title>
<path fill="none" stroke="midnightblue" d="M1514.35,-881.1C1380.52,-878.249 989.923,-867.718 667,-837 449.268,-816.289 190,-934.715 190,-716 190,-716 190,-716 190,-305.5 190,-186.473 271.425,-155.246 386,-123 476.531,-97.5206 759.101,-80.5059 868.82,-74.7051"/>
<polygon fill="midnightblue" stroke="midnightblue" points="869.083,-78.1962 878.886,-74.1788 868.717,-71.2058 869.083,-78.1962"/>
</g>
<!-- Node47&#45;&gt;Node13 -->
<g id="edge157" class="edge"><title>Node47&#45;&gt;Node13</title>
<path fill="none" stroke="midnightblue" d="M1609.83,-877.363C1624.92,-875.929 1641.65,-874.367 1657,-873 2146.54,-829.378 2274.3,-862.344 2759,-781 2858.5,-764.301 2891.61,-775.426 2979,-725 3160.49,-620.278 3198,-517.034 3198,-307.5 3198,-307.5 3198,-307.5 3198,-188 3198,-154.079 3185.78,-142.466 3158,-123 3123.93,-99.1277 3003.65,-82.7038 2945.27,-75.9494"/>
<polygon fill="midnightblue" stroke="midnightblue" points="2945.45,-72.4479 2935.12,-74.8011 2944.66,-79.4035 2945.45,-72.4479"/>
</g>
<!-- Node48&#45;&gt;Node5 -->
<g id="edge162" class="edge"><title>Node48&#45;&gt;Node5</title>
<path fill="none" stroke="midnightblue" d="M1748.78,-817.444C1715.07,-808.201 1661.2,-793.436 1624.07,-783.257"/>
<polygon fill="midnightblue" stroke="midnightblue" points="1624.64,-779.785 1614.07,-780.516 1622.79,-786.536 1624.64,-779.785"/>
</g>
<!-- Node48&#45;&gt;Node6 -->
<g id="edge159" class="edge"><title>Node48&#45;&gt;Node6</title>
<path fill="none" stroke="midnightblue" d="M1816.27,-825.251C1990.21,-821.289 2733.17,-800.042 2800,-725 2827.84,-693.737 2950.06,-882.625 2665,-470 2622.79,-408.899 2603.39,-398.276 2541,-358 2490.98,-325.71 2477.93,-318.256 2425,-291 2411.65,-284.126 2193.5,-182.922 2179,-179 2049.97,-144.091 1893.15,-135.809 1804.94,-134.112"/>
<polygon fill="midnightblue" stroke="midnightblue" points="1804.85,-130.61 1794.79,-133.94 1804.73,-137.609 1804.85,-130.61"/>
</g>
<!-- Node48&#45;&gt;Node13 -->
<g id="edge164" class="edge"><title>Node48&#45;&gt;Node13</title>
<path fill="none" stroke="midnightblue" d="M1816.09,-825.161C2003.75,-820.503 2862.9,-795.435 2956,-725 3008.15,-685.545 2972.39,-636.737 3021,-593 3055.5,-561.965 3088.88,-592.299 3119,-557 3146.11,-525.223 3160,-577.548 3160,-246 3160,-246 3160,-246 3160,-188 3160,-157.205 3159.15,-143.304 3136,-123 3107.88,-98.3415 3000.33,-82.6225 2945.52,-76.0431"/>
<polygon fill="midnightblue" stroke="midnightblue" points="2945.64,-72.5333 2935.3,-74.8491 2944.83,-79.486 2945.64,-72.5333"/>
</g>
<!-- Node48&#45;&gt;Node16 -->
<g id="edge160" class="edge"><title>Node48&#45;&gt;Node16</title>
<path fill="none" stroke="midnightblue" d="M1776.32,-817.297C1762.43,-784.494 1713.05,-667.884 1693.78,-622.377"/>
<polygon fill="midnightblue" stroke="midnightblue" points="1696.88,-620.728 1689.76,-612.884 1690.44,-623.457 1696.88,-620.728"/>
</g>
<!-- Node48&#45;&gt;Node37 -->
<g id="edge161" class="edge"><title>Node48&#45;&gt;Node37</title>
<path fill="none" stroke="midnightblue" d="M1771.72,-817.465C1750.32,-795.836 1690.68,-738.243 1631,-705 1455.9,-607.464 1326.92,-716.092 1205,-557 1181.46,-526.276 1176.89,-500.278 1201,-470 1216.77,-450.199 1277.56,-438.392 1327.31,-431.875"/>
<polygon fill="midnightblue" stroke="midnightblue" points="1327.93,-435.325 1337.42,-430.603 1327.06,-428.38 1327.93,-435.325"/>
</g>
<!-- Node48&#45;&gt;Node42 -->
<g id="edge163" class="edge"><title>Node48&#45;&gt;Node42</title>
<path fill="none" stroke="midnightblue" d="M1816.03,-822.44C1938.6,-810.239 2350.62,-768.454 2690,-725 2694.25,-724.456 2698.66,-723.867 2703.07,-723.258"/>
<polygon fill="midnightblue" stroke="midnightblue" points="2703.92,-726.675 2713.33,-721.818 2702.94,-719.743 2703.92,-726.675"/>
</g>
<!-- Node50&#45;&gt;Node13 -->
<g id="edge171" class="edge"><title>Node50&#45;&gt;Node13</title>
<path fill="none" stroke="midnightblue" d="M1603.54,-595.873C1769.87,-575.265 2300.04,-509.28 2336,-501 2503.23,-462.492 2542.97,-442.497 2702,-378 2755.42,-356.333 2773.79,-357.773 2819,-322 2848.99,-298.268 2852.33,-287.178 2873,-255 2906.42,-202.97 2919.44,-184.792 2917,-123 2916.58,-112.504 2915.69,-100.809 2914.85,-91.3193"/>
<polygon fill="midnightblue" stroke="midnightblue" points="2918.3,-90.6959 2913.89,-81.0657 2911.33,-91.3485 2918.3,-90.6959"/>
</g>
<!-- Node50&#45;&gt;Node14 -->
<g id="edge172" class="edge"><title>Node50&#45;&gt;Node14</title>
<path fill="none" stroke="midnightblue" d="M1504.47,-600.937C1357.3,-597.488 924.236,-585.16 786,-557 587.171,-516.497 503.512,-527.211 366,-378 285.856,-291.038 213.215,-212.941 290,-123 326.681,-80.0342 503.675,-73.4345 576.549,-72.5597"/>
<polygon fill="midnightblue" stroke="midnightblue" points="576.948,-76.0563 586.916,-72.466 576.884,-69.0566 576.948,-76.0563"/>
</g>
<!-- Node50&#45;&gt;Node34 -->
<g id="edge170" class="edge"><title>Node50&#45;&gt;Node34</title>
<path fill="none" stroke="midnightblue" d="M1588.86,-593.444C1626.92,-584.102 1687.96,-569.119 1729.46,-558.933"/>
<polygon fill="midnightblue" stroke="midnightblue" points="1730.43,-562.299 1739.3,-556.516 1728.76,-555.501 1730.43,-562.299"/>
</g>
</g>
</svg>
