<?xml version="1.0" encoding="UTF-8" standalone="no"?>
<!DOCTYPE svg PUBLIC "-//W3C//DTD SVG 1.1//EN"
 "http://www.w3.org/Graphics/SVG/1.1/DTD/svg11.dtd">
<!-- Generated by graphviz version 2.38.0 (20140413.2041)
 -->
<!-- Title: include/tvm/ir/function.h Pages: 1 -->
<svg width="2673pt" height="901pt"
 viewBox="0.00 0.00 2673.00 901.00" xmlns="http://www.w3.org/2000/svg" xmlns:xlink="http://www.w3.org/1999/xlink">
<g id="graph0" class="graph" transform="scale(1 1) rotate(0) translate(4 897)">
<title>include/tvm/ir/function.h</title>
<polygon fill="white" stroke="none" points="-4,4 -4,-897 2669,-897 2669,4 -4,4"/>
<!-- Node1 -->
<g id="node1" class="node"><title>Node1</title>
<polygon fill="#bfbfbf" stroke="black" points="1571.5,-873.5 1571.5,-892.5 1702.5,-892.5 1702.5,-873.5 1571.5,-873.5"/>
<text text-anchor="middle" x="1637" y="-880.5" font-family="Helvetica,sans-Serif" font-size="10.00">include/tvm/ir/function.h</text>
</g>
<!-- Node2 -->
<g id="node2" class="node"><title>Node2</title>
<g id="a_node2"><a xlink:href="ir_2expr_8h.html" target="_top" xlink:title="Base expr nodes in TVM. ">
<polygon fill="white" stroke="black" points="1484.5,-761.5 1484.5,-780.5 1561.5,-780.5 1561.5,-761.5 1484.5,-761.5"/>
<text text-anchor="middle" x="1523" y="-768.5" font-family="Helvetica,sans-Serif" font-size="10.00">tvm/ir/expr.h</text>
</a>
</g>
</g>
<!-- Node1&#45;&gt;Node2 -->
<g id="edge1" class="edge"><title>Node1&#45;&gt;Node2</title>
<path fill="none" stroke="midnightblue" d="M1628.05,-873.368C1608.91,-854.894 1563.72,-811.293 1539.32,-787.744"/>
<polygon fill="midnightblue" stroke="midnightblue" points="1541.53,-785.016 1531.9,-780.591 1536.67,-790.054 1541.53,-785.016"/>
</g>
<!-- Node9 -->
<g id="node9" class="node"><title>Node9</title>
<polygon fill="white" stroke="#bfbfbf" points="2288,-62 2288,-81 2356,-81 2356,-62 2288,-62"/>
<text text-anchor="middle" x="2322" y="-69" font-family="Helvetica,sans-Serif" font-size="10.00">type_traits</text>
</g>
<!-- Node1&#45;&gt;Node9 -->
<g id="edge143" class="edge"><title>Node1&#45;&gt;Node9</title>
<path fill="none" stroke="midnightblue" d="M1702.87,-881.89C1929.76,-880.653 2665,-869.15 2665,-772 2665,-772 2665,-772 2665,-188 2665,-125.619 2458.66,-90.5233 2366.06,-77.9139"/>
<polygon fill="midnightblue" stroke="midnightblue" points="2366.52,-74.444 2356.14,-76.5903 2365.59,-81.3825 2366.52,-74.444"/>
</g>
<!-- Node10 -->
<g id="node10" class="node"><title>Node10</title>
<polygon fill="white" stroke="#bfbfbf" points="282,-62 282,-81 326,-81 326,-62 282,-62"/>
<text text-anchor="middle" x="304" y="-69" font-family="Helvetica,sans-Serif" font-size="10.00">string</text>
</g>
<!-- Node1&#45;&gt;Node10 -->
<g id="edge144" class="edge"><title>Node1&#45;&gt;Node10</title>
<path fill="none" stroke="midnightblue" d="M1571.31,-881.084C1265.95,-876.401 0,-852.156 0,-772 0,-772 0,-772 0,-188 0,-151.822 18.3514,-142.223 49,-123 119.496,-78.7856 220.727,-72.0647 271.848,-71.7646"/>
<polygon fill="midnightblue" stroke="midnightblue" points="271.96,-75.2647 281.967,-71.7868 271.975,-68.2647 271.96,-75.2647"/>
</g>
<!-- Node14 -->
<g id="node14" class="node"><title>Node14</title>
<g id="a_node14"><a xlink:href="runtime_2container_8h.html" target="_top" xlink:title="Common POD(plain old data) container types. ">
<polygon fill="white" stroke="black" points="1225,-358.5 1225,-377.5 1357,-377.5 1357,-358.5 1225,-358.5"/>
<text text-anchor="middle" x="1291" y="-365.5" font-family="Helvetica,sans-Serif" font-size="10.00">tvm/runtime/container.h</text>
</a>
</g>
</g>
<!-- Node1&#45;&gt;Node14 -->
<g id="edge142" class="edge"><title>Node1&#45;&gt;Node14</title>
<path fill="none" stroke="midnightblue" d="M1637,-873.442C1637,-854.936 1637,-809.812 1637,-772 1637,-772 1637,-772 1637,-602 1637,-525.982 1404.31,-417.948 1320.57,-381.532"/>
<polygon fill="midnightblue" stroke="midnightblue" points="1321.92,-378.301 1311.35,-377.55 1319.15,-384.728 1321.92,-378.301"/>
</g>
<!-- Node42 -->
<g id="node42" class="node"><title>Node42</title>
<g id="a_node42"><a xlink:href="ir_2attrs_8h.html" target="_top" xlink:title="Helpers for attribute objects. ">
<polygon fill="white" stroke="black" points="2093.5,-817.5 2093.5,-836.5 2172.5,-836.5 2172.5,-817.5 2093.5,-817.5"/>
<text text-anchor="middle" x="2133" y="-824.5" font-family="Helvetica,sans-Serif" font-size="10.00">tvm/ir/attrs.h</text>
</a>
</g>
</g>
<!-- Node1&#45;&gt;Node42 -->
<g id="edge130" class="edge"><title>Node1&#45;&gt;Node42</title>
<path fill="none" stroke="midnightblue" d="M1702.61,-874.857C1803.26,-863.9 1993.53,-843.184 2083.49,-833.39"/>
<polygon fill="midnightblue" stroke="midnightblue" points="2083.87,-836.869 2093.43,-832.308 2083.11,-829.91 2083.87,-836.869"/>
</g>
<!-- Node3 -->
<g id="node3" class="node"><title>Node3</title>
<g id="a_node3"><a xlink:href="object_8h.html" target="_top" xlink:title="A managed object in the TVM runtime. ">
<polygon fill="white" stroke="black" points="910.5,-123.5 910.5,-142.5 1027.5,-142.5 1027.5,-123.5 910.5,-123.5"/>
<text text-anchor="middle" x="969" y="-130.5" font-family="Helvetica,sans-Serif" font-size="10.00">tvm/runtime/object.h</text>
</a>
</g>
</g>
<!-- Node2&#45;&gt;Node3 -->
<g id="edge2" class="edge"><title>Node2&#45;&gt;Node3</title>
<path fill="none" stroke="midnightblue" d="M1484.32,-770.375C1316.29,-771.697 649.017,-773.718 446,-725 378.507,-708.804 304,-729.409 304,-660 304,-660 304,-660 304,-305.5 304,-183.327 730.175,-146.855 900.185,-137.165"/>
<polygon fill="midnightblue" stroke="midnightblue" points="900.487,-140.654 910.277,-136.605 900.099,-133.665 900.487,-140.654"/>
</g>
<!-- Node2&#45;&gt;Node9 -->
<g id="edge129" class="edge"><title>Node2&#45;&gt;Node9</title>
<path fill="none" stroke="midnightblue" d="M1561.6,-762.26C1684.47,-735.975 2072.68,-640.07 2316,-434 2404.55,-359.01 2393.31,-293.061 2372,-179 2367.29,-153.781 2368.74,-146.296 2358,-123 2352.34,-110.723 2343.57,-98.341 2336.1,-88.9098"/>
<polygon fill="midnightblue" stroke="midnightblue" points="2338.79,-86.6701 2329.74,-81.1659 2333.39,-91.1142 2338.79,-86.6701"/>
</g>
<!-- Node2&#45;&gt;Node10 -->
<g id="edge126" class="edge"><title>Node2&#45;&gt;Node10</title>
<path fill="none" stroke="midnightblue" d="M1484.49,-770.188C1299.84,-770.852 504.16,-770.948 261,-725 175.366,-708.818 76,-747.15 76,-660 76,-660 76,-660 76,-188 76,-101.382 208.57,-79.7038 271.534,-74.2927"/>
<polygon fill="midnightblue" stroke="midnightblue" points="272.022,-77.7655 281.723,-73.5074 271.484,-70.7862 272.022,-77.7655"/>
</g>
<!-- Node13 -->
<g id="node13" class="node"><title>Node13</title>
<g id="a_node13"><a xlink:href="node_8h.html" target="_top" xlink:title="Definitions and helper macros for IR/AST nodes. ">
<polygon fill="white" stroke="black" points="938,-593.5 938,-612.5 1036,-612.5 1036,-593.5 938,-593.5"/>
<text text-anchor="middle" x="987" y="-600.5" font-family="Helvetica,sans-Serif" font-size="10.00">tvm/node/node.h</text>
</a>
</g>
</g>
<!-- Node2&#45;&gt;Node13 -->
<g id="edge12" class="edge"><title>Node2&#45;&gt;Node13</title>
<path fill="none" stroke="midnightblue" d="M1523.14,-761.384C1522.86,-747.374 1520.15,-719.74 1504,-705 1437.54,-644.353 1167.82,-617.267 1046.56,-607.979"/>
<polygon fill="midnightblue" stroke="midnightblue" points="1046.57,-604.471 1036.34,-607.212 1046.05,-611.451 1046.57,-604.471"/>
</g>
<!-- Node29 -->
<g id="node29" class="node"><title>Node29</title>
<polygon fill="white" stroke="#bfbfbf" points="2019,-235.5 2019,-254.5 2061,-254.5 2061,-235.5 2019,-235.5"/>
<text text-anchor="middle" x="2040" y="-242.5" font-family="Helvetica,sans-Serif" font-size="10.00">limits</text>
</g>
<!-- Node2&#45;&gt;Node29 -->
<g id="edge128" class="edge"><title>Node2&#45;&gt;Node29</title>
<path fill="none" stroke="midnightblue" d="M1538.7,-761.419C1604.57,-724.621 1861.42,-573.132 1995,-378 2019.53,-342.163 2031.78,-291.74 2036.91,-264.766"/>
<polygon fill="midnightblue" stroke="midnightblue" points="2040.39,-265.211 2038.69,-254.753 2033.5,-263.986 2040.39,-265.211"/>
</g>
<!-- Node35 -->
<g id="node35" class="node"><title>Node35</title>
<g id="a_node35"><a xlink:href="node_2container_8h.html" target="_top" xlink:title="Array/Map container in the DSL graph. ">
<polygon fill="white" stroke="black" points="1501.5,-414.5 1501.5,-433.5 1620.5,-433.5 1620.5,-414.5 1501.5,-414.5"/>
<text text-anchor="middle" x="1561" y="-421.5" font-family="Helvetica,sans-Serif" font-size="10.00">tvm/node/container.h</text>
</a>
</g>
</g>
<!-- Node2&#45;&gt;Node35 -->
<g id="edge114" class="edge"><title>Node2&#45;&gt;Node35</title>
<path fill="none" stroke="midnightblue" d="M1530.54,-761.485C1554.14,-734.202 1626.44,-645.551 1651,-557 1664.49,-508.348 1613.29,-462.145 1582.58,-439.507"/>
<polygon fill="midnightblue" stroke="midnightblue" points="1584.34,-436.464 1574.16,-433.512 1580.28,-442.165 1584.34,-436.464"/>
</g>
<!-- Node39 -->
<g id="node39" class="node"><title>Node39</title>
<g id="a_node39"><a xlink:href="span_8h.html" target="_top" xlink:title="Span information for debugging purposes. ">
<polygon fill="white" stroke="black" points="196,-649.5 196,-668.5 276,-668.5 276,-649.5 196,-649.5"/>
<text text-anchor="middle" x="236" y="-656.5" font-family="Helvetica,sans-Serif" font-size="10.00">tvm/ir/span.h</text>
</a>
</g>
</g>
<!-- Node2&#45;&gt;Node39 -->
<g id="edge115" class="edge"><title>Node2&#45;&gt;Node39</title>
<path fill="none" stroke="midnightblue" d="M1484.28,-769.474C1281.04,-766.604 344.813,-751.954 290,-725 269.697,-715.016 254.259,-693.472 245.192,-677.919"/>
<polygon fill="midnightblue" stroke="midnightblue" points="248.041,-675.835 240.167,-668.746 241.902,-679.198 248.041,-675.835"/>
</g>
<!-- Node40 -->
<g id="node40" class="node"><title>Node40</title>
<g id="a_node40"><a xlink:href="ir_2type_8h.html" target="_top" xlink:title="IR/AST nodes for the unified type system in TVM. ">
<polygon fill="white" stroke="black" points="455.5,-705.5 455.5,-724.5 532.5,-724.5 532.5,-705.5 455.5,-705.5"/>
<text text-anchor="middle" x="494" y="-712.5" font-family="Helvetica,sans-Serif" font-size="10.00">tvm/ir/type.h</text>
</a>
</g>
</g>
<!-- Node2&#45;&gt;Node40 -->
<g id="edge119" class="edge"><title>Node2&#45;&gt;Node40</title>
<path fill="none" stroke="midnightblue" d="M1484.23,-767.965C1324.73,-759.595 719.289,-727.823 542.651,-718.553"/>
<polygon fill="midnightblue" stroke="midnightblue" points="542.782,-715.055 532.612,-718.026 542.415,-722.046 542.782,-715.055"/>
</g>
<!-- Node41 -->
<g id="node41" class="node"><title>Node41</title>
<polygon fill="white" stroke="#bfbfbf" points="1433,-705.5 1433,-724.5 1495,-724.5 1495,-705.5 1433,-705.5"/>
<text text-anchor="middle" x="1464" y="-712.5" font-family="Helvetica,sans-Serif" font-size="10.00">algorithm</text>
</g>
<!-- Node2&#45;&gt;Node41 -->
<g id="edge127" class="edge"><title>Node2&#45;&gt;Node41</title>
<path fill="none" stroke="midnightblue" d="M1513.52,-761.324C1504.8,-753.341 1491.66,-741.313 1481.1,-731.653"/>
<polygon fill="midnightblue" stroke="midnightblue" points="1483.39,-729.004 1473.65,-724.834 1478.67,-734.167 1483.39,-729.004"/>
</g>
<!-- Node4 -->
<g id="node4" class="node"><title>Node4</title>
<polygon fill="white" stroke="#bfbfbf" points="757,-62 757,-81 843,-81 843,-62 757,-62"/>
<text text-anchor="middle" x="800" y="-69" font-family="Helvetica,sans-Serif" font-size="10.00">dmlc/logging.h</text>
</g>
<!-- Node3&#45;&gt;Node4 -->
<g id="edge3" class="edge"><title>Node3&#45;&gt;Node4</title>
<path fill="none" stroke="midnightblue" d="M944.786,-123.475C915.671,-113.225 866.632,-95.9593 833.798,-84.3994"/>
<polygon fill="midnightblue" stroke="midnightblue" points="834.763,-81.0287 824.169,-81.0091 832.439,-87.6314 834.763,-81.0287"/>
</g>
<!-- Node5 -->
<g id="node5" class="node"><title>Node5</title>
<g id="a_node5"><a xlink:href="c__runtime__api_8h.html" target="_top" xlink:title="tvm/runtime/c_runtime\l_api.h">
<polygon fill="white" stroke="black" points="1468.5,-56.5 1468.5,-86.5 1595.5,-86.5 1595.5,-56.5 1468.5,-56.5"/>
<text text-anchor="start" x="1476.5" y="-74.5" font-family="Helvetica,sans-Serif" font-size="10.00">tvm/runtime/c_runtime</text>
<text text-anchor="middle" x="1532" y="-63.5" font-family="Helvetica,sans-Serif" font-size="10.00">_api.h</text>
</a>
</g>
</g>
<!-- Node3&#45;&gt;Node5 -->
<g id="edge4" class="edge"><title>Node3&#45;&gt;Node5</title>
<path fill="none" stroke="midnightblue" d="M1027.56,-124.676C1032.44,-124.097 1037.31,-123.531 1042,-123 1189.38,-106.322 1361.96,-89.0644 1457.95,-79.6667"/>
<polygon fill="midnightblue" stroke="midnightblue" points="1458.52,-83.1276 1468.14,-78.6711 1457.84,-76.1608 1458.52,-83.1276"/>
</g>
<!-- Node3&#45;&gt;Node9 -->
<g id="edge8" class="edge"><title>Node3&#45;&gt;Node9</title>
<path fill="none" stroke="midnightblue" d="M1027.57,-129.424C1255.04,-119.421 2077.17,-83.2668 2277.67,-74.4494"/>
<polygon fill="midnightblue" stroke="midnightblue" points="2277.99,-77.9387 2287.83,-74.0027 2277.69,-70.9455 2277.99,-77.9387"/>
</g>
<!-- Node3&#45;&gt;Node10 -->
<g id="edge9" class="edge"><title>Node3&#45;&gt;Node10</title>
<path fill="none" stroke="midnightblue" d="M910.277,-126.746C774.182,-114.569 440.837,-84.7433 336.062,-75.3687"/>
<polygon fill="midnightblue" stroke="midnightblue" points="336.365,-71.882 326.093,-74.4768 335.742,-78.8541 336.365,-71.882"/>
</g>
<!-- Node11 -->
<g id="node11" class="node"><title>Node11</title>
<polygon fill="white" stroke="#bfbfbf" points="1873,-62 1873,-81 1915,-81 1915,-62 1873,-62"/>
<text text-anchor="middle" x="1894" y="-69" font-family="Helvetica,sans-Serif" font-size="10.00">utility</text>
</g>
<!-- Node3&#45;&gt;Node11 -->
<g id="edge10" class="edge"><title>Node3&#45;&gt;Node11</title>
<path fill="none" stroke="midnightblue" d="M1027.54,-124.452C1032.42,-123.922 1037.29,-123.429 1042,-123 1206.16,-108.031 1728.55,-80.9353 1862.47,-74.0994"/>
<polygon fill="midnightblue" stroke="midnightblue" points="1863.02,-77.5761 1872.83,-73.5716 1862.67,-70.5852 1863.02,-77.5761"/>
</g>
<!-- Node12 -->
<g id="node12" class="node"><title>Node12</title>
<polygon fill="white" stroke="#bfbfbf" points="1075,-62 1075,-81 1125,-81 1125,-62 1075,-62"/>
<text text-anchor="middle" x="1100" y="-69" font-family="Helvetica,sans-Serif" font-size="10.00">atomic</text>
</g>
<!-- Node3&#45;&gt;Node12 -->
<g id="edge11" class="edge"><title>Node3&#45;&gt;Node12</title>
<path fill="none" stroke="midnightblue" d="M987.769,-123.475C1009.85,-113.445 1046.72,-96.7002 1072.14,-85.1546"/>
<polygon fill="midnightblue" stroke="midnightblue" points="1073.61,-88.3313 1081.27,-81.0091 1070.71,-81.9579 1073.61,-88.3313"/>
</g>
<!-- Node6 -->
<g id="node6" class="node"><title>Node6</title>
<polygon fill="white" stroke="#bfbfbf" points="1397,-0.5 1397,-19.5 1487,-19.5 1487,-0.5 1397,-0.5"/>
<text text-anchor="middle" x="1442" y="-7.5" font-family="Helvetica,sans-Serif" font-size="10.00">dlpack/dlpack.h</text>
</g>
<!-- Node5&#45;&gt;Node6 -->
<g id="edge5" class="edge"><title>Node5&#45;&gt;Node6</title>
<path fill="none" stroke="midnightblue" d="M1510.67,-56.3993C1496.51,-47.0402 1477.99,-34.7924 1463.75,-25.3771"/>
<polygon fill="midnightblue" stroke="midnightblue" points="1465.37,-22.2531 1455.1,-19.6578 1461.51,-28.0923 1465.37,-22.2531"/>
</g>
<!-- Node7 -->
<g id="node7" class="node"><title>Node7</title>
<polygon fill="white" stroke="#bfbfbf" points="1505.5,-0.5 1505.5,-19.5 1558.5,-19.5 1558.5,-0.5 1505.5,-0.5"/>
<text text-anchor="middle" x="1532" y="-7.5" font-family="Helvetica,sans-Serif" font-size="10.00">stdint.h</text>
</g>
<!-- Node5&#45;&gt;Node7 -->
<g id="edge6" class="edge"><title>Node5&#45;&gt;Node7</title>
<path fill="none" stroke="midnightblue" d="M1532,-56.3993C1532,-48.4664 1532,-38.458 1532,-29.8583"/>
<polygon fill="midnightblue" stroke="midnightblue" points="1535.5,-29.6577 1532,-19.6578 1528.5,-29.6578 1535.5,-29.6577"/>
</g>
<!-- Node8 -->
<g id="node8" class="node"><title>Node8</title>
<polygon fill="white" stroke="#bfbfbf" points="1576.5,-0.5 1576.5,-19.5 1631.5,-19.5 1631.5,-0.5 1576.5,-0.5"/>
<text text-anchor="middle" x="1604" y="-7.5" font-family="Helvetica,sans-Serif" font-size="10.00">stddef.h</text>
</g>
<!-- Node5&#45;&gt;Node8 -->
<g id="edge7" class="edge"><title>Node5&#45;&gt;Node8</title>
<path fill="none" stroke="midnightblue" d="M1549.06,-56.3993C1560.06,-47.3076 1574.37,-35.4899 1585.62,-26.1909"/>
<polygon fill="midnightblue" stroke="midnightblue" points="1588.04,-28.726 1593.52,-19.6578 1583.59,-23.33 1588.04,-28.726"/>
</g>
<!-- Node13&#45;&gt;Node3 -->
<g id="edge66" class="edge"><title>Node13&#45;&gt;Node3</title>
<path fill="none" stroke="midnightblue" d="M937.753,-599.689C878.171,-595.721 775.472,-585.096 692,-557 642.616,-540.378 632.402,-529.832 589,-501 543.961,-471.081 494,-479.071 494,-425 494,-425 494,-425 494,-367 494,-303.097 502.129,-276.173 551,-235 551,-235 815.601,-171.065 923.758,-144.932"/>
<polygon fill="midnightblue" stroke="midnightblue" points="924.824,-148.275 933.722,-142.524 923.179,-141.471 924.824,-148.275"/>
</g>
<!-- Node13&#45;&gt;Node5 -->
<g id="edge13" class="edge"><title>Node13&#45;&gt;Node5</title>
<path fill="none" stroke="midnightblue" d="M1036.12,-598.524C1121.25,-592.218 1301.59,-577.61 1453,-557 1851.47,-502.759 2203.14,-592.936 2284,-199 2285.79,-190.293 2289.69,-185.828 2284,-179 2261.87,-152.45 2012.19,-128.058 1978,-123 1847.5,-103.693 1694.55,-87.8364 1605.91,-79.3104"/>
<polygon fill="midnightblue" stroke="midnightblue" points="1605.98,-75.8009 1595.69,-78.3323 1605.32,-82.7691 1605.98,-75.8009"/>
</g>
<!-- Node13&#45;&gt;Node9 -->
<g id="edge113" class="edge"><title>Node13&#45;&gt;Node9</title>
<path fill="none" stroke="midnightblue" d="M1036.31,-601.618C1165.15,-600.124 1522.25,-592.804 1817,-557 1949.48,-540.907 1986.36,-546 2112,-501 2219.29,-462.571 2278.25,-475.654 2337,-378 2394,-283.256 2348.35,-140.527 2329.33,-90.5513"/>
<polygon fill="midnightblue" stroke="midnightblue" points="2332.53,-89.1347 2325.62,-81.104 2326.02,-91.6915 2332.53,-89.1347"/>
</g>
<!-- Node13&#45;&gt;Node10 -->
<g id="edge110" class="edge"><title>Node13&#45;&gt;Node10</title>
<path fill="none" stroke="midnightblue" d="M937.982,-602.261C847.799,-600.535 652.51,-586.33 518,-501 379.737,-413.289 344.382,-358.413 307,-199 299.256,-165.975 298.66,-156.894 300,-123 300.415,-112.504 301.313,-100.809 302.154,-91.3193"/>
<polygon fill="midnightblue" stroke="midnightblue" points="305.666,-91.3485 303.114,-81.0657 298.697,-90.6959 305.666,-91.3485"/>
</g>
<!-- Node13&#45;&gt;Node11 -->
<g id="edge112" class="edge"><title>Node13&#45;&gt;Node11</title>
<path fill="none" stroke="midnightblue" d="M1036.02,-600.314C1219.91,-593.542 1868.06,-565.513 2063,-501 2119.52,-482.294 2132.63,-471.341 2179,-434 2276.71,-355.323 2376.63,-278.321 2300,-179 2253.48,-118.699 2012.24,-85.8675 1925.29,-75.8499"/>
<polygon fill="midnightblue" stroke="midnightblue" points="1925.57,-72.3594 1915.24,-74.7152 1924.78,-79.3152 1925.57,-72.3594"/>
</g>
<!-- Node13&#45;&gt;Node14 -->
<g id="edge14" class="edge"><title>Node13&#45;&gt;Node14</title>
<path fill="none" stroke="midnightblue" d="M983.431,-593.238C974.766,-570.413 955.291,-508.248 983,-470 1035.58,-397.423 1141.94,-376.059 1214.82,-370.276"/>
<polygon fill="midnightblue" stroke="midnightblue" points="1215.14,-373.762 1224.87,-369.56 1214.65,-366.78 1215.14,-373.762"/>
</g>
<!-- Node15 -->
<g id="node15" class="node"><title>Node15</title>
<g id="a_node15"><a xlink:href="runtime_2memory_8h.html" target="_top" xlink:title="Runtime memory management. ">
<polygon fill="white" stroke="black" points="1922.5,-179.5 1922.5,-198.5 2049.5,-198.5 2049.5,-179.5 1922.5,-179.5"/>
<text text-anchor="middle" x="1986" y="-186.5" font-family="Helvetica,sans-Serif" font-size="10.00">tvm/runtime/memory.h</text>
</a>
</g>
</g>
<!-- Node13&#45;&gt;Node15 -->
<g id="edge67" class="edge"><title>Node13&#45;&gt;Node15</title>
<path fill="none" stroke="midnightblue" d="M1036.01,-597.663C1253.99,-577.136 2129.67,-481.16 2244,-255 2248.01,-247.067 2249.72,-241.804 2244,-235 2220.83,-207.441 2127.59,-196.758 2059.84,-192.618"/>
<polygon fill="midnightblue" stroke="midnightblue" points="2059.81,-189.11 2049.62,-192.031 2059.41,-196.099 2059.81,-189.11"/>
</g>
<!-- Node21 -->
<g id="node21" class="node"><title>Node21</title>
<polygon fill="white" stroke="#bfbfbf" points="1024.5,-179.5 1024.5,-198.5 1071.5,-198.5 1071.5,-179.5 1024.5,-179.5"/>
<text text-anchor="middle" x="1048" y="-186.5" font-family="Helvetica,sans-Serif" font-size="10.00">vector</text>
</g>
<!-- Node13&#45;&gt;Node21 -->
<g id="edge111" class="edge"><title>Node13&#45;&gt;Node21</title>
<path fill="none" stroke="midnightblue" d="M981.98,-593.35C977.092,-584.512 969.852,-570.245 966,-557 941.224,-471.799 926.843,-443.655 950,-358 966.531,-296.852 1011.46,-235.108 1034.29,-206.478"/>
<polygon fill="midnightblue" stroke="midnightblue" points="1037.02,-208.662 1040.61,-198.693 1031.59,-204.251 1037.02,-208.662"/>
</g>
<!-- Node32 -->
<g id="node32" class="node"><title>Node32</title>
<g id="a_node32"><a xlink:href="reflection_8h.html" target="_top" xlink:title="Reflection and serialization of compiler IR/AST nodes. ">
<polygon fill="white" stroke="black" points="1148.5,-537.5 1148.5,-556.5 1267.5,-556.5 1267.5,-537.5 1148.5,-537.5"/>
<text text-anchor="middle" x="1208" y="-544.5" font-family="Helvetica,sans-Serif" font-size="10.00">tvm/node/reflection.h</text>
</a>
</g>
</g>
<!-- Node13&#45;&gt;Node32 -->
<g id="edge68" class="edge"><title>Node13&#45;&gt;Node32</title>
<path fill="none" stroke="midnightblue" d="M1022.02,-593.444C1060.25,-584.102 1121.57,-569.119 1163.26,-558.933"/>
<polygon fill="midnightblue" stroke="midnightblue" points="1164.26,-562.29 1173.15,-556.516 1162.6,-555.49 1164.26,-562.29"/>
</g>
<!-- Node33 -->
<g id="node33" class="node"><title>Node33</title>
<g id="a_node33"><a xlink:href="structural__equal_8h.html" target="_top" xlink:title="Structural equality comparison. ">
<polygon fill="white" stroke="black" points="598.5,-470.5 598.5,-500.5 709.5,-500.5 709.5,-470.5 598.5,-470.5"/>
<text text-anchor="start" x="606.5" y="-488.5" font-family="Helvetica,sans-Serif" font-size="10.00">tvm/node/structural</text>
<text text-anchor="middle" x="654" y="-477.5" font-family="Helvetica,sans-Serif" font-size="10.00">_equal.h</text>
</a>
</g>
</g>
<!-- Node13&#45;&gt;Node33 -->
<g id="edge108" class="edge"><title>Node13&#45;&gt;Node33</title>
<path fill="none" stroke="midnightblue" d="M937.939,-602.793C882.203,-601.707 790.043,-593.757 721,-557 699.747,-545.685 681.383,-525.102 669.283,-509.086"/>
<polygon fill="midnightblue" stroke="midnightblue" points="671.935,-506.782 663.227,-500.746 666.271,-510.895 671.935,-506.782"/>
</g>
<!-- Node13&#45;&gt;Node35 -->
<g id="edge107" class="edge"><title>Node13&#45;&gt;Node35</title>
<path fill="none" stroke="midnightblue" d="M1036.22,-597.509C1094.26,-591.488 1193.3,-578.932 1276,-557 1343.58,-539.079 1359.56,-530.379 1423,-501 1464.74,-481.671 1511.19,-454.94 1538.15,-438.873"/>
<polygon fill="midnightblue" stroke="midnightblue" points="1540.06,-441.81 1546.84,-433.664 1536.46,-435.807 1540.06,-441.81"/>
</g>
<!-- Node36 -->
<g id="node36" class="node"><title>Node36</title>
<g id="a_node36"><a xlink:href="structural__hash_8h.html" target="_top" xlink:title="tvm/node/structural\l_hash.h">
<polygon fill="white" stroke="black" points="992.5,-470.5 992.5,-500.5 1103.5,-500.5 1103.5,-470.5 992.5,-470.5"/>
<text text-anchor="start" x="1000.5" y="-488.5" font-family="Helvetica,sans-Serif" font-size="10.00">tvm/node/structural</text>
<text text-anchor="middle" x="1048" y="-477.5" font-family="Helvetica,sans-Serif" font-size="10.00">_hash.h</text>
</a>
</g>
</g>
<!-- Node13&#45;&gt;Node36 -->
<g id="edge109" class="edge"><title>Node13&#45;&gt;Node36</title>
<path fill="none" stroke="midnightblue" d="M991.585,-593.319C1000.87,-575.734 1022.18,-535.394 1035.78,-509.629"/>
<polygon fill="midnightblue" stroke="midnightblue" points="1039.01,-511.022 1040.58,-500.545 1032.82,-507.753 1039.01,-511.022"/>
</g>
<!-- Node37 -->
<g id="node37" class="node"><title>Node37</title>
<g id="a_node37"><a xlink:href="repr__printer_8h.html" target="_top" xlink:title="Printer class to print repr string of each AST/IR nodes. ">
<polygon fill="white" stroke="black" points="730,-537.5 730,-556.5 860,-556.5 860,-537.5 730,-537.5"/>
<text text-anchor="middle" x="795" y="-544.5" font-family="Helvetica,sans-Serif" font-size="10.00">tvm/node/repr_printer.h</text>
</a>
</g>
</g>
<!-- Node13&#45;&gt;Node37 -->
<g id="edge104" class="edge"><title>Node13&#45;&gt;Node37</title>
<path fill="none" stroke="midnightblue" d="M956.577,-593.444C923.715,-584.201 871.215,-569.436 835.026,-559.257"/>
<polygon fill="midnightblue" stroke="midnightblue" points="835.855,-555.855 825.281,-556.516 833.96,-562.593 835.855,-555.855"/>
</g>
<!-- Node14&#45;&gt;Node3 -->
<g id="edge21" class="edge"><title>Node14&#45;&gt;Node3</title>
<path fill="none" stroke="midnightblue" d="M1269.47,-358.394C1250.42,-350.313 1222.27,-337.21 1200,-322 1183.11,-310.466 1183.31,-301.894 1166,-291 1129.89,-268.269 1113.16,-277.647 1077,-255 1045.53,-235.292 1039.65,-226.768 1015,-199 1001.71,-184.026 988.729,-165.188 979.967,-151.652"/>
<polygon fill="midnightblue" stroke="midnightblue" points="982.702,-149.43 974.387,-142.865 976.793,-153.183 982.702,-149.43"/>
</g>
<!-- Node14&#45;&gt;Node4 -->
<g id="edge15" class="edge"><title>Node14&#45;&gt;Node4</title>
<path fill="none" stroke="midnightblue" d="M1244.61,-358.436C1121.65,-335.525 795.735,-273.323 781,-255 742.116,-206.65 773.399,-126.229 790.587,-90.527"/>
<polygon fill="midnightblue" stroke="midnightblue" points="793.841,-91.8448 795.184,-81.3353 787.58,-88.7137 793.841,-91.8448"/>
</g>
<!-- Node14&#45;&gt;Node9 -->
<g id="edge63" class="edge"><title>Node14&#45;&gt;Node9</title>
<path fill="none" stroke="midnightblue" d="M1357.32,-366.221C1462.48,-363.966 1673.54,-355.274 1849,-322 1874.21,-317.219 2047.07,-266.507 2070,-255 2095.42,-242.244 2149.98,-195.715 2173,-179 2218.5,-145.954 2272.25,-107.738 2301.13,-87.267"/>
<polygon fill="midnightblue" stroke="midnightblue" points="2303.45,-89.9096 2309.59,-81.2733 2299.41,-84.1974 2303.45,-89.9096"/>
</g>
<!-- Node14&#45;&gt;Node10 -->
<g id="edge62" class="edge"><title>Node14&#45;&gt;Node10</title>
<path fill="none" stroke="midnightblue" d="M1224.95,-362.963C1065.9,-352.308 666.299,-319.695 551,-255 482.116,-216.348 496.901,-168.02 432,-123 402.411,-102.475 363.287,-88.6119 336.116,-80.6818"/>
<polygon fill="midnightblue" stroke="midnightblue" points="336.907,-77.2685 326.333,-77.9315 335.013,-84.0073 336.907,-77.2685"/>
</g>
<!-- Node14&#45;&gt;Node11 -->
<g id="edge64" class="edge"><title>Node14&#45;&gt;Node11</title>
<path fill="none" stroke="midnightblue" d="M1357.23,-363.552C1456.48,-357.739 1638.68,-344.379 1700,-322 1805.99,-283.319 1840.51,-248.686 1880,-143 1886.27,-126.213 1889.91,-106.075 1891.9,-91.6273"/>
<polygon fill="midnightblue" stroke="midnightblue" points="1895.41,-91.7874 1893.16,-81.4338 1888.46,-90.9296 1895.41,-91.7874"/>
</g>
<!-- Node14&#45;&gt;Node15 -->
<g id="edge16" class="edge"><title>Node14&#45;&gt;Node15</title>
<path fill="none" stroke="midnightblue" d="M1357.04,-366.954C1479.24,-365.952 1735.43,-359.307 1815,-322 1864.23,-298.919 1857.36,-267.427 1901,-235 1918.14,-222.263 1939.37,-211.021 1956.33,-202.959"/>
<polygon fill="midnightblue" stroke="midnightblue" points="1958.15,-205.972 1965.75,-198.592 1955.21,-199.62 1958.15,-205.972"/>
</g>
<!-- Node17 -->
<g id="node17" class="node"><title>Node17</title>
<g id="a_node17"><a xlink:href="packed__func_8h.html" target="_top" xlink:title="Type&#45;erased function used across TVM API. ">
<polygon fill="white" stroke="black" points="1578.5,-291.5 1578.5,-321.5 1691.5,-321.5 1691.5,-291.5 1578.5,-291.5"/>
<text text-anchor="start" x="1586.5" y="-309.5" font-family="Helvetica,sans-Serif" font-size="10.00">tvm/runtime/packed</text>
<text text-anchor="middle" x="1635" y="-298.5" font-family="Helvetica,sans-Serif" font-size="10.00">_func.h</text>
</a>
</g>
</g>
<!-- Node14&#45;&gt;Node17 -->
<g id="edge22" class="edge"><title>Node14&#45;&gt;Node17</title>
<path fill="none" stroke="midnightblue" d="M1340.29,-358.475C1400.19,-348.114 1501.53,-330.585 1568.36,-319.027"/>
<polygon fill="midnightblue" stroke="midnightblue" points="1569.11,-322.449 1578.37,-317.296 1567.92,-315.551 1569.11,-322.449"/>
</g>
<!-- Node14&#45;&gt;Node21 -->
<g id="edge65" class="edge"><title>Node14&#45;&gt;Node21</title>
<path fill="none" stroke="midnightblue" d="M1281.52,-358.367C1261.98,-340.681 1217.56,-301.143 1200,-291 1159.82,-267.786 1139.9,-281.764 1102,-255 1083.91,-242.227 1068.38,-221.92 1058.68,-207.404"/>
<polygon fill="midnightblue" stroke="midnightblue" points="1061.53,-205.361 1053.18,-198.838 1055.64,-209.143 1061.53,-205.361"/>
</g>
<!-- Node30 -->
<g id="node30" class="node"><title>Node30</title>
<polygon fill="white" stroke="#bfbfbf" points="1108.5,-297 1108.5,-316 1157.5,-316 1157.5,-297 1108.5,-297"/>
<text text-anchor="middle" x="1133" y="-304" font-family="Helvetica,sans-Serif" font-size="10.00">cstring</text>
</g>
<!-- Node14&#45;&gt;Node30 -->
<g id="edge60" class="edge"><title>Node14&#45;&gt;Node30</title>
<path fill="none" stroke="midnightblue" d="M1268.36,-358.475C1241.26,-348.269 1195.69,-331.108 1165,-319.549"/>
<polygon fill="midnightblue" stroke="midnightblue" points="1166.19,-316.258 1155.6,-316.009 1163.72,-322.809 1166.19,-316.258"/>
</g>
<!-- Node31 -->
<g id="node31" class="node"><title>Node31</title>
<polygon fill="white" stroke="#bfbfbf" points="1252.5,-297 1252.5,-316 1329.5,-316 1329.5,-297 1252.5,-297"/>
<text text-anchor="middle" x="1291" y="-304" font-family="Helvetica,sans-Serif" font-size="10.00">initializer_list</text>
</g>
<!-- Node14&#45;&gt;Node31 -->
<g id="edge61" class="edge"><title>Node14&#45;&gt;Node31</title>
<path fill="none" stroke="midnightblue" d="M1291,-358.475C1291,-350.08 1291,-336.981 1291,-326.163"/>
<polygon fill="midnightblue" stroke="midnightblue" points="1294.5,-326.009 1291,-316.009 1287.5,-326.009 1294.5,-326.009"/>
</g>
<!-- Node15&#45;&gt;Node3 -->
<g id="edge17" class="edge"><title>Node15&#45;&gt;Node3</title>
<path fill="none" stroke="midnightblue" d="M1922.38,-184.622C1741.44,-175.015 1224.93,-147.589 1037.78,-137.652"/>
<polygon fill="midnightblue" stroke="midnightblue" points="1037.96,-134.157 1027.78,-137.121 1037.59,-141.147 1037.96,-134.157"/>
</g>
<!-- Node15&#45;&gt;Node9 -->
<g id="edge20" class="edge"><title>Node15&#45;&gt;Node9</title>
<path fill="none" stroke="midnightblue" d="M2010.62,-179.451C2046.53,-166.992 2115.37,-143.137 2174,-123 2212.76,-109.688 2257.26,-94.5185 2287.26,-84.3092"/>
<polygon fill="midnightblue" stroke="midnightblue" points="2288.51,-87.5813 2296.85,-81.047 2286.26,-80.9543 2288.51,-87.5813"/>
</g>
<!-- Node15&#45;&gt;Node11 -->
<g id="edge19" class="edge"><title>Node15&#45;&gt;Node11</title>
<path fill="none" stroke="midnightblue" d="M1987.21,-179.197C1988.56,-165.886 1989.27,-140.354 1978,-123 1965.53,-103.799 1942.97,-90.832 1924.36,-82.8495"/>
<polygon fill="midnightblue" stroke="midnightblue" points="1925.65,-79.5962 1915.07,-79.1229 1923.05,-86.0934 1925.65,-79.5962"/>
</g>
<!-- Node16 -->
<g id="node16" class="node"><title>Node16</title>
<polygon fill="white" stroke="#bfbfbf" points="1922.5,-123.5 1922.5,-142.5 1969.5,-142.5 1969.5,-123.5 1922.5,-123.5"/>
<text text-anchor="middle" x="1946" y="-130.5" font-family="Helvetica,sans-Serif" font-size="10.00">cstdlib</text>
</g>
<!-- Node15&#45;&gt;Node16 -->
<g id="edge18" class="edge"><title>Node15&#45;&gt;Node16</title>
<path fill="none" stroke="midnightblue" d="M1979.39,-179.083C1973.74,-171.455 1965.46,-160.264 1958.55,-150.941"/>
<polygon fill="midnightblue" stroke="midnightblue" points="1961.25,-148.703 1952.48,-142.751 1955.62,-152.87 1961.25,-148.703"/>
</g>
<!-- Node17&#45;&gt;Node3 -->
<g id="edge51" class="edge"><title>Node17&#45;&gt;Node3</title>
<path fill="none" stroke="midnightblue" d="M1578.48,-296.726C1510.97,-285.944 1402.23,-267.543 1363,-255 1342.92,-248.581 1339.78,-242.282 1320,-235 1263.74,-214.288 1247.65,-215.459 1190,-199 1125.78,-180.665 1051.31,-158.592 1007.28,-145.46"/>
<polygon fill="midnightblue" stroke="midnightblue" points="1008.15,-142.066 997.566,-142.559 1006.15,-148.774 1008.15,-142.066"/>
</g>
<!-- Node17&#45;&gt;Node4 -->
<g id="edge23" class="edge"><title>Node17&#45;&gt;Node4</title>
<path fill="none" stroke="midnightblue" d="M1578.32,-301.948C1467.39,-293.662 1214.97,-268.209 1015,-199 936.524,-171.839 854.986,-114.395 819.001,-87.2723"/>
<polygon fill="midnightblue" stroke="midnightblue" points="820.937,-84.3474 810.863,-81.0667 816.693,-89.9136 820.937,-84.3474"/>
</g>
<!-- Node17&#45;&gt;Node5 -->
<g id="edge24" class="edge"><title>Node17&#45;&gt;Node5</title>
<path fill="none" stroke="midnightblue" d="M1679.5,-291.423C1719.53,-275.991 1775.42,-246.842 1798,-199 1801.79,-190.961 1802.98,-186.361 1798,-179 1755.35,-115.977 1668.68,-90.2449 1605.83,-79.7411"/>
<polygon fill="midnightblue" stroke="midnightblue" points="1605.99,-76.2233 1595.57,-78.1246 1604.91,-83.138 1605.99,-76.2233"/>
</g>
<!-- Node17&#45;&gt;Node9 -->
<g id="edge59" class="edge"><title>Node17&#45;&gt;Node9</title>
<path fill="none" stroke="midnightblue" d="M1691.57,-295.227C1773.79,-279.412 1930.43,-245.936 2058,-199 2129.63,-172.646 2143.09,-155.815 2212,-123 2239.6,-109.858 2271.35,-95.3445 2293.63,-85.2625"/>
<polygon fill="midnightblue" stroke="midnightblue" points="2295.18,-88.4032 2302.85,-81.0965 2292.29,-82.024 2295.18,-88.4032"/>
</g>
<!-- Node17&#45;&gt;Node10 -->
<g id="edge55" class="edge"><title>Node17&#45;&gt;Node10</title>
<path fill="none" stroke="midnightblue" d="M1578.31,-302.745C1393.73,-293.697 819.596,-264.904 781,-255 648.516,-221.004 631.675,-169.375 503,-123 445.592,-102.31 375.969,-86.7078 336.142,-78.6417"/>
<polygon fill="midnightblue" stroke="midnightblue" points="336.701,-75.1842 326.21,-76.6616 335.332,-82.0491 336.701,-75.1842"/>
</g>
<!-- Node17&#45;&gt;Node11 -->
<g id="edge58" class="edge"><title>Node17&#45;&gt;Node11</title>
<path fill="none" stroke="midnightblue" d="M1691.59,-293.271C1718.45,-285.484 1749.87,-273.323 1774,-255 1833.09,-210.122 1871.96,-127.22 1887,-90.6453"/>
<polygon fill="midnightblue" stroke="midnightblue" points="1890.29,-91.8346 1890.75,-81.2497 1883.79,-89.2385 1890.29,-91.8346"/>
</g>
<!-- Node18 -->
<g id="node18" class="node"><title>Node18</title>
<g id="a_node18"><a xlink:href="runtime_2module_8h.html" target="_top" xlink:title="Runtime container of the functions generated by TVM, This is used to support dynamically link...">
<polygon fill="white" stroke="black" points="1573,-235.5 1573,-254.5 1697,-254.5 1697,-235.5 1573,-235.5"/>
<text text-anchor="middle" x="1635" y="-242.5" font-family="Helvetica,sans-Serif" font-size="10.00">tvm/runtime/module.h</text>
</a>
</g>
</g>
<!-- Node17&#45;&gt;Node18 -->
<g id="edge25" class="edge"><title>Node17&#45;&gt;Node18</title>
<path fill="none" stroke="midnightblue" d="M1629.16,-291.399C1628.13,-283.377 1627.97,-273.233 1628.69,-264.569"/>
<polygon fill="midnightblue" stroke="midnightblue" points="1632.16,-265.044 1630.07,-254.658 1625.23,-264.081 1632.16,-265.044"/>
</g>
<!-- Node20 -->
<g id="node20" class="node"><title>Node20</title>
<polygon fill="white" stroke="#bfbfbf" points="1732.5,-179.5 1732.5,-198.5 1789.5,-198.5 1789.5,-179.5 1732.5,-179.5"/>
<text text-anchor="middle" x="1761" y="-186.5" font-family="Helvetica,sans-Serif" font-size="10.00">memory</text>
</g>
<!-- Node17&#45;&gt;Node20 -->
<g id="edge57" class="edge"><title>Node17&#45;&gt;Node20</title>
<path fill="none" stroke="midnightblue" d="M1657.84,-291.371C1672.32,-281.911 1691.08,-268.718 1706,-255 1722.25,-240.063 1738.25,-220.441 1748.77,-206.679"/>
<polygon fill="midnightblue" stroke="midnightblue" points="1751.63,-208.689 1754.83,-198.589 1746.03,-204.49 1751.63,-208.689"/>
</g>
<!-- Node17&#45;&gt;Node21 -->
<g id="edge54" class="edge"><title>Node17&#45;&gt;Node21</title>
<path fill="none" stroke="midnightblue" d="M1578.2,-297.694C1503.26,-287.119 1375.53,-268.064 1330,-255 1307.79,-248.626 1304.13,-241.662 1282,-235 1212.17,-213.981 1127.56,-200.573 1081.64,-194.26"/>
<polygon fill="midnightblue" stroke="midnightblue" points="1082.01,-190.778 1071.63,-192.913 1081.08,-197.716 1082.01,-190.778"/>
</g>
<!-- Node23 -->
<g id="node23" class="node"><title>Node23</title>
<g id="a_node23"><a xlink:href="ndarray_8h.html" target="_top" xlink:title="A device&#45;independent managed NDArray abstraction. ">
<polygon fill="white" stroke="black" points="1372.5,-235.5 1372.5,-254.5 1495.5,-254.5 1495.5,-235.5 1372.5,-235.5"/>
<text text-anchor="middle" x="1434" y="-242.5" font-family="Helvetica,sans-Serif" font-size="10.00">tvm/runtime/ndarray.h</text>
</a>
</g>
</g>
<!-- Node17&#45;&gt;Node23 -->
<g id="edge35" class="edge"><title>Node17&#45;&gt;Node23</title>
<path fill="none" stroke="midnightblue" d="M1587.62,-291.475C1552.49,-281.075 1505.21,-267.078 1472.42,-257.372"/>
<polygon fill="midnightblue" stroke="midnightblue" points="1473.32,-253.989 1462.74,-254.506 1471.33,-260.701 1473.32,-253.989"/>
</g>
<!-- Node26 -->
<g id="node26" class="node"><title>Node26</title>
<g id="a_node26"><a xlink:href="data__type_8h.html" target="_top" xlink:title="tvm/runtime/data_type.h">
<polygon fill="white" stroke="black" points="560,-235.5 560,-254.5 696,-254.5 696,-235.5 560,-235.5"/>
<text text-anchor="middle" x="628" y="-242.5" font-family="Helvetica,sans-Serif" font-size="10.00">tvm/runtime/data_type.h</text>
</a>
</g>
</g>
<!-- Node17&#45;&gt;Node26 -->
<g id="edge46" class="edge"><title>Node17&#45;&gt;Node26</title>
<path fill="none" stroke="midnightblue" d="M1578.42,-302.633C1437.88,-295.433 1061.59,-275.685 748,-255 734.496,-254.109 720.143,-253.093 706.235,-252.072"/>
<polygon fill="midnightblue" stroke="midnightblue" points="706.436,-248.577 696.205,-251.329 705.919,-255.558 706.436,-248.577"/>
</g>
<!-- Node27 -->
<g id="node27" class="node"><title>Node27</title>
<polygon fill="white" stroke="#bfbfbf" points="2155.5,-235.5 2155.5,-254.5 2218.5,-254.5 2218.5,-235.5 2155.5,-235.5"/>
<text text-anchor="middle" x="2187" y="-242.5" font-family="Helvetica,sans-Serif" font-size="10.00">functional</text>
</g>
<!-- Node17&#45;&gt;Node27 -->
<g id="edge52" class="edge"><title>Node17&#45;&gt;Node27</title>
<path fill="none" stroke="midnightblue" d="M1691.74,-299.384C1802.96,-287.396 2047.31,-261.057 2145.22,-250.504"/>
<polygon fill="midnightblue" stroke="midnightblue" points="2145.76,-253.966 2155.32,-249.414 2145.01,-247.006 2145.76,-253.966"/>
</g>
<!-- Node28 -->
<g id="node28" class="node"><title>Node28</title>
<polygon fill="white" stroke="#bfbfbf" points="1513.5,-235.5 1513.5,-254.5 1554.5,-254.5 1554.5,-235.5 1513.5,-235.5"/>
<text text-anchor="middle" x="1534" y="-242.5" font-family="Helvetica,sans-Serif" font-size="10.00">tuple</text>
</g>
<!-- Node17&#45;&gt;Node28 -->
<g id="edge53" class="edge"><title>Node17&#45;&gt;Node28</title>
<path fill="none" stroke="midnightblue" d="M1611.06,-291.399C1594.87,-281.862 1573.59,-269.325 1557.5,-259.842"/>
<polygon fill="midnightblue" stroke="midnightblue" points="1559.09,-256.718 1548.7,-254.658 1555.54,-262.749 1559.09,-256.718"/>
</g>
<!-- Node17&#45;&gt;Node29 -->
<g id="edge56" class="edge"><title>Node17&#45;&gt;Node29</title>
<path fill="none" stroke="midnightblue" d="M1691.74,-297.164C1778.32,-284.444 1940.54,-260.612 2008.64,-250.608"/>
<polygon fill="midnightblue" stroke="midnightblue" points="2009.35,-254.041 2018.73,-249.125 2008.33,-247.115 2009.35,-254.041"/>
</g>
<!-- Node18&#45;&gt;Node3 -->
<g id="edge28" class="edge"><title>Node18&#45;&gt;Node3</title>
<path fill="none" stroke="midnightblue" d="M1580.46,-235.5C1523.45,-226.574 1431.4,-212.051 1352,-199 1237.43,-180.17 1103.75,-157.271 1028.47,-144.291"/>
<polygon fill="midnightblue" stroke="midnightblue" points="1028.7,-140.778 1018.25,-142.527 1027.51,-147.676 1028.7,-140.778"/>
</g>
<!-- Node18&#45;&gt;Node5 -->
<g id="edge27" class="edge"><title>Node18&#45;&gt;Node5</title>
<path fill="none" stroke="midnightblue" d="M1632.92,-235.465C1627.6,-214.788 1612.05,-160.925 1586,-123 1578.45,-112.006 1568.13,-101.617 1558.54,-93.1534"/>
<polygon fill="midnightblue" stroke="midnightblue" points="1560.62,-90.326 1550.73,-86.5256 1556.09,-95.6638 1560.62,-90.326"/>
</g>
<!-- Node18&#45;&gt;Node10 -->
<g id="edge32" class="edge"><title>Node18&#45;&gt;Node10</title>
<path fill="none" stroke="midnightblue" d="M1580.62,-235.488C1529.81,-227.233 1451.96,-213.812 1385,-199 1350.9,-191.456 1343.01,-186.957 1309,-179 1188.4,-150.784 1158.72,-139.744 1036,-123 767.206,-86.3263 439.053,-75.7215 336.317,-73.1924"/>
<polygon fill="midnightblue" stroke="midnightblue" points="336.35,-69.6923 326.269,-72.9534 336.183,-76.6903 336.35,-69.6923"/>
</g>
<!-- Node18&#45;&gt;Node15 -->
<g id="edge29" class="edge"><title>Node18&#45;&gt;Node15</title>
<path fill="none" stroke="midnightblue" d="M1690.62,-235.444C1753.13,-225.826 1854.52,-210.228 1920.73,-200.041"/>
<polygon fill="midnightblue" stroke="midnightblue" points="1921.29,-203.496 1930.64,-198.516 1920.23,-196.578 1921.29,-203.496"/>
</g>
<!-- Node18&#45;&gt;Node17 -->
<g id="edge34" class="edge"><title>Node18&#45;&gt;Node17</title>
<path fill="none" stroke="midnightblue" d="M1639.93,-254.658C1641.43,-261.655 1642.01,-271.857 1641.64,-281.289"/>
<polygon fill="midnightblue" stroke="midnightblue" points="1638.14,-281.153 1640.84,-291.399 1645.12,-281.709 1638.14,-281.153"/>
</g>
<!-- Node19 -->
<g id="node19" class="node"><title>Node19</title>
<polygon fill="white" stroke="#bfbfbf" points="1502,-123.5 1502,-142.5 1562,-142.5 1562,-123.5 1502,-123.5"/>
<text text-anchor="middle" x="1532" y="-130.5" font-family="Helvetica,sans-Serif" font-size="10.00">dmlc/io.h</text>
</g>
<!-- Node18&#45;&gt;Node19 -->
<g id="edge26" class="edge"><title>Node18&#45;&gt;Node19</title>
<path fill="none" stroke="midnightblue" d="M1626.92,-235.368C1609.69,-216.974 1569.15,-173.671 1547.03,-150.052"/>
<polygon fill="midnightblue" stroke="midnightblue" points="1549.43,-147.499 1540.04,-142.591 1544.32,-152.283 1549.43,-147.499"/>
</g>
<!-- Node18&#45;&gt;Node20 -->
<g id="edge30" class="edge"><title>Node18&#45;&gt;Node20</title>
<path fill="none" stroke="midnightblue" d="M1654.97,-235.444C1675.61,-226.596 1708.06,-212.687 1731.63,-202.586"/>
<polygon fill="midnightblue" stroke="midnightblue" points="1733.32,-205.673 1741.13,-198.516 1730.56,-199.239 1733.32,-205.673"/>
</g>
<!-- Node18&#45;&gt;Node21 -->
<g id="edge31" class="edge"><title>Node18&#45;&gt;Node21</title>
<path fill="none" stroke="midnightblue" d="M1572.96,-236.097C1569.6,-235.714 1566.26,-235.346 1563,-235 1381.74,-215.759 1163.94,-198.724 1081.67,-192.506"/>
<polygon fill="midnightblue" stroke="midnightblue" points="1081.88,-189.012 1071.64,-191.751 1081.35,-195.992 1081.88,-189.012"/>
</g>
<!-- Node22 -->
<g id="node22" class="node"><title>Node22</title>
<polygon fill="white" stroke="#bfbfbf" points="2182.5,-179.5 2182.5,-198.5 2275.5,-198.5 2275.5,-179.5 2182.5,-179.5"/>
<text text-anchor="middle" x="2229" y="-186.5" font-family="Helvetica,sans-Serif" font-size="10.00">unordered_map</text>
</g>
<!-- Node18&#45;&gt;Node22 -->
<g id="edge33" class="edge"><title>Node18&#45;&gt;Node22</title>
<path fill="none" stroke="midnightblue" d="M1697.17,-238.349C1813.14,-227.805 2060.82,-205.289 2172.42,-195.144"/>
<polygon fill="midnightblue" stroke="midnightblue" points="2172.82,-198.622 2182.46,-194.231 2172.19,-191.65 2172.82,-198.622"/>
</g>
<!-- Node23&#45;&gt;Node3 -->
<g id="edge37" class="edge"><title>Node23&#45;&gt;Node3</title>
<path fill="none" stroke="midnightblue" d="M1386.67,-235.467C1346.59,-227.689 1287.87,-214.988 1238,-199 1215.99,-191.945 1212.09,-185.782 1190,-179 1139.47,-163.49 1080.79,-151.825 1036.59,-144.263"/>
<polygon fill="midnightblue" stroke="midnightblue" points="1036.98,-140.779 1026.54,-142.57 1035.82,-147.682 1036.98,-140.779"/>
</g>
<!-- Node23&#45;&gt;Node5 -->
<g id="edge36" class="edge"><title>Node23&#45;&gt;Node5</title>
<path fill="none" stroke="midnightblue" d="M1463.22,-235.459C1484.29,-228.239 1512.51,-216.284 1533,-199 1555.99,-179.609 1562.17,-171.752 1571,-143 1576.34,-125.616 1566.2,-107.705 1554.92,-94.2869"/>
<polygon fill="midnightblue" stroke="midnightblue" points="1557.2,-91.5937 1547.88,-86.5574 1552.03,-96.3073 1557.2,-91.5937"/>
</g>
<!-- Node23&#45;&gt;Node11 -->
<g id="edge45" class="edge"><title>Node23&#45;&gt;Node11</title>
<path fill="none" stroke="midnightblue" d="M1457.8,-235.457C1482.79,-226.468 1523.2,-211.864 1558,-199 1670.74,-157.321 1804.29,-106.652 1863.33,-84.1885"/>
<polygon fill="midnightblue" stroke="midnightblue" points="1864.7,-87.409 1872.8,-80.5803 1862.21,-80.867 1864.7,-87.409"/>
</g>
<!-- Node23&#45;&gt;Node12 -->
<g id="edge43" class="edge"><title>Node23&#45;&gt;Node12</title>
<path fill="none" stroke="midnightblue" d="M1417.44,-235.495C1363.35,-207.723 1191.62,-119.545 1125.91,-85.806"/>
<polygon fill="midnightblue" stroke="midnightblue" points="1127.16,-82.5103 1116.66,-81.056 1123.96,-88.7374 1127.16,-82.5103"/>
</g>
<!-- Node23&#45;&gt;Node21 -->
<g id="edge44" class="edge"><title>Node23&#45;&gt;Node21</title>
<path fill="none" stroke="midnightblue" d="M1372.84,-235.444C1290.48,-223.922 1146.76,-203.816 1081.7,-194.715"/>
<polygon fill="midnightblue" stroke="midnightblue" points="1081.98,-191.22 1071.59,-193.301 1081.01,-198.152 1081.98,-191.22"/>
</g>
<!-- Node24 -->
<g id="node24" class="node"><title>Node24</title>
<g id="a_node24"><a xlink:href="serializer_8h.html" target="_top" xlink:title="Serializer extension to support TVM data types Include this file to enable serialization of DLDataTyp...">
<polygon fill="white" stroke="black" points="1394,-179.5 1394,-198.5 1524,-198.5 1524,-179.5 1394,-179.5"/>
<text text-anchor="middle" x="1459" y="-186.5" font-family="Helvetica,sans-Serif" font-size="10.00">tvm/runtime/serializer.h</text>
</a>
</g>
</g>
<!-- Node23&#45;&gt;Node24 -->
<g id="edge38" class="edge"><title>Node23&#45;&gt;Node24</title>
<path fill="none" stroke="midnightblue" d="M1432.96,-235.083C1434.84,-227.613 1439.49,-216.724 1444.52,-207.52"/>
<polygon fill="midnightblue" stroke="midnightblue" points="1447.65,-209.121 1449.82,-198.751 1441.65,-205.503 1447.65,-209.121"/>
</g>
<!-- Node24&#45;&gt;Node5 -->
<g id="edge41" class="edge"><title>Node24&#45;&gt;Node5</title>
<path fill="none" stroke="midnightblue" d="M1462.94,-179.319C1468.85,-166.596 1480.63,-142.302 1493,-123 1499.18,-113.346 1506.74,-103.244 1513.55,-94.6335"/>
<polygon fill="midnightblue" stroke="midnightblue" points="1516.49,-96.5744 1520.04,-86.5926 1511.04,-92.1809 1516.49,-96.5744"/>
</g>
<!-- Node24&#45;&gt;Node19 -->
<g id="edge39" class="edge"><title>Node24&#45;&gt;Node19</title>
<path fill="none" stroke="midnightblue" d="M1470.73,-179.324C1481.84,-171.107 1498.74,-158.602 1511.98,-148.807"/>
<polygon fill="midnightblue" stroke="midnightblue" points="1514.1,-151.595 1520.06,-142.834 1509.94,-145.967 1514.1,-151.595"/>
</g>
<!-- Node24&#45;&gt;Node23 -->
<g id="edge42" class="edge"><title>Node24&#45;&gt;Node23</title>
<path fill="none" stroke="midnightblue" d="M1460.08,-198.751C1458.24,-206.17 1453.62,-217.045 1448.59,-226.275"/>
<polygon fill="midnightblue" stroke="midnightblue" points="1445.45,-224.709 1443.29,-235.083 1451.45,-228.315 1445.45,-224.709"/>
</g>
<!-- Node25 -->
<g id="node25" class="node"><title>Node25</title>
<polygon fill="white" stroke="#bfbfbf" points="1352,-123.5 1352,-142.5 1446,-142.5 1446,-123.5 1352,-123.5"/>
<text text-anchor="middle" x="1399" y="-130.5" font-family="Helvetica,sans-Serif" font-size="10.00">dmlc/serializer.h</text>
</g>
<!-- Node24&#45;&gt;Node25 -->
<g id="edge40" class="edge"><title>Node24&#45;&gt;Node25</title>
<path fill="none" stroke="midnightblue" d="M1449.36,-179.324C1440.49,-171.341 1427.13,-159.313 1416.39,-149.653"/>
<polygon fill="midnightblue" stroke="midnightblue" points="1418.59,-146.922 1408.82,-142.834 1413.91,-152.125 1418.59,-146.922"/>
</g>
<!-- Node26&#45;&gt;Node4 -->
<g id="edge48" class="edge"><title>Node26&#45;&gt;Node4</title>
<path fill="none" stroke="midnightblue" d="M626.673,-235.349C625.106,-222.237 623.861,-196.961 634,-179 661.853,-129.658 723.057,-99.6068 762.858,-84.5233"/>
<polygon fill="midnightblue" stroke="midnightblue" points="764.29,-87.7265 772.483,-81.0084 761.889,-81.1513 764.29,-87.7265"/>
</g>
<!-- Node26&#45;&gt;Node5 -->
<g id="edge47" class="edge"><title>Node26&#45;&gt;Node5</title>
<path fill="none" stroke="midnightblue" d="M642.456,-235.466C682.135,-212.522 796.732,-149.461 901,-123 1004.64,-96.6994 1315.27,-81.205 1458.36,-75.2841"/>
<polygon fill="midnightblue" stroke="midnightblue" points="1458.52,-78.7806 1468.37,-74.8743 1458.23,-71.7864 1458.52,-78.7806"/>
</g>
<!-- Node26&#45;&gt;Node9 -->
<g id="edge49" class="edge"><title>Node26&#45;&gt;Node9</title>
<path fill="none" stroke="midnightblue" d="M696.157,-239.831C722.642,-238.253 753.234,-236.481 781,-235 1115.13,-217.175 1200.91,-239.925 1533,-199 1703.94,-177.934 1742.97,-150.461 1913,-123 2045.22,-101.646 2202.76,-84.5192 2277.9,-76.8553"/>
<polygon fill="midnightblue" stroke="midnightblue" points="2278.35,-80.328 2287.94,-75.8373 2277.64,-73.3636 2278.35,-80.328"/>
</g>
<!-- Node26&#45;&gt;Node10 -->
<g id="edge50" class="edge"><title>Node26&#45;&gt;Node10</title>
<path fill="none" stroke="midnightblue" d="M619.329,-235.339C596.921,-213.416 534.458,-155.188 472,-123 427.593,-100.115 371.12,-85.8236 336.275,-78.5091"/>
<polygon fill="midnightblue" stroke="midnightblue" points="336.689,-75.0218 326.192,-76.4612 335.296,-81.8817 336.689,-75.0218"/>
</g>
<!-- Node32&#45;&gt;Node3 -->
<g id="edge70" class="edge"><title>Node32&#45;&gt;Node3</title>
<path fill="none" stroke="midnightblue" d="M1195.34,-537.432C1182.59,-528.658 1162.5,-514.44 1146,-501 1130.15,-488.085 1128.04,-482.684 1112,-470 1049.53,-420.607 964,-448.635 964,-369 964,-369 964,-369 964,-305.5 964,-250.033 966.645,-184.519 968.088,-152.921"/>
<polygon fill="midnightblue" stroke="midnightblue" points="971.601,-152.716 968.574,-142.563 964.609,-152.388 971.601,-152.716"/>
</g>
<!-- Node32&#45;&gt;Node5 -->
<g id="edge69" class="edge"><title>Node32&#45;&gt;Node5</title>
<path fill="none" stroke="midnightblue" d="M1204.51,-537.485C1198.68,-523.345 1186.45,-494.184 1175,-470 1156.51,-430.939 1078.89,-329.253 1099,-291 1169.33,-157.194 1353.95,-103.603 1457.99,-83.5248"/>
<polygon fill="midnightblue" stroke="midnightblue" points="1458.92,-86.9109 1468.1,-81.6288 1457.63,-80.0306 1458.92,-86.9109"/>
</g>
<!-- Node32&#45;&gt;Node9 -->
<g id="edge103" class="edge"><title>Node32&#45;&gt;Node9</title>
<path fill="none" stroke="midnightblue" d="M1267.57,-541.084C1337.24,-534.694 1455.8,-521.821 1556,-501 1688.69,-473.429 2015.67,-378.176 2139,-322 2222.24,-284.086 2257.47,-277.747 2304,-199 2317.52,-176.115 2320.26,-169.155 2325,-143 2326.59,-134.254 2325.26,-131.885 2325,-123 2324.69,-112.515 2324.01,-100.821 2323.38,-91.3285"/>
<polygon fill="midnightblue" stroke="midnightblue" points="2326.86,-90.8014 2322.66,-81.0711 2319.87,-91.2916 2326.86,-90.8014"/>
</g>
<!-- Node32&#45;&gt;Node10 -->
<g id="edge102" class="edge"><title>Node32&#45;&gt;Node10</title>
<path fill="none" stroke="midnightblue" d="M1148.25,-543.939C1002.94,-538.603 639.309,-523.19 589,-501 423.725,-428.103 376.792,-369.454 317,-199 308.575,-174.981 307.861,-168.293 305,-143 303.024,-125.532 302.95,-105.477 303.266,-91.2337"/>
<polygon fill="midnightblue" stroke="midnightblue" points="306.765,-91.3205 303.575,-81.2176 299.769,-91.1052 306.765,-91.3205"/>
</g>
<!-- Node32&#45;&gt;Node15 -->
<g id="edge71" class="edge"><title>Node32&#45;&gt;Node15</title>
<path fill="none" stroke="midnightblue" d="M1267.56,-538.261C1322.94,-530.566 1407.55,-517.537 1480,-501 1565.19,-481.553 2177.83,-327.236 2227,-255 2232,-247.652 2232.68,-241.838 2227,-235 2206.01,-209.722 2122.66,-198.566 2059.82,-193.693"/>
<polygon fill="midnightblue" stroke="midnightblue" points="2059.76,-190.179 2049.53,-192.936 2059.25,-197.16 2059.76,-190.179"/>
</g>
<!-- Node32&#45;&gt;Node17 -->
<g id="edge72" class="edge"><title>Node32&#45;&gt;Node17</title>
<path fill="none" stroke="midnightblue" d="M1258.88,-537.423C1302.75,-529.535 1367.6,-516.7 1423,-501 1462.09,-489.922 1470.42,-482.731 1509,-470 1561.88,-452.553 1594.71,-477.873 1629,-434 1651.71,-404.942 1647.24,-359.656 1641.45,-331.881"/>
<polygon fill="midnightblue" stroke="midnightblue" points="1644.79,-330.787 1639.14,-321.826 1637.97,-332.356 1644.79,-330.787"/>
</g>
<!-- Node32&#45;&gt;Node21 -->
<g id="edge101" class="edge"><title>Node32&#45;&gt;Node21</title>
<path fill="none" stroke="midnightblue" d="M1200.52,-537.364C1176.32,-508.898 1099.81,-414.553 1066,-322 1051.9,-283.395 1048.7,-234.782 1048.06,-208.656"/>
<polygon fill="midnightblue" stroke="midnightblue" points="1051.56,-208.59 1047.92,-198.641 1044.56,-208.689 1051.56,-208.59"/>
</g>
<!-- Node32&#45;&gt;Node23 -->
<g id="edge73" class="edge"><title>Node32&#45;&gt;Node23</title>
<path fill="none" stroke="midnightblue" d="M1217.89,-537.331C1244.38,-513.753 1318.17,-445.685 1366,-378 1392.68,-340.254 1415.34,-290.631 1426.53,-264.283"/>
<polygon fill="midnightblue" stroke="midnightblue" points="1429.86,-265.387 1430.48,-254.81 1423.4,-262.693 1429.86,-265.387"/>
</g>
<!-- Node32&#45;&gt;Node26 -->
<g id="edge74" class="edge"><title>Node32&#45;&gt;Node26</title>
<path fill="none" stroke="midnightblue" d="M1148.38,-540.419C1101.95,-534.586 1036.6,-523.067 983,-501 835.716,-440.361 691.301,-307.734 644.063,-261.932"/>
<polygon fill="midnightblue" stroke="midnightblue" points="646.221,-259.147 636.626,-254.655 641.326,-264.15 646.221,-259.147"/>
</g>
<!-- Node32&#45;&gt;Node33 -->
<g id="edge75" class="edge"><title>Node32&#45;&gt;Node33</title>
<path fill="none" stroke="midnightblue" d="M1148.48,-543.058C1057.84,-538.024 879.692,-525.948 719.783,-501.161"/>
<polygon fill="midnightblue" stroke="midnightblue" points="720.186,-497.681 709.764,-499.587 719.1,-504.596 720.186,-497.681"/>
</g>
<!-- Node32&#45;&gt;Node36 -->
<g id="edge95" class="edge"><title>Node32&#45;&gt;Node36</title>
<path fill="none" stroke="midnightblue" d="M1185.08,-537.475C1161.79,-528.814 1125.03,-515.145 1095.44,-504.141"/>
<polygon fill="midnightblue" stroke="midnightblue" points="1096.3,-500.728 1085.71,-500.523 1093.86,-507.289 1096.3,-500.728"/>
</g>
<!-- Node33&#45;&gt;Node10 -->
<g id="edge94" class="edge"><title>Node33&#45;&gt;Node10</title>
<path fill="none" stroke="midnightblue" d="M631.923,-470.328C581.064,-436.992 453.32,-349.282 366,-255 345.562,-232.932 339.487,-226.798 328,-199 312.972,-162.632 307.263,-116.463 305.163,-91.1703"/>
<polygon fill="midnightblue" stroke="midnightblue" points="308.649,-90.8476 304.432,-81.1284 301.668,-91.3562 308.649,-90.8476"/>
</g>
<!-- Node33&#45;&gt;Node26 -->
<g id="edge76" class="edge"><title>Node33&#45;&gt;Node26</title>
<path fill="none" stroke="midnightblue" d="M652.451,-470.295C647.997,-429.433 635.146,-311.551 630.084,-265.12"/>
<polygon fill="midnightblue" stroke="midnightblue" points="633.538,-264.507 628.975,-254.946 626.58,-265.266 633.538,-264.507"/>
</g>
<!-- Node34 -->
<g id="node34" class="node"><title>Node34</title>
<g id="a_node34"><a xlink:href="functor_8h.html" target="_top" xlink:title="Defines the Functor data structures. ">
<polygon fill="white" stroke="black" points="790.5,-235.5 790.5,-254.5 897.5,-254.5 897.5,-235.5 790.5,-235.5"/>
<text text-anchor="middle" x="844" y="-242.5" font-family="Helvetica,sans-Serif" font-size="10.00">tvm/node/functor.h</text>
</a>
</g>
</g>
<!-- Node33&#45;&gt;Node34 -->
<g id="edge77" class="edge"><title>Node33&#45;&gt;Node34</title>
<path fill="none" stroke="midnightblue" d="M663.416,-470.32C685.433,-437.523 742.622,-354.386 798,-291 807.004,-280.694 817.924,-269.947 826.865,-261.541"/>
<polygon fill="midnightblue" stroke="midnightblue" points="829.446,-263.921 834.407,-254.559 824.691,-258.784 829.446,-263.921"/>
</g>
<!-- Node33&#45;&gt;Node35 -->
<g id="edge83" class="edge"><title>Node33&#45;&gt;Node35</title>
<path fill="none" stroke="midnightblue" d="M709.745,-471.286C712.529,-470.809 715.292,-470.376 718,-470 1002.95,-430.406 1346.54,-425.074 1491.31,-424.74"/>
<polygon fill="midnightblue" stroke="midnightblue" points="1491.4,-428.24 1501.39,-424.725 1491.39,-421.24 1491.4,-428.24"/>
</g>
<!-- Node34&#45;&gt;Node3 -->
<g id="edge79" class="edge"><title>Node34&#45;&gt;Node3</title>
<path fill="none" stroke="midnightblue" d="M851.542,-235.079C862.759,-222.058 884.797,-197.396 906,-179 918.908,-167.801 934.534,-156.626 946.994,-148.214"/>
<polygon fill="midnightblue" stroke="midnightblue" points="949.03,-151.064 955.424,-142.616 945.157,-145.233 949.03,-151.064"/>
</g>
<!-- Node34&#45;&gt;Node4 -->
<g id="edge78" class="edge"><title>Node34&#45;&gt;Node4</title>
<path fill="none" stroke="midnightblue" d="M841.758,-235.26C834.901,-208.536 814.115,-127.517 804.711,-90.8618"/>
<polygon fill="midnightblue" stroke="midnightblue" points="808.061,-89.8358 802.186,-81.0194 801.281,-91.5755 808.061,-89.8358"/>
</g>
<!-- Node34&#45;&gt;Node9 -->
<g id="edge81" class="edge"><title>Node34&#45;&gt;Node9</title>
<path fill="none" stroke="midnightblue" d="M896.322,-235.46C944.343,-227.282 1017.33,-213.996 1080,-199 1198.33,-170.686 1223.01,-143.156 1343,-123 1435.82,-107.408 2099.27,-81.0534 2277.84,-74.1798"/>
<polygon fill="midnightblue" stroke="midnightblue" points="2278.06,-77.6738 2287.92,-73.7925 2277.79,-70.6789 2278.06,-77.6738"/>
</g>
<!-- Node34&#45;&gt;Node11 -->
<g id="edge82" class="edge"><title>Node34&#45;&gt;Node11</title>
<path fill="none" stroke="midnightblue" d="M863.391,-235.424C894.732,-221.839 958.701,-195.251 1015,-179 1136.09,-144.046 1168.22,-140.75 1293,-123 1509.91,-92.1438 1773.75,-77.991 1862.89,-73.8505"/>
<polygon fill="midnightblue" stroke="midnightblue" points="1863.05,-77.3469 1872.88,-73.3947 1862.73,-70.3542 1863.05,-77.3469"/>
</g>
<!-- Node34&#45;&gt;Node21 -->
<g id="edge80" class="edge"><title>Node34&#45;&gt;Node21</title>
<path fill="none" stroke="midnightblue" d="M876.324,-235.444C914.013,-225.467 976.012,-209.056 1014.29,-198.924"/>
<polygon fill="midnightblue" stroke="midnightblue" points="1015.64,-202.186 1024.41,-196.244 1013.85,-195.419 1015.64,-202.186"/>
</g>
<!-- Node35&#45;&gt;Node3 -->
<g id="edge84" class="edge"><title>Node35&#45;&gt;Node3</title>
<path fill="none" stroke="midnightblue" d="M1550.34,-414.297C1534.59,-401.548 1504.06,-377.222 1477,-358 1432.48,-326.374 1422.87,-315.378 1374,-291 1266.94,-237.589 1231.14,-245.737 1121,-199 1102.34,-191.08 1098.52,-187.258 1080,-179 1053.53,-167.196 1022.98,-154.906 1000.64,-146.159"/>
<polygon fill="midnightblue" stroke="midnightblue" points="1001.89,-142.889 991.302,-142.521 999.35,-149.412 1001.89,-142.889"/>
</g>
<!-- Node35&#45;&gt;Node9 -->
<g id="edge88" class="edge"><title>Node35&#45;&gt;Node9</title>
<path fill="none" stroke="midnightblue" d="M1620.73,-419.718C1743.11,-410.588 2027.54,-376.834 2227,-255 2257.31,-236.488 2265.65,-229.405 2284,-199 2305.06,-164.112 2315.19,-116.706 2319.42,-90.9707"/>
<polygon fill="midnightblue" stroke="midnightblue" points="2322.88,-91.4932 2320.93,-81.0803 2315.96,-90.4396 2322.88,-91.4932"/>
</g>
<!-- Node35&#45;&gt;Node10 -->
<g id="edge93" class="edge"><title>Node35&#45;&gt;Node10</title>
<path fill="none" stroke="midnightblue" d="M1501.28,-423.256C1354.61,-422.409 966.177,-411.18 658,-322 592.507,-303.048 577.151,-292.179 520,-255 438.853,-202.21 354.558,-122.463 320.112,-88.6103"/>
<polygon fill="midnightblue" stroke="midnightblue" points="322.386,-85.9366 312.816,-81.3908 317.463,-90.9124 322.386,-85.9366"/>
</g>
<!-- Node35&#45;&gt;Node11 -->
<g id="edge92" class="edge"><title>Node35&#45;&gt;Node11</title>
<path fill="none" stroke="midnightblue" d="M1606.75,-414.497C1645.82,-406.698 1703.27,-393.948 1752,-378 1782.28,-368.088 1856.16,-337.507 1884,-322 1889.17,-319.119 2055.28,-204.256 2058,-199 2089.83,-137.525 1981.04,-96.9705 1925.12,-80.6377"/>
<polygon fill="midnightblue" stroke="midnightblue" points="1925.92,-77.2257 1915.35,-77.8703 1924.01,-83.9612 1925.92,-77.2257"/>
</g>
<!-- Node35&#45;&gt;Node14 -->
<g id="edge87" class="edge"><title>Node35&#45;&gt;Node14</title>
<path fill="none" stroke="midnightblue" d="M1518.22,-414.444C1470.82,-404.964 1394.37,-389.675 1343.42,-379.483"/>
<polygon fill="midnightblue" stroke="midnightblue" points="1344.07,-376.046 1333.58,-377.516 1342.7,-382.91 1344.07,-376.046"/>
</g>
<!-- Node35&#45;&gt;Node15 -->
<g id="edge85" class="edge"><title>Node35&#45;&gt;Node15</title>
<path fill="none" stroke="midnightblue" d="M1590.32,-414.463C1654.23,-395.573 1804,-349.718 1849,-322 1901.53,-289.646 1950.34,-234.234 1972.89,-206.635"/>
<polygon fill="midnightblue" stroke="midnightblue" points="1975.72,-208.701 1979.26,-198.716 1970.27,-204.313 1975.72,-208.701"/>
</g>
<!-- Node35&#45;&gt;Node17 -->
<g id="edge86" class="edge"><title>Node35&#45;&gt;Node17</title>
<path fill="none" stroke="midnightblue" d="M1566.56,-414.319C1577.88,-396.657 1603.9,-356.039 1620.4,-330.289"/>
<polygon fill="midnightblue" stroke="midnightblue" points="1623.55,-331.854 1626,-321.545 1617.66,-328.077 1623.55,-331.854"/>
</g>
<!-- Node35&#45;&gt;Node21 -->
<g id="edge89" class="edge"><title>Node35&#45;&gt;Node21</title>
<path fill="none" stroke="midnightblue" d="M1545.61,-414.372C1503.65,-390.841 1389.86,-326.969 1382,-322 1361.78,-309.217 1359.87,-300.701 1338,-291 1271.37,-261.442 1246.66,-279.478 1178,-255 1139.01,-241.099 1096.61,-218.323 1071.18,-203.755"/>
<polygon fill="midnightblue" stroke="midnightblue" points="1072.71,-200.598 1062.31,-198.608 1069.2,-206.653 1072.71,-200.598"/>
</g>
<!-- Node35&#45;&gt;Node22 -->
<g id="edge91" class="edge"><title>Node35&#45;&gt;Node22</title>
<path fill="none" stroke="midnightblue" d="M1620.72,-414.557C1670.46,-406.913 1742.94,-394.351 1805,-378 1878.67,-358.592 1898.51,-355.35 1967,-322 1989.83,-310.882 1992.48,-302.747 2015,-291 2052.46,-271.453 2064.63,-272.704 2103,-255 2138.87,-238.449 2179.29,-217.103 2204.45,-203.479"/>
<polygon fill="midnightblue" stroke="midnightblue" points="2206.2,-206.515 2213.31,-198.662 2202.85,-200.366 2206.2,-206.515"/>
</g>
<!-- Node35&#45;&gt;Node31 -->
<g id="edge90" class="edge"><title>Node35&#45;&gt;Node31</title>
<path fill="none" stroke="midnightblue" d="M1540.71,-414.319C1493.39,-394.077 1375.58,-343.682 1320.4,-320.075"/>
<polygon fill="midnightblue" stroke="midnightblue" points="1321.73,-316.84 1311.16,-316.124 1318.98,-323.275 1321.73,-316.84"/>
</g>
<!-- Node36&#45;&gt;Node10 -->
<g id="edge99" class="edge"><title>Node36&#45;&gt;Node10</title>
<path fill="none" stroke="midnightblue" d="M1003.52,-470.434C972.257,-460.466 929.487,-446.667 892,-434 750.042,-386.033 705.385,-394.049 574,-322 496.277,-279.379 484.59,-256.35 417,-199 388.938,-175.189 380.592,-170.38 356,-143 340.661,-125.922 325.333,-104.474 315.335,-89.7468"/>
<polygon fill="midnightblue" stroke="midnightblue" points="318.057,-87.52 309.589,-81.1526 312.238,-91.4109 318.057,-87.52"/>
</g>
<!-- Node36&#45;&gt;Node26 -->
<g id="edge96" class="edge"><title>Node36&#45;&gt;Node26</title>
<path fill="none" stroke="midnightblue" d="M1010.2,-470.494C986.401,-461.18 955.309,-448.101 929,-434 827.197,-379.438 811.231,-350.11 712,-291 692.989,-279.676 670.914,-267.901 654.166,-259.238"/>
<polygon fill="midnightblue" stroke="midnightblue" points="655.479,-255.977 644.984,-254.523 652.281,-262.204 655.479,-255.977"/>
</g>
<!-- Node36&#45;&gt;Node27 -->
<g id="edge100" class="edge"><title>Node36&#45;&gt;Node27</title>
<path fill="none" stroke="midnightblue" d="M1103.63,-482.537C1207.5,-478.237 1437.72,-465.71 1629,-434 1731.51,-417.005 1756.75,-408.777 1856,-378 1923.57,-357.047 1939.24,-348.079 2005,-322 2059.26,-300.482 2121.96,-273.921 2157.8,-258.575"/>
<polygon fill="midnightblue" stroke="midnightblue" points="2159.36,-261.716 2167.17,-254.558 2156.6,-255.283 2159.36,-261.716"/>
</g>
<!-- Node36&#45;&gt;Node34 -->
<g id="edge97" class="edge"><title>Node36&#45;&gt;Node34</title>
<path fill="none" stroke="midnightblue" d="M1008.42,-470.376C989.11,-462.025 966.543,-449.933 950,-434 897.415,-383.355 863.472,-300.897 850.255,-264.39"/>
<polygon fill="midnightblue" stroke="midnightblue" points="853.439,-262.895 846.821,-254.622 846.835,-265.217 853.439,-262.895"/>
</g>
<!-- Node36&#45;&gt;Node35 -->
<g id="edge98" class="edge"><title>Node36&#45;&gt;Node35</title>
<path fill="none" stroke="midnightblue" d="M1103.88,-478.019C1198.12,-467.088 1388.43,-445.015 1491.27,-433.088"/>
<polygon fill="midnightblue" stroke="midnightblue" points="1491.71,-436.56 1501.24,-431.931 1490.91,-429.606 1491.71,-436.56"/>
</g>
<!-- Node37&#45;&gt;Node34 -->
<g id="edge105" class="edge"><title>Node37&#45;&gt;Node34</title>
<path fill="none" stroke="midnightblue" d="M796.414,-537.345C803.092,-496.455 831.552,-322.212 840.964,-264.586"/>
<polygon fill="midnightblue" stroke="midnightblue" points="844.423,-265.123 842.581,-254.69 837.514,-263.995 844.423,-265.123"/>
</g>
<!-- Node38 -->
<g id="node38" class="node"><title>Node38</title>
<polygon fill="white" stroke="#bfbfbf" points="727.5,-476 727.5,-495 786.5,-495 786.5,-476 727.5,-476"/>
<text text-anchor="middle" x="757" y="-483" font-family="Helvetica,sans-Serif" font-size="10.00">iostream</text>
</g>
<!-- Node37&#45;&gt;Node38 -->
<g id="edge106" class="edge"><title>Node37&#45;&gt;Node38</title>
<path fill="none" stroke="midnightblue" d="M789.556,-537.475C783.912,-528.638 774.939,-514.589 767.841,-503.475"/>
<polygon fill="midnightblue" stroke="midnightblue" points="770.767,-501.553 762.434,-495.009 764.867,-505.321 770.767,-501.553"/>
</g>
<!-- Node39&#45;&gt;Node3 -->
<g id="edge116" class="edge"><title>Node39&#45;&gt;Node3</title>
<path fill="none" stroke="midnightblue" d="M234.954,-649.458C232.786,-630.982 228,-585.912 228,-548 228,-548 228,-548 228,-367 228,-302.184 239.149,-275.191 290,-235 383.686,-160.954 746.768,-140.944 900.074,-135.745"/>
<polygon fill="midnightblue" stroke="midnightblue" points="900.424,-139.235 910.303,-135.41 900.194,-132.239 900.424,-139.235"/>
</g>
<!-- Node39&#45;&gt;Node10 -->
<g id="edge118" class="edge"><title>Node39&#45;&gt;Node10</title>
<path fill="none" stroke="midnightblue" d="M222.875,-649.463C199.25,-632.943 152,-594.135 152,-548 152,-548 152,-548 152,-188 152,-128.195 227.518,-95.3149 272.095,-81.1157"/>
<polygon fill="midnightblue" stroke="midnightblue" points="273.349,-84.3924 281.898,-78.1337 271.312,-77.6954 273.349,-84.3924"/>
</g>
<!-- Node39&#45;&gt;Node13 -->
<g id="edge117" class="edge"><title>Node39&#45;&gt;Node13</title>
<path fill="none" stroke="midnightblue" d="M276.112,-655.116C400.484,-646.173 780.1,-618.877 927.554,-608.274"/>
<polygon fill="midnightblue" stroke="midnightblue" points="928.04,-611.749 937.763,-607.54 927.537,-604.767 928.04,-611.749"/>
</g>
<!-- Node40&#45;&gt;Node3 -->
<g id="edge120" class="edge"><title>Node40&#45;&gt;Node3</title>
<path fill="none" stroke="midnightblue" d="M488.776,-705.252C471.606,-675.642 418,-576.031 418,-486.5 418,-486.5 418,-486.5 418,-423 418,-326.639 450.71,-295.141 526,-235 583.303,-189.228 791.081,-156.663 900.507,-142.268"/>
<polygon fill="midnightblue" stroke="midnightblue" points="900.995,-145.734 910.46,-140.973 900.092,-138.792 900.995,-145.734"/>
</g>
<!-- Node40&#45;&gt;Node10 -->
<g id="edge125" class="edge"><title>Node40&#45;&gt;Node10</title>
<path fill="none" stroke="midnightblue" d="M455.377,-711.114C383.898,-705.319 233.986,-690.921 187,-669 147.632,-650.633 114,-647.442 114,-604 114,-604 114,-604 114,-188 114,-115.077 217.459,-86.8841 271.688,-77.1152"/>
<polygon fill="midnightblue" stroke="midnightblue" points="272.557,-80.5181 281.833,-75.3992 271.389,-73.6161 272.557,-80.5181"/>
</g>
<!-- Node40&#45;&gt;Node13 -->
<g id="edge122" class="edge"><title>Node40&#45;&gt;Node13</title>
<path fill="none" stroke="midnightblue" d="M532.275,-705.46C621.096,-685.642 841.076,-636.559 938.841,-614.745"/>
<polygon fill="midnightblue" stroke="midnightblue" points="939.752,-618.128 948.75,-612.535 938.228,-611.296 939.752,-618.128"/>
</g>
<!-- Node40&#45;&gt;Node26 -->
<g id="edge121" class="edge"><title>Node40&#45;&gt;Node26</title>
<path fill="none" stroke="midnightblue" d="M498.086,-705.233C513.872,-670.534 570,-539.135 570,-425 570,-425 570,-425 570,-367 570,-326.46 596.802,-285.123 613.967,-262.805"/>
<polygon fill="midnightblue" stroke="midnightblue" points="616.919,-264.716 620.418,-254.716 611.446,-260.352 616.919,-264.716"/>
</g>
<!-- Node40&#45;&gt;Node35 -->
<g id="edge123" class="edge"><title>Node40&#45;&gt;Node35</title>
<path fill="none" stroke="midnightblue" d="M532.629,-709.383C651.997,-694.546 1024.87,-643.914 1323,-557 1389.32,-537.665 1408.28,-535.736 1468,-501 1497.43,-483.881 1527.15,-457.682 1544.82,-440.95"/>
<polygon fill="midnightblue" stroke="midnightblue" points="1547.7,-443.037 1552.47,-433.578 1542.84,-437.996 1547.7,-443.037"/>
</g>
<!-- Node40&#45;&gt;Node39 -->
<g id="edge124" class="edge"><title>Node40&#45;&gt;Node39</title>
<path fill="none" stroke="midnightblue" d="M455.375,-705.916C410.266,-696.474 335.528,-680.832 286.02,-670.469"/>
<polygon fill="midnightblue" stroke="midnightblue" points="286.67,-667.03 276.165,-668.407 285.236,-673.881 286.67,-667.03"/>
</g>
<!-- Node42&#45;&gt;Node2 -->
<g id="edge132" class="edge"><title>Node42&#45;&gt;Node2</title>
<path fill="none" stroke="midnightblue" d="M2093.45,-822.499C1986.07,-812.993 1689.31,-786.723 1571.81,-776.321"/>
<polygon fill="midnightblue" stroke="midnightblue" points="1571.95,-772.819 1561.68,-775.424 1571.33,-779.792 1571.95,-772.819"/>
</g>
<!-- Node42&#45;&gt;Node9 -->
<g id="edge139" class="edge"><title>Node42&#45;&gt;Node9</title>
<path fill="none" stroke="midnightblue" d="M2172.84,-824.724C2280.89,-820.917 2573.63,-808.177 2607,-781 2630.44,-761.913 2627,-746.225 2627,-716 2627,-716 2627,-716 2627,-188 2627,-132.899 2450.7,-94.8202 2366.18,-79.7303"/>
<polygon fill="midnightblue" stroke="midnightblue" points="2366.55,-76.243 2356.1,-77.9626 2365.34,-83.1377 2366.55,-76.243"/>
</g>
<!-- Node42&#45;&gt;Node10 -->
<g id="edge140" class="edge"><title>Node42&#45;&gt;Node10</title>
<path fill="none" stroke="midnightblue" d="M2093.48,-826.06C1805.27,-826.25 38,-823.045 38,-716 38,-716 38,-716 38,-188 38,-87.1962 200.714,-73.4209 271.619,-72.2036"/>
<polygon fill="midnightblue" stroke="midnightblue" points="271.813,-75.702 281.779,-72.1054 271.745,-68.7024 271.813,-75.702"/>
</g>
<!-- Node42&#45;&gt;Node11 -->
<g id="edge141" class="edge"><title>Node42&#45;&gt;Node11</title>
<path fill="none" stroke="midnightblue" d="M2172.57,-821.75C2262.59,-810.984 2475,-778.916 2475,-716 2475,-716 2475,-716 2475,-305.5 2475,-237.432 2292.98,-146.225 2229,-123 2122.08,-84.189 1985.53,-75.1969 1925.13,-73.12"/>
<polygon fill="midnightblue" stroke="midnightblue" points="1925.2,-69.6206 1915.09,-72.8157 1924.98,-76.6173 1925.2,-69.6206"/>
</g>
<!-- Node42&#45;&gt;Node17 -->
<g id="edge135" class="edge"><title>Node42&#45;&gt;Node17</title>
<path fill="none" stroke="midnightblue" d="M2138.28,-817.231C2148.73,-799.043 2171,-755.601 2171,-716 2171,-716 2171,-716 2171,-602 2171,-468.288 2109.5,-427.049 1995,-358 1946.93,-329.011 1791.83,-315.925 1701.66,-310.639"/>
<polygon fill="midnightblue" stroke="midnightblue" points="1701.72,-307.136 1691.53,-310.062 1701.32,-314.125 1701.72,-307.136"/>
</g>
<!-- Node42&#45;&gt;Node21 -->
<g id="edge137" class="edge"><title>Node42&#45;&gt;Node21</title>
<path fill="none" stroke="midnightblue" d="M2124.03,-817.262C2076.31,-771.096 1846.3,-552.477 1629,-414 1522.89,-346.378 1491.09,-337.08 1374,-291 1269.72,-249.959 1141.57,-214.429 1081.75,-198.67"/>
<polygon fill="midnightblue" stroke="midnightblue" points="1082.3,-195.195 1071.74,-196.049 1080.52,-201.967 1082.3,-195.195"/>
</g>
<!-- Node42&#45;&gt;Node22 -->
<g id="edge136" class="edge"><title>Node42&#45;&gt;Node22</title>
<path fill="none" stroke="midnightblue" d="M2172.83,-820.892C2228.54,-811.265 2323,-784.798 2323,-716 2323,-716 2323,-716 2323,-305.5 2323,-260.709 2279.95,-223.644 2252.12,-204.362"/>
<polygon fill="midnightblue" stroke="midnightblue" points="2253.95,-201.378 2243.69,-198.74 2250.06,-207.201 2253.95,-201.378"/>
</g>
<!-- Node42&#45;&gt;Node27 -->
<g id="edge138" class="edge"><title>Node42&#45;&gt;Node27</title>
<path fill="none" stroke="midnightblue" d="M2153.64,-817.421C2186.5,-802.231 2247,-767.293 2247,-716 2247,-716 2247,-716 2247,-423 2247,-361.809 2214.44,-294.717 2197.29,-263.626"/>
<polygon fill="midnightblue" stroke="midnightblue" points="2200.3,-261.83 2192.32,-254.85 2194.2,-265.277 2200.3,-261.83"/>
</g>
<!-- Node42&#45;&gt;Node33 -->
<g id="edge133" class="edge"><title>Node42&#45;&gt;Node33</title>
<path fill="none" stroke="midnightblue" d="M2093.11,-819.666C2041.35,-811.339 1948.26,-796.002 1869,-781 1706.19,-750.185 1666.97,-734.987 1504,-705 1249.47,-658.164 1182.88,-663.235 929,-613 822.825,-591.991 777.885,-622.866 692,-557 676.795,-545.339 666.948,-525.802 661.097,-510.248"/>
<polygon fill="midnightblue" stroke="midnightblue" points="664.382,-509.038 657.813,-500.725 657.764,-511.32 664.382,-509.038"/>
</g>
<!-- Node42&#45;&gt;Node36 -->
<g id="edge134" class="edge"><title>Node42&#45;&gt;Node36</title>
<path fill="none" stroke="midnightblue" d="M2098.15,-817.435C1932.54,-776.613 1229.28,-601.923 1139,-557 1113.09,-544.107 1087.37,-523.239 1069.92,-507.546"/>
<polygon fill="midnightblue" stroke="midnightblue" points="1072.25,-504.931 1062.51,-500.747 1067.51,-510.088 1072.25,-504.931"/>
</g>
<!-- Node43 -->
<g id="node43" class="node"><title>Node43</title>
<polygon fill="white" stroke="#bfbfbf" points="2503.5,-761.5 2503.5,-780.5 2598.5,-780.5 2598.5,-761.5 2503.5,-761.5"/>
<text text-anchor="middle" x="2551" y="-768.5" font-family="Helvetica,sans-Serif" font-size="10.00">dmlc/common.h</text>
</g>
<!-- Node42&#45;&gt;Node43 -->
<g id="edge131" class="edge"><title>Node42&#45;&gt;Node43</title>
<path fill="none" stroke="midnightblue" d="M2172.54,-821.243C2238.28,-813.281 2374.18,-796.589 2489,-781 2490.3,-780.823 2491.62,-780.643 2492.95,-780.46"/>
<polygon fill="midnightblue" stroke="midnightblue" points="2493.87,-783.866 2503.29,-779.017 2492.9,-776.933 2493.87,-783.866"/>
</g>
</g>
</svg>
