<?xml version="1.0" encoding="UTF-8" standalone="no"?>
<!DOCTYPE svg PUBLIC "-//W3C//DTD SVG 1.1//EN"
 "http://www.w3.org/Graphics/SVG/1.1/DTD/svg11.dtd">
<!-- Generated by graphviz version 2.38.0 (20140413.2041)
 -->
<!-- Title: include/tvm/ir/type.h Pages: 1 -->
<svg width="2454pt" height="733pt"
 viewBox="0.00 0.00 2454.00 733.00" xmlns="http://www.w3.org/2000/svg" xmlns:xlink="http://www.w3.org/1999/xlink">
<g id="graph0" class="graph" transform="scale(1 1) rotate(0) translate(4 729)">
<title>include/tvm/ir/type.h</title>
<polygon fill="white" stroke="none" points="-4,4 -4,-729 2450,-729 2450,4 -4,4"/>
<!-- Node1 -->
<g id="node1" class="node"><title>Node1</title>
<polygon fill="#bfbfbf" stroke="black" points="1533,-705.5 1533,-724.5 1647,-724.5 1647,-705.5 1533,-705.5"/>
<text text-anchor="middle" x="1590" y="-712.5" font-family="Helvetica,sans-Serif" font-size="10.00">include/tvm/ir/type.h</text>
</g>
<!-- Node2 -->
<g id="node2" class="node"><title>Node2</title>
<g id="a_node2"><a xlink:href="object_8h.html" target="_top" xlink:title="A managed object in the TVM runtime. ">
<polygon fill="white" stroke="black" points="614.5,-123.5 614.5,-142.5 731.5,-142.5 731.5,-123.5 614.5,-123.5"/>
<text text-anchor="middle" x="673" y="-130.5" font-family="Helvetica,sans-Serif" font-size="10.00">tvm/runtime/object.h</text>
</a>
</g>
</g>
<!-- Node1&#45;&gt;Node2 -->
<g id="edge1" class="edge"><title>Node1&#45;&gt;Node2</title>
<path fill="none" stroke="midnightblue" d="M1532.8,-713.899C1384.32,-713.076 974.588,-707.218 636,-669 473.57,-650.666 274,-767.462 274,-604 274,-604 274,-604 274,-305.5 274,-163.512 489.908,-137.617 604.076,-133.85"/>
<polygon fill="midnightblue" stroke="midnightblue" points="604.229,-137.347 614.126,-133.567 604.032,-130.35 604.229,-137.347"/>
</g>
<!-- Node9 -->
<g id="node9" class="node"><title>Node9</title>
<polygon fill="white" stroke="#bfbfbf" points="2177,-62 2177,-81 2221,-81 2221,-62 2177,-62"/>
<text text-anchor="middle" x="2199" y="-69" font-family="Helvetica,sans-Serif" font-size="10.00">string</text>
</g>
<!-- Node1&#45;&gt;Node9 -->
<g id="edge119" class="edge"><title>Node1&#45;&gt;Node9</title>
<path fill="none" stroke="midnightblue" d="M1647.16,-712.682C1838.72,-707.516 2446,-684.769 2446,-604 2446,-604 2446,-604 2446,-188 2446,-94.3111 2298.37,-76.4515 2231.38,-73.1702"/>
<polygon fill="midnightblue" stroke="midnightblue" points="2231.49,-69.6719 2221.36,-72.7594 2231.2,-76.666 2231.49,-69.6719"/>
</g>
<!-- Node12 -->
<g id="node12" class="node"><title>Node12</title>
<g id="a_node12"><a xlink:href="data__type_8h.html" target="_top" xlink:title="tvm/runtime/data_type.h">
<polygon fill="white" stroke="black" points="634,-235.5 634,-254.5 770,-254.5 770,-235.5 634,-235.5"/>
<text text-anchor="middle" x="702" y="-242.5" font-family="Helvetica,sans-Serif" font-size="10.00">tvm/runtime/data_type.h</text>
</a>
</g>
</g>
<!-- Node1&#45;&gt;Node12 -->
<g id="edge11" class="edge"><title>Node1&#45;&gt;Node12</title>
<path fill="none" stroke="midnightblue" d="M1532.97,-713.886C1318.17,-712.714 570,-701.627 570,-604 570,-604 570,-604 570,-546 570,-429.128 654.968,-306.682 688.563,-262.836"/>
<polygon fill="midnightblue" stroke="midnightblue" points="691.515,-264.741 694.903,-254.703 685.995,-260.438 691.515,-264.741"/>
</g>
<!-- Node13 -->
<g id="node13" class="node"><title>Node13</title>
<g id="a_node13"><a xlink:href="node_8h.html" target="_top" xlink:title="Definitions and helper macros for IR/AST nodes. ">
<polygon fill="white" stroke="black" points="1541,-593.5 1541,-612.5 1639,-612.5 1639,-593.5 1541,-593.5"/>
<text text-anchor="middle" x="1590" y="-600.5" font-family="Helvetica,sans-Serif" font-size="10.00">tvm/node/node.h</text>
</a>
</g>
</g>
<!-- Node1&#45;&gt;Node13 -->
<g id="edge16" class="edge"><title>Node1&#45;&gt;Node13</title>
<path fill="none" stroke="midnightblue" d="M1585.75,-705.242C1580.24,-692.825 1571.7,-669.349 1575,-649 1576.47,-639.957 1579.49,-630.275 1582.44,-622.218"/>
<polygon fill="midnightblue" stroke="midnightblue" points="1585.76,-623.339 1586.14,-612.751 1579.24,-620.791 1585.76,-623.339"/>
</g>
<!-- Node34 -->
<g id="node34" class="node"><title>Node34</title>
<g id="a_node34"><a xlink:href="node_2container_8h.html" target="_top" xlink:title="Array/Map container in the DSL graph. ">
<polygon fill="white" stroke="black" points="1767.5,-414.5 1767.5,-433.5 1886.5,-433.5 1886.5,-414.5 1767.5,-414.5"/>
<text text-anchor="middle" x="1827" y="-421.5" font-family="Helvetica,sans-Serif" font-size="10.00">tvm/node/container.h</text>
</a>
</g>
</g>
<!-- Node1&#45;&gt;Node34 -->
<g id="edge114" class="edge"><title>Node1&#45;&gt;Node34</title>
<path fill="none" stroke="midnightblue" d="M1611.21,-705.363C1628.89,-697.522 1654.15,-684.786 1673,-669 1746.22,-607.679 1764.15,-586.355 1807,-501 1816.16,-482.75 1821.45,-459.862 1824.26,-443.997"/>
<polygon fill="midnightblue" stroke="midnightblue" points="1827.76,-444.281 1825.89,-433.853 1820.84,-443.171 1827.76,-444.281"/>
</g>
<!-- Node38 -->
<g id="node38" class="node"><title>Node38</title>
<g id="a_node38"><a xlink:href="span_8h.html" target="_top" xlink:title="Span information for debugging purposes. ">
<polygon fill="white" stroke="black" points="1584,-649.5 1584,-668.5 1664,-668.5 1664,-649.5 1584,-649.5"/>
<text text-anchor="middle" x="1624" y="-656.5" font-family="Helvetica,sans-Serif" font-size="10.00">tvm/ir/span.h</text>
</a>
</g>
</g>
<!-- Node1&#45;&gt;Node38 -->
<g id="edge115" class="edge"><title>Node1&#45;&gt;Node38</title>
<path fill="none" stroke="midnightblue" d="M1595.61,-705.083C1600.37,-697.534 1607.32,-686.495 1613.15,-677.23"/>
<polygon fill="midnightblue" stroke="midnightblue" points="1616.12,-679.078 1618.49,-668.751 1610.2,-675.349 1616.12,-679.078"/>
</g>
<!-- Node3 -->
<g id="node3" class="node"><title>Node3</title>
<polygon fill="white" stroke="#bfbfbf" points="630,-62 630,-81 716,-81 716,-62 630,-62"/>
<text text-anchor="middle" x="673" y="-69" font-family="Helvetica,sans-Serif" font-size="10.00">dmlc/logging.h</text>
</g>
<!-- Node2&#45;&gt;Node3 -->
<g id="edge2" class="edge"><title>Node2&#45;&gt;Node3</title>
<path fill="none" stroke="midnightblue" d="M673,-123.475C673,-115.08 673,-101.981 673,-91.1631"/>
<polygon fill="midnightblue" stroke="midnightblue" points="676.5,-91.0091 673,-81.0091 669.5,-91.0091 676.5,-91.0091"/>
</g>
<!-- Node4 -->
<g id="node4" class="node"><title>Node4</title>
<g id="a_node4"><a xlink:href="c__runtime__api_8h.html" target="_top" xlink:title="tvm/runtime/c_runtime\l_api.h">
<polygon fill="white" stroke="black" points="71.5,-56.5 71.5,-86.5 198.5,-86.5 198.5,-56.5 71.5,-56.5"/>
<text text-anchor="start" x="79.5" y="-74.5" font-family="Helvetica,sans-Serif" font-size="10.00">tvm/runtime/c_runtime</text>
<text text-anchor="middle" x="135" y="-63.5" font-family="Helvetica,sans-Serif" font-size="10.00">_api.h</text>
</a>
</g>
</g>
<!-- Node2&#45;&gt;Node4 -->
<g id="edge3" class="edge"><title>Node2&#45;&gt;Node4</title>
<path fill="none" stroke="midnightblue" d="M614.4,-125.519C515.728,-114.607 316.642,-92.5887 208.667,-80.6472"/>
<polygon fill="midnightblue" stroke="midnightblue" points="208.833,-77.1443 198.509,-79.5237 208.063,-84.1019 208.833,-77.1443"/>
</g>
<!-- Node8 -->
<g id="node8" class="node"><title>Node8</title>
<polygon fill="white" stroke="#bfbfbf" points="878,-62 878,-81 946,-81 946,-62 878,-62"/>
<text text-anchor="middle" x="912" y="-69" font-family="Helvetica,sans-Serif" font-size="10.00">type_traits</text>
</g>
<!-- Node2&#45;&gt;Node8 -->
<g id="edge7" class="edge"><title>Node2&#45;&gt;Node8</title>
<path fill="none" stroke="midnightblue" d="M707.243,-123.475C749.571,-112.937 821.677,-94.9863 868.05,-83.4415"/>
<polygon fill="midnightblue" stroke="midnightblue" points="868.962,-86.8213 877.821,-81.0091 867.271,-80.0286 868.962,-86.8213"/>
</g>
<!-- Node2&#45;&gt;Node9 -->
<g id="edge8" class="edge"><title>Node2&#45;&gt;Node9</title>
<path fill="none" stroke="midnightblue" d="M731.802,-130.022C907.435,-124.07 1443.53,-105.592 1888,-87 1989.72,-82.745 2110.12,-76.9015 2166.64,-74.1107"/>
<polygon fill="midnightblue" stroke="midnightblue" points="2166.94,-77.6005 2176.75,-73.6104 2166.59,-70.609 2166.94,-77.6005"/>
</g>
<!-- Node10 -->
<g id="node10" class="node"><title>Node10</title>
<polygon fill="white" stroke="#bfbfbf" points="1837,-62 1837,-81 1879,-81 1879,-62 1837,-62"/>
<text text-anchor="middle" x="1858" y="-69" font-family="Helvetica,sans-Serif" font-size="10.00">utility</text>
</g>
<!-- Node2&#45;&gt;Node10 -->
<g id="edge9" class="edge"><title>Node2&#45;&gt;Node10</title>
<path fill="none" stroke="midnightblue" d="M731.764,-129.049C944.046,-118.391 1667.09,-82.0856 1826.67,-74.0733"/>
<polygon fill="midnightblue" stroke="midnightblue" points="1826.95,-77.5636 1836.76,-73.5664 1826.6,-70.5724 1826.95,-77.5636"/>
</g>
<!-- Node11 -->
<g id="node11" class="node"><title>Node11</title>
<polygon fill="white" stroke="#bfbfbf" points="478,-62 478,-81 528,-81 528,-62 478,-62"/>
<text text-anchor="middle" x="503" y="-69" font-family="Helvetica,sans-Serif" font-size="10.00">atomic</text>
</g>
<!-- Node2&#45;&gt;Node11 -->
<g id="edge10" class="edge"><title>Node2&#45;&gt;Node11</title>
<path fill="none" stroke="midnightblue" d="M648.643,-123.475C619.356,-113.225 570.026,-95.9593 536.998,-84.3994"/>
<polygon fill="midnightblue" stroke="midnightblue" points="537.907,-81.0091 527.312,-81.0091 535.594,-87.6162 537.907,-81.0091"/>
</g>
<!-- Node5 -->
<g id="node5" class="node"><title>Node5</title>
<polygon fill="white" stroke="#bfbfbf" points="0,-0.5 0,-19.5 90,-19.5 90,-0.5 0,-0.5"/>
<text text-anchor="middle" x="45" y="-7.5" font-family="Helvetica,sans-Serif" font-size="10.00">dlpack/dlpack.h</text>
</g>
<!-- Node4&#45;&gt;Node5 -->
<g id="edge4" class="edge"><title>Node4&#45;&gt;Node5</title>
<path fill="none" stroke="midnightblue" d="M113.671,-56.3993C99.5146,-47.0402 80.9885,-34.7924 66.7469,-25.3771"/>
<polygon fill="midnightblue" stroke="midnightblue" points="68.3679,-22.2531 58.0958,-19.6578 64.5074,-28.0923 68.3679,-22.2531"/>
</g>
<!-- Node6 -->
<g id="node6" class="node"><title>Node6</title>
<polygon fill="white" stroke="#bfbfbf" points="108.5,-0.5 108.5,-19.5 161.5,-19.5 161.5,-0.5 108.5,-0.5"/>
<text text-anchor="middle" x="135" y="-7.5" font-family="Helvetica,sans-Serif" font-size="10.00">stdint.h</text>
</g>
<!-- Node4&#45;&gt;Node6 -->
<g id="edge5" class="edge"><title>Node4&#45;&gt;Node6</title>
<path fill="none" stroke="midnightblue" d="M135,-56.3993C135,-48.4664 135,-38.458 135,-29.8583"/>
<polygon fill="midnightblue" stroke="midnightblue" points="138.5,-29.6577 135,-19.6578 131.5,-29.6578 138.5,-29.6577"/>
</g>
<!-- Node7 -->
<g id="node7" class="node"><title>Node7</title>
<polygon fill="white" stroke="#bfbfbf" points="179.5,-0.5 179.5,-19.5 234.5,-19.5 234.5,-0.5 179.5,-0.5"/>
<text text-anchor="middle" x="207" y="-7.5" font-family="Helvetica,sans-Serif" font-size="10.00">stddef.h</text>
</g>
<!-- Node4&#45;&gt;Node7 -->
<g id="edge6" class="edge"><title>Node4&#45;&gt;Node7</title>
<path fill="none" stroke="midnightblue" d="M152.063,-56.3993C163.065,-47.3076 177.365,-35.4899 188.618,-26.1909"/>
<polygon fill="midnightblue" stroke="midnightblue" points="191.044,-28.726 196.523,-19.6578 186.585,-23.33 191.044,-28.726"/>
</g>
<!-- Node12&#45;&gt;Node3 -->
<g id="edge13" class="edge"><title>Node12&#45;&gt;Node3</title>
<path fill="none" stroke="midnightblue" d="M688.716,-235.382C666.378,-219.996 622.064,-185.401 605,-143 595.291,-118.874 621.449,-98.4141 644.086,-85.8496"/>
<polygon fill="midnightblue" stroke="midnightblue" points="645.898,-88.8516 653.139,-81.117 642.655,-82.6481 645.898,-88.8516"/>
</g>
<!-- Node12&#45;&gt;Node4 -->
<g id="edge12" class="edge"><title>Node12&#45;&gt;Node4</title>
<path fill="none" stroke="midnightblue" d="M633.993,-240.241C495.156,-232.29 190.644,-213.324 173,-199 142.532,-174.265 135.818,-126.069 134.715,-96.8327"/>
<polygon fill="midnightblue" stroke="midnightblue" points="138.211,-96.5789 134.529,-86.6445 131.212,-96.7068 138.211,-96.5789"/>
</g>
<!-- Node12&#45;&gt;Node8 -->
<g id="edge14" class="edge"><title>Node12&#45;&gt;Node8</title>
<path fill="none" stroke="midnightblue" d="M712.414,-235.495C745.862,-208.179 850.867,-122.425 893.618,-87.5123"/>
<polygon fill="midnightblue" stroke="midnightblue" points="895.992,-90.0923 901.523,-81.056 891.564,-84.6706 895.992,-90.0923"/>
</g>
<!-- Node12&#45;&gt;Node9 -->
<g id="edge15" class="edge"><title>Node12&#45;&gt;Node9</title>
<path fill="none" stroke="midnightblue" d="M741.172,-235.463C804.685,-221.873 934.204,-195.203 1045,-179 1486.94,-114.37 2030.16,-81.7456 2166.71,-74.2177"/>
<polygon fill="midnightblue" stroke="midnightblue" points="2167.1,-77.7014 2176.89,-73.6611 2166.72,-70.7119 2167.1,-77.7014"/>
</g>
<!-- Node13&#45;&gt;Node2 -->
<g id="edge66" class="edge"><title>Node13&#45;&gt;Node2</title>
<path fill="none" stroke="midnightblue" d="M1540.92,-601.881C1330.96,-601.137 517.216,-595.756 480,-557 357.218,-429.139 587.118,-209.365 654.964,-149.463"/>
<polygon fill="midnightblue" stroke="midnightblue" points="657.509,-151.888 662.74,-142.674 652.905,-146.614 657.509,-151.888"/>
</g>
<!-- Node13&#45;&gt;Node4 -->
<g id="edge17" class="edge"><title>Node13&#45;&gt;Node4</title>
<path fill="none" stroke="midnightblue" d="M1540.87,-602.026C1336.76,-601.868 561.644,-598.516 461,-557 415.128,-538.078 162.956,-293.781 132,-255 94.341,-207.821 81.986,-180.615 100,-123 103.166,-112.875 109.154,-102.995 115.294,-94.6978"/>
<polygon fill="midnightblue" stroke="midnightblue" points="118.177,-96.695 121.636,-86.6806 112.687,-92.3523 118.177,-96.695"/>
</g>
<!-- Node13&#45;&gt;Node8 -->
<g id="edge113" class="edge"><title>Node13&#45;&gt;Node8</title>
<path fill="none" stroke="midnightblue" d="M1540.69,-600.569C1343.88,-594.412 621.492,-567.419 546,-501 433.454,-401.979 501.759,-216.81 605,-123 624.177,-105.575 787.086,-85.8994 867.484,-77.1372"/>
<polygon fill="midnightblue" stroke="midnightblue" points="868.228,-80.5774 877.794,-76.0241 867.476,-73.6178 868.228,-80.5774"/>
</g>
<!-- Node13&#45;&gt;Node9 -->
<g id="edge110" class="edge"><title>Node13&#45;&gt;Node9</title>
<path fill="none" stroke="midnightblue" d="M1639.09,-601.412C1810.2,-598.057 2370,-575.576 2370,-425 2370,-425 2370,-425 2370,-188 2370,-121.61 2280.39,-90.8136 2230.91,-78.8691"/>
<polygon fill="midnightblue" stroke="midnightblue" points="2231.53,-75.4219 2221.01,-76.6004 2229.97,-82.2451 2231.53,-75.4219"/>
</g>
<!-- Node13&#45;&gt;Node10 -->
<g id="edge112" class="edge"><title>Node13&#45;&gt;Node10</title>
<path fill="none" stroke="midnightblue" d="M1639.32,-598.076C1732.81,-590.39 1932.53,-572.73 2000,-557 2070.93,-540.464 2089.86,-535.495 2154,-501 2240.74,-454.35 2332,-467.49 2332,-369 2332,-369 2332,-369 2332,-305.5 2332,-107.585 1995.06,-77.7738 1889.34,-73.2912"/>
<polygon fill="midnightblue" stroke="midnightblue" points="1889.41,-69.7916 1879.29,-72.9132 1889.15,-76.7866 1889.41,-69.7916"/>
</g>
<!-- Node14 -->
<g id="node14" class="node"><title>Node14</title>
<g id="a_node14"><a xlink:href="runtime_2container_8h.html" target="_top" xlink:title="Common POD(plain old data) container types. ">
<polygon fill="white" stroke="black" points="1513,-358.5 1513,-377.5 1645,-377.5 1645,-358.5 1513,-358.5"/>
<text text-anchor="middle" x="1579" y="-365.5" font-family="Helvetica,sans-Serif" font-size="10.00">tvm/runtime/container.h</text>
</a>
</g>
</g>
<!-- Node13&#45;&gt;Node14 -->
<g id="edge18" class="edge"><title>Node13&#45;&gt;Node14</title>
<path fill="none" stroke="midnightblue" d="M1599.5,-593.378C1620.97,-572.792 1670.15,-518.844 1654,-470 1642.54,-435.345 1614.08,-402.892 1595.7,-384.536"/>
<polygon fill="midnightblue" stroke="midnightblue" points="1598.13,-382.02 1588.52,-377.567 1593.26,-387.043 1598.13,-382.02"/>
</g>
<!-- Node15 -->
<g id="node15" class="node"><title>Node15</title>
<g id="a_node15"><a xlink:href="runtime_2memory_8h.html" target="_top" xlink:title="Runtime memory management. ">
<polygon fill="white" stroke="black" points="1722.5,-179.5 1722.5,-198.5 1849.5,-198.5 1849.5,-179.5 1722.5,-179.5"/>
<text text-anchor="middle" x="1786" y="-186.5" font-family="Helvetica,sans-Serif" font-size="10.00">tvm/runtime/memory.h</text>
</a>
</g>
</g>
<!-- Node13&#45;&gt;Node15 -->
<g id="edge67" class="edge"><title>Node13&#45;&gt;Node15</title>
<path fill="none" stroke="midnightblue" d="M1639.47,-596.87C1774.96,-582.161 2142,-537.596 2142,-486.5 2142,-486.5 2142,-486.5 2142,-305.5 2142,-246.704 1964.09,-213.316 1859.81,-198.796"/>
<polygon fill="midnightblue" stroke="midnightblue" points="1860.03,-195.294 1849.65,-197.408 1859.08,-202.229 1860.03,-195.294"/>
</g>
<!-- Node21 -->
<g id="node21" class="node"><title>Node21</title>
<polygon fill="white" stroke="#bfbfbf" points="1392.5,-179.5 1392.5,-198.5 1439.5,-198.5 1439.5,-179.5 1392.5,-179.5"/>
<text text-anchor="middle" x="1416" y="-186.5" font-family="Helvetica,sans-Serif" font-size="10.00">vector</text>
</g>
<!-- Node13&#45;&gt;Node21 -->
<g id="edge111" class="edge"><title>Node13&#45;&gt;Node21</title>
<path fill="none" stroke="midnightblue" d="M1611.25,-593.488C1646.2,-577.92 1712,-541.334 1712,-486.5 1712,-486.5 1712,-486.5 1712,-367 1712,-276.853 1636.8,-278.791 1558,-235 1514.37,-210.752 1496.78,-214.527 1449.13,-200.514"/>
<polygon fill="midnightblue" stroke="midnightblue" points="1450.11,-197.155 1439.52,-197.571 1448.06,-203.847 1450.11,-197.155"/>
</g>
<!-- Node31 -->
<g id="node31" class="node"><title>Node31</title>
<g id="a_node31"><a xlink:href="reflection_8h.html" target="_top" xlink:title="Reflection and serialization of compiler IR/AST nodes. ">
<polygon fill="white" stroke="black" points="968.5,-537.5 968.5,-556.5 1087.5,-556.5 1087.5,-537.5 968.5,-537.5"/>
<text text-anchor="middle" x="1028" y="-544.5" font-family="Helvetica,sans-Serif" font-size="10.00">tvm/node/reflection.h</text>
</a>
</g>
</g>
<!-- Node13&#45;&gt;Node31 -->
<g id="edge68" class="edge"><title>Node13&#45;&gt;Node31</title>
<path fill="none" stroke="midnightblue" d="M1540.62,-597.255C1440.39,-587.625 1212.84,-565.761 1097.62,-554.69"/>
<polygon fill="midnightblue" stroke="midnightblue" points="1097.79,-551.19 1087.5,-553.718 1097.12,-558.158 1097.79,-551.19"/>
</g>
<!-- Node32 -->
<g id="node32" class="node"><title>Node32</title>
<g id="a_node32"><a xlink:href="structural__equal_8h.html" target="_top" xlink:title="Structural equality comparison. ">
<polygon fill="white" stroke="black" points="1210.5,-470.5 1210.5,-500.5 1321.5,-500.5 1321.5,-470.5 1210.5,-470.5"/>
<text text-anchor="start" x="1218.5" y="-488.5" font-family="Helvetica,sans-Serif" font-size="10.00">tvm/node/structural</text>
<text text-anchor="middle" x="1266" y="-477.5" font-family="Helvetica,sans-Serif" font-size="10.00">_equal.h</text>
</a>
</g>
</g>
<!-- Node13&#45;&gt;Node32 -->
<g id="edge108" class="edge"><title>Node13&#45;&gt;Node32</title>
<path fill="none" stroke="midnightblue" d="M1551.33,-593.425C1517.14,-585.409 1466.13,-572.385 1423,-557 1380.92,-541.989 1334.43,-520.461 1303.04,-505.151"/>
<polygon fill="midnightblue" stroke="midnightblue" points="1304.33,-501.882 1293.81,-500.613 1301.24,-508.164 1304.33,-501.882"/>
</g>
<!-- Node13&#45;&gt;Node34 -->
<g id="edge107" class="edge"><title>Node13&#45;&gt;Node34</title>
<path fill="none" stroke="midnightblue" d="M1637.91,-593.5C1665.53,-586.886 1699.86,-575.605 1726,-557 1769.55,-526.002 1802.96,-470.745 1818.1,-442.57"/>
<polygon fill="midnightblue" stroke="midnightblue" points="1821.3,-443.994 1822.84,-433.511 1815.1,-440.751 1821.3,-443.994"/>
</g>
<!-- Node35 -->
<g id="node35" class="node"><title>Node35</title>
<g id="a_node35"><a xlink:href="structural__hash_8h.html" target="_top" xlink:title="tvm/node/structural\l_hash.h">
<polygon fill="white" stroke="black" points="1380.5,-470.5 1380.5,-500.5 1491.5,-500.5 1491.5,-470.5 1380.5,-470.5"/>
<text text-anchor="start" x="1388.5" y="-488.5" font-family="Helvetica,sans-Serif" font-size="10.00">tvm/node/structural</text>
<text text-anchor="middle" x="1436" y="-477.5" font-family="Helvetica,sans-Serif" font-size="10.00">_hash.h</text>
</a>
</g>
</g>
<!-- Node13&#45;&gt;Node35 -->
<g id="edge109" class="edge"><title>Node13&#45;&gt;Node35</title>
<path fill="none" stroke="midnightblue" d="M1589.83,-593.228C1589.1,-579.494 1585.72,-552.849 1571,-537 1552.73,-517.335 1526.07,-505.284 1501.26,-497.918"/>
<polygon fill="midnightblue" stroke="midnightblue" points="1502.07,-494.511 1491.5,-495.226 1500.21,-501.259 1502.07,-494.511"/>
</g>
<!-- Node36 -->
<g id="node36" class="node"><title>Node36</title>
<g id="a_node36"><a xlink:href="repr__printer_8h.html" target="_top" xlink:title="Printer class to print repr string of each AST/IR nodes. ">
<polygon fill="white" stroke="black" points="1432,-537.5 1432,-556.5 1562,-556.5 1562,-537.5 1432,-537.5"/>
<text text-anchor="middle" x="1497" y="-544.5" font-family="Helvetica,sans-Serif" font-size="10.00">tvm/node/repr_printer.h</text>
</a>
</g>
</g>
<!-- Node13&#45;&gt;Node36 -->
<g id="edge104" class="edge"><title>Node13&#45;&gt;Node36</title>
<path fill="none" stroke="midnightblue" d="M1575.06,-593.324C1560.41,-584.822 1537.87,-571.729 1520.76,-561.797"/>
<polygon fill="midnightblue" stroke="midnightblue" points="1522.31,-558.649 1511.9,-556.655 1518.8,-564.703 1522.31,-558.649"/>
</g>
<!-- Node14&#45;&gt;Node2 -->
<g id="edge25" class="edge"><title>Node14&#45;&gt;Node2</title>
<path fill="none" stroke="midnightblue" d="M1512.95,-365.014C1359.39,-360.021 987.45,-345.629 936,-322 886.592,-299.309 893.122,-268.114 850,-235 801.266,-197.577 737.193,-164.446 701.023,-147.007"/>
<polygon fill="midnightblue" stroke="midnightblue" points="702.13,-143.658 691.597,-142.514 699.118,-149.977 702.13,-143.658"/>
</g>
<!-- Node14&#45;&gt;Node3 -->
<g id="edge19" class="edge"><title>Node14&#45;&gt;Node3</title>
<path fill="none" stroke="midnightblue" d="M1512.82,-366.593C1389.95,-364.969 1118.52,-357.294 893,-322 771.7,-303.016 711.081,-342.546 625,-255 583.078,-212.364 571.072,-175.871 599,-123 607.988,-105.985 625.572,-93.6214 641.344,-85.3873"/>
<polygon fill="midnightblue" stroke="midnightblue" points="642.879,-88.5326 650.342,-81.0123 639.818,-82.2372 642.879,-88.5326"/>
</g>
<!-- Node14&#45;&gt;Node8 -->
<g id="edge63" class="edge"><title>Node14&#45;&gt;Node8</title>
<path fill="none" stroke="midnightblue" d="M1512.95,-363.891C1387.58,-357.562 1124.34,-342.066 1088,-322 991.994,-268.994 936.216,-138.713 918.348,-90.6742"/>
<polygon fill="midnightblue" stroke="midnightblue" points="921.55,-89.237 914.861,-81.0206 914.966,-91.6149 921.55,-89.237"/>
</g>
<!-- Node14&#45;&gt;Node9 -->
<g id="edge62" class="edge"><title>Node14&#45;&gt;Node9</title>
<path fill="none" stroke="midnightblue" d="M1595.19,-358.298C1622.72,-343.636 1680.59,-313.416 1731,-291 1756.62,-279.607 1940.19,-209.964 1966,-199 2020.91,-175.671 2035.59,-171.503 2088,-143 2120.46,-125.345 2156.25,-101.829 2178.18,-86.9233"/>
<polygon fill="midnightblue" stroke="midnightblue" points="2180.41,-89.6416 2186.68,-81.1044 2176.45,-83.8655 2180.41,-89.6416"/>
</g>
<!-- Node14&#45;&gt;Node10 -->
<g id="edge64" class="edge"><title>Node14&#45;&gt;Node10</title>
<path fill="none" stroke="midnightblue" d="M1587.01,-358.483C1603.97,-340.637 1643.28,-300.211 1660,-291 1751.75,-240.457 1821.91,-288.1 1877,-199 1894.89,-170.069 1894.52,-155.93 1886,-123 1882.91,-111.062 1876.33,-98.9382 1870.32,-89.5624"/>
<polygon fill="midnightblue" stroke="midnightblue" points="1873.16,-87.5221 1864.65,-81.2115 1867.37,-91.4519 1873.16,-87.5221"/>
</g>
<!-- Node14&#45;&gt;Node15 -->
<g id="edge20" class="edge"><title>Node14&#45;&gt;Node15</title>
<path fill="none" stroke="midnightblue" d="M1581.34,-358.384C1586.14,-342.441 1598.65,-308.382 1622,-291 1679.77,-247.991 1732.54,-309.175 1780,-255 1790.84,-242.624 1791.32,-223.378 1789.69,-209.036"/>
<polygon fill="midnightblue" stroke="midnightblue" points="1793.1,-208.153 1788.1,-198.811 1786.18,-209.23 1793.1,-208.153"/>
</g>
<!-- Node17 -->
<g id="node17" class="node"><title>Node17</title>
<g id="a_node17"><a xlink:href="packed__func_8h.html" target="_top" xlink:title="Type&#45;erased function used across TVM API. ">
<polygon fill="white" stroke="black" points="1097.5,-291.5 1097.5,-321.5 1210.5,-321.5 1210.5,-291.5 1097.5,-291.5"/>
<text text-anchor="start" x="1105.5" y="-309.5" font-family="Helvetica,sans-Serif" font-size="10.00">tvm/runtime/packed</text>
<text text-anchor="middle" x="1154" y="-298.5" font-family="Helvetica,sans-Serif" font-size="10.00">_func.h</text>
</a>
</g>
</g>
<!-- Node14&#45;&gt;Node17 -->
<g id="edge26" class="edge"><title>Node14&#45;&gt;Node17</title>
<path fill="none" stroke="midnightblue" d="M1518.11,-358.475C1439.31,-347.443 1302.47,-328.286 1220.86,-316.861"/>
<polygon fill="midnightblue" stroke="midnightblue" points="1221.09,-313.359 1210.7,-315.439 1220.12,-320.291 1221.09,-313.359"/>
</g>
<!-- Node14&#45;&gt;Node21 -->
<g id="edge65" class="edge"><title>Node14&#45;&gt;Node21</title>
<path fill="none" stroke="midnightblue" d="M1578.67,-358.305C1577.32,-335.103 1570.5,-271.043 1536,-235 1529.73,-228.445 1482.72,-211.972 1449.45,-200.883"/>
<polygon fill="midnightblue" stroke="midnightblue" points="1450.21,-197.45 1439.62,-197.631 1448.01,-204.095 1450.21,-197.45"/>
</g>
<!-- Node29 -->
<g id="node29" class="node"><title>Node29</title>
<polygon fill="white" stroke="#bfbfbf" points="1482.5,-297 1482.5,-316 1531.5,-316 1531.5,-297 1482.5,-297"/>
<text text-anchor="middle" x="1507" y="-304" font-family="Helvetica,sans-Serif" font-size="10.00">cstring</text>
</g>
<!-- Node14&#45;&gt;Node29 -->
<g id="edge60" class="edge"><title>Node14&#45;&gt;Node29</title>
<path fill="none" stroke="midnightblue" d="M1568.68,-358.475C1557.35,-349.108 1538.93,-333.884 1525.16,-322.508"/>
<polygon fill="midnightblue" stroke="midnightblue" points="1527.23,-319.681 1517.3,-316.009 1522.78,-325.077 1527.23,-319.681"/>
</g>
<!-- Node30 -->
<g id="node30" class="node"><title>Node30</title>
<polygon fill="white" stroke="#bfbfbf" points="1740.5,-297 1740.5,-316 1817.5,-316 1817.5,-297 1740.5,-297"/>
<text text-anchor="middle" x="1779" y="-304" font-family="Helvetica,sans-Serif" font-size="10.00">initializer_list</text>
</g>
<!-- Node14&#45;&gt;Node30 -->
<g id="edge61" class="edge"><title>Node14&#45;&gt;Node30</title>
<path fill="none" stroke="midnightblue" d="M1607.66,-358.475C1642.56,-348.092 1701.65,-330.512 1740.5,-318.954"/>
<polygon fill="midnightblue" stroke="midnightblue" points="1741.81,-322.215 1750.4,-316.009 1739.82,-315.506 1741.81,-322.215"/>
</g>
<!-- Node15&#45;&gt;Node2 -->
<g id="edge21" class="edge"><title>Node15&#45;&gt;Node2</title>
<path fill="none" stroke="midnightblue" d="M1722.36,-182.494C1706.56,-181.236 1689.67,-179.982 1674,-179 1324.03,-157.079 904.573,-141.779 742.039,-136.265"/>
<polygon fill="midnightblue" stroke="midnightblue" points="741.821,-132.755 731.709,-135.916 741.585,-139.751 741.821,-132.755"/>
</g>
<!-- Node15&#45;&gt;Node8 -->
<g id="edge24" class="edge"><title>Node15&#45;&gt;Node8</title>
<path fill="none" stroke="midnightblue" d="M1770.63,-179.359C1743.84,-164.784 1686.45,-135.667 1634,-123 1504.25,-91.6641 1092.55,-77.5576 956.282,-73.666"/>
<polygon fill="midnightblue" stroke="midnightblue" points="956.296,-70.1651 946.202,-73.3825 956.099,-77.1623 956.296,-70.1651"/>
</g>
<!-- Node15&#45;&gt;Node10 -->
<g id="edge23" class="edge"><title>Node15&#45;&gt;Node10</title>
<path fill="none" stroke="midnightblue" d="M1792.65,-179.22C1799.32,-170.281 1809.76,-155.937 1818,-143 1829.18,-125.448 1840.79,-104.65 1848.6,-90.2126"/>
<polygon fill="midnightblue" stroke="midnightblue" points="1851.71,-91.8187 1853.35,-81.3516 1845.54,-88.5109 1851.71,-91.8187"/>
</g>
<!-- Node16 -->
<g id="node16" class="node"><title>Node16</title>
<polygon fill="white" stroke="#bfbfbf" points="1762.5,-123.5 1762.5,-142.5 1809.5,-142.5 1809.5,-123.5 1762.5,-123.5"/>
<text text-anchor="middle" x="1786" y="-130.5" font-family="Helvetica,sans-Serif" font-size="10.00">cstdlib</text>
</g>
<!-- Node15&#45;&gt;Node16 -->
<g id="edge22" class="edge"><title>Node15&#45;&gt;Node16</title>
<path fill="none" stroke="midnightblue" d="M1786,-179.083C1786,-172.006 1786,-161.861 1786,-152.986"/>
<polygon fill="midnightblue" stroke="midnightblue" points="1789.5,-152.751 1786,-142.751 1782.5,-152.751 1789.5,-152.751"/>
</g>
<!-- Node17&#45;&gt;Node2 -->
<g id="edge51" class="edge"><title>Node17&#45;&gt;Node2</title>
<path fill="none" stroke="midnightblue" d="M1097.48,-293.882C1061.31,-285.424 1013.86,-272.404 974,-255 914.762,-229.134 909.551,-204.136 850,-179 812.513,-163.177 768.13,-151.909 733.186,-144.607"/>
<polygon fill="midnightblue" stroke="midnightblue" points="733.626,-141.125 723.129,-142.559 732.23,-147.984 733.626,-141.125"/>
</g>
<!-- Node17&#45;&gt;Node3 -->
<g id="edge27" class="edge"><title>Node17&#45;&gt;Node3</title>
<path fill="none" stroke="midnightblue" d="M1124.99,-291.45C1038.64,-249.618 784.022,-126.28 700.141,-85.6474"/>
<polygon fill="midnightblue" stroke="midnightblue" points="701.527,-82.4298 691.002,-81.2201 698.476,-88.7296 701.527,-82.4298"/>
</g>
<!-- Node17&#45;&gt;Node4 -->
<g id="edge28" class="edge"><title>Node17&#45;&gt;Node4</title>
<path fill="none" stroke="midnightblue" d="M1097.43,-305.985C963.353,-306.277 616.138,-301.998 331,-255 237.385,-239.57 186.56,-271.196 125,-199 100.685,-170.484 113.099,-124.009 124.167,-96.0341"/>
<polygon fill="midnightblue" stroke="midnightblue" points="127.47,-97.2072 128.113,-86.6319 121.016,-94.4982 127.47,-97.2072"/>
</g>
<!-- Node17&#45;&gt;Node8 -->
<g id="edge59" class="edge"><title>Node17&#45;&gt;Node8</title>
<path fill="none" stroke="midnightblue" d="M1127.51,-291.31C1111.28,-282.02 1090.53,-269.032 1074,-255 1041.27,-227.213 958.829,-129.038 925.9,-89.3415"/>
<polygon fill="midnightblue" stroke="midnightblue" points="928.394,-86.8656 919.322,-81.394 923.002,-91.3291 928.394,-86.8656"/>
</g>
<!-- Node17&#45;&gt;Node9 -->
<g id="edge55" class="edge"><title>Node17&#45;&gt;Node9</title>
<path fill="none" stroke="midnightblue" d="M1210.56,-303.323C1343.55,-297.819 1672.92,-281.846 1780,-255 1861.19,-234.647 2093.14,-123.889 2172.21,-85.5606"/>
<polygon fill="midnightblue" stroke="midnightblue" points="2174.03,-88.5693 2181.5,-81.0529 2170.97,-82.2724 2174.03,-88.5693"/>
</g>
<!-- Node17&#45;&gt;Node10 -->
<g id="edge58" class="edge"><title>Node17&#45;&gt;Node10</title>
<path fill="none" stroke="midnightblue" d="M1210.57,-295.864C1259.13,-286.651 1324.44,-271.719 1345,-255 1374.3,-231.171 1353.26,-202.269 1383,-179 1453.5,-123.845 1732.57,-87.0461 1826.76,-75.9907"/>
<polygon fill="midnightblue" stroke="midnightblue" points="1827.27,-79.4548 1836.81,-74.8277 1826.47,-72.5013 1827.27,-79.4548"/>
</g>
<!-- Node17&#45;&gt;Node12 -->
<g id="edge50" class="edge"><title>Node17&#45;&gt;Node12</title>
<path fill="none" stroke="midnightblue" d="M1097.21,-298.025C1016.05,-287.34 866.758,-267.688 776.715,-255.835"/>
<polygon fill="midnightblue" stroke="midnightblue" points="776.947,-252.336 766.575,-254.501 776.033,-259.276 776.947,-252.336"/>
</g>
<!-- Node18 -->
<g id="node18" class="node"><title>Node18</title>
<g id="a_node18"><a xlink:href="runtime_2module_8h.html" target="_top" xlink:title="Runtime container of the functions generated by TVM, This is used to support dynamically link...">
<polygon fill="white" stroke="black" points="1092,-235.5 1092,-254.5 1216,-254.5 1216,-235.5 1092,-235.5"/>
<text text-anchor="middle" x="1154" y="-242.5" font-family="Helvetica,sans-Serif" font-size="10.00">tvm/runtime/module.h</text>
</a>
</g>
</g>
<!-- Node17&#45;&gt;Node18 -->
<g id="edge29" class="edge"><title>Node17&#45;&gt;Node18</title>
<path fill="none" stroke="midnightblue" d="M1148.16,-291.399C1147.13,-283.377 1146.97,-273.233 1147.69,-264.569"/>
<polygon fill="midnightblue" stroke="midnightblue" points="1151.16,-265.044 1149.07,-254.658 1144.23,-264.081 1151.16,-265.044"/>
</g>
<!-- Node20 -->
<g id="node20" class="node"><title>Node20</title>
<polygon fill="white" stroke="#bfbfbf" points="1054.5,-179.5 1054.5,-198.5 1111.5,-198.5 1111.5,-179.5 1054.5,-179.5"/>
<text text-anchor="middle" x="1083" y="-186.5" font-family="Helvetica,sans-Serif" font-size="10.00">memory</text>
</g>
<!-- Node17&#45;&gt;Node20 -->
<g id="edge57" class="edge"><title>Node17&#45;&gt;Node20</title>
<path fill="none" stroke="midnightblue" d="M1121.85,-291.336C1107.17,-283.034 1091.25,-270.997 1083,-255 1075.64,-240.74 1076.46,-222.269 1078.64,-208.663"/>
<polygon fill="midnightblue" stroke="midnightblue" points="1082.13,-209.068 1080.64,-198.578 1075.26,-207.706 1082.13,-209.068"/>
</g>
<!-- Node17&#45;&gt;Node21 -->
<g id="edge54" class="edge"><title>Node17&#45;&gt;Node21</title>
<path fill="none" stroke="midnightblue" d="M1210.7,-295.154C1272.52,-283.491 1364.51,-264.873 1378,-255 1393.79,-243.446 1404.1,-223.184 1409.95,-208.345"/>
<polygon fill="midnightblue" stroke="midnightblue" points="1413.33,-209.296 1413.43,-198.701 1406.74,-206.919 1413.33,-209.296"/>
</g>
<!-- Node23 -->
<g id="node23" class="node"><title>Node23</title>
<g id="a_node23"><a xlink:href="ndarray_8h.html" target="_top" xlink:title="A device&#45;independent managed NDArray abstraction. ">
<polygon fill="white" stroke="black" points="340.5,-235.5 340.5,-254.5 463.5,-254.5 463.5,-235.5 340.5,-235.5"/>
<text text-anchor="middle" x="402" y="-242.5" font-family="Helvetica,sans-Serif" font-size="10.00">tvm/runtime/ndarray.h</text>
</a>
</g>
</g>
<!-- Node17&#45;&gt;Node23 -->
<g id="edge39" class="edge"><title>Node17&#45;&gt;Node23</title>
<path fill="none" stroke="midnightblue" d="M1097.48,-301.028C962.799,-290.372 623.103,-263.494 474.024,-251.699"/>
<polygon fill="midnightblue" stroke="midnightblue" points="473.87,-248.176 463.625,-250.876 473.318,-255.154 473.87,-248.176"/>
</g>
<!-- Node26 -->
<g id="node26" class="node"><title>Node26</title>
<polygon fill="white" stroke="#bfbfbf" points="1430.5,-235.5 1430.5,-254.5 1493.5,-254.5 1493.5,-235.5 1430.5,-235.5"/>
<text text-anchor="middle" x="1462" y="-242.5" font-family="Helvetica,sans-Serif" font-size="10.00">functional</text>
</g>
<!-- Node17&#45;&gt;Node26 -->
<g id="edge52" class="edge"><title>Node17&#45;&gt;Node26</title>
<path fill="none" stroke="midnightblue" d="M1210.74,-294.611C1263.81,-284.414 1345.29,-268.732 1416,-255 1417.45,-254.719 1418.92,-254.432 1420.41,-254.143"/>
<polygon fill="midnightblue" stroke="midnightblue" points="1421.18,-257.558 1430.33,-252.209 1419.84,-250.687 1421.18,-257.558"/>
</g>
<!-- Node27 -->
<g id="node27" class="node"><title>Node27</title>
<polygon fill="white" stroke="#bfbfbf" points="1234.5,-235.5 1234.5,-254.5 1275.5,-254.5 1275.5,-235.5 1234.5,-235.5"/>
<text text-anchor="middle" x="1255" y="-242.5" font-family="Helvetica,sans-Serif" font-size="10.00">tuple</text>
</g>
<!-- Node17&#45;&gt;Node27 -->
<g id="edge53" class="edge"><title>Node17&#45;&gt;Node27</title>
<path fill="none" stroke="midnightblue" d="M1177.94,-291.399C1194.13,-281.862 1215.41,-269.325 1231.5,-259.842"/>
<polygon fill="midnightblue" stroke="midnightblue" points="1233.46,-262.749 1240.3,-254.658 1229.91,-256.718 1233.46,-262.749"/>
</g>
<!-- Node28 -->
<g id="node28" class="node"><title>Node28</title>
<polygon fill="white" stroke="#bfbfbf" points="1294,-235.5 1294,-254.5 1336,-254.5 1336,-235.5 1294,-235.5"/>
<text text-anchor="middle" x="1315" y="-242.5" font-family="Helvetica,sans-Serif" font-size="10.00">limits</text>
</g>
<!-- Node17&#45;&gt;Node28 -->
<g id="edge56" class="edge"><title>Node17&#45;&gt;Node28</title>
<path fill="none" stroke="midnightblue" d="M1192.15,-291.399C1220.35,-280.978 1258.25,-266.975 1284.45,-257.289"/>
<polygon fill="midnightblue" stroke="midnightblue" points="1285.72,-260.554 1293.88,-253.804 1283.29,-253.988 1285.72,-260.554"/>
</g>
<!-- Node18&#45;&gt;Node2 -->
<g id="edge32" class="edge"><title>Node18&#45;&gt;Node2</title>
<path fill="none" stroke="midnightblue" d="M1157.32,-235.11C1161.86,-221.214 1167.98,-194.351 1154,-179 1150.56,-175.228 874.191,-151.169 741.984,-139.86"/>
<polygon fill="midnightblue" stroke="midnightblue" points="742.214,-136.367 731.952,-139.002 741.617,-143.341 742.214,-136.367"/>
</g>
<!-- Node18&#45;&gt;Node4 -->
<g id="edge31" class="edge"><title>Node18&#45;&gt;Node4</title>
<path fill="none" stroke="midnightblue" d="M1161.05,-235.323C1171.22,-221.719 1187.28,-195.248 1173,-179 1156.99,-160.782 764.12,-125.565 740,-123 548.732,-102.66 322.716,-85.6563 208.69,-77.5688"/>
<polygon fill="midnightblue" stroke="midnightblue" points="208.897,-74.0748 198.675,-76.861 208.404,-81.0574 208.897,-74.0748"/>
</g>
<!-- Node18&#45;&gt;Node9 -->
<g id="edge36" class="edge"><title>Node18&#45;&gt;Node9</title>
<path fill="none" stroke="midnightblue" d="M1180.17,-235.4C1222.43,-221.782 1308.48,-195.148 1383,-179 1683.66,-113.85 2055.85,-82.9506 2166.52,-74.7769"/>
<polygon fill="midnightblue" stroke="midnightblue" points="2166.98,-78.2531 2176.7,-74.0355 2166.47,-71.2717 2166.98,-78.2531"/>
</g>
<!-- Node18&#45;&gt;Node15 -->
<g id="edge33" class="edge"><title>Node18&#45;&gt;Node15</title>
<path fill="none" stroke="midnightblue" d="M1216.32,-235.935C1219.25,-235.608 1222.16,-235.294 1225,-235 1424.13,-214.407 1474.45,-215.018 1674,-199 1686.35,-198.009 1699.47,-196.955 1712.21,-195.931"/>
<polygon fill="midnightblue" stroke="midnightblue" points="1712.64,-199.408 1722.33,-195.118 1712.08,-192.431 1712.64,-199.408"/>
</g>
<!-- Node18&#45;&gt;Node17 -->
<g id="edge38" class="edge"><title>Node18&#45;&gt;Node17</title>
<path fill="none" stroke="midnightblue" d="M1158.93,-254.658C1160.43,-261.655 1161.01,-271.857 1160.64,-281.289"/>
<polygon fill="midnightblue" stroke="midnightblue" points="1157.14,-281.153 1159.84,-291.399 1164.12,-281.709 1157.14,-281.153"/>
</g>
<!-- Node19 -->
<g id="node19" class="node"><title>Node19</title>
<polygon fill="white" stroke="#bfbfbf" points="332,-123.5 332,-142.5 392,-142.5 392,-123.5 332,-123.5"/>
<text text-anchor="middle" x="362" y="-130.5" font-family="Helvetica,sans-Serif" font-size="10.00">dmlc/io.h</text>
</g>
<!-- Node18&#45;&gt;Node19 -->
<g id="edge30" class="edge"><title>Node18&#45;&gt;Node19</title>
<path fill="none" stroke="midnightblue" d="M1152.33,-235.43C1149.02,-220.962 1140.1,-192.002 1120,-179 1104.8,-169.17 557.403,-143.069 402.479,-135.865"/>
<polygon fill="midnightblue" stroke="midnightblue" points="402.584,-132.366 392.433,-135.398 402.26,-139.358 402.584,-132.366"/>
</g>
<!-- Node18&#45;&gt;Node20 -->
<g id="edge34" class="edge"><title>Node18&#45;&gt;Node20</title>
<path fill="none" stroke="midnightblue" d="M1142.59,-235.324C1131.89,-227.185 1115.66,-214.839 1102.84,-205.087"/>
<polygon fill="midnightblue" stroke="midnightblue" points="1104.69,-202.102 1094.61,-198.834 1100.46,-207.673 1104.69,-202.102"/>
</g>
<!-- Node18&#45;&gt;Node21 -->
<g id="edge35" class="edge"><title>Node18&#45;&gt;Node21</title>
<path fill="none" stroke="midnightblue" d="M1195.51,-235.444C1247.27,-224.777 1334.72,-206.753 1382.45,-196.915"/>
<polygon fill="midnightblue" stroke="midnightblue" points="1383.2,-200.334 1392.29,-194.888 1381.79,-193.478 1383.2,-200.334"/>
</g>
<!-- Node22 -->
<g id="node22" class="node"><title>Node22</title>
<polygon fill="white" stroke="#bfbfbf" points="1572.5,-179.5 1572.5,-198.5 1665.5,-198.5 1665.5,-179.5 1572.5,-179.5"/>
<text text-anchor="middle" x="1619" y="-186.5" font-family="Helvetica,sans-Serif" font-size="10.00">unordered_map</text>
</g>
<!-- Node18&#45;&gt;Node22 -->
<g id="edge37" class="edge"><title>Node18&#45;&gt;Node22</title>
<path fill="none" stroke="midnightblue" d="M1216.33,-236.054C1219.26,-235.695 1222.16,-235.342 1225,-235 1344.79,-220.567 1485.22,-204.805 1561.89,-196.298"/>
<polygon fill="midnightblue" stroke="midnightblue" points="1562.72,-199.728 1572.28,-195.147 1561.95,-192.77 1562.72,-199.728"/>
</g>
<!-- Node23&#45;&gt;Node2 -->
<g id="edge41" class="edge"><title>Node23&#45;&gt;Node2</title>
<path fill="none" stroke="midnightblue" d="M421.565,-235.317C450.4,-222.593 506.078,-198.297 554,-179 582.864,-167.377 615.996,-154.919 639.959,-146.065"/>
<polygon fill="midnightblue" stroke="midnightblue" points="641.454,-149.244 649.628,-142.504 639.034,-142.676 641.454,-149.244"/>
</g>
<!-- Node23&#45;&gt;Node4 -->
<g id="edge40" class="edge"><title>Node23&#45;&gt;Node4</title>
<path fill="none" stroke="midnightblue" d="M340.393,-242.083C271.348,-238.507 165.68,-228.273 140,-199 115.452,-171.017 121.196,-124.693 127.896,-96.5435"/>
<polygon fill="midnightblue" stroke="midnightblue" points="131.321,-97.2799 130.449,-86.721 124.546,-95.5188 131.321,-97.2799"/>
</g>
<!-- Node23&#45;&gt;Node10 -->
<g id="edge49" class="edge"><title>Node23&#45;&gt;Node10</title>
<path fill="none" stroke="midnightblue" d="M436.461,-235.445C528.942,-212.861 790.598,-151.432 1012,-123 1328.37,-82.3724 1715.58,-74.3397 1826.79,-72.832"/>
<polygon fill="midnightblue" stroke="midnightblue" points="1827.02,-76.3295 1836.97,-72.7021 1826.93,-69.33 1827.02,-76.3295"/>
</g>
<!-- Node23&#45;&gt;Node11 -->
<g id="edge47" class="edge"><title>Node23&#45;&gt;Node11</title>
<path fill="none" stroke="midnightblue" d="M407.147,-235.26C423.021,-208.306 471.424,-126.116 492.739,-89.9237"/>
<polygon fill="midnightblue" stroke="midnightblue" points="495.924,-91.4123 497.983,-81.0194 489.892,-87.86 495.924,-91.4123"/>
</g>
<!-- Node23&#45;&gt;Node21 -->
<g id="edge48" class="edge"><title>Node23&#45;&gt;Node21</title>
<path fill="none" stroke="midnightblue" d="M463.525,-240.724C654.83,-230.536 1235.2,-199.629 1381.98,-191.812"/>
<polygon fill="midnightblue" stroke="midnightblue" points="1382.38,-195.296 1392.18,-191.269 1382,-188.306 1382.38,-195.296"/>
</g>
<!-- Node24 -->
<g id="node24" class="node"><title>Node24</title>
<g id="a_node24"><a xlink:href="serializer_8h.html" target="_top" xlink:title="Serializer extension to support TVM data types Include this file to enable serialization of DLDataTyp...">
<polygon fill="white" stroke="black" points="182,-179.5 182,-198.5 312,-198.5 312,-179.5 182,-179.5"/>
<text text-anchor="middle" x="247" y="-186.5" font-family="Helvetica,sans-Serif" font-size="10.00">tvm/runtime/serializer.h</text>
</a>
</g>
</g>
<!-- Node23&#45;&gt;Node24 -->
<g id="edge42" class="edge"><title>Node23&#45;&gt;Node24</title>
<path fill="none" stroke="midnightblue" d="M372.351,-235.444C344.527,-226.438 303.413,-212.189 275.855,-202.049"/>
<polygon fill="midnightblue" stroke="midnightblue" points="276.958,-198.725 266.365,-198.516 274.516,-205.285 276.958,-198.725"/>
</g>
<!-- Node24&#45;&gt;Node4 -->
<g id="edge45" class="edge"><title>Node24&#45;&gt;Node4</title>
<path fill="none" stroke="midnightblue" d="M238.582,-179.319C221.155,-161.347 180.679,-119.606 155.798,-93.9478"/>
<polygon fill="midnightblue" stroke="midnightblue" points="158.094,-91.2878 148.62,-86.5453 153.069,-96.1608 158.094,-91.2878"/>
</g>
<!-- Node24&#45;&gt;Node19 -->
<g id="edge43" class="edge"><title>Node24&#45;&gt;Node19</title>
<path fill="none" stroke="midnightblue" d="M265.222,-179.444C283.896,-170.675 313.156,-156.935 334.617,-146.858"/>
<polygon fill="midnightblue" stroke="midnightblue" points="336.299,-149.935 343.863,-142.516 333.324,-143.599 336.299,-149.935"/>
</g>
<!-- Node24&#45;&gt;Node23 -->
<g id="edge46" class="edge"><title>Node24&#45;&gt;Node23</title>
<path fill="none" stroke="midnightblue" d="M276.525,-198.516C304.31,-207.506 345.424,-221.754 373.022,-231.906"/>
<polygon fill="midnightblue" stroke="midnightblue" points="371.936,-235.236 382.529,-235.444 374.377,-228.676 371.936,-235.236"/>
</g>
<!-- Node25 -->
<g id="node25" class="node"><title>Node25</title>
<polygon fill="white" stroke="#bfbfbf" points="220,-123.5 220,-142.5 314,-142.5 314,-123.5 220,-123.5"/>
<text text-anchor="middle" x="267" y="-130.5" font-family="Helvetica,sans-Serif" font-size="10.00">dmlc/serializer.h</text>
</g>
<!-- Node24&#45;&gt;Node25 -->
<g id="edge44" class="edge"><title>Node24&#45;&gt;Node25</title>
<path fill="none" stroke="midnightblue" d="M250.303,-179.083C252.982,-171.849 256.849,-161.409 260.186,-152.397"/>
<polygon fill="midnightblue" stroke="midnightblue" points="263.568,-153.344 263.759,-142.751 257.004,-150.913 263.568,-153.344"/>
</g>
<!-- Node31&#45;&gt;Node2 -->
<g id="edge70" class="edge"><title>Node31&#45;&gt;Node2</title>
<path fill="none" stroke="midnightblue" d="M968.161,-545.031C885.57,-542.495 742.356,-533.406 703,-501 607.892,-422.688 597.895,-355.181 625,-235 632.052,-203.732 649.974,-170.785 661.811,-151.331"/>
<polygon fill="midnightblue" stroke="midnightblue" points="664.874,-153.033 667.208,-142.699 658.938,-149.322 664.874,-153.033"/>
</g>
<!-- Node31&#45;&gt;Node4 -->
<g id="edge69" class="edge"><title>Node31&#45;&gt;Node4</title>
<path fill="none" stroke="midnightblue" d="M968.475,-544.913C866.626,-542.204 663.826,-532.86 601,-501 560.311,-480.366 532,-470.622 532,-425 532,-425 532,-425 532,-367 532,-196.887 314.642,-337.727 166,-255 135.518,-238.035 125.064,-230.925 111,-199 97.3719,-168.065 99.7845,-155.791 108,-123 110.388,-113.471 114.955,-103.774 119.663,-95.459"/>
<polygon fill="midnightblue" stroke="midnightblue" points="122.755,-97.1096 124.93,-86.7405 116.763,-93.4898 122.755,-97.1096"/>
</g>
<!-- Node31&#45;&gt;Node8 -->
<g id="edge103" class="edge"><title>Node31&#45;&gt;Node8</title>
<path fill="none" stroke="midnightblue" d="M968.47,-540.312C900.322,-530.141 798,-502.041 798,-425 798,-425 798,-425 798,-244 798,-208.419 866.916,-124.491 897.582,-88.9068"/>
<polygon fill="midnightblue" stroke="midnightblue" points="900.248,-91.1748 904.164,-81.3304 894.964,-86.5837 900.248,-91.1748"/>
</g>
<!-- Node31&#45;&gt;Node9 -->
<g id="edge102" class="edge"><title>Node31&#45;&gt;Node9</title>
<path fill="none" stroke="midnightblue" d="M1087.51,-544.829C1203.51,-541.88 1455.55,-532.006 1536,-501 1557.32,-492.784 1555.57,-477.916 1577,-470 1825.93,-378.043 1917.72,-506.48 2173,-434 2231.72,-417.327 2294,-430.046 2294,-369 2294,-369 2294,-369 2294,-188 2294,-143.018 2250.49,-106.021 2222.36,-86.8025"/>
<polygon fill="midnightblue" stroke="midnightblue" points="2224.12,-83.7713 2213.84,-81.2 2220.28,-89.6196 2224.12,-83.7713"/>
</g>
<!-- Node31&#45;&gt;Node12 -->
<g id="edge74" class="edge"><title>Node31&#45;&gt;Node12</title>
<path fill="none" stroke="midnightblue" d="M968.301,-542.746C917.449,-538.188 843.395,-527.248 784,-501 732.94,-478.435 684,-480.823 684,-425 684,-425 684,-425 684,-367 684,-330.497 692.114,-288.467 697.446,-264.786"/>
<polygon fill="midnightblue" stroke="midnightblue" points="700.927,-265.273 699.793,-254.739 694.11,-263.681 700.927,-265.273"/>
</g>
<!-- Node31&#45;&gt;Node15 -->
<g id="edge71" class="edge"><title>Node31&#45;&gt;Node15</title>
<path fill="none" stroke="midnightblue" d="M1087.85,-544.111C1197.44,-540.025 1425.89,-528.424 1500,-501 1522.43,-492.698 1521.59,-478.382 1544,-470 1690.88,-415.052 1751.97,-498.295 1895,-434 1978.69,-396.379 2019.18,-295.288 1950,-235 1925.1,-213.295 1890.63,-201.967 1859.72,-196.091"/>
<polygon fill="midnightblue" stroke="midnightblue" points="1860.28,-192.636 1849.83,-194.369 1859.08,-199.532 1860.28,-192.636"/>
</g>
<!-- Node31&#45;&gt;Node17 -->
<g id="edge72" class="edge"><title>Node31&#45;&gt;Node17</title>
<path fill="none" stroke="midnightblue" d="M1032.63,-537.229C1050.4,-503.595 1114.55,-382.181 1141.71,-330.764"/>
<polygon fill="midnightblue" stroke="midnightblue" points="1144.9,-332.214 1146.48,-321.737 1138.71,-328.944 1144.9,-332.214"/>
</g>
<!-- Node31&#45;&gt;Node21 -->
<g id="edge101" class="edge"><title>Node31&#45;&gt;Node21</title>
<path fill="none" stroke="midnightblue" d="M1036.88,-537.448C1079.1,-496.939 1260.46,-324.916 1330,-291 1400.2,-256.764 1452.76,-315.619 1502,-255 1507.6,-248.101 1506.6,-242.604 1502,-235 1495.73,-224.64 1469.39,-211.728 1447.49,-202.396"/>
<polygon fill="midnightblue" stroke="midnightblue" points="1448.72,-199.116 1438.15,-198.508 1446.03,-205.579 1448.72,-199.116"/>
</g>
<!-- Node31&#45;&gt;Node23 -->
<g id="edge73" class="edge"><title>Node31&#45;&gt;Node23</title>
<path fill="none" stroke="midnightblue" d="M968.448,-546.461C871.113,-546.051 683.595,-540.03 632,-501 551.565,-440.154 620.309,-359.192 546,-291 526.152,-272.786 499.01,-261.944 473.639,-255.49"/>
<polygon fill="midnightblue" stroke="midnightblue" points="474.185,-252.023 463.649,-253.145 472.585,-258.838 474.185,-252.023"/>
</g>
<!-- Node31&#45;&gt;Node32 -->
<g id="edge75" class="edge"><title>Node31&#45;&gt;Node32</title>
<path fill="none" stroke="midnightblue" d="M1062.1,-537.475C1098.07,-528.483 1155.63,-514.093 1200.43,-502.891"/>
<polygon fill="midnightblue" stroke="midnightblue" points="1201.51,-506.229 1210.37,-500.408 1199.82,-499.438 1201.51,-506.229"/>
</g>
<!-- Node31&#45;&gt;Node35 -->
<g id="edge95" class="edge"><title>Node31&#45;&gt;Node35</title>
<path fill="none" stroke="midnightblue" d="M1086.46,-537.475C1161.53,-526.527 1291.47,-507.578 1370.01,-496.123"/>
<polygon fill="midnightblue" stroke="midnightblue" points="1370.88,-499.534 1380.27,-494.627 1369.87,-492.607 1370.88,-499.534"/>
</g>
<!-- Node32&#45;&gt;Node9 -->
<g id="edge94" class="edge"><title>Node32&#45;&gt;Node9</title>
<path fill="none" stroke="midnightblue" d="M1321.77,-476.074C1337.65,-473.871 1354.98,-471.654 1371,-470 1603.2,-446.019 1670.12,-496.624 1895,-434 2044.73,-392.302 2073.46,-331.937 2154,-199 2168.74,-174.669 2175.22,-169.715 2185,-143 2191.16,-126.171 2194.81,-106.037 2196.84,-91.6029"/>
<polygon fill="midnightblue" stroke="midnightblue" points="2200.34,-91.7807 2198.12,-81.4205 2193.4,-90.9021 2200.34,-91.7807"/>
</g>
<!-- Node32&#45;&gt;Node12 -->
<g id="edge76" class="edge"><title>Node32&#45;&gt;Node12</title>
<path fill="none" stroke="midnightblue" d="M1210.37,-478.379C1123.9,-467.302 953.54,-439.161 822,-378 783.954,-360.31 773.989,-353.257 746,-322 730.315,-304.484 717.56,-280.491 709.897,-264.181"/>
<polygon fill="midnightblue" stroke="midnightblue" points="712.927,-262.387 705.617,-254.718 706.549,-265.272 712.927,-262.387"/>
</g>
<!-- Node33 -->
<g id="node33" class="node"><title>Node33</title>
<g id="a_node33"><a xlink:href="functor_8h.html" target="_top" xlink:title="Defines the Functor data structures. ">
<polygon fill="white" stroke="black" points="1664.5,-235.5 1664.5,-254.5 1771.5,-254.5 1771.5,-235.5 1664.5,-235.5"/>
<text text-anchor="middle" x="1718" y="-242.5" font-family="Helvetica,sans-Serif" font-size="10.00">tvm/node/functor.h</text>
</a>
</g>
</g>
<!-- Node32&#45;&gt;Node33 -->
<g id="edge77" class="edge"><title>Node32&#45;&gt;Node33</title>
<path fill="none" stroke="midnightblue" d="M1268.5,-470.355C1275.78,-433.759 1300.61,-335.706 1364,-291 1387.2,-274.637 1558.7,-258.633 1654.21,-250.865"/>
<polygon fill="midnightblue" stroke="midnightblue" points="1654.65,-254.341 1664.34,-250.049 1654.09,-247.364 1654.65,-254.341"/>
</g>
<!-- Node32&#45;&gt;Node34 -->
<g id="edge83" class="edge"><title>Node32&#45;&gt;Node34</title>
<path fill="none" stroke="midnightblue" d="M1321.53,-476.421C1337.49,-474.211 1354.92,-471.903 1371,-470 1507.54,-453.841 1667.57,-438.989 1757.13,-431.045"/>
<polygon fill="midnightblue" stroke="midnightblue" points="1757.51,-434.525 1767.17,-430.158 1756.9,-427.552 1757.51,-434.525"/>
</g>
<!-- Node33&#45;&gt;Node2 -->
<g id="edge79" class="edge"><title>Node33&#45;&gt;Node2</title>
<path fill="none" stroke="midnightblue" d="M1664.15,-236.846C1617.8,-229.848 1549.5,-217.52 1492,-199 1471.55,-192.415 1468.85,-184.154 1448,-179 1380.53,-162.324 918.658,-143.307 741.746,-136.547"/>
<polygon fill="midnightblue" stroke="midnightblue" points="741.644,-133.041 731.518,-136.158 741.378,-140.036 741.644,-133.041"/>
</g>
<!-- Node33&#45;&gt;Node3 -->
<g id="edge78" class="edge"><title>Node33&#45;&gt;Node3</title>
<path fill="none" stroke="midnightblue" d="M1664.27,-236.036C1623.74,-229.022 1567.25,-217.07 1520,-199 1502.9,-192.462 1501.38,-184.737 1484,-179 1411.97,-155.224 895.293,-96.9545 726.323,-78.327"/>
<polygon fill="midnightblue" stroke="midnightblue" points="726.497,-74.8251 716.174,-77.2097 725.731,-81.783 726.497,-74.8251"/>
</g>
<!-- Node33&#45;&gt;Node8 -->
<g id="edge81" class="edge"><title>Node33&#45;&gt;Node8</title>
<path fill="none" stroke="midnightblue" d="M1683.03,-235.481C1651.29,-227.364 1603.4,-214.159 1563,-199 1543.27,-191.596 1540.11,-185.317 1520,-179 1314.86,-114.558 1057.79,-85.7083 956.209,-76.2455"/>
<polygon fill="midnightblue" stroke="midnightblue" points="956.295,-72.7389 946.018,-75.313 955.657,-79.7098 956.295,-72.7389"/>
</g>
<!-- Node33&#45;&gt;Node10 -->
<g id="edge82" class="edge"><title>Node33&#45;&gt;Node10</title>
<path fill="none" stroke="midnightblue" d="M1771.8,-241.57C1802.38,-237.091 1838.37,-225.923 1858,-199 1881.31,-167.024 1871.81,-117.396 1864.13,-90.8032"/>
<polygon fill="midnightblue" stroke="midnightblue" points="1867.47,-89.7393 1861.16,-81.2295 1860.78,-91.8178 1867.47,-89.7393"/>
</g>
<!-- Node33&#45;&gt;Node21 -->
<g id="edge80" class="edge"><title>Node33&#45;&gt;Node21</title>
<path fill="none" stroke="midnightblue" d="M1664.47,-235.901C1611,-227.57 1526.56,-213.76 1454,-199 1452.55,-198.704 1451.06,-198.394 1449.57,-198.072"/>
<polygon fill="midnightblue" stroke="midnightblue" points="1450.19,-194.625 1439.67,-195.851 1448.66,-201.455 1450.19,-194.625"/>
</g>
<!-- Node34&#45;&gt;Node2 -->
<g id="edge84" class="edge"><title>Node34&#45;&gt;Node2</title>
<path fill="none" stroke="midnightblue" d="M1767.45,-421.16C1587.42,-414.883 1051.52,-390.749 893,-322 845.368,-301.342 731.25,-191.501 689.047,-149.945"/>
<polygon fill="midnightblue" stroke="midnightblue" points="691.393,-147.343 681.82,-142.803 686.473,-152.322 691.393,-147.343"/>
</g>
<!-- Node34&#45;&gt;Node8 -->
<g id="edge88" class="edge"><title>Node34&#45;&gt;Node8</title>
<path fill="none" stroke="midnightblue" d="M1842.1,-414.479C1854.22,-406.709 1870.43,-394.012 1878,-378 1894.54,-343.036 1895.84,-326.283 1880,-291 1864.65,-256.825 1849.32,-253.937 1817,-235 1774.8,-210.275 1757.98,-218.207 1713,-199 1695.09,-191.351 1692.47,-185.188 1674,-179 1411.82,-91.1581 1075.41,-75.7408 956.243,-73.0571"/>
<polygon fill="midnightblue" stroke="midnightblue" points="956.125,-69.554 946.055,-72.8472 955.981,-76.5525 956.125,-69.554"/>
</g>
<!-- Node34&#45;&gt;Node9 -->
<g id="edge93" class="edge"><title>Node34&#45;&gt;Node9</title>
<path fill="none" stroke="midnightblue" d="M1886.12,-414.455C1915.48,-408.035 1950.28,-396.954 1977,-378 2089.57,-298.158 2167.11,-143.066 2191.12,-90.4562"/>
<polygon fill="midnightblue" stroke="midnightblue" points="2194.42,-91.6569 2195.32,-81.1 2188.03,-88.7935 2194.42,-91.6569"/>
</g>
<!-- Node34&#45;&gt;Node10 -->
<g id="edge92" class="edge"><title>Node34&#45;&gt;Node10</title>
<path fill="none" stroke="midnightblue" d="M1885.59,-414.437C1910.2,-408.103 1937.37,-397.1 1956,-378 1974.26,-359.288 1969.95,-347.828 1974,-322 1988.54,-229.228 1953.19,-202.368 1903,-123 1894.96,-110.283 1883.69,-97.646 1874.45,-88.194"/>
<polygon fill="midnightblue" stroke="midnightblue" points="1876.83,-85.631 1867.27,-81.0718 1871.9,-90.5999 1876.83,-85.631"/>
</g>
<!-- Node34&#45;&gt;Node14 -->
<g id="edge87" class="edge"><title>Node34&#45;&gt;Node14</title>
<path fill="none" stroke="midnightblue" d="M1787.7,-414.444C1744.44,-405.023 1674.83,-389.866 1628.03,-379.675"/>
<polygon fill="midnightblue" stroke="midnightblue" points="1628.63,-376.224 1618.11,-377.516 1627.14,-383.064 1628.63,-376.224"/>
</g>
<!-- Node34&#45;&gt;Node15 -->
<g id="edge85" class="edge"><title>Node34&#45;&gt;Node15</title>
<path fill="none" stroke="midnightblue" d="M1879.28,-414.478C1900.59,-408.151 1923.19,-397.143 1936,-378 1971.4,-325.094 1969.15,-283.567 1928,-235 1910.88,-214.794 1884.73,-203.553 1859.52,-197.338"/>
<polygon fill="midnightblue" stroke="midnightblue" points="1860.08,-193.876 1849.56,-195.119 1858.56,-200.708 1860.08,-193.876"/>
</g>
<!-- Node34&#45;&gt;Node17 -->
<g id="edge86" class="edge"><title>Node34&#45;&gt;Node17</title>
<path fill="none" stroke="midnightblue" d="M1767.3,-415.779C1702.35,-407.667 1595.54,-393.581 1504,-378 1404.99,-361.147 1291.1,-337.385 1220.83,-322.211"/>
<polygon fill="midnightblue" stroke="midnightblue" points="1221.3,-318.732 1210.79,-320.037 1219.82,-325.574 1221.3,-318.732"/>
</g>
<!-- Node34&#45;&gt;Node21 -->
<g id="edge89" class="edge"><title>Node34&#45;&gt;Node21</title>
<path fill="none" stroke="midnightblue" d="M1830.2,-414.38C1838.15,-391.363 1856.03,-327.724 1826,-291 1776.84,-230.876 1728.69,-279.536 1655,-255 1635,-248.341 1631.99,-241.695 1612,-235 1542.7,-211.788 1519.74,-218.083 1449.53,-200.36"/>
<polygon fill="midnightblue" stroke="midnightblue" points="1450.34,-196.954 1439.78,-197.822 1448.58,-203.728 1450.34,-196.954"/>
</g>
<!-- Node34&#45;&gt;Node22 -->
<g id="edge91" class="edge"><title>Node34&#45;&gt;Node22</title>
<path fill="none" stroke="midnightblue" d="M1836.02,-414.34C1844.07,-405.932 1855.3,-392.363 1860,-378 1872.03,-341.252 1877.86,-325.297 1860,-291 1839.96,-252.504 1819.24,-253.55 1780,-235 1746.74,-219.273 1706.93,-208.087 1675.23,-200.801"/>
<polygon fill="midnightblue" stroke="midnightblue" points="1675.76,-197.333 1665.23,-198.571 1674.23,-204.165 1675.76,-197.333"/>
</g>
<!-- Node34&#45;&gt;Node30 -->
<g id="edge90" class="edge"><title>Node34&#45;&gt;Node30</title>
<path fill="none" stroke="midnightblue" d="M1823.39,-414.319C1815.61,-395.59 1797.1,-351.046 1786.6,-325.792"/>
<polygon fill="midnightblue" stroke="midnightblue" points="1789.72,-324.173 1782.65,-316.282 1783.26,-326.86 1789.72,-324.173"/>
</g>
<!-- Node35&#45;&gt;Node9 -->
<g id="edge99" class="edge"><title>Node35&#45;&gt;Node9</title>
<path fill="none" stroke="midnightblue" d="M1491.69,-476.304C1508.48,-474.028 1526.96,-471.714 1544,-470 1781.56,-446.102 1846.51,-483.87 2080,-434 2161.55,-416.583 2256,-452.386 2256,-369 2256,-369 2256,-369 2256,-188 2256,-149.283 2229.93,-110.104 2213.05,-88.7979"/>
<polygon fill="midnightblue" stroke="midnightblue" points="2215.74,-86.5616 2206.69,-81.0574 2210.33,-91.0057 2215.74,-86.5616"/>
</g>
<!-- Node35&#45;&gt;Node12 -->
<g id="edge96" class="edge"><title>Node35&#45;&gt;Node12</title>
<path fill="none" stroke="midnightblue" d="M1380.33,-475.656C1270.22,-456.906 1018.3,-407.703 822,-322 783.892,-305.363 743.925,-277.671 721.08,-260.704"/>
<polygon fill="midnightblue" stroke="midnightblue" points="723.025,-257.788 712.932,-254.566 718.813,-263.379 723.025,-257.788"/>
</g>
<!-- Node35&#45;&gt;Node26 -->
<g id="edge100" class="edge"><title>Node35&#45;&gt;Node26</title>
<path fill="none" stroke="midnightblue" d="M1434.22,-470.149C1430.64,-437.677 1424.18,-356.312 1440,-291 1442.33,-281.386 1446.93,-271.431 1451.33,-263.337"/>
<polygon fill="midnightblue" stroke="midnightblue" points="1454.44,-264.942 1456.42,-254.533 1448.38,-261.436 1454.44,-264.942"/>
</g>
<!-- Node35&#45;&gt;Node33 -->
<g id="edge97" class="edge"><title>Node35&#45;&gt;Node33</title>
<path fill="none" stroke="midnightblue" d="M1437.76,-470.448C1443.2,-428.091 1460.14,-303.771 1473,-291 1498.02,-266.164 1590.53,-254.711 1654.43,-249.668"/>
<polygon fill="midnightblue" stroke="midnightblue" points="1654.72,-253.156 1664.42,-248.912 1654.19,-246.176 1654.72,-253.156"/>
</g>
<!-- Node35&#45;&gt;Node34 -->
<g id="edge98" class="edge"><title>Node35&#45;&gt;Node34</title>
<path fill="none" stroke="midnightblue" d="M1491.72,-472.617C1496.54,-471.692 1501.35,-470.806 1506,-470 1592.18,-455.049 1692.05,-441.665 1757.21,-433.456"/>
<polygon fill="midnightblue" stroke="midnightblue" points="1757.87,-436.9 1767.36,-432.183 1757,-429.954 1757.87,-436.9"/>
</g>
<!-- Node36&#45;&gt;Node33 -->
<g id="edge105" class="edge"><title>Node36&#45;&gt;Node33</title>
<path fill="none" stroke="midnightblue" d="M1431.87,-538.309C1408.77,-532.089 1385.05,-520.936 1371,-501 1322.42,-432.059 1269.81,-432.73 1459,-291 1489.1,-268.454 1587.77,-256.288 1654.26,-250.48"/>
<polygon fill="midnightblue" stroke="midnightblue" points="1654.56,-253.967 1664.23,-249.636 1653.97,-246.992 1654.56,-253.967"/>
</g>
<!-- Node37 -->
<g id="node37" class="node"><title>Node37</title>
<polygon fill="white" stroke="#bfbfbf" points="1586.5,-476 1586.5,-495 1645.5,-495 1645.5,-476 1586.5,-476"/>
<text text-anchor="middle" x="1616" y="-483" font-family="Helvetica,sans-Serif" font-size="10.00">iostream</text>
</g>
<!-- Node36&#45;&gt;Node37 -->
<g id="edge106" class="edge"><title>Node36&#45;&gt;Node37</title>
<path fill="none" stroke="midnightblue" d="M1514.05,-537.475C1533.84,-527.578 1566.72,-511.142 1589.77,-499.615"/>
<polygon fill="midnightblue" stroke="midnightblue" points="1591.6,-502.612 1598.98,-495.009 1588.47,-496.351 1591.6,-502.612"/>
</g>
<!-- Node38&#45;&gt;Node2 -->
<g id="edge116" class="edge"><title>Node38&#45;&gt;Node2</title>
<path fill="none" stroke="midnightblue" d="M1583.94,-657.34C1380.92,-653.658 471.591,-632.999 374,-557 347.885,-536.663 350,-519.599 350,-486.5 350,-486.5 350,-486.5 350,-367 350,-307.729 296.135,-282.932 331,-235 348.599,-210.805 534.61,-165.564 624.67,-144.854"/>
<polygon fill="midnightblue" stroke="midnightblue" points="625.674,-148.215 634.64,-142.572 624.112,-141.392 625.674,-148.215"/>
</g>
<!-- Node38&#45;&gt;Node9 -->
<g id="edge118" class="edge"><title>Node38&#45;&gt;Node9</title>
<path fill="none" stroke="midnightblue" d="M1664.23,-656.642C1824.38,-650.712 2408,-623.895 2408,-548 2408,-548 2408,-548 2408,-188 2408,-108.383 2290.38,-83.2204 2231.61,-75.6169"/>
<polygon fill="midnightblue" stroke="midnightblue" points="2231.71,-72.1038 2221.37,-74.3923 2230.88,-79.0543 2231.71,-72.1038"/>
</g>
<!-- Node38&#45;&gt;Node13 -->
<g id="edge117" class="edge"><title>Node38&#45;&gt;Node13</title>
<path fill="none" stroke="midnightblue" d="M1618.39,-649.083C1613.63,-641.534 1606.68,-630.495 1600.85,-621.23"/>
<polygon fill="midnightblue" stroke="midnightblue" points="1603.8,-619.349 1595.51,-612.751 1597.88,-623.078 1603.8,-619.349"/>
</g>
</g>
</svg>
