<?xml version="1.0" encoding="UTF-8" standalone="no"?>
<!DOCTYPE svg PUBLIC "-//W3C//DTD SVG 1.1//EN"
 "http://www.w3.org/Graphics/SVG/1.1/DTD/svg11.dtd">
<!-- Generated by graphviz version 2.38.0 (20140413.2041)
 -->
<!-- Title: include/tvm/ir/expr.h Pages: 1 -->
<svg width="2421pt" height="789pt"
 viewBox="0.00 0.00 2421.00 789.00" xmlns="http://www.w3.org/2000/svg" xmlns:xlink="http://www.w3.org/1999/xlink">
<g id="graph0" class="graph" transform="scale(1 1) rotate(0) translate(4 785)">
<title>include/tvm/ir/expr.h</title>
<polygon fill="white" stroke="none" points="-4,4 -4,-785 2417,-785 2417,4 -4,4"/>
<!-- Node1 -->
<g id="node1" class="node"><title>Node1</title>
<polygon fill="#bfbfbf" stroke="black" points="1604.5,-761.5 1604.5,-780.5 1717.5,-780.5 1717.5,-761.5 1604.5,-761.5"/>
<text text-anchor="middle" x="1661" y="-768.5" font-family="Helvetica,sans-Serif" font-size="10.00">include/tvm/ir/expr.h</text>
</g>
<!-- Node2 -->
<g id="node2" class="node"><title>Node2</title>
<g id="a_node2"><a xlink:href="object_8h.html" target="_top" xlink:title="A managed object in the TVM runtime. ">
<polygon fill="white" stroke="black" points="889.5,-123.5 889.5,-142.5 1006.5,-142.5 1006.5,-123.5 889.5,-123.5"/>
<text text-anchor="middle" x="948" y="-130.5" font-family="Helvetica,sans-Serif" font-size="10.00">tvm/runtime/object.h</text>
</a>
</g>
</g>
<!-- Node1&#45;&gt;Node2 -->
<g id="edge1" class="edge"><title>Node1&#45;&gt;Node2</title>
<path fill="none" stroke="midnightblue" d="M1604.28,-769.393C1389.7,-766.88 627.501,-755.929 387,-725 255.992,-708.152 97,-792.087 97,-660 97,-660 97,-660 97,-484.5 97,-300.92 199.208,-231.902 375,-179 467.452,-151.178 747.536,-139.705 878.766,-135.762"/>
<polygon fill="midnightblue" stroke="midnightblue" points="879.201,-139.25 889.094,-135.458 878.995,-132.253 879.201,-139.25"/>
</g>
<!-- Node8 -->
<g id="node8" class="node"><title>Node8</title>
<polygon fill="white" stroke="#bfbfbf" points="363,-62 363,-81 431,-81 431,-62 363,-62"/>
<text text-anchor="middle" x="397" y="-69" font-family="Helvetica,sans-Serif" font-size="10.00">type_traits</text>
</g>
<!-- Node1&#45;&gt;Node8 -->
<g id="edge128" class="edge"><title>Node1&#45;&gt;Node8</title>
<path fill="none" stroke="midnightblue" d="M1604.48,-770.103C1342.24,-770.346 250.599,-768.704 105,-725 52.4323,-709.221 0,-714.885 0,-660 0,-660 0,-660 0,-305.5 0,-221.753 266.086,-118.964 362.578,-84.4426"/>
<polygon fill="midnightblue" stroke="midnightblue" points="363.914,-87.6826 372.166,-81.0379 361.571,-81.0861 363.914,-87.6826"/>
</g>
<!-- Node9 -->
<g id="node9" class="node"><title>Node9</title>
<polygon fill="white" stroke="#bfbfbf" points="2073,-62 2073,-81 2117,-81 2117,-62 2073,-62"/>
<text text-anchor="middle" x="2095" y="-69" font-family="Helvetica,sans-Serif" font-size="10.00">string</text>
</g>
<!-- Node1&#45;&gt;Node9 -->
<g id="edge125" class="edge"><title>Node1&#45;&gt;Node9</title>
<path fill="none" stroke="midnightblue" d="M1717.73,-766.527C1878.06,-755.96 2323,-721.129 2323,-660 2323,-660 2323,-660 2323,-188 2323,-101.382 2190.43,-79.7038 2127.47,-74.2927"/>
<polygon fill="midnightblue" stroke="midnightblue" points="2127.52,-70.7862 2117.28,-73.5074 2126.98,-77.7655 2127.52,-70.7862"/>
</g>
<!-- Node12 -->
<g id="node12" class="node"><title>Node12</title>
<g id="a_node12"><a xlink:href="node_8h.html" target="_top" xlink:title="Definitions and helper macros for IR/AST nodes. ">
<polygon fill="white" stroke="black" points="1300,-593.5 1300,-612.5 1398,-612.5 1398,-593.5 1300,-593.5"/>
<text text-anchor="middle" x="1349" y="-600.5" font-family="Helvetica,sans-Serif" font-size="10.00">tvm/node/node.h</text>
</a>
</g>
</g>
<!-- Node1&#45;&gt;Node12 -->
<g id="edge11" class="edge"><title>Node1&#45;&gt;Node12</title>
<path fill="none" stroke="midnightblue" d="M1644.66,-761.309C1593.49,-734.08 1436.01,-650.292 1374.23,-617.426"/>
<polygon fill="midnightblue" stroke="midnightblue" points="1375.65,-614.212 1365.17,-612.605 1372.36,-620.392 1375.65,-614.212"/>
</g>
<!-- Node28 -->
<g id="node28" class="node"><title>Node28</title>
<polygon fill="white" stroke="#bfbfbf" points="533,-235.5 533,-254.5 575,-254.5 575,-235.5 533,-235.5"/>
<text text-anchor="middle" x="554" y="-242.5" font-family="Helvetica,sans-Serif" font-size="10.00">limits</text>
</g>
<!-- Node1&#45;&gt;Node28 -->
<g id="edge127" class="edge"><title>Node1&#45;&gt;Node28</title>
<path fill="none" stroke="midnightblue" d="M1604.16,-768.718C1336.07,-762.307 211,-731.162 211,-660 211,-660 211,-660 211,-602 211,-578.186 468.886,-328.01 537.435,-261.931"/>
<polygon fill="midnightblue" stroke="midnightblue" points="540.051,-264.271 544.826,-254.813 535.195,-259.229 540.051,-264.271"/>
</g>
<!-- Node34 -->
<g id="node34" class="node"><title>Node34</title>
<g id="a_node34"><a xlink:href="node_2container_8h.html" target="_top" xlink:title="Array/Map container in the DSL graph. ">
<polygon fill="white" stroke="black" points="1310.5,-414.5 1310.5,-433.5 1429.5,-433.5 1429.5,-414.5 1310.5,-414.5"/>
<text text-anchor="middle" x="1370" y="-421.5" font-family="Helvetica,sans-Serif" font-size="10.00">tvm/node/container.h</text>
</a>
</g>
</g>
<!-- Node1&#45;&gt;Node34 -->
<g id="edge113" class="edge"><title>Node1&#45;&gt;Node34</title>
<path fill="none" stroke="midnightblue" d="M1661,-761.442C1661,-742.936 1661,-697.812 1661,-660 1661,-660 1661,-660 1661,-546 1661,-511.072 1666.82,-493.526 1641,-470 1612.23,-443.783 1509.98,-432.704 1439.65,-428.117"/>
<polygon fill="midnightblue" stroke="midnightblue" points="1439.71,-424.614 1429.51,-427.486 1439.28,-431.601 1439.71,-424.614"/>
</g>
<!-- Node38 -->
<g id="node38" class="node"><title>Node38</title>
<g id="a_node38"><a xlink:href="span_8h.html" target="_top" xlink:title="Span information for debugging purposes. ">
<polygon fill="white" stroke="black" points="2047,-649.5 2047,-668.5 2127,-668.5 2127,-649.5 2047,-649.5"/>
<text text-anchor="middle" x="2087" y="-656.5" font-family="Helvetica,sans-Serif" font-size="10.00">tvm/ir/span.h</text>
</a>
</g>
</g>
<!-- Node1&#45;&gt;Node38 -->
<g id="edge114" class="edge"><title>Node1&#45;&gt;Node38</title>
<path fill="none" stroke="midnightblue" d="M1717.51,-768.077C1780.97,-764.499 1886.3,-754.267 1972,-725 2007.67,-712.819 2044.94,-689.487 2067.05,-674.343"/>
<polygon fill="midnightblue" stroke="midnightblue" points="2069.09,-677.192 2075.29,-668.6 2065.08,-671.451 2069.09,-677.192"/>
</g>
<!-- Node39 -->
<g id="node39" class="node"><title>Node39</title>
<g id="a_node39"><a xlink:href="ir_2type_8h.html" target="_top" xlink:title="IR/AST nodes for the unified type system in TVM. ">
<polygon fill="white" stroke="black" points="1886.5,-705.5 1886.5,-724.5 1963.5,-724.5 1963.5,-705.5 1886.5,-705.5"/>
<text text-anchor="middle" x="1925" y="-712.5" font-family="Helvetica,sans-Serif" font-size="10.00">tvm/ir/type.h</text>
</a>
</g>
</g>
<!-- Node1&#45;&gt;Node39 -->
<g id="edge118" class="edge"><title>Node1&#45;&gt;Node39</title>
<path fill="none" stroke="midnightblue" d="M1702.83,-761.444C1750.03,-751.789 1826.69,-736.108 1876.48,-725.924"/>
<polygon fill="midnightblue" stroke="midnightblue" points="1877.27,-729.335 1886.37,-723.902 1875.87,-722.477 1877.27,-729.335"/>
</g>
<!-- Node40 -->
<g id="node40" class="node"><title>Node40</title>
<polygon fill="white" stroke="#bfbfbf" points="2351,-705.5 2351,-724.5 2413,-724.5 2413,-705.5 2351,-705.5"/>
<text text-anchor="middle" x="2382" y="-712.5" font-family="Helvetica,sans-Serif" font-size="10.00">algorithm</text>
</g>
<!-- Node1&#45;&gt;Node40 -->
<g id="edge126" class="edge"><title>Node1&#45;&gt;Node40</title>
<path fill="none" stroke="midnightblue" d="M1717.78,-768.729C1834.32,-765.568 2108.76,-755.289 2337,-725 2338.11,-724.853 2339.23,-724.696 2340.35,-724.529"/>
<polygon fill="midnightblue" stroke="midnightblue" points="2341.33,-727.915 2350.62,-722.822 2340.18,-721.01 2341.33,-727.915"/>
</g>
<!-- Node3 -->
<g id="node3" class="node"><title>Node3</title>
<polygon fill="white" stroke="#bfbfbf" points="1565,-62 1565,-81 1651,-81 1651,-62 1565,-62"/>
<text text-anchor="middle" x="1608" y="-69" font-family="Helvetica,sans-Serif" font-size="10.00">dmlc/logging.h</text>
</g>
<!-- Node2&#45;&gt;Node3 -->
<g id="edge2" class="edge"><title>Node2&#45;&gt;Node3</title>
<path fill="none" stroke="midnightblue" d="M1006.54,-124.494C1011.43,-123.955 1016.3,-123.448 1021,-123 1257.8,-100.438 1320.44,-126.583 1555,-87 1560.22,-86.1197 1565.66,-84.9404 1570.99,-83.633"/>
<polygon fill="midnightblue" stroke="midnightblue" points="1572.21,-86.9296 1581,-81.0057 1570.44,-80.1589 1572.21,-86.9296"/>
</g>
<!-- Node4 -->
<g id="node4" class="node"><title>Node4</title>
<g id="a_node4"><a xlink:href="c__runtime__api_8h.html" target="_top" xlink:title="tvm/runtime/c_runtime\l_api.h">
<polygon fill="white" stroke="black" points="1419.5,-56.5 1419.5,-86.5 1546.5,-86.5 1546.5,-56.5 1419.5,-56.5"/>
<text text-anchor="start" x="1427.5" y="-74.5" font-family="Helvetica,sans-Serif" font-size="10.00">tvm/runtime/c_runtime</text>
<text text-anchor="middle" x="1483" y="-63.5" font-family="Helvetica,sans-Serif" font-size="10.00">_api.h</text>
</a>
</g>
</g>
<!-- Node2&#45;&gt;Node4 -->
<g id="edge3" class="edge"><title>Node2&#45;&gt;Node4</title>
<path fill="none" stroke="midnightblue" d="M1006.56,-124.708C1011.45,-124.122 1016.31,-123.546 1021,-123 1158.12,-107.054 1318.31,-89.8668 1409.49,-80.2192"/>
<polygon fill="midnightblue" stroke="midnightblue" points="1409.87,-83.6984 1419.45,-79.1665 1409.13,-76.7372 1409.87,-83.6984"/>
</g>
<!-- Node2&#45;&gt;Node8 -->
<g id="edge7" class="edge"><title>Node2&#45;&gt;Node8</title>
<path fill="none" stroke="midnightblue" d="M889.294,-125.661C778.284,-113.673 539.899,-87.931 441.196,-77.2725"/>
<polygon fill="midnightblue" stroke="midnightblue" points="441.571,-73.7928 431.253,-76.1989 440.82,-80.7523 441.571,-73.7928"/>
</g>
<!-- Node2&#45;&gt;Node9 -->
<g id="edge8" class="edge"><title>Node2&#45;&gt;Node9</title>
<path fill="none" stroke="midnightblue" d="M1006.85,-128.947C1213.98,-118.203 1905.22,-82.3446 2062.82,-74.1691"/>
<polygon fill="midnightblue" stroke="midnightblue" points="2063.03,-77.6635 2072.83,-73.65 2062.66,-70.6729 2063.03,-77.6635"/>
</g>
<!-- Node10 -->
<g id="node10" class="node"><title>Node10</title>
<polygon fill="white" stroke="#bfbfbf" points="148,-62 148,-81 190,-81 190,-62 148,-62"/>
<text text-anchor="middle" x="169" y="-69" font-family="Helvetica,sans-Serif" font-size="10.00">utility</text>
</g>
<!-- Node2&#45;&gt;Node10 -->
<g id="edge9" class="edge"><title>Node2&#45;&gt;Node10</title>
<path fill="none" stroke="midnightblue" d="M889.4,-127.611C782.832,-119.619 550.176,-102.119 354,-87 299.914,-82.8317 236.944,-77.8738 200.174,-74.9683"/>
<polygon fill="midnightblue" stroke="midnightblue" points="200.329,-71.4697 190.084,-74.1705 199.777,-78.4479 200.329,-71.4697"/>
</g>
<!-- Node11 -->
<g id="node11" class="node"><title>Node11</title>
<polygon fill="white" stroke="#bfbfbf" points="879,-62 879,-81 929,-81 929,-62 879,-62"/>
<text text-anchor="middle" x="904" y="-69" font-family="Helvetica,sans-Serif" font-size="10.00">atomic</text>
</g>
<!-- Node2&#45;&gt;Node11 -->
<g id="edge10" class="edge"><title>Node2&#45;&gt;Node11</title>
<path fill="none" stroke="midnightblue" d="M941.696,-123.475C935.096,-114.55 924.563,-100.307 916.307,-89.1425"/>
<polygon fill="midnightblue" stroke="midnightblue" points="919.052,-86.9684 910.292,-81.0091 913.424,-91.1305 919.052,-86.9684"/>
</g>
<!-- Node5 -->
<g id="node5" class="node"><title>Node5</title>
<polygon fill="white" stroke="#bfbfbf" points="1348,-0.5 1348,-19.5 1438,-19.5 1438,-0.5 1348,-0.5"/>
<text text-anchor="middle" x="1393" y="-7.5" font-family="Helvetica,sans-Serif" font-size="10.00">dlpack/dlpack.h</text>
</g>
<!-- Node4&#45;&gt;Node5 -->
<g id="edge4" class="edge"><title>Node4&#45;&gt;Node5</title>
<path fill="none" stroke="midnightblue" d="M1461.67,-56.3993C1447.51,-47.0402 1428.99,-34.7924 1414.75,-25.3771"/>
<polygon fill="midnightblue" stroke="midnightblue" points="1416.37,-22.2531 1406.1,-19.6578 1412.51,-28.0923 1416.37,-22.2531"/>
</g>
<!-- Node6 -->
<g id="node6" class="node"><title>Node6</title>
<polygon fill="white" stroke="#bfbfbf" points="1456.5,-0.5 1456.5,-19.5 1509.5,-19.5 1509.5,-0.5 1456.5,-0.5"/>
<text text-anchor="middle" x="1483" y="-7.5" font-family="Helvetica,sans-Serif" font-size="10.00">stdint.h</text>
</g>
<!-- Node4&#45;&gt;Node6 -->
<g id="edge5" class="edge"><title>Node4&#45;&gt;Node6</title>
<path fill="none" stroke="midnightblue" d="M1483,-56.3993C1483,-48.4664 1483,-38.458 1483,-29.8583"/>
<polygon fill="midnightblue" stroke="midnightblue" points="1486.5,-29.6577 1483,-19.6578 1479.5,-29.6578 1486.5,-29.6577"/>
</g>
<!-- Node7 -->
<g id="node7" class="node"><title>Node7</title>
<polygon fill="white" stroke="#bfbfbf" points="1527.5,-0.5 1527.5,-19.5 1582.5,-19.5 1582.5,-0.5 1527.5,-0.5"/>
<text text-anchor="middle" x="1555" y="-7.5" font-family="Helvetica,sans-Serif" font-size="10.00">stddef.h</text>
</g>
<!-- Node4&#45;&gt;Node7 -->
<g id="edge6" class="edge"><title>Node4&#45;&gt;Node7</title>
<path fill="none" stroke="midnightblue" d="M1500.06,-56.3993C1511.06,-47.3076 1525.37,-35.4899 1536.62,-26.1909"/>
<polygon fill="midnightblue" stroke="midnightblue" points="1539.04,-28.726 1544.52,-19.6578 1534.59,-23.33 1539.04,-28.726"/>
</g>
<!-- Node12&#45;&gt;Node2 -->
<g id="edge65" class="edge"><title>Node12&#45;&gt;Node2</title>
<path fill="none" stroke="midnightblue" d="M1299.94,-601.199C1103.51,-597.815 382.356,-583.619 342,-557 221.948,-477.813 265.152,-328.995 374,-235 420.997,-194.416 441.936,-194.752 502,-179 632.34,-144.817 790.39,-136.288 879.044,-134.348"/>
<polygon fill="midnightblue" stroke="midnightblue" points="879.313,-137.844 889.242,-134.147 879.175,-130.845 879.313,-137.844"/>
</g>
<!-- Node12&#45;&gt;Node4 -->
<g id="edge12" class="edge"><title>Node12&#45;&gt;Node4</title>
<path fill="none" stroke="midnightblue" d="M1398.34,-597.247C1450.41,-591.323 1534.39,-579.165 1604,-557 1725.81,-518.213 1779.12,-529.584 1864,-434 1919.71,-371.262 1910.49,-337.811 1924,-255 1945.89,-120.8 1776.13,-168.506 1648,-123 1613.48,-110.742 1574.3,-98.6733 1542.78,-89.4095"/>
<polygon fill="midnightblue" stroke="midnightblue" points="1543.41,-85.9478 1532.83,-86.5036 1541.45,-92.667 1543.41,-85.9478"/>
</g>
<!-- Node12&#45;&gt;Node8 -->
<g id="edge112" class="edge"><title>Node12&#45;&gt;Node8</title>
<path fill="none" stroke="midnightblue" d="M1299.87,-602.312C1106.17,-603.214 401.695,-603.256 314,-557 145.338,-468.037 334.332,-165.268 385.131,-89.6984"/>
<polygon fill="midnightblue" stroke="midnightblue" points="388.124,-91.5211 390.852,-81.2833 382.335,-87.5856 388.124,-91.5211"/>
</g>
<!-- Node12&#45;&gt;Node9 -->
<g id="edge109" class="edge"><title>Node12&#45;&gt;Node9</title>
<path fill="none" stroke="midnightblue" d="M1398.24,-599.59C1564.53,-590.803 2095,-557.23 2095,-486.5 2095,-486.5 2095,-486.5 2095,-423 2095,-329.429 2209,-339.571 2209,-246 2209,-246 2209,-246 2209,-188 2209,-139.198 2156.81,-103.559 2123.05,-85.6129"/>
<polygon fill="midnightblue" stroke="midnightblue" points="2124.58,-82.4611 2114.08,-81.024 2121.39,-88.6934 2124.58,-82.4611"/>
</g>
<!-- Node12&#45;&gt;Node10 -->
<g id="edge111" class="edge"><title>Node12&#45;&gt;Node10</title>
<path fill="none" stroke="midnightblue" d="M1299.98,-601.991C1103.34,-601.675 377.781,-597.736 284,-557 191.363,-516.761 157.179,-478.135 144,-378 129.729,-269.565 154.485,-138.335 164.803,-90.8005"/>
<polygon fill="midnightblue" stroke="midnightblue" points="168.22,-91.5586 166.978,-81.0368 161.387,-90.0362 168.22,-91.5586"/>
</g>
<!-- Node13 -->
<g id="node13" class="node"><title>Node13</title>
<g id="a_node13"><a xlink:href="runtime_2container_8h.html" target="_top" xlink:title="Common POD(plain old data) container types. ">
<polygon fill="white" stroke="black" points="1351,-358.5 1351,-377.5 1483,-377.5 1483,-358.5 1351,-358.5"/>
<text text-anchor="middle" x="1417" y="-365.5" font-family="Helvetica,sans-Serif" font-size="10.00">tvm/runtime/container.h</text>
</a>
</g>
</g>
<!-- Node12&#45;&gt;Node13 -->
<g id="edge13" class="edge"><title>Node12&#45;&gt;Node13</title>
<path fill="none" stroke="midnightblue" d="M1398.09,-601.261C1465.74,-597.273 1585.53,-578.881 1641,-501 1688.02,-434.978 1558.86,-396.631 1477.55,-379.617"/>
<polygon fill="midnightblue" stroke="midnightblue" points="1477.9,-376.116 1467.4,-377.551 1476.5,-382.975 1477.9,-376.116"/>
</g>
<!-- Node14 -->
<g id="node14" class="node"><title>Node14</title>
<g id="a_node14"><a xlink:href="runtime_2memory_8h.html" target="_top" xlink:title="Runtime memory management. ">
<polygon fill="white" stroke="black" points="511.5,-179.5 511.5,-198.5 638.5,-198.5 638.5,-179.5 511.5,-179.5"/>
<text text-anchor="middle" x="575" y="-186.5" font-family="Helvetica,sans-Serif" font-size="10.00">tvm/runtime/memory.h</text>
</a>
</g>
</g>
<!-- Node12&#45;&gt;Node14 -->
<g id="edge66" class="edge"><title>Node12&#45;&gt;Node14</title>
<path fill="none" stroke="midnightblue" d="M1299.8,-601.206C1106.2,-597.895 405.463,-584.08 367,-557 263.258,-483.96 345.823,-283.045 392,-235 407.302,-219.079 457.346,-207.437 501.241,-199.987"/>
<polygon fill="midnightblue" stroke="midnightblue" points="502.067,-203.399 511.367,-198.323 500.931,-196.491 502.067,-203.399"/>
</g>
<!-- Node20 -->
<g id="node20" class="node"><title>Node20</title>
<polygon fill="white" stroke="#bfbfbf" points="733.5,-179.5 733.5,-198.5 780.5,-198.5 780.5,-179.5 733.5,-179.5"/>
<text text-anchor="middle" x="757" y="-186.5" font-family="Helvetica,sans-Serif" font-size="10.00">vector</text>
</g>
<!-- Node12&#45;&gt;Node20 -->
<g id="edge110" class="edge"><title>Node12&#45;&gt;Node20</title>
<path fill="none" stroke="midnightblue" d="M1299.76,-601.068C1171.07,-597.526 829.608,-580.656 757,-501 680.436,-417.004 729.783,-260.871 749.744,-208.022"/>
<polygon fill="midnightblue" stroke="midnightblue" points="753.035,-209.216 753.4,-198.627 746.511,-206.677 753.035,-209.216"/>
</g>
<!-- Node31 -->
<g id="node31" class="node"><title>Node31</title>
<g id="a_node31"><a xlink:href="reflection_8h.html" target="_top" xlink:title="Reflection and serialization of compiler IR/AST nodes. ">
<polygon fill="white" stroke="black" points="948.5,-537.5 948.5,-556.5 1067.5,-556.5 1067.5,-537.5 948.5,-537.5"/>
<text text-anchor="middle" x="1008" y="-544.5" font-family="Helvetica,sans-Serif" font-size="10.00">tvm/node/reflection.h</text>
</a>
</g>
</g>
<!-- Node12&#45;&gt;Node31 -->
<g id="edge67" class="edge"><title>Node12&#45;&gt;Node31</title>
<path fill="none" stroke="midnightblue" d="M1299.78,-594.206C1239.61,-584.677 1137.65,-568.53 1071.58,-558.069"/>
<polygon fill="midnightblue" stroke="midnightblue" points="1072.13,-554.612 1061.71,-556.505 1071.03,-561.526 1072.13,-554.612"/>
</g>
<!-- Node32 -->
<g id="node32" class="node"><title>Node32</title>
<g id="a_node32"><a xlink:href="structural__equal_8h.html" target="_top" xlink:title="Structural equality comparison. ">
<polygon fill="white" stroke="black" points="1521.5,-470.5 1521.5,-500.5 1632.5,-500.5 1632.5,-470.5 1521.5,-470.5"/>
<text text-anchor="start" x="1529.5" y="-488.5" font-family="Helvetica,sans-Serif" font-size="10.00">tvm/node/structural</text>
<text text-anchor="middle" x="1577" y="-477.5" font-family="Helvetica,sans-Serif" font-size="10.00">_equal.h</text>
</a>
</g>
</g>
<!-- Node12&#45;&gt;Node32 -->
<g id="edge107" class="edge"><title>Node12&#45;&gt;Node32</title>
<path fill="none" stroke="midnightblue" d="M1366.14,-593.319C1402.91,-574.689 1490.11,-530.516 1540.1,-505.194"/>
<polygon fill="midnightblue" stroke="midnightblue" points="1541.94,-508.187 1549.27,-500.545 1538.77,-501.942 1541.94,-508.187"/>
</g>
<!-- Node12&#45;&gt;Node34 -->
<g id="edge106" class="edge"><title>Node12&#45;&gt;Node34</title>
<path fill="none" stroke="midnightblue" d="M1350.01,-593.463C1353.22,-566.428 1363.21,-482.239 1367.73,-444.109"/>
<polygon fill="midnightblue" stroke="midnightblue" points="1371.25,-444.211 1368.95,-433.868 1364.29,-443.386 1371.25,-444.211"/>
</g>
<!-- Node35 -->
<g id="node35" class="node"><title>Node35</title>
<g id="a_node35"><a xlink:href="structural__hash_8h.html" target="_top" xlink:title="tvm/node/structural\l_hash.h">
<polygon fill="white" stroke="black" points="1230.5,-470.5 1230.5,-500.5 1341.5,-500.5 1341.5,-470.5 1230.5,-470.5"/>
<text text-anchor="start" x="1238.5" y="-488.5" font-family="Helvetica,sans-Serif" font-size="10.00">tvm/node/structural</text>
<text text-anchor="middle" x="1286" y="-477.5" font-family="Helvetica,sans-Serif" font-size="10.00">_hash.h</text>
</a>
</g>
</g>
<!-- Node12&#45;&gt;Node35 -->
<g id="edge108" class="edge"><title>Node12&#45;&gt;Node35</title>
<path fill="none" stroke="midnightblue" d="M1344.26,-593.319C1334.67,-575.734 1312.67,-535.394 1298.62,-509.629"/>
<polygon fill="midnightblue" stroke="midnightblue" points="1301.52,-507.648 1293.66,-500.545 1295.38,-511 1301.52,-507.648"/>
</g>
<!-- Node36 -->
<g id="node36" class="node"><title>Node36</title>
<g id="a_node36"><a xlink:href="repr__printer_8h.html" target="_top" xlink:title="Printer class to print repr string of each AST/IR nodes. ">
<polygon fill="white" stroke="black" points="376,-537.5 376,-556.5 506,-556.5 506,-537.5 376,-537.5"/>
<text text-anchor="middle" x="441" y="-544.5" font-family="Helvetica,sans-Serif" font-size="10.00">tvm/node/repr_printer.h</text>
</a>
</g>
</g>
<!-- Node12&#45;&gt;Node36 -->
<g id="edge103" class="edge"><title>Node12&#45;&gt;Node36</title>
<path fill="none" stroke="midnightblue" d="M1299.9,-599.811C1174.03,-594.079 829.562,-577.637 543,-557 534.368,-556.378 525.331,-555.668 516.355,-554.924"/>
<polygon fill="midnightblue" stroke="midnightblue" points="516.53,-551.427 506.271,-554.074 515.942,-558.402 516.53,-551.427"/>
</g>
<!-- Node13&#45;&gt;Node2 -->
<g id="edge20" class="edge"><title>Node13&#45;&gt;Node2</title>
<path fill="none" stroke="midnightblue" d="M1419.68,-358.229C1424.6,-343.198 1436.23,-312.103 1454,-291 1475.49,-265.479 1526.27,-259.843 1504,-235 1454.9,-180.239 1246.08,-217.876 1175,-199 1153.45,-193.278 1150.11,-186.159 1129,-179 1086.67,-164.649 1037.37,-152.692 1000.92,-144.719"/>
<polygon fill="midnightblue" stroke="midnightblue" points="1001.51,-141.266 991.001,-142.577 1000.04,-148.108 1001.51,-141.266"/>
</g>
<!-- Node13&#45;&gt;Node3 -->
<g id="edge14" class="edge"><title>Node13&#45;&gt;Node3</title>
<path fill="none" stroke="midnightblue" d="M1440.37,-358.478C1461.89,-350.265 1494.4,-336.915 1521,-322 1541.87,-310.3 1544.7,-303.654 1565,-291 1637.24,-245.969 1689.61,-272.239 1733,-199 1762.02,-150.023 1684.39,-105.974 1638.69,-85.1616"/>
<polygon fill="midnightblue" stroke="midnightblue" points="1640.03,-81.9283 1629.47,-81.0798 1637.2,-88.3289 1640.03,-81.9283"/>
</g>
<!-- Node13&#45;&gt;Node8 -->
<g id="edge62" class="edge"><title>Node13&#45;&gt;Node8</title>
<path fill="none" stroke="midnightblue" d="M1350.9,-365.473C1266.51,-362.284 1116.51,-352.432 992,-322 955.361,-313.045 949.065,-302.041 913,-291 823.506,-263.603 581.834,-247.849 502,-199 457.116,-171.537 422.424,-118.023 406.522,-90.2231"/>
<polygon fill="midnightblue" stroke="midnightblue" points="409.446,-88.2806 401.529,-81.2402 403.328,-91.6812 409.446,-88.2806"/>
</g>
<!-- Node13&#45;&gt;Node9 -->
<g id="edge61" class="edge"><title>Node13&#45;&gt;Node9</title>
<path fill="none" stroke="midnightblue" d="M1455.21,-358.43C1484.16,-351.07 1524.38,-338.95 1557,-322 1577.27,-311.467 1576.77,-299.446 1598,-291 1733.44,-237.109 1794.27,-321.48 1924,-255 1994.29,-218.977 1988.19,-179.879 2043,-123 2054.44,-111.13 2067.78,-98.1862 2078.09,-88.3749"/>
<polygon fill="midnightblue" stroke="midnightblue" points="2080.75,-90.6739 2085.61,-81.2584 2075.94,-85.5894 2080.75,-90.6739"/>
</g>
<!-- Node13&#45;&gt;Node10 -->
<g id="edge63" class="edge"><title>Node13&#45;&gt;Node10</title>
<path fill="none" stroke="midnightblue" d="M1350.74,-364.577C1146.71,-356.418 530.577,-326.346 345,-255 270.624,-226.406 253.231,-206.429 205,-143 192.684,-126.803 182.572,-105.758 176.234,-90.8919"/>
<polygon fill="midnightblue" stroke="midnightblue" points="179.34,-89.2417 172.309,-81.3164 172.864,-91.8967 179.34,-89.2417"/>
</g>
<!-- Node13&#45;&gt;Node14 -->
<g id="edge15" class="edge"><title>Node13&#45;&gt;Node14</title>
<path fill="none" stroke="midnightblue" d="M1350.7,-364.134C1280.74,-359.768 1167.82,-348.882 1074,-322 1004.98,-302.223 990.696,-288.136 927,-255 911.447,-246.909 909.55,-240.783 893,-235 849.21,-219.699 728.012,-205.279 648.525,-197.058"/>
<polygon fill="midnightblue" stroke="midnightblue" points="648.869,-193.575 638.564,-196.037 648.156,-200.538 648.869,-193.575"/>
</g>
<!-- Node16 -->
<g id="node16" class="node"><title>Node16</title>
<g id="a_node16"><a xlink:href="packed__func_8h.html" target="_top" xlink:title="Type&#45;erased function used across TVM API. ">
<polygon fill="white" stroke="black" points="1252.5,-291.5 1252.5,-321.5 1365.5,-321.5 1365.5,-291.5 1252.5,-291.5"/>
<text text-anchor="start" x="1260.5" y="-309.5" font-family="Helvetica,sans-Serif" font-size="10.00">tvm/runtime/packed</text>
<text text-anchor="middle" x="1309" y="-298.5" font-family="Helvetica,sans-Serif" font-size="10.00">_func.h</text>
</a>
</g>
</g>
<!-- Node13&#45;&gt;Node16 -->
<g id="edge21" class="edge"><title>Node13&#45;&gt;Node16</title>
<path fill="none" stroke="midnightblue" d="M1401.53,-358.475C1386.42,-350.153 1362.92,-337.207 1343.39,-326.445"/>
<polygon fill="midnightblue" stroke="midnightblue" points="1344.9,-323.283 1334.45,-321.523 1341.52,-329.414 1344.9,-323.283"/>
</g>
<!-- Node13&#45;&gt;Node20 -->
<g id="edge64" class="edge"><title>Node13&#45;&gt;Node20</title>
<path fill="none" stroke="midnightblue" d="M1365.62,-358.456C1280.46,-343.377 1105.54,-308.491 965,-255 947.163,-248.211 944.782,-241.93 927,-235 902.232,-225.347 832.496,-208.004 790.432,-197.9"/>
<polygon fill="midnightblue" stroke="midnightblue" points="791.172,-194.478 780.632,-195.556 789.544,-201.286 791.172,-194.478"/>
</g>
<!-- Node29 -->
<g id="node29" class="node"><title>Node29</title>
<polygon fill="white" stroke="#bfbfbf" points="1463.5,-297 1463.5,-316 1512.5,-316 1512.5,-297 1463.5,-297"/>
<text text-anchor="middle" x="1488" y="-304" font-family="Helvetica,sans-Serif" font-size="10.00">cstring</text>
</g>
<!-- Node13&#45;&gt;Node29 -->
<g id="edge59" class="edge"><title>Node13&#45;&gt;Node29</title>
<path fill="none" stroke="midnightblue" d="M1427.17,-358.475C1438.35,-349.108 1456.52,-333.884 1470.09,-322.508"/>
<polygon fill="midnightblue" stroke="midnightblue" points="1472.43,-325.115 1477.85,-316.009 1467.93,-319.75 1472.43,-325.115"/>
</g>
<!-- Node30 -->
<g id="node30" class="node"><title>Node30</title>
<polygon fill="white" stroke="#bfbfbf" points="1607.5,-297 1607.5,-316 1684.5,-316 1684.5,-297 1607.5,-297"/>
<text text-anchor="middle" x="1646" y="-304" font-family="Helvetica,sans-Serif" font-size="10.00">initializer_list</text>
</g>
<!-- Node13&#45;&gt;Node30 -->
<g id="edge60" class="edge"><title>Node13&#45;&gt;Node30</title>
<path fill="none" stroke="midnightblue" d="M1451.11,-358.458C1486.6,-349.529 1543.76,-335.03 1593,-322 1597.05,-320.929 1601.26,-319.8 1605.47,-318.663"/>
<polygon fill="midnightblue" stroke="midnightblue" points="1606.46,-322.02 1615.2,-316.021 1604.63,-315.265 1606.46,-322.02"/>
</g>
<!-- Node14&#45;&gt;Node2 -->
<g id="edge16" class="edge"><title>Node14&#45;&gt;Node2</title>
<path fill="none" stroke="midnightblue" d="M634.103,-179.444C700.77,-169.792 809.041,-154.117 879.387,-143.933"/>
<polygon fill="midnightblue" stroke="midnightblue" points="880.086,-147.369 889.481,-142.472 879.083,-140.441 880.086,-147.369"/>
</g>
<!-- Node14&#45;&gt;Node8 -->
<g id="edge19" class="edge"><title>Node14&#45;&gt;Node8</title>
<path fill="none" stroke="midnightblue" d="M561.621,-179.319C531.211,-159.586 456.64,-111.199 419.203,-86.9068"/>
<polygon fill="midnightblue" stroke="midnightblue" points="420.828,-83.7892 410.534,-81.282 417.018,-89.6614 420.828,-83.7892"/>
</g>
<!-- Node14&#45;&gt;Node10 -->
<g id="edge18" class="edge"><title>Node14&#45;&gt;Node10</title>
<path fill="none" stroke="midnightblue" d="M544.816,-179.413C469.87,-158.092 275.882,-102.906 200.039,-81.3301"/>
<polygon fill="midnightblue" stroke="midnightblue" points="200.722,-77.8857 190.146,-78.5158 198.807,-84.6185 200.722,-77.8857"/>
</g>
<!-- Node15 -->
<g id="node15" class="node"><title>Node15</title>
<polygon fill="white" stroke="#bfbfbf" points="551.5,-123.5 551.5,-142.5 598.5,-142.5 598.5,-123.5 551.5,-123.5"/>
<text text-anchor="middle" x="575" y="-130.5" font-family="Helvetica,sans-Serif" font-size="10.00">cstdlib</text>
</g>
<!-- Node14&#45;&gt;Node15 -->
<g id="edge17" class="edge"><title>Node14&#45;&gt;Node15</title>
<path fill="none" stroke="midnightblue" d="M575,-179.083C575,-172.006 575,-161.861 575,-152.986"/>
<polygon fill="midnightblue" stroke="midnightblue" points="578.5,-152.751 575,-142.751 571.5,-152.751 578.5,-152.751"/>
</g>
<!-- Node16&#45;&gt;Node2 -->
<g id="edge50" class="edge"><title>Node16&#45;&gt;Node2</title>
<path fill="none" stroke="midnightblue" d="M1308.42,-291.417C1306.93,-275.159 1301.88,-248.881 1285,-235 1192.52,-158.933 1126.27,-250.132 1018,-199 994.433,-187.87 973.421,-165.909 960.708,-150.61"/>
<polygon fill="midnightblue" stroke="midnightblue" points="963.205,-148.128 954.226,-142.504 957.738,-152.5 963.205,-148.128"/>
</g>
<!-- Node16&#45;&gt;Node3 -->
<g id="edge22" class="edge"><title>Node16&#45;&gt;Node3</title>
<path fill="none" stroke="midnightblue" d="M1365.51,-305.592C1412.96,-302.817 1480.03,-291.873 1525,-255 1577.44,-211.997 1598.14,-128.734 1605.03,-91.4068"/>
<polygon fill="midnightblue" stroke="midnightblue" points="1608.51,-91.8402 1606.75,-81.3926 1601.61,-90.6575 1608.51,-91.8402"/>
</g>
<!-- Node16&#45;&gt;Node4 -->
<g id="edge23" class="edge"><title>Node16&#45;&gt;Node4</title>
<path fill="none" stroke="midnightblue" d="M1365.52,-298.189C1416.56,-290.34 1486.28,-276.085 1504,-255 1541.83,-209.979 1528.57,-179.703 1513,-123 1510.3,-113.179 1505.14,-103.334 1499.85,-94.9796"/>
<polygon fill="midnightblue" stroke="midnightblue" points="1502.67,-92.8979 1494.17,-86.5702 1496.87,-96.816 1502.67,-92.8979"/>
</g>
<!-- Node16&#45;&gt;Node8 -->
<g id="edge58" class="edge"><title>Node16&#45;&gt;Node8</title>
<path fill="none" stroke="midnightblue" d="M1252.33,-298.718C1198.38,-291.308 1115.35,-277.408 1046,-255 1025.94,-248.519 1022.76,-242.336 1003,-235 831.532,-171.34 783.952,-169.28 607,-123 549.906,-108.067 483.642,-92.4087 441.062,-82.5605"/>
<polygon fill="midnightblue" stroke="midnightblue" points="441.826,-79.1448 431.295,-80.3074 440.253,-85.9657 441.826,-79.1448"/>
</g>
<!-- Node16&#45;&gt;Node9 -->
<g id="edge54" class="edge"><title>Node16&#45;&gt;Node9</title>
<path fill="none" stroke="midnightblue" d="M1365.58,-295.055C1414.42,-285.691 1486.73,-270.995 1549,-255 1748.56,-203.742 1980.79,-116.691 2063.66,-84.7337"/>
<polygon fill="midnightblue" stroke="midnightblue" points="2065.17,-87.9013 2073.23,-81.0291 2062.64,-81.3727 2065.17,-87.9013"/>
</g>
<!-- Node16&#45;&gt;Node10 -->
<g id="edge57" class="edge"><title>Node16&#45;&gt;Node10</title>
<path fill="none" stroke="midnightblue" d="M1252.26,-303.168C1059.52,-295.139 439.567,-268.398 399,-255 313.085,-226.625 296.776,-202.94 229,-143 210.655,-126.776 192.892,-104.889 181.517,-89.8278"/>
<polygon fill="midnightblue" stroke="midnightblue" points="184.074,-87.3998 175.312,-81.444 178.448,-91.5642 184.074,-87.3998"/>
</g>
<!-- Node17 -->
<g id="node17" class="node"><title>Node17</title>
<g id="a_node17"><a xlink:href="runtime_2module_8h.html" target="_top" xlink:title="Runtime container of the functions generated by TVM, This is used to support dynamically link...">
<polygon fill="white" stroke="black" points="1371,-235.5 1371,-254.5 1495,-254.5 1495,-235.5 1371,-235.5"/>
<text text-anchor="middle" x="1433" y="-242.5" font-family="Helvetica,sans-Serif" font-size="10.00">tvm/runtime/module.h</text>
</a>
</g>
</g>
<!-- Node16&#45;&gt;Node17 -->
<g id="edge24" class="edge"><title>Node16&#45;&gt;Node17</title>
<path fill="none" stroke="midnightblue" d="M1332.55,-291.399C1351.9,-281.505 1379.3,-268.383 1400.68,-258.792"/>
<polygon fill="midnightblue" stroke="midnightblue" points="1402.3,-261.904 1410.03,-254.658 1399.47,-255.502 1402.3,-261.904"/>
</g>
<!-- Node19 -->
<g id="node19" class="node"><title>Node19</title>
<polygon fill="white" stroke="#bfbfbf" points="1027.5,-179.5 1027.5,-198.5 1084.5,-198.5 1084.5,-179.5 1027.5,-179.5"/>
<text text-anchor="middle" x="1056" y="-186.5" font-family="Helvetica,sans-Serif" font-size="10.00">memory</text>
</g>
<!-- Node16&#45;&gt;Node19 -->
<g id="edge56" class="edge"><title>Node16&#45;&gt;Node19</title>
<path fill="none" stroke="midnightblue" d="M1316.77,-291.285C1324.14,-275.639 1332.29,-250.638 1319,-235 1286.92,-197.248 1147.7,-208.077 1099,-199 1097.55,-198.729 1096.07,-198.448 1094.57,-198.159"/>
<polygon fill="midnightblue" stroke="midnightblue" points="1095.14,-194.703 1084.65,-196.179 1093.77,-201.567 1095.14,-194.703"/>
</g>
<!-- Node16&#45;&gt;Node20 -->
<g id="edge53" class="edge"><title>Node16&#45;&gt;Node20</title>
<path fill="none" stroke="midnightblue" d="M1252.23,-299.674C1192,-292.604 1094.5,-278.601 1013,-255 990.801,-248.571 987.067,-241.868 965,-235 891.258,-212.049 870.359,-215.901 795,-199 793.553,-198.675 792.076,-198.341 790.584,-198"/>
<polygon fill="midnightblue" stroke="midnightblue" points="791.229,-194.556 780.697,-195.705 789.646,-201.375 791.229,-194.556"/>
</g>
<!-- Node22 -->
<g id="node22" class="node"><title>Node22</title>
<g id="a_node22"><a xlink:href="ndarray_8h.html" target="_top" xlink:title="A device&#45;independent managed NDArray abstraction. ">
<polygon fill="white" stroke="black" points="1055.5,-235.5 1055.5,-254.5 1178.5,-254.5 1178.5,-235.5 1055.5,-235.5"/>
<text text-anchor="middle" x="1117" y="-242.5" font-family="Helvetica,sans-Serif" font-size="10.00">tvm/runtime/ndarray.h</text>
</a>
</g>
</g>
<!-- Node16&#45;&gt;Node22 -->
<g id="edge34" class="edge"><title>Node16&#45;&gt;Node22</title>
<path fill="none" stroke="midnightblue" d="M1263.5,-291.399C1230.18,-281.073 1185.51,-267.231 1154.29,-257.556"/>
<polygon fill="midnightblue" stroke="midnightblue" points="1155.25,-254.188 1144.66,-254.571 1153.17,-260.874 1155.25,-254.188"/>
</g>
<!-- Node25 -->
<g id="node25" class="node"><title>Node25</title>
<g id="a_node25"><a xlink:href="data__type_8h.html" target="_top" xlink:title="tvm/runtime/data_type.h">
<polygon fill="white" stroke="black" points="1779,-235.5 1779,-254.5 1915,-254.5 1915,-235.5 1779,-235.5"/>
<text text-anchor="middle" x="1847" y="-242.5" font-family="Helvetica,sans-Serif" font-size="10.00">tvm/runtime/data_type.h</text>
</a>
</g>
</g>
<!-- Node16&#45;&gt;Node25 -->
<g id="edge45" class="edge"><title>Node16&#45;&gt;Node25</title>
<path fill="none" stroke="midnightblue" d="M1365.56,-299.245C1462.1,-288.568 1658.85,-266.808 1768.59,-254.672"/>
<polygon fill="midnightblue" stroke="midnightblue" points="1769.05,-258.142 1778.61,-253.564 1768.28,-251.184 1769.05,-258.142"/>
</g>
<!-- Node26 -->
<g id="node26" class="node"><title>Node26</title>
<polygon fill="white" stroke="#bfbfbf" points="821.5,-235.5 821.5,-254.5 884.5,-254.5 884.5,-235.5 821.5,-235.5"/>
<text text-anchor="middle" x="853" y="-242.5" font-family="Helvetica,sans-Serif" font-size="10.00">functional</text>
</g>
<!-- Node16&#45;&gt;Node26 -->
<g id="edge51" class="edge"><title>Node16&#45;&gt;Node26</title>
<path fill="none" stroke="midnightblue" d="M1252.17,-298.085C1159.21,-285.955 976.803,-262.154 894.743,-251.447"/>
<polygon fill="midnightblue" stroke="midnightblue" points="895.148,-247.97 884.779,-250.147 894.242,-254.911 895.148,-247.97"/>
</g>
<!-- Node27 -->
<g id="node27" class="node"><title>Node27</title>
<polygon fill="white" stroke="#bfbfbf" points="1235.5,-235.5 1235.5,-254.5 1276.5,-254.5 1276.5,-235.5 1235.5,-235.5"/>
<text text-anchor="middle" x="1256" y="-242.5" font-family="Helvetica,sans-Serif" font-size="10.00">tuple</text>
</g>
<!-- Node16&#45;&gt;Node27 -->
<g id="edge52" class="edge"><title>Node16&#45;&gt;Node27</title>
<path fill="none" stroke="midnightblue" d="M1296.44,-291.399C1288.66,-282.664 1278.64,-271.413 1270.52,-262.296"/>
<polygon fill="midnightblue" stroke="midnightblue" points="1272.98,-259.797 1263.71,-254.658 1267.75,-264.453 1272.98,-259.797"/>
</g>
<!-- Node16&#45;&gt;Node28 -->
<g id="edge55" class="edge"><title>Node16&#45;&gt;Node28</title>
<path fill="none" stroke="midnightblue" d="M1252.25,-301.028C1102.59,-289.233 700.743,-257.565 585.369,-248.472"/>
<polygon fill="midnightblue" stroke="midnightblue" points="585.36,-244.961 575.116,-247.664 584.81,-251.939 585.36,-244.961"/>
</g>
<!-- Node17&#45;&gt;Node2 -->
<g id="edge27" class="edge"><title>Node17&#45;&gt;Node2</title>
<path fill="none" stroke="midnightblue" d="M1370.86,-236.597C1297.36,-227.482 1179.6,-211.655 1137,-199 1116.41,-192.883 1113.08,-186.643 1093,-179 1058.63,-165.913 1018.64,-153.722 989.377,-145.339"/>
<polygon fill="midnightblue" stroke="midnightblue" points="990.075,-141.899 979.5,-142.538 988.165,-148.634 990.075,-141.899"/>
</g>
<!-- Node17&#45;&gt;Node4 -->
<g id="edge26" class="edge"><title>Node17&#45;&gt;Node4</title>
<path fill="none" stroke="midnightblue" d="M1440.92,-235.396C1455.45,-218.951 1485.89,-181.278 1497,-143 1501.43,-127.72 1497.98,-110.173 1493.39,-96.4069"/>
<polygon fill="midnightblue" stroke="midnightblue" points="1496.55,-94.8628 1489.78,-86.7172 1489.99,-97.3099 1496.55,-94.8628"/>
</g>
<!-- Node17&#45;&gt;Node9 -->
<g id="edge31" class="edge"><title>Node17&#45;&gt;Node9</title>
<path fill="none" stroke="midnightblue" d="M1455.15,-235.493C1490.2,-222.237 1560.74,-196.373 1622,-179 1785.58,-132.607 1985.51,-93.1193 2062.58,-78.5244"/>
<polygon fill="midnightblue" stroke="midnightblue" points="2063.44,-81.9233 2072.62,-76.6321 2062.14,-75.0444 2063.44,-81.9233"/>
</g>
<!-- Node17&#45;&gt;Node14 -->
<g id="edge28" class="edge"><title>Node17&#45;&gt;Node14</title>
<path fill="none" stroke="midnightblue" d="M1370.95,-240.095C1216.46,-230.371 815.086,-205.11 648.813,-194.646"/>
<polygon fill="midnightblue" stroke="midnightblue" points="648.883,-191.143 638.683,-194.008 648.444,-198.129 648.883,-191.143"/>
</g>
<!-- Node17&#45;&gt;Node16 -->
<g id="edge33" class="edge"><title>Node17&#45;&gt;Node16</title>
<path fill="none" stroke="midnightblue" d="M1419.89,-254.658C1404,-263.16 1376.87,-276.393 1353.36,-287.228"/>
<polygon fill="midnightblue" stroke="midnightblue" points="1351.87,-284.062 1344.23,-291.399 1354.78,-290.429 1351.87,-284.062"/>
</g>
<!-- Node18 -->
<g id="node18" class="node"><title>Node18</title>
<polygon fill="white" stroke="#bfbfbf" points="1395,-123.5 1395,-142.5 1455,-142.5 1455,-123.5 1395,-123.5"/>
<text text-anchor="middle" x="1425" y="-130.5" font-family="Helvetica,sans-Serif" font-size="10.00">dmlc/io.h</text>
</g>
<!-- Node17&#45;&gt;Node18 -->
<g id="edge25" class="edge"><title>Node17&#45;&gt;Node18</title>
<path fill="none" stroke="midnightblue" d="M1432.37,-235.368C1431.08,-217.617 1428.1,-176.666 1426.35,-152.597"/>
<polygon fill="midnightblue" stroke="midnightblue" points="1429.84,-152.311 1425.62,-142.591 1422.86,-152.819 1429.84,-152.311"/>
</g>
<!-- Node17&#45;&gt;Node19 -->
<g id="edge29" class="edge"><title>Node17&#45;&gt;Node19</title>
<path fill="none" stroke="midnightblue" d="M1370.75,-236.161C1288.98,-225.769 1149.82,-207.73 1099,-199 1097.54,-198.75 1096.06,-198.486 1094.57,-198.212"/>
<polygon fill="midnightblue" stroke="midnightblue" points="1095.11,-194.752 1084.63,-196.293 1093.78,-201.625 1095.11,-194.752"/>
</g>
<!-- Node17&#45;&gt;Node20 -->
<g id="edge30" class="edge"><title>Node17&#45;&gt;Node20</title>
<path fill="none" stroke="midnightblue" d="M1370.92,-239.041C1231.6,-227.912 897.893,-201.255 790.739,-192.695"/>
<polygon fill="midnightblue" stroke="midnightblue" points="790.764,-189.186 780.517,-191.879 790.207,-196.164 790.764,-189.186"/>
</g>
<!-- Node21 -->
<g id="node21" class="node"><title>Node21</title>
<polygon fill="white" stroke="#bfbfbf" points="1631.5,-179.5 1631.5,-198.5 1724.5,-198.5 1724.5,-179.5 1631.5,-179.5"/>
<text text-anchor="middle" x="1678" y="-186.5" font-family="Helvetica,sans-Serif" font-size="10.00">unordered_map</text>
</g>
<!-- Node17&#45;&gt;Node21 -->
<g id="edge32" class="edge"><title>Node17&#45;&gt;Node21</title>
<path fill="none" stroke="midnightblue" d="M1471.82,-235.444C1514.56,-226.023 1583.33,-210.866 1629.57,-200.675"/>
<polygon fill="midnightblue" stroke="midnightblue" points="1630.35,-204.087 1639.36,-198.516 1628.84,-197.251 1630.35,-204.087"/>
</g>
<!-- Node22&#45;&gt;Node2 -->
<g id="edge36" class="edge"><title>Node22&#45;&gt;Node2</title>
<path fill="none" stroke="midnightblue" d="M1055.11,-235.624C1012.16,-228.396 960.362,-216.359 947,-199 936.906,-185.887 938.703,-166.472 942.081,-152.275"/>
<polygon fill="midnightblue" stroke="midnightblue" points="945.456,-153.202 944.801,-142.628 938.719,-151.302 945.456,-153.202"/>
</g>
<!-- Node22&#45;&gt;Node4 -->
<g id="edge35" class="edge"><title>Node22&#45;&gt;Node4</title>
<path fill="none" stroke="midnightblue" d="M1178.5,-237.695C1248.03,-229.925 1356.43,-215.683 1394,-199 1430.41,-182.831 1442.18,-176.334 1464,-143 1473.07,-129.14 1477.83,-111.058 1480.32,-96.6767"/>
<polygon fill="midnightblue" stroke="midnightblue" points="1483.82,-96.9349 1481.81,-86.532 1476.9,-95.9162 1483.82,-96.9349"/>
</g>
<!-- Node22&#45;&gt;Node10 -->
<g id="edge44" class="edge"><title>Node22&#45;&gt;Node10</title>
<path fill="none" stroke="midnightblue" d="M1055.37,-241.586C921.229,-235.99 606.447,-220.916 502,-199 429.085,-183.7 413.679,-169.37 344,-143 292.697,-123.584 233.626,-99.4011 198.905,-84.9967"/>
<polygon fill="midnightblue" stroke="midnightblue" points="199.943,-81.6379 189.366,-81.0309 197.256,-88.1016 199.943,-81.6379"/>
</g>
<!-- Node22&#45;&gt;Node11 -->
<g id="edge42" class="edge"><title>Node22&#45;&gt;Node11</title>
<path fill="none" stroke="midnightblue" d="M1055.25,-237.083C1018.75,-230.997 972.644,-219.716 936,-199 905.359,-181.678 893.47,-175.519 880,-143 872.613,-125.166 882.005,-104.156 891.117,-89.739"/>
<polygon fill="midnightblue" stroke="midnightblue" points="894.122,-91.5452 896.886,-81.3171 888.347,-87.5894 894.122,-91.5452"/>
</g>
<!-- Node22&#45;&gt;Node20 -->
<g id="edge43" class="edge"><title>Node22&#45;&gt;Node20</title>
<path fill="none" stroke="midnightblue" d="M1059.96,-235.444C984.052,-224.058 852.268,-204.29 790.615,-195.042"/>
<polygon fill="midnightblue" stroke="midnightblue" points="791.052,-191.569 780.643,-193.547 790.014,-198.491 791.052,-191.569"/>
</g>
<!-- Node23 -->
<g id="node23" class="node"><title>Node23</title>
<g id="a_node23"><a xlink:href="serializer_8h.html" target="_top" xlink:title="Serializer extension to support TVM data types Include this file to enable serialization of DLDataTyp...">
<polygon fill="white" stroke="black" points="1255,-179.5 1255,-198.5 1385,-198.5 1385,-179.5 1255,-179.5"/>
<text text-anchor="middle" x="1320" y="-186.5" font-family="Helvetica,sans-Serif" font-size="10.00">tvm/runtime/serializer.h</text>
</a>
</g>
</g>
<!-- Node22&#45;&gt;Node23 -->
<g id="edge37" class="edge"><title>Node22&#45;&gt;Node23</title>
<path fill="none" stroke="midnightblue" d="M1144.08,-235.444C1177.07,-226.122 1233.08,-211.183 1273.1,-200.997"/>
<polygon fill="midnightblue" stroke="midnightblue" points="1274.07,-204.362 1282.9,-198.516 1272.35,-197.576 1274.07,-204.362"/>
</g>
<!-- Node23&#45;&gt;Node4 -->
<g id="edge40" class="edge"><title>Node23&#45;&gt;Node4</title>
<path fill="none" stroke="midnightblue" d="M1327.42,-179.162C1338.96,-165.807 1362.33,-140.218 1386,-123 1402.84,-110.75 1423.06,-99.7262 1440.67,-91.1271"/>
<polygon fill="midnightblue" stroke="midnightblue" points="1442.62,-94.0713 1450.14,-86.6068 1439.61,-87.7533 1442.62,-94.0713"/>
</g>
<!-- Node23&#45;&gt;Node18 -->
<g id="edge38" class="edge"><title>Node23&#45;&gt;Node18</title>
<path fill="none" stroke="midnightblue" d="M1336.87,-179.324C1353.71,-170.664 1379.81,-157.242 1399.24,-147.249"/>
<polygon fill="midnightblue" stroke="midnightblue" points="1400.88,-150.341 1408.17,-142.655 1397.68,-144.116 1400.88,-150.341"/>
</g>
<!-- Node23&#45;&gt;Node22 -->
<g id="edge41" class="edge"><title>Node23&#45;&gt;Node22</title>
<path fill="none" stroke="midnightblue" d="M1293.06,-198.516C1260.13,-207.822 1204.14,-222.76 1164.07,-232.959"/>
<polygon fill="midnightblue" stroke="midnightblue" points="1163.09,-229.597 1154.25,-235.444 1164.81,-236.384 1163.09,-229.597"/>
</g>
<!-- Node24 -->
<g id="node24" class="node"><title>Node24</title>
<polygon fill="white" stroke="#bfbfbf" points="1245,-123.5 1245,-142.5 1339,-142.5 1339,-123.5 1245,-123.5"/>
<text text-anchor="middle" x="1292" y="-130.5" font-family="Helvetica,sans-Serif" font-size="10.00">dmlc/serializer.h</text>
</g>
<!-- Node23&#45;&gt;Node24 -->
<g id="edge39" class="edge"><title>Node23&#45;&gt;Node24</title>
<path fill="none" stroke="midnightblue" d="M1315.38,-179.083C1311.54,-171.691 1305.98,-160.953 1301.24,-151.811"/>
<polygon fill="midnightblue" stroke="midnightblue" points="1304.25,-150.018 1296.54,-142.751 1298.03,-153.24 1304.25,-150.018"/>
</g>
<!-- Node25&#45;&gt;Node3 -->
<g id="edge47" class="edge"><title>Node25&#45;&gt;Node3</title>
<path fill="none" stroke="midnightblue" d="M1849.88,-235.443C1856.57,-213.765 1870.63,-156.064 1843,-123 1820.16,-95.6622 1723.24,-82.3265 1661.23,-76.4761"/>
<polygon fill="midnightblue" stroke="midnightblue" points="1661.49,-72.9856 1651.22,-75.5675 1660.86,-79.9569 1661.49,-72.9856"/>
</g>
<!-- Node25&#45;&gt;Node4 -->
<g id="edge46" class="edge"><title>Node25&#45;&gt;Node4</title>
<path fill="none" stroke="midnightblue" d="M1833.24,-235.465C1812.09,-222.505 1770.15,-197.425 1733,-179 1663.32,-144.437 1579.7,-110.219 1528.99,-90.2379"/>
<polygon fill="midnightblue" stroke="midnightblue" points="1530.2,-86.9516 1519.61,-86.5558 1527.64,-93.4676 1530.2,-86.9516"/>
</g>
<!-- Node25&#45;&gt;Node8 -->
<g id="edge48" class="edge"><title>Node25&#45;&gt;Node8</title>
<path fill="none" stroke="midnightblue" d="M1778.97,-240.99C1643.91,-234.672 1346.31,-218.948 1246,-199 1140,-177.921 1120.93,-144.44 1015,-123 803.295,-80.1532 543.803,-73.4487 441.488,-72.5525"/>
<polygon fill="midnightblue" stroke="midnightblue" points="441.25,-69.0507 431.225,-72.4778 441.199,-76.0505 441.25,-69.0507"/>
</g>
<!-- Node25&#45;&gt;Node9 -->
<g id="edge49" class="edge"><title>Node25&#45;&gt;Node9</title>
<path fill="none" stroke="midnightblue" d="M1857.34,-235.244C1882.04,-214.533 1946.72,-161.39 2005,-123 2025.9,-109.236 2050.78,-95.4607 2069.08,-85.7822"/>
<polygon fill="midnightblue" stroke="midnightblue" points="2070.75,-88.8548 2077.99,-81.1162 2067.51,-82.6531 2070.75,-88.8548"/>
</g>
<!-- Node31&#45;&gt;Node2 -->
<g id="edge69" class="edge"><title>Node31&#45;&gt;Node2</title>
<path fill="none" stroke="midnightblue" d="M948.165,-539.248C842.293,-525.623 633,-490.416 633,-425 633,-425 633,-425 633,-367 633,-274.171 648.178,-232.557 724,-179 748.642,-161.594 823.089,-148.985 879.452,-141.618"/>
<polygon fill="midnightblue" stroke="midnightblue" points="879.918,-145.087 889.394,-140.348 879.031,-138.143 879.918,-145.087"/>
</g>
<!-- Node31&#45;&gt;Node4 -->
<g id="edge68" class="edge"><title>Node31&#45;&gt;Node4</title>
<path fill="none" stroke="midnightblue" d="M1067.75,-544.43C1137.1,-541.181 1254.2,-531.254 1350,-501 1513.97,-449.214 1603.87,-469.052 1693,-322 1755.68,-218.581 1644.33,-262.898 1521,-235 1460.89,-221.402 1290.58,-241.555 1246,-199 1221.36,-175.477 1214.46,-149.393 1236,-123 1257.58,-96.5674 1344.48,-83.6 1409.15,-77.5007"/>
<polygon fill="midnightblue" stroke="midnightblue" points="1409.68,-80.9672 1419.32,-76.5798 1409.04,-73.9957 1409.68,-80.9672"/>
</g>
<!-- Node31&#45;&gt;Node8 -->
<g id="edge102" class="edge"><title>Node31&#45;&gt;Node8</title>
<path fill="none" stroke="midnightblue" d="M948.259,-544.524C843.124,-541.18 629.751,-530.837 562,-501 438.493,-446.608 428.046,-382.563 384,-255 364.808,-199.417 361.469,-180.225 375,-123 377.683,-111.655 382.799,-99.6631 387.423,-90.2133"/>
<polygon fill="midnightblue" stroke="midnightblue" points="390.645,-91.6011 392.109,-81.1079 384.421,-88.398 390.645,-91.6011"/>
</g>
<!-- Node31&#45;&gt;Node9 -->
<g id="edge101" class="edge"><title>Node31&#45;&gt;Node9</title>
<path fill="none" stroke="midnightblue" d="M1067.76,-545.332C1180.54,-543.28 1432.21,-534.936 1641,-501 1759.21,-481.787 1789.52,-475.124 1902,-434 1970.5,-408.957 2171,-318.93 2171,-246 2171,-246 2171,-246 2171,-188 2171,-146.312 2136.02,-108.03 2113.52,-87.7185"/>
<polygon fill="midnightblue" stroke="midnightblue" points="2115.73,-84.9985 2105.89,-81.0755 2111.14,-90.2796 2115.73,-84.9985"/>
</g>
<!-- Node31&#45;&gt;Node14 -->
<g id="edge70" class="edge"><title>Node31&#45;&gt;Node14</title>
<path fill="none" stroke="midnightblue" d="M948.481,-544.243C854.083,-540.608 674.984,-530.015 619,-501 488.773,-433.508 451.333,-392.024 399,-255 395.829,-246.696 393.548,-242.021 399,-235 411.893,-218.396 459.086,-206.881 501.359,-199.659"/>
<polygon fill="midnightblue" stroke="midnightblue" points="502.112,-203.082 511.411,-198.004 500.975,-196.175 502.112,-203.082"/>
</g>
<!-- Node31&#45;&gt;Node16 -->
<g id="edge71" class="edge"><title>Node31&#45;&gt;Node16</title>
<path fill="none" stroke="midnightblue" d="M1019.07,-537.229C1062.31,-502.966 1220.52,-377.607 1283.19,-327.952"/>
<polygon fill="midnightblue" stroke="midnightblue" points="1285.37,-330.69 1291.03,-321.737 1281.02,-325.204 1285.37,-330.69"/>
</g>
<!-- Node31&#45;&gt;Node20 -->
<g id="edge100" class="edge"><title>Node31&#45;&gt;Node20</title>
<path fill="none" stroke="midnightblue" d="M948.448,-543.772C871.417,-537.336 747,-513.278 747,-425 747,-425 747,-425 747,-367 747,-309.435 752.338,-241.507 755.214,-209.084"/>
<polygon fill="midnightblue" stroke="midnightblue" points="758.726,-209.107 756.147,-198.83 751.755,-208.472 758.726,-209.107"/>
</g>
<!-- Node31&#45;&gt;Node22 -->
<g id="edge72" class="edge"><title>Node31&#45;&gt;Node22</title>
<path fill="none" stroke="midnightblue" d="M1011.14,-537.345C1026.03,-496.37 1089.57,-321.486 1110.38,-264.228"/>
<polygon fill="midnightblue" stroke="midnightblue" points="1113.72,-265.284 1113.84,-254.69 1107.14,-262.894 1113.72,-265.284"/>
</g>
<!-- Node31&#45;&gt;Node25 -->
<g id="edge73" class="edge"><title>Node31&#45;&gt;Node25</title>
<path fill="none" stroke="midnightblue" d="M1067.75,-544.032C1175.32,-539.854 1397.06,-528.159 1469,-501 1491.04,-492.679 1490.26,-479.072 1512,-470 1601.42,-432.693 1646.19,-487.444 1727,-434 1790.79,-391.815 1827.58,-302.822 1841.06,-264.354"/>
<polygon fill="midnightblue" stroke="midnightblue" points="1844.49,-265.127 1844.37,-254.533 1837.86,-262.889 1844.49,-265.127"/>
</g>
<!-- Node31&#45;&gt;Node32 -->
<g id="edge74" class="edge"><title>Node31&#45;&gt;Node32</title>
<path fill="none" stroke="midnightblue" d="M1067.79,-542.823C1161.7,-537.336 1349.32,-524.362 1507,-501 1508.46,-500.784 1509.93,-500.557 1511.42,-500.32"/>
<polygon fill="midnightblue" stroke="midnightblue" points="1512.05,-503.763 1521.32,-498.633 1510.87,-496.862 1512.05,-503.763"/>
</g>
<!-- Node31&#45;&gt;Node35 -->
<g id="edge94" class="edge"><title>Node31&#45;&gt;Node35</title>
<path fill="none" stroke="midnightblue" d="M1047.83,-537.475C1092.82,-527.845 1166.74,-512.024 1220.31,-500.559"/>
<polygon fill="midnightblue" stroke="midnightblue" points="1221.36,-503.915 1230.4,-498.399 1219.89,-497.07 1221.36,-503.915"/>
</g>
<!-- Node32&#45;&gt;Node9 -->
<g id="edge93" class="edge"><title>Node32&#45;&gt;Node9</title>
<path fill="none" stroke="midnightblue" d="M1632.51,-481.472C1691.71,-476.719 1787.29,-464.613 1864,-434 1931.73,-406.968 2133,-318.93 2133,-246 2133,-246 2133,-246 2133,-188 2133,-151.754 2115.91,-112.171 2104.65,-90.0327"/>
<polygon fill="midnightblue" stroke="midnightblue" points="2107.73,-88.3745 2099.97,-81.1633 2101.54,-91.641 2107.73,-88.3745"/>
</g>
<!-- Node32&#45;&gt;Node25 -->
<g id="edge75" class="edge"><title>Node32&#45;&gt;Node25</title>
<path fill="none" stroke="midnightblue" d="M1632.66,-481.924C1702.54,-477.399 1816.51,-465.309 1843,-434 1884.09,-385.44 1864.95,-301.893 1853.46,-264.747"/>
<polygon fill="midnightblue" stroke="midnightblue" points="1856.64,-263.221 1850.21,-254.799 1849.99,-265.391 1856.64,-263.221"/>
</g>
<!-- Node33 -->
<g id="node33" class="node"><title>Node33</title>
<g id="a_node33"><a xlink:href="functor_8h.html" target="_top" xlink:title="Defines the Functor data structures. ">
<polygon fill="white" stroke="black" points="408.5,-235.5 408.5,-254.5 515.5,-254.5 515.5,-235.5 408.5,-235.5"/>
<text text-anchor="middle" x="462" y="-242.5" font-family="Helvetica,sans-Serif" font-size="10.00">tvm/node/functor.h</text>
</a>
</g>
</g>
<!-- Node32&#45;&gt;Node33 -->
<g id="edge76" class="edge"><title>Node32&#45;&gt;Node33</title>
<path fill="none" stroke="midnightblue" d="M1521.48,-474.422C1465.73,-464.284 1377.39,-448.167 1301,-434 1168.5,-409.428 1134.73,-406.427 1003,-378 816.229,-337.696 595.403,-280.951 504.417,-257.171"/>
<polygon fill="midnightblue" stroke="midnightblue" points="505.046,-253.717 494.485,-254.571 503.273,-260.489 505.046,-253.717"/>
</g>
<!-- Node32&#45;&gt;Node34 -->
<g id="edge82" class="edge"><title>Node32&#45;&gt;Node34</title>
<path fill="none" stroke="midnightblue" d="M1528.21,-470.475C1492.03,-460.075 1443.33,-446.078 1409.56,-436.372"/>
<polygon fill="midnightblue" stroke="midnightblue" points="1410.17,-432.905 1399.59,-433.506 1408.24,-439.633 1410.17,-432.905"/>
</g>
<!-- Node33&#45;&gt;Node2 -->
<g id="edge78" class="edge"><title>Node33&#45;&gt;Node2</title>
<path fill="none" stroke="midnightblue" d="M507.162,-235.493C545.045,-227.772 600.292,-215.135 647,-199 667.304,-191.986 670.478,-185.348 691,-179 753.274,-159.738 826.746,-147.911 879.148,-141.248"/>
<polygon fill="midnightblue" stroke="midnightblue" points="879.845,-144.689 889.338,-139.984 878.983,-137.742 879.845,-144.689"/>
</g>
<!-- Node33&#45;&gt;Node3 -->
<g id="edge77" class="edge"><title>Node33&#45;&gt;Node3</title>
<path fill="none" stroke="midnightblue" d="M515.764,-236.165C518.549,-235.769 521.307,-235.378 524,-235 641.703,-218.462 671.506,-216.964 789,-199 988.203,-168.543 1036.47,-151.199 1236,-123 1377.27,-103.035 1414.88,-113.906 1555,-87 1559.84,-86.0707 1564.88,-84.9261 1569.85,-83.6909"/>
<polygon fill="midnightblue" stroke="midnightblue" points="1571.07,-86.9893 1579.86,-81.0681 1569.3,-80.2181 1571.07,-86.9893"/>
</g>
<!-- Node33&#45;&gt;Node8 -->
<g id="edge80" class="edge"><title>Node33&#45;&gt;Node8</title>
<path fill="none" stroke="midnightblue" d="M454.614,-235.247C447.623,-226.559 437.288,-212.607 431,-199 414.206,-162.66 404.431,-116.481 399.964,-91.1785"/>
<polygon fill="midnightblue" stroke="midnightblue" points="403.385,-90.4156 398.278,-81.1325 396.481,-91.5738 403.385,-90.4156"/>
</g>
<!-- Node33&#45;&gt;Node10 -->
<g id="edge81" class="edge"><title>Node33&#45;&gt;Node10</title>
<path fill="none" stroke="midnightblue" d="M441.806,-235.483C404.637,-219.468 323.394,-182.868 260,-143 233.104,-126.085 204.517,-102.989 186.713,-87.913"/>
<polygon fill="midnightblue" stroke="midnightblue" points="188.767,-85.0634 178.894,-81.2185 184.214,-90.3808 188.767,-85.0634"/>
</g>
<!-- Node33&#45;&gt;Node20 -->
<g id="edge79" class="edge"><title>Node33&#45;&gt;Node20</title>
<path fill="none" stroke="midnightblue" d="M508.744,-235.444C568.602,-224.486 670.866,-205.767 723.509,-196.131"/>
<polygon fill="midnightblue" stroke="midnightblue" points="724.143,-199.573 733.349,-194.329 722.882,-192.687 724.143,-199.573"/>
</g>
<!-- Node34&#45;&gt;Node2 -->
<g id="edge83" class="edge"><title>Node34&#45;&gt;Node2</title>
<path fill="none" stroke="midnightblue" d="M1356.58,-414.489C1332.03,-398.484 1279.1,-361.9 1243,-322 1212.15,-287.901 1225.27,-260.493 1187,-235 1111.1,-184.444 1059.49,-251.602 985,-199 969.124,-187.79 959.165,-167.469 953.63,-152.523"/>
<polygon fill="midnightblue" stroke="midnightblue" points="956.865,-151.161 950.361,-142.797 950.23,-153.391 956.865,-151.161"/>
</g>
<!-- Node34&#45;&gt;Node8 -->
<g id="edge87" class="edge"><title>Node34&#45;&gt;Node8</title>
<path fill="none" stroke="midnightblue" d="M1310.26,-422.327C1117.18,-418.758 515.719,-396.296 399,-255 359.681,-207.402 379.055,-126.539 390.556,-90.62"/>
<polygon fill="midnightblue" stroke="midnightblue" points="393.92,-91.5965 393.799,-81.0024 387.287,-89.36 393.92,-91.5965"/>
</g>
<!-- Node34&#45;&gt;Node9 -->
<g id="edge92" class="edge"><title>Node34&#45;&gt;Node9</title>
<path fill="none" stroke="midnightblue" d="M1429.82,-417.374C1541.17,-404.528 1784.3,-365.117 1954,-255 2020.31,-211.97 2068.21,-126.76 2086.65,-90.0263"/>
<polygon fill="midnightblue" stroke="midnightblue" points="2089.8,-91.5462 2091.06,-81.0264 2083.52,-88.4652 2089.8,-91.5462"/>
</g>
<!-- Node34&#45;&gt;Node10 -->
<g id="edge91" class="edge"><title>Node34&#45;&gt;Node10</title>
<path fill="none" stroke="midnightblue" d="M1310.21,-423.61C1184.7,-423.953 884.988,-419.852 638,-378 547.412,-362.65 525.068,-354.159 439,-322 338.395,-284.409 304.626,-277.19 231,-199 209.672,-176.35 202.811,-170.878 189,-143 180.719,-126.284 175.363,-105.589 172.298,-90.9568"/>
<polygon fill="midnightblue" stroke="midnightblue" points="175.729,-90.2664 170.39,-81.1153 168.857,-91.5986 175.729,-90.2664"/>
</g>
<!-- Node34&#45;&gt;Node13 -->
<g id="edge86" class="edge"><title>Node34&#45;&gt;Node13</title>
<path fill="none" stroke="midnightblue" d="M1377.76,-414.083C1384.54,-406.298 1394.54,-394.801 1402.76,-385.367"/>
<polygon fill="midnightblue" stroke="midnightblue" points="1405.46,-387.592 1409.38,-377.751 1400.18,-382.996 1405.46,-387.592"/>
</g>
<!-- Node34&#45;&gt;Node14 -->
<g id="edge84" class="edge"><title>Node34&#45;&gt;Node14</title>
<path fill="none" stroke="midnightblue" d="M1315.97,-414.489C1263.66,-406.033 1182.17,-392.294 1112,-378 1004.67,-356.137 975.842,-356.842 872,-322 767.97,-287.095 650.607,-229.05 600.198,-203.163"/>
<polygon fill="midnightblue" stroke="midnightblue" points="601.798,-200.05 591.307,-198.573 598.587,-206.27 601.798,-200.05"/>
</g>
<!-- Node34&#45;&gt;Node16 -->
<g id="edge85" class="edge"><title>Node34&#45;&gt;Node16</title>
<path fill="none" stroke="midnightblue" d="M1364.1,-414.221C1358.2,-405.283 1349.02,-390.94 1342,-378 1333.65,-362.612 1325.3,-344.743 1319.09,-330.845"/>
<polygon fill="midnightblue" stroke="midnightblue" points="1322.21,-329.256 1314.97,-321.52 1315.81,-332.082 1322.21,-329.256"/>
</g>
<!-- Node34&#45;&gt;Node20 -->
<g id="edge88" class="edge"><title>Node34&#45;&gt;Node20</title>
<path fill="none" stroke="midnightblue" d="M1333.55,-414.446C1297.63,-405.852 1241.29,-391.918 1193,-378 1022.02,-328.72 959.816,-354.058 812,-255 793.465,-242.579 777.667,-222.209 767.822,-207.581"/>
<polygon fill="midnightblue" stroke="midnightblue" points="770.607,-205.442 762.243,-198.939 764.726,-209.239 770.607,-205.442"/>
</g>
<!-- Node34&#45;&gt;Node21 -->
<g id="edge90" class="edge"><title>Node34&#45;&gt;Node21</title>
<path fill="none" stroke="midnightblue" d="M1421.77,-414.497C1504.66,-399.695 1661.13,-366.474 1693,-322 1717.54,-287.755 1699.42,-235.175 1687.03,-207.86"/>
<polygon fill="midnightblue" stroke="midnightblue" points="1690.13,-206.233 1682.66,-198.72 1683.81,-209.251 1690.13,-206.233"/>
</g>
<!-- Node34&#45;&gt;Node30 -->
<g id="edge89" class="edge"><title>Node34&#45;&gt;Node30</title>
<path fill="none" stroke="midnightblue" d="M1394.98,-414.411C1419.79,-405.735 1458.82,-391.691 1492,-378 1537.13,-359.378 1588.5,-335.257 1619.03,-320.602"/>
<polygon fill="midnightblue" stroke="midnightblue" points="1620.69,-323.689 1628.18,-316.196 1617.65,-317.383 1620.69,-323.689"/>
</g>
<!-- Node35&#45;&gt;Node9 -->
<g id="edge98" class="edge"><title>Node35&#45;&gt;Node9</title>
<path fill="none" stroke="midnightblue" d="M1341.97,-478.836C1468.32,-463.534 1780.27,-411.374 1981,-255 2032.72,-214.709 2049.72,-202.616 2077,-143 2084.63,-126.323 2089.4,-105.886 2092.09,-91.3183"/>
<polygon fill="midnightblue" stroke="midnightblue" points="2095.61,-91.5214 2093.82,-81.0775 2088.7,-90.3534 2095.61,-91.5214"/>
</g>
<!-- Node35&#45;&gt;Node25 -->
<g id="edge95" class="edge"><title>Node35&#45;&gt;Node25</title>
<path fill="none" stroke="midnightblue" d="M1341.57,-471.181C1409.74,-453.9 1528.07,-420.822 1624,-378 1702.35,-343.026 1787.72,-286.904 1826.17,-260.553"/>
<polygon fill="midnightblue" stroke="midnightblue" points="1828.24,-263.376 1834.49,-254.816 1824.27,-257.614 1828.24,-263.376"/>
</g>
<!-- Node35&#45;&gt;Node26 -->
<g id="edge99" class="edge"><title>Node35&#45;&gt;Node26</title>
<path fill="none" stroke="midnightblue" d="M1260.53,-470.471C1183.52,-428.051 953.731,-301.483 877.719,-259.615"/>
<polygon fill="midnightblue" stroke="midnightblue" points="879.282,-256.48 868.834,-254.721 875.904,-262.612 879.282,-256.48"/>
</g>
<!-- Node35&#45;&gt;Node33 -->
<g id="edge96" class="edge"><title>Node35&#45;&gt;Node33</title>
<path fill="none" stroke="midnightblue" d="M1230.39,-481.214C1084.14,-471.776 692.395,-441.129 581,-378 530.836,-349.572 490.498,-292.309 472.371,-263.457"/>
<polygon fill="midnightblue" stroke="midnightblue" points="475.302,-261.542 467.093,-254.844 469.334,-265.2 475.302,-261.542"/>
</g>
<!-- Node35&#45;&gt;Node34 -->
<g id="edge97" class="edge"><title>Node35&#45;&gt;Node34</title>
<path fill="none" stroke="midnightblue" d="M1305.91,-470.399C1318.99,-461.129 1336.08,-449.025 1349.32,-439.647"/>
<polygon fill="midnightblue" stroke="midnightblue" points="1351.64,-442.294 1357.78,-433.658 1347.59,-436.582 1351.64,-442.294"/>
</g>
<!-- Node36&#45;&gt;Node33 -->
<g id="edge104" class="edge"><title>Node36&#45;&gt;Node33</title>
<path fill="none" stroke="midnightblue" d="M441.606,-537.345C444.462,-496.54 456.614,-322.938 460.674,-264.948"/>
<polygon fill="midnightblue" stroke="midnightblue" points="464.185,-264.91 461.392,-254.69 457.202,-264.421 464.185,-264.91"/>
</g>
<!-- Node37 -->
<g id="node37" class="node"><title>Node37</title>
<polygon fill="white" stroke="#bfbfbf" points="353.5,-476 353.5,-495 412.5,-495 412.5,-476 353.5,-476"/>
<text text-anchor="middle" x="383" y="-483" font-family="Helvetica,sans-Serif" font-size="10.00">iostream</text>
</g>
<!-- Node36&#45;&gt;Node37 -->
<g id="edge105" class="edge"><title>Node36&#45;&gt;Node37</title>
<path fill="none" stroke="midnightblue" d="M432.69,-537.475C423.818,-528.373 409.554,-513.741 398.58,-502.483"/>
<polygon fill="midnightblue" stroke="midnightblue" points="400.781,-499.727 391.295,-495.009 395.769,-504.613 400.781,-499.727"/>
</g>
<!-- Node38&#45;&gt;Node2 -->
<g id="edge115" class="edge"><title>Node38&#45;&gt;Node2</title>
<path fill="none" stroke="midnightblue" d="M2093.4,-649.391C2106.04,-631.498 2133,-588.572 2133,-548 2133,-548 2133,-548 2133,-423 2133,-298.061 2033.11,-295.87 1924,-235 1846.75,-191.902 1820.17,-194.074 1733,-179 1596.22,-155.348 1181.36,-140.876 1016.56,-135.925"/>
<polygon fill="midnightblue" stroke="midnightblue" points="1016.64,-132.426 1006.54,-135.627 1016.43,-139.423 1016.64,-132.426"/>
</g>
<!-- Node38&#45;&gt;Node9 -->
<g id="edge117" class="edge"><title>Node38&#45;&gt;Node9</title>
<path fill="none" stroke="midnightblue" d="M2125.73,-649.426C2173.08,-636.392 2247,-606.654 2247,-548 2247,-548 2247,-548 2247,-188 2247,-128.195 2171.48,-95.3149 2126.91,-81.1157"/>
<polygon fill="midnightblue" stroke="midnightblue" points="2127.69,-77.6954 2117.1,-78.1337 2125.65,-84.3924 2127.69,-77.6954"/>
</g>
<!-- Node38&#45;&gt;Node12 -->
<g id="edge116" class="edge"><title>Node38&#45;&gt;Node12</title>
<path fill="none" stroke="midnightblue" d="M2046.8,-655.058C1924.01,-646.074 1553.46,-618.961 1408.27,-608.337"/>
<polygon fill="midnightblue" stroke="midnightblue" points="1408.44,-604.84 1398.21,-607.601 1407.93,-611.821 1408.44,-604.84"/>
</g>
<!-- Node39&#45;&gt;Node2 -->
<g id="edge119" class="edge"><title>Node39&#45;&gt;Node2</title>
<path fill="none" stroke="midnightblue" d="M1886.37,-712.428C1629,-701.709 173,-637.129 173,-548 173,-548 173,-548 173,-484.5 173,-308.207 261.039,-241.188 426,-179 507.131,-148.415 756.909,-138.427 879.162,-135.321"/>
<polygon fill="midnightblue" stroke="midnightblue" points="879.253,-138.82 889.164,-135.075 879.081,-131.822 879.253,-138.82"/>
</g>
<!-- Node39&#45;&gt;Node9 -->
<g id="edge124" class="edge"><title>Node39&#45;&gt;Node9</title>
<path fill="none" stroke="midnightblue" d="M1963.53,-710.479C2056.4,-700.932 2285,-670.66 2285,-604 2285,-604 2285,-604 2285,-188 2285,-115.077 2181.54,-86.8841 2127.31,-77.1152"/>
<polygon fill="midnightblue" stroke="midnightblue" points="2127.61,-73.6161 2117.17,-75.3992 2126.44,-80.5181 2127.61,-73.6161"/>
</g>
<!-- Node39&#45;&gt;Node12 -->
<g id="edge121" class="edge"><title>Node39&#45;&gt;Node12</title>
<path fill="none" stroke="midnightblue" d="M1901.82,-705.43C1863.21,-691.486 1783.03,-663.944 1713,-649 1606.9,-626.358 1480.81,-613.923 1408.32,-608.136"/>
<polygon fill="midnightblue" stroke="midnightblue" points="1408.27,-604.622 1398.02,-607.331 1407.72,-611.6 1408.27,-604.622"/>
</g>
<!-- Node39&#45;&gt;Node25 -->
<g id="edge120" class="edge"><title>Node39&#45;&gt;Node25</title>
<path fill="none" stroke="midnightblue" d="M1940.52,-705.353C1967.22,-689.203 2019,-651.729 2019,-604 2019,-604 2019,-604 2019,-484.5 2019,-382.319 1913.86,-294.124 1867.98,-260.509"/>
<polygon fill="midnightblue" stroke="midnightblue" points="1869.81,-257.514 1859.65,-254.526 1865.73,-263.2 1869.81,-257.514"/>
</g>
<!-- Node39&#45;&gt;Node34 -->
<g id="edge122" class="edge"><title>Node39&#45;&gt;Node34</title>
<path fill="none" stroke="midnightblue" d="M1919.33,-705.394C1895.05,-669.365 1795.65,-529.757 1675,-470 1634.83,-450.107 1516.68,-436.982 1439.77,-430.285"/>
<polygon fill="midnightblue" stroke="midnightblue" points="1439.94,-426.786 1429.68,-429.421 1439.34,-433.761 1439.94,-426.786"/>
</g>
<!-- Node39&#45;&gt;Node38 -->
<g id="edge123" class="edge"><title>Node39&#45;&gt;Node38</title>
<path fill="none" stroke="midnightblue" d="M1950.67,-705.444C1977.92,-696.359 2021.18,-681.939 2051.65,-671.783"/>
<polygon fill="midnightblue" stroke="midnightblue" points="2053.07,-674.999 2061.45,-668.516 2050.86,-668.358 2053.07,-674.999"/>
</g>
</g>
</svg>
