<?xml version="1.0" encoding="UTF-8" standalone="no"?>
<!DOCTYPE svg PUBLIC "-//W3C//DTD SVG 1.1//EN"
 "http://www.w3.org/Graphics/SVG/1.1/DTD/svg11.dtd">
<!-- Generated by graphviz version 2.38.0 (20140413.2041)
 -->
<!-- Title: include/tvm/ir/module.h Pages: 1 -->
<svg width="2917pt" height="957pt"
 viewBox="0.00 0.00 2917.00 957.00" xmlns="http://www.w3.org/2000/svg" xmlns:xlink="http://www.w3.org/1999/xlink">
<g id="graph0" class="graph" transform="scale(1 1) rotate(0) translate(4 953)">
<title>include/tvm/ir/module.h</title>
<polygon fill="white" stroke="none" points="-4,4 -4,-953 2913,-953 2913,4 -4,4"/>
<!-- Node1 -->
<g id="node1" class="node"><title>Node1</title>
<polygon fill="#bfbfbf" stroke="black" points="2004.5,-929.5 2004.5,-948.5 2133.5,-948.5 2133.5,-929.5 2004.5,-929.5"/>
<text text-anchor="middle" x="2069" y="-936.5" font-family="Helvetica,sans-Serif" font-size="10.00">include/tvm/ir/module.h</text>
</g>
<!-- Node2 -->
<g id="node2" class="node"><title>Node2</title>
<g id="a_node2"><a xlink:href="ir_2type_8h.html" target="_top" xlink:title="IR/AST nodes for the unified type system in TVM. ">
<polygon fill="white" stroke="black" points="1614.5,-705.5 1614.5,-724.5 1691.5,-724.5 1691.5,-705.5 1614.5,-705.5"/>
<text text-anchor="middle" x="1653" y="-712.5" font-family="Helvetica,sans-Serif" font-size="10.00">tvm/ir/type.h</text>
</a>
</g>
</g>
<!-- Node1&#45;&gt;Node2 -->
<g id="edge1" class="edge"><title>Node1&#45;&gt;Node2</title>
<path fill="none" stroke="midnightblue" d="M2052.95,-929.433C1989.51,-895.581 1755.99,-770.962 1678.32,-729.51"/>
<polygon fill="midnightblue" stroke="midnightblue" points="1679.7,-726.281 1669.23,-724.661 1676.4,-732.457 1679.7,-726.281"/>
</g>
<!-- Node10 -->
<g id="node10" class="node"><title>Node10</title>
<polygon fill="white" stroke="#bfbfbf" points="2431,-62 2431,-81 2475,-81 2475,-62 2431,-62"/>
<text text-anchor="middle" x="2453" y="-69" font-family="Helvetica,sans-Serif" font-size="10.00">string</text>
</g>
<!-- Node1&#45;&gt;Node10 -->
<g id="edge155" class="edge"><title>Node1&#45;&gt;Node10</title>
<path fill="none" stroke="midnightblue" d="M2133.75,-934.957C2311.69,-925.738 2795,-894.569 2795,-828 2795,-828 2795,-828 2795,-188 2795,-150.157 2772.82,-141.848 2740,-123 2696.88,-98.236 2550.78,-81.7289 2485.26,-75.3983"/>
<polygon fill="midnightblue" stroke="midnightblue" points="2485.38,-71.8944 2475.1,-74.436 2484.72,-78.8632 2485.38,-71.8944"/>
</g>
<!-- Node22 -->
<g id="node22" class="node"><title>Node22</title>
<polygon fill="white" stroke="#bfbfbf" points="951.5,-179.5 951.5,-198.5 998.5,-198.5 998.5,-179.5 951.5,-179.5"/>
<text text-anchor="middle" x="975" y="-186.5" font-family="Helvetica,sans-Serif" font-size="10.00">vector</text>
</g>
<!-- Node1&#45;&gt;Node22 -->
<g id="edge156" class="edge"><title>Node1&#45;&gt;Node22</title>
<path fill="none" stroke="midnightblue" d="M2004.39,-937.794C1667.42,-936.306 127,-924.243 127,-828 127,-828 127,-828 127,-546 127,-366.114 783.94,-227.096 941.387,-196.362"/>
<polygon fill="midnightblue" stroke="midnightblue" points="942.283,-199.753 951.435,-194.416 940.951,-192.881 942.283,-199.753"/>
</g>
<!-- Node23 -->
<g id="node23" class="node"><title>Node23</title>
<polygon fill="white" stroke="#bfbfbf" points="2179.5,-179.5 2179.5,-198.5 2272.5,-198.5 2272.5,-179.5 2179.5,-179.5"/>
<text text-anchor="middle" x="2226" y="-186.5" font-family="Helvetica,sans-Serif" font-size="10.00">unordered_map</text>
</g>
<!-- Node1&#45;&gt;Node23 -->
<g id="edge157" class="edge"><title>Node1&#45;&gt;Node23</title>
<path fill="none" stroke="midnightblue" d="M2133.7,-933.796C2298.11,-922.252 2719,-886.943 2719,-828 2719,-828 2719,-828 2719,-602 2719,-413.02 2540.46,-447.315 2399,-322 2355.65,-283.599 2348.7,-269.251 2302,-235 2285.92,-223.209 2266.57,-211.787 2251.42,-203.401"/>
<polygon fill="midnightblue" stroke="midnightblue" points="2253.05,-200.304 2242.6,-198.596 2249.71,-206.452 2253.05,-200.304"/>
</g>
<!-- Node40 -->
<g id="node40" class="node"><title>Node40</title>
<g id="a_node40"><a xlink:href="ir_2expr_8h.html" target="_top" xlink:title="Base expr nodes in TVM. ">
<polygon fill="white" stroke="black" points="1928.5,-761.5 1928.5,-780.5 2005.5,-780.5 2005.5,-761.5 1928.5,-761.5"/>
<text text-anchor="middle" x="1967" y="-768.5" font-family="Helvetica,sans-Serif" font-size="10.00">tvm/ir/expr.h</text>
</a>
</g>
</g>
<!-- Node1&#45;&gt;Node40 -->
<g id="edge121" class="edge"><title>Node1&#45;&gt;Node40</title>
<path fill="none" stroke="midnightblue" d="M2063.52,-929.075C2047.25,-902.606 1999.08,-824.209 1977.57,-789.21"/>
<polygon fill="midnightblue" stroke="midnightblue" points="1980.48,-787.256 1972.26,-780.568 1974.52,-790.921 1980.48,-787.256"/>
</g>
<!-- Node42 -->
<g id="node42" class="node"><title>Node42</title>
<g id="a_node42"><a xlink:href="ir_2function_8h.html" target="_top" xlink:title="Function nodes. ">
<polygon fill="white" stroke="black" points="2105.5,-873.5 2105.5,-892.5 2200.5,-892.5 2200.5,-873.5 2105.5,-873.5"/>
<text text-anchor="middle" x="2153" y="-880.5" font-family="Helvetica,sans-Serif" font-size="10.00">tvm/ir/function.h</text>
</a>
</g>
</g>
<!-- Node1&#45;&gt;Node42 -->
<g id="edge131" class="edge"><title>Node1&#45;&gt;Node42</title>
<path fill="none" stroke="midnightblue" d="M2082.5,-929.324C2095.6,-920.9 2115.71,-907.971 2131.11,-898.074"/>
<polygon fill="midnightblue" stroke="midnightblue" points="2133.02,-901.006 2139.54,-892.655 2129.23,-895.118 2133.02,-901.006"/>
</g>
<!-- Node45 -->
<g id="node45" class="node"><title>Node45</title>
<g id="a_node45"><a xlink:href="ir_2adt_8h.html" target="_top" xlink:title="Algebraic data type definitions. ">
<polygon fill="white" stroke="black" points="1617,-817.5 1617,-836.5 1689,-836.5 1689,-817.5 1617,-817.5"/>
<text text-anchor="middle" x="1653" y="-824.5" font-family="Helvetica,sans-Serif" font-size="10.00">tvm/ir/adt.h</text>
</a>
</g>
</g>
<!-- Node1&#45;&gt;Node45 -->
<g id="edge148" class="edge"><title>Node1&#45;&gt;Node45</title>
<path fill="none" stroke="midnightblue" d="M2004.23,-932.277C1947.99,-926.154 1864.86,-914.306 1795,-893 1751.85,-879.84 1704.81,-856.329 1677.16,-841.482"/>
<polygon fill="midnightblue" stroke="midnightblue" points="1678.68,-838.326 1668.23,-836.622 1675.34,-844.475 1678.68,-838.326"/>
</g>
<!-- Node46 -->
<g id="node46" class="node"><title>Node46</title>
<polygon fill="white" stroke="#bfbfbf" points="2823,-873.5 2823,-892.5 2909,-892.5 2909,-873.5 2823,-873.5"/>
<text text-anchor="middle" x="2866" y="-880.5" font-family="Helvetica,sans-Serif" font-size="10.00">unordered_set</text>
</g>
<!-- Node1&#45;&gt;Node46 -->
<g id="edge158" class="edge"><title>Node1&#45;&gt;Node46</title>
<path fill="none" stroke="midnightblue" d="M2133.51,-936.157C2262.27,-932.021 2560.14,-920.151 2809,-893 2810.26,-892.862 2811.54,-892.717 2812.82,-892.563"/>
<polygon fill="midnightblue" stroke="midnightblue" points="2813.33,-896.026 2822.8,-891.267 2812.43,-889.085 2813.33,-896.026"/>
</g>
<!-- Node3 -->
<g id="node3" class="node"><title>Node3</title>
<g id="a_node3"><a xlink:href="object_8h.html" target="_top" xlink:title="A managed object in the TVM runtime. ">
<polygon fill="white" stroke="black" points="788.5,-123.5 788.5,-142.5 905.5,-142.5 905.5,-123.5 788.5,-123.5"/>
<text text-anchor="middle" x="847" y="-130.5" font-family="Helvetica,sans-Serif" font-size="10.00">tvm/runtime/object.h</text>
</a>
</g>
</g>
<!-- Node2&#45;&gt;Node3 -->
<g id="edge2" class="edge"><title>Node2&#45;&gt;Node3</title>
<path fill="none" stroke="midnightblue" d="M1614.39,-713.13C1479.1,-709.863 1027,-697.058 885,-669 640.596,-620.709 355,-735.629 355,-486.5 355,-486.5 355,-486.5 355,-367 355,-323.462 670.061,-218.476 709,-199 726.069,-190.462 729.845,-187.364 747,-179 770.529,-167.527 797.632,-155.397 817.681,-146.625"/>
<polygon fill="midnightblue" stroke="midnightblue" points="819.139,-149.808 826.91,-142.606 816.344,-143.39 819.139,-149.808"/>
</g>
<!-- Node2&#45;&gt;Node10 -->
<g id="edge120" class="edge"><title>Node2&#45;&gt;Node10</title>
<path fill="none" stroke="midnightblue" d="M1675.17,-705.399C1766.17,-669.349 2117.11,-522.925 2349,-322 2401.83,-276.229 2420.94,-263.857 2447,-199 2459.81,-167.13 2463.7,-157.24 2461,-123 2460.16,-112.314 2458.33,-100.474 2456.64,-90.9452"/>
<polygon fill="midnightblue" stroke="midnightblue" points="2460.06,-90.2104 2454.77,-81.0292 2453.18,-91.5037 2460.06,-90.2104"/>
</g>
<!-- Node13 -->
<g id="node13" class="node"><title>Node13</title>
<g id="a_node13"><a xlink:href="data__type_8h.html" target="_top" xlink:title="tvm/runtime/data_type.h">
<polygon fill="white" stroke="black" points="1653,-235.5 1653,-254.5 1789,-254.5 1789,-235.5 1653,-235.5"/>
<text text-anchor="middle" x="1721" y="-242.5" font-family="Helvetica,sans-Serif" font-size="10.00">tvm/runtime/data_type.h</text>
</a>
</g>
</g>
<!-- Node2&#45;&gt;Node13 -->
<g id="edge12" class="edge"><title>Node2&#45;&gt;Node13</title>
<path fill="none" stroke="midnightblue" d="M1667.01,-705.421C1725.16,-669.683 1945.18,-533.014 1962,-501 2020.4,-389.811 1828.4,-292.315 1751.46,-258.58"/>
<polygon fill="midnightblue" stroke="midnightblue" points="1752.82,-255.353 1742.25,-254.605 1750.05,-261.781 1752.82,-255.353"/>
</g>
<!-- Node14 -->
<g id="node14" class="node"><title>Node14</title>
<g id="a_node14"><a xlink:href="node_8h.html" target="_top" xlink:title="Definitions and helper macros for IR/AST nodes. ">
<polygon fill="white" stroke="black" points="844,-593.5 844,-612.5 942,-612.5 942,-593.5 844,-593.5"/>
<text text-anchor="middle" x="893" y="-600.5" font-family="Helvetica,sans-Serif" font-size="10.00">tvm/node/node.h</text>
</a>
</g>
</g>
<!-- Node2&#45;&gt;Node14 -->
<g id="edge17" class="edge"><title>Node2&#45;&gt;Node14</title>
<path fill="none" stroke="midnightblue" d="M1614.27,-708.394C1490.08,-690.419 1101.27,-634.144 952.086,-612.552"/>
<polygon fill="midnightblue" stroke="midnightblue" points="952.587,-609.088 942.189,-611.119 951.584,-616.016 952.587,-609.088"/>
</g>
<!-- Node35 -->
<g id="node35" class="node"><title>Node35</title>
<g id="a_node35"><a xlink:href="node_2container_8h.html" target="_top" xlink:title="Array/Map container in the DSL graph. ">
<polygon fill="white" stroke="black" points="860.5,-414.5 860.5,-433.5 979.5,-433.5 979.5,-414.5 860.5,-414.5"/>
<text text-anchor="middle" x="920" y="-421.5" font-family="Helvetica,sans-Serif" font-size="10.00">tvm/node/container.h</text>
</a>
</g>
</g>
<!-- Node2&#45;&gt;Node35 -->
<g id="edge115" class="edge"><title>Node2&#45;&gt;Node35</title>
<path fill="none" stroke="midnightblue" d="M1614.23,-714.598C1450.15,-716.149 816.884,-711.938 720,-557 709.464,-540.15 694.504,-504.85 724,-470 740.301,-450.74 800.677,-438.883 850.161,-432.21"/>
<polygon fill="midnightblue" stroke="midnightblue" points="850.75,-435.663 860.216,-430.904 849.848,-428.721 850.75,-435.663"/>
</g>
<!-- Node39 -->
<g id="node39" class="node"><title>Node39</title>
<g id="a_node39"><a xlink:href="span_8h.html" target="_top" xlink:title="Span information for debugging purposes. ">
<polygon fill="white" stroke="black" points="1927,-649.5 1927,-668.5 2007,-668.5 2007,-649.5 1927,-649.5"/>
<text text-anchor="middle" x="1967" y="-656.5" font-family="Helvetica,sans-Serif" font-size="10.00">tvm/ir/span.h</text>
</a>
</g>
</g>
<!-- Node2&#45;&gt;Node39 -->
<g id="edge116" class="edge"><title>Node2&#45;&gt;Node39</title>
<path fill="none" stroke="midnightblue" d="M1691.5,-707.379C1748.12,-697.641 1853.91,-679.449 1916.63,-668.662"/>
<polygon fill="midnightblue" stroke="midnightblue" points="1917.43,-672.076 1926.69,-666.932 1916.24,-665.177 1917.43,-672.076"/>
</g>
<!-- Node4 -->
<g id="node4" class="node"><title>Node4</title>
<polygon fill="white" stroke="#bfbfbf" points="1241,-62 1241,-81 1327,-81 1327,-62 1241,-62"/>
<text text-anchor="middle" x="1284" y="-69" font-family="Helvetica,sans-Serif" font-size="10.00">dmlc/logging.h</text>
</g>
<!-- Node3&#45;&gt;Node4 -->
<g id="edge3" class="edge"><title>Node3&#45;&gt;Node4</title>
<path fill="none" stroke="midnightblue" d="M905.936,-123.976C991.393,-112.34 1148.45,-90.9557 1230.65,-79.7634"/>
<polygon fill="midnightblue" stroke="midnightblue" points="1231.34,-83.202 1240.78,-78.3848 1230.4,-76.266 1231.34,-83.202"/>
</g>
<!-- Node5 -->
<g id="node5" class="node"><title>Node5</title>
<g id="a_node5"><a xlink:href="c__runtime__api_8h.html" target="_top" xlink:title="tvm/runtime/c_runtime\l_api.h">
<polygon fill="white" stroke="black" points="350.5,-56.5 350.5,-86.5 477.5,-86.5 477.5,-56.5 350.5,-56.5"/>
<text text-anchor="start" x="358.5" y="-74.5" font-family="Helvetica,sans-Serif" font-size="10.00">tvm/runtime/c_runtime</text>
<text text-anchor="middle" x="414" y="-63.5" font-family="Helvetica,sans-Serif" font-size="10.00">_api.h</text>
</a>
</g>
</g>
<!-- Node3&#45;&gt;Node5 -->
<g id="edge4" class="edge"><title>Node3&#45;&gt;Node5</title>
<path fill="none" stroke="midnightblue" d="M788.153,-123.914C710.161,-113.197 572.553,-94.2874 487.722,-82.6304"/>
<polygon fill="midnightblue" stroke="midnightblue" points="488.03,-79.1398 477.646,-81.2458 487.077,-86.0747 488.03,-79.1398"/>
</g>
<!-- Node9 -->
<g id="node9" class="node"><title>Node9</title>
<polygon fill="white" stroke="#bfbfbf" points="1649,-62 1649,-81 1717,-81 1717,-62 1649,-62"/>
<text text-anchor="middle" x="1683" y="-69" font-family="Helvetica,sans-Serif" font-size="10.00">type_traits</text>
</g>
<!-- Node3&#45;&gt;Node9 -->
<g id="edge8" class="edge"><title>Node3&#45;&gt;Node9</title>
<path fill="none" stroke="midnightblue" d="M905.786,-127.816C1064.26,-116.537 1497.82,-85.6799 1638.37,-75.6763"/>
<polygon fill="midnightblue" stroke="midnightblue" points="1639.02,-79.1388 1648.75,-74.9376 1638.53,-72.1565 1639.02,-79.1388"/>
</g>
<!-- Node3&#45;&gt;Node10 -->
<g id="edge9" class="edge"><title>Node3&#45;&gt;Node10</title>
<path fill="none" stroke="midnightblue" d="M905.584,-129.83C1166.9,-120.148 2222.02,-81.0576 2420.66,-73.698"/>
<polygon fill="midnightblue" stroke="midnightblue" points="2420.88,-77.1923 2430.75,-73.3244 2420.63,-70.1971 2420.88,-77.1923"/>
</g>
<!-- Node11 -->
<g id="node11" class="node"><title>Node11</title>
<polygon fill="white" stroke="#bfbfbf" points="0,-62 0,-81 42,-81 42,-62 0,-62"/>
<text text-anchor="middle" x="21" y="-69" font-family="Helvetica,sans-Serif" font-size="10.00">utility</text>
</g>
<!-- Node3&#45;&gt;Node11 -->
<g id="edge10" class="edge"><title>Node3&#45;&gt;Node11</title>
<path fill="none" stroke="midnightblue" d="M788.359,-125.016C781.5,-124.289 774.599,-123.599 768,-123 490.752,-97.8493 154.567,-79.4357 52.1072,-74.0897"/>
<polygon fill="midnightblue" stroke="midnightblue" points="52.2883,-70.5945 42.1204,-73.5716 51.9255,-77.5851 52.2883,-70.5945"/>
</g>
<!-- Node12 -->
<g id="node12" class="node"><title>Node12</title>
<polygon fill="white" stroke="#bfbfbf" points="672,-62 672,-81 722,-81 722,-62 672,-62"/>
<text text-anchor="middle" x="697" y="-69" font-family="Helvetica,sans-Serif" font-size="10.00">atomic</text>
</g>
<!-- Node3&#45;&gt;Node12 -->
<g id="edge11" class="edge"><title>Node3&#45;&gt;Node12</title>
<path fill="none" stroke="midnightblue" d="M825.509,-123.475C799.89,-113.313 756.89,-96.2564 727.755,-84.6996"/>
<polygon fill="midnightblue" stroke="midnightblue" points="729.037,-81.4429 718.451,-81.0091 726.456,-87.9497 729.037,-81.4429"/>
</g>
<!-- Node6 -->
<g id="node6" class="node"><title>Node6</title>
<polygon fill="white" stroke="#bfbfbf" points="279,-0.5 279,-19.5 369,-19.5 369,-0.5 279,-0.5"/>
<text text-anchor="middle" x="324" y="-7.5" font-family="Helvetica,sans-Serif" font-size="10.00">dlpack/dlpack.h</text>
</g>
<!-- Node5&#45;&gt;Node6 -->
<g id="edge5" class="edge"><title>Node5&#45;&gt;Node6</title>
<path fill="none" stroke="midnightblue" d="M392.671,-56.3993C378.515,-47.0402 359.989,-34.7924 345.747,-25.3771"/>
<polygon fill="midnightblue" stroke="midnightblue" points="347.368,-22.2531 337.096,-19.6578 343.507,-28.0923 347.368,-22.2531"/>
</g>
<!-- Node7 -->
<g id="node7" class="node"><title>Node7</title>
<polygon fill="white" stroke="#bfbfbf" points="387.5,-0.5 387.5,-19.5 440.5,-19.5 440.5,-0.5 387.5,-0.5"/>
<text text-anchor="middle" x="414" y="-7.5" font-family="Helvetica,sans-Serif" font-size="10.00">stdint.h</text>
</g>
<!-- Node5&#45;&gt;Node7 -->
<g id="edge6" class="edge"><title>Node5&#45;&gt;Node7</title>
<path fill="none" stroke="midnightblue" d="M414,-56.3993C414,-48.4664 414,-38.458 414,-29.8583"/>
<polygon fill="midnightblue" stroke="midnightblue" points="417.5,-29.6577 414,-19.6578 410.5,-29.6578 417.5,-29.6577"/>
</g>
<!-- Node8 -->
<g id="node8" class="node"><title>Node8</title>
<polygon fill="white" stroke="#bfbfbf" points="458.5,-0.5 458.5,-19.5 513.5,-19.5 513.5,-0.5 458.5,-0.5"/>
<text text-anchor="middle" x="486" y="-7.5" font-family="Helvetica,sans-Serif" font-size="10.00">stddef.h</text>
</g>
<!-- Node5&#45;&gt;Node8 -->
<g id="edge7" class="edge"><title>Node5&#45;&gt;Node8</title>
<path fill="none" stroke="midnightblue" d="M431.063,-56.3993C442.065,-47.3076 456.365,-35.4899 467.618,-26.1909"/>
<polygon fill="midnightblue" stroke="midnightblue" points="470.044,-28.726 475.523,-19.6578 465.585,-23.33 470.044,-28.726"/>
</g>
<!-- Node13&#45;&gt;Node4 -->
<g id="edge14" class="edge"><title>Node13&#45;&gt;Node4</title>
<path fill="none" stroke="midnightblue" d="M1699.33,-235.495C1627.84,-207.438 1399.24,-117.728 1315.3,-84.7842"/>
<polygon fill="midnightblue" stroke="midnightblue" points="1316.39,-81.4512 1305.8,-81.056 1313.83,-87.9674 1316.39,-81.4512"/>
</g>
<!-- Node13&#45;&gt;Node5 -->
<g id="edge13" class="edge"><title>Node13&#45;&gt;Node5</title>
<path fill="none" stroke="midnightblue" d="M1688.49,-235.447C1654.97,-226.57 1601.24,-212.166 1555,-199 1525.11,-190.489 1518.49,-185.005 1488,-179 1295.25,-141.038 697.683,-93.8113 487.797,-77.9674"/>
<polygon fill="midnightblue" stroke="midnightblue" points="488.035,-74.4756 477.8,-77.2144 487.509,-81.4558 488.035,-74.4756"/>
</g>
<!-- Node13&#45;&gt;Node9 -->
<g id="edge15" class="edge"><title>Node13&#45;&gt;Node9</title>
<path fill="none" stroke="midnightblue" d="M1717.34,-235.277C1710.28,-218.014 1694.87,-178.121 1688,-143 1684.61,-125.707 1683.45,-105.63 1683.09,-91.3345"/>
<polygon fill="midnightblue" stroke="midnightblue" points="1686.59,-91.2193 1682.94,-81.273 1679.59,-91.3245 1686.59,-91.2193"/>
</g>
<!-- Node13&#45;&gt;Node10 -->
<g id="edge16" class="edge"><title>Node13&#45;&gt;Node10</title>
<path fill="none" stroke="midnightblue" d="M1734.12,-235.391C1769.7,-212.539 1871.65,-150.235 1966,-123 2131.75,-75.1534 2340.78,-71.4313 2420.29,-71.9432"/>
<polygon fill="midnightblue" stroke="midnightblue" points="2420.59,-75.4461 2430.63,-72.0394 2420.66,-68.4464 2420.59,-75.4461"/>
</g>
<!-- Node14&#45;&gt;Node3 -->
<g id="edge67" class="edge"><title>Node14&#45;&gt;Node3</title>
<path fill="none" stroke="midnightblue" d="M843.725,-596.103C795.176,-589.271 725.645,-576.405 707,-557 633.205,-480.194 670.496,-427.994 660,-322 655.97,-281.298 662.131,-264.937 690,-235 710.416,-213.069 721.772,-215.165 747,-199 774.063,-181.659 805.073,-161.45 825.293,-148.226"/>
<polygon fill="midnightblue" stroke="midnightblue" points="827.321,-151.082 833.771,-142.677 823.488,-145.225 827.321,-151.082"/>
</g>
<!-- Node14&#45;&gt;Node5 -->
<g id="edge18" class="edge"><title>Node14&#45;&gt;Node5</title>
<path fill="none" stroke="midnightblue" d="M843.876,-600.718C776.906,-597.801 653.865,-588.251 554,-557 340.393,-490.154 240.155,-460.299 151,-255 127.46,-200.795 122.063,-161.379 167,-123 192.655,-101.089 276.989,-87.2535 340.022,-79.7137"/>
<polygon fill="midnightblue" stroke="midnightblue" points="340.809,-83.1458 350.338,-78.5127 340,-76.1928 340.809,-83.1458"/>
</g>
<!-- Node14&#45;&gt;Node9 -->
<g id="edge114" class="edge"><title>Node14&#45;&gt;Node9</title>
<path fill="none" stroke="midnightblue" d="M942.241,-602.285C1127.58,-602.61 1781.76,-596.811 1962,-501 2027.9,-465.971 2207.76,-297.516 2167,-235 2117.41,-158.933 1837.16,-100.535 1727.24,-80.2491"/>
<polygon fill="midnightblue" stroke="midnightblue" points="1727.62,-76.7595 1717.15,-78.4056 1726.36,-83.6456 1727.62,-76.7595"/>
</g>
<!-- Node14&#45;&gt;Node10 -->
<g id="edge111" class="edge"><title>Node14&#45;&gt;Node10</title>
<path fill="none" stroke="midnightblue" d="M942.106,-601.075C1108.26,-597.716 1648.54,-584.871 1820,-557 2019.58,-524.559 2068.15,-503.575 2258,-434 2370.42,-392.802 2436.79,-421.757 2503,-322 2516.93,-301.017 2523.73,-167.288 2505,-123 2498.91,-108.591 2486.47,-96.2679 2475.29,-87.4025"/>
<polygon fill="midnightblue" stroke="midnightblue" points="2477.22,-84.4772 2467.11,-81.3198 2473.04,-90.0949 2477.22,-84.4772"/>
</g>
<!-- Node14&#45;&gt;Node11 -->
<g id="edge113" class="edge"><title>Node14&#45;&gt;Node11</title>
<path fill="none" stroke="midnightblue" d="M843.755,-599.871C767.264,-595.811 615.629,-584.747 490,-557 413.558,-540.117 390.557,-540.553 323,-501 227.95,-445.351 72.7341,-249.588 43,-199 29.6081,-176.216 27.8794,-168.974 23,-143 19.7535,-125.718 19.52,-105.64 19.9407,-91.341"/>
<polygon fill="midnightblue" stroke="midnightblue" points="23.4406,-91.4177 20.3734,-81.2765 16.447,-91.117 23.4406,-91.4177"/>
</g>
<!-- Node15 -->
<g id="node15" class="node"><title>Node15</title>
<g id="a_node15"><a xlink:href="runtime_2container_8h.html" target="_top" xlink:title="Common POD(plain old data) container types. ">
<polygon fill="white" stroke="black" points="737,-358.5 737,-377.5 869,-377.5 869,-358.5 737,-358.5"/>
<text text-anchor="middle" x="803" y="-365.5" font-family="Helvetica,sans-Serif" font-size="10.00">tvm/runtime/container.h</text>
</a>
</g>
</g>
<!-- Node14&#45;&gt;Node15 -->
<g id="edge19" class="edge"><title>Node14&#45;&gt;Node15</title>
<path fill="none" stroke="midnightblue" d="M843.809,-595.921C798.172,-589.151 735.091,-576.519 720,-557 676.765,-501.08 750.158,-419.117 785.558,-384.911"/>
<polygon fill="midnightblue" stroke="midnightblue" points="788.389,-387.052 793.26,-377.643 783.585,-381.961 788.389,-387.052"/>
</g>
<!-- Node16 -->
<g id="node16" class="node"><title>Node16</title>
<g id="a_node16"><a xlink:href="runtime_2memory_8h.html" target="_top" xlink:title="Runtime memory management. ">
<polygon fill="white" stroke="black" points="163.5,-179.5 163.5,-198.5 290.5,-198.5 290.5,-179.5 163.5,-179.5"/>
<text text-anchor="middle" x="227" y="-186.5" font-family="Helvetica,sans-Serif" font-size="10.00">tvm/runtime/memory.h</text>
</a>
</g>
</g>
<!-- Node14&#45;&gt;Node16 -->
<g id="edge68" class="edge"><title>Node14&#45;&gt;Node16</title>
<path fill="none" stroke="midnightblue" d="M843.892,-600.447C763.655,-595.691 602.442,-576.647 493,-501 365.806,-413.084 326.754,-387.464 247,-255 238.341,-240.618 233.131,-222.16 230.21,-208.591"/>
<polygon fill="midnightblue" stroke="midnightblue" points="233.601,-207.694 228.269,-198.539 226.728,-209.021 233.601,-207.694"/>
</g>
<!-- Node14&#45;&gt;Node22 -->
<g id="edge112" class="edge"><title>Node14&#45;&gt;Node22</title>
<path fill="none" stroke="midnightblue" d="M900.169,-593.264C919.13,-569.52 970.349,-501.076 988,-434 990.262,-425.404 988.528,-422.873 988,-414 986.943,-396.239 970.057,-272.761 969,-255 968.472,-246.127 968.411,-243.869 969,-235 969.575,-226.341 970.765,-216.805 971.935,-208.75"/>
<polygon fill="midnightblue" stroke="midnightblue" points="975.436,-209.011 973.509,-198.593 968.519,-207.939 975.436,-209.011"/>
</g>
<!-- Node32 -->
<g id="node32" class="node"><title>Node32</title>
<g id="a_node32"><a xlink:href="reflection_8h.html" target="_top" xlink:title="Reflection and serialization of compiler IR/AST nodes. ">
<polygon fill="white" stroke="black" points="1097.5,-537.5 1097.5,-556.5 1216.5,-556.5 1216.5,-537.5 1097.5,-537.5"/>
<text text-anchor="middle" x="1157" y="-544.5" font-family="Helvetica,sans-Serif" font-size="10.00">tvm/node/reflection.h</text>
</a>
</g>
</g>
<!-- Node14&#45;&gt;Node32 -->
<g id="edge69" class="edge"><title>Node14&#45;&gt;Node32</title>
<path fill="none" stroke="midnightblue" d="M934.832,-593.444C981.079,-583.984 1055.61,-568.738 1105.44,-558.547"/>
<polygon fill="midnightblue" stroke="midnightblue" points="1106.27,-561.949 1115.36,-556.516 1104.87,-555.091 1106.27,-561.949"/>
</g>
<!-- Node33 -->
<g id="node33" class="node"><title>Node33</title>
<g id="a_node33"><a xlink:href="structural__equal_8h.html" target="_top" xlink:title="Structural equality comparison. ">
<polygon fill="white" stroke="black" points="1667.5,-470.5 1667.5,-500.5 1778.5,-500.5 1778.5,-470.5 1667.5,-470.5"/>
<text text-anchor="start" x="1675.5" y="-488.5" font-family="Helvetica,sans-Serif" font-size="10.00">tvm/node/structural</text>
<text text-anchor="middle" x="1723" y="-477.5" font-family="Helvetica,sans-Serif" font-size="10.00">_equal.h</text>
</a>
</g>
</g>
<!-- Node14&#45;&gt;Node33 -->
<g id="edge109" class="edge"><title>Node14&#45;&gt;Node33</title>
<path fill="none" stroke="midnightblue" d="M942.231,-595.42C1007.06,-586.733 1124.6,-570.91 1225,-557 1380.01,-535.522 1562.06,-509.564 1657.31,-495.925"/>
<polygon fill="midnightblue" stroke="midnightblue" points="1657.97,-499.367 1667.37,-494.484 1656.98,-492.437 1657.97,-499.367"/>
</g>
<!-- Node14&#45;&gt;Node35 -->
<g id="edge108" class="edge"><title>Node14&#45;&gt;Node35</title>
<path fill="none" stroke="midnightblue" d="M843.823,-595.41C799.899,-588.397 740.336,-575.711 726,-557 720.594,-549.944 724.898,-545.82 726,-537 729.807,-506.515 721.282,-491.728 743,-470 758.336,-454.656 807.851,-442.859 850.622,-435.2"/>
<polygon fill="midnightblue" stroke="midnightblue" points="851.223,-438.648 860.476,-433.486 850.024,-431.751 851.223,-438.648"/>
</g>
<!-- Node36 -->
<g id="node36" class="node"><title>Node36</title>
<g id="a_node36"><a xlink:href="structural__hash_8h.html" target="_top" xlink:title="tvm/node/structural\l_hash.h">
<polygon fill="white" stroke="black" points="1842.5,-470.5 1842.5,-500.5 1953.5,-500.5 1953.5,-470.5 1842.5,-470.5"/>
<text text-anchor="start" x="1850.5" y="-488.5" font-family="Helvetica,sans-Serif" font-size="10.00">tvm/node/structural</text>
<text text-anchor="middle" x="1898" y="-477.5" font-family="Helvetica,sans-Serif" font-size="10.00">_hash.h</text>
</a>
</g>
</g>
<!-- Node14&#45;&gt;Node36 -->
<g id="edge110" class="edge"><title>Node14&#45;&gt;Node36</title>
<path fill="none" stroke="midnightblue" d="M942.205,-596.799C1019.92,-588.554 1175.85,-571.889 1308,-557 1520.99,-533.002 1574.28,-527.327 1787,-501 1801.65,-499.187 1817.38,-497.172 1832.26,-495.237"/>
<polygon fill="midnightblue" stroke="midnightblue" points="1832.94,-498.678 1842.4,-493.912 1832.03,-491.737 1832.94,-498.678"/>
</g>
<!-- Node37 -->
<g id="node37" class="node"><title>Node37</title>
<g id="a_node37"><a xlink:href="repr__printer_8h.html" target="_top" xlink:title="Printer class to print repr string of each AST/IR nodes. ">
<polygon fill="white" stroke="black" points="735,-537.5 735,-556.5 865,-556.5 865,-537.5 735,-537.5"/>
<text text-anchor="middle" x="800" y="-544.5" font-family="Helvetica,sans-Serif" font-size="10.00">tvm/node/repr_printer.h</text>
</a>
</g>
</g>
<!-- Node14&#45;&gt;Node37 -->
<g id="edge105" class="edge"><title>Node14&#45;&gt;Node37</title>
<path fill="none" stroke="midnightblue" d="M878.058,-593.324C863.415,-584.822 840.866,-571.729 823.762,-561.797"/>
<polygon fill="midnightblue" stroke="midnightblue" points="825.31,-558.649 814.905,-556.655 821.795,-564.703 825.31,-558.649"/>
</g>
<!-- Node15&#45;&gt;Node3 -->
<g id="edge26" class="edge"><title>Node15&#45;&gt;Node3</title>
<path fill="none" stroke="midnightblue" d="M798.75,-358.482C788.316,-336.248 764.042,-275.383 789,-235 807.809,-204.566 842.191,-229.434 861,-199 869.888,-184.619 864.025,-165.419 857.379,-151.621"/>
<polygon fill="midnightblue" stroke="midnightblue" points="860.4,-149.846 852.602,-142.674 854.225,-153.144 860.4,-149.846"/>
</g>
<!-- Node15&#45;&gt;Node4 -->
<g id="edge20" class="edge"><title>Node15&#45;&gt;Node4</title>
<path fill="none" stroke="midnightblue" d="M803.509,-358.326C805.323,-335.176 813.376,-271.236 848,-235 953.054,-125.056 1139.36,-88.9368 1230.62,-77.5191"/>
<polygon fill="midnightblue" stroke="midnightblue" points="1231.22,-80.9717 1240.74,-76.3063 1230.39,-74.0214 1231.22,-80.9717"/>
</g>
<!-- Node15&#45;&gt;Node9 -->
<g id="edge64" class="edge"><title>Node15&#45;&gt;Node9</title>
<path fill="none" stroke="midnightblue" d="M869.273,-364.642C962.525,-360.455 1137.46,-349.416 1284,-322 1391.17,-301.949 1426.75,-311.503 1520,-255 1591.71,-211.551 1649.73,-126.624 1672.55,-89.9993"/>
<polygon fill="midnightblue" stroke="midnightblue" points="1675.58,-91.7588 1677.81,-81.4018 1669.6,-88.1064 1675.58,-91.7588"/>
</g>
<!-- Node15&#45;&gt;Node10 -->
<g id="edge63" class="edge"><title>Node15&#45;&gt;Node10</title>
<path fill="none" stroke="midnightblue" d="M869.371,-363.578C976.878,-357.641 1195.67,-343.925 1380,-322 1566.83,-299.778 1618.52,-311.438 1798,-255 1926.57,-214.573 1941.89,-161.655 2071,-123 2196.66,-85.3769 2353.93,-75.7613 2420.67,-73.3212"/>
<polygon fill="midnightblue" stroke="midnightblue" points="2421.08,-76.8097 2430.95,-72.9768 2420.84,-69.8136 2421.08,-76.8097"/>
</g>
<!-- Node15&#45;&gt;Node11 -->
<g id="edge65" class="edge"><title>Node15&#45;&gt;Node11</title>
<path fill="none" stroke="midnightblue" d="M736.955,-361.198C666.446,-354.373 551.662,-341.447 454,-322 342.445,-299.786 313.881,-293.914 207,-255 151.318,-234.727 132.274,-236.017 86,-199 61.4959,-179.398 57.4531,-170.853 43,-143 34.3411,-126.313 28.384,-105.614 24.8743,-90.9725"/>
<polygon fill="midnightblue" stroke="midnightblue" points="28.2688,-90.1143 22.6632,-81.1238 21.4388,-91.6477 28.2688,-90.1143"/>
</g>
<!-- Node15&#45;&gt;Node16 -->
<g id="edge21" class="edge"><title>Node15&#45;&gt;Node16</title>
<path fill="none" stroke="midnightblue" d="M747.347,-358.484C659.324,-343.911 483.548,-310.289 343,-255 308.07,-241.259 270.715,-218.751 248.108,-204.157"/>
<polygon fill="midnightblue" stroke="midnightblue" points="249.931,-201.167 239.648,-198.618 246.097,-207.024 249.931,-201.167"/>
</g>
<!-- Node18 -->
<g id="node18" class="node"><title>Node18</title>
<g id="a_node18"><a xlink:href="packed__func_8h.html" target="_top" xlink:title="Type&#45;erased function used across TVM API. ">
<polygon fill="white" stroke="black" points="1162.5,-291.5 1162.5,-321.5 1275.5,-321.5 1275.5,-291.5 1162.5,-291.5"/>
<text text-anchor="start" x="1170.5" y="-309.5" font-family="Helvetica,sans-Serif" font-size="10.00">tvm/runtime/packed</text>
<text text-anchor="middle" x="1219" y="-298.5" font-family="Helvetica,sans-Serif" font-size="10.00">_func.h</text>
</a>
</g>
</g>
<!-- Node15&#45;&gt;Node18 -->
<g id="edge27" class="edge"><title>Node15&#45;&gt;Node18</title>
<path fill="none" stroke="midnightblue" d="M862.603,-358.475C939.302,-347.505 1072.18,-328.5 1152.21,-317.053"/>
<polygon fill="midnightblue" stroke="midnightblue" points="1152.77,-320.508 1162.18,-315.627 1151.78,-313.578 1152.77,-320.508"/>
</g>
<!-- Node15&#45;&gt;Node22 -->
<g id="edge66" class="edge"><title>Node15&#45;&gt;Node22</title>
<path fill="none" stroke="midnightblue" d="M806.141,-358.281C815.794,-331.88 845.547,-253.489 865,-235 876.455,-224.112 913.589,-210.142 941.568,-200.676"/>
<polygon fill="midnightblue" stroke="midnightblue" points="943.013,-203.884 951.397,-197.407 940.803,-197.242 943.013,-203.884"/>
</g>
<!-- Node30 -->
<g id="node30" class="node"><title>Node30</title>
<polygon fill="white" stroke="#bfbfbf" points="687.5,-297 687.5,-316 736.5,-316 736.5,-297 687.5,-297"/>
<text text-anchor="middle" x="712" y="-304" font-family="Helvetica,sans-Serif" font-size="10.00">cstring</text>
</g>
<!-- Node15&#45;&gt;Node30 -->
<g id="edge61" class="edge"><title>Node15&#45;&gt;Node30</title>
<path fill="none" stroke="midnightblue" d="M789.962,-358.475C775.231,-348.843 751.027,-333.017 733.491,-321.552"/>
<polygon fill="midnightblue" stroke="midnightblue" points="735.299,-318.552 725.014,-316.009 731.468,-324.411 735.299,-318.552"/>
</g>
<!-- Node31 -->
<g id="node31" class="node"><title>Node31</title>
<polygon fill="white" stroke="#bfbfbf" points="869.5,-297 869.5,-316 946.5,-316 946.5,-297 869.5,-297"/>
<text text-anchor="middle" x="908" y="-304" font-family="Helvetica,sans-Serif" font-size="10.00">initializer_list</text>
</g>
<!-- Node15&#45;&gt;Node31 -->
<g id="edge62" class="edge"><title>Node15&#45;&gt;Node31</title>
<path fill="none" stroke="midnightblue" d="M818.044,-358.475C835.275,-348.711 863.74,-332.581 884.034,-321.081"/>
<polygon fill="midnightblue" stroke="midnightblue" points="886.009,-323.984 892.984,-316.009 882.558,-317.894 886.009,-323.984"/>
</g>
<!-- Node16&#45;&gt;Node3 -->
<g id="edge22" class="edge"><title>Node16&#45;&gt;Node3</title>
<path fill="none" stroke="midnightblue" d="M290.769,-183.328C391.996,-175.769 595.654,-159.981 768,-143 771.4,-142.665 774.881,-142.311 778.396,-141.944"/>
<polygon fill="midnightblue" stroke="midnightblue" points="778.777,-145.423 788.35,-140.883 778.035,-138.463 778.777,-145.423"/>
</g>
<!-- Node16&#45;&gt;Node9 -->
<g id="edge25" class="edge"><title>Node16&#45;&gt;Node9</title>
<path fill="none" stroke="midnightblue" d="M262.366,-179.469C323.735,-165.06 454.113,-136.186 566,-123 593.106,-119.805 1435.15,-83.228 1638.92,-74.4059"/>
<polygon fill="midnightblue" stroke="midnightblue" points="1639.13,-77.9005 1648.97,-73.9713 1638.82,-70.9071 1639.13,-77.9005"/>
</g>
<!-- Node16&#45;&gt;Node11 -->
<g id="edge24" class="edge"><title>Node16&#45;&gt;Node11</title>
<path fill="none" stroke="midnightblue" d="M211.768,-179.34C189.77,-166.846 147.817,-143.06 112,-123 89.4473,-110.369 63.6819,-96.0842 45.3378,-85.9387"/>
<polygon fill="midnightblue" stroke="midnightblue" points="46.923,-82.8158 36.4778,-81.0412 43.5366,-88.9422 46.923,-82.8158"/>
</g>
<!-- Node17 -->
<g id="node17" class="node"><title>Node17</title>
<polygon fill="white" stroke="#bfbfbf" points="203.5,-123.5 203.5,-142.5 250.5,-142.5 250.5,-123.5 203.5,-123.5"/>
<text text-anchor="middle" x="227" y="-130.5" font-family="Helvetica,sans-Serif" font-size="10.00">cstdlib</text>
</g>
<!-- Node16&#45;&gt;Node17 -->
<g id="edge23" class="edge"><title>Node16&#45;&gt;Node17</title>
<path fill="none" stroke="midnightblue" d="M227,-179.083C227,-172.006 227,-161.861 227,-152.986"/>
<polygon fill="midnightblue" stroke="midnightblue" points="230.5,-152.751 227,-142.751 223.5,-152.751 230.5,-152.751"/>
</g>
<!-- Node18&#45;&gt;Node3 -->
<g id="edge52" class="edge"><title>Node18&#45;&gt;Node3</title>
<path fill="none" stroke="midnightblue" d="M1169.6,-291.475C1144.11,-283.025 1113.18,-270.815 1088,-255 1046.19,-228.746 1049.99,-203.265 1007,-179 977.65,-162.434 941.777,-151.617 911.442,-144.752"/>
<polygon fill="midnightblue" stroke="midnightblue" points="911.899,-141.269 901.384,-142.572 910.416,-148.111 911.899,-141.269"/>
</g>
<!-- Node18&#45;&gt;Node4 -->
<g id="edge28" class="edge"><title>Node18&#45;&gt;Node4</title>
<path fill="none" stroke="midnightblue" d="M1261.81,-291.418C1278.69,-283.525 1296.33,-271.8 1306,-255 1336.74,-201.615 1308.61,-124.975 1292.92,-90.5032"/>
<polygon fill="midnightblue" stroke="midnightblue" points="1295.97,-88.7695 1288.52,-81.2312 1289.64,-91.7667 1295.97,-88.7695"/>
</g>
<!-- Node18&#45;&gt;Node5 -->
<g id="edge29" class="edge"><title>Node18&#45;&gt;Node5</title>
<path fill="none" stroke="midnightblue" d="M1162.31,-302.36C973.749,-291.884 379.383,-258.592 376,-255 334.298,-210.725 374.303,-133.102 398.525,-94.9545"/>
<polygon fill="midnightblue" stroke="midnightblue" points="401.458,-96.8648 403.996,-86.5785 395.597,-93.0368 401.458,-96.8648"/>
</g>
<!-- Node18&#45;&gt;Node9 -->
<g id="edge60" class="edge"><title>Node18&#45;&gt;Node9</title>
<path fill="none" stroke="midnightblue" d="M1275.63,-305.288C1333.22,-302.801 1423.37,-292.493 1491,-255 1560.6,-216.412 1552.35,-175.689 1612,-123 1627.25,-109.528 1646.08,-96.2687 1660.52,-86.7196"/>
<polygon fill="midnightblue" stroke="midnightblue" points="1662.81,-89.4019 1669.29,-81.0152 1658.99,-83.534 1662.81,-89.4019"/>
</g>
<!-- Node18&#45;&gt;Node10 -->
<g id="edge56" class="edge"><title>Node18&#45;&gt;Node10</title>
<path fill="none" stroke="midnightblue" d="M1275.6,-298.797C1336.52,-290.935 1436.01,-276.221 1520,-255 1696.19,-210.485 1729.28,-160.967 1907,-123 2098.95,-81.9939 2335.88,-74.2826 2420.82,-72.8343"/>
<polygon fill="midnightblue" stroke="midnightblue" points="2420.93,-76.3332 2430.87,-72.6807 2420.82,-69.334 2420.93,-76.3332"/>
</g>
<!-- Node18&#45;&gt;Node11 -->
<g id="edge59" class="edge"><title>Node18&#45;&gt;Node11</title>
<path fill="none" stroke="midnightblue" d="M1162.47,-302.306C974.317,-291.66 379.901,-257.885 360,-255 251.601,-239.284 216.851,-250.158 120,-199 87.4577,-181.811 81.6005,-172.046 59,-143 46.3576,-126.752 35.6277,-105.716 28.8271,-90.865"/>
<polygon fill="midnightblue" stroke="midnightblue" points="31.8436,-89.0319 24.5985,-81.3015 25.4415,-91.8628 31.8436,-89.0319"/>
</g>
<!-- Node18&#45;&gt;Node13 -->
<g id="edge51" class="edge"><title>Node18&#45;&gt;Node13</title>
<path fill="none" stroke="midnightblue" d="M1275.61,-298.79C1365.35,-288.154 1540.51,-267.392 1642.39,-255.318"/>
<polygon fill="midnightblue" stroke="midnightblue" points="1643.1,-258.758 1652.62,-254.105 1642.27,-251.807 1643.1,-258.758"/>
</g>
<!-- Node19 -->
<g id="node19" class="node"><title>Node19</title>
<g id="a_node19"><a xlink:href="runtime_2module_8h.html" target="_top" xlink:title="Runtime container of the functions generated by TVM, This is used to support dynamically link...">
<polygon fill="white" stroke="black" points="1157,-235.5 1157,-254.5 1281,-254.5 1281,-235.5 1157,-235.5"/>
<text text-anchor="middle" x="1219" y="-242.5" font-family="Helvetica,sans-Serif" font-size="10.00">tvm/runtime/module.h</text>
</a>
</g>
</g>
<!-- Node18&#45;&gt;Node19 -->
<g id="edge30" class="edge"><title>Node18&#45;&gt;Node19</title>
<path fill="none" stroke="midnightblue" d="M1213.16,-291.399C1212.13,-283.377 1211.97,-273.233 1212.69,-264.569"/>
<polygon fill="midnightblue" stroke="midnightblue" points="1216.16,-265.044 1214.07,-254.658 1209.23,-264.081 1216.16,-265.044"/>
</g>
<!-- Node21 -->
<g id="node21" class="node"><title>Node21</title>
<polygon fill="white" stroke="#bfbfbf" points="1195.5,-179.5 1195.5,-198.5 1252.5,-198.5 1252.5,-179.5 1195.5,-179.5"/>
<text text-anchor="middle" x="1224" y="-186.5" font-family="Helvetica,sans-Serif" font-size="10.00">memory</text>
</g>
<!-- Node18&#45;&gt;Node21 -->
<g id="edge58" class="edge"><title>Node18&#45;&gt;Node21</title>
<path fill="none" stroke="midnightblue" d="M1251.15,-291.336C1265.83,-283.034 1281.75,-270.997 1290,-255 1301.08,-233.519 1276.4,-214.857 1254.13,-203.108"/>
<polygon fill="midnightblue" stroke="midnightblue" points="1255.68,-199.968 1245.17,-198.656 1252.57,-206.238 1255.68,-199.968"/>
</g>
<!-- Node18&#45;&gt;Node22 -->
<g id="edge55" class="edge"><title>Node18&#45;&gt;Node22</title>
<path fill="none" stroke="midnightblue" d="M1162.23,-293.723C1129.64,-285.589 1088.64,-272.964 1055,-255 1030.49,-241.912 1006.29,-220.793 991.032,-206.197"/>
<polygon fill="midnightblue" stroke="midnightblue" points="993.126,-203.348 983.532,-198.852 988.228,-208.349 993.126,-203.348"/>
</g>
<!-- Node24 -->
<g id="node24" class="node"><title>Node24</title>
<g id="a_node24"><a xlink:href="ndarray_8h.html" target="_top" xlink:title="A device&#45;independent managed NDArray abstraction. ">
<polygon fill="white" stroke="black" points="385.5,-235.5 385.5,-254.5 508.5,-254.5 508.5,-235.5 385.5,-235.5"/>
<text text-anchor="middle" x="447" y="-242.5" font-family="Helvetica,sans-Serif" font-size="10.00">tvm/runtime/ndarray.h</text>
</a>
</g>
</g>
<!-- Node18&#45;&gt;Node24 -->
<g id="edge40" class="edge"><title>Node18&#45;&gt;Node24</title>
<path fill="none" stroke="midnightblue" d="M1162.23,-301.125C1024.21,-290.487 671.196,-263.279 518.817,-251.535"/>
<polygon fill="midnightblue" stroke="midnightblue" points="518.876,-248.029 508.636,-250.75 518.338,-255.009 518.876,-248.029"/>
</g>
<!-- Node27 -->
<g id="node27" class="node"><title>Node27</title>
<polygon fill="white" stroke="#bfbfbf" points="2095.5,-235.5 2095.5,-254.5 2158.5,-254.5 2158.5,-235.5 2095.5,-235.5"/>
<text text-anchor="middle" x="2127" y="-242.5" font-family="Helvetica,sans-Serif" font-size="10.00">functional</text>
</g>
<!-- Node18&#45;&gt;Node27 -->
<g id="edge53" class="edge"><title>Node18&#45;&gt;Node27</title>
<path fill="none" stroke="midnightblue" d="M1275.8,-301.778C1444.14,-290.747 1937.82,-258.397 2085.07,-248.747"/>
<polygon fill="midnightblue" stroke="midnightblue" points="2085.32,-252.239 2095.07,-248.093 2084.86,-245.254 2085.32,-252.239"/>
</g>
<!-- Node28 -->
<g id="node28" class="node"><title>Node28</title>
<polygon fill="white" stroke="#bfbfbf" points="1097.5,-235.5 1097.5,-254.5 1138.5,-254.5 1138.5,-235.5 1097.5,-235.5"/>
<text text-anchor="middle" x="1118" y="-242.5" font-family="Helvetica,sans-Serif" font-size="10.00">tuple</text>
</g>
<!-- Node18&#45;&gt;Node28 -->
<g id="edge54" class="edge"><title>Node18&#45;&gt;Node28</title>
<path fill="none" stroke="midnightblue" d="M1195.06,-291.399C1178.87,-281.862 1157.59,-269.325 1141.5,-259.842"/>
<polygon fill="midnightblue" stroke="midnightblue" points="1143.09,-256.718 1132.7,-254.658 1139.54,-262.749 1143.09,-256.718"/>
</g>
<!-- Node29 -->
<g id="node29" class="node"><title>Node29</title>
<polygon fill="white" stroke="#bfbfbf" points="1921,-235.5 1921,-254.5 1963,-254.5 1963,-235.5 1921,-235.5"/>
<text text-anchor="middle" x="1942" y="-242.5" font-family="Helvetica,sans-Serif" font-size="10.00">limits</text>
</g>
<!-- Node18&#45;&gt;Node29 -->
<g id="edge57" class="edge"><title>Node18&#45;&gt;Node29</title>
<path fill="none" stroke="midnightblue" d="M1275.73,-300.831C1420.22,-288.94 1798.56,-257.805 1910.42,-248.599"/>
<polygon fill="midnightblue" stroke="midnightblue" points="1911.01,-252.063 1920.69,-247.754 1910.43,-245.086 1911.01,-252.063"/>
</g>
<!-- Node19&#45;&gt;Node3 -->
<g id="edge33" class="edge"><title>Node19&#45;&gt;Node3</title>
<path fill="none" stroke="midnightblue" d="M1209.7,-235.399C1193.71,-221.152 1159.42,-192.856 1125,-179 1057.08,-151.655 973.487,-140.904 915.804,-136.689"/>
<polygon fill="midnightblue" stroke="midnightblue" points="915.919,-133.189 905.703,-135.999 915.441,-140.173 915.919,-133.189"/>
</g>
<!-- Node19&#45;&gt;Node5 -->
<g id="edge32" class="edge"><title>Node19&#45;&gt;Node5</title>
<path fill="none" stroke="midnightblue" d="M1156.98,-235.969C1153.6,-235.619 1150.26,-235.293 1147,-235 1074.18,-228.462 552.621,-236.73 490,-199 451.917,-176.054 430.541,-126.087 420.722,-96.2777"/>
<polygon fill="midnightblue" stroke="midnightblue" points="424.039,-95.1577 417.723,-86.6518 417.356,-97.2403 424.039,-95.1577"/>
</g>
<!-- Node19&#45;&gt;Node10 -->
<g id="edge37" class="edge"><title>Node19&#45;&gt;Node10</title>
<path fill="none" stroke="midnightblue" d="M1250.04,-235.44C1332.81,-212.977 1565.98,-152.082 1764,-123 2015.06,-86.1289 2321.74,-75.7096 2420.63,-73.2036"/>
<polygon fill="midnightblue" stroke="midnightblue" points="2420.95,-76.6969 2430.86,-72.9541 2420.78,-69.699 2420.95,-76.6969"/>
</g>
<!-- Node19&#45;&gt;Node16 -->
<g id="edge34" class="edge"><title>Node19&#45;&gt;Node16</title>
<path fill="none" stroke="midnightblue" d="M1156.98,-235.921C1153.61,-235.584 1150.26,-235.273 1147,-235 773.742,-203.744 678.402,-228.486 305,-199 303.701,-198.897 302.389,-198.79 301.069,-198.678"/>
<polygon fill="midnightblue" stroke="midnightblue" points="301.091,-195.166 290.814,-197.743 300.455,-202.137 301.091,-195.166"/>
</g>
<!-- Node19&#45;&gt;Node18 -->
<g id="edge39" class="edge"><title>Node19&#45;&gt;Node18</title>
<path fill="none" stroke="midnightblue" d="M1223.93,-254.658C1225.43,-261.655 1226.01,-271.857 1225.64,-281.289"/>
<polygon fill="midnightblue" stroke="midnightblue" points="1222.14,-281.153 1224.84,-291.399 1229.12,-281.709 1222.14,-281.153"/>
</g>
<!-- Node20 -->
<g id="node20" class="node"><title>Node20</title>
<polygon fill="white" stroke="#bfbfbf" points="699,-123.5 699,-142.5 759,-142.5 759,-123.5 699,-123.5"/>
<text text-anchor="middle" x="729" y="-130.5" font-family="Helvetica,sans-Serif" font-size="10.00">dmlc/io.h</text>
</g>
<!-- Node19&#45;&gt;Node20 -->
<g id="edge31" class="edge"><title>Node19&#45;&gt;Node20</title>
<path fill="none" stroke="midnightblue" d="M1195.14,-235.473C1156.2,-221.838 1076.39,-195.032 1007,-179 907.044,-155.907 880.156,-160.088 779,-143 775.782,-142.456 772.45,-141.882 769.104,-141.297"/>
<polygon fill="midnightblue" stroke="midnightblue" points="769.58,-137.827 759.123,-139.53 768.36,-144.72 769.58,-137.827"/>
</g>
<!-- Node19&#45;&gt;Node21 -->
<g id="edge35" class="edge"><title>Node19&#45;&gt;Node21</title>
<path fill="none" stroke="midnightblue" d="M1219.83,-235.083C1220.48,-228.006 1221.42,-217.861 1222.24,-208.986"/>
<polygon fill="midnightblue" stroke="midnightblue" points="1225.75,-209.031 1223.19,-198.751 1218.78,-208.386 1225.75,-209.031"/>
</g>
<!-- Node19&#45;&gt;Node22 -->
<g id="edge36" class="edge"><title>Node19&#45;&gt;Node22</title>
<path fill="none" stroke="midnightblue" d="M1180.34,-235.444C1132.96,-224.959 1053.48,-207.368 1008.56,-197.427"/>
<polygon fill="midnightblue" stroke="midnightblue" points="1009.25,-193.994 998.725,-195.251 1007.73,-200.829 1009.25,-193.994"/>
</g>
<!-- Node19&#45;&gt;Node23 -->
<g id="edge38" class="edge"><title>Node19&#45;&gt;Node23</title>
<path fill="none" stroke="midnightblue" d="M1281.22,-240.068C1307.4,-238.446 1338.18,-236.58 1366,-235 1668.6,-217.82 2031.23,-199.631 2169.07,-192.804"/>
<polygon fill="midnightblue" stroke="midnightblue" points="2169.57,-196.284 2179.38,-192.294 2169.22,-189.292 2169.57,-196.284"/>
</g>
<!-- Node24&#45;&gt;Node3 -->
<g id="edge42" class="edge"><title>Node24&#45;&gt;Node3</title>
<path fill="none" stroke="midnightblue" d="M495.257,-235.463C534.343,-227.877 590.517,-215.443 638,-199 657.917,-192.103 661.201,-186.228 681,-179 719.637,-164.895 764.757,-152.94 798.197,-144.905"/>
<polygon fill="midnightblue" stroke="midnightblue" points="799.256,-148.251 808.179,-142.54 797.642,-141.44 799.256,-148.251"/>
</g>
<!-- Node24&#45;&gt;Node5 -->
<g id="edge41" class="edge"><title>Node24&#45;&gt;Node5</title>
<path fill="none" stroke="midnightblue" d="M439.709,-235.375C432.934,-226.781 423.269,-212.897 419,-199 408.439,-164.623 409.336,-122.512 411.358,-96.5978"/>
<polygon fill="midnightblue" stroke="midnightblue" points="414.851,-96.8269 412.263,-86.5531 407.88,-96.1984 414.851,-96.8269"/>
</g>
<!-- Node24&#45;&gt;Node11 -->
<g id="edge50" class="edge"><title>Node24&#45;&gt;Node11</title>
<path fill="none" stroke="midnightblue" d="M385.254,-238.885C311.649,-232.035 193.614,-218.448 154,-199 100.544,-172.756 54.2597,-117.419 33.162,-89.4483"/>
<polygon fill="midnightblue" stroke="midnightblue" points="35.7516,-87.0629 26.9986,-81.0933 30.1184,-91.2184 35.7516,-87.0629"/>
</g>
<!-- Node24&#45;&gt;Node12 -->
<g id="edge48" class="edge"><title>Node24&#45;&gt;Node12</title>
<path fill="none" stroke="midnightblue" d="M451.449,-235.32C458.457,-222.171 473.033,-196.848 490,-179 538.54,-127.941 616.953,-97.0368 662.05,-82.5138"/>
<polygon fill="midnightblue" stroke="midnightblue" points="663.186,-85.8259 671.684,-79.4982 661.095,-79.1456 663.186,-85.8259"/>
</g>
<!-- Node24&#45;&gt;Node22 -->
<g id="edge49" class="edge"><title>Node24&#45;&gt;Node22</title>
<path fill="none" stroke="midnightblue" d="M508.602,-237.7C620.631,-226.242 854.185,-202.356 941.289,-193.448"/>
<polygon fill="midnightblue" stroke="midnightblue" points="941.812,-196.913 951.404,-192.413 941.1,-189.949 941.812,-196.913"/>
</g>
<!-- Node25 -->
<g id="node25" class="node"><title>Node25</title>
<g id="a_node25"><a xlink:href="serializer_8h.html" target="_top" xlink:title="Serializer extension to support TVM data types Include this file to enable serialization of DLDataTyp...">
<polygon fill="white" stroke="black" points="499,-179.5 499,-198.5 629,-198.5 629,-179.5 499,-179.5"/>
<text text-anchor="middle" x="564" y="-186.5" font-family="Helvetica,sans-Serif" font-size="10.00">tvm/runtime/serializer.h</text>
</a>
</g>
</g>
<!-- Node24&#45;&gt;Node25 -->
<g id="edge43" class="edge"><title>Node24&#45;&gt;Node25</title>
<path fill="none" stroke="midnightblue" d="M460.683,-235.324C477.878,-226.507 507.441,-212.753 530.64,-202.707"/>
<polygon fill="midnightblue" stroke="midnightblue" points="532.314,-205.798 540.138,-198.655 529.567,-199.36 532.314,-205.798"/>
</g>
<!-- Node25&#45;&gt;Node5 -->
<g id="edge46" class="edge"><title>Node25&#45;&gt;Node5</title>
<path fill="none" stroke="midnightblue" d="M552.726,-179.319C529.084,-161.115 473.77,-118.523 440.572,-92.9606"/>
<polygon fill="midnightblue" stroke="midnightblue" points="442.299,-89.8731 432.241,-86.5453 438.029,-95.4194 442.299,-89.8731"/>
</g>
<!-- Node25&#45;&gt;Node20 -->
<g id="edge44" class="edge"><title>Node25&#45;&gt;Node20</title>
<path fill="none" stroke="midnightblue" d="M590.145,-179.444C618.023,-170.32 662.348,-155.813 693.4,-145.651"/>
<polygon fill="midnightblue" stroke="midnightblue" points="694.562,-148.953 702.978,-142.516 692.385,-142.3 694.562,-148.953"/>
</g>
<!-- Node25&#45;&gt;Node24 -->
<g id="edge47" class="edge"><title>Node25&#45;&gt;Node24</title>
<path fill="none" stroke="midnightblue" d="M550.628,-198.516C533.36,-207.388 503.284,-221.38 479.874,-231.503"/>
<polygon fill="midnightblue" stroke="midnightblue" points="478.455,-228.303 470.628,-235.444 481.199,-234.743 478.455,-228.303"/>
</g>
<!-- Node26 -->
<g id="node26" class="node"><title>Node26</title>
<polygon fill="white" stroke="#bfbfbf" points="575,-123.5 575,-142.5 669,-142.5 669,-123.5 575,-123.5"/>
<text text-anchor="middle" x="622" y="-130.5" font-family="Helvetica,sans-Serif" font-size="10.00">dmlc/serializer.h</text>
</g>
<!-- Node25&#45;&gt;Node26 -->
<g id="edge45" class="edge"><title>Node25&#45;&gt;Node26</title>
<path fill="none" stroke="midnightblue" d="M573.319,-179.324C581.893,-171.341 594.812,-159.313 605.188,-149.653"/>
<polygon fill="midnightblue" stroke="midnightblue" points="607.578,-152.21 612.512,-142.834 602.808,-147.086 607.578,-152.21"/>
</g>
<!-- Node32&#45;&gt;Node3 -->
<g id="edge71" class="edge"><title>Node32&#45;&gt;Node3</title>
<path fill="none" stroke="midnightblue" d="M1147.22,-537.347C1128.57,-521.342 1086.01,-487.184 1044,-470 896.324,-409.6 815.343,-485.011 697,-378 666.97,-350.846 655.954,-328.971 670,-291 681.373,-260.256 692.462,-255.551 718,-235 744.336,-213.807 758.11,-219.486 785,-199 803.697,-184.756 821.869,-164.754 833.653,-150.711"/>
<polygon fill="midnightblue" stroke="midnightblue" points="836.473,-152.792 840.113,-142.842 831.063,-148.351 836.473,-152.792"/>
</g>
<!-- Node32&#45;&gt;Node5 -->
<g id="edge70" class="edge"><title>Node32&#45;&gt;Node5</title>
<path fill="none" stroke="midnightblue" d="M1097.4,-539.994C1043.08,-533.556 961.029,-521.403 892,-501 858.589,-491.125 853.391,-479.942 820,-470 730.502,-443.353 703.655,-456.396 613,-434 455.673,-395.132 402.244,-409.75 266,-322 198.13,-278.287 129.363,-255.878 154,-179 163.334,-149.873 168.552,-139.968 194,-123 237.194,-94.1982 294.6,-81.6821 339.941,-76.3092"/>
<polygon fill="midnightblue" stroke="midnightblue" points="340.449,-79.7746 350.01,-75.2088 339.689,-72.816 340.449,-79.7746"/>
</g>
<!-- Node32&#45;&gt;Node9 -->
<g id="edge104" class="edge"><title>Node32&#45;&gt;Node9</title>
<path fill="none" stroke="midnightblue" d="M1215.76,-537.464C1291.83,-526.277 1417.17,-507.334 1438,-501 1563,-462.983 1901.54,-365.029 1972,-255 2036.14,-154.831 1822.66,-99.6385 1726.98,-80.4013"/>
<polygon fill="midnightblue" stroke="midnightblue" points="1727.5,-76.9361 1717.01,-78.4413 1726.15,-83.8046 1727.5,-76.9361"/>
</g>
<!-- Node32&#45;&gt;Node10 -->
<g id="edge103" class="edge"><title>Node32&#45;&gt;Node10</title>
<path fill="none" stroke="midnightblue" d="M1216.57,-546.212C1378.24,-546.226 1822.43,-542.383 1962,-501 2172.72,-438.52 2229.83,-404.435 2391,-255 2413.06,-234.55 2417.51,-226.798 2429,-199 2444.03,-162.632 2449.74,-116.463 2451.84,-91.1703"/>
<polygon fill="midnightblue" stroke="midnightblue" points="2455.33,-91.3562 2452.57,-81.1284 2448.35,-90.8476 2455.33,-91.3562"/>
</g>
<!-- Node32&#45;&gt;Node13 -->
<g id="edge75" class="edge"><title>Node32&#45;&gt;Node13</title>
<path fill="none" stroke="midnightblue" d="M1201.61,-537.465C1307.08,-516.674 1563,-462.373 1563,-425 1563,-425 1563,-425 1563,-367 1563,-308.133 1632.99,-274.026 1679.8,-257.797"/>
<polygon fill="midnightblue" stroke="midnightblue" points="1681.02,-261.079 1689.41,-254.602 1678.81,-254.437 1681.02,-261.079"/>
</g>
<!-- Node32&#45;&gt;Node16 -->
<g id="edge72" class="edge"><title>Node32&#45;&gt;Node16</title>
<path fill="none" stroke="midnightblue" d="M1128.59,-537.417C1070.12,-519.827 937.968,-480.461 892,-470 798.811,-448.794 771.882,-460.298 680,-434 553.915,-397.913 526.864,-375.218 407,-322 375.477,-308.004 292.638,-278.071 267,-255 252.417,-241.877 241.322,-222.19 234.559,-207.923"/>
<polygon fill="midnightblue" stroke="midnightblue" points="237.693,-206.359 230.412,-198.663 231.305,-209.22 237.693,-206.359"/>
</g>
<!-- Node32&#45;&gt;Node18 -->
<g id="edge73" class="edge"><title>Node32&#45;&gt;Node18</title>
<path fill="none" stroke="midnightblue" d="M1159.28,-537.229C1167.97,-503.805 1199.19,-383.692 1212.7,-331.734"/>
<polygon fill="midnightblue" stroke="midnightblue" points="1216.17,-332.296 1215.3,-321.737 1209.4,-330.534 1216.17,-332.296"/>
</g>
<!-- Node32&#45;&gt;Node22 -->
<g id="edge102" class="edge"><title>Node32&#45;&gt;Node22</title>
<path fill="none" stroke="midnightblue" d="M1154.19,-537.253C1142.8,-502.853 1097.38,-374.658 1027,-291 1009.83,-270.594 991.653,-278.474 979,-255 971.372,-240.849 970.984,-222.366 972.146,-208.728"/>
<polygon fill="midnightblue" stroke="midnightblue" points="975.643,-208.96 973.362,-198.613 968.693,-208.124 975.643,-208.96"/>
</g>
<!-- Node32&#45;&gt;Node24 -->
<g id="edge74" class="edge"><title>Node32&#45;&gt;Node24</title>
<path fill="none" stroke="midnightblue" d="M1134.41,-537.356C1113.2,-528.959 1080.82,-515.398 1054,-501 1031.62,-488.988 1029.78,-478.904 1006,-470 900.869,-430.641 864.732,-461.91 756,-434 687.477,-416.411 668.23,-413.437 607,-378 548.532,-344.161 489.837,-289.035 462.643,-261.99"/>
<polygon fill="midnightblue" stroke="midnightblue" points="464.783,-259.177 455.251,-254.553 459.818,-264.112 464.783,-259.177"/>
</g>
<!-- Node32&#45;&gt;Node33 -->
<g id="edge76" class="edge"><title>Node32&#45;&gt;Node33</title>
<path fill="none" stroke="midnightblue" d="M1216.72,-540.814C1304.22,-533.062 1472.35,-517.579 1615,-501 1628.68,-499.41 1643.32,-497.551 1657.27,-495.705"/>
<polygon fill="midnightblue" stroke="midnightblue" points="1657.82,-499.161 1667.27,-494.367 1656.9,-492.223 1657.82,-499.161"/>
</g>
<!-- Node32&#45;&gt;Node36 -->
<g id="edge96" class="edge"><title>Node32&#45;&gt;Node36</title>
<path fill="none" stroke="midnightblue" d="M1216.6,-542.91C1328.54,-536.846 1577.8,-522.117 1787,-501 1801.69,-499.517 1817.44,-497.638 1832.32,-495.727"/>
<polygon fill="midnightblue" stroke="midnightblue" points="1833,-499.168 1842.46,-494.404 1832.09,-492.227 1833,-499.168"/>
</g>
<!-- Node33&#45;&gt;Node10 -->
<g id="edge95" class="edge"><title>Node33&#45;&gt;Node10</title>
<path fill="none" stroke="midnightblue" d="M1744.03,-470.48C1774.38,-450.214 1832.17,-411.488 1881,-378 1972.62,-315.175 1983.5,-277.832 2086,-235 2167.32,-201.019 2200.12,-233.996 2281,-199 2314.38,-184.556 2397.68,-117.906 2434.73,-87.5888"/>
<polygon fill="midnightblue" stroke="midnightblue" points="2437.19,-90.0948 2442.7,-81.0435 2432.75,-84.6851 2437.19,-90.0948"/>
</g>
<!-- Node33&#45;&gt;Node13 -->
<g id="edge77" class="edge"><title>Node33&#45;&gt;Node13</title>
<path fill="none" stroke="midnightblue" d="M1731.94,-470.382C1751.41,-437.714 1793.85,-354.829 1767,-291 1761.97,-279.053 1752.06,-268.692 1742.71,-260.934"/>
<polygon fill="midnightblue" stroke="midnightblue" points="1744.84,-258.155 1734.79,-254.811 1740.56,-263.694 1744.84,-258.155"/>
</g>
<!-- Node34 -->
<g id="node34" class="node"><title>Node34</title>
<g id="a_node34"><a xlink:href="functor_8h.html" target="_top" xlink:title="Defines the Functor data structures. ">
<polygon fill="white" stroke="black" points="1375.5,-235.5 1375.5,-254.5 1482.5,-254.5 1482.5,-235.5 1375.5,-235.5"/>
<text text-anchor="middle" x="1429" y="-242.5" font-family="Helvetica,sans-Serif" font-size="10.00">tvm/node/functor.h</text>
</a>
</g>
</g>
<!-- Node33&#45;&gt;Node34 -->
<g id="edge78" class="edge"><title>Node33&#45;&gt;Node34</title>
<path fill="none" stroke="midnightblue" d="M1705.49,-470.295C1653.61,-428.213 1501.04,-304.441 1447.68,-261.155"/>
<polygon fill="midnightblue" stroke="midnightblue" points="1449.7,-258.284 1439.73,-254.702 1445.29,-263.72 1449.7,-258.284"/>
</g>
<!-- Node33&#45;&gt;Node35 -->
<g id="edge84" class="edge"><title>Node33&#45;&gt;Node35</title>
<path fill="none" stroke="midnightblue" d="M1667.49,-480.387C1524.98,-469.827 1146.43,-441.778 989.58,-430.156"/>
<polygon fill="midnightblue" stroke="midnightblue" points="989.806,-426.663 979.574,-429.414 989.288,-433.644 989.806,-426.663"/>
</g>
<!-- Node34&#45;&gt;Node3 -->
<g id="edge80" class="edge"><title>Node34&#45;&gt;Node3</title>
<path fill="none" stroke="midnightblue" d="M1411.35,-235.393C1381.27,-221.137 1317.82,-192.828 1261,-179 1141.81,-149.994 998.75,-139.669 915.821,-136.005"/>
<polygon fill="midnightblue" stroke="midnightblue" points="915.903,-132.505 905.764,-135.58 915.607,-139.499 915.903,-132.505"/>
</g>
<!-- Node34&#45;&gt;Node4 -->
<g id="edge79" class="edge"><title>Node34&#45;&gt;Node4</title>
<path fill="none" stroke="midnightblue" d="M1421.61,-235.26C1398.63,-208.076 1328.14,-124.708 1297.96,-89.0059"/>
<polygon fill="midnightblue" stroke="midnightblue" points="1300.33,-86.396 1291.2,-81.0194 1294.99,-90.9155 1300.33,-86.396"/>
</g>
<!-- Node34&#45;&gt;Node9 -->
<g id="edge82" class="edge"><title>Node34&#45;&gt;Node9</title>
<path fill="none" stroke="midnightblue" d="M1434.36,-235.308C1448.34,-213.312 1488.19,-154.927 1536,-123 1567.35,-102.063 1608.26,-88.9375 1638.96,-81.3335"/>
<polygon fill="midnightblue" stroke="midnightblue" points="1640.03,-84.677 1648.96,-78.9632 1638.42,-77.8661 1640.03,-84.677"/>
</g>
<!-- Node34&#45;&gt;Node11 -->
<g id="edge83" class="edge"><title>Node34&#45;&gt;Node11</title>
<path fill="none" stroke="midnightblue" d="M1375.22,-240.27C1349.44,-238.546 1318.13,-236.543 1290,-235 934.619,-215.501 840.075,-263.213 490,-199 383.693,-179.501 363.351,-151.147 259,-123 185.601,-103.202 97.7699,-86.2806 52.0794,-77.9771"/>
<polygon fill="midnightblue" stroke="midnightblue" points="52.6582,-74.5251 42.196,-76.1962 51.4168,-81.4142 52.6582,-74.5251"/>
</g>
<!-- Node34&#45;&gt;Node22 -->
<g id="edge81" class="edge"><title>Node34&#45;&gt;Node22</title>
<path fill="none" stroke="midnightblue" d="M1375.14,-237.593C1280.47,-226.333 1086.89,-203.309 1008.79,-194.019"/>
<polygon fill="midnightblue" stroke="midnightblue" points="1008.9,-190.508 998.557,-192.802 1008.07,-197.459 1008.9,-190.508"/>
</g>
<!-- Node35&#45;&gt;Node3 -->
<g id="edge85" class="edge"><title>Node35&#45;&gt;Node3</title>
<path fill="none" stroke="midnightblue" d="M860.437,-420.422C797.847,-413.92 704.814,-392.291 678,-322 647.88,-243.042 769.891,-264.734 823,-199 833.857,-185.562 840.085,-166.746 843.462,-152.814"/>
<polygon fill="midnightblue" stroke="midnightblue" points="846.917,-153.397 845.592,-142.885 840.072,-151.928 846.917,-153.397"/>
</g>
<!-- Node35&#45;&gt;Node9 -->
<g id="edge89" class="edge"><title>Node35&#45;&gt;Node9</title>
<path fill="none" stroke="midnightblue" d="M974.672,-414.496C1162.49,-385.032 1771.25,-287.35 1798,-255 1845.65,-197.366 1748.99,-118.603 1704.16,-86.7407"/>
<polygon fill="midnightblue" stroke="midnightblue" points="1706.15,-83.8603 1695.95,-81.0137 1702.15,-89.6031 1706.15,-83.8603"/>
</g>
<!-- Node35&#45;&gt;Node10 -->
<g id="edge94" class="edge"><title>Node35&#45;&gt;Node10</title>
<path fill="none" stroke="midnightblue" d="M979.644,-416.253C1050.79,-408.032 1173.25,-393.332 1278,-378 1427.36,-356.138 1465.92,-355.999 1613,-322 1654.71,-312.359 2272.51,-126.772 2421.06,-82.1076"/>
<polygon fill="midnightblue" stroke="midnightblue" points="2422.36,-85.3711 2430.93,-79.1396 2420.34,-78.6676 2422.36,-85.3711"/>
</g>
<!-- Node35&#45;&gt;Node11 -->
<g id="edge93" class="edge"><title>Node35&#45;&gt;Node11</title>
<path fill="none" stroke="midnightblue" d="M860.339,-420.93C725.092,-414.006 388.003,-384.057 144,-255 81.4933,-221.939 52.9987,-210.202 31,-143 25.4769,-126.128 23.0035,-106 21.8963,-91.578"/>
<polygon fill="midnightblue" stroke="midnightblue" points="25.378,-91.1723 21.2691,-81.4067 18.3913,-91.6032 25.378,-91.1723"/>
</g>
<!-- Node35&#45;&gt;Node15 -->
<g id="edge88" class="edge"><title>Node35&#45;&gt;Node15</title>
<path fill="none" stroke="midnightblue" d="M901.461,-414.444C882.377,-405.636 852.425,-391.812 830.564,-381.722"/>
<polygon fill="midnightblue" stroke="midnightblue" points="831.999,-378.529 821.452,-377.516 829.065,-384.885 831.999,-378.529"/>
</g>
<!-- Node35&#45;&gt;Node16 -->
<g id="edge86" class="edge"><title>Node35&#45;&gt;Node16</title>
<path fill="none" stroke="midnightblue" d="M860.316,-416.524C804.152,-409.659 718.004,-397.134 645,-378 536.056,-349.447 513.423,-327.854 407,-291 358.392,-274.167 341.322,-281.108 297,-255 275.021,-242.053 254.184,-221.199 241.05,-206.614"/>
<polygon fill="midnightblue" stroke="midnightblue" points="243.479,-204.074 234.257,-198.857 238.213,-208.686 243.479,-204.074"/>
</g>
<!-- Node35&#45;&gt;Node18 -->
<g id="edge87" class="edge"><title>Node35&#45;&gt;Node18</title>
<path fill="none" stroke="midnightblue" d="M942.474,-414.319C991.304,-395.456 1107.92,-350.41 1173.04,-325.256"/>
<polygon fill="midnightblue" stroke="midnightblue" points="1174.57,-328.414 1182.64,-321.545 1172.05,-321.884 1174.57,-328.414"/>
</g>
<!-- Node35&#45;&gt;Node22 -->
<g id="edge90" class="edge"><title>Node35&#45;&gt;Node22</title>
<path fill="none" stroke="midnightblue" d="M926.299,-414.497C941.544,-392.798 977.557,-334.051 955,-291 941.954,-266.102 916.046,-279.898 903,-255 898.875,-247.126 898.691,-242.775 903,-235 911.382,-219.876 927.2,-209.164 941.88,-201.996"/>
<polygon fill="midnightblue" stroke="midnightblue" points="943.578,-205.07 951.272,-197.786 940.715,-198.682 943.578,-205.07"/>
</g>
<!-- Node35&#45;&gt;Node23 -->
<g id="edge92" class="edge"><title>Node35&#45;&gt;Node23</title>
<path fill="none" stroke="midnightblue" d="M979.783,-420.238C1074.63,-415.281 1265.2,-402.974 1425,-378 1671.19,-339.524 1729.72,-313.228 1972,-255 2046.94,-236.989 2133.88,-214.366 2184.15,-201.112"/>
<polygon fill="midnightblue" stroke="midnightblue" points="2185.22,-204.448 2194,-198.511 2183.44,-197.68 2185.22,-204.448"/>
</g>
<!-- Node35&#45;&gt;Node31 -->
<g id="edge91" class="edge"><title>Node35&#45;&gt;Node31</title>
<path fill="none" stroke="midnightblue" d="M919.098,-414.319C917.17,-395.757 912.607,-351.839 909.971,-326.473"/>
<polygon fill="midnightblue" stroke="midnightblue" points="913.427,-325.867 908.912,-316.282 906.465,-326.59 913.427,-325.867"/>
</g>
<!-- Node36&#45;&gt;Node10 -->
<g id="edge100" class="edge"><title>Node36&#45;&gt;Node10</title>
<path fill="none" stroke="midnightblue" d="M1919,-470.495C1980.42,-429.465 2164.8,-305.709 2315,-199 2349.2,-174.7 2360.08,-171.361 2391,-143 2409.48,-126.054 2428.13,-104.021 2440.08,-89.1313"/>
<polygon fill="midnightblue" stroke="midnightblue" points="2442.83,-91.2967 2446.29,-81.2824 2437.34,-86.9538 2442.83,-91.2967"/>
</g>
<!-- Node36&#45;&gt;Node13 -->
<g id="edge97" class="edge"><title>Node36&#45;&gt;Node13</title>
<path fill="none" stroke="midnightblue" d="M1893.37,-470.144C1885.21,-445.928 1866.86,-395.899 1843,-358 1822.02,-324.669 1814.22,-317.413 1785,-291 1772.27,-279.492 1756.52,-268.383 1743.83,-260.082"/>
<polygon fill="midnightblue" stroke="midnightblue" points="1745.52,-257.012 1735.21,-254.568 1741.75,-262.907 1745.52,-257.012"/>
</g>
<!-- Node36&#45;&gt;Node27 -->
<g id="edge101" class="edge"><title>Node36&#45;&gt;Node27</title>
<path fill="none" stroke="midnightblue" d="M1907.69,-470.167C1931.02,-436.332 1993.26,-349.916 2059,-291 2072.28,-279.101 2088.95,-268.019 2102.46,-259.83"/>
<polygon fill="midnightblue" stroke="midnightblue" points="2104.4,-262.749 2111.23,-254.648 2100.84,-256.722 2104.4,-262.749"/>
</g>
<!-- Node36&#45;&gt;Node34 -->
<g id="edge98" class="edge"><title>Node36&#45;&gt;Node34</title>
<path fill="none" stroke="midnightblue" d="M1870.36,-470.391C1807.7,-438.415 1650.04,-357.999 1518,-291 1496.9,-280.291 1472.95,-268.189 1455.22,-259.234"/>
<polygon fill="midnightblue" stroke="midnightblue" points="1456.57,-255.995 1446.07,-254.612 1453.42,-262.244 1456.57,-255.995"/>
</g>
<!-- Node36&#45;&gt;Node35 -->
<g id="edge99" class="edge"><title>Node36&#45;&gt;Node35</title>
<path fill="none" stroke="midnightblue" d="M1842.48,-476.383C1824.78,-474.028 1805.1,-471.649 1787,-470 1491.27,-443.051 1137.2,-430.929 989.76,-426.774"/>
<polygon fill="midnightblue" stroke="midnightblue" points="989.598,-423.268 979.505,-426.488 989.404,-430.265 989.598,-423.268"/>
</g>
<!-- Node37&#45;&gt;Node34 -->
<g id="edge106" class="edge"><title>Node37&#45;&gt;Node34</title>
<path fill="none" stroke="midnightblue" d="M819.528,-537.378C885.427,-508.196 1105.46,-410.04 1284,-322 1326.6,-300.995 1375.37,-275.028 1404.1,-259.528"/>
<polygon fill="midnightblue" stroke="midnightblue" points="1405.91,-262.531 1413.04,-254.695 1402.58,-256.373 1405.91,-262.531"/>
</g>
<!-- Node38 -->
<g id="node38" class="node"><title>Node38</title>
<polygon fill="white" stroke="#bfbfbf" points="752.5,-476 752.5,-495 811.5,-495 811.5,-476 752.5,-476"/>
<text text-anchor="middle" x="782" y="-483" font-family="Helvetica,sans-Serif" font-size="10.00">iostream</text>
</g>
<!-- Node37&#45;&gt;Node38 -->
<g id="edge107" class="edge"><title>Node37&#45;&gt;Node38</title>
<path fill="none" stroke="midnightblue" d="M797.421,-537.475C794.855,-528.992 790.835,-515.704 787.543,-504.822"/>
<polygon fill="midnightblue" stroke="midnightblue" points="790.82,-503.567 784.574,-495.009 784.12,-505.594 790.82,-503.567"/>
</g>
<!-- Node39&#45;&gt;Node3 -->
<g id="edge117" class="edge"><title>Node39&#45;&gt;Node3</title>
<path fill="none" stroke="midnightblue" d="M1989.32,-649.436C2037.92,-629.164 2149,-573.331 2149,-486.5 2149,-486.5 2149,-486.5 2149,-423 2149,-339.062 2223.86,-296.744 2167,-235 2081.68,-142.353 1174.72,-134.314 915.71,-133.918"/>
<polygon fill="midnightblue" stroke="midnightblue" points="915.684,-130.418 905.68,-133.906 915.676,-137.418 915.684,-130.418"/>
</g>
<!-- Node39&#45;&gt;Node10 -->
<g id="edge119" class="edge"><title>Node39&#45;&gt;Node10</title>
<path fill="none" stroke="midnightblue" d="M1994.52,-649.416C2019.45,-641.256 2056.93,-628.023 2088,-613 2269.51,-525.25 2323.62,-510.003 2476,-378 2563.05,-302.597 2581.25,-221.75 2522,-123 2512.48,-107.128 2495.86,-94.7377 2481.32,-86.2022"/>
<polygon fill="midnightblue" stroke="midnightblue" points="2482.61,-82.9154 2472.16,-81.152 2479.23,-89.0454 2482.61,-82.9154"/>
</g>
<!-- Node39&#45;&gt;Node14 -->
<g id="edge118" class="edge"><title>Node39&#45;&gt;Node14</title>
<path fill="none" stroke="midnightblue" d="M1926.86,-655.982C1763.28,-647.757 1146.44,-616.743 952.051,-606.969"/>
<polygon fill="midnightblue" stroke="midnightblue" points="952.191,-603.472 942.028,-606.465 951.839,-610.463 952.191,-603.472"/>
</g>
<!-- Node40&#45;&gt;Node2 -->
<g id="edge126" class="edge"><title>Node40&#45;&gt;Node2</title>
<path fill="none" stroke="midnightblue" d="M1928.5,-763.379C1871.41,-753.561 1764.35,-735.15 1701.83,-724.397"/>
<polygon fill="midnightblue" stroke="midnightblue" points="1702.27,-720.921 1691.82,-722.676 1701.08,-727.82 1702.27,-720.921"/>
</g>
<!-- Node40&#45;&gt;Node3 -->
<g id="edge122" class="edge"><title>Node40&#45;&gt;Node3</title>
<path fill="none" stroke="midnightblue" d="M1962.34,-761.318C1938.83,-717.622 1832.46,-521.824 1787,-470 1676.23,-343.726 1639.8,-312.936 1491,-235 1414.9,-195.141 1390.26,-195.716 1306,-179 1169.12,-151.847 1005.88,-140.808 915.607,-136.528"/>
<polygon fill="midnightblue" stroke="midnightblue" points="915.652,-133.027 905.501,-136.063 915.33,-140.019 915.652,-133.027"/>
</g>
<!-- Node40&#45;&gt;Node9 -->
<g id="edge130" class="edge"><title>Node40&#45;&gt;Node9</title>
<path fill="none" stroke="midnightblue" d="M1998.14,-761.439C2022.94,-753.877 2058.03,-741.486 2086,-725 2119.14,-705.467 2126.47,-697.781 2152,-669 2301.43,-500.518 2425.44,-351.774 2281,-179 2210.03,-94.1109 1853.58,-76.8306 1727.38,-73.3591"/>
<polygon fill="midnightblue" stroke="midnightblue" points="1727.38,-69.858 1717.29,-73.0978 1727.19,-76.8557 1727.38,-69.858"/>
</g>
<!-- Node40&#45;&gt;Node10 -->
<g id="edge127" class="edge"><title>Node40&#45;&gt;Node10</title>
<path fill="none" stroke="midnightblue" d="M2001.44,-761.446C2144.06,-725.036 2681,-577.814 2681,-425 2681,-425 2681,-425 2681,-188 2681,-157.205 2679.95,-143.534 2657,-123 2608.77,-79.8482 2529.44,-72.2501 2485.26,-71.6534"/>
<polygon fill="midnightblue" stroke="midnightblue" points="2485.09,-68.1531 2475.09,-71.6325 2485.08,-75.1531 2485.09,-68.1531"/>
</g>
<!-- Node40&#45;&gt;Node14 -->
<g id="edge123" class="edge"><title>Node40&#45;&gt;Node14</title>
<path fill="none" stroke="midnightblue" d="M1931.88,-761.463C1894.66,-752.417 1834.19,-737.712 1782,-725 1745.55,-716.122 1736.86,-711.974 1700,-705 1422.81,-652.553 1086.74,-620.451 952.534,-608.883"/>
<polygon fill="midnightblue" stroke="midnightblue" points="952.723,-605.387 942.461,-608.021 952.126,-612.361 952.723,-605.387"/>
</g>
<!-- Node40&#45;&gt;Node29 -->
<g id="edge129" class="edge"><title>Node40&#45;&gt;Node29</title>
<path fill="none" stroke="midnightblue" d="M1987.3,-761.416C2041.77,-736.878 2187,-660.863 2187,-548 2187,-548 2187,-548 2187,-423 2187,-318.65 2039.16,-269.613 1973.17,-252.922"/>
<polygon fill="midnightblue" stroke="midnightblue" points="1973.86,-249.488 1963.31,-250.517 1972.2,-256.288 1973.86,-249.488"/>
</g>
<!-- Node40&#45;&gt;Node35 -->
<g id="edge124" class="edge"><title>Node40&#45;&gt;Node35</title>
<path fill="none" stroke="midnightblue" d="M1936.91,-761.419C1906.18,-752.578 1857.14,-738.256 1815,-725 1788.19,-716.565 1782.09,-712.499 1755,-705 1608.68,-664.495 1225.23,-621.966 1088,-557 1024.53,-526.953 963.06,-469.16 935.341,-441.089"/>
<polygon fill="midnightblue" stroke="midnightblue" points="937.632,-438.425 928.149,-433.7 932.616,-443.307 937.632,-438.425"/>
</g>
<!-- Node40&#45;&gt;Node39 -->
<g id="edge125" class="edge"><title>Node40&#45;&gt;Node39</title>
<path fill="none" stroke="midnightblue" d="M1967,-761.368C1967,-743.617 1967,-702.666 1967,-678.597"/>
<polygon fill="midnightblue" stroke="midnightblue" points="1970.5,-678.591 1967,-668.591 1963.5,-678.591 1970.5,-678.591"/>
</g>
<!-- Node41 -->
<g id="node41" class="node"><title>Node41</title>
<polygon fill="white" stroke="#bfbfbf" points="1824,-705.5 1824,-724.5 1886,-724.5 1886,-705.5 1824,-705.5"/>
<text text-anchor="middle" x="1855" y="-712.5" font-family="Helvetica,sans-Serif" font-size="10.00">algorithm</text>
</g>
<!-- Node40&#45;&gt;Node41 -->
<g id="edge128" class="edge"><title>Node40&#45;&gt;Node41</title>
<path fill="none" stroke="midnightblue" d="M1949.01,-761.324C1930.96,-752.625 1902.95,-739.12 1882.2,-729.113"/>
<polygon fill="midnightblue" stroke="midnightblue" points="1883.48,-725.845 1872.95,-724.655 1880.44,-732.15 1883.48,-725.845"/>
</g>
<!-- Node42&#45;&gt;Node9 -->
<g id="edge146" class="edge"><title>Node42&#45;&gt;Node9</title>
<path fill="none" stroke="midnightblue" d="M2200.52,-880.462C2316.57,-875.419 2605,-854.58 2605,-772 2605,-772 2605,-772 2605,-546 2605,-299.994 2478.85,-208.024 2248,-123 2152.56,-87.8482 1843.32,-76.5451 1727.41,-73.49"/>
<polygon fill="midnightblue" stroke="midnightblue" points="1727.22,-69.9841 1717.14,-73.2276 1727.04,-76.9818 1727.22,-69.9841"/>
</g>
<!-- Node42&#45;&gt;Node10 -->
<g id="edge147" class="edge"><title>Node42&#45;&gt;Node10</title>
<path fill="none" stroke="midnightblue" d="M2200.69,-882.097C2304.63,-881.562 2547.94,-876.042 2619,-837 2706.42,-788.965 2757,-759.751 2757,-660 2757,-660 2757,-660 2757,-188 2757,-153.115 2742.11,-142.228 2713,-123 2675.9,-98.493 2546.48,-82.1937 2485.39,-75.6869"/>
<polygon fill="midnightblue" stroke="midnightblue" points="2485.47,-72.1763 2475.16,-74.6211 2484.75,-79.1386 2485.47,-72.1763"/>
</g>
<!-- Node42&#45;&gt;Node15 -->
<g id="edge145" class="edge"><title>Node42&#45;&gt;Node15</title>
<path fill="none" stroke="midnightblue" d="M2105.27,-881.765C1813.12,-880.019 279,-866.36 279,-772 279,-772 279,-772 279,-602 279,-408.397 581.345,-374.477 726.712,-369.356"/>
<polygon fill="midnightblue" stroke="midnightblue" points="727.016,-372.849 736.901,-369.036 726.795,-365.852 727.016,-372.849"/>
</g>
<!-- Node42&#45;&gt;Node40 -->
<g id="edge132" class="edge"><title>Node42&#45;&gt;Node40</title>
<path fill="none" stroke="midnightblue" d="M2138.4,-873.368C2106.35,-854.412 2029.56,-809.001 1990.58,-785.942"/>
<polygon fill="midnightblue" stroke="midnightblue" points="1991.92,-782.669 1981.53,-780.591 1988.35,-788.694 1991.92,-782.669"/>
</g>
<!-- Node43 -->
<g id="node43" class="node"><title>Node43</title>
<g id="a_node43"><a xlink:href="ir_2attrs_8h.html" target="_top" xlink:title="Helpers for attribute objects. ">
<polygon fill="white" stroke="black" points="2185.5,-817.5 2185.5,-836.5 2264.5,-836.5 2264.5,-817.5 2185.5,-817.5"/>
<text text-anchor="middle" x="2225" y="-824.5" font-family="Helvetica,sans-Serif" font-size="10.00">tvm/ir/attrs.h</text>
</a>
</g>
</g>
<!-- Node42&#45;&gt;Node43 -->
<g id="edge133" class="edge"><title>Node42&#45;&gt;Node43</title>
<path fill="none" stroke="midnightblue" d="M2164.57,-873.324C2175.42,-865.185 2191.88,-852.839 2204.88,-843.087"/>
<polygon fill="midnightblue" stroke="midnightblue" points="2207.32,-845.634 2213.22,-836.834 2203.12,-840.034 2207.32,-845.634"/>
</g>
<!-- Node43&#45;&gt;Node9 -->
<g id="edge142" class="edge"><title>Node43&#45;&gt;Node9</title>
<path fill="none" stroke="midnightblue" d="M2264.54,-826.826C2338.64,-826.096 2491,-812.824 2491,-716 2491,-716 2491,-716 2491,-484.5 2491,-404.786 2363.47,-230.94 2303,-179 2266.69,-147.81 2256.42,-138.106 2211,-123 2121.59,-93.2641 1837.71,-78.7982 1727.42,-74.1913"/>
<polygon fill="midnightblue" stroke="midnightblue" points="1727.44,-70.6891 1717.3,-73.776 1727.15,-77.6832 1727.44,-70.6891"/>
</g>
<!-- Node43&#45;&gt;Node10 -->
<g id="edge143" class="edge"><title>Node43&#45;&gt;Node10</title>
<path fill="none" stroke="midnightblue" d="M2264.7,-823.482C2332.19,-818.574 2465.81,-805.956 2505,-781 2660.72,-681.85 2719,-609.609 2719,-425 2719,-425 2719,-425 2719,-188 2719,-87.1962 2556.29,-73.4209 2485.38,-72.2036"/>
<polygon fill="midnightblue" stroke="midnightblue" points="2485.25,-68.7024 2475.22,-72.1054 2485.19,-75.702 2485.25,-68.7024"/>
</g>
<!-- Node43&#45;&gt;Node11 -->
<g id="edge144" class="edge"><title>Node43&#45;&gt;Node11</title>
<path fill="none" stroke="midnightblue" d="M2185.33,-824.467C1958.63,-815.398 825.647,-765.835 492,-669 237.837,-595.234 206.779,-477.833 64,-255 48.1656,-230.288 40.0185,-226.203 29,-199 19.4442,-175.408 19.6816,-168.312 17,-143 15.1453,-125.493 16.6302,-105.442 18.2916,-91.2106"/>
<polygon fill="midnightblue" stroke="midnightblue" points="21.7737,-91.5746 19.6013,-81.2049 14.8329,-90.666 21.7737,-91.5746"/>
</g>
<!-- Node43&#45;&gt;Node18 -->
<g id="edge138" class="edge"><title>Node43&#45;&gt;Node18</title>
<path fill="none" stroke="midnightblue" d="M2190.73,-817.453C2170.41,-810.717 2145.64,-799.325 2130,-781 2110.46,-758.105 2111,-746.098 2111,-716 2111,-716 2111,-716 2111,-658 2111,-603.369 1948.79,-554.379 1897,-537 1795.16,-502.828 1761.17,-530.927 1658,-501 1500.68,-455.364 1325.98,-365.644 1253.46,-326.509"/>
<polygon fill="midnightblue" stroke="midnightblue" points="1254.78,-323.243 1244.32,-321.552 1251.44,-329.396 1254.78,-323.243"/>
</g>
<!-- Node43&#45;&gt;Node22 -->
<g id="edge140" class="edge"><title>Node43&#45;&gt;Node22</title>
<path fill="none" stroke="midnightblue" d="M2190.12,-817.426C2166.61,-810.412 2135.85,-798.72 2113,-781 2055.47,-736.389 2074.97,-691.7 2016,-649 1844.79,-525.021 1761.56,-576.175 1564,-501 1377.79,-430.144 1332.98,-407.461 1153,-322 1094.28,-294.119 1072.49,-297.137 1023,-255 1007.03,-241.405 993.344,-221.521 984.719,-207.33"/>
<polygon fill="midnightblue" stroke="midnightblue" points="987.661,-205.427 979.591,-198.562 981.618,-208.961 987.661,-205.427"/>
</g>
<!-- Node43&#45;&gt;Node23 -->
<g id="edge139" class="edge"><title>Node43&#45;&gt;Node23</title>
<path fill="none" stroke="midnightblue" d="M2259.87,-817.398C2304.75,-803.997 2377,-773.493 2377,-716 2377,-716 2377,-716 2377,-423 2377,-327.145 2285.89,-239.617 2245.21,-205.318"/>
<polygon fill="midnightblue" stroke="midnightblue" points="2247.29,-202.493 2237.35,-198.823 2242.83,-207.89 2247.29,-202.493"/>
</g>
<!-- Node43&#45;&gt;Node27 -->
<g id="edge141" class="edge"><title>Node43&#45;&gt;Node27</title>
<path fill="none" stroke="midnightblue" d="M2245.64,-817.421C2278.5,-802.231 2339,-767.293 2339,-716 2339,-716 2339,-716 2339,-602 2339,-523.828 2186.19,-321.789 2140.04,-262.554"/>
<polygon fill="midnightblue" stroke="midnightblue" points="2142.73,-260.313 2133.81,-254.596 2137.22,-264.628 2142.73,-260.313"/>
</g>
<!-- Node43&#45;&gt;Node33 -->
<g id="edge136" class="edge"><title>Node43&#45;&gt;Node33</title>
<path fill="none" stroke="midnightblue" d="M2230.28,-817.231C2240.73,-799.043 2263,-755.601 2263,-716 2263,-716 2263,-716 2263,-658 2263,-590.204 2187.53,-619.188 2125,-593 2058.59,-565.19 2042.27,-556.63 1973,-537 1911.29,-519.513 1839.38,-505.648 1788.57,-496.904"/>
<polygon fill="midnightblue" stroke="midnightblue" points="1789.14,-493.451 1778.7,-495.224 1787.97,-500.352 1789.14,-493.451"/>
</g>
<!-- Node43&#45;&gt;Node36 -->
<g id="edge137" class="edge"><title>Node43&#45;&gt;Node36</title>
<path fill="none" stroke="midnightblue" d="M2238.2,-817.46C2249.84,-809.33 2266.53,-796.116 2277,-781 2294.53,-755.681 2301,-746.795 2301,-716 2301,-716 2301,-716 2301,-658 2301,-513.149 2077.84,-488.91 1963.64,-485.989"/>
<polygon fill="midnightblue" stroke="midnightblue" points="1963.68,-482.489 1953.61,-485.78 1963.54,-489.487 1963.68,-482.489"/>
</g>
<!-- Node43&#45;&gt;Node40 -->
<g id="edge135" class="edge"><title>Node43&#45;&gt;Node40</title>
<path fill="none" stroke="midnightblue" d="M2185.25,-817.681C2139.59,-808.124 2064.67,-792.443 2015.59,-782.17"/>
<polygon fill="midnightblue" stroke="midnightblue" points="2016.03,-778.687 2005.53,-780.064 2014.6,-785.538 2016.03,-778.687"/>
</g>
<!-- Node44 -->
<g id="node44" class="node"><title>Node44</title>
<polygon fill="white" stroke="#bfbfbf" points="2139.5,-761.5 2139.5,-780.5 2234.5,-780.5 2234.5,-761.5 2139.5,-761.5"/>
<text text-anchor="middle" x="2187" y="-768.5" font-family="Helvetica,sans-Serif" font-size="10.00">dmlc/common.h</text>
</g>
<!-- Node43&#45;&gt;Node44 -->
<g id="edge134" class="edge"><title>Node43&#45;&gt;Node44</title>
<path fill="none" stroke="midnightblue" d="M2218.73,-817.083C2213.36,-809.455 2205.48,-798.264 2198.92,-788.941"/>
<polygon fill="midnightblue" stroke="midnightblue" points="2201.78,-786.915 2193.16,-780.751 2196.05,-790.943 2201.78,-786.915"/>
</g>
<!-- Node45&#45;&gt;Node2 -->
<g id="edge153" class="edge"><title>Node45&#45;&gt;Node2</title>
<path fill="none" stroke="midnightblue" d="M1653,-817.368C1653,-799.617 1653,-758.666 1653,-734.597"/>
<polygon fill="midnightblue" stroke="midnightblue" points="1656.5,-734.591 1653,-724.591 1649.5,-734.591 1656.5,-734.591"/>
</g>
<!-- Node45&#45;&gt;Node3 -->
<g id="edge149" class="edge"><title>Node45&#45;&gt;Node3</title>
<path fill="none" stroke="midnightblue" d="M1616.95,-825.776C1417.14,-824.399 449.89,-815.964 322,-781 263.869,-765.108 203,-776.264 203,-716 203,-716 203,-716 203,-546 203,-400.584 284.197,-367.279 408,-291 451.436,-264.238 469.264,-273.004 517,-255 538.241,-246.989 542.748,-242.982 564,-235 612.156,-216.912 626.982,-219.868 674,-199 690.376,-191.732 692.62,-186.259 709,-179 740.189,-165.177 776.982,-153.39 804.73,-145.351"/>
<polygon fill="midnightblue" stroke="midnightblue" points="805.859,-148.668 814.517,-142.562 803.941,-141.937 805.859,-148.668"/>
</g>
<!-- Node45&#45;&gt;Node10 -->
<g id="edge154" class="edge"><title>Node45&#45;&gt;Node10</title>
<path fill="none" stroke="midnightblue" d="M1689.14,-826.304C1806.46,-825.326 2181.22,-806.472 2391,-613 2521.77,-492.399 2544.29,-431.024 2570,-255 2578.67,-195.658 2581.64,-168 2542,-123 2526.5,-105.405 2503.32,-92.5288 2484.51,-84.1831"/>
<polygon fill="midnightblue" stroke="midnightblue" points="2485.7,-80.889 2475.13,-80.2307 2482.98,-87.3396 2485.7,-80.889"/>
</g>
<!-- Node45&#45;&gt;Node14 -->
<g id="edge150" class="edge"><title>Node45&#45;&gt;Node14</title>
<path fill="none" stroke="midnightblue" d="M1623.67,-817.433C1505.76,-782.991 1066.18,-654.588 932.087,-615.418"/>
<polygon fill="midnightblue" stroke="midnightblue" points="932.82,-611.985 922.24,-612.541 930.857,-618.705 932.82,-611.985"/>
</g>
<!-- Node45&#45;&gt;Node35 -->
<g id="edge151" class="edge"><title>Node45&#45;&gt;Node35</title>
<path fill="none" stroke="midnightblue" d="M1616.9,-826.159C1410.39,-826.894 386.557,-828.146 341,-781 193.14,-627.981 512.516,-560.704 705,-470 750.669,-448.479 806.602,-437.183 849.969,-431.291"/>
<polygon fill="midnightblue" stroke="midnightblue" points="850.676,-434.728 860.145,-429.975 849.778,-427.786 850.676,-434.728"/>
</g>
<!-- Node45&#45;&gt;Node40 -->
<g id="edge152" class="edge"><title>Node45&#45;&gt;Node40</title>
<path fill="none" stroke="midnightblue" d="M1689.02,-819.806C1745.48,-810.096 1854.9,-791.278 1918.32,-780.371"/>
<polygon fill="midnightblue" stroke="midnightblue" points="1919.21,-783.771 1928.47,-778.627 1918.02,-776.872 1919.21,-783.771"/>
</g>
</g>
</svg>
