<?xml version="1.0" encoding="UTF-8" standalone="no"?>
<!DOCTYPE svg PUBLIC "-//W3C//DTD SVG 1.1//EN"
 "http://www.w3.org/Graphics/SVG/1.1/DTD/svg11.dtd">
<!-- Generated by graphviz version 2.38.0 (20140413.2041)
 -->
<!-- Title: include/tvm/ir/function.h Pages: 1 -->
<svg width="2684pt" height="901pt"
 viewBox="0.00 0.00 2683.88 901.00" xmlns="http://www.w3.org/2000/svg" xmlns:xlink="http://www.w3.org/1999/xlink">
<g id="graph0" class="graph" transform="scale(1 1) rotate(0) translate(4 897)">
<title>include/tvm/ir/function.h</title>
<polygon fill="white" stroke="none" points="-4,4 -4,-897 2679.88,-897 2679.88,4 -4,4"/>
<!-- Node1 -->
<g id="node1" class="node"><title>Node1</title>
<polygon fill="#bfbfbf" stroke="black" points="1964.38,-873.5 1964.38,-892.5 2095.38,-892.5 2095.38,-873.5 1964.38,-873.5"/>
<text text-anchor="middle" x="2029.88" y="-880.5" font-family="Helvetica,sans-Serif" font-size="10.00">include/tvm/ir/function.h</text>
</g>
<!-- Node2 -->
<g id="node2" class="node"><title>Node2</title>
<g id="a_node2"><a xlink:href="ir_2expr_8h.html" target="_top" xlink:title="Base expr nodes in TVM. ">
<polygon fill="white" stroke="black" points="1150.38,-761.5 1150.38,-780.5 1227.38,-780.5 1227.38,-761.5 1150.38,-761.5"/>
<text text-anchor="middle" x="1188.88" y="-768.5" font-family="Helvetica,sans-Serif" font-size="10.00">tvm/ir/expr.h</text>
</a>
</g>
</g>
<!-- Node1&#45;&gt;Node2 -->
<g id="edge1" class="edge"><title>Node1&#45;&gt;Node2</title>
<path fill="none" stroke="midnightblue" d="M1964.59,-873.46C1801.93,-852.186 1381.45,-797.188 1237.82,-778.401"/>
<polygon fill="midnightblue" stroke="midnightblue" points="1237.93,-774.886 1227.56,-777.06 1237.03,-781.827 1237.93,-774.886"/>
</g>
<!-- Node9 -->
<g id="node9" class="node"><title>Node9</title>
<polygon fill="white" stroke="#bfbfbf" points="1005.88,-62 1005.88,-81 1073.88,-81 1073.88,-62 1005.88,-62"/>
<text text-anchor="middle" x="1039.88" y="-69" font-family="Helvetica,sans-Serif" font-size="10.00">type_traits</text>
</g>
<!-- Node1&#45;&gt;Node9 -->
<g id="edge142" class="edge"><title>Node1&#45;&gt;Node9</title>
<path fill="none" stroke="midnightblue" d="M1964.1,-881.936C1616.56,-881.174 9.87816,-872.233 9.87816,-772 9.87816,-772 9.87816,-772 9.87816,-244 9.87816,-184.514 71.695,-201.212 126.878,-179 473.64,-39.4222 591.852,-132.446 962.878,-87 973.52,-85.6966 984.907,-83.8214 995.572,-81.8501"/>
<polygon fill="midnightblue" stroke="midnightblue" points="996.364,-85.2622 1005.53,-79.9461 995.049,-78.3868 996.364,-85.2622"/>
</g>
<!-- Node10 -->
<g id="node10" class="node"><title>Node10</title>
<polygon fill="white" stroke="#bfbfbf" points="2311.88,-62 2311.88,-81 2355.88,-81 2355.88,-62 2311.88,-62"/>
<text text-anchor="middle" x="2333.88" y="-69" font-family="Helvetica,sans-Serif" font-size="10.00">string</text>
</g>
<!-- Node1&#45;&gt;Node10 -->
<g id="edge143" class="edge"><title>Node1&#45;&gt;Node10</title>
<path fill="none" stroke="midnightblue" d="M2095.68,-877.649C2260.11,-865.898 2675.88,-830.412 2675.88,-772 2675.88,-772 2675.88,-772 2675.88,-188 2675.88,-150.157 2653.69,-141.848 2620.88,-123 2577.76,-98.236 2431.66,-81.7289 2366.14,-75.3983"/>
<polygon fill="midnightblue" stroke="midnightblue" points="2366.26,-71.8944 2355.98,-74.436 2365.6,-78.8632 2366.26,-71.8944"/>
</g>
<!-- Node42 -->
<g id="node42" class="node"><title>Node42</title>
<g id="a_node42"><a xlink:href="ir_2attrs_8h.html" target="_top" xlink:title="Helpers for attribute objects. ">
<polygon fill="white" stroke="black" points="2294.38,-817.5 2294.38,-836.5 2373.38,-836.5 2373.38,-817.5 2294.38,-817.5"/>
<text text-anchor="middle" x="2333.88" y="-824.5" font-family="Helvetica,sans-Serif" font-size="10.00">tvm/ir/attrs.h</text>
</a>
</g>
</g>
<!-- Node1&#45;&gt;Node42 -->
<g id="edge130" class="edge"><title>Node1&#45;&gt;Node42</title>
<path fill="none" stroke="midnightblue" d="M2078.05,-873.444C2134.43,-863.428 2227.33,-846.927 2284.31,-836.805"/>
<polygon fill="midnightblue" stroke="midnightblue" points="2284.93,-840.249 2294.17,-835.054 2283.71,-833.357 2284.93,-840.249"/>
</g>
<!-- Node3 -->
<g id="node3" class="node"><title>Node3</title>
<g id="a_node3"><a xlink:href="object_8h.html" target="_top" xlink:title="A managed object in the TVM runtime. ">
<polygon fill="white" stroke="black" points="781.378,-123.5 781.378,-142.5 898.378,-142.5 898.378,-123.5 781.378,-123.5"/>
<text text-anchor="middle" x="839.878" y="-130.5" font-family="Helvetica,sans-Serif" font-size="10.00">tvm/runtime/object.h</text>
</a>
</g>
</g>
<!-- Node2&#45;&gt;Node3 -->
<g id="edge2" class="edge"><title>Node2&#45;&gt;Node3</title>
<path fill="none" stroke="midnightblue" d="M1150.1,-770.366C971.91,-771.774 236.64,-774.522 147.878,-725 68.9741,-680.978 47.8782,-638.353 47.8782,-548 47.8782,-548 47.8782,-548 47.8782,-244 47.8782,-171.25 578.92,-143.886 771.321,-136.359"/>
<polygon fill="midnightblue" stroke="midnightblue" points="771.461,-139.857 781.319,-135.974 771.192,-132.862 771.461,-139.857"/>
</g>
<!-- Node2&#45;&gt;Node9 -->
<g id="edge129" class="edge"><title>Node2&#45;&gt;Node9</title>
<path fill="none" stroke="midnightblue" d="M1150.27,-770.627C955.045,-772.788 85.8782,-769.947 85.8782,-548 85.8782,-548 85.8782,-548 85.8782,-305.5 85.8782,-216.925 157.611,-211.829 239.878,-179 540.733,-58.9441 641.564,-128.041 962.878,-87 973.513,-85.6417 984.897,-83.7454 995.562,-81.7712"/>
<polygon fill="midnightblue" stroke="midnightblue" points="996.353,-85.1835 1005.52,-79.8695 995.04,-78.3078 996.353,-85.1835"/>
</g>
<!-- Node2&#45;&gt;Node10 -->
<g id="edge126" class="edge"><title>Node2&#45;&gt;Node10</title>
<path fill="none" stroke="midnightblue" d="M1227.58,-769.26C1398.1,-765.86 2078.12,-750.788 2169.88,-725 2408.73,-657.874 2599.88,-617.108 2599.88,-369 2599.88,-369 2599.88,-369 2599.88,-188 2599.88,-87.1962 2437.16,-73.4209 2366.26,-72.2036"/>
<polygon fill="midnightblue" stroke="midnightblue" points="2366.13,-68.7024 2356.1,-72.1054 2366.07,-75.702 2366.13,-68.7024"/>
</g>
<!-- Node13 -->
<g id="node13" class="node"><title>Node13</title>
<g id="a_node13"><a xlink:href="node_8h.html" target="_top" xlink:title="Definitions and helper macros for IR/AST nodes. ">
<polygon fill="white" stroke="black" points="1071.88,-593.5 1071.88,-612.5 1169.88,-612.5 1169.88,-593.5 1071.88,-593.5"/>
<text text-anchor="middle" x="1120.88" y="-600.5" font-family="Helvetica,sans-Serif" font-size="10.00">tvm/node/node.h</text>
</a>
</g>
</g>
<!-- Node2&#45;&gt;Node13 -->
<g id="edge12" class="edge"><title>Node2&#45;&gt;Node13</title>
<path fill="none" stroke="midnightblue" d="M1170.85,-761.331C1143.06,-746.789 1090.97,-714.532 1071.88,-669 1063.73,-649.579 1081.68,-630.742 1098.09,-618.391"/>
<polygon fill="midnightblue" stroke="midnightblue" points="1100.23,-621.17 1106.39,-612.554 1096.2,-615.444 1100.23,-621.17"/>
</g>
<!-- Node29 -->
<g id="node29" class="node"><title>Node29</title>
<polygon fill="white" stroke="#bfbfbf" points="1725.88,-235.5 1725.88,-254.5 1767.88,-254.5 1767.88,-235.5 1725.88,-235.5"/>
<text text-anchor="middle" x="1746.88" y="-242.5" font-family="Helvetica,sans-Serif" font-size="10.00">limits</text>
</g>
<!-- Node2&#45;&gt;Node29 -->
<g id="edge128" class="edge"><title>Node2&#45;&gt;Node29</title>
<path fill="none" stroke="midnightblue" d="M1227.56,-770.162C1419.21,-770.468 2257.88,-765.762 2257.88,-660 2257.88,-660 2257.88,-660 2257.88,-602 2257.88,-366.852 1889.07,-274.306 1778.1,-251.782"/>
<polygon fill="midnightblue" stroke="midnightblue" points="1778.67,-248.328 1768.18,-249.818 1777.31,-255.195 1778.67,-248.328"/>
</g>
<!-- Node35 -->
<g id="node35" class="node"><title>Node35</title>
<g id="a_node35"><a xlink:href="node_2container_8h.html" target="_top" xlink:title="Array/Map container in the DSL graph. ">
<polygon fill="white" stroke="black" points="1246.38,-414.5 1246.38,-433.5 1365.38,-433.5 1365.38,-414.5 1246.38,-414.5"/>
<text text-anchor="middle" x="1305.88" y="-421.5" font-family="Helvetica,sans-Serif" font-size="10.00">tvm/node/container.h</text>
</a>
</g>
</g>
<!-- Node2&#45;&gt;Node35 -->
<g id="edge114" class="edge"><title>Node2&#45;&gt;Node35</title>
<path fill="none" stroke="midnightblue" d="M1227.5,-767.708C1410.54,-756.341 2181.88,-702.591 2181.88,-604 2181.88,-604 2181.88,-604 2181.88,-546 2181.88,-464.755 1582.96,-435.139 1375.56,-427.319"/>
<polygon fill="midnightblue" stroke="midnightblue" points="1375.52,-423.815 1365.4,-426.942 1375.26,-430.81 1375.52,-423.815"/>
</g>
<!-- Node39 -->
<g id="node39" class="node"><title>Node39</title>
<g id="a_node39"><a xlink:href="span_8h.html" target="_top" xlink:title="Span information for debugging purposes. ">
<polygon fill="white" stroke="black" points="1080.88,-649.5 1080.88,-668.5 1160.88,-668.5 1160.88,-649.5 1080.88,-649.5"/>
<text text-anchor="middle" x="1120.88" y="-656.5" font-family="Helvetica,sans-Serif" font-size="10.00">tvm/ir/span.h</text>
</a>
</g>
</g>
<!-- Node2&#45;&gt;Node39 -->
<g id="edge115" class="edge"><title>Node2&#45;&gt;Node39</title>
<path fill="none" stroke="midnightblue" d="M1176.53,-761.368C1165.67,-753.176 1150.19,-739.922 1140.88,-725 1131.99,-710.759 1126.8,-692.286 1123.95,-678.675"/>
<polygon fill="midnightblue" stroke="midnightblue" points="1127.34,-677.775 1122.07,-668.584 1120.46,-679.056 1127.34,-677.775"/>
</g>
<!-- Node40 -->
<g id="node40" class="node"><title>Node40</title>
<g id="a_node40"><a xlink:href="ir_2type_8h.html" target="_top" xlink:title="IR/AST nodes for the unified type system in TVM. ">
<polygon fill="white" stroke="black" points="1150.38,-705.5 1150.38,-724.5 1227.38,-724.5 1227.38,-705.5 1150.38,-705.5"/>
<text text-anchor="middle" x="1188.88" y="-712.5" font-family="Helvetica,sans-Serif" font-size="10.00">tvm/ir/type.h</text>
</a>
</g>
</g>
<!-- Node2&#45;&gt;Node40 -->
<g id="edge119" class="edge"><title>Node2&#45;&gt;Node40</title>
<path fill="none" stroke="midnightblue" d="M1188.88,-761.083C1188.88,-754.006 1188.88,-743.861 1188.88,-734.986"/>
<polygon fill="midnightblue" stroke="midnightblue" points="1192.38,-734.751 1188.88,-724.751 1185.38,-734.751 1192.38,-734.751"/>
</g>
<!-- Node41 -->
<g id="node41" class="node"><title>Node41</title>
<polygon fill="white" stroke="#bfbfbf" points="556.878,-705.5 556.878,-724.5 618.878,-724.5 618.878,-705.5 556.878,-705.5"/>
<text text-anchor="middle" x="587.878" y="-712.5" font-family="Helvetica,sans-Serif" font-size="10.00">algorithm</text>
</g>
<!-- Node2&#45;&gt;Node41 -->
<g id="edge127" class="edge"><title>Node2&#45;&gt;Node41</title>
<path fill="none" stroke="midnightblue" d="M1150.29,-768.428C1059.63,-764.398 826.133,-752.052 632.878,-725 631.774,-724.845 630.655,-724.681 629.528,-724.508"/>
<polygon fill="midnightblue" stroke="midnightblue" points="629.715,-720.989 619.27,-722.764 628.542,-727.89 629.715,-720.989"/>
</g>
<!-- Node4 -->
<g id="node4" class="node"><title>Node4</title>
<polygon fill="white" stroke="#bfbfbf" points="129.878,-62 129.878,-81 215.878,-81 215.878,-62 129.878,-62"/>
<text text-anchor="middle" x="172.878" y="-69" font-family="Helvetica,sans-Serif" font-size="10.00">dmlc/logging.h</text>
</g>
<!-- Node3&#45;&gt;Node4 -->
<g id="edge3" class="edge"><title>Node3&#45;&gt;Node4</title>
<path fill="none" stroke="midnightblue" d="M781.271,-126.772C653.082,-115.337 349.428,-88.2492 226.214,-77.2578"/>
<polygon fill="midnightblue" stroke="midnightblue" points="226.18,-73.741 215.909,-76.3386 225.558,-80.7133 226.18,-73.741"/>
</g>
<!-- Node5 -->
<g id="node5" class="node"><title>Node5</title>
<g id="a_node5"><a xlink:href="c__runtime__api_8h.html" target="_top" xlink:title="tvm/runtime/c_runtime\l_api.h">
<polygon fill="white" stroke="black" points="723.378,-56.5 723.378,-86.5 850.378,-86.5 850.378,-56.5 723.378,-56.5"/>
<text text-anchor="start" x="731.378" y="-74.5" font-family="Helvetica,sans-Serif" font-size="10.00">tvm/runtime/c_runtime</text>
<text text-anchor="middle" x="786.878" y="-63.5" font-family="Helvetica,sans-Serif" font-size="10.00">_api.h</text>
</a>
</g>
</g>
<!-- Node3&#45;&gt;Node5 -->
<g id="edge4" class="edge"><title>Node3&#45;&gt;Node5</title>
<path fill="none" stroke="midnightblue" d="M832.285,-123.475C825.509,-115.869 815.293,-104.399 806.265,-94.2649"/>
<polygon fill="midnightblue" stroke="midnightblue" points="808.634,-91.6622 799.369,-86.523 803.407,-96.3182 808.634,-91.6622"/>
</g>
<!-- Node3&#45;&gt;Node9 -->
<g id="edge8" class="edge"><title>Node3&#45;&gt;Node9</title>
<path fill="none" stroke="midnightblue" d="M868.533,-123.475C903.434,-113.092 962.528,-95.5116 1001.38,-83.9538"/>
<polygon fill="midnightblue" stroke="midnightblue" points="1002.69,-87.2153 1011.28,-81.0091 1000.69,-80.5059 1002.69,-87.2153"/>
</g>
<!-- Node3&#45;&gt;Node10 -->
<g id="edge9" class="edge"><title>Node3&#45;&gt;Node10</title>
<path fill="none" stroke="midnightblue" d="M898.445,-129.668C1147.31,-119.756 2112.94,-81.2992 2301.75,-73.7794"/>
<polygon fill="midnightblue" stroke="midnightblue" points="2302.01,-77.2721 2311.86,-73.3768 2301.73,-70.2776 2302.01,-77.2721"/>
</g>
<!-- Node11 -->
<g id="node11" class="node"><title>Node11</title>
<polygon fill="white" stroke="#bfbfbf" points="1742.88,-62 1742.88,-81 1784.88,-81 1784.88,-62 1742.88,-62"/>
<text text-anchor="middle" x="1763.88" y="-69" font-family="Helvetica,sans-Serif" font-size="10.00">utility</text>
</g>
<!-- Node3&#45;&gt;Node11 -->
<g id="edge10" class="edge"><title>Node3&#45;&gt;Node11</title>
<path fill="none" stroke="midnightblue" d="M898.379,-128.233C1074.91,-116.865 1598.36,-83.1583 1732.35,-74.5299"/>
<polygon fill="midnightblue" stroke="midnightblue" points="1732.96,-77.9982 1742.72,-73.8628 1732.51,-71.0127 1732.96,-77.9982"/>
</g>
<!-- Node12 -->
<g id="node12" class="node"><title>Node12</title>
<polygon fill="white" stroke="#bfbfbf" points="903.878,-62 903.878,-81 953.878,-81 953.878,-62 903.878,-62"/>
<text text-anchor="middle" x="928.878" y="-69" font-family="Helvetica,sans-Serif" font-size="10.00">atomic</text>
</g>
<!-- Node3&#45;&gt;Node12 -->
<g id="edge11" class="edge"><title>Node3&#45;&gt;Node12</title>
<path fill="none" stroke="midnightblue" d="M852.63,-123.475C866.905,-113.931 890.276,-98.3073 907.386,-86.8683"/>
<polygon fill="midnightblue" stroke="midnightblue" points="909.782,-89.4766 916.15,-81.0091 905.892,-83.6572 909.782,-89.4766"/>
</g>
<!-- Node6 -->
<g id="node6" class="node"><title>Node6</title>
<polygon fill="white" stroke="#bfbfbf" points="651.878,-0.5 651.878,-19.5 741.878,-19.5 741.878,-0.5 651.878,-0.5"/>
<text text-anchor="middle" x="696.878" y="-7.5" font-family="Helvetica,sans-Serif" font-size="10.00">dlpack/dlpack.h</text>
</g>
<!-- Node5&#45;&gt;Node6 -->
<g id="edge5" class="edge"><title>Node5&#45;&gt;Node6</title>
<path fill="none" stroke="midnightblue" d="M765.549,-56.3993C751.393,-47.0402 732.867,-34.7924 718.625,-25.3771"/>
<polygon fill="midnightblue" stroke="midnightblue" points="720.246,-22.2531 709.974,-19.6578 716.386,-28.0923 720.246,-22.2531"/>
</g>
<!-- Node7 -->
<g id="node7" class="node"><title>Node7</title>
<polygon fill="white" stroke="#bfbfbf" points="760.378,-0.5 760.378,-19.5 813.378,-19.5 813.378,-0.5 760.378,-0.5"/>
<text text-anchor="middle" x="786.878" y="-7.5" font-family="Helvetica,sans-Serif" font-size="10.00">stdint.h</text>
</g>
<!-- Node5&#45;&gt;Node7 -->
<g id="edge6" class="edge"><title>Node5&#45;&gt;Node7</title>
<path fill="none" stroke="midnightblue" d="M786.878,-56.3993C786.878,-48.4664 786.878,-38.458 786.878,-29.8583"/>
<polygon fill="midnightblue" stroke="midnightblue" points="790.378,-29.6577 786.878,-19.6578 783.378,-29.6578 790.378,-29.6577"/>
</g>
<!-- Node8 -->
<g id="node8" class="node"><title>Node8</title>
<polygon fill="white" stroke="#bfbfbf" points="831.378,-0.5 831.378,-19.5 886.378,-19.5 886.378,-0.5 831.378,-0.5"/>
<text text-anchor="middle" x="858.878" y="-7.5" font-family="Helvetica,sans-Serif" font-size="10.00">stddef.h</text>
</g>
<!-- Node5&#45;&gt;Node8 -->
<g id="edge7" class="edge"><title>Node5&#45;&gt;Node8</title>
<path fill="none" stroke="midnightblue" d="M803.941,-56.3993C814.943,-47.3076 829.243,-35.4899 840.496,-26.1909"/>
<polygon fill="midnightblue" stroke="midnightblue" points="842.923,-28.726 848.402,-19.6578 838.463,-23.33 842.923,-28.726"/>
</g>
<!-- Node13&#45;&gt;Node3 -->
<g id="edge66" class="edge"><title>Node13&#45;&gt;Node3</title>
<path fill="none" stroke="midnightblue" d="M1071.73,-601.824C929.805,-600.863 521.329,-594.797 393.878,-557 345.413,-542.627 325.491,-541.228 294.878,-501 273.793,-473.293 275.878,-459.817 275.878,-425 275.878,-425 275.878,-425 275.878,-305.5 275.878,-273.049 271.032,-257.01 294.878,-235 363.381,-171.77 640.377,-146.396 771.032,-137.795"/>
<polygon fill="midnightblue" stroke="midnightblue" points="771.563,-141.268 781.318,-137.133 771.113,-134.283 771.563,-141.268"/>
</g>
<!-- Node13&#45;&gt;Node5 -->
<g id="edge13" class="edge"><title>Node13&#45;&gt;Node5</title>
<path fill="none" stroke="midnightblue" d="M1071.68,-600.892C909.916,-597.014 400.893,-582.867 331.878,-557 242.305,-523.428 161.878,-520.658 161.878,-425 161.878,-425 161.878,-425 161.878,-305.5 161.878,-202.728 214.028,-172.89 303.878,-123 372.299,-85.0089 595.49,-75.5613 712.996,-73.2379"/>
<polygon fill="midnightblue" stroke="midnightblue" points="713.405,-76.731 723.339,-73.0464 713.276,-69.7322 713.405,-76.731"/>
</g>
<!-- Node13&#45;&gt;Node9 -->
<g id="edge113" class="edge"><title>Node13&#45;&gt;Node9</title>
<path fill="none" stroke="midnightblue" d="M1170.01,-595.711C1347.75,-570.909 1938.5,-469.52 1776.88,-235 1757.04,-206.216 1663.02,-190.125 1629.88,-179 1545.61,-150.711 1524.91,-141.095 1437.88,-123 1310.97,-96.6135 1158.25,-81.9034 1084.31,-75.8374"/>
<polygon fill="midnightblue" stroke="midnightblue" points="1084.23,-72.32 1073.99,-75.0048 1083.67,-79.2974 1084.23,-72.32"/>
</g>
<!-- Node13&#45;&gt;Node10 -->
<g id="edge110" class="edge"><title>Node13&#45;&gt;Node10</title>
<path fill="none" stroke="midnightblue" d="M1169.95,-601.407C1350.9,-598.978 1974.64,-588.388 2057.88,-557 2161.6,-517.89 2447.88,-356.849 2447.88,-246 2447.88,-246 2447.88,-246 2447.88,-188 2447.88,-139.198 2395.69,-103.559 2361.93,-85.6129"/>
<polygon fill="midnightblue" stroke="midnightblue" points="2363.46,-82.4611 2352.96,-81.024 2360.27,-88.6934 2363.46,-82.4611"/>
</g>
<!-- Node13&#45;&gt;Node11 -->
<g id="edge112" class="edge"><title>Node13&#45;&gt;Node11</title>
<path fill="none" stroke="midnightblue" d="M1170.06,-601.912C1348.43,-601.272 1955,-596.21 2031.88,-557 2108.53,-517.905 2171.65,-244.532 2115.88,-179 2033.2,-81.8444 1865.15,-71.4713 1795.36,-71.5982"/>
<polygon fill="midnightblue" stroke="midnightblue" points="1795,-68.1015 1785.03,-71.6971 1795.06,-75.1011 1795,-68.1015"/>
</g>
<!-- Node14 -->
<g id="node14" class="node"><title>Node14</title>
<g id="a_node14"><a xlink:href="runtime_2container_8h.html" target="_top" xlink:title="Common POD(plain old data) container types. ">
<polygon fill="white" stroke="black" points="1054.88,-358.5 1054.88,-377.5 1186.88,-377.5 1186.88,-358.5 1054.88,-358.5"/>
<text text-anchor="middle" x="1120.88" y="-365.5" font-family="Helvetica,sans-Serif" font-size="10.00">tvm/runtime/container.h</text>
</a>
</g>
</g>
<!-- Node13&#45;&gt;Node14 -->
<g id="edge14" class="edge"><title>Node13&#45;&gt;Node14</title>
<path fill="none" stroke="midnightblue" d="M1120.88,-593.431C1120.88,-559.754 1120.88,-435.994 1120.88,-388.102"/>
<polygon fill="midnightblue" stroke="midnightblue" points="1124.38,-387.896 1120.88,-377.896 1117.38,-387.896 1124.38,-387.896"/>
</g>
<!-- Node15 -->
<g id="node15" class="node"><title>Node15</title>
<g id="a_node15"><a xlink:href="runtime_2memory_8h.html" target="_top" xlink:title="Runtime memory management. ">
<polygon fill="white" stroke="black" points="1716.38,-179.5 1716.38,-198.5 1843.38,-198.5 1843.38,-179.5 1716.38,-179.5"/>
<text text-anchor="middle" x="1779.88" y="-186.5" font-family="Helvetica,sans-Serif" font-size="10.00">tvm/runtime/memory.h</text>
</a>
</g>
</g>
<!-- Node13&#45;&gt;Node15 -->
<g id="edge67" class="edge"><title>Node13&#45;&gt;Node15</title>
<path fill="none" stroke="midnightblue" d="M1169.96,-602.037C1345.13,-601.825 1932.98,-598.034 2005.88,-557 2070.95,-520.373 2150.89,-291.334 2101.88,-235 2070.37,-198.784 1938.59,-190.827 1853.69,-189.566"/>
<polygon fill="midnightblue" stroke="midnightblue" points="1853.62,-186.065 1843.58,-189.444 1853.53,-193.064 1853.62,-186.065"/>
</g>
<!-- Node21 -->
<g id="node21" class="node"><title>Node21</title>
<polygon fill="white" stroke="#bfbfbf" points="818.378,-179.5 818.378,-198.5 865.378,-198.5 865.378,-179.5 818.378,-179.5"/>
<text text-anchor="middle" x="841.878" y="-186.5" font-family="Helvetica,sans-Serif" font-size="10.00">vector</text>
</g>
<!-- Node13&#45;&gt;Node21 -->
<g id="edge111" class="edge"><title>Node13&#45;&gt;Node21</title>
<path fill="none" stroke="midnightblue" d="M1101.48,-593.341C1047.22,-567.658 897.878,-486.305 897.878,-369 897.878,-369 897.878,-369 897.878,-305.5 897.878,-267.087 872.489,-228.038 855.901,-206.625"/>
<polygon fill="midnightblue" stroke="midnightblue" points="858.426,-204.18 849.431,-198.581 852.971,-208.567 858.426,-204.18"/>
</g>
<!-- Node32 -->
<g id="node32" class="node"><title>Node32</title>
<g id="a_node32"><a xlink:href="reflection_8h.html" target="_top" xlink:title="Reflection and serialization of compiler IR/AST nodes. ">
<polygon fill="white" stroke="black" points="560.378,-537.5 560.378,-556.5 679.378,-556.5 679.378,-537.5 560.378,-537.5"/>
<text text-anchor="middle" x="619.878" y="-544.5" font-family="Helvetica,sans-Serif" font-size="10.00">tvm/node/reflection.h</text>
</a>
</g>
</g>
<!-- Node13&#45;&gt;Node32 -->
<g id="edge68" class="edge"><title>Node13&#45;&gt;Node32</title>
<path fill="none" stroke="midnightblue" d="M1071.47,-596.674C981.878,-587.018 792.405,-566.596 689.659,-555.521"/>
<polygon fill="midnightblue" stroke="midnightblue" points="690.007,-552.039 679.69,-554.447 689.257,-558.998 690.007,-552.039"/>
</g>
<!-- Node33 -->
<g id="node33" class="node"><title>Node33</title>
<g id="a_node33"><a xlink:href="structural__equal_8h.html" target="_top" xlink:title="Structural equality comparison. ">
<polygon fill="white" stroke="black" points="724.378,-470.5 724.378,-500.5 835.378,-500.5 835.378,-470.5 724.378,-470.5"/>
<text text-anchor="start" x="732.378" y="-488.5" font-family="Helvetica,sans-Serif" font-size="10.00">tvm/node/structural</text>
<text text-anchor="middle" x="779.878" y="-477.5" font-family="Helvetica,sans-Serif" font-size="10.00">_equal.h</text>
</a>
</g>
</g>
<!-- Node13&#45;&gt;Node33 -->
<g id="edge108" class="edge"><title>Node13&#45;&gt;Node33</title>
<path fill="none" stroke="midnightblue" d="M1071.57,-598.05C1023.3,-592.91 948.409,-581.497 887.878,-557 857.231,-544.597 826.008,-523.048 805.069,-507.029"/>
<polygon fill="midnightblue" stroke="midnightblue" points="807.067,-504.149 797.028,-500.762 802.764,-509.67 807.067,-504.149"/>
</g>
<!-- Node13&#45;&gt;Node35 -->
<g id="edge107" class="edge"><title>Node13&#45;&gt;Node35</title>
<path fill="none" stroke="midnightblue" d="M1140.34,-593.412C1171.81,-578.657 1234.15,-545.711 1271.88,-501 1286.12,-484.126 1295.47,-460.331 1300.7,-443.882"/>
<polygon fill="midnightblue" stroke="midnightblue" points="1304.19,-444.424 1303.67,-433.842 1297.47,-442.439 1304.19,-444.424"/>
</g>
<!-- Node36 -->
<g id="node36" class="node"><title>Node36</title>
<g id="a_node36"><a xlink:href="structural__hash_8h.html" target="_top" xlink:title="tvm/node/structural\l_hash.h">
<polygon fill="white" stroke="black" points="1152.38,-470.5 1152.38,-500.5 1263.38,-500.5 1263.38,-470.5 1152.38,-470.5"/>
<text text-anchor="start" x="1160.38" y="-488.5" font-family="Helvetica,sans-Serif" font-size="10.00">tvm/node/structural</text>
<text text-anchor="middle" x="1207.88" y="-477.5" font-family="Helvetica,sans-Serif" font-size="10.00">_hash.h</text>
</a>
</g>
</g>
<!-- Node13&#45;&gt;Node36 -->
<g id="edge109" class="edge"><title>Node13&#45;&gt;Node36</title>
<path fill="none" stroke="midnightblue" d="M1127.42,-593.319C1140.84,-575.502 1171.85,-534.324 1191.22,-508.615"/>
<polygon fill="midnightblue" stroke="midnightblue" points="1194.08,-510.639 1197.3,-500.545 1188.49,-506.427 1194.08,-510.639"/>
</g>
<!-- Node37 -->
<g id="node37" class="node"><title>Node37</title>
<g id="a_node37"><a xlink:href="repr__printer_8h.html" target="_top" xlink:title="Printer class to print repr string of each AST/IR nodes. ">
<polygon fill="white" stroke="black" points="402.878,-537.5 402.878,-556.5 532.878,-556.5 532.878,-537.5 402.878,-537.5"/>
<text text-anchor="middle" x="467.878" y="-544.5" font-family="Helvetica,sans-Serif" font-size="10.00">tvm/node/repr_printer.h</text>
</a>
</g>
</g>
<!-- Node13&#45;&gt;Node37 -->
<g id="edge104" class="edge"><title>Node13&#45;&gt;Node37</title>
<path fill="none" stroke="midnightblue" d="M1071.66,-598.601C972.857,-591.67 743.357,-575.03 550.878,-557 548.353,-556.763 545.785,-556.517 543.192,-556.264"/>
<polygon fill="midnightblue" stroke="midnightblue" points="543.403,-552.767 533.104,-555.255 542.706,-559.733 543.403,-552.767"/>
</g>
<!-- Node14&#45;&gt;Node3 -->
<g id="edge21" class="edge"><title>Node14&#45;&gt;Node3</title>
<path fill="none" stroke="midnightblue" d="M1113.01,-358.476C1092.18,-336.226 1033.25,-275.329 975.878,-235 947.902,-215.334 935.613,-219.005 907.878,-199 887.726,-184.465 867.51,-164.249 854.423,-150.238"/>
<polygon fill="midnightblue" stroke="midnightblue" points="856.935,-147.798 847.596,-142.795 851.777,-152.53 856.935,-147.798"/>
</g>
<!-- Node14&#45;&gt;Node4 -->
<g id="edge15" class="edge"><title>Node14&#45;&gt;Node4</title>
<path fill="none" stroke="midnightblue" d="M1057.11,-358.458C947.902,-343.046 718.584,-307.254 529.878,-255 460.495,-235.787 444.151,-227.127 377.878,-199 325.179,-176.634 310.387,-173.402 261.878,-143 235.18,-126.268 207.124,-102.945 189.815,-87.7852"/>
<polygon fill="midnightblue" stroke="midnightblue" points="192.038,-85.0789 182.234,-81.0635 187.394,-90.3166 192.038,-85.0789"/>
</g>
<!-- Node14&#45;&gt;Node9 -->
<g id="edge63" class="edge"><title>Node14&#45;&gt;Node9</title>
<path fill="none" stroke="midnightblue" d="M1127.59,-358.333C1139.37,-343.459 1164.97,-312.594 1190.88,-291 1213.89,-271.815 1225.98,-275.447 1247.88,-255 1297.85,-208.342 1370.84,-175.367 1326.88,-123 1296.42,-86.7129 1156.91,-76.4916 1084.22,-73.6188"/>
<polygon fill="midnightblue" stroke="midnightblue" points="1084.12,-70.113 1074,-73.246 1083.87,-77.1083 1084.12,-70.113"/>
</g>
<!-- Node14&#45;&gt;Node10 -->
<g id="edge62" class="edge"><title>Node14&#45;&gt;Node10</title>
<path fill="none" stroke="midnightblue" d="M1186.96,-365.371C1322,-361.503 1625.27,-349.918 1724.88,-322 1859.43,-284.288 1875.78,-232.464 2004.88,-179 2110.84,-135.119 2241.86,-97.4245 2301.54,-81.1179"/>
<polygon fill="midnightblue" stroke="midnightblue" points="2302.76,-84.4126 2311.49,-78.4153 2300.93,-77.6571 2302.76,-84.4126"/>
</g>
<!-- Node14&#45;&gt;Node11 -->
<g id="edge64" class="edge"><title>Node14&#45;&gt;Node11</title>
<path fill="none" stroke="midnightblue" d="M1187.15,-364.697C1255.78,-360.797 1365.43,-350.292 1455.88,-322 1518.29,-302.478 1534.3,-293.882 1586.88,-255 1656.59,-203.447 1723.54,-123.549 1750.92,-89.1648"/>
<polygon fill="midnightblue" stroke="midnightblue" points="1753.84,-91.1103 1757.28,-81.09 1748.34,-86.777 1753.84,-91.1103"/>
</g>
<!-- Node14&#45;&gt;Node15 -->
<g id="edge16" class="edge"><title>Node14&#45;&gt;Node15</title>
<path fill="none" stroke="midnightblue" d="M1186.92,-365.671C1313.47,-362.463 1585.45,-352.185 1673.88,-322 1725.56,-304.358 1749.74,-302.389 1776.88,-255 1784.86,-241.061 1784.9,-222.554 1783.36,-208.854"/>
<polygon fill="midnightblue" stroke="midnightblue" points="1786.78,-208.051 1781.83,-198.681 1779.86,-209.09 1786.78,-208.051"/>
</g>
<!-- Node17 -->
<g id="node17" class="node"><title>Node17</title>
<g id="a_node17"><a xlink:href="packed__func_8h.html" target="_top" xlink:title="Type&#45;erased function used across TVM API. ">
<polygon fill="white" stroke="black" points="1334.38,-291.5 1334.38,-321.5 1447.38,-321.5 1447.38,-291.5 1334.38,-291.5"/>
<text text-anchor="start" x="1342.38" y="-309.5" font-family="Helvetica,sans-Serif" font-size="10.00">tvm/runtime/packed</text>
<text text-anchor="middle" x="1390.88" y="-298.5" font-family="Helvetica,sans-Serif" font-size="10.00">_func.h</text>
</a>
</g>
</g>
<!-- Node14&#45;&gt;Node17 -->
<g id="edge22" class="edge"><title>Node14&#45;&gt;Node17</title>
<path fill="none" stroke="midnightblue" d="M1159.56,-358.475C1202.51,-349.011 1272.59,-333.568 1324.37,-322.156"/>
<polygon fill="midnightblue" stroke="midnightblue" points="1325.13,-325.572 1334.14,-320.002 1323.63,-318.736 1325.13,-325.572"/>
</g>
<!-- Node14&#45;&gt;Node21 -->
<g id="edge65" class="edge"><title>Node14&#45;&gt;Node21</title>
<path fill="none" stroke="midnightblue" d="M1100.63,-358.408C1082.74,-350.335 1056.38,-337.237 1035.88,-322 992.237,-289.573 994.966,-265.384 949.878,-235 926.798,-219.447 897.487,-207.652 875.225,-200.047"/>
<polygon fill="midnightblue" stroke="midnightblue" points="876.134,-196.661 865.541,-196.85 873.939,-203.309 876.134,-196.661"/>
</g>
<!-- Node30 -->
<g id="node30" class="node"><title>Node30</title>
<polygon fill="white" stroke="#bfbfbf" points="1094.38,-297 1094.38,-316 1143.38,-316 1143.38,-297 1094.38,-297"/>
<text text-anchor="middle" x="1118.88" y="-304" font-family="Helvetica,sans-Serif" font-size="10.00">cstring</text>
</g>
<!-- Node14&#45;&gt;Node30 -->
<g id="edge60" class="edge"><title>Node14&#45;&gt;Node30</title>
<path fill="none" stroke="midnightblue" d="M1120.59,-358.475C1120.31,-350.08 1119.87,-336.981 1119.51,-326.163"/>
<polygon fill="midnightblue" stroke="midnightblue" points="1123,-325.886 1119.16,-316.009 1116,-326.121 1123,-325.886"/>
</g>
<!-- Node31 -->
<g id="node31" class="node"><title>Node31</title>
<polygon fill="white" stroke="#bfbfbf" points="1200.38,-297 1200.38,-316 1277.38,-316 1277.38,-297 1200.38,-297"/>
<text text-anchor="middle" x="1238.88" y="-304" font-family="Helvetica,sans-Serif" font-size="10.00">initializer_list</text>
</g>
<!-- Node14&#45;&gt;Node31 -->
<g id="edge61" class="edge"><title>Node14&#45;&gt;Node31</title>
<path fill="none" stroke="midnightblue" d="M1137.78,-358.475C1157.41,-348.578 1190.01,-332.142 1212.87,-320.615"/>
<polygon fill="midnightblue" stroke="midnightblue" points="1214.65,-323.637 1222,-316.009 1211.5,-317.386 1214.65,-323.637"/>
</g>
<!-- Node15&#45;&gt;Node3 -->
<g id="edge17" class="edge"><title>Node15&#45;&gt;Node3</title>
<path fill="none" stroke="midnightblue" d="M1716.01,-184.125C1689.39,-182.521 1658.14,-180.653 1629.88,-179 1363.56,-163.426 1046.7,-145.586 909.223,-137.879"/>
<polygon fill="midnightblue" stroke="midnightblue" points="909.028,-134.363 898.848,-137.298 908.636,-141.352 909.028,-134.363"/>
</g>
<!-- Node15&#45;&gt;Node9 -->
<g id="edge20" class="edge"><title>Node15&#45;&gt;Node9</title>
<path fill="none" stroke="midnightblue" d="M1764.26,-179.453C1737.07,-165.02 1678.84,-136.11 1625.88,-123 1428.39,-74.11 1183.35,-70.7314 1084.4,-71.6366"/>
<polygon fill="midnightblue" stroke="midnightblue" points="1084.14,-68.1392 1074.18,-71.7506 1084.21,-75.1388 1084.14,-68.1392"/>
</g>
<!-- Node15&#45;&gt;Node11 -->
<g id="edge19" class="edge"><title>Node15&#45;&gt;Node11</title>
<path fill="none" stroke="midnightblue" d="M1778.68,-179.319C1776.1,-160.757 1770.02,-116.839 1766.51,-91.4734"/>
<polygon fill="midnightblue" stroke="midnightblue" points="1769.93,-90.7071 1765.09,-81.282 1763,-91.6677 1769.93,-90.7071"/>
</g>
<!-- Node16 -->
<g id="node16" class="node"><title>Node16</title>
<polygon fill="white" stroke="#bfbfbf" points="1792.38,-123.5 1792.38,-142.5 1839.38,-142.5 1839.38,-123.5 1792.38,-123.5"/>
<text text-anchor="middle" x="1815.88" y="-130.5" font-family="Helvetica,sans-Serif" font-size="10.00">cstdlib</text>
</g>
<!-- Node15&#45;&gt;Node16 -->
<g id="edge18" class="edge"><title>Node15&#45;&gt;Node16</title>
<path fill="none" stroke="midnightblue" d="M1785.82,-179.083C1790.86,-171.534 1798.21,-160.495 1804.39,-151.23"/>
<polygon fill="midnightblue" stroke="midnightblue" points="1807.41,-153.013 1810.04,-142.751 1801.58,-149.13 1807.41,-153.013"/>
</g>
<!-- Node17&#45;&gt;Node3 -->
<g id="edge51" class="edge"><title>Node17&#45;&gt;Node3</title>
<path fill="none" stroke="midnightblue" d="M1334.31,-297.22C1264.03,-286.622 1148.31,-268.073 1106.88,-255 1086.78,-248.657 1083.56,-242.538 1063.88,-235 1012.67,-215.391 995.874,-221.513 945.878,-199 929.049,-191.422 887.407,-164.966 861.61,-148.233"/>
<polygon fill="midnightblue" stroke="midnightblue" points="863.188,-145.084 852.898,-142.561 859.368,-150.95 863.188,-145.084"/>
</g>
<!-- Node17&#45;&gt;Node4 -->
<g id="edge23" class="edge"><title>Node17&#45;&gt;Node4</title>
<path fill="none" stroke="midnightblue" d="M1334.31,-296.793C1318.65,-294.627 1301.63,-292.499 1285.88,-291 982.384,-262.122 898.585,-320.675 600.878,-255 437.687,-219 258.741,-122 196.079,-86.1023"/>
<polygon fill="midnightblue" stroke="midnightblue" points="197.776,-83.0409 187.366,-81.0734 194.277,-89.1036 197.776,-83.0409"/>
</g>
<!-- Node17&#45;&gt;Node5 -->
<g id="edge24" class="edge"><title>Node17&#45;&gt;Node5</title>
<path fill="none" stroke="midnightblue" d="M1334.23,-297.518C1318.57,-295.356 1301.57,-293.048 1285.88,-291 1071.79,-263.067 981.904,-328.144 808.878,-199 784.972,-181.157 780.464,-171.569 771.878,-143 767.286,-127.72 770.989,-110.173 775.863,-96.4071"/>
<polygon fill="midnightblue" stroke="midnightblue" points="779.273,-97.3036 779.701,-86.7174 772.765,-94.7259 779.273,-97.3036"/>
</g>
<!-- Node17&#45;&gt;Node9 -->
<g id="edge59" class="edge"><title>Node17&#45;&gt;Node9</title>
<path fill="none" stroke="midnightblue" d="M1377.77,-291.293C1365.82,-276.537 1351.61,-253.118 1362.88,-235 1381.98,-204.28 1416.78,-229.72 1435.88,-199 1449.33,-177.372 1428.46,-132.524 1416.88,-123 1366.96,-81.9286 1172.88,-74.1417 1084.35,-72.7507"/>
<polygon fill="midnightblue" stroke="midnightblue" points="1084.14,-69.2476 1074.09,-72.6109 1084.04,-76.2469 1084.14,-69.2476"/>
</g>
<!-- Node17&#45;&gt;Node10 -->
<g id="edge55" class="edge"><title>Node17&#45;&gt;Node10</title>
<path fill="none" stroke="midnightblue" d="M1447.43,-296.886C1501.41,-288.158 1584.79,-273.345 1655.88,-255 1683.5,-247.87 1689.41,-242.719 1716.88,-235 1784.13,-216.101 1802.61,-217.848 1869.88,-199 1974.76,-169.611 1997.76,-151.556 2102.88,-123 2173.11,-103.92 2256.85,-87.0474 2301.71,-78.4754"/>
<polygon fill="midnightblue" stroke="midnightblue" points="2302.55,-81.8788 2311.72,-76.577 2301.25,-75.0013 2302.55,-81.8788"/>
</g>
<!-- Node17&#45;&gt;Node11 -->
<g id="edge58" class="edge"><title>Node17&#45;&gt;Node11</title>
<path fill="none" stroke="midnightblue" d="M1447.22,-291.5C1506.15,-276.963 1601.36,-253.766 1683.88,-235 1758.34,-218.067 1803.87,-258.384 1851.88,-199 1860.71,-188.072 1866.71,-153.691 1847.88,-123 1835.9,-103.487 1813.31,-90.5354 1794.57,-82.6384"/>
<polygon fill="midnightblue" stroke="midnightblue" points="1795.79,-79.3555 1785.2,-78.9615 1793.23,-85.872 1795.79,-79.3555"/>
</g>
<!-- Node18 -->
<g id="node18" class="node"><title>Node18</title>
<g id="a_node18"><a xlink:href="runtime_2module_8h.html" target="_top" xlink:title="Runtime container of the functions generated by TVM, This is used to support dynamically link...">
<polygon fill="white" stroke="black" points="1431.88,-235.5 1431.88,-254.5 1555.88,-254.5 1555.88,-235.5 1431.88,-235.5"/>
<text text-anchor="middle" x="1493.88" y="-242.5" font-family="Helvetica,sans-Serif" font-size="10.00">tvm/runtime/module.h</text>
</a>
</g>
</g>
<!-- Node17&#45;&gt;Node18 -->
<g id="edge25" class="edge"><title>Node17&#45;&gt;Node18</title>
<path fill="none" stroke="midnightblue" d="M1409.45,-291.399C1425.02,-281.684 1447.26,-268.855 1465.1,-259.314"/>
<polygon fill="midnightblue" stroke="midnightblue" points="1466.74,-262.406 1473.96,-254.658 1463.48,-256.209 1466.74,-262.406"/>
</g>
<!-- Node20 -->
<g id="node20" class="node"><title>Node20</title>
<polygon fill="white" stroke="#bfbfbf" points="1564.38,-179.5 1564.38,-198.5 1621.38,-198.5 1621.38,-179.5 1564.38,-179.5"/>
<text text-anchor="middle" x="1592.88" y="-186.5" font-family="Helvetica,sans-Serif" font-size="10.00">memory</text>
</g>
<!-- Node17&#45;&gt;Node20 -->
<g id="edge57" class="edge"><title>Node17&#45;&gt;Node20</title>
<path fill="none" stroke="midnightblue" d="M1447.78,-301.397C1485.01,-295.978 1532.57,-283.52 1564.88,-255 1578.53,-242.947 1585.76,-223.062 1589.43,-208.454"/>
<polygon fill="midnightblue" stroke="midnightblue" points="1592.88,-209.045 1591.59,-198.529 1586.04,-207.557 1592.88,-209.045"/>
</g>
<!-- Node17&#45;&gt;Node21 -->
<g id="edge54" class="edge"><title>Node17&#45;&gt;Node21</title>
<path fill="none" stroke="midnightblue" d="M1334.34,-297.295C1257.04,-285.937 1122.4,-265.624 1073.88,-255 1002.42,-239.353 920.329,-214.751 875.477,-200.731"/>
<polygon fill="midnightblue" stroke="midnightblue" points="876.285,-197.316 865.696,-197.656 874.186,-203.994 876.285,-197.316"/>
</g>
<!-- Node23 -->
<g id="node23" class="node"><title>Node23</title>
<g id="a_node23"><a xlink:href="ndarray_8h.html" target="_top" xlink:title="A device&#45;independent managed NDArray abstraction. ">
<polygon fill="white" stroke="black" points="1116.38,-235.5 1116.38,-254.5 1239.38,-254.5 1239.38,-235.5 1116.38,-235.5"/>
<text text-anchor="middle" x="1177.88" y="-242.5" font-family="Helvetica,sans-Serif" font-size="10.00">tvm/runtime/ndarray.h</text>
</a>
</g>
</g>
<!-- Node17&#45;&gt;Node23 -->
<g id="edge35" class="edge"><title>Node17&#45;&gt;Node23</title>
<path fill="none" stroke="midnightblue" d="M1340.67,-291.475C1303.28,-281.03 1252.9,-266.958 1218.14,-257.247"/>
<polygon fill="midnightblue" stroke="midnightblue" points="1218.9,-253.826 1208.33,-254.506 1217.02,-260.568 1218.9,-253.826"/>
</g>
<!-- Node26 -->
<g id="node26" class="node"><title>Node26</title>
<g id="a_node26"><a xlink:href="data__type_8h.html" target="_top" xlink:title="tvm/runtime/data_type.h">
<polygon fill="white" stroke="black" points="303.878,-235.5 303.878,-254.5 439.878,-254.5 439.878,-235.5 303.878,-235.5"/>
<text text-anchor="middle" x="371.878" y="-242.5" font-family="Helvetica,sans-Serif" font-size="10.00">tvm/runtime/data_type.h</text>
</a>
</g>
</g>
<!-- Node17&#45;&gt;Node26 -->
<g id="edge46" class="edge"><title>Node17&#45;&gt;Node26</title>
<path fill="none" stroke="midnightblue" d="M1334.31,-296.742C1318.66,-294.576 1301.64,-292.46 1285.88,-291 950.933,-259.961 865.8,-272.565 529.878,-255 503.955,-253.644 475.644,-252.064 450.241,-250.608"/>
<polygon fill="midnightblue" stroke="midnightblue" points="450.104,-247.095 439.92,-250.015 449.702,-254.083 450.104,-247.095"/>
</g>
<!-- Node27 -->
<g id="node27" class="node"><title>Node27</title>
<polygon fill="white" stroke="#bfbfbf" points="2014.38,-235.5 2014.38,-254.5 2077.38,-254.5 2077.38,-235.5 2014.38,-235.5"/>
<text text-anchor="middle" x="2045.88" y="-242.5" font-family="Helvetica,sans-Serif" font-size="10.00">functional</text>
</g>
<!-- Node17&#45;&gt;Node27 -->
<g id="edge52" class="edge"><title>Node17&#45;&gt;Node27</title>
<path fill="none" stroke="midnightblue" d="M1447.57,-300.35C1576.86,-288.605 1891.05,-260.065 2004.31,-249.776"/>
<polygon fill="midnightblue" stroke="midnightblue" points="2004.68,-253.257 2014.32,-248.867 2004.04,-246.286 2004.68,-253.257"/>
</g>
<!-- Node28 -->
<g id="node28" class="node"><title>Node28</title>
<polygon fill="white" stroke="#bfbfbf" points="1372.38,-235.5 1372.38,-254.5 1413.38,-254.5 1413.38,-235.5 1372.38,-235.5"/>
<text text-anchor="middle" x="1392.88" y="-242.5" font-family="Helvetica,sans-Serif" font-size="10.00">tuple</text>
</g>
<!-- Node17&#45;&gt;Node28 -->
<g id="edge53" class="edge"><title>Node17&#45;&gt;Node28</title>
<path fill="none" stroke="midnightblue" d="M1391.35,-291.399C1391.62,-283.466 1391.96,-273.458 1392.24,-264.858"/>
<polygon fill="midnightblue" stroke="midnightblue" points="1395.75,-264.77 1392.59,-254.658 1388.75,-264.535 1395.75,-264.77"/>
</g>
<!-- Node17&#45;&gt;Node29 -->
<g id="edge56" class="edge"><title>Node17&#45;&gt;Node29</title>
<path fill="none" stroke="midnightblue" d="M1447.42,-298.272C1511.77,-289.659 1619.89,-274.017 1711.88,-255 1713.16,-254.736 1714.46,-254.455 1715.77,-254.162"/>
<polygon fill="midnightblue" stroke="midnightblue" points="1716.94,-257.481 1725.86,-251.753 1715.32,-250.673 1716.94,-257.481"/>
</g>
<!-- Node18&#45;&gt;Node3 -->
<g id="edge28" class="edge"><title>Node18&#45;&gt;Node3</title>
<path fill="none" stroke="midnightblue" d="M1431.83,-236.203C1428.46,-235.793 1425.13,-235.39 1421.88,-235 1282.41,-218.288 1246.18,-223.602 1107.88,-199 1025.9,-184.418 931.628,-159.652 879.592,-145.267"/>
<polygon fill="midnightblue" stroke="midnightblue" points="880.337,-141.841 869.765,-142.535 878.462,-148.586 880.337,-141.841"/>
</g>
<!-- Node18&#45;&gt;Node5 -->
<g id="edge27" class="edge"><title>Node18&#45;&gt;Node5</title>
<path fill="none" stroke="midnightblue" d="M1431.53,-236.147C1331.12,-223.486 1144.38,-199.881 1140.88,-199 1095.17,-187.493 987.314,-138.708 942.878,-123 909.722,-111.279 872.239,-99.111 842.325,-89.6563"/>
<polygon fill="midnightblue" stroke="midnightblue" points="843.078,-86.2238 832.488,-86.5585 840.975,-92.9006 843.078,-86.2238"/>
</g>
<!-- Node18&#45;&gt;Node10 -->
<g id="edge32" class="edge"><title>Node18&#45;&gt;Node10</title>
<path fill="none" stroke="midnightblue" d="M1499.49,-235.336C1509.09,-221.257 1530.03,-193.527 1554.88,-179 1644.96,-126.341 1679.97,-140.254 1782.88,-123 1978.21,-90.2492 2216.32,-77.4957 2301.59,-73.7722"/>
<polygon fill="midnightblue" stroke="midnightblue" points="2301.84,-77.265 2311.68,-73.3431 2301.54,-70.2713 2301.84,-77.265"/>
</g>
<!-- Node18&#45;&gt;Node15 -->
<g id="edge29" class="edge"><title>Node18&#45;&gt;Node15</title>
<path fill="none" stroke="midnightblue" d="M1539.2,-235.444C1589.51,-225.944 1670.72,-210.611 1724.69,-200.42"/>
<polygon fill="midnightblue" stroke="midnightblue" points="1725.6,-203.811 1734.77,-198.516 1724.3,-196.933 1725.6,-203.811"/>
</g>
<!-- Node18&#45;&gt;Node17 -->
<g id="edge34" class="edge"><title>Node18&#45;&gt;Node17</title>
<path fill="none" stroke="midnightblue" d="M1483.82,-254.658C1471.22,-262.971 1449.46,-275.81 1430.1,-286.506"/>
<polygon fill="midnightblue" stroke="midnightblue" points="1428.23,-283.539 1421.13,-291.399 1431.58,-289.684 1428.23,-283.539"/>
</g>
<!-- Node19 -->
<g id="node19" class="node"><title>Node19</title>
<polygon fill="white" stroke="#bfbfbf" points="1257.88,-123.5 1257.88,-142.5 1317.88,-142.5 1317.88,-123.5 1257.88,-123.5"/>
<text text-anchor="middle" x="1287.88" y="-130.5" font-family="Helvetica,sans-Serif" font-size="10.00">dmlc/io.h</text>
</g>
<!-- Node18&#45;&gt;Node19 -->
<g id="edge26" class="edge"><title>Node18&#45;&gt;Node19</title>
<path fill="none" stroke="midnightblue" d="M1477.71,-235.368C1441.91,-216.251 1355.73,-170.229 1312.9,-147.361"/>
<polygon fill="midnightblue" stroke="midnightblue" points="1314.44,-144.214 1303.97,-142.591 1311.14,-150.389 1314.44,-144.214"/>
</g>
<!-- Node18&#45;&gt;Node20 -->
<g id="edge30" class="edge"><title>Node18&#45;&gt;Node20</title>
<path fill="none" stroke="midnightblue" d="M1509.78,-235.324C1525.52,-226.743 1549.82,-213.486 1568.09,-203.522"/>
<polygon fill="midnightblue" stroke="midnightblue" points="1569.91,-206.516 1577.01,-198.655 1566.56,-200.37 1569.91,-206.516"/>
</g>
<!-- Node18&#45;&gt;Node21 -->
<g id="edge31" class="edge"><title>Node18&#45;&gt;Node21</title>
<path fill="none" stroke="midnightblue" d="M1431.85,-236.059C1428.48,-235.686 1425.14,-235.33 1421.88,-235 1214.52,-214.008 964.583,-197.618 875.453,-192.052"/>
<polygon fill="midnightblue" stroke="midnightblue" points="875.592,-188.554 865.394,-191.427 875.158,-195.54 875.592,-188.554"/>
</g>
<!-- Node22 -->
<g id="node22" class="node"><title>Node22</title>
<polygon fill="white" stroke="#bfbfbf" points="2014.38,-179.5 2014.38,-198.5 2107.38,-198.5 2107.38,-179.5 2014.38,-179.5"/>
<text text-anchor="middle" x="2060.88" y="-186.5" font-family="Helvetica,sans-Serif" font-size="10.00">unordered_map</text>
</g>
<!-- Node18&#45;&gt;Node22 -->
<g id="edge33" class="edge"><title>Node18&#45;&gt;Node22</title>
<path fill="none" stroke="midnightblue" d="M1555.91,-238.092C1666.73,-227.538 1897.1,-205.598 2004.05,-195.412"/>
<polygon fill="midnightblue" stroke="midnightblue" points="2004.69,-198.867 2014.32,-194.434 2004.03,-191.898 2004.69,-198.867"/>
</g>
<!-- Node23&#45;&gt;Node3 -->
<g id="edge37" class="edge"><title>Node23&#45;&gt;Node3</title>
<path fill="none" stroke="midnightblue" d="M1134.57,-235.452C1096.93,-227.541 1041.18,-214.655 993.878,-199 990.725,-197.956 913.261,-165.137 869.428,-146.542"/>
<polygon fill="midnightblue" stroke="midnightblue" points="870.68,-143.271 860.107,-142.587 867.945,-149.715 870.68,-143.271"/>
</g>
<!-- Node23&#45;&gt;Node5 -->
<g id="edge36" class="edge"><title>Node23&#45;&gt;Node5</title>
<path fill="none" stroke="midnightblue" d="M1159.21,-235.499C1115.33,-215.55 1002.13,-164.303 906.878,-123 881.566,-112.024 853.11,-100.034 830.263,-90.4925"/>
<polygon fill="midnightblue" stroke="midnightblue" points="831.418,-87.1818 820.841,-86.5631 828.723,-93.6425 831.418,-87.1818"/>
</g>
<!-- Node23&#45;&gt;Node11 -->
<g id="edge45" class="edge"><title>Node23&#45;&gt;Node11</title>
<path fill="none" stroke="midnightblue" d="M1206.94,-235.495C1306.18,-206.45 1631.19,-111.334 1733.06,-81.5207"/>
<polygon fill="midnightblue" stroke="midnightblue" points="1734.13,-84.8534 1742.74,-78.6854 1732.16,-78.1352 1734.13,-84.8534"/>
</g>
<!-- Node23&#45;&gt;Node12 -->
<g id="edge43" class="edge"><title>Node23&#45;&gt;Node12</title>
<path fill="none" stroke="midnightblue" d="M1165.53,-235.495C1125.62,-208.008 999.802,-121.349 949.731,-86.8623"/>
<polygon fill="midnightblue" stroke="midnightblue" points="951.522,-83.8459 941.301,-81.056 947.551,-89.6109 951.522,-83.8459"/>
</g>
<!-- Node23&#45;&gt;Node21 -->
<g id="edge44" class="edge"><title>Node23&#45;&gt;Node21</title>
<path fill="none" stroke="midnightblue" d="M1124.64,-235.444C1054.78,-224.217 934.221,-204.841 875.701,-195.436"/>
<polygon fill="midnightblue" stroke="midnightblue" points="875.951,-191.931 865.523,-193.8 874.841,-198.843 875.951,-191.931"/>
</g>
<!-- Node24 -->
<g id="node24" class="node"><title>Node24</title>
<g id="a_node24"><a xlink:href="serializer_8h.html" target="_top" xlink:title="Serializer extension to support TVM data types Include this file to enable serialization of DLDataTyp...">
<polygon fill="white" stroke="black" points="1149.88,-179.5 1149.88,-198.5 1279.88,-198.5 1279.88,-179.5 1149.88,-179.5"/>
<text text-anchor="middle" x="1214.88" y="-186.5" font-family="Helvetica,sans-Serif" font-size="10.00">tvm/runtime/serializer.h</text>
</a>
</g>
</g>
<!-- Node23&#45;&gt;Node24 -->
<g id="edge38" class="edge"><title>Node23&#45;&gt;Node24</title>
<path fill="none" stroke="midnightblue" d="M1178.82,-235.083C1182.48,-227.377 1189.87,-216.033 1197.18,-206.653"/>
<polygon fill="midnightblue" stroke="midnightblue" points="1200.05,-208.678 1203.75,-198.751 1194.67,-204.202 1200.05,-208.678"/>
</g>
<!-- Node24&#45;&gt;Node5 -->
<g id="edge41" class="edge"><title>Node24&#45;&gt;Node5</title>
<path fill="none" stroke="midnightblue" d="M1200.46,-179.475C1173.37,-163.593 1115.66,-130.413 1093.88,-123 1072.17,-115.611 944.129,-95.7979 860.409,-83.2986"/>
<polygon fill="midnightblue" stroke="midnightblue" points="860.836,-79.8236 850.429,-81.8118 859.804,-86.7472 860.836,-79.8236"/>
</g>
<!-- Node24&#45;&gt;Node19 -->
<g id="edge39" class="edge"><title>Node24&#45;&gt;Node19</title>
<path fill="none" stroke="midnightblue" d="M1226.61,-179.324C1237.72,-171.107 1254.62,-158.602 1267.86,-148.807"/>
<polygon fill="midnightblue" stroke="midnightblue" points="1269.98,-151.595 1275.94,-142.834 1265.82,-145.967 1269.98,-151.595"/>
</g>
<!-- Node24&#45;&gt;Node23 -->
<g id="edge42" class="edge"><title>Node24&#45;&gt;Node23</title>
<path fill="none" stroke="midnightblue" d="M1214.01,-198.751C1210.41,-206.405 1203.04,-217.736 1195.74,-227.144"/>
<polygon fill="midnightblue" stroke="midnightblue" points="1192.84,-225.15 1189.15,-235.083 1198.23,-229.618 1192.84,-225.15"/>
</g>
<!-- Node25 -->
<g id="node25" class="node"><title>Node25</title>
<polygon fill="white" stroke="#bfbfbf" points="1145.88,-123.5 1145.88,-142.5 1239.88,-142.5 1239.88,-123.5 1145.88,-123.5"/>
<text text-anchor="middle" x="1192.88" y="-130.5" font-family="Helvetica,sans-Serif" font-size="10.00">dmlc/serializer.h</text>
</g>
<!-- Node24&#45;&gt;Node25 -->
<g id="edge40" class="edge"><title>Node24&#45;&gt;Node25</title>
<path fill="none" stroke="midnightblue" d="M1211.25,-179.083C1208.27,-171.77 1203.95,-161.181 1200.25,-152.103"/>
<polygon fill="midnightblue" stroke="midnightblue" points="1203.46,-150.691 1196.44,-142.751 1196.98,-153.333 1203.46,-150.691"/>
</g>
<!-- Node26&#45;&gt;Node4 -->
<g id="edge48" class="edge"><title>Node26&#45;&gt;Node4</title>
<path fill="none" stroke="midnightblue" d="M303.82,-235.471C207.888,-221.837 40.771,-191.607 6.87816,-143 -23.6794,-99.1765 60.2426,-82.4519 119.614,-76.1709"/>
<polygon fill="midnightblue" stroke="midnightblue" points="120.036,-79.6463 129.644,-75.1824 119.349,-72.6801 120.036,-79.6463"/>
</g>
<!-- Node26&#45;&gt;Node5 -->
<g id="edge47" class="edge"><title>Node26&#45;&gt;Node5</title>
<path fill="none" stroke="midnightblue" d="M366.031,-235.403C352.006,-213.629 319.711,-155.723 348.878,-123 372.633,-96.3488 594.383,-81.7222 712.93,-75.7483"/>
<polygon fill="midnightblue" stroke="midnightblue" points="713.21,-79.2388 723.025,-75.2479 712.863,-72.2473 713.21,-79.2388"/>
</g>
<!-- Node26&#45;&gt;Node9 -->
<g id="edge49" class="edge"><title>Node26&#45;&gt;Node9</title>
<path fill="none" stroke="midnightblue" d="M375.353,-235.259C385.091,-212.079 415.101,-149.034 462.878,-123 560.697,-69.6977 852.405,-101.331 962.878,-87 973.51,-85.6208 984.893,-83.7165 995.558,-81.7412"/>
<polygon fill="midnightblue" stroke="midnightblue" points="996.349,-85.1536 1005.51,-79.8403 995.036,-78.2777 996.349,-85.1536"/>
</g>
<!-- Node26&#45;&gt;Node10 -->
<g id="edge50" class="edge"><title>Node26&#45;&gt;Node10</title>
<path fill="none" stroke="midnightblue" d="M439.898,-241.32C637.974,-233.424 1205.64,-210.105 1288.88,-199 1444.94,-178.18 1479.07,-145.62 1634.88,-123 1890.17,-85.937 2202.07,-75.6262 2301.69,-73.1775"/>
<polygon fill="midnightblue" stroke="midnightblue" points="2301.8,-76.6759 2311.72,-72.9403 2301.64,-69.6778 2301.8,-76.6759"/>
</g>
<!-- Node32&#45;&gt;Node3 -->
<g id="edge70" class="edge"><title>Node32&#45;&gt;Node3</title>
<path fill="none" stroke="midnightblue" d="M615.219,-537.485C605.072,-518.119 581.878,-469.037 581.878,-425 581.878,-425 581.878,-425 581.878,-305.5 581.878,-241.458 595.878,-211.808 650.878,-179 687.153,-157.362 733.164,-146.125 770.705,-140.292"/>
<polygon fill="midnightblue" stroke="midnightblue" points="771.663,-143.689 781.054,-138.785 770.654,-136.762 771.663,-143.689"/>
</g>
<!-- Node32&#45;&gt;Node5 -->
<g id="edge69" class="edge"><title>Node32&#45;&gt;Node5</title>
<path fill="none" stroke="midnightblue" d="M560.031,-539.736C525.796,-533.894 483.342,-522.641 450.878,-501 330.206,-420.559 220.572,-374.019 261.878,-235 278.801,-178.043 284.292,-154.169 334.878,-123 396.482,-85.0424 601.553,-75.5507 713.091,-73.2211"/>
<polygon fill="midnightblue" stroke="midnightblue" points="713.327,-76.7173 723.257,-73.0232 713.19,-69.7186 713.327,-76.7173"/>
</g>
<!-- Node32&#45;&gt;Node9 -->
<g id="edge103" class="edge"><title>Node32&#45;&gt;Node9</title>
<path fill="none" stroke="midnightblue" d="M611.066,-537.216C603.109,-528.72 591.773,-515.092 585.878,-501 564.558,-450.031 571.889,-433.103 567.878,-378 561.25,-286.938 547.607,-236.067 618.878,-179 675.403,-133.741 702.062,-142.214 771.878,-123 772.217,-122.907 919.402,-95.1865 995.477,-80.8608"/>
<polygon fill="midnightblue" stroke="midnightblue" points="996.537,-84.2227 1005.72,-78.9325 995.242,-77.3436 996.537,-84.2227"/>
</g>
<!-- Node32&#45;&gt;Node10 -->
<g id="edge102" class="edge"><title>Node32&#45;&gt;Node10</title>
<path fill="none" stroke="midnightblue" d="M679.495,-545.958C824.347,-545.22 1206.12,-539.452 1521.88,-501 1805.51,-466.46 1886.45,-481.229 2152.88,-378 2254.05,-338.8 2279.44,-300.079 2318.88,-199 2328.33,-174.769 2332.06,-168.729 2335.88,-143 2337.18,-134.207 2336.05,-131.887 2335.88,-123 2335.67,-112.522 2335.22,-100.829 2334.8,-91.3351"/>
<polygon fill="midnightblue" stroke="midnightblue" points="2338.28,-90.9004 2334.32,-81.0749 2331.29,-91.2276 2338.28,-90.9004"/>
</g>
<!-- Node32&#45;&gt;Node15 -->
<g id="edge71" class="edge"><title>Node32&#45;&gt;Node15</title>
<path fill="none" stroke="midnightblue" d="M679.623,-545.78C939.218,-543.266 1961.76,-516.701 2085.88,-255 2089.69,-246.969 2091.69,-241.727 2085.88,-235 2056.47,-200.949 1934.43,-192.195 1853.65,-190.21"/>
<polygon fill="midnightblue" stroke="midnightblue" points="1853.59,-186.708 1843.52,-189.991 1853.44,-193.707 1853.59,-186.708"/>
</g>
<!-- Node32&#45;&gt;Node17 -->
<g id="edge72" class="edge"><title>Node32&#45;&gt;Node17</title>
<path fill="none" stroke="midnightblue" d="M630.15,-537.315C652.699,-518.321 705.287,-474.42 714.878,-470 912.548,-378.898 985.992,-435.625 1195.88,-378 1249.16,-363.371 1308.65,-340.94 1347.75,-325.322"/>
<polygon fill="midnightblue" stroke="midnightblue" points="1349.26,-328.486 1357.23,-321.507 1346.65,-321.992 1349.26,-328.486"/>
</g>
<!-- Node32&#45;&gt;Node21 -->
<g id="edge101" class="edge"><title>Node32&#45;&gt;Node21</title>
<path fill="none" stroke="midnightblue" d="M621.278,-537.218C623.815,-522.696 629.948,-492.996 640.878,-470 693.27,-359.776 789.757,-247.463 826.827,-206.349"/>
<polygon fill="midnightblue" stroke="midnightblue" points="829.471,-208.643 833.608,-198.889 824.292,-203.934 829.471,-208.643"/>
</g>
<!-- Node32&#45;&gt;Node23 -->
<g id="edge73" class="edge"><title>Node32&#45;&gt;Node23</title>
<path fill="none" stroke="midnightblue" d="M623.808,-537.323C631.192,-521.879 648.524,-489.423 671.878,-470 711.726,-436.86 1043.92,-300.432 1147.3,-258.391"/>
<polygon fill="midnightblue" stroke="midnightblue" points="1148.62,-261.63 1156.57,-254.623 1145.99,-255.145 1148.62,-261.63"/>
</g>
<!-- Node32&#45;&gt;Node26 -->
<g id="edge74" class="edge"><title>Node32&#45;&gt;Node26</title>
<path fill="none" stroke="midnightblue" d="M575.14,-537.436C548.944,-530.766 516.318,-519.45 491.878,-501 416.408,-444.029 401.614,-413.266 376.878,-322 371.751,-303.084 370.885,-280.595 371.064,-265.012"/>
<polygon fill="midnightblue" stroke="midnightblue" points="374.574,-264.708 371.352,-254.615 367.577,-264.514 374.574,-264.708"/>
</g>
<!-- Node32&#45;&gt;Node33 -->
<g id="edge75" class="edge"><title>Node32&#45;&gt;Node33</title>
<path fill="none" stroke="midnightblue" d="M642.802,-537.475C666.092,-528.814 702.849,-515.145 732.439,-504.141"/>
<polygon fill="midnightblue" stroke="midnightblue" points="734.016,-507.289 742.169,-500.523 731.576,-500.728 734.016,-507.289"/>
</g>
<!-- Node32&#45;&gt;Node36 -->
<g id="edge95" class="edge"><title>Node32&#45;&gt;Node36</title>
<path fill="none" stroke="midnightblue" d="M679.495,-539.967C790.167,-528.768 1026.58,-504.845 1141.89,-493.177"/>
<polygon fill="midnightblue" stroke="midnightblue" points="1142.4,-496.644 1152,-492.155 1141.69,-489.679 1142.4,-496.644"/>
</g>
<!-- Node33&#45;&gt;Node10 -->
<g id="edge94" class="edge"><title>Node33&#45;&gt;Node10</title>
<path fill="none" stroke="midnightblue" d="M835.452,-482.031C1035.64,-472.721 1719.09,-437.228 1928.88,-378 2111.51,-326.438 2273.62,-145.245 2320.37,-89.1684"/>
<polygon fill="midnightblue" stroke="midnightblue" points="2323.21,-91.2251 2326.87,-81.2817 2317.81,-86.7739 2323.21,-91.2251"/>
</g>
<!-- Node33&#45;&gt;Node26 -->
<g id="edge76" class="edge"><title>Node33&#45;&gt;Node26</title>
<path fill="none" stroke="midnightblue" d="M724.227,-482.455C647.445,-476.723 508.991,-455.502 424.878,-378 391.678,-347.409 378.867,-293.195 374.256,-264.696"/>
<polygon fill="midnightblue" stroke="midnightblue" points="377.679,-263.908 372.785,-254.511 370.75,-264.908 377.679,-263.908"/>
</g>
<!-- Node34 -->
<g id="node34" class="node"><title>Node34</title>
<g id="a_node34"><a xlink:href="functor_8h.html" target="_top" xlink:title="Defines the Functor data structures. ">
<polygon fill="white" stroke="black" points="610.378,-235.5 610.378,-254.5 717.378,-254.5 717.378,-235.5 610.378,-235.5"/>
<text text-anchor="middle" x="663.878" y="-242.5" font-family="Helvetica,sans-Serif" font-size="10.00">tvm/node/functor.h</text>
</a>
</g>
</g>
<!-- Node33&#45;&gt;Node34 -->
<g id="edge77" class="edge"><title>Node33&#45;&gt;Node34</title>
<path fill="none" stroke="midnightblue" d="M764.161,-470.287C744.156,-451.277 710.023,-415.583 691.878,-378 673.778,-340.511 667.315,-291.464 665.054,-264.969"/>
<polygon fill="midnightblue" stroke="midnightblue" points="668.53,-264.514 664.303,-254.799 661.549,-265.03 668.53,-264.514"/>
</g>
<!-- Node33&#45;&gt;Node35 -->
<g id="edge83" class="edge"><title>Node33&#45;&gt;Node35</title>
<path fill="none" stroke="midnightblue" d="M835.671,-478.189C932.266,-467.262 1130.41,-444.848 1236.01,-432.903"/>
<polygon fill="midnightblue" stroke="midnightblue" points="1236.7,-436.348 1246.24,-431.746 1235.91,-429.392 1236.7,-436.348"/>
</g>
<!-- Node34&#45;&gt;Node3 -->
<g id="edge79" class="edge"><title>Node34&#45;&gt;Node3</title>
<path fill="none" stroke="midnightblue" d="M660.464,-235.357C655.732,-221.799 649.115,-195.391 661.878,-179 675.504,-161.501 726.914,-149.729 771.003,-142.629"/>
<polygon fill="midnightblue" stroke="midnightblue" points="771.807,-146.046 781.152,-141.055 770.733,-139.129 771.807,-146.046"/>
</g>
<!-- Node34&#45;&gt;Node4 -->
<g id="edge78" class="edge"><title>Node34&#45;&gt;Node4</title>
<path fill="none" stroke="midnightblue" d="M639.529,-235.495C558.875,-207.324 300.273,-116.997 206.905,-84.3852"/>
<polygon fill="midnightblue" stroke="midnightblue" points="207.969,-81.0494 197.374,-81.056 205.66,-87.6579 207.969,-81.0494"/>
</g>
<!-- Node34&#45;&gt;Node9 -->
<g id="edge81" class="edge"><title>Node34&#45;&gt;Node9</title>
<path fill="none" stroke="midnightblue" d="M676.093,-235.485C696.112,-221.866 737.522,-195.082 775.878,-179 831.562,-155.652 850.756,-165.273 906.878,-143 947.333,-126.945 991.442,-101.941 1017.33,-86.4272"/>
<polygon fill="midnightblue" stroke="midnightblue" points="1019.26,-89.3493 1026,-81.1751 1015.63,-83.3618 1019.26,-89.3493"/>
</g>
<!-- Node34&#45;&gt;Node11 -->
<g id="edge82" class="edge"><title>Node34&#45;&gt;Node11</title>
<path fill="none" stroke="midnightblue" d="M685.844,-235.408C707.646,-226.73 741.906,-212.685 770.878,-199 788.135,-190.849 790.803,-185.126 808.878,-179 986.347,-118.848 1587.75,-82.2553 1732.4,-74.1943"/>
<polygon fill="midnightblue" stroke="midnightblue" points="1732.97,-77.6684 1742.76,-73.6225 1732.58,-70.679 1732.97,-77.6684"/>
</g>
<!-- Node34&#45;&gt;Node21 -->
<g id="edge80" class="edge"><title>Node34&#45;&gt;Node21</title>
<path fill="none" stroke="midnightblue" d="M692.083,-235.444C723.71,-225.849 774.956,-210.302 808.539,-200.114"/>
<polygon fill="midnightblue" stroke="midnightblue" points="809.8,-203.389 818.353,-197.137 807.768,-196.691 809.8,-203.389"/>
</g>
<!-- Node35&#45;&gt;Node3 -->
<g id="edge84" class="edge"><title>Node35&#45;&gt;Node3</title>
<path fill="none" stroke="midnightblue" d="M1246.15,-423.567C1184.66,-421.981 1087.42,-413.314 1011.88,-378 902.908,-327.062 858.374,-308.633 808.878,-199 801.366,-182.362 812.509,-163.557 823.469,-150.471"/>
<polygon fill="midnightblue" stroke="midnightblue" points="826.322,-152.535 830.448,-142.777 821.137,-147.832 826.322,-152.535"/>
</g>
<!-- Node35&#45;&gt;Node9 -->
<g id="edge88" class="edge"><title>Node35&#45;&gt;Node9</title>
<path fill="none" stroke="midnightblue" d="M1307.11,-414.349C1310.11,-393.258 1318.07,-337.505 1324.88,-291 1335.78,-216.489 1395.61,-180.407 1346.88,-123 1313.74,-83.9672 1161.32,-75.051 1084.46,-73.0518"/>
<polygon fill="midnightblue" stroke="midnightblue" points="1084.21,-69.5453 1074.13,-72.8132 1084.05,-76.5434 1084.21,-69.5453"/>
</g>
<!-- Node35&#45;&gt;Node10 -->
<g id="edge93" class="edge"><title>Node35&#45;&gt;Node10</title>
<path fill="none" stroke="midnightblue" d="M1365.44,-421.992C1493.86,-419.238 1792.92,-409.543 1888.88,-378 2073.43,-317.336 2083.95,-233.275 2243.88,-123 2264.35,-108.883 2289.08,-95.2281 2307.43,-85.6847"/>
<polygon fill="midnightblue" stroke="midnightblue" points="2309.09,-88.767 2316.39,-81.0881 2305.9,-82.5389 2309.09,-88.767"/>
</g>
<!-- Node35&#45;&gt;Node11 -->
<g id="edge92" class="edge"><title>Node35&#45;&gt;Node11</title>
<path fill="none" stroke="midnightblue" d="M1365.55,-419.219C1430.88,-414.031 1538.29,-402.412 1627.88,-378 1690.55,-360.922 1710.16,-359.955 1762.88,-322 1843.86,-263.689 1921.92,-206.242 1866.88,-123 1850.63,-98.4346 1818.79,-85.3989 1794.79,-78.7695"/>
<polygon fill="midnightblue" stroke="midnightblue" points="1795.6,-75.3654 1785.05,-76.3057 1793.88,-82.1516 1795.6,-75.3654"/>
</g>
<!-- Node35&#45;&gt;Node14 -->
<g id="edge87" class="edge"><title>Node35&#45;&gt;Node14</title>
<path fill="none" stroke="midnightblue" d="M1276.56,-414.444C1245.04,-405.241 1194.75,-390.562 1159.89,-380.388"/>
<polygon fill="midnightblue" stroke="midnightblue" points="1160.63,-376.959 1150.05,-377.516 1158.67,-383.678 1160.63,-376.959"/>
</g>
<!-- Node35&#45;&gt;Node15 -->
<g id="edge85" class="edge"><title>Node35&#45;&gt;Node15</title>
<path fill="none" stroke="midnightblue" d="M1365.6,-418.442C1450.2,-409.877 1607.66,-386.037 1724.88,-322 1762.67,-301.353 1777.96,-294.604 1794.88,-255 1801.4,-239.723 1795.91,-221.16 1789.81,-207.788"/>
<polygon fill="midnightblue" stroke="midnightblue" points="1792.86,-206.06 1785.22,-198.716 1786.61,-209.219 1792.86,-206.06"/>
</g>
<!-- Node35&#45;&gt;Node17 -->
<g id="edge86" class="edge"><title>Node35&#45;&gt;Node17</title>
<path fill="none" stroke="midnightblue" d="M1312.27,-414.319C1325.38,-396.502 1355.68,-355.324 1374.6,-329.615"/>
<polygon fill="midnightblue" stroke="midnightblue" points="1377.43,-331.674 1380.54,-321.545 1371.8,-327.525 1377.43,-331.674"/>
</g>
<!-- Node35&#45;&gt;Node21 -->
<g id="edge89" class="edge"><title>Node35&#45;&gt;Node21</title>
<path fill="none" stroke="midnightblue" d="M1246.12,-423.274C1191.03,-421.154 1108.57,-411.815 1045.88,-378 969.219,-336.654 978.796,-290.75 911.878,-235 897.809,-223.279 880.512,-212.133 866.632,-203.866"/>
<polygon fill="midnightblue" stroke="midnightblue" points="868.052,-200.643 857.65,-198.631 864.527,-206.691 868.052,-200.643"/>
</g>
<!-- Node35&#45;&gt;Node22 -->
<g id="edge91" class="edge"><title>Node35&#45;&gt;Node22</title>
<path fill="none" stroke="midnightblue" d="M1365.75,-422.188C1488.78,-419.854 1765.83,-410.99 1853.88,-378 1940.43,-345.571 1938.4,-299.219 2004.88,-235 2016.06,-224.196 2029.63,-213.243 2040.62,-204.848"/>
<polygon fill="midnightblue" stroke="midnightblue" points="2042.88,-207.522 2048.77,-198.715 2038.68,-201.927 2042.88,-207.522"/>
</g>
<!-- Node35&#45;&gt;Node31 -->
<g id="edge90" class="edge"><title>Node35&#45;&gt;Node31</title>
<path fill="none" stroke="midnightblue" d="M1300.84,-414.319C1289.88,-395.422 1263.68,-350.248 1249.1,-325.121"/>
<polygon fill="midnightblue" stroke="midnightblue" points="1252.02,-323.176 1243.97,-316.282 1245.96,-326.688 1252.02,-323.176"/>
</g>
<!-- Node36&#45;&gt;Node10 -->
<g id="edge99" class="edge"><title>Node36&#45;&gt;Node10</title>
<path fill="none" stroke="midnightblue" d="M1263.55,-482.867C1415.21,-478.09 1833.28,-462.641 1967.88,-434 2038.3,-419.015 2056.49,-412.137 2119.88,-378 2196.39,-336.794 2223.68,-327.314 2271.88,-255 2307.39,-201.714 2324.46,-126.113 2330.81,-91.3351"/>
<polygon fill="midnightblue" stroke="midnightblue" points="2334.31,-91.6476 2332.56,-81.1972 2327.41,-90.4536 2334.31,-91.6476"/>
</g>
<!-- Node36&#45;&gt;Node26 -->
<g id="edge96" class="edge"><title>Node36&#45;&gt;Node26</title>
<path fill="none" stroke="midnightblue" d="M1152.13,-476.694C1096.01,-468.28 1007.23,-453.436 931.878,-434 726.475,-381.02 487.411,-290.922 403.173,-258.274"/>
<polygon fill="midnightblue" stroke="midnightblue" points="404.269,-254.945 393.681,-254.583 401.733,-261.469 404.269,-254.945"/>
</g>
<!-- Node36&#45;&gt;Node27 -->
<g id="edge100" class="edge"><title>Node36&#45;&gt;Node27</title>
<path fill="none" stroke="midnightblue" d="M1263.47,-485.17C1383.1,-484.651 1671.72,-472.768 1888.88,-378 1950.7,-351.023 2006.98,-291.707 2032.08,-262.673"/>
<polygon fill="midnightblue" stroke="midnightblue" points="2035.04,-264.594 2038.84,-254.704 2029.71,-260.066 2035.04,-264.594"/>
</g>
<!-- Node36&#45;&gt;Node34 -->
<g id="edge97" class="edge"><title>Node36&#45;&gt;Node34</title>
<path fill="none" stroke="midnightblue" d="M1152.36,-474.322C1079.4,-459.589 948.473,-428.423 845.878,-378 779.596,-345.424 711.871,-288.894 681.044,-261.614"/>
<polygon fill="midnightblue" stroke="midnightblue" points="683.146,-258.798 673.359,-254.74 678.479,-264.016 683.146,-258.798"/>
</g>
<!-- Node36&#45;&gt;Node35 -->
<g id="edge98" class="edge"><title>Node36&#45;&gt;Node35</title>
<path fill="none" stroke="midnightblue" d="M1231.1,-470.399C1246.66,-460.951 1267.08,-448.559 1282.64,-439.109"/>
<polygon fill="midnightblue" stroke="midnightblue" points="1284.89,-441.839 1291.62,-433.658 1281.25,-435.856 1284.89,-441.839"/>
</g>
<!-- Node37&#45;&gt;Node34 -->
<g id="edge105" class="edge"><title>Node37&#45;&gt;Node34</title>
<path fill="none" stroke="midnightblue" d="M467.688,-537.391C467.559,-515.445 469.469,-456.164 491.878,-414 528.719,-344.681 604.254,-286.544 641.751,-260.57"/>
<polygon fill="midnightblue" stroke="midnightblue" points="644.12,-263.191 650.418,-254.672 640.181,-257.404 644.12,-263.191"/>
</g>
<!-- Node38 -->
<g id="node38" class="node"><title>Node38</title>
<polygon fill="white" stroke="#bfbfbf" points="304.378,-476 304.378,-495 363.378,-495 363.378,-476 304.378,-476"/>
<text text-anchor="middle" x="333.878" y="-483" font-family="Helvetica,sans-Serif" font-size="10.00">iostream</text>
</g>
<!-- Node37&#45;&gt;Node38 -->
<g id="edge106" class="edge"><title>Node37&#45;&gt;Node38</title>
<path fill="none" stroke="midnightblue" d="M448.679,-537.475C426.091,-527.445 388.379,-510.7 362.378,-499.155"/>
<polygon fill="midnightblue" stroke="midnightblue" points="363.601,-495.869 353.041,-495.009 360.761,-502.266 363.601,-495.869"/>
</g>
<!-- Node39&#45;&gt;Node3 -->
<g id="edge116" class="edge"><title>Node39&#45;&gt;Node3</title>
<path fill="none" stroke="midnightblue" d="M1080.42,-656.215C938.771,-649.445 466.515,-622.358 331.878,-557 299.93,-541.491 290.318,-532.982 274.878,-501 223.479,-394.535 206.267,-330.556 275.878,-235 303.618,-196.921 321.243,-194.071 365.878,-179 439.072,-154.286 658.072,-141.672 770.941,-136.663"/>
<polygon fill="midnightblue" stroke="midnightblue" points="771.356,-140.149 781.194,-136.216 771.051,-133.155 771.356,-140.149"/>
</g>
<!-- Node39&#45;&gt;Node10 -->
<g id="edge118" class="edge"><title>Node39&#45;&gt;Node10</title>
<path fill="none" stroke="midnightblue" d="M1161.16,-658.476C1295.99,-659.096 1742.71,-653.262 2094.88,-557 2273.48,-508.179 2340.14,-478.634 2438.88,-322 2486.04,-247.181 2499.56,-187.345 2438.88,-123 2419.05,-101.977 2388.65,-88.6909 2365.66,-81.0538"/>
<polygon fill="midnightblue" stroke="midnightblue" points="2366.58,-77.6758 2356,-78.0276 2364.49,-84.356 2366.58,-77.6758"/>
</g>
<!-- Node39&#45;&gt;Node13 -->
<g id="edge117" class="edge"><title>Node39&#45;&gt;Node13</title>
<path fill="none" stroke="midnightblue" d="M1120.88,-649.083C1120.88,-642.006 1120.88,-631.861 1120.88,-622.986"/>
<polygon fill="midnightblue" stroke="midnightblue" points="1124.38,-622.751 1120.88,-612.751 1117.38,-622.751 1124.38,-622.751"/>
</g>
<!-- Node40&#45;&gt;Node3 -->
<g id="edge120" class="edge"><title>Node40&#45;&gt;Node3</title>
<path fill="none" stroke="midnightblue" d="M1150.05,-713.928C1007.32,-713.349 512.132,-708.476 359.878,-669 245.779,-639.416 123.878,-665.872 123.878,-548 123.878,-548 123.878,-548 123.878,-305.5 123.878,-205.526 215.66,-212.432 309.878,-179 393.046,-149.489 647.449,-138.96 771.045,-135.519"/>
<polygon fill="midnightblue" stroke="midnightblue" points="771.251,-139.015 781.152,-135.246 771.061,-132.018 771.251,-139.015"/>
</g>
<!-- Node40&#45;&gt;Node10 -->
<g id="edge125" class="edge"><title>Node40&#45;&gt;Node10</title>
<path fill="none" stroke="midnightblue" d="M1227.53,-714.527C1327.82,-715.197 1604.17,-712.595 1828.88,-669 2066.89,-622.824 2127.79,-602.704 2347.88,-501 2449.32,-454.123 2561.88,-480.749 2561.88,-369 2561.88,-369 2561.88,-369 2561.88,-188 2561.88,-101.382 2429.31,-79.7038 2366.34,-74.2927"/>
<polygon fill="midnightblue" stroke="midnightblue" points="2366.39,-70.7862 2356.15,-73.5074 2365.86,-77.7655 2366.39,-70.7862"/>
</g>
<!-- Node40&#45;&gt;Node13 -->
<g id="edge122" class="edge"><title>Node40&#45;&gt;Node13</title>
<path fill="none" stroke="midnightblue" d="M1187.86,-705.402C1186.01,-692.359 1181.17,-667.173 1169.88,-649 1162.62,-637.316 1151.5,-626.763 1141.7,-618.818"/>
<polygon fill="midnightblue" stroke="midnightblue" points="1143.6,-615.869 1133.54,-612.544 1139.33,-621.417 1143.6,-615.869"/>
</g>
<!-- Node40&#45;&gt;Node26 -->
<g id="edge121" class="edge"><title>Node40&#45;&gt;Node26</title>
<path fill="none" stroke="midnightblue" d="M1150.21,-712.766C982.304,-707.021 322.209,-680.262 261.878,-613 166.179,-506.308 309.507,-319.221 357.285,-262.659"/>
<polygon fill="midnightblue" stroke="midnightblue" points="360.229,-264.604 364.082,-254.735 354.915,-260.047 360.229,-264.604"/>
</g>
<!-- Node40&#45;&gt;Node35 -->
<g id="edge123" class="edge"><title>Node40&#45;&gt;Node35</title>
<path fill="none" stroke="midnightblue" d="M1227.6,-712.562C1383.11,-706.281 1953.88,-678.176 1953.88,-604 1953.88,-604 1953.88,-604 1953.88,-546 1953.88,-487.674 1542.97,-445.512 1375.58,-430.756"/>
<polygon fill="midnightblue" stroke="midnightblue" points="1375.66,-427.249 1365.39,-429.865 1375.05,-434.223 1375.66,-427.249"/>
</g>
<!-- Node40&#45;&gt;Node39 -->
<g id="edge124" class="edge"><title>Node40&#45;&gt;Node39</title>
<path fill="none" stroke="midnightblue" d="M1177.95,-705.324C1167.7,-697.185 1152.16,-684.839 1139.88,-675.087"/>
<polygon fill="midnightblue" stroke="midnightblue" points="1142.01,-672.312 1132,-668.834 1137.66,-677.794 1142.01,-672.312"/>
</g>
<!-- Node42&#45;&gt;Node2 -->
<g id="edge132" class="edge"><title>Node42&#45;&gt;Node2</title>
<path fill="none" stroke="midnightblue" d="M2294.13,-824.126C2120.47,-815.935 1428.49,-783.301 1237.77,-774.306"/>
<polygon fill="midnightblue" stroke="midnightblue" points="1237.65,-770.796 1227.5,-773.821 1237.32,-777.789 1237.65,-770.796"/>
</g>
<!-- Node42&#45;&gt;Node9 -->
<g id="edge139" class="edge"><title>Node42&#45;&gt;Node9</title>
<path fill="none" stroke="midnightblue" d="M2337.61,-817.23C2359.96,-763.277 2471.19,-472.703 2355.88,-291 2292.81,-191.614 2227.62,-215.997 2115.88,-179 2000.36,-140.754 1968.47,-139.282 1847.88,-123 1558.24,-83.8946 1206.03,-74.9985 1083.99,-73.0365"/>
<polygon fill="midnightblue" stroke="midnightblue" points="1083.97,-69.5358 1073.92,-72.8821 1083.86,-76.535 1083.97,-69.5358"/>
</g>
<!-- Node42&#45;&gt;Node10 -->
<g id="edge140" class="edge"><title>Node42&#45;&gt;Node10</title>
<path fill="none" stroke="midnightblue" d="M2373.38,-823.095C2437.33,-817.76 2559.96,-804.715 2595.88,-781 2624.58,-762.047 2637.88,-750.395 2637.88,-716 2637.88,-716 2637.88,-716 2637.88,-188 2637.88,-153.115 2622.99,-142.228 2593.88,-123 2556.78,-98.493 2427.36,-82.1937 2366.27,-75.6869"/>
<polygon fill="midnightblue" stroke="midnightblue" points="2366.35,-72.1763 2356.04,-74.6211 2365.62,-79.1386 2366.35,-72.1763"/>
</g>
<!-- Node42&#45;&gt;Node11 -->
<g id="edge141" class="edge"><title>Node42&#45;&gt;Node11</title>
<path fill="none" stroke="midnightblue" d="M2355.74,-817.486C2374.7,-809.552 2402.4,-796.616 2423.88,-781 2484.88,-736.642 2542.88,-735.427 2542.88,-660 2542.88,-660 2542.88,-660 2542.88,-546 2542.88,-391.164 2508.19,-329.949 2385.88,-235 2198.29,-89.3734 1892.85,-73.5651 1795.05,-72.3786"/>
<polygon fill="midnightblue" stroke="midnightblue" points="1794.97,-68.878 1784.94,-72.3008 1794.91,-75.8778 1794.97,-68.878"/>
</g>
<!-- Node42&#45;&gt;Node17 -->
<g id="edge135" class="edge"><title>Node42&#45;&gt;Node17</title>
<path fill="none" stroke="midnightblue" d="M2328.59,-817.231C2318.15,-799.043 2295.88,-755.601 2295.88,-716 2295.88,-716 2295.88,-716 2295.88,-602 2295.88,-425.704 1667.03,-338.686 1457.73,-314.606"/>
<polygon fill="midnightblue" stroke="midnightblue" points="1457.82,-311.095 1447.49,-313.44 1457.03,-318.05 1457.82,-311.095"/>
</g>
<!-- Node42&#45;&gt;Node21 -->
<g id="edge137" class="edge"><title>Node42&#45;&gt;Node21</title>
<path fill="none" stroke="midnightblue" d="M2294.28,-825.313C2036.78,-820.657 608.724,-791.862 547.878,-725 541.896,-718.426 543.744,-712.869 547.878,-705 622.179,-563.555 769.577,-642.445 843.878,-501 896.052,-401.678 862.213,-258.703 847.616,-208.37"/>
<polygon fill="midnightblue" stroke="midnightblue" points="850.91,-207.169 844.68,-198.599 844.206,-209.183 850.91,-207.169"/>
</g>
<!-- Node42&#45;&gt;Node22 -->
<g id="edge136" class="edge"><title>Node42&#45;&gt;Node22</title>
<path fill="none" stroke="midnightblue" d="M2373.45,-824.691C2436.19,-821.69 2554.06,-811.972 2579.88,-781 2585.57,-774.172 2582.67,-769.439 2579.88,-761 2562.32,-707.915 2504.88,-715.912 2504.88,-660 2504.88,-660 2504.88,-660 2504.88,-546 2504.88,-340.965 2213.12,-234.41 2102.61,-201.406"/>
<polygon fill="midnightblue" stroke="midnightblue" points="2103.39,-197.986 2092.81,-198.529 2101.42,-204.703 2103.39,-197.986"/>
</g>
<!-- Node42&#45;&gt;Node27 -->
<g id="edge138" class="edge"><title>Node42&#45;&gt;Node27</title>
<path fill="none" stroke="midnightblue" d="M2333.88,-817.353C2333.88,-783.173 2333.88,-654.181 2333.88,-548 2333.88,-548 2333.88,-548 2333.88,-423 2333.88,-308.842 2167.6,-265.976 2087.74,-251.97"/>
<polygon fill="midnightblue" stroke="midnightblue" points="2087.96,-248.46 2077.52,-250.255 2086.8,-255.363 2087.96,-248.46"/>
</g>
<!-- Node42&#45;&gt;Node33 -->
<g id="edge133" class="edge"><title>Node42&#45;&gt;Node33</title>
<path fill="none" stroke="midnightblue" d="M2293.94,-825.975C1994.59,-825.697 112.371,-822.307 71.8782,-781 -15.0326,-692.343 179.218,-596.007 185.878,-593 389.749,-500.96 478.748,-636.368 687.878,-557 715.776,-546.412 742.223,-524.435 759.54,-507.816"/>
<polygon fill="midnightblue" stroke="midnightblue" points="762.172,-510.136 766.826,-500.617 757.252,-505.156 762.172,-510.136"/>
</g>
<!-- Node42&#45;&gt;Node36 -->
<g id="edge134" class="edge"><title>Node42&#45;&gt;Node36</title>
<path fill="none" stroke="midnightblue" d="M2311.44,-817.402C2241,-790.562 2017.68,-706.686 1828.88,-649 1628.43,-587.757 1387.33,-528.794 1273.5,-501.815"/>
<polygon fill="midnightblue" stroke="midnightblue" points="1274.09,-498.357 1263.55,-499.461 1272.47,-505.169 1274.09,-498.357"/>
</g>
<!-- Node43 -->
<g id="node43" class="node"><title>Node43</title>
<polygon fill="white" stroke="#bfbfbf" points="2476.38,-761.5 2476.38,-780.5 2571.38,-780.5 2571.38,-761.5 2476.38,-761.5"/>
<text text-anchor="middle" x="2523.88" y="-768.5" font-family="Helvetica,sans-Serif" font-size="10.00">dmlc/common.h</text>
</g>
<!-- Node42&#45;&gt;Node43 -->
<g id="edge131" class="edge"><title>Node42&#45;&gt;Node43</title>
<path fill="none" stroke="midnightblue" d="M2363.98,-817.444C2396.5,-808.201 2448.46,-793.436 2484.27,-783.257"/>
<polygon fill="midnightblue" stroke="midnightblue" points="2485.25,-786.617 2493.91,-780.516 2483.34,-779.884 2485.25,-786.617"/>
</g>
</g>
</svg>
