<?xml version="1.0" encoding="UTF-8" standalone="no"?>
<!DOCTYPE svg PUBLIC "-//W3C//DTD SVG 1.1//EN"
 "http://www.w3.org/Graphics/SVG/1.1/DTD/svg11.dtd">
<!-- Generated by graphviz version 2.38.0 (20140413.2041)
 -->
<!-- Title: include/tvm/ir/module.h Pages: 1 -->
<svg width="2536pt" height="497pt"
 viewBox="0.00 0.00 2536.00 497.00" xmlns="http://www.w3.org/2000/svg" xmlns:xlink="http://www.w3.org/1999/xlink">
<g id="graph0" class="graph" transform="scale(1 1) rotate(0) translate(4 493)">
<title>include/tvm/ir/module.h</title>
<polygon fill="white" stroke="none" points="-4,4 -4,-493 2532,-493 2532,4 -4,4"/>
<!-- Node1 -->
<g id="node1" class="node"><title>Node1</title>
<polygon fill="#bfbfbf" stroke="black" points="1430.5,-469.5 1430.5,-488.5 1559.5,-488.5 1559.5,-469.5 1430.5,-469.5"/>
<text text-anchor="middle" x="1495" y="-476.5" font-family="Helvetica,sans-Serif" font-size="10.00">include/tvm/ir/module.h</text>
</g>
<!-- Node2 -->
<g id="node2" class="node"><title>Node2</title>
<g id="a_node2"><a xlink:href="driver__api_8h.html" target="_top" xlink:title="Compiler driver APIs to drive the compilation. ">
<polygon fill="white" stroke="black" points="0,-402.5 0,-432.5 102,-432.5 102,-402.5 0,-402.5"/>
<text text-anchor="start" x="8" y="-420.5" font-family="Helvetica,sans-Serif" font-size="10.00">include/tvm/driver</text>
<text text-anchor="middle" x="51" y="-409.5" font-family="Helvetica,sans-Serif" font-size="10.00">/driver_api.h</text>
</a>
</g>
</g>
<!-- Node1&#45;&gt;Node2 -->
<g id="edge1" class="edge"><title>Node1&#45;&gt;Node2</title>
<path fill="none" stroke="midnightblue" d="M1420.37,-477.403C1171.55,-475.123 371.629,-465.394 116,-433 111.527,-432.433 106.908,-431.702 102.291,-430.871"/>
<polygon fill="midnightblue" stroke="midnightblue" points="1420.36,-480.903 1430.4,-477.493 1420.43,-473.903 1420.36,-480.903"/>
</g>
<!-- Node3 -->
<g id="node3" class="node"><title>Node3</title>
<g id="a_node3"><a xlink:href="error_8h.html" target="_top" xlink:title="Utilities for error tracking and reporting. ">
<polygon fill="white" stroke="black" points="158,-274 158,-293 274,-293 274,-274 158,-274"/>
<text text-anchor="middle" x="216" y="-281" font-family="Helvetica,sans-Serif" font-size="10.00">include/tvm/ir/error.h</text>
</a>
</g>
</g>
<!-- Node1&#45;&gt;Node3 -->
<g id="edge2" class="edge"><title>Node1&#45;&gt;Node3</title>
<path fill="none" stroke="midnightblue" d="M1420.38,-472.018C1332.87,-464.618 1183.55,-450.788 1056,-433 747.982,-390.045 380.059,-317.635 257.782,-293"/>
<polygon fill="midnightblue" stroke="midnightblue" points="1420.22,-475.517 1430.48,-472.867 1420.81,-468.542 1420.22,-475.517"/>
</g>
<!-- Node4 -->
<g id="node4" class="node"><title>Node4</title>
<g id="a_node4"><a xlink:href="include_2tvm_2ir_2transform_8h.html" target="_top" xlink:title="include/tvm/ir/transform.h">
<polygon fill="white" stroke="black" points="10,-207 10,-226 150,-226 150,-207 10,-207"/>
<text text-anchor="middle" x="80" y="-214" font-family="Helvetica,sans-Serif" font-size="10.00">include/tvm/ir/transform.h</text>
</a>
</g>
</g>
<!-- Node1&#45;&gt;Node4 -->
<g id="edge9" class="edge"><title>Node1&#45;&gt;Node4</title>
<path fill="none" stroke="midnightblue" d="M1420.01,-475.321C1300.08,-470.455 1057.86,-458.246 854,-433 685.543,-412.138 644.733,-397.828 478,-366 331.423,-338.02 277.404,-375.027 149,-299 117.892,-280.581 94.1404,-242.935 84.5873,-226.04"/>
<polygon fill="midnightblue" stroke="midnightblue" points="1420.05,-478.825 1430.18,-475.728 1420.33,-471.831 1420.05,-478.825"/>
</g>
<!-- Node10 -->
<g id="node10" class="node"><title>Node10</title>
<g id="a_node10"><a xlink:href="type__relation_8h.html" target="_top" xlink:title="Type relation and function for type inference(checking). ">
<polygon fill="white" stroke="black" points="1065.5,-402.5 1065.5,-432.5 1170.5,-432.5 1170.5,-402.5 1065.5,-402.5"/>
<text text-anchor="start" x="1073.5" y="-420.5" font-family="Helvetica,sans-Serif" font-size="10.00">include/tvm/ir/type</text>
<text text-anchor="middle" x="1118" y="-409.5" font-family="Helvetica,sans-Serif" font-size="10.00">_relation.h</text>
</a>
</g>
</g>
<!-- Node1&#45;&gt;Node10 -->
<g id="edge10" class="edge"><title>Node1&#45;&gt;Node10</title>
<path fill="none" stroke="midnightblue" d="M1430.95,-467.891C1357.63,-456.319 1238.89,-437.58 1170.7,-426.817"/>
<polygon fill="midnightblue" stroke="midnightblue" points="1430.56,-471.373 1440.99,-469.475 1431.65,-464.459 1430.56,-471.373"/>
</g>
<!-- Node12 -->
<g id="node12" class="node"><title>Node12</title>
<g id="a_node12"><a xlink:href="relay_2expr_8h.html" target="_top" xlink:title="Relay expression language. ">
<polygon fill="white" stroke="black" points="998.5,-274 998.5,-293 1129.5,-293 1129.5,-274 998.5,-274"/>
<text text-anchor="middle" x="1064" y="-281" font-family="Helvetica,sans-Serif" font-size="10.00">include/tvm/relay/expr.h</text>
</a>
</g>
</g>
<!-- Node1&#45;&gt;Node12 -->
<g id="edge48" class="edge"><title>Node1&#45;&gt;Node12</title>
<path fill="none" stroke="midnightblue" d="M1468.51,-464.784C1416.17,-438.826 1295.57,-379.812 1192,-335 1155.82,-319.347 1113.11,-302.893 1087.31,-293.173"/>
<polygon fill="midnightblue" stroke="midnightblue" points="1467.25,-468.063 1477.76,-469.378 1470.36,-461.795 1467.25,-468.063"/>
</g>
<!-- Node15 -->
<g id="node15" class="node"><title>Node15</title>
<g id="a_node15"><a xlink:href="relay_2analysis_8h.html" target="_top" xlink:title="The set of Relay analysis passes written in C++. ">
<polygon fill="white" stroke="black" points="1039.5,-140 1039.5,-159 1188.5,-159 1188.5,-140 1039.5,-140"/>
<text text-anchor="middle" x="1114" y="-147" font-family="Helvetica,sans-Serif" font-size="10.00">include/tvm/relay/analysis.h</text>
</a>
</g>
</g>
<!-- Node1&#45;&gt;Node15 -->
<g id="edge47" class="edge"><title>Node1&#45;&gt;Node15</title>
<path fill="none" stroke="midnightblue" d="M1569.49,-469.062C1637.99,-456.195 1729,-425.228 1729,-351.5 1729,-351.5 1729,-351.5 1729,-282.5 1729,-245.306 1738.31,-225.128 1710,-201 1666.52,-163.932 1253.72,-171.926 1197,-165 1184.22,-163.44 1170.42,-161.239 1157.81,-159.022"/>
<polygon fill="midnightblue" stroke="midnightblue" points="1568.79,-465.632 1559.56,-470.832 1570.02,-472.523 1568.79,-465.632"/>
</g>
<!-- Node18 -->
<g id="node18" class="node"><title>Node18</title>
<g id="a_node18"><a xlink:href="feature_8h.html" target="_top" xlink:title="Detect features used in Expr/Module. ">
<polygon fill="white" stroke="black" points="1337.5,-207 1337.5,-226 1482.5,-226 1482.5,-207 1337.5,-207"/>
<text text-anchor="middle" x="1410" y="-214" font-family="Helvetica,sans-Serif" font-size="10.00">include/tvm/relay/feature.h</text>
</a>
</g>
</g>
<!-- Node1&#45;&gt;Node18 -->
<g id="edge49" class="edge"><title>Node1&#45;&gt;Node18</title>
<path fill="none" stroke="midnightblue" d="M1488.98,-459.542C1472.12,-407.881 1424.91,-263.192 1412.84,-226.2"/>
<polygon fill="midnightblue" stroke="midnightblue" points="1485.74,-460.912 1492.17,-469.333 1492.4,-458.74 1485.74,-460.912"/>
</g>
<!-- Node20 -->
<g id="node20" class="node"><title>Node20</title>
<g id="a_node20"><a xlink:href="interpreter_8h.html" target="_top" xlink:title="An interpreter for Relay. ">
<polygon fill="white" stroke="black" points="1539.5,-207 1539.5,-226 1700.5,-226 1700.5,-207 1539.5,-207"/>
<text text-anchor="middle" x="1620" y="-214" font-family="Helvetica,sans-Serif" font-size="10.00">include/tvm/relay/interpreter.h</text>
</a>
</g>
</g>
<!-- Node1&#45;&gt;Node20 -->
<g id="edge50" class="edge"><title>Node1&#45;&gt;Node20</title>
<path fill="none" stroke="midnightblue" d="M1503.55,-460.187C1528.06,-409.096 1598,-263.347 1615.83,-226.2"/>
<polygon fill="midnightblue" stroke="midnightblue" points="1500.33,-458.803 1499.16,-469.333 1506.64,-461.831 1500.33,-458.803"/>
</g>
<!-- Node25 -->
<g id="node25" class="node"><title>Node25</title>
<g id="a_node25"><a xlink:href="codegen_8h.html" target="_top" xlink:title="Translates IRModule to runtime::Module. ">
<polygon fill="white" stroke="black" points="1757,-402.5 1757,-432.5 1861,-432.5 1861,-402.5 1757,-402.5"/>
<text text-anchor="start" x="1765" y="-420.5" font-family="Helvetica,sans-Serif" font-size="10.00">include/tvm/target</text>
<text text-anchor="middle" x="1809" y="-409.5" font-family="Helvetica,sans-Serif" font-size="10.00">/codegen.h</text>
</a>
</g>
</g>
<!-- Node1&#45;&gt;Node25 -->
<g id="edge51" class="edge"><title>Node1&#45;&gt;Node25</title>
<path fill="none" stroke="midnightblue" d="M1555.03,-467.744C1605.33,-458.998 1678.98,-445.837 1743,-433 1747.49,-432.101 1752.14,-431.139 1756.8,-430.154"/>
<polygon fill="midnightblue" stroke="midnightblue" points="1554.23,-464.33 1544.98,-469.487 1555.43,-471.227 1554.23,-464.33"/>
</g>
<!-- Node26 -->
<g id="node26" class="node"><title>Node26</title>
<g id="a_node26"><a xlink:href="tir_2analysis_8h.html" target="_top" xlink:title="Analysis utilitie and passes for TIR. ">
<polygon fill="white" stroke="black" points="1933.5,-408 1933.5,-427 2068.5,-427 2068.5,-408 1933.5,-408"/>
<text text-anchor="middle" x="2001" y="-415" font-family="Helvetica,sans-Serif" font-size="10.00">include/tvm/tir/analysis.h</text>
</a>
</g>
</g>
<!-- Node1&#45;&gt;Node26 -->
<g id="edge52" class="edge"><title>Node1&#45;&gt;Node26</title>
<path fill="none" stroke="midnightblue" d="M1569.73,-469.212C1667.83,-457.677 1838.61,-437.595 1933.16,-426.477"/>
<polygon fill="midnightblue" stroke="midnightblue" points="1569.12,-465.76 1559.6,-470.404 1569.94,-472.712 1569.12,-465.76"/>
</g>
<!-- Node3&#45;&gt;Node4 -->
<g id="edge3" class="edge"><title>Node3&#45;&gt;Node4</title>
<path fill="none" stroke="midnightblue" d="M188.682,-269.444C161.745,-256.569 121.338,-237.257 98.1344,-226.167"/>
<polygon fill="midnightblue" stroke="midnightblue" points="187.408,-272.714 197.94,-273.869 190.427,-266.398 187.408,-272.714"/>
</g>
<!-- Node8 -->
<g id="node8" class="node"><title>Node8</title>
<g id="a_node8"><a xlink:href="relay_2expr__functor_8h.html" target="_top" xlink:title="A more powerful visitor which enables defining arbitrary function signatures with type based dispatch...">
<polygon fill="white" stroke="black" points="424,-134.5 424,-164.5 546,-164.5 546,-134.5 424,-134.5"/>
<text text-anchor="start" x="432" y="-152.5" font-family="Helvetica,sans-Serif" font-size="10.00">include/tvm/relay/expr</text>
<text text-anchor="middle" x="485" y="-141.5" font-family="Helvetica,sans-Serif" font-size="10.00">_functor.h</text>
</a>
</g>
</g>
<!-- Node3&#45;&gt;Node8 -->
<g id="edge7" class="edge"><title>Node3&#45;&gt;Node8</title>
<path fill="none" stroke="midnightblue" d="M223.773,-264.55C232.841,-245.782 249.628,-216.892 273,-201 297.326,-184.459 370.319,-169.38 423.882,-160.09"/>
<polygon fill="midnightblue" stroke="midnightblue" points="220.523,-263.24 219.536,-273.789 226.886,-266.158 220.523,-263.24"/>
</g>
<!-- Node9 -->
<g id="node9" class="node"><title>Node9</title>
<g id="a_node9"><a xlink:href="pattern__functor_8h.html" target="_top" xlink:title="A more powerful visitor on ADT patterns that enables defining arbitrary function signatures with type...">
<polygon fill="white" stroke="black" points="226.5,-134.5 226.5,-164.5 363.5,-164.5 363.5,-134.5 226.5,-134.5"/>
<text text-anchor="start" x="234.5" y="-152.5" font-family="Helvetica,sans-Serif" font-size="10.00">include/tvm/relay/pattern</text>
<text text-anchor="middle" x="295" y="-141.5" font-family="Helvetica,sans-Serif" font-size="10.00">_functor.h</text>
</a>
</g>
</g>
<!-- Node3&#45;&gt;Node9 -->
<g id="edge8" class="edge"><title>Node3&#45;&gt;Node9</title>
<path fill="none" stroke="midnightblue" d="M206.566,-264.931C198.625,-247.529 190.28,-220.7 202,-201 212.145,-183.947 230.282,-172.295 247.862,-164.521"/>
<polygon fill="midnightblue" stroke="midnightblue" points="203.464,-266.556 211.039,-273.963 209.737,-263.449 203.464,-266.556"/>
</g>
<!-- Node5 -->
<g id="node5" class="node"><title>Node5</title>
<g id="a_node5"><a xlink:href="include_2tvm_2relay_2transform_8h.html" target="_top" xlink:title="Relay specific transformation passes. ">
<polygon fill="white" stroke="black" points="635,-140 635,-159 793,-159 793,-140 635,-140"/>
<text text-anchor="middle" x="714" y="-147" font-family="Helvetica,sans-Serif" font-size="10.00">include/tvm/relay/transform.h</text>
</a>
</g>
</g>
<!-- Node4&#45;&gt;Node5 -->
<g id="edge4" class="edge"><title>Node4&#45;&gt;Node5</title>
<path fill="none" stroke="midnightblue" d="M160.312,-207.266C282.48,-194.741 513.597,-171.046 634.988,-158.601"/>
<polygon fill="midnightblue" stroke="midnightblue" points="159.862,-203.794 150.271,-208.296 160.576,-210.757 159.862,-203.794"/>
</g>
<!-- Node7 -->
<g id="node7" class="node"><title>Node7</title>
<g id="a_node7"><a xlink:href="include_2tvm_2tir_2transform_8h.html" target="_top" xlink:title="TIR specific transformation passes. ">
<polygon fill="white" stroke="black" points="8,-140 8,-159 152,-159 152,-140 8,-140"/>
<text text-anchor="middle" x="80" y="-147" font-family="Helvetica,sans-Serif" font-size="10.00">include/tvm/tir/transform.h</text>
</a>
</g>
</g>
<!-- Node4&#45;&gt;Node7 -->
<g id="edge6" class="edge"><title>Node4&#45;&gt;Node7</title>
<path fill="none" stroke="midnightblue" d="M80,-196.537C80,-184.17 80,-168.62 80,-159.127"/>
<polygon fill="midnightblue" stroke="midnightblue" points="76.5001,-196.734 80,-206.734 83.5001,-196.734 76.5001,-196.734"/>
</g>
<!-- Node6 -->
<g id="node6" class="node"><title>Node6</title>
<g id="a_node6"><a xlink:href="include_2tvm_2relay_2qnn_2transform_8h.html" target="_top" xlink:title="include/tvm/relay/qnn\l/transform.h">
<polygon fill="white" stroke="black" points="654.5,-67.5 654.5,-97.5 773.5,-97.5 773.5,-67.5 654.5,-67.5"/>
<text text-anchor="start" x="662.5" y="-85.5" font-family="Helvetica,sans-Serif" font-size="10.00">include/tvm/relay/qnn</text>
<text text-anchor="middle" x="714" y="-74.5" font-family="Helvetica,sans-Serif" font-size="10.00">/transform.h</text>
</a>
</g>
</g>
<!-- Node5&#45;&gt;Node6 -->
<g id="edge5" class="edge"><title>Node5&#45;&gt;Node6</title>
<path fill="none" stroke="midnightblue" d="M714,-129.411C714,-119.222 714,-106.901 714,-97.589"/>
<polygon fill="midnightblue" stroke="midnightblue" points="710.5,-129.734 714,-139.734 717.5,-129.734 710.5,-129.734"/>
</g>
<!-- Node11 -->
<g id="node11" class="node"><title>Node11</title>
<g id="a_node11"><a xlink:href="ir_2op_8h.html" target="_top" xlink:title="Primitive operators(builtin intrinsics) and registry for them. ">
<polygon fill="white" stroke="black" points="929.5,-341 929.5,-360 1034.5,-360 1034.5,-341 929.5,-341"/>
<text text-anchor="middle" x="982" y="-348" font-family="Helvetica,sans-Serif" font-size="10.00">include/tvm/ir/op.h</text>
</a>
</g>
</g>
<!-- Node10&#45;&gt;Node11 -->
<g id="edge11" class="edge"><title>Node10&#45;&gt;Node11</title>
<path fill="none" stroke="midnightblue" d="M1079.22,-397.967C1053.1,-385.481 1019.87,-369.598 999.799,-360.007"/>
<polygon fill="midnightblue" stroke="midnightblue" points="1077.96,-401.242 1088.49,-402.396 1080.98,-394.926 1077.96,-401.242"/>
</g>
<!-- Node24 -->
<g id="node24" class="node"><title>Node24</title>
<g id="a_node24"><a xlink:href="relay_2type_8h.html" target="_top" xlink:title="Relay typed AST nodes. ">
<polygon fill="white" stroke="black" points="1052.5,-341 1052.5,-360 1183.5,-360 1183.5,-341 1052.5,-341"/>
<text text-anchor="middle" x="1118" y="-348" font-family="Helvetica,sans-Serif" font-size="10.00">include/tvm/relay/type.h</text>
</a>
</g>
</g>
<!-- Node10&#45;&gt;Node24 -->
<g id="edge41" class="edge"><title>Node10&#45;&gt;Node24</title>
<path fill="none" stroke="midnightblue" d="M1118,-392.25C1118,-381.017 1118,-368.377 1118,-360.195"/>
<polygon fill="midnightblue" stroke="midnightblue" points="1114.5,-392.396 1118,-402.396 1121.5,-392.396 1114.5,-392.396"/>
</g>
<!-- Node11&#45;&gt;Node12 -->
<g id="edge12" class="edge"><title>Node11&#45;&gt;Node12</title>
<path fill="none" stroke="midnightblue" d="M1001.28,-334.213C1017.44,-321.407 1039.92,-303.588 1053.12,-293.127"/>
<polygon fill="midnightblue" stroke="midnightblue" points="998.721,-331.779 993.059,-340.734 1003.07,-337.265 998.721,-331.779"/>
</g>
<!-- Node21 -->
<g id="node21" class="node"><title>Node21</title>
<g id="a_node21"><a xlink:href="relay_2op_8h.html" target="_top" xlink:title="Primitive operators(builtin intrinsics). ">
<polygon fill="white" stroke="black" points="282,-207 282,-226 404,-226 404,-207 282,-207"/>
<text text-anchor="middle" x="343" y="-214" font-family="Helvetica,sans-Serif" font-size="10.00">include/tvm/relay/op.h</text>
</a>
</g>
</g>
<!-- Node11&#45;&gt;Node21 -->
<g id="edge40" class="edge"><title>Node11&#45;&gt;Node21</title>
<path fill="none" stroke="midnightblue" d="M918.881,-344.68C842.292,-338.034 709.555,-323.952 598,-299 510.009,-279.319 408.938,-242.663 365.143,-226.062"/>
<polygon fill="midnightblue" stroke="midnightblue" points="919.047,-348.207 929.308,-345.569 919.641,-341.232 919.047,-348.207"/>
</g>
<!-- Node12&#45;&gt;Node5 -->
<g id="edge39" class="edge"><title>Node12&#45;&gt;Node5</title>
<path fill="none" stroke="midnightblue" d="M1065.19,-263.603C1065.24,-244.905 1062.13,-216.852 1045,-201 1026.76,-184.123 885.201,-167.26 793.208,-157.923"/>
<polygon fill="midnightblue" stroke="midnightblue" points="1061.68,-263.729 1064.84,-273.843 1068.68,-263.968 1061.68,-263.729"/>
</g>
<!-- Node12&#45;&gt;Node8 -->
<g id="edge23" class="edge"><title>Node12&#45;&gt;Node8</title>
<path fill="none" stroke="midnightblue" d="M988.412,-279.712C874.085,-274.602 663.182,-261.43 594,-232 574.259,-223.602 574.02,-214.06 557,-201 540.284,-188.173 520.668,-174.5 506.135,-164.621"/>
<polygon fill="midnightblue" stroke="midnightblue" points="988.349,-283.212 998.493,-280.153 988.655,-276.219 988.349,-283.212"/>
</g>
<!-- Node12&#45;&gt;Node9 -->
<g id="edge38" class="edge"><title>Node12&#45;&gt;Node9</title>
<path fill="none" stroke="midnightblue" d="M988.216,-280.436C794.964,-274.804 297.251,-257.849 273,-232 255.552,-213.402 271.986,-182.435 284.304,-164.505"/>
<polygon fill="midnightblue" stroke="midnightblue" points="988.195,-283.936 998.292,-280.727 988.398,-276.939 988.195,-283.936"/>
</g>
<!-- Node13 -->
<g id="node13" class="node"><title>Node13</title>
<g id="a_node13"><a xlink:href="type__functor_8h.html" target="_top" xlink:title="A way to defined arbitrary function signature with dispatch on types. ">
<polygon fill="white" stroke="black" points="881.5,-134.5 881.5,-164.5 986.5,-164.5 986.5,-134.5 881.5,-134.5"/>
<text text-anchor="start" x="889.5" y="-152.5" font-family="Helvetica,sans-Serif" font-size="10.00">include/tvm/ir/type</text>
<text text-anchor="middle" x="934" y="-141.5" font-family="Helvetica,sans-Serif" font-size="10.00">_functor.h</text>
</a>
</g>
</g>
<!-- Node12&#45;&gt;Node13 -->
<g id="edge13" class="edge"><title>Node12&#45;&gt;Node13</title>
<path fill="none" stroke="midnightblue" d="M1073.96,-264.784C1082.44,-247.06 1091.33,-219.797 1078,-201 1057.39,-171.932 1018.69,-159.468 986.593,-154.185"/>
<polygon fill="midnightblue" stroke="midnightblue" points="1070.68,-263.494 1069.18,-273.982 1076.89,-266.722 1070.68,-263.494"/>
</g>
<!-- Node14 -->
<g id="node14" class="node"><title>Node14</title>
<g id="a_node14"><a xlink:href="relay_2adt_8h.html" target="_top" xlink:title="Algebraic data types for Relay. ">
<polygon fill="white" stroke="black" points="422,-207 422,-226 548,-226 548,-207 422,-207"/>
<text text-anchor="middle" x="485" y="-214" font-family="Helvetica,sans-Serif" font-size="10.00">include/tvm/relay/adt.h</text>
</a>
</g>
</g>
<!-- Node12&#45;&gt;Node14 -->
<g id="edge14" class="edge"><title>Node12&#45;&gt;Node14</title>
<path fill="none" stroke="midnightblue" d="M988.243,-276.918C889.746,-269.193 712.51,-253.701 562,-232 550.556,-230.35 538.222,-228.197 526.852,-226.057"/>
<polygon fill="midnightblue" stroke="midnightblue" points="988.158,-280.422 998.399,-277.708 988.701,-273.443 988.158,-280.422"/>
</g>
<!-- Node12&#45;&gt;Node15 -->
<g id="edge19" class="edge"><title>Node12&#45;&gt;Node15</title>
<path fill="none" stroke="midnightblue" d="M1086.29,-267.598C1097.47,-258.732 1109.91,-246.409 1116,-232 1126.47,-207.231 1120.3,-174.335 1116.42,-159.019"/>
<polygon fill="midnightblue" stroke="midnightblue" points="1084.04,-264.905 1078.11,-273.68 1088.22,-270.523 1084.04,-264.905"/>
</g>
<!-- Node16 -->
<g id="node16" class="node"><title>Node16</title>
<g id="a_node16"><a xlink:href="relay_2attrs_2memory_8h.html" target="_top" xlink:title="Attributes for memory operators. ">
<polygon fill="white" stroke="black" points="770,-201.5 770,-231.5 894,-231.5 894,-201.5 770,-201.5"/>
<text text-anchor="start" x="778" y="-219.5" font-family="Helvetica,sans-Serif" font-size="10.00">include/tvm/relay/attrs</text>
<text text-anchor="middle" x="832" y="-208.5" font-family="Helvetica,sans-Serif" font-size="10.00">/memory.h</text>
</a>
</g>
</g>
<!-- Node12&#45;&gt;Node16 -->
<g id="edge20" class="edge"><title>Node12&#45;&gt;Node16</title>
<path fill="none" stroke="midnightblue" d="M1023.41,-271.128C984.078,-260.108 924.333,-243.369 882.069,-231.528"/>
<polygon fill="midnightblue" stroke="midnightblue" points="1022.62,-274.541 1033.19,-273.869 1024.51,-267.8 1022.62,-274.541"/>
</g>
<!-- Node17 -->
<g id="node17" class="node"><title>Node17</title>
<g id="a_node17"><a xlink:href="include_2tvm_2relay_2attrs_2transform_8h.html" target="_top" xlink:title="Transform operators. ">
<polygon fill="white" stroke="black" points="912,-201.5 912,-231.5 1036,-231.5 1036,-201.5 912,-201.5"/>
<text text-anchor="start" x="920" y="-219.5" font-family="Helvetica,sans-Serif" font-size="10.00">include/tvm/relay/attrs</text>
<text text-anchor="middle" x="974" y="-208.5" font-family="Helvetica,sans-Serif" font-size="10.00">/transform.h</text>
</a>
</g>
</g>
<!-- Node12&#45;&gt;Node17 -->
<g id="edge21" class="edge"><title>Node12&#45;&gt;Node17</title>
<path fill="none" stroke="midnightblue" d="M1043.71,-267.849C1028.69,-257 1008.34,-242.303 993.508,-231.589"/>
<polygon fill="midnightblue" stroke="midnightblue" points="1041.71,-270.716 1051.86,-273.734 1045.8,-265.041 1041.71,-270.716"/>
</g>
<!-- Node12&#45;&gt;Node18 -->
<g id="edge24" class="edge"><title>Node12&#45;&gt;Node18</title>
<path fill="none" stroke="midnightblue" d="M1119.69,-272.037C1187.75,-259.253 1301.58,-237.868 1364.58,-226.032"/>
<polygon fill="midnightblue" stroke="midnightblue" points="1118.77,-268.649 1109.59,-273.936 1120.06,-275.529 1118.77,-268.649"/>
</g>
<!-- Node19 -->
<g id="node19" class="node"><title>Node19</title>
<g id="a_node19"><a xlink:href="relay_2function_8h.html" target="_top" xlink:title="Relay Function. ">
<polygon fill="white" stroke="black" points="603.5,-207 603.5,-226 752.5,-226 752.5,-207 603.5,-207"/>
<text text-anchor="middle" x="678" y="-214" font-family="Helvetica,sans-Serif" font-size="10.00">include/tvm/relay/function.h</text>
</a>
</g>
</g>
<!-- Node12&#45;&gt;Node19 -->
<g id="edge25" class="edge"><title>Node12&#45;&gt;Node19</title>
<path fill="none" stroke="midnightblue" d="M1002.35,-272.37C941.11,-262.273 844.535,-246.258 761,-232 749.897,-230.105 737.964,-228.038 726.705,-226.074"/>
<polygon fill="midnightblue" stroke="midnightblue" points="1001.81,-275.827 1012.24,-274 1002.94,-268.92 1001.81,-275.827"/>
</g>
<!-- Node12&#45;&gt;Node20 -->
<g id="edge29" class="edge"><title>Node12&#45;&gt;Node20</title>
<path fill="none" stroke="midnightblue" d="M1139.78,-273.641C1246.93,-261.115 1441.39,-238.381 1547,-226.034"/>
<polygon fill="midnightblue" stroke="midnightblue" points="1139.22,-270.183 1129.69,-274.82 1140.03,-277.136 1139.22,-270.183"/>
</g>
<!-- Node12&#45;&gt;Node21 -->
<g id="edge30" class="edge"><title>Node12&#45;&gt;Node21</title>
<path fill="none" stroke="midnightblue" d="M987.753,-279.722C865.83,-274.577 619.668,-261.3 413,-232 402.187,-230.467 390.536,-228.274 379.901,-226.057"/>
<polygon fill="midnightblue" stroke="midnightblue" points="987.957,-283.234 998.093,-280.152 988.247,-276.24 987.957,-283.234"/>
</g>
<!-- Node22 -->
<g id="node22" class="node"><title>Node22</title>
<g id="a_node22"><a xlink:href="op__attr__types_8h.html" target="_top" xlink:title="The Expr and related elements in DataFlow construction. ">
<polygon fill="white" stroke="black" points="1206.5,-201.5 1206.5,-231.5 1319.5,-231.5 1319.5,-201.5 1206.5,-201.5"/>
<text text-anchor="start" x="1214.5" y="-219.5" font-family="Helvetica,sans-Serif" font-size="10.00">include/tvm/relay/op</text>
<text text-anchor="middle" x="1263" y="-208.5" font-family="Helvetica,sans-Serif" font-size="10.00">_attr_types.h</text>
</a>
</g>
</g>
<!-- Node12&#45;&gt;Node22 -->
<g id="edge34" class="edge"><title>Node12&#45;&gt;Node22</title>
<path fill="none" stroke="midnightblue" d="M1100.33,-270.633C1134.07,-259.612 1184.34,-243.193 1220.05,-231.528"/>
<polygon fill="midnightblue" stroke="midnightblue" points="1098.84,-267.437 1090.43,-273.869 1101.02,-274.091 1098.84,-267.437"/>
</g>
<!-- Node23 -->
<g id="node23" class="node"><title>Node23</title>
<g id="a_node23"><a xlink:href="op__strategy_8h.html" target="_top" xlink:title="The Relay operator Strategy and related data structure. ">
<polygon fill="white" stroke="black" points="1206.5,-134.5 1206.5,-164.5 1319.5,-164.5 1319.5,-134.5 1206.5,-134.5"/>
<text text-anchor="start" x="1214.5" y="-152.5" font-family="Helvetica,sans-Serif" font-size="10.00">include/tvm/relay/op</text>
<text text-anchor="middle" x="1263" y="-141.5" font-family="Helvetica,sans-Serif" font-size="10.00">_strategy.h</text>
</a>
</g>
</g>
<!-- Node12&#45;&gt;Node23 -->
<g id="edge37" class="edge"><title>Node12&#45;&gt;Node23</title>
<path fill="none" stroke="midnightblue" d="M1085.43,-268.283C1123.76,-242.858 1203.61,-189.892 1241.79,-164.572"/>
<polygon fill="midnightblue" stroke="midnightblue" points="1083.46,-265.395 1077.06,-273.839 1087.33,-271.228 1083.46,-265.395"/>
</g>
<!-- Node14&#45;&gt;Node8 -->
<g id="edge17" class="edge"><title>Node14&#45;&gt;Node8</title>
<path fill="none" stroke="midnightblue" d="M485,-196.411C485,-186.222 485,-173.901 485,-164.589"/>
<polygon fill="midnightblue" stroke="midnightblue" points="481.5,-196.734 485,-206.734 488.5,-196.734 481.5,-196.734"/>
</g>
<!-- Node14&#45;&gt;Node9 -->
<g id="edge18" class="edge"><title>Node14&#45;&gt;Node9</title>
<path fill="none" stroke="midnightblue" d="M449.894,-203.49C417.682,-192.47 369.956,-176.143 336.005,-164.528"/>
<polygon fill="midnightblue" stroke="midnightblue" points="449.175,-206.943 459.769,-206.869 451.441,-200.32 449.175,-206.943"/>
</g>
<!-- Node14&#45;&gt;Node13 -->
<g id="edge15" class="edge"><title>Node14&#45;&gt;Node13</title>
<path fill="none" stroke="midnightblue" d="M554.291,-205.469C644.499,-192.41 800.192,-169.871 881.348,-158.122"/>
<polygon fill="midnightblue" stroke="midnightblue" points="553.556,-202.039 544.161,-206.936 554.559,-208.967 553.556,-202.039"/>
</g>
<!-- Node14&#45;&gt;Node15 -->
<g id="edge16" class="edge"><title>Node14&#45;&gt;Node15</title>
<path fill="none" stroke="midnightblue" d="M555.604,-205.66C568.372,-204.008 581.574,-202.384 594,-201 771.84,-181.198 817.054,-183.824 995,-165 1011.97,-163.205 1030.28,-161.072 1047.33,-159.002"/>
<polygon fill="midnightblue" stroke="midnightblue" points="554.942,-202.217 545.481,-206.987 555.851,-209.158 554.942,-202.217"/>
</g>
<!-- Node17&#45;&gt;Node5 -->
<g id="edge22" class="edge"><title>Node17&#45;&gt;Node5</title>
<path fill="none" stroke="midnightblue" d="M907.96,-198.99C857.006,-186.252 788.593,-169.148 748.115,-159.029"/>
<polygon fill="midnightblue" stroke="midnightblue" points="907.354,-202.446 917.904,-201.476 909.051,-195.655 907.354,-202.446"/>
</g>
<!-- Node19&#45;&gt;Node5 -->
<g id="edge28" class="edge"><title>Node19&#45;&gt;Node5</title>
<path fill="none" stroke="midnightblue" d="M687.879,-197.663C694.821,-185.128 703.803,-168.91 709.222,-159.127"/>
<polygon fill="midnightblue" stroke="midnightblue" points="684.638,-196.29 682.855,-206.734 690.762,-199.682 684.638,-196.29"/>
</g>
<!-- Node19&#45;&gt;Node8 -->
<g id="edge27" class="edge"><title>Node19&#45;&gt;Node8</title>
<path fill="none" stroke="midnightblue" d="M642.763,-203.633C610.039,-192.612 561.289,-176.193 526.653,-164.528"/>
<polygon fill="midnightblue" stroke="midnightblue" points="641.777,-206.994 652.371,-206.869 644.011,-200.36 641.777,-206.994"/>
</g>
<!-- Node19&#45;&gt;Node15 -->
<g id="edge26" class="edge"><title>Node19&#45;&gt;Node15</title>
<path fill="none" stroke="midnightblue" d="M735.336,-205.246C743.93,-203.778 752.693,-202.319 761,-201 861.885,-184.975 979.366,-168.629 1050.14,-159.032"/>
<polygon fill="midnightblue" stroke="midnightblue" points="734.621,-201.817 725.361,-206.966 735.811,-208.716 734.621,-201.817"/>
</g>
<!-- Node21&#45;&gt;Node5 -->
<g id="edge33" class="edge"><title>Node21&#45;&gt;Node5</title>
<path fill="none" stroke="midnightblue" d="M392.761,-204.95C399.554,-203.581 406.443,-202.229 413,-201 498.933,-184.897 599.135,-168.573 659.513,-159.002"/>
<polygon fill="midnightblue" stroke="midnightblue" points="392.026,-201.528 382.927,-206.956 393.425,-208.386 392.026,-201.528"/>
</g>
<!-- Node21&#45;&gt;Node8 -->
<g id="edge31" class="edge"><title>Node21&#45;&gt;Node8</title>
<path fill="none" stroke="midnightblue" d="M371.136,-202.621C395.157,-191.625 429.639,-175.841 454.354,-164.528"/>
<polygon fill="midnightblue" stroke="midnightblue" points="369.492,-199.524 361.857,-206.869 372.406,-205.889 369.492,-199.524"/>
</g>
<!-- Node21&#45;&gt;Node9 -->
<g id="edge32" class="edge"><title>Node21&#45;&gt;Node9</title>
<path fill="none" stroke="midnightblue" d="M330.574,-198.673C322.762,-188.094 312.798,-174.602 305.404,-164.589"/>
<polygon fill="midnightblue" stroke="midnightblue" points="327.771,-200.769 336.527,-206.734 333.402,-196.61 327.771,-200.769"/>
</g>
<!-- Node22&#45;&gt;Node5 -->
<g id="edge36" class="edge"><title>Node22&#45;&gt;Node5</title>
<path fill="none" stroke="midnightblue" d="M1196.26,-207.598C1092.38,-195.299 892.854,-171.676 785.9,-159.013"/>
<polygon fill="midnightblue" stroke="midnightblue" points="1195.97,-211.089 1206.32,-208.789 1196.8,-204.137 1195.97,-211.089"/>
</g>
<!-- Node22&#45;&gt;Node23 -->
<g id="edge35" class="edge"><title>Node22&#45;&gt;Node23</title>
<path fill="none" stroke="midnightblue" d="M1263,-191.108C1263,-182.154 1263,-172.323 1263,-164.577"/>
<polygon fill="midnightblue" stroke="midnightblue" points="1259.5,-191.396 1263,-201.396 1266.5,-191.396 1259.5,-191.396"/>
</g>
<!-- Node24&#45;&gt;Node12 -->
<g id="edge44" class="edge"><title>Node24&#45;&gt;Node12</title>
<path fill="none" stroke="midnightblue" d="M1104.1,-332.77C1093.57,-320.097 1079.54,-303.201 1071.17,-293.127"/>
<polygon fill="midnightblue" stroke="midnightblue" points="1101.63,-335.278 1110.72,-340.734 1107.02,-330.805 1101.63,-335.278"/>
</g>
<!-- Node24&#45;&gt;Node14 -->
<g id="edge42" class="edge"><title>Node24&#45;&gt;Node14</title>
<path fill="none" stroke="midnightblue" d="M1066.45,-338.869C967.08,-318.36 742.138,-271.832 553,-232 543.905,-230.085 534.129,-228.01 524.905,-226.044"/>
<polygon fill="midnightblue" stroke="midnightblue" points="1066.02,-342.354 1076.52,-340.948 1067.43,-335.499 1066.02,-342.354"/>
</g>
<!-- Node24&#45;&gt;Node15 -->
<g id="edge43" class="edge"><title>Node24&#45;&gt;Node15</title>
<path fill="none" stroke="midnightblue" d="M1194.13,-345.047C1327.38,-334.575 1580.69,-301.172 1492,-201 1448.22,-151.554 1262.33,-174.686 1197,-165 1185.13,-163.241 1172.35,-161.121 1160.46,-159.052"/>
<polygon fill="midnightblue" stroke="midnightblue" points="1193.67,-341.572 1183.97,-345.82 1194.2,-348.552 1193.67,-341.572"/>
</g>
<!-- Node24&#45;&gt;Node21 -->
<g id="edge45" class="edge"><title>Node24&#45;&gt;Node21</title>
<path fill="none" stroke="midnightblue" d="M1066.88,-339.09C1058.9,-337.619 1050.74,-336.2 1043,-335 907.243,-313.947 871.611,-320.969 736,-299 603.419,-277.522 447.693,-242.184 378.836,-226.033"/>
<polygon fill="midnightblue" stroke="midnightblue" points="1066.36,-342.554 1076.83,-340.971 1067.66,-335.676 1066.36,-342.554"/>
</g>
<!-- Node24&#45;&gt;Node22 -->
<g id="edge46" class="edge"><title>Node24&#45;&gt;Node22</title>
<path fill="none" stroke="midnightblue" d="M1135.03,-333.992C1163.39,-308.177 1219.87,-256.763 1247.31,-231.783"/>
<polygon fill="midnightblue" stroke="midnightblue" points="1132.55,-331.519 1127.51,-340.839 1137.26,-336.695 1132.55,-331.519"/>
</g>
<!-- Node27 -->
<g id="node27" class="node"><title>Node27</title>
<g id="a_node27"><a xlink:href="constant__utils_8h.html" target="_top" xlink:title="Utility functions for handling constants in TVM expressions. ">
<polygon fill="white" stroke="black" points="1995,-335.5 1995,-365.5 2117,-365.5 2117,-335.5 1995,-335.5"/>
<text text-anchor="start" x="2003" y="-353.5" font-family="Helvetica,sans-Serif" font-size="10.00">topi/include/topi/detail</text>
<text text-anchor="middle" x="2056" y="-342.5" font-family="Helvetica,sans-Serif" font-size="10.00">/constant_utils.h</text>
</a>
</g>
</g>
<!-- Node26&#45;&gt;Node27 -->
<g id="edge53" class="edge"><title>Node26&#45;&gt;Node27</title>
<path fill="none" stroke="midnightblue" d="M2014.97,-399.989C2023.96,-389.364 2035.52,-375.702 2044.08,-365.589"/>
<polygon fill="midnightblue" stroke="midnightblue" points="2012.21,-397.839 2008.42,-407.734 2017.55,-402.361 2012.21,-397.839"/>
</g>
<!-- Node28 -->
<g id="node28" class="node"><title>Node28</title>
<g id="a_node28"><a xlink:href="broadcast_8h.html" target="_top" xlink:title="Broadcast op constructions. ">
<polygon fill="white" stroke="black" points="2254,-207 2254,-226 2406,-226 2406,-207 2254,-207"/>
<text text-anchor="middle" x="2330" y="-214" font-family="Helvetica,sans-Serif" font-size="10.00">topi/include/topi/broadcast.h</text>
</a>
</g>
</g>
<!-- Node27&#45;&gt;Node28 -->
<g id="edge54" class="edge"><title>Node27&#45;&gt;Node28</title>
<path fill="none" stroke="midnightblue" d="M2127.37,-344.64C2170.92,-338.864 2226.08,-326.293 2268,-299 2296.9,-280.181 2317.61,-243.081 2325.94,-226.214"/>
<polygon fill="midnightblue" stroke="midnightblue" points="2126.92,-341.17 2117.42,-345.87 2127.78,-348.117 2126.92,-341.17"/>
</g>
<!-- Node30 -->
<g id="node30" class="node"><title>Node30</title>
<g id="a_node30"><a xlink:href="reduction_8h.html" target="_top" xlink:title="Reduction op constructors. ">
<polygon fill="white" stroke="black" points="2015.5,-73 2015.5,-92 2164.5,-92 2164.5,-73 2015.5,-73"/>
<text text-anchor="middle" x="2090" y="-80" font-family="Helvetica,sans-Serif" font-size="10.00">topi/include/topi/reduction.h</text>
</a>
</g>
</g>
<!-- Node27&#45;&gt;Node30 -->
<g id="edge68" class="edge"><title>Node27&#45;&gt;Node30</title>
<path fill="none" stroke="midnightblue" d="M2059.1,-325.279C2066.37,-268.342 2084.3,-128.083 2088.91,-92.049"/>
<polygon fill="midnightblue" stroke="midnightblue" points="2055.62,-324.836 2057.83,-335.199 2062.57,-325.723 2055.62,-324.836"/>
</g>
<!-- Node33 -->
<g id="node33" class="node"><title>Node33</title>
<g id="a_node33"><a xlink:href="reorg_8h.html" target="_top" xlink:title="Reorg op constructions. ">
<polygon fill="white" stroke="black" points="2155,-0.5 2155,-30.5 2277,-30.5 2277,-0.5 2155,-0.5"/>
<text text-anchor="start" x="2163" y="-18.5" font-family="Helvetica,sans-Serif" font-size="10.00">topi/include/topi/vision</text>
<text text-anchor="middle" x="2216" y="-7.5" font-family="Helvetica,sans-Serif" font-size="10.00">/reorg.h</text>
</a>
</g>
</g>
<!-- Node27&#45;&gt;Node33 -->
<g id="edge73" class="edge"><title>Node27&#45;&gt;Node33</title>
<path fill="none" stroke="midnightblue" d="M2127.24,-344.409C2259.13,-333.014 2528,-299.703 2528,-217.5 2528,-217.5 2528,-217.5 2528,-148.5 2528,-40.7216 2368.13,-19.6065 2277.27,-16.3095"/>
<polygon fill="midnightblue" stroke="midnightblue" points="2126.89,-340.926 2117.22,-345.255 2127.48,-347.901 2126.89,-340.926"/>
</g>
<!-- Node35 -->
<g id="node35" class="node"><title>Node35</title>
<g id="a_node35"><a xlink:href="detail_2broadcast_8h.html" target="_top" xlink:title="Detail broadcast. ">
<polygon fill="white" stroke="black" points="2137,-268.5 2137,-298.5 2259,-298.5 2259,-268.5 2137,-268.5"/>
<text text-anchor="start" x="2145" y="-286.5" font-family="Helvetica,sans-Serif" font-size="10.00">topi/include/topi/detail</text>
<text text-anchor="middle" x="2198" y="-275.5" font-family="Helvetica,sans-Serif" font-size="10.00">/broadcast.h</text>
</a>
</g>
</g>
<!-- Node27&#45;&gt;Node35 -->
<g id="edge62" class="edge"><title>Node27&#45;&gt;Node35</title>
<path fill="none" stroke="midnightblue" d="M2096.13,-331.131C2118.69,-320.802 2146.42,-308.11 2167.25,-298.577"/>
<polygon fill="midnightblue" stroke="midnightblue" points="2094.45,-328.051 2086.81,-335.396 2097.36,-334.416 2094.45,-328.051"/>
</g>
<!-- Node36 -->
<g id="node36" class="node"><title>Node36</title>
<g id="a_node36"><a xlink:href="nn_2bnn_8h.html" target="_top" xlink:title="Binary op constructions. ">
<polygon fill="white" stroke="black" points="1757.5,-268.5 1757.5,-298.5 1864.5,-298.5 1864.5,-268.5 1757.5,-268.5"/>
<text text-anchor="start" x="1765.5" y="-286.5" font-family="Helvetica,sans-Serif" font-size="10.00">topi/include/topi/nn</text>
<text text-anchor="middle" x="1811" y="-275.5" font-family="Helvetica,sans-Serif" font-size="10.00">/bnn.h</text>
</a>
</g>
</g>
<!-- Node27&#45;&gt;Node36 -->
<g id="edge64" class="edge"><title>Node27&#45;&gt;Node36</title>
<path fill="none" stroke="midnightblue" d="M1993.24,-332.85C1953.3,-322.252 1902.13,-308.677 1864.19,-298.611"/>
<polygon fill="midnightblue" stroke="midnightblue" points="1992.58,-336.295 2003.14,-335.476 1994.37,-329.529 1992.58,-336.295"/>
</g>
<!-- Node37 -->
<g id="node37" class="node"><title>Node37</title>
<g id="a_node37"><a xlink:href="flatten_8h.html" target="_top" xlink:title="Softmax op constructions. ">
<polygon fill="white" stroke="black" points="1882.5,-268.5 1882.5,-298.5 1989.5,-298.5 1989.5,-268.5 1882.5,-268.5"/>
<text text-anchor="start" x="1890.5" y="-286.5" font-family="Helvetica,sans-Serif" font-size="10.00">topi/include/topi/nn</text>
<text text-anchor="middle" x="1936" y="-275.5" font-family="Helvetica,sans-Serif" font-size="10.00">/flatten.h</text>
</a>
</g>
</g>
<!-- Node27&#45;&gt;Node37 -->
<g id="edge65" class="edge"><title>Node27&#45;&gt;Node37</title>
<path fill="none" stroke="midnightblue" d="M2021.06,-330.575C2002.18,-320.35 1979.27,-307.94 1961.99,-298.577"/>
<polygon fill="midnightblue" stroke="midnightblue" points="2019.5,-333.711 2029.96,-335.396 2022.84,-327.556 2019.5,-333.711"/>
</g>
<!-- Node38 -->
<g id="node38" class="node"><title>Node38</title>
<g id="a_node38"><a xlink:href="topi_2include_2topi_2nn_8h.html" target="_top" xlink:title="NN op constructions. ">
<polygon fill="white" stroke="black" points="1882,-73 1882,-92 1998,-92 1998,-73 1882,-73"/>
<text text-anchor="middle" x="1940" y="-80" font-family="Helvetica,sans-Serif" font-size="10.00">topi/include/topi/nn.h</text>
</a>
</g>
</g>
<!-- Node27&#45;&gt;Node38 -->
<g id="edge66" class="edge"><title>Node27&#45;&gt;Node38</title>
<path fill="none" stroke="midnightblue" d="M2045.75,-325.985C2021.12,-269.51 1959.51,-128.233 1943.73,-92.049"/>
<polygon fill="midnightblue" stroke="midnightblue" points="2042.56,-327.431 2049.76,-335.199 2048.97,-324.633 2042.56,-327.431"/>
</g>
<!-- Node39 -->
<g id="node39" class="node"><title>Node39</title>
<g id="a_node39"><a xlink:href="topi_2include_2topi_2transform_8h.html" target="_top" xlink:title="Transform op constructors. ">
<polygon fill="white" stroke="black" points="2084,-207 2084,-226 2236,-226 2236,-207 2084,-207"/>
<text text-anchor="middle" x="2160" y="-214" font-family="Helvetica,sans-Serif" font-size="10.00">topi/include/topi/transform.h</text>
</a>
</g>
</g>
<!-- Node27&#45;&gt;Node39 -->
<g id="edge69" class="edge"><title>Node27&#45;&gt;Node39</title>
<path fill="none" stroke="midnightblue" d="M2073.52,-327.258C2096.92,-297.559 2137.27,-246.345 2153.23,-226.097"/>
<polygon fill="midnightblue" stroke="midnightblue" points="2070.57,-325.353 2067.13,-335.374 2076.07,-329.685 2070.57,-325.353"/>
</g>
<!-- Node29 -->
<g id="node29" class="node"><title>Node29</title>
<g id="a_node29"><a xlink:href="elemwise_8h.html" target="_top" xlink:title="Elementwise op constructions. ">
<polygon fill="white" stroke="black" points="2351.5,-140 2351.5,-159 2500.5,-159 2500.5,-140 2351.5,-140"/>
<text text-anchor="middle" x="2426" y="-147" font-family="Helvetica,sans-Serif" font-size="10.00">topi/include/topi/elemwise.h</text>
</a>
</g>
</g>
<!-- Node28&#45;&gt;Node29 -->
<g id="edge55" class="edge"><title>Node28&#45;&gt;Node29</title>
<path fill="none" stroke="midnightblue" d="M2351.28,-201.095C2370.27,-188.236 2397.45,-169.831 2413.26,-159.127"/>
<polygon fill="midnightblue" stroke="midnightblue" points="2349.27,-198.229 2342.95,-206.734 2353.19,-204.025 2349.27,-198.229"/>
</g>
<!-- Node28&#45;&gt;Node30 -->
<g id="edge61" class="edge"><title>Node28&#45;&gt;Node30</title>
<path fill="none" stroke="midnightblue" d="M2329.41,-196.765C2327.78,-178.195 2322.37,-150.241 2305,-134 2283.86,-114.227 2212.85,-100.21 2158.17,-92.0384"/>
<polygon fill="midnightblue" stroke="midnightblue" points="2325.92,-197.147 2330,-206.925 2332.91,-196.738 2325.92,-197.147"/>
</g>
<!-- Node34 -->
<g id="node34" class="node"><title>Node34</title>
<g id="a_node34"><a xlink:href="bias__add_8h.html" target="_top" xlink:title="bias_add op constructions ">
<polygon fill="white" stroke="black" points="2188.5,-134.5 2188.5,-164.5 2295.5,-164.5 2295.5,-134.5 2188.5,-134.5"/>
<text text-anchor="start" x="2196.5" y="-152.5" font-family="Helvetica,sans-Serif" font-size="10.00">topi/include/topi/nn</text>
<text text-anchor="middle" x="2242" y="-141.5" font-family="Helvetica,sans-Serif" font-size="10.00">/bias_add.h</text>
</a>
</g>
</g>
<!-- Node28&#45;&gt;Node34 -->
<g id="edge60" class="edge"><title>Node28&#45;&gt;Node34</title>
<path fill="none" stroke="midnightblue" d="M2309.75,-200.544C2295.11,-189.725 2275.44,-175.203 2261.07,-164.589"/>
<polygon fill="midnightblue" stroke="midnightblue" points="2308.01,-203.608 2318.13,-206.734 2312.17,-197.977 2308.01,-203.608"/>
</g>
<!-- Node29&#45;&gt;Node30 -->
<g id="edge56" class="edge"><title>Node29&#45;&gt;Node30</title>
<path fill="none" stroke="midnightblue" d="M2371.51,-137.958C2305.38,-125.165 2195.16,-103.843 2134.1,-92.0317"/>
<polygon fill="midnightblue" stroke="midnightblue" points="2371.25,-141.472 2381.73,-139.936 2372.58,-134.6 2371.25,-141.472"/>
</g>
<!-- Node31 -->
<g id="node31" class="node"><title>Node31</title>
<g id="a_node31"><a xlink:href="nn_2pooling_8h.html" target="_top" xlink:title="Pooling op constructions. ">
<polygon fill="white" stroke="black" points="1892.5,-0.5 1892.5,-30.5 1999.5,-30.5 1999.5,-0.5 1892.5,-0.5"/>
<text text-anchor="start" x="1900.5" y="-18.5" font-family="Helvetica,sans-Serif" font-size="10.00">topi/include/topi/nn</text>
<text text-anchor="middle" x="1946" y="-7.5" font-family="Helvetica,sans-Serif" font-size="10.00">/pooling.h</text>
</a>
</g>
</g>
<!-- Node30&#45;&gt;Node31 -->
<g id="edge57" class="edge"><title>Node30&#45;&gt;Node31</title>
<path fill="none" stroke="midnightblue" d="M2061.47,-68.6206C2037.11,-57.6252 2002.14,-41.8413 1977.08,-30.5281"/>
<polygon fill="midnightblue" stroke="midnightblue" points="2060.32,-71.9443 2070.88,-72.8685 2063.2,-65.5642 2060.32,-71.9443"/>
</g>
<!-- Node32 -->
<g id="node32" class="node"><title>Node32</title>
<g id="a_node32"><a xlink:href="nn_2softmax_8h.html" target="_top" xlink:title="Softmax op constructions. ">
<polygon fill="white" stroke="black" points="2029.5,-0.5 2029.5,-30.5 2136.5,-30.5 2136.5,-0.5 2029.5,-0.5"/>
<text text-anchor="start" x="2037.5" y="-18.5" font-family="Helvetica,sans-Serif" font-size="10.00">topi/include/topi/nn</text>
<text text-anchor="middle" x="2083" y="-7.5" font-family="Helvetica,sans-Serif" font-size="10.00">/softmax.h</text>
</a>
</g>
</g>
<!-- Node30&#45;&gt;Node32 -->
<g id="edge58" class="edge"><title>Node30&#45;&gt;Node32</title>
<path fill="none" stroke="midnightblue" d="M2087.98,-62.7386C2086.88,-52.4873 2085.53,-40.0011 2084.52,-30.589"/>
<polygon fill="midnightblue" stroke="midnightblue" points="2084.51,-63.1661 2089.06,-72.7338 2091.47,-62.4165 2084.51,-63.1661"/>
</g>
<!-- Node30&#45;&gt;Node33 -->
<g id="edge59" class="edge"><title>Node30&#45;&gt;Node33</title>
<path fill="none" stroke="midnightblue" d="M2115.79,-68.1944C2136.99,-57.2607 2166.94,-41.8102 2188.57,-30.6516"/>
<polygon fill="midnightblue" stroke="midnightblue" points="2114.01,-65.1733 2106.73,-72.8685 2117.22,-71.3943 2114.01,-65.1733"/>
</g>
<!-- Node35&#45;&gt;Node28 -->
<g id="edge63" class="edge"><title>Node35&#45;&gt;Node28</title>
<path fill="none" stroke="midnightblue" d="M2235.64,-263.967C2260.99,-251.481 2293.25,-235.598 2312.72,-226.007"/>
<polygon fill="midnightblue" stroke="midnightblue" points="2234.07,-260.838 2226.64,-268.396 2237.16,-267.118 2234.07,-260.838"/>
</g>
<!-- Node38&#45;&gt;Node31 -->
<g id="edge67" class="edge"><title>Node38&#45;&gt;Node31</title>
<path fill="none" stroke="midnightblue" d="M1941.73,-62.7386C1942.68,-52.4873 1943.83,-40.0011 1944.7,-30.589"/>
<polygon fill="midnightblue" stroke="midnightblue" points="1938.24,-62.4544 1940.81,-72.7338 1945.21,-63.0979 1938.24,-62.4544"/>
</g>
<!-- Node39&#45;&gt;Node30 -->
<g id="edge71" class="edge"><title>Node39&#45;&gt;Node30</title>
<path fill="none" stroke="midnightblue" d="M2150.68,-197.918C2135.45,-169.205 2105.81,-113.317 2094.52,-92.0212"/>
<polygon fill="midnightblue" stroke="midnightblue" points="2147.63,-199.644 2155.41,-206.839 2153.81,-196.365 2147.63,-199.644"/>
</g>
<!-- Node39&#45;&gt;Node33 -->
<g id="edge72" class="edge"><title>Node39&#45;&gt;Node33</title>
<path fill="none" stroke="midnightblue" d="M2164.25,-196.891C2168.11,-180.322 2174.09,-155.454 2180,-134 2190.38,-96.3603 2204.31,-52.4909 2211.42,-30.5323"/>
<polygon fill="midnightblue" stroke="midnightblue" points="2160.78,-196.362 2161.94,-206.893 2167.6,-197.935 2160.78,-196.362"/>
</g>
<!-- Node39&#45;&gt;Node34 -->
<g id="edge70" class="edge"><title>Node39&#45;&gt;Node34</title>
<path fill="none" stroke="midnightblue" d="M2179.25,-200.237C2192.86,-189.452 2210.96,-175.102 2224.23,-164.589"/>
<polygon fill="midnightblue" stroke="midnightblue" points="2176.72,-197.779 2171.06,-206.734 2181.07,-203.265 2176.72,-197.779"/>
</g>
</g>
</svg>
