<?xml version="1.0" encoding="UTF-8" standalone="no"?>
<!DOCTYPE svg PUBLIC "-//W3C//DTD SVG 1.1//EN"
 "http://www.w3.org/Graphics/SVG/1.1/DTD/svg11.dtd">
<!-- Generated by graphviz version 2.38.0 (20140413.2041)
 -->
<!-- Title: include/tvm/node/container.h Pages: 1 -->
<svg width="1460pt" height="442pt"
 viewBox="0.00 0.00 1460.00 442.00" xmlns="http://www.w3.org/2000/svg" xmlns:xlink="http://www.w3.org/1999/xlink">
<g id="graph0" class="graph" transform="scale(1 1) rotate(0) translate(4 438)">
<title>include/tvm/node/container.h</title>
<polygon fill="white" stroke="none" points="-4,4 -4,-438 1456,-438 1456,4 -4,4"/>
<!-- Node1 -->
<g id="node1" class="node"><title>Node1</title>
<polygon fill="#bfbfbf" stroke="black" points="541.5,-414.5 541.5,-433.5 696.5,-433.5 696.5,-414.5 541.5,-414.5"/>
<text text-anchor="middle" x="619" y="-421.5" font-family="Helvetica,sans-Serif" font-size="10.00">include/tvm/node/container.h</text>
</g>
<!-- Node2 -->
<g id="node2" class="node"><title>Node2</title>
<g id="a_node2"><a xlink:href="object_8h.html" target="_top" xlink:title="A managed object in the TVM runtime. ">
<polygon fill="white" stroke="black" points="478.5,-123.5 478.5,-142.5 595.5,-142.5 595.5,-123.5 478.5,-123.5"/>
<text text-anchor="middle" x="537" y="-130.5" font-family="Helvetica,sans-Serif" font-size="10.00">tvm/runtime/object.h</text>
</a>
</g>
</g>
<!-- Node1&#45;&gt;Node2 -->
<g id="edge1" class="edge"><title>Node1&#45;&gt;Node2</title>
<path fill="none" stroke="midnightblue" d="M541.48,-418.197C469.703,-409.046 374,-382.739 374,-307.5 374,-307.5 374,-307.5 374,-244 374,-188.745 439.152,-159.389 487.075,-145.27"/>
<polygon fill="midnightblue" stroke="midnightblue" points="488.026,-148.639 496.708,-142.566 486.134,-141.899 488.026,-148.639"/>
</g>
<!-- Node8 -->
<g id="node8" class="node"><title>Node8</title>
<polygon fill="white" stroke="#bfbfbf" points="321,-62 321,-81 389,-81 389,-62 321,-62"/>
<text text-anchor="middle" x="355" y="-69" font-family="Helvetica,sans-Serif" font-size="10.00">type_traits</text>
</g>
<!-- Node1&#45;&gt;Node8 -->
<g id="edge65" class="edge"><title>Node1&#45;&gt;Node8</title>
<path fill="none" stroke="midnightblue" d="M541.282,-421.43C494.629,-417.291 435.836,-406.178 391,-378 311.742,-328.19 309.785,-271.81 322,-179 326.216,-146.968 338.962,-111.434 347.323,-90.5803"/>
<polygon fill="midnightblue" stroke="midnightblue" points="350.652,-91.6888 351.227,-81.1096 344.18,-89.0208 350.652,-91.6888"/>
</g>
<!-- Node9 -->
<g id="node9" class="node"><title>Node9</title>
<polygon fill="white" stroke="#bfbfbf" points="1188,-62 1188,-81 1232,-81 1232,-62 1188,-62"/>
<text text-anchor="middle" x="1210" y="-69" font-family="Helvetica,sans-Serif" font-size="10.00">string</text>
</g>
<!-- Node1&#45;&gt;Node9 -->
<g id="edge70" class="edge"><title>Node1&#45;&gt;Node9</title>
<path fill="none" stroke="midnightblue" d="M696.737,-420.945C847.518,-416.431 1174.49,-403.923 1284,-378 1362.8,-359.347 1452,-388.475 1452,-307.5 1452,-307.5 1452,-307.5 1452,-188 1452,-96.2745 1308.65,-77.3244 1242.61,-73.4611"/>
<polygon fill="midnightblue" stroke="midnightblue" points="1242.5,-69.9513 1232.33,-72.9462 1242.15,-76.9425 1242.5,-69.9513"/>
</g>
<!-- Node10 -->
<g id="node10" class="node"><title>Node10</title>
<polygon fill="white" stroke="#bfbfbf" points="74,-62 74,-81 116,-81 116,-62 74,-62"/>
<text text-anchor="middle" x="95" y="-69" font-family="Helvetica,sans-Serif" font-size="10.00">utility</text>
</g>
<!-- Node1&#45;&gt;Node10 -->
<g id="edge69" class="edge"><title>Node1&#45;&gt;Node10</title>
<path fill="none" stroke="midnightblue" d="M541.26,-423.219C447.959,-421.719 287.509,-413.502 155,-378 81.8983,-358.414 0,-383.18 0,-307.5 0,-307.5 0,-307.5 0,-188 0,-143.018 43.5101,-106.021 71.6387,-86.8025"/>
<polygon fill="midnightblue" stroke="midnightblue" points="73.725,-89.6196 80.1562,-81.2 69.8782,-83.7713 73.725,-89.6196"/>
</g>
<!-- Node12 -->
<g id="node12" class="node"><title>Node12</title>
<g id="a_node12"><a xlink:href="runtime_2memory_8h.html" target="_top" xlink:title="Runtime memory management. ">
<polygon fill="white" stroke="black" points="142.5,-179.5 142.5,-198.5 269.5,-198.5 269.5,-179.5 142.5,-179.5"/>
<text text-anchor="middle" x="206" y="-186.5" font-family="Helvetica,sans-Serif" font-size="10.00">tvm/runtime/memory.h</text>
</a>
</g>
</g>
<!-- Node1&#45;&gt;Node12 -->
<g id="edge11" class="edge"><title>Node1&#45;&gt;Node12</title>
<path fill="none" stroke="midnightblue" d="M541.145,-420.771C419.177,-416.466 194.375,-404.94 170,-378 125.996,-329.365 171.239,-243.98 194.273,-207.417"/>
<polygon fill="midnightblue" stroke="midnightblue" points="197.328,-209.139 199.837,-198.845 191.457,-205.327 197.328,-209.139"/>
</g>
<!-- Node14 -->
<g id="node14" class="node"><title>Node14</title>
<g id="a_node14"><a xlink:href="packed__func_8h.html" target="_top" xlink:title="Type&#45;erased function used across TVM API. ">
<polygon fill="white" stroke="black" points="748.5,-291.5 748.5,-321.5 861.5,-321.5 861.5,-291.5 748.5,-291.5"/>
<text text-anchor="start" x="756.5" y="-309.5" font-family="Helvetica,sans-Serif" font-size="10.00">tvm/runtime/packed</text>
<text text-anchor="middle" x="805" y="-298.5" font-family="Helvetica,sans-Serif" font-size="10.00">_func.h</text>
</a>
</g>
</g>
<!-- Node1&#45;&gt;Node14 -->
<g id="edge16" class="edge"><title>Node1&#45;&gt;Node14</title>
<path fill="none" stroke="midnightblue" d="M632.98,-414.319C662.733,-395.843 732.937,-352.249 773.871,-326.83"/>
<polygon fill="midnightblue" stroke="midnightblue" points="775.733,-329.794 782.382,-321.545 772.04,-323.847 775.733,-329.794"/>
</g>
<!-- Node18 -->
<g id="node18" class="node"><title>Node18</title>
<polygon fill="white" stroke="#bfbfbf" points="1186.5,-179.5 1186.5,-198.5 1233.5,-198.5 1233.5,-179.5 1186.5,-179.5"/>
<text text-anchor="middle" x="1210" y="-186.5" font-family="Helvetica,sans-Serif" font-size="10.00">vector</text>
</g>
<!-- Node1&#45;&gt;Node18 -->
<g id="edge66" class="edge"><title>Node1&#45;&gt;Node18</title>
<path fill="none" stroke="midnightblue" d="M696.585,-418.156C877.227,-406.078 1313.83,-371.96 1356,-322 1397.69,-272.612 1298.08,-224.147 1243.2,-202.201"/>
<polygon fill="midnightblue" stroke="midnightblue" points="1244.43,-198.923 1233.84,-198.54 1241.88,-205.442 1244.43,-198.923"/>
</g>
<!-- Node19 -->
<g id="node19" class="node"><title>Node19</title>
<polygon fill="white" stroke="#bfbfbf" points="1290.5,-179.5 1290.5,-198.5 1383.5,-198.5 1383.5,-179.5 1290.5,-179.5"/>
<text text-anchor="middle" x="1337" y="-186.5" font-family="Helvetica,sans-Serif" font-size="10.00">unordered_map</text>
</g>
<!-- Node1&#45;&gt;Node19 -->
<g id="edge68" class="edge"><title>Node1&#45;&gt;Node19</title>
<path fill="none" stroke="midnightblue" d="M696.599,-422.971C809.561,-421.595 1025.4,-413.925 1205,-378 1283,-362.396 1328.37,-386.452 1375,-322 1400.76,-286.396 1369.74,-233.655 1350.34,-206.895"/>
<polygon fill="midnightblue" stroke="midnightblue" points="1352.89,-204.462 1344.08,-198.584 1347.3,-208.676 1352.89,-204.462"/>
</g>
<!-- Node27 -->
<g id="node27" class="node"><title>Node27</title>
<g id="a_node27"><a xlink:href="runtime_2container_8h.html" target="_top" xlink:title="Common POD(plain old data) container types. ">
<polygon fill="white" stroke="black" points="460,-358.5 460,-377.5 592,-377.5 592,-358.5 460,-358.5"/>
<text text-anchor="middle" x="526" y="-365.5" font-family="Helvetica,sans-Serif" font-size="10.00">tvm/runtime/container.h</text>
</a>
</g>
</g>
<!-- Node1&#45;&gt;Node27 -->
<g id="edge54" class="edge"><title>Node1&#45;&gt;Node27</title>
<path fill="none" stroke="midnightblue" d="M604.058,-414.324C589.415,-405.822 566.866,-392.729 549.762,-382.797"/>
<polygon fill="midnightblue" stroke="midnightblue" points="551.31,-379.649 540.905,-377.655 547.795,-385.703 551.31,-379.649"/>
</g>
<!-- Node29 -->
<g id="node29" class="node"><title>Node29</title>
<polygon fill="white" stroke="#bfbfbf" points="1270.5,-297 1270.5,-316 1347.5,-316 1347.5,-297 1270.5,-297"/>
<text text-anchor="middle" x="1309" y="-304" font-family="Helvetica,sans-Serif" font-size="10.00">initializer_list</text>
</g>
<!-- Node1&#45;&gt;Node29 -->
<g id="edge67" class="edge"><title>Node1&#45;&gt;Node29</title>
<path fill="none" stroke="midnightblue" d="M688.744,-414.492C806.421,-399.569 1051.58,-366.03 1256,-322 1260.65,-320.998 1265.5,-319.836 1270.3,-318.615"/>
<polygon fill="midnightblue" stroke="midnightblue" points="1271.21,-321.994 1279.98,-316.056 1269.42,-315.227 1271.21,-321.994"/>
</g>
<!-- Node3 -->
<g id="node3" class="node"><title>Node3</title>
<polygon fill="white" stroke="#bfbfbf" points="450,-62 450,-81 536,-81 536,-62 450,-62"/>
<text text-anchor="middle" x="493" y="-69" font-family="Helvetica,sans-Serif" font-size="10.00">dmlc/logging.h</text>
</g>
<!-- Node2&#45;&gt;Node3 -->
<g id="edge2" class="edge"><title>Node2&#45;&gt;Node3</title>
<path fill="none" stroke="midnightblue" d="M530.696,-123.475C524.096,-114.55 513.563,-100.307 505.307,-89.1425"/>
<polygon fill="midnightblue" stroke="midnightblue" points="508.052,-86.9684 499.292,-81.0091 502.424,-91.1305 508.052,-86.9684"/>
</g>
<!-- Node4 -->
<g id="node4" class="node"><title>Node4</title>
<g id="a_node4"><a xlink:href="c__runtime__api_8h.html" target="_top" xlink:title="tvm/runtime/c_runtime\l_api.h">
<polygon fill="white" stroke="black" points="827.5,-56.5 827.5,-86.5 954.5,-86.5 954.5,-56.5 827.5,-56.5"/>
<text text-anchor="start" x="835.5" y="-74.5" font-family="Helvetica,sans-Serif" font-size="10.00">tvm/runtime/c_runtime</text>
<text text-anchor="middle" x="891" y="-63.5" font-family="Helvetica,sans-Serif" font-size="10.00">_api.h</text>
</a>
</g>
</g>
<!-- Node2&#45;&gt;Node4 -->
<g id="edge3" class="edge"><title>Node2&#45;&gt;Node4</title>
<path fill="none" stroke="midnightblue" d="M587.72,-123.475C647.852,-113.368 748.557,-96.4416 817.294,-84.8885"/>
<polygon fill="midnightblue" stroke="midnightblue" points="817.913,-88.3336 827.194,-83.2244 816.752,-81.4304 817.913,-88.3336"/>
</g>
<!-- Node2&#45;&gt;Node8 -->
<g id="edge7" class="edge"><title>Node2&#45;&gt;Node8</title>
<path fill="none" stroke="midnightblue" d="M510.924,-123.475C479.434,-113.18 426.302,-95.8103 390.942,-84.2502"/>
<polygon fill="midnightblue" stroke="midnightblue" points="391.62,-80.7898 381.028,-81.0091 389.445,-87.4433 391.62,-80.7898"/>
</g>
<!-- Node2&#45;&gt;Node9 -->
<g id="edge8" class="edge"><title>Node2&#45;&gt;Node9</title>
<path fill="none" stroke="midnightblue" d="M595.584,-124.064C598.767,-123.689 601.922,-123.332 605,-123 823.517,-99.4334 1087.46,-80.753 1177.84,-74.6348"/>
<polygon fill="midnightblue" stroke="midnightblue" points="1178.25,-78.1155 1187.99,-73.9515 1177.77,-71.1314 1178.25,-78.1155"/>
</g>
<!-- Node2&#45;&gt;Node10 -->
<g id="edge9" class="edge"><title>Node2&#45;&gt;Node10</title>
<path fill="none" stroke="midnightblue" d="M478.306,-124.099C383.405,-111.324 199.515,-86.5693 126.238,-76.7052"/>
<polygon fill="midnightblue" stroke="midnightblue" points="126.631,-73.2265 116.253,-75.361 125.697,-80.1639 126.631,-73.2265"/>
</g>
<!-- Node11 -->
<g id="node11" class="node"><title>Node11</title>
<polygon fill="white" stroke="#bfbfbf" points="632,-62 632,-81 682,-81 682,-62 632,-62"/>
<text text-anchor="middle" x="657" y="-69" font-family="Helvetica,sans-Serif" font-size="10.00">atomic</text>
</g>
<!-- Node2&#45;&gt;Node11 -->
<g id="edge10" class="edge"><title>Node2&#45;&gt;Node11</title>
<path fill="none" stroke="midnightblue" d="M554.193,-123.475C574.243,-113.534 607.599,-96.9947 630.86,-85.461"/>
<polygon fill="midnightblue" stroke="midnightblue" points="632.434,-88.5871 639.839,-81.0091 629.325,-82.3157 632.434,-88.5871"/>
</g>
<!-- Node5 -->
<g id="node5" class="node"><title>Node5</title>
<polygon fill="white" stroke="#bfbfbf" points="756,-0.5 756,-19.5 846,-19.5 846,-0.5 756,-0.5"/>
<text text-anchor="middle" x="801" y="-7.5" font-family="Helvetica,sans-Serif" font-size="10.00">dlpack/dlpack.h</text>
</g>
<!-- Node4&#45;&gt;Node5 -->
<g id="edge4" class="edge"><title>Node4&#45;&gt;Node5</title>
<path fill="none" stroke="midnightblue" d="M869.671,-56.3993C855.515,-47.0402 836.989,-34.7924 822.747,-25.3771"/>
<polygon fill="midnightblue" stroke="midnightblue" points="824.368,-22.2531 814.096,-19.6578 820.507,-28.0923 824.368,-22.2531"/>
</g>
<!-- Node6 -->
<g id="node6" class="node"><title>Node6</title>
<polygon fill="white" stroke="#bfbfbf" points="864.5,-0.5 864.5,-19.5 917.5,-19.5 917.5,-0.5 864.5,-0.5"/>
<text text-anchor="middle" x="891" y="-7.5" font-family="Helvetica,sans-Serif" font-size="10.00">stdint.h</text>
</g>
<!-- Node4&#45;&gt;Node6 -->
<g id="edge5" class="edge"><title>Node4&#45;&gt;Node6</title>
<path fill="none" stroke="midnightblue" d="M891,-56.3993C891,-48.4664 891,-38.458 891,-29.8583"/>
<polygon fill="midnightblue" stroke="midnightblue" points="894.5,-29.6577 891,-19.6578 887.5,-29.6578 894.5,-29.6577"/>
</g>
<!-- Node7 -->
<g id="node7" class="node"><title>Node7</title>
<polygon fill="white" stroke="#bfbfbf" points="935.5,-0.5 935.5,-19.5 990.5,-19.5 990.5,-0.5 935.5,-0.5"/>
<text text-anchor="middle" x="963" y="-7.5" font-family="Helvetica,sans-Serif" font-size="10.00">stddef.h</text>
</g>
<!-- Node4&#45;&gt;Node7 -->
<g id="edge6" class="edge"><title>Node4&#45;&gt;Node7</title>
<path fill="none" stroke="midnightblue" d="M908.063,-56.3993C919.065,-47.3076 933.365,-35.4899 944.618,-26.1909"/>
<polygon fill="midnightblue" stroke="midnightblue" points="947.044,-28.726 952.523,-19.6578 942.585,-23.33 947.044,-28.726"/>
</g>
<!-- Node12&#45;&gt;Node2 -->
<g id="edge12" class="edge"><title>Node12&#45;&gt;Node2</title>
<path fill="none" stroke="midnightblue" d="M258.448,-179.444C317.158,-169.865 412.228,-154.356 474.682,-144.167"/>
<polygon fill="midnightblue" stroke="midnightblue" points="475.491,-147.581 484.797,-142.516 474.364,-140.672 475.491,-147.581"/>
</g>
<!-- Node12&#45;&gt;Node8 -->
<g id="edge15" class="edge"><title>Node12&#45;&gt;Node8</title>
<path fill="none" stroke="midnightblue" d="M215.896,-179.336C230.515,-166.633 258.866,-142.366 284,-123 300.316,-110.428 319.363,-96.9424 333.62,-87.0719"/>
<polygon fill="midnightblue" stroke="midnightblue" points="335.966,-89.7061 342.219,-81.1537 331.997,-83.9397 335.966,-89.7061"/>
</g>
<!-- Node12&#45;&gt;Node10 -->
<g id="edge14" class="edge"><title>Node12&#45;&gt;Node10</title>
<path fill="none" stroke="midnightblue" d="M197.657,-179.319C179.175,-160.088 134.538,-113.641 110.67,-88.8054"/>
<polygon fill="midnightblue" stroke="midnightblue" points="112.893,-86.0669 103.44,-81.282 107.846,-90.9174 112.893,-86.0669"/>
</g>
<!-- Node13 -->
<g id="node13" class="node"><title>Node13</title>
<polygon fill="white" stroke="#bfbfbf" points="182.5,-123.5 182.5,-142.5 229.5,-142.5 229.5,-123.5 182.5,-123.5"/>
<text text-anchor="middle" x="206" y="-130.5" font-family="Helvetica,sans-Serif" font-size="10.00">cstdlib</text>
</g>
<!-- Node12&#45;&gt;Node13 -->
<g id="edge13" class="edge"><title>Node12&#45;&gt;Node13</title>
<path fill="none" stroke="midnightblue" d="M206,-179.083C206,-172.006 206,-161.861 206,-152.986"/>
<polygon fill="midnightblue" stroke="midnightblue" points="209.5,-152.751 206,-142.751 202.5,-152.751 209.5,-152.751"/>
</g>
<!-- Node14&#45;&gt;Node2 -->
<g id="edge45" class="edge"><title>Node14&#45;&gt;Node2</title>
<path fill="none" stroke="midnightblue" d="M748.241,-298.026C712.502,-291.222 666.73,-278.486 632,-255 591.587,-227.671 560.479,-177.738 545.972,-151.372"/>
<polygon fill="midnightblue" stroke="midnightblue" points="549.041,-149.687 541.241,-142.517 542.867,-152.987 549.041,-149.687"/>
</g>
<!-- Node14&#45;&gt;Node3 -->
<g id="edge17" class="edge"><title>Node14&#45;&gt;Node3</title>
<path fill="none" stroke="midnightblue" d="M748.339,-298.027C706.954,-290.974 650.382,-277.946 605,-255 535.121,-219.668 502.419,-213.814 469,-143 460.762,-125.543 470.295,-104.47 479.674,-89.9354"/>
<polygon fill="midnightblue" stroke="midnightblue" points="482.758,-91.6317 485.626,-81.4323 477.024,-87.6174 482.758,-91.6317"/>
</g>
<!-- Node14&#45;&gt;Node4 -->
<g id="edge18" class="edge"><title>Node14&#45;&gt;Node4</title>
<path fill="none" stroke="midnightblue" d="M807.7,-291.368C811.426,-275.56 819.63,-250.186 836,-235 871.244,-202.304 902.425,-231.334 938,-199 958.306,-180.544 958.083,-169.795 964,-143 965.917,-134.32 968.127,-130.873 964,-123 957.206,-110.04 945.41,-99.7461 933.256,-91.924"/>
<polygon fill="midnightblue" stroke="midnightblue" points="934.793,-88.766 924.409,-86.6623 931.214,-94.7824 934.793,-88.766"/>
</g>
<!-- Node14&#45;&gt;Node8 -->
<g id="edge53" class="edge"><title>Node14&#45;&gt;Node8</title>
<path fill="none" stroke="midnightblue" d="M748.332,-300.757C697.66,-294.905 622.308,-282.159 562,-255 474.644,-215.66 397.457,-126.425 367.854,-89.2473"/>
<polygon fill="midnightblue" stroke="midnightblue" points="370.596,-87.0716 361.671,-81.362 365.087,-91.391 370.596,-87.0716"/>
</g>
<!-- Node14&#45;&gt;Node9 -->
<g id="edge49" class="edge"><title>Node14&#45;&gt;Node9</title>
<path fill="none" stroke="midnightblue" d="M861.789,-303.092C974.554,-297.727 1218.04,-282.999 1243,-255 1285.1,-207.764 1243.12,-125.501 1221.33,-89.8263"/>
<polygon fill="midnightblue" stroke="midnightblue" points="1224.11,-87.6605 1215.81,-81.0674 1218.18,-91.3934 1224.11,-87.6605"/>
</g>
<!-- Node14&#45;&gt;Node10 -->
<g id="edge52" class="edge"><title>Node14&#45;&gt;Node10</title>
<path fill="none" stroke="midnightblue" d="M748.439,-304.152C600.914,-299.52 209.194,-279.728 113,-199 81.9361,-172.931 86.0592,-119.585 90.9556,-91.2136"/>
<polygon fill="midnightblue" stroke="midnightblue" points="94.4596,-91.5301 92.9335,-81.0458 87.5884,-90.1934 94.4596,-91.5301"/>
</g>
<!-- Node15 -->
<g id="node15" class="node"><title>Node15</title>
<g id="a_node15"><a xlink:href="runtime_2module_8h.html" target="_top" xlink:title="Runtime container of the functions generated by TVM, This is used to support dynamically link...">
<polygon fill="white" stroke="black" points="871,-235.5 871,-254.5 995,-254.5 995,-235.5 871,-235.5"/>
<text text-anchor="middle" x="933" y="-242.5" font-family="Helvetica,sans-Serif" font-size="10.00">tvm/runtime/module.h</text>
</a>
</g>
</g>
<!-- Node14&#45;&gt;Node15 -->
<g id="edge19" class="edge"><title>Node14&#45;&gt;Node15</title>
<path fill="none" stroke="midnightblue" d="M829.494,-291.399C849.599,-281.461 878.052,-268.265 900.117,-258.662"/>
<polygon fill="midnightblue" stroke="midnightblue" points="901.637,-261.819 909.445,-254.658 898.876,-255.387 901.637,-261.819"/>
</g>
<!-- Node17 -->
<g id="node17" class="node"><title>Node17</title>
<polygon fill="white" stroke="#bfbfbf" points="996.5,-179.5 996.5,-198.5 1053.5,-198.5 1053.5,-179.5 996.5,-179.5"/>
<text text-anchor="middle" x="1025" y="-186.5" font-family="Helvetica,sans-Serif" font-size="10.00">memory</text>
</g>
<!-- Node14&#45;&gt;Node17 -->
<g id="edge51" class="edge"><title>Node14&#45;&gt;Node17</title>
<path fill="none" stroke="midnightblue" d="M812.735,-291.374C822.247,-275.326 839.884,-249.494 862,-235 872.479,-228.133 941.458,-210.415 986.262,-199.371"/>
<polygon fill="midnightblue" stroke="midnightblue" points="987.374,-202.702 996.252,-196.92 985.706,-195.904 987.374,-202.702"/>
</g>
<!-- Node14&#45;&gt;Node18 -->
<g id="edge48" class="edge"><title>Node14&#45;&gt;Node18</title>
<path fill="none" stroke="midnightblue" d="M861.853,-294.805C902.265,-286.309 957.413,-272.882 1004,-255 1021.82,-248.161 1024.23,-241.957 1042,-235 1066.37,-225.463 1134.74,-208.214 1176.37,-198.066"/>
<polygon fill="midnightblue" stroke="midnightblue" points="1177.44,-201.408 1186.33,-195.649 1175.79,-194.606 1177.44,-201.408"/>
</g>
<!-- Node20 -->
<g id="node20" class="node"><title>Node20</title>
<g id="a_node20"><a xlink:href="ndarray_8h.html" target="_top" xlink:title="A device&#45;independent managed NDArray abstraction. ">
<polygon fill="white" stroke="black" points="653.5,-235.5 653.5,-254.5 776.5,-254.5 776.5,-235.5 653.5,-235.5"/>
<text text-anchor="middle" x="715" y="-242.5" font-family="Helvetica,sans-Serif" font-size="10.00">tvm/runtime/ndarray.h</text>
</a>
</g>
</g>
<!-- Node14&#45;&gt;Node20 -->
<g id="edge29" class="edge"><title>Node14&#45;&gt;Node20</title>
<path fill="none" stroke="midnightblue" d="M783.671,-291.399C769.515,-282.04 750.989,-269.792 736.747,-260.377"/>
<polygon fill="midnightblue" stroke="midnightblue" points="738.368,-257.253 728.096,-254.658 734.507,-263.092 738.368,-257.253"/>
</g>
<!-- Node23 -->
<g id="node23" class="node"><title>Node23</title>
<g id="a_node23"><a xlink:href="data__type_8h.html" target="_top" xlink:title="tvm/runtime/data_type.h">
<polygon fill="white" stroke="black" points="614,-123.5 614,-142.5 750,-142.5 750,-123.5 614,-123.5"/>
<text text-anchor="middle" x="682" y="-130.5" font-family="Helvetica,sans-Serif" font-size="10.00">tvm/runtime/data_type.h</text>
</a>
</g>
</g>
<!-- Node14&#45;&gt;Node23 -->
<g id="edge40" class="edge"><title>Node14&#45;&gt;Node23</title>
<path fill="none" stroke="midnightblue" d="M748.375,-303.878C712.194,-299.536 667.755,-287.347 644,-255 620.437,-222.914 649.109,-175.797 667.989,-150.884"/>
<polygon fill="midnightblue" stroke="midnightblue" points="670.938,-152.797 674.386,-142.779 665.443,-148.46 670.938,-152.797"/>
</g>
<!-- Node24 -->
<g id="node24" class="node"><title>Node24</title>
<polygon fill="white" stroke="#bfbfbf" points="1051.5,-235.5 1051.5,-254.5 1114.5,-254.5 1114.5,-235.5 1051.5,-235.5"/>
<text text-anchor="middle" x="1083" y="-242.5" font-family="Helvetica,sans-Serif" font-size="10.00">functional</text>
</g>
<!-- Node14&#45;&gt;Node24 -->
<g id="edge46" class="edge"><title>Node14&#45;&gt;Node24</title>
<path fill="none" stroke="midnightblue" d="M861.593,-293.388C914.838,-281.992 993.332,-265.192 1041.15,-254.957"/>
<polygon fill="midnightblue" stroke="midnightblue" points="1042.11,-258.331 1051.16,-252.815 1040.65,-251.486 1042.11,-258.331"/>
</g>
<!-- Node25 -->
<g id="node25" class="node"><title>Node25</title>
<polygon fill="white" stroke="#bfbfbf" points="1132.5,-235.5 1132.5,-254.5 1173.5,-254.5 1173.5,-235.5 1132.5,-235.5"/>
<text text-anchor="middle" x="1153" y="-242.5" font-family="Helvetica,sans-Serif" font-size="10.00">tuple</text>
</g>
<!-- Node14&#45;&gt;Node25 -->
<g id="edge47" class="edge"><title>Node14&#45;&gt;Node25</title>
<path fill="none" stroke="midnightblue" d="M861.732,-298.823C923.558,-291.025 1025.49,-276.65 1122.47,-254.837"/>
<polygon fill="midnightblue" stroke="midnightblue" points="1123.47,-258.199 1132.44,-252.564 1121.91,-251.374 1123.47,-258.199"/>
</g>
<!-- Node26 -->
<g id="node26" class="node"><title>Node26</title>
<polygon fill="white" stroke="#bfbfbf" points="1192,-235.5 1192,-254.5 1234,-254.5 1234,-235.5 1192,-235.5"/>
<text text-anchor="middle" x="1213" y="-242.5" font-family="Helvetica,sans-Serif" font-size="10.00">limits</text>
</g>
<!-- Node14&#45;&gt;Node26 -->
<g id="edge50" class="edge"><title>Node14&#45;&gt;Node26</title>
<path fill="none" stroke="midnightblue" d="M861.655,-300.574C935.81,-293.52 1069.57,-278.712 1182,-255 1182.1,-254.979 1182.2,-254.958 1182.3,-254.937"/>
<polygon fill="midnightblue" stroke="midnightblue" points="1182.88,-258.398 1191.76,-252.62 1181.21,-251.599 1182.88,-258.398"/>
</g>
<!-- Node15&#45;&gt;Node2 -->
<g id="edge22" class="edge"><title>Node15&#45;&gt;Node2</title>
<path fill="none" stroke="midnightblue" d="M900.036,-235.496C865.746,-226.598 810.528,-212.124 763,-199 696.961,-180.765 620.391,-158.507 575.472,-145.335"/>
<polygon fill="midnightblue" stroke="midnightblue" points="576.423,-141.966 565.842,-142.508 574.451,-148.683 576.423,-141.966"/>
</g>
<!-- Node15&#45;&gt;Node4 -->
<g id="edge21" class="edge"><title>Node15&#45;&gt;Node4</title>
<path fill="none" stroke="midnightblue" d="M975.1,-235.454C1012.9,-227.025 1064.74,-213.351 1080,-199 1105.53,-174.997 1122.69,-150.524 1101,-123 1084.07,-101.522 1018.27,-88.1256 964.778,-80.5735"/>
<polygon fill="midnightblue" stroke="midnightblue" points="964.986,-77.0696 954.605,-79.1856 964.04,-84.0054 964.986,-77.0696"/>
</g>
<!-- Node15&#45;&gt;Node9 -->
<g id="edge26" class="edge"><title>Node15&#45;&gt;Node9</title>
<path fill="none" stroke="midnightblue" d="M977.547,-235.478C1020.88,-226.624 1083.13,-212.238 1104,-199 1148.61,-170.702 1183.94,-117.556 1200.22,-90.0271"/>
<polygon fill="midnightblue" stroke="midnightblue" points="1203.38,-91.5498 1205.34,-81.1372 1197.32,-88.0567 1203.38,-91.5498"/>
</g>
<!-- Node15&#45;&gt;Node12 -->
<g id="edge23" class="edge"><title>Node15&#45;&gt;Node12</title>
<path fill="none" stroke="midnightblue" d="M870.702,-239.373C736.954,-229.438 422.867,-206.108 279.584,-195.466"/>
<polygon fill="midnightblue" stroke="midnightblue" points="279.8,-191.972 269.568,-194.722 279.281,-198.953 279.8,-191.972"/>
</g>
<!-- Node15&#45;&gt;Node14 -->
<g id="edge28" class="edge"><title>Node15&#45;&gt;Node14</title>
<path fill="none" stroke="midnightblue" d="M919.304,-254.658C902.844,-263.16 874.825,-276.393 850.59,-287.228"/>
<polygon fill="midnightblue" stroke="midnightblue" points="848.899,-284.149 841.174,-291.399 851.735,-290.549 848.899,-284.149"/>
</g>
<!-- Node16 -->
<g id="node16" class="node"><title>Node16</title>
<polygon fill="white" stroke="#bfbfbf" points="1032,-123.5 1032,-142.5 1092,-142.5 1092,-123.5 1032,-123.5"/>
<text text-anchor="middle" x="1062" y="-130.5" font-family="Helvetica,sans-Serif" font-size="10.00">dmlc/io.h</text>
</g>
<!-- Node15&#45;&gt;Node16 -->
<g id="edge20" class="edge"><title>Node15&#45;&gt;Node16</title>
<path fill="none" stroke="midnightblue" d="M995.265,-237.783C1020.24,-231.878 1046.69,-220.562 1062,-199 1071.49,-185.642 1070.21,-166.529 1067.33,-152.485"/>
<polygon fill="midnightblue" stroke="midnightblue" points="1070.66,-151.375 1064.85,-142.515 1063.87,-153.065 1070.66,-151.375"/>
</g>
<!-- Node15&#45;&gt;Node17 -->
<g id="edge24" class="edge"><title>Node15&#45;&gt;Node17</title>
<path fill="none" stroke="midnightblue" d="M947.781,-235.324C962.267,-226.822 984.573,-213.729 1001.49,-203.797"/>
<polygon fill="midnightblue" stroke="midnightblue" points="1003.4,-206.735 1010.26,-198.655 999.859,-200.698 1003.4,-206.735"/>
</g>
<!-- Node15&#45;&gt;Node18 -->
<g id="edge25" class="edge"><title>Node15&#45;&gt;Node18</title>
<path fill="none" stroke="midnightblue" d="M982.11,-235.441C1030.52,-226.843 1106.54,-212.907 1172,-199 1173.45,-198.692 1174.93,-198.371 1176.43,-198.041"/>
<polygon fill="midnightblue" stroke="midnightblue" points="1177.35,-201.42 1186.32,-195.787 1175.79,-194.595 1177.35,-201.42"/>
</g>
<!-- Node15&#45;&gt;Node19 -->
<g id="edge27" class="edge"><title>Node15&#45;&gt;Node19</title>
<path fill="none" stroke="midnightblue" d="M995.24,-235.681C1073.03,-225.283 1205.07,-207.634 1280.22,-197.589"/>
<polygon fill="midnightblue" stroke="midnightblue" points="1280.99,-201.018 1290.43,-196.224 1280.06,-194.08 1280.99,-201.018"/>
</g>
<!-- Node20&#45;&gt;Node2 -->
<g id="edge31" class="edge"><title>Node20&#45;&gt;Node2</title>
<path fill="none" stroke="midnightblue" d="M701.033,-235.368C670.358,-216.412 596.874,-171.001 559.561,-147.942"/>
<polygon fill="midnightblue" stroke="midnightblue" points="561.249,-144.871 550.902,-142.591 557.569,-150.826 561.249,-144.871"/>
</g>
<!-- Node20&#45;&gt;Node4 -->
<g id="edge30" class="edge"><title>Node20&#45;&gt;Node4</title>
<path fill="none" stroke="midnightblue" d="M774.042,-235.466C823.406,-227.431 889.148,-214.357 911,-199 941.58,-177.51 962.189,-157.15 947,-123 941.763,-111.225 932.273,-101.039 922.576,-92.9606"/>
<polygon fill="midnightblue" stroke="midnightblue" points="924.519,-90.0386 914.47,-86.6819 920.233,-95.5726 924.519,-90.0386"/>
</g>
<!-- Node20&#45;&gt;Node10 -->
<g id="edge39" class="edge"><title>Node20&#45;&gt;Node10</title>
<path fill="none" stroke="midnightblue" d="M653.295,-243.119C511.759,-240.55 172.832,-231.084 133,-199 100.352,-172.703 94.9545,-119.455 94.5365,-91.1578"/>
<polygon fill="midnightblue" stroke="midnightblue" points="98.0371,-91.0365 94.5891,-81.0184 91.0372,-91.0001 98.0371,-91.0365"/>
</g>
<!-- Node20&#45;&gt;Node11 -->
<g id="edge37" class="edge"><title>Node20&#45;&gt;Node11</title>
<path fill="none" stroke="midnightblue" d="M723.226,-235.241C741.651,-214.521 782.813,-161.362 759,-123 744.475,-99.6013 715.532,-86.7121 692.176,-79.8245"/>
<polygon fill="midnightblue" stroke="midnightblue" points="692.805,-76.3692 682.239,-77.1464 690.984,-83.1281 692.805,-76.3692"/>
</g>
<!-- Node20&#45;&gt;Node18 -->
<g id="edge38" class="edge"><title>Node20&#45;&gt;Node18</title>
<path fill="none" stroke="midnightblue" d="M776.691,-237.27C882.212,-225.759 1093.92,-202.663 1176.21,-193.687"/>
<polygon fill="midnightblue" stroke="midnightblue" points="1176.7,-197.154 1186.26,-192.59 1175.94,-190.195 1176.7,-197.154"/>
</g>
<!-- Node21 -->
<g id="node21" class="node"><title>Node21</title>
<g id="a_node21"><a xlink:href="serializer_8h.html" target="_top" xlink:title="Serializer extension to support TVM data types Include this file to enable serialization of DLDataTyp...">
<polygon fill="white" stroke="black" points="772,-179.5 772,-198.5 902,-198.5 902,-179.5 772,-179.5"/>
<text text-anchor="middle" x="837" y="-186.5" font-family="Helvetica,sans-Serif" font-size="10.00">tvm/runtime/serializer.h</text>
</a>
</g>
</g>
<!-- Node20&#45;&gt;Node21 -->
<g id="edge32" class="edge"><title>Node20&#45;&gt;Node21</title>
<path fill="none" stroke="midnightblue" d="M729.487,-235.324C747.579,-226.467 778.61,-212.63 802.786,-202.573"/>
<polygon fill="midnightblue" stroke="midnightblue" points="804.414,-205.688 812.337,-198.655 801.757,-199.212 804.414,-205.688"/>
</g>
<!-- Node21&#45;&gt;Node4 -->
<g id="edge35" class="edge"><title>Node21&#45;&gt;Node4</title>
<path fill="none" stroke="midnightblue" d="M834.392,-179.125C831.085,-166.16 826.741,-141.568 835,-123 840.237,-111.225 849.727,-101.039 859.424,-92.9606"/>
<polygon fill="midnightblue" stroke="midnightblue" points="861.767,-95.5726 867.53,-86.6819 857.481,-90.0386 861.767,-95.5726"/>
</g>
<!-- Node21&#45;&gt;Node16 -->
<g id="edge33" class="edge"><title>Node21&#45;&gt;Node16</title>
<path fill="none" stroke="midnightblue" d="M872.652,-179.444C913.291,-169.69 979.557,-153.786 1021.95,-143.613"/>
<polygon fill="midnightblue" stroke="midnightblue" points="1023.01,-146.957 1031.92,-141.22 1021.37,-140.151 1023.01,-146.957"/>
</g>
<!-- Node21&#45;&gt;Node20 -->
<g id="edge36" class="edge"><title>Node21&#45;&gt;Node20</title>
<path fill="none" stroke="midnightblue" d="M822.839,-198.516C804.67,-207.427 773.1,-221.504 748.707,-231.638"/>
<polygon fill="midnightblue" stroke="midnightblue" points="747.346,-228.413 739.42,-235.444 750,-234.89 747.346,-228.413"/>
</g>
<!-- Node22 -->
<g id="node22" class="node"><title>Node22</title>
<polygon fill="white" stroke="#bfbfbf" points="844,-123.5 844,-142.5 938,-142.5 938,-123.5 844,-123.5"/>
<text text-anchor="middle" x="891" y="-130.5" font-family="Helvetica,sans-Serif" font-size="10.00">dmlc/serializer.h</text>
</g>
<!-- Node21&#45;&gt;Node22 -->
<g id="edge34" class="edge"><title>Node21&#45;&gt;Node22</title>
<path fill="none" stroke="midnightblue" d="M845.917,-179.083C853.78,-171.22 865.431,-159.569 874.919,-150.081"/>
<polygon fill="midnightblue" stroke="midnightblue" points="877.653,-152.297 882.249,-142.751 872.703,-147.347 877.653,-152.297"/>
</g>
<!-- Node23&#45;&gt;Node3 -->
<g id="edge42" class="edge"><title>Node23&#45;&gt;Node3</title>
<path fill="none" stroke="midnightblue" d="M654.921,-123.475C622.08,-113.136 566.57,-95.6611 529.852,-84.1017"/>
<polygon fill="midnightblue" stroke="midnightblue" points="530.618,-80.6735 520.029,-81.0091 528.516,-87.3505 530.618,-80.6735"/>
</g>
<!-- Node23&#45;&gt;Node4 -->
<g id="edge41" class="edge"><title>Node23&#45;&gt;Node4</title>
<path fill="none" stroke="midnightblue" d="M711.945,-123.475C743.161,-114.588 792.897,-100.429 832.038,-89.2859"/>
<polygon fill="midnightblue" stroke="midnightblue" points="833.083,-92.6274 841.743,-86.523 831.167,-85.8949 833.083,-92.6274"/>
</g>
<!-- Node23&#45;&gt;Node8 -->
<g id="edge43" class="edge"><title>Node23&#45;&gt;Node8</title>
<path fill="none" stroke="midnightblue" d="M635.149,-123.475C572.212,-112.023 461.159,-91.8164 399.466,-80.5909"/>
<polygon fill="midnightblue" stroke="midnightblue" points="399.738,-77.0831 389.273,-78.7363 398.485,-83.97 399.738,-77.0831"/>
</g>
<!-- Node23&#45;&gt;Node9 -->
<g id="edge44" class="edge"><title>Node23&#45;&gt;Node9</title>
<path fill="none" stroke="midnightblue" d="M750.215,-124.313C865.307,-111.343 1093.73,-85.6019 1177.89,-76.1179"/>
<polygon fill="midnightblue" stroke="midnightblue" points="1178.34,-79.5904 1187.88,-74.9925 1177.55,-72.6344 1178.34,-79.5904"/>
</g>
<!-- Node27&#45;&gt;Node2 -->
<g id="edge57" class="edge"><title>Node27&#45;&gt;Node2</title>
<path fill="none" stroke="midnightblue" d="M526.405,-358.431C527.994,-324.754 533.837,-200.994 536.098,-153.102"/>
<polygon fill="midnightblue" stroke="midnightblue" points="539.604,-153.05 536.58,-142.896 532.612,-152.72 539.604,-153.05"/>
</g>
<!-- Node27&#45;&gt;Node3 -->
<g id="edge55" class="edge"><title>Node27&#45;&gt;Node3</title>
<path fill="none" stroke="midnightblue" d="M497.421,-358.402C478.504,-351.378 454.428,-339.683 439,-322 415.434,-294.989 412,-281.846 412,-246 412,-246 412,-246 412,-188 412,-145.497 449.222,-107.543 473.201,-87.5016"/>
<polygon fill="midnightblue" stroke="midnightblue" points="475.455,-90.1802 481.048,-81.1817 471.065,-84.7285 475.455,-90.1802"/>
</g>
<!-- Node27&#45;&gt;Node8 -->
<g id="edge62" class="edge"><title>Node27&#45;&gt;Node8</title>
<path fill="none" stroke="midnightblue" d="M479.034,-358.425C422.769,-345.129 336,-313.656 336,-246 336,-246 336,-246 336,-188 336,-153.405 344.402,-113.745 350.032,-91.0547"/>
<polygon fill="midnightblue" stroke="midnightblue" points="353.487,-91.6707 352.594,-81.1136 346.709,-89.9237 353.487,-91.6707"/>
</g>
<!-- Node27&#45;&gt;Node9 -->
<g id="edge61" class="edge"><title>Node27&#45;&gt;Node9</title>
<path fill="none" stroke="midnightblue" d="M592.133,-365.812C732.607,-362.722 1056.51,-352.433 1162,-322 1217.69,-305.934 1362.21,-248.718 1392,-199 1430.61,-134.567 1304.51,-94.8448 1242.45,-79.6124"/>
<polygon fill="midnightblue" stroke="midnightblue" points="1242.9,-76.1228 1232.36,-77.2146 1241.28,-82.9329 1242.9,-76.1228"/>
</g>
<!-- Node27&#45;&gt;Node10 -->
<g id="edge63" class="edge"><title>Node27&#45;&gt;Node10</title>
<path fill="none" stroke="midnightblue" d="M459.781,-362.087C409.307,-356.639 338.864,-345.31 281,-322 189.072,-284.967 150.159,-281.339 95,-199 73.0748,-166.271 81.8749,-117.301 89.1071,-90.9186"/>
<polygon fill="midnightblue" stroke="midnightblue" points="92.5289,-91.6902 92.0166,-81.1077 85.8178,-89.6999 92.5289,-91.6902"/>
</g>
<!-- Node27&#45;&gt;Node12 -->
<g id="edge56" class="edge"><title>Node27&#45;&gt;Node12</title>
<path fill="none" stroke="midnightblue" d="M459.678,-362.919C417.778,-357.885 363.846,-346.714 322,-322 273.123,-293.134 234.018,-236.499 216.299,-207.709"/>
<polygon fill="midnightblue" stroke="midnightblue" points="219.087,-205.554 210.942,-198.778 213.084,-209.154 219.087,-205.554"/>
</g>
<!-- Node27&#45;&gt;Node14 -->
<g id="edge58" class="edge"><title>Node27&#45;&gt;Node14</title>
<path fill="none" stroke="midnightblue" d="M565.974,-358.475C611.01,-348.871 684.924,-333.108 738.651,-321.65"/>
<polygon fill="midnightblue" stroke="midnightblue" points="739.386,-325.072 748.436,-319.563 737.926,-318.226 739.386,-325.072"/>
</g>
<!-- Node27&#45;&gt;Node18 -->
<g id="edge64" class="edge"><title>Node27&#45;&gt;Node18</title>
<path fill="none" stroke="midnightblue" d="M592.23,-367.218C753.706,-366.183 1160.5,-353.635 1243,-255 1255.47,-240.092 1241.1,-219.681 1227.61,-205.733"/>
<polygon fill="midnightblue" stroke="midnightblue" points="1230,-203.172 1220.38,-198.725 1225.13,-208.198 1230,-203.172"/>
</g>
<!-- Node28 -->
<g id="node28" class="node"><title>Node28</title>
<polygon fill="white" stroke="#bfbfbf" points="448.5,-297 448.5,-316 497.5,-316 497.5,-297 448.5,-297"/>
<text text-anchor="middle" x="473" y="-304" font-family="Helvetica,sans-Serif" font-size="10.00">cstring</text>
</g>
<!-- Node27&#45;&gt;Node28 -->
<g id="edge59" class="edge"><title>Node27&#45;&gt;Node28</title>
<path fill="none" stroke="midnightblue" d="M518.406,-358.475C510.299,-349.373 497.265,-334.741 487.237,-323.483"/>
<polygon fill="midnightblue" stroke="midnightblue" points="489.844,-321.148 480.58,-316.009 484.617,-325.804 489.844,-321.148"/>
</g>
<!-- Node27&#45;&gt;Node29 -->
<g id="edge60" class="edge"><title>Node27&#45;&gt;Node29</title>
<path fill="none" stroke="midnightblue" d="M592.445,-367.449C721.336,-367.32 1013.92,-362.137 1256,-322 1261.22,-321.135 1266.66,-319.964 1271.99,-318.661"/>
<polygon fill="midnightblue" stroke="midnightblue" points="1273.22,-321.958 1282,-316.036 1271.44,-315.186 1273.22,-321.958"/>
</g>
</g>
</svg>
