<?xml version="1.0" encoding="UTF-8" standalone="no"?>
<!DOCTYPE svg PUBLIC "-//W3C//DTD SVG 1.1//EN"
 "http://www.w3.org/Graphics/SVG/1.1/DTD/svg11.dtd">
<!-- Generated by graphviz version 2.38.0 (20140413.2041)
 -->
<!-- Title: include/tvm/node/node.h Pages: 1 -->
<svg width="2140pt" height="621pt"
 viewBox="0.00 0.00 2140.00 621.00" xmlns="http://www.w3.org/2000/svg" xmlns:xlink="http://www.w3.org/1999/xlink">
<g id="graph0" class="graph" transform="scale(1 1) rotate(0) translate(4 617)">
<title>include/tvm/node/node.h</title>
<polygon fill="white" stroke="none" points="-4,4 -4,-617 2136,-617 2136,4 -4,4"/>
<!-- Node1 -->
<g id="node1" class="node"><title>Node1</title>
<polygon fill="#bfbfbf" stroke="black" points="1259.5,-593.5 1259.5,-612.5 1394.5,-612.5 1394.5,-593.5 1259.5,-593.5"/>
<text text-anchor="middle" x="1327" y="-600.5" font-family="Helvetica,sans-Serif" font-size="10.00">include/tvm/node/node.h</text>
</g>
<!-- Node2 -->
<g id="node2" class="node"><title>Node2</title>
<g id="a_node2"><a xlink:href="c__runtime__api_8h.html" target="_top" xlink:title="tvm/runtime/c_runtime\l_api.h">
<polygon fill="white" stroke="black" points="451.5,-56.5 451.5,-86.5 578.5,-86.5 578.5,-56.5 451.5,-56.5"/>
<text text-anchor="start" x="459.5" y="-74.5" font-family="Helvetica,sans-Serif" font-size="10.00">tvm/runtime/c_runtime</text>
<text text-anchor="middle" x="515" y="-63.5" font-family="Helvetica,sans-Serif" font-size="10.00">_api.h</text>
</a>
</g>
</g>
<!-- Node1&#45;&gt;Node2 -->
<g id="edge1" class="edge"><title>Node1&#45;&gt;Node2</title>
<path fill="none" stroke="midnightblue" d="M1259.14,-600.708C1022.8,-595.591 245.74,-573.357 163,-501 73.6148,-422.832 91.5985,-344.302 138,-235 186.907,-119.796 346.105,-86.1793 441.275,-76.4273"/>
<polygon fill="midnightblue" stroke="midnightblue" points="441.795,-79.8936 451.415,-75.4536 441.126,-72.9256 441.795,-79.8936"/>
</g>
<!-- Node6 -->
<g id="node6" class="node"><title>Node6</title>
<g id="a_node6"><a xlink:href="runtime_2container_8h.html" target="_top" xlink:title="Common POD(plain old data) container types. ">
<polygon fill="white" stroke="black" points="1465,-358.5 1465,-377.5 1597,-377.5 1597,-358.5 1465,-358.5"/>
<text text-anchor="middle" x="1531" y="-365.5" font-family="Helvetica,sans-Serif" font-size="10.00">tvm/runtime/container.h</text>
</a>
</g>
</g>
<!-- Node1&#45;&gt;Node6 -->
<g id="edge5" class="edge"><title>Node1&#45;&gt;Node6</title>
<path fill="none" stroke="midnightblue" d="M1339.49,-593.473C1351.53,-584.951 1369.95,-571.119 1384,-557 1440.91,-499.827 1496.28,-420.878 1519.54,-386.344"/>
<polygon fill="midnightblue" stroke="midnightblue" points="1522.58,-388.096 1525.22,-377.836 1516.76,-384.208 1522.58,-388.096"/>
</g>
<!-- Node8 -->
<g id="node8" class="node"><title>Node8</title>
<g id="a_node8"><a xlink:href="runtime_2memory_8h.html" target="_top" xlink:title="Runtime memory management. ">
<polygon fill="white" stroke="black" points="1692.5,-179.5 1692.5,-198.5 1819.5,-198.5 1819.5,-179.5 1692.5,-179.5"/>
<text text-anchor="middle" x="1756" y="-186.5" font-family="Helvetica,sans-Serif" font-size="10.00">tvm/runtime/memory.h</text>
</a>
</g>
</g>
<!-- Node1&#45;&gt;Node8 -->
<g id="edge64" class="edge"><title>Node1&#45;&gt;Node8</title>
<path fill="none" stroke="midnightblue" d="M1394.57,-600.672C1547.22,-597.175 1909.11,-585.907 1956,-557 1987.05,-537.86 1998,-522.972 1998,-486.5 1998,-486.5 1998,-486.5 1998,-367 1998,-293.932 1959.57,-277.307 1900,-235 1876.52,-218.325 1846.64,-207.672 1820.2,-200.945"/>
<polygon fill="midnightblue" stroke="midnightblue" points="1820.79,-197.488 1810.25,-198.555 1819.16,-204.295 1820.79,-197.488"/>
</g>
<!-- Node9 -->
<g id="node9" class="node"><title>Node9</title>
<g id="a_node9"><a xlink:href="object_8h.html" target="_top" xlink:title="A managed object in the TVM runtime. ">
<polygon fill="white" stroke="black" points="1207.5,-123.5 1207.5,-142.5 1324.5,-142.5 1324.5,-123.5 1207.5,-123.5"/>
<text text-anchor="middle" x="1266" y="-130.5" font-family="Helvetica,sans-Serif" font-size="10.00">tvm/runtime/object.h</text>
</a>
</g>
</g>
<!-- Node1&#45;&gt;Node9 -->
<g id="edge63" class="edge"><title>Node1&#45;&gt;Node9</title>
<path fill="none" stroke="midnightblue" d="M1318.96,-593.421C1304.21,-577.018 1273.29,-539.411 1262,-501 1222.9,-368.001 1318.56,-335.959 1340,-199 1341.37,-190.218 1344.36,-186.748 1340,-179 1331.78,-164.378 1316.67,-153.954 1302.24,-146.846"/>
<polygon fill="midnightblue" stroke="midnightblue" points="1303.48,-143.569 1292.93,-142.644 1300.6,-149.949 1303.48,-143.569"/>
</g>
<!-- Node10 -->
<g id="node10" class="node"><title>Node10</title>
<polygon fill="white" stroke="#bfbfbf" points="1630,-62 1630,-81 1698,-81 1698,-62 1630,-62"/>
<text text-anchor="middle" x="1664" y="-69" font-family="Helvetica,sans-Serif" font-size="10.00">type_traits</text>
</g>
<!-- Node1&#45;&gt;Node10 -->
<g id="edge110" class="edge"><title>Node1&#45;&gt;Node10</title>
<path fill="none" stroke="midnightblue" d="M1394.58,-601.563C1539.39,-599.948 1875.22,-592.381 1983,-557 2038.53,-538.773 2094,-544.943 2094,-486.5 2094,-486.5 2094,-486.5 2094,-305.5 2094,-131.326 1817.9,-86.6782 1708.18,-75.8119"/>
<polygon fill="midnightblue" stroke="midnightblue" points="1708.38,-72.3153 1698.1,-74.8625 1707.73,-79.2845 1708.38,-72.3153"/>
</g>
<!-- Node11 -->
<g id="node11" class="node"><title>Node11</title>
<polygon fill="white" stroke="#bfbfbf" points="149,-62 149,-81 193,-81 193,-62 149,-62"/>
<text text-anchor="middle" x="171" y="-69" font-family="Helvetica,sans-Serif" font-size="10.00">string</text>
</g>
<!-- Node1&#45;&gt;Node11 -->
<g id="edge107" class="edge"><title>Node1&#45;&gt;Node11</title>
<path fill="none" stroke="midnightblue" d="M1259.38,-600.936C1058.4,-597.483 466.841,-585.148 276,-557 150.75,-538.526 0,-613.105 0,-486.5 0,-486.5 0,-486.5 0,-188 0,-121.61 89.6093,-90.8136 139.092,-78.8691"/>
<polygon fill="midnightblue" stroke="midnightblue" points="140.029,-82.2451 148.995,-76.6004 138.466,-75.4219 140.029,-82.2451"/>
</g>
<!-- Node12 -->
<g id="node12" class="node"><title>Node12</title>
<polygon fill="white" stroke="#bfbfbf" points="1899,-62 1899,-81 1941,-81 1941,-62 1899,-62"/>
<text text-anchor="middle" x="1920" y="-69" font-family="Helvetica,sans-Serif" font-size="10.00">utility</text>
</g>
<!-- Node1&#45;&gt;Node12 -->
<g id="edge109" class="edge"><title>Node1&#45;&gt;Node12</title>
<path fill="none" stroke="midnightblue" d="M1394.76,-602.427C1548.15,-602.633 1917.62,-598.639 2034,-557 2084.52,-538.925 2132,-540.155 2132,-486.5 2132,-486.5 2132,-486.5 2132,-188 2132,-106.717 2010.34,-82.3029 1951.35,-75.2421"/>
<polygon fill="midnightblue" stroke="midnightblue" points="1951.43,-71.7298 1941.1,-74.1158 1950.66,-78.6879 1951.43,-71.7298"/>
</g>
<!-- Node19 -->
<g id="node19" class="node"><title>Node19</title>
<polygon fill="white" stroke="#bfbfbf" points="1284.5,-179.5 1284.5,-198.5 1331.5,-198.5 1331.5,-179.5 1284.5,-179.5"/>
<text text-anchor="middle" x="1308" y="-186.5" font-family="Helvetica,sans-Serif" font-size="10.00">vector</text>
</g>
<!-- Node1&#45;&gt;Node19 -->
<g id="edge108" class="edge"><title>Node1&#45;&gt;Node19</title>
<path fill="none" stroke="midnightblue" d="M1320.12,-593.33C1307.06,-576.475 1278.49,-537.712 1262,-501 1228.16,-425.649 1223.21,-403.836 1212,-322 1210.13,-308.35 1206.56,-303.657 1212,-291 1221.19,-269.629 1233.8,-271.694 1250,-255 1265.55,-238.975 1282.46,-219.812 1293.99,-206.462"/>
<polygon fill="midnightblue" stroke="midnightblue" points="1296.86,-208.488 1300.71,-198.62 1291.55,-203.931 1296.86,-208.488"/>
</g>
<!-- Node30 -->
<g id="node30" class="node"><title>Node30</title>
<g id="a_node30"><a xlink:href="reflection_8h.html" target="_top" xlink:title="Reflection and serialization of compiler IR/AST nodes. ">
<polygon fill="white" stroke="black" points="919.5,-537.5 919.5,-556.5 1038.5,-556.5 1038.5,-537.5 919.5,-537.5"/>
<text text-anchor="middle" x="979" y="-544.5" font-family="Helvetica,sans-Serif" font-size="10.00">tvm/node/reflection.h</text>
</a>
</g>
</g>
<!-- Node1&#45;&gt;Node30 -->
<g id="edge65" class="edge"><title>Node1&#45;&gt;Node30</title>
<path fill="none" stroke="midnightblue" d="M1271.86,-593.444C1210.01,-583.846 1109.77,-568.292 1044.11,-558.104"/>
<polygon fill="midnightblue" stroke="midnightblue" points="1044.3,-554.591 1033.88,-556.516 1043.23,-561.508 1044.3,-554.591"/>
</g>
<!-- Node31 -->
<g id="node31" class="node"><title>Node31</title>
<g id="a_node31"><a xlink:href="structural__equal_8h.html" target="_top" xlink:title="Structural equality comparison. ">
<polygon fill="white" stroke="black" points="1052.5,-470.5 1052.5,-500.5 1163.5,-500.5 1163.5,-470.5 1052.5,-470.5"/>
<text text-anchor="start" x="1060.5" y="-488.5" font-family="Helvetica,sans-Serif" font-size="10.00">tvm/node/structural</text>
<text text-anchor="middle" x="1108" y="-477.5" font-family="Helvetica,sans-Serif" font-size="10.00">_equal.h</text>
</a>
</g>
</g>
<!-- Node1&#45;&gt;Node31 -->
<g id="edge105" class="edge"><title>Node1&#45;&gt;Node31</title>
<path fill="none" stroke="midnightblue" d="M1288.43,-593.467C1260.27,-586.251 1221.79,-574.297 1191,-557 1167.34,-543.71 1144.13,-523.165 1128.29,-507.675"/>
<polygon fill="midnightblue" stroke="midnightblue" points="1130.69,-505.123 1121.14,-500.531 1125.74,-510.075 1130.69,-505.123"/>
</g>
<!-- Node33 -->
<g id="node33" class="node"><title>Node33</title>
<g id="a_node33"><a xlink:href="node_2container_8h.html" target="_top" xlink:title="Array/Map container in the DSL graph. ">
<polygon fill="white" stroke="black" points="1280.5,-414.5 1280.5,-433.5 1399.5,-433.5 1399.5,-414.5 1280.5,-414.5"/>
<text text-anchor="middle" x="1340" y="-421.5" font-family="Helvetica,sans-Serif" font-size="10.00">tvm/node/container.h</text>
</a>
</g>
</g>
<!-- Node1&#45;&gt;Node33 -->
<g id="edge104" class="edge"><title>Node1&#45;&gt;Node33</title>
<path fill="none" stroke="midnightblue" d="M1334.92,-593.396C1349.45,-576.951 1379.89,-539.278 1391,-501 1394.84,-487.768 1396.67,-482.558 1391,-470 1385.38,-457.555 1374.44,-447.172 1364.12,-439.527"/>
<polygon fill="midnightblue" stroke="midnightblue" points="1365.96,-436.543 1355.73,-433.764 1361.99,-442.312 1365.96,-436.543"/>
</g>
<!-- Node34 -->
<g id="node34" class="node"><title>Node34</title>
<g id="a_node34"><a xlink:href="structural__hash_8h.html" target="_top" xlink:title="tvm/node/structural\l_hash.h">
<polygon fill="white" stroke="black" points="1271.5,-470.5 1271.5,-500.5 1382.5,-500.5 1382.5,-470.5 1271.5,-470.5"/>
<text text-anchor="start" x="1279.5" y="-488.5" font-family="Helvetica,sans-Serif" font-size="10.00">tvm/node/structural</text>
<text text-anchor="middle" x="1327" y="-477.5" font-family="Helvetica,sans-Serif" font-size="10.00">_hash.h</text>
</a>
</g>
</g>
<!-- Node1&#45;&gt;Node34 -->
<g id="edge106" class="edge"><title>Node1&#45;&gt;Node34</title>
<path fill="none" stroke="midnightblue" d="M1327,-593.319C1327,-575.967 1327,-536.457 1327,-510.658"/>
<polygon fill="midnightblue" stroke="midnightblue" points="1330.5,-510.545 1327,-500.545 1323.5,-510.545 1330.5,-510.545"/>
</g>
<!-- Node35 -->
<g id="node35" class="node"><title>Node35</title>
<g id="a_node35"><a xlink:href="repr__printer_8h.html" target="_top" xlink:title="Printer class to print repr string of each AST/IR nodes. ">
<polygon fill="white" stroke="black" points="1817,-537.5 1817,-556.5 1947,-556.5 1947,-537.5 1817,-537.5"/>
<text text-anchor="middle" x="1882" y="-544.5" font-family="Helvetica,sans-Serif" font-size="10.00">tvm/node/repr_printer.h</text>
</a>
</g>
</g>
<!-- Node1&#45;&gt;Node35 -->
<g id="edge101" class="edge"><title>Node1&#45;&gt;Node35</title>
<path fill="none" stroke="midnightblue" d="M1394.78,-595.406C1498.99,-585.266 1697.88,-565.915 1806.54,-555.342"/>
<polygon fill="midnightblue" stroke="midnightblue" points="1807.15,-558.799 1816.76,-554.347 1806.47,-551.832 1807.15,-558.799"/>
</g>
<!-- Node3 -->
<g id="node3" class="node"><title>Node3</title>
<polygon fill="white" stroke="#bfbfbf" points="380,-0.5 380,-19.5 470,-19.5 470,-0.5 380,-0.5"/>
<text text-anchor="middle" x="425" y="-7.5" font-family="Helvetica,sans-Serif" font-size="10.00">dlpack/dlpack.h</text>
</g>
<!-- Node2&#45;&gt;Node3 -->
<g id="edge2" class="edge"><title>Node2&#45;&gt;Node3</title>
<path fill="none" stroke="midnightblue" d="M493.671,-56.3993C479.515,-47.0402 460.989,-34.7924 446.747,-25.3771"/>
<polygon fill="midnightblue" stroke="midnightblue" points="448.368,-22.2531 438.096,-19.6578 444.507,-28.0923 448.368,-22.2531"/>
</g>
<!-- Node4 -->
<g id="node4" class="node"><title>Node4</title>
<polygon fill="white" stroke="#bfbfbf" points="488.5,-0.5 488.5,-19.5 541.5,-19.5 541.5,-0.5 488.5,-0.5"/>
<text text-anchor="middle" x="515" y="-7.5" font-family="Helvetica,sans-Serif" font-size="10.00">stdint.h</text>
</g>
<!-- Node2&#45;&gt;Node4 -->
<g id="edge3" class="edge"><title>Node2&#45;&gt;Node4</title>
<path fill="none" stroke="midnightblue" d="M515,-56.3993C515,-48.4664 515,-38.458 515,-29.8583"/>
<polygon fill="midnightblue" stroke="midnightblue" points="518.5,-29.6577 515,-19.6578 511.5,-29.6578 518.5,-29.6577"/>
</g>
<!-- Node5 -->
<g id="node5" class="node"><title>Node5</title>
<polygon fill="white" stroke="#bfbfbf" points="559.5,-0.5 559.5,-19.5 614.5,-19.5 614.5,-0.5 559.5,-0.5"/>
<text text-anchor="middle" x="587" y="-7.5" font-family="Helvetica,sans-Serif" font-size="10.00">stddef.h</text>
</g>
<!-- Node2&#45;&gt;Node5 -->
<g id="edge4" class="edge"><title>Node2&#45;&gt;Node5</title>
<path fill="none" stroke="midnightblue" d="M532.063,-56.3993C543.065,-47.3076 557.365,-35.4899 568.618,-26.1909"/>
<polygon fill="midnightblue" stroke="midnightblue" points="571.044,-28.726 576.523,-19.6578 566.585,-23.33 571.044,-28.726"/>
</g>
<!-- Node7 -->
<g id="node7" class="node"><title>Node7</title>
<polygon fill="white" stroke="#bfbfbf" points="1223,-62 1223,-81 1309,-81 1309,-62 1223,-62"/>
<text text-anchor="middle" x="1266" y="-69" font-family="Helvetica,sans-Serif" font-size="10.00">dmlc/logging.h</text>
</g>
<!-- Node6&#45;&gt;Node7 -->
<g id="edge6" class="edge"><title>Node6&#45;&gt;Node7</title>
<path fill="none" stroke="midnightblue" d="M1532.58,-358.473C1534.92,-344.317 1538.57,-315.132 1534,-291 1523.49,-235.516 1516.38,-216.318 1474,-179 1447.45,-155.62 1434.51,-159.094 1403,-143 1364.22,-123.189 1319.35,-100.063 1291.83,-85.8507"/>
<polygon fill="midnightblue" stroke="midnightblue" points="1293.35,-82.6948 1282.86,-81.2153 1290.13,-88.9142 1293.35,-82.6948"/>
</g>
<!-- Node6&#45;&gt;Node8 -->
<g id="edge7" class="edge"><title>Node6&#45;&gt;Node8</title>
<path fill="none" stroke="midnightblue" d="M1559.89,-358.366C1582,-350.905 1612.58,-338.684 1636,-322 1682.71,-288.728 1724.63,-234.528 1744.25,-207.083"/>
<polygon fill="midnightblue" stroke="midnightblue" points="1747.35,-208.763 1750.23,-198.569 1741.62,-204.739 1747.35,-208.763"/>
</g>
<!-- Node6&#45;&gt;Node9 -->
<g id="edge18" class="edge"><title>Node6&#45;&gt;Node9</title>
<path fill="none" stroke="midnightblue" d="M1529.98,-358.295C1525.98,-328.329 1508.62,-228.566 1450,-179 1432.49,-164.194 1379.46,-152.166 1334.8,-144.282"/>
<polygon fill="midnightblue" stroke="midnightblue" points="1335.28,-140.813 1324.83,-142.565 1334.09,-147.712 1335.28,-140.813"/>
</g>
<!-- Node6&#45;&gt;Node10 -->
<g id="edge60" class="edge"><title>Node6&#45;&gt;Node10</title>
<path fill="none" stroke="midnightblue" d="M1573.99,-358.491C1643.86,-341.978 1779.18,-298.111 1828,-199 1856.61,-140.911 1763.82,-101.95 1706.26,-83.9508"/>
<polygon fill="midnightblue" stroke="midnightblue" points="1707.24,-80.5909 1696.66,-81.0377 1705.21,-87.2896 1707.24,-80.5909"/>
</g>
<!-- Node6&#45;&gt;Node11 -->
<g id="edge59" class="edge"><title>Node6&#45;&gt;Node11</title>
<path fill="none" stroke="midnightblue" d="M1464.9,-364.838C1255.3,-357.29 607.848,-328.46 413,-255 327.293,-222.688 310.913,-200.975 240,-143 219.606,-126.327 198.81,-104.239 185.457,-89.2618"/>
<polygon fill="midnightblue" stroke="midnightblue" points="187.744,-86.5623 178.514,-81.36 182.485,-91.1825 187.744,-86.5623"/>
</g>
<!-- Node6&#45;&gt;Node12 -->
<g id="edge61" class="edge"><title>Node6&#45;&gt;Node12</title>
<path fill="none" stroke="midnightblue" d="M1597.45,-359.296C1636.61,-352.943 1686.28,-341.658 1727,-322 1832.65,-270.991 1885.2,-254.721 1921,-143 1926.42,-126.076 1925.37,-105.672 1923.45,-91.1795"/>
<polygon fill="midnightblue" stroke="midnightblue" points="1926.86,-90.3264 1921.82,-81.0032 1919.94,-91.43 1926.86,-90.3264"/>
</g>
<!-- Node15 -->
<g id="node15" class="node"><title>Node15</title>
<g id="a_node15"><a xlink:href="packed__func_8h.html" target="_top" xlink:title="Type&#45;erased function used across TVM API. ">
<polygon fill="white" stroke="black" points="876.5,-291.5 876.5,-321.5 989.5,-321.5 989.5,-291.5 876.5,-291.5"/>
<text text-anchor="start" x="884.5" y="-309.5" font-family="Helvetica,sans-Serif" font-size="10.00">tvm/runtime/packed</text>
<text text-anchor="middle" x="933" y="-298.5" font-family="Helvetica,sans-Serif" font-size="10.00">_func.h</text>
</a>
</g>
</g>
<!-- Node6&#45;&gt;Node15 -->
<g id="edge19" class="edge"><title>Node6&#45;&gt;Node15</title>
<path fill="none" stroke="midnightblue" d="M1464.72,-360.405C1349.89,-348.98 1115.23,-325.631 999.941,-314.161"/>
<polygon fill="midnightblue" stroke="midnightblue" points="1000.13,-310.662 989.835,-313.155 999.44,-317.628 1000.13,-310.662"/>
</g>
<!-- Node6&#45;&gt;Node19 -->
<g id="edge62" class="edge"><title>Node6&#45;&gt;Node19</title>
<path fill="none" stroke="midnightblue" d="M1522.9,-358.077C1509.32,-343.352 1480.84,-313.367 1454,-291 1420.66,-263.213 1409.71,-259.67 1374,-235 1358.98,-224.624 1341.96,-213.022 1328.96,-204.197"/>
<polygon fill="midnightblue" stroke="midnightblue" points="1330.92,-201.298 1320.68,-198.581 1326.99,-207.091 1330.92,-201.298"/>
</g>
<!-- Node28 -->
<g id="node28" class="node"><title>Node28</title>
<polygon fill="white" stroke="#bfbfbf" points="1578.5,-297 1578.5,-316 1627.5,-316 1627.5,-297 1578.5,-297"/>
<text text-anchor="middle" x="1603" y="-304" font-family="Helvetica,sans-Serif" font-size="10.00">cstring</text>
</g>
<!-- Node6&#45;&gt;Node28 -->
<g id="edge57" class="edge"><title>Node6&#45;&gt;Node28</title>
<path fill="none" stroke="midnightblue" d="M1541.32,-358.475C1552.65,-349.108 1571.07,-333.884 1584.84,-322.508"/>
<polygon fill="midnightblue" stroke="midnightblue" points="1587.22,-325.077 1592.7,-316.009 1582.77,-319.681 1587.22,-325.077"/>
</g>
<!-- Node29 -->
<g id="node29" class="node"><title>Node29</title>
<polygon fill="white" stroke="#bfbfbf" points="1368.5,-297 1368.5,-316 1445.5,-316 1445.5,-297 1368.5,-297"/>
<text text-anchor="middle" x="1407" y="-304" font-family="Helvetica,sans-Serif" font-size="10.00">initializer_list</text>
</g>
<!-- Node6&#45;&gt;Node29 -->
<g id="edge58" class="edge"><title>Node6&#45;&gt;Node29</title>
<path fill="none" stroke="midnightblue" d="M1513.23,-358.475C1492.52,-348.534 1458.05,-331.995 1434.01,-320.461"/>
<polygon fill="midnightblue" stroke="midnightblue" points="1435.26,-317.18 1424.73,-316.009 1432.23,-323.491 1435.26,-317.18"/>
</g>
<!-- Node8&#45;&gt;Node9 -->
<g id="edge8" class="edge"><title>Node8&#45;&gt;Node9</title>
<path fill="none" stroke="midnightblue" d="M1692.44,-180.996C1600.25,-170.836 1430.07,-152.082 1334.95,-141.598"/>
<polygon fill="midnightblue" stroke="midnightblue" points="1335.18,-138.102 1324.85,-140.486 1334.41,-145.06 1335.18,-138.102"/>
</g>
<!-- Node8&#45;&gt;Node10 -->
<g id="edge17" class="edge"><title>Node8&#45;&gt;Node10</title>
<path fill="none" stroke="midnightblue" d="M1757.21,-179.197C1758.56,-165.886 1759.27,-140.354 1748,-123 1736.66,-105.541 1716.98,-93.2355 1699.51,-85.1455"/>
<polygon fill="midnightblue" stroke="midnightblue" points="1700.67,-81.8341 1690.1,-81.0787 1697.89,-88.2595 1700.67,-81.8341"/>
</g>
<!-- Node8&#45;&gt;Node12 -->
<g id="edge16" class="edge"><title>Node8&#45;&gt;Node12</title>
<path fill="none" stroke="midnightblue" d="M1768.33,-179.319C1796.23,-159.67 1864.47,-111.609 1899.1,-87.2169"/>
<polygon fill="midnightblue" stroke="midnightblue" points="1901.37,-89.9016 1907.53,-81.282 1897.34,-84.1785 1901.37,-89.9016"/>
</g>
<!-- Node14 -->
<g id="node14" class="node"><title>Node14</title>
<polygon fill="white" stroke="#bfbfbf" points="1692.5,-123.5 1692.5,-142.5 1739.5,-142.5 1739.5,-123.5 1692.5,-123.5"/>
<text text-anchor="middle" x="1716" y="-130.5" font-family="Helvetica,sans-Serif" font-size="10.00">cstdlib</text>
</g>
<!-- Node8&#45;&gt;Node14 -->
<g id="edge15" class="edge"><title>Node8&#45;&gt;Node14</title>
<path fill="none" stroke="midnightblue" d="M1749.39,-179.083C1743.74,-171.455 1735.46,-160.264 1728.55,-150.941"/>
<polygon fill="midnightblue" stroke="midnightblue" points="1731.25,-148.703 1722.48,-142.751 1725.62,-152.87 1731.25,-148.703"/>
</g>
<!-- Node9&#45;&gt;Node2 -->
<g id="edge10" class="edge"><title>Node9&#45;&gt;Node2</title>
<path fill="none" stroke="midnightblue" d="M1207.38,-127.356C1071.98,-116.628 737.684,-90.1427 588.702,-78.3392"/>
<polygon fill="midnightblue" stroke="midnightblue" points="588.976,-74.85 578.73,-77.5492 588.423,-81.8282 588.976,-74.85"/>
</g>
<!-- Node9&#45;&gt;Node7 -->
<g id="edge9" class="edge"><title>Node9&#45;&gt;Node7</title>
<path fill="none" stroke="midnightblue" d="M1266,-123.475C1266,-115.08 1266,-101.981 1266,-91.1631"/>
<polygon fill="midnightblue" stroke="midnightblue" points="1269.5,-91.0091 1266,-81.0091 1262.5,-91.0091 1269.5,-91.0091"/>
</g>
<!-- Node9&#45;&gt;Node10 -->
<g id="edge11" class="edge"><title>Node9&#45;&gt;Node10</title>
<path fill="none" stroke="midnightblue" d="M1323.02,-123.475C1403.13,-111.5 1547.27,-89.9509 1619.79,-79.1096"/>
<polygon fill="midnightblue" stroke="midnightblue" points="1620.58,-82.5304 1629.95,-77.5902 1619.54,-75.6073 1620.58,-82.5304"/>
</g>
<!-- Node9&#45;&gt;Node11 -->
<g id="edge12" class="edge"><title>Node9&#45;&gt;Node11</title>
<path fill="none" stroke="midnightblue" d="M1207.13,-128.801C1006.92,-117.922 356.358,-82.572 203.407,-74.261"/>
<polygon fill="midnightblue" stroke="midnightblue" points="203.443,-70.7578 193.268,-73.71 203.063,-77.7475 203.443,-70.7578"/>
</g>
<!-- Node9&#45;&gt;Node12 -->
<g id="edge13" class="edge"><title>Node9&#45;&gt;Node12</title>
<path fill="none" stroke="midnightblue" d="M1324.61,-126.667C1459.21,-114.422 1786.69,-84.6286 1888.96,-75.3242"/>
<polygon fill="midnightblue" stroke="midnightblue" points="1889.31,-78.8068 1898.95,-74.4151 1888.67,-71.8356 1889.31,-78.8068"/>
</g>
<!-- Node13 -->
<g id="node13" class="node"><title>Node13</title>
<polygon fill="white" stroke="#bfbfbf" points="945,-62 945,-81 995,-81 995,-62 945,-62"/>
<text text-anchor="middle" x="970" y="-69" font-family="Helvetica,sans-Serif" font-size="10.00">atomic</text>
</g>
<!-- Node9&#45;&gt;Node13 -->
<g id="edge14" class="edge"><title>Node9&#45;&gt;Node13</title>
<path fill="none" stroke="midnightblue" d="M1223.59,-123.475C1164.87,-111.672 1059.88,-90.5671 1005.24,-79.5827"/>
<polygon fill="midnightblue" stroke="midnightblue" points="1005.82,-76.1296 995.323,-77.5902 1004.44,-82.9924 1005.82,-76.1296"/>
</g>
<!-- Node15&#45;&gt;Node2 -->
<g id="edge21" class="edge"><title>Node15&#45;&gt;Node2</title>
<path fill="none" stroke="midnightblue" d="M876.452,-302.805C767.42,-297.026 536.727,-281.751 513,-255 473.986,-211.014 492.579,-134.913 505.766,-96.3604"/>
<polygon fill="midnightblue" stroke="midnightblue" points="509.207,-97.1348 509.29,-86.5403 502.618,-94.7706 509.207,-97.1348"/>
</g>
<!-- Node15&#45;&gt;Node7 -->
<g id="edge20" class="edge"><title>Node15&#45;&gt;Node7</title>
<path fill="none" stroke="midnightblue" d="M948.892,-291.388C966.723,-276.065 996.963,-251.567 1026,-235 1062.7,-214.059 1078.24,-221.514 1114,-199 1156.61,-172.177 1159.08,-154.935 1198,-123 1213.48,-110.299 1231.73,-96.821 1245.43,-86.9867"/>
<polygon fill="midnightblue" stroke="midnightblue" points="1247.58,-89.7492 1253.69,-81.0951 1243.52,-84.0489 1247.58,-89.7492"/>
</g>
<!-- Node15&#45;&gt;Node9 -->
<g id="edge48" class="edge"><title>Node15&#45;&gt;Node9</title>
<path fill="none" stroke="midnightblue" d="M958.894,-291.405C994.025,-272.307 1053.62,-240.006 1064,-235 1100.59,-217.358 1111.5,-216.82 1148,-199 1181.43,-182.676 1218.88,-161.54 1242.44,-147.876"/>
<polygon fill="midnightblue" stroke="midnightblue" points="1244.47,-150.746 1251.35,-142.686 1240.94,-144.699 1244.47,-150.746"/>
</g>
<!-- Node15&#45;&gt;Node10 -->
<g id="edge56" class="edge"><title>Node15&#45;&gt;Node10</title>
<path fill="none" stroke="midnightblue" d="M989.564,-296.926C1041.64,-288.415 1120.77,-273.914 1188,-255 1362.95,-205.781 1563.49,-118.102 1636.01,-85.3288"/>
<polygon fill="midnightblue" stroke="midnightblue" points="1637.72,-88.3978 1645.38,-81.0784 1634.83,-82.0233 1637.72,-88.3978"/>
</g>
<!-- Node15&#45;&gt;Node11 -->
<g id="edge52" class="edge"><title>Node15&#45;&gt;Node11</title>
<path fill="none" stroke="midnightblue" d="M876.328,-302.797C767.098,-297.049 531.457,-281.892 455,-255 397.39,-234.737 245.372,-126.524 190.831,-86.9815"/>
<polygon fill="midnightblue" stroke="midnightblue" points="192.808,-84.0917 182.661,-81.043 188.692,-89.7538 192.808,-84.0917"/>
</g>
<!-- Node15&#45;&gt;Node12 -->
<g id="edge55" class="edge"><title>Node15&#45;&gt;Node12</title>
<path fill="none" stroke="midnightblue" d="M989.549,-303.728C1142.03,-298.633 1559.24,-282.523 1694,-255 1767.82,-239.924 1791.58,-241.187 1854,-199 1881.4,-180.482 1887.8,-172.369 1903,-143 1911.49,-126.606 1915.83,-105.864 1917.99,-91.133"/>
<polygon fill="midnightblue" stroke="midnightblue" points="1921.46,-91.5723 1919.25,-81.2111 1914.52,-90.6906 1921.46,-91.5723"/>
</g>
<!-- Node16 -->
<g id="node16" class="node"><title>Node16</title>
<g id="a_node16"><a xlink:href="runtime_2module_8h.html" target="_top" xlink:title="Runtime container of the functions generated by TVM, This is used to support dynamically link...">
<polygon fill="white" stroke="black" points="702,-235.5 702,-254.5 826,-254.5 826,-235.5 702,-235.5"/>
<text text-anchor="middle" x="764" y="-242.5" font-family="Helvetica,sans-Serif" font-size="10.00">tvm/runtime/module.h</text>
</a>
</g>
</g>
<!-- Node15&#45;&gt;Node16 -->
<g id="edge22" class="edge"><title>Node15&#45;&gt;Node16</title>
<path fill="none" stroke="midnightblue" d="M887.109,-291.399C857.208,-281.327 819.182,-267.909 793.286,-258.277"/>
<polygon fill="midnightblue" stroke="midnightblue" points="794.254,-254.902 783.662,-254.658 791.79,-261.454 794.254,-254.902"/>
</g>
<!-- Node18 -->
<g id="node18" class="node"><title>Node18</title>
<polygon fill="white" stroke="#bfbfbf" points="1048.5,-179.5 1048.5,-198.5 1105.5,-198.5 1105.5,-179.5 1048.5,-179.5"/>
<text text-anchor="middle" x="1077" y="-186.5" font-family="Helvetica,sans-Serif" font-size="10.00">memory</text>
</g>
<!-- Node15&#45;&gt;Node18 -->
<g id="edge54" class="edge"><title>Node15&#45;&gt;Node18</title>
<path fill="none" stroke="midnightblue" d="M906.791,-291.386C884.016,-277.293 856.994,-254.921 873,-235 874.309,-233.371 979.608,-210.734 1038.39,-198.204"/>
<polygon fill="midnightblue" stroke="midnightblue" points="1039.39,-201.569 1048.44,-196.063 1037.93,-194.723 1039.39,-201.569"/>
</g>
<!-- Node15&#45;&gt;Node19 -->
<g id="edge51" class="edge"><title>Node15&#45;&gt;Node19</title>
<path fill="none" stroke="midnightblue" d="M971.392,-291.478C997.65,-281.698 1033.15,-268.102 1064,-255 1083.4,-246.76 1087.04,-241.757 1107,-235 1177.27,-211.215 1197.68,-215.55 1270,-199 1271.45,-198.669 1272.92,-198.329 1274.41,-197.984"/>
<polygon fill="midnightblue" stroke="midnightblue" points="1275.36,-201.358 1284.3,-195.673 1273.76,-194.542 1275.36,-201.358"/>
</g>
<!-- Node21 -->
<g id="node21" class="node"><title>Node21</title>
<g id="a_node21"><a xlink:href="ndarray_8h.html" target="_top" xlink:title="A device&#45;independent managed NDArray abstraction. ">
<polygon fill="white" stroke="black" points="522.5,-235.5 522.5,-254.5 645.5,-254.5 645.5,-235.5 522.5,-235.5"/>
<text text-anchor="middle" x="584" y="-242.5" font-family="Helvetica,sans-Serif" font-size="10.00">tvm/runtime/ndarray.h</text>
</a>
</g>
</g>
<!-- Node15&#45;&gt;Node21 -->
<g id="edge32" class="edge"><title>Node15&#45;&gt;Node21</title>
<path fill="none" stroke="midnightblue" d="M876.15,-295.808C812.347,-284.93 709.265,-267.356 644.146,-256.254"/>
<polygon fill="midnightblue" stroke="midnightblue" points="644.478,-252.76 634.032,-254.53 643.302,-259.661 644.478,-252.76"/>
</g>
<!-- Node24 -->
<g id="node24" class="node"><title>Node24</title>
<g id="a_node24"><a xlink:href="data__type_8h.html" target="_top" xlink:title="tvm/runtime/data_type.h">
<polygon fill="white" stroke="black" points="332,-123.5 332,-142.5 468,-142.5 468,-123.5 332,-123.5"/>
<text text-anchor="middle" x="400" y="-130.5" font-family="Helvetica,sans-Serif" font-size="10.00">tvm/runtime/data_type.h</text>
</a>
</g>
</g>
<!-- Node15&#45;&gt;Node24 -->
<g id="edge43" class="edge"><title>Node15&#45;&gt;Node24</title>
<path fill="none" stroke="midnightblue" d="M876.373,-305.197C769.915,-303.665 544.813,-295.567 480,-255 446.136,-233.804 454.251,-212.18 432,-179 425.648,-169.528 418.289,-159.141 412.23,-150.735"/>
<polygon fill="midnightblue" stroke="midnightblue" points="414.982,-148.568 406.276,-142.529 409.316,-152.678 414.982,-148.568"/>
</g>
<!-- Node25 -->
<g id="node25" class="node"><title>Node25</title>
<polygon fill="white" stroke="#bfbfbf" points="1116.5,-235.5 1116.5,-254.5 1179.5,-254.5 1179.5,-235.5 1116.5,-235.5"/>
<text text-anchor="middle" x="1148" y="-242.5" font-family="Helvetica,sans-Serif" font-size="10.00">functional</text>
</g>
<!-- Node15&#45;&gt;Node25 -->
<g id="edge49" class="edge"><title>Node15&#45;&gt;Node25</title>
<path fill="none" stroke="midnightblue" d="M983.68,-291.475C1021.42,-281.03 1072.27,-266.958 1107.36,-257.247"/>
<polygon fill="midnightblue" stroke="midnightblue" points="1108.56,-260.547 1117.26,-254.506 1106.69,-253.8 1108.56,-260.547"/>
</g>
<!-- Node26 -->
<g id="node26" class="node"><title>Node26</title>
<polygon fill="white" stroke="#bfbfbf" points="882.5,-235.5 882.5,-254.5 923.5,-254.5 923.5,-235.5 882.5,-235.5"/>
<text text-anchor="middle" x="903" y="-242.5" font-family="Helvetica,sans-Serif" font-size="10.00">tuple</text>
</g>
<!-- Node15&#45;&gt;Node26 -->
<g id="edge50" class="edge"><title>Node15&#45;&gt;Node26</title>
<path fill="none" stroke="midnightblue" d="M925.89,-291.399C921.711,-283.11 916.389,-272.554 911.928,-263.708"/>
<polygon fill="midnightblue" stroke="midnightblue" points="914.993,-262.011 907.365,-254.658 908.742,-265.163 914.993,-262.011"/>
</g>
<!-- Node27 -->
<g id="node27" class="node"><title>Node27</title>
<polygon fill="white" stroke="#bfbfbf" points="942,-235.5 942,-254.5 984,-254.5 984,-235.5 942,-235.5"/>
<text text-anchor="middle" x="963" y="-242.5" font-family="Helvetica,sans-Serif" font-size="10.00">limits</text>
</g>
<!-- Node15&#45;&gt;Node27 -->
<g id="edge53" class="edge"><title>Node15&#45;&gt;Node27</title>
<path fill="none" stroke="midnightblue" d="M940.11,-291.399C944.289,-283.11 949.611,-272.554 954.072,-263.708"/>
<polygon fill="midnightblue" stroke="midnightblue" points="957.258,-265.163 958.635,-254.658 951.007,-262.011 957.258,-265.163"/>
</g>
<!-- Node16&#45;&gt;Node2 -->
<g id="edge24" class="edge"><title>Node16&#45;&gt;Node2</title>
<path fill="none" stroke="midnightblue" d="M826.085,-236.336C871.22,-229.339 926.792,-217.272 941,-199 960.867,-173.45 927.943,-135.176 910,-123 859.116,-88.4728 688.217,-77.5458 588.667,-74.0921"/>
<polygon fill="midnightblue" stroke="midnightblue" points="588.78,-70.594 578.67,-73.7621 588.549,-77.5902 588.78,-70.594"/>
</g>
<!-- Node16&#45;&gt;Node8 -->
<g id="edge26" class="edge"><title>Node16&#45;&gt;Node8</title>
<path fill="none" stroke="midnightblue" d="M826.228,-238.522C841.515,-237.27 857.843,-236.012 873,-235 1172.81,-214.988 1530.41,-199.269 1682.12,-192.979"/>
<polygon fill="midnightblue" stroke="midnightblue" points="1682.4,-196.47 1692.25,-192.56 1682.11,-189.476 1682.4,-196.47"/>
</g>
<!-- Node16&#45;&gt;Node9 -->
<g id="edge25" class="edge"><title>Node16&#45;&gt;Node9</title>
<path fill="none" stroke="midnightblue" d="M826.091,-236.158C873.417,-229.179 939.798,-217.218 996,-199 1016.05,-192.501 1018.96,-185.541 1039,-179 1090.84,-162.077 1151.52,-150.449 1197.1,-143.259"/>
<polygon fill="midnightblue" stroke="midnightblue" points="1197.82,-146.689 1207.17,-141.703 1196.75,-139.771 1197.82,-146.689"/>
</g>
<!-- Node16&#45;&gt;Node11 -->
<g id="edge29" class="edge"><title>Node16&#45;&gt;Node11</title>
<path fill="none" stroke="midnightblue" d="M711.884,-235.482C676.229,-228.493 628.459,-216.808 589,-199 534.169,-174.254 532.868,-145.306 477,-123 382.341,-85.2051 260.356,-75.6924 203.216,-73.301"/>
<polygon fill="midnightblue" stroke="midnightblue" points="203.124,-69.7953 193.001,-72.9218 202.864,-76.7905 203.124,-69.7953"/>
</g>
<!-- Node16&#45;&gt;Node15 -->
<g id="edge31" class="edge"><title>Node16&#45;&gt;Node15</title>
<path fill="none" stroke="midnightblue" d="M793.255,-254.571C819.802,-263.254 859.1,-276.936 889.323,-287.933"/>
<polygon fill="midnightblue" stroke="midnightblue" points="888.196,-291.247 898.789,-291.399 890.603,-284.674 888.196,-291.247"/>
</g>
<!-- Node17 -->
<g id="node17" class="node"><title>Node17</title>
<polygon fill="white" stroke="#bfbfbf" points="841,-123.5 841,-142.5 901,-142.5 901,-123.5 841,-123.5"/>
<text text-anchor="middle" x="871" y="-130.5" font-family="Helvetica,sans-Serif" font-size="10.00">dmlc/io.h</text>
</g>
<!-- Node16&#45;&gt;Node17 -->
<g id="edge23" class="edge"><title>Node16&#45;&gt;Node17</title>
<path fill="none" stroke="midnightblue" d="M820.611,-235.438C861.372,-227.982 911.324,-215.733 924,-199 937.572,-181.085 915.508,-161.142 895.848,-148.13"/>
<polygon fill="midnightblue" stroke="midnightblue" points="897.455,-145.007 887.121,-142.672 893.743,-150.942 897.455,-145.007"/>
</g>
<!-- Node16&#45;&gt;Node18 -->
<g id="edge27" class="edge"><title>Node16&#45;&gt;Node18</title>
<path fill="none" stroke="midnightblue" d="M819.189,-235.483C873.841,-226.889 959.857,-212.932 1034,-199 1035.45,-198.727 1036.93,-198.444 1038.42,-198.154"/>
<polygon fill="midnightblue" stroke="midnightblue" points="1039.23,-201.561 1048.35,-196.168 1037.86,-194.697 1039.23,-201.561"/>
</g>
<!-- Node16&#45;&gt;Node19 -->
<g id="edge28" class="edge"><title>Node16&#45;&gt;Node19</title>
<path fill="none" stroke="midnightblue" d="M826.338,-238.697C956.809,-227.564 1248.43,-202.496 1270,-199 1271.46,-198.763 1272.96,-198.5 1274.46,-198.219"/>
<polygon fill="midnightblue" stroke="midnightblue" points="1275.31,-201.616 1284.39,-196.147 1273.88,-194.763 1275.31,-201.616"/>
</g>
<!-- Node20 -->
<g id="node20" class="node"><title>Node20</title>
<polygon fill="white" stroke="#bfbfbf" points="822.5,-179.5 822.5,-198.5 915.5,-198.5 915.5,-179.5 822.5,-179.5"/>
<text text-anchor="middle" x="869" y="-186.5" font-family="Helvetica,sans-Serif" font-size="10.00">unordered_map</text>
</g>
<!-- Node16&#45;&gt;Node20 -->
<g id="edge30" class="edge"><title>Node16&#45;&gt;Node20</title>
<path fill="none" stroke="midnightblue" d="M780.87,-235.324C797.709,-226.664 823.807,-213.242 843.238,-203.249"/>
<polygon fill="midnightblue" stroke="midnightblue" points="844.88,-206.341 852.172,-198.655 841.678,-200.116 844.88,-206.341"/>
</g>
<!-- Node21&#45;&gt;Node2 -->
<g id="edge33" class="edge"><title>Node21&#45;&gt;Node2</title>
<path fill="none" stroke="midnightblue" d="M580.483,-235.26C570.223,-209.757 540.068,-134.807 524.517,-96.1543"/>
<polygon fill="midnightblue" stroke="midnightblue" points="527.702,-94.6936 520.722,-86.7228 521.208,-97.3065 527.702,-94.6936"/>
</g>
<!-- Node21&#45;&gt;Node9 -->
<g id="edge34" class="edge"><title>Node21&#45;&gt;Node9</title>
<path fill="none" stroke="midnightblue" d="M630.213,-235.473C668.3,-227.818 723.428,-215.284 770,-199 789.896,-192.043 792.671,-184.565 813,-179 945.67,-142.684 1107.32,-134.948 1197.23,-133.717"/>
<polygon fill="midnightblue" stroke="midnightblue" points="1197.34,-137.216 1207.3,-133.602 1197.26,-130.217 1197.34,-137.216"/>
</g>
<!-- Node21&#45;&gt;Node12 -->
<g id="edge42" class="edge"><title>Node21&#45;&gt;Node12</title>
<path fill="none" stroke="midnightblue" d="M645.698,-238.879C780.486,-227.677 1091.08,-201.768 1114,-199 1417.17,-162.385 1781.36,-97.7218 1888.76,-78.2224"/>
<polygon fill="midnightblue" stroke="midnightblue" points="1889.69,-81.6102 1898.91,-76.3762 1888.44,-74.7234 1889.69,-81.6102"/>
</g>
<!-- Node21&#45;&gt;Node13 -->
<g id="edge40" class="edge"><title>Node21&#45;&gt;Node13</title>
<path fill="none" stroke="midnightblue" d="M629.616,-235.462C661,-228.439 702.993,-216.721 737,-199 784.951,-174.012 784.883,-149.527 832,-123 865.111,-104.359 906.405,-90.3146 935.153,-81.8284"/>
<polygon fill="midnightblue" stroke="midnightblue" points="936.124,-85.1912 944.765,-79.0601 934.186,-78.4646 936.124,-85.1912"/>
</g>
<!-- Node21&#45;&gt;Node19 -->
<g id="edge41" class="edge"><title>Node21&#45;&gt;Node19</title>
<path fill="none" stroke="midnightblue" d="M645.663,-238.691C661.115,-237.421 677.66,-236.112 693,-235 949.271,-216.427 1015.84,-236.745 1270,-199 1271.47,-198.782 1272.96,-198.536 1274.47,-198.267"/>
<polygon fill="midnightblue" stroke="midnightblue" points="1275.3,-201.669 1284.4,-196.245 1273.91,-194.81 1275.3,-201.669"/>
</g>
<!-- Node22 -->
<g id="node22" class="node"><title>Node22</title>
<g id="a_node22"><a xlink:href="serializer_8h.html" target="_top" xlink:title="Serializer extension to support TVM data types Include this file to enable serialization of DLDataTyp...">
<polygon fill="white" stroke="black" points="598,-179.5 598,-198.5 728,-198.5 728,-179.5 598,-179.5"/>
<text text-anchor="middle" x="663" y="-186.5" font-family="Helvetica,sans-Serif" font-size="10.00">tvm/runtime/serializer.h</text>
</a>
</g>
</g>
<!-- Node21&#45;&gt;Node22 -->
<g id="edge35" class="edge"><title>Node21&#45;&gt;Node22</title>
<path fill="none" stroke="midnightblue" d="M591.578,-235.324C602.078,-226.9 620.695,-213.971 636.401,-204.074"/>
<polygon fill="midnightblue" stroke="midnightblue" points="638.538,-206.869 645.229,-198.655 634.875,-200.904 638.538,-206.869"/>
</g>
<!-- Node22&#45;&gt;Node2 -->
<g id="edge38" class="edge"><title>Node22&#45;&gt;Node2</title>
<path fill="none" stroke="midnightblue" d="M675.046,-179.432C691.555,-166.644 717.594,-142.032 703,-123 688.774,-104.448 635.017,-91.1994 588.611,-82.9397"/>
<polygon fill="midnightblue" stroke="midnightblue" points="588.983,-79.4522 578.533,-81.202 587.793,-86.3504 588.983,-79.4522"/>
</g>
<!-- Node22&#45;&gt;Node17 -->
<g id="edge36" class="edge"><title>Node22&#45;&gt;Node17</title>
<path fill="none" stroke="midnightblue" d="M695.958,-179.444C732.63,-169.923 791.875,-154.542 831.129,-144.351"/>
<polygon fill="midnightblue" stroke="midnightblue" points="832.098,-147.716 840.897,-141.815 830.339,-140.94 832.098,-147.716"/>
</g>
<!-- Node22&#45;&gt;Node21 -->
<g id="edge39" class="edge"><title>Node22&#45;&gt;Node21</title>
<path fill="none" stroke="midnightblue" d="M655.225,-198.834C644.687,-207.263 626.196,-220.099 610.585,-229.935"/>
<polygon fill="midnightblue" stroke="midnightblue" points="608.498,-227.109 601.808,-235.324 612.161,-233.074 608.498,-227.109"/>
</g>
<!-- Node23 -->
<g id="node23" class="node"><title>Node23</title>
<polygon fill="white" stroke="#bfbfbf" points="600,-123.5 600,-142.5 694,-142.5 694,-123.5 600,-123.5"/>
<text text-anchor="middle" x="647" y="-130.5" font-family="Helvetica,sans-Serif" font-size="10.00">dmlc/serializer.h</text>
</g>
<!-- Node22&#45;&gt;Node23 -->
<g id="edge37" class="edge"><title>Node22&#45;&gt;Node23</title>
<path fill="none" stroke="midnightblue" d="M660.358,-179.083C658.214,-171.849 655.121,-161.409 652.451,-152.397"/>
<polygon fill="midnightblue" stroke="midnightblue" points="655.79,-151.345 649.593,-142.751 649.078,-153.333 655.79,-151.345"/>
</g>
<!-- Node24&#45;&gt;Node2 -->
<g id="edge44" class="edge"><title>Node24&#45;&gt;Node2</title>
<path fill="none" stroke="midnightblue" d="M416.477,-123.475C432.707,-115.078 458.036,-101.973 478.947,-91.1534"/>
<polygon fill="midnightblue" stroke="midnightblue" points="480.623,-94.2269 487.897,-86.523 477.407,-88.0097 480.623,-94.2269"/>
</g>
<!-- Node24&#45;&gt;Node7 -->
<g id="edge45" class="edge"><title>Node24&#45;&gt;Node7</title>
<path fill="none" stroke="midnightblue" d="M468.315,-127.306C635.445,-115.823 1062.22,-86.501 1212.59,-76.1699"/>
<polygon fill="midnightblue" stroke="midnightblue" points="1213.19,-79.6367 1222.93,-75.4594 1212.71,-72.6531 1213.19,-79.6367"/>
</g>
<!-- Node24&#45;&gt;Node10 -->
<g id="edge46" class="edge"><title>Node24&#45;&gt;Node10</title>
<path fill="none" stroke="midnightblue" d="M468.066,-128.792C504.528,-127.073 550.213,-124.921 591,-123 989.912,-104.214 1472.25,-81.5211 1619.31,-74.6022"/>
<polygon fill="midnightblue" stroke="midnightblue" points="1619.89,-78.0789 1629.72,-74.1127 1619.57,-71.0866 1619.89,-78.0789"/>
</g>
<!-- Node24&#45;&gt;Node11 -->
<g id="edge47" class="edge"><title>Node24&#45;&gt;Node11</title>
<path fill="none" stroke="midnightblue" d="M367.19,-123.475C323.339,-112.081 246.132,-92.0212 202.8,-80.7625"/>
<polygon fill="midnightblue" stroke="midnightblue" points="203.625,-77.3607 193.066,-78.2334 201.865,-84.1357 203.625,-77.3607"/>
</g>
<!-- Node30&#45;&gt;Node2 -->
<g id="edge66" class="edge"><title>Node30&#45;&gt;Node2</title>
<path fill="none" stroke="midnightblue" d="M919.345,-543.954C784.227,-538.958 458.25,-524.778 351,-501 258.569,-480.508 152,-519.675 152,-425 152,-425 152,-425 152,-244 152,-220.724 301.907,-132.84 323,-123 360.259,-105.618 404.482,-93.4703 441.09,-85.4527"/>
<polygon fill="midnightblue" stroke="midnightblue" points="442.149,-88.8057 451.201,-83.2999 440.691,-81.9592 442.149,-88.8057"/>
</g>
<!-- Node30&#45;&gt;Node8 -->
<g id="edge68" class="edge"><title>Node30&#45;&gt;Node8</title>
<path fill="none" stroke="midnightblue" d="M1038.74,-544.781C1183.72,-541.394 1551.04,-530.124 1670,-501 1741.71,-483.444 1772.14,-488.451 1822,-434 1884.21,-366.054 1932.88,-310.439 1880,-235 1868.08,-217.997 1849.05,-207.393 1829.44,-200.789"/>
<polygon fill="midnightblue" stroke="midnightblue" points="1830.39,-197.417 1819.8,-197.857 1828.35,-204.115 1830.39,-197.417"/>
</g>
<!-- Node30&#45;&gt;Node9 -->
<g id="edge67" class="edge"><title>Node30&#45;&gt;Node9</title>
<path fill="none" stroke="midnightblue" d="M978.925,-537.419C978.992,-523.184 979.942,-493.889 986,-470 992.656,-443.753 998.094,-438.321 1010,-414 1022.51,-388.449 1022.58,-379.677 1041,-358 1072.15,-321.346 1086.21,-318.034 1126,-291 1152.36,-273.093 1164.95,-277.001 1188,-255 1220.42,-224.058 1245.69,-177.104 1257.92,-151.745"/>
<polygon fill="midnightblue" stroke="midnightblue" points="1261.14,-153.131 1262.22,-142.592 1254.8,-150.155 1261.14,-153.131"/>
</g>
<!-- Node30&#45;&gt;Node10 -->
<g id="edge100" class="edge"><title>Node30&#45;&gt;Node10</title>
<path fill="none" stroke="midnightblue" d="M1038.63,-544.838C1119.63,-542.057 1268.38,-532.659 1391,-501 1465.65,-481.727 1483.59,-471.407 1551,-434 1640.04,-384.593 1669.81,-353.91 1694,-255 1696.11,-246.366 1695.31,-243.791 1694,-235 1691.53,-218.453 1686.7,-215.317 1683,-199 1674.44,-161.23 1668.73,-116.219 1665.95,-91.3581"/>
<polygon fill="midnightblue" stroke="midnightblue" points="1669.41,-90.739 1664.86,-81.171 1662.45,-91.4882 1669.41,-90.739"/>
</g>
<!-- Node30&#45;&gt;Node11 -->
<g id="edge99" class="edge"><title>Node30&#45;&gt;Node11</title>
<path fill="none" stroke="midnightblue" d="M919.272,-546.149C741.712,-546.118 225.543,-542.43 163,-501 57.7749,-431.297 38,-372.218 38,-246 38,-246 38,-246 38,-188 38,-134.575 99.9347,-100.279 139.275,-83.8839"/>
<polygon fill="midnightblue" stroke="midnightblue" points="140.753,-87.0627 148.739,-80.1005 138.154,-80.5629 140.753,-87.0627"/>
</g>
<!-- Node30&#45;&gt;Node15 -->
<g id="edge69" class="edge"><title>Node30&#45;&gt;Node15</title>
<path fill="none" stroke="midnightblue" d="M970.199,-537.264C962.302,-528.802 951.181,-515.198 946,-501 924.884,-443.137 927.309,-369.158 930.413,-331.646"/>
<polygon fill="midnightblue" stroke="midnightblue" points="933.901,-331.931 931.33,-321.653 926.93,-331.292 933.901,-331.931"/>
</g>
<!-- Node30&#45;&gt;Node19 -->
<g id="edge98" class="edge"><title>Node30&#45;&gt;Node19</title>
<path fill="none" stroke="midnightblue" d="M980.607,-537.423C986.38,-508.692 1008.53,-414.471 1060,-358 1082.51,-333.306 1097.59,-339.588 1126,-322 1170.24,-294.612 1179.91,-285.581 1222,-255 1245.21,-238.139 1271.46,-218.166 1288.78,-204.853"/>
<polygon fill="midnightblue" stroke="midnightblue" points="1291.18,-207.424 1296.97,-198.55 1286.91,-201.879 1291.18,-207.424"/>
</g>
<!-- Node30&#45;&gt;Node21 -->
<g id="edge70" class="edge"><title>Node30&#45;&gt;Node21</title>
<path fill="none" stroke="midnightblue" d="M967.604,-537.345C912.532,-495.518 673.739,-314.156 603.501,-260.811"/>
<polygon fill="midnightblue" stroke="midnightblue" points="605.522,-257.951 595.442,-254.69 601.289,-263.526 605.522,-257.951"/>
</g>
<!-- Node30&#45;&gt;Node24 -->
<g id="edge71" class="edge"><title>Node30&#45;&gt;Node24</title>
<path fill="none" stroke="midnightblue" d="M919.436,-542.153C748.074,-530.298 266,-491.073 266,-425 266,-425 266,-425 266,-244 266,-193.394 323.803,-161.812 363.481,-146.095"/>
<polygon fill="midnightblue" stroke="midnightblue" points="364.774,-149.347 372.883,-142.529 362.292,-142.802 364.774,-149.347"/>
</g>
<!-- Node30&#45;&gt;Node31 -->
<g id="edge72" class="edge"><title>Node30&#45;&gt;Node31</title>
<path fill="none" stroke="midnightblue" d="M997.483,-537.475C1015.93,-528.965 1044.87,-515.619 1068.5,-504.718"/>
<polygon fill="midnightblue" stroke="midnightblue" points="1069.98,-507.89 1077.6,-500.523 1067.05,-501.533 1069.98,-507.89"/>
</g>
<!-- Node30&#45;&gt;Node34 -->
<g id="edge92" class="edge"><title>Node30&#45;&gt;Node34</title>
<path fill="none" stroke="midnightblue" d="M1028.86,-537.475C1090,-527.022 1193.8,-509.274 1261.37,-497.721"/>
<polygon fill="midnightblue" stroke="midnightblue" points="1262.21,-501.128 1271.48,-495.993 1261.03,-494.228 1262.21,-501.128"/>
</g>
<!-- Node31&#45;&gt;Node11 -->
<g id="edge91" class="edge"><title>Node31&#45;&gt;Node11</title>
<path fill="none" stroke="midnightblue" d="M1052.42,-482.934C880.743,-477.319 361.626,-454.288 214,-378 138.599,-339.036 76,-330.874 76,-246 76,-246 76,-246 76,-188 76,-157.205 81.2866,-147.457 100,-123 111.875,-107.48 129.845,-94.7641 144.736,-85.974"/>
<polygon fill="midnightblue" stroke="midnightblue" points="146.534,-88.9779 153.527,-81.0183 143.097,-82.8801 146.534,-88.9779"/>
</g>
<!-- Node31&#45;&gt;Node24 -->
<g id="edge73" class="edge"><title>Node31&#45;&gt;Node24</title>
<path fill="none" stroke="midnightblue" d="M1052.47,-482.491C907.56,-476.236 522.319,-452.806 423,-378 349.512,-322.649 336.752,-266.228 366,-179 369.604,-168.251 376.903,-158.02 383.817,-150.038"/>
<polygon fill="midnightblue" stroke="midnightblue" points="386.477,-152.317 390.712,-142.605 381.345,-147.556 386.477,-152.317"/>
</g>
<!-- Node32 -->
<g id="node32" class="node"><title>Node32</title>
<g id="a_node32"><a xlink:href="functor_8h.html" target="_top" xlink:title="Defines the Functor data structures. ">
<polygon fill="white" stroke="black" points="1578.5,-235.5 1578.5,-254.5 1685.5,-254.5 1685.5,-235.5 1578.5,-235.5"/>
<text text-anchor="middle" x="1632" y="-242.5" font-family="Helvetica,sans-Serif" font-size="10.00">tvm/node/functor.h</text>
</a>
</g>
</g>
<!-- Node31&#45;&gt;Node32 -->
<g id="edge74" class="edge"><title>Node31&#45;&gt;Node32</title>
<path fill="none" stroke="midnightblue" d="M1121.09,-470.41C1155.87,-433.947 1255.05,-336.187 1359,-291 1426.5,-261.66 1510.99,-251.32 1567.95,-247.748"/>
<polygon fill="midnightblue" stroke="midnightblue" points="1568.48,-251.224 1578.26,-247.157 1568.08,-244.235 1568.48,-251.224"/>
</g>
<!-- Node31&#45;&gt;Node33 -->
<g id="edge80" class="edge"><title>Node31&#45;&gt;Node33</title>
<path fill="none" stroke="midnightblue" d="M1162.69,-470.475C1203.76,-459.941 1259.23,-445.716 1297.12,-435.998"/>
<polygon fill="midnightblue" stroke="midnightblue" points="1298.02,-439.381 1306.83,-433.506 1296.28,-432.6 1298.02,-439.381"/>
</g>
<!-- Node32&#45;&gt;Node7 -->
<g id="edge75" class="edge"><title>Node32&#45;&gt;Node7</title>
<path fill="none" stroke="midnightblue" d="M1619.78,-235.5C1600.6,-222.366 1561.96,-196.799 1527,-179 1448.29,-138.933 1350.85,-102.43 1300.2,-84.3784"/>
<polygon fill="midnightblue" stroke="midnightblue" points="1301.31,-81.058 1290.71,-81.0185 1298.97,-87.6563 1301.31,-81.058"/>
</g>
<!-- Node32&#45;&gt;Node9 -->
<g id="edge76" class="edge"><title>Node32&#45;&gt;Node9</title>
<path fill="none" stroke="midnightblue" d="M1616.06,-235.368C1589.99,-221.585 1536.29,-194.576 1488,-179 1437.83,-162.817 1379.32,-151.243 1334.97,-143.889"/>
<polygon fill="midnightblue" stroke="midnightblue" points="1335.31,-140.397 1324.88,-142.246 1334.19,-147.307 1335.31,-140.397"/>
</g>
<!-- Node32&#45;&gt;Node10 -->
<g id="edge78" class="edge"><title>Node32&#45;&gt;Node10</title>
<path fill="none" stroke="midnightblue" d="M1632.91,-235.427C1635.1,-215.536 1641.14,-164.759 1650,-123 1652.25,-112.381 1655.45,-100.691 1658.22,-91.2349"/>
<polygon fill="midnightblue" stroke="midnightblue" points="1661.66,-91.9426 1661.19,-81.3582 1654.95,-89.9252 1661.66,-91.9426"/>
</g>
<!-- Node32&#45;&gt;Node12 -->
<g id="edge79" class="edge"><title>Node32&#45;&gt;Node12</title>
<path fill="none" stroke="midnightblue" d="M1685.91,-241.778C1727.7,-237.783 1785.47,-227.098 1828,-199 1869.59,-171.524 1898.83,-118.417 1912.06,-90.5584"/>
<polygon fill="midnightblue" stroke="midnightblue" points="1915.35,-91.7729 1916.33,-81.2237 1908.99,-88.8578 1915.35,-91.7729"/>
</g>
<!-- Node32&#45;&gt;Node19 -->
<g id="edge77" class="edge"><title>Node32&#45;&gt;Node19</title>
<path fill="none" stroke="midnightblue" d="M1580.66,-235.444C1513.64,-224.273 1398.2,-205.034 1341.46,-195.577"/>
<polygon fill="midnightblue" stroke="midnightblue" points="1342.02,-192.121 1331.58,-193.93 1340.87,-199.026 1342.02,-192.121"/>
</g>
<!-- Node33&#45;&gt;Node6 -->
<g id="edge84" class="edge"><title>Node33&#45;&gt;Node6</title>
<path fill="none" stroke="midnightblue" d="M1370.26,-414.444C1402.96,-405.201 1455.18,-390.436 1491.18,-380.257"/>
<polygon fill="midnightblue" stroke="midnightblue" points="1492.21,-383.605 1500.88,-377.516 1490.3,-376.869 1492.21,-383.605"/>
</g>
<!-- Node33&#45;&gt;Node8 -->
<g id="edge82" class="edge"><title>Node33&#45;&gt;Node8</title>
<path fill="none" stroke="midnightblue" d="M1399.69,-422.359C1455.58,-419.626 1540.14,-409.904 1606,-378 1675.86,-344.16 1688.53,-320.62 1730,-255 1739.22,-240.407 1746.21,-221.999 1750.61,-208.501"/>
<polygon fill="midnightblue" stroke="midnightblue" points="1753.97,-209.482 1753.58,-198.895 1747.28,-207.418 1753.97,-209.482"/>
</g>
<!-- Node33&#45;&gt;Node9 -->
<g id="edge81" class="edge"><title>Node33&#45;&gt;Node9</title>
<path fill="none" stroke="midnightblue" d="M1339,-414.489C1336.82,-392.272 1333.72,-331.446 1359,-291 1374.09,-266.852 1398.67,-280.164 1412,-255 1427.81,-225.15 1432.06,-206.175 1412,-179 1401.2,-164.371 1360.09,-152.504 1324.23,-144.636"/>
<polygon fill="midnightblue" stroke="midnightblue" points="1324.8,-141.178 1314.29,-142.525 1323.34,-148.026 1324.8,-141.178"/>
</g>
<!-- Node33&#45;&gt;Node10 -->
<g id="edge85" class="edge"><title>Node33&#45;&gt;Node10</title>
<path fill="none" stroke="midnightblue" d="M1399.54,-422.128C1461.29,-419.388 1559.57,-409.811 1638,-378 1725.09,-342.676 1745.64,-323.488 1810,-255 1830.1,-233.611 1836.91,-227.213 1845,-199 1854.8,-164.82 1846.45,-146.766 1820,-123 1789.01,-95.1535 1742.46,-82.6412 1708.28,-77.0314"/>
<polygon fill="midnightblue" stroke="midnightblue" points="1708.51,-73.5264 1698.1,-75.5027 1707.47,-80.4488 1708.51,-73.5264"/>
</g>
<!-- Node33&#45;&gt;Node11 -->
<g id="edge90" class="edge"><title>Node33&#45;&gt;Node11</title>
<path fill="none" stroke="midnightblue" d="M1280.31,-417.385C1199.44,-409.585 1050.59,-394.55 924,-378 671.328,-344.967 592.079,-368.641 364,-255 289.531,-217.896 268.305,-206.034 214,-143 200.011,-126.762 187.696,-105.446 179.871,-90.5212"/>
<polygon fill="midnightblue" stroke="midnightblue" points="182.859,-88.6763 175.205,-81.3505 176.62,-91.8504 182.859,-88.6763"/>
</g>
<!-- Node33&#45;&gt;Node12 -->
<g id="edge89" class="edge"><title>Node33&#45;&gt;Node12</title>
<path fill="none" stroke="midnightblue" d="M1399.66,-421.856C1467.9,-418.994 1582.17,-409.416 1675,-378 1801.72,-335.113 1854.33,-317.196 1917,-199 1933.36,-168.141 1942.65,-157.468 1937,-123 1935.2,-111.989 1931.32,-100.144 1927.72,-90.6953"/>
<polygon fill="midnightblue" stroke="midnightblue" points="1930.89,-89.1861 1923.91,-81.2171 1924.39,-91.8007 1930.89,-89.1861"/>
</g>
<!-- Node33&#45;&gt;Node15 -->
<g id="edge83" class="edge"><title>Node33&#45;&gt;Node15</title>
<path fill="none" stroke="midnightblue" d="M1313.07,-414.453C1272.61,-401.691 1193.63,-377.112 1126,-358 1083.78,-346.069 1036.08,-333.58 998.67,-324.007"/>
<polygon fill="midnightblue" stroke="midnightblue" points="999.453,-320.594 988.898,-321.513 997.721,-327.377 999.453,-320.594"/>
</g>
<!-- Node33&#45;&gt;Node19 -->
<g id="edge86" class="edge"><title>Node33&#45;&gt;Node19</title>
<path fill="none" stroke="midnightblue" d="M1336.4,-414.222C1332.94,-405.285 1327.97,-390.942 1326,-378 1320.19,-339.772 1320.78,-329.312 1326,-291 1329.41,-265.949 1342.95,-259.31 1336,-235 1333.1,-224.844 1327.17,-214.747 1321.51,-206.699"/>
<polygon fill="midnightblue" stroke="midnightblue" points="1324.22,-204.479 1315.41,-198.589 1318.62,-208.685 1324.22,-204.479"/>
</g>
<!-- Node33&#45;&gt;Node20 -->
<g id="edge88" class="edge"><title>Node33&#45;&gt;Node20</title>
<path fill="none" stroke="midnightblue" d="M1280.41,-417.245C1133.35,-401.625 760.201,-352.888 693,-255 687.969,-247.672 687.548,-242.021 693,-235 700.6,-225.212 765.209,-210.48 813.961,-200.565"/>
<polygon fill="midnightblue" stroke="midnightblue" points="814.674,-203.992 823.787,-198.588 813.293,-197.129 814.674,-203.992"/>
</g>
<!-- Node33&#45;&gt;Node29 -->
<g id="edge87" class="edge"><title>Node33&#45;&gt;Node29</title>
<path fill="none" stroke="midnightblue" d="M1345.04,-414.319C1356,-395.422 1382.2,-350.248 1396.78,-325.121"/>
<polygon fill="midnightblue" stroke="midnightblue" points="1399.92,-326.688 1401.91,-316.282 1393.86,-323.176 1399.92,-326.688"/>
</g>
<!-- Node34&#45;&gt;Node11 -->
<g id="edge96" class="edge"><title>Node34&#45;&gt;Node11</title>
<path fill="none" stroke="midnightblue" d="M1271.45,-476.847C1102.21,-453.139 595.12,-379.082 439,-322 313.019,-275.938 263.197,-259.093 196,-143 186.461,-126.52 179.648,-105.791 175.567,-91.086"/>
<polygon fill="midnightblue" stroke="midnightblue" points="178.895,-89.9754 172.98,-81.1856 172.122,-91.7456 178.895,-89.9754"/>
</g>
<!-- Node34&#45;&gt;Node24 -->
<g id="edge93" class="edge"><title>Node34&#45;&gt;Node24</title>
<path fill="none" stroke="midnightblue" d="M1272.37,-470.445C1082.62,-421.589 463.182,-261.745 455,-255 422.907,-228.542 408.741,-179.356 403.167,-152.564"/>
<polygon fill="midnightblue" stroke="midnightblue" points="406.577,-151.758 401.277,-142.584 399.699,-153.061 406.577,-151.758"/>
</g>
<!-- Node34&#45;&gt;Node25 -->
<g id="edge97" class="edge"><title>Node34&#45;&gt;Node25</title>
<path fill="none" stroke="midnightblue" d="M1309,-470.316C1297.44,-460.733 1282.5,-447.424 1271,-434 1221.82,-376.567 1176.59,-298.307 1157.53,-263.7"/>
<polygon fill="midnightblue" stroke="midnightblue" points="1160.53,-261.894 1152.67,-254.79 1154.38,-265.245 1160.53,-261.894"/>
</g>
<!-- Node34&#45;&gt;Node32 -->
<g id="edge94" class="edge"><title>Node34&#45;&gt;Node32</title>
<path fill="none" stroke="midnightblue" d="M1382.53,-475.295C1443.56,-462.681 1541.5,-434.782 1606,-378 1636.7,-350.975 1637.81,-331.861 1636,-291 1635.62,-282.372 1634.82,-272.841 1634.04,-264.78"/>
<polygon fill="midnightblue" stroke="midnightblue" points="1637.5,-264.199 1632.99,-254.612 1630.54,-264.918 1637.5,-264.199"/>
</g>
<!-- Node34&#45;&gt;Node33 -->
<g id="edge95" class="edge"><title>Node34&#45;&gt;Node33</title>
<path fill="none" stroke="midnightblue" d="M1330.08,-470.399C1331.83,-462.377 1334.05,-452.233 1335.94,-443.569"/>
<polygon fill="midnightblue" stroke="midnightblue" points="1339.39,-444.174 1338.11,-433.658 1332.55,-442.68 1339.39,-444.174"/>
</g>
<!-- Node35&#45;&gt;Node32 -->
<g id="edge102" class="edge"><title>Node35&#45;&gt;Node32</title>
<path fill="none" stroke="midnightblue" d="M1874.79,-537.345C1840.29,-495.944 1691.86,-317.836 1645.73,-262.48"/>
<polygon fill="midnightblue" stroke="midnightblue" points="1648.33,-260.132 1639.24,-254.69 1642.95,-264.613 1648.33,-260.132"/>
</g>
<!-- Node36 -->
<g id="node36" class="node"><title>Node36</title>
<polygon fill="white" stroke="#bfbfbf" points="1910.5,-476 1910.5,-495 1969.5,-495 1969.5,-476 1910.5,-476"/>
<text text-anchor="middle" x="1940" y="-483" font-family="Helvetica,sans-Serif" font-size="10.00">iostream</text>
</g>
<!-- Node35&#45;&gt;Node36 -->
<g id="edge103" class="edge"><title>Node35&#45;&gt;Node36</title>
<path fill="none" stroke="midnightblue" d="M1890.31,-537.475C1899.18,-528.373 1913.45,-513.741 1924.42,-502.483"/>
<polygon fill="midnightblue" stroke="midnightblue" points="1927.23,-504.613 1931.71,-495.009 1922.22,-499.727 1927.23,-504.613"/>
</g>
</g>
</svg>
