<?xml version="1.0" encoding="UTF-8" standalone="no"?>
<!DOCTYPE svg PUBLIC "-//W3C//DTD SVG 1.1//EN"
 "http://www.w3.org/Graphics/SVG/1.1/DTD/svg11.dtd">
<!-- Generated by graphviz version 2.38.0 (20140413.2041)
 -->
<!-- Title: include/tvm/arith/pattern.h Pages: 1 -->
<svg width="2690pt" height="1013pt"
 viewBox="0.00 0.00 2690.00 1013.00" xmlns="http://www.w3.org/2000/svg" xmlns:xlink="http://www.w3.org/1999/xlink">
<g id="graph0" class="graph" transform="scale(1 1) rotate(0) translate(4 1009)">
<title>include/tvm/arith/pattern.h</title>
<polygon fill="white" stroke="none" points="-4,4 -4,-1009 2686,-1009 2686,4 -4,4"/>
<!-- Node1 -->
<g id="node1" class="node"><title>Node1</title>
<polygon fill="#bfbfbf" stroke="black" points="990,-985.5 990,-1004.5 1134,-1004.5 1134,-985.5 990,-985.5"/>
<text text-anchor="middle" x="1062" y="-992.5" font-family="Helvetica,sans-Serif" font-size="10.00">include/tvm/arith/pattern.h</text>
</g>
<!-- Node2 -->
<g id="node2" class="node"><title>Node2</title>
<g id="a_node2"><a xlink:href="node_2container_8h.html" target="_top" xlink:title="Array/Map container in the DSL graph. ">
<polygon fill="white" stroke="black" points="961.5,-414.5 961.5,-433.5 1080.5,-433.5 1080.5,-414.5 961.5,-414.5"/>
<text text-anchor="middle" x="1021" y="-421.5" font-family="Helvetica,sans-Serif" font-size="10.00">tvm/node/container.h</text>
</a>
</g>
</g>
<!-- Node1&#45;&gt;Node2 -->
<g id="edge1" class="edge"><title>Node1&#45;&gt;Node2</title>
<path fill="none" stroke="midnightblue" d="M989.897,-993.517C762.596,-991.051 76,-975.988 76,-884 76,-884 76,-884 76,-714 76,-451.447 360.816,-539.513 614,-470 729.377,-438.323 868.96,-428.847 951.054,-426.072"/>
<polygon fill="midnightblue" stroke="midnightblue" points="951.381,-429.564 961.266,-425.752 951.161,-422.567 951.381,-429.564"/>
</g>
<!-- Node31 -->
<g id="node31" class="node"><title>Node31</title>
<g id="a_node31"><a xlink:href="ir_2expr_8h.html" target="_top" xlink:title="Base expr nodes in TVM. ">
<polygon fill="white" stroke="black" points="1059.5,-761.5 1059.5,-780.5 1136.5,-780.5 1136.5,-761.5 1059.5,-761.5"/>
<text text-anchor="middle" x="1098" y="-768.5" font-family="Helvetica,sans-Serif" font-size="10.00">tvm/ir/expr.h</text>
</a>
</g>
</g>
<!-- Node1&#45;&gt;Node31 -->
<g id="edge72" class="edge"><title>Node1&#45;&gt;Node31</title>
<path fill="none" stroke="midnightblue" d="M1076.94,-985.497C1101.53,-970.522 1149.62,-936.834 1168,-893 1175.77,-874.484 1165.19,-828.678 1158,-817 1149.95,-803.924 1136.58,-793.346 1124.5,-785.739"/>
<polygon fill="midnightblue" stroke="midnightblue" points="1126.02,-782.571 1115.63,-780.508 1122.47,-788.601 1126.02,-782.571"/>
</g>
<!-- Node42 -->
<g id="node42" class="node"><title>Node42</title>
<g id="a_node42"><a xlink:href="tir_2expr_8h.html" target="_top" xlink:title="TIR expressions. ">
<polygon fill="white" stroke="black" points="1022,-929.5 1022,-948.5 1102,-948.5 1102,-929.5 1022,-929.5"/>
<text text-anchor="middle" x="1062" y="-936.5" font-family="Helvetica,sans-Serif" font-size="10.00">tvm/tir/expr.h</text>
</a>
</g>
</g>
<!-- Node1&#45;&gt;Node42 -->
<g id="edge131" class="edge"><title>Node1&#45;&gt;Node42</title>
<path fill="none" stroke="midnightblue" d="M1062,-985.083C1062,-978.006 1062,-967.861 1062,-958.986"/>
<polygon fill="midnightblue" stroke="midnightblue" points="1065.5,-958.751 1062,-948.751 1058.5,-958.751 1065.5,-958.751"/>
</g>
<!-- Node3 -->
<g id="node3" class="node"><title>Node3</title>
<g id="a_node3"><a xlink:href="object_8h.html" target="_top" xlink:title="A managed object in the TVM runtime. ">
<polygon fill="white" stroke="black" points="1788.5,-123.5 1788.5,-142.5 1905.5,-142.5 1905.5,-123.5 1788.5,-123.5"/>
<text text-anchor="middle" x="1847" y="-130.5" font-family="Helvetica,sans-Serif" font-size="10.00">tvm/runtime/object.h</text>
</a>
</g>
</g>
<!-- Node2&#45;&gt;Node3 -->
<g id="edge2" class="edge"><title>Node2&#45;&gt;Node3</title>
<path fill="none" stroke="midnightblue" d="M1016.99,-414.375C1007.38,-392.393 985.434,-333.033 1007,-291 1045.96,-215.061 1082.61,-207.664 1163,-179 1284.01,-135.855 1611.87,-152.385 1740,-143 1752.4,-142.092 1765.59,-141.047 1778.33,-139.997"/>
<polygon fill="midnightblue" stroke="midnightblue" points="1778.75,-143.474 1788.43,-139.156 1778.17,-136.498 1778.75,-143.474"/>
</g>
<!-- Node9 -->
<g id="node9" class="node"><title>Node9</title>
<polygon fill="white" stroke="#bfbfbf" points="933,-62 933,-81 1001,-81 1001,-62 933,-62"/>
<text text-anchor="middle" x="967" y="-69" font-family="Helvetica,sans-Serif" font-size="10.00">type_traits</text>
</g>
<!-- Node2&#45;&gt;Node9 -->
<g id="edge66" class="edge"><title>Node2&#45;&gt;Node9</title>
<path fill="none" stroke="midnightblue" d="M1015.14,-414.482C1009.45,-405.747 1001.1,-391.559 997,-378 965.335,-273.388 965.151,-140.318 966.331,-91.529"/>
<polygon fill="midnightblue" stroke="midnightblue" points="969.838,-91.3413 966.633,-81.2427 962.841,-91.1354 969.838,-91.3413"/>
</g>
<!-- Node10 -->
<g id="node10" class="node"><title>Node10</title>
<polygon fill="white" stroke="#bfbfbf" points="380,-62 380,-81 424,-81 424,-62 380,-62"/>
<text text-anchor="middle" x="402" y="-69" font-family="Helvetica,sans-Serif" font-size="10.00">string</text>
</g>
<!-- Node2&#45;&gt;Node10 -->
<g id="edge71" class="edge"><title>Node2&#45;&gt;Node10</title>
<path fill="none" stroke="midnightblue" d="M976.751,-414.443C896.008,-396.921 722.812,-350.317 611,-255 558.619,-210.346 582.73,-167.242 530,-123 502.089,-99.5812 462.003,-86.1423 434.155,-79.1042"/>
<polygon fill="midnightblue" stroke="midnightblue" points="434.672,-75.6293 424.133,-76.7127 433.047,-82.4381 434.672,-75.6293"/>
</g>
<!-- Node11 -->
<g id="node11" class="node"><title>Node11</title>
<polygon fill="white" stroke="#bfbfbf" points="2053,-62 2053,-81 2095,-81 2095,-62 2053,-62"/>
<text text-anchor="middle" x="2074" y="-69" font-family="Helvetica,sans-Serif" font-size="10.00">utility</text>
</g>
<!-- Node2&#45;&gt;Node11 -->
<g id="edge70" class="edge"><title>Node2&#45;&gt;Node11</title>
<path fill="none" stroke="midnightblue" d="M1080.62,-421.697C1205.6,-418.387 1486.11,-407.699 1517,-378 1581.3,-316.185 1489.04,-250.021 1543,-179 1600.67,-103.095 1867.44,-99.0522 1962,-87 1989.37,-83.5119 2020.49,-79.4775 2042.97,-76.5512"/>
<polygon fill="midnightblue" stroke="midnightblue" points="2043.48,-80.0135 2052.95,-75.2508 2042.58,-73.0722 2043.48,-80.0135"/>
</g>
<!-- Node13 -->
<g id="node13" class="node"><title>Node13</title>
<g id="a_node13"><a xlink:href="runtime_2memory_8h.html" target="_top" xlink:title="Runtime memory management. ">
<polygon fill="white" stroke="black" points="1694.5,-179.5 1694.5,-198.5 1821.5,-198.5 1821.5,-179.5 1694.5,-179.5"/>
<text text-anchor="middle" x="1758" y="-186.5" font-family="Helvetica,sans-Serif" font-size="10.00">tvm/runtime/memory.h</text>
</a>
</g>
</g>
<!-- Node2&#45;&gt;Node13 -->
<g id="edge12" class="edge"><title>Node2&#45;&gt;Node13</title>
<path fill="none" stroke="midnightblue" d="M1080.71,-423.296C1204.79,-423.081 1486.09,-418.037 1572,-378 1655.25,-339.201 1721.97,-246.24 1747.16,-207.457"/>
<polygon fill="midnightblue" stroke="midnightblue" points="1750.23,-209.145 1752.65,-198.83 1744.33,-205.385 1750.23,-209.145"/>
</g>
<!-- Node15 -->
<g id="node15" class="node"><title>Node15</title>
<g id="a_node15"><a xlink:href="packed__func_8h.html" target="_top" xlink:title="Type&#45;erased function used across TVM API. ">
<polygon fill="white" stroke="black" points="1200.5,-291.5 1200.5,-321.5 1313.5,-321.5 1313.5,-291.5 1200.5,-291.5"/>
<text text-anchor="start" x="1208.5" y="-309.5" font-family="Helvetica,sans-Serif" font-size="10.00">tvm/runtime/packed</text>
<text text-anchor="middle" x="1257" y="-298.5" font-family="Helvetica,sans-Serif" font-size="10.00">_func.h</text>
</a>
</g>
</g>
<!-- Node2&#45;&gt;Node15 -->
<g id="edge17" class="edge"><title>Node2&#45;&gt;Node15</title>
<path fill="none" stroke="midnightblue" d="M1038.74,-414.319C1076.88,-395.65 1167.44,-351.332 1219.12,-326.037"/>
<polygon fill="midnightblue" stroke="midnightblue" points="1220.86,-329.085 1228.3,-321.545 1217.78,-322.797 1220.86,-329.085"/>
</g>
<!-- Node19 -->
<g id="node19" class="node"><title>Node19</title>
<polygon fill="white" stroke="#bfbfbf" points="1552.5,-179.5 1552.5,-198.5 1599.5,-198.5 1599.5,-179.5 1552.5,-179.5"/>
<text text-anchor="middle" x="1576" y="-186.5" font-family="Helvetica,sans-Serif" font-size="10.00">vector</text>
</g>
<!-- Node2&#45;&gt;Node19 -->
<g id="edge67" class="edge"><title>Node2&#45;&gt;Node19</title>
<path fill="none" stroke="midnightblue" d="M1080.57,-422.046C1211.74,-419.367 1516.53,-409.76 1550,-378 1596.79,-333.607 1587.23,-247.183 1580.13,-208.962"/>
<polygon fill="midnightblue" stroke="midnightblue" points="1583.48,-207.86 1578.08,-198.747 1576.62,-209.242 1583.48,-207.86"/>
</g>
<!-- Node20 -->
<g id="node20" class="node"><title>Node20</title>
<polygon fill="white" stroke="#bfbfbf" points="737.5,-179.5 737.5,-198.5 830.5,-198.5 830.5,-179.5 737.5,-179.5"/>
<text text-anchor="middle" x="784" y="-186.5" font-family="Helvetica,sans-Serif" font-size="10.00">unordered_map</text>
</g>
<!-- Node2&#45;&gt;Node20 -->
<g id="edge69" class="edge"><title>Node2&#45;&gt;Node20</title>
<path fill="none" stroke="midnightblue" d="M1000.75,-414.408C982.862,-406.335 956.506,-393.237 936,-378 892.359,-345.573 889.785,-328.057 850,-291 832.009,-274.243 822.043,-275.18 808,-255 798.133,-240.82 791.783,-222.094 788.11,-208.385"/>
<polygon fill="midnightblue" stroke="midnightblue" points="791.504,-207.527 785.722,-198.649 784.705,-209.195 791.504,-207.527"/>
</g>
<!-- Node28 -->
<g id="node28" class="node"><title>Node28</title>
<g id="a_node28"><a xlink:href="runtime_2container_8h.html" target="_top" xlink:title="Common POD(plain old data) container types. ">
<polygon fill="white" stroke="black" points="1376,-358.5 1376,-377.5 1508,-377.5 1508,-358.5 1376,-358.5"/>
<text text-anchor="middle" x="1442" y="-365.5" font-family="Helvetica,sans-Serif" font-size="10.00">tvm/runtime/container.h</text>
</a>
</g>
</g>
<!-- Node2&#45;&gt;Node28 -->
<g id="edge55" class="edge"><title>Node2&#45;&gt;Node28</title>
<path fill="none" stroke="midnightblue" d="M1080.87,-415.32C1155.73,-405.719 1283.95,-389.272 1365.76,-378.779"/>
<polygon fill="midnightblue" stroke="midnightblue" points="1366.27,-382.242 1375.74,-377.499 1365.38,-375.299 1366.27,-382.242"/>
</g>
<!-- Node30 -->
<g id="node30" class="node"><title>Node30</title>
<polygon fill="white" stroke="#bfbfbf" points="1016.5,-297 1016.5,-316 1093.5,-316 1093.5,-297 1016.5,-297"/>
<text text-anchor="middle" x="1055" y="-304" font-family="Helvetica,sans-Serif" font-size="10.00">initializer_list</text>
</g>
<!-- Node2&#45;&gt;Node30 -->
<g id="edge68" class="edge"><title>Node2&#45;&gt;Node30</title>
<path fill="none" stroke="midnightblue" d="M1023.56,-414.319C1029.04,-395.673 1042.06,-351.443 1049.52,-326.132"/>
<polygon fill="midnightblue" stroke="midnightblue" points="1052.95,-326.863 1052.41,-316.282 1046.23,-324.887 1052.95,-326.863"/>
</g>
<!-- Node4 -->
<g id="node4" class="node"><title>Node4</title>
<polygon fill="white" stroke="#bfbfbf" points="1291,-62 1291,-81 1377,-81 1377,-62 1291,-62"/>
<text text-anchor="middle" x="1334" y="-69" font-family="Helvetica,sans-Serif" font-size="10.00">dmlc/logging.h</text>
</g>
<!-- Node3&#45;&gt;Node4 -->
<g id="edge3" class="edge"><title>Node3&#45;&gt;Node4</title>
<path fill="none" stroke="midnightblue" d="M1788.15,-125.175C1687.6,-113.512 1484.21,-89.922 1387.46,-78.701"/>
<polygon fill="midnightblue" stroke="midnightblue" points="1387.66,-75.2004 1377.32,-77.5249 1386.85,-82.1538 1387.66,-75.2004"/>
</g>
<!-- Node5 -->
<g id="node5" class="node"><title>Node5</title>
<g id="a_node5"><a xlink:href="c__runtime__api_8h.html" target="_top" xlink:title="tvm/runtime/c_runtime\l_api.h">
<polygon fill="white" stroke="black" points="2428.5,-56.5 2428.5,-86.5 2555.5,-86.5 2555.5,-56.5 2428.5,-56.5"/>
<text text-anchor="start" x="2436.5" y="-74.5" font-family="Helvetica,sans-Serif" font-size="10.00">tvm/runtime/c_runtime</text>
<text text-anchor="middle" x="2492" y="-63.5" font-family="Helvetica,sans-Serif" font-size="10.00">_api.h</text>
</a>
</g>
</g>
<!-- Node3&#45;&gt;Node5 -->
<g id="edge4" class="edge"><title>Node3&#45;&gt;Node5</title>
<path fill="none" stroke="midnightblue" d="M1905.66,-126.588C2023.43,-115.725 2288.41,-91.2805 2417.92,-79.3335"/>
<polygon fill="midnightblue" stroke="midnightblue" points="2418.5,-82.7948 2428.14,-78.3909 2417.86,-75.8244 2418.5,-82.7948"/>
</g>
<!-- Node3&#45;&gt;Node9 -->
<g id="edge8" class="edge"><title>Node3&#45;&gt;Node9</title>
<path fill="none" stroke="midnightblue" d="M1788.43,-126.875C1772.71,-125.553 1755.71,-124.174 1740,-123 1463.03,-102.307 1129.88,-82.136 1011.43,-75.1115"/>
<polygon fill="midnightblue" stroke="midnightblue" points="1011.49,-71.609 1001.3,-74.5117 1011.08,-78.5967 1011.49,-71.609"/>
</g>
<!-- Node3&#45;&gt;Node10 -->
<g id="edge9" class="edge"><title>Node3&#45;&gt;Node10</title>
<path fill="none" stroke="midnightblue" d="M1788.45,-126.583C1772.72,-125.263 1755.72,-123.957 1740,-123 1474.25,-106.817 612.781,-79.161 434.481,-73.5217"/>
<polygon fill="midnightblue" stroke="midnightblue" points="434.525,-70.0214 424.419,-73.2039 434.304,-77.0179 434.525,-70.0214"/>
</g>
<!-- Node3&#45;&gt;Node11 -->
<g id="edge10" class="edge"><title>Node3&#45;&gt;Node11</title>
<path fill="none" stroke="midnightblue" d="M1879.52,-123.475C1923.13,-112.046 2000,-91.8967 2042.88,-80.658"/>
<polygon fill="midnightblue" stroke="midnightblue" points="2043.97,-83.9908 2052.75,-78.0696 2042.19,-77.2196 2043.97,-83.9908"/>
</g>
<!-- Node12 -->
<g id="node12" class="node"><title>Node12</title>
<polygon fill="white" stroke="#bfbfbf" points="1903,-62 1903,-81 1953,-81 1953,-62 1903,-62"/>
<text text-anchor="middle" x="1928" y="-69" font-family="Helvetica,sans-Serif" font-size="10.00">atomic</text>
</g>
<!-- Node3&#45;&gt;Node12 -->
<g id="edge11" class="edge"><title>Node3&#45;&gt;Node12</title>
<path fill="none" stroke="midnightblue" d="M1858.61,-123.475C1871.48,-114.02 1892.47,-98.5961 1908.01,-87.1871"/>
<polygon fill="midnightblue" stroke="midnightblue" points="1910.43,-89.75 1916.42,-81.0091 1906.28,-84.1085 1910.43,-89.75"/>
</g>
<!-- Node6 -->
<g id="node6" class="node"><title>Node6</title>
<polygon fill="white" stroke="#bfbfbf" points="2357,-0.5 2357,-19.5 2447,-19.5 2447,-0.5 2357,-0.5"/>
<text text-anchor="middle" x="2402" y="-7.5" font-family="Helvetica,sans-Serif" font-size="10.00">dlpack/dlpack.h</text>
</g>
<!-- Node5&#45;&gt;Node6 -->
<g id="edge5" class="edge"><title>Node5&#45;&gt;Node6</title>
<path fill="none" stroke="midnightblue" d="M2470.67,-56.3993C2456.51,-47.0402 2437.99,-34.7924 2423.75,-25.3771"/>
<polygon fill="midnightblue" stroke="midnightblue" points="2425.37,-22.2531 2415.1,-19.6578 2421.51,-28.0923 2425.37,-22.2531"/>
</g>
<!-- Node7 -->
<g id="node7" class="node"><title>Node7</title>
<polygon fill="white" stroke="#bfbfbf" points="2465.5,-0.5 2465.5,-19.5 2518.5,-19.5 2518.5,-0.5 2465.5,-0.5"/>
<text text-anchor="middle" x="2492" y="-7.5" font-family="Helvetica,sans-Serif" font-size="10.00">stdint.h</text>
</g>
<!-- Node5&#45;&gt;Node7 -->
<g id="edge6" class="edge"><title>Node5&#45;&gt;Node7</title>
<path fill="none" stroke="midnightblue" d="M2492,-56.3993C2492,-48.4664 2492,-38.458 2492,-29.8583"/>
<polygon fill="midnightblue" stroke="midnightblue" points="2495.5,-29.6577 2492,-19.6578 2488.5,-29.6578 2495.5,-29.6577"/>
</g>
<!-- Node8 -->
<g id="node8" class="node"><title>Node8</title>
<polygon fill="white" stroke="#bfbfbf" points="2536.5,-0.5 2536.5,-19.5 2591.5,-19.5 2591.5,-0.5 2536.5,-0.5"/>
<text text-anchor="middle" x="2564" y="-7.5" font-family="Helvetica,sans-Serif" font-size="10.00">stddef.h</text>
</g>
<!-- Node5&#45;&gt;Node8 -->
<g id="edge7" class="edge"><title>Node5&#45;&gt;Node8</title>
<path fill="none" stroke="midnightblue" d="M2509.06,-56.3993C2520.06,-47.3076 2534.37,-35.4899 2545.62,-26.1909"/>
<polygon fill="midnightblue" stroke="midnightblue" points="2548.04,-28.726 2553.52,-19.6578 2543.59,-23.33 2548.04,-28.726"/>
</g>
<!-- Node13&#45;&gt;Node3 -->
<g id="edge13" class="edge"><title>Node13&#45;&gt;Node3</title>
<path fill="none" stroke="midnightblue" d="M1772.3,-179.324C1786.18,-170.9 1807.49,-157.971 1823.8,-148.074"/>
<polygon fill="midnightblue" stroke="midnightblue" points="1826,-150.834 1832.74,-142.655 1822.37,-144.85 1826,-150.834"/>
</g>
<!-- Node13&#45;&gt;Node9 -->
<g id="edge16" class="edge"><title>Node13&#45;&gt;Node9</title>
<path fill="none" stroke="midnightblue" d="M1699.51,-179.46C1547.99,-157.335 1145.16,-98.5138 1011.09,-78.9382"/>
<polygon fill="midnightblue" stroke="midnightblue" points="1011.57,-75.4711 1001.17,-77.4895 1010.56,-82.3977 1011.57,-75.4711"/>
</g>
<!-- Node13&#45;&gt;Node11 -->
<g id="edge15" class="edge"><title>Node13&#45;&gt;Node11</title>
<path fill="none" stroke="midnightblue" d="M1758.11,-179.318C1758.8,-165.212 1762.33,-137.444 1779,-123 1788.97,-114.366 1968.65,-87.6667 2042.6,-76.9847"/>
<polygon fill="midnightblue" stroke="midnightblue" points="2043.31,-80.4184 2052.71,-75.529 2042.32,-73.4899 2043.31,-80.4184"/>
</g>
<!-- Node14 -->
<g id="node14" class="node"><title>Node14</title>
<polygon fill="white" stroke="#bfbfbf" points="1684.5,-123.5 1684.5,-142.5 1731.5,-142.5 1731.5,-123.5 1684.5,-123.5"/>
<text text-anchor="middle" x="1708" y="-130.5" font-family="Helvetica,sans-Serif" font-size="10.00">cstdlib</text>
</g>
<!-- Node13&#45;&gt;Node14 -->
<g id="edge14" class="edge"><title>Node13&#45;&gt;Node14</title>
<path fill="none" stroke="midnightblue" d="M1749.74,-179.083C1742.54,-171.298 1731.89,-159.801 1723.15,-150.367"/>
<polygon fill="midnightblue" stroke="midnightblue" points="1725.47,-147.711 1716.1,-142.751 1720.33,-152.467 1725.47,-147.711"/>
</g>
<!-- Node15&#45;&gt;Node3 -->
<g id="edge46" class="edge"><title>Node15&#45;&gt;Node3</title>
<path fill="none" stroke="midnightblue" d="M1301.12,-291.466C1327.74,-282.37 1361.99,-269.531 1391,-255 1447.11,-226.894 1451.06,-200.551 1510,-179 1557.83,-161.511 1694.29,-147.154 1778.17,-139.652"/>
<polygon fill="midnightblue" stroke="midnightblue" points="1778.73,-143.117 1788.38,-138.75 1778.11,-136.144 1778.73,-143.117"/>
</g>
<!-- Node15&#45;&gt;Node4 -->
<g id="edge18" class="edge"><title>Node15&#45;&gt;Node4</title>
<path fill="none" stroke="midnightblue" d="M1227.17,-291.401C1211.79,-282.796 1193.82,-270.464 1182,-255 1160.86,-227.338 1146.1,-209.439 1163,-179 1190.9,-128.754 1253.44,-99.1323 1294.65,-84.3603"/>
<polygon fill="midnightblue" stroke="midnightblue" points="1295.81,-87.6621 1304.13,-81.0909 1293.53,-81.0452 1295.81,-87.6621"/>
</g>
<!-- Node15&#45;&gt;Node5 -->
<g id="edge19" class="edge"><title>Node15&#45;&gt;Node5</title>
<path fill="none" stroke="midnightblue" d="M1313.54,-297.414C1332.41,-294.986 1353.58,-292.558 1373,-291 1484.6,-282.048 2280.48,-306.288 2380,-255 2442.62,-222.728 2473.9,-138.23 2485.93,-96.5111"/>
<polygon fill="midnightblue" stroke="midnightblue" points="2489.37,-97.2214 2488.64,-86.6513 2482.62,-95.3656 2489.37,-97.2214"/>
</g>
<!-- Node15&#45;&gt;Node9 -->
<g id="edge54" class="edge"><title>Node15&#45;&gt;Node9</title>
<path fill="none" stroke="midnightblue" d="M1226.55,-291.384C1207.82,-282.122 1183.71,-269.137 1164,-255 1089.62,-201.634 1013.44,-122.764 981.983,-88.9112"/>
<polygon fill="midnightblue" stroke="midnightblue" points="984.331,-86.2942 974.978,-81.3175 979.186,-91.0407 984.331,-86.2942"/>
</g>
<!-- Node15&#45;&gt;Node10 -->
<g id="edge50" class="edge"><title>Node15&#45;&gt;Node10</title>
<path fill="none" stroke="midnightblue" d="M1221.14,-291.457C1134.13,-257.861 904.347,-172.008 706,-123 608.411,-98.8877 490.314,-82.9664 434.382,-76.2014"/>
<polygon fill="midnightblue" stroke="midnightblue" points="434.708,-72.7156 424.364,-75.0078 433.88,-79.6664 434.708,-72.7156"/>
</g>
<!-- Node15&#45;&gt;Node11 -->
<g id="edge53" class="edge"><title>Node15&#45;&gt;Node11</title>
<path fill="none" stroke="midnightblue" d="M1313.57,-297.736C1332.44,-295.33 1353.6,-292.833 1373,-291 1497.37,-279.247 1823.79,-313.82 1934,-255 2003.88,-217.705 2049.52,-128.643 2066.53,-90.4221"/>
<polygon fill="midnightblue" stroke="midnightblue" points="2069.81,-91.6436 2070.57,-81.0754 2063.39,-88.8689 2069.81,-91.6436"/>
</g>
<!-- Node16 -->
<g id="node16" class="node"><title>Node16</title>
<g id="a_node16"><a xlink:href="runtime_2module_8h.html" target="_top" xlink:title="Runtime container of the functions generated by TVM, This is used to support dynamically link...">
<polygon fill="white" stroke="black" points="1258,-235.5 1258,-254.5 1382,-254.5 1382,-235.5 1258,-235.5"/>
<text text-anchor="middle" x="1320" y="-242.5" font-family="Helvetica,sans-Serif" font-size="10.00">tvm/runtime/module.h</text>
</a>
</g>
</g>
<!-- Node15&#45;&gt;Node16 -->
<g id="edge20" class="edge"><title>Node15&#45;&gt;Node16</title>
<path fill="none" stroke="midnightblue" d="M1266.09,-291.399C1274.55,-282.308 1287.02,-270.49 1297.94,-261.191"/>
<polygon fill="midnightblue" stroke="midnightblue" points="1300.39,-263.707 1305.9,-254.658 1295.95,-258.296 1300.39,-263.707"/>
</g>
<!-- Node18 -->
<g id="node18" class="node"><title>Node18</title>
<polygon fill="white" stroke="#bfbfbf" points="1172.5,-179.5 1172.5,-198.5 1229.5,-198.5 1229.5,-179.5 1172.5,-179.5"/>
<text text-anchor="middle" x="1201" y="-186.5" font-family="Helvetica,sans-Serif" font-size="10.00">memory</text>
</g>
<!-- Node15&#45;&gt;Node18 -->
<g id="edge52" class="edge"><title>Node15&#45;&gt;Node18</title>
<path fill="none" stroke="midnightblue" d="M1226.88,-291.442C1212.62,-283.047 1196.99,-270.896 1189,-255 1181.6,-240.295 1186.26,-221.663 1191.79,-208.12"/>
<polygon fill="midnightblue" stroke="midnightblue" points="1195.03,-209.456 1196,-198.906 1188.66,-206.546 1195.03,-209.456"/>
</g>
<!-- Node15&#45;&gt;Node19 -->
<g id="edge49" class="edge"><title>Node15&#45;&gt;Node19</title>
<path fill="none" stroke="midnightblue" d="M1308.65,-291.477C1341.89,-282.061 1385.86,-268.875 1424,-255 1468.1,-238.957 1517.88,-216.89 1548.09,-203.039"/>
<polygon fill="midnightblue" stroke="midnightblue" points="1549.93,-206.044 1557.55,-198.678 1547,-199.687 1549.93,-206.044"/>
</g>
<!-- Node21 -->
<g id="node21" class="node"><title>Node21</title>
<g id="a_node21"><a xlink:href="ndarray_8h.html" target="_top" xlink:title="A device&#45;independent managed NDArray abstraction. ">
<polygon fill="white" stroke="black" points="2248.5,-235.5 2248.5,-254.5 2371.5,-254.5 2371.5,-235.5 2248.5,-235.5"/>
<text text-anchor="middle" x="2310" y="-242.5" font-family="Helvetica,sans-Serif" font-size="10.00">tvm/runtime/ndarray.h</text>
</a>
</g>
</g>
<!-- Node15&#45;&gt;Node21 -->
<g id="edge30" class="edge"><title>Node15&#45;&gt;Node21</title>
<path fill="none" stroke="midnightblue" d="M1313.55,-297.553C1332.42,-295.135 1353.59,-292.677 1373,-291 1540.79,-276.505 2049.03,-256.06 2238.12,-248.739"/>
<polygon fill="midnightblue" stroke="midnightblue" points="2238.37,-252.232 2248.23,-248.349 2238.1,-245.238 2238.37,-252.232"/>
</g>
<!-- Node24 -->
<g id="node24" class="node"><title>Node24</title>
<g id="a_node24"><a xlink:href="data__type_8h.html" target="_top" xlink:title="tvm/runtime/data_type.h">
<polygon fill="white" stroke="black" points="620,-235.5 620,-254.5 756,-254.5 756,-235.5 620,-235.5"/>
<text text-anchor="middle" x="688" y="-242.5" font-family="Helvetica,sans-Serif" font-size="10.00">tvm/runtime/data_type.h</text>
</a>
</g>
</g>
<!-- Node15&#45;&gt;Node24 -->
<g id="edge41" class="edge"><title>Node15&#45;&gt;Node24</title>
<path fill="none" stroke="midnightblue" d="M1200.36,-299.577C1098.18,-288.892 882.803,-266.37 766.488,-254.207"/>
<polygon fill="midnightblue" stroke="midnightblue" points="766.543,-250.694 756.233,-253.135 765.814,-257.656 766.543,-250.694"/>
</g>
<!-- Node25 -->
<g id="node25" class="node"><title>Node25</title>
<polygon fill="white" stroke="#bfbfbf" points="850.5,-235.5 850.5,-254.5 913.5,-254.5 913.5,-235.5 850.5,-235.5"/>
<text text-anchor="middle" x="882" y="-242.5" font-family="Helvetica,sans-Serif" font-size="10.00">functional</text>
</g>
<!-- Node15&#45;&gt;Node25 -->
<g id="edge47" class="edge"><title>Node15&#45;&gt;Node25</title>
<path fill="none" stroke="midnightblue" d="M1200.45,-296.528C1124.51,-284.479 991.333,-263.347 923.802,-252.633"/>
<polygon fill="midnightblue" stroke="midnightblue" points="923.971,-249.116 913.546,-251.005 922.874,-256.029 923.971,-249.116"/>
</g>
<!-- Node26 -->
<g id="node26" class="node"><title>Node26</title>
<polygon fill="white" stroke="#bfbfbf" points="1198.5,-235.5 1198.5,-254.5 1239.5,-254.5 1239.5,-235.5 1198.5,-235.5"/>
<text text-anchor="middle" x="1219" y="-242.5" font-family="Helvetica,sans-Serif" font-size="10.00">tuple</text>
</g>
<!-- Node15&#45;&gt;Node26 -->
<g id="edge48" class="edge"><title>Node15&#45;&gt;Node26</title>
<path fill="none" stroke="midnightblue" d="M1247.99,-291.399C1242.59,-282.932 1235.67,-272.099 1229.95,-263.139"/>
<polygon fill="midnightblue" stroke="midnightblue" points="1232.86,-261.202 1224.53,-254.658 1226.96,-264.97 1232.86,-261.202"/>
</g>
<!-- Node27 -->
<g id="node27" class="node"><title>Node27</title>
<polygon fill="white" stroke="#bfbfbf" points="142,-235.5 142,-254.5 184,-254.5 184,-235.5 142,-235.5"/>
<text text-anchor="middle" x="163" y="-242.5" font-family="Helvetica,sans-Serif" font-size="10.00">limits</text>
</g>
<!-- Node15&#45;&gt;Node27 -->
<g id="edge51" class="edge"><title>Node15&#45;&gt;Node27</title>
<path fill="none" stroke="midnightblue" d="M1200.36,-299.58C1171.03,-296.672 1134.62,-293.306 1102,-291 745.996,-265.831 313.047,-250.826 194.362,-246.986"/>
<polygon fill="midnightblue" stroke="midnightblue" points="194.284,-243.482 184.177,-246.659 194.059,-250.478 194.284,-243.482"/>
</g>
<!-- Node16&#45;&gt;Node3 -->
<g id="edge23" class="edge"><title>Node16&#45;&gt;Node3</title>
<path fill="none" stroke="midnightblue" d="M1326.88,-235.391C1339.06,-220.863 1365.98,-191.816 1396,-179 1413.29,-171.619 1656.15,-150.176 1778.12,-139.783"/>
<polygon fill="midnightblue" stroke="midnightblue" points="1778.45,-143.268 1788.12,-138.933 1777.86,-136.293 1778.45,-143.268"/>
</g>
<!-- Node16&#45;&gt;Node5 -->
<g id="edge22" class="edge"><title>Node16&#45;&gt;Node5</title>
<path fill="none" stroke="midnightblue" d="M1323.04,-235.183C1328.45,-220.883 1341.19,-192.843 1362,-179 1479.66,-100.718 1534.69,-139.832 1675,-123 1948,-90.2515 2275.02,-78.1585 2418.47,-74.2051"/>
<polygon fill="midnightblue" stroke="midnightblue" points="2418.57,-77.7036 2428.47,-73.9343 2418.38,-70.7061 2418.57,-77.7036"/>
</g>
<!-- Node16&#45;&gt;Node10 -->
<g id="edge27" class="edge"><title>Node16&#45;&gt;Node10</title>
<path fill="none" stroke="midnightblue" d="M1312.38,-235.483C1298.95,-221.095 1269.48,-192.252 1238,-179 1088.33,-115.986 569.612,-82.175 434.423,-74.3032"/>
<polygon fill="midnightblue" stroke="midnightblue" points="434.483,-70.801 424.298,-73.7207 434.081,-77.7894 434.483,-70.801"/>
</g>
<!-- Node16&#45;&gt;Node13 -->
<g id="edge24" class="edge"><title>Node16&#45;&gt;Node13</title>
<path fill="none" stroke="midnightblue" d="M1382.29,-236.32C1461.84,-226.513 1599.31,-209.564 1684.08,-199.114"/>
<polygon fill="midnightblue" stroke="midnightblue" points="1684.65,-202.57 1694.15,-197.872 1683.79,-195.622 1684.65,-202.57"/>
</g>
<!-- Node16&#45;&gt;Node15 -->
<g id="edge29" class="edge"><title>Node16&#45;&gt;Node15</title>
<path fill="none" stroke="midnightblue" d="M1315.76,-254.658C1309.16,-262.482 1297.15,-274.315 1285.61,-284.597"/>
<polygon fill="midnightblue" stroke="midnightblue" points="1283.03,-282.202 1277.77,-291.399 1287.62,-287.489 1283.03,-282.202"/>
</g>
<!-- Node17 -->
<g id="node17" class="node"><title>Node17</title>
<polygon fill="white" stroke="#bfbfbf" points="2140,-123.5 2140,-142.5 2200,-142.5 2200,-123.5 2140,-123.5"/>
<text text-anchor="middle" x="2170" y="-130.5" font-family="Helvetica,sans-Serif" font-size="10.00">dmlc/io.h</text>
</g>
<!-- Node16&#45;&gt;Node17 -->
<g id="edge21" class="edge"><title>Node16&#45;&gt;Node17</title>
<path fill="none" stroke="midnightblue" d="M1343.37,-235.399C1383.55,-221.019 1468.58,-192.361 1543,-179 1656.39,-158.643 2009.21,-141.256 2129.41,-135.787"/>
<polygon fill="midnightblue" stroke="midnightblue" points="2129.82,-139.272 2139.65,-135.324 2129.5,-132.279 2129.82,-139.272"/>
</g>
<!-- Node16&#45;&gt;Node18 -->
<g id="edge25" class="edge"><title>Node16&#45;&gt;Node18</title>
<path fill="none" stroke="midnightblue" d="M1301.14,-235.444C1281.73,-226.636 1251.27,-212.812 1229.04,-202.722"/>
<polygon fill="midnightblue" stroke="midnightblue" points="1230.32,-199.462 1219.77,-198.516 1227.43,-205.836 1230.32,-199.462"/>
</g>
<!-- Node16&#45;&gt;Node19 -->
<g id="edge26" class="edge"><title>Node16&#45;&gt;Node19</title>
<path fill="none" stroke="midnightblue" d="M1360.56,-235.444C1410.9,-224.827 1495.78,-206.922 1542.56,-197.054"/>
<polygon fill="midnightblue" stroke="midnightblue" points="1543.43,-200.448 1552.49,-194.959 1541.98,-193.599 1543.43,-200.448"/>
</g>
<!-- Node16&#45;&gt;Node20 -->
<g id="edge28" class="edge"><title>Node16&#45;&gt;Node20</title>
<path fill="none" stroke="midnightblue" d="M1257.96,-236.134C1254.59,-235.742 1251.26,-235.361 1248,-235 1101.37,-218.729 928.305,-202.814 840.791,-194.998"/>
<polygon fill="midnightblue" stroke="midnightblue" points="841.077,-191.509 830.805,-194.108 840.455,-198.482 841.077,-191.509"/>
</g>
<!-- Node21&#45;&gt;Node3 -->
<g id="edge32" class="edge"><title>Node21&#45;&gt;Node3</title>
<path fill="none" stroke="midnightblue" d="M2284.74,-235.495C2244.36,-222.125 2162.66,-195.971 2092,-179 2032.01,-164.591 1962.79,-152.266 1913.26,-144.177"/>
<polygon fill="midnightblue" stroke="midnightblue" points="1913.74,-140.71 1903.31,-142.566 1912.62,-147.62 1913.74,-140.71"/>
</g>
<!-- Node21&#45;&gt;Node5 -->
<g id="edge31" class="edge"><title>Node21&#45;&gt;Node5</title>
<path fill="none" stroke="midnightblue" d="M2330.62,-235.489C2348.11,-227.643 2373.28,-214.832 2392,-199 2428.33,-168.279 2460.5,-122.592 2478.02,-95.3518"/>
<polygon fill="midnightblue" stroke="midnightblue" points="2481.2,-96.8641 2483.59,-86.5408 2475.29,-93.1245 2481.2,-96.8641"/>
</g>
<!-- Node21&#45;&gt;Node11 -->
<g id="edge40" class="edge"><title>Node21&#45;&gt;Node11</title>
<path fill="none" stroke="midnightblue" d="M2287.47,-235.395C2251.25,-220.726 2179.26,-188.035 2131,-143 2113.46,-126.638 2096.61,-104.777 2085.84,-89.7599"/>
<polygon fill="midnightblue" stroke="midnightblue" points="2088.58,-87.5732 2079.97,-81.4045 2082.85,-91.5984 2088.58,-87.5732"/>
</g>
<!-- Node21&#45;&gt;Node12 -->
<g id="edge38" class="edge"><title>Node21&#45;&gt;Node12</title>
<path fill="none" stroke="midnightblue" d="M2324.66,-235.402C2336.41,-227.585 2352.03,-214.862 2359,-199 2374.19,-164.425 2353.17,-142.778 2321,-123 2319.09,-121.825 2059.16,-89.0104 1963.13,-76.9185"/>
<polygon fill="midnightblue" stroke="midnightblue" points="1963.4,-73.4252 1953.04,-75.6488 1962.52,-80.3704 1963.4,-73.4252"/>
</g>
<!-- Node21&#45;&gt;Node19 -->
<g id="edge39" class="edge"><title>Node21&#45;&gt;Node19</title>
<path fill="none" stroke="midnightblue" d="M2248.33,-239.775C2136.18,-232.045 1891.35,-214.947 1685,-199 1659.9,-197.06 1631.56,-194.715 1610.07,-192.905"/>
<polygon fill="midnightblue" stroke="midnightblue" points="1610.07,-189.393 1599.81,-192.038 1609.48,-196.368 1610.07,-189.393"/>
</g>
<!-- Node22 -->
<g id="node22" class="node"><title>Node22</title>
<g id="a_node22"><a xlink:href="serializer_8h.html" target="_top" xlink:title="Serializer extension to support TVM data types Include this file to enable serialization of DLDataTyp...">
<polygon fill="white" stroke="black" points="2220,-179.5 2220,-198.5 2350,-198.5 2350,-179.5 2220,-179.5"/>
<text text-anchor="middle" x="2285" y="-186.5" font-family="Helvetica,sans-Serif" font-size="10.00">tvm/runtime/serializer.h</text>
</a>
</g>
</g>
<!-- Node21&#45;&gt;Node22 -->
<g id="edge33" class="edge"><title>Node21&#45;&gt;Node22</title>
<path fill="none" stroke="midnightblue" d="M2300.71,-235.083C2295.83,-227.849 2290.57,-217.409 2287.08,-208.397"/>
<polygon fill="midnightblue" stroke="midnightblue" points="2290.36,-207.164 2283.92,-198.751 2283.71,-209.344 2290.36,-207.164"/>
</g>
<!-- Node22&#45;&gt;Node5 -->
<g id="edge36" class="edge"><title>Node22&#45;&gt;Node5</title>
<path fill="none" stroke="midnightblue" d="M2300.56,-179.319C2333.81,-160.766 2412.46,-116.883 2457.93,-91.5112"/>
<polygon fill="midnightblue" stroke="midnightblue" points="2459.8,-94.4743 2466.83,-86.5453 2456.39,-88.3615 2459.8,-94.4743"/>
</g>
<!-- Node22&#45;&gt;Node17 -->
<g id="edge34" class="edge"><title>Node22&#45;&gt;Node17</title>
<path fill="none" stroke="midnightblue" d="M2266.78,-179.444C2248.1,-170.675 2218.84,-156.935 2197.38,-146.858"/>
<polygon fill="midnightblue" stroke="midnightblue" points="2198.68,-143.599 2188.14,-142.516 2195.7,-149.935 2198.68,-143.599"/>
</g>
<!-- Node22&#45;&gt;Node21 -->
<g id="edge37" class="edge"><title>Node22&#45;&gt;Node21</title>
<path fill="none" stroke="midnightblue" d="M2294.18,-198.751C2299.05,-205.936 2304.32,-216.362 2307.84,-225.396"/>
<polygon fill="midnightblue" stroke="midnightblue" points="2304.58,-226.685 2311.04,-235.083 2311.22,-224.49 2304.58,-226.685"/>
</g>
<!-- Node23 -->
<g id="node23" class="node"><title>Node23</title>
<polygon fill="white" stroke="#bfbfbf" points="2218,-123.5 2218,-142.5 2312,-142.5 2312,-123.5 2218,-123.5"/>
<text text-anchor="middle" x="2265" y="-130.5" font-family="Helvetica,sans-Serif" font-size="10.00">dmlc/serializer.h</text>
</g>
<!-- Node22&#45;&gt;Node23 -->
<g id="edge35" class="edge"><title>Node22&#45;&gt;Node23</title>
<path fill="none" stroke="midnightblue" d="M2281.7,-179.083C2279.02,-171.849 2275.15,-161.409 2271.81,-152.397"/>
<polygon fill="midnightblue" stroke="midnightblue" points="2275,-150.913 2268.24,-142.751 2268.43,-153.344 2275,-150.913"/>
</g>
<!-- Node24&#45;&gt;Node4 -->
<g id="edge43" class="edge"><title>Node24&#45;&gt;Node4</title>
<path fill="none" stroke="midnightblue" d="M690.763,-235.184C695.734,-220.885 707.611,-192.846 728,-179 773.693,-147.971 1141.1,-97.5649 1280.57,-79.3447"/>
<polygon fill="midnightblue" stroke="midnightblue" points="1281.13,-82.8002 1290.6,-78.0381 1280.23,-75.8588 1281.13,-82.8002"/>
</g>
<!-- Node24&#45;&gt;Node5 -->
<g id="edge42" class="edge"><title>Node24&#45;&gt;Node5</title>
<path fill="none" stroke="midnightblue" d="M729.67,-235.5C842.21,-212.915 1161.94,-151.219 1431,-123 1528.31,-112.794 2193.53,-84.8003 2418.12,-75.5279"/>
<polygon fill="midnightblue" stroke="midnightblue" points="2418.31,-79.023 2428.16,-75.1138 2418.02,-72.029 2418.31,-79.023"/>
</g>
<!-- Node24&#45;&gt;Node9 -->
<g id="edge44" class="edge"><title>Node24&#45;&gt;Node9</title>
<path fill="none" stroke="midnightblue" d="M686.161,-235.262C683.827,-221.573 681.565,-194.989 695,-179 732.193,-134.738 765.97,-163.572 820,-143 864.203,-126.17 913.335,-101.271 942.126,-86.0096"/>
<polygon fill="midnightblue" stroke="midnightblue" points="943.903,-89.0285 951.074,-81.2289 940.604,-82.8546 943.903,-89.0285"/>
</g>
<!-- Node24&#45;&gt;Node10 -->
<g id="edge45" class="edge"><title>Node24&#45;&gt;Node10</title>
<path fill="none" stroke="midnightblue" d="M681.868,-235.227C665.905,-213.041 620.691,-154.245 569,-123 526.362,-97.2272 469.573,-83.7255 434.42,-77.3659"/>
<polygon fill="midnightblue" stroke="midnightblue" points="434.693,-73.8615 424.244,-75.6158 433.506,-80.7603 434.693,-73.8615"/>
</g>
<!-- Node28&#45;&gt;Node3 -->
<g id="edge58" class="edge"><title>Node28&#45;&gt;Node3</title>
<path fill="none" stroke="midnightblue" d="M1443.65,-358.336C1450.02,-327.631 1476.02,-223.467 1543,-179 1562.25,-166.222 1694.62,-150.135 1778.22,-141.066"/>
<polygon fill="midnightblue" stroke="midnightblue" points="1778.59,-144.546 1788.16,-139.996 1777.84,-137.586 1778.59,-144.546"/>
</g>
<!-- Node28&#45;&gt;Node4 -->
<g id="edge56" class="edge"><title>Node28&#45;&gt;Node4</title>
<path fill="none" stroke="midnightblue" d="M1418.21,-358.499C1402.28,-351.413 1382.54,-339.605 1373,-322 1366.44,-309.885 1369.83,-304.409 1373,-291 1377.11,-273.59 1386.89,-272.41 1391,-255 1393.04,-246.349 1392.49,-243.763 1391,-235 1381.7,-180.402 1356.01,-119.729 1342.52,-90.3639"/>
<polygon fill="midnightblue" stroke="midnightblue" points="1345.57,-88.6065 1338.16,-81.0308 1339.23,-91.5719 1345.57,-88.6065"/>
</g>
<!-- Node28&#45;&gt;Node9 -->
<g id="edge63" class="edge"><title>Node28&#45;&gt;Node9</title>
<path fill="none" stroke="midnightblue" d="M1375.9,-365.835C1323.17,-362.464 1248.82,-352.103 1191,-322 1083.99,-266.286 1003.43,-137.249 976.631,-90.1311"/>
<polygon fill="midnightblue" stroke="midnightblue" points="979.672,-88.3982 971.738,-81.376 973.561,-91.8128 979.672,-88.3982"/>
</g>
<!-- Node28&#45;&gt;Node10 -->
<g id="edge62" class="edge"><title>Node28&#45;&gt;Node10</title>
<path fill="none" stroke="midnightblue" d="M1375.91,-366.59C1313.33,-364.04 1217.9,-354.46 1142,-322 1121.32,-313.156 1122.73,-299.721 1102,-291 1048.03,-268.298 880.046,-298.629 841,-255 818.466,-229.821 860.221,-205.294 839,-179 832.465,-170.903 533.708,-102.423 434.006,-79.7546"/>
<polygon fill="midnightblue" stroke="midnightblue" points="434.717,-76.3271 424.19,-77.5248 433.166,-83.1532 434.717,-76.3271"/>
</g>
<!-- Node28&#45;&gt;Node11 -->
<g id="edge64" class="edge"><title>Node28&#45;&gt;Node11</title>
<path fill="none" stroke="midnightblue" d="M1508.31,-364.076C1712.6,-354.395 2322.09,-320.235 2380,-255 2420.01,-209.932 2396.92,-159.546 2349,-123 2311.05,-94.0594 2169.17,-79.7841 2105.39,-74.7191"/>
<polygon fill="midnightblue" stroke="midnightblue" points="2105.38,-71.2081 2095.14,-73.9315 2104.85,-78.1875 2105.38,-71.2081"/>
</g>
<!-- Node28&#45;&gt;Node13 -->
<g id="edge57" class="edge"><title>Node28&#45;&gt;Node13</title>
<path fill="none" stroke="midnightblue" d="M1457.24,-358.463C1508.02,-330.022 1671.72,-238.329 1733.81,-203.549"/>
<polygon fill="midnightblue" stroke="midnightblue" points="1735.53,-206.599 1742.54,-198.659 1732.11,-200.492 1735.53,-206.599"/>
</g>
<!-- Node28&#45;&gt;Node15 -->
<g id="edge59" class="edge"><title>Node28&#45;&gt;Node15</title>
<path fill="none" stroke="midnightblue" d="M1415.49,-358.475C1388.21,-349.701 1344.95,-335.788 1310.52,-324.712"/>
<polygon fill="midnightblue" stroke="midnightblue" points="1311.19,-321.253 1300.6,-321.523 1309.05,-327.917 1311.19,-321.253"/>
</g>
<!-- Node28&#45;&gt;Node19 -->
<g id="edge65" class="edge"><title>Node28&#45;&gt;Node19</title>
<path fill="none" stroke="midnightblue" d="M1448.46,-358.463C1469.28,-330.962 1534.88,-244.319 1562.99,-207.178"/>
<polygon fill="midnightblue" stroke="midnightblue" points="1566.04,-208.954 1569.29,-198.868 1560.46,-204.729 1566.04,-208.954"/>
</g>
<!-- Node29 -->
<g id="node29" class="node"><title>Node29</title>
<polygon fill="white" stroke="#bfbfbf" points="1382.5,-297 1382.5,-316 1431.5,-316 1431.5,-297 1382.5,-297"/>
<text text-anchor="middle" x="1407" y="-304" font-family="Helvetica,sans-Serif" font-size="10.00">cstring</text>
</g>
<!-- Node28&#45;&gt;Node29 -->
<g id="edge60" class="edge"><title>Node28&#45;&gt;Node29</title>
<path fill="none" stroke="midnightblue" d="M1436.99,-358.475C1431.84,-349.727 1423.69,-335.869 1417.18,-324.809"/>
<polygon fill="midnightblue" stroke="midnightblue" points="1420.09,-322.854 1412.01,-316.009 1414.06,-326.403 1420.09,-322.854"/>
</g>
<!-- Node28&#45;&gt;Node30 -->
<g id="edge61" class="edge"><title>Node28&#45;&gt;Node30</title>
<path fill="none" stroke="midnightblue" d="M1375.97,-360.726C1308.28,-353.682 1200.17,-340.731 1108,-322 1103.23,-321.03 1098.25,-319.87 1093.34,-318.634"/>
<polygon fill="midnightblue" stroke="midnightblue" points="1094,-315.19 1083.44,-316.029 1092.22,-321.959 1094,-315.19"/>
</g>
<!-- Node31&#45;&gt;Node2 -->
<g id="edge115" class="edge"><title>Node31&#45;&gt;Node2</title>
<path fill="none" stroke="midnightblue" d="M1059.31,-766.203C992.97,-758.094 855.538,-734.174 761,-669 715.66,-637.743 712.859,-611.855 708,-557 704.561,-518.178 691.238,-497.354 719,-470 750.891,-438.578 872.18,-429.03 951.007,-426.171"/>
<polygon fill="midnightblue" stroke="midnightblue" points="951.479,-429.657 961.356,-425.825 951.245,-422.661 951.479,-429.657"/>
</g>
<!-- Node31&#45;&gt;Node3 -->
<g id="edge73" class="edge"><title>Node31&#45;&gt;Node3</title>
<path fill="none" stroke="midnightblue" d="M1136.9,-761.838C1138.29,-761.554 1139.65,-761.274 1141,-761 1472.64,-693.442 1557.88,-687.66 1888,-613 2018.33,-583.525 2085.9,-607.188 2167,-501 2238.83,-406.952 2265.61,-315.645 2179,-235 2148.37,-206.484 2129.89,-216.764 2092,-199 2074.72,-190.898 2071.93,-185.531 2054,-179 2009.15,-162.664 1956.56,-151.326 1915.62,-144.116"/>
<polygon fill="midnightblue" stroke="midnightblue" points="1916.19,-140.663 1905.74,-142.416 1915,-147.561 1916.19,-140.663"/>
</g>
<!-- Node31&#45;&gt;Node9 -->
<g id="edge130" class="edge"><title>Node31&#45;&gt;Node9</title>
<path fill="none" stroke="midnightblue" d="M1059.28,-765.132C1006.11,-758.102 907.659,-743.856 825,-725 673.585,-690.459 608.403,-718.031 494,-613 428.406,-552.78 424.555,-520.64 404,-434 365.269,-270.747 461.658,-183.898 618,-123 721.832,-82.5556 854.438,-74.0942 922.415,-72.5816"/>
<polygon fill="midnightblue" stroke="midnightblue" points="922.82,-76.0749 932.755,-72.3946 922.694,-69.076 922.82,-76.0749"/>
</g>
<!-- Node31&#45;&gt;Node10 -->
<g id="edge127" class="edge"><title>Node31&#45;&gt;Node10</title>
<path fill="none" stroke="midnightblue" d="M1059.37,-768.887C923.674,-764.783 473.752,-749.451 414,-725 348.263,-698.1 220.742,-562.951 186,-501 141.117,-420.966 114,-399.261 114,-307.5 114,-307.5 114,-307.5 114,-188 114,-133.333 295.012,-92.7515 370.028,-78.2807"/>
<polygon fill="midnightblue" stroke="midnightblue" points="370.706,-81.7145 379.879,-76.4133 369.402,-74.837 370.706,-81.7145"/>
</g>
<!-- Node31&#45;&gt;Node27 -->
<g id="edge129" class="edge"><title>Node31&#45;&gt;Node27</title>
<path fill="none" stroke="midnightblue" d="M1059.09,-768.86C926.658,-764.771 498.457,-749.752 442,-725 424.346,-717.26 190,-505.776 190,-486.5 190,-486.5 190,-486.5 190,-367 190,-329.838 177.719,-287.764 169.722,-264.308"/>
<polygon fill="midnightblue" stroke="midnightblue" points="172.943,-262.919 166.311,-254.657 166.344,-265.252 172.943,-262.919"/>
</g>
<!-- Node32 -->
<g id="node32" class="node"><title>Node32</title>
<g id="a_node32"><a xlink:href="node_8h.html" target="_top" xlink:title="Definitions and helper macros for IR/AST nodes. ">
<polygon fill="white" stroke="black" points="1456,-593.5 1456,-612.5 1554,-612.5 1554,-593.5 1456,-593.5"/>
<text text-anchor="middle" x="1505" y="-600.5" font-family="Helvetica,sans-Serif" font-size="10.00">tvm/node/node.h</text>
</a>
</g>
</g>
<!-- Node31&#45;&gt;Node32 -->
<g id="edge74" class="edge"><title>Node31&#45;&gt;Node32</title>
<path fill="none" stroke="midnightblue" d="M1119.03,-761.425C1186.15,-734.047 1395.52,-648.654 1474.46,-616.454"/>
<polygon fill="midnightblue" stroke="midnightblue" points="1475.92,-619.641 1483.86,-612.624 1473.28,-613.159 1475.92,-619.641"/>
</g>
<!-- Node39 -->
<g id="node39" class="node"><title>Node39</title>
<g id="a_node39"><a xlink:href="span_8h.html" target="_top" xlink:title="Span information for debugging purposes. ">
<polygon fill="white" stroke="black" points="1092,-649.5 1092,-668.5 1172,-668.5 1172,-649.5 1092,-649.5"/>
<text text-anchor="middle" x="1132" y="-656.5" font-family="Helvetica,sans-Serif" font-size="10.00">tvm/ir/span.h</text>
</a>
</g>
</g>
<!-- Node31&#45;&gt;Node39 -->
<g id="edge116" class="edge"><title>Node31&#45;&gt;Node39</title>
<path fill="none" stroke="midnightblue" d="M1100.67,-761.368C1106.18,-743.537 1118.93,-702.295 1126.35,-678.272"/>
<polygon fill="midnightblue" stroke="midnightblue" points="1129.74,-679.179 1129.34,-668.591 1123.05,-677.112 1129.74,-679.179"/>
</g>
<!-- Node40 -->
<g id="node40" class="node"><title>Node40</title>
<g id="a_node40"><a xlink:href="ir_2type_8h.html" target="_top" xlink:title="IR/AST nodes for the unified type system in TVM. ">
<polygon fill="white" stroke="black" points="1025.5,-705.5 1025.5,-724.5 1102.5,-724.5 1102.5,-705.5 1025.5,-705.5"/>
<text text-anchor="middle" x="1064" y="-712.5" font-family="Helvetica,sans-Serif" font-size="10.00">tvm/ir/type.h</text>
</a>
</g>
</g>
<!-- Node31&#45;&gt;Node40 -->
<g id="edge120" class="edge"><title>Node31&#45;&gt;Node40</title>
<path fill="none" stroke="midnightblue" d="M1092.39,-761.083C1087.63,-753.534 1080.68,-742.495 1074.85,-733.23"/>
<polygon fill="midnightblue" stroke="midnightblue" points="1077.8,-731.349 1069.51,-724.751 1071.88,-735.078 1077.8,-731.349"/>
</g>
<!-- Node41 -->
<g id="node41" class="node"><title>Node41</title>
<polygon fill="white" stroke="#bfbfbf" points="1741,-705.5 1741,-724.5 1803,-724.5 1803,-705.5 1741,-705.5"/>
<text text-anchor="middle" x="1772" y="-712.5" font-family="Helvetica,sans-Serif" font-size="10.00">algorithm</text>
</g>
<!-- Node31&#45;&gt;Node41 -->
<g id="edge128" class="edge"><title>Node31&#45;&gt;Node41</title>
<path fill="none" stroke="midnightblue" d="M1136.66,-766.903C1254.62,-757.452 1609.28,-729.037 1730.7,-719.309"/>
<polygon fill="midnightblue" stroke="midnightblue" points="1731.02,-722.795 1740.71,-718.507 1730.46,-715.817 1731.02,-722.795"/>
</g>
<!-- Node32&#45;&gt;Node2 -->
<g id="edge108" class="edge"><title>Node32&#45;&gt;Node2</title>
<path fill="none" stroke="midnightblue" d="M1497.95,-593.463C1486.02,-579.567 1460.45,-552.093 1433,-537 1322.06,-475.995 1175.75,-446.537 1090.66,-433.687"/>
<polygon fill="midnightblue" stroke="midnightblue" points="1090.99,-430.199 1080.59,-432.201 1089.97,-437.124 1090.99,-430.199"/>
</g>
<!-- Node32&#45;&gt;Node3 -->
<g id="edge77" class="edge"><title>Node32&#45;&gt;Node3</title>
<path fill="none" stroke="midnightblue" d="M1554.19,-593.871C1592.95,-586.618 1647.94,-574.433 1694,-557 1785.31,-522.439 1810.57,-506.456 1876,-434 1943.3,-359.474 2011.9,-331.17 1983,-235 1974.41,-206.431 1968.69,-198.372 1946,-179 1928.68,-164.212 1905.71,-153.369 1886.25,-146.036"/>
<polygon fill="midnightblue" stroke="midnightblue" points="1887.32,-142.705 1876.73,-142.619 1884.96,-149.293 1887.32,-142.705"/>
</g>
<!-- Node32&#45;&gt;Node5 -->
<g id="edge75" class="edge"><title>Node32&#45;&gt;Node5</title>
<path fill="none" stroke="midnightblue" d="M1554.2,-595.839C1609.15,-588.507 1700.56,-574.962 1778,-557 2149.84,-470.758 2367.74,-570.902 2582,-255 2618.93,-200.546 2554.49,-128.726 2516.63,-93.6329"/>
<polygon fill="midnightblue" stroke="midnightblue" points="2518.76,-90.8415 2509,-86.7214 2514.06,-96.0292 2518.76,-90.8415"/>
</g>
<!-- Node32&#45;&gt;Node9 -->
<g id="edge114" class="edge"><title>Node32&#45;&gt;Node9</title>
<path fill="none" stroke="midnightblue" d="M1455.95,-598.668C1308.69,-588.174 872.529,-553.365 741,-501 621.63,-453.476 563.693,-440.483 514,-322 471.877,-221.564 561.254,-174.908 657,-123 702.154,-98.52 848.729,-82.7216 923.001,-76.0842"/>
<polygon fill="midnightblue" stroke="midnightblue" points="923.328,-79.5691 932.984,-75.2085 922.716,-72.5959 923.328,-79.5691"/>
</g>
<!-- Node32&#45;&gt;Node10 -->
<g id="edge111" class="edge"><title>Node32&#45;&gt;Node10</title>
<path fill="none" stroke="midnightblue" d="M1455.91,-601.976C1255.05,-600.866 498.326,-586.471 328,-434 275.736,-387.215 234.538,-180.992 274,-123 295.279,-91.7291 339.2,-79.822 369.615,-75.288"/>
<polygon fill="midnightblue" stroke="midnightblue" points="370.285,-78.7305 379.751,-73.9721 369.383,-71.7888 370.285,-78.7305"/>
</g>
<!-- Node32&#45;&gt;Node11 -->
<g id="edge113" class="edge"><title>Node32&#45;&gt;Node11</title>
<path fill="none" stroke="midnightblue" d="M1554.3,-595.613C1601.04,-588.778 1672.86,-576.246 1733,-557 1888.16,-507.345 2299.82,-382.684 2401,-255 2438.19,-208.067 2424.39,-155.348 2374,-123 2329.7,-94.5631 2172.5,-79.7929 2105.08,-74.6475"/>
<polygon fill="midnightblue" stroke="midnightblue" points="2105.29,-71.1538 2095.06,-73.9038 2104.77,-78.1346 2105.29,-71.1538"/>
</g>
<!-- Node32&#45;&gt;Node13 -->
<g id="edge78" class="edge"><title>Node32&#45;&gt;Node13</title>
<path fill="none" stroke="midnightblue" d="M1554.08,-594.428C1586.57,-587.918 1629.25,-576.413 1663,-557 1823.77,-464.515 1897.87,-432.698 1951,-255 1953.55,-246.484 1956.53,-241.963 1951,-235 1936.02,-216.13 1879.68,-204.439 1831.71,-197.72"/>
<polygon fill="midnightblue" stroke="midnightblue" points="1831.99,-194.227 1821.62,-196.36 1831.06,-201.164 1831.99,-194.227"/>
</g>
<!-- Node32&#45;&gt;Node19 -->
<g id="edge112" class="edge"><title>Node32&#45;&gt;Node19</title>
<path fill="none" stroke="midnightblue" d="M1554.03,-597.187C1583.2,-591.856 1618.9,-580.63 1642,-557 1660.18,-538.401 1655.18,-526.729 1659,-501 1676.58,-382.541 1670.12,-341.833 1616,-235 1610.47,-224.09 1601.64,-213.753 1593.68,-205.744"/>
<polygon fill="midnightblue" stroke="midnightblue" points="1595.82,-202.946 1586.17,-198.576 1590.99,-208.011 1595.82,-202.946"/>
</g>
<!-- Node32&#45;&gt;Node28 -->
<g id="edge76" class="edge"><title>Node32&#45;&gt;Node28</title>
<path fill="none" stroke="midnightblue" d="M1554.03,-595.108C1577.22,-589.117 1602.86,-577.92 1617,-557 1641.48,-520.786 1701.96,-535.913 1588,-414 1569.85,-394.585 1543.54,-383.474 1518.24,-377.141"/>
<polygon fill="midnightblue" stroke="midnightblue" points="1518.77,-373.672 1508.24,-374.864 1517.22,-380.497 1518.77,-373.672"/>
</g>
<!-- Node33 -->
<g id="node33" class="node"><title>Node33</title>
<g id="a_node33"><a xlink:href="reflection_8h.html" target="_top" xlink:title="Reflection and serialization of compiler IR/AST nodes. ">
<polygon fill="white" stroke="black" points="1489.5,-537.5 1489.5,-556.5 1608.5,-556.5 1608.5,-537.5 1489.5,-537.5"/>
<text text-anchor="middle" x="1549" y="-544.5" font-family="Helvetica,sans-Serif" font-size="10.00">tvm/node/reflection.h</text>
</a>
</g>
</g>
<!-- Node32&#45;&gt;Node33 -->
<g id="edge79" class="edge"><title>Node32&#45;&gt;Node33</title>
<path fill="none" stroke="midnightblue" d="M1512.27,-593.083C1518.54,-585.377 1527.79,-574.033 1535.43,-564.653"/>
<polygon fill="midnightblue" stroke="midnightblue" points="1538.27,-566.714 1541.87,-556.751 1532.84,-562.293 1538.27,-566.714"/>
</g>
<!-- Node34 -->
<g id="node34" class="node"><title>Node34</title>
<g id="a_node34"><a xlink:href="structural__equal_8h.html" target="_top" xlink:title="Structural equality comparison. ">
<polygon fill="white" stroke="black" points="904.5,-470.5 904.5,-500.5 1015.5,-500.5 1015.5,-470.5 904.5,-470.5"/>
<text text-anchor="start" x="912.5" y="-488.5" font-family="Helvetica,sans-Serif" font-size="10.00">tvm/node/structural</text>
<text text-anchor="middle" x="960" y="-477.5" font-family="Helvetica,sans-Serif" font-size="10.00">_equal.h</text>
</a>
</g>
</g>
<!-- Node32&#45;&gt;Node34 -->
<g id="edge109" class="edge"><title>Node32&#45;&gt;Node34</title>
<path fill="none" stroke="midnightblue" d="M1482.24,-593.433C1460.48,-584.988 1426.94,-571.304 1399,-557 1383.73,-549.185 1382.25,-542.489 1366,-537 1223.71,-488.93 1178.38,-524.259 1030,-501 1028.54,-500.772 1027.07,-500.533 1025.59,-500.287"/>
<polygon fill="midnightblue" stroke="midnightblue" points="1026.15,-496.831 1015.69,-498.547 1024.94,-503.726 1026.15,-496.831"/>
</g>
<!-- Node36 -->
<g id="node36" class="node"><title>Node36</title>
<g id="a_node36"><a xlink:href="structural__hash_8h.html" target="_top" xlink:title="tvm/node/structural\l_hash.h">
<polygon fill="white" stroke="black" points="1072.5,-470.5 1072.5,-500.5 1183.5,-500.5 1183.5,-470.5 1072.5,-470.5"/>
<text text-anchor="start" x="1080.5" y="-488.5" font-family="Helvetica,sans-Serif" font-size="10.00">tvm/node/structural</text>
<text text-anchor="middle" x="1128" y="-477.5" font-family="Helvetica,sans-Serif" font-size="10.00">_hash.h</text>
</a>
</g>
</g>
<!-- Node32&#45;&gt;Node36 -->
<g id="edge110" class="edge"><title>Node32&#45;&gt;Node36</title>
<path fill="none" stroke="midnightblue" d="M1493.96,-593.311C1475.45,-579.195 1436.48,-551.413 1399,-537 1331.72,-511.124 1249.79,-498.215 1193.75,-491.972"/>
<polygon fill="midnightblue" stroke="midnightblue" points="1193.91,-488.47 1183.59,-490.882 1193.16,-495.43 1193.91,-488.47"/>
</g>
<!-- Node37 -->
<g id="node37" class="node"><title>Node37</title>
<g id="a_node37"><a xlink:href="repr__printer_8h.html" target="_top" xlink:title="Printer class to print repr string of each AST/IR nodes. ">
<polygon fill="white" stroke="black" points="1227,-537.5 1227,-556.5 1357,-556.5 1357,-537.5 1227,-537.5"/>
<text text-anchor="middle" x="1292" y="-544.5" font-family="Helvetica,sans-Serif" font-size="10.00">tvm/node/repr_printer.h</text>
</a>
</g>
</g>
<!-- Node32&#45;&gt;Node37 -->
<g id="edge105" class="edge"><title>Node32&#45;&gt;Node37</title>
<path fill="none" stroke="midnightblue" d="M1471.25,-593.444C1434.48,-584.122 1375.55,-569.183 1335.38,-558.997"/>
<polygon fill="midnightblue" stroke="midnightblue" points="1336.15,-555.581 1325.59,-556.516 1334.43,-562.367 1336.15,-555.581"/>
</g>
<!-- Node33&#45;&gt;Node3 -->
<g id="edge81" class="edge"><title>Node33&#45;&gt;Node3</title>
<path fill="none" stroke="midnightblue" d="M1580.03,-537.448C1665.29,-511.935 1901.16,-427.206 1967,-255 1970.17,-246.697 1970.75,-243.059 1967,-235 1947.92,-194.011 1903.12,-163.706 1873.98,-147.468"/>
<polygon fill="midnightblue" stroke="midnightblue" points="1875.58,-144.357 1865.12,-142.694 1872.26,-150.519 1875.58,-144.357"/>
</g>
<!-- Node33&#45;&gt;Node5 -->
<g id="edge80" class="edge"><title>Node33&#45;&gt;Node5</title>
<path fill="none" stroke="midnightblue" d="M1608.74,-539.936C1663.44,-533.445 1746.25,-521.247 1816,-501 2086.87,-422.371 2164.23,-408.271 2401,-255 2453.91,-220.748 2472.22,-204.025 2488,-143 2491.9,-127.922 2492.91,-110.447 2492.94,-96.6677"/>
<polygon fill="midnightblue" stroke="midnightblue" points="2496.44,-96.4734 2492.8,-86.5255 2489.44,-96.5755 2496.44,-96.4734"/>
</g>
<!-- Node33&#45;&gt;Node9 -->
<g id="edge104" class="edge"><title>Node33&#45;&gt;Node9</title>
<path fill="none" stroke="midnightblue" d="M1489.34,-542.785C1333.2,-534.252 922.696,-511.006 895,-501 872.842,-492.995 871.171,-483.694 852,-470 794.402,-428.858 775.476,-424.374 722,-378 696.111,-355.549 691.998,-347.405 669,-322 642.568,-292.801 624.755,-291.905 611,-255 561.528,-122.263 816.857,-85.1906 922.712,-75.6032"/>
<polygon fill="midnightblue" stroke="midnightblue" points="923.111,-79.0818 932.773,-74.7343 922.509,-72.1078 923.111,-79.0818"/>
</g>
<!-- Node33&#45;&gt;Node10 -->
<g id="edge103" class="edge"><title>Node33&#45;&gt;Node10</title>
<path fill="none" stroke="midnightblue" d="M1489.22,-542.667C1323.01,-533.331 866.595,-507.203 852,-501 833.18,-493.001 835.456,-480.652 818,-470 718.003,-408.978 669.842,-440.875 571,-378 541.035,-358.939 537.085,-348.987 514,-322 450.759,-248.07 416.574,-235.998 388,-143 382.632,-125.531 387.988,-104.976 393.555,-90.5835"/>
<polygon fill="midnightblue" stroke="midnightblue" points="396.799,-91.8968 397.495,-81.3248 390.358,-89.1557 396.799,-91.8968"/>
</g>
<!-- Node33&#45;&gt;Node13 -->
<g id="edge82" class="edge"><title>Node33&#45;&gt;Node13</title>
<path fill="none" stroke="midnightblue" d="M1563.58,-537.434C1628.78,-498.8 1892.19,-339.011 1934,-255 1956.14,-210.504 1889.36,-195.958 1831.8,-191.468"/>
<polygon fill="midnightblue" stroke="midnightblue" points="1831.76,-187.958 1821.55,-190.764 1831.28,-194.941 1831.76,-187.958"/>
</g>
<!-- Node33&#45;&gt;Node15 -->
<g id="edge83" class="edge"><title>Node33&#45;&gt;Node15</title>
<path fill="none" stroke="midnightblue" d="M1538.26,-537.229C1496.4,-503.036 1343.46,-378.118 1282.41,-328.257"/>
<polygon fill="midnightblue" stroke="midnightblue" points="1284.39,-325.352 1274.43,-321.737 1279.96,-330.773 1284.39,-325.352"/>
</g>
<!-- Node33&#45;&gt;Node19 -->
<g id="edge102" class="edge"><title>Node33&#45;&gt;Node19</title>
<path fill="none" stroke="midnightblue" d="M1552.86,-537.496C1563.63,-513.233 1593.9,-441.341 1604,-378 1609.72,-342.154 1627.17,-342.374 1599,-235 1596.47,-225.346 1591.64,-215.387 1587.07,-207.3"/>
<polygon fill="midnightblue" stroke="midnightblue" points="1589.93,-205.272 1581.77,-198.51 1583.93,-208.882 1589.93,-205.272"/>
</g>
<!-- Node33&#45;&gt;Node21 -->
<g id="edge84" class="edge"><title>Node33&#45;&gt;Node21</title>
<path fill="none" stroke="midnightblue" d="M1608.64,-540.541C1655.92,-534.748 1722.96,-523.223 1778,-501 1801.55,-491.492 1803.55,-481.871 1826,-470 1918.97,-420.842 1948.41,-421.839 2044,-378 2133.47,-336.97 2237.43,-283.722 2284.51,-259.3"/>
<polygon fill="midnightblue" stroke="midnightblue" points="2286.41,-262.258 2293.67,-254.541 2283.18,-256.047 2286.41,-262.258"/>
</g>
<!-- Node33&#45;&gt;Node24 -->
<g id="edge85" class="edge"><title>Node33&#45;&gt;Node24</title>
<path fill="none" stroke="midnightblue" d="M1489.17,-542.381C1367.97,-534.772 1101.68,-516.536 1063,-501 1042.45,-492.747 1043.71,-480.085 1024,-470 971.389,-443.084 947.732,-462.568 896,-434 811.153,-387.145 732.455,-299.436 701.674,-262.777"/>
<polygon fill="midnightblue" stroke="midnightblue" points="703.983,-260.078 694.906,-254.613 698.594,-264.545 703.983,-260.078"/>
</g>
<!-- Node33&#45;&gt;Node34 -->
<g id="edge86" class="edge"><title>Node33&#45;&gt;Node34</title>
<path fill="none" stroke="midnightblue" d="M1489.05,-541.696C1372.06,-533.147 1117.14,-513.758 1030,-501 1028.54,-500.787 1027.07,-500.562 1025.58,-500.327"/>
<polygon fill="midnightblue" stroke="midnightblue" points="1026.12,-496.868 1015.68,-498.65 1024.95,-503.77 1026.12,-496.868"/>
</g>
<!-- Node33&#45;&gt;Node36 -->
<g id="edge96" class="edge"><title>Node33&#45;&gt;Node36</title>
<path fill="none" stroke="midnightblue" d="M1489.13,-537.538C1410.97,-526.493 1274.64,-507.225 1193.71,-495.787"/>
<polygon fill="midnightblue" stroke="midnightblue" points="1194.03,-492.297 1183.64,-494.363 1193.05,-499.228 1194.03,-492.297"/>
</g>
<!-- Node34&#45;&gt;Node2 -->
<g id="edge94" class="edge"><title>Node34&#45;&gt;Node2</title>
<path fill="none" stroke="midnightblue" d="M974.456,-470.399C983.594,-461.486 995.419,-449.952 1004.86,-440.741"/>
<polygon fill="midnightblue" stroke="midnightblue" points="1007.41,-443.146 1012.12,-433.658 1002.52,-438.135 1007.41,-443.146"/>
</g>
<!-- Node34&#45;&gt;Node10 -->
<g id="edge95" class="edge"><title>Node34&#45;&gt;Node10</title>
<path fill="none" stroke="midnightblue" d="M904.176,-476.724C825.764,-465.507 690.268,-444.934 670,-434 521.787,-354.039 433.159,-152.432 408.855,-90.7286"/>
<polygon fill="midnightblue" stroke="midnightblue" points="412.038,-89.2548 405.174,-81.184 405.507,-91.7736 412.038,-89.2548"/>
</g>
<!-- Node34&#45;&gt;Node24 -->
<g id="edge87" class="edge"><title>Node34&#45;&gt;Node24</title>
<path fill="none" stroke="midnightblue" d="M904.25,-472.732C850.459,-460.954 775.636,-443.286 765,-434 738.171,-410.577 705.752,-307.112 693.26,-264.468"/>
<polygon fill="midnightblue" stroke="midnightblue" points="696.545,-263.229 690.406,-254.594 689.82,-265.173 696.545,-263.229"/>
</g>
<!-- Node35 -->
<g id="node35" class="node"><title>Node35</title>
<g id="a_node35"><a xlink:href="functor_8h.html" target="_top" xlink:title="Defines the Functor data structures. ">
<polygon fill="white" stroke="black" points="1818.5,-235.5 1818.5,-254.5 1925.5,-254.5 1925.5,-235.5 1818.5,-235.5"/>
<text text-anchor="middle" x="1872" y="-242.5" font-family="Helvetica,sans-Serif" font-size="10.00">tvm/node/functor.h</text>
</a>
</g>
</g>
<!-- Node34&#45;&gt;Node35 -->
<g id="edge88" class="edge"><title>Node34&#45;&gt;Node35</title>
<path fill="none" stroke="midnightblue" d="M1015.68,-476.467C1161.81,-455.219 1548.81,-397.819 1604,-378 1676.53,-351.955 1684.44,-324.172 1754,-291 1780.84,-278.201 1812.36,-266.333 1836.07,-258.002"/>
<polygon fill="midnightblue" stroke="midnightblue" points="1837.41,-261.24 1845.72,-254.656 1835.12,-254.627 1837.41,-261.24"/>
</g>
<!-- Node35&#45;&gt;Node3 -->
<g id="edge90" class="edge"><title>Node35&#45;&gt;Node3</title>
<path fill="none" stroke="midnightblue" d="M1870.04,-235.368C1866,-217.617 1856.7,-176.666 1851.23,-152.597"/>
<polygon fill="midnightblue" stroke="midnightblue" points="1854.58,-151.567 1848.95,-142.591 1847.76,-153.118 1854.58,-151.567"/>
</g>
<!-- Node35&#45;&gt;Node4 -->
<g id="edge89" class="edge"><title>Node35&#45;&gt;Node4</title>
<path fill="none" stroke="midnightblue" d="M1825.15,-235.425C1786.87,-227.779 1731.66,-215.283 1685,-199 1665.1,-192.056 1661.54,-186.899 1642,-179 1546.05,-140.216 1429.97,-102.483 1371.51,-84.1003"/>
<polygon fill="midnightblue" stroke="midnightblue" points="1372.55,-80.7576 1361.96,-81.1078 1370.46,-87.4375 1372.55,-80.7576"/>
</g>
<!-- Node35&#45;&gt;Node9 -->
<g id="edge92" class="edge"><title>Node35&#45;&gt;Node9</title>
<path fill="none" stroke="midnightblue" d="M1818.41,-235.665C1760.91,-226.341 1673.58,-210.975 1642,-199 1625.61,-192.784 1624.48,-184.982 1608,-179 1496.74,-138.614 1137.16,-92.8761 1011.14,-77.6979"/>
<polygon fill="midnightblue" stroke="midnightblue" points="1011.42,-74.2066 1001.07,-76.491 1010.58,-81.1568 1011.42,-74.2066"/>
</g>
<!-- Node35&#45;&gt;Node11 -->
<g id="edge93" class="edge"><title>Node35&#45;&gt;Node11</title>
<path fill="none" stroke="midnightblue" d="M1882.02,-235.495C1914.12,-208.236 2014.77,-122.783 2056.06,-87.7316"/>
<polygon fill="midnightblue" stroke="midnightblue" points="2058.56,-90.1963 2063.92,-81.056 2054.03,-84.8601 2058.56,-90.1963"/>
</g>
<!-- Node35&#45;&gt;Node19 -->
<g id="edge91" class="edge"><title>Node35&#45;&gt;Node19</title>
<path fill="none" stroke="midnightblue" d="M1818.46,-235.621C1766.15,-227.21 1684.37,-213.457 1614,-199 1612.55,-198.702 1611.07,-198.388 1609.57,-198.065"/>
<polygon fill="midnightblue" stroke="midnightblue" points="1610.19,-194.618 1599.67,-195.837 1608.66,-201.447 1610.19,-194.618"/>
</g>
<!-- Node36&#45;&gt;Node2 -->
<g id="edge99" class="edge"><title>Node36&#45;&gt;Node2</title>
<path fill="none" stroke="midnightblue" d="M1102.64,-470.399C1085.33,-460.773 1062.52,-448.09 1045.42,-438.577"/>
<polygon fill="midnightblue" stroke="midnightblue" points="1047.01,-435.459 1036.57,-433.658 1043.61,-441.577 1047.01,-435.459"/>
</g>
<!-- Node36&#45;&gt;Node10 -->
<g id="edge100" class="edge"><title>Node36&#45;&gt;Node10</title>
<path fill="none" stroke="midnightblue" d="M1072.5,-476.59C1024.78,-468.812 954.587,-455.019 896,-434 747.334,-380.664 713.333,-352.404 589,-255 518.88,-200.067 446.31,-122.033 416.302,-88.656"/>
<polygon fill="midnightblue" stroke="midnightblue" points="418.89,-86.2992 409.617,-81.1735 413.67,-90.9628 418.89,-86.2992"/>
</g>
<!-- Node36&#45;&gt;Node24 -->
<g id="edge97" class="edge"><title>Node36&#45;&gt;Node24</title>
<path fill="none" stroke="midnightblue" d="M1072.41,-471.704C1018.66,-459.096 943.545,-440.77 931,-434 847.939,-389.177 851.338,-345.102 774,-291 756.225,-278.565 734.579,-267.257 717.451,-259.087"/>
<polygon fill="midnightblue" stroke="midnightblue" points="718.493,-255.711 707.951,-254.654 715.533,-262.055 718.493,-255.711"/>
</g>
<!-- Node36&#45;&gt;Node25 -->
<g id="edge101" class="edge"><title>Node36&#45;&gt;Node25</title>
<path fill="none" stroke="midnightblue" d="M1072.12,-471.144C1024.06,-459.224 961.068,-442.395 952,-434 901.972,-387.684 887.524,-302.278 883.494,-264.642"/>
<polygon fill="midnightblue" stroke="midnightblue" points="886.97,-264.221 882.55,-254.592 880,-264.876 886.97,-264.221"/>
</g>
<!-- Node36&#45;&gt;Node35 -->
<g id="edge98" class="edge"><title>Node36&#45;&gt;Node35</title>
<path fill="none" stroke="midnightblue" d="M1183.82,-483.76C1265.75,-481.354 1422.65,-471.706 1550,-434 1604.13,-417.974 1614.76,-405.609 1664,-378 1734.5,-338.469 1814.26,-285.367 1851.19,-260.274"/>
<polygon fill="midnightblue" stroke="midnightblue" points="1853.34,-263.049 1859.63,-254.523 1849.4,-257.265 1853.34,-263.049"/>
</g>
<!-- Node37&#45;&gt;Node35 -->
<g id="edge106" class="edge"><title>Node37&#45;&gt;Node35</title>
<path fill="none" stroke="midnightblue" d="M1323.45,-537.42C1406.7,-513.625 1637.22,-440.627 1795,-322 1819.04,-303.93 1843.12,-278.738 1857.8,-262.399"/>
<polygon fill="midnightblue" stroke="midnightblue" points="1860.56,-264.557 1864.56,-254.746 1855.32,-259.92 1860.56,-264.557"/>
</g>
<!-- Node38 -->
<g id="node38" class="node"><title>Node38</title>
<polygon fill="white" stroke="#bfbfbf" points="750.5,-476 750.5,-495 809.5,-495 809.5,-476 750.5,-476"/>
<text text-anchor="middle" x="780" y="-483" font-family="Helvetica,sans-Serif" font-size="10.00">iostream</text>
</g>
<!-- Node37&#45;&gt;Node38 -->
<g id="edge107" class="edge"><title>Node37&#45;&gt;Node38</title>
<path fill="none" stroke="midnightblue" d="M1226.97,-544.305C1135.95,-540.904 965.788,-530.791 824,-501 820.126,-500.186 816.115,-499.149 812.163,-498.005"/>
<polygon fill="midnightblue" stroke="midnightblue" points="813.162,-494.65 802.573,-495.006 811.073,-501.331 813.162,-494.65"/>
</g>
<!-- Node39&#45;&gt;Node3 -->
<g id="edge117" class="edge"><title>Node39&#45;&gt;Node3</title>
<path fill="none" stroke="midnightblue" d="M1172.27,-656.254C1344.03,-648.472 2009.93,-614.76 2082,-557 2196.74,-465.045 2241.33,-356.15 2158,-235 2132.65,-198.141 2105.54,-215.605 2064,-199 2042.54,-190.422 2037.88,-186.435 2016,-179 1975.88,-165.369 1929.27,-153.226 1895.18,-145"/>
<polygon fill="midnightblue" stroke="midnightblue" points="1895.56,-141.492 1885.02,-142.575 1893.94,-148.301 1895.56,-141.492"/>
</g>
<!-- Node39&#45;&gt;Node10 -->
<g id="edge119" class="edge"><title>Node39&#45;&gt;Node10</title>
<path fill="none" stroke="midnightblue" d="M1091.61,-655.875C956.36,-646.263 519.332,-594.389 366,-322 322.474,-244.678 370.472,-133.337 392.324,-90.3603"/>
<polygon fill="midnightblue" stroke="midnightblue" points="395.48,-91.8781 397.015,-81.395 389.278,-88.6328 395.48,-91.8781"/>
</g>
<!-- Node39&#45;&gt;Node32 -->
<g id="edge118" class="edge"><title>Node39&#45;&gt;Node32</title>
<path fill="none" stroke="midnightblue" d="M1172.27,-652.17C1238.17,-642.63 1369.32,-623.642 1445.82,-612.568"/>
<polygon fill="midnightblue" stroke="midnightblue" points="1446.38,-616.023 1455.78,-611.126 1445.38,-609.095 1446.38,-616.023"/>
</g>
<!-- Node40&#45;&gt;Node2 -->
<g id="edge124" class="edge"><title>Node40&#45;&gt;Node2</title>
<path fill="none" stroke="midnightblue" d="M1025.43,-709.87C935.991,-699.222 722,-667.15 722,-604 722,-604 722,-604 722,-546 722,-511.183 715.349,-493.543 741,-470 770.923,-442.536 878.579,-431.781 951.343,-427.605"/>
<polygon fill="midnightblue" stroke="midnightblue" points="951.572,-431.098 961.367,-427.058 951.191,-424.108 951.572,-431.098"/>
</g>
<!-- Node40&#45;&gt;Node3 -->
<g id="edge121" class="edge"><title>Node40&#45;&gt;Node3</title>
<path fill="none" stroke="midnightblue" d="M1102.59,-713.12C1223.65,-708.501 1601.97,-679.733 1839,-501 1949.34,-417.8 2032.7,-369.265 2000,-235 1993.37,-207.768 1992.06,-197.493 1971,-179 1952.34,-162.613 1927.23,-152.034 1904.49,-145.283"/>
<polygon fill="midnightblue" stroke="midnightblue" points="1905.15,-141.834 1894.58,-142.531 1903.28,-148.579 1905.15,-141.834"/>
</g>
<!-- Node40&#45;&gt;Node10 -->
<g id="edge126" class="edge"><title>Node40&#45;&gt;Node10</title>
<path fill="none" stroke="midnightblue" d="M1025.05,-713.579C896.326,-709.836 482.793,-678.52 308,-434 226.744,-320.33 174.742,-232.13 262,-123 288.095,-90.3641 337.089,-78.8087 369.638,-74.7238"/>
<polygon fill="midnightblue" stroke="midnightblue" points="370.423,-78.1594 379.989,-73.6052 369.671,-71.2 370.423,-78.1594"/>
</g>
<!-- Node40&#45;&gt;Node24 -->
<g id="edge122" class="edge"><title>Node40&#45;&gt;Node24</title>
<path fill="none" stroke="midnightblue" d="M1025.46,-711.858C954.214,-707.319 805.12,-694.952 761,-669 620.442,-586.323 666.836,-335.935 683.277,-264.945"/>
<polygon fill="midnightblue" stroke="midnightblue" points="686.778,-265.358 685.707,-254.817 679.971,-263.725 686.778,-265.358"/>
</g>
<!-- Node40&#45;&gt;Node32 -->
<g id="edge123" class="edge"><title>Node40&#45;&gt;Node32</title>
<path fill="none" stroke="midnightblue" d="M1063.72,-705.224C1063.79,-690.984 1066.22,-663.026 1083,-649 1110.24,-626.224 1335.77,-612.232 1445.49,-606.71"/>
<polygon fill="midnightblue" stroke="midnightblue" points="1445.92,-610.193 1455.74,-606.203 1445.57,-603.202 1445.92,-610.193"/>
</g>
<!-- Node40&#45;&gt;Node39 -->
<g id="edge125" class="edge"><title>Node40&#45;&gt;Node39</title>
<path fill="none" stroke="midnightblue" d="M1074.93,-705.324C1085.17,-697.185 1100.72,-684.839 1113,-675.087"/>
<polygon fill="midnightblue" stroke="midnightblue" points="1115.22,-677.794 1120.88,-668.834 1110.87,-672.312 1115.22,-677.794"/>
</g>
<!-- Node42&#45;&gt;Node2 -->
<g id="edge133" class="edge"><title>Node42&#45;&gt;Node2</title>
<path fill="none" stroke="midnightblue" d="M1021.76,-937.089C911.048,-934.209 603.829,-923.609 508,-893 461.676,-878.204 441.663,-876.995 414,-837 399.618,-816.207 406.231,-806.184 404,-781 387.189,-591.229 519.204,-532.999 699,-470 782.559,-440.721 884.611,-430.428 951.122,-426.846"/>
<polygon fill="midnightblue" stroke="midnightblue" points="951.671,-430.323 961.483,-426.327 951.32,-423.332 951.671,-430.323"/>
</g>
<!-- Node42&#45;&gt;Node5 -->
<g id="edge135" class="edge"><title>Node42&#45;&gt;Node5</title>
<path fill="none" stroke="midnightblue" d="M1102.05,-937.436C1351.51,-933.67 2682,-909.75 2682,-828 2682,-828 2682,-828 2682,-188 2682,-131.036 2618.87,-101.366 2565.39,-86.4516"/>
<polygon fill="midnightblue" stroke="midnightblue" points="2566.09,-83.018 2555.53,-83.8352 2564.3,-89.7837 2566.09,-83.018"/>
</g>
<!-- Node42&#45;&gt;Node10 -->
<g id="edge148" class="edge"><title>Node42&#45;&gt;Node10</title>
<path fill="none" stroke="midnightblue" d="M1021.99,-938.204C866.836,-938.664 304.936,-937.176 133,-893 69.2769,-876.627 0,-893.793 0,-828 0,-828 0,-828 0,-188 0,-148.382 25.8972,-141.368 61,-123 114.447,-95.0335 295.165,-79.7977 369.575,-74.5842"/>
<polygon fill="midnightblue" stroke="midnightblue" points="370.017,-78.0623 379.754,-73.8875 369.538,-71.0786 370.017,-78.0623"/>
</g>
<!-- Node42&#45;&gt;Node11 -->
<g id="edge153" class="edge"><title>Node42&#45;&gt;Node11</title>
<path fill="none" stroke="midnightblue" d="M1102.23,-937.326C1298.08,-933.676 2145.73,-913.528 2232,-837 2460.95,-633.904 2517.47,-473.726 2435,-179 2427.15,-150.96 2425.21,-139.18 2401,-123 2352.85,-90.8164 2177.66,-78.0012 2105.45,-74.0103"/>
<polygon fill="midnightblue" stroke="midnightblue" points="2105.34,-70.4999 2095.17,-73.464 2104.97,-77.49 2105.34,-70.4999"/>
</g>
<!-- Node42&#45;&gt;Node20 -->
<g id="edge150" class="edge"><title>Node42&#45;&gt;Node20</title>
<path fill="none" stroke="midnightblue" d="M1021.77,-936.961C872.162,-932.922 352.994,-917.276 283,-893 235.356,-876.475 190,-878.428 190,-828 190,-828 190,-828 190,-658 190,-579.929 228,-564.571 228,-486.5 228,-486.5 228,-486.5 228,-423 228,-314.895 590.054,-229.538 729.839,-200.611"/>
<polygon fill="midnightblue" stroke="midnightblue" points="730.814,-203.984 739.907,-198.546 729.408,-197.127 730.814,-203.984"/>
</g>
<!-- Node42&#45;&gt;Node24 -->
<g id="edge136" class="edge"><title>Node42&#45;&gt;Node24</title>
<path fill="none" stroke="midnightblue" d="M1021.97,-938.768C923.274,-939.866 660.815,-937.935 448,-893 363.96,-875.255 266,-913.893 266,-828 266,-828 266,-828 266,-770 266,-514.196 574.83,-312.58 664.102,-259.643"/>
<polygon fill="midnightblue" stroke="midnightblue" points="665.874,-262.662 672.731,-254.586 662.334,-256.623 665.874,-262.662"/>
</g>
<!-- Node42&#45;&gt;Node27 -->
<g id="edge152" class="edge"><title>Node42&#45;&gt;Node27</title>
<path fill="none" stroke="midnightblue" d="M1021.74,-937.7C858.814,-936.251 253.44,-928.504 176,-893 139.709,-876.361 114,-867.923 114,-828 114,-828 114,-828 114,-484.5 114,-400.655 143.416,-303.559 156.665,-264.081"/>
<polygon fill="midnightblue" stroke="midnightblue" points="160.006,-265.127 159.935,-254.533 153.383,-262.859 160.006,-265.127"/>
</g>
<!-- Node42&#45;&gt;Node31 -->
<g id="edge137" class="edge"><title>Node42&#45;&gt;Node31</title>
<path fill="none" stroke="midnightblue" d="M1097.85,-929.397C1116.88,-922.81 1138.63,-911.589 1150,-893 1171.66,-857.603 1136.47,-811.582 1114.16,-787.79"/>
<polygon fill="midnightblue" stroke="midnightblue" points="1116.66,-785.348 1107.18,-780.621 1111.65,-790.23 1116.66,-785.348"/>
</g>
<!-- Node42&#45;&gt;Node32 -->
<g id="edge132" class="edge"><title>Node42&#45;&gt;Node32</title>
<path fill="none" stroke="midnightblue" d="M1102.03,-932.066C1109.02,-931.038 1116.22,-929.984 1123,-929 1201.64,-917.59 1831,-907.463 1831,-828 1831,-828 1831,-828 1831,-714 1831,-658.313 1658.06,-625.391 1564.1,-611.614"/>
<polygon fill="midnightblue" stroke="midnightblue" points="1564.55,-608.143 1554.16,-610.184 1563.56,-615.072 1564.55,-608.143"/>
</g>
<!-- Node42&#45;&gt;Node35 -->
<g id="edge134" class="edge"><title>Node42&#45;&gt;Node35</title>
<path fill="none" stroke="midnightblue" d="M1102.2,-936.334C1306.49,-927.612 2220,-885.397 2220,-828 2220,-828 2220,-828 2220,-602 2220,-420.344 1985.43,-297.006 1901.46,-258.674"/>
<polygon fill="midnightblue" stroke="midnightblue" points="1902.77,-255.427 1892.21,-254.522 1899.9,-261.812 1902.77,-255.427"/>
</g>
<!-- Node42&#45;&gt;Node38 -->
<g id="edge151" class="edge"><title>Node42&#45;&gt;Node38</title>
<path fill="none" stroke="midnightblue" d="M1021.71,-935.403C880.728,-925.786 418,-889.533 418,-828 418,-828 418,-828 418,-770 418,-607.488 646.933,-524.16 740.684,-496.85"/>
<polygon fill="midnightblue" stroke="midnightblue" points="741.719,-500.194 750.376,-494.087 739.8,-493.463 741.719,-500.194"/>
</g>
<!-- Node42&#45;&gt;Node41 -->
<g id="edge149" class="edge"><title>Node42&#45;&gt;Node41</title>
<path fill="none" stroke="midnightblue" d="M1102.23,-930.251C1238.05,-903.848 1674.14,-817.051 1727,-781 1744.14,-769.313 1756.72,-748.772 1764.16,-733.904"/>
<polygon fill="midnightblue" stroke="midnightblue" points="1767.4,-735.236 1768.48,-724.696 1761.06,-732.264 1767.4,-735.236"/>
</g>
<!-- Node43 -->
<g id="node43" class="node"><title>Node43</title>
<g id="a_node43"><a xlink:href="var_8h.html" target="_top" xlink:title="Variables in the TIR. ">
<polygon fill="white" stroke="black" points="992,-817.5 992,-836.5 1066,-836.5 1066,-817.5 992,-817.5"/>
<text text-anchor="middle" x="1029" y="-824.5" font-family="Helvetica,sans-Serif" font-size="10.00">tvm/tir/var.h</text>
</a>
</g>
</g>
<!-- Node42&#45;&gt;Node43 -->
<g id="edge138" class="edge"><title>Node42&#45;&gt;Node43</title>
<path fill="none" stroke="midnightblue" d="M1058.43,-929.48C1054.76,-920.508 1049.01,-905.92 1045,-893 1040.2,-877.549 1035.89,-859.68 1032.95,-846.592"/>
<polygon fill="midnightblue" stroke="midnightblue" points="1036.3,-845.527 1030.75,-836.503 1029.46,-847.019 1036.3,-845.527"/>
</g>
<!-- Node44 -->
<g id="node44" class="node"><title>Node44</title>
<g id="a_node44"><a xlink:href="buffer_8h.html" target="_top" xlink:title="Symbolic n&#45;dimensional array, to represent a memory buffer. ">
<polygon fill="white" stroke="black" points="1054.5,-873.5 1054.5,-892.5 1141.5,-892.5 1141.5,-873.5 1054.5,-873.5"/>
<text text-anchor="middle" x="1098" y="-880.5" font-family="Helvetica,sans-Serif" font-size="10.00">tvm/tir/buffer.h</text>
</a>
</g>
</g>
<!-- Node42&#45;&gt;Node44 -->
<g id="edge143" class="edge"><title>Node42&#45;&gt;Node44</title>
<path fill="none" stroke="midnightblue" d="M1067.94,-929.083C1072.98,-921.534 1080.34,-910.495 1086.51,-901.23"/>
<polygon fill="midnightblue" stroke="midnightblue" points="1089.53,-903.013 1092.17,-892.751 1083.71,-899.13 1089.53,-903.013"/>
</g>
<!-- Node43&#45;&gt;Node10 -->
<g id="edge142" class="edge"><title>Node43&#45;&gt;Node10</title>
<path fill="none" stroke="midnightblue" d="M991.944,-826.047C908.059,-825.425 697.657,-819.764 527,-781 293.552,-727.973 76,-725.895 76,-486.5 76,-486.5 76,-486.5 76,-188 76,-143.553 112.045,-142.47 152,-123 224.499,-87.6717 320.383,-77.0509 369.679,-73.8631"/>
<polygon fill="midnightblue" stroke="midnightblue" points="369.971,-77.3521 379.75,-73.2746 369.563,-70.364 369.971,-77.3521"/>
</g>
<!-- Node43&#45;&gt;Node24 -->
<g id="edge140" class="edge"><title>Node43&#45;&gt;Node24</title>
<path fill="none" stroke="midnightblue" d="M991.805,-826.283C870.479,-826.219 494,-817.818 494,-716 494,-716 494,-716 494,-658 494,-489.12 629.07,-315.22 673.803,-262.258"/>
<polygon fill="midnightblue" stroke="midnightblue" points="676.55,-264.431 680.395,-254.559 671.232,-259.879 676.55,-264.431"/>
</g>
<!-- Node43&#45;&gt;Node31 -->
<g id="edge141" class="edge"><title>Node43&#45;&gt;Node31</title>
<path fill="none" stroke="midnightblue" d="M1040.09,-817.324C1050.49,-809.185 1066.26,-796.839 1078.72,-787.087"/>
<polygon fill="midnightblue" stroke="midnightblue" points="1080.99,-789.753 1086.71,-780.834 1076.68,-784.241 1080.99,-789.753"/>
</g>
<!-- Node43&#45;&gt;Node32 -->
<g id="edge139" class="edge"><title>Node43&#45;&gt;Node32</title>
<path fill="none" stroke="midnightblue" d="M1052.28,-817.453C1075.82,-808.696 1113.18,-794.49 1145,-781 1254.49,-734.584 1281.95,-722.803 1388,-669 1420.97,-652.276 1458.14,-631.237 1481.56,-617.704"/>
<polygon fill="midnightblue" stroke="midnightblue" points="1483.52,-620.614 1490.42,-612.568 1480.01,-614.559 1483.52,-620.614"/>
</g>
<!-- Node44&#45;&gt;Node2 -->
<g id="edge144" class="edge"><title>Node44&#45;&gt;Node2</title>
<path fill="none" stroke="midnightblue" d="M1141.74,-879.648C1282.24,-870.913 1713,-834.472 1713,-716 1713,-716 1713,-716 1713,-602 1713,-474.488 1266.42,-437.619 1090.77,-428.05"/>
<polygon fill="midnightblue" stroke="midnightblue" points="1090.77,-424.545 1080.6,-427.51 1090.4,-431.535 1090.77,-424.545"/>
</g>
<!-- Node44&#45;&gt;Node10 -->
<g id="edge147" class="edge"><title>Node44&#45;&gt;Node10</title>
<path fill="none" stroke="midnightblue" d="M1054.47,-880.141C855.006,-870.467 38,-817.795 38,-604 38,-604 38,-604 38,-188 38,-147.145 66.6933,-141.734 103,-123 191.562,-77.3029 312.639,-71.5746 369.72,-71.6917"/>
<polygon fill="midnightblue" stroke="midnightblue" points="369.904,-75.1933 379.933,-71.7781 369.963,-68.1935 369.904,-75.1933"/>
</g>
<!-- Node44&#45;&gt;Node31 -->
<g id="edge145" class="edge"><title>Node44&#45;&gt;Node31</title>
<path fill="none" stroke="midnightblue" d="M1098,-873.368C1098,-855.617 1098,-814.666 1098,-790.597"/>
<polygon fill="midnightblue" stroke="midnightblue" points="1101.5,-790.591 1098,-780.591 1094.5,-790.591 1101.5,-790.591"/>
</g>
<!-- Node44&#45;&gt;Node43 -->
<g id="edge146" class="edge"><title>Node44&#45;&gt;Node43</title>
<path fill="none" stroke="midnightblue" d="M1086.91,-873.324C1076.51,-865.185 1060.74,-852.839 1048.28,-843.087"/>
<polygon fill="midnightblue" stroke="midnightblue" points="1050.32,-840.241 1040.29,-836.834 1046.01,-845.753 1050.32,-840.241"/>
</g>
</g>
</svg>
