<?xml version="1.0" encoding="UTF-8" standalone="no"?>
<!DOCTYPE svg PUBLIC "-//W3C//DTD SVG 1.1//EN"
 "http://www.w3.org/Graphics/SVG/1.1/DTD/svg11.dtd">
<!-- Generated by graphviz version 2.38.0 (20140413.2041)
 -->
<!-- Title: include/tvm/runtime/registry.h Pages: 1 -->
<svg width="1359pt" height="397pt"
 viewBox="0.00 0.00 1359.00 397.00" xmlns="http://www.w3.org/2000/svg" xmlns:xlink="http://www.w3.org/1999/xlink">
<g id="graph0" class="graph" transform="scale(1 1) rotate(0) translate(4 393)">
<title>include/tvm/runtime/registry.h</title>
<polygon fill="white" stroke="none" points="-4,4 -4,-393 1355,-393 1355,4 -4,4"/>
<!-- Node1 -->
<g id="node1" class="node"><title>Node1</title>
<polygon fill="#bfbfbf" stroke="black" points="558.5,-358.5 558.5,-388.5 671.5,-388.5 671.5,-358.5 558.5,-358.5"/>
<text text-anchor="start" x="566.5" y="-376.5" font-family="Helvetica,sans-Serif" font-size="10.00">include/tvm/runtime</text>
<text text-anchor="middle" x="615" y="-365.5" font-family="Helvetica,sans-Serif" font-size="10.00">/registry.h</text>
</g>
<!-- Node2 -->
<g id="node2" class="node"><title>Node2</title>
<g id="a_node2"><a xlink:href="packed__func_8h.html" target="_top" xlink:title="Type&#45;erased function used across TVM API. ">
<polygon fill="white" stroke="black" points="879.5,-291.5 879.5,-321.5 992.5,-321.5 992.5,-291.5 879.5,-291.5"/>
<text text-anchor="start" x="887.5" y="-309.5" font-family="Helvetica,sans-Serif" font-size="10.00">tvm/runtime/packed</text>
<text text-anchor="middle" x="936" y="-298.5" font-family="Helvetica,sans-Serif" font-size="10.00">_func.h</text>
</a>
</g>
</g>
<!-- Node1&#45;&gt;Node2 -->
<g id="edge1" class="edge"><title>Node1&#45;&gt;Node2</title>
<path fill="none" stroke="midnightblue" d="M671.649,-361.029C726.946,-349.832 811.064,-332.799 869.504,-320.965"/>
<polygon fill="midnightblue" stroke="midnightblue" points="870.271,-324.381 879.378,-318.966 868.882,-317.52 870.271,-324.381"/>
</g>
<!-- Node12 -->
<g id="node12" class="node"><title>Node12</title>
<polygon fill="white" stroke="#bfbfbf" points="1067,-62 1067,-81 1111,-81 1111,-62 1067,-62"/>
<text text-anchor="middle" x="1089" y="-69" font-family="Helvetica,sans-Serif" font-size="10.00">string</text>
</g>
<!-- Node1&#45;&gt;Node12 -->
<g id="edge52" class="edge"><title>Node1&#45;&gt;Node12</title>
<path fill="none" stroke="midnightblue" d="M671.531,-368.75C843.874,-356.57 1351,-314.877 1351,-246 1351,-246 1351,-246 1351,-188 1351,-88.7065 1191.49,-74.0454 1121.39,-72.3966"/>
<polygon fill="midnightblue" stroke="midnightblue" points="1121.39,-68.8963 1111.34,-72.2359 1121.28,-75.8954 1121.39,-68.8963"/>
</g>
<!-- Node13 -->
<g id="node13" class="node"><title>Node13</title>
<polygon fill="white" stroke="#bfbfbf" points="55,-62 55,-81 97,-81 97,-62 55,-62"/>
<text text-anchor="middle" x="76" y="-69" font-family="Helvetica,sans-Serif" font-size="10.00">utility</text>
</g>
<!-- Node1&#45;&gt;Node13 -->
<g id="edge54" class="edge"><title>Node1&#45;&gt;Node13</title>
<path fill="none" stroke="midnightblue" d="M558.245,-372.783C405.996,-372.022 0,-359.366 0,-246 0,-246 0,-246 0,-188 0,-146.312 34.9778,-108.03 57.4751,-87.7185"/>
<polygon fill="midnightblue" stroke="midnightblue" points="59.8638,-90.2796 65.1111,-81.0755 55.2693,-84.9985 59.8638,-90.2796"/>
</g>
<!-- Node18 -->
<g id="node18" class="node"><title>Node18</title>
<polygon fill="white" stroke="#bfbfbf" points="404.5,-179.5 404.5,-198.5 451.5,-198.5 451.5,-179.5 404.5,-179.5"/>
<text text-anchor="middle" x="428" y="-186.5" font-family="Helvetica,sans-Serif" font-size="10.00">vector</text>
</g>
<!-- Node1&#45;&gt;Node18 -->
<g id="edge53" class="edge"><title>Node1&#45;&gt;Node18</title>
<path fill="none" stroke="midnightblue" d="M600.637,-358.483C566.447,-325.116 480.402,-241.141 444.321,-205.928"/>
<polygon fill="midnightblue" stroke="midnightblue" points="446.637,-203.298 437.036,-198.819 441.748,-208.308 446.637,-203.298"/>
</g>
<!-- Node3 -->
<g id="node3" class="node"><title>Node3</title>
<polygon fill="white" stroke="#bfbfbf" points="950,-62 950,-81 1036,-81 1036,-62 950,-62"/>
<text text-anchor="middle" x="993" y="-69" font-family="Helvetica,sans-Serif" font-size="10.00">dmlc/logging.h</text>
</g>
<!-- Node2&#45;&gt;Node3 -->
<g id="edge2" class="edge"><title>Node2&#45;&gt;Node3</title>
<path fill="none" stroke="midnightblue" d="M992.763,-305.026C1075.44,-302.994 1222.8,-293.856 1256,-255 1327.41,-171.432 1131.48,-108.054 1038.68,-83.5533"/>
<polygon fill="midnightblue" stroke="midnightblue" points="1039.53,-80.1564 1028.97,-81.0308 1037.77,-86.9317 1039.53,-80.1564"/>
</g>
<!-- Node4 -->
<g id="node4" class="node"><title>Node4</title>
<g id="a_node4"><a xlink:href="c__runtime__api_8h.html" target="_top" xlink:title="tvm/runtime/c_runtime\l_api.h">
<polygon fill="white" stroke="black" points="404.5,-56.5 404.5,-86.5 531.5,-86.5 531.5,-56.5 404.5,-56.5"/>
<text text-anchor="start" x="412.5" y="-74.5" font-family="Helvetica,sans-Serif" font-size="10.00">tvm/runtime/c_runtime</text>
<text text-anchor="middle" x="468" y="-63.5" font-family="Helvetica,sans-Serif" font-size="10.00">_api.h</text>
</a>
</g>
</g>
<!-- Node2&#45;&gt;Node4 -->
<g id="edge3" class="edge"><title>Node2&#45;&gt;Node4</title>
<path fill="none" stroke="midnightblue" d="M879.408,-303.447C752.787,-297.503 453.163,-275.481 395,-199 368.511,-164.169 410.912,-118.811 441.358,-92.9479"/>
<polygon fill="midnightblue" stroke="midnightblue" points="443.687,-95.5646 449.176,-86.503 439.234,-90.1632 443.687,-95.5646"/>
</g>
<!-- Node8 -->
<g id="node8" class="node"><title>Node8</title>
<g id="a_node8"><a xlink:href="runtime_2module_8h.html" target="_top" xlink:title="Runtime container of the functions generated by TVM, This is used to support dynamically link...">
<polygon fill="white" stroke="black" points="705,-235.5 705,-254.5 829,-254.5 829,-235.5 705,-235.5"/>
<text text-anchor="middle" x="767" y="-242.5" font-family="Helvetica,sans-Serif" font-size="10.00">tvm/runtime/module.h</text>
</a>
</g>
</g>
<!-- Node2&#45;&gt;Node8 -->
<g id="edge7" class="edge"><title>Node2&#45;&gt;Node8</title>
<path fill="none" stroke="midnightblue" d="M890.109,-291.399C860.208,-281.327 822.182,-267.909 796.286,-258.277"/>
<polygon fill="midnightblue" stroke="midnightblue" points="797.254,-254.902 786.662,-254.658 794.79,-261.454 797.254,-254.902"/>
</g>
<!-- Node10 -->
<g id="node10" class="node"><title>Node10</title>
<g id="a_node10"><a xlink:href="object_8h.html" target="_top" xlink:title="A managed object in the TVM runtime. ">
<polygon fill="white" stroke="black" points="751.5,-123.5 751.5,-142.5 868.5,-142.5 868.5,-123.5 751.5,-123.5"/>
<text text-anchor="middle" x="810" y="-130.5" font-family="Helvetica,sans-Serif" font-size="10.00">tvm/runtime/object.h</text>
</a>
</g>
</g>
<!-- Node2&#45;&gt;Node10 -->
<g id="edge43" class="edge"><title>Node2&#45;&gt;Node10</title>
<path fill="none" stroke="midnightblue" d="M942.364,-291.378C952.655,-266.18 969.46,-212.937 945,-179 934.942,-165.045 895.881,-152.957 862.346,-144.834"/>
<polygon fill="midnightblue" stroke="midnightblue" points="863.145,-141.426 852.609,-142.546 861.544,-148.241 863.145,-141.426"/>
</g>
<!-- Node11 -->
<g id="node11" class="node"><title>Node11</title>
<polygon fill="white" stroke="#bfbfbf" points="819,-62 819,-81 887,-81 887,-62 819,-62"/>
<text text-anchor="middle" x="853" y="-69" font-family="Helvetica,sans-Serif" font-size="10.00">type_traits</text>
</g>
<!-- Node2&#45;&gt;Node11 -->
<g id="edge51" class="edge"><title>Node2&#45;&gt;Node11</title>
<path fill="none" stroke="midnightblue" d="M948.988,-291.253C956.743,-281.747 965.865,-268.546 970,-255 975.489,-237.02 970.509,-190.447 964,-179 950.819,-155.819 935.647,-161.03 916,-143 897.398,-125.929 878.407,-103.921 866.209,-89.0717"/>
<polygon fill="midnightblue" stroke="midnightblue" points="868.882,-86.8116 859.866,-81.2471 863.444,-91.2195 868.882,-86.8116"/>
</g>
<!-- Node2&#45;&gt;Node12 -->
<g id="edge47" class="edge"><title>Node2&#45;&gt;Node12</title>
<path fill="none" stroke="midnightblue" d="M992.692,-305.634C1079.75,-304.496 1240.1,-296.632 1276,-255 1283.93,-245.8 1293.25,-214.165 1274,-179 1242.29,-121.065 1165.08,-92.1805 1121.08,-79.9761"/>
<polygon fill="midnightblue" stroke="midnightblue" points="1121.74,-76.531 1111.18,-77.3562 1119.95,-83.298 1121.74,-76.531"/>
</g>
<!-- Node2&#45;&gt;Node13 -->
<g id="edge50" class="edge"><title>Node2&#45;&gt;Node13</title>
<path fill="none" stroke="midnightblue" d="M879.287,-304.303C708.164,-300.36 204.627,-286.209 138,-255 85.4723,-230.396 78.0872,-200.57 71,-143 68.847,-125.511 70.683,-105.458 72.7101,-91.2211"/>
<polygon fill="midnightblue" stroke="midnightblue" points="76.1879,-91.6367 74.3042,-81.2107 69.275,-90.5358 76.1879,-91.6367"/>
</g>
<!-- Node17 -->
<g id="node17" class="node"><title>Node17</title>
<polygon fill="white" stroke="#bfbfbf" points="879.5,-179.5 879.5,-198.5 936.5,-198.5 936.5,-179.5 879.5,-179.5"/>
<text text-anchor="middle" x="908" y="-186.5" font-family="Helvetica,sans-Serif" font-size="10.00">memory</text>
</g>
<!-- Node2&#45;&gt;Node17 -->
<g id="edge49" class="edge"><title>Node2&#45;&gt;Node17</title>
<path fill="none" stroke="midnightblue" d="M932.567,-291.337C927.522,-270.527 918.1,-231.663 912.505,-208.583"/>
<polygon fill="midnightblue" stroke="midnightblue" points="915.859,-207.563 910.102,-198.669 909.056,-209.213 915.859,-207.563"/>
</g>
<!-- Node2&#45;&gt;Node18 -->
<g id="edge46" class="edge"><title>Node2&#45;&gt;Node18</title>
<path fill="none" stroke="midnightblue" d="M879.371,-294.911C791.052,-277.965 615.134,-242.478 461.852,-200.563"/>
<polygon fill="midnightblue" stroke="midnightblue" points="462.36,-197.072 451.79,-197.793 460.502,-203.821 462.36,-197.072"/>
</g>
<!-- Node20 -->
<g id="node20" class="node"><title>Node20</title>
<g id="a_node20"><a xlink:href="ndarray_8h.html" target="_top" xlink:title="A device&#45;independent managed NDArray abstraction. ">
<polygon fill="white" stroke="black" points="147.5,-235.5 147.5,-254.5 270.5,-254.5 270.5,-235.5 147.5,-235.5"/>
<text text-anchor="middle" x="209" y="-242.5" font-family="Helvetica,sans-Serif" font-size="10.00">tvm/runtime/ndarray.h</text>
</a>
</g>
</g>
<!-- Node2&#45;&gt;Node20 -->
<g id="edge27" class="edge"><title>Node2&#45;&gt;Node20</title>
<path fill="none" stroke="midnightblue" d="M879.256,-300.856C748.311,-290.139 425.214,-263.696 280.779,-251.875"/>
<polygon fill="midnightblue" stroke="midnightblue" points="280.946,-248.377 270.694,-251.049 280.375,-255.353 280.946,-248.377"/>
</g>
<!-- Node23 -->
<g id="node23" class="node"><title>Node23</title>
<g id="a_node23"><a xlink:href="data__type_8h.html" target="_top" xlink:title="tvm/runtime/data_type.h">
<polygon fill="white" stroke="black" points="925,-123.5 925,-142.5 1061,-142.5 1061,-123.5 925,-123.5"/>
<text text-anchor="middle" x="993" y="-130.5" font-family="Helvetica,sans-Serif" font-size="10.00">tvm/runtime/data_type.h</text>
</a>
</g>
</g>
<!-- Node2&#45;&gt;Node23 -->
<g id="edge38" class="edge"><title>Node2&#45;&gt;Node23</title>
<path fill="none" stroke="midnightblue" d="M970.112,-291.302C985.548,-283.05 1002.44,-271.065 1012,-255 1029.31,-225.908 1025.21,-211.84 1017,-179 1014.56,-169.245 1009.56,-159.29 1004.76,-151.231"/>
<polygon fill="midnightblue" stroke="midnightblue" points="1007.69,-149.322 999.367,-142.768 1001.79,-153.083 1007.69,-149.322"/>
</g>
<!-- Node24 -->
<g id="node24" class="node"><title>Node24</title>
<polygon fill="white" stroke="#bfbfbf" points="1064.5,-235.5 1064.5,-254.5 1127.5,-254.5 1127.5,-235.5 1064.5,-235.5"/>
<text text-anchor="middle" x="1096" y="-242.5" font-family="Helvetica,sans-Serif" font-size="10.00">functional</text>
</g>
<!-- Node2&#45;&gt;Node24 -->
<g id="edge44" class="edge"><title>Node2&#45;&gt;Node24</title>
<path fill="none" stroke="midnightblue" d="M973.918,-291.399C1001.12,-281.283 1037.4,-267.791 1063.33,-258.149"/>
<polygon fill="midnightblue" stroke="midnightblue" points="1064.57,-261.424 1072.72,-254.658 1062.13,-254.863 1064.57,-261.424"/>
</g>
<!-- Node25 -->
<g id="node25" class="node"><title>Node25</title>
<polygon fill="white" stroke="#bfbfbf" points="1145.5,-235.5 1145.5,-254.5 1186.5,-254.5 1186.5,-235.5 1145.5,-235.5"/>
<text text-anchor="middle" x="1166" y="-242.5" font-family="Helvetica,sans-Serif" font-size="10.00">tuple</text>
</g>
<!-- Node2&#45;&gt;Node25 -->
<g id="edge45" class="edge"><title>Node2&#45;&gt;Node25</title>
<path fill="none" stroke="midnightblue" d="M992.641,-291.904C1030.51,-282.652 1081.65,-269.847 1135.63,-255.011"/>
<polygon fill="midnightblue" stroke="midnightblue" points="1136.67,-258.354 1145.38,-252.317 1134.81,-251.607 1136.67,-258.354"/>
</g>
<!-- Node26 -->
<g id="node26" class="node"><title>Node26</title>
<polygon fill="white" stroke="#bfbfbf" points="1205,-235.5 1205,-254.5 1247,-254.5 1247,-235.5 1205,-235.5"/>
<text text-anchor="middle" x="1226" y="-242.5" font-family="Helvetica,sans-Serif" font-size="10.00">limits</text>
</g>
<!-- Node2&#45;&gt;Node26 -->
<g id="edge48" class="edge"><title>Node2&#45;&gt;Node26</title>
<path fill="none" stroke="midnightblue" d="M992.651,-295.969C1045.34,-286.747 1125.87,-271.738 1195,-255 1195.1,-254.976 1195.2,-254.952 1195.3,-254.928"/>
<polygon fill="midnightblue" stroke="midnightblue" points="1195.94,-258.378 1204.72,-252.451 1194.16,-251.608 1195.94,-258.378"/>
</g>
<!-- Node5 -->
<g id="node5" class="node"><title>Node5</title>
<polygon fill="white" stroke="#bfbfbf" points="333,-0.5 333,-19.5 423,-19.5 423,-0.5 333,-0.5"/>
<text text-anchor="middle" x="378" y="-7.5" font-family="Helvetica,sans-Serif" font-size="10.00">dlpack/dlpack.h</text>
</g>
<!-- Node4&#45;&gt;Node5 -->
<g id="edge4" class="edge"><title>Node4&#45;&gt;Node5</title>
<path fill="none" stroke="midnightblue" d="M446.671,-56.3993C432.515,-47.0402 413.989,-34.7924 399.747,-25.3771"/>
<polygon fill="midnightblue" stroke="midnightblue" points="401.368,-22.2531 391.096,-19.6578 397.507,-28.0923 401.368,-22.2531"/>
</g>
<!-- Node6 -->
<g id="node6" class="node"><title>Node6</title>
<polygon fill="white" stroke="#bfbfbf" points="441.5,-0.5 441.5,-19.5 494.5,-19.5 494.5,-0.5 441.5,-0.5"/>
<text text-anchor="middle" x="468" y="-7.5" font-family="Helvetica,sans-Serif" font-size="10.00">stdint.h</text>
</g>
<!-- Node4&#45;&gt;Node6 -->
<g id="edge5" class="edge"><title>Node4&#45;&gt;Node6</title>
<path fill="none" stroke="midnightblue" d="M468,-56.3993C468,-48.4664 468,-38.458 468,-29.8583"/>
<polygon fill="midnightblue" stroke="midnightblue" points="471.5,-29.6577 468,-19.6578 464.5,-29.6578 471.5,-29.6577"/>
</g>
<!-- Node7 -->
<g id="node7" class="node"><title>Node7</title>
<polygon fill="white" stroke="#bfbfbf" points="512.5,-0.5 512.5,-19.5 567.5,-19.5 567.5,-0.5 512.5,-0.5"/>
<text text-anchor="middle" x="540" y="-7.5" font-family="Helvetica,sans-Serif" font-size="10.00">stddef.h</text>
</g>
<!-- Node4&#45;&gt;Node7 -->
<g id="edge6" class="edge"><title>Node4&#45;&gt;Node7</title>
<path fill="none" stroke="midnightblue" d="M485.063,-56.3993C496.065,-47.3076 510.365,-35.4899 521.618,-26.1909"/>
<polygon fill="midnightblue" stroke="midnightblue" points="524.044,-28.726 529.523,-19.6578 519.585,-23.33 524.044,-28.726"/>
</g>
<!-- Node8&#45;&gt;Node2 -->
<g id="edge26" class="edge"><title>Node8&#45;&gt;Node2</title>
<path fill="none" stroke="midnightblue" d="M796.255,-254.571C822.802,-263.254 862.1,-276.936 892.323,-287.933"/>
<polygon fill="midnightblue" stroke="midnightblue" points="891.196,-291.247 901.789,-291.399 893.603,-284.674 891.196,-291.247"/>
</g>
<!-- Node8&#45;&gt;Node4 -->
<g id="edge9" class="edge"><title>Node8&#45;&gt;Node4</title>
<path fill="none" stroke="midnightblue" d="M704.752,-237.813C646.016,-230.927 563.175,-218.178 537,-199 502.313,-173.585 483.099,-125.268 474.218,-96.2625"/>
<polygon fill="midnightblue" stroke="midnightblue" points="477.543,-95.1627 471.404,-86.5281 470.818,-97.1067 477.543,-95.1627"/>
</g>
<!-- Node9 -->
<g id="node9" class="node"><title>Node9</title>
<polygon fill="white" stroke="#bfbfbf" points="292,-123.5 292,-142.5 352,-142.5 352,-123.5 292,-123.5"/>
<text text-anchor="middle" x="322" y="-130.5" font-family="Helvetica,sans-Serif" font-size="10.00">dmlc/io.h</text>
</g>
<!-- Node8&#45;&gt;Node9 -->
<g id="edge8" class="edge"><title>Node8&#45;&gt;Node9</title>
<path fill="none" stroke="midnightblue" d="M704.842,-237.929C650.878,-231.585 571.086,-219.608 504,-199 483.466,-192.692 480.02,-186.786 460,-179 427.16,-166.228 389.024,-153.983 361.175,-145.499"/>
<polygon fill="midnightblue" stroke="midnightblue" points="361.994,-142.091 351.409,-142.55 359.97,-148.792 361.994,-142.091"/>
</g>
<!-- Node8&#45;&gt;Node10 -->
<g id="edge10" class="edge"><title>Node8&#45;&gt;Node10</title>
<path fill="none" stroke="midnightblue" d="M772.912,-235.395C778.729,-226.593 787.513,-212.353 793,-199 799.234,-183.828 803.749,-165.711 806.552,-152.462"/>
<polygon fill="midnightblue" stroke="midnightblue" points="809.986,-153.141 808.505,-142.65 803.12,-151.775 809.986,-153.141"/>
</g>
<!-- Node8&#45;&gt;Node12 -->
<g id="edge24" class="edge"><title>Node8&#45;&gt;Node12</title>
<path fill="none" stroke="midnightblue" d="M777.382,-235.5C795.172,-221.401 833.142,-193.318 870,-179 954.188,-146.296 1003.48,-204.088 1070,-143 1084.12,-130.029 1088.19,-107.769 1089.15,-91.7279"/>
<polygon fill="midnightblue" stroke="midnightblue" points="1092.66,-91.4505 1089.41,-81.3683 1085.66,-91.2801 1092.66,-91.4505"/>
</g>
<!-- Node15 -->
<g id="node15" class="node"><title>Node15</title>
<g id="a_node15"><a xlink:href="runtime_2memory_8h.html" target="_top" xlink:title="Runtime memory management. ">
<polygon fill="white" stroke="black" points="657.5,-179.5 657.5,-198.5 784.5,-198.5 784.5,-179.5 657.5,-179.5"/>
<text text-anchor="middle" x="721" y="-186.5" font-family="Helvetica,sans-Serif" font-size="10.00">tvm/runtime/memory.h</text>
</a>
</g>
</g>
<!-- Node8&#45;&gt;Node15 -->
<g id="edge17" class="edge"><title>Node8&#45;&gt;Node15</title>
<path fill="none" stroke="midnightblue" d="M759.404,-235.083C752.773,-227.298 742.979,-215.801 734.942,-206.367"/>
<polygon fill="midnightblue" stroke="midnightblue" points="737.604,-204.094 728.455,-198.751 732.275,-208.633 737.604,-204.094"/>
</g>
<!-- Node8&#45;&gt;Node17 -->
<g id="edge22" class="edge"><title>Node8&#45;&gt;Node17</title>
<path fill="none" stroke="midnightblue" d="M789.342,-235.444C812.753,-226.478 849.736,-212.314 876.19,-202.183"/>
<polygon fill="midnightblue" stroke="midnightblue" points="877.676,-205.361 885.763,-198.516 875.172,-198.824 877.676,-205.361"/>
</g>
<!-- Node8&#45;&gt;Node18 -->
<g id="edge23" class="edge"><title>Node8&#45;&gt;Node18</title>
<path fill="none" stroke="midnightblue" d="M704.77,-236.252C643.72,-228.285 548.103,-214.831 466,-199 464.544,-198.719 463.059,-198.421 461.561,-198.11"/>
<polygon fill="midnightblue" stroke="midnightblue" points="462.169,-194.66 451.65,-195.926 460.663,-201.496 462.169,-194.66"/>
</g>
<!-- Node19 -->
<g id="node19" class="node"><title>Node19</title>
<polygon fill="white" stroke="#bfbfbf" points="546.5,-179.5 546.5,-198.5 639.5,-198.5 639.5,-179.5 546.5,-179.5"/>
<text text-anchor="middle" x="593" y="-186.5" font-family="Helvetica,sans-Serif" font-size="10.00">unordered_map</text>
</g>
<!-- Node8&#45;&gt;Node19 -->
<g id="edge25" class="edge"><title>Node8&#45;&gt;Node19</title>
<path fill="none" stroke="midnightblue" d="M739.429,-235.444C709.903,-226.28 662.882,-211.688 630.117,-201.519"/>
<polygon fill="midnightblue" stroke="midnightblue" points="631.03,-198.138 620.442,-198.516 628.955,-204.823 631.03,-198.138"/>
</g>
<!-- Node10&#45;&gt;Node3 -->
<g id="edge11" class="edge"><title>Node10&#45;&gt;Node3</title>
<path fill="none" stroke="midnightblue" d="M836.219,-123.475C868.018,-113.136 921.765,-95.6611 957.317,-84.1017"/>
<polygon fill="midnightblue" stroke="midnightblue" points="958.401,-87.4297 966.829,-81.0091 956.237,-80.7727 958.401,-87.4297"/>
</g>
<!-- Node10&#45;&gt;Node4 -->
<g id="edge12" class="edge"><title>Node10&#45;&gt;Node4</title>
<path fill="none" stroke="midnightblue" d="M761,-123.475C703.64,-113.496 608.066,-96.8682 541.739,-85.3289"/>
<polygon fill="midnightblue" stroke="midnightblue" points="542.217,-81.8596 531.765,-83.5937 541.017,-88.756 542.217,-81.8596"/>
</g>
<!-- Node10&#45;&gt;Node11 -->
<g id="edge13" class="edge"><title>Node10&#45;&gt;Node11</title>
<path fill="none" stroke="midnightblue" d="M816.161,-123.475C822.611,-114.55 832.904,-100.307 840.973,-89.1425"/>
<polygon fill="midnightblue" stroke="midnightblue" points="843.83,-91.1642 846.851,-81.0091 838.156,-87.064 843.83,-91.1642"/>
</g>
<!-- Node10&#45;&gt;Node12 -->
<g id="edge14" class="edge"><title>Node10&#45;&gt;Node12</title>
<path fill="none" stroke="midnightblue" d="M865.528,-123.447C913.433,-115.574 984.284,-102.747 1045,-87 1048.92,-85.9841 1052.99,-84.8074 1057.02,-83.5724"/>
<polygon fill="midnightblue" stroke="midnightblue" points="1058.33,-86.8273 1066.78,-80.4408 1056.19,-80.1617 1058.33,-86.8273"/>
</g>
<!-- Node10&#45;&gt;Node13 -->
<g id="edge15" class="edge"><title>Node10&#45;&gt;Node13</title>
<path fill="none" stroke="midnightblue" d="M751.415,-127.035C735.693,-125.712 718.699,-124.292 703,-123 474.245,-104.167 198.477,-82.2184 107.086,-74.9645"/>
<polygon fill="midnightblue" stroke="midnightblue" points="107.357,-71.4751 97.1116,-74.1731 106.803,-78.4532 107.357,-71.4751"/>
</g>
<!-- Node14 -->
<g id="node14" class="node"><title>Node14</title>
<polygon fill="white" stroke="#bfbfbf" points="647,-62 647,-81 697,-81 697,-62 647,-62"/>
<text text-anchor="middle" x="672" y="-69" font-family="Helvetica,sans-Serif" font-size="10.00">atomic</text>
</g>
<!-- Node10&#45;&gt;Node14 -->
<g id="edge16" class="edge"><title>Node10&#45;&gt;Node14</title>
<path fill="none" stroke="midnightblue" d="M790.228,-123.475C766.864,-113.401 727.786,-96.5525 700.997,-85.0023"/>
<polygon fill="midnightblue" stroke="midnightblue" points="702.304,-81.7544 691.735,-81.0091 699.532,-88.1824 702.304,-81.7544"/>
</g>
<!-- Node15&#45;&gt;Node10 -->
<g id="edge18" class="edge"><title>Node15&#45;&gt;Node10</title>
<path fill="none" stroke="midnightblue" d="M735.299,-179.324C749.183,-170.9 770.492,-157.971 786.804,-148.074"/>
<polygon fill="midnightblue" stroke="midnightblue" points="789.002,-150.834 795.736,-142.655 785.371,-144.85 789.002,-150.834"/>
</g>
<!-- Node15&#45;&gt;Node11 -->
<g id="edge21" class="edge"><title>Node15&#45;&gt;Node11</title>
<path fill="none" stroke="midnightblue" d="M721.603,-179.332C722.983,-165.74 727.478,-139.287 742,-123 759.551,-103.316 786.303,-90.8307 809.146,-83.1997"/>
<polygon fill="midnightblue" stroke="midnightblue" points="810.488,-86.4474 818.988,-80.1232 808.399,-79.7662 810.488,-86.4474"/>
</g>
<!-- Node15&#45;&gt;Node13 -->
<g id="edge20" class="edge"><title>Node15&#45;&gt;Node13</title>
<path fill="none" stroke="midnightblue" d="M674.121,-179.485C605.428,-167.02 473.377,-143.101 361,-123 268.678,-106.486 159.485,-87.2089 107.094,-77.9755"/>
<polygon fill="midnightblue" stroke="midnightblue" points="107.554,-74.5028 97.0988,-76.2143 106.34,-81.3966 107.554,-74.5028"/>
</g>
<!-- Node16 -->
<g id="node16" class="node"><title>Node16</title>
<polygon fill="white" stroke="#bfbfbf" points="647.5,-123.5 647.5,-142.5 694.5,-142.5 694.5,-123.5 647.5,-123.5"/>
<text text-anchor="middle" x="671" y="-130.5" font-family="Helvetica,sans-Serif" font-size="10.00">cstdlib</text>
</g>
<!-- Node15&#45;&gt;Node16 -->
<g id="edge19" class="edge"><title>Node15&#45;&gt;Node16</title>
<path fill="none" stroke="midnightblue" d="M712.744,-179.083C705.535,-171.298 694.89,-159.801 686.154,-150.367"/>
<polygon fill="midnightblue" stroke="midnightblue" points="688.465,-147.711 679.103,-142.751 683.329,-152.467 688.465,-147.711"/>
</g>
<!-- Node20&#45;&gt;Node4 -->
<g id="edge28" class="edge"><title>Node20&#45;&gt;Node4</title>
<path fill="none" stroke="midnightblue" d="M180.985,-235.397C163.826,-228.515 143.252,-216.984 133,-199 116.272,-169.655 110.967,-148.603 133,-123 165.983,-84.6725 305.783,-75.0491 394.033,-72.8616"/>
<polygon fill="midnightblue" stroke="midnightblue" points="394.343,-76.3557 404.264,-72.6354 394.189,-69.3574 394.343,-76.3557"/>
</g>
<!-- Node20&#45;&gt;Node10 -->
<g id="edge29" class="edge"><title>Node20&#45;&gt;Node10</title>
<path fill="none" stroke="midnightblue" d="M228.655,-235.45C262.118,-221.279 332.605,-193.091 395,-179 427.828,-171.586 631.521,-151.238 740.829,-140.63"/>
<polygon fill="midnightblue" stroke="midnightblue" points="741.487,-144.083 751.103,-139.635 740.812,-137.115 741.487,-144.083"/>
</g>
<!-- Node20&#45;&gt;Node13 -->
<g id="edge37" class="edge"><title>Node20&#45;&gt;Node13</title>
<path fill="none" stroke="midnightblue" d="M162.255,-235.443C140.225,-229.037 115.448,-217.971 100,-199 74.6723,-167.895 73.0597,-118.242 74.3602,-91.3267"/>
<polygon fill="midnightblue" stroke="midnightblue" points="77.8754,-91.2196 75.0615,-81.0053 70.8915,-90.745 77.8754,-91.2196"/>
</g>
<!-- Node20&#45;&gt;Node14 -->
<g id="edge35" class="edge"><title>Node20&#45;&gt;Node14</title>
<path fill="none" stroke="midnightblue" d="M221.972,-235.42C242.781,-221.947 285.228,-195.655 324,-179 434.534,-131.52 573.15,-95.7546 636.933,-80.5424"/>
<polygon fill="midnightblue" stroke="midnightblue" points="637.944,-83.8999 646.871,-78.1945 636.335,-77.0874 637.944,-83.8999"/>
</g>
<!-- Node20&#45;&gt;Node18 -->
<g id="edge36" class="edge"><title>Node20&#45;&gt;Node18</title>
<path fill="none" stroke="midnightblue" d="M243.701,-235.444C285.063,-225.245 353.699,-208.321 394.516,-198.256"/>
<polygon fill="midnightblue" stroke="midnightblue" points="395.389,-201.646 404.261,-195.854 393.713,-194.849 395.389,-201.646"/>
</g>
<!-- Node21 -->
<g id="node21" class="node"><title>Node21</title>
<g id="a_node21"><a xlink:href="serializer_8h.html" target="_top" xlink:title="Serializer extension to support TVM data types Include this file to enable serialization of DLDataTyp...">
<polygon fill="white" stroke="black" points="142,-179.5 142,-198.5 272,-198.5 272,-179.5 142,-179.5"/>
<text text-anchor="middle" x="207" y="-186.5" font-family="Helvetica,sans-Serif" font-size="10.00">tvm/runtime/serializer.h</text>
</a>
</g>
</g>
<!-- Node20&#45;&gt;Node21 -->
<g id="edge30" class="edge"><title>Node20&#45;&gt;Node21</title>
<path fill="none" stroke="midnightblue" d="M203.503,-235.083C201.748,-228.006 200.935,-217.861 201.225,-208.986"/>
<polygon fill="midnightblue" stroke="midnightblue" points="204.736,-209.036 202.193,-198.751 197.767,-208.377 204.736,-209.036"/>
</g>
<!-- Node21&#45;&gt;Node4 -->
<g id="edge33" class="edge"><title>Node21&#45;&gt;Node4</title>
<path fill="none" stroke="midnightblue" d="M214.538,-179.468C227.273,-165.578 254.461,-138.113 283,-123 317.411,-104.778 358.993,-92.6649 394.011,-84.8828"/>
<polygon fill="midnightblue" stroke="midnightblue" points="395.133,-88.222 404.177,-82.7032 393.665,-81.3776 395.133,-88.222"/>
</g>
<!-- Node21&#45;&gt;Node9 -->
<g id="edge31" class="edge"><title>Node21&#45;&gt;Node9</title>
<path fill="none" stroke="midnightblue" d="M225.222,-179.444C243.896,-170.675 273.156,-156.935 294.617,-146.858"/>
<polygon fill="midnightblue" stroke="midnightblue" points="296.299,-149.935 303.863,-142.516 293.324,-143.599 296.299,-149.935"/>
</g>
<!-- Node21&#45;&gt;Node20 -->
<g id="edge34" class="edge"><title>Node21&#45;&gt;Node20</title>
<path fill="none" stroke="midnightblue" d="M212.455,-198.751C214.245,-205.858 215.072,-216.136 214.772,-225.101"/>
<polygon fill="midnightblue" stroke="midnightblue" points="211.285,-224.8 213.836,-235.083 218.255,-225.454 211.285,-224.8"/>
</g>
<!-- Node22 -->
<g id="node22" class="node"><title>Node22</title>
<polygon fill="white" stroke="#bfbfbf" points="142,-123.5 142,-142.5 236,-142.5 236,-123.5 142,-123.5"/>
<text text-anchor="middle" x="189" y="-130.5" font-family="Helvetica,sans-Serif" font-size="10.00">dmlc/serializer.h</text>
</g>
<!-- Node21&#45;&gt;Node22 -->
<g id="edge32" class="edge"><title>Node21&#45;&gt;Node22</title>
<path fill="none" stroke="midnightblue" d="M204.028,-179.083C201.616,-171.849 198.136,-161.409 195.132,-152.397"/>
<polygon fill="midnightblue" stroke="midnightblue" points="198.4,-151.131 191.917,-142.751 191.759,-153.345 198.4,-151.131"/>
</g>
<!-- Node23&#45;&gt;Node3 -->
<g id="edge40" class="edge"><title>Node23&#45;&gt;Node3</title>
<path fill="none" stroke="midnightblue" d="M993,-123.475C993,-115.08 993,-101.981 993,-91.1631"/>
<polygon fill="midnightblue" stroke="midnightblue" points="996.5,-91.0091 993,-81.0091 989.5,-91.0091 996.5,-91.0091"/>
</g>
<!-- Node23&#45;&gt;Node4 -->
<g id="edge39" class="edge"><title>Node23&#45;&gt;Node4</title>
<path fill="none" stroke="midnightblue" d="M924.904,-124.282C826.194,-113.095 644.045,-92.4518 542.082,-80.8959"/>
<polygon fill="midnightblue" stroke="midnightblue" points="542.197,-77.3867 531.867,-79.7382 541.409,-84.3422 542.197,-77.3867"/>
</g>
<!-- Node23&#45;&gt;Node11 -->
<g id="edge41" class="edge"><title>Node23&#45;&gt;Node11</title>
<path fill="none" stroke="midnightblue" d="M972.941,-123.475C949.238,-113.401 909.594,-96.5525 882.417,-85.0023"/>
<polygon fill="midnightblue" stroke="midnightblue" points="883.594,-81.6994 873.021,-81.0091 880.856,-88.1417 883.594,-81.6994"/>
</g>
<!-- Node23&#45;&gt;Node12 -->
<g id="edge42" class="edge"><title>Node23&#45;&gt;Node12</title>
<path fill="none" stroke="midnightblue" d="M1006.75,-123.475C1022.37,-113.799 1048.06,-97.8721 1066.58,-86.3941"/>
<polygon fill="midnightblue" stroke="midnightblue" points="1068.62,-89.2522 1075.27,-81.0091 1064.93,-83.3023 1068.62,-89.2522"/>
</g>
</g>
</svg>
