<?xml version="1.0" encoding="UTF-8" standalone="no"?>
<!DOCTYPE svg PUBLIC "-//W3C//DTD SVG 1.1//EN"
 "http://www.w3.org/Graphics/SVG/1.1/DTD/svg11.dtd">
<!-- Generated by graphviz version 2.38.0 (20140413.2041)
 -->
<!-- Title: include/tvm/runtime/module.h Pages: 1 -->
<svg width="1004pt" height="341pt"
 viewBox="0.00 0.00 1003.86 341.00" xmlns="http://www.w3.org/2000/svg" xmlns:xlink="http://www.w3.org/1999/xlink">
<g id="graph0" class="graph" transform="scale(1 1) rotate(0) translate(4 337)">
<title>include/tvm/runtime/module.h</title>
<polygon fill="white" stroke="none" points="-4,4 -4,-337 999.857,-337 999.857,4 -4,4"/>
<!-- Node1 -->
<g id="node1" class="node"><title>Node1</title>
<polygon fill="#bfbfbf" stroke="black" points="432.357,-302.5 432.357,-332.5 545.357,-332.5 545.357,-302.5 432.357,-302.5"/>
<text text-anchor="start" x="440.357" y="-320.5" font-family="Helvetica,sans-Serif" font-size="10.00">include/tvm/runtime</text>
<text text-anchor="middle" x="488.857" y="-309.5" font-family="Helvetica,sans-Serif" font-size="10.00">/module.h</text>
</g>
<!-- Node2 -->
<g id="node2" class="node"><title>Node2</title>
<polygon fill="white" stroke="#bfbfbf" points="62.8568,-62 62.8568,-81 122.857,-81 122.857,-62 62.8568,-62"/>
<text text-anchor="middle" x="92.8568" y="-69" font-family="Helvetica,sans-Serif" font-size="10.00">dmlc/io.h</text>
</g>
<!-- Node1&#45;&gt;Node2 -->
<g id="edge1" class="edge"><title>Node1&#45;&gt;Node2</title>
<path fill="none" stroke="midnightblue" d="M432.338,-317.095C324.954,-317.136 96.6379,-311.668 34.8568,-266 2.08088,-241.773 -6.80897,-217.74 5.85685,-179 18.3669,-140.736 52.1407,-106.675 73.7398,-87.8801"/>
<polygon fill="midnightblue" stroke="midnightblue" points="76.2358,-90.3534 81.6195,-81.2283 71.7204,-85.0045 76.2358,-90.3534"/>
</g>
<!-- Node3 -->
<g id="node3" class="node"><title>Node3</title>
<g id="a_node3"><a xlink:href="c__runtime__api_8h.html" target="_top" xlink:title="tvm/runtime/c_runtime\l_api.h">
<polygon fill="white" stroke="black" points="455.357,-56.5 455.357,-86.5 582.357,-86.5 582.357,-56.5 455.357,-56.5"/>
<text text-anchor="start" x="463.357" y="-74.5" font-family="Helvetica,sans-Serif" font-size="10.00">tvm/runtime/c_runtime</text>
<text text-anchor="middle" x="518.857" y="-63.5" font-family="Helvetica,sans-Serif" font-size="10.00">_api.h</text>
</a>
</g>
</g>
<!-- Node1&#45;&gt;Node3 -->
<g id="edge2" class="edge"><title>Node1&#45;&gt;Node3</title>
<path fill="none" stroke="midnightblue" d="M432.233,-315.99C358.77,-313.703 227.615,-304.035 122.857,-266 65.2452,-245.083 -14.0413,-232.505 15.8568,-179 39.0221,-137.544 61.913,-138.338 106.857,-123 249.832,-74.206 295.477,-109.546 444.857,-87 444.962,-86.9841 445.067,-86.9682 445.173,-86.9522"/>
<polygon fill="midnightblue" stroke="midnightblue" points="445.823,-90.3927 455.142,-85.3515 444.714,-83.4812 445.823,-90.3927"/>
</g>
<!-- Node7 -->
<g id="node7" class="node"><title>Node7</title>
<g id="a_node7"><a xlink:href="object_8h.html" target="_top" xlink:title="A managed object in the TVM runtime. ">
<polygon fill="white" stroke="black" points="624.357,-123.5 624.357,-142.5 741.357,-142.5 741.357,-123.5 624.357,-123.5"/>
<text text-anchor="middle" x="682.857" y="-130.5" font-family="Helvetica,sans-Serif" font-size="10.00">tvm/runtime/object.h</text>
</a>
</g>
</g>
<!-- Node1&#45;&gt;Node7 -->
<g id="edge6" class="edge"><title>Node1&#45;&gt;Node7</title>
<path fill="none" stroke="midnightblue" d="M545.578,-310.136C609.142,-299.53 708.677,-271.62 749.857,-199 761.942,-177.688 736.391,-158.88 713.439,-147.051"/>
<polygon fill="midnightblue" stroke="midnightblue" points="714.73,-143.787 704.205,-142.57 711.674,-150.085 714.73,-143.787"/>
</g>
<!-- Node10 -->
<g id="node10" class="node"><title>Node10</title>
<polygon fill="white" stroke="#bfbfbf" points="951.857,-62 951.857,-81 995.857,-81 995.857,-62 951.857,-62"/>
<text text-anchor="middle" x="973.857" y="-69" font-family="Helvetica,sans-Serif" font-size="10.00">string</text>
</g>
<!-- Node1&#45;&gt;Node10 -->
<g id="edge20" class="edge"><title>Node1&#45;&gt;Node10</title>
<path fill="none" stroke="midnightblue" d="M545.62,-316.559C648.685,-315.597 861.354,-308.364 919.857,-266 968.657,-230.662 963.886,-201.839 976.857,-143 980.644,-125.819 979.238,-105.729 977.274,-91.3996"/>
<polygon fill="midnightblue" stroke="midnightblue" points="980.696,-90.634 975.667,-81.3088 973.783,-91.7347 980.696,-90.634"/>
</g>
<!-- Node13 -->
<g id="node13" class="node"><title>Node13</title>
<g id="a_node13"><a xlink:href="runtime_2memory_8h.html" target="_top" xlink:title="Runtime memory management. ">
<polygon fill="white" stroke="black" points="25.3568,-179.5 25.3568,-198.5 152.357,-198.5 152.357,-179.5 25.3568,-179.5"/>
<text text-anchor="middle" x="88.8568" y="-186.5" font-family="Helvetica,sans-Serif" font-size="10.00">tvm/runtime/memory.h</text>
</a>
</g>
</g>
<!-- Node1&#45;&gt;Node13 -->
<g id="edge13" class="edge"><title>Node1&#45;&gt;Node13</title>
<path fill="none" stroke="midnightblue" d="M432.279,-311.786C352.699,-304.455 212.337,-288.759 166.857,-266 139.212,-252.166 115.063,-225.002 101.221,-207.178"/>
<polygon fill="midnightblue" stroke="midnightblue" points="103.758,-204.728 94.9575,-198.829 98.1584,-208.929 103.758,-204.728"/>
</g>
<!-- Node15 -->
<g id="node15" class="node"><title>Node15</title>
<polygon fill="white" stroke="#bfbfbf" points="209.357,-179.5 209.357,-198.5 266.357,-198.5 266.357,-179.5 209.357,-179.5"/>
<text text-anchor="middle" x="237.857" y="-186.5" font-family="Helvetica,sans-Serif" font-size="10.00">memory</text>
</g>
<!-- Node1&#45;&gt;Node15 -->
<g id="edge18" class="edge"><title>Node1&#45;&gt;Node15</title>
<path fill="none" stroke="midnightblue" d="M461.036,-302.479C412.197,-277.865 311.707,-227.219 264.045,-203.199"/>
<polygon fill="midnightblue" stroke="midnightblue" points="265.486,-200.005 254.981,-198.63 262.336,-206.256 265.486,-200.005"/>
</g>
<!-- Node16 -->
<g id="node16" class="node"><title>Node16</title>
<polygon fill="white" stroke="#bfbfbf" points="220.357,-123.5 220.357,-142.5 267.357,-142.5 267.357,-123.5 220.357,-123.5"/>
<text text-anchor="middle" x="243.857" y="-130.5" font-family="Helvetica,sans-Serif" font-size="10.00">vector</text>
</g>
<!-- Node1&#45;&gt;Node16 -->
<g id="edge19" class="edge"><title>Node1&#45;&gt;Node16</title>
<path fill="none" stroke="midnightblue" d="M432.197,-312.614C362.8,-304.391 248.489,-278.775 199.857,-199 189.105,-181.363 206.511,-161.824 222.5,-148.818"/>
<polygon fill="midnightblue" stroke="midnightblue" points="224.748,-151.506 230.575,-142.657 220.502,-145.94 224.748,-151.506"/>
</g>
<!-- Node17 -->
<g id="node17" class="node"><title>Node17</title>
<polygon fill="white" stroke="#bfbfbf" points="818.357,-241 818.357,-260 911.357,-260 911.357,-241 818.357,-241"/>
<text text-anchor="middle" x="864.857" y="-248" font-family="Helvetica,sans-Serif" font-size="10.00">unordered_map</text>
</g>
<!-- Node1&#45;&gt;Node17 -->
<g id="edge21" class="edge"><title>Node1&#45;&gt;Node17</title>
<path fill="none" stroke="midnightblue" d="M545.416,-308.727C608.639,-299.738 713.951,-283.866 803.857,-266 809.395,-264.899 815.194,-263.649 820.92,-262.356"/>
<polygon fill="midnightblue" stroke="midnightblue" points="822.124,-265.67 831.076,-260.003 820.544,-258.85 822.124,-265.67"/>
</g>
<!-- Node18 -->
<g id="node18" class="node"><title>Node18</title>
<g id="a_node18"><a xlink:href="packed__func_8h.html" target="_top" xlink:title="Type&#45;erased function used across TVM API. ">
<polygon fill="white" stroke="black" points="516.357,-235.5 516.357,-265.5 629.357,-265.5 629.357,-235.5 516.357,-235.5"/>
<text text-anchor="start" x="524.357" y="-253.5" font-family="Helvetica,sans-Serif" font-size="10.00">tvm/runtime/packed</text>
<text text-anchor="middle" x="572.857" y="-242.5" font-family="Helvetica,sans-Serif" font-size="10.00">_func.h</text>
</a>
</g>
</g>
<!-- Node1&#45;&gt;Node18 -->
<g id="edge22" class="edge"><title>Node1&#45;&gt;Node18</title>
<path fill="none" stroke="midnightblue" d="M501.405,-302.396C511.889,-293.367 527.004,-281.514 540.7,-271.518"/>
<polygon fill="midnightblue" stroke="midnightblue" points="542.902,-274.247 548.991,-265.577 538.824,-268.557 542.902,-274.247"/>
</g>
<!-- Node4 -->
<g id="node4" class="node"><title>Node4</title>
<polygon fill="white" stroke="#bfbfbf" points="383.857,-0.5 383.857,-19.5 473.857,-19.5 473.857,-0.5 383.857,-0.5"/>
<text text-anchor="middle" x="428.857" y="-7.5" font-family="Helvetica,sans-Serif" font-size="10.00">dlpack/dlpack.h</text>
</g>
<!-- Node3&#45;&gt;Node4 -->
<g id="edge3" class="edge"><title>Node3&#45;&gt;Node4</title>
<path fill="none" stroke="midnightblue" d="M497.528,-56.3993C483.371,-47.0402 464.845,-34.7924 450.604,-25.3771"/>
<polygon fill="midnightblue" stroke="midnightblue" points="452.225,-22.2531 441.953,-19.6578 448.364,-28.0923 452.225,-22.2531"/>
</g>
<!-- Node5 -->
<g id="node5" class="node"><title>Node5</title>
<polygon fill="white" stroke="#bfbfbf" points="492.357,-0.5 492.357,-19.5 545.357,-19.5 545.357,-0.5 492.357,-0.5"/>
<text text-anchor="middle" x="518.857" y="-7.5" font-family="Helvetica,sans-Serif" font-size="10.00">stdint.h</text>
</g>
<!-- Node3&#45;&gt;Node5 -->
<g id="edge4" class="edge"><title>Node3&#45;&gt;Node5</title>
<path fill="none" stroke="midnightblue" d="M518.857,-56.3993C518.857,-48.4664 518.857,-38.458 518.857,-29.8583"/>
<polygon fill="midnightblue" stroke="midnightblue" points="522.357,-29.6577 518.857,-19.6578 515.357,-29.6578 522.357,-29.6577"/>
</g>
<!-- Node6 -->
<g id="node6" class="node"><title>Node6</title>
<polygon fill="white" stroke="#bfbfbf" points="563.357,-0.5 563.357,-19.5 618.357,-19.5 618.357,-0.5 563.357,-0.5"/>
<text text-anchor="middle" x="590.857" y="-7.5" font-family="Helvetica,sans-Serif" font-size="10.00">stddef.h</text>
</g>
<!-- Node3&#45;&gt;Node6 -->
<g id="edge5" class="edge"><title>Node3&#45;&gt;Node6</title>
<path fill="none" stroke="midnightblue" d="M535.92,-56.3993C546.922,-47.3076 561.222,-35.4899 572.475,-26.1909"/>
<polygon fill="midnightblue" stroke="midnightblue" points="574.901,-28.726 580.38,-19.6578 570.442,-23.33 574.901,-28.726"/>
</g>
<!-- Node7&#45;&gt;Node3 -->
<g id="edge8" class="edge"><title>Node7&#45;&gt;Node3</title>
<path fill="none" stroke="midnightblue" d="M659.36,-123.475C635.384,-114.776 597.484,-101.026 567.087,-89.9981"/>
<polygon fill="midnightblue" stroke="midnightblue" points="568.103,-86.6434 557.508,-86.523 565.715,-93.2237 568.103,-86.6434"/>
</g>
<!-- Node8 -->
<g id="node8" class="node"><title>Node8</title>
<polygon fill="white" stroke="#bfbfbf" points="822.857,-62 822.857,-81 908.857,-81 908.857,-62 822.857,-62"/>
<text text-anchor="middle" x="865.857" y="-69" font-family="Helvetica,sans-Serif" font-size="10.00">dmlc/logging.h</text>
</g>
<!-- Node7&#45;&gt;Node8 -->
<g id="edge7" class="edge"><title>Node7&#45;&gt;Node8</title>
<path fill="none" stroke="midnightblue" d="M709.076,-123.475C740.875,-113.136 794.622,-95.6611 830.174,-84.1017"/>
<polygon fill="midnightblue" stroke="midnightblue" points="831.258,-87.4297 839.686,-81.0091 829.094,-80.7727 831.258,-87.4297"/>
</g>
<!-- Node9 -->
<g id="node9" class="node"><title>Node9</title>
<polygon fill="white" stroke="#bfbfbf" points="716.857,-62 716.857,-81 784.857,-81 784.857,-62 716.857,-62"/>
<text text-anchor="middle" x="750.857" y="-69" font-family="Helvetica,sans-Serif" font-size="10.00">type_traits</text>
</g>
<!-- Node7&#45;&gt;Node9 -->
<g id="edge9" class="edge"><title>Node7&#45;&gt;Node9</title>
<path fill="none" stroke="midnightblue" d="M692.6,-123.475C703.204,-114.197 720.376,-99.1706 733.336,-87.831"/>
<polygon fill="midnightblue" stroke="midnightblue" points="735.911,-90.2282 741.132,-81.0091 731.302,-84.9601 735.911,-90.2282"/>
</g>
<!-- Node7&#45;&gt;Node10 -->
<g id="edge10" class="edge"><title>Node7&#45;&gt;Node10</title>
<path fill="none" stroke="midnightblue" d="M732.562,-123.438C780.258,-114.996 854.229,-101.314 917.857,-87 925.623,-85.2528 933.949,-83.1975 941.743,-81.1923"/>
<polygon fill="midnightblue" stroke="midnightblue" points="942.803,-84.5328 951.591,-78.6153 941.031,-77.7608 942.803,-84.5328"/>
</g>
<!-- Node11 -->
<g id="node11" class="node"><title>Node11</title>
<polygon fill="white" stroke="#bfbfbf" points="222.857,-62 222.857,-81 264.857,-81 264.857,-62 222.857,-62"/>
<text text-anchor="middle" x="243.857" y="-69" font-family="Helvetica,sans-Serif" font-size="10.00">utility</text>
</g>
<!-- Node7&#45;&gt;Node11 -->
<g id="edge11" class="edge"><title>Node7&#45;&gt;Node11</title>
<path fill="none" stroke="midnightblue" d="M624.253,-125.076C554.672,-116.714 435.16,-101.906 332.857,-87 313.613,-84.1962 292.09,-80.6993 275.03,-77.8422"/>
<polygon fill="midnightblue" stroke="midnightblue" points="275.488,-74.3701 265.045,-76.1578 274.324,-81.2725 275.488,-74.3701"/>
</g>
<!-- Node12 -->
<g id="node12" class="node"><title>Node12</title>
<polygon fill="white" stroke="#bfbfbf" points="629.857,-62 629.857,-81 679.857,-81 679.857,-62 629.857,-62"/>
<text text-anchor="middle" x="654.857" y="-69" font-family="Helvetica,sans-Serif" font-size="10.00">atomic</text>
</g>
<!-- Node7&#45;&gt;Node12 -->
<g id="edge12" class="edge"><title>Node7&#45;&gt;Node12</title>
<path fill="none" stroke="midnightblue" d="M678.845,-123.475C674.77,-114.815 668.339,-101.149 663.161,-90.1453"/>
<polygon fill="midnightblue" stroke="midnightblue" points="666.286,-88.567 658.861,-81.0091 659.952,-91.5476 666.286,-88.567"/>
</g>
<!-- Node13&#45;&gt;Node7 -->
<g id="edge14" class="edge"><title>Node13&#45;&gt;Node7</title>
<path fill="none" stroke="midnightblue" d="M152.616,-182.787C271.5,-173.017 522.836,-152.119 609.857,-143 611.325,-142.846 612.81,-142.688 614.307,-142.526"/>
<polygon fill="midnightblue" stroke="midnightblue" points="614.757,-145.997 624.307,-141.409 613.981,-139.04 614.757,-145.997"/>
</g>
<!-- Node13&#45;&gt;Node9 -->
<g id="edge17" class="edge"><title>Node13&#45;&gt;Node9</title>
<path fill="none" stroke="midnightblue" d="M152.401,-182.703C227.093,-175.936 354.599,-162.689 462.857,-143 552.491,-126.698 655.841,-99.2404 711.101,-83.8438"/>
<polygon fill="midnightblue" stroke="midnightblue" points="712.159,-87.182 720.845,-81.1147 710.271,-80.4414 712.159,-87.182"/>
</g>
<!-- Node13&#45;&gt;Node11 -->
<g id="edge16" class="edge"><title>Node13&#45;&gt;Node11</title>
<path fill="none" stroke="midnightblue" d="M88.8652,-179.23C89.3514,-165.497 92.2672,-138.854 106.857,-123 134.419,-93.0494 181.303,-80.8031 212.427,-75.8348"/>
<polygon fill="midnightblue" stroke="midnightblue" points="213.317,-79.2433 222.721,-74.3639 212.327,-72.3137 213.317,-79.2433"/>
</g>
<!-- Node14 -->
<g id="node14" class="node"><title>Node14</title>
<polygon fill="white" stroke="#bfbfbf" points="116.357,-123.5 116.357,-142.5 163.357,-142.5 163.357,-123.5 116.357,-123.5"/>
<text text-anchor="middle" x="139.857" y="-130.5" font-family="Helvetica,sans-Serif" font-size="10.00">cstdlib</text>
</g>
<!-- Node13&#45;&gt;Node14 -->
<g id="edge15" class="edge"><title>Node13&#45;&gt;Node14</title>
<path fill="none" stroke="midnightblue" d="M97.2785,-179.083C104.705,-171.22 115.709,-159.569 124.669,-150.081"/>
<polygon fill="midnightblue" stroke="midnightblue" points="127.27,-152.424 131.592,-142.751 122.181,-147.618 127.27,-152.424"/>
</g>
<!-- Node18&#45;&gt;Node1 -->
<g id="edge25" class="edge"><title>Node18&#45;&gt;Node1</title>
<path fill="none" stroke="midnightblue" d="M560.34,-265.577C549.866,-274.6 534.754,-286.452 521.055,-296.451"/>
<polygon fill="midnightblue" stroke="midnightblue" points="518.85,-293.725 512.762,-302.396 522.929,-299.414 518.85,-293.725"/>
</g>
<!-- Node18&#45;&gt;Node3 -->
<g id="edge24" class="edge"><title>Node18&#45;&gt;Node3</title>
<path fill="none" stroke="midnightblue" d="M557.328,-235.129C548.277,-225.771 537.554,-212.775 531.857,-199 518.05,-165.618 516.582,-123.231 517.32,-96.9867"/>
<polygon fill="midnightblue" stroke="midnightblue" points="520.825,-96.9374 517.742,-86.8011 513.831,-96.6476 520.825,-96.9374"/>
</g>
<!-- Node18&#45;&gt;Node7 -->
<g id="edge42" class="edge"><title>Node18&#45;&gt;Node7</title>
<path fill="none" stroke="midnightblue" d="M629.534,-247.724C665.423,-243.296 709.351,-231.068 732.857,-199 745.863,-181.256 724.95,-161.25 706.327,-148.178"/>
<polygon fill="midnightblue" stroke="midnightblue" points="708.065,-145.131 697.795,-142.525 704.199,-150.966 708.065,-145.131"/>
</g>
<!-- Node18&#45;&gt;Node8 -->
<g id="edge23" class="edge"><title>Node18&#45;&gt;Node8</title>
<path fill="none" stroke="midnightblue" d="M629.614,-247.059C689.815,-242.798 786.689,-231.103 863.857,-199 903.593,-182.469 923.095,-181.232 942.857,-143 955.68,-118.192 925.175,-97.7078 898.852,-85.3295"/>
<polygon fill="midnightblue" stroke="midnightblue" points="899.991,-82.0056 889.431,-81.1428 897.148,-88.4024 899.991,-82.0056"/>
</g>
<!-- Node18&#45;&gt;Node9 -->
<g id="edge50" class="edge"><title>Node18&#45;&gt;Node9</title>
<path fill="none" stroke="midnightblue" d="M629.477,-240.838C675.51,-232.507 735.152,-218.328 749.857,-199 773.817,-167.507 764.546,-117.683 756.952,-90.9304"/>
<polygon fill="midnightblue" stroke="midnightblue" points="760.275,-89.831 753.999,-81.295 753.582,-91.8816 760.275,-89.831"/>
</g>
<!-- Node18&#45;&gt;Node10 -->
<g id="edge46" class="edge"><title>Node18&#45;&gt;Node10</title>
<path fill="none" stroke="midnightblue" d="M629.659,-245.009C710.796,-237.884 855.228,-222.36 901.857,-199 933.609,-183.093 941.77,-174.133 958.857,-143 967.685,-126.915 971.321,-106.128 972.817,-91.3023"/>
<polygon fill="midnightblue" stroke="midnightblue" points="976.308,-91.5443 973.594,-81.3032 969.329,-91.0019 976.308,-91.5443"/>
</g>
<!-- Node18&#45;&gt;Node11 -->
<g id="edge49" class="edge"><title>Node18&#45;&gt;Node11</title>
<path fill="none" stroke="midnightblue" d="M516.227,-244.335C461.709,-238.058 377.632,-224.916 308.857,-199 292.451,-192.818 290.053,-187.742 274.857,-179 246.568,-162.726 227.333,-171.171 210.857,-143 200.38,-125.086 214.346,-103.296 227.201,-88.7259"/>
<polygon fill="midnightblue" stroke="midnightblue" points="229.753,-91.1217 234.066,-81.4447 224.66,-86.3197 229.753,-91.1217"/>
</g>
<!-- Node18&#45;&gt;Node15 -->
<g id="edge48" class="edge"><title>Node18&#45;&gt;Node15</title>
<path fill="none" stroke="midnightblue" d="M516.227,-240.311C457.32,-230.61 362.467,-214.593 280.857,-199 279.405,-198.723 277.927,-198.436 276.435,-198.142"/>
<polygon fill="midnightblue" stroke="midnightblue" points="277.004,-194.687 266.51,-196.143 275.622,-201.549 277.004,-194.687"/>
</g>
<!-- Node18&#45;&gt;Node16 -->
<g id="edge45" class="edge"><title>Node18&#45;&gt;Node16</title>
<path fill="none" stroke="midnightblue" d="M515.963,-241.596C470.42,-234.072 405.515,-220.632 351.857,-199 318.972,-185.742 284.451,-163.23 263.539,-148.487"/>
<polygon fill="midnightblue" stroke="midnightblue" points="265.364,-145.49 255.198,-142.508 261.286,-151.179 265.364,-145.49"/>
</g>
<!-- Node19 -->
<g id="node19" class="node"><title>Node19</title>
<g id="a_node19"><a xlink:href="ndarray_8h.html" target="_top" xlink:title="A device&#45;independent managed NDArray abstraction. ">
<polygon fill="white" stroke="black" points="361.357,-179.5 361.357,-198.5 484.357,-198.5 484.357,-179.5 361.357,-179.5"/>
<text text-anchor="middle" x="422.857" y="-186.5" font-family="Helvetica,sans-Serif" font-size="10.00">tvm/runtime/ndarray.h</text>
</a>
</g>
</g>
<!-- Node18&#45;&gt;Node19 -->
<g id="edge26" class="edge"><title>Node18&#45;&gt;Node19</title>
<path fill="none" stroke="midnightblue" d="M537.309,-235.399C512.029,-225.372 478.39,-212.028 454.13,-202.405"/>
<polygon fill="midnightblue" stroke="midnightblue" points="455.269,-199.092 444.683,-198.658 452.688,-205.598 455.269,-199.092"/>
</g>
<!-- Node22 -->
<g id="node22" class="node"><title>Node22</title>
<g id="a_node22"><a xlink:href="data__type_8h.html" target="_top" xlink:title="tvm/runtime/data_type.h">
<polygon fill="white" stroke="black" points="797.857,-123.5 797.857,-142.5 933.857,-142.5 933.857,-123.5 797.857,-123.5"/>
<text text-anchor="middle" x="865.857" y="-130.5" font-family="Helvetica,sans-Serif" font-size="10.00">tvm/runtime/data_type.h</text>
</a>
</g>
</g>
<!-- Node18&#45;&gt;Node22 -->
<g id="edge37" class="edge"><title>Node18&#45;&gt;Node22</title>
<path fill="none" stroke="midnightblue" d="M629.449,-245.38C698.648,-239.259 810.455,-225.521 841.857,-199 855.479,-187.496 861.372,-167.524 863.92,-152.746"/>
<polygon fill="midnightblue" stroke="midnightblue" points="867.409,-153.064 865.289,-142.684 860.473,-152.121 867.409,-153.064"/>
</g>
<!-- Node23 -->
<g id="node23" class="node"><title>Node23</title>
<polygon fill="white" stroke="#bfbfbf" points="541.357,-179.5 541.357,-198.5 604.357,-198.5 604.357,-179.5 541.357,-179.5"/>
<text text-anchor="middle" x="572.857" y="-186.5" font-family="Helvetica,sans-Serif" font-size="10.00">functional</text>
</g>
<!-- Node18&#45;&gt;Node23 -->
<g id="edge43" class="edge"><title>Node18&#45;&gt;Node23</title>
<path fill="none" stroke="midnightblue" d="M572.857,-235.399C572.857,-227.466 572.857,-217.458 572.857,-208.858"/>
<polygon fill="midnightblue" stroke="midnightblue" points="576.357,-208.658 572.857,-198.658 569.357,-208.658 576.357,-208.658"/>
</g>
<!-- Node24 -->
<g id="node24" class="node"><title>Node24</title>
<polygon fill="white" stroke="#bfbfbf" points="622.357,-179.5 622.357,-198.5 663.357,-198.5 663.357,-179.5 622.357,-179.5"/>
<text text-anchor="middle" x="642.857" y="-186.5" font-family="Helvetica,sans-Serif" font-size="10.00">tuple</text>
</g>
<!-- Node18&#45;&gt;Node24 -->
<g id="edge44" class="edge"><title>Node18&#45;&gt;Node24</title>
<path fill="none" stroke="midnightblue" d="M589.446,-235.399C600.142,-226.308 614.045,-214.49 624.985,-205.191"/>
<polygon fill="midnightblue" stroke="midnightblue" points="627.319,-207.801 632.671,-198.658 622.785,-202.468 627.319,-207.801"/>
</g>
<!-- Node25 -->
<g id="node25" class="node"><title>Node25</title>
<polygon fill="white" stroke="#bfbfbf" points="681.857,-179.5 681.857,-198.5 723.857,-198.5 723.857,-179.5 681.857,-179.5"/>
<text text-anchor="middle" x="702.857" y="-186.5" font-family="Helvetica,sans-Serif" font-size="10.00">limits</text>
</g>
<!-- Node18&#45;&gt;Node25 -->
<g id="edge47" class="edge"><title>Node18&#45;&gt;Node25</title>
<path fill="none" stroke="midnightblue" d="M603.665,-235.399C625.185,-225.55 653.694,-212.501 674.625,-202.922"/>
<polygon fill="midnightblue" stroke="midnightblue" points="676.304,-206.002 683.941,-198.658 673.391,-199.637 676.304,-206.002"/>
</g>
<!-- Node19&#45;&gt;Node3 -->
<g id="edge27" class="edge"><title>Node19&#45;&gt;Node3</title>
<path fill="none" stroke="midnightblue" d="M430.669,-179.497C438.838,-170.54 451.962,-155.963 462.857,-143 476.183,-127.145 490.716,-108.817 501.637,-94.8223"/>
<polygon fill="midnightblue" stroke="midnightblue" points="504.553,-96.7732 507.927,-86.7297 499.026,-92.4774 504.553,-96.7732"/>
</g>
<!-- Node19&#45;&gt;Node7 -->
<g id="edge28" class="edge"><title>Node19&#45;&gt;Node7</title>
<path fill="none" stroke="midnightblue" d="M464.055,-179.444C509.506,-170.004 582.699,-154.802 631.766,-144.611"/>
<polygon fill="midnightblue" stroke="midnightblue" points="632.773,-147.977 641.852,-142.516 631.349,-141.123 632.773,-147.977"/>
</g>
<!-- Node19&#45;&gt;Node11 -->
<g id="edge36" class="edge"><title>Node19&#45;&gt;Node11</title>
<path fill="none" stroke="midnightblue" d="M394.301,-179.485C371.619,-171.949 339.696,-159.571 314.857,-143 292.179,-127.871 270.623,-104.796 257.336,-89.2036"/>
<polygon fill="midnightblue" stroke="midnightblue" points="259.937,-86.8574 250.851,-81.4088 254.556,-91.3345 259.937,-86.8574"/>
</g>
<!-- Node19&#45;&gt;Node12 -->
<g id="edge34" class="edge"><title>Node19&#45;&gt;Node12</title>
<path fill="none" stroke="midnightblue" d="M440.295,-179.319C480.617,-159.245 580.507,-109.515 628.41,-85.6667"/>
<polygon fill="midnightblue" stroke="midnightblue" points="630.141,-88.7144 637.533,-81.1245 627.021,-82.448 630.141,-88.7144"/>
</g>
<!-- Node19&#45;&gt;Node16 -->
<g id="edge35" class="edge"><title>Node19&#45;&gt;Node16</title>
<path fill="none" stroke="midnightblue" d="M394.494,-179.444C362.689,-169.849 311.155,-154.302 277.383,-144.114"/>
<polygon fill="midnightblue" stroke="midnightblue" points="278.099,-140.674 267.514,-141.137 276.077,-147.376 278.099,-140.674"/>
</g>
<!-- Node20 -->
<g id="node20" class="node"><title>Node20</title>
<g id="a_node20"><a xlink:href="serializer_8h.html" target="_top" xlink:title="Serializer extension to support TVM data types Include this file to enable serialization of DLDataTyp...">
<polygon fill="white" stroke="black" points="323.857,-123.5 323.857,-142.5 453.857,-142.5 453.857,-123.5 323.857,-123.5"/>
<text text-anchor="middle" x="388.857" y="-130.5" font-family="Helvetica,sans-Serif" font-size="10.00">tvm/runtime/serializer.h</text>
</a>
</g>
</g>
<!-- Node19&#45;&gt;Node20 -->
<g id="edge29" class="edge"><title>Node19&#45;&gt;Node20</title>
<path fill="none" stroke="midnightblue" d="M412.076,-179.083C405.863,-171.691 398.694,-160.953 393.681,-151.811"/>
<polygon fill="midnightblue" stroke="midnightblue" points="396.783,-150.187 389.236,-142.751 390.499,-153.27 396.783,-150.187"/>
</g>
<!-- Node20&#45;&gt;Node2 -->
<g id="edge30" class="edge"><title>Node20&#45;&gt;Node2</title>
<path fill="none" stroke="midnightblue" d="M346.447,-123.475C289.412,-112.01 188.72,-91.7698 132.915,-80.5522"/>
<polygon fill="midnightblue" stroke="midnightblue" points="133.531,-77.1062 123.038,-78.5667 132.152,-83.9689 133.531,-77.1062"/>
</g>
<!-- Node20&#45;&gt;Node3 -->
<g id="edge32" class="edge"><title>Node20&#45;&gt;Node3</title>
<path fill="none" stroke="midnightblue" d="M407.483,-123.475C426.077,-114.965 455.235,-101.619 479.053,-90.718"/>
<polygon fill="midnightblue" stroke="midnightblue" points="480.582,-93.8673 488.218,-86.523 477.669,-87.5023 480.582,-93.8673"/>
</g>
<!-- Node20&#45;&gt;Node19 -->
<g id="edge33" class="edge"><title>Node20&#45;&gt;Node19</title>
<path fill="none" stroke="midnightblue" d="M399.498,-142.751C405.697,-150.092 412.874,-160.817 417.919,-169.983"/>
<polygon fill="midnightblue" stroke="midnightblue" points="414.845,-171.664 422.409,-179.083 421.123,-168.566 414.845,-171.664"/>
</g>
<!-- Node21 -->
<g id="node21" class="node"><title>Node21</title>
<polygon fill="white" stroke="#bfbfbf" points="341.857,-62 341.857,-81 435.857,-81 435.857,-62 341.857,-62"/>
<text text-anchor="middle" x="388.857" y="-69" font-family="Helvetica,sans-Serif" font-size="10.00">dmlc/serializer.h</text>
</g>
<!-- Node20&#45;&gt;Node21 -->
<g id="edge31" class="edge"><title>Node20&#45;&gt;Node21</title>
<path fill="none" stroke="midnightblue" d="M388.857,-123.475C388.857,-115.08 388.857,-101.981 388.857,-91.1631"/>
<polygon fill="midnightblue" stroke="midnightblue" points="392.357,-91.0091 388.857,-81.0091 385.357,-91.0091 392.357,-91.0091"/>
</g>
<!-- Node22&#45;&gt;Node3 -->
<g id="edge38" class="edge"><title>Node22&#45;&gt;Node3</title>
<path fill="none" stroke="midnightblue" d="M816.14,-123.475C757.674,-113.45 660.079,-96.7153 592.749,-85.1702"/>
<polygon fill="midnightblue" stroke="midnightblue" points="593.076,-81.6753 582.628,-83.4349 591.893,-88.5746 593.076,-81.6753"/>
</g>
<!-- Node22&#45;&gt;Node8 -->
<g id="edge39" class="edge"><title>Node22&#45;&gt;Node8</title>
<path fill="none" stroke="midnightblue" d="M865.857,-123.475C865.857,-115.08 865.857,-101.981 865.857,-91.1631"/>
<polygon fill="midnightblue" stroke="midnightblue" points="869.357,-91.0091 865.857,-81.0091 862.357,-91.0091 869.357,-91.0091"/>
</g>
<!-- Node22&#45;&gt;Node9 -->
<g id="edge40" class="edge"><title>Node22&#45;&gt;Node9</title>
<path fill="none" stroke="midnightblue" d="M849.38,-123.475C830.251,-113.578 798.484,-97.1416 776.205,-85.6151"/>
<polygon fill="midnightblue" stroke="midnightblue" points="777.793,-82.4958 767.303,-81.0091 774.576,-88.713 777.793,-82.4958"/>
</g>
<!-- Node22&#45;&gt;Node10 -->
<g id="edge41" class="edge"><title>Node22&#45;&gt;Node10</title>
<path fill="none" stroke="midnightblue" d="M881.331,-123.475C899.135,-113.666 928.597,-97.4346 949.489,-85.925"/>
<polygon fill="midnightblue" stroke="midnightblue" points="951.342,-88.9001 958.412,-81.0091 947.964,-82.769 951.342,-88.9001"/>
</g>
</g>
</svg>
