<?xml version="1.0" encoding="UTF-8" standalone="no"?>
<!DOCTYPE svg PUBLIC "-//W3C//DTD SVG 1.1//EN"
 "http://www.w3.org/Graphics/SVG/1.1/DTD/svg11.dtd">
<!-- Generated by graphviz version 2.38.0 (20140413.2041)
 -->
<!-- Title: include/tvm/runtime/container.h Pages: 1 -->
<svg width="1513pt" height="397pt"
 viewBox="0.00 0.00 1512.50 397.00" xmlns="http://www.w3.org/2000/svg" xmlns:xlink="http://www.w3.org/1999/xlink">
<g id="graph0" class="graph" transform="scale(1 1) rotate(0) translate(4 393)">
<title>include/tvm/runtime/container.h</title>
<polygon fill="white" stroke="none" points="-4,4 -4,-393 1508.5,-393 1508.5,4 -4,4"/>
<!-- Node1 -->
<g id="node1" class="node"><title>Node1</title>
<polygon fill="#bfbfbf" stroke="black" points="385.5,-358.5 385.5,-388.5 498.5,-388.5 498.5,-358.5 385.5,-358.5"/>
<text text-anchor="start" x="393.5" y="-376.5" font-family="Helvetica,sans-Serif" font-size="10.00">include/tvm/runtime</text>
<text text-anchor="middle" x="442" y="-365.5" font-family="Helvetica,sans-Serif" font-size="10.00">/container.h</text>
</g>
<!-- Node2 -->
<g id="node2" class="node"><title>Node2</title>
<polygon fill="white" stroke="#bfbfbf" points="33,-62 33,-81 119,-81 119,-62 33,-62"/>
<text text-anchor="middle" x="76" y="-69" font-family="Helvetica,sans-Serif" font-size="10.00">dmlc/logging.h</text>
</g>
<!-- Node1&#45;&gt;Node2 -->
<g id="edge1" class="edge"><title>Node1&#45;&gt;Node2</title>
<path fill="none" stroke="midnightblue" d="M385.121,-368.211C265.744,-357.642 0,-325.218 0,-246 0,-246 0,-246 0,-188 0,-146.312 34.9778,-108.03 57.4751,-87.7185"/>
<polygon fill="midnightblue" stroke="midnightblue" points="59.8638,-90.2796 65.1111,-81.0755 55.2693,-84.9985 59.8638,-90.2796"/>
</g>
<!-- Node3 -->
<g id="node3" class="node"><title>Node3</title>
<g id="a_node3"><a xlink:href="runtime_2memory_8h.html" target="_top" xlink:title="Runtime memory management. ">
<polygon fill="white" stroke="black" points="318.5,-179.5 318.5,-198.5 445.5,-198.5 445.5,-179.5 318.5,-179.5"/>
<text text-anchor="middle" x="382" y="-186.5" font-family="Helvetica,sans-Serif" font-size="10.00">tvm/runtime/memory.h</text>
</a>
</g>
</g>
<!-- Node1&#45;&gt;Node3 -->
<g id="edge2" class="edge"><title>Node1&#45;&gt;Node3</title>
<path fill="none" stroke="midnightblue" d="M385.328,-366.782C356.209,-360.643 323.121,-347.993 305,-322 282.887,-290.281 285.755,-268.537 305,-235 313.615,-219.986 329.391,-209.504 344.43,-202.458"/>
<polygon fill="midnightblue" stroke="midnightblue" points="345.822,-205.669 353.628,-198.505 343.058,-199.238 345.822,-205.669"/>
</g>
<!-- Node4 -->
<g id="node4" class="node"><title>Node4</title>
<g id="a_node4"><a xlink:href="object_8h.html" target="_top" xlink:title="A managed object in the TVM runtime. ">
<polygon fill="white" stroke="black" points="514.5,-123.5 514.5,-142.5 631.5,-142.5 631.5,-123.5 514.5,-123.5"/>
<text text-anchor="middle" x="573" y="-130.5" font-family="Helvetica,sans-Serif" font-size="10.00">tvm/runtime/object.h</text>
</a>
</g>
</g>
<!-- Node1&#45;&gt;Node4 -->
<g id="edge16" class="edge"><title>Node1&#45;&gt;Node4</title>
<path fill="none" stroke="midnightblue" d="M442.542,-358.332C444.574,-323.73 454.223,-233.753 500,-179 511.437,-165.32 528.15,-154.591 542.7,-147.046"/>
<polygon fill="midnightblue" stroke="midnightblue" points="544.434,-150.094 551.871,-142.548 541.352,-143.809 544.434,-150.094"/>
</g>
<!-- Node9 -->
<g id="node9" class="node"><title>Node9</title>
<polygon fill="white" stroke="#bfbfbf" points="176,-62 176,-81 244,-81 244,-62 176,-62"/>
<text text-anchor="middle" x="210" y="-69" font-family="Helvetica,sans-Serif" font-size="10.00">type_traits</text>
</g>
<!-- Node1&#45;&gt;Node9 -->
<g id="edge58" class="edge"><title>Node1&#45;&gt;Node9</title>
<path fill="none" stroke="midnightblue" d="M385.214,-364.896C282.411,-349.528 76,-310.625 76,-246 76,-246 76,-246 76,-188 76,-135.509 135.724,-101.626 175.428,-84.9011"/>
<polygon fill="midnightblue" stroke="midnightblue" points="176.837,-88.1067 184.796,-81.1131 174.213,-81.6171 176.837,-88.1067"/>
</g>
<!-- Node10 -->
<g id="node10" class="node"><title>Node10</title>
<polygon fill="white" stroke="#bfbfbf" points="322,-62 322,-81 366,-81 366,-62 322,-62"/>
<text text-anchor="middle" x="344" y="-69" font-family="Helvetica,sans-Serif" font-size="10.00">string</text>
</g>
<!-- Node1&#45;&gt;Node10 -->
<g id="edge57" class="edge"><title>Node1&#45;&gt;Node10</title>
<path fill="none" stroke="midnightblue" d="M385.125,-369.935C350.703,-365.088 309.279,-352.691 287,-322 233.501,-248.303 302.205,-132.683 331.727,-89.5094"/>
<polygon fill="midnightblue" stroke="midnightblue" points="334.661,-91.4207 337.529,-81.2212 328.927,-87.4063 334.661,-91.4207"/>
</g>
<!-- Node11 -->
<g id="node11" class="node"><title>Node11</title>
<polygon fill="white" stroke="#bfbfbf" points="831,-62 831,-81 873,-81 873,-62 831,-62"/>
<text text-anchor="middle" x="852" y="-69" font-family="Helvetica,sans-Serif" font-size="10.00">utility</text>
</g>
<!-- Node1&#45;&gt;Node11 -->
<g id="edge59" class="edge"><title>Node1&#45;&gt;Node11</title>
<path fill="none" stroke="midnightblue" d="M498.688,-370.441C694.724,-362.579 1332,-330.52 1332,-246 1332,-246 1332,-246 1332,-188 1332,-122.207 1261.86,-142.415 1199,-123 1183.92,-118.343 965.502,-88.0833 883.129,-76.7641"/>
<polygon fill="midnightblue" stroke="midnightblue" points="883.493,-73.2814 873.11,-75.3886 882.541,-80.2163 883.493,-73.2814"/>
</g>
<!-- Node14 -->
<g id="node14" class="node"><title>Node14</title>
<g id="a_node14"><a xlink:href="packed__func_8h.html" target="_top" xlink:title="Type&#45;erased function used across TVM API. ">
<polygon fill="white" stroke="black" points="509.5,-291.5 509.5,-321.5 622.5,-321.5 622.5,-291.5 509.5,-291.5"/>
<text text-anchor="start" x="517.5" y="-309.5" font-family="Helvetica,sans-Serif" font-size="10.00">tvm/runtime/packed</text>
<text text-anchor="middle" x="566" y="-298.5" font-family="Helvetica,sans-Serif" font-size="10.00">_func.h</text>
</a>
</g>
</g>
<!-- Node1&#45;&gt;Node14 -->
<g id="edge17" class="edge"><title>Node1&#45;&gt;Node14</title>
<path fill="none" stroke="midnightblue" d="M468.906,-358.396C486.861,-348.984 510.672,-336.503 530.22,-326.256"/>
<polygon fill="midnightblue" stroke="midnightblue" points="531.914,-329.319 539.146,-321.577 528.664,-323.119 531.914,-329.319"/>
</g>
<!-- Node18 -->
<g id="node18" class="node"><title>Node18</title>
<polygon fill="white" stroke="#bfbfbf" points="918.5,-179.5 918.5,-198.5 965.5,-198.5 965.5,-179.5 918.5,-179.5"/>
<text text-anchor="middle" x="942" y="-186.5" font-family="Helvetica,sans-Serif" font-size="10.00">vector</text>
</g>
<!-- Node1&#45;&gt;Node18 -->
<g id="edge60" class="edge"><title>Node1&#45;&gt;Node18</title>
<path fill="none" stroke="midnightblue" d="M498.565,-369.963C589.582,-363.389 770.882,-339.78 895,-255 912.378,-243.13 925.618,-222.622 933.549,-207.812"/>
<polygon fill="midnightblue" stroke="midnightblue" points="936.794,-209.149 938.177,-198.645 930.546,-205.994 936.794,-209.149"/>
</g>
<!-- Node27 -->
<g id="node27" class="node"><title>Node27</title>
<polygon fill="white" stroke="#bfbfbf" points="1360.5,-297 1360.5,-316 1409.5,-316 1409.5,-297 1360.5,-297"/>
<text text-anchor="middle" x="1385" y="-304" font-family="Helvetica,sans-Serif" font-size="10.00">cstring</text>
</g>
<!-- Node1&#45;&gt;Node27 -->
<g id="edge55" class="edge"><title>Node1&#45;&gt;Node27</title>
<path fill="none" stroke="midnightblue" d="M498.785,-371.55C670.583,-368.327 1182.99,-356.042 1346,-322 1349.25,-321.321 1352.6,-320.417 1355.89,-319.392"/>
<polygon fill="midnightblue" stroke="midnightblue" points="1357.2,-322.643 1365.5,-316.055 1354.91,-316.03 1357.2,-322.643"/>
</g>
<!-- Node28 -->
<g id="node28" class="node"><title>Node28</title>
<polygon fill="white" stroke="#bfbfbf" points="1427.5,-297 1427.5,-316 1504.5,-316 1504.5,-297 1427.5,-297"/>
<text text-anchor="middle" x="1466" y="-304" font-family="Helvetica,sans-Serif" font-size="10.00">initializer_list</text>
</g>
<!-- Node1&#45;&gt;Node28 -->
<g id="edge56" class="edge"><title>Node1&#45;&gt;Node28</title>
<path fill="none" stroke="midnightblue" d="M498.762,-371.41C679.535,-367.648 1240.37,-353.665 1419,-322 1423.47,-321.207 1428.11,-320.118 1432.66,-318.89"/>
<polygon fill="midnightblue" stroke="midnightblue" points="1433.76,-322.215 1442.37,-316.04 1431.79,-315.499 1433.76,-322.215"/>
</g>
<!-- Node3&#45;&gt;Node4 -->
<g id="edge3" class="edge"><title>Node3&#45;&gt;Node4</title>
<path fill="none" stroke="midnightblue" d="M412.265,-179.444C444.955,-170.201 497.182,-155.436 533.183,-145.257"/>
<polygon fill="midnightblue" stroke="midnightblue" points="534.206,-148.605 542.877,-142.516 532.302,-141.869 534.206,-148.605"/>
</g>
<!-- Node3&#45;&gt;Node9 -->
<g id="edge15" class="edge"><title>Node3&#45;&gt;Node9</title>
<path fill="none" stroke="midnightblue" d="M369.452,-179.3C351.324,-166.756 316.719,-142.91 287,-123 268.522,-110.621 247.386,-96.7819 231.939,-86.7259"/>
<polygon fill="midnightblue" stroke="midnightblue" points="233.423,-83.5158 223.131,-81.0003 229.608,-89.3848 233.423,-83.5158"/>
</g>
<!-- Node3&#45;&gt;Node11 -->
<g id="edge14" class="edge"><title>Node3&#45;&gt;Node11</title>
<path fill="none" stroke="midnightblue" d="M398.138,-179.381C430.859,-161.917 502.173,-123.922 505,-123 617.199,-86.3986 758.457,-76.2719 820.422,-73.5122"/>
<polygon fill="midnightblue" stroke="midnightblue" points="820.855,-76.9975 830.703,-73.0907 820.568,-70.0034 820.855,-76.9975"/>
</g>
<!-- Node13 -->
<g id="node13" class="node"><title>Node13</title>
<polygon fill="white" stroke="#bfbfbf" points="410.5,-123.5 410.5,-142.5 457.5,-142.5 457.5,-123.5 410.5,-123.5"/>
<text text-anchor="middle" x="434" y="-130.5" font-family="Helvetica,sans-Serif" font-size="10.00">cstdlib</text>
</g>
<!-- Node3&#45;&gt;Node13 -->
<g id="edge13" class="edge"><title>Node3&#45;&gt;Node13</title>
<path fill="none" stroke="midnightblue" d="M390.587,-179.083C398.159,-171.22 409.378,-159.569 418.514,-150.081"/>
<polygon fill="midnightblue" stroke="midnightblue" points="421.158,-152.382 425.573,-142.751 416.115,-147.527 421.158,-152.382"/>
</g>
<!-- Node4&#45;&gt;Node2 -->
<g id="edge4" class="edge"><title>Node4&#45;&gt;Node2</title>
<path fill="none" stroke="midnightblue" d="M514.399,-126.389C435.38,-118.622 290.342,-103.652 167,-87 154.862,-85.3612 141.844,-83.4057 129.56,-81.4695"/>
<polygon fill="midnightblue" stroke="midnightblue" points="129.875,-77.9756 119.448,-79.855 128.771,-84.888 129.875,-77.9756"/>
</g>
<!-- Node5 -->
<g id="node5" class="node"><title>Node5</title>
<g id="a_node5"><a xlink:href="c__runtime__api_8h.html" target="_top" xlink:title="tvm/runtime/c_runtime\l_api.h">
<polygon fill="white" stroke="black" points="1094.5,-56.5 1094.5,-86.5 1221.5,-86.5 1221.5,-56.5 1094.5,-56.5"/>
<text text-anchor="start" x="1102.5" y="-74.5" font-family="Helvetica,sans-Serif" font-size="10.00">tvm/runtime/c_runtime</text>
<text text-anchor="middle" x="1158" y="-63.5" font-family="Helvetica,sans-Serif" font-size="10.00">_api.h</text>
</a>
</g>
</g>
<!-- Node4&#45;&gt;Node5 -->
<g id="edge5" class="edge"><title>Node4&#45;&gt;Node5</title>
<path fill="none" stroke="midnightblue" d="M631.66,-126.369C718.036,-118.034 884.513,-101.798 1026,-87 1044.85,-85.0281 1065.21,-82.8271 1084.17,-80.7476"/>
<polygon fill="midnightblue" stroke="midnightblue" points="1084.67,-84.2129 1094.23,-79.6402 1083.91,-77.2548 1084.67,-84.2129"/>
</g>
<!-- Node4&#45;&gt;Node9 -->
<g id="edge9" class="edge"><title>Node4&#45;&gt;Node9</title>
<path fill="none" stroke="midnightblue" d="M520.991,-123.475C449.387,-111.738 321.678,-90.8054 254.353,-79.7699"/>
<polygon fill="midnightblue" stroke="midnightblue" points="254.912,-76.315 244.477,-78.1513 253.78,-83.2228 254.912,-76.315"/>
</g>
<!-- Node4&#45;&gt;Node10 -->
<g id="edge10" class="edge"><title>Node4&#45;&gt;Node10</title>
<path fill="none" stroke="midnightblue" d="M540.19,-123.475C496.339,-112.081 419.132,-92.0212 375.8,-80.7625"/>
<polygon fill="midnightblue" stroke="midnightblue" points="376.625,-77.3607 366.066,-78.2334 374.865,-84.1357 376.625,-77.3607"/>
</g>
<!-- Node4&#45;&gt;Node11 -->
<g id="edge11" class="edge"><title>Node4&#45;&gt;Node11</title>
<path fill="none" stroke="midnightblue" d="M612.974,-123.475C669.101,-111.505 770.08,-89.9703 820.938,-79.1243"/>
<polygon fill="midnightblue" stroke="midnightblue" points="821.946,-82.4882 830.996,-76.9794 820.486,-75.6422 821.946,-82.4882"/>
</g>
<!-- Node12 -->
<g id="node12" class="node"><title>Node12</title>
<polygon fill="white" stroke="#bfbfbf" points="967,-62 967,-81 1017,-81 1017,-62 967,-62"/>
<text text-anchor="middle" x="992" y="-69" font-family="Helvetica,sans-Serif" font-size="10.00">atomic</text>
</g>
<!-- Node4&#45;&gt;Node12 -->
<g id="edge12" class="edge"><title>Node4&#45;&gt;Node12</title>
<path fill="none" stroke="midnightblue" d="M631.701,-123.664C720.144,-111.105 884.863,-87.7139 956.83,-77.4943"/>
<polygon fill="midnightblue" stroke="midnightblue" points="957.347,-80.9561 966.755,-76.0849 956.362,-74.0257 957.347,-80.9561"/>
</g>
<!-- Node6 -->
<g id="node6" class="node"><title>Node6</title>
<polygon fill="white" stroke="#bfbfbf" points="1023,-0.5 1023,-19.5 1113,-19.5 1113,-0.5 1023,-0.5"/>
<text text-anchor="middle" x="1068" y="-7.5" font-family="Helvetica,sans-Serif" font-size="10.00">dlpack/dlpack.h</text>
</g>
<!-- Node5&#45;&gt;Node6 -->
<g id="edge6" class="edge"><title>Node5&#45;&gt;Node6</title>
<path fill="none" stroke="midnightblue" d="M1136.67,-56.3993C1122.51,-47.0402 1103.99,-34.7924 1089.75,-25.3771"/>
<polygon fill="midnightblue" stroke="midnightblue" points="1091.37,-22.2531 1081.1,-19.6578 1087.51,-28.0923 1091.37,-22.2531"/>
</g>
<!-- Node7 -->
<g id="node7" class="node"><title>Node7</title>
<polygon fill="white" stroke="#bfbfbf" points="1131.5,-0.5 1131.5,-19.5 1184.5,-19.5 1184.5,-0.5 1131.5,-0.5"/>
<text text-anchor="middle" x="1158" y="-7.5" font-family="Helvetica,sans-Serif" font-size="10.00">stdint.h</text>
</g>
<!-- Node5&#45;&gt;Node7 -->
<g id="edge7" class="edge"><title>Node5&#45;&gt;Node7</title>
<path fill="none" stroke="midnightblue" d="M1158,-56.3993C1158,-48.4664 1158,-38.458 1158,-29.8583"/>
<polygon fill="midnightblue" stroke="midnightblue" points="1161.5,-29.6577 1158,-19.6578 1154.5,-29.6578 1161.5,-29.6577"/>
</g>
<!-- Node8 -->
<g id="node8" class="node"><title>Node8</title>
<polygon fill="white" stroke="#bfbfbf" points="1202.5,-0.5 1202.5,-19.5 1257.5,-19.5 1257.5,-0.5 1202.5,-0.5"/>
<text text-anchor="middle" x="1230" y="-7.5" font-family="Helvetica,sans-Serif" font-size="10.00">stddef.h</text>
</g>
<!-- Node5&#45;&gt;Node8 -->
<g id="edge8" class="edge"><title>Node5&#45;&gt;Node8</title>
<path fill="none" stroke="midnightblue" d="M1175.06,-56.3993C1186.06,-47.3076 1200.37,-35.4899 1211.62,-26.1909"/>
<polygon fill="midnightblue" stroke="midnightblue" points="1214.04,-28.726 1219.52,-19.6578 1209.59,-23.33 1214.04,-28.726"/>
</g>
<!-- Node14&#45;&gt;Node2 -->
<g id="edge18" class="edge"><title>Node14&#45;&gt;Node2</title>
<path fill="none" stroke="midnightblue" d="M509.46,-304.308C441.484,-301.23 324.946,-290.656 232,-255 147.524,-222.593 104.91,-222.657 62,-143 53.1525,-126.576 59.4131,-105.292 66.1534,-90.4247"/>
<polygon fill="midnightblue" stroke="midnightblue" points="69.3759,-91.8059 70.7166,-81.2962 63.1146,-88.6759 69.3759,-91.8059"/>
</g>
<!-- Node14&#45;&gt;Node4 -->
<g id="edge46" class="edge"><title>Node14&#45;&gt;Node4</title>
<path fill="none" stroke="midnightblue" d="M526.817,-291.487C500.997,-279.649 473.554,-260.534 483,-235 496.596,-198.247 530.701,-166.498 552.805,-148.843"/>
<polygon fill="midnightblue" stroke="midnightblue" points="555.132,-151.467 560.897,-142.578 550.847,-145.932 555.132,-151.467"/>
</g>
<!-- Node14&#45;&gt;Node5 -->
<g id="edge19" class="edge"><title>Node14&#45;&gt;Node5</title>
<path fill="none" stroke="midnightblue" d="M622.86,-305.941C724.411,-305.496 942.996,-298.934 1121,-255 1184.06,-239.435 1219.93,-253.019 1256,-199 1267.66,-181.541 1254.83,-140.329 1242,-123 1232.2,-109.762 1217.8,-99.3146 1203.68,-91.4406"/>
<polygon fill="midnightblue" stroke="midnightblue" points="1204.98,-88.1691 1194.5,-86.6343 1201.74,-94.3714 1204.98,-88.1691"/>
</g>
<!-- Node14&#45;&gt;Node9 -->
<g id="edge54" class="edge"><title>Node14&#45;&gt;Node9</title>
<path fill="none" stroke="midnightblue" d="M509.129,-304.858C410.306,-300.197 210.079,-274.187 133,-143 118.709,-118.677 150.26,-97.8691 177.192,-85.2936"/>
<polygon fill="midnightblue" stroke="midnightblue" points="178.717,-88.4463 186.443,-81.1966 175.882,-82.0459 178.717,-88.4463"/>
</g>
<!-- Node14&#45;&gt;Node10 -->
<g id="edge50" class="edge"><title>Node14&#45;&gt;Node10</title>
<path fill="none" stroke="midnightblue" d="M525.283,-291.43C456.071,-267.111 321.694,-218.001 309,-199 304.062,-191.609 307.595,-187.777 309,-179 309.716,-174.527 327.909,-120.213 337.774,-90.9319"/>
<polygon fill="midnightblue" stroke="midnightblue" points="341.214,-91.6857 341.094,-81.0915 334.581,-89.448 341.214,-91.6857"/>
</g>
<!-- Node14&#45;&gt;Node11 -->
<g id="edge53" class="edge"><title>Node14&#45;&gt;Node11</title>
<path fill="none" stroke="midnightblue" d="M622.682,-302.53C692.501,-297.607 805.29,-285.117 833,-255 875.026,-209.324 864.086,-127.457 856.46,-90.9492"/>
<polygon fill="midnightblue" stroke="midnightblue" points="859.869,-90.1553 854.262,-81.1656 853.039,-91.6896 859.869,-90.1553"/>
</g>
<!-- Node15 -->
<g id="node15" class="node"><title>Node15</title>
<g id="a_node15"><a xlink:href="runtime_2module_8h.html" target="_top" xlink:title="Runtime container of the functions generated by TVM, This is used to support dynamically link...">
<polygon fill="white" stroke="black" points="700,-235.5 700,-254.5 824,-254.5 824,-235.5 700,-235.5"/>
<text text-anchor="middle" x="762" y="-242.5" font-family="Helvetica,sans-Serif" font-size="10.00">tvm/runtime/module.h</text>
</a>
</g>
</g>
<!-- Node14&#45;&gt;Node15 -->
<g id="edge20" class="edge"><title>Node14&#45;&gt;Node15</title>
<path fill="none" stroke="midnightblue" d="M606.609,-291.399C639.44,-281.029 685.416,-267.111 718.895,-257.431"/>
<polygon fill="midnightblue" stroke="midnightblue" points="720.21,-260.695 728.856,-254.571 718.278,-253.966 720.21,-260.695"/>
</g>
<!-- Node17 -->
<g id="node17" class="node"><title>Node17</title>
<polygon fill="white" stroke="#bfbfbf" points="540.5,-179.5 540.5,-198.5 597.5,-198.5 597.5,-179.5 540.5,-179.5"/>
<text text-anchor="middle" x="569" y="-186.5" font-family="Helvetica,sans-Serif" font-size="10.00">memory</text>
</g>
<!-- Node14&#45;&gt;Node17 -->
<g id="edge52" class="edge"><title>Node14&#45;&gt;Node17</title>
<path fill="none" stroke="midnightblue" d="M530.981,-291.38C505.048,-278.667 476.389,-258.418 490,-235 498.933,-219.631 515.297,-209.075 530.823,-202.072"/>
<polygon fill="midnightblue" stroke="midnightblue" points="532.399,-205.208 540.309,-198.159 529.73,-198.737 532.399,-205.208"/>
</g>
<!-- Node14&#45;&gt;Node18 -->
<g id="edge49" class="edge"><title>Node14&#45;&gt;Node18</title>
<path fill="none" stroke="midnightblue" d="M622.561,-304.891C684.936,-302.24 786.929,-291.951 866,-255 890.685,-243.464 913.666,-221.644 927.756,-206.485"/>
<polygon fill="midnightblue" stroke="midnightblue" points="930.534,-208.63 934.623,-198.855 925.331,-203.946 930.534,-208.63"/>
</g>
<!-- Node20 -->
<g id="node20" class="node"><title>Node20</title>
<g id="a_node20"><a xlink:href="ndarray_8h.html" target="_top" xlink:title="A device&#45;independent managed NDArray abstraction. ">
<polygon fill="white" stroke="black" points="989.5,-235.5 989.5,-254.5 1112.5,-254.5 1112.5,-235.5 989.5,-235.5"/>
<text text-anchor="middle" x="1051" y="-242.5" font-family="Helvetica,sans-Serif" font-size="10.00">tvm/runtime/ndarray.h</text>
</a>
</g>
</g>
<!-- Node14&#45;&gt;Node20 -->
<g id="edge30" class="edge"><title>Node14&#45;&gt;Node20</title>
<path fill="none" stroke="midnightblue" d="M622.585,-298.558C711.156,-287.692 882.421,-266.681 979.432,-254.78"/>
<polygon fill="midnightblue" stroke="midnightblue" points="979.946,-258.243 989.446,-253.552 979.094,-251.295 979.946,-258.243"/>
</g>
<!-- Node23 -->
<g id="node23" class="node"><title>Node23</title>
<g id="a_node23"><a xlink:href="data__type_8h.html" target="_top" xlink:title="tvm/runtime/data_type.h">
<polygon fill="white" stroke="black" points="142,-123.5 142,-142.5 278,-142.5 278,-123.5 142,-123.5"/>
<text text-anchor="middle" x="210" y="-130.5" font-family="Helvetica,sans-Serif" font-size="10.00">tvm/runtime/data_type.h</text>
</a>
</g>
</g>
<!-- Node14&#45;&gt;Node23 -->
<g id="edge41" class="edge"><title>Node14&#45;&gt;Node23</title>
<path fill="none" stroke="midnightblue" d="M509.432,-294.628C447.469,-280.593 347.415,-251.493 276,-199 256.47,-184.644 237.059,-164.662 224.397,-150.654"/>
<polygon fill="midnightblue" stroke="midnightblue" points="226.696,-147.971 217.444,-142.808 221.457,-152.614 226.696,-147.971"/>
</g>
<!-- Node24 -->
<g id="node24" class="node"><title>Node24</title>
<polygon fill="white" stroke="#bfbfbf" points="499.5,-235.5 499.5,-254.5 562.5,-254.5 562.5,-235.5 499.5,-235.5"/>
<text text-anchor="middle" x="531" y="-242.5" font-family="Helvetica,sans-Serif" font-size="10.00">functional</text>
</g>
<!-- Node14&#45;&gt;Node24 -->
<g id="edge47" class="edge"><title>Node14&#45;&gt;Node24</title>
<path fill="none" stroke="midnightblue" d="M557.705,-291.399C552.777,-283.021 546.486,-272.327 541.249,-263.423"/>
<polygon fill="midnightblue" stroke="midnightblue" points="544.18,-261.503 536.093,-254.658 538.146,-265.052 544.18,-261.503"/>
</g>
<!-- Node25 -->
<g id="node25" class="node"><title>Node25</title>
<polygon fill="white" stroke="#bfbfbf" points="580.5,-235.5 580.5,-254.5 621.5,-254.5 621.5,-235.5 580.5,-235.5"/>
<text text-anchor="middle" x="601" y="-242.5" font-family="Helvetica,sans-Serif" font-size="10.00">tuple</text>
</g>
<!-- Node14&#45;&gt;Node25 -->
<g id="edge48" class="edge"><title>Node14&#45;&gt;Node25</title>
<path fill="none" stroke="midnightblue" d="M574.295,-291.399C579.223,-283.021 585.514,-272.327 590.751,-263.423"/>
<polygon fill="midnightblue" stroke="midnightblue" points="593.854,-265.052 595.907,-254.658 587.82,-261.503 593.854,-265.052"/>
</g>
<!-- Node26 -->
<g id="node26" class="node"><title>Node26</title>
<polygon fill="white" stroke="#bfbfbf" points="640,-235.5 640,-254.5 682,-254.5 682,-235.5 640,-235.5"/>
<text text-anchor="middle" x="661" y="-242.5" font-family="Helvetica,sans-Serif" font-size="10.00">limits</text>
</g>
<!-- Node14&#45;&gt;Node26 -->
<g id="edge51" class="edge"><title>Node14&#45;&gt;Node26</title>
<path fill="none" stroke="midnightblue" d="M588.514,-291.399C603.599,-281.951 623.385,-269.559 638.473,-260.109"/>
<polygon fill="midnightblue" stroke="midnightblue" points="640.559,-262.932 647.177,-254.658 636.844,-257 640.559,-262.932"/>
</g>
<!-- Node15&#45;&gt;Node3 -->
<g id="edge24" class="edge"><title>Node15&#45;&gt;Node3</title>
<path fill="none" stroke="midnightblue" d="M701.788,-235.444C633.969,-225.806 523.891,-210.163 452.217,-199.978"/>
<polygon fill="midnightblue" stroke="midnightblue" points="452.323,-196.458 441.93,-198.516 451.339,-203.389 452.323,-196.458"/>
</g>
<!-- Node15&#45;&gt;Node4 -->
<g id="edge23" class="edge"><title>Node15&#45;&gt;Node4</title>
<path fill="none" stroke="midnightblue" d="M733.68,-235.423C710.307,-227.699 676.755,-215.095 650,-199 626.727,-185 603.363,-164.075 588.577,-149.773"/>
<polygon fill="midnightblue" stroke="midnightblue" points="590.878,-147.126 581.301,-142.595 585.962,-152.109 590.878,-147.126"/>
</g>
<!-- Node15&#45;&gt;Node5 -->
<g id="edge22" class="edge"><title>Node15&#45;&gt;Node5</title>
<path fill="none" stroke="midnightblue" d="M771.862,-235.291C786.438,-222.534 814.737,-198.198 840,-179 874.846,-152.52 880.817,-140.342 921,-123 973.198,-100.473 1036.33,-87.6568 1084.31,-80.5765"/>
<polygon fill="midnightblue" stroke="midnightblue" points="1084.9,-84.0276 1094.3,-79.1513 1083.91,-77.0976 1084.9,-84.0276"/>
</g>
<!-- Node15&#45;&gt;Node10 -->
<g id="edge27" class="edge"><title>Node15&#45;&gt;Node10</title>
<path fill="none" stroke="midnightblue" d="M740.141,-235.409C723,-227.829 699.383,-215.431 683,-199 655.597,-171.518 671.756,-145.31 640,-123 597.789,-93.344 443.933,-79.3592 376.284,-74.5396"/>
<polygon fill="midnightblue" stroke="midnightblue" points="376.414,-71.0404 366.197,-73.8438 375.933,-78.0238 376.414,-71.0404"/>
</g>
<!-- Node15&#45;&gt;Node14 -->
<g id="edge29" class="edge"><title>Node15&#45;&gt;Node14</title>
<path fill="none" stroke="midnightblue" d="M738.876,-254.506C711.666,-263.353 665.684,-277.44 627.935,-288.568"/>
<polygon fill="midnightblue" stroke="midnightblue" points="626.641,-285.3 618.031,-291.475 628.612,-292.017 626.641,-285.3"/>
</g>
<!-- Node16 -->
<g id="node16" class="node"><title>Node16</title>
<polygon fill="white" stroke="#bfbfbf" points="930,-123.5 930,-142.5 990,-142.5 990,-123.5 930,-123.5"/>
<text text-anchor="middle" x="960" y="-130.5" font-family="Helvetica,sans-Serif" font-size="10.00">dmlc/io.h</text>
</g>
<!-- Node15&#45;&gt;Node16 -->
<g id="edge21" class="edge"><title>Node15&#45;&gt;Node16</title>
<path fill="none" stroke="midnightblue" d="M777.537,-235.368C811.875,-216.292 894.44,-170.422 935.69,-147.505"/>
<polygon fill="midnightblue" stroke="midnightblue" points="937.494,-150.507 944.535,-142.591 934.094,-144.388 937.494,-150.507"/>
</g>
<!-- Node15&#45;&gt;Node17 -->
<g id="edge25" class="edge"><title>Node15&#45;&gt;Node17</title>
<path fill="none" stroke="midnightblue" d="M731.419,-235.444C697.803,-226.038 643.744,-210.913 607.324,-200.723"/>
<polygon fill="midnightblue" stroke="midnightblue" points="608.124,-197.312 597.551,-197.988 606.238,-204.053 608.124,-197.312"/>
</g>
<!-- Node15&#45;&gt;Node18 -->
<g id="edge26" class="edge"><title>Node15&#45;&gt;Node18</title>
<path fill="none" stroke="midnightblue" d="M790.522,-235.444C822.594,-225.822 874.618,-210.215 908.572,-200.028"/>
<polygon fill="midnightblue" stroke="midnightblue" points="909.915,-203.28 918.488,-197.054 907.904,-196.575 909.915,-203.28"/>
</g>
<!-- Node19 -->
<g id="node19" class="node"><title>Node19</title>
<polygon fill="white" stroke="#bfbfbf" points="692.5,-179.5 692.5,-198.5 785.5,-198.5 785.5,-179.5 692.5,-179.5"/>
<text text-anchor="middle" x="739" y="-186.5" font-family="Helvetica,sans-Serif" font-size="10.00">unordered_map</text>
</g>
<!-- Node15&#45;&gt;Node19 -->
<g id="edge28" class="edge"><title>Node15&#45;&gt;Node19</title>
<path fill="none" stroke="midnightblue" d="M758.202,-235.083C755.087,-227.77 750.577,-217.181 746.711,-208.103"/>
<polygon fill="midnightblue" stroke="midnightblue" points="749.866,-206.58 742.727,-198.751 743.426,-209.323 749.866,-206.58"/>
</g>
<!-- Node20&#45;&gt;Node4 -->
<g id="edge32" class="edge"><title>Node20&#45;&gt;Node4</title>
<path fill="none" stroke="midnightblue" d="M1043.98,-235.43C1031.58,-220.962 1004.21,-192.002 974,-179 915.891,-153.991 740.183,-141.872 641.732,-136.903"/>
<polygon fill="midnightblue" stroke="midnightblue" points="641.739,-133.399 631.578,-136.402 641.394,-140.39 641.739,-133.399"/>
</g>
<!-- Node20&#45;&gt;Node5 -->
<g id="edge31" class="edge"><title>Node20&#45;&gt;Node5</title>
<path fill="none" stroke="midnightblue" d="M1112.81,-237.249C1160.79,-230.585 1221.64,-218.516 1237,-199 1264.68,-163.828 1218.96,-118.482 1186.35,-92.7349"/>
<polygon fill="midnightblue" stroke="midnightblue" points="1188.45,-89.9401 1178.39,-86.6295 1184.19,-95.4937 1188.45,-89.9401"/>
</g>
<!-- Node20&#45;&gt;Node11 -->
<g id="edge40" class="edge"><title>Node20&#45;&gt;Node11</title>
<path fill="none" stroke="midnightblue" d="M1049.72,-235.302C1046.04,-213.293 1033.36,-154.878 999,-123 966.83,-93.1557 916.214,-80.8498 883.568,-75.8431"/>
<polygon fill="midnightblue" stroke="midnightblue" points="883.625,-72.3175 873.238,-74.4102 882.663,-79.2511 883.625,-72.3175"/>
</g>
<!-- Node20&#45;&gt;Node12 -->
<g id="edge38" class="edge"><title>Node20&#45;&gt;Node12</title>
<path fill="none" stroke="midnightblue" d="M1052.56,-235.28C1055.82,-214.645 1061.68,-161.655 1044,-123 1037.41,-108.591 1024.72,-96.1396 1013.53,-87.206"/>
<polygon fill="midnightblue" stroke="midnightblue" points="1015.49,-84.2971 1005.39,-81.0859 1011.28,-89.8925 1015.49,-84.2971"/>
</g>
<!-- Node20&#45;&gt;Node18 -->
<g id="edge39" class="edge"><title>Node20&#45;&gt;Node18</title>
<path fill="none" stroke="midnightblue" d="M1033.49,-235.324C1015.93,-226.625 988.669,-213.12 968.469,-203.113"/>
<polygon fill="midnightblue" stroke="midnightblue" points="969.984,-199.958 959.469,-198.655 966.876,-206.23 969.984,-199.958"/>
</g>
<!-- Node21 -->
<g id="node21" class="node"><title>Node21</title>
<g id="a_node21"><a xlink:href="serializer_8h.html" target="_top" xlink:title="Serializer extension to support TVM data types Include this file to enable serialization of DLDataTyp...">
<polygon fill="white" stroke="black" points="1098,-179.5 1098,-198.5 1228,-198.5 1228,-179.5 1098,-179.5"/>
<text text-anchor="middle" x="1163" y="-186.5" font-family="Helvetica,sans-Serif" font-size="10.00">tvm/runtime/serializer.h</text>
</a>
</g>
</g>
<!-- Node20&#45;&gt;Node21 -->
<g id="edge33" class="edge"><title>Node20&#45;&gt;Node21</title>
<path fill="none" stroke="midnightblue" d="M1063.88,-235.324C1080.19,-226.546 1108.3,-212.875 1130.52,-202.842"/>
<polygon fill="midnightblue" stroke="midnightblue" points="1132.22,-205.914 1139.94,-198.655 1129.38,-199.518 1132.22,-205.914"/>
</g>
<!-- Node21&#45;&gt;Node5 -->
<g id="edge36" class="edge"><title>Node21&#45;&gt;Node5</title>
<path fill="none" stroke="midnightblue" d="M1173.57,-179.193C1186.73,-167.096 1206.59,-144.397 1199,-123 1195.22,-112.354 1188.14,-102.317 1180.91,-94.0389"/>
<polygon fill="midnightblue" stroke="midnightblue" points="1183.41,-91.5975 1174.03,-86.6785 1178.3,-96.3757 1183.41,-91.5975"/>
</g>
<!-- Node21&#45;&gt;Node16 -->
<g id="edge34" class="edge"><title>Node21&#45;&gt;Node16</title>
<path fill="none" stroke="midnightblue" d="M1130.83,-179.444C1095.33,-169.998 1038.13,-154.783 999.819,-144.592"/>
<polygon fill="midnightblue" stroke="midnightblue" points="1000.59,-141.177 990.03,-141.988 998.794,-147.941 1000.59,-141.177"/>
</g>
<!-- Node21&#45;&gt;Node20 -->
<g id="edge37" class="edge"><title>Node21&#45;&gt;Node20</title>
<path fill="none" stroke="midnightblue" d="M1150.42,-198.516C1134.04,-207.349 1105.45,-221.255 1083.02,-231.368"/>
<polygon fill="midnightblue" stroke="midnightblue" points="1081.56,-228.187 1073.84,-235.444 1084.4,-234.585 1081.56,-228.187"/>
</g>
<!-- Node22 -->
<g id="node22" class="node"><title>Node22</title>
<polygon fill="white" stroke="#bfbfbf" points="1096,-123.5 1096,-142.5 1190,-142.5 1190,-123.5 1096,-123.5"/>
<text text-anchor="middle" x="1143" y="-130.5" font-family="Helvetica,sans-Serif" font-size="10.00">dmlc/serializer.h</text>
</g>
<!-- Node21&#45;&gt;Node22 -->
<g id="edge35" class="edge"><title>Node21&#45;&gt;Node22</title>
<path fill="none" stroke="midnightblue" d="M1159.7,-179.083C1157.02,-171.849 1153.15,-161.409 1149.81,-152.397"/>
<polygon fill="midnightblue" stroke="midnightblue" points="1153,-150.913 1146.24,-142.751 1146.43,-153.344 1153,-150.913"/>
</g>
<!-- Node23&#45;&gt;Node2 -->
<g id="edge43" class="edge"><title>Node23&#45;&gt;Node2</title>
<path fill="none" stroke="midnightblue" d="M190.801,-123.475C168.213,-113.445 130.501,-96.7002 104.499,-85.1546"/>
<polygon fill="midnightblue" stroke="midnightblue" points="105.723,-81.8685 95.1633,-81.0091 102.882,-88.2662 105.723,-81.8685"/>
</g>
<!-- Node23&#45;&gt;Node5 -->
<g id="edge42" class="edge"><title>Node23&#45;&gt;Node5</title>
<path fill="none" stroke="midnightblue" d="M278.23,-128.716C447.116,-120.511 881.416,-98.919 1026,-87 1044.89,-85.4426 1065.27,-83.3898 1084.22,-81.3206"/>
<polygon fill="midnightblue" stroke="midnightblue" points="1084.73,-84.7854 1094.28,-80.2061 1083.96,-77.828 1084.73,-84.7854"/>
</g>
<!-- Node23&#45;&gt;Node9 -->
<g id="edge44" class="edge"><title>Node23&#45;&gt;Node9</title>
<path fill="none" stroke="midnightblue" d="M210,-123.475C210,-115.08 210,-101.981 210,-91.1631"/>
<polygon fill="midnightblue" stroke="midnightblue" points="213.5,-91.0091 210,-81.0091 206.5,-91.0091 213.5,-91.0091"/>
</g>
<!-- Node23&#45;&gt;Node10 -->
<g id="edge45" class="edge"><title>Node23&#45;&gt;Node10</title>
<path fill="none" stroke="midnightblue" d="M229.199,-123.475C251.787,-113.445 289.499,-96.7002 315.501,-85.1546"/>
<polygon fill="midnightblue" stroke="midnightblue" points="317.118,-88.2662 324.837,-81.0091 314.277,-81.8685 317.118,-88.2662"/>
</g>
</g>
</svg>
