<?xml version="1.0" encoding="UTF-8" standalone="no"?>
<!DOCTYPE svg PUBLIC "-//W3C//DTD SVG 1.1//EN"
 "http://www.w3.org/Graphics/SVG/1.1/DTD/svg11.dtd">
<!-- Generated by graphviz version 2.38.0 (20140413.2041)
 -->
<!-- Title: include/tvm/te/schedule.h Pages: 1 -->
<svg width="3205pt" height="1237pt"
 viewBox="0.00 0.00 3205.00 1237.00" xmlns="http://www.w3.org/2000/svg" xmlns:xlink="http://www.w3.org/1999/xlink">
<g id="graph0" class="graph" transform="scale(1 1) rotate(0) translate(4 1233)">
<title>include/tvm/te/schedule.h</title>
<polygon fill="white" stroke="none" points="-4,4 -4,-1233 3201,-1233 3201,4 -4,4"/>
<!-- Node1 -->
<g id="node1" class="node"><title>Node1</title>
<polygon fill="#bfbfbf" stroke="black" points="825,-1209.5 825,-1228.5 965,-1228.5 965,-1209.5 825,-1209.5"/>
<text text-anchor="middle" x="895" y="-1216.5" font-family="Helvetica,sans-Serif" font-size="10.00">include/tvm/te/schedule.h</text>
</g>
<!-- Node2 -->
<g id="node2" class="node"><title>Node2</title>
<g id="a_node2"><a xlink:href="tir_2expr_8h.html" target="_top" xlink:title="TIR expressions. ">
<polygon fill="white" stroke="black" points="813,-929.5 813,-948.5 893,-948.5 893,-929.5 813,-929.5"/>
<text text-anchor="middle" x="853" y="-936.5" font-family="Helvetica,sans-Serif" font-size="10.00">tvm/tir/expr.h</text>
</a>
</g>
</g>
<!-- Node1&#45;&gt;Node2 -->
<g id="edge1" class="edge"><title>Node1&#45;&gt;Node2</title>
<path fill="none" stroke="midnightblue" d="M891.898,-1209.29C885.62,-1190.86 872,-1146.44 872,-1108 872,-1108 872,-1108 872,-1050 872,-1017.49 863.841,-980.35 858.216,-958.61"/>
<polygon fill="midnightblue" stroke="midnightblue" points="861.541,-957.498 855.562,-948.751 854.782,-959.317 861.541,-957.498"/>
</g>
<!-- Node13 -->
<g id="node13" class="node"><title>Node13</title>
<polygon fill="white" stroke="#bfbfbf" points="2759,-62 2759,-81 2803,-81 2803,-62 2759,-62"/>
<text text-anchor="middle" x="2781" y="-69" font-family="Helvetica,sans-Serif" font-size="10.00">string</text>
</g>
<!-- Node1&#45;&gt;Node13 -->
<g id="edge187" class="edge"><title>Node1&#45;&gt;Node13</title>
<path fill="none" stroke="midnightblue" d="M965.151,-1218.4C1350.95,-1220.17 3197,-1222.66 3197,-1108 3197,-1108 3197,-1108 3197,-188 3197,-142.188 3158.91,-141.502 3117,-123 3013.15,-77.1519 2875.56,-71.6973 2813.64,-71.8147"/>
<polygon fill="midnightblue" stroke="midnightblue" points="2813.31,-68.3169 2803.33,-71.8886 2813.36,-75.3168 2813.31,-68.3169"/>
</g>
<!-- Node22 -->
<g id="node22" class="node"><title>Node22</title>
<polygon fill="white" stroke="#bfbfbf" points="182.5,-179.5 182.5,-198.5 275.5,-198.5 275.5,-179.5 182.5,-179.5"/>
<text text-anchor="middle" x="229" y="-186.5" font-family="Helvetica,sans-Serif" font-size="10.00">unordered_map</text>
</g>
<!-- Node1&#45;&gt;Node22 -->
<g id="edge188" class="edge"><title>Node1&#45;&gt;Node22</title>
<path fill="none" stroke="midnightblue" d="M824.861,-1218.56C635.253,-1219.47 122.643,-1217.73 62,-1173 37.2173,-1154.72 38,-1138.8 38,-1108 38,-1108 38,-1108 38,-602 38,-433.591 170.981,-259.376 215.022,-206.297"/>
<polygon fill="midnightblue" stroke="midnightblue" points="217.754,-208.486 221.513,-198.58 212.397,-203.98 217.754,-208.486"/>
</g>
<!-- Node44 -->
<g id="node44" class="node"><title>Node44</title>
<g id="a_node44"><a xlink:href="tensor_8h.html" target="_top" xlink:title="Dataflow tensor object. ">
<polygon fill="white" stroke="black" points="916,-1097.5 916,-1116.5 1006,-1116.5 1006,-1097.5 916,-1097.5"/>
<text text-anchor="middle" x="961" y="-1104.5" font-family="Helvetica,sans-Serif" font-size="10.00">tvm/te/tensor.h</text>
</a>
</g>
</g>
<!-- Node1&#45;&gt;Node44 -->
<g id="edge151" class="edge"><title>Node1&#45;&gt;Node44</title>
<path fill="none" stroke="midnightblue" d="M900.179,-1209.37C911.023,-1191.3 936.294,-1149.18 950.616,-1125.31"/>
<polygon fill="midnightblue" stroke="midnightblue" points="953.701,-1126.97 955.845,-1116.59 947.699,-1123.37 953.701,-1126.97"/>
</g>
<!-- Node49 -->
<g id="node49" class="node"><title>Node49</title>
<g id="a_node49"><a xlink:href="tensor__intrin_8h.html" target="_top" xlink:title="Tensor intrinsic operations. ">
<polygon fill="white" stroke="black" points="956,-1153.5 956,-1172.5 1076,-1172.5 1076,-1153.5 956,-1153.5"/>
<text text-anchor="middle" x="1016" y="-1160.5" font-family="Helvetica,sans-Serif" font-size="10.00">tvm/te/tensor_intrin.h</text>
</a>
</g>
</g>
<!-- Node1&#45;&gt;Node49 -->
<g id="edge180" class="edge"><title>Node1&#45;&gt;Node49</title>
<path fill="none" stroke="midnightblue" d="M914.173,-1209.44C933.909,-1200.64 964.885,-1186.81 987.493,-1176.72"/>
<polygon fill="midnightblue" stroke="midnightblue" points="989.211,-1179.79 996.917,-1172.52 986.359,-1173.4 989.211,-1179.79"/>
</g>
<!-- Node50 -->
<g id="node50" class="node"><title>Node50</title>
<g id="a_node50"><a xlink:href="with_8h.html" target="_top" xlink:title="RAII wrapper function to enter and exit a context object similar to python&#39;s with syntax...">
<polygon fill="white" stroke="black" points="522,-123.5 522,-142.5 628,-142.5 628,-123.5 522,-123.5"/>
<text text-anchor="middle" x="575" y="-130.5" font-family="Helvetica,sans-Serif" font-size="10.00">tvm/support/with.h</text>
</a>
</g>
</g>
<!-- Node1&#45;&gt;Node50 -->
<g id="edge184" class="edge"><title>Node1&#45;&gt;Node50</title>
<path fill="none" stroke="midnightblue" d="M824.818,-1215.9C626.46,-1209.06 76,-1183.27 76,-1108 76,-1108 76,-1108 76,-1050 76,-974.314 114,-959.686 114,-884 114,-884 114,-884 114,-826 114,-736.5 228,-749.5 228,-660 228,-660 228,-660 228,-602 228,-412.417 46.6212,-320.315 173,-179 195.137,-154.246 404.02,-141.505 511.605,-136.539"/>
<polygon fill="midnightblue" stroke="midnightblue" points="511.859,-140.031 521.691,-136.083 511.543,-133.039 511.859,-140.031"/>
</g>
<!-- Node3 -->
<g id="node3" class="node"><title>Node3</title>
<g id="a_node3"><a xlink:href="node_8h.html" target="_top" xlink:title="Definitions and helper macros for IR/AST nodes. ">
<polygon fill="white" stroke="black" points="1280,-593.5 1280,-612.5 1378,-612.5 1378,-593.5 1280,-593.5"/>
<text text-anchor="middle" x="1329" y="-600.5" font-family="Helvetica,sans-Serif" font-size="10.00">tvm/node/node.h</text>
</a>
</g>
</g>
<!-- Node2&#45;&gt;Node3 -->
<g id="edge2" class="edge"><title>Node2&#45;&gt;Node3</title>
<path fill="none" stroke="midnightblue" d="M859.99,-929.074C870.4,-916.046 890.915,-891.377 911,-873 1034.03,-760.434 1065.94,-729.455 1212,-649 1237.02,-635.219 1267.14,-623.74 1290.55,-615.825"/>
<polygon fill="midnightblue" stroke="midnightblue" points="1291.74,-619.117 1300.14,-612.655 1289.55,-612.471 1291.74,-619.117"/>
</g>
<!-- Node4 -->
<g id="node4" class="node"><title>Node4</title>
<g id="a_node4"><a xlink:href="c__runtime__api_8h.html" target="_top" xlink:title="tvm/runtime/c_runtime\l_api.h">
<polygon fill="white" stroke="black" points="1665.5,-56.5 1665.5,-86.5 1792.5,-86.5 1792.5,-56.5 1665.5,-56.5"/>
<text text-anchor="start" x="1673.5" y="-74.5" font-family="Helvetica,sans-Serif" font-size="10.00">tvm/runtime/c_runtime</text>
<text text-anchor="middle" x="1729" y="-63.5" font-family="Helvetica,sans-Serif" font-size="10.00">_api.h</text>
</a>
</g>
</g>
<!-- Node2&#45;&gt;Node4 -->
<g id="edge114" class="edge"><title>Node2&#45;&gt;Node4</title>
<path fill="none" stroke="midnightblue" d="M812.813,-937.33C771.064,-934.776 705.586,-925.368 660,-893 496.568,-776.956 481.647,-696.405 437,-501 406.67,-368.258 484.665,-322.49 589,-235 679.504,-159.108 715.153,-150.583 830,-123 909.137,-103.994 1454.45,-82.491 1655.11,-75.1313"/>
<polygon fill="midnightblue" stroke="midnightblue" points="1655.39,-78.6233 1665.26,-74.7603 1655.14,-71.628 1655.39,-78.6233"/>
</g>
<!-- Node2&#45;&gt;Node13 -->
<g id="edge145" class="edge"><title>Node2&#45;&gt;Node13</title>
<path fill="none" stroke="midnightblue" d="M893.132,-937.656C1109.3,-935.683 2136.93,-924.762 2453,-893 2597.53,-878.476 2646.15,-904.061 2775,-837 2904.63,-769.534 3007,-750.136 3007,-604 3007,-604 3007,-604 3007,-188 3007,-101.986 2875.59,-79.9907 2813.18,-74.3949"/>
<polygon fill="midnightblue" stroke="midnightblue" points="2813.33,-70.8956 2803.08,-73.5791 2812.77,-77.8729 2813.33,-70.8956"/>
</g>
<!-- Node14 -->
<g id="node14" class="node"><title>Node14</title>
<polygon fill="white" stroke="#bfbfbf" points="454,-62 454,-81 496,-81 496,-62 454,-62"/>
<text text-anchor="middle" x="475" y="-69" font-family="Helvetica,sans-Serif" font-size="10.00">utility</text>
</g>
<!-- Node2&#45;&gt;Node14 -->
<g id="edge150" class="edge"><title>Node2&#45;&gt;Node14</title>
<path fill="none" stroke="midnightblue" d="M812.71,-935.741C734.21,-930.847 563.841,-917.667 511,-893 359.437,-822.247 38,-474.764 38,-307.5 38,-307.5 38,-307.5 38,-188 38,-157.205 37.8502,-142.108 62,-123 121.077,-76.2551 358.052,-72.1584 443.818,-72.2446"/>
<polygon fill="midnightblue" stroke="midnightblue" points="443.956,-75.7449 453.967,-72.2756 443.977,-68.745 443.956,-75.7449"/>
</g>
<!-- Node2&#45;&gt;Node22 -->
<g id="edge147" class="edge"><title>Node2&#45;&gt;Node22</title>
<path fill="none" stroke="midnightblue" d="M812.978,-937.566C754.37,-935.704 642.652,-927.454 555,-893 513.927,-876.855 504.533,-867.876 473,-837 286.884,-654.765 330.492,-541.758 260,-291 251.833,-261.948 241.359,-228.52 234.917,-208.341"/>
<polygon fill="midnightblue" stroke="midnightblue" points="238.181,-207.058 231.793,-198.606 231.516,-209.197 238.181,-207.058"/>
</g>
<!-- Node25 -->
<g id="node25" class="node"><title>Node25</title>
<g id="a_node25"><a xlink:href="data__type_8h.html" target="_top" xlink:title="tvm/runtime/data_type.h">
<polygon fill="white" stroke="black" points="2235,-235.5 2235,-254.5 2371,-254.5 2371,-235.5 2235,-235.5"/>
<text text-anchor="middle" x="2303" y="-242.5" font-family="Helvetica,sans-Serif" font-size="10.00">tvm/runtime/data_type.h</text>
</a>
</g>
</g>
<!-- Node2&#45;&gt;Node25 -->
<g id="edge115" class="edge"><title>Node2&#45;&gt;Node25</title>
<path fill="none" stroke="midnightblue" d="M893.387,-937.413C1162.6,-933.309 2688.62,-906.995 2755,-837 2856.59,-729.867 2416.32,-342.806 2320.92,-261.179"/>
<polygon fill="midnightblue" stroke="midnightblue" points="2323.13,-258.463 2313.24,-254.639 2318.58,-263.79 2323.13,-258.463"/>
</g>
<!-- Node28 -->
<g id="node28" class="node"><title>Node28</title>
<polygon fill="white" stroke="#bfbfbf" points="762,-235.5 762,-254.5 804,-254.5 804,-235.5 762,-235.5"/>
<text text-anchor="middle" x="783" y="-242.5" font-family="Helvetica,sans-Serif" font-size="10.00">limits</text>
</g>
<!-- Node2&#45;&gt;Node28 -->
<g id="edge149" class="edge"><title>Node2&#45;&gt;Node28</title>
<path fill="none" stroke="midnightblue" d="M825.355,-929.416C785.859,-915.23 718,-882.872 718,-828 718,-828 718,-828 718,-602 718,-522.058 750,-504.942 750,-425 750,-425 750,-425 750,-367 750,-329.235 765.147,-287.103 774.917,-263.855"/>
<polygon fill="midnightblue" stroke="midnightblue" points="778.17,-265.151 778.954,-254.585 771.752,-262.356 778.17,-265.151"/>
</g>
<!-- Node33 -->
<g id="node33" class="node"><title>Node33</title>
<g id="a_node33"><a xlink:href="functor_8h.html" target="_top" xlink:title="Defines the Functor data structures. ">
<polygon fill="white" stroke="black" points="598.5,-235.5 598.5,-254.5 705.5,-254.5 705.5,-235.5 598.5,-235.5"/>
<text text-anchor="middle" x="652" y="-242.5" font-family="Helvetica,sans-Serif" font-size="10.00">tvm/node/functor.h</text>
</a>
</g>
</g>
<!-- Node2&#45;&gt;Node33 -->
<g id="edge113" class="edge"><title>Node2&#45;&gt;Node33</title>
<path fill="none" stroke="midnightblue" d="M812.96,-938.291C759.993,-937.111 665.052,-929.476 594,-893 478.547,-833.729 418,-789.779 418,-660 418,-660 418,-660 418,-546 418,-511.183 420.157,-500.472 437,-470 488.732,-376.407 589.404,-293.35 632.095,-260.707"/>
<polygon fill="midnightblue" stroke="midnightblue" points="634.415,-263.341 640.286,-254.521 630.197,-257.755 634.415,-263.341"/>
</g>
<!-- Node34 -->
<g id="node34" class="node"><title>Node34</title>
<g id="a_node34"><a xlink:href="node_2container_8h.html" target="_top" xlink:title="Array/Map container in the DSL graph. ">
<polygon fill="white" stroke="black" points="1076.5,-414.5 1076.5,-433.5 1195.5,-433.5 1195.5,-414.5 1076.5,-414.5"/>
<text text-anchor="middle" x="1136" y="-421.5" font-family="Helvetica,sans-Serif" font-size="10.00">tvm/node/container.h</text>
</a>
</g>
</g>
<!-- Node2&#45;&gt;Node34 -->
<g id="edge112" class="edge"><title>Node2&#45;&gt;Node34</title>
<path fill="none" stroke="midnightblue" d="M851.196,-929.396C842.926,-887.475 812.421,-702.212 894,-593 951.677,-515.786 1055.56,-461.218 1106.38,-437.794"/>
<polygon fill="midnightblue" stroke="midnightblue" points="1108.14,-440.839 1115.81,-433.527 1105.25,-434.462 1108.14,-440.839"/>
</g>
<!-- Node37 -->
<g id="node37" class="node"><title>Node37</title>
<polygon fill="white" stroke="#bfbfbf" points="446.5,-476 446.5,-495 505.5,-495 505.5,-476 446.5,-476"/>
<text text-anchor="middle" x="476" y="-483" font-family="Helvetica,sans-Serif" font-size="10.00">iostream</text>
</g>
<!-- Node2&#45;&gt;Node37 -->
<g id="edge148" class="edge"><title>Node2&#45;&gt;Node37</title>
<path fill="none" stroke="midnightblue" d="M812.597,-934.498C752.356,-926.816 646,-902.678 646,-828 646,-828 646,-828 646,-658 646,-571.639 524.434,-631.053 480,-557 470.651,-541.419 470.787,-520.247 472.559,-505.182"/>
<polygon fill="midnightblue" stroke="midnightblue" points="476.057,-505.458 474.102,-495.045 469.137,-504.404 476.057,-505.458"/>
</g>
<!-- Node38 -->
<g id="node38" class="node"><title>Node38</title>
<g id="a_node38"><a xlink:href="ir_2expr_8h.html" target="_top" xlink:title="Base expr nodes in TVM. ">
<polygon fill="white" stroke="black" points="1099.5,-761.5 1099.5,-780.5 1176.5,-780.5 1176.5,-761.5 1099.5,-761.5"/>
<text text-anchor="middle" x="1138" y="-768.5" font-family="Helvetica,sans-Serif" font-size="10.00">tvm/ir/expr.h</text>
</a>
</g>
</g>
<!-- Node2&#45;&gt;Node38 -->
<g id="edge116" class="edge"><title>Node2&#45;&gt;Node38</title>
<path fill="none" stroke="midnightblue" d="M863.865,-929.477C880.592,-916.533 913.878,-891.473 944,-873 1001.2,-837.921 1071.87,-803.146 1110.16,-784.97"/>
<polygon fill="midnightblue" stroke="midnightblue" points="1112.06,-787.94 1119.61,-780.506 1109.08,-781.61 1112.06,-787.94"/>
</g>
<!-- Node41 -->
<g id="node41" class="node"><title>Node41</title>
<polygon fill="white" stroke="#bfbfbf" points="894,-705.5 894,-724.5 956,-724.5 956,-705.5 894,-705.5"/>
<text text-anchor="middle" x="925" y="-712.5" font-family="Helvetica,sans-Serif" font-size="10.00">algorithm</text>
</g>
<!-- Node2&#45;&gt;Node41 -->
<g id="edge146" class="edge"><title>Node2&#45;&gt;Node41</title>
<path fill="none" stroke="midnightblue" d="M854.759,-929.097C857.313,-916.508 862.363,-892.829 868,-873 882.372,-822.438 887.32,-810.134 906,-761 909.433,-751.971 913.572,-742.068 917.11,-733.856"/>
<polygon fill="midnightblue" stroke="midnightblue" points="920.378,-735.117 921.171,-724.552 913.963,-732.317 920.378,-735.117"/>
</g>
<!-- Node42 -->
<g id="node42" class="node"><title>Node42</title>
<g id="a_node42"><a xlink:href="var_8h.html" target="_top" xlink:title="Variables in the TIR. ">
<polygon fill="white" stroke="black" points="1193,-817.5 1193,-836.5 1267,-836.5 1267,-817.5 1193,-817.5"/>
<text text-anchor="middle" x="1230" y="-824.5" font-family="Helvetica,sans-Serif" font-size="10.00">tvm/tir/var.h</text>
</a>
</g>
</g>
<!-- Node2&#45;&gt;Node42 -->
<g id="edge135" class="edge"><title>Node2&#45;&gt;Node42</title>
<path fill="none" stroke="midnightblue" d="M882.269,-929.46C949.573,-909.822 1115.36,-861.45 1191.11,-839.348"/>
<polygon fill="midnightblue" stroke="midnightblue" points="1192.13,-842.695 1200.75,-836.535 1190.17,-835.976 1192.13,-842.695"/>
</g>
<!-- Node43 -->
<g id="node43" class="node"><title>Node43</title>
<g id="a_node43"><a xlink:href="buffer_8h.html" target="_top" xlink:title="Symbolic n&#45;dimensional array, to represent a memory buffer. ">
<polygon fill="white" stroke="black" points="1100.5,-873.5 1100.5,-892.5 1187.5,-892.5 1187.5,-873.5 1100.5,-873.5"/>
<text text-anchor="middle" x="1144" y="-880.5" font-family="Helvetica,sans-Serif" font-size="10.00">tvm/tir/buffer.h</text>
</a>
</g>
</g>
<!-- Node2&#45;&gt;Node43 -->
<g id="edge140" class="edge"><title>Node2&#45;&gt;Node43</title>
<path fill="none" stroke="midnightblue" d="M893.157,-930.548C944.489,-921.023 1033.53,-904.5 1090.55,-893.918"/>
<polygon fill="midnightblue" stroke="midnightblue" points="1091.27,-897.345 1100.46,-892.079 1089.99,-890.463 1091.27,-897.345"/>
</g>
<!-- Node3&#45;&gt;Node4 -->
<g id="edge3" class="edge"><title>Node3&#45;&gt;Node4</title>
<path fill="none" stroke="midnightblue" d="M1378.25,-601.886C1522,-601.099 1939.03,-595.469 2069,-557 2117.47,-542.653 2142.53,-544.667 2168,-501 2261.94,-339.934 2154.58,-202.669 1986,-123 1927.97,-95.5759 1855.8,-83.041 1802.73,-77.3135"/>
<polygon fill="midnightblue" stroke="midnightblue" points="1803.02,-73.825 1792.71,-76.2888 1802.3,-80.7886 1803.02,-73.825"/>
</g>
<!-- Node8 -->
<g id="node8" class="node"><title>Node8</title>
<g id="a_node8"><a xlink:href="runtime_2container_8h.html" target="_top" xlink:title="Common POD(plain old data) container types. ">
<polygon fill="white" stroke="black" points="1216,-358.5 1216,-377.5 1348,-377.5 1348,-358.5 1216,-358.5"/>
<text text-anchor="middle" x="1282" y="-365.5" font-family="Helvetica,sans-Serif" font-size="10.00">tvm/runtime/container.h</text>
</a>
</g>
</g>
<!-- Node3&#45;&gt;Node8 -->
<g id="edge7" class="edge"><title>Node3&#45;&gt;Node8</title>
<path fill="none" stroke="midnightblue" d="M1327.27,-593.431C1320.46,-559.683 1295.41,-435.47 1285.79,-387.799"/>
<polygon fill="midnightblue" stroke="midnightblue" points="1289.2,-387.006 1283.79,-377.896 1282.34,-388.39 1289.2,-387.006"/>
</g>
<!-- Node10 -->
<g id="node10" class="node"><title>Node10</title>
<g id="a_node10"><a xlink:href="runtime_2memory_8h.html" target="_top" xlink:title="Runtime memory management. ">
<polygon fill="white" stroke="black" points="1062.5,-179.5 1062.5,-198.5 1189.5,-198.5 1189.5,-179.5 1062.5,-179.5"/>
<text text-anchor="middle" x="1126" y="-186.5" font-family="Helvetica,sans-Serif" font-size="10.00">tvm/runtime/memory.h</text>
</a>
</g>
</g>
<!-- Node3&#45;&gt;Node10 -->
<g id="edge65" class="edge"><title>Node3&#45;&gt;Node10</title>
<path fill="none" stroke="midnightblue" d="M1306.14,-593.401C1255.69,-573.298 1134.01,-518.438 1067,-434 1025.97,-382.306 1016.25,-356.114 1027,-291 1031.28,-265.068 1029.21,-255.224 1046,-235 1057.88,-220.682 1075.57,-210.064 1091.29,-202.748"/>
<polygon fill="midnightblue" stroke="midnightblue" points="1092.99,-205.825 1100.76,-198.617 1090.19,-199.409 1092.99,-205.825"/>
</g>
<!-- Node11 -->
<g id="node11" class="node"><title>Node11</title>
<g id="a_node11"><a xlink:href="object_8h.html" target="_top" xlink:title="A managed object in the TVM runtime. ">
<polygon fill="white" stroke="black" points="974.5,-123.5 974.5,-142.5 1091.5,-142.5 1091.5,-123.5 974.5,-123.5"/>
<text text-anchor="middle" x="1033" y="-130.5" font-family="Helvetica,sans-Serif" font-size="10.00">tvm/runtime/object.h</text>
</a>
</g>
</g>
<!-- Node3&#45;&gt;Node11 -->
<g id="edge64" class="edge"><title>Node3&#45;&gt;Node11</title>
<path fill="none" stroke="midnightblue" d="M1294.2,-593.48C1265.1,-585.751 1222.87,-573.111 1188,-557 1071.36,-503.117 1041.71,-477.971 961,-378 904.44,-307.938 870.178,-251.921 923,-179 934.802,-162.707 953.571,-152.297 972.288,-145.653"/>
<polygon fill="midnightblue" stroke="midnightblue" points="973.591,-148.91 982.034,-142.51 971.442,-142.248 973.591,-148.91"/>
</g>
<!-- Node12 -->
<g id="node12" class="node"><title>Node12</title>
<polygon fill="white" stroke="#bfbfbf" points="2196,-62 2196,-81 2264,-81 2264,-62 2196,-62"/>
<text text-anchor="middle" x="2230" y="-69" font-family="Helvetica,sans-Serif" font-size="10.00">type_traits</text>
</g>
<!-- Node3&#45;&gt;Node12 -->
<g id="edge111" class="edge"><title>Node3&#45;&gt;Node12</title>
<path fill="none" stroke="midnightblue" d="M1378.18,-602.384C1528.01,-603.054 1976.94,-601.219 2115,-557 2306.22,-495.755 2388.63,-445.856 2451,-255 2453.76,-246.551 2455.01,-242.932 2451,-235 2411.21,-156.354 2313.45,-106.492 2262.33,-84.8987"/>
<polygon fill="midnightblue" stroke="midnightblue" points="2263.64,-81.6509 2253.06,-81.0758 2260.97,-88.1227 2263.64,-81.6509"/>
</g>
<!-- Node3&#45;&gt;Node13 -->
<g id="edge108" class="edge"><title>Node3&#45;&gt;Node13</title>
<path fill="none" stroke="midnightblue" d="M1378.2,-601.144C1506.75,-598.515 1863.14,-588.706 2158,-557 2313.32,-540.299 2355.72,-547.028 2505,-501 2572.07,-480.32 2596.73,-481.928 2648,-434 2701.11,-384.356 2759.94,-158.281 2776.47,-91.2718"/>
<polygon fill="midnightblue" stroke="midnightblue" points="2779.93,-91.8489 2778.9,-81.304 2773.13,-90.1883 2779.93,-91.8489"/>
</g>
<!-- Node3&#45;&gt;Node14 -->
<g id="edge110" class="edge"><title>Node3&#45;&gt;Node14</title>
<path fill="none" stroke="midnightblue" d="M1279.99,-597.364C1169.58,-585.191 895.585,-545.205 698,-434 574.112,-364.273 523.596,-334.631 481,-199 469.403,-162.073 470.918,-116.115 472.996,-91.007"/>
<polygon fill="midnightblue" stroke="midnightblue" points="476.481,-91.3326 473.945,-81.0456 469.512,-90.6684 476.481,-91.3326"/>
</g>
<!-- Node21 -->
<g id="node21" class="node"><title>Node21</title>
<polygon fill="white" stroke="#bfbfbf" points="1964.5,-179.5 1964.5,-198.5 2011.5,-198.5 2011.5,-179.5 1964.5,-179.5"/>
<text text-anchor="middle" x="1988" y="-186.5" font-family="Helvetica,sans-Serif" font-size="10.00">vector</text>
</g>
<!-- Node3&#45;&gt;Node21 -->
<g id="edge109" class="edge"><title>Node3&#45;&gt;Node21</title>
<path fill="none" stroke="midnightblue" d="M1378.16,-600.668C1512.53,-596.718 1883.83,-583.644 2003,-557 2069.61,-542.107 2107.53,-557.381 2146,-501 2218.25,-395.108 2063,-251.702 2007.07,-205.218"/>
<polygon fill="midnightblue" stroke="midnightblue" points="2008.95,-202.235 1998.99,-198.61 2004.52,-207.652 2008.95,-202.235"/>
</g>
<!-- Node31 -->
<g id="node31" class="node"><title>Node31</title>
<g id="a_node31"><a xlink:href="reflection_8h.html" target="_top" xlink:title="Reflection and serialization of compiler IR/AST nodes. ">
<polygon fill="white" stroke="black" points="1838.5,-537.5 1838.5,-556.5 1957.5,-556.5 1957.5,-537.5 1838.5,-537.5"/>
<text text-anchor="middle" x="1898" y="-544.5" font-family="Helvetica,sans-Serif" font-size="10.00">tvm/node/reflection.h</text>
</a>
</g>
</g>
<!-- Node3&#45;&gt;Node31 -->
<g id="edge66" class="edge"><title>Node3&#45;&gt;Node31</title>
<path fill="none" stroke="midnightblue" d="M1378.01,-597.349C1479.14,-587.751 1711.27,-565.721 1828.11,-554.633"/>
<polygon fill="midnightblue" stroke="midnightblue" points="1828.74,-558.088 1838.37,-553.659 1828.08,-551.12 1828.74,-558.088"/>
</g>
<!-- Node32 -->
<g id="node32" class="node"><title>Node32</title>
<g id="a_node32"><a xlink:href="structural__equal_8h.html" target="_top" xlink:title="Structural equality comparison. ">
<polygon fill="white" stroke="black" points="2026.5,-470.5 2026.5,-500.5 2137.5,-500.5 2137.5,-470.5 2026.5,-470.5"/>
<text text-anchor="start" x="2034.5" y="-488.5" font-family="Helvetica,sans-Serif" font-size="10.00">tvm/node/structural</text>
<text text-anchor="middle" x="2082" y="-477.5" font-family="Helvetica,sans-Serif" font-size="10.00">_equal.h</text>
</a>
</g>
</g>
<!-- Node3&#45;&gt;Node32 -->
<g id="edge106" class="edge"><title>Node3&#45;&gt;Node32</title>
<path fill="none" stroke="midnightblue" d="M1378.06,-601.512C1507.66,-599.752 1856.66,-591.82 1966,-557 2000.05,-546.156 2034.46,-523.425 2056.86,-506.693"/>
<polygon fill="midnightblue" stroke="midnightblue" points="2059,-509.46 2064.83,-500.611 2054.75,-503.895 2059,-509.46"/>
</g>
<!-- Node3&#45;&gt;Node34 -->
<g id="edge105" class="edge"><title>Node3&#45;&gt;Node34</title>
<path fill="none" stroke="midnightblue" d="M1319.69,-593.463C1289.32,-565.612 1192.82,-477.107 1153.21,-440.786"/>
<polygon fill="midnightblue" stroke="midnightblue" points="1155.41,-438.048 1145.67,-433.868 1150.67,-443.207 1155.41,-438.048"/>
</g>
<!-- Node35 -->
<g id="node35" class="node"><title>Node35</title>
<g id="a_node35"><a xlink:href="structural__hash_8h.html" target="_top" xlink:title="tvm/node/structural\l_hash.h">
<polygon fill="white" stroke="black" points="1360.5,-470.5 1360.5,-500.5 1471.5,-500.5 1471.5,-470.5 1360.5,-470.5"/>
<text text-anchor="start" x="1368.5" y="-488.5" font-family="Helvetica,sans-Serif" font-size="10.00">tvm/node/structural</text>
<text text-anchor="middle" x="1416" y="-477.5" font-family="Helvetica,sans-Serif" font-size="10.00">_hash.h</text>
</a>
</g>
</g>
<!-- Node3&#45;&gt;Node35 -->
<g id="edge107" class="edge"><title>Node3&#45;&gt;Node35</title>
<path fill="none" stroke="midnightblue" d="M1335.54,-593.319C1348.96,-575.502 1379.98,-534.324 1399.34,-508.615"/>
<polygon fill="midnightblue" stroke="midnightblue" points="1402.2,-510.639 1405.42,-500.545 1396.61,-506.427 1402.2,-510.639"/>
</g>
<!-- Node36 -->
<g id="node36" class="node"><title>Node36</title>
<g id="a_node36"><a xlink:href="repr__printer_8h.html" target="_top" xlink:title="Printer class to print repr string of each AST/IR nodes. ">
<polygon fill="white" stroke="black" points="522,-537.5 522,-556.5 652,-556.5 652,-537.5 522,-537.5"/>
<text text-anchor="middle" x="587" y="-544.5" font-family="Helvetica,sans-Serif" font-size="10.00">tvm/node/repr_printer.h</text>
</a>
</g>
</g>
<!-- Node3&#45;&gt;Node36 -->
<g id="edge102" class="edge"><title>Node3&#45;&gt;Node36</title>
<path fill="none" stroke="midnightblue" d="M1279.74,-598.415C1152.86,-589.181 814.205,-564.535 662.421,-553.489"/>
<polygon fill="midnightblue" stroke="midnightblue" points="662.487,-549.984 652.259,-552.749 661.979,-556.966 662.487,-549.984"/>
</g>
<!-- Node5 -->
<g id="node5" class="node"><title>Node5</title>
<polygon fill="white" stroke="#bfbfbf" points="1594,-0.5 1594,-19.5 1684,-19.5 1684,-0.5 1594,-0.5"/>
<text text-anchor="middle" x="1639" y="-7.5" font-family="Helvetica,sans-Serif" font-size="10.00">dlpack/dlpack.h</text>
</g>
<!-- Node4&#45;&gt;Node5 -->
<g id="edge4" class="edge"><title>Node4&#45;&gt;Node5</title>
<path fill="none" stroke="midnightblue" d="M1707.67,-56.3993C1693.51,-47.0402 1674.99,-34.7924 1660.75,-25.3771"/>
<polygon fill="midnightblue" stroke="midnightblue" points="1662.37,-22.2531 1652.1,-19.6578 1658.51,-28.0923 1662.37,-22.2531"/>
</g>
<!-- Node6 -->
<g id="node6" class="node"><title>Node6</title>
<polygon fill="white" stroke="#bfbfbf" points="1702.5,-0.5 1702.5,-19.5 1755.5,-19.5 1755.5,-0.5 1702.5,-0.5"/>
<text text-anchor="middle" x="1729" y="-7.5" font-family="Helvetica,sans-Serif" font-size="10.00">stdint.h</text>
</g>
<!-- Node4&#45;&gt;Node6 -->
<g id="edge5" class="edge"><title>Node4&#45;&gt;Node6</title>
<path fill="none" stroke="midnightblue" d="M1729,-56.3993C1729,-48.4664 1729,-38.458 1729,-29.8583"/>
<polygon fill="midnightblue" stroke="midnightblue" points="1732.5,-29.6577 1729,-19.6578 1725.5,-29.6578 1732.5,-29.6577"/>
</g>
<!-- Node7 -->
<g id="node7" class="node"><title>Node7</title>
<polygon fill="white" stroke="#bfbfbf" points="1773.5,-0.5 1773.5,-19.5 1828.5,-19.5 1828.5,-0.5 1773.5,-0.5"/>
<text text-anchor="middle" x="1801" y="-7.5" font-family="Helvetica,sans-Serif" font-size="10.00">stddef.h</text>
</g>
<!-- Node4&#45;&gt;Node7 -->
<g id="edge6" class="edge"><title>Node4&#45;&gt;Node7</title>
<path fill="none" stroke="midnightblue" d="M1746.06,-56.3993C1757.06,-47.3076 1771.37,-35.4899 1782.62,-26.1909"/>
<polygon fill="midnightblue" stroke="midnightblue" points="1785.04,-28.726 1790.52,-19.6578 1780.59,-23.33 1785.04,-28.726"/>
</g>
<!-- Node9 -->
<g id="node9" class="node"><title>Node9</title>
<polygon fill="white" stroke="#bfbfbf" points="927,-62 927,-81 1013,-81 1013,-62 927,-62"/>
<text text-anchor="middle" x="970" y="-69" font-family="Helvetica,sans-Serif" font-size="10.00">dmlc/logging.h</text>
</g>
<!-- Node8&#45;&gt;Node9 -->
<g id="edge8" class="edge"><title>Node8&#45;&gt;Node9</title>
<path fill="none" stroke="midnightblue" d="M1269.68,-358.327C1248.22,-343.444 1202.35,-312.566 1161,-291 1124.62,-272.029 1109.97,-278.004 1076,-255 1017.97,-215.703 991.674,-207.808 965,-143 958.152,-126.363 960.789,-105.656 964.292,-90.9997"/>
<polygon fill="midnightblue" stroke="midnightblue" points="967.727,-91.7083 966.997,-81.1386 960.976,-89.8566 967.727,-91.7083"/>
</g>
<!-- Node8&#45;&gt;Node10 -->
<g id="edge9" class="edge"><title>Node8&#45;&gt;Node10</title>
<path fill="none" stroke="midnightblue" d="M1284.57,-358.273C1288.56,-342.75 1294.21,-310.173 1278,-291 1230.67,-235 1162.84,-312.225 1117,-255 1106.45,-241.835 1111.12,-222.156 1116.92,-207.901"/>
<polygon fill="midnightblue" stroke="midnightblue" points="1120.18,-209.2 1121.15,-198.65 1113.81,-206.289 1120.18,-209.2"/>
</g>
<!-- Node8&#45;&gt;Node11 -->
<g id="edge20" class="edge"><title>Node8&#45;&gt;Node11</title>
<path fill="none" stroke="midnightblue" d="M1279.71,-358.474C1275.01,-342.682 1262.77,-308.864 1240,-291 1191.82,-253.206 1159.71,-286.167 1107,-255 1077.24,-237.403 1070.56,-228.782 1053,-199 1044.47,-184.54 1039.25,-166.091 1036.29,-152.544"/>
<polygon fill="midnightblue" stroke="midnightblue" points="1039.68,-151.649 1034.31,-142.514 1032.81,-153.002 1039.68,-151.649"/>
</g>
<!-- Node8&#45;&gt;Node12 -->
<g id="edge61" class="edge"><title>Node8&#45;&gt;Node12</title>
<path fill="none" stroke="midnightblue" d="M1348.15,-362.068C1412.33,-356.223 1512.04,-344.325 1596,-322 1603.71,-319.951 1943.22,-183.639 1955,-179 2042.76,-144.455 2146.62,-104.478 2197.96,-84.776"/>
<polygon fill="midnightblue" stroke="midnightblue" points="2199.43,-87.9628 2207.51,-81.1134 2196.92,-81.4272 2199.43,-87.9628"/>
</g>
<!-- Node8&#45;&gt;Node13 -->
<g id="edge60" class="edge"><title>Node8&#45;&gt;Node13</title>
<path fill="none" stroke="midnightblue" d="M1348.23,-365.622C1448.07,-362.575 1642.73,-352.853 1805,-322 2108.91,-264.217 2170.51,-192.312 2472,-123 2571.79,-100.06 2692.02,-83.5381 2748.58,-76.4089"/>
<polygon fill="midnightblue" stroke="midnightblue" points="2749.21,-79.8575 2758.7,-75.1484 2748.35,-72.9112 2749.21,-79.8575"/>
</g>
<!-- Node8&#45;&gt;Node14 -->
<g id="edge62" class="edge"><title>Node8&#45;&gt;Node14</title>
<path fill="none" stroke="midnightblue" d="M1250.21,-358.433C1225.57,-350.973 1191.17,-338.723 1164,-322 1146.59,-311.28 1148.83,-298.985 1130,-291 1013.16,-241.438 672.344,-314.053 560,-255 498.614,-222.733 481.323,-130.854 476.65,-91.151"/>
<polygon fill="midnightblue" stroke="midnightblue" points="480.113,-90.6139 475.604,-81.0262 473.15,-91.3328 480.113,-90.6139"/>
</g>
<!-- Node17 -->
<g id="node17" class="node"><title>Node17</title>
<g id="a_node17"><a xlink:href="packed__func_8h.html" target="_top" xlink:title="Type&#45;erased function used across TVM API. ">
<polygon fill="white" stroke="black" points="1474.5,-291.5 1474.5,-321.5 1587.5,-321.5 1587.5,-291.5 1474.5,-291.5"/>
<text text-anchor="start" x="1482.5" y="-309.5" font-family="Helvetica,sans-Serif" font-size="10.00">tvm/runtime/packed</text>
<text text-anchor="middle" x="1531" y="-298.5" font-family="Helvetica,sans-Serif" font-size="10.00">_func.h</text>
</a>
</g>
</g>
<!-- Node8&#45;&gt;Node17 -->
<g id="edge21" class="edge"><title>Node8&#45;&gt;Node17</title>
<path fill="none" stroke="midnightblue" d="M1317.68,-358.475C1355.84,-349.355 1417.24,-334.683 1464.39,-323.416"/>
<polygon fill="midnightblue" stroke="midnightblue" points="1465.31,-326.795 1474.23,-321.067 1463.69,-319.987 1465.31,-326.795"/>
</g>
<!-- Node8&#45;&gt;Node21 -->
<g id="edge63" class="edge"><title>Node8&#45;&gt;Node21</title>
<path fill="none" stroke="midnightblue" d="M1348.3,-364.752C1462.51,-360.232 1691.38,-348.155 1767,-322 1791,-313.699 1793.26,-304.12 1815,-291 1842.94,-274.139 1850.76,-271.359 1879,-255 1909.03,-237.605 1943.36,-217.011 1965.34,-203.738"/>
<polygon fill="midnightblue" stroke="midnightblue" points="1967.21,-206.698 1973.96,-198.529 1963.59,-200.709 1967.21,-206.698"/>
</g>
<!-- Node29 -->
<g id="node29" class="node"><title>Node29</title>
<polygon fill="white" stroke="#bfbfbf" points="1330.5,-297 1330.5,-316 1379.5,-316 1379.5,-297 1330.5,-297"/>
<text text-anchor="middle" x="1355" y="-304" font-family="Helvetica,sans-Serif" font-size="10.00">cstring</text>
</g>
<!-- Node8&#45;&gt;Node29 -->
<g id="edge58" class="edge"><title>Node8&#45;&gt;Node29</title>
<path fill="none" stroke="midnightblue" d="M1292.46,-358.475C1303.95,-349.108 1322.63,-333.884 1336.59,-322.508"/>
<polygon fill="midnightblue" stroke="midnightblue" points="1339.02,-325.04 1344.56,-316.009 1334.6,-319.614 1339.02,-325.04"/>
</g>
<!-- Node30 -->
<g id="node30" class="node"><title>Node30</title>
<polygon fill="white" stroke="#bfbfbf" points="1044.5,-297 1044.5,-316 1121.5,-316 1121.5,-297 1044.5,-297"/>
<text text-anchor="middle" x="1083" y="-304" font-family="Helvetica,sans-Serif" font-size="10.00">initializer_list</text>
</g>
<!-- Node8&#45;&gt;Node30 -->
<g id="edge59" class="edge"><title>Node8&#45;&gt;Node30</title>
<path fill="none" stroke="midnightblue" d="M1253.49,-358.475C1218.76,-348.092 1159.96,-330.512 1121.31,-318.954"/>
<polygon fill="midnightblue" stroke="midnightblue" points="1122.04,-315.52 1111.46,-316.009 1120.04,-322.227 1122.04,-315.52"/>
</g>
<!-- Node10&#45;&gt;Node11 -->
<g id="edge10" class="edge"><title>Node10&#45;&gt;Node11</title>
<path fill="none" stroke="midnightblue" d="M1111.06,-179.324C1096.41,-170.822 1073.87,-157.729 1056.76,-147.797"/>
<polygon fill="midnightblue" stroke="midnightblue" points="1058.31,-144.649 1047.9,-142.655 1054.8,-150.703 1058.31,-144.649"/>
</g>
<!-- Node10&#45;&gt;Node12 -->
<g id="edge19" class="edge"><title>Node10&#45;&gt;Node12</title>
<path fill="none" stroke="midnightblue" d="M1183.22,-179.468C1274.55,-166.062 1459,-139.859 1616,-123 1829.13,-100.114 2084.85,-82.1117 2185.86,-75.3723"/>
<polygon fill="midnightblue" stroke="midnightblue" points="2186.25,-78.8543 2196,-74.6994 2185.79,-71.8697 2186.25,-78.8543"/>
</g>
<!-- Node10&#45;&gt;Node14 -->
<g id="edge18" class="edge"><title>Node10&#45;&gt;Node14</title>
<path fill="none" stroke="midnightblue" d="M1125.31,-179.088C1123.67,-164.651 1118.19,-136.418 1100,-123 1051.89,-87.5201 626.254,-75.7477 506.326,-73.1195"/>
<polygon fill="midnightblue" stroke="midnightblue" points="506.081,-69.6136 496.009,-72.8997 505.932,-76.612 506.081,-69.6136"/>
</g>
<!-- Node16 -->
<g id="node16" class="node"><title>Node16</title>
<polygon fill="white" stroke="#bfbfbf" points="1148.5,-123.5 1148.5,-142.5 1195.5,-142.5 1195.5,-123.5 1148.5,-123.5"/>
<text text-anchor="middle" x="1172" y="-130.5" font-family="Helvetica,sans-Serif" font-size="10.00">cstdlib</text>
</g>
<!-- Node10&#45;&gt;Node16 -->
<g id="edge17" class="edge"><title>Node10&#45;&gt;Node16</title>
<path fill="none" stroke="midnightblue" d="M1133.6,-179.083C1140.23,-171.298 1150.02,-159.801 1158.06,-150.367"/>
<polygon fill="midnightblue" stroke="midnightblue" points="1160.73,-152.633 1164.55,-142.751 1155.4,-148.094 1160.73,-152.633"/>
</g>
<!-- Node11&#45;&gt;Node4 -->
<g id="edge12" class="edge"><title>Node11&#45;&gt;Node4</title>
<path fill="none" stroke="midnightblue" d="M1091.74,-126.978C1218.27,-116.161 1516.34,-90.6798 1655.29,-78.8011"/>
<polygon fill="midnightblue" stroke="midnightblue" points="1655.76,-82.2744 1665.42,-77.9353 1655.16,-75.2999 1655.76,-82.2744"/>
</g>
<!-- Node11&#45;&gt;Node9 -->
<g id="edge11" class="edge"><title>Node11&#45;&gt;Node9</title>
<path fill="none" stroke="midnightblue" d="M1023.97,-123.475C1014.24,-114.285 998.542,-99.4563 986.577,-88.156"/>
<polygon fill="midnightblue" stroke="midnightblue" points="988.683,-85.3308 979.01,-81.0091 983.877,-90.4199 988.683,-85.3308"/>
</g>
<!-- Node11&#45;&gt;Node12 -->
<g id="edge13" class="edge"><title>Node11&#45;&gt;Node12</title>
<path fill="none" stroke="midnightblue" d="M1091.56,-126.622C1106.98,-125.317 1123.61,-124.009 1139,-123 1545.04,-96.3753 2036.99,-78.9015 2185.49,-73.9461"/>
<polygon fill="midnightblue" stroke="midnightblue" points="2185.7,-77.441 2195.58,-73.611 2185.47,-70.4448 2185.7,-77.441"/>
</g>
<!-- Node11&#45;&gt;Node13 -->
<g id="edge14" class="edge"><title>Node11&#45;&gt;Node13</title>
<path fill="none" stroke="midnightblue" d="M1091.55,-126.46C1106.97,-125.157 1123.6,-123.89 1139,-123 1222.3,-118.186 2525.69,-79.9658 2748.67,-73.4446"/>
<polygon fill="midnightblue" stroke="midnightblue" points="2748.85,-76.9409 2758.75,-73.15 2748.65,-69.9439 2748.85,-76.9409"/>
</g>
<!-- Node11&#45;&gt;Node14 -->
<g id="edge15" class="edge"><title>Node11&#45;&gt;Node14</title>
<path fill="none" stroke="midnightblue" d="M974.339,-125.745C856.837,-113.216 596.18,-85.4216 506.235,-75.8306"/>
<polygon fill="midnightblue" stroke="midnightblue" points="506.448,-72.3336 496.133,-74.7535 505.706,-79.2941 506.448,-72.3336"/>
</g>
<!-- Node15 -->
<g id="node15" class="node"><title>Node15</title>
<polygon fill="white" stroke="#bfbfbf" points="1232,-62 1232,-81 1282,-81 1282,-62 1232,-62"/>
<text text-anchor="middle" x="1257" y="-69" font-family="Helvetica,sans-Serif" font-size="10.00">atomic</text>
</g>
<!-- Node11&#45;&gt;Node15 -->
<g id="edge16" class="edge"><title>Node11&#45;&gt;Node15</title>
<path fill="none" stroke="midnightblue" d="M1065.09,-123.475C1106.76,-112.409 1179.2,-93.1664 1222.16,-81.7539"/>
<polygon fill="midnightblue" stroke="midnightblue" points="1223.13,-85.1184 1231.9,-79.1684 1221.33,-78.353 1223.13,-85.1184"/>
</g>
<!-- Node17&#45;&gt;Node4 -->
<g id="edge23" class="edge"><title>Node17&#45;&gt;Node4</title>
<path fill="none" stroke="midnightblue" d="M1474.04,-293.13C1424.23,-281.739 1358.67,-265.12 1351,-255 1345.63,-247.916 1347.79,-243.289 1351,-235 1375.31,-172.213 1394.13,-155.664 1453,-123 1515.48,-88.3328 1596.98,-76.8138 1655.19,-73.2973"/>
<polygon fill="midnightblue" stroke="midnightblue" points="1655.62,-76.7796 1665.41,-72.7472 1655.24,-69.7897 1655.62,-76.7796"/>
</g>
<!-- Node17&#45;&gt;Node9 -->
<g id="edge22" class="edge"><title>Node17&#45;&gt;Node9</title>
<path fill="none" stroke="midnightblue" d="M1474.07,-293.341C1427.64,-282.837 1366.23,-267.433 1344,-255 1269.36,-213.261 1279.68,-162.814 1204,-123 1146.83,-92.9232 1072.81,-80.7527 1023.48,-75.8322"/>
<polygon fill="midnightblue" stroke="midnightblue" points="1023.63,-72.3307 1013.35,-74.8884 1022.98,-79.3006 1023.63,-72.3307"/>
</g>
<!-- Node17&#45;&gt;Node11 -->
<g id="edge49" class="edge"><title>Node17&#45;&gt;Node11</title>
<path fill="none" stroke="midnightblue" d="M1474.42,-293.924C1469.55,-292.932 1464.69,-291.947 1460,-291 1380.03,-274.838 1352.65,-292.124 1280,-255 1235.75,-232.389 1241.44,-203.121 1198,-179 1167.78,-162.223 1130.93,-151.399 1099.73,-144.583"/>
<polygon fill="midnightblue" stroke="midnightblue" points="1100.31,-141.13 1089.81,-142.509 1098.88,-147.982 1100.31,-141.13"/>
</g>
<!-- Node17&#45;&gt;Node12 -->
<g id="edge57" class="edge"><title>Node17&#45;&gt;Node12</title>
<path fill="none" stroke="midnightblue" d="M1587.78,-295.119C1628.47,-286.734 1684.13,-273.311 1731,-255 1788.24,-232.636 1916.19,-143.852 1974,-123 2045.76,-97.1149 2133.89,-83.4327 2185.79,-77.0999"/>
<polygon fill="midnightblue" stroke="midnightblue" points="2186.47,-80.5444 2195.99,-75.8941 2185.65,-73.5929 2186.47,-80.5444"/>
</g>
<!-- Node17&#45;&gt;Node13 -->
<g id="edge53" class="edge"><title>Node17&#45;&gt;Node13</title>
<path fill="none" stroke="midnightblue" d="M1587.52,-297.722C1635.67,-290.059 1706.21,-276.36 1765,-255 1782.94,-248.482 1785.56,-242.76 1803,-235 2148.7,-81.1443 2621.9,-71.7002 2748.67,-72.1016"/>
<polygon fill="midnightblue" stroke="midnightblue" points="2748.84,-75.6025 2758.86,-72.1585 2748.88,-68.6026 2748.84,-75.6025"/>
</g>
<!-- Node17&#45;&gt;Node14 -->
<g id="edge56" class="edge"><title>Node17&#45;&gt;Node14</title>
<path fill="none" stroke="midnightblue" d="M1474.35,-299.018C1448.11,-296.206 1416.5,-293.085 1388,-291 1299.37,-284.515 666.567,-298.369 589,-255 524.6,-218.993 491.715,-129.919 480.049,-91.0916"/>
<polygon fill="midnightblue" stroke="midnightblue" points="483.323,-89.8113 477.205,-81.1617 476.594,-91.7389 483.323,-89.8113"/>
</g>
<!-- Node18 -->
<g id="node18" class="node"><title>Node18</title>
<g id="a_node18"><a xlink:href="runtime_2module_8h.html" target="_top" xlink:title="Runtime container of the functions generated by TVM, This is used to support dynamically link...">
<polygon fill="white" stroke="black" points="1360,-235.5 1360,-254.5 1484,-254.5 1484,-235.5 1360,-235.5"/>
<text text-anchor="middle" x="1422" y="-242.5" font-family="Helvetica,sans-Serif" font-size="10.00">tvm/runtime/module.h</text>
</a>
</g>
</g>
<!-- Node17&#45;&gt;Node18 -->
<g id="edge24" class="edge"><title>Node17&#45;&gt;Node18</title>
<path fill="none" stroke="midnightblue" d="M1499.33,-291.399C1480.63,-281.862 1457.68,-269.325 1441.55,-259.842"/>
<polygon fill="midnightblue" stroke="midnightblue" points="1443.3,-256.812 1432.93,-254.658 1439.7,-262.811 1443.3,-256.812"/>
</g>
<!-- Node20 -->
<g id="node20" class="node"><title>Node20</title>
<polygon fill="white" stroke="#bfbfbf" points="1474.5,-179.5 1474.5,-198.5 1531.5,-198.5 1531.5,-179.5 1474.5,-179.5"/>
<text text-anchor="middle" x="1503" y="-186.5" font-family="Helvetica,sans-Serif" font-size="10.00">memory</text>
</g>
<!-- Node17&#45;&gt;Node20 -->
<g id="edge55" class="edge"><title>Node17&#45;&gt;Node20</title>
<path fill="none" stroke="midnightblue" d="M1527.57,-291.337C1522.52,-270.527 1513.1,-231.663 1507.51,-208.583"/>
<polygon fill="midnightblue" stroke="midnightblue" points="1510.86,-207.563 1505.1,-198.669 1504.06,-209.213 1510.86,-207.563"/>
</g>
<!-- Node17&#45;&gt;Node21 -->
<g id="edge52" class="edge"><title>Node17&#45;&gt;Node21</title>
<path fill="none" stroke="midnightblue" d="M1587.57,-297.604C1642.98,-289.26 1729.56,-274.593 1803,-255 1858.47,-240.2 1921.14,-216.691 1957.45,-202.371"/>
<polygon fill="midnightblue" stroke="midnightblue" points="1958.97,-205.535 1966.97,-198.59 1956.38,-199.03 1958.97,-205.535"/>
</g>
<!-- Node23 -->
<g id="node23" class="node"><title>Node23</title>
<g id="a_node23"><a xlink:href="ndarray_8h.html" target="_top" xlink:title="A device&#45;independent managed NDArray abstraction. ">
<polygon fill="white" stroke="black" points="1599.5,-235.5 1599.5,-254.5 1722.5,-254.5 1722.5,-235.5 1599.5,-235.5"/>
<text text-anchor="middle" x="1661" y="-242.5" font-family="Helvetica,sans-Serif" font-size="10.00">tvm/runtime/ndarray.h</text>
</a>
</g>
</g>
<!-- Node17&#45;&gt;Node23 -->
<g id="edge34" class="edge"><title>Node17&#45;&gt;Node23</title>
<path fill="none" stroke="midnightblue" d="M1561.81,-291.399C1583.33,-281.55 1611.84,-268.501 1632.77,-258.922"/>
<polygon fill="midnightblue" stroke="midnightblue" points="1634.45,-262.002 1642.08,-254.658 1631.53,-255.637 1634.45,-262.002"/>
</g>
<!-- Node17&#45;&gt;Node25 -->
<g id="edge44" class="edge"><title>Node17&#45;&gt;Node25</title>
<path fill="none" stroke="midnightblue" d="M1587.77,-301.125C1723.89,-290.634 2069.09,-264.028 2224.75,-252.031"/>
<polygon fill="midnightblue" stroke="midnightblue" points="2225.03,-255.52 2234.73,-251.262 2224.49,-248.541 2225.03,-255.52"/>
</g>
<!-- Node26 -->
<g id="node26" class="node"><title>Node26</title>
<polygon fill="white" stroke="#bfbfbf" points="1126.5,-235.5 1126.5,-254.5 1189.5,-254.5 1189.5,-235.5 1126.5,-235.5"/>
<text text-anchor="middle" x="1158" y="-242.5" font-family="Helvetica,sans-Serif" font-size="10.00">functional</text>
</g>
<!-- Node17&#45;&gt;Node26 -->
<g id="edge50" class="edge"><title>Node17&#45;&gt;Node26</title>
<path fill="none" stroke="midnightblue" d="M1474.35,-296.463C1398.9,-284.428 1267.18,-263.415 1200,-252.699"/>
<polygon fill="midnightblue" stroke="midnightblue" points="1200.21,-249.19 1189.79,-251.071 1199.11,-256.102 1200.21,-249.19"/>
</g>
<!-- Node27 -->
<g id="node27" class="node"><title>Node27</title>
<polygon fill="white" stroke="#bfbfbf" points="1540.5,-235.5 1540.5,-254.5 1581.5,-254.5 1581.5,-235.5 1540.5,-235.5"/>
<text text-anchor="middle" x="1561" y="-242.5" font-family="Helvetica,sans-Serif" font-size="10.00">tuple</text>
</g>
<!-- Node17&#45;&gt;Node27 -->
<g id="edge51" class="edge"><title>Node17&#45;&gt;Node27</title>
<path fill="none" stroke="midnightblue" d="M1538.11,-291.399C1542.29,-283.11 1547.61,-272.554 1552.07,-263.708"/>
<polygon fill="midnightblue" stroke="midnightblue" points="1555.26,-265.163 1556.63,-254.658 1549.01,-262.011 1555.26,-265.163"/>
</g>
<!-- Node17&#45;&gt;Node28 -->
<g id="edge54" class="edge"><title>Node17&#45;&gt;Node28</title>
<path fill="none" stroke="midnightblue" d="M1474.32,-299.4C1448.07,-296.666 1416.46,-293.501 1388,-291 1168.46,-271.708 903.62,-253.89 814.202,-248.024"/>
<polygon fill="midnightblue" stroke="midnightblue" points="814.389,-244.529 804.182,-247.369 813.932,-251.514 814.389,-244.529"/>
</g>
<!-- Node18&#45;&gt;Node4 -->
<g id="edge26" class="edge"><title>Node18&#45;&gt;Node4</title>
<path fill="none" stroke="midnightblue" d="M1418.36,-235.484C1413.26,-222.1 1405.91,-195.926 1418,-179 1471.64,-103.94 1581.53,-81.2083 1655.26,-74.6484"/>
<polygon fill="midnightblue" stroke="midnightblue" points="1655.73,-78.122 1665.41,-73.8263 1655.16,-71.1448 1655.73,-78.122"/>
</g>
<!-- Node18&#45;&gt;Node10 -->
<g id="edge28" class="edge"><title>Node18&#45;&gt;Node10</title>
<path fill="none" stroke="midnightblue" d="M1375.1,-235.444C1322.92,-225.925 1238.63,-210.547 1182.77,-200.356"/>
<polygon fill="midnightblue" stroke="midnightblue" points="1183.15,-196.868 1172.68,-198.516 1181.89,-203.754 1183.15,-196.868"/>
</g>
<!-- Node18&#45;&gt;Node11 -->
<g id="edge27" class="edge"><title>Node18&#45;&gt;Node11</title>
<path fill="none" stroke="midnightblue" d="M1399.44,-235.399C1364.1,-222.131 1293.38,-196.386 1232,-179 1183.46,-165.252 1127.33,-152.872 1087.09,-144.594"/>
<polygon fill="midnightblue" stroke="midnightblue" points="1087.71,-141.149 1077.21,-142.579 1086.31,-148.008 1087.71,-141.149"/>
</g>
<!-- Node18&#45;&gt;Node13 -->
<g id="edge31" class="edge"><title>Node18&#45;&gt;Node13</title>
<path fill="none" stroke="midnightblue" d="M1424.85,-235.416C1430.17,-220.928 1443.1,-191.937 1465,-179 1522.11,-145.265 2552.08,-85.453 2748.71,-74.3129"/>
<polygon fill="midnightblue" stroke="midnightblue" points="2749.17,-77.7926 2758.96,-73.7338 2748.78,-70.8037 2749.17,-77.7926"/>
</g>
<!-- Node18&#45;&gt;Node17 -->
<g id="edge33" class="edge"><title>Node18&#45;&gt;Node17</title>
<path fill="none" stroke="midnightblue" d="M1442.79,-254.658C1459.73,-262.934 1483.58,-275.694 1502.29,-286.36"/>
<polygon fill="midnightblue" stroke="midnightblue" points="1500.6,-289.425 1511.01,-291.399 1504.1,-283.365 1500.6,-289.425"/>
</g>
<!-- Node19 -->
<g id="node19" class="node"><title>Node19</title>
<polygon fill="white" stroke="#bfbfbf" points="1625,-123.5 1625,-142.5 1685,-142.5 1685,-123.5 1625,-123.5"/>
<text text-anchor="middle" x="1655" y="-130.5" font-family="Helvetica,sans-Serif" font-size="10.00">dmlc/io.h</text>
</g>
<!-- Node18&#45;&gt;Node19 -->
<g id="edge25" class="edge"><title>Node18&#45;&gt;Node19</title>
<path fill="none" stroke="midnightblue" d="M1420.49,-235.073C1418.67,-221.127 1417.49,-194.196 1432,-179 1435.16,-175.685 1551.03,-153.509 1614.47,-141.573"/>
<polygon fill="midnightblue" stroke="midnightblue" points="1615.36,-144.966 1624.54,-139.68 1614.07,-138.087 1615.36,-144.966"/>
</g>
<!-- Node18&#45;&gt;Node20 -->
<g id="edge29" class="edge"><title>Node18&#45;&gt;Node20</title>
<path fill="none" stroke="midnightblue" d="M1435.01,-235.324C1447.53,-226.979 1466.68,-214.212 1481.47,-204.352"/>
<polygon fill="midnightblue" stroke="midnightblue" points="1483.64,-207.114 1490.02,-198.655 1479.76,-201.289 1483.64,-207.114"/>
</g>
<!-- Node18&#45;&gt;Node21 -->
<g id="edge30" class="edge"><title>Node18&#45;&gt;Node21</title>
<path fill="none" stroke="midnightblue" d="M1484.19,-238.067C1603.66,-226.668 1861.62,-202.058 1954.12,-193.232"/>
<polygon fill="midnightblue" stroke="midnightblue" points="1954.69,-196.694 1964.32,-192.26 1954.03,-189.725 1954.69,-196.694"/>
</g>
<!-- Node18&#45;&gt;Node22 -->
<g id="edge32" class="edge"><title>Node18&#45;&gt;Node22</title>
<path fill="none" stroke="midnightblue" d="M1359.96,-241.192C1152.62,-231.807 485.653,-201.617 285.991,-192.58"/>
<polygon fill="midnightblue" stroke="midnightblue" points="285.876,-189.071 275.728,-192.115 285.56,-196.064 285.876,-189.071"/>
</g>
<!-- Node23&#45;&gt;Node4 -->
<g id="edge35" class="edge"><title>Node23&#45;&gt;Node4</title>
<path fill="none" stroke="midnightblue" d="M1707.25,-235.45C1744.13,-227.58 1791.47,-214.754 1803,-199 1828.8,-163.759 1786.73,-118.901 1756.2,-93.1685"/>
<polygon fill="midnightblue" stroke="midnightblue" points="1758.31,-90.3705 1748.36,-86.7488 1753.88,-95.789 1758.31,-90.3705"/>
</g>
<!-- Node23&#45;&gt;Node11 -->
<g id="edge36" class="edge"><title>Node23&#45;&gt;Node11</title>
<path fill="none" stroke="midnightblue" d="M1646.63,-235.326C1619.62,-219.191 1562.05,-185.597 1540,-179 1534.81,-177.446 1239.36,-151.807 1101.93,-139.94"/>
<polygon fill="midnightblue" stroke="midnightblue" points="1102.18,-136.449 1091.92,-139.076 1101.58,-143.423 1102.18,-136.449"/>
</g>
<!-- Node23&#45;&gt;Node14 -->
<g id="edge43" class="edge"><title>Node23&#45;&gt;Node14</title>
<path fill="none" stroke="midnightblue" d="M1652.54,-235.104C1638.27,-220.691 1607.81,-192.492 1576,-179 1375.31,-93.8816 664.645,-75.9752 506.39,-73.0127"/>
<polygon fill="midnightblue" stroke="midnightblue" points="506.431,-69.5129 496.369,-72.8315 506.304,-76.5118 506.431,-69.5129"/>
</g>
<!-- Node23&#45;&gt;Node15 -->
<g id="edge41" class="edge"><title>Node23&#45;&gt;Node15</title>
<path fill="none" stroke="midnightblue" d="M1656.85,-235.447C1649.66,-221.526 1633.57,-194.018 1612,-179 1509.99,-107.985 1359.8,-83.5033 1292.22,-75.7637"/>
<polygon fill="midnightblue" stroke="midnightblue" points="1292.43,-72.2652 1282.11,-74.6607 1291.67,-79.224 1292.43,-72.2652"/>
</g>
<!-- Node23&#45;&gt;Node21 -->
<g id="edge42" class="edge"><title>Node23&#45;&gt;Node21</title>
<path fill="none" stroke="midnightblue" d="M1712.81,-235.444C1780.46,-224.273 1896.96,-205.034 1954.23,-195.577"/>
<polygon fill="midnightblue" stroke="midnightblue" points="1954.91,-199.012 1964.2,-193.93 1953.77,-192.106 1954.91,-199.012"/>
</g>
<!-- Node24 -->
<g id="node24" class="node"><title>Node24</title>
<g id="a_node24"><a xlink:href="serializer_8h.html" target="_top" xlink:title="Serializer extension to support TVM data types Include this file to enable serialization of DLDataTyp...">
<polygon fill="white" stroke="red" points="1664,-179.5 1664,-198.5 1794,-198.5 1794,-179.5 1664,-179.5"/>
<text text-anchor="middle" x="1729" y="-186.5" font-family="Helvetica,sans-Serif" font-size="10.00">tvm/runtime/serializer.h</text>
</a>
</g>
</g>
<!-- Node23&#45;&gt;Node24 -->
<g id="edge37" class="edge"><title>Node23&#45;&gt;Node24</title>
<path fill="none" stroke="midnightblue" d="M1666.81,-235.324C1675.43,-227.058 1690.98,-214.453 1704.5,-204.632"/>
<polygon fill="midnightblue" stroke="midnightblue" points="1706.83,-207.272 1712.99,-198.655 1702.8,-201.548 1706.83,-207.272"/>
</g>
<!-- Node24&#45;&gt;Node4 -->
<g id="edge39" class="edge"><title>Node24&#45;&gt;Node4</title>
<path fill="none" stroke="midnightblue" d="M1729,-179.319C1729,-161.967 1729,-122.457 1729,-96.6579"/>
<polygon fill="midnightblue" stroke="midnightblue" points="1732.5,-96.5453 1729,-86.5453 1725.5,-96.5453 1732.5,-96.5453"/>
</g>
<!-- Node24&#45;&gt;Node19 -->
<g id="edge38" class="edge"><title>Node24&#45;&gt;Node19</title>
<path fill="none" stroke="midnightblue" d="M1717.11,-179.324C1705.85,-171.107 1688.71,-158.602 1675.29,-148.807"/>
<polygon fill="midnightblue" stroke="midnightblue" points="1677.25,-145.901 1667.11,-142.834 1673.12,-151.556 1677.25,-145.901"/>
</g>
<!-- Node24&#45;&gt;Node23 -->
<g id="edge40" class="edge"><title>Node24&#45;&gt;Node23</title>
<path fill="none" stroke="midnightblue" d="M1723.02,-198.834C1714.37,-207.106 1698.92,-219.62 1685.48,-229.38"/>
<polygon fill="midnightblue" stroke="midnightblue" points="1683.2,-226.706 1677.04,-235.324 1687.23,-232.43 1683.2,-226.706"/>
</g>
<!-- Node25&#45;&gt;Node4 -->
<g id="edge45" class="edge"><title>Node25&#45;&gt;Node4</title>
<path fill="none" stroke="midnightblue" d="M2294.19,-235.396C2270.21,-212.556 2200.8,-150.281 2130,-123 2071.98,-100.642 1902.1,-85.0376 1803.06,-77.5512"/>
<polygon fill="midnightblue" stroke="midnightblue" points="1803.05,-74.0409 1792.81,-76.7869 1802.53,-81.0215 1803.05,-74.0409"/>
</g>
<!-- Node25&#45;&gt;Node9 -->
<g id="edge46" class="edge"><title>Node25&#45;&gt;Node9</title>
<path fill="none" stroke="midnightblue" d="M2268.72,-235.477C2215.62,-222.423 2110.2,-197.092 2020,-179 1875.86,-150.09 1839.96,-140.581 1694,-123 1564.03,-107.344 1168.02,-83.8307 1023.51,-75.5315"/>
<polygon fill="midnightblue" stroke="midnightblue" points="1023.33,-72.0153 1013.14,-74.9374 1022.92,-79.0038 1023.33,-72.0153"/>
</g>
<!-- Node25&#45;&gt;Node12 -->
<g id="edge47" class="edge"><title>Node25&#45;&gt;Node12</title>
<path fill="none" stroke="midnightblue" d="M2298.3,-235.251C2289.1,-217.942 2268.37,-177.972 2254,-143 2246.87,-125.656 2240.12,-105.336 2235.6,-90.9793"/>
<polygon fill="midnightblue" stroke="midnightblue" points="2238.91,-89.8323 2232.61,-81.3108 2232.22,-91.8984 2238.91,-89.8323"/>
</g>
<!-- Node25&#45;&gt;Node13 -->
<g id="edge48" class="edge"><title>Node25&#45;&gt;Node13</title>
<path fill="none" stroke="midnightblue" d="M2315.05,-235.442C2346.88,-213.249 2436.53,-153.46 2520,-123 2599.17,-94.1104 2698.19,-80.7406 2748.46,-75.4489"/>
<polygon fill="midnightblue" stroke="midnightblue" points="2749.12,-78.9006 2758.71,-74.4116 2748.41,-71.9362 2749.12,-78.9006"/>
</g>
<!-- Node31&#45;&gt;Node4 -->
<g id="edge67" class="edge"><title>Node31&#45;&gt;Node4</title>
<path fill="none" stroke="midnightblue" d="M1904.88,-537.456C1939.23,-494.387 2089.48,-300.575 2066,-235 2028.46,-130.148 1890.03,-92.8536 1802.7,-79.6561"/>
<polygon fill="midnightblue" stroke="midnightblue" points="1802.97,-76.1593 1792.57,-78.1991 1801.97,-83.088 1802.97,-76.1593"/>
</g>
<!-- Node31&#45;&gt;Node10 -->
<g id="edge69" class="edge"><title>Node31&#45;&gt;Node10</title>
<path fill="none" stroke="midnightblue" d="M1874.68,-537.499C1851.97,-528.998 1816.64,-515.18 1787,-501 1639.3,-430.332 1606.89,-403.709 1465,-322 1441.68,-308.573 1438.01,-300.917 1413,-291 1344.03,-263.655 1319.69,-280.446 1250,-255 1212.71,-241.385 1172.53,-218.686 1148.33,-204.036"/>
<polygon fill="midnightblue" stroke="midnightblue" points="1149.93,-200.913 1139.58,-198.667 1146.27,-206.88 1149.93,-200.913"/>
</g>
<!-- Node31&#45;&gt;Node11 -->
<g id="edge68" class="edge"><title>Node31&#45;&gt;Node11</title>
<path fill="none" stroke="midnightblue" d="M1838.39,-543.404C1671.14,-535.278 1200.99,-506.418 1067,-434 977.665,-385.717 942.379,-355.05 925,-255 919.108,-221.079 918.06,-205.533 940,-179 952.73,-163.605 971.986,-153.088 989.681,-146.118"/>
<polygon fill="midnightblue" stroke="midnightblue" points="991.108,-149.323 999.299,-142.603 988.705,-142.748 991.108,-149.323"/>
</g>
<!-- Node31&#45;&gt;Node12 -->
<g id="edge101" class="edge"><title>Node31&#45;&gt;Node12</title>
<path fill="none" stroke="midnightblue" d="M1957.74,-543.206C2009.51,-538.938 2085.41,-528.166 2146,-501 2263.88,-448.151 2314.1,-435.925 2375,-322 2393.26,-287.844 2394.42,-270.945 2380,-235 2358.93,-182.487 2330.25,-184.698 2292,-143 2275.24,-124.725 2256.5,-103.272 2244.06,-88.8724"/>
<polygon fill="midnightblue" stroke="midnightblue" points="2246.7,-86.5771 2237.52,-81.2867 2241.4,-91.1468 2246.7,-86.5771"/>
</g>
<!-- Node31&#45;&gt;Node13 -->
<g id="edge100" class="edge"><title>Node31&#45;&gt;Node13</title>
<path fill="none" stroke="midnightblue" d="M1957.55,-544.966C2137.76,-540.242 2665,-514.03 2665,-369 2665,-369 2665,-369 2665,-305.5 2665,-215.558 2735.12,-124.624 2766.33,-88.6123"/>
<polygon fill="midnightblue" stroke="midnightblue" points="2769.02,-90.8485 2773.03,-81.0391 2763.78,-86.2109 2769.02,-90.8485"/>
</g>
<!-- Node31&#45;&gt;Node17 -->
<g id="edge70" class="edge"><title>Node31&#45;&gt;Node17</title>
<path fill="none" stroke="midnightblue" d="M1885.84,-537.493C1847.11,-510.468 1722.91,-424.442 1617,-358 1600.08,-347.385 1580.95,-336.082 1565.03,-326.867"/>
<polygon fill="midnightblue" stroke="midnightblue" points="1566.48,-323.665 1556.07,-321.703 1562.99,-329.729 1566.48,-323.665"/>
</g>
<!-- Node31&#45;&gt;Node21 -->
<g id="edge99" class="edge"><title>Node31&#45;&gt;Node21</title>
<path fill="none" stroke="midnightblue" d="M1900.22,-537.2C1911.97,-490.741 1966.85,-273.672 1983.32,-208.529"/>
<polygon fill="midnightblue" stroke="midnightblue" points="1986.71,-209.364 1985.77,-198.811 1979.93,-207.648 1986.71,-209.364"/>
</g>
<!-- Node31&#45;&gt;Node23 -->
<g id="edge71" class="edge"><title>Node31&#45;&gt;Node23</title>
<path fill="none" stroke="midnightblue" d="M1891.16,-537.345C1858.52,-496.029 1718.33,-318.568 1674.29,-262.824"/>
<polygon fill="midnightblue" stroke="midnightblue" points="1676.81,-260.367 1667.87,-254.69 1671.32,-264.706 1676.81,-260.367"/>
</g>
<!-- Node31&#45;&gt;Node25 -->
<g id="edge72" class="edge"><title>Node31&#45;&gt;Node25</title>
<path fill="none" stroke="midnightblue" d="M1914.15,-537.366C1929.84,-528.765 1954.14,-514.876 1974,-501 2094.92,-416.518 2111.11,-376.927 2231,-291 2246.63,-279.8 2265.02,-268.332 2279.3,-259.775"/>
<polygon fill="midnightblue" stroke="midnightblue" points="2281.21,-262.715 2288.03,-254.605 2277.64,-256.693 2281.21,-262.715"/>
</g>
<!-- Node31&#45;&gt;Node32 -->
<g id="edge73" class="edge"><title>Node31&#45;&gt;Node32</title>
<path fill="none" stroke="midnightblue" d="M1924.36,-537.475C1951.5,-528.701 1994.52,-514.788 2028.77,-503.712"/>
<polygon fill="midnightblue" stroke="midnightblue" points="2030.2,-506.93 2038.63,-500.523 2028.04,-500.27 2030.2,-506.93"/>
</g>
<!-- Node31&#45;&gt;Node35 -->
<g id="edge93" class="edge"><title>Node31&#45;&gt;Node35</title>
<path fill="none" stroke="midnightblue" d="M1838.41,-538.644C1747.77,-527.455 1575.85,-506.232 1481.7,-494.61"/>
<polygon fill="midnightblue" stroke="midnightblue" points="1482.08,-491.13 1471.72,-493.379 1481.22,-498.078 1482.08,-491.13"/>
</g>
<!-- Node32&#45;&gt;Node13 -->
<g id="edge92" class="edge"><title>Node32&#45;&gt;Node13</title>
<path fill="none" stroke="midnightblue" d="M2137.7,-481.767C2240.82,-476.119 2457.34,-461.342 2527,-434 2566.06,-418.671 2579.31,-412.628 2603,-378 2669.3,-281.099 2596.31,-212.754 2672,-123 2691.65,-99.7026 2724.38,-86.548 2748.86,-79.5477"/>
<polygon fill="midnightblue" stroke="midnightblue" points="2750.01,-82.8621 2758.78,-76.9128 2748.22,-76.0966 2750.01,-82.8621"/>
</g>
<!-- Node32&#45;&gt;Node25 -->
<g id="edge74" class="edge"><title>Node32&#45;&gt;Node25</title>
<path fill="none" stroke="midnightblue" d="M2095.84,-470.458C2105.72,-460.384 2119.27,-446.448 2131,-434 2190.04,-371.341 2258.71,-295.304 2288.26,-262.439"/>
<polygon fill="midnightblue" stroke="midnightblue" points="2291.13,-264.481 2295.2,-254.703 2285.92,-259.804 2291.13,-264.481"/>
</g>
<!-- Node32&#45;&gt;Node33 -->
<g id="edge75" class="edge"><title>Node32&#45;&gt;Node33</title>
<path fill="none" stroke="midnightblue" d="M2026.37,-482.839C1857.03,-476.997 1350.69,-453.484 1207,-378 1161.29,-353.986 1176.04,-314.389 1130,-291 1125.43,-288.677 845.066,-263.302 715.899,-251.713"/>
<polygon fill="midnightblue" stroke="midnightblue" points="716.019,-248.21 705.746,-250.803 715.394,-255.182 716.019,-248.21"/>
</g>
<!-- Node32&#45;&gt;Node34 -->
<g id="edge81" class="edge"><title>Node32&#45;&gt;Node34</title>
<path fill="none" stroke="midnightblue" d="M2026.36,-481C1863.18,-470.737 1386.09,-440.729 1205.95,-429.4"/>
<polygon fill="midnightblue" stroke="midnightblue" points="1206,-425.896 1195.8,-428.761 1205.56,-432.882 1206,-425.896"/>
</g>
<!-- Node33&#45;&gt;Node9 -->
<g id="edge76" class="edge"><title>Node33&#45;&gt;Node9</title>
<path fill="none" stroke="midnightblue" d="M656.959,-235.228C665.126,-221.493 682.647,-194.847 704,-179 771.642,-128.801 866.181,-98.4147 922.44,-83.5937"/>
<polygon fill="midnightblue" stroke="midnightblue" points="923.336,-86.9773 932.145,-81.0915 921.588,-80.1989 923.336,-86.9773"/>
</g>
<!-- Node33&#45;&gt;Node11 -->
<g id="edge77" class="edge"><title>Node33&#45;&gt;Node11</title>
<path fill="none" stroke="midnightblue" d="M667.746,-235.268C696.655,-219.359 757.311,-186.593 780,-179 813.313,-167.851 901.383,-153.39 964.234,-143.91"/>
<polygon fill="midnightblue" stroke="midnightblue" points="965.111,-147.318 974.482,-142.375 964.074,-140.395 965.111,-147.318"/>
</g>
<!-- Node33&#45;&gt;Node12 -->
<g id="edge79" class="edge"><title>Node33&#45;&gt;Node12</title>
<path fill="none" stroke="midnightblue" d="M662.135,-235.285C680.777,-219.406 720.054,-186.687 736,-179 830.382,-133.501 861.246,-137.607 965,-123 1026.6,-114.328 1968.77,-81.4928 2185.69,-74.0198"/>
<polygon fill="midnightblue" stroke="midnightblue" points="2185.89,-77.5153 2195.76,-73.6733 2185.65,-70.5195 2185.89,-77.5153"/>
</g>
<!-- Node33&#45;&gt;Node14 -->
<g id="edge80" class="edge"><title>Node33&#45;&gt;Node14</title>
<path fill="none" stroke="midnightblue" d="M645.633,-235.232C639.74,-226.532 631.393,-212.572 628,-199 621.886,-174.544 633.92,-168.019 637,-143 638.086,-134.178 642.268,-130.16 637,-123 606.999,-82.2225 544.278,-73.4349 506.284,-72.064"/>
<polygon fill="midnightblue" stroke="midnightblue" points="506.342,-68.5645 496.271,-71.8536 506.195,-75.563 506.342,-68.5645"/>
</g>
<!-- Node33&#45;&gt;Node21 -->
<g id="edge78" class="edge"><title>Node33&#45;&gt;Node21</title>
<path fill="none" stroke="midnightblue" d="M705.686,-238.667C720.962,-237.299 737.626,-235.948 753,-235 1219.06,-206.267 1336.46,-218.345 1803,-199 1855.78,-196.811 1917.01,-193.725 1954.1,-191.795"/>
<polygon fill="midnightblue" stroke="midnightblue" points="1954.55,-195.277 1964.35,-191.259 1954.18,-188.286 1954.55,-195.277"/>
</g>
<!-- Node34&#45;&gt;Node8 -->
<g id="edge85" class="edge"><title>Node34&#45;&gt;Node8</title>
<path fill="none" stroke="midnightblue" d="M1159.13,-414.444C1183.48,-405.438 1222.01,-391.189 1249.42,-381.049"/>
<polygon fill="midnightblue" stroke="midnightblue" points="1250.81,-384.268 1258.97,-377.516 1248.38,-377.703 1250.81,-384.268"/>
</g>
<!-- Node34&#45;&gt;Node10 -->
<g id="edge83" class="edge"><title>Node34&#45;&gt;Node10</title>
<path fill="none" stroke="midnightblue" d="M1121.81,-414.28C1098.46,-398.987 1052.75,-364.842 1035,-322 1015.43,-274.753 1070.82,-227.334 1103.66,-204.325"/>
<polygon fill="midnightblue" stroke="midnightblue" points="1105.93,-207.013 1112.24,-198.503 1102,-201.22 1105.93,-207.013"/>
</g>
<!-- Node34&#45;&gt;Node11 -->
<g id="edge82" class="edge"><title>Node34&#45;&gt;Node11</title>
<path fill="none" stroke="midnightblue" d="M1115.67,-414.43C1071.28,-394.386 966.855,-339.636 932,-255 913.204,-209.36 971.04,-167.963 1006.85,-147.489"/>
<polygon fill="midnightblue" stroke="midnightblue" points="1008.79,-150.414 1015.85,-142.514 1005.4,-144.288 1008.79,-150.414"/>
</g>
<!-- Node34&#45;&gt;Node12 -->
<g id="edge86" class="edge"><title>Node34&#45;&gt;Node12</title>
<path fill="none" stroke="midnightblue" d="M1195.52,-419.657C1284.42,-414.123 1456.95,-401.286 1602,-378 1713.57,-360.09 1745.99,-366.163 1850,-322 2002.42,-257.281 2160.26,-131.047 2212.24,-87.61"/>
<polygon fill="midnightblue" stroke="midnightblue" points="2214.52,-90.2661 2219.92,-81.1502 2210.02,-84.9095 2214.52,-90.2661"/>
</g>
<!-- Node34&#45;&gt;Node13 -->
<g id="edge91" class="edge"><title>Node34&#45;&gt;Node13</title>
<path fill="none" stroke="midnightblue" d="M1195.67,-419.204C1413.13,-404.719 2161.82,-348.953 2380,-255 2470.46,-216.046 2468.49,-164.093 2558,-123 2621.96,-93.6375 2704.28,-80.7241 2748.86,-75.5591"/>
<polygon fill="midnightblue" stroke="midnightblue" points="2749.26,-79.0354 2758.82,-74.4618 2748.5,-72.0775 2749.26,-79.0354"/>
</g>
<!-- Node34&#45;&gt;Node14 -->
<g id="edge90" class="edge"><title>Node34&#45;&gt;Node14</title>
<path fill="none" stroke="midnightblue" d="M1099.35,-414.434C975.595,-385.294 578.33,-289.885 531,-255 478.777,-216.509 473.676,-130.177 474.168,-91.6719"/>
<polygon fill="midnightblue" stroke="midnightblue" points="477.675,-91.4568 474.454,-81.3635 470.677,-91.2625 477.675,-91.4568"/>
</g>
<!-- Node34&#45;&gt;Node17 -->
<g id="edge84" class="edge"><title>Node34&#45;&gt;Node17</title>
<path fill="none" stroke="midnightblue" d="M1192.57,-414.435C1237.64,-406.906 1302.08,-394.563 1357,-378 1404.49,-363.677 1457.01,-341.467 1491.8,-325.81"/>
<polygon fill="midnightblue" stroke="midnightblue" points="1493.46,-328.9 1501.12,-321.58 1490.57,-322.525 1493.46,-328.9"/>
</g>
<!-- Node34&#45;&gt;Node21 -->
<g id="edge87" class="edge"><title>Node34&#45;&gt;Node21</title>
<path fill="none" stroke="midnightblue" d="M1195.53,-417.217C1337.67,-402.896 1693.3,-363.903 1805,-322 1875.07,-295.714 1942.47,-235.151 1972.16,-206.107"/>
<polygon fill="midnightblue" stroke="midnightblue" points="1974.89,-208.338 1979.51,-198.806 1969.95,-203.373 1974.89,-208.338"/>
</g>
<!-- Node34&#45;&gt;Node22 -->
<g id="edge89" class="edge"><title>Node34&#45;&gt;Node22</title>
<path fill="none" stroke="midnightblue" d="M1084.83,-414.435C1035.72,-405.991 959.549,-392.307 894,-378 674.63,-330.119 618.453,-321.523 404,-255 352.442,-239.007 293.895,-216.31 259.278,-202.402"/>
<polygon fill="midnightblue" stroke="midnightblue" points="260.339,-199.056 249.756,-198.555 257.717,-205.546 260.339,-199.056"/>
</g>
<!-- Node34&#45;&gt;Node30 -->
<g id="edge88" class="edge"><title>Node34&#45;&gt;Node30</title>
<path fill="none" stroke="midnightblue" d="M1132.02,-414.319C1123.38,-395.506 1102.8,-350.648 1091.24,-325.455"/>
<polygon fill="midnightblue" stroke="midnightblue" points="1094.38,-323.911 1087.03,-316.282 1088.02,-326.831 1094.38,-323.911"/>
</g>
<!-- Node35&#45;&gt;Node13 -->
<g id="edge97" class="edge"><title>Node35&#45;&gt;Node13</title>
<path fill="none" stroke="midnightblue" d="M1471.75,-482.39C1671.5,-473.921 2348.98,-437.11 2527,-322 2615.11,-265.028 2573.12,-189.836 2654,-123 2681.73,-100.081 2721.17,-86.5958 2748.71,-79.4091"/>
<polygon fill="midnightblue" stroke="midnightblue" points="2749.77,-82.7533 2758.64,-76.9567 2748.09,-75.9577 2749.77,-82.7533"/>
</g>
<!-- Node35&#45;&gt;Node25 -->
<g id="edge94" class="edge"><title>Node35&#45;&gt;Node25</title>
<path fill="none" stroke="midnightblue" d="M1470.56,-470.461C1578.24,-442.678 1825.66,-378.481 2033,-322 2114.93,-299.682 2210.52,-272.506 2263.14,-257.445"/>
<polygon fill="midnightblue" stroke="midnightblue" points="2264.43,-260.718 2273.08,-254.6 2262.5,-253.988 2264.43,-260.718"/>
</g>
<!-- Node35&#45;&gt;Node26 -->
<g id="edge98" class="edge"><title>Node35&#45;&gt;Node26</title>
<path fill="none" stroke="midnightblue" d="M1418.87,-470.263C1425.12,-434.709 1435.85,-341.283 1388,-291 1388,-291 1266.52,-267.233 1200.14,-254.244"/>
<polygon fill="midnightblue" stroke="midnightblue" points="1200.47,-250.742 1189.98,-252.257 1199.12,-257.612 1200.47,-250.742"/>
</g>
<!-- Node35&#45;&gt;Node33 -->
<g id="edge95" class="edge"><title>Node35&#45;&gt;Node33</title>
<path fill="none" stroke="midnightblue" d="M1360.24,-480.263C1290.71,-474.108 1168.62,-460.424 1067,-434 932.076,-398.914 898.851,-384.031 774,-322 736.712,-303.474 696.205,-276.813 672.515,-260.49"/>
<polygon fill="midnightblue" stroke="midnightblue" points="674.224,-257.416 664.016,-254.58 670.228,-263.163 674.224,-257.416"/>
</g>
<!-- Node35&#45;&gt;Node34 -->
<g id="edge96" class="edge"><title>Node35&#45;&gt;Node34</title>
<path fill="none" stroke="midnightblue" d="M1360.35,-472.674C1309.57,-461.884 1235.2,-446.081 1186.21,-435.67"/>
<polygon fill="midnightblue" stroke="midnightblue" points="1186.67,-432.189 1176.16,-433.534 1185.21,-439.036 1186.67,-432.189"/>
</g>
<!-- Node36&#45;&gt;Node33 -->
<g id="edge103" class="edge"><title>Node36&#45;&gt;Node33</title>
<path fill="none" stroke="midnightblue" d="M586.809,-537.294C586.363,-504.069 587.324,-382.513 622,-291 625.819,-280.921 632.246,-270.832 638.173,-262.769"/>
<polygon fill="midnightblue" stroke="midnightblue" points="641.12,-264.681 644.488,-254.636 635.591,-260.388 641.12,-264.681"/>
</g>
<!-- Node36&#45;&gt;Node37 -->
<g id="edge104" class="edge"><title>Node36&#45;&gt;Node37</title>
<path fill="none" stroke="midnightblue" d="M571.096,-537.475C552.715,-527.622 522.244,-511.288 500.755,-499.77"/>
<polygon fill="midnightblue" stroke="midnightblue" points="502.341,-496.649 491.874,-495.009 499.034,-502.818 502.341,-496.649"/>
</g>
<!-- Node38&#45;&gt;Node3 -->
<g id="edge118" class="edge"><title>Node38&#45;&gt;Node3</title>
<path fill="none" stroke="midnightblue" d="M1143.14,-761.292C1156.21,-739.754 1192.79,-683.26 1236,-649 1253.51,-635.115 1276.01,-624.085 1294.49,-616.421"/>
<polygon fill="midnightblue" stroke="midnightblue" points="1296.03,-619.577 1304.01,-612.618 1293.43,-613.077 1296.03,-619.577"/>
</g>
<!-- Node38&#45;&gt;Node11 -->
<g id="edge117" class="edge"><title>Node38&#45;&gt;Node11</title>
<path fill="none" stroke="midnightblue" d="M1116.59,-761.413C1084.08,-748.494 1020.19,-723.593 965,-705 677.32,-608.077 342,-728.569 342,-425 342,-425 342,-425 342,-244 342,-181.434 789.529,-148.328 964.271,-137.787"/>
<polygon fill="midnightblue" stroke="midnightblue" points="964.61,-141.273 974.384,-137.184 964.193,-134.285 964.61,-141.273"/>
</g>
<!-- Node38&#45;&gt;Node12 -->
<g id="edge134" class="edge"><title>Node38&#45;&gt;Node12</title>
<path fill="none" stroke="midnightblue" d="M1176.67,-768.238C1345.41,-760.268 2017.93,-725.503 2221,-669 2276.15,-653.654 2298.35,-655.229 2337,-613 2456.95,-481.952 2514.87,-406.087 2467,-235 2449.02,-170.736 2424.63,-156.642 2367,-123 2337.27,-105.643 2300.52,-92.4884 2272.57,-83.963"/>
<polygon fill="midnightblue" stroke="midnightblue" points="2273.28,-80.5238 2262.7,-81.0323 2271.29,-87.2342 2273.28,-80.5238"/>
</g>
<!-- Node38&#45;&gt;Node13 -->
<g id="edge131" class="edge"><title>Node38&#45;&gt;Node13</title>
<path fill="none" stroke="midnightblue" d="M1176.67,-769.124C1292.16,-766.229 1644.51,-755.354 1935,-725 2293.75,-687.513 2403.88,-713.207 2729,-557 2848.61,-499.533 2893,-440.199 2893,-307.5 2893,-307.5 2893,-307.5 2893,-188 2893,-139.825 2842.16,-104.137 2808.99,-85.9776"/>
<polygon fill="midnightblue" stroke="midnightblue" points="2810.23,-82.6743 2799.75,-81.1172 2806.97,-88.8697 2810.23,-82.6743"/>
</g>
<!-- Node38&#45;&gt;Node28 -->
<g id="edge133" class="edge"><title>Node38&#45;&gt;Node28</title>
<path fill="none" stroke="midnightblue" d="M1132.13,-761.342C1091.42,-701.244 850.866,-346.175 794.715,-263.292"/>
<polygon fill="midnightblue" stroke="midnightblue" points="797.314,-260.888 788.807,-254.572 791.519,-264.814 797.314,-260.888"/>
</g>
<!-- Node38&#45;&gt;Node34 -->
<g id="edge119" class="edge"><title>Node38&#45;&gt;Node34</title>
<path fill="none" stroke="midnightblue" d="M1137.74,-761.443C1137.2,-742.939 1136,-697.819 1136,-660 1136,-660 1136,-660 1136,-546 1136,-509.714 1136,-467.307 1136,-443.559"/>
<polygon fill="midnightblue" stroke="midnightblue" points="1139.5,-443.509 1136,-433.509 1132.5,-443.509 1139.5,-443.509"/>
</g>
<!-- Node39 -->
<g id="node39" class="node"><title>Node39</title>
<g id="a_node39"><a xlink:href="span_8h.html" target="_top" xlink:title="Span information for debugging purposes. ">
<polygon fill="white" stroke="black" points="1278,-649.5 1278,-668.5 1358,-668.5 1358,-649.5 1278,-649.5"/>
<text text-anchor="middle" x="1318" y="-656.5" font-family="Helvetica,sans-Serif" font-size="10.00">tvm/ir/span.h</text>
</a>
</g>
</g>
<!-- Node38&#45;&gt;Node39 -->
<g id="edge120" class="edge"><title>Node38&#45;&gt;Node39</title>
<path fill="none" stroke="midnightblue" d="M1156.62,-761.433C1174.72,-752.883 1202.8,-739.03 1226,-725 1252.17,-709.172 1280.71,-688.422 1298.95,-674.672"/>
<polygon fill="midnightblue" stroke="midnightblue" points="1301.17,-677.375 1307.02,-668.537 1296.94,-671.802 1301.17,-677.375"/>
</g>
<!-- Node40 -->
<g id="node40" class="node"><title>Node40</title>
<g id="a_node40"><a xlink:href="ir_2type_8h.html" target="_top" xlink:title="IR/AST nodes for the unified type system in TVM. ">
<polygon fill="white" stroke="black" points="1366.5,-705.5 1366.5,-724.5 1443.5,-724.5 1443.5,-705.5 1366.5,-705.5"/>
<text text-anchor="middle" x="1405" y="-712.5" font-family="Helvetica,sans-Serif" font-size="10.00">tvm/ir/type.h</text>
</a>
</g>
</g>
<!-- Node38&#45;&gt;Node40 -->
<g id="edge124" class="edge"><title>Node38&#45;&gt;Node40</title>
<path fill="none" stroke="midnightblue" d="M1176.54,-762.206C1224.06,-752.595 1304.87,-736.252 1356.54,-725.8"/>
<polygon fill="midnightblue" stroke="midnightblue" points="1357.37,-729.205 1366.47,-723.792 1355.98,-722.344 1357.37,-729.205"/>
</g>
<!-- Node38&#45;&gt;Node41 -->
<g id="edge132" class="edge"><title>Node38&#45;&gt;Node41</title>
<path fill="none" stroke="midnightblue" d="M1104.25,-761.444C1066.72,-751.93 1006.12,-736.565 965.921,-726.374"/>
<polygon fill="midnightblue" stroke="midnightblue" points="966.721,-722.966 956.167,-723.902 965,-729.752 966.721,-722.966"/>
</g>
<!-- Node39&#45;&gt;Node3 -->
<g id="edge122" class="edge"><title>Node39&#45;&gt;Node3</title>
<path fill="none" stroke="midnightblue" d="M1319.82,-649.083C1321.27,-641.927 1323.37,-631.635 1325.19,-622.691"/>
<polygon fill="midnightblue" stroke="midnightblue" points="1328.65,-623.248 1327.22,-612.751 1321.79,-621.851 1328.65,-623.248"/>
</g>
<!-- Node39&#45;&gt;Node11 -->
<g id="edge121" class="edge"><title>Node39&#45;&gt;Node11</title>
<path fill="none" stroke="midnightblue" d="M1277.76,-656.016C1121.93,-647.928 564.256,-615.089 513,-557 507.119,-550.335 512.408,-545.869 513,-537 520.35,-426.932 503.643,-392.857 546,-291 558.049,-262.026 563.83,-253.739 589,-235 645.079,-193.25 668.386,-196.782 736,-179 812.88,-158.781 903.506,-146.685 964.25,-140.208"/>
<polygon fill="midnightblue" stroke="midnightblue" points="964.901,-143.659 974.484,-139.14 964.174,-136.697 964.901,-143.659"/>
</g>
<!-- Node39&#45;&gt;Node13 -->
<g id="edge123" class="edge"><title>Node39&#45;&gt;Node13</title>
<path fill="none" stroke="midnightblue" d="M1358.16,-655.7C1546.04,-644.525 2338.72,-592.669 2567,-501 2715.94,-441.193 2721.11,-353.382 2765,-199 2772.05,-174.216 2776.46,-168.522 2780,-143 2782.42,-125.588 2782.44,-105.526 2781.99,-91.2658"/>
<polygon fill="midnightblue" stroke="midnightblue" points="2785.48,-91.0788 2781.57,-81.2353 2778.49,-91.3739 2785.48,-91.0788"/>
</g>
<!-- Node40&#45;&gt;Node3 -->
<g id="edge127" class="edge"><title>Node40&#45;&gt;Node3</title>
<path fill="none" stroke="midnightblue" d="M1400.53,-705.296C1393.85,-692.544 1380.58,-668.216 1367,-649 1359.92,-638.979 1351.13,-628.465 1343.78,-620.122"/>
<polygon fill="midnightblue" stroke="midnightblue" points="1346.32,-617.71 1337.04,-612.601 1341.11,-622.383 1346.32,-617.71"/>
</g>
<!-- Node40&#45;&gt;Node11 -->
<g id="edge125" class="edge"><title>Node40&#45;&gt;Node11</title>
<path fill="none" stroke="midnightblue" d="M1366.28,-705.871C1245.05,-678.05 872.673,-574.063 736,-322 680.544,-219.723 872.411,-165.514 973.98,-144.503"/>
<polygon fill="midnightblue" stroke="midnightblue" points="974.707,-147.927 983.814,-142.514 973.319,-141.066 974.707,-147.927"/>
</g>
<!-- Node40&#45;&gt;Node13 -->
<g id="edge130" class="edge"><title>Node40&#45;&gt;Node13</title>
<path fill="none" stroke="midnightblue" d="M1443.9,-714.359C1561.68,-714.91 1924.47,-712.669 2221,-669 2430.45,-638.154 2485.56,-630.782 2684,-557 2735.05,-538.019 2757.87,-542.62 2793,-501 2815.85,-473.932 2817,-460.422 2817,-425 2817,-425 2817,-425 2817,-244 2817,-187.122 2797.8,-121.852 2787.44,-90.7832"/>
<polygon fill="midnightblue" stroke="midnightblue" points="2790.74,-89.6181 2784.19,-81.2898 2784.12,-91.8844 2790.74,-89.6181"/>
</g>
<!-- Node40&#45;&gt;Node25 -->
<g id="edge126" class="edge"><title>Node40&#45;&gt;Node25</title>
<path fill="none" stroke="midnightblue" d="M1443.57,-713.501C1617.8,-710.747 2323,-694.039 2323,-604 2323,-604 2323,-604 2323,-367 2323,-330.238 2313.9,-288.025 2307.98,-264.435"/>
<polygon fill="midnightblue" stroke="midnightblue" points="2311.36,-263.52 2305.45,-254.724 2304.58,-265.283 2311.36,-263.52"/>
</g>
<!-- Node40&#45;&gt;Node34 -->
<g id="edge128" class="edge"><title>Node40&#45;&gt;Node34</title>
<path fill="none" stroke="midnightblue" d="M1405.88,-705.326C1407.59,-684.34 1409.39,-629.844 1387,-593 1336.39,-509.722 1226.99,-458.819 1170.82,-437.174"/>
<polygon fill="midnightblue" stroke="midnightblue" points="1171.89,-433.839 1161.3,-433.59 1169.43,-440.39 1171.89,-433.839"/>
</g>
<!-- Node40&#45;&gt;Node39 -->
<g id="edge129" class="edge"><title>Node40&#45;&gt;Node39</title>
<path fill="none" stroke="midnightblue" d="M1391.02,-705.324C1377.45,-696.9 1356.62,-683.971 1340.68,-674.074"/>
<polygon fill="midnightblue" stroke="midnightblue" points="1342.29,-670.954 1331.94,-668.655 1338.59,-676.902 1342.29,-670.954"/>
</g>
<!-- Node42&#45;&gt;Node3 -->
<g id="edge136" class="edge"><title>Node42&#45;&gt;Node3</title>
<path fill="none" stroke="midnightblue" d="M1229.86,-817.466C1229.81,-790.463 1232.71,-705.351 1269,-649 1277.31,-636.089 1290.7,-625.523 1302.72,-617.882"/>
<polygon fill="midnightblue" stroke="midnightblue" points="1304.75,-620.748 1311.54,-612.618 1301.16,-614.737 1304.75,-620.748"/>
</g>
<!-- Node42&#45;&gt;Node13 -->
<g id="edge139" class="edge"><title>Node42&#45;&gt;Node13</title>
<path fill="none" stroke="midnightblue" d="M1267.08,-825.429C1446.78,-822.533 2222.82,-808.521 2327,-781 2656.79,-693.882 2931,-648.6 2931,-307.5 2931,-307.5 2931,-307.5 2931,-188 2931,-128.845 2856.86,-95.7789 2812.83,-81.3569"/>
<polygon fill="midnightblue" stroke="midnightblue" points="2813.72,-77.9701 2803.13,-78.3225 2811.63,-84.6504 2813.72,-77.9701"/>
</g>
<!-- Node42&#45;&gt;Node25 -->
<g id="edge137" class="edge"><title>Node42&#45;&gt;Node25</title>
<path fill="none" stroke="midnightblue" d="M1267.19,-825.001C1485.8,-818.889 2594,-784.525 2594,-716 2594,-716 2594,-716 2594,-658 2594,-554.826 2482.99,-584.942 2423,-501 2363.75,-418.097 2378.48,-381.157 2331,-291 2326.02,-281.536 2319.78,-271.388 2314.47,-263.128"/>
<polygon fill="midnightblue" stroke="midnightblue" points="2317.38,-261.184 2308.97,-254.743 2311.52,-265.024 2317.38,-261.184"/>
</g>
<!-- Node42&#45;&gt;Node38 -->
<g id="edge138" class="edge"><title>Node42&#45;&gt;Node38</title>
<path fill="none" stroke="midnightblue" d="M1215.22,-817.324C1200.73,-808.822 1178.43,-795.729 1161.51,-785.797"/>
<polygon fill="midnightblue" stroke="midnightblue" points="1163.14,-782.698 1152.74,-780.655 1159.6,-788.735 1163.14,-782.698"/>
</g>
<!-- Node43&#45;&gt;Node13 -->
<g id="edge144" class="edge"><title>Node43&#45;&gt;Node13</title>
<path fill="none" stroke="midnightblue" d="M1187.76,-882.141C1465.3,-881.894 2969,-863.174 2969,-486.5 2969,-486.5 2969,-486.5 2969,-188 2969,-115.816 2867.14,-87.319 2813.37,-77.3049"/>
<polygon fill="midnightblue" stroke="midnightblue" points="2813.76,-73.8194 2803.3,-75.541 2812.55,-80.7143 2813.76,-73.8194"/>
</g>
<!-- Node43&#45;&gt;Node34 -->
<g id="edge141" class="edge"><title>Node43&#45;&gt;Node34</title>
<path fill="none" stroke="midnightblue" d="M1138.12,-873.497C1112.14,-834.856 1010.42,-671.86 1046,-537 1054.73,-503.899 1062.3,-496.475 1084,-470 1093.22,-458.747 1105.45,-448.01 1115.73,-439.847"/>
<polygon fill="midnightblue" stroke="midnightblue" points="1118.01,-442.513 1123.8,-433.642 1113.74,-436.964 1118.01,-442.513"/>
</g>
<!-- Node43&#45;&gt;Node38 -->
<g id="edge142" class="edge"><title>Node43&#45;&gt;Node38</title>
<path fill="none" stroke="midnightblue" d="M1143.53,-873.368C1142.56,-855.617 1140.33,-814.666 1139.01,-790.597"/>
<polygon fill="midnightblue" stroke="midnightblue" points="1142.51,-790.386 1138.47,-780.591 1135.52,-790.767 1142.51,-790.386"/>
</g>
<!-- Node43&#45;&gt;Node42 -->
<g id="edge143" class="edge"><title>Node43&#45;&gt;Node42</title>
<path fill="none" stroke="midnightblue" d="M1157.82,-873.324C1171.23,-864.9 1191.82,-851.971 1207.59,-842.074"/>
<polygon fill="midnightblue" stroke="midnightblue" points="1209.61,-844.936 1216.22,-836.655 1205.89,-839.008 1209.61,-844.936"/>
</g>
<!-- Node44&#45;&gt;Node2 -->
<g id="edge168" class="edge"><title>Node44&#45;&gt;Node2</title>
<path fill="none" stroke="midnightblue" d="M955.951,-1097.35C944.179,-1077.28 913.796,-1026.17 886,-985 879.631,-975.565 872.156,-965.311 865.933,-956.978"/>
<polygon fill="midnightblue" stroke="midnightblue" points="868.597,-954.697 859.782,-948.818 863.007,-958.911 868.597,-954.697"/>
</g>
<!-- Node44&#45;&gt;Node12 -->
<g id="edge179" class="edge"><title>Node44&#45;&gt;Node12</title>
<path fill="none" stroke="midnightblue" d="M1006.04,-1106.29C1252.54,-1107.67 2440.24,-1111.56 2803,-1061 2913.3,-1045.63 3045,-1107.37 3045,-996 3045,-996 3045,-996 3045,-244 3045,-85.1127 2444.34,-72.6354 2274.34,-72.2857"/>
<polygon fill="midnightblue" stroke="midnightblue" points="2274.24,-68.7858 2264.24,-72.2785 2274.24,-75.7858 2274.24,-68.7858"/>
</g>
<!-- Node44&#45;&gt;Node13 -->
<g id="edge176" class="edge"><title>Node44&#45;&gt;Node13</title>
<path fill="none" stroke="midnightblue" d="M1006.32,-1105.8C1282.72,-1104.44 2736.07,-1095.71 2931,-1061 3018.87,-1045.35 3121,-1085.25 3121,-996 3121,-996 3121,-996 3121,-188 3121,-141.145 3080.6,-142.498 3038,-123 2962.31,-88.359 2863.45,-77.4375 2813.26,-74.0261"/>
<polygon fill="midnightblue" stroke="midnightblue" points="2813.23,-70.5173 2803.03,-73.3901 2812.79,-77.5038 2813.23,-70.5173"/>
</g>
<!-- Node44&#45;&gt;Node14 -->
<g id="edge178" class="edge"><title>Node44&#45;&gt;Node14</title>
<path fill="none" stroke="midnightblue" d="M915.837,-1104.44C770.581,-1098.75 317.592,-1075.61 192,-1005 127.061,-968.491 76,-958.498 76,-884 76,-884 76,-884 76,-602 76,-466.823 0,-442.677 0,-307.5 0,-307.5 0,-307.5 0,-188 0,-153.844 12.0968,-141.199 41,-123 108.166,-80.7077 355.541,-73.8138 443.612,-72.7061"/>
<polygon fill="midnightblue" stroke="midnightblue" points="443.815,-76.2042 453.776,-72.5956 443.738,-69.2047 443.815,-76.2042"/>
</g>
<!-- Node44&#45;&gt;Node21 -->
<g id="edge177" class="edge"><title>Node44&#45;&gt;Node21</title>
<path fill="none" stroke="midnightblue" d="M1006.12,-1106.01C1306.67,-1105.76 3007,-1099.77 3007,-996 3007,-996 3007,-996 3007,-770 3007,-758.552 2390.5,-239.567 2380,-235 2315.84,-207.086 2104.44,-195.066 2021.66,-191.349"/>
<polygon fill="midnightblue" stroke="midnightblue" points="2021.68,-187.847 2011.54,-190.908 2021.38,-194.841 2021.68,-187.847"/>
</g>
<!-- Node44&#45;&gt;Node34 -->
<g id="edge152" class="edge"><title>Node44&#45;&gt;Node34</title>
<path fill="none" stroke="midnightblue" d="M965.72,-1097.46C975.274,-1079.34 996,-1035.48 996,-996 996,-996 996,-996 996,-938 996,-823.294 838.886,-810.029 885,-705 924.074,-616.005 982.429,-630.523 1046,-557 1078.98,-518.861 1110.5,-468.331 1126.01,-442.236"/>
<polygon fill="midnightblue" stroke="midnightblue" points="1129.09,-443.903 1131.14,-433.508 1123.05,-440.356 1129.09,-443.903"/>
</g>
<!-- Node45 -->
<g id="node45" class="node"><title>Node45</title>
<g id="a_node45"><a xlink:href="bound_8h.html" target="_top" xlink:title="Bound deducers. ">
<polygon fill="white" stroke="black" points="454,-1041.5 454,-1060.5 556,-1060.5 556,-1041.5 454,-1041.5"/>
<text text-anchor="middle" x="505" y="-1048.5" font-family="Helvetica,sans-Serif" font-size="10.00">tvm/arith/bound.h</text>
</a>
</g>
</g>
<!-- Node44&#45;&gt;Node45 -->
<g id="edge153" class="edge"><title>Node44&#45;&gt;Node45</title>
<path fill="none" stroke="midnightblue" d="M915.61,-1100.62C833.208,-1090.87 658.968,-1070.23 566.172,-1059.24"/>
<polygon fill="midnightblue" stroke="midnightblue" points="566.431,-1055.75 556.088,-1058.05 565.607,-1062.7 566.431,-1055.75"/>
</g>
<!-- Node48 -->
<g id="node48" class="node"><title>Node48</title>
<g id="a_node48"><a xlink:href="tir_2op_8h.html" target="_top" xlink:title="Common operators defined for Expr. ">
<polygon fill="white" stroke="black" points="1106,-1041.5 1106,-1060.5 1178,-1060.5 1178,-1041.5 1106,-1041.5"/>
<text text-anchor="middle" x="1142" y="-1048.5" font-family="Helvetica,sans-Serif" font-size="10.00">tvm/tir/op.h</text>
</a>
</g>
</g>
<!-- Node44&#45;&gt;Node48 -->
<g id="edge169" class="edge"><title>Node44&#45;&gt;Node48</title>
<path fill="none" stroke="midnightblue" d="M989.68,-1097.44C1020.53,-1088.24 1069.73,-1073.56 1103.83,-1063.39"/>
<polygon fill="midnightblue" stroke="midnightblue" points="1104.87,-1066.73 1113.45,-1060.52 1102.87,-1060.02 1104.87,-1066.73"/>
</g>
<!-- Node45&#45;&gt;Node2 -->
<g id="edge160" class="edge"><title>Node45&#45;&gt;Node2</title>
<path fill="none" stroke="midnightblue" d="M532.017,-1041.46C593.815,-1021.93 745.555,-973.963 815.98,-951.702"/>
<polygon fill="midnightblue" stroke="midnightblue" points="817.28,-954.962 825.76,-948.61 815.17,-948.287 817.28,-954.962"/>
</g>
<!-- Node45&#45;&gt;Node22 -->
<g id="edge167" class="edge"><title>Node45&#45;&gt;Node22</title>
<path fill="none" stroke="midnightblue" d="M453.671,-1044.81C355.767,-1033.49 152,-1002.43 152,-940 152,-940 152,-940 152,-546 152,-413.76 203.383,-260.008 222.201,-208.135"/>
<polygon fill="midnightblue" stroke="midnightblue" points="225.52,-209.251 225.691,-198.657 218.951,-206.831 225.52,-209.251"/>
</g>
<!-- Node45&#45;&gt;Node34 -->
<g id="edge154" class="edge"><title>Node45&#45;&gt;Node34</title>
<path fill="none" stroke="midnightblue" d="M453.765,-1043.38C380.488,-1031.33 257.929,-1000.17 290,-929 438.436,-599.612 918.3,-470.594 1081.26,-435.596"/>
<polygon fill="midnightblue" stroke="midnightblue" points="1082.02,-439.014 1091.07,-433.52 1080.57,-432.165 1082.02,-439.014"/>
</g>
<!-- Node45&#45;&gt;Node38 -->
<g id="edge155" class="edge"><title>Node45&#45;&gt;Node38</title>
<path fill="none" stroke="midnightblue" d="M556.16,-1043.75C634.049,-1032.78 785.598,-1005.61 902,-949 993.633,-904.437 1085.38,-822.235 1121.72,-787.812"/>
<polygon fill="midnightblue" stroke="midnightblue" points="1124.18,-790.3 1128.99,-780.859 1119.34,-785.241 1124.18,-790.3"/>
</g>
<!-- Node46 -->
<g id="node46" class="node"><title>Node46</title>
<g id="a_node46"><a xlink:href="int__set_8h.html" target="_top" xlink:title="Integer set. ">
<polygon fill="white" stroke="black" points="373,-985.5 373,-1004.5 477,-1004.5 477,-985.5 373,-985.5"/>
<text text-anchor="middle" x="425" y="-992.5" font-family="Helvetica,sans-Serif" font-size="10.00">tvm/arith/int_set.h</text>
</a>
</g>
</g>
<!-- Node45&#45;&gt;Node46 -->
<g id="edge156" class="edge"><title>Node45&#45;&gt;Node46</title>
<path fill="none" stroke="midnightblue" d="M492.147,-1041.32C479.784,-1032.98 460.87,-1020.21 446.263,-1010.35"/>
<polygon fill="midnightblue" stroke="midnightblue" points="448.068,-1007.35 437.821,-1004.65 444.152,-1013.15 448.068,-1007.35"/>
</g>
<!-- Node47 -->
<g id="node47" class="node"><title>Node47</title>
<g id="a_node47"><a xlink:href="stmt_8h.html" target="_top" xlink:title="TIR statements. ">
<polygon fill="white" stroke="black" points="1100.5,-985.5 1100.5,-1004.5 1183.5,-1004.5 1183.5,-985.5 1100.5,-985.5"/>
<text text-anchor="middle" x="1142" y="-992.5" font-family="Helvetica,sans-Serif" font-size="10.00">tvm/tir/stmt.h</text>
</a>
</g>
</g>
<!-- Node45&#45;&gt;Node47 -->
<g id="edge161" class="edge"><title>Node45&#45;&gt;Node47</title>
<path fill="none" stroke="midnightblue" d="M556.052,-1045.67C675.246,-1035.57 970.802,-1010.51 1090.47,-1000.37"/>
<polygon fill="midnightblue" stroke="midnightblue" points="1090.81,-1003.85 1100.47,-999.52 1090.21,-996.878 1090.81,-1003.85"/>
</g>
<!-- Node46&#45;&gt;Node2 -->
<g id="edge158" class="edge"><title>Node46&#45;&gt;Node2</title>
<path fill="none" stroke="midnightblue" d="M477.231,-986.819C481.886,-986.197 486.528,-985.583 491,-985 602.104,-970.52 732.534,-954.562 802.515,-946.084"/>
<polygon fill="midnightblue" stroke="midnightblue" points="803.297,-949.515 812.804,-944.839 802.456,-942.566 803.297,-949.515"/>
</g>
<!-- Node46&#45;&gt;Node22 -->
<g id="edge159" class="edge"><title>Node46&#45;&gt;Node22</title>
<path fill="none" stroke="midnightblue" d="M372.711,-987.835C344.923,-982.04 312.048,-970.799 290,-949 193.348,-853.441 190,-795.916 190,-660 190,-660 190,-660 190,-546 190,-478.981 217.657,-272.376 226.391,-208.808"/>
<polygon fill="midnightblue" stroke="midnightblue" points="229.89,-209.054 227.79,-198.669 222.955,-208.097 229.89,-209.054"/>
</g>
<!-- Node46&#45;&gt;Node38 -->
<g id="edge157" class="edge"><title>Node46&#45;&gt;Node38</title>
<path fill="none" stroke="midnightblue" d="M452.514,-985.433C563.023,-951.025 974.701,-822.845 1100.95,-783.536"/>
<polygon fill="midnightblue" stroke="midnightblue" points="1102.06,-786.856 1110.57,-780.541 1099.98,-780.172 1102.06,-786.856"/>
</g>
<!-- Node47&#45;&gt;Node2 -->
<g id="edge162" class="edge"><title>Node47&#45;&gt;Node2</title>
<path fill="none" stroke="midnightblue" d="M1100.29,-986.206C1048.19,-976.472 959.148,-959.834 903.325,-949.403"/>
<polygon fill="midnightblue" stroke="midnightblue" points="903.777,-945.927 893.304,-947.531 902.491,-952.808 903.777,-945.927"/>
</g>
<!-- Node47&#45;&gt;Node12 -->
<g id="edge163" class="edge"><title>Node47&#45;&gt;Node12</title>
<path fill="none" stroke="midnightblue" d="M1183.51,-993.082C1426.54,-987.312 2658.25,-952.482 2775,-837 2876.9,-736.204 2995.25,-861.193 2679,-358 2592.37,-220.157 2541.32,-200.23 2398,-123 2358.59,-101.764 2309.05,-88.2655 2274.01,-80.6203"/>
<polygon fill="midnightblue" stroke="midnightblue" points="2274.58,-77.165 2264.08,-78.5256 2273.14,-84.0143 2274.58,-77.165"/>
</g>
<!-- Node47&#45;&gt;Node13 -->
<g id="edge164" class="edge"><title>Node47&#45;&gt;Node13</title>
<path fill="none" stroke="midnightblue" d="M1183.71,-993.717C1330.5,-992.422 1836.9,-985.42 2253,-949 2438.41,-932.772 2488.01,-940.364 2668,-893 2872.56,-839.169 3083,-871.527 3083,-660 3083,-660 3083,-660 3083,-188 3083,-140.089 3040.38,-143.34 2997,-123 2935.63,-94.2273 2856.56,-81.1484 2813.13,-75.7836"/>
<polygon fill="midnightblue" stroke="midnightblue" points="2813.48,-72.3011 2803.14,-74.6094 2812.66,-79.2533 2813.48,-72.3011"/>
</g>
<!-- Node47&#45;&gt;Node14 -->
<g id="edge166" class="edge"><title>Node47&#45;&gt;Node14</title>
<path fill="none" stroke="midnightblue" d="M1100.44,-992.972C931.352,-988.25 304,-965.254 304,-884 304,-884 304,-884 304,-714 304,-459.523 -53.4061,-382.04 100,-179 142.212,-123.13 361.2,-87.9967 443.601,-76.5806"/>
<polygon fill="midnightblue" stroke="midnightblue" points="444.186,-80.0333 453.622,-75.2164 443.242,-73.0973 444.186,-80.0333"/>
</g>
<!-- Node47&#45;&gt;Node21 -->
<g id="edge165" class="edge"><title>Node47&#45;&gt;Node21</title>
<path fill="none" stroke="midnightblue" d="M1183.79,-986.329C1306.35,-962.518 1672.67,-881.884 1935,-725 2058.28,-651.27 2105.13,-630.159 2168,-501 2181.18,-473.929 2175.77,-464.025 2178,-434 2185.51,-332.788 2145.67,-297.872 2066,-235 2050.35,-222.649 2030.93,-211.436 2015.39,-203.292"/>
<polygon fill="midnightblue" stroke="midnightblue" points="2016.78,-200.07 2006.28,-198.636 2013.59,-206.303 2016.78,-200.07"/>
</g>
<!-- Node48&#45;&gt;Node2 -->
<g id="edge171" class="edge"><title>Node48&#45;&gt;Node2</title>
<path fill="none" stroke="midnightblue" d="M1119.73,-1041.46C1087.26,-1029 1025.01,-1005.16 972,-985 942.735,-973.872 909.394,-961.271 885.463,-952.239"/>
<polygon fill="midnightblue" stroke="midnightblue" points="886.414,-948.857 875.823,-948.602 883.943,-955.407 886.414,-948.857"/>
</g>
<!-- Node48&#45;&gt;Node12 -->
<g id="edge174" class="edge"><title>Node48&#45;&gt;Node12</title>
<path fill="none" stroke="midnightblue" d="M1178.14,-1049.73C1431.48,-1047.6 2931,-1031.17 2931,-940 2931,-940 2931,-940 2931,-714 2931,-530.203 2855,-491.297 2855,-307.5 2855,-307.5 2855,-307.5 2855,-244 2855,-183.695 2416.68,-104.119 2274.18,-79.8416"/>
<polygon fill="midnightblue" stroke="midnightblue" points="2274.49,-76.3449 2264.05,-78.124 2273.32,-83.2464 2274.49,-76.3449"/>
</g>
<!-- Node48&#45;&gt;Node28 -->
<g id="edge175" class="edge"><title>Node48&#45;&gt;Node28</title>
<path fill="none" stroke="midnightblue" d="M1105.67,-1044.9C974.347,-1025.45 532,-950.841 532,-828 532,-828 532,-828 532,-658 532,-585.184 618.706,-616.273 661,-557 733.66,-455.172 697.41,-403.063 753,-291 757.851,-281.222 764.482,-271.045 770.277,-262.848"/>
<polygon fill="midnightblue" stroke="midnightblue" points="773.257,-264.702 776.324,-254.561 767.602,-260.575 773.257,-264.702"/>
</g>
<!-- Node48&#45;&gt;Node40 -->
<g id="edge170" class="edge"><title>Node48&#45;&gt;Node40</title>
<path fill="none" stroke="midnightblue" d="M1178.25,-1049.23C1418.42,-1043.93 2772.27,-1011.34 2831,-949 3028.32,-739.53 1726.55,-718.374 1454.25,-716.239"/>
<polygon fill="midnightblue" stroke="midnightblue" points="1453.92,-712.737 1443.9,-716.164 1453.87,-719.737 1453.92,-712.737"/>
</g>
<!-- Node48&#45;&gt;Node41 -->
<g id="edge173" class="edge"><title>Node48&#45;&gt;Node41</title>
<path fill="none" stroke="midnightblue" d="M1156.97,-1041.4C1175.21,-1029.7 1202.39,-1007.65 1192,-985 1181.49,-962.084 1037.42,-855.224 1020,-837 987.087,-802.574 953.93,-757.395 936.84,-733.15"/>
<polygon fill="midnightblue" stroke="midnightblue" points="939.516,-730.87 930.921,-724.675 933.777,-734.878 939.516,-730.87"/>
</g>
<!-- Node48&#45;&gt;Node47 -->
<g id="edge172" class="edge"><title>Node48&#45;&gt;Node47</title>
<path fill="none" stroke="midnightblue" d="M1142,-1041.08C1142,-1034.01 1142,-1023.86 1142,-1014.99"/>
<polygon fill="midnightblue" stroke="midnightblue" points="1145.5,-1014.75 1142,-1004.75 1138.5,-1014.75 1145.5,-1014.75"/>
</g>
<!-- Node49&#45;&gt;Node13 -->
<g id="edge183" class="edge"><title>Node49&#45;&gt;Node13</title>
<path fill="none" stroke="midnightblue" d="M1076.12,-1162.14C1423.55,-1162.56 3159,-1159.28 3159,-1052 3159,-1052 3159,-1052 3159,-188 3159,-141.842 3120.1,-141.92 3078,-123 2988.14,-82.6187 2869.73,-74.3216 2813.43,-72.7562"/>
<polygon fill="midnightblue" stroke="midnightblue" points="2813.41,-69.2552 2803.34,-72.5306 2813.26,-76.2534 2813.41,-69.2552"/>
</g>
<!-- Node49&#45;&gt;Node43 -->
<g id="edge182" class="edge"><title>Node49&#45;&gt;Node43</title>
<path fill="none" stroke="midnightblue" d="M1018.43,-1153.24C1023.34,-1134.71 1034,-1090.12 1034,-1052 1034,-1052 1034,-1052 1034,-994 1034,-947.91 1082.88,-914.387 1115.47,-897.158"/>
<polygon fill="midnightblue" stroke="midnightblue" points="1117.25,-900.181 1124.59,-892.536 1114.09,-893.938 1117.25,-900.181"/>
</g>
<!-- Node49&#45;&gt;Node44 -->
<g id="edge181" class="edge"><title>Node49&#45;&gt;Node44</title>
<path fill="none" stroke="midnightblue" d="M1006.92,-1153.08C998.829,-1145.14 986.805,-1133.34 977.09,-1123.8"/>
<polygon fill="midnightblue" stroke="midnightblue" points="979.501,-1121.26 969.913,-1116.75 974.597,-1126.25 979.501,-1121.26"/>
</g>
<!-- Node50&#45;&gt;Node9 -->
<g id="edge185" class="edge"><title>Node50&#45;&gt;Node9</title>
<path fill="none" stroke="midnightblue" d="M628.271,-123.976C703.793,-112.6 841.18,-91.9046 916.711,-80.5271"/>
<polygon fill="midnightblue" stroke="midnightblue" points="917.578,-83.936 926.945,-78.9855 916.535,-77.0141 917.578,-83.936"/>
</g>
<!-- Node50&#45;&gt;Node14 -->
<g id="edge186" class="edge"><title>Node50&#45;&gt;Node14</title>
<path fill="none" stroke="midnightblue" d="M560.672,-123.475C544.336,-113.755 517.398,-97.7266 498.088,-86.2372"/>
<polygon fill="midnightblue" stroke="midnightblue" points="499.685,-83.1146 489.301,-81.0091 496.105,-89.1303 499.685,-83.1146"/>
</g>
</g>
</svg>
