<?xml version="1.0" encoding="UTF-8" standalone="no"?>
<!DOCTYPE svg PUBLIC "-//W3C//DTD SVG 1.1//EN"
 "http://www.w3.org/Graphics/SVG/1.1/DTD/svg11.dtd">
<!-- Generated by graphviz version 2.38.0 (20140413.2041)
 -->
<!-- Title: include/tvm/te/schedule_pass.h Pages: 1 -->
<svg width="3223pt" height="1248pt"
 viewBox="0.00 0.00 3223.00 1248.00" xmlns="http://www.w3.org/2000/svg" xmlns:xlink="http://www.w3.org/1999/xlink">
<g id="graph0" class="graph" transform="scale(1 1) rotate(0) translate(4 1244)">
<title>include/tvm/te/schedule_pass.h</title>
<polygon fill="white" stroke="none" points="-4,4 -4,-1244 3219,-1244 3219,4 -4,4"/>
<!-- Node1 -->
<g id="node1" class="node"><title>Node1</title>
<polygon fill="#bfbfbf" stroke="black" points="2383.5,-1209.5 2383.5,-1239.5 2514.5,-1239.5 2514.5,-1209.5 2383.5,-1209.5"/>
<text text-anchor="start" x="2391.5" y="-1227.5" font-family="Helvetica,sans-Serif" font-size="10.00">include/tvm/te/schedule</text>
<text text-anchor="middle" x="2449" y="-1216.5" font-family="Helvetica,sans-Serif" font-size="10.00">_pass.h</text>
</g>
<!-- Node2 -->
<g id="node2" class="node"><title>Node2</title>
<g id="a_node2"><a xlink:href="schedule_8h.html" target="_top" xlink:title="Define a schedule. ">
<polygon fill="white" stroke="black" points="1594.5,-1153.5 1594.5,-1172.5 1697.5,-1172.5 1697.5,-1153.5 1594.5,-1153.5"/>
<text text-anchor="middle" x="1646" y="-1160.5" font-family="Helvetica,sans-Serif" font-size="10.00">tvm/te/schedule.h</text>
</a>
</g>
</g>
<!-- Node1&#45;&gt;Node2 -->
<g id="edge1" class="edge"><title>Node1&#45;&gt;Node2</title>
<path fill="none" stroke="midnightblue" d="M2383.29,-1218.63C2231.12,-1207.36 1856.25,-1179.58 1707.89,-1168.59"/>
<polygon fill="midnightblue" stroke="midnightblue" points="1707.84,-1165.07 1697.61,-1167.82 1707.32,-1172.05 1707.84,-1165.07"/>
</g>
<!-- Node47 -->
<g id="node47" class="node"><title>Node47</title>
<g id="a_node47"><a xlink:href="tir_2function_8h.html" target="_top" xlink:title="TIR Function. ">
<polygon fill="white" stroke="black" points="2624,-985.5 2624,-1004.5 2722,-1004.5 2722,-985.5 2624,-985.5"/>
<text text-anchor="middle" x="2673" y="-992.5" font-family="Helvetica,sans-Serif" font-size="10.00">tvm/tir/function.h</text>
</a>
</g>
</g>
<!-- Node1&#45;&gt;Node47 -->
<g id="edge174" class="edge"><title>Node1&#45;&gt;Node47</title>
<path fill="none" stroke="midnightblue" d="M2463.01,-1209.27C2502.6,-1169.06 2615.14,-1054.77 2657.03,-1012.22"/>
<polygon fill="midnightblue" stroke="midnightblue" points="2659.69,-1014.51 2664.21,-1004.93 2654.7,-1009.6 2659.69,-1014.51"/>
</g>
<!-- Node3 -->
<g id="node3" class="node"><title>Node3</title>
<g id="a_node3"><a xlink:href="tir_2expr_8h.html" target="_top" xlink:title="TIR expressions. ">
<polygon fill="white" stroke="black" points="1448,-873.5 1448,-892.5 1528,-892.5 1528,-873.5 1448,-873.5"/>
<text text-anchor="middle" x="1488" y="-880.5" font-family="Helvetica,sans-Serif" font-size="10.00">tvm/tir/expr.h</text>
</a>
</g>
</g>
<!-- Node2&#45;&gt;Node3 -->
<g id="edge2" class="edge"><title>Node2&#45;&gt;Node3</title>
<path fill="none" stroke="midnightblue" d="M1594.26,-1162.57C1370.1,-1164.35 494,-1164.13 494,-1052 494,-1052 494,-1052 494,-994 494,-898.006 1235.82,-885.775 1437.77,-884.224"/>
<polygon fill="midnightblue" stroke="midnightblue" points="1437.83,-887.723 1447.8,-884.152 1437.78,-880.724 1437.83,-887.723"/>
</g>
<!-- Node14 -->
<g id="node14" class="node"><title>Node14</title>
<polygon fill="white" stroke="#bfbfbf" points="2794,-62 2794,-81 2838,-81 2838,-62 2794,-62"/>
<text text-anchor="middle" x="2816" y="-69" font-family="Helvetica,sans-Serif" font-size="10.00">string</text>
</g>
<!-- Node2&#45;&gt;Node14 -->
<g id="edge172" class="edge"><title>Node2&#45;&gt;Node14</title>
<path fill="none" stroke="midnightblue" d="M1697.76,-1161.14C1969.08,-1156.31 3215,-1129.87 3215,-1052 3215,-1052 3215,-1052 3215,-188 3215,-145.869 3183.87,-141.466 3146,-123 3093.85,-97.5687 2921.41,-81.0267 2848.74,-75.0256"/>
<polygon fill="midnightblue" stroke="midnightblue" points="2848.62,-71.5043 2838.37,-74.1849 2848.06,-78.4814 2848.62,-71.5043"/>
</g>
<!-- Node30 -->
<g id="node30" class="node"><title>Node30</title>
<polygon fill="white" stroke="#bfbfbf" points="220.5,-302.5 220.5,-321.5 313.5,-321.5 313.5,-302.5 220.5,-302.5"/>
<text text-anchor="middle" x="267" y="-309.5" font-family="Helvetica,sans-Serif" font-size="10.00">unordered_map</text>
</g>
<!-- Node2&#45;&gt;Node30 -->
<g id="edge173" class="edge"><title>Node2&#45;&gt;Node30</title>
<path fill="none" stroke="midnightblue" d="M1594.13,-1161.63C1328.86,-1159.62 133.476,-1148.81 62,-1117 25.5254,-1100.77 0,-1091.92 0,-1052 0,-1052 0,-1052 0,-546 0,-424.663 158.471,-351.992 231.239,-325.019"/>
<polygon fill="midnightblue" stroke="midnightblue" points="232.702,-328.211 240.913,-321.516 230.319,-321.63 232.702,-328.211"/>
</g>
<!-- Node40 -->
<g id="node40" class="node"><title>Node40</title>
<g id="a_node40"><a xlink:href="tensor_8h.html" target="_top" xlink:title="Dataflow tensor object. ">
<polygon fill="white" stroke="black" points="1601,-1041.5 1601,-1060.5 1691,-1060.5 1691,-1041.5 1601,-1041.5"/>
<text text-anchor="middle" x="1646" y="-1048.5" font-family="Helvetica,sans-Serif" font-size="10.00">tvm/te/tensor.h</text>
</a>
</g>
</g>
<!-- Node2&#45;&gt;Node40 -->
<g id="edge136" class="edge"><title>Node2&#45;&gt;Node40</title>
<path fill="none" stroke="midnightblue" d="M1646,-1153.37C1646,-1135.62 1646,-1094.67 1646,-1070.6"/>
<polygon fill="midnightblue" stroke="midnightblue" points="1649.5,-1070.59 1646,-1060.59 1642.5,-1070.59 1649.5,-1070.59"/>
</g>
<!-- Node45 -->
<g id="node45" class="node"><title>Node45</title>
<g id="a_node45"><a xlink:href="tensor__intrin_8h.html" target="_top" xlink:title="Tensor intrinsic operations. ">
<polygon fill="white" stroke="black" points="1727,-1097.5 1727,-1116.5 1847,-1116.5 1847,-1097.5 1727,-1097.5"/>
<text text-anchor="middle" x="1787" y="-1104.5" font-family="Helvetica,sans-Serif" font-size="10.00">tvm/te/tensor_intrin.h</text>
</a>
</g>
</g>
<!-- Node2&#45;&gt;Node45 -->
<g id="edge165" class="edge"><title>Node2&#45;&gt;Node45</title>
<path fill="none" stroke="midnightblue" d="M1668.34,-1153.44C1691.75,-1144.48 1728.74,-1130.31 1755.19,-1120.18"/>
<polygon fill="midnightblue" stroke="midnightblue" points="1756.68,-1123.36 1764.76,-1116.52 1754.17,-1116.82 1756.68,-1123.36"/>
</g>
<!-- Node46 -->
<g id="node46" class="node"><title>Node46</title>
<g id="a_node46"><a xlink:href="with_8h.html" target="_top" xlink:title="RAII wrapper function to enter and exit a context object similar to python&#39;s with syntax...">
<polygon fill="white" stroke="black" points="653,-123.5 653,-142.5 759,-142.5 759,-123.5 653,-123.5"/>
<text text-anchor="middle" x="706" y="-130.5" font-family="Helvetica,sans-Serif" font-size="10.00">tvm/support/with.h</text>
</a>
</g>
</g>
<!-- Node2&#45;&gt;Node46 -->
<g id="edge169" class="edge"><title>Node2&#45;&gt;Node46</title>
<path fill="none" stroke="midnightblue" d="M1594.21,-1161.14C1322.71,-1156.32 76,-1129.92 76,-1052 76,-1052 76,-1052 76,-882 76,-750.198 154.578,-425.728 200,-302 211.65,-270.267 211.432,-258.219 236,-235 278.774,-194.574 299.474,-195.392 356,-179 453.582,-150.702 571.62,-140.183 642.656,-136.283"/>
<polygon fill="midnightblue" stroke="midnightblue" points="642.984,-139.771 652.788,-135.755 642.619,-132.781 642.984,-139.771"/>
</g>
<!-- Node4 -->
<g id="node4" class="node"><title>Node4</title>
<g id="a_node4"><a xlink:href="node_8h.html" target="_top" xlink:title="Definitions and helper macros for IR/AST nodes. ">
<polygon fill="white" stroke="black" points="1364,-537.5 1364,-556.5 1462,-556.5 1462,-537.5 1364,-537.5"/>
<text text-anchor="middle" x="1413" y="-544.5" font-family="Helvetica,sans-Serif" font-size="10.00">tvm/node/node.h</text>
</a>
</g>
</g>
<!-- Node3&#45;&gt;Node4 -->
<g id="edge3" class="edge"><title>Node3&#45;&gt;Node4</title>
<path fill="none" stroke="midnightblue" d="M1447.88,-881.876C1294.36,-881.117 749.402,-875.697 683,-837 659.206,-823.134 593.712,-702.725 585,-669 582.777,-660.394 579.107,-655.655 585,-649 636,-591.401 1172.85,-559.833 1353.82,-550.768"/>
<polygon fill="midnightblue" stroke="midnightblue" points="1354.14,-554.257 1363.95,-550.266 1353.79,-547.266 1354.14,-554.257"/>
</g>
<!-- Node5 -->
<g id="node5" class="node"><title>Node5</title>
<g id="a_node5"><a xlink:href="c__runtime__api_8h.html" target="_top" xlink:title="tvm/runtime/c_runtime\l_api.h">
<polygon fill="white" stroke="black" points="164.5,-56.5 164.5,-86.5 291.5,-86.5 291.5,-56.5 164.5,-56.5"/>
<text text-anchor="start" x="172.5" y="-74.5" font-family="Helvetica,sans-Serif" font-size="10.00">tvm/runtime/c_runtime</text>
<text text-anchor="middle" x="228" y="-63.5" font-family="Helvetica,sans-Serif" font-size="10.00">_api.h</text>
</a>
</g>
</g>
<!-- Node3&#45;&gt;Node5 -->
<g id="edge99" class="edge"><title>Node3&#45;&gt;Node5</title>
<path fill="none" stroke="midnightblue" d="M1447.96,-881.654C1264.79,-879.894 511.456,-870.651 412,-837 329.777,-809.18 306.708,-792.391 252,-725 189.251,-647.704 76,-412.56 76,-313 76,-313 76,-313 76,-188 76,-138.546 127.64,-107.503 170.721,-90.2095"/>
<polygon fill="midnightblue" stroke="midnightblue" points="172.244,-93.3739 180.323,-86.5197 169.733,-86.8397 172.244,-93.3739"/>
</g>
<!-- Node3&#45;&gt;Node14 -->
<g id="edge130" class="edge"><title>Node3&#45;&gt;Node14</title>
<path fill="none" stroke="midnightblue" d="M1528.13,-881.425C1720.74,-878.537 2545.69,-864.64 2657,-837 2833.14,-793.261 3025,-841.491 3025,-660 3025,-660 3025,-660 3025,-188 3025,-108.383 2907.38,-83.2204 2848.61,-75.6169"/>
<polygon fill="midnightblue" stroke="midnightblue" points="2848.71,-72.1038 2838.37,-74.3923 2847.88,-79.0543 2848.71,-72.1038"/>
</g>
<!-- Node15 -->
<g id="node15" class="node"><title>Node15</title>
<polygon fill="white" stroke="#bfbfbf" points="566,-62 566,-81 608,-81 608,-62 566,-62"/>
<text text-anchor="middle" x="587" y="-69" font-family="Helvetica,sans-Serif" font-size="10.00">utility</text>
</g>
<!-- Node3&#45;&gt;Node15 -->
<g id="edge135" class="edge"><title>Node3&#45;&gt;Node15</title>
<path fill="none" stroke="midnightblue" d="M1447.94,-881.766C1269.78,-880.523 554.061,-873.292 461,-837 363.032,-798.794 304,-765.154 304,-660 304,-660 304,-660 304,-602 304,-492.974 230.508,-483.754 204,-378 182,-290.23 202.834,-257.975 247,-179 262.317,-151.612 263.121,-139.192 290,-123 334.455,-96.2199 488.466,-80.6124 555.462,-74.9486"/>
<polygon fill="midnightblue" stroke="midnightblue" points="556.13,-78.4055 565.808,-74.0949 555.554,-71.4292 556.13,-78.4055"/>
</g>
<!-- Node21 -->
<g id="node21" class="node"><title>Node21</title>
<g id="a_node21"><a xlink:href="data__type_8h.html" target="_top" xlink:title="tvm/runtime/data_type.h">
<polygon fill="white" stroke="black" points="1899,-179.5 1899,-198.5 2035,-198.5 2035,-179.5 1899,-179.5"/>
<text text-anchor="middle" x="1967" y="-186.5" font-family="Helvetica,sans-Serif" font-size="10.00">tvm/runtime/data_type.h</text>
</a>
</g>
</g>
<!-- Node3&#45;&gt;Node21 -->
<g id="edge100" class="edge"><title>Node3&#45;&gt;Node21</title>
<path fill="none" stroke="midnightblue" d="M1501.12,-873.463C1524.75,-856.943 1572,-818.135 1572,-772 1572,-772 1572,-772 1572,-714 1572,-644.971 2093.52,-502.308 2132,-445 2187.42,-362.469 2131.85,-298.057 2055,-235 2038.32,-221.316 2016.8,-210.22 1999.22,-202.47"/>
<polygon fill="midnightblue" stroke="midnightblue" points="2000.48,-199.204 1989.91,-198.513 1997.74,-205.646 2000.48,-199.204"/>
</g>
<!-- Node23 -->
<g id="node23" class="node"><title>Node23</title>
<polygon fill="white" stroke="#bfbfbf" points="365,-179.5 365,-198.5 407,-198.5 407,-179.5 365,-179.5"/>
<text text-anchor="middle" x="386" y="-186.5" font-family="Helvetica,sans-Serif" font-size="10.00">limits</text>
</g>
<!-- Node3&#45;&gt;Node23 -->
<g id="edge134" class="edge"><title>Node3&#45;&gt;Node23</title>
<path fill="none" stroke="midnightblue" d="M1447.79,-882.07C1287.92,-882.053 702.52,-879.095 632,-837 502.868,-759.918 456,-698.388 456,-548 456,-548 456,-548 456,-490 456,-380.576 411.288,-254.437 393.333,-208.193"/>
<polygon fill="midnightblue" stroke="midnightblue" points="396.497,-206.676 389.568,-198.662 389.987,-209.248 396.497,-206.676"/>
</g>
<!-- Node28 -->
<g id="node28" class="node"><title>Node28</title>
<g id="a_node28"><a xlink:href="functor_8h.html" target="_top" xlink:title="Defines the Functor data structures. ">
<polygon fill="white" stroke="black" points="1051.5,-179.5 1051.5,-198.5 1158.5,-198.5 1158.5,-179.5 1051.5,-179.5"/>
<text text-anchor="middle" x="1105" y="-186.5" font-family="Helvetica,sans-Serif" font-size="10.00">tvm/node/functor.h</text>
</a>
</g>
</g>
<!-- Node3&#45;&gt;Node28 -->
<g id="edge98" class="edge"><title>Node3&#45;&gt;Node28</title>
<path fill="none" stroke="midnightblue" d="M1447.84,-881.966C1291.55,-881.546 729.141,-877.226 661,-837 611.438,-807.742 618.487,-777.979 596,-725 515.618,-535.621 622.325,-429.227 784,-302 860.594,-241.726 971.935,-212.61 1041.33,-199.534"/>
<polygon fill="midnightblue" stroke="midnightblue" points="1042.05,-202.961 1051.25,-197.719 1040.79,-196.075 1042.05,-202.961"/>
</g>
<!-- Node29 -->
<g id="node29" class="node"><title>Node29</title>
<g id="a_node29"><a xlink:href="node_2container_8h.html" target="_top" xlink:title="Array/Map container in the DSL graph. ">
<polygon fill="white" stroke="black" points="1533.5,-358.5 1533.5,-377.5 1652.5,-377.5 1652.5,-358.5 1533.5,-358.5"/>
<text text-anchor="middle" x="1593" y="-365.5" font-family="Helvetica,sans-Serif" font-size="10.00">tvm/node/container.h</text>
</a>
</g>
</g>
<!-- Node3&#45;&gt;Node29 -->
<g id="edge97" class="edge"><title>Node3&#45;&gt;Node29</title>
<path fill="none" stroke="midnightblue" d="M1494.4,-873.391C1507.04,-855.498 1534,-812.572 1534,-772 1534,-772 1534,-772 1534,-714 1534,-587.473 1573.03,-438.532 1587.6,-387.344"/>
<polygon fill="midnightblue" stroke="midnightblue" points="1590.97,-388.281 1590.39,-377.703 1584.25,-386.338 1590.97,-388.281"/>
</g>
<!-- Node3&#45;&gt;Node30 -->
<g id="edge132" class="edge"><title>Node3&#45;&gt;Node30</title>
<path fill="none" stroke="midnightblue" d="M1447.79,-881.411C1265.08,-878.584 520.161,-865.349 480,-837 434.658,-804.994 303.291,-420.877 273.194,-331.499"/>
<polygon fill="midnightblue" stroke="midnightblue" points="276.472,-330.266 269.97,-321.901 269.836,-332.495 276.472,-330.266"/>
</g>
<!-- Node33 -->
<g id="node33" class="node"><title>Node33</title>
<polygon fill="white" stroke="#bfbfbf" points="826.5,-420 826.5,-439 885.5,-439 885.5,-420 826.5,-420"/>
<text text-anchor="middle" x="856" y="-427" font-family="Helvetica,sans-Serif" font-size="10.00">iostream</text>
</g>
<!-- Node3&#45;&gt;Node33 -->
<g id="edge133" class="edge"><title>Node3&#45;&gt;Node33</title>
<path fill="none" stroke="midnightblue" d="M1447.9,-880.513C1290.28,-874.148 722,-846.061 722,-772 722,-772 722,-772 722,-658 722,-567.229 802.179,-480.762 838.495,-446.253"/>
<polygon fill="midnightblue" stroke="midnightblue" points="840.992,-448.71 845.928,-439.335 836.223,-443.586 840.992,-448.71"/>
</g>
<!-- Node34 -->
<g id="node34" class="node"><title>Node34</title>
<g id="a_node34"><a xlink:href="ir_2expr_8h.html" target="_top" xlink:title="Base expr nodes in TVM. ">
<polygon fill="white" stroke="black" points="1600.5,-705.5 1600.5,-724.5 1677.5,-724.5 1677.5,-705.5 1600.5,-705.5"/>
<text text-anchor="middle" x="1639" y="-712.5" font-family="Helvetica,sans-Serif" font-size="10.00">tvm/ir/expr.h</text>
</a>
</g>
</g>
<!-- Node3&#45;&gt;Node34 -->
<g id="edge101" class="edge"><title>Node3&#45;&gt;Node34</title>
<path fill="none" stroke="midnightblue" d="M1521.11,-873.427C1542,-866.557 1568.29,-855.029 1586,-837 1614.7,-807.787 1629.15,-760.453 1635.26,-734.493"/>
<polygon fill="midnightblue" stroke="midnightblue" points="1638.73,-735.017 1637.45,-724.5 1631.89,-733.521 1638.73,-735.017"/>
</g>
<!-- Node37 -->
<g id="node37" class="node"><title>Node37</title>
<polygon fill="white" stroke="#bfbfbf" points="594,-649.5 594,-668.5 656,-668.5 656,-649.5 594,-649.5"/>
<text text-anchor="middle" x="625" y="-656.5" font-family="Helvetica,sans-Serif" font-size="10.00">algorithm</text>
</g>
<!-- Node3&#45;&gt;Node37 -->
<g id="edge131" class="edge"><title>Node3&#45;&gt;Node37</title>
<path fill="none" stroke="midnightblue" d="M1447.94,-882.06C1297.2,-881.968 769.538,-878.648 708,-837 652.979,-799.763 633.572,-715.983 627.485,-678.61"/>
<polygon fill="midnightblue" stroke="midnightblue" points="630.93,-677.981 625.999,-668.604 624.006,-679.01 630.93,-677.981"/>
</g>
<!-- Node38 -->
<g id="node38" class="node"><title>Node38</title>
<g id="a_node38"><a xlink:href="var_8h.html" target="_top" xlink:title="Variables in the TIR. ">
<polygon fill="white" stroke="black" points="1833,-761.5 1833,-780.5 1907,-780.5 1907,-761.5 1833,-761.5"/>
<text text-anchor="middle" x="1870" y="-768.5" font-family="Helvetica,sans-Serif" font-size="10.00">tvm/tir/var.h</text>
</a>
</g>
</g>
<!-- Node3&#45;&gt;Node38 -->
<g id="edge120" class="edge"><title>Node3&#45;&gt;Node38</title>
<path fill="none" stroke="midnightblue" d="M1517.66,-873.46C1585.85,-853.822 1753.84,-805.45 1830.59,-783.348"/>
<polygon fill="midnightblue" stroke="midnightblue" points="1831.72,-786.665 1840.36,-780.535 1829.78,-779.938 1831.72,-786.665"/>
</g>
<!-- Node39 -->
<g id="node39" class="node"><title>Node39</title>
<g id="a_node39"><a xlink:href="buffer_8h.html" target="_top" xlink:title="Symbolic n&#45;dimensional array, to represent a memory buffer. ">
<polygon fill="white" stroke="black" points="1833.5,-817.5 1833.5,-836.5 1920.5,-836.5 1920.5,-817.5 1833.5,-817.5"/>
<text text-anchor="middle" x="1877" y="-824.5" font-family="Helvetica,sans-Serif" font-size="10.00">tvm/tir/buffer.h</text>
</a>
</g>
</g>
<!-- Node3&#45;&gt;Node39 -->
<g id="edge125" class="edge"><title>Node3&#45;&gt;Node39</title>
<path fill="none" stroke="midnightblue" d="M1528.03,-876.805C1590.3,-868.668 1714.12,-852.265 1819,-837 1820.45,-836.789 1821.92,-836.573 1823.4,-836.354"/>
<polygon fill="midnightblue" stroke="midnightblue" points="1823.94,-839.813 1833.31,-834.87 1822.9,-832.89 1823.94,-839.813"/>
</g>
<!-- Node4&#45;&gt;Node5 -->
<g id="edge4" class="edge"><title>Node4&#45;&gt;Node5</title>
<path fill="none" stroke="midnightblue" d="M1363.68,-544.684C1240.07,-541.002 919.616,-528.974 817,-501 588.604,-438.736 511.654,-427.962 339,-266 286.105,-216.381 251.2,-135.813 236.269,-96.1261"/>
<polygon fill="midnightblue" stroke="midnightblue" points="239.475,-94.7014 232.747,-86.5172 232.903,-97.1109 239.475,-94.7014"/>
</g>
<!-- Node9 -->
<g id="node9" class="node"><title>Node9</title>
<g id="a_node9"><a xlink:href="runtime_2container_8h.html" target="_top" xlink:title="Common POD(plain old data) container types. ">
<polygon fill="white" stroke="black" points="1590,-302.5 1590,-321.5 1722,-321.5 1722,-302.5 1590,-302.5"/>
<text text-anchor="middle" x="1656" y="-309.5" font-family="Helvetica,sans-Serif" font-size="10.00">tvm/runtime/container.h</text>
</a>
</g>
</g>
<!-- Node4&#45;&gt;Node9 -->
<g id="edge8" class="edge"><title>Node4&#45;&gt;Node9</title>
<path fill="none" stroke="midnightblue" d="M1414.91,-537.339C1420.06,-515.271 1435.8,-455.729 1464,-414 1484.42,-383.777 1492.71,-376.746 1524,-358 1549.76,-342.567 1581.55,-331.525 1607.47,-324.242"/>
<polygon fill="midnightblue" stroke="midnightblue" points="1608.72,-327.53 1617.46,-321.539 1606.89,-320.773 1608.72,-327.53"/>
</g>
<!-- Node11 -->
<g id="node11" class="node"><title>Node11</title>
<g id="a_node11"><a xlink:href="runtime_2memory_8h.html" target="_top" xlink:title="Runtime memory management. ">
<polygon fill="white" stroke="black" points="940.5,-241 940.5,-260 1067.5,-260 1067.5,-241 940.5,-241"/>
<text text-anchor="middle" x="1004" y="-248" font-family="Helvetica,sans-Serif" font-size="10.00">tvm/runtime/memory.h</text>
</a>
</g>
</g>
<!-- Node4&#45;&gt;Node11 -->
<g id="edge50" class="edge"><title>Node4&#45;&gt;Node11</title>
<path fill="none" stroke="midnightblue" d="M1363.83,-545.521C1282.64,-543.734 1125.4,-535.744 1084,-501 1012.69,-441.154 1004.27,-317.538 1003.76,-270.361"/>
<polygon fill="midnightblue" stroke="midnightblue" points="1007.26,-270.101 1003.77,-260.099 1000.26,-270.096 1007.26,-270.101"/>
</g>
<!-- Node12 -->
<g id="node12" class="node"><title>Node12</title>
<g id="a_node12"><a xlink:href="object_8h.html" target="_top" xlink:title="A managed object in the TVM runtime. ">
<polygon fill="white" stroke="black" points="822.5,-123.5 822.5,-142.5 939.5,-142.5 939.5,-123.5 822.5,-123.5"/>
<text text-anchor="middle" x="881" y="-130.5" font-family="Helvetica,sans-Serif" font-size="10.00">tvm/runtime/object.h</text>
</a>
</g>
</g>
<!-- Node4&#45;&gt;Node12 -->
<g id="edge49" class="edge"><title>Node4&#45;&gt;Node12</title>
<path fill="none" stroke="midnightblue" d="M1363.8,-544.536C1279.68,-541.242 1112.5,-531.022 1063,-501 1035.87,-484.543 982.532,-428.754 907,-266 893.918,-237.811 892.902,-229.511 887,-199 884.037,-183.682 882.526,-166.041 881.762,-153.005"/>
<polygon fill="midnightblue" stroke="midnightblue" points="885.252,-152.726 881.265,-142.91 878.261,-153.07 885.252,-152.726"/>
</g>
<!-- Node13 -->
<g id="node13" class="node"><title>Node13</title>
<polygon fill="white" stroke="#bfbfbf" points="1933,-62 1933,-81 2001,-81 2001,-62 1933,-62"/>
<text text-anchor="middle" x="1967" y="-69" font-family="Helvetica,sans-Serif" font-size="10.00">type_traits</text>
</g>
<!-- Node4&#45;&gt;Node13 -->
<g id="edge96" class="edge"><title>Node4&#45;&gt;Node13</title>
<path fill="none" stroke="midnightblue" d="M1462.22,-537.783C1515.81,-528.82 1604.01,-514.011 1680,-501 1866.26,-469.108 1987.23,-538.482 2087,-378 2134.54,-301.531 2167.28,-258.496 2125,-179 2099.26,-130.608 2040.65,-100.244 2002.5,-84.8428"/>
<polygon fill="midnightblue" stroke="midnightblue" points="2003.39,-81.4336 1992.81,-81.0703 2000.86,-87.9575 2003.39,-81.4336"/>
</g>
<!-- Node4&#45;&gt;Node14 -->
<g id="edge93" class="edge"><title>Node4&#45;&gt;Node14</title>
<path fill="none" stroke="midnightblue" d="M1462,-542.874C1540.53,-537.386 1699.23,-524.326 1832,-501 2243.01,-428.789 2333.34,-342.247 2700,-143 2733.49,-124.803 2770.96,-101.463 2794.01,-86.739"/>
<polygon fill="midnightblue" stroke="midnightblue" points="2796.15,-89.5269 2802.68,-81.1799 2792.37,-83.6359 2796.15,-89.5269"/>
</g>
<!-- Node4&#45;&gt;Node15 -->
<g id="edge95" class="edge"><title>Node4&#45;&gt;Node15</title>
<path fill="none" stroke="midnightblue" d="M1363.98,-543.249C1275.73,-537.788 1093.83,-524.076 1035,-501 981.91,-480.177 656.541,-242.783 620,-199 602.295,-177.787 600.292,-169.651 593,-143 588.344,-125.985 587.024,-105.874 586.762,-91.4952"/>
<polygon fill="midnightblue" stroke="midnightblue" points="590.262,-91.352 586.735,-81.3613 583.262,-91.3705 590.262,-91.352"/>
</g>
<!-- Node20 -->
<g id="node20" class="node"><title>Node20</title>
<polygon fill="white" stroke="#bfbfbf" points="1327.5,-123.5 1327.5,-142.5 1374.5,-142.5 1374.5,-123.5 1327.5,-123.5"/>
<text text-anchor="middle" x="1351" y="-130.5" font-family="Helvetica,sans-Serif" font-size="10.00">vector</text>
</g>
<!-- Node4&#45;&gt;Node20 -->
<g id="edge94" class="edge"><title>Node4&#45;&gt;Node20</title>
<path fill="none" stroke="midnightblue" d="M1363.97,-544.981C1329.41,-541.5 1284.86,-530.927 1259,-501 1181.7,-411.546 1196.21,-336.397 1257,-235 1277.68,-200.512 1311.66,-167.824 1332.6,-149.406"/>
<polygon fill="midnightblue" stroke="midnightblue" points="1335.16,-151.82 1340.45,-142.638 1330.59,-146.52 1335.16,-151.82"/>
</g>
<!-- Node26 -->
<g id="node26" class="node"><title>Node26</title>
<g id="a_node26"><a xlink:href="reflection_8h.html" target="_top" xlink:title="Reflection and serialization of compiler IR/AST nodes. ">
<polygon fill="white" stroke="black" points="1268.5,-481.5 1268.5,-500.5 1387.5,-500.5 1387.5,-481.5 1268.5,-481.5"/>
<text text-anchor="middle" x="1328" y="-488.5" font-family="Helvetica,sans-Serif" font-size="10.00">tvm/node/reflection.h</text>
</a>
</g>
</g>
<!-- Node4&#45;&gt;Node26 -->
<g id="edge51" class="edge"><title>Node4&#45;&gt;Node26</title>
<path fill="none" stroke="midnightblue" d="M1399.34,-537.324C1386.08,-528.9 1365.73,-515.971 1350.15,-506.074"/>
<polygon fill="midnightblue" stroke="midnightblue" points="1351.94,-503.063 1341.62,-500.655 1348.19,-508.971 1351.94,-503.063"/>
</g>
<!-- Node27 -->
<g id="node27" class="node"><title>Node27</title>
<g id="a_node27"><a xlink:href="structural__equal_8h.html" target="_top" xlink:title="Structural equality comparison. ">
<polygon fill="white" stroke="black" points="1753.5,-414.5 1753.5,-444.5 1864.5,-444.5 1864.5,-414.5 1753.5,-414.5"/>
<text text-anchor="start" x="1761.5" y="-432.5" font-family="Helvetica,sans-Serif" font-size="10.00">tvm/node/structural</text>
<text text-anchor="middle" x="1809" y="-421.5" font-family="Helvetica,sans-Serif" font-size="10.00">_equal.h</text>
</a>
</g>
</g>
<!-- Node4&#45;&gt;Node27 -->
<g id="edge91" class="edge"><title>Node4&#45;&gt;Node27</title>
<path fill="none" stroke="midnightblue" d="M1437.09,-537.444C1474.05,-524.457 1547.07,-499.342 1610,-481 1654.13,-468.136 1704.31,-455.416 1743.24,-445.96"/>
<polygon fill="midnightblue" stroke="midnightblue" points="1744.49,-449.257 1753.39,-443.505 1742.85,-442.453 1744.49,-449.257"/>
</g>
<!-- Node4&#45;&gt;Node29 -->
<g id="edge90" class="edge"><title>Node4&#45;&gt;Node29</title>
<path fill="none" stroke="midnightblue" d="M1419.2,-537.178C1425.43,-528.207 1435.2,-513.838 1443,-501 1465.93,-463.261 1458.42,-443.812 1491,-414 1507.74,-398.687 1530.53,-387.963 1550.32,-380.836"/>
<polygon fill="midnightblue" stroke="midnightblue" points="1551.71,-384.06 1560.05,-377.527 1549.46,-377.433 1551.71,-384.06"/>
</g>
<!-- Node31 -->
<g id="node31" class="node"><title>Node31</title>
<g id="a_node31"><a xlink:href="structural__hash_8h.html" target="_top" xlink:title="tvm/node/structural\l_hash.h">
<polygon fill="white" stroke="black" points="1882.5,-414.5 1882.5,-444.5 1993.5,-444.5 1993.5,-414.5 1882.5,-414.5"/>
<text text-anchor="start" x="1890.5" y="-432.5" font-family="Helvetica,sans-Serif" font-size="10.00">tvm/node/structural</text>
<text text-anchor="middle" x="1938" y="-421.5" font-family="Helvetica,sans-Serif" font-size="10.00">_hash.h</text>
</a>
</g>
</g>
<!-- Node4&#45;&gt;Node31 -->
<g id="edge92" class="edge"><title>Node4&#45;&gt;Node31</title>
<path fill="none" stroke="midnightblue" d="M1452.09,-537.464C1529.81,-520.481 1709.56,-481.154 1872.14,-445.185"/>
<polygon fill="midnightblue" stroke="midnightblue" points="1873.33,-448.509 1882.33,-442.931 1871.81,-441.674 1873.33,-448.509"/>
</g>
<!-- Node32 -->
<g id="node32" class="node"><title>Node32</title>
<g id="a_node32"><a xlink:href="repr__printer_8h.html" target="_top" xlink:title="Printer class to print repr string of each AST/IR nodes. ">
<polygon fill="white" stroke="black" points="826,-481.5 826,-500.5 956,-500.5 956,-481.5 826,-481.5"/>
<text text-anchor="middle" x="891" y="-488.5" font-family="Helvetica,sans-Serif" font-size="10.00">tvm/node/repr_printer.h</text>
</a>
</g>
</g>
<!-- Node4&#45;&gt;Node32 -->
<g id="edge87" class="edge"><title>Node4&#45;&gt;Node32</title>
<path fill="none" stroke="midnightblue" d="M1363.81,-541.201C1282.04,-533.179 1112.96,-516.404 970,-501 968.726,-500.863 967.441,-500.724 966.147,-500.583"/>
<polygon fill="midnightblue" stroke="midnightblue" points="966.412,-497.091 956.09,-499.479 965.648,-504.049 966.412,-497.091"/>
</g>
<!-- Node6 -->
<g id="node6" class="node"><title>Node6</title>
<polygon fill="white" stroke="#bfbfbf" points="93,-0.5 93,-19.5 183,-19.5 183,-0.5 93,-0.5"/>
<text text-anchor="middle" x="138" y="-7.5" font-family="Helvetica,sans-Serif" font-size="10.00">dlpack/dlpack.h</text>
</g>
<!-- Node5&#45;&gt;Node6 -->
<g id="edge5" class="edge"><title>Node5&#45;&gt;Node6</title>
<path fill="none" stroke="midnightblue" d="M206.671,-56.3993C192.515,-47.0402 173.989,-34.7924 159.747,-25.3771"/>
<polygon fill="midnightblue" stroke="midnightblue" points="161.368,-22.2531 151.096,-19.6578 157.507,-28.0923 161.368,-22.2531"/>
</g>
<!-- Node7 -->
<g id="node7" class="node"><title>Node7</title>
<polygon fill="white" stroke="#bfbfbf" points="201.5,-0.5 201.5,-19.5 254.5,-19.5 254.5,-0.5 201.5,-0.5"/>
<text text-anchor="middle" x="228" y="-7.5" font-family="Helvetica,sans-Serif" font-size="10.00">stdint.h</text>
</g>
<!-- Node5&#45;&gt;Node7 -->
<g id="edge6" class="edge"><title>Node5&#45;&gt;Node7</title>
<path fill="none" stroke="midnightblue" d="M228,-56.3993C228,-48.4664 228,-38.458 228,-29.8583"/>
<polygon fill="midnightblue" stroke="midnightblue" points="231.5,-29.6577 228,-19.6578 224.5,-29.6578 231.5,-29.6577"/>
</g>
<!-- Node8 -->
<g id="node8" class="node"><title>Node8</title>
<polygon fill="white" stroke="#bfbfbf" points="272.5,-0.5 272.5,-19.5 327.5,-19.5 327.5,-0.5 272.5,-0.5"/>
<text text-anchor="middle" x="300" y="-7.5" font-family="Helvetica,sans-Serif" font-size="10.00">stddef.h</text>
</g>
<!-- Node5&#45;&gt;Node8 -->
<g id="edge7" class="edge"><title>Node5&#45;&gt;Node8</title>
<path fill="none" stroke="midnightblue" d="M245.063,-56.3993C256.065,-47.3076 270.365,-35.4899 281.618,-26.1909"/>
<polygon fill="midnightblue" stroke="midnightblue" points="284.044,-28.726 289.523,-19.6578 279.585,-23.33 284.044,-28.726"/>
</g>
<!-- Node10 -->
<g id="node10" class="node"><title>Node10</title>
<polygon fill="white" stroke="#bfbfbf" points="1292,-62 1292,-81 1378,-81 1378,-62 1292,-62"/>
<text text-anchor="middle" x="1335" y="-69" font-family="Helvetica,sans-Serif" font-size="10.00">dmlc/logging.h</text>
</g>
<!-- Node9&#45;&gt;Node10 -->
<g id="edge9" class="edge"><title>Node9&#45;&gt;Node10</title>
<path fill="none" stroke="midnightblue" d="M1656.26,-302.189C1656.47,-278.698 1653.69,-213.987 1619,-179 1555.96,-115.414 1451.37,-89.3122 1388.24,-78.952"/>
<polygon fill="midnightblue" stroke="midnightblue" points="1388.52,-75.4528 1378.1,-77.3644 1387.44,-82.3686 1388.52,-75.4528"/>
</g>
<!-- Node9&#45;&gt;Node11 -->
<g id="edge10" class="edge"><title>Node9&#45;&gt;Node11</title>
<path fill="none" stroke="midnightblue" d="M1589.89,-304.967C1467.44,-293.792 1206.14,-269.947 1077.98,-258.251"/>
<polygon fill="midnightblue" stroke="midnightblue" points="1078.14,-254.752 1067.87,-257.328 1077.51,-261.723 1078.14,-254.752"/>
</g>
<!-- Node9&#45;&gt;Node12 -->
<g id="edge21" class="edge"><title>Node9&#45;&gt;Node12</title>
<path fill="none" stroke="midnightblue" d="M1634.47,-302.394C1615.42,-294.313 1587.27,-281.21 1565,-266 1548.11,-254.466 1549.35,-244.035 1531,-235 1429.45,-184.989 1095.39,-151.867 949.823,-139.467"/>
<polygon fill="midnightblue" stroke="midnightblue" points="949.933,-135.963 939.673,-138.61 949.344,-142.939 949.933,-135.963"/>
</g>
<!-- Node9&#45;&gt;Node13 -->
<g id="edge46" class="edge"><title>Node9&#45;&gt;Node13</title>
<path fill="none" stroke="midnightblue" d="M1692.18,-302.414C1712.42,-295.77 1736.42,-284.488 1751,-266 1791.2,-215.003 1736.44,-170.238 1781,-123 1817.48,-84.324 1880.34,-74.2043 1922.77,-72.0917"/>
<polygon fill="midnightblue" stroke="midnightblue" points="1922.96,-75.5872 1932.82,-71.721 1922.7,-68.592 1922.96,-75.5872"/>
</g>
<!-- Node9&#45;&gt;Node14 -->
<g id="edge45" class="edge"><title>Node9&#45;&gt;Node14</title>
<path fill="none" stroke="midnightblue" d="M1719.06,-302.482C1811.01,-288.623 1986.05,-256.757 2125,-199 2184.34,-174.335 2187.02,-143.279 2248,-123 2348.6,-89.5436 2678.42,-76.7214 2783.52,-73.4245"/>
<polygon fill="midnightblue" stroke="midnightblue" points="2783.92,-76.9138 2793.81,-73.1098 2783.71,-69.9171 2783.92,-76.9138"/>
</g>
<!-- Node9&#45;&gt;Node15 -->
<g id="edge47" class="edge"><title>Node9&#45;&gt;Node15</title>
<path fill="none" stroke="midnightblue" d="M1651.1,-302.12C1642.38,-286.927 1622.92,-255.592 1600,-235 1526.51,-168.978 1502.56,-151.6 1408,-123 1278.87,-83.9452 936.634,-95.5388 802,-87 736.57,-82.8503 659.969,-77.5871 618.153,-74.6795"/>
<polygon fill="midnightblue" stroke="midnightblue" points="618.273,-71.1795 608.054,-73.976 617.786,-78.1625 618.273,-71.1795"/>
</g>
<!-- Node18 -->
<g id="node18" class="node"><title>Node18</title>
<g id="a_node18"><a xlink:href="packed__func_8h.html" target="_top" xlink:title="Type&#45;erased function used across TVM API. ">
<polygon fill="white" stroke="red" points="1314.5,-235.5 1314.5,-265.5 1427.5,-265.5 1427.5,-235.5 1314.5,-235.5"/>
<text text-anchor="start" x="1322.5" y="-253.5" font-family="Helvetica,sans-Serif" font-size="10.00">tvm/runtime/packed</text>
<text text-anchor="middle" x="1371" y="-242.5" font-family="Helvetica,sans-Serif" font-size="10.00">_func.h</text>
</a>
</g>
</g>
<!-- Node9&#45;&gt;Node18 -->
<g id="edge22" class="edge"><title>Node9&#45;&gt;Node18</title>
<path fill="none" stroke="midnightblue" d="M1612.95,-302.43C1570.65,-293.955 1503.99,-280.462 1437.51,-266.305"/>
<polygon fill="midnightblue" stroke="midnightblue" points="1438.22,-262.877 1427.71,-264.212 1436.76,-269.723 1438.22,-262.877"/>
</g>
<!-- Node9&#45;&gt;Node20 -->
<g id="edge48" class="edge"><title>Node9&#45;&gt;Node20</title>
<path fill="none" stroke="midnightblue" d="M1647.05,-302.171C1631.4,-287.053 1597.61,-255.83 1565,-235 1504.29,-196.225 1426.35,-163.184 1383.26,-146.213"/>
<polygon fill="midnightblue" stroke="midnightblue" points="1384.44,-142.916 1373.86,-142.545 1381.9,-149.438 1384.44,-142.916"/>
</g>
<!-- Node24 -->
<g id="node24" class="node"><title>Node24</title>
<polygon fill="white" stroke="#bfbfbf" points="1693.5,-241 1693.5,-260 1742.5,-260 1742.5,-241 1693.5,-241"/>
<text text-anchor="middle" x="1718" y="-248" font-family="Helvetica,sans-Serif" font-size="10.00">cstring</text>
</g>
<!-- Node9&#45;&gt;Node24 -->
<g id="edge43" class="edge"><title>Node9&#45;&gt;Node24</title>
<path fill="none" stroke="midnightblue" d="M1664.88,-302.475C1674.46,-293.285 1689.91,-278.456 1701.69,-267.156"/>
<polygon fill="midnightblue" stroke="midnightblue" points="1704.34,-269.458 1709.13,-260.009 1699.49,-264.408 1704.34,-269.458"/>
</g>
<!-- Node25 -->
<g id="node25" class="node"><title>Node25</title>
<polygon fill="white" stroke="#bfbfbf" points="1445.5,-241 1445.5,-260 1522.5,-260 1522.5,-241 1445.5,-241"/>
<text text-anchor="middle" x="1484" y="-248" font-family="Helvetica,sans-Serif" font-size="10.00">initializer_list</text>
</g>
<!-- Node9&#45;&gt;Node25 -->
<g id="edge44" class="edge"><title>Node9&#45;&gt;Node25</title>
<path fill="none" stroke="midnightblue" d="M1631.36,-302.475C1601.72,-292.225 1551.82,-274.959 1518.4,-263.399"/>
<polygon fill="midnightblue" stroke="midnightblue" points="1519.19,-259.971 1508.6,-260.009 1516.9,-266.586 1519.19,-259.971"/>
</g>
<!-- Node11&#45;&gt;Node12 -->
<g id="edge11" class="edge"><title>Node11&#45;&gt;Node12</title>
<path fill="none" stroke="midnightblue" d="M1001,-240.668C995.716,-226.209 983.52,-197.272 965,-179 950.725,-164.916 931.136,-154.081 914.466,-146.575"/>
<polygon fill="midnightblue" stroke="midnightblue" points="915.621,-143.262 905.051,-142.541 912.864,-149.697 915.621,-143.262"/>
</g>
<!-- Node11&#45;&gt;Node13 -->
<g id="edge20" class="edge"><title>Node11&#45;&gt;Node13</title>
<path fill="none" stroke="midnightblue" d="M1044.39,-240.955C1145.39,-219.715 1417.14,-163.335 1645,-123 1743.76,-105.517 1860.12,-88.0352 1922.37,-78.9336"/>
<polygon fill="midnightblue" stroke="midnightblue" points="1923.22,-82.3459 1932.61,-77.4397 1922.21,-75.4192 1923.22,-82.3459"/>
</g>
<!-- Node11&#45;&gt;Node15 -->
<g id="edge19" class="edge"><title>Node11&#45;&gt;Node15</title>
<path fill="none" stroke="midnightblue" d="M940.422,-243.867C859.985,-235.998 726.561,-220.256 682,-199 648.486,-183.014 642.085,-172.85 620,-143 608.099,-126.915 598.925,-105.853 593.305,-90.9518"/>
<polygon fill="midnightblue" stroke="midnightblue" points="596.53,-89.5756 589.853,-81.3495 589.943,-91.944 596.53,-89.5756"/>
</g>
<!-- Node17 -->
<g id="node17" class="node"><title>Node17</title>
<polygon fill="white" stroke="#bfbfbf" points="909.5,-179.5 909.5,-198.5 956.5,-198.5 956.5,-179.5 909.5,-179.5"/>
<text text-anchor="middle" x="933" y="-186.5" font-family="Helvetica,sans-Serif" font-size="10.00">cstdlib</text>
</g>
<!-- Node11&#45;&gt;Node17 -->
<g id="edge18" class="edge"><title>Node11&#45;&gt;Node17</title>
<path fill="none" stroke="midnightblue" d="M993.827,-240.975C982.65,-231.608 964.483,-216.384 950.909,-205.008"/>
<polygon fill="midnightblue" stroke="midnightblue" points="953.066,-202.25 943.154,-198.509 948.57,-207.615 953.066,-202.25"/>
</g>
<!-- Node12&#45;&gt;Node5 -->
<g id="edge13" class="edge"><title>Node12&#45;&gt;Node5</title>
<path fill="none" stroke="midnightblue" d="M822.476,-126.667C703.455,-115.822 433.387,-91.2144 302.234,-79.2641"/>
<polygon fill="midnightblue" stroke="midnightblue" points="302.167,-75.7435 291.891,-78.3216 301.532,-82.7146 302.167,-75.7435"/>
</g>
<!-- Node12&#45;&gt;Node10 -->
<g id="edge12" class="edge"><title>Node12&#45;&gt;Node10</title>
<path fill="none" stroke="midnightblue" d="M939.887,-124.282C1028.88,-112.619 1196.3,-90.6776 1281.81,-79.4714"/>
<polygon fill="midnightblue" stroke="midnightblue" points="1282.36,-82.9293 1291.82,-78.1594 1281.45,-75.9887 1282.36,-82.9293"/>
</g>
<!-- Node12&#45;&gt;Node13 -->
<g id="edge14" class="edge"><title>Node12&#45;&gt;Node13</title>
<path fill="none" stroke="midnightblue" d="M939.773,-128.78C1133.88,-118.145 1751.78,-84.2915 1922.77,-74.9232"/>
<polygon fill="midnightblue" stroke="midnightblue" points="1923.12,-78.4093 1932.92,-74.3674 1922.74,-71.4198 1923.12,-78.4093"/>
</g>
<!-- Node12&#45;&gt;Node14 -->
<g id="edge15" class="edge"><title>Node12&#45;&gt;Node14</title>
<path fill="none" stroke="midnightblue" d="M939.702,-130.195C1235.8,-121.09 2560.09,-80.369 2783.84,-73.4889"/>
<polygon fill="midnightblue" stroke="midnightblue" points="2784.05,-76.9841 2793.94,-73.1783 2783.84,-69.9874 2784.05,-76.9841"/>
</g>
<!-- Node12&#45;&gt;Node15 -->
<g id="edge16" class="edge"><title>Node12&#45;&gt;Node15</title>
<path fill="none" stroke="midnightblue" d="M838.877,-123.475C779.038,-111.365 670.82,-89.4636 617.867,-78.7469"/>
<polygon fill="midnightblue" stroke="midnightblue" points="618.54,-75.3122 608.044,-76.7589 617.151,-82.1731 618.54,-75.3122"/>
</g>
<!-- Node16 -->
<g id="node16" class="node"><title>Node16</title>
<polygon fill="white" stroke="#bfbfbf" points="811,-62 811,-81 861,-81 861,-62 811,-62"/>
<text text-anchor="middle" x="836" y="-69" font-family="Helvetica,sans-Serif" font-size="10.00">atomic</text>
</g>
<!-- Node12&#45;&gt;Node16 -->
<g id="edge17" class="edge"><title>Node12&#45;&gt;Node16</title>
<path fill="none" stroke="midnightblue" d="M874.553,-123.475C867.803,-114.55 857.031,-100.307 848.587,-89.1425"/>
<polygon fill="midnightblue" stroke="midnightblue" points="851.259,-86.8737 842.435,-81.0091 845.676,-91.0962 851.259,-86.8737"/>
</g>
<!-- Node18&#45;&gt;Node5 -->
<g id="edge24" class="edge"><title>Node18&#45;&gt;Node5</title>
<path fill="none" stroke="midnightblue" d="M1314.12,-247.059C1196.02,-241.609 915.744,-226.703 682,-199 529.482,-180.924 484.725,-197.145 341,-143 308.716,-130.838 275.682,-108.906 253.737,-92.7237"/>
<polygon fill="midnightblue" stroke="midnightblue" points="255.709,-89.8276 245.611,-86.6194 251.504,-95.4242 255.709,-89.8276"/>
</g>
<!-- Node18&#45;&gt;Node10 -->
<g id="edge23" class="edge"><title>Node18&#45;&gt;Node10</title>
<path fill="none" stroke="midnightblue" d="M1426.47,-235.463C1458.98,-225.991 1495.49,-212.75 1505,-199 1510.06,-191.69 1509.01,-186.934 1505,-179 1479.33,-128.208 1417.17,-98.867 1375.56,-84.2859"/>
<polygon fill="midnightblue" stroke="midnightblue" points="1376.57,-80.9337 1365.98,-81.0603 1374.34,-87.5678 1376.57,-80.9337"/>
</g>
<!-- Node18&#45;&gt;Node12 -->
<g id="edge36" class="edge"><title>Node18&#45;&gt;Node12</title>
<path fill="none" stroke="midnightblue" d="M1336.55,-235.494C1296.44,-219.682 1227.9,-194.188 1167,-179 1093.85,-160.757 1008.23,-148.443 949.876,-141.374"/>
<polygon fill="midnightblue" stroke="midnightblue" points="950.011,-137.865 939.667,-140.157 949.183,-144.816 950.011,-137.865"/>
</g>
<!-- Node18&#45;&gt;Node13 -->
<g id="edge42" class="edge"><title>Node18&#45;&gt;Node13</title>
<path fill="none" stroke="midnightblue" d="M1415.25,-235.465C1445.26,-225.733 1485.74,-212.199 1521,-199 1603.86,-167.978 1620.24,-148.39 1705,-123 1780.09,-100.505 1870.39,-85.684 1922.98,-78.2202"/>
<polygon fill="midnightblue" stroke="midnightblue" points="1923.56,-81.6735 1932.98,-76.8255 1922.59,-74.7406 1923.56,-81.6735"/>
</g>
<!-- Node18&#45;&gt;Node14 -->
<g id="edge39" class="edge"><title>Node18&#45;&gt;Node14</title>
<path fill="none" stroke="midnightblue" d="M1427.69,-236.7C1430.5,-236.115 1433.28,-235.545 1436,-235 1715.29,-179.091 1784.27,-157.52 2067,-123 2343.13,-89.2854 2679.49,-76.6849 2783.68,-73.4275"/>
<polygon fill="midnightblue" stroke="midnightblue" points="2783.97,-76.9204 2793.86,-73.1162 2783.76,-69.9237 2783.97,-76.9204"/>
</g>
<!-- Node18&#45;&gt;Node15 -->
<g id="edge41" class="edge"><title>Node18&#45;&gt;Node15</title>
<path fill="none" stroke="midnightblue" d="M1384.74,-235.387C1392.95,-225.934 1402.6,-212.742 1407,-199 1417.79,-165.263 1411.95,-143.405 1383,-123 1330.13,-85.7412 866.544,-91.1761 802,-87 736.576,-82.7669 659.973,-77.5345 618.154,-74.6546"/>
<polygon fill="midnightblue" stroke="midnightblue" points="618.272,-71.1545 608.055,-73.9582 617.79,-78.1379 618.272,-71.1545"/>
</g>
<!-- Node19 -->
<g id="node19" class="node"><title>Node19</title>
<g id="a_node19"><a xlink:href="ndarray_8h.html" target="_top" xlink:title="A device&#45;independent managed NDArray abstraction. ">
<polygon fill="white" stroke="red" points="691.5,-179.5 691.5,-198.5 814.5,-198.5 814.5,-179.5 691.5,-179.5"/>
<text text-anchor="middle" x="753" y="-186.5" font-family="Helvetica,sans-Serif" font-size="10.00">tvm/runtime/ndarray.h</text>
</a>
</g>
</g>
<!-- Node18&#45;&gt;Node19 -->
<g id="edge25" class="edge"><title>Node18&#45;&gt;Node19</title>
<path fill="none" stroke="midnightblue" d="M1314.24,-244.036C1201.34,-233.166 948.808,-208.852 824.672,-196.9"/>
<polygon fill="midnightblue" stroke="midnightblue" points="824.802,-193.397 814.513,-195.922 824.131,-200.365 824.802,-193.397"/>
</g>
<!-- Node18&#45;&gt;Node20 -->
<g id="edge38" class="edge"><title>Node18&#45;&gt;Node20</title>
<path fill="none" stroke="midnightblue" d="M1380.23,-235.49C1388.49,-221.094 1398.28,-198.146 1391,-179 1386.66,-167.598 1377.97,-157.239 1369.79,-149.343"/>
<polygon fill="midnightblue" stroke="midnightblue" points="1372.04,-146.66 1362.27,-142.573 1367.36,-151.863 1372.04,-146.66"/>
</g>
<!-- Node18&#45;&gt;Node21 -->
<g id="edge31" class="edge"><title>Node18&#45;&gt;Node21</title>
<path fill="none" stroke="midnightblue" d="M1427.64,-236.394C1430.46,-235.889 1433.26,-235.42 1436,-235 1595.75,-210.527 1784.73,-198.5 1888.66,-193.329"/>
<polygon fill="midnightblue" stroke="midnightblue" points="1888.94,-196.82 1898.76,-192.835 1888.6,-189.828 1888.94,-196.82"/>
</g>
<!-- Node22 -->
<g id="node22" class="node"><title>Node22</title>
<polygon fill="white" stroke="#bfbfbf" points="2053.5,-179.5 2053.5,-198.5 2116.5,-198.5 2116.5,-179.5 2053.5,-179.5"/>
<text text-anchor="middle" x="2085" y="-186.5" font-family="Helvetica,sans-Serif" font-size="10.00">functional</text>
</g>
<!-- Node18&#45;&gt;Node22 -->
<g id="edge37" class="edge"><title>Node18&#45;&gt;Node22</title>
<path fill="none" stroke="midnightblue" d="M1427.62,-236.308C1430.45,-235.826 1433.25,-235.385 1436,-235 1700.8,-197.869 1774.08,-235.2 2043.24,-198.854"/>
<polygon fill="midnightblue" stroke="midnightblue" points="2043.87,-202.299 2053.3,-197.473 2042.92,-195.364 2043.87,-202.299"/>
</g>
<!-- Node18&#45;&gt;Node23 -->
<g id="edge40" class="edge"><title>Node18&#45;&gt;Node23</title>
<path fill="none" stroke="midnightblue" d="M1314.48,-246.689C1175.38,-239.673 805.366,-220.407 497,-199 470.148,-197.136 439.674,-194.638 417.459,-192.746"/>
<polygon fill="midnightblue" stroke="midnightblue" points="417.531,-189.24 407.268,-191.872 416.933,-196.214 417.531,-189.24"/>
</g>
<!-- Node19&#45;&gt;Node5 -->
<g id="edge26" class="edge"><title>Node19&#45;&gt;Node5</title>
<path fill="none" stroke="midnightblue" d="M691.268,-184.761C620.814,-179.983 502.586,-168.658 404,-143 354.792,-130.193 300.885,-107.172 265.868,-90.9263"/>
<polygon fill="midnightblue" stroke="midnightblue" points="267.052,-87.6157 256.512,-86.5381 264.08,-93.9533 267.052,-87.6157"/>
</g>
<!-- Node19&#45;&gt;Node12 -->
<g id="edge27" class="edge"><title>Node19&#45;&gt;Node12</title>
<path fill="none" stroke="midnightblue" d="M773.282,-179.444C794.347,-170.557 827.517,-156.563 851.486,-146.451"/>
<polygon fill="midnightblue" stroke="midnightblue" points="852.96,-149.628 860.813,-142.516 850.239,-143.179 852.96,-149.628"/>
</g>
<!-- Node19&#45;&gt;Node15 -->
<g id="edge30" class="edge"><title>Node19&#45;&gt;Node15</title>
<path fill="none" stroke="midnightblue" d="M720.779,-179.369C697.85,-172.165 667.133,-160.267 644,-143 624.363,-128.342 607.529,-105.438 597.352,-89.7393"/>
<polygon fill="midnightblue" stroke="midnightblue" points="600.178,-87.6578 591.909,-81.0336 594.242,-91.3684 600.178,-87.6578"/>
</g>
<!-- Node19&#45;&gt;Node16 -->
<g id="edge28" class="edge"><title>Node19&#45;&gt;Node16</title>
<path fill="none" stroke="midnightblue" d="M759.238,-179.319C772.938,-160.255 805.857,-114.447 823.814,-89.4582"/>
<polygon fill="midnightblue" stroke="midnightblue" points="826.696,-91.4452 829.689,-81.282 821.011,-87.3602 826.696,-91.4452"/>
</g>
<!-- Node19&#45;&gt;Node20 -->
<g id="edge29" class="edge"><title>Node19&#45;&gt;Node20</title>
<path fill="none" stroke="midnightblue" d="M814.744,-182.424C940.008,-171.113 1220.32,-145.8 1317.26,-137.047"/>
<polygon fill="midnightblue" stroke="midnightblue" points="1317.72,-140.519 1327.37,-136.134 1317.09,-133.548 1317.72,-140.519"/>
</g>
<!-- Node21&#45;&gt;Node5 -->
<g id="edge32" class="edge"><title>Node21&#45;&gt;Node5</title>
<path fill="none" stroke="midnightblue" d="M1898.69,-186.886C1663.93,-182.869 891.086,-168.025 644,-143 523.194,-130.764 384.419,-104.816 301.595,-88.0429"/>
<polygon fill="midnightblue" stroke="midnightblue" points="302.274,-84.6094 291.777,-86.0444 300.878,-91.4687 302.274,-84.6094"/>
</g>
<!-- Node21&#45;&gt;Node10 -->
<g id="edge33" class="edge"><title>Node21&#45;&gt;Node10</title>
<path fill="none" stroke="midnightblue" d="M1921.98,-179.461C1855.67,-166.915 1727.84,-142.841 1619,-123 1538.6,-108.343 1445.29,-91.8497 1388.2,-81.8185"/>
<polygon fill="midnightblue" stroke="midnightblue" points="1388.78,-78.3661 1378.32,-80.0834 1387.57,-85.2605 1388.78,-78.3661"/>
</g>
<!-- Node21&#45;&gt;Node13 -->
<g id="edge34" class="edge"><title>Node21&#45;&gt;Node13</title>
<path fill="none" stroke="midnightblue" d="M1967,-179.319C1967,-160.757 1967,-116.839 1967,-91.4734"/>
<polygon fill="midnightblue" stroke="midnightblue" points="1970.5,-91.282 1967,-81.282 1963.5,-91.282 1970.5,-91.282"/>
</g>
<!-- Node21&#45;&gt;Node14 -->
<g id="edge35" class="edge"><title>Node21&#45;&gt;Node14</title>
<path fill="none" stroke="midnightblue" d="M1983.69,-179.403C2012.74,-164.893 2074.88,-135.873 2131,-123 2257.66,-93.9487 2665.14,-77.7608 2783.49,-73.5901"/>
<polygon fill="midnightblue" stroke="midnightblue" points="2783.84,-77.0802 2793.71,-73.2346 2783.59,-70.0844 2783.84,-77.0802"/>
</g>
<!-- Node26&#45;&gt;Node5 -->
<g id="edge52" class="edge"><title>Node26&#45;&gt;Node5</title>
<path fill="none" stroke="midnightblue" d="M1268.07,-487.717C1151.87,-482.798 900.041,-469.604 817,-445 594.333,-379.026 543.431,-336.124 356,-199 312.81,-167.402 270.115,-121.459 246.586,-94.5108"/>
<polygon fill="midnightblue" stroke="midnightblue" points="249.106,-92.0737 239.92,-86.7943 243.809,-96.6498 249.106,-92.0737"/>
</g>
<!-- Node26&#45;&gt;Node11 -->
<g id="edge54" class="edge"><title>Node26&#45;&gt;Node11</title>
<path fill="none" stroke="midnightblue" d="M1303.3,-481.4C1283.38,-473.74 1255.29,-461.237 1234,-445 1167.11,-393.993 1176.94,-352.944 1110,-302 1088.34,-285.514 1060.43,-272.485 1038.69,-263.793"/>
<polygon fill="midnightblue" stroke="midnightblue" points="1039.77,-260.458 1029.18,-260.108 1037.24,-266.985 1039.77,-260.458"/>
</g>
<!-- Node26&#45;&gt;Node12 -->
<g id="edge53" class="edge"><title>Node26&#45;&gt;Node12</title>
<path fill="none" stroke="midnightblue" d="M1296.09,-481.456C1269.19,-473.671 1230.07,-460.966 1198,-445 1134.05,-413.165 977.388,-320.322 931,-266 902.188,-232.26 889.12,-180.219 883.939,-152.64"/>
<polygon fill="midnightblue" stroke="midnightblue" points="887.38,-152.002 882.225,-142.746 880.483,-153.197 887.38,-152.002"/>
</g>
<!-- Node26&#45;&gt;Node13 -->
<g id="edge86" class="edge"><title>Node26&#45;&gt;Node13</title>
<path fill="none" stroke="midnightblue" d="M1333.14,-481.123C1342.27,-465.934 1362.57,-434.605 1386,-414 1423.38,-381.129 1435.97,-374.313 1483,-358 1588.23,-321.502 1632.65,-374.264 1731,-322 1836.58,-265.898 1827.66,-207.738 1912,-123 1924.1,-110.846 1938.38,-97.769 1949.35,-87.9679"/>
<polygon fill="midnightblue" stroke="midnightblue" points="1951.85,-90.4323 1957.01,-81.181 1947.21,-85.193 1951.85,-90.4323"/>
</g>
<!-- Node26&#45;&gt;Node14 -->
<g id="edge85" class="edge"><title>Node26&#45;&gt;Node14</title>
<path fill="none" stroke="midnightblue" d="M1387.6,-488.774C1529.97,-485.404 1886.53,-474.227 2002,-445 2023.4,-439.582 2648.49,-150.138 2788.4,-85.2956"/>
<polygon fill="midnightblue" stroke="midnightblue" points="2790.02,-88.4029 2797.62,-81.0221 2787.07,-82.0519 2790.02,-88.4029"/>
</g>
<!-- Node26&#45;&gt;Node18 -->
<g id="edge55" class="edge"><title>Node26&#45;&gt;Node18</title>
<path fill="none" stroke="midnightblue" d="M1329.14,-481.085C1331,-466.863 1334.87,-438.181 1339,-414 1347.4,-364.813 1359.11,-307.639 1365.79,-275.909"/>
<polygon fill="midnightblue" stroke="midnightblue" points="1369.28,-276.31 1367.93,-265.802 1362.44,-274.861 1369.28,-276.31"/>
</g>
<!-- Node26&#45;&gt;Node19 -->
<g id="edge56" class="edge"><title>Node26&#45;&gt;Node19</title>
<path fill="none" stroke="midnightblue" d="M1281.74,-481.448C1246.88,-474.129 1198.36,-462.054 1158,-445 997.084,-376.996 827.303,-248.69 771.762,-205.005"/>
<polygon fill="midnightblue" stroke="midnightblue" points="773.861,-202.203 763.847,-198.742 769.518,-207.692 773.861,-202.203"/>
</g>
<!-- Node26&#45;&gt;Node20 -->
<g id="edge84" class="edge"><title>Node26&#45;&gt;Node20</title>
<path fill="none" stroke="midnightblue" d="M1316.88,-481.31C1294.89,-463.065 1248,-418.359 1248,-369 1248,-369 1248,-369 1248,-311 1248,-252.995 1286.06,-249.267 1315,-199 1324.13,-183.143 1334.2,-164.903 1341.36,-151.789"/>
<polygon fill="midnightblue" stroke="midnightblue" points="1344.5,-153.34 1346.2,-142.884 1338.35,-149.994 1344.5,-153.34"/>
</g>
<!-- Node26&#45;&gt;Node21 -->
<g id="edge57" class="edge"><title>Node26&#45;&gt;Node21</title>
<path fill="none" stroke="midnightblue" d="M1339.27,-481.39C1374.59,-454.587 1483.15,-373.499 1524,-358 1637.19,-315.056 1682.13,-368.268 1794,-322 1860.41,-294.534 1923.65,-235.004 1951.76,-206.226"/>
<polygon fill="midnightblue" stroke="midnightblue" points="1954.62,-208.298 1959.03,-198.663 1949.57,-203.448 1954.62,-208.298"/>
</g>
<!-- Node26&#45;&gt;Node27 -->
<g id="edge58" class="edge"><title>Node26&#45;&gt;Node27</title>
<path fill="none" stroke="midnightblue" d="M1387.95,-482.585C1478.46,-471.388 1649.37,-450.246 1743.21,-438.638"/>
<polygon fill="midnightblue" stroke="midnightblue" points="1743.66,-442.109 1753.15,-437.408 1742.8,-435.162 1743.66,-442.109"/>
</g>
<!-- Node26&#45;&gt;Node31 -->
<g id="edge78" class="edge"><title>Node26&#45;&gt;Node31</title>
<path fill="none" stroke="midnightblue" d="M1387.59,-487.755C1486.32,-483.449 1690.18,-472.08 1872.39,-444.938"/>
<polygon fill="midnightblue" stroke="midnightblue" points="1873.06,-448.376 1882.43,-443.423 1872.02,-441.455 1873.06,-448.376"/>
</g>
<!-- Node27&#45;&gt;Node14 -->
<g id="edge77" class="edge"><title>Node27&#45;&gt;Node14</title>
<path fill="none" stroke="midnightblue" d="M1840.4,-414.488C1946.56,-367.56 2302.52,-213.784 2609,-123 2670.18,-104.878 2742.89,-88.251 2783.82,-79.331"/>
<polygon fill="midnightblue" stroke="midnightblue" points="2784.72,-82.7165 2793.75,-77.1809 2783.24,-75.8748 2784.72,-82.7165"/>
</g>
<!-- Node27&#45;&gt;Node21 -->
<g id="edge59" class="edge"><title>Node27&#45;&gt;Node21</title>
<path fill="none" stroke="midnightblue" d="M1822.94,-414.18C1841.68,-394.484 1875.34,-357.434 1899,-322 1924.66,-283.559 1947.73,-234.215 1959.26,-208.096"/>
<polygon fill="midnightblue" stroke="midnightblue" points="1962.56,-209.279 1963.34,-198.713 1956.14,-206.487 1962.56,-209.279"/>
</g>
<!-- Node27&#45;&gt;Node28 -->
<g id="edge60" class="edge"><title>Node27&#45;&gt;Node28</title>
<path fill="none" stroke="midnightblue" d="M1784.69,-414.45C1756.02,-398.475 1706.49,-372.71 1661,-358 1606.94,-340.52 1205.79,-296.725 1158,-266 1136.28,-252.038 1120.96,-225.71 1112.56,-208.009"/>
<polygon fill="midnightblue" stroke="midnightblue" points="1115.69,-206.441 1108.41,-198.743 1109.3,-209.301 1115.69,-206.441"/>
</g>
<!-- Node27&#45;&gt;Node29 -->
<g id="edge66" class="edge"><title>Node27&#45;&gt;Node29</title>
<path fill="none" stroke="midnightblue" d="M1758.08,-414.475C1720.17,-404.03 1669.08,-389.958 1633.83,-380.247"/>
<polygon fill="midnightblue" stroke="midnightblue" points="1634.45,-376.788 1623.88,-377.506 1632.59,-383.536 1634.45,-376.788"/>
</g>
<!-- Node28&#45;&gt;Node10 -->
<g id="edge61" class="edge"><title>Node28&#45;&gt;Node10</title>
<path fill="none" stroke="midnightblue" d="M1115.99,-179.29C1133.29,-165.874 1168.29,-139.937 1201,-123 1232.16,-106.863 1269.7,-93.1669 1297.11,-84.1269"/>
<polygon fill="midnightblue" stroke="midnightblue" points="1298.29,-87.4251 1306.72,-81.0111 1296.13,-80.7664 1298.29,-87.4251"/>
</g>
<!-- Node28&#45;&gt;Node12 -->
<g id="edge62" class="edge"><title>Node28&#45;&gt;Node12</title>
<path fill="none" stroke="midnightblue" d="M1069.51,-179.444C1030.68,-170.083 968.344,-155.056 926.082,-144.868"/>
<polygon fill="midnightblue" stroke="midnightblue" points="926.869,-141.458 916.327,-142.516 925.229,-148.263 926.869,-141.458"/>
</g>
<!-- Node28&#45;&gt;Node13 -->
<g id="edge64" class="edge"><title>Node28&#45;&gt;Node13</title>
<path fill="none" stroke="midnightblue" d="M1127.29,-179.423C1165.62,-165.078 1246.77,-136.472 1318,-123 1542.38,-80.5632 1816.88,-73.6559 1922.59,-72.6291"/>
<polygon fill="midnightblue" stroke="midnightblue" points="1922.9,-76.1267 1932.87,-72.543 1922.85,-69.127 1922.9,-76.1267"/>
</g>
<!-- Node28&#45;&gt;Node15 -->
<g id="edge65" class="edge"><title>Node28&#45;&gt;Node15</title>
<path fill="none" stroke="midnightblue" d="M1088.08,-179.311C1059.83,-165.194 1000.94,-137.411 948,-123 828.802,-90.5549 681.485,-78.2272 618.239,-74.2019"/>
<polygon fill="midnightblue" stroke="midnightblue" points="618.323,-70.7006 608.128,-73.5844 617.896,-77.6876 618.323,-70.7006"/>
</g>
<!-- Node28&#45;&gt;Node20 -->
<g id="edge63" class="edge"><title>Node28&#45;&gt;Node20</title>
<path fill="none" stroke="midnightblue" d="M1143.98,-179.444C1191.87,-168.932 1272.3,-151.275 1317.52,-141.349"/>
<polygon fill="midnightblue" stroke="midnightblue" points="1318.4,-144.74 1327.42,-139.177 1316.9,-137.903 1318.4,-144.74"/>
</g>
<!-- Node29&#45;&gt;Node9 -->
<g id="edge70" class="edge"><title>Node29&#45;&gt;Node9</title>
<path fill="none" stroke="midnightblue" d="M1603.12,-358.324C1612.53,-350.263 1626.74,-338.077 1638.07,-328.369"/>
<polygon fill="midnightblue" stroke="midnightblue" points="1640.38,-330.999 1645.69,-321.834 1635.82,-325.684 1640.38,-330.999"/>
</g>
<!-- Node29&#45;&gt;Node11 -->
<g id="edge68" class="edge"><title>Node29&#45;&gt;Node11</title>
<path fill="none" stroke="midnightblue" d="M1533.48,-360.785C1468.77,-353.533 1362.48,-340.177 1272,-322 1188.87,-305.299 1093.17,-278.177 1041.62,-262.9"/>
<polygon fill="midnightblue" stroke="midnightblue" points="1042.49,-259.51 1031.91,-260.009 1040.5,-266.218 1042.49,-259.51"/>
</g>
<!-- Node29&#45;&gt;Node12 -->
<g id="edge67" class="edge"><title>Node29&#45;&gt;Node12</title>
<path fill="none" stroke="midnightblue" d="M1537.25,-358.449C1485.62,-350.217 1406.81,-336.853 1339,-322 1290.98,-311.482 1170.08,-285.595 1125,-266 1101.37,-255.727 1097.79,-248.751 1076,-235 1036.48,-210.062 1028.42,-200.645 987,-179 963.138,-166.53 935.047,-154.727 913.78,-146.34"/>
<polygon fill="midnightblue" stroke="midnightblue" points="914.822,-142.989 904.234,-142.623 912.282,-149.512 914.822,-142.989"/>
</g>
<!-- Node29&#45;&gt;Node13 -->
<g id="edge71" class="edge"><title>Node29&#45;&gt;Node13</title>
<path fill="none" stroke="midnightblue" d="M1652.6,-365.191C1695.23,-361.302 1752.24,-350.567 1794,-322 1857.18,-278.783 1846.23,-241.804 1890,-179 1912.27,-147.04 1939.09,-110.339 1954.48,-89.4371"/>
<polygon fill="midnightblue" stroke="midnightblue" points="1957.39,-91.3872 1960.51,-81.2621 1951.75,-87.2317 1957.39,-91.3872"/>
</g>
<!-- Node29&#45;&gt;Node14 -->
<g id="edge76" class="edge"><title>Node29&#45;&gt;Node14</title>
<path fill="none" stroke="midnightblue" d="M1651.05,-358.499C1698.97,-350.858 1768.51,-338.332 1828,-322 1898.63,-302.608 1914.34,-291.502 1983,-266 1989.35,-263.64 2204.53,-181.014 2211,-179 2311.46,-147.74 2337.61,-142.492 2441,-123 2566.97,-99.2505 2718.78,-82.3653 2783.85,-75.6788"/>
<polygon fill="midnightblue" stroke="midnightblue" points="2784.3,-79.1516 2793.89,-74.6575 2783.59,-72.1875 2784.3,-79.1516"/>
</g>
<!-- Node29&#45;&gt;Node15 -->
<g id="edge75" class="edge"><title>Node29&#45;&gt;Node15</title>
<path fill="none" stroke="midnightblue" d="M1533.23,-362.43C1349.41,-347.453 795.845,-295.209 647,-199 620.646,-181.966 617.528,-171.314 604,-143 596.119,-126.506 591.71,-106.045 589.369,-91.4215"/>
<polygon fill="midnightblue" stroke="midnightblue" points="592.779,-90.5414 587.908,-81.1327 585.848,-91.5255 592.779,-90.5414"/>
</g>
<!-- Node29&#45;&gt;Node18 -->
<g id="edge69" class="edge"><title>Node29&#45;&gt;Node18</title>
<path fill="none" stroke="midnightblue" d="M1576.31,-358.319C1540.51,-339.689 1455.6,-295.516 1406.93,-270.194"/>
<polygon fill="midnightblue" stroke="midnightblue" points="1408.48,-267.056 1398,-265.545 1405.25,-273.266 1408.48,-267.056"/>
</g>
<!-- Node29&#45;&gt;Node20 -->
<g id="edge72" class="edge"><title>Node29&#45;&gt;Node20</title>
<path fill="none" stroke="midnightblue" d="M1533.46,-365.219C1465.39,-359.605 1356.72,-338.94 1305,-266 1297.03,-254.761 1298.84,-247.323 1305,-235 1316.93,-211.149 1341.07,-222.851 1353,-199 1360.18,-184.642 1358.77,-166.181 1356.09,-152.605"/>
<polygon fill="midnightblue" stroke="midnightblue" points="1359.42,-151.47 1353.71,-142.547 1352.61,-153.084 1359.42,-151.47"/>
</g>
<!-- Node29&#45;&gt;Node25 -->
<g id="edge73" class="edge"><title>Node29&#45;&gt;Node25</title>
<path fill="none" stroke="midnightblue" d="M1584.81,-358.319C1566.66,-339.088 1522.83,-292.641 1499.39,-267.805"/>
<polygon fill="midnightblue" stroke="midnightblue" points="1501.7,-265.153 1492.29,-260.282 1496.61,-269.957 1501.7,-265.153"/>
</g>
<!-- Node29&#45;&gt;Node30 -->
<g id="edge74" class="edge"><title>Node29&#45;&gt;Node30</title>
<path fill="none" stroke="midnightblue" d="M1533.45,-364.575C1312.31,-355.569 539.962,-324.116 323.677,-315.308"/>
<polygon fill="midnightblue" stroke="midnightblue" points="323.637,-311.804 313.503,-314.894 323.353,-318.798 323.637,-311.804"/>
</g>
<!-- Node31&#45;&gt;Node14 -->
<g id="edge82" class="edge"><title>Node31&#45;&gt;Node14</title>
<path fill="none" stroke="midnightblue" d="M1970.22,-414.29C1992.86,-404.256 2023.84,-390.437 2051,-378 2123.31,-344.885 2140.61,-334.93 2213,-302 2280.2,-271.431 2296.55,-262.664 2365,-235 2498.5,-181.047 2533.35,-171.283 2669,-123 2708.34,-108.997 2753.84,-93.4696 2783.67,-83.378"/>
<polygon fill="midnightblue" stroke="midnightblue" points="2785.18,-86.5627 2793.53,-80.0466 2782.94,-79.9307 2785.18,-86.5627"/>
</g>
<!-- Node31&#45;&gt;Node21 -->
<g id="edge79" class="edge"><title>Node31&#45;&gt;Node21</title>
<path fill="none" stroke="midnightblue" d="M1944.6,-414.432C1953.58,-394.424 1969.2,-356.355 1975,-322 1981.43,-283.872 1978.4,-273.517 1975,-235 1974.22,-226.197 1972.61,-216.536 1971.03,-208.43"/>
<polygon fill="midnightblue" stroke="midnightblue" points="1974.44,-207.648 1968.99,-198.567 1967.59,-209.069 1974.44,-207.648"/>
</g>
<!-- Node31&#45;&gt;Node22 -->
<g id="edge83" class="edge"><title>Node31&#45;&gt;Node22</title>
<path fill="none" stroke="midnightblue" d="M1949.8,-414.302C1957.83,-404.389 1968.5,-390.707 1977,-378 2017.21,-317.889 2057.89,-242.115 2075.69,-208.045"/>
<polygon fill="midnightblue" stroke="midnightblue" points="2078.95,-209.361 2080.46,-198.874 2072.74,-206.135 2078.95,-209.361"/>
</g>
<!-- Node31&#45;&gt;Node28 -->
<g id="edge80" class="edge"><title>Node31&#45;&gt;Node28</title>
<path fill="none" stroke="midnightblue" d="M1893.67,-414.435C1846.23,-399.587 1768.64,-375.901 1701,-358 1526.33,-311.775 1477.84,-318.656 1305,-266 1243.19,-247.17 1173.03,-218.838 1134.41,-202.613"/>
<polygon fill="midnightblue" stroke="midnightblue" points="1135.42,-199.237 1124.84,-198.568 1132.69,-205.685 1135.42,-199.237"/>
</g>
<!-- Node31&#45;&gt;Node29 -->
<g id="edge81" class="edge"><title>Node31&#45;&gt;Node29</title>
<path fill="none" stroke="midnightblue" d="M1882.38,-415.861C1879.21,-415.213 1876.07,-414.588 1873,-414 1801.61,-400.314 1719.44,-387.447 1662.66,-379.006"/>
<polygon fill="midnightblue" stroke="midnightblue" points="1663.12,-375.536 1652.72,-377.535 1662.1,-382.461 1663.12,-375.536"/>
</g>
<!-- Node32&#45;&gt;Node28 -->
<g id="edge88" class="edge"><title>Node32&#45;&gt;Node28</title>
<path fill="none" stroke="midnightblue" d="M891.792,-481.371C895.759,-438.948 913.953,-253.796 931,-235 945.926,-218.543 998.089,-206.471 1041.44,-198.997"/>
<polygon fill="midnightblue" stroke="midnightblue" points="1042.11,-202.435 1051.39,-197.334 1040.95,-195.531 1042.11,-202.435"/>
</g>
<!-- Node32&#45;&gt;Node33 -->
<g id="edge89" class="edge"><title>Node32&#45;&gt;Node33</title>
<path fill="none" stroke="midnightblue" d="M885.985,-481.475C880.839,-472.727 872.688,-458.869 866.182,-447.809"/>
<polygon fill="midnightblue" stroke="midnightblue" points="869.092,-445.854 861.005,-439.009 863.059,-449.403 869.092,-445.854"/>
</g>
<!-- Node34&#45;&gt;Node4 -->
<g id="edge103" class="edge"><title>Node34&#45;&gt;Node4</title>
<path fill="none" stroke="midnightblue" d="M1627.17,-705.309C1590.55,-678.416 1478.83,-596.352 1432.97,-562.666"/>
<polygon fill="midnightblue" stroke="midnightblue" points="1434.85,-559.704 1424.72,-556.605 1430.7,-565.346 1434.85,-559.704"/>
</g>
<!-- Node34&#45;&gt;Node12 -->
<g id="edge102" class="edge"><title>Node34&#45;&gt;Node12</title>
<path fill="none" stroke="midnightblue" d="M1600.1,-706.934C1553.26,-698.346 1472.25,-683.233 1403,-669 1087.59,-604.174 936.672,-677.595 714,-445 630.87,-358.166 572.536,-255.819 665,-179 687.155,-160.594 757.823,-148.283 812.36,-141.259"/>
<polygon fill="midnightblue" stroke="midnightblue" points="812.852,-144.725 822.34,-140.009 811.982,-137.779 812.852,-144.725"/>
</g>
<!-- Node34&#45;&gt;Node13 -->
<g id="edge119" class="edge"><title>Node34&#45;&gt;Node13</title>
<path fill="none" stroke="midnightblue" d="M1671.02,-705.467C1785.08,-674.988 2165.95,-572.494 2188,-557 2228.12,-528.814 2301.94,-424.66 2317,-378 2336.52,-317.517 2350.12,-289.246 2317,-235 2250.6,-126.238 2089.65,-89.388 2011.31,-77.6311"/>
<polygon fill="midnightblue" stroke="midnightblue" points="2011.67,-74.1468 2001.27,-76.195 2010.68,-81.0762 2011.67,-74.1468"/>
</g>
<!-- Node34&#45;&gt;Node14 -->
<g id="edge116" class="edge"><title>Node34&#45;&gt;Node14</title>
<path fill="none" stroke="midnightblue" d="M1677.56,-706.928C1721.44,-698.682 1795.19,-684.226 1858,-669 2262.57,-570.923 2376.95,-545.738 2728,-322 2761.6,-300.587 2775.07,-298.579 2798,-266 2816.12,-240.255 2815.82,-230.054 2821,-199 2827.31,-161.195 2822.7,-116.197 2819.12,-91.3474"/>
<polygon fill="midnightblue" stroke="midnightblue" points="2822.54,-90.5129 2817.55,-81.1656 2815.62,-91.5832 2822.54,-90.5129"/>
</g>
<!-- Node34&#45;&gt;Node23 -->
<g id="edge118" class="edge"><title>Node34&#45;&gt;Node23</title>
<path fill="none" stroke="midnightblue" d="M1600.32,-713.548C1447.82,-711.54 893.01,-702.01 822,-669 697.977,-611.346 696.296,-551.912 611,-445 540.889,-357.121 553.347,-310.442 470,-235 454.415,-220.893 433.607,-209.704 416.601,-202.011"/>
<polygon fill="midnightblue" stroke="midnightblue" points="417.662,-198.657 407.095,-197.891 414.878,-205.079 417.662,-198.657"/>
</g>
<!-- Node34&#45;&gt;Node29 -->
<g id="edge104" class="edge"><title>Node34&#45;&gt;Node29</title>
<path fill="none" stroke="midnightblue" d="M1637.86,-705.472C1631.88,-660.635 1604.04,-451.823 1595.5,-387.747"/>
<polygon fill="midnightblue" stroke="midnightblue" points="1598.93,-386.989 1594.14,-377.539 1591.99,-387.914 1598.93,-386.989"/>
</g>
<!-- Node35 -->
<g id="node35" class="node"><title>Node35</title>
<g id="a_node35"><a xlink:href="span_8h.html" target="_top" xlink:title="Span information for debugging purposes. ">
<polygon fill="white" stroke="black" points="1359,-593.5 1359,-612.5 1439,-612.5 1439,-593.5 1359,-593.5"/>
<text text-anchor="middle" x="1399" y="-600.5" font-family="Helvetica,sans-Serif" font-size="10.00">tvm/ir/span.h</text>
</a>
</g>
</g>
<!-- Node34&#45;&gt;Node35 -->
<g id="edge105" class="edge"><title>Node34&#45;&gt;Node35</title>
<path fill="none" stroke="midnightblue" d="M1600.14,-710.782C1544.28,-705.389 1445.12,-692.713 1419,-669 1406.04,-657.238 1401.38,-637.307 1399.76,-622.609"/>
<polygon fill="midnightblue" stroke="midnightblue" points="1403.25,-622.326 1399.02,-612.611 1396.27,-622.842 1403.25,-622.326"/>
</g>
<!-- Node36 -->
<g id="node36" class="node"><title>Node36</title>
<g id="a_node36"><a xlink:href="ir_2type_8h.html" target="_top" xlink:title="IR/AST nodes for the unified type system in TVM. ">
<polygon fill="white" stroke="black" points="1428.5,-649.5 1428.5,-668.5 1505.5,-668.5 1505.5,-649.5 1428.5,-649.5"/>
<text text-anchor="middle" x="1467" y="-656.5" font-family="Helvetica,sans-Serif" font-size="10.00">tvm/ir/type.h</text>
</a>
</g>
</g>
<!-- Node34&#45;&gt;Node36 -->
<g id="edge109" class="edge"><title>Node34&#45;&gt;Node36</title>
<path fill="none" stroke="midnightblue" d="M1611.75,-705.444C1582.56,-696.28 1536.08,-681.688 1503.69,-671.519"/>
<polygon fill="midnightblue" stroke="midnightblue" points="1504.72,-668.173 1494.13,-668.516 1502.62,-674.851 1504.72,-668.173"/>
</g>
<!-- Node34&#45;&gt;Node37 -->
<g id="edge117" class="edge"><title>Node34&#45;&gt;Node37</title>
<path fill="none" stroke="midnightblue" d="M1600.22,-712.014C1479.41,-705.814 1099.03,-686.206 784,-669 744.067,-666.819 698.498,-664.229 666.411,-662.389"/>
<polygon fill="midnightblue" stroke="midnightblue" points="666.259,-658.875 656.074,-661.795 665.857,-665.863 666.259,-658.875"/>
</g>
<!-- Node35&#45;&gt;Node4 -->
<g id="edge107" class="edge"><title>Node35&#45;&gt;Node4</title>
<path fill="none" stroke="midnightblue" d="M1401.31,-593.083C1403.17,-585.927 1405.84,-575.635 1408.15,-566.691"/>
<polygon fill="midnightblue" stroke="midnightblue" points="1411.61,-567.309 1410.73,-556.751 1404.83,-565.553 1411.61,-567.309"/>
</g>
<!-- Node35&#45;&gt;Node12 -->
<g id="edge106" class="edge"><title>Node35&#45;&gt;Node12</title>
<path fill="none" stroke="midnightblue" d="M1358.87,-599.868C1241.59,-592.907 902.295,-567.352 817,-501 694.516,-405.719 585.125,-300.227 682,-179 698.222,-158.701 761.214,-146.888 812.039,-140.502"/>
<polygon fill="midnightblue" stroke="midnightblue" points="812.516,-143.97 822.024,-139.297 811.676,-137.021 812.516,-143.97"/>
</g>
<!-- Node35&#45;&gt;Node14 -->
<g id="edge108" class="edge"><title>Node35&#45;&gt;Node14</title>
<path fill="none" stroke="midnightblue" d="M1439.17,-597.987C1645.21,-576.582 2581.26,-469.141 2773,-266 2819.24,-217.011 2819.91,-129.804 2817.66,-91.4686"/>
<polygon fill="midnightblue" stroke="midnightblue" points="2821.13,-90.9568 2816.92,-81.2369 2814.15,-91.4643 2821.13,-90.9568"/>
</g>
<!-- Node36&#45;&gt;Node4 -->
<g id="edge112" class="edge"><title>Node36&#45;&gt;Node4</title>
<path fill="none" stroke="midnightblue" d="M1465.52,-649.197C1463.11,-636.322 1457.64,-611.842 1448,-593 1442.72,-582.667 1434.93,-572.358 1428.04,-564.219"/>
<polygon fill="midnightblue" stroke="midnightblue" points="1430.57,-561.797 1421.33,-556.614 1425.32,-566.428 1430.57,-561.797"/>
</g>
<!-- Node36&#45;&gt;Node12 -->
<g id="edge110" class="edge"><title>Node36&#45;&gt;Node12</title>
<path fill="none" stroke="midnightblue" d="M1428.39,-653.769C1279.06,-636.596 742.163,-567.131 632,-445 592.285,-400.97 566.445,-218.125 611,-179 625.963,-165.86 737.081,-150.636 812.024,-141.689"/>
<polygon fill="midnightblue" stroke="midnightblue" points="812.824,-145.119 822.344,-140.469 812.003,-138.167 812.824,-145.119"/>
</g>
<!-- Node36&#45;&gt;Node14 -->
<g id="edge115" class="edge"><title>Node36&#45;&gt;Node14</title>
<path fill="none" stroke="midnightblue" d="M1505.67,-654.689C1616.17,-644.167 1941.27,-605.791 2188,-501 2456.5,-386.962 2729.47,-150.445 2799.06,-87.9309"/>
<polygon fill="midnightblue" stroke="midnightblue" points="2801.45,-90.4896 2806.53,-81.1897 2796.76,-85.2944 2801.45,-90.4896"/>
</g>
<!-- Node36&#45;&gt;Node21 -->
<g id="edge111" class="edge"><title>Node36&#45;&gt;Node21</title>
<path fill="none" stroke="midnightblue" d="M1500.95,-649.484C1629.08,-616.987 2077.82,-499.865 2112,-445 2167.74,-355.51 2038.5,-243.996 1987.01,-204.602"/>
<polygon fill="midnightblue" stroke="midnightblue" points="1989,-201.72 1978.91,-198.508 1984.8,-207.315 1989,-201.72"/>
</g>
<!-- Node36&#45;&gt;Node29 -->
<g id="edge113" class="edge"><title>Node36&#45;&gt;Node29</title>
<path fill="none" stroke="midnightblue" d="M1472.28,-649.231C1482.73,-631.043 1505,-587.601 1505,-548 1505,-548 1505,-548 1505,-490 1505,-444.493 1546.21,-404.602 1572.23,-383.954"/>
<polygon fill="midnightblue" stroke="midnightblue" points="1574.58,-386.566 1580.39,-377.709 1570.32,-381.007 1574.58,-386.566"/>
</g>
<!-- Node36&#45;&gt;Node35 -->
<g id="edge114" class="edge"><title>Node36&#45;&gt;Node35</title>
<path fill="none" stroke="midnightblue" d="M1456.07,-649.324C1445.83,-641.185 1430.28,-628.839 1418,-619.087"/>
<polygon fill="midnightblue" stroke="midnightblue" points="1420.13,-616.312 1410.12,-612.834 1415.78,-621.794 1420.13,-616.312"/>
</g>
<!-- Node38&#45;&gt;Node4 -->
<g id="edge121" class="edge"><title>Node38&#45;&gt;Node4</title>
<path fill="none" stroke="midnightblue" d="M1852.37,-761.433C1782.47,-727.478 1524.57,-602.2 1440.03,-561.132"/>
<polygon fill="midnightblue" stroke="midnightblue" points="1441.35,-557.882 1430.83,-556.661 1438.29,-564.179 1441.35,-557.882"/>
</g>
<!-- Node38&#45;&gt;Node14 -->
<g id="edge124" class="edge"><title>Node38&#45;&gt;Node14</title>
<path fill="none" stroke="midnightblue" d="M1907.08,-763.228C1943.8,-755.932 2001.3,-742.91 2049,-725 2388.69,-597.448 2470.29,-541.78 2759,-322 2788.55,-299.509 2802.06,-297.937 2821,-266 2836.62,-239.668 2833.15,-229.372 2837,-199 2841.25,-165.488 2844.89,-156.07 2838,-123 2835.62,-111.587 2830.52,-99.5921 2825.83,-90.1576"/>
<polygon fill="midnightblue" stroke="midnightblue" points="2828.8,-88.2916 2821.04,-81.0737 2822.61,-91.5528 2828.8,-88.2916"/>
</g>
<!-- Node38&#45;&gt;Node21 -->
<g id="edge122" class="edge"><title>Node38&#45;&gt;Node21</title>
<path fill="none" stroke="midnightblue" d="M1903.39,-761.459C1979.27,-740.309 2165.66,-678.229 2264,-557 2316.27,-492.565 2305.1,-460.112 2317,-378 2326.12,-315.102 2358.98,-282.72 2317,-235 2314.76,-232.451 2147.66,-211.838 2045.18,-199.412"/>
<polygon fill="midnightblue" stroke="midnightblue" points="2045.52,-195.927 2035.17,-198.199 2044.68,-202.876 2045.52,-195.927"/>
</g>
<!-- Node38&#45;&gt;Node34 -->
<g id="edge123" class="edge"><title>Node38&#45;&gt;Node34</title>
<path fill="none" stroke="midnightblue" d="M1833.4,-761.444C1793.27,-752.063 1728.8,-736.993 1685.22,-726.804"/>
<polygon fill="midnightblue" stroke="midnightblue" points="1685.97,-723.385 1675.43,-724.516 1684.37,-730.201 1685.97,-723.385"/>
</g>
<!-- Node39&#45;&gt;Node14 -->
<g id="edge129" class="edge"><title>Node39&#45;&gt;Node14</title>
<path fill="none" stroke="midnightblue" d="M1920.83,-824.759C2010.24,-821.661 2219.87,-811.503 2393,-781 2487.71,-764.314 2514.57,-765.048 2602,-725 2839.2,-616.345 2949,-512.405 2949,-251.5 2949,-251.5 2949,-251.5 2949,-188 2949,-134.575 2887.07,-100.279 2847.72,-83.8839"/>
<polygon fill="midnightblue" stroke="midnightblue" points="2848.85,-80.5629 2838.26,-80.1005 2846.25,-87.0627 2848.85,-80.5629"/>
</g>
<!-- Node39&#45;&gt;Node29 -->
<g id="edge126" class="edge"><title>Node39&#45;&gt;Node29</title>
<path fill="none" stroke="midnightblue" d="M1887.99,-817.365C1897.45,-809.171 1910.44,-795.917 1916,-781 1919.11,-772.672 1918.33,-769.579 1916,-761 1878.24,-621.812 1847.93,-588.692 1752,-481 1730.79,-457.191 1654.34,-407.556 1615.7,-383.158"/>
<polygon fill="midnightblue" stroke="midnightblue" points="1617.51,-380.162 1607.18,-377.803 1613.78,-386.088 1617.51,-380.162"/>
</g>
<!-- Node39&#45;&gt;Node34 -->
<g id="edge127" class="edge"><title>Node39&#45;&gt;Node34</title>
<path fill="none" stroke="midnightblue" d="M1858.32,-817.368C1816.61,-798.091 1715.71,-751.454 1666.67,-728.789"/>
<polygon fill="midnightblue" stroke="midnightblue" points="1668.13,-725.61 1657.59,-724.591 1665.2,-731.964 1668.13,-725.61"/>
</g>
<!-- Node39&#45;&gt;Node38 -->
<g id="edge128" class="edge"><title>Node39&#45;&gt;Node38</title>
<path fill="none" stroke="midnightblue" d="M1875.84,-817.083C1874.92,-809.927 1873.58,-799.635 1872.42,-790.691"/>
<polygon fill="midnightblue" stroke="midnightblue" points="1875.89,-790.218 1871.13,-780.751 1868.95,-791.118 1875.89,-790.218"/>
</g>
<!-- Node40&#45;&gt;Node3 -->
<g id="edge153" class="edge"><title>Node40&#45;&gt;Node3</title>
<path fill="none" stroke="midnightblue" d="M1631.32,-1041.45C1605.73,-1025.92 1552.58,-990.783 1520,-949 1508.89,-934.756 1500.18,-916.038 1494.66,-902.348"/>
<polygon fill="midnightblue" stroke="midnightblue" points="1497.79,-900.718 1490.95,-892.629 1491.25,-903.219 1497.79,-900.718"/>
</g>
<!-- Node40&#45;&gt;Node13 -->
<g id="edge164" class="edge"><title>Node40&#45;&gt;Node13</title>
<path fill="none" stroke="midnightblue" d="M1691.15,-1049.83C1886.47,-1048.86 2653.43,-1042.67 2754,-1005 2797.22,-988.808 2835,-986.158 2835,-940 2835,-940 2835,-940 2835,-428.5 2835,-198.752 2638.87,-186.262 2418,-123 2273.24,-81.5367 2093.25,-73.8369 2011.32,-72.5972"/>
<polygon fill="midnightblue" stroke="midnightblue" points="2011.17,-69.0951 2001.13,-72.4692 2011.08,-76.0946 2011.17,-69.0951"/>
</g>
<!-- Node40&#45;&gt;Node14 -->
<g id="edge161" class="edge"><title>Node40&#45;&gt;Node14</title>
<path fill="none" stroke="midnightblue" d="M1691.01,-1049.13C1875.61,-1045.4 2575.32,-1029.92 2795,-1005 2949.6,-987.463 3139,-1095.59 3139,-940 3139,-940 3139,-940 3139,-188 3139,-149.868 3116.03,-142.056 3083,-123 3007.11,-79.2194 2900.82,-72.3825 2848.17,-71.9289"/>
<polygon fill="midnightblue" stroke="midnightblue" points="2848.09,-68.4289 2838.08,-71.916 2848.08,-75.4288 2848.09,-68.4289"/>
</g>
<!-- Node40&#45;&gt;Node15 -->
<g id="edge163" class="edge"><title>Node40&#45;&gt;Node15</title>
<path fill="none" stroke="midnightblue" d="M1600.8,-1050.15C1398.01,-1050.56 570.916,-1049.43 316,-1005 223.09,-988.805 114,-1034.31 114,-940 114,-940 114,-940 114,-882 114,-785.244 79.0544,-765.232 69,-669 52.0497,-506.767 6.49702,-451.387 72,-302 118.719,-195.452 158.434,-174.002 263,-123 314.467,-97.8969 485.125,-81.0621 555.864,-75.0025"/>
<polygon fill="midnightblue" stroke="midnightblue" points="556.267,-78.4811 565.938,-74.1549 555.68,-71.5057 556.267,-78.4811"/>
</g>
<!-- Node40&#45;&gt;Node20 -->
<g id="edge162" class="edge"><title>Node40&#45;&gt;Node20</title>
<path fill="none" stroke="midnightblue" d="M1600.78,-1049.67C1418.5,-1048.09 737.37,-1039.95 525,-1005 423.976,-988.377 304,-1042.38 304,-940 304,-940 304,-940 304,-826 304,-802.066 909.486,-245.488 931,-235 1026.37,-188.504 1064.08,-224.785 1167,-199 1222.72,-185.04 1285.35,-161.057 1321.29,-146.453"/>
<polygon fill="midnightblue" stroke="midnightblue" points="1322.77,-149.631 1330.69,-142.599 1320.11,-143.154 1322.77,-149.631"/>
</g>
<!-- Node40&#45;&gt;Node29 -->
<g id="edge137" class="edge"><title>Node40&#45;&gt;Node29</title>
<path fill="none" stroke="midnightblue" d="M1691.24,-1049.85C1892.06,-1048.97 2694.47,-1043.07 2731,-1005 2881.55,-848.079 2487.85,-883.392 2296,-781 2200.62,-730.093 2246.44,-774.73 1744,-445 1724,-431.875 1720.92,-425.593 1700,-414 1676.46,-400.957 1648.36,-389.276 1626.87,-381.086"/>
<polygon fill="midnightblue" stroke="midnightblue" points="1628.09,-377.806 1617.49,-377.576 1625.63,-384.361 1628.09,-377.806"/>
</g>
<!-- Node41 -->
<g id="node41" class="node"><title>Node41</title>
<g id="a_node41"><a xlink:href="bound_8h.html" target="_top" xlink:title="Bound deducers. ">
<polygon fill="white" stroke="black" points="1595,-985.5 1595,-1004.5 1697,-1004.5 1697,-985.5 1595,-985.5"/>
<text text-anchor="middle" x="1646" y="-992.5" font-family="Helvetica,sans-Serif" font-size="10.00">tvm/arith/bound.h</text>
</a>
</g>
</g>
<!-- Node40&#45;&gt;Node41 -->
<g id="edge138" class="edge"><title>Node40&#45;&gt;Node41</title>
<path fill="none" stroke="midnightblue" d="M1646,-1041.08C1646,-1034.01 1646,-1023.86 1646,-1014.99"/>
<polygon fill="midnightblue" stroke="midnightblue" points="1649.5,-1014.75 1646,-1004.75 1642.5,-1014.75 1649.5,-1014.75"/>
</g>
<!-- Node44 -->
<g id="node44" class="node"><title>Node44</title>
<g id="a_node44"><a xlink:href="tir_2op_8h.html" target="_top" xlink:title="Common operators defined for Expr. ">
<polygon fill="white" stroke="black" points="534,-985.5 534,-1004.5 606,-1004.5 606,-985.5 534,-985.5"/>
<text text-anchor="middle" x="570" y="-992.5" font-family="Helvetica,sans-Serif" font-size="10.00">tvm/tir/op.h</text>
</a>
</g>
</g>
<!-- Node40&#45;&gt;Node44 -->
<g id="edge154" class="edge"><title>Node40&#45;&gt;Node44</title>
<path fill="none" stroke="midnightblue" d="M1600.79,-1047.73C1425.69,-1038.94 793.037,-1007.19 616.204,-998.319"/>
<polygon fill="midnightblue" stroke="midnightblue" points="616.349,-994.822 606.186,-997.816 615.998,-1001.81 616.349,-994.822"/>
</g>
<!-- Node41&#45;&gt;Node3 -->
<g id="edge145" class="edge"><title>Node41&#45;&gt;Node3</title>
<path fill="none" stroke="midnightblue" d="M1618.58,-985.423C1597.24,-977.924 1567.56,-965.625 1545,-949 1526.76,-935.562 1510.22,-915.374 1499.71,-901.067"/>
<polygon fill="midnightblue" stroke="midnightblue" points="1502.36,-898.765 1493.71,-892.645 1496.66,-902.823 1502.36,-898.765"/>
</g>
<!-- Node41&#45;&gt;Node29 -->
<g id="edge139" class="edge"><title>Node41&#45;&gt;Node29</title>
<path fill="none" stroke="midnightblue" d="M1668.76,-985.43C1703.81,-970.579 1767,-936.522 1767,-884 1767,-884 1767,-884 1767,-826 1767,-643.045 1643.7,-444.267 1604.69,-385.955"/>
<polygon fill="midnightblue" stroke="midnightblue" points="1607.5,-383.865 1598.99,-377.55 1601.7,-387.792 1607.5,-383.865"/>
</g>
<!-- Node41&#45;&gt;Node30 -->
<g id="edge152" class="edge"><title>Node41&#45;&gt;Node30</title>
<path fill="none" stroke="midnightblue" d="M1594.61,-992.009C1350.55,-982.074 316.025,-934.429 214,-837 96.9939,-725.265 85.9695,-634.193 138,-481 160.268,-415.436 219.569,-355.431 249.377,-328.279"/>
<polygon fill="midnightblue" stroke="midnightblue" points="251.823,-330.787 256.947,-321.514 247.159,-325.567 251.823,-330.787"/>
</g>
<!-- Node41&#45;&gt;Node34 -->
<g id="edge140" class="edge"><title>Node41&#45;&gt;Node34</title>
<path fill="none" stroke="midnightblue" d="M1651.56,-985.269C1662.55,-967.15 1686,-923.828 1686,-884 1686,-884 1686,-884 1686,-826 1686,-790.702 1665.28,-753.786 1651.36,-732.96"/>
<polygon fill="midnightblue" stroke="midnightblue" points="1654.12,-730.8 1645.54,-724.587 1648.37,-734.796 1654.12,-730.8"/>
</g>
<!-- Node42 -->
<g id="node42" class="node"><title>Node42</title>
<g id="a_node42"><a xlink:href="int__set_8h.html" target="_top" xlink:title="Integer set. ">
<polygon fill="white" stroke="black" points="1554,-929.5 1554,-948.5 1658,-948.5 1658,-929.5 1554,-929.5"/>
<text text-anchor="middle" x="1606" y="-936.5" font-family="Helvetica,sans-Serif" font-size="10.00">tvm/arith/int_set.h</text>
</a>
</g>
</g>
<!-- Node41&#45;&gt;Node42 -->
<g id="edge141" class="edge"><title>Node41&#45;&gt;Node42</title>
<path fill="none" stroke="midnightblue" d="M1639.39,-985.083C1633.74,-977.455 1625.46,-966.264 1618.55,-956.941"/>
<polygon fill="midnightblue" stroke="midnightblue" points="1621.25,-954.703 1612.48,-948.751 1615.62,-958.87 1621.25,-954.703"/>
</g>
<!-- Node43 -->
<g id="node43" class="node"><title>Node43</title>
<g id="a_node43"><a xlink:href="stmt_8h.html" target="_top" xlink:title="TIR statements. ">
<polygon fill="white" stroke="black" points="2000.5,-929.5 2000.5,-948.5 2083.5,-948.5 2083.5,-929.5 2000.5,-929.5"/>
<text text-anchor="middle" x="2042" y="-936.5" font-family="Helvetica,sans-Serif" font-size="10.00">tvm/tir/stmt.h</text>
</a>
</g>
</g>
<!-- Node41&#45;&gt;Node43 -->
<g id="edge146" class="edge"><title>Node41&#45;&gt;Node43</title>
<path fill="none" stroke="midnightblue" d="M1697.36,-986.996C1773.12,-976.666 1914.01,-957.453 1990.08,-947.08"/>
<polygon fill="midnightblue" stroke="midnightblue" points="1990.94,-950.496 2000.37,-945.677 1989.99,-943.56 1990.94,-950.496"/>
</g>
<!-- Node42&#45;&gt;Node3 -->
<g id="edge143" class="edge"><title>Node42&#45;&gt;Node3</title>
<path fill="none" stroke="midnightblue" d="M1587.3,-929.444C1568.06,-920.636 1537.85,-906.812 1515.8,-896.722"/>
<polygon fill="midnightblue" stroke="midnightblue" points="1517.16,-893.495 1506.61,-892.516 1514.25,-899.86 1517.16,-893.495"/>
</g>
<!-- Node42&#45;&gt;Node30 -->
<g id="edge144" class="edge"><title>Node42&#45;&gt;Node30</title>
<path fill="none" stroke="midnightblue" d="M1553.96,-937.134C1370.16,-933.86 751.98,-920.985 556,-893 452.703,-878.249 418.296,-889.293 328,-837 293.452,-816.992 266,-811.923 266,-772 266,-772 266,-772 266,-428.5 266,-394.362 266.442,-354.551 266.739,-331.709"/>
<polygon fill="midnightblue" stroke="midnightblue" points="270.238,-331.739 266.873,-321.693 263.239,-331.645 270.238,-331.739"/>
</g>
<!-- Node42&#45;&gt;Node34 -->
<g id="edge142" class="edge"><title>Node42&#45;&gt;Node34</title>
<path fill="none" stroke="midnightblue" d="M1607.89,-929.195C1612.92,-905.414 1626.76,-837.853 1634,-781 1635.97,-765.543 1637.27,-747.912 1638.04,-734.916"/>
<polygon fill="midnightblue" stroke="midnightblue" points="1641.54,-735.037 1638.6,-724.86 1634.55,-734.652 1641.54,-735.037"/>
</g>
<!-- Node43&#45;&gt;Node3 -->
<g id="edge147" class="edge"><title>Node43&#45;&gt;Node3</title>
<path fill="none" stroke="midnightblue" d="M2000.36,-933.941C1900.29,-924.187 1646.58,-899.457 1538.26,-888.899"/>
<polygon fill="midnightblue" stroke="midnightblue" points="1538.54,-885.41 1528.24,-887.923 1537.86,-892.376 1538.54,-885.41"/>
</g>
<!-- Node43&#45;&gt;Node13 -->
<g id="edge148" class="edge"><title>Node43&#45;&gt;Node13</title>
<path fill="none" stroke="midnightblue" d="M2083.62,-936.362C2207.01,-930.725 2567.73,-908.364 2657,-837 2702.32,-800.771 2706,-774.02 2706,-716 2706,-716 2706,-716 2706,-658 2706,-456.843 2698.1,-365.477 2545,-235 2384.5,-98.2197 2116.72,-76.1401 2011.44,-72.8955"/>
<polygon fill="midnightblue" stroke="midnightblue" points="2011.27,-69.3898 2001.18,-72.6239 2011.08,-76.3873 2011.27,-69.3898"/>
</g>
<!-- Node43&#45;&gt;Node14 -->
<g id="edge149" class="edge"><title>Node43&#45;&gt;Node14</title>
<path fill="none" stroke="midnightblue" d="M2083.69,-936.638C2171.22,-933.274 2380.29,-922.582 2553,-893 2750.2,-859.223 2822.06,-891.262 2989,-781 3041.6,-746.259 3063,-723.038 3063,-660 3063,-660 3063,-660 3063,-188 3063,-94.3111 2915.37,-76.4515 2848.38,-73.1702"/>
<polygon fill="midnightblue" stroke="midnightblue" points="2848.49,-69.6719 2838.36,-72.7594 2848.2,-76.666 2848.49,-69.6719"/>
</g>
<!-- Node43&#45;&gt;Node15 -->
<g id="edge151" class="edge"><title>Node43&#45;&gt;Node15</title>
<path fill="none" stroke="midnightblue" d="M2000.11,-936.368C1756.41,-926.744 529.718,-876.468 461,-837 378.8,-789.789 342,-754.793 342,-660 342,-660 342,-660 342,-602 342,-495.463 285.761,-197.416 362,-123 389.261,-96.3905 500.338,-81.4353 555.545,-75.5125"/>
<polygon fill="midnightblue" stroke="midnightblue" points="556.215,-78.9618 565.8,-74.4476 555.492,-71.9993 556.215,-78.9618"/>
</g>
<!-- Node43&#45;&gt;Node20 -->
<g id="edge150" class="edge"><title>Node43&#45;&gt;Node20</title>
<path fill="none" stroke="midnightblue" d="M2068.39,-929.467C2106.92,-915.165 2174,-882.441 2174,-828 2174,-828 2174,-828 2174,-714 2174,-620.907 2332.94,-617.394 2286,-537 2087.96,-197.794 1529.25,-143.82 1385.22,-135.481"/>
<polygon fill="midnightblue" stroke="midnightblue" points="1384.99,-131.964 1374.82,-134.918 1384.61,-138.953 1384.99,-131.964"/>
</g>
<!-- Node44&#45;&gt;Node3 -->
<g id="edge156" class="edge"><title>Node44&#45;&gt;Node3</title>
<path fill="none" stroke="midnightblue" d="M606.269,-989.654C749.013,-972.55 1272.33,-909.843 1437.62,-890.037"/>
<polygon fill="midnightblue" stroke="midnightblue" points="1438.47,-893.46 1447.98,-888.795 1437.63,-886.51 1438.47,-893.46"/>
</g>
<!-- Node44&#45;&gt;Node13 -->
<g id="edge159" class="edge"><title>Node44&#45;&gt;Node13</title>
<path fill="none" stroke="midnightblue" d="M606.017,-994.148C774.261,-994.585 1499.55,-993.648 2092,-949 2358.15,-928.942 2480.87,-1012.46 2682,-837 2886.66,-658.456 2781.22,-414.048 2577,-235 2498.93,-166.555 2471.9,-151.257 2372,-123 2244.2,-86.8533 2086.44,-76.566 2011.09,-73.6484"/>
<polygon fill="midnightblue" stroke="midnightblue" points="2011.14,-70.1479 2001.02,-73.2837 2010.89,-77.1433 2011.14,-70.1479"/>
</g>
<!-- Node44&#45;&gt;Node23 -->
<g id="edge160" class="edge"><title>Node44&#45;&gt;Node23</title>
<path fill="none" stroke="midnightblue" d="M533.797,-991.483C456.972,-983.899 279.325,-953.902 214,-837 139.142,-703.037 228,-645.46 228,-492 228,-492 228,-492 228,-428.5 228,-371.772 183.766,-351.763 211,-302 241.716,-245.874 313.88,-213.756 355.31,-199.322"/>
<polygon fill="midnightblue" stroke="midnightblue" points="356.522,-202.607 364.89,-196.109 354.296,-195.97 356.522,-202.607"/>
</g>
<!-- Node44&#45;&gt;Node36 -->
<g id="edge155" class="edge"><title>Node44&#45;&gt;Node36</title>
<path fill="none" stroke="midnightblue" d="M572.789,-985.24C582.577,-956.024 618.313,-861.267 683,-817 804.924,-733.565 1266.12,-680.336 1418.1,-664.765"/>
<polygon fill="midnightblue" stroke="midnightblue" points="1418.48,-668.244 1428.08,-663.751 1417.77,-661.28 1418.48,-668.244"/>
</g>
<!-- Node44&#45;&gt;Node37 -->
<g id="edge158" class="edge"><title>Node44&#45;&gt;Node37</title>
<path fill="none" stroke="midnightblue" d="M533.815,-989.508C478.688,-980.417 380,-954.323 380,-884 380,-884 380,-884 380,-826 380,-728.549 514.491,-684.378 584.182,-668.031"/>
<polygon fill="midnightblue" stroke="midnightblue" points="584.989,-671.437 593.971,-665.818 583.445,-664.609 584.989,-671.437"/>
</g>
<!-- Node44&#45;&gt;Node43 -->
<g id="edge157" class="edge"><title>Node44&#45;&gt;Node43</title>
<path fill="none" stroke="midnightblue" d="M606.021,-992.679C803.7,-985.427 1756.35,-950.479 1990.12,-941.903"/>
<polygon fill="midnightblue" stroke="midnightblue" points="1990.52,-945.391 2000.38,-941.527 1990.26,-938.396 1990.52,-945.391"/>
</g>
<!-- Node45&#45;&gt;Node14 -->
<g id="edge168" class="edge"><title>Node45&#45;&gt;Node14</title>
<path fill="none" stroke="midnightblue" d="M1847.17,-1104.44C2113.97,-1097.13 3177,-1063.74 3177,-996 3177,-996 3177,-996 3177,-188 3177,-147.769 3149.6,-141.736 3114,-123 3026.1,-76.7391 2905.25,-71.2808 2848.25,-71.5769"/>
<polygon fill="midnightblue" stroke="midnightblue" points="2848,-68.0794 2838.05,-71.6965 2848.09,-75.0789 2848,-68.0794"/>
</g>
<!-- Node45&#45;&gt;Node39 -->
<g id="edge167" class="edge"><title>Node45&#45;&gt;Node39</title>
<path fill="none" stroke="midnightblue" d="M1794.74,-1097.31C1809.67,-1079.59 1841,-1037.48 1841,-996 1841,-996 1841,-996 1841,-938 1841,-903.982 1856.74,-866.85 1867.41,-845.6"/>
<polygon fill="midnightblue" stroke="midnightblue" points="1870.62,-847.012 1872.14,-836.527 1864.41,-843.772 1870.62,-847.012"/>
</g>
<!-- Node45&#45;&gt;Node40 -->
<g id="edge166" class="edge"><title>Node45&#45;&gt;Node40</title>
<path fill="none" stroke="midnightblue" d="M1764.66,-1097.44C1741.25,-1088.48 1704.26,-1074.31 1677.81,-1064.18"/>
<polygon fill="midnightblue" stroke="midnightblue" points="1678.83,-1060.82 1668.24,-1060.52 1676.32,-1067.36 1678.83,-1060.82"/>
</g>
<!-- Node46&#45;&gt;Node10 -->
<g id="edge170" class="edge"><title>Node46&#45;&gt;Node10</title>
<path fill="none" stroke="midnightblue" d="M759.086,-126.978C877.537,-115.774 1162.33,-88.8339 1281.33,-77.5773"/>
<polygon fill="midnightblue" stroke="midnightblue" points="1282.01,-81.028 1291.64,-76.6018 1281.35,-74.0592 1282.01,-81.028"/>
</g>
<!-- Node46&#45;&gt;Node15 -->
<g id="edge171" class="edge"><title>Node46&#45;&gt;Node15</title>
<path fill="none" stroke="midnightblue" d="M688.95,-123.475C669.156,-113.578 636.283,-97.1416 613.23,-85.6151"/>
<polygon fill="midnightblue" stroke="midnightblue" points="614.528,-82.3508 604.018,-81.0091 611.397,-88.6118 614.528,-82.3508"/>
</g>
<!-- Node47&#45;&gt;Node3 -->
<g id="edge192" class="edge"><title>Node47&#45;&gt;Node3</title>
<path fill="none" stroke="midnightblue" d="M2623.7,-991.808C2511.31,-986.578 2227.5,-972.06 1991,-949 1824.55,-932.77 1628.21,-904.844 1537.96,-891.511"/>
<polygon fill="midnightblue" stroke="midnightblue" points="1538.41,-888.039 1528,-890.036 1537.38,-894.964 1538.41,-888.039"/>
</g>
<!-- Node47&#45;&gt;Node14 -->
<g id="edge195" class="edge"><title>Node47&#45;&gt;Node14</title>
<path fill="none" stroke="midnightblue" d="M2722.1,-991.725C2834.52,-985.178 3101,-961.488 3101,-884 3101,-884 3101,-884 3101,-188 3101,-152.35 3083.88,-142.445 3054,-123 2989.82,-81.2326 2897.18,-73.2959 2848.58,-72.2208"/>
<polygon fill="midnightblue" stroke="midnightblue" points="2848.39,-68.718 2838.34,-72.0829 2848.29,-75.7173 2848.39,-68.718"/>
</g>
<!-- Node47&#45;&gt;Node39 -->
<g id="edge193" class="edge"><title>Node47&#45;&gt;Node39</title>
<path fill="none" stroke="midnightblue" d="M2632.16,-985.482C2498.64,-957.638 2075.24,-869.342 1928.03,-838.642"/>
<polygon fill="midnightblue" stroke="midnightblue" points="1928.42,-835.149 1917.92,-836.533 1926.99,-842.001 1928.42,-835.149"/>
</g>
<!-- Node47&#45;&gt;Node43 -->
<g id="edge194" class="edge"><title>Node47&#45;&gt;Node43</title>
<path fill="none" stroke="midnightblue" d="M2623.75,-989.785C2506.79,-979.776 2213.2,-954.651 2093.76,-944.43"/>
<polygon fill="midnightblue" stroke="midnightblue" points="2094.03,-940.94 2083.77,-943.574 2093.43,-947.914 2094.03,-940.94"/>
</g>
<!-- Node48 -->
<g id="node48" class="node"><title>Node48</title>
<g id="a_node48"><a xlink:href="ir_2function_8h.html" target="_top" xlink:title="Function nodes. ">
<polygon fill="white" stroke="black" points="2553.5,-817.5 2553.5,-836.5 2648.5,-836.5 2648.5,-817.5 2553.5,-817.5"/>
<text text-anchor="middle" x="2601" y="-824.5" font-family="Helvetica,sans-Serif" font-size="10.00">tvm/ir/function.h</text>
</a>
</g>
</g>
<!-- Node47&#45;&gt;Node48 -->
<g id="edge175" class="edge"><title>Node47&#45;&gt;Node48</title>
<path fill="none" stroke="midnightblue" d="M2673.99,-985.388C2674.98,-976.342 2676.44,-961.694 2677,-949 2678.54,-914.322 2678.91,-901.432 2659,-873 2650.2,-860.439 2636.86,-849.744 2625.19,-841.936"/>
<polygon fill="midnightblue" stroke="midnightblue" points="2627.01,-838.948 2616.7,-836.545 2623.26,-844.859 2627.01,-838.948"/>
</g>
<!-- Node48&#45;&gt;Node9 -->
<g id="edge189" class="edge"><title>Node48&#45;&gt;Node9</title>
<path fill="none" stroke="midnightblue" d="M2600.42,-817.254C2598.75,-796.564 2592.61,-743.464 2572,-705 2523.88,-615.183 2501.35,-592.658 2416,-537 2194.19,-392.355 1876.22,-338.585 1732.13,-320.81"/>
<polygon fill="midnightblue" stroke="midnightblue" points="1732.41,-317.318 1722.06,-319.591 1731.57,-324.267 1732.41,-317.318"/>
</g>
<!-- Node48&#45;&gt;Node13 -->
<g id="edge190" class="edge"><title>Node48&#45;&gt;Node13</title>
<path fill="none" stroke="midnightblue" d="M2602.56,-817.387C2608.58,-783.335 2630,-654.757 2630,-548 2630,-548 2630,-548 2630,-490 2630,-255.205 2474.88,-190.515 2250,-123 2167.43,-98.2089 2067.43,-83.8805 2011.12,-77.183"/>
<polygon fill="midnightblue" stroke="midnightblue" points="2011.47,-73.6998 2001.13,-76.0205 2010.66,-80.6529 2011.47,-73.6998"/>
</g>
<!-- Node48&#45;&gt;Node14 -->
<g id="edge191" class="edge"><title>Node48&#45;&gt;Node14</title>
<path fill="none" stroke="midnightblue" d="M2634.39,-817.458C2694.84,-800.197 2822.22,-755.257 2888,-669 3003.64,-517.363 2987,-442.201 2987,-251.5 2987,-251.5 2987,-251.5 2987,-188 2987,-157.205 2985.02,-144.526 2963,-123 2931.74,-92.4484 2881.19,-80.3412 2848.28,-75.5689"/>
<polygon fill="midnightblue" stroke="midnightblue" points="2848.62,-72.0847 2838.26,-74.2631 2847.72,-79.026 2848.62,-72.0847"/>
</g>
<!-- Node48&#45;&gt;Node34 -->
<g id="edge176" class="edge"><title>Node48&#45;&gt;Node34</title>
<path fill="none" stroke="midnightblue" d="M2553.48,-825.167C2407.07,-822.297 1964.34,-811.281 1824,-781 1799.8,-775.777 1795.29,-769.414 1772,-761 1739.47,-749.248 1702.15,-736.701 1675.34,-727.849"/>
<polygon fill="midnightblue" stroke="midnightblue" points="1676.2,-724.449 1665.61,-724.647 1674.01,-731.098 1676.2,-724.449"/>
</g>
<!-- Node49 -->
<g id="node49" class="node"><title>Node49</title>
<g id="a_node49"><a xlink:href="ir_2attrs_8h.html" target="_top" xlink:title="Helpers for attribute objects. ">
<polygon fill="white" stroke="black" points="2305.5,-761.5 2305.5,-780.5 2384.5,-780.5 2384.5,-761.5 2305.5,-761.5"/>
<text text-anchor="middle" x="2345" y="-768.5" font-family="Helvetica,sans-Serif" font-size="10.00">tvm/ir/attrs.h</text>
</a>
</g>
</g>
<!-- Node48&#45;&gt;Node49 -->
<g id="edge177" class="edge"><title>Node48&#45;&gt;Node49</title>
<path fill="none" stroke="midnightblue" d="M2560.44,-817.444C2515.42,-807.948 2442.77,-792.623 2394.45,-782.432"/>
<polygon fill="midnightblue" stroke="midnightblue" points="2395.04,-778.978 2384.53,-780.339 2393.6,-785.828 2395.04,-778.978"/>
</g>
<!-- Node49&#45;&gt;Node13 -->
<g id="edge186" class="edge"><title>Node49&#45;&gt;Node13</title>
<path fill="none" stroke="midnightblue" d="M2363.55,-761.486C2414.7,-736.59 2554,-658.633 2554,-548 2554,-548 2554,-548 2554,-490 2554,-266.741 2419.56,-202.682 2211,-123 2143.85,-97.3431 2061.06,-83.7162 2011.23,-77.3124"/>
<polygon fill="midnightblue" stroke="midnightblue" points="2011.47,-73.8155 2001.12,-76.0538 2010.61,-80.7619 2011.47,-73.8155"/>
</g>
<!-- Node49&#45;&gt;Node14 -->
<g id="edge187" class="edge"><title>Node49&#45;&gt;Node14</title>
<path fill="none" stroke="midnightblue" d="M2384.54,-770.336C2432.37,-768.997 2513.71,-760.984 2572,-725 2764.98,-605.868 2807.66,-535.191 2885,-322 2898.48,-284.851 2908.8,-165.258 2887,-123 2878.44,-106.413 2861.64,-94.0833 2846.53,-85.7607"/>
<polygon fill="midnightblue" stroke="midnightblue" points="2847.92,-82.5421 2837.43,-81.0943 2844.73,-88.7711 2847.92,-82.5421"/>
</g>
<!-- Node49&#45;&gt;Node15 -->
<g id="edge188" class="edge"><title>Node49&#45;&gt;Node15</title>
<path fill="none" stroke="midnightblue" d="M2305.16,-768.882C2075.68,-762.25 927.622,-726.395 782,-669 606.742,-599.925 502.548,-593.351 356,-199 323.882,-112.573 485.687,-83.814 555.841,-75.4978"/>
<polygon fill="midnightblue" stroke="midnightblue" points="556.333,-78.9647 565.881,-74.3737 555.554,-72.0081 556.333,-78.9647"/>
</g>
<!-- Node49&#45;&gt;Node18 -->
<g id="edge182" class="edge"><title>Node49&#45;&gt;Node18</title>
<path fill="none" stroke="midnightblue" d="M2336.77,-761.176C2286.63,-707.446 2023.66,-426.153 2002,-414 1834.97,-320.279 1765.75,-372.511 1581,-322 1524.21,-306.474 1460.25,-284.309 1418,-268.995"/>
<polygon fill="midnightblue" stroke="midnightblue" points="1419.13,-265.682 1408.54,-265.548 1416.74,-272.259 1419.13,-265.682"/>
</g>
<!-- Node49&#45;&gt;Node20 -->
<g id="edge184" class="edge"><title>Node49&#45;&gt;Node20</title>
<path fill="none" stroke="midnightblue" d="M2353.7,-761.405C2361.96,-752.834 2374.23,-738.965 2382,-725 2407.35,-679.424 2404.37,-663.598 2417,-613 2458,-448.802 2509.52,-332.232 2371,-235 2279.22,-170.579 2236.02,-194.753 2125,-179 1840.9,-138.689 1493.24,-134.31 1384.88,-133.972"/>
<polygon fill="midnightblue" stroke="midnightblue" points="1384.58,-130.472 1374.57,-133.951 1384.56,-137.472 1384.58,-130.472"/>
</g>
<!-- Node49&#45;&gt;Node22 -->
<g id="edge185" class="edge"><title>Node49&#45;&gt;Node22</title>
<path fill="none" stroke="midnightblue" d="M2348.84,-761.465C2374.12,-703.884 2510.46,-370.364 2341,-235 2308.6,-209.121 2190.8,-197.208 2126.9,-192.545"/>
<polygon fill="midnightblue" stroke="midnightblue" points="2126.98,-189.042 2116.76,-191.833 2126.49,-196.025 2126.98,-189.042"/>
</g>
<!-- Node49&#45;&gt;Node27 -->
<g id="edge180" class="edge"><title>Node49&#45;&gt;Node27</title>
<path fill="none" stroke="midnightblue" d="M2320.07,-761.429C2297.52,-753.278 2263.7,-740.05 2236,-725 2193.78,-702.066 1925.25,-512.736 1837.04,-450.351"/>
<polygon fill="midnightblue" stroke="midnightblue" points="1839.02,-447.47 1828.84,-444.552 1834.98,-453.184 1839.02,-447.47"/>
</g>
<!-- Node49&#45;&gt;Node30 -->
<g id="edge183" class="edge"><title>Node49&#45;&gt;Node30</title>
<path fill="none" stroke="midnightblue" d="M2305.17,-769.071C2059.94,-763.33 764.596,-732.662 746,-725 700.357,-706.193 705.422,-677.337 665,-649 636.029,-628.691 624.123,-631.557 594,-613 451.81,-525.402 439.863,-472.197 318,-358 307.23,-347.907 294.818,-336.942 284.936,-328.362"/>
<polygon fill="midnightblue" stroke="midnightblue" points="287.177,-325.674 277.321,-321.788 282.603,-330.972 287.177,-325.674"/>
</g>
<!-- Node49&#45;&gt;Node31 -->
<g id="edge181" class="edge"><title>Node49&#45;&gt;Node31</title>
<path fill="none" stroke="midnightblue" d="M2340.69,-761.256C2329.95,-740.114 2300.28,-685.297 2264,-649 2173.33,-558.283 2039.74,-482.836 1975.37,-449.253"/>
<polygon fill="midnightblue" stroke="midnightblue" points="1976.88,-446.092 1966.39,-444.605 1973.66,-452.309 1976.88,-446.092"/>
</g>
<!-- Node49&#45;&gt;Node34 -->
<g id="edge179" class="edge"><title>Node49&#45;&gt;Node34</title>
<path fill="none" stroke="midnightblue" d="M2305.27,-766.962C2184.28,-757.707 1820.48,-729.881 1687.96,-719.745"/>
<polygon fill="midnightblue" stroke="midnightblue" points="1687.96,-716.234 1677.72,-718.961 1687.42,-723.214 1687.96,-716.234"/>
</g>
<!-- Node50 -->
<g id="node50" class="node"><title>Node50</title>
<polygon fill="white" stroke="#bfbfbf" points="2468.5,-705.5 2468.5,-724.5 2563.5,-724.5 2563.5,-705.5 2468.5,-705.5"/>
<text text-anchor="middle" x="2516" y="-712.5" font-family="Helvetica,sans-Serif" font-size="10.00">dmlc/common.h</text>
</g>
<!-- Node49&#45;&gt;Node50 -->
<g id="edge178" class="edge"><title>Node49&#45;&gt;Node50</title>
<path fill="none" stroke="midnightblue" d="M2372.1,-761.444C2400.99,-752.32 2446.92,-737.813 2479.11,-727.651"/>
<polygon fill="midnightblue" stroke="midnightblue" points="2480.55,-730.865 2489.03,-724.516 2478.44,-724.19 2480.55,-730.865"/>
</g>
</g>
</svg>
