<?xml version="1.0" encoding="UTF-8" standalone="no"?>
<!DOCTYPE svg PUBLIC "-//W3C//DTD SVG 1.1//EN"
 "http://www.w3.org/Graphics/SVG/1.1/DTD/svg11.dtd">
<!-- Generated by graphviz version 2.38.0 (20140413.2041)
 -->
<!-- Title: include/tvm/te/schedule_pass.h Pages: 1 -->
<svg width="3213pt" height="1304pt"
 viewBox="0.00 0.00 3213.00 1304.00" xmlns="http://www.w3.org/2000/svg" xmlns:xlink="http://www.w3.org/1999/xlink">
<g id="graph0" class="graph" transform="scale(1 1) rotate(0) translate(4 1300)">
<title>include/tvm/te/schedule_pass.h</title>
<polygon fill="white" stroke="none" points="-4,4 -4,-1300 3209,-1300 3209,4 -4,4"/>
<!-- Node1 -->
<g id="node1" class="node"><title>Node1</title>
<polygon fill="#bfbfbf" stroke="black" points="2609.5,-1265.5 2609.5,-1295.5 2740.5,-1295.5 2740.5,-1265.5 2609.5,-1265.5"/>
<text text-anchor="start" x="2617.5" y="-1283.5" font-family="Helvetica,sans-Serif" font-size="10.00">include/tvm/te/schedule</text>
<text text-anchor="middle" x="2675" y="-1272.5" font-family="Helvetica,sans-Serif" font-size="10.00">_pass.h</text>
</g>
<!-- Node2 -->
<g id="node2" class="node"><title>Node2</title>
<g id="a_node2"><a xlink:href="schedule_8h.html" target="_top" xlink:title="Define a schedule. ">
<polygon fill="white" stroke="black" points="2623.5,-1209.5 2623.5,-1228.5 2726.5,-1228.5 2726.5,-1209.5 2623.5,-1209.5"/>
<text text-anchor="middle" x="2675" y="-1216.5" font-family="Helvetica,sans-Serif" font-size="10.00">tvm/te/schedule.h</text>
</a>
</g>
</g>
<!-- Node1&#45;&gt;Node2 -->
<g id="edge1" class="edge"><title>Node1&#45;&gt;Node2</title>
<path fill="none" stroke="midnightblue" d="M2675,-1265.4C2675,-1257.47 2675,-1247.46 2675,-1238.86"/>
<polygon fill="midnightblue" stroke="midnightblue" points="2678.5,-1238.66 2675,-1228.66 2671.5,-1238.66 2678.5,-1238.66"/>
</g>
<!-- Node3 -->
<g id="node3" class="node"><title>Node3</title>
<g id="a_node3"><a xlink:href="tir_2expr_8h.html" target="_top" xlink:title="TIR expressions. ">
<polygon fill="white" stroke="black" points="2026,-929.5 2026,-948.5 2106,-948.5 2106,-929.5 2026,-929.5"/>
<text text-anchor="middle" x="2066" y="-936.5" font-family="Helvetica,sans-Serif" font-size="10.00">tvm/tir/expr.h</text>
</a>
</g>
</g>
<!-- Node2&#45;&gt;Node3 -->
<g id="edge2" class="edge"><title>Node2&#45;&gt;Node3</title>
<path fill="none" stroke="midnightblue" d="M2623.05,-1218.47C2486.51,-1218.32 2128,-1208.38 2128,-1108 2128,-1108 2128,-1108 2128,-1050 2128,-1012.62 2100.5,-976.237 2082.13,-956.104"/>
<polygon fill="midnightblue" stroke="midnightblue" points="2084.57,-953.594 2075.15,-948.747 2079.49,-958.412 2084.57,-953.594"/>
</g>
<!-- Node14 -->
<g id="node14" class="node"><title>Node14</title>
<polygon fill="white" stroke="#bfbfbf" points="2613,-62 2613,-81 2657,-81 2657,-62 2613,-62"/>
<text text-anchor="middle" x="2635" y="-69" font-family="Helvetica,sans-Serif" font-size="10.00">string</text>
</g>
<!-- Node2&#45;&gt;Node14 -->
<g id="edge186" class="edge"><title>Node2&#45;&gt;Node14</title>
<path fill="none" stroke="midnightblue" d="M2726.78,-1218.14C2860.15,-1217.1 3205,-1205.03 3205,-1108 3205,-1108 3205,-1108 3205,-188 3205,-77.4921 2788.26,-71.5206 2667.45,-72.1112"/>
<polygon fill="midnightblue" stroke="midnightblue" points="2667.32,-68.6119 2657.34,-72.1799 2667.37,-75.6118 2667.32,-68.6119"/>
</g>
<!-- Node22 -->
<g id="node22" class="node"><title>Node22</title>
<polygon fill="white" stroke="#bfbfbf" points="2777.5,-179.5 2777.5,-198.5 2870.5,-198.5 2870.5,-179.5 2777.5,-179.5"/>
<text text-anchor="middle" x="2824" y="-186.5" font-family="Helvetica,sans-Serif" font-size="10.00">unordered_map</text>
</g>
<!-- Node2&#45;&gt;Node22 -->
<g id="edge187" class="edge"><title>Node2&#45;&gt;Node22</title>
<path fill="none" stroke="midnightblue" d="M2726.85,-1215.18C2838.36,-1207.7 3091,-1182.52 3091,-1108 3091,-1108 3091,-1108 3091,-423 3091,-301.663 2932.53,-228.992 2859.76,-202.019"/>
<polygon fill="midnightblue" stroke="midnightblue" points="2860.68,-198.63 2850.09,-198.516 2858.3,-205.211 2860.68,-198.63"/>
</g>
<!-- Node44 -->
<g id="node44" class="node"><title>Node44</title>
<g id="a_node44"><a xlink:href="tensor_8h.html" target="_top" xlink:title="Dataflow tensor object. ">
<polygon fill="white" stroke="black" points="2630,-1097.5 2630,-1116.5 2720,-1116.5 2720,-1097.5 2630,-1097.5"/>
<text text-anchor="middle" x="2675" y="-1104.5" font-family="Helvetica,sans-Serif" font-size="10.00">tvm/te/tensor.h</text>
</a>
</g>
</g>
<!-- Node2&#45;&gt;Node44 -->
<g id="edge150" class="edge"><title>Node2&#45;&gt;Node44</title>
<path fill="none" stroke="midnightblue" d="M2667.95,-1209.38C2658.8,-1197.12 2644.6,-1173.83 2650,-1153 2652.55,-1143.18 2657.75,-1133.21 2662.76,-1125.17"/>
<polygon fill="midnightblue" stroke="midnightblue" points="2665.75,-1126.99 2668.37,-1116.73 2659.92,-1123.11 2665.75,-1126.99"/>
</g>
<!-- Node49 -->
<g id="node49" class="node"><title>Node49</title>
<g id="a_node49"><a xlink:href="tensor__intrin_8h.html" target="_top" xlink:title="Tensor intrinsic operations. ">
<polygon fill="white" stroke="black" points="2659,-1153.5 2659,-1172.5 2779,-1172.5 2779,-1153.5 2659,-1153.5"/>
<text text-anchor="middle" x="2719" y="-1160.5" font-family="Helvetica,sans-Serif" font-size="10.00">tvm/te/tensor_intrin.h</text>
</a>
</g>
</g>
<!-- Node2&#45;&gt;Node49 -->
<g id="edge179" class="edge"><title>Node2&#45;&gt;Node49</title>
<path fill="none" stroke="midnightblue" d="M2682.27,-1209.08C2688.54,-1201.38 2697.79,-1190.03 2705.43,-1180.65"/>
<polygon fill="midnightblue" stroke="midnightblue" points="2708.27,-1182.71 2711.87,-1172.75 2702.84,-1178.29 2708.27,-1182.71"/>
</g>
<!-- Node50 -->
<g id="node50" class="node"><title>Node50</title>
<g id="a_node50"><a xlink:href="with_8h.html" target="_top" xlink:title="RAII wrapper function to enter and exit a context object similar to python&#39;s with syntax...">
<polygon fill="white" stroke="black" points="446,-123.5 446,-142.5 552,-142.5 552,-123.5 446,-123.5"/>
<text text-anchor="middle" x="499" y="-130.5" font-family="Helvetica,sans-Serif" font-size="10.00">tvm/support/with.h</text>
</a>
</g>
</g>
<!-- Node2&#45;&gt;Node50 -->
<g id="edge183" class="edge"><title>Node2&#45;&gt;Node50</title>
<path fill="none" stroke="midnightblue" d="M2623.21,-1217.24C2254.21,-1211.64 38,-1175.21 38,-1108 38,-1108 38,-1108 38,-1050 38,-848.92 114,-805.08 114,-604 114,-604 114,-604 114,-367 114,-218.316 326.764,-161.93 435.958,-142.782"/>
<polygon fill="midnightblue" stroke="midnightblue" points="436.6,-146.223 445.872,-141.096 435.426,-139.322 436.6,-146.223"/>
</g>
<!-- Node4 -->
<g id="node4" class="node"><title>Node4</title>
<g id="a_node4"><a xlink:href="node_8h.html" target="_top" xlink:title="Definitions and helper macros for IR/AST nodes. ">
<polygon fill="white" stroke="black" points="1652,-593.5 1652,-612.5 1750,-612.5 1750,-593.5 1652,-593.5"/>
<text text-anchor="middle" x="1701" y="-600.5" font-family="Helvetica,sans-Serif" font-size="10.00">tvm/node/node.h</text>
</a>
</g>
</g>
<!-- Node3&#45;&gt;Node4 -->
<g id="edge3" class="edge"><title>Node3&#45;&gt;Node4</title>
<path fill="none" stroke="midnightblue" d="M2025.76,-936.958C1798.32,-930.81 684,-897.161 684,-828 684,-828 684,-828 684,-714 684,-617.024 1424.35,-605.454 1641.7,-604.146"/>
<polygon fill="midnightblue" stroke="midnightblue" points="1641.97,-607.645 1651.95,-604.09 1641.93,-600.645 1641.97,-607.645"/>
</g>
<!-- Node5 -->
<g id="node5" class="node"><title>Node5</title>
<g id="a_node5"><a xlink:href="c__runtime__api_8h.html" target="_top" xlink:title="tvm/runtime/c_runtime\l_api.h">
<polygon fill="white" stroke="black" points="865.5,-56.5 865.5,-86.5 992.5,-86.5 992.5,-56.5 865.5,-56.5"/>
<text text-anchor="start" x="873.5" y="-74.5" font-family="Helvetica,sans-Serif" font-size="10.00">tvm/runtime/c_runtime</text>
<text text-anchor="middle" x="929" y="-63.5" font-family="Helvetica,sans-Serif" font-size="10.00">_api.h</text>
</a>
</g>
</g>
<!-- Node3&#45;&gt;Node5 -->
<g id="edge113" class="edge"><title>Node3&#45;&gt;Node5</title>
<path fill="none" stroke="midnightblue" d="M2025.69,-937.84C1784.42,-936.759 539.43,-929.43 468,-893 435.532,-876.441 418,-864.447 418,-828 418,-828 418,-828 418,-602 418,-429.544 189.705,-373.842 292,-235 316.911,-201.189 612.216,-133.02 653,-123 720.803,-106.343 799.199,-92.5077 855.073,-83.556"/>
<polygon fill="midnightblue" stroke="midnightblue" points="855.909,-86.9672 865.236,-81.9418 854.811,-80.0539 855.909,-86.9672"/>
</g>
<!-- Node3&#45;&gt;Node14 -->
<g id="edge144" class="edge"><title>Node3&#45;&gt;Node14</title>
<path fill="none" stroke="midnightblue" d="M2106.21,-934.332C2168.96,-928.052 2286.73,-913.866 2323,-893 2492.24,-795.635 2511.96,-728.107 2606,-557 2688.71,-406.509 2687.53,-350.714 2686,-179 2685.78,-154.108 2694.67,-145.936 2685,-123 2678.96,-108.687 2666.77,-96.2376 2655.94,-87.2808"/>
<polygon fill="midnightblue" stroke="midnightblue" points="2658.08,-84.5167 2648.04,-81.1392 2653.79,-90.0418 2658.08,-84.5167"/>
</g>
<!-- Node15 -->
<g id="node15" class="node"><title>Node15</title>
<polygon fill="white" stroke="#bfbfbf" points="1759,-62 1759,-81 1801,-81 1801,-62 1759,-62"/>
<text text-anchor="middle" x="1780" y="-69" font-family="Helvetica,sans-Serif" font-size="10.00">utility</text>
</g>
<!-- Node3&#45;&gt;Node15 -->
<g id="edge149" class="edge"><title>Node3&#45;&gt;Node15</title>
<path fill="none" stroke="midnightblue" d="M2068.56,-929.249C2073.75,-910.738 2085,-866.179 2085,-828 2085,-828 2085,-828 2085,-714 2085,-641.62 2025.83,-645.497 1976,-593 1951.77,-567.471 1947.05,-559.517 1920,-537 1872.1,-497.135 1718,-433.161 1689,-378 1661.3,-325.311 1721.24,-310.789 1742,-255 1763.4,-197.478 1773.95,-125.03 1777.98,-91.3356"/>
<polygon fill="midnightblue" stroke="midnightblue" points="1781.49,-91.4529 1779.14,-81.1216 1774.53,-90.6625 1781.49,-91.4529"/>
</g>
<!-- Node3&#45;&gt;Node22 -->
<g id="edge146" class="edge"><title>Node3&#45;&gt;Node22</title>
<path fill="none" stroke="midnightblue" d="M2106.01,-938.397C2167.59,-937.686 2288.28,-930.993 2382,-893 2629.65,-792.613 2825,-753.718 2825,-486.5 2825,-486.5 2825,-486.5 2825,-305.5 2825,-271.362 2824.56,-231.551 2824.26,-208.709"/>
<polygon fill="midnightblue" stroke="midnightblue" points="2827.76,-208.645 2824.13,-198.693 2820.76,-208.739 2827.76,-208.645"/>
</g>
<!-- Node25 -->
<g id="node25" class="node"><title>Node25</title>
<g id="a_node25"><a xlink:href="data__type_8h.html" target="_top" xlink:title="tvm/runtime/data_type.h">
<polygon fill="white" stroke="black" points="301,-235.5 301,-254.5 437,-254.5 437,-235.5 301,-235.5"/>
<text text-anchor="middle" x="369" y="-242.5" font-family="Helvetica,sans-Serif" font-size="10.00">tvm/runtime/data_type.h</text>
</a>
</g>
</g>
<!-- Node3&#45;&gt;Node25 -->
<g id="edge114" class="edge"><title>Node3&#45;&gt;Node25</title>
<path fill="none" stroke="midnightblue" d="M2025.81,-938.159C1776.71,-938.991 451.776,-941.137 382,-893 301.055,-837.157 228.875,-565.581 252,-470 272.268,-386.228 330.325,-299.121 356.241,-263.127"/>
<polygon fill="midnightblue" stroke="midnightblue" points="359.295,-264.88 362.369,-254.741 353.643,-260.75 359.295,-264.88"/>
</g>
<!-- Node28 -->
<g id="node28" class="node"><title>Node28</title>
<polygon fill="white" stroke="#bfbfbf" points="455,-235.5 455,-254.5 497,-254.5 497,-235.5 455,-235.5"/>
<text text-anchor="middle" x="476" y="-242.5" font-family="Helvetica,sans-Serif" font-size="10.00">limits</text>
</g>
<!-- Node3&#45;&gt;Node28 -->
<g id="edge148" class="edge"><title>Node3&#45;&gt;Node28</title>
<path fill="none" stroke="midnightblue" d="M2025.73,-937.865C1787.42,-936.942 569.953,-930.401 501,-893 470.114,-876.247 456,-863.136 456,-828 456,-828 456,-828 456,-484.5 456,-408.67 496.305,-396.923 508,-322 510.125,-308.387 512.191,-304.125 508,-291 504.659,-280.538 497.9,-270.428 491.451,-262.45"/>
<polygon fill="midnightblue" stroke="midnightblue" points="493.944,-259.981 484.751,-254.714 488.652,-264.564 493.944,-259.981"/>
</g>
<!-- Node33 -->
<g id="node33" class="node"><title>Node33</title>
<g id="a_node33"><a xlink:href="functor_8h.html" target="_top" xlink:title="Defines the Functor data structures. ">
<polygon fill="white" stroke="black" points="705.5,-235.5 705.5,-254.5 812.5,-254.5 812.5,-235.5 705.5,-235.5"/>
<text text-anchor="middle" x="759" y="-242.5" font-family="Helvetica,sans-Serif" font-size="10.00">tvm/node/functor.h</text>
</a>
</g>
</g>
<!-- Node3&#45;&gt;Node33 -->
<g id="edge112" class="edge"><title>Node3&#45;&gt;Node33</title>
<path fill="none" stroke="midnightblue" d="M2025.72,-937.702C1834.45,-936.118 1016.68,-927.423 764,-893 641.701,-876.339 494,-951.428 494,-828 494,-828 494,-828 494,-770 494,-547.522 686.582,-323.557 743.401,-262.32"/>
<polygon fill="midnightblue" stroke="midnightblue" points="746.19,-264.463 750.483,-254.777 741.087,-259.672 746.19,-264.463"/>
</g>
<!-- Node34 -->
<g id="node34" class="node"><title>Node34</title>
<g id="a_node34"><a xlink:href="node_2container_8h.html" target="_top" xlink:title="Array/Map container in the DSL graph. ">
<polygon fill="white" stroke="black" points="2005.5,-414.5 2005.5,-433.5 2124.5,-433.5 2124.5,-414.5 2005.5,-414.5"/>
<text text-anchor="middle" x="2065" y="-421.5" font-family="Helvetica,sans-Serif" font-size="10.00">tvm/node/container.h</text>
</a>
</g>
</g>
<!-- Node3&#45;&gt;Node34 -->
<g id="edge111" class="edge"><title>Node3&#45;&gt;Node34</title>
<path fill="none" stroke="midnightblue" d="M2092.91,-929.41C2131.78,-915.126 2199,-882.535 2199,-828 2199,-828 2199,-828 2199,-770 2199,-632.234 2195.82,-585.678 2121,-470 2112.93,-457.522 2100.24,-446.911 2088.98,-439.133"/>
<polygon fill="midnightblue" stroke="midnightblue" points="2090.66,-436.05 2080.37,-433.52 2086.84,-441.914 2090.66,-436.05"/>
</g>
<!-- Node37 -->
<g id="node37" class="node"><title>Node37</title>
<polygon fill="white" stroke="#bfbfbf" points="712.5,-476 712.5,-495 771.5,-495 771.5,-476 712.5,-476"/>
<text text-anchor="middle" x="742" y="-483" font-family="Helvetica,sans-Serif" font-size="10.00">iostream</text>
</g>
<!-- Node3&#45;&gt;Node37 -->
<g id="edge147" class="edge"><title>Node3&#45;&gt;Node37</title>
<path fill="none" stroke="midnightblue" d="M2025.74,-938.279C1807.53,-939.375 772.869,-939.14 680,-837 590.989,-739.104 694.243,-559.779 730.415,-503.717"/>
<polygon fill="midnightblue" stroke="midnightblue" points="733.402,-505.544 735.969,-495.265 727.552,-501.7 733.402,-505.544"/>
</g>
<!-- Node38 -->
<g id="node38" class="node"><title>Node38</title>
<g id="a_node38"><a xlink:href="ir_2expr_8h.html" target="_top" xlink:title="Base expr nodes in TVM. ">
<polygon fill="white" stroke="black" points="1957.5,-761.5 1957.5,-780.5 2034.5,-780.5 2034.5,-761.5 1957.5,-761.5"/>
<text text-anchor="middle" x="1996" y="-768.5" font-family="Helvetica,sans-Serif" font-size="10.00">tvm/ir/expr.h</text>
</a>
</g>
</g>
<!-- Node3&#45;&gt;Node38 -->
<g id="edge115" class="edge"><title>Node3&#45;&gt;Node38</title>
<path fill="none" stroke="midnightblue" d="M2064.28,-929.436C2060.01,-909.14 2047.79,-856.83 2028,-817 2023.05,-807.039 2016.01,-796.863 2009.8,-788.713"/>
<polygon fill="midnightblue" stroke="midnightblue" points="2012.46,-786.442 2003.51,-780.772 2006.97,-790.785 2012.46,-786.442"/>
</g>
<!-- Node41 -->
<g id="node41" class="node"><title>Node41</title>
<polygon fill="white" stroke="#bfbfbf" points="328,-705.5 328,-724.5 390,-724.5 390,-705.5 328,-705.5"/>
<text text-anchor="middle" x="359" y="-712.5" font-family="Helvetica,sans-Serif" font-size="10.00">algorithm</text>
</g>
<!-- Node3&#45;&gt;Node41 -->
<g id="edge145" class="edge"><title>Node3&#45;&gt;Node41</title>
<path fill="none" stroke="midnightblue" d="M2025.78,-937.577C1775.11,-934.859 436.69,-919.136 404,-893 355.748,-854.421 354.878,-772.034 357.216,-734.873"/>
<polygon fill="midnightblue" stroke="midnightblue" points="360.706,-735.132 357.996,-724.89 353.728,-734.587 360.706,-735.132"/>
</g>
<!-- Node42 -->
<g id="node42" class="node"><title>Node42</title>
<g id="a_node42"><a xlink:href="var_8h.html" target="_top" xlink:title="Variables in the TIR. ">
<polygon fill="white" stroke="black" points="1945,-817.5 1945,-836.5 2019,-836.5 2019,-817.5 1945,-817.5"/>
<text text-anchor="middle" x="1982" y="-824.5" font-family="Helvetica,sans-Serif" font-size="10.00">tvm/tir/var.h</text>
</a>
</g>
</g>
<!-- Node3&#45;&gt;Node42 -->
<g id="edge134" class="edge"><title>Node3&#45;&gt;Node42</title>
<path fill="none" stroke="midnightblue" d="M2059.41,-929.368C2045.48,-911.135 2012.87,-868.426 1994.73,-844.675"/>
<polygon fill="midnightblue" stroke="midnightblue" points="1997.41,-842.415 1988.56,-836.591 1991.85,-846.663 1997.41,-842.415"/>
</g>
<!-- Node43 -->
<g id="node43" class="node"><title>Node43</title>
<g id="a_node43"><a xlink:href="buffer_8h.html" target="_top" xlink:title="Symbolic n&#45;dimensional array, to represent a memory buffer. ">
<polygon fill="white" stroke="black" points="2227.5,-873.5 2227.5,-892.5 2314.5,-892.5 2314.5,-873.5 2227.5,-873.5"/>
<text text-anchor="middle" x="2271" y="-880.5" font-family="Helvetica,sans-Serif" font-size="10.00">tvm/tir/buffer.h</text>
</a>
</g>
</g>
<!-- Node3&#45;&gt;Node43 -->
<g id="edge139" class="edge"><title>Node3&#45;&gt;Node43</title>
<path fill="none" stroke="midnightblue" d="M2098.48,-929.444C2133.72,-920.162 2190.1,-905.309 2228.76,-895.127"/>
<polygon fill="midnightblue" stroke="midnightblue" points="2229.89,-898.448 2238.67,-892.516 2228.11,-891.679 2229.89,-898.448"/>
</g>
<!-- Node4&#45;&gt;Node5 -->
<g id="edge4" class="edge"><title>Node4&#45;&gt;Node5</title>
<path fill="none" stroke="midnightblue" d="M1651.88,-601.147C1473.67,-597.837 867.256,-584.636 785,-557 764.083,-549.972 714.009,-520.124 703,-501 631.543,-376.87 629.354,-308.754 690,-179 718.911,-117.145 796.261,-91.2111 855.204,-80.3402"/>
<polygon fill="midnightblue" stroke="midnightblue" points="855.981,-83.7578 865.236,-78.6008 854.785,-76.8607 855.981,-83.7578"/>
</g>
<!-- Node9 -->
<g id="node9" class="node"><title>Node9</title>
<g id="a_node9"><a xlink:href="runtime_2container_8h.html" target="_top" xlink:title="Common POD(plain old data) container types. ">
<polygon fill="white" stroke="black" points="1698,-358.5 1698,-377.5 1830,-377.5 1830,-358.5 1698,-358.5"/>
<text text-anchor="middle" x="1764" y="-365.5" font-family="Helvetica,sans-Serif" font-size="10.00">tvm/runtime/container.h</text>
</a>
</g>
</g>
<!-- Node4&#45;&gt;Node9 -->
<g id="edge8" class="edge"><title>Node4&#45;&gt;Node9</title>
<path fill="none" stroke="midnightblue" d="M1703.32,-593.431C1712.44,-559.683 1746.03,-435.47 1758.92,-387.799"/>
<polygon fill="midnightblue" stroke="midnightblue" points="1762.36,-388.463 1761.59,-377.896 1755.61,-386.636 1762.36,-388.463"/>
</g>
<!-- Node11 -->
<g id="node11" class="node"><title>Node11</title>
<g id="a_node11"><a xlink:href="runtime_2memory_8h.html" target="_top" xlink:title="Runtime memory management. ">
<polygon fill="white" stroke="black" points="1789.5,-179.5 1789.5,-198.5 1916.5,-198.5 1916.5,-179.5 1789.5,-179.5"/>
<text text-anchor="middle" x="1853" y="-186.5" font-family="Helvetica,sans-Serif" font-size="10.00">tvm/runtime/memory.h</text>
</a>
</g>
</g>
<!-- Node4&#45;&gt;Node11 -->
<g id="edge64" class="edge"><title>Node4&#45;&gt;Node11</title>
<path fill="none" stroke="midnightblue" d="M1708.53,-593.411C1732.83,-565.088 1809.31,-471.13 1839,-378 1858.02,-318.326 1856.43,-242.814 1854.41,-208.488"/>
<polygon fill="midnightblue" stroke="midnightblue" points="1857.9,-208.251 1853.74,-198.509 1850.92,-208.721 1857.9,-208.251"/>
</g>
<!-- Node12 -->
<g id="node12" class="node"><title>Node12</title>
<g id="a_node12"><a xlink:href="object_8h.html" target="_top" xlink:title="A managed object in the TVM runtime. ">
<polygon fill="white" stroke="black" points="1235.5,-123.5 1235.5,-142.5 1352.5,-142.5 1352.5,-123.5 1235.5,-123.5"/>
<text text-anchor="middle" x="1294" y="-130.5" font-family="Helvetica,sans-Serif" font-size="10.00">tvm/runtime/object.h</text>
</a>
</g>
</g>
<!-- Node4&#45;&gt;Node12 -->
<g id="edge63" class="edge"><title>Node4&#45;&gt;Node12</title>
<path fill="none" stroke="midnightblue" d="M1651.53,-600.443C1517.6,-595.28 1151.92,-574.611 1061,-501 943.682,-406.02 833.398,-271.088 953,-179 994.36,-147.155 1138.26,-137.818 1225.36,-135.099"/>
<polygon fill="midnightblue" stroke="midnightblue" points="1225.54,-138.595 1235.43,-134.806 1225.34,-131.598 1225.54,-138.595"/>
</g>
<!-- Node13 -->
<g id="node13" class="node"><title>Node13</title>
<polygon fill="white" stroke="#bfbfbf" points="194,-62 194,-81 262,-81 262,-62 194,-62"/>
<text text-anchor="middle" x="228" y="-69" font-family="Helvetica,sans-Serif" font-size="10.00">type_traits</text>
</g>
<!-- Node4&#45;&gt;Node13 -->
<g id="edge110" class="edge"><title>Node4&#45;&gt;Node13</title>
<path fill="none" stroke="midnightblue" d="M1651.91,-601.071C1468.62,-597.413 830.343,-582.923 743,-557 504.609,-486.247 419.599,-455.127 272,-255 240.445,-212.215 237.243,-195.667 230,-143 227.604,-125.58 227.267,-105.518 227.433,-91.261"/>
<polygon fill="midnightblue" stroke="midnightblue" points="230.932,-91.304 227.644,-81.2326 223.934,-91.1567 230.932,-91.304"/>
</g>
<!-- Node4&#45;&gt;Node14 -->
<g id="edge107" class="edge"><title>Node4&#45;&gt;Node14</title>
<path fill="none" stroke="midnightblue" d="M1750.12,-599.999C1818.46,-596.244 1945.59,-585.724 2050,-557 2319.64,-482.819 2597,-525.658 2597,-246 2597,-246 2597,-246 2597,-188 2597,-151.754 2614.09,-112.171 2625.35,-90.0327"/>
<polygon fill="midnightblue" stroke="midnightblue" points="2628.46,-91.641 2630.03,-81.1633 2622.27,-88.3745 2628.46,-91.641"/>
</g>
<!-- Node4&#45;&gt;Node15 -->
<g id="edge109" class="edge"><title>Node4&#45;&gt;Node15</title>
<path fill="none" stroke="midnightblue" d="M1750.1,-599.661C1810.65,-595.65 1916.08,-584.966 2002,-557 2165.51,-503.776 2255.87,-525.052 2345,-378 2474.15,-164.915 1947.39,-91.0625 1811.35,-75.7264"/>
<polygon fill="midnightblue" stroke="midnightblue" points="1811.5,-72.2219 1801.17,-74.6076 1810.73,-79.1799 1811.5,-72.2219"/>
</g>
<!-- Node21 -->
<g id="node21" class="node"><title>Node21</title>
<polygon fill="white" stroke="#bfbfbf" points="2060.5,-179.5 2060.5,-198.5 2107.5,-198.5 2107.5,-179.5 2060.5,-179.5"/>
<text text-anchor="middle" x="2084" y="-186.5" font-family="Helvetica,sans-Serif" font-size="10.00">vector</text>
</g>
<!-- Node4&#45;&gt;Node21 -->
<g id="edge108" class="edge"><title>Node4&#45;&gt;Node21</title>
<path fill="none" stroke="midnightblue" d="M1750.09,-600.187C1844.09,-593.719 2047.75,-564.546 2133,-434 2181.36,-359.945 2170.7,-315.471 2134,-235 2128.32,-222.548 2117.36,-212.067 2107.15,-204.361"/>
<polygon fill="midnightblue" stroke="midnightblue" points="2109.08,-201.436 2098.88,-198.559 2105.06,-207.167 2109.08,-201.436"/>
</g>
<!-- Node31 -->
<g id="node31" class="node"><title>Node31</title>
<g id="a_node31"><a xlink:href="reflection_8h.html" target="_top" xlink:title="Reflection and serialization of compiler IR/AST nodes. ">
<polygon fill="white" stroke="black" points="1325.5,-537.5 1325.5,-556.5 1444.5,-556.5 1444.5,-537.5 1325.5,-537.5"/>
<text text-anchor="middle" x="1385" y="-544.5" font-family="Helvetica,sans-Serif" font-size="10.00">tvm/node/reflection.h</text>
</a>
</g>
</g>
<!-- Node4&#45;&gt;Node31 -->
<g id="edge65" class="edge"><title>Node4&#45;&gt;Node31</title>
<path fill="none" stroke="midnightblue" d="M1651.97,-593.622C1596.17,-584.086 1505.02,-568.509 1445.01,-558.256"/>
<polygon fill="midnightblue" stroke="midnightblue" points="1445.37,-554.766 1434.93,-556.532 1444.19,-561.666 1445.37,-554.766"/>
</g>
<!-- Node32 -->
<g id="node32" class="node"><title>Node32</title>
<g id="a_node32"><a xlink:href="structural__equal_8h.html" target="_top" xlink:title="Structural equality comparison. ">
<polygon fill="white" stroke="black" points="1592.5,-470.5 1592.5,-500.5 1703.5,-500.5 1703.5,-470.5 1592.5,-470.5"/>
<text text-anchor="start" x="1600.5" y="-488.5" font-family="Helvetica,sans-Serif" font-size="10.00">tvm/node/structural</text>
<text text-anchor="middle" x="1648" y="-477.5" font-family="Helvetica,sans-Serif" font-size="10.00">_equal.h</text>
</a>
</g>
</g>
<!-- Node4&#45;&gt;Node32 -->
<g id="edge105" class="edge"><title>Node4&#45;&gt;Node32</title>
<path fill="none" stroke="midnightblue" d="M1697.02,-593.319C1688.98,-575.812 1670.6,-535.749 1658.77,-509.97"/>
<polygon fill="midnightblue" stroke="midnightblue" points="1661.8,-508.174 1654.45,-500.545 1655.43,-511.094 1661.8,-508.174"/>
</g>
<!-- Node4&#45;&gt;Node34 -->
<g id="edge104" class="edge"><title>Node4&#45;&gt;Node34</title>
<path fill="none" stroke="midnightblue" d="M1732.43,-593.422C1759.67,-585.492 1799.8,-572.595 1833,-557 1899.99,-525.533 1910.28,-505.917 1975,-470 1995.62,-458.556 2019.52,-446.667 2037.51,-437.986"/>
<polygon fill="midnightblue" stroke="midnightblue" points="2039.33,-440.995 2046.83,-433.516 2036.3,-434.682 2039.33,-440.995"/>
</g>
<!-- Node35 -->
<g id="node35" class="node"><title>Node35</title>
<g id="a_node35"><a xlink:href="structural__hash_8h.html" target="_top" xlink:title="tvm/node/structural\l_hash.h">
<polygon fill="white" stroke="black" points="1092.5,-470.5 1092.5,-500.5 1203.5,-500.5 1203.5,-470.5 1092.5,-470.5"/>
<text text-anchor="start" x="1100.5" y="-488.5" font-family="Helvetica,sans-Serif" font-size="10.00">tvm/node/structural</text>
<text text-anchor="middle" x="1148" y="-477.5" font-family="Helvetica,sans-Serif" font-size="10.00">_hash.h</text>
</a>
</g>
</g>
<!-- Node4&#45;&gt;Node35 -->
<g id="edge106" class="edge"><title>Node4&#45;&gt;Node35</title>
<path fill="none" stroke="midnightblue" d="M1651.87,-600.656C1577.88,-597.652 1433.97,-587.984 1316,-557 1268.8,-544.604 1217.48,-521.546 1184.14,-505.178"/>
<polygon fill="midnightblue" stroke="midnightblue" points="1185.33,-501.86 1174.82,-500.543 1182.22,-508.128 1185.33,-501.86"/>
</g>
<!-- Node36 -->
<g id="node36" class="node"><title>Node36</title>
<g id="a_node36"><a xlink:href="repr__printer_8h.html" target="_top" xlink:title="Printer class to print repr string of each AST/IR nodes. ">
<polygon fill="white" stroke="black" points="794,-537.5 794,-556.5 924,-556.5 924,-537.5 794,-537.5"/>
<text text-anchor="middle" x="859" y="-544.5" font-family="Helvetica,sans-Serif" font-size="10.00">tvm/node/repr_printer.h</text>
</a>
</g>
</g>
<!-- Node4&#45;&gt;Node36 -->
<g id="edge101" class="edge"><title>Node4&#45;&gt;Node36</title>
<path fill="none" stroke="midnightblue" d="M1651.84,-600.031C1530.49,-594.968 1207.03,-580.241 938,-557 936.724,-556.89 935.436,-556.776 934.139,-556.658"/>
<polygon fill="midnightblue" stroke="midnightblue" points="934.356,-553.163 924.069,-555.697 933.691,-560.131 934.356,-553.163"/>
</g>
<!-- Node6 -->
<g id="node6" class="node"><title>Node6</title>
<polygon fill="white" stroke="#bfbfbf" points="794,-0.5 794,-19.5 884,-19.5 884,-0.5 794,-0.5"/>
<text text-anchor="middle" x="839" y="-7.5" font-family="Helvetica,sans-Serif" font-size="10.00">dlpack/dlpack.h</text>
</g>
<!-- Node5&#45;&gt;Node6 -->
<g id="edge5" class="edge"><title>Node5&#45;&gt;Node6</title>
<path fill="none" stroke="midnightblue" d="M907.671,-56.3993C893.515,-47.0402 874.989,-34.7924 860.747,-25.3771"/>
<polygon fill="midnightblue" stroke="midnightblue" points="862.368,-22.2531 852.096,-19.6578 858.507,-28.0923 862.368,-22.2531"/>
</g>
<!-- Node7 -->
<g id="node7" class="node"><title>Node7</title>
<polygon fill="white" stroke="#bfbfbf" points="902.5,-0.5 902.5,-19.5 955.5,-19.5 955.5,-0.5 902.5,-0.5"/>
<text text-anchor="middle" x="929" y="-7.5" font-family="Helvetica,sans-Serif" font-size="10.00">stdint.h</text>
</g>
<!-- Node5&#45;&gt;Node7 -->
<g id="edge6" class="edge"><title>Node5&#45;&gt;Node7</title>
<path fill="none" stroke="midnightblue" d="M929,-56.3993C929,-48.4664 929,-38.458 929,-29.8583"/>
<polygon fill="midnightblue" stroke="midnightblue" points="932.5,-29.6577 929,-19.6578 925.5,-29.6578 932.5,-29.6577"/>
</g>
<!-- Node8 -->
<g id="node8" class="node"><title>Node8</title>
<polygon fill="white" stroke="#bfbfbf" points="973.5,-0.5 973.5,-19.5 1028.5,-19.5 1028.5,-0.5 973.5,-0.5"/>
<text text-anchor="middle" x="1001" y="-7.5" font-family="Helvetica,sans-Serif" font-size="10.00">stddef.h</text>
</g>
<!-- Node5&#45;&gt;Node8 -->
<g id="edge7" class="edge"><title>Node5&#45;&gt;Node8</title>
<path fill="none" stroke="midnightblue" d="M946.063,-56.3993C957.065,-47.3076 971.365,-35.4899 982.618,-26.1909"/>
<polygon fill="midnightblue" stroke="midnightblue" points="985.044,-28.726 990.523,-19.6578 980.585,-23.33 985.044,-28.726"/>
</g>
<!-- Node10 -->
<g id="node10" class="node"><title>Node10</title>
<polygon fill="white" stroke="#bfbfbf" points="594,-62 594,-81 680,-81 680,-62 594,-62"/>
<text text-anchor="middle" x="637" y="-69" font-family="Helvetica,sans-Serif" font-size="10.00">dmlc/logging.h</text>
</g>
<!-- Node9&#45;&gt;Node10 -->
<g id="edge9" class="edge"><title>Node9&#45;&gt;Node10</title>
<path fill="none" stroke="midnightblue" d="M1697.78,-367.702C1554.26,-367.173 1205.73,-354.751 936,-255 820.495,-212.283 700.636,-122.954 655.584,-87.4834"/>
<polygon fill="midnightblue" stroke="midnightblue" points="657.602,-84.6163 647.594,-81.1371 653.248,-90.0976 657.602,-84.6163"/>
</g>
<!-- Node9&#45;&gt;Node11 -->
<g id="edge10" class="edge"><title>Node9&#45;&gt;Node11</title>
<path fill="none" stroke="midnightblue" d="M1754.46,-358.102C1739.88,-343.412 1715.25,-313.477 1730,-291 1752.06,-257.383 1782.62,-281.337 1813,-255 1827.82,-242.15 1838.88,-222.421 1845.57,-208.068"/>
<polygon fill="midnightblue" stroke="midnightblue" points="1848.85,-209.307 1849.66,-198.743 1842.44,-206.495 1848.85,-209.307"/>
</g>
<!-- Node9&#45;&gt;Node12 -->
<g id="edge21" class="edge"><title>Node9&#45;&gt;Node12</title>
<path fill="none" stroke="midnightblue" d="M1741.84,-358.464C1705.89,-343.397 1635.32,-308.528 1600,-255 1581.04,-226.262 1609.84,-202.836 1585,-179 1582.98,-177.063 1447.54,-156.716 1362.17,-144.055"/>
<polygon fill="midnightblue" stroke="midnightblue" points="1362.42,-140.554 1352.02,-142.55 1361.39,-147.479 1362.42,-140.554"/>
</g>
<!-- Node9&#45;&gt;Node13 -->
<g id="edge60" class="edge"><title>Node9&#45;&gt;Node13</title>
<path fill="none" stroke="midnightblue" d="M1697.79,-365.569C1571.41,-362.232 1287.23,-351.808 1050,-322 891.123,-302.037 852.624,-288.308 696,-255 590.134,-232.486 563.137,-228.495 459,-199 382.867,-177.437 355.982,-186.675 290,-143 268.64,-128.861 250.14,-105.513 239.038,-89.5908"/>
<polygon fill="midnightblue" stroke="midnightblue" points="241.878,-87.5418 233.391,-81.2 236.071,-91.4503 241.878,-87.5418"/>
</g>
<!-- Node9&#45;&gt;Node14 -->
<g id="edge59" class="edge"><title>Node9&#45;&gt;Node14</title>
<path fill="none" stroke="midnightblue" d="M1790.47,-358.385C1815.81,-349.905 1854.97,-336.196 1888,-322 1916.3,-309.836 1922.09,-304.041 1950,-291 2119.51,-211.802 2156.65,-176.307 2336,-123 2430.62,-94.8768 2547.03,-80.8594 2602.56,-75.3714"/>
<polygon fill="midnightblue" stroke="midnightblue" points="2603.21,-78.8254 2612.83,-74.3859 2602.54,-71.8574 2603.21,-78.8254"/>
</g>
<!-- Node9&#45;&gt;Node15 -->
<g id="edge61" class="edge"><title>Node9&#45;&gt;Node15</title>
<path fill="none" stroke="midnightblue" d="M1774.28,-358.157C1807.21,-329.558 1908.88,-239.109 1925,-199 1931.48,-182.876 1933.22,-139.105 1921,-123 1895.12,-88.8887 1844.19,-77.7663 1811.15,-74.1717"/>
<polygon fill="midnightblue" stroke="midnightblue" points="1811.38,-70.6785 1801.1,-73.2496 1810.74,-77.6492 1811.38,-70.6785"/>
</g>
<!-- Node18 -->
<g id="node18" class="node"><title>Node18</title>
<g id="a_node18"><a xlink:href="packed__func_8h.html" target="_top" xlink:title="Type&#45;erased function used across TVM API. ">
<polygon fill="white" stroke="black" points="1359.5,-291.5 1359.5,-321.5 1472.5,-321.5 1472.5,-291.5 1359.5,-291.5"/>
<text text-anchor="start" x="1367.5" y="-309.5" font-family="Helvetica,sans-Serif" font-size="10.00">tvm/runtime/packed</text>
<text text-anchor="middle" x="1416" y="-298.5" font-family="Helvetica,sans-Serif" font-size="10.00">_func.h</text>
</a>
</g>
</g>
<!-- Node9&#45;&gt;Node18 -->
<g id="edge22" class="edge"><title>Node9&#45;&gt;Node18</title>
<path fill="none" stroke="midnightblue" d="M1714.14,-358.475C1653.36,-348.083 1550.41,-330.482 1482.82,-318.924"/>
<polygon fill="midnightblue" stroke="midnightblue" points="1483.15,-315.43 1472.7,-317.194 1481.97,-322.33 1483.15,-315.43"/>
</g>
<!-- Node9&#45;&gt;Node21 -->
<g id="edge62" class="edge"><title>Node9&#45;&gt;Node21</title>
<path fill="none" stroke="midnightblue" d="M1779.43,-358.463C1830.85,-330.022 1996.62,-238.329 2059.5,-203.549"/>
<polygon fill="midnightblue" stroke="midnightblue" points="2061.29,-206.562 2068.35,-198.659 2057.9,-200.436 2061.29,-206.562"/>
</g>
<!-- Node29 -->
<g id="node29" class="node"><title>Node29</title>
<polygon fill="white" stroke="#bfbfbf" points="1739.5,-297 1739.5,-316 1788.5,-316 1788.5,-297 1739.5,-297"/>
<text text-anchor="middle" x="1764" y="-304" font-family="Helvetica,sans-Serif" font-size="10.00">cstring</text>
</g>
<!-- Node9&#45;&gt;Node29 -->
<g id="edge57" class="edge"><title>Node9&#45;&gt;Node29</title>
<path fill="none" stroke="midnightblue" d="M1764,-358.475C1764,-350.08 1764,-336.981 1764,-326.163"/>
<polygon fill="midnightblue" stroke="midnightblue" points="1767.5,-326.009 1764,-316.009 1760.5,-326.009 1767.5,-326.009"/>
</g>
<!-- Node30 -->
<g id="node30" class="node"><title>Node30</title>
<polygon fill="white" stroke="#bfbfbf" points="1959.5,-297 1959.5,-316 2036.5,-316 2036.5,-297 1959.5,-297"/>
<text text-anchor="middle" x="1998" y="-304" font-family="Helvetica,sans-Serif" font-size="10.00">initializer_list</text>
</g>
<!-- Node9&#45;&gt;Node30 -->
<g id="edge58" class="edge"><title>Node9&#45;&gt;Node30</title>
<path fill="none" stroke="midnightblue" d="M1799.44,-358.449C1835.97,-349.572 1894.56,-335.168 1945,-322 1949.05,-320.943 1953.27,-319.822 1957.48,-318.691"/>
<polygon fill="midnightblue" stroke="midnightblue" points="1958.47,-322.049 1967.2,-316.056 1956.64,-315.292 1958.47,-322.049"/>
</g>
<!-- Node11&#45;&gt;Node12 -->
<g id="edge11" class="edge"><title>Node11&#45;&gt;Node12</title>
<path fill="none" stroke="midnightblue" d="M1789.42,-181.858C1683.66,-171.642 1472.45,-151.238 1363.13,-140.678"/>
<polygon fill="midnightblue" stroke="midnightblue" points="1363.16,-137.165 1352.87,-139.687 1362.49,-144.132 1363.16,-137.165"/>
</g>
<!-- Node11&#45;&gt;Node13 -->
<g id="edge20" class="edge"><title>Node11&#45;&gt;Node13</title>
<path fill="none" stroke="midnightblue" d="M1800.02,-179.464C1710.04,-165.312 1521.49,-137.152 1361,-123 1305.93,-118.144 475.34,-82.9355 272.453,-74.373"/>
<polygon fill="midnightblue" stroke="midnightblue" points="272.312,-70.8641 262.173,-73.9393 272.017,-77.8578 272.312,-70.8641"/>
</g>
<!-- Node11&#45;&gt;Node15 -->
<g id="edge19" class="edge"><title>Node11&#45;&gt;Node15</title>
<path fill="none" stroke="midnightblue" d="M1847.51,-179.319C1835.52,-160.339 1806.77,-114.848 1790.93,-89.7882"/>
<polygon fill="midnightblue" stroke="midnightblue" points="1793.85,-87.8652 1785.55,-81.282 1787.93,-91.6051 1793.85,-87.8652"/>
</g>
<!-- Node17 -->
<g id="node17" class="node"><title>Node17</title>
<polygon fill="white" stroke="#bfbfbf" points="1865.5,-123.5 1865.5,-142.5 1912.5,-142.5 1912.5,-123.5 1865.5,-123.5"/>
<text text-anchor="middle" x="1889" y="-130.5" font-family="Helvetica,sans-Serif" font-size="10.00">cstdlib</text>
</g>
<!-- Node11&#45;&gt;Node17 -->
<g id="edge18" class="edge"><title>Node11&#45;&gt;Node17</title>
<path fill="none" stroke="midnightblue" d="M1858.94,-179.083C1863.98,-171.534 1871.34,-160.495 1877.51,-151.23"/>
<polygon fill="midnightblue" stroke="midnightblue" points="1880.53,-153.013 1883.17,-142.751 1874.71,-149.13 1880.53,-153.013"/>
</g>
<!-- Node12&#45;&gt;Node5 -->
<g id="edge13" class="edge"><title>Node12&#45;&gt;Node5</title>
<path fill="none" stroke="midnightblue" d="M1241.7,-123.475C1179.05,-113.261 1073.66,-96.0818 1002.75,-84.5227"/>
<polygon fill="midnightblue" stroke="midnightblue" points="1002.98,-81.0142 992.55,-82.8596 1001.86,-87.923 1002.98,-81.0142"/>
</g>
<!-- Node12&#45;&gt;Node10 -->
<g id="edge12" class="edge"><title>Node12&#45;&gt;Node10</title>
<path fill="none" stroke="midnightblue" d="M1235.41,-126.694C1108.89,-115.236 811.774,-88.3281 690.238,-77.3214"/>
<polygon fill="midnightblue" stroke="midnightblue" points="690.342,-73.8166 680.067,-76.4003 689.711,-80.788 690.342,-73.8166"/>
</g>
<!-- Node12&#45;&gt;Node13 -->
<g id="edge14" class="edge"><title>Node12&#45;&gt;Node13</title>
<path fill="none" stroke="midnightblue" d="M1235.17,-128.716C1043.64,-118.026 440.602,-84.3666 272.115,-74.9623"/>
<polygon fill="midnightblue" stroke="midnightblue" points="272.29,-71.4668 262.111,-74.4039 271.9,-78.4559 272.29,-71.4668"/>
</g>
<!-- Node12&#45;&gt;Node14 -->
<g id="edge15" class="edge"><title>Node12&#45;&gt;Node14</title>
<path fill="none" stroke="midnightblue" d="M1352.53,-129.117C1389.4,-127.318 1437.98,-124.977 1481,-123 1925.7,-102.568 2466.9,-79.5983 2602.85,-73.8554"/>
<polygon fill="midnightblue" stroke="midnightblue" points="2603.15,-77.3459 2613,-73.4271 2602.86,-70.3521 2603.15,-77.3459"/>
</g>
<!-- Node12&#45;&gt;Node15 -->
<g id="edge16" class="edge"><title>Node12&#45;&gt;Node15</title>
<path fill="none" stroke="midnightblue" d="M1352.57,-124.774C1357.45,-124.173 1362.31,-123.576 1367,-123 1509.58,-105.494 1679.86,-84.7126 1748.77,-76.308"/>
<polygon fill="midnightblue" stroke="midnightblue" points="1749.44,-79.7527 1758.94,-75.0678 1748.59,-72.8042 1749.44,-79.7527"/>
</g>
<!-- Node16 -->
<g id="node16" class="node"><title>Node16</title>
<polygon fill="white" stroke="#bfbfbf" points="1206,-62 1206,-81 1256,-81 1256,-62 1206,-62"/>
<text text-anchor="middle" x="1231" y="-69" font-family="Helvetica,sans-Serif" font-size="10.00">atomic</text>
</g>
<!-- Node12&#45;&gt;Node16 -->
<g id="edge17" class="edge"><title>Node12&#45;&gt;Node16</title>
<path fill="none" stroke="midnightblue" d="M1284.97,-123.475C1275.24,-114.285 1259.54,-99.4563 1247.58,-88.156"/>
<polygon fill="midnightblue" stroke="midnightblue" points="1249.68,-85.3308 1240.01,-81.0091 1244.88,-90.4199 1249.68,-85.3308"/>
</g>
<!-- Node18&#45;&gt;Node5 -->
<g id="edge24" class="edge"><title>Node18&#45;&gt;Node5</title>
<path fill="none" stroke="midnightblue" d="M1359.45,-293.771C1354.57,-292.813 1349.7,-291.877 1345,-291 1250.62,-273.392 1223.68,-283.5 1132,-255 1111.87,-248.743 1108.53,-242.931 1089,-235 1044.07,-216.752 1021.75,-231.765 986,-199 955.924,-171.436 940.695,-124.976 933.832,-96.6873"/>
<polygon fill="midnightblue" stroke="midnightblue" points="937.218,-95.7934 931.598,-86.8123 930.391,-97.3381 937.218,-95.7934"/>
</g>
<!-- Node18&#45;&gt;Node10 -->
<g id="edge23" class="edge"><title>Node18&#45;&gt;Node10</title>
<path fill="none" stroke="midnightblue" d="M1359.48,-293.629C1354.59,-292.702 1349.71,-291.812 1345,-291 1231.77,-271.496 1198.35,-290.279 1089,-255 1070.84,-249.14 1068.35,-242.943 1051,-235 978.474,-201.803 753.368,-116.351 669.195,-84.6086"/>
<polygon fill="midnightblue" stroke="midnightblue" points="670.24,-81.2622 659.648,-81.011 667.772,-87.8126 670.24,-81.2622"/>
</g>
<!-- Node18&#45;&gt;Node12 -->
<g id="edge48" class="edge"><title>Node18&#45;&gt;Node12</title>
<path fill="none" stroke="midnightblue" d="M1405.91,-291.355C1398.69,-281.232 1388.74,-267.28 1380,-255 1353.6,-217.908 1322.68,-174.387 1306.05,-150.974"/>
<polygon fill="midnightblue" stroke="midnightblue" points="1308.69,-148.638 1300.04,-142.511 1302.98,-152.691 1308.69,-148.638"/>
</g>
<!-- Node18&#45;&gt;Node13 -->
<g id="edge56" class="edge"><title>Node18&#45;&gt;Node13</title>
<path fill="none" stroke="midnightblue" d="M1359.49,-293.538C1354.6,-292.63 1349.72,-291.769 1345,-291 1215.07,-269.813 1175.68,-297.257 1051,-255 1034.4,-249.372 1033.5,-240.921 1017,-235 771.336,-146.849 690.437,-205.376 437,-143 372.384,-127.097 299.19,-100.299 258.836,-84.7256"/>
<polygon fill="midnightblue" stroke="midnightblue" points="259.898,-81.3833 249.309,-81.0214 257.361,-87.9075 259.898,-81.3833"/>
</g>
<!-- Node18&#45;&gt;Node14 -->
<g id="edge52" class="edge"><title>Node18&#45;&gt;Node14</title>
<path fill="none" stroke="midnightblue" d="M1472.51,-298.274C1537.73,-289.582 1648.07,-273.789 1742,-255 1880.68,-227.26 1913.36,-211.526 2051,-179 2160.55,-153.112 2187.37,-143.8 2298,-123 2409.34,-102.066 2542.68,-84.1923 2602.81,-76.5149"/>
<polygon fill="midnightblue" stroke="midnightblue" points="2603.34,-79.9749 2612.82,-75.2439 2602.46,-73.0306 2603.34,-79.9749"/>
</g>
<!-- Node18&#45;&gt;Node15 -->
<g id="edge55" class="edge"><title>Node18&#45;&gt;Node15</title>
<path fill="none" stroke="midnightblue" d="M1425.69,-291.321C1432.21,-281.416 1440.73,-267.736 1447,-255 1462.97,-222.565 1450.09,-204.21 1476,-179 1553.71,-103.405 1688.05,-81.2282 1748.7,-74.9164"/>
<polygon fill="midnightblue" stroke="midnightblue" points="1749.18,-78.3864 1758.79,-73.9429 1748.5,-71.4187 1749.18,-78.3864"/>
</g>
<!-- Node19 -->
<g id="node19" class="node"><title>Node19</title>
<g id="a_node19"><a xlink:href="runtime_2module_8h.html" target="_top" xlink:title="Runtime container of the functions generated by TVM, This is used to support dynamically link...">
<polygon fill="white" stroke="red" points="1609,-235.5 1609,-254.5 1733,-254.5 1733,-235.5 1609,-235.5"/>
<text text-anchor="middle" x="1671" y="-242.5" font-family="Helvetica,sans-Serif" font-size="10.00">tvm/runtime/module.h</text>
</a>
</g>
</g>
<!-- Node18&#45;&gt;Node19 -->
<g id="edge25" class="edge"><title>Node18&#45;&gt;Node19</title>
<path fill="none" stroke="midnightblue" d="M1470.28,-291.475C1514.53,-280.829 1576.48,-266.413 1619.86,-256.689"/>
<polygon fill="midnightblue" stroke="midnightblue" points="1620.65,-260.1 1629.65,-254.506 1619.13,-253.268 1620.65,-260.1"/>
</g>
<!-- Node20 -->
<g id="node20" class="node"><title>Node20</title>
<polygon fill="white" stroke="#bfbfbf" points="1485.5,-179.5 1485.5,-198.5 1542.5,-198.5 1542.5,-179.5 1485.5,-179.5"/>
<text text-anchor="middle" x="1514" y="-186.5" font-family="Helvetica,sans-Serif" font-size="10.00">memory</text>
</g>
<!-- Node18&#45;&gt;Node20 -->
<g id="edge54" class="edge"><title>Node18&#45;&gt;Node20</title>
<path fill="none" stroke="midnightblue" d="M1402.7,-291.295C1390.37,-276.33 1375.63,-252.547 1388,-235 1407.63,-207.145 1446.14,-196.438 1475.44,-192.372"/>
<polygon fill="midnightblue" stroke="midnightblue" points="1475.86,-195.847 1485.38,-191.193 1475.04,-188.896 1475.86,-195.847"/>
</g>
<!-- Node18&#45;&gt;Node21 -->
<g id="edge51" class="edge"><title>Node18&#45;&gt;Node21</title>
<path fill="none" stroke="midnightblue" d="M1472.69,-303.389C1562.1,-299.18 1740.92,-287.192 1889,-255 1948.86,-241.987 2016.12,-217.2 2053.94,-202.279"/>
<polygon fill="midnightblue" stroke="midnightblue" points="2055.36,-205.484 2063.35,-198.531 2052.76,-198.981 2055.36,-205.484"/>
</g>
<!-- Node23 -->
<g id="node23" class="node"><title>Node23</title>
<g id="a_node23"><a xlink:href="ndarray_8h.html" target="_top" xlink:title="A device&#45;independent managed NDArray abstraction. ">
<polygon fill="white" stroke="black" points="1141.5,-235.5 1141.5,-254.5 1264.5,-254.5 1264.5,-235.5 1141.5,-235.5"/>
<text text-anchor="middle" x="1203" y="-242.5" font-family="Helvetica,sans-Serif" font-size="10.00">tvm/runtime/ndarray.h</text>
</a>
</g>
</g>
<!-- Node18&#45;&gt;Node23 -->
<g id="edge34" class="edge"><title>Node18&#45;&gt;Node23</title>
<path fill="none" stroke="midnightblue" d="M1365.79,-291.475C1328.4,-281.03 1278.02,-266.958 1243.26,-257.247"/>
<polygon fill="midnightblue" stroke="midnightblue" points="1244.02,-253.826 1233.45,-254.506 1242.14,-260.568 1244.02,-253.826"/>
</g>
<!-- Node18&#45;&gt;Node25 -->
<g id="edge43" class="edge"><title>Node18&#45;&gt;Node25</title>
<path fill="none" stroke="midnightblue" d="M1359.33,-303.825C1211.24,-299.173 800.285,-284.51 447.566,-255.08"/>
<polygon fill="midnightblue" stroke="midnightblue" points="447.669,-251.577 437.411,-254.227 447.083,-258.552 447.669,-251.577"/>
</g>
<!-- Node26 -->
<g id="node26" class="node"><title>Node26</title>
<polygon fill="white" stroke="#bfbfbf" points="945.5,-235.5 945.5,-254.5 1008.5,-254.5 1008.5,-235.5 945.5,-235.5"/>
<text text-anchor="middle" x="977" y="-242.5" font-family="Helvetica,sans-Serif" font-size="10.00">functional</text>
</g>
<!-- Node18&#45;&gt;Node26 -->
<g id="edge49" class="edge"><title>Node18&#45;&gt;Node26</title>
<path fill="none" stroke="midnightblue" d="M1359.12,-293.413C1354.35,-292.543 1349.6,-291.725 1345,-291 1202.75,-268.57 1165.34,-276.843 1023,-255 1021.54,-254.776 1020.06,-254.539 1018.56,-254.292"/>
<polygon fill="midnightblue" stroke="midnightblue" points="1019.07,-250.827 1008.61,-252.539 1017.86,-257.721 1019.07,-250.827"/>
</g>
<!-- Node27 -->
<g id="node27" class="node"><title>Node27</title>
<polygon fill="white" stroke="#bfbfbf" points="1397.5,-235.5 1397.5,-254.5 1438.5,-254.5 1438.5,-235.5 1397.5,-235.5"/>
<text text-anchor="middle" x="1418" y="-242.5" font-family="Helvetica,sans-Serif" font-size="10.00">tuple</text>
</g>
<!-- Node18&#45;&gt;Node27 -->
<g id="edge50" class="edge"><title>Node18&#45;&gt;Node27</title>
<path fill="none" stroke="midnightblue" d="M1416.47,-291.399C1416.74,-283.466 1417.08,-273.458 1417.37,-264.858"/>
<polygon fill="midnightblue" stroke="midnightblue" points="1420.87,-264.77 1417.71,-254.658 1413.87,-264.535 1420.87,-264.77"/>
</g>
<!-- Node18&#45;&gt;Node28 -->
<g id="edge53" class="edge"><title>Node18&#45;&gt;Node28</title>
<path fill="none" stroke="midnightblue" d="M1359.32,-301.912C1182.31,-290.708 643.595,-256.608 507.494,-247.994"/>
<polygon fill="midnightblue" stroke="midnightblue" points="507.539,-244.489 497.338,-247.351 507.097,-251.475 507.539,-244.489"/>
</g>
<!-- Node19&#45;&gt;Node5 -->
<g id="edge26" class="edge"><title>Node19&#45;&gt;Node5</title>
<path fill="none" stroke="midnightblue" d="M1670.56,-235.34C1669.36,-221.266 1664.86,-193.542 1648,-179 1599.52,-137.183 1175.99,-94.7321 1002.57,-78.936"/>
<polygon fill="midnightblue" stroke="midnightblue" points="1002.78,-75.4412 992.506,-78.024 1002.15,-82.4126 1002.78,-75.4412"/>
</g>
<!-- Node19&#45;&gt;Node11 -->
<g id="edge28" class="edge"><title>Node19&#45;&gt;Node11</title>
<path fill="none" stroke="midnightblue" d="M1699.84,-235.444C1730.86,-226.241 1780.33,-211.562 1814.62,-201.388"/>
<polygon fill="midnightblue" stroke="midnightblue" points="1815.71,-204.716 1824.3,-198.516 1813.71,-198.006 1815.71,-204.716"/>
</g>
<!-- Node19&#45;&gt;Node12 -->
<g id="edge27" class="edge"><title>Node19&#45;&gt;Node12</title>
<path fill="none" stroke="midnightblue" d="M1667.23,-235.064C1660.61,-220.592 1645.44,-192.31 1623,-179 1601.1,-166.009 1452.7,-149.514 1362.86,-140.541"/>
<polygon fill="midnightblue" stroke="midnightblue" points="1363.04,-137.041 1352.74,-139.537 1362.35,-144.007 1363.04,-137.041"/>
</g>
<!-- Node19&#45;&gt;Node14 -->
<g id="edge31" class="edge"><title>Node19&#45;&gt;Node14</title>
<path fill="none" stroke="midnightblue" d="M1680.09,-235.498C1705.47,-212.352 1780.28,-148.26 1856,-123 1997.79,-75.7022 2473.55,-72.4191 2602.52,-72.4163"/>
<polygon fill="midnightblue" stroke="midnightblue" points="2602.89,-75.9164 2612.89,-72.4234 2602.89,-68.9164 2602.89,-75.9164"/>
</g>
<!-- Node19&#45;&gt;Node18 -->
<g id="edge33" class="edge"><title>Node19&#45;&gt;Node18</title>
<path fill="none" stroke="midnightblue" d="M1639.41,-254.513C1600.33,-264.122 1533,-279.906 1482.4,-291.37"/>
<polygon fill="midnightblue" stroke="midnightblue" points="1481.5,-287.985 1472.52,-293.602 1483.04,-294.813 1481.5,-287.985"/>
</g>
<!-- Node19&#45;&gt;Node20 -->
<g id="edge29" class="edge"><title>Node19&#45;&gt;Node20</title>
<path fill="none" stroke="midnightblue" d="M1646.12,-235.444C1619.71,-226.359 1577.78,-211.939 1548.26,-201.783"/>
<polygon fill="midnightblue" stroke="midnightblue" points="1549.36,-198.459 1538.76,-198.516 1547.08,-205.079 1549.36,-198.459"/>
</g>
<!-- Node19&#45;&gt;Node21 -->
<g id="edge30" class="edge"><title>Node19&#45;&gt;Node21</title>
<path fill="none" stroke="midnightblue" d="M1733.28,-235.857C1821.8,-224.283 1980.95,-203.474 2050.23,-194.415"/>
<polygon fill="midnightblue" stroke="midnightblue" points="2050.71,-197.883 2060.17,-193.116 2049.8,-190.942 2050.71,-197.883"/>
</g>
<!-- Node19&#45;&gt;Node22 -->
<g id="edge32" class="edge"><title>Node19&#45;&gt;Node22</title>
<path fill="none" stroke="midnightblue" d="M1733.4,-241.078C1935.95,-231.591 2573.17,-201.748 2767.3,-192.655"/>
<polygon fill="midnightblue" stroke="midnightblue" points="2767.47,-196.152 2777.29,-192.187 2767.14,-189.159 2767.47,-196.152"/>
</g>
<!-- Node23&#45;&gt;Node5 -->
<g id="edge35" class="edge"><title>Node23&#45;&gt;Node5</title>
<path fill="none" stroke="midnightblue" d="M1195.16,-235.193C1182.99,-221.877 1158.42,-196.339 1134,-179 1081.86,-141.983 1015.15,-109.764 972.238,-90.7257"/>
<polygon fill="midnightblue" stroke="midnightblue" points="973.492,-87.4534 962.928,-86.6358 970.676,-93.8623 973.492,-87.4534"/>
</g>
<!-- Node23&#45;&gt;Node12 -->
<g id="edge36" class="edge"><title>Node23&#45;&gt;Node12</title>
<path fill="none" stroke="midnightblue" d="M1211.13,-235.176C1219.33,-226.204 1232.28,-211.835 1243,-199 1256.45,-182.901 1271.18,-163.982 1281.33,-150.72"/>
<polygon fill="midnightblue" stroke="midnightblue" points="1284.28,-152.621 1287.56,-142.546 1278.72,-148.378 1284.28,-152.621"/>
</g>
<!-- Node23&#45;&gt;Node15 -->
<g id="edge42" class="edge"><title>Node23&#45;&gt;Node15</title>
<path fill="none" stroke="midnightblue" d="M1221.84,-235.447C1270.23,-213.778 1403.21,-156.097 1519,-123 1600.44,-99.7208 1699.26,-83.8644 1748.68,-76.7527"/>
<polygon fill="midnightblue" stroke="midnightblue" points="1749.32,-80.1966 1758.73,-75.329 1748.34,-73.2657 1749.32,-80.1966"/>
</g>
<!-- Node23&#45;&gt;Node16 -->
<g id="edge40" class="edge"><title>Node23&#45;&gt;Node16</title>
<path fill="none" stroke="midnightblue" d="M1204.43,-235.26C1208.77,-208.651 1221.9,-128.215 1227.92,-91.3382"/>
<polygon fill="midnightblue" stroke="midnightblue" points="1231.45,-91.4527 1229.61,-81.0194 1224.54,-90.3247 1231.45,-91.4527"/>
</g>
<!-- Node23&#45;&gt;Node21 -->
<g id="edge41" class="edge"><title>Node23&#45;&gt;Node21</title>
<path fill="none" stroke="midnightblue" d="M1264.6,-240.224C1436.47,-229.689 1917.34,-200.215 2049.83,-192.095"/>
<polygon fill="midnightblue" stroke="midnightblue" points="2050.39,-195.567 2060.16,-191.461 2049.96,-188.58 2050.39,-195.567"/>
</g>
<!-- Node24 -->
<g id="node24" class="node"><title>Node24</title>
<g id="a_node24"><a xlink:href="serializer_8h.html" target="_top" xlink:title="Serializer extension to support TVM data types Include this file to enable serialization of DLDataTyp...">
<polygon fill="white" stroke="red" points="995,-179.5 995,-198.5 1125,-198.5 1125,-179.5 995,-179.5"/>
<text text-anchor="middle" x="1060" y="-186.5" font-family="Helvetica,sans-Serif" font-size="10.00">tvm/runtime/serializer.h</text>
</a>
</g>
</g>
<!-- Node23&#45;&gt;Node24 -->
<g id="edge37" class="edge"><title>Node23&#45;&gt;Node24</title>
<path fill="none" stroke="midnightblue" d="M1175.25,-235.444C1149.66,-226.517 1112.15,-212.439 1086.85,-202.317"/>
<polygon fill="midnightblue" stroke="midnightblue" points="1088.06,-199.03 1077.47,-198.516 1085.43,-205.517 1088.06,-199.03"/>
</g>
<!-- Node24&#45;&gt;Node5 -->
<g id="edge38" class="edge"><title>Node24&#45;&gt;Node5</title>
<path fill="none" stroke="midnightblue" d="M1050.15,-179.319C1029.59,-161.192 981.61,-118.885 952.578,-93.2879"/>
<polygon fill="midnightblue" stroke="midnightblue" points="954.746,-90.5334 944.93,-86.5453 950.116,-95.784 954.746,-90.5334"/>
</g>
<!-- Node24&#45;&gt;Node23 -->
<g id="edge39" class="edge"><title>Node24&#45;&gt;Node23</title>
<path fill="none" stroke="midnightblue" d="M1087.63,-198.516C1113.19,-207.427 1150.7,-221.504 1176.04,-231.638"/>
<polygon fill="midnightblue" stroke="midnightblue" points="1174.85,-234.931 1185.43,-235.444 1177.48,-228.444 1174.85,-234.931"/>
</g>
<!-- Node25&#45;&gt;Node5 -->
<g id="edge44" class="edge"><title>Node25&#45;&gt;Node5</title>
<path fill="none" stroke="midnightblue" d="M391.209,-235.439C446.09,-214.475 592.738,-159.607 718,-123 763.257,-109.774 814.705,-97.4076 855.468,-88.2229"/>
<polygon fill="midnightblue" stroke="midnightblue" points="856.33,-91.6167 865.324,-86.0172 854.801,-84.7857 856.33,-91.6167"/>
</g>
<!-- Node25&#45;&gt;Node10 -->
<g id="edge45" class="edge"><title>Node25&#45;&gt;Node10</title>
<path fill="none" stroke="midnightblue" d="M371.257,-235.407C377.568,-213.132 397.575,-153.162 437,-123 479.394,-90.5662 540.22,-78.7812 583.644,-74.5951"/>
<polygon fill="midnightblue" stroke="midnightblue" points="584.07,-78.0714 593.734,-73.7281 583.471,-71.0972 584.07,-78.0714"/>
</g>
<!-- Node25&#45;&gt;Node13 -->
<g id="edge46" class="edge"><title>Node25&#45;&gt;Node13</title>
<path fill="none" stroke="midnightblue" d="M354.591,-235.26C330.085,-219.689 280.209,-184.824 252,-143 241.399,-127.283 235.069,-106.443 231.594,-91.5037"/>
<polygon fill="midnightblue" stroke="midnightblue" points="234.955,-90.4776 229.471,-81.4127 228.105,-91.9192 234.955,-90.4776"/>
</g>
<!-- Node25&#45;&gt;Node14 -->
<g id="edge47" class="edge"><title>Node25&#45;&gt;Node14</title>
<path fill="none" stroke="midnightblue" d="M437.411,-235.773C440.311,-235.498 443.184,-235.238 446,-235 751.108,-209.213 828.838,-224.141 1134,-199 1434.88,-174.212 1508.24,-149.109 1809,-123 2117.55,-96.2151 2492.17,-78.7309 2602.79,-73.8766"/>
<polygon fill="midnightblue" stroke="midnightblue" points="2603.11,-77.3659 2612.95,-73.4338 2602.81,-70.3725 2603.11,-77.3659"/>
</g>
<!-- Node31&#45;&gt;Node5 -->
<g id="edge66" class="edge"><title>Node31&#45;&gt;Node5</title>
<path fill="none" stroke="midnightblue" d="M1325.37,-545.71C1258.81,-543.587 1148.91,-534.646 1061,-501 878.297,-431.075 787.873,-427.711 696,-255 652.535,-173.291 785.576,-116.217 868.265,-89.561"/>
<polygon fill="midnightblue" stroke="midnightblue" points="869.355,-92.8874 877.836,-86.5382 867.246,-86.2124 869.355,-92.8874"/>
</g>
<!-- Node31&#45;&gt;Node11 -->
<g id="edge68" class="edge"><title>Node31&#45;&gt;Node11</title>
<path fill="none" stroke="midnightblue" d="M1396.57,-537.2C1458.78,-489.878 1753.69,-265.541 1833.21,-205.055"/>
<polygon fill="midnightblue" stroke="midnightblue" points="1835.58,-207.651 1841.42,-198.811 1831.34,-202.08 1835.58,-207.651"/>
</g>
<!-- Node31&#45;&gt;Node12 -->
<g id="edge67" class="edge"><title>Node31&#45;&gt;Node12</title>
<path fill="none" stroke="midnightblue" d="M1325.41,-544.759C1247.7,-541.888 1117.6,-532.391 1083,-501 1057.22,-477.604 1064,-459.817 1064,-425 1064,-425 1064,-425 1064,-367 1064,-331.578 1064.7,-316.387 1040,-291 1003.39,-253.374 917.289,-284.05 936,-235 947.892,-203.825 956.615,-194.806 986,-179 1026.19,-157.379 1147.44,-144.698 1225.28,-138.573"/>
<polygon fill="midnightblue" stroke="midnightblue" points="1225.79,-142.045 1235.49,-137.788 1225.25,-135.065 1225.79,-142.045"/>
</g>
<!-- Node31&#45;&gt;Node13 -->
<g id="edge100" class="edge"><title>Node31&#45;&gt;Node13</title>
<path fill="none" stroke="midnightblue" d="M1325.32,-545.73C1199.02,-544.44 908.837,-537.466 818,-501 797.773,-492.88 798.617,-481.335 780,-470 775.59,-467.315 443.717,-324.098 439,-322 373.399,-292.817 343.315,-305.218 292,-255 245.445,-209.441 232.696,-128.123 229.251,-91.4096"/>
<polygon fill="midnightblue" stroke="midnightblue" points="232.718,-90.8467 228.429,-81.1587 225.74,-91.4067 232.718,-90.8467"/>
</g>
<!-- Node31&#45;&gt;Node14 -->
<g id="edge99" class="edge"><title>Node31&#45;&gt;Node14</title>
<path fill="none" stroke="midnightblue" d="M1444.58,-543.115C1640.48,-532.61 2261.22,-490.916 2421,-378 2530.65,-300.508 2498.26,-227.151 2583,-123 2593.28,-110.368 2606.45,-97.6028 2616.97,-88.0669"/>
<polygon fill="midnightblue" stroke="midnightblue" points="2619.57,-90.4337 2624.73,-81.1759 2614.93,-85.2002 2619.57,-90.4337"/>
</g>
<!-- Node31&#45;&gt;Node18 -->
<g id="edge69" class="edge"><title>Node31&#45;&gt;Node18</title>
<path fill="none" stroke="midnightblue" d="M1386.14,-537.229C1390.48,-503.805 1406.1,-383.692 1412.85,-331.734"/>
<polygon fill="midnightblue" stroke="midnightblue" points="1416.33,-332.105 1414.15,-321.737 1409.39,-331.202 1416.33,-332.105"/>
</g>
<!-- Node31&#45;&gt;Node21 -->
<g id="edge98" class="edge"><title>Node31&#45;&gt;Node21</title>
<path fill="none" stroke="midnightblue" d="M1406.24,-537.392C1442.34,-522.869 1518.05,-492.849 1583,-470 1786.39,-398.451 1894.28,-476.184 2045,-322 2075.39,-290.911 2082.28,-237.342 2083.73,-208.947"/>
<polygon fill="midnightblue" stroke="midnightblue" points="2087.23,-208.878 2084.06,-198.769 2080.23,-208.649 2087.23,-208.878"/>
</g>
<!-- Node31&#45;&gt;Node23 -->
<g id="edge70" class="edge"><title>Node31&#45;&gt;Node23</title>
<path fill="none" stroke="midnightblue" d="M1379.75,-537.345C1354.79,-496.2 1247.91,-320.029 1213.63,-263.52"/>
<polygon fill="midnightblue" stroke="midnightblue" points="1216.45,-261.424 1208.27,-254.69 1210.47,-265.055 1216.45,-261.424"/>
</g>
<!-- Node31&#45;&gt;Node25 -->
<g id="edge71" class="edge"><title>Node31&#45;&gt;Node25</title>
<path fill="none" stroke="midnightblue" d="M1325.29,-546.767C1232.65,-546.56 1049.39,-540.54 900,-501 825.488,-481.279 654.668,-388.773 584,-358 546.01,-341.457 535.047,-340.559 498,-322 459.087,-302.506 415.892,-276 390.663,-259.995"/>
<polygon fill="midnightblue" stroke="midnightblue" points="392.534,-257.037 382.222,-254.605 388.767,-262.937 392.534,-257.037"/>
</g>
<!-- Node31&#45;&gt;Node32 -->
<g id="edge72" class="edge"><title>Node31&#45;&gt;Node32</title>
<path fill="none" stroke="midnightblue" d="M1422.68,-537.475C1464.36,-528.046 1532.27,-512.681 1582.66,-501.282"/>
<polygon fill="midnightblue" stroke="midnightblue" points="1583.51,-504.678 1592.49,-499.058 1581.97,-497.851 1583.51,-504.678"/>
</g>
<!-- Node31&#45;&gt;Node35 -->
<g id="edge92" class="edge"><title>Node31&#45;&gt;Node35</title>
<path fill="none" stroke="midnightblue" d="M1351.04,-537.475C1315.35,-528.513 1258.29,-514.188 1213.74,-503.003"/>
<polygon fill="midnightblue" stroke="midnightblue" points="1214.41,-499.563 1203.86,-500.523 1212.7,-506.353 1214.41,-499.563"/>
</g>
<!-- Node32&#45;&gt;Node14 -->
<g id="edge91" class="edge"><title>Node32&#45;&gt;Node14</title>
<path fill="none" stroke="midnightblue" d="M1703.64,-481.47C1813.42,-475.039 2054.09,-458.573 2133,-434 2232.13,-403.131 2257.49,-387.556 2338,-322 2427.98,-248.733 2412.65,-190.539 2507,-123 2536.28,-102.039 2575.46,-88.2537 2602.73,-80.4609"/>
<polygon fill="midnightblue" stroke="midnightblue" points="2603.83,-83.7872 2612.55,-77.7652 2601.98,-77.0368 2603.83,-83.7872"/>
</g>
<!-- Node32&#45;&gt;Node25 -->
<g id="edge73" class="edge"><title>Node32&#45;&gt;Node25</title>
<path fill="none" stroke="midnightblue" d="M1592.22,-474.099C1381.47,-434.8 635.066,-295.614 424.609,-256.37"/>
<polygon fill="midnightblue" stroke="midnightblue" points="425.177,-252.915 414.705,-254.523 423.894,-259.797 425.177,-252.915"/>
</g>
<!-- Node32&#45;&gt;Node33 -->
<g id="edge74" class="edge"><title>Node32&#45;&gt;Node33</title>
<path fill="none" stroke="midnightblue" d="M1595.71,-470.471C1434.51,-427.225 947.313,-296.52 800.995,-257.266"/>
<polygon fill="midnightblue" stroke="midnightblue" points="801.624,-253.811 791.059,-254.601 799.81,-260.572 801.624,-253.811"/>
</g>
<!-- Node32&#45;&gt;Node34 -->
<g id="edge80" class="edge"><title>Node32&#45;&gt;Node34</title>
<path fill="none" stroke="midnightblue" d="M1703.81,-476.537C1779.22,-465.776 1913.64,-446.596 1995.52,-434.914"/>
<polygon fill="midnightblue" stroke="midnightblue" points="1996.08,-438.37 2005.48,-433.492 1995.09,-431.44 1996.08,-438.37"/>
</g>
<!-- Node33&#45;&gt;Node10 -->
<g id="edge75" class="edge"><title>Node33&#45;&gt;Node10</title>
<path fill="none" stroke="midnightblue" d="M705.232,-238.333C656.278,-231.933 589.231,-219.626 573,-199 544.74,-163.087 591.139,-112.725 618.765,-87.7645"/>
<polygon fill="midnightblue" stroke="midnightblue" points="621.094,-90.3772 626.308,-81.1537 616.48,-85.113 621.094,-90.3772"/>
</g>
<!-- Node33&#45;&gt;Node12 -->
<g id="edge76" class="edge"><title>Node33&#45;&gt;Node12</title>
<path fill="none" stroke="midnightblue" d="M770.673,-235.463C791.073,-221.045 835.044,-192.157 877,-179 1023.68,-133.002 1068.26,-160.406 1221,-143 1222.47,-142.833 1223.95,-142.662 1225.45,-142.489"/>
<polygon fill="midnightblue" stroke="midnightblue" points="1225.92,-145.958 1235.44,-141.316 1225.1,-139.006 1225.92,-145.958"/>
</g>
<!-- Node33&#45;&gt;Node13 -->
<g id="edge78" class="edge"><title>Node33&#45;&gt;Node13</title>
<path fill="none" stroke="midnightblue" d="M718.264,-235.442C678.121,-226.844 615.115,-212.908 561,-199 539.167,-193.389 386.968,-151.277 366,-143 324.14,-126.475 278.063,-101.445 251.154,-86.0799"/>
<polygon fill="midnightblue" stroke="midnightblue" points="252.885,-83.038 242.473,-81.078 249.39,-89.1032 252.885,-83.038"/>
</g>
<!-- Node33&#45;&gt;Node15 -->
<g id="edge79" class="edge"><title>Node33&#45;&gt;Node15</title>
<path fill="none" stroke="midnightblue" d="M765.592,-235.052C776.816,-220.563 801.148,-192.257 829,-179 997.665,-98.7171 1603.81,-77.301 1748.72,-73.2799"/>
<polygon fill="midnightblue" stroke="midnightblue" points="1748.82,-76.7787 1758.72,-73.0101 1748.63,-69.7812 1748.82,-76.7787"/>
</g>
<!-- Node33&#45;&gt;Node21 -->
<g id="edge77" class="edge"><title>Node33&#45;&gt;Node21</title>
<path fill="none" stroke="midnightblue" d="M812.825,-241.061C847.896,-239.196 894.655,-236.804 936,-235 1375.43,-215.831 1485.63,-219.43 1925,-199 1968.18,-196.992 2017.91,-194.081 2050.1,-192.118"/>
<polygon fill="midnightblue" stroke="midnightblue" points="2050.54,-195.597 2060.3,-191.491 2050.11,-188.61 2050.54,-195.597"/>
</g>
<!-- Node34&#45;&gt;Node9 -->
<g id="edge84" class="edge"><title>Node34&#45;&gt;Node9</title>
<path fill="none" stroke="midnightblue" d="M2017.31,-414.444C1964.14,-404.905 1878.18,-389.483 1821.37,-379.293"/>
<polygon fill="midnightblue" stroke="midnightblue" points="1821.93,-375.837 1811.47,-377.516 1820.7,-382.727 1821.93,-375.837"/>
</g>
<!-- Node34&#45;&gt;Node11 -->
<g id="edge82" class="edge"><title>Node34&#45;&gt;Node11</title>
<path fill="none" stroke="midnightblue" d="M2066.18,-414.313C2068.76,-391.669 2072.68,-329.903 2045,-291 2010.18,-242.071 1944.26,-214.912 1899.48,-201.384"/>
<polygon fill="midnightblue" stroke="midnightblue" points="1900.29,-197.974 1889.71,-198.546 1898.33,-204.696 1900.29,-197.974"/>
</g>
<!-- Node34&#45;&gt;Node12 -->
<g id="edge81" class="edge"><title>Node34&#45;&gt;Node12</title>
<path fill="none" stroke="midnightblue" d="M2005.49,-420.427C1914.04,-415.714 1743.74,-403.72 1689,-378 1656.28,-362.627 1652.59,-350.229 1630,-322 1608.33,-294.921 1606.81,-285.332 1590,-255 1571.59,-221.795 1581.56,-201.521 1551,-179 1543.29,-173.322 1433.7,-155.52 1360.14,-144.083"/>
<polygon fill="midnightblue" stroke="midnightblue" points="1360.43,-140.586 1350.01,-142.513 1359.36,-147.503 1360.43,-140.586"/>
</g>
<!-- Node34&#45;&gt;Node13 -->
<g id="edge85" class="edge"><title>Node34&#45;&gt;Node13</title>
<path fill="none" stroke="midnightblue" d="M2005.21,-420.035C1812.95,-409.577 1194.13,-368.707 696,-255 602.246,-233.599 578.957,-227.136 487,-199 460.926,-191.022 454.859,-187.651 429,-179 379.816,-162.546 363.783,-167.365 318,-143 310.276,-138.889 270.488,-106.989 246.475,-87.5354"/>
<polygon fill="midnightblue" stroke="midnightblue" points="248.4,-84.5905 238.43,-81.0059 243.989,-90.0255 248.4,-84.5905"/>
</g>
<!-- Node34&#45;&gt;Node14 -->
<g id="edge90" class="edge"><title>Node34&#45;&gt;Node14</title>
<path fill="none" stroke="midnightblue" d="M2087.35,-414.394C2143.67,-392.604 2288.26,-335.995 2307,-322 2398.38,-253.759 2374.33,-186.586 2469,-123 2510.25,-95.2983 2567.25,-82.3294 2602.59,-76.6082"/>
<polygon fill="midnightblue" stroke="midnightblue" points="2603.45,-80.0168 2612.82,-75.0571 2602.4,-73.096 2603.45,-80.0168"/>
</g>
<!-- Node34&#45;&gt;Node15 -->
<g id="edge89" class="edge"><title>Node34&#45;&gt;Node15</title>
<path fill="none" stroke="midnightblue" d="M2077.09,-414.195C2087.76,-405.886 2103.13,-392.558 2113,-378 2128.01,-355.87 2130.02,-348.274 2135,-322 2146.93,-259.006 2161.43,-224.244 2116,-179 2030.37,-93.7123 1876.87,-76.6334 1811.2,-73.2814"/>
<polygon fill="midnightblue" stroke="midnightblue" points="1811.22,-69.779 1801.07,-72.8399 1810.91,-76.7723 1811.22,-69.779"/>
</g>
<!-- Node34&#45;&gt;Node18 -->
<g id="edge83" class="edge"><title>Node34&#45;&gt;Node18</title>
<path fill="none" stroke="midnightblue" d="M2005.23,-419.73C1925.11,-414.597 1778.75,-402.583 1656,-378 1588.87,-364.557 1513.41,-340.938 1465.34,-324.772"/>
<polygon fill="midnightblue" stroke="midnightblue" points="1466.4,-321.435 1455.8,-321.542 1464.15,-328.065 1466.4,-321.435"/>
</g>
<!-- Node34&#45;&gt;Node21 -->
<g id="edge86" class="edge"><title>Node34&#45;&gt;Node21</title>
<path fill="none" stroke="midnightblue" d="M2071.27,-414.381C2083.03,-397.614 2108.04,-358.993 2117,-322 2126.11,-284.421 2129.03,-271.748 2117,-235 2113.51,-224.34 2106.43,-214.117 2099.71,-206.117"/>
<polygon fill="midnightblue" stroke="midnightblue" points="2102.3,-203.763 2093.02,-198.66 2097.1,-208.439 2102.3,-203.763"/>
</g>
<!-- Node34&#45;&gt;Node22 -->
<g id="edge88" class="edge"><title>Node34&#45;&gt;Node22</title>
<path fill="none" stroke="midnightblue" d="M2098.19,-414.445C2131.78,-405.682 2185.16,-391.472 2231,-378 2443.98,-315.401 2697.24,-232.128 2788.79,-201.735"/>
<polygon fill="midnightblue" stroke="midnightblue" points="2790.01,-205.018 2798.4,-198.544 2787.81,-198.376 2790.01,-205.018"/>
</g>
<!-- Node34&#45;&gt;Node30 -->
<g id="edge87" class="edge"><title>Node34&#45;&gt;Node30</title>
<path fill="none" stroke="midnightblue" d="M2059.96,-414.319C2049,-395.422 2022.8,-350.248 2008.22,-325.121"/>
<polygon fill="midnightblue" stroke="midnightblue" points="2011.14,-323.176 2003.09,-316.282 2005.08,-326.688 2011.14,-323.176"/>
</g>
<!-- Node35&#45;&gt;Node14 -->
<g id="edge96" class="edge"><title>Node35&#45;&gt;Node14</title>
<path fill="none" stroke="midnightblue" d="M1203.92,-478.049C1321.99,-463.955 1605.09,-427.655 1839,-378 1931.81,-358.298 1956.41,-355.96 2045,-322 2228.55,-251.638 2256.03,-192.257 2440,-123 2495.76,-102.008 2563.68,-86.5893 2602.87,-78.6237"/>
<polygon fill="midnightblue" stroke="midnightblue" points="2603.77,-82.0127 2612.89,-76.6222 2602.4,-75.1482 2603.77,-82.0127"/>
</g>
<!-- Node35&#45;&gt;Node25 -->
<g id="edge93" class="edge"><title>Node35&#45;&gt;Node25</title>
<path fill="none" stroke="midnightblue" d="M1092.31,-472.614C1049.35,-463.114 988.588,-448.952 936,-434 830.062,-403.88 509.607,-294.326 403.521,-257.882"/>
<polygon fill="midnightblue" stroke="midnightblue" points="404.533,-254.529 393.939,-254.588 402.258,-261.149 404.533,-254.529"/>
</g>
<!-- Node35&#45;&gt;Node26 -->
<g id="edge97" class="edge"><title>Node35&#45;&gt;Node26</title>
<path fill="none" stroke="midnightblue" d="M1146.65,-470.396C1142.62,-435.55 1127.64,-344.354 1078,-291 1062.16,-273.971 1038.68,-262.98 1018.35,-256.128"/>
<polygon fill="midnightblue" stroke="midnightblue" points="1019.26,-252.745 1008.67,-253.088 1017.16,-259.423 1019.26,-252.745"/>
</g>
<!-- Node35&#45;&gt;Node33 -->
<g id="edge94" class="edge"><title>Node35&#45;&gt;Node33</title>
<path fill="none" stroke="midnightblue" d="M1126.38,-470.44C1058.46,-426.261 853.577,-293.036 850,-291 829.357,-279.247 805.227,-267.397 787.004,-258.809"/>
<polygon fill="midnightblue" stroke="midnightblue" points="788.347,-255.573 777.805,-254.514 785.385,-261.916 788.347,-255.573"/>
</g>
<!-- Node35&#45;&gt;Node34 -->
<g id="edge95" class="edge"><title>Node35&#45;&gt;Node34</title>
<path fill="none" stroke="midnightblue" d="M1203.64,-480.89C1362.77,-470.565 1819.56,-440.926 1995.11,-429.535"/>
<polygon fill="midnightblue" stroke="midnightblue" points="1995.51,-433.016 2005.26,-428.876 1995.06,-426.031 1995.51,-433.016"/>
</g>
<!-- Node36&#45;&gt;Node33 -->
<g id="edge102" class="edge"><title>Node36&#45;&gt;Node33</title>
<path fill="none" stroke="midnightblue" d="M856.115,-537.345C842.457,-496.37 784.162,-321.486 765.076,-264.228"/>
<polygon fill="midnightblue" stroke="midnightblue" points="768.379,-263.07 761.897,-254.69 761.739,-265.284 768.379,-263.07"/>
</g>
<!-- Node36&#45;&gt;Node37 -->
<g id="edge103" class="edge"><title>Node36&#45;&gt;Node37</title>
<path fill="none" stroke="midnightblue" d="M842.237,-537.475C822.775,-527.578 790.455,-511.142 767.789,-499.615"/>
<polygon fill="midnightblue" stroke="midnightblue" points="769.232,-496.422 758.732,-495.009 766.059,-502.662 769.232,-496.422"/>
</g>
<!-- Node38&#45;&gt;Node4 -->
<g id="edge117" class="edge"><title>Node38&#45;&gt;Node4</title>
<path fill="none" stroke="midnightblue" d="M1980.55,-761.309C1932.27,-734.136 1783.88,-650.636 1725.22,-617.63"/>
<polygon fill="midnightblue" stroke="midnightblue" points="1726.72,-614.459 1716.29,-612.605 1723.29,-620.559 1726.72,-614.459"/>
</g>
<!-- Node38&#45;&gt;Node12 -->
<g id="edge116" class="edge"><title>Node38&#45;&gt;Node12</title>
<path fill="none" stroke="midnightblue" d="M1997.91,-761.439C2002.06,-740.702 2010.01,-686.718 1990,-649 1927.97,-532.078 1870.86,-528.23 1752,-470 1697.39,-443.247 1671.5,-466.338 1620,-434 1520.75,-371.677 1535.16,-312.216 1447,-235 1405.77,-198.891 1350.79,-165.664 1319.2,-147.778"/>
<polygon fill="midnightblue" stroke="midnightblue" points="1320.63,-144.565 1310.19,-142.733 1317.21,-150.672 1320.63,-144.565"/>
</g>
<!-- Node38&#45;&gt;Node13 -->
<g id="edge133" class="edge"><title>Node38&#45;&gt;Node13</title>
<path fill="none" stroke="midnightblue" d="M1957.22,-769.94C1784.06,-769.445 1080.5,-764.967 864,-725 787.431,-710.865 767.906,-703.289 698,-669 447.884,-546.319 307.615,-567.532 176,-322 133.528,-242.768 191.225,-132.146 216.846,-89.866"/>
<polygon fill="midnightblue" stroke="midnightblue" points="219.878,-91.6173 222.186,-81.277 213.934,-87.921 219.878,-91.6173"/>
</g>
<!-- Node38&#45;&gt;Node14 -->
<g id="edge130" class="edge"><title>Node38&#45;&gt;Node14</title>
<path fill="none" stroke="midnightblue" d="M2026.65,-761.451C2124.62,-732.582 2433.34,-629.416 2598,-434 2673.96,-343.851 2673.1,-296.867 2671,-179 2670.56,-154.099 2676.7,-146.686 2669,-123 2664.99,-110.66 2657.01,-98.5413 2649.78,-89.2702"/>
<polygon fill="midnightblue" stroke="midnightblue" points="2652.31,-86.8289 2643.25,-81.3394 2646.91,-91.2817 2652.31,-86.8289"/>
</g>
<!-- Node38&#45;&gt;Node28 -->
<g id="edge132" class="edge"><title>Node38&#45;&gt;Node28</title>
<path fill="none" stroke="midnightblue" d="M1957.44,-770.379C1771.76,-771.678 969.649,-771.188 746,-669 681.396,-639.482 669.335,-617.424 632,-557 599.345,-504.151 583.896,-340.226 546,-291 535.545,-277.42 519.749,-266.763 505.807,-259.236"/>
<polygon fill="midnightblue" stroke="midnightblue" points="507.04,-255.936 496.539,-254.527 503.869,-262.177 507.04,-255.936"/>
</g>
<!-- Node38&#45;&gt;Node34 -->
<g id="edge118" class="edge"><title>Node38&#45;&gt;Node34</title>
<path fill="none" stroke="midnightblue" d="M2020.79,-761.409C2057.75,-746.835 2123,-713.526 2123,-660 2123,-660 2123,-660 2123,-546 2123,-505.46 2096.2,-464.123 2079.03,-441.805"/>
<polygon fill="midnightblue" stroke="midnightblue" points="2081.55,-439.352 2072.58,-433.716 2076.08,-443.716 2081.55,-439.352"/>
</g>
<!-- Node39 -->
<g id="node39" class="node"><title>Node39</title>
<g id="a_node39"><a xlink:href="span_8h.html" target="_top" xlink:title="Span information for debugging purposes. ">
<polygon fill="white" stroke="black" points="1901,-649.5 1901,-668.5 1981,-668.5 1981,-649.5 1901,-649.5"/>
<text text-anchor="middle" x="1941" y="-656.5" font-family="Helvetica,sans-Serif" font-size="10.00">tvm/ir/span.h</text>
</a>
</g>
</g>
<!-- Node38&#45;&gt;Node39 -->
<g id="edge119" class="edge"><title>Node38&#45;&gt;Node39</title>
<path fill="none" stroke="midnightblue" d="M1991.68,-761.368C1982.69,-743.376 1961.78,-701.55 1949.81,-677.627"/>
<polygon fill="midnightblue" stroke="midnightblue" points="1952.9,-675.97 1945.3,-668.591 1946.64,-679.101 1952.9,-675.97"/>
</g>
<!-- Node40 -->
<g id="node40" class="node"><title>Node40</title>
<g id="a_node40"><a xlink:href="ir_2type_8h.html" target="_top" xlink:title="IR/AST nodes for the unified type system in TVM. ">
<polygon fill="white" stroke="black" points="1706.5,-705.5 1706.5,-724.5 1783.5,-724.5 1783.5,-705.5 1706.5,-705.5"/>
<text text-anchor="middle" x="1745" y="-712.5" font-family="Helvetica,sans-Serif" font-size="10.00">tvm/ir/type.h</text>
</a>
</g>
</g>
<!-- Node38&#45;&gt;Node40 -->
<g id="edge123" class="edge"><title>Node38&#45;&gt;Node40</title>
<path fill="none" stroke="midnightblue" d="M1957.33,-761.681C1913.3,-752.207 1841.29,-736.715 1793.52,-726.438"/>
<polygon fill="midnightblue" stroke="midnightblue" points="1794.23,-723.01 1783.71,-724.329 1792.75,-729.854 1794.23,-723.01"/>
</g>
<!-- Node38&#45;&gt;Node41 -->
<g id="edge131" class="edge"><title>Node38&#45;&gt;Node41</title>
<path fill="none" stroke="midnightblue" d="M1957.25,-768.844C1792.58,-763.914 1134.6,-744.028 594,-725 526.098,-722.61 447.172,-719.524 400.247,-717.657"/>
<polygon fill="midnightblue" stroke="midnightblue" points="400.3,-714.156 390.168,-717.255 400.021,-721.151 400.3,-714.156"/>
</g>
<!-- Node39&#45;&gt;Node4 -->
<g id="edge121" class="edge"><title>Node39&#45;&gt;Node4</title>
<path fill="none" stroke="midnightblue" d="M1902.97,-649.444C1861.19,-640.043 1794.02,-624.929 1748.73,-614.739"/>
<polygon fill="midnightblue" stroke="midnightblue" points="1749.38,-611.297 1738.85,-612.516 1747.84,-618.126 1749.38,-611.297"/>
</g>
<!-- Node39&#45;&gt;Node12 -->
<g id="edge120" class="edge"><title>Node39&#45;&gt;Node12</title>
<path fill="none" stroke="midnightblue" d="M1933.24,-649.335C1906.02,-619.498 1811.17,-520.105 1712,-470 1653.89,-440.639 1630.94,-456.911 1570,-434 1467.3,-395.391 1420.24,-406.291 1350,-322 1307.7,-271.242 1297.35,-189.447 1294.82,-152.806"/>
<polygon fill="midnightblue" stroke="midnightblue" points="1298.3,-152.38 1294.24,-142.593 1291.31,-152.775 1298.3,-152.38"/>
</g>
<!-- Node39&#45;&gt;Node14 -->
<g id="edge122" class="edge"><title>Node39&#45;&gt;Node14</title>
<path fill="none" stroke="midnightblue" d="M1955.77,-649.405C1979.45,-635.912 2027.64,-609.593 2071,-593 2276.96,-514.193 2371.7,-575.297 2541,-434 2647.64,-345 2641.64,-151.858 2636.83,-91.1516"/>
<polygon fill="midnightblue" stroke="midnightblue" points="2640.31,-90.7818 2635.95,-81.1278 2633.34,-91.3966 2640.31,-90.7818"/>
</g>
<!-- Node40&#45;&gt;Node4 -->
<g id="edge126" class="edge"><title>Node40&#45;&gt;Node4</title>
<path fill="none" stroke="midnightblue" d="M1741.55,-705.368C1734.38,-687.456 1717.77,-645.923 1708.18,-621.948"/>
<polygon fill="midnightblue" stroke="midnightblue" points="1711.4,-620.576 1704.44,-612.591 1704.9,-623.176 1711.4,-620.576"/>
</g>
<!-- Node40&#45;&gt;Node12 -->
<g id="edge124" class="edge"><title>Node40&#45;&gt;Node12</title>
<path fill="none" stroke="midnightblue" d="M1706.24,-710.978C1543.9,-697.859 918.82,-642.621 743,-557 710.205,-541.03 703.249,-531.341 683,-501 617.295,-402.548 612.533,-318.924 696,-235 741.228,-189.524 766.817,-194.712 829,-179 966.615,-144.228 1133.39,-135.967 1225.14,-134.221"/>
<polygon fill="midnightblue" stroke="midnightblue" points="1225.47,-137.716 1235.41,-134.047 1225.35,-130.717 1225.47,-137.716"/>
</g>
<!-- Node40&#45;&gt;Node14 -->
<g id="edge129" class="edge"><title>Node40&#45;&gt;Node14</title>
<path fill="none" stroke="midnightblue" d="M1783.58,-708.837C1896.76,-692.474 2235.37,-634.74 2481,-501 2596.62,-438.046 2625.5,-385.043 2646,-255 2655.15,-196.968 2663.01,-180.89 2653,-123 2651.09,-111.938 2646.98,-100.09 2643.17,-90.6524"/>
<polygon fill="midnightblue" stroke="midnightblue" points="2646.28,-89.0133 2639.13,-81.191 2639.84,-91.7622 2646.28,-89.0133"/>
</g>
<!-- Node40&#45;&gt;Node25 -->
<g id="edge125" class="edge"><title>Node40&#45;&gt;Node25</title>
<path fill="none" stroke="midnightblue" d="M1706.37,-713.586C1533.77,-711.559 837.657,-701.425 746,-669 541.791,-596.759 409.958,-335.839 377.077,-264.269"/>
<polygon fill="midnightblue" stroke="midnightblue" points="380.104,-262.468 372.799,-254.794 373.724,-265.349 380.104,-262.468"/>
</g>
<!-- Node40&#45;&gt;Node34 -->
<g id="edge127" class="edge"><title>Node40&#45;&gt;Node34</title>
<path fill="none" stroke="midnightblue" d="M1754.58,-705.351C1799.48,-664.8 1989.4,-493.272 2047.83,-440.509"/>
<polygon fill="midnightblue" stroke="midnightblue" points="2050.38,-442.915 2055.46,-433.615 2045.69,-437.72 2050.38,-442.915"/>
</g>
<!-- Node40&#45;&gt;Node39 -->
<g id="edge128" class="edge"><title>Node40&#45;&gt;Node39</title>
<path fill="none" stroke="midnightblue" d="M1776.06,-705.444C1809.6,-696.201 1863.2,-681.436 1900.14,-671.257"/>
<polygon fill="midnightblue" stroke="midnightblue" points="1901.38,-674.547 1910.09,-668.516 1899.52,-667.798 1901.38,-674.547"/>
</g>
<!-- Node42&#45;&gt;Node4 -->
<g id="edge135" class="edge"><title>Node42&#45;&gt;Node4</title>
<path fill="none" stroke="midnightblue" d="M1944.92,-825.493C1881.63,-822.377 1754.1,-805.815 1697,-725 1675.35,-694.359 1685.84,-647.62 1694.17,-622.129"/>
<polygon fill="midnightblue" stroke="midnightblue" points="1697.5,-623.209 1697.51,-612.615 1690.89,-620.891 1697.5,-623.209"/>
</g>
<!-- Node42&#45;&gt;Node14 -->
<g id="edge138" class="edge"><title>Node42&#45;&gt;Node14</title>
<path fill="none" stroke="midnightblue" d="M2019.21,-818.855C2177.53,-787.419 2787,-655.431 2787,-486.5 2787,-486.5 2787,-486.5 2787,-423 2787,-307.103 2931.91,-282.116 2879,-179 2838.96,-100.961 2724.2,-80.0979 2667.5,-74.5264"/>
<polygon fill="midnightblue" stroke="midnightblue" points="2667.57,-71.0187 2657.3,-73.6285 2666.96,-77.9918 2667.57,-71.0187"/>
</g>
<!-- Node42&#45;&gt;Node25 -->
<g id="edge136" class="edge"><title>Node42&#45;&gt;Node25</title>
<path fill="none" stroke="midnightblue" d="M1944.88,-824.786C1736.88,-817.79 720.911,-780.955 594,-725 452.898,-662.788 342,-640.708 342,-486.5 342,-486.5 342,-486.5 342,-367 342,-329.838 354.281,-287.764 362.278,-264.308"/>
<polygon fill="midnightblue" stroke="midnightblue" points="365.656,-265.252 365.689,-254.657 359.057,-262.919 365.656,-265.252"/>
</g>
<!-- Node42&#45;&gt;Node38 -->
<g id="edge137" class="edge"><title>Node42&#45;&gt;Node38</title>
<path fill="none" stroke="midnightblue" d="M1984.31,-817.083C1986.17,-809.927 1988.84,-799.635 1991.15,-790.691"/>
<polygon fill="midnightblue" stroke="midnightblue" points="1994.61,-791.309 1993.73,-780.751 1987.83,-789.553 1994.61,-791.309"/>
</g>
<!-- Node43&#45;&gt;Node14 -->
<g id="edge143" class="edge"><title>Node43&#45;&gt;Node14</title>
<path fill="none" stroke="midnightblue" d="M2296.96,-873.495C2424.34,-829.984 2977,-619.657 2977,-246 2977,-246 2977,-246 2977,-188 2977,-123.018 2752.57,-87.5227 2667.32,-76.3841"/>
<polygon fill="midnightblue" stroke="midnightblue" points="2667.54,-72.8834 2657.18,-75.0881 2666.65,-79.827 2667.54,-72.8834"/>
</g>
<!-- Node43&#45;&gt;Node34 -->
<g id="edge140" class="edge"><title>Node43&#45;&gt;Node34</title>
<path fill="none" stroke="midnightblue" d="M2279.6,-873.465C2296.19,-856.039 2331,-814.419 2331,-772 2331,-772 2331,-772 2331,-602 2331,-501.799 2198.56,-454.877 2120.58,-435.935"/>
<polygon fill="midnightblue" stroke="midnightblue" points="2120.96,-432.429 2110.42,-433.551 2119.36,-439.244 2120.96,-432.429"/>
</g>
<!-- Node43&#45;&gt;Node38 -->
<g id="edge141" class="edge"><title>Node43&#45;&gt;Node38</title>
<path fill="none" stroke="midnightblue" d="M2249.42,-873.368C2200.93,-853.97 2083.17,-806.87 2026.92,-784.367"/>
<polygon fill="midnightblue" stroke="midnightblue" points="2028.06,-781.056 2017.48,-780.591 2025.46,-787.555 2028.06,-781.056"/>
</g>
<!-- Node43&#45;&gt;Node42 -->
<g id="edge142" class="edge"><title>Node43&#45;&gt;Node42</title>
<path fill="none" stroke="midnightblue" d="M2227.42,-873.857C2174.09,-863.892 2084.13,-847.083 2029.2,-836.82"/>
<polygon fill="midnightblue" stroke="midnightblue" points="2029.51,-833.317 2019.04,-834.921 2028.23,-840.198 2029.51,-833.317"/>
</g>
<!-- Node44&#45;&gt;Node3 -->
<g id="edge167" class="edge"><title>Node44&#45;&gt;Node3</title>
<path fill="none" stroke="midnightblue" d="M2629.89,-1097.53C2550.98,-1082.24 2383.12,-1047.63 2245,-1005 2192.3,-988.736 2132.27,-966.068 2096.85,-952.248"/>
<polygon fill="midnightblue" stroke="midnightblue" points="2098.12,-948.988 2087.54,-948.597 2095.57,-955.506 2098.12,-948.988"/>
</g>
<!-- Node44&#45;&gt;Node13 -->
<g id="edge178" class="edge"><title>Node44&#45;&gt;Node13</title>
<path fill="none" stroke="midnightblue" d="M2629.84,-1105.79C2305.61,-1104.17 341.879,-1093.11 221,-1061 112.773,-1032.25 0,-1051.98 0,-940 0,-940 0,-940 0,-188 0,-106.499 117.368,-82.492 183.686,-75.4321"/>
<polygon fill="midnightblue" stroke="midnightblue" points="184.254,-78.8935 193.866,-74.4384 183.573,-71.9266 184.254,-78.8935"/>
</g>
<!-- Node44&#45;&gt;Node14 -->
<g id="edge175" class="edge"><title>Node44&#45;&gt;Node14</title>
<path fill="none" stroke="midnightblue" d="M2720.19,-1104.61C2835.03,-1099.86 3129,-1079.53 3129,-996 3129,-996 3129,-996 3129,-188 3129,-92.8526 2777.13,-76.0394 2667.33,-73.109"/>
<polygon fill="midnightblue" stroke="midnightblue" points="2667.27,-69.6066 2657.19,-72.8601 2667.1,-76.6045 2667.27,-69.6066"/>
</g>
<!-- Node44&#45;&gt;Node15 -->
<g id="edge177" class="edge"><title>Node44&#45;&gt;Node15</title>
<path fill="none" stroke="midnightblue" d="M2720.17,-1104.47C2772.64,-1101.26 2860.85,-1091.36 2930,-1061 2973.54,-1041.88 3015,-1043.56 3015,-996 3015,-996 3015,-996 3015,-367 3015,-263.874 2968.47,-230.292 2879,-179 2690.02,-70.6533 1970.37,-70.745 1811.26,-72.1294"/>
<polygon fill="midnightblue" stroke="midnightblue" points="1811.16,-68.6301 1801.2,-72.2256 1811.23,-75.6298 1811.16,-68.6301"/>
</g>
<!-- Node44&#45;&gt;Node21 -->
<g id="edge176" class="edge"><title>Node44&#45;&gt;Node21</title>
<path fill="none" stroke="midnightblue" d="M2720.08,-1106.62C2795.48,-1105.04 2939,-1089.72 2939,-996 2939,-996 2939,-996 2939,-714 2939,-582.264 2749,-618.236 2749,-486.5 2749,-486.5 2749,-486.5 2749,-423 2749,-287.813 2253.34,-212.383 2117.86,-194.291"/>
<polygon fill="midnightblue" stroke="midnightblue" points="2118.04,-190.784 2107.67,-192.947 2117.12,-197.724 2118.04,-190.784"/>
</g>
<!-- Node44&#45;&gt;Node34 -->
<g id="edge151" class="edge"><title>Node44&#45;&gt;Node34</title>
<path fill="none" stroke="midnightblue" d="M2708.66,-1097.48C2752.89,-1084.04 2825,-1053.32 2825,-996 2825,-996 2825,-996 2825,-938 2825,-677.733 2716.62,-561.585 2473,-470 2412.78,-447.362 2234.56,-434.273 2134.74,-428.523"/>
<polygon fill="midnightblue" stroke="midnightblue" points="2134.92,-425.028 2124.74,-427.957 2134.53,-432.017 2134.92,-425.028"/>
</g>
<!-- Node45 -->
<g id="node45" class="node"><title>Node45</title>
<g id="a_node45"><a xlink:href="bound_8h.html" target="_top" xlink:title="Bound deducers. ">
<polygon fill="white" stroke="black" points="2473,-1041.5 2473,-1060.5 2575,-1060.5 2575,-1041.5 2473,-1041.5"/>
<text text-anchor="middle" x="2524" y="-1048.5" font-family="Helvetica,sans-Serif" font-size="10.00">tvm/arith/bound.h</text>
</a>
</g>
</g>
<!-- Node44&#45;&gt;Node45 -->
<g id="edge152" class="edge"><title>Node44&#45;&gt;Node45</title>
<path fill="none" stroke="midnightblue" d="M2651.07,-1097.44C2625.78,-1088.4 2585.7,-1074.06 2557.32,-1063.92"/>
<polygon fill="midnightblue" stroke="midnightblue" points="2558.41,-1060.59 2547.81,-1060.52 2556.05,-1067.18 2558.41,-1060.59"/>
</g>
<!-- Node48 -->
<g id="node48" class="node"><title>Node48</title>
<g id="a_node48"><a xlink:href="tir_2op_8h.html" target="_top" xlink:title="Common operators defined for Expr. ">
<polygon fill="white" stroke="black" points="230,-1041.5 230,-1060.5 302,-1060.5 302,-1041.5 230,-1041.5"/>
<text text-anchor="middle" x="266" y="-1048.5" font-family="Helvetica,sans-Serif" font-size="10.00">tvm/tir/op.h</text>
</a>
</g>
</g>
<!-- Node44&#45;&gt;Node48 -->
<g id="edge168" class="edge"><title>Node44&#45;&gt;Node48</title>
<path fill="none" stroke="midnightblue" d="M2629.82,-1104.99C2328.94,-1098.24 617.788,-1059.89 312.577,-1053.04"/>
<polygon fill="midnightblue" stroke="midnightblue" points="312.393,-1049.54 302.317,-1052.81 312.236,-1056.54 312.393,-1049.54"/>
</g>
<!-- Node45&#45;&gt;Node3 -->
<g id="edge159" class="edge"><title>Node45&#45;&gt;Node3</title>
<path fill="none" stroke="midnightblue" d="M2484.26,-1041.44C2443.66,-1032.62 2378.83,-1018.31 2323,-1005 2282.61,-995.372 2171.46,-967.02 2109.38,-951.125"/>
<polygon fill="midnightblue" stroke="midnightblue" points="2110.04,-947.683 2099.49,-948.592 2108.31,-954.464 2110.04,-947.683"/>
</g>
<!-- Node45&#45;&gt;Node22 -->
<g id="edge166" class="edge"><title>Node45&#45;&gt;Node22</title>
<path fill="none" stroke="midnightblue" d="M2575.24,-1050.05C2678.32,-1047.18 2901,-1024.71 2901,-884 2901,-884 2901,-884 2901,-714 2901,-632.858 2977,-629.142 2977,-548 2977,-548 2977,-548 2977,-423 2977,-326.768 2884.68,-239.449 2843.47,-205.261"/>
<polygon fill="midnightblue" stroke="midnightblue" points="2845.47,-202.377 2835.5,-198.788 2841.05,-207.81 2845.47,-202.377"/>
</g>
<!-- Node45&#45;&gt;Node34 -->
<g id="edge153" class="edge"><title>Node45&#45;&gt;Node34</title>
<path fill="none" stroke="midnightblue" d="M2543.36,-1041.44C2557.59,-1034.01 2575.96,-1021.81 2585,-1005 2634.11,-913.672 2597,-875.693 2597,-772 2597,-772 2597,-772 2597,-658 2597,-458.48 2279.15,-428.192 2134.82,-424.723"/>
<polygon fill="midnightblue" stroke="midnightblue" points="2134.8,-421.222 2124.74,-424.518 2134.66,-428.221 2134.8,-421.222"/>
</g>
<!-- Node45&#45;&gt;Node38 -->
<g id="edge154" class="edge"><title>Node45&#45;&gt;Node38</title>
<path fill="none" stroke="midnightblue" d="M2511.52,-1041.46C2498.95,-1032.7 2479.16,-1018.5 2463,-1005 2397.36,-950.183 2396.66,-916.442 2323,-873 2232.64,-819.71 2111.38,-791.885 2044.82,-779.747"/>
<polygon fill="midnightblue" stroke="midnightblue" points="2045.08,-776.238 2034.62,-777.932 2043.86,-783.13 2045.08,-776.238"/>
</g>
<!-- Node46 -->
<g id="node46" class="node"><title>Node46</title>
<g id="a_node46"><a xlink:href="int__set_8h.html" target="_top" xlink:title="Integer set. ">
<polygon fill="white" stroke="black" points="2472,-985.5 2472,-1004.5 2576,-1004.5 2576,-985.5 2472,-985.5"/>
<text text-anchor="middle" x="2524" y="-992.5" font-family="Helvetica,sans-Serif" font-size="10.00">tvm/arith/int_set.h</text>
</a>
</g>
</g>
<!-- Node45&#45;&gt;Node46 -->
<g id="edge155" class="edge"><title>Node45&#45;&gt;Node46</title>
<path fill="none" stroke="midnightblue" d="M2524,-1041.08C2524,-1034.01 2524,-1023.86 2524,-1014.99"/>
<polygon fill="midnightblue" stroke="midnightblue" points="2527.5,-1014.75 2524,-1004.75 2520.5,-1014.75 2527.5,-1014.75"/>
</g>
<!-- Node47 -->
<g id="node47" class="node"><title>Node47</title>
<g id="a_node47"><a xlink:href="stmt_8h.html" target="_top" xlink:title="TIR statements. ">
<polygon fill="white" stroke="black" points="2332.5,-985.5 2332.5,-1004.5 2415.5,-1004.5 2415.5,-985.5 2332.5,-985.5"/>
<text text-anchor="middle" x="2374" y="-992.5" font-family="Helvetica,sans-Serif" font-size="10.00">tvm/tir/stmt.h</text>
</a>
</g>
</g>
<!-- Node45&#45;&gt;Node47 -->
<g id="edge160" class="edge"><title>Node45&#45;&gt;Node47</title>
<path fill="none" stroke="midnightblue" d="M2500.23,-1041.44C2475.11,-1032.4 2435.29,-1018.06 2407.1,-1007.92"/>
<polygon fill="midnightblue" stroke="midnightblue" points="2408.25,-1004.61 2397.66,-1004.52 2405.88,-1011.2 2408.25,-1004.61"/>
</g>
<!-- Node46&#45;&gt;Node3 -->
<g id="edge157" class="edge"><title>Node46&#45;&gt;Node3</title>
<path fill="none" stroke="midnightblue" d="M2471.91,-987.858C2383.05,-977.381 2203.33,-956.192 2115.96,-945.89"/>
<polygon fill="midnightblue" stroke="midnightblue" points="2116.36,-942.414 2106.02,-944.719 2115.54,-949.366 2116.36,-942.414"/>
</g>
<!-- Node46&#45;&gt;Node22 -->
<g id="edge158" class="edge"><title>Node46&#45;&gt;Node22</title>
<path fill="none" stroke="midnightblue" d="M2534.75,-985.366C2573.72,-953.7 2709.98,-839.789 2799,-725 2812.91,-707.063 2901,-570.699 2901,-548 2901,-548 2901,-548 2901,-367 2901,-303.528 2858.85,-237.087 2836.92,-206.815"/>
<polygon fill="midnightblue" stroke="midnightblue" points="2839.61,-204.563 2830.83,-198.625 2833.99,-208.739 2839.61,-204.563"/>
</g>
<!-- Node46&#45;&gt;Node38 -->
<g id="edge156" class="edge"><title>Node46&#45;&gt;Node38</title>
<path fill="none" stroke="midnightblue" d="M2521.6,-985.328C2515.1,-963.38 2495.1,-905.097 2458,-873 2403.87,-826.165 2376.36,-834.668 2307,-817 2216.04,-793.831 2106.88,-781.479 2045.06,-775.869"/>
<polygon fill="midnightblue" stroke="midnightblue" points="2045.09,-772.358 2034.82,-774.963 2044.47,-779.331 2045.09,-772.358"/>
</g>
<!-- Node47&#45;&gt;Node3 -->
<g id="edge161" class="edge"><title>Node47&#45;&gt;Node3</title>
<path fill="none" stroke="midnightblue" d="M2332.46,-986.717C2276.43,-976.893 2176.71,-959.411 2116.44,-948.843"/>
<polygon fill="midnightblue" stroke="midnightblue" points="2116.85,-945.361 2106.39,-947.082 2115.64,-952.256 2116.85,-945.361"/>
</g>
<!-- Node47&#45;&gt;Node13 -->
<g id="edge162" class="edge"><title>Node47&#45;&gt;Node13</title>
<path fill="none" stroke="midnightblue" d="M2332.15,-993.736C2059.66,-991.773 542.986,-977.114 357,-893 193.766,-819.176 76,-783.151 76,-604 76,-604 76,-604 76,-188 76,-132.266 141.587,-99.9161 186.595,-84.2777"/>
<polygon fill="midnightblue" stroke="midnightblue" points="187.753,-87.5811 196.136,-81.1025 185.542,-80.9393 187.753,-87.5811"/>
</g>
<!-- Node47&#45;&gt;Node14 -->
<g id="edge163" class="edge"><title>Node47&#45;&gt;Node14</title>
<path fill="none" stroke="midnightblue" d="M2415.69,-989.047C2533.95,-974.438 2863,-929.684 2863,-884 2863,-884 2863,-884 2863,-714 2863,-598.315 3091,-361.685 3091,-246 3091,-246 3091,-246 3091,-188 3091,-100.547 2771.84,-78.5819 2667.54,-73.7387"/>
<polygon fill="midnightblue" stroke="midnightblue" points="2667.45,-70.2311 2657.3,-73.2867 2667.14,-77.2243 2667.45,-70.2311"/>
</g>
<!-- Node47&#45;&gt;Node15 -->
<g id="edge165" class="edge"><title>Node47&#45;&gt;Node15</title>
<path fill="none" stroke="midnightblue" d="M2398.19,-985.456C2448.33,-966.018 2559,-913.442 2559,-828 2559,-828 2559,-828 2559,-658 2559,-469.617 2650.66,-381.314 2532,-235 2438.61,-119.843 1941.64,-82.2074 1811.31,-74.2432"/>
<polygon fill="midnightblue" stroke="midnightblue" points="1811.4,-70.7422 1801.21,-73.6408 1810.98,-77.7298 1811.4,-70.7422"/>
</g>
<!-- Node47&#45;&gt;Node21 -->
<g id="edge164" class="edge"><title>Node47&#45;&gt;Node21</title>
<path fill="none" stroke="midnightblue" d="M2376.27,-985.188C2383.72,-955.419 2407,-855.775 2407,-772 2407,-772 2407,-772 2407,-602 2407,-407.631 2181.6,-250.492 2107.38,-204.019"/>
<polygon fill="midnightblue" stroke="midnightblue" points="2109.07,-200.946 2098.72,-198.67 2105.39,-206.902 2109.07,-200.946"/>
</g>
<!-- Node48&#45;&gt;Node3 -->
<g id="edge170" class="edge"><title>Node48&#45;&gt;Node3</title>
<path fill="none" stroke="midnightblue" d="M302.362,-1047.78C529.456,-1033.9 1751.8,-959.201 2015.74,-943.072"/>
<polygon fill="midnightblue" stroke="midnightblue" points="2016.03,-946.56 2025.8,-942.457 2015.6,-939.573 2016.03,-946.56"/>
</g>
<!-- Node48&#45;&gt;Node13 -->
<g id="edge173" class="edge"><title>Node48&#45;&gt;Node13</title>
<path fill="none" stroke="midnightblue" d="M250.8,-1041.39C236.944,-1033.12 216.354,-1019.73 201,-1005 94.5718,-902.925 38,-863.466 38,-716 38,-716 38,-716 38,-188 38,-120.224 127.369,-91.087 183.523,-79.4684"/>
<polygon fill="midnightblue" stroke="midnightblue" points="184.451,-82.8532 193.592,-77.4975 183.106,-75.9836 184.451,-82.8532"/>
</g>
<!-- Node48&#45;&gt;Node28 -->
<g id="edge174" class="edge"><title>Node48&#45;&gt;Node28</title>
<path fill="none" stroke="midnightblue" d="M254.457,-1041.43C233.196,-1024.57 190,-984.799 190,-940 190,-940 190,-940 190,-826 190,-762.154 415.811,-353.833 466.137,-263.623"/>
<polygon fill="midnightblue" stroke="midnightblue" points="469.214,-265.291 471.036,-254.854 463.103,-261.877 469.214,-265.291"/>
</g>
<!-- Node48&#45;&gt;Node40 -->
<g id="edge169" class="edge"><title>Node48&#45;&gt;Node40</title>
<path fill="none" stroke="midnightblue" d="M292.126,-1041.46C376.562,-1014.06 650.037,-927.076 881,-873 1188.48,-801.008 1564.04,-742.73 1696.2,-723.107"/>
<polygon fill="midnightblue" stroke="midnightblue" points="1697.01,-726.524 1706.39,-721.598 1695.99,-719.6 1697.01,-726.524"/>
</g>
<!-- Node48&#45;&gt;Node41 -->
<g id="edge172" class="edge"><title>Node48&#45;&gt;Node41</title>
<path fill="none" stroke="midnightblue" d="M260.716,-1041.23C250.275,-1023.04 228,-979.601 228,-940 228,-940 228,-940 228,-826 228,-776.036 284.58,-744.235 323.371,-728.303"/>
<polygon fill="midnightblue" stroke="midnightblue" points="324.78,-731.51 332.805,-724.593 322.218,-724.995 324.78,-731.51"/>
</g>
<!-- Node48&#45;&gt;Node47 -->
<g id="edge171" class="edge"><title>Node48&#45;&gt;Node47</title>
<path fill="none" stroke="midnightblue" d="M302.145,-1049.07C552.353,-1042.66 2025.63,-1004.92 2322.06,-997.331"/>
<polygon fill="midnightblue" stroke="midnightblue" points="2322.19,-1000.83 2332.1,-997.073 2322.01,-993.831 2322.19,-1000.83"/>
</g>
<!-- Node49&#45;&gt;Node14 -->
<g id="edge182" class="edge"><title>Node49&#45;&gt;Node14</title>
<path fill="none" stroke="midnightblue" d="M2774.38,-1153.48C2894.25,-1133.47 3167,-1078.84 3167,-996 3167,-996 3167,-996 3167,-188 3167,-85.2248 2783.04,-73.7145 2667.5,-72.5774"/>
<polygon fill="midnightblue" stroke="midnightblue" points="2667.21,-69.0751 2657.18,-72.497 2667.15,-76.0749 2667.21,-69.0751"/>
</g>
<!-- Node49&#45;&gt;Node43 -->
<g id="edge181" class="edge"><title>Node49&#45;&gt;Node43</title>
<path fill="none" stroke="midnightblue" d="M2658.85,-1159.91C2535.62,-1154 2266,-1131.92 2266,-1052 2266,-1052 2266,-1052 2266,-994 2266,-961.915 2268.15,-924.62 2269.63,-902.737"/>
<polygon fill="midnightblue" stroke="midnightblue" points="2273.14,-902.773 2270.35,-892.552 2266.15,-902.281 2273.14,-902.773"/>
</g>
<!-- Node49&#45;&gt;Node44 -->
<g id="edge180" class="edge"><title>Node49&#45;&gt;Node44</title>
<path fill="none" stroke="midnightblue" d="M2711.73,-1153.08C2705.46,-1145.38 2696.21,-1134.03 2688.57,-1124.65"/>
<polygon fill="midnightblue" stroke="midnightblue" points="2691.16,-1122.29 2682.13,-1116.75 2685.73,-1126.71 2691.16,-1122.29"/>
</g>
<!-- Node50&#45;&gt;Node10 -->
<g id="edge184" class="edge"><title>Node50&#45;&gt;Node10</title>
<path fill="none" stroke="midnightblue" d="M518.772,-123.475C542.136,-113.401 581.214,-96.5525 608.003,-85.0023"/>
<polygon fill="midnightblue" stroke="midnightblue" points="609.468,-88.1824 617.265,-81.0091 606.696,-81.7544 609.468,-88.1824"/>
</g>
<!-- Node50&#45;&gt;Node15 -->
<g id="edge185" class="edge"><title>Node50&#45;&gt;Node15</title>
<path fill="none" stroke="midnightblue" d="M552.008,-129.538C768.108,-119.5 1579.13,-81.8302 1748.77,-73.9506"/>
<polygon fill="midnightblue" stroke="midnightblue" points="1748.96,-77.4457 1758.79,-73.4854 1748.63,-70.4532 1748.96,-77.4457"/>
</g>
</g>
</svg>
