<?xml version="1.0" encoding="UTF-8" standalone="no"?>
<!DOCTYPE svg PUBLIC "-//W3C//DTD SVG 1.1//EN"
 "http://www.w3.org/Graphics/SVG/1.1/DTD/svg11.dtd">
<!-- Generated by graphviz version 2.38.0 (20140413.2041)
 -->
<!-- Title: include/tvm/tir/stmt_functor.h Pages: 1 -->
<svg width="2961pt" height="1080pt"
 viewBox="0.00 0.00 2961.50 1080.00" xmlns="http://www.w3.org/2000/svg" xmlns:xlink="http://www.w3.org/1999/xlink">
<g id="graph0" class="graph" transform="scale(1 1) rotate(0) translate(4 1076)">
<title>include/tvm/tir/stmt_functor.h</title>
<polygon fill="white" stroke="none" points="-4,4 -4,-1076 2957.5,-1076 2957.5,4 -4,4"/>
<!-- Node1 -->
<g id="node1" class="node"><title>Node1</title>
<polygon fill="#bfbfbf" stroke="black" points="121.499,-1041.5 121.499,-1071.5 231.499,-1071.5 231.499,-1041.5 121.499,-1041.5"/>
<text text-anchor="start" x="129.499" y="-1059.5" font-family="Helvetica,sans-Serif" font-size="10.00">include/tvm/tir/stmt</text>
<text text-anchor="middle" x="176.499" y="-1048.5" font-family="Helvetica,sans-Serif" font-size="10.00">_functor.h</text>
</g>
<!-- Node2 -->
<g id="node2" class="node"><title>Node2</title>
<g id="a_node2"><a xlink:href="functor_8h.html" target="_top" xlink:title="Defines the Functor data structures. ">
<polygon fill="white" stroke="black" points="312.999,-414.5 312.999,-433.5 419.999,-433.5 419.999,-414.5 312.999,-414.5"/>
<text text-anchor="middle" x="366.499" y="-421.5" font-family="Helvetica,sans-Serif" font-size="10.00">tvm/node/functor.h</text>
</a>
</g>
</g>
<!-- Node1&#45;&gt;Node2 -->
<g id="edge1" class="edge"><title>Node1&#45;&gt;Node2</title>
<path fill="none" stroke="midnightblue" d="M179.302,-1041.4C186.779,-1004.33 208.285,-901.204 232.499,-817 274.518,-670.874 338.52,-498.765 359.542,-443.238"/>
<polygon fill="midnightblue" stroke="midnightblue" points="362.875,-444.321 363.154,-433.729 356.331,-441.835 362.875,-444.321"/>
</g>
<!-- Node11 -->
<g id="node11" class="node"><title>Node11</title>
<polygon fill="white" stroke="#bfbfbf" points="272.499,-62 272.499,-81 314.499,-81 314.499,-62 272.499,-62"/>
<text text-anchor="middle" x="293.499" y="-69" font-family="Helvetica,sans-Serif" font-size="10.00">utility</text>
</g>
<!-- Node1&#45;&gt;Node11 -->
<g id="edge163" class="edge"><title>Node1&#45;&gt;Node11</title>
<path fill="none" stroke="midnightblue" d="M121.371,-1050.69C87.7122,-1044.94 46.1624,-1032.39 19.4988,-1005 -1.49629,-983.434 0.498762,-970.098 0.498762,-940 0.498762,-940 0.498762,-940 0.498762,-188 0.498762,-148.685 26.3688,-142.515 60.4988,-123 125.669,-85.7374 215.449,-75.9262 262.256,-73.3727"/>
<polygon fill="midnightblue" stroke="midnightblue" points="262.554,-76.8626 272.38,-72.8985 262.227,-69.8703 262.554,-76.8626"/>
</g>
<!-- Node14 -->
<g id="node14" class="node"><title>Node14</title>
<g id="a_node14"><a xlink:href="tir_2expr_8h.html" target="_top" xlink:title="TIR expressions. ">
<polygon fill="white" stroke="black" points="543.499,-929.5 543.499,-948.5 623.499,-948.5 623.499,-929.5 543.499,-929.5"/>
<text text-anchor="middle" x="583.499" y="-936.5" font-family="Helvetica,sans-Serif" font-size="10.00">tvm/tir/expr.h</text>
</a>
</g>
</g>
<!-- Node1&#45;&gt;Node14 -->
<g id="edge16" class="edge"><title>Node1&#45;&gt;Node14</title>
<path fill="none" stroke="midnightblue" d="M225.998,-1041.45C307.538,-1018.31 468.516,-972.63 543.417,-951.375"/>
<polygon fill="midnightblue" stroke="midnightblue" points="544.733,-954.639 553.397,-948.542 542.822,-947.905 544.733,-954.639"/>
</g>
<!-- Node45 -->
<g id="node45" class="node"><title>Node45</title>
<g id="a_node45"><a xlink:href="stmt_8h.html" target="_top" xlink:title="TIR statements. ">
<polygon fill="white" stroke="black" points="576.999,-985.5 576.999,-1004.5 659.999,-1004.5 659.999,-985.5 576.999,-985.5"/>
<text text-anchor="middle" x="618.499" y="-992.5" font-family="Helvetica,sans-Serif" font-size="10.00">tvm/tir/stmt.h</text>
</a>
</g>
</g>
<!-- Node1&#45;&gt;Node45 -->
<g id="edge153" class="edge"><title>Node1&#45;&gt;Node45</title>
<path fill="none" stroke="midnightblue" d="M231.585,-1048.08C317.669,-1036.5 482.9,-1014.25 566.832,-1002.96"/>
<polygon fill="midnightblue" stroke="midnightblue" points="567.455,-1006.4 576.899,-1001.6 566.521,-999.466 567.455,-1006.4"/>
</g>
<!-- Node46 -->
<g id="node46" class="node"><title>Node46</title>
<g id="a_node46"><a xlink:href="tir_2expr__functor_8h.html" target="_top" xlink:title="Functors for tir expressions. ">
<polygon fill="white" stroke="black" points="28.9988,-985.5 28.9988,-1004.5 147.999,-1004.5 147.999,-985.5 28.9988,-985.5"/>
<text text-anchor="middle" x="88.4988" y="-992.5" font-family="Helvetica,sans-Serif" font-size="10.00">tvm/tir/expr_functor.h</text>
</a>
</g>
</g>
<!-- Node1&#45;&gt;Node46 -->
<g id="edge159" class="edge"><title>Node1&#45;&gt;Node46</title>
<path fill="none" stroke="midnightblue" d="M155.644,-1041.4C141.802,-1032.04 123.688,-1019.79 109.762,-1010.38"/>
<polygon fill="midnightblue" stroke="midnightblue" points="111.548,-1007.36 101.304,-1004.66 107.627,-1013.16 111.548,-1007.36"/>
</g>
<!-- Node3 -->
<g id="node3" class="node"><title>Node3</title>
<polygon fill="white" stroke="#bfbfbf" points="898.499,-62 898.499,-81 984.499,-81 984.499,-62 898.499,-62"/>
<text text-anchor="middle" x="941.499" y="-69" font-family="Helvetica,sans-Serif" font-size="10.00">dmlc/logging.h</text>
</g>
<!-- Node2&#45;&gt;Node3 -->
<g id="edge2" class="edge"><title>Node2&#45;&gt;Node3</title>
<path fill="none" stroke="midnightblue" d="M365.012,-414.241C359.544,-378.768 344.278,-244.559 413.499,-179 481.698,-114.409 768.015,-85.6077 888.117,-76.2011"/>
<polygon fill="midnightblue" stroke="midnightblue" points="888.483,-79.6834 898.185,-75.4277 887.946,-72.704 888.483,-79.6834"/>
</g>
<!-- Node4 -->
<g id="node4" class="node"><title>Node4</title>
<g id="a_node4"><a xlink:href="object_8h.html" target="_top" xlink:title="A managed object in the TVM runtime. ">
<polygon fill="white" stroke="black" points="882.999,-123.5 882.999,-142.5 999.999,-142.5 999.999,-123.5 882.999,-123.5"/>
<text text-anchor="middle" x="941.499" y="-130.5" font-family="Helvetica,sans-Serif" font-size="10.00">tvm/runtime/object.h</text>
</a>
</g>
</g>
<!-- Node2&#45;&gt;Node4 -->
<g id="edge3" class="edge"><title>Node2&#45;&gt;Node4</title>
<path fill="none" stroke="midnightblue" d="M368.26,-414.347C376.945,-371.862 415.167,-187.055 424.499,-179 426.601,-177.185 732.59,-151.435 872.775,-139.724"/>
<polygon fill="midnightblue" stroke="midnightblue" points="873.307,-143.192 882.981,-138.872 872.724,-136.217 873.307,-143.192"/>
</g>
<!-- Node9 -->
<g id="node9" class="node"><title>Node9</title>
<polygon fill="white" stroke="#bfbfbf" points="1836.5,-62 1836.5,-81 1904.5,-81 1904.5,-62 1836.5,-62"/>
<text text-anchor="middle" x="1870.5" y="-69" font-family="Helvetica,sans-Serif" font-size="10.00">type_traits</text>
</g>
<!-- Node2&#45;&gt;Node9 -->
<g id="edge14" class="edge"><title>Node2&#45;&gt;Node9</title>
<path fill="none" stroke="midnightblue" d="M381.544,-414.474C455.38,-373.124 787.852,-192.618 1085.5,-123 1227.88,-89.6982 1681.34,-76.774 1825.82,-73.4379"/>
<polygon fill="midnightblue" stroke="midnightblue" points="1826.16,-76.9312 1836.08,-73.2053 1826,-69.933 1826.16,-76.9312"/>
</g>
<!-- Node2&#45;&gt;Node11 -->
<g id="edge15" class="edge"><title>Node2&#45;&gt;Node11</title>
<path fill="none" stroke="midnightblue" d="M360.319,-414.471C343.529,-390.706 297.277,-321.134 281.499,-255 267.525,-196.428 280.839,-124.486 288.681,-91.124"/>
<polygon fill="midnightblue" stroke="midnightblue" points="292.177,-91.5648 291.173,-81.0177 285.381,-89.889 292.177,-91.5648"/>
</g>
<!-- Node13 -->
<g id="node13" class="node"><title>Node13</title>
<polygon fill="white" stroke="#bfbfbf" points="1899,-179.5 1899,-198.5 1946,-198.5 1946,-179.5 1899,-179.5"/>
<text text-anchor="middle" x="1922.5" y="-186.5" font-family="Helvetica,sans-Serif" font-size="10.00">vector</text>
</g>
<!-- Node2&#45;&gt;Node13 -->
<g id="edge13" class="edge"><title>Node2&#45;&gt;Node13</title>
<path fill="none" stroke="midnightblue" d="M420.061,-421.945C634.962,-417.238 1434.62,-395.074 1675.5,-322 1765.9,-294.575 1861.37,-232.738 1902.13,-204.526"/>
<polygon fill="midnightblue" stroke="midnightblue" points="1904.22,-207.331 1910.41,-198.731 1900.21,-201.595 1904.22,-207.331"/>
</g>
<!-- Node4&#45;&gt;Node3 -->
<g id="edge4" class="edge"><title>Node4&#45;&gt;Node3</title>
<path fill="none" stroke="midnightblue" d="M941.499,-123.475C941.499,-115.08 941.499,-101.981 941.499,-91.1631"/>
<polygon fill="midnightblue" stroke="midnightblue" points="944.999,-91.0091 941.499,-81.0091 937.999,-91.0091 944.999,-91.0091"/>
</g>
<!-- Node5 -->
<g id="node5" class="node"><title>Node5</title>
<g id="a_node5"><a xlink:href="c__runtime__api_8h.html" target="_top" xlink:title="tvm/runtime/c_runtime\l_api.h">
<polygon fill="white" stroke="black" points="2086,-56.5 2086,-86.5 2213,-86.5 2213,-56.5 2086,-56.5"/>
<text text-anchor="start" x="2094" y="-74.5" font-family="Helvetica,sans-Serif" font-size="10.00">tvm/runtime/c_runtime</text>
<text text-anchor="middle" x="2149.5" y="-63.5" font-family="Helvetica,sans-Serif" font-size="10.00">_api.h</text>
</a>
</g>
</g>
<!-- Node4&#45;&gt;Node5 -->
<g id="edge5" class="edge"><title>Node4&#45;&gt;Node5</title>
<path fill="none" stroke="midnightblue" d="M1000.34,-128.07C1026.42,-126.393 1057.48,-124.484 1085.5,-123 1453.33,-103.511 1545.66,-106.295 1913.5,-87 1967.92,-84.1453 2029.37,-80.3519 2075.91,-77.3611"/>
<polygon fill="midnightblue" stroke="midnightblue" points="2076.16,-80.8528 2085.91,-76.7164 2075.71,-73.8673 2076.16,-80.8528"/>
</g>
<!-- Node4&#45;&gt;Node9 -->
<g id="edge9" class="edge"><title>Node4&#45;&gt;Node9</title>
<path fill="none" stroke="midnightblue" d="M1000.24,-127.025C1017.11,-125.654 1035.53,-124.212 1052.5,-123 1347.61,-101.928 1703,-81.7697 1826.04,-74.9433"/>
<polygon fill="midnightblue" stroke="midnightblue" points="1826.4,-78.4284 1836.2,-74.3807 1826.02,-71.4391 1826.4,-78.4284"/>
</g>
<!-- Node10 -->
<g id="node10" class="node"><title>Node10</title>
<polygon fill="white" stroke="#bfbfbf" points="2589.5,-62 2589.5,-81 2633.5,-81 2633.5,-62 2589.5,-62"/>
<text text-anchor="middle" x="2611.5" y="-69" font-family="Helvetica,sans-Serif" font-size="10.00">string</text>
</g>
<!-- Node4&#45;&gt;Node10 -->
<g id="edge10" class="edge"><title>Node4&#45;&gt;Node10</title>
<path fill="none" stroke="midnightblue" d="M1000.33,-127.913C1026.41,-126.207 1057.48,-124.319 1085.5,-123 1590.08,-99.2422 1716.66,-104.384 2221.5,-87 2353.96,-82.4389 2511.69,-76.3822 2578.74,-73.7785"/>
<polygon fill="midnightblue" stroke="midnightblue" points="2579.22,-77.2627 2589.08,-73.3767 2578.95,-70.268 2579.22,-77.2627"/>
</g>
<!-- Node4&#45;&gt;Node11 -->
<g id="edge11" class="edge"><title>Node4&#45;&gt;Node11</title>
<path fill="none" stroke="midnightblue" d="M882.85,-126.615C749.387,-114.36 426.675,-84.7284 324.837,-75.3775"/>
<polygon fill="midnightblue" stroke="midnightblue" points="324.883,-71.8671 314.605,-74.438 324.243,-78.8377 324.883,-71.8671"/>
</g>
<!-- Node12 -->
<g id="node12" class="node"><title>Node12</title>
<polygon fill="white" stroke="#bfbfbf" points="1159.5,-62 1159.5,-81 1209.5,-81 1209.5,-62 1159.5,-62"/>
<text text-anchor="middle" x="1184.5" y="-69" font-family="Helvetica,sans-Serif" font-size="10.00">atomic</text>
</g>
<!-- Node4&#45;&gt;Node12 -->
<g id="edge12" class="edge"><title>Node4&#45;&gt;Node12</title>
<path fill="none" stroke="midnightblue" d="M976.315,-123.475C1022.43,-112.183 1103.32,-92.3772 1149.52,-81.0648"/>
<polygon fill="midnightblue" stroke="midnightblue" points="1150.5,-84.4292 1159.38,-78.6513 1148.83,-77.6301 1150.5,-84.4292"/>
</g>
<!-- Node6 -->
<g id="node6" class="node"><title>Node6</title>
<polygon fill="white" stroke="#bfbfbf" points="2014.5,-0.5 2014.5,-19.5 2104.5,-19.5 2104.5,-0.5 2014.5,-0.5"/>
<text text-anchor="middle" x="2059.5" y="-7.5" font-family="Helvetica,sans-Serif" font-size="10.00">dlpack/dlpack.h</text>
</g>
<!-- Node5&#45;&gt;Node6 -->
<g id="edge6" class="edge"><title>Node5&#45;&gt;Node6</title>
<path fill="none" stroke="midnightblue" d="M2128.17,-56.3993C2114.01,-47.0402 2095.49,-34.7924 2081.25,-25.3771"/>
<polygon fill="midnightblue" stroke="midnightblue" points="2082.87,-22.2531 2072.59,-19.6578 2079.01,-28.0923 2082.87,-22.2531"/>
</g>
<!-- Node7 -->
<g id="node7" class="node"><title>Node7</title>
<polygon fill="white" stroke="#bfbfbf" points="2123,-0.5 2123,-19.5 2176,-19.5 2176,-0.5 2123,-0.5"/>
<text text-anchor="middle" x="2149.5" y="-7.5" font-family="Helvetica,sans-Serif" font-size="10.00">stdint.h</text>
</g>
<!-- Node5&#45;&gt;Node7 -->
<g id="edge7" class="edge"><title>Node5&#45;&gt;Node7</title>
<path fill="none" stroke="midnightblue" d="M2149.5,-56.3993C2149.5,-48.4664 2149.5,-38.458 2149.5,-29.8583"/>
<polygon fill="midnightblue" stroke="midnightblue" points="2153,-29.6577 2149.5,-19.6578 2146,-29.6578 2153,-29.6577"/>
</g>
<!-- Node8 -->
<g id="node8" class="node"><title>Node8</title>
<polygon fill="white" stroke="#bfbfbf" points="2194,-0.5 2194,-19.5 2249,-19.5 2249,-0.5 2194,-0.5"/>
<text text-anchor="middle" x="2221.5" y="-7.5" font-family="Helvetica,sans-Serif" font-size="10.00">stddef.h</text>
</g>
<!-- Node5&#45;&gt;Node8 -->
<g id="edge8" class="edge"><title>Node5&#45;&gt;Node8</title>
<path fill="none" stroke="midnightblue" d="M2166.56,-56.3993C2177.56,-47.3076 2191.86,-35.4899 2203.12,-26.1909"/>
<polygon fill="midnightblue" stroke="midnightblue" points="2205.54,-28.726 2211.02,-19.6578 2201.08,-23.33 2205.54,-28.726"/>
</g>
<!-- Node14&#45;&gt;Node2 -->
<g id="edge115" class="edge"><title>Node14&#45;&gt;Node2</title>
<path fill="none" stroke="midnightblue" d="M543.315,-934.888C482.095,-927.711 372.499,-904.219 372.499,-828 372.499,-828 372.499,-828 372.499,-602 372.499,-543.327 379.654,-528.447 374.499,-470 373.722,-461.197 372.107,-451.536 370.53,-443.43"/>
<polygon fill="midnightblue" stroke="midnightblue" points="373.943,-442.648 368.486,-433.567 367.088,-444.069 373.943,-442.648"/>
</g>
<!-- Node14&#45;&gt;Node5 -->
<g id="edge116" class="edge"><title>Node14&#45;&gt;Node5</title>
<path fill="none" stroke="midnightblue" d="M623.824,-938.264C860.81,-939.625 2074.53,-943.967 2443.5,-893 2631.56,-867.023 2801.5,-849.842 2801.5,-660 2801.5,-660 2801.5,-660 2801.5,-602 2801.5,-432.942 2817.39,-358.089 2701.5,-235 2574.57,-100.186 2342.08,-75.4048 2223.42,-71.9945"/>
<polygon fill="midnightblue" stroke="midnightblue" points="2223.42,-68.4937 2213.34,-71.7486 2223.25,-75.4916 2223.42,-68.4937"/>
</g>
<!-- Node14&#45;&gt;Node10 -->
<g id="edge147" class="edge"><title>Node14&#45;&gt;Node10</title>
<path fill="none" stroke="midnightblue" d="M623.613,-938.213C926.289,-939.567 2839.5,-943.556 2839.5,-828 2839.5,-828 2839.5,-828 2839.5,-602 2839.5,-516.388 2915.5,-510.612 2915.5,-425 2915.5,-425 2915.5,-425 2915.5,-188 2915.5,-152.864 2899.91,-142.223 2870.5,-123 2833.42,-98.7643 2704.56,-82.3264 2643.74,-75.7356"/>
<polygon fill="midnightblue" stroke="midnightblue" points="2643.87,-72.2298 2633.56,-74.6553 2643.14,-79.1907 2643.87,-72.2298"/>
</g>
<!-- Node14&#45;&gt;Node11 -->
<g id="edge152" class="edge"><title>Node14&#45;&gt;Node11</title>
<path fill="none" stroke="midnightblue" d="M543.321,-936.493C469.509,-933.036 315.903,-922.431 272.499,-893 197.351,-842.045 170.499,-806.794 170.499,-716 170.499,-716 170.499,-716 170.499,-658 170.499,-579.929 132.499,-564.571 132.499,-486.5 132.499,-486.5 132.499,-486.5 132.499,-188 132.499,-124.677 215.742,-92.7013 262.516,-79.7326"/>
<polygon fill="midnightblue" stroke="midnightblue" points="263.675,-83.0466 272.451,-77.1109 261.889,-76.2783 263.675,-83.0466"/>
</g>
<!-- Node15 -->
<g id="node15" class="node"><title>Node15</title>
<g id="a_node15"><a xlink:href="node_8h.html" target="_top" xlink:title="Definitions and helper macros for IR/AST nodes. ">
<polygon fill="white" stroke="black" points="1615.5,-593.5 1615.5,-612.5 1713.5,-612.5 1713.5,-593.5 1615.5,-593.5"/>
<text text-anchor="middle" x="1664.5" y="-600.5" font-family="Helvetica,sans-Serif" font-size="10.00">tvm/node/node.h</text>
</a>
</g>
</g>
<!-- Node14&#45;&gt;Node15 -->
<g id="edge17" class="edge"><title>Node14&#45;&gt;Node15</title>
<path fill="none" stroke="midnightblue" d="M575.046,-929.438C558.731,-911.962 524.499,-870.258 524.499,-828 524.499,-828 524.499,-828 524.499,-770 524.499,-739.902 520.25,-724.115 543.499,-705 626.007,-637.161 1385.36,-611.526 1605.16,-605.49"/>
<polygon fill="midnightblue" stroke="midnightblue" points="1605.31,-608.987 1615.21,-605.217 1605.12,-601.99 1605.31,-608.987"/>
</g>
<!-- Node23 -->
<g id="node23" class="node"><title>Node23</title>
<polygon fill="white" stroke="#bfbfbf" points="580.999,-179.5 580.999,-198.5 673.999,-198.5 673.999,-179.5 580.999,-179.5"/>
<text text-anchor="middle" x="627.499" y="-186.5" font-family="Helvetica,sans-Serif" font-size="10.00">unordered_map</text>
</g>
<!-- Node14&#45;&gt;Node23 -->
<g id="edge149" class="edge"><title>Node14&#45;&gt;Node23</title>
<path fill="none" stroke="midnightblue" d="M543.438,-937.39C490.859,-935.203 396.776,-926.444 324.499,-893 283.545,-874.05 246.499,-873.126 246.499,-828 246.499,-828 246.499,-828 246.499,-770 246.499,-639.551 170.499,-616.949 170.499,-486.5 170.499,-486.5 170.499,-486.5 170.499,-367 170.499,-290.348 214.247,-271.78 281.499,-235 330.079,-208.431 485.73,-196.86 570.75,-192.416"/>
<polygon fill="midnightblue" stroke="midnightblue" points="570.946,-195.911 580.756,-191.909 570.592,-188.92 570.946,-195.911"/>
</g>
<!-- Node27 -->
<g id="node27" class="node"><title>Node27</title>
<g id="a_node27"><a xlink:href="data__type_8h.html" target="_top" xlink:title="tvm/runtime/data_type.h">
<polygon fill="white" stroke="black" points="2181.5,-235.5 2181.5,-254.5 2317.5,-254.5 2317.5,-235.5 2181.5,-235.5"/>
<text text-anchor="middle" x="2249.5" y="-242.5" font-family="Helvetica,sans-Serif" font-size="10.00">tvm/runtime/data_type.h</text>
</a>
</g>
</g>
<!-- Node14&#45;&gt;Node27 -->
<g id="edge117" class="edge"><title>Node14&#45;&gt;Node27</title>
<path fill="none" stroke="midnightblue" d="M623.842,-938.031C912.252,-937.994 2649.5,-933.399 2649.5,-828 2649.5,-828 2649.5,-828 2649.5,-546 2649.5,-502.408 2619.81,-499.261 2587.5,-470 2559.6,-444.732 2342.36,-305.31 2271.66,-260.134"/>
<polygon fill="midnightblue" stroke="midnightblue" points="2273.36,-257.07 2263.05,-254.637 2269.59,-262.969 2273.36,-257.07"/>
</g>
<!-- Node30 -->
<g id="node30" class="node"><title>Node30</title>
<polygon fill="white" stroke="#bfbfbf" points="290.499,-235.5 290.499,-254.5 332.499,-254.5 332.499,-235.5 290.499,-235.5"/>
<text text-anchor="middle" x="311.499" y="-242.5" font-family="Helvetica,sans-Serif" font-size="10.00">limits</text>
</g>
<!-- Node14&#45;&gt;Node30 -->
<g id="edge151" class="edge"><title>Node14&#45;&gt;Node30</title>
<path fill="none" stroke="midnightblue" d="M543.485,-931.898C462.01,-918.343 284.499,-882.551 284.499,-828 284.499,-828 284.499,-828 284.499,-714 284.499,-555.715 287.559,-516.132 294.499,-358 295.807,-328.198 293.439,-320.399 298.499,-291 300.033,-282.084 302.689,-272.419 305.202,-264.34"/>
<polygon fill="midnightblue" stroke="midnightblue" points="308.531,-265.421 308.316,-254.829 301.878,-263.243 308.531,-265.421"/>
</g>
<!-- Node35 -->
<g id="node35" class="node"><title>Node35</title>
<g id="a_node35"><a xlink:href="node_2container_8h.html" target="_top" xlink:title="Array/Map container in the DSL graph. ">
<polygon fill="white" stroke="black" points="794.999,-414.5 794.999,-433.5 913.999,-433.5 913.999,-414.5 794.999,-414.5"/>
<text text-anchor="middle" x="854.499" y="-421.5" font-family="Helvetica,sans-Serif" font-size="10.00">tvm/node/container.h</text>
</a>
</g>
</g>
<!-- Node14&#45;&gt;Node35 -->
<g id="edge114" class="edge"><title>Node14&#45;&gt;Node35</title>
<path fill="none" stroke="midnightblue" d="M567.481,-929.482C539.93,-913.537 486.499,-876.377 486.499,-828 486.499,-828 486.499,-828 486.499,-546 486.499,-483.861 678.242,-448.384 784.916,-433.455"/>
<polygon fill="midnightblue" stroke="midnightblue" points="785.534,-436.903 794.964,-432.074 784.581,-429.968 785.534,-436.903"/>
</g>
<!-- Node38 -->
<g id="node38" class="node"><title>Node38</title>
<polygon fill="white" stroke="#bfbfbf" points="822.999,-476 822.999,-495 881.999,-495 881.999,-476 822.999,-476"/>
<text text-anchor="middle" x="852.499" y="-483" font-family="Helvetica,sans-Serif" font-size="10.00">iostream</text>
</g>
<!-- Node14&#45;&gt;Node38 -->
<g id="edge150" class="edge"><title>Node14&#45;&gt;Node38</title>
<path fill="none" stroke="midnightblue" d="M623.518,-938.18C774.715,-938.503 1325.45,-936.439 1776.5,-893 1937.68,-877.477 2031.17,-959.983 2136.5,-837 2207.01,-754.671 2574.69,-943.389 1981.5,-649 1906.51,-611.784 1689.82,-621.093 1606.5,-613 1353.14,-588.393 1284.24,-615.507 1036.5,-557 978.526,-543.309 914.289,-515.625 879.131,-499.319"/>
<polygon fill="midnightblue" stroke="midnightblue" points="880.555,-496.121 870.015,-495.042 877.582,-502.458 880.555,-496.121"/>
</g>
<!-- Node39 -->
<g id="node39" class="node"><title>Node39</title>
<g id="a_node39"><a xlink:href="ir_2expr_8h.html" target="_top" xlink:title="Base expr nodes in TVM. ">
<polygon fill="white" stroke="black" points="1600,-761.5 1600,-780.5 1677,-780.5 1677,-761.5 1600,-761.5"/>
<text text-anchor="middle" x="1638.5" y="-768.5" font-family="Helvetica,sans-Serif" font-size="10.00">tvm/ir/expr.h</text>
</a>
</g>
</g>
<!-- Node14&#45;&gt;Node39 -->
<g id="edge118" class="edge"><title>Node14&#45;&gt;Node39</title>
<path fill="none" stroke="midnightblue" d="M623.568,-931.695C787.961,-905.829 1410.47,-807.88 1589.85,-779.654"/>
<polygon fill="midnightblue" stroke="midnightblue" points="1590.46,-783.102 1599.79,-778.091 1589.37,-776.188 1590.46,-783.102"/>
</g>
<!-- Node42 -->
<g id="node42" class="node"><title>Node42</title>
<polygon fill="white" stroke="#bfbfbf" points="552.499,-705.5 552.499,-724.5 614.499,-724.5 614.499,-705.5 552.499,-705.5"/>
<text text-anchor="middle" x="583.499" y="-712.5" font-family="Helvetica,sans-Serif" font-size="10.00">algorithm</text>
</g>
<!-- Node14&#45;&gt;Node42 -->
<g id="edge148" class="edge"><title>Node14&#45;&gt;Node42</title>
<path fill="none" stroke="midnightblue" d="M583.499,-929.297C583.499,-896.633 583.499,-780.866 583.499,-734.957"/>
<polygon fill="midnightblue" stroke="midnightblue" points="586.999,-734.884 583.499,-724.884 579.999,-734.884 586.999,-734.884"/>
</g>
<!-- Node43 -->
<g id="node43" class="node"><title>Node43</title>
<g id="a_node43"><a xlink:href="var_8h.html" target="_top" xlink:title="Variables in the TIR. ">
<polygon fill="white" stroke="black" points="2053.5,-817.5 2053.5,-836.5 2127.5,-836.5 2127.5,-817.5 2053.5,-817.5"/>
<text text-anchor="middle" x="2090.5" y="-824.5" font-family="Helvetica,sans-Serif" font-size="10.00">tvm/tir/var.h</text>
</a>
</g>
</g>
<!-- Node14&#45;&gt;Node43 -->
<g id="edge137" class="edge"><title>Node14&#45;&gt;Node43</title>
<path fill="none" stroke="midnightblue" d="M623.833,-938.111C768.568,-938.138 1275.23,-935.027 1690.5,-893 1819.02,-879.993 1968.96,-852.206 2043.47,-837.532"/>
<polygon fill="midnightblue" stroke="midnightblue" points="2044.34,-840.927 2053.47,-835.551 2042.98,-834.06 2044.34,-840.927"/>
</g>
<!-- Node44 -->
<g id="node44" class="node"><title>Node44</title>
<g id="a_node44"><a xlink:href="buffer_8h.html" target="_top" xlink:title="Symbolic n&#45;dimensional array, to represent a memory buffer. ">
<polygon fill="white" stroke="black" points="1595,-873.5 1595,-892.5 1682,-892.5 1682,-873.5 1595,-873.5"/>
<text text-anchor="middle" x="1638.5" y="-880.5" font-family="Helvetica,sans-Serif" font-size="10.00">tvm/tir/buffer.h</text>
</a>
</g>
</g>
<!-- Node14&#45;&gt;Node44 -->
<g id="edge142" class="edge"><title>Node14&#45;&gt;Node44</title>
<path fill="none" stroke="midnightblue" d="M623.568,-935.949C786.473,-927.611 1399.24,-896.247 1584.87,-886.745"/>
<polygon fill="midnightblue" stroke="midnightblue" points="1585.13,-890.236 1594.94,-886.23 1584.77,-883.246 1585.13,-890.236"/>
</g>
<!-- Node15&#45;&gt;Node4 -->
<g id="edge71" class="edge"><title>Node15&#45;&gt;Node4</title>
<path fill="none" stroke="midnightblue" d="M1615.27,-601.626C1508.89,-600.131 1249.95,-592.777 1036.5,-557 1002.48,-551.297 994.928,-545.522 961.499,-537 895.901,-520.278 870.514,-537.497 813.499,-501 686.407,-419.646 698.64,-351.308 602.499,-235 584.374,-213.073 552.636,-200.295 571.499,-179 591.099,-156.872 771.221,-143.407 872.729,-137.511"/>
<polygon fill="midnightblue" stroke="midnightblue" points="873.115,-140.995 882.899,-136.93 872.716,-134.006 873.115,-140.995"/>
</g>
<!-- Node15&#45;&gt;Node5 -->
<g id="edge18" class="edge"><title>Node15&#45;&gt;Node5</title>
<path fill="none" stroke="midnightblue" d="M1713.51,-601.244C1794.41,-599.033 1960.48,-590.42 2096.5,-557 2288.24,-509.89 2405.96,-507.531 2473.5,-322 2486.73,-285.666 2492.87,-268.465 2473.5,-235 2421.35,-144.906 2301.31,-103.394 2222.89,-85.2973"/>
<polygon fill="midnightblue" stroke="midnightblue" points="2223.59,-81.8671 2213.07,-83.1019 2222.06,-88.6986 2223.59,-81.8671"/>
</g>
<!-- Node15&#45;&gt;Node9 -->
<g id="edge113" class="edge"><title>Node15&#45;&gt;Node9</title>
<path fill="none" stroke="midnightblue" d="M1713.86,-600.118C1817.32,-595.674 2049.36,-582.902 2073.5,-557 2189.2,-432.846 2119.07,-316.428 2019.5,-179 1999.57,-151.496 1994.51,-143.588 1967.5,-123 1947,-107.374 1920.95,-94.1172 1901.02,-85.1124"/>
<polygon fill="midnightblue" stroke="midnightblue" points="1902.33,-81.868 1891.77,-81.0416 1899.51,-88.2745 1902.33,-81.868"/>
</g>
<!-- Node15&#45;&gt;Node10 -->
<g id="edge110" class="edge"><title>Node15&#45;&gt;Node10</title>
<path fill="none" stroke="midnightblue" d="M1713.83,-600.393C1802.5,-596.856 1994.39,-586.239 2153.5,-557 2244.71,-540.239 2272.71,-544.701 2354.5,-501 2396.9,-478.345 2649.5,-283.247 2649.5,-246 2649.5,-246 2649.5,-246 2649.5,-188 2649.5,-151.754 2632.4,-112.171 2621.15,-90.0327"/>
<polygon fill="midnightblue" stroke="midnightblue" points="2624.23,-88.3745 2616.47,-81.1633 2618.04,-91.641 2624.23,-88.3745"/>
</g>
<!-- Node15&#45;&gt;Node11 -->
<g id="edge112" class="edge"><title>Node15&#45;&gt;Node11</title>
<path fill="none" stroke="midnightblue" d="M1615.33,-602.077C1484.36,-601.705 1116.4,-596.886 813.499,-557 694.581,-541.341 666.077,-529.216 549.499,-501 439.363,-474.344 379.298,-518.232 303.499,-434 227.093,-349.094 267.427,-293.15 271.499,-179 272.388,-154.064 270.374,-147.42 275.499,-123 277.804,-112.013 281.933,-100.17 285.655,-90.7155"/>
<polygon fill="midnightblue" stroke="midnightblue" points="288.99,-91.8086 289.565,-81.2294 282.518,-89.1406 288.99,-91.8086"/>
</g>
<!-- Node15&#45;&gt;Node13 -->
<g id="edge111" class="edge"><title>Node15&#45;&gt;Node13</title>
<path fill="none" stroke="midnightblue" d="M1660.7,-593.309C1651.63,-571.171 1631.09,-511.477 1653.5,-470 1694.92,-393.321 1940.08,-331.679 1981.5,-255 1992.48,-234.676 1969.77,-215.633 1949.42,-203.478"/>
<polygon fill="midnightblue" stroke="midnightblue" points="1951.09,-200.402 1940.66,-198.553 1947.66,-206.504 1951.09,-200.402"/>
</g>
<!-- Node16 -->
<g id="node16" class="node"><title>Node16</title>
<g id="a_node16"><a xlink:href="runtime_2container_8h.html" target="_top" xlink:title="Common POD(plain old data) container types. ">
<polygon fill="white" stroke="black" points="966.499,-358.5 966.499,-377.5 1098.5,-377.5 1098.5,-358.5 966.499,-358.5"/>
<text text-anchor="middle" x="1032.5" y="-365.5" font-family="Helvetica,sans-Serif" font-size="10.00">tvm/runtime/container.h</text>
</a>
</g>
</g>
<!-- Node15&#45;&gt;Node16 -->
<g id="edge19" class="edge"><title>Node15&#45;&gt;Node16</title>
<path fill="none" stroke="midnightblue" d="M1615.2,-600.754C1488.51,-597.16 1158.64,-585.175 1118.5,-557 1060.48,-516.275 1040.79,-426.489 1034.83,-387.583"/>
<polygon fill="midnightblue" stroke="midnightblue" points="1038.29,-387.064 1033.44,-377.645 1031.36,-388.033 1038.29,-387.064"/>
</g>
<!-- Node17 -->
<g id="node17" class="node"><title>Node17</title>
<g id="a_node17"><a xlink:href="runtime_2memory_8h.html" target="_top" xlink:title="Runtime memory management. ">
<polygon fill="white" stroke="black" points="996.999,-179.5 996.999,-198.5 1124,-198.5 1124,-179.5 996.999,-179.5"/>
<text text-anchor="middle" x="1060.5" y="-186.5" font-family="Helvetica,sans-Serif" font-size="10.00">tvm/runtime/memory.h</text>
</a>
</g>
</g>
<!-- Node15&#45;&gt;Node17 -->
<g id="edge72" class="edge"><title>Node15&#45;&gt;Node17</title>
<path fill="none" stroke="midnightblue" d="M1615.4,-601.708C1483.7,-599.608 1132.5,-584.793 1132.5,-486.5 1132.5,-486.5 1132.5,-486.5 1132.5,-367 1132.5,-304.166 1093.09,-237.419 1072.58,-206.945"/>
<polygon fill="midnightblue" stroke="midnightblue" points="1075.45,-204.939 1066.89,-198.696 1069.69,-208.915 1075.45,-204.939"/>
</g>
<!-- Node33 -->
<g id="node33" class="node"><title>Node33</title>
<g id="a_node33"><a xlink:href="reflection_8h.html" target="_top" xlink:title="Reflection and serialization of compiler IR/AST nodes. ">
<polygon fill="white" stroke="black" points="1946,-537.5 1946,-556.5 2065,-556.5 2065,-537.5 1946,-537.5"/>
<text text-anchor="middle" x="2005.5" y="-544.5" font-family="Helvetica,sans-Serif" font-size="10.00">tvm/node/reflection.h</text>
</a>
</g>
</g>
<!-- Node15&#45;&gt;Node33 -->
<g id="edge73" class="edge"><title>Node15&#45;&gt;Node33</title>
<path fill="none" stroke="midnightblue" d="M1713.72,-594.206C1773.89,-584.677 1875.85,-568.53 1941.91,-558.069"/>
<polygon fill="midnightblue" stroke="midnightblue" points="1942.46,-561.526 1951.79,-556.505 1941.37,-554.612 1942.46,-561.526"/>
</g>
<!-- Node34 -->
<g id="node34" class="node"><title>Node34</title>
<g id="a_node34"><a xlink:href="structural__equal_8h.html" target="_top" xlink:title="Structural equality comparison. ">
<polygon fill="white" stroke="black" points="1663,-470.5 1663,-500.5 1774,-500.5 1774,-470.5 1663,-470.5"/>
<text text-anchor="start" x="1671" y="-488.5" font-family="Helvetica,sans-Serif" font-size="10.00">tvm/node/structural</text>
<text text-anchor="middle" x="1718.5" y="-477.5" font-family="Helvetica,sans-Serif" font-size="10.00">_equal.h</text>
</a>
</g>
</g>
<!-- Node15&#45;&gt;Node34 -->
<g id="edge108" class="edge"><title>Node15&#45;&gt;Node34</title>
<path fill="none" stroke="midnightblue" d="M1668.56,-593.319C1676.78,-575.734 1695.64,-535.394 1707.69,-509.629"/>
<polygon fill="midnightblue" stroke="midnightblue" points="1710.87,-511.087 1711.93,-500.545 1704.53,-508.122 1710.87,-511.087"/>
</g>
<!-- Node15&#45;&gt;Node35 -->
<g id="edge107" class="edge"><title>Node15&#45;&gt;Node35</title>
<path fill="none" stroke="midnightblue" d="M1615.15,-601.033C1493.1,-598.189 1179.75,-588.002 1080.5,-557 1037.09,-543.442 923.407,-470.392 875.873,-439.168"/>
<polygon fill="midnightblue" stroke="midnightblue" points="877.565,-436.091 867.289,-433.51 873.713,-441.936 877.565,-436.091"/>
</g>
<!-- Node36 -->
<g id="node36" class="node"><title>Node36</title>
<g id="a_node36"><a xlink:href="structural__hash_8h.html" target="_top" xlink:title="tvm/node/structural\l_hash.h">
<polygon fill="white" stroke="black" points="1792,-470.5 1792,-500.5 1903,-500.5 1903,-470.5 1792,-470.5"/>
<text text-anchor="start" x="1800" y="-488.5" font-family="Helvetica,sans-Serif" font-size="10.00">tvm/node/structural</text>
<text text-anchor="middle" x="1847.5" y="-477.5" font-family="Helvetica,sans-Serif" font-size="10.00">_hash.h</text>
</a>
</g>
</g>
<!-- Node15&#45;&gt;Node36 -->
<g id="edge109" class="edge"><title>Node15&#45;&gt;Node36</title>
<path fill="none" stroke="midnightblue" d="M1678.25,-593.319C1707.46,-574.882 1776.31,-531.431 1816.62,-505.99"/>
<polygon fill="midnightblue" stroke="midnightblue" points="1818.66,-508.842 1825.25,-500.545 1814.92,-502.923 1818.66,-508.842"/>
</g>
<!-- Node37 -->
<g id="node37" class="node"><title>Node37</title>
<g id="a_node37"><a xlink:href="repr__printer_8h.html" target="_top" xlink:title="Printer class to print repr string of each AST/IR nodes. ">
<polygon fill="white" stroke="black" points="822.499,-537.5 822.499,-556.5 952.499,-556.5 952.499,-537.5 822.499,-537.5"/>
<text text-anchor="middle" x="887.499" y="-544.5" font-family="Helvetica,sans-Serif" font-size="10.00">tvm/node/repr_printer.h</text>
</a>
</g>
</g>
<!-- Node15&#45;&gt;Node37 -->
<g id="edge104" class="edge"><title>Node15&#45;&gt;Node37</title>
<path fill="none" stroke="midnightblue" d="M1615.23,-598.787C1505.51,-591.602 1232.74,-573.559 1004.5,-557 991.01,-556.021 976.648,-554.945 962.775,-553.888"/>
<polygon fill="midnightblue" stroke="midnightblue" points="963.016,-550.396 952.778,-553.122 962.482,-557.375 963.016,-550.396"/>
</g>
<!-- Node16&#45;&gt;Node3 -->
<g id="edge20" class="edge"><title>Node16&#45;&gt;Node3</title>
<path fill="none" stroke="midnightblue" d="M1023.13,-358.365C993.811,-330.621 903.983,-239.898 873.499,-143 870.831,-134.521 869.505,-130.941 873.499,-123 881.683,-106.728 897.867,-94.3793 912.394,-85.9673"/>
<polygon fill="midnightblue" stroke="midnightblue" points="914.457,-88.8314 921.599,-81.0062 911.136,-82.6693 914.457,-88.8314"/>
</g>
<!-- Node16&#45;&gt;Node4 -->
<g id="edge26" class="edge"><title>Node16&#45;&gt;Node4</title>
<path fill="none" stroke="midnightblue" d="M1028.93,-358.286C1018.79,-333.472 989.022,-260.267 965.499,-199 959.503,-183.383 952.939,-165.553 948.194,-152.522"/>
<polygon fill="midnightblue" stroke="midnightblue" points="951.389,-151.065 944.688,-142.858 944.808,-153.453 951.389,-151.065"/>
</g>
<!-- Node16&#45;&gt;Node9 -->
<g id="edge68" class="edge"><title>Node16&#45;&gt;Node9</title>
<path fill="none" stroke="midnightblue" d="M1098.94,-364.996C1212.76,-360.868 1439.95,-349.397 1514.5,-322 1663.5,-267.24 1807.97,-134.04 1854.78,-88.259"/>
<polygon fill="midnightblue" stroke="midnightblue" points="1857.25,-90.7403 1861.9,-81.2234 1852.33,-85.7596 1857.25,-90.7403"/>
</g>
<!-- Node16&#45;&gt;Node10 -->
<g id="edge67" class="edge"><title>Node16&#45;&gt;Node10</title>
<path fill="none" stroke="midnightblue" d="M1098.57,-364.877C1239.8,-359.932 1567.03,-346.19 1675.5,-322 1780.14,-298.664 1798.14,-266.907 1900.5,-235 2104.27,-171.481 2159.19,-169.524 2367.5,-123 2443.25,-106.081 2532.68,-88.0707 2579.4,-78.8102"/>
<polygon fill="midnightblue" stroke="midnightblue" points="2580.11,-82.2372 2589.24,-76.8635 2578.76,-75.3702 2580.11,-82.2372"/>
</g>
<!-- Node16&#45;&gt;Node11 -->
<g id="edge69" class="edge"><title>Node16&#45;&gt;Node11</title>
<path fill="none" stroke="midnightblue" d="M1016.56,-358.299C990.603,-344.137 937.554,-315.244 892.499,-291 799.35,-240.878 780.786,-218.097 682.499,-179 553.734,-127.78 391.568,-92.1032 324.605,-78.55"/>
<polygon fill="midnightblue" stroke="midnightblue" points="325.188,-75.0973 314.695,-76.5658 323.814,-81.961 325.188,-75.0973"/>
</g>
<!-- Node16&#45;&gt;Node13 -->
<g id="edge70" class="edge"><title>Node16&#45;&gt;Node13</title>
<path fill="none" stroke="midnightblue" d="M1098.68,-366.187C1234.28,-363.854 1539.21,-354.992 1637.5,-322 1661.57,-313.919 1663.58,-303.833 1685.5,-291 1731.48,-264.077 1742.6,-256.163 1791.5,-235 1823.98,-220.941 1862.42,-208.172 1889.23,-199.858"/>
<polygon fill="midnightblue" stroke="midnightblue" points="1890.36,-203.172 1898.89,-196.896 1888.31,-196.479 1890.36,-203.172"/>
</g>
<!-- Node16&#45;&gt;Node17 -->
<g id="edge21" class="edge"><title>Node16&#45;&gt;Node17</title>
<path fill="none" stroke="midnightblue" d="M1030.61,-358.413C1026.26,-337.001 1016.95,-279.749 1030.5,-235 1033.62,-224.705 1039.95,-214.612 1046,-206.602"/>
<polygon fill="midnightblue" stroke="midnightblue" points="1048.73,-208.797 1052.29,-198.818 1043.28,-204.399 1048.73,-208.797"/>
</g>
<!-- Node19 -->
<g id="node19" class="node"><title>Node19</title>
<g id="a_node19"><a xlink:href="packed__func_8h.html" target="_top" xlink:title="Type&#45;erased function used across TVM API. ">
<polygon fill="white" stroke="black" points="1393,-291.5 1393,-321.5 1506,-321.5 1506,-291.5 1393,-291.5"/>
<text text-anchor="start" x="1401" y="-309.5" font-family="Helvetica,sans-Serif" font-size="10.00">tvm/runtime/packed</text>
<text text-anchor="middle" x="1449.5" y="-298.5" font-family="Helvetica,sans-Serif" font-size="10.00">_func.h</text>
</a>
</g>
</g>
<!-- Node16&#45;&gt;Node19 -->
<g id="edge27" class="edge"><title>Node16&#45;&gt;Node19</title>
<path fill="none" stroke="midnightblue" d="M1092.24,-358.475C1169.24,-347.489 1302.7,-328.447 1382.88,-317.005"/>
<polygon fill="midnightblue" stroke="midnightblue" points="1383.47,-320.457 1392.87,-315.58 1382.48,-313.528 1383.47,-320.457"/>
</g>
<!-- Node31 -->
<g id="node31" class="node"><title>Node31</title>
<polygon fill="white" stroke="#bfbfbf" points="1055,-297 1055,-316 1104,-316 1104,-297 1055,-297"/>
<text text-anchor="middle" x="1079.5" y="-304" font-family="Helvetica,sans-Serif" font-size="10.00">cstring</text>
</g>
<!-- Node16&#45;&gt;Node31 -->
<g id="edge65" class="edge"><title>Node16&#45;&gt;Node31</title>
<path fill="none" stroke="midnightblue" d="M1039.23,-358.475C1046.28,-349.55 1057.53,-335.307 1066.35,-324.143"/>
<polygon fill="midnightblue" stroke="midnightblue" points="1069.33,-326.026 1072.78,-316.009 1063.83,-321.687 1069.33,-326.026"/>
</g>
<!-- Node32 -->
<g id="node32" class="node"><title>Node32</title>
<polygon fill="white" stroke="#bfbfbf" points="806.999,-297 806.999,-316 883.999,-316 883.999,-297 806.999,-297"/>
<text text-anchor="middle" x="845.499" y="-304" font-family="Helvetica,sans-Serif" font-size="10.00">initializer_list</text>
</g>
<!-- Node16&#45;&gt;Node32 -->
<g id="edge66" class="edge"><title>Node16&#45;&gt;Node32</title>
<path fill="none" stroke="midnightblue" d="M1005.71,-358.475C973.213,-348.136 918.291,-330.661 881.961,-319.102"/>
<polygon fill="midnightblue" stroke="midnightblue" points="882.832,-315.706 872.242,-316.009 880.71,-322.376 882.832,-315.706"/>
</g>
<!-- Node17&#45;&gt;Node4 -->
<g id="edge22" class="edge"><title>Node17&#45;&gt;Node4</title>
<path fill="none" stroke="midnightblue" d="M1041.64,-179.444C1022.23,-170.636 991.769,-156.812 969.534,-146.722"/>
<polygon fill="midnightblue" stroke="midnightblue" points="970.819,-143.462 960.266,-142.516 967.926,-149.836 970.819,-143.462"/>
</g>
<!-- Node17&#45;&gt;Node9 -->
<g id="edge25" class="edge"><title>Node17&#45;&gt;Node9</title>
<path fill="none" stroke="midnightblue" d="M1100.05,-179.474C1163.86,-165.958 1293.58,-139.464 1404.5,-123 1558.88,-100.085 1743.51,-83.16 1826.4,-76.1119"/>
<polygon fill="midnightblue" stroke="midnightblue" points="1826.8,-79.5909 1836.47,-75.2621 1826.21,-72.6157 1826.8,-79.5909"/>
</g>
<!-- Node17&#45;&gt;Node11 -->
<g id="edge24" class="edge"><title>Node17&#45;&gt;Node11</title>
<path fill="none" stroke="midnightblue" d="M1056.53,-179.35C1049.32,-164.762 1032.56,-135.625 1008.5,-123 947.341,-90.905 454.525,-76.4973 324.733,-73.237"/>
<polygon fill="midnightblue" stroke="midnightblue" points="324.749,-69.7364 314.665,-72.9883 324.576,-76.7343 324.749,-69.7364"/>
</g>
<!-- Node18 -->
<g id="node18" class="node"><title>Node18</title>
<polygon fill="white" stroke="#bfbfbf" points="1095,-123.5 1095,-142.5 1142,-142.5 1142,-123.5 1095,-123.5"/>
<text text-anchor="middle" x="1118.5" y="-130.5" font-family="Helvetica,sans-Serif" font-size="10.00">cstdlib</text>
</g>
<!-- Node17&#45;&gt;Node18 -->
<g id="edge23" class="edge"><title>Node17&#45;&gt;Node18</title>
<path fill="none" stroke="midnightblue" d="M1069.82,-179.324C1078.39,-171.341 1091.31,-159.313 1101.69,-149.653"/>
<polygon fill="midnightblue" stroke="midnightblue" points="1104.08,-152.21 1109.01,-142.834 1099.31,-147.086 1104.08,-152.21"/>
</g>
<!-- Node19&#45;&gt;Node3 -->
<g id="edge28" class="edge"><title>Node19&#45;&gt;Node3</title>
<path fill="none" stroke="midnightblue" d="M1392.78,-302.912C1320.02,-298.348 1199.6,-286.188 1169.5,-255 1128.34,-212.352 1190.39,-166.836 1150.5,-123 1129.86,-100.323 1049.65,-85.9551 994.817,-78.57"/>
<polygon fill="midnightblue" stroke="midnightblue" points="995.264,-75.0987 984.894,-77.2718 994.356,-82.0395 995.264,-75.0987"/>
</g>
<!-- Node19&#45;&gt;Node4 -->
<g id="edge56" class="edge"><title>Node19&#45;&gt;Node4</title>
<path fill="none" stroke="midnightblue" d="M1392.85,-302.26C1323.92,-297.164 1204.61,-284.598 1106.5,-255 1050.54,-238.117 1032.3,-236.539 987.499,-199 971.656,-185.727 958.63,-165.789 950.533,-151.497"/>
<polygon fill="midnightblue" stroke="midnightblue" points="953.583,-149.78 945.741,-142.656 947.429,-153.115 953.583,-149.78"/>
</g>
<!-- Node19&#45;&gt;Node5 -->
<g id="edge29" class="edge"><title>Node19&#45;&gt;Node5</title>
<path fill="none" stroke="midnightblue" d="M1476.72,-291.401C1506.74,-276.201 1556.74,-251.914 1601.5,-235 1771.24,-170.863 1978.07,-115.444 2082.42,-89.0106"/>
<polygon fill="midnightblue" stroke="midnightblue" points="2083.35,-92.3847 2092.19,-86.5437 2081.64,-85.5976 2083.35,-92.3847"/>
</g>
<!-- Node19&#45;&gt;Node9 -->
<g id="edge64" class="edge"><title>Node19&#45;&gt;Node9</title>
<path fill="none" stroke="midnightblue" d="M1481.32,-291.494C1506.5,-278.334 1535.18,-257.365 1520.5,-235 1498.44,-201.383 1459.56,-232.617 1437.5,-199 1418.97,-170.761 1415.04,-148.23 1437.5,-123 1463.07,-94.2726 1721.03,-79.3268 1826.21,-74.3886"/>
<polygon fill="midnightblue" stroke="midnightblue" points="1826.66,-77.8716 1836.49,-73.9151 1826.34,-70.879 1826.66,-77.8716"/>
</g>
<!-- Node19&#45;&gt;Node10 -->
<g id="edge60" class="edge"><title>Node19&#45;&gt;Node10</title>
<path fill="none" stroke="midnightblue" d="M1489.01,-291.398C1539.17,-273.587 1622.96,-244.156 1654.5,-235 2008.36,-132.254 2455.88,-86.4768 2578.93,-75.3064"/>
<polygon fill="midnightblue" stroke="midnightblue" points="2579.52,-78.7672 2589.17,-74.3889 2578.9,-71.7951 2579.52,-78.7672"/>
</g>
<!-- Node19&#45;&gt;Node11 -->
<g id="edge63" class="edge"><title>Node19&#45;&gt;Node11</title>
<path fill="none" stroke="midnightblue" d="M1392.84,-304.013C1312.87,-300.684 1162.97,-289.904 1040.5,-255 905.863,-216.63 889.395,-160.444 754.499,-123 597.368,-79.3846 400.31,-73.1731 324.858,-72.4809"/>
<polygon fill="midnightblue" stroke="midnightblue" points="324.649,-68.9796 314.627,-72.415 324.604,-75.9794 324.649,-68.9796"/>
</g>
<!-- Node19&#45;&gt;Node13 -->
<g id="edge59" class="edge"><title>Node19&#45;&gt;Node13</title>
<path fill="none" stroke="midnightblue" d="M1506.08,-291.683C1605.47,-267.414 1808.45,-217.849 1888.73,-198.245"/>
<polygon fill="midnightblue" stroke="midnightblue" points="1889.9,-201.563 1898.78,-195.791 1888.24,-194.763 1889.9,-201.563"/>
</g>
<!-- Node20 -->
<g id="node20" class="node"><title>Node20</title>
<g id="a_node20"><a xlink:href="runtime_2module_8h.html" target="_top" xlink:title="Runtime container of the functions generated by TVM, This is used to support dynamically link...">
<polygon fill="white" stroke="black" points="1387.5,-235.5 1387.5,-254.5 1511.5,-254.5 1511.5,-235.5 1387.5,-235.5"/>
<text text-anchor="middle" x="1449.5" y="-242.5" font-family="Helvetica,sans-Serif" font-size="10.00">tvm/runtime/module.h</text>
</a>
</g>
</g>
<!-- Node19&#45;&gt;Node20 -->
<g id="edge30" class="edge"><title>Node19&#45;&gt;Node20</title>
<path fill="none" stroke="midnightblue" d="M1443.66,-291.399C1442.63,-283.377 1442.47,-273.233 1443.19,-264.569"/>
<polygon fill="midnightblue" stroke="midnightblue" points="1446.66,-265.044 1444.57,-254.658 1439.73,-264.081 1446.66,-265.044"/>
</g>
<!-- Node22 -->
<g id="node22" class="node"><title>Node22</title>
<polygon fill="white" stroke="#bfbfbf" points="1219,-179.5 1219,-198.5 1276,-198.5 1276,-179.5 1219,-179.5"/>
<text text-anchor="middle" x="1247.5" y="-186.5" font-family="Helvetica,sans-Serif" font-size="10.00">memory</text>
</g>
<!-- Node19&#45;&gt;Node22 -->
<g id="edge62" class="edge"><title>Node19&#45;&gt;Node22</title>
<path fill="none" stroke="midnightblue" d="M1392.8,-303.22C1321.27,-299.015 1204.33,-287.269 1177.5,-255 1160.88,-235.011 1190.86,-215.131 1216.6,-202.721"/>
<polygon fill="midnightblue" stroke="midnightblue" points="1218.17,-205.852 1225.8,-198.5 1215.25,-199.49 1218.17,-205.852"/>
</g>
<!-- Node24 -->
<g id="node24" class="node"><title>Node24</title>
<g id="a_node24"><a xlink:href="ndarray_8h.html" target="_top" xlink:title="A device&#45;independent managed NDArray abstraction. ">
<polygon fill="white" stroke="black" points="1187,-235.5 1187,-254.5 1310,-254.5 1310,-235.5 1187,-235.5"/>
<text text-anchor="middle" x="1248.5" y="-242.5" font-family="Helvetica,sans-Serif" font-size="10.00">tvm/runtime/ndarray.h</text>
</a>
</g>
</g>
<!-- Node19&#45;&gt;Node24 -->
<g id="edge40" class="edge"><title>Node19&#45;&gt;Node24</title>
<path fill="none" stroke="midnightblue" d="M1402.12,-291.475C1366.99,-281.075 1319.7,-267.078 1286.92,-257.372"/>
<polygon fill="midnightblue" stroke="midnightblue" points="1287.82,-253.989 1277.23,-254.506 1285.83,-260.701 1287.82,-253.989"/>
</g>
<!-- Node19&#45;&gt;Node27 -->
<g id="edge51" class="edge"><title>Node19&#45;&gt;Node27</title>
<path fill="none" stroke="midnightblue" d="M1506.07,-301.292C1646.32,-290.861 2010.3,-263.791 2171.13,-251.829"/>
<polygon fill="midnightblue" stroke="midnightblue" points="2171.71,-255.295 2181.42,-251.063 2171.19,-248.315 2171.71,-255.295"/>
</g>
<!-- Node28 -->
<g id="node28" class="node"><title>Node28</title>
<polygon fill="white" stroke="#bfbfbf" points="1910,-235.5 1910,-254.5 1973,-254.5 1973,-235.5 1910,-235.5"/>
<text text-anchor="middle" x="1941.5" y="-242.5" font-family="Helvetica,sans-Serif" font-size="10.00">functional</text>
</g>
<!-- Node19&#45;&gt;Node28 -->
<g id="edge57" class="edge"><title>Node19&#45;&gt;Node28</title>
<path fill="none" stroke="midnightblue" d="M1506.42,-298.616C1606.44,-286.52 1811.48,-261.724 1899.66,-251.06"/>
<polygon fill="midnightblue" stroke="midnightblue" points="1900.31,-254.506 1909.82,-249.831 1899.47,-247.557 1900.31,-254.506"/>
</g>
<!-- Node29 -->
<g id="node29" class="node"><title>Node29</title>
<polygon fill="white" stroke="#bfbfbf" points="1328,-235.5 1328,-254.5 1369,-254.5 1369,-235.5 1328,-235.5"/>
<text text-anchor="middle" x="1348.5" y="-242.5" font-family="Helvetica,sans-Serif" font-size="10.00">tuple</text>
</g>
<!-- Node19&#45;&gt;Node29 -->
<g id="edge58" class="edge"><title>Node19&#45;&gt;Node29</title>
<path fill="none" stroke="midnightblue" d="M1425.56,-291.399C1409.37,-281.862 1388.09,-269.325 1372,-259.842"/>
<polygon fill="midnightblue" stroke="midnightblue" points="1373.59,-256.718 1363.2,-254.658 1370.03,-262.749 1373.59,-256.718"/>
</g>
<!-- Node19&#45;&gt;Node30 -->
<g id="edge61" class="edge"><title>Node19&#45;&gt;Node30</title>
<path fill="none" stroke="midnightblue" d="M1392.68,-302.529C1188.95,-291.877 498.999,-255.803 343.018,-247.648"/>
<polygon fill="midnightblue" stroke="midnightblue" points="342.893,-244.137 332.724,-247.11 342.528,-251.127 342.893,-244.137"/>
</g>
<!-- Node20&#45;&gt;Node4 -->
<g id="edge33" class="edge"><title>Node20&#45;&gt;Node4</title>
<path fill="none" stroke="midnightblue" d="M1431.67,-235.292C1401.92,-221.148 1339.94,-193.327 1284.5,-179 1191.25,-154.905 1080.23,-143.339 1010.3,-138.06"/>
<polygon fill="midnightblue" stroke="midnightblue" points="1010.52,-134.567 1000.29,-137.326 1010,-141.548 1010.52,-134.567"/>
</g>
<!-- Node20&#45;&gt;Node5 -->
<g id="edge32" class="edge"><title>Node20&#45;&gt;Node5</title>
<path fill="none" stroke="midnightblue" d="M1501.21,-235.442C1543.5,-227.806 1604.57,-215.315 1656.5,-199 1678.55,-192.073 1682.52,-186.157 1704.5,-179 1832.87,-137.192 1986.92,-103.957 2075.98,-86.3384"/>
<polygon fill="midnightblue" stroke="midnightblue" points="2076.84,-89.7354 2085.98,-84.3713 2075.49,-82.8669 2076.84,-89.7354"/>
</g>
<!-- Node20&#45;&gt;Node10 -->
<g id="edge37" class="edge"><title>Node20&#45;&gt;Node10</title>
<path fill="none" stroke="midnightblue" d="M1495.15,-235.461C1564.78,-222.55 1701.74,-197.597 1818.5,-179 2112.93,-132.104 2471.07,-88.9832 2579.13,-76.2709"/>
<polygon fill="midnightblue" stroke="midnightblue" points="2579.84,-79.7114 2589.37,-75.0699 2579.03,-72.7591 2579.84,-79.7114"/>
</g>
<!-- Node20&#45;&gt;Node13 -->
<g id="edge36" class="edge"><title>Node20&#45;&gt;Node13</title>
<path fill="none" stroke="midnightblue" d="M1511.82,-236.885C1613.05,-225.328 1809.81,-202.866 1888.64,-193.866"/>
<polygon fill="midnightblue" stroke="midnightblue" points="1889.42,-197.3 1898.96,-192.688 1888.62,-190.345 1889.42,-197.3"/>
</g>
<!-- Node20&#45;&gt;Node17 -->
<g id="edge34" class="edge"><title>Node20&#45;&gt;Node17</title>
<path fill="none" stroke="midnightblue" d="M1387.86,-235.444C1318.29,-225.786 1205.29,-210.099 1131.93,-199.916"/>
<polygon fill="midnightblue" stroke="midnightblue" points="1132.23,-196.425 1121.85,-198.516 1131.27,-203.358 1132.23,-196.425"/>
</g>
<!-- Node20&#45;&gt;Node19 -->
<g id="edge39" class="edge"><title>Node20&#45;&gt;Node19</title>
<path fill="none" stroke="midnightblue" d="M1454.43,-254.658C1455.93,-261.655 1456.51,-271.857 1456.14,-281.289"/>
<polygon fill="midnightblue" stroke="midnightblue" points="1452.64,-281.153 1455.34,-291.399 1459.62,-281.709 1452.64,-281.153"/>
</g>
<!-- Node21 -->
<g id="node21" class="node"><title>Node21</title>
<polygon fill="white" stroke="#bfbfbf" points="1596.5,-123.5 1596.5,-142.5 1656.5,-142.5 1656.5,-123.5 1596.5,-123.5"/>
<text text-anchor="middle" x="1626.5" y="-130.5" font-family="Helvetica,sans-Serif" font-size="10.00">dmlc/io.h</text>
</g>
<!-- Node20&#45;&gt;Node21 -->
<g id="edge31" class="edge"><title>Node20&#45;&gt;Node21</title>
<path fill="none" stroke="midnightblue" d="M1501.97,-235.444C1529.07,-228.972 1561.4,-217.847 1585.5,-199 1601.06,-186.829 1612.33,-166.993 1619.08,-152.43"/>
<polygon fill="midnightblue" stroke="midnightblue" points="1622.42,-153.511 1623.18,-142.943 1616,-150.731 1622.42,-153.511"/>
</g>
<!-- Node20&#45;&gt;Node22 -->
<g id="edge35" class="edge"><title>Node20&#45;&gt;Node22</title>
<path fill="none" stroke="midnightblue" d="M1417.49,-235.444C1381.75,-225.889 1323.92,-210.431 1285.81,-200.241"/>
<polygon fill="midnightblue" stroke="midnightblue" points="1286.66,-196.845 1276.09,-197.643 1284.85,-203.607 1286.66,-196.845"/>
</g>
<!-- Node20&#45;&gt;Node23 -->
<g id="edge38" class="edge"><title>Node20&#45;&gt;Node23</title>
<path fill="none" stroke="midnightblue" d="M1387.47,-235.989C1384.1,-235.634 1380.76,-235.301 1377.5,-235 1119.14,-211.127 809.483,-197.185 684.217,-192.154"/>
<polygon fill="midnightblue" stroke="midnightblue" points="684.226,-188.652 674.095,-191.751 683.948,-195.646 684.226,-188.652"/>
</g>
<!-- Node24&#45;&gt;Node4 -->
<g id="edge42" class="edge"><title>Node24&#45;&gt;Node4</title>
<path fill="none" stroke="midnightblue" d="M1235.86,-235.348C1215.15,-221.535 1172.3,-194.486 1132.5,-179 1091.4,-163.011 1043.04,-151.686 1005.26,-144.397"/>
<polygon fill="midnightblue" stroke="midnightblue" points="1005.87,-140.951 995.399,-142.539 1004.58,-147.83 1005.87,-140.951"/>
</g>
<!-- Node24&#45;&gt;Node5 -->
<g id="edge41" class="edge"><title>Node24&#45;&gt;Node5</title>
<path fill="none" stroke="midnightblue" d="M1310.33,-236.016C1403.95,-223.889 1572.24,-201.92 1585.5,-199 1641.17,-186.74 1774.98,-135.934 1830.5,-123 1913.57,-103.647 2010.54,-89.463 2075.57,-81.1382"/>
<polygon fill="midnightblue" stroke="midnightblue" points="2076.25,-84.5809 2085.73,-79.8526 2075.37,-77.6363 2076.25,-84.5809"/>
</g>
<!-- Node24&#45;&gt;Node11 -->
<g id="edge50" class="edge"><title>Node24&#45;&gt;Node11</title>
<path fill="none" stroke="midnightblue" d="M1259.54,-235.325C1274.34,-222.61 1297.37,-198.327 1284.5,-179 1248.72,-125.275 1213.38,-137.549 1150.5,-123 988.62,-85.5487 458.643,-75.0269 324.547,-72.9349"/>
<polygon fill="midnightblue" stroke="midnightblue" points="324.59,-69.4352 314.538,-72.7831 324.484,-76.4344 324.59,-69.4352"/>
</g>
<!-- Node24&#45;&gt;Node12 -->
<g id="edge48" class="edge"><title>Node24&#45;&gt;Node12</title>
<path fill="none" stroke="midnightblue" d="M1272.97,-235.438C1289.07,-228.378 1308.88,-216.626 1318.5,-199 1322.76,-191.198 1321.97,-187.182 1318.5,-179 1299.05,-133.191 1247.7,-101.74 1214.51,-85.4656"/>
<polygon fill="midnightblue" stroke="midnightblue" points="1215.8,-82.2025 1205.26,-81.0905 1212.81,-88.5303 1215.8,-82.2025"/>
</g>
<!-- Node24&#45;&gt;Node13 -->
<g id="edge49" class="edge"><title>Node24&#45;&gt;Node13</title>
<path fill="none" stroke="midnightblue" d="M1310.31,-235.87C1313.08,-235.564 1315.82,-235.272 1318.5,-235 1535.36,-212.997 1797.05,-197.122 1888.78,-191.878"/>
<polygon fill="midnightblue" stroke="midnightblue" points="1889.07,-195.366 1898.86,-191.305 1888.68,-188.378 1889.07,-195.366"/>
</g>
<!-- Node25 -->
<g id="node25" class="node"><title>Node25</title>
<g id="a_node25"><a xlink:href="serializer_8h.html" target="_top" xlink:title="Serializer extension to support TVM data types Include this file to enable serialization of DLDataTyp...">
<polygon fill="white" stroke="black" points="1446.5,-179.5 1446.5,-198.5 1576.5,-198.5 1576.5,-179.5 1446.5,-179.5"/>
<text text-anchor="middle" x="1511.5" y="-186.5" font-family="Helvetica,sans-Serif" font-size="10.00">tvm/runtime/serializer.h</text>
</a>
</g>
</g>
<!-- Node24&#45;&gt;Node25 -->
<g id="edge43" class="edge"><title>Node24&#45;&gt;Node25</title>
<path fill="none" stroke="midnightblue" d="M1285.08,-235.444C1329.17,-225.964 1403.51,-210.675 1454.97,-200.483"/>
<polygon fill="midnightblue" stroke="midnightblue" points="1455.81,-203.886 1464.94,-198.516 1454.45,-197.018 1455.81,-203.886"/>
</g>
<!-- Node25&#45;&gt;Node5 -->
<g id="edge46" class="edge"><title>Node25&#45;&gt;Node5</title>
<path fill="none" stroke="midnightblue" d="M1518.37,-179.359C1530.53,-164.785 1557.42,-135.668 1587.5,-123 1609.65,-113.671 1928.24,-88.9587 2075.65,-77.938"/>
<polygon fill="midnightblue" stroke="midnightblue" points="2076.25,-81.403 2085.96,-77.1685 2075.73,-74.4225 2076.25,-81.403"/>
</g>
<!-- Node25&#45;&gt;Node21 -->
<g id="edge44" class="edge"><title>Node25&#45;&gt;Node21</title>
<path fill="none" stroke="midnightblue" d="M1529.72,-179.444C1548.39,-170.675 1577.65,-156.935 1599.12,-146.858"/>
<polygon fill="midnightblue" stroke="midnightblue" points="1600.8,-149.935 1608.36,-142.516 1597.82,-143.599 1600.8,-149.935"/>
</g>
<!-- Node25&#45;&gt;Node24 -->
<g id="edge47" class="edge"><title>Node25&#45;&gt;Node24</title>
<path fill="none" stroke="midnightblue" d="M1475.1,-198.516C1431.1,-207.979 1356.77,-223.268 1305.25,-233.473"/>
<polygon fill="midnightblue" stroke="midnightblue" points="1304.39,-230.074 1295.26,-235.444 1305.75,-236.942 1304.39,-230.074"/>
</g>
<!-- Node26 -->
<g id="node26" class="node"><title>Node26</title>
<polygon fill="white" stroke="#bfbfbf" points="1446.5,-123.5 1446.5,-142.5 1540.5,-142.5 1540.5,-123.5 1446.5,-123.5"/>
<text text-anchor="middle" x="1493.5" y="-130.5" font-family="Helvetica,sans-Serif" font-size="10.00">dmlc/serializer.h</text>
</g>
<!-- Node25&#45;&gt;Node26 -->
<g id="edge45" class="edge"><title>Node25&#45;&gt;Node26</title>
<path fill="none" stroke="midnightblue" d="M1508.53,-179.083C1506.11,-171.849 1502.63,-161.409 1499.63,-152.397"/>
<polygon fill="midnightblue" stroke="midnightblue" points="1502.9,-151.131 1496.42,-142.751 1496.26,-153.345 1502.9,-151.131"/>
</g>
<!-- Node27&#45;&gt;Node3 -->
<g id="edge53" class="edge"><title>Node27&#45;&gt;Node3</title>
<path fill="none" stroke="midnightblue" d="M2212.31,-235.487C2156.43,-222.768 2047.45,-198.243 1954.5,-179 1826.38,-152.477 1795.22,-140.028 1665.5,-123 1661.33,-122.453 1160.99,-87.7244 994.609,-76.1833"/>
<polygon fill="midnightblue" stroke="midnightblue" points="994.824,-72.6898 984.606,-75.4894 994.339,-79.673 994.824,-72.6898"/>
</g>
<!-- Node27&#45;&gt;Node5 -->
<g id="edge52" class="edge"><title>Node27&#45;&gt;Node5</title>
<path fill="none" stroke="midnightblue" d="M2244.4,-235.26C2229.47,-209.649 2185.46,-134.168 2163,-95.6628"/>
<polygon fill="midnightblue" stroke="midnightblue" points="2165.85,-93.5985 2157.79,-86.7228 2159.81,-97.1245 2165.85,-93.5985"/>
</g>
<!-- Node27&#45;&gt;Node9 -->
<g id="edge54" class="edge"><title>Node27&#45;&gt;Node9</title>
<path fill="none" stroke="midnightblue" d="M2218.52,-235.386C2194.3,-227.866 2160.34,-215.558 2133.5,-199 2090.65,-172.567 2093.56,-147.367 2049.5,-123 2006.88,-99.4302 1952.35,-86.1043 1914.74,-79.133"/>
<polygon fill="midnightblue" stroke="midnightblue" points="1915.06,-75.6353 1904.6,-77.332 1913.83,-82.5274 1915.06,-75.6353"/>
</g>
<!-- Node27&#45;&gt;Node10 -->
<g id="edge55" class="edge"><title>Node27&#45;&gt;Node10</title>
<path fill="none" stroke="midnightblue" d="M2291.03,-235.483C2321.14,-228.305 2362.24,-216.391 2395.5,-199 2444.03,-173.622 2445.33,-150.827 2492.5,-123 2520.53,-106.463 2554.99,-92.4564 2579.6,-83.42"/>
<polygon fill="midnightblue" stroke="midnightblue" points="2580.95,-86.6555 2589.17,-79.9743 2578.58,-80.0695 2580.95,-86.6555"/>
</g>
<!-- Node33&#45;&gt;Node4 -->
<g id="edge75" class="edge"><title>Node33&#45;&gt;Node4</title>
<path fill="none" stroke="midnightblue" d="M1945.66,-542.614C1706.11,-528.793 827.178,-475.416 785.499,-434 722.583,-371.482 752.133,-309.348 800.499,-235 818.533,-207.278 823.24,-199.105 849.499,-179 867.33,-165.348 889.96,-154.213 908.313,-146.435"/>
<polygon fill="midnightblue" stroke="midnightblue" points="909.816,-149.602 917.742,-142.572 907.162,-143.125 909.816,-149.602"/>
</g>
<!-- Node33&#45;&gt;Node5 -->
<g id="edge74" class="edge"><title>Node33&#45;&gt;Node5</title>
<path fill="none" stroke="midnightblue" d="M2065.29,-538.174C2095.45,-531.929 2131.29,-520.787 2158.5,-501 2265.57,-423.124 2287.43,-381.5 2326.5,-255 2349.99,-178.942 2252.53,-119.472 2192.89,-90.9657"/>
<polygon fill="midnightblue" stroke="midnightblue" points="2194.2,-87.7181 2183.66,-86.6587 2191.24,-94.0608 2194.2,-87.7181"/>
</g>
<!-- Node33&#45;&gt;Node9 -->
<g id="edge103" class="edge"><title>Node33&#45;&gt;Node9</title>
<path fill="none" stroke="midnightblue" d="M2013.93,-537.217C2021.46,-528.722 2031.99,-515.095 2036.5,-501 2072.54,-388.391 2080.31,-343.137 2032.5,-235 2002.35,-166.817 1929.71,-111.482 1892.81,-86.6471"/>
<polygon fill="midnightblue" stroke="midnightblue" points="1894.52,-83.5837 1884.25,-81.0009 1890.67,-89.4277 1894.52,-83.5837"/>
</g>
<!-- Node33&#45;&gt;Node10 -->
<g id="edge102" class="edge"><title>Node33&#45;&gt;Node10</title>
<path fill="none" stroke="midnightblue" d="M2065.05,-538.48C2102.96,-532.073 2152.31,-520.666 2192.5,-501 2381.01,-408.762 2422.51,-361.353 2555.5,-199 2574.56,-175.732 2581.15,-170.426 2593.5,-143 2601.03,-126.277 2605.81,-105.846 2608.53,-91.2925"/>
<polygon fill="midnightblue" stroke="midnightblue" points="2612.05,-91.5123 2610.29,-81.0637 2605.15,-90.3256 2612.05,-91.5123"/>
</g>
<!-- Node33&#45;&gt;Node13 -->
<g id="edge101" class="edge"><title>Node33&#45;&gt;Node13</title>
<path fill="none" stroke="midnightblue" d="M2009.61,-537.277C2013.56,-528.383 2019.24,-514.074 2021.5,-501 2023.84,-487.423 2021.67,-483.777 2021.5,-470 2021.17,-443.883 2029.66,-256.95 2015.5,-235 2008.45,-224.07 1979.54,-211.083 1955.8,-201.877"/>
<polygon fill="midnightblue" stroke="midnightblue" points="1956.95,-198.568 1946.36,-198.302 1954.47,-205.115 1956.95,-198.568"/>
</g>
<!-- Node33&#45;&gt;Node17 -->
<g id="edge76" class="edge"><title>Node33&#45;&gt;Node17</title>
<path fill="none" stroke="midnightblue" d="M1997.58,-537.49C1982.41,-521.724 1947.57,-487.948 1911.5,-470 1667.14,-348.427 1574.67,-407.564 1315.5,-322 1241.9,-297.703 1222.53,-292.135 1154.5,-255 1127.11,-240.049 1097.9,-218.937 1079.44,-204.876"/>
<polygon fill="midnightblue" stroke="midnightblue" points="1081.35,-201.932 1071.3,-198.598 1077.08,-207.476 1081.35,-201.932"/>
</g>
<!-- Node33&#45;&gt;Node19 -->
<g id="edge77" class="edge"><title>Node33&#45;&gt;Node19</title>
<path fill="none" stroke="midnightblue" d="M2006.7,-537.465C2009.46,-514.107 2013.63,-448.576 1979.5,-414 1915.55,-349.21 1644.16,-321.457 1516.46,-311.814"/>
<polygon fill="midnightblue" stroke="midnightblue" points="1516.63,-308.318 1506.4,-311.07 1516.12,-315.299 1516.63,-308.318"/>
</g>
<!-- Node33&#45;&gt;Node24 -->
<g id="edge78" class="edge"><title>Node33&#45;&gt;Node24</title>
<path fill="none" stroke="midnightblue" d="M2004.07,-537.161C1999.67,-513.026 1983.95,-445.694 1941.5,-414 1891.15,-376.405 1442.78,-342.841 1383.5,-322 1340.11,-306.746 1294.45,-277.96 1268.91,-260.527"/>
<polygon fill="midnightblue" stroke="midnightblue" points="1270.67,-257.485 1260.46,-254.664 1266.68,-263.238 1270.67,-257.485"/>
</g>
<!-- Node33&#45;&gt;Node27 -->
<g id="edge79" class="edge"><title>Node33&#45;&gt;Node27</title>
<path fill="none" stroke="midnightblue" d="M2058.27,-537.456C2083.12,-531.067 2111.6,-520.014 2131.5,-501 2204.42,-431.33 2168.84,-379.344 2217.5,-291 2222.93,-281.133 2230.12,-270.844 2236.31,-262.599"/>
<polygon fill="midnightblue" stroke="midnightblue" points="2239.16,-264.627 2242.5,-254.57 2233.62,-260.353 2239.16,-264.627"/>
</g>
<!-- Node33&#45;&gt;Node34 -->
<g id="edge80" class="edge"><title>Node33&#45;&gt;Node34</title>
<path fill="none" stroke="midnightblue" d="M1961.43,-537.427C1918.51,-529.006 1851.17,-515.604 1784.2,-501.341"/>
<polygon fill="midnightblue" stroke="midnightblue" points="1784.84,-497.898 1774.33,-499.231 1783.38,-504.744 1784.84,-497.898"/>
</g>
<!-- Node33&#45;&gt;Node36 -->
<g id="edge95" class="edge"><title>Node33&#45;&gt;Node36</title>
<path fill="none" stroke="midnightblue" d="M1982.86,-537.475C1959.86,-528.814 1923.57,-515.145 1894.35,-504.141"/>
<polygon fill="midnightblue" stroke="midnightblue" points="1895.33,-500.772 1884.74,-500.523 1892.86,-507.323 1895.33,-500.772"/>
</g>
<!-- Node34&#45;&gt;Node2 -->
<g id="edge82" class="edge"><title>Node34&#45;&gt;Node2</title>
<path fill="none" stroke="midnightblue" d="M1662.98,-482.057C1446.67,-472.537 661.001,-437.961 430.489,-427.816"/>
<polygon fill="midnightblue" stroke="midnightblue" points="430.402,-424.309 420.258,-427.366 430.094,-431.302 430.402,-424.309"/>
</g>
<!-- Node34&#45;&gt;Node10 -->
<g id="edge94" class="edge"><title>Node34&#45;&gt;Node10</title>
<path fill="none" stroke="midnightblue" d="M1771.32,-470.48C1933,-427.286 2413.81,-296.648 2473.5,-255 2537.24,-210.52 2584.17,-127.407 2602.74,-90.7115"/>
<polygon fill="midnightblue" stroke="midnightblue" points="2606.11,-91.7989 2607.4,-81.2833 2599.83,-88.697 2606.11,-91.7989"/>
</g>
<!-- Node34&#45;&gt;Node27 -->
<g id="edge81" class="edge"><title>Node34&#45;&gt;Node27</title>
<path fill="none" stroke="midnightblue" d="M1741.38,-470.469C1798.75,-435.79 1954.12,-344.945 2093.5,-291 2129.67,-276.999 2172.03,-265.048 2203.47,-256.988"/>
<polygon fill="midnightblue" stroke="midnightblue" points="2204.44,-260.354 2213.28,-254.51 2202.72,-253.567 2204.44,-260.354"/>
</g>
<!-- Node34&#45;&gt;Node35 -->
<g id="edge83" class="edge"><title>Node34&#45;&gt;Node35</title>
<path fill="none" stroke="midnightblue" d="M1662.81,-480.665C1511.2,-470.224 1091.3,-441.308 924.306,-429.807"/>
<polygon fill="midnightblue" stroke="midnightblue" points="924.371,-426.304 914.154,-429.108 923.89,-433.287 924.371,-426.304"/>
</g>
<!-- Node35&#45;&gt;Node4 -->
<g id="edge84" class="edge"><title>Node35&#45;&gt;Node4</title>
<path fill="none" stroke="midnightblue" d="M838.153,-414.346C825.107,-406.576 807.427,-393.948 797.499,-378 776.871,-344.863 772.341,-327.748 785.499,-291 809.5,-223.968 880.486,-171.72 917.866,-147.973"/>
<polygon fill="midnightblue" stroke="midnightblue" points="919.943,-150.803 926.596,-142.558 916.253,-144.854 919.943,-150.803"/>
</g>
<!-- Node35&#45;&gt;Node9 -->
<g id="edge88" class="edge"><title>Node35&#45;&gt;Node9</title>
<path fill="none" stroke="midnightblue" d="M914.247,-422.31C1038.64,-419.204 1333.04,-403.095 1563.5,-322 1695.49,-275.554 1728.17,-246.349 1822.5,-143 1837.57,-126.493 1851.55,-104.943 1860.49,-90.0354"/>
<polygon fill="midnightblue" stroke="midnightblue" points="1863.57,-91.7151 1865.6,-81.3178 1857.53,-88.176 1863.57,-91.7151"/>
</g>
<!-- Node35&#45;&gt;Node10 -->
<g id="edge93" class="edge"><title>Node35&#45;&gt;Node10</title>
<path fill="none" stroke="midnightblue" d="M914.283,-422.474C1091.31,-420.539 1610.78,-412.036 1776.5,-378 1816.28,-369.83 2423.22,-136.563 2461.5,-123 2502.1,-108.611 2549.23,-92.9061 2579.66,-82.8935"/>
<polygon fill="midnightblue" stroke="midnightblue" points="2580.9,-86.171 2589.31,-79.7263 2578.72,-79.5203 2580.9,-86.171"/>
</g>
<!-- Node35&#45;&gt;Node11 -->
<g id="edge92" class="edge"><title>Node35&#45;&gt;Node11</title>
<path fill="none" stroke="midnightblue" d="M827.952,-414.417C804.361,-406.35 769.258,-393.256 740.499,-378 563.58,-284.145 371.522,-134.902 312.074,-87.4788"/>
<polygon fill="midnightblue" stroke="midnightblue" points="313.98,-84.5213 303.987,-81.0017 309.604,-89.9849 313.98,-84.5213"/>
</g>
<!-- Node35&#45;&gt;Node13 -->
<g id="edge89" class="edge"><title>Node35&#45;&gt;Node13</title>
<path fill="none" stroke="midnightblue" d="M914.236,-422.631C1102.62,-421.104 1676.25,-413.556 1751.5,-378 1772.25,-368.192 1872.28,-250.073 1908.97,-206.237"/>
<polygon fill="midnightblue" stroke="midnightblue" points="1911.7,-208.433 1915.42,-198.514 1906.33,-203.945 1911.7,-208.433"/>
</g>
<!-- Node35&#45;&gt;Node16 -->
<g id="edge87" class="edge"><title>Node35&#45;&gt;Node16</title>
<path fill="none" stroke="midnightblue" d="M882.703,-414.444C912.909,-405.28 961.01,-390.688 994.528,-380.519"/>
<polygon fill="midnightblue" stroke="midnightblue" points="995.873,-383.769 1004.43,-377.516 993.841,-377.07 995.873,-383.769"/>
</g>
<!-- Node35&#45;&gt;Node17 -->
<g id="edge85" class="edge"><title>Node35&#45;&gt;Node17</title>
<path fill="none" stroke="midnightblue" d="M845.163,-414.392C822.503,-392.449 768.518,-333.174 797.499,-291 839.679,-229.618 924.731,-205.523 986.73,-196.075"/>
<polygon fill="midnightblue" stroke="midnightblue" points="987.454,-199.508 996.859,-194.63 986.465,-192.578 987.454,-199.508"/>
</g>
<!-- Node35&#45;&gt;Node19 -->
<g id="edge86" class="edge"><title>Node35&#45;&gt;Node19</title>
<path fill="none" stroke="midnightblue" d="M904.976,-414.439C956.095,-405.671 1037.4,-391.457 1107.5,-378 1203.4,-359.59 1314.02,-336.436 1382.86,-321.797"/>
<polygon fill="midnightblue" stroke="midnightblue" points="1383.66,-325.206 1392.71,-319.7 1382.2,-318.36 1383.66,-325.206"/>
</g>
<!-- Node35&#45;&gt;Node23 -->
<g id="edge91" class="edge"><title>Node35&#45;&gt;Node23</title>
<path fill="none" stroke="midnightblue" d="M830.106,-414.495C810.867,-406.965 784.101,-394.59 764.499,-378 704.174,-326.947 656.025,-244.096 636.684,-207.889"/>
<polygon fill="midnightblue" stroke="midnightblue" points="639.56,-205.836 631.815,-198.606 633.361,-209.087 639.56,-205.836"/>
</g>
<!-- Node35&#45;&gt;Node32 -->
<g id="edge90" class="edge"><title>Node35&#45;&gt;Node32</title>
<path fill="none" stroke="midnightblue" d="M853.822,-414.319C852.376,-395.757 848.954,-351.839 846.977,-326.473"/>
<polygon fill="midnightblue" stroke="midnightblue" points="850.449,-325.98 846.183,-316.282 843.471,-326.524 850.449,-325.98"/>
</g>
<!-- Node36&#45;&gt;Node2 -->
<g id="edge97" class="edge"><title>Node36&#45;&gt;Node2</title>
<path fill="none" stroke="midnightblue" d="M1791.95,-471.389C1788.76,-470.861 1785.6,-470.391 1782.5,-470 1647.57,-452.959 688.758,-431.773 430.459,-426.325"/>
<polygon fill="midnightblue" stroke="midnightblue" points="430.197,-422.819 420.125,-426.108 430.049,-429.817 430.197,-422.819"/>
</g>
<!-- Node36&#45;&gt;Node10 -->
<g id="edge99" class="edge"><title>Node36&#45;&gt;Node10</title>
<path fill="none" stroke="midnightblue" d="M1881.57,-470.428C1972.68,-432.214 2228.35,-321.147 2424.5,-199 2486.5,-160.391 2557.32,-110.962 2591.27,-86.9232"/>
<polygon fill="midnightblue" stroke="midnightblue" points="2593.33,-89.7553 2599.46,-81.1128 2589.28,-84.0473 2593.33,-89.7553"/>
</g>
<!-- Node36&#45;&gt;Node27 -->
<g id="edge96" class="edge"><title>Node36&#45;&gt;Node27</title>
<path fill="none" stroke="midnightblue" d="M1859.79,-470.346C1882.83,-444.619 1935.1,-389.906 1989.5,-358 2031.69,-333.252 2048.32,-340.745 2093.5,-322 2140.7,-302.414 2193.85,-275.413 2224.33,-259.425"/>
<polygon fill="midnightblue" stroke="midnightblue" points="2226.19,-262.405 2233.4,-254.644 2222.92,-256.213 2226.19,-262.405"/>
</g>
<!-- Node36&#45;&gt;Node28 -->
<g id="edge100" class="edge"><title>Node36&#45;&gt;Node28</title>
<path fill="none" stroke="midnightblue" d="M1853.1,-470.295C1869.27,-429.26 1916.06,-310.551 1934.19,-264.534"/>
<polygon fill="midnightblue" stroke="midnightblue" points="1937.56,-265.533 1937.97,-254.946 1931.05,-262.966 1937.56,-265.533"/>
</g>
<!-- Node36&#45;&gt;Node35 -->
<g id="edge98" class="edge"><title>Node36&#45;&gt;Node35</title>
<path fill="none" stroke="midnightblue" d="M1791.94,-471.451C1788.76,-470.907 1785.59,-470.417 1782.5,-470 1464.3,-427.115 1079.88,-423.714 924.598,-424.323"/>
<polygon fill="midnightblue" stroke="midnightblue" points="924.244,-420.825 914.261,-424.371 924.277,-427.825 924.244,-420.825"/>
</g>
<!-- Node37&#45;&gt;Node2 -->
<g id="edge105" class="edge"><title>Node37&#45;&gt;Node2</title>
<path fill="none" stroke="midnightblue" d="M847.579,-537.419C806.419,-528.518 740.403,-514.096 683.499,-501 586.064,-478.576 472.142,-450.907 410.89,-435.912"/>
<polygon fill="midnightblue" stroke="midnightblue" points="411.707,-432.509 401.162,-433.529 410.042,-439.308 411.707,-432.509"/>
</g>
<!-- Node37&#45;&gt;Node38 -->
<g id="edge106" class="edge"><title>Node37&#45;&gt;Node38</title>
<path fill="none" stroke="midnightblue" d="M882.484,-537.475C877.338,-528.727 869.186,-514.869 862.681,-503.809"/>
<polygon fill="midnightblue" stroke="midnightblue" points="865.591,-501.854 857.504,-495.009 859.558,-505.403 865.591,-501.854"/>
</g>
<!-- Node39&#45;&gt;Node4 -->
<g id="edge119" class="edge"><title>Node39&#45;&gt;Node4</title>
<path fill="none" stroke="midnightblue" d="M1599.93,-769.444C1448.51,-767.046 899.521,-756.255 828.499,-725 699.92,-668.416 690.076,-613.165 605.499,-501 516.453,-382.909 402.544,-266.888 521.499,-179 575.654,-138.988 768.228,-133.224 872.773,-133.163"/>
<polygon fill="midnightblue" stroke="midnightblue" points="872.912,-136.663 882.916,-133.175 872.92,-129.663 872.912,-136.663"/>
</g>
<!-- Node39&#45;&gt;Node9 -->
<g id="edge136" class="edge"><title>Node39&#45;&gt;Node9</title>
<path fill="none" stroke="midnightblue" d="M1677.02,-764.74C1767.58,-751.102 1999.01,-708.775 2166.5,-613 2270.49,-553.535 2263.01,-492.417 2298.5,-378 2317.68,-316.144 2365.91,-286.393 2326.5,-235 2288.97,-186.064 2248.73,-224.327 2192.5,-199 2136.64,-173.839 2133.65,-147.512 2077.5,-123 2023.94,-99.6189 1957.66,-85.8639 1914.75,-78.7582"/>
<polygon fill="midnightblue" stroke="midnightblue" points="1915.06,-75.2635 1904.63,-77.1345 1913.95,-82.175 1915.06,-75.2635"/>
</g>
<!-- Node39&#45;&gt;Node10 -->
<g id="edge133" class="edge"><title>Node39&#45;&gt;Node10</title>
<path fill="none" stroke="midnightblue" d="M1677.03,-765.973C1732.03,-759.756 1835.97,-746.27 1922.5,-725 2225.36,-650.557 2329.88,-676.775 2587.5,-501 2648.61,-459.306 2801.5,-319.977 2801.5,-246 2801.5,-246 2801.5,-246 2801.5,-188 2801.5,-115.077 2698.04,-86.8841 2643.81,-77.1152"/>
<polygon fill="midnightblue" stroke="midnightblue" points="2644.11,-73.6161 2633.67,-75.3992 2642.94,-80.5181 2644.11,-73.6161"/>
</g>
<!-- Node39&#45;&gt;Node15 -->
<g id="edge120" class="edge"><title>Node39&#45;&gt;Node15</title>
<path fill="none" stroke="midnightblue" d="M1639.9,-761.075C1643.99,-734.945 1656.01,-658.211 1661.59,-622.577"/>
<polygon fill="midnightblue" stroke="midnightblue" points="1665.07,-622.989 1663.16,-612.568 1658.15,-621.906 1665.07,-622.989"/>
</g>
<!-- Node39&#45;&gt;Node30 -->
<g id="edge135" class="edge"><title>Node39&#45;&gt;Node30</title>
<path fill="none" stroke="midnightblue" d="M1599.97,-769.288C1434.77,-766.079 790.849,-751.936 704.499,-725 494.284,-659.426 390.96,-636.091 303.499,-434 290.512,-403.992 302.727,-305.961 308.671,-264.637"/>
<polygon fill="midnightblue" stroke="midnightblue" points="312.156,-264.993 310.155,-254.589 305.232,-263.97 312.156,-264.993"/>
</g>
<!-- Node39&#45;&gt;Node35 -->
<g id="edge121" class="edge"><title>Node39&#45;&gt;Node35</title>
<path fill="none" stroke="midnightblue" d="M1599.75,-769.306C1429.52,-765.757 756.499,-746.27 756.499,-660 756.499,-660 756.499,-660 756.499,-546 756.499,-498.473 802.72,-459.157 831.677,-439.189"/>
<polygon fill="midnightblue" stroke="midnightblue" points="833.652,-442.079 840.039,-433.626 829.774,-436.251 833.652,-442.079"/>
</g>
<!-- Node40 -->
<g id="node40" class="node"><title>Node40</title>
<g id="a_node40"><a xlink:href="span_8h.html" target="_top" xlink:title="Span information for debugging purposes. ">
<polygon fill="white" stroke="black" points="1892.5,-649.5 1892.5,-668.5 1972.5,-668.5 1972.5,-649.5 1892.5,-649.5"/>
<text text-anchor="middle" x="1932.5" y="-656.5" font-family="Helvetica,sans-Serif" font-size="10.00">tvm/ir/span.h</text>
</a>
</g>
</g>
<!-- Node39&#45;&gt;Node40 -->
<g id="edge122" class="edge"><title>Node39&#45;&gt;Node40</title>
<path fill="none" stroke="midnightblue" d="M1661.57,-761.368C1713.52,-741.93 1839.82,-694.674 1899.82,-672.228"/>
<polygon fill="midnightblue" stroke="midnightblue" points="1901.4,-675.374 1909.54,-668.591 1898.94,-668.818 1901.4,-675.374"/>
</g>
<!-- Node41 -->
<g id="node41" class="node"><title>Node41</title>
<g id="a_node41"><a xlink:href="ir_2type_8h.html" target="_top" xlink:title="IR/AST nodes for the unified type system in TVM. ">
<polygon fill="white" stroke="black" points="1667,-705.5 1667,-724.5 1744,-724.5 1744,-705.5 1667,-705.5"/>
<text text-anchor="middle" x="1705.5" y="-712.5" font-family="Helvetica,sans-Serif" font-size="10.00">tvm/ir/type.h</text>
</a>
</g>
</g>
<!-- Node39&#45;&gt;Node41 -->
<g id="edge126" class="edge"><title>Node39&#45;&gt;Node41</title>
<path fill="none" stroke="midnightblue" d="M1649.26,-761.324C1659.26,-753.263 1674.39,-741.077 1686.43,-731.369"/>
<polygon fill="midnightblue" stroke="midnightblue" points="1688.95,-733.834 1694.54,-724.834 1684.56,-728.384 1688.95,-733.834"/>
</g>
<!-- Node39&#45;&gt;Node42 -->
<g id="edge134" class="edge"><title>Node39&#45;&gt;Node42</title>
<path fill="none" stroke="midnightblue" d="M1599.79,-770.398C1465.14,-771.332 1004.85,-770.747 628.499,-725 627.392,-724.865 626.271,-724.719 625.141,-724.561"/>
<polygon fill="midnightblue" stroke="midnightblue" points="625.3,-721.042 614.871,-722.911 624.189,-727.953 625.3,-721.042"/>
</g>
<!-- Node40&#45;&gt;Node4 -->
<g id="edge123" class="edge"><title>Node40&#45;&gt;Node4</title>
<path fill="none" stroke="midnightblue" d="M1892.4,-656.316C1703.72,-648.133 909.379,-610.721 813.499,-557 637.567,-458.428 428.57,-329.771 562.499,-179 582.701,-156.257 768.936,-142.988 872.61,-137.303"/>
<polygon fill="midnightblue" stroke="midnightblue" points="872.886,-140.793 882.683,-136.76 872.509,-133.803 872.886,-140.793"/>
</g>
<!-- Node40&#45;&gt;Node10 -->
<g id="edge125" class="edge"><title>Node40&#45;&gt;Node10</title>
<path fill="none" stroke="midnightblue" d="M1972.68,-653.645C2019.98,-647.753 2100.46,-635.319 2166.5,-613 2391.43,-536.978 2440.33,-483.358 2614.5,-322 2648.86,-290.17 2687.5,-292.836 2687.5,-246 2687.5,-246 2687.5,-246 2687.5,-188 2687.5,-146.312 2652.52,-108.03 2630.02,-87.7185"/>
<polygon fill="midnightblue" stroke="midnightblue" points="2632.23,-84.9985 2622.39,-81.0755 2627.64,-90.2796 2632.23,-84.9985"/>
</g>
<!-- Node40&#45;&gt;Node15 -->
<g id="edge124" class="edge"><title>Node40&#45;&gt;Node15</title>
<path fill="none" stroke="midnightblue" d="M1892.38,-649.916C1845.7,-640.51 1768.47,-624.949 1717.04,-614.586"/>
<polygon fill="midnightblue" stroke="midnightblue" points="1717.61,-611.131 1707.11,-612.587 1716.23,-617.993 1717.61,-611.131"/>
</g>
<!-- Node41&#45;&gt;Node4 -->
<g id="edge127" class="edge"><title>Node41&#45;&gt;Node4</title>
<path fill="none" stroke="midnightblue" d="M1666.83,-713.197C1512.37,-709.815 944.303,-695.66 868.499,-669 686.22,-604.892 654.788,-537.346 545.499,-378 495.471,-305.059 477.45,-237.828 543.499,-179 567.55,-157.578 765.252,-143.593 872.656,-137.501"/>
<polygon fill="midnightblue" stroke="midnightblue" points="872.97,-140.989 882.759,-136.936 872.579,-134 872.97,-140.989"/>
</g>
<!-- Node41&#45;&gt;Node10 -->
<g id="edge132" class="edge"><title>Node41&#45;&gt;Node10</title>
<path fill="none" stroke="midnightblue" d="M1744.09,-711.53C1860.2,-702.411 2212.49,-662.236 2443.5,-501 2573.42,-410.32 2652.3,-405.605 2701.5,-255 2719.88,-198.717 2718.62,-170.666 2683.5,-123 2671.95,-107.325 2654.04,-94.7346 2638.97,-86.046"/>
<polygon fill="midnightblue" stroke="midnightblue" points="2640.49,-82.8874 2630.04,-81.1475 2637.12,-89.025 2640.49,-82.8874"/>
</g>
<!-- Node41&#45;&gt;Node15 -->
<g id="edge129" class="edge"><title>Node41&#45;&gt;Node15</title>
<path fill="none" stroke="midnightblue" d="M1702.28,-705.368C1695.64,-687.537 1680.26,-646.295 1671.31,-622.272"/>
<polygon fill="midnightblue" stroke="midnightblue" points="1674.47,-620.739 1667.7,-612.591 1667.91,-623.184 1674.47,-620.739"/>
</g>
<!-- Node41&#45;&gt;Node27 -->
<g id="edge128" class="edge"><title>Node41&#45;&gt;Node27</title>
<path fill="none" stroke="midnightblue" d="M1727.24,-705.473C1760.6,-692.525 1826.54,-667.459 1883.5,-649 2025.9,-602.851 2109.45,-670.112 2207.5,-557 2245.64,-513.001 2249.37,-325.66 2249.56,-265.022"/>
<polygon fill="midnightblue" stroke="midnightblue" points="2253.06,-264.663 2249.56,-254.663 2246.06,-264.663 2253.06,-264.663"/>
</g>
<!-- Node41&#45;&gt;Node35 -->
<g id="edge130" class="edge"><title>Node41&#45;&gt;Node35</title>
<path fill="none" stroke="midnightblue" d="M1666.94,-713.465C1493.54,-710.56 794.499,-693.312 794.499,-604 794.499,-604 794.499,-604 794.499,-546 794.499,-511.183 797.053,-500.688 813.499,-470 819.4,-458.987 828.595,-448.549 836.782,-440.504"/>
<polygon fill="midnightblue" stroke="midnightblue" points="839.27,-442.969 844.183,-433.583 834.489,-437.857 839.27,-442.969"/>
</g>
<!-- Node41&#45;&gt;Node40 -->
<g id="edge131" class="edge"><title>Node41&#45;&gt;Node40</title>
<path fill="none" stroke="midnightblue" d="M1741.47,-705.444C1780.82,-696.083 1843.99,-681.056 1886.81,-670.868"/>
<polygon fill="midnightblue" stroke="midnightblue" points="1887.78,-674.236 1896.7,-668.516 1886.16,-667.426 1887.78,-674.236"/>
</g>
<!-- Node43&#45;&gt;Node10 -->
<g id="edge141" class="edge"><title>Node43&#45;&gt;Node10</title>
<path fill="none" stroke="midnightblue" d="M2127.57,-826.613C2194.37,-826.587 2338.48,-821.338 2451.5,-781 2495.51,-765.291 2506.31,-756.864 2540.5,-725 2608.19,-661.906 2613.29,-634.735 2663.5,-557 2674.27,-540.323 2839.5,-265.853 2839.5,-246 2839.5,-246 2839.5,-246 2839.5,-188 2839.5,-101.382 2706.93,-79.7038 2643.97,-74.2927"/>
<polygon fill="midnightblue" stroke="midnightblue" points="2644.01,-70.7862 2633.78,-73.5074 2643.48,-77.7655 2644.01,-70.7862"/>
</g>
<!-- Node43&#45;&gt;Node15 -->
<g id="edge138" class="edge"><title>Node43&#45;&gt;Node15</title>
<path fill="none" stroke="midnightblue" d="M2088,-817.106C2079.17,-787.463 2046.4,-691.516 1981.5,-649 1940.22,-621.963 1803.75,-610.784 1723.96,-606.471"/>
<polygon fill="midnightblue" stroke="midnightblue" points="1723.74,-602.955 1713.57,-605.931 1723.37,-609.946 1723.74,-602.955"/>
</g>
<!-- Node43&#45;&gt;Node27 -->
<g id="edge139" class="edge"><title>Node43&#45;&gt;Node27</title>
<path fill="none" stroke="midnightblue" d="M2127.6,-825.936C2240.7,-823.612 2573.5,-800.111 2573.5,-604 2573.5,-604 2573.5,-604 2573.5,-484.5 2573.5,-351.773 2386.64,-473.531 2294.5,-378 2278.56,-361.476 2261.54,-296.997 2253.79,-264.679"/>
<polygon fill="midnightblue" stroke="midnightblue" points="2257.14,-263.656 2251.45,-254.721 2250.33,-265.256 2257.14,-263.656"/>
</g>
<!-- Node43&#45;&gt;Node39 -->
<g id="edge140" class="edge"><title>Node43&#45;&gt;Node39</title>
<path fill="none" stroke="midnightblue" d="M2053.13,-821.535C1971.66,-811.803 1778.13,-788.681 1687.23,-777.822"/>
<polygon fill="midnightblue" stroke="midnightblue" points="1687.54,-774.334 1677.19,-776.623 1686.71,-781.285 1687.54,-774.334"/>
</g>
<!-- Node44&#45;&gt;Node10 -->
<g id="edge146" class="edge"><title>Node44&#45;&gt;Node10</title>
<path fill="none" stroke="midnightblue" d="M1682.42,-881.916C1809.84,-880.591 2189.47,-868.978 2488.5,-781 2616.6,-743.311 2763.5,-793.53 2763.5,-660 2763.5,-660 2763.5,-660 2763.5,-484.5 2763.5,-390.929 2877.5,-401.071 2877.5,-307.5 2877.5,-307.5 2877.5,-307.5 2877.5,-188 2877.5,-87.1962 2714.79,-73.4209 2643.88,-72.2036"/>
<polygon fill="midnightblue" stroke="midnightblue" points="2643.75,-68.7024 2633.72,-72.1054 2643.69,-75.702 2643.75,-68.7024"/>
</g>
<!-- Node44&#45;&gt;Node35 -->
<g id="edge143" class="edge"><title>Node44&#45;&gt;Node35</title>
<path fill="none" stroke="midnightblue" d="M1594.79,-880.247C1469.93,-873.856 1103,-845.367 828.499,-725 790.073,-708.151 774.652,-704.632 752.499,-669 721.434,-619.035 732.049,-594.899 742.499,-537 748.144,-505.722 746.415,-493.784 767.499,-470 780.606,-455.214 799.738,-444.58 816.725,-437.375"/>
<polygon fill="midnightblue" stroke="midnightblue" points="818.417,-440.469 826.418,-433.523 815.832,-433.963 818.417,-440.469"/>
</g>
<!-- Node44&#45;&gt;Node39 -->
<g id="edge144" class="edge"><title>Node44&#45;&gt;Node39</title>
<path fill="none" stroke="midnightblue" d="M1638.5,-873.368C1638.5,-855.617 1638.5,-814.666 1638.5,-790.597"/>
<polygon fill="midnightblue" stroke="midnightblue" points="1642,-790.591 1638.5,-780.591 1635,-790.591 1642,-790.591"/>
</g>
<!-- Node44&#45;&gt;Node43 -->
<g id="edge145" class="edge"><title>Node44&#45;&gt;Node43</title>
<path fill="none" stroke="midnightblue" d="M1682.25,-876.773C1767.6,-866.576 1955.64,-844.111 2043.52,-833.613"/>
<polygon fill="midnightblue" stroke="midnightblue" points="2043.96,-837.085 2053.47,-832.424 2043.13,-830.135 2043.96,-837.085"/>
</g>
<!-- Node45&#45;&gt;Node9 -->
<g id="edge155" class="edge"><title>Node45&#45;&gt;Node9</title>
<path fill="none" stroke="midnightblue" d="M660.125,-994.223C967.835,-995.604 2877.5,-999.526 2877.5,-884 2877.5,-884 2877.5,-884 2877.5,-602 2877.5,-400.859 2300.12,-187.197 2109.5,-123 2043.41,-100.743 1963.62,-86.243 1914.99,-78.7179"/>
<polygon fill="midnightblue" stroke="midnightblue" points="1915.22,-75.2127 1904.81,-77.1738 1914.17,-82.1336 1915.22,-75.2127"/>
</g>
<!-- Node45&#45;&gt;Node10 -->
<g id="edge156" class="edge"><title>Node45&#45;&gt;Node10</title>
<path fill="none" stroke="midnightblue" d="M660.308,-993.605C934.264,-990.951 2468.16,-975.009 2674.5,-949 2800.82,-933.077 2953.5,-1011.32 2953.5,-884 2953.5,-884 2953.5,-884 2953.5,-188 2953.5,-149.868 2930.64,-141.854 2897.5,-123 2854.43,-98.4983 2708.89,-81.8507 2643.63,-75.4407"/>
<polygon fill="midnightblue" stroke="midnightblue" points="2643.8,-71.9408 2633.51,-74.4658 2643.13,-78.9085 2643.8,-71.9408"/>
</g>
<!-- Node45&#45;&gt;Node11 -->
<g id="edge158" class="edge"><title>Node45&#45;&gt;Node11</title>
<path fill="none" stroke="midnightblue" d="M576.865,-990.305C504.169,-982.299 351.371,-958.463 241.499,-893 136.311,-830.328 94.4988,-782.443 94.4988,-660 94.4988,-660 94.4988,-660 94.4988,-188 94.4988,-111.444 206.027,-84.7806 262.097,-76.2132"/>
<polygon fill="midnightblue" stroke="midnightblue" points="262.796,-79.6491 272.202,-74.7737 261.809,-72.7191 262.796,-79.6491"/>
</g>
<!-- Node45&#45;&gt;Node13 -->
<g id="edge157" class="edge"><title>Node45&#45;&gt;Node13</title>
<path fill="none" stroke="midnightblue" d="M660.113,-994.074C955.662,-994.337 2725.5,-991.428 2725.5,-884 2725.5,-884 2725.5,-884 2725.5,-602 2725.5,-469.369 2416.82,-272.228 2326.5,-235 2259.63,-207.435 2040.82,-195.162 1956.27,-191.365"/>
<polygon fill="midnightblue" stroke="midnightblue" points="1956.32,-187.864 1946.18,-190.924 1956.02,-194.857 1956.32,-187.864"/>
</g>
<!-- Node45&#45;&gt;Node14 -->
<g id="edge154" class="edge"><title>Node45&#45;&gt;Node14</title>
<path fill="none" stroke="midnightblue" d="M612.719,-985.083C607.826,-977.534 600.671,-966.495 594.666,-957.23"/>
<polygon fill="midnightblue" stroke="midnightblue" points="597.547,-955.239 589.171,-948.751 591.673,-959.046 597.547,-955.239"/>
</g>
<!-- Node46&#45;&gt;Node2 -->
<g id="edge160" class="edge"><title>Node46&#45;&gt;Node2</title>
<path fill="none" stroke="midnightblue" d="M89.2832,-985.451C90.9095,-966.962 94.4988,-921.869 94.4988,-884 94.4988,-884 94.4988,-884 94.4988,-826 94.4988,-646.432 283.612,-487.519 346.463,-439.663"/>
<polygon fill="midnightblue" stroke="midnightblue" points="348.566,-442.461 354.46,-433.657 344.362,-436.864 348.566,-442.461"/>
</g>
<!-- Node46&#45;&gt;Node11 -->
<g id="edge162" class="edge"><title>Node46&#45;&gt;Node11</title>
<path fill="none" stroke="midnightblue" d="M84.1831,-985.408C75.4485,-967.2 56.4988,-923.181 56.4988,-884 56.4988,-884 56.4988,-884 56.4988,-188 56.4988,-157.205 57.4474,-143.42 80.4988,-123 107.246,-99.306 209.626,-83.1729 262.095,-76.2774"/>
<polygon fill="midnightblue" stroke="midnightblue" points="262.713,-79.7268 272.187,-74.9843 261.824,-72.7836 262.713,-79.7268"/>
</g>
<!-- Node46&#45;&gt;Node14 -->
<g id="edge161" class="edge"><title>Node46&#45;&gt;Node14</title>
<path fill="none" stroke="midnightblue" d="M148.207,-987.486C246.627,-976.75 441.157,-955.528 533.1,-945.498"/>
<polygon fill="midnightblue" stroke="midnightblue" points="533.701,-948.953 543.262,-944.389 532.941,-941.995 533.701,-948.953"/>
</g>
</g>
</svg>
