<?xml version="1.0" encoding="UTF-8" standalone="no"?>
<!DOCTYPE svg PUBLIC "-//W3C//DTD SVG 1.1//EN"
 "http://www.w3.org/Graphics/SVG/1.1/DTD/svg11.dtd">
<!-- Generated by graphviz version 2.38.0 (20140413.2041)
 -->
<!-- Title: tvm::relay::YoloReorgAttrs Pages: 1 -->
<svg width="380pt" height="793pt"
 viewBox="0.00 0.00 380.00 793.00" xmlns="http://www.w3.org/2000/svg" xmlns:xlink="http://www.w3.org/1999/xlink">
<g id="graph0" class="graph" transform="scale(1 1) rotate(0) translate(4 789)">
<title>tvm::relay::YoloReorgAttrs</title>
<polygon fill="white" stroke="none" points="-4,4 -4,-789 376,-789 376,4 -4,4"/>
<!-- Node1 -->
<g id="node1" class="node"><title>Node1</title>
<polygon fill="#bfbfbf" stroke="black" points="151,-0.5 151,-57.5 291,-57.5 291,-0.5 151,-0.5"/>
<text text-anchor="middle" x="221" y="-45.5" font-family="Helvetica,sans-Serif" font-size="10.00">tvm::relay::YoloReorgAttrs</text>
<polyline fill="none" stroke="black" points="151,-38.5 291,-38.5 "/>
<text text-anchor="middle" x="221" y="-26.5" font-family="Helvetica,sans-Serif" font-size="10.00"> </text>
<polyline fill="none" stroke="black" points="151,-19.5 291,-19.5 "/>
<text text-anchor="start" x="159" y="-7.5" font-family="Helvetica,sans-Serif" font-size="10.00">+ TVM_DECLARE_ATTRS()</text>
</g>
<!-- Node2 -->
<g id="node2" class="node"><title>Node2</title>
<g id="a_node2"><a xlink:href="classtvm_1_1AttrsNode.html" target="_top" xlink:title="{tvm::AttrsNode\&lt; YoloReorg\lAttrs \&gt;\n||+ VisitAttrs()\l+ VisitNonDefaultAttrs()\l+ InitByPackedArgs()\l+ SEqualReduce()\l+ SHashReduce()\l+ ListFieldInfo()\l}">
<polygon fill="white" stroke="black" points="58,-105.5 58,-228.5 204,-228.5 204,-105.5 58,-105.5"/>
<text text-anchor="start" x="66" y="-216.5" font-family="Helvetica,sans-Serif" font-size="10.00">tvm::AttrsNode&lt; YoloReorg</text>
<text text-anchor="middle" x="131" y="-205.5" font-family="Helvetica,sans-Serif" font-size="10.00">Attrs &gt;</text>
<polyline fill="none" stroke="black" points="58,-198.5 204,-198.5 "/>
<text text-anchor="middle" x="131" y="-186.5" font-family="Helvetica,sans-Serif" font-size="10.00"> </text>
<polyline fill="none" stroke="black" points="58,-179.5 204,-179.5 "/>
<text text-anchor="start" x="66" y="-167.5" font-family="Helvetica,sans-Serif" font-size="10.00">+ VisitAttrs()</text>
<text text-anchor="start" x="66" y="-156.5" font-family="Helvetica,sans-Serif" font-size="10.00">+ VisitNonDefaultAttrs()</text>
<text text-anchor="start" x="66" y="-145.5" font-family="Helvetica,sans-Serif" font-size="10.00">+ InitByPackedArgs()</text>
<text text-anchor="start" x="66" y="-134.5" font-family="Helvetica,sans-Serif" font-size="10.00">+ SEqualReduce()</text>
<text text-anchor="start" x="66" y="-123.5" font-family="Helvetica,sans-Serif" font-size="10.00">+ SHashReduce()</text>
<text text-anchor="start" x="66" y="-112.5" font-family="Helvetica,sans-Serif" font-size="10.00">+ ListFieldInfo()</text>
</a>
</g>
</g>
<!-- Node2&#45;&gt;Node1 -->
<g id="edge1" class="edge"><title>Node2&#45;&gt;Node1</title>
<path fill="none" stroke="midnightblue" d="M176.929,-96.5963C186.042,-82.8258 195.104,-69.1321 202.619,-57.7753"/>
<polygon fill="none" stroke="midnightblue" points="173.862,-94.8892 171.262,-105.16 179.699,-98.7523 173.862,-94.8892"/>
</g>
<!-- Node3 -->
<g id="node3" class="node"><title>Node3</title>
<g id="a_node3"><a xlink:href="classtvm_1_1BaseAttrsNode.html" target="_top" xlink:title="Base class of all attribute class. ">
<polygon fill="white" stroke="black" points="0,-266.5 0,-444.5 204,-444.5 204,-266.5 0,-266.5"/>
<text text-anchor="middle" x="102" y="-432.5" font-family="Helvetica,sans-Serif" font-size="10.00">tvm::BaseAttrsNode</text>
<polyline fill="none" stroke="black" points="0,-425.5 204,-425.5 "/>
<text text-anchor="start" x="8" y="-413.5" font-family="Helvetica,sans-Serif" font-size="10.00">+ _type_has_method_sequal</text>
<text text-anchor="start" x="8" y="-402.5" font-family="Helvetica,sans-Serif" font-size="10.00">_reduce</text>
<text text-anchor="start" x="8" y="-391.5" font-family="Helvetica,sans-Serif" font-size="10.00">+ _type_has_method_shash</text>
<text text-anchor="start" x="8" y="-380.5" font-family="Helvetica,sans-Serif" font-size="10.00">_reduce</text>
<text text-anchor="start" x="8" y="-369.5" font-family="Helvetica,sans-Serif" font-size="10.00">+ _type_key</text>
<polyline fill="none" stroke="black" points="0,-362.5 204,-362.5 "/>
<text text-anchor="start" x="8" y="-350.5" font-family="Helvetica,sans-Serif" font-size="10.00">+ ~BaseAttrsNode()</text>
<text text-anchor="start" x="8" y="-339.5" font-family="Helvetica,sans-Serif" font-size="10.00">+ VisitAttrs()</text>
<text text-anchor="start" x="8" y="-328.5" font-family="Helvetica,sans-Serif" font-size="10.00">+ InitBySeq()</text>
<text text-anchor="start" x="8" y="-317.5" font-family="Helvetica,sans-Serif" font-size="10.00">+ PrintDocString()</text>
<text text-anchor="start" x="8" y="-306.5" font-family="Helvetica,sans-Serif" font-size="10.00">+ VisitNonDefaultAttrs()</text>
<text text-anchor="start" x="8" y="-295.5" font-family="Helvetica,sans-Serif" font-size="10.00">+ ListFieldInfo()</text>
<text text-anchor="start" x="8" y="-284.5" font-family="Helvetica,sans-Serif" font-size="10.00">+ InitByPackedArgs()</text>
<text text-anchor="start" x="8" y="-273.5" font-family="Helvetica,sans-Serif" font-size="10.00">+ TVM_DECLARE_BASE_OBJECT_INFO()</text>
</a>
</g>
</g>
<!-- Node3&#45;&gt;Node2 -->
<g id="edge2" class="edge"><title>Node3&#45;&gt;Node2</title>
<path fill="none" stroke="midnightblue" d="M117.237,-256.508C118.718,-246.986 120.188,-237.53 121.586,-228.539"/>
<polygon fill="none" stroke="midnightblue" points="113.771,-256.019 115.693,-266.438 120.688,-257.095 113.771,-256.019"/>
</g>
<!-- Node4 -->
<g id="node4" class="node"><title>Node4</title>
<polygon fill="white" stroke="#bfbfbf" points="78.5,-504.5 78.5,-561.5 125.5,-561.5 125.5,-504.5 78.5,-504.5"/>
<text text-anchor="middle" x="102" y="-549.5" font-family="Helvetica,sans-Serif" font-size="10.00">Object</text>
<polyline fill="none" stroke="#bfbfbf" points="78.5,-542.5 125.5,-542.5 "/>
<text text-anchor="middle" x="102" y="-530.5" font-family="Helvetica,sans-Serif" font-size="10.00"> </text>
<polyline fill="none" stroke="#bfbfbf" points="78.5,-523.5 125.5,-523.5 "/>
<text text-anchor="middle" x="102" y="-511.5" font-family="Helvetica,sans-Serif" font-size="10.00"> </text>
</g>
<!-- Node4&#45;&gt;Node3 -->
<g id="edge3" class="edge"><title>Node4&#45;&gt;Node3</title>
<path fill="none" stroke="midnightblue" d="M102,-494.053C102,-479.402 102,-461.983 102,-444.548"/>
<polygon fill="none" stroke="midnightblue" points="98.5001,-494.191 102,-504.192 105.5,-494.192 98.5001,-494.191"/>
</g>
<!-- Node5 -->
<g id="node5" class="node"><title>Node5</title>
<g id="a_node5"><a xlink:href="classtvm_1_1Integer.html" target="_top" xlink:title="Container of constant int that adds more constructors. ">
<polygon fill="white" stroke="black" points="225.5,-105.5 225.5,-228.5 338.5,-228.5 338.5,-105.5 225.5,-105.5"/>
<text text-anchor="middle" x="282" y="-216.5" font-family="Helvetica,sans-Serif" font-size="10.00">tvm::Integer</text>
<polyline fill="none" stroke="black" points="225.5,-209.5 338.5,-209.5 "/>
<text text-anchor="middle" x="282" y="-197.5" font-family="Helvetica,sans-Serif" font-size="10.00"> </text>
<polyline fill="none" stroke="black" points="225.5,-190.5 338.5,-190.5 "/>
<text text-anchor="start" x="233.5" y="-178.5" font-family="Helvetica,sans-Serif" font-size="10.00">+ Integer()</text>
<text text-anchor="start" x="233.5" y="-167.5" font-family="Helvetica,sans-Serif" font-size="10.00">+ Integer()</text>
<text text-anchor="start" x="233.5" y="-156.5" font-family="Helvetica,sans-Serif" font-size="10.00">+ Integer()</text>
<text text-anchor="start" x="233.5" y="-145.5" font-family="Helvetica,sans-Serif" font-size="10.00">+ Integer()</text>
<text text-anchor="start" x="233.5" y="-134.5" font-family="Helvetica,sans-Serif" font-size="10.00">+ Integer()</text>
<text text-anchor="start" x="233.5" y="-123.5" font-family="Helvetica,sans-Serif" font-size="10.00">+ operator=()</text>
<text text-anchor="start" x="233.5" y="-112.5" font-family="Helvetica,sans-Serif" font-size="10.00">+ operator int64_t()</text>
</a>
</g>
</g>
<!-- Node5&#45;&gt;Node1 -->
<g id="edge4" class="edge"><title>Node5&#45;&gt;Node1</title>
<path fill="none" stroke="#404040" d="M254.711,-105.16C249.202,-92.8773 243.552,-80.2794 238.49,-68.9934"/>
<polygon fill="none" stroke="#404040" points="238.369,-68.7244 232.264,-64.8869 233.458,-57.7753 239.563,-61.6129 238.369,-68.7244"/>
<text text-anchor="middle" x="265.5" y="-79" font-family="Helvetica,sans-Serif" font-size="10.00"> +stride</text>
</g>
<!-- Node6 -->
<g id="node6" class="node"><title>Node6</title>
<g id="a_node6"><a xlink:href="classtvm_1_1IntImm.html" target="_top" xlink:title="Managed reference class to IntImmNode. ">
<polygon fill="white" stroke="black" points="222,-316 222,-395 372,-395 372,-316 222,-316"/>
<text text-anchor="middle" x="297" y="-383" font-family="Helvetica,sans-Serif" font-size="10.00">tvm::IntImm</text>
<polyline fill="none" stroke="black" points="222,-376 372,-376 "/>
<text text-anchor="middle" x="297" y="-364" font-family="Helvetica,sans-Serif" font-size="10.00"> </text>
<polyline fill="none" stroke="black" points="222,-357 372,-357 "/>
<text text-anchor="start" x="230" y="-345" font-family="Helvetica,sans-Serif" font-size="10.00">+ IntImm()</text>
<text text-anchor="start" x="230" y="-334" font-family="Helvetica,sans-Serif" font-size="10.00">+ TVM_DEFINE_OBJECT_REF</text>
<text text-anchor="start" x="230" y="-323" font-family="Helvetica,sans-Serif" font-size="10.00">_METHODS()</text>
</a>
</g>
</g>
<!-- Node6&#45;&gt;Node5 -->
<g id="edge5" class="edge"><title>Node6&#45;&gt;Node5</title>
<path fill="none" stroke="midnightblue" d="M293.078,-305.738C291.181,-282.15 288.885,-253.6 286.876,-228.624"/>
<polygon fill="none" stroke="midnightblue" points="289.601,-306.17 293.892,-315.857 296.579,-305.609 289.601,-306.17"/>
</g>
<!-- Node7 -->
<g id="node7" class="node"><title>Node7</title>
<g id="a_node7"><a xlink:href="classtvm_1_1PrimExpr.html" target="_top" xlink:title="Reference to PrimExprNode. ">
<polygon fill="white" stroke="black" points="222,-482.5 222,-583.5 372,-583.5 372,-482.5 222,-482.5"/>
<text text-anchor="middle" x="297" y="-571.5" font-family="Helvetica,sans-Serif" font-size="10.00">tvm::PrimExpr</text>
<polyline fill="none" stroke="black" points="222,-564.5 372,-564.5 "/>
<text text-anchor="middle" x="297" y="-552.5" font-family="Helvetica,sans-Serif" font-size="10.00"> </text>
<polyline fill="none" stroke="black" points="222,-545.5 372,-545.5 "/>
<text text-anchor="start" x="230" y="-533.5" font-family="Helvetica,sans-Serif" font-size="10.00">+ PrimExpr()</text>
<text text-anchor="start" x="230" y="-522.5" font-family="Helvetica,sans-Serif" font-size="10.00">+ PrimExpr()</text>
<text text-anchor="start" x="230" y="-511.5" font-family="Helvetica,sans-Serif" font-size="10.00">+ dtype()</text>
<text text-anchor="start" x="230" y="-500.5" font-family="Helvetica,sans-Serif" font-size="10.00">+ TVM_DEFINE_OBJECT_REF</text>
<text text-anchor="start" x="230" y="-489.5" font-family="Helvetica,sans-Serif" font-size="10.00">_METHODS()</text>
</a>
</g>
</g>
<!-- Node7&#45;&gt;Node6 -->
<g id="edge6" class="edge"><title>Node7&#45;&gt;Node6</title>
<path fill="none" stroke="midnightblue" d="M297,-471.88C297,-446.425 297,-417.517 297,-395.004"/>
<polygon fill="none" stroke="midnightblue" points="293.5,-472.178 297,-482.178 300.5,-472.178 293.5,-472.178"/>
</g>
<!-- Node8 -->
<g id="node8" class="node"><title>Node8</title>
<g id="a_node8"><a xlink:href="classtvm_1_1BaseExpr.html" target="_top" xlink:title="Managed reference to BaseExprNode. ">
<polygon fill="white" stroke="black" points="222,-621.5 222,-689.5 372,-689.5 372,-621.5 222,-621.5"/>
<text text-anchor="middle" x="297" y="-677.5" font-family="Helvetica,sans-Serif" font-size="10.00">tvm::BaseExpr</text>
<polyline fill="none" stroke="black" points="222,-670.5 372,-670.5 "/>
<text text-anchor="middle" x="297" y="-658.5" font-family="Helvetica,sans-Serif" font-size="10.00"> </text>
<polyline fill="none" stroke="black" points="222,-651.5 372,-651.5 "/>
<text text-anchor="start" x="230" y="-639.5" font-family="Helvetica,sans-Serif" font-size="10.00">+ TVM_DEFINE_OBJECT_REF</text>
<text text-anchor="start" x="230" y="-628.5" font-family="Helvetica,sans-Serif" font-size="10.00">_METHODS()</text>
</a>
</g>
</g>
<!-- Node8&#45;&gt;Node7 -->
<g id="edge7" class="edge"><title>Node8&#45;&gt;Node7</title>
<path fill="none" stroke="midnightblue" d="M297,-611.151C297,-602.293 297,-592.906 297,-583.842"/>
<polygon fill="none" stroke="midnightblue" points="293.5,-611.254 297,-621.254 300.5,-611.254 293.5,-611.254"/>
</g>
<!-- Node9 -->
<g id="node9" class="node"><title>Node9</title>
<polygon fill="white" stroke="#bfbfbf" points="266,-727.5 266,-784.5 328,-784.5 328,-727.5 266,-727.5"/>
<text text-anchor="middle" x="297" y="-772.5" font-family="Helvetica,sans-Serif" font-size="10.00">ObjectRef</text>
<polyline fill="none" stroke="#bfbfbf" points="266,-765.5 328,-765.5 "/>
<text text-anchor="middle" x="297" y="-753.5" font-family="Helvetica,sans-Serif" font-size="10.00"> </text>
<polyline fill="none" stroke="#bfbfbf" points="266,-746.5 328,-746.5 "/>
<text text-anchor="middle" x="297" y="-734.5" font-family="Helvetica,sans-Serif" font-size="10.00"> </text>
</g>
<!-- Node9&#45;&gt;Node8 -->
<g id="edge8" class="edge"><title>Node9&#45;&gt;Node8</title>
<path fill="none" stroke="midnightblue" d="M297,-717.007C297,-707.962 297,-698.383 297,-689.578"/>
<polygon fill="none" stroke="midnightblue" points="293.5,-717.3 297,-727.3 300.5,-717.3 293.5,-717.3"/>
</g>
</g>
</svg>
