<?xml version="1.0" encoding="UTF-8" standalone="no"?>
<!DOCTYPE svg PUBLIC "-//W3C//DTD SVG 1.1//EN"
 "http://www.w3.org/Graphics/SVG/1.1/DTD/svg11.dtd">
<!-- Generated by graphviz version 2.38.0 (20140413.2041)
 -->
<!-- Title: include/tvm/target/target.h Pages: 1 -->
<svg width="2711pt" height="856pt"
 viewBox="0.00 0.00 2711.00 856.00" xmlns="http://www.w3.org/2000/svg" xmlns:xlink="http://www.w3.org/1999/xlink">
<g id="graph0" class="graph" transform="scale(1 1) rotate(0) translate(4 852)">
<title>include/tvm/target/target.h</title>
<polygon fill="white" stroke="none" points="-4,4 -4,-852 2707,-852 2707,4 -4,4"/>
<!-- Node1 -->
<g id="node1" class="node"><title>Node1</title>
<polygon fill="#bfbfbf" stroke="black" points="176,-817.5 176,-847.5 280,-847.5 280,-817.5 176,-817.5"/>
<text text-anchor="start" x="184" y="-835.5" font-family="Helvetica,sans-Serif" font-size="10.00">include/tvm/target</text>
<text text-anchor="middle" x="228" y="-824.5" font-family="Helvetica,sans-Serif" font-size="10.00">/target.h</text>
</g>
<!-- Node2 -->
<g id="node2" class="node"><title>Node2</title>
<g id="a_node2"><a xlink:href="with_8h.html" target="_top" xlink:title="RAII wrapper function to enter and exit a context object similar to python&#39;s with syntax...">
<polygon fill="white" stroke="black" points="142,-123.5 142,-142.5 248,-142.5 248,-123.5 142,-123.5"/>
<text text-anchor="middle" x="195" y="-130.5" font-family="Helvetica,sans-Serif" font-size="10.00">tvm/support/with.h</text>
</a>
</g>
</g>
<!-- Node1&#45;&gt;Node2 -->
<g id="edge1" class="edge"><title>Node1&#45;&gt;Node2</title>
<path fill="none" stroke="midnightblue" d="M198.048,-817.37C164.272,-799.114 114,-763.896 114,-716 114,-716 114,-716 114,-367 114,-282.084 162.592,-188.931 184.504,-151.242"/>
<polygon fill="midnightblue" stroke="midnightblue" points="187.591,-152.898 189.685,-142.513 181.572,-149.326 187.591,-152.898"/>
</g>
<!-- Node4 -->
<g id="node4" class="node"><title>Node4</title>
<polygon fill="white" stroke="#bfbfbf" points="214,-62 214,-81 256,-81 256,-62 214,-62"/>
<text text-anchor="middle" x="235" y="-69" font-family="Helvetica,sans-Serif" font-size="10.00">utility</text>
</g>
<!-- Node1&#45;&gt;Node4 -->
<g id="edge137" class="edge"><title>Node1&#45;&gt;Node4</title>
<path fill="none" stroke="midnightblue" d="M175.978,-827.695C108.686,-819.616 0,-794.429 0,-716 0,-716 0,-716 0,-188 0,-98.3994 139.3,-78.3036 203.402,-73.7996"/>
<polygon fill="midnightblue" stroke="midnightblue" points="203.965,-77.2717 213.731,-73.164 203.535,-70.2849 203.965,-77.2717"/>
</g>
<!-- Node5 -->
<g id="node5" class="node"><title>Node5</title>
<g id="a_node5"><a xlink:href="node_2container_8h.html" target="_top" xlink:title="Array/Map container in the DSL graph. ">
<polygon fill="white" stroke="black" points="730.5,-414.5 730.5,-433.5 849.5,-433.5 849.5,-414.5 730.5,-414.5"/>
<text text-anchor="middle" x="790" y="-421.5" font-family="Helvetica,sans-Serif" font-size="10.00">tvm/node/container.h</text>
</a>
</g>
</g>
<!-- Node1&#45;&gt;Node5 -->
<g id="edge4" class="edge"><title>Node1&#45;&gt;Node5</title>
<path fill="none" stroke="midnightblue" d="M228,-817.275C228,-795.476 228,-752.495 228,-716 228,-716 228,-716 228,-602 228,-513.529 296.101,-505.813 377,-470 436.777,-443.538 618.98,-431.988 720.256,-427.5"/>
<polygon fill="midnightblue" stroke="midnightblue" points="720.556,-430.99 730.395,-427.062 720.254,-423.997 720.556,-430.99"/>
</g>
<!-- Node12 -->
<g id="node12" class="node"><title>Node12</title>
<polygon fill="white" stroke="#bfbfbf" points="2320,-62 2320,-81 2364,-81 2364,-62 2320,-62"/>
<text text-anchor="middle" x="2342" y="-69" font-family="Helvetica,sans-Serif" font-size="10.00">string</text>
</g>
<!-- Node1&#45;&gt;Node12 -->
<g id="edge134" class="edge"><title>Node1&#45;&gt;Node12</title>
<path fill="none" stroke="midnightblue" d="M280.064,-831.758C626.884,-833.148 2589,-835.717 2589,-716 2589,-716 2589,-716 2589,-188 2589,-94.3111 2441.37,-76.4515 2374.38,-73.1702"/>
<polygon fill="midnightblue" stroke="midnightblue" points="2374.49,-69.6719 2364.36,-72.7594 2374.2,-76.666 2374.49,-69.6719"/>
</g>
<!-- Node20 -->
<g id="node20" class="node"><title>Node20</title>
<polygon fill="white" stroke="#bfbfbf" points="689.5,-179.5 689.5,-198.5 736.5,-198.5 736.5,-179.5 689.5,-179.5"/>
<text text-anchor="middle" x="713" y="-186.5" font-family="Helvetica,sans-Serif" font-size="10.00">vector</text>
</g>
<!-- Node1&#45;&gt;Node20 -->
<g id="edge135" class="edge"><title>Node1&#45;&gt;Node20</title>
<path fill="none" stroke="midnightblue" d="M210.754,-817.429C188.331,-797.436 152,-758.487 152,-716 152,-716 152,-716 152,-484.5 152,-364.655 558.438,-235.465 679.419,-199.664"/>
<polygon fill="midnightblue" stroke="midnightblue" points="680.645,-202.952 689.253,-196.775 678.672,-196.236 680.645,-202.952"/>
</g>
<!-- Node32 -->
<g id="node32" class="node"><title>Node32</title>
<g id="a_node32"><a xlink:href="ir_2expr_8h.html" target="_top" xlink:title="Base expr nodes in TVM. ">
<polygon fill="white" stroke="black" points="1794.5,-761.5 1794.5,-780.5 1871.5,-780.5 1871.5,-761.5 1794.5,-761.5"/>
<text text-anchor="middle" x="1833" y="-768.5" font-family="Helvetica,sans-Serif" font-size="10.00">tvm/ir/expr.h</text>
</a>
</g>
</g>
<!-- Node1&#45;&gt;Node32 -->
<g id="edge75" class="edge"><title>Node1&#45;&gt;Node32</title>
<path fill="none" stroke="midnightblue" d="M280.035,-829.571C523.425,-820.548 1547.63,-782.579 1784.13,-773.812"/>
<polygon fill="midnightblue" stroke="midnightblue" points="1784.6,-777.297 1794.47,-773.428 1784.34,-770.301 1784.6,-777.297"/>
</g>
<!-- Node43 -->
<g id="node43" class="node"><title>Node43</title>
<polygon fill="white" stroke="#bfbfbf" points="2617,-761.5 2617,-780.5 2703,-780.5 2703,-761.5 2617,-761.5"/>
<text text-anchor="middle" x="2660" y="-768.5" font-family="Helvetica,sans-Serif" font-size="10.00">unordered_set</text>
</g>
<!-- Node1&#45;&gt;Node43 -->
<g id="edge136" class="edge"><title>Node1&#45;&gt;Node43</title>
<path fill="none" stroke="midnightblue" d="M280.402,-831.352C584.939,-830.343 2129.82,-823.191 2603,-781 2604.26,-780.887 2605.54,-780.764 2606.83,-780.631"/>
<polygon fill="midnightblue" stroke="midnightblue" points="2607.3,-784.1 2616.82,-779.447 2606.47,-777.148 2607.3,-784.1"/>
</g>
<!-- Node3 -->
<g id="node3" class="node"><title>Node3</title>
<polygon fill="white" stroke="#bfbfbf" points="1014,-62 1014,-81 1100,-81 1100,-62 1014,-62"/>
<text text-anchor="middle" x="1057" y="-69" font-family="Helvetica,sans-Serif" font-size="10.00">dmlc/logging.h</text>
</g>
<!-- Node2&#45;&gt;Node3 -->
<g id="edge2" class="edge"><title>Node2&#45;&gt;Node3</title>
<path fill="none" stroke="midnightblue" d="M248.271,-128.323C402.563,-117.673 848.604,-86.8847 1003.36,-76.2026"/>
<polygon fill="midnightblue" stroke="midnightblue" points="1003.82,-79.679 1013.56,-75.4986 1003.34,-72.6956 1003.82,-79.679"/>
</g>
<!-- Node2&#45;&gt;Node4 -->
<g id="edge3" class="edge"><title>Node2&#45;&gt;Node4</title>
<path fill="none" stroke="midnightblue" d="M200.731,-123.475C206.672,-114.638 216.117,-100.589 223.588,-89.475"/>
<polygon fill="midnightblue" stroke="midnightblue" points="226.605,-91.2608 229.28,-81.0091 220.796,-87.3554 226.605,-91.2608"/>
</g>
<!-- Node5&#45;&gt;Node4 -->
<g id="edge73" class="edge"><title>Node5&#45;&gt;Node4</title>
<path fill="none" stroke="midnightblue" d="M730.353,-419.614C558.75,-409.082 76,-373.581 76,-307.5 76,-307.5 76,-307.5 76,-188 76,-125.354 157.795,-93.1553 204.051,-79.9552"/>
<polygon fill="midnightblue" stroke="midnightblue" points="205.155,-83.2823 213.886,-77.2812 203.318,-76.5276 205.155,-83.2823"/>
</g>
<!-- Node6 -->
<g id="node6" class="node"><title>Node6</title>
<g id="a_node6"><a xlink:href="object_8h.html" target="_top" xlink:title="A managed object in the TVM runtime. ">
<polygon fill="white" stroke="black" points="1432.5,-123.5 1432.5,-142.5 1549.5,-142.5 1549.5,-123.5 1432.5,-123.5"/>
<text text-anchor="middle" x="1491" y="-130.5" font-family="Helvetica,sans-Serif" font-size="10.00">tvm/runtime/object.h</text>
</a>
</g>
</g>
<!-- Node5&#45;&gt;Node6 -->
<g id="edge5" class="edge"><title>Node5&#45;&gt;Node6</title>
<path fill="none" stroke="midnightblue" d="M849.572,-417.616C951.997,-407.143 1167.13,-379.797 1340,-322 1410.02,-298.59 1451.68,-316.842 1492,-255 1516.72,-217.09 1440.17,-201.208 1439,-199 1428.83,-179.794 1448.55,-160.721 1466.56,-148.253"/>
<polygon fill="midnightblue" stroke="midnightblue" points="1468.64,-151.074 1475.12,-142.692 1464.83,-145.204 1468.64,-151.074"/>
</g>
<!-- Node11 -->
<g id="node11" class="node"><title>Node11</title>
<polygon fill="white" stroke="#bfbfbf" points="634,-62 634,-81 702,-81 702,-62 634,-62"/>
<text text-anchor="middle" x="668" y="-69" font-family="Helvetica,sans-Serif" font-size="10.00">type_traits</text>
</g>
<!-- Node5&#45;&gt;Node11 -->
<g id="edge69" class="edge"><title>Node5&#45;&gt;Node11</title>
<path fill="none" stroke="midnightblue" d="M730.298,-419.786C668.959,-412.689 578.649,-390.506 551,-322 545.843,-309.224 547.495,-304.324 551,-291 562.949,-245.577 580.707,-240.341 603,-199 623.714,-160.587 646.81,-114.915 659.125,-90.3193"/>
<polygon fill="midnightblue" stroke="midnightblue" points="662.367,-91.6613 663.704,-81.1511 656.104,-88.5334 662.367,-91.6613"/>
</g>
<!-- Node5&#45;&gt;Node12 -->
<g id="edge74" class="edge"><title>Node5&#45;&gt;Node12</title>
<path fill="none" stroke="midnightblue" d="M849.523,-416.608C926.057,-408.279 1063.05,-393.003 1180,-378 1276.94,-365.564 1957.35,-282.955 2051,-255 2065,-250.82 2157.16,-205.983 2170,-199 2211.38,-176.487 2222.03,-170.883 2260,-143 2283.71,-125.589 2309.12,-103.081 2325.26,-88.2372"/>
<polygon fill="midnightblue" stroke="midnightblue" points="2327.85,-90.609 2332.8,-81.2413 2323.09,-85.4778 2327.85,-90.609"/>
</g>
<!-- Node14 -->
<g id="node14" class="node"><title>Node14</title>
<g id="a_node14"><a xlink:href="runtime_2memory_8h.html" target="_top" xlink:title="Runtime memory management. ">
<polygon fill="white" stroke="black" points="467.5,-179.5 467.5,-198.5 594.5,-198.5 594.5,-179.5 467.5,-179.5"/>
<text text-anchor="middle" x="531" y="-186.5" font-family="Helvetica,sans-Serif" font-size="10.00">tvm/runtime/memory.h</text>
</a>
</g>
</g>
<!-- Node5&#45;&gt;Node14 -->
<g id="edge15" class="edge"><title>Node5&#45;&gt;Node14</title>
<path fill="none" stroke="midnightblue" d="M730.317,-420.024C652.249,-415.175 520.621,-403.432 480,-378 444.237,-355.609 429.607,-331.333 442,-291 453.392,-253.922 487.421,-222.469 509.946,-204.932"/>
<polygon fill="midnightblue" stroke="midnightblue" points="512.34,-207.511 518.229,-198.703 508.133,-201.916 512.34,-207.511"/>
</g>
<!-- Node16 -->
<g id="node16" class="node"><title>Node16</title>
<g id="a_node16"><a xlink:href="packed__func_8h.html" target="_top" xlink:title="Type&#45;erased function used across TVM API. ">
<polygon fill="white" stroke="black" points="1218.5,-291.5 1218.5,-321.5 1331.5,-321.5 1331.5,-291.5 1218.5,-291.5"/>
<text text-anchor="start" x="1226.5" y="-309.5" font-family="Helvetica,sans-Serif" font-size="10.00">tvm/runtime/packed</text>
<text text-anchor="middle" x="1275" y="-298.5" font-family="Helvetica,sans-Serif" font-size="10.00">_func.h</text>
</a>
</g>
</g>
<!-- Node5&#45;&gt;Node16 -->
<g id="edge20" class="edge"><title>Node5&#45;&gt;Node16</title>
<path fill="none" stroke="midnightblue" d="M849.523,-415.135C902.936,-407.52 983.268,-394.685 1052,-378 1113.02,-363.186 1181.7,-340.542 1226.51,-324.934"/>
<polygon fill="midnightblue" stroke="midnightblue" points="1227.7,-328.227 1235.98,-321.618 1225.39,-321.621 1227.7,-328.227"/>
</g>
<!-- Node5&#45;&gt;Node20 -->
<g id="edge70" class="edge"><title>Node5&#45;&gt;Node20</title>
<path fill="none" stroke="midnightblue" d="M797.163,-414.353C814.934,-391.805 857.542,-330.251 828,-291 793.234,-244.808 737.766,-301.192 703,-255 692.834,-241.493 697.773,-221.867 703.744,-207.718"/>
<polygon fill="midnightblue" stroke="midnightblue" points="706.969,-209.086 708.074,-198.549 700.639,-206.097 706.969,-209.086"/>
</g>
<!-- Node21 -->
<g id="node21" class="node"><title>Node21</title>
<polygon fill="white" stroke="#bfbfbf" points="1028.5,-179.5 1028.5,-198.5 1121.5,-198.5 1121.5,-179.5 1028.5,-179.5"/>
<text text-anchor="middle" x="1075" y="-186.5" font-family="Helvetica,sans-Serif" font-size="10.00">unordered_map</text>
</g>
<!-- Node5&#45;&gt;Node21 -->
<g id="edge72" class="edge"><title>Node5&#45;&gt;Node21</title>
<path fill="none" stroke="midnightblue" d="M800.481,-414.431C842.901,-379.751 1002.17,-249.538 1056.62,-205.027"/>
<polygon fill="midnightblue" stroke="midnightblue" points="1058.9,-207.686 1064.42,-198.647 1054.47,-202.267 1058.9,-207.686"/>
</g>
<!-- Node29 -->
<g id="node29" class="node"><title>Node29</title>
<g id="a_node29"><a xlink:href="runtime_2container_8h.html" target="_top" xlink:title="Common POD(plain old data) container types. ">
<polygon fill="white" stroke="black" points="614,-358.5 614,-377.5 746,-377.5 746,-358.5 614,-358.5"/>
<text text-anchor="middle" x="680" y="-365.5" font-family="Helvetica,sans-Serif" font-size="10.00">tvm/runtime/container.h</text>
</a>
</g>
</g>
<!-- Node5&#45;&gt;Node29 -->
<g id="edge58" class="edge"><title>Node5&#45;&gt;Node29</title>
<path fill="none" stroke="midnightblue" d="M772.327,-414.324C754.606,-405.625 727.097,-392.12 706.712,-382.113"/>
<polygon fill="midnightblue" stroke="midnightblue" points="708.149,-378.919 697.63,-377.655 705.064,-385.203 708.149,-378.919"/>
</g>
<!-- Node31 -->
<g id="node31" class="node"><title>Node31</title>
<polygon fill="white" stroke="#bfbfbf" points="742.5,-297 742.5,-316 819.5,-316 819.5,-297 742.5,-297"/>
<text text-anchor="middle" x="781" y="-304" font-family="Helvetica,sans-Serif" font-size="10.00">initializer_list</text>
</g>
<!-- Node5&#45;&gt;Node31 -->
<g id="edge71" class="edge"><title>Node5&#45;&gt;Node31</title>
<path fill="none" stroke="midnightblue" d="M789.324,-414.319C787.877,-395.757 784.455,-351.839 782.478,-326.473"/>
<polygon fill="midnightblue" stroke="midnightblue" points="785.951,-325.98 781.684,-316.282 778.972,-326.524 785.951,-325.98"/>
</g>
<!-- Node6&#45;&gt;Node3 -->
<g id="edge6" class="edge"><title>Node6&#45;&gt;Node3</title>
<path fill="none" stroke="midnightblue" d="M1432.47,-123.976C1347.71,-112.355 1192.03,-91.0116 1110.3,-79.8073"/>
<polygon fill="midnightblue" stroke="midnightblue" points="1110.61,-76.3177 1100.23,-78.4269 1109.66,-83.2528 1110.61,-76.3177"/>
</g>
<!-- Node6&#45;&gt;Node4 -->
<g id="edge13" class="edge"><title>Node6&#45;&gt;Node4</title>
<path fill="none" stroke="midnightblue" d="M1432.11,-129.21C1210.72,-118.722 432.54,-81.858 266.369,-73.986"/>
<polygon fill="midnightblue" stroke="midnightblue" points="266.476,-70.4873 256.321,-73.51 266.145,-77.4794 266.476,-70.4873"/>
</g>
<!-- Node7 -->
<g id="node7" class="node"><title>Node7</title>
<g id="a_node7"><a xlink:href="c__runtime__api_8h.html" target="_top" xlink:title="tvm/runtime/c_runtime\l_api.h">
<polygon fill="white" stroke="black" points="1803.5,-56.5 1803.5,-86.5 1930.5,-86.5 1930.5,-56.5 1803.5,-56.5"/>
<text text-anchor="start" x="1811.5" y="-74.5" font-family="Helvetica,sans-Serif" font-size="10.00">tvm/runtime/c_runtime</text>
<text text-anchor="middle" x="1867" y="-63.5" font-family="Helvetica,sans-Serif" font-size="10.00">_api.h</text>
</a>
</g>
</g>
<!-- Node6&#45;&gt;Node7 -->
<g id="edge7" class="edge"><title>Node6&#45;&gt;Node7</title>
<path fill="none" stroke="midnightblue" d="M1544.87,-123.475C1610.13,-113.148 1720.39,-95.7008 1793.44,-84.1412"/>
<polygon fill="midnightblue" stroke="midnightblue" points="1794.16,-87.5706 1803.49,-82.5505 1793.06,-80.6566 1794.16,-87.5706"/>
</g>
<!-- Node6&#45;&gt;Node11 -->
<g id="edge11" class="edge"><title>Node6&#45;&gt;Node11</title>
<path fill="none" stroke="midnightblue" d="M1432.47,-127.769C1276.07,-116.461 850.883,-85.7218 712.312,-75.7036"/>
<polygon fill="midnightblue" stroke="midnightblue" points="712.301,-72.1938 702.075,-74.9635 711.797,-79.1756 712.301,-72.1938"/>
</g>
<!-- Node6&#45;&gt;Node12 -->
<g id="edge12" class="edge"><title>Node6&#45;&gt;Node12</title>
<path fill="none" stroke="midnightblue" d="M1549.83,-127.887C1715.43,-116.308 2181.79,-83.7017 2309.38,-74.7808"/>
<polygon fill="midnightblue" stroke="midnightblue" points="2309.92,-78.2513 2319.66,-74.0622 2309.44,-71.2683 2309.92,-78.2513"/>
</g>
<!-- Node13 -->
<g id="node13" class="node"><title>Node13</title>
<polygon fill="white" stroke="#bfbfbf" points="1559,-62 1559,-81 1609,-81 1609,-62 1559,-62"/>
<text text-anchor="middle" x="1584" y="-69" font-family="Helvetica,sans-Serif" font-size="10.00">atomic</text>
</g>
<!-- Node6&#45;&gt;Node13 -->
<g id="edge14" class="edge"><title>Node6&#45;&gt;Node13</title>
<path fill="none" stroke="midnightblue" d="M1504.32,-123.475C1519.38,-113.843 1544.12,-98.0175 1562.04,-86.5517"/>
<polygon fill="midnightblue" stroke="midnightblue" points="1564.16,-89.3466 1570.7,-81.0091 1560.39,-83.4501 1564.16,-89.3466"/>
</g>
<!-- Node8 -->
<g id="node8" class="node"><title>Node8</title>
<polygon fill="white" stroke="#bfbfbf" points="1732,-0.5 1732,-19.5 1822,-19.5 1822,-0.5 1732,-0.5"/>
<text text-anchor="middle" x="1777" y="-7.5" font-family="Helvetica,sans-Serif" font-size="10.00">dlpack/dlpack.h</text>
</g>
<!-- Node7&#45;&gt;Node8 -->
<g id="edge8" class="edge"><title>Node7&#45;&gt;Node8</title>
<path fill="none" stroke="midnightblue" d="M1845.67,-56.3993C1831.51,-47.0402 1812.99,-34.7924 1798.75,-25.3771"/>
<polygon fill="midnightblue" stroke="midnightblue" points="1800.37,-22.2531 1790.1,-19.6578 1796.51,-28.0923 1800.37,-22.2531"/>
</g>
<!-- Node9 -->
<g id="node9" class="node"><title>Node9</title>
<polygon fill="white" stroke="#bfbfbf" points="1840.5,-0.5 1840.5,-19.5 1893.5,-19.5 1893.5,-0.5 1840.5,-0.5"/>
<text text-anchor="middle" x="1867" y="-7.5" font-family="Helvetica,sans-Serif" font-size="10.00">stdint.h</text>
</g>
<!-- Node7&#45;&gt;Node9 -->
<g id="edge9" class="edge"><title>Node7&#45;&gt;Node9</title>
<path fill="none" stroke="midnightblue" d="M1867,-56.3993C1867,-48.4664 1867,-38.458 1867,-29.8583"/>
<polygon fill="midnightblue" stroke="midnightblue" points="1870.5,-29.6577 1867,-19.6578 1863.5,-29.6578 1870.5,-29.6577"/>
</g>
<!-- Node10 -->
<g id="node10" class="node"><title>Node10</title>
<polygon fill="white" stroke="#bfbfbf" points="1911.5,-0.5 1911.5,-19.5 1966.5,-19.5 1966.5,-0.5 1911.5,-0.5"/>
<text text-anchor="middle" x="1939" y="-7.5" font-family="Helvetica,sans-Serif" font-size="10.00">stddef.h</text>
</g>
<!-- Node7&#45;&gt;Node10 -->
<g id="edge10" class="edge"><title>Node7&#45;&gt;Node10</title>
<path fill="none" stroke="midnightblue" d="M1884.06,-56.3993C1895.06,-47.3076 1909.37,-35.4899 1920.62,-26.1909"/>
<polygon fill="midnightblue" stroke="midnightblue" points="1923.04,-28.726 1928.52,-19.6578 1918.59,-23.33 1923.04,-28.726"/>
</g>
<!-- Node14&#45;&gt;Node4 -->
<g id="edge18" class="edge"><title>Node14&#45;&gt;Node4</title>
<path fill="none" stroke="midnightblue" d="M508.752,-179.319C456.515,-158.936 325.922,-107.978 265.971,-84.5849"/>
<polygon fill="midnightblue" stroke="midnightblue" points="266.893,-81.1876 256.304,-80.813 264.348,-87.7087 266.893,-81.1876"/>
</g>
<!-- Node14&#45;&gt;Node6 -->
<g id="edge16" class="edge"><title>Node14&#45;&gt;Node6</title>
<path fill="none" stroke="midnightblue" d="M594.802,-184.077C621.174,-182.474 652.058,-180.619 680,-179 955.027,-163.064 1282.59,-145.244 1422.34,-137.696"/>
<polygon fill="midnightblue" stroke="midnightblue" points="1422.68,-141.183 1432.48,-137.149 1422.3,-134.193 1422.68,-141.183"/>
</g>
<!-- Node14&#45;&gt;Node11 -->
<g id="edge19" class="edge"><title>Node14&#45;&gt;Node11</title>
<path fill="none" stroke="midnightblue" d="M541.297,-179.319C564.405,-159.837 620.643,-112.425 649.799,-87.8448"/>
<polygon fill="midnightblue" stroke="midnightblue" points="652.194,-90.4036 657.583,-81.282 647.682,-85.0518 652.194,-90.4036"/>
</g>
<!-- Node15 -->
<g id="node15" class="node"><title>Node15</title>
<polygon fill="white" stroke="#bfbfbf" points="507.5,-123.5 507.5,-142.5 554.5,-142.5 554.5,-123.5 507.5,-123.5"/>
<text text-anchor="middle" x="531" y="-130.5" font-family="Helvetica,sans-Serif" font-size="10.00">cstdlib</text>
</g>
<!-- Node14&#45;&gt;Node15 -->
<g id="edge17" class="edge"><title>Node14&#45;&gt;Node15</title>
<path fill="none" stroke="midnightblue" d="M531,-179.083C531,-172.006 531,-161.861 531,-152.986"/>
<polygon fill="midnightblue" stroke="midnightblue" points="534.5,-152.751 531,-142.751 527.5,-152.751 534.5,-152.751"/>
</g>
<!-- Node16&#45;&gt;Node3 -->
<g id="edge21" class="edge"><title>Node16&#45;&gt;Node3</title>
<path fill="none" stroke="midnightblue" d="M1244.76,-291.42C1212.95,-276.769 1161.31,-253.433 1116,-235 1073.41,-217.672 1045.26,-236.751 1019,-199 995.106,-164.646 1024.59,-114.991 1043.49,-89.3055"/>
<polygon fill="midnightblue" stroke="midnightblue" points="1046.33,-91.3523 1049.63,-81.2841 1040.77,-87.0976 1046.33,-91.3523"/>
</g>
<!-- Node16&#45;&gt;Node4 -->
<g id="edge56" class="edge"><title>Node16&#45;&gt;Node4</title>
<path fill="none" stroke="midnightblue" d="M1218.36,-302.374C1115.41,-296.276 890.865,-281.058 703,-255 570.813,-236.665 533.596,-244.114 408,-199 359.328,-181.517 347.42,-173.967 306,-143 284.166,-126.676 262.419,-103.872 248.858,-88.6671"/>
<polygon fill="midnightblue" stroke="midnightblue" points="251.442,-86.3044 242.218,-81.0913 246.178,-90.9185 251.442,-86.3044"/>
</g>
<!-- Node16&#45;&gt;Node6 -->
<g id="edge49" class="edge"><title>Node16&#45;&gt;Node6</title>
<path fill="none" stroke="midnightblue" d="M1296.91,-291.37C1309.52,-282.283 1324.83,-269.486 1335,-255 1355.68,-225.538 1337.36,-204.263 1363,-179 1379.88,-162.367 1403.27,-151.858 1425.43,-145.227"/>
<polygon fill="midnightblue" stroke="midnightblue" points="1426.46,-148.573 1435.17,-142.531 1424.6,-141.827 1426.46,-148.573"/>
</g>
<!-- Node16&#45;&gt;Node7 -->
<g id="edge22" class="edge"><title>Node16&#45;&gt;Node7</title>
<path fill="none" stroke="midnightblue" d="M1299.57,-291.47C1326.44,-276.437 1371,-252.397 1411,-235 1552.18,-173.59 1724.81,-116.858 1811.58,-89.5548"/>
<polygon fill="midnightblue" stroke="midnightblue" points="1812.73,-92.8626 1821.23,-86.5306 1810.64,-86.1833 1812.73,-92.8626"/>
</g>
<!-- Node16&#45;&gt;Node11 -->
<g id="edge57" class="edge"><title>Node16&#45;&gt;Node11</title>
<path fill="none" stroke="midnightblue" d="M1218.48,-293.29C1156.26,-279.717 1064.05,-259.153 1057,-255 988.945,-214.906 1006.9,-161.63 938,-123 866.294,-82.7941 768.726,-73.8374 712.643,-72.2755"/>
<polygon fill="midnightblue" stroke="midnightblue" points="712.406,-68.7699 702.334,-72.0593 712.259,-75.7683 712.406,-68.7699"/>
</g>
<!-- Node16&#45;&gt;Node12 -->
<g id="edge53" class="edge"><title>Node16&#45;&gt;Node12</title>
<path fill="none" stroke="midnightblue" d="M1331.56,-298.04C1351.86,-295.543 1374.93,-292.913 1396,-291 1654.1,-267.572 1726.53,-317.661 1978,-255 1998.84,-249.806 2002.35,-243.676 2022,-235 2059.16,-218.595 2069.83,-217.47 2106,-199 2164.58,-169.088 2174.85,-153.758 2233,-123 2259.5,-108.983 2290.6,-94.7872 2312.78,-85.0314"/>
<polygon fill="midnightblue" stroke="midnightblue" points="2314.24,-88.2156 2322,-81.0071 2311.44,-81.8002 2314.24,-88.2156"/>
</g>
<!-- Node17 -->
<g id="node17" class="node"><title>Node17</title>
<g id="a_node17"><a xlink:href="runtime_2module_8h.html" target="_top" xlink:title="Runtime container of the functions generated by TVM, This is used to support dynamically link...">
<polygon fill="white" stroke="black" points="1202,-235.5 1202,-254.5 1326,-254.5 1326,-235.5 1202,-235.5"/>
<text text-anchor="middle" x="1264" y="-242.5" font-family="Helvetica,sans-Serif" font-size="10.00">tvm/runtime/module.h</text>
</a>
</g>
</g>
<!-- Node16&#45;&gt;Node17 -->
<g id="edge23" class="edge"><title>Node16&#45;&gt;Node17</title>
<path fill="none" stroke="midnightblue" d="M1266.55,-291.399C1264.07,-283.466 1262.05,-273.458 1261.16,-264.858"/>
<polygon fill="midnightblue" stroke="midnightblue" points="1264.64,-264.48 1260.67,-254.658 1257.65,-264.813 1264.64,-264.48"/>
</g>
<!-- Node19 -->
<g id="node19" class="node"><title>Node19</title>
<polygon fill="white" stroke="#bfbfbf" points="1139.5,-179.5 1139.5,-198.5 1196.5,-198.5 1196.5,-179.5 1139.5,-179.5"/>
<text text-anchor="middle" x="1168" y="-186.5" font-family="Helvetica,sans-Serif" font-size="10.00">memory</text>
</g>
<!-- Node16&#45;&gt;Node19 -->
<g id="edge55" class="edge"><title>Node16&#45;&gt;Node19</title>
<path fill="none" stroke="midnightblue" d="M1241.83,-291.375C1225.26,-282.897 1206.03,-270.693 1193,-255 1181.91,-241.642 1175.39,-222.816 1171.81,-208.86"/>
<polygon fill="midnightblue" stroke="midnightblue" points="1175.18,-207.878 1169.54,-198.91 1168.35,-209.439 1175.18,-207.878"/>
</g>
<!-- Node16&#45;&gt;Node20 -->
<g id="edge52" class="edge"><title>Node16&#45;&gt;Node20</title>
<path fill="none" stroke="midnightblue" d="M1218.32,-296.641C1159.91,-287.266 1066.31,-271.562 986,-255 899.173,-237.095 797.85,-211.803 746.507,-198.672"/>
<polygon fill="midnightblue" stroke="midnightblue" points="747.184,-195.233 736.628,-196.138 745.444,-202.013 747.184,-195.233"/>
</g>
<!-- Node22 -->
<g id="node22" class="node"><title>Node22</title>
<g id="a_node22"><a xlink:href="ndarray_8h.html" target="_top" xlink:title="A device&#45;independent managed NDArray abstraction. ">
<polygon fill="white" stroke="black" points="1846.5,-235.5 1846.5,-254.5 1969.5,-254.5 1969.5,-235.5 1846.5,-235.5"/>
<text text-anchor="middle" x="1908" y="-242.5" font-family="Helvetica,sans-Serif" font-size="10.00">tvm/runtime/ndarray.h</text>
</a>
</g>
</g>
<!-- Node16&#45;&gt;Node22 -->
<g id="edge33" class="edge"><title>Node16&#45;&gt;Node22</title>
<path fill="none" stroke="midnightblue" d="M1331.59,-298.343C1351.89,-295.876 1374.96,-293.185 1396,-291 1552.87,-274.711 1737.18,-259.464 1836.27,-251.585"/>
<polygon fill="midnightblue" stroke="midnightblue" points="1836.77,-255.056 1846.47,-250.776 1836.22,-248.078 1836.77,-255.056"/>
</g>
<!-- Node25 -->
<g id="node25" class="node"><title>Node25</title>
<g id="a_node25"><a xlink:href="data__type_8h.html" target="_top" xlink:title="tvm/runtime/data_type.h">
<polygon fill="white" stroke="black" points="1540,-235.5 1540,-254.5 1676,-254.5 1676,-235.5 1540,-235.5"/>
<text text-anchor="middle" x="1608" y="-242.5" font-family="Helvetica,sans-Serif" font-size="10.00">tvm/runtime/data_type.h</text>
</a>
</g>
</g>
<!-- Node16&#45;&gt;Node25 -->
<g id="edge44" class="edge"><title>Node16&#45;&gt;Node25</title>
<path fill="none" stroke="midnightblue" d="M1331.87,-295.339C1392.84,-284.445 1489.12,-267.242 1550.38,-256.296"/>
<polygon fill="midnightblue" stroke="midnightblue" points="1551.04,-259.732 1560.27,-254.528 1549.81,-252.842 1551.04,-259.732"/>
</g>
<!-- Node26 -->
<g id="node26" class="node"><title>Node26</title>
<polygon fill="white" stroke="#bfbfbf" points="1420.5,-235.5 1420.5,-254.5 1483.5,-254.5 1483.5,-235.5 1420.5,-235.5"/>
<text text-anchor="middle" x="1452" y="-242.5" font-family="Helvetica,sans-Serif" font-size="10.00">functional</text>
</g>
<!-- Node16&#45;&gt;Node26 -->
<g id="edge50" class="edge"><title>Node16&#45;&gt;Node26</title>
<path fill="none" stroke="midnightblue" d="M1316.95,-291.399C1347.4,-281.163 1388.13,-267.47 1416.87,-257.808"/>
<polygon fill="midnightblue" stroke="midnightblue" points="1418.14,-261.075 1426.5,-254.571 1415.91,-254.44 1418.14,-261.075"/>
</g>
<!-- Node27 -->
<g id="node27" class="node"><title>Node27</title>
<polygon fill="white" stroke="#bfbfbf" points="1066.5,-235.5 1066.5,-254.5 1107.5,-254.5 1107.5,-235.5 1066.5,-235.5"/>
<text text-anchor="middle" x="1087" y="-242.5" font-family="Helvetica,sans-Serif" font-size="10.00">tuple</text>
</g>
<!-- Node16&#45;&gt;Node27 -->
<g id="edge51" class="edge"><title>Node16&#45;&gt;Node27</title>
<path fill="none" stroke="midnightblue" d="M1230.45,-291.399C1195.52,-280.346 1147.87,-265.264 1117.26,-255.577"/>
<polygon fill="midnightblue" stroke="midnightblue" points="1118.17,-252.192 1107.58,-252.512 1116.05,-258.866 1118.17,-252.192"/>
</g>
<!-- Node28 -->
<g id="node28" class="node"><title>Node28</title>
<polygon fill="white" stroke="#bfbfbf" points="2140,-235.5 2140,-254.5 2182,-254.5 2182,-235.5 2140,-235.5"/>
<text text-anchor="middle" x="2161" y="-242.5" font-family="Helvetica,sans-Serif" font-size="10.00">limits</text>
</g>
<!-- Node16&#45;&gt;Node28 -->
<g id="edge54" class="edge"><title>Node16&#45;&gt;Node28</title>
<path fill="none" stroke="midnightblue" d="M1331.77,-301.687C1501.17,-290.311 1999.35,-256.855 2129.57,-248.111"/>
<polygon fill="midnightblue" stroke="midnightblue" points="2129.92,-251.595 2139.66,-247.433 2129.45,-244.611 2129.92,-251.595"/>
</g>
<!-- Node17&#45;&gt;Node6 -->
<g id="edge26" class="edge"><title>Node17&#45;&gt;Node6</title>
<path fill="none" stroke="midnightblue" d="M1269.65,-235.403C1279.3,-221.419 1300.32,-193.822 1325,-179 1354.45,-161.31 1390.96,-150.432 1422.23,-143.815"/>
<polygon fill="midnightblue" stroke="midnightblue" points="1423.07,-147.217 1432.18,-141.814 1421.69,-140.354 1423.07,-147.217"/>
</g>
<!-- Node17&#45;&gt;Node7 -->
<g id="edge25" class="edge"><title>Node17&#45;&gt;Node7</title>
<path fill="none" stroke="midnightblue" d="M1266.36,-235.273C1270.45,-221.599 1280.11,-195.036 1297,-179 1341.44,-136.799 1363.87,-139.094 1423,-123 1550.22,-88.3739 1704.21,-77.4657 1793.35,-74.0448"/>
<polygon fill="midnightblue" stroke="midnightblue" points="1793.5,-77.5419 1803.36,-73.6817 1793.24,-70.5465 1793.5,-77.5419"/>
</g>
<!-- Node17&#45;&gt;Node12 -->
<g id="edge30" class="edge"><title>Node17&#45;&gt;Node12</title>
<path fill="none" stroke="midnightblue" d="M1326.23,-240.189C1352.4,-238.586 1383.18,-236.702 1411,-235 1541.89,-226.993 1873.06,-231.883 2000,-199 2075.82,-179.359 2085.63,-150.413 2159,-123 2210.56,-103.734 2272.74,-88.1125 2309.73,-79.5799"/>
<polygon fill="midnightblue" stroke="midnightblue" points="2310.94,-82.8943 2319.91,-77.2637 2309.39,-76.0686 2310.94,-82.8943"/>
</g>
<!-- Node17&#45;&gt;Node14 -->
<g id="edge27" class="edge"><title>Node17&#45;&gt;Node14</title>
<path fill="none" stroke="midnightblue" d="M1201.82,-239.419C1067.21,-229.503 749.325,-206.084 604.811,-195.438"/>
<polygon fill="midnightblue" stroke="midnightblue" points="604.94,-191.938 594.71,-194.694 604.426,-198.919 604.94,-191.938"/>
</g>
<!-- Node17&#45;&gt;Node16 -->
<g id="edge32" class="edge"><title>Node17&#45;&gt;Node16</title>
<path fill="none" stroke="midnightblue" d="M1270.53,-254.658C1273.33,-261.655 1275.79,-271.857 1277.17,-281.289"/>
<polygon fill="midnightblue" stroke="midnightblue" points="1273.71,-281.821 1278.23,-291.399 1280.67,-281.088 1273.71,-281.821"/>
</g>
<!-- Node18 -->
<g id="node18" class="node"><title>Node18</title>
<polygon fill="white" stroke="#bfbfbf" points="1781,-123.5 1781,-142.5 1841,-142.5 1841,-123.5 1781,-123.5"/>
<text text-anchor="middle" x="1811" y="-130.5" font-family="Helvetica,sans-Serif" font-size="10.00">dmlc/io.h</text>
</g>
<!-- Node17&#45;&gt;Node18 -->
<g id="edge24" class="edge"><title>Node17&#45;&gt;Node18</title>
<path fill="none" stroke="midnightblue" d="M1306.47,-235.46C1409.26,-214.789 1670.38,-162.279 1770.8,-142.084"/>
<polygon fill="midnightblue" stroke="midnightblue" points="1771.73,-145.467 1780.84,-140.065 1770.35,-138.605 1771.73,-145.467"/>
</g>
<!-- Node17&#45;&gt;Node19 -->
<g id="edge28" class="edge"><title>Node17&#45;&gt;Node19</title>
<path fill="none" stroke="midnightblue" d="M1248.58,-235.324C1233.46,-226.822 1210.18,-213.729 1192.53,-203.797"/>
<polygon fill="midnightblue" stroke="midnightblue" points="1193.82,-200.507 1183.39,-198.655 1190.39,-206.608 1193.82,-200.507"/>
</g>
<!-- Node17&#45;&gt;Node20 -->
<g id="edge29" class="edge"><title>Node17&#45;&gt;Node20</title>
<path fill="none" stroke="midnightblue" d="M1201.86,-237.91C1085.18,-226.475 836.928,-202.145 746.685,-193.301"/>
<polygon fill="midnightblue" stroke="midnightblue" points="747.021,-189.817 736.727,-192.325 746.338,-196.784 747.021,-189.817"/>
</g>
<!-- Node17&#45;&gt;Node21 -->
<g id="edge31" class="edge"><title>Node17&#45;&gt;Node21</title>
<path fill="none" stroke="midnightblue" d="M1234.05,-235.444C1201.84,-226.241 1150.47,-211.562 1114.86,-201.388"/>
<polygon fill="midnightblue" stroke="midnightblue" points="1115.38,-197.898 1104.81,-198.516 1113.46,-204.629 1115.38,-197.898"/>
</g>
<!-- Node22&#45;&gt;Node4 -->
<g id="edge43" class="edge"><title>Node22&#45;&gt;Node4</title>
<path fill="none" stroke="midnightblue" d="M1881.62,-235.458C1854.18,-226.529 1809.99,-212.03 1772,-199 1676.53,-166.256 1657.12,-142.032 1558,-123 1549.8,-121.426 465.494,-81.0663 266.261,-73.6613"/>
<polygon fill="midnightblue" stroke="midnightblue" points="266.298,-70.1604 256.175,-73.2865 266.038,-77.1555 266.298,-70.1604"/>
</g>
<!-- Node22&#45;&gt;Node6 -->
<g id="edge35" class="edge"><title>Node22&#45;&gt;Node6</title>
<path fill="none" stroke="midnightblue" d="M1846.69,-235.485C1797.59,-227.966 1727.21,-215.612 1667,-199 1614.13,-184.414 1554.67,-160.896 1520.16,-146.505"/>
<polygon fill="midnightblue" stroke="midnightblue" points="1521.27,-143.177 1510.7,-142.528 1518.56,-149.63 1521.27,-143.177"/>
</g>
<!-- Node22&#45;&gt;Node7 -->
<g id="edge34" class="edge"><title>Node22&#45;&gt;Node7</title>
<path fill="none" stroke="midnightblue" d="M1895.24,-235.495C1862.72,-213.685 1778.81,-156.531 1772,-143 1760.32,-119.775 1783.41,-102.282 1809.75,-90.5299"/>
<polygon fill="midnightblue" stroke="midnightblue" points="1811.27,-93.6903 1819.15,-86.6126 1808.57,-87.229 1811.27,-93.6903"/>
</g>
<!-- Node22&#45;&gt;Node13 -->
<g id="edge41" class="edge"><title>Node22&#45;&gt;Node13</title>
<path fill="none" stroke="midnightblue" d="M1888.69,-235.416C1869.17,-226.63 1838.22,-212.402 1812,-199 1736.09,-160.205 1648.47,-110.028 1607.46,-86.2118"/>
<polygon fill="midnightblue" stroke="midnightblue" points="1609.15,-83.1486 1598.75,-81.144 1605.63,-89.1988 1609.15,-83.1486"/>
</g>
<!-- Node22&#45;&gt;Node20 -->
<g id="edge42" class="edge"><title>Node22&#45;&gt;Node20</title>
<path fill="none" stroke="midnightblue" d="M1846.27,-241.21C1629.97,-231.436 910.625,-198.93 746.526,-191.515"/>
<polygon fill="midnightblue" stroke="midnightblue" points="746.679,-188.018 736.531,-191.063 746.363,-195.011 746.679,-188.018"/>
</g>
<!-- Node23 -->
<g id="node23" class="node"><title>Node23</title>
<g id="a_node23"><a xlink:href="serializer_8h.html" target="_top" xlink:title="Serializer extension to support TVM data types Include this file to enable serialization of DLDataTyp...">
<polygon fill="white" stroke="black" points="1861,-179.5 1861,-198.5 1991,-198.5 1991,-179.5 1861,-179.5"/>
<text text-anchor="middle" x="1926" y="-186.5" font-family="Helvetica,sans-Serif" font-size="10.00">tvm/runtime/serializer.h</text>
</a>
</g>
</g>
<!-- Node22&#45;&gt;Node23 -->
<g id="edge36" class="edge"><title>Node22&#45;&gt;Node23</title>
<path fill="none" stroke="midnightblue" d="M1905.81,-235.083C1906.71,-227.691 1909.88,-216.953 1913.67,-207.811"/>
<polygon fill="midnightblue" stroke="midnightblue" points="1916.85,-209.288 1917.95,-198.751 1910.52,-206.299 1916.85,-209.288"/>
</g>
<!-- Node23&#45;&gt;Node7 -->
<g id="edge39" class="edge"><title>Node23&#45;&gt;Node7</title>
<path fill="none" stroke="midnightblue" d="M1936.8,-179.478C1951.3,-166.952 1973.96,-142.903 1962,-123 1953.55,-108.946 1939.73,-98.5926 1925.21,-91.0542"/>
<polygon fill="midnightblue" stroke="midnightblue" points="1926.65,-87.8649 1916.12,-86.7163 1923.64,-94.1823 1926.65,-87.8649"/>
</g>
<!-- Node23&#45;&gt;Node18 -->
<g id="edge37" class="edge"><title>Node23&#45;&gt;Node18</title>
<path fill="none" stroke="midnightblue" d="M1907.78,-179.444C1889.1,-170.675 1859.84,-156.935 1838.38,-146.858"/>
<polygon fill="midnightblue" stroke="midnightblue" points="1839.68,-143.599 1829.14,-142.516 1836.7,-149.935 1839.68,-143.599"/>
</g>
<!-- Node23&#45;&gt;Node22 -->
<g id="edge40" class="edge"><title>Node23&#45;&gt;Node22</title>
<path fill="none" stroke="midnightblue" d="M1928.21,-198.751C1927.34,-206.092 1924.19,-216.817 1920.41,-225.983"/>
<polygon fill="midnightblue" stroke="midnightblue" points="1917.22,-224.544 1916.14,-235.083 1923.56,-227.519 1917.22,-224.544"/>
</g>
<!-- Node24 -->
<g id="node24" class="node"><title>Node24</title>
<polygon fill="white" stroke="#bfbfbf" points="1859,-123.5 1859,-142.5 1953,-142.5 1953,-123.5 1859,-123.5"/>
<text text-anchor="middle" x="1906" y="-130.5" font-family="Helvetica,sans-Serif" font-size="10.00">dmlc/serializer.h</text>
</g>
<!-- Node23&#45;&gt;Node24 -->
<g id="edge38" class="edge"><title>Node23&#45;&gt;Node24</title>
<path fill="none" stroke="midnightblue" d="M1922.7,-179.083C1920.02,-171.849 1916.15,-161.409 1912.81,-152.397"/>
<polygon fill="midnightblue" stroke="midnightblue" points="1916,-150.913 1909.24,-142.751 1909.43,-153.344 1916,-150.913"/>
</g>
<!-- Node25&#45;&gt;Node3 -->
<g id="edge46" class="edge"><title>Node25&#45;&gt;Node3</title>
<path fill="none" stroke="midnightblue" d="M1573.52,-235.46C1539.25,-226.821 1485.26,-212.805 1439,-199 1309.42,-160.331 1157.4,-107.818 1090.96,-84.503"/>
<polygon fill="midnightblue" stroke="midnightblue" points="1092.01,-81.1634 1081.42,-81.1491 1089.69,-87.7673 1092.01,-81.1634"/>
</g>
<!-- Node25&#45;&gt;Node7 -->
<g id="edge45" class="edge"><title>Node25&#45;&gt;Node7</title>
<path fill="none" stroke="midnightblue" d="M1676,-241.036C1782.53,-235.687 1978.86,-222.71 2000,-199 2017.12,-179.797 1996.93,-142.957 1978,-123 1964.35,-108.613 1945.83,-97.9929 1927.83,-90.3098"/>
<polygon fill="midnightblue" stroke="midnightblue" points="1929.07,-87.0386 1918.49,-86.5553 1926.46,-93.5333 1929.07,-87.0386"/>
</g>
<!-- Node25&#45;&gt;Node11 -->
<g id="edge47" class="edge"><title>Node25&#45;&gt;Node11</title>
<path fill="none" stroke="midnightblue" d="M1563.57,-235.423C1429.46,-209.541 1034.3,-133.358 976,-123 882.388,-106.367 772.407,-88.8109 712.474,-79.4108"/>
<polygon fill="midnightblue" stroke="midnightblue" points="712.655,-75.8966 702.234,-77.8077 711.572,-82.8123 712.655,-75.8966"/>
</g>
<!-- Node25&#45;&gt;Node12 -->
<g id="edge48" class="edge"><title>Node25&#45;&gt;Node12</title>
<path fill="none" stroke="midnightblue" d="M1676.06,-241.142C1786.5,-235.877 1999.59,-222.931 2071,-199 2132.29,-178.46 2136.53,-150.554 2195,-123 2233.38,-104.914 2280.06,-89.995 2310.38,-81.1749"/>
<polygon fill="midnightblue" stroke="midnightblue" points="2311.34,-84.5391 2319.99,-78.4218 2309.42,-77.8094 2311.34,-84.5391"/>
</g>
<!-- Node29&#45;&gt;Node3 -->
<g id="edge59" class="edge"><title>Node29&#45;&gt;Node3</title>
<path fill="none" stroke="midnightblue" d="M674.616,-358.443C669.444,-349.678 661.988,-335.467 659,-322 645.087,-259.288 633.417,-223.232 680,-179 769.802,-93.7318 922.569,-75.8814 1003.31,-72.6824"/>
<polygon fill="midnightblue" stroke="midnightblue" points="1003.86,-76.1662 1013.74,-72.3354 1003.63,-69.17 1003.86,-76.1662"/>
</g>
<!-- Node29&#45;&gt;Node4 -->
<g id="edge67" class="edge"><title>Node29&#45;&gt;Node4</title>
<path fill="none" stroke="midnightblue" d="M613.548,-363.341C492,-352.576 236.82,-310.155 133,-143 113.275,-111.242 167.257,-90.1268 204.018,-79.8306"/>
<polygon fill="midnightblue" stroke="midnightblue" points="205.09,-83.1671 213.854,-77.2136 203.29,-76.4025 205.09,-83.1671"/>
</g>
<!-- Node29&#45;&gt;Node6 -->
<g id="edge61" class="edge"><title>Node29&#45;&gt;Node6</title>
<path fill="none" stroke="midnightblue" d="M683.945,-358.197C691.375,-342.552 708.893,-309.788 733,-291 768.613,-263.244 785.911,-271.347 828,-255 913.164,-221.923 930.189,-200.44 1019,-179 1159.56,-145.067 1329.46,-136.515 1422.26,-134.488"/>
<polygon fill="midnightblue" stroke="midnightblue" points="1422.43,-137.986 1432.36,-134.287 1422.29,-130.987 1422.43,-137.986"/>
</g>
<!-- Node29&#45;&gt;Node11 -->
<g id="edge66" class="edge"><title>Node29&#45;&gt;Node11</title>
<path fill="none" stroke="midnightblue" d="M617.3,-358.448C588.978,-352.094 556.463,-341.071 532,-322 481.686,-282.775 475.066,-260.472 458,-199 436.909,-123.031 556.295,-90.7695 623.904,-78.739"/>
<polygon fill="midnightblue" stroke="midnightblue" points="624.609,-82.1695 633.881,-77.043 623.435,-75.2685 624.609,-82.1695"/>
</g>
<!-- Node29&#45;&gt;Node12 -->
<g id="edge65" class="edge"><title>Node29&#45;&gt;Node12</title>
<path fill="none" stroke="midnightblue" d="M746.173,-364.012C865.202,-358.297 1123.22,-344.363 1340,-322 1439.97,-311.687 1464.09,-301.901 1564,-291 1763.46,-269.239 1819.7,-305.03 2014,-255 2021.32,-253.115 2131.31,-202.527 2138,-199 2180.34,-176.663 2189.3,-168.195 2230,-143 2261.42,-123.549 2297.57,-100.711 2320.1,-86.4191"/>
<polygon fill="midnightblue" stroke="midnightblue" points="2322.03,-89.344 2328.59,-81.0299 2318.27,-83.4341 2322.03,-89.344"/>
</g>
<!-- Node29&#45;&gt;Node14 -->
<g id="edge60" class="edge"><title>Node29&#45;&gt;Node14</title>
<path fill="none" stroke="midnightblue" d="M614.569,-358.413C591.232,-352.073 566.83,-341.073 551,-322 524.068,-289.552 525.315,-236.556 528.291,-208.606"/>
<polygon fill="midnightblue" stroke="midnightblue" points="531.774,-208.958 529.55,-198.599 524.829,-208.084 531.774,-208.958"/>
</g>
<!-- Node29&#45;&gt;Node16 -->
<g id="edge62" class="edge"><title>Node29&#45;&gt;Node16</title>
<path fill="none" stroke="midnightblue" d="M746.235,-360.376C860.468,-348.953 1093.29,-325.671 1208.03,-314.197"/>
<polygon fill="midnightblue" stroke="midnightblue" points="1208.49,-317.669 1218.09,-313.191 1207.79,-310.704 1208.49,-317.669"/>
</g>
<!-- Node29&#45;&gt;Node20 -->
<g id="edge68" class="edge"><title>Node29&#45;&gt;Node20</title>
<path fill="none" stroke="midnightblue" d="M676.77,-358.26C669.262,-336.5 652.552,-278.516 670,-235 674.68,-223.328 683.991,-212.969 692.756,-205.141"/>
<polygon fill="midnightblue" stroke="midnightblue" points="695.052,-207.783 700.503,-198.698 690.576,-202.401 695.052,-207.783"/>
</g>
<!-- Node30 -->
<g id="node30" class="node"><title>Node30</title>
<polygon fill="white" stroke="#bfbfbf" points="560.5,-297 560.5,-316 609.5,-316 609.5,-297 560.5,-297"/>
<text text-anchor="middle" x="585" y="-304" font-family="Helvetica,sans-Serif" font-size="10.00">cstring</text>
</g>
<!-- Node29&#45;&gt;Node30 -->
<g id="edge63" class="edge"><title>Node29&#45;&gt;Node30</title>
<path fill="none" stroke="midnightblue" d="M666.389,-358.475C650.939,-348.799 625.51,-332.872 607.184,-321.394"/>
<polygon fill="midnightblue" stroke="midnightblue" points="608.919,-318.351 598.586,-316.009 605.203,-324.283 608.919,-318.351"/>
</g>
<!-- Node29&#45;&gt;Node31 -->
<g id="edge64" class="edge"><title>Node29&#45;&gt;Node31</title>
<path fill="none" stroke="midnightblue" d="M694.471,-358.475C710.971,-348.755 738.178,-332.727 757.681,-321.237"/>
<polygon fill="midnightblue" stroke="midnightblue" points="759.716,-324.101 766.556,-316.009 756.163,-318.069 759.716,-324.101"/>
</g>
<!-- Node32&#45;&gt;Node5 -->
<g id="edge118" class="edge"><title>Node32&#45;&gt;Node5</title>
<path fill="none" stroke="midnightblue" d="M1794.27,-769.226C1559.95,-764.298 342,-735.069 342,-660 342,-660 342,-660 342,-546 342,-468.716 593.623,-439.31 719.717,-429.427"/>
<polygon fill="midnightblue" stroke="midnightblue" points="720.341,-432.889 730.046,-428.639 719.808,-425.91 720.341,-432.889"/>
</g>
<!-- Node32&#45;&gt;Node6 -->
<g id="edge76" class="edge"><title>Node32&#45;&gt;Node6</title>
<path fill="none" stroke="midnightblue" d="M1871.58,-768.751C1980.25,-764.193 2281,-743.992 2281,-660 2281,-660 2281,-660 2281,-602 2281,-434.056 2317.48,-345.494 2191,-235 2133.95,-185.158 1926.99,-209.719 1852,-199 1741.29,-183.176 1612.59,-158.474 1542.68,-144.522"/>
<polygon fill="midnightblue" stroke="midnightblue" points="1543.3,-141.075 1532.8,-142.543 1541.92,-147.939 1543.3,-141.075"/>
</g>
<!-- Node32&#45;&gt;Node11 -->
<g id="edge133" class="edge"><title>Node32&#45;&gt;Node11</title>
<path fill="none" stroke="midnightblue" d="M1794.33,-770.022C1605.25,-769.925 776.973,-767.064 523,-725 367.649,-699.27 190,-761.468 190,-604 190,-604 190,-604 190,-305.5 190,-113.723 504.737,-79.7617 623.427,-73.7729"/>
<polygon fill="midnightblue" stroke="midnightblue" points="623.795,-77.2597 633.623,-73.3035 623.473,-70.2671 623.795,-77.2597"/>
</g>
<!-- Node32&#45;&gt;Node12 -->
<g id="edge130" class="edge"><title>Node32&#45;&gt;Node12</title>
<path fill="none" stroke="midnightblue" d="M1871.6,-768.201C2020.74,-760.745 2551,-729.359 2551,-660 2551,-660 2551,-660 2551,-188 2551,-108.383 2433.38,-83.2204 2374.61,-75.6169"/>
<polygon fill="midnightblue" stroke="midnightblue" points="2374.71,-72.1038 2364.37,-74.3923 2373.88,-79.0543 2374.71,-72.1038"/>
</g>
<!-- Node32&#45;&gt;Node28 -->
<g id="edge132" class="edge"><title>Node32&#45;&gt;Node28</title>
<path fill="none" stroke="midnightblue" d="M1867.36,-761.41C1927.31,-744.424 2049.86,-700.38 2105,-613 2177.89,-497.498 2168.48,-321.756 2163.08,-264.637"/>
<polygon fill="midnightblue" stroke="midnightblue" points="2166.55,-264.169 2162.04,-254.579 2159.58,-264.884 2166.55,-264.169"/>
</g>
<!-- Node33 -->
<g id="node33" class="node"><title>Node33</title>
<g id="a_node33"><a xlink:href="node_8h.html" target="_top" xlink:title="Definitions and helper macros for IR/AST nodes. ">
<polygon fill="white" stroke="black" points="1038,-593.5 1038,-612.5 1136,-612.5 1136,-593.5 1038,-593.5"/>
<text text-anchor="middle" x="1087" y="-600.5" font-family="Helvetica,sans-Serif" font-size="10.00">tvm/node/node.h</text>
</a>
</g>
</g>
<!-- Node32&#45;&gt;Node33 -->
<g id="edge77" class="edge"><title>Node32&#45;&gt;Node33</title>
<path fill="none" stroke="midnightblue" d="M1794.17,-769.183C1661.52,-765.691 1228.5,-748.32 1119,-669 1103.75,-657.956 1095.4,-637.607 1091.09,-622.609"/>
<polygon fill="midnightblue" stroke="midnightblue" points="1094.46,-621.682 1088.62,-612.843 1087.67,-623.396 1094.46,-621.682"/>
</g>
<!-- Node40 -->
<g id="node40" class="node"><title>Node40</title>
<g id="a_node40"><a xlink:href="span_8h.html" target="_top" xlink:title="Span information for debugging purposes. ">
<polygon fill="white" stroke="black" points="1922,-649.5 1922,-668.5 2002,-668.5 2002,-649.5 1922,-649.5"/>
<text text-anchor="middle" x="1962" y="-656.5" font-family="Helvetica,sans-Serif" font-size="10.00">tvm/ir/span.h</text>
</a>
</g>
</g>
<!-- Node32&#45;&gt;Node40 -->
<g id="edge119" class="edge"><title>Node32&#45;&gt;Node40</title>
<path fill="none" stroke="midnightblue" d="M1855.48,-761.435C1873.51,-753.795 1898.73,-741.302 1917,-725 1932.16,-711.47 1944.84,-691.848 1952.83,-677.706"/>
<polygon fill="midnightblue" stroke="midnightblue" points="1956.11,-679.003 1957.8,-668.543 1949.96,-675.67 1956.11,-679.003"/>
</g>
<!-- Node41 -->
<g id="node41" class="node"><title>Node41</title>
<g id="a_node41"><a xlink:href="ir_2type_8h.html" target="_top" xlink:title="IR/AST nodes for the unified type system in TVM. ">
<polygon fill="white" stroke="black" points="1750.5,-705.5 1750.5,-724.5 1827.5,-724.5 1827.5,-705.5 1750.5,-705.5"/>
<text text-anchor="middle" x="1789" y="-712.5" font-family="Helvetica,sans-Serif" font-size="10.00">tvm/ir/type.h</text>
</a>
</g>
</g>
<!-- Node32&#45;&gt;Node41 -->
<g id="edge123" class="edge"><title>Node32&#45;&gt;Node41</title>
<path fill="none" stroke="midnightblue" d="M1825.73,-761.083C1819.46,-753.377 1810.21,-742.033 1802.57,-732.653"/>
<polygon fill="midnightblue" stroke="midnightblue" points="1805.16,-730.293 1796.13,-724.751 1799.73,-734.714 1805.16,-730.293"/>
</g>
<!-- Node42 -->
<g id="node42" class="node"><title>Node42</title>
<polygon fill="white" stroke="#bfbfbf" points="1846,-705.5 1846,-724.5 1908,-724.5 1908,-705.5 1846,-705.5"/>
<text text-anchor="middle" x="1877" y="-712.5" font-family="Helvetica,sans-Serif" font-size="10.00">algorithm</text>
</g>
<!-- Node32&#45;&gt;Node42 -->
<g id="edge131" class="edge"><title>Node32&#45;&gt;Node42</title>
<path fill="none" stroke="midnightblue" d="M1840.27,-761.083C1846.54,-753.377 1855.79,-742.033 1863.43,-732.653"/>
<polygon fill="midnightblue" stroke="midnightblue" points="1866.27,-734.714 1869.87,-724.751 1860.84,-730.293 1866.27,-734.714"/>
</g>
<!-- Node33&#45;&gt;Node4 -->
<g id="edge116" class="edge"><title>Node33&#45;&gt;Node4</title>
<path fill="none" stroke="midnightblue" d="M1037.89,-602.039C952.022,-601.056 769.607,-594.278 621,-557 420.61,-506.732 381.286,-460.788 192,-378 123.032,-347.836 38,-382.776 38,-307.5 38,-307.5 38,-307.5 38,-188 38,-112.019 148.407,-85.0696 203.914,-76.3222"/>
<polygon fill="midnightblue" stroke="midnightblue" points="204.534,-79.7687 213.918,-74.8495 203.514,-72.8434 204.534,-79.7687"/>
</g>
<!-- Node33&#45;&gt;Node5 -->
<g id="edge111" class="edge"><title>Node33&#45;&gt;Node5</title>
<path fill="none" stroke="midnightblue" d="M1037.98,-599.638C968.532,-595.366 846.131,-584.132 812,-557 778.444,-530.325 781.83,-473.533 786.338,-443.893"/>
<polygon fill="midnightblue" stroke="midnightblue" points="789.853,-444.109 788.109,-433.659 782.955,-442.916 789.853,-444.109"/>
</g>
<!-- Node33&#45;&gt;Node6 -->
<g id="edge80" class="edge"><title>Node33&#45;&gt;Node6</title>
<path fill="none" stroke="midnightblue" d="M1136.35,-602.259C1254.47,-602.202 1550.24,-597.853 1639,-557 1709.52,-524.545 1733.15,-505.656 1763,-434 1769.92,-417.397 1752.53,-275.459 1707,-235 1642.1,-177.331 1581.34,-255.012 1515,-199 1501.38,-187.497 1495.48,-167.525 1492.94,-152.747"/>
<polygon fill="midnightblue" stroke="midnightblue" points="1496.38,-152.121 1491.57,-142.684 1489.45,-153.065 1496.38,-152.121"/>
</g>
<!-- Node33&#45;&gt;Node7 -->
<g id="edge78" class="edge"><title>Node33&#45;&gt;Node7</title>
<path fill="none" stroke="midnightblue" d="M1136.21,-600.934C1321.92,-595.906 1977.19,-568.748 2125,-434 2213.08,-353.704 2262.97,-284.753 2208,-179 2188.98,-142.404 2171.7,-139.719 2134,-123 2072.19,-95.5909 1995.89,-83.0434 1940.71,-77.3079"/>
<polygon fill="midnightblue" stroke="midnightblue" points="1940.96,-73.8152 1930.66,-76.3142 1940.27,-80.7813 1940.96,-73.8152"/>
</g>
<!-- Node33&#45;&gt;Node11 -->
<g id="edge117" class="edge"><title>Node33&#45;&gt;Node11</title>
<path fill="none" stroke="midnightblue" d="M1037.85,-602.911C960.111,-602.956 804.909,-597.344 681,-557 552.429,-515.138 510.929,-489.882 435,-378 370.828,-283.441 381.084,-197.197 468,-123 511.749,-85.6528 579.334,-75.2909 623.62,-72.7539"/>
<polygon fill="midnightblue" stroke="midnightblue" points="623.97,-76.2416 633.798,-72.2847 623.647,-69.249 623.97,-76.2416"/>
</g>
<!-- Node33&#45;&gt;Node12 -->
<g id="edge114" class="edge"><title>Node33&#45;&gt;Node12</title>
<path fill="none" stroke="midnightblue" d="M1136.2,-601.537C1251.76,-599.87 1549.33,-592.208 1795,-557 1907.28,-540.908 1939.19,-544.381 2044,-501 2228.61,-424.587 2309.37,-387.005 2377,-199 2388.47,-167.117 2394.33,-154.932 2383,-123 2378.33,-109.829 2368.59,-97.5915 2359.78,-88.4623"/>
<polygon fill="midnightblue" stroke="midnightblue" points="2362.03,-85.767 2352.42,-81.2945 2357.14,-90.7803 2362.03,-85.767"/>
</g>
<!-- Node33&#45;&gt;Node14 -->
<g id="edge81" class="edge"><title>Node33&#45;&gt;Node14</title>
<path fill="none" stroke="midnightblue" d="M1037.96,-602.153C967.484,-600.982 834.334,-593.54 728,-557 682.01,-541.196 673.729,-529.043 634,-501 532.139,-429.101 471.038,-434.836 418,-322 401.034,-285.905 413.02,-264.374 440,-235 453.782,-219.996 473.671,-209.366 491.343,-202.221"/>
<polygon fill="midnightblue" stroke="midnightblue" points="492.77,-205.422 500.879,-198.603 490.288,-198.877 492.77,-205.422"/>
</g>
<!-- Node33&#45;&gt;Node20 -->
<g id="edge115" class="edge"><title>Node33&#45;&gt;Node20</title>
<path fill="none" stroke="midnightblue" d="M1037.73,-599.125C959.995,-593.919 813.006,-581.162 767,-557 641.407,-491.038 602.517,-454.177 551,-322 526.194,-258.356 625.506,-216.927 679.782,-199.463"/>
<polygon fill="midnightblue" stroke="midnightblue" points="680.847,-202.797 689.353,-196.481 678.765,-196.114 680.847,-202.797"/>
</g>
<!-- Node33&#45;&gt;Node29 -->
<g id="edge79" class="edge"><title>Node33&#45;&gt;Node29</title>
<path fill="none" stroke="midnightblue" d="M1037.89,-599.492C964.885,-594.939 832.133,-583.244 793,-557 730.535,-515.109 697.194,-425.956 685.219,-387.4"/>
<polygon fill="midnightblue" stroke="midnightblue" points="688.497,-386.142 682.29,-377.556 681.787,-388.139 688.497,-386.142"/>
</g>
<!-- Node34 -->
<g id="node34" class="node"><title>Node34</title>
<g id="a_node34"><a xlink:href="reflection_8h.html" target="_top" xlink:title="Reflection and serialization of compiler IR/AST nodes. ">
<polygon fill="white" stroke="black" points="1511.5,-537.5 1511.5,-556.5 1630.5,-556.5 1630.5,-537.5 1511.5,-537.5"/>
<text text-anchor="middle" x="1571" y="-544.5" font-family="Helvetica,sans-Serif" font-size="10.00">tvm/node/reflection.h</text>
</a>
</g>
</g>
<!-- Node33&#45;&gt;Node34 -->
<g id="edge82" class="edge"><title>Node33&#45;&gt;Node34</title>
<path fill="none" stroke="midnightblue" d="M1136.07,-596.525C1222.42,-586.891 1401.75,-566.883 1501.05,-555.805"/>
<polygon fill="midnightblue" stroke="midnightblue" points="1501.73,-559.25 1511.28,-554.663 1500.95,-552.293 1501.73,-559.25"/>
</g>
<!-- Node35 -->
<g id="node35" class="node"><title>Node35</title>
<g id="a_node35"><a xlink:href="structural__equal_8h.html" target="_top" xlink:title="Structural equality comparison. ">
<polygon fill="white" stroke="black" points="1192.5,-470.5 1192.5,-500.5 1303.5,-500.5 1303.5,-470.5 1192.5,-470.5"/>
<text text-anchor="start" x="1200.5" y="-488.5" font-family="Helvetica,sans-Serif" font-size="10.00">tvm/node/structural</text>
<text text-anchor="middle" x="1248" y="-477.5" font-family="Helvetica,sans-Serif" font-size="10.00">_equal.h</text>
</a>
</g>
</g>
<!-- Node33&#45;&gt;Node35 -->
<g id="edge112" class="edge"><title>Node33&#45;&gt;Node35</title>
<path fill="none" stroke="midnightblue" d="M1099.1,-593.319C1124.58,-575.037 1184.35,-532.16 1219.93,-506.635"/>
<polygon fill="midnightblue" stroke="midnightblue" points="1222.34,-509.218 1228.42,-500.545 1218.26,-503.531 1222.34,-509.218"/>
</g>
<!-- Node37 -->
<g id="node37" class="node"><title>Node37</title>
<g id="a_node37"><a xlink:href="structural__hash_8h.html" target="_top" xlink:title="tvm/node/structural\l_hash.h">
<polygon fill="white" stroke="black" points="1321.5,-470.5 1321.5,-500.5 1432.5,-500.5 1432.5,-470.5 1321.5,-470.5"/>
<text text-anchor="start" x="1329.5" y="-488.5" font-family="Helvetica,sans-Serif" font-size="10.00">tvm/node/structural</text>
<text text-anchor="middle" x="1377" y="-477.5" font-family="Helvetica,sans-Serif" font-size="10.00">_hash.h</text>
</a>
</g>
</g>
<!-- Node33&#45;&gt;Node37 -->
<g id="edge113" class="edge"><title>Node33&#45;&gt;Node37</title>
<path fill="none" stroke="midnightblue" d="M1108.8,-593.319C1156.16,-574.456 1269.26,-529.41 1332.42,-504.256"/>
<polygon fill="midnightblue" stroke="midnightblue" points="1333.74,-507.497 1341.73,-500.545 1331.15,-500.994 1333.74,-507.497"/>
</g>
<!-- Node38 -->
<g id="node38" class="node"><title>Node38</title>
<g id="a_node38"><a xlink:href="repr__printer_8h.html" target="_top" xlink:title="Printer class to print repr string of each AST/IR nodes. ">
<polygon fill="white" stroke="black" points="821,-537.5 821,-556.5 951,-556.5 951,-537.5 821,-537.5"/>
<text text-anchor="middle" x="886" y="-544.5" font-family="Helvetica,sans-Serif" font-size="10.00">tvm/node/repr_printer.h</text>
</a>
</g>
</g>
<!-- Node33&#45;&gt;Node38 -->
<g id="edge108" class="edge"><title>Node33&#45;&gt;Node38</title>
<path fill="none" stroke="midnightblue" d="M1055.15,-593.444C1020.6,-584.162 965.318,-569.309 927.417,-559.127"/>
<polygon fill="midnightblue" stroke="midnightblue" points="928.266,-555.731 917.7,-556.516 926.449,-562.491 928.266,-555.731"/>
</g>
<!-- Node34&#45;&gt;Node6 -->
<g id="edge84" class="edge"><title>Node34&#45;&gt;Node6</title>
<path fill="none" stroke="midnightblue" d="M1593.86,-537.472C1631.89,-521.634 1704,-483.843 1704,-425 1704,-425 1704,-425 1704,-305.5 1704,-273.049 1708.98,-256.869 1685,-235 1615.68,-171.776 1537.42,-270.774 1477,-199 1465.89,-185.797 1472.53,-165.848 1479.98,-151.534"/>
<polygon fill="midnightblue" stroke="midnightblue" points="1483.12,-153.093 1485.05,-142.677 1477.04,-149.611 1483.12,-153.093"/>
</g>
<!-- Node34&#45;&gt;Node7 -->
<g id="edge83" class="edge"><title>Node34&#45;&gt;Node7</title>
<path fill="none" stroke="midnightblue" d="M1630.73,-539.633C1761.49,-522.042 2070.98,-459.612 2191,-255 2251.64,-151.62 2053.94,-102.204 1940.7,-82.8508"/>
<polygon fill="midnightblue" stroke="midnightblue" points="1941.13,-79.3737 1930.69,-81.18 1939.97,-86.2782 1941.13,-79.3737"/>
</g>
<!-- Node34&#45;&gt;Node11 -->
<g id="edge107" class="edge"><title>Node34&#45;&gt;Node11</title>
<path fill="none" stroke="midnightblue" d="M1562.53,-537.128C1547.69,-521.946 1515.56,-490.628 1484,-470 1296.1,-347.198 1228.63,-353.649 1027,-255 900.878,-193.293 751.713,-116.094 693.268,-85.6809"/>
<polygon fill="midnightblue" stroke="midnightblue" points="694.857,-82.5619 684.371,-81.0473 691.623,-88.7705 694.857,-82.5619"/>
</g>
<!-- Node34&#45;&gt;Node12 -->
<g id="edge106" class="edge"><title>Node34&#45;&gt;Node12</title>
<path fill="none" stroke="midnightblue" d="M1630.78,-542.385C1693.29,-537.415 1793.7,-526.048 1877,-501 2118.37,-428.424 2222.06,-411.882 2357,-199 2375.24,-170.225 2374.76,-156.173 2367,-123 2364.29,-111.406 2358.5,-99.4202 2353.18,-90.0369"/>
<polygon fill="midnightblue" stroke="midnightblue" points="2356.1,-88.0971 2347.95,-81.3258 2350.1,-91.7007 2356.1,-88.0971"/>
</g>
<!-- Node34&#45;&gt;Node14 -->
<g id="edge85" class="edge"><title>Node34&#45;&gt;Node14</title>
<path fill="none" stroke="midnightblue" d="M1511.44,-539.627C1435.23,-531.349 1299.16,-516.156 1183,-501 1101.33,-490.344 513.237,-433.081 452,-378 404.706,-335.46 416.457,-283.173 458,-235 469.725,-221.404 486.601,-210.632 501.174,-203.04"/>
<polygon fill="midnightblue" stroke="midnightblue" points="502.925,-206.08 510.341,-198.513 499.825,-199.803 502.925,-206.08"/>
</g>
<!-- Node34&#45;&gt;Node16 -->
<g id="edge86" class="edge"><title>Node34&#45;&gt;Node16</title>
<path fill="none" stroke="midnightblue" d="M1573.68,-537.233C1580.09,-514.396 1593.79,-452.203 1566,-414 1514.45,-343.136 1410.69,-319.334 1342.03,-311.394"/>
<polygon fill="midnightblue" stroke="midnightblue" points="1342.06,-307.877 1331.74,-310.292 1341.31,-314.838 1342.06,-307.877"/>
</g>
<!-- Node34&#45;&gt;Node20 -->
<g id="edge105" class="edge"><title>Node34&#45;&gt;Node20</title>
<path fill="none" stroke="midnightblue" d="M1557.7,-537.337C1534.56,-522.47 1485.14,-491.615 1441,-470 1249.17,-376.068 1194.98,-366.033 995,-291 949.597,-273.965 937.68,-271.276 892,-255 840.758,-236.742 781.444,-215.104 745.6,-201.972"/>
<polygon fill="midnightblue" stroke="midnightblue" points="746.733,-198.659 736.139,-198.504 744.323,-205.232 746.733,-198.659"/>
</g>
<!-- Node34&#45;&gt;Node22 -->
<g id="edge87" class="edge"><title>Node34&#45;&gt;Node22</title>
<path fill="none" stroke="midnightblue" d="M1627.07,-537.492C1656.18,-531.034 1691.16,-519.907 1718,-501 1811.15,-435.374 1877.6,-309.82 1899.85,-263.623"/>
<polygon fill="midnightblue" stroke="midnightblue" points="1903.03,-265.1 1904.14,-254.564 1896.7,-262.108 1903.03,-265.1"/>
</g>
<!-- Node34&#45;&gt;Node25 -->
<g id="edge88" class="edge"><title>Node34&#45;&gt;Node25</title>
<path fill="none" stroke="midnightblue" d="M1578.45,-537.262C1593.9,-518.217 1628,-470.978 1628,-425 1628,-425 1628,-425 1628,-367 1628,-330.238 1618.9,-288.025 1612.98,-264.435"/>
<polygon fill="midnightblue" stroke="midnightblue" points="1616.36,-263.52 1610.45,-254.724 1609.58,-265.283 1616.36,-263.52"/>
</g>
<!-- Node34&#45;&gt;Node35 -->
<g id="edge89" class="edge"><title>Node34&#45;&gt;Node35</title>
<path fill="none" stroke="midnightblue" d="M1517.28,-537.483C1467.05,-529.336 1389.71,-516.322 1314,-501.349"/>
<polygon fill="midnightblue" stroke="midnightblue" points="1314.3,-497.841 1303.81,-499.32 1312.94,-504.706 1314.3,-497.841"/>
</g>
<!-- Node34&#45;&gt;Node37 -->
<g id="edge99" class="edge"><title>Node34&#45;&gt;Node37</title>
<path fill="none" stroke="midnightblue" d="M1543.2,-537.475C1514.47,-528.664 1468.84,-514.668 1432.66,-503.57"/>
<polygon fill="midnightblue" stroke="midnightblue" points="1433.31,-500.109 1422.72,-500.523 1431.26,-506.801 1433.31,-500.109"/>
</g>
<!-- Node35&#45;&gt;Node5 -->
<g id="edge97" class="edge"><title>Node35&#45;&gt;Node5</title>
<path fill="none" stroke="midnightblue" d="M1192.3,-472.497C1187.47,-471.598 1182.66,-470.751 1178,-470 1067.32,-452.154 937.771,-438.59 859.889,-431.22"/>
<polygon fill="midnightblue" stroke="midnightblue" points="860.001,-427.716 849.717,-430.265 859.346,-434.685 860.001,-427.716"/>
</g>
<!-- Node35&#45;&gt;Node12 -->
<g id="edge98" class="edge"><title>Node35&#45;&gt;Node12</title>
<path fill="none" stroke="midnightblue" d="M1303.77,-470.711C1466.56,-430.232 1938.99,-311.075 2088,-255 2101.3,-249.994 2190.67,-206.069 2203,-199 2241.93,-176.683 2254.11,-173.523 2287,-143 2304.53,-126.734 2320.87,-104.519 2331.12,-89.4029"/>
<polygon fill="midnightblue" stroke="midnightblue" points="2334.06,-91.2958 2336.66,-81.0249 2328.22,-87.4328 2334.06,-91.2958"/>
</g>
<!-- Node35&#45;&gt;Node25 -->
<g id="edge90" class="edge"><title>Node35&#45;&gt;Node25</title>
<path fill="none" stroke="midnightblue" d="M1268.23,-470.314C1314.7,-437.845 1432.84,-355.923 1534,-291 1550.71,-280.274 1569.88,-268.638 1584.51,-259.886"/>
<polygon fill="midnightblue" stroke="midnightblue" points="1586.61,-262.713 1593.41,-254.59 1583.03,-256.699 1586.61,-262.713"/>
</g>
<!-- Node36 -->
<g id="node36" class="node"><title>Node36</title>
<g id="a_node36"><a xlink:href="functor_8h.html" target="_top" xlink:title="Defines the Functor data structures. ">
<polygon fill="white" stroke="black" points="712.5,-235.5 712.5,-254.5 819.5,-254.5 819.5,-235.5 712.5,-235.5"/>
<text text-anchor="middle" x="766" y="-242.5" font-family="Helvetica,sans-Serif" font-size="10.00">tvm/node/functor.h</text>
</a>
</g>
</g>
<!-- Node35&#45;&gt;Node36 -->
<g id="edge91" class="edge"><title>Node35&#45;&gt;Node36</title>
<path fill="none" stroke="midnightblue" d="M1194.76,-470.446C1165.89,-461.818 1130.06,-449.452 1100,-434 1002.81,-384.047 997.307,-340.717 900,-291 871.418,-276.396 837.064,-264.969 810.297,-257.284"/>
<polygon fill="midnightblue" stroke="midnightblue" points="811.011,-253.849 800.437,-254.523 809.123,-260.59 811.011,-253.849"/>
</g>
<!-- Node36&#45;&gt;Node3 -->
<g id="edge92" class="edge"><title>Node36&#45;&gt;Node3</title>
<path fill="none" stroke="midnightblue" d="M772.007,-235.399C781.794,-221.898 802.375,-195.567 825,-179 887.092,-133.532 971.694,-100.746 1019.7,-84.3568"/>
<polygon fill="midnightblue" stroke="midnightblue" points="1021,-87.6117 1029.37,-81.1098 1018.77,-80.976 1021,-87.6117"/>
</g>
<!-- Node36&#45;&gt;Node4 -->
<g id="edge96" class="edge"><title>Node36&#45;&gt;Node4</title>
<path fill="none" stroke="midnightblue" d="M712.279,-242.149C649.682,-238.637 543.873,-228.465 458,-199 377.271,-171.3 292.367,-114.125 254.834,-87.1703"/>
<polygon fill="midnightblue" stroke="midnightblue" points="256.492,-84.0488 246.344,-81.005 252.379,-89.7129 256.492,-84.0488"/>
</g>
<!-- Node36&#45;&gt;Node6 -->
<g id="edge93" class="edge"><title>Node36&#45;&gt;Node6</title>
<path fill="none" stroke="midnightblue" d="M776.286,-235.309C794.31,-220.659 833.367,-191.432 872,-179 972.691,-146.599 1283.03,-137.428 1422.21,-134.914"/>
<polygon fill="midnightblue" stroke="midnightblue" points="1422.4,-138.411 1432.33,-134.737 1422.28,-131.412 1422.4,-138.411"/>
</g>
<!-- Node36&#45;&gt;Node11 -->
<g id="edge95" class="edge"><title>Node36&#45;&gt;Node11</title>
<path fill="none" stroke="midnightblue" d="M764.099,-235.249C761.114,-222.439 754.653,-198.039 745,-179 727.486,-144.456 699.343,-108.897 682.367,-88.8576"/>
<polygon fill="midnightblue" stroke="midnightblue" points="685.014,-86.567 675.839,-81.2676 679.707,-91.1315 685.014,-86.567"/>
</g>
<!-- Node36&#45;&gt;Node20 -->
<g id="edge94" class="edge"><title>Node36&#45;&gt;Node20</title>
<path fill="none" stroke="midnightblue" d="M757.248,-235.083C749.53,-227.22 738.095,-215.569 728.783,-206.081"/>
<polygon fill="midnightblue" stroke="midnightblue" points="731.092,-203.436 721.589,-198.751 726.096,-208.34 731.092,-203.436"/>
</g>
<!-- Node37&#45;&gt;Node5 -->
<g id="edge102" class="edge"><title>Node37&#45;&gt;Node5</title>
<path fill="none" stroke="midnightblue" d="M1321.42,-471.59C1318.24,-471.011 1315.09,-470.475 1312,-470 1151.2,-445.247 960.289,-433.116 859.83,-428.053"/>
<polygon fill="midnightblue" stroke="midnightblue" points="859.966,-424.556 849.805,-427.556 859.619,-431.547 859.966,-424.556"/>
</g>
<!-- Node37&#45;&gt;Node12 -->
<g id="edge103" class="edge"><title>Node37&#45;&gt;Node12</title>
<path fill="none" stroke="midnightblue" d="M1432.8,-470.647C1565.43,-437.315 1909.51,-348.448 2191,-255 2256.96,-233.103 2296.5,-255.481 2337,-199 2359.97,-166.959 2353.21,-117.713 2347.1,-91.1035"/>
<polygon fill="midnightblue" stroke="midnightblue" points="2350.44,-90.0465 2344.61,-81.2014 2343.65,-91.7529 2350.44,-90.0465"/>
</g>
<!-- Node37&#45;&gt;Node25 -->
<g id="edge100" class="edge"><title>Node37&#45;&gt;Node25</title>
<path fill="none" stroke="midnightblue" d="M1390.76,-470.295C1431.17,-428.567 1549.38,-306.522 1592.24,-262.267"/>
<polygon fill="midnightblue" stroke="midnightblue" points="1594.89,-264.564 1599.34,-254.946 1589.86,-259.694 1594.89,-264.564"/>
</g>
<!-- Node37&#45;&gt;Node26 -->
<g id="edge104" class="edge"><title>Node37&#45;&gt;Node26</title>
<path fill="none" stroke="midnightblue" d="M1381.47,-470.295C1394.37,-429.26 1431.7,-310.551 1446.17,-264.534"/>
<polygon fill="midnightblue" stroke="midnightblue" points="1449.53,-265.535 1449.19,-254.946 1442.85,-263.435 1449.53,-265.535"/>
</g>
<!-- Node37&#45;&gt;Node36 -->
<g id="edge101" class="edge"><title>Node37&#45;&gt;Node36</title>
<path fill="none" stroke="midnightblue" d="M1349.52,-470.427C1281.55,-436.039 1099.47,-346.506 940,-291 899.233,-276.81 851.713,-264.815 816.644,-256.787"/>
<polygon fill="midnightblue" stroke="midnightblue" points="817.166,-253.317 806.641,-254.527 815.624,-260.144 817.166,-253.317"/>
</g>
<!-- Node38&#45;&gt;Node36 -->
<g id="edge109" class="edge"><title>Node38&#45;&gt;Node36</title>
<path fill="none" stroke="midnightblue" d="M886,-537.491C886,-517.736 886,-467.224 886,-425 886,-425 886,-425 886,-367 886,-329.235 874.188,-318.21 848,-291 834.445,-276.916 815.507,-266.127 799.245,-258.649"/>
<polygon fill="midnightblue" stroke="midnightblue" points="800.606,-255.424 790.041,-254.629 797.804,-261.839 800.606,-255.424"/>
</g>
<!-- Node39 -->
<g id="node39" class="node"><title>Node39</title>
<polygon fill="white" stroke="#bfbfbf" points="798.5,-476 798.5,-495 857.5,-495 857.5,-476 798.5,-476"/>
<text text-anchor="middle" x="828" y="-483" font-family="Helvetica,sans-Serif" font-size="10.00">iostream</text>
</g>
<!-- Node38&#45;&gt;Node39 -->
<g id="edge110" class="edge"><title>Node38&#45;&gt;Node39</title>
<path fill="none" stroke="midnightblue" d="M877.69,-537.475C868.818,-528.373 854.554,-513.741 843.58,-502.483"/>
<polygon fill="midnightblue" stroke="midnightblue" points="845.781,-499.727 836.295,-495.009 840.769,-504.613 845.781,-499.727"/>
</g>
<!-- Node40&#45;&gt;Node6 -->
<g id="edge120" class="edge"><title>Node40&#45;&gt;Node6</title>
<path fill="none" stroke="midnightblue" d="M1961.88,-649.191C1960.66,-597.643 1946.9,-333.963 1794,-235 1722.21,-188.538 1685.23,-228.579 1605,-199 1570.21,-186.174 1533.58,-163.385 1511.51,-148.485"/>
<polygon fill="midnightblue" stroke="midnightblue" points="1513.22,-145.41 1502.99,-142.634 1509.25,-151.18 1513.22,-145.41"/>
</g>
<!-- Node40&#45;&gt;Node12 -->
<g id="edge122" class="edge"><title>Node40&#45;&gt;Node12</title>
<path fill="none" stroke="midnightblue" d="M1976.49,-649.316C2032.3,-615.118 2235.56,-483.665 2341,-322 2391.4,-244.733 2438.22,-206.959 2400,-123 2393.1,-107.844 2379.16,-95.4688 2366.67,-86.7625"/>
<polygon fill="midnightblue" stroke="midnightblue" points="2368.25,-83.6118 2357.96,-81.084 2364.42,-89.4763 2368.25,-83.6118"/>
</g>
<!-- Node40&#45;&gt;Node33 -->
<g id="edge121" class="edge"><title>Node40&#45;&gt;Node33</title>
<path fill="none" stroke="midnightblue" d="M1921.84,-655.522C1781.47,-646.859 1312.31,-617.905 1146.04,-607.644"/>
<polygon fill="midnightblue" stroke="midnightblue" points="1146.2,-604.147 1136,-607.024 1145.77,-611.134 1146.2,-604.147"/>
</g>
<!-- Node41&#45;&gt;Node5 -->
<g id="edge127" class="edge"><title>Node41&#45;&gt;Node5</title>
<path fill="none" stroke="midnightblue" d="M1750.38,-711.315C1614.11,-701.335 1164,-663.839 1164,-604 1164,-604 1164,-604 1164,-546 1164,-482.781 968.107,-447.691 859.867,-433.128"/>
<polygon fill="midnightblue" stroke="midnightblue" points="860.047,-429.621 849.675,-431.782 859.131,-436.561 860.047,-429.621"/>
</g>
<!-- Node41&#45;&gt;Node6 -->
<g id="edge124" class="edge"><title>Node41&#45;&gt;Node6</title>
<path fill="none" stroke="midnightblue" d="M1807.29,-705.345C1837.37,-689.692 1894,-653.634 1894,-604 1894,-604 1894,-604 1894,-546 1894,-389.529 1854.15,-328.924 1729,-235 1667.23,-188.641 1627.3,-235.058 1559,-199 1536.54,-187.144 1516.28,-165.712 1503.83,-150.71"/>
<polygon fill="midnightblue" stroke="midnightblue" points="1506.43,-148.356 1497.45,-142.741 1500.97,-152.733 1506.43,-148.356"/>
</g>
<!-- Node41&#45;&gt;Node12 -->
<g id="edge129" class="edge"><title>Node41&#45;&gt;Node12</title>
<path fill="none" stroke="midnightblue" d="M1827.87,-706.637C1889.3,-694.927 2002.76,-672.971 2011,-669 2087.47,-632.124 2513,-285.254 2513,-246 2513,-246 2513,-246 2513,-188 2513,-121.61 2423.39,-90.8136 2373.91,-78.8691"/>
<polygon fill="midnightblue" stroke="midnightblue" points="2374.53,-75.4219 2364.01,-76.6004 2372.97,-82.2451 2374.53,-75.4219"/>
</g>
<!-- Node41&#45;&gt;Node25 -->
<g id="edge125" class="edge"><title>Node41&#45;&gt;Node25</title>
<path fill="none" stroke="midnightblue" d="M1787.82,-705.462C1785.38,-686.994 1780,-641.939 1780,-604 1780,-604 1780,-604 1780,-546 1780,-422.199 1668.4,-303.191 1624.99,-261.581"/>
<polygon fill="midnightblue" stroke="midnightblue" points="1627.17,-258.829 1617.49,-254.52 1622.37,-263.925 1627.17,-258.829"/>
</g>
<!-- Node41&#45;&gt;Node33 -->
<g id="edge126" class="edge"><title>Node41&#45;&gt;Node33</title>
<path fill="none" stroke="midnightblue" d="M1750.16,-712.876C1620,-708.888 1204.32,-694.285 1150,-669 1127.82,-658.675 1109.32,-636.868 1098.22,-621.363"/>
<polygon fill="midnightblue" stroke="midnightblue" points="1100.83,-618.974 1092.3,-612.683 1095.04,-622.917 1100.83,-618.974"/>
</g>
<!-- Node41&#45;&gt;Node40 -->
<g id="edge128" class="edge"><title>Node41&#45;&gt;Node40</title>
<path fill="none" stroke="midnightblue" d="M1816.41,-705.444C1845.77,-696.28 1892.52,-681.688 1925.1,-671.519"/>
<polygon fill="midnightblue" stroke="midnightblue" points="1926.21,-674.837 1934.72,-668.516 1924.13,-668.155 1926.21,-674.837"/>
</g>
</g>
</svg>
