<?xml version="1.0" encoding="UTF-8" standalone="no"?>
<!DOCTYPE svg PUBLIC "-//W3C//DTD SVG 1.1//EN"
 "http://www.w3.org/Graphics/SVG/1.1/DTD/svg11.dtd">
<!-- Generated by graphviz version 2.38.0 (20140413.2041)
 -->
<!-- Title: include/tvm/te/tensor_intrin.h Pages: 1 -->
<svg width="3126pt" height="1192pt"
 viewBox="0.00 0.00 3126.00 1192.00" xmlns="http://www.w3.org/2000/svg" xmlns:xlink="http://www.w3.org/1999/xlink">
<g id="graph0" class="graph" transform="scale(1 1) rotate(0) translate(4 1188)">
<title>include/tvm/te/tensor_intrin.h</title>
<polygon fill="white" stroke="none" points="-4,4 -4,-1188 3122,-1188 3122,4 -4,4"/>
<!-- Node1 -->
<g id="node1" class="node"><title>Node1</title>
<polygon fill="#bfbfbf" stroke="black" points="1344.5,-1153.5 1344.5,-1183.5 1463.5,-1183.5 1463.5,-1153.5 1344.5,-1153.5"/>
<text text-anchor="start" x="1352.5" y="-1171.5" font-family="Helvetica,sans-Serif" font-size="10.00">include/tvm/te/tensor</text>
<text text-anchor="middle" x="1404" y="-1160.5" font-family="Helvetica,sans-Serif" font-size="10.00">_intrin.h</text>
</g>
<!-- Node2 -->
<g id="node2" class="node"><title>Node2</title>
<g id="a_node2"><a xlink:href="tensor_8h.html" target="_top" xlink:title="Dataflow tensor object. ">
<polygon fill="white" stroke="black" points="1635,-1097.5 1635,-1116.5 1725,-1116.5 1725,-1097.5 1635,-1097.5"/>
<text text-anchor="middle" x="1680" y="-1104.5" font-family="Helvetica,sans-Serif" font-size="10.00">tvm/te/tensor.h</text>
</a>
</g>
</g>
<!-- Node1&#45;&gt;Node2 -->
<g id="edge1" class="edge"><title>Node1&#45;&gt;Node2</title>
<path fill="none" stroke="midnightblue" d="M1463.55,-1154.66C1513.45,-1143.9 1583.84,-1128.73 1630.65,-1118.64"/>
<polygon fill="midnightblue" stroke="midnightblue" points="1631.52,-1122.03 1640.55,-1116.5 1630.04,-1115.19 1631.52,-1122.03"/>
</g>
<!-- Node11 -->
<g id="node11" class="node"><title>Node11</title>
<polygon fill="white" stroke="#bfbfbf" points="468,-62 468,-81 512,-81 512,-62 468,-62"/>
<text text-anchor="middle" x="490" y="-69" font-family="Helvetica,sans-Serif" font-size="10.00">string</text>
</g>
<!-- Node1&#45;&gt;Node11 -->
<g id="edge181" class="edge"><title>Node1&#45;&gt;Node11</title>
<path fill="none" stroke="midnightblue" d="M1344.12,-1165.76C1076.14,-1157.59 0,-1120.52 0,-1052 0,-1052 0,-1052 0,-188 0,-148.685 24.9682,-140.845 60,-123 129.68,-87.505 370.153,-76.3484 457.754,-73.415"/>
<polygon fill="midnightblue" stroke="midnightblue" points="458.012,-76.9087 467.894,-73.0898 457.787,-69.9123 458.012,-76.9087"/>
</g>
<!-- Node47 -->
<g id="node47" class="node"><title>Node47</title>
<g id="a_node47"><a xlink:href="buffer_8h.html" target="_top" xlink:title="Symbolic n&#45;dimensional array, to represent a memory buffer. ">
<polygon fill="white" stroke="black" points="1360.5,-873.5 1360.5,-892.5 1447.5,-892.5 1447.5,-873.5 1360.5,-873.5"/>
<text text-anchor="middle" x="1404" y="-880.5" font-family="Helvetica,sans-Serif" font-size="10.00">tvm/tir/buffer.h</text>
</a>
</g>
</g>
<!-- Node1&#45;&gt;Node47 -->
<g id="edge180" class="edge"><title>Node1&#45;&gt;Node47</title>
<path fill="none" stroke="midnightblue" d="M1404,-1153.28C1404,-1131.48 1404,-1088.49 1404,-1052 1404,-1052 1404,-1052 1404,-994 1404,-961.948 1404,-924.643 1404,-902.749"/>
<polygon fill="midnightblue" stroke="midnightblue" points="1407.5,-902.558 1404,-892.558 1400.5,-902.558 1407.5,-902.558"/>
</g>
<!-- Node3 -->
<g id="node3" class="node"><title>Node3</title>
<g id="a_node3"><a xlink:href="node_2container_8h.html" target="_top" xlink:title="Array/Map container in the DSL graph. ">
<polygon fill="white" stroke="black" points="1953.5,-414.5 1953.5,-433.5 2072.5,-433.5 2072.5,-414.5 1953.5,-414.5"/>
<text text-anchor="middle" x="2013" y="-421.5" font-family="Helvetica,sans-Serif" font-size="10.00">tvm/node/container.h</text>
</a>
</g>
</g>
<!-- Node2&#45;&gt;Node3 -->
<g id="edge2" class="edge"><title>Node2&#45;&gt;Node3</title>
<path fill="none" stroke="midnightblue" d="M1725.15,-1104.43C1948.9,-1096.39 2928,-1057.65 2928,-996 2928,-996 2928,-996 2928,-938 2928,-817.979 2826.35,-826.313 2762,-725 2711.15,-644.934 2732.6,-599.214 2661,-537 2604.04,-487.506 2578.14,-488.554 2505,-470 2358,-432.71 2179.37,-425.464 2082.92,-424.549"/>
<polygon fill="midnightblue" stroke="midnightblue" points="2082.73,-421.048 2072.7,-424.473 2082.68,-428.048 2082.73,-421.048"/>
</g>
<!-- Node10 -->
<g id="node10" class="node"><title>Node10</title>
<polygon fill="white" stroke="#bfbfbf" points="950,-62 950,-81 1018,-81 1018,-62 950,-62"/>
<text text-anchor="middle" x="984" y="-69" font-family="Helvetica,sans-Serif" font-size="10.00">type_traits</text>
</g>
<!-- Node2&#45;&gt;Node10 -->
<g id="edge179" class="edge"><title>Node2&#45;&gt;Node10</title>
<path fill="none" stroke="midnightblue" d="M1634.72,-1105.4C1407.48,-1102.27 396.645,-1086.97 259,-1061 174.185,-1045 76,-1082.31 76,-996 76,-996 76,-996 76,-602 76,-197.215 757.715,-96.3641 939.76,-76.6493"/>
<polygon fill="midnightblue" stroke="midnightblue" points="940.211,-80.1213 949.789,-75.5913 939.477,-73.1599 940.211,-80.1213"/>
</g>
<!-- Node2&#45;&gt;Node11 -->
<g id="edge176" class="edge"><title>Node2&#45;&gt;Node11</title>
<path fill="none" stroke="midnightblue" d="M1634.69,-1105.79C1382.54,-1104.48 160.91,-1096.32 90,-1061 56.8856,-1044.5 38,-1033 38,-996 38,-996 38,-996 38,-188 38,-147.769 65.0414,-141.043 101,-123 163.477,-91.6513 375.891,-78.1062 457.603,-73.9696"/>
<polygon fill="midnightblue" stroke="midnightblue" points="457.977,-77.4556 467.793,-73.4686 457.633,-70.464 457.977,-77.4556"/>
</g>
<!-- Node12 -->
<g id="node12" class="node"><title>Node12</title>
<polygon fill="white" stroke="#bfbfbf" points="2694,-62 2694,-81 2736,-81 2736,-62 2694,-62"/>
<text text-anchor="middle" x="2715" y="-69" font-family="Helvetica,sans-Serif" font-size="10.00">utility</text>
</g>
<!-- Node2&#45;&gt;Node12 -->
<g id="edge178" class="edge"><title>Node2&#45;&gt;Node12</title>
<path fill="none" stroke="midnightblue" d="M1725.23,-1105.52C1913.2,-1103.34 2633.22,-1093.04 2858,-1061 2975.92,-1044.19 3118,-1115.11 3118,-996 3118,-996 3118,-996 3118,-188 3118,-110.736 2840.8,-82.1857 2746.2,-74.6922"/>
<polygon fill="midnightblue" stroke="midnightblue" points="2746.34,-71.1928 2736.1,-73.918 2745.8,-78.1723 2746.34,-71.1928"/>
</g>
<!-- Node20 -->
<g id="node20" class="node"><title>Node20</title>
<polygon fill="white" stroke="#bfbfbf" points="2380.5,-179.5 2380.5,-198.5 2427.5,-198.5 2427.5,-179.5 2380.5,-179.5"/>
<text text-anchor="middle" x="2404" y="-186.5" font-family="Helvetica,sans-Serif" font-size="10.00">vector</text>
</g>
<!-- Node2&#45;&gt;Node20 -->
<g id="edge177" class="edge"><title>Node2&#45;&gt;Node20</title>
<path fill="none" stroke="midnightblue" d="M1725.29,-1105.83C1864.39,-1104.91 2297.57,-1098.95 2654,-1061 2827.86,-1042.49 3042,-1170.85 3042,-996 3042,-996 3042,-996 3042,-938 3042,-808.131 2852,-845.869 2852,-716 2852,-716 2852,-716 2852,-546 2852,-336.24 2679.1,-339.104 2497,-235 2476.05,-223.023 2451.43,-211.205 2432.79,-202.688"/>
<polygon fill="midnightblue" stroke="midnightblue" points="2434.19,-199.48 2423.64,-198.551 2431.31,-205.859 2434.19,-199.48"/>
</g>
<!-- Node32 -->
<g id="node32" class="node"><title>Node32</title>
<g id="a_node32"><a xlink:href="bound_8h.html" target="_top" xlink:title="Bound deducers. ">
<polygon fill="white" stroke="black" points="1807,-1041.5 1807,-1060.5 1909,-1060.5 1909,-1041.5 1807,-1041.5"/>
<text text-anchor="middle" x="1858" y="-1048.5" font-family="Helvetica,sans-Serif" font-size="10.00">tvm/arith/bound.h</text>
</a>
</g>
</g>
<!-- Node2&#45;&gt;Node32 -->
<g id="edge73" class="edge"><title>Node2&#45;&gt;Node32</title>
<path fill="none" stroke="midnightblue" d="M1708.2,-1097.44C1738.41,-1088.28 1786.51,-1073.69 1820.03,-1063.52"/>
<polygon fill="midnightblue" stroke="midnightblue" points="1821.37,-1066.77 1829.93,-1060.52 1819.34,-1060.07 1821.37,-1066.77"/>
</g>
<!-- Node45 -->
<g id="node45" class="node"><title>Node45</title>
<g id="a_node45"><a xlink:href="tir_2expr_8h.html" target="_top" xlink:title="TIR expressions. ">
<polygon fill="white" stroke="black" points="1710,-929.5 1710,-948.5 1790,-948.5 1790,-929.5 1710,-929.5"/>
<text text-anchor="middle" x="1750" y="-936.5" font-family="Helvetica,sans-Serif" font-size="10.00">tvm/tir/expr.h</text>
</a>
</g>
</g>
<!-- Node2&#45;&gt;Node45 -->
<g id="edge168" class="edge"><title>Node2&#45;&gt;Node45</title>
<path fill="none" stroke="midnightblue" d="M1679.44,-1097.45C1678.46,-1076.76 1678.24,-1022.85 1699,-985 1705.66,-972.868 1716.9,-962.414 1727.15,-954.643"/>
<polygon fill="midnightblue" stroke="midnightblue" points="1729.28,-957.423 1735.39,-948.769 1725.22,-951.722 1729.28,-957.423"/>
</g>
<!-- Node49 -->
<g id="node49" class="node"><title>Node49</title>
<g id="a_node49"><a xlink:href="tir_2op_8h.html" target="_top" xlink:title="Common operators defined for Expr. ">
<polygon fill="white" stroke="black" points="268,-1041.5 268,-1060.5 340,-1060.5 340,-1041.5 268,-1041.5"/>
<text text-anchor="middle" x="304" y="-1048.5" font-family="Helvetica,sans-Serif" font-size="10.00">tvm/tir/op.h</text>
</a>
</g>
</g>
<!-- Node2&#45;&gt;Node49 -->
<g id="edge169" class="edge"><title>Node2&#45;&gt;Node49</title>
<path fill="none" stroke="midnightblue" d="M1634.61,-1104.22C1425.97,-1096.03 560.259,-1062.06 350.113,-1053.81"/>
<polygon fill="midnightblue" stroke="midnightblue" points="350.166,-1050.31 340.037,-1053.41 349.892,-1057.3 350.166,-1050.31"/>
</g>
<!-- Node4 -->
<g id="node4" class="node"><title>Node4</title>
<g id="a_node4"><a xlink:href="object_8h.html" target="_top" xlink:title="A managed object in the TVM runtime. ">
<polygon fill="white" stroke="black" points="1651.5,-123.5 1651.5,-142.5 1768.5,-142.5 1768.5,-123.5 1651.5,-123.5"/>
<text text-anchor="middle" x="1710" y="-130.5" font-family="Helvetica,sans-Serif" font-size="10.00">tvm/runtime/object.h</text>
</a>
</g>
</g>
<!-- Node3&#45;&gt;Node4 -->
<g id="edge3" class="edge"><title>Node3&#45;&gt;Node4</title>
<path fill="none" stroke="midnightblue" d="M2008.23,-414.467C1995.11,-391.669 1956.32,-328.522 1909,-291 1879.4,-267.528 1865.72,-272.03 1832,-255 1785.49,-231.51 1761.71,-239.562 1729,-199 1718.29,-185.712 1713.61,-166.589 1711.58,-152.524"/>
<polygon fill="midnightblue" stroke="midnightblue" points="1715.05,-152.078 1710.44,-142.536 1708.09,-152.868 1715.05,-152.078"/>
</g>
<!-- Node3&#45;&gt;Node10 -->
<g id="edge67" class="edge"><title>Node3&#45;&gt;Node10</title>
<path fill="none" stroke="midnightblue" d="M1953.38,-423.322C1810.74,-421.581 1442.47,-402.051 1184,-255 1103.02,-208.929 1027.55,-124.801 997.597,-89.1617"/>
<polygon fill="midnightblue" stroke="midnightblue" points="1000.07,-86.6578 990.987,-81.1983 994.681,-91.1285 1000.07,-86.6578"/>
</g>
<!-- Node3&#45;&gt;Node11 -->
<g id="edge72" class="edge"><title>Node3&#45;&gt;Node11</title>
<path fill="none" stroke="midnightblue" d="M1953.47,-422.485C1849.3,-420.656 1627.55,-412.622 1444,-378 1359.58,-362.077 1340.67,-348.631 1259,-322 1004.29,-238.95 946.577,-200.093 690,-123 631.283,-105.357 561.654,-88.7267 521.968,-79.6448"/>
<polygon fill="midnightblue" stroke="midnightblue" points="522.602,-76.1998 512.075,-77.3956 521.05,-83.0256 522.602,-76.1998"/>
</g>
<!-- Node3&#45;&gt;Node12 -->
<g id="edge71" class="edge"><title>Node3&#45;&gt;Node12</title>
<path fill="none" stroke="midnightblue" d="M2072.59,-419.84C2133.18,-415.266 2229.1,-404.24 2308,-378 2468.18,-324.729 2506.53,-298.357 2643,-199 2671.97,-177.91 2683.84,-174.455 2701,-143 2709.76,-126.939 2713.08,-106.148 2714.32,-91.3151"/>
<polygon fill="midnightblue" stroke="midnightblue" points="2717.81,-91.5001 2714.91,-81.3101 2710.82,-91.085 2717.81,-91.5001"/>
</g>
<!-- Node14 -->
<g id="node14" class="node"><title>Node14</title>
<g id="a_node14"><a xlink:href="runtime_2memory_8h.html" target="_top" xlink:title="Runtime memory management. ">
<polygon fill="white" stroke="black" points="2445.5,-179.5 2445.5,-198.5 2572.5,-198.5 2572.5,-179.5 2445.5,-179.5"/>
<text text-anchor="middle" x="2509" y="-186.5" font-family="Helvetica,sans-Serif" font-size="10.00">tvm/runtime/memory.h</text>
</a>
</g>
</g>
<!-- Node3&#45;&gt;Node14 -->
<g id="edge13" class="edge"><title>Node3&#45;&gt;Node14</title>
<path fill="none" stroke="midnightblue" d="M2072.57,-419.301C2126.43,-414.43 2207.14,-403.281 2273,-378 2371.66,-340.13 2461.38,-245.193 2494.99,-206.652"/>
<polygon fill="midnightblue" stroke="midnightblue" points="2497.76,-208.79 2501.63,-198.924 2492.45,-204.228 2497.76,-208.79"/>
</g>
<!-- Node16 -->
<g id="node16" class="node"><title>Node16</title>
<g id="a_node16"><a xlink:href="packed__func_8h.html" target="_top" xlink:title="Type&#45;erased function used across TVM API. ">
<polygon fill="white" stroke="black" points="1787.5,-291.5 1787.5,-321.5 1900.5,-321.5 1900.5,-291.5 1787.5,-291.5"/>
<text text-anchor="start" x="1795.5" y="-309.5" font-family="Helvetica,sans-Serif" font-size="10.00">tvm/runtime/packed</text>
<text text-anchor="middle" x="1844" y="-298.5" font-family="Helvetica,sans-Serif" font-size="10.00">_func.h</text>
</a>
</g>
</g>
<!-- Node3&#45;&gt;Node16 -->
<g id="edge18" class="edge"><title>Node3&#45;&gt;Node16</title>
<path fill="none" stroke="midnightblue" d="M2000.3,-414.319C1973.43,-395.96 1910.28,-352.796 1872.99,-327.312"/>
<polygon fill="midnightblue" stroke="midnightblue" points="1874.78,-324.298 1864.55,-321.545 1870.83,-330.077 1874.78,-324.298"/>
</g>
<!-- Node3&#45;&gt;Node20 -->
<g id="edge68" class="edge"><title>Node3&#45;&gt;Node20</title>
<path fill="none" stroke="midnightblue" d="M2072.73,-417.815C2142.52,-408.941 2258.1,-385.154 2334,-322 2370.61,-291.533 2390.72,-236.86 2399.16,-208.38"/>
<polygon fill="midnightblue" stroke="midnightblue" points="2402.59,-209.115 2401.91,-198.542 2395.85,-207.227 2402.59,-209.115"/>
</g>
<!-- Node21 -->
<g id="node21" class="node"><title>Node21</title>
<polygon fill="white" stroke="#bfbfbf" points="2919.5,-179.5 2919.5,-198.5 3012.5,-198.5 3012.5,-179.5 2919.5,-179.5"/>
<text text-anchor="middle" x="2966" y="-186.5" font-family="Helvetica,sans-Serif" font-size="10.00">unordered_map</text>
</g>
<!-- Node3&#45;&gt;Node21 -->
<g id="edge70" class="edge"><title>Node3&#45;&gt;Node21</title>
<path fill="none" stroke="midnightblue" d="M2072.71,-423.858C2196.88,-423.642 2490.03,-412.643 2714,-322 2802.08,-286.354 2900.09,-229.737 2943.37,-203.799"/>
<polygon fill="midnightblue" stroke="midnightblue" points="2945.22,-206.766 2951.98,-198.606 2941.61,-200.77 2945.22,-206.766"/>
</g>
<!-- Node29 -->
<g id="node29" class="node"><title>Node29</title>
<g id="a_node29"><a xlink:href="runtime_2container_8h.html" target="_top" xlink:title="Common POD(plain old data) container types. ">
<polygon fill="white" stroke="black" points="1598,-358.5 1598,-377.5 1730,-377.5 1730,-358.5 1598,-358.5"/>
<text text-anchor="middle" x="1664" y="-365.5" font-family="Helvetica,sans-Serif" font-size="10.00">tvm/runtime/container.h</text>
</a>
</g>
</g>
<!-- Node3&#45;&gt;Node29 -->
<g id="edge56" class="edge"><title>Node3&#45;&gt;Node29</title>
<path fill="none" stroke="midnightblue" d="M1957.7,-414.444C1895.67,-404.846 1795.14,-389.292 1729.3,-379.104"/>
<polygon fill="midnightblue" stroke="midnightblue" points="1729.46,-375.587 1719.04,-377.516 1728.39,-382.504 1729.46,-375.587"/>
</g>
<!-- Node31 -->
<g id="node31" class="node"><title>Node31</title>
<polygon fill="white" stroke="#bfbfbf" points="1692.5,-297 1692.5,-316 1769.5,-316 1769.5,-297 1692.5,-297"/>
<text text-anchor="middle" x="1731" y="-304" font-family="Helvetica,sans-Serif" font-size="10.00">initializer_list</text>
</g>
<!-- Node3&#45;&gt;Node31 -->
<g id="edge69" class="edge"><title>Node3&#45;&gt;Node31</title>
<path fill="none" stroke="midnightblue" d="M1991.8,-414.319C1942.28,-394.035 1818.83,-343.473 1761.34,-319.928"/>
<polygon fill="midnightblue" stroke="midnightblue" points="1762.64,-316.676 1752.06,-316.124 1759.98,-323.154 1762.64,-316.676"/>
</g>
<!-- Node5 -->
<g id="node5" class="node"><title>Node5</title>
<polygon fill="white" stroke="#bfbfbf" points="1401,-62 1401,-81 1487,-81 1487,-62 1401,-62"/>
<text text-anchor="middle" x="1444" y="-69" font-family="Helvetica,sans-Serif" font-size="10.00">dmlc/logging.h</text>
</g>
<!-- Node4&#45;&gt;Node5 -->
<g id="edge4" class="edge"><title>Node4&#45;&gt;Node5</title>
<path fill="none" stroke="midnightblue" d="M1671.89,-123.475C1624.48,-112.871 1543.52,-94.7602 1491.94,-83.2244"/>
<polygon fill="midnightblue" stroke="midnightblue" points="1492.56,-79.7765 1482.04,-81.0091 1491.04,-86.6077 1492.56,-79.7765"/>
</g>
<!-- Node6 -->
<g id="node6" class="node"><title>Node6</title>
<g id="a_node6"><a xlink:href="c__runtime__api_8h.html" target="_top" xlink:title="tvm/runtime/c_runtime\l_api.h">
<polygon fill="white" stroke="black" points="2212.5,-56.5 2212.5,-86.5 2339.5,-86.5 2339.5,-56.5 2212.5,-56.5"/>
<text text-anchor="start" x="2220.5" y="-74.5" font-family="Helvetica,sans-Serif" font-size="10.00">tvm/runtime/c_runtime</text>
<text text-anchor="middle" x="2276" y="-63.5" font-family="Helvetica,sans-Serif" font-size="10.00">_api.h</text>
</a>
</g>
</g>
<!-- Node4&#45;&gt;Node6 -->
<g id="edge5" class="edge"><title>Node4&#45;&gt;Node6</title>
<path fill="none" stroke="midnightblue" d="M1768.7,-125.829C1872.61,-114.906 2088.62,-92.1981 2202.34,-80.2436"/>
<polygon fill="midnightblue" stroke="midnightblue" points="2202.77,-83.7176 2212.35,-79.1912 2202.04,-76.756 2202.77,-83.7176"/>
</g>
<!-- Node4&#45;&gt;Node10 -->
<g id="edge9" class="edge"><title>Node4&#45;&gt;Node10</title>
<path fill="none" stroke="midnightblue" d="M1651.2,-127.181C1509.85,-115.597 1153.45,-86.3873 1028.29,-76.1295"/>
<polygon fill="midnightblue" stroke="midnightblue" points="1028.54,-72.6387 1018.29,-75.3101 1027.97,-79.6153 1028.54,-72.6387"/>
</g>
<!-- Node4&#45;&gt;Node11 -->
<g id="edge10" class="edge"><title>Node4&#45;&gt;Node11</title>
<path fill="none" stroke="midnightblue" d="M1651.16,-129.13C1434.82,-118.579 687.504,-82.1324 522.438,-74.082"/>
<polygon fill="midnightblue" stroke="midnightblue" points="522.578,-70.5848 512.419,-73.5934 522.236,-77.5764 522.578,-70.5848"/>
</g>
<!-- Node4&#45;&gt;Node12 -->
<g id="edge11" class="edge"><title>Node4&#45;&gt;Node12</title>
<path fill="none" stroke="midnightblue" d="M1768.75,-128.522C1956.97,-117.378 2541.08,-82.7968 2683.46,-74.3671"/>
<polygon fill="midnightblue" stroke="midnightblue" points="2683.9,-77.8474 2693.68,-73.7624 2683.49,-70.8596 2683.9,-77.8474"/>
</g>
<!-- Node13 -->
<g id="node13" class="node"><title>Node13</title>
<polygon fill="white" stroke="#bfbfbf" points="1873,-62 1873,-81 1923,-81 1923,-62 1873,-62"/>
<text text-anchor="middle" x="1898" y="-69" font-family="Helvetica,sans-Serif" font-size="10.00">atomic</text>
</g>
<!-- Node4&#45;&gt;Node13 -->
<g id="edge12" class="edge"><title>Node4&#45;&gt;Node13</title>
<path fill="none" stroke="midnightblue" d="M1736.94,-123.475C1770.16,-112.96 1826.71,-95.0632 1863.19,-83.5158"/>
<polygon fill="midnightblue" stroke="midnightblue" points="1864.44,-86.7929 1872.92,-80.4386 1862.33,-80.1192 1864.44,-86.7929"/>
</g>
<!-- Node7 -->
<g id="node7" class="node"><title>Node7</title>
<polygon fill="white" stroke="#bfbfbf" points="2141,-0.5 2141,-19.5 2231,-19.5 2231,-0.5 2141,-0.5"/>
<text text-anchor="middle" x="2186" y="-7.5" font-family="Helvetica,sans-Serif" font-size="10.00">dlpack/dlpack.h</text>
</g>
<!-- Node6&#45;&gt;Node7 -->
<g id="edge6" class="edge"><title>Node6&#45;&gt;Node7</title>
<path fill="none" stroke="midnightblue" d="M2254.67,-56.3993C2240.51,-47.0402 2221.99,-34.7924 2207.75,-25.3771"/>
<polygon fill="midnightblue" stroke="midnightblue" points="2209.37,-22.2531 2199.1,-19.6578 2205.51,-28.0923 2209.37,-22.2531"/>
</g>
<!-- Node8 -->
<g id="node8" class="node"><title>Node8</title>
<polygon fill="white" stroke="#bfbfbf" points="2249.5,-0.5 2249.5,-19.5 2302.5,-19.5 2302.5,-0.5 2249.5,-0.5"/>
<text text-anchor="middle" x="2276" y="-7.5" font-family="Helvetica,sans-Serif" font-size="10.00">stdint.h</text>
</g>
<!-- Node6&#45;&gt;Node8 -->
<g id="edge7" class="edge"><title>Node6&#45;&gt;Node8</title>
<path fill="none" stroke="midnightblue" d="M2276,-56.3993C2276,-48.4664 2276,-38.458 2276,-29.8583"/>
<polygon fill="midnightblue" stroke="midnightblue" points="2279.5,-29.6577 2276,-19.6578 2272.5,-29.6578 2279.5,-29.6577"/>
</g>
<!-- Node9 -->
<g id="node9" class="node"><title>Node9</title>
<polygon fill="white" stroke="#bfbfbf" points="2320.5,-0.5 2320.5,-19.5 2375.5,-19.5 2375.5,-0.5 2320.5,-0.5"/>
<text text-anchor="middle" x="2348" y="-7.5" font-family="Helvetica,sans-Serif" font-size="10.00">stddef.h</text>
</g>
<!-- Node6&#45;&gt;Node9 -->
<g id="edge8" class="edge"><title>Node6&#45;&gt;Node9</title>
<path fill="none" stroke="midnightblue" d="M2293.06,-56.3993C2304.06,-47.3076 2318.37,-35.4899 2329.62,-26.1909"/>
<polygon fill="midnightblue" stroke="midnightblue" points="2332.04,-28.726 2337.52,-19.6578 2327.59,-23.33 2332.04,-28.726"/>
</g>
<!-- Node14&#45;&gt;Node4 -->
<g id="edge14" class="edge"><title>Node14&#45;&gt;Node4</title>
<path fill="none" stroke="midnightblue" d="M2445.32,-179.918C2442.17,-179.591 2439.05,-179.282 2436,-179 2309.7,-167.311 1934.57,-146.258 1778.9,-137.734"/>
<polygon fill="midnightblue" stroke="midnightblue" points="1778.7,-134.218 1768.52,-137.167 1778.32,-141.207 1778.7,-134.218"/>
</g>
<!-- Node14&#45;&gt;Node10 -->
<g id="edge17" class="edge"><title>Node14&#45;&gt;Node10</title>
<path fill="none" stroke="midnightblue" d="M2461.77,-179.476C2381.12,-165.277 2211.56,-136.965 2067,-123 1860.33,-103.035 1205.55,-79.976 1028.5,-73.9832"/>
<polygon fill="midnightblue" stroke="midnightblue" points="1028.37,-70.4769 1018.26,-73.6375 1028.13,-77.4729 1028.37,-70.4769"/>
</g>
<!-- Node14&#45;&gt;Node12 -->
<g id="edge16" class="edge"><title>Node14&#45;&gt;Node12</title>
<path fill="none" stroke="midnightblue" d="M2524.48,-179.319C2560.06,-159.37 2647.87,-110.136 2690.71,-86.1178"/>
<polygon fill="midnightblue" stroke="midnightblue" points="2692.61,-89.0679 2699.62,-81.1245 2689.18,-82.9622 2692.61,-89.0679"/>
</g>
<!-- Node15 -->
<g id="node15" class="node"><title>Node15</title>
<polygon fill="white" stroke="#bfbfbf" points="2485.5,-123.5 2485.5,-142.5 2532.5,-142.5 2532.5,-123.5 2485.5,-123.5"/>
<text text-anchor="middle" x="2509" y="-130.5" font-family="Helvetica,sans-Serif" font-size="10.00">cstdlib</text>
</g>
<!-- Node14&#45;&gt;Node15 -->
<g id="edge15" class="edge"><title>Node14&#45;&gt;Node15</title>
<path fill="none" stroke="midnightblue" d="M2509,-179.083C2509,-172.006 2509,-161.861 2509,-152.986"/>
<polygon fill="midnightblue" stroke="midnightblue" points="2512.5,-152.751 2509,-142.751 2505.5,-152.751 2512.5,-152.751"/>
</g>
<!-- Node16&#45;&gt;Node4 -->
<g id="edge47" class="edge"><title>Node16&#45;&gt;Node4</title>
<path fill="none" stroke="midnightblue" d="M1791.43,-291.417C1749.65,-279.696 1697.21,-263.585 1691,-255 1668.56,-223.966 1687.1,-176.713 1700.06,-151.42"/>
<polygon fill="midnightblue" stroke="midnightblue" points="1703.15,-153.061 1704.82,-142.598 1696.99,-149.737 1703.15,-153.061"/>
</g>
<!-- Node16&#45;&gt;Node5 -->
<g id="edge19" class="edge"><title>Node16&#45;&gt;Node5</title>
<path fill="none" stroke="midnightblue" d="M1790.77,-291.459C1750.4,-280.39 1698.61,-265.176 1679,-255 1587.35,-207.443 1495.56,-122.892 1459.71,-88.1082"/>
<polygon fill="midnightblue" stroke="midnightblue" points="1462.16,-85.6045 1452.57,-81.1077 1457.26,-90.6054 1462.16,-85.6045"/>
</g>
<!-- Node16&#45;&gt;Node6 -->
<g id="edge20" class="edge"><title>Node16&#45;&gt;Node6</title>
<path fill="none" stroke="midnightblue" d="M1900.56,-296.651C1985.27,-283.318 2136.46,-259.187 2148,-255 2164.48,-249.019 2166.25,-242.692 2182,-235 2221.08,-215.916 2243.02,-230.508 2273,-199 2297,-173.777 2297.32,-157.408 2292,-123 2290.62,-114.083 2287.95,-104.584 2285.18,-96.2579"/>
<polygon fill="midnightblue" stroke="midnightblue" points="2288.47,-95.0598 2281.83,-86.8025 2281.87,-97.3972 2288.47,-95.0598"/>
</g>
<!-- Node16&#45;&gt;Node10 -->
<g id="edge55" class="edge"><title>Node16&#45;&gt;Node10</title>
<path fill="none" stroke="midnightblue" d="M1787.2,-292.575C1784.09,-292.008 1781.01,-291.478 1778,-291 1617,-265.466 1569.44,-300.804 1413,-255 1397.5,-250.462 1169,-128.991 1154,-123 1112.23,-106.315 1062.78,-92.2287 1028.01,-83.2077"/>
<polygon fill="midnightblue" stroke="midnightblue" points="1028.72,-79.7767 1018.16,-80.6867 1026.98,-86.5579 1028.72,-79.7767"/>
</g>
<!-- Node16&#45;&gt;Node11 -->
<g id="edge51" class="edge"><title>Node16&#45;&gt;Node11</title>
<path fill="none" stroke="midnightblue" d="M1787.21,-292.538C1784.1,-291.98 1781.01,-291.462 1778,-291 1598.06,-263.413 1543.37,-310.509 1370,-255 1353.3,-249.654 1352.23,-241.622 1336,-235 1144.37,-156.83 1087.43,-161.108 884,-123 750.814,-98.0499 589.969,-81.65 522.385,-75.3734"/>
<polygon fill="midnightblue" stroke="midnightblue" points="522.635,-71.8817 512.357,-74.4532 521.995,-78.8525 522.635,-71.8817"/>
</g>
<!-- Node16&#45;&gt;Node12 -->
<g id="edge54" class="edge"><title>Node16&#45;&gt;Node12</title>
<path fill="none" stroke="midnightblue" d="M1900.64,-301.812C2051.65,-291.275 2460.61,-257.94 2581,-199 2634.7,-172.712 2681.4,-117.395 2702.71,-89.4387"/>
<polygon fill="midnightblue" stroke="midnightblue" points="2705.77,-91.1972 2708.94,-81.0881 2700.15,-87.0131 2705.77,-91.1972"/>
</g>
<!-- Node17 -->
<g id="node17" class="node"><title>Node17</title>
<g id="a_node17"><a xlink:href="runtime_2module_8h.html" target="_top" xlink:title="Runtime container of the functions generated by TVM, This is used to support dynamically link...">
<polygon fill="white" stroke="black" points="1874,-235.5 1874,-254.5 1998,-254.5 1998,-235.5 1874,-235.5"/>
<text text-anchor="middle" x="1936" y="-242.5" font-family="Helvetica,sans-Serif" font-size="10.00">tvm/runtime/module.h</text>
</a>
</g>
</g>
<!-- Node16&#45;&gt;Node17 -->
<g id="edge21" class="edge"><title>Node16&#45;&gt;Node17</title>
<path fill="none" stroke="midnightblue" d="M1859.96,-291.399C1873.49,-281.862 1892.88,-269.325 1908.79,-259.842"/>
<polygon fill="midnightblue" stroke="midnightblue" points="1910.81,-262.718 1917.68,-254.658 1907.28,-256.67 1910.81,-262.718"/>
</g>
<!-- Node19 -->
<g id="node19" class="node"><title>Node19</title>
<polygon fill="white" stroke="#bfbfbf" points="1738.5,-179.5 1738.5,-198.5 1795.5,-198.5 1795.5,-179.5 1738.5,-179.5"/>
<text text-anchor="middle" x="1767" y="-186.5" font-family="Helvetica,sans-Serif" font-size="10.00">memory</text>
</g>
<!-- Node16&#45;&gt;Node19 -->
<g id="edge53" class="edge"><title>Node16&#45;&gt;Node19</title>
<path fill="none" stroke="midnightblue" d="M1834.56,-291.337C1820.37,-270.054 1793.59,-229.887 1778.36,-207.035"/>
<polygon fill="midnightblue" stroke="midnightblue" points="1781.24,-205.049 1772.78,-198.669 1775.41,-208.931 1781.24,-205.049"/>
</g>
<!-- Node16&#45;&gt;Node20 -->
<g id="edge50" class="edge"><title>Node16&#45;&gt;Node20</title>
<path fill="none" stroke="midnightblue" d="M1900.51,-301.339C1968.35,-295.368 2085.12,-281.975 2182,-255 2204.26,-248.801 2208.09,-242.356 2230,-235 2255.82,-226.33 2327.36,-208.553 2370.25,-198.125"/>
<polygon fill="midnightblue" stroke="midnightblue" points="2371.33,-201.463 2380.23,-195.705 2369.68,-194.66 2371.33,-201.463"/>
</g>
<!-- Node22 -->
<g id="node22" class="node"><title>Node22</title>
<g id="a_node22"><a xlink:href="ndarray_8h.html" target="_top" xlink:title="A device&#45;independent managed NDArray abstraction. ">
<polygon fill="white" stroke="black" points="2016.5,-235.5 2016.5,-254.5 2139.5,-254.5 2139.5,-235.5 2016.5,-235.5"/>
<text text-anchor="middle" x="2078" y="-242.5" font-family="Helvetica,sans-Serif" font-size="10.00">tvm/runtime/ndarray.h</text>
</a>
</g>
</g>
<!-- Node16&#45;&gt;Node22 -->
<g id="edge31" class="edge"><title>Node16&#45;&gt;Node22</title>
<path fill="none" stroke="midnightblue" d="M1899.16,-291.475C1940.59,-280.941 1996.53,-266.716 2034.75,-256.998"/>
<polygon fill="midnightblue" stroke="midnightblue" points="2035.72,-260.363 2044.55,-254.506 2033.99,-253.579 2035.72,-260.363"/>
</g>
<!-- Node25 -->
<g id="node25" class="node"><title>Node25</title>
<g id="a_node25"><a xlink:href="data__type_8h.html" target="_top" xlink:title="tvm/runtime/data_type.h">
<polygon fill="white" stroke="black" points="806,-235.5 806,-254.5 942,-254.5 942,-235.5 806,-235.5"/>
<text text-anchor="middle" x="874" y="-242.5" font-family="Helvetica,sans-Serif" font-size="10.00">tvm/runtime/data_type.h</text>
</a>
</g>
</g>
<!-- Node16&#45;&gt;Node25 -->
<g id="edge42" class="edge"><title>Node16&#45;&gt;Node25</title>
<path fill="none" stroke="midnightblue" d="M1787.23,-292.398C1784.11,-291.876 1781.02,-291.404 1778,-291 1619.52,-269.797 1141.73,-253.867 952.454,-248.226"/>
<polygon fill="midnightblue" stroke="midnightblue" points="952.402,-244.723 942.303,-247.925 952.195,-251.72 952.402,-244.723"/>
</g>
<!-- Node26 -->
<g id="node26" class="node"><title>Node26</title>
<polygon fill="white" stroke="#bfbfbf" points="1264.5,-235.5 1264.5,-254.5 1327.5,-254.5 1327.5,-235.5 1264.5,-235.5"/>
<text text-anchor="middle" x="1296" y="-242.5" font-family="Helvetica,sans-Serif" font-size="10.00">functional</text>
</g>
<!-- Node16&#45;&gt;Node26 -->
<g id="edge48" class="edge"><title>Node16&#45;&gt;Node26</title>
<path fill="none" stroke="midnightblue" d="M1787.21,-292.517C1784.1,-291.965 1781.02,-291.454 1778,-291 1585.73,-262.074 1534.59,-281.708 1342,-255 1340.54,-254.797 1339.05,-254.578 1337.56,-254.346"/>
<polygon fill="midnightblue" stroke="midnightblue" points="1338.04,-250.878 1327.6,-252.66 1336.87,-257.78 1338.04,-250.878"/>
</g>
<!-- Node27 -->
<g id="node27" class="node"><title>Node27</title>
<polygon fill="white" stroke="#bfbfbf" points="1700.5,-235.5 1700.5,-254.5 1741.5,-254.5 1741.5,-235.5 1700.5,-235.5"/>
<text text-anchor="middle" x="1721" y="-242.5" font-family="Helvetica,sans-Serif" font-size="10.00">tuple</text>
</g>
<!-- Node16&#45;&gt;Node27 -->
<g id="edge49" class="edge"><title>Node16&#45;&gt;Node27</title>
<path fill="none" stroke="midnightblue" d="M1814.85,-291.399C1794.58,-281.595 1767.76,-268.619 1747.98,-259.052"/>
<polygon fill="midnightblue" stroke="midnightblue" points="1749.42,-255.862 1738.9,-254.658 1746.38,-262.163 1749.42,-255.862"/>
</g>
<!-- Node28 -->
<g id="node28" class="node"><title>Node28</title>
<polygon fill="white" stroke="#bfbfbf" points="518,-235.5 518,-254.5 560,-254.5 560,-235.5 518,-235.5"/>
<text text-anchor="middle" x="539" y="-242.5" font-family="Helvetica,sans-Serif" font-size="10.00">limits</text>
</g>
<!-- Node16&#45;&gt;Node28 -->
<g id="edge52" class="edge"><title>Node16&#45;&gt;Node28</title>
<path fill="none" stroke="midnightblue" d="M1787.23,-292.349C1784.12,-291.84 1781.03,-291.384 1778,-291 1762.55,-289.039 761.797,-253.824 570.433,-247.103"/>
<polygon fill="midnightblue" stroke="midnightblue" points="570.334,-243.598 560.217,-246.744 570.088,-250.593 570.334,-243.598"/>
</g>
<!-- Node17&#45;&gt;Node4 -->
<g id="edge24" class="edge"><title>Node17&#45;&gt;Node4</title>
<path fill="none" stroke="midnightblue" d="M1925.09,-235.44C1907.54,-221.995 1871.63,-195.74 1838,-179 1809.89,-165.008 1776.35,-153.386 1750.65,-145.46"/>
<polygon fill="midnightblue" stroke="midnightblue" points="1751.45,-142.045 1740.87,-142.502 1749.43,-148.745 1751.45,-142.045"/>
</g>
<!-- Node17&#45;&gt;Node6 -->
<g id="edge23" class="edge"><title>Node17&#45;&gt;Node6</title>
<path fill="none" stroke="midnightblue" d="M1991.02,-235.491C2043.11,-226.82 2117.08,-212.731 2143,-199 2192,-173.041 2235.83,-123.93 2258.89,-95.1321"/>
<polygon fill="midnightblue" stroke="midnightblue" points="2261.93,-96.9209 2265.36,-86.8949 2256.43,-92.5968 2261.93,-96.9209"/>
</g>
<!-- Node17&#45;&gt;Node11 -->
<g id="edge28" class="edge"><title>Node17&#45;&gt;Node11</title>
<path fill="none" stroke="midnightblue" d="M1928.91,-235.379C1908.46,-211.338 1846.41,-143.94 1777,-123 1746.03,-113.655 718.637,-79.9153 522.26,-73.5424"/>
<polygon fill="midnightblue" stroke="midnightblue" points="522.134,-70.0366 512.026,-73.2107 521.907,-77.0329 522.134,-70.0366"/>
</g>
<!-- Node17&#45;&gt;Node14 -->
<g id="edge25" class="edge"><title>Node17&#45;&gt;Node14</title>
<path fill="none" stroke="midnightblue" d="M1998.32,-235.949C2001.25,-235.617 2004.16,-235.299 2007,-235 2194.03,-215.307 2243.99,-218.589 2435.21,-199.04"/>
<polygon fill="midnightblue" stroke="midnightblue" points="2435.73,-202.506 2445.32,-198 2435.01,-195.543 2435.73,-202.506"/>
</g>
<!-- Node17&#45;&gt;Node16 -->
<g id="edge30" class="edge"><title>Node17&#45;&gt;Node16</title>
<path fill="none" stroke="midnightblue" d="M1927.54,-254.658C1916.63,-262.859 1897.62,-275.462 1880.42,-286.069"/>
<polygon fill="midnightblue" stroke="midnightblue" points="1878.37,-283.217 1871.64,-291.399 1882.01,-289.2 1878.37,-283.217"/>
</g>
<!-- Node18 -->
<g id="node18" class="node"><title>Node18</title>
<polygon fill="white" stroke="#bfbfbf" points="1886,-123.5 1886,-142.5 1946,-142.5 1946,-123.5 1886,-123.5"/>
<text text-anchor="middle" x="1916" y="-130.5" font-family="Helvetica,sans-Serif" font-size="10.00">dmlc/io.h</text>
</g>
<!-- Node17&#45;&gt;Node18 -->
<g id="edge22" class="edge"><title>Node17&#45;&gt;Node18</title>
<path fill="none" stroke="midnightblue" d="M1941.22,-235.434C1948.2,-222.855 1958.92,-198.74 1952,-179 1948.21,-168.209 1940.63,-158.084 1933.4,-150.181"/>
<polygon fill="midnightblue" stroke="midnightblue" points="1935.67,-147.494 1926.16,-142.815 1930.67,-152.4 1935.67,-147.494"/>
</g>
<!-- Node17&#45;&gt;Node19 -->
<g id="edge26" class="edge"><title>Node17&#45;&gt;Node19</title>
<path fill="none" stroke="midnightblue" d="M1909.22,-235.444C1880.67,-226.32 1835.27,-211.813 1803.46,-201.651"/>
<polygon fill="midnightblue" stroke="midnightblue" points="1804.24,-198.226 1793.65,-198.516 1802.11,-204.894 1804.24,-198.226"/>
</g>
<!-- Node17&#45;&gt;Node20 -->
<g id="edge27" class="edge"><title>Node17&#45;&gt;Node20</title>
<path fill="none" stroke="midnightblue" d="M1998.33,-236.051C2001.26,-235.693 2004.16,-235.341 2007,-235 2141.34,-218.872 2301.45,-201.195 2370.06,-193.694"/>
<polygon fill="midnightblue" stroke="midnightblue" points="2370.71,-197.144 2380.27,-192.579 2369.95,-190.185 2370.71,-197.144"/>
</g>
<!-- Node17&#45;&gt;Node21 -->
<g id="edge29" class="edge"><title>Node17&#45;&gt;Node21</title>
<path fill="none" stroke="midnightblue" d="M1998.31,-235.818C2001.24,-235.522 2004.15,-235.247 2007,-235 2348.35,-205.403 2759.86,-194.323 2908.75,-191.105"/>
<polygon fill="midnightblue" stroke="midnightblue" points="2909.09,-194.599 2919.01,-190.887 2908.94,-187.601 2909.09,-194.599"/>
</g>
<!-- Node22&#45;&gt;Node4 -->
<g id="edge33" class="edge"><title>Node22&#45;&gt;Node4</title>
<path fill="none" stroke="midnightblue" d="M2051.34,-235.469C2011.68,-222.831 1934.75,-198.525 1869,-179 1829.05,-167.136 1783.23,-154.245 1751.08,-145.314"/>
<polygon fill="midnightblue" stroke="midnightblue" points="1751.72,-141.858 1741.14,-142.56 1749.85,-148.604 1751.72,-141.858"/>
</g>
<!-- Node22&#45;&gt;Node6 -->
<g id="edge32" class="edge"><title>Node22&#45;&gt;Node6</title>
<path fill="none" stroke="midnightblue" d="M2138.15,-235.424C2182.03,-227.924 2236.43,-215.626 2252,-199 2277.76,-171.488 2280,-125.338 2278.53,-97.0382"/>
<polygon fill="midnightblue" stroke="midnightblue" points="2282,-96.52 2277.79,-86.7972 2275.02,-97.0227 2282,-96.52"/>
</g>
<!-- Node22&#45;&gt;Node12 -->
<g id="edge41" class="edge"><title>Node22&#45;&gt;Node12</title>
<path fill="none" stroke="midnightblue" d="M2122.58,-235.452C2162.39,-227.409 2222.1,-214.329 2273,-199 2365.25,-171.22 2383.5,-149.923 2476,-123 2549.48,-101.614 2638.11,-85.2866 2684.03,-77.5116"/>
<polygon fill="midnightblue" stroke="midnightblue" points="2684.67,-80.9533 2693.96,-75.852 2683.52,-74.0491 2684.67,-80.9533"/>
</g>
<!-- Node22&#45;&gt;Node13 -->
<g id="edge39" class="edge"><title>Node22&#45;&gt;Node13</title>
<path fill="none" stroke="midnightblue" d="M2098.81,-235.317C2122.17,-224.176 2155.31,-203.357 2143,-179 2103.91,-101.646 1991.34,-80.4748 1933.4,-74.6817"/>
<polygon fill="midnightblue" stroke="midnightblue" points="1933.52,-71.1784 1923.24,-73.7689 1932.89,-78.1503 1933.52,-71.1784"/>
</g>
<!-- Node22&#45;&gt;Node20 -->
<g id="edge40" class="edge"><title>Node22&#45;&gt;Node20</title>
<path fill="none" stroke="midnightblue" d="M2129.66,-235.444C2197.09,-224.273 2313.24,-205.034 2370.33,-195.577"/>
<polygon fill="midnightblue" stroke="midnightblue" points="2370.98,-199.017 2380.28,-193.93 2369.84,-192.111 2370.98,-199.017"/>
</g>
<!-- Node23 -->
<g id="node23" class="node"><title>Node23</title>
<g id="a_node23"><a xlink:href="serializer_8h.html" target="_top" xlink:title="Serializer extension to support TVM data types Include this file to enable serialization of DLDataTyp...">
<polygon fill="white" stroke="black" points="2004,-179.5 2004,-198.5 2134,-198.5 2134,-179.5 2004,-179.5"/>
<text text-anchor="middle" x="2069" y="-186.5" font-family="Helvetica,sans-Serif" font-size="10.00">tvm/runtime/serializer.h</text>
</a>
</g>
</g>
<!-- Node22&#45;&gt;Node23 -->
<g id="edge34" class="edge"><title>Node22&#45;&gt;Node23</title>
<path fill="none" stroke="midnightblue" d="M2071.35,-235.083C2068.68,-228.006 2066.55,-217.861 2065.69,-208.986"/>
<polygon fill="midnightblue" stroke="midnightblue" points="2069.18,-208.622 2065.33,-198.751 2062.18,-208.867 2069.18,-208.622"/>
</g>
<!-- Node23&#45;&gt;Node6 -->
<g id="edge37" class="edge"><title>Node23&#45;&gt;Node6</title>
<path fill="none" stroke="midnightblue" d="M2077.55,-179.402C2091.35,-165.906 2119.84,-139.581 2148,-123 2170.7,-109.637 2197.58,-98.4175 2220.84,-89.9739"/>
<polygon fill="midnightblue" stroke="midnightblue" points="2222.31,-93.1671 2230.57,-86.527 2219.97,-86.5694 2222.31,-93.1671"/>
</g>
<!-- Node23&#45;&gt;Node18 -->
<g id="edge35" class="edge"><title>Node23&#45;&gt;Node18</title>
<path fill="none" stroke="midnightblue" d="M2044.76,-179.444C2019.13,-170.399 1978.51,-156.064 1949.76,-145.916"/>
<polygon fill="midnightblue" stroke="midnightblue" points="1950.72,-142.544 1940.13,-142.516 1948.39,-149.145 1950.72,-142.544"/>
</g>
<!-- Node23&#45;&gt;Node22 -->
<g id="edge38" class="edge"><title>Node23&#45;&gt;Node22</title>
<path fill="none" stroke="midnightblue" d="M2075.59,-198.751C2078.27,-205.78 2080.41,-215.91 2081.29,-224.805"/>
<polygon fill="midnightblue" stroke="midnightblue" points="2077.81,-225.222 2081.68,-235.083 2084.8,-224.958 2077.81,-225.222"/>
</g>
<!-- Node24 -->
<g id="node24" class="node"><title>Node24</title>
<polygon fill="white" stroke="#bfbfbf" points="1964,-123.5 1964,-142.5 2058,-142.5 2058,-123.5 1964,-123.5"/>
<text text-anchor="middle" x="2011" y="-130.5" font-family="Helvetica,sans-Serif" font-size="10.00">dmlc/serializer.h</text>
</g>
<!-- Node23&#45;&gt;Node24 -->
<g id="edge36" class="edge"><title>Node23&#45;&gt;Node24</title>
<path fill="none" stroke="midnightblue" d="M2059.68,-179.324C2051.11,-171.341 2038.19,-159.313 2027.81,-149.653"/>
<polygon fill="midnightblue" stroke="midnightblue" points="2030.19,-147.086 2020.49,-142.834 2025.42,-152.21 2030.19,-147.086"/>
</g>
<!-- Node25&#45;&gt;Node5 -->
<g id="edge44" class="edge"><title>Node25&#45;&gt;Node5</title>
<path fill="none" stroke="midnightblue" d="M902.266,-235.495C996.277,-207.21 1298.54,-116.265 1405.81,-83.992"/>
<polygon fill="midnightblue" stroke="midnightblue" points="1407,-87.2889 1415.56,-81.056 1404.98,-80.5857 1407,-87.2889"/>
</g>
<!-- Node25&#45;&gt;Node6 -->
<g id="edge43" class="edge"><title>Node25&#45;&gt;Node6</title>
<path fill="none" stroke="midnightblue" d="M920.144,-235.461C1039.24,-213.699 1366.88,-155.581 1642,-123 1844.17,-99.0577 2083.99,-83.4077 2202.36,-76.5246"/>
<polygon fill="midnightblue" stroke="midnightblue" points="2202.62,-80.0159 2212.4,-75.9452 2202.21,-73.0275 2202.62,-80.0159"/>
</g>
<!-- Node25&#45;&gt;Node10 -->
<g id="edge45" class="edge"><title>Node25&#45;&gt;Node10</title>
<path fill="none" stroke="midnightblue" d="M898.672,-235.449C915.794,-228.283 937.813,-216.399 951,-199 975.482,-166.699 981.866,-117.908 983.488,-91.3505"/>
<polygon fill="midnightblue" stroke="midnightblue" points="986.994,-91.2909 983.939,-81.1462 980.001,-90.982 986.994,-91.2909"/>
</g>
<!-- Node25&#45;&gt;Node11 -->
<g id="edge46" class="edge"><title>Node25&#45;&gt;Node11</title>
<path fill="none" stroke="midnightblue" d="M860.733,-235.318C827.46,-213.84 737.298,-157.47 656,-123 610.759,-103.818 555.773,-88.5775 521.829,-80.0435"/>
<polygon fill="midnightblue" stroke="midnightblue" points="522.553,-76.617 512.005,-77.6134 520.872,-83.4122 522.553,-76.617"/>
</g>
<!-- Node29&#45;&gt;Node4 -->
<g id="edge59" class="edge"><title>Node29&#45;&gt;Node4</title>
<path fill="none" stroke="midnightblue" d="M1663.15,-358.432C1660.77,-331.224 1655.65,-244.716 1679,-179 1682.69,-168.628 1689.4,-158.413 1695.64,-150.345"/>
<polygon fill="midnightblue" stroke="midnightblue" points="1698.42,-152.475 1702.06,-142.525 1693.01,-148.034 1698.42,-152.475"/>
</g>
<!-- Node29&#45;&gt;Node5 -->
<g id="edge57" class="edge"><title>Node29&#45;&gt;Node5</title>
<path fill="none" stroke="midnightblue" d="M1637.08,-358.463C1618.19,-351.304 1593.47,-339.422 1577,-322 1547.89,-291.211 1557.3,-272.723 1538,-235 1510.26,-180.779 1472.93,-119.127 1454.79,-89.7857"/>
<polygon fill="midnightblue" stroke="midnightblue" points="1457.67,-87.7808 1449.42,-81.1313 1451.72,-91.4732 1457.67,-87.7808"/>
</g>
<!-- Node29&#45;&gt;Node10 -->
<g id="edge64" class="edge"><title>Node29&#45;&gt;Node10</title>
<path fill="none" stroke="midnightblue" d="M1638.92,-358.392C1594.93,-343.475 1500.86,-312.37 1420,-291 1347.43,-271.821 1321.33,-290.139 1255,-255 1179.72,-215.116 1188.07,-168.434 1116,-123 1088.21,-105.48 1053.38,-92.4721 1026.48,-84.0493"/>
<polygon fill="midnightblue" stroke="midnightblue" points="1027.17,-80.6023 1016.58,-81.0458 1025.14,-87.3003 1027.17,-80.6023"/>
</g>
<!-- Node29&#45;&gt;Node11 -->
<g id="edge63" class="edge"><title>Node29&#45;&gt;Node11</title>
<path fill="none" stroke="midnightblue" d="M1605.85,-358.491C1556.12,-350.688 1482.84,-337.937 1420,-322 1281.38,-286.844 947.047,-156.429 808,-123 704.899,-98.2132 579.989,-82.4321 522.199,-75.92"/>
<polygon fill="midnightblue" stroke="midnightblue" points="522.535,-72.4359 512.21,-74.8119 521.763,-79.3932 522.535,-72.4359"/>
</g>
<!-- Node29&#45;&gt;Node12 -->
<g id="edge65" class="edge"><title>Node29&#45;&gt;Node12</title>
<path fill="none" stroke="midnightblue" d="M1730.19,-367.697C1890.23,-366.827 2307.34,-349.151 2611,-199 2646.4,-181.494 2655.32,-173.837 2680,-143 2692.64,-127.203 2702.37,-106.096 2708.32,-91.1056"/>
<polygon fill="midnightblue" stroke="midnightblue" points="2711.72,-92.0262 2711.98,-81.4346 2705.17,-89.5503 2711.72,-92.0262"/>
</g>
<!-- Node29&#45;&gt;Node14 -->
<g id="edge58" class="edge"><title>Node29&#45;&gt;Node14</title>
<path fill="none" stroke="midnightblue" d="M1730.19,-361.345C1801.82,-354.59 1919.19,-341.673 2019,-322 2191.21,-288.056 2392.15,-226.998 2472.8,-201.587"/>
<polygon fill="midnightblue" stroke="midnightblue" points="2474,-204.88 2482.48,-198.528 2471.89,-198.205 2474,-204.88"/>
</g>
<!-- Node29&#45;&gt;Node16 -->
<g id="edge60" class="edge"><title>Node29&#45;&gt;Node16</title>
<path fill="none" stroke="midnightblue" d="M1689.79,-358.475C1716.33,-349.701 1758.42,-335.788 1791.93,-324.712"/>
<polygon fill="midnightblue" stroke="midnightblue" points="1793.18,-327.985 1801.58,-321.523 1790.98,-321.338 1793.18,-327.985"/>
</g>
<!-- Node29&#45;&gt;Node20 -->
<g id="edge66" class="edge"><title>Node29&#45;&gt;Node20</title>
<path fill="none" stroke="midnightblue" d="M1721.12,-358.481C1822.64,-342.679 2040.7,-305.761 2220,-255 2274.83,-239.479 2337.03,-216.296 2373.26,-202.218"/>
<polygon fill="midnightblue" stroke="midnightblue" points="2374.72,-205.405 2382.76,-198.503 2372.17,-198.886 2374.72,-205.405"/>
</g>
<!-- Node30 -->
<g id="node30" class="node"><title>Node30</title>
<polygon fill="white" stroke="#bfbfbf" points="1586.5,-297 1586.5,-316 1635.5,-316 1635.5,-297 1586.5,-297"/>
<text text-anchor="middle" x="1611" y="-304" font-family="Helvetica,sans-Serif" font-size="10.00">cstring</text>
</g>
<!-- Node29&#45;&gt;Node30 -->
<g id="edge61" class="edge"><title>Node29&#45;&gt;Node30</title>
<path fill="none" stroke="midnightblue" d="M1656.41,-358.475C1648.3,-349.373 1635.27,-334.741 1625.24,-323.483"/>
<polygon fill="midnightblue" stroke="midnightblue" points="1627.84,-321.148 1618.58,-316.009 1622.62,-325.804 1627.84,-321.148"/>
</g>
<!-- Node29&#45;&gt;Node31 -->
<g id="edge62" class="edge"><title>Node29&#45;&gt;Node31</title>
<path fill="none" stroke="midnightblue" d="M1673.6,-358.475C1684.05,-349.197 1700.97,-334.171 1713.74,-322.831"/>
<polygon fill="midnightblue" stroke="midnightblue" points="1716.27,-325.266 1721.42,-316.009 1711.62,-320.032 1716.27,-325.266"/>
</g>
<!-- Node32&#45;&gt;Node3 -->
<g id="edge74" class="edge"><title>Node32&#45;&gt;Node3</title>
<path fill="none" stroke="midnightblue" d="M1909.17,-1044.04C2088.98,-1021.7 2681,-935.727 2681,-772 2681,-772 2681,-772 2681,-602 2681,-479.21 2253.92,-439.62 2082.74,-428.683"/>
<polygon fill="midnightblue" stroke="midnightblue" points="2082.77,-425.178 2072.57,-428.048 2082.34,-432.164 2082.77,-425.178"/>
</g>
<!-- Node32&#45;&gt;Node21 -->
<g id="edge167" class="edge"><title>Node32&#45;&gt;Node21</title>
<path fill="none" stroke="midnightblue" d="M1909.15,-1050.28C2106.56,-1050.67 2817.8,-1045.2 3018,-949 3053.98,-931.709 3080,-923.923 3080,-884 3080,-884 3080,-884 3080,-305.5 3080,-256.698 3027.81,-221.059 2994.05,-203.113"/>
<polygon fill="midnightblue" stroke="midnightblue" points="2995.58,-199.961 2985.08,-198.524 2992.39,-206.193 2995.58,-199.961"/>
</g>
<!-- Node33 -->
<g id="node33" class="node"><title>Node33</title>
<g id="a_node33"><a xlink:href="ir_2expr_8h.html" target="_top" xlink:title="Base expr nodes in TVM. ">
<polygon fill="white" stroke="black" points="1360.5,-761.5 1360.5,-780.5 1437.5,-780.5 1437.5,-761.5 1360.5,-761.5"/>
<text text-anchor="middle" x="1399" y="-768.5" font-family="Helvetica,sans-Serif" font-size="10.00">tvm/ir/expr.h</text>
</a>
</g>
</g>
<!-- Node32&#45;&gt;Node33 -->
<g id="edge75" class="edge"><title>Node32&#45;&gt;Node33</title>
<path fill="none" stroke="midnightblue" d="M1856.07,-1041.41C1850.75,-1019.66 1833.93,-961.793 1799,-929 1697.03,-833.268 1529.88,-793.55 1447.71,-779.147"/>
<polygon fill="midnightblue" stroke="midnightblue" points="1448.09,-775.661 1437.65,-777.435 1446.92,-782.562 1448.09,-775.661"/>
</g>
<!-- Node44 -->
<g id="node44" class="node"><title>Node44</title>
<g id="a_node44"><a xlink:href="int__set_8h.html" target="_top" xlink:title="Integer set. ">
<polygon fill="white" stroke="black" points="1941,-985.5 1941,-1004.5 2045,-1004.5 2045,-985.5 1941,-985.5"/>
<text text-anchor="middle" x="1993" y="-992.5" font-family="Helvetica,sans-Serif" font-size="10.00">tvm/arith/int_set.h</text>
</a>
</g>
</g>
<!-- Node32&#45;&gt;Node44 -->
<g id="edge134" class="edge"><title>Node32&#45;&gt;Node44</title>
<path fill="none" stroke="midnightblue" d="M1879.39,-1041.44C1901.71,-1032.52 1936.9,-1018.44 1962.21,-1008.32"/>
<polygon fill="midnightblue" stroke="midnightblue" points="1963.72,-1011.48 1971.71,-1004.52 1961.12,-1004.98 1963.72,-1011.48"/>
</g>
<!-- Node32&#45;&gt;Node45 -->
<g id="edge160" class="edge"><title>Node32&#45;&gt;Node45</title>
<path fill="none" stroke="midnightblue" d="M1850.78,-1041.32C1840.08,-1028.59 1819.21,-1004.29 1800,-985 1789.8,-974.759 1777.78,-963.904 1768.08,-955.421"/>
<polygon fill="midnightblue" stroke="midnightblue" points="1770.11,-952.549 1760.26,-948.652 1765.53,-957.842 1770.11,-952.549"/>
</g>
<!-- Node48 -->
<g id="node48" class="node"><title>Node48</title>
<g id="a_node48"><a xlink:href="stmt_8h.html" target="_top" xlink:title="TIR statements. ">
<polygon fill="white" stroke="black" points="1708.5,-985.5 1708.5,-1004.5 1791.5,-1004.5 1791.5,-985.5 1708.5,-985.5"/>
<text text-anchor="middle" x="1750" y="-992.5" font-family="Helvetica,sans-Serif" font-size="10.00">tvm/tir/stmt.h</text>
</a>
</g>
</g>
<!-- Node32&#45;&gt;Node48 -->
<g id="edge161" class="edge"><title>Node32&#45;&gt;Node48</title>
<path fill="none" stroke="midnightblue" d="M1840.65,-1041.32C1823.33,-1032.66 1796.48,-1019.24 1776.5,-1009.25"/>
<polygon fill="midnightblue" stroke="midnightblue" points="1777.82,-1006 1767.31,-1004.65 1774.69,-1012.26 1777.82,-1006"/>
</g>
<!-- Node33&#45;&gt;Node3 -->
<g id="edge118" class="edge"><title>Node33&#45;&gt;Node3</title>
<path fill="none" stroke="midnightblue" d="M1437.73,-765.648C1538.54,-752.438 1812.58,-704.239 1976,-557 1997.98,-537.195 2003.48,-529.334 2012,-501 2017.69,-482.087 2017.07,-459.311 2015.57,-443.654"/>
<polygon fill="midnightblue" stroke="midnightblue" points="2019.04,-443.193 2014.4,-433.668 2012.09,-444.007 2019.04,-443.193"/>
</g>
<!-- Node33&#45;&gt;Node4 -->
<g id="edge76" class="edge"><title>Node33&#45;&gt;Node4</title>
<path fill="none" stroke="midnightblue" d="M1437.59,-768.658C1647.57,-761.112 2643,-722.063 2643,-660 2643,-660 2643,-660 2643,-602 2643,-516.133 2434.65,-473.105 2427,-470 2365.05,-444.858 1919.03,-294.385 1865,-255 1830,-229.486 1837.94,-205.912 1804,-179 1786.25,-164.927 1763.39,-153.857 1744.65,-146.219"/>
<polygon fill="midnightblue" stroke="midnightblue" points="1745.87,-142.936 1735.28,-142.539 1743.31,-149.451 1745.87,-142.936"/>
</g>
<!-- Node33&#45;&gt;Node10 -->
<g id="edge133" class="edge"><title>Node33&#45;&gt;Node10</title>
<path fill="none" stroke="midnightblue" d="M1360.31,-768.696C1246.12,-764.569 915.907,-750.534 875,-725 846.421,-707.161 836,-693.69 836,-660 836,-660 836,-660 836,-423 836,-336.653 767.162,-319.037 787,-235 793.393,-207.918 795.877,-199.215 815,-179 837.162,-155.573 850.558,-159.939 878,-143 908.144,-124.393 942.094,-101.449 963.267,-86.8938"/>
<polygon fill="midnightblue" stroke="midnightblue" points="965.531,-89.5842 971.774,-81.0241 961.555,-83.8226 965.531,-89.5842"/>
</g>
<!-- Node33&#45;&gt;Node11 -->
<g id="edge130" class="edge"><title>Node33&#45;&gt;Node11</title>
<path fill="none" stroke="midnightblue" d="M1360.46,-768.814C1239.97,-764.87 871.508,-750.951 755,-725 687.569,-709.98 669.774,-703.635 610,-669 481.054,-594.284 380,-574.029 380,-425 380,-425 380,-425 380,-367 380,-255.135 450.511,-133.618 478.626,-89.611"/>
<polygon fill="midnightblue" stroke="midnightblue" points="481.571,-91.5023 484.086,-81.2101 475.702,-87.6878 481.571,-91.5023"/>
</g>
<!-- Node33&#45;&gt;Node28 -->
<g id="edge132" class="edge"><title>Node33&#45;&gt;Node28</title>
<path fill="none" stroke="midnightblue" d="M1360.23,-769.631C1247.5,-768.142 921.519,-760.773 822,-725 693.202,-678.702 570,-684.867 570,-548 570,-548 570,-548 570,-367 570,-329.389 555.771,-287.202 546.593,-263.903"/>
<polygon fill="midnightblue" stroke="midnightblue" points="549.82,-262.547 542.801,-254.611 543.339,-265.192 549.82,-262.547"/>
</g>
<!-- Node34 -->
<g id="node34" class="node"><title>Node34</title>
<g id="a_node34"><a xlink:href="node_8h.html" target="_top" xlink:title="Definitions and helper macros for IR/AST nodes. ">
<polygon fill="white" stroke="black" points="1350,-593.5 1350,-612.5 1448,-612.5 1448,-593.5 1350,-593.5"/>
<text text-anchor="middle" x="1399" y="-600.5" font-family="Helvetica,sans-Serif" font-size="10.00">tvm/node/node.h</text>
</a>
</g>
</g>
<!-- Node33&#45;&gt;Node34 -->
<g id="edge77" class="edge"><title>Node33&#45;&gt;Node34</title>
<path fill="none" stroke="midnightblue" d="M1399,-761.075C1399,-734.945 1399,-658.211 1399,-622.577"/>
<polygon fill="midnightblue" stroke="midnightblue" points="1402.5,-622.568 1399,-612.568 1395.5,-622.568 1402.5,-622.568"/>
</g>
<!-- Node41 -->
<g id="node41" class="node"><title>Node41</title>
<g id="a_node41"><a xlink:href="span_8h.html" target="_top" xlink:title="Span information for debugging purposes. ">
<polygon fill="white" stroke="black" points="902,-649.5 902,-668.5 982,-668.5 982,-649.5 902,-649.5"/>
<text text-anchor="middle" x="942" y="-656.5" font-family="Helvetica,sans-Serif" font-size="10.00">tvm/ir/span.h</text>
</a>
</g>
</g>
<!-- Node33&#45;&gt;Node41 -->
<g id="edge119" class="edge"><title>Node33&#45;&gt;Node41</title>
<path fill="none" stroke="midnightblue" d="M1363.52,-761.46C1281.35,-741.682 1078.09,-692.758 987.194,-670.878"/>
<polygon fill="midnightblue" stroke="midnightblue" points="987.999,-667.472 977.457,-668.535 986.36,-674.278 987.999,-667.472"/>
</g>
<!-- Node42 -->
<g id="node42" class="node"><title>Node42</title>
<g id="a_node42"><a xlink:href="ir_2type_8h.html" target="_top" xlink:title="IR/AST nodes for the unified type system in TVM. ">
<polygon fill="white" stroke="black" points="884.5,-705.5 884.5,-724.5 961.5,-724.5 961.5,-705.5 884.5,-705.5"/>
<text text-anchor="middle" x="923" y="-712.5" font-family="Helvetica,sans-Serif" font-size="10.00">tvm/ir/type.h</text>
</a>
</g>
</g>
<!-- Node33&#45;&gt;Node42 -->
<g id="edge123" class="edge"><title>Node33&#45;&gt;Node42</title>
<path fill="none" stroke="midnightblue" d="M1360.45,-765.627C1274.37,-755.861 1066.65,-732.297 971.761,-721.532"/>
<polygon fill="midnightblue" stroke="midnightblue" points="971.908,-718.026 961.577,-720.376 971.119,-724.981 971.908,-718.026"/>
</g>
<!-- Node43 -->
<g id="node43" class="node"><title>Node43</title>
<polygon fill="white" stroke="#bfbfbf" points="484,-705.5 484,-724.5 546,-724.5 546,-705.5 484,-705.5"/>
<text text-anchor="middle" x="515" y="-712.5" font-family="Helvetica,sans-Serif" font-size="10.00">algorithm</text>
</g>
<!-- Node33&#45;&gt;Node43 -->
<g id="edge131" class="edge"><title>Node33&#45;&gt;Node43</title>
<path fill="none" stroke="midnightblue" d="M1360.19,-768.535C1244.28,-764.004 890.548,-749.062 598,-725 584.436,-723.884 569.656,-722.376 556.377,-720.914"/>
<polygon fill="midnightblue" stroke="midnightblue" points="556.429,-717.398 546.1,-719.759 555.647,-724.354 556.429,-717.398"/>
</g>
<!-- Node34&#45;&gt;Node3 -->
<g id="edge111" class="edge"><title>Node34&#45;&gt;Node3</title>
<path fill="none" stroke="midnightblue" d="M1448.24,-599.514C1506.42,-595.395 1605.5,-584.641 1686,-557 1761.45,-531.091 1768.99,-499.767 1843,-470 1880.48,-454.927 1924.63,-443.414 1958.54,-435.807"/>
<polygon fill="midnightblue" stroke="midnightblue" points="1959.7,-439.136 1968.72,-433.573 1958.2,-432.299 1959.7,-439.136"/>
</g>
<!-- Node34&#45;&gt;Node4 -->
<g id="edge80" class="edge"><title>Node34&#45;&gt;Node4</title>
<path fill="none" stroke="midnightblue" d="M1349.91,-602.048C1253.05,-599.741 1049.46,-581.757 1083,-470 1118.96,-350.162 1134.79,-305.722 1238,-235 1302.92,-190.515 1526.67,-156.936 1641.23,-142.208"/>
<polygon fill="midnightblue" stroke="midnightblue" points="1641.82,-145.661 1651.3,-140.926 1640.93,-138.717 1641.82,-145.661"/>
</g>
<!-- Node34&#45;&gt;Node6 -->
<g id="edge78" class="edge"><title>Node34&#45;&gt;Node6</title>
<path fill="none" stroke="midnightblue" d="M1448.09,-601.586C1551.14,-600.005 1797.22,-592.483 2000,-557 2252.22,-512.867 2345.33,-503.432 2526,-322 2591.09,-256.633 2652.88,-185.469 2585,-123 2551.58,-92.2453 2430.13,-80.1237 2349.82,-75.4137"/>
<polygon fill="midnightblue" stroke="midnightblue" points="2349.93,-71.9145 2339.75,-74.8492 2349.53,-78.9036 2349.93,-71.9145"/>
</g>
<!-- Node34&#45;&gt;Node10 -->
<g id="edge117" class="edge"><title>Node34&#45;&gt;Node10</title>
<path fill="none" stroke="midnightblue" d="M1349.99,-602.371C1209.32,-600.365 805.698,-572.293 670,-322 651.181,-287.288 663.557,-266.011 688,-235 706.759,-211.2 888.325,-119.832 957.456,-85.5744"/>
<polygon fill="midnightblue" stroke="midnightblue" points="959.025,-88.7034 966.436,-81.1325 955.921,-82.429 959.025,-88.7034"/>
</g>
<!-- Node34&#45;&gt;Node11 -->
<g id="edge114" class="edge"><title>Node34&#45;&gt;Node11</title>
<path fill="none" stroke="midnightblue" d="M1349.85,-600.049C1266.52,-596.085 1092.46,-584.963 948,-557 741.696,-517.067 494,-635.133 494,-425 494,-425 494,-425 494,-367 494,-262.824 491.467,-137.939 490.432,-91.2871"/>
<polygon fill="midnightblue" stroke="midnightblue" points="493.929,-91.0908 490.204,-81.1723 486.93,-91.2488 493.929,-91.0908"/>
</g>
<!-- Node34&#45;&gt;Node12 -->
<g id="edge116" class="edge"><title>Node34&#45;&gt;Node12</title>
<path fill="none" stroke="midnightblue" d="M1448.12,-601.383C1559.39,-599.402 1839,-591.14 2070,-557 2179.64,-540.796 2205.4,-527.566 2313,-501 2536.55,-445.805 2814,-599.266 2814,-369 2814,-369 2814,-369 2814,-305.5 2814,-218.387 2754.66,-126.497 2727.86,-89.4457"/>
<polygon fill="midnightblue" stroke="midnightblue" points="2730.56,-87.2099 2721.8,-81.2436 2724.93,-91.3675 2730.56,-87.2099"/>
</g>
<!-- Node34&#45;&gt;Node14 -->
<g id="edge81" class="edge"><title>Node34&#45;&gt;Node14</title>
<path fill="none" stroke="midnightblue" d="M1448.32,-600.71C1542.96,-597.604 1756.29,-587.545 1933,-557 2029.03,-540.401 2054.41,-536.933 2145,-501 2300.1,-439.478 2359.36,-442.282 2475,-322 2498.01,-298.071 2500.22,-287.27 2508,-255 2511.68,-239.725 2511.65,-221.841 2510.86,-208.702"/>
<polygon fill="midnightblue" stroke="midnightblue" points="2514.34,-208.249 2510.05,-198.563 2507.36,-208.812 2514.34,-208.249"/>
</g>
<!-- Node34&#45;&gt;Node20 -->
<g id="edge115" class="edge"><title>Node34&#45;&gt;Node20</title>
<path fill="none" stroke="midnightblue" d="M1448.07,-602.749C1536.15,-602.926 1726.22,-597.966 1880,-557 2110.3,-495.653 2196.41,-493.403 2362,-322 2385.94,-297.22 2391.26,-288.049 2401,-255 2405.45,-239.914 2405.94,-222.013 2405.47,-208.82"/>
<polygon fill="midnightblue" stroke="midnightblue" points="2408.95,-208.409 2404.88,-198.628 2401.97,-208.813 2408.95,-208.409"/>
</g>
<!-- Node34&#45;&gt;Node29 -->
<g id="edge79" class="edge"><title>Node34&#45;&gt;Node29</title>
<path fill="none" stroke="midnightblue" d="M1413.58,-593.397C1427.71,-584.82 1449.51,-570.948 1467,-557 1539.57,-499.112 1616.72,-419.421 1648.72,-385.431"/>
<polygon fill="midnightblue" stroke="midnightblue" points="1651.57,-387.507 1655.86,-377.816 1646.47,-382.721 1651.57,-387.507"/>
</g>
<!-- Node35 -->
<g id="node35" class="node"><title>Node35</title>
<g id="a_node35"><a xlink:href="reflection_8h.html" target="_top" xlink:title="Reflection and serialization of compiler IR/AST nodes. ">
<polygon fill="white" stroke="black" points="1339.5,-537.5 1339.5,-556.5 1458.5,-556.5 1458.5,-537.5 1339.5,-537.5"/>
<text text-anchor="middle" x="1399" y="-544.5" font-family="Helvetica,sans-Serif" font-size="10.00">tvm/node/reflection.h</text>
</a>
</g>
</g>
<!-- Node34&#45;&gt;Node35 -->
<g id="edge82" class="edge"><title>Node34&#45;&gt;Node35</title>
<path fill="none" stroke="midnightblue" d="M1399,-593.083C1399,-586.006 1399,-575.861 1399,-566.986"/>
<polygon fill="midnightblue" stroke="midnightblue" points="1402.5,-566.751 1399,-556.751 1395.5,-566.751 1402.5,-566.751"/>
</g>
<!-- Node36 -->
<g id="node36" class="node"><title>Node36</title>
<g id="a_node36"><a xlink:href="structural__equal_8h.html" target="_top" xlink:title="Structural equality comparison. ">
<polygon fill="white" stroke="black" points="1221.5,-470.5 1221.5,-500.5 1332.5,-500.5 1332.5,-470.5 1221.5,-470.5"/>
<text text-anchor="start" x="1229.5" y="-488.5" font-family="Helvetica,sans-Serif" font-size="10.00">tvm/node/structural</text>
<text text-anchor="middle" x="1277" y="-477.5" font-family="Helvetica,sans-Serif" font-size="10.00">_equal.h</text>
</a>
</g>
</g>
<!-- Node34&#45;&gt;Node36 -->
<g id="edge112" class="edge"><title>Node34&#45;&gt;Node36</title>
<path fill="none" stroke="midnightblue" d="M1382.53,-593.427C1367.79,-585.274 1346.08,-572.045 1330,-557 1314.81,-542.794 1300.82,-523.818 1291.03,-509.133"/>
<polygon fill="midnightblue" stroke="midnightblue" points="1293.89,-507.105 1285.51,-500.624 1288.02,-510.917 1293.89,-507.105"/>
</g>
<!-- Node38 -->
<g id="node38" class="node"><title>Node38</title>
<g id="a_node38"><a xlink:href="structural__hash_8h.html" target="_top" xlink:title="tvm/node/structural\l_hash.h">
<polygon fill="white" stroke="black" points="1092.5,-470.5 1092.5,-500.5 1203.5,-500.5 1203.5,-470.5 1092.5,-470.5"/>
<text text-anchor="start" x="1100.5" y="-488.5" font-family="Helvetica,sans-Serif" font-size="10.00">tvm/node/structural</text>
<text text-anchor="middle" x="1148" y="-477.5" font-family="Helvetica,sans-Serif" font-size="10.00">_hash.h</text>
</a>
</g>
</g>
<!-- Node34&#45;&gt;Node38 -->
<g id="edge113" class="edge"><title>Node34&#45;&gt;Node38</title>
<path fill="none" stroke="midnightblue" d="M1380.13,-593.319C1339.48,-574.611 1242.85,-530.148 1187.94,-504.879"/>
<polygon fill="midnightblue" stroke="midnightblue" points="1189.07,-501.546 1178.52,-500.545 1186.14,-507.905 1189.07,-501.546"/>
</g>
<!-- Node39 -->
<g id="node39" class="node"><title>Node39</title>
<g id="a_node39"><a xlink:href="repr__printer_8h.html" target="_top" xlink:title="Printer class to print repr string of each AST/IR nodes. ">
<polygon fill="white" stroke="black" points="1741,-537.5 1741,-556.5 1871,-556.5 1871,-537.5 1741,-537.5"/>
<text text-anchor="middle" x="1806" y="-544.5" font-family="Helvetica,sans-Serif" font-size="10.00">tvm/node/repr_printer.h</text>
</a>
</g>
</g>
<!-- Node34&#45;&gt;Node39 -->
<g id="edge108" class="edge"><title>Node34&#45;&gt;Node39</title>
<path fill="none" stroke="midnightblue" d="M1448.09,-595.486C1518.62,-586.129 1649.18,-568.807 1731.6,-557.871"/>
<polygon fill="midnightblue" stroke="midnightblue" points="1732.2,-561.322 1741.66,-556.537 1731.28,-554.383 1732.2,-561.322"/>
</g>
<!-- Node35&#45;&gt;Node4 -->
<g id="edge84" class="edge"><title>Node35&#45;&gt;Node4</title>
<path fill="none" stroke="midnightblue" d="M1396.13,-537.421C1391.27,-523.19 1380.9,-493.9 1370,-470 1321.75,-364.201 1179.09,-323.087 1255,-235 1290.35,-193.979 1443.95,-213.923 1496,-199 1517.43,-192.856 1520.95,-186.349 1542,-179 1581.66,-165.154 1627.82,-153.068 1661.71,-144.918"/>
<polygon fill="midnightblue" stroke="midnightblue" points="1662.89,-148.234 1671.81,-142.517 1661.28,-141.424 1662.89,-148.234"/>
</g>
<!-- Node35&#45;&gt;Node6 -->
<g id="edge83" class="edge"><title>Node35&#45;&gt;Node6</title>
<path fill="none" stroke="midnightblue" d="M1446.91,-537.485C1528.26,-523.098 1698.62,-493.274 1843,-470 2187.96,-414.392 2426.44,-512.371 2581,-199 2627.07,-105.585 2454.1,-81.049 2349.81,-74.6755"/>
<polygon fill="midnightblue" stroke="midnightblue" points="2349.81,-71.1701 2339.63,-74.0973 2349.41,-78.1588 2349.81,-71.1701"/>
</g>
<!-- Node35&#45;&gt;Node10 -->
<g id="edge107" class="edge"><title>Node35&#45;&gt;Node10</title>
<path fill="none" stroke="midnightblue" d="M1339.39,-541.521C1260.87,-534.939 1127.53,-521.204 1083,-501 1063.91,-492.341 805.741,-274.048 797,-255 764.798,-184.825 845.924,-212.74 922,-143 940.48,-126.059 959.135,-104.025 971.084,-89.1337"/>
<polygon fill="midnightblue" stroke="midnightblue" points="973.834,-91.2986 977.292,-81.2839 968.344,-86.9564 973.834,-91.2986"/>
</g>
<!-- Node35&#45;&gt;Node11 -->
<g id="edge106" class="edge"><title>Node35&#45;&gt;Node11</title>
<path fill="none" stroke="midnightblue" d="M1339.34,-544.433C1267.11,-541.198 1142.4,-531.294 1040,-501 996.207,-488.044 704.983,-351.358 670,-322 586.495,-251.92 521.727,-134.993 498.898,-90.4643"/>
<polygon fill="midnightblue" stroke="midnightblue" points="501.969,-88.7818 494.338,-81.4328 495.721,-91.937 501.969,-88.7818"/>
</g>
<!-- Node35&#45;&gt;Node14 -->
<g id="edge85" class="edge"><title>Node35&#45;&gt;Node14</title>
<path fill="none" stroke="midnightblue" d="M1446.91,-537.485C1528.26,-523.098 1698.62,-493.274 1843,-470 1948.62,-452.974 1976.07,-454.834 2081,-434 2182.92,-413.764 2209.08,-409.817 2308,-378 2371.8,-357.481 2399.39,-368.13 2448,-322 2481.32,-290.384 2498.09,-237.037 2505,-208.815"/>
<polygon fill="midnightblue" stroke="midnightblue" points="2508.5,-209.232 2507.32,-198.703 2501.67,-207.67 2508.5,-209.232"/>
</g>
<!-- Node35&#45;&gt;Node16 -->
<g id="edge86" class="edge"><title>Node35&#45;&gt;Node16</title>
<path fill="none" stroke="midnightblue" d="M1408.06,-537.363C1433.36,-513.743 1507.77,-447.607 1582,-414 1647.22,-384.473 1673.3,-406.427 1739,-378 1768.62,-365.183 1798.85,-343.84 1819.21,-327.988"/>
<polygon fill="midnightblue" stroke="midnightblue" points="1821.65,-330.527 1827.31,-321.572 1817.3,-325.041 1821.65,-330.527"/>
</g>
<!-- Node35&#45;&gt;Node20 -->
<g id="edge105" class="edge"><title>Node35&#45;&gt;Node20</title>
<path fill="none" stroke="midnightblue" d="M1428.64,-537.422C1540.09,-504.879 1944.09,-384.326 2266,-255 2306.01,-238.927 2350.94,-217.009 2378.36,-203.181"/>
<polygon fill="midnightblue" stroke="midnightblue" points="2379.95,-206.296 2387.28,-198.65 2376.78,-200.054 2379.95,-206.296"/>
</g>
<!-- Node35&#45;&gt;Node22 -->
<g id="edge87" class="edge"><title>Node35&#45;&gt;Node22</title>
<path fill="none" stroke="midnightblue" d="M1416.38,-537.485C1433.93,-528.753 1461.7,-514.566 1485,-501 1546.69,-465.083 1554.32,-441.962 1620,-414 1683.88,-386.805 1705.89,-399.198 1772,-378 1834.64,-357.915 1848.55,-347.938 1909,-322 1959.05,-300.525 2016.81,-274.218 2050.19,-258.86"/>
<polygon fill="midnightblue" stroke="midnightblue" points="2051.72,-262.011 2059.34,-254.647 2048.79,-255.653 2051.72,-262.011"/>
</g>
<!-- Node35&#45;&gt;Node25 -->
<g id="edge88" class="edge"><title>Node35&#45;&gt;Node25</title>
<path fill="none" stroke="midnightblue" d="M1393.95,-537.017C1384.96,-521.666 1364.87,-490.101 1341,-470 1275.24,-414.615 1076.69,-325.63 998,-291 969.26,-278.353 935.736,-266.344 910.796,-257.919"/>
<polygon fill="midnightblue" stroke="midnightblue" points="911.606,-254.499 901.012,-254.648 909.386,-261.138 911.606,-254.499"/>
</g>
<!-- Node35&#45;&gt;Node36 -->
<g id="edge89" class="edge"><title>Node35&#45;&gt;Node36</title>
<path fill="none" stroke="midnightblue" d="M1381.52,-537.475C1364.23,-529.04 1337.19,-515.855 1314.95,-505.008"/>
<polygon fill="midnightblue" stroke="midnightblue" points="1316.28,-501.761 1305.75,-500.523 1313.21,-508.052 1316.28,-501.761"/>
</g>
<!-- Node35&#45;&gt;Node38 -->
<g id="edge99" class="edge"><title>Node35&#45;&gt;Node38</title>
<path fill="none" stroke="midnightblue" d="M1363.04,-537.475C1324.19,-528.265 1261.45,-513.393 1213.74,-502.083"/>
<polygon fill="midnightblue" stroke="midnightblue" points="1214.34,-498.629 1203.8,-499.727 1212.72,-505.44 1214.34,-498.629"/>
</g>
<!-- Node36&#45;&gt;Node3 -->
<g id="edge97" class="edge"><title>Node36&#45;&gt;Node3</title>
<path fill="none" stroke="midnightblue" d="M1332.62,-480.003C1464.83,-469.316 1797.65,-442.409 1943.13,-430.649"/>
<polygon fill="midnightblue" stroke="midnightblue" points="1943.59,-434.123 1953.27,-429.829 1943.02,-427.146 1943.59,-434.123"/>
</g>
<!-- Node36&#45;&gt;Node11 -->
<g id="edge98" class="edge"><title>Node36&#45;&gt;Node11</title>
<path fill="none" stroke="midnightblue" d="M1238.21,-470.452C1212.38,-460.822 1177.83,-447.408 1148,-434 988.274,-362.218 950.343,-339.563 797,-255 688.606,-195.225 562.575,-117.696 512.331,-86.4528"/>
<polygon fill="midnightblue" stroke="midnightblue" points="513.924,-83.3219 503.586,-81.006 510.224,-89.2637 513.924,-83.3219"/>
</g>
<!-- Node36&#45;&gt;Node25 -->
<g id="edge90" class="edge"><title>Node36&#45;&gt;Node25</title>
<path fill="none" stroke="midnightblue" d="M1249.56,-470.435C1230.65,-460.58 1205.06,-446.915 1183,-434 1080.74,-374.144 1060.29,-350.795 958,-291 938.897,-279.833 916.826,-268.051 900.103,-259.345"/>
<polygon fill="midnightblue" stroke="midnightblue" points="901.427,-256.09 890.937,-254.603 898.21,-262.307 901.427,-256.09"/>
</g>
<!-- Node37 -->
<g id="node37" class="node"><title>Node37</title>
<g id="a_node37"><a xlink:href="functor_8h.html" target="_top" xlink:title="Defines the Functor data structures. ">
<polygon fill="white" stroke="black" points="1422.5,-235.5 1422.5,-254.5 1529.5,-254.5 1529.5,-235.5 1422.5,-235.5"/>
<text text-anchor="middle" x="1476" y="-242.5" font-family="Helvetica,sans-Serif" font-size="10.00">tvm/node/functor.h</text>
</a>
</g>
</g>
<!-- Node36&#45;&gt;Node37 -->
<g id="edge91" class="edge"><title>Node36&#45;&gt;Node37</title>
<path fill="none" stroke="midnightblue" d="M1288.85,-470.295C1323.52,-428.74 1424.66,-307.533 1461.96,-262.822"/>
<polygon fill="midnightblue" stroke="midnightblue" points="1464.82,-264.866 1468.54,-254.946 1459.44,-260.382 1464.82,-264.866"/>
</g>
<!-- Node37&#45;&gt;Node4 -->
<g id="edge93" class="edge"><title>Node37&#45;&gt;Node4</title>
<path fill="none" stroke="midnightblue" d="M1488.24,-235.298C1507.49,-221.894 1546.33,-195.972 1582,-179 1610.64,-165.376 1644.55,-153.636 1670.28,-145.566"/>
<polygon fill="midnightblue" stroke="midnightblue" points="1671.53,-148.842 1680.06,-142.551 1669.47,-142.153 1671.53,-148.842"/>
</g>
<!-- Node37&#45;&gt;Node5 -->
<g id="edge92" class="edge"><title>Node37&#45;&gt;Node5</title>
<path fill="none" stroke="midnightblue" d="M1462.21,-235.189C1451.17,-227.241 1436.5,-214.447 1430,-199 1414.78,-162.823 1427.42,-115.948 1436.59,-90.6377"/>
<polygon fill="midnightblue" stroke="midnightblue" points="1439.89,-91.7946 1440.21,-81.2046 1433.36,-89.2841 1439.89,-91.7946"/>
</g>
<!-- Node37&#45;&gt;Node10 -->
<g id="edge95" class="edge"><title>Node37&#45;&gt;Node10</title>
<path fill="none" stroke="midnightblue" d="M1461.86,-235.43C1425.03,-213.467 1322.54,-154.675 1230,-123 1161.45,-99.5362 1078.24,-85.2551 1028.28,-78.1223"/>
<polygon fill="midnightblue" stroke="midnightblue" points="1028.53,-74.6234 1018.15,-76.708 1027.57,-81.5562 1028.53,-74.6234"/>
</g>
<!-- Node37&#45;&gt;Node12 -->
<g id="edge96" class="edge"><title>Node37&#45;&gt;Node12</title>
<path fill="none" stroke="midnightblue" d="M1529.91,-241.805C1666.83,-235.998 2025.48,-219.278 2143,-199 2265.85,-177.802 2291.34,-150.209 2413,-123 2511,-101.082 2628.81,-84.0131 2683.84,-76.5716"/>
<polygon fill="midnightblue" stroke="midnightblue" points="2684.53,-80.0097 2693.98,-75.213 2683.6,-73.0716 2684.53,-80.0097"/>
</g>
<!-- Node37&#45;&gt;Node20 -->
<g id="edge94" class="edge"><title>Node37&#45;&gt;Node20</title>
<path fill="none" stroke="midnightblue" d="M1529.56,-240.883C1700.73,-230.923 2231.35,-200.046 2370.37,-191.957"/>
<polygon fill="midnightblue" stroke="midnightblue" points="2370.65,-195.447 2380.43,-191.372 2370.24,-188.458 2370.65,-195.447"/>
</g>
<!-- Node38&#45;&gt;Node3 -->
<g id="edge102" class="edge"><title>Node38&#45;&gt;Node3</title>
<path fill="none" stroke="midnightblue" d="M1203.75,-471.295C1206.53,-470.816 1209.29,-470.38 1212,-470 1480.45,-432.317 1803.7,-425.922 1943.25,-425.022"/>
<polygon fill="midnightblue" stroke="midnightblue" points="1943.4,-428.521 1953.38,-424.964 1943.36,-421.521 1943.4,-428.521"/>
</g>
<!-- Node38&#45;&gt;Node11 -->
<g id="edge103" class="edge"><title>Node38&#45;&gt;Node11</title>
<path fill="none" stroke="midnightblue" d="M1110.45,-470.47C1043.14,-444.729 898.311,-386.633 784,-322 738.708,-296.391 728.555,-287.595 688,-255 650.841,-225.135 547.22,-127.024 506.619,-88.362"/>
<polygon fill="midnightblue" stroke="midnightblue" points="508.821,-85.6254 499.167,-81.2595 503.991,-90.6925 508.821,-85.6254"/>
</g>
<!-- Node38&#45;&gt;Node25 -->
<g id="edge100" class="edge"><title>Node38&#45;&gt;Node25</title>
<path fill="none" stroke="midnightblue" d="M1131.68,-470.295C1083.43,-428.299 941.726,-304.951 891.72,-261.424"/>
<polygon fill="midnightblue" stroke="midnightblue" points="893.838,-258.628 883.998,-254.702 889.242,-263.908 893.838,-258.628"/>
</g>
<!-- Node38&#45;&gt;Node26 -->
<g id="edge104" class="edge"><title>Node38&#45;&gt;Node26</title>
<path fill="none" stroke="midnightblue" d="M1156.81,-470.295C1182.44,-429 1256.88,-309.045 1285.04,-263.669"/>
<polygon fill="midnightblue" stroke="midnightblue" points="1288.15,-265.288 1290.45,-254.946 1282.2,-261.597 1288.15,-265.288"/>
</g>
<!-- Node38&#45;&gt;Node37 -->
<g id="edge101" class="edge"><title>Node38&#45;&gt;Node37</title>
<path fill="none" stroke="midnightblue" d="M1167.12,-470.288C1210.48,-438.101 1319.68,-357.282 1412,-291 1426.38,-280.674 1442.71,-269.195 1455.28,-260.416"/>
<polygon fill="midnightblue" stroke="midnightblue" points="1457.48,-263.147 1463.68,-254.555 1453.48,-257.406 1457.48,-263.147"/>
</g>
<!-- Node39&#45;&gt;Node37 -->
<g id="edge109" class="edge"><title>Node39&#45;&gt;Node37</title>
<path fill="none" stroke="midnightblue" d="M1740.94,-540.471C1671.6,-530.916 1564.01,-504.881 1506,-434 1465.39,-384.378 1469.1,-301.997 1473.28,-265.006"/>
<polygon fill="midnightblue" stroke="midnightblue" points="1476.8,-265.053 1474.6,-254.69 1469.86,-264.166 1476.8,-265.053"/>
</g>
<!-- Node40 -->
<g id="node40" class="node"><title>Node40</title>
<polygon fill="white" stroke="#bfbfbf" points="1852.5,-476 1852.5,-495 1911.5,-495 1911.5,-476 1852.5,-476"/>
<text text-anchor="middle" x="1882" y="-483" font-family="Helvetica,sans-Serif" font-size="10.00">iostream</text>
</g>
<!-- Node39&#45;&gt;Node40 -->
<g id="edge110" class="edge"><title>Node39&#45;&gt;Node40</title>
<path fill="none" stroke="midnightblue" d="M1816.89,-537.475C1828.97,-528.02 1848.67,-512.596 1863.24,-501.187"/>
<polygon fill="midnightblue" stroke="midnightblue" points="1865.41,-503.929 1871.13,-495.009 1861.1,-498.418 1865.41,-503.929"/>
</g>
<!-- Node41&#45;&gt;Node4 -->
<g id="edge120" class="edge"><title>Node41&#45;&gt;Node4</title>
<path fill="none" stroke="midnightblue" d="M944.363,-649.429C958.695,-599.236 1039.05,-341.958 1208,-235 1257.39,-203.734 1270.8,-195.064 1327,-179 1434.04,-148.405 1563.62,-138.57 1641.29,-135.434"/>
<polygon fill="midnightblue" stroke="midnightblue" points="1641.57,-138.926 1651.43,-135.051 1641.31,-131.931 1641.57,-138.926"/>
</g>
<!-- Node41&#45;&gt;Node11 -->
<g id="edge122" class="edge"><title>Node41&#45;&gt;Node11</title>
<path fill="none" stroke="midnightblue" d="M901.815,-657.218C785.376,-652.624 456,-622.2 456,-425 456,-425 456,-425 456,-367 456,-262.142 477.534,-137.66 486.327,-91.2018"/>
<polygon fill="midnightblue" stroke="midnightblue" points="489.812,-91.6124 488.267,-81.1308 482.939,-90.2882 489.812,-91.6124"/>
</g>
<!-- Node41&#45;&gt;Node34 -->
<g id="edge121" class="edge"><title>Node41&#45;&gt;Node34</title>
<path fill="none" stroke="midnightblue" d="M982.155,-653.255C1062.96,-643.707 1245.51,-622.136 1339.94,-610.978"/>
<polygon fill="midnightblue" stroke="midnightblue" points="1340.39,-614.45 1349.91,-609.801 1339.56,-607.499 1340.39,-614.45"/>
</g>
<!-- Node42&#45;&gt;Node3 -->
<g id="edge127" class="edge"><title>Node42&#45;&gt;Node3</title>
<path fill="none" stroke="midnightblue" d="M961.522,-712.861C1128.63,-707.227 1789.64,-677.546 1951,-557 1988.42,-529.041 2004.11,-472.816 2009.95,-443.593"/>
<polygon fill="midnightblue" stroke="midnightblue" points="2013.44,-443.977 2011.78,-433.512 2006.55,-442.724 2013.44,-443.977"/>
</g>
<!-- Node42&#45;&gt;Node4 -->
<g id="edge124" class="edge"><title>Node42&#45;&gt;Node4</title>
<path fill="none" stroke="midnightblue" d="M916.187,-705.458C902.723,-687.688 874,-644.976 874,-604 874,-604 874,-604 874,-546 874,-306.69 1041.72,-256.896 1268,-179 1335.21,-155.863 1534.74,-142.717 1641.23,-137.168"/>
<polygon fill="midnightblue" stroke="midnightblue" points="1641.43,-140.662 1651.24,-136.654 1641.07,-133.671 1641.43,-140.662"/>
</g>
<!-- Node42&#45;&gt;Node11 -->
<g id="edge129" class="edge"><title>Node42&#45;&gt;Node11</title>
<path fill="none" stroke="midnightblue" d="M884.158,-710.597C789.713,-699.927 549.33,-657.787 461,-501 399.083,-391.096 320.695,-354.191 362,-235 383.928,-171.726 441.823,-114.413 471.654,-87.9478"/>
<polygon fill="midnightblue" stroke="midnightblue" points="474.023,-90.5259 479.271,-81.3219 469.429,-85.2446 474.023,-90.5259"/>
</g>
<!-- Node42&#45;&gt;Node25 -->
<g id="edge125" class="edge"><title>Node42&#45;&gt;Node25</title>
<path fill="none" stroke="midnightblue" d="M884.371,-705.875C836.17,-693.21 760,-663.744 760,-604 760,-604 760,-604 760,-484.5 760,-393.153 828.916,-299.674 859.582,-262.599"/>
<polygon fill="midnightblue" stroke="midnightblue" points="862.389,-264.7 866.164,-254.8 857.04,-260.185 862.389,-264.7"/>
</g>
<!-- Node42&#45;&gt;Node34 -->
<g id="edge126" class="edge"><title>Node42&#45;&gt;Node34</title>
<path fill="none" stroke="midnightblue" d="M959.955,-705.46C1045.63,-685.662 1257.68,-636.658 1352.21,-614.812"/>
<polygon fill="midnightblue" stroke="midnightblue" points="1353.11,-618.196 1362.07,-612.535 1351.54,-611.376 1353.11,-618.196"/>
</g>
<!-- Node42&#45;&gt;Node41 -->
<g id="edge128" class="edge"><title>Node42&#45;&gt;Node41</title>
<path fill="none" stroke="midnightblue" d="M926.137,-705.083C928.683,-697.849 932.356,-687.409 935.527,-678.397"/>
<polygon fill="midnightblue" stroke="midnightblue" points="938.903,-679.346 938.921,-668.751 932.3,-677.023 938.903,-679.346"/>
</g>
<!-- Node44&#45;&gt;Node21 -->
<g id="edge159" class="edge"><title>Node44&#45;&gt;Node21</title>
<path fill="none" stroke="midnightblue" d="M2045.19,-991.215C2206.49,-982.077 2694.95,-950.259 2842,-893 2959.53,-847.236 3004,-786.126 3004,-660 3004,-660 3004,-660 3004,-305.5 3004,-269.254 2986.91,-229.671 2975.65,-207.533"/>
<polygon fill="midnightblue" stroke="midnightblue" points="2978.73,-205.875 2970.97,-198.663 2972.54,-209.141 2978.73,-205.875"/>
</g>
<!-- Node44&#45;&gt;Node33 -->
<g id="edge135" class="edge"><title>Node44&#45;&gt;Node33</title>
<path fill="none" stroke="midnightblue" d="M1986.96,-985.083C1965.65,-954.515 1890.34,-853.82 1799,-817 1736.36,-791.747 1540.26,-778.973 1447.96,-774.231"/>
<polygon fill="midnightblue" stroke="midnightblue" points="1447.92,-770.725 1437.76,-773.719 1447.57,-777.717 1447.92,-770.725"/>
</g>
<!-- Node44&#45;&gt;Node45 -->
<g id="edge136" class="edge"><title>Node44&#45;&gt;Node45</title>
<path fill="none" stroke="midnightblue" d="M1954.5,-985.444C1912.19,-976.043 1844.18,-960.929 1798.33,-950.739"/>
<polygon fill="midnightblue" stroke="midnightblue" points="1798.85,-947.269 1788.32,-948.516 1797.33,-954.102 1798.85,-947.269"/>
</g>
<!-- Node45&#45;&gt;Node3 -->
<g id="edge138" class="edge"><title>Node45&#45;&gt;Node3</title>
<path fill="none" stroke="midnightblue" d="M1790.09,-937.119C1959.13,-932.882 2605,-911.249 2605,-828 2605,-828 2605,-828 2605,-602 2605,-494.079 2239.3,-446.462 2082.75,-431.023"/>
<polygon fill="midnightblue" stroke="midnightblue" points="2083.04,-427.534 2072.75,-430.052 2082.36,-434.502 2083.04,-427.534"/>
</g>
<!-- Node45&#45;&gt;Node6 -->
<g id="edge140" class="edge"><title>Node45&#45;&gt;Node6</title>
<path fill="none" stroke="midnightblue" d="M1790.21,-937.449C1924.7,-935.312 2357.88,-925.974 2493,-893 2552.53,-878.471 2567.66,-870.463 2619,-837 2717.06,-773.088 2814,-777.045 2814,-660 2814,-660 2814,-660 2814,-546 2814,-465.541 2852,-449.459 2852,-369 2852,-369 2852,-369 2852,-305.5 2852,-170.078 2732.91,-175.308 2608,-123 2524.11,-87.8714 2419.19,-76.8029 2350.01,-73.5161"/>
<polygon fill="midnightblue" stroke="midnightblue" points="2349.79,-70.0033 2339.64,-73.0692 2349.48,-76.9968 2349.79,-70.0033"/>
</g>
<!-- Node45&#45;&gt;Node11 -->
<g id="edge153" class="edge"><title>Node45&#45;&gt;Node11</title>
<path fill="none" stroke="midnightblue" d="M1709.67,-937.438C1501.3,-934.424 554.05,-919.314 498,-893 357.152,-826.875 114,-463.098 114,-307.5 114,-307.5 114,-307.5 114,-188 114,-116.319 366.865,-84.5293 457.862,-75.4103"/>
<polygon fill="midnightblue" stroke="midnightblue" points="458.27,-78.8871 467.883,-74.4326 457.591,-71.9202 458.27,-78.8871"/>
</g>
<!-- Node45&#45;&gt;Node12 -->
<g id="edge158" class="edge"><title>Node45&#45;&gt;Node12</title>
<path fill="none" stroke="midnightblue" d="M1790.31,-937.856C1930.42,-937.021 2395.52,-931.355 2539,-893 2707.79,-847.881 2890,-890.712 2890,-716 2890,-716 2890,-716 2890,-188 2890,-119.86 2796.44,-89.6155 2746.14,-78.2794"/>
<polygon fill="midnightblue" stroke="midnightblue" points="2746.62,-74.8037 2736.11,-76.1406 2745.16,-81.6497 2746.62,-74.8037"/>
</g>
<!-- Node45&#45;&gt;Node21 -->
<g id="edge155" class="edge"><title>Node45&#45;&gt;Node21</title>
<path fill="none" stroke="midnightblue" d="M1790.25,-938.186C1972.58,-938.774 2716.27,-938.354 2809,-893 2921.17,-838.135 2966,-784.871 2966,-660 2966,-660 2966,-660 2966,-305.5 2966,-271.364 2966,-231.552 2966,-208.709"/>
<polygon fill="midnightblue" stroke="midnightblue" points="2969.5,-208.693 2966,-198.693 2962.5,-208.693 2969.5,-208.693"/>
</g>
<!-- Node45&#45;&gt;Node25 -->
<g id="edge141" class="edge"><title>Node45&#45;&gt;Node25</title>
<path fill="none" stroke="midnightblue" d="M1709.69,-938.061C1502.33,-937.951 562.357,-932.183 480,-837 441.586,-792.603 447.74,-756.996 475,-705 528.695,-602.581 610.075,-641.52 689,-557 778.667,-460.977 845.291,-314.3 866.683,-263.804"/>
<polygon fill="midnightblue" stroke="midnightblue" points="869.927,-265.118 870.553,-254.542 863.468,-262.42 869.927,-265.118"/>
</g>
<!-- Node45&#45;&gt;Node28 -->
<g id="edge157" class="edge"><title>Node45&#45;&gt;Node28</title>
<path fill="none" stroke="midnightblue" d="M1709.94,-937.564C1515.76,-935.302 677.231,-923.816 565,-893 514.753,-879.204 493.553,-878.467 462,-837 446.528,-816.667 451.908,-806.385 449,-781 430.511,-619.59 532,-587.466 532,-425 532,-425 532,-425 532,-367 532,-330.834 535.155,-288.689 537.229,-264.895"/>
<polygon fill="midnightblue" stroke="midnightblue" points="540.727,-265.07 538.142,-254.796 533.756,-264.44 540.727,-265.07"/>
</g>
<!-- Node45&#45;&gt;Node33 -->
<g id="edge142" class="edge"><title>Node45&#45;&gt;Node33</title>
<path fill="none" stroke="midnightblue" d="M1731.62,-929.309C1673.81,-901.968 1495.42,-817.601 1426.54,-785.023"/>
<polygon fill="midnightblue" stroke="midnightblue" points="1427.73,-781.717 1417.2,-780.605 1424.74,-788.045 1427.73,-781.717"/>
</g>
<!-- Node45&#45;&gt;Node34 -->
<g id="edge137" class="edge"><title>Node45&#45;&gt;Node34</title>
<path fill="none" stroke="midnightblue" d="M1757,-929.246C1775.27,-905.483 1823,-837.17 1823,-772 1823,-772 1823,-772 1823,-714 1823,-639.534 1574.87,-614.626 1458.24,-607.032"/>
<polygon fill="midnightblue" stroke="midnightblue" points="1458.25,-603.526 1448.05,-606.391 1457.81,-610.512 1458.25,-603.526"/>
</g>
<!-- Node45&#45;&gt;Node37 -->
<g id="edge139" class="edge"><title>Node45&#45;&gt;Node37</title>
<path fill="none" stroke="midnightblue" d="M1790.12,-932.515C1845.06,-922.488 1937,-895.61 1937,-828 1937,-828 1937,-828 1937,-602 1937,-542.849 1958.73,-514.708 1920,-470 1820.02,-354.595 1717.8,-460.003 1589,-378 1541.65,-347.855 1503.44,-291.801 1486.09,-263.423"/>
<polygon fill="midnightblue" stroke="midnightblue" points="1488.97,-261.423 1480.85,-254.627 1482.96,-265.009 1488.97,-261.423"/>
</g>
<!-- Node45&#45;&gt;Node40 -->
<g id="edge156" class="edge"><title>Node45&#45;&gt;Node40</title>
<path fill="none" stroke="midnightblue" d="M1790.22,-936.545C1880.02,-930.932 2089,-903.718 2089,-772 2089,-772 2089,-772 2089,-714 2089,-607.994 1964.53,-529.592 1908.62,-499.726"/>
<polygon fill="midnightblue" stroke="midnightblue" points="1910.13,-496.565 1899.65,-495.034 1906.89,-502.769 1910.13,-496.565"/>
</g>
<!-- Node45&#45;&gt;Node43 -->
<g id="edge154" class="edge"><title>Node45&#45;&gt;Node43</title>
<path fill="none" stroke="midnightblue" d="M1709.79,-934.135C1635.47,-926.885 1471.65,-910.399 1334,-893 989.161,-849.414 855.506,-964.002 560,-781 542.366,-770.079 529.869,-749.4 522.59,-734.29"/>
<polygon fill="midnightblue" stroke="midnightblue" points="525.669,-732.601 518.385,-724.907 519.281,-735.464 525.669,-732.601"/>
</g>
<!-- Node46 -->
<g id="node46" class="node"><title>Node46</title>
<g id="a_node46"><a xlink:href="var_8h.html" target="_top" xlink:title="Variables in the TIR. ">
<polygon fill="white" stroke="black" points="1295,-817.5 1295,-836.5 1369,-836.5 1369,-817.5 1295,-817.5"/>
<text text-anchor="middle" x="1332" y="-824.5" font-family="Helvetica,sans-Serif" font-size="10.00">tvm/tir/var.h</text>
</a>
</g>
</g>
<!-- Node45&#45;&gt;Node46 -->
<g id="edge143" class="edge"><title>Node45&#45;&gt;Node46</title>
<path fill="none" stroke="midnightblue" d="M1709.96,-935.979C1614.26,-930.799 1378.14,-915.83 1351,-893 1337.66,-881.782 1333.4,-861.765 1332.18,-846.898"/>
<polygon fill="midnightblue" stroke="midnightblue" points="1335.67,-846.601 1331.73,-836.764 1328.67,-846.908 1335.67,-846.601"/>
</g>
<!-- Node45&#45;&gt;Node47 -->
<g id="edge148" class="edge"><title>Node45&#45;&gt;Node47</title>
<path fill="none" stroke="midnightblue" d="M1709.97,-931.753C1647.66,-922.028 1527.4,-903.26 1457.65,-892.373"/>
<polygon fill="midnightblue" stroke="midnightblue" points="1458.16,-888.91 1447.74,-890.826 1457.08,-895.826 1458.16,-888.91"/>
</g>
<!-- Node46&#45;&gt;Node11 -->
<g id="edge147" class="edge"><title>Node46&#45;&gt;Node11</title>
<path fill="none" stroke="midnightblue" d="M1294.79,-824.003C1219.3,-819.545 1042.93,-807.06 897,-781 696.238,-745.149 636.646,-730.558 470,-613 326.295,-511.625 311.105,-405.801 353,-235 366.503,-179.95 373.485,-162.64 414,-123 429.004,-108.321 448.836,-95.3084 464.478,-86.17"/>
<polygon fill="midnightblue" stroke="midnightblue" points="466.624,-88.9772 473.596,-81.0003 463.171,-82.8878 466.624,-88.9772"/>
</g>
<!-- Node46&#45;&gt;Node25 -->
<g id="edge145" class="edge"><title>Node46&#45;&gt;Node25</title>
<path fill="none" stroke="midnightblue" d="M1294.9,-826.587C1206.71,-826.379 980.083,-816.299 822,-725 793.361,-708.46 793.825,-694.691 773,-669 733.819,-620.663 708.676,-616.029 689,-557 676.73,-520.189 658.334,-522.313 708,-414 740.141,-343.906 814.644,-286.133 851.923,-260.406"/>
<polygon fill="midnightblue" stroke="midnightblue" points="854.23,-263.071 860.551,-254.568 850.307,-257.273 854.23,-263.071"/>
</g>
<!-- Node46&#45;&gt;Node33 -->
<g id="edge146" class="edge"><title>Node46&#45;&gt;Node33</title>
<path fill="none" stroke="midnightblue" d="M1342.76,-817.324C1352.77,-809.263 1367.89,-797.077 1379.93,-787.369"/>
<polygon fill="midnightblue" stroke="midnightblue" points="1382.45,-789.834 1388.04,-780.834 1378.06,-784.384 1382.45,-789.834"/>
</g>
<!-- Node46&#45;&gt;Node34 -->
<g id="edge144" class="edge"><title>Node46&#45;&gt;Node34</title>
<path fill="none" stroke="midnightblue" d="M1334.55,-817.158C1338.16,-804.643 1345,-781.05 1351,-761 1365.99,-710.876 1384.16,-651.919 1393.24,-622.563"/>
<polygon fill="midnightblue" stroke="midnightblue" points="1396.64,-623.429 1396.26,-612.841 1389.95,-621.358 1396.64,-623.429"/>
</g>
<!-- Node47&#45;&gt;Node3 -->
<g id="edge149" class="edge"><title>Node47&#45;&gt;Node3</title>
<path fill="none" stroke="midnightblue" d="M1425.09,-873.471C1498.27,-843.422 1746.77,-737.536 1930,-613 1984.95,-575.655 2013.28,-565.55 2029,-501 2033.77,-481.414 2027.51,-458.785 2021.48,-443.347"/>
<polygon fill="midnightblue" stroke="midnightblue" points="2024.61,-441.767 2017.48,-433.933 2018.17,-444.506 2024.61,-441.767"/>
</g>
<!-- Node47&#45;&gt;Node11 -->
<g id="edge152" class="edge"><title>Node47&#45;&gt;Node11</title>
<path fill="none" stroke="midnightblue" d="M1360.48,-878.802C1198.07,-866.241 628.782,-816.426 475,-725 387.892,-673.213 190,-470.339 190,-369 190,-369 190,-369 190,-188 190,-131.099 380.333,-91.5653 457.791,-77.8326"/>
<polygon fill="midnightblue" stroke="midnightblue" points="458.688,-81.2292 467.94,-76.0669 457.488,-74.3328 458.688,-81.2292"/>
</g>
<!-- Node47&#45;&gt;Node33 -->
<g id="edge150" class="edge"><title>Node47&#45;&gt;Node33</title>
<path fill="none" stroke="midnightblue" d="M1403.61,-873.368C1402.8,-855.617 1400.94,-814.666 1399.85,-790.597"/>
<polygon fill="midnightblue" stroke="midnightblue" points="1403.34,-790.422 1399.39,-780.591 1396.35,-790.74 1403.34,-790.422"/>
</g>
<!-- Node47&#45;&gt;Node46 -->
<g id="edge151" class="edge"><title>Node47&#45;&gt;Node46</title>
<path fill="none" stroke="midnightblue" d="M1392.43,-873.324C1381.58,-865.185 1365.12,-852.839 1352.12,-843.087"/>
<polygon fill="midnightblue" stroke="midnightblue" points="1353.88,-840.034 1343.78,-836.834 1349.68,-845.634 1353.88,-840.034"/>
</g>
<!-- Node48&#45;&gt;Node10 -->
<g id="edge163" class="edge"><title>Node48&#45;&gt;Node10</title>
<path fill="none" stroke="midnightblue" d="M1708.28,-993.887C1514.02,-992.886 697.63,-983.284 462,-893 379.406,-861.354 304,-860.449 304,-772 304,-772 304,-772 304,-658 304,-449.086 325.635,-335.112 509,-235 568.038,-202.767 592.045,-219.838 656,-199 740.517,-171.462 757.954,-154.699 841,-123 877.526,-109.058 919.792,-94.299 948.849,-84.3617"/>
<polygon fill="midnightblue" stroke="midnightblue" points="950.208,-87.5961 958.545,-81.0571 947.95,-80.9703 950.208,-87.5961"/>
</g>
<!-- Node48&#45;&gt;Node11 -->
<g id="edge164" class="edge"><title>Node48&#45;&gt;Node11</title>
<path fill="none" stroke="midnightblue" d="M1708.27,-993.539C1530.16,-991.389 832.964,-981.052 616,-949 517.891,-934.506 491.146,-932.089 400,-893 167.497,-793.288 76,-677.982 76,-425 76,-425 76,-425 76,-188 76,-144.225 110.285,-141.411 150,-123 204.57,-97.7021 384.022,-80.9321 457.843,-74.9459"/>
<polygon fill="midnightblue" stroke="midnightblue" points="458.251,-78.4247 467.941,-74.1413 457.695,-71.4468 458.251,-78.4247"/>
</g>
<!-- Node48&#45;&gt;Node12 -->
<g id="edge166" class="edge"><title>Node48&#45;&gt;Node12</title>
<path fill="none" stroke="midnightblue" d="M1791.88,-991.66C1920.95,-984.387 2311.47,-961.89 2438,-949 2618.34,-930.628 2667.99,-943.798 2842,-893 2941.73,-863.887 3042,-875.891 3042,-772 3042,-772 3042,-772 3042,-188 3042,-125.706 2828.34,-88.6534 2746.44,-76.7377"/>
<polygon fill="midnightblue" stroke="midnightblue" points="2746.85,-73.2611 2736.46,-75.3157 2745.86,-80.1911 2746.85,-73.2611"/>
</g>
<!-- Node48&#45;&gt;Node20 -->
<g id="edge165" class="edge"><title>Node48&#45;&gt;Node20</title>
<path fill="none" stroke="midnightblue" d="M1791.8,-991.102C1974.8,-978.237 2697.78,-925.507 2733,-893 2810.38,-821.58 2776,-765.304 2776,-660 2776,-660 2776,-660 2776,-546 2776,-448.503 2505.91,-258.686 2426.01,-204.664"/>
<polygon fill="midnightblue" stroke="midnightblue" points="2427.49,-201.442 2417.24,-198.764 2423.58,-207.25 2427.49,-201.442"/>
</g>
<!-- Node48&#45;&gt;Node45 -->
<g id="edge162" class="edge"><title>Node48&#45;&gt;Node45</title>
<path fill="none" stroke="midnightblue" d="M1750,-985.083C1750,-978.006 1750,-967.861 1750,-958.986"/>
<polygon fill="midnightblue" stroke="midnightblue" points="1753.5,-958.751 1750,-948.751 1746.5,-958.751 1753.5,-958.751"/>
</g>
<!-- Node49&#45;&gt;Node10 -->
<g id="edge174" class="edge"><title>Node49&#45;&gt;Node10</title>
<path fill="none" stroke="midnightblue" d="M283.355,-1041.42C250.504,-1026.23 190,-991.293 190,-940 190,-940 190,-940 190,-546 190,-402.24 283.623,-388.788 389,-291 421.889,-260.479 431.952,-253.119 473,-235 533.746,-208.187 555.948,-222.635 618,-199 635.835,-192.207 638.745,-187.155 656,-179 713.987,-151.594 728.24,-143.538 789,-123 839.896,-105.796 899.931,-91.0541 939.807,-82.0148"/>
<polygon fill="midnightblue" stroke="midnightblue" points="940.751,-85.39 949.743,-79.786 939.219,-78.5597 940.751,-85.39"/>
</g>
<!-- Node49&#45;&gt;Node28 -->
<g id="edge175" class="edge"><title>Node49&#45;&gt;Node28</title>
<path fill="none" stroke="midnightblue" d="M292.457,-1041.43C271.196,-1024.57 228,-984.799 228,-940 228,-940 228,-940 228,-602 228,-512.659 452.955,-317.78 520.222,-261.503"/>
<polygon fill="midnightblue" stroke="midnightblue" points="522.848,-263.871 528.295,-254.783 518.37,-258.491 522.848,-263.871"/>
</g>
<!-- Node49&#45;&gt;Node42 -->
<g id="edge170" class="edge"><title>Node49&#45;&gt;Node42</title>
<path fill="none" stroke="midnightblue" d="M319.923,-1041.41C403.884,-996.105 795.212,-784.952 898.141,-729.413"/>
<polygon fill="midnightblue" stroke="midnightblue" points="900.043,-732.364 907.182,-724.535 896.719,-726.204 900.043,-732.364"/>
</g>
<!-- Node49&#45;&gt;Node43 -->
<g id="edge173" class="edge"><title>Node49&#45;&gt;Node43</title>
<path fill="none" stroke="midnightblue" d="M300.14,-1041.36C291.593,-1020.89 273.114,-968.238 290,-929 331.649,-832.22 441.287,-758.842 490.489,-729.713"/>
<polygon fill="midnightblue" stroke="midnightblue" points="492.33,-732.691 499.215,-724.638 488.811,-726.64 492.33,-732.691"/>
</g>
<!-- Node49&#45;&gt;Node45 -->
<g id="edge171" class="edge"><title>Node49&#45;&gt;Node45</title>
<path fill="none" stroke="midnightblue" d="M340.105,-1047.25C536.118,-1032.34 1472.01,-961.147 1699.89,-943.812"/>
<polygon fill="midnightblue" stroke="midnightblue" points="1700.19,-947.299 1709.89,-943.051 1699.66,-940.32 1700.19,-947.299"/>
</g>
<!-- Node49&#45;&gt;Node48 -->
<g id="edge172" class="edge"><title>Node49&#45;&gt;Node48</title>
<path fill="none" stroke="midnightblue" d="M340.113,-1048.84C489.635,-1044.01 1074.91,-1024.8 1556,-1005 1604.24,-1003.01 1659.22,-1000.43 1698.3,-998.545"/>
<polygon fill="midnightblue" stroke="midnightblue" points="1698.56,-1002.04 1708.38,-998.057 1698.22,-995.045 1698.56,-1002.04"/>
</g>
</g>
</svg>
