<?xml version="1.0" encoding="UTF-8" standalone="no"?>
<!DOCTYPE svg PUBLIC "-//W3C//DTD SVG 1.1//EN"
 "http://www.w3.org/Graphics/SVG/1.1/DTD/svg11.dtd">
<!-- Generated by graphviz version 2.38.0 (20140413.2041)
 -->
<!-- Title: include/tvm/te/tensor.h Pages: 1 -->
<svg width="3108pt" height="1125pt"
 viewBox="0.00 0.00 3108.00 1125.00" xmlns="http://www.w3.org/2000/svg" xmlns:xlink="http://www.w3.org/1999/xlink">
<g id="graph0" class="graph" transform="scale(1 1) rotate(0) translate(4 1121)">
<title>include/tvm/te/tensor.h</title>
<polygon fill="white" stroke="none" points="-4,4 -4,-1121 3104,-1121 3104,4 -4,4"/>
<!-- Node1 -->
<g id="node1" class="node"><title>Node1</title>
<polygon fill="#bfbfbf" stroke="black" points="2500.5,-1097.5 2500.5,-1116.5 2627.5,-1116.5 2627.5,-1097.5 2500.5,-1097.5"/>
<text text-anchor="middle" x="2564" y="-1104.5" font-family="Helvetica,sans-Serif" font-size="10.00">include/tvm/te/tensor.h</text>
</g>
<!-- Node2 -->
<g id="node2" class="node"><title>Node2</title>
<g id="a_node2"><a xlink:href="node_2container_8h.html" target="_top" xlink:title="Array/Map container in the DSL graph. ">
<polygon fill="white" stroke="black" points="2163.5,-414.5 2163.5,-433.5 2282.5,-433.5 2282.5,-414.5 2163.5,-414.5"/>
<text text-anchor="middle" x="2223" y="-421.5" font-family="Helvetica,sans-Serif" font-size="10.00">tvm/node/container.h</text>
</a>
</g>
</g>
<!-- Node1&#45;&gt;Node2 -->
<g id="edge1" class="edge"><title>Node1&#45;&gt;Node2</title>
<path fill="none" stroke="midnightblue" d="M2575.69,-1097.47C2597.24,-1080.66 2641,-1040.99 2641,-996 2641,-996 2641,-996 2641,-714 2641,-539.079 2390.28,-461.756 2277.19,-435.777"/>
<polygon fill="midnightblue" stroke="midnightblue" points="2277.86,-432.34 2267.34,-433.563 2276.33,-439.17 2277.86,-432.34"/>
</g>
<!-- Node9 -->
<g id="node9" class="node"><title>Node9</title>
<polygon fill="white" stroke="#bfbfbf" points="2194,-62 2194,-81 2262,-81 2262,-62 2194,-62"/>
<text text-anchor="middle" x="2228" y="-69" font-family="Helvetica,sans-Serif" font-size="10.00">type_traits</text>
</g>
<!-- Node1&#45;&gt;Node9 -->
<g id="edge178" class="edge"><title>Node1&#45;&gt;Node9</title>
<path fill="none" stroke="midnightblue" d="M2627.96,-1103.97C2754.36,-1098.2 3024,-1076.47 3024,-996 3024,-996 3024,-996 3024,-244 3024,-176.216 2809.63,-139.949 2744,-123 2573.61,-78.9962 2362.52,-72.7504 2272.28,-72.2556"/>
<polygon fill="midnightblue" stroke="midnightblue" points="2272.15,-68.7553 2262.13,-72.2219 2272.12,-75.7552 2272.15,-68.7553"/>
</g>
<!-- Node10 -->
<g id="node10" class="node"><title>Node10</title>
<polygon fill="white" stroke="#bfbfbf" points="415,-62 415,-81 459,-81 459,-62 415,-62"/>
<text text-anchor="middle" x="437" y="-69" font-family="Helvetica,sans-Serif" font-size="10.00">string</text>
</g>
<!-- Node1&#45;&gt;Node10 -->
<g id="edge175" class="edge"><title>Node1&#45;&gt;Node10</title>
<path fill="none" stroke="midnightblue" d="M2500.3,-1104.98C2104.65,-1098.43 0,-1060.59 0,-996 0,-996 0,-996 0,-188 0,-148.382 25.7739,-141.13 61,-123 120.777,-92.234 324.326,-78.4223 404.329,-74.0895"/>
<polygon fill="midnightblue" stroke="midnightblue" points="404.968,-77.5608 414.77,-73.5403 404.6,-70.5705 404.968,-77.5608"/>
</g>
<!-- Node11 -->
<g id="node11" class="node"><title>Node11</title>
<polygon fill="white" stroke="#bfbfbf" points="2581,-62 2581,-81 2623,-81 2623,-62 2581,-62"/>
<text text-anchor="middle" x="2602" y="-69" font-family="Helvetica,sans-Serif" font-size="10.00">utility</text>
</g>
<!-- Node1&#45;&gt;Node11 -->
<g id="edge177" class="edge"><title>Node1&#45;&gt;Node11</title>
<path fill="none" stroke="midnightblue" d="M2627.74,-1105.41C2739.88,-1103.49 2967.26,-1095.33 3038,-1061 3073.92,-1043.57 3100,-1035.92 3100,-996 3100,-996 3100,-996 3100,-188 3100,-91.6925 2742.1,-75.6668 2633.12,-73.0194"/>
<polygon fill="midnightblue" stroke="midnightblue" points="2633.16,-69.5195 2623.08,-72.797 2633,-76.5178 2633.16,-69.5195"/>
</g>
<!-- Node19 -->
<g id="node19" class="node"><title>Node19</title>
<polygon fill="white" stroke="#bfbfbf" points="2076.5,-179.5 2076.5,-198.5 2123.5,-198.5 2123.5,-179.5 2076.5,-179.5"/>
<text text-anchor="middle" x="2100" y="-186.5" font-family="Helvetica,sans-Serif" font-size="10.00">vector</text>
</g>
<!-- Node1&#45;&gt;Node19 -->
<g id="edge176" class="edge"><title>Node1&#45;&gt;Node19</title>
<path fill="none" stroke="midnightblue" d="M2627.77,-1100.79C2736.23,-1090.16 2945,-1061.23 2945,-996 2945,-996 2945,-996 2945,-826 2945,-640.267 2529.18,-296.715 2354,-235 2278.05,-208.243 2183.49,-196.873 2133.92,-192.475"/>
<polygon fill="midnightblue" stroke="midnightblue" points="2134.03,-188.972 2123.77,-191.617 2133.44,-195.947 2134.03,-188.972"/>
</g>
<!-- Node31 -->
<g id="node31" class="node"><title>Node31</title>
<g id="a_node31"><a xlink:href="bound_8h.html" target="_top" xlink:title="Bound deducers. ">
<polygon fill="white" stroke="black" points="2437,-1041.5 2437,-1060.5 2539,-1060.5 2539,-1041.5 2437,-1041.5"/>
<text text-anchor="middle" x="2488" y="-1048.5" font-family="Helvetica,sans-Serif" font-size="10.00">tvm/arith/bound.h</text>
</a>
</g>
</g>
<!-- Node1&#45;&gt;Node31 -->
<g id="edge72" class="edge"><title>Node1&#45;&gt;Node31</title>
<path fill="none" stroke="midnightblue" d="M2551.79,-1097.32C2540.22,-1089.11 2522.62,-1076.6 2508.84,-1066.81"/>
<polygon fill="midnightblue" stroke="midnightblue" points="2510.61,-1063.77 2500.43,-1060.83 2506.56,-1069.48 2510.61,-1063.77"/>
</g>
<!-- Node44 -->
<g id="node44" class="node"><title>Node44</title>
<g id="a_node44"><a xlink:href="tir_2expr_8h.html" target="_top" xlink:title="TIR expressions. ">
<polygon fill="white" stroke="black" points="1859,-929.5 1859,-948.5 1939,-948.5 1939,-929.5 1859,-929.5"/>
<text text-anchor="middle" x="1899" y="-936.5" font-family="Helvetica,sans-Serif" font-size="10.00">tvm/tir/expr.h</text>
</a>
</g>
</g>
<!-- Node1&#45;&gt;Node44 -->
<g id="edge167" class="edge"><title>Node1&#45;&gt;Node44</title>
<path fill="none" stroke="midnightblue" d="M2525.91,-1097.45C2451.14,-1080.57 2280.03,-1041.43 2137,-1005 2067.01,-987.17 1985.96,-964.627 1938.79,-951.316"/>
<polygon fill="midnightblue" stroke="midnightblue" points="1939.54,-947.892 1928.97,-948.54 1937.64,-954.628 1939.54,-947.892"/>
</g>
<!-- Node48 -->
<g id="node48" class="node"><title>Node48</title>
<g id="a_node48"><a xlink:href="tir_2op_8h.html" target="_top" xlink:title="Common operators defined for Expr. ">
<polygon fill="white" stroke="black" points="1863,-1041.5 1863,-1060.5 1935,-1060.5 1935,-1041.5 1863,-1041.5"/>
<text text-anchor="middle" x="1899" y="-1048.5" font-family="Helvetica,sans-Serif" font-size="10.00">tvm/tir/op.h</text>
</a>
</g>
</g>
<!-- Node1&#45;&gt;Node48 -->
<g id="edge168" class="edge"><title>Node1&#45;&gt;Node48</title>
<path fill="none" stroke="midnightblue" d="M2500.24,-1100.82C2366.91,-1090 2061.41,-1065.19 1945.1,-1055.74"/>
<polygon fill="midnightblue" stroke="midnightblue" points="1945.35,-1052.25 1935.1,-1054.93 1944.79,-1059.23 1945.35,-1052.25"/>
</g>
<!-- Node3 -->
<g id="node3" class="node"><title>Node3</title>
<g id="a_node3"><a xlink:href="object_8h.html" target="_top" xlink:title="A managed object in the TVM runtime. ">
<polygon fill="white" stroke="black" points="1252.5,-123.5 1252.5,-142.5 1369.5,-142.5 1369.5,-123.5 1252.5,-123.5"/>
<text text-anchor="middle" x="1311" y="-130.5" font-family="Helvetica,sans-Serif" font-size="10.00">tvm/runtime/object.h</text>
</a>
</g>
</g>
<!-- Node2&#45;&gt;Node3 -->
<g id="edge2" class="edge"><title>Node2&#45;&gt;Node3</title>
<path fill="none" stroke="midnightblue" d="M2163.21,-418.206C1967.15,-402.234 1354.39,-350.255 1323,-322 1275.21,-278.982 1293.75,-191.164 1304.92,-152.723"/>
<polygon fill="midnightblue" stroke="midnightblue" points="1308.35,-153.46 1307.94,-142.873 1301.66,-151.406 1308.35,-153.46"/>
</g>
<!-- Node2&#45;&gt;Node9 -->
<g id="edge66" class="edge"><title>Node2&#45;&gt;Node9</title>
<path fill="none" stroke="midnightblue" d="M2282.6,-416.66C2323.61,-410.632 2378.5,-399.199 2423,-378 2486.35,-347.82 2508.2,-323.804 2522,-255 2545.21,-139.272 2359.63,-93.6856 2272.06,-78.7423"/>
<polygon fill="midnightblue" stroke="midnightblue" points="2272.58,-75.28 2262.14,-77.1089 2271.44,-82.187 2272.58,-75.28"/>
</g>
<!-- Node2&#45;&gt;Node10 -->
<g id="edge71" class="edge"><title>Node2&#45;&gt;Node10</title>
<path fill="none" stroke="midnightblue" d="M2163.34,-423.456C1969.59,-423.318 1342.39,-410.099 855,-255 814.858,-242.226 552.627,-124.587 465.264,-85.2463"/>
<polygon fill="midnightblue" stroke="midnightblue" points="466.521,-81.9735 455.966,-81.0572 463.645,-88.3558 466.521,-81.9735"/>
</g>
<!-- Node2&#45;&gt;Node11 -->
<g id="edge70" class="edge"><title>Node2&#45;&gt;Node11</title>
<path fill="none" stroke="midnightblue" d="M2282.52,-421.622C2404.94,-415.047 2681.33,-379.933 2775,-199 2808.24,-134.789 2691.33,-95.1691 2633.07,-79.807"/>
<polygon fill="midnightblue" stroke="midnightblue" points="2633.81,-76.384 2623.25,-77.3022 2632.08,-83.1666 2633.81,-76.384"/>
</g>
<!-- Node13 -->
<g id="node13" class="node"><title>Node13</title>
<g id="a_node13"><a xlink:href="runtime_2memory_8h.html" target="_top" xlink:title="Runtime memory management. ">
<polygon fill="white" stroke="black" points="2256.5,-179.5 2256.5,-198.5 2383.5,-198.5 2383.5,-179.5 2256.5,-179.5"/>
<text text-anchor="middle" x="2320" y="-186.5" font-family="Helvetica,sans-Serif" font-size="10.00">tvm/runtime/memory.h</text>
</a>
</g>
</g>
<!-- Node2&#45;&gt;Node13 -->
<g id="edge12" class="edge"><title>Node2&#45;&gt;Node13</title>
<path fill="none" stroke="midnightblue" d="M2282.53,-415.531C2316.45,-409.291 2358.7,-398.041 2392,-378 2455.86,-339.564 2478.79,-324.391 2506,-255 2509.25,-246.725 2511.5,-241.985 2506,-235 2491.88,-217.061 2439.33,-205.415 2393.67,-198.474"/>
<polygon fill="midnightblue" stroke="midnightblue" points="2394.15,-195.007 2383.75,-197.022 2393.13,-201.933 2394.15,-195.007"/>
</g>
<!-- Node15 -->
<g id="node15" class="node"><title>Node15</title>
<g id="a_node15"><a xlink:href="packed__func_8h.html" target="_top" xlink:title="Type&#45;erased function used across TVM API. ">
<polygon fill="white" stroke="black" points="1332.5,-291.5 1332.5,-321.5 1445.5,-321.5 1445.5,-291.5 1332.5,-291.5"/>
<text text-anchor="start" x="1340.5" y="-309.5" font-family="Helvetica,sans-Serif" font-size="10.00">tvm/runtime/packed</text>
<text text-anchor="middle" x="1389" y="-298.5" font-family="Helvetica,sans-Serif" font-size="10.00">_func.h</text>
</a>
</g>
</g>
<!-- Node2&#45;&gt;Node15 -->
<g id="edge17" class="edge"><title>Node2&#45;&gt;Node15</title>
<path fill="none" stroke="midnightblue" d="M2163.36,-414.74C2012.14,-393.799 1614.56,-338.738 1455.84,-316.757"/>
<polygon fill="midnightblue" stroke="midnightblue" points="1456.12,-313.262 1445.74,-315.357 1455.16,-320.196 1456.12,-313.262"/>
</g>
<!-- Node2&#45;&gt;Node19 -->
<g id="edge67" class="edge"><title>Node2&#45;&gt;Node19</title>
<path fill="none" stroke="midnightblue" d="M2245.21,-414.442C2292.28,-395.007 2394.86,-345.016 2358,-291 2306.95,-216.193 2191.43,-196.79 2133.89,-191.759"/>
<polygon fill="midnightblue" stroke="midnightblue" points="2134.09,-188.265 2123.85,-190.977 2133.55,-195.243 2134.09,-188.265"/>
</g>
<!-- Node20 -->
<g id="node20" class="node"><title>Node20</title>
<polygon fill="white" stroke="#bfbfbf" points="2673.5,-179.5 2673.5,-198.5 2766.5,-198.5 2766.5,-179.5 2673.5,-179.5"/>
<text text-anchor="middle" x="2720" y="-186.5" font-family="Helvetica,sans-Serif" font-size="10.00">unordered_map</text>
</g>
<!-- Node2&#45;&gt;Node20 -->
<g id="edge69" class="edge"><title>Node2&#45;&gt;Node20</title>
<path fill="none" stroke="midnightblue" d="M2282.59,-419.586C2333.6,-414.927 2408.07,-403.93 2468,-378 2568.6,-334.475 2666.43,-243.554 2703.94,-206.376"/>
<polygon fill="midnightblue" stroke="midnightblue" points="2706.81,-208.458 2711.39,-198.906 2701.85,-203.515 2706.81,-208.458"/>
</g>
<!-- Node28 -->
<g id="node28" class="node"><title>Node28</title>
<g id="a_node28"><a xlink:href="runtime_2container_8h.html" target="_top" xlink:title="Common POD(plain old data) container types. ">
<polygon fill="white" stroke="black" points="2058,-358.5 2058,-377.5 2190,-377.5 2190,-358.5 2058,-358.5"/>
<text text-anchor="middle" x="2124" y="-365.5" font-family="Helvetica,sans-Serif" font-size="10.00">tvm/runtime/container.h</text>
</a>
</g>
</g>
<!-- Node2&#45;&gt;Node28 -->
<g id="edge55" class="edge"><title>Node2&#45;&gt;Node28</title>
<path fill="none" stroke="midnightblue" d="M2207.09,-414.324C2191.36,-405.743 2167.06,-392.486 2148.79,-382.522"/>
<polygon fill="midnightblue" stroke="midnightblue" points="2150.32,-379.37 2139.87,-377.655 2146.97,-385.516 2150.32,-379.37"/>
</g>
<!-- Node30 -->
<g id="node30" class="node"><title>Node30</title>
<polygon fill="white" stroke="#bfbfbf" points="2272.5,-297 2272.5,-316 2349.5,-316 2349.5,-297 2272.5,-297"/>
<text text-anchor="middle" x="2311" y="-304" font-family="Helvetica,sans-Serif" font-size="10.00">initializer_list</text>
</g>
<!-- Node2&#45;&gt;Node30 -->
<g id="edge68" class="edge"><title>Node2&#45;&gt;Node30</title>
<path fill="none" stroke="midnightblue" d="M2229.61,-414.319C2244.14,-395.255 2279.04,-349.447 2298.08,-324.458"/>
<polygon fill="midnightblue" stroke="midnightblue" points="2301.03,-326.358 2304.31,-316.282 2295.46,-322.115 2301.03,-326.358"/>
</g>
<!-- Node4 -->
<g id="node4" class="node"><title>Node4</title>
<polygon fill="white" stroke="#bfbfbf" points="1815,-62 1815,-81 1901,-81 1901,-62 1815,-62"/>
<text text-anchor="middle" x="1858" y="-69" font-family="Helvetica,sans-Serif" font-size="10.00">dmlc/logging.h</text>
</g>
<!-- Node3&#45;&gt;Node4 -->
<g id="edge3" class="edge"><title>Node3&#45;&gt;Node4</title>
<path fill="none" stroke="midnightblue" d="M1369.54,-125.632C1476.39,-114.01 1701.48,-89.5251 1804.49,-78.3203"/>
<polygon fill="midnightblue" stroke="midnightblue" points="1805.1,-81.7749 1814.66,-77.2139 1804.34,-74.8159 1805.1,-81.7749"/>
</g>
<!-- Node5 -->
<g id="node5" class="node"><title>Node5</title>
<g id="a_node5"><a xlink:href="c__runtime__api_8h.html" target="_top" xlink:title="tvm/runtime/c_runtime\l_api.h">
<polygon fill="white" stroke="black" points="1076.5,-56.5 1076.5,-86.5 1203.5,-86.5 1203.5,-56.5 1076.5,-56.5"/>
<text text-anchor="start" x="1084.5" y="-74.5" font-family="Helvetica,sans-Serif" font-size="10.00">tvm/runtime/c_runtime</text>
<text text-anchor="middle" x="1140" y="-63.5" font-family="Helvetica,sans-Serif" font-size="10.00">_api.h</text>
</a>
</g>
</g>
<!-- Node3&#45;&gt;Node5 -->
<g id="edge4" class="edge"><title>Node3&#45;&gt;Node5</title>
<path fill="none" stroke="midnightblue" d="M1286.5,-123.475C1261.39,-114.739 1221.64,-100.907 1189.88,-89.855"/>
<polygon fill="midnightblue" stroke="midnightblue" points="1190.9,-86.5037 1180.3,-86.523 1188.6,-93.1149 1190.9,-86.5037"/>
</g>
<!-- Node3&#45;&gt;Node9 -->
<g id="edge8" class="edge"><title>Node3&#45;&gt;Node9</title>
<path fill="none" stroke="midnightblue" d="M1369.76,-128.187C1540.19,-117.129 2032.18,-85.2058 2183.31,-75.3998"/>
<polygon fill="midnightblue" stroke="midnightblue" points="2183.84,-78.8729 2193.59,-74.7326 2183.39,-71.8876 2183.84,-78.8729"/>
</g>
<!-- Node3&#45;&gt;Node10 -->
<g id="edge9" class="edge"><title>Node3&#45;&gt;Node10</title>
<path fill="none" stroke="midnightblue" d="M1252.3,-128.004C1083.29,-116.498 599.344,-83.552 469.43,-74.7077"/>
<polygon fill="midnightblue" stroke="midnightblue" points="469.542,-71.2074 459.327,-74.02 469.067,-78.1912 469.542,-71.2074"/>
</g>
<!-- Node3&#45;&gt;Node11 -->
<g id="edge10" class="edge"><title>Node3&#45;&gt;Node11</title>
<path fill="none" stroke="midnightblue" d="M1369.83,-129.289C1595.48,-118.889 2401.53,-81.7392 2570.71,-73.9421"/>
<polygon fill="midnightblue" stroke="midnightblue" points="2571.09,-77.4283 2580.92,-73.4715 2570.77,-70.4357 2571.09,-77.4283"/>
</g>
<!-- Node12 -->
<g id="node12" class="node"><title>Node12</title>
<polygon fill="white" stroke="#bfbfbf" points="1371,-62 1371,-81 1421,-81 1421,-62 1371,-62"/>
<text text-anchor="middle" x="1396" y="-69" font-family="Helvetica,sans-Serif" font-size="10.00">atomic</text>
</g>
<!-- Node3&#45;&gt;Node12 -->
<g id="edge11" class="edge"><title>Node3&#45;&gt;Node12</title>
<path fill="none" stroke="midnightblue" d="M1323.18,-123.475C1336.81,-113.931 1359.13,-98.3073 1375.47,-86.8683"/>
<polygon fill="midnightblue" stroke="midnightblue" points="1377.66,-89.6111 1383.84,-81.0091 1373.64,-83.8764 1377.66,-89.6111"/>
</g>
<!-- Node6 -->
<g id="node6" class="node"><title>Node6</title>
<polygon fill="white" stroke="#bfbfbf" points="1005,-0.5 1005,-19.5 1095,-19.5 1095,-0.5 1005,-0.5"/>
<text text-anchor="middle" x="1050" y="-7.5" font-family="Helvetica,sans-Serif" font-size="10.00">dlpack/dlpack.h</text>
</g>
<!-- Node5&#45;&gt;Node6 -->
<g id="edge5" class="edge"><title>Node5&#45;&gt;Node6</title>
<path fill="none" stroke="midnightblue" d="M1118.67,-56.3993C1104.51,-47.0402 1085.99,-34.7924 1071.75,-25.3771"/>
<polygon fill="midnightblue" stroke="midnightblue" points="1073.37,-22.2531 1063.1,-19.6578 1069.51,-28.0923 1073.37,-22.2531"/>
</g>
<!-- Node7 -->
<g id="node7" class="node"><title>Node7</title>
<polygon fill="white" stroke="#bfbfbf" points="1113.5,-0.5 1113.5,-19.5 1166.5,-19.5 1166.5,-0.5 1113.5,-0.5"/>
<text text-anchor="middle" x="1140" y="-7.5" font-family="Helvetica,sans-Serif" font-size="10.00">stdint.h</text>
</g>
<!-- Node5&#45;&gt;Node7 -->
<g id="edge6" class="edge"><title>Node5&#45;&gt;Node7</title>
<path fill="none" stroke="midnightblue" d="M1140,-56.3993C1140,-48.4664 1140,-38.458 1140,-29.8583"/>
<polygon fill="midnightblue" stroke="midnightblue" points="1143.5,-29.6577 1140,-19.6578 1136.5,-29.6578 1143.5,-29.6577"/>
</g>
<!-- Node8 -->
<g id="node8" class="node"><title>Node8</title>
<polygon fill="white" stroke="#bfbfbf" points="1184.5,-0.5 1184.5,-19.5 1239.5,-19.5 1239.5,-0.5 1184.5,-0.5"/>
<text text-anchor="middle" x="1212" y="-7.5" font-family="Helvetica,sans-Serif" font-size="10.00">stddef.h</text>
</g>
<!-- Node5&#45;&gt;Node8 -->
<g id="edge7" class="edge"><title>Node5&#45;&gt;Node8</title>
<path fill="none" stroke="midnightblue" d="M1157.06,-56.3993C1168.06,-47.3076 1182.37,-35.4899 1193.62,-26.1909"/>
<polygon fill="midnightblue" stroke="midnightblue" points="1196.04,-28.726 1201.52,-19.6578 1191.59,-23.33 1196.04,-28.726"/>
</g>
<!-- Node13&#45;&gt;Node3 -->
<g id="edge13" class="edge"><title>Node13&#45;&gt;Node3</title>
<path fill="none" stroke="midnightblue" d="M2256.12,-184.581C2076.06,-174.945 1565.49,-147.62 1379.69,-137.676"/>
<polygon fill="midnightblue" stroke="midnightblue" points="1379.68,-134.171 1369.51,-137.131 1379.31,-141.161 1379.68,-134.171"/>
</g>
<!-- Node13&#45;&gt;Node9 -->
<g id="edge16" class="edge"><title>Node13&#45;&gt;Node9</title>
<path fill="none" stroke="midnightblue" d="M2321.21,-179.197C2322.56,-165.886 2323.27,-140.354 2312,-123 2300.66,-105.541 2280.98,-93.2355 2263.51,-85.1455"/>
<polygon fill="midnightblue" stroke="midnightblue" points="2264.67,-81.8341 2254.1,-81.0787 2261.89,-88.2595 2264.67,-81.8341"/>
</g>
<!-- Node13&#45;&gt;Node11 -->
<g id="edge15" class="edge"><title>Node13&#45;&gt;Node11</title>
<path fill="none" stroke="midnightblue" d="M2341.2,-179.319C2390.72,-159.035 2514.17,-108.473 2571.66,-84.9284"/>
<polygon fill="midnightblue" stroke="midnightblue" points="2573.02,-88.1535 2580.94,-81.1245 2570.36,-81.6758 2573.02,-88.1535"/>
</g>
<!-- Node14 -->
<g id="node14" class="node"><title>Node14</title>
<polygon fill="white" stroke="#bfbfbf" points="2256.5,-123.5 2256.5,-142.5 2303.5,-142.5 2303.5,-123.5 2256.5,-123.5"/>
<text text-anchor="middle" x="2280" y="-130.5" font-family="Helvetica,sans-Serif" font-size="10.00">cstdlib</text>
</g>
<!-- Node13&#45;&gt;Node14 -->
<g id="edge14" class="edge"><title>Node13&#45;&gt;Node14</title>
<path fill="none" stroke="midnightblue" d="M2313.39,-179.083C2307.74,-171.455 2299.46,-160.264 2292.55,-150.941"/>
<polygon fill="midnightblue" stroke="midnightblue" points="2295.25,-148.703 2286.48,-142.751 2289.62,-152.87 2295.25,-148.703"/>
</g>
<!-- Node15&#45;&gt;Node3 -->
<g id="edge46" class="edge"><title>Node15&#45;&gt;Node3</title>
<path fill="none" stroke="midnightblue" d="M1358.46,-291.413C1343.91,-283.01 1327.79,-270.861 1319,-255 1301.04,-222.582 1304,-177.532 1307.6,-152.552"/>
<polygon fill="midnightblue" stroke="midnightblue" points="1311.06,-153.038 1309.22,-142.604 1304.16,-151.909 1311.06,-153.038"/>
</g>
<!-- Node15&#45;&gt;Node4 -->
<g id="edge18" class="edge"><title>Node15&#45;&gt;Node4</title>
<path fill="none" stroke="midnightblue" d="M1445.58,-293.929C1450.46,-292.937 1455.31,-291.95 1460,-291 1539.53,-274.881 1562.26,-281.377 1639,-255 1657.8,-248.539 1660.28,-241.688 1679,-235 1747.23,-210.622 1788.48,-251.893 1838,-199 1865.39,-169.743 1864.13,-118.972 1860.98,-91.488"/>
<polygon fill="midnightblue" stroke="midnightblue" points="1864.4,-90.7043 1859.59,-81.2653 1857.47,-91.6449 1864.4,-90.7043"/>
</g>
<!-- Node15&#45;&gt;Node5 -->
<g id="edge19" class="edge"><title>Node15&#45;&gt;Node5</title>
<path fill="none" stroke="midnightblue" d="M1361.89,-291.331C1345.28,-282.05 1324.01,-269.063 1307,-255 1245.41,-204.077 1185.12,-130.759 1156.78,-94.5081"/>
<polygon fill="midnightblue" stroke="midnightblue" points="1159.49,-92.2923 1150.6,-86.535 1153.96,-96.5821 1159.49,-92.2923"/>
</g>
<!-- Node15&#45;&gt;Node9 -->
<g id="edge54" class="edge"><title>Node15&#45;&gt;Node9</title>
<path fill="none" stroke="midnightblue" d="M1445.78,-291.789C1447.2,-291.515 1448.61,-291.252 1450,-291 1576.94,-268.05 1615.88,-296.561 1738,-255 1754.6,-249.352 1756.31,-242.815 1772,-235 1809.46,-216.346 1821.1,-216.731 1859,-199 1924.91,-168.17 1935.71,-148.103 2004,-123 2064.53,-100.751 2138,-86.4556 2183.89,-78.9462"/>
<polygon fill="midnightblue" stroke="midnightblue" points="2184.49,-82.3948 2193.82,-77.3584 2183.39,-75.4828 2184.49,-82.3948"/>
</g>
<!-- Node15&#45;&gt;Node10 -->
<g id="edge50" class="edge"><title>Node15&#45;&gt;Node10</title>
<path fill="none" stroke="midnightblue" d="M1347.3,-291.419C1270.39,-265.037 1101.47,-205.189 964,-143 946.611,-135.134 944.268,-128.525 926,-123 839.866,-96.9497 563.837,-79.5506 469.198,-74.226"/>
<polygon fill="midnightblue" stroke="midnightblue" points="469.265,-70.7244 459.086,-73.6644 468.876,-77.7136 469.265,-70.7244"/>
</g>
<!-- Node15&#45;&gt;Node11 -->
<g id="edge53" class="edge"><title>Node15&#45;&gt;Node11</title>
<path fill="none" stroke="midnightblue" d="M1445.56,-302.925C1630.39,-293.979 2214.84,-261.332 2392,-199 2468.99,-171.913 2548.46,-114.433 2583.5,-87.2863"/>
<polygon fill="midnightblue" stroke="midnightblue" points="2585.72,-89.9991 2591.43,-81.0752 2581.4,-84.49 2585.72,-89.9991"/>
</g>
<!-- Node16 -->
<g id="node16" class="node"><title>Node16</title>
<g id="a_node16"><a xlink:href="runtime_2module_8h.html" target="_top" xlink:title="Runtime container of the functions generated by TVM, This is used to support dynamically link...">
<polygon fill="white" stroke="black" points="1470,-235.5 1470,-254.5 1594,-254.5 1594,-235.5 1470,-235.5"/>
<text text-anchor="middle" x="1532" y="-242.5" font-family="Helvetica,sans-Serif" font-size="10.00">tvm/runtime/module.h</text>
</a>
</g>
</g>
<!-- Node15&#45;&gt;Node16 -->
<g id="edge20" class="edge"><title>Node15&#45;&gt;Node16</title>
<path fill="none" stroke="midnightblue" d="M1417.05,-291.399C1439.96,-281.327 1472.3,-267.909 1496.91,-258.277"/>
<polygon fill="midnightblue" stroke="midnightblue" points="1498.2,-261.531 1506.26,-254.658 1495.67,-255.002 1498.2,-261.531"/>
</g>
<!-- Node18 -->
<g id="node18" class="node"><title>Node18</title>
<polygon fill="white" stroke="#bfbfbf" points="1772.5,-179.5 1772.5,-198.5 1829.5,-198.5 1829.5,-179.5 1772.5,-179.5"/>
<text text-anchor="middle" x="1801" y="-186.5" font-family="Helvetica,sans-Serif" font-size="10.00">memory</text>
</g>
<!-- Node15&#45;&gt;Node18 -->
<g id="edge52" class="edge"><title>Node15&#45;&gt;Node18</title>
<path fill="none" stroke="midnightblue" d="M1445.54,-293.523C1498.72,-282.01 1574.32,-264.936 1603,-255 1622.92,-248.099 1626.27,-242.404 1646,-235 1684.94,-220.389 1730.84,-207.592 1762.53,-199.419"/>
<polygon fill="midnightblue" stroke="midnightblue" points="1763.46,-202.792 1772.29,-196.931 1761.74,-196.009 1763.46,-202.792"/>
</g>
<!-- Node15&#45;&gt;Node19 -->
<g id="edge49" class="edge"><title>Node15&#45;&gt;Node19</title>
<path fill="none" stroke="midnightblue" d="M1445.5,-293.502C1450.4,-292.602 1455.28,-291.753 1460,-291 1597.84,-269.014 1634.63,-279.781 1772,-255 1808.49,-248.417 1816.74,-242.771 1853,-235 1928.88,-218.737 2018.68,-203.33 2066.34,-195.454"/>
<polygon fill="midnightblue" stroke="midnightblue" points="2067.11,-198.875 2076.41,-193.799 2065.97,-191.968 2067.11,-198.875"/>
</g>
<!-- Node21 -->
<g id="node21" class="node"><title>Node21</title>
<g id="a_node21"><a xlink:href="ndarray_8h.html" target="_top" xlink:title="A device&#45;independent managed NDArray abstraction. ">
<polygon fill="white" stroke="black" points="1328.5,-235.5 1328.5,-254.5 1451.5,-254.5 1451.5,-235.5 1328.5,-235.5"/>
<text text-anchor="middle" x="1390" y="-242.5" font-family="Helvetica,sans-Serif" font-size="10.00">tvm/runtime/ndarray.h</text>
</a>
</g>
</g>
<!-- Node15&#45;&gt;Node21 -->
<g id="edge30" class="edge"><title>Node15&#45;&gt;Node21</title>
<path fill="none" stroke="midnightblue" d="M1389.24,-291.399C1389.37,-283.466 1389.54,-273.458 1389.68,-264.858"/>
<polygon fill="midnightblue" stroke="midnightblue" points="1393.19,-264.715 1389.85,-254.658 1386.19,-264.598 1393.19,-264.715"/>
</g>
<!-- Node24 -->
<g id="node24" class="node"><title>Node24</title>
<g id="a_node24"><a xlink:href="data__type_8h.html" target="_top" xlink:title="tvm/runtime/data_type.h">
<polygon fill="white" stroke="black" points="864,-235.5 864,-254.5 1000,-254.5 1000,-235.5 864,-235.5"/>
<text text-anchor="middle" x="932" y="-242.5" font-family="Helvetica,sans-Serif" font-size="10.00">tvm/runtime/data_type.h</text>
</a>
</g>
</g>
<!-- Node15&#45;&gt;Node24 -->
<g id="edge41" class="edge"><title>Node15&#45;&gt;Node24</title>
<path fill="none" stroke="midnightblue" d="M1332.04,-298.085C1250.06,-287.41 1098.63,-267.695 1007.43,-255.821"/>
<polygon fill="midnightblue" stroke="midnightblue" points="1007.81,-252.34 997.438,-254.52 1006.9,-259.282 1007.81,-252.34"/>
</g>
<!-- Node25 -->
<g id="node25" class="node"><title>Node25</title>
<polygon fill="white" stroke="#bfbfbf" points="1094.5,-235.5 1094.5,-254.5 1157.5,-254.5 1157.5,-235.5 1094.5,-235.5"/>
<text text-anchor="middle" x="1126" y="-242.5" font-family="Helvetica,sans-Serif" font-size="10.00">functional</text>
</g>
<!-- Node15&#45;&gt;Node25 -->
<g id="edge47" class="edge"><title>Node15&#45;&gt;Node25</title>
<path fill="none" stroke="midnightblue" d="M1332.26,-292.663C1282.66,-281.443 1211.83,-265.418 1167.41,-255.368"/>
<polygon fill="midnightblue" stroke="midnightblue" points="1168.06,-251.926 1157.53,-253.133 1166.51,-258.754 1168.06,-251.926"/>
</g>
<!-- Node26 -->
<g id="node26" class="node"><title>Node26</title>
<polygon fill="white" stroke="#bfbfbf" points="1688.5,-235.5 1688.5,-254.5 1729.5,-254.5 1729.5,-235.5 1688.5,-235.5"/>
<text text-anchor="middle" x="1709" y="-242.5" font-family="Helvetica,sans-Serif" font-size="10.00">tuple</text>
</g>
<!-- Node15&#45;&gt;Node26 -->
<g id="edge48" class="edge"><title>Node15&#45;&gt;Node26</title>
<path fill="none" stroke="midnightblue" d="M1445.55,-293.767C1450.43,-292.81 1455.3,-291.875 1460,-291 1554.82,-273.348 1579.65,-275.028 1674,-255 1675.46,-254.691 1676.95,-254.361 1678.45,-254.018"/>
<polygon fill="midnightblue" stroke="midnightblue" points="1679.44,-257.378 1688.34,-251.623 1677.8,-250.574 1679.44,-257.378"/>
</g>
<!-- Node27 -->
<g id="node27" class="node"><title>Node27</title>
<polygon fill="white" stroke="#bfbfbf" points="234,-235.5 234,-254.5 276,-254.5 276,-235.5 234,-235.5"/>
<text text-anchor="middle" x="255" y="-242.5" font-family="Helvetica,sans-Serif" font-size="10.00">limits</text>
</g>
<!-- Node15&#45;&gt;Node27 -->
<g id="edge51" class="edge"><title>Node15&#45;&gt;Node27</title>
<path fill="none" stroke="midnightblue" d="M1332.38,-302.529C1129.37,-291.877 441.841,-255.803 286.408,-247.648"/>
<polygon fill="midnightblue" stroke="midnightblue" points="286.32,-244.139 276.151,-247.11 285.953,-251.129 286.32,-244.139"/>
</g>
<!-- Node16&#45;&gt;Node3 -->
<g id="edge23" class="edge"><title>Node16&#45;&gt;Node3</title>
<path fill="none" stroke="midnightblue" d="M1492.74,-235.472C1463.79,-228.228 1424.04,-216.238 1392,-199 1367.35,-185.737 1342.81,-164.655 1327.31,-150.116"/>
<polygon fill="midnightblue" stroke="midnightblue" points="1329.32,-147.199 1319.68,-142.802 1324.48,-152.251 1329.32,-147.199"/>
</g>
<!-- Node16&#45;&gt;Node5 -->
<g id="edge22" class="edge"><title>Node16&#45;&gt;Node5</title>
<path fill="none" stroke="midnightblue" d="M1523.93,-235.352C1502.5,-212.943 1441.45,-152.677 1378,-123 1326.03,-98.6893 1262.2,-85.9595 1213.73,-79.3653"/>
<polygon fill="midnightblue" stroke="midnightblue" points="1214,-75.8708 1203.63,-78.0493 1213.1,-82.8121 1214,-75.8708"/>
</g>
<!-- Node16&#45;&gt;Node10 -->
<g id="edge27" class="edge"><title>Node16&#45;&gt;Node10</title>
<path fill="none" stroke="midnightblue" d="M1498.64,-235.492C1411.39,-213.548 1169.03,-154.556 964,-123 777.76,-94.3358 551.831,-79.1947 469.224,-74.3005"/>
<polygon fill="midnightblue" stroke="midnightblue" points="469.39,-70.8044 459.203,-73.7158 468.982,-77.7925 469.39,-70.8044"/>
</g>
<!-- Node16&#45;&gt;Node13 -->
<g id="edge24" class="edge"><title>Node16&#45;&gt;Node13</title>
<path fill="none" stroke="midnightblue" d="M1594.16,-239.74C1737.69,-229.905 2091.65,-205.649 2246.02,-195.07"/>
<polygon fill="midnightblue" stroke="midnightblue" points="2246.6,-198.538 2256.34,-194.363 2246.12,-191.555 2246.6,-198.538"/>
</g>
<!-- Node16&#45;&gt;Node15 -->
<g id="edge29" class="edge"><title>Node16&#45;&gt;Node15</title>
<path fill="none" stroke="midnightblue" d="M1516.12,-254.658C1497.27,-263.272 1465.33,-276.746 1438.12,-287.658"/>
<polygon fill="midnightblue" stroke="midnightblue" points="1436.72,-284.448 1428.73,-291.399 1439.31,-290.952 1436.72,-284.448"/>
</g>
<!-- Node17 -->
<g id="node17" class="node"><title>Node17</title>
<polygon fill="white" stroke="#bfbfbf" points="1660,-123.5 1660,-142.5 1720,-142.5 1720,-123.5 1660,-123.5"/>
<text text-anchor="middle" x="1690" y="-130.5" font-family="Helvetica,sans-Serif" font-size="10.00">dmlc/io.h</text>
</g>
<!-- Node16&#45;&gt;Node17 -->
<g id="edge21" class="edge"><title>Node16&#45;&gt;Node17</title>
<path fill="none" stroke="midnightblue" d="M1584.63,-235.428C1624.37,-227.784 1674.17,-215.289 1687,-199 1697.15,-186.116 1696.75,-166.939 1694.51,-152.751"/>
<polygon fill="midnightblue" stroke="midnightblue" points="1697.88,-151.771 1692.47,-142.658 1691.02,-153.152 1697.88,-151.771"/>
</g>
<!-- Node16&#45;&gt;Node18 -->
<g id="edge25" class="edge"><title>Node16&#45;&gt;Node18</title>
<path fill="none" stroke="midnightblue" d="M1575.35,-235.499C1620.87,-226.543 1694.5,-211.967 1758,-199 1759.45,-198.704 1760.92,-198.402 1762.41,-198.095"/>
<polygon fill="midnightblue" stroke="midnightblue" points="1763.24,-201.497 1772.33,-196.042 1761.82,-194.643 1763.24,-201.497"/>
</g>
<!-- Node16&#45;&gt;Node19 -->
<g id="edge26" class="edge"><title>Node16&#45;&gt;Node19</title>
<path fill="none" stroke="midnightblue" d="M1594.14,-238.092C1714.03,-226.694 1973.63,-202.014 2066.29,-193.205"/>
<polygon fill="midnightblue" stroke="midnightblue" points="2066.86,-196.666 2076.49,-192.235 2066.2,-189.697 2066.86,-196.666"/>
</g>
<!-- Node16&#45;&gt;Node20 -->
<g id="edge28" class="edge"><title>Node16&#45;&gt;Node20</title>
<path fill="none" stroke="midnightblue" d="M1594.21,-239.943C1620.39,-238.301 1651.17,-236.453 1679,-235 2054.26,-215.403 2505.94,-197.98 2662.94,-192.106"/>
<polygon fill="midnightblue" stroke="midnightblue" points="2663.43,-195.591 2673.3,-191.72 2663.17,-188.596 2663.43,-195.591"/>
</g>
<!-- Node21&#45;&gt;Node3 -->
<g id="edge32" class="edge"><title>Node21&#45;&gt;Node3</title>
<path fill="none" stroke="midnightblue" d="M1382.59,-235.22C1375.13,-226.282 1363.43,-211.939 1354,-199 1342.46,-183.159 1330.21,-164.436 1321.75,-151.163"/>
<polygon fill="midnightblue" stroke="midnightblue" points="1324.63,-149.162 1316.33,-142.58 1318.71,-152.903 1324.63,-149.162"/>
</g>
<!-- Node21&#45;&gt;Node5 -->
<g id="edge31" class="edge"><title>Node21&#45;&gt;Node5</title>
<path fill="none" stroke="midnightblue" d="M1377.6,-235.495C1339.52,-209.374 1223.55,-129.813 1168.97,-92.3745"/>
<polygon fill="midnightblue" stroke="midnightblue" points="1170.68,-89.3008 1160.45,-86.53 1166.72,-95.0731 1170.68,-89.3008"/>
</g>
<!-- Node21&#45;&gt;Node11 -->
<g id="edge40" class="edge"><title>Node21&#45;&gt;Node11</title>
<path fill="none" stroke="midnightblue" d="M1451.4,-235.487C1524.8,-225.172 1643.21,-208.053 1687,-199 1721.2,-191.929 1728.75,-185.866 1763,-179 1939.87,-143.539 1986.05,-145.8 2165,-123 2316.69,-103.673 2498.42,-83.6866 2570.41,-75.8949"/>
<polygon fill="midnightblue" stroke="midnightblue" points="2571.04,-79.3469 2580.61,-74.7931 2570.29,-72.3874 2571.04,-79.3469"/>
</g>
<!-- Node21&#45;&gt;Node12 -->
<g id="edge38" class="edge"><title>Node21&#45;&gt;Node12</title>
<path fill="none" stroke="midnightblue" d="M1390.31,-235.26C1391.24,-208.651 1394.05,-128.215 1395.34,-91.3382"/>
<polygon fill="midnightblue" stroke="midnightblue" points="1398.85,-91.1357 1395.7,-81.0194 1391.85,-90.8908 1398.85,-91.1357"/>
</g>
<!-- Node21&#45;&gt;Node19 -->
<g id="edge39" class="edge"><title>Node21&#45;&gt;Node19</title>
<path fill="none" stroke="midnightblue" d="M1451.55,-235.985C1454.74,-235.635 1457.91,-235.305 1461,-235 1691.99,-212.244 1971.06,-196.683 2066.28,-191.71"/>
<polygon fill="midnightblue" stroke="midnightblue" points="2066.66,-195.196 2076.46,-191.182 2066.29,-188.205 2066.66,-195.196"/>
</g>
<!-- Node22 -->
<g id="node22" class="node"><title>Node22</title>
<g id="a_node22"><a xlink:href="serializer_8h.html" target="_top" xlink:title="Serializer extension to support TVM data types Include this file to enable serialization of DLDataTyp...">
<polygon fill="white" stroke="black" points="1548,-179.5 1548,-198.5 1678,-198.5 1678,-179.5 1548,-179.5"/>
<text text-anchor="middle" x="1613" y="-186.5" font-family="Helvetica,sans-Serif" font-size="10.00">tvm/runtime/serializer.h</text>
</a>
</g>
</g>
<!-- Node21&#45;&gt;Node22 -->
<g id="edge33" class="edge"><title>Node21&#45;&gt;Node22</title>
<path fill="none" stroke="midnightblue" d="M1420.25,-235.444C1456.93,-226.063 1519.02,-210.993 1562.86,-200.804"/>
<polygon fill="midnightblue" stroke="midnightblue" points="1563.8,-204.179 1572.75,-198.516 1562.22,-197.359 1563.8,-204.179"/>
</g>
<!-- Node22&#45;&gt;Node5 -->
<g id="edge36" class="edge"><title>Node22&#45;&gt;Node5</title>
<path fill="none" stroke="midnightblue" d="M1591.03,-179.422C1555.54,-165.835 1483.18,-139.243 1420,-123 1350.84,-105.219 1270.5,-91.4153 1213.66,-82.7677"/>
<polygon fill="midnightblue" stroke="midnightblue" points="1214.09,-79.2935 1203.68,-81.266 1213.05,-86.2156 1214.09,-79.2935"/>
</g>
<!-- Node22&#45;&gt;Node17 -->
<g id="edge34" class="edge"><title>Node22&#45;&gt;Node17</title>
<path fill="none" stroke="midnightblue" d="M1625.37,-179.324C1637.16,-171.058 1655.13,-158.453 1669.14,-148.632"/>
<polygon fill="midnightblue" stroke="midnightblue" points="1671.48,-151.262 1677.66,-142.655 1667.46,-145.531 1671.48,-151.262"/>
</g>
<!-- Node22&#45;&gt;Node21 -->
<g id="edge37" class="edge"><title>Node22&#45;&gt;Node21</title>
<path fill="none" stroke="midnightblue" d="M1582.91,-198.516C1546.3,-207.881 1484.22,-222.95 1440.33,-233.153"/>
<polygon fill="midnightblue" stroke="midnightblue" points="1439.38,-229.78 1430.42,-235.444 1440.96,-236.6 1439.38,-229.78"/>
</g>
<!-- Node23 -->
<g id="node23" class="node"><title>Node23</title>
<polygon fill="white" stroke="#bfbfbf" points="1548,-123.5 1548,-142.5 1642,-142.5 1642,-123.5 1548,-123.5"/>
<text text-anchor="middle" x="1595" y="-130.5" font-family="Helvetica,sans-Serif" font-size="10.00">dmlc/serializer.h</text>
</g>
<!-- Node22&#45;&gt;Node23 -->
<g id="edge35" class="edge"><title>Node22&#45;&gt;Node23</title>
<path fill="none" stroke="midnightblue" d="M1610.03,-179.083C1607.62,-171.849 1604.14,-161.409 1601.13,-152.397"/>
<polygon fill="midnightblue" stroke="midnightblue" points="1604.4,-151.131 1597.92,-142.751 1597.76,-153.345 1604.4,-151.131"/>
</g>
<!-- Node24&#45;&gt;Node4 -->
<g id="edge43" class="edge"><title>Node24&#45;&gt;Node4</title>
<path fill="none" stroke="midnightblue" d="M951.578,-235.486C981.014,-222.767 1038.5,-198.241 1088,-179 1156.27,-152.462 1171.43,-138.578 1243,-123 1447.13,-78.5695 1697.13,-72.5255 1804.67,-72.1676"/>
<polygon fill="midnightblue" stroke="midnightblue" points="1804.93,-75.6672 1814.93,-72.1496 1804.92,-68.6673 1804.93,-75.6672"/>
</g>
<!-- Node24&#45;&gt;Node5 -->
<g id="edge42" class="edge"><title>Node24&#45;&gt;Node5</title>
<path fill="none" stroke="midnightblue" d="M908.987,-235.496C882.157,-224.237 843.462,-202.985 860,-179 906.055,-112.209 999.947,-87.2723 1066.28,-77.9816"/>
<polygon fill="midnightblue" stroke="midnightblue" points="1066.81,-81.4425 1076.27,-76.671 1065.89,-74.502 1066.81,-81.4425"/>
</g>
<!-- Node24&#45;&gt;Node9 -->
<g id="edge44" class="edge"><title>Node24&#45;&gt;Node9</title>
<path fill="none" stroke="midnightblue" d="M966.981,-235.446C1059.64,-213.131 1319.39,-152.821 1539,-123 1781.07,-90.1298 2074.1,-77.5968 2183.76,-73.847"/>
<polygon fill="midnightblue" stroke="midnightblue" points="2183.91,-77.3438 2193.79,-73.5111 2183.68,-70.3477 2183.91,-77.3438"/>
</g>
<!-- Node24&#45;&gt;Node10 -->
<g id="edge45" class="edge"><title>Node24&#45;&gt;Node10</title>
<path fill="none" stroke="midnightblue" d="M915.888,-235.482C874.484,-213.896 760.552,-156.393 660,-123 593.7,-100.982 513.168,-85.3709 469.304,-77.7632"/>
<polygon fill="midnightblue" stroke="midnightblue" points="469.677,-74.2763 459.231,-76.0455 468.5,-81.1767 469.677,-74.2763"/>
</g>
<!-- Node28&#45;&gt;Node3 -->
<g id="edge58" class="edge"><title>Node28&#45;&gt;Node3</title>
<path fill="none" stroke="midnightblue" d="M2077.25,-358.444C2038.37,-350.732 1981.86,-338.135 1934,-322 1843.69,-291.554 1829.75,-260.785 1738,-235 1619.33,-201.651 1581.89,-231.538 1463,-199 1416.49,-186.272 1365.56,-162.254 1336.04,-147.248"/>
<polygon fill="midnightblue" stroke="midnightblue" points="1337.39,-144.001 1326.89,-142.533 1334.18,-150.224 1337.39,-144.001"/>
</g>
<!-- Node28&#45;&gt;Node4 -->
<g id="edge56" class="edge"><title>Node28&#45;&gt;Node4</title>
<path fill="none" stroke="midnightblue" d="M2092.98,-358.436C2074.97,-351.694 2053.77,-340.302 2043,-322 2036.01,-310.125 2037.03,-303.418 2043,-291 2054.1,-267.915 2069.97,-273.19 2088,-255 2110.28,-232.52 2121.65,-228.914 2132,-199 2134.91,-190.599 2137.02,-186.336 2132,-179 2082.42,-106.533 1975.73,-83.3677 1911.08,-75.9679"/>
<polygon fill="midnightblue" stroke="midnightblue" points="1911.39,-72.4816 1901.08,-74.9105 1910.66,-79.4428 1911.39,-72.4816"/>
</g>
<!-- Node28&#45;&gt;Node9 -->
<g id="edge63" class="edge"><title>Node28&#45;&gt;Node9</title>
<path fill="none" stroke="midnightblue" d="M2137.82,-358.426C2151.76,-349.647 2173.76,-335.426 2192,-322 2209.55,-309.081 2212.02,-303.314 2230,-291 2298.32,-244.221 2350.34,-270.559 2392,-199 2424.83,-142.596 2328.67,-102.585 2269.93,-84.0739"/>
<polygon fill="midnightblue" stroke="midnightblue" points="2270.72,-80.658 2260.14,-81.0781 2268.68,-87.3515 2270.72,-80.658"/>
</g>
<!-- Node28&#45;&gt;Node10 -->
<g id="edge62" class="edge"><title>Node28&#45;&gt;Node10</title>
<path fill="none" stroke="midnightblue" d="M2057.76,-365.141C1892.23,-360.196 1463.73,-345.472 1323,-322 1037.12,-274.32 982.076,-197.537 702,-123 619.182,-100.96 519.366,-84.6262 469.164,-77.102"/>
<polygon fill="midnightblue" stroke="midnightblue" points="469.633,-73.6334 459.228,-75.6313 468.608,-80.558 469.633,-73.6334"/>
</g>
<!-- Node28&#45;&gt;Node11 -->
<g id="edge64" class="edge"><title>Node28&#45;&gt;Node11</title>
<path fill="none" stroke="midnightblue" d="M2147.75,-358.484C2168.8,-350.462 2199.99,-337.395 2225,-322 2243.56,-310.576 2244.18,-301.993 2263,-291 2300.91,-268.855 2315.8,-274.78 2355,-255 2438.45,-212.894 2460.26,-201.692 2533,-143 2553.5,-126.459 2574.28,-104.344 2587.59,-89.325"/>
<polygon fill="midnightblue" stroke="midnightblue" points="2590.58,-91.2322 2594.52,-81.3975 2585.3,-86.6283 2590.58,-91.2322"/>
</g>
<!-- Node28&#45;&gt;Node13 -->
<g id="edge57" class="edge"><title>Node28&#45;&gt;Node13</title>
<path fill="none" stroke="midnightblue" d="M2131.09,-358.12C2142.98,-343.454 2168.01,-313.555 2192,-291 2227.61,-257.528 2273.4,-223.267 2299.45,-204.505"/>
<polygon fill="midnightblue" stroke="midnightblue" points="2301.69,-207.205 2307.79,-198.541 2297.62,-201.511 2301.69,-207.205"/>
</g>
<!-- Node28&#45;&gt;Node15 -->
<g id="edge59" class="edge"><title>Node28&#45;&gt;Node15</title>
<path fill="none" stroke="midnightblue" d="M2057.8,-361.641C1918.38,-350.355 1595.85,-324.245 1455.86,-312.912"/>
<polygon fill="midnightblue" stroke="midnightblue" points="1455.95,-309.408 1445.7,-312.09 1455.38,-316.385 1455.95,-309.408"/>
</g>
<!-- Node28&#45;&gt;Node19 -->
<g id="edge65" class="edge"><title>Node28&#45;&gt;Node19</title>
<path fill="none" stroke="midnightblue" d="M2122.84,-358.463C2119.18,-331.428 2107.76,-247.239 2102.59,-209.109"/>
<polygon fill="midnightblue" stroke="midnightblue" points="2106.01,-208.307 2101.2,-198.868 2099.08,-209.248 2106.01,-208.307"/>
</g>
<!-- Node29 -->
<g id="node29" class="node"><title>Node29</title>
<polygon fill="white" stroke="#bfbfbf" points="2052.5,-297 2052.5,-316 2101.5,-316 2101.5,-297 2052.5,-297"/>
<text text-anchor="middle" x="2077" y="-304" font-family="Helvetica,sans-Serif" font-size="10.00">cstring</text>
</g>
<!-- Node28&#45;&gt;Node29 -->
<g id="edge60" class="edge"><title>Node28&#45;&gt;Node29</title>
<path fill="none" stroke="midnightblue" d="M2117.27,-358.475C2110.22,-349.55 2098.97,-335.307 2090.15,-324.143"/>
<polygon fill="midnightblue" stroke="midnightblue" points="2092.67,-321.687 2083.72,-316.009 2087.17,-326.026 2092.67,-321.687"/>
</g>
<!-- Node28&#45;&gt;Node30 -->
<g id="edge61" class="edge"><title>Node28&#45;&gt;Node30</title>
<path fill="none" stroke="midnightblue" d="M2150.79,-358.475C2183.29,-348.136 2238.21,-330.661 2274.54,-319.102"/>
<polygon fill="midnightblue" stroke="midnightblue" points="2275.79,-322.376 2284.26,-316.009 2273.67,-315.706 2275.79,-322.376"/>
</g>
<!-- Node31&#45;&gt;Node2 -->
<g id="edge73" class="edge"><title>Node31&#45;&gt;Node2</title>
<path fill="none" stroke="midnightblue" d="M2502.95,-1041.47C2514.93,-1033.7 2530.87,-1021 2538,-1005 2552.92,-971.498 2689.63,-1114.09 2503,-705 2444.74,-577.294 2398.58,-561.339 2292,-470 2278.24,-458.204 2261.19,-447.058 2247.48,-438.809"/>
<polygon fill="midnightblue" stroke="midnightblue" points="2249,-435.643 2238.61,-433.589 2245.45,-441.676 2249,-435.643"/>
</g>
<!-- Node31&#45;&gt;Node20 -->
<g id="edge166" class="edge"><title>Node31&#45;&gt;Node20</title>
<path fill="none" stroke="midnightblue" d="M2539.38,-1047.31C2651.26,-1040.04 2907,-1015.21 2907,-940 2907,-940 2907,-940 2907,-484.5 2907,-359.92 2786.27,-245.406 2738.82,-205.213"/>
<polygon fill="midnightblue" stroke="midnightblue" points="2740.79,-202.295 2730.86,-198.588 2736.31,-207.675 2740.79,-202.295"/>
</g>
<!-- Node32 -->
<g id="node32" class="node"><title>Node32</title>
<g id="a_node32"><a xlink:href="ir_2expr_8h.html" target="_top" xlink:title="Base expr nodes in TVM. ">
<polygon fill="white" stroke="black" points="1506.5,-761.5 1506.5,-780.5 1583.5,-780.5 1583.5,-761.5 1506.5,-761.5"/>
<text text-anchor="middle" x="1545" y="-768.5" font-family="Helvetica,sans-Serif" font-size="10.00">tvm/ir/expr.h</text>
</a>
</g>
</g>
<!-- Node31&#45;&gt;Node32 -->
<g id="edge74" class="edge"><title>Node31&#45;&gt;Node32</title>
<path fill="none" stroke="midnightblue" d="M2478.26,-1041.06C2462.53,-1027.1 2430.06,-1000.15 2398,-985 2132.89,-859.712 2045.37,-884.391 1760,-817 1703.13,-803.571 1637.32,-790.098 1593.64,-781.443"/>
<polygon fill="midnightblue" stroke="midnightblue" points="1594.07,-777.96 1583.58,-779.457 1592.71,-784.827 1594.07,-777.96"/>
</g>
<!-- Node43 -->
<g id="node43" class="node"><title>Node43</title>
<g id="a_node43"><a xlink:href="int__set_8h.html" target="_top" xlink:title="Integer set. ">
<polygon fill="white" stroke="black" points="2285,-985.5 2285,-1004.5 2389,-1004.5 2389,-985.5 2285,-985.5"/>
<text text-anchor="middle" x="2337" y="-992.5" font-family="Helvetica,sans-Serif" font-size="10.00">tvm/arith/int_set.h</text>
</a>
</g>
</g>
<!-- Node31&#45;&gt;Node43 -->
<g id="edge133" class="edge"><title>Node31&#45;&gt;Node43</title>
<path fill="none" stroke="midnightblue" d="M2464.07,-1041.44C2438.78,-1032.4 2398.7,-1018.06 2370.32,-1007.92"/>
<polygon fill="midnightblue" stroke="midnightblue" points="2371.41,-1004.59 2360.81,-1004.52 2369.05,-1011.18 2371.41,-1004.59"/>
</g>
<!-- Node31&#45;&gt;Node44 -->
<g id="edge159" class="edge"><title>Node31&#45;&gt;Node44</title>
<path fill="none" stroke="midnightblue" d="M2442.27,-1041.46C2333.89,-1021.22 2062.05,-970.452 1949.26,-949.387"/>
<polygon fill="midnightblue" stroke="midnightblue" points="1949.65,-945.898 1939.18,-947.503 1948.36,-952.779 1949.65,-945.898"/>
</g>
<!-- Node47 -->
<g id="node47" class="node"><title>Node47</title>
<g id="a_node47"><a xlink:href="stmt_8h.html" target="_top" xlink:title="TIR statements. ">
<polygon fill="white" stroke="black" points="2446.5,-985.5 2446.5,-1004.5 2529.5,-1004.5 2529.5,-985.5 2446.5,-985.5"/>
<text text-anchor="middle" x="2488" y="-992.5" font-family="Helvetica,sans-Serif" font-size="10.00">tvm/tir/stmt.h</text>
</a>
</g>
</g>
<!-- Node31&#45;&gt;Node47 -->
<g id="edge160" class="edge"><title>Node31&#45;&gt;Node47</title>
<path fill="none" stroke="midnightblue" d="M2488,-1041.08C2488,-1034.01 2488,-1023.86 2488,-1014.99"/>
<polygon fill="midnightblue" stroke="midnightblue" points="2491.5,-1014.75 2488,-1004.75 2484.5,-1014.75 2491.5,-1014.75"/>
</g>
<!-- Node32&#45;&gt;Node2 -->
<g id="edge117" class="edge"><title>Node32&#45;&gt;Node2</title>
<path fill="none" stroke="midnightblue" d="M1583.77,-766.108C1629.79,-760.632 1708.32,-748.57 1772,-725 1958.74,-655.877 2009.99,-631.94 2160,-501 2180.29,-483.288 2199.41,-458.681 2211.15,-442.32"/>
<polygon fill="midnightblue" stroke="midnightblue" points="2214.28,-443.949 2217.16,-433.753 2208.55,-439.928 2214.28,-443.949"/>
</g>
<!-- Node32&#45;&gt;Node3 -->
<g id="edge75" class="edge"><title>Node32&#45;&gt;Node3</title>
<path fill="none" stroke="midnightblue" d="M1583.57,-767.242C1644.95,-760.526 1758,-737.62 1758,-660 1758,-660 1758,-660 1758,-602 1758,-433.735 1174.93,-397.22 1085,-255 1043.83,-189.886 1161.66,-157.507 1242.29,-143.364"/>
<polygon fill="midnightblue" stroke="midnightblue" points="1243.15,-146.77 1252.42,-141.648 1241.98,-139.868 1243.15,-146.77"/>
</g>
<!-- Node32&#45;&gt;Node9 -->
<g id="edge132" class="edge"><title>Node32&#45;&gt;Node9</title>
<path fill="none" stroke="midnightblue" d="M1583.57,-770.337C1750.34,-769.547 2415.37,-742.888 2734,-378 2793.4,-309.981 2832.43,-248.688 2775,-179 2711.09,-101.451 2390.73,-79.6313 2272.19,-74.16"/>
<polygon fill="midnightblue" stroke="midnightblue" points="2272.17,-70.6556 2262.02,-73.7082 2271.86,-77.6487 2272.17,-70.6556"/>
</g>
<!-- Node32&#45;&gt;Node10 -->
<g id="edge129" class="edge"><title>Node32&#45;&gt;Node10</title>
<path fill="none" stroke="midnightblue" d="M1506.47,-770.285C1359.53,-771.021 834.577,-770.349 675,-725 436.223,-657.143 304,-555.732 304,-307.5 304,-307.5 304,-307.5 304,-188 304,-134.575 365.935,-100.279 405.275,-83.8839"/>
<polygon fill="midnightblue" stroke="midnightblue" points="406.753,-87.0627 414.739,-80.1005 404.154,-80.5629 406.753,-87.0627"/>
</g>
<!-- Node32&#45;&gt;Node27 -->
<g id="edge131" class="edge"><title>Node32&#45;&gt;Node27</title>
<path fill="none" stroke="midnightblue" d="M1506.45,-769.891C1344.11,-769.188 715.675,-763.953 522,-725 486.709,-717.902 396.081,-693.811 370,-669 284.589,-587.75 266,-542.884 266,-425 266,-425 266,-425 266,-367 266,-330.745 261.042,-288.631 257.783,-264.867"/>
<polygon fill="midnightblue" stroke="midnightblue" points="261.222,-264.189 256.349,-254.781 254.291,-265.174 261.222,-264.189"/>
</g>
<!-- Node33 -->
<g id="node33" class="node"><title>Node33</title>
<g id="a_node33"><a xlink:href="node_8h.html" target="_top" xlink:title="Definitions and helper macros for IR/AST nodes. ">
<polygon fill="white" stroke="black" points="1427,-593.5 1427,-612.5 1525,-612.5 1525,-593.5 1427,-593.5"/>
<text text-anchor="middle" x="1476" y="-600.5" font-family="Helvetica,sans-Serif" font-size="10.00">tvm/node/node.h</text>
</a>
</g>
</g>
<!-- Node32&#45;&gt;Node33 -->
<g id="edge76" class="edge"><title>Node32&#45;&gt;Node33</title>
<path fill="none" stroke="midnightblue" d="M1541.29,-761.075C1530.38,-734.832 1498.26,-657.545 1483.53,-622.117"/>
<polygon fill="midnightblue" stroke="midnightblue" points="1486.63,-620.459 1479.56,-612.568 1480.17,-623.146 1486.63,-620.459"/>
</g>
<!-- Node40 -->
<g id="node40" class="node"><title>Node40</title>
<g id="a_node40"><a xlink:href="span_8h.html" target="_top" xlink:title="Span information for debugging purposes. ">
<polygon fill="white" stroke="black" points="798,-649.5 798,-668.5 878,-668.5 878,-649.5 798,-649.5"/>
<text text-anchor="middle" x="838" y="-656.5" font-family="Helvetica,sans-Serif" font-size="10.00">tvm/ir/span.h</text>
</a>
</g>
</g>
<!-- Node32&#45;&gt;Node40 -->
<g id="edge118" class="edge"><title>Node32&#45;&gt;Node40</title>
<path fill="none" stroke="midnightblue" d="M1506.49,-764.008C1386.99,-745.416 1022.52,-688.709 888.308,-667.827"/>
<polygon fill="midnightblue" stroke="midnightblue" points="888.714,-664.348 878.295,-666.269 887.638,-671.265 888.714,-664.348"/>
</g>
<!-- Node41 -->
<g id="node41" class="node"><title>Node41</title>
<g id="a_node41"><a xlink:href="ir_2type_8h.html" target="_top" xlink:title="IR/AST nodes for the unified type system in TVM. ">
<polygon fill="white" stroke="black" points="684.5,-705.5 684.5,-724.5 761.5,-724.5 761.5,-705.5 684.5,-705.5"/>
<text text-anchor="middle" x="723" y="-712.5" font-family="Helvetica,sans-Serif" font-size="10.00">tvm/ir/type.h</text>
</a>
</g>
</g>
<!-- Node32&#45;&gt;Node41 -->
<g id="edge122" class="edge"><title>Node32&#45;&gt;Node41</title>
<path fill="none" stroke="midnightblue" d="M1506.46,-767.468C1371.77,-758.62 922.236,-729.089 772.213,-719.233"/>
<polygon fill="midnightblue" stroke="midnightblue" points="772.146,-715.721 761.938,-718.558 771.687,-722.706 772.146,-715.721"/>
</g>
<!-- Node42 -->
<g id="node42" class="node"><title>Node42</title>
<polygon fill="white" stroke="#bfbfbf" points="256,-705.5 256,-724.5 318,-724.5 318,-705.5 256,-705.5"/>
<text text-anchor="middle" x="287" y="-712.5" font-family="Helvetica,sans-Serif" font-size="10.00">algorithm</text>
</g>
<!-- Node32&#45;&gt;Node42 -->
<g id="edge130" class="edge"><title>Node32&#45;&gt;Node42</title>
<path fill="none" stroke="midnightblue" d="M1506.46,-768.411C1368.13,-762.698 883.689,-742.606 484,-725 430.152,-722.628 368.031,-719.77 328.177,-717.92"/>
<polygon fill="midnightblue" stroke="midnightblue" points="328.2,-714.418 318.048,-717.45 327.875,-721.41 328.2,-714.418"/>
</g>
<!-- Node33&#45;&gt;Node2 -->
<g id="edge110" class="edge"><title>Node33&#45;&gt;Node2</title>
<path fill="none" stroke="midnightblue" d="M1525.45,-599.777C1649.27,-593.935 1965.84,-577.197 2009,-557 2058.24,-533.955 2049.07,-499.093 2095,-470 2119.51,-454.477 2150.06,-443.475 2175.16,-436.237"/>
<polygon fill="midnightblue" stroke="midnightblue" points="2176.15,-439.597 2184.85,-433.552 2174.28,-432.851 2176.15,-439.597"/>
</g>
<!-- Node33&#45;&gt;Node3 -->
<g id="edge79" class="edge"><title>Node33&#45;&gt;Node3</title>
<path fill="none" stroke="midnightblue" d="M1426.99,-599.526C1274.62,-590.599 815.24,-553.953 746,-434 682.505,-324 759.61,-232.072 875,-179 938.561,-149.766 1135.75,-139.312 1241.82,-135.742"/>
<polygon fill="midnightblue" stroke="midnightblue" points="1242.22,-139.23 1252.1,-135.407 1241.99,-132.234 1242.22,-139.23"/>
</g>
<!-- Node33&#45;&gt;Node5 -->
<g id="edge77" class="edge"><title>Node33&#45;&gt;Node5</title>
<path fill="none" stroke="midnightblue" d="M1426.84,-600.855C1285.66,-596.659 882.564,-578.048 780,-501 727.272,-461.39 716.288,-441.065 697,-378 657.52,-248.913 744.407,-189.289 862,-123 924.886,-87.5502 1007.34,-76.1693 1066.08,-72.8997"/>
<polygon fill="midnightblue" stroke="midnightblue" points="1066.58,-76.3796 1076.4,-72.395 1066.24,-69.388 1066.58,-76.3796"/>
</g>
<!-- Node33&#45;&gt;Node9 -->
<g id="edge116" class="edge"><title>Node33&#45;&gt;Node9</title>
<path fill="none" stroke="midnightblue" d="M1525.08,-600.033C1596.34,-594.252 1720,-571.916 1720,-486.5 1720,-486.5 1720,-486.5 1720,-423 1720,-355.743 1739.52,-330.435 1794,-291 1861.5,-242.142 1902.97,-291.244 1978,-255 2024.84,-232.376 2025.45,-210.296 2067,-179 2114.51,-143.213 2173.53,-105.859 2205.26,-86.311"/>
<polygon fill="midnightblue" stroke="midnightblue" points="2207.13,-89.272 2213.82,-81.0614 2203.47,-83.3042 2207.13,-89.272"/>
</g>
<!-- Node33&#45;&gt;Node10 -->
<g id="edge113" class="edge"><title>Node33&#45;&gt;Node10</title>
<path fill="none" stroke="midnightblue" d="M1426.78,-601.808C1266.14,-600.324 759.899,-588.644 627,-501 497.497,-415.595 492.843,-348.656 452,-199 445.298,-174.444 443.219,-168.25 440,-143 437.775,-125.548 437.102,-105.491 436.94,-91.2428"/>
<polygon fill="midnightblue" stroke="midnightblue" points="440.44,-91.2084 436.9,-81.2226 433.44,-91.2366 440.44,-91.2084"/>
</g>
<!-- Node33&#45;&gt;Node11 -->
<g id="edge115" class="edge"><title>Node33&#45;&gt;Node11</title>
<path fill="none" stroke="midnightblue" d="M1525.16,-601.538C1630.17,-599.87 1883.82,-592.198 2093,-557 2188.26,-540.972 2212.13,-533.753 2303,-501 2543.31,-414.387 2723.17,-444.992 2792,-199 2801.51,-165.015 2795.12,-146.727 2769,-123 2731.04,-88.5242 2670.26,-77.5615 2633.44,-74.0904"/>
<polygon fill="midnightblue" stroke="midnightblue" points="2633.53,-70.5864 2623.28,-73.2661 2632.96,-77.5635 2633.53,-70.5864"/>
</g>
<!-- Node33&#45;&gt;Node13 -->
<g id="edge80" class="edge"><title>Node33&#45;&gt;Node13</title>
<path fill="none" stroke="midnightblue" d="M1525.01,-600.113C1643.22,-595.235 1941.31,-580.892 2038,-557 2234.19,-508.52 2300.08,-506.579 2456,-378 2510,-333.465 2565.79,-289.613 2522,-235 2505.91,-214.929 2444.61,-203.231 2393.72,-196.82"/>
<polygon fill="midnightblue" stroke="midnightblue" points="2394.04,-193.334 2383.69,-195.608 2393.2,-200.283 2394.04,-193.334"/>
</g>
<!-- Node33&#45;&gt;Node19 -->
<g id="edge114" class="edge"><title>Node33&#45;&gt;Node19</title>
<path fill="none" stroke="midnightblue" d="M1525.35,-598.044C1631.51,-588.176 1872,-557.936 1872,-486.5 1872,-486.5 1872,-486.5 1872,-367 1872,-276.149 1974.42,-314.589 2043,-255 2059.91,-240.303 2076.49,-220.641 2087.36,-206.804"/>
<polygon fill="midnightblue" stroke="midnightblue" points="2090.3,-208.721 2093.63,-198.662 2084.76,-204.449 2090.3,-208.721"/>
</g>
<!-- Node33&#45;&gt;Node28 -->
<g id="edge78" class="edge"><title>Node33&#45;&gt;Node28</title>
<path fill="none" stroke="midnightblue" d="M1525.19,-599.995C1619.41,-595.601 1821.73,-583.34 1886,-557 1984.29,-516.717 2075.47,-423.171 2109.7,-385.327"/>
<polygon fill="midnightblue" stroke="midnightblue" points="2112.43,-387.535 2116.47,-377.743 2107.2,-382.873 2112.43,-387.535"/>
</g>
<!-- Node34 -->
<g id="node34" class="node"><title>Node34</title>
<g id="a_node34"><a xlink:href="reflection_8h.html" target="_top" xlink:title="Reflection and serialization of compiler IR/AST nodes. ">
<polygon fill="white" stroke="black" points="1328.5,-537.5 1328.5,-556.5 1447.5,-556.5 1447.5,-537.5 1328.5,-537.5"/>
<text text-anchor="middle" x="1388" y="-544.5" font-family="Helvetica,sans-Serif" font-size="10.00">tvm/node/reflection.h</text>
</a>
</g>
</g>
<!-- Node33&#45;&gt;Node34 -->
<g id="edge81" class="edge"><title>Node33&#45;&gt;Node34</title>
<path fill="none" stroke="midnightblue" d="M1461.86,-593.324C1448.13,-584.9 1427.06,-571.971 1410.94,-562.074"/>
<polygon fill="midnightblue" stroke="midnightblue" points="1412.46,-558.902 1402.1,-556.655 1408.8,-564.868 1412.46,-558.902"/>
</g>
<!-- Node35 -->
<g id="node35" class="node"><title>Node35</title>
<g id="a_node35"><a xlink:href="structural__equal_8h.html" target="_top" xlink:title="Structural equality comparison. ">
<polygon fill="white" stroke="black" points="1418.5,-470.5 1418.5,-500.5 1529.5,-500.5 1529.5,-470.5 1418.5,-470.5"/>
<text text-anchor="start" x="1426.5" y="-488.5" font-family="Helvetica,sans-Serif" font-size="10.00">tvm/node/structural</text>
<text text-anchor="middle" x="1474" y="-477.5" font-family="Helvetica,sans-Serif" font-size="10.00">_equal.h</text>
</a>
</g>
</g>
<!-- Node33&#45;&gt;Node35 -->
<g id="edge111" class="edge"><title>Node33&#45;&gt;Node35</title>
<path fill="none" stroke="midnightblue" d="M1475.85,-593.319C1475.55,-575.967 1474.87,-536.457 1474.42,-510.658"/>
<polygon fill="midnightblue" stroke="midnightblue" points="1477.92,-510.483 1474.24,-500.545 1470.92,-510.604 1477.92,-510.483"/>
</g>
<!-- Node37 -->
<g id="node37" class="node"><title>Node37</title>
<g id="a_node37"><a xlink:href="structural__hash_8h.html" target="_top" xlink:title="tvm/node/structural\l_hash.h">
<polygon fill="white" stroke="black" points="1096.5,-470.5 1096.5,-500.5 1207.5,-500.5 1207.5,-470.5 1096.5,-470.5"/>
<text text-anchor="start" x="1104.5" y="-488.5" font-family="Helvetica,sans-Serif" font-size="10.00">tvm/node/structural</text>
<text text-anchor="middle" x="1152" y="-477.5" font-family="Helvetica,sans-Serif" font-size="10.00">_hash.h</text>
</a>
</g>
</g>
<!-- Node33&#45;&gt;Node37 -->
<g id="edge112" class="edge"><title>Node33&#45;&gt;Node37</title>
<path fill="none" stroke="midnightblue" d="M1426.86,-601.12C1350.41,-598.729 1207.94,-589.862 1171,-557 1158.2,-545.61 1153.62,-526.59 1152.15,-511.174"/>
<polygon fill="midnightblue" stroke="midnightblue" points="1155.62,-510.531 1151.55,-500.747 1148.63,-510.93 1155.62,-510.531"/>
</g>
<!-- Node38 -->
<g id="node38" class="node"><title>Node38</title>
<g id="a_node38"><a xlink:href="repr__printer_8h.html" target="_top" xlink:title="Printer class to print repr string of each AST/IR nodes. ">
<polygon fill="white" stroke="black" points="1180,-537.5 1180,-556.5 1310,-556.5 1310,-537.5 1180,-537.5"/>
<text text-anchor="middle" x="1245" y="-544.5" font-family="Helvetica,sans-Serif" font-size="10.00">tvm/node/repr_printer.h</text>
</a>
</g>
</g>
<!-- Node33&#45;&gt;Node38 -->
<g id="edge107" class="edge"><title>Node33&#45;&gt;Node38</title>
<path fill="none" stroke="midnightblue" d="M1439.4,-593.444C1399.27,-584.063 1334.8,-568.993 1291.22,-558.804"/>
<polygon fill="midnightblue" stroke="midnightblue" points="1291.97,-555.385 1281.43,-556.516 1290.37,-562.201 1291.97,-555.385"/>
</g>
<!-- Node34&#45;&gt;Node3 -->
<g id="edge83" class="edge"><title>Node34&#45;&gt;Node3</title>
<path fill="none" stroke="midnightblue" d="M1328.17,-538.118C1325.07,-537.734 1322,-537.359 1319,-537 1245.75,-528.229 1054.53,-534.879 989,-501 871.614,-440.31 850.879,-383.952 822,-255 820.057,-246.326 816.515,-241.995 822,-235 873.052,-169.892 1119.84,-145.724 1242.09,-137.642"/>
<polygon fill="midnightblue" stroke="midnightblue" points="1242.34,-141.133 1252.1,-136.998 1241.89,-134.148 1242.34,-141.133"/>
</g>
<!-- Node34&#45;&gt;Node5 -->
<g id="edge82" class="edge"><title>Node34&#45;&gt;Node5</title>
<path fill="none" stroke="midnightblue" d="M1328.18,-538.061C1325.07,-537.692 1322,-537.336 1319,-537 1233.6,-527.441 1010.24,-540.646 934,-501 874.594,-470.106 874.145,-439.21 847,-378 800.376,-272.867 795.266,-186.732 891,-123 942.892,-88.4547 1013.38,-76.6607 1066.11,-73.0262"/>
<polygon fill="midnightblue" stroke="midnightblue" points="1066.64,-76.5007 1076.41,-72.4037 1066.22,-69.5134 1066.64,-76.5007"/>
</g>
<!-- Node34&#45;&gt;Node9 -->
<g id="edge106" class="edge"><title>Node34&#45;&gt;Node9</title>
<path fill="none" stroke="midnightblue" d="M1435.03,-537.425C1474.51,-529.663 1532.12,-517.004 1581,-501 1773.45,-437.991 1823.68,-421.597 2000,-322 2020.51,-310.413 2021.52,-300.685 2043,-291 2109.05,-261.214 2152.89,-308.27 2202,-255 2244.09,-209.352 2237.32,-128.08 2231.57,-91.394"/>
<polygon fill="midnightblue" stroke="midnightblue" points="2234.95,-90.4107 2229.8,-81.1512 2228.05,-91.6006 2234.95,-90.4107"/>
</g>
<!-- Node34&#45;&gt;Node10 -->
<g id="edge105" class="edge"><title>Node34&#45;&gt;Node10</title>
<path fill="none" stroke="midnightblue" d="M1328.18,-538.026C1325.08,-537.666 1322,-537.321 1319,-537 1128.31,-516.592 1076.21,-542.604 889,-501 734.984,-466.773 668.541,-488.576 556,-378 471.259,-294.739 445.596,-144.176 439.007,-91.396"/>
<polygon fill="midnightblue" stroke="midnightblue" points="442.45,-90.7007 437.822,-81.1701 435.496,-91.5066 442.45,-90.7007"/>
</g>
<!-- Node34&#45;&gt;Node13 -->
<g id="edge84" class="edge"><title>Node34&#45;&gt;Node13</title>
<path fill="none" stroke="midnightblue" d="M1447.53,-544.714C1535.9,-541.788 1706.57,-532.224 1848,-501 1906.64,-488.053 2323.3,-371.014 2358,-322 2383.39,-286.135 2352.54,-233.508 2333.26,-206.834"/>
<polygon fill="midnightblue" stroke="midnightblue" points="2335.84,-204.441 2327.03,-198.551 2330.24,-208.647 2335.84,-204.441"/>
</g>
<!-- Node34&#45;&gt;Node15 -->
<g id="edge85" class="edge"><title>Node34&#45;&gt;Node15</title>
<path fill="none" stroke="midnightblue" d="M1388.04,-537.229C1388.18,-503.875 1388.68,-384.194 1388.9,-332.061"/>
<polygon fill="midnightblue" stroke="midnightblue" points="1392.4,-331.751 1388.94,-321.737 1385.4,-331.722 1392.4,-331.751"/>
</g>
<!-- Node34&#45;&gt;Node19 -->
<g id="edge104" class="edge"><title>Node34&#45;&gt;Node19</title>
<path fill="none" stroke="midnightblue" d="M1427.67,-537.426C1458.59,-529.962 1502.14,-517.71 1538,-501 1692.19,-429.142 1701.66,-358.059 1858,-291 1922.6,-263.292 1948.19,-284.488 2012,-255 2039.31,-242.379 2066.51,-220.493 2083.29,-205.639"/>
<polygon fill="midnightblue" stroke="midnightblue" points="2085.99,-207.907 2091.05,-198.598 2081.29,-202.721 2085.99,-207.907"/>
</g>
<!-- Node34&#45;&gt;Node21 -->
<g id="edge86" class="edge"><title>Node34&#45;&gt;Node21</title>
<path fill="none" stroke="midnightblue" d="M1381.37,-537.093C1356.97,-503.139 1275.94,-379.295 1323,-291 1330.55,-276.834 1344.76,-266.335 1358.16,-259.058"/>
<polygon fill="midnightblue" stroke="midnightblue" points="1359.83,-262.133 1367.21,-254.529 1356.7,-255.872 1359.83,-262.133"/>
</g>
<!-- Node34&#45;&gt;Node24 -->
<g id="edge87" class="edge"><title>Node34&#45;&gt;Node24</title>
<path fill="none" stroke="midnightblue" d="M1328.16,-537.718C1243.62,-525.92 1098.16,-505.23 1087,-501 1029.02,-479.026 970,-487.008 970,-425 970,-425 970,-425 970,-367 970,-328.812 952.558,-286.83 941.308,-263.722"/>
<polygon fill="midnightblue" stroke="midnightblue" points="944.291,-261.865 936.66,-254.515 938.042,-265.02 944.291,-261.865"/>
</g>
<!-- Node34&#45;&gt;Node35 -->
<g id="edge88" class="edge"><title>Node34&#45;&gt;Node35</title>
<path fill="none" stroke="midnightblue" d="M1400.32,-537.475C1411.97,-529.417 1429.88,-517.023 1445.13,-506.474"/>
<polygon fill="midnightblue" stroke="midnightblue" points="1447.5,-509.091 1453.73,-500.523 1443.52,-503.334 1447.5,-509.091"/>
</g>
<!-- Node34&#45;&gt;Node37 -->
<g id="edge98" class="edge"><title>Node34&#45;&gt;Node37</title>
<path fill="none" stroke="midnightblue" d="M1354.19,-537.475C1318.64,-528.513 1261.82,-514.188 1217.46,-503.003"/>
<polygon fill="midnightblue" stroke="midnightblue" points="1218.17,-499.574 1207.62,-500.523 1216.46,-506.362 1218.17,-499.574"/>
</g>
<!-- Node35&#45;&gt;Node2 -->
<g id="edge96" class="edge"><title>Node35&#45;&gt;Node2</title>
<path fill="none" stroke="midnightblue" d="M1529.68,-480.076C1663.94,-469.411 2005.26,-442.297 2153.03,-430.558"/>
<polygon fill="midnightblue" stroke="midnightblue" points="2153.64,-434.021 2163.33,-429.74 2153.08,-427.043 2153.64,-434.021"/>
</g>
<!-- Node35&#45;&gt;Node10 -->
<g id="edge97" class="edge"><title>Node35&#45;&gt;Node10</title>
<path fill="none" stroke="midnightblue" d="M1428.38,-470.449C1396.31,-460.488 1352.45,-446.69 1314,-434 1085.48,-358.576 1026.68,-343.734 803,-255 744.902,-231.953 731.15,-224.308 674,-199 618.708,-174.515 603.327,-171.512 550,-143 516.844,-125.272 480.22,-101.624 457.91,-86.7267"/>
<polygon fill="midnightblue" stroke="midnightblue" points="459.801,-83.7809 449.549,-81.1061 455.895,-89.5901 459.801,-83.7809"/>
</g>
<!-- Node35&#45;&gt;Node24 -->
<g id="edge89" class="edge"><title>Node35&#45;&gt;Node24</title>
<path fill="none" stroke="midnightblue" d="M1442.12,-470.471C1345.02,-427.744 1053.91,-299.645 960.904,-258.719"/>
<polygon fill="midnightblue" stroke="midnightblue" points="962.108,-255.425 951.545,-254.601 959.289,-261.832 962.108,-255.425"/>
</g>
<!-- Node36 -->
<g id="node36" class="node"><title>Node36</title>
<g id="a_node36"><a xlink:href="functor_8h.html" target="_top" xlink:title="Defines the Functor data structures. ">
<polygon fill="white" stroke="black" points="1862.5,-235.5 1862.5,-254.5 1969.5,-254.5 1969.5,-235.5 1862.5,-235.5"/>
<text text-anchor="middle" x="1916" y="-242.5" font-family="Helvetica,sans-Serif" font-size="10.00">tvm/node/functor.h</text>
</a>
</g>
</g>
<!-- Node35&#45;&gt;Node36 -->
<g id="edge90" class="edge"><title>Node35&#45;&gt;Node36</title>
<path fill="none" stroke="midnightblue" d="M1487.79,-470.291C1523.46,-434.39 1623.14,-339.459 1725,-291 1765.1,-271.922 1813.88,-260.605 1852.11,-254.092"/>
<polygon fill="midnightblue" stroke="midnightblue" points="1852.79,-257.528 1862.09,-252.459 1851.66,-250.62 1852.79,-257.528"/>
</g>
<!-- Node36&#45;&gt;Node3 -->
<g id="edge92" class="edge"><title>Node36&#45;&gt;Node3</title>
<path fill="none" stroke="midnightblue" d="M1862.19,-236.799C1857.39,-236.181 1852.61,-235.573 1848,-235 1710.8,-217.929 1674.59,-226.042 1539,-199 1502.42,-191.706 1403.38,-162.166 1348.64,-145.531"/>
<polygon fill="midnightblue" stroke="midnightblue" points="1349.54,-142.148 1338.95,-142.584 1347.5,-148.845 1349.54,-142.148"/>
</g>
<!-- Node36&#45;&gt;Node4 -->
<g id="edge91" class="edge"><title>Node36&#45;&gt;Node4</title>
<path fill="none" stroke="midnightblue" d="M1913.04,-235.26C1904.01,-208.536 1876.61,-127.517 1864.21,-90.8618"/>
<polygon fill="midnightblue" stroke="midnightblue" points="1867.4,-89.371 1860.88,-81.0194 1860.77,-91.6136 1867.4,-89.371"/>
</g>
<!-- Node36&#45;&gt;Node9 -->
<g id="edge94" class="edge"><title>Node36&#45;&gt;Node9</title>
<path fill="none" stroke="midnightblue" d="M1921.76,-235.431C1937.18,-213.211 1981.73,-153.364 2034,-123 2081.02,-95.6815 2142.92,-82.8979 2184.01,-77.0834"/>
<polygon fill="midnightblue" stroke="midnightblue" points="2184.54,-80.5439 2193.99,-75.7507 2183.62,-73.6055 2184.54,-80.5439"/>
</g>
<!-- Node36&#45;&gt;Node11 -->
<g id="edge95" class="edge"><title>Node36&#45;&gt;Node11</title>
<path fill="none" stroke="midnightblue" d="M1934.34,-235.361C1962.51,-222.265 2018.28,-197.009 2067,-179 2145.59,-149.952 2165.26,-141.403 2247,-123 2365.02,-96.4268 2508.43,-81.097 2570.67,-75.2535"/>
<polygon fill="midnightblue" stroke="midnightblue" points="2571.34,-78.7063 2580.98,-74.3031 2570.7,-71.7358 2571.34,-78.7063"/>
</g>
<!-- Node36&#45;&gt;Node19 -->
<g id="edge93" class="edge"><title>Node36&#45;&gt;Node19</title>
<path fill="none" stroke="midnightblue" d="M1945.16,-235.444C1978.17,-225.753 2031.88,-209.992 2066.57,-199.811"/>
<polygon fill="midnightblue" stroke="midnightblue" points="2067.64,-203.145 2076.25,-196.971 2065.67,-196.429 2067.64,-203.145"/>
</g>
<!-- Node37&#45;&gt;Node2 -->
<g id="edge101" class="edge"><title>Node37&#45;&gt;Node2</title>
<path fill="none" stroke="midnightblue" d="M1207.65,-481.342C1259.7,-478.393 1339.62,-473.875 1409,-470 1684.39,-454.619 2012.19,-436.579 2153.04,-428.841"/>
<polygon fill="midnightblue" stroke="midnightblue" points="2153.46,-432.323 2163.26,-428.28 2153.08,-425.333 2153.46,-432.323"/>
</g>
<!-- Node37&#45;&gt;Node10 -->
<g id="edge102" class="edge"><title>Node37&#45;&gt;Node10</title>
<path fill="none" stroke="midnightblue" d="M1096.43,-476.796C996.792,-460.977 783.96,-417.933 632,-322 600.487,-302.105 540.713,-228.547 518,-199 493.652,-167.326 491.594,-156.612 470,-123 462.793,-111.782 454.592,-99.2319 448.169,-89.4492"/>
<polygon fill="midnightblue" stroke="midnightblue" points="451.065,-87.4832 442.646,-81.0517 445.217,-91.3299 451.065,-87.4832"/>
</g>
<!-- Node37&#45;&gt;Node24 -->
<g id="edge99" class="edge"><title>Node37&#45;&gt;Node24</title>
<path fill="none" stroke="midnightblue" d="M1140.83,-470.292C1114.76,-437.435 1047.28,-354.18 984,-291 973.439,-280.456 960.794,-269.48 950.617,-261.008"/>
<polygon fill="midnightblue" stroke="midnightblue" points="952.699,-258.188 942.75,-254.545 948.255,-263.597 952.699,-258.188"/>
</g>
<!-- Node37&#45;&gt;Node25 -->
<g id="edge103" class="edge"><title>Node37&#45;&gt;Node25</title>
<path fill="none" stroke="midnightblue" d="M1150.27,-470.356C1149.05,-460.235 1147.38,-446.283 1146,-434 1139.04,-372.145 1131.41,-298.765 1127.93,-264.879"/>
<polygon fill="midnightblue" stroke="midnightblue" points="1131.38,-264.215 1126.88,-254.624 1124.42,-264.929 1131.38,-264.215"/>
</g>
<!-- Node37&#45;&gt;Node36 -->
<g id="edge100" class="edge"><title>Node37&#45;&gt;Node36</title>
<path fill="none" stroke="midnightblue" d="M1180.96,-470.38C1235.51,-443.462 1356.77,-382.112 1454,-322 1474.35,-309.421 1475.62,-299.438 1498,-291 1506.19,-287.911 1737.12,-264.153 1852.15,-252.46"/>
<polygon fill="midnightblue" stroke="midnightblue" points="1852.64,-255.928 1862.24,-251.435 1851.93,-248.964 1852.64,-255.928"/>
</g>
<!-- Node38&#45;&gt;Node36 -->
<g id="edge108" class="edge"><title>Node38&#45;&gt;Node36</title>
<path fill="none" stroke="midnightblue" d="M1255.95,-537.254C1302.43,-500.601 1489.23,-358.152 1667,-291 1700.09,-278.501 1790.08,-263.92 1852.29,-254.823"/>
<polygon fill="midnightblue" stroke="midnightblue" points="1853.01,-258.255 1862.4,-253.356 1852.01,-251.327 1853.01,-258.255"/>
</g>
<!-- Node39 -->
<g id="node39" class="node"><title>Node39</title>
<polygon fill="white" stroke="#bfbfbf" points="636.5,-476 636.5,-495 695.5,-495 695.5,-476 636.5,-476"/>
<text text-anchor="middle" x="666" y="-483" font-family="Helvetica,sans-Serif" font-size="10.00">iostream</text>
</g>
<!-- Node38&#45;&gt;Node39 -->
<g id="edge109" class="edge"><title>Node38&#45;&gt;Node39</title>
<path fill="none" stroke="midnightblue" d="M1179.66,-545.414C1078.15,-543.406 876.907,-535.03 710,-501 706.121,-500.209 702.107,-499.186 698.154,-498.05"/>
<polygon fill="midnightblue" stroke="midnightblue" points="699.151,-494.695 688.562,-495.06 697.067,-501.378 699.151,-494.695"/>
</g>
<!-- Node40&#45;&gt;Node3 -->
<g id="edge119" class="edge"><title>Node40&#45;&gt;Node3</title>
<path fill="none" stroke="midnightblue" d="M838.279,-649.257C840.21,-589.135 851.589,-239.153 855,-235 879.689,-204.936 1123.61,-163.189 1244.21,-144.169"/>
<polygon fill="midnightblue" stroke="midnightblue" points="1245.09,-147.573 1254.43,-142.565 1244.01,-140.658 1245.09,-147.573"/>
</g>
<!-- Node40&#45;&gt;Node10 -->
<g id="edge121" class="edge"><title>Node40&#45;&gt;Node10</title>
<path fill="none" stroke="midnightblue" d="M819.56,-649.383C775.45,-628.226 661.597,-570.36 582,-501 552.954,-475.69 548.641,-465.873 527,-434 450.806,-321.779 444.616,-278.302 435,-143 433.753,-125.46 434.535,-105.413 435.461,-91.1918"/>
<polygon fill="midnightblue" stroke="midnightblue" points="438.953,-91.4251 436.199,-81.1946 431.972,-90.9097 438.953,-91.4251"/>
</g>
<!-- Node40&#45;&gt;Node33 -->
<g id="edge120" class="edge"><title>Node40&#45;&gt;Node33</title>
<path fill="none" stroke="midnightblue" d="M878.394,-654.581C987.472,-645.349 1288.38,-619.88 1416.74,-609.016"/>
<polygon fill="midnightblue" stroke="midnightblue" points="1417.11,-612.497 1426.78,-608.166 1416.52,-605.522 1417.11,-612.497"/>
</g>
<!-- Node41&#45;&gt;Node2 -->
<g id="edge126" class="edge"><title>Node41&#45;&gt;Node2</title>
<path fill="none" stroke="midnightblue" d="M761.691,-711.979C952.659,-701.612 1795.25,-651.203 2038,-557 2074.42,-542.867 2165.19,-471.617 2204.44,-440.069"/>
<polygon fill="midnightblue" stroke="midnightblue" points="2206.83,-442.638 2212.41,-433.635 2202.43,-437.19 2206.83,-442.638"/>
</g>
<!-- Node41&#45;&gt;Node3 -->
<g id="edge123" class="edge"><title>Node41&#45;&gt;Node3</title>
<path fill="none" stroke="midnightblue" d="M684.322,-705.408C662.929,-698.793 637.429,-687.543 621,-669 525.898,-561.66 464.281,-482.76 535,-358 611.377,-223.259 686.823,-227.242 834,-179 907.967,-154.755 1128.73,-141.908 1242.11,-136.753"/>
<polygon fill="midnightblue" stroke="midnightblue" points="1242.58,-140.235 1252.41,-136.292 1242.27,-133.242 1242.58,-140.235"/>
</g>
<!-- Node41&#45;&gt;Node10 -->
<g id="edge128" class="edge"><title>Node41&#45;&gt;Node10</title>
<path fill="none" stroke="midnightblue" d="M684.384,-705.64C658.758,-698.769 625.312,-687.159 600,-669 547.312,-631.202 342,-422.768 342,-307.5 342,-307.5 342,-307.5 342,-188 342,-143.018 385.51,-106.021 413.639,-86.8025"/>
<polygon fill="midnightblue" stroke="midnightblue" points="415.725,-89.6196 422.156,-81.2 411.878,-83.7713 415.725,-89.6196"/>
</g>
<!-- Node41&#45;&gt;Node24 -->
<g id="edge124" class="edge"><title>Node41&#45;&gt;Node24</title>
<path fill="none" stroke="midnightblue" d="M702.174,-705.473C669.035,-690.358 608,-655.527 608,-604 608,-604 608,-604 608,-546 608,-511.183 607.596,-498.909 627,-470 646.496,-440.955 844.661,-305.195 910.709,-260.389"/>
<polygon fill="midnightblue" stroke="midnightblue" points="912.804,-263.197 919.12,-254.691 908.878,-257.402 912.804,-263.197"/>
</g>
<!-- Node41&#45;&gt;Node33 -->
<g id="edge125" class="edge"><title>Node41&#45;&gt;Node33</title>
<path fill="none" stroke="midnightblue" d="M761.637,-708.356C884.714,-690.376 1268.18,-634.359 1416.55,-612.685"/>
<polygon fill="midnightblue" stroke="midnightblue" points="1417.43,-616.094 1426.82,-611.185 1416.42,-609.167 1417.43,-616.094"/>
</g>
<!-- Node41&#45;&gt;Node40 -->
<g id="edge127" class="edge"><title>Node41&#45;&gt;Node40</title>
<path fill="none" stroke="midnightblue" d="M741.222,-705.444C759.896,-696.675 789.156,-682.935 810.617,-672.858"/>
<polygon fill="midnightblue" stroke="midnightblue" points="812.299,-675.935 819.863,-668.516 809.324,-669.599 812.299,-675.935"/>
</g>
<!-- Node43&#45;&gt;Node20 -->
<g id="edge158" class="edge"><title>Node43&#45;&gt;Node20</title>
<path fill="none" stroke="midnightblue" d="M2358.99,-985.498C2450.08,-948.699 2793,-793.838 2793,-548 2793,-548 2793,-548 2793,-484.5 2793,-377.214 2746.79,-254.231 2727.9,-208.436"/>
<polygon fill="midnightblue" stroke="midnightblue" points="2731.02,-206.824 2723.92,-198.958 2724.57,-209.534 2731.02,-206.824"/>
</g>
<!-- Node43&#45;&gt;Node32 -->
<g id="edge134" class="edge"><title>Node43&#45;&gt;Node32</title>
<path fill="none" stroke="midnightblue" d="M2306.44,-985.433C2183.44,-950.956 1724.56,-822.33 1585.31,-783.3"/>
<polygon fill="midnightblue" stroke="midnightblue" points="1586.04,-779.87 1575.47,-780.541 1584.16,-786.61 1586.04,-779.87"/>
</g>
<!-- Node43&#45;&gt;Node44 -->
<g id="edge135" class="edge"><title>Node43&#45;&gt;Node44</title>
<path fill="none" stroke="midnightblue" d="M2284.77,-986.804C2280.12,-986.185 2275.47,-985.576 2271,-985 2156,-970.204 2020.81,-954.198 1949.29,-945.839"/>
<polygon fill="midnightblue" stroke="midnightblue" points="1949.55,-942.345 1939.21,-944.662 1948.74,-949.298 1949.55,-942.345"/>
</g>
<!-- Node44&#45;&gt;Node2 -->
<g id="edge137" class="edge"><title>Node44&#45;&gt;Node2</title>
<path fill="none" stroke="midnightblue" d="M1939.28,-938.23C2019.34,-937.819 2194.44,-932.321 2237,-893 2333.48,-803.849 2299,-735.367 2299,-604 2299,-604 2299,-604 2299,-546 2299,-502.475 2263.3,-461.775 2240.84,-440.472"/>
<polygon fill="midnightblue" stroke="midnightblue" points="2242.99,-437.698 2233.25,-433.531 2238.27,-442.863 2242.99,-437.698"/>
</g>
<!-- Node44&#45;&gt;Node5 -->
<g id="edge139" class="edge"><title>Node44&#45;&gt;Node5</title>
<path fill="none" stroke="midnightblue" d="M1858.72,-937.626C1619,-935.306 388.005,-922.011 314,-893 278.811,-879.205 271.987,-867.743 250,-837 151.791,-699.678 244.952,-603.729 348,-470 445.718,-343.187 488.885,-325.421 621,-235 706.034,-176.802 726.561,-156.519 824,-123 904.163,-95.4242 1001.03,-82.7801 1066.21,-77.0647"/>
<polygon fill="midnightblue" stroke="midnightblue" points="1066.72,-80.5341 1076.39,-76.2056 1066.13,-73.5589 1066.72,-80.5341"/>
</g>
<!-- Node44&#45;&gt;Node10 -->
<g id="edge152" class="edge"><title>Node44&#45;&gt;Node10</title>
<path fill="none" stroke="midnightblue" d="M1858.68,-937.813C1610.18,-936.549 294.894,-928.212 218,-893 175.516,-873.545 76,-737.567 76,-716 76,-716 76,-716 76,-188 76,-141.842 114.993,-142.13 157,-123 240.691,-84.8863 350.741,-75.4999 404.549,-73.215"/>
<polygon fill="midnightblue" stroke="midnightblue" points="404.978,-76.7017 414.843,-72.8368 404.721,-69.7064 404.978,-76.7017"/>
</g>
<!-- Node44&#45;&gt;Node11 -->
<g id="edge157" class="edge"><title>Node44&#45;&gt;Node11</title>
<path fill="none" stroke="midnightblue" d="M1939.19,-935.952C2025.81,-931.125 2227.42,-917.551 2291,-893 2691.24,-738.46 2817.39,-602.934 2962,-199 2965,-190.631 2967.21,-186.202 2962,-179 2922.6,-124.545 2713.03,-88.7087 2633.05,-76.8348"/>
<polygon fill="midnightblue" stroke="midnightblue" points="2633.49,-73.3617 2623.09,-75.3808 2632.48,-80.2884 2633.49,-73.3617"/>
</g>
<!-- Node44&#45;&gt;Node20 -->
<g id="edge154" class="edge"><title>Node44&#45;&gt;Node20</title>
<path fill="none" stroke="midnightblue" d="M1939.1,-936.062C2020.97,-931.613 2204.38,-918.995 2261,-893 2312.83,-869.205 2641,-605.028 2641,-548 2641,-548 2641,-548 2641,-484.5 2641,-376.457 2691.22,-253.496 2711.58,-208.082"/>
<polygon fill="midnightblue" stroke="midnightblue" points="2714.79,-209.475 2715.75,-198.925 2708.42,-206.57 2714.79,-209.475"/>
</g>
<!-- Node44&#45;&gt;Node24 -->
<g id="edge140" class="edge"><title>Node44&#45;&gt;Node24</title>
<path fill="none" stroke="midnightblue" d="M1858.73,-937.91C1634.09,-936.461 539.039,-916.645 346,-669 177.886,-453.331 720.706,-298.302 885.839,-256.97"/>
<polygon fill="midnightblue" stroke="midnightblue" points="886.841,-260.327 895.705,-254.523 885.156,-253.533 886.841,-260.327"/>
</g>
<!-- Node44&#45;&gt;Node27 -->
<g id="edge156" class="edge"><title>Node44&#45;&gt;Node27</title>
<path fill="none" stroke="midnightblue" d="M1858.63,-937.935C1612.74,-937.408 324.603,-932.753 252,-893 172.749,-849.606 152,-806.353 152,-716 152,-716 152,-716 152,-546 152,-433.133 218.024,-308.693 244.35,-263.56"/>
<polygon fill="midnightblue" stroke="midnightblue" points="247.371,-265.328 249.462,-254.942 241.35,-261.757 247.371,-265.328"/>
</g>
<!-- Node44&#45;&gt;Node32 -->
<g id="edge141" class="edge"><title>Node44&#45;&gt;Node32</title>
<path fill="none" stroke="midnightblue" d="M1880.47,-929.309C1822.16,-901.968 1642.25,-817.601 1572.77,-785.023"/>
<polygon fill="midnightblue" stroke="midnightblue" points="1573.89,-781.682 1563.35,-780.605 1570.92,-788.02 1573.89,-781.682"/>
</g>
<!-- Node44&#45;&gt;Node33 -->
<g id="edge136" class="edge"><title>Node44&#45;&gt;Node33</title>
<path fill="none" stroke="midnightblue" d="M1939.49,-934.762C2000.51,-927.424 2109,-903.729 2109,-828 2109,-828 2109,-828 2109,-714 2109,-656.084 1692.37,-619.74 1535.12,-608.086"/>
<polygon fill="midnightblue" stroke="midnightblue" points="1535.37,-604.595 1525.14,-607.354 1534.86,-611.577 1535.37,-604.595"/>
</g>
<!-- Node44&#45;&gt;Node36 -->
<g id="edge138" class="edge"><title>Node44&#45;&gt;Node36</title>
<path fill="none" stroke="midnightblue" d="M1939.05,-932.995C2025.74,-921.043 2223,-887.329 2223,-828 2223,-828 2223,-828 2223,-714 2223,-483.956 1965.13,-537.637 1885,-322 1880.2,-309.085 1880.91,-304.156 1885,-291 1888.23,-280.622 1894.78,-270.521 1901.02,-262.527"/>
<polygon fill="midnightblue" stroke="midnightblue" points="1903.79,-264.682 1907.52,-254.766 1898.42,-260.19 1903.79,-264.682"/>
</g>
<!-- Node44&#45;&gt;Node39 -->
<g id="edge155" class="edge"><title>Node44&#45;&gt;Node39</title>
<path fill="none" stroke="midnightblue" d="M1858.97,-936.967C1616.77,-930.701 357.412,-897.896 349,-893 266.841,-845.183 197.714,-786.287 247,-705 291.38,-631.804 541.817,-532.754 632.89,-498.635"/>
<polygon fill="midnightblue" stroke="midnightblue" points="634.292,-501.848 642.441,-495.077 631.848,-495.288 634.292,-501.848"/>
</g>
<!-- Node44&#45;&gt;Node42 -->
<g id="edge153" class="edge"><title>Node44&#45;&gt;Node42</title>
<path fill="none" stroke="midnightblue" d="M1858.8,-938C1623.6,-937.85 434.001,-935.011 370,-893 341.48,-874.279 306.568,-775.808 292.891,-734.386"/>
<polygon fill="midnightblue" stroke="midnightblue" points="296.177,-733.171 289.753,-724.745 289.521,-735.338 296.177,-733.171"/>
</g>
<!-- Node45 -->
<g id="node45" class="node"><title>Node45</title>
<g id="a_node45"><a xlink:href="var_8h.html" target="_top" xlink:title="Variables in the TIR. ">
<polygon fill="white" stroke="black" points="1439,-817.5 1439,-836.5 1513,-836.5 1513,-817.5 1439,-817.5"/>
<text text-anchor="middle" x="1476" y="-824.5" font-family="Helvetica,sans-Serif" font-size="10.00">tvm/tir/var.h</text>
</a>
</g>
</g>
<!-- Node44&#45;&gt;Node45 -->
<g id="edge142" class="edge"><title>Node44&#45;&gt;Node45</title>
<path fill="none" stroke="midnightblue" d="M1858.82,-936.031C1762.15,-930.944 1522.53,-916.122 1495,-893 1481.66,-881.792 1477.4,-861.773 1476.17,-846.903"/>
<polygon fill="midnightblue" stroke="midnightblue" points="1479.66,-846.605 1475.73,-836.767 1472.67,-846.91 1479.66,-846.605"/>
</g>
<!-- Node46 -->
<g id="node46" class="node"><title>Node46</title>
<g id="a_node46"><a xlink:href="buffer_8h.html" target="_top" xlink:title="Symbolic n&#45;dimensional array, to represent a memory buffer. ">
<polygon fill="white" stroke="black" points="1504.5,-873.5 1504.5,-892.5 1591.5,-892.5 1591.5,-873.5 1504.5,-873.5"/>
<text text-anchor="middle" x="1548" y="-880.5" font-family="Helvetica,sans-Serif" font-size="10.00">tvm/tir/buffer.h</text>
</a>
</g>
</g>
<!-- Node44&#45;&gt;Node46 -->
<g id="edge147" class="edge"><title>Node44&#45;&gt;Node46</title>
<path fill="none" stroke="midnightblue" d="M1858.74,-931.806C1795.4,-922.062 1672.46,-903.147 1601.68,-892.258"/>
<polygon fill="midnightblue" stroke="midnightblue" points="1602.04,-888.773 1591.63,-890.712 1600.98,-895.692 1602.04,-888.773"/>
</g>
<!-- Node45&#45;&gt;Node10 -->
<g id="edge146" class="edge"><title>Node45&#45;&gt;Node10</title>
<path fill="none" stroke="midnightblue" d="M1438.98,-825.914C1335.76,-825.171 1036.18,-819.581 791,-781 589.533,-749.297 535.771,-743.705 346,-669 290.287,-647.068 228,-663.875 228,-604 228,-604 228,-604 228,-367 228,-308.318 205.218,-290.247 225,-235 246.715,-174.352 265.358,-161.508 317,-123 343.714,-103.08 379.458,-89.3549 404.971,-81.2962"/>
<polygon fill="midnightblue" stroke="midnightblue" points="405.996,-84.6429 414.545,-78.3853 403.96,-77.9456 405.996,-84.6429"/>
</g>
<!-- Node45&#45;&gt;Node24 -->
<g id="edge144" class="edge"><title>Node45&#45;&gt;Node24</title>
<path fill="none" stroke="midnightblue" d="M1438.76,-824.569C1299.74,-818.732 812.06,-793.677 675,-725 644.088,-709.511 638.508,-698.815 621,-669 576.119,-592.571 565.842,-547.965 608,-470 624.742,-439.038 637.69,-437.382 664,-414 696.999,-384.674 781.796,-313.121 820,-291 843.695,-277.28 872.38,-265.842 894.788,-257.931"/>
<polygon fill="midnightblue" stroke="midnightblue" points="895.974,-261.224 904.286,-254.655 893.692,-254.607 895.974,-261.224"/>
</g>
<!-- Node45&#45;&gt;Node32 -->
<g id="edge145" class="edge"><title>Node45&#45;&gt;Node32</title>
<path fill="none" stroke="midnightblue" d="M1487.09,-817.324C1497.49,-809.185 1513.26,-796.839 1525.72,-787.087"/>
<polygon fill="midnightblue" stroke="midnightblue" points="1527.99,-789.753 1533.71,-780.834 1523.68,-784.241 1527.99,-789.753"/>
</g>
<!-- Node45&#45;&gt;Node33 -->
<g id="edge143" class="edge"><title>Node45&#45;&gt;Node33</title>
<path fill="none" stroke="midnightblue" d="M1476,-817.297C1476,-784.633 1476,-668.866 1476,-622.957"/>
<polygon fill="midnightblue" stroke="midnightblue" points="1479.5,-622.884 1476,-612.884 1472.5,-622.884 1479.5,-622.884"/>
</g>
<!-- Node46&#45;&gt;Node2 -->
<g id="edge148" class="edge"><title>Node46&#45;&gt;Node2</title>
<path fill="none" stroke="midnightblue" d="M1566.83,-873.406C1634.27,-842.31 1869.15,-731.245 2047,-613 2081.05,-590.36 2087.9,-582.331 2120,-557 2151,-532.534 2164.95,-532.326 2189,-501 2202.45,-483.488 2211.95,-459.816 2217.43,-443.57"/>
<polygon fill="midnightblue" stroke="midnightblue" points="2220.88,-444.267 2220.58,-433.676 2214.21,-442.143 2220.88,-444.267"/>
</g>
<!-- Node46&#45;&gt;Node10 -->
<g id="edge151" class="edge"><title>Node46&#45;&gt;Node10</title>
<path fill="none" stroke="midnightblue" d="M1504.36,-879.134C1374.99,-870.185 982.541,-839.785 662,-781 562.759,-762.8 539.177,-752.14 442,-725 359.669,-702.006 331.791,-712.15 258,-669 221.909,-647.895 190,-645.808 190,-604 190,-604 190,-604 190,-546 190,-460.388 114,-454.612 114,-369 114,-369 114,-369 114,-188 114,-126.731 322.666,-89.3367 404.565,-77.0197"/>
<polygon fill="midnightblue" stroke="midnightblue" points="405.416,-80.4322 414.799,-75.5124 404.396,-73.5069 405.416,-80.4322"/>
</g>
<!-- Node46&#45;&gt;Node32 -->
<g id="edge149" class="edge"><title>Node46&#45;&gt;Node32</title>
<path fill="none" stroke="midnightblue" d="M1547.76,-873.368C1547.28,-855.617 1546.16,-814.666 1545.51,-790.597"/>
<polygon fill="midnightblue" stroke="midnightblue" points="1549.01,-790.492 1545.23,-780.591 1542.01,-790.683 1549.01,-790.492"/>
</g>
<!-- Node46&#45;&gt;Node45 -->
<g id="edge150" class="edge"><title>Node46&#45;&gt;Node45</title>
<path fill="none" stroke="midnightblue" d="M1536.43,-873.324C1525.58,-865.185 1509.12,-852.839 1496.12,-843.087"/>
<polygon fill="midnightblue" stroke="midnightblue" points="1497.88,-840.034 1487.78,-836.834 1493.68,-845.634 1497.88,-840.034"/>
</g>
<!-- Node47&#45;&gt;Node9 -->
<g id="edge162" class="edge"><title>Node47&#45;&gt;Node9</title>
<path fill="none" stroke="midnightblue" d="M2529.77,-987.898C2613.3,-974.517 2793,-939.305 2793,-884 2793,-884 2793,-884 2793,-770 2793,-507.33 2963.48,-381.351 2796,-179 2765.48,-142.124 2749.34,-138.341 2704,-123 2624.56,-96.1245 2374.54,-80.2379 2272.27,-74.7172"/>
<polygon fill="midnightblue" stroke="midnightblue" points="2272.44,-71.2214 2262.26,-74.185 2272.06,-78.2115 2272.44,-71.2214"/>
</g>
<!-- Node47&#45;&gt;Node10 -->
<g id="edge163" class="edge"><title>Node47&#45;&gt;Node10</title>
<path fill="none" stroke="midnightblue" d="M2446.37,-989.329C2431.17,-987.757 2413.82,-986.12 2398,-985 2152.96,-967.66 419.032,-979.214 189,-893 108.47,-862.818 38,-858 38,-772 38,-772 38,-772 38,-188 38,-147.145 66.533,-141.42 103,-123 155.637,-96.4125 331.698,-80.4328 404.778,-74.8025"/>
<polygon fill="midnightblue" stroke="midnightblue" points="405.079,-78.2899 414.787,-74.0468 404.551,-71.3097 405.079,-78.2899"/>
</g>
<!-- Node47&#45;&gt;Node11 -->
<g id="edge165" class="edge"><title>Node47&#45;&gt;Node11</title>
<path fill="none" stroke="midnightblue" d="M2529.77,-991.51C2604.9,-986.478 2759.43,-973.44 2807,-949 2842.51,-930.756 2869,-923.923 2869,-884 2869,-884 2869,-884 2869,-658 2869,-439.767 3078.9,-371.983 2977,-179 2956.39,-139.974 2935.9,-139.571 2895,-123 2804.63,-86.3859 2688.08,-76.3098 2633.2,-73.5432"/>
<polygon fill="midnightblue" stroke="midnightblue" points="2633.23,-70.0406 2623.08,-73.0816 2632.91,-77.0334 2633.23,-70.0406"/>
</g>
<!-- Node47&#45;&gt;Node19 -->
<g id="edge164" class="edge"><title>Node47&#45;&gt;Node19</title>
<path fill="none" stroke="midnightblue" d="M2488.13,-985.442C2488.4,-966.937 2489,-921.814 2489,-884 2489,-884 2489,-884 2489,-658 2489,-581.766 2492,-562.734 2492,-486.5 2492,-486.5 2492,-486.5 2492,-423 2492,-310.349 2420.76,-289.184 2322,-235 2261.35,-201.728 2179.24,-192.934 2133.79,-190.688"/>
<polygon fill="midnightblue" stroke="midnightblue" points="2133.73,-187.182 2123.6,-190.265 2133.44,-194.176 2133.73,-187.182"/>
</g>
<!-- Node47&#45;&gt;Node44 -->
<g id="edge161" class="edge"><title>Node47&#45;&gt;Node44</title>
<path fill="none" stroke="midnightblue" d="M2446.34,-989.748C2431.13,-988.219 2413.79,-986.501 2398,-985 2233.91,-969.397 2039.33,-952.237 1949.31,-944.374"/>
<polygon fill="midnightblue" stroke="midnightblue" points="1949.38,-940.867 1939.11,-943.484 1948.77,-947.84 1949.38,-940.867"/>
</g>
<!-- Node48&#45;&gt;Node9 -->
<g id="edge173" class="edge"><title>Node48&#45;&gt;Node9</title>
<path fill="none" stroke="midnightblue" d="M1935.25,-1046.63C2013.18,-1037.37 2197.2,-1004.26 2291,-893 2307.41,-873.54 2300.32,-862.312 2303,-837 2327.34,-607.246 1986,-656.04 1986,-425 1986,-425 1986,-425 1986,-367 1986,-332.654 1979.77,-318.753 2000,-291 2019.91,-263.685 2038.16,-272.639 2067,-255 2104.33,-232.162 2117.69,-230.575 2148,-199 2180.41,-165.238 2206.81,-116.374 2219.62,-90.3646"/>
<polygon fill="midnightblue" stroke="midnightblue" points="2222.8,-91.8321 2223.98,-81.3039 2216.49,-88.7943 2222.8,-91.8321"/>
</g>
<!-- Node48&#45;&gt;Node27 -->
<g id="edge174" class="edge"><title>Node48&#45;&gt;Node27</title>
<path fill="none" stroke="midnightblue" d="M1862.81,-1049.78C1739.74,-1048.71 1326.18,-1042.36 987,-1005 840.873,-988.904 804.479,-981.031 661,-949 569.656,-928.608 547.146,-921.506 458,-893 294.229,-840.631 114,-887.94 114,-716 114,-716 114,-716 114,-546 114,-424.744 145.686,-393.162 211,-291 218.029,-280.005 228.077,-269.474 236.797,-261.368"/>
<polygon fill="midnightblue" stroke="midnightblue" points="239.179,-263.933 244.306,-254.661 234.517,-258.712 239.179,-263.933"/>
</g>
<!-- Node48&#45;&gt;Node41 -->
<g id="edge169" class="edge"><title>Node48&#45;&gt;Node41</title>
<path fill="none" stroke="midnightblue" d="M1869.05,-1041.49C1708.09,-995.78 946.418,-779.454 762.866,-727.322"/>
<polygon fill="midnightblue" stroke="midnightblue" points="763.659,-723.909 753.083,-724.544 761.746,-730.643 763.659,-723.909"/>
</g>
<!-- Node48&#45;&gt;Node42 -->
<g id="edge172" class="edge"><title>Node48&#45;&gt;Node42</title>
<path fill="none" stroke="midnightblue" d="M1862.84,-1049.33C1647.05,-1044.6 530.879,-1009.2 299,-781 286.996,-769.187 284.812,-749.554 285.133,-734.952"/>
<polygon fill="midnightblue" stroke="midnightblue" points="288.652,-734.764 285.789,-724.564 281.666,-734.324 288.652,-734.764"/>
</g>
<!-- Node48&#45;&gt;Node44 -->
<g id="edge170" class="edge"><title>Node48&#45;&gt;Node44</title>
<path fill="none" stroke="midnightblue" d="M1899,-1041.37C1899,-1023.62 1899,-982.666 1899,-958.597"/>
<polygon fill="midnightblue" stroke="midnightblue" points="1902.5,-958.591 1899,-948.591 1895.5,-958.591 1902.5,-958.591"/>
</g>
<!-- Node48&#45;&gt;Node47 -->
<g id="edge171" class="edge"><title>Node48&#45;&gt;Node47</title>
<path fill="none" stroke="midnightblue" d="M1935.02,-1046.87C2017.15,-1039.72 2224.6,-1021.49 2398,-1005 2410.33,-1003.83 2423.62,-1002.52 2436.09,-1001.28"/>
<polygon fill="midnightblue" stroke="midnightblue" points="2436.74,-1004.73 2446.34,-1000.25 2436.04,-997.766 2436.74,-1004.73"/>
</g>
</g>
</svg>
