<?xml version="1.0" encoding="UTF-8" standalone="no"?>
<!DOCTYPE svg PUBLIC "-//W3C//DTD SVG 1.1//EN"
 "http://www.w3.org/Graphics/SVG/1.1/DTD/svg11.dtd">
<!-- Generated by graphviz version 2.38.0 (20140413.2041)
 -->
<!-- Title: include/tvm/ir/tensor_type.h Pages: 1 -->
<svg width="2415pt" height="856pt"
 viewBox="0.00 0.00 2415.00 856.00" xmlns="http://www.w3.org/2000/svg" xmlns:xlink="http://www.w3.org/1999/xlink">
<g id="graph0" class="graph" transform="scale(1 1) rotate(0) translate(4 852)">
<title>include/tvm/ir/tensor_type.h</title>
<polygon fill="white" stroke="none" points="-4,4 -4,-852 2411,-852 2411,4 -4,4"/>
<!-- Node1 -->
<g id="node1" class="node"><title>Node1</title>
<polygon fill="#bfbfbf" stroke="black" points="1701.5,-817.5 1701.5,-847.5 1816.5,-847.5 1816.5,-817.5 1701.5,-817.5"/>
<text text-anchor="start" x="1709.5" y="-835.5" font-family="Helvetica,sans-Serif" font-size="10.00">include/tvm/ir/tensor</text>
<text text-anchor="middle" x="1759" y="-824.5" font-family="Helvetica,sans-Serif" font-size="10.00">_type.h</text>
</g>
<!-- Node2 -->
<g id="node2" class="node"><title>Node2</title>
<g id="a_node2"><a xlink:href="ir_2type_8h.html" target="_top" xlink:title="IR/AST nodes for the unified type system in TVM. ">
<polygon fill="white" stroke="black" points="1613.5,-705.5 1613.5,-724.5 1690.5,-724.5 1690.5,-705.5 1613.5,-705.5"/>
<text text-anchor="middle" x="1652" y="-712.5" font-family="Helvetica,sans-Serif" font-size="10.00">tvm/ir/type.h</text>
</a>
</g>
</g>
<!-- Node1&#45;&gt;Node2 -->
<g id="edge1" class="edge"><title>Node1&#45;&gt;Node2</title>
<path fill="none" stroke="midnightblue" d="M1745.88,-817.337C1725.9,-795.77 1687.96,-754.813 1666.94,-732.13"/>
<polygon fill="midnightblue" stroke="midnightblue" points="1669.4,-729.627 1660.03,-724.669 1664.26,-734.384 1669.4,-729.627"/>
</g>
<!-- Node40 -->
<g id="node40" class="node"><title>Node40</title>
<g id="a_node40"><a xlink:href="ir_2expr_8h.html" target="_top" xlink:title="Base expr nodes in TVM. ">
<polygon fill="white" stroke="black" points="1775.5,-761.5 1775.5,-780.5 1852.5,-780.5 1852.5,-761.5 1775.5,-761.5"/>
<text text-anchor="middle" x="1814" y="-768.5" font-family="Helvetica,sans-Serif" font-size="10.00">tvm/ir/expr.h</text>
</a>
</g>
</g>
<!-- Node1&#45;&gt;Node40 -->
<g id="edge121" class="edge"><title>Node1&#45;&gt;Node40</title>
<path fill="none" stroke="midnightblue" d="M1772.03,-817.399C1780.19,-808.575 1790.72,-797.183 1799.19,-788.018"/>
<polygon fill="midnightblue" stroke="midnightblue" points="1801.78,-790.377 1806,-780.658 1796.64,-785.625 1801.78,-790.377"/>
</g>
<!-- Node3 -->
<g id="node3" class="node"><title>Node3</title>
<g id="a_node3"><a xlink:href="object_8h.html" target="_top" xlink:title="A managed object in the TVM runtime. ">
<polygon fill="white" stroke="black" points="955.5,-123.5 955.5,-142.5 1072.5,-142.5 1072.5,-123.5 955.5,-123.5"/>
<text text-anchor="middle" x="1014" y="-130.5" font-family="Helvetica,sans-Serif" font-size="10.00">tvm/runtime/object.h</text>
</a>
</g>
</g>
<!-- Node2&#45;&gt;Node3 -->
<g id="edge2" class="edge"><title>Node2&#45;&gt;Node3</title>
<path fill="none" stroke="midnightblue" d="M1613.21,-712.545C1406.61,-704.549 445,-664.1 445,-604 445,-604 445,-604 445,-423 445,-335.332 674.931,-214.702 755,-179 815.795,-151.893 891.385,-141.066 945.179,-136.768"/>
<polygon fill="midnightblue" stroke="midnightblue" points="945.586,-140.248 955.299,-136.016 945.067,-133.267 945.586,-140.248"/>
</g>
<!-- Node10 -->
<g id="node10" class="node"><title>Node10</title>
<polygon fill="white" stroke="#bfbfbf" points="2153,-62 2153,-81 2197,-81 2197,-62 2153,-62"/>
<text text-anchor="middle" x="2175" y="-69" font-family="Helvetica,sans-Serif" font-size="10.00">string</text>
</g>
<!-- Node2&#45;&gt;Node10 -->
<g id="edge120" class="edge"><title>Node2&#45;&gt;Node10</title>
<path fill="none" stroke="midnightblue" d="M1690.55,-712.195C1839.48,-704.718 2369,-673.265 2369,-604 2369,-604 2369,-604 2369,-188 2369,-113.615 2262.4,-86.043 2207.24,-76.7556"/>
<polygon fill="midnightblue" stroke="midnightblue" points="2207.68,-73.2821 2197.25,-75.1801 2206.59,-80.1965 2207.68,-73.2821"/>
</g>
<!-- Node13 -->
<g id="node13" class="node"><title>Node13</title>
<g id="a_node13"><a xlink:href="data__type_8h.html" target="_top" xlink:title="tvm/runtime/data_type.h">
<polygon fill="white" stroke="black" points="1727,-235.5 1727,-254.5 1863,-254.5 1863,-235.5 1727,-235.5"/>
<text text-anchor="middle" x="1795" y="-242.5" font-family="Helvetica,sans-Serif" font-size="10.00">tvm/runtime/data_type.h</text>
</a>
</g>
</g>
<!-- Node2&#45;&gt;Node13 -->
<g id="edge12" class="edge"><title>Node2&#45;&gt;Node13</title>
<path fill="none" stroke="midnightblue" d="M1679.14,-705.395C1743.14,-683.449 1902.75,-618.65 1965,-501 2010.75,-414.523 1967.74,-360.611 1899,-291 1883.45,-275.253 1861.48,-264.656 1841.74,-257.724"/>
<polygon fill="midnightblue" stroke="midnightblue" points="1842.56,-254.309 1831.97,-254.517 1840.38,-260.96 1842.56,-254.309"/>
</g>
<!-- Node14 -->
<g id="node14" class="node"><title>Node14</title>
<g id="a_node14"><a xlink:href="node_8h.html" target="_top" xlink:title="Definitions and helper macros for IR/AST nodes. ">
<polygon fill="white" stroke="black" points="1160,-593.5 1160,-612.5 1258,-612.5 1258,-593.5 1160,-593.5"/>
<text text-anchor="middle" x="1209" y="-600.5" font-family="Helvetica,sans-Serif" font-size="10.00">tvm/node/node.h</text>
</a>
</g>
</g>
<!-- Node2&#45;&gt;Node14 -->
<g id="edge17" class="edge"><title>Node2&#45;&gt;Node14</title>
<path fill="none" stroke="midnightblue" d="M1617.61,-705.46C1538.04,-685.702 1341.32,-636.857 1253.08,-614.945"/>
<polygon fill="midnightblue" stroke="midnightblue" points="1253.92,-611.548 1243.37,-612.535 1252.23,-618.341 1253.92,-611.548"/>
</g>
<!-- Node35 -->
<g id="node35" class="node"><title>Node35</title>
<g id="a_node35"><a xlink:href="node_2container_8h.html" target="_top" xlink:title="Array/Map container in the DSL graph. ">
<polygon fill="white" stroke="black" points="1000.5,-414.5 1000.5,-433.5 1119.5,-433.5 1119.5,-414.5 1000.5,-414.5"/>
<text text-anchor="middle" x="1060" y="-421.5" font-family="Helvetica,sans-Serif" font-size="10.00">tvm/node/container.h</text>
</a>
</g>
</g>
<!-- Node2&#45;&gt;Node35 -->
<g id="edge115" class="edge"><title>Node2&#45;&gt;Node35</title>
<path fill="none" stroke="midnightblue" d="M1613.4,-713.036C1449.18,-708.433 817,-685.425 817,-604 817,-604 817,-604 817,-546 817,-468.018 918.52,-440.293 990.323,-430.437"/>
<polygon fill="midnightblue" stroke="midnightblue" points="990.772,-433.908 1000.24,-429.161 989.88,-426.965 990.772,-433.908"/>
</g>
<!-- Node39 -->
<g id="node39" class="node"><title>Node39</title>
<g id="a_node39"><a xlink:href="span_8h.html" target="_top" xlink:title="Span information for debugging purposes. ">
<polygon fill="white" stroke="black" points="1823,-649.5 1823,-668.5 1903,-668.5 1903,-649.5 1823,-649.5"/>
<text text-anchor="middle" x="1863" y="-656.5" font-family="Helvetica,sans-Serif" font-size="10.00">tvm/ir/span.h</text>
</a>
</g>
</g>
<!-- Node2&#45;&gt;Node39 -->
<g id="edge116" class="edge"><title>Node2&#45;&gt;Node39</title>
<path fill="none" stroke="midnightblue" d="M1685.43,-705.444C1721.86,-696.122 1780.23,-681.183 1820.03,-670.997"/>
<polygon fill="midnightblue" stroke="midnightblue" points="1820.9,-674.387 1829.72,-668.516 1819.17,-667.605 1820.9,-674.387"/>
</g>
<!-- Node4 -->
<g id="node4" class="node"><title>Node4</title>
<polygon fill="white" stroke="#bfbfbf" points="884,-62 884,-81 970,-81 970,-62 884,-62"/>
<text text-anchor="middle" x="927" y="-69" font-family="Helvetica,sans-Serif" font-size="10.00">dmlc/logging.h</text>
</g>
<!-- Node3&#45;&gt;Node4 -->
<g id="edge3" class="edge"><title>Node3&#45;&gt;Node4</title>
<path fill="none" stroke="midnightblue" d="M1001.54,-123.475C987.581,-113.931 964.735,-98.3073 948.009,-86.8683"/>
<polygon fill="midnightblue" stroke="midnightblue" points="949.672,-83.7653 939.442,-81.0091 945.72,-89.5433 949.672,-83.7653"/>
</g>
<!-- Node5 -->
<g id="node5" class="node"><title>Node5</title>
<g id="a_node5"><a xlink:href="c__runtime__api_8h.html" target="_top" xlink:title="tvm/runtime/c_runtime\l_api.h">
<polygon fill="white" stroke="black" points="1674.5,-56.5 1674.5,-86.5 1801.5,-86.5 1801.5,-56.5 1674.5,-56.5"/>
<text text-anchor="start" x="1682.5" y="-74.5" font-family="Helvetica,sans-Serif" font-size="10.00">tvm/runtime/c_runtime</text>
<text text-anchor="middle" x="1738" y="-63.5" font-family="Helvetica,sans-Serif" font-size="10.00">_api.h</text>
</a>
</g>
</g>
<!-- Node3&#45;&gt;Node5 -->
<g id="edge4" class="edge"><title>Node3&#45;&gt;Node5</title>
<path fill="none" stroke="midnightblue" d="M1072.63,-127.181C1203.72,-116.408 1520.29,-90.392 1664.37,-78.5509"/>
<polygon fill="midnightblue" stroke="midnightblue" points="1664.76,-82.0306 1674.44,-77.7232 1664.19,-75.0541 1664.76,-82.0306"/>
</g>
<!-- Node9 -->
<g id="node9" class="node"><title>Node9</title>
<polygon fill="white" stroke="#bfbfbf" points="137,-62 137,-81 205,-81 205,-62 137,-62"/>
<text text-anchor="middle" x="171" y="-69" font-family="Helvetica,sans-Serif" font-size="10.00">type_traits</text>
</g>
<!-- Node3&#45;&gt;Node9 -->
<g id="edge8" class="edge"><title>Node3&#45;&gt;Node9</title>
<path fill="none" stroke="midnightblue" d="M955.391,-127.863C795.841,-116.602 356.255,-85.5755 215.191,-75.6191"/>
<polygon fill="midnightblue" stroke="midnightblue" points="215.392,-72.1247 205.171,-74.9118 214.9,-79.1073 215.392,-72.1247"/>
</g>
<!-- Node3&#45;&gt;Node10 -->
<g id="edge9" class="edge"><title>Node3&#45;&gt;Node10</title>
<path fill="none" stroke="midnightblue" d="M1072.77,-128.988C1281.63,-118.285 1984.01,-82.2881 2142.88,-74.1463"/>
<polygon fill="midnightblue" stroke="midnightblue" points="2143.15,-77.6372 2152.95,-73.6298 2142.79,-70.6463 2143.15,-77.6372"/>
</g>
<!-- Node11 -->
<g id="node11" class="node"><title>Node11</title>
<polygon fill="white" stroke="#bfbfbf" points="486,-62 486,-81 528,-81 528,-62 486,-62"/>
<text text-anchor="middle" x="507" y="-69" font-family="Helvetica,sans-Serif" font-size="10.00">utility</text>
</g>
<!-- Node3&#45;&gt;Node11 -->
<g id="edge10" class="edge"><title>Node3&#45;&gt;Node11</title>
<path fill="none" stroke="midnightblue" d="M955.345,-125.116C847.469,-112.456 621.05,-85.8845 538.213,-76.1631"/>
<polygon fill="midnightblue" stroke="midnightblue" points="538.51,-72.6739 528.17,-74.9844 537.694,-79.6262 538.51,-72.6739"/>
</g>
<!-- Node12 -->
<g id="node12" class="node"><title>Node12</title>
<polygon fill="white" stroke="#bfbfbf" points="1265,-62 1265,-81 1315,-81 1315,-62 1265,-62"/>
<text text-anchor="middle" x="1290" y="-69" font-family="Helvetica,sans-Serif" font-size="10.00">atomic</text>
</g>
<!-- Node3&#45;&gt;Node12 -->
<g id="edge11" class="edge"><title>Node3&#45;&gt;Node12</title>
<path fill="none" stroke="midnightblue" d="M1053.54,-123.475C1107.51,-111.841 1203.39,-91.1707 1254.92,-80.0616"/>
<polygon fill="midnightblue" stroke="midnightblue" points="1255.88,-83.4367 1264.91,-77.9078 1254.4,-76.5939 1255.88,-83.4367"/>
</g>
<!-- Node6 -->
<g id="node6" class="node"><title>Node6</title>
<polygon fill="white" stroke="#bfbfbf" points="1603,-0.5 1603,-19.5 1693,-19.5 1693,-0.5 1603,-0.5"/>
<text text-anchor="middle" x="1648" y="-7.5" font-family="Helvetica,sans-Serif" font-size="10.00">dlpack/dlpack.h</text>
</g>
<!-- Node5&#45;&gt;Node6 -->
<g id="edge5" class="edge"><title>Node5&#45;&gt;Node6</title>
<path fill="none" stroke="midnightblue" d="M1716.67,-56.3993C1702.51,-47.0402 1683.99,-34.7924 1669.75,-25.3771"/>
<polygon fill="midnightblue" stroke="midnightblue" points="1671.37,-22.2531 1661.1,-19.6578 1667.51,-28.0923 1671.37,-22.2531"/>
</g>
<!-- Node7 -->
<g id="node7" class="node"><title>Node7</title>
<polygon fill="white" stroke="#bfbfbf" points="1711.5,-0.5 1711.5,-19.5 1764.5,-19.5 1764.5,-0.5 1711.5,-0.5"/>
<text text-anchor="middle" x="1738" y="-7.5" font-family="Helvetica,sans-Serif" font-size="10.00">stdint.h</text>
</g>
<!-- Node5&#45;&gt;Node7 -->
<g id="edge6" class="edge"><title>Node5&#45;&gt;Node7</title>
<path fill="none" stroke="midnightblue" d="M1738,-56.3993C1738,-48.4664 1738,-38.458 1738,-29.8583"/>
<polygon fill="midnightblue" stroke="midnightblue" points="1741.5,-29.6577 1738,-19.6578 1734.5,-29.6578 1741.5,-29.6577"/>
</g>
<!-- Node8 -->
<g id="node8" class="node"><title>Node8</title>
<polygon fill="white" stroke="#bfbfbf" points="1782.5,-0.5 1782.5,-19.5 1837.5,-19.5 1837.5,-0.5 1782.5,-0.5"/>
<text text-anchor="middle" x="1810" y="-7.5" font-family="Helvetica,sans-Serif" font-size="10.00">stddef.h</text>
</g>
<!-- Node5&#45;&gt;Node8 -->
<g id="edge7" class="edge"><title>Node5&#45;&gt;Node8</title>
<path fill="none" stroke="midnightblue" d="M1755.06,-56.3993C1766.06,-47.3076 1780.37,-35.4899 1791.62,-26.1909"/>
<polygon fill="midnightblue" stroke="midnightblue" points="1794.04,-28.726 1799.52,-19.6578 1789.59,-23.33 1794.04,-28.726"/>
</g>
<!-- Node13&#45;&gt;Node4 -->
<g id="edge14" class="edge"><title>Node13&#45;&gt;Node4</title>
<path fill="none" stroke="midnightblue" d="M1800.85,-235.166C1808.87,-221.816 1821.02,-196.233 1809,-179 1767.82,-119.945 1727.4,-138.08 1657,-123 1591.47,-108.961 1137.93,-83.7524 980.606,-75.3283"/>
<polygon fill="midnightblue" stroke="midnightblue" points="980.411,-71.813 970.239,-74.7745 980.038,-78.803 980.411,-71.813"/>
</g>
<!-- Node13&#45;&gt;Node5 -->
<g id="edge13" class="edge"><title>Node13&#45;&gt;Node5</title>
<path fill="none" stroke="midnightblue" d="M1828.51,-235.431C1858.79,-225.719 1896.93,-207.438 1885,-179 1867.1,-136.315 1821.35,-107.553 1785.6,-90.7886"/>
<polygon fill="midnightblue" stroke="midnightblue" points="1786.84,-87.5069 1776.28,-86.5803 1783.96,-93.8864 1786.84,-87.5069"/>
</g>
<!-- Node13&#45;&gt;Node9 -->
<g id="edge15" class="edge"><title>Node13&#45;&gt;Node9</title>
<path fill="none" stroke="midnightblue" d="M1782.37,-235.37C1747.2,-211.897 1644.37,-147.049 1548,-123 1432.48,-94.1704 595.97,-91.818 477,-87 384.007,-83.234 275.165,-77.8413 215.594,-74.8055"/>
<polygon fill="midnightblue" stroke="midnightblue" points="215.577,-71.3002 205.411,-74.2851 215.219,-78.291 215.577,-71.3002"/>
</g>
<!-- Node13&#45;&gt;Node10 -->
<g id="edge16" class="edge"><title>Node13&#45;&gt;Node10</title>
<path fill="none" stroke="midnightblue" d="M1819.26,-235.385C1841.2,-227.205 1874.09,-213.959 1901,-199 1952.3,-170.484 1956.26,-148.755 2009,-123 2053.28,-101.378 2108.75,-86.7691 2143.03,-79.0391"/>
<polygon fill="midnightblue" stroke="midnightblue" points="2143.93,-82.4237 2152.95,-76.8608 2142.43,-75.5865 2143.93,-82.4237"/>
</g>
<!-- Node14&#45;&gt;Node3 -->
<g id="edge67" class="edge"><title>Node14&#45;&gt;Node3</title>
<path fill="none" stroke="midnightblue" d="M1200.52,-593.265C1183.76,-575.038 1148,-530.947 1148,-486.5 1148,-486.5 1148,-486.5 1148,-367 1148,-295.655 1076.68,-311.411 1033,-255 1015.45,-232.335 1008.36,-226.705 1001,-199 996.851,-183.378 1001.17,-165.332 1005.91,-152.224"/>
<polygon fill="midnightblue" stroke="midnightblue" points="1009.17,-153.496 1009.65,-142.912 1002.68,-150.887 1009.17,-153.496"/>
</g>
<!-- Node14&#45;&gt;Node5 -->
<g id="edge18" class="edge"><title>Node14&#45;&gt;Node5</title>
<path fill="none" stroke="midnightblue" d="M1258.3,-601.595C1460.68,-599.291 2217,-584.15 2217,-486.5 2217,-486.5 2217,-486.5 2217,-367 2217,-179.096 1946.2,-107.266 1811.82,-83.1894"/>
<polygon fill="midnightblue" stroke="midnightblue" points="1812.06,-79.6777 1801.61,-81.4037 1810.86,-86.5732 1812.06,-79.6777"/>
</g>
<!-- Node14&#45;&gt;Node9 -->
<g id="edge114" class="edge"><title>Node14&#45;&gt;Node9</title>
<path fill="none" stroke="midnightblue" d="M1159.95,-601.234C950.01,-597.804 135.698,-582.873 88,-557 54.2341,-538.684 38,-524.914 38,-486.5 38,-486.5 38,-486.5 38,-188 38,-135.703 97.3477,-101.736 136.755,-84.9461"/>
<polygon fill="midnightblue" stroke="midnightblue" points="138.363,-88.07 146.295,-81.0469 135.715,-81.5902 138.363,-88.07"/>
</g>
<!-- Node14&#45;&gt;Node10 -->
<g id="edge111" class="edge"><title>Node14&#45;&gt;Node10</title>
<path fill="none" stroke="midnightblue" d="M1258,-601.912C1420.63,-601.251 1941.38,-596.058 2104,-557 2176.02,-539.703 2255,-560.565 2255,-486.5 2255,-486.5 2255,-486.5 2255,-423 2255,-342.541 2293,-326.459 2293,-246 2293,-246 2293,-246 2293,-188 2293,-138.607 2239.55,-103.381 2204.59,-85.6265"/>
<polygon fill="midnightblue" stroke="midnightblue" points="2205.81,-82.3244 2195.28,-81.0849 2202.74,-88.6155 2205.81,-82.3244"/>
</g>
<!-- Node14&#45;&gt;Node11 -->
<g id="edge113" class="edge"><title>Node14&#45;&gt;Node11</title>
<path fill="none" stroke="midnightblue" d="M1159.96,-601.759C957.539,-600.526 195.94,-593.472 161,-557 22.0549,-411.961 119.89,-234.428 287,-123 345.709,-83.8533 430.671,-74.7921 475.91,-72.8608"/>
<polygon fill="midnightblue" stroke="midnightblue" points="476.113,-76.3561 485.99,-72.522 475.878,-69.36 476.113,-76.3561"/>
</g>
<!-- Node15 -->
<g id="node15" class="node"><title>Node15</title>
<g id="a_node15"><a xlink:href="runtime_2container_8h.html" target="_top" xlink:title="Common POD(plain old data) container types. ">
<polygon fill="white" stroke="black" points="713,-358.5 713,-377.5 845,-377.5 845,-358.5 713,-358.5"/>
<text text-anchor="middle" x="779" y="-365.5" font-family="Helvetica,sans-Serif" font-size="10.00">tvm/runtime/container.h</text>
</a>
</g>
</g>
<!-- Node14&#45;&gt;Node15 -->
<g id="edge19" class="edge"><title>Node14&#45;&gt;Node15</title>
<path fill="none" stroke="midnightblue" d="M1190.1,-593.383C1170.99,-584.571 1140.7,-570.324 1115,-557 995.76,-495.179 856.703,-414.583 802.398,-382.772"/>
<polygon fill="midnightblue" stroke="midnightblue" points="803.952,-379.625 793.556,-377.584 800.41,-385.663 803.952,-379.625"/>
</g>
<!-- Node16 -->
<g id="node16" class="node"><title>Node16</title>
<g id="a_node16"><a xlink:href="runtime_2memory_8h.html" target="_top" xlink:title="Runtime memory management. ">
<polygon fill="white" stroke="black" points="256.5,-179.5 256.5,-198.5 383.5,-198.5 383.5,-179.5 256.5,-179.5"/>
<text text-anchor="middle" x="320" y="-186.5" font-family="Helvetica,sans-Serif" font-size="10.00">tvm/runtime/memory.h</text>
</a>
</g>
</g>
<!-- Node14&#45;&gt;Node16 -->
<g id="edge68" class="edge"><title>Node14&#45;&gt;Node16</title>
<path fill="none" stroke="midnightblue" d="M1159.93,-601.866C950.92,-601.06 143.922,-595.461 107,-557 -3.8161,-441.566 226.759,-257.81 299.178,-204.774"/>
<polygon fill="midnightblue" stroke="midnightblue" points="301.517,-207.402 307.563,-198.702 297.411,-201.732 301.517,-207.402"/>
</g>
<!-- Node22 -->
<g id="node22" class="node"><title>Node22</title>
<polygon fill="white" stroke="#bfbfbf" points="775.5,-179.5 775.5,-198.5 822.5,-198.5 822.5,-179.5 775.5,-179.5"/>
<text text-anchor="middle" x="799" y="-186.5" font-family="Helvetica,sans-Serif" font-size="10.00">vector</text>
</g>
<!-- Node14&#45;&gt;Node22 -->
<g id="edge112" class="edge"><title>Node14&#45;&gt;Node22</title>
<path fill="none" stroke="midnightblue" d="M1159.91,-600.753C975.012,-595.414 331,-570.771 331,-486.5 331,-486.5 331,-486.5 331,-367 331,-355.363 659.062,-239.138 765.846,-201.614"/>
<polygon fill="midnightblue" stroke="midnightblue" points="767.195,-204.85 775.471,-198.235 764.876,-198.245 767.195,-204.85"/>
</g>
<!-- Node32 -->
<g id="node32" class="node"><title>Node32</title>
<g id="a_node32"><a xlink:href="reflection_8h.html" target="_top" xlink:title="Reflection and serialization of compiler IR/AST nodes. ">
<polygon fill="white" stroke="black" points="1313.5,-537.5 1313.5,-556.5 1432.5,-556.5 1432.5,-537.5 1313.5,-537.5"/>
<text text-anchor="middle" x="1373" y="-544.5" font-family="Helvetica,sans-Serif" font-size="10.00">tvm/node/reflection.h</text>
</a>
</g>
</g>
<!-- Node14&#45;&gt;Node32 -->
<g id="edge69" class="edge"><title>Node14&#45;&gt;Node32</title>
<path fill="none" stroke="midnightblue" d="M1234.99,-593.444C1262.7,-584.32 1306.75,-569.813 1337.62,-559.651"/>
<polygon fill="midnightblue" stroke="midnightblue" points="1338.73,-562.968 1347.14,-556.516 1336.54,-556.32 1338.73,-562.968"/>
</g>
<!-- Node33 -->
<g id="node33" class="node"><title>Node33</title>
<g id="a_node33"><a xlink:href="structural__equal_8h.html" target="_top" xlink:title="Structural equality comparison. ">
<polygon fill="white" stroke="black" points="1214.5,-470.5 1214.5,-500.5 1325.5,-500.5 1325.5,-470.5 1214.5,-470.5"/>
<text text-anchor="start" x="1222.5" y="-488.5" font-family="Helvetica,sans-Serif" font-size="10.00">tvm/node/structural</text>
<text text-anchor="middle" x="1270" y="-477.5" font-family="Helvetica,sans-Serif" font-size="10.00">_equal.h</text>
</a>
</g>
</g>
<!-- Node14&#45;&gt;Node33 -->
<g id="edge109" class="edge"><title>Node14&#45;&gt;Node33</title>
<path fill="none" stroke="midnightblue" d="M1213.58,-593.319C1222.87,-575.734 1244.18,-535.394 1257.78,-509.629"/>
<polygon fill="midnightblue" stroke="midnightblue" points="1261.01,-511.022 1262.58,-500.545 1254.82,-507.753 1261.01,-511.022"/>
</g>
<!-- Node14&#45;&gt;Node35 -->
<g id="edge108" class="edge"><title>Node14&#45;&gt;Node35</title>
<path fill="none" stroke="midnightblue" d="M1188.91,-593.495C1172.58,-585.814 1149.76,-573.233 1134,-557 1100.72,-522.721 1077.38,-470.531 1066.65,-443.176"/>
<polygon fill="midnightblue" stroke="midnightblue" points="1069.87,-441.803 1063.05,-433.696 1063.33,-444.287 1069.87,-441.803"/>
</g>
<!-- Node36 -->
<g id="node36" class="node"><title>Node36</title>
<g id="a_node36"><a xlink:href="structural__hash_8h.html" target="_top" xlink:title="tvm/node/structural\l_hash.h">
<polygon fill="white" stroke="black" points="1460.5,-470.5 1460.5,-500.5 1571.5,-500.5 1571.5,-470.5 1460.5,-470.5"/>
<text text-anchor="start" x="1468.5" y="-488.5" font-family="Helvetica,sans-Serif" font-size="10.00">tvm/node/structural</text>
<text text-anchor="middle" x="1516" y="-477.5" font-family="Helvetica,sans-Serif" font-size="10.00">_hash.h</text>
</a>
</g>
</g>
<!-- Node14&#45;&gt;Node36 -->
<g id="edge110" class="edge"><title>Node14&#45;&gt;Node36</title>
<path fill="none" stroke="midnightblue" d="M1258.21,-600.347C1307.02,-596.945 1382.75,-586.814 1441,-557 1463.89,-545.283 1484.75,-524.46 1498.62,-508.472"/>
<polygon fill="midnightblue" stroke="midnightblue" points="1501.46,-510.533 1505.22,-500.625 1496.1,-506.03 1501.46,-510.533"/>
</g>
<!-- Node37 -->
<g id="node37" class="node"><title>Node37</title>
<g id="a_node37"><a xlink:href="repr__printer_8h.html" target="_top" xlink:title="Printer class to print repr string of each AST/IR nodes. ">
<polygon fill="white" stroke="black" points="170,-537.5 170,-556.5 300,-556.5 300,-537.5 170,-537.5"/>
<text text-anchor="middle" x="235" y="-544.5" font-family="Helvetica,sans-Serif" font-size="10.00">tvm/node/repr_printer.h</text>
</a>
</g>
</g>
<!-- Node14&#45;&gt;Node37 -->
<g id="edge105" class="edge"><title>Node14&#45;&gt;Node37</title>
<path fill="none" stroke="midnightblue" d="M1159.62,-600.53C1024.55,-596.29 637.72,-582.668 317,-557 314.796,-556.824 312.56,-556.636 310.303,-556.439"/>
<polygon fill="midnightblue" stroke="midnightblue" points="310.593,-552.95 300.314,-555.519 309.952,-559.921 310.593,-552.95"/>
</g>
<!-- Node15&#45;&gt;Node3 -->
<g id="edge26" class="edge"><title>Node15&#45;&gt;Node3</title>
<path fill="none" stroke="midnightblue" d="M776.825,-358.077C768.877,-324.533 743.04,-206.501 766,-179 788.461,-152.097 879.908,-141.243 945.217,-136.887"/>
<polygon fill="midnightblue" stroke="midnightblue" points="945.7,-140.363 955.46,-136.242 945.26,-133.377 945.7,-140.363"/>
</g>
<!-- Node15&#45;&gt;Node4 -->
<g id="edge20" class="edge"><title>Node15&#45;&gt;Node4</title>
<path fill="none" stroke="midnightblue" d="M743.987,-358.445C725.066,-351.844 703.316,-340.594 692,-322 684.837,-310.231 688.509,-304.328 692,-291 706.472,-235.752 715.473,-220.224 755,-179 796.838,-135.366 860.169,-102.263 897.178,-85.2551"/>
<polygon fill="midnightblue" stroke="midnightblue" points="898.755,-88.3835 906.435,-81.085 895.88,-82.0011 898.755,-88.3835"/>
</g>
<!-- Node15&#45;&gt;Node9 -->
<g id="edge64" class="edge"><title>Node15&#45;&gt;Node9</title>
<path fill="none" stroke="midnightblue" d="M712.928,-366.678C594.187,-362.496 343.639,-336.705 199,-199 169.493,-170.908 167.723,-119.243 169.212,-91.4247"/>
<polygon fill="midnightblue" stroke="midnightblue" points="172.729,-91.3323 169.978,-81.1007 165.748,-90.8141 172.729,-91.3323"/>
</g>
<!-- Node15&#45;&gt;Node10 -->
<g id="edge63" class="edge"><title>Node15&#45;&gt;Node10</title>
<path fill="none" stroke="midnightblue" d="M845.219,-365.044C1052.1,-358.184 1683.74,-331.35 1872,-255 1962.28,-218.385 1962.02,-170.645 2047,-123 2078.23,-105.492 2116.75,-91.177 2143.34,-82.3162"/>
<polygon fill="midnightblue" stroke="midnightblue" points="2144.48,-85.6245 2152.9,-79.1919 2142.31,-78.9706 2144.48,-85.6245"/>
</g>
<!-- Node15&#45;&gt;Node11 -->
<g id="edge65" class="edge"><title>Node15&#45;&gt;Node11</title>
<path fill="none" stroke="midnightblue" d="M761.065,-358.466C724.147,-340.969 640.637,-301.768 611,-291 555.054,-270.674 517.991,-302.41 482,-255 444.337,-205.388 478.456,-125.625 496.931,-90.3104"/>
<polygon fill="midnightblue" stroke="midnightblue" points="500.169,-91.6822 501.861,-81.2233 494.016,-88.3443 500.169,-91.6822"/>
</g>
<!-- Node15&#45;&gt;Node16 -->
<g id="edge21" class="edge"><title>Node15&#45;&gt;Node16</title>
<path fill="none" stroke="midnightblue" d="M745.43,-358.42C713.252,-349.966 663.442,-336.275 621,-322 543.241,-295.846 523.939,-288.385 449,-255 412.234,-238.621 370.864,-217.231 345.114,-203.551"/>
<polygon fill="midnightblue" stroke="midnightblue" points="346.522,-200.335 336.052,-198.712 343.225,-206.51 346.522,-200.335"/>
</g>
<!-- Node18 -->
<g id="node18" class="node"><title>Node18</title>
<g id="a_node18"><a xlink:href="packed__func_8h.html" target="_top" xlink:title="Type&#45;erased function used across TVM API. ">
<polygon fill="white" stroke="black" points="1214.5,-291.5 1214.5,-321.5 1327.5,-321.5 1327.5,-291.5 1214.5,-291.5"/>
<text text-anchor="start" x="1222.5" y="-309.5" font-family="Helvetica,sans-Serif" font-size="10.00">tvm/runtime/packed</text>
<text text-anchor="middle" x="1271" y="-298.5" font-family="Helvetica,sans-Serif" font-size="10.00">_func.h</text>
</a>
</g>
</g>
<!-- Node15&#45;&gt;Node18 -->
<g id="edge27" class="edge"><title>Node15&#45;&gt;Node18</title>
<path fill="none" stroke="midnightblue" d="M845.098,-359.006C939.035,-347.646 1110.18,-326.948 1204.4,-315.555"/>
<polygon fill="midnightblue" stroke="midnightblue" points="1204.87,-319.023 1214.38,-314.347 1204.03,-312.073 1204.87,-319.023"/>
</g>
<!-- Node15&#45;&gt;Node22 -->
<g id="edge66" class="edge"><title>Node15&#45;&gt;Node22</title>
<path fill="none" stroke="midnightblue" d="M782.476,-358.202C785.836,-349.249 790.74,-334.894 793,-322 799.972,-282.223 800.193,-234.733 799.65,-208.947"/>
<polygon fill="midnightblue" stroke="midnightblue" points="803.143,-208.632 799.369,-198.732 796.146,-208.825 803.143,-208.632"/>
</g>
<!-- Node30 -->
<g id="node30" class="node"><title>Node30</title>
<polygon fill="white" stroke="#bfbfbf" points="701.5,-297 701.5,-316 750.5,-316 750.5,-297 701.5,-297"/>
<text text-anchor="middle" x="726" y="-304" font-family="Helvetica,sans-Serif" font-size="10.00">cstring</text>
</g>
<!-- Node15&#45;&gt;Node30 -->
<g id="edge61" class="edge"><title>Node15&#45;&gt;Node30</title>
<path fill="none" stroke="midnightblue" d="M771.406,-358.475C763.299,-349.373 750.265,-334.741 740.237,-323.483"/>
<polygon fill="midnightblue" stroke="midnightblue" points="742.844,-321.148 733.58,-316.009 737.617,-325.804 742.844,-321.148"/>
</g>
<!-- Node31 -->
<g id="node31" class="node"><title>Node31</title>
<polygon fill="white" stroke="#bfbfbf" points="845.5,-297 845.5,-316 922.5,-316 922.5,-297 845.5,-297"/>
<text text-anchor="middle" x="884" y="-304" font-family="Helvetica,sans-Serif" font-size="10.00">initializer_list</text>
</g>
<!-- Node15&#45;&gt;Node31 -->
<g id="edge62" class="edge"><title>Node15&#45;&gt;Node31</title>
<path fill="none" stroke="midnightblue" d="M794.044,-358.475C811.275,-348.711 839.74,-332.581 860.034,-321.081"/>
<polygon fill="midnightblue" stroke="midnightblue" points="862.009,-323.984 868.984,-316.009 858.558,-317.894 862.009,-323.984"/>
</g>
<!-- Node16&#45;&gt;Node3 -->
<g id="edge22" class="edge"><title>Node16&#45;&gt;Node3</title>
<path fill="none" stroke="midnightblue" d="M383.736,-183.041C514.205,-172.889 810.723,-149.817 945.293,-139.346"/>
<polygon fill="midnightblue" stroke="midnightblue" points="945.776,-142.819 955.474,-138.554 945.233,-135.84 945.776,-142.819"/>
</g>
<!-- Node16&#45;&gt;Node9 -->
<g id="edge25" class="edge"><title>Node16&#45;&gt;Node9</title>
<path fill="none" stroke="midnightblue" d="M308.801,-179.319C283.561,-159.753 221.979,-112.017 190.389,-87.5295"/>
<polygon fill="midnightblue" stroke="midnightblue" points="192.377,-84.6424 182.329,-81.282 188.088,-90.1748 192.377,-84.6424"/>
</g>
<!-- Node16&#45;&gt;Node11 -->
<g id="edge24" class="edge"><title>Node16&#45;&gt;Node11</title>
<path fill="none" stroke="midnightblue" d="M334.055,-179.319C366.217,-159.454 445.396,-110.55 484.46,-86.4219"/>
<polygon fill="midnightblue" stroke="midnightblue" points="486.368,-89.3572 493.037,-81.1245 482.689,-83.4016 486.368,-89.3572"/>
</g>
<!-- Node17 -->
<g id="node17" class="node"><title>Node17</title>
<polygon fill="white" stroke="#bfbfbf" points="296.5,-123.5 296.5,-142.5 343.5,-142.5 343.5,-123.5 296.5,-123.5"/>
<text text-anchor="middle" x="320" y="-130.5" font-family="Helvetica,sans-Serif" font-size="10.00">cstdlib</text>
</g>
<!-- Node16&#45;&gt;Node17 -->
<g id="edge23" class="edge"><title>Node16&#45;&gt;Node17</title>
<path fill="none" stroke="midnightblue" d="M320,-179.083C320,-172.006 320,-161.861 320,-152.986"/>
<polygon fill="midnightblue" stroke="midnightblue" points="323.5,-152.751 320,-142.751 316.5,-152.751 323.5,-152.751"/>
</g>
<!-- Node18&#45;&gt;Node3 -->
<g id="edge52" class="edge"><title>Node18&#45;&gt;Node3</title>
<path fill="none" stroke="midnightblue" d="M1252.95,-291.358C1231.95,-275.541 1195.72,-250.158 1161,-235 1102.52,-209.463 1064.08,-246.981 1022,-199 1011.12,-186.589 1010,-167.348 1011.08,-153.017"/>
<polygon fill="midnightblue" stroke="midnightblue" points="1014.59,-153.137 1012.27,-142.8 1007.64,-152.329 1014.59,-153.137"/>
</g>
<!-- Node18&#45;&gt;Node4 -->
<g id="edge28" class="edge"><title>Node18&#45;&gt;Node4</title>
<path fill="none" stroke="midnightblue" d="M1214.08,-296.763C1174.92,-289.264 1122.5,-276.224 1080,-255 1010.56,-220.322 986.815,-209.021 946,-143 936.226,-127.191 931.416,-106.364 929.089,-91.453"/>
<polygon fill="midnightblue" stroke="midnightblue" points="932.538,-90.8378 927.753,-81.3851 925.599,-91.7587 932.538,-90.8378"/>
</g>
<!-- Node18&#45;&gt;Node5 -->
<g id="edge29" class="edge"><title>Node18&#45;&gt;Node5</title>
<path fill="none" stroke="midnightblue" d="M1327.75,-299.853C1386.57,-293.009 1480.69,-279.26 1559,-255 1559.22,-254.931 1681.82,-199.145 1682,-199 1706.89,-179.443 1713.17,-171.936 1726,-143 1732.43,-128.491 1735.43,-110.894 1736.82,-96.9101"/>
<polygon fill="midnightblue" stroke="midnightblue" points="1740.34,-96.8406 1737.63,-86.598 1733.36,-96.2946 1740.34,-96.8406"/>
</g>
<!-- Node18&#45;&gt;Node9 -->
<g id="edge60" class="edge"><title>Node18&#45;&gt;Node9</title>
<path fill="none" stroke="midnightblue" d="M1214.23,-302.963C1057.97,-295.805 623.732,-274.689 482,-255 364.919,-238.736 319.17,-266.309 222,-199 186.256,-174.241 175.55,-119.916 172.353,-91.1787"/>
<polygon fill="midnightblue" stroke="midnightblue" points="175.838,-90.8532 171.436,-81.2161 168.868,-91.4949 175.838,-90.8532"/>
</g>
<!-- Node18&#45;&gt;Node10 -->
<g id="edge56" class="edge"><title>Node18&#45;&gt;Node10</title>
<path fill="none" stroke="midnightblue" d="M1327.77,-301.808C1393.39,-296.369 1504.02,-283.565 1595,-255 1614.34,-248.927 1617.23,-242.659 1636,-235 1782.14,-175.381 1821.44,-167.061 1973,-123 2032.43,-105.724 2102.71,-88.9693 2142.75,-79.7653"/>
<polygon fill="midnightblue" stroke="midnightblue" points="2143.76,-83.1243 2152.73,-77.4838 2142.2,-76.3003 2143.76,-83.1243"/>
</g>
<!-- Node18&#45;&gt;Node11 -->
<g id="edge59" class="edge"><title>Node18&#45;&gt;Node11</title>
<path fill="none" stroke="midnightblue" d="M1214.43,-295.513C1166.9,-286.582 1097.42,-272.258 1038,-255 943.884,-227.666 923.566,-211.195 831,-179 723.903,-141.75 595.729,-100.634 537.942,-82.2809"/>
<polygon fill="midnightblue" stroke="midnightblue" points="538.904,-78.9143 528.314,-79.2269 536.787,-85.5867 538.904,-78.9143"/>
</g>
<!-- Node18&#45;&gt;Node13 -->
<g id="edge51" class="edge"><title>Node18&#45;&gt;Node13</title>
<path fill="none" stroke="midnightblue" d="M1327.68,-299.121C1412.39,-289.579 1577.06,-270.996 1717,-255 1717.1,-254.988 1717.2,-254.977 1717.3,-254.965"/>
<polygon fill="midnightblue" stroke="midnightblue" points="1717.4,-258.477 1726.94,-253.862 1716.6,-251.523 1717.4,-258.477"/>
</g>
<!-- Node19 -->
<g id="node19" class="node"><title>Node19</title>
<g id="a_node19"><a xlink:href="runtime_2module_8h.html" target="_top" xlink:title="Runtime container of the functions generated by TVM, This is used to support dynamically link...">
<polygon fill="white" stroke="black" points="1209,-235.5 1209,-254.5 1333,-254.5 1333,-235.5 1209,-235.5"/>
<text text-anchor="middle" x="1271" y="-242.5" font-family="Helvetica,sans-Serif" font-size="10.00">tvm/runtime/module.h</text>
</a>
</g>
</g>
<!-- Node18&#45;&gt;Node19 -->
<g id="edge30" class="edge"><title>Node18&#45;&gt;Node19</title>
<path fill="none" stroke="midnightblue" d="M1265.16,-291.399C1264.13,-283.377 1263.97,-273.233 1264.69,-264.569"/>
<polygon fill="midnightblue" stroke="midnightblue" points="1268.16,-265.044 1266.07,-254.658 1261.23,-264.081 1268.16,-265.044"/>
</g>
<!-- Node21 -->
<g id="node21" class="node"><title>Node21</title>
<polygon fill="white" stroke="#bfbfbf" points="1031.5,-179.5 1031.5,-198.5 1088.5,-198.5 1088.5,-179.5 1031.5,-179.5"/>
<text text-anchor="middle" x="1060" y="-186.5" font-family="Helvetica,sans-Serif" font-size="10.00">memory</text>
</g>
<!-- Node18&#45;&gt;Node21 -->
<g id="edge58" class="edge"><title>Node18&#45;&gt;Node21</title>
<path fill="none" stroke="midnightblue" d="M1214.11,-292.973C1172.33,-282.956 1119.88,-268.417 1102,-255 1085.92,-242.93 1074.28,-222.756 1067.39,-208.079"/>
<polygon fill="midnightblue" stroke="midnightblue" points="1070.44,-206.311 1063.22,-198.558 1064.03,-209.122 1070.44,-206.311"/>
</g>
<!-- Node18&#45;&gt;Node22 -->
<g id="edge55" class="edge"><title>Node18&#45;&gt;Node22</title>
<path fill="none" stroke="midnightblue" d="M1214.31,-297.643C1157.77,-289.236 1068.66,-274.44 993,-255 934.733,-240.029 868.65,-216.417 830.597,-202.15"/>
<polygon fill="midnightblue" stroke="midnightblue" points="831.684,-198.82 821.092,-198.562 829.212,-205.369 831.684,-198.82"/>
</g>
<!-- Node24 -->
<g id="node24" class="node"><title>Node24</title>
<g id="a_node24"><a xlink:href="ndarray_8h.html" target="_top" xlink:title="A device&#45;independent managed NDArray abstraction. ">
<polygon fill="white" stroke="black" points="1427.5,-235.5 1427.5,-254.5 1550.5,-254.5 1550.5,-235.5 1427.5,-235.5"/>
<text text-anchor="middle" x="1489" y="-242.5" font-family="Helvetica,sans-Serif" font-size="10.00">tvm/runtime/ndarray.h</text>
</a>
</g>
</g>
<!-- Node18&#45;&gt;Node24 -->
<g id="edge40" class="edge"><title>Node18&#45;&gt;Node24</title>
<path fill="none" stroke="midnightblue" d="M1322.39,-291.475C1360.65,-281.03 1412.21,-266.958 1447.79,-257.247"/>
<polygon fill="midnightblue" stroke="midnightblue" points="1449.11,-260.516 1457.83,-254.506 1447.27,-253.763 1449.11,-260.516"/>
</g>
<!-- Node27 -->
<g id="node27" class="node"><title>Node27</title>
<polygon fill="white" stroke="#bfbfbf" points="1645.5,-235.5 1645.5,-254.5 1708.5,-254.5 1708.5,-235.5 1645.5,-235.5"/>
<text text-anchor="middle" x="1677" y="-242.5" font-family="Helvetica,sans-Serif" font-size="10.00">functional</text>
</g>
<!-- Node18&#45;&gt;Node27 -->
<g id="edge53" class="edge"><title>Node18&#45;&gt;Node27</title>
<path fill="none" stroke="midnightblue" d="M1327.57,-298.521C1398.6,-289.54 1524.1,-272.942 1631,-255 1632.45,-254.756 1633.93,-254.501 1635.43,-254.239"/>
<polygon fill="midnightblue" stroke="midnightblue" points="1636.16,-257.663 1645.37,-252.421 1634.9,-250.777 1636.16,-257.663"/>
</g>
<!-- Node28 -->
<g id="node28" class="node"><title>Node28</title>
<polygon fill="white" stroke="#bfbfbf" points="1111.5,-235.5 1111.5,-254.5 1152.5,-254.5 1152.5,-235.5 1111.5,-235.5"/>
<text text-anchor="middle" x="1132" y="-242.5" font-family="Helvetica,sans-Serif" font-size="10.00">tuple</text>
</g>
<!-- Node18&#45;&gt;Node28 -->
<g id="edge54" class="edge"><title>Node18&#45;&gt;Node28</title>
<path fill="none" stroke="midnightblue" d="M1238.06,-291.399C1214.84,-281.461 1184.01,-268.265 1161.58,-258.662"/>
<polygon fill="midnightblue" stroke="midnightblue" points="1162.8,-255.375 1152.23,-254.658 1160.04,-261.811 1162.8,-255.375"/>
</g>
<!-- Node29 -->
<g id="node29" class="node"><title>Node29</title>
<polygon fill="white" stroke="#bfbfbf" points="1957,-235.5 1957,-254.5 1999,-254.5 1999,-235.5 1957,-235.5"/>
<text text-anchor="middle" x="1978" y="-242.5" font-family="Helvetica,sans-Serif" font-size="10.00">limits</text>
</g>
<!-- Node18&#45;&gt;Node29 -->
<g id="edge57" class="edge"><title>Node18&#45;&gt;Node29</title>
<path fill="none" stroke="midnightblue" d="M1327.76,-300.747C1434.39,-291.815 1671.93,-271.899 1872,-255 1897.19,-252.872 1925.75,-250.447 1946.87,-248.651"/>
<polygon fill="midnightblue" stroke="midnightblue" points="1947.22,-252.134 1956.88,-247.798 1946.62,-245.159 1947.22,-252.134"/>
</g>
<!-- Node19&#45;&gt;Node3 -->
<g id="edge33" class="edge"><title>Node19&#45;&gt;Node3</title>
<path fill="none" stroke="midnightblue" d="M1250.67,-235.403C1229.32,-226.37 1194.78,-211.731 1165,-199 1122.61,-180.879 1073.6,-159.749 1043.2,-146.621"/>
<polygon fill="midnightblue" stroke="midnightblue" points="1044.58,-143.406 1034.02,-142.654 1041.81,-149.832 1044.58,-143.406"/>
</g>
<!-- Node19&#45;&gt;Node5 -->
<g id="edge32" class="edge"><title>Node19&#45;&gt;Node5</title>
<path fill="none" stroke="midnightblue" d="M1333.06,-239.17C1411.59,-232.366 1541.95,-218.565 1586,-199 1641.35,-174.414 1692.6,-123.641 1719.11,-94.4477"/>
<polygon fill="midnightblue" stroke="midnightblue" points="1721.87,-96.6163 1725.92,-86.8258 1716.65,-91.9543 1721.87,-96.6163"/>
</g>
<!-- Node19&#45;&gt;Node10 -->
<g id="edge37" class="edge"><title>Node19&#45;&gt;Node10</title>
<path fill="none" stroke="midnightblue" d="M1333.3,-238.502C1402.9,-231.757 1518.71,-218.73 1617,-199 1742.58,-173.792 1770.07,-151.284 1895,-123 1984.02,-102.847 2090.4,-85.4777 2142.71,-77.3725"/>
<polygon fill="midnightblue" stroke="midnightblue" points="2143.37,-80.8112 2152.72,-75.8313 2142.31,-73.8926 2143.37,-80.8112"/>
</g>
<!-- Node19&#45;&gt;Node16 -->
<g id="edge34" class="edge"><title>Node19&#45;&gt;Node16</title>
<path fill="none" stroke="midnightblue" d="M1208.78,-238.601C1193.18,-237.333 1176.49,-236.048 1161,-235 877.676,-215.833 540.204,-199.849 393.808,-193.249"/>
<polygon fill="midnightblue" stroke="midnightblue" points="393.748,-189.743 383.601,-192.79 393.434,-196.736 393.748,-189.743"/>
</g>
<!-- Node19&#45;&gt;Node18 -->
<g id="edge39" class="edge"><title>Node19&#45;&gt;Node18</title>
<path fill="none" stroke="midnightblue" d="M1275.93,-254.658C1277.43,-261.655 1278.01,-271.857 1277.64,-281.289"/>
<polygon fill="midnightblue" stroke="midnightblue" points="1274.14,-281.153 1276.84,-291.399 1281.12,-281.709 1274.14,-281.153"/>
</g>
<!-- Node20 -->
<g id="node20" class="node"><title>Node20</title>
<polygon fill="white" stroke="#bfbfbf" points="1367,-123.5 1367,-142.5 1427,-142.5 1427,-123.5 1367,-123.5"/>
<text text-anchor="middle" x="1397" y="-130.5" font-family="Helvetica,sans-Serif" font-size="10.00">dmlc/io.h</text>
</g>
<!-- Node19&#45;&gt;Node20 -->
<g id="edge31" class="edge"><title>Node19&#45;&gt;Node20</title>
<path fill="none" stroke="midnightblue" d="M1236.53,-235.488C1200.66,-224.995 1152.5,-205.277 1174,-179 1196.61,-151.377 1298.46,-140.327 1356.38,-136.218"/>
<polygon fill="midnightblue" stroke="midnightblue" points="1356.92,-139.691 1366.66,-135.53 1356.45,-132.706 1356.92,-139.691"/>
</g>
<!-- Node19&#45;&gt;Node21 -->
<g id="edge35" class="edge"><title>Node19&#45;&gt;Node21</title>
<path fill="none" stroke="midnightblue" d="M1237.57,-235.444C1199.72,-225.759 1138.19,-210.01 1098.4,-199.829"/>
<polygon fill="midnightblue" stroke="midnightblue" points="1099.1,-196.393 1088.54,-197.304 1097.36,-203.174 1099.1,-196.393"/>
</g>
<!-- Node19&#45;&gt;Node22 -->
<g id="edge36" class="edge"><title>Node19&#45;&gt;Node22</title>
<path fill="none" stroke="midnightblue" d="M1208.81,-236.885C1107.92,-225.342 911.92,-202.919 833.07,-193.898"/>
<polygon fill="midnightblue" stroke="midnightblue" points="833.077,-190.376 822.744,-192.716 832.281,-197.331 833.077,-190.376"/>
</g>
<!-- Node23 -->
<g id="node23" class="node"><title>Node23</title>
<polygon fill="white" stroke="#bfbfbf" points="1183.5,-179.5 1183.5,-198.5 1276.5,-198.5 1276.5,-179.5 1183.5,-179.5"/>
<text text-anchor="middle" x="1230" y="-186.5" font-family="Helvetica,sans-Serif" font-size="10.00">unordered_map</text>
</g>
<!-- Node19&#45;&gt;Node23 -->
<g id="edge38" class="edge"><title>Node19&#45;&gt;Node23</title>
<path fill="none" stroke="midnightblue" d="M1264.23,-235.083C1258.44,-227.455 1249.94,-216.264 1242.86,-206.941"/>
<polygon fill="midnightblue" stroke="midnightblue" points="1245.48,-204.599 1236.64,-198.751 1239.9,-208.832 1245.48,-204.599"/>
</g>
<!-- Node24&#45;&gt;Node3 -->
<g id="edge42" class="edge"><title>Node24&#45;&gt;Node3</title>
<path fill="none" stroke="midnightblue" d="M1465.04,-235.495C1440.36,-226.656 1400.83,-212.282 1367,-199 1345.49,-190.555 1341.27,-185.179 1319,-179 1239.49,-156.939 1145.13,-145.129 1082.64,-139.224"/>
<polygon fill="midnightblue" stroke="midnightblue" points="1082.79,-135.723 1072.51,-138.292 1082.15,-142.694 1082.79,-135.723"/>
</g>
<!-- Node24&#45;&gt;Node5 -->
<g id="edge41" class="edge"><title>Node24&#45;&gt;Node5</title>
<path fill="none" stroke="midnightblue" d="M1535.06,-235.425C1577.75,-226.814 1637.5,-212.868 1657,-199 1693.5,-173.043 1717.48,-124.977 1729.32,-96.1508"/>
<polygon fill="midnightblue" stroke="midnightblue" points="1732.58,-97.4116 1732.99,-86.8249 1726.07,-94.8428 1732.58,-97.4116"/>
</g>
<!-- Node24&#45;&gt;Node11 -->
<g id="edge50" class="edge"><title>Node24&#45;&gt;Node11</title>
<path fill="none" stroke="midnightblue" d="M1474.49,-235.296C1450.74,-221.411 1401.72,-194.263 1357,-179 1238.54,-138.574 1204.87,-140.958 1081,-123 875.213,-93.167 625.185,-78.487 538.428,-74.0209"/>
<polygon fill="midnightblue" stroke="midnightblue" points="538.373,-70.5137 528.209,-73.5035 538.019,-77.5047 538.373,-70.5137"/>
</g>
<!-- Node24&#45;&gt;Node12 -->
<g id="edge48" class="edge"><title>Node24&#45;&gt;Node12</title>
<path fill="none" stroke="midnightblue" d="M1531.39,-235.451C1551.58,-229.022 1573.91,-217.933 1586,-199 1605.48,-168.495 1558.24,-129.769 1548,-123 1511.82,-99.094 1387.22,-82.8551 1325.38,-76.0715"/>
<polygon fill="midnightblue" stroke="midnightblue" points="1325.63,-72.5777 1315.31,-74.9895 1324.88,-79.5376 1325.63,-72.5777"/>
</g>
<!-- Node24&#45;&gt;Node22 -->
<g id="edge49" class="edge"><title>Node24&#45;&gt;Node22</title>
<path fill="none" stroke="midnightblue" d="M1427.46,-239.184C1286.01,-228.114 941.526,-201.154 832.599,-192.629"/>
<polygon fill="midnightblue" stroke="midnightblue" points="832.76,-189.131 822.517,-191.84 832.213,-196.11 832.76,-189.131"/>
</g>
<!-- Node25 -->
<g id="node25" class="node"><title>Node25</title>
<g id="a_node25"><a xlink:href="serializer_8h.html" target="_top" xlink:title="Serializer extension to support TVM data types Include this file to enable serialization of DLDataTyp...">
<polygon fill="white" stroke="black" points="1447,-179.5 1447,-198.5 1577,-198.5 1577,-179.5 1447,-179.5"/>
<text text-anchor="middle" x="1512" y="-186.5" font-family="Helvetica,sans-Serif" font-size="10.00">tvm/runtime/serializer.h</text>
</a>
</g>
</g>
<!-- Node24&#45;&gt;Node25 -->
<g id="edge43" class="edge"><title>Node24&#45;&gt;Node25</title>
<path fill="none" stroke="midnightblue" d="M1487.63,-235.083C1489.24,-227.613 1493.48,-216.724 1498.17,-207.52"/>
<polygon fill="midnightblue" stroke="midnightblue" points="1501.26,-209.177 1503.14,-198.751 1495.17,-205.725 1501.26,-209.177"/>
</g>
<!-- Node25&#45;&gt;Node5 -->
<g id="edge46" class="edge"><title>Node25&#45;&gt;Node5</title>
<path fill="none" stroke="midnightblue" d="M1528.99,-179.319C1565.44,-160.689 1651.87,-116.516 1701.42,-91.1943"/>
<polygon fill="midnightblue" stroke="midnightblue" points="1703.21,-94.2127 1710.52,-86.5453 1700.02,-87.9795 1703.21,-94.2127"/>
</g>
<!-- Node25&#45;&gt;Node20 -->
<g id="edge44" class="edge"><title>Node25&#45;&gt;Node20</title>
<path fill="none" stroke="midnightblue" d="M1493.78,-179.444C1475.1,-170.675 1445.84,-156.935 1424.38,-146.858"/>
<polygon fill="midnightblue" stroke="midnightblue" points="1425.68,-143.599 1415.14,-142.516 1422.7,-149.935 1425.68,-143.599"/>
</g>
<!-- Node25&#45;&gt;Node24 -->
<g id="edge47" class="edge"><title>Node25&#45;&gt;Node24</title>
<path fill="none" stroke="midnightblue" d="M1513.4,-198.751C1511.84,-206.17 1507.62,-217.045 1502.93,-226.275"/>
<polygon fill="midnightblue" stroke="midnightblue" points="1499.83,-224.653 1497.96,-235.083 1505.93,-228.092 1499.83,-224.653"/>
</g>
<!-- Node26 -->
<g id="node26" class="node"><title>Node26</title>
<polygon fill="white" stroke="#bfbfbf" points="1445,-123.5 1445,-142.5 1539,-142.5 1539,-123.5 1445,-123.5"/>
<text text-anchor="middle" x="1492" y="-130.5" font-family="Helvetica,sans-Serif" font-size="10.00">dmlc/serializer.h</text>
</g>
<!-- Node25&#45;&gt;Node26 -->
<g id="edge45" class="edge"><title>Node25&#45;&gt;Node26</title>
<path fill="none" stroke="midnightblue" d="M1508.7,-179.083C1506.02,-171.849 1502.15,-161.409 1498.81,-152.397"/>
<polygon fill="midnightblue" stroke="midnightblue" points="1502,-150.913 1495.24,-142.751 1495.43,-153.344 1502,-150.913"/>
</g>
<!-- Node32&#45;&gt;Node3 -->
<g id="edge71" class="edge"><title>Node32&#45;&gt;Node3</title>
<path fill="none" stroke="midnightblue" d="M1369.44,-537.097C1363.35,-522.399 1350.02,-492.454 1334,-470 1269.91,-380.191 1252.46,-354.161 1162,-291 1096.94,-245.576 1043.62,-270.396 1009,-199 1001.91,-184.375 1004.35,-165.703 1007.85,-152.128"/>
<polygon fill="midnightblue" stroke="midnightblue" points="1011.22,-153.091 1010.74,-142.508 1004.51,-151.083 1011.22,-153.091"/>
</g>
<!-- Node32&#45;&gt;Node5 -->
<g id="edge70" class="edge"><title>Node32&#45;&gt;Node5</title>
<path fill="none" stroke="midnightblue" d="M1432.76,-545.76C1546.51,-544.455 1789.47,-537.351 1864,-501 1900.74,-483.082 1902.37,-466.621 1927,-434 1957.25,-393.929 2057.81,-279.204 2034,-235 1989.26,-151.942 1883.79,-109.093 1811.63,-88.7227"/>
<polygon fill="midnightblue" stroke="midnightblue" points="1812.25,-85.2631 1801.68,-85.9957 1810.4,-92.0142 1812.25,-85.2631"/>
</g>
<!-- Node32&#45;&gt;Node9 -->
<g id="edge104" class="edge"><title>Node32&#45;&gt;Node9</title>
<path fill="none" stroke="midnightblue" d="M1313.45,-544.12C1167.5,-539.198 795.018,-524.656 673,-501 579.727,-482.917 557.766,-470.387 470,-434 317.072,-370.598 253.3,-347.927 181,-199 165.964,-168.028 164.302,-157.387 166,-123 166.525,-112.375 167.667,-100.537 168.727,-90.9956"/>
<polygon fill="midnightblue" stroke="midnightblue" points="172.204,-91.3985 169.893,-81.0588 165.252,-90.5831 172.204,-91.3985"/>
</g>
<!-- Node32&#45;&gt;Node10 -->
<g id="edge103" class="edge"><title>Node32&#45;&gt;Node10</title>
<path fill="none" stroke="midnightblue" d="M1432.54,-545.828C1551.96,-544.687 1816.31,-537.925 1898,-501 2067.57,-424.354 2113.21,-369.394 2188,-199 2201.91,-167.306 2214.17,-156.377 2205,-123 2201.68,-110.905 2194.62,-98.7742 2188.19,-89.4347"/>
<polygon fill="midnightblue" stroke="midnightblue" points="2190.85,-87.1408 2182.12,-81.13 2185.19,-91.2697 2190.85,-87.1408"/>
</g>
<!-- Node32&#45;&gt;Node13 -->
<g id="edge75" class="edge"><title>Node32&#45;&gt;Node13</title>
<path fill="none" stroke="midnightblue" d="M1432.59,-545.134C1573.03,-541.486 1913,-522.576 1913,-425 1913,-425 1913,-425 1913,-367 1913,-315.772 1858.12,-278.141 1823.21,-259.386"/>
<polygon fill="midnightblue" stroke="midnightblue" points="1824.45,-256.086 1813.96,-254.602 1821.23,-262.304 1824.45,-256.086"/>
</g>
<!-- Node32&#45;&gt;Node16 -->
<g id="edge72" class="edge"><title>Node32&#45;&gt;Node16</title>
<path fill="none" stroke="midnightblue" d="M1313.39,-542.429C1227.4,-536.728 1063.74,-523.82 926,-501 687.436,-461.475 610.342,-489.948 396,-378 363.087,-360.81 352.714,-354.071 334,-322 313.166,-286.297 314.655,-235.821 317.412,-208.802"/>
<polygon fill="midnightblue" stroke="midnightblue" points="320.9,-209.115 318.611,-198.771 313.949,-208.285 320.9,-209.115"/>
</g>
<!-- Node32&#45;&gt;Node18 -->
<g id="edge73" class="edge"><title>Node32&#45;&gt;Node18</title>
<path fill="none" stroke="midnightblue" d="M1373.72,-537.328C1374.64,-522.962 1375.31,-493.482 1368,-470 1350.93,-415.182 1311.96,-359.484 1288.95,-329.65"/>
<polygon fill="midnightblue" stroke="midnightblue" points="1291.56,-327.309 1282.64,-321.598 1286.05,-331.627 1291.56,-327.309"/>
</g>
<!-- Node32&#45;&gt;Node22 -->
<g id="edge102" class="edge"><title>Node32&#45;&gt;Node22</title>
<path fill="none" stroke="midnightblue" d="M1313.27,-539.066C1165.59,-520.711 789.109,-466.136 704,-378 676.886,-349.922 676.544,-326.842 692,-291 701.212,-269.636 751.489,-227.539 779.727,-205.03"/>
<polygon fill="midnightblue" stroke="midnightblue" points="782.038,-207.665 787.713,-198.718 777.697,-202.173 782.038,-207.665"/>
</g>
<!-- Node32&#45;&gt;Node24 -->
<g id="edge74" class="edge"><title>Node32&#45;&gt;Node24</title>
<path fill="none" stroke="midnightblue" d="M1380.71,-537.307C1396.71,-518.351 1432,-471.275 1432,-425 1432,-425 1432,-425 1432,-367 1432,-326.59 1458.34,-285.206 1475.21,-262.845"/>
<polygon fill="midnightblue" stroke="midnightblue" points="1478.15,-264.772 1481.55,-254.738 1472.63,-260.46 1478.15,-264.772"/>
</g>
<!-- Node32&#45;&gt;Node33 -->
<g id="edge76" class="edge"><title>Node32&#45;&gt;Node33</title>
<path fill="none" stroke="midnightblue" d="M1358.24,-537.475C1343.9,-529.191 1321.63,-516.325 1303.05,-505.591"/>
<polygon fill="midnightblue" stroke="midnightblue" points="1304.68,-502.494 1294.28,-500.523 1301.18,-508.556 1304.68,-502.494"/>
</g>
<!-- Node32&#45;&gt;Node36 -->
<g id="edge96" class="edge"><title>Node32&#45;&gt;Node36</title>
<path fill="none" stroke="midnightblue" d="M1393.49,-537.475C1414.12,-528.889 1446.58,-515.383 1472.91,-504.429"/>
<polygon fill="midnightblue" stroke="midnightblue" points="1474.41,-507.596 1482.3,-500.523 1471.72,-501.133 1474.41,-507.596"/>
</g>
<!-- Node33&#45;&gt;Node10 -->
<g id="edge95" class="edge"><title>Node33&#45;&gt;Node10</title>
<path fill="none" stroke="midnightblue" d="M1325.58,-479.778C1459.16,-466.056 1804.15,-416.296 2034,-255 2089.36,-216.153 2097.76,-198.081 2137,-143 2148.94,-126.232 2159.78,-105.277 2166.8,-90.5878"/>
<polygon fill="midnightblue" stroke="midnightblue" points="2170.15,-91.6911 2171.2,-81.1482 2163.8,-88.7365 2170.15,-91.6911"/>
</g>
<!-- Node33&#45;&gt;Node13 -->
<g id="edge77" class="edge"><title>Node33&#45;&gt;Node13</title>
<path fill="none" stroke="midnightblue" d="M1300.88,-470.471C1394.84,-427.787 1676.34,-299.904 1766.73,-258.843"/>
<polygon fill="midnightblue" stroke="midnightblue" points="1768.41,-261.923 1776.07,-254.601 1765.52,-255.55 1768.41,-261.923"/>
</g>
<!-- Node34 -->
<g id="node34" class="node"><title>Node34</title>
<g id="a_node34"><a xlink:href="functor_8h.html" target="_top" xlink:title="Defines the Functor data structures. ">
<polygon fill="white" stroke="black" points="491.5,-235.5 491.5,-254.5 598.5,-254.5 598.5,-235.5 491.5,-235.5"/>
<text text-anchor="middle" x="545" y="-242.5" font-family="Helvetica,sans-Serif" font-size="10.00">tvm/node/functor.h</text>
</a>
</g>
</g>
<!-- Node33&#45;&gt;Node34 -->
<g id="edge78" class="edge"><title>Node33&#45;&gt;Node34</title>
<path fill="none" stroke="midnightblue" d="M1214.3,-477.03C1112.06,-462.656 888.036,-428.076 704,-378 631.707,-358.329 588.293,-383.147 545,-322 533.354,-305.551 535.606,-281.673 539.317,-265.089"/>
<polygon fill="midnightblue" stroke="midnightblue" points="542.823,-265.513 541.966,-254.953 536.051,-263.743 542.823,-265.513"/>
</g>
<!-- Node33&#45;&gt;Node35 -->
<g id="edge84" class="edge"><title>Node33&#45;&gt;Node35</title>
<path fill="none" stroke="midnightblue" d="M1220.5,-470.475C1183.64,-460.03 1133.97,-445.958 1099.69,-436.247"/>
<polygon fill="midnightblue" stroke="midnightblue" points="1100.6,-432.865 1090.02,-433.506 1098.69,-439.6 1100.6,-432.865"/>
</g>
<!-- Node34&#45;&gt;Node3 -->
<g id="edge80" class="edge"><title>Node34&#45;&gt;Node3</title>
<path fill="none" stroke="midnightblue" d="M561.115,-235.288C588.028,-221.139 644.187,-193.311 695,-179 779.318,-155.253 879.867,-143.719 945.225,-138.343"/>
<polygon fill="midnightblue" stroke="midnightblue" points="945.714,-141.815 955.405,-137.532 945.158,-134.838 945.714,-141.815"/>
</g>
<!-- Node34&#45;&gt;Node4 -->
<g id="edge79" class="edge"><title>Node34&#45;&gt;Node4</title>
<path fill="none" stroke="midnightblue" d="M548.057,-235.189C556.464,-212.388 582.258,-151.257 626,-123 666.011,-97.1527 798.29,-82.7023 873.498,-76.3895"/>
<polygon fill="midnightblue" stroke="midnightblue" points="874.035,-79.8573 883.716,-75.5524 873.463,-72.8807 874.035,-79.8573"/>
</g>
<!-- Node34&#45;&gt;Node9 -->
<g id="edge82" class="edge"><title>Node34&#45;&gt;Node9</title>
<path fill="none" stroke="midnightblue" d="M491.214,-241.324C416.469,-236.702 285.971,-225.084 247,-199 207.903,-172.832 185.792,-119.12 176.414,-90.8409"/>
<polygon fill="midnightblue" stroke="midnightblue" points="179.675,-89.5422 173.343,-81.0478 172.996,-91.637 179.675,-89.5422"/>
</g>
<!-- Node34&#45;&gt;Node11 -->
<g id="edge83" class="edge"><title>Node34&#45;&gt;Node11</title>
<path fill="none" stroke="midnightblue" d="M543.063,-235.26C537.142,-208.536 519.19,-127.517 511.068,-90.8618"/>
<polygon fill="midnightblue" stroke="midnightblue" points="514.468,-90.0254 508.888,-81.0194 507.634,-91.5397 514.468,-90.0254"/>
</g>
<!-- Node34&#45;&gt;Node22 -->
<g id="edge81" class="edge"><title>Node34&#45;&gt;Node22</title>
<path fill="none" stroke="midnightblue" d="M585.247,-235.444C635.056,-224.854 718.967,-207.015 765.458,-197.131"/>
<polygon fill="midnightblue" stroke="midnightblue" points="766.28,-200.535 775.333,-195.032 764.824,-193.688 766.28,-200.535"/>
</g>
<!-- Node35&#45;&gt;Node3 -->
<g id="edge85" class="edge"><title>Node35&#45;&gt;Node3</title>
<path fill="none" stroke="midnightblue" d="M1119.64,-421.943C1189.88,-417.118 1303.95,-397.304 1359,-322 1381.83,-290.767 1379.56,-269.477 1362,-235 1357.2,-225.573 1294.76,-183.087 1285,-179 1275.55,-175.043 1156.75,-156.133 1079.62,-144.12"/>
<polygon fill="midnightblue" stroke="midnightblue" points="1079.91,-140.624 1069.49,-142.546 1078.84,-147.541 1079.91,-140.624"/>
</g>
<!-- Node35&#45;&gt;Node9 -->
<g id="edge89" class="edge"><title>Node35&#45;&gt;Node9</title>
<path fill="none" stroke="midnightblue" d="M1000.41,-422.346C915.861,-420.182 756.798,-411.526 626,-378 563.871,-362.075 542.984,-362.189 493,-322 408.524,-254.079 440.764,-185.213 352,-123 311.045,-94.2955 254.234,-81.8601 215.243,-76.5023"/>
<polygon fill="midnightblue" stroke="midnightblue" points="215.604,-73.0199 205.242,-75.2289 214.719,-79.9639 215.604,-73.0199"/>
</g>
<!-- Node35&#45;&gt;Node10 -->
<g id="edge94" class="edge"><title>Node35&#45;&gt;Node10</title>
<path fill="none" stroke="midnightblue" d="M1119.67,-417.503C1302.62,-399.87 1852.64,-340.819 2008,-255 2027.43,-244.266 2124.41,-131.829 2161,-88.9693"/>
<polygon fill="midnightblue" stroke="midnightblue" points="2163.83,-91.039 2167.65,-81.1577 2158.5,-86.4985 2163.83,-91.039"/>
</g>
<!-- Node35&#45;&gt;Node11 -->
<g id="edge93" class="edge"><title>Node35&#45;&gt;Node11</title>
<path fill="none" stroke="midnightblue" d="M1000.37,-421.866C928.536,-419.054 804.929,-409.564 704,-378 591.112,-342.696 532.902,-353.883 468,-255 435.794,-205.932 450.558,-177.637 472,-123 476.843,-110.659 485.233,-98.3984 492.584,-89.0487"/>
<polygon fill="midnightblue" stroke="midnightblue" points="495.503,-91.0108 499.164,-81.0689 490.102,-86.5574 495.503,-91.0108"/>
</g>
<!-- Node35&#45;&gt;Node15 -->
<g id="edge88" class="edge"><title>Node35&#45;&gt;Node15</title>
<path fill="none" stroke="midnightblue" d="M1015.47,-414.444C966.044,-404.944 886.254,-389.611 833.222,-379.42"/>
<polygon fill="midnightblue" stroke="midnightblue" points="833.798,-375.967 823.317,-377.516 832.477,-382.841 833.798,-375.967"/>
</g>
<!-- Node35&#45;&gt;Node16 -->
<g id="edge86" class="edge"><title>Node35&#45;&gt;Node16</title>
<path fill="none" stroke="midnightblue" d="M1000.33,-421.324C870.866,-417.221 567.902,-404.978 469,-378 414.54,-363.144 390.788,-365.655 355,-322 327.907,-288.951 321.615,-237.002 320.263,-209.152"/>
<polygon fill="midnightblue" stroke="midnightblue" points="323.751,-208.703 319.94,-198.817 316.755,-208.921 323.751,-208.703"/>
</g>
<!-- Node35&#45;&gt;Node18 -->
<g id="edge87" class="edge"><title>Node35&#45;&gt;Node18</title>
<path fill="none" stroke="midnightblue" d="M1062.39,-414.433C1066.74,-400.492 1077.24,-372.956 1096,-358 1126.72,-333.513 1168.84,-320.899 1204.06,-314.402"/>
<polygon fill="midnightblue" stroke="midnightblue" points="1205,-317.791 1214.27,-312.651 1203.82,-310.892 1205,-317.791"/>
</g>
<!-- Node35&#45;&gt;Node22 -->
<g id="edge90" class="edge"><title>Node35&#45;&gt;Node22</title>
<path fill="none" stroke="midnightblue" d="M1052.66,-414.417C1033.72,-392.53 981.189,-333.379 931,-291 909.523,-272.865 901.48,-271.875 879,-255 857.264,-238.683 833.162,-218.85 817.151,-205.414"/>
<polygon fill="midnightblue" stroke="midnightblue" points="819.056,-202.443 809.155,-198.672 814.543,-207.794 819.056,-202.443"/>
</g>
<!-- Node35&#45;&gt;Node23 -->
<g id="edge92" class="edge"><title>Node35&#45;&gt;Node23</title>
<path fill="none" stroke="midnightblue" d="M1079.23,-414.4C1108.75,-401.355 1167.17,-376.166 1218,-358 1269.63,-339.549 1301.44,-364.566 1336,-322 1360.43,-291.911 1363.7,-267.111 1342,-235 1329.39,-216.34 1307.62,-205.417 1286.62,-199.023"/>
<polygon fill="midnightblue" stroke="midnightblue" points="1287.3,-195.581 1276.73,-196.313 1285.45,-202.332 1287.3,-195.581"/>
</g>
<!-- Node35&#45;&gt;Node31 -->
<g id="edge91" class="edge"><title>Node35&#45;&gt;Node31</title>
<path fill="none" stroke="midnightblue" d="M1019.49,-414.453C994.021,-407.636 961.468,-396.158 937,-378 917.856,-363.793 902.395,-340.791 893.218,-324.947"/>
<polygon fill="midnightblue" stroke="midnightblue" points="896.249,-323.197 888.339,-316.149 890.128,-326.592 896.249,-323.197"/>
</g>
<!-- Node36&#45;&gt;Node10 -->
<g id="edge100" class="edge"><title>Node36&#45;&gt;Node10</title>
<path fill="none" stroke="midnightblue" d="M1571.65,-476.182C1671.53,-459.391 1885.3,-414.857 2041,-322 2129.66,-269.125 2159.91,-242.044 2189,-143 2194.15,-125.465 2188.83,-104.92 2183.33,-90.5476"/>
<polygon fill="midnightblue" stroke="midnightblue" points="2186.54,-89.1648 2179.44,-81.3044 2180.09,-91.8792 2186.54,-89.1648"/>
</g>
<!-- Node36&#45;&gt;Node13 -->
<g id="edge97" class="edge"><title>Node36&#45;&gt;Node13</title>
<path fill="none" stroke="midnightblue" d="M1534.35,-470.369C1560.27,-450.285 1608.9,-412.127 1649,-378 1697.11,-337.055 1751.87,-286.407 1778.59,-261.424"/>
<polygon fill="midnightblue" stroke="midnightblue" points="1781.04,-263.925 1785.95,-254.534 1776.26,-258.818 1781.04,-263.925"/>
</g>
<!-- Node36&#45;&gt;Node27 -->
<g id="edge101" class="edge"><title>Node36&#45;&gt;Node27</title>
<path fill="none" stroke="midnightblue" d="M1525.59,-470.295C1553.52,-428.914 1634.78,-308.542 1665.26,-263.385"/>
<polygon fill="midnightblue" stroke="midnightblue" points="1668.27,-265.192 1670.96,-254.946 1662.47,-261.276 1668.27,-265.192"/>
</g>
<!-- Node36&#45;&gt;Node34 -->
<g id="edge98" class="edge"><title>Node36&#45;&gt;Node34</title>
<path fill="none" stroke="midnightblue" d="M1481.75,-470.425C1392.65,-434.425 1145.64,-338.491 931,-291 819.097,-266.241 685.74,-254.526 608.675,-249.446"/>
<polygon fill="midnightblue" stroke="midnightblue" points="608.846,-245.95 598.642,-248.801 608.397,-252.935 608.846,-245.95"/>
</g>
<!-- Node36&#45;&gt;Node35 -->
<g id="edge99" class="edge"><title>Node36&#45;&gt;Node35</title>
<path fill="none" stroke="midnightblue" d="M1460.09,-477.204C1376.85,-466.343 1220.44,-445.935 1129.81,-434.109"/>
<polygon fill="midnightblue" stroke="midnightblue" points="1130,-430.604 1119.63,-432.78 1129.09,-437.545 1130,-430.604"/>
</g>
<!-- Node37&#45;&gt;Node34 -->
<g id="edge106" class="edge"><title>Node37&#45;&gt;Node34</title>
<path fill="none" stroke="midnightblue" d="M224.01,-537.365C214.547,-529.171 201.564,-515.917 196,-501 191.185,-488.091 191.965,-483.174 196,-470 224.122,-378.183 236.974,-344.076 317,-291 343.446,-273.46 423.479,-260.485 481.258,-253.087"/>
<polygon fill="midnightblue" stroke="midnightblue" points="481.921,-256.532 491.408,-251.815 481.051,-249.586 481.921,-256.532"/>
</g>
<!-- Node38 -->
<g id="node38" class="node"><title>Node38</title>
<polygon fill="white" stroke="#bfbfbf" points="205.5,-476 205.5,-495 264.5,-495 264.5,-476 205.5,-476"/>
<text text-anchor="middle" x="235" y="-483" font-family="Helvetica,sans-Serif" font-size="10.00">iostream</text>
</g>
<!-- Node37&#45;&gt;Node38 -->
<g id="edge107" class="edge"><title>Node37&#45;&gt;Node38</title>
<path fill="none" stroke="midnightblue" d="M235,-537.475C235,-529.08 235,-515.981 235,-505.163"/>
<polygon fill="midnightblue" stroke="midnightblue" points="238.5,-505.009 235,-495.009 231.5,-505.009 238.5,-505.009"/>
</g>
<!-- Node39&#45;&gt;Node3 -->
<g id="edge117" class="edge"><title>Node39&#45;&gt;Node3</title>
<path fill="none" stroke="midnightblue" d="M1903.17,-657.171C1971.49,-653.399 2103,-634.857 2103,-548 2103,-548 2103,-548 2103,-367 2103,-307.877 1928.47,-252.526 1872,-235 1687.15,-177.625 1629,-230.298 1438,-199 1401.41,-193.004 1393.44,-185.867 1357,-179 1262.49,-161.191 1152.02,-148.055 1082.53,-140.714"/>
<polygon fill="midnightblue" stroke="midnightblue" points="1082.89,-137.232 1072.58,-139.673 1082.16,-144.194 1082.89,-137.232"/>
</g>
<!-- Node39&#45;&gt;Node10 -->
<g id="edge119" class="edge"><title>Node39&#45;&gt;Node10</title>
<path fill="none" stroke="midnightblue" d="M1903.07,-656.28C2009.81,-650.615 2293,-628.043 2293,-548 2293,-548 2293,-548 2293,-423 2293,-342.541 2331,-326.459 2331,-246 2331,-246 2331,-246 2331,-188 2331,-126.752 2252.37,-94.2533 2206.75,-80.5547"/>
<polygon fill="midnightblue" stroke="midnightblue" points="2207.6,-77.1555 2197.02,-77.7649 2205.67,-83.8846 2207.6,-77.1555"/>
</g>
<!-- Node39&#45;&gt;Node14 -->
<g id="edge118" class="edge"><title>Node39&#45;&gt;Node14</title>
<path fill="none" stroke="midnightblue" d="M1822.58,-654.663C1711.28,-645.472 1399.85,-619.758 1268.56,-608.918"/>
<polygon fill="midnightblue" stroke="midnightblue" points="1268.56,-605.406 1258.3,-608.071 1267.98,-612.382 1268.56,-605.406"/>
</g>
<!-- Node40&#45;&gt;Node2 -->
<g id="edge126" class="edge"><title>Node40&#45;&gt;Node2</title>
<path fill="none" stroke="midnightblue" d="M1788.33,-761.444C1761.08,-752.359 1717.82,-737.939 1687.35,-727.783"/>
<polygon fill="midnightblue" stroke="midnightblue" points="1688.14,-724.358 1677.55,-724.516 1685.93,-730.999 1688.14,-724.358"/>
</g>
<!-- Node40&#45;&gt;Node3 -->
<g id="edge122" class="edge"><title>Node40&#45;&gt;Node3</title>
<path fill="none" stroke="midnightblue" d="M1852.86,-770.004C1973.09,-768.982 2331,-757.731 2331,-660 2331,-660 2331,-660 2331,-423 2331,-256.898 2169.29,-274.709 2008,-235 1668.08,-151.311 1246.34,-136.804 1083.05,-134.411"/>
<polygon fill="midnightblue" stroke="midnightblue" points="1082.72,-130.907 1072.67,-134.271 1082.62,-137.906 1082.72,-130.907"/>
</g>
<!-- Node40&#45;&gt;Node9 -->
<g id="edge130" class="edge"><title>Node40&#45;&gt;Node9</title>
<path fill="none" stroke="midnightblue" d="M1775.27,-769.741C1512.38,-767.735 0,-752.188 0,-660 0,-660 0,-660 0,-188 0,-126.706 76.3808,-95.751 127.047,-81.9604"/>
<polygon fill="midnightblue" stroke="midnightblue" points="128.007,-85.3273 136.807,-79.4272 126.248,-78.5517 128.007,-85.3273"/>
</g>
<!-- Node40&#45;&gt;Node10 -->
<g id="edge127" class="edge"><title>Node40&#45;&gt;Node10</title>
<path fill="none" stroke="midnightblue" d="M1852.75,-768.386C1951.13,-763.963 2208.54,-750.26 2290,-725 2346.82,-707.382 2407,-719.486 2407,-660 2407,-660 2407,-660 2407,-188 2407,-99.9575 2271.45,-79.0269 2207.57,-74.0514"/>
<polygon fill="midnightblue" stroke="midnightblue" points="2207.46,-70.5356 2197.25,-73.3382 2206.98,-77.519 2207.46,-70.5356"/>
</g>
<!-- Node40&#45;&gt;Node14 -->
<g id="edge123" class="edge"><title>Node40&#45;&gt;Node14</title>
<path fill="none" stroke="midnightblue" d="M1801.84,-761.5C1781.49,-747.656 1738.84,-720.255 1699,-705 1549.87,-647.889 1362.2,-620.715 1268.28,-609.936"/>
<polygon fill="midnightblue" stroke="midnightblue" points="1268.45,-606.432 1258.12,-608.792 1267.66,-613.388 1268.45,-606.432"/>
</g>
<!-- Node40&#45;&gt;Node29 -->
<g id="edge129" class="edge"><title>Node40&#45;&gt;Node29</title>
<path fill="none" stroke="midnightblue" d="M1852.72,-766.618C1946.65,-757.349 2179,-727.59 2179,-660 2179,-660 2179,-660 2179,-367 2179,-288.748 2065.8,-259.8 2009.3,-250.225"/>
<polygon fill="midnightblue" stroke="midnightblue" points="2009.56,-246.722 1999.13,-248.608 2008.46,-253.635 2009.56,-246.722"/>
</g>
<!-- Node40&#45;&gt;Node35 -->
<g id="edge124" class="edge"><title>Node40&#45;&gt;Node35</title>
<path fill="none" stroke="midnightblue" d="M1805.54,-761.251C1791.86,-747.547 1763.53,-720.943 1735,-705 1558.2,-606.193 1489.48,-638.351 1304,-557 1219.53,-519.951 1124.89,-464.459 1082.57,-438.854"/>
<polygon fill="midnightblue" stroke="midnightblue" points="1084.25,-435.783 1073.89,-433.579 1080.62,-441.765 1084.25,-435.783"/>
</g>
<!-- Node40&#45;&gt;Node39 -->
<g id="edge125" class="edge"><title>Node40&#45;&gt;Node39</title>
<path fill="none" stroke="midnightblue" d="M1817.84,-761.368C1825.82,-743.456 1844.33,-701.923 1855,-677.948"/>
<polygon fill="midnightblue" stroke="midnightblue" points="1858.3,-679.15 1859.17,-668.591 1851.91,-676.302 1858.3,-679.15"/>
</g>
<!-- Node41 -->
<g id="node41" class="node"><title>Node41</title>
<polygon fill="white" stroke="#bfbfbf" points="1861,-705.5 1861,-724.5 1923,-724.5 1923,-705.5 1861,-705.5"/>
<text text-anchor="middle" x="1892" y="-712.5" font-family="Helvetica,sans-Serif" font-size="10.00">algorithm</text>
</g>
<!-- Node40&#45;&gt;Node41 -->
<g id="edge128" class="edge"><title>Node40&#45;&gt;Node41</title>
<path fill="none" stroke="midnightblue" d="M1826.53,-761.324C1838.59,-752.979 1857.03,-740.212 1871.27,-730.352"/>
<polygon fill="midnightblue" stroke="midnightblue" points="1873.27,-733.224 1879.5,-724.655 1869.28,-727.469 1873.27,-733.224"/>
</g>
</g>
</svg>
