<?xml version="1.0" encoding="UTF-8" standalone="no"?>
<!DOCTYPE svg PUBLIC "-//W3C//DTD SVG 1.1//EN"
 "http://www.w3.org/Graphics/SVG/1.1/DTD/svg11.dtd">
<!-- Generated by graphviz version 2.38.0 (20140413.2041)
 -->
<!-- Title: include/tvm/tir/expr_functor.h Pages: 1 -->
<svg width="2768pt" height="1024pt"
 viewBox="0.00 0.00 2768.00 1024.00" xmlns="http://www.w3.org/2000/svg" xmlns:xlink="http://www.w3.org/1999/xlink">
<g id="graph0" class="graph" transform="scale(1 1) rotate(0) translate(4 1020)">
<title>include/tvm/tir/expr_functor.h</title>
<polygon fill="white" stroke="none" points="-4,4 -4,-1020 2764,-1020 2764,4 -4,4"/>
<!-- Node1 -->
<g id="node1" class="node"><title>Node1</title>
<polygon fill="#bfbfbf" stroke="black" points="2372.5,-985.5 2372.5,-1015.5 2481.5,-1015.5 2481.5,-985.5 2372.5,-985.5"/>
<text text-anchor="start" x="2380.5" y="-1003.5" font-family="Helvetica,sans-Serif" font-size="10.00">include/tvm/tir/expr</text>
<text text-anchor="middle" x="2427" y="-992.5" font-family="Helvetica,sans-Serif" font-size="10.00">_functor.h</text>
</g>
<!-- Node2 -->
<g id="node2" class="node"><title>Node2</title>
<g id="a_node2"><a xlink:href="functor_8h.html" target="_top" xlink:title="Defines the Functor data structures. ">
<polygon fill="white" stroke="black" points="864.5,-358.5 864.5,-377.5 971.5,-377.5 971.5,-358.5 864.5,-358.5"/>
<text text-anchor="middle" x="918" y="-365.5" font-family="Helvetica,sans-Serif" font-size="10.00">tvm/node/functor.h</text>
</a>
</g>
</g>
<!-- Node1&#45;&gt;Node2 -->
<g id="edge1" class="edge"><title>Node1&#45;&gt;Node2</title>
<path fill="none" stroke="midnightblue" d="M2372.3,-996.485C2147.09,-983.556 1291.54,-929.222 1039,-837 966.729,-810.608 937.539,-795.619 907,-725 876.955,-655.522 883.704,-632.55 879,-557 875.055,-493.632 898.569,-420.488 910.866,-387.193"/>
<polygon fill="midnightblue" stroke="midnightblue" points="914.269,-388.092 914.551,-377.501 907.726,-385.605 914.269,-388.092"/>
</g>
<!-- Node11 -->
<g id="node11" class="node"><title>Node11</title>
<polygon fill="white" stroke="#bfbfbf" points="2272,-62 2272,-81 2314,-81 2314,-62 2272,-62"/>
<text text-anchor="middle" x="2293" y="-69" font-family="Helvetica,sans-Serif" font-size="10.00">utility</text>
</g>
<!-- Node1&#45;&gt;Node11 -->
<g id="edge153" class="edge"><title>Node1&#45;&gt;Node11</title>
<path fill="none" stroke="midnightblue" d="M2481.62,-992.076C2576.09,-977.69 2760,-942.208 2760,-884 2760,-884 2760,-884 2760,-188 2760,-98.059 2429.45,-77.7032 2324.54,-73.5077"/>
<polygon fill="midnightblue" stroke="midnightblue" points="2324.4,-70 2314.28,-73.1207 2324.14,-76.9951 2324.4,-70"/>
</g>
<!-- Node14 -->
<g id="node14" class="node"><title>Node14</title>
<g id="a_node14"><a xlink:href="tir_2expr_8h.html" target="_top" xlink:title="TIR expressions. ">
<polygon fill="white" stroke="black" points="2387,-929.5 2387,-948.5 2467,-948.5 2467,-929.5 2387,-929.5"/>
<text text-anchor="middle" x="2427" y="-936.5" font-family="Helvetica,sans-Serif" font-size="10.00">tvm/tir/expr.h</text>
</a>
</g>
</g>
<!-- Node1&#45;&gt;Node14 -->
<g id="edge16" class="edge"><title>Node1&#45;&gt;Node14</title>
<path fill="none" stroke="midnightblue" d="M2427,-985.399C2427,-977.466 2427,-967.458 2427,-958.858"/>
<polygon fill="midnightblue" stroke="midnightblue" points="2430.5,-958.658 2427,-948.658 2423.5,-958.658 2430.5,-958.658"/>
</g>
<!-- Node3 -->
<g id="node3" class="node"><title>Node3</title>
<polygon fill="white" stroke="#bfbfbf" points="787,-62 787,-81 873,-81 873,-62 787,-62"/>
<text text-anchor="middle" x="830" y="-69" font-family="Helvetica,sans-Serif" font-size="10.00">dmlc/logging.h</text>
</g>
<!-- Node2&#45;&gt;Node3 -->
<g id="edge2" class="edge"><title>Node2&#45;&gt;Node3</title>
<path fill="none" stroke="midnightblue" d="M892.251,-358.395C875.08,-351.314 853.449,-339.557 841,-322 789.44,-249.285 803.983,-211.326 816,-123 817.479,-112.127 820.672,-100.29 823.636,-90.8109"/>
<polygon fill="midnightblue" stroke="midnightblue" points="826.968,-91.8806 826.781,-81.2874 820.321,-89.6855 826.968,-91.8806"/>
</g>
<!-- Node4 -->
<g id="node4" class="node"><title>Node4</title>
<g id="a_node4"><a xlink:href="object_8h.html" target="_top" xlink:title="A managed object in the TVM runtime. ">
<polygon fill="white" stroke="black" points="934.5,-123.5 934.5,-142.5 1051.5,-142.5 1051.5,-123.5 934.5,-123.5"/>
<text text-anchor="middle" x="993" y="-130.5" font-family="Helvetica,sans-Serif" font-size="10.00">tvm/runtime/object.h</text>
</a>
</g>
</g>
<!-- Node2&#45;&gt;Node4 -->
<g id="edge3" class="edge"><title>Node2&#45;&gt;Node4</title>
<path fill="none" stroke="midnightblue" d="M900.296,-358.414C886.775,-350.838 868.984,-338.44 860,-322 829.496,-266.18 816.583,-230.443 854,-179 870.273,-156.627 897.91,-145.15 924.274,-139.345"/>
<polygon fill="midnightblue" stroke="midnightblue" points="925.147,-142.741 934.29,-137.387 923.804,-135.871 925.147,-142.741"/>
</g>
<!-- Node9 -->
<g id="node9" class="node"><title>Node9</title>
<polygon fill="white" stroke="#bfbfbf" points="2050,-62 2050,-81 2118,-81 2118,-62 2050,-62"/>
<text text-anchor="middle" x="2084" y="-69" font-family="Helvetica,sans-Serif" font-size="10.00">type_traits</text>
</g>
<!-- Node2&#45;&gt;Node9 -->
<g id="edge14" class="edge"><title>Node2&#45;&gt;Node9</title>
<path fill="none" stroke="midnightblue" d="M971.621,-366.025C1124.36,-362.912 1559.68,-351.622 1699,-322 1737.11,-313.897 1744.36,-304.263 1781,-291 1826.99,-274.35 1847.3,-286.166 1885,-255 1937.17,-211.866 1910.06,-167.586 1961,-123 1983.54,-103.27 2014.84,-90.5658 2040.22,-82.8348"/>
<polygon fill="midnightblue" stroke="midnightblue" points="2041.34,-86.1528 2049.98,-80.0141 2039.4,-79.428 2041.34,-86.1528"/>
</g>
<!-- Node2&#45;&gt;Node11 -->
<g id="edge15" class="edge"><title>Node2&#45;&gt;Node11</title>
<path fill="none" stroke="midnightblue" d="M971.555,-367.047C1131.81,-366.728 1605.67,-362.307 1754,-322 1782.97,-314.129 1785.68,-300.96 1814,-291 1890.14,-264.219 1914.47,-277.443 1992,-255 2104.68,-222.382 2141.14,-218.403 2231,-143 2250.23,-126.862 2268.77,-104.621 2280.48,-89.4641"/>
<polygon fill="midnightblue" stroke="midnightblue" points="2283.6,-91.1466 2286.84,-81.0597 2278.01,-86.9237 2283.6,-91.1466"/>
</g>
<!-- Node13 -->
<g id="node13" class="node"><title>Node13</title>
<polygon fill="white" stroke="#bfbfbf" points="1110.5,-179.5 1110.5,-198.5 1157.5,-198.5 1157.5,-179.5 1110.5,-179.5"/>
<text text-anchor="middle" x="1134" y="-186.5" font-family="Helvetica,sans-Serif" font-size="10.00">vector</text>
</g>
<!-- Node2&#45;&gt;Node13 -->
<g id="edge13" class="edge"><title>Node2&#45;&gt;Node13</title>
<path fill="none" stroke="midnightblue" d="M928.418,-358.463C962.548,-330.495 1071.32,-241.365 1115.29,-205.333"/>
<polygon fill="midnightblue" stroke="midnightblue" points="1117.66,-207.914 1123.18,-198.868 1113.22,-202.499 1117.66,-207.914"/>
</g>
<!-- Node4&#45;&gt;Node3 -->
<g id="edge4" class="edge"><title>Node4&#45;&gt;Node3</title>
<path fill="none" stroke="midnightblue" d="M969.646,-123.475C941.686,-113.269 894.674,-96.108 863.009,-84.5492"/>
<polygon fill="midnightblue" stroke="midnightblue" points="863.905,-81.1503 853.311,-81.0091 861.504,-87.7259 863.905,-81.1503"/>
</g>
<!-- Node5 -->
<g id="node5" class="node"><title>Node5</title>
<g id="a_node5"><a xlink:href="c__runtime__api_8h.html" target="_top" xlink:title="tvm/runtime/c_runtime\l_api.h">
<polygon fill="white" stroke="black" points="1534.5,-56.5 1534.5,-86.5 1661.5,-86.5 1661.5,-56.5 1534.5,-56.5"/>
<text text-anchor="start" x="1542.5" y="-74.5" font-family="Helvetica,sans-Serif" font-size="10.00">tvm/runtime/c_runtime</text>
<text text-anchor="middle" x="1598" y="-63.5" font-family="Helvetica,sans-Serif" font-size="10.00">_api.h</text>
</a>
</g>
</g>
<!-- Node4&#45;&gt;Node5 -->
<g id="edge5" class="edge"><title>Node4&#45;&gt;Node5</title>
<path fill="none" stroke="midnightblue" d="M1051.56,-126.241C1162.46,-115.334 1402.9,-91.6874 1524.47,-79.7319"/>
<polygon fill="midnightblue" stroke="midnightblue" points="1524.82,-83.2139 1534.43,-78.7519 1524.14,-76.2475 1524.82,-83.2139"/>
</g>
<!-- Node4&#45;&gt;Node9 -->
<g id="edge9" class="edge"><title>Node4&#45;&gt;Node9</title>
<path fill="none" stroke="midnightblue" d="M1051.73,-128.36C1079.16,-126.685 1112.25,-124.696 1142,-123 1487.46,-103.307 1904.33,-81.7223 2039.43,-74.782"/>
<polygon fill="midnightblue" stroke="midnightblue" points="2039.97,-78.2589 2049.78,-74.2507 2039.61,-71.2681 2039.97,-78.2589"/>
</g>
<!-- Node10 -->
<g id="node10" class="node"><title>Node10</title>
<polygon fill="white" stroke="#bfbfbf" points="297,-62 297,-81 341,-81 341,-62 297,-62"/>
<text text-anchor="middle" x="319" y="-69" font-family="Helvetica,sans-Serif" font-size="10.00">string</text>
</g>
<!-- Node4&#45;&gt;Node10 -->
<g id="edge10" class="edge"><title>Node4&#45;&gt;Node10</title>
<path fill="none" stroke="midnightblue" d="M934.452,-124.579C929.566,-124.021 924.7,-123.487 920,-123 703.072,-100.522 441.297,-81.1919 351.247,-74.7667"/>
<polygon fill="midnightblue" stroke="midnightblue" points="351.354,-71.2655 341.131,-74.0477 350.858,-78.2479 351.354,-71.2655"/>
</g>
<!-- Node4&#45;&gt;Node11 -->
<g id="edge11" class="edge"><title>Node4&#45;&gt;Node11</title>
<path fill="none" stroke="midnightblue" d="M1051.78,-130.652C1219.67,-126.589 1715.79,-113.104 2127,-87 2174.02,-84.015 2228.41,-78.9589 2261.75,-75.6754"/>
<polygon fill="midnightblue" stroke="midnightblue" points="2262.19,-79.1484 2271.8,-74.6765 2261.5,-72.1828 2262.19,-79.1484"/>
</g>
<!-- Node12 -->
<g id="node12" class="node"><title>Node12</title>
<polygon fill="white" stroke="#bfbfbf" points="1159,-62 1159,-81 1209,-81 1209,-62 1159,-62"/>
<text text-anchor="middle" x="1184" y="-69" font-family="Helvetica,sans-Serif" font-size="10.00">atomic</text>
</g>
<!-- Node4&#45;&gt;Node12 -->
<g id="edge12" class="edge"><title>Node4&#45;&gt;Node12</title>
<path fill="none" stroke="midnightblue" d="M1020.37,-123.475C1054.21,-112.931 1111.89,-94.9632 1148.95,-83.4192"/>
<polygon fill="midnightblue" stroke="midnightblue" points="1150.31,-86.6609 1158.82,-80.345 1148.23,-79.9777 1150.31,-86.6609"/>
</g>
<!-- Node6 -->
<g id="node6" class="node"><title>Node6</title>
<polygon fill="white" stroke="#bfbfbf" points="1463,-0.5 1463,-19.5 1553,-19.5 1553,-0.5 1463,-0.5"/>
<text text-anchor="middle" x="1508" y="-7.5" font-family="Helvetica,sans-Serif" font-size="10.00">dlpack/dlpack.h</text>
</g>
<!-- Node5&#45;&gt;Node6 -->
<g id="edge6" class="edge"><title>Node5&#45;&gt;Node6</title>
<path fill="none" stroke="midnightblue" d="M1576.67,-56.3993C1562.51,-47.0402 1543.99,-34.7924 1529.75,-25.3771"/>
<polygon fill="midnightblue" stroke="midnightblue" points="1531.37,-22.2531 1521.1,-19.6578 1527.51,-28.0923 1531.37,-22.2531"/>
</g>
<!-- Node7 -->
<g id="node7" class="node"><title>Node7</title>
<polygon fill="white" stroke="#bfbfbf" points="1571.5,-0.5 1571.5,-19.5 1624.5,-19.5 1624.5,-0.5 1571.5,-0.5"/>
<text text-anchor="middle" x="1598" y="-7.5" font-family="Helvetica,sans-Serif" font-size="10.00">stdint.h</text>
</g>
<!-- Node5&#45;&gt;Node7 -->
<g id="edge7" class="edge"><title>Node5&#45;&gt;Node7</title>
<path fill="none" stroke="midnightblue" d="M1598,-56.3993C1598,-48.4664 1598,-38.458 1598,-29.8583"/>
<polygon fill="midnightblue" stroke="midnightblue" points="1601.5,-29.6577 1598,-19.6578 1594.5,-29.6578 1601.5,-29.6577"/>
</g>
<!-- Node8 -->
<g id="node8" class="node"><title>Node8</title>
<polygon fill="white" stroke="#bfbfbf" points="1642.5,-0.5 1642.5,-19.5 1697.5,-19.5 1697.5,-0.5 1642.5,-0.5"/>
<text text-anchor="middle" x="1670" y="-7.5" font-family="Helvetica,sans-Serif" font-size="10.00">stddef.h</text>
</g>
<!-- Node5&#45;&gt;Node8 -->
<g id="edge8" class="edge"><title>Node5&#45;&gt;Node8</title>
<path fill="none" stroke="midnightblue" d="M1615.06,-56.3993C1626.06,-47.3076 1640.37,-35.4899 1651.62,-26.1909"/>
<polygon fill="midnightblue" stroke="midnightblue" points="1654.04,-28.726 1659.52,-19.6578 1649.59,-23.33 1654.04,-28.726"/>
</g>
<!-- Node14&#45;&gt;Node2 -->
<g id="edge115" class="edge"><title>Node14&#45;&gt;Node2</title>
<path fill="none" stroke="midnightblue" d="M2386.91,-938.427C2226.73,-939.783 1632.67,-941.378 1452,-893 1181.84,-820.657 893,-883.683 893,-604 893,-604 893,-604 893,-546 893,-511.183 901.447,-503.18 912,-470 917.203,-453.64 922.835,-450.873 926,-434 928.886,-418.615 926.354,-400.979 923.397,-387.963"/>
<polygon fill="midnightblue" stroke="midnightblue" points="926.688,-386.704 920.815,-377.886 919.907,-388.442 926.688,-386.704"/>
</g>
<!-- Node14&#45;&gt;Node5 -->
<g id="edge116" class="edge"><title>Node14&#45;&gt;Node5</title>
<path fill="none" stroke="midnightblue" d="M2467.16,-938.284C2539.44,-936.467 2684,-921.184 2684,-828 2684,-828 2684,-828 2684,-305.5 2684,-98.0515 1916.87,-74.7226 1672.1,-72.5588"/>
<polygon fill="midnightblue" stroke="midnightblue" points="1671.91,-69.0573 1661.88,-72.4782 1671.85,-76.0571 1671.91,-69.0573"/>
</g>
<!-- Node14&#45;&gt;Node10 -->
<g id="edge147" class="edge"><title>Node14&#45;&gt;Node10</title>
<path fill="none" stroke="midnightblue" d="M2386.94,-937.375C2122.83,-933.221 635.952,-909.246 435,-893 337.578,-885.124 0,-925.74 0,-828 0,-828 0,-828 0,-188 0,-151.822 18.2499,-142.06 49,-123 88.4661,-98.5379 224.122,-82.0704 286.791,-75.5895"/>
<polygon fill="midnightblue" stroke="midnightblue" points="287.306,-79.0554 296.902,-74.5653 286.6,-72.091 287.306,-79.0554"/>
</g>
<!-- Node14&#45;&gt;Node11 -->
<g id="edge152" class="edge"><title>Node14&#45;&gt;Node11</title>
<path fill="none" stroke="midnightblue" d="M2467.16,-936.193C2533.84,-932.415 2663.49,-921.527 2698,-893 2721.73,-873.378 2722,-858.795 2722,-828 2722,-828 2722,-828 2722,-188 2722,-105.664 2423.63,-80.3284 2324.55,-74.1853"/>
<polygon fill="midnightblue" stroke="midnightblue" points="2324.46,-70.6741 2314.27,-73.5734 2324.05,-77.6617 2324.46,-70.6741"/>
</g>
<!-- Node15 -->
<g id="node15" class="node"><title>Node15</title>
<g id="a_node15"><a xlink:href="node_8h.html" target="_top" xlink:title="Definitions and helper macros for IR/AST nodes. ">
<polygon fill="white" stroke="black" points="1299,-593.5 1299,-612.5 1397,-612.5 1397,-593.5 1299,-593.5"/>
<text text-anchor="middle" x="1348" y="-600.5" font-family="Helvetica,sans-Serif" font-size="10.00">tvm/node/node.h</text>
</a>
</g>
</g>
<!-- Node14&#45;&gt;Node15 -->
<g id="edge17" class="edge"><title>Node14&#45;&gt;Node15</title>
<path fill="none" stroke="midnightblue" d="M2430.91,-929.365C2438.83,-911.073 2456,-866.907 2456,-828 2456,-828 2456,-828 2456,-770 2456,-731.577 2433.2,-722.516 2399,-705 2223.79,-615.262 1602.77,-605.008 1407.34,-604.033"/>
<polygon fill="midnightblue" stroke="midnightblue" points="1407.28,-600.532 1397.26,-603.989 1407.25,-607.532 1407.28,-600.532"/>
</g>
<!-- Node23 -->
<g id="node23" class="node"><title>Node23</title>
<polygon fill="white" stroke="#bfbfbf" points="2306.5,-179.5 2306.5,-198.5 2399.5,-198.5 2399.5,-179.5 2306.5,-179.5"/>
<text text-anchor="middle" x="2353" y="-186.5" font-family="Helvetica,sans-Serif" font-size="10.00">unordered_map</text>
</g>
<!-- Node14&#45;&gt;Node23 -->
<g id="edge149" class="edge"><title>Node14&#45;&gt;Node23</title>
<path fill="none" stroke="midnightblue" d="M2467.17,-935.575C2530.39,-929.347 2646,-907.138 2646,-828 2646,-828 2646,-828 2646,-305.5 2646,-273.049 2651.07,-256.765 2627,-235 2611.12,-220.641 2485.34,-204.541 2409.83,-196.031"/>
<polygon fill="midnightblue" stroke="midnightblue" points="2409.85,-192.512 2399.53,-194.881 2409.08,-199.469 2409.85,-192.512"/>
</g>
<!-- Node27 -->
<g id="node27" class="node"><title>Node27</title>
<g id="a_node27"><a xlink:href="data__type_8h.html" target="_top" xlink:title="tvm/runtime/data_type.h">
<polygon fill="white" stroke="black" points="514,-235.5 514,-254.5 650,-254.5 650,-235.5 514,-235.5"/>
<text text-anchor="middle" x="582" y="-242.5" font-family="Helvetica,sans-Serif" font-size="10.00">tvm/runtime/data_type.h</text>
</a>
</g>
</g>
<!-- Node14&#45;&gt;Node27 -->
<g id="edge117" class="edge"><title>Node14&#45;&gt;Node27</title>
<path fill="none" stroke="midnightblue" d="M2386.54,-937.232C2072.6,-931.141 38,-889.306 38,-828 38,-828 38,-828 38,-714 38,-574.612 453.624,-321.337 558.295,-259.763"/>
<polygon fill="midnightblue" stroke="midnightblue" points="560.308,-262.64 567.167,-254.566 556.77,-256.6 560.308,-262.64"/>
</g>
<!-- Node30 -->
<g id="node30" class="node"><title>Node30</title>
<polygon fill="white" stroke="#bfbfbf" points="2576,-235.5 2576,-254.5 2618,-254.5 2618,-235.5 2576,-235.5"/>
<text text-anchor="middle" x="2597" y="-242.5" font-family="Helvetica,sans-Serif" font-size="10.00">limits</text>
</g>
<!-- Node14&#45;&gt;Node30 -->
<g id="edge151" class="edge"><title>Node14&#45;&gt;Node30</title>
<path fill="none" stroke="midnightblue" d="M2467.17,-931.816C2520.49,-921.066 2608,-893.453 2608,-828 2608,-828 2608,-828 2608,-367 2608,-330.745 2603.04,-288.631 2599.78,-264.867"/>
<polygon fill="midnightblue" stroke="midnightblue" points="2603.22,-264.189 2598.35,-254.781 2596.29,-265.174 2603.22,-264.189"/>
</g>
<!-- Node35 -->
<g id="node35" class="node"><title>Node35</title>
<g id="a_node35"><a xlink:href="node_2container_8h.html" target="_top" xlink:title="Array/Map container in the DSL graph. ">
<polygon fill="white" stroke="black" points="1668.5,-414.5 1668.5,-433.5 1787.5,-433.5 1787.5,-414.5 1668.5,-414.5"/>
<text text-anchor="middle" x="1728" y="-421.5" font-family="Helvetica,sans-Serif" font-size="10.00">tvm/node/container.h</text>
</a>
</g>
</g>
<!-- Node14&#45;&gt;Node35 -->
<g id="edge114" class="edge"><title>Node14&#45;&gt;Node35</title>
<path fill="none" stroke="midnightblue" d="M2445.29,-929.345C2475.37,-913.692 2532,-877.634 2532,-828 2532,-828 2532,-828 2532,-546 2532,-486.577 2478.13,-489.518 2422,-470 2308.22,-430.433 1950.17,-425.208 1797.78,-424.827"/>
<polygon fill="midnightblue" stroke="midnightblue" points="1797.61,-421.327 1787.6,-424.808 1797.6,-428.327 1797.61,-421.327"/>
</g>
<!-- Node38 -->
<g id="node38" class="node"><title>Node38</title>
<polygon fill="white" stroke="#bfbfbf" points="2254.5,-476 2254.5,-495 2313.5,-495 2313.5,-476 2254.5,-476"/>
<text text-anchor="middle" x="2284" y="-483" font-family="Helvetica,sans-Serif" font-size="10.00">iostream</text>
</g>
<!-- Node14&#45;&gt;Node38 -->
<g id="edge150" class="edge"><title>Node14&#45;&gt;Node38</title>
<path fill="none" stroke="midnightblue" d="M2436.89,-929.402C2455.52,-912.183 2494,-871.38 2494,-828 2494,-828 2494,-828 2494,-770 2494,-644.643 2359.78,-538.528 2305.95,-501.008"/>
<polygon fill="midnightblue" stroke="midnightblue" points="2307.69,-497.954 2297.46,-495.194 2303.73,-503.73 2307.69,-497.954"/>
</g>
<!-- Node39 -->
<g id="node39" class="node"><title>Node39</title>
<g id="a_node39"><a xlink:href="ir_2expr_8h.html" target="_top" xlink:title="Base expr nodes in TVM. ">
<polygon fill="white" stroke="black" points="1507.5,-761.5 1507.5,-780.5 1584.5,-780.5 1584.5,-761.5 1507.5,-761.5"/>
<text text-anchor="middle" x="1546" y="-768.5" font-family="Helvetica,sans-Serif" font-size="10.00">tvm/ir/expr.h</text>
</a>
</g>
</g>
<!-- Node14&#45;&gt;Node39 -->
<g id="edge118" class="edge"><title>Node14&#45;&gt;Node39</title>
<path fill="none" stroke="midnightblue" d="M2386.86,-930.436C2242.75,-903.283 1751.77,-810.771 1594.73,-781.181"/>
<polygon fill="midnightblue" stroke="midnightblue" points="1595.35,-777.737 1584.87,-779.325 1594.05,-784.616 1595.35,-777.737"/>
</g>
<!-- Node42 -->
<g id="node42" class="node"><title>Node42</title>
<polygon fill="white" stroke="#bfbfbf" points="2328,-705.5 2328,-724.5 2390,-724.5 2390,-705.5 2328,-705.5"/>
<text text-anchor="middle" x="2359" y="-712.5" font-family="Helvetica,sans-Serif" font-size="10.00">algorithm</text>
</g>
<!-- Node14&#45;&gt;Node42 -->
<g id="edge148" class="edge"><title>Node14&#45;&gt;Node42</title>
<path fill="none" stroke="midnightblue" d="M2424.33,-929.297C2414.31,-896.563 2378.72,-780.375 2364.72,-734.666"/>
<polygon fill="midnightblue" stroke="midnightblue" points="2368,-733.42 2361.72,-724.884 2361.3,-735.47 2368,-733.42"/>
</g>
<!-- Node43 -->
<g id="node43" class="node"><title>Node43</title>
<g id="a_node43"><a xlink:href="var_8h.html" target="_top" xlink:title="Variables in the TIR. ">
<polygon fill="white" stroke="black" points="1366,-817.5 1366,-836.5 1440,-836.5 1440,-817.5 1366,-817.5"/>
<text text-anchor="middle" x="1403" y="-824.5" font-family="Helvetica,sans-Serif" font-size="10.00">tvm/tir/var.h</text>
</a>
</g>
</g>
<!-- Node14&#45;&gt;Node43 -->
<g id="edge137" class="edge"><title>Node14&#45;&gt;Node43</title>
<path fill="none" stroke="midnightblue" d="M2386.74,-937.41C2218.69,-934.763 1578.08,-922.793 1493,-893 1463.61,-882.709 1435.47,-859.518 1418.71,-843.809"/>
<polygon fill="midnightblue" stroke="midnightblue" points="1421.06,-841.217 1411.44,-836.787 1416.2,-846.252 1421.06,-841.217"/>
</g>
<!-- Node44 -->
<g id="node44" class="node"><title>Node44</title>
<g id="a_node44"><a xlink:href="buffer_8h.html" target="_top" xlink:title="Symbolic n&#45;dimensional array, to represent a memory buffer. ">
<polygon fill="white" stroke="black" points="1502.5,-873.5 1502.5,-892.5 1589.5,-892.5 1589.5,-873.5 1502.5,-873.5"/>
<text text-anchor="middle" x="1546" y="-880.5" font-family="Helvetica,sans-Serif" font-size="10.00">tvm/tir/buffer.h</text>
</a>
</g>
</g>
<!-- Node14&#45;&gt;Node44 -->
<g id="edge142" class="edge"><title>Node14&#45;&gt;Node44</title>
<path fill="none" stroke="midnightblue" d="M2386.86,-935.539C2244.31,-926.802 1762.39,-897.263 1599.96,-887.307"/>
<polygon fill="midnightblue" stroke="midnightblue" points="1599.93,-883.799 1589.73,-886.68 1599.5,-890.786 1599.93,-883.799"/>
</g>
<!-- Node15&#45;&gt;Node4 -->
<g id="edge71" class="edge"><title>Node15&#45;&gt;Node4</title>
<path fill="none" stroke="midnightblue" d="M1298.98,-600.072C1123.5,-592.669 534.136,-563.308 480,-501 455.933,-473.3 338.923,-418.224 505,-235 533.039,-204.067 796.227,-162.361 924.022,-143.714"/>
<polygon fill="midnightblue" stroke="midnightblue" points="924.706,-147.151 934.099,-142.25 923.7,-140.224 924.706,-147.151"/>
</g>
<!-- Node15&#45;&gt;Node5 -->
<g id="edge18" class="edge"><title>Node15&#45;&gt;Node5</title>
<path fill="none" stroke="midnightblue" d="M1354.37,-593.33C1383.58,-553.796 1505.56,-391.112 1559,-358 1613.61,-324.16 1638.05,-342.327 1699,-322 1735.96,-309.674 1839.35,-287.386 1861,-255 1916.56,-171.891 1764.19,-115.47 1668.66,-89.2657"/>
<polygon fill="midnightblue" stroke="midnightblue" points="1669.31,-85.8161 1658.74,-86.5973 1667.49,-92.5756 1669.31,-85.8161"/>
</g>
<!-- Node15&#45;&gt;Node9 -->
<g id="edge113" class="edge"><title>Node15&#45;&gt;Node9</title>
<path fill="none" stroke="midnightblue" d="M1397.29,-599.954C1585.07,-591.749 2248.81,-558.851 2322,-501 2439.87,-407.823 2479.24,-319.122 2425,-179 2412.85,-147.607 2403.51,-139.206 2374,-123 2332.46,-100.184 2198.88,-83.9204 2128.44,-76.6912"/>
<polygon fill="midnightblue" stroke="midnightblue" points="2128.41,-73.1708 2118.11,-75.6496 2127.71,-80.1354 2128.41,-73.1708"/>
</g>
<!-- Node15&#45;&gt;Node10 -->
<g id="edge110" class="edge"><title>Node15&#45;&gt;Node10</title>
<path fill="none" stroke="midnightblue" d="M1299,-601.225C1152.35,-598.576 718.556,-588.24 581,-557 516.854,-542.432 499.757,-535.9 444,-501 334.75,-432.616 228,-436.388 228,-307.5 228,-307.5 228,-307.5 228,-188 228,-143.735 269.75,-106.445 296.692,-86.989"/>
<polygon fill="midnightblue" stroke="midnightblue" points="298.965,-89.6715 305.179,-81.0904 294.97,-83.9233 298.965,-89.6715"/>
</g>
<!-- Node15&#45;&gt;Node11 -->
<g id="edge112" class="edge"><title>Node15&#45;&gt;Node11</title>
<path fill="none" stroke="midnightblue" d="M1397.12,-602.489C1575.99,-603.456 2190.7,-599.408 2355,-501 2425.42,-458.822 2550.65,-259.768 2536,-179 2531.26,-152.845 2535.02,-140.484 2515,-123 2486.74,-98.3212 2378.31,-82.4731 2324.15,-75.9301"/>
<polygon fill="midnightblue" stroke="midnightblue" points="2324.43,-72.4382 2314.09,-74.7458 2323.61,-79.3903 2324.43,-72.4382"/>
</g>
<!-- Node15&#45;&gt;Node13 -->
<g id="edge111" class="edge"><title>Node15&#45;&gt;Node13</title>
<path fill="none" stroke="midnightblue" d="M1298.95,-600.386C1233.99,-597.098 1116.5,-587.137 1021,-557 969.061,-540.61 949.721,-540.286 912,-501 870.27,-457.539 867.971,-436.839 855,-378 829.428,-262.001 1020.56,-211.659 1100.23,-195.863"/>
<polygon fill="midnightblue" stroke="midnightblue" points="1101.09,-199.261 1110.26,-193.941 1099.78,-192.386 1101.09,-199.261"/>
</g>
<!-- Node16 -->
<g id="node16" class="node"><title>Node16</title>
<g id="a_node16"><a xlink:href="runtime_2container_8h.html" target="_top" xlink:title="Common POD(plain old data) container types. ">
<polygon fill="white" stroke="black" points="1568,-358.5 1568,-377.5 1700,-377.5 1700,-358.5 1568,-358.5"/>
<text text-anchor="middle" x="1634" y="-365.5" font-family="Helvetica,sans-Serif" font-size="10.00">tvm/runtime/container.h</text>
</a>
</g>
</g>
<!-- Node15&#45;&gt;Node16 -->
<g id="edge19" class="edge"><title>Node15&#45;&gt;Node16</title>
<path fill="none" stroke="midnightblue" d="M1360.09,-593.211C1372.3,-584.265 1391.65,-569.916 1408,-557 1486.93,-494.638 1578.28,-416.865 1616.15,-384.376"/>
<polygon fill="midnightblue" stroke="midnightblue" points="1618.49,-386.979 1623.79,-377.807 1613.92,-381.67 1618.49,-386.979"/>
</g>
<!-- Node17 -->
<g id="node17" class="node"><title>Node17</title>
<g id="a_node17"><a xlink:href="runtime_2memory_8h.html" target="_top" xlink:title="Runtime memory management. ">
<polygon fill="white" stroke="black" points="1970.5,-179.5 1970.5,-198.5 2097.5,-198.5 2097.5,-179.5 1970.5,-179.5"/>
<text text-anchor="middle" x="2034" y="-186.5" font-family="Helvetica,sans-Serif" font-size="10.00">tvm/runtime/memory.h</text>
</a>
</g>
</g>
<!-- Node15&#45;&gt;Node17 -->
<g id="edge72" class="edge"><title>Node15&#45;&gt;Node17</title>
<path fill="none" stroke="midnightblue" d="M1395.94,-593.474C1556.06,-563.833 2066.71,-459.527 2144,-322 2163.65,-287.033 2147.25,-264.436 2120,-235 2106.51,-220.424 2087.21,-209.731 2070.31,-202.435"/>
<polygon fill="midnightblue" stroke="midnightblue" points="2071.28,-199.052 2060.7,-198.528 2068.65,-205.537 2071.28,-199.052"/>
</g>
<!-- Node33 -->
<g id="node33" class="node"><title>Node33</title>
<g id="a_node33"><a xlink:href="reflection_8h.html" target="_top" xlink:title="Reflection and serialization of compiler IR/AST nodes. ">
<polygon fill="white" stroke="black" points="1061.5,-537.5 1061.5,-556.5 1180.5,-556.5 1180.5,-537.5 1061.5,-537.5"/>
<text text-anchor="middle" x="1121" y="-544.5" font-family="Helvetica,sans-Serif" font-size="10.00">tvm/node/reflection.h</text>
</a>
</g>
</g>
<!-- Node15&#45;&gt;Node33 -->
<g id="edge73" class="edge"><title>Node15&#45;&gt;Node33</title>
<path fill="none" stroke="midnightblue" d="M1312.03,-593.444C1272.68,-584.083 1209.51,-569.056 1166.69,-558.868"/>
<polygon fill="midnightblue" stroke="midnightblue" points="1167.34,-555.426 1156.8,-556.516 1165.72,-562.236 1167.34,-555.426"/>
</g>
<!-- Node34 -->
<g id="node34" class="node"><title>Node34</title>
<g id="a_node34"><a xlink:href="structural__equal_8h.html" target="_top" xlink:title="Structural equality comparison. ">
<polygon fill="white" stroke="black" points="921.5,-470.5 921.5,-500.5 1032.5,-500.5 1032.5,-470.5 921.5,-470.5"/>
<text text-anchor="start" x="929.5" y="-488.5" font-family="Helvetica,sans-Serif" font-size="10.00">tvm/node/structural</text>
<text text-anchor="middle" x="977" y="-477.5" font-family="Helvetica,sans-Serif" font-size="10.00">_equal.h</text>
</a>
</g>
</g>
<!-- Node15&#45;&gt;Node34 -->
<g id="edge108" class="edge"><title>Node15&#45;&gt;Node34</title>
<path fill="none" stroke="midnightblue" d="M1298.76,-598.08C1226.2,-591.705 1094.54,-577.688 1052,-557 1028.74,-545.685 1007.8,-524.623 993.998,-508.455"/>
<polygon fill="midnightblue" stroke="midnightblue" points="996.519,-506.012 987.456,-500.524 991.119,-510.466 996.519,-506.012"/>
</g>
<!-- Node15&#45;&gt;Node35 -->
<g id="edge107" class="edge"><title>Node15&#45;&gt;Node35</title>
<path fill="none" stroke="midnightblue" d="M1369.58,-593.421C1389.82,-585.07 1420.67,-571.541 1446,-557 1504.39,-523.482 1509.22,-498.957 1570,-470 1602.88,-454.336 1642.26,-443.103 1673.48,-435.778"/>
<polygon fill="midnightblue" stroke="midnightblue" points="1674.35,-439.171 1683.32,-433.536 1672.79,-432.346 1674.35,-439.171"/>
</g>
<!-- Node36 -->
<g id="node36" class="node"><title>Node36</title>
<g id="a_node36"><a xlink:href="structural__hash_8h.html" target="_top" xlink:title="tvm/node/structural\l_hash.h">
<polygon fill="white" stroke="black" points="677.5,-470.5 677.5,-500.5 788.5,-500.5 788.5,-470.5 677.5,-470.5"/>
<text text-anchor="start" x="685.5" y="-488.5" font-family="Helvetica,sans-Serif" font-size="10.00">tvm/node/structural</text>
<text text-anchor="middle" x="733" y="-477.5" font-family="Helvetica,sans-Serif" font-size="10.00">_hash.h</text>
</a>
</g>
</g>
<!-- Node15&#45;&gt;Node36 -->
<g id="edge109" class="edge"><title>Node15&#45;&gt;Node36</title>
<path fill="none" stroke="midnightblue" d="M1298.8,-599.429C1223.89,-594.828 1077.06,-583.111 955,-557 893.054,-543.748 823.792,-520.316 779.364,-504.124"/>
<polygon fill="midnightblue" stroke="midnightblue" points="780.317,-500.746 769.724,-500.583 777.903,-507.317 780.317,-500.746"/>
</g>
<!-- Node37 -->
<g id="node37" class="node"><title>Node37</title>
<g id="a_node37"><a xlink:href="repr__printer_8h.html" target="_top" xlink:title="Printer class to print repr string of each AST/IR nodes. ">
<polygon fill="white" stroke="black" points="1236,-537.5 1236,-556.5 1366,-556.5 1366,-537.5 1236,-537.5"/>
<text text-anchor="middle" x="1301" y="-544.5" font-family="Helvetica,sans-Serif" font-size="10.00">tvm/node/repr_printer.h</text>
</a>
</g>
</g>
<!-- Node15&#45;&gt;Node37 -->
<g id="edge104" class="edge"><title>Node15&#45;&gt;Node37</title>
<path fill="none" stroke="midnightblue" d="M1340.24,-593.083C1333.46,-585.298 1323.46,-573.801 1315.24,-564.367"/>
<polygon fill="midnightblue" stroke="midnightblue" points="1317.82,-561.996 1308.62,-556.751 1312.54,-566.592 1317.82,-561.996"/>
</g>
<!-- Node16&#45;&gt;Node3 -->
<g id="edge20" class="edge"><title>Node16&#45;&gt;Node3</title>
<path fill="none" stroke="midnightblue" d="M1567.56,-363.206C1441.76,-353.358 1163.89,-318.665 968,-199 916.444,-167.506 867.001,-115.054 843.784,-88.6832"/>
<polygon fill="midnightblue" stroke="midnightblue" points="846.397,-86.3541 837.198,-81.0975 841.111,-90.9433 846.397,-86.3541"/>
</g>
<!-- Node16&#45;&gt;Node4 -->
<g id="edge26" class="edge"><title>Node16&#45;&gt;Node4</title>
<path fill="none" stroke="midnightblue" d="M1607.7,-358.489C1539.09,-335.937 1349.65,-271.386 1200,-199 1184.22,-191.366 1182.19,-185.716 1166,-179 1128.56,-163.474 1084.29,-152.077 1049.91,-144.637"/>
<polygon fill="midnightblue" stroke="midnightblue" points="1050.54,-141.193 1040.03,-142.55 1049.09,-148.042 1050.54,-141.193"/>
</g>
<!-- Node16&#45;&gt;Node9 -->
<g id="edge68" class="edge"><title>Node16&#45;&gt;Node9</title>
<path fill="none" stroke="midnightblue" d="M1700.18,-364.559C1758.93,-360.528 1846.18,-349.904 1917,-322 1939.94,-312.962 1942.41,-304.559 1963,-291 2026.12,-249.436 2069.8,-265.337 2106,-199 2125.23,-163.76 2106.52,-115.497 2093.73,-89.9749"/>
<polygon fill="midnightblue" stroke="midnightblue" points="2096.81,-88.3129 2089.05,-81.0968 2090.62,-91.5755 2096.81,-88.3129"/>
</g>
<!-- Node16&#45;&gt;Node10 -->
<g id="edge67" class="edge"><title>Node16&#45;&gt;Node10</title>
<path fill="none" stroke="midnightblue" d="M1567.66,-365.698C1477.51,-362.759 1311.74,-353.182 1174,-322 920.87,-264.696 876.1,-188.63 625,-123 526.876,-97.3532 407.487,-82.1079 351.248,-75.8421"/>
<polygon fill="midnightblue" stroke="midnightblue" points="351.504,-72.3494 341.183,-74.7422 350.744,-79.308 351.504,-72.3494"/>
</g>
<!-- Node16&#45;&gt;Node11 -->
<g id="edge69" class="edge"><title>Node16&#45;&gt;Node11</title>
<path fill="none" stroke="midnightblue" d="M1700.19,-367.081C1766.68,-365.035 1870.9,-355.942 1954,-322 1975.48,-313.227 1975.82,-302.447 1996,-291 2088.19,-238.711 2124.48,-252.446 2216,-199 2251.01,-178.556 2268.91,-178.764 2288,-143 2296.47,-127.128 2296.88,-106.31 2295.68,-91.4188"/>
<polygon fill="midnightblue" stroke="midnightblue" points="2299.15,-90.9164 2294.56,-81.3665 2292.19,-91.6931 2299.15,-90.9164"/>
</g>
<!-- Node16&#45;&gt;Node13 -->
<g id="edge70" class="edge"><title>Node16&#45;&gt;Node13</title>
<path fill="none" stroke="midnightblue" d="M1568,-365.011C1509.72,-361.272 1423.46,-350.824 1354,-322 1293.16,-296.752 1291,-268.022 1234,-235 1212.06,-222.288 1185.88,-210.621 1165.81,-202.354"/>
<polygon fill="midnightblue" stroke="midnightblue" points="1167.07,-199.091 1156.49,-198.579 1164.44,-205.579 1167.07,-199.091"/>
</g>
<!-- Node16&#45;&gt;Node17 -->
<g id="edge21" class="edge"><title>Node16&#45;&gt;Node17</title>
<path fill="none" stroke="midnightblue" d="M1700.17,-362.739C1751.21,-357.628 1822.71,-346.437 1881,-322 1903.06,-312.751 1904.65,-303.573 1925,-291 1953.76,-273.233 1967.15,-277.92 1992,-255 2006.62,-241.512 2018.38,-221.883 2025.69,-207.728"/>
<polygon fill="midnightblue" stroke="midnightblue" points="2028.93,-209.072 2030.21,-198.555 2022.66,-205.979 2028.93,-209.072"/>
</g>
<!-- Node19 -->
<g id="node19" class="node"><title>Node19</title>
<g id="a_node19"><a xlink:href="packed__func_8h.html" target="_top" xlink:title="Type&#45;erased function used across TVM API. ">
<polygon fill="white" stroke="black" points="1577.5,-291.5 1577.5,-321.5 1690.5,-321.5 1690.5,-291.5 1577.5,-291.5"/>
<text text-anchor="start" x="1585.5" y="-309.5" font-family="Helvetica,sans-Serif" font-size="10.00">tvm/runtime/packed</text>
<text text-anchor="middle" x="1634" y="-298.5" font-family="Helvetica,sans-Serif" font-size="10.00">_func.h</text>
</a>
</g>
</g>
<!-- Node16&#45;&gt;Node19 -->
<g id="edge27" class="edge"><title>Node16&#45;&gt;Node19</title>
<path fill="none" stroke="midnightblue" d="M1634,-358.475C1634,-351.471 1634,-341.192 1634,-331.696"/>
<polygon fill="midnightblue" stroke="midnightblue" points="1637.5,-331.523 1634,-321.523 1630.5,-331.523 1637.5,-331.523"/>
</g>
<!-- Node31 -->
<g id="node31" class="node"><title>Node31</title>
<polygon fill="white" stroke="#bfbfbf" points="1823.5,-297 1823.5,-316 1872.5,-316 1872.5,-297 1823.5,-297"/>
<text text-anchor="middle" x="1848" y="-304" font-family="Helvetica,sans-Serif" font-size="10.00">cstring</text>
</g>
<!-- Node16&#45;&gt;Node31 -->
<g id="edge65" class="edge"><title>Node16&#45;&gt;Node31</title>
<path fill="none" stroke="midnightblue" d="M1671.87,-358.467C1707.53,-350.148 1762.3,-336.641 1809,-322 1811.56,-321.197 1814.2,-320.322 1816.84,-319.412"/>
<polygon fill="midnightblue" stroke="midnightblue" points="1818.04,-322.7 1826.27,-316.034 1815.68,-316.11 1818.04,-322.7"/>
</g>
<!-- Node32 -->
<g id="node32" class="node"><title>Node32</title>
<polygon fill="white" stroke="#bfbfbf" points="2005.5,-297 2005.5,-316 2082.5,-316 2082.5,-297 2005.5,-297"/>
<text text-anchor="middle" x="2044" y="-304" font-family="Helvetica,sans-Serif" font-size="10.00">initializer_list</text>
</g>
<!-- Node16&#45;&gt;Node32 -->
<g id="edge66" class="edge"><title>Node16&#45;&gt;Node32</title>
<path fill="none" stroke="midnightblue" d="M1700.25,-361.481C1772.26,-354.824 1890.52,-341.974 1991,-322 1995.78,-321.05 2000.76,-319.903 2005.67,-318.674"/>
<polygon fill="midnightblue" stroke="midnightblue" points="2006.79,-321.999 2015.57,-316.074 2005.01,-315.229 2006.79,-321.999"/>
</g>
<!-- Node17&#45;&gt;Node4 -->
<g id="edge22" class="edge"><title>Node17&#45;&gt;Node4</title>
<path fill="none" stroke="midnightblue" d="M1970.45,-184.703C1786.12,-175.142 1252.31,-147.451 1061.67,-137.562"/>
<polygon fill="midnightblue" stroke="midnightblue" points="1061.67,-134.058 1051.51,-137.035 1061.31,-141.048 1061.67,-134.058"/>
</g>
<!-- Node17&#45;&gt;Node9 -->
<g id="edge25" class="edge"><title>Node17&#45;&gt;Node9</title>
<path fill="none" stroke="midnightblue" d="M2037.76,-179.319C2045.87,-160.59 2065.15,-116.046 2076.08,-90.7924"/>
<polygon fill="midnightblue" stroke="midnightblue" points="2079.44,-91.8495 2080.2,-81.282 2073.01,-89.0685 2079.44,-91.8495"/>
</g>
<!-- Node17&#45;&gt;Node11 -->
<g id="edge24" class="edge"><title>Node17&#45;&gt;Node11</title>
<path fill="none" stroke="midnightblue" d="M2053.47,-179.319C2098.76,-159.119 2211.4,-108.891 2264.47,-85.2216"/>
<polygon fill="midnightblue" stroke="midnightblue" points="2265.95,-88.3939 2273.66,-81.1245 2263.1,-82.0008 2265.95,-88.3939"/>
</g>
<!-- Node18 -->
<g id="node18" class="node"><title>Node18</title>
<polygon fill="white" stroke="#bfbfbf" points="1970.5,-123.5 1970.5,-142.5 2017.5,-142.5 2017.5,-123.5 1970.5,-123.5"/>
<text text-anchor="middle" x="1994" y="-130.5" font-family="Helvetica,sans-Serif" font-size="10.00">cstdlib</text>
</g>
<!-- Node17&#45;&gt;Node18 -->
<g id="edge23" class="edge"><title>Node17&#45;&gt;Node18</title>
<path fill="none" stroke="midnightblue" d="M2027.39,-179.083C2021.74,-171.455 2013.46,-160.264 2006.55,-150.941"/>
<polygon fill="midnightblue" stroke="midnightblue" points="2009.25,-148.703 2000.48,-142.751 2003.62,-152.87 2009.25,-148.703"/>
</g>
<!-- Node19&#45;&gt;Node3 -->
<g id="edge28" class="edge"><title>Node19&#45;&gt;Node3</title>
<path fill="none" stroke="midnightblue" d="M1579.02,-291.494C1545.16,-282.319 1501.08,-269.387 1463,-255 1443.28,-247.55 1439.66,-242.592 1420,-235 1263.68,-174.643 1221.98,-165.896 1060,-123 999.803,-107.059 929.812,-92.2088 882.995,-82.7955"/>
<polygon fill="midnightblue" stroke="midnightblue" points="883.569,-79.341 873.077,-80.8129 882.197,-86.2053 883.569,-79.341"/>
</g>
<!-- Node19&#45;&gt;Node4 -->
<g id="edge56" class="edge"><title>Node19&#45;&gt;Node4</title>
<path fill="none" stroke="midnightblue" d="M1577.5,-293.939C1536.18,-284.9 1479.03,-271.178 1430,-255 1408.05,-247.758 1403.87,-242.459 1382,-235 1323.63,-215.097 1306.37,-218.903 1248,-199 1226.13,-191.541 1222.05,-185.927 1200,-179 1152.03,-163.928 1096.25,-152.119 1054.69,-144.387"/>
<polygon fill="midnightblue" stroke="midnightblue" points="1055.18,-140.919 1044.71,-142.558 1053.92,-147.804 1055.18,-140.919"/>
</g>
<!-- Node19&#45;&gt;Node5 -->
<g id="edge29" class="edge"><title>Node19&#45;&gt;Node5</title>
<path fill="none" stroke="midnightblue" d="M1690.68,-294.007C1712.09,-286.614 1734.32,-274.562 1747,-255 1751.84,-247.542 1748.31,-243.793 1747,-235 1739.36,-183.543 1747.53,-161.907 1713,-123 1700.06,-108.418 1682.13,-97.8612 1664.27,-90.2973"/>
<polygon fill="midnightblue" stroke="midnightblue" points="1665.55,-87.0407 1654.97,-86.6091 1662.97,-93.5481 1665.55,-87.0407"/>
</g>
<!-- Node19&#45;&gt;Node9 -->
<g id="edge64" class="edge"><title>Node19&#45;&gt;Node9</title>
<path fill="none" stroke="midnightblue" d="M1690.75,-293.493C1756.87,-279.416 1857.58,-257.653 1861,-255 1912.97,-214.662 1877.98,-165.74 1928,-123 1959.58,-96.0177 2005.83,-83.388 2039.78,-77.5153"/>
<polygon fill="midnightblue" stroke="midnightblue" points="2040.57,-80.9341 2049.89,-75.9013 2039.46,-74.0217 2040.57,-80.9341"/>
</g>
<!-- Node19&#45;&gt;Node10 -->
<g id="edge60" class="edge"><title>Node19&#45;&gt;Node10</title>
<path fill="none" stroke="midnightblue" d="M1577.49,-298.483C1512.59,-290.01 1403.06,-274.444 1310,-255 1275.81,-247.857 1267.96,-243.164 1234,-235 1006.67,-180.348 950.438,-162.535 720,-123 583.785,-99.6304 419.8,-82.3276 351.41,-75.5899"/>
<polygon fill="midnightblue" stroke="midnightblue" points="351.566,-72.0886 341.273,-74.5999 350.886,-79.0554 351.566,-72.0886"/>
</g>
<!-- Node19&#45;&gt;Node11 -->
<g id="edge63" class="edge"><title>Node19&#45;&gt;Node11</title>
<path fill="none" stroke="midnightblue" d="M1690.79,-300.056C1781.84,-289.735 1964.57,-262.405 2106,-199 2173.35,-168.807 2242.79,-114.592 2274.81,-88.0278"/>
<polygon fill="midnightblue" stroke="midnightblue" points="2277.41,-90.4199 2282.82,-81.3116 2272.91,-85.057 2277.41,-90.4199"/>
</g>
<!-- Node19&#45;&gt;Node13 -->
<g id="edge59" class="edge"><title>Node19&#45;&gt;Node13</title>
<path fill="none" stroke="midnightblue" d="M1577.14,-294.32C1528,-284.496 1455.16,-269.539 1392,-255 1311.1,-236.377 1216.64,-211.867 1167.52,-198.914"/>
<polygon fill="midnightblue" stroke="midnightblue" points="1168.32,-195.503 1157.75,-196.332 1166.53,-202.271 1168.32,-195.503"/>
</g>
<!-- Node20 -->
<g id="node20" class="node"><title>Node20</title>
<g id="a_node20"><a xlink:href="runtime_2module_8h.html" target="_top" xlink:title="Runtime container of the functions generated by TVM, This is used to support dynamically link...">
<polygon fill="white" stroke="black" points="1614,-235.5 1614,-254.5 1738,-254.5 1738,-235.5 1614,-235.5"/>
<text text-anchor="middle" x="1676" y="-242.5" font-family="Helvetica,sans-Serif" font-size="10.00">tvm/runtime/module.h</text>
</a>
</g>
</g>
<!-- Node19&#45;&gt;Node20 -->
<g id="edge30" class="edge"><title>Node19&#45;&gt;Node20</title>
<path fill="none" stroke="midnightblue" d="M1638.11,-291.399C1643.16,-282.664 1651.02,-271.413 1658.4,-262.296"/>
<polygon fill="midnightblue" stroke="midnightblue" points="1661.1,-264.525 1664.96,-254.658 1655.79,-259.966 1661.1,-264.525"/>
</g>
<!-- Node22 -->
<g id="node22" class="node"><title>Node22</title>
<polygon fill="white" stroke="#bfbfbf" points="1780.5,-179.5 1780.5,-198.5 1837.5,-198.5 1837.5,-179.5 1780.5,-179.5"/>
<text text-anchor="middle" x="1809" y="-186.5" font-family="Helvetica,sans-Serif" font-size="10.00">memory</text>
</g>
<!-- Node19&#45;&gt;Node22 -->
<g id="edge62" class="edge"><title>Node19&#45;&gt;Node22</title>
<path fill="none" stroke="midnightblue" d="M1690.74,-293.662C1751.27,-280.765 1839.16,-261.148 1844,-255 1856.18,-239.541 1841.16,-219.24 1827.18,-205.468"/>
<polygon fill="midnightblue" stroke="midnightblue" points="1829.42,-202.776 1819.7,-198.561 1824.67,-207.918 1829.42,-202.776"/>
</g>
<!-- Node24 -->
<g id="node24" class="node"><title>Node24</title>
<g id="a_node24"><a xlink:href="ndarray_8h.html" target="_top" xlink:title="A device&#45;independent managed NDArray abstraction. ">
<polygon fill="white" stroke="black" points="1472.5,-235.5 1472.5,-254.5 1595.5,-254.5 1595.5,-235.5 1472.5,-235.5"/>
<text text-anchor="middle" x="1534" y="-242.5" font-family="Helvetica,sans-Serif" font-size="10.00">tvm/runtime/ndarray.h</text>
</a>
</g>
</g>
<!-- Node19&#45;&gt;Node24 -->
<g id="edge40" class="edge"><title>Node19&#45;&gt;Node24</title>
<path fill="none" stroke="midnightblue" d="M1610.3,-291.399C1594.27,-281.862 1573.2,-269.325 1557.26,-259.842"/>
<polygon fill="midnightblue" stroke="midnightblue" points="1558.93,-256.763 1548.55,-254.658 1555.36,-262.779 1558.93,-256.763"/>
</g>
<!-- Node19&#45;&gt;Node27 -->
<g id="edge51" class="edge"><title>Node19&#45;&gt;Node27</title>
<path fill="none" stroke="midnightblue" d="M1577.44,-302.301C1401.47,-292.348 863.323,-261.911 660.474,-250.438"/>
<polygon fill="midnightblue" stroke="midnightblue" points="660.383,-246.928 650.201,-249.857 659.988,-253.917 660.383,-246.928"/>
</g>
<!-- Node28 -->
<g id="node28" class="node"><title>Node28</title>
<polygon fill="white" stroke="#bfbfbf" points="1162.5,-235.5 1162.5,-254.5 1225.5,-254.5 1225.5,-235.5 1162.5,-235.5"/>
<text text-anchor="middle" x="1194" y="-242.5" font-family="Helvetica,sans-Serif" font-size="10.00">functional</text>
</g>
<!-- Node19&#45;&gt;Node28 -->
<g id="edge57" class="edge"><title>Node19&#45;&gt;Node28</title>
<path fill="none" stroke="midnightblue" d="M1577.38,-297.843C1487.75,-285.723 1315.24,-262.394 1235.85,-251.659"/>
<polygon fill="midnightblue" stroke="midnightblue" points="1236.11,-248.163 1225.74,-250.292 1235.18,-255.1 1236.11,-248.163"/>
</g>
<!-- Node29 -->
<g id="node29" class="node"><title>Node29</title>
<polygon fill="white" stroke="#bfbfbf" points="1794.5,-235.5 1794.5,-254.5 1835.5,-254.5 1835.5,-235.5 1794.5,-235.5"/>
<text text-anchor="middle" x="1815" y="-242.5" font-family="Helvetica,sans-Serif" font-size="10.00">tuple</text>
</g>
<!-- Node19&#45;&gt;Node29 -->
<g id="edge58" class="edge"><title>Node19&#45;&gt;Node29</title>
<path fill="none" stroke="midnightblue" d="M1676.89,-291.399C1710,-280.517 1754.98,-265.73 1784.49,-256.03"/>
<polygon fill="midnightblue" stroke="midnightblue" points="1785.83,-259.274 1794.23,-252.826 1783.64,-252.624 1785.83,-259.274"/>
</g>
<!-- Node19&#45;&gt;Node30 -->
<g id="edge61" class="edge"><title>Node19&#45;&gt;Node30</title>
<path fill="none" stroke="midnightblue" d="M1690.72,-300.595C1726.15,-297.615 1772.71,-293.849 1814,-291 2106.21,-270.837 2460.2,-252.786 2565.82,-247.534"/>
<polygon fill="midnightblue" stroke="midnightblue" points="2566,-251.03 2575.81,-247.039 2565.65,-244.038 2566,-251.03"/>
</g>
<!-- Node20&#45;&gt;Node4 -->
<g id="edge33" class="edge"><title>Node20&#45;&gt;Node4</title>
<path fill="none" stroke="midnightblue" d="M1620.94,-235.465C1565.18,-226.717 1476.49,-212.519 1400,-199 1353.22,-190.733 1341.84,-186.947 1295,-179 1215.05,-165.434 1122.8,-152.012 1061.51,-143.406"/>
<polygon fill="midnightblue" stroke="midnightblue" points="1061.96,-139.935 1051.57,-142.014 1060.99,-146.867 1061.96,-139.935"/>
</g>
<!-- Node20&#45;&gt;Node5 -->
<g id="edge32" class="edge"><title>Node20&#45;&gt;Node5</title>
<path fill="none" stroke="midnightblue" d="M1680.99,-235.334C1692.32,-214.365 1717.39,-159.904 1695,-123 1686.4,-108.819 1672.37,-98.4357 1657.62,-90.9094"/>
<polygon fill="midnightblue" stroke="midnightblue" points="1658.92,-87.6563 1648.38,-86.584 1655.95,-93.9954 1658.92,-87.6563"/>
</g>
<!-- Node20&#45;&gt;Node10 -->
<g id="edge37" class="edge"><title>Node20&#45;&gt;Node10</title>
<path fill="none" stroke="midnightblue" d="M1622.14,-235.479C1572.7,-227.315 1497.56,-214.037 1433,-199 1401.07,-191.563 1393.93,-186.441 1362,-179 1229.05,-148.017 1195.43,-140.114 1060,-123 787.254,-88.5349 454.847,-76.4498 351.333,-73.3725"/>
<polygon fill="midnightblue" stroke="midnightblue" points="351.313,-69.8705 341.216,-73.079 351.11,-76.8676 351.313,-69.8705"/>
</g>
<!-- Node20&#45;&gt;Node13 -->
<g id="edge36" class="edge"><title>Node20&#45;&gt;Node13</title>
<path fill="none" stroke="midnightblue" d="M1613.96,-236.13C1610.59,-235.738 1607.26,-235.359 1604,-235 1440.98,-217.01 1245.67,-199.652 1168.14,-192.928"/>
<polygon fill="midnightblue" stroke="midnightblue" points="1168.26,-189.425 1157.99,-192.05 1167.65,-196.399 1168.26,-189.425"/>
</g>
<!-- Node20&#45;&gt;Node17 -->
<g id="edge34" class="edge"><title>Node20&#45;&gt;Node17</title>
<path fill="none" stroke="midnightblue" d="M1732.73,-235.444C1796.49,-225.826 1899.9,-210.228 1967.43,-200.041"/>
<polygon fill="midnightblue" stroke="midnightblue" points="1968.17,-203.469 1977.54,-198.516 1967.13,-196.547 1968.17,-203.469"/>
</g>
<!-- Node20&#45;&gt;Node19 -->
<g id="edge39" class="edge"><title>Node20&#45;&gt;Node19</title>
<path fill="none" stroke="midnightblue" d="M1674.82,-254.658C1671.13,-262.181 1663.74,-273.411 1656.14,-283.404"/>
<polygon fill="midnightblue" stroke="midnightblue" points="1653.27,-281.392 1649.79,-291.399 1658.75,-285.746 1653.27,-281.392"/>
</g>
<!-- Node21 -->
<g id="node21" class="node"><title>Node21</title>
<polygon fill="white" stroke="#bfbfbf" points="1626,-123.5 1626,-142.5 1686,-142.5 1686,-123.5 1626,-123.5"/>
<text text-anchor="middle" x="1656" y="-130.5" font-family="Helvetica,sans-Serif" font-size="10.00">dmlc/io.h</text>
</g>
<!-- Node20&#45;&gt;Node21 -->
<g id="edge31" class="edge"><title>Node20&#45;&gt;Node21</title>
<path fill="none" stroke="midnightblue" d="M1674.43,-235.368C1671.2,-217.617 1663.76,-176.666 1659.38,-152.597"/>
<polygon fill="midnightblue" stroke="midnightblue" points="1662.79,-151.804 1657.56,-142.591 1655.91,-153.056 1662.79,-151.804"/>
</g>
<!-- Node20&#45;&gt;Node22 -->
<g id="edge35" class="edge"><title>Node20&#45;&gt;Node22</title>
<path fill="none" stroke="midnightblue" d="M1697.07,-235.444C1719.06,-226.517 1753.73,-212.439 1778.66,-202.317"/>
<polygon fill="midnightblue" stroke="midnightblue" points="1780.08,-205.521 1788.02,-198.516 1777.44,-199.035 1780.08,-205.521"/>
</g>
<!-- Node20&#45;&gt;Node23 -->
<g id="edge38" class="edge"><title>Node20&#45;&gt;Node23</title>
<path fill="none" stroke="midnightblue" d="M1738.25,-238.824C1753.54,-237.563 1769.86,-236.225 1785,-235 1972.07,-219.866 2193.85,-202.447 2296.13,-194.443"/>
<polygon fill="midnightblue" stroke="midnightblue" points="2296.54,-197.921 2306.24,-193.652 2296,-190.942 2296.54,-197.921"/>
</g>
<!-- Node24&#45;&gt;Node4 -->
<g id="edge42" class="edge"><title>Node24&#45;&gt;Node4</title>
<path fill="none" stroke="midnightblue" d="M1493.3,-235.498C1450.96,-226.602 1382.77,-212.129 1324,-199 1285.7,-190.444 1276.42,-186.991 1238,-179 1175.22,-165.941 1102.96,-152.913 1053.28,-144.26"/>
<polygon fill="midnightblue" stroke="midnightblue" points="1053.79,-140.797 1043.34,-142.536 1052.6,-147.694 1053.79,-140.797"/>
</g>
<!-- Node24&#45;&gt;Node5 -->
<g id="edge41" class="edge"><title>Node24&#45;&gt;Node5</title>
<path fill="none" stroke="midnightblue" d="M1547.12,-235.332C1558.11,-227.301 1573.22,-214.306 1581,-199 1597.52,-166.507 1599.83,-123.54 1599.37,-96.9759"/>
<polygon fill="midnightblue" stroke="midnightblue" points="1602.86,-96.5557 1599.04,-86.6742 1595.86,-96.7822 1602.86,-96.5557"/>
</g>
<!-- Node24&#45;&gt;Node11 -->
<g id="edge50" class="edge"><title>Node24&#45;&gt;Node11</title>
<path fill="none" stroke="midnightblue" d="M1559.71,-235.492C1625.68,-213.929 1806.63,-156.474 1961,-123 2070.42,-99.2716 2202.51,-82.7244 2261.68,-75.9377"/>
<polygon fill="midnightblue" stroke="midnightblue" points="2262.32,-79.3882 2271.86,-74.7845 2261.53,-72.4327 2262.32,-79.3882"/>
</g>
<!-- Node24&#45;&gt;Node12 -->
<g id="edge48" class="edge"><title>Node24&#45;&gt;Node12</title>
<path fill="none" stroke="midnightblue" d="M1514.12,-235.5C1493.66,-226.664 1460.9,-212.293 1433,-199 1350.21,-159.56 1253.85,-109.353 1209.15,-85.8137"/>
<polygon fill="midnightblue" stroke="midnightblue" points="1210.65,-82.6473 1200.17,-81.0774 1207.38,-88.8388 1210.65,-82.6473"/>
</g>
<!-- Node24&#45;&gt;Node13 -->
<g id="edge49" class="edge"><title>Node24&#45;&gt;Node13</title>
<path fill="none" stroke="midnightblue" d="M1472.38,-235.681C1386.88,-224.139 1235.21,-203.664 1167.86,-194.571"/>
<polygon fill="midnightblue" stroke="midnightblue" points="1168.17,-191.081 1157.79,-193.212 1167.23,-198.018 1168.17,-191.081"/>
</g>
<!-- Node25 -->
<g id="node25" class="node"><title>Node25</title>
<g id="a_node25"><a xlink:href="serializer_8h.html" target="_top" xlink:title="Serializer extension to support TVM data types Include this file to enable serialization of DLDataTyp...">
<polygon fill="white" stroke="black" points="1442,-179.5 1442,-198.5 1572,-198.5 1572,-179.5 1442,-179.5"/>
<text text-anchor="middle" x="1507" y="-186.5" font-family="Helvetica,sans-Serif" font-size="10.00">tvm/runtime/serializer.h</text>
</a>
</g>
</g>
<!-- Node24&#45;&gt;Node25 -->
<g id="edge43" class="edge"><title>Node24&#45;&gt;Node25</title>
<path fill="none" stroke="midnightblue" d="M1524.38,-235.083C1519.23,-227.849 1513.59,-217.409 1509.76,-208.397"/>
<polygon fill="midnightblue" stroke="midnightblue" points="1512.96,-206.946 1506.24,-198.751 1506.38,-209.345 1512.96,-206.946"/>
</g>
<!-- Node25&#45;&gt;Node5 -->
<g id="edge46" class="edge"><title>Node25&#45;&gt;Node5</title>
<path fill="none" stroke="midnightblue" d="M1513.84,-179.319C1527.88,-161.502 1560.32,-120.324 1580.58,-94.615"/>
<polygon fill="midnightblue" stroke="midnightblue" points="1583.49,-96.5663 1586.93,-86.5453 1578,-92.2342 1583.49,-96.5663"/>
</g>
<!-- Node25&#45;&gt;Node21 -->
<g id="edge44" class="edge"><title>Node25&#45;&gt;Node21</title>
<path fill="none" stroke="midnightblue" d="M1530.61,-179.444C1555.46,-170.438 1594.77,-156.189 1622.75,-146.049"/>
<polygon fill="midnightblue" stroke="midnightblue" points="1624.29,-149.214 1632.5,-142.516 1621.91,-142.633 1624.29,-149.214"/>
</g>
<!-- Node25&#45;&gt;Node24 -->
<g id="edge47" class="edge"><title>Node25&#45;&gt;Node24</title>
<path fill="none" stroke="midnightblue" d="M1516.51,-198.751C1521.7,-206.014 1527.42,-216.589 1531.27,-225.69"/>
<polygon fill="midnightblue" stroke="midnightblue" points="1527.99,-226.893 1534.71,-235.083 1534.56,-224.489 1527.99,-226.893"/>
</g>
<!-- Node26 -->
<g id="node26" class="node"><title>Node26</title>
<polygon fill="white" stroke="#bfbfbf" points="1438,-123.5 1438,-142.5 1532,-142.5 1532,-123.5 1438,-123.5"/>
<text text-anchor="middle" x="1485" y="-130.5" font-family="Helvetica,sans-Serif" font-size="10.00">dmlc/serializer.h</text>
</g>
<!-- Node25&#45;&gt;Node26 -->
<g id="edge45" class="edge"><title>Node25&#45;&gt;Node26</title>
<path fill="none" stroke="midnightblue" d="M1503.37,-179.083C1500.39,-171.77 1496.07,-161.181 1492.38,-152.103"/>
<polygon fill="midnightblue" stroke="midnightblue" points="1495.58,-150.691 1488.57,-142.751 1489.1,-153.333 1495.58,-150.691"/>
</g>
<!-- Node27&#45;&gt;Node3 -->
<g id="edge53" class="edge"><title>Node27&#45;&gt;Node3</title>
<path fill="none" stroke="midnightblue" d="M580.999,-235.192C579.899,-222.31 579.204,-197.822 587,-179 599.545,-148.715 607.188,-140.351 635,-123 678.217,-96.0382 735.382,-83.4091 776.633,-77.5312"/>
<polygon fill="midnightblue" stroke="midnightblue" points="777.311,-80.9718 786.759,-76.1777 776.384,-74.0335 777.311,-80.9718"/>
</g>
<!-- Node27&#45;&gt;Node5 -->
<g id="edge52" class="edge"><title>Node27&#45;&gt;Node5</title>
<path fill="none" stroke="midnightblue" d="M601.226,-235.386C630.741,-222.323 689.145,-197.11 740,-179 820.928,-150.18 840.55,-138.753 925,-123 1038.23,-101.879 1374.49,-83.4138 1524.42,-75.9827"/>
<polygon fill="midnightblue" stroke="midnightblue" points="1524.64,-79.4763 1534.45,-75.4881 1524.29,-72.4847 1524.64,-79.4763"/>
</g>
<!-- Node27&#45;&gt;Node9 -->
<g id="edge54" class="edge"><title>Node27&#45;&gt;Node9</title>
<path fill="none" stroke="midnightblue" d="M633.414,-235.466C765.258,-213.841 1126.31,-156.254 1429,-123 1658.31,-97.8079 1934.15,-80.8995 2039.85,-74.9111"/>
<polygon fill="midnightblue" stroke="midnightblue" points="2040.05,-78.4056 2049.83,-74.3493 2039.65,-71.4167 2040.05,-78.4056"/>
</g>
<!-- Node27&#45;&gt;Node10 -->
<g id="edge55" class="edge"><title>Node27&#45;&gt;Node10</title>
<path fill="none" stroke="midnightblue" d="M572.172,-235.31C548.095,-214.287 483.76,-159.715 424,-123 399.937,-108.216 370.89,-94.5373 349.452,-85.1554"/>
<polygon fill="midnightblue" stroke="midnightblue" points="350.752,-81.9043 340.183,-81.1587 347.98,-88.3322 350.752,-81.9043"/>
</g>
<!-- Node33&#45;&gt;Node4 -->
<g id="edge75" class="edge"><title>Node33&#45;&gt;Node4</title>
<path fill="none" stroke="midnightblue" d="M1114.33,-537.377C1082.77,-496.369 949.187,-320.379 930,-255 920.488,-222.589 914.544,-209.034 930,-179 937.077,-165.247 950.521,-154.766 963.178,-147.394"/>
<polygon fill="midnightblue" stroke="midnightblue" points="964.999,-150.389 972.153,-142.573 961.687,-144.222 964.999,-150.389"/>
</g>
<!-- Node33&#45;&gt;Node5 -->
<g id="edge74" class="edge"><title>Node33&#45;&gt;Node5</title>
<path fill="none" stroke="midnightblue" d="M1118.67,-537.268C1113.6,-517.459 1102,-467.529 1102,-425 1102,-425 1102,-425 1102,-367 1102,-283.443 1048.47,-243.979 1101,-179 1153.34,-114.255 1398.54,-87.0941 1523.86,-77.2877"/>
<polygon fill="midnightblue" stroke="midnightblue" points="1524.43,-80.7541 1534.14,-76.5013 1523.9,-73.7745 1524.43,-80.7541"/>
</g>
<!-- Node33&#45;&gt;Node9 -->
<g id="edge103" class="edge"><title>Node33&#45;&gt;Node9</title>
<path fill="none" stroke="midnightblue" d="M1180.71,-539.079C1400.01,-513.397 2153.29,-422.738 2252,-378 2303.18,-354.804 2440.95,-224.516 2408,-179 2343.22,-89.5152 2200.77,-73.8962 2128.27,-72.0059"/>
<polygon fill="midnightblue" stroke="midnightblue" points="2128.16,-68.5034 2118.1,-71.8194 2128.03,-75.5022 2128.16,-68.5034"/>
</g>
<!-- Node33&#45;&gt;Node10 -->
<g id="edge102" class="edge"><title>Node33&#45;&gt;Node10</title>
<path fill="none" stroke="midnightblue" d="M1061.22,-544.15C949.897,-540.093 715.191,-528.487 639,-501 450.101,-432.853 266,-446.815 266,-246 266,-246 266,-246 266,-188 266,-149.97 290.029,-110.788 305.728,-89.2478"/>
<polygon fill="midnightblue" stroke="midnightblue" points="308.611,-91.2381 311.852,-81.1511 303.028,-87.0155 308.611,-91.2381"/>
</g>
<!-- Node33&#45;&gt;Node13 -->
<g id="edge101" class="edge"><title>Node33&#45;&gt;Node13</title>
<path fill="none" stroke="midnightblue" d="M1123.33,-537.268C1128.4,-517.459 1140,-467.529 1140,-425 1140,-425 1140,-425 1140,-367 1140,-309.494 1136.8,-241.539 1135.07,-209.097"/>
<polygon fill="midnightblue" stroke="midnightblue" points="1138.55,-208.631 1134.51,-198.837 1131.56,-209.013 1138.55,-208.631"/>
</g>
<!-- Node33&#45;&gt;Node17 -->
<g id="edge76" class="edge"><title>Node33&#45;&gt;Node17</title>
<path fill="none" stroke="midnightblue" d="M1154.28,-537.456C1238.56,-515.904 1467.29,-457.92 1659,-414 1706.84,-403.04 2060.12,-360.146 2091,-322 2120.32,-285.779 2076.56,-232.188 2050.72,-205.824"/>
<polygon fill="midnightblue" stroke="midnightblue" points="2052.95,-203.105 2043.38,-198.565 2048.03,-208.084 2052.95,-203.105"/>
</g>
<!-- Node33&#45;&gt;Node19 -->
<g id="edge77" class="edge"><title>Node33&#45;&gt;Node19</title>
<path fill="none" stroke="midnightblue" d="M1134.63,-537.275C1186.9,-503.928 1374.84,-385.058 1440,-358 1481.01,-340.969 1529.34,-328.37 1567.5,-320.015"/>
<polygon fill="midnightblue" stroke="midnightblue" points="1568.42,-323.396 1577.47,-317.877 1566.96,-316.551 1568.42,-323.396"/>
</g>
<!-- Node33&#45;&gt;Node24 -->
<g id="edge78" class="edge"><title>Node33&#45;&gt;Node24</title>
<path fill="none" stroke="midnightblue" d="M1127.87,-537.389C1139.91,-522.6 1166.03,-491.859 1192,-470 1301.57,-377.783 1450.87,-291.782 1509.21,-259.483"/>
<polygon fill="midnightblue" stroke="midnightblue" points="1511.01,-262.486 1518.08,-254.597 1507.64,-256.354 1511.01,-262.486"/>
</g>
<!-- Node33&#45;&gt;Node27 -->
<g id="edge79" class="edge"><title>Node33&#45;&gt;Node27</title>
<path fill="none" stroke="midnightblue" d="M1061.2,-543.676C945.123,-538.645 697.976,-525.205 668,-501 616.057,-459.057 643.452,-421.222 622,-358 610.711,-324.73 596.757,-286.207 588.669,-264.112"/>
<polygon fill="midnightblue" stroke="midnightblue" points="591.938,-262.862 585.206,-254.68 585.367,-265.274 591.938,-262.862"/>
</g>
<!-- Node33&#45;&gt;Node34 -->
<g id="edge80" class="edge"><title>Node33&#45;&gt;Node34</title>
<path fill="none" stroke="midnightblue" d="M1100.37,-537.475C1079.59,-528.889 1046.9,-515.383 1020.39,-504.429"/>
<polygon fill="midnightblue" stroke="midnightblue" points="1021.52,-501.107 1010.94,-500.523 1018.84,-507.577 1021.52,-501.107"/>
</g>
<!-- Node33&#45;&gt;Node36 -->
<g id="edge95" class="edge"><title>Node33&#45;&gt;Node36</title>
<path fill="none" stroke="midnightblue" d="M1065.41,-537.475C995.064,-526.688 874.057,-508.131 799.068,-496.632"/>
<polygon fill="midnightblue" stroke="midnightblue" points="799.217,-493.114 788.802,-495.057 798.156,-500.033 799.217,-493.114"/>
</g>
<!-- Node34&#45;&gt;Node2 -->
<g id="edge82" class="edge"><title>Node34&#45;&gt;Node2</title>
<path fill="none" stroke="midnightblue" d="M976.875,-470.437C976.199,-455.591 973.536,-431.906 964,-414 957.808,-402.374 947.562,-391.911 938.31,-384.007"/>
<polygon fill="midnightblue" stroke="midnightblue" points="940.221,-381.052 930.237,-377.507 935.831,-386.504 940.221,-381.052"/>
</g>
<!-- Node34&#45;&gt;Node10 -->
<g id="edge94" class="edge"><title>Node34&#45;&gt;Node10</title>
<path fill="none" stroke="midnightblue" d="M937.233,-470.451C852.77,-439.519 651.251,-359.858 505,-255 432.775,-203.216 361.87,-123.442 332.789,-89.1274"/>
<polygon fill="midnightblue" stroke="midnightblue" points="335.134,-86.4777 326.023,-81.0698 329.773,-90.9788 335.134,-86.4777"/>
</g>
<!-- Node34&#45;&gt;Node27 -->
<g id="edge81" class="edge"><title>Node34&#45;&gt;Node27</title>
<path fill="none" stroke="midnightblue" d="M953.766,-470.471C883.797,-428.224 675.596,-302.513 605.404,-260.131"/>
<polygon fill="midnightblue" stroke="midnightblue" points="606.814,-256.894 596.444,-254.721 603.196,-262.887 606.814,-256.894"/>
</g>
<!-- Node34&#45;&gt;Node35 -->
<g id="edge83" class="edge"><title>Node34&#45;&gt;Node35</title>
<path fill="none" stroke="midnightblue" d="M1032.53,-480.101C1166.99,-469.448 1509.87,-442.282 1658.04,-430.543"/>
<polygon fill="midnightblue" stroke="midnightblue" points="1658.68,-434.003 1668.37,-429.724 1658.12,-427.025 1658.68,-434.003"/>
</g>
<!-- Node35&#45;&gt;Node4 -->
<g id="edge84" class="edge"><title>Node35&#45;&gt;Node4</title>
<path fill="none" stroke="midnightblue" d="M1668.26,-423.404C1565.01,-421.66 1349.27,-407.103 1193,-322 1109.67,-276.616 1034.97,-188.09 1005.89,-150.995"/>
<polygon fill="midnightblue" stroke="midnightblue" points="1008.39,-148.502 999.502,-142.729 1002.85,-152.782 1008.39,-148.502"/>
</g>
<!-- Node35&#45;&gt;Node9 -->
<g id="edge88" class="edge"><title>Node35&#45;&gt;Node9</title>
<path fill="none" stroke="midnightblue" d="M1787.65,-421.936C1853.99,-419.118 1963.47,-409.556 2052,-378 2097.09,-361.928 2120.55,-363.73 2144,-322 2164.42,-285.659 2207.17,-322.943 2124,-123 2118.62,-110.061 2108.92,-97.6903 2100.42,-88.4313"/>
<polygon fill="midnightblue" stroke="midnightblue" points="2102.87,-85.9227 2093.4,-81.1594 2097.83,-90.7847 2102.87,-85.9227"/>
</g>
<!-- Node35&#45;&gt;Node10 -->
<g id="edge93" class="edge"><title>Node35&#45;&gt;Node10</title>
<path fill="none" stroke="midnightblue" d="M1668.23,-420.056C1581.17,-415.093 1414.64,-403.046 1275,-378 1082.81,-343.528 494.406,-135.263 350.841,-83.9286"/>
<polygon fill="midnightblue" stroke="midnightblue" points="351.879,-80.5828 341.285,-80.5083 349.52,-87.1734 351.879,-80.5828"/>
</g>
<!-- Node35&#45;&gt;Node11 -->
<g id="edge92" class="edge"><title>Node35&#45;&gt;Node11</title>
<path fill="none" stroke="midnightblue" d="M1787.86,-421.621C1906.62,-418.272 2167.83,-407.68 2252,-378 2319.19,-354.307 2484.52,-261.891 2518,-199 2560.57,-119.048 2395.66,-86.4895 2324.36,-76.3266"/>
<polygon fill="midnightblue" stroke="midnightblue" points="2324.54,-72.8191 2314.16,-74.9352 2323.59,-79.7549 2324.54,-72.8191"/>
</g>
<!-- Node35&#45;&gt;Node13 -->
<g id="edge89" class="edge"><title>Node35&#45;&gt;Node13</title>
<path fill="none" stroke="midnightblue" d="M1678.01,-414.496C1597.2,-400.022 1433.45,-367.666 1300,-322 1232.07,-298.754 1200.01,-309.273 1153,-255 1141.82,-242.097 1137.21,-222.923 1135.32,-208.74"/>
<polygon fill="midnightblue" stroke="midnightblue" points="1138.79,-208.252 1134.3,-198.652 1131.82,-208.952 1138.79,-208.252"/>
</g>
<!-- Node35&#45;&gt;Node16 -->
<g id="edge87" class="edge"><title>Node35&#45;&gt;Node16</title>
<path fill="none" stroke="midnightblue" d="M1712.9,-414.324C1698.1,-405.822 1675.31,-392.729 1658.02,-382.797"/>
<polygon fill="midnightblue" stroke="midnightblue" points="1659.48,-379.601 1649.07,-377.655 1655.99,-385.671 1659.48,-379.601"/>
</g>
<!-- Node35&#45;&gt;Node17 -->
<g id="edge85" class="edge"><title>Node35&#45;&gt;Node17</title>
<path fill="none" stroke="midnightblue" d="M1787.67,-416.675C1888.06,-404.666 2083.86,-374.919 2125,-322 2157.13,-280.673 2092.94,-228.83 2056.61,-204.223"/>
<polygon fill="midnightblue" stroke="midnightblue" points="2058.33,-201.161 2048.05,-198.577 2054.47,-207.005 2058.33,-201.161"/>
</g>
<!-- Node35&#45;&gt;Node19 -->
<g id="edge86" class="edge"><title>Node35&#45;&gt;Node19</title>
<path fill="none" stroke="midnightblue" d="M1727.32,-414.176C1725.9,-400.839 1721.63,-375.274 1709,-358 1699.74,-345.336 1686.28,-334.863 1673.31,-326.801"/>
<polygon fill="midnightblue" stroke="midnightblue" points="1674.86,-323.654 1664.47,-321.608 1671.32,-329.69 1674.86,-323.654"/>
</g>
<!-- Node35&#45;&gt;Node23 -->
<g id="edge91" class="edge"><title>Node35&#45;&gt;Node23</title>
<path fill="none" stroke="midnightblue" d="M1787.9,-422.819C1901.92,-421.618 2145.44,-414.686 2220,-378 2286.88,-345.092 2297.23,-319.834 2334,-255 2342.16,-240.619 2347.09,-222.424 2349.87,-208.944"/>
<polygon fill="midnightblue" stroke="midnightblue" points="2353.35,-209.388 2351.73,-198.918 2346.47,-208.111 2353.35,-209.388"/>
</g>
<!-- Node35&#45;&gt;Node32 -->
<g id="edge90" class="edge"><title>Node35&#45;&gt;Node32</title>
<path fill="none" stroke="midnightblue" d="M1751.49,-414.413C1807.02,-394.116 1946.52,-343.129 2010.72,-319.664"/>
<polygon fill="midnightblue" stroke="midnightblue" points="2012.16,-322.864 2020.35,-316.143 2009.76,-316.289 2012.16,-322.864"/>
</g>
<!-- Node36&#45;&gt;Node2 -->
<g id="edge97" class="edge"><title>Node36&#45;&gt;Node2</title>
<path fill="none" stroke="midnightblue" d="M755.685,-470.337C791.29,-448.108 859.89,-405.28 895.426,-383.093"/>
<polygon fill="midnightblue" stroke="midnightblue" points="897.485,-385.934 904.114,-377.669 893.778,-379.996 897.485,-385.934"/>
</g>
<!-- Node36&#45;&gt;Node10 -->
<g id="edge99" class="edge"><title>Node36&#45;&gt;Node10</title>
<path fill="none" stroke="midnightblue" d="M711.018,-470.379C671.524,-445.414 585.446,-392.837 508,-358 463.392,-337.934 438.502,-356.671 404,-322 338.238,-255.915 323.312,-136.993 319.959,-91.189"/>
<polygon fill="midnightblue" stroke="midnightblue" points="323.451,-90.9571 319.332,-81.1959 316.465,-91.3955 323.451,-90.9571"/>
</g>
<!-- Node36&#45;&gt;Node27 -->
<g id="edge96" class="edge"><title>Node36&#45;&gt;Node27</title>
<path fill="none" stroke="midnightblue" d="M726.127,-470.293C709.965,-437.438 667.466,-354.187 622,-291 614.674,-280.818 605.427,-270.294 597.67,-261.986"/>
<polygon fill="midnightblue" stroke="midnightblue" points="599.972,-259.329 590.535,-254.511 594.908,-264.162 599.972,-259.329"/>
</g>
<!-- Node36&#45;&gt;Node28 -->
<g id="edge100" class="edge"><title>Node36&#45;&gt;Node28</title>
<path fill="none" stroke="midnightblue" d="M743.06,-470.175C762.035,-444.169 805.665,-389.02 855,-358 951.877,-297.088 1085.34,-265.782 1152.23,-253.059"/>
<polygon fill="midnightblue" stroke="midnightblue" points="1153.18,-256.442 1162.38,-251.175 1151.91,-249.559 1153.18,-256.442"/>
</g>
<!-- Node36&#45;&gt;Node35 -->
<g id="edge98" class="edge"><title>Node36&#45;&gt;Node35</title>
<path fill="none" stroke="midnightblue" d="M788.607,-479.625C823.93,-476.62 870.629,-472.816 912,-470 1188.02,-451.212 1516.99,-434.937 1658.09,-428.248"/>
<polygon fill="midnightblue" stroke="midnightblue" points="1658.51,-431.732 1668.33,-427.764 1658.18,-424.74 1658.51,-431.732"/>
</g>
<!-- Node37&#45;&gt;Node2 -->
<g id="edge105" class="edge"><title>Node37&#45;&gt;Node2</title>
<path fill="none" stroke="midnightblue" d="M1282.53,-537.463C1220.61,-508.847 1020.13,-416.197 945.941,-381.913"/>
<polygon fill="midnightblue" stroke="midnightblue" points="947.282,-378.677 936.736,-377.659 944.345,-385.031 947.282,-378.677"/>
</g>
<!-- Node37&#45;&gt;Node38 -->
<g id="edge106" class="edge"><title>Node37&#45;&gt;Node38</title>
<path fill="none" stroke="midnightblue" d="M1366.24,-545.535C1514.96,-543.864 1890.35,-536.197 2202,-501 2215.85,-499.436 2230.9,-496.993 2244.28,-494.555"/>
<polygon fill="midnightblue" stroke="midnightblue" points="2244.96,-497.989 2254.14,-492.706 2243.67,-491.109 2244.96,-497.989"/>
</g>
<!-- Node39&#45;&gt;Node4 -->
<g id="edge119" class="edge"><title>Node39&#45;&gt;Node4</title>
<path fill="none" stroke="midnightblue" d="M1546,-761.442C1546,-742.936 1546,-697.812 1546,-660 1546,-660 1546,-660 1546,-546 1546,-341.469 1307.21,-445.271 1144,-322 1078.35,-272.415 1024.51,-188.168 1003.03,-151.699"/>
<polygon fill="midnightblue" stroke="midnightblue" points="1005.89,-149.649 997.852,-142.748 999.833,-153.156 1005.89,-149.649"/>
</g>
<!-- Node39&#45;&gt;Node9 -->
<g id="edge136" class="edge"><title>Node39&#45;&gt;Node9</title>
<path fill="none" stroke="midnightblue" d="M1584.54,-769.661C1663.56,-768.21 1849.17,-760.902 2000,-725 2283.42,-657.538 2440.34,-603.074 2517,-322 2543.82,-223.663 2489.7,-176.605 2403,-123 2357.85,-95.0829 2204.98,-80.8364 2128.43,-75.3102"/>
<polygon fill="midnightblue" stroke="midnightblue" points="2128.38,-71.7978 2118.16,-74.5877 2127.89,-78.7805 2128.38,-71.7978"/>
</g>
<!-- Node39&#45;&gt;Node10 -->
<g id="edge133" class="edge"><title>Node39&#45;&gt;Node10</title>
<path fill="none" stroke="midnightblue" d="M1507.45,-769.55C1344.39,-767.455 710.758,-757.356 514,-725 425.868,-710.507 403.066,-704.249 321,-669 223.085,-626.944 114,-654.565 114,-548 114,-548 114,-548 114,-188 114,-109.74 228.804,-83.9288 286.586,-75.8938"/>
<polygon fill="midnightblue" stroke="midnightblue" points="287.202,-79.3435 296.671,-74.5917 286.305,-72.4011 287.202,-79.3435"/>
</g>
<!-- Node39&#45;&gt;Node15 -->
<g id="edge120" class="edge"><title>Node39&#45;&gt;Node15</title>
<path fill="none" stroke="midnightblue" d="M1535.63,-761.309C1503.69,-734.528 1406.49,-653.035 1366,-619.09"/>
<polygon fill="midnightblue" stroke="midnightblue" points="1368.18,-616.348 1358.26,-612.605 1363.68,-621.712 1368.18,-616.348"/>
</g>
<!-- Node39&#45;&gt;Node30 -->
<g id="edge135" class="edge"><title>Node39&#45;&gt;Node30</title>
<path fill="none" stroke="midnightblue" d="M1584.76,-770.031C1716.38,-769.763 2145.21,-765.707 2276,-725 2294.2,-719.334 2570,-567.065 2570,-548 2570,-548 2570,-548 2570,-367 2570,-329.838 2582.28,-287.764 2590.28,-264.308"/>
<polygon fill="midnightblue" stroke="midnightblue" points="2593.66,-265.252 2593.69,-254.657 2587.06,-262.919 2593.66,-265.252"/>
</g>
<!-- Node39&#45;&gt;Node35 -->
<g id="edge121" class="edge"><title>Node39&#45;&gt;Node35</title>
<path fill="none" stroke="midnightblue" d="M1584.74,-770.729C1715.73,-770.829 2143.82,-751.343 2322,-501 2329.99,-489.775 2331.37,-480.104 2322,-470 2287.02,-432.274 1947.58,-426.008 1798.09,-425.088"/>
<polygon fill="midnightblue" stroke="midnightblue" points="1797.68,-421.586 1787.66,-425.031 1797.64,-428.586 1797.68,-421.586"/>
</g>
<!-- Node40 -->
<g id="node40" class="node"><title>Node40</title>
<g id="a_node40"><a xlink:href="span_8h.html" target="_top" xlink:title="Span information for debugging purposes. ">
<polygon fill="white" stroke="black" points="446,-649.5 446,-668.5 526,-668.5 526,-649.5 446,-649.5"/>
<text text-anchor="middle" x="486" y="-656.5" font-family="Helvetica,sans-Serif" font-size="10.00">tvm/ir/span.h</text>
</a>
</g>
</g>
<!-- Node39&#45;&gt;Node40 -->
<g id="edge122" class="edge"><title>Node39&#45;&gt;Node40</title>
<path fill="none" stroke="midnightblue" d="M1507.36,-770.028C1333.96,-769.919 632.127,-766.873 544,-725 522.732,-714.895 505.881,-693.04 495.941,-677.465"/>
<polygon fill="midnightblue" stroke="midnightblue" points="498.835,-675.487 490.667,-668.739 492.844,-679.108 498.835,-675.487"/>
</g>
<!-- Node41 -->
<g id="node41" class="node"><title>Node41</title>
<g id="a_node41"><a xlink:href="ir_2type_8h.html" target="_top" xlink:title="IR/AST nodes for the unified type system in TVM. ">
<polygon fill="white" stroke="black" points="553.5,-705.5 553.5,-724.5 630.5,-724.5 630.5,-705.5 553.5,-705.5"/>
<text text-anchor="middle" x="592" y="-712.5" font-family="Helvetica,sans-Serif" font-size="10.00">tvm/ir/type.h</text>
</a>
</g>
</g>
<!-- Node39&#45;&gt;Node41 -->
<g id="edge126" class="edge"><title>Node39&#45;&gt;Node41</title>
<path fill="none" stroke="midnightblue" d="M1507.42,-767.816C1356.75,-759.288 808.076,-728.231 640.766,-718.76"/>
<polygon fill="midnightblue" stroke="midnightblue" points="640.717,-715.252 630.535,-718.181 640.322,-722.241 640.717,-715.252"/>
</g>
<!-- Node39&#45;&gt;Node42 -->
<g id="edge134" class="edge"><title>Node39&#45;&gt;Node42</title>
<path fill="none" stroke="midnightblue" d="M1584.53,-769.63C1697.23,-768.144 2035.81,-760.793 2314,-725 2315.11,-724.858 2316.23,-724.704 2317.35,-724.541"/>
<polygon fill="midnightblue" stroke="midnightblue" points="2318.32,-727.929 2327.62,-722.854 2317.19,-721.022 2318.32,-727.929"/>
</g>
<!-- Node40&#45;&gt;Node4 -->
<g id="edge123" class="edge"><title>Node40&#45;&gt;Node4</title>
<path fill="none" stroke="midnightblue" d="M445.904,-655.665C382.449,-649.564 266,-627.534 266,-548 266,-548 266,-548 266,-423 266,-257.263 388.658,-224.594 548,-179 677.261,-142.013 835.234,-134.473 923.951,-133.467"/>
<polygon fill="midnightblue" stroke="midnightblue" points="924.189,-136.965 934.157,-133.377 924.127,-129.965 924.189,-136.965"/>
</g>
<!-- Node40&#45;&gt;Node10 -->
<g id="edge125" class="edge"><title>Node40&#45;&gt;Node10</title>
<path fill="none" stroke="midnightblue" d="M445.994,-653.775C393.527,-647.484 305.282,-634.081 281,-613 193.601,-537.122 190,-484.741 190,-369 190,-369 190,-369 190,-188 190,-135.983 248.937,-101.516 287.137,-84.6396"/>
<polygon fill="midnightblue" stroke="midnightblue" points="288.981,-87.6596 296.824,-80.5367 286.251,-81.2139 288.981,-87.6596"/>
</g>
<!-- Node40&#45;&gt;Node15 -->
<g id="edge124" class="edge"><title>Node40&#45;&gt;Node15</title>
<path fill="none" stroke="midnightblue" d="M526.133,-655.486C664.682,-646.806 1123.42,-618.069 1288.31,-607.739"/>
<polygon fill="midnightblue" stroke="midnightblue" points="1288.98,-611.204 1298.74,-607.086 1288.54,-604.218 1288.98,-611.204"/>
</g>
<!-- Node41&#45;&gt;Node4 -->
<g id="edge127" class="edge"><title>Node41&#45;&gt;Node4</title>
<path fill="none" stroke="midnightblue" d="M584.268,-705.157C573.319,-692.64 552.661,-669.046 535,-649 436.131,-536.779 309.909,-496.646 366,-358 416.307,-233.652 479.737,-214.834 609,-179 716.558,-149.183 846.402,-139.115 924.201,-135.721"/>
<polygon fill="midnightblue" stroke="midnightblue" points="924.511,-139.211 934.358,-135.302 924.223,-132.217 924.511,-139.211"/>
</g>
<!-- Node41&#45;&gt;Node10 -->
<g id="edge132" class="edge"><title>Node41&#45;&gt;Node10</title>
<path fill="none" stroke="midnightblue" d="M553.476,-709.956C487.752,-701.495 351.965,-677.084 258,-613 160.319,-546.381 152,-487.236 152,-369 152,-369 152,-369 152,-188 152,-123.001 238.634,-91.7163 287.105,-79.2993"/>
<polygon fill="midnightblue" stroke="midnightblue" points="287.937,-82.699 296.824,-76.9306 286.279,-75.898 287.937,-82.699"/>
</g>
<!-- Node41&#45;&gt;Node15 -->
<g id="edge129" class="edge"><title>Node41&#45;&gt;Node15</title>
<path fill="none" stroke="midnightblue" d="M618.576,-705.495C663.764,-691.388 758.684,-663.294 841,-649 1001.45,-621.139 1193.62,-610.071 1288.7,-606.056"/>
<polygon fill="midnightblue" stroke="midnightblue" points="1288.86,-609.553 1298.7,-605.645 1288.57,-602.559 1288.86,-609.553"/>
</g>
<!-- Node41&#45;&gt;Node27 -->
<g id="edge128" class="edge"><title>Node41&#45;&gt;Node27</title>
<path fill="none" stroke="midnightblue" d="M591.818,-705.477C590.642,-650.448 584.117,-345.062 582.409,-265.144"/>
<polygon fill="midnightblue" stroke="midnightblue" points="585.898,-264.606 582.186,-254.683 578.9,-264.756 585.898,-264.606"/>
</g>
<!-- Node41&#45;&gt;Node35 -->
<g id="edge130" class="edge"><title>Node41&#45;&gt;Node35</title>
<path fill="none" stroke="midnightblue" d="M630.527,-714.642C749.454,-715.495 1120,-709.671 1406,-613 1531.02,-570.743 1661.12,-476.568 1708.93,-439.96"/>
<polygon fill="midnightblue" stroke="midnightblue" points="1711.35,-442.512 1717.12,-433.628 1707.07,-436.973 1711.35,-442.512"/>
</g>
<!-- Node41&#45;&gt;Node40 -->
<g id="edge131" class="edge"><title>Node41&#45;&gt;Node40</title>
<path fill="none" stroke="midnightblue" d="M574.969,-705.324C557.97,-696.664 531.624,-683.242 512.007,-673.249"/>
<polygon fill="midnightblue" stroke="midnightblue" points="513.488,-670.075 502.988,-668.655 510.31,-676.312 513.488,-670.075"/>
</g>
<!-- Node43&#45;&gt;Node10 -->
<g id="edge141" class="edge"><title>Node43&#45;&gt;Node10</title>
<path fill="none" stroke="midnightblue" d="M1365.9,-825.958C1217.65,-825.512 667.735,-821.13 499,-781 290.19,-731.339 76,-762.634 76,-548 76,-548 76,-548 76,-188 76,-95.9657 219.945,-77.1821 286.259,-73.4119"/>
<polygon fill="midnightblue" stroke="midnightblue" points="286.756,-76.8921 296.575,-72.9118 286.417,-69.9003 286.756,-76.8921"/>
</g>
<!-- Node43&#45;&gt;Node15 -->
<g id="edge138" class="edge"><title>Node43&#45;&gt;Node15</title>
<path fill="none" stroke="midnightblue" d="M1400.84,-817.297C1392.73,-784.563 1363.95,-668.375 1352.62,-622.666"/>
<polygon fill="midnightblue" stroke="midnightblue" points="1356,-621.749 1350.2,-612.884 1349.21,-623.432 1356,-621.749"/>
</g>
<!-- Node43&#45;&gt;Node27 -->
<g id="edge139" class="edge"><title>Node43&#45;&gt;Node27</title>
<path fill="none" stroke="midnightblue" d="M1365.89,-825.83C1186.52,-824.528 418,-813.273 418,-716 418,-716 418,-716 418,-546 418,-423.877 523.926,-304.281 565.518,-262.028"/>
<polygon fill="midnightblue" stroke="midnightblue" points="568.111,-264.386 572.713,-254.842 563.164,-259.433 568.111,-264.386"/>
</g>
<!-- Node43&#45;&gt;Node39 -->
<g id="edge140" class="edge"><title>Node43&#45;&gt;Node39</title>
<path fill="none" stroke="midnightblue" d="M1425.66,-817.444C1449.4,-808.478 1486.91,-794.314 1513.74,-784.183"/>
<polygon fill="midnightblue" stroke="midnightblue" points="1515.33,-787.324 1523.45,-780.516 1512.86,-780.775 1515.33,-787.324"/>
</g>
<!-- Node44&#45;&gt;Node10 -->
<g id="edge146" class="edge"><title>Node44&#45;&gt;Node10</title>
<path fill="none" stroke="midnightblue" d="M1502.4,-881.077C1258.7,-875.638 76,-845.458 76,-772 76,-772 76,-772 76,-714 76,-638.314 38,-623.686 38,-548 38,-548 38,-548 38,-188 38,-81.4221 213.064,-71.1324 286.834,-71.5277"/>
<polygon fill="midnightblue" stroke="midnightblue" points="286.908,-75.0287 296.95,-71.6533 286.995,-68.0293 286.908,-75.0287"/>
</g>
<!-- Node44&#45;&gt;Node35 -->
<g id="edge143" class="edge"><title>Node44&#45;&gt;Node35</title>
<path fill="none" stroke="midnightblue" d="M1589.62,-878.063C1743.5,-863.555 2259.17,-809.503 2399,-725 2457.52,-689.636 2494,-672.372 2494,-604 2494,-604 2494,-604 2494,-546 2494,-469.675 2413.64,-490.058 2340,-470 2239.59,-442.652 1936.02,-430.838 1797.85,-426.775"/>
<polygon fill="midnightblue" stroke="midnightblue" points="1797.89,-423.275 1787.79,-426.485 1797.68,-430.272 1797.89,-423.275"/>
</g>
<!-- Node44&#45;&gt;Node39 -->
<g id="edge144" class="edge"><title>Node44&#45;&gt;Node39</title>
<path fill="none" stroke="midnightblue" d="M1546,-873.368C1546,-855.617 1546,-814.666 1546,-790.597"/>
<polygon fill="midnightblue" stroke="midnightblue" points="1549.5,-790.591 1546,-780.591 1542.5,-790.591 1549.5,-790.591"/>
</g>
<!-- Node44&#45;&gt;Node43 -->
<g id="edge145" class="edge"><title>Node44&#45;&gt;Node43</title>
<path fill="none" stroke="midnightblue" d="M1523.34,-873.444C1499.6,-864.478 1462.09,-850.314 1435.26,-840.183"/>
<polygon fill="midnightblue" stroke="midnightblue" points="1436.14,-836.775 1425.55,-836.516 1433.67,-843.324 1436.14,-836.775"/>
</g>
</g>
</svg>
