<?xml version="1.0" encoding="UTF-8" standalone="no"?>
<!DOCTYPE svg PUBLIC "-//W3C//DTD SVG 1.1//EN"
 "http://www.w3.org/Graphics/SVG/1.1/DTD/svg11.dtd">
<!-- Generated by graphviz version 2.38.0 (20140413.2041)
 -->
<!-- Title: include/tvm/tir/function.h Pages: 1 -->
<svg width="782pt" height="475pt"
 viewBox="0.00 0.00 782.00 475.00" xmlns="http://www.w3.org/2000/svg" xmlns:xlink="http://www.w3.org/1999/xlink">
<g id="graph0" class="graph" transform="scale(1 1) rotate(0) translate(4 471)">
<title>include/tvm/tir/function.h</title>
<polygon fill="white" stroke="none" points="-4,4 -4,-471 778,-471 778,4 -4,4"/>
<!-- Node1 -->
<g id="node1" class="node"><title>Node1</title>
<polygon fill="#bfbfbf" stroke="black" points="452.5,-447.5 452.5,-466.5 587.5,-466.5 587.5,-447.5 452.5,-447.5"/>
<text text-anchor="middle" x="520" y="-454.5" font-family="Helvetica,sans-Serif" font-size="10.00">include/tvm/tir/function.h</text>
</g>
<!-- Node2 -->
<g id="node2" class="node"><title>Node2</title>
<g id="a_node2"><a xlink:href="tir_2analysis_8h.html" target="_top" xlink:title="Analysis utilitie and passes for TIR. ">
<polygon fill="white" stroke="black" points="300.5,-386 300.5,-405 435.5,-405 435.5,-386 300.5,-386"/>
<text text-anchor="middle" x="368" y="-393" font-family="Helvetica,sans-Serif" font-size="10.00">include/tvm/tir/analysis.h</text>
</a>
</g>
</g>
<!-- Node1&#45;&gt;Node2 -->
<g id="edge1" class="edge"><title>Node1&#45;&gt;Node2</title>
<path fill="none" stroke="midnightblue" d="M488.789,-443.782C459.251,-432.22 415.68,-415.164 389.737,-405.009"/>
<polygon fill="midnightblue" stroke="midnightblue" points="487.634,-447.089 498.222,-447.475 490.186,-440.571 487.634,-447.089"/>
</g>
<!-- Node16 -->
<g id="node16" class="node"><title>Node16</title>
<g id="a_node16"><a xlink:href="ir__pass_8h.html" target="_top" xlink:title="Collection of IR pass functions. ">
<polygon fill="white" stroke="black" points="473,-380.5 473,-410.5 567,-410.5 567,-380.5 473,-380.5"/>
<text text-anchor="start" x="481" y="-398.5" font-family="Helvetica,sans-Serif" font-size="10.00">include/tvm/tir/ir</text>
<text text-anchor="middle" x="520" y="-387.5" font-family="Helvetica,sans-Serif" font-size="10.00">_pass.h</text>
</a>
</g>
</g>
<!-- Node1&#45;&gt;Node16 -->
<g id="edge23" class="edge"><title>Node1&#45;&gt;Node16</title>
<path fill="none" stroke="midnightblue" d="M520,-437.235C520,-428.586 520,-418.497 520,-410.523"/>
<polygon fill="midnightblue" stroke="midnightblue" points="516.5,-437.475 520,-447.475 523.5,-437.475 516.5,-437.475"/>
</g>
<!-- Node18 -->
<g id="node18" class="node"><title>Node18</title>
<g id="a_node18"><a xlink:href="include_2tvm_2tir_2transform_8h.html" target="_top" xlink:title="TIR specific transformation passes. ">
<polygon fill="white" stroke="black" points="585,-386 585,-405 729,-405 729,-386 585,-386"/>
<text text-anchor="middle" x="657" y="-393" font-family="Helvetica,sans-Serif" font-size="10.00">include/tvm/tir/transform.h</text>
</a>
</g>
</g>
<!-- Node1&#45;&gt;Node18 -->
<g id="edge30" class="edge"><title>Node1&#45;&gt;Node18</title>
<path fill="none" stroke="midnightblue" d="M548.829,-443.48C575.436,-431.924 614.229,-415.076 637.408,-405.009"/>
<polygon fill="midnightblue" stroke="midnightblue" points="547.407,-440.281 539.629,-447.475 550.195,-446.702 547.407,-440.281"/>
</g>
<!-- Node3 -->
<g id="node3" class="node"><title>Node3</title>
<g id="a_node3"><a xlink:href="constant__utils_8h.html" target="_top" xlink:title="Utility functions for handling constants in TVM expressions. ">
<polygon fill="white" stroke="black" points="288,-313.5 288,-343.5 410,-343.5 410,-313.5 288,-313.5"/>
<text text-anchor="start" x="296" y="-331.5" font-family="Helvetica,sans-Serif" font-size="10.00">topi/include/topi/detail</text>
<text text-anchor="middle" x="349" y="-320.5" font-family="Helvetica,sans-Serif" font-size="10.00">/constant_utils.h</text>
</a>
</g>
</g>
<!-- Node2&#45;&gt;Node3 -->
<g id="edge2" class="edge"><title>Node2&#45;&gt;Node3</title>
<path fill="none" stroke="midnightblue" d="M362.611,-376.065C359.597,-365.753 355.899,-353.101 353.118,-343.589"/>
<polygon fill="midnightblue" stroke="midnightblue" points="359.272,-377.117 365.438,-385.734 365.991,-375.153 359.272,-377.117"/>
</g>
<!-- Node4 -->
<g id="node4" class="node"><title>Node4</title>
<g id="a_node4"><a xlink:href="broadcast_8h.html" target="_top" xlink:title="Broadcast op constructions. ">
<polygon fill="white" stroke="black" points="198,-190.5 198,-209.5 350,-209.5 350,-190.5 198,-190.5"/>
<text text-anchor="middle" x="274" y="-197.5" font-family="Helvetica,sans-Serif" font-size="10.00">topi/include/topi/broadcast.h</text>
</a>
</g>
</g>
<!-- Node3&#45;&gt;Node4 -->
<g id="edge3" class="edge"><title>Node3&#45;&gt;Node4</title>
<path fill="none" stroke="midnightblue" d="M319.924,-306.982C310.076,-298.7 299.847,-288.397 293,-277 279.832,-255.082 275.758,-224.369 274.522,-209.599"/>
<polygon fill="midnightblue" stroke="midnightblue" points="318.026,-309.945 328.026,-313.444 322.39,-304.472 318.026,-309.945"/>
</g>
<!-- Node6 -->
<g id="node6" class="node"><title>Node6</title>
<g id="a_node6"><a xlink:href="reduction_8h.html" target="_top" xlink:title="Reduction op constructors. ">
<polygon fill="white" stroke="black" points="248.5,-67.5 248.5,-86.5 397.5,-86.5 397.5,-67.5 248.5,-67.5"/>
<text text-anchor="middle" x="323" y="-74.5" font-family="Helvetica,sans-Serif" font-size="10.00">topi/include/topi/reduction.h</text>
</a>
</g>
</g>
<!-- Node3&#45;&gt;Node6 -->
<g id="edge17" class="edge"><title>Node3&#45;&gt;Node6</title>
<path fill="none" stroke="midnightblue" d="M384.493,-307.865C396.569,-299.686 409.218,-289.223 418,-277 459.197,-219.66 498.219,-180.324 457,-123 443.103,-103.673 420.499,-92.5319 397.781,-86.1477"/>
<polygon fill="midnightblue" stroke="midnightblue" points="382.386,-305.059 375.865,-313.41 386.17,-310.948 382.386,-305.059"/>
</g>
<!-- Node9 -->
<g id="node9" class="node"><title>Node9</title>
<g id="a_node9"><a xlink:href="reorg_8h.html" target="_top" xlink:title="Reorg op constructions. ">
<polygon fill="white" stroke="black" points="9,-0.5 9,-30.5 131,-30.5 131,-0.5 9,-0.5"/>
<text text-anchor="start" x="17" y="-18.5" font-family="Helvetica,sans-Serif" font-size="10.00">topi/include/topi/vision</text>
<text text-anchor="middle" x="70" y="-7.5" font-family="Helvetica,sans-Serif" font-size="10.00">/reorg.h</text>
</a>
</g>
</g>
<!-- Node3&#45;&gt;Node9 -->
<g id="edge22" class="edge"><title>Node3&#45;&gt;Node9</title>
<path fill="none" stroke="midnightblue" d="M277.74,-321.781C226.222,-315.61 155.96,-302.918 99,-277 48.5108,-254.027 0,-256.47 0,-201 0,-201 0,-201 0,-137.5 0,-93.8159 34.6069,-51.742 55.1548,-30.6107"/>
<polygon fill="midnightblue" stroke="midnightblue" points="277.451,-325.27 287.784,-322.93 278.246,-318.316 277.451,-325.27"/>
</g>
<!-- Node11 -->
<g id="node11" class="node"><title>Node11</title>
<g id="a_node11"><a xlink:href="detail_2broadcast_8h.html" target="_top" xlink:title="Detail broadcast. ">
<polygon fill="white" stroke="black" points="124,-246.5 124,-276.5 246,-276.5 246,-246.5 124,-246.5"/>
<text text-anchor="start" x="132" y="-264.5" font-family="Helvetica,sans-Serif" font-size="10.00">topi/include/topi/detail</text>
<text text-anchor="middle" x="185" y="-253.5" font-family="Helvetica,sans-Serif" font-size="10.00">/broadcast.h</text>
</a>
</g>
</g>
<!-- Node3&#45;&gt;Node11 -->
<g id="edge11" class="edge"><title>Node3&#45;&gt;Node11</title>
<path fill="none" stroke="midnightblue" d="M304.043,-309.682C277.74,-299.257 245,-286.281 220.516,-276.577"/>
<polygon fill="midnightblue" stroke="midnightblue" points="302.828,-312.965 313.414,-313.396 305.408,-306.458 302.828,-312.965"/>
</g>
<!-- Node12 -->
<g id="node12" class="node"><title>Node12</title>
<g id="a_node12"><a xlink:href="nn_2bnn_8h.html" target="_top" xlink:title="Binary op constructions. ">
<polygon fill="white" stroke="black" points="638.5,-246.5 638.5,-276.5 745.5,-276.5 745.5,-246.5 638.5,-246.5"/>
<text text-anchor="start" x="646.5" y="-264.5" font-family="Helvetica,sans-Serif" font-size="10.00">topi/include/topi/nn</text>
<text text-anchor="middle" x="692" y="-253.5" font-family="Helvetica,sans-Serif" font-size="10.00">/bnn.h</text>
</a>
</g>
</g>
<!-- Node3&#45;&gt;Node12 -->
<g id="edge13" class="edge"><title>Node3&#45;&gt;Node12</title>
<path fill="none" stroke="midnightblue" d="M420.002,-315.659C476.709,-305.97 558.133,-291.537 629,-277 632.078,-276.368 635.237,-275.702 638.422,-275.015"/>
<polygon fill="midnightblue" stroke="midnightblue" points="419.333,-312.222 410.062,-317.352 420.508,-319.123 419.333,-312.222"/>
</g>
<!-- Node13 -->
<g id="node13" class="node"><title>Node13</title>
<g id="a_node13"><a xlink:href="flatten_8h.html" target="_top" xlink:title="Softmax op constructions. ">
<polygon fill="white" stroke="black" points="302.5,-246.5 302.5,-276.5 409.5,-276.5 409.5,-246.5 302.5,-246.5"/>
<text text-anchor="start" x="310.5" y="-264.5" font-family="Helvetica,sans-Serif" font-size="10.00">topi/include/topi/nn</text>
<text text-anchor="middle" x="356" y="-253.5" font-family="Helvetica,sans-Serif" font-size="10.00">/flatten.h</text>
</a>
</g>
</g>
<!-- Node3&#45;&gt;Node13 -->
<g id="edge14" class="edge"><title>Node3&#45;&gt;Node13</title>
<path fill="none" stroke="midnightblue" d="M351.595,-303.403C352.568,-294.37 353.641,-284.408 354.484,-276.577"/>
<polygon fill="midnightblue" stroke="midnightblue" points="348.11,-303.079 350.519,-313.396 355.07,-303.828 348.11,-303.079"/>
</g>
<!-- Node14 -->
<g id="node14" class="node"><title>Node14</title>
<g id="a_node14"><a xlink:href="topi_2include_2topi_2nn_8h.html" target="_top" xlink:title="NN op constructions. ">
<polygon fill="white" stroke="black" points="504,-252 504,-271 620,-271 620,-252 504,-252"/>
<text text-anchor="middle" x="562" y="-259" font-family="Helvetica,sans-Serif" font-size="10.00">topi/include/topi/nn.h</text>
</a>
</g>
</g>
<!-- Node3&#45;&gt;Node14 -->
<g id="edge15" class="edge"><title>Node3&#45;&gt;Node14</title>
<path fill="none" stroke="midnightblue" d="M404.674,-310.51C446.242,-297.825 501.305,-281.022 534.052,-271.029"/>
<polygon fill="midnightblue" stroke="midnightblue" points="403.499,-307.21 394.956,-313.476 405.542,-313.905 403.499,-307.21"/>
</g>
<!-- Node15 -->
<g id="node15" class="node"><title>Node15</title>
<g id="a_node15"><a xlink:href="topi_2include_2topi_2transform_8h.html" target="_top" xlink:title="Transform op constructors. ">
<polygon fill="white" stroke="black" points="28,-190.5 28,-209.5 180,-209.5 180,-190.5 28,-190.5"/>
<text text-anchor="middle" x="104" y="-197.5" font-family="Helvetica,sans-Serif" font-size="10.00">topi/include/topi/transform.h</text>
</a>
</g>
</g>
<!-- Node3&#45;&gt;Node15 -->
<g id="edge18" class="edge"><title>Node3&#45;&gt;Node15</title>
<path fill="none" stroke="midnightblue" d="M277.659,-320.991C217.17,-313.932 136.849,-300.406 115,-277 97.6243,-258.386 100.053,-225.241 102.407,-209.611"/>
<polygon fill="midnightblue" stroke="midnightblue" points="277.614,-324.508 287.943,-322.152 278.399,-317.552 277.614,-324.508"/>
</g>
<!-- Node5 -->
<g id="node5" class="node"><title>Node5</title>
<g id="a_node5"><a xlink:href="elemwise_8h.html" target="_top" xlink:title="Elementwise op constructions. ">
<polygon fill="white" stroke="black" points="299.5,-129 299.5,-148 448.5,-148 448.5,-129 299.5,-129"/>
<text text-anchor="middle" x="374" y="-136" font-family="Helvetica,sans-Serif" font-size="10.00">topi/include/topi/elemwise.h</text>
</a>
</g>
</g>
<!-- Node4&#45;&gt;Node5 -->
<g id="edge4" class="edge"><title>Node4&#45;&gt;Node5</title>
<path fill="none" stroke="midnightblue" d="M297.119,-185.244C316.437,-173.75 343.374,-157.723 359.699,-148.009"/>
<polygon fill="midnightblue" stroke="midnightblue" points="295.132,-182.354 288.328,-190.475 298.711,-188.37 295.132,-182.354"/>
</g>
<!-- Node4&#45;&gt;Node6 -->
<g id="edge10" class="edge"><title>Node4&#45;&gt;Node6</title>
<path fill="none" stroke="midnightblue" d="M275.728,-180.095C277.693,-164.285 281.769,-141.426 290,-123 296.243,-109.024 307.35,-95.1582 314.939,-86.5903"/>
<polygon fill="midnightblue" stroke="midnightblue" points="272.231,-179.879 274.64,-190.197 279.19,-180.629 272.231,-179.879"/>
</g>
<!-- Node10 -->
<g id="node10" class="node"><title>Node10</title>
<g id="a_node10"><a xlink:href="bias__add_8h.html" target="_top" xlink:title="bias_add op constructions ">
<polygon fill="white" stroke="black" points="136.5,-123.5 136.5,-153.5 243.5,-153.5 243.5,-123.5 136.5,-123.5"/>
<text text-anchor="start" x="144.5" y="-141.5" font-family="Helvetica,sans-Serif" font-size="10.00">topi/include/topi/nn</text>
<text text-anchor="middle" x="190" y="-130.5" font-family="Helvetica,sans-Serif" font-size="10.00">/bias_add.h</text>
</a>
</g>
</g>
<!-- Node4&#45;&gt;Node10 -->
<g id="edge9" class="edge"><title>Node4&#45;&gt;Node10</title>
<path fill="none" stroke="midnightblue" d="M253.484,-184.468C240.185,-175.047 222.952,-162.841 209.797,-153.523"/>
<polygon fill="midnightblue" stroke="midnightblue" points="251.782,-187.551 261.965,-190.475 255.828,-181.839 251.782,-187.551"/>
</g>
<!-- Node5&#45;&gt;Node6 -->
<g id="edge5" class="edge"><title>Node5&#45;&gt;Node6</title>
<path fill="none" stroke="midnightblue" d="M360.002,-121.169C350.387,-109.952 338.014,-95.5161 330.294,-86.5091"/>
<polygon fill="midnightblue" stroke="midnightblue" points="357.528,-123.66 366.693,-128.975 362.842,-119.105 357.528,-123.66"/>
</g>
<!-- Node7 -->
<g id="node7" class="node"><title>Node7</title>
<g id="a_node7"><a xlink:href="nn_2pooling_8h.html" target="_top" xlink:title="Pooling op constructions. ">
<polygon fill="white" stroke="black" points="508.5,-0.5 508.5,-30.5 615.5,-30.5 615.5,-0.5 508.5,-0.5"/>
<text text-anchor="start" x="516.5" y="-18.5" font-family="Helvetica,sans-Serif" font-size="10.00">topi/include/topi/nn</text>
<text text-anchor="middle" x="562" y="-7.5" font-family="Helvetica,sans-Serif" font-size="10.00">/pooling.h</text>
</a>
</g>
</g>
<!-- Node6&#45;&gt;Node7 -->
<g id="edge6" class="edge"><title>Node6&#45;&gt;Node7</title>
<path fill="none" stroke="midnightblue" d="M366.953,-65.0577C406.845,-55.1265 465.776,-40.4552 508.415,-29.8402"/>
<polygon fill="midnightblue" stroke="midnightblue" points="366.101,-61.6629 357.243,-67.4751 367.792,-68.4556 366.101,-61.6629"/>
</g>
<!-- Node8 -->
<g id="node8" class="node"><title>Node8</title>
<g id="a_node8"><a xlink:href="nn_2softmax_8h.html" target="_top" xlink:title="Softmax op constructions. ">
<polygon fill="white" stroke="black" points="269.5,-0.5 269.5,-30.5 376.5,-30.5 376.5,-0.5 269.5,-0.5"/>
<text text-anchor="start" x="277.5" y="-18.5" font-family="Helvetica,sans-Serif" font-size="10.00">topi/include/topi/nn</text>
<text text-anchor="middle" x="323" y="-7.5" font-family="Helvetica,sans-Serif" font-size="10.00">/softmax.h</text>
</a>
</g>
</g>
<!-- Node6&#45;&gt;Node8 -->
<g id="edge7" class="edge"><title>Node6&#45;&gt;Node8</title>
<path fill="none" stroke="midnightblue" d="M323,-57.2349C323,-48.5864 323,-38.4969 323,-30.523"/>
<polygon fill="midnightblue" stroke="midnightblue" points="319.5,-57.4751 323,-67.4751 326.5,-57.4751 319.5,-57.4751"/>
</g>
<!-- Node6&#45;&gt;Node9 -->
<g id="edge8" class="edge"><title>Node6&#45;&gt;Node9</title>
<path fill="none" stroke="midnightblue" d="M276.945,-65.1689C235.605,-55.4467 174.676,-41.1175 129.627,-30.523"/>
<polygon fill="midnightblue" stroke="midnightblue" points="276.216,-68.5928 286.751,-67.4751 277.818,-61.7787 276.216,-68.5928"/>
</g>
<!-- Node11&#45;&gt;Node4 -->
<g id="edge12" class="edge"><title>Node11&#45;&gt;Node4</title>
<path fill="none" stroke="midnightblue" d="M214.503,-240.776C230.276,-230.231 248.895,-217.783 261.05,-209.658"/>
<polygon fill="midnightblue" stroke="midnightblue" points="212.46,-237.932 206.092,-246.399 216.35,-243.751 212.46,-237.932"/>
</g>
<!-- Node14&#45;&gt;Node7 -->
<g id="edge16" class="edge"><title>Node14&#45;&gt;Node7</title>
<path fill="none" stroke="midnightblue" d="M562,-241.524C562,-194.351 562,-72.5711 562,-30.8061"/>
<polygon fill="midnightblue" stroke="midnightblue" points="558.5,-241.816 562,-251.816 565.5,-241.816 558.5,-241.816"/>
</g>
<!-- Node15&#45;&gt;Node6 -->
<g id="edge20" class="edge"><title>Node15&#45;&gt;Node6</title>
<path fill="none" stroke="midnightblue" d="M104.572,-180.215C106.137,-162.908 111.215,-137.743 127,-123 145.307,-105.901 204.676,-93.832 253.32,-86.5266"/>
<polygon fill="midnightblue" stroke="midnightblue" points="101.074,-180.075 103.974,-190.265 108.062,-180.491 101.074,-180.075"/>
</g>
<!-- Node15&#45;&gt;Node9 -->
<g id="edge21" class="edge"><title>Node15&#45;&gt;Node9</title>
<path fill="none" stroke="midnightblue" d="M100.527,-180.356C93.7126,-143.781 78.7276,-63.3467 72.6445,-30.6947"/>
<polygon fill="midnightblue" stroke="midnightblue" points="97.0877,-181.008 102.36,-190.198 103.969,-179.726 97.0877,-181.008"/>
</g>
<!-- Node15&#45;&gt;Node10 -->
<g id="edge19" class="edge"><title>Node15&#45;&gt;Node10</title>
<path fill="none" stroke="midnightblue" d="M124.613,-184.739C138.281,-175.282 156.134,-162.93 169.732,-153.523"/>
<polygon fill="midnightblue" stroke="midnightblue" points="122.554,-181.907 116.322,-190.475 126.537,-187.664 122.554,-181.907"/>
</g>
<!-- Node16&#45;&gt;Node3 -->
<g id="edge24" class="edge"><title>Node16&#45;&gt;Node3</title>
<path fill="none" stroke="midnightblue" d="M473.484,-376.819C445.998,-366.371 411.673,-353.323 386.032,-343.577"/>
<polygon fill="midnightblue" stroke="midnightblue" points="472.304,-380.114 482.896,-380.396 474.792,-373.571 472.304,-380.114"/>
</g>
<!-- Node16&#45;&gt;Node5 -->
<g id="edge25" class="edge"><title>Node16&#45;&gt;Node5</title>
<path fill="none" stroke="midnightblue" d="M488.783,-374.529C477.599,-366.17 465.636,-355.674 457,-344 429.121,-306.313 435.617,-289.442 418,-246 403.189,-209.478 385.117,-166.099 377.574,-148.043"/>
<polygon fill="midnightblue" stroke="midnightblue" points="486.945,-377.517 497.114,-380.489 491.017,-371.824 486.945,-377.517"/>
</g>
<!-- Node16&#45;&gt;Node7 -->
<g id="edge28" class="edge"><title>Node16&#45;&gt;Node7</title>
<path fill="none" stroke="midnightblue" d="M576.965,-377.33C651.85,-353.023 774,-306.613 774,-262.5 774,-262.5 774,-262.5 774,-137.5 774,-64.7149 678.578,-35.1299 615.771,-23.5402"/>
<polygon fill="midnightblue" stroke="midnightblue" points="575.634,-374.082 567.18,-380.468 577.771,-380.747 575.634,-374.082"/>
</g>
<!-- Node16&#45;&gt;Node12 -->
<g id="edge26" class="edge"><title>Node16&#45;&gt;Node12</title>
<path fill="none" stroke="midnightblue" d="M552.325,-374.993C566.634,-366 583.475,-354.915 598,-344 627.182,-322.071 658.8,-293.577 676.921,-276.743"/>
<polygon fill="midnightblue" stroke="midnightblue" points="550.431,-372.05 543.787,-380.302 554.127,-377.994 550.431,-372.05"/>
</g>
<!-- Node16&#45;&gt;Node14 -->
<g id="edge29" class="edge"><title>Node16&#45;&gt;Node14</title>
<path fill="none" stroke="midnightblue" d="M555.077,-374.54C565.739,-366.536 576.17,-356.268 582,-344 593.756,-319.261 577.459,-286.904 567.972,-271.46"/>
<polygon fill="midnightblue" stroke="midnightblue" points="552.767,-371.883 546.559,-380.468 556.766,-377.628 552.767,-371.883"/>
</g>
<!-- Node17 -->
<g id="node17" class="node"><title>Node17</title>
<g id="a_node17"><a xlink:href="dilate_8h.html" target="_top" xlink:title="Dilate op constructions. ">
<polygon fill="white" stroke="black" points="466.5,-313.5 466.5,-343.5 573.5,-343.5 573.5,-313.5 466.5,-313.5"/>
<text text-anchor="start" x="474.5" y="-331.5" font-family="Helvetica,sans-Serif" font-size="10.00">topi/include/topi/nn</text>
<text text-anchor="middle" x="520" y="-320.5" font-family="Helvetica,sans-Serif" font-size="10.00">/dilate.h</text>
</a>
</g>
</g>
<!-- Node16&#45;&gt;Node17 -->
<g id="edge27" class="edge"><title>Node16&#45;&gt;Node17</title>
<path fill="none" stroke="midnightblue" d="M520,-370.108C520,-361.154 520,-351.323 520,-343.577"/>
<polygon fill="midnightblue" stroke="midnightblue" points="516.5,-370.396 520,-380.396 523.5,-370.396 516.5,-370.396"/>
</g>
</g>
</svg>
