<?xml version="1.0" encoding="UTF-8" standalone="no"?>
<!DOCTYPE svg PUBLIC "-//W3C//DTD SVG 1.1//EN"
 "http://www.w3.org/Graphics/SVG/1.1/DTD/svg11.dtd">
<!-- Generated by graphviz version 2.38.0 (20140413.2041)
 -->
<!-- Title: include/tvm/tir/op.h Pages: 1 -->
<svg width="2880pt" height="1069pt"
 viewBox="0.00 0.00 2880.00 1069.00" xmlns="http://www.w3.org/2000/svg" xmlns:xlink="http://www.w3.org/1999/xlink">
<g id="graph0" class="graph" transform="scale(1 1) rotate(0) translate(4 1065)">
<title>include/tvm/tir/op.h</title>
<polygon fill="white" stroke="none" points="-4,4 -4,-1065 2876,-1065 2876,4 -4,4"/>
<!-- Node1 -->
<g id="node1" class="node"><title>Node1</title>
<polygon fill="#bfbfbf" stroke="black" points="322.5,-1041.5 322.5,-1060.5 431.5,-1060.5 431.5,-1041.5 322.5,-1041.5"/>
<text text-anchor="middle" x="377" y="-1048.5" font-family="Helvetica,sans-Serif" font-size="10.00">include/tvm/tir/op.h</text>
</g>
<!-- Node2 -->
<g id="node2" class="node"><title>Node2</title>
<g id="a_node2"><a xlink:href="ir_2type_8h.html" target="_top" xlink:title="IR/AST nodes for the unified type system in TVM. ">
<polygon fill="white" stroke="black" points="2237.5,-705.5 2237.5,-724.5 2314.5,-724.5 2314.5,-705.5 2237.5,-705.5"/>
<text text-anchor="middle" x="2276" y="-712.5" font-family="Helvetica,sans-Serif" font-size="10.00">tvm/ir/type.h</text>
</a>
</g>
</g>
<!-- Node1&#45;&gt;Node2 -->
<g id="edge1" class="edge"><title>Node1&#45;&gt;Node2</title>
<path fill="none" stroke="midnightblue" d="M425.37,-1041.49C690.119,-994.928 1961.43,-771.328 2227.22,-724.58"/>
<polygon fill="midnightblue" stroke="midnightblue" points="2228.09,-727.981 2237.33,-722.802 2226.87,-721.087 2228.09,-727.981"/>
</g>
<!-- Node9 -->
<g id="node9" class="node"><title>Node9</title>
<polygon fill="white" stroke="#bfbfbf" points="403,-62 403,-81 471,-81 471,-62 403,-62"/>
<text text-anchor="middle" x="437" y="-69" font-family="Helvetica,sans-Serif" font-size="10.00">type_traits</text>
</g>
<!-- Node1&#45;&gt;Node9 -->
<g id="edge160" class="edge"><title>Node1&#45;&gt;Node9</title>
<path fill="none" stroke="midnightblue" d="M322.487,-1050.61C260.38,-1049.36 157.128,-1041.26 77,-1005 36.1986,-986.534 0,-984.785 0,-940 0,-940 0,-940 0,-188 0,-143.553 35.4756,-141.256 76,-123 131.748,-97.886 309.02,-81.9124 392.594,-75.5894"/>
<polygon fill="midnightblue" stroke="midnightblue" points="393.074,-79.0635 402.786,-74.8311 392.554,-72.0828 393.074,-79.0635"/>
</g>
<!-- Node29 -->
<g id="node29" class="node"><title>Node29</title>
<polygon fill="white" stroke="#bfbfbf" points="154,-235.5 154,-254.5 196,-254.5 196,-235.5 154,-235.5"/>
<text text-anchor="middle" x="175" y="-242.5" font-family="Helvetica,sans-Serif" font-size="10.00">limits</text>
</g>
<!-- Node1&#45;&gt;Node29 -->
<g id="edge161" class="edge"><title>Node1&#45;&gt;Node29</title>
<path fill="none" stroke="midnightblue" d="M322.157,-1043.71C226.213,-1031.15 38,-999.013 38,-940 38,-940 38,-940 38,-602 38,-521.541 76,-505.459 76,-425 76,-425 76,-425 76,-367 76,-319.281 122.693,-280.036 151.945,-260.132"/>
<polygon fill="midnightblue" stroke="midnightblue" points="153.952,-263.001 160.392,-254.588 150.112,-257.149 153.952,-263.001"/>
</g>
<!-- Node40 -->
<g id="node40" class="node"><title>Node40</title>
<g id="a_node40"><a xlink:href="tir_2expr_8h.html" target="_top" xlink:title="TIR expressions. ">
<polygon fill="white" stroke="black" points="626,-929.5 626,-948.5 706,-948.5 706,-929.5 626,-929.5"/>
<text text-anchor="middle" x="666" y="-936.5" font-family="Helvetica,sans-Serif" font-size="10.00">tvm/tir/expr.h</text>
</a>
</g>
</g>
<!-- Node1&#45;&gt;Node40 -->
<g id="edge121" class="edge"><title>Node1&#45;&gt;Node40</title>
<path fill="none" stroke="midnightblue" d="M399.677,-1041.37C450.747,-1021.93 574.901,-974.674 633.874,-952.228"/>
<polygon fill="midnightblue" stroke="midnightblue" points="635.327,-955.42 643.428,-948.591 632.837,-948.878 635.327,-955.42"/>
</g>
<!-- Node42 -->
<g id="node42" class="node"><title>Node42</title>
<polygon fill="white" stroke="#bfbfbf" points="2634,-705.5 2634,-724.5 2696,-724.5 2696,-705.5 2634,-705.5"/>
<text text-anchor="middle" x="2665" y="-712.5" font-family="Helvetica,sans-Serif" font-size="10.00">algorithm</text>
</g>
<!-- Node1&#45;&gt;Node42 -->
<g id="edge159" class="edge"><title>Node1&#45;&gt;Node42</title>
<path fill="none" stroke="midnightblue" d="M431.55,-1047.86C764.942,-1034.23 2518.57,-954.583 2673,-781 2684.19,-768.423 2679.76,-748.651 2674.03,-734.214"/>
<polygon fill="midnightblue" stroke="midnightblue" points="2677.12,-732.528 2669.84,-724.824 2670.72,-735.382 2677.12,-732.528"/>
</g>
<!-- Node45 -->
<g id="node45" class="node"><title>Node45</title>
<g id="a_node45"><a xlink:href="stmt_8h.html" target="_top" xlink:title="TIR statements. ">
<polygon fill="white" stroke="black" points="249.5,-985.5 249.5,-1004.5 332.5,-1004.5 332.5,-985.5 249.5,-985.5"/>
<text text-anchor="middle" x="291" y="-992.5" font-family="Helvetica,sans-Serif" font-size="10.00">tvm/tir/stmt.h</text>
</a>
</g>
</g>
<!-- Node1&#45;&gt;Node45 -->
<g id="edge153" class="edge"><title>Node1&#45;&gt;Node45</title>
<path fill="none" stroke="midnightblue" d="M363.183,-1041.32C349.767,-1032.9 329.176,-1019.97 313.414,-1010.07"/>
<polygon fill="midnightblue" stroke="midnightblue" points="315.113,-1007.01 304.783,-1004.65 311.391,-1012.94 315.113,-1007.01"/>
</g>
<!-- Node3 -->
<g id="node3" class="node"><title>Node3</title>
<g id="a_node3"><a xlink:href="object_8h.html" target="_top" xlink:title="A managed object in the TVM runtime. ">
<polygon fill="white" stroke="black" points="1335.5,-123.5 1335.5,-142.5 1452.5,-142.5 1452.5,-123.5 1335.5,-123.5"/>
<text text-anchor="middle" x="1394" y="-130.5" font-family="Helvetica,sans-Serif" font-size="10.00">tvm/runtime/object.h</text>
</a>
</g>
</g>
<!-- Node2&#45;&gt;Node3 -->
<g id="edge2" class="edge"><title>Node2&#45;&gt;Node3</title>
<path fill="none" stroke="midnightblue" d="M2286.94,-705.297C2307.08,-688.203 2348,-648.051 2348,-604 2348,-604 2348,-604 2348,-546 2348,-344.818 2148.01,-391.972 1974,-291 1961.71,-283.867 1757.62,-183.071 1744,-179 1649.17,-150.649 1534.64,-140.16 1463.04,-136.279"/>
<polygon fill="midnightblue" stroke="midnightblue" points="1462.96,-132.77 1452.8,-135.753 1462.61,-139.761 1462.96,-132.77"/>
</g>
<!-- Node10 -->
<g id="node10" class="node"><title>Node10</title>
<polygon fill="white" stroke="#bfbfbf" points="2546,-62 2546,-81 2590,-81 2590,-62 2546,-62"/>
<text text-anchor="middle" x="2568" y="-69" font-family="Helvetica,sans-Serif" font-size="10.00">string</text>
</g>
<!-- Node2&#45;&gt;Node10 -->
<g id="edge120" class="edge"><title>Node2&#45;&gt;Node10</title>
<path fill="none" stroke="midnightblue" d="M2314.5,-709.439C2401.55,-698.056 2606,-664.844 2606,-604 2606,-604 2606,-604 2606,-423 2606,-289.34 2611.2,-254.066 2585,-123 2582.81,-112.059 2578.91,-100.218 2575.4,-90.7539"/>
<polygon fill="midnightblue" stroke="midnightblue" points="2578.59,-89.3071 2571.71,-81.2527 2572.07,-91.8415 2578.59,-89.3071"/>
</g>
<!-- Node13 -->
<g id="node13" class="node"><title>Node13</title>
<g id="a_node13"><a xlink:href="data__type_8h.html" target="_top" xlink:title="tvm/runtime/data_type.h">
<polygon fill="white" stroke="black" points="2214,-235.5 2214,-254.5 2350,-254.5 2350,-235.5 2214,-235.5"/>
<text text-anchor="middle" x="2282" y="-242.5" font-family="Helvetica,sans-Serif" font-size="10.00">tvm/runtime/data_type.h</text>
</a>
</g>
</g>
<!-- Node2&#45;&gt;Node13 -->
<g id="edge12" class="edge"><title>Node2&#45;&gt;Node13</title>
<path fill="none" stroke="midnightblue" d="M2308.85,-705.458C2352.45,-691.906 2424,-660.985 2424,-604 2424,-604 2424,-604 2424,-423 2424,-348.075 2345.63,-286.786 2305.33,-260.224"/>
<polygon fill="midnightblue" stroke="midnightblue" points="2306.97,-257.116 2296.66,-254.66 2303.19,-263.007 2306.97,-257.116"/>
</g>
<!-- Node14 -->
<g id="node14" class="node"><title>Node14</title>
<g id="a_node14"><a xlink:href="node_8h.html" target="_top" xlink:title="Definitions and helper macros for IR/AST nodes. ">
<polygon fill="white" stroke="black" points="1054,-593.5 1054,-612.5 1152,-612.5 1152,-593.5 1054,-593.5"/>
<text text-anchor="middle" x="1103" y="-600.5" font-family="Helvetica,sans-Serif" font-size="10.00">tvm/node/node.h</text>
</a>
</g>
</g>
<!-- Node2&#45;&gt;Node14 -->
<g id="edge17" class="edge"><title>Node2&#45;&gt;Node14</title>
<path fill="none" stroke="midnightblue" d="M2237.31,-710.371C2065.49,-694.259 1370.92,-629.125 1162.45,-609.575"/>
<polygon fill="midnightblue" stroke="midnightblue" points="1162.59,-606.073 1152.31,-608.624 1161.94,-613.042 1162.59,-606.073"/>
</g>
<!-- Node35 -->
<g id="node35" class="node"><title>Node35</title>
<g id="a_node35"><a xlink:href="node_2container_8h.html" target="_top" xlink:title="Array/Map container in the DSL graph. ">
<polygon fill="white" stroke="black" points="846.5,-414.5 846.5,-433.5 965.5,-433.5 965.5,-414.5 846.5,-414.5"/>
<text text-anchor="middle" x="906" y="-421.5" font-family="Helvetica,sans-Serif" font-size="10.00">tvm/node/container.h</text>
</a>
</g>
</g>
<!-- Node2&#45;&gt;Node35 -->
<g id="edge115" class="edge"><title>Node2&#45;&gt;Node35</title>
<path fill="none" stroke="midnightblue" d="M2237.28,-712.693C2040,-705.786 1151.87,-671.622 1045,-613 974.258,-574.196 929.571,-482.307 913.127,-443.165"/>
<polygon fill="midnightblue" stroke="midnightblue" points="916.331,-441.752 909.318,-433.811 909.848,-444.392 916.331,-441.752"/>
</g>
<!-- Node39 -->
<g id="node39" class="node"><title>Node39</title>
<g id="a_node39"><a xlink:href="span_8h.html" target="_top" xlink:title="Span information for debugging purposes. ">
<polygon fill="white" stroke="black" points="2164,-649.5 2164,-668.5 2244,-668.5 2244,-649.5 2164,-649.5"/>
<text text-anchor="middle" x="2204" y="-656.5" font-family="Helvetica,sans-Serif" font-size="10.00">tvm/ir/span.h</text>
</a>
</g>
</g>
<!-- Node2&#45;&gt;Node39 -->
<g id="edge116" class="edge"><title>Node2&#45;&gt;Node39</title>
<path fill="none" stroke="midnightblue" d="M2264.43,-705.324C2253.58,-697.185 2237.12,-684.839 2224.12,-675.087"/>
<polygon fill="midnightblue" stroke="midnightblue" points="2225.88,-672.034 2215.78,-668.834 2221.68,-677.634 2225.88,-672.034"/>
</g>
<!-- Node4 -->
<g id="node4" class="node"><title>Node4</title>
<polygon fill="white" stroke="#bfbfbf" points="1237,-62 1237,-81 1323,-81 1323,-62 1237,-62"/>
<text text-anchor="middle" x="1280" y="-69" font-family="Helvetica,sans-Serif" font-size="10.00">dmlc/logging.h</text>
</g>
<!-- Node3&#45;&gt;Node4 -->
<g id="edge3" class="edge"><title>Node3&#45;&gt;Node4</title>
<path fill="none" stroke="midnightblue" d="M1377.67,-123.475C1358.79,-113.622 1327.49,-97.2883 1305.42,-85.7697"/>
<polygon fill="midnightblue" stroke="midnightblue" points="1306.79,-82.5333 1296.3,-81.0091 1303.55,-88.7389 1306.79,-82.5333"/>
</g>
<!-- Node5 -->
<g id="node5" class="node"><title>Node5</title>
<g id="a_node5"><a xlink:href="c__runtime__api_8h.html" target="_top" xlink:title="tvm/runtime/c_runtime\l_api.h">
<polygon fill="white" stroke="black" points="2124.5,-56.5 2124.5,-86.5 2251.5,-86.5 2251.5,-56.5 2124.5,-56.5"/>
<text text-anchor="start" x="2132.5" y="-74.5" font-family="Helvetica,sans-Serif" font-size="10.00">tvm/runtime/c_runtime</text>
<text text-anchor="middle" x="2188" y="-63.5" font-family="Helvetica,sans-Serif" font-size="10.00">_api.h</text>
</a>
</g>
</g>
<!-- Node3&#45;&gt;Node5 -->
<g id="edge4" class="edge"><title>Node3&#45;&gt;Node5</title>
<path fill="none" stroke="midnightblue" d="M1452.54,-124.507C1457.43,-123.965 1462.3,-123.454 1467,-123 1702.92,-100.211 1983.21,-83.5591 2113.96,-76.394"/>
<polygon fill="midnightblue" stroke="midnightblue" points="2114.46,-79.8723 2124.25,-75.8329 2114.08,-72.8827 2114.46,-79.8723"/>
</g>
<!-- Node3&#45;&gt;Node9 -->
<g id="edge8" class="edge"><title>Node3&#45;&gt;Node9</title>
<path fill="none" stroke="midnightblue" d="M1335.22,-128.345C1158.91,-117.384 637.165,-84.9449 481.395,-75.2602"/>
<polygon fill="midnightblue" stroke="midnightblue" points="481.444,-71.7566 471.246,-74.6292 481.01,-78.7431 481.444,-71.7566"/>
</g>
<!-- Node3&#45;&gt;Node10 -->
<g id="edge9" class="edge"><title>Node3&#45;&gt;Node10</title>
<path fill="none" stroke="midnightblue" d="M1452.53,-124.38C1457.42,-123.866 1462.29,-123.396 1467,-123 1818.56,-93.3929 1907.57,-103.296 2260,-87 2360.72,-82.3428 2479.97,-76.689 2535.95,-74.0265"/>
<polygon fill="midnightblue" stroke="midnightblue" points="2536.14,-77.5214 2545.97,-73.55 2535.81,-70.5293 2536.14,-77.5214"/>
</g>
<!-- Node11 -->
<g id="node11" class="node"><title>Node11</title>
<polygon fill="white" stroke="#bfbfbf" points="720,-62 720,-81 762,-81 762,-62 720,-62"/>
<text text-anchor="middle" x="741" y="-69" font-family="Helvetica,sans-Serif" font-size="10.00">utility</text>
</g>
<!-- Node3&#45;&gt;Node11 -->
<g id="edge10" class="edge"><title>Node3&#45;&gt;Node11</title>
<path fill="none" stroke="midnightblue" d="M1335.48,-126.667C1201.08,-114.422 874.108,-84.6286 771.995,-75.3242"/>
<polygon fill="midnightblue" stroke="midnightblue" points="772.294,-71.837 762.017,-74.4151 771.658,-78.8081 772.294,-71.837"/>
</g>
<!-- Node12 -->
<g id="node12" class="node"><title>Node12</title>
<polygon fill="white" stroke="#bfbfbf" points="1690,-62 1690,-81 1740,-81 1740,-62 1690,-62"/>
<text text-anchor="middle" x="1715" y="-69" font-family="Helvetica,sans-Serif" font-size="10.00">atomic</text>
</g>
<!-- Node3&#45;&gt;Node12 -->
<g id="edge11" class="edge"><title>Node3&#45;&gt;Node12</title>
<path fill="none" stroke="midnightblue" d="M1439.99,-123.475C1504.75,-111.471 1621.41,-89.8469 1679.76,-79.0314"/>
<polygon fill="midnightblue" stroke="midnightblue" points="1680.42,-82.4686 1689.62,-77.2046 1679.15,-75.5858 1680.42,-82.4686"/>
</g>
<!-- Node6 -->
<g id="node6" class="node"><title>Node6</title>
<polygon fill="white" stroke="#bfbfbf" points="2053,-0.5 2053,-19.5 2143,-19.5 2143,-0.5 2053,-0.5"/>
<text text-anchor="middle" x="2098" y="-7.5" font-family="Helvetica,sans-Serif" font-size="10.00">dlpack/dlpack.h</text>
</g>
<!-- Node5&#45;&gt;Node6 -->
<g id="edge5" class="edge"><title>Node5&#45;&gt;Node6</title>
<path fill="none" stroke="midnightblue" d="M2166.67,-56.3993C2152.51,-47.0402 2133.99,-34.7924 2119.75,-25.3771"/>
<polygon fill="midnightblue" stroke="midnightblue" points="2121.37,-22.2531 2111.1,-19.6578 2117.51,-28.0923 2121.37,-22.2531"/>
</g>
<!-- Node7 -->
<g id="node7" class="node"><title>Node7</title>
<polygon fill="white" stroke="#bfbfbf" points="2161.5,-0.5 2161.5,-19.5 2214.5,-19.5 2214.5,-0.5 2161.5,-0.5"/>
<text text-anchor="middle" x="2188" y="-7.5" font-family="Helvetica,sans-Serif" font-size="10.00">stdint.h</text>
</g>
<!-- Node5&#45;&gt;Node7 -->
<g id="edge6" class="edge"><title>Node5&#45;&gt;Node7</title>
<path fill="none" stroke="midnightblue" d="M2188,-56.3993C2188,-48.4664 2188,-38.458 2188,-29.8583"/>
<polygon fill="midnightblue" stroke="midnightblue" points="2191.5,-29.6577 2188,-19.6578 2184.5,-29.6578 2191.5,-29.6577"/>
</g>
<!-- Node8 -->
<g id="node8" class="node"><title>Node8</title>
<polygon fill="white" stroke="#bfbfbf" points="2232.5,-0.5 2232.5,-19.5 2287.5,-19.5 2287.5,-0.5 2232.5,-0.5"/>
<text text-anchor="middle" x="2260" y="-7.5" font-family="Helvetica,sans-Serif" font-size="10.00">stddef.h</text>
</g>
<!-- Node5&#45;&gt;Node8 -->
<g id="edge7" class="edge"><title>Node5&#45;&gt;Node8</title>
<path fill="none" stroke="midnightblue" d="M2205.06,-56.3993C2216.06,-47.3076 2230.37,-35.4899 2241.62,-26.1909"/>
<polygon fill="midnightblue" stroke="midnightblue" points="2244.04,-28.726 2249.52,-19.6578 2239.59,-23.33 2244.04,-28.726"/>
</g>
<!-- Node13&#45;&gt;Node4 -->
<g id="edge14" class="edge"><title>Node13&#45;&gt;Node4</title>
<path fill="none" stroke="midnightblue" d="M2266.98,-235.421C2225.76,-212.362 2106.78,-149.041 1999,-123 1872.62,-92.4642 1477.67,-78.2276 1333.43,-73.9491"/>
<polygon fill="midnightblue" stroke="midnightblue" points="1333.18,-70.4403 1323.08,-73.6465 1332.97,-77.4373 1333.18,-70.4403"/>
</g>
<!-- Node13&#45;&gt;Node5 -->
<g id="edge13" class="edge"><title>Node13&#45;&gt;Node5</title>
<path fill="none" stroke="midnightblue" d="M2277.21,-235.26C2263.17,-209.649 2221.8,-134.168 2200.7,-95.6628"/>
<polygon fill="midnightblue" stroke="midnightblue" points="2203.67,-93.8097 2195.8,-86.7228 2197.53,-97.1742 2203.67,-93.8097"/>
</g>
<!-- Node13&#45;&gt;Node9 -->
<g id="edge15" class="edge"><title>Node13&#45;&gt;Node9</title>
<path fill="none" stroke="midnightblue" d="M2250.36,-235.408C2200.85,-222.152 2101.92,-196.423 2017,-179 1446.99,-62.0513 1292.29,-113.188 711,-87 630.026,-83.352 535.644,-78.1475 481.452,-75.0673"/>
<polygon fill="midnightblue" stroke="midnightblue" points="481.348,-71.5558 471.165,-74.4806 480.949,-78.5444 481.348,-71.5558"/>
</g>
<!-- Node13&#45;&gt;Node10 -->
<g id="edge16" class="edge"><title>Node13&#45;&gt;Node10</title>
<path fill="none" stroke="midnightblue" d="M2291.64,-235.358C2306.52,-222.259 2336.27,-197 2364,-179 2423.75,-140.218 2499.23,-103.796 2539.54,-85.2597"/>
<polygon fill="midnightblue" stroke="midnightblue" points="2541.12,-88.3847 2548.77,-81.0479 2538.22,-82.0169 2541.12,-88.3847"/>
</g>
<!-- Node14&#45;&gt;Node3 -->
<g id="edge67" class="edge"><title>Node14&#45;&gt;Node3</title>
<path fill="none" stroke="midnightblue" d="M1152.33,-601.968C1280.03,-601.322 1618.72,-595.884 1723,-557 1790.89,-531.685 1813.99,-504.666 1830,-434 1849.73,-346.892 1871.73,-290.807 1802,-235 1749.96,-193.357 1564.46,-159.719 1462.45,-143.864"/>
<polygon fill="midnightblue" stroke="midnightblue" points="1462.96,-140.401 1452.54,-142.339 1461.89,-147.32 1462.96,-140.401"/>
</g>
<!-- Node14&#45;&gt;Node5 -->
<g id="edge18" class="edge"><title>Node14&#45;&gt;Node5</title>
<path fill="none" stroke="midnightblue" d="M1152.04,-602.276C1362.27,-603.173 2181.4,-603.62 2286,-557 2428.22,-493.613 2583.48,-430.344 2514,-291 2459.33,-181.364 2320.63,-117.946 2242.91,-89.9082"/>
<polygon fill="midnightblue" stroke="midnightblue" points="2243.88,-86.5385 2233.29,-86.504 2241.55,-93.138 2243.88,-86.5385"/>
</g>
<!-- Node14&#45;&gt;Node9 -->
<g id="edge114" class="edge"><title>Node14&#45;&gt;Node9</title>
<path fill="none" stroke="midnightblue" d="M1056.88,-593.47C1012.23,-584.999 942.725,-571.25 883,-557 598.869,-489.209 304,-538.106 304,-246 304,-246 304,-246 304,-188 304,-135.703 363.348,-101.736 402.755,-84.9461"/>
<polygon fill="midnightblue" stroke="midnightblue" points="404.363,-88.07 412.295,-81.0469 401.715,-81.5902 404.363,-88.07"/>
</g>
<!-- Node14&#45;&gt;Node10 -->
<g id="edge111" class="edge"><title>Node14&#45;&gt;Node10</title>
<path fill="none" stroke="midnightblue" d="M1152.08,-602.595C1338.3,-604.067 1999.79,-601.95 2179,-501 2350.51,-404.384 2367.99,-342.258 2503,-199 2525.48,-175.144 2536.08,-172.187 2551,-143 2559.32,-126.724 2563.67,-106.234 2565.88,-91.544"/>
<polygon fill="midnightblue" stroke="midnightblue" points="2569.41,-91.5662 2567.22,-81.1983 2562.46,-90.6633 2569.41,-91.5662"/>
</g>
<!-- Node14&#45;&gt;Node11 -->
<g id="edge113" class="edge"><title>Node14&#45;&gt;Node11</title>
<path fill="none" stroke="midnightblue" d="M1073.32,-593.48C954.398,-559.058 516.955,-429.643 480,-378 428.52,-306.06 426.465,-252.293 476,-179 482.965,-168.694 641.882,-109.091 710.218,-83.82"/>
<polygon fill="midnightblue" stroke="midnightblue" points="711.824,-86.958 719.993,-80.211 709.399,-80.3913 711.824,-86.958"/>
</g>
<!-- Node15 -->
<g id="node15" class="node"><title>Node15</title>
<g id="a_node15"><a xlink:href="runtime_2container_8h.html" target="_top" xlink:title="Common POD(plain old data) container types. ">
<polygon fill="white" stroke="black" points="1034,-358.5 1034,-377.5 1166,-377.5 1166,-358.5 1034,-358.5"/>
<text text-anchor="middle" x="1100" y="-365.5" font-family="Helvetica,sans-Serif" font-size="10.00">tvm/runtime/container.h</text>
</a>
</g>
</g>
<!-- Node14&#45;&gt;Node15 -->
<g id="edge19" class="edge"><title>Node14&#45;&gt;Node15</title>
<path fill="none" stroke="midnightblue" d="M1102.89,-593.431C1102.46,-559.754 1100.86,-435.994 1100.25,-388.102"/>
<polygon fill="midnightblue" stroke="midnightblue" points="1103.74,-387.85 1100.11,-377.896 1096.74,-387.94 1103.74,-387.85"/>
</g>
<!-- Node16 -->
<g id="node16" class="node"><title>Node16</title>
<g id="a_node16"><a xlink:href="runtime_2memory_8h.html" target="_top" xlink:title="Runtime memory management. ">
<polygon fill="white" stroke="black" points="826.5,-179.5 826.5,-198.5 953.5,-198.5 953.5,-179.5 826.5,-179.5"/>
<text text-anchor="middle" x="890" y="-186.5" font-family="Helvetica,sans-Serif" font-size="10.00">tvm/runtime/memory.h</text>
</a>
</g>
</g>
<!-- Node14&#45;&gt;Node16 -->
<g id="edge68" class="edge"><title>Node14&#45;&gt;Node16</title>
<path fill="none" stroke="midnightblue" d="M1087.71,-593.378C1065.16,-580.729 1021.61,-556.526 984,-537 864.796,-475.106 793.489,-494.703 727,-378 695.489,-322.692 675.438,-281.414 719,-235 733.314,-219.749 780.838,-207.985 822.163,-200.315"/>
<polygon fill="midnightblue" stroke="midnightblue" points="823.015,-203.718 832.236,-198.502 821.774,-196.829 823.015,-203.718"/>
</g>
<!-- Node22 -->
<g id="node22" class="node"><title>Node22</title>
<polygon fill="white" stroke="#bfbfbf" points="1124.5,-179.5 1124.5,-198.5 1171.5,-198.5 1171.5,-179.5 1124.5,-179.5"/>
<text text-anchor="middle" x="1148" y="-186.5" font-family="Helvetica,sans-Serif" font-size="10.00">vector</text>
</g>
<!-- Node14&#45;&gt;Node22 -->
<g id="edge112" class="edge"><title>Node14&#45;&gt;Node22</title>
<path fill="none" stroke="midnightblue" d="M1109.35,-593.427C1133.27,-560.507 1218.04,-438.222 1246,-322 1249.22,-308.604 1251.44,-303.657 1246,-291 1236.81,-269.629 1224.34,-271.557 1208,-255 1192.07,-238.862 1174.56,-219.716 1162.58,-206.401"/>
<polygon fill="midnightblue" stroke="midnightblue" points="1164.87,-203.702 1155.59,-198.583 1159.65,-208.37 1164.87,-203.702"/>
</g>
<!-- Node32 -->
<g id="node32" class="node"><title>Node32</title>
<g id="a_node32"><a xlink:href="reflection_8h.html" target="_top" xlink:title="Reflection and serialization of compiler IR/AST nodes. ">
<polygon fill="white" stroke="black" points="1595.5,-537.5 1595.5,-556.5 1714.5,-556.5 1714.5,-537.5 1595.5,-537.5"/>
<text text-anchor="middle" x="1655" y="-544.5" font-family="Helvetica,sans-Serif" font-size="10.00">tvm/node/reflection.h</text>
</a>
</g>
</g>
<!-- Node14&#45;&gt;Node32 -->
<g id="edge69" class="edge"><title>Node14&#45;&gt;Node32</title>
<path fill="none" stroke="midnightblue" d="M1152.47,-597.16C1250.98,-587.523 1471.9,-565.912 1585.15,-554.833"/>
<polygon fill="midnightblue" stroke="midnightblue" points="1585.49,-558.316 1595.1,-553.859 1584.81,-551.35 1585.49,-558.316"/>
</g>
<!-- Node33 -->
<g id="node33" class="node"><title>Node33</title>
<g id="a_node33"><a xlink:href="structural__equal_8h.html" target="_top" xlink:title="Structural equality comparison. ">
<polygon fill="white" stroke="black" points="1236.5,-470.5 1236.5,-500.5 1347.5,-500.5 1347.5,-470.5 1236.5,-470.5"/>
<text text-anchor="start" x="1244.5" y="-488.5" font-family="Helvetica,sans-Serif" font-size="10.00">tvm/node/structural</text>
<text text-anchor="middle" x="1292" y="-477.5" font-family="Helvetica,sans-Serif" font-size="10.00">_equal.h</text>
</a>
</g>
</g>
<!-- Node14&#45;&gt;Node33 -->
<g id="edge109" class="edge"><title>Node14&#45;&gt;Node33</title>
<path fill="none" stroke="midnightblue" d="M1117.21,-593.319C1147.44,-574.843 1218.77,-531.249 1260.37,-505.83"/>
<polygon fill="midnightblue" stroke="midnightblue" points="1262.31,-508.746 1269.02,-500.545 1258.66,-502.773 1262.31,-508.746"/>
</g>
<!-- Node14&#45;&gt;Node35 -->
<g id="edge108" class="edge"><title>Node14&#45;&gt;Node35</title>
<path fill="none" stroke="midnightblue" d="M1093.5,-593.463C1062.44,-565.554 963.582,-476.736 923.317,-440.559"/>
<polygon fill="midnightblue" stroke="midnightblue" points="925.648,-437.948 915.87,-433.868 920.97,-443.155 925.648,-437.948"/>
</g>
<!-- Node36 -->
<g id="node36" class="node"><title>Node36</title>
<g id="a_node36"><a xlink:href="structural__hash_8h.html" target="_top" xlink:title="tvm/node/structural\l_hash.h">
<polygon fill="white" stroke="black" points="2026.5,-470.5 2026.5,-500.5 2137.5,-500.5 2137.5,-470.5 2026.5,-470.5"/>
<text text-anchor="start" x="2034.5" y="-488.5" font-family="Helvetica,sans-Serif" font-size="10.00">tvm/node/structural</text>
<text text-anchor="middle" x="2082" y="-477.5" font-family="Helvetica,sans-Serif" font-size="10.00">_hash.h</text>
</a>
</g>
</g>
<!-- Node14&#45;&gt;Node36 -->
<g id="edge110" class="edge"><title>Node14&#45;&gt;Node36</title>
<path fill="none" stroke="midnightblue" d="M1152.1,-602.045C1308.45,-601.771 1793.19,-597.585 1944,-557 1983.91,-546.259 2025.62,-523.019 2052.6,-506.151"/>
<polygon fill="midnightblue" stroke="midnightblue" points="2054.6,-509.025 2061.15,-500.702 2050.84,-503.12 2054.6,-509.025"/>
</g>
<!-- Node37 -->
<g id="node37" class="node"><title>Node37</title>
<g id="a_node37"><a xlink:href="repr__printer_8h.html" target="_top" xlink:title="Printer class to print repr string of each AST/IR nodes. ">
<polygon fill="white" stroke="black" points="446,-537.5 446,-556.5 576,-556.5 576,-537.5 446,-537.5"/>
<text text-anchor="middle" x="511" y="-544.5" font-family="Helvetica,sans-Serif" font-size="10.00">tvm/node/repr_printer.h</text>
</a>
</g>
</g>
<!-- Node14&#45;&gt;Node37 -->
<g id="edge105" class="edge"><title>Node14&#45;&gt;Node37</title>
<path fill="none" stroke="midnightblue" d="M1053.8,-597.512C950.302,-588.071 709.505,-566.107 586.4,-554.878"/>
<polygon fill="midnightblue" stroke="midnightblue" points="586.579,-551.38 576.302,-553.957 585.943,-558.351 586.579,-551.38"/>
</g>
<!-- Node15&#45;&gt;Node3 -->
<g id="edge26" class="edge"><title>Node15&#45;&gt;Node3</title>
<path fill="none" stroke="midnightblue" d="M1166.16,-366.688C1318.85,-364.353 1688.16,-348.913 1758,-255 1763.3,-247.867 1763.77,-241.762 1758,-235 1724.99,-196.315 1580.49,-214.315 1532,-199 1512.67,-192.894 1509.31,-187.711 1491,-179 1467.77,-167.946 1441.26,-155.673 1421.84,-146.739"/>
<polygon fill="midnightblue" stroke="midnightblue" points="1423.19,-143.512 1412.65,-142.52 1420.27,-149.873 1423.19,-143.512"/>
</g>
<!-- Node15&#45;&gt;Node4 -->
<g id="edge20" class="edge"><title>Node15&#45;&gt;Node4</title>
<path fill="none" stroke="midnightblue" d="M1098.18,-358.336C1092.72,-330.109 1079.06,-239.149 1115,-179 1144.1,-130.299 1205.08,-99.9136 1244.2,-84.6092"/>
<polygon fill="midnightblue" stroke="midnightblue" points="1245.53,-87.85 1253.65,-81.0412 1243.06,-81.3018 1245.53,-87.85"/>
</g>
<!-- Node15&#45;&gt;Node9 -->
<g id="edge64" class="edge"><title>Node15&#45;&gt;Node9</title>
<path fill="none" stroke="midnightblue" d="M1082.61,-358.354C1066.35,-349.955 1041.69,-336.394 1022,-322 1005.49,-309.931 1006.52,-299.662 988,-291 880.729,-240.839 835.201,-295.712 724,-255 666.355,-233.895 513.021,-126.682 457.464,-87.1582"/>
<polygon fill="midnightblue" stroke="midnightblue" points="459.302,-84.1699 449.128,-81.2132 455.237,-89.8691 459.302,-84.1699"/>
</g>
<!-- Node15&#45;&gt;Node10 -->
<g id="edge63" class="edge"><title>Node15&#45;&gt;Node10</title>
<path fill="none" stroke="midnightblue" d="M1166.15,-363.468C1273.85,-357.357 1493.7,-343.375 1679,-322 1703.4,-319.185 2093.41,-264.64 2116,-255 2204.63,-217.178 2199.88,-161.985 2288,-123 2372.1,-85.7955 2481.96,-75.9959 2535.64,-73.4179"/>
<polygon fill="midnightblue" stroke="midnightblue" points="2536.07,-76.9031 2545.91,-72.9813 2535.77,-69.9094 2536.07,-76.9031"/>
</g>
<!-- Node15&#45;&gt;Node11 -->
<g id="edge65" class="edge"><title>Node15&#45;&gt;Node11</title>
<path fill="none" stroke="midnightblue" d="M1092.4,-358.318C1076.3,-340.152 1038.86,-299.14 1022,-291 965.31,-263.622 782.591,-302.26 741,-255 700.215,-208.657 721.514,-127.138 734.017,-90.8349"/>
<polygon fill="midnightblue" stroke="midnightblue" points="737.425,-91.7032 737.537,-81.1089 730.843,-89.3211 737.425,-91.7032"/>
</g>
<!-- Node15&#45;&gt;Node16 -->
<g id="edge21" class="edge"><title>Node15&#45;&gt;Node16</title>
<path fill="none" stroke="midnightblue" d="M1097.79,-358.332C1093.34,-342.608 1081.81,-309.317 1060,-291 1019.96,-257.37 991.832,-283.506 948,-255 928.863,-242.554 912.13,-222.189 901.619,-207.569"/>
<polygon fill="midnightblue" stroke="midnightblue" points="904.213,-205.167 895.647,-198.932 898.455,-209.148 904.213,-205.167"/>
</g>
<!-- Node18 -->
<g id="node18" class="node"><title>Node18</title>
<g id="a_node18"><a xlink:href="packed__func_8h.html" target="_top" xlink:title="Type&#45;erased function used across TVM API. ">
<polygon fill="white" stroke="black" points="1413.5,-291.5 1413.5,-321.5 1526.5,-321.5 1526.5,-291.5 1413.5,-291.5"/>
<text text-anchor="start" x="1421.5" y="-309.5" font-family="Helvetica,sans-Serif" font-size="10.00">tvm/runtime/packed</text>
<text text-anchor="middle" x="1470" y="-298.5" font-family="Helvetica,sans-Serif" font-size="10.00">_func.h</text>
</a>
</g>
</g>
<!-- Node15&#45;&gt;Node18 -->
<g id="edge27" class="edge"><title>Node15&#45;&gt;Node18</title>
<path fill="none" stroke="midnightblue" d="M1153.01,-358.475C1218.91,-347.878 1331.43,-329.784 1403.17,-318.247"/>
<polygon fill="midnightblue" stroke="midnightblue" points="1404.13,-321.638 1413.45,-316.594 1403.02,-314.727 1404.13,-321.638"/>
</g>
<!-- Node15&#45;&gt;Node22 -->
<g id="edge66" class="edge"><title>Node15&#45;&gt;Node22</title>
<path fill="none" stroke="midnightblue" d="M1109.75,-358.479C1118.46,-350.169 1130.66,-336.667 1136,-322 1149.22,-285.653 1133.34,-273.395 1138,-235 1139.07,-226.152 1141.11,-216.485 1143.06,-208.387"/>
<polygon fill="midnightblue" stroke="midnightblue" points="1146.49,-209.095 1145.58,-198.54 1139.71,-207.362 1146.49,-209.095"/>
</g>
<!-- Node30 -->
<g id="node30" class="node"><title>Node30</title>
<polygon fill="white" stroke="#bfbfbf" points="1188.5,-297 1188.5,-316 1237.5,-316 1237.5,-297 1188.5,-297"/>
<text text-anchor="middle" x="1213" y="-304" font-family="Helvetica,sans-Serif" font-size="10.00">cstring</text>
</g>
<!-- Node15&#45;&gt;Node30 -->
<g id="edge61" class="edge"><title>Node15&#45;&gt;Node30</title>
<path fill="none" stroke="midnightblue" d="M1116.19,-358.475C1134.9,-348.622 1165.92,-332.288 1187.8,-320.77"/>
<polygon fill="midnightblue" stroke="midnightblue" points="1189.62,-323.765 1196.84,-316.009 1186.36,-317.571 1189.62,-323.765"/>
</g>
<!-- Node31 -->
<g id="node31" class="node"><title>Node31</title>
<polygon fill="white" stroke="#bfbfbf" points="902.5,-297 902.5,-316 979.5,-316 979.5,-297 902.5,-297"/>
<text text-anchor="middle" x="941" y="-304" font-family="Helvetica,sans-Serif" font-size="10.00">initializer_list</text>
</g>
<!-- Node15&#45;&gt;Node31 -->
<g id="edge62" class="edge"><title>Node15&#45;&gt;Node31</title>
<path fill="none" stroke="midnightblue" d="M1077.22,-358.475C1049.95,-348.269 1004.09,-331.108 973.199,-319.549"/>
<polygon fill="midnightblue" stroke="midnightblue" points="974.331,-316.236 963.739,-316.009 971.878,-322.792 974.331,-316.236"/>
</g>
<!-- Node16&#45;&gt;Node3 -->
<g id="edge22" class="edge"><title>Node16&#45;&gt;Node3</title>
<path fill="none" stroke="midnightblue" d="M953.577,-181.188C1048.66,-171.001 1227.17,-151.875 1325.2,-141.371"/>
<polygon fill="midnightblue" stroke="midnightblue" points="1325.73,-144.835 1335.3,-140.289 1324.98,-137.875 1325.73,-144.835"/>
</g>
<!-- Node16&#45;&gt;Node9 -->
<g id="edge25" class="edge"><title>Node16&#45;&gt;Node9</title>
<path fill="none" stroke="midnightblue" d="M856.321,-179.413C775.471,-158.799 570.454,-106.526 480.47,-83.5834"/>
<polygon fill="midnightblue" stroke="midnightblue" points="481.147,-80.1442 470.592,-81.065 479.418,-86.9272 481.147,-80.1442"/>
</g>
<!-- Node16&#45;&gt;Node11 -->
<g id="edge24" class="edge"><title>Node16&#45;&gt;Node11</title>
<path fill="none" stroke="midnightblue" d="M878.801,-179.319C853.561,-159.753 791.979,-112.017 760.389,-87.5295"/>
<polygon fill="midnightblue" stroke="midnightblue" points="762.377,-84.6424 752.329,-81.282 758.088,-90.1748 762.377,-84.6424"/>
</g>
<!-- Node17 -->
<g id="node17" class="node"><title>Node17</title>
<polygon fill="white" stroke="#bfbfbf" points="866.5,-123.5 866.5,-142.5 913.5,-142.5 913.5,-123.5 866.5,-123.5"/>
<text text-anchor="middle" x="890" y="-130.5" font-family="Helvetica,sans-Serif" font-size="10.00">cstdlib</text>
</g>
<!-- Node16&#45;&gt;Node17 -->
<g id="edge23" class="edge"><title>Node16&#45;&gt;Node17</title>
<path fill="none" stroke="midnightblue" d="M890,-179.083C890,-172.006 890,-161.861 890,-152.986"/>
<polygon fill="midnightblue" stroke="midnightblue" points="893.5,-152.751 890,-142.751 886.5,-152.751 893.5,-152.751"/>
</g>
<!-- Node18&#45;&gt;Node3 -->
<g id="edge52" class="edge"><title>Node18&#45;&gt;Node3</title>
<path fill="none" stroke="midnightblue" d="M1526.87,-296.052C1571.64,-286.001 1622.95,-267.036 1600,-235 1571.02,-194.555 1538.76,-220.726 1494,-199 1464.28,-184.573 1432.76,-162.878 1413.23,-148.581"/>
<polygon fill="midnightblue" stroke="midnightblue" points="1415.26,-145.733 1405.15,-142.585 1411.09,-151.355 1415.26,-145.733"/>
</g>
<!-- Node18&#45;&gt;Node4 -->
<g id="edge28" class="edge"><title>Node18&#45;&gt;Node4</title>
<path fill="none" stroke="midnightblue" d="M1426.61,-291.396C1386.09,-275.735 1327.67,-246.238 1299,-199 1278.52,-165.264 1277.32,-117.41 1278.5,-91.2938"/>
<polygon fill="midnightblue" stroke="midnightblue" points="1282,-91.442 1279.12,-81.2439 1275.01,-91.0072 1282,-91.442"/>
</g>
<!-- Node18&#45;&gt;Node5 -->
<g id="edge29" class="edge"><title>Node18&#45;&gt;Node5</title>
<path fill="none" stroke="midnightblue" d="M1526.65,-303.951C1670.81,-299.582 2043.5,-285.444 2090,-255 2146.62,-217.932 2172.95,-136.745 2182.93,-96.3322"/>
<polygon fill="midnightblue" stroke="midnightblue" points="2186.35,-97.07 2185.23,-86.5355 2179.54,-95.4746 2186.35,-97.07"/>
</g>
<!-- Node18&#45;&gt;Node9 -->
<g id="edge60" class="edge"><title>Node18&#45;&gt;Node9</title>
<path fill="none" stroke="midnightblue" d="M1413.49,-297.278C1276.75,-277.222 930.907,-225.497 817,-199 733.742,-179.632 713.833,-170.805 633,-143 609.585,-134.946 604.241,-131.543 581,-123 543.853,-109.346 501.025,-94.4312 471.795,-84.3764"/>
<polygon fill="midnightblue" stroke="midnightblue" points="472.649,-80.9693 462.055,-81.0326 470.376,-87.59 472.649,-80.9693"/>
</g>
<!-- Node18&#45;&gt;Node10 -->
<g id="edge56" class="edge"><title>Node18&#45;&gt;Node10</title>
<path fill="none" stroke="midnightblue" d="M1515.58,-291.455C1544.88,-282.029 1583.59,-268.841 1617,-255 1740.4,-203.87 1758.07,-157.903 1887,-123 1950.03,-105.937 2409,-80.8377 2535.69,-74.1744"/>
<polygon fill="midnightblue" stroke="midnightblue" points="2536.1,-77.6579 2545.9,-73.6394 2535.73,-70.6674 2536.1,-77.6579"/>
</g>
<!-- Node18&#45;&gt;Node11 -->
<g id="edge59" class="edge"><title>Node18&#45;&gt;Node11</title>
<path fill="none" stroke="midnightblue" d="M1425.27,-291.464C1396.76,-282.09 1359.26,-268.957 1327,-255 1259.5,-225.796 1248.9,-204.743 1180,-179 1031.9,-123.665 844.832,-89.4392 771.997,-77.3894"/>
<polygon fill="midnightblue" stroke="midnightblue" points="772.532,-73.9304 762.098,-75.7726 771.403,-80.8388 772.532,-73.9304"/>
</g>
<!-- Node18&#45;&gt;Node13 -->
<g id="edge51" class="edge"><title>Node18&#45;&gt;Node13</title>
<path fill="none" stroke="midnightblue" d="M1526.78,-301.34C1668.96,-290.921 2040.55,-263.693 2203.5,-251.752"/>
<polygon fill="midnightblue" stroke="midnightblue" points="2204.21,-255.21 2213.92,-250.988 2203.7,-248.229 2204.21,-255.21"/>
</g>
<!-- Node19 -->
<g id="node19" class="node"><title>Node19</title>
<g id="a_node19"><a xlink:href="runtime_2module_8h.html" target="_top" xlink:title="Runtime container of the functions generated by TVM, This is used to support dynamically link...">
<polygon fill="white" stroke="black" points="1408,-235.5 1408,-254.5 1532,-254.5 1532,-235.5 1408,-235.5"/>
<text text-anchor="middle" x="1470" y="-242.5" font-family="Helvetica,sans-Serif" font-size="10.00">tvm/runtime/module.h</text>
</a>
</g>
</g>
<!-- Node18&#45;&gt;Node19 -->
<g id="edge30" class="edge"><title>Node18&#45;&gt;Node19</title>
<path fill="none" stroke="midnightblue" d="M1464.16,-291.399C1463.13,-283.377 1462.97,-273.233 1463.69,-264.569"/>
<polygon fill="midnightblue" stroke="midnightblue" points="1467.16,-265.044 1465.07,-254.658 1460.23,-264.081 1467.16,-265.044"/>
</g>
<!-- Node21 -->
<g id="node21" class="node"><title>Node21</title>
<polygon fill="white" stroke="#bfbfbf" points="1308.5,-179.5 1308.5,-198.5 1365.5,-198.5 1365.5,-179.5 1308.5,-179.5"/>
<text text-anchor="middle" x="1337" y="-186.5" font-family="Helvetica,sans-Serif" font-size="10.00">memory</text>
</g>
<!-- Node18&#45;&gt;Node21 -->
<g id="edge58" class="edge"><title>Node18&#45;&gt;Node21</title>
<path fill="none" stroke="midnightblue" d="M1448.08,-291.491C1433.62,-281.877 1414.55,-268.466 1399,-255 1381.43,-239.783 1363.3,-220.249 1351.22,-206.585"/>
<polygon fill="midnightblue" stroke="midnightblue" points="1353.75,-204.162 1344.54,-198.926 1348.47,-208.763 1353.75,-204.162"/>
</g>
<!-- Node18&#45;&gt;Node22 -->
<g id="edge55" class="edge"><title>Node18&#45;&gt;Node22</title>
<path fill="none" stroke="midnightblue" d="M1413.34,-292.019C1377.53,-282.909 1330.53,-269.859 1290,-255 1267.72,-246.832 1209.52,-219.444 1174.94,-202.939"/>
<polygon fill="midnightblue" stroke="midnightblue" points="1176.39,-199.755 1165.86,-198.598 1173.37,-206.07 1176.39,-199.755"/>
</g>
<!-- Node24 -->
<g id="node24" class="node"><title>Node24</title>
<g id="a_node24"><a xlink:href="ndarray_8h.html" target="_top" xlink:title="A device&#45;independent managed NDArray abstraction. ">
<polygon fill="white" stroke="black" points="1958.5,-235.5 1958.5,-254.5 2081.5,-254.5 2081.5,-235.5 1958.5,-235.5"/>
<text text-anchor="middle" x="2020" y="-242.5" font-family="Helvetica,sans-Serif" font-size="10.00">tvm/runtime/ndarray.h</text>
</a>
</g>
</g>
<!-- Node18&#45;&gt;Node24 -->
<g id="edge40" class="edge"><title>Node18&#45;&gt;Node24</title>
<path fill="none" stroke="midnightblue" d="M1526.53,-299.384C1627.28,-288.485 1837.66,-265.726 1948.37,-253.75"/>
<polygon fill="midnightblue" stroke="midnightblue" points="1948.87,-257.215 1958.44,-252.66 1948.12,-250.256 1948.87,-257.215"/>
</g>
<!-- Node27 -->
<g id="node27" class="node"><title>Node27</title>
<polygon fill="white" stroke="#bfbfbf" points="1686.5,-235.5 1686.5,-254.5 1749.5,-254.5 1749.5,-235.5 1686.5,-235.5"/>
<text text-anchor="middle" x="1718" y="-242.5" font-family="Helvetica,sans-Serif" font-size="10.00">functional</text>
</g>
<!-- Node18&#45;&gt;Node27 -->
<g id="edge53" class="edge"><title>Node18&#45;&gt;Node27</title>
<path fill="none" stroke="midnightblue" d="M1526.59,-291.924C1572.18,-280.984 1635.26,-265.851 1676.34,-255.996"/>
<polygon fill="midnightblue" stroke="midnightblue" points="1677.38,-259.346 1686.28,-253.61 1675.74,-252.539 1677.38,-259.346"/>
</g>
<!-- Node28 -->
<g id="node28" class="node"><title>Node28</title>
<polygon fill="white" stroke="#bfbfbf" points="1550.5,-235.5 1550.5,-254.5 1591.5,-254.5 1591.5,-235.5 1550.5,-235.5"/>
<text text-anchor="middle" x="1571" y="-242.5" font-family="Helvetica,sans-Serif" font-size="10.00">tuple</text>
</g>
<!-- Node18&#45;&gt;Node28 -->
<g id="edge54" class="edge"><title>Node18&#45;&gt;Node28</title>
<path fill="none" stroke="midnightblue" d="M1493.94,-291.399C1510.13,-281.862 1531.41,-269.325 1547.5,-259.842"/>
<polygon fill="midnightblue" stroke="midnightblue" points="1549.46,-262.749 1556.3,-254.658 1545.91,-256.718 1549.46,-262.749"/>
</g>
<!-- Node18&#45;&gt;Node29 -->
<g id="edge57" class="edge"><title>Node18&#45;&gt;Node29</title>
<path fill="none" stroke="midnightblue" d="M1413.4,-301.481C1368.13,-298.351 1303.01,-294.043 1246,-291 835.194,-269.076 335.273,-251.461 206.453,-247.061"/>
<polygon fill="midnightblue" stroke="midnightblue" points="206.26,-243.552 196.147,-246.71 206.022,-250.548 206.26,-243.552"/>
</g>
<!-- Node19&#45;&gt;Node3 -->
<g id="edge33" class="edge"><title>Node19&#45;&gt;Node3</title>
<path fill="none" stroke="midnightblue" d="M1456.8,-235.46C1445.16,-227.33 1428.47,-214.116 1418,-199 1408.17,-184.797 1401.81,-166.074 1398.13,-152.372"/>
<polygon fill="midnightblue" stroke="midnightblue" points="1401.52,-151.514 1395.73,-142.642 1394.73,-153.188 1401.52,-151.514"/>
</g>
<!-- Node19&#45;&gt;Node5 -->
<g id="edge32" class="edge"><title>Node19&#45;&gt;Node5</title>
<path fill="none" stroke="midnightblue" d="M1489.91,-235.464C1542.39,-213.324 1689.2,-153.654 1817,-123 1918.42,-98.6735 2038.45,-85.0028 2113.92,-78.1868"/>
<polygon fill="midnightblue" stroke="midnightblue" points="2114.62,-81.6391 2124.27,-77.2702 2114,-74.6664 2114.62,-81.6391"/>
</g>
<!-- Node19&#45;&gt;Node10 -->
<g id="edge37" class="edge"><title>Node19&#45;&gt;Node10</title>
<path fill="none" stroke="midnightblue" d="M1475.79,-235.363C1492.11,-211.874 1541.24,-146.986 1601,-123 1612.1,-118.544 2368.8,-82.0471 2535.68,-74.0464"/>
<polygon fill="midnightblue" stroke="midnightblue" points="2535.98,-77.536 2545.8,-73.5613 2535.65,-70.544 2535.98,-77.536"/>
</g>
<!-- Node19&#45;&gt;Node16 -->
<g id="edge34" class="edge"><title>Node19&#45;&gt;Node16</title>
<path fill="none" stroke="midnightblue" d="M1407.93,-238.221C1300.28,-228.198 1079.42,-207.635 963.982,-196.888"/>
<polygon fill="midnightblue" stroke="midnightblue" points="964.106,-193.384 953.825,-195.942 963.457,-200.354 964.106,-193.384"/>
</g>
<!-- Node19&#45;&gt;Node18 -->
<g id="edge39" class="edge"><title>Node19&#45;&gt;Node18</title>
<path fill="none" stroke="midnightblue" d="M1474.93,-254.658C1476.43,-261.655 1477.01,-271.857 1476.64,-281.289"/>
<polygon fill="midnightblue" stroke="midnightblue" points="1473.14,-281.153 1475.84,-291.399 1480.12,-281.709 1473.14,-281.153"/>
</g>
<!-- Node20 -->
<g id="node20" class="node"><title>Node20</title>
<polygon fill="white" stroke="#bfbfbf" points="1610,-123.5 1610,-142.5 1670,-142.5 1670,-123.5 1610,-123.5"/>
<text text-anchor="middle" x="1640" y="-130.5" font-family="Helvetica,sans-Serif" font-size="10.00">dmlc/io.h</text>
</g>
<!-- Node19&#45;&gt;Node20 -->
<g id="edge31" class="edge"><title>Node19&#45;&gt;Node20</title>
<path fill="none" stroke="midnightblue" d="M1483.34,-235.368C1512.51,-216.492 1582.22,-171.385 1618,-148.237"/>
<polygon fill="midnightblue" stroke="midnightblue" points="1620.23,-150.962 1626.72,-142.591 1616.43,-145.085 1620.23,-150.962"/>
</g>
<!-- Node19&#45;&gt;Node21 -->
<g id="edge35" class="edge"><title>Node19&#45;&gt;Node21</title>
<path fill="none" stroke="midnightblue" d="M1448.93,-235.444C1426.94,-226.517 1392.27,-212.439 1367.34,-202.317"/>
<polygon fill="midnightblue" stroke="midnightblue" points="1368.56,-199.035 1357.98,-198.516 1365.92,-205.521 1368.56,-199.035"/>
</g>
<!-- Node19&#45;&gt;Node22 -->
<g id="edge36" class="edge"><title>Node19&#45;&gt;Node22</title>
<path fill="none" stroke="midnightblue" d="M1418.98,-235.444C1352.67,-224.324 1238.7,-205.21 1182.04,-195.708"/>
<polygon fill="midnightblue" stroke="midnightblue" points="1182.26,-192.197 1171.82,-193.995 1181.11,-199.101 1182.26,-192.197"/>
</g>
<!-- Node23 -->
<g id="node23" class="node"><title>Node23</title>
<polygon fill="white" stroke="#bfbfbf" points="485.5,-179.5 485.5,-198.5 578.5,-198.5 578.5,-179.5 485.5,-179.5"/>
<text text-anchor="middle" x="532" y="-186.5" font-family="Helvetica,sans-Serif" font-size="10.00">unordered_map</text>
</g>
<!-- Node19&#45;&gt;Node23 -->
<g id="edge38" class="edge"><title>Node19&#45;&gt;Node23</title>
<path fill="none" stroke="midnightblue" d="M1407.73,-240.415C1235.56,-230.504 754.941,-202.835 589.114,-193.288"/>
<polygon fill="midnightblue" stroke="midnightblue" points="588.838,-189.766 578.653,-192.686 588.436,-196.755 588.838,-189.766"/>
</g>
<!-- Node24&#45;&gt;Node3 -->
<g id="edge42" class="edge"><title>Node24&#45;&gt;Node3</title>
<path fill="none" stroke="midnightblue" d="M1977.09,-235.476C1939.45,-227.537 1883.49,-214.597 1836,-199 1814.04,-191.789 1810.37,-184.813 1788,-179 1676.56,-150.039 1542.57,-139.712 1463.06,-136.033"/>
<polygon fill="midnightblue" stroke="midnightblue" points="1462.83,-132.52 1452.68,-135.577 1462.52,-139.513 1462.83,-132.52"/>
</g>
<!-- Node24&#45;&gt;Node5 -->
<g id="edge41" class="edge"><title>Node24&#45;&gt;Node5</title>
<path fill="none" stroke="midnightblue" d="M2028.56,-235.26C2053.97,-209.323 2129.48,-132.241 2166.73,-94.2125"/>
<polygon fill="midnightblue" stroke="midnightblue" points="2169.57,-96.3156 2174.07,-86.7228 2164.57,-91.4171 2169.57,-96.3156"/>
</g>
<!-- Node24&#45;&gt;Node11 -->
<g id="edge50" class="edge"><title>Node24&#45;&gt;Node11</title>
<path fill="none" stroke="midnightblue" d="M1986.25,-235.455C1955.33,-227.274 1908.52,-213.987 1869,-199 1849.29,-191.526 1845.42,-187.201 1826,-179 1761.6,-151.796 1747.39,-137.498 1679,-123 1588.73,-103.866 924.97,-79.0945 772.264,-73.6075"/>
<polygon fill="midnightblue" stroke="midnightblue" points="772.286,-70.1062 762.168,-73.2461 772.036,-77.1017 772.286,-70.1062"/>
</g>
<!-- Node24&#45;&gt;Node12 -->
<g id="edge48" class="edge"><title>Node24&#45;&gt;Node12</title>
<path fill="none" stroke="midnightblue" d="M2021.7,-235.262C2025.52,-212.636 2032.08,-151.891 1999,-123 1962.39,-91.0276 1818.01,-78.5065 1750.35,-74.3213"/>
<polygon fill="midnightblue" stroke="midnightblue" points="1750.36,-70.8163 1740.17,-73.7195 1749.95,-77.804 1750.36,-70.8163"/>
</g>
<!-- Node24&#45;&gt;Node22 -->
<g id="edge49" class="edge"><title>Node24&#45;&gt;Node22</title>
<path fill="none" stroke="midnightblue" d="M1958.34,-240.181C1787.59,-229.607 1312.6,-200.193 1181.75,-192.09"/>
<polygon fill="midnightblue" stroke="midnightblue" points="1181.74,-188.583 1171.54,-191.458 1181.31,-195.569 1181.74,-188.583"/>
</g>
<!-- Node25 -->
<g id="node25" class="node"><title>Node25</title>
<g id="a_node25"><a xlink:href="serializer_8h.html" target="_top" xlink:title="Serializer extension to support TVM data types Include this file to enable serialization of DLDataTyp...">
<polygon fill="white" stroke="black" points="1878,-179.5 1878,-198.5 2008,-198.5 2008,-179.5 1878,-179.5"/>
<text text-anchor="middle" x="1943" y="-186.5" font-family="Helvetica,sans-Serif" font-size="10.00">tvm/runtime/serializer.h</text>
</a>
</g>
</g>
<!-- Node24&#45;&gt;Node25 -->
<g id="edge43" class="edge"><title>Node24&#45;&gt;Node25</title>
<path fill="none" stroke="midnightblue" d="M2002.51,-235.324C1989.15,-227.185 1971.2,-214.839 1958.39,-205.087"/>
<polygon fill="midnightblue" stroke="midnightblue" points="1960.47,-202.273 1950.45,-198.834 1956.14,-207.772 1960.47,-202.273"/>
</g>
<!-- Node25&#45;&gt;Node5 -->
<g id="edge46" class="edge"><title>Node25&#45;&gt;Node5</title>
<path fill="none" stroke="midnightblue" d="M1961.41,-179.319C2001.1,-160.611 2095.41,-116.148 2149.01,-90.8795"/>
<polygon fill="midnightblue" stroke="midnightblue" points="2150.65,-93.9754 2158.21,-86.5453 2147.67,-87.6437 2150.65,-93.9754"/>
</g>
<!-- Node25&#45;&gt;Node20 -->
<g id="edge44" class="edge"><title>Node25&#45;&gt;Node20</title>
<path fill="none" stroke="midnightblue" d="M1894.99,-179.444C1835.73,-168.883 1736.01,-151.111 1680.46,-141.211"/>
<polygon fill="midnightblue" stroke="midnightblue" points="1680.75,-137.708 1670.29,-139.399 1679.52,-144.599 1680.75,-137.708"/>
</g>
<!-- Node25&#45;&gt;Node24 -->
<g id="edge47" class="edge"><title>Node25&#45;&gt;Node24</title>
<path fill="none" stroke="midnightblue" d="M1960.45,-198.655C1973.89,-206.835 1991.97,-219.277 2004.81,-229.061"/>
<polygon fill="midnightblue" stroke="midnightblue" points="2002.73,-231.875 2012.74,-235.324 2007.06,-226.381 2002.73,-231.875"/>
</g>
<!-- Node26 -->
<g id="node26" class="node"><title>Node26</title>
<polygon fill="white" stroke="#bfbfbf" points="1896,-123.5 1896,-142.5 1990,-142.5 1990,-123.5 1896,-123.5"/>
<text text-anchor="middle" x="1943" y="-130.5" font-family="Helvetica,sans-Serif" font-size="10.00">dmlc/serializer.h</text>
</g>
<!-- Node25&#45;&gt;Node26 -->
<g id="edge45" class="edge"><title>Node25&#45;&gt;Node26</title>
<path fill="none" stroke="midnightblue" d="M1943,-179.083C1943,-172.006 1943,-161.861 1943,-152.986"/>
<polygon fill="midnightblue" stroke="midnightblue" points="1946.5,-152.751 1943,-142.751 1939.5,-152.751 1946.5,-152.751"/>
</g>
<!-- Node32&#45;&gt;Node3 -->
<g id="edge71" class="edge"><title>Node32&#45;&gt;Node3</title>
<path fill="none" stroke="midnightblue" d="M1687.58,-537.466C1734.63,-522.947 1816,-488.637 1816,-425 1816,-425 1816,-425 1816,-305.5 1816,-269.253 1804.73,-255.733 1775,-235 1699.12,-182.087 1658.37,-226.358 1570,-199 1549.48,-192.647 1545.97,-186.92 1526,-179 1494.47,-166.494 1457.91,-154.199 1431.28,-145.629"/>
<polygon fill="midnightblue" stroke="midnightblue" points="1432.18,-142.242 1421.59,-142.534 1430.05,-148.91 1432.18,-142.242"/>
</g>
<!-- Node32&#45;&gt;Node5 -->
<g id="edge70" class="edge"><title>Node32&#45;&gt;Node5</title>
<path fill="none" stroke="midnightblue" d="M1714.67,-545.76C1864.42,-543.725 2249.5,-529.161 2324,-434 2379.36,-363.289 2394.42,-317.522 2359,-235 2331.01,-169.786 2262.56,-118.403 2221.25,-92.0063"/>
<polygon fill="midnightblue" stroke="midnightblue" points="2222.96,-88.9444 2212.62,-86.6038 2219.24,-94.8774 2222.96,-88.9444"/>
</g>
<!-- Node32&#45;&gt;Node9 -->
<g id="edge104" class="edge"><title>Node32&#45;&gt;Node9</title>
<path fill="none" stroke="midnightblue" d="M1595.26,-546.505C1450.46,-546.014 1070.87,-534.412 775,-434 610.272,-378.096 546.524,-351.04 462,-199 442.757,-164.386 438.171,-117.203 437.174,-91.3518"/>
<polygon fill="midnightblue" stroke="midnightblue" points="440.667,-91.0105 436.929,-81.097 433.669,-91.1779 440.667,-91.0105"/>
</g>
<!-- Node32&#45;&gt;Node10 -->
<g id="edge103" class="edge"><title>Node32&#45;&gt;Node10</title>
<path fill="none" stroke="midnightblue" d="M1714.55,-545.31C1827.93,-543.223 2070.28,-534.818 2146,-501 2161.65,-494.01 2358.9,-302.057 2372,-291 2392.1,-274.025 2398.99,-272.081 2419,-255 2446.5,-231.531 2452.58,-224.704 2478,-199 2501.88,-174.853 2510.23,-170.616 2530,-143 2541.98,-126.261 2552.82,-105.302 2559.82,-90.6031"/>
<polygon fill="midnightblue" stroke="midnightblue" points="2563.17,-91.7008 2564.21,-81.1567 2556.82,-88.7532 2563.17,-91.7008"/>
</g>
<!-- Node32&#45;&gt;Node13 -->
<g id="edge75" class="edge"><title>Node32&#45;&gt;Node13</title>
<path fill="none" stroke="midnightblue" d="M1701.74,-537.459C1737.61,-530.082 1787.95,-517.926 1830,-501 2006.09,-430.12 2198.48,-303.193 2261.08,-260.479"/>
<polygon fill="midnightblue" stroke="midnightblue" points="2263.4,-263.127 2269.67,-254.585 2259.45,-257.355 2263.4,-263.127"/>
</g>
<!-- Node32&#45;&gt;Node16 -->
<g id="edge72" class="edge"><title>Node32&#45;&gt;Node16</title>
<path fill="none" stroke="midnightblue" d="M1595.38,-542.842C1494.34,-536.974 1293.91,-522.951 1227,-501 1201.07,-492.494 1199.92,-478.528 1174,-470 1030.91,-422.927 980.005,-481.316 837,-434 790.469,-418.604 767.513,-419.848 742,-378 708.876,-323.67 696.789,-285.882 735,-235 746.353,-219.882 788.804,-208.199 826.414,-200.53"/>
<polygon fill="midnightblue" stroke="midnightblue" points="827.221,-203.938 836.355,-198.57 825.867,-197.07 827.221,-203.938"/>
</g>
<!-- Node32&#45;&gt;Node18 -->
<g id="edge73" class="edge"><title>Node32&#45;&gt;Node18</title>
<path fill="none" stroke="midnightblue" d="M1648.2,-537.229C1621.94,-503.386 1526.75,-380.663 1487.31,-329.81"/>
<polygon fill="midnightblue" stroke="midnightblue" points="1489.94,-327.493 1481.04,-321.737 1484.41,-331.784 1489.94,-327.493"/>
</g>
<!-- Node32&#45;&gt;Node22 -->
<g id="edge102" class="edge"><title>Node32&#45;&gt;Node22</title>
<path fill="none" stroke="midnightblue" d="M1595.33,-545.085C1514.45,-540.324 1380,-518.367 1380,-425 1380,-425 1380,-425 1380,-367 1380,-288.009 1310.41,-294.501 1242,-255 1215.13,-239.481 1186,-218.662 1167.41,-204.813"/>
<polygon fill="midnightblue" stroke="midnightblue" points="1169.28,-201.84 1159.18,-198.627 1165.07,-207.435 1169.28,-201.84"/>
</g>
<!-- Node32&#45;&gt;Node24 -->
<g id="edge74" class="edge"><title>Node32&#45;&gt;Node24</title>
<path fill="none" stroke="midnightblue" d="M1714.7,-540.918C1778.81,-534.492 1875.57,-521.699 1906,-501 1988.78,-444.689 2012.18,-313.362 2018.14,-264.633"/>
<polygon fill="midnightblue" stroke="midnightblue" points="2021.63,-264.913 2019.26,-254.587 2014.68,-264.138 2021.63,-264.913"/>
</g>
<!-- Node32&#45;&gt;Node33 -->
<g id="edge76" class="edge"><title>Node32&#45;&gt;Node33</title>
<path fill="none" stroke="midnightblue" d="M1595.94,-537.493C1537.45,-528.906 1445.39,-514.954 1366,-501 1363.31,-500.528 1360.57,-500.036 1357.8,-499.532"/>
<polygon fill="midnightblue" stroke="midnightblue" points="1358.19,-496.043 1347.72,-497.659 1356.91,-502.925 1358.19,-496.043"/>
</g>
<!-- Node32&#45;&gt;Node36 -->
<g id="edge96" class="edge"><title>Node32&#45;&gt;Node36</title>
<path fill="none" stroke="midnightblue" d="M1714.59,-539.943C1785.63,-532.385 1907.86,-518.322 2012,-501 2013.45,-500.758 2014.92,-500.508 2016.4,-500.25"/>
<polygon fill="midnightblue" stroke="midnightblue" points="2017.08,-503.685 2026.29,-498.453 2015.83,-496.798 2017.08,-503.685"/>
</g>
<!-- Node33&#45;&gt;Node10 -->
<g id="edge95" class="edge"><title>Node33&#45;&gt;Node10</title>
<path fill="none" stroke="midnightblue" d="M1347.68,-483.472C1512.59,-478.229 2008.84,-446.472 2359,-255 2436.04,-212.873 2439.27,-180.077 2506,-123 2520.23,-110.829 2536.67,-97.465 2549.05,-87.5436"/>
<polygon fill="midnightblue" stroke="midnightblue" points="2551.26,-90.2569 2556.89,-81.2819 2546.89,-84.787 2551.26,-90.2569"/>
</g>
<!-- Node33&#45;&gt;Node13 -->
<g id="edge77" class="edge"><title>Node33&#45;&gt;Node13</title>
<path fill="none" stroke="midnightblue" d="M1347.9,-477.342C1451.62,-463.363 1680.38,-429.248 1868,-378 1976.64,-348.324 1998.42,-324.324 2106,-291 2148.77,-277.75 2198.24,-265.355 2233.82,-256.943"/>
<polygon fill="midnightblue" stroke="midnightblue" points="2234.99,-260.262 2243.93,-254.571 2233.39,-253.448 2234.99,-260.262"/>
</g>
<!-- Node34 -->
<g id="node34" class="node"><title>Node34</title>
<g id="a_node34"><a xlink:href="functor_8h.html" target="_top" xlink:title="Defines the Functor data structures. ">
<polygon fill="white" stroke="black" points="750.5,-235.5 750.5,-254.5 857.5,-254.5 857.5,-235.5 750.5,-235.5"/>
<text text-anchor="middle" x="804" y="-242.5" font-family="Helvetica,sans-Serif" font-size="10.00">tvm/node/functor.h</text>
</a>
</g>
</g>
<!-- Node33&#45;&gt;Node34 -->
<g id="edge78" class="edge"><title>Node33&#45;&gt;Node34</title>
<path fill="none" stroke="midnightblue" d="M1243.16,-470.446C1165.38,-446.816 1010.2,-394.501 893,-322 864.786,-304.546 836.357,-278.439 819.464,-261.818"/>
<polygon fill="midnightblue" stroke="midnightblue" points="821.695,-259.099 812.15,-254.5 816.744,-264.047 821.695,-259.099"/>
</g>
<!-- Node33&#45;&gt;Node35 -->
<g id="edge84" class="edge"><title>Node33&#45;&gt;Node35</title>
<path fill="none" stroke="midnightblue" d="M1236.09,-474.122C1228.02,-472.694 1219.8,-471.28 1212,-470 1131.06,-456.718 1037.77,-443.265 975.683,-434.574"/>
<polygon fill="midnightblue" stroke="midnightblue" points="975.999,-431.084 965.611,-433.168 975.031,-438.017 975.999,-431.084"/>
</g>
<!-- Node34&#45;&gt;Node3 -->
<g id="edge80" class="edge"><title>Node34&#45;&gt;Node3</title>
<path fill="none" stroke="midnightblue" d="M840.445,-235.457C915.164,-217.946 1078.99,-179.567 1082,-179 1165.16,-163.311 1261.7,-150.156 1325.11,-142.198"/>
<polygon fill="midnightblue" stroke="midnightblue" points="1325.89,-145.628 1335.38,-140.918 1325.03,-138.682 1325.89,-145.628"/>
</g>
<!-- Node34&#45;&gt;Node4 -->
<g id="edge79" class="edge"><title>Node34&#45;&gt;Node4</title>
<path fill="none" stroke="midnightblue" d="M847.538,-235.434C887.85,-226.83 944.168,-212.889 962,-199 992.792,-175.017 974.102,-145.491 1006,-123 1040.78,-98.4759 1157.21,-83.806 1226.6,-77.0303"/>
<polygon fill="midnightblue" stroke="midnightblue" points="1227.28,-80.4819 1236.9,-76.049 1226.61,-73.5135 1227.28,-80.4819"/>
</g>
<!-- Node34&#45;&gt;Node9 -->
<g id="edge82" class="edge"><title>Node34&#45;&gt;Node9</title>
<path fill="none" stroke="midnightblue" d="M785.8,-235.495C726.125,-207.609 536.121,-118.819 464.59,-85.3931"/>
<polygon fill="midnightblue" stroke="midnightblue" points="465.851,-82.1188 455.309,-81.056 462.887,-88.4606 465.851,-82.1188"/>
</g>
<!-- Node34&#45;&gt;Node11 -->
<g id="edge83" class="edge"><title>Node34&#45;&gt;Node11</title>
<path fill="none" stroke="midnightblue" d="M800.789,-235.26C790.973,-208.536 761.21,-127.517 747.745,-90.8618"/>
<polygon fill="midnightblue" stroke="midnightblue" points="750.863,-89.1992 744.13,-81.0194 744.292,-91.613 750.863,-89.1992"/>
</g>
<!-- Node34&#45;&gt;Node22 -->
<g id="edge81" class="edge"><title>Node34&#45;&gt;Node22</title>
<path fill="none" stroke="midnightblue" d="M857.75,-235.562C929.589,-224.285 1054.77,-204.635 1114.47,-195.263"/>
<polygon fill="midnightblue" stroke="midnightblue" points="1115.15,-198.699 1124.49,-193.69 1114.07,-191.784 1115.15,-198.699"/>
</g>
<!-- Node35&#45;&gt;Node3 -->
<g id="edge85" class="edge"><title>Node35&#45;&gt;Node3</title>
<path fill="none" stroke="midnightblue" d="M965.613,-421.486C1021.8,-418.137 1107.24,-407.999 1175,-378 1211.75,-361.73 1222.36,-354.499 1246,-322 1285.87,-267.19 1253.21,-228.977 1299,-179 1313,-163.716 1333.28,-153.135 1351.51,-146.094"/>
<polygon fill="midnightblue" stroke="midnightblue" points="1352.88,-149.322 1361.09,-142.634 1350.5,-142.739 1352.88,-149.322"/>
</g>
<!-- Node35&#45;&gt;Node9 -->
<g id="edge89" class="edge"><title>Node35&#45;&gt;Node9</title>
<path fill="none" stroke="midnightblue" d="M846.161,-419.246C798.044,-414.4 729.689,-403.318 675,-378 623.208,-354.023 480.759,-206.691 476,-199 454.51,-164.272 444.063,-116.803 439.682,-91.0154"/>
<polygon fill="midnightblue" stroke="midnightblue" points="443.134,-90.4361 438.12,-81.103 436.22,-91.5259 443.134,-90.4361"/>
</g>
<!-- Node35&#45;&gt;Node10 -->
<g id="edge94" class="edge"><title>Node35&#45;&gt;Node10</title>
<path fill="none" stroke="midnightblue" d="M965.512,-417.898C1181.59,-398.921 1923.83,-329.647 2149,-255 2277.31,-212.465 2298.08,-174.646 2423,-123 2461.12,-107.239 2506.14,-92.0788 2535.79,-82.5529"/>
<polygon fill="midnightblue" stroke="midnightblue" points="2537.13,-85.7982 2545.6,-79.4267 2535.01,-79.1287 2537.13,-85.7982"/>
</g>
<!-- Node35&#45;&gt;Node11 -->
<g id="edge93" class="edge"><title>Node35&#45;&gt;Node11</title>
<path fill="none" stroke="midnightblue" d="M846.344,-416.261C818.3,-410.308 786.224,-399.1 764,-378 697.866,-315.211 711.56,-270.161 714,-179 714.667,-154.084 710.868,-147.158 717,-123 719.942,-111.408 725.611,-99.2773 730.701,-89.811"/>
<polygon fill="midnightblue" stroke="midnightblue" points="733.782,-91.4727 735.657,-81.045 727.689,-88.0278 733.782,-91.4727"/>
</g>
<!-- Node35&#45;&gt;Node15 -->
<g id="edge88" class="edge"><title>Node35&#45;&gt;Node15</title>
<path fill="none" stroke="midnightblue" d="M936.74,-414.444C969.944,-405.201 1022.99,-390.436 1059.56,-380.257"/>
<polygon fill="midnightblue" stroke="midnightblue" points="1060.71,-383.57 1069.4,-377.516 1058.83,-376.826 1060.71,-383.57"/>
</g>
<!-- Node35&#45;&gt;Node16 -->
<g id="edge86" class="edge"><title>Node35&#45;&gt;Node16</title>
<path fill="none" stroke="midnightblue" d="M854.147,-414.429C830.055,-408.042 802.675,-396.997 784,-378 743.402,-336.703 750.692,-312.094 741,-255 739.512,-246.236 735.701,-242.136 741,-235 758.582,-211.324 788.251,-199.656 816.507,-194.061"/>
<polygon fill="midnightblue" stroke="midnightblue" points="817.174,-197.498 826.421,-192.326 815.967,-190.603 817.174,-197.498"/>
</g>
<!-- Node35&#45;&gt;Node18 -->
<g id="edge87" class="edge"><title>Node35&#45;&gt;Node18</title>
<path fill="none" stroke="midnightblue" d="M965.713,-420.154C1040.19,-415.618 1170.99,-404.391 1280,-378 1333.05,-365.157 1391.58,-341.989 1429.46,-325.727"/>
<polygon fill="midnightblue" stroke="midnightblue" points="1431.33,-328.735 1439.11,-321.545 1428.54,-322.313 1431.33,-328.735"/>
</g>
<!-- Node35&#45;&gt;Node22 -->
<g id="edge90" class="edge"><title>Node35&#45;&gt;Node22</title>
<path fill="none" stroke="midnightblue" d="M901.46,-414.212C890.34,-391.327 864.64,-329.026 893,-291 926.543,-246.024 961.698,-275.311 1014,-255 1053.28,-239.745 1096.86,-217.568 1123.34,-203.466"/>
<polygon fill="midnightblue" stroke="midnightblue" points="1125.13,-206.478 1132.29,-198.664 1121.82,-200.311 1125.13,-206.478"/>
</g>
<!-- Node35&#45;&gt;Node23 -->
<g id="edge92" class="edge"><title>Node35&#45;&gt;Node23</title>
<path fill="none" stroke="midnightblue" d="M852.26,-414.44C802.358,-405.841 732.231,-391.903 708,-378 631.108,-333.881 567.744,-245.323 543.08,-207.633"/>
<polygon fill="midnightblue" stroke="midnightblue" points="545.764,-205.335 537.413,-198.815 539.875,-209.12 545.764,-205.335"/>
</g>
<!-- Node35&#45;&gt;Node31 -->
<g id="edge91" class="edge"><title>Node35&#45;&gt;Node31</title>
<path fill="none" stroke="midnightblue" d="M908.631,-414.319C914.281,-395.673 927.684,-351.443 935.354,-326.132"/>
<polygon fill="midnightblue" stroke="midnightblue" points="938.788,-326.867 938.339,-316.282 932.089,-324.837 938.788,-326.867"/>
</g>
<!-- Node36&#45;&gt;Node10 -->
<g id="edge100" class="edge"><title>Node36&#45;&gt;Node10</title>
<path fill="none" stroke="midnightblue" d="M2100.02,-470.496C2153.66,-428.844 2310.01,-307.592 2334,-291 2358.95,-273.74 2368.14,-273.746 2392,-255 2447.85,-211.115 2457.18,-194.591 2506,-143 2523.04,-124.988 2541.73,-103.485 2554.08,-89.0021"/>
<polygon fill="midnightblue" stroke="midnightblue" points="2556.76,-91.2542 2560.56,-81.3655 2551.42,-86.7241 2556.76,-91.2542"/>
</g>
<!-- Node36&#45;&gt;Node13 -->
<g id="edge97" class="edge"><title>Node36&#45;&gt;Node13</title>
<path fill="none" stroke="midnightblue" d="M2093.91,-470.295C2128.76,-428.74 2230.4,-307.533 2267.89,-262.822"/>
<polygon fill="midnightblue" stroke="midnightblue" points="2270.75,-264.857 2274.5,-254.946 2265.39,-260.359 2270.75,-264.857"/>
</g>
<!-- Node36&#45;&gt;Node27 -->
<g id="edge101" class="edge"><title>Node36&#45;&gt;Node27</title>
<path fill="none" stroke="midnightblue" d="M2060.59,-470.471C1996.24,-428.31 1805.03,-303.027 1739.97,-260.392"/>
<polygon fill="midnightblue" stroke="midnightblue" points="1741.59,-257.274 1731.31,-254.721 1737.76,-263.13 1741.59,-257.274"/>
</g>
<!-- Node36&#45;&gt;Node34 -->
<g id="edge98" class="edge"><title>Node36&#45;&gt;Node34</title>
<path fill="none" stroke="midnightblue" d="M2026.25,-470.626C1865.12,-430.683 1400.5,-316.64 1246,-291 1112.37,-268.824 954.085,-255.897 867.851,-249.965"/>
<polygon fill="midnightblue" stroke="midnightblue" points="867.913,-246.461 857.699,-249.276 867.439,-253.445 867.913,-246.461"/>
</g>
<!-- Node36&#45;&gt;Node35 -->
<g id="edge99" class="edge"><title>Node36&#45;&gt;Node35</title>
<path fill="none" stroke="midnightblue" d="M2026.46,-481.69C1833.17,-471.911 1190.05,-439.371 975.983,-428.541"/>
<polygon fill="midnightblue" stroke="midnightblue" points="975.979,-425.036 965.815,-428.026 975.626,-432.027 975.979,-425.036"/>
</g>
<!-- Node37&#45;&gt;Node34 -->
<g id="edge106" class="edge"><title>Node37&#45;&gt;Node34</title>
<path fill="none" stroke="midnightblue" d="M505.454,-537.135C488.185,-508.291 438.927,-415.656 480,-358 539.035,-275.13 663.716,-252.994 740.037,-247.432"/>
<polygon fill="midnightblue" stroke="midnightblue" points="740.722,-250.895 750.473,-246.753 740.267,-243.91 740.722,-250.895"/>
</g>
<!-- Node38 -->
<g id="node38" class="node"><title>Node38</title>
<polygon fill="white" stroke="#bfbfbf" points="370.5,-476 370.5,-495 429.5,-495 429.5,-476 370.5,-476"/>
<text text-anchor="middle" x="400" y="-483" font-family="Helvetica,sans-Serif" font-size="10.00">iostream</text>
</g>
<!-- Node37&#45;&gt;Node38 -->
<g id="edge107" class="edge"><title>Node37&#45;&gt;Node38</title>
<path fill="none" stroke="midnightblue" d="M495.096,-537.475C476.715,-527.622 446.244,-511.288 424.755,-499.77"/>
<polygon fill="midnightblue" stroke="midnightblue" points="426.341,-496.649 415.874,-495.009 423.034,-502.818 426.341,-496.649"/>
</g>
<!-- Node39&#45;&gt;Node3 -->
<g id="edge117" class="edge"><title>Node39&#45;&gt;Node3</title>
<path fill="none" stroke="midnightblue" d="M2203.25,-649.292C2200.42,-620.927 2188.33,-529.594 2146,-470 2044.03,-326.431 1979.37,-323.278 1827,-235 1773.62,-204.075 1759.27,-196.087 1700,-179 1620.33,-156.035 1525.45,-144.402 1462.69,-138.786"/>
<polygon fill="midnightblue" stroke="midnightblue" points="1462.78,-135.281 1452.51,-137.903 1462.17,-142.255 1462.78,-135.281"/>
</g>
<!-- Node39&#45;&gt;Node10 -->
<g id="edge119" class="edge"><title>Node39&#45;&gt;Node10</title>
<path fill="none" stroke="midnightblue" d="M2244.03,-650.628C2316.5,-634.719 2462,-589.901 2462,-486.5 2462,-486.5 2462,-486.5 2462,-367 2462,-256.669 2544.62,-250.603 2569,-143 2572.88,-125.856 2572.1,-105.761 2570.66,-91.4205"/>
<polygon fill="midnightblue" stroke="midnightblue" points="2574.11,-90.8289 2569.44,-81.3203 2567.16,-91.6676 2574.11,-90.8289"/>
</g>
<!-- Node39&#45;&gt;Node14 -->
<g id="edge118" class="edge"><title>Node39&#45;&gt;Node14</title>
<path fill="none" stroke="midnightblue" d="M2163.84,-656.03C1997.33,-647.863 1360.71,-616.64 1162.36,-606.911"/>
<polygon fill="midnightblue" stroke="midnightblue" points="1162.3,-603.404 1152.14,-606.41 1161.96,-610.396 1162.3,-603.404"/>
</g>
<!-- Node40&#45;&gt;Node5 -->
<g id="edge125" class="edge"><title>Node40&#45;&gt;Node5</title>
<path fill="none" stroke="midnightblue" d="M706.07,-937.752C985.396,-935.943 2633.51,-923.981 2734,-893 2784.66,-877.382 2834,-881.008 2834,-828 2834,-828 2834,-828 2834,-770 2834,-454.56 2692.13,-369.88 2441,-179 2404.69,-151.399 2396.36,-142.239 2355,-123 2324.52,-108.82 2289.08,-97.4434 2258.71,-89.1045"/>
<polygon fill="midnightblue" stroke="midnightblue" points="2259.6,-85.7212 2249.04,-86.5041 2257.79,-92.4811 2259.6,-85.7212"/>
</g>
<!-- Node40&#45;&gt;Node10 -->
<g id="edge147" class="edge"><title>Node40&#45;&gt;Node10</title>
<path fill="none" stroke="midnightblue" d="M706.076,-937.565C954.826,-934.789 2283.05,-918.843 2462,-893 2669.21,-863.076 2834,-813.364 2834,-604 2834,-604 2834,-604 2834,-188 2834,-87.1962 2671.29,-73.4209 2600.38,-72.2036"/>
<polygon fill="midnightblue" stroke="midnightblue" points="2600.25,-68.7024 2590.22,-72.1054 2600.19,-75.702 2600.25,-68.7024"/>
</g>
<!-- Node40&#45;&gt;Node11 -->
<g id="edge152" class="edge"><title>Node40&#45;&gt;Node11</title>
<path fill="none" stroke="midnightblue" d="M625.962,-935.927C544.209,-931.224 360.998,-918.154 304,-893 263.337,-875.055 228,-872.447 228,-828 228,-828 228,-828 228,-423 228,-188.148 599.074,-99.2458 710.029,-77.9123"/>
<polygon fill="midnightblue" stroke="midnightblue" points="710.749,-81.3384 719.933,-76.0561 709.46,-74.4582 710.749,-81.3384"/>
</g>
<!-- Node40&#45;&gt;Node13 -->
<g id="edge126" class="edge"><title>Node40&#45;&gt;Node13</title>
<path fill="none" stroke="midnightblue" d="M706.284,-936.732C762.765,-934.96 868.706,-931.664 959,-929 1146.42,-923.471 2489.63,-943.425 2644,-837 2690.67,-804.827 2691.01,-779.929 2705,-725 2707.19,-716.386 2705.65,-713.865 2705,-705 2699.88,-634.664 2682,-618.523 2682,-548 2682,-548 2682,-548 2682,-484.5 2682,-334.643 2472.32,-276.762 2356.58,-256.228"/>
<polygon fill="midnightblue" stroke="midnightblue" points="2357.16,-252.776 2346.71,-254.526 2355.97,-259.674 2357.16,-252.776"/>
</g>
<!-- Node40&#45;&gt;Node14 -->
<g id="edge122" class="edge"><title>Node40&#45;&gt;Node14</title>
<path fill="none" stroke="midnightblue" d="M671.354,-929.277C695.949,-889.971 802.544,-727.822 934,-649 967.393,-628.978 1009.74,-617.723 1043.68,-611.476"/>
<polygon fill="midnightblue" stroke="midnightblue" points="1044.68,-614.856 1053.93,-609.694 1043.48,-607.96 1044.68,-614.856"/>
</g>
<!-- Node40&#45;&gt;Node23 -->
<g id="edge149" class="edge"><title>Node40&#45;&gt;Node23</title>
<path fill="none" stroke="midnightblue" d="M625.815,-935.513C524.381,-928.142 266,-902.093 266,-828 266,-828 266,-828 266,-484.5 266,-342.987 437.236,-238.973 504.93,-203.383"/>
<polygon fill="midnightblue" stroke="midnightblue" points="506.853,-206.329 514.134,-198.632 503.643,-200.109 506.853,-206.329"/>
</g>
<!-- Node40&#45;&gt;Node29 -->
<g id="edge151" class="edge"><title>Node40&#45;&gt;Node29</title>
<path fill="none" stroke="midnightblue" d="M625.866,-937.54C529.195,-935.873 286.108,-928.199 214,-893 178.123,-875.487 152,-867.923 152,-828 152,-828 152,-828 152,-367 152,-330.081 162.462,-287.922 169.274,-264.385"/>
<polygon fill="midnightblue" stroke="midnightblue" points="172.659,-265.282 172.18,-254.698 165.954,-263.27 172.659,-265.282"/>
</g>
<!-- Node40&#45;&gt;Node34 -->
<g id="edge124" class="edge"><title>Node40&#45;&gt;Node34</title>
<path fill="none" stroke="midnightblue" d="M625.77,-938.501C576.626,-937.352 492.566,-929.554 432,-893 400.326,-873.883 380,-864.996 380,-828 380,-828 380,-828 380,-714 380,-605.227 323.497,-572.103 361,-470 396.984,-372.031 421.918,-341.96 513,-291 550.922,-269.783 666.809,-256.9 740.387,-250.64"/>
<polygon fill="midnightblue" stroke="midnightblue" points="740.801,-254.117 750.476,-249.8 740.22,-247.141 740.801,-254.117"/>
</g>
<!-- Node40&#45;&gt;Node35 -->
<g id="edge123" class="edge"><title>Node40&#45;&gt;Node35</title>
<path fill="none" stroke="midnightblue" d="M660.716,-929.231C650.275,-911.043 628,-867.601 628,-828 628,-828 628,-828 628,-714 628,-598.414 629.964,-544.899 718,-470 750.616,-442.251 797.423,-430.985 836.173,-426.663"/>
<polygon fill="midnightblue" stroke="midnightblue" points="836.742,-430.125 846.352,-425.665 836.058,-423.158 836.742,-430.125"/>
</g>
<!-- Node40&#45;&gt;Node38 -->
<g id="edge150" class="edge"><title>Node40&#45;&gt;Node38</title>
<path fill="none" stroke="midnightblue" d="M625.879,-937.715C555.69,-934.872 418,-917.845 418,-828 418,-828 418,-828 418,-602 418,-567.452 410.04,-527.776 404.707,-505.07"/>
<polygon fill="midnightblue" stroke="midnightblue" points="408.05,-504.007 402.28,-495.122 401.25,-505.666 408.05,-504.007"/>
</g>
<!-- Node41 -->
<g id="node41" class="node"><title>Node41</title>
<g id="a_node41"><a xlink:href="ir_2expr_8h.html" target="_top" xlink:title="Base expr nodes in TVM. ">
<polygon fill="white" stroke="black" points="855.5,-761.5 855.5,-780.5 932.5,-780.5 932.5,-761.5 855.5,-761.5"/>
<text text-anchor="middle" x="894" y="-768.5" font-family="Helvetica,sans-Serif" font-size="10.00">tvm/ir/expr.h</text>
</a>
</g>
</g>
<!-- Node40&#45;&gt;Node41 -->
<g id="edge127" class="edge"><title>Node40&#45;&gt;Node41</title>
<path fill="none" stroke="midnightblue" d="M677.937,-929.309C714.874,-902.416 827.589,-820.352 873.856,-786.666"/>
<polygon fill="midnightblue" stroke="midnightblue" points="876.157,-789.321 882.181,-780.605 872.037,-783.662 876.157,-789.321"/>
</g>
<!-- Node40&#45;&gt;Node42 -->
<g id="edge148" class="edge"><title>Node40&#45;&gt;Node42</title>
<path fill="none" stroke="midnightblue" d="M706.339,-937.165C978.662,-931.377 2540.03,-895.699 2620,-837 2652.73,-812.979 2661.67,-762.378 2664.1,-734.833"/>
<polygon fill="midnightblue" stroke="midnightblue" points="2667.61,-734.798 2664.8,-724.585 2660.63,-734.325 2667.61,-734.798"/>
</g>
<!-- Node43 -->
<g id="node43" class="node"><title>Node43</title>
<g id="a_node43"><a xlink:href="var_8h.html" target="_top" xlink:title="Variables in the TIR. ">
<polygon fill="white" stroke="black" points="931,-817.5 931,-836.5 1005,-836.5 1005,-817.5 931,-817.5"/>
<text text-anchor="middle" x="968" y="-824.5" font-family="Helvetica,sans-Serif" font-size="10.00">tvm/tir/var.h</text>
</a>
</g>
</g>
<!-- Node40&#45;&gt;Node43 -->
<g id="edge137" class="edge"><title>Node40&#45;&gt;Node43</title>
<path fill="none" stroke="midnightblue" d="M706.197,-936.539C774.786,-933.252 910.471,-923.041 946,-893 959.484,-881.599 964.729,-861.611 966.755,-846.801"/>
<polygon fill="midnightblue" stroke="midnightblue" points="970.251,-847.011 967.76,-836.713 963.286,-846.316 970.251,-847.011"/>
</g>
<!-- Node44 -->
<g id="node44" class="node"><title>Node44</title>
<g id="a_node44"><a xlink:href="buffer_8h.html" target="_top" xlink:title="Symbolic n&#45;dimensional array, to represent a memory buffer. ">
<polygon fill="white" stroke="black" points="850.5,-873.5 850.5,-892.5 937.5,-892.5 937.5,-873.5 850.5,-873.5"/>
<text text-anchor="middle" x="894" y="-880.5" font-family="Helvetica,sans-Serif" font-size="10.00">tvm/tir/buffer.h</text>
</a>
</g>
</g>
<!-- Node40&#45;&gt;Node44 -->
<g id="edge142" class="edge"><title>Node40&#45;&gt;Node44</title>
<path fill="none" stroke="midnightblue" d="M702.127,-929.444C741.651,-920.083 805.097,-905.056 848.113,-894.868"/>
<polygon fill="midnightblue" stroke="midnightblue" points="849.118,-898.227 858.042,-892.516 847.504,-891.415 849.118,-898.227"/>
</g>
<!-- Node41&#45;&gt;Node2 -->
<g id="edge132" class="edge"><title>Node41&#45;&gt;Node2</title>
<path fill="none" stroke="midnightblue" d="M932.769,-768.485C1128.78,-760.826 2009.86,-726.399 2227.35,-717.901"/>
<polygon fill="midnightblue" stroke="midnightblue" points="2227.64,-721.392 2237.49,-717.505 2227.36,-714.398 2227.64,-721.392"/>
</g>
<!-- Node41&#45;&gt;Node3 -->
<g id="edge128" class="edge"><title>Node41&#45;&gt;Node3</title>
<path fill="none" stroke="midnightblue" d="M885.818,-761.463C878.138,-752.934 866.966,-739.096 861,-725 841.32,-678.504 846.939,-663.247 842,-613 827.913,-469.688 782.448,-398.734 878,-291 916.652,-247.42 1059.36,-196.253 1115,-179 1184.96,-157.306 1268.2,-145.611 1325.45,-139.63"/>
<polygon fill="midnightblue" stroke="midnightblue" points="1325.87,-143.105 1335.47,-138.614 1325.17,-136.141 1325.87,-143.105"/>
</g>
<!-- Node41&#45;&gt;Node9 -->
<g id="edge136" class="edge"><title>Node41&#45;&gt;Node9</title>
<path fill="none" stroke="midnightblue" d="M855.288,-766.904C724.029,-755.894 304,-716.266 304,-660 304,-660 304,-660 304,-484.5 304,-373.248 228,-357.252 228,-246 228,-246 228,-246 228,-188 228,-113.344 331.421,-86.5672 392.76,-77.2514"/>
<polygon fill="midnightblue" stroke="midnightblue" points="393.547,-80.6749 402.955,-75.804 392.563,-73.7444 393.547,-80.6749"/>
</g>
<!-- Node41&#45;&gt;Node10 -->
<g id="edge133" class="edge"><title>Node41&#45;&gt;Node10</title>
<path fill="none" stroke="midnightblue" d="M932.788,-769.871C1132.18,-769.04 2043.25,-763.184 2323,-725 2398.53,-714.69 2644,-680.233 2644,-604 2644,-604 2644,-604 2644,-484.5 2644,-398.888 2720,-393.112 2720,-307.5 2720,-307.5 2720,-307.5 2720,-188 2720,-128.195 2644.48,-95.3149 2599.91,-81.1157"/>
<polygon fill="midnightblue" stroke="midnightblue" points="2600.69,-77.6954 2590.1,-78.1337 2598.65,-84.3924 2600.69,-77.6954"/>
</g>
<!-- Node41&#45;&gt;Node14 -->
<g id="edge129" class="edge"><title>Node41&#45;&gt;Node14</title>
<path fill="none" stroke="midnightblue" d="M895.985,-761.206C901.461,-738.97 918.903,-680.068 956,-649 980.619,-628.383 1014.57,-617.205 1043.64,-611.148"/>
<polygon fill="midnightblue" stroke="midnightblue" points="1044.53,-614.54 1053.69,-609.212 1043.21,-607.666 1044.53,-614.54"/>
</g>
<!-- Node41&#45;&gt;Node29 -->
<g id="edge135" class="edge"><title>Node41&#45;&gt;Node29</title>
<path fill="none" stroke="midnightblue" d="M860.518,-761.479C720.611,-724.91 190,-576.252 190,-425 190,-425 190,-425 190,-367 190,-330.618 183.239,-288.547 178.795,-264.825"/>
<polygon fill="midnightblue" stroke="midnightblue" points="182.182,-263.908 176.839,-254.76 175.311,-265.243 182.182,-263.908"/>
</g>
<!-- Node41&#45;&gt;Node35 -->
<g id="edge130" class="edge"><title>Node41&#45;&gt;Node35</title>
<path fill="none" stroke="midnightblue" d="M888.716,-761.231C878.275,-743.043 856,-699.601 856,-660 856,-660 856,-660 856,-546 856,-506.422 879.132,-464.704 893.928,-442.068"/>
<polygon fill="midnightblue" stroke="midnightblue" points="896.956,-443.839 899.667,-433.597 891.161,-439.913 896.956,-443.839"/>
</g>
<!-- Node41&#45;&gt;Node39 -->
<g id="edge131" class="edge"><title>Node41&#45;&gt;Node39</title>
<path fill="none" stroke="midnightblue" d="M932.85,-766.738C1121.5,-750.897 1941.53,-682.039 2153.72,-664.222"/>
<polygon fill="midnightblue" stroke="midnightblue" points="2154.27,-667.688 2163.94,-663.364 2153.69,-660.713 2154.27,-667.688"/>
</g>
<!-- Node41&#45;&gt;Node42 -->
<g id="edge134" class="edge"><title>Node41&#45;&gt;Node42</title>
<path fill="none" stroke="midnightblue" d="M932.7,-769.616C1114.33,-767.673 1900.42,-757.693 2544,-725 2570.54,-723.652 2600.32,-721.446 2623.69,-719.556"/>
<polygon fill="midnightblue" stroke="midnightblue" points="2624.26,-723.021 2633.94,-718.714 2623.69,-716.044 2624.26,-723.021"/>
</g>
<!-- Node43&#45;&gt;Node10 -->
<g id="edge141" class="edge"><title>Node43&#45;&gt;Node10</title>
<path fill="none" stroke="midnightblue" d="M1005.4,-826.382C1147.25,-827.432 1665.49,-827.647 2089,-781 2227.73,-765.719 2261.81,-755.532 2398,-725 2491.84,-703.963 2524.86,-719.014 2607,-669 2715.93,-602.674 2758,-552.531 2758,-425 2758,-425 2758,-425 2758,-188 2758,-115.077 2654.54,-86.8841 2600.31,-77.1152"/>
<polygon fill="midnightblue" stroke="midnightblue" points="2600.61,-73.6161 2590.17,-75.3992 2599.44,-80.5181 2600.61,-73.6161"/>
</g>
<!-- Node43&#45;&gt;Node13 -->
<g id="edge139" class="edge"><title>Node43&#45;&gt;Node13</title>
<path fill="none" stroke="midnightblue" d="M1005.17,-825.667C1196.2,-823.59 2068.34,-809.552 2323,-725 2448.28,-683.406 2500,-618.502 2500,-486.5 2500,-486.5 2500,-486.5 2500,-367 2500,-300.334 2421.1,-270.088 2358.23,-256.569"/>
<polygon fill="midnightblue" stroke="midnightblue" points="2358.79,-253.112 2348.3,-254.54 2357.39,-259.97 2358.79,-253.112"/>
</g>
<!-- Node43&#45;&gt;Node14 -->
<g id="edge138" class="edge"><title>Node43&#45;&gt;Node14</title>
<path fill="none" stroke="midnightblue" d="M973.292,-817.297C993.366,-784.286 1065.05,-666.404 1092.34,-621.522"/>
<polygon fill="midnightblue" stroke="midnightblue" points="1095.39,-623.247 1097.6,-612.884 1089.41,-619.609 1095.39,-623.247"/>
</g>
<!-- Node43&#45;&gt;Node41 -->
<g id="edge140" class="edge"><title>Node43&#45;&gt;Node41</title>
<path fill="none" stroke="midnightblue" d="M956.111,-817.324C944.85,-809.107 927.713,-796.602 914.291,-786.807"/>
<polygon fill="midnightblue" stroke="midnightblue" points="916.247,-783.901 906.106,-780.834 912.12,-789.556 916.247,-783.901"/>
</g>
<!-- Node44&#45;&gt;Node10 -->
<g id="edge146" class="edge"><title>Node44&#45;&gt;Node10</title>
<path fill="none" stroke="midnightblue" d="M937.756,-882.515C1222.1,-884.723 2796,-879.211 2796,-486.5 2796,-486.5 2796,-486.5 2796,-188 2796,-101.382 2663.43,-79.7038 2600.47,-74.2927"/>
<polygon fill="midnightblue" stroke="midnightblue" points="2600.52,-70.7862 2590.28,-73.5074 2599.98,-77.7655 2600.52,-70.7862"/>
</g>
<!-- Node44&#45;&gt;Node35 -->
<g id="edge143" class="edge"><title>Node44&#45;&gt;Node35</title>
<path fill="none" stroke="midnightblue" d="M868.376,-873.363C816.514,-854.076 704,-802.291 704,-716 704,-716 704,-716 704,-546 704,-480.788 782.435,-449.864 841.554,-435.817"/>
<polygon fill="midnightblue" stroke="midnightblue" points="842.62,-439.165 851.602,-433.545 841.076,-432.337 842.62,-439.165"/>
</g>
<!-- Node44&#45;&gt;Node41 -->
<g id="edge144" class="edge"><title>Node44&#45;&gt;Node41</title>
<path fill="none" stroke="midnightblue" d="M894,-873.368C894,-855.617 894,-814.666 894,-790.597"/>
<polygon fill="midnightblue" stroke="midnightblue" points="897.5,-790.591 894,-780.591 890.5,-790.591 897.5,-790.591"/>
</g>
<!-- Node44&#45;&gt;Node43 -->
<g id="edge145" class="edge"><title>Node44&#45;&gt;Node43</title>
<path fill="none" stroke="midnightblue" d="M905.889,-873.324C917.15,-865.107 934.287,-852.602 947.709,-842.807"/>
<polygon fill="midnightblue" stroke="midnightblue" points="949.88,-845.556 955.894,-836.834 945.753,-839.901 949.88,-845.556"/>
</g>
<!-- Node45&#45;&gt;Node9 -->
<g id="edge155" class="edge"><title>Node45&#45;&gt;Node9</title>
<path fill="none" stroke="midnightblue" d="M249.46,-988.855C200.165,-981.973 121.881,-968.355 100,-949 76.9342,-928.596 76,-914.795 76,-884 76,-884 76,-884 76,-602 76,-521.541 38,-505.459 38,-425 38,-425 38,-425 38,-188 38,-114.794 288.959,-85.0577 392.817,-75.8861"/>
<polygon fill="midnightblue" stroke="midnightblue" points="393.318,-79.3561 402.981,-75.013 392.719,-72.3818 393.318,-79.3561"/>
</g>
<!-- Node45&#45;&gt;Node10 -->
<g id="edge156" class="edge"><title>Node45&#45;&gt;Node10</title>
<path fill="none" stroke="midnightblue" d="M332.744,-993.784C639.803,-991.998 2543.69,-977.559 2784,-893 2829.87,-876.861 2872,-876.624 2872,-828 2872,-828 2872,-828 2872,-188 2872,-153.115 2857.11,-142.228 2828,-123 2790.9,-98.493 2661.48,-82.1937 2600.39,-75.6869"/>
<polygon fill="midnightblue" stroke="midnightblue" points="2600.47,-72.1763 2590.16,-74.6211 2599.75,-79.1386 2600.47,-72.1763"/>
</g>
<!-- Node45&#45;&gt;Node11 -->
<g id="edge158" class="edge"><title>Node45&#45;&gt;Node11</title>
<path fill="none" stroke="midnightblue" d="M249.053,-986.947C196.712,-975.469 114,-947.315 114,-884 114,-884 114,-884 114,-367 114,-306.737 104.255,-279.401 145,-235 253.142,-117.156 332.284,-163.557 487,-123 566.249,-102.226 661.369,-85.4398 709.615,-77.4896"/>
<polygon fill="midnightblue" stroke="midnightblue" points="710.424,-80.9039 719.73,-75.8394 709.297,-73.9952 710.424,-80.9039"/>
</g>
<!-- Node45&#45;&gt;Node22 -->
<g id="edge157" class="edge"><title>Node45&#45;&gt;Node22</title>
<path fill="none" stroke="midnightblue" d="M273.867,-985.409C245.051,-969.605 190,-933.001 190,-884 190,-884 190,-884 190,-826 190,-613.601 418.188,-688.48 585,-557 723.132,-448.125 729.346,-385.002 878,-291 955.924,-241.724 1061.51,-211.066 1114.6,-197.747"/>
<polygon fill="midnightblue" stroke="midnightblue" points="1115.62,-201.101 1124.49,-195.314 1113.95,-194.303 1115.62,-201.101"/>
</g>
<!-- Node45&#45;&gt;Node40 -->
<g id="edge154" class="edge"><title>Node45&#45;&gt;Node40</title>
<path fill="none" stroke="midnightblue" d="M332.564,-988.015C401.955,-978.022 541.135,-957.981 615.853,-947.221"/>
<polygon fill="midnightblue" stroke="midnightblue" points="616.556,-950.656 625.955,-945.767 615.558,-943.728 616.556,-950.656"/>
</g>
</g>
</svg>
