<?xml version="1.0" encoding="UTF-8" standalone="no"?>
<!DOCTYPE svg PUBLIC "-//W3C//DTD SVG 1.1//EN"
 "http://www.w3.org/Graphics/SVG/1.1/DTD/svg11.dtd">
<!-- Generated by graphviz version 2.38.0 (20140413.2041)
 -->
<!-- Title: include/tvm/tir/function.h Pages: 1 -->
<svg width="2115pt" height="486pt"
 viewBox="0.00 0.00 2114.50 486.00" xmlns="http://www.w3.org/2000/svg" xmlns:xlink="http://www.w3.org/1999/xlink">
<g id="graph0" class="graph" transform="scale(1 1) rotate(0) translate(4 482)">
<title>include/tvm/tir/function.h</title>
<polygon fill="white" stroke="none" points="-4,4 -4,-482 2110.5,-482 2110.5,4 -4,4"/>
<!-- Node1 -->
<g id="node1" class="node"><title>Node1</title>
<polygon fill="#bfbfbf" stroke="black" points="1616.5,-458.5 1616.5,-477.5 1751.5,-477.5 1751.5,-458.5 1616.5,-458.5"/>
<text text-anchor="middle" x="1684" y="-465.5" font-family="Helvetica,sans-Serif" font-size="10.00">include/tvm/tir/function.h</text>
</g>
<!-- Node2 -->
<g id="node2" class="node"><title>Node2</title>
<g id="a_node2"><a xlink:href="schedule__pass_8h.html" target="_top" xlink:title="Collection of Schedule pass functions. ">
<polygon fill="white" stroke="black" points="722.5,-391.5 722.5,-421.5 853.5,-421.5 853.5,-391.5 722.5,-391.5"/>
<text text-anchor="start" x="730.5" y="-409.5" font-family="Helvetica,sans-Serif" font-size="10.00">include/tvm/te/schedule</text>
<text text-anchor="middle" x="788" y="-398.5" font-family="Helvetica,sans-Serif" font-size="10.00">_pass.h</text>
</a>
</g>
</g>
<!-- Node1&#45;&gt;Node2 -->
<g id="edge1" class="edge"><title>Node1&#45;&gt;Node2</title>
<path fill="none" stroke="midnightblue" d="M1606.2,-461.833C1432.42,-450.293 1015.33,-422.596 853.62,-411.858"/>
<polygon fill="midnightblue" stroke="midnightblue" points="1606.08,-465.333 1616.29,-462.503 1606.54,-458.348 1606.08,-465.333"/>
</g>
<!-- Node19 -->
<g id="node19" class="node"><title>Node19</title>
<g id="a_node19"><a xlink:href="tir_2analysis_8h.html" target="_top" xlink:title="Analysis utilitie and passes for TIR. ">
<polygon fill="white" stroke="black" points="1532.5,-397 1532.5,-416 1667.5,-416 1667.5,-397 1532.5,-397"/>
<text text-anchor="middle" x="1600" y="-404" font-family="Helvetica,sans-Serif" font-size="10.00">include/tvm/tir/analysis.h</text>
</a>
</g>
</g>
<!-- Node1&#45;&gt;Node19 -->
<g id="edge21" class="edge"><title>Node1&#45;&gt;Node19</title>
<path fill="none" stroke="midnightblue" d="M1663.69,-452.613C1647.53,-441.169 1625.48,-425.546 1612.01,-416.009"/>
<polygon fill="midnightblue" stroke="midnightblue" points="1661.78,-455.551 1671.96,-458.475 1665.83,-449.839 1661.78,-455.551"/>
</g>
<!-- Node33 -->
<g id="node33" class="node"><title>Node33</title>
<g id="a_node33"><a xlink:href="ir__pass_8h.html" target="_top" xlink:title="Collection of IR pass functions. ">
<polygon fill="white" stroke="black" points="1722,-391.5 1722,-421.5 1816,-421.5 1816,-391.5 1722,-391.5"/>
<text text-anchor="start" x="1730" y="-409.5" font-family="Helvetica,sans-Serif" font-size="10.00">include/tvm/tir/ir</text>
<text text-anchor="middle" x="1769" y="-398.5" font-family="Helvetica,sans-Serif" font-size="10.00">_pass.h</text>
</a>
</g>
</g>
<!-- Node1&#45;&gt;Node33 -->
<g id="edge43" class="edge"><title>Node1&#45;&gt;Node33</title>
<path fill="none" stroke="midnightblue" d="M1704.37,-452.739C1717.88,-443.282 1735.53,-430.93 1748.97,-421.523"/>
<polygon fill="midnightblue" stroke="midnightblue" points="1702.36,-449.873 1696.18,-458.475 1706.38,-455.608 1702.36,-449.873"/>
</g>
<!-- Node35 -->
<g id="node35" class="node"><title>Node35</title>
<g id="a_node35"><a xlink:href="include_2tvm_2tir_2transform_8h.html" target="_top" xlink:title="TIR specific transformation passes. ">
<polygon fill="white" stroke="black" points="1834,-397 1834,-416 1978,-416 1978,-397 1834,-397"/>
<text text-anchor="middle" x="1906" y="-404" font-family="Helvetica,sans-Serif" font-size="10.00">include/tvm/tir/transform.h</text>
</a>
</g>
</g>
<!-- Node1&#45;&gt;Node35 -->
<g id="edge50" class="edge"><title>Node1&#45;&gt;Node35</title>
<path fill="none" stroke="midnightblue" d="M1725.7,-455.822C1768.83,-444.264 1835.21,-426.473 1874.25,-416.009"/>
<polygon fill="midnightblue" stroke="midnightblue" points="1724.56,-452.506 1715.81,-458.475 1726.37,-459.267 1724.56,-452.506"/>
</g>
<!-- Node3 -->
<g id="node3" class="node"><title>Node3</title>
<g id="a_node3"><a xlink:href="driver__api_8h.html" target="_top" xlink:title="Compiler driver APIs to drive the compilation. ">
<polygon fill="white" stroke="black" points="555,-324.5 555,-354.5 657,-354.5 657,-324.5 555,-324.5"/>
<text text-anchor="start" x="563" y="-342.5" font-family="Helvetica,sans-Serif" font-size="10.00">include/tvm/driver</text>
<text text-anchor="middle" x="606" y="-331.5" font-family="Helvetica,sans-Serif" font-size="10.00">/driver_api.h</text>
</a>
</g>
</g>
<!-- Node2&#45;&gt;Node3 -->
<g id="edge2" class="edge"><title>Node2&#45;&gt;Node3</title>
<path fill="none" stroke="midnightblue" d="M738.875,-387.955C709.557,-377.485 672.824,-364.366 645.414,-354.577"/>
<polygon fill="midnightblue" stroke="midnightblue" points="737.914,-391.329 748.509,-391.396 740.268,-384.736 737.914,-391.329"/>
</g>
<!-- Node4 -->
<g id="node4" class="node"><title>Node4</title>
<g id="a_node4"><a xlink:href="cuda_2dense_8h.html" target="_top" xlink:title="CUDA schedule for dense operation. ">
<polygon fill="white" stroke="black" points="807.5,-190.5 807.5,-220.5 926.5,-220.5 926.5,-190.5 807.5,-190.5"/>
<text text-anchor="start" x="815.5" y="-208.5" font-family="Helvetica,sans-Serif" font-size="10.00">topi/include/topi/cuda</text>
<text text-anchor="middle" x="867" y="-197.5" font-family="Helvetica,sans-Serif" font-size="10.00">/dense.h</text>
</a>
</g>
</g>
<!-- Node2&#45;&gt;Node4 -->
<g id="edge3" class="edge"><title>Node2&#45;&gt;Node4</title>
<path fill="none" stroke="midnightblue" d="M809.822,-383.67C817.33,-375.251 825.278,-365.198 831,-355 856.183,-310.118 863.872,-247.98 866.119,-220.514"/>
<polygon fill="midnightblue" stroke="midnightblue" points="807.079,-381.481 802.845,-391.193 812.211,-386.241 807.079,-381.481"/>
</g>
<!-- Node6 -->
<g id="node6" class="node"><title>Node6</title>
<g id="a_node6"><a xlink:href="cuda_2injective_8h.html" target="_top" xlink:title="CUDA schedule for injective operations. ">
<polygon fill="white" stroke="black" points="901.5,-324.5 901.5,-354.5 1020.5,-354.5 1020.5,-324.5 901.5,-324.5"/>
<text text-anchor="start" x="909.5" y="-342.5" font-family="Helvetica,sans-Serif" font-size="10.00">topi/include/topi/cuda</text>
<text text-anchor="middle" x="961" y="-331.5" font-family="Helvetica,sans-Serif" font-size="10.00">/injective.h</text>
</a>
</g>
</g>
<!-- Node2&#45;&gt;Node6 -->
<g id="edge5" class="edge"><title>Node2&#45;&gt;Node6</title>
<path fill="none" stroke="midnightblue" d="M835.06,-387.819C862.867,-377.371 897.594,-364.323 923.535,-354.577"/>
<polygon fill="midnightblue" stroke="midnightblue" points="833.668,-384.602 825.538,-391.396 836.131,-391.155 833.668,-384.602"/>
</g>
<!-- Node8 -->
<g id="node8" class="node"><title>Node8</title>
<g id="a_node8"><a xlink:href="cuda_2normalization_8h.html" target="_top" xlink:title="CUDA schedule for LRN and l2 normalization operations. ">
<polygon fill="white" stroke="black" points="1038.5,-324.5 1038.5,-354.5 1157.5,-354.5 1157.5,-324.5 1038.5,-324.5"/>
<text text-anchor="start" x="1046.5" y="-342.5" font-family="Helvetica,sans-Serif" font-size="10.00">topi/include/topi/cuda</text>
<text text-anchor="middle" x="1098" y="-331.5" font-family="Helvetica,sans-Serif" font-size="10.00">/normalization.h</text>
</a>
</g>
</g>
<!-- Node2&#45;&gt;Node8 -->
<g id="edge7" class="edge"><title>Node2&#45;&gt;Node8</title>
<path fill="none" stroke="midnightblue" d="M863.619,-389.666C911.107,-379.72 973.633,-366.618 1029,-355 1031.99,-354.372 1035.06,-353.728 1038.16,-353.077"/>
<polygon fill="midnightblue" stroke="midnightblue" points="862.792,-386.263 853.722,-391.739 864.227,-393.115 862.792,-386.263"/>
</g>
<!-- Node9 -->
<g id="node9" class="node"><title>Node9</title>
<g id="a_node9"><a xlink:href="cuda_2pooling_8h.html" target="_top" xlink:title="CUDA schedule for pooling operations. ">
<polygon fill="white" stroke="black" points="1175.5,-324.5 1175.5,-354.5 1294.5,-354.5 1294.5,-324.5 1175.5,-324.5"/>
<text text-anchor="start" x="1183.5" y="-342.5" font-family="Helvetica,sans-Serif" font-size="10.00">topi/include/topi/cuda</text>
<text text-anchor="middle" x="1235" y="-331.5" font-family="Helvetica,sans-Serif" font-size="10.00">/pooling.h</text>
</a>
</g>
</g>
<!-- Node2&#45;&gt;Node9 -->
<g id="edge8" class="edge"><title>Node2&#45;&gt;Node9</title>
<path fill="none" stroke="midnightblue" d="M863.807,-397.052C940.306,-388.132 1061.71,-372.899 1166,-355 1169.02,-354.482 1172.1,-353.928 1175.21,-353.348"/>
<polygon fill="midnightblue" stroke="midnightblue" points="863.311,-393.586 853.781,-398.215 864.117,-400.539 863.311,-393.586"/>
</g>
<!-- Node11 -->
<g id="node11" class="node"><title>Node11</title>
<g id="a_node11"><a xlink:href="cuda_2reduction_8h.html" target="_top" xlink:title="CUDA schedule for reduction operations. ">
<polygon fill="white" stroke="black" points="0.5,-324.5 0.5,-354.5 119.5,-354.5 119.5,-324.5 0.5,-324.5"/>
<text text-anchor="start" x="8.5" y="-342.5" font-family="Helvetica,sans-Serif" font-size="10.00">topi/include/topi/cuda</text>
<text text-anchor="middle" x="60" y="-331.5" font-family="Helvetica,sans-Serif" font-size="10.00">/reduction.h</text>
</a>
</g>
</g>
<!-- Node2&#45;&gt;Node11 -->
<g id="edge10" class="edge"><title>Node2&#45;&gt;Node11</title>
<path fill="none" stroke="midnightblue" d="M712.026,-402.989C588.862,-398.178 338.2,-385.314 128,-355 125.252,-354.604 122.449,-354.162 119.623,-353.685"/>
<polygon fill="midnightblue" stroke="midnightblue" points="711.98,-406.489 722.107,-403.376 712.249,-399.495 711.98,-406.489"/>
</g>
<!-- Node13 -->
<g id="node13" class="node"><title>Node13</title>
<g id="a_node13"><a xlink:href="cuda_2softmax_8h.html" target="_top" xlink:title="topi/include/topi/cuda\l/softmax.h">
<polygon fill="white" stroke="black" points="137.5,-324.5 137.5,-354.5 256.5,-354.5 256.5,-324.5 137.5,-324.5"/>
<text text-anchor="start" x="145.5" y="-342.5" font-family="Helvetica,sans-Serif" font-size="10.00">topi/include/topi/cuda</text>
<text text-anchor="middle" x="197" y="-331.5" font-family="Helvetica,sans-Serif" font-size="10.00">/softmax.h</text>
</a>
</g>
</g>
<!-- Node2&#45;&gt;Node13 -->
<g id="edge12" class="edge"><title>Node2&#45;&gt;Node13</title>
<path fill="none" stroke="midnightblue" d="M712.268,-400.903C610.245,-394.091 423.195,-379.423 265,-355 262.256,-354.576 259.457,-354.112 256.633,-353.617"/>
<polygon fill="midnightblue" stroke="midnightblue" points="712.265,-404.41 722.474,-401.577 712.726,-397.425 712.265,-404.41"/>
</g>
<!-- Node15 -->
<g id="node15" class="node"><title>Node15</title>
<g id="a_node15"><a xlink:href="generic_2default_8h.html" target="_top" xlink:title="Generic default schedule. ">
<polygon fill="white" stroke="black" points="274.5,-324.5 274.5,-354.5 405.5,-354.5 405.5,-324.5 274.5,-324.5"/>
<text text-anchor="start" x="282.5" y="-342.5" font-family="Helvetica,sans-Serif" font-size="10.00">topi/include/topi/generic</text>
<text text-anchor="middle" x="340" y="-331.5" font-family="Helvetica,sans-Serif" font-size="10.00">/default.h</text>
</a>
</g>
</g>
<!-- Node2&#45;&gt;Node15 -->
<g id="edge14" class="edge"><title>Node2&#45;&gt;Node15</title>
<path fill="none" stroke="midnightblue" d="M711.904,-396.566C636.193,-387.363 516.794,-371.996 414,-355 411.288,-354.552 408.522,-354.079 405.731,-353.59"/>
<polygon fill="midnightblue" stroke="midnightblue" points="711.942,-400.097 722.29,-397.824 712.783,-393.147 711.942,-400.097"/>
</g>
<!-- Node16 -->
<g id="node16" class="node"><title>Node16</title>
<g id="a_node16"><a xlink:href="generic_2extern_8h.html" target="_top" xlink:title="Schedule for extern followed by injective ops. ">
<polygon fill="white" stroke="black" points="713.5,-257.5 713.5,-287.5 844.5,-287.5 844.5,-257.5 713.5,-257.5"/>
<text text-anchor="start" x="721.5" y="-275.5" font-family="Helvetica,sans-Serif" font-size="10.00">topi/include/topi/generic</text>
<text text-anchor="middle" x="779" y="-264.5" font-family="Helvetica,sans-Serif" font-size="10.00">/extern.h</text>
</a>
</g>
</g>
<!-- Node2&#45;&gt;Node16 -->
<g id="edge15" class="edge"><title>Node2&#45;&gt;Node16</title>
<path fill="none" stroke="midnightblue" d="M803.602,-382.567C812.737,-366.258 821.341,-343.819 815,-324 810.603,-310.258 800.946,-297.066 792.74,-287.613"/>
<polygon fill="midnightblue" stroke="midnightblue" points="800.445,-381.025 798.271,-391.394 806.437,-384.643 800.445,-381.025"/>
</g>
<!-- Node17 -->
<g id="node17" class="node"><title>Node17</title>
<g id="a_node17"><a xlink:href="generic_2injective_8h.html" target="_top" xlink:title="Generic schedule for injective operations. ">
<polygon fill="white" stroke="black" points="675.5,-324.5 675.5,-354.5 806.5,-354.5 806.5,-324.5 675.5,-324.5"/>
<text text-anchor="start" x="683.5" y="-342.5" font-family="Helvetica,sans-Serif" font-size="10.00">topi/include/topi/generic</text>
<text text-anchor="middle" x="741" y="-331.5" font-family="Helvetica,sans-Serif" font-size="10.00">/injective.h</text>
</a>
</g>
</g>
<!-- Node2&#45;&gt;Node17 -->
<g id="edge18" class="edge"><title>Node2&#45;&gt;Node17</title>
<path fill="none" stroke="midnightblue" d="M771.845,-383.157C764.991,-373.679 757.21,-362.919 751.178,-354.577"/>
<polygon fill="midnightblue" stroke="midnightblue" points="769.106,-385.343 777.802,-391.396 774.778,-381.242 769.106,-385.343"/>
</g>
<!-- Node18 -->
<g id="node18" class="node"><title>Node18</title>
<g id="a_node18"><a xlink:href="x86_2default_8h.html" target="_top" xlink:title="default x86 schedule ">
<polygon fill="white" stroke="black" points="423.5,-324.5 423.5,-354.5 536.5,-354.5 536.5,-324.5 423.5,-324.5"/>
<text text-anchor="start" x="431.5" y="-342.5" font-family="Helvetica,sans-Serif" font-size="10.00">topi/include/topi/x86</text>
<text text-anchor="middle" x="480" y="-331.5" font-family="Helvetica,sans-Serif" font-size="10.00">/default.h</text>
</a>
</g>
</g>
<!-- Node2&#45;&gt;Node18 -->
<g id="edge20" class="edge"><title>Node2&#45;&gt;Node18</title>
<path fill="none" stroke="midnightblue" d="M712.53,-389.964C664.768,-380.08 601.734,-366.937 546,-355 542.903,-354.337 539.725,-353.652 536.517,-352.958"/>
<polygon fill="midnightblue" stroke="midnightblue" points="711.98,-393.425 722.482,-392.022 713.398,-386.57 711.98,-393.425"/>
</g>
<!-- Node5 -->
<g id="node5" class="node"><title>Node5</title>
<g id="a_node5"><a xlink:href="rocm_2dense_8h.html" target="_top" xlink:title="rocm schedule for dense operation ">
<polygon fill="white" stroke="black" points="763,-123.5 763,-153.5 883,-153.5 883,-123.5 763,-123.5"/>
<text text-anchor="start" x="771" y="-141.5" font-family="Helvetica,sans-Serif" font-size="10.00">topi/include/topi/rocm</text>
<text text-anchor="middle" x="823" y="-130.5" font-family="Helvetica,sans-Serif" font-size="10.00">/dense.h</text>
</a>
</g>
</g>
<!-- Node4&#45;&gt;Node5 -->
<g id="edge4" class="edge"><title>Node4&#45;&gt;Node5</title>
<path fill="none" stroke="midnightblue" d="M851.679,-181.867C845.311,-172.459 838.118,-161.833 832.529,-153.577"/>
<polygon fill="midnightblue" stroke="midnightblue" points="848.949,-184.077 857.453,-190.396 854.745,-180.153 848.949,-184.077"/>
</g>
<!-- Node7 -->
<g id="node7" class="node"><title>Node7</title>
<g id="a_node7"><a xlink:href="rocm_2injective_8h.html" target="_top" xlink:title="rocm schedule for injective operations ">
<polygon fill="white" stroke="black" points="901,-257.5 901,-287.5 1021,-287.5 1021,-257.5 901,-257.5"/>
<text text-anchor="start" x="909" y="-275.5" font-family="Helvetica,sans-Serif" font-size="10.00">topi/include/topi/rocm</text>
<text text-anchor="middle" x="961" y="-264.5" font-family="Helvetica,sans-Serif" font-size="10.00">/injective.h</text>
</a>
</g>
</g>
<!-- Node6&#45;&gt;Node7 -->
<g id="edge6" class="edge"><title>Node6&#45;&gt;Node7</title>
<path fill="none" stroke="midnightblue" d="M961,-314.108C961,-305.154 961,-295.323 961,-287.577"/>
<polygon fill="midnightblue" stroke="midnightblue" points="957.5,-314.396 961,-324.396 964.5,-314.396 957.5,-314.396"/>
</g>
<!-- Node10 -->
<g id="node10" class="node"><title>Node10</title>
<g id="a_node10"><a xlink:href="rocm_2pooling_8h.html" target="_top" xlink:title="rocm schedule for pooling operations ">
<polygon fill="white" stroke="black" points="1107,-257.5 1107,-287.5 1227,-287.5 1227,-257.5 1107,-257.5"/>
<text text-anchor="start" x="1115" y="-275.5" font-family="Helvetica,sans-Serif" font-size="10.00">topi/include/topi/rocm</text>
<text text-anchor="middle" x="1167" y="-264.5" font-family="Helvetica,sans-Serif" font-size="10.00">/pooling.h</text>
</a>
</g>
</g>
<!-- Node9&#45;&gt;Node10 -->
<g id="edge9" class="edge"><title>Node9&#45;&gt;Node10</title>
<path fill="none" stroke="midnightblue" d="M1212.83,-317.311C1202.63,-307.561 1190.81,-296.259 1181.73,-287.577"/>
<polygon fill="midnightblue" stroke="midnightblue" points="1210.6,-320.016 1220.25,-324.396 1215.43,-314.956 1210.6,-320.016"/>
</g>
<!-- Node12 -->
<g id="node12" class="node"><title>Node12</title>
<g id="a_node12"><a xlink:href="rocm_2reduction_8h.html" target="_top" xlink:title="rocm schedule for reduction operations ">
<polygon fill="white" stroke="black" points="0,-257.5 0,-287.5 120,-287.5 120,-257.5 0,-257.5"/>
<text text-anchor="start" x="8" y="-275.5" font-family="Helvetica,sans-Serif" font-size="10.00">topi/include/topi/rocm</text>
<text text-anchor="middle" x="60" y="-264.5" font-family="Helvetica,sans-Serif" font-size="10.00">/reduction.h</text>
</a>
</g>
</g>
<!-- Node11&#45;&gt;Node12 -->
<g id="edge11" class="edge"><title>Node11&#45;&gt;Node12</title>
<path fill="none" stroke="midnightblue" d="M60,-314.108C60,-305.154 60,-295.323 60,-287.577"/>
<polygon fill="midnightblue" stroke="midnightblue" points="56.5001,-314.396 60,-324.396 63.5001,-314.396 56.5001,-314.396"/>
</g>
<!-- Node14 -->
<g id="node14" class="node"><title>Node14</title>
<g id="a_node14"><a xlink:href="rocm_2softmax_8h.html" target="_top" xlink:title="topi/include/topi/rocm\l/softmax.h">
<polygon fill="white" stroke="black" points="138,-257.5 138,-287.5 258,-287.5 258,-257.5 138,-257.5"/>
<text text-anchor="start" x="146" y="-275.5" font-family="Helvetica,sans-Serif" font-size="10.00">topi/include/topi/rocm</text>
<text text-anchor="middle" x="198" y="-264.5" font-family="Helvetica,sans-Serif" font-size="10.00">/softmax.h</text>
</a>
</g>
</g>
<!-- Node13&#45;&gt;Node14 -->
<g id="edge13" class="edge"><title>Node13&#45;&gt;Node14</title>
<path fill="none" stroke="midnightblue" d="M197.375,-314.108C197.513,-305.154 197.664,-295.323 197.783,-287.577"/>
<polygon fill="midnightblue" stroke="midnightblue" points="193.871,-314.343 197.217,-324.396 200.87,-314.451 193.871,-314.343"/>
</g>
<!-- Node16&#45;&gt;Node4 -->
<g id="edge16" class="edge"><title>Node16&#45;&gt;Node4</title>
<path fill="none" stroke="midnightblue" d="M806.143,-251.451C819.681,-241.452 835.727,-229.6 847.943,-220.577"/>
<polygon fill="midnightblue" stroke="midnightblue" points="804.059,-248.639 798.095,-257.396 808.218,-254.27 804.059,-248.639"/>
</g>
<!-- Node16&#45;&gt;Node5 -->
<g id="edge17" class="edge"><title>Node16&#45;&gt;Node5</title>
<path fill="none" stroke="midnightblue" d="M783.088,-247.478C786.253,-231.021 791.241,-208.847 798,-190 802.558,-177.292 809.466,-163.61 814.867,-153.697"/>
<polygon fill="midnightblue" stroke="midnightblue" points="779.634,-246.907 781.271,-257.374 786.519,-248.171 779.634,-246.907"/>
</g>
<!-- Node17&#45;&gt;Node16 -->
<g id="edge19" class="edge"><title>Node17&#45;&gt;Node16</title>
<path fill="none" stroke="midnightblue" d="M754.402,-315.576C759.859,-306.241 765.993,-295.748 770.771,-287.577"/>
<polygon fill="midnightblue" stroke="midnightblue" points="751.271,-313.997 749.245,-324.396 757.314,-317.529 751.271,-313.997"/>
</g>
<!-- Node20 -->
<g id="node20" class="node"><title>Node20</title>
<g id="a_node20"><a xlink:href="constant__utils_8h.html" target="_top" xlink:title="Utility functions for handling constants in TVM expressions. ">
<polygon fill="white" stroke="black" points="1504,-324.5 1504,-354.5 1626,-354.5 1626,-324.5 1504,-324.5"/>
<text text-anchor="start" x="1512" y="-342.5" font-family="Helvetica,sans-Serif" font-size="10.00">topi/include/topi/detail</text>
<text text-anchor="middle" x="1565" y="-331.5" font-family="Helvetica,sans-Serif" font-size="10.00">/constant_utils.h</text>
</a>
</g>
</g>
<!-- Node19&#45;&gt;Node20 -->
<g id="edge22" class="edge"><title>Node19&#45;&gt;Node20</title>
<path fill="none" stroke="midnightblue" d="M1590.42,-387.713C1584.81,-377.287 1577.82,-364.301 1572.59,-354.589"/>
<polygon fill="midnightblue" stroke="midnightblue" points="1587.46,-389.588 1595.28,-396.734 1593.62,-386.27 1587.46,-389.588"/>
</g>
<!-- Node21 -->
<g id="node21" class="node"><title>Node21</title>
<g id="a_node21"><a xlink:href="broadcast_8h.html" target="_top" xlink:title="Broadcast op constructions. ">
<polygon fill="white" stroke="black" points="1617,-196 1617,-215 1769,-215 1769,-196 1617,-196"/>
<text text-anchor="middle" x="1693" y="-203" font-family="Helvetica,sans-Serif" font-size="10.00">topi/include/topi/broadcast.h</text>
</a>
</g>
</g>
<!-- Node20&#45;&gt;Node21 -->
<g id="edge23" class="edge"><title>Node20&#45;&gt;Node21</title>
<path fill="none" stroke="midnightblue" d="M1586.65,-317.372C1595.78,-308.386 1606.48,-297.749 1616,-288 1641.57,-261.822 1671.11,-230.139 1685,-215.155"/>
<polygon fill="midnightblue" stroke="midnightblue" points="1584.1,-314.974 1579.42,-324.477 1589,-319.97 1584.1,-314.974"/>
</g>
<!-- Node23 -->
<g id="node23" class="node"><title>Node23</title>
<g id="a_node23"><a xlink:href="reduction_8h.html" target="_top" xlink:title="Reduction op constructors. ">
<polygon fill="white" stroke="black" points="1578.5,-67.5 1578.5,-86.5 1727.5,-86.5 1727.5,-67.5 1578.5,-67.5"/>
<text text-anchor="middle" x="1653" y="-74.5" font-family="Helvetica,sans-Serif" font-size="10.00">topi/include/topi/reduction.h</text>
</a>
</g>
</g>
<!-- Node20&#45;&gt;Node23 -->
<g id="edge37" class="edge"><title>Node20&#45;&gt;Node23</title>
<path fill="none" stroke="midnightblue" d="M1514.25,-319.96C1497.9,-312.071 1480.74,-301.512 1468,-288 1436.76,-254.855 1418,-230.927 1438,-190 1468.67,-127.227 1549.97,-98.7699 1603.34,-86.5196"/>
<polygon fill="midnightblue" stroke="midnightblue" points="1513.19,-323.325 1523.74,-324.299 1516.1,-316.958 1513.19,-323.325"/>
</g>
<!-- Node26 -->
<g id="node26" class="node"><title>Node26</title>
<g id="a_node26"><a xlink:href="reorg_8h.html" target="_top" xlink:title="Reorg op constructions. ">
<polygon fill="white" stroke="black" points="1424,-0.5 1424,-30.5 1546,-30.5 1546,-0.5 1424,-0.5"/>
<text text-anchor="start" x="1432" y="-18.5" font-family="Helvetica,sans-Serif" font-size="10.00">topi/include/topi/vision</text>
<text text-anchor="middle" x="1485" y="-7.5" font-family="Helvetica,sans-Serif" font-size="10.00">/reorg.h</text>
</a>
</g>
</g>
<!-- Node20&#45;&gt;Node26 -->
<g id="edge42" class="edge"><title>Node20&#45;&gt;Node26</title>
<path fill="none" stroke="midnightblue" d="M1500.56,-321.138C1447.52,-302.477 1381,-267.013 1381,-206.5 1381,-206.5 1381,-206.5 1381,-137.5 1381,-89.0248 1429.6,-50.281 1460.35,-30.6163"/>
<polygon fill="midnightblue" stroke="midnightblue" points="1499.7,-324.54 1510.29,-324.429 1501.94,-317.91 1499.7,-324.54"/>
</g>
<!-- Node28 -->
<g id="node28" class="node"><title>Node28</title>
<g id="a_node28"><a xlink:href="detail_2broadcast_8h.html" target="_top" xlink:title="Detail broadcast. ">
<polygon fill="white" stroke="black" points="1485,-257.5 1485,-287.5 1607,-287.5 1607,-257.5 1485,-257.5"/>
<text text-anchor="start" x="1493" y="-275.5" font-family="Helvetica,sans-Serif" font-size="10.00">topi/include/topi/detail</text>
<text text-anchor="middle" x="1546" y="-264.5" font-family="Helvetica,sans-Serif" font-size="10.00">/broadcast.h</text>
</a>
</g>
</g>
<!-- Node20&#45;&gt;Node28 -->
<g id="edge31" class="edge"><title>Node20&#45;&gt;Node28</title>
<path fill="none" stroke="midnightblue" d="M1558.04,-314.697C1555.38,-305.587 1552.43,-295.493 1550.11,-287.577"/>
<polygon fill="midnightblue" stroke="midnightblue" points="1554.71,-315.78 1560.88,-324.396 1561.43,-313.816 1554.71,-315.78"/>
</g>
<!-- Node29 -->
<g id="node29" class="node"><title>Node29</title>
<g id="a_node29"><a xlink:href="nn_2bnn_8h.html" target="_top" xlink:title="Binary op constructions. ">
<polygon fill="white" stroke="black" points="1663.5,-257.5 1663.5,-287.5 1770.5,-287.5 1770.5,-257.5 1663.5,-257.5"/>
<text text-anchor="start" x="1671.5" y="-275.5" font-family="Helvetica,sans-Serif" font-size="10.00">topi/include/topi/nn</text>
<text text-anchor="middle" x="1717" y="-264.5" font-family="Helvetica,sans-Serif" font-size="10.00">/bnn.h</text>
</a>
</g>
</g>
<!-- Node20&#45;&gt;Node29 -->
<g id="edge33" class="edge"><title>Node20&#45;&gt;Node29</title>
<path fill="none" stroke="midnightblue" d="M1607.31,-320.407C1631.58,-310.029 1661.59,-297.195 1684.08,-287.577"/>
<polygon fill="midnightblue" stroke="midnightblue" points="1605.8,-317.246 1597.98,-324.396 1608.55,-323.682 1605.8,-317.246"/>
</g>
<!-- Node30 -->
<g id="node30" class="node"><title>Node30</title>
<g id="a_node30"><a xlink:href="flatten_8h.html" target="_top" xlink:title="Softmax op constructions. ">
<polygon fill="white" stroke="black" points="1245.5,-257.5 1245.5,-287.5 1352.5,-287.5 1352.5,-257.5 1245.5,-257.5"/>
<text text-anchor="start" x="1253.5" y="-275.5" font-family="Helvetica,sans-Serif" font-size="10.00">topi/include/topi/nn</text>
<text text-anchor="middle" x="1299" y="-264.5" font-family="Helvetica,sans-Serif" font-size="10.00">/flatten.h</text>
</a>
</g>
</g>
<!-- Node20&#45;&gt;Node30 -->
<g id="edge34" class="edge"><title>Node20&#45;&gt;Node30</title>
<path fill="none" stroke="midnightblue" d="M1497.66,-322.044C1452.73,-311.066 1394.46,-296.827 1352.66,-286.613"/>
<polygon fill="midnightblue" stroke="midnightblue" points="1497.06,-325.502 1507.61,-324.476 1498.73,-318.702 1497.06,-325.502"/>
</g>
<!-- Node31 -->
<g id="node31" class="node"><title>Node31</title>
<g id="a_node31"><a xlink:href="topi_2include_2topi_2nn_8h.html" target="_top" xlink:title="NN op constructions. ">
<polygon fill="white" stroke="black" points="1827,-263 1827,-282 1943,-282 1943,-263 1827,-263"/>
<text text-anchor="middle" x="1885" y="-270" font-family="Helvetica,sans-Serif" font-size="10.00">topi/include/topi/nn.h</text>
</a>
</g>
</g>
<!-- Node20&#45;&gt;Node31 -->
<g id="edge35" class="edge"><title>Node20&#45;&gt;Node31</title>
<path fill="none" stroke="midnightblue" d="M1636.25,-324.027C1699.64,-311.152 1790.21,-292.755 1842.77,-282.077"/>
<polygon fill="midnightblue" stroke="midnightblue" points="1635.42,-320.624 1626.32,-326.044 1636.82,-327.484 1635.42,-320.624"/>
</g>
<!-- Node32 -->
<g id="node32" class="node"><title>Node32</title>
<g id="a_node32"><a xlink:href="topi_2include_2topi_2transform_8h.html" target="_top" xlink:title="Transform op constructors. ">
<polygon fill="white" stroke="black" points="1447,-196 1447,-215 1599,-215 1599,-196 1447,-196"/>
<text text-anchor="middle" x="1523" y="-203" font-family="Helvetica,sans-Serif" font-size="10.00">topi/include/topi/transform.h</text>
</a>
</g>
</g>
<!-- Node20&#45;&gt;Node32 -->
<g id="edge38" class="edge"><title>Node20&#45;&gt;Node32</title>
<path fill="none" stroke="midnightblue" d="M1511.52,-319.824C1497.5,-312.214 1484.07,-301.853 1476,-288 1460.55,-261.465 1493.14,-229.95 1511.54,-215.079"/>
<polygon fill="midnightblue" stroke="midnightblue" points="1510.26,-323.105 1520.77,-324.437 1513.39,-316.841 1510.26,-323.105"/>
</g>
<!-- Node22 -->
<g id="node22" class="node"><title>Node22</title>
<g id="a_node22"><a xlink:href="elemwise_8h.html" target="_top" xlink:title="Elementwise op constructions. ">
<polygon fill="white" stroke="black" points="1714.5,-129 1714.5,-148 1863.5,-148 1863.5,-129 1714.5,-129"/>
<text text-anchor="middle" x="1789" y="-136" font-family="Helvetica,sans-Serif" font-size="10.00">topi/include/topi/elemwise.h</text>
</a>
</g>
</g>
<!-- Node21&#45;&gt;Node22 -->
<g id="edge24" class="edge"><title>Node21&#45;&gt;Node22</title>
<path fill="none" stroke="midnightblue" d="M1714.28,-190.095C1733.27,-177.236 1760.45,-158.831 1776.26,-148.127"/>
<polygon fill="midnightblue" stroke="midnightblue" points="1712.27,-187.229 1705.95,-195.734 1716.19,-193.025 1712.27,-187.229"/>
</g>
<!-- Node21&#45;&gt;Node23 -->
<g id="edge30" class="edge"><title>Node21&#45;&gt;Node23</title>
<path fill="none" stroke="midnightblue" d="M1687.21,-186.175C1678.46,-158.53 1662.24,-107.218 1655.77,-86.7557"/>
<polygon fill="midnightblue" stroke="midnightblue" points="1683.9,-187.326 1690.25,-195.805 1690.57,-185.215 1683.9,-187.326"/>
</g>
<!-- Node27 -->
<g id="node27" class="node"><title>Node27</title>
<g id="a_node27"><a xlink:href="bias__add_8h.html" target="_top" xlink:title="bias_add op constructions ">
<polygon fill="white" stroke="black" points="1551.5,-123.5 1551.5,-153.5 1658.5,-153.5 1658.5,-123.5 1551.5,-123.5"/>
<text text-anchor="start" x="1559.5" y="-141.5" font-family="Helvetica,sans-Serif" font-size="10.00">topi/include/topi/nn</text>
<text text-anchor="middle" x="1605" y="-130.5" font-family="Helvetica,sans-Serif" font-size="10.00">/bias_add.h</text>
</a>
</g>
</g>
<!-- Node21&#45;&gt;Node27 -->
<g id="edge29" class="edge"><title>Node21&#45;&gt;Node27</title>
<path fill="none" stroke="midnightblue" d="M1672.75,-189.544C1658.11,-178.725 1638.44,-164.203 1624.07,-153.589"/>
<polygon fill="midnightblue" stroke="midnightblue" points="1671.01,-192.608 1681.13,-195.734 1675.17,-186.977 1671.01,-192.608"/>
</g>
<!-- Node22&#45;&gt;Node23 -->
<g id="edge25" class="edge"><title>Node22&#45;&gt;Node23</title>
<path fill="none" stroke="midnightblue" d="M1760.03,-124.827C1733.63,-113.276 1695.36,-96.5316 1672.45,-86.5091"/>
<polygon fill="midnightblue" stroke="midnightblue" points="1758.95,-128.173 1769.51,-128.975 1761.76,-121.76 1758.95,-128.173"/>
</g>
<!-- Node24 -->
<g id="node24" class="node"><title>Node24</title>
<g id="a_node24"><a xlink:href="nn_2pooling_8h.html" target="_top" xlink:title="Pooling op constructions. ">
<polygon fill="white" stroke="black" points="1837.5,-0.5 1837.5,-30.5 1944.5,-30.5 1944.5,-0.5 1837.5,-0.5"/>
<text text-anchor="start" x="1845.5" y="-18.5" font-family="Helvetica,sans-Serif" font-size="10.00">topi/include/topi/nn</text>
<text text-anchor="middle" x="1891" y="-7.5" font-family="Helvetica,sans-Serif" font-size="10.00">/pooling.h</text>
</a>
</g>
</g>
<!-- Node23&#45;&gt;Node24 -->
<g id="edge26" class="edge"><title>Node23&#45;&gt;Node24</title>
<path fill="none" stroke="midnightblue" d="M1696.99,-65.003C1736.57,-55.1079 1794.84,-40.5397 1837.19,-29.9533"/>
<polygon fill="midnightblue" stroke="midnightblue" points="1695.95,-61.6542 1687.1,-67.4751 1697.65,-68.4452 1695.95,-61.6542"/>
</g>
<!-- Node25 -->
<g id="node25" class="node"><title>Node25</title>
<g id="a_node25"><a xlink:href="nn_2softmax_8h.html" target="_top" xlink:title="Softmax op constructions. ">
<polygon fill="white" stroke="black" points="1599.5,-0.5 1599.5,-30.5 1706.5,-30.5 1706.5,-0.5 1599.5,-0.5"/>
<text text-anchor="start" x="1607.5" y="-18.5" font-family="Helvetica,sans-Serif" font-size="10.00">topi/include/topi/nn</text>
<text text-anchor="middle" x="1653" y="-7.5" font-family="Helvetica,sans-Serif" font-size="10.00">/softmax.h</text>
</a>
</g>
</g>
<!-- Node23&#45;&gt;Node25 -->
<g id="edge27" class="edge"><title>Node23&#45;&gt;Node25</title>
<path fill="none" stroke="midnightblue" d="M1653,-57.2349C1653,-48.5864 1653,-38.4969 1653,-30.523"/>
<polygon fill="midnightblue" stroke="midnightblue" points="1649.5,-57.4751 1653,-67.4751 1656.5,-57.4751 1649.5,-57.4751"/>
</g>
<!-- Node23&#45;&gt;Node26 -->
<g id="edge28" class="edge"><title>Node23&#45;&gt;Node26</title>
<path fill="none" stroke="midnightblue" d="M1619.41,-64.1032C1592.07,-54.4216 1553.43,-40.7367 1524.59,-30.523"/>
<polygon fill="midnightblue" stroke="midnightblue" points="1618.33,-67.4358 1628.93,-67.4751 1620.67,-60.8374 1618.33,-67.4358"/>
</g>
<!-- Node28&#45;&gt;Node21 -->
<g id="edge32" class="edge"><title>Node28&#45;&gt;Node21</title>
<path fill="none" stroke="midnightblue" d="M1587.17,-253.295C1615.52,-240.76 1651.88,-224.682 1673.76,-215.007"/>
<polygon fill="midnightblue" stroke="midnightblue" points="1585.63,-250.151 1577.9,-257.396 1588.46,-256.553 1585.63,-250.151"/>
</g>
<!-- Node31&#45;&gt;Node24 -->
<g id="edge36" class="edge"><title>Node31&#45;&gt;Node24</title>
<path fill="none" stroke="midnightblue" d="M1885.44,-252.6C1886.6,-203.644 1889.66,-73.5417 1890.67,-30.5261"/>
<polygon fill="midnightblue" stroke="midnightblue" points="1881.94,-252.643 1885.21,-262.722 1888.94,-252.807 1881.94,-252.643"/>
</g>
<!-- Node32&#45;&gt;Node23 -->
<g id="edge40" class="edge"><title>Node32&#45;&gt;Node23</title>
<path fill="none" stroke="midnightblue" d="M1522.66,-185.57C1523.33,-167.489 1527.06,-140.476 1542,-123 1558.21,-104.033 1583.62,-92.9602 1606.03,-86.5479"/>
<polygon fill="midnightblue" stroke="midnightblue" points="1519.16,-185.711 1522.57,-195.741 1526.16,-185.773 1519.16,-185.711"/>
</g>
<!-- Node32&#45;&gt;Node26 -->
<g id="edge41" class="edge"><title>Node32&#45;&gt;Node26</title>
<path fill="none" stroke="midnightblue" d="M1519.24,-185.881C1511.65,-148.328 1494.65,-64.2397 1487.87,-30.704"/>
<polygon fill="midnightblue" stroke="midnightblue" points="1515.86,-186.825 1521.27,-195.934 1522.72,-185.438 1515.86,-186.825"/>
</g>
<!-- Node32&#45;&gt;Node27 -->
<g id="edge39" class="edge"><title>Node32&#45;&gt;Node27</title>
<path fill="none" stroke="midnightblue" d="M1542.25,-189.237C1555.86,-178.452 1573.96,-164.102 1587.23,-153.589"/>
<polygon fill="midnightblue" stroke="midnightblue" points="1539.72,-186.779 1534.06,-195.734 1544.07,-192.265 1539.72,-186.779"/>
</g>
<!-- Node33&#45;&gt;Node20 -->
<g id="edge44" class="edge"><title>Node33&#45;&gt;Node20</title>
<path fill="none" stroke="midnightblue" d="M1715.04,-388.308C1682.04,-377.793 1640.34,-364.507 1609.29,-354.611"/>
<polygon fill="midnightblue" stroke="midnightblue" points="1714.4,-391.775 1724.99,-391.476 1716.52,-385.105 1714.4,-391.775"/>
</g>
<!-- Node33&#45;&gt;Node22 -->
<g id="edge45" class="edge"><title>Node33&#45;&gt;Node22</title>
<path fill="none" stroke="midnightblue" d="M1771.19,-381.197C1773.31,-357.443 1776.54,-320.25 1779,-288 1783.05,-234.924 1787.06,-171.11 1788.47,-148.208"/>
<polygon fill="midnightblue" stroke="midnightblue" points="1767.69,-381.127 1770.28,-391.399 1774.66,-381.751 1767.69,-381.127"/>
</g>
<!-- Node33&#45;&gt;Node24 -->
<g id="edge48" class="edge"><title>Node33&#45;&gt;Node24</title>
<path fill="none" stroke="midnightblue" d="M1812.33,-387.258C1871.68,-360.872 1971,-311.101 1971,-273.5 1971,-273.5 1971,-273.5 1971,-137.5 1971,-92.4221 1931.89,-51.2251 1908.36,-30.5207"/>
<polygon fill="midnightblue" stroke="midnightblue" points="1810.56,-384.213 1802.81,-391.442 1813.37,-390.622 1810.56,-384.213"/>
</g>
<!-- Node33&#45;&gt;Node29 -->
<g id="edge46" class="edge"><title>Node33&#45;&gt;Node29</title>
<path fill="none" stroke="midnightblue" d="M1759.65,-381.754C1748.83,-354.291 1731.37,-309.987 1722.52,-287.525"/>
<polygon fill="midnightblue" stroke="midnightblue" points="1756.51,-383.352 1763.44,-391.374 1763.03,-380.787 1756.51,-383.352"/>
</g>
<!-- Node33&#45;&gt;Node31 -->
<g id="edge49" class="edge"><title>Node33&#45;&gt;Node31</title>
<path fill="none" stroke="midnightblue" d="M1788.21,-383.639C1814.26,-354 1859.57,-302.432 1877.44,-282.097"/>
<polygon fill="midnightblue" stroke="midnightblue" points="1785.39,-381.552 1781.41,-391.374 1790.64,-386.172 1785.39,-381.552"/>
</g>
<!-- Node34 -->
<g id="node34" class="node"><title>Node34</title>
<g id="a_node34"><a xlink:href="dilate_8h.html" target="_top" xlink:title="Dilate op constructions. ">
<polygon fill="white" stroke="black" points="1999.5,-324.5 1999.5,-354.5 2106.5,-354.5 2106.5,-324.5 1999.5,-324.5"/>
<text text-anchor="start" x="2007.5" y="-342.5" font-family="Helvetica,sans-Serif" font-size="10.00">topi/include/topi/nn</text>
<text text-anchor="middle" x="2053" y="-331.5" font-family="Helvetica,sans-Serif" font-size="10.00">/dilate.h</text>
</a>
</g>
</g>
<!-- Node33&#45;&gt;Node34 -->
<g id="edge47" class="edge"><title>Node33&#45;&gt;Node34</title>
<path fill="none" stroke="midnightblue" d="M1825.96,-390.83C1870.03,-380.447 1947.03,-363.554 1999.38,-352.146"/>
<polygon fill="midnightblue" stroke="midnightblue" points="1824.94,-387.474 1816.02,-393.195 1826.56,-394.284 1824.94,-387.474"/>
</g>
</g>
</svg>
