<?xml version="1.0" encoding="UTF-8" standalone="no"?>
<!DOCTYPE svg PUBLIC "-//W3C//DTD SVG 1.1//EN"
 "http://www.w3.org/Graphics/SVG/1.1/DTD/svg11.dtd">
<!-- Generated by graphviz version 2.38.0 (20140413.2041)
 -->
<!-- Title: include/tvm/tir/expr.h Pages: 1 -->
<svg width="2652pt" height="957pt"
 viewBox="0.00 0.00 2652.00 957.00" xmlns="http://www.w3.org/2000/svg" xmlns:xlink="http://www.w3.org/1999/xlink">
<g id="graph0" class="graph" transform="scale(1 1) rotate(0) translate(4 953)">
<title>include/tvm/tir/expr.h</title>
<polygon fill="white" stroke="none" points="-4,4 -4,-953 2648,-953 2648,4 -4,4"/>
<!-- Node1 -->
<g id="node1" class="node"><title>Node1</title>
<polygon fill="#bfbfbf" stroke="black" points="425.5,-929.5 425.5,-948.5 542.5,-948.5 542.5,-929.5 425.5,-929.5"/>
<text text-anchor="middle" x="484" y="-936.5" font-family="Helvetica,sans-Serif" font-size="10.00">include/tvm/tir/expr.h</text>
</g>
<!-- Node2 -->
<g id="node2" class="node"><title>Node2</title>
<g id="a_node2"><a xlink:href="node_8h.html" target="_top" xlink:title="Definitions and helper macros for IR/AST nodes. ">
<polygon fill="white" stroke="black" points="634,-593.5 634,-612.5 732,-612.5 732,-593.5 634,-593.5"/>
<text text-anchor="middle" x="683" y="-600.5" font-family="Helvetica,sans-Serif" font-size="10.00">tvm/node/node.h</text>
</a>
</g>
</g>
<!-- Node1&#45;&gt;Node2 -->
<g id="edge1" class="edge"><title>Node1&#45;&gt;Node2</title>
<path fill="none" stroke="midnightblue" d="M460.575,-929.42C424.888,-914.66 361,-880.855 361,-828 361,-828 361,-828 361,-714 361,-665.376 404.466,-668.519 449,-649 505.244,-624.348 574.938,-613.155 623.574,-608.101"/>
<polygon fill="midnightblue" stroke="midnightblue" points="624.011,-611.575 633.621,-607.113 623.326,-604.608 624.011,-611.575"/>
</g>
<!-- Node3 -->
<g id="node3" class="node"><title>Node3</title>
<g id="a_node3"><a xlink:href="c__runtime__api_8h.html" target="_top" xlink:title="tvm/runtime/c_runtime\l_api.h">
<polygon fill="white" stroke="black" points="479.5,-56.5 479.5,-86.5 606.5,-86.5 606.5,-56.5 479.5,-56.5"/>
<text text-anchor="start" x="487.5" y="-74.5" font-family="Helvetica,sans-Serif" font-size="10.00">tvm/runtime/c_runtime</text>
<text text-anchor="middle" x="543" y="-63.5" font-family="Helvetica,sans-Serif" font-size="10.00">_api.h</text>
</a>
</g>
</g>
<!-- Node1&#45;&gt;Node3 -->
<g id="edge114" class="edge"><title>Node1&#45;&gt;Node3</title>
<path fill="none" stroke="midnightblue" d="M425.136,-936.897C296.149,-932.885 0,-914.278 0,-828 0,-828 0,-828 0,-244 0,-146.695 321.07,-97.63 469.434,-80.1517"/>
<polygon fill="midnightblue" stroke="midnightblue" points="469.852,-83.6268 479.381,-78.9967 469.045,-76.6735 469.852,-83.6268"/>
</g>
<!-- Node12 -->
<g id="node12" class="node"><title>Node12</title>
<polygon fill="white" stroke="#bfbfbf" points="2255,-62 2255,-81 2299,-81 2299,-62 2255,-62"/>
<text text-anchor="middle" x="2277" y="-69" font-family="Helvetica,sans-Serif" font-size="10.00">string</text>
</g>
<!-- Node1&#45;&gt;Node12 -->
<g id="edge145" class="edge"><title>Node1&#45;&gt;Node12</title>
<path fill="none" stroke="midnightblue" d="M542.627,-937.961C852.408,-937.586 2291.83,-933.652 2486,-893 2560.32,-877.44 2644,-903.932 2644,-828 2644,-828 2644,-828 2644,-188 2644,-140.795 2603.15,-142.144 2560,-123 2474.89,-85.2397 2363.53,-75.6957 2309.38,-73.2963"/>
<polygon fill="midnightblue" stroke="midnightblue" points="2309.47,-69.7971 2299.34,-72.9055 2309.2,-76.7918 2309.47,-69.7971"/>
</g>
<!-- Node13 -->
<g id="node13" class="node"><title>Node13</title>
<polygon fill="white" stroke="#bfbfbf" points="1109,-62 1109,-81 1151,-81 1151,-62 1109,-62"/>
<text text-anchor="middle" x="1130" y="-69" font-family="Helvetica,sans-Serif" font-size="10.00">utility</text>
</g>
<!-- Node1&#45;&gt;Node13 -->
<g id="edge150" class="edge"><title>Node1&#45;&gt;Node13</title>
<path fill="none" stroke="midnightblue" d="M425.25,-933.579C358.39,-927.579 254.271,-915 222,-893 121.988,-824.82 81,-781.041 81,-660 81,-660 81,-660 81,-484.5 81,-246.85 244.861,-182.278 475,-123 505.553,-115.13 972.751,-83.129 1098.84,-74.5982"/>
<polygon fill="midnightblue" stroke="midnightblue" points="1099.24,-78.0796 1108.98,-73.9133 1098.77,-71.0955 1099.24,-78.0796"/>
</g>
<!-- Node21 -->
<g id="node21" class="node"><title>Node21</title>
<polygon fill="white" stroke="#bfbfbf" points="1946.5,-179.5 1946.5,-198.5 2039.5,-198.5 2039.5,-179.5 1946.5,-179.5"/>
<text text-anchor="middle" x="1993" y="-186.5" font-family="Helvetica,sans-Serif" font-size="10.00">unordered_map</text>
</g>
<!-- Node1&#45;&gt;Node21 -->
<g id="edge147" class="edge"><title>Node1&#45;&gt;Node21</title>
<path fill="none" stroke="midnightblue" d="M542.618,-938.348C818.307,-939.713 1987.6,-942.428 2349,-893 2465.73,-877.035 2606,-945.819 2606,-828 2606,-828 2606,-828 2606,-602 2606,-425.958 2598.11,-340.259 2457,-235 2425,-211.131 2166.73,-197.325 2049.96,-192.248"/>
<polygon fill="midnightblue" stroke="midnightblue" points="2049.93,-188.744 2039.78,-191.812 2049.63,-195.737 2049.93,-188.744"/>
</g>
<!-- Node25 -->
<g id="node25" class="node"><title>Node25</title>
<g id="a_node25"><a xlink:href="data__type_8h.html" target="_top" xlink:title="tvm/runtime/data_type.h">
<polygon fill="white" stroke="black" points="294,-235.5 294,-254.5 430,-254.5 430,-235.5 294,-235.5"/>
<text text-anchor="middle" x="362" y="-242.5" font-family="Helvetica,sans-Serif" font-size="10.00">tvm/runtime/data_type.h</text>
</a>
</g>
</g>
<!-- Node1&#45;&gt;Node25 -->
<g id="edge115" class="edge"><title>Node1&#45;&gt;Node25</title>
<path fill="none" stroke="midnightblue" d="M425.282,-937.388C339.471,-935.332 185.394,-926.874 143,-893 118.942,-873.777 119,-858.795 119,-828 119,-828 119,-828 119,-602 119,-444.342 283.586,-305.064 341.853,-260.695"/>
<polygon fill="midnightblue" stroke="midnightblue" points="344.05,-263.423 349.95,-254.623 339.85,-257.823 344.05,-263.423"/>
</g>
<!-- Node28 -->
<g id="node28" class="node"><title>Node28</title>
<polygon fill="white" stroke="#bfbfbf" points="2406,-235.5 2406,-254.5 2448,-254.5 2448,-235.5 2406,-235.5"/>
<text text-anchor="middle" x="2427" y="-242.5" font-family="Helvetica,sans-Serif" font-size="10.00">limits</text>
</g>
<!-- Node1&#45;&gt;Node28 -->
<g id="edge149" class="edge"><title>Node1&#45;&gt;Node28</title>
<path fill="none" stroke="midnightblue" d="M542.592,-937.889C803.073,-937.174 1857.6,-931.888 2186,-893 2324.07,-876.65 2492,-967.034 2492,-828 2492,-828 2492,-828 2492,-658 2492,-579.929 2454,-564.571 2454,-486.5 2454,-486.5 2454,-486.5 2454,-367 2454,-329.838 2441.72,-287.764 2433.72,-264.308"/>
<polygon fill="midnightblue" stroke="midnightblue" points="2436.94,-262.919 2430.31,-254.657 2430.34,-265.252 2436.94,-262.919"/>
</g>
<!-- Node33 -->
<g id="node33" class="node"><title>Node33</title>
<g id="a_node33"><a xlink:href="functor_8h.html" target="_top" xlink:title="Defines the Functor data structures. ">
<polygon fill="white" stroke="black" points="600.5,-235.5 600.5,-254.5 707.5,-254.5 707.5,-235.5 600.5,-235.5"/>
<text text-anchor="middle" x="654" y="-242.5" font-family="Helvetica,sans-Serif" font-size="10.00">tvm/node/functor.h</text>
</a>
</g>
</g>
<!-- Node1&#45;&gt;Node33 -->
<g id="edge113" class="edge"><title>Node1&#45;&gt;Node33</title>
<path fill="none" stroke="midnightblue" d="M425.37,-930.675C366.67,-919.676 285,-892.74 285,-828 285,-828 285,-828 285,-714 285,-598.68 564.771,-329.356 637.098,-261.657"/>
<polygon fill="midnightblue" stroke="midnightblue" points="639.58,-264.127 644.508,-254.748 634.807,-259.007 639.58,-264.127"/>
</g>
<!-- Node34 -->
<g id="node34" class="node"><title>Node34</title>
<g id="a_node34"><a xlink:href="node_2container_8h.html" target="_top" xlink:title="Array/Map container in the DSL graph. ">
<polygon fill="white" stroke="black" points="1672.5,-414.5 1672.5,-433.5 1791.5,-433.5 1791.5,-414.5 1672.5,-414.5"/>
<text text-anchor="middle" x="1732" y="-421.5" font-family="Helvetica,sans-Serif" font-size="10.00">tvm/node/container.h</text>
</a>
</g>
</g>
<!-- Node1&#45;&gt;Node34 -->
<g id="edge112" class="edge"><title>Node1&#45;&gt;Node34</title>
<path fill="none" stroke="midnightblue" d="M542.611,-937.803C865.818,-936.339 2416,-924.3 2416,-828 2416,-828 2416,-828 2416,-602 2416,-476.022 1975.64,-438.253 1801.58,-428.246"/>
<polygon fill="midnightblue" stroke="midnightblue" points="1801.68,-424.746 1791.5,-427.68 1801.29,-431.735 1801.68,-424.746"/>
</g>
<!-- Node37 -->
<g id="node37" class="node"><title>Node37</title>
<polygon fill="white" stroke="#bfbfbf" points="337.5,-476 337.5,-495 396.5,-495 396.5,-476 337.5,-476"/>
<text text-anchor="middle" x="367" y="-483" font-family="Helvetica,sans-Serif" font-size="10.00">iostream</text>
</g>
<!-- Node1&#45;&gt;Node37 -->
<g id="edge148" class="edge"><title>Node1&#45;&gt;Node37</title>
<path fill="none" stroke="midnightblue" d="M425.398,-933.512C381.111,-928.289 319.819,-917.058 271,-893 231.132,-873.353 195,-872.447 195,-828 195,-828 195,-828 195,-658 195,-597.574 213.361,-578.797 257,-537 276.697,-518.135 304.697,-505.418 327.517,-497.464"/>
<polygon fill="midnightblue" stroke="midnightblue" points="328.869,-500.704 337.264,-494.242 326.671,-494.058 328.869,-500.704"/>
</g>
<!-- Node38 -->
<g id="node38" class="node"><title>Node38</title>
<g id="a_node38"><a xlink:href="ir_2expr_8h.html" target="_top" xlink:title="Base expr nodes in TVM. ">
<polygon fill="white" stroke="black" points="611.5,-761.5 611.5,-780.5 688.5,-780.5 688.5,-761.5 611.5,-761.5"/>
<text text-anchor="middle" x="650" y="-768.5" font-family="Helvetica,sans-Serif" font-size="10.00">tvm/ir/expr.h</text>
</a>
</g>
</g>
<!-- Node1&#45;&gt;Node38 -->
<g id="edge116" class="edge"><title>Node1&#45;&gt;Node38</title>
<path fill="none" stroke="midnightblue" d="M492.925,-929.075C519.733,-902.267 599.81,-822.19 634.115,-787.885"/>
<polygon fill="midnightblue" stroke="midnightblue" points="636.836,-790.114 641.432,-780.568 631.886,-785.164 636.836,-790.114"/>
</g>
<!-- Node41 -->
<g id="node41" class="node"><title>Node41</title>
<polygon fill="white" stroke="#bfbfbf" points="427,-705.5 427,-724.5 489,-724.5 489,-705.5 427,-705.5"/>
<text text-anchor="middle" x="458" y="-712.5" font-family="Helvetica,sans-Serif" font-size="10.00">algorithm</text>
</g>
<!-- Node1&#45;&gt;Node41 -->
<g id="edge146" class="edge"><title>Node1&#45;&gt;Node41</title>
<path fill="none" stroke="midnightblue" d="M482.981,-929.297C479.155,-896.633 465.597,-780.866 460.22,-734.957"/>
<polygon fill="midnightblue" stroke="midnightblue" points="463.68,-734.409 459.04,-724.884 456.728,-735.223 463.68,-734.409"/>
</g>
<!-- Node42 -->
<g id="node42" class="node"><title>Node42</title>
<g id="a_node42"><a xlink:href="var_8h.html" target="_top" xlink:title="Variables in the TIR. ">
<polygon fill="white" stroke="black" points="486,-817.5 486,-836.5 560,-836.5 560,-817.5 486,-817.5"/>
<text text-anchor="middle" x="523" y="-824.5" font-family="Helvetica,sans-Serif" font-size="10.00">tvm/tir/var.h</text>
</a>
</g>
</g>
<!-- Node1&#45;&gt;Node42 -->
<g id="edge135" class="edge"><title>Node1&#45;&gt;Node42</title>
<path fill="none" stroke="midnightblue" d="M487.06,-929.368C493.382,-911.537 508.004,-870.295 516.522,-846.272"/>
<polygon fill="midnightblue" stroke="midnightblue" points="519.911,-847.186 519.954,-836.591 513.313,-844.847 519.911,-847.186"/>
</g>
<!-- Node43 -->
<g id="node43" class="node"><title>Node43</title>
<g id="a_node43"><a xlink:href="buffer_8h.html" target="_top" xlink:title="Symbolic n&#45;dimensional array, to represent a memory buffer. ">
<polygon fill="white" stroke="black" points="616.5,-873.5 616.5,-892.5 703.5,-892.5 703.5,-873.5 616.5,-873.5"/>
<text text-anchor="middle" x="660" y="-880.5" font-family="Helvetica,sans-Serif" font-size="10.00">tvm/tir/buffer.h</text>
</a>
</g>
</g>
<!-- Node1&#45;&gt;Node43 -->
<g id="edge140" class="edge"><title>Node1&#45;&gt;Node43</title>
<path fill="none" stroke="midnightblue" d="M511.888,-929.444C541.754,-920.28 589.315,-905.688 622.456,-895.519"/>
<polygon fill="midnightblue" stroke="midnightblue" points="623.709,-898.796 632.243,-892.516 621.656,-892.104 623.709,-898.796"/>
</g>
<!-- Node2&#45;&gt;Node3 -->
<g id="edge2" class="edge"><title>Node2&#45;&gt;Node3</title>
<path fill="none" stroke="midnightblue" d="M633.959,-601.026C576.693,-598.343 480.114,-588.954 404,-557 298.509,-512.714 240.289,-490.412 219,-378 194.617,-249.25 251.474,-184.846 367,-123 398.747,-106.004 436.861,-94.1615 469.49,-86.2392"/>
<polygon fill="midnightblue" stroke="midnightblue" points="470.492,-89.5991 479.427,-83.9051 468.891,-82.7846 470.492,-89.5991"/>
</g>
<!-- Node7 -->
<g id="node7" class="node"><title>Node7</title>
<g id="a_node7"><a xlink:href="runtime_2container_8h.html" target="_top" xlink:title="Common POD(plain old data) container types. ">
<polygon fill="white" stroke="black" points="1294,-358.5 1294,-377.5 1426,-377.5 1426,-358.5 1294,-358.5"/>
<text text-anchor="middle" x="1360" y="-365.5" font-family="Helvetica,sans-Serif" font-size="10.00">tvm/runtime/container.h</text>
</a>
</g>
</g>
<!-- Node2&#45;&gt;Node7 -->
<g id="edge6" class="edge"><title>Node2&#45;&gt;Node7</title>
<path fill="none" stroke="midnightblue" d="M732.158,-598.257C797.072,-592.501 907.022,-579.693 940,-557 977.11,-531.464 956.138,-497.261 992,-470 1077.99,-404.638 1203.7,-381.564 1283.67,-373.425"/>
<polygon fill="midnightblue" stroke="midnightblue" points="1284.05,-376.905 1293.67,-372.461 1283.38,-369.937 1284.05,-376.905"/>
</g>
<!-- Node9 -->
<g id="node9" class="node"><title>Node9</title>
<g id="a_node9"><a xlink:href="runtime_2memory_8h.html" target="_top" xlink:title="Runtime memory management. ">
<polygon fill="white" stroke="black" points="1648.5,-179.5 1648.5,-198.5 1775.5,-198.5 1775.5,-179.5 1648.5,-179.5"/>
<text text-anchor="middle" x="1712" y="-186.5" font-family="Helvetica,sans-Serif" font-size="10.00">tvm/runtime/memory.h</text>
</a>
</g>
</g>
<!-- Node2&#45;&gt;Node9 -->
<g id="edge65" class="edge"><title>Node2&#45;&gt;Node9</title>
<path fill="none" stroke="midnightblue" d="M732.15,-600.309C970.876,-591.779 1998,-551.314 1998,-486.5 1998,-486.5 1998,-486.5 1998,-423 1998,-297.247 1829.75,-227.328 1751.34,-201.572"/>
<polygon fill="midnightblue" stroke="midnightblue" points="1752.39,-198.232 1741.8,-198.509 1750.25,-204.897 1752.39,-198.232"/>
</g>
<!-- Node10 -->
<g id="node10" class="node"><title>Node10</title>
<g id="a_node10"><a xlink:href="object_8h.html" target="_top" xlink:title="A managed object in the TVM runtime. ">
<polygon fill="white" stroke="black" points="484.5,-123.5 484.5,-142.5 601.5,-142.5 601.5,-123.5 484.5,-123.5"/>
<text text-anchor="middle" x="543" y="-130.5" font-family="Helvetica,sans-Serif" font-size="10.00">tvm/runtime/object.h</text>
</a>
</g>
</g>
<!-- Node2&#45;&gt;Node10 -->
<g id="edge64" class="edge"><title>Node2&#45;&gt;Node10</title>
<path fill="none" stroke="midnightblue" d="M663.961,-593.281C595.602,-560.732 362.504,-438.705 285,-255 281.545,-246.81 279.793,-242.204 285,-235 314.888,-193.653 346.346,-217.219 394,-199 437.105,-182.52 485.934,-160.574 515.589,-146.868"/>
<polygon fill="midnightblue" stroke="midnightblue" points="517.279,-149.942 524.874,-142.556 514.33,-143.593 517.279,-149.942"/>
</g>
<!-- Node11 -->
<g id="node11" class="node"><title>Node11</title>
<polygon fill="white" stroke="#bfbfbf" points="1736,-62 1736,-81 1804,-81 1804,-62 1736,-62"/>
<text text-anchor="middle" x="1770" y="-69" font-family="Helvetica,sans-Serif" font-size="10.00">type_traits</text>
</g>
<!-- Node2&#45;&gt;Node11 -->
<g id="edge111" class="edge"><title>Node2&#45;&gt;Node11</title>
<path fill="none" stroke="midnightblue" d="M732.112,-601.762C907.646,-600.605 1503.43,-593.982 1690,-557 1761.85,-542.758 1776.56,-527.085 1845,-501 1983.02,-448.398 2150,-516.706 2150,-369 2150,-369 2150,-369 2150,-305.5 2150,-204.344 2102.59,-171.837 2014,-123 1950.38,-87.9281 1865.23,-77.1385 1814.18,-73.8656"/>
<polygon fill="midnightblue" stroke="midnightblue" points="1814.31,-70.3676 1804.13,-73.2907 1813.91,-77.3562 1814.31,-70.3676"/>
</g>
<!-- Node2&#45;&gt;Node12 -->
<g id="edge108" class="edge"><title>Node2&#45;&gt;Node12</title>
<path fill="none" stroke="midnightblue" d="M732.05,-601.785C998.906,-599.987 2264,-583.121 2264,-425 2264,-425 2264,-425 2264,-367 2264,-267.191 2276.44,-242.746 2280,-143 2280.63,-125.418 2279.61,-105.376 2278.59,-91.1675"/>
<polygon fill="midnightblue" stroke="midnightblue" points="2282.08,-90.8769 2277.81,-81.1813 2275.1,-91.4244 2282.08,-90.8769"/>
</g>
<!-- Node2&#45;&gt;Node13 -->
<g id="edge110" class="edge"><title>Node2&#45;&gt;Node13</title>
<path fill="none" stroke="midnightblue" d="M676.577,-593.43C646.037,-551.568 519.901,-365.319 591,-235 635.047,-154.265 678.756,-154.942 765,-123 882.387,-79.5239 1033.58,-73.0063 1098.31,-72.3486"/>
<polygon fill="midnightblue" stroke="midnightblue" points="1098.67,-75.8466 1108.65,-72.2873 1098.63,-68.8467 1098.67,-75.8466"/>
</g>
<!-- Node20 -->
<g id="node20" class="node"><title>Node20</title>
<polygon fill="white" stroke="#bfbfbf" points="712.5,-179.5 712.5,-198.5 759.5,-198.5 759.5,-179.5 712.5,-179.5"/>
<text text-anchor="middle" x="736" y="-186.5" font-family="Helvetica,sans-Serif" font-size="10.00">vector</text>
</g>
<!-- Node2&#45;&gt;Node20 -->
<g id="edge109" class="edge"><title>Node2&#45;&gt;Node20</title>
<path fill="none" stroke="midnightblue" d="M684.107,-593.395C690.641,-542.604 724.199,-281.734 733.568,-208.904"/>
<polygon fill="midnightblue" stroke="midnightblue" points="737.095,-208.923 734.899,-198.558 730.152,-208.03 737.095,-208.923"/>
</g>
<!-- Node31 -->
<g id="node31" class="node"><title>Node31</title>
<g id="a_node31"><a xlink:href="reflection_8h.html" target="_top" xlink:title="Reflection and serialization of compiler IR/AST nodes. ">
<polygon fill="white" stroke="black" points="812.5,-537.5 812.5,-556.5 931.5,-556.5 931.5,-537.5 812.5,-537.5"/>
<text text-anchor="middle" x="872" y="-544.5" font-family="Helvetica,sans-Serif" font-size="10.00">tvm/node/reflection.h</text>
</a>
</g>
</g>
<!-- Node2&#45;&gt;Node31 -->
<g id="edge66" class="edge"><title>Node2&#45;&gt;Node31</title>
<path fill="none" stroke="midnightblue" d="M712.948,-593.444C745.158,-584.241 796.534,-569.562 832.142,-559.388"/>
<polygon fill="midnightblue" stroke="midnightblue" points="833.539,-562.629 842.192,-556.516 831.616,-555.898 833.539,-562.629"/>
</g>
<!-- Node32 -->
<g id="node32" class="node"><title>Node32</title>
<g id="a_node32"><a xlink:href="structural__equal_8h.html" target="_top" xlink:title="Structural equality comparison. ">
<polygon fill="white" stroke="black" points="719.5,-470.5 719.5,-500.5 830.5,-500.5 830.5,-470.5 719.5,-470.5"/>
<text text-anchor="start" x="727.5" y="-488.5" font-family="Helvetica,sans-Serif" font-size="10.00">tvm/node/structural</text>
<text text-anchor="middle" x="775" y="-477.5" font-family="Helvetica,sans-Serif" font-size="10.00">_equal.h</text>
</a>
</g>
</g>
<!-- Node2&#45;&gt;Node32 -->
<g id="edge106" class="edge"><title>Node2&#45;&gt;Node32</title>
<path fill="none" stroke="midnightblue" d="M689.915,-593.319C704.107,-575.502 736.906,-534.324 757.385,-508.615"/>
<polygon fill="midnightblue" stroke="midnightblue" points="760.32,-510.548 763.812,-500.545 754.844,-506.187 760.32,-510.548"/>
</g>
<!-- Node2&#45;&gt;Node34 -->
<g id="edge105" class="edge"><title>Node2&#45;&gt;Node34</title>
<path fill="none" stroke="midnightblue" d="M732.047,-596.089C796.924,-588.102 914.771,-573.01 1015,-557 1264.88,-517.087 1561.76,-459.01 1679.83,-435.481"/>
<polygon fill="midnightblue" stroke="midnightblue" points="1680.57,-438.902 1689.69,-433.513 1679.2,-432.038 1680.57,-438.902"/>
</g>
<!-- Node35 -->
<g id="node35" class="node"><title>Node35</title>
<g id="a_node35"><a xlink:href="structural__hash_8h.html" target="_top" xlink:title="tvm/node/structural\l_hash.h">
<polygon fill="white" stroke="black" points="1001.5,-470.5 1001.5,-500.5 1112.5,-500.5 1112.5,-470.5 1001.5,-470.5"/>
<text text-anchor="start" x="1009.5" y="-488.5" font-family="Helvetica,sans-Serif" font-size="10.00">tvm/node/structural</text>
<text text-anchor="middle" x="1057" y="-477.5" font-family="Helvetica,sans-Serif" font-size="10.00">_hash.h</text>
</a>
</g>
</g>
<!-- Node2&#45;&gt;Node35 -->
<g id="edge107" class="edge"><title>Node2&#45;&gt;Node35</title>
<path fill="none" stroke="midnightblue" d="M732.128,-598.505C806.434,-592.59 943.371,-579.05 987,-557 1009.08,-545.841 1028.39,-525.054 1041.11,-508.931"/>
<polygon fill="midnightblue" stroke="midnightblue" points="1044.21,-510.628 1047.47,-500.545 1038.64,-506.398 1044.21,-510.628"/>
</g>
<!-- Node36 -->
<g id="node36" class="node"><title>Node36</title>
<g id="a_node36"><a xlink:href="repr__printer_8h.html" target="_top" xlink:title="Printer class to print repr string of each AST/IR nodes. ">
<polygon fill="white" stroke="black" points="413,-537.5 413,-556.5 543,-556.5 543,-537.5 413,-537.5"/>
<text text-anchor="middle" x="478" y="-544.5" font-family="Helvetica,sans-Serif" font-size="10.00">tvm/node/repr_printer.h</text>
</a>
</g>
</g>
<!-- Node2&#45;&gt;Node36 -->
<g id="edge102" class="edge"><title>Node2&#45;&gt;Node36</title>
<path fill="none" stroke="midnightblue" d="M650.517,-593.444C615.28,-584.162 558.896,-569.309 520.241,-559.127"/>
<polygon fill="midnightblue" stroke="midnightblue" points="520.893,-555.679 510.331,-556.516 519.109,-562.448 520.893,-555.679"/>
</g>
<!-- Node4 -->
<g id="node4" class="node"><title>Node4</title>
<polygon fill="white" stroke="#bfbfbf" points="408,-0.5 408,-19.5 498,-19.5 498,-0.5 408,-0.5"/>
<text text-anchor="middle" x="453" y="-7.5" font-family="Helvetica,sans-Serif" font-size="10.00">dlpack/dlpack.h</text>
</g>
<!-- Node3&#45;&gt;Node4 -->
<g id="edge3" class="edge"><title>Node3&#45;&gt;Node4</title>
<path fill="none" stroke="midnightblue" d="M521.671,-56.3993C507.515,-47.0402 488.989,-34.7924 474.747,-25.3771"/>
<polygon fill="midnightblue" stroke="midnightblue" points="476.368,-22.2531 466.096,-19.6578 472.507,-28.0923 476.368,-22.2531"/>
</g>
<!-- Node5 -->
<g id="node5" class="node"><title>Node5</title>
<polygon fill="white" stroke="#bfbfbf" points="516.5,-0.5 516.5,-19.5 569.5,-19.5 569.5,-0.5 516.5,-0.5"/>
<text text-anchor="middle" x="543" y="-7.5" font-family="Helvetica,sans-Serif" font-size="10.00">stdint.h</text>
</g>
<!-- Node3&#45;&gt;Node5 -->
<g id="edge4" class="edge"><title>Node3&#45;&gt;Node5</title>
<path fill="none" stroke="midnightblue" d="M543,-56.3993C543,-48.4664 543,-38.458 543,-29.8583"/>
<polygon fill="midnightblue" stroke="midnightblue" points="546.5,-29.6577 543,-19.6578 539.5,-29.6578 546.5,-29.6577"/>
</g>
<!-- Node6 -->
<g id="node6" class="node"><title>Node6</title>
<polygon fill="white" stroke="#bfbfbf" points="587.5,-0.5 587.5,-19.5 642.5,-19.5 642.5,-0.5 587.5,-0.5"/>
<text text-anchor="middle" x="615" y="-7.5" font-family="Helvetica,sans-Serif" font-size="10.00">stddef.h</text>
</g>
<!-- Node3&#45;&gt;Node6 -->
<g id="edge5" class="edge"><title>Node3&#45;&gt;Node6</title>
<path fill="none" stroke="midnightblue" d="M560.063,-56.3993C571.065,-47.3076 585.365,-35.4899 596.618,-26.1909"/>
<polygon fill="midnightblue" stroke="midnightblue" points="599.044,-28.726 604.523,-19.6578 594.585,-23.33 599.044,-28.726"/>
</g>
<!-- Node8 -->
<g id="node8" class="node"><title>Node8</title>
<polygon fill="white" stroke="#bfbfbf" points="223,-62 223,-81 309,-81 309,-62 223,-62"/>
<text text-anchor="middle" x="266" y="-69" font-family="Helvetica,sans-Serif" font-size="10.00">dmlc/logging.h</text>
</g>
<!-- Node7&#45;&gt;Node8 -->
<g id="edge7" class="edge"><title>Node7&#45;&gt;Node8</title>
<path fill="none" stroke="midnightblue" d="M1293.9,-366.185C1153.02,-362.673 814.346,-344.736 548,-255 450.35,-222.1 428.763,-203.014 345,-143 321.586,-126.225 297.239,-103.574 281.872,-88.5241"/>
<polygon fill="midnightblue" stroke="midnightblue" points="284.272,-85.9751 274.707,-81.4183 279.343,-90.9452 284.272,-85.9751"/>
</g>
<!-- Node7&#45;&gt;Node9 -->
<g id="edge8" class="edge"><title>Node7&#45;&gt;Node9</title>
<path fill="none" stroke="midnightblue" d="M1376.39,-358.486C1403.64,-344.349 1460.03,-315.19 1508,-291 1571.43,-259.012 1646.37,-222.146 1685.38,-203.025"/>
<polygon fill="midnightblue" stroke="midnightblue" points="1687.05,-206.103 1694.49,-198.56 1683.97,-199.817 1687.05,-206.103"/>
</g>
<!-- Node7&#45;&gt;Node10 -->
<g id="edge19" class="edge"><title>Node7&#45;&gt;Node10</title>
<path fill="none" stroke="midnightblue" d="M1326.49,-358.493C1257.35,-340.752 1094.03,-297.88 959,-255 950.174,-252.197 810.39,-202.921 802,-199 786.117,-191.577 784.379,-185.251 768,-179 717.482,-159.722 657.282,-148.236 611.868,-141.699"/>
<polygon fill="midnightblue" stroke="midnightblue" points="612.216,-138.214 601.828,-140.299 611.249,-145.147 612.216,-138.214"/>
</g>
<!-- Node7&#45;&gt;Node11 -->
<g id="edge61" class="edge"><title>Node7&#45;&gt;Node11</title>
<path fill="none" stroke="midnightblue" d="M1385.5,-358.389C1412.28,-349.343 1455.61,-334.695 1493,-322 1533.46,-308.264 1543.2,-303.678 1584,-291 1640.43,-273.465 1659.25,-281.638 1712,-255 1748.19,-236.727 1762.45,-233.338 1784,-199 1802.18,-170.035 1804.05,-156.234 1796,-123 1793.17,-111.335 1787.16,-99.346 1781.62,-89.9784"/>
<polygon fill="midnightblue" stroke="midnightblue" points="1784.46,-87.9088 1776.18,-81.2888 1778.52,-91.6224 1784.46,-87.9088"/>
</g>
<!-- Node7&#45;&gt;Node12 -->
<g id="edge60" class="edge"><title>Node7&#45;&gt;Node12</title>
<path fill="none" stroke="midnightblue" d="M1410.05,-358.495C1449.53,-351.035 1505.64,-338.755 1553,-322 1582.8,-311.458 1587.44,-302.181 1617,-291 1672.67,-269.942 1689.6,-274.03 1746,-255 1832.57,-225.791 1850.94,-209.665 1937,-179 1987.05,-161.166 2000.46,-159.402 2051,-143 2077.74,-134.323 2084.22,-131.536 2111,-123 2157.56,-108.161 2211.77,-91.8506 2245.23,-81.8918"/>
<polygon fill="midnightblue" stroke="midnightblue" points="2246.33,-85.2163 2254.92,-79.0137 2244.34,-78.5061 2246.33,-85.2163"/>
</g>
<!-- Node7&#45;&gt;Node13 -->
<g id="edge62" class="edge"><title>Node7&#45;&gt;Node13</title>
<path fill="none" stroke="midnightblue" d="M1303.65,-358.415C1281.55,-352.086 1258.14,-341.093 1244,-322 1220.94,-290.879 1216.94,-266.834 1239,-235 1264.96,-197.546 1309.04,-236.454 1335,-199 1348.86,-179.006 1331.03,-136.384 1317,-123 1274.34,-82.3044 1202.39,-73.6646 1161.29,-72.2604"/>
<polygon fill="midnightblue" stroke="midnightblue" points="1161.13,-68.7562 1151.06,-72.0396 1160.98,-75.7545 1161.13,-68.7562"/>
</g>
<!-- Node16 -->
<g id="node16" class="node"><title>Node16</title>
<g id="a_node16"><a xlink:href="packed__func_8h.html" target="_top" xlink:title="Type&#45;erased function used across TVM API. ">
<polygon fill="white" stroke="black" points="1253.5,-291.5 1253.5,-321.5 1366.5,-321.5 1366.5,-291.5 1253.5,-291.5"/>
<text text-anchor="start" x="1261.5" y="-309.5" font-family="Helvetica,sans-Serif" font-size="10.00">tvm/runtime/packed</text>
<text text-anchor="middle" x="1310" y="-298.5" font-family="Helvetica,sans-Serif" font-size="10.00">_func.h</text>
</a>
</g>
</g>
<!-- Node7&#45;&gt;Node16 -->
<g id="edge20" class="edge"><title>Node7&#45;&gt;Node16</title>
<path fill="none" stroke="midnightblue" d="M1352.84,-358.475C1346.44,-350.869 1336.81,-339.399 1328.29,-329.265"/>
<polygon fill="midnightblue" stroke="midnightblue" points="1330.9,-326.927 1321.78,-321.523 1325.54,-331.43 1330.9,-326.927"/>
</g>
<!-- Node7&#45;&gt;Node20 -->
<g id="edge63" class="edge"><title>Node7&#45;&gt;Node20</title>
<path fill="none" stroke="midnightblue" d="M1293.94,-366.533C1225.05,-364.13 1114.92,-354.83 1026,-322 1002.18,-313.204 1000.1,-303.509 978,-291 928.873,-263.195 916.052,-256.844 864,-235 832.553,-221.803 795.735,-209.14 769.68,-200.628"/>
<polygon fill="midnightblue" stroke="midnightblue" points="770.502,-197.216 759.91,-197.466 768.347,-203.875 770.502,-197.216"/>
</g>
<!-- Node29 -->
<g id="node29" class="node"><title>Node29</title>
<polygon fill="white" stroke="#bfbfbf" points="1384.5,-297 1384.5,-316 1433.5,-316 1433.5,-297 1384.5,-297"/>
<text text-anchor="middle" x="1409" y="-304" font-family="Helvetica,sans-Serif" font-size="10.00">cstring</text>
</g>
<!-- Node7&#45;&gt;Node29 -->
<g id="edge58" class="edge"><title>Node7&#45;&gt;Node29</title>
<path fill="none" stroke="midnightblue" d="M1367.02,-358.475C1374.44,-349.462 1386.33,-335.025 1395.57,-323.812"/>
<polygon fill="midnightblue" stroke="midnightblue" points="1398.34,-325.953 1401.99,-316.009 1392.93,-321.503 1398.34,-325.953"/>
</g>
<!-- Node30 -->
<g id="node30" class="node"><title>Node30</title>
<polygon fill="white" stroke="#bfbfbf" points="1626.5,-297 1626.5,-316 1703.5,-316 1703.5,-297 1626.5,-297"/>
<text text-anchor="middle" x="1665" y="-304" font-family="Helvetica,sans-Serif" font-size="10.00">initializer_list</text>
</g>
<!-- Node7&#45;&gt;Node30 -->
<g id="edge59" class="edge"><title>Node7&#45;&gt;Node30</title>
<path fill="none" stroke="midnightblue" d="M1416.34,-358.434C1467.61,-350.286 1545.24,-337.061 1612,-322 1616.47,-320.993 1621.12,-319.854 1625.73,-318.667"/>
<polygon fill="midnightblue" stroke="midnightblue" points="1626.91,-321.975 1635.68,-316.029 1625.12,-315.209 1626.91,-321.975"/>
</g>
<!-- Node9&#45;&gt;Node10 -->
<g id="edge9" class="edge"><title>Node9&#45;&gt;Node10</title>
<path fill="none" stroke="midnightblue" d="M1648.48,-184.927C1612.05,-183.173 1565.45,-180.943 1524,-179 1181.54,-162.948 771.809,-144.349 611.782,-137.108"/>
<polygon fill="midnightblue" stroke="midnightblue" points="611.754,-133.603 601.606,-136.647 611.437,-140.596 611.754,-133.603"/>
</g>
<!-- Node9&#45;&gt;Node11 -->
<g id="edge18" class="edge"><title>Node9&#45;&gt;Node11</title>
<path fill="none" stroke="midnightblue" d="M1713.49,-179.201C1715.9,-166.332 1721.4,-141.858 1731,-123 1737.31,-110.605 1746.81,-98.2205 1754.86,-88.8177"/>
<polygon fill="midnightblue" stroke="midnightblue" points="1757.68,-90.9084 1761.7,-81.1061 1752.45,-86.2615 1757.68,-90.9084"/>
</g>
<!-- Node9&#45;&gt;Node13 -->
<g id="edge17" class="edge"><title>Node9&#45;&gt;Node13</title>
<path fill="none" stroke="midnightblue" d="M1698.17,-179.311C1674.54,-164.935 1624.44,-136.452 1578,-123 1426.09,-78.9977 1234.88,-72.9963 1161.05,-72.4207"/>
<polygon fill="midnightblue" stroke="midnightblue" points="1161.05,-68.9207 1151.03,-72.3713 1161.01,-75.9206 1161.05,-68.9207"/>
</g>
<!-- Node15 -->
<g id="node15" class="node"><title>Node15</title>
<polygon fill="white" stroke="#bfbfbf" points="1740.5,-123.5 1740.5,-142.5 1787.5,-142.5 1787.5,-123.5 1740.5,-123.5"/>
<text text-anchor="middle" x="1764" y="-130.5" font-family="Helvetica,sans-Serif" font-size="10.00">cstdlib</text>
</g>
<!-- Node9&#45;&gt;Node15 -->
<g id="edge16" class="edge"><title>Node9&#45;&gt;Node15</title>
<path fill="none" stroke="midnightblue" d="M1720.59,-179.083C1728.16,-171.22 1739.38,-159.569 1748.51,-150.081"/>
<polygon fill="midnightblue" stroke="midnightblue" points="1751.16,-152.382 1755.57,-142.751 1746.12,-147.527 1751.16,-152.382"/>
</g>
<!-- Node10&#45;&gt;Node3 -->
<g id="edge11" class="edge"><title>Node10&#45;&gt;Node3</title>
<path fill="none" stroke="midnightblue" d="M543,-123.475C543,-116.471 543,-106.192 543,-96.6956"/>
<polygon fill="midnightblue" stroke="midnightblue" points="546.5,-96.5229 543,-86.523 539.5,-96.523 546.5,-96.5229"/>
</g>
<!-- Node10&#45;&gt;Node8 -->
<g id="edge10" class="edge"><title>Node10&#45;&gt;Node8</title>
<path fill="none" stroke="midnightblue" d="M503.313,-123.475C453.843,-112.849 369.28,-94.6847 315.592,-83.1524"/>
<polygon fill="midnightblue" stroke="midnightblue" points="316.126,-79.6873 305.614,-81.0091 314.656,-86.5312 316.126,-79.6873"/>
</g>
<!-- Node10&#45;&gt;Node11 -->
<g id="edge12" class="edge"><title>Node10&#45;&gt;Node11</title>
<path fill="none" stroke="midnightblue" d="M601.727,-128.269C629.15,-126.574 662.24,-124.596 692,-123 1093.04,-101.496 1578.28,-80.5973 1725.54,-74.3671"/>
<polygon fill="midnightblue" stroke="midnightblue" points="1725.71,-77.8632 1735.55,-73.9441 1725.41,-70.8694 1725.71,-77.8632"/>
</g>
<!-- Node10&#45;&gt;Node12 -->
<g id="edge13" class="edge"><title>Node10&#45;&gt;Node12</title>
<path fill="none" stroke="midnightblue" d="M601.687,-129.986C877.02,-120.539 2036.08,-80.767 2244.75,-73.6068"/>
<polygon fill="midnightblue" stroke="midnightblue" points="2244.88,-77.1042 2254.76,-73.2632 2244.64,-70.1083 2244.88,-77.1042"/>
</g>
<!-- Node10&#45;&gt;Node13 -->
<g id="edge14" class="edge"><title>Node10&#45;&gt;Node13</title>
<path fill="none" stroke="midnightblue" d="M601.7,-126.05C724.579,-113.595 1005.25,-85.1451 1098.92,-75.6503"/>
<polygon fill="midnightblue" stroke="midnightblue" points="1099.3,-79.1297 1108.9,-74.639 1098.6,-72.1654 1099.3,-79.1297"/>
</g>
<!-- Node14 -->
<g id="node14" class="node"><title>Node14</title>
<polygon fill="white" stroke="#bfbfbf" points="833,-62 833,-81 883,-81 883,-62 833,-62"/>
<text text-anchor="middle" x="858" y="-69" font-family="Helvetica,sans-Serif" font-size="10.00">atomic</text>
</g>
<!-- Node10&#45;&gt;Node14 -->
<g id="edge15" class="edge"><title>Node10&#45;&gt;Node14</title>
<path fill="none" stroke="midnightblue" d="M588.132,-123.475C651.391,-111.526 765.113,-90.0453 822.63,-79.181"/>
<polygon fill="midnightblue" stroke="midnightblue" points="823.514,-82.576 832.69,-77.2807 822.215,-75.6977 823.514,-82.576"/>
</g>
<!-- Node16&#45;&gt;Node3 -->
<g id="edge22" class="edge"><title>Node16&#45;&gt;Node3</title>
<path fill="none" stroke="midnightblue" d="M1253.46,-297.145C1202.11,-288.848 1124.6,-274.543 1059,-255 1036.06,-248.167 1031.42,-243.387 1009,-235 859.676,-179.132 681.224,-118.626 594.882,-89.7422"/>
<polygon fill="midnightblue" stroke="midnightblue" points="595.911,-86.3957 585.317,-86.5456 593.692,-93.0348 595.911,-86.3957"/>
</g>
<!-- Node16&#45;&gt;Node8 -->
<g id="edge21" class="edge"><title>Node16&#45;&gt;Node8</title>
<path fill="none" stroke="midnightblue" d="M1253.4,-304.594C1106.35,-301.751 715.021,-290.936 591,-255 565.788,-247.695 405.803,-156 383,-143 349.716,-124.026 311.845,-100.923 288.433,-86.4589"/>
<polygon fill="midnightblue" stroke="midnightblue" points="290.263,-83.4752 279.918,-81.1854 286.577,-89.4263 290.263,-83.4752"/>
</g>
<!-- Node16&#45;&gt;Node10 -->
<g id="edge49" class="edge"><title>Node16&#45;&gt;Node10</title>
<path fill="none" stroke="midnightblue" d="M1253.23,-297.652C1195.57,-289.156 1103.92,-274.208 1026,-255 997.477,-247.969 991.099,-243.571 963,-235 908.518,-218.381 892.799,-220.371 840,-199 822.309,-191.839 820.066,-185.153 802,-179 767.707,-167.321 676.341,-152.821 611.878,-143.491"/>
<polygon fill="midnightblue" stroke="midnightblue" points="612.172,-139.997 601.776,-142.039 611.176,-146.926 612.172,-139.997"/>
</g>
<!-- Node16&#45;&gt;Node11 -->
<g id="edge57" class="edge"><title>Node16&#45;&gt;Node11</title>
<path fill="none" stroke="midnightblue" d="M1366.9,-292.283C1412.98,-281.186 1473.89,-265.504 1497,-255 1601.18,-207.659 1709.82,-122.36 1751.88,-87.7305"/>
<polygon fill="midnightblue" stroke="midnightblue" points="1754.36,-90.2215 1759.82,-81.1419 1749.89,-84.8349 1754.36,-90.2215"/>
</g>
<!-- Node16&#45;&gt;Node12 -->
<g id="edge53" class="edge"><title>Node16&#45;&gt;Node12</title>
<path fill="none" stroke="midnightblue" d="M1366.54,-292.853C1487.81,-265.721 1763.59,-203.975 1784,-199 1913.03,-167.549 1944.31,-155.847 2073,-123 2133.81,-107.477 2205.01,-90.013 2245.18,-80.2258"/>
<polygon fill="midnightblue" stroke="midnightblue" points="2246.05,-83.6168 2254.94,-77.8508 2244.39,-76.8154 2246.05,-83.6168"/>
</g>
<!-- Node16&#45;&gt;Node13 -->
<g id="edge56" class="edge"><title>Node16&#45;&gt;Node13</title>
<path fill="none" stroke="midnightblue" d="M1328.85,-291.268C1349.94,-275.839 1385.55,-251.248 1419,-235 1466.57,-211.89 1547.4,-226.433 1524,-179 1505.91,-142.327 1488.58,-139.12 1451,-123 1351.43,-80.2905 1220.6,-73.2408 1161.45,-72.3839"/>
<polygon fill="midnightblue" stroke="midnightblue" points="1161.29,-68.8824 1151.26,-72.2888 1161.23,-75.8821 1161.29,-68.8824"/>
</g>
<!-- Node17 -->
<g id="node17" class="node"><title>Node17</title>
<g id="a_node17"><a xlink:href="runtime_2module_8h.html" target="_top" xlink:title="Runtime container of the functions generated by TVM, This is used to support dynamically link...">
<polygon fill="white" stroke="black" points="1248,-235.5 1248,-254.5 1372,-254.5 1372,-235.5 1248,-235.5"/>
<text text-anchor="middle" x="1310" y="-242.5" font-family="Helvetica,sans-Serif" font-size="10.00">tvm/runtime/module.h</text>
</a>
</g>
</g>
<!-- Node16&#45;&gt;Node17 -->
<g id="edge23" class="edge"><title>Node16&#45;&gt;Node17</title>
<path fill="none" stroke="midnightblue" d="M1304.16,-291.399C1303.13,-283.377 1302.97,-273.233 1303.69,-264.569"/>
<polygon fill="midnightblue" stroke="midnightblue" points="1307.16,-265.044 1305.07,-254.658 1300.23,-264.081 1307.16,-265.044"/>
</g>
<!-- Node19 -->
<g id="node19" class="node"><title>Node19</title>
<polygon fill="white" stroke="#bfbfbf" points="1458.5,-179.5 1458.5,-198.5 1515.5,-198.5 1515.5,-179.5 1458.5,-179.5"/>
<text text-anchor="middle" x="1487" y="-186.5" font-family="Helvetica,sans-Serif" font-size="10.00">memory</text>
</g>
<!-- Node16&#45;&gt;Node19 -->
<g id="edge55" class="edge"><title>Node16&#45;&gt;Node19</title>
<path fill="none" stroke="midnightblue" d="M1366.92,-291.621C1412.66,-279.945 1470.47,-263.79 1478,-255 1488.76,-242.437 1490.21,-223.217 1489.45,-208.932"/>
<polygon fill="midnightblue" stroke="midnightblue" points="1492.91,-208.387 1488.5,-198.754 1485.94,-209.036 1492.91,-208.387"/>
</g>
<!-- Node16&#45;&gt;Node20 -->
<g id="edge52" class="edge"><title>Node16&#45;&gt;Node20</title>
<path fill="none" stroke="midnightblue" d="M1253.28,-298.297C1188.72,-289.708 1080.26,-274.087 988,-255 946.052,-246.322 827.994,-214.839 769.586,-199.095"/>
<polygon fill="midnightblue" stroke="midnightblue" points="770.306,-195.664 759.74,-196.438 768.482,-202.423 770.306,-195.664"/>
</g>
<!-- Node22 -->
<g id="node22" class="node"><title>Node22</title>
<g id="a_node22"><a xlink:href="ndarray_8h.html" target="_top" xlink:title="A device&#45;independent managed NDArray abstraction. ">
<polygon fill="white" stroke="black" points="1068.5,-235.5 1068.5,-254.5 1191.5,-254.5 1191.5,-235.5 1068.5,-235.5"/>
<text text-anchor="middle" x="1130" y="-242.5" font-family="Helvetica,sans-Serif" font-size="10.00">tvm/runtime/ndarray.h</text>
</a>
</g>
</g>
<!-- Node16&#45;&gt;Node22 -->
<g id="edge33" class="edge"><title>Node16&#45;&gt;Node22</title>
<path fill="none" stroke="midnightblue" d="M1267.34,-291.399C1236.37,-281.163 1194.95,-267.47 1165.72,-257.808"/>
<polygon fill="midnightblue" stroke="midnightblue" points="1166.52,-254.386 1155.93,-254.571 1164.33,-261.033 1166.52,-254.386"/>
</g>
<!-- Node16&#45;&gt;Node25 -->
<g id="edge44" class="edge"><title>Node16&#45;&gt;Node25</title>
<path fill="none" stroke="midnightblue" d="M1253.19,-301.934C1091.17,-291.766 626.613,-262.608 440.498,-250.927"/>
<polygon fill="midnightblue" stroke="midnightblue" points="440.444,-247.417 430.244,-250.283 440.005,-254.403 440.444,-247.417"/>
</g>
<!-- Node26 -->
<g id="node26" class="node"><title>Node26</title>
<polygon fill="white" stroke="#bfbfbf" points="1640.5,-235.5 1640.5,-254.5 1703.5,-254.5 1703.5,-235.5 1640.5,-235.5"/>
<text text-anchor="middle" x="1672" y="-242.5" font-family="Helvetica,sans-Serif" font-size="10.00">functional</text>
</g>
<!-- Node16&#45;&gt;Node26 -->
<g id="edge50" class="edge"><title>Node16&#45;&gt;Node26</title>
<path fill="none" stroke="midnightblue" d="M1366.67,-292.616C1369.48,-292.052 1372.27,-291.51 1375,-291 1465.48,-274.074 1572.39,-259.095 1630.05,-251.425"/>
<polygon fill="midnightblue" stroke="midnightblue" points="1630.78,-254.86 1640.23,-250.08 1629.86,-247.921 1630.78,-254.86"/>
</g>
<!-- Node27 -->
<g id="node27" class="node"><title>Node27</title>
<polygon fill="white" stroke="#bfbfbf" points="1428.5,-235.5 1428.5,-254.5 1469.5,-254.5 1469.5,-235.5 1428.5,-235.5"/>
<text text-anchor="middle" x="1449" y="-242.5" font-family="Helvetica,sans-Serif" font-size="10.00">tuple</text>
</g>
<!-- Node16&#45;&gt;Node27 -->
<g id="edge51" class="edge"><title>Node16&#45;&gt;Node27</title>
<path fill="none" stroke="midnightblue" d="M1342.94,-291.399C1366.16,-281.461 1396.99,-268.265 1419.42,-258.662"/>
<polygon fill="midnightblue" stroke="midnightblue" points="1420.96,-261.811 1428.77,-254.658 1418.2,-255.375 1420.96,-261.811"/>
</g>
<!-- Node16&#45;&gt;Node28 -->
<g id="edge54" class="edge"><title>Node16&#45;&gt;Node28</title>
<path fill="none" stroke="midnightblue" d="M1366.61,-292.252C1369.44,-291.785 1372.25,-291.363 1375,-291 1579.86,-263.984 2243.32,-249.59 2395.63,-246.593"/>
<polygon fill="midnightblue" stroke="midnightblue" points="2395.77,-250.092 2405.7,-246.397 2395.64,-243.093 2395.77,-250.092"/>
</g>
<!-- Node17&#45;&gt;Node3 -->
<g id="edge25" class="edge"><title>Node17&#45;&gt;Node3</title>
<path fill="none" stroke="midnightblue" d="M1280.74,-235.455C1196.16,-210.834 952.268,-140.394 871,-123 784.321,-104.447 683.359,-89.9547 616.59,-81.343"/>
<polygon fill="midnightblue" stroke="midnightblue" points="616.947,-77.8602 606.584,-80.0634 616.059,-84.8037 616.947,-77.8602"/>
</g>
<!-- Node17&#45;&gt;Node9 -->
<g id="edge27" class="edge"><title>Node17&#45;&gt;Node9</title>
<path fill="none" stroke="midnightblue" d="M1372.37,-235.622C1444.24,-225.968 1562.2,-210.122 1638.47,-199.877"/>
<polygon fill="midnightblue" stroke="midnightblue" points="1639.04,-203.332 1648.49,-198.532 1638.11,-196.394 1639.04,-203.332"/>
</g>
<!-- Node17&#45;&gt;Node10 -->
<g id="edge26" class="edge"><title>Node17&#45;&gt;Node10</title>
<path fill="none" stroke="midnightblue" d="M1260.27,-235.499C1183.67,-222.53 1032.11,-197.374 903,-179 801.96,-164.621 684.605,-150.417 612.065,-141.926"/>
<polygon fill="midnightblue" stroke="midnightblue" points="612.034,-138.399 601.695,-140.716 611.222,-145.352 612.034,-138.399"/>
</g>
<!-- Node17&#45;&gt;Node12 -->
<g id="edge30" class="edge"><title>Node17&#45;&gt;Node12</title>
<path fill="none" stroke="midnightblue" d="M1325.34,-235.316C1350.43,-221.459 1402.17,-194.35 1449,-179 1746.86,-81.3734 2132.4,-72.6893 2244.89,-72.3451"/>
<polygon fill="midnightblue" stroke="midnightblue" points="2244.91,-75.8451 2254.91,-72.3351 2244.91,-68.8452 2244.91,-75.8451"/>
</g>
<!-- Node17&#45;&gt;Node16 -->
<g id="edge32" class="edge"><title>Node17&#45;&gt;Node16</title>
<path fill="none" stroke="midnightblue" d="M1314.93,-254.658C1316.43,-261.655 1317.01,-271.857 1316.64,-281.289"/>
<polygon fill="midnightblue" stroke="midnightblue" points="1313.14,-281.153 1315.84,-291.399 1320.12,-281.709 1313.14,-281.153"/>
</g>
<!-- Node18 -->
<g id="node18" class="node"><title>Node18</title>
<polygon fill="white" stroke="#bfbfbf" points="1382,-123.5 1382,-142.5 1442,-142.5 1442,-123.5 1382,-123.5"/>
<text text-anchor="middle" x="1412" y="-130.5" font-family="Helvetica,sans-Serif" font-size="10.00">dmlc/io.h</text>
</g>
<!-- Node17&#45;&gt;Node18 -->
<g id="edge24" class="edge"><title>Node17&#45;&gt;Node18</title>
<path fill="none" stroke="midnightblue" d="M1323.41,-235.406C1335.84,-227.043 1354.4,-213.506 1368,-199 1381.65,-184.438 1394.08,-165.265 1402.22,-151.521"/>
<polygon fill="midnightblue" stroke="midnightblue" points="1405.39,-153.03 1407.35,-142.618 1399.32,-149.538 1405.39,-153.03"/>
</g>
<!-- Node17&#45;&gt;Node19 -->
<g id="edge28" class="edge"><title>Node17&#45;&gt;Node19</title>
<path fill="none" stroke="midnightblue" d="M1338.05,-235.444C1368.08,-226.28 1415.91,-211.688 1449.24,-201.519"/>
<polygon fill="midnightblue" stroke="midnightblue" points="1450.54,-204.782 1459.09,-198.516 1448.5,-198.087 1450.54,-204.782"/>
</g>
<!-- Node17&#45;&gt;Node20 -->
<g id="edge29" class="edge"><title>Node17&#45;&gt;Node20</title>
<path fill="none" stroke="midnightblue" d="M1247.75,-238.144C1126.61,-226.747 862.857,-201.934 769.54,-193.155"/>
<polygon fill="midnightblue" stroke="midnightblue" points="769.812,-189.666 759.528,-192.213 769.156,-196.635 769.812,-189.666"/>
</g>
<!-- Node17&#45;&gt;Node21 -->
<g id="edge31" class="edge"><title>Node17&#45;&gt;Node21</title>
<path fill="none" stroke="midnightblue" d="M1372.25,-238.815C1387.54,-237.555 1403.86,-236.219 1419,-235 1608.53,-219.746 1833.31,-202.316 1936.32,-194.365"/>
<polygon fill="midnightblue" stroke="midnightblue" points="1936.79,-197.839 1946.49,-193.58 1936.25,-190.86 1936.79,-197.839"/>
</g>
<!-- Node22&#45;&gt;Node3 -->
<g id="edge34" class="edge"><title>Node22&#45;&gt;Node3</title>
<path fill="none" stroke="midnightblue" d="M1117.81,-235.281C1095.42,-219.395 1048.34,-186.665 1030,-179 955.996,-148.074 733.867,-106.103 616.896,-85.2914"/>
<polygon fill="midnightblue" stroke="midnightblue" points="617.4,-81.8263 606.943,-83.5264 616.178,-88.7187 617.4,-81.8263"/>
</g>
<!-- Node22&#45;&gt;Node10 -->
<g id="edge35" class="edge"><title>Node22&#45;&gt;Node10</title>
<path fill="none" stroke="midnightblue" d="M1095.34,-235.405C1041.12,-222.143 932.803,-196.409 840,-179 762.11,-164.389 672.042,-151.268 611.698,-143.017"/>
<polygon fill="midnightblue" stroke="midnightblue" points="611.912,-139.514 601.531,-141.634 610.969,-146.45 611.912,-139.514"/>
</g>
<!-- Node22&#45;&gt;Node13 -->
<g id="edge43" class="edge"><title>Node22&#45;&gt;Node13</title>
<path fill="none" stroke="midnightblue" d="M1130,-235.26C1130,-208.651 1130,-128.215 1130,-91.3382"/>
<polygon fill="midnightblue" stroke="midnightblue" points="1133.5,-91.0193 1130,-81.0194 1126.5,-91.0194 1133.5,-91.0193"/>
</g>
<!-- Node22&#45;&gt;Node14 -->
<g id="edge41" class="edge"><title>Node22&#45;&gt;Node14</title>
<path fill="none" stroke="midnightblue" d="M1123.16,-235.091C1112.51,-221.642 1090.78,-195.932 1068,-179 1010.47,-136.242 933.233,-102.094 890.271,-84.8208"/>
<polygon fill="midnightblue" stroke="midnightblue" points="891.467,-81.53 880.882,-81.0954 888.886,-88.0366 891.467,-81.53"/>
</g>
<!-- Node22&#45;&gt;Node20 -->
<g id="edge42" class="edge"><title>Node22&#45;&gt;Node20</title>
<path fill="none" stroke="midnightblue" d="M1068.44,-235.562C984.207,-224.018 835.952,-203.699 769.671,-194.615"/>
<polygon fill="midnightblue" stroke="midnightblue" points="770.142,-191.147 759.759,-193.256 769.191,-198.082 770.142,-191.147"/>
</g>
<!-- Node23 -->
<g id="node23" class="node"><title>Node23</title>
<g id="a_node23"><a xlink:href="serializer_8h.html" target="_top" xlink:title="Serializer extension to support TVM data types Include this file to enable serialization of DLDataTyp...">
<polygon fill="white" stroke="black" points="1196,-179.5 1196,-198.5 1326,-198.5 1326,-179.5 1196,-179.5"/>
<text text-anchor="middle" x="1261" y="-186.5" font-family="Helvetica,sans-Serif" font-size="10.00">tvm/runtime/serializer.h</text>
</a>
</g>
</g>
<!-- Node22&#45;&gt;Node23 -->
<g id="edge36" class="edge"><title>Node22&#45;&gt;Node23</title>
<path fill="none" stroke="midnightblue" d="M1145.67,-235.444C1165.45,-226.478 1199.59,-212.314 1225.7,-202.183"/>
<polygon fill="midnightblue" stroke="midnightblue" points="1227.18,-205.364 1235.26,-198.516 1224.67,-198.828 1227.18,-205.364"/>
</g>
<!-- Node23&#45;&gt;Node3 -->
<g id="edge39" class="edge"><title>Node23&#45;&gt;Node3</title>
<path fill="none" stroke="midnightblue" d="M1225.73,-179.495C1168.84,-166.009 1053.14,-139.555 954,-123 836.579,-103.393 699.098,-88.0219 616.638,-79.6103"/>
<polygon fill="midnightblue" stroke="midnightblue" points="616.915,-76.1205 606.613,-78.5943 616.209,-83.0848 616.915,-76.1205"/>
</g>
<!-- Node23&#45;&gt;Node18 -->
<g id="edge37" class="edge"><title>Node23&#45;&gt;Node18</title>
<path fill="none" stroke="midnightblue" d="M1284.93,-179.444C1310.22,-170.399 1350.3,-156.064 1378.68,-145.916"/>
<polygon fill="midnightblue" stroke="midnightblue" points="1379.95,-149.179 1388.19,-142.516 1377.59,-142.588 1379.95,-149.179"/>
</g>
<!-- Node23&#45;&gt;Node22 -->
<g id="edge40" class="edge"><title>Node23&#45;&gt;Node22</title>
<path fill="none" stroke="midnightblue" d="M1245.42,-198.516C1225.68,-207.467 1191.55,-221.629 1165.42,-231.772"/>
<polygon fill="midnightblue" stroke="midnightblue" points="1163.93,-228.595 1155.85,-235.444 1166.44,-235.131 1163.93,-228.595"/>
</g>
<!-- Node24 -->
<g id="node24" class="node"><title>Node24</title>
<polygon fill="white" stroke="#bfbfbf" points="1214,-123.5 1214,-142.5 1308,-142.5 1308,-123.5 1214,-123.5"/>
<text text-anchor="middle" x="1261" y="-130.5" font-family="Helvetica,sans-Serif" font-size="10.00">dmlc/serializer.h</text>
</g>
<!-- Node23&#45;&gt;Node24 -->
<g id="edge38" class="edge"><title>Node23&#45;&gt;Node24</title>
<path fill="none" stroke="midnightblue" d="M1261,-179.083C1261,-172.006 1261,-161.861 1261,-152.986"/>
<polygon fill="midnightblue" stroke="midnightblue" points="1264.5,-152.751 1261,-142.751 1257.5,-152.751 1264.5,-152.751"/>
</g>
<!-- Node25&#45;&gt;Node3 -->
<g id="edge45" class="edge"><title>Node25&#45;&gt;Node3</title>
<path fill="none" stroke="midnightblue" d="M369.183,-235.283C386.378,-214.657 431.703,-161.683 475,-123 487.117,-112.174 501.443,-101.285 513.814,-92.4045"/>
<polygon fill="midnightblue" stroke="midnightblue" points="515.872,-95.2356 522.014,-86.6028 511.829,-89.5212 515.872,-95.2356"/>
</g>
<!-- Node25&#45;&gt;Node8 -->
<g id="edge46" class="edge"><title>Node25&#45;&gt;Node8</title>
<path fill="none" stroke="midnightblue" d="M293.859,-236.349C247.006,-229.521 190.69,-217.668 176,-199 155.112,-172.455 158.932,-152.148 176,-123 186.716,-104.699 206.764,-92.5256 225.222,-84.7257"/>
<polygon fill="midnightblue" stroke="midnightblue" points="226.63,-87.9335 234.672,-81.0362 224.084,-81.4128 226.63,-87.9335"/>
</g>
<!-- Node25&#45;&gt;Node11 -->
<g id="edge47" class="edge"><title>Node25&#45;&gt;Node11</title>
<path fill="none" stroke="midnightblue" d="M403.359,-235.483C467.405,-222.438 594.515,-197.118 703,-179 875.719,-150.154 918.919,-141.968 1093,-123 1330.84,-97.0842 1617.16,-80.5159 1725.53,-74.7656"/>
<polygon fill="midnightblue" stroke="midnightblue" points="1725.96,-78.2482 1735.76,-74.2272 1725.59,-71.2579 1725.96,-78.2482"/>
</g>
<!-- Node25&#45;&gt;Node12 -->
<g id="edge48" class="edge"><title>Node25&#45;&gt;Node12</title>
<path fill="none" stroke="midnightblue" d="M430.047,-237.754C510.824,-230.041 649.519,-215.852 768,-199 963.173,-171.239 1009.05,-144.569 1205,-123 1414.12,-99.9817 2088.51,-78.2761 2244.56,-73.4798"/>
<polygon fill="midnightblue" stroke="midnightblue" points="2244.99,-76.9681 2254.88,-73.1639 2244.78,-69.9714 2244.99,-76.9681"/>
</g>
<!-- Node31&#45;&gt;Node3 -->
<g id="edge67" class="edge"><title>Node31&#45;&gt;Node3</title>
<path fill="none" stroke="midnightblue" d="M812.087,-545.089C687.253,-539.442 402.412,-506.058 300,-322 280.608,-287.148 258.991,-270.062 278,-235 320.51,-156.591 418.575,-111.696 482.75,-89.7206"/>
<polygon fill="midnightblue" stroke="midnightblue" points="483.975,-93.0015 492.353,-86.5161 481.759,-86.3615 483.975,-93.0015"/>
</g>
<!-- Node31&#45;&gt;Node9 -->
<g id="edge69" class="edge"><title>Node31&#45;&gt;Node9</title>
<path fill="none" stroke="midnightblue" d="M931.674,-543.308C1127.63,-533.864 1742.17,-499.23 1800,-434 1831.73,-398.206 2001.89,-646.653 1763,-235 1755.96,-222.872 1744.48,-212.313 1734.19,-204.477"/>
<polygon fill="midnightblue" stroke="midnightblue" points="1736.12,-201.55 1725.95,-198.56 1732.03,-207.236 1736.12,-201.55"/>
</g>
<!-- Node31&#45;&gt;Node10 -->
<g id="edge68" class="edge"><title>Node31&#45;&gt;Node10</title>
<path fill="none" stroke="midnightblue" d="M812.121,-541.396C778.866,-536.106 738.571,-524.85 710,-501 594.895,-404.912 555.495,-212.693 545.697,-152.477"/>
<polygon fill="midnightblue" stroke="midnightblue" points="549.148,-151.887 544.159,-142.54 542.23,-152.958 549.148,-151.887"/>
</g>
<!-- Node31&#45;&gt;Node11 -->
<g id="edge101" class="edge"><title>Node31&#45;&gt;Node11</title>
<path fill="none" stroke="midnightblue" d="M931.742,-545.793C1097.83,-544.742 1562.52,-538.442 1710,-501 1777.25,-483.927 1796.12,-476.449 1851,-434 1964.28,-346.378 2129.16,-297 2048,-179 1995.15,-102.154 1878.67,-80.7276 1814.53,-74.7735"/>
<polygon fill="midnightblue" stroke="midnightblue" points="1814.58,-71.2656 1804.33,-73.9161 1814,-78.2411 1814.58,-71.2656"/>
</g>
<!-- Node31&#45;&gt;Node12 -->
<g id="edge100" class="edge"><title>Node31&#45;&gt;Node12</title>
<path fill="none" stroke="midnightblue" d="M931.625,-544.976C1105.09,-541.684 1607.45,-529.859 1769,-501 1867.11,-483.474 1890.64,-471.46 1983,-434 2034.2,-413.231 2048.81,-409.803 2094,-378 2176.59,-319.87 2183.97,-286.738 2234,-199 2247.88,-174.652 2253.73,-169.452 2263,-143 2268.92,-126.087 2272.61,-105.964 2274.7,-91.5544"/>
<polygon fill="midnightblue" stroke="midnightblue" points="2278.2,-91.7675 2276.05,-81.3938 2271.26,-90.8461 2278.2,-91.7675"/>
</g>
<!-- Node31&#45;&gt;Node16 -->
<g id="edge70" class="edge"><title>Node31&#45;&gt;Node16</title>
<path fill="none" stroke="midnightblue" d="M880.347,-537.485C888.668,-528.753 901.536,-514.566 911,-501 936.267,-464.781 924.678,-441.789 959,-414 1042.13,-346.695 1167.27,-321.863 1243.51,-312.743"/>
<polygon fill="midnightblue" stroke="midnightblue" points="1243.93,-316.218 1253.47,-311.608 1243.14,-309.263 1243.93,-316.218"/>
</g>
<!-- Node31&#45;&gt;Node20 -->
<g id="edge99" class="edge"><title>Node31&#45;&gt;Node20</title>
<path fill="none" stroke="midnightblue" d="M871.496,-537.354C868.901,-498.927 854.463,-340.865 788,-235 780.462,-222.993 768.728,-212.442 758.313,-204.581"/>
<polygon fill="midnightblue" stroke="midnightblue" points="760.167,-201.604 749.996,-198.636 756.097,-207.299 760.167,-201.604"/>
</g>
<!-- Node31&#45;&gt;Node22 -->
<g id="edge71" class="edge"><title>Node31&#45;&gt;Node22</title>
<path fill="none" stroke="midnightblue" d="M874.908,-537.311C882.591,-515.178 905.057,-455.495 937,-414 988.428,-347.194 1069.68,-287.108 1108.27,-260.496"/>
<polygon fill="midnightblue" stroke="midnightblue" points="1110.4,-263.279 1116.69,-254.754 1106.45,-257.496 1110.4,-263.279"/>
</g>
<!-- Node31&#45;&gt;Node25 -->
<g id="edge72" class="edge"><title>Node31&#45;&gt;Node25</title>
<path fill="none" stroke="midnightblue" d="M812.328,-538.769C772.614,-532.405 720.032,-520.935 677,-501 543.573,-439.19 418.061,-308.351 376.466,-262.384"/>
<polygon fill="midnightblue" stroke="midnightblue" points="378.973,-259.937 369.693,-254.825 373.759,-264.608 378.973,-259.937"/>
</g>
<!-- Node31&#45;&gt;Node32 -->
<g id="edge73" class="edge"><title>Node31&#45;&gt;Node32</title>
<path fill="none" stroke="midnightblue" d="M858.102,-537.475C844.719,-529.266 824.002,-516.558 806.602,-505.885"/>
<polygon fill="midnightblue" stroke="midnightblue" points="808.215,-502.768 797.861,-500.523 804.555,-508.735 808.215,-502.768"/>
</g>
<!-- Node31&#45;&gt;Node35 -->
<g id="edge93" class="edge"><title>Node31&#45;&gt;Node35</title>
<path fill="none" stroke="midnightblue" d="M898.506,-537.475C925.786,-528.701 969.046,-514.788 1003.48,-503.712"/>
<polygon fill="midnightblue" stroke="midnightblue" points="1004.95,-506.917 1013.4,-500.523 1002.81,-500.253 1004.95,-506.917"/>
</g>
<!-- Node32&#45;&gt;Node12 -->
<g id="edge92" class="edge"><title>Node32&#45;&gt;Node12</title>
<path fill="none" stroke="midnightblue" d="M830.728,-480.435C874.549,-477.321 937.148,-473.054 992,-470 1171.46,-460.008 1628.31,-487.168 1800,-434 2017.12,-366.764 2211.46,-150.496 2263.43,-88.97"/>
<polygon fill="midnightblue" stroke="midnightblue" points="2266.32,-90.9682 2270.05,-81.0513 2260.95,-86.4784 2266.32,-90.9682"/>
</g>
<!-- Node32&#45;&gt;Node25 -->
<g id="edge74" class="edge"><title>Node32&#45;&gt;Node25</title>
<path fill="none" stroke="midnightblue" d="M748.69,-470.475C697.394,-442.973 580.663,-379.616 485,-322 463.245,-308.898 458.558,-304.424 437,-291 419.976,-280.4 400.556,-268.76 385.743,-259.974"/>
<polygon fill="midnightblue" stroke="midnightblue" points="387.135,-256.731 376.746,-254.653 383.571,-262.756 387.135,-256.731"/>
</g>
<!-- Node32&#45;&gt;Node33 -->
<g id="edge75" class="edge"><title>Node32&#45;&gt;Node33</title>
<path fill="none" stroke="midnightblue" d="M772.134,-470.323C764.876,-436.823 743.408,-351.08 703,-291 695.322,-279.584 684.182,-269.05 674.463,-261.048"/>
<polygon fill="midnightblue" stroke="midnightblue" points="676.433,-258.145 666.41,-254.71 672.103,-263.645 676.433,-258.145"/>
</g>
<!-- Node32&#45;&gt;Node34 -->
<g id="edge81" class="edge"><title>Node32&#45;&gt;Node34</title>
<path fill="none" stroke="midnightblue" d="M830.743,-480.683C874.572,-477.704 937.174,-473.499 992,-470 1238.06,-454.298 1530.22,-436.898 1661.72,-429.133"/>
<polygon fill="midnightblue" stroke="midnightblue" points="1662.27,-432.607 1672.04,-428.524 1661.85,-425.619 1662.27,-432.607"/>
</g>
<!-- Node33&#45;&gt;Node8 -->
<g id="edge76" class="edge"><title>Node33&#45;&gt;Node8</title>
<path fill="none" stroke="midnightblue" d="M634.759,-235.495C571.54,-207.552 369.97,-118.456 294.707,-85.1887"/>
<polygon fill="midnightblue" stroke="midnightblue" points="295.918,-81.8977 285.357,-81.056 293.088,-88.3001 295.918,-81.8977"/>
</g>
<!-- Node33&#45;&gt;Node10 -->
<g id="edge77" class="edge"><title>Node33&#45;&gt;Node10</title>
<path fill="none" stroke="midnightblue" d="M640.333,-235.268C627.623,-226.808 608.519,-213.206 594,-199 578.839,-184.166 564.176,-164.781 554.495,-151.053"/>
<polygon fill="midnightblue" stroke="midnightblue" points="557.205,-148.818 548.643,-142.577 551.445,-152.795 557.205,-148.818"/>
</g>
<!-- Node33&#45;&gt;Node11 -->
<g id="edge79" class="edge"><title>Node33&#45;&gt;Node11</title>
<path fill="none" stroke="midnightblue" d="M686.026,-235.467C770.322,-213.334 1005.59,-153.68 1205,-123 1397.56,-93.3734 1629.92,-79.3783 1725.57,-74.5481"/>
<polygon fill="midnightblue" stroke="midnightblue" points="1725.93,-78.0347 1735.74,-74.0432 1725.58,-71.0434 1725.93,-78.0347"/>
</g>
<!-- Node33&#45;&gt;Node13 -->
<g id="edge80" class="edge"><title>Node33&#45;&gt;Node13</title>
<path fill="none" stroke="midnightblue" d="M658.444,-235.078C665.826,-221.138 681.914,-194.216 703,-179 828.484,-88.4462 1022.69,-74.5156 1098.33,-72.6464"/>
<polygon fill="midnightblue" stroke="midnightblue" points="1098.68,-76.1406 1108.61,-72.4505 1098.54,-69.1418 1098.68,-76.1406"/>
</g>
<!-- Node33&#45;&gt;Node20 -->
<g id="edge78" class="edge"><title>Node33&#45;&gt;Node20</title>
<path fill="none" stroke="midnightblue" d="M667.175,-235.324C679.847,-226.979 699.233,-214.212 714.206,-204.352"/>
<polygon fill="midnightblue" stroke="midnightblue" points="716.431,-207.078 722.858,-198.655 712.581,-201.231 716.431,-207.078"/>
</g>
<!-- Node34&#45;&gt;Node7 -->
<g id="edge85" class="edge"><title>Node34&#45;&gt;Node7</title>
<path fill="none" stroke="midnightblue" d="M1673.06,-414.444C1606.66,-404.806 1498.9,-389.163 1428.74,-378.978"/>
<polygon fill="midnightblue" stroke="midnightblue" points="1429.07,-375.489 1418.67,-377.516 1428.06,-382.417 1429.07,-375.489"/>
</g>
<!-- Node34&#45;&gt;Node9 -->
<g id="edge83" class="edge"><title>Node34&#45;&gt;Node9</title>
<path fill="none" stroke="midnightblue" d="M1735.6,-414.222C1739.06,-405.285 1744.03,-390.942 1746,-378 1755.55,-315.166 1766.2,-295.258 1746,-235 1742.4,-224.251 1735.1,-214.02 1728.18,-206.038"/>
<polygon fill="midnightblue" stroke="midnightblue" points="1730.65,-203.556 1721.29,-198.605 1725.52,-208.317 1730.65,-203.556"/>
</g>
<!-- Node34&#45;&gt;Node10 -->
<g id="edge82" class="edge"><title>Node34&#45;&gt;Node10</title>
<path fill="none" stroke="midnightblue" d="M1672.16,-423.233C1558.63,-422.695 1304.58,-416.784 1095,-378 1010.95,-362.445 990.26,-354.014 911,-322 775.835,-267.406 623.404,-181.041 566.265,-147.731"/>
<polygon fill="midnightblue" stroke="midnightblue" points="568.026,-144.707 557.628,-142.676 564.49,-150.748 568.026,-144.707"/>
</g>
<!-- Node34&#45;&gt;Node11 -->
<g id="edge86" class="edge"><title>Node34&#45;&gt;Node11</title>
<path fill="none" stroke="midnightblue" d="M1739.23,-414.249C1746.05,-405.562 1756.1,-391.61 1762,-378 1804.49,-280.035 1804.43,-249.514 1812,-143 1812.63,-134.133 1815.02,-131.359 1812,-123 1807.2,-109.729 1797.23,-97.4878 1788.2,-88.3819"/>
<polygon fill="midnightblue" stroke="midnightblue" points="1790.34,-85.5807 1780.67,-81.2398 1785.52,-90.6602 1790.34,-85.5807"/>
</g>
<!-- Node34&#45;&gt;Node12 -->
<g id="edge91" class="edge"><title>Node34&#45;&gt;Node12</title>
<path fill="none" stroke="midnightblue" d="M1759.25,-414.495C1782.56,-406.653 1816.61,-393.844 1844,-378 2002.62,-286.246 2011.81,-218.833 2168,-123 2192.93,-107.704 2223.26,-94.0107 2245.59,-84.7553"/>
<polygon fill="midnightblue" stroke="midnightblue" points="2246.99,-87.9624 2254.93,-80.9471 2244.35,-81.48 2246.99,-87.9624"/>
</g>
<!-- Node34&#45;&gt;Node13 -->
<g id="edge90" class="edge"><title>Node34&#45;&gt;Node13</title>
<path fill="none" stroke="midnightblue" d="M1733.81,-414.131C1739.17,-385.273 1752.2,-292.601 1712,-235 1691.3,-205.335 1671.4,-215.089 1639,-199 1571.35,-165.408 1559.11,-145.471 1487,-123 1370.34,-86.6463 1224.02,-76.3709 1161.1,-73.5407"/>
<polygon fill="midnightblue" stroke="midnightblue" points="1161.18,-70.041 1151.04,-73.1207 1160.88,-77.0349 1161.18,-70.041"/>
</g>
<!-- Node34&#45;&gt;Node16 -->
<g id="edge84" class="edge"><title>Node34&#45;&gt;Node16</title>
<path fill="none" stroke="midnightblue" d="M1700.63,-414.413C1630.96,-395.346 1462.34,-349.194 1371.09,-324.219"/>
<polygon fill="midnightblue" stroke="midnightblue" points="1372,-320.84 1361.43,-321.575 1370.15,-327.591 1372,-320.84"/>
</g>
<!-- Node34&#45;&gt;Node20 -->
<g id="edge87" class="edge"><title>Node34&#45;&gt;Node20</title>
<path fill="none" stroke="midnightblue" d="M1672.24,-423.613C1541.95,-423.122 1224.26,-411.93 978,-322 904.884,-295.299 894.615,-271.753 826,-235 805.081,-223.795 781.021,-211.811 763.044,-203.029"/>
<polygon fill="midnightblue" stroke="midnightblue" points="764.264,-199.731 753.74,-198.505 761.203,-206.026 764.264,-199.731"/>
</g>
<!-- Node34&#45;&gt;Node21 -->
<g id="edge89" class="edge"><title>Node34&#45;&gt;Node21</title>
<path fill="none" stroke="midnightblue" d="M1759,-414.398C1778.37,-407.148 1804.11,-395.182 1822,-378 1853.85,-347.412 1838.7,-322.151 1870,-291 1893.68,-267.43 1909.92,-275.883 1936,-255 1953.49,-240.995 1969.97,-221.218 1980.66,-207.165"/>
<polygon fill="midnightblue" stroke="midnightblue" points="1983.67,-208.992 1986.81,-198.874 1978.04,-204.823 1983.67,-208.992"/>
</g>
<!-- Node34&#45;&gt;Node30 -->
<g id="edge88" class="edge"><title>Node34&#45;&gt;Node30</title>
<path fill="none" stroke="midnightblue" d="M1726.96,-414.319C1716,-395.422 1689.8,-350.248 1675.22,-325.121"/>
<polygon fill="midnightblue" stroke="midnightblue" points="1678.14,-323.176 1670.09,-316.282 1672.08,-326.688 1678.14,-323.176"/>
</g>
<!-- Node35&#45;&gt;Node12 -->
<g id="edge97" class="edge"><title>Node35&#45;&gt;Node12</title>
<path fill="none" stroke="midnightblue" d="M1112.68,-484.182C1280.5,-482.771 1779.48,-475.135 1936,-434 2030.8,-409.085 2059.9,-394.387 2126,-322 2195.39,-246.009 2249.77,-133.419 2269.24,-90.2398"/>
<polygon fill="midnightblue" stroke="midnightblue" points="2272.47,-91.5938 2273.34,-81.0342 2266.08,-88.75 2272.47,-91.5938"/>
</g>
<!-- Node35&#45;&gt;Node25 -->
<g id="edge94" class="edge"><title>Node35&#45;&gt;Node25</title>
<path fill="none" stroke="midnightblue" d="M1016.12,-470.471C890.728,-427.441 513.021,-297.825 396.567,-257.862"/>
<polygon fill="midnightblue" stroke="midnightblue" points="397.657,-254.536 387.063,-254.601 395.385,-261.157 397.657,-254.536"/>
</g>
<!-- Node35&#45;&gt;Node26 -->
<g id="edge98" class="edge"><title>Node35&#45;&gt;Node26</title>
<path fill="none" stroke="midnightblue" d="M1112.81,-473.071C1187.79,-456.76 1324.39,-423.647 1435,-378 1518.61,-343.496 1610.15,-286.478 1650.67,-260.14"/>
<polygon fill="midnightblue" stroke="midnightblue" points="1652.73,-262.974 1659.18,-254.569 1648.9,-257.116 1652.73,-262.974"/>
</g>
<!-- Node35&#45;&gt;Node33 -->
<g id="edge95" class="edge"><title>Node35&#45;&gt;Node33</title>
<path fill="none" stroke="midnightblue" d="M1033.3,-470.471C961.763,-428.138 748.622,-301.998 677.44,-259.872"/>
<polygon fill="midnightblue" stroke="midnightblue" points="679.125,-256.802 668.737,-254.721 675.56,-262.827 679.125,-256.802"/>
</g>
<!-- Node35&#45;&gt;Node34 -->
<g id="edge96" class="edge"><title>Node35&#45;&gt;Node34</title>
<path fill="none" stroke="midnightblue" d="M1112.52,-479.606C1234.85,-468.823 1527.39,-443.036 1662.02,-431.169"/>
<polygon fill="midnightblue" stroke="midnightblue" points="1662.56,-434.635 1672.21,-430.27 1661.94,-427.662 1662.56,-434.635"/>
</g>
<!-- Node36&#45;&gt;Node33 -->
<g id="edge103" class="edge"><title>Node36&#45;&gt;Node33</title>
<path fill="none" stroke="midnightblue" d="M489.43,-537.371C524.174,-510.324 628.395,-422.966 665,-322 671.867,-303.059 666.793,-279.995 661.483,-264.277"/>
<polygon fill="midnightblue" stroke="midnightblue" points="664.689,-262.856 657.913,-254.71 658.13,-265.303 664.689,-262.856"/>
</g>
<!-- Node36&#45;&gt;Node37 -->
<g id="edge104" class="edge"><title>Node36&#45;&gt;Node37</title>
<path fill="none" stroke="midnightblue" d="M462.096,-537.475C443.715,-527.622 413.244,-511.288 391.755,-499.77"/>
<polygon fill="midnightblue" stroke="midnightblue" points="393.341,-496.649 382.874,-495.009 390.034,-502.818 393.341,-496.649"/>
</g>
<!-- Node38&#45;&gt;Node2 -->
<g id="edge118" class="edge"><title>Node38&#45;&gt;Node2</title>
<path fill="none" stroke="midnightblue" d="M631.918,-761.39C618.438,-753.872 601.028,-741.565 593,-725 589.124,-717.001 589.836,-713.307 593,-705 606.949,-668.379 640.947,-636.59 662.934,-618.891"/>
<polygon fill="midnightblue" stroke="midnightblue" points="665.251,-621.522 670.98,-612.609 660.943,-616.004 665.251,-621.522"/>
</g>
<!-- Node38&#45;&gt;Node10 -->
<g id="edge117" class="edge"><title>Node38&#45;&gt;Node10</title>
<path fill="none" stroke="midnightblue" d="M630.492,-761.464C526.594,-715.932 43,-503.11 43,-486.5 43,-486.5 43,-486.5 43,-367 43,-178.972 337.099,-142.307 474.184,-135.429"/>
<polygon fill="midnightblue" stroke="midnightblue" points="474.346,-138.925 484.173,-134.967 474.022,-131.933 474.346,-138.925"/>
</g>
<!-- Node38&#45;&gt;Node11 -->
<g id="edge134" class="edge"><title>Node38&#45;&gt;Node11</title>
<path fill="none" stroke="midnightblue" d="M688.643,-769.459C871.264,-766.769 1648.96,-753.804 1890,-725 2013.42,-710.251 2055.07,-728.87 2164,-669 2262.75,-614.723 2340,-599.184 2340,-486.5 2340,-486.5 2340,-486.5 2340,-423 2340,-236.003 2217.3,-195.67 2045,-123 1968.11,-90.569 1870.47,-78.9216 1814.62,-74.769"/>
<polygon fill="midnightblue" stroke="midnightblue" points="1814.58,-71.2579 1804.36,-74.056 1814.1,-78.241 1814.58,-71.2579"/>
</g>
<!-- Node38&#45;&gt;Node12 -->
<g id="edge131" class="edge"><title>Node38&#45;&gt;Node12</title>
<path fill="none" stroke="midnightblue" d="M688.798,-769.56C927.902,-766.771 2193.64,-750.825 2271,-725 2408.08,-679.24 2492,-631.012 2492,-486.5 2492,-486.5 2492,-486.5 2492,-367 2492,-306.306 2488.5,-286.88 2457,-235 2418.63,-171.803 2389,-172.404 2334,-123 2320.83,-111.173 2305.85,-97.9051 2294.55,-87.938"/>
<polygon fill="midnightblue" stroke="midnightblue" points="2296.53,-85.0227 2286.72,-81.038 2291.91,-90.2749 2296.53,-85.0227"/>
</g>
<!-- Node38&#45;&gt;Node28 -->
<g id="edge133" class="edge"><title>Node38&#45;&gt;Node28</title>
<path fill="none" stroke="midnightblue" d="M688.592,-769.899C925.017,-769.158 2169.89,-763.434 2240,-725 2375.55,-650.692 2416,-579.585 2416,-425 2416,-425 2416,-425 2416,-367 2416,-330.745 2420.96,-288.631 2424.22,-264.867"/>
<polygon fill="midnightblue" stroke="midnightblue" points="2427.71,-265.174 2425.65,-254.781 2420.78,-264.189 2427.71,-265.174"/>
</g>
<!-- Node38&#45;&gt;Node34 -->
<g id="edge119" class="edge"><title>Node38&#45;&gt;Node34</title>
<path fill="none" stroke="midnightblue" d="M688.586,-769.247C923.371,-764.416 2150,-735.56 2150,-660 2150,-660 2150,-660 2150,-546 2150,-474.426 1921.01,-442.517 1802.01,-430.766"/>
<polygon fill="midnightblue" stroke="midnightblue" points="1802.18,-427.267 1791.89,-429.79 1801.51,-434.234 1802.18,-427.267"/>
</g>
<!-- Node39 -->
<g id="node39" class="node"><title>Node39</title>
<g id="a_node39"><a xlink:href="span_8h.html" target="_top" xlink:title="Span information for debugging purposes. ">
<polygon fill="white" stroke="black" points="668,-649.5 668,-668.5 748,-668.5 748,-649.5 668,-649.5"/>
<text text-anchor="middle" x="708" y="-656.5" font-family="Helvetica,sans-Serif" font-size="10.00">tvm/ir/span.h</text>
</a>
</g>
</g>
<!-- Node38&#45;&gt;Node39 -->
<g id="edge120" class="edge"><title>Node38&#45;&gt;Node39</title>
<path fill="none" stroke="midnightblue" d="M659.038,-761.499C667.596,-752.997 680.256,-739.179 688,-725 695.958,-710.428 701.208,-692.252 704.324,-678.828"/>
<polygon fill="midnightblue" stroke="midnightblue" points="707.789,-679.363 706.452,-668.853 700.943,-677.903 707.789,-679.363"/>
</g>
<!-- Node40 -->
<g id="node40" class="node"><title>Node40</title>
<g id="a_node40"><a xlink:href="ir_2type_8h.html" target="_top" xlink:title="IR/AST nodes for the unified type system in TVM. ">
<polygon fill="white" stroke="black" points="602.5,-705.5 602.5,-724.5 679.5,-724.5 679.5,-705.5 602.5,-705.5"/>
<text text-anchor="middle" x="641" y="-712.5" font-family="Helvetica,sans-Serif" font-size="10.00">tvm/ir/type.h</text>
</a>
</g>
</g>
<!-- Node38&#45;&gt;Node40 -->
<g id="edge124" class="edge"><title>Node38&#45;&gt;Node40</title>
<path fill="none" stroke="midnightblue" d="M648.514,-761.083C647.321,-753.927 645.606,-743.635 644.115,-734.691"/>
<polygon fill="midnightblue" stroke="midnightblue" points="647.555,-734.04 642.459,-724.751 640.65,-735.19 647.555,-734.04"/>
</g>
<!-- Node38&#45;&gt;Node41 -->
<g id="edge132" class="edge"><title>Node38&#45;&gt;Node41</title>
<path fill="none" stroke="midnightblue" d="M619.577,-761.444C586.715,-752.201 534.215,-737.436 498.026,-727.257"/>
<polygon fill="midnightblue" stroke="midnightblue" points="498.855,-723.855 488.281,-724.516 496.96,-730.593 498.855,-723.855"/>
</g>
<!-- Node39&#45;&gt;Node2 -->
<g id="edge122" class="edge"><title>Node39&#45;&gt;Node2</title>
<path fill="none" stroke="midnightblue" d="M703.872,-649.083C700.486,-641.77 695.584,-631.181 691.381,-622.103"/>
<polygon fill="midnightblue" stroke="midnightblue" points="694.429,-620.355 687.051,-612.751 688.077,-623.296 694.429,-620.355"/>
</g>
<!-- Node39&#45;&gt;Node10 -->
<g id="edge121" class="edge"><title>Node39&#45;&gt;Node10</title>
<path fill="none" stroke="midnightblue" d="M667.88,-655.632C586.503,-648.384 403.376,-619.078 328,-501 263.274,-399.605 213.168,-336.327 278,-235 298.578,-202.839 321.762,-215.897 356,-199 373.115,-190.554 376.34,-186.236 394,-179 428.147,-165.008 468.263,-153.139 498.262,-145.109"/>
<polygon fill="midnightblue" stroke="midnightblue" points="499.248,-148.469 508.025,-142.535 497.463,-141.7 499.248,-148.469"/>
</g>
<!-- Node39&#45;&gt;Node12 -->
<g id="edge123" class="edge"><title>Node39&#45;&gt;Node12</title>
<path fill="none" stroke="midnightblue" d="M748.184,-657.485C958.896,-654.237 1936.76,-632.211 2204,-501 2243.83,-481.446 2258.81,-474.003 2278,-434 2323.25,-339.662 2286.09,-303.463 2292,-199 2293.91,-165.25 2300.76,-156.31 2295,-123 2293.09,-111.938 2288.98,-100.09 2285.17,-90.6524"/>
<polygon fill="midnightblue" stroke="midnightblue" points="2288.28,-89.0133 2281.13,-81.191 2281.84,-91.7622 2288.28,-89.0133"/>
</g>
<!-- Node40&#45;&gt;Node2 -->
<g id="edge127" class="edge"><title>Node40&#45;&gt;Node2</title>
<path fill="none" stroke="midnightblue" d="M642.75,-705.39C645.459,-692.756 651.181,-668.573 659,-649 662.736,-639.647 667.891,-629.721 672.465,-621.578"/>
<polygon fill="midnightblue" stroke="midnightblue" points="675.632,-623.094 677.623,-612.688 669.577,-619.581 675.632,-623.094"/>
</g>
<!-- Node40&#45;&gt;Node10 -->
<g id="edge125" class="edge"><title>Node40&#45;&gt;Node10</title>
<path fill="none" stroke="midnightblue" d="M616.136,-705.496C546.071,-681.52 351.902,-614.986 349,-613 269.134,-558.34 244.63,-528.768 225,-434 206.72,-345.746 207.083,-304.881 264,-235 315.415,-171.874 409.684,-148.197 474.298,-139.319"/>
<polygon fill="midnightblue" stroke="midnightblue" points="474.931,-142.767 484.402,-138.018 474.037,-135.824 474.931,-142.767"/>
</g>
<!-- Node40&#45;&gt;Node12 -->
<g id="edge130" class="edge"><title>Node40&#45;&gt;Node12</title>
<path fill="none" stroke="midnightblue" d="M679.687,-713.335C855.712,-710.183 1582.12,-695.772 1808,-669 1934.03,-654.063 1970.44,-660.812 2088,-613 2230.29,-555.131 2378,-578.603 2378,-425 2378,-425 2378,-425 2378,-305.5 2378,-218.116 2317.46,-126.375 2290.12,-89.4042"/>
<polygon fill="midnightblue" stroke="midnightblue" points="2292.76,-87.0933 2283.94,-81.2209 2287.17,-91.3109 2292.76,-87.0933"/>
</g>
<!-- Node40&#45;&gt;Node25 -->
<g id="edge126" class="edge"><title>Node40&#45;&gt;Node25</title>
<path fill="none" stroke="midnightblue" d="M628.617,-705.314C608.31,-691.454 566.258,-664.34 527,-649 460.724,-623.103 424.705,-659.678 371,-613 330.756,-578.022 337.718,-553.427 328,-501 325.489,-487.453 323.205,-482.917 328,-470 335.348,-450.205 351.3,-453.66 359,-434 368.083,-410.81 360.461,-402.899 361,-378 361.873,-337.666 362.018,-290.385 362.024,-264.784"/>
<polygon fill="midnightblue" stroke="midnightblue" points="365.524,-264.648 362.019,-254.65 358.524,-264.652 365.524,-264.648"/>
</g>
<!-- Node40&#45;&gt;Node34 -->
<g id="edge128" class="edge"><title>Node40&#45;&gt;Node34</title>
<path fill="none" stroke="midnightblue" d="M679.7,-713.11C908.479,-707.602 2074,-676.009 2074,-604 2074,-604 2074,-604 2074,-546 2074,-488.763 1901.6,-451.807 1801.61,-435.186"/>
<polygon fill="midnightblue" stroke="midnightblue" points="1802.01,-431.704 1791.57,-433.545 1800.88,-438.613 1802.01,-431.704"/>
</g>
<!-- Node40&#45;&gt;Node39 -->
<g id="edge129" class="edge"><title>Node40&#45;&gt;Node39</title>
<path fill="none" stroke="midnightblue" d="M651.765,-705.324C661.766,-697.263 676.887,-685.077 688.93,-675.369"/>
<polygon fill="midnightblue" stroke="midnightblue" points="691.45,-677.834 697.039,-668.834 687.057,-672.384 691.45,-677.834"/>
</g>
<!-- Node42&#45;&gt;Node2 -->
<g id="edge136" class="edge"><title>Node42&#45;&gt;Node2</title>
<path fill="none" stroke="midnightblue" d="M505.031,-817.454C467.463,-798.412 386.596,-750.577 418,-705 464.044,-638.176 560.65,-615.532 623.623,-607.879"/>
<polygon fill="midnightblue" stroke="midnightblue" points="624.265,-611.329 633.812,-606.736 623.484,-604.373 624.265,-611.329"/>
</g>
<!-- Node42&#45;&gt;Node12 -->
<g id="edge139" class="edge"><title>Node42&#45;&gt;Node12</title>
<path fill="none" stroke="midnightblue" d="M560.171,-825.892C784.894,-824.943 1963.92,-815.653 2312,-725 2419.24,-697.072 2530,-714.813 2530,-604 2530,-604 2530,-604 2530,-484.5 2530,-404.041 2568,-387.959 2568,-307.5 2568,-307.5 2568,-307.5 2568,-188 2568,-132.842 2385.1,-92.548 2309.31,-78.2175"/>
<polygon fill="midnightblue" stroke="midnightblue" points="2309.82,-74.7536 2299.35,-76.3688 2308.54,-81.636 2309.82,-74.7536"/>
</g>
<!-- Node42&#45;&gt;Node25 -->
<g id="edge137" class="edge"><title>Node42&#45;&gt;Node25</title>
<path fill="none" stroke="midnightblue" d="M489.595,-817.463C468.51,-810.608 441.962,-799.083 424,-781 347.914,-704.399 355.086,-662.011 330,-557 304.025,-448.27 340.557,-313.195 355.832,-264.542"/>
<polygon fill="midnightblue" stroke="midnightblue" points="359.236,-265.39 358.975,-254.798 352.574,-263.241 359.236,-265.39"/>
</g>
<!-- Node42&#45;&gt;Node38 -->
<g id="edge138" class="edge"><title>Node42&#45;&gt;Node38</title>
<path fill="none" stroke="midnightblue" d="M543.124,-817.444C564.024,-808.557 596.935,-794.563 620.716,-784.451"/>
<polygon fill="midnightblue" stroke="midnightblue" points="622.138,-787.65 629.971,-780.516 619.398,-781.208 622.138,-787.65"/>
</g>
<!-- Node43&#45;&gt;Node12 -->
<g id="edge144" class="edge"><title>Node43&#45;&gt;Node12</title>
<path fill="none" stroke="midnightblue" d="M703.616,-881.851C854.228,-880.998 1366.27,-875.276 1787,-837 1962.71,-821.015 2007.35,-817.308 2180,-781 2270.33,-762.004 2292.27,-753.709 2380,-725 2447.24,-702.998 2480.34,-720.352 2529,-669 2607.22,-586.456 2606,-538.716 2606,-425 2606,-425 2606,-425 2606,-188 2606,-125.512 2392.03,-88.6942 2309.2,-76.7829"/>
<polygon fill="midnightblue" stroke="midnightblue" points="2309.49,-73.2884 2299.1,-75.3601 2308.51,-80.22 2309.49,-73.2884"/>
</g>
<!-- Node43&#45;&gt;Node34 -->
<g id="edge141" class="edge"><title>Node43&#45;&gt;Node34</title>
<path fill="none" stroke="midnightblue" d="M703.706,-881.181C951.137,-876.103 2168.99,-845.096 2278,-725 2372.46,-620.934 2218.53,-529.051 2091,-470 2041.05,-446.874 1891.26,-434.322 1801.72,-428.705"/>
<polygon fill="midnightblue" stroke="midnightblue" points="1801.84,-425.206 1791.65,-428.086 1801.41,-432.193 1801.84,-425.206"/>
</g>
<!-- Node43&#45;&gt;Node38 -->
<g id="edge142" class="edge"><title>Node43&#45;&gt;Node38</title>
<path fill="none" stroke="midnightblue" d="M659.215,-873.368C657.602,-855.617 653.879,-814.666 651.691,-790.597"/>
<polygon fill="midnightblue" stroke="midnightblue" points="655.172,-790.233 650.781,-780.591 648.201,-790.867 655.172,-790.233"/>
</g>
<!-- Node43&#45;&gt;Node42 -->
<g id="edge143" class="edge"><title>Node43&#45;&gt;Node42</title>
<path fill="none" stroke="midnightblue" d="M638.292,-873.444C615.645,-864.517 579.928,-850.439 554.248,-840.317"/>
<polygon fill="midnightblue" stroke="midnightblue" points="555.193,-836.927 544.606,-836.516 552.626,-843.44 555.193,-836.927"/>
</g>
</g>
</svg>
