<?xml version="1.0" encoding="UTF-8" standalone="no"?>
<!DOCTYPE svg PUBLIC "-//W3C//DTD SVG 1.1//EN"
 "http://www.w3.org/Graphics/SVG/1.1/DTD/svg11.dtd">
<!-- Generated by graphviz version 2.38.0 (20140413.2041)
 -->
<!-- Title: topi/include/topi/util.h Pages: 1 -->
<svg width="2420pt" height="845pt"
 viewBox="0.00 0.00 2420.00 845.00" xmlns="http://www.w3.org/2000/svg" xmlns:xlink="http://www.w3.org/1999/xlink">
<g id="graph0" class="graph" transform="scale(1 1) rotate(0) translate(4 841)">
<title>topi/include/topi/util.h</title>
<polygon fill="white" stroke="none" points="-4,4 -4,-841 2416,-841 2416,4 -4,4"/>
<!-- Node1 -->
<g id="node1" class="node"><title>Node1</title>
<polygon fill="#bfbfbf" stroke="black" points="1691.5,-817.5 1691.5,-836.5 1810.5,-836.5 1810.5,-817.5 1691.5,-817.5"/>
<text text-anchor="middle" x="1751" y="-824.5" font-family="Helvetica,sans-Serif" font-size="10.00">topi/include/topi/util.h</text>
</g>
<!-- Node2 -->
<g id="node2" class="node"><title>Node2</title>
<g id="a_node2"><a xlink:href="ir_2expr_8h.html" target="_top" xlink:title="Base expr nodes in TVM. ">
<polygon fill="white" stroke="black" points="1066.5,-761.5 1066.5,-780.5 1143.5,-780.5 1143.5,-761.5 1066.5,-761.5"/>
<text text-anchor="middle" x="1105" y="-768.5" font-family="Helvetica,sans-Serif" font-size="10.00">tvm/ir/expr.h</text>
</a>
</g>
</g>
<!-- Node1&#45;&gt;Node2 -->
<g id="edge1" class="edge"><title>Node1&#45;&gt;Node2</title>
<path fill="none" stroke="midnightblue" d="M1691.38,-821.017C1564.65,-810.422 1270.51,-785.836 1153.9,-776.088"/>
<polygon fill="midnightblue" stroke="midnightblue" points="1154.09,-772.592 1143.84,-775.246 1153.51,-779.567 1154.09,-772.592"/>
</g>
<!-- Node17 -->
<g id="node17" class="node"><title>Node17</title>
<g id="a_node17"><a xlink:href="packed__func_8h.html" target="_top" xlink:title="Type&#45;erased function used across TVM API. ">
<polygon fill="white" stroke="black" points="1232.5,-291.5 1232.5,-321.5 1345.5,-321.5 1345.5,-291.5 1232.5,-291.5"/>
<text text-anchor="start" x="1240.5" y="-309.5" font-family="Helvetica,sans-Serif" font-size="10.00">tvm/runtime/packed</text>
<text text-anchor="middle" x="1289" y="-298.5" font-family="Helvetica,sans-Serif" font-size="10.00">_func.h</text>
</a>
</g>
</g>
<!-- Node1&#45;&gt;Node17 -->
<g id="edge130" class="edge"><title>Node1&#45;&gt;Node17</title>
<path fill="none" stroke="midnightblue" d="M1810.74,-821.7C1966.67,-809.679 2374,-772.838 2374,-716 2374,-716 2374,-716 2374,-658 2374,-442.954 1592.46,-340.463 1355.99,-314.374"/>
<polygon fill="midnightblue" stroke="midnightblue" points="1356.13,-310.868 1345.81,-313.261 1355.37,-317.827 1356.13,-310.868"/>
</g>
<!-- Node3 -->
<g id="node3" class="node"><title>Node3</title>
<g id="a_node3"><a xlink:href="object_8h.html" target="_top" xlink:title="A managed object in the TVM runtime. ">
<polygon fill="white" stroke="black" points="1090.5,-123.5 1090.5,-142.5 1207.5,-142.5 1207.5,-123.5 1090.5,-123.5"/>
<text text-anchor="middle" x="1149" y="-130.5" font-family="Helvetica,sans-Serif" font-size="10.00">tvm/runtime/object.h</text>
</a>
</g>
</g>
<!-- Node2&#45;&gt;Node3 -->
<g id="edge2" class="edge"><title>Node2&#45;&gt;Node3</title>
<path fill="none" stroke="midnightblue" d="M1101.09,-761.365C1093.17,-743.073 1076,-698.907 1076,-660 1076,-660 1076,-660 1076,-602 1076,-513.297 1057.98,-487.952 1009,-414 989.502,-384.563 789.199,-231.328 775,-199 771.425,-190.861 769.102,-185.65 775,-179 794.849,-156.619 977.37,-143.244 1079.9,-137.433"/>
<polygon fill="midnightblue" stroke="midnightblue" points="1080.38,-140.912 1090.17,-136.861 1079.99,-133.923 1080.38,-140.912"/>
</g>
<!-- Node9 -->
<g id="node9" class="node"><title>Node9</title>
<polygon fill="white" stroke="#bfbfbf" points="198,-62 198,-81 266,-81 266,-62 198,-62"/>
<text text-anchor="middle" x="232" y="-69" font-family="Helvetica,sans-Serif" font-size="10.00">type_traits</text>
</g>
<!-- Node2&#45;&gt;Node9 -->
<g id="edge129" class="edge"><title>Node2&#45;&gt;Node9</title>
<path fill="none" stroke="midnightblue" d="M1066.31,-770.135C909.708,-770.384 322.703,-768.346 143,-725 75.1332,-708.63 0,-729.813 0,-660 0,-660 0,-660 0,-188 0,-105.146 120.045,-81.7268 187.431,-75.1077"/>
<polygon fill="midnightblue" stroke="midnightblue" points="188.119,-78.5602 197.768,-74.1831 187.496,-71.588 188.119,-78.5602"/>
</g>
<!-- Node10 -->
<g id="node10" class="node"><title>Node10</title>
<polygon fill="white" stroke="#bfbfbf" points="2162,-62 2162,-81 2206,-81 2206,-62 2162,-62"/>
<text text-anchor="middle" x="2184" y="-69" font-family="Helvetica,sans-Serif" font-size="10.00">string</text>
</g>
<!-- Node2&#45;&gt;Node10 -->
<g id="edge126" class="edge"><title>Node2&#45;&gt;Node10</title>
<path fill="none" stroke="midnightblue" d="M1143.7,-769.401C1324.78,-766.202 2088.93,-748.163 2312,-669 2361.96,-651.271 2412,-657.008 2412,-604 2412,-604 2412,-604 2412,-188 2412,-101.382 2279.43,-79.7038 2216.47,-74.2927"/>
<polygon fill="midnightblue" stroke="midnightblue" points="2216.52,-70.7862 2206.28,-73.5074 2215.98,-77.7655 2216.52,-70.7862"/>
</g>
<!-- Node13 -->
<g id="node13" class="node"><title>Node13</title>
<g id="a_node13"><a xlink:href="node_8h.html" target="_top" xlink:title="Definitions and helper macros for IR/AST nodes. ">
<polygon fill="white" stroke="black" points="950,-593.5 950,-612.5 1048,-612.5 1048,-593.5 950,-593.5"/>
<text text-anchor="middle" x="999" y="-600.5" font-family="Helvetica,sans-Serif" font-size="10.00">tvm/node/node.h</text>
</a>
</g>
</g>
<!-- Node2&#45;&gt;Node13 -->
<g id="edge12" class="edge"><title>Node2&#45;&gt;Node13</title>
<path fill="none" stroke="midnightblue" d="M1095.29,-761.368C1085.99,-752.77 1071.94,-738.882 1062,-725 1037.74,-691.115 1017.07,-646.646 1006.51,-622.151"/>
<polygon fill="midnightblue" stroke="midnightblue" points="1009.63,-620.536 1002.51,-612.688 1003.18,-623.261 1009.63,-620.536"/>
</g>
<!-- Node29 -->
<g id="node29" class="node"><title>Node29</title>
<polygon fill="white" stroke="#bfbfbf" points="370,-235.5 370,-254.5 412,-254.5 412,-235.5 370,-235.5"/>
<text text-anchor="middle" x="391" y="-242.5" font-family="Helvetica,sans-Serif" font-size="10.00">limits</text>
</g>
<!-- Node2&#45;&gt;Node29 -->
<g id="edge128" class="edge"><title>Node2&#45;&gt;Node29</title>
<path fill="none" stroke="midnightblue" d="M1066.23,-770.005C878.847,-769.53 76,-761.566 76,-660 76,-660 76,-660 76,-602 76,-428.284 288.972,-299.553 364.682,-259.279"/>
<polygon fill="midnightblue" stroke="midnightblue" points="366.381,-262.34 373.616,-254.6 363.133,-256.139 366.381,-262.34"/>
</g>
<!-- Node35 -->
<g id="node35" class="node"><title>Node35</title>
<g id="a_node35"><a xlink:href="node_2container_8h.html" target="_top" xlink:title="Array/Map container in the DSL graph. ">
<polygon fill="white" stroke="black" points="881.5,-414.5 881.5,-433.5 1000.5,-433.5 1000.5,-414.5 881.5,-414.5"/>
<text text-anchor="middle" x="941" y="-421.5" font-family="Helvetica,sans-Serif" font-size="10.00">tvm/node/container.h</text>
</a>
</g>
</g>
<!-- Node2&#45;&gt;Node35 -->
<g id="edge114" class="edge"><title>Node2&#45;&gt;Node35</title>
<path fill="none" stroke="midnightblue" d="M1066.23,-770.435C993.973,-769.003 846,-754.53 846,-660 846,-660 846,-660 846,-546 846,-499.247 890.421,-459.855 918.513,-439.619"/>
<polygon fill="midnightblue" stroke="midnightblue" points="920.765,-442.316 926.982,-433.737 916.772,-436.566 920.765,-442.316"/>
</g>
<!-- Node39 -->
<g id="node39" class="node"><title>Node39</title>
<g id="a_node39"><a xlink:href="span_8h.html" target="_top" xlink:title="Span information for debugging purposes. ">
<polygon fill="white" stroke="black" points="2197,-649.5 2197,-668.5 2277,-668.5 2277,-649.5 2197,-649.5"/>
<text text-anchor="middle" x="2237" y="-656.5" font-family="Helvetica,sans-Serif" font-size="10.00">tvm/ir/span.h</text>
</a>
</g>
</g>
<!-- Node2&#45;&gt;Node39 -->
<g id="edge115" class="edge"><title>Node2&#45;&gt;Node39</title>
<path fill="none" stroke="midnightblue" d="M1143.78,-767.377C1284.05,-757.677 1778.04,-721.649 2183,-669 2184.27,-668.835 2185.56,-668.662 2186.86,-668.482"/>
<polygon fill="midnightblue" stroke="midnightblue" points="2187.56,-671.918 2196.94,-667.005 2186.54,-664.992 2187.56,-671.918"/>
</g>
<!-- Node40 -->
<g id="node40" class="node"><title>Node40</title>
<g id="a_node40"><a xlink:href="ir_2type_8h.html" target="_top" xlink:title="IR/AST nodes for the unified type system in TVM. ">
<polygon fill="white" stroke="black" points="1184.5,-705.5 1184.5,-724.5 1261.5,-724.5 1261.5,-705.5 1184.5,-705.5"/>
<text text-anchor="middle" x="1223" y="-712.5" font-family="Helvetica,sans-Serif" font-size="10.00">tvm/ir/type.h</text>
</a>
</g>
</g>
<!-- Node2&#45;&gt;Node40 -->
<g id="edge119" class="edge"><title>Node2&#45;&gt;Node40</title>
<path fill="none" stroke="midnightblue" d="M1123.7,-761.444C1142.94,-752.636 1173.15,-738.812 1195.2,-728.722"/>
<polygon fill="midnightblue" stroke="midnightblue" points="1196.75,-731.86 1204.39,-724.516 1193.84,-725.495 1196.75,-731.86"/>
</g>
<!-- Node41 -->
<g id="node41" class="node"><title>Node41</title>
<polygon fill="white" stroke="#bfbfbf" points="1104,-705.5 1104,-724.5 1166,-724.5 1166,-705.5 1104,-705.5"/>
<text text-anchor="middle" x="1135" y="-712.5" font-family="Helvetica,sans-Serif" font-size="10.00">algorithm</text>
</g>
<!-- Node2&#45;&gt;Node41 -->
<g id="edge127" class="edge"><title>Node2&#45;&gt;Node41</title>
<path fill="none" stroke="midnightblue" d="M1109.95,-761.083C1114.1,-753.613 1120.15,-742.724 1125.27,-733.52"/>
<polygon fill="midnightblue" stroke="midnightblue" points="1128.34,-735.192 1130.14,-724.751 1122.22,-731.793 1128.34,-735.192"/>
</g>
<!-- Node4 -->
<g id="node4" class="node"><title>Node4</title>
<polygon fill="white" stroke="#bfbfbf" points="855,-62 855,-81 941,-81 941,-62 855,-62"/>
<text text-anchor="middle" x="898" y="-69" font-family="Helvetica,sans-Serif" font-size="10.00">dmlc/logging.h</text>
</g>
<!-- Node3&#45;&gt;Node4 -->
<g id="edge3" class="edge"><title>Node3&#45;&gt;Node4</title>
<path fill="none" stroke="midnightblue" d="M1113.04,-123.475C1068.49,-112.915 992.541,-94.911 943.851,-83.3689"/>
<polygon fill="midnightblue" stroke="midnightblue" points="944.433,-79.9101 933.895,-81.0091 942.818,-86.7214 944.433,-79.9101"/>
</g>
<!-- Node5 -->
<g id="node5" class="node"><title>Node5</title>
<g id="a_node5"><a xlink:href="c__runtime__api_8h.html" target="_top" xlink:title="tvm/runtime/c_runtime\l_api.h">
<polygon fill="white" stroke="black" points="1703.5,-56.5 1703.5,-86.5 1830.5,-86.5 1830.5,-56.5 1703.5,-56.5"/>
<text text-anchor="start" x="1711.5" y="-74.5" font-family="Helvetica,sans-Serif" font-size="10.00">tvm/runtime/c_runtime</text>
<text text-anchor="middle" x="1767" y="-63.5" font-family="Helvetica,sans-Serif" font-size="10.00">_api.h</text>
</a>
</g>
</g>
<!-- Node3&#45;&gt;Node5 -->
<g id="edge4" class="edge"><title>Node3&#45;&gt;Node5</title>
<path fill="none" stroke="midnightblue" d="M1207.7,-126.349C1320.82,-115.458 1568.78,-91.5839 1693.01,-79.624"/>
<polygon fill="midnightblue" stroke="midnightblue" points="1693.57,-83.0864 1703.18,-78.6441 1692.89,-76.1186 1693.57,-83.0864"/>
</g>
<!-- Node3&#45;&gt;Node9 -->
<g id="edge8" class="edge"><title>Node3&#45;&gt;Node9</title>
<path fill="none" stroke="midnightblue" d="M1090.24,-128.187C919.81,-117.129 427.818,-85.2058 276.692,-75.3998"/>
<polygon fill="midnightblue" stroke="midnightblue" points="276.614,-71.8876 266.409,-74.7326 276.161,-78.8729 276.614,-71.8876"/>
</g>
<!-- Node3&#45;&gt;Node10 -->
<g id="edge9" class="edge"><title>Node3&#45;&gt;Node10</title>
<path fill="none" stroke="midnightblue" d="M1207.61,-128.631C1399.52,-117.598 2005.13,-82.7829 2151.78,-74.352"/>
<polygon fill="midnightblue" stroke="midnightblue" points="2152.14,-77.8377 2161.92,-73.7694 2151.73,-70.8492 2152.14,-77.8377"/>
</g>
<!-- Node11 -->
<g id="node11" class="node"><title>Node11</title>
<polygon fill="white" stroke="#bfbfbf" points="526,-62 526,-81 568,-81 568,-62 526,-62"/>
<text text-anchor="middle" x="547" y="-69" font-family="Helvetica,sans-Serif" font-size="10.00">utility</text>
</g>
<!-- Node3&#45;&gt;Node11 -->
<g id="edge10" class="edge"><title>Node3&#45;&gt;Node11</title>
<path fill="none" stroke="midnightblue" d="M1090.46,-126.214C965.133,-113.827 674.484,-85.1002 578.437,-75.6072"/>
<polygon fill="midnightblue" stroke="midnightblue" points="578.516,-72.098 568.22,-74.5973 577.827,-79.064 578.516,-72.098"/>
</g>
<!-- Node12 -->
<g id="node12" class="node"><title>Node12</title>
<polygon fill="white" stroke="#bfbfbf" points="1318,-62 1318,-81 1368,-81 1368,-62 1318,-62"/>
<text text-anchor="middle" x="1343" y="-69" font-family="Helvetica,sans-Serif" font-size="10.00">atomic</text>
</g>
<!-- Node3&#45;&gt;Node12 -->
<g id="edge11" class="edge"><title>Node3&#45;&gt;Node12</title>
<path fill="none" stroke="midnightblue" d="M1176.8,-123.475C1211.27,-112.901 1270.09,-94.8631 1307.71,-83.3229"/>
<polygon fill="midnightblue" stroke="midnightblue" points="1309.19,-86.5303 1317.72,-80.2519 1307.14,-79.838 1309.19,-86.5303"/>
</g>
<!-- Node6 -->
<g id="node6" class="node"><title>Node6</title>
<polygon fill="white" stroke="#bfbfbf" points="1632,-0.5 1632,-19.5 1722,-19.5 1722,-0.5 1632,-0.5"/>
<text text-anchor="middle" x="1677" y="-7.5" font-family="Helvetica,sans-Serif" font-size="10.00">dlpack/dlpack.h</text>
</g>
<!-- Node5&#45;&gt;Node6 -->
<g id="edge5" class="edge"><title>Node5&#45;&gt;Node6</title>
<path fill="none" stroke="midnightblue" d="M1745.67,-56.3993C1731.51,-47.0402 1712.99,-34.7924 1698.75,-25.3771"/>
<polygon fill="midnightblue" stroke="midnightblue" points="1700.37,-22.2531 1690.1,-19.6578 1696.51,-28.0923 1700.37,-22.2531"/>
</g>
<!-- Node7 -->
<g id="node7" class="node"><title>Node7</title>
<polygon fill="white" stroke="#bfbfbf" points="1740.5,-0.5 1740.5,-19.5 1793.5,-19.5 1793.5,-0.5 1740.5,-0.5"/>
<text text-anchor="middle" x="1767" y="-7.5" font-family="Helvetica,sans-Serif" font-size="10.00">stdint.h</text>
</g>
<!-- Node5&#45;&gt;Node7 -->
<g id="edge6" class="edge"><title>Node5&#45;&gt;Node7</title>
<path fill="none" stroke="midnightblue" d="M1767,-56.3993C1767,-48.4664 1767,-38.458 1767,-29.8583"/>
<polygon fill="midnightblue" stroke="midnightblue" points="1770.5,-29.6577 1767,-19.6578 1763.5,-29.6578 1770.5,-29.6577"/>
</g>
<!-- Node8 -->
<g id="node8" class="node"><title>Node8</title>
<polygon fill="white" stroke="#bfbfbf" points="1811.5,-0.5 1811.5,-19.5 1866.5,-19.5 1866.5,-0.5 1811.5,-0.5"/>
<text text-anchor="middle" x="1839" y="-7.5" font-family="Helvetica,sans-Serif" font-size="10.00">stddef.h</text>
</g>
<!-- Node5&#45;&gt;Node8 -->
<g id="edge7" class="edge"><title>Node5&#45;&gt;Node8</title>
<path fill="none" stroke="midnightblue" d="M1784.06,-56.3993C1795.06,-47.3076 1809.37,-35.4899 1820.62,-26.1909"/>
<polygon fill="midnightblue" stroke="midnightblue" points="1823.04,-28.726 1828.52,-19.6578 1818.59,-23.33 1823.04,-28.726"/>
</g>
<!-- Node13&#45;&gt;Node3 -->
<g id="edge66" class="edge"><title>Node13&#45;&gt;Node3</title>
<path fill="none" stroke="midnightblue" d="M1017.45,-593.382C1105.58,-551.764 1481.46,-368.928 1532,-255 1535.6,-246.875 1537.47,-242.006 1532,-235 1491.4,-183.002 1451.29,-217.605 1388,-199 1361.44,-191.191 1355.56,-186.809 1329,-179 1284.51,-165.922 1233.13,-153.321 1196.69,-144.798"/>
<polygon fill="midnightblue" stroke="midnightblue" points="1197.35,-141.36 1186.82,-142.505 1195.77,-148.178 1197.35,-141.36"/>
</g>
<!-- Node13&#45;&gt;Node5 -->
<g id="edge13" class="edge"><title>Node13&#45;&gt;Node5</title>
<path fill="none" stroke="midnightblue" d="M1048.14,-601.228C1217.49,-597.875 1774.99,-580.877 1932,-501 2042.38,-444.846 2065.95,-347.876 2015,-235 1979.92,-157.289 1886.41,-112.11 1824.77,-89.899"/>
<polygon fill="midnightblue" stroke="midnightblue" points="1825.76,-86.537 1815.16,-86.5299 1823.44,-93.1425 1825.76,-86.537"/>
</g>
<!-- Node13&#45;&gt;Node9 -->
<g id="edge113" class="edge"><title>Node13&#45;&gt;Node9</title>
<path fill="none" stroke="midnightblue" d="M949.931,-601.956C795.992,-601.404 324.102,-596.454 177,-557 110.095,-539.056 38,-555.77 38,-486.5 38,-486.5 38,-486.5 38,-188 38,-118.667 130.614,-90.0045 187.862,-78.9101"/>
<polygon fill="midnightblue" stroke="midnightblue" points="188.557,-82.341 197.763,-77.0967 187.296,-75.4555 188.557,-82.341"/>
</g>
<!-- Node13&#45;&gt;Node10 -->
<g id="edge110" class="edge"><title>Node13&#45;&gt;Node10</title>
<path fill="none" stroke="midnightblue" d="M1048.19,-602.53C1171.84,-603.135 1505.35,-600.26 1779,-557 1876.11,-541.649 1900.17,-533.374 1993,-501 2144.58,-448.137 2298,-468.034 2298,-307.5 2298,-307.5 2298,-307.5 2298,-188 2298,-139.198 2245.81,-103.559 2212.05,-85.6129"/>
<polygon fill="midnightblue" stroke="midnightblue" points="2213.58,-82.4611 2203.08,-81.024 2210.39,-88.6934 2213.58,-82.4611"/>
</g>
<!-- Node13&#45;&gt;Node11 -->
<g id="edge112" class="edge"><title>Node13&#45;&gt;Node11</title>
<path fill="none" stroke="midnightblue" d="M949.907,-601.762C805.6,-600.635 384.66,-594.162 253,-557 158.556,-530.342 76,-523.134 76,-425 76,-425 76,-425 76,-367 76,-158.847 410.807,-92.3447 515.859,-76.6014"/>
<polygon fill="midnightblue" stroke="midnightblue" points="516.452,-80.0522 525.847,-75.1553 515.449,-73.1245 516.452,-80.0522"/>
</g>
<!-- Node14 -->
<g id="node14" class="node"><title>Node14</title>
<g id="a_node14"><a xlink:href="runtime_2container_8h.html" target="_top" xlink:title="Common POD(plain old data) container types. ">
<polygon fill="white" stroke="black" points="664,-358.5 664,-377.5 796,-377.5 796,-358.5 664,-358.5"/>
<text text-anchor="middle" x="730" y="-365.5" font-family="Helvetica,sans-Serif" font-size="10.00">tvm/runtime/container.h</text>
</a>
</g>
</g>
<!-- Node13&#45;&gt;Node14 -->
<g id="edge14" class="edge"><title>Node13&#45;&gt;Node14</title>
<path fill="none" stroke="midnightblue" d="M989.107,-593.431C949.151,-558.822 799.355,-429.074 747.667,-384.303"/>
<polygon fill="midnightblue" stroke="midnightblue" points="749.833,-381.548 739.983,-377.647 745.25,-386.84 749.833,-381.548"/>
</g>
<!-- Node15 -->
<g id="node15" class="node"><title>Node15</title>
<g id="a_node15"><a xlink:href="runtime_2memory_8h.html" target="_top" xlink:title="Runtime memory management. ">
<polygon fill="white" stroke="black" points="372.5,-179.5 372.5,-198.5 499.5,-198.5 499.5,-179.5 372.5,-179.5"/>
<text text-anchor="middle" x="436" y="-186.5" font-family="Helvetica,sans-Serif" font-size="10.00">tvm/runtime/memory.h</text>
</a>
</g>
</g>
<!-- Node13&#45;&gt;Node15 -->
<g id="edge67" class="edge"><title>Node13&#45;&gt;Node15</title>
<path fill="none" stroke="midnightblue" d="M949.801,-600.51C769.03,-594.391 152,-567.569 152,-486.5 152,-486.5 152,-486.5 152,-305.5 152,-256.512 298.83,-218.257 381.339,-200.628"/>
<polygon fill="midnightblue" stroke="midnightblue" points="382.247,-204.014 391.313,-198.531 380.806,-197.164 382.247,-204.014"/>
</g>
<!-- Node21 -->
<g id="node21" class="node"><title>Node21</title>
<polygon fill="white" stroke="#bfbfbf" points="784.5,-179.5 784.5,-198.5 831.5,-198.5 831.5,-179.5 784.5,-179.5"/>
<text text-anchor="middle" x="808" y="-186.5" font-family="Helvetica,sans-Serif" font-size="10.00">vector</text>
</g>
<!-- Node13&#45;&gt;Node21 -->
<g id="edge111" class="edge"><title>Node13&#45;&gt;Node21</title>
<path fill="none" stroke="midnightblue" d="M1001.86,-593.372C1010.44,-565.989 1033.89,-479.016 1009,-414 972.032,-317.449 872.132,-236.331 828.667,-204.47"/>
<polygon fill="midnightblue" stroke="midnightblue" points="830.685,-201.609 820.527,-198.597 826.589,-207.286 830.685,-201.609"/>
</g>
<!-- Node32 -->
<g id="node32" class="node"><title>Node32</title>
<g id="a_node32"><a xlink:href="reflection_8h.html" target="_top" xlink:title="Reflection and serialization of compiler IR/AST nodes. ">
<polygon fill="white" stroke="black" points="1552.5,-537.5 1552.5,-556.5 1671.5,-556.5 1671.5,-537.5 1552.5,-537.5"/>
<text text-anchor="middle" x="1612" y="-544.5" font-family="Helvetica,sans-Serif" font-size="10.00">tvm/node/reflection.h</text>
</a>
</g>
</g>
<!-- Node13&#45;&gt;Node32 -->
<g id="edge68" class="edge"><title>Node13&#45;&gt;Node32</title>
<path fill="none" stroke="midnightblue" d="M1048.13,-597.672C1156.59,-588.118 1416.81,-565.195 1542.17,-554.152"/>
<polygon fill="midnightblue" stroke="midnightblue" points="1542.76,-557.613 1552.41,-553.249 1542.14,-550.64 1542.76,-557.613"/>
</g>
<!-- Node33 -->
<g id="node33" class="node"><title>Node33</title>
<g id="a_node33"><a xlink:href="structural__equal_8h.html" target="_top" xlink:title="Structural equality comparison. ">
<polygon fill="white" stroke="black" points="1281.5,-470.5 1281.5,-500.5 1392.5,-500.5 1392.5,-470.5 1281.5,-470.5"/>
<text text-anchor="start" x="1289.5" y="-488.5" font-family="Helvetica,sans-Serif" font-size="10.00">tvm/node/structural</text>
<text text-anchor="middle" x="1337" y="-477.5" font-family="Helvetica,sans-Serif" font-size="10.00">_equal.h</text>
</a>
</g>
</g>
<!-- Node13&#45;&gt;Node33 -->
<g id="edge108" class="edge"><title>Node13&#45;&gt;Node33</title>
<path fill="none" stroke="midnightblue" d="M1035.1,-593.488C1068.79,-585.234 1120.27,-571.813 1164,-557 1210.19,-541.354 1261.8,-519.766 1296.53,-504.614"/>
<polygon fill="midnightblue" stroke="midnightblue" points="1298.11,-507.743 1305.86,-500.521 1295.3,-501.333 1298.11,-507.743"/>
</g>
<!-- Node13&#45;&gt;Node35 -->
<g id="edge107" class="edge"><title>Node13&#45;&gt;Node35</title>
<path fill="none" stroke="midnightblue" d="M996.203,-593.463C987.305,-566.311 959.518,-481.512 947.101,-443.618"/>
<polygon fill="midnightblue" stroke="midnightblue" points="950.346,-442.281 943.906,-433.868 943.694,-444.461 950.346,-442.281"/>
</g>
<!-- Node36 -->
<g id="node36" class="node"><title>Node36</title>
<g id="a_node36"><a xlink:href="structural__hash_8h.html" target="_top" xlink:title="tvm/node/structural\l_hash.h">
<polygon fill="white" stroke="black" points="1442.5,-470.5 1442.5,-500.5 1553.5,-500.5 1553.5,-470.5 1442.5,-470.5"/>
<text text-anchor="start" x="1450.5" y="-488.5" font-family="Helvetica,sans-Serif" font-size="10.00">tvm/node/structural</text>
<text text-anchor="middle" x="1498" y="-477.5" font-family="Helvetica,sans-Serif" font-size="10.00">_hash.h</text>
</a>
</g>
</g>
<!-- Node13&#45;&gt;Node36 -->
<g id="edge109" class="edge"><title>Node13&#45;&gt;Node36</title>
<path fill="none" stroke="midnightblue" d="M1039.32,-593.455C1080.89,-584.583 1147.56,-570.184 1205,-557 1283.33,-539.022 1373.16,-517.235 1432.48,-502.684"/>
<polygon fill="midnightblue" stroke="midnightblue" points="1433.58,-506.017 1442.46,-500.233 1431.91,-499.219 1433.58,-506.017"/>
</g>
<!-- Node37 -->
<g id="node37" class="node"><title>Node37</title>
<g id="a_node37"><a xlink:href="repr__printer_8h.html" target="_top" xlink:title="Printer class to print repr string of each AST/IR nodes. ">
<polygon fill="white" stroke="black" points="433,-537.5 433,-556.5 563,-556.5 563,-537.5 433,-537.5"/>
<text text-anchor="middle" x="498" y="-544.5" font-family="Helvetica,sans-Serif" font-size="10.00">tvm/node/repr_printer.h</text>
</a>
</g>
</g>
<!-- Node13&#45;&gt;Node37 -->
<g id="edge104" class="edge"><title>Node13&#45;&gt;Node37</title>
<path fill="none" stroke="midnightblue" d="M949.591,-596.674C861.553,-587.185 677.065,-567.3 573.2,-556.105"/>
<polygon fill="midnightblue" stroke="midnightblue" points="573.417,-552.609 563.099,-555.017 572.666,-559.568 573.417,-552.609"/>
</g>
<!-- Node14&#45;&gt;Node3 -->
<g id="edge21" class="edge"><title>Node14&#45;&gt;Node3</title>
<path fill="none" stroke="midnightblue" d="M727.215,-358.407C718.213,-328.808 693.219,-230.097 742,-179 764.879,-155.034 970.282,-142.109 1080.23,-136.854"/>
<polygon fill="midnightblue" stroke="midnightblue" points="1080.42,-140.349 1090.24,-136.384 1080.09,-133.357 1080.42,-140.349"/>
</g>
<!-- Node14&#45;&gt;Node4 -->
<g id="edge15" class="edge"><title>Node14&#45;&gt;Node4</title>
<path fill="none" stroke="midnightblue" d="M701.439,-358.416C648.31,-340.791 542.339,-296.908 573,-235 623.91,-132.208 766.467,-93.4569 844.793,-79.6314"/>
<polygon fill="midnightblue" stroke="midnightblue" points="845.663,-83.034 854.94,-77.9164 844.497,-76.1319 845.663,-83.034"/>
</g>
<!-- Node14&#45;&gt;Node9 -->
<g id="edge63" class="edge"><title>Node14&#45;&gt;Node9</title>
<path fill="none" stroke="midnightblue" d="M663.876,-363.295C582.338,-357.791 449.228,-345.483 406,-322 386.568,-311.444 271.997,-171.74 256,-143 246.78,-126.435 240.249,-105.718 236.35,-91.0395"/>
<polygon fill="midnightblue" stroke="midnightblue" points="239.702,-90.0135 233.882,-81.1603 232.91,-91.7105 239.702,-90.0135"/>
</g>
<!-- Node14&#45;&gt;Node10 -->
<g id="edge62" class="edge"><title>Node14&#45;&gt;Node10</title>
<path fill="none" stroke="midnightblue" d="M796.028,-366.872C1023.61,-365.549 1773.2,-353.632 1989,-255 2000.02,-249.965 2123.01,-131.52 2167.8,-88.1913"/>
<polygon fill="midnightblue" stroke="midnightblue" points="2170.46,-90.489 2175.21,-81.0193 2165.59,-85.4592 2170.46,-90.489"/>
</g>
<!-- Node14&#45;&gt;Node11 -->
<g id="edge64" class="edge"><title>Node14&#45;&gt;Node11</title>
<path fill="none" stroke="midnightblue" d="M670.935,-358.448C575.435,-343.192 394.397,-307.845 361,-255 327.963,-202.724 355.196,-159.657 405,-123 438.554,-98.304 485.302,-84.7925 515.851,-78.1062"/>
<polygon fill="midnightblue" stroke="midnightblue" points="516.85,-81.4737 525.932,-76.0187 515.43,-74.6191 516.85,-81.4737"/>
</g>
<!-- Node14&#45;&gt;Node15 -->
<g id="edge16" class="edge"><title>Node14&#45;&gt;Node15</title>
<path fill="none" stroke="midnightblue" d="M663.777,-362.195C625.191,-356.855 577.005,-345.616 540,-322 494.241,-292.797 460.06,-236.315 444.799,-207.634"/>
<polygon fill="midnightblue" stroke="midnightblue" points="447.903,-206.016 440.202,-198.739 441.684,-209.229 447.903,-206.016"/>
</g>
<!-- Node14&#45;&gt;Node17 -->
<g id="edge22" class="edge"><title>Node14&#45;&gt;Node17</title>
<path fill="none" stroke="midnightblue" d="M796.044,-359.97C903.377,-348.546 1114.5,-326.074 1222.27,-314.603"/>
<polygon fill="midnightblue" stroke="midnightblue" points="1222.8,-318.067 1232.37,-313.528 1222.06,-311.106 1222.8,-318.067"/>
</g>
<!-- Node14&#45;&gt;Node21 -->
<g id="edge65" class="edge"><title>Node14&#45;&gt;Node21</title>
<path fill="none" stroke="midnightblue" d="M732.607,-358.42C739.245,-337.025 757.836,-279.81 780,-235 784.742,-225.412 790.952,-215.253 796.318,-207.018"/>
<polygon fill="midnightblue" stroke="midnightblue" points="799.249,-208.93 801.894,-198.671 793.429,-205.042 799.249,-208.93"/>
</g>
<!-- Node30 -->
<g id="node30" class="node"><title>Node30</title>
<polygon fill="white" stroke="#bfbfbf" points="640.5,-297 640.5,-316 689.5,-316 689.5,-297 640.5,-297"/>
<text text-anchor="middle" x="665" y="-304" font-family="Helvetica,sans-Serif" font-size="10.00">cstring</text>
</g>
<!-- Node14&#45;&gt;Node30 -->
<g id="edge60" class="edge"><title>Node14&#45;&gt;Node30</title>
<path fill="none" stroke="midnightblue" d="M720.687,-358.475C710.551,-349.197 694.136,-334.171 681.748,-322.831"/>
<polygon fill="midnightblue" stroke="midnightblue" points="684.035,-320.18 674.296,-316.009 679.309,-325.343 684.035,-320.18"/>
</g>
<!-- Node31 -->
<g id="node31" class="node"><title>Node31</title>
<polygon fill="white" stroke="#bfbfbf" points="784.5,-297 784.5,-316 861.5,-316 861.5,-297 784.5,-297"/>
<text text-anchor="middle" x="823" y="-304" font-family="Helvetica,sans-Serif" font-size="10.00">initializer_list</text>
</g>
<!-- Node14&#45;&gt;Node31 -->
<g id="edge61" class="edge"><title>Node14&#45;&gt;Node31</title>
<path fill="none" stroke="midnightblue" d="M743.325,-358.475C758.38,-348.843 783.116,-333.017 801.037,-321.552"/>
<polygon fill="midnightblue" stroke="midnightblue" points="803.163,-324.347 809.7,-316.009 799.39,-318.45 803.163,-324.347"/>
</g>
<!-- Node15&#45;&gt;Node3 -->
<g id="edge17" class="edge"><title>Node15&#45;&gt;Node3</title>
<path fill="none" stroke="midnightblue" d="M499.587,-183.184C633.279,-173.059 942.5,-149.64 1080.43,-139.193"/>
<polygon fill="midnightblue" stroke="midnightblue" points="1080.75,-142.679 1090.46,-138.434 1080.22,-135.699 1080.75,-142.679"/>
</g>
<!-- Node15&#45;&gt;Node9 -->
<g id="edge20" class="edge"><title>Node15&#45;&gt;Node9</title>
<path fill="none" stroke="midnightblue" d="M421.565,-179.475C400.295,-166.947 359.24,-142.894 324,-123 301.436,-110.262 275.551,-96.0922 256.997,-86.0123"/>
<polygon fill="midnightblue" stroke="midnightblue" points="258.478,-82.8342 248.019,-81.1432 255.141,-88.9875 258.478,-82.8342"/>
</g>
<!-- Node15&#45;&gt;Node11 -->
<g id="edge19" class="edge"><title>Node15&#45;&gt;Node11</title>
<path fill="none" stroke="midnightblue" d="M444.343,-179.319C462.825,-160.088 507.462,-113.641 531.33,-88.8054"/>
<polygon fill="midnightblue" stroke="midnightblue" points="534.154,-90.9174 538.56,-81.282 529.107,-86.0669 534.154,-90.9174"/>
</g>
<!-- Node16 -->
<g id="node16" class="node"><title>Node16</title>
<polygon fill="white" stroke="#bfbfbf" points="414.5,-123.5 414.5,-142.5 461.5,-142.5 461.5,-123.5 414.5,-123.5"/>
<text text-anchor="middle" x="438" y="-130.5" font-family="Helvetica,sans-Serif" font-size="10.00">cstdlib</text>
</g>
<!-- Node15&#45;&gt;Node16 -->
<g id="edge18" class="edge"><title>Node15&#45;&gt;Node16</title>
<path fill="none" stroke="midnightblue" d="M436.33,-179.083C436.592,-172.006 436.968,-161.861 437.297,-152.986"/>
<polygon fill="midnightblue" stroke="midnightblue" points="440.803,-152.874 437.676,-142.751 433.808,-152.615 440.803,-152.874"/>
</g>
<!-- Node17&#45;&gt;Node3 -->
<g id="edge51" class="edge"><title>Node17&#45;&gt;Node3</title>
<path fill="none" stroke="midnightblue" d="M1308.72,-291.434C1325.6,-277.56 1345.6,-255.513 1335,-235 1315.24,-196.768 1293.62,-199.911 1256,-179 1232.48,-165.923 1204.38,-154.244 1182.88,-146.063"/>
<polygon fill="midnightblue" stroke="midnightblue" points="1184.1,-142.782 1173.5,-142.557 1181.65,-149.338 1184.1,-142.782"/>
</g>
<!-- Node17&#45;&gt;Node4 -->
<g id="edge23" class="edge"><title>Node17&#45;&gt;Node4</title>
<path fill="none" stroke="midnightblue" d="M1233.31,-291.423C1199.29,-282.266 1155.15,-269.38 1117,-255 1097.28,-247.566 1093.94,-241.837 1074,-235 1006.28,-211.777 965.653,-251.515 917,-199 889.795,-169.635 891.481,-118.908 894.86,-91.4596"/>
<polygon fill="midnightblue" stroke="midnightblue" points="898.369,-91.6485 896.333,-81.2512 891.441,-90.6489 898.369,-91.6485"/>
</g>
<!-- Node17&#45;&gt;Node5 -->
<g id="edge24" class="edge"><title>Node17&#45;&gt;Node5</title>
<path fill="none" stroke="midnightblue" d="M1308.47,-291.487C1355.55,-258.14 1480.21,-173.121 1595,-123 1627.04,-109.01 1664.08,-97.5734 1695.57,-89.1434"/>
<polygon fill="midnightblue" stroke="midnightblue" points="1696.8,-92.4389 1705.58,-86.5126 1695.02,-85.6686 1696.8,-92.4389"/>
</g>
<!-- Node17&#45;&gt;Node9 -->
<g id="edge59" class="edge"><title>Node17&#45;&gt;Node9</title>
<path fill="none" stroke="midnightblue" d="M1232.05,-304.514C1110.39,-301.745 816.39,-291.513 573,-255 518.412,-246.811 377.749,-228.351 331,-199 287.457,-171.662 255.286,-118.093 240.69,-90.2525"/>
<polygon fill="midnightblue" stroke="midnightblue" points="243.769,-88.5858 236.119,-81.2556 237.528,-91.7564 243.769,-88.5858"/>
</g>
<!-- Node17&#45;&gt;Node10 -->
<g id="edge55" class="edge"><title>Node17&#45;&gt;Node10</title>
<path fill="none" stroke="midnightblue" d="M1345.52,-298.46C1367.5,-295.877 1392.9,-293.079 1416,-291 1476.55,-285.55 1908.91,-284.623 1962,-255 2024.9,-219.909 1999.28,-167.378 2056,-123 2084.53,-100.68 2124.17,-87.084 2151.75,-79.7077"/>
<polygon fill="midnightblue" stroke="midnightblue" points="2152.85,-83.0385 2161.68,-77.18 2151.12,-76.2548 2152.85,-83.0385"/>
</g>
<!-- Node17&#45;&gt;Node11 -->
<g id="edge58" class="edge"><title>Node17&#45;&gt;Node11</title>
<path fill="none" stroke="midnightblue" d="M1232.24,-294.592C1188.53,-285.61 1126.84,-271.67 1074,-255 1051.17,-247.799 1046.62,-242.815 1024,-235 970.162,-216.401 955.176,-216.591 901,-199 780.459,-159.859 639.099,-107.311 577.864,-84.2172"/>
<polygon fill="midnightblue" stroke="midnightblue" points="578.991,-80.9017 568.4,-80.6416 576.517,-87.4499 578.991,-80.9017"/>
</g>
<!-- Node18 -->
<g id="node18" class="node"><title>Node18</title>
<g id="a_node18"><a xlink:href="runtime_2module_8h.html" target="_top" xlink:title="Runtime container of the functions generated by TVM, This is used to support dynamically link...">
<polygon fill="white" stroke="black" points="1126,-235.5 1126,-254.5 1250,-254.5 1250,-235.5 1126,-235.5"/>
<text text-anchor="middle" x="1188" y="-242.5" font-family="Helvetica,sans-Serif" font-size="10.00">tvm/runtime/module.h</text>
</a>
</g>
</g>
<!-- Node17&#45;&gt;Node18 -->
<g id="edge25" class="edge"><title>Node17&#45;&gt;Node18</title>
<path fill="none" stroke="midnightblue" d="M1259.22,-291.399C1242.14,-282.04 1221.33,-269.792 1206.53,-260.377"/>
<polygon fill="midnightblue" stroke="midnightblue" points="1208.05,-257.193 1197.77,-254.658 1204.23,-263.054 1208.05,-257.193"/>
</g>
<!-- Node20 -->
<g id="node20" class="node"><title>Node20</title>
<polygon fill="white" stroke="#bfbfbf" points="1190.5,-179.5 1190.5,-198.5 1247.5,-198.5 1247.5,-179.5 1190.5,-179.5"/>
<text text-anchor="middle" x="1219" y="-186.5" font-family="Helvetica,sans-Serif" font-size="10.00">memory</text>
</g>
<!-- Node17&#45;&gt;Node20 -->
<g id="edge57" class="edge"><title>Node17&#45;&gt;Node20</title>
<path fill="none" stroke="midnightblue" d="M1302.55,-291.256C1314.91,-276.47 1329.61,-253.026 1318,-235 1310.69,-223.649 1280.65,-210.936 1255.56,-201.926"/>
<polygon fill="midnightblue" stroke="midnightblue" points="1256.49,-198.543 1245.89,-198.545 1254.18,-205.15 1256.49,-198.543"/>
</g>
<!-- Node17&#45;&gt;Node21 -->
<g id="edge54" class="edge"><title>Node17&#45;&gt;Node21</title>
<path fill="none" stroke="midnightblue" d="M1232.31,-294.748C1182.92,-285.135 1109.47,-270.248 1046,-255 972.433,-237.328 887.076,-213.096 841.225,-199.772"/>
<polygon fill="midnightblue" stroke="midnightblue" points="842.102,-196.382 831.522,-196.943 840.143,-203.102 842.102,-196.382"/>
</g>
<!-- Node23 -->
<g id="node23" class="node"><title>Node23</title>
<g id="a_node23"><a xlink:href="ndarray_8h.html" target="_top" xlink:title="A device&#45;independent managed NDArray abstraction. ">
<polygon fill="white" stroke="black" points="1830.5,-235.5 1830.5,-254.5 1953.5,-254.5 1953.5,-235.5 1830.5,-235.5"/>
<text text-anchor="middle" x="1892" y="-242.5" font-family="Helvetica,sans-Serif" font-size="10.00">tvm/runtime/ndarray.h</text>
</a>
</g>
</g>
<!-- Node17&#45;&gt;Node23 -->
<g id="edge35" class="edge"><title>Node17&#45;&gt;Node23</title>
<path fill="none" stroke="midnightblue" d="M1345.56,-298.805C1367.54,-296.265 1392.93,-293.407 1416,-291 1559.24,-276.054 1726.95,-260.698 1820.18,-252.352"/>
<polygon fill="midnightblue" stroke="midnightblue" points="1820.7,-255.82 1830.34,-251.443 1820.07,-248.848 1820.7,-255.82"/>
</g>
<!-- Node26 -->
<g id="node26" class="node"><title>Node26</title>
<g id="a_node26"><a xlink:href="data__type_8h.html" target="_top" xlink:title="tvm/runtime/data_type.h">
<polygon fill="white" stroke="black" points="1638,-235.5 1638,-254.5 1774,-254.5 1774,-235.5 1638,-235.5"/>
<text text-anchor="middle" x="1706" y="-242.5" font-family="Helvetica,sans-Serif" font-size="10.00">tvm/runtime/data_type.h</text>
</a>
</g>
</g>
<!-- Node17&#45;&gt;Node26 -->
<g id="edge46" class="edge"><title>Node17&#45;&gt;Node26</title>
<path fill="none" stroke="midnightblue" d="M1345.67,-297.414C1421.16,-286.642 1554.65,-267.595 1636.24,-255.953"/>
<polygon fill="midnightblue" stroke="midnightblue" points="1637.01,-259.379 1646.42,-254.502 1636.02,-252.449 1637.01,-259.379"/>
</g>
<!-- Node27 -->
<g id="node27" class="node"><title>Node27</title>
<polygon fill="white" stroke="#bfbfbf" points="1442.5,-235.5 1442.5,-254.5 1505.5,-254.5 1505.5,-235.5 1442.5,-235.5"/>
<text text-anchor="middle" x="1474" y="-242.5" font-family="Helvetica,sans-Serif" font-size="10.00">functional</text>
</g>
<!-- Node17&#45;&gt;Node27 -->
<g id="edge52" class="edge"><title>Node17&#45;&gt;Node27</title>
<path fill="none" stroke="midnightblue" d="M1332.84,-291.399C1364.81,-281.118 1407.62,-267.351 1437.68,-257.682"/>
<polygon fill="midnightblue" stroke="midnightblue" points="1438.9,-260.965 1447.35,-254.571 1436.76,-254.301 1438.9,-260.965"/>
</g>
<!-- Node28 -->
<g id="node28" class="node"><title>Node28</title>
<polygon fill="white" stroke="#bfbfbf" points="1268.5,-235.5 1268.5,-254.5 1309.5,-254.5 1309.5,-235.5 1268.5,-235.5"/>
<text text-anchor="middle" x="1289" y="-242.5" font-family="Helvetica,sans-Serif" font-size="10.00">tuple</text>
</g>
<!-- Node17&#45;&gt;Node28 -->
<g id="edge53" class="edge"><title>Node17&#45;&gt;Node28</title>
<path fill="none" stroke="midnightblue" d="M1289,-291.399C1289,-283.466 1289,-273.458 1289,-264.858"/>
<polygon fill="midnightblue" stroke="midnightblue" points="1292.5,-264.658 1289,-254.658 1285.5,-264.658 1292.5,-264.658"/>
</g>
<!-- Node17&#45;&gt;Node29 -->
<g id="edge56" class="edge"><title>Node17&#45;&gt;Node29</title>
<path fill="none" stroke="midnightblue" d="M1232.39,-303.237C1098.57,-297.625 752.284,-281.569 464,-255 450.291,-253.737 435.181,-251.941 422.283,-250.286"/>
<polygon fill="midnightblue" stroke="midnightblue" points="422.417,-246.773 412.047,-248.943 421.506,-253.714 422.417,-246.773"/>
</g>
<!-- Node18&#45;&gt;Node3 -->
<g id="edge28" class="edge"><title>Node18&#45;&gt;Node3</title>
<path fill="none" stroke="midnightblue" d="M1158.88,-235.441C1141.36,-228.62 1120.48,-217.141 1110,-199 1100.06,-181.789 1115.42,-162.262 1129.69,-149.142"/>
<polygon fill="midnightblue" stroke="midnightblue" points="1132.04,-151.741 1137.34,-142.568 1127.48,-146.432 1132.04,-151.741"/>
</g>
<!-- Node18&#45;&gt;Node5 -->
<g id="edge27" class="edge"><title>Node18&#45;&gt;Node5</title>
<path fill="none" stroke="midnightblue" d="M1181.25,-235.387C1171.52,-221.871 1156.17,-195.519 1170,-179 1236.01,-100.173 1548.8,-79.6355 1693.39,-74.3279"/>
<polygon fill="midnightblue" stroke="midnightblue" points="1693.63,-77.8216 1703.5,-73.9715 1693.38,-70.8259 1693.63,-77.8216"/>
</g>
<!-- Node18&#45;&gt;Node10 -->
<g id="edge32" class="edge"><title>Node18&#45;&gt;Node10</title>
<path fill="none" stroke="midnightblue" d="M1250.31,-235.878C1253.25,-235.566 1256.16,-235.271 1259,-235 1509.05,-211.195 1579.49,-260.58 1823,-199 1901.27,-179.206 1911.93,-150.07 1988,-123 2044.52,-102.884 2112.84,-87.1369 2152.07,-78.8793"/>
<polygon fill="midnightblue" stroke="midnightblue" points="2152.78,-82.3062 2161.86,-76.8472 2151.36,-75.4523 2152.78,-82.3062"/>
</g>
<!-- Node18&#45;&gt;Node15 -->
<g id="edge29" class="edge"><title>Node18&#45;&gt;Node15</title>
<path fill="none" stroke="midnightblue" d="M1125.82,-239.535C988.105,-229.646 657.885,-205.933 509.912,-195.307"/>
<polygon fill="midnightblue" stroke="midnightblue" points="509.803,-191.791 499.578,-194.565 509.301,-198.773 509.803,-191.791"/>
</g>
<!-- Node18&#45;&gt;Node17 -->
<g id="edge34" class="edge"><title>Node18&#45;&gt;Node17</title>
<path fill="none" stroke="midnightblue" d="M1207.63,-254.658C1223.31,-262.859 1245.19,-275.462 1262.39,-286.069"/>
<polygon fill="midnightblue" stroke="midnightblue" points="1260.57,-289.059 1270.9,-291.399 1264.29,-283.126 1260.57,-289.059"/>
</g>
<!-- Node19 -->
<g id="node19" class="node"><title>Node19</title>
<polygon fill="white" stroke="#bfbfbf" points="1604,-123.5 1604,-142.5 1664,-142.5 1664,-123.5 1604,-123.5"/>
<text text-anchor="middle" x="1634" y="-130.5" font-family="Helvetica,sans-Serif" font-size="10.00">dmlc/io.h</text>
</g>
<!-- Node18&#45;&gt;Node19 -->
<g id="edge26" class="edge"><title>Node18&#45;&gt;Node19</title>
<path fill="none" stroke="midnightblue" d="M1183.32,-235.141C1176.73,-221.287 1166.98,-194.48 1181,-179 1194.8,-163.764 1485.42,-143.567 1593.76,-136.539"/>
<polygon fill="midnightblue" stroke="midnightblue" points="1594.21,-140.018 1603.96,-135.882 1593.76,-133.032 1594.21,-140.018"/>
</g>
<!-- Node18&#45;&gt;Node20 -->
<g id="edge30" class="edge"><title>Node18&#45;&gt;Node20</title>
<path fill="none" stroke="midnightblue" d="M1193.12,-235.083C1197.41,-227.613 1203.66,-216.724 1208.94,-207.52"/>
<polygon fill="midnightblue" stroke="midnightblue" points="1212.03,-209.166 1213.98,-198.751 1205.96,-205.681 1212.03,-209.166"/>
</g>
<!-- Node18&#45;&gt;Node21 -->
<g id="edge31" class="edge"><title>Node18&#45;&gt;Node21</title>
<path fill="none" stroke="midnightblue" d="M1127.79,-235.444C1046.91,-223.95 905.916,-203.914 841.65,-194.782"/>
<polygon fill="midnightblue" stroke="midnightblue" points="842.047,-191.303 831.654,-193.361 841.062,-198.234 842.047,-191.303"/>
</g>
<!-- Node22 -->
<g id="node22" class="node"><title>Node22</title>
<polygon fill="white" stroke="#bfbfbf" points="926.5,-179.5 926.5,-198.5 1019.5,-198.5 1019.5,-179.5 926.5,-179.5"/>
<text text-anchor="middle" x="973" y="-186.5" font-family="Helvetica,sans-Serif" font-size="10.00">unordered_map</text>
</g>
<!-- Node18&#45;&gt;Node22 -->
<g id="edge33" class="edge"><title>Node18&#45;&gt;Node22</title>
<path fill="none" stroke="midnightblue" d="M1153.93,-235.444C1116.82,-226.122 1057.34,-211.183 1016.79,-200.997"/>
<polygon fill="midnightblue" stroke="midnightblue" points="1017.46,-197.558 1006.91,-198.516 1015.75,-204.347 1017.46,-197.558"/>
</g>
<!-- Node23&#45;&gt;Node3 -->
<g id="edge37" class="edge"><title>Node23&#45;&gt;Node3</title>
<path fill="none" stroke="midnightblue" d="M1830.15,-236.335C1742.74,-225.368 1590.88,-205.777 1566,-199 1543.7,-192.925 1540.35,-184.898 1518,-179 1415.64,-151.982 1292.96,-141.112 1218.02,-136.789"/>
<polygon fill="midnightblue" stroke="midnightblue" points="1217.95,-133.28 1207.77,-136.222 1217.56,-140.269 1217.95,-133.28"/>
</g>
<!-- Node23&#45;&gt;Node5 -->
<g id="edge36" class="edge"><title>Node23&#45;&gt;Node5</title>
<path fill="none" stroke="midnightblue" d="M1890.11,-235.195C1885.2,-213.919 1870.29,-158.826 1841,-123 1830.92,-110.673 1817.07,-100.129 1804.07,-91.9137"/>
<polygon fill="midnightblue" stroke="midnightblue" points="1805.64,-88.772 1795.27,-86.6047 1802.03,-94.7663 1805.64,-88.772"/>
</g>
<!-- Node23&#45;&gt;Node11 -->
<g id="edge45" class="edge"><title>Node23&#45;&gt;Node11</title>
<path fill="none" stroke="midnightblue" d="M1832.9,-235.471C1779.6,-227.395 1699.18,-214.255 1630,-199 1596.73,-191.664 1589.29,-186.222 1556,-179 1176.72,-96.7298 702.902,-77.1846 578.221,-73.3351"/>
<polygon fill="midnightblue" stroke="midnightblue" points="578.319,-69.8366 568.22,-73.0373 578.111,-76.8335 578.319,-69.8366"/>
</g>
<!-- Node23&#45;&gt;Node12 -->
<g id="edge43" class="edge"><title>Node23&#45;&gt;Node12</title>
<path fill="none" stroke="midnightblue" d="M1832.05,-235.486C1787.91,-228.279 1726.81,-216.329 1675,-199 1670.31,-197.431 1518.62,-124.761 1514,-123 1467.8,-105.392 1412.68,-90.0967 1377.76,-81.083"/>
<polygon fill="midnightblue" stroke="midnightblue" points="1378.59,-77.6832 1368.03,-78.6012 1376.86,-84.4658 1378.59,-77.6832"/>
</g>
<!-- Node23&#45;&gt;Node21 -->
<g id="edge44" class="edge"><title>Node23&#45;&gt;Node21</title>
<path fill="none" stroke="midnightblue" d="M1830.35,-238.468C1814.9,-237.203 1798.35,-235.952 1783,-235 1398.52,-211.145 1301.48,-222.855 917,-199 891.871,-197.441 863.531,-195.082 842.047,-193.171"/>
<polygon fill="midnightblue" stroke="midnightblue" points="842.069,-189.659 831.795,-192.246 841.44,-196.63 842.069,-189.659"/>
</g>
<!-- Node24 -->
<g id="node24" class="node"><title>Node24</title>
<g id="a_node24"><a xlink:href="serializer_8h.html" target="_top" xlink:title="Serializer extension to support TVM data types Include this file to enable serialization of DLDataTyp...">
<polygon fill="white" stroke="black" points="1684,-179.5 1684,-198.5 1814,-198.5 1814,-179.5 1684,-179.5"/>
<text text-anchor="middle" x="1749" y="-186.5" font-family="Helvetica,sans-Serif" font-size="10.00">tvm/runtime/serializer.h</text>
</a>
</g>
</g>
<!-- Node23&#45;&gt;Node24 -->
<g id="edge38" class="edge"><title>Node23&#45;&gt;Node24</title>
<path fill="none" stroke="midnightblue" d="M1864.25,-235.444C1838.66,-226.517 1801.15,-212.439 1775.85,-202.317"/>
<polygon fill="midnightblue" stroke="midnightblue" points="1777.06,-199.03 1766.47,-198.516 1774.43,-205.517 1777.06,-199.03"/>
</g>
<!-- Node24&#45;&gt;Node5 -->
<g id="edge41" class="edge"><title>Node24&#45;&gt;Node5</title>
<path fill="none" stroke="midnightblue" d="M1737.93,-179.495C1723.61,-167.38 1701.54,-144.26 1711,-123 1716.24,-111.225 1725.73,-101.039 1735.42,-92.9606"/>
<polygon fill="midnightblue" stroke="midnightblue" points="1737.77,-95.5726 1743.53,-86.6819 1733.48,-90.0386 1737.77,-95.5726"/>
</g>
<!-- Node24&#45;&gt;Node19 -->
<g id="edge39" class="edge"><title>Node24&#45;&gt;Node19</title>
<path fill="none" stroke="midnightblue" d="M1730.78,-179.444C1712.1,-170.675 1682.84,-156.935 1661.38,-146.858"/>
<polygon fill="midnightblue" stroke="midnightblue" points="1662.68,-143.599 1652.14,-142.516 1659.7,-149.935 1662.68,-143.599"/>
</g>
<!-- Node24&#45;&gt;Node23 -->
<g id="edge42" class="edge"><title>Node24&#45;&gt;Node23</title>
<path fill="none" stroke="midnightblue" d="M1776.63,-198.516C1802.19,-207.427 1839.7,-221.504 1865.04,-231.638"/>
<polygon fill="midnightblue" stroke="midnightblue" points="1863.85,-234.931 1874.43,-235.444 1866.48,-228.444 1863.85,-234.931"/>
</g>
<!-- Node25 -->
<g id="node25" class="node"><title>Node25</title>
<polygon fill="white" stroke="#bfbfbf" points="1720,-123.5 1720,-142.5 1814,-142.5 1814,-123.5 1720,-123.5"/>
<text text-anchor="middle" x="1767" y="-130.5" font-family="Helvetica,sans-Serif" font-size="10.00">dmlc/serializer.h</text>
</g>
<!-- Node24&#45;&gt;Node25 -->
<g id="edge40" class="edge"><title>Node24&#45;&gt;Node25</title>
<path fill="none" stroke="midnightblue" d="M1751.97,-179.083C1754.38,-171.849 1757.86,-161.409 1760.87,-152.397"/>
<polygon fill="midnightblue" stroke="midnightblue" points="1764.24,-153.345 1764.08,-142.751 1757.6,-151.131 1764.24,-153.345"/>
</g>
<!-- Node26&#45;&gt;Node4 -->
<g id="edge48" class="edge"><title>Node26&#45;&gt;Node4</title>
<path fill="none" stroke="midnightblue" d="M1678.69,-235.463C1636.37,-222.392 1552.29,-197.039 1480,-179 1363.62,-149.961 1333.94,-144.858 1216,-123 1123.19,-105.8 1014.47,-89.3197 951.202,-80.0927"/>
<polygon fill="midnightblue" stroke="midnightblue" points="951.468,-76.5947 941.069,-78.6203 950.462,-83.5219 951.468,-76.5947"/>
</g>
<!-- Node26&#45;&gt;Node5 -->
<g id="edge47" class="edge"><title>Node26&#45;&gt;Node5</title>
<path fill="none" stroke="midnightblue" d="M1765.68,-235.432C1787.43,-229.103 1809.88,-218.106 1823,-199 1842.12,-171.157 1836.73,-153.863 1823,-123 1817.76,-111.225 1808.27,-101.039 1798.58,-92.9606"/>
<polygon fill="midnightblue" stroke="midnightblue" points="1800.52,-90.0386 1790.47,-86.6819 1796.23,-95.5726 1800.52,-90.0386"/>
</g>
<!-- Node26&#45;&gt;Node9 -->
<g id="edge49" class="edge"><title>Node26&#45;&gt;Node9</title>
<path fill="none" stroke="midnightblue" d="M1651.72,-235.447C1567.25,-222.297 1399.16,-196.776 1256,-179 877.466,-131.996 418.429,-89.3488 276.166,-76.4595"/>
<polygon fill="midnightblue" stroke="midnightblue" points="276.362,-72.963 266.087,-75.5481 275.731,-79.9345 276.362,-72.963"/>
</g>
<!-- Node26&#45;&gt;Node10 -->
<g id="edge50" class="edge"><title>Node26&#45;&gt;Node10</title>
<path fill="none" stroke="midnightblue" d="M1774,-239.786C1820.5,-234.719 1882.44,-223.561 1932,-199 1977.7,-176.348 1973.47,-147.881 2018,-123 2061.14,-98.8983 2117.15,-84.9496 2151.82,-78.0381"/>
<polygon fill="midnightblue" stroke="midnightblue" points="2152.7,-81.4341 2161.86,-76.1156 2151.38,-74.559 2152.7,-81.4341"/>
</g>
<!-- Node32&#45;&gt;Node3 -->
<g id="edge70" class="edge"><title>Node32&#45;&gt;Node3</title>
<path fill="none" stroke="midnightblue" d="M1618.89,-537.319C1625.27,-528.684 1634.31,-514.77 1638,-501 1669.2,-384.65 1672.59,-318.741 1586,-235 1558.87,-208.76 1322.14,-164.328 1208.88,-144.315"/>
<polygon fill="midnightblue" stroke="midnightblue" points="1209.43,-140.857 1198.97,-142.571 1208.22,-147.751 1209.43,-140.857"/>
</g>
<!-- Node32&#45;&gt;Node5 -->
<g id="edge69" class="edge"><title>Node32&#45;&gt;Node5</title>
<path fill="none" stroke="midnightblue" d="M1671.69,-539.616C1779.12,-526.455 1994,-491.784 1994,-425 1994,-425 1994,-425 1994,-367 1994,-243.704 1959,-199.107 1862,-123 1846.13,-110.548 1826.74,-99.6144 1809.63,-91.1343"/>
<polygon fill="midnightblue" stroke="midnightblue" points="1810.92,-87.8716 1800.39,-86.6815 1807.88,-94.177 1810.92,-87.8716"/>
</g>
<!-- Node32&#45;&gt;Node9 -->
<g id="edge103" class="edge"><title>Node32&#45;&gt;Node9</title>
<path fill="none" stroke="midnightblue" d="M1552.46,-546.211C1418.78,-545.911 1084.87,-540.844 809,-501 680.216,-482.4 647.939,-473.628 524,-434 368.411,-384.252 279.987,-399.069 203,-255 173.813,-200.382 205.13,-124.369 222.302,-90.2795"/>
<polygon fill="midnightblue" stroke="midnightblue" points="225.561,-91.5994 227.094,-81.116 219.358,-88.3552 225.561,-91.5994"/>
</g>
<!-- Node32&#45;&gt;Node10 -->
<g id="edge102" class="edge"><title>Node32&#45;&gt;Node10</title>
<path fill="none" stroke="midnightblue" d="M1671.79,-542.834C1736.91,-538.185 1843.61,-527.033 1932,-501 2013.18,-477.091 2260,-392.127 2260,-307.5 2260,-307.5 2260,-307.5 2260,-188 2260,-146.312 2225.02,-108.03 2202.52,-87.7185"/>
<polygon fill="midnightblue" stroke="midnightblue" points="2204.73,-84.9985 2194.89,-81.0755 2200.14,-90.2796 2204.73,-84.9985"/>
</g>
<!-- Node32&#45;&gt;Node15 -->
<g id="edge71" class="edge"><title>Node32&#45;&gt;Node15</title>
<path fill="none" stroke="midnightblue" d="M1552.32,-542.547C1340.89,-529.55 629.454,-479.082 428,-378 364.221,-345.998 318.812,-296.501 355,-235 363.918,-219.844 379.989,-209.426 395.478,-202.464"/>
<polygon fill="midnightblue" stroke="midnightblue" points="397.056,-205.6 404.977,-198.564 394.397,-199.124 397.056,-205.6"/>
</g>
<!-- Node32&#45;&gt;Node17 -->
<g id="edge72" class="edge"><title>Node32&#45;&gt;Node17</title>
<path fill="none" stroke="midnightblue" d="M1614.47,-537.47C1622.4,-508.073 1644.04,-409.947 1596,-358 1564.39,-323.82 1436.16,-312.774 1355.75,-309.204"/>
<polygon fill="midnightblue" stroke="midnightblue" points="1355.85,-305.705 1345.71,-308.786 1355.56,-312.699 1355.85,-305.705"/>
</g>
<!-- Node32&#45;&gt;Node21 -->
<g id="edge101" class="edge"><title>Node32&#45;&gt;Node21</title>
<path fill="none" stroke="midnightblue" d="M1608.41,-537.199C1601.6,-521.558 1585.39,-488.801 1562,-470 1388.43,-330.473 1305.11,-361.883 1094,-291 1039.6,-272.734 1024.25,-273.708 970,-255 922.747,-238.706 869.136,-216.426 836.975,-202.637"/>
<polygon fill="midnightblue" stroke="midnightblue" points="838.282,-199.389 827.713,-198.647 835.512,-205.818 838.282,-199.389"/>
</g>
<!-- Node32&#45;&gt;Node23 -->
<g id="edge73" class="edge"><title>Node32&#45;&gt;Node23</title>
<path fill="none" stroke="midnightblue" d="M1671.55,-545.182C1752.68,-540.556 1888,-518.782 1888,-425 1888,-425 1888,-425 1888,-367 1888,-330.694 1889.82,-288.294 1891.01,-264.553"/>
<polygon fill="midnightblue" stroke="midnightblue" points="1894.5,-264.673 1891.53,-254.505 1887.51,-264.311 1894.5,-264.673"/>
</g>
<!-- Node32&#45;&gt;Node26 -->
<g id="edge74" class="edge"><title>Node32&#45;&gt;Node26</title>
<path fill="none" stroke="midnightblue" d="M1671.55,-541.046C1741.47,-531.593 1848,-504.195 1848,-425 1848,-425 1848,-425 1848,-367 1848,-310.96 1783.13,-275.399 1741.08,-258.233"/>
<polygon fill="midnightblue" stroke="midnightblue" points="1742.3,-254.951 1731.72,-254.556 1739.75,-261.467 1742.3,-254.951"/>
</g>
<!-- Node32&#45;&gt;Node33 -->
<g id="edge75" class="edge"><title>Node32&#45;&gt;Node33</title>
<path fill="none" stroke="midnightblue" d="M1572.6,-537.475C1528.23,-527.875 1455.43,-512.123 1402.48,-500.667"/>
<polygon fill="midnightblue" stroke="midnightblue" points="1403.01,-497.202 1392.5,-498.508 1401.53,-504.044 1403.01,-497.202"/>
</g>
<!-- Node32&#45;&gt;Node36 -->
<g id="edge95" class="edge"><title>Node32&#45;&gt;Node36</title>
<path fill="none" stroke="midnightblue" d="M1595.67,-537.475C1579.58,-529.078 1554.47,-515.973 1533.74,-505.153"/>
<polygon fill="midnightblue" stroke="midnightblue" points="1535.35,-502.047 1524.87,-500.523 1532.11,-508.253 1535.35,-502.047"/>
</g>
<!-- Node33&#45;&gt;Node10 -->
<g id="edge94" class="edge"><title>Node33&#45;&gt;Node10</title>
<path fill="none" stroke="midnightblue" d="M1392.96,-474.315C1516.92,-450.111 1821.39,-381.498 2046,-255 2107.89,-220.146 2125.79,-205.247 2160,-143 2169.13,-126.386 2175.68,-105.676 2179.6,-91.0125"/>
<polygon fill="midnightblue" stroke="midnightblue" points="2183.04,-91.6981 2182.09,-81.1456 2176.25,-89.9847 2183.04,-91.6981"/>
</g>
<!-- Node33&#45;&gt;Node26 -->
<g id="edge76" class="edge"><title>Node33&#45;&gt;Node26</title>
<path fill="none" stroke="midnightblue" d="M1362.9,-470.397C1398.76,-450.653 1465.3,-413.227 1520,-378 1582.34,-337.853 1653.01,-285.808 1686.46,-260.755"/>
<polygon fill="midnightblue" stroke="midnightblue" points="1688.61,-263.517 1694.5,-254.713 1684.4,-257.92 1688.61,-263.517"/>
</g>
<!-- Node34 -->
<g id="node34" class="node"><title>Node34</title>
<g id="a_node34"><a xlink:href="functor_8h.html" target="_top" xlink:title="Defines the Functor data structures. ">
<polygon fill="white" stroke="black" points="582.5,-235.5 582.5,-254.5 689.5,-254.5 689.5,-235.5 582.5,-235.5"/>
<text text-anchor="middle" x="636" y="-242.5" font-family="Helvetica,sans-Serif" font-size="10.00">tvm/node/functor.h</text>
</a>
</g>
</g>
<!-- Node33&#45;&gt;Node34 -->
<g id="edge77" class="edge"><title>Node33&#45;&gt;Node34</title>
<path fill="none" stroke="midnightblue" d="M1303.43,-470.371C1200.09,-426.907 892.355,-297.705 870,-291 813.518,-274.059 747.388,-262.032 699.865,-254.699"/>
<polygon fill="midnightblue" stroke="midnightblue" points="700.127,-251.199 689.716,-253.161 699.078,-258.12 700.127,-251.199"/>
</g>
<!-- Node33&#45;&gt;Node35 -->
<g id="edge83" class="edge"><title>Node33&#45;&gt;Node35</title>
<path fill="none" stroke="midnightblue" d="M1281.19,-475.503C1269.56,-473.658 1257.39,-471.747 1246,-470 1165.06,-457.581 1071.94,-443.935 1010.1,-434.963"/>
<polygon fill="midnightblue" stroke="midnightblue" points="1010.47,-431.48 1000.07,-433.509 1009.46,-438.408 1010.47,-431.48"/>
</g>
<!-- Node34&#45;&gt;Node3 -->
<g id="edge79" class="edge"><title>Node34&#45;&gt;Node3</title>
<path fill="none" stroke="midnightblue" d="M641.942,-235.398C652.513,-220.881 676.115,-191.85 704,-179 769.16,-148.973 972.114,-138.848 1079.98,-135.539"/>
<polygon fill="midnightblue" stroke="midnightblue" points="1080.23,-139.033 1090.12,-135.239 1080.02,-132.036 1080.23,-139.033"/>
</g>
<!-- Node34&#45;&gt;Node4 -->
<g id="edge78" class="edge"><title>Node34&#45;&gt;Node4</title>
<path fill="none" stroke="midnightblue" d="M638.977,-235.322C644.031,-221.717 655.481,-195.246 673,-179 726.364,-129.515 806.882,-99.0494 855.738,-83.9939"/>
<polygon fill="midnightblue" stroke="midnightblue" points="856.796,-87.3306 865.365,-81.1004 854.781,-80.6268 856.796,-87.3306"/>
</g>
<!-- Node34&#45;&gt;Node9 -->
<g id="edge81" class="edge"><title>Node34&#45;&gt;Node9</title>
<path fill="none" stroke="midnightblue" d="M582.258,-239.035C513.948,-232.061 400.399,-218.05 363,-199 320.154,-177.176 320.674,-156.314 286,-123 273.608,-111.095 259.41,-97.8306 248.682,-87.8847"/>
<polygon fill="midnightblue" stroke="midnightblue" points="250.961,-85.2246 241.243,-81.0032 246.207,-90.3632 250.961,-85.2246"/>
</g>
<!-- Node34&#45;&gt;Node11 -->
<g id="edge82" class="edge"><title>Node34&#45;&gt;Node11</title>
<path fill="none" stroke="midnightblue" d="M631.464,-235.26C617.477,-208.306 574.824,-126.116 556.042,-89.9237"/>
<polygon fill="midnightblue" stroke="midnightblue" points="559.134,-88.2832 551.421,-81.0194 552.921,-91.5075 559.134,-88.2832"/>
</g>
<!-- Node34&#45;&gt;Node21 -->
<g id="edge80" class="edge"><title>Node34&#45;&gt;Node21</title>
<path fill="none" stroke="midnightblue" d="M663.254,-235.444C693.427,-225.971 742.079,-210.696 774.54,-200.505"/>
<polygon fill="midnightblue" stroke="midnightblue" points="775.974,-203.723 784.467,-197.388 773.877,-197.045 775.974,-203.723"/>
</g>
<!-- Node35&#45;&gt;Node3 -->
<g id="edge84" class="edge"><title>Node35&#45;&gt;Node3</title>
<path fill="none" stroke="midnightblue" d="M1000.74,-415.115C1135.56,-395.905 1456.25,-341.792 1514,-255 1544.11,-209.748 1486.77,-245.989 1338,-199 1316.74,-192.285 1312.88,-186.801 1292,-179 1257.76,-166.209 1218.05,-153.909 1189.18,-145.411"/>
<polygon fill="midnightblue" stroke="midnightblue" points="1190.02,-142.012 1179.44,-142.569 1188.06,-148.731 1190.02,-142.012"/>
</g>
<!-- Node35&#45;&gt;Node9 -->
<g id="edge88" class="edge"><title>Node35&#45;&gt;Node9</title>
<path fill="none" stroke="midnightblue" d="M881.435,-422.774C764.033,-421.521 507.262,-414.545 428,-378 307.288,-322.343 290.206,-267.261 243,-143 236.613,-126.187 233.932,-105.769 232.809,-91.2421"/>
<polygon fill="midnightblue" stroke="midnightblue" points="236.289,-90.8106 232.2,-81.0367 229.302,-91.2274 236.289,-90.8106"/>
</g>
<!-- Node35&#45;&gt;Node10 -->
<g id="edge93" class="edge"><title>Node35&#45;&gt;Node10</title>
<path fill="none" stroke="midnightblue" d="M1000.76,-418.229C1198.92,-401.705 1832.23,-343.063 2015,-255 2092.49,-217.662 2151.71,-127.932 2174.18,-89.952"/>
<polygon fill="midnightblue" stroke="midnightblue" points="2177.33,-91.493 2179.31,-81.0842 2171.27,-87.9885 2177.33,-91.493"/>
</g>
<!-- Node35&#45;&gt;Node11 -->
<g id="edge92" class="edge"><title>Node35&#45;&gt;Node11</title>
<path fill="none" stroke="midnightblue" d="M881.258,-421.806C821.796,-418.757 728.98,-408.891 655,-378 616.283,-361.833 601.924,-357.141 579,-322 530.814,-248.133 538.739,-135.539 544.233,-91.2892"/>
<polygon fill="midnightblue" stroke="midnightblue" points="547.734,-91.5193 545.606,-81.1403 540.797,-90.5809 547.734,-91.5193"/>
</g>
<!-- Node35&#45;&gt;Node14 -->
<g id="edge87" class="edge"><title>Node35&#45;&gt;Node14</title>
<path fill="none" stroke="midnightblue" d="M907.566,-414.444C871.144,-405.122 812.77,-390.183 772.971,-379.997"/>
<polygon fill="midnightblue" stroke="midnightblue" points="773.833,-376.605 763.277,-377.516 772.097,-383.387 773.833,-376.605"/>
</g>
<!-- Node35&#45;&gt;Node15 -->
<g id="edge85" class="edge"><title>Node35&#45;&gt;Node15</title>
<path fill="none" stroke="midnightblue" d="M881.464,-422.95C770.087,-421.956 535.054,-415.341 464,-378 400.883,-344.83 385.353,-322.015 361,-255 357.964,-246.646 356.62,-242.735 361,-235 369.347,-220.258 384.662,-209.819 399.287,-202.732"/>
<polygon fill="midnightblue" stroke="midnightblue" points="400.997,-205.803 408.718,-198.547 398.158,-199.404 400.997,-205.803"/>
</g>
<!-- Node35&#45;&gt;Node17 -->
<g id="edge86" class="edge"><title>Node35&#45;&gt;Node17</title>
<path fill="none" stroke="midnightblue" d="M966.872,-414.413C1023.86,-395.5 1161.13,-349.94 1236.79,-324.83"/>
<polygon fill="midnightblue" stroke="midnightblue" points="1238.2,-328.047 1246.59,-321.575 1236,-321.404 1238.2,-328.047"/>
</g>
<!-- Node35&#45;&gt;Node21 -->
<g id="edge89" class="edge"><title>Node35&#45;&gt;Node21</title>
<path fill="none" stroke="midnightblue" d="M936.517,-414.257C925.551,-392.961 896.339,-336.788 870,-291 852.808,-261.113 831.556,-227.075 818.927,-207.128"/>
<polygon fill="midnightblue" stroke="midnightblue" points="821.792,-205.111 813.475,-198.547 815.884,-208.865 821.792,-205.111"/>
</g>
<!-- Node35&#45;&gt;Node22 -->
<g id="edge91" class="edge"><title>Node35&#45;&gt;Node22</title>
<path fill="none" stroke="midnightblue" d="M942.177,-414.431C946.802,-380.754 963.799,-256.994 970.377,-209.102"/>
<polygon fill="midnightblue" stroke="midnightblue" points="973.885,-209.279 971.778,-198.896 966.95,-208.327 973.885,-209.279"/>
</g>
<!-- Node35&#45;&gt;Node31 -->
<g id="edge90" class="edge"><title>Node35&#45;&gt;Node31</title>
<path fill="none" stroke="midnightblue" d="M925.791,-414.399C911.928,-406.132 891.334,-392.746 876,-378 859.16,-361.806 843.566,-339.872 833.716,-324.793"/>
<polygon fill="midnightblue" stroke="midnightblue" points="836.441,-322.556 828.116,-316.003 830.537,-326.317 836.441,-322.556"/>
</g>
<!-- Node36&#45;&gt;Node10 -->
<g id="edge99" class="edge"><title>Node36&#45;&gt;Node10</title>
<path fill="none" stroke="midnightblue" d="M1553.68,-479.981C1663.25,-468.86 1911.22,-432.481 2084,-322 2146.79,-281.846 2176.11,-270.248 2198,-199 2209.48,-161.651 2198.42,-115.542 2190.48,-90.5953"/>
<polygon fill="midnightblue" stroke="midnightblue" points="2193.76,-89.3637 2187.25,-81.0077 2187.13,-91.6019 2193.76,-89.3637"/>
</g>
<!-- Node36&#45;&gt;Node26 -->
<g id="edge96" class="edge"><title>Node36&#45;&gt;Node26</title>
<path fill="none" stroke="midnightblue" d="M1537.72,-470.477C1577.64,-454.337 1637.99,-423.988 1672,-378 1697.36,-343.705 1703.87,-292.264 1705.49,-264.824"/>
<polygon fill="midnightblue" stroke="midnightblue" points="1709,-264.796 1705.93,-254.654 1702,-264.493 1709,-264.796"/>
</g>
<!-- Node36&#45;&gt;Node27 -->
<g id="edge100" class="edge"><title>Node36&#45;&gt;Node27</title>
<path fill="none" stroke="midnightblue" d="M1496.57,-470.295C1492.46,-429.433 1480.6,-311.551 1475.92,-265.12"/>
<polygon fill="midnightblue" stroke="midnightblue" points="1479.38,-264.545 1474.9,-254.946 1472.42,-265.246 1479.38,-264.545"/>
</g>
<!-- Node36&#45;&gt;Node34 -->
<g id="edge97" class="edge"><title>Node36&#45;&gt;Node34</title>
<path fill="none" stroke="midnightblue" d="M1462.89,-470.386C1373.87,-435.116 1131.54,-342.296 922,-291 846.582,-272.538 758.045,-259.971 699.682,-252.908"/>
<polygon fill="midnightblue" stroke="midnightblue" points="699.849,-249.403 689.505,-251.695 699.02,-256.354 699.849,-249.403"/>
</g>
<!-- Node36&#45;&gt;Node35 -->
<g id="edge98" class="edge"><title>Node36&#45;&gt;Node35</title>
<path fill="none" stroke="midnightblue" d="M1442.41,-475.694C1428.88,-473.688 1414.43,-471.66 1401,-470 1262.97,-452.944 1100.99,-438.356 1010.76,-430.712"/>
<polygon fill="midnightblue" stroke="midnightblue" points="1010.91,-427.213 1000.65,-429.86 1010.32,-434.188 1010.91,-427.213"/>
</g>
<!-- Node37&#45;&gt;Node34 -->
<g id="edge105" class="edge"><title>Node37&#45;&gt;Node34</title>
<path fill="none" stroke="midnightblue" d="M487.01,-537.365C477.547,-529.171 464.564,-515.917 459,-501 454.185,-488.091 454.479,-483.015 459,-470 491.058,-377.722 578.669,-294.759 617.29,-261.465"/>
<polygon fill="midnightblue" stroke="midnightblue" points="619.807,-263.919 625.167,-254.78 615.278,-258.582 619.807,-263.919"/>
</g>
<!-- Node38 -->
<g id="node38" class="node"><title>Node38</title>
<polygon fill="white" stroke="#bfbfbf" points="468.5,-476 468.5,-495 527.5,-495 527.5,-476 468.5,-476"/>
<text text-anchor="middle" x="498" y="-483" font-family="Helvetica,sans-Serif" font-size="10.00">iostream</text>
</g>
<!-- Node37&#45;&gt;Node38 -->
<g id="edge106" class="edge"><title>Node37&#45;&gt;Node38</title>
<path fill="none" stroke="midnightblue" d="M498,-537.475C498,-529.08 498,-515.981 498,-505.163"/>
<polygon fill="midnightblue" stroke="midnightblue" points="501.5,-505.009 498,-495.009 494.5,-505.009 501.5,-505.009"/>
</g>
<!-- Node39&#45;&gt;Node3 -->
<g id="edge116" class="edge"><title>Node39&#45;&gt;Node3</title>
<path fill="none" stroke="midnightblue" d="M2235.04,-649.496C2230.97,-631.095 2222,-586.162 2222,-548 2222,-548 2222,-548 2222,-423 2222,-229.769 1995.78,-337.411 1821,-255 1803.74,-246.86 1801.18,-240.818 1783,-235 1669.8,-198.769 1634.24,-223.84 1518,-199 1487.19,-192.416 1480.76,-185.789 1450,-179 1407.07,-169.524 1292.75,-153.351 1218,-143.193"/>
<polygon fill="midnightblue" stroke="midnightblue" points="1218.11,-139.675 1207.73,-141.801 1217.17,-146.612 1218.11,-139.675"/>
</g>
<!-- Node39&#45;&gt;Node10 -->
<g id="edge118" class="edge"><title>Node39&#45;&gt;Node10</title>
<path fill="none" stroke="midnightblue" d="M2242.32,-649.384C2262.89,-615.25 2336,-485.679 2336,-369 2336,-369 2336,-369 2336,-188 2336,-128.195 2260.48,-95.3149 2215.91,-81.1157"/>
<polygon fill="midnightblue" stroke="midnightblue" points="2216.69,-77.6954 2206.1,-78.1337 2214.65,-84.3924 2216.69,-77.6954"/>
</g>
<!-- Node39&#45;&gt;Node13 -->
<g id="edge117" class="edge"><title>Node39&#45;&gt;Node13</title>
<path fill="none" stroke="midnightblue" d="M2196.86,-656.249C2015.75,-648.349 1274.1,-616 1058.22,-606.583"/>
<polygon fill="midnightblue" stroke="midnightblue" points="1058.18,-603.078 1048.04,-606.139 1057.87,-610.071 1058.18,-603.078"/>
</g>
<!-- Node40&#45;&gt;Node3 -->
<g id="edge120" class="edge"><title>Node40&#45;&gt;Node3</title>
<path fill="none" stroke="midnightblue" d="M1219.4,-705.184C1205.48,-670.302 1156,-538.309 1156,-425 1156,-425 1156,-425 1156,-367 1156,-314.291 1132.07,-305.508 1117,-255 1109.66,-230.417 1106.13,-224.463 1103,-199 1101.91,-190.178 1099.55,-187.193 1103,-179 1108.03,-167.053 1117.94,-156.692 1127.29,-148.934"/>
<polygon fill="midnightblue" stroke="midnightblue" points="1129.44,-151.694 1135.21,-142.811 1125.16,-146.155 1129.44,-151.694"/>
</g>
<!-- Node40&#45;&gt;Node10 -->
<g id="edge125" class="edge"><title>Node40&#45;&gt;Node10</title>
<path fill="none" stroke="midnightblue" d="M1261.64,-713.563C1447.69,-711.311 2243.94,-699.889 2286,-669 2378.91,-600.758 2374,-540.282 2374,-425 2374,-425 2374,-425 2374,-188 2374,-115.077 2270.54,-86.8841 2216.31,-77.1152"/>
<polygon fill="midnightblue" stroke="midnightblue" points="2216.61,-73.6161 2206.17,-75.3992 2215.44,-80.5181 2216.61,-73.6161"/>
</g>
<!-- Node40&#45;&gt;Node13 -->
<g id="edge122" class="edge"><title>Node40&#45;&gt;Node13</title>
<path fill="none" stroke="midnightblue" d="M1205.42,-705.368C1166.33,-686.171 1071.99,-639.842 1025.62,-617.074"/>
<polygon fill="midnightblue" stroke="midnightblue" points="1027.01,-613.858 1016.5,-612.591 1023.93,-620.141 1027.01,-613.858"/>
</g>
<!-- Node40&#45;&gt;Node26 -->
<g id="edge121" class="edge"><title>Node40&#45;&gt;Node26</title>
<path fill="none" stroke="midnightblue" d="M1261.7,-712.855C1410.72,-707.56 1944.13,-680.146 2046,-557 2072.56,-524.9 2125.64,-574.82 2008,-414 1942.97,-325.105 1815.91,-277.313 1749.22,-257.386"/>
<polygon fill="midnightblue" stroke="midnightblue" points="1750.03,-253.974 1739.45,-254.536 1748.07,-260.695 1750.03,-253.974"/>
</g>
<!-- Node40&#45;&gt;Node35 -->
<g id="edge123" class="edge"><title>Node40&#45;&gt;Node35</title>
<path fill="none" stroke="midnightblue" d="M1189.64,-705.439C1111.27,-684.859 922,-632.236 922,-604 922,-604 922,-604 922,-546 922,-509.286 930.642,-467.056 936.27,-443.45"/>
<polygon fill="midnightblue" stroke="midnightblue" points="939.67,-444.279 938.67,-433.732 932.874,-442.601 939.67,-444.279"/>
</g>
<!-- Node40&#45;&gt;Node39 -->
<g id="edge124" class="edge"><title>Node40&#45;&gt;Node39</title>
<path fill="none" stroke="midnightblue" d="M1261.54,-713.827C1391.62,-712.897 1826.29,-706.952 2183,-669 2184.28,-668.864 2185.57,-668.718 2186.87,-668.562"/>
<polygon fill="midnightblue" stroke="midnightblue" points="2187.52,-672.007 2196.97,-667.214 2186.59,-665.068 2187.52,-672.007"/>
</g>
</g>
</svg>
