<?xml version="1.0" encoding="UTF-8" standalone="no"?>
<!DOCTYPE svg PUBLIC "-//W3C//DTD SVG 1.1//EN"
 "http://www.w3.org/Graphics/SVG/1.1/DTD/svg11.dtd">
<!-- Generated by graphviz version 2.38.0 (20140413.2041)
 -->
<!-- Title: include/tvm/ir/type_relation.h Pages: 1 -->
<svg width="2940pt" height="1024pt"
 viewBox="0.00 0.00 2940.00 1024.00" xmlns="http://www.w3.org/2000/svg" xmlns:xlink="http://www.w3.org/1999/xlink">
<g id="graph0" class="graph" transform="scale(1 1) rotate(0) translate(4 1020)">
<title>include/tvm/ir/type_relation.h</title>
<polygon fill="white" stroke="none" points="-4,4 -4,-1020 2936,-1020 2936,4 -4,4"/>
<!-- Node1 -->
<g id="node1" class="node"><title>Node1</title>
<polygon fill="#bfbfbf" stroke="black" points="1014.5,-985.5 1014.5,-1015.5 1119.5,-1015.5 1119.5,-985.5 1014.5,-985.5"/>
<text text-anchor="start" x="1022.5" y="-1003.5" font-family="Helvetica,sans-Serif" font-size="10.00">include/tvm/ir/type</text>
<text text-anchor="middle" x="1067" y="-992.5" font-family="Helvetica,sans-Serif" font-size="10.00">_relation.h</text>
</g>
<!-- Node2 -->
<g id="node2" class="node"><title>Node2</title>
<g id="a_node2"><a xlink:href="ir_2type_8h.html" target="_top" xlink:title="IR/AST nodes for the unified type system in TVM. ">
<polygon fill="white" stroke="black" points="1801.5,-705.5 1801.5,-724.5 1878.5,-724.5 1878.5,-705.5 1801.5,-705.5"/>
<text text-anchor="middle" x="1840" y="-712.5" font-family="Helvetica,sans-Serif" font-size="10.00">tvm/ir/type.h</text>
</a>
</g>
</g>
<!-- Node1&#45;&gt;Node2 -->
<g id="edge1" class="edge"><title>Node1&#45;&gt;Node2</title>
<path fill="none" stroke="midnightblue" d="M1119.83,-997.5C1359.62,-988.079 2334,-945.984 2334,-884 2334,-884 2334,-884 2334,-826 2334,-735.41 2013.49,-719.389 1888.8,-716.584"/>
<polygon fill="midnightblue" stroke="midnightblue" points="1888.83,-713.084 1878.76,-716.377 1888.69,-720.083 1888.83,-713.084"/>
</g>
<!-- Node40 -->
<g id="node40" class="node"><title>Node40</title>
<g id="a_node40"><a xlink:href="ir_2module_8h.html" target="_top" xlink:title="IRModule that holds the functions and type definitions. ">
<polygon fill="white" stroke="black" points="1362,-929.5 1362,-948.5 1454,-948.5 1454,-929.5 1362,-929.5"/>
<text text-anchor="middle" x="1408" y="-936.5" font-family="Helvetica,sans-Serif" font-size="10.00">tvm/ir/module.h</text>
</a>
</g>
</g>
<!-- Node1&#45;&gt;Node40 -->
<g id="edge121" class="edge"><title>Node1&#45;&gt;Node40</title>
<path fill="none" stroke="midnightblue" d="M1119.53,-990.334C1182.49,-979.349 1287.53,-961.021 1351.99,-949.774"/>
<polygon fill="midnightblue" stroke="midnightblue" points="1352.72,-953.198 1361.97,-948.031 1351.52,-946.303 1352.72,-953.198"/>
</g>
<!-- Node44 -->
<g id="node44" class="node"><title>Node44</title>
<g id="a_node44"><a xlink:href="ir_2attrs_8h.html" target="_top" xlink:title="Helpers for attribute objects. ">
<polygon fill="white" stroke="black" points="568.5,-817.5 568.5,-836.5 647.5,-836.5 647.5,-817.5 568.5,-817.5"/>
<text text-anchor="middle" x="608" y="-824.5" font-family="Helvetica,sans-Serif" font-size="10.00">tvm/ir/attrs.h</text>
</a>
</g>
</g>
<!-- Node1&#45;&gt;Node44 -->
<g id="edge165" class="edge"><title>Node1&#45;&gt;Node44</title>
<path fill="none" stroke="midnightblue" d="M1014.36,-996.753C927.693,-991.468 759.43,-977.764 708,-949 664.342,-924.583 631.881,-872.976 617.004,-845.721"/>
<polygon fill="midnightblue" stroke="midnightblue" points="619.94,-843.785 612.177,-836.575 613.75,-847.053 619.94,-843.785"/>
</g>
<!-- Node48 -->
<g id="node48" class="node"><title>Node48</title>
<g id="a_node48"><a xlink:href="env__func_8h.html" target="_top" xlink:title="Serializable global function used in IR. ">
<polygon fill="white" stroke="black" points="978.5,-593.5 978.5,-612.5 1077.5,-612.5 1077.5,-593.5 978.5,-593.5"/>
<text text-anchor="middle" x="1028" y="-600.5" font-family="Helvetica,sans-Serif" font-size="10.00">tvm/ir/env_func.h</text>
</a>
</g>
</g>
<!-- Node1&#45;&gt;Node48 -->
<g id="edge161" class="edge"><title>Node1&#45;&gt;Node48</title>
<path fill="none" stroke="midnightblue" d="M1014.23,-992.98C917.582,-979.557 722,-944.874 722,-884 722,-884 722,-884 722,-714 722,-662.156 879.516,-628.081 968.523,-612.965"/>
<polygon fill="midnightblue" stroke="midnightblue" points="969.208,-616.399 978.496,-611.302 968.056,-609.495 969.208,-616.399"/>
</g>
<!-- Node3 -->
<g id="node3" class="node"><title>Node3</title>
<g id="a_node3"><a xlink:href="object_8h.html" target="_top" xlink:title="A managed object in the TVM runtime. ">
<polygon fill="white" stroke="black" points="1742.5,-123.5 1742.5,-142.5 1859.5,-142.5 1859.5,-123.5 1742.5,-123.5"/>
<text text-anchor="middle" x="1801" y="-130.5" font-family="Helvetica,sans-Serif" font-size="10.00">tvm/runtime/object.h</text>
</a>
</g>
</g>
<!-- Node2&#45;&gt;Node3 -->
<g id="edge2" class="edge"><title>Node2&#45;&gt;Node3</title>
<path fill="none" stroke="midnightblue" d="M1871.14,-705.375C2017.53,-664.055 2626.61,-483.187 2538,-358 2490.49,-290.882 2267.77,-258.601 2189,-235 2125.39,-215.943 2105.78,-223.335 2044,-199 2026.97,-192.292 2025.13,-185.458 2008,-179 1963.33,-162.158 1910.75,-150.826 1869.75,-143.747"/>
<polygon fill="midnightblue" stroke="midnightblue" points="1870.3,-140.29 1859.86,-142.082 1869.14,-147.193 1870.3,-140.29"/>
</g>
<!-- Node10 -->
<g id="node10" class="node"><title>Node10</title>
<polygon fill="white" stroke="#bfbfbf" points="334,-62 334,-81 378,-81 378,-62 334,-62"/>
<text text-anchor="middle" x="356" y="-69" font-family="Helvetica,sans-Serif" font-size="10.00">string</text>
</g>
<!-- Node2&#45;&gt;Node10 -->
<g id="edge120" class="edge"><title>Node2&#45;&gt;Node10</title>
<path fill="none" stroke="midnightblue" d="M1801.24,-711.885C1623.24,-701.992 883.127,-658.823 656,-613 576.779,-597.017 554.668,-594.351 483,-557 314.595,-469.234 190,-435.903 190,-246 190,-246 190,-246 190,-188 190,-123.4 275.755,-91.995 323.993,-79.4397"/>
<polygon fill="midnightblue" stroke="midnightblue" points="325.09,-82.7739 333.956,-76.9748 323.409,-75.9788 325.09,-82.7739"/>
</g>
<!-- Node13 -->
<g id="node13" class="node"><title>Node13</title>
<g id="a_node13"><a xlink:href="data__type_8h.html" target="_top" xlink:title="tvm/runtime/data_type.h">
<polygon fill="white" stroke="black" points="870,-235.5 870,-254.5 1006,-254.5 1006,-235.5 870,-235.5"/>
<text text-anchor="middle" x="938" y="-242.5" font-family="Helvetica,sans-Serif" font-size="10.00">tvm/runtime/data_type.h</text>
</a>
</g>
</g>
<!-- Node2&#45;&gt;Node13 -->
<g id="edge12" class="edge"><title>Node2&#45;&gt;Node13</title>
<path fill="none" stroke="midnightblue" d="M1801.29,-705.62C1739.5,-692.422 1614.64,-666.498 1508,-649 1321.3,-618.365 1273.98,-614.417 1086,-593 1044.08,-588.224 736.383,-588.215 708,-557 665.243,-509.977 679.218,-470.665 708,-414 749.654,-331.992 852.206,-280.462 905.167,-258.416"/>
<polygon fill="midnightblue" stroke="midnightblue" points="906.811,-261.526 914.759,-254.521 904.177,-255.041 906.811,-261.526"/>
</g>
<!-- Node14 -->
<g id="node14" class="node"><title>Node14</title>
<g id="a_node14"><a xlink:href="node_8h.html" target="_top" xlink:title="Definitions and helper macros for IR/AST nodes. ">
<polygon fill="white" stroke="black" points="1791,-593.5 1791,-612.5 1889,-612.5 1889,-593.5 1791,-593.5"/>
<text text-anchor="middle" x="1840" y="-600.5" font-family="Helvetica,sans-Serif" font-size="10.00">tvm/node/node.h</text>
</a>
</g>
</g>
<!-- Node2&#45;&gt;Node14 -->
<g id="edge17" class="edge"><title>Node2&#45;&gt;Node14</title>
<path fill="none" stroke="midnightblue" d="M1840,-705.368C1840,-687.617 1840,-646.666 1840,-622.597"/>
<polygon fill="midnightblue" stroke="midnightblue" points="1843.5,-622.591 1840,-612.591 1836.5,-622.591 1843.5,-622.591"/>
</g>
<!-- Node35 -->
<g id="node35" class="node"><title>Node35</title>
<g id="a_node35"><a xlink:href="node_2container_8h.html" target="_top" xlink:title="Array/Map container in the DSL graph. ">
<polygon fill="white" stroke="black" points="1680.5,-414.5 1680.5,-433.5 1799.5,-433.5 1799.5,-414.5 1680.5,-414.5"/>
<text text-anchor="middle" x="1740" y="-421.5" font-family="Helvetica,sans-Serif" font-size="10.00">tvm/node/container.h</text>
</a>
</g>
</g>
<!-- Node2&#45;&gt;Node35 -->
<g id="edge115" class="edge"><title>Node2&#45;&gt;Node35</title>
<path fill="none" stroke="midnightblue" d="M1860.64,-705.421C1893.5,-690.231 1954,-655.293 1954,-604 1954,-604 1954,-604 1954,-546 1954,-508.432 1946.13,-493.72 1917,-470 1887.01,-445.584 1845.43,-434.219 1810.1,-429.011"/>
<polygon fill="midnightblue" stroke="midnightblue" points="1810.21,-425.495 1799.83,-427.642 1809.28,-432.433 1810.21,-425.495"/>
</g>
<!-- Node39 -->
<g id="node39" class="node"><title>Node39</title>
<g id="a_node39"><a xlink:href="span_8h.html" target="_top" xlink:title="Span information for debugging purposes. ">
<polygon fill="white" stroke="black" points="1419,-649.5 1419,-668.5 1499,-668.5 1499,-649.5 1419,-649.5"/>
<text text-anchor="middle" x="1459" y="-656.5" font-family="Helvetica,sans-Serif" font-size="10.00">tvm/ir/span.h</text>
</a>
</g>
</g>
<!-- Node2&#45;&gt;Node39 -->
<g id="edge116" class="edge"><title>Node2&#45;&gt;Node39</title>
<path fill="none" stroke="midnightblue" d="M1801.37,-708.525C1731.94,-698.684 1586.12,-678.017 1509.11,-667.102"/>
<polygon fill="midnightblue" stroke="midnightblue" points="1509.55,-663.63 1499.16,-665.692 1508.57,-670.561 1509.55,-663.63"/>
</g>
<!-- Node4 -->
<g id="node4" class="node"><title>Node4</title>
<polygon fill="white" stroke="#bfbfbf" points="1315,-62 1315,-81 1401,-81 1401,-62 1315,-62"/>
<text text-anchor="middle" x="1358" y="-69" font-family="Helvetica,sans-Serif" font-size="10.00">dmlc/logging.h</text>
</g>
<!-- Node3&#45;&gt;Node4 -->
<g id="edge3" class="edge"><title>Node3&#45;&gt;Node4</title>
<path fill="none" stroke="midnightblue" d="M1742.17,-124.099C1655.41,-112.446 1494.44,-90.8259 1411.09,-79.6312"/>
<polygon fill="midnightblue" stroke="midnightblue" points="1411.46,-76.1487 1401.08,-78.2863 1410.53,-83.0864 1411.46,-76.1487"/>
</g>
<!-- Node5 -->
<g id="node5" class="node"><title>Node5</title>
<g id="a_node5"><a xlink:href="c__runtime__api_8h.html" target="_top" xlink:title="tvm/runtime/c_runtime\l_api.h">
<polygon fill="white" stroke="black" points="2194.5,-56.5 2194.5,-86.5 2321.5,-86.5 2321.5,-56.5 2194.5,-56.5"/>
<text text-anchor="start" x="2202.5" y="-74.5" font-family="Helvetica,sans-Serif" font-size="10.00">tvm/runtime/c_runtime</text>
<text text-anchor="middle" x="2258" y="-63.5" font-family="Helvetica,sans-Serif" font-size="10.00">_api.h</text>
</a>
</g>
</g>
<!-- Node3&#45;&gt;Node5 -->
<g id="edge4" class="edge"><title>Node3&#45;&gt;Node5</title>
<path fill="none" stroke="midnightblue" d="M1859.81,-124.343C1942.68,-113.554 2093.76,-93.8832 2184.11,-82.1203"/>
<polygon fill="midnightblue" stroke="midnightblue" points="2184.81,-85.5583 2194.28,-80.7964 2183.91,-78.6169 2184.81,-85.5583"/>
</g>
<!-- Node9 -->
<g id="node9" class="node"><title>Node9</title>
<polygon fill="white" stroke="#bfbfbf" points="1019,-62 1019,-81 1087,-81 1087,-62 1019,-62"/>
<text text-anchor="middle" x="1053" y="-69" font-family="Helvetica,sans-Serif" font-size="10.00">type_traits</text>
</g>
<!-- Node3&#45;&gt;Node9 -->
<g id="edge8" class="edge"><title>Node3&#45;&gt;Node9</title>
<path fill="none" stroke="midnightblue" d="M1742.31,-127.331C1597.59,-115.82 1226.15,-86.2732 1097.59,-76.0467"/>
<polygon fill="midnightblue" stroke="midnightblue" points="1097.58,-72.5349 1087.33,-75.2308 1097.02,-79.5128 1097.58,-72.5349"/>
</g>
<!-- Node3&#45;&gt;Node10 -->
<g id="edge9" class="edge"><title>Node3&#45;&gt;Node10</title>
<path fill="none" stroke="midnightblue" d="M1742.11,-129.575C1498.48,-119.543 573.436,-81.4532 388.348,-73.832"/>
<polygon fill="midnightblue" stroke="midnightblue" points="388.315,-70.3277 378.179,-73.4133 388.027,-77.3218 388.315,-70.3277"/>
</g>
<!-- Node11 -->
<g id="node11" class="node"><title>Node11</title>
<polygon fill="white" stroke="#bfbfbf" points="2664,-62 2664,-81 2706,-81 2706,-62 2664,-62"/>
<text text-anchor="middle" x="2685" y="-69" font-family="Helvetica,sans-Serif" font-size="10.00">utility</text>
</g>
<!-- Node3&#45;&gt;Node11 -->
<g id="edge10" class="edge"><title>Node3&#45;&gt;Node11</title>
<path fill="none" stroke="midnightblue" d="M1859.69,-128.05C2030.72,-116.538 2524.77,-83.2848 2653.85,-74.5969"/>
<polygon fill="midnightblue" stroke="midnightblue" points="2654.11,-78.0872 2663.85,-73.9235 2653.64,-71.103 2654.11,-78.0872"/>
</g>
<!-- Node12 -->
<g id="node12" class="node"><title>Node12</title>
<polygon fill="white" stroke="#bfbfbf" points="1951,-62 1951,-81 2001,-81 2001,-62 1951,-62"/>
<text text-anchor="middle" x="1976" y="-69" font-family="Helvetica,sans-Serif" font-size="10.00">atomic</text>
</g>
<!-- Node3&#45;&gt;Node12 -->
<g id="edge11" class="edge"><title>Node3&#45;&gt;Node12</title>
<path fill="none" stroke="midnightblue" d="M1826.07,-123.475C1856.35,-113.18 1907.44,-95.8103 1941.44,-84.2502"/>
<polygon fill="midnightblue" stroke="midnightblue" points="1942.63,-87.5419 1950.97,-81.0091 1940.38,-80.9145 1942.63,-87.5419"/>
</g>
<!-- Node6 -->
<g id="node6" class="node"><title>Node6</title>
<polygon fill="white" stroke="#bfbfbf" points="2123,-0.5 2123,-19.5 2213,-19.5 2213,-0.5 2123,-0.5"/>
<text text-anchor="middle" x="2168" y="-7.5" font-family="Helvetica,sans-Serif" font-size="10.00">dlpack/dlpack.h</text>
</g>
<!-- Node5&#45;&gt;Node6 -->
<g id="edge5" class="edge"><title>Node5&#45;&gt;Node6</title>
<path fill="none" stroke="midnightblue" d="M2236.67,-56.3993C2222.51,-47.0402 2203.99,-34.7924 2189.75,-25.3771"/>
<polygon fill="midnightblue" stroke="midnightblue" points="2191.37,-22.2531 2181.1,-19.6578 2187.51,-28.0923 2191.37,-22.2531"/>
</g>
<!-- Node7 -->
<g id="node7" class="node"><title>Node7</title>
<polygon fill="white" stroke="#bfbfbf" points="2231.5,-0.5 2231.5,-19.5 2284.5,-19.5 2284.5,-0.5 2231.5,-0.5"/>
<text text-anchor="middle" x="2258" y="-7.5" font-family="Helvetica,sans-Serif" font-size="10.00">stdint.h</text>
</g>
<!-- Node5&#45;&gt;Node7 -->
<g id="edge6" class="edge"><title>Node5&#45;&gt;Node7</title>
<path fill="none" stroke="midnightblue" d="M2258,-56.3993C2258,-48.4664 2258,-38.458 2258,-29.8583"/>
<polygon fill="midnightblue" stroke="midnightblue" points="2261.5,-29.6577 2258,-19.6578 2254.5,-29.6578 2261.5,-29.6577"/>
</g>
<!-- Node8 -->
<g id="node8" class="node"><title>Node8</title>
<polygon fill="white" stroke="#bfbfbf" points="2302.5,-0.5 2302.5,-19.5 2357.5,-19.5 2357.5,-0.5 2302.5,-0.5"/>
<text text-anchor="middle" x="2330" y="-7.5" font-family="Helvetica,sans-Serif" font-size="10.00">stddef.h</text>
</g>
<!-- Node5&#45;&gt;Node8 -->
<g id="edge7" class="edge"><title>Node5&#45;&gt;Node8</title>
<path fill="none" stroke="midnightblue" d="M2275.06,-56.3993C2286.06,-47.3076 2300.37,-35.4899 2311.62,-26.1909"/>
<polygon fill="midnightblue" stroke="midnightblue" points="2314.04,-28.726 2319.52,-19.6578 2309.59,-23.33 2314.04,-28.726"/>
</g>
<!-- Node13&#45;&gt;Node4 -->
<g id="edge14" class="edge"><title>Node13&#45;&gt;Node4</title>
<path fill="none" stroke="midnightblue" d="M958.828,-235.495C1027.4,-207.495 1246.35,-118.092 1327.42,-84.9857"/>
<polygon fill="midnightblue" stroke="midnightblue" points="1329.11,-88.0767 1337.05,-81.056 1326.47,-81.5961 1329.11,-88.0767"/>
</g>
<!-- Node13&#45;&gt;Node5 -->
<g id="edge13" class="edge"><title>Node13&#45;&gt;Node5</title>
<path fill="none" stroke="midnightblue" d="M987.895,-235.494C1063.23,-222.731 1210.55,-198.09 1336,-179 1512.16,-152.193 1556.05,-143.98 1733,-123 1893.66,-103.952 2082.63,-87.1418 2184.3,-78.5538"/>
<polygon fill="midnightblue" stroke="midnightblue" points="2184.79,-82.0249 2194.46,-77.6983 2184.21,-75.0496 2184.79,-82.0249"/>
</g>
<!-- Node13&#45;&gt;Node9 -->
<g id="edge15" class="edge"><title>Node13&#45;&gt;Node9</title>
<path fill="none" stroke="midnightblue" d="M943.861,-235.26C962.012,-208.191 1017.52,-125.413 1041.63,-89.4622"/>
<polygon fill="midnightblue" stroke="midnightblue" points="1044.62,-91.2742 1047.29,-81.0194 1038.81,-87.3757 1044.62,-91.2742"/>
</g>
<!-- Node13&#45;&gt;Node10 -->
<g id="edge16" class="edge"><title>Node13&#45;&gt;Node10</title>
<path fill="none" stroke="midnightblue" d="M922.288,-235.34C897.118,-221.76 845.914,-195.321 800,-179 650.145,-125.73 462.466,-90.5435 388.293,-77.8149"/>
<polygon fill="midnightblue" stroke="midnightblue" points="388.636,-74.3231 378.192,-76.1004 387.465,-81.2244 388.636,-74.3231"/>
</g>
<!-- Node14&#45;&gt;Node3 -->
<g id="edge67" class="edge"><title>Node14&#45;&gt;Node3</title>
<path fill="none" stroke="midnightblue" d="M1889.29,-595.2C1992.11,-577.952 2220,-522.418 2220,-369 2220,-369 2220,-369 2220,-305.5 2220,-263.774 2193.6,-256.77 2158,-235 2102.46,-201.031 2077.44,-220.557 2016,-199 1995.73,-191.888 1992.24,-186.204 1972,-179 1932.12,-164.805 1885.59,-152.846 1851.15,-144.833"/>
<polygon fill="midnightblue" stroke="midnightblue" points="1851.85,-141.403 1841.32,-142.577 1850.28,-148.225 1851.85,-141.403"/>
</g>
<!-- Node14&#45;&gt;Node5 -->
<g id="edge18" class="edge"><title>Node14&#45;&gt;Node5</title>
<path fill="none" stroke="midnightblue" d="M1889.29,-601.848C1957.73,-600.252 2084.58,-592.237 2186,-557 2332.3,-506.17 2375.86,-487.897 2485,-378 2506.81,-356.041 2575.94,-241.334 2587,-199 2597.95,-157.095 2564.72,-142.402 2526,-123 2464.93,-92.4019 2387.58,-80.2527 2331.69,-75.4763"/>
<polygon fill="midnightblue" stroke="midnightblue" points="2331.76,-71.9708 2321.51,-74.6674 2331.2,-78.9488 2331.76,-71.9708"/>
</g>
<!-- Node14&#45;&gt;Node9 -->
<g id="edge114" class="edge"><title>Node14&#45;&gt;Node9</title>
<path fill="none" stroke="midnightblue" d="M1790.88,-602.16C1575.11,-602.226 722,-595.59 722,-486.5 722,-486.5 722,-486.5 722,-423 722,-336.307 698.282,-316.95 670,-235 661.594,-210.643 639.311,-199.439 655,-179 698.291,-122.601 914.354,-89.5726 1008.75,-77.6281"/>
<polygon fill="midnightblue" stroke="midnightblue" points="1009.35,-81.0811 1018.84,-76.3736 1008.48,-74.1346 1009.35,-81.0811"/>
</g>
<!-- Node14&#45;&gt;Node10 -->
<g id="edge111" class="edge"><title>Node14&#45;&gt;Node10</title>
<path fill="none" stroke="midnightblue" d="M1790.81,-602.156C1612.89,-602.36 1003.33,-599.842 814,-557 593.261,-507.052 522.64,-447.731 404,-255 371.135,-201.61 360.582,-126.06 357.349,-91.3152"/>
<polygon fill="midnightblue" stroke="midnightblue" points="360.824,-90.8648 356.512,-81.1873 353.848,-91.4418 360.824,-90.8648"/>
</g>
<!-- Node14&#45;&gt;Node11 -->
<g id="edge113" class="edge"><title>Node14&#45;&gt;Node11</title>
<path fill="none" stroke="midnightblue" d="M1889.13,-600.423C1963.5,-597.118 2108.65,-587.064 2228,-557 2459.36,-498.722 2894,-307.941 2894,-246 2894,-246 2894,-246 2894,-188 2894,-107.798 2774.64,-82.8533 2716.33,-75.452"/>
<polygon fill="midnightblue" stroke="midnightblue" points="2716.53,-71.9519 2706.19,-74.2648 2715.72,-78.9044 2716.53,-71.9519"/>
</g>
<!-- Node15 -->
<g id="node15" class="node"><title>Node15</title>
<g id="a_node15"><a xlink:href="runtime_2container_8h.html" target="_top" xlink:title="Common POD(plain old data) container types. ">
<polygon fill="white" stroke="black" points="1820,-358.5 1820,-377.5 1952,-377.5 1952,-358.5 1820,-358.5"/>
<text text-anchor="middle" x="1886" y="-365.5" font-family="Helvetica,sans-Serif" font-size="10.00">tvm/runtime/container.h</text>
</a>
</g>
</g>
<!-- Node14&#45;&gt;Node15 -->
<g id="edge19" class="edge"><title>Node14&#45;&gt;Node15</title>
<path fill="none" stroke="midnightblue" d="M1867.53,-593.488C1884.72,-586.598 1905.51,-575.024 1916,-557 1948.38,-501.359 1914.12,-421.558 1895.88,-386.569"/>
<polygon fill="midnightblue" stroke="midnightblue" points="1898.86,-384.719 1891.03,-377.584 1892.7,-388.046 1898.86,-384.719"/>
</g>
<!-- Node16 -->
<g id="node16" class="node"><title>Node16</title>
<g id="a_node16"><a xlink:href="runtime_2memory_8h.html" target="_top" xlink:title="Runtime memory management. ">
<polygon fill="white" stroke="black" points="2434.5,-179.5 2434.5,-198.5 2561.5,-198.5 2561.5,-179.5 2434.5,-179.5"/>
<text text-anchor="middle" x="2498" y="-186.5" font-family="Helvetica,sans-Serif" font-size="10.00">tvm/runtime/memory.h</text>
</a>
</g>
</g>
<!-- Node14&#45;&gt;Node16 -->
<g id="edge68" class="edge"><title>Node14&#45;&gt;Node16</title>
<path fill="none" stroke="midnightblue" d="M1889.18,-598.882C1966.37,-593.352 2111.92,-580.169 2158,-557 2206.58,-532.577 2198.98,-500.486 2244,-470 2287.54,-440.516 2424.68,-415.041 2462,-378 2504.25,-336.067 2502.97,-313.298 2515,-255 2518.31,-238.955 2512.87,-220.95 2507.29,-207.966"/>
<polygon fill="midnightblue" stroke="midnightblue" points="2510.38,-206.311 2502.94,-198.762 2504.05,-209.3 2510.38,-206.311"/>
</g>
<!-- Node22 -->
<g id="node22" class="node"><title>Node22</title>
<polygon fill="white" stroke="#bfbfbf" points="1916.5,-179.5 1916.5,-198.5 1963.5,-198.5 1963.5,-179.5 1916.5,-179.5"/>
<text text-anchor="middle" x="1940" y="-186.5" font-family="Helvetica,sans-Serif" font-size="10.00">vector</text>
</g>
<!-- Node14&#45;&gt;Node22 -->
<g id="edge112" class="edge"><title>Node14&#45;&gt;Node22</title>
<path fill="none" stroke="midnightblue" d="M1885.42,-593.449C1961.4,-576.229 2106,-529.7 2106,-425 2106,-425 2106,-425 2106,-305.5 2106,-272.325 2015.54,-225.189 1968.17,-202.782"/>
<polygon fill="midnightblue" stroke="midnightblue" points="1969.58,-199.578 1959.04,-198.516 1966.62,-205.92 1969.58,-199.578"/>
</g>
<!-- Node32 -->
<g id="node32" class="node"><title>Node32</title>
<g id="a_node32"><a xlink:href="reflection_8h.html" target="_top" xlink:title="Reflection and serialization of compiler IR/AST nodes. ">
<polygon fill="white" stroke="black" points="1158.5,-537.5 1158.5,-556.5 1277.5,-556.5 1277.5,-537.5 1158.5,-537.5"/>
<text text-anchor="middle" x="1218" y="-544.5" font-family="Helvetica,sans-Serif" font-size="10.00">tvm/node/reflection.h</text>
</a>
</g>
</g>
<!-- Node14&#45;&gt;Node32 -->
<g id="edge69" class="edge"><title>Node14&#45;&gt;Node32</title>
<path fill="none" stroke="midnightblue" d="M1790.93,-597.74C1681.03,-588.199 1414.8,-565.085 1287.74,-554.054"/>
<polygon fill="midnightblue" stroke="midnightblue" points="1287.99,-550.563 1277.72,-553.185 1287.38,-557.537 1287.99,-550.563"/>
</g>
<!-- Node33 -->
<g id="node33" class="node"><title>Node33</title>
<g id="a_node33"><a xlink:href="structural__equal_8h.html" target="_top" xlink:title="Structural equality comparison. ">
<polygon fill="white" stroke="black" points="889.5,-470.5 889.5,-500.5 1000.5,-500.5 1000.5,-470.5 889.5,-470.5"/>
<text text-anchor="start" x="897.5" y="-488.5" font-family="Helvetica,sans-Serif" font-size="10.00">tvm/node/structural</text>
<text text-anchor="middle" x="945" y="-477.5" font-family="Helvetica,sans-Serif" font-size="10.00">_equal.h</text>
</a>
</g>
</g>
<!-- Node14&#45;&gt;Node33 -->
<g id="edge109" class="edge"><title>Node14&#45;&gt;Node33</title>
<path fill="none" stroke="midnightblue" d="M1790.64,-600.501C1653.87,-596.073 1272.01,-581.792 1149,-557 1091.02,-545.314 1026.98,-521.236 986.4,-504.491"/>
<polygon fill="midnightblue" stroke="midnightblue" points="987.684,-501.234 977.108,-500.615 984.99,-507.695 987.684,-501.234"/>
</g>
<!-- Node14&#45;&gt;Node35 -->
<g id="edge108" class="edge"><title>Node14&#45;&gt;Node35</title>
<path fill="none" stroke="midnightblue" d="M1858.08,-593.39C1871.56,-585.872 1888.97,-573.565 1897,-557 1905.22,-540.048 1922.06,-504.104 1896,-470 1884.45,-454.888 1841.73,-443.204 1803.92,-435.533"/>
<polygon fill="midnightblue" stroke="midnightblue" points="1804.41,-432.063 1793.92,-433.574 1803.06,-438.932 1804.41,-432.063"/>
</g>
<!-- Node36 -->
<g id="node36" class="node"><title>Node36</title>
<g id="a_node36"><a xlink:href="structural__hash_8h.html" target="_top" xlink:title="tvm/node/structural\l_hash.h">
<polygon fill="white" stroke="black" points="750.5,-470.5 750.5,-500.5 861.5,-500.5 861.5,-470.5 750.5,-470.5"/>
<text text-anchor="start" x="758.5" y="-488.5" font-family="Helvetica,sans-Serif" font-size="10.00">tvm/node/structural</text>
<text text-anchor="middle" x="806" y="-477.5" font-family="Helvetica,sans-Serif" font-size="10.00">_hash.h</text>
</a>
</g>
</g>
<!-- Node14&#45;&gt;Node36 -->
<g id="edge110" class="edge"><title>Node14&#45;&gt;Node36</title>
<path fill="none" stroke="midnightblue" d="M1790.77,-600.418C1643.92,-595.492 1210.55,-579.411 1071,-557 995.709,-544.909 910.891,-520.348 857.944,-503.656"/>
<polygon fill="midnightblue" stroke="midnightblue" points="858.705,-500.226 848.115,-500.532 856.585,-506.897 858.705,-500.226"/>
</g>
<!-- Node37 -->
<g id="node37" class="node"><title>Node37</title>
<g id="a_node37"><a xlink:href="repr__printer_8h.html" target="_top" xlink:title="Printer class to print repr string of each AST/IR nodes. ">
<polygon fill="white" stroke="black" points="1758,-537.5 1758,-556.5 1888,-556.5 1888,-537.5 1758,-537.5"/>
<text text-anchor="middle" x="1823" y="-544.5" font-family="Helvetica,sans-Serif" font-size="10.00">tvm/node/repr_printer.h</text>
</a>
</g>
</g>
<!-- Node14&#45;&gt;Node37 -->
<g id="edge105" class="edge"><title>Node14&#45;&gt;Node37</title>
<path fill="none" stroke="midnightblue" d="M1837.19,-593.083C1834.92,-585.849 1831.63,-575.409 1828.79,-566.397"/>
<polygon fill="midnightblue" stroke="midnightblue" points="1832.1,-565.239 1825.75,-556.751 1825.42,-567.341 1832.1,-565.239"/>
</g>
<!-- Node15&#45;&gt;Node3 -->
<g id="edge26" class="edge"><title>Node15&#45;&gt;Node3</title>
<path fill="none" stroke="midnightblue" d="M1882.4,-358.222C1878.94,-349.285 1873.97,-334.942 1872,-322 1869.93,-308.379 1868.54,-304.337 1872,-291 1878.63,-265.416 1901.48,-259.672 1892,-235 1877.88,-198.237 1843.51,-166.491 1821.28,-148.839"/>
<polygon fill="midnightblue" stroke="midnightblue" points="1823.21,-145.904 1813.15,-142.576 1818.94,-151.451 1823.21,-145.904"/>
</g>
<!-- Node15&#45;&gt;Node4 -->
<g id="edge20" class="edge"><title>Node15&#45;&gt;Node4</title>
<path fill="none" stroke="midnightblue" d="M1888.29,-358.372C1893.12,-339.694 1904.2,-294.051 1908,-255 1908.86,-246.153 1909.52,-243.758 1908,-235 1898.98,-182.918 1909.65,-155.543 1868,-123 1832.57,-95.3216 1535.2,-79.8705 1411.58,-74.5918"/>
<polygon fill="midnightblue" stroke="midnightblue" points="1411.36,-71.0796 1401.22,-74.1561 1411.06,-78.0734 1411.36,-71.0796"/>
</g>
<!-- Node15&#45;&gt;Node9 -->
<g id="edge64" class="edge"><title>Node15&#45;&gt;Node9</title>
<path fill="none" stroke="midnightblue" d="M1819.81,-359.691C1754.3,-352.009 1651.31,-338.722 1563,-322 1505.06,-311.03 1491.93,-302.023 1434,-291 1321.56,-269.604 1276.37,-315.156 1179,-255 1170.53,-249.768 1093.5,-133.87 1064.22,-89.5363"/>
<polygon fill="midnightblue" stroke="midnightblue" points="1067.02,-87.4249 1058.6,-81.0052 1061.18,-91.2798 1067.02,-87.4249"/>
</g>
<!-- Node15&#45;&gt;Node10 -->
<g id="edge63" class="edge"><title>Node15&#45;&gt;Node10</title>
<path fill="none" stroke="midnightblue" d="M1819.85,-362.632C1731.54,-356.295 1570.4,-342.964 1434,-322 1289.95,-299.861 1254.4,-290.302 1113,-255 909.538,-204.205 864.464,-169.598 660,-123 561.99,-100.663 444.09,-83.9111 388.292,-76.5784"/>
<polygon fill="midnightblue" stroke="midnightblue" points="388.668,-73.0978 378.3,-75.279 387.765,-80.0394 388.668,-73.0978"/>
</g>
<!-- Node15&#45;&gt;Node11 -->
<g id="edge65" class="edge"><title>Node15&#45;&gt;Node11</title>
<path fill="none" stroke="midnightblue" d="M1952.19,-360.728C2021.92,-353.57 2134.74,-340.424 2231,-322 2349.89,-299.243 2380.39,-293.956 2495,-255 2554.56,-234.755 2574.53,-236.552 2625,-199 2651.07,-179.604 2658.15,-172.394 2672,-143 2679.7,-126.653 2682.85,-106.172 2684.13,-91.5043"/>
<polygon fill="midnightblue" stroke="midnightblue" points="2687.65,-91.3852 2684.81,-81.177 2680.66,-90.9257 2687.65,-91.3852"/>
</g>
<!-- Node15&#45;&gt;Node16 -->
<g id="edge21" class="edge"><title>Node15&#45;&gt;Node16</title>
<path fill="none" stroke="midnightblue" d="M1934.49,-358.415C2067.56,-334.72 2430.07,-269.218 2452,-255 2469.53,-243.635 2482.39,-223.037 2489.99,-208.067"/>
<polygon fill="midnightblue" stroke="midnightblue" points="2493.27,-209.319 2494.4,-198.785 2486.95,-206.314 2493.27,-209.319"/>
</g>
<!-- Node18 -->
<g id="node18" class="node"><title>Node18</title>
<g id="a_node18"><a xlink:href="packed__func_8h.html" target="_top" xlink:title="Type&#45;erased function used across TVM API. ">
<polygon fill="white" stroke="black" points="1572.5,-291.5 1572.5,-321.5 1685.5,-321.5 1685.5,-291.5 1572.5,-291.5"/>
<text text-anchor="start" x="1580.5" y="-309.5" font-family="Helvetica,sans-Serif" font-size="10.00">tvm/runtime/packed</text>
<text text-anchor="middle" x="1629" y="-298.5" font-family="Helvetica,sans-Serif" font-size="10.00">_func.h</text>
</a>
</g>
</g>
<!-- Node15&#45;&gt;Node18 -->
<g id="edge27" class="edge"><title>Node15&#45;&gt;Node18</title>
<path fill="none" stroke="midnightblue" d="M1849.18,-358.475C1809.18,-349.216 1744.47,-334.233 1695.53,-322.902"/>
<polygon fill="midnightblue" stroke="midnightblue" points="1696.18,-319.461 1685.65,-320.615 1694.6,-326.28 1696.18,-319.461"/>
</g>
<!-- Node15&#45;&gt;Node22 -->
<g id="edge66" class="edge"><title>Node15&#45;&gt;Node22</title>
<path fill="none" stroke="midnightblue" d="M1892.53,-358.395C1911.6,-333.21 1966.02,-261.041 1968,-255 1973.52,-238.109 1963.87,-219.558 1954.42,-206.613"/>
<polygon fill="midnightblue" stroke="midnightblue" points="1957.06,-204.303 1948.11,-198.636 1951.57,-208.649 1957.06,-204.303"/>
</g>
<!-- Node30 -->
<g id="node30" class="node"><title>Node30</title>
<polygon fill="white" stroke="#bfbfbf" points="1952.5,-297 1952.5,-316 2001.5,-316 2001.5,-297 1952.5,-297"/>
<text text-anchor="middle" x="1977" y="-304" font-family="Helvetica,sans-Serif" font-size="10.00">cstring</text>
</g>
<!-- Node15&#45;&gt;Node30 -->
<g id="edge61" class="edge"><title>Node15&#45;&gt;Node30</title>
<path fill="none" stroke="midnightblue" d="M1899.04,-358.475C1913.77,-348.843 1937.97,-333.017 1955.51,-321.552"/>
<polygon fill="midnightblue" stroke="midnightblue" points="1957.53,-324.411 1963.99,-316.009 1953.7,-318.552 1957.53,-324.411"/>
</g>
<!-- Node31 -->
<g id="node31" class="node"><title>Node31</title>
<polygon fill="white" stroke="#bfbfbf" points="1742.5,-297 1742.5,-316 1819.5,-316 1819.5,-297 1742.5,-297"/>
<text text-anchor="middle" x="1781" y="-304" font-family="Helvetica,sans-Serif" font-size="10.00">initializer_list</text>
</g>
<!-- Node15&#45;&gt;Node31 -->
<g id="edge62" class="edge"><title>Node15&#45;&gt;Node31</title>
<path fill="none" stroke="midnightblue" d="M1870.96,-358.475C1853.72,-348.711 1825.26,-332.581 1804.97,-321.081"/>
<polygon fill="midnightblue" stroke="midnightblue" points="1806.44,-317.894 1796.02,-316.009 1802.99,-323.984 1806.44,-317.894"/>
</g>
<!-- Node16&#45;&gt;Node3 -->
<g id="edge22" class="edge"><title>Node16&#45;&gt;Node3</title>
<path fill="none" stroke="midnightblue" d="M2434.3,-183.065C2303.45,-172.927 2005.37,-149.834 1870.08,-139.352"/>
<polygon fill="midnightblue" stroke="midnightblue" points="1870.08,-135.842 1859.84,-138.559 1869.54,-142.821 1870.08,-135.842"/>
</g>
<!-- Node16&#45;&gt;Node9 -->
<g id="edge25" class="edge"><title>Node16&#45;&gt;Node9</title>
<path fill="none" stroke="midnightblue" d="M2463.06,-179.426C2402.43,-164.951 2273.62,-135.981 2163,-123 1784.37,-78.5683 1686.76,-105.907 1306,-87 1232.98,-83.374 1148.15,-78.3455 1097.61,-75.2633"/>
<polygon fill="midnightblue" stroke="midnightblue" points="1097.56,-71.7537 1087.37,-74.6363 1097.13,-78.7406 1097.56,-71.7537"/>
</g>
<!-- Node16&#45;&gt;Node11 -->
<g id="edge24" class="edge"><title>Node16&#45;&gt;Node11</title>
<path fill="none" stroke="midnightblue" d="M2512.06,-179.319C2544.22,-159.454 2623.4,-110.55 2662.46,-86.4219"/>
<polygon fill="midnightblue" stroke="midnightblue" points="2664.37,-89.3572 2671.04,-81.1245 2660.69,-83.4016 2664.37,-89.3572"/>
</g>
<!-- Node17 -->
<g id="node17" class="node"><title>Node17</title>
<polygon fill="white" stroke="#bfbfbf" points="2438.5,-123.5 2438.5,-142.5 2485.5,-142.5 2485.5,-123.5 2438.5,-123.5"/>
<text text-anchor="middle" x="2462" y="-130.5" font-family="Helvetica,sans-Serif" font-size="10.00">cstdlib</text>
</g>
<!-- Node16&#45;&gt;Node17 -->
<g id="edge23" class="edge"><title>Node16&#45;&gt;Node17</title>
<path fill="none" stroke="midnightblue" d="M2492.06,-179.083C2487.02,-171.534 2479.66,-160.495 2473.49,-151.23"/>
<polygon fill="midnightblue" stroke="midnightblue" points="2476.29,-149.13 2467.83,-142.751 2470.47,-153.013 2476.29,-149.13"/>
</g>
<!-- Node18&#45;&gt;Node3 -->
<g id="edge52" class="edge"><title>Node18&#45;&gt;Node3</title>
<path fill="none" stroke="midnightblue" d="M1608.45,-291.497C1590.88,-277.671 1570.02,-255.658 1581,-235 1610.24,-180.005 1679.35,-154.835 1732.37,-143.39"/>
<polygon fill="midnightblue" stroke="midnightblue" points="1733.31,-146.771 1742.41,-141.343 1731.91,-139.912 1733.31,-146.771"/>
</g>
<!-- Node18&#45;&gt;Node4 -->
<g id="edge28" class="edge"><title>Node18&#45;&gt;Node4</title>
<path fill="none" stroke="midnightblue" d="M1612.46,-291.276C1564.44,-249.992 1425.33,-130.391 1375.78,-87.7911"/>
<polygon fill="midnightblue" stroke="midnightblue" points="1377.98,-85.0665 1368.12,-81.201 1373.42,-90.3744 1377.98,-85.0665"/>
</g>
<!-- Node18&#45;&gt;Node5 -->
<g id="edge29" class="edge"><title>Node18&#45;&gt;Node5</title>
<path fill="none" stroke="midnightblue" d="M1685.57,-296.712C1700.93,-294.573 1717.57,-292.478 1733,-291 1770.93,-287.366 2391.77,-282.645 2418,-255 2446.43,-225.032 2337.44,-133.902 2284.86,-92.8866"/>
<polygon fill="midnightblue" stroke="midnightblue" points="2286.69,-89.875 2276.64,-86.5217 2282.41,-95.4105 2286.69,-89.875"/>
</g>
<!-- Node18&#45;&gt;Node9 -->
<g id="edge60" class="edge"><title>Node18&#45;&gt;Node9</title>
<path fill="none" stroke="midnightblue" d="M1572.41,-298.56C1552.66,-296.151 1530.35,-293.441 1510,-291 1442.24,-282.873 1262.5,-291.769 1205,-255 1147.01,-217.917 1170.99,-173.294 1124,-123 1110.32,-108.355 1091.78,-95.3418 1077.08,-86.1941"/>
<polygon fill="midnightblue" stroke="midnightblue" points="1078.86,-83.1862 1068.49,-81.018 1075.25,-89.1802 1078.86,-83.1862"/>
</g>
<!-- Node18&#45;&gt;Node10 -->
<g id="edge56" class="edge"><title>Node18&#45;&gt;Node10</title>
<path fill="none" stroke="midnightblue" d="M1572.32,-301.387C1468.49,-293.481 1251.73,-275.15 1179,-255 1063.62,-223.034 1041.46,-195.791 934,-143 916.87,-134.585 914.295,-128.437 896,-123 799.88,-94.4356 489.91,-78.4453 388.467,-73.8786"/>
<polygon fill="midnightblue" stroke="midnightblue" points="388.374,-70.3711 378.229,-73.4248 388.064,-77.3643 388.374,-70.3711"/>
</g>
<!-- Node18&#45;&gt;Node11 -->
<g id="edge59" class="edge"><title>Node18&#45;&gt;Node11</title>
<path fill="none" stroke="midnightblue" d="M1685.57,-296.699C1700.93,-294.56 1717.57,-292.468 1733,-291 2044,-261.402 2128.28,-314.333 2435,-255 2510.21,-240.452 2533.4,-240.159 2598,-199 2627.16,-180.422 2632.41,-171.487 2652,-143 2663.34,-126.514 2672.6,-105.515 2678.4,-90.738"/>
<polygon fill="midnightblue" stroke="midnightblue" points="2681.73,-91.8231 2681.98,-81.2313 2675.18,-89.3524 2681.73,-91.8231"/>
</g>
<!-- Node18&#45;&gt;Node13 -->
<g id="edge51" class="edge"><title>Node18&#45;&gt;Node13</title>
<path fill="none" stroke="midnightblue" d="M1572.45,-300.631C1449.42,-290.037 1157.22,-264.876 1016.46,-252.756"/>
<polygon fill="midnightblue" stroke="midnightblue" points="1016.44,-249.241 1006.18,-251.871 1015.84,-256.216 1016.44,-249.241"/>
</g>
<!-- Node19 -->
<g id="node19" class="node"><title>Node19</title>
<g id="a_node19"><a xlink:href="runtime_2module_8h.html" target="_top" xlink:title="Runtime container of the functions generated by TVM, This is used to support dynamically link...">
<polygon fill="white" stroke="black" points="1590,-235.5 1590,-254.5 1714,-254.5 1714,-235.5 1590,-235.5"/>
<text text-anchor="middle" x="1652" y="-242.5" font-family="Helvetica,sans-Serif" font-size="10.00">tvm/runtime/module.h</text>
</a>
</g>
</g>
<!-- Node18&#45;&gt;Node19 -->
<g id="edge30" class="edge"><title>Node18&#45;&gt;Node19</title>
<path fill="none" stroke="midnightblue" d="M1628.61,-291.399C1630.75,-283.11 1634.7,-272.554 1638.92,-263.708"/>
<polygon fill="midnightblue" stroke="midnightblue" points="1642.13,-265.132 1643.72,-254.658 1635.95,-261.851 1642.13,-265.132"/>
</g>
<!-- Node21 -->
<g id="node21" class="node"><title>Node21</title>
<polygon fill="white" stroke="#bfbfbf" points="1724.5,-179.5 1724.5,-198.5 1781.5,-198.5 1781.5,-179.5 1724.5,-179.5"/>
<text text-anchor="middle" x="1753" y="-186.5" font-family="Helvetica,sans-Serif" font-size="10.00">memory</text>
</g>
<!-- Node18&#45;&gt;Node21 -->
<g id="edge58" class="edge"><title>Node18&#45;&gt;Node21</title>
<path fill="none" stroke="midnightblue" d="M1685.67,-294.046C1724.24,-284.969 1770.32,-271.151 1782,-255 1792.91,-239.907 1780.92,-220.056 1769.22,-206.28"/>
<polygon fill="midnightblue" stroke="midnightblue" points="1771.51,-203.597 1762.17,-198.585 1766.34,-208.324 1771.51,-203.597"/>
</g>
<!-- Node18&#45;&gt;Node22 -->
<g id="edge55" class="edge"><title>Node18&#45;&gt;Node22</title>
<path fill="none" stroke="midnightblue" d="M1683.63,-291.415C1717.29,-282.211 1761.11,-269.276 1799,-255 1840.29,-239.441 1886.43,-217.202 1914.33,-203.188"/>
<polygon fill="midnightblue" stroke="midnightblue" points="1916.06,-206.236 1923.4,-198.599 1912.9,-199.99 1916.06,-206.236"/>
</g>
<!-- Node24 -->
<g id="node24" class="node"><title>Node24</title>
<g id="a_node24"><a xlink:href="ndarray_8h.html" target="_top" xlink:title="A device&#45;independent managed NDArray abstraction. ">
<polygon fill="white" stroke="black" points="2286.5,-235.5 2286.5,-254.5 2409.5,-254.5 2409.5,-235.5 2286.5,-235.5"/>
<text text-anchor="middle" x="2348" y="-242.5" font-family="Helvetica,sans-Serif" font-size="10.00">tvm/runtime/ndarray.h</text>
</a>
</g>
</g>
<!-- Node18&#45;&gt;Node24 -->
<g id="edge40" class="edge"><title>Node18&#45;&gt;Node24</title>
<path fill="none" stroke="midnightblue" d="M1685.59,-296.924C1700.95,-294.784 1717.59,-292.636 1733,-291 1929.09,-270.179 2161.38,-256.024 2276.26,-249.721"/>
<polygon fill="midnightblue" stroke="midnightblue" points="2276.55,-253.211 2286.34,-249.172 2276.16,-246.221 2276.55,-253.211"/>
</g>
<!-- Node27 -->
<g id="node27" class="node"><title>Node27</title>
<polygon fill="white" stroke="#bfbfbf" points="598.5,-235.5 598.5,-254.5 661.5,-254.5 661.5,-235.5 598.5,-235.5"/>
<text text-anchor="middle" x="630" y="-242.5" font-family="Helvetica,sans-Serif" font-size="10.00">functional</text>
</g>
<!-- Node18&#45;&gt;Node27 -->
<g id="edge53" class="edge"><title>Node18&#45;&gt;Node27</title>
<path fill="none" stroke="midnightblue" d="M1572.43,-302.131C1391.66,-291.364 830.635,-257.95 672.107,-248.508"/>
<polygon fill="midnightblue" stroke="midnightblue" points="672.017,-244.996 661.827,-247.896 671.601,-251.984 672.017,-244.996"/>
</g>
<!-- Node28 -->
<g id="node28" class="node"><title>Node28</title>
<polygon fill="white" stroke="#bfbfbf" points="1732.5,-235.5 1732.5,-254.5 1773.5,-254.5 1773.5,-235.5 1732.5,-235.5"/>
<text text-anchor="middle" x="1753" y="-242.5" font-family="Helvetica,sans-Serif" font-size="10.00">tuple</text>
</g>
<!-- Node18&#45;&gt;Node28 -->
<g id="edge54" class="edge"><title>Node18&#45;&gt;Node28</title>
<path fill="none" stroke="midnightblue" d="M1658.39,-291.399C1678.82,-281.595 1705.86,-268.619 1725.8,-259.052"/>
<polygon fill="midnightblue" stroke="midnightblue" points="1727.46,-262.139 1734.96,-254.658 1724.43,-255.828 1727.46,-262.139"/>
</g>
<!-- Node29 -->
<g id="node29" class="node"><title>Node29</title>
<polygon fill="white" stroke="#bfbfbf" points="1454,-235.5 1454,-254.5 1496,-254.5 1496,-235.5 1454,-235.5"/>
<text text-anchor="middle" x="1475" y="-242.5" font-family="Helvetica,sans-Serif" font-size="10.00">limits</text>
</g>
<!-- Node18&#45;&gt;Node29 -->
<g id="edge57" class="edge"><title>Node18&#45;&gt;Node29</title>
<path fill="none" stroke="midnightblue" d="M1592.5,-291.399C1565.96,-281.145 1530.45,-267.423 1505.43,-257.758"/>
<polygon fill="midnightblue" stroke="midnightblue" points="1506.66,-254.481 1496.07,-254.142 1504.14,-261.011 1506.66,-254.481"/>
</g>
<!-- Node19&#45;&gt;Node3 -->
<g id="edge33" class="edge"><title>Node19&#45;&gt;Node3</title>
<path fill="none" stroke="midnightblue" d="M1653.66,-235.165C1656.7,-221.343 1664.44,-194.581 1681,-179 1698.35,-162.671 1722.19,-152.129 1744.05,-145.389"/>
<polygon fill="midnightblue" stroke="midnightblue" points="1745.28,-148.678 1753.92,-142.553 1743.34,-141.95 1745.28,-148.678"/>
</g>
<!-- Node19&#45;&gt;Node5 -->
<g id="edge32" class="edge"><title>Node19&#45;&gt;Node5</title>
<path fill="none" stroke="midnightblue" d="M1714.32,-235.901C1717.25,-235.582 1720.16,-235.28 1723,-235 1779.75,-229.412 2192.52,-237.055 2235,-199 2263.3,-173.641 2264.13,-126.063 2261.51,-97.0353"/>
<polygon fill="midnightblue" stroke="midnightblue" points="2264.97,-96.4569 2260.39,-86.9033 2258.01,-97.228 2264.97,-96.4569"/>
</g>
<!-- Node19&#45;&gt;Node10 -->
<g id="edge37" class="edge"><title>Node19&#45;&gt;Node10</title>
<path fill="none" stroke="midnightblue" d="M1608.88,-235.496C1497.58,-213.815 1191.37,-155.876 934,-123 726.819,-96.5347 476.063,-79.8111 388.241,-74.4107"/>
<polygon fill="midnightblue" stroke="midnightblue" points="388.311,-70.9087 378.117,-73.7942 387.886,-77.8957 388.311,-70.9087"/>
</g>
<!-- Node19&#45;&gt;Node16 -->
<g id="edge34" class="edge"><title>Node19&#45;&gt;Node16</title>
<path fill="none" stroke="midnightblue" d="M1714.31,-235.857C1717.25,-235.551 1720.15,-235.263 1723,-235 1998.29,-209.602 2068,-215.065 2344,-199 2370.08,-197.482 2398.65,-195.814 2424.02,-194.33"/>
<polygon fill="midnightblue" stroke="midnightblue" points="2424.53,-197.807 2434.31,-193.729 2424.13,-190.818 2424.53,-197.807"/>
</g>
<!-- Node19&#45;&gt;Node18 -->
<g id="edge39" class="edge"><title>Node19&#45;&gt;Node18</title>
<path fill="none" stroke="midnightblue" d="M1653.58,-254.658C1652.34,-261.881 1648.79,-272.519 1644.61,-282.199"/>
<polygon fill="midnightblue" stroke="midnightblue" points="1641.38,-280.86 1640.29,-291.399 1647.71,-283.837 1641.38,-280.86"/>
</g>
<!-- Node20 -->
<g id="node20" class="node"><title>Node20</title>
<polygon fill="white" stroke="#bfbfbf" points="1949,-123.5 1949,-142.5 2009,-142.5 2009,-123.5 1949,-123.5"/>
<text text-anchor="middle" x="1979" y="-130.5" font-family="Helvetica,sans-Serif" font-size="10.00">dmlc/io.h</text>
</g>
<!-- Node19&#45;&gt;Node20 -->
<g id="edge31" class="edge"><title>Node19&#45;&gt;Node20</title>
<path fill="none" stroke="midnightblue" d="M1657.75,-235.134C1667.6,-220.765 1689.14,-192.626 1715,-179 1753.19,-158.88 1874.84,-144.275 1938.81,-137.768"/>
<polygon fill="midnightblue" stroke="midnightblue" points="1939.33,-141.233 1948.94,-136.757 1938.64,-134.268 1939.33,-141.233"/>
</g>
<!-- Node19&#45;&gt;Node21 -->
<g id="edge35" class="edge"><title>Node19&#45;&gt;Node21</title>
<path fill="none" stroke="midnightblue" d="M1668.23,-235.324C1684.35,-226.703 1709.3,-213.364 1727.96,-203.386"/>
<polygon fill="midnightblue" stroke="midnightblue" points="1729.64,-206.456 1736.81,-198.655 1726.34,-200.283 1729.64,-206.456"/>
</g>
<!-- Node19&#45;&gt;Node22 -->
<g id="edge36" class="edge"><title>Node19&#45;&gt;Node22</title>
<path fill="none" stroke="midnightblue" d="M1697.63,-235.444C1755.65,-224.565 1854.48,-206.035 1906.19,-196.339"/>
<polygon fill="midnightblue" stroke="midnightblue" points="1907,-199.749 1916.18,-194.466 1905.71,-192.869 1907,-199.749"/>
</g>
<!-- Node23 -->
<g id="node23" class="node"><title>Node23</title>
<polygon fill="white" stroke="#bfbfbf" points="664.5,-179.5 664.5,-198.5 757.5,-198.5 757.5,-179.5 664.5,-179.5"/>
<text text-anchor="middle" x="711" y="-186.5" font-family="Helvetica,sans-Serif" font-size="10.00">unordered_map</text>
</g>
<!-- Node19&#45;&gt;Node23 -->
<g id="edge38" class="edge"><title>Node19&#45;&gt;Node23</title>
<path fill="none" stroke="midnightblue" d="M1589.78,-240.128C1563.6,-238.515 1532.82,-236.64 1505,-235 1228.56,-218.704 897.907,-200.321 767.676,-193.124"/>
<polygon fill="midnightblue" stroke="midnightblue" points="767.719,-189.621 757.542,-192.564 767.333,-196.61 767.719,-189.621"/>
</g>
<!-- Node24&#45;&gt;Node3 -->
<g id="edge42" class="edge"><title>Node24&#45;&gt;Node3</title>
<path fill="none" stroke="midnightblue" d="M2287.71,-235.491C2222.65,-225.976 2123.48,-210.406 2087,-199 2066.88,-192.71 2064.08,-185.414 2044,-179 1986.65,-160.677 1919.15,-148.92 1869.87,-142.036"/>
<polygon fill="midnightblue" stroke="midnightblue" points="1870.33,-138.567 1859.95,-140.683 1869.39,-145.503 1870.33,-138.567"/>
</g>
<!-- Node24&#45;&gt;Node5 -->
<g id="edge41" class="edge"><title>Node24&#45;&gt;Node5</title>
<path fill="none" stroke="midnightblue" d="M2343.41,-235.26C2329.97,-209.649 2290.36,-134.168 2270.16,-95.6628"/>
<polygon fill="midnightblue" stroke="midnightblue" points="2273.21,-93.9511 2265.46,-86.7228 2267.01,-97.204 2273.21,-93.9511"/>
</g>
<!-- Node24&#45;&gt;Node11 -->
<g id="edge50" class="edge"><title>Node24&#45;&gt;Node11</title>
<path fill="none" stroke="midnightblue" d="M2409.53,-241.797C2456.23,-237.782 2520.59,-227.062 2570,-199 2617.79,-171.86 2656.61,-117.799 2674.44,-89.9607"/>
<polygon fill="midnightblue" stroke="midnightblue" points="2677.52,-91.6311 2679.85,-81.2947 2671.58,-87.9245 2677.52,-91.6311"/>
</g>
<!-- Node24&#45;&gt;Node12 -->
<g id="edge48" class="edge"><title>Node24&#45;&gt;Node12</title>
<path fill="none" stroke="midnightblue" d="M2337.45,-235.339C2310.23,-213.416 2234.79,-155.187 2163,-123 2112.51,-100.364 2049.68,-85.9644 2011.22,-78.5645"/>
<polygon fill="midnightblue" stroke="midnightblue" points="2011.53,-75.0606 2001.05,-76.6619 2010.24,-81.9413 2011.53,-75.0606"/>
</g>
<!-- Node24&#45;&gt;Node22 -->
<g id="edge49" class="edge"><title>Node24&#45;&gt;Node22</title>
<path fill="none" stroke="midnightblue" d="M2286.48,-235.857C2199.21,-224.307 2042.45,-203.56 1973.78,-194.471"/>
<polygon fill="midnightblue" stroke="midnightblue" points="1973.91,-190.958 1963.54,-193.116 1972.99,-197.898 1973.91,-190.958"/>
</g>
<!-- Node25 -->
<g id="node25" class="node"><title>Node25</title>
<g id="a_node25"><a xlink:href="serializer_8h.html" target="_top" xlink:title="Serializer extension to support TVM data types Include this file to enable serialization of DLDataTyp...">
<polygon fill="white" stroke="black" points="2096,-179.5 2096,-198.5 2226,-198.5 2226,-179.5 2096,-179.5"/>
<text text-anchor="middle" x="2161" y="-186.5" font-family="Helvetica,sans-Serif" font-size="10.00">tvm/runtime/serializer.h</text>
</a>
</g>
</g>
<!-- Node24&#45;&gt;Node25 -->
<g id="edge43" class="edge"><title>Node24&#45;&gt;Node25</title>
<path fill="none" stroke="midnightblue" d="M2313.28,-235.444C2279.54,-226.28 2228.82,-211.688 2195.24,-201.519"/>
<polygon fill="midnightblue" stroke="midnightblue" points="2196,-198.09 2185.41,-198.516 2193.95,-204.785 2196,-198.09"/>
</g>
<!-- Node25&#45;&gt;Node5 -->
<g id="edge46" class="edge"><title>Node25&#45;&gt;Node5</title>
<path fill="none" stroke="midnightblue" d="M2166.32,-179.2C2174.27,-166.328 2190.03,-141.851 2206,-123 2214.64,-112.797 2225.07,-102.365 2234.31,-93.6505"/>
<polygon fill="midnightblue" stroke="midnightblue" points="2236.77,-96.1414 2241.73,-86.7774 2232.01,-91.0067 2236.77,-96.1414"/>
</g>
<!-- Node25&#45;&gt;Node20 -->
<g id="edge44" class="edge"><title>Node25&#45;&gt;Node20</title>
<path fill="none" stroke="midnightblue" d="M2132.16,-179.444C2101.14,-170.241 2051.67,-155.562 2017.38,-145.388"/>
<polygon fill="midnightblue" stroke="midnightblue" points="2018.29,-142.006 2007.7,-142.516 2016.29,-148.716 2018.29,-142.006"/>
</g>
<!-- Node25&#45;&gt;Node24 -->
<g id="edge47" class="edge"><title>Node25&#45;&gt;Node24</title>
<path fill="none" stroke="midnightblue" d="M2195.57,-198.516C2229.27,-207.664 2279.98,-222.255 2313.61,-232.436"/>
<polygon fill="midnightblue" stroke="midnightblue" points="2312.87,-235.871 2323.46,-235.444 2314.92,-229.176 2312.87,-235.871"/>
</g>
<!-- Node26 -->
<g id="node26" class="node"><title>Node26</title>
<polygon fill="white" stroke="#bfbfbf" points="2060,-123.5 2060,-142.5 2154,-142.5 2154,-123.5 2060,-123.5"/>
<text text-anchor="middle" x="2107" y="-130.5" font-family="Helvetica,sans-Serif" font-size="10.00">dmlc/serializer.h</text>
</g>
<!-- Node25&#45;&gt;Node26 -->
<g id="edge45" class="edge"><title>Node25&#45;&gt;Node26</title>
<path fill="none" stroke="midnightblue" d="M2152.08,-179.083C2144.22,-171.22 2132.57,-159.569 2123.08,-150.081"/>
<polygon fill="midnightblue" stroke="midnightblue" points="2125.3,-147.347 2115.75,-142.751 2120.35,-152.297 2125.3,-147.347"/>
</g>
<!-- Node32&#45;&gt;Node3 -->
<g id="edge71" class="edge"><title>Node32&#45;&gt;Node3</title>
<path fill="none" stroke="midnightblue" d="M1218,-537.215C1218.34,-509.365 1222.04,-421.158 1254,-358 1278.49,-309.595 1371.64,-203.584 1420,-179 1447.12,-165.212 1629.63,-148.181 1731.89,-139.561"/>
<polygon fill="midnightblue" stroke="midnightblue" points="1732.46,-143.026 1742.13,-138.703 1731.88,-136.05 1732.46,-143.026"/>
</g>
<!-- Node32&#45;&gt;Node5 -->
<g id="edge70" class="edge"><title>Node32&#45;&gt;Node5</title>
<path fill="none" stroke="midnightblue" d="M1277.65,-541.38C1361.64,-534.522 1519.44,-520.346 1653,-501 1727.28,-490.241 1744.91,-481.963 1819,-470 1935.91,-451.125 1968.16,-462.886 2083,-434 2221.02,-399.283 2252.67,-379.187 2383,-322 2443.25,-295.564 2461.92,-293.869 2515,-255 2548.64,-230.367 2588.8,-216.214 2570,-179 2560.54,-160.276 2513.13,-131.61 2494,-123 2442.37,-99.761 2379.48,-86.9846 2331.61,-80.1005"/>
<polygon fill="midnightblue" stroke="midnightblue" points="2332.02,-76.6238 2321.64,-78.7193 2331.06,-83.5576 2332.02,-76.6238"/>
</g>
<!-- Node32&#45;&gt;Node9 -->
<g id="edge104" class="edge"><title>Node32&#45;&gt;Node9</title>
<path fill="none" stroke="midnightblue" d="M1196.88,-537.365C1130.8,-508.99 928.45,-411.392 861,-255 825.559,-172.827 954.93,-110.132 1019.04,-84.7812"/>
<polygon fill="midnightblue" stroke="midnightblue" points="1020.66,-87.905 1028.73,-81.036 1018.14,-81.3754 1020.66,-87.905"/>
</g>
<!-- Node32&#45;&gt;Node10 -->
<g id="edge103" class="edge"><title>Node32&#45;&gt;Node10</title>
<path fill="none" stroke="midnightblue" d="M1158.41,-545.169C1047.5,-542.842 814.035,-534.049 741,-501 540.802,-410.408 400.647,-159.668 364.943,-90.4199"/>
<polygon fill="midnightblue" stroke="midnightblue" points="367.927,-88.5658 360.276,-81.2364 361.686,-91.737 367.927,-88.5658"/>
</g>
<!-- Node32&#45;&gt;Node13 -->
<g id="edge75" class="edge"><title>Node32&#45;&gt;Node13</title>
<path fill="none" stroke="midnightblue" d="M1209.92,-537.345C1171.2,-495.859 1004.36,-317.102 953.064,-262.14"/>
<polygon fill="midnightblue" stroke="midnightblue" points="955.493,-259.612 946.111,-254.69 950.375,-264.389 955.493,-259.612"/>
</g>
<!-- Node32&#45;&gt;Node16 -->
<g id="edge72" class="edge"><title>Node32&#45;&gt;Node16</title>
<path fill="none" stroke="midnightblue" d="M1277.65,-541.38C1361.64,-534.522 1519.44,-520.346 1653,-501 1727.28,-490.241 1744.91,-481.963 1819,-470 1935.91,-451.125 1968.16,-462.886 2083,-434 2221.02,-399.283 2254.38,-382.932 2383,-322 2436.46,-296.675 2468.52,-306.286 2498,-255 2506,-241.088 2505.11,-222.578 2502.74,-208.87"/>
<polygon fill="midnightblue" stroke="midnightblue" points="2506.08,-207.738 2500.57,-198.69 2499.23,-209.201 2506.08,-207.738"/>
</g>
<!-- Node32&#45;&gt;Node18 -->
<g id="edge73" class="edge"><title>Node32&#45;&gt;Node18</title>
<path fill="none" stroke="midnightblue" d="M1223.93,-537.163C1244.81,-506.767 1318.49,-405.767 1406,-358 1454.43,-331.567 1516,-318.951 1562.18,-312.94"/>
<polygon fill="midnightblue" stroke="midnightblue" points="1562.88,-316.38 1572.37,-311.686 1562.02,-309.432 1562.88,-316.38"/>
</g>
<!-- Node32&#45;&gt;Node22 -->
<g id="edge102" class="edge"><title>Node32&#45;&gt;Node22</title>
<path fill="none" stroke="midnightblue" d="M1247.92,-537.399C1302.67,-521.931 1422.86,-489.243 1526,-470 1732.67,-431.442 1822.5,-505.061 1990,-378 2040.99,-339.318 2045.9,-285.827 2007,-235 1996.83,-221.71 1981.56,-211.026 1968.17,-203.409"/>
<polygon fill="midnightblue" stroke="midnightblue" points="1969.75,-200.284 1959.29,-198.631 1966.44,-206.449 1969.75,-200.284"/>
</g>
<!-- Node32&#45;&gt;Node24 -->
<g id="edge74" class="edge"><title>Node32&#45;&gt;Node24</title>
<path fill="none" stroke="midnightblue" d="M1274.81,-537.447C1371.77,-522.94 1575.45,-492.862 1748,-470 1879.38,-452.593 1918.95,-477.875 2044,-434 2163.12,-392.204 2284.9,-298.112 2329.88,-261.236"/>
<polygon fill="midnightblue" stroke="midnightblue" points="2332.36,-263.729 2337.83,-254.656 2327.9,-258.336 2332.36,-263.729"/>
</g>
<!-- Node32&#45;&gt;Node33 -->
<g id="edge76" class="edge"><title>Node32&#45;&gt;Node33</title>
<path fill="none" stroke="midnightblue" d="M1178.89,-537.475C1134.98,-527.906 1063.02,-512.222 1010.5,-500.775"/>
<polygon fill="midnightblue" stroke="midnightblue" points="1011.11,-497.327 1000.6,-498.617 1009.62,-504.167 1011.11,-497.327"/>
</g>
<!-- Node32&#45;&gt;Node36 -->
<g id="edge96" class="edge"><title>Node32&#45;&gt;Node36</title>
<path fill="none" stroke="midnightblue" d="M1158.31,-539.172C1090.64,-531.172 977.114,-516.964 880,-501 877.307,-500.557 874.563,-500.091 871.792,-499.607"/>
<polygon fill="midnightblue" stroke="midnightblue" points="872.156,-496.116 861.695,-497.792 870.918,-503.006 872.156,-496.116"/>
</g>
<!-- Node33&#45;&gt;Node10 -->
<g id="edge95" class="edge"><title>Node33&#45;&gt;Node10</title>
<path fill="none" stroke="midnightblue" d="M928.097,-470.247C904.209,-450.018 859.323,-411.689 822,-378 753.147,-315.852 745.692,-288.608 670,-235 573.639,-166.754 444.791,-109.315 386.693,-84.978"/>
<polygon fill="midnightblue" stroke="midnightblue" points="387.917,-81.6968 377.34,-81.0909 385.231,-88.1608 387.917,-81.6968"/>
</g>
<!-- Node33&#45;&gt;Node13 -->
<g id="edge77" class="edge"><title>Node33&#45;&gt;Node13</title>
<path fill="none" stroke="midnightblue" d="M943.427,-470.398C941.242,-450.031 937.4,-411.185 936,-378 934.371,-339.368 935.141,-329.657 936,-291 936.191,-282.391 936.588,-272.863 936.978,-264.799"/>
<polygon fill="midnightblue" stroke="midnightblue" points="940.483,-264.79 937.503,-254.623 933.492,-264.429 940.483,-264.79"/>
</g>
<!-- Node34 -->
<g id="node34" class="node"><title>Node34</title>
<g id="a_node34"><a xlink:href="functor_8h.html" target="_top" xlink:title="Defines the Functor data structures. ">
<polygon fill="white" stroke="black" points="1214.5,-235.5 1214.5,-254.5 1321.5,-254.5 1321.5,-235.5 1214.5,-235.5"/>
<text text-anchor="middle" x="1268" y="-242.5" font-family="Helvetica,sans-Serif" font-size="10.00">tvm/node/functor.h</text>
</a>
</g>
</g>
<!-- Node33&#45;&gt;Node34 -->
<g id="edge78" class="edge"><title>Node33&#45;&gt;Node34</title>
<path fill="none" stroke="midnightblue" d="M964.238,-470.295C1021.35,-428.126 1189.55,-303.93 1247.84,-260.888"/>
<polygon fill="midnightblue" stroke="midnightblue" points="1250.25,-263.458 1256.21,-254.702 1246.09,-257.827 1250.25,-263.458"/>
</g>
<!-- Node33&#45;&gt;Node35 -->
<g id="edge84" class="edge"><title>Node33&#45;&gt;Node35</title>
<path fill="none" stroke="midnightblue" d="M1000.59,-480.34C1141.81,-469.77 1514.19,-441.9 1669.94,-430.243"/>
<polygon fill="midnightblue" stroke="midnightblue" points="1670.62,-433.702 1680.33,-429.466 1670.1,-426.722 1670.62,-433.702"/>
</g>
<!-- Node34&#45;&gt;Node3 -->
<g id="edge80" class="edge"><title>Node34&#45;&gt;Node3</title>
<path fill="none" stroke="midnightblue" d="M1279.23,-235.466C1298.87,-221.053 1341.24,-192.172 1382,-179 1445.35,-158.526 1630.4,-144.419 1732.09,-137.974"/>
<polygon fill="midnightblue" stroke="midnightblue" points="1732.5,-141.455 1742.26,-137.337 1732.06,-134.469 1732.5,-141.455"/>
</g>
<!-- Node34&#45;&gt;Node4 -->
<g id="edge79" class="edge"><title>Node34&#45;&gt;Node4</title>
<path fill="none" stroke="midnightblue" d="M1272.59,-235.26C1286.73,-208.306 1329.86,-126.116 1348.86,-89.9237"/>
<polygon fill="midnightblue" stroke="midnightblue" points="1351.98,-91.5006 1353.53,-81.0194 1345.78,-88.2477 1351.98,-91.5006"/>
</g>
<!-- Node34&#45;&gt;Node9 -->
<g id="edge82" class="edge"><title>Node34&#45;&gt;Node9</title>
<path fill="none" stroke="midnightblue" d="M1265.5,-235.272C1258.72,-213.193 1237.95,-154.629 1200,-123 1170.54,-98.4452 1128.49,-85.5899 1096.9,-79.0117"/>
<polygon fill="midnightblue" stroke="midnightblue" points="1097.53,-75.5681 1087.04,-77.0897 1096.19,-82.4387 1097.53,-75.5681"/>
</g>
<!-- Node34&#45;&gt;Node11 -->
<g id="edge83" class="edge"><title>Node34&#45;&gt;Node11</title>
<path fill="none" stroke="midnightblue" d="M1321.83,-241.189C1356.9,-239.376 1403.66,-236.993 1445,-235 1620.53,-226.538 2063.1,-235.541 2235,-199 2325.58,-179.745 2340.11,-148.953 2429,-123 2508.61,-99.7572 2605.27,-83.932 2653.89,-76.8015"/>
<polygon fill="midnightblue" stroke="midnightblue" points="2654.39,-80.2653 2663.79,-75.3728 2653.39,-73.3371 2654.39,-80.2653"/>
</g>
<!-- Node34&#45;&gt;Node22 -->
<g id="edge81" class="edge"><title>Node34&#45;&gt;Node22</title>
<path fill="none" stroke="midnightblue" d="M1321.57,-239.695C1454.58,-229.007 1797,-201.491 1906.08,-192.725"/>
<polygon fill="midnightblue" stroke="midnightblue" points="1906.5,-196.203 1916.19,-191.913 1905.94,-189.226 1906.5,-196.203"/>
</g>
<!-- Node35&#45;&gt;Node3 -->
<g id="edge85" class="edge"><title>Node35&#45;&gt;Node3</title>
<path fill="none" stroke="midnightblue" d="M1739.2,-414.364C1737.63,-396.926 1734.19,-356.254 1733,-322 1732.52,-308.23 1725.97,-302.847 1733,-291 1750.06,-262.268 1781.71,-283.59 1799,-255 1818.23,-223.211 1811.85,-177.605 1806.06,-152.438"/>
<polygon fill="midnightblue" stroke="midnightblue" points="1809.45,-151.563 1803.62,-142.719 1802.66,-153.271 1809.45,-151.563"/>
</g>
<!-- Node35&#45;&gt;Node9 -->
<g id="edge89" class="edge"><title>Node35&#45;&gt;Node9</title>
<path fill="none" stroke="midnightblue" d="M1680.35,-418.972C1568.31,-408.743 1323.06,-373.455 1160,-255 1101.83,-212.744 1070.06,-128.404 1058.32,-91.0463"/>
<polygon fill="midnightblue" stroke="midnightblue" points="1061.55,-89.6265 1055.32,-81.0592 1054.85,-91.6436 1061.55,-89.6265"/>
</g>
<!-- Node35&#45;&gt;Node10 -->
<g id="edge94" class="edge"><title>Node35&#45;&gt;Node10</title>
<path fill="none" stroke="midnightblue" d="M1680.44,-421.582C1587.92,-418.467 1404.44,-408.641 1252,-378 1073.4,-342.1 1021.76,-340.697 861,-255 813.285,-229.564 814.702,-202.489 766,-179 701.129,-147.713 677.811,-160.707 608,-143 528.411,-122.813 435.594,-95.9896 387.898,-81.9629"/>
<polygon fill="midnightblue" stroke="midnightblue" points="388.733,-78.56 378.151,-79.0896 386.753,-85.2744 388.733,-78.56"/>
</g>
<!-- Node35&#45;&gt;Node11 -->
<g id="edge93" class="edge"><title>Node35&#45;&gt;Node11</title>
<path fill="none" stroke="midnightblue" d="M1799.51,-415.383C1864.57,-406.905 1971.85,-392.482 2064,-378 2206.2,-355.651 2244.96,-362.806 2383,-322 2456.15,-300.377 2471.86,-287.211 2541,-255 2616.09,-220.015 2665.19,-222.042 2690,-143 2695.33,-126.021 2693.02,-105.653 2690.01,-91.1852"/>
<polygon fill="midnightblue" stroke="midnightblue" points="2693.41,-90.3452 2687.69,-81.4257 2686.6,-91.9641 2693.41,-90.3452"/>
</g>
<!-- Node35&#45;&gt;Node15 -->
<g id="edge88" class="edge"><title>Node35&#45;&gt;Node15</title>
<path fill="none" stroke="midnightblue" d="M1763.13,-414.444C1787.48,-405.438 1826.01,-391.189 1853.42,-381.049"/>
<polygon fill="midnightblue" stroke="midnightblue" points="1854.81,-384.268 1862.97,-377.516 1852.38,-377.703 1854.81,-384.268"/>
</g>
<!-- Node35&#45;&gt;Node16 -->
<g id="edge86" class="edge"><title>Node35&#45;&gt;Node16</title>
<path fill="none" stroke="midnightblue" d="M1791.86,-414.447C1842.52,-405.907 1921.76,-392.062 1990,-378 2099.32,-355.474 2396.26,-332.068 2477,-255 2489.59,-242.983 2494.65,-223.381 2496.67,-208.84"/>
<polygon fill="midnightblue" stroke="midnightblue" points="2500.19,-208.81 2497.73,-198.506 2493.23,-208.098 2500.19,-208.81"/>
</g>
<!-- Node35&#45;&gt;Node18 -->
<g id="edge87" class="edge"><title>Node35&#45;&gt;Node18</title>
<path fill="none" stroke="midnightblue" d="M1731.66,-414.319C1714.39,-396.347 1674.27,-354.606 1649.61,-328.948"/>
<polygon fill="midnightblue" stroke="midnightblue" points="1651.95,-326.33 1642.5,-321.545 1646.9,-331.181 1651.95,-326.33"/>
</g>
<!-- Node35&#45;&gt;Node22 -->
<g id="edge90" class="edge"><title>Node35&#45;&gt;Node22</title>
<path fill="none" stroke="midnightblue" d="M1799.97,-421.124C1846.64,-417.32 1911.57,-406.723 1961,-378 1989.59,-361.383 1998.37,-352.958 2010,-322 2026.63,-277.74 1984.09,-229.589 1958.21,-205.526"/>
<polygon fill="midnightblue" stroke="midnightblue" points="1960.27,-202.67 1950.49,-198.595 1955.59,-207.879 1960.27,-202.67"/>
</g>
<!-- Node35&#45;&gt;Node23 -->
<g id="edge92" class="edge"><title>Node35&#45;&gt;Node23</title>
<path fill="none" stroke="midnightblue" d="M1680.43,-418.183C1536.01,-405.115 1157.31,-362.476 861,-255 817.133,-239.089 767.741,-216.804 738.015,-202.896"/>
<polygon fill="midnightblue" stroke="midnightblue" points="739.263,-199.615 728.725,-198.522 736.281,-205.948 739.263,-199.615"/>
</g>
<!-- Node35&#45;&gt;Node31 -->
<g id="edge91" class="edge"><title>Node35&#45;&gt;Node31</title>
<path fill="none" stroke="midnightblue" d="M1743.08,-414.319C1749.73,-395.59 1765.54,-351.046 1774.51,-325.792"/>
<polygon fill="midnightblue" stroke="midnightblue" points="1777.84,-326.877 1777.88,-316.282 1771.24,-324.535 1777.84,-326.877"/>
</g>
<!-- Node36&#45;&gt;Node10 -->
<g id="edge100" class="edge"><title>Node36&#45;&gt;Node10</title>
<path fill="none" stroke="midnightblue" d="M790.856,-470.366C780.023,-460.25 765.101,-446.3 752,-434 678.534,-365.03 498.782,-188.258 422,-123 407.172,-110.398 389.649,-97.0571 376.386,-87.2541"/>
<polygon fill="midnightblue" stroke="midnightblue" points="378.104,-84.1742 367.97,-81.0851 373.966,-89.82 378.104,-84.1742"/>
</g>
<!-- Node36&#45;&gt;Node13 -->
<g id="edge97" class="edge"><title>Node36&#45;&gt;Node13</title>
<path fill="none" stroke="midnightblue" d="M808.674,-470.264C811.721,-455.689 817.42,-432.6 826,-414 853.678,-354 901.32,-291.273 924.519,-262.366"/>
<polygon fill="midnightblue" stroke="midnightblue" points="927.302,-264.492 930.885,-254.521 921.866,-260.081 927.302,-264.492"/>
</g>
<!-- Node36&#45;&gt;Node27 -->
<g id="edge101" class="edge"><title>Node36&#45;&gt;Node27</title>
<path fill="none" stroke="midnightblue" d="M795.517,-470.295C764.916,-428.827 675.78,-308.038 642.62,-263.102"/>
<polygon fill="midnightblue" stroke="midnightblue" points="645.355,-260.914 636.601,-254.946 639.723,-265.07 645.355,-260.914"/>
</g>
<!-- Node36&#45;&gt;Node34 -->
<g id="edge98" class="edge"><title>Node36&#45;&gt;Node34</title>
<path fill="none" stroke="midnightblue" d="M830.533,-470.456C888.264,-437.598 1037.53,-353.749 1166,-291 1189.91,-279.32 1217.56,-267.205 1238.04,-258.492"/>
<polygon fill="midnightblue" stroke="midnightblue" points="1239.62,-261.624 1247.47,-254.505 1236.89,-255.177 1239.62,-261.624"/>
</g>
<!-- Node36&#45;&gt;Node35 -->
<g id="edge99" class="edge"><title>Node36&#45;&gt;Node35</title>
<path fill="none" stroke="midnightblue" d="M861.625,-472.726C867.805,-471.679 874.023,-470.738 880,-470 1171.98,-433.938 1523.22,-426.727 1670.1,-425.321"/>
<polygon fill="midnightblue" stroke="midnightblue" points="1670.35,-428.819 1680.32,-425.229 1670.29,-421.819 1670.35,-428.819"/>
</g>
<!-- Node37&#45;&gt;Node34 -->
<g id="edge106" class="edge"><title>Node37&#45;&gt;Node34</title>
<path fill="none" stroke="midnightblue" d="M1806.99,-537.345C1728.89,-495.131 1387.86,-310.787 1292.72,-259.363"/>
<polygon fill="midnightblue" stroke="midnightblue" points="1294.27,-256.222 1283.81,-254.546 1290.94,-262.38 1294.27,-256.222"/>
</g>
<!-- Node38 -->
<g id="node38" class="node"><title>Node38</title>
<polygon fill="white" stroke="#bfbfbf" points="1828.5,-476 1828.5,-495 1887.5,-495 1887.5,-476 1828.5,-476"/>
<text text-anchor="middle" x="1858" y="-483" font-family="Helvetica,sans-Serif" font-size="10.00">iostream</text>
</g>
<!-- Node37&#45;&gt;Node38 -->
<g id="edge107" class="edge"><title>Node37&#45;&gt;Node38</title>
<path fill="none" stroke="midnightblue" d="M1828.01,-537.475C1833.16,-528.727 1841.31,-514.869 1847.82,-503.809"/>
<polygon fill="midnightblue" stroke="midnightblue" points="1850.94,-505.403 1852.99,-495.009 1844.91,-501.854 1850.94,-505.403"/>
</g>
<!-- Node39&#45;&gt;Node3 -->
<g id="edge117" class="edge"><title>Node39&#45;&gt;Node3</title>
<path fill="none" stroke="midnightblue" d="M1455.28,-649.43C1435.44,-602.264 1346.56,-371.462 1445,-235 1478.59,-188.437 1638.82,-157.659 1732.47,-143.322"/>
<polygon fill="midnightblue" stroke="midnightblue" points="1733.07,-146.772 1742.43,-141.821 1732.02,-139.85 1733.07,-146.772"/>
</g>
<!-- Node39&#45;&gt;Node10 -->
<g id="edge119" class="edge"><title>Node39&#45;&gt;Node10</title>
<path fill="none" stroke="midnightblue" d="M1418.97,-656.773C1261.13,-651.471 682.369,-627.513 515,-557 452.418,-530.634 228,-275.412 228,-246 228,-246 228,-246 228,-188 228,-136.207 286.48,-101.661 324.384,-84.71"/>
<polygon fill="midnightblue" stroke="midnightblue" points="326.185,-87.7458 333.996,-80.5874 323.426,-81.3126 326.185,-87.7458"/>
</g>
<!-- Node39&#45;&gt;Node14 -->
<g id="edge118" class="edge"><title>Node39&#45;&gt;Node14</title>
<path fill="none" stroke="midnightblue" d="M1499.05,-652.323C1566.34,-642.786 1702.38,-623.505 1780.75,-612.398"/>
<polygon fill="midnightblue" stroke="midnightblue" points="1781.54,-615.821 1790.95,-610.952 1780.55,-608.89 1781.54,-615.821"/>
</g>
<!-- Node40&#45;&gt;Node2 -->
<g id="edge122" class="edge"><title>Node40&#45;&gt;Node2</title>
<path fill="none" stroke="midnightblue" d="M1424.67,-929.433C1490.68,-895.512 1734.04,-770.454 1814.2,-729.257"/>
<polygon fill="midnightblue" stroke="midnightblue" points="1815.85,-732.345 1823.15,-724.661 1812.65,-726.119 1815.85,-732.345"/>
</g>
<!-- Node40&#45;&gt;Node10 -->
<g id="edge157" class="edge"><title>Node40&#45;&gt;Node10</title>
<path fill="none" stroke="midnightblue" d="M1361.9,-937.672C1172.85,-936.106 456.372,-927.941 233,-893 126.782,-876.385 0,-935.51 0,-828 0,-828 0,-828 0,-188 0,-151.28 19.4073,-141.715 51,-123 96.8057,-95.8657 254.783,-80.4593 323.57,-74.8991"/>
<polygon fill="midnightblue" stroke="midnightblue" points="324.119,-78.3667 333.813,-74.0909 323.569,-71.3884 324.119,-78.3667"/>
</g>
<!-- Node40&#45;&gt;Node22 -->
<g id="edge158" class="edge"><title>Node40&#45;&gt;Node22</title>
<path fill="none" stroke="midnightblue" d="M1454.18,-938.375C1664.79,-939.488 2524,-937.33 2524,-828 2524,-828 2524,-828 2524,-423 2524,-318.303 2190.38,-270.816 2092,-235 2051.92,-220.409 2004.66,-206.992 1973.6,-198.675"/>
<polygon fill="midnightblue" stroke="midnightblue" points="1974.29,-195.236 1963.73,-196.056 1972.49,-202.002 1974.29,-195.236"/>
</g>
<!-- Node40&#45;&gt;Node23 -->
<g id="edge159" class="edge"><title>Node40&#45;&gt;Node23</title>
<path fill="none" stroke="midnightblue" d="M1361.63,-936.759C1122.32,-930.055 38,-895.93 38,-828 38,-828 38,-828 38,-770 38,-487.449 212.346,-434.066 456,-291 499.592,-265.404 508.396,-254.584 555,-235 589.821,-220.368 630.93,-208.724 662.204,-200.95"/>
<polygon fill="midnightblue" stroke="midnightblue" points="663.106,-204.332 671.992,-198.563 661.448,-197.532 663.106,-204.332"/>
</g>
<!-- Node41 -->
<g id="node41" class="node"><title>Node41</title>
<g id="a_node41"><a xlink:href="ir_2expr_8h.html" target="_top" xlink:title="Base expr nodes in TVM. ">
<polygon fill="white" stroke="black" points="1369.5,-761.5 1369.5,-780.5 1446.5,-780.5 1446.5,-761.5 1369.5,-761.5"/>
<text text-anchor="middle" x="1408" y="-768.5" font-family="Helvetica,sans-Serif" font-size="10.00">tvm/ir/expr.h</text>
</a>
</g>
</g>
<!-- Node40&#45;&gt;Node41 -->
<g id="edge123" class="edge"><title>Node40&#45;&gt;Node41</title>
<path fill="none" stroke="midnightblue" d="M1408,-929.075C1408,-902.945 1408,-826.211 1408,-790.577"/>
<polygon fill="midnightblue" stroke="midnightblue" points="1411.5,-790.568 1408,-780.568 1404.5,-790.568 1411.5,-790.568"/>
</g>
<!-- Node43 -->
<g id="node43" class="node"><title>Node43</title>
<g id="a_node43"><a xlink:href="ir_2function_8h.html" target="_top" xlink:title="Function nodes. ">
<polygon fill="white" stroke="black" points="1015.5,-873.5 1015.5,-892.5 1110.5,-892.5 1110.5,-873.5 1015.5,-873.5"/>
<text text-anchor="middle" x="1063" y="-880.5" font-family="Helvetica,sans-Serif" font-size="10.00">tvm/ir/function.h</text>
</a>
</g>
</g>
<!-- Node40&#45;&gt;Node43 -->
<g id="edge133" class="edge"><title>Node40&#45;&gt;Node43</title>
<path fill="none" stroke="midnightblue" d="M1361.83,-930.773C1299.48,-921.014 1188.39,-903.626 1120.64,-893.021"/>
<polygon fill="midnightblue" stroke="midnightblue" points="1120.98,-889.532 1110.56,-891.444 1119.9,-896.448 1120.98,-889.532"/>
</g>
<!-- Node46 -->
<g id="node46" class="node"><title>Node46</title>
<g id="a_node46"><a xlink:href="ir_2adt_8h.html" target="_top" xlink:title="Algebraic data type definitions. ">
<polygon fill="white" stroke="black" points="1880,-817.5 1880,-836.5 1952,-836.5 1952,-817.5 1880,-817.5"/>
<text text-anchor="middle" x="1916" y="-824.5" font-family="Helvetica,sans-Serif" font-size="10.00">tvm/ir/adt.h</text>
</a>
</g>
</g>
<!-- Node40&#45;&gt;Node46 -->
<g id="edge150" class="edge"><title>Node40&#45;&gt;Node46</title>
<path fill="none" stroke="midnightblue" d="M1454.25,-937.275C1573,-934.947 1881.6,-925.771 1913,-893 1924.58,-880.91 1923.76,-861.031 1921.01,-846.434"/>
<polygon fill="midnightblue" stroke="midnightblue" points="1924.38,-845.468 1918.71,-836.519 1917.56,-847.051 1924.38,-845.468"/>
</g>
<!-- Node47 -->
<g id="node47" class="node"><title>Node47</title>
<polygon fill="white" stroke="#bfbfbf" points="1818,-873.5 1818,-892.5 1904,-892.5 1904,-873.5 1818,-873.5"/>
<text text-anchor="middle" x="1861" y="-880.5" font-family="Helvetica,sans-Serif" font-size="10.00">unordered_set</text>
</g>
<!-- Node40&#45;&gt;Node47 -->
<g id="edge160" class="edge"><title>Node40&#45;&gt;Node47</title>
<path fill="none" stroke="midnightblue" d="M1454.11,-933.417C1528.06,-925.92 1677.67,-910.143 1804,-893 1805.26,-892.83 1806.53,-892.654 1807.81,-892.474"/>
<polygon fill="midnightblue" stroke="midnightblue" points="1808.38,-895.929 1817.77,-891.028 1807.37,-889.001 1808.38,-895.929"/>
</g>
<!-- Node41&#45;&gt;Node2 -->
<g id="edge128" class="edge"><title>Node41&#45;&gt;Node2</title>
<path fill="none" stroke="midnightblue" d="M1446.72,-765.16C1525.53,-755.309 1704.43,-732.946 1791.11,-722.111"/>
<polygon fill="midnightblue" stroke="midnightblue" points="1791.73,-725.562 1801.21,-720.848 1790.86,-718.616 1791.73,-725.562"/>
</g>
<!-- Node41&#45;&gt;Node3 -->
<g id="edge124" class="edge"><title>Node41&#45;&gt;Node3</title>
<path fill="none" stroke="midnightblue" d="M1398.56,-761.311C1380.75,-743.933 1344,-702.863 1344,-660 1344,-660 1344,-660 1344,-546 1344,-369.282 1335.49,-250.726 1497,-179 1537.95,-160.814 1656.02,-147.121 1732.39,-139.854"/>
<polygon fill="midnightblue" stroke="midnightblue" points="1732.79,-143.332 1742.42,-138.914 1732.13,-136.363 1732.79,-143.332"/>
</g>
<!-- Node41&#45;&gt;Node9 -->
<g id="edge132" class="edge"><title>Node41&#45;&gt;Node9</title>
<path fill="none" stroke="midnightblue" d="M1369.23,-770.261C1250.54,-768.914 888.231,-748.535 690,-557 582.138,-452.781 530.99,-373.314 589,-235 617.091,-168.023 642.287,-153.934 708,-123 760.481,-98.2948 927.733,-82.2775 1008.5,-75.7858"/>
<polygon fill="midnightblue" stroke="midnightblue" points="1009.15,-79.2458 1018.84,-74.969 1008.6,-72.2675 1009.15,-79.2458"/>
</g>
<!-- Node41&#45;&gt;Node10 -->
<g id="edge129" class="edge"><title>Node41&#45;&gt;Node10</title>
<path fill="none" stroke="midnightblue" d="M1369.4,-768.662C1289.77,-765.371 1101.76,-754.852 947,-725 756.933,-688.338 152,-562.571 152,-369 152,-369 152,-369 152,-188 152,-110.03 266.244,-84.0746 323.744,-75.9488"/>
<polygon fill="midnightblue" stroke="midnightblue" points="324.321,-79.4032 333.78,-74.6305 323.409,-72.4628 324.321,-79.4032"/>
</g>
<!-- Node41&#45;&gt;Node14 -->
<g id="edge125" class="edge"><title>Node41&#45;&gt;Node14</title>
<path fill="none" stroke="midnightblue" d="M1436.09,-761.478C1463.23,-753.014 1505.36,-739.269 1541,-725 1560.57,-717.166 1564.63,-713.316 1584,-705 1663.48,-670.875 1758.56,-634.508 1807.44,-616.133"/>
<polygon fill="midnightblue" stroke="midnightblue" points="1808.73,-619.387 1816.86,-612.598 1806.27,-612.833 1808.73,-619.387"/>
</g>
<!-- Node41&#45;&gt;Node29 -->
<g id="edge131" class="edge"><title>Node41&#45;&gt;Node29</title>
<path fill="none" stroke="midnightblue" d="M1407.57,-761.454C1406.71,-741.621 1405.2,-690.957 1410,-649 1421.56,-547.843 1458,-526.816 1458,-425 1458,-425 1458,-425 1458,-367 1458,-330.54 1465.66,-288.495 1470.7,-264.8"/>
<polygon fill="midnightblue" stroke="midnightblue" points="1474.18,-265.265 1472.92,-254.746 1467.34,-263.758 1474.18,-265.265"/>
</g>
<!-- Node41&#45;&gt;Node35 -->
<g id="edge126" class="edge"><title>Node41&#45;&gt;Node35</title>
<path fill="none" stroke="midnightblue" d="M1416.62,-761.411C1434.01,-744.059 1474.49,-703.533 1508,-669 1590.46,-584.01 1687.7,-480.729 1724.69,-441.332"/>
<polygon fill="midnightblue" stroke="midnightblue" points="1727.35,-443.612 1731.64,-433.925 1722.24,-438.822 1727.35,-443.612"/>
</g>
<!-- Node41&#45;&gt;Node39 -->
<g id="edge127" class="edge"><title>Node41&#45;&gt;Node39</title>
<path fill="none" stroke="midnightblue" d="M1412,-761.368C1420.31,-743.456 1439.56,-701.923 1450.68,-677.948"/>
<polygon fill="midnightblue" stroke="midnightblue" points="1453.99,-679.136 1455.02,-668.591 1447.64,-676.192 1453.99,-679.136"/>
</g>
<!-- Node42 -->
<g id="node42" class="node"><title>Node42</title>
<polygon fill="white" stroke="#bfbfbf" points="1593,-705.5 1593,-724.5 1655,-724.5 1655,-705.5 1593,-705.5"/>
<text text-anchor="middle" x="1624" y="-712.5" font-family="Helvetica,sans-Serif" font-size="10.00">algorithm</text>
</g>
<!-- Node41&#45;&gt;Node42 -->
<g id="edge130" class="edge"><title>Node41&#45;&gt;Node42</title>
<path fill="none" stroke="midnightblue" d="M1442.23,-761.444C1480.39,-751.903 1542.09,-736.477 1582.85,-726.286"/>
<polygon fill="midnightblue" stroke="midnightblue" points="1583.89,-729.636 1592.74,-723.815 1582.19,-722.845 1583.89,-729.636"/>
</g>
<!-- Node43&#45;&gt;Node9 -->
<g id="edge148" class="edge"><title>Node43&#45;&gt;Node9</title>
<path fill="none" stroke="midnightblue" d="M1018.64,-873.421C891.02,-847.482 532,-765.166 532,-660 532,-660 532,-660 532,-423 532,-277.151 532.551,-184.067 665,-123 725.39,-95.1567 920.36,-80.3639 1008.73,-74.9458"/>
<polygon fill="midnightblue" stroke="midnightblue" points="1009.19,-78.4246 1018.96,-74.3313 1008.77,-71.4372 1009.19,-78.4246"/>
</g>
<!-- Node43&#45;&gt;Node10 -->
<g id="edge149" class="edge"><title>Node43&#45;&gt;Node10</title>
<path fill="none" stroke="midnightblue" d="M1015.37,-882.324C848.072,-882.627 289.623,-876.332 144,-781 117.785,-763.839 38,-656.198 38,-604 38,-604 38,-604 38,-188 38,-153.605 51.4017,-142.109 80,-123 119.532,-96.5855 259.255,-81.0914 323.387,-75.2222"/>
<polygon fill="midnightblue" stroke="midnightblue" points="324.075,-78.6748 333.724,-74.3 323.453,-71.7025 324.075,-78.6748"/>
</g>
<!-- Node43&#45;&gt;Node15 -->
<g id="edge147" class="edge"><title>Node43&#45;&gt;Node15</title>
<path fill="none" stroke="midnightblue" d="M1110.91,-881.98C1245.43,-881.412 1637.91,-876.24 1961,-837 2111.56,-818.714 2296,-923.666 2296,-772 2296,-772 2296,-772 2296,-602 2296,-450.252 2081.08,-396.102 1962.45,-377.771"/>
<polygon fill="midnightblue" stroke="midnightblue" points="1962.74,-374.275 1952.33,-376.257 1961.7,-381.198 1962.74,-374.275"/>
</g>
<!-- Node43&#45;&gt;Node41 -->
<g id="edge134" class="edge"><title>Node43&#45;&gt;Node41</title>
<path fill="none" stroke="midnightblue" d="M1089.78,-873.46C1151.05,-853.926 1301.48,-805.963 1371.3,-783.702"/>
<polygon fill="midnightblue" stroke="midnightblue" points="1372.53,-786.983 1380.99,-780.61 1370.4,-780.314 1372.53,-786.983"/>
</g>
<!-- Node43&#45;&gt;Node44 -->
<g id="edge135" class="edge"><title>Node43&#45;&gt;Node44</title>
<path fill="none" stroke="midnightblue" d="M1015.17,-876.323C928.365,-866.021 745.757,-844.349 657.643,-833.892"/>
<polygon fill="midnightblue" stroke="midnightblue" points="657.975,-830.407 647.633,-832.704 657.15,-837.358 657.975,-830.407"/>
</g>
<!-- Node44&#45;&gt;Node9 -->
<g id="edge144" class="edge"><title>Node44&#45;&gt;Node9</title>
<path fill="none" stroke="midnightblue" d="M590.237,-817.481C518.35,-781.702 255.574,-637.66 314,-470 381.858,-275.274 430.182,-198.689 622,-123 691.659,-95.5136 913.038,-80.2632 1008.49,-74.8203"/>
<polygon fill="midnightblue" stroke="midnightblue" points="1008.89,-78.3034 1018.68,-74.2494 1008.5,-71.3144 1008.89,-78.3034"/>
</g>
<!-- Node44&#45;&gt;Node10 -->
<g id="edge145" class="edge"><title>Node44&#45;&gt;Node10</title>
<path fill="none" stroke="midnightblue" d="M568.409,-825.607C451.185,-823.385 114,-808.917 114,-716 114,-716 114,-716 114,-658 114,-528.45 76,-498.55 76,-369 76,-369 76,-369 76,-188 76,-157.205 76.5646,-142.978 100,-123 133.335,-94.5829 262.396,-80.2811 323.533,-74.9852"/>
<polygon fill="midnightblue" stroke="midnightblue" points="324.102,-78.4499 333.775,-74.1276 323.518,-71.4743 324.102,-78.4499"/>
</g>
<!-- Node44&#45;&gt;Node11 -->
<g id="edge146" class="edge"><title>Node44&#45;&gt;Node11</title>
<path fill="none" stroke="midnightblue" d="M647.662,-825.659C820.78,-823.978 1511.08,-815.218 1725,-781 1814.88,-766.623 1835.81,-754.281 1922,-725 2113.53,-659.928 2159.01,-636.551 2345,-557 2616.45,-440.893 2932,-541.243 2932,-246 2932,-246 2932,-246 2932,-188 2932,-93.8312 2782.86,-76.2705 2716.36,-73.121"/>
<polygon fill="midnightblue" stroke="midnightblue" points="2716.19,-69.6118 2706.06,-72.7182 2715.91,-76.6064 2716.19,-69.6118"/>
</g>
<!-- Node44&#45;&gt;Node18 -->
<g id="edge140" class="edge"><title>Node44&#45;&gt;Node18</title>
<path fill="none" stroke="midnightblue" d="M636.916,-817.413C732.856,-788.331 1048.05,-688.011 1286,-557 1414.85,-486.058 1551.45,-373.926 1605.26,-328.071"/>
<polygon fill="midnightblue" stroke="midnightblue" points="1607.56,-330.71 1612.88,-321.548 1603,-325.392 1607.56,-330.71"/>
</g>
<!-- Node44&#45;&gt;Node22 -->
<g id="edge142" class="edge"><title>Node44&#45;&gt;Node22</title>
<path fill="none" stroke="midnightblue" d="M647.772,-826.472C838.342,-828.19 1658.24,-829.3 1887,-725 2037.75,-656.267 2097.18,-598.104 2120,-434 2128.75,-371.05 2144.84,-349.502 2120,-291 2106,-258.017 2092.35,-254.052 2062,-235 2054.2,-230.105 2006.81,-213.177 1973.44,-201.538"/>
<polygon fill="midnightblue" stroke="midnightblue" points="1974.19,-198.094 1963.6,-198.115 1971.89,-204.705 1974.19,-198.094"/>
</g>
<!-- Node44&#45;&gt;Node23 -->
<g id="edge141" class="edge"><title>Node44&#45;&gt;Node23</title>
<path fill="none" stroke="midnightblue" d="M568.387,-824.488C506.576,-821.211 391.592,-811.127 366,-781 276.496,-675.636 308.371,-598.246 360,-470 414.462,-334.718 465.828,-313.076 589,-235 612.881,-219.862 642.596,-208.766 666.72,-201.379"/>
<polygon fill="midnightblue" stroke="midnightblue" points="667.745,-204.726 676.344,-198.537 665.762,-198.013 667.745,-204.726"/>
</g>
<!-- Node44&#45;&gt;Node27 -->
<g id="edge143" class="edge"><title>Node44&#45;&gt;Node27</title>
<path fill="none" stroke="midnightblue" d="M568.252,-825.546C499.465,-823.826 362.719,-815.978 333,-781 179.046,-599.806 521.299,-326.51 609.795,-260.652"/>
<polygon fill="midnightblue" stroke="midnightblue" points="612.013,-263.365 617.984,-254.613 607.859,-257.731 612.013,-263.365"/>
</g>
<!-- Node44&#45;&gt;Node33 -->
<g id="edge138" class="edge"><title>Node44&#45;&gt;Node33</title>
<path fill="none" stroke="midnightblue" d="M610.472,-817.307C614.256,-804.568 622.098,-780.256 632,-761 659.509,-707.502 665.566,-691.64 708,-649 770.319,-586.379 859.828,-532.635 909.089,-505.452"/>
<polygon fill="midnightblue" stroke="midnightblue" points="910.996,-508.398 918.094,-500.532 907.64,-502.256 910.996,-508.398"/>
</g>
<!-- Node44&#45;&gt;Node36 -->
<g id="edge139" class="edge"><title>Node44&#45;&gt;Node36</title>
<path fill="none" stroke="midnightblue" d="M603.417,-817.467C597.298,-804.928 587.897,-780.862 594,-761 628.356,-649.186 732.647,-549.003 780.951,-507.185"/>
<polygon fill="midnightblue" stroke="midnightblue" points="783.42,-509.68 788.748,-500.523 778.872,-504.358 783.42,-509.68"/>
</g>
<!-- Node44&#45;&gt;Node41 -->
<g id="edge137" class="edge"><title>Node44&#45;&gt;Node41</title>
<path fill="none" stroke="midnightblue" d="M647.672,-823.322C781.143,-814.313 1213.7,-785.115 1359.51,-775.273"/>
<polygon fill="midnightblue" stroke="midnightblue" points="1359.76,-778.764 1369.5,-774.599 1359.29,-771.78 1359.76,-778.764"/>
</g>
<!-- Node45 -->
<g id="node45" class="node"><title>Node45</title>
<polygon fill="white" stroke="#bfbfbf" points="375.5,-761.5 375.5,-780.5 470.5,-780.5 470.5,-761.5 375.5,-761.5"/>
<text text-anchor="middle" x="423" y="-768.5" font-family="Helvetica,sans-Serif" font-size="10.00">dmlc/common.h</text>
</g>
<!-- Node44&#45;&gt;Node45 -->
<g id="edge136" class="edge"><title>Node44&#45;&gt;Node45</title>
<path fill="none" stroke="midnightblue" d="M578.686,-817.444C547.158,-808.241 496.869,-793.562 462.014,-783.388"/>
<polygon fill="midnightblue" stroke="midnightblue" points="462.757,-779.959 452.177,-780.516 460.795,-786.678 462.757,-779.959"/>
</g>
<!-- Node46&#45;&gt;Node2 -->
<g id="edge155" class="edge"><title>Node46&#45;&gt;Node2</title>
<path fill="none" stroke="midnightblue" d="M1910.04,-817.368C1897.49,-799.215 1868.19,-756.802 1851.74,-732.99"/>
<polygon fill="midnightblue" stroke="midnightblue" points="1854.5,-730.829 1845.94,-724.591 1848.74,-734.808 1854.5,-730.829"/>
</g>
<!-- Node46&#45;&gt;Node3 -->
<g id="edge151" class="edge"><title>Node46&#45;&gt;Node3</title>
<path fill="none" stroke="midnightblue" d="M1952.27,-825.64C2125.02,-823.455 2856,-808.731 2856,-716 2856,-716 2856,-716 2856,-305.5 2856,-166.51 2705.11,-211.601 2570,-179 2433.68,-146.109 2079.97,-151.53 1940,-143 1917.18,-141.61 1892.27,-140.019 1869.91,-138.565"/>
<polygon fill="midnightblue" stroke="midnightblue" points="1870.04,-135.067 1859.84,-137.908 1869.59,-142.052 1870.04,-135.067"/>
</g>
<!-- Node46&#45;&gt;Node10 -->
<g id="edge156" class="edge"><title>Node46&#45;&gt;Node10</title>
<path fill="none" stroke="midnightblue" d="M1879.6,-824.865C1624.42,-815.952 114,-747.224 114,-369 114,-369 114,-369 114,-188 114,-96.2745 257.353,-77.3244 323.394,-73.4611"/>
<polygon fill="midnightblue" stroke="midnightblue" points="323.855,-76.9425 333.667,-72.9462 323.504,-69.9513 323.855,-76.9425"/>
</g>
<!-- Node46&#45;&gt;Node14 -->
<g id="edge152" class="edge"><title>Node46&#45;&gt;Node14</title>
<path fill="none" stroke="midnightblue" d="M1914.54,-817.322C1911.02,-797.21 1901.29,-746.001 1887,-705 1876.48,-674.829 1859.97,-641.538 1849.57,-621.717"/>
<polygon fill="midnightblue" stroke="midnightblue" points="1852.55,-619.854 1844.76,-612.669 1846.37,-623.141 1852.55,-619.854"/>
</g>
<!-- Node46&#45;&gt;Node35 -->
<g id="edge153" class="edge"><title>Node46&#45;&gt;Node35</title>
<path fill="none" stroke="midnightblue" d="M1952.18,-821.508C2007.31,-812.417 2106,-786.323 2106,-716 2106,-716 2106,-716 2106,-602 2106,-471.743 1915.8,-437.304 1809.62,-428.227"/>
<polygon fill="midnightblue" stroke="midnightblue" points="1809.87,-424.735 1799.62,-427.425 1809.31,-431.713 1809.87,-424.735"/>
</g>
<!-- Node46&#45;&gt;Node41 -->
<g id="edge154" class="edge"><title>Node46&#45;&gt;Node41</title>
<path fill="none" stroke="midnightblue" d="M1879.87,-822.16C1790.35,-812.644 1558.17,-787.963 1456.68,-777.175"/>
<polygon fill="midnightblue" stroke="midnightblue" points="1457.01,-773.691 1446.7,-776.114 1456.27,-780.651 1457.01,-773.691"/>
</g>
<!-- Node48&#45;&gt;Node10 -->
<g id="edge163" class="edge"><title>Node48&#45;&gt;Node10</title>
<path fill="none" stroke="midnightblue" d="M978.414,-600.61C873.455,-597.129 632.219,-586.129 556,-557 516.807,-542.022 511.288,-528.955 480,-501 428.491,-454.979 307.621,-321.788 290,-255 275.033,-198.275 264.016,-175.599 290,-123 297.915,-106.977 313.623,-94.6369 327.728,-86.1668"/>
<polygon fill="midnightblue" stroke="midnightblue" points="329.654,-89.0999 336.669,-81.1598 326.233,-82.9925 329.654,-89.0999"/>
</g>
<!-- Node48&#45;&gt;Node11 -->
<g id="edge164" class="edge"><title>Node48&#45;&gt;Node11</title>
<path fill="none" stroke="midnightblue" d="M1077.51,-601.747C1237.53,-600.567 1739.54,-593.94 1897,-557 2219.74,-481.288 2284.08,-406.379 2579,-255 2625.01,-231.384 2645.96,-237.041 2681,-199 2705.09,-172.844 2712.96,-157.87 2706,-123 2703.73,-111.649 2698.86,-99.6568 2694.38,-90.2084"/>
<polygon fill="midnightblue" stroke="midnightblue" points="2697.43,-88.474 2689.82,-81.1049 2691.17,-91.6127 2697.43,-88.474"/>
</g>
<!-- Node48&#45;&gt;Node32 -->
<g id="edge162" class="edge"><title>Node48&#45;&gt;Node32</title>
<path fill="none" stroke="midnightblue" d="M1058.11,-593.444C1090.63,-584.201 1142.58,-569.436 1178.39,-559.257"/>
<polygon fill="midnightblue" stroke="midnightblue" points="1179.37,-562.617 1188.03,-556.516 1177.46,-555.884 1179.37,-562.617"/>
</g>
</g>
</svg>
