<?xml version="1.0" encoding="UTF-8" standalone="no"?>
<!DOCTYPE svg PUBLIC "-//W3C//DTD SVG 1.1//EN"
 "http://www.w3.org/Graphics/SVG/1.1/DTD/svg11.dtd">
<!-- Generated by graphviz version 2.38.0 (20140413.2041)
 -->
<!-- Title: include/tvm/ir/type_relation.h Pages: 1 -->
<svg width="2939pt" height="1024pt"
 viewBox="0.00 0.00 2939.00 1024.00" xmlns="http://www.w3.org/2000/svg" xmlns:xlink="http://www.w3.org/1999/xlink">
<g id="graph0" class="graph" transform="scale(1 1) rotate(0) translate(4 1020)">
<title>include/tvm/ir/type_relation.h</title>
<polygon fill="white" stroke="none" points="-4,4 -4,-1020 2935,-1020 2935,4 -4,4"/>
<!-- Node1 -->
<g id="node1" class="node"><title>Node1</title>
<polygon fill="#bfbfbf" stroke="black" points="1040.5,-985.5 1040.5,-1015.5 1145.5,-1015.5 1145.5,-985.5 1040.5,-985.5"/>
<text text-anchor="start" x="1048.5" y="-1003.5" font-family="Helvetica,sans-Serif" font-size="10.00">include/tvm/ir/type</text>
<text text-anchor="middle" x="1093" y="-992.5" font-family="Helvetica,sans-Serif" font-size="10.00">_relation.h</text>
</g>
<!-- Node2 -->
<g id="node2" class="node"><title>Node2</title>
<g id="a_node2"><a xlink:href="ir_2type_8h.html" target="_top" xlink:title="IR/AST nodes for the unified type system in TVM. ">
<polygon fill="white" stroke="black" points="1702.5,-705.5 1702.5,-724.5 1779.5,-724.5 1779.5,-705.5 1702.5,-705.5"/>
<text text-anchor="middle" x="1741" y="-712.5" font-family="Helvetica,sans-Serif" font-size="10.00">tvm/ir/type.h</text>
</a>
</g>
</g>
<!-- Node1&#45;&gt;Node2 -->
<g id="edge1" class="edge"><title>Node1&#45;&gt;Node2</title>
<path fill="none" stroke="midnightblue" d="M1125.13,-985.441C1236.59,-936.681 1605.5,-775.28 1711.99,-728.692"/>
<polygon fill="midnightblue" stroke="midnightblue" points="1713.7,-731.765 1721.46,-724.55 1710.89,-725.352 1713.7,-731.765"/>
</g>
<!-- Node40 -->
<g id="node40" class="node"><title>Node40</title>
<g id="a_node40"><a xlink:href="ir_2module_8h.html" target="_top" xlink:title="IRModule that holds the functions and type definitions. ">
<polygon fill="white" stroke="black" points="1657,-929.5 1657,-948.5 1749,-948.5 1749,-929.5 1657,-929.5"/>
<text text-anchor="middle" x="1703" y="-936.5" font-family="Helvetica,sans-Serif" font-size="10.00">tvm/ir/module.h</text>
</a>
</g>
</g>
<!-- Node1&#45;&gt;Node40 -->
<g id="edge121" class="edge"><title>Node1&#45;&gt;Node40</title>
<path fill="none" stroke="midnightblue" d="M1145.54,-994.376C1259.57,-983.253 1528.94,-956.978 1646.49,-945.512"/>
<polygon fill="midnightblue" stroke="midnightblue" points="1647.1,-948.969 1656.71,-944.515 1646.42,-942.003 1647.1,-948.969"/>
</g>
<!-- Node44 -->
<g id="node44" class="node"><title>Node44</title>
<g id="a_node44"><a xlink:href="ir_2attrs_8h.html" target="_top" xlink:title="Helpers for attribute objects. ">
<polygon fill="white" stroke="black" points="715.5,-817.5 715.5,-836.5 794.5,-836.5 794.5,-817.5 715.5,-817.5"/>
<text text-anchor="middle" x="755" y="-824.5" font-family="Helvetica,sans-Serif" font-size="10.00">tvm/ir/attrs.h</text>
</a>
</g>
</g>
<!-- Node1&#45;&gt;Node44 -->
<g id="edge164" class="edge"><title>Node1&#45;&gt;Node44</title>
<path fill="none" stroke="midnightblue" d="M1065.34,-985.465C1001.29,-952.965 843.487,-872.898 781.044,-841.215"/>
<polygon fill="midnightblue" stroke="midnightblue" points="782.371,-837.963 771.87,-836.56 779.204,-844.206 782.371,-837.963"/>
</g>
<!-- Node48 -->
<g id="node48" class="node"><title>Node48</title>
<g id="a_node48"><a xlink:href="env__func_8h.html" target="_top" xlink:title="Serializable global function used in IR. ">
<polygon fill="white" stroke="black" points="998.5,-593.5 998.5,-612.5 1097.5,-612.5 1097.5,-593.5 998.5,-593.5"/>
<text text-anchor="middle" x="1048" y="-600.5" font-family="Helvetica,sans-Serif" font-size="10.00">tvm/ir/env_func.h</text>
</a>
</g>
</g>
<!-- Node1&#45;&gt;Node48 -->
<g id="edge160" class="edge"><title>Node1&#45;&gt;Node48</title>
<path fill="none" stroke="midnightblue" d="M1083.88,-985.189C1071.26,-963.969 1050,-922.514 1050,-884 1050,-884 1050,-884 1050,-714 1050,-681.943 1049.14,-644.639 1048.55,-622.747"/>
<polygon fill="midnightblue" stroke="midnightblue" points="1052.04,-622.454 1048.26,-612.557 1045.04,-622.651 1052.04,-622.454"/>
</g>
<!-- Node3 -->
<g id="node3" class="node"><title>Node3</title>
<g id="a_node3"><a xlink:href="object_8h.html" target="_top" xlink:title="A managed object in the TVM runtime. ">
<polygon fill="white" stroke="black" points="1900.5,-123.5 1900.5,-142.5 2017.5,-142.5 2017.5,-123.5 1900.5,-123.5"/>
<text text-anchor="middle" x="1959" y="-130.5" font-family="Helvetica,sans-Serif" font-size="10.00">tvm/runtime/object.h</text>
</a>
</g>
</g>
<!-- Node2&#45;&gt;Node3 -->
<g id="edge2" class="edge"><title>Node2&#45;&gt;Node3</title>
<path fill="none" stroke="midnightblue" d="M1743.04,-705.067C1750.94,-669.746 1779,-536.332 1779,-425 1779,-425 1779,-425 1779,-367 1779,-294.693 1848.92,-309.002 1897,-255 1917.69,-231.765 1924.88,-226.724 1939,-199 1946.53,-184.204 1951.83,-166.05 1955.07,-152.692"/>
<polygon fill="midnightblue" stroke="midnightblue" points="1958.52,-153.303 1957.31,-142.777 1951.69,-151.759 1958.52,-153.303"/>
</g>
<!-- Node10 -->
<g id="node10" class="node"><title>Node10</title>
<polygon fill="white" stroke="#bfbfbf" points="358,-62 358,-81 402,-81 402,-62 358,-62"/>
<text text-anchor="middle" x="380" y="-69" font-family="Helvetica,sans-Serif" font-size="10.00">string</text>
</g>
<!-- Node2&#45;&gt;Node10 -->
<g id="edge120" class="edge"><title>Node2&#45;&gt;Node10</title>
<path fill="none" stroke="midnightblue" d="M1702.23,-713.217C1512.71,-709.055 683.024,-686.854 437,-613 259.152,-559.612 152,-493.188 152,-307.5 152,-307.5 152,-307.5 152,-188 152,-157.205 153.05,-143.534 176,-123 224.23,-79.8482 303.56,-72.2501 347.74,-71.6534"/>
<polygon fill="midnightblue" stroke="midnightblue" points="347.921,-75.1531 357.914,-71.6325 347.907,-68.1531 347.921,-75.1531"/>
</g>
<!-- Node13 -->
<g id="node13" class="node"><title>Node13</title>
<g id="a_node13"><a xlink:href="data__type_8h.html" target="_top" xlink:title="tvm/runtime/data_type.h">
<polygon fill="white" stroke="black" points="680,-235.5 680,-254.5 816,-254.5 816,-235.5 680,-235.5"/>
<text text-anchor="middle" x="748" y="-242.5" font-family="Helvetica,sans-Serif" font-size="10.00">tvm/runtime/data_type.h</text>
</a>
</g>
</g>
<!-- Node2&#45;&gt;Node13 -->
<g id="edge12" class="edge"><title>Node2&#45;&gt;Node13</title>
<path fill="none" stroke="midnightblue" d="M1702.28,-711.53C1513.84,-699.125 698.899,-640.876 627,-557 546.994,-463.665 682.743,-311.395 731.551,-262.008"/>
<polygon fill="midnightblue" stroke="midnightblue" points="734.228,-264.282 738.842,-254.745 729.287,-259.323 734.228,-264.282"/>
</g>
<!-- Node14 -->
<g id="node14" class="node"><title>Node14</title>
<g id="a_node14"><a xlink:href="node_8h.html" target="_top" xlink:title="Definitions and helper macros for IR/AST nodes. ">
<polygon fill="white" stroke="black" points="1874,-593.5 1874,-612.5 1972,-612.5 1972,-593.5 1874,-593.5"/>
<text text-anchor="middle" x="1923" y="-600.5" font-family="Helvetica,sans-Serif" font-size="10.00">tvm/node/node.h</text>
</a>
</g>
</g>
<!-- Node2&#45;&gt;Node14 -->
<g id="edge17" class="edge"><title>Node2&#45;&gt;Node14</title>
<path fill="none" stroke="midnightblue" d="M1760.06,-705.498C1778.58,-696.995 1807.32,-683.176 1831,-669 1857.25,-653.29 1885.76,-632.514 1903.98,-618.726"/>
<polygon fill="midnightblue" stroke="midnightblue" points="1906.21,-621.422 1912.04,-612.571 1901.97,-615.859 1906.21,-621.422"/>
</g>
<!-- Node35 -->
<g id="node35" class="node"><title>Node35</title>
<g id="a_node35"><a xlink:href="node_2container_8h.html" target="_top" xlink:title="Array/Map container in the DSL graph. ">
<polygon fill="white" stroke="black" points="1834.5,-414.5 1834.5,-433.5 1953.5,-433.5 1953.5,-414.5 1834.5,-414.5"/>
<text text-anchor="middle" x="1894" y="-421.5" font-family="Helvetica,sans-Serif" font-size="10.00">tvm/node/container.h</text>
</a>
</g>
</g>
<!-- Node2&#45;&gt;Node35 -->
<g id="edge115" class="edge"><title>Node2&#45;&gt;Node35</title>
<path fill="none" stroke="midnightblue" d="M1752.54,-705.433C1773.8,-688.571 1817,-648.799 1817,-604 1817,-604 1817,-604 1817,-546 1817,-502.313 1853.17,-461.672 1875.93,-440.423"/>
<polygon fill="midnightblue" stroke="midnightblue" points="1878.53,-442.794 1883.62,-433.502 1873.84,-437.592 1878.53,-442.794"/>
</g>
<!-- Node39 -->
<g id="node39" class="node"><title>Node39</title>
<g id="a_node39"><a xlink:href="span_8h.html" target="_top" xlink:title="Span information for debugging purposes. ">
<polygon fill="white" stroke="black" points="1883,-649.5 1883,-668.5 1963,-668.5 1963,-649.5 1883,-649.5"/>
<text text-anchor="middle" x="1923" y="-656.5" font-family="Helvetica,sans-Serif" font-size="10.00">tvm/ir/span.h</text>
</a>
</g>
</g>
<!-- Node2&#45;&gt;Node39 -->
<g id="edge116" class="edge"><title>Node2&#45;&gt;Node39</title>
<path fill="none" stroke="midnightblue" d="M1769.84,-705.444C1800.86,-696.241 1850.33,-681.562 1884.62,-671.388"/>
<polygon fill="midnightblue" stroke="midnightblue" points="1885.71,-674.716 1894.3,-668.516 1883.71,-668.006 1885.71,-674.716"/>
</g>
<!-- Node4 -->
<g id="node4" class="node"><title>Node4</title>
<polygon fill="white" stroke="#bfbfbf" points="1576,-62 1576,-81 1662,-81 1662,-62 1576,-62"/>
<text text-anchor="middle" x="1619" y="-69" font-family="Helvetica,sans-Serif" font-size="10.00">dmlc/logging.h</text>
</g>
<!-- Node3&#45;&gt;Node4 -->
<g id="edge3" class="edge"><title>Node3&#45;&gt;Node4</title>
<path fill="none" stroke="midnightblue" d="M1910.29,-123.475C1847.19,-112.434 1737.59,-93.2528 1672.32,-81.8309"/>
<polygon fill="midnightblue" stroke="midnightblue" points="1672.69,-78.3431 1662.24,-80.0669 1671.49,-85.2383 1672.69,-78.3431"/>
</g>
<!-- Node5 -->
<g id="node5" class="node"><title>Node5</title>
<g id="a_node5"><a xlink:href="c__runtime__api_8h.html" target="_top" xlink:title="tvm/runtime/c_runtime\l_api.h">
<polygon fill="white" stroke="black" points="892.5,-56.5 892.5,-86.5 1019.5,-86.5 1019.5,-56.5 892.5,-56.5"/>
<text text-anchor="start" x="900.5" y="-74.5" font-family="Helvetica,sans-Serif" font-size="10.00">tvm/runtime/c_runtime</text>
<text text-anchor="middle" x="956" y="-63.5" font-family="Helvetica,sans-Serif" font-size="10.00">_api.h</text>
</a>
</g>
</g>
<!-- Node3&#45;&gt;Node5 -->
<g id="edge4" class="edge"><title>Node3&#45;&gt;Node5</title>
<path fill="none" stroke="midnightblue" d="M1900.37,-128.522C1727.67,-118.277 1221.03,-88.2219 1030.01,-76.8907"/>
<polygon fill="midnightblue" stroke="midnightblue" points="1029.99,-73.3829 1019.8,-76.2845 1029.57,-80.3706 1029.99,-73.3829"/>
</g>
<!-- Node9 -->
<g id="node9" class="node"><title>Node9</title>
<polygon fill="white" stroke="#bfbfbf" points="2622,-62 2622,-81 2690,-81 2690,-62 2622,-62"/>
<text text-anchor="middle" x="2656" y="-69" font-family="Helvetica,sans-Serif" font-size="10.00">type_traits</text>
</g>
<!-- Node3&#45;&gt;Node9 -->
<g id="edge8" class="edge"><title>Node3&#45;&gt;Node9</title>
<path fill="none" stroke="midnightblue" d="M2017.53,-127.004C2153.96,-115.357 2490.73,-86.6086 2611.77,-76.2754"/>
<polygon fill="midnightblue" stroke="midnightblue" points="2612.13,-79.7576 2621.8,-75.4197 2611.54,-72.783 2612.13,-79.7576"/>
</g>
<!-- Node3&#45;&gt;Node10 -->
<g id="edge9" class="edge"><title>Node3&#45;&gt;Node10</title>
<path fill="none" stroke="midnightblue" d="M1900.46,-129.794C1642.18,-120.062 608.747,-81.1197 412.328,-73.7182"/>
<polygon fill="midnightblue" stroke="midnightblue" points="412.221,-70.2117 402.096,-73.3326 411.957,-77.2068 412.221,-70.2117"/>
</g>
<!-- Node11 -->
<g id="node11" class="node"><title>Node11</title>
<polygon fill="white" stroke="#bfbfbf" points="2254,-62 2254,-81 2296,-81 2296,-62 2254,-62"/>
<text text-anchor="middle" x="2275" y="-69" font-family="Helvetica,sans-Serif" font-size="10.00">utility</text>
</g>
<!-- Node3&#45;&gt;Node11 -->
<g id="edge10" class="edge"><title>Node3&#45;&gt;Node11</title>
<path fill="none" stroke="midnightblue" d="M2004.28,-123.475C2069.37,-111.219 2187.72,-88.9342 2243.86,-78.3643"/>
<polygon fill="midnightblue" stroke="midnightblue" points="2244.72,-81.7625 2253.9,-76.4724 2243.43,-74.8834 2244.72,-81.7625"/>
</g>
<!-- Node12 -->
<g id="node12" class="node"><title>Node12</title>
<polygon fill="white" stroke="#bfbfbf" points="1361,-62 1361,-81 1411,-81 1411,-62 1361,-62"/>
<text text-anchor="middle" x="1386" y="-69" font-family="Helvetica,sans-Serif" font-size="10.00">atomic</text>
</g>
<!-- Node3&#45;&gt;Node12 -->
<g id="edge11" class="edge"><title>Node3&#45;&gt;Node12</title>
<path fill="none" stroke="midnightblue" d="M1900.37,-125.912C1781.74,-113.594 1516.43,-86.0434 1421.02,-76.1362"/>
<polygon fill="midnightblue" stroke="midnightblue" points="1421.33,-72.6497 1411.02,-75.0981 1420.61,-79.6123 1421.33,-72.6497"/>
</g>
<!-- Node6 -->
<g id="node6" class="node"><title>Node6</title>
<polygon fill="white" stroke="#bfbfbf" points="821,-0.5 821,-19.5 911,-19.5 911,-0.5 821,-0.5"/>
<text text-anchor="middle" x="866" y="-7.5" font-family="Helvetica,sans-Serif" font-size="10.00">dlpack/dlpack.h</text>
</g>
<!-- Node5&#45;&gt;Node6 -->
<g id="edge5" class="edge"><title>Node5&#45;&gt;Node6</title>
<path fill="none" stroke="midnightblue" d="M934.671,-56.3993C920.515,-47.0402 901.989,-34.7924 887.747,-25.3771"/>
<polygon fill="midnightblue" stroke="midnightblue" points="889.368,-22.2531 879.096,-19.6578 885.507,-28.0923 889.368,-22.2531"/>
</g>
<!-- Node7 -->
<g id="node7" class="node"><title>Node7</title>
<polygon fill="white" stroke="#bfbfbf" points="929.5,-0.5 929.5,-19.5 982.5,-19.5 982.5,-0.5 929.5,-0.5"/>
<text text-anchor="middle" x="956" y="-7.5" font-family="Helvetica,sans-Serif" font-size="10.00">stdint.h</text>
</g>
<!-- Node5&#45;&gt;Node7 -->
<g id="edge6" class="edge"><title>Node5&#45;&gt;Node7</title>
<path fill="none" stroke="midnightblue" d="M956,-56.3993C956,-48.4664 956,-38.458 956,-29.8583"/>
<polygon fill="midnightblue" stroke="midnightblue" points="959.5,-29.6577 956,-19.6578 952.5,-29.6578 959.5,-29.6577"/>
</g>
<!-- Node8 -->
<g id="node8" class="node"><title>Node8</title>
<polygon fill="white" stroke="#bfbfbf" points="1000.5,-0.5 1000.5,-19.5 1055.5,-19.5 1055.5,-0.5 1000.5,-0.5"/>
<text text-anchor="middle" x="1028" y="-7.5" font-family="Helvetica,sans-Serif" font-size="10.00">stddef.h</text>
</g>
<!-- Node5&#45;&gt;Node8 -->
<g id="edge7" class="edge"><title>Node5&#45;&gt;Node8</title>
<path fill="none" stroke="midnightblue" d="M973.063,-56.3993C984.065,-47.3076 998.365,-35.4899 1009.62,-26.1909"/>
<polygon fill="midnightblue" stroke="midnightblue" points="1012.04,-28.726 1017.52,-19.6578 1007.59,-23.33 1012.04,-28.726"/>
</g>
<!-- Node13&#45;&gt;Node4 -->
<g id="edge14" class="edge"><title>Node13&#45;&gt;Node4</title>
<path fill="none" stroke="midnightblue" d="M762.099,-235.313C790.661,-217.721 852.768,-179.497 854,-179 961.201,-135.742 993.835,-141.161 1108,-123 1195.19,-109.13 1453.35,-86.4928 1565.73,-76.9573"/>
<polygon fill="midnightblue" stroke="midnightblue" points="1566.15,-80.4343 1575.82,-76.1032 1565.56,-73.4593 1566.15,-80.4343"/>
</g>
<!-- Node13&#45;&gt;Node5 -->
<g id="edge13" class="edge"><title>Node13&#45;&gt;Node5</title>
<path fill="none" stroke="midnightblue" d="M757.292,-235.404C771.012,-222.787 797.593,-198.624 821,-179 857.903,-148.061 901.902,-113.826 929.401,-92.7338"/>
<polygon fill="midnightblue" stroke="midnightblue" points="931.566,-95.4849 937.38,-86.6279 927.311,-89.9259 931.566,-95.4849"/>
</g>
<!-- Node13&#45;&gt;Node9 -->
<g id="edge15" class="edge"><title>Node13&#45;&gt;Node9</title>
<path fill="none" stroke="midnightblue" d="M816.053,-238.016C907.835,-229.831 1076.36,-214.395 1220,-199 1294.77,-190.987 1313.3,-187.605 1388,-179 1611.46,-153.26 1666.94,-142.858 1891,-123 2164.48,-98.762 2493.92,-80.7969 2611.58,-74.7324"/>
<polygon fill="midnightblue" stroke="midnightblue" points="2611.84,-78.2237 2621.65,-74.2159 2611.48,-71.2329 2611.84,-78.2237"/>
</g>
<!-- Node13&#45;&gt;Node10 -->
<g id="edge16" class="edge"><title>Node13&#45;&gt;Node10</title>
<path fill="none" stroke="midnightblue" d="M736.609,-235.492C707.275,-213.929 626.165,-156.475 551,-123 504.616,-102.343 447.468,-87.4246 412.393,-79.3718"/>
<polygon fill="midnightblue" stroke="midnightblue" points="412.776,-75.8708 402.252,-77.0943 411.242,-82.7007 412.776,-75.8708"/>
</g>
<!-- Node14&#45;&gt;Node3 -->
<g id="edge67" class="edge"><title>Node14&#45;&gt;Node3</title>
<path fill="none" stroke="midnightblue" d="M1955.49,-593.461C1977.7,-586.411 2006.83,-574.662 2028,-557 2151.61,-453.86 2181.58,-409.151 2228,-255 2230.56,-246.489 2233.09,-242.289 2228,-235 2201.44,-196.951 2173.47,-215.244 2130,-199 2081.4,-180.836 2025.18,-159.383 1990.87,-146.237"/>
<polygon fill="midnightblue" stroke="midnightblue" points="1991.97,-142.909 1981.38,-142.598 1989.46,-149.445 1991.97,-142.909"/>
</g>
<!-- Node14&#45;&gt;Node5 -->
<g id="edge18" class="edge"><title>Node14&#45;&gt;Node5</title>
<path fill="none" stroke="midnightblue" d="M1873.82,-601.378C1652,-598.428 750.115,-584.807 627,-557 566.033,-543.23 545.819,-541.248 498,-501 407.407,-424.751 422.282,-311.099 513,-235 622.152,-143.437 787.45,-101.285 882.234,-83.666"/>
<polygon fill="midnightblue" stroke="midnightblue" points="883.094,-87.0671 892.308,-81.8366 881.843,-80.1798 883.094,-87.0671"/>
</g>
<!-- Node14&#45;&gt;Node9 -->
<g id="edge114" class="edge"><title>Node14&#45;&gt;Node9</title>
<path fill="none" stroke="midnightblue" d="M1972.06,-601.138C2042.99,-598.734 2177.68,-589.808 2287,-557 2340.69,-540.889 2355.53,-535.12 2400,-501 2507.27,-418.694 2618.65,-179.942 2635,-143 2642.5,-126.063 2648.24,-105.689 2651.81,-91.209"/>
<polygon fill="midnightblue" stroke="midnightblue" points="2655.22,-91.9748 2654.11,-81.4389 2648.41,-90.3712 2655.22,-91.9748"/>
</g>
<!-- Node14&#45;&gt;Node10 -->
<g id="edge111" class="edge"><title>Node14&#45;&gt;Node10</title>
<path fill="none" stroke="midnightblue" d="M1873.82,-601.602C1688.54,-599.849 1032.69,-591.307 827,-557 741.004,-542.657 705.561,-557.308 639,-501 559.635,-433.859 588.203,-380.898 536,-291 490.688,-212.968 476.247,-195.107 422,-123 413.198,-111.3 402.661,-98.6339 394.343,-88.9132"/>
<polygon fill="midnightblue" stroke="midnightblue" points="396.889,-86.507 387.704,-81.2274 391.592,-91.0829 396.889,-86.507"/>
</g>
<!-- Node14&#45;&gt;Node11 -->
<g id="edge113" class="edge"><title>Node14&#45;&gt;Node11</title>
<path fill="none" stroke="midnightblue" d="M1972.24,-602.143C2037.63,-600.801 2155.72,-592.985 2249,-557 2389.77,-502.696 2439.53,-462.708 2494,-322 2521.75,-250.323 2488.26,-183.03 2424,-123 2391.22,-92.3789 2339.18,-80.2627 2306.08,-75.511"/>
<polygon fill="midnightblue" stroke="midnightblue" points="2306.41,-72.0251 2296.05,-74.2129 2305.51,-78.9672 2306.41,-72.0251"/>
</g>
<!-- Node15 -->
<g id="node15" class="node"><title>Node15</title>
<g id="a_node15"><a xlink:href="runtime_2container_8h.html" target="_top" xlink:title="Common POD(plain old data) container types. ">
<polygon fill="white" stroke="black" points="1967,-358.5 1967,-377.5 2099,-377.5 2099,-358.5 1967,-358.5"/>
<text text-anchor="middle" x="2033" y="-365.5" font-family="Helvetica,sans-Serif" font-size="10.00">tvm/runtime/container.h</text>
</a>
</g>
</g>
<!-- Node14&#45;&gt;Node15 -->
<g id="edge19" class="edge"><title>Node14&#45;&gt;Node15</title>
<path fill="none" stroke="midnightblue" d="M1954.23,-593.441C1972.87,-586.661 1995.31,-575.227 2008,-557 2044.32,-504.815 2040.07,-424.39 2035.79,-388.019"/>
<polygon fill="midnightblue" stroke="midnightblue" points="2039.23,-387.308 2034.45,-377.851 2032.29,-388.222 2039.23,-387.308"/>
</g>
<!-- Node16 -->
<g id="node16" class="node"><title>Node16</title>
<g id="a_node16"><a xlink:href="runtime_2memory_8h.html" target="_top" xlink:title="Runtime memory management. ">
<polygon fill="white" stroke="black" points="2139.5,-179.5 2139.5,-198.5 2266.5,-198.5 2266.5,-179.5 2139.5,-179.5"/>
<text text-anchor="middle" x="2203" y="-186.5" font-family="Helvetica,sans-Serif" font-size="10.00">tvm/runtime/memory.h</text>
</a>
</g>
</g>
<!-- Node14&#45;&gt;Node16 -->
<g id="edge68" class="edge"><title>Node14&#45;&gt;Node16</title>
<path fill="none" stroke="midnightblue" d="M1972.03,-598.594C2044.63,-592.874 2176.59,-579.678 2218,-557 2310.81,-506.167 2337.72,-477.037 2375,-378 2405.5,-296.985 2288.88,-229.979 2232.23,-202.901"/>
<polygon fill="midnightblue" stroke="midnightblue" points="2233.58,-199.669 2223.04,-198.607 2230.62,-206.011 2233.58,-199.669"/>
</g>
<!-- Node22 -->
<g id="node22" class="node"><title>Node22</title>
<polygon fill="white" stroke="#bfbfbf" points="863.5,-179.5 863.5,-198.5 910.5,-198.5 910.5,-179.5 863.5,-179.5"/>
<text text-anchor="middle" x="887" y="-186.5" font-family="Helvetica,sans-Serif" font-size="10.00">vector</text>
</g>
<!-- Node14&#45;&gt;Node22 -->
<g id="edge112" class="edge"><title>Node14&#45;&gt;Node22</title>
<path fill="none" stroke="midnightblue" d="M1891.01,-593.459C1751.43,-555.961 1195.65,-404.152 1035,-322 990.601,-299.296 981.788,-288.665 945,-255 928.525,-239.924 911.76,-220.615 900.52,-206.972"/>
<polygon fill="midnightblue" stroke="midnightblue" points="903.009,-204.485 893.99,-198.926 897.574,-208.896 903.009,-204.485"/>
</g>
<!-- Node32 -->
<g id="node32" class="node"><title>Node32</title>
<g id="a_node32"><a xlink:href="reflection_8h.html" target="_top" xlink:title="Reflection and serialization of compiler IR/AST nodes. ">
<polygon fill="white" stroke="black" points="960.5,-537.5 960.5,-556.5 1079.5,-556.5 1079.5,-537.5 960.5,-537.5"/>
<text text-anchor="middle" x="1020" y="-544.5" font-family="Helvetica,sans-Serif" font-size="10.00">tvm/node/reflection.h</text>
</a>
</g>
</g>
<!-- Node14&#45;&gt;Node32 -->
<g id="edge69" class="edge"><title>Node14&#45;&gt;Node32</title>
<path fill="none" stroke="midnightblue" d="M1873.81,-599.058C1722.79,-590.028 1265.45,-562.678 1089.77,-552.172"/>
<polygon fill="midnightblue" stroke="midnightblue" points="1089.8,-548.668 1079.61,-551.565 1089.39,-555.656 1089.8,-548.668"/>
</g>
<!-- Node33 -->
<g id="node33" class="node"><title>Node33</title>
<g id="a_node33"><a xlink:href="structural__equal_8h.html" target="_top" xlink:title="Structural equality comparison. ">
<polygon fill="white" stroke="black" points="777.5,-470.5 777.5,-500.5 888.5,-500.5 888.5,-470.5 777.5,-470.5"/>
<text text-anchor="start" x="785.5" y="-488.5" font-family="Helvetica,sans-Serif" font-size="10.00">tvm/node/structural</text>
<text text-anchor="middle" x="833" y="-477.5" font-family="Helvetica,sans-Serif" font-size="10.00">_equal.h</text>
</a>
</g>
</g>
<!-- Node14&#45;&gt;Node33 -->
<g id="edge109" class="edge"><title>Node14&#45;&gt;Node33</title>
<path fill="none" stroke="midnightblue" d="M1873.82,-601.128C1688.68,-597.655 1039.61,-583.676 951,-557 916.351,-546.57 881.351,-523.762 858.571,-506.899"/>
<polygon fill="midnightblue" stroke="midnightblue" points="860.551,-504.008 850.464,-500.765 856.327,-509.59 860.551,-504.008"/>
</g>
<!-- Node14&#45;&gt;Node35 -->
<g id="edge108" class="edge"><title>Node14&#45;&gt;Node35</title>
<path fill="none" stroke="midnightblue" d="M1946.79,-593.499C1962.72,-586.413 1982.46,-574.605 1992,-557 1996.23,-549.184 1994.17,-545.62 1992,-537 1983.75,-504.218 1978.24,-495.459 1956,-470 1945.23,-457.668 1930.48,-446.789 1918.07,-438.819"/>
<polygon fill="midnightblue" stroke="midnightblue" points="1919.88,-435.825 1909.53,-433.549 1916.2,-441.781 1919.88,-435.825"/>
</g>
<!-- Node36 -->
<g id="node36" class="node"><title>Node36</title>
<g id="a_node36"><a xlink:href="structural__hash_8h.html" target="_top" xlink:title="tvm/node/structural\l_hash.h">
<polygon fill="white" stroke="black" points="648.5,-470.5 648.5,-500.5 759.5,-500.5 759.5,-470.5 648.5,-470.5"/>
<text text-anchor="start" x="656.5" y="-488.5" font-family="Helvetica,sans-Serif" font-size="10.00">tvm/node/structural</text>
<text text-anchor="middle" x="704" y="-477.5" font-family="Helvetica,sans-Serif" font-size="10.00">_hash.h</text>
</a>
</g>
</g>
<!-- Node14&#45;&gt;Node36 -->
<g id="edge110" class="edge"><title>Node14&#45;&gt;Node36</title>
<path fill="none" stroke="midnightblue" d="M1873.87,-601.754C1696.88,-600.57 1092.32,-593.859 903,-557 846.12,-545.926 783.595,-521.641 744.093,-504.686"/>
<polygon fill="midnightblue" stroke="midnightblue" points="745.13,-501.321 734.564,-500.546 742.341,-507.741 745.13,-501.321"/>
</g>
<!-- Node37 -->
<g id="node37" class="node"><title>Node37</title>
<g id="a_node37"><a xlink:href="repr__printer_8h.html" target="_top" xlink:title="Printer class to print repr string of each AST/IR nodes. ">
<polygon fill="white" stroke="black" points="1853,-537.5 1853,-556.5 1983,-556.5 1983,-537.5 1853,-537.5"/>
<text text-anchor="middle" x="1918" y="-544.5" font-family="Helvetica,sans-Serif" font-size="10.00">tvm/node/repr_printer.h</text>
</a>
</g>
</g>
<!-- Node14&#45;&gt;Node37 -->
<g id="edge105" class="edge"><title>Node14&#45;&gt;Node37</title>
<path fill="none" stroke="midnightblue" d="M1922.17,-593.083C1921.52,-586.006 1920.58,-575.861 1919.76,-566.986"/>
<polygon fill="midnightblue" stroke="midnightblue" points="1923.22,-566.386 1918.81,-556.751 1916.25,-567.031 1923.22,-566.386"/>
</g>
<!-- Node15&#45;&gt;Node3 -->
<g id="edge26" class="edge"><title>Node15&#45;&gt;Node3</title>
<path fill="none" stroke="midnightblue" d="M2034.08,-358.498C2037.17,-330.766 2043.91,-241.149 2011,-179 2004.45,-166.636 1993,-156.161 1982.51,-148.438"/>
<polygon fill="midnightblue" stroke="midnightblue" points="1984.27,-145.402 1974.05,-142.616 1980.31,-151.169 1984.27,-145.402"/>
</g>
<!-- Node15&#45;&gt;Node4 -->
<g id="edge20" class="edge"><title>Node15&#45;&gt;Node4</title>
<path fill="none" stroke="midnightblue" d="M2037.62,-358.339C2042.06,-349.493 2048.45,-335.22 2051,-322 2067.86,-234.469 2090.69,-184.331 2026,-123 1976.22,-75.8041 1770.81,-71.045 1672.24,-71.5781"/>
<polygon fill="midnightblue" stroke="midnightblue" points="1672.17,-68.0785 1662.19,-71.653 1672.22,-75.0783 1672.17,-68.0785"/>
</g>
<!-- Node15&#45;&gt;Node9 -->
<g id="edge64" class="edge"><title>Node15&#45;&gt;Node9</title>
<path fill="none" stroke="midnightblue" d="M2078.55,-358.491C2114.45,-351.029 2165.37,-338.748 2208,-322 2382.18,-253.569 2572.38,-129.293 2634.85,-87.0241"/>
<polygon fill="midnightblue" stroke="midnightblue" points="2637.14,-89.6991 2643.44,-81.1814 2633.2,-83.9109 2637.14,-89.6991"/>
</g>
<!-- Node15&#45;&gt;Node10 -->
<g id="edge63" class="edge"><title>Node15&#45;&gt;Node10</title>
<path fill="none" stroke="midnightblue" d="M1966.9,-367.24C1783.13,-367.363 1268.99,-363.843 1106,-322 985.285,-291.01 962.695,-259.974 854,-199 799.268,-168.298 793.846,-144.803 735,-123 621.877,-81.0863 476.593,-73.6909 412.663,-72.5717"/>
<polygon fill="midnightblue" stroke="midnightblue" points="412.452,-69.0687 402.406,-72.435 412.358,-76.0681 412.452,-69.0687"/>
</g>
<!-- Node15&#45;&gt;Node11 -->
<g id="edge65" class="edge"><title>Node15&#45;&gt;Node11</title>
<path fill="none" stroke="midnightblue" d="M2081,-358.427C2109.24,-351.754 2144.66,-340.438 2172,-322 2231.11,-282.13 2250.65,-266.015 2275,-199 2288.2,-162.664 2283.25,-116.483 2278.86,-91.1797"/>
<polygon fill="midnightblue" stroke="midnightblue" points="2282.26,-90.3051 2276.96,-81.1331 2275.38,-91.6104 2282.26,-90.3051"/>
</g>
<!-- Node15&#45;&gt;Node16 -->
<g id="edge21" class="edge"><title>Node15&#45;&gt;Node16</title>
<path fill="none" stroke="midnightblue" d="M2086.78,-358.473C2109.74,-352.137 2134.9,-341.122 2151,-322 2176.37,-291.86 2151.68,-270.86 2168,-235 2172.75,-224.57 2180.36,-214.369 2187.27,-206.324"/>
<polygon fill="midnightblue" stroke="midnightblue" points="2189.97,-208.566 2194.08,-198.802 2184.77,-203.87 2189.97,-208.566"/>
</g>
<!-- Node18 -->
<g id="node18" class="node"><title>Node18</title>
<g id="a_node18"><a xlink:href="packed__func_8h.html" target="_top" xlink:title="Type&#45;erased function used across TVM API. ">
<polygon fill="white" stroke="black" points="1115.5,-291.5 1115.5,-321.5 1228.5,-321.5 1228.5,-291.5 1115.5,-291.5"/>
<text text-anchor="start" x="1123.5" y="-309.5" font-family="Helvetica,sans-Serif" font-size="10.00">tvm/runtime/packed</text>
<text text-anchor="middle" x="1172" y="-298.5" font-family="Helvetica,sans-Serif" font-size="10.00">_func.h</text>
</a>
</g>
</g>
<!-- Node15&#45;&gt;Node18 -->
<g id="edge27" class="edge"><title>Node15&#45;&gt;Node18</title>
<path fill="none" stroke="midnightblue" d="M1966.87,-362.43C1806.77,-351.366 1399.71,-323.236 1238.86,-312.121"/>
<polygon fill="midnightblue" stroke="midnightblue" points="1238.85,-308.611 1228.63,-311.413 1238.36,-315.595 1238.85,-308.611"/>
</g>
<!-- Node15&#45;&gt;Node22 -->
<g id="edge66" class="edge"><title>Node15&#45;&gt;Node22</title>
<path fill="none" stroke="midnightblue" d="M2028.81,-358.439C2020.22,-341.948 1998.88,-306.077 1969,-291 1857.08,-234.516 1529.79,-274.848 1406,-255 1371.09,-249.402 1363.8,-241.253 1329,-235 1178.13,-207.891 995.144,-195.753 920.817,-191.679"/>
<polygon fill="midnightblue" stroke="midnightblue" points="920.828,-188.174 910.656,-191.135 920.455,-195.164 920.828,-188.174"/>
</g>
<!-- Node30 -->
<g id="node30" class="node"><title>Node30</title>
<polygon fill="white" stroke="#bfbfbf" points="2093.5,-297 2093.5,-316 2142.5,-316 2142.5,-297 2093.5,-297"/>
<text text-anchor="middle" x="2118" y="-304" font-family="Helvetica,sans-Serif" font-size="10.00">cstring</text>
</g>
<!-- Node15&#45;&gt;Node30 -->
<g id="edge61" class="edge"><title>Node15&#45;&gt;Node30</title>
<path fill="none" stroke="midnightblue" d="M2045.18,-358.475C2058.81,-348.931 2081.13,-333.307 2097.47,-321.868"/>
<polygon fill="midnightblue" stroke="midnightblue" points="2099.66,-324.611 2105.84,-316.009 2095.64,-318.876 2099.66,-324.611"/>
</g>
<!-- Node31 -->
<g id="node31" class="node"><title>Node31</title>
<polygon fill="white" stroke="#bfbfbf" points="1883.5,-297 1883.5,-316 1960.5,-316 1960.5,-297 1883.5,-297"/>
<text text-anchor="middle" x="1922" y="-304" font-family="Helvetica,sans-Serif" font-size="10.00">initializer_list</text>
</g>
<!-- Node15&#45;&gt;Node31 -->
<g id="edge62" class="edge"><title>Node15&#45;&gt;Node31</title>
<path fill="none" stroke="midnightblue" d="M2017.1,-358.475C1998.72,-348.622 1968.24,-332.288 1946.76,-320.77"/>
<polygon fill="midnightblue" stroke="midnightblue" points="1948.34,-317.649 1937.87,-316.009 1945.03,-323.818 1948.34,-317.649"/>
</g>
<!-- Node16&#45;&gt;Node3 -->
<g id="edge22" class="edge"><title>Node16&#45;&gt;Node3</title>
<path fill="none" stroke="midnightblue" d="M2164.34,-179.444C2121.86,-170.043 2053.57,-154.929 2007.53,-144.739"/>
<polygon fill="midnightblue" stroke="midnightblue" points="2008,-141.26 1997.48,-142.516 2006.49,-148.095 2008,-141.26"/>
</g>
<!-- Node16&#45;&gt;Node9 -->
<g id="edge25" class="edge"><title>Node16&#45;&gt;Node9</title>
<path fill="none" stroke="midnightblue" d="M2235.2,-179.455C2282.62,-166.903 2374.06,-142.819 2452,-123 2507.04,-109.003 2570.57,-93.3562 2611.92,-83.2412"/>
<polygon fill="midnightblue" stroke="midnightblue" points="2612.79,-86.6306 2621.68,-80.856 2611.13,-79.8308 2612.79,-86.6306"/>
</g>
<!-- Node16&#45;&gt;Node11 -->
<g id="edge24" class="edge"><title>Node16&#45;&gt;Node11</title>
<path fill="none" stroke="midnightblue" d="M2209.65,-179.22C2216.32,-170.281 2226.76,-155.937 2235,-143 2246.18,-125.448 2257.79,-104.65 2265.6,-90.2126"/>
<polygon fill="midnightblue" stroke="midnightblue" points="2268.71,-91.8187 2270.35,-81.3516 2262.54,-88.5109 2268.71,-91.8187"/>
</g>
<!-- Node17 -->
<g id="node17" class="node"><title>Node17</title>
<polygon fill="white" stroke="#bfbfbf" points="2179.5,-123.5 2179.5,-142.5 2226.5,-142.5 2226.5,-123.5 2179.5,-123.5"/>
<text text-anchor="middle" x="2203" y="-130.5" font-family="Helvetica,sans-Serif" font-size="10.00">cstdlib</text>
</g>
<!-- Node16&#45;&gt;Node17 -->
<g id="edge23" class="edge"><title>Node16&#45;&gt;Node17</title>
<path fill="none" stroke="midnightblue" d="M2203,-179.083C2203,-172.006 2203,-161.861 2203,-152.986"/>
<polygon fill="midnightblue" stroke="midnightblue" points="2206.5,-152.751 2203,-142.751 2199.5,-152.751 2206.5,-152.751"/>
</g>
<!-- Node18&#45;&gt;Node3 -->
<g id="edge52" class="edge"><title>Node18&#45;&gt;Node3</title>
<path fill="none" stroke="midnightblue" d="M1228.87,-293.333C1233.64,-292.481 1238.4,-291.689 1243,-291 1409.03,-266.17 1458.09,-302.862 1619,-255 1653.87,-244.628 1729.89,-191.638 1764,-179 1806.62,-163.212 1856.6,-151.809 1895.29,-144.432"/>
<polygon fill="midnightblue" stroke="midnightblue" points="1896.19,-147.825 1905.37,-142.551 1894.9,-140.943 1896.19,-147.825"/>
</g>
<!-- Node18&#45;&gt;Node4 -->
<g id="edge28" class="edge"><title>Node18&#45;&gt;Node4</title>
<path fill="none" stroke="midnightblue" d="M1227.05,-291.456C1257.76,-282.722 1296.31,-270.25 1329,-255 1437.41,-204.432 1554.45,-120.698 1599.66,-87.1057"/>
<polygon fill="midnightblue" stroke="midnightblue" points="1601.81,-89.8706 1607.72,-81.0805 1597.62,-84.2636 1601.81,-89.8706"/>
</g>
<!-- Node18&#45;&gt;Node5 -->
<g id="edge29" class="edge"><title>Node18&#45;&gt;Node5</title>
<path fill="none" stroke="midnightblue" d="M1156.96,-291.402C1140.39,-276.312 1112.57,-252.223 1086,-235 1055.98,-215.538 1041.06,-222.404 1014,-199 991.06,-179.16 987.803,-170.495 975,-143 968.092,-128.165 963.32,-110.364 960.286,-96.3614"/>
<polygon fill="midnightblue" stroke="midnightblue" points="963.706,-95.616 958.298,-86.5055 956.844,-97.0001 963.706,-95.616"/>
</g>
<!-- Node18&#45;&gt;Node9 -->
<g id="edge60" class="edge"><title>Node18&#45;&gt;Node9</title>
<path fill="none" stroke="midnightblue" d="M1228.79,-304.879C1397.1,-302.05 1907.18,-286.331 2319,-199 2439.24,-173.501 2573.65,-112.51 2629.48,-85.6175"/>
<polygon fill="midnightblue" stroke="midnightblue" points="2631.2,-88.6738 2638.66,-81.1574 2628.14,-82.3768 2631.2,-88.6738"/>
</g>
<!-- Node18&#45;&gt;Node10 -->
<g id="edge56" class="edge"><title>Node18&#45;&gt;Node10</title>
<path fill="none" stroke="midnightblue" d="M1149.09,-291.489C1124.51,-276.687 1084.11,-253.038 1048,-235 992.085,-207.069 976.47,-203.572 919,-179 860.027,-153.785 847.963,-139.559 786,-123 650.516,-86.7936 482.52,-76.3969 412.749,-73.5349"/>
<polygon fill="midnightblue" stroke="midnightblue" points="412.541,-70.0244 402.414,-73.1375 412.272,-77.0193 412.541,-70.0244"/>
</g>
<!-- Node18&#45;&gt;Node11 -->
<g id="edge59" class="edge"><title>Node18&#45;&gt;Node11</title>
<path fill="none" stroke="midnightblue" d="M1228.77,-291.756C1230.2,-291.492 1231.61,-291.24 1233,-291 1380.58,-265.634 1424.82,-298.86 1568,-255 1627.88,-236.657 1757.14,-141.426 1817,-123 1971.85,-75.3303 2168.36,-71.4798 2243.68,-71.9505"/>
<polygon fill="midnightblue" stroke="midnightblue" points="2243.86,-75.4522 2253.89,-72.0466 2243.93,-68.4525 2243.86,-75.4522"/>
</g>
<!-- Node18&#45;&gt;Node13 -->
<g id="edge51" class="edge"><title>Node18&#45;&gt;Node13</title>
<path fill="none" stroke="midnightblue" d="M1115.26,-297.537C1038.68,-286.791 902.282,-267.65 818.998,-255.963"/>
<polygon fill="midnightblue" stroke="midnightblue" points="819.251,-252.465 808.862,-254.541 818.279,-259.397 819.251,-252.465"/>
</g>
<!-- Node19 -->
<g id="node19" class="node"><title>Node19</title>
<g id="a_node19"><a xlink:href="runtime_2module_8h.html" target="_top" xlink:title="Runtime container of the functions generated by TVM, This is used to support dynamically link...">
<polygon fill="white" stroke="black" points="1415,-235.5 1415,-254.5 1539,-254.5 1539,-235.5 1415,-235.5"/>
<text text-anchor="middle" x="1477" y="-242.5" font-family="Helvetica,sans-Serif" font-size="10.00">tvm/runtime/module.h</text>
</a>
</g>
</g>
<!-- Node18&#45;&gt;Node19 -->
<g id="edge30" class="edge"><title>Node18&#45;&gt;Node19</title>
<path fill="none" stroke="midnightblue" d="M1228.76,-292.044C1230.52,-291.691 1232.27,-291.343 1234,-291 1295.31,-278.844 1365.76,-265.362 1415.06,-256.353"/>
<polygon fill="midnightblue" stroke="midnightblue" points="1415.72,-259.79 1424.93,-254.557 1414.47,-252.903 1415.72,-259.79"/>
</g>
<!-- Node21 -->
<g id="node21" class="node"><title>Node21</title>
<polygon fill="white" stroke="#bfbfbf" points="1533.5,-179.5 1533.5,-198.5 1590.5,-198.5 1590.5,-179.5 1533.5,-179.5"/>
<text text-anchor="middle" x="1562" y="-186.5" font-family="Helvetica,sans-Serif" font-size="10.00">memory</text>
</g>
<!-- Node18&#45;&gt;Node21 -->
<g id="edge58" class="edge"><title>Node18&#45;&gt;Node21</title>
<path fill="none" stroke="midnightblue" d="M1228.5,-293.515C1233.4,-292.612 1238.28,-291.759 1243,-291 1310.38,-280.162 1497.51,-300.922 1548,-255 1560.66,-243.488 1563.35,-223.517 1563.38,-208.742"/>
<polygon fill="midnightblue" stroke="midnightblue" points="1566.87,-208.542 1562.99,-198.681 1559.88,-208.807 1566.87,-208.542"/>
</g>
<!-- Node18&#45;&gt;Node22 -->
<g id="edge55" class="edge"><title>Node18&#45;&gt;Node22</title>
<path fill="none" stroke="midnightblue" d="M1140.41,-291.485C1100.71,-273.92 1034.78,-244.913 1010,-235 979.941,-222.973 945.27,-210.404 920.415,-201.617"/>
<polygon fill="midnightblue" stroke="midnightblue" points="921.334,-198.23 910.739,-198.211 919.01,-204.833 921.334,-198.23"/>
</g>
<!-- Node24 -->
<g id="node24" class="node"><title>Node24</title>
<g id="a_node24"><a xlink:href="ndarray_8h.html" target="_top" xlink:title="A device&#45;independent managed NDArray abstraction. ">
<polygon fill="white" stroke="black" points="1138.5,-235.5 1138.5,-254.5 1261.5,-254.5 1261.5,-235.5 1138.5,-235.5"/>
<text text-anchor="middle" x="1200" y="-242.5" font-family="Helvetica,sans-Serif" font-size="10.00">tvm/runtime/ndarray.h</text>
</a>
</g>
</g>
<!-- Node18&#45;&gt;Node24 -->
<g id="edge40" class="edge"><title>Node18&#45;&gt;Node24</title>
<path fill="none" stroke="midnightblue" d="M1178.64,-291.399C1182.54,-283.11 1187.5,-272.554 1191.67,-263.708"/>
<polygon fill="midnightblue" stroke="midnightblue" points="1194.83,-265.196 1195.93,-254.658 1188.5,-262.216 1194.83,-265.196"/>
</g>
<!-- Node27 -->
<g id="node27" class="node"><title>Node27</title>
<polygon fill="white" stroke="#bfbfbf" points="560.5,-235.5 560.5,-254.5 623.5,-254.5 623.5,-235.5 560.5,-235.5"/>
<text text-anchor="middle" x="592" y="-242.5" font-family="Helvetica,sans-Serif" font-size="10.00">functional</text>
</g>
<!-- Node18&#45;&gt;Node27 -->
<g id="edge53" class="edge"><title>Node18&#45;&gt;Node27</title>
<path fill="none" stroke="midnightblue" d="M1115.25,-300.022C1022.35,-290.999 832.02,-272.287 671,-255 658.898,-253.701 645.761,-252.229 633.738,-250.857"/>
<polygon fill="midnightblue" stroke="midnightblue" points="633.846,-247.347 623.512,-249.685 633.048,-254.301 633.846,-247.347"/>
</g>
<!-- Node28 -->
<g id="node28" class="node"><title>Node28</title>
<polygon fill="white" stroke="#bfbfbf" points="1279.5,-235.5 1279.5,-254.5 1320.5,-254.5 1320.5,-235.5 1279.5,-235.5"/>
<text text-anchor="middle" x="1300" y="-242.5" font-family="Helvetica,sans-Serif" font-size="10.00">tuple</text>
</g>
<!-- Node18&#45;&gt;Node28 -->
<g id="edge54" class="edge"><title>Node18&#45;&gt;Node28</title>
<path fill="none" stroke="midnightblue" d="M1202.33,-291.399C1223.52,-281.55 1251.59,-268.501 1272.2,-258.922"/>
<polygon fill="midnightblue" stroke="midnightblue" points="1273.78,-262.047 1281.37,-254.658 1270.83,-255.699 1273.78,-262.047"/>
</g>
<!-- Node29 -->
<g id="node29" class="node"><title>Node29</title>
<polygon fill="white" stroke="#bfbfbf" points="2177,-235.5 2177,-254.5 2219,-254.5 2219,-235.5 2177,-235.5"/>
<text text-anchor="middle" x="2198" y="-242.5" font-family="Helvetica,sans-Serif" font-size="10.00">limits</text>
</g>
<!-- Node18&#45;&gt;Node29 -->
<g id="edge57" class="edge"><title>Node18&#45;&gt;Node29</title>
<path fill="none" stroke="midnightblue" d="M1228.52,-302.888C1372.04,-296.146 1762.2,-277.127 2087,-255 2113.85,-253.171 2144.33,-250.669 2166.54,-248.768"/>
<polygon fill="midnightblue" stroke="midnightblue" points="2167.07,-252.235 2176.73,-247.888 2166.47,-245.261 2167.07,-252.235"/>
</g>
<!-- Node19&#45;&gt;Node3 -->
<g id="edge33" class="edge"><title>Node19&#45;&gt;Node3</title>
<path fill="none" stroke="midnightblue" d="M1480.39,-235.45C1486.61,-221.013 1501.33,-192.097 1524,-179 1584.66,-143.952 1783.92,-136.05 1890.43,-134.369"/>
<polygon fill="midnightblue" stroke="midnightblue" points="1890.49,-137.869 1900.44,-134.225 1890.39,-130.869 1890.49,-137.869"/>
</g>
<!-- Node19&#45;&gt;Node5 -->
<g id="edge32" class="edge"><title>Node19&#45;&gt;Node5</title>
<path fill="none" stroke="midnightblue" d="M1414.84,-238.248C1305.09,-227.931 1087.06,-206.644 1072,-199 1059.64,-192.726 1003.96,-128.736 974.466,-94.2498"/>
<polygon fill="midnightblue" stroke="midnightblue" points="977.066,-91.9055 967.913,-86.5696 971.741,-96.4488 977.066,-91.9055"/>
</g>
<!-- Node19&#45;&gt;Node10 -->
<g id="edge37" class="edge"><title>Node19&#45;&gt;Node10</title>
<path fill="none" stroke="midnightblue" d="M1470.56,-235.465C1452.44,-212.235 1398.28,-147.949 1336,-123 1292.21,-105.461 574.196,-79.3126 412.268,-73.6197"/>
<polygon fill="midnightblue" stroke="midnightblue" points="412.118,-70.1124 402.001,-73.26 411.873,-77.1081 412.118,-70.1124"/>
</g>
<!-- Node19&#45;&gt;Node16 -->
<g id="edge34" class="edge"><title>Node19&#45;&gt;Node16</title>
<path fill="none" stroke="midnightblue" d="M1539.21,-239.373C1672.69,-229.444 1986.04,-206.138 2129.25,-195.486"/>
<polygon fill="midnightblue" stroke="midnightblue" points="2129.55,-198.973 2139.26,-194.741 2129.03,-191.993 2129.55,-198.973"/>
</g>
<!-- Node19&#45;&gt;Node18 -->
<g id="edge39" class="edge"><title>Node19&#45;&gt;Node18</title>
<path fill="none" stroke="midnightblue" d="M1438.41,-254.557C1393.51,-263.498 1317.54,-278.007 1252,-291 1247.65,-291.863 1243.15,-292.763 1238.6,-293.674"/>
<polygon fill="midnightblue" stroke="midnightblue" points="1237.72,-290.28 1228.6,-295.675 1239.09,-297.144 1237.72,-290.28"/>
</g>
<!-- Node20 -->
<g id="node20" class="node"><title>Node20</title>
<polygon fill="white" stroke="#bfbfbf" points="1267,-123.5 1267,-142.5 1327,-142.5 1327,-123.5 1267,-123.5"/>
<text text-anchor="middle" x="1297" y="-130.5" font-family="Helvetica,sans-Serif" font-size="10.00">dmlc/io.h</text>
</g>
<!-- Node19&#45;&gt;Node20 -->
<g id="edge31" class="edge"><title>Node19&#45;&gt;Node20</title>
<path fill="none" stroke="midnightblue" d="M1462.88,-235.368C1431.86,-216.412 1357.55,-171.001 1319.81,-147.942"/>
<polygon fill="midnightblue" stroke="midnightblue" points="1321.42,-144.819 1311.06,-142.591 1317.77,-150.792 1321.42,-144.819"/>
</g>
<!-- Node19&#45;&gt;Node21 -->
<g id="edge35" class="edge"><title>Node19&#45;&gt;Node21</title>
<path fill="none" stroke="midnightblue" d="M1490.66,-235.324C1503.92,-226.9 1524.27,-213.971 1539.85,-204.074"/>
<polygon fill="midnightblue" stroke="midnightblue" points="1541.81,-206.971 1548.38,-198.655 1538.06,-201.063 1541.81,-206.971"/>
</g>
<!-- Node19&#45;&gt;Node22 -->
<g id="edge36" class="edge"><title>Node19&#45;&gt;Node22</title>
<path fill="none" stroke="midnightblue" d="M1414.97,-238.323C1291.07,-226.983 1016.61,-201.863 920.798,-193.093"/>
<polygon fill="midnightblue" stroke="midnightblue" points="921.07,-189.604 910.793,-192.178 920.432,-196.575 921.07,-189.604"/>
</g>
<!-- Node23 -->
<g id="node23" class="node"><title>Node23</title>
<polygon fill="white" stroke="#bfbfbf" points="1837.5,-179.5 1837.5,-198.5 1930.5,-198.5 1930.5,-179.5 1837.5,-179.5"/>
<text text-anchor="middle" x="1884" y="-186.5" font-family="Helvetica,sans-Serif" font-size="10.00">unordered_map</text>
</g>
<!-- Node19&#45;&gt;Node23 -->
<g id="edge38" class="edge"><title>Node19&#45;&gt;Node23</title>
<path fill="none" stroke="midnightblue" d="M1539.26,-235.74C1617.63,-225.342 1751.15,-207.626 1826.97,-197.566"/>
<polygon fill="midnightblue" stroke="midnightblue" points="1827.82,-200.984 1837.28,-196.199 1826.9,-194.045 1827.82,-200.984"/>
</g>
<!-- Node24&#45;&gt;Node3 -->
<g id="edge42" class="edge"><title>Node24&#45;&gt;Node3</title>
<path fill="none" stroke="midnightblue" d="M1233.39,-235.405C1288.39,-221.55 1401.65,-194.29 1499,-179 1636.96,-157.331 1799.95,-144.327 1890.17,-138.221"/>
<polygon fill="midnightblue" stroke="midnightblue" points="1890.52,-141.705 1900.27,-137.545 1890.06,-134.72 1890.52,-141.705"/>
</g>
<!-- Node24&#45;&gt;Node5 -->
<g id="edge41" class="edge"><title>Node24&#45;&gt;Node5</title>
<path fill="none" stroke="midnightblue" d="M1138.45,-236.778C1106.54,-230.684 1068.23,-219.495 1039,-199 1002.06,-173.099 977.329,-125.013 965.05,-96.1689"/>
<polygon fill="midnightblue" stroke="midnightblue" points="968.256,-94.7631 961.226,-86.8365 961.779,-97.4169 968.256,-94.7631"/>
</g>
<!-- Node24&#45;&gt;Node11 -->
<g id="edge50" class="edge"><title>Node24&#45;&gt;Node11</title>
<path fill="none" stroke="midnightblue" d="M1222.02,-235.447C1256.86,-222.127 1327,-196.179 1388,-179 1499.69,-147.544 1528.23,-140.105 1643,-123 1872.08,-88.8565 2151.56,-76.7236 2243.81,-73.4855"/>
<polygon fill="midnightblue" stroke="midnightblue" points="2244,-76.9812 2253.88,-73.1419 2243.76,-69.9853 2244,-76.9812"/>
</g>
<!-- Node24&#45;&gt;Node12 -->
<g id="edge48" class="edge"><title>Node24&#45;&gt;Node12</title>
<path fill="none" stroke="midnightblue" d="M1203.98,-235.263C1216.32,-208.185 1253.46,-127.227 1258,-123 1284,-98.7856 1323,-85.6616 1351.11,-78.9147"/>
<polygon fill="midnightblue" stroke="midnightblue" points="1351.94,-82.3154 1360.93,-76.7088 1350.41,-75.4855 1351.94,-82.3154"/>
</g>
<!-- Node24&#45;&gt;Node22 -->
<g id="edge49" class="edge"><title>Node24&#45;&gt;Node22</title>
<path fill="none" stroke="midnightblue" d="M1150.4,-235.444C1086.11,-224.352 975.717,-205.306 920.5,-195.78"/>
<polygon fill="midnightblue" stroke="midnightblue" points="920.988,-192.312 910.539,-194.061 919.798,-199.21 920.988,-192.312"/>
</g>
<!-- Node25 -->
<g id="node25" class="node"><title>Node25</title>
<g id="a_node25"><a xlink:href="serializer_8h.html" target="_top" xlink:title="Serializer extension to support TVM data types Include this file to enable serialization of DLDataTyp...">
<polygon fill="white" stroke="black" points="1081,-179.5 1081,-198.5 1211,-198.5 1211,-179.5 1081,-179.5"/>
<text text-anchor="middle" x="1146" y="-186.5" font-family="Helvetica,sans-Serif" font-size="10.00">tvm/runtime/serializer.h</text>
</a>
</g>
</g>
<!-- Node24&#45;&gt;Node25 -->
<g id="edge43" class="edge"><title>Node24&#45;&gt;Node25</title>
<path fill="none" stroke="midnightblue" d="M1186.21,-235.324C1176.78,-227.576 1164.84,-216.017 1156.24,-206.511"/>
<polygon fill="midnightblue" stroke="midnightblue" points="1158.84,-204.169 1149.69,-198.834 1153.51,-208.713 1158.84,-204.169"/>
</g>
<!-- Node25&#45;&gt;Node5 -->
<g id="edge46" class="edge"><title>Node25&#45;&gt;Node5</title>
<path fill="none" stroke="midnightblue" d="M1131.72,-179.319C1101.33,-160.843 1029.61,-117.249 987.798,-91.83"/>
<polygon fill="midnightblue" stroke="midnightblue" points="989.468,-88.7491 979.105,-86.5453 985.832,-94.7306 989.468,-88.7491"/>
</g>
<!-- Node25&#45;&gt;Node20 -->
<g id="edge44" class="edge"><title>Node25&#45;&gt;Node20</title>
<path fill="none" stroke="midnightblue" d="M1169.93,-179.444C1195.22,-170.399 1235.3,-156.064 1263.68,-145.916"/>
<polygon fill="midnightblue" stroke="midnightblue" points="1264.95,-149.179 1273.19,-142.516 1262.59,-142.588 1264.95,-149.179"/>
</g>
<!-- Node25&#45;&gt;Node24 -->
<g id="edge47" class="edge"><title>Node25&#45;&gt;Node24</title>
<path fill="none" stroke="midnightblue" d="M1159.88,-198.751C1169.27,-206.483 1181.14,-217.967 1189.71,-227.431"/>
<polygon fill="midnightblue" stroke="midnightblue" points="1187.09,-229.753 1196.25,-235.083 1192.41,-225.206 1187.09,-229.753"/>
</g>
<!-- Node26 -->
<g id="node26" class="node"><title>Node26</title>
<polygon fill="white" stroke="#bfbfbf" points="1117,-123.5 1117,-142.5 1211,-142.5 1211,-123.5 1117,-123.5"/>
<text text-anchor="middle" x="1164" y="-130.5" font-family="Helvetica,sans-Serif" font-size="10.00">dmlc/serializer.h</text>
</g>
<!-- Node25&#45;&gt;Node26 -->
<g id="edge45" class="edge"><title>Node25&#45;&gt;Node26</title>
<path fill="none" stroke="midnightblue" d="M1148.97,-179.083C1151.38,-171.849 1154.86,-161.409 1157.87,-152.397"/>
<polygon fill="midnightblue" stroke="midnightblue" points="1161.24,-153.345 1161.08,-142.751 1154.6,-151.131 1161.24,-153.345"/>
</g>
<!-- Node32&#45;&gt;Node3 -->
<g id="edge71" class="edge"><title>Node32&#45;&gt;Node3</title>
<path fill="none" stroke="midnightblue" d="M1030.31,-537.372C1070.53,-503.856 1217.38,-382.934 1272,-358 1398.65,-300.183 1441.36,-317.712 1578,-291 1670.51,-272.915 1710.47,-310.021 1787,-255 1818.16,-232.596 1798.73,-203.827 1828,-179 1847.5,-162.462 1873.39,-151.9 1897.01,-145.201"/>
<polygon fill="midnightblue" stroke="midnightblue" points="1898.2,-148.507 1906.97,-142.561 1896.4,-141.741 1898.2,-148.507"/>
</g>
<!-- Node32&#45;&gt;Node5 -->
<g id="edge70" class="edge"><title>Node32&#45;&gt;Node5</title>
<path fill="none" stroke="midnightblue" d="M960.126,-545.054C850.566,-542.539 622.506,-533.452 551,-501 511.491,-483.069 497.183,-473.84 480,-434 467.147,-404.199 415.293,-435.821 486,-291 502.73,-256.734 518.42,-254.813 551,-235 665.61,-165.305 815.411,-114.285 896.905,-89.4462"/>
<polygon fill="midnightblue" stroke="midnightblue" points="897.938,-92.7905 906.498,-86.5473 895.913,-86.0898 897.938,-92.7905"/>
</g>
<!-- Node32&#45;&gt;Node9 -->
<g id="edge104" class="edge"><title>Node32&#45;&gt;Node9</title>
<path fill="none" stroke="midnightblue" d="M1079.59,-542.498C1181.77,-536.2 1396.95,-521.667 1578,-501 1885.75,-465.871 1970.1,-475.822 2264,-378 2407,-330.405 2438.28,-297.899 2552,-199 2579.77,-174.849 2589.63,-171.433 2613,-143 2626.61,-126.441 2638.99,-105.179 2646.93,-90.3547"/>
<polygon fill="midnightblue" stroke="midnightblue" points="2650.16,-91.7409 2651.68,-81.2568 2643.95,-88.5 2650.16,-91.7409"/>
</g>
<!-- Node32&#45;&gt;Node10 -->
<g id="edge103" class="edge"><title>Node32&#45;&gt;Node10</title>
<path fill="none" stroke="midnightblue" d="M960.277,-544.623C867.105,-541.54 692.306,-531.725 639,-501 474.205,-406.014 401.901,-160.341 384.375,-90.9806"/>
<polygon fill="midnightblue" stroke="midnightblue" points="387.731,-89.9714 381.95,-81.0925 380.932,-91.6383 387.731,-89.9714"/>
</g>
<!-- Node32&#45;&gt;Node13 -->
<g id="edge75" class="edge"><title>Node32&#45;&gt;Node13</title>
<path fill="none" stroke="midnightblue" d="M1000.05,-537.461C983.142,-529.597 958.867,-516.775 941,-501 853.644,-423.871 855.297,-383.178 784,-291 776.64,-281.485 768.253,-270.981 761.426,-262.517"/>
<polygon fill="midnightblue" stroke="midnightblue" points="763.998,-260.131 754.986,-254.56 758.557,-264.535 763.998,-260.131"/>
</g>
<!-- Node32&#45;&gt;Node16 -->
<g id="edge72" class="edge"><title>Node32&#45;&gt;Node16</title>
<path fill="none" stroke="midnightblue" d="M1079.77,-539.544C1273.36,-518.544 1875.69,-452.466 1962,-434 2083.04,-408.103 2141.8,-420.319 2217,-322 2241.52,-289.946 2257.34,-272.722 2243,-235 2238.66,-223.598 2229.97,-213.239 2221.79,-205.343"/>
<polygon fill="midnightblue" stroke="midnightblue" points="2224.04,-202.66 2214.27,-198.573 2219.36,-207.863 2224.04,-202.66"/>
</g>
<!-- Node32&#45;&gt;Node18 -->
<g id="edge73" class="edge"><title>Node32&#45;&gt;Node18</title>
<path fill="none" stroke="midnightblue" d="M1025.59,-537.229C1047.07,-503.525 1124.73,-381.676 1157.38,-330.444"/>
<polygon fill="midnightblue" stroke="midnightblue" points="1160.5,-332.051 1162.93,-321.737 1154.6,-328.289 1160.5,-332.051"/>
</g>
<!-- Node32&#45;&gt;Node22 -->
<g id="edge102" class="edge"><title>Node32&#45;&gt;Node22</title>
<path fill="none" stroke="midnightblue" d="M1016.16,-537.057C1001.04,-501.684 944.555,-367.973 906,-255 900.719,-239.527 895.569,-221.684 891.966,-208.612"/>
<polygon fill="midnightblue" stroke="midnightblue" points="895.33,-207.645 889.334,-198.91 888.574,-209.477 895.33,-207.645"/>
</g>
<!-- Node32&#45;&gt;Node24 -->
<g id="edge74" class="edge"><title>Node32&#45;&gt;Node24</title>
<path fill="none" stroke="midnightblue" d="M1020.54,-537.339C1023.19,-502.176 1037.55,-368.299 1106,-291 1119.56,-275.686 1139.48,-265.121 1157.49,-258.098"/>
<polygon fill="midnightblue" stroke="midnightblue" points="1159.05,-261.257 1167.25,-254.553 1156.66,-254.677 1159.05,-261.257"/>
</g>
<!-- Node32&#45;&gt;Node33 -->
<g id="edge76" class="edge"><title>Node32&#45;&gt;Node33</title>
<path fill="none" stroke="midnightblue" d="M993.207,-537.475C965.514,-528.664 921.529,-514.668 886.648,-503.57"/>
<polygon fill="midnightblue" stroke="midnightblue" points="887.663,-500.22 877.072,-500.523 885.54,-506.89 887.663,-500.22"/>
</g>
<!-- Node32&#45;&gt;Node36 -->
<g id="edge96" class="edge"><title>Node32&#45;&gt;Node36</title>
<path fill="none" stroke="midnightblue" d="M968.226,-537.472C919.382,-529.265 843.874,-516.164 769.784,-501.315"/>
<polygon fill="midnightblue" stroke="midnightblue" points="770.31,-497.851 759.815,-499.305 768.926,-504.713 770.31,-497.851"/>
</g>
<!-- Node33&#45;&gt;Node10 -->
<g id="edge95" class="edge"><title>Node33&#45;&gt;Node10</title>
<path fill="none" stroke="midnightblue" d="M824.438,-470.134C791.245,-415.716 665.064,-220.422 508,-123 477.578,-104.13 438.912,-90.0476 412.078,-81.6137"/>
<polygon fill="midnightblue" stroke="midnightblue" points="413.001,-78.2361 402.414,-78.6597 410.954,-84.9303 413.001,-78.2361"/>
</g>
<!-- Node33&#45;&gt;Node13 -->
<g id="edge77" class="edge"><title>Node33&#45;&gt;Node13</title>
<path fill="none" stroke="midnightblue" d="M827.937,-470.295C813.313,-429.26 771.006,-310.551 754.605,-264.534"/>
<polygon fill="midnightblue" stroke="midnightblue" points="757.842,-263.19 751.188,-254.946 751.248,-265.54 757.842,-263.19"/>
</g>
<!-- Node34 -->
<g id="node34" class="node"><title>Node34</title>
<g id="a_node34"><a xlink:href="functor_8h.html" target="_top" xlink:title="Defines the Functor data structures. ">
<polygon fill="white" stroke="black" points="1671.5,-235.5 1671.5,-254.5 1778.5,-254.5 1778.5,-235.5 1671.5,-235.5"/>
<text text-anchor="middle" x="1725" y="-242.5" font-family="Helvetica,sans-Serif" font-size="10.00">tvm/node/functor.h</text>
</a>
</g>
</g>
<!-- Node33&#45;&gt;Node34 -->
<g id="edge78" class="edge"><title>Node33&#45;&gt;Node34</title>
<path fill="none" stroke="midnightblue" d="M875.104,-470.491C935.581,-450.317 1050.5,-411.791 1148,-378 1257.18,-340.161 1280.71,-318.238 1393,-291 1405.87,-287.878 1568.54,-266.412 1661.3,-254.29"/>
<polygon fill="midnightblue" stroke="midnightblue" points="1661.96,-257.734 1671.42,-252.968 1661.06,-250.793 1661.96,-257.734"/>
</g>
<!-- Node33&#45;&gt;Node35 -->
<g id="edge84" class="edge"><title>Node33&#45;&gt;Node35</title>
<path fill="none" stroke="midnightblue" d="M888.55,-481.385C1067.21,-471.366 1626.82,-439.983 1824.22,-428.913"/>
<polygon fill="midnightblue" stroke="midnightblue" points="1824.67,-432.393 1834.46,-428.339 1824.28,-425.404 1824.67,-432.393"/>
</g>
<!-- Node34&#45;&gt;Node3 -->
<g id="edge80" class="edge"><title>Node34&#45;&gt;Node3</title>
<path fill="none" stroke="midnightblue" d="M1731.79,-235.444C1743.31,-221.52 1768.05,-194.007 1795,-179 1825.03,-162.28 1861.65,-151.461 1892.67,-144.634"/>
<polygon fill="midnightblue" stroke="midnightblue" points="1893.47,-148.044 1902.53,-142.555 1892.02,-141.194 1893.47,-148.044"/>
</g>
<!-- Node34&#45;&gt;Node4 -->
<g id="edge79" class="edge"><title>Node34&#45;&gt;Node4</title>
<path fill="none" stroke="midnightblue" d="M1714.97,-235.465C1705.39,-226.938 1690.96,-213.101 1681,-199 1655.94,-163.515 1635.81,-116.372 1625.83,-90.8324"/>
<polygon fill="midnightblue" stroke="midnightblue" points="1629.03,-89.3988 1622.19,-81.3064 1622.49,-91.897 1629.03,-89.3988"/>
</g>
<!-- Node34&#45;&gt;Node9 -->
<g id="edge82" class="edge"><title>Node34&#45;&gt;Node9</title>
<path fill="none" stroke="midnightblue" d="M1778.69,-243.839C1877.79,-242.611 2095.7,-235.552 2275,-199 2292.67,-195.398 2530.85,-114.92 2621.4,-84.2377"/>
<polygon fill="midnightblue" stroke="midnightblue" points="2622.59,-87.5286 2630.94,-81.0037 2620.34,-80.899 2622.59,-87.5286"/>
</g>
<!-- Node34&#45;&gt;Node11 -->
<g id="edge83" class="edge"><title>Node34&#45;&gt;Node11</title>
<path fill="none" stroke="midnightblue" d="M1728.21,-235.269C1733.64,-221.589 1745.84,-195.018 1764,-179 1810.26,-138.192 1831.6,-139.634 1891,-123 2018.58,-87.2754 2177.24,-76.6274 2243.57,-73.6175"/>
<polygon fill="midnightblue" stroke="midnightblue" points="2243.93,-77.1056 2253.77,-73.1828 2243.63,-70.112 2243.93,-77.1056"/>
</g>
<!-- Node34&#45;&gt;Node22 -->
<g id="edge81" class="edge"><title>Node34&#45;&gt;Node22</title>
<path fill="none" stroke="midnightblue" d="M1671.3,-240.54C1512.84,-230.329 1050.18,-200.515 920.906,-192.185"/>
<polygon fill="midnightblue" stroke="midnightblue" points="921.012,-188.685 910.808,-191.534 920.562,-195.67 921.012,-188.685"/>
</g>
<!-- Node35&#45;&gt;Node3 -->
<g id="edge85" class="edge"><title>Node35&#45;&gt;Node3</title>
<path fill="none" stroke="midnightblue" d="M1889.48,-414.22C1878.89,-392.369 1854.76,-334.194 1874,-291 1883.73,-269.151 1896.44,-271.234 1914,-255 1940.55,-230.461 1958.73,-232.218 1973,-199 1979.54,-183.787 1974.35,-165.215 1968.53,-151.825"/>
<polygon fill="midnightblue" stroke="midnightblue" points="1971.64,-150.217 1964.14,-142.737 1965.34,-153.264 1971.64,-150.217"/>
</g>
<!-- Node35&#45;&gt;Node9 -->
<g id="edge89" class="edge"><title>Node35&#45;&gt;Node9</title>
<path fill="none" stroke="midnightblue" d="M1953.55,-420.323C2020.53,-416.07 2131.96,-405.234 2224,-378 2414.19,-321.725 2590.87,-143.056 2641.53,-88.485"/>
<polygon fill="midnightblue" stroke="midnightblue" points="2644.13,-90.8265 2648.32,-81.0952 2638.98,-86.0899 2644.13,-90.8265"/>
</g>
<!-- Node35&#45;&gt;Node10 -->
<g id="edge94" class="edge"><title>Node35&#45;&gt;Node10</title>
<path fill="none" stroke="midnightblue" d="M1834.39,-419.874C1732.69,-414.158 1519.29,-400.496 1340,-378 1192.83,-359.534 1152.56,-366.294 1011,-322 1007.89,-321.027 589.073,-124.084 586,-123 525.944,-101.813 453.015,-86.2046 412.016,-78.3071"/>
<polygon fill="midnightblue" stroke="midnightblue" points="412.541,-74.8444 402.064,-76.4214 411.237,-81.722 412.541,-74.8444"/>
</g>
<!-- Node35&#45;&gt;Node11 -->
<g id="edge93" class="edge"><title>Node35&#45;&gt;Node11</title>
<path fill="none" stroke="midnightblue" d="M1953.52,-420.592C2072.36,-412.044 2335.18,-373.365 2423,-199 2434.49,-176.194 2409.77,-129.043 2404,-123 2377.96,-95.7359 2335.45,-82.9263 2306.39,-77.092"/>
<polygon fill="midnightblue" stroke="midnightblue" points="2306.82,-73.6122 2296.35,-75.2442 2305.56,-80.4966 2306.82,-73.6122"/>
</g>
<!-- Node35&#45;&gt;Node15 -->
<g id="edge88" class="edge"><title>Node35&#45;&gt;Node15</title>
<path fill="none" stroke="midnightblue" d="M1916.02,-414.444C1939.1,-405.478 1975.56,-391.314 2001.64,-381.183"/>
<polygon fill="midnightblue" stroke="midnightblue" points="2003.02,-384.4 2011.08,-377.516 2000.49,-377.875 2003.02,-384.4"/>
</g>
<!-- Node35&#45;&gt;Node16 -->
<g id="edge86" class="edge"><title>Node35&#45;&gt;Node16</title>
<path fill="none" stroke="midnightblue" d="M1953.89,-418.612C1998.35,-413.45 2059.43,-402.25 2108,-378 2176.33,-343.886 2201.95,-326.793 2228,-255 2233.91,-238.721 2225.38,-220.31 2216.72,-207.249"/>
<polygon fill="midnightblue" stroke="midnightblue" points="2219.29,-204.838 2210.59,-198.791 2213.62,-208.944 2219.29,-204.838"/>
</g>
<!-- Node35&#45;&gt;Node18 -->
<g id="edge87" class="edge"><title>Node35&#45;&gt;Node18</title>
<path fill="none" stroke="midnightblue" d="M1840.62,-414.46C1711.11,-393.743 1380.49,-340.852 1238.47,-318.133"/>
<polygon fill="midnightblue" stroke="midnightblue" points="1239,-314.674 1228.57,-316.55 1237.9,-321.586 1239,-314.674"/>
</g>
<!-- Node35&#45;&gt;Node22 -->
<g id="edge90" class="edge"><title>Node35&#45;&gt;Node22</title>
<path fill="none" stroke="midnightblue" d="M1834.46,-417.12C1754.93,-409.109 1609.69,-393.93 1486,-378 1464.84,-375.274 1126.09,-329.204 1106,-322 1025.49,-293.123 942.116,-232.943 905.794,-204.935"/>
<polygon fill="midnightblue" stroke="midnightblue" points="907.641,-201.937 897.604,-198.547 903.336,-207.457 907.641,-201.937"/>
</g>
<!-- Node35&#45;&gt;Node23 -->
<g id="edge92" class="edge"><title>Node35&#45;&gt;Node23</title>
<path fill="none" stroke="midnightblue" d="M1877.67,-414.387C1865.04,-406.72 1848.5,-394.213 1841,-378 1824.76,-342.909 1822.47,-324.938 1841,-291 1855.18,-265.03 1882.82,-280.97 1897,-255 1905,-240.351 1899.76,-221.438 1893.72,-207.794"/>
<polygon fill="midnightblue" stroke="midnightblue" points="1896.72,-205.959 1889.15,-198.545 1890.44,-209.061 1896.72,-205.959"/>
</g>
<!-- Node35&#45;&gt;Node31 -->
<g id="edge91" class="edge"><title>Node35&#45;&gt;Node31</title>
<path fill="none" stroke="midnightblue" d="M1896.1,-414.319C1900.62,-395.673 1911.35,-351.443 1917.48,-326.132"/>
<polygon fill="midnightblue" stroke="midnightblue" points="1920.92,-326.825 1919.87,-316.282 1914.11,-325.176 1920.92,-326.825"/>
</g>
<!-- Node36&#45;&gt;Node10 -->
<g id="edge100" class="edge"><title>Node36&#45;&gt;Node10</title>
<path fill="none" stroke="midnightblue" d="M687.529,-470.492C648.197,-436.474 547.083,-345.616 480,-255 438.878,-199.452 403.374,-125.015 388.054,-90.9362"/>
<polygon fill="midnightblue" stroke="midnightblue" points="391.063,-89.0863 383.808,-81.3649 384.664,-91.9251 391.063,-89.0863"/>
</g>
<!-- Node36&#45;&gt;Node13 -->
<g id="edge97" class="edge"><title>Node36&#45;&gt;Node13</title>
<path fill="none" stroke="midnightblue" d="M706.621,-470.295C714.175,-429.346 735.999,-311.051 744.527,-264.826"/>
<polygon fill="midnightblue" stroke="midnightblue" points="747.977,-265.415 746.35,-254.946 741.093,-264.145 747.977,-265.415"/>
</g>
<!-- Node36&#45;&gt;Node27 -->
<g id="edge101" class="edge"><title>Node36&#45;&gt;Node27</title>
<path fill="none" stroke="midnightblue" d="M697.329,-470.295C678.018,-429.173 622.078,-310.05 600.567,-264.244"/>
<polygon fill="midnightblue" stroke="midnightblue" points="603.62,-262.51 596.201,-254.946 597.284,-265.485 603.62,-262.51"/>
</g>
<!-- Node36&#45;&gt;Node34 -->
<g id="edge98" class="edge"><title>Node36&#45;&gt;Node34</title>
<path fill="none" stroke="midnightblue" d="M755.788,-470.434C871.603,-438.701 1148.32,-361.258 1237,-322 1261.6,-311.108 1263.44,-299.408 1289,-291 1444.27,-239.923 1492.59,-273.424 1655,-255 1656.96,-254.777 1658.96,-254.547 1660.97,-254.311"/>
<polygon fill="midnightblue" stroke="midnightblue" points="1661.62,-257.758 1671.13,-253.09 1660.79,-250.807 1661.62,-257.758"/>
</g>
<!-- Node36&#45;&gt;Node35 -->
<g id="edge99" class="edge"><title>Node36&#45;&gt;Node35</title>
<path fill="none" stroke="midnightblue" d="M759.739,-471.241C762.524,-470.777 765.289,-470.358 768,-470 973.74,-442.815 1611.78,-429.783 1824.32,-426.116"/>
<polygon fill="midnightblue" stroke="midnightblue" points="1824.48,-429.614 1834.41,-425.943 1824.36,-422.615 1824.48,-429.614"/>
</g>
<!-- Node37&#45;&gt;Node34 -->
<g id="edge106" class="edge"><title>Node37&#45;&gt;Node34</title>
<path fill="none" stroke="midnightblue" d="M1910.43,-537.452C1902.51,-528.457 1889.74,-513.85 1879,-501 1854.47,-471.656 1846.12,-465.884 1825,-434 1793.81,-386.923 1791.48,-371.875 1765,-322 1754.45,-302.123 1742.43,-279.265 1734.35,-263.852"/>
<polygon fill="midnightblue" stroke="midnightblue" points="1737.4,-262.136 1729.66,-254.903 1731.2,-265.386 1737.4,-262.136"/>
</g>
<!-- Node38 -->
<g id="node38" class="node"><title>Node38</title>
<polygon fill="white" stroke="#bfbfbf" points="1888.5,-476 1888.5,-495 1947.5,-495 1947.5,-476 1888.5,-476"/>
<text text-anchor="middle" x="1918" y="-483" font-family="Helvetica,sans-Serif" font-size="10.00">iostream</text>
</g>
<!-- Node37&#45;&gt;Node38 -->
<g id="edge107" class="edge"><title>Node37&#45;&gt;Node38</title>
<path fill="none" stroke="midnightblue" d="M1918,-537.475C1918,-529.08 1918,-515.981 1918,-505.163"/>
<polygon fill="midnightblue" stroke="midnightblue" points="1921.5,-505.009 1918,-495.009 1914.5,-505.009 1921.5,-505.009"/>
</g>
<!-- Node39&#45;&gt;Node3 -->
<g id="edge117" class="edge"><title>Node39&#45;&gt;Node3</title>
<path fill="none" stroke="midnightblue" d="M1963.09,-654.788C2095.88,-643.618 2513,-604.07 2513,-548 2513,-548 2513,-548 2513,-423 2513,-271.51 2410.09,-247.56 2275,-179 2233.03,-157.699 2107.62,-144.853 2027.98,-138.62"/>
<polygon fill="midnightblue" stroke="midnightblue" points="2027.78,-135.094 2017.55,-137.82 2027.25,-142.074 2027.78,-135.094"/>
</g>
<!-- Node39&#45;&gt;Node10 -->
<g id="edge119" class="edge"><title>Node39&#45;&gt;Node10</title>
<path fill="none" stroke="midnightblue" d="M1882.98,-656.258C1715.94,-648.961 1078.81,-620.866 989,-613 792.619,-595.799 733.683,-625.946 549,-557 506.965,-541.307 493.316,-535.806 465,-501 361.605,-373.905 372.183,-156.174 378.008,-91.2812"/>
<polygon fill="midnightblue" stroke="midnightblue" points="381.494,-91.5902 378.98,-81.2981 374.527,-90.9119 381.494,-91.5902"/>
</g>
<!-- Node39&#45;&gt;Node14 -->
<g id="edge118" class="edge"><title>Node39&#45;&gt;Node14</title>
<path fill="none" stroke="midnightblue" d="M1923,-649.083C1923,-642.006 1923,-631.861 1923,-622.986"/>
<polygon fill="midnightblue" stroke="midnightblue" points="1926.5,-622.751 1923,-612.751 1919.5,-622.751 1926.5,-622.751"/>
</g>
<!-- Node40&#45;&gt;Node2 -->
<g id="edge122" class="edge"><title>Node40&#45;&gt;Node2</title>
<path fill="none" stroke="midnightblue" d="M1749.22,-931.363C1791.69,-924.207 1850.1,-911.322 1864,-893 1908.75,-834.033 1810.9,-760.512 1764.11,-730.137"/>
<polygon fill="midnightblue" stroke="midnightblue" points="1765.81,-727.068 1755.49,-724.654 1762.05,-732.974 1765.81,-727.068"/>
</g>
<!-- Node40&#45;&gt;Node10 -->
<g id="edge156" class="edge"><title>Node40&#45;&gt;Node10</title>
<path fill="none" stroke="midnightblue" d="M1656.89,-937.385C1450.94,-934.497 613.978,-921.219 353,-893 194.398,-875.851 0,-987.526 0,-828 0,-828 0,-828 0,-188 0,-153.844 12.392,-141.66 41,-123 91.2339,-90.2339 272.559,-77.7573 347.372,-73.9337"/>
<polygon fill="midnightblue" stroke="midnightblue" points="347.793,-77.4174 357.609,-73.431 347.449,-70.4258 347.793,-77.4174"/>
</g>
<!-- Node40&#45;&gt;Node22 -->
<g id="edge157" class="edge"><title>Node40&#45;&gt;Node22</title>
<path fill="none" stroke="midnightblue" d="M1656.71,-937.542C1418.51,-934.832 337.129,-918.112 214,-837 163.539,-803.758 152,-776.426 152,-716 152,-716 152,-716 152,-484.5 152,-288.733 331.87,-304.198 515,-235 576.536,-211.748 773.006,-197.15 852.813,-192.044"/>
<polygon fill="midnightblue" stroke="midnightblue" points="853.513,-195.507 863.274,-191.387 853.074,-188.521 853.513,-195.507"/>
</g>
<!-- Node40&#45;&gt;Node23 -->
<g id="edge158" class="edge"><title>Node40&#45;&gt;Node23</title>
<path fill="none" stroke="midnightblue" d="M1687.47,-929.465C1674.56,-921.603 1656.65,-908.783 1646,-893 1629.17,-868.048 1627,-858.098 1627,-828 1627,-828 1627,-828 1627,-484.5 1627,-371.479 1710.42,-369.221 1792,-291 1810.74,-273.032 1820.09,-273.794 1838,-255 1851.97,-240.343 1865.01,-221.183 1873.61,-207.469"/>
<polygon fill="midnightblue" stroke="midnightblue" points="1876.81,-208.945 1879.04,-198.588 1870.84,-205.294 1876.81,-208.945"/>
</g>
<!-- Node41 -->
<g id="node41" class="node"><title>Node41</title>
<g id="a_node41"><a xlink:href="ir_2expr_8h.html" target="_top" xlink:title="Base expr nodes in TVM. ">
<polygon fill="white" stroke="black" points="2205.5,-761.5 2205.5,-780.5 2282.5,-780.5 2282.5,-761.5 2205.5,-761.5"/>
<text text-anchor="middle" x="2244" y="-768.5" font-family="Helvetica,sans-Serif" font-size="10.00">tvm/ir/expr.h</text>
</a>
</g>
</g>
<!-- Node40&#45;&gt;Node41 -->
<g id="edge123" class="edge"><title>Node40&#45;&gt;Node41</title>
<path fill="none" stroke="midnightblue" d="M1749.33,-930.758C1795.33,-923.105 1867.65,-909.819 1929,-893 2001.26,-873.19 2018.06,-863.863 2088,-837 2132.73,-819.818 2183.88,-798.103 2215.06,-784.633"/>
<polygon fill="midnightblue" stroke="midnightblue" points="2216.66,-787.753 2224.44,-780.565 2213.87,-781.33 2216.66,-787.753"/>
</g>
<!-- Node43 -->
<g id="node43" class="node"><title>Node43</title>
<g id="a_node43"><a xlink:href="ir_2function_8h.html" target="_top" xlink:title="Function nodes. ">
<polygon fill="white" stroke="black" points="1655.5,-873.5 1655.5,-892.5 1750.5,-892.5 1750.5,-873.5 1655.5,-873.5"/>
<text text-anchor="middle" x="1703" y="-880.5" font-family="Helvetica,sans-Serif" font-size="10.00">tvm/ir/function.h</text>
</a>
</g>
</g>
<!-- Node40&#45;&gt;Node43 -->
<g id="edge133" class="edge"><title>Node40&#45;&gt;Node43</title>
<path fill="none" stroke="midnightblue" d="M1703,-929.083C1703,-922.006 1703,-911.861 1703,-902.986"/>
<polygon fill="midnightblue" stroke="midnightblue" points="1706.5,-902.751 1703,-892.751 1699.5,-902.751 1706.5,-902.751"/>
</g>
<!-- Node46 -->
<g id="node46" class="node"><title>Node46</title>
<g id="a_node46"><a xlink:href="ir_2adt_8h.html" target="_top" xlink:title="Algebraic data type definitions. ">
<polygon fill="white" stroke="black" points="1955,-817.5 1955,-836.5 2027,-836.5 2027,-817.5 1955,-817.5"/>
<text text-anchor="middle" x="1991" y="-824.5" font-family="Helvetica,sans-Serif" font-size="10.00">tvm/ir/adt.h</text>
</a>
</g>
</g>
<!-- Node40&#45;&gt;Node46 -->
<g id="edge149" class="edge"><title>Node40&#45;&gt;Node46</title>
<path fill="none" stroke="midnightblue" d="M1749.24,-932.28C1789.56,-926.137 1848.94,-914.259 1897,-893 1926,-880.171 1955.44,-858.021 1973.45,-843.192"/>
<polygon fill="midnightblue" stroke="midnightblue" points="1975.93,-845.686 1981.33,-836.573 1971.42,-840.327 1975.93,-845.686"/>
</g>
<!-- Node47 -->
<g id="node47" class="node"><title>Node47</title>
<polygon fill="white" stroke="#bfbfbf" points="1769,-873.5 1769,-892.5 1855,-892.5 1855,-873.5 1769,-873.5"/>
<text text-anchor="middle" x="1812" y="-880.5" font-family="Helvetica,sans-Serif" font-size="10.00">unordered_set</text>
</g>
<!-- Node40&#45;&gt;Node47 -->
<g id="edge159" class="edge"><title>Node40&#45;&gt;Node47</title>
<path fill="none" stroke="midnightblue" d="M1720.51,-929.324C1738.07,-920.625 1765.33,-907.12 1785.53,-897.113"/>
<polygon fill="midnightblue" stroke="midnightblue" points="1787.12,-900.23 1794.53,-892.655 1784.02,-893.958 1787.12,-900.23"/>
</g>
<!-- Node41&#45;&gt;Node2 -->
<g id="edge128" class="edge"><title>Node41&#45;&gt;Node2</title>
<path fill="none" stroke="midnightblue" d="M2205.37,-767.035C2127.41,-760.853 1945.73,-745.445 1794,-725 1792.7,-724.825 1791.38,-724.642 1790.05,-724.452"/>
<polygon fill="midnightblue" stroke="midnightblue" points="1790.15,-720.927 1779.74,-722.894 1789.11,-727.849 1790.15,-720.927"/>
</g>
<!-- Node41&#45;&gt;Node3 -->
<g id="edge124" class="edge"><title>Node41&#45;&gt;Node3</title>
<path fill="none" stroke="midnightblue" d="M2282.92,-770.968C2341.5,-770.946 2454.59,-765.078 2540,-725 2697.9,-650.905 2723.5,-526.647 2679,-358 2662.61,-295.866 2655.56,-271.972 2603,-235 2562.09,-206.223 2434.22,-187.873 2385,-179 2259.99,-156.465 2112.15,-143.969 2027.6,-138.147"/>
<polygon fill="midnightblue" stroke="midnightblue" points="2027.82,-134.654 2017.61,-137.47 2027.35,-141.638 2027.82,-134.654"/>
</g>
<!-- Node41&#45;&gt;Node9 -->
<g id="edge132" class="edge"><title>Node41&#45;&gt;Node9</title>
<path fill="none" stroke="midnightblue" d="M2282.83,-769.105C2396.57,-766.143 2723.32,-755.073 2760,-725 2783.28,-705.918 2779,-690.098 2779,-660 2779,-660 2779,-660 2779,-602 2779,-396.385 2689.91,-157.233 2663.37,-90.5557"/>
<polygon fill="midnightblue" stroke="midnightblue" points="2666.53,-89.0276 2659.55,-81.0589 2660.04,-91.6425 2666.53,-89.0276"/>
</g>
<!-- Node41&#45;&gt;Node10 -->
<g id="edge129" class="edge"><title>Node41&#45;&gt;Node10</title>
<path fill="none" stroke="midnightblue" d="M2205.36,-763.698C2126.9,-751.076 1943.16,-722.416 1788,-705 1291.66,-649.29 1157.31,-713.134 668,-613 590.892,-597.221 574.154,-583.376 500,-557 333.368,-497.73 190,-484.359 190,-307.5 190,-307.5 190,-307.5 190,-188 190,-115.077 293.459,-86.8841 347.688,-77.1152"/>
<polygon fill="midnightblue" stroke="midnightblue" points="348.557,-80.5181 357.833,-75.3992 347.389,-73.6161 348.557,-80.5181"/>
</g>
<!-- Node41&#45;&gt;Node14 -->
<g id="edge125" class="edge"><title>Node41&#45;&gt;Node14</title>
<path fill="none" stroke="midnightblue" d="M2227.19,-761.309C2174.43,-734.024 2011.85,-649.947 1948.57,-617.224"/>
<polygon fill="midnightblue" stroke="midnightblue" points="1950.13,-614.09 1939.64,-612.605 1946.91,-620.308 1950.13,-614.09"/>
</g>
<!-- Node41&#45;&gt;Node29 -->
<g id="edge131" class="edge"><title>Node41&#45;&gt;Node29</title>
<path fill="none" stroke="midnightblue" d="M2282.57,-765.974C2372.6,-755.511 2589,-723.731 2589,-660 2589,-660 2589,-660 2589,-367 2589,-291.813 2321.81,-258.248 2229.18,-248.87"/>
<polygon fill="midnightblue" stroke="midnightblue" points="2229.32,-245.367 2219.02,-247.868 2228.63,-252.333 2229.32,-245.367"/>
</g>
<!-- Node41&#45;&gt;Node35 -->
<g id="edge126" class="edge"><title>Node41&#45;&gt;Node35</title>
<path fill="none" stroke="midnightblue" d="M2280.34,-761.389C2326.15,-748.118 2399,-717.911 2399,-660 2399,-660 2399,-660 2399,-546 2399,-457.606 2102.7,-433.634 1964.02,-427.255"/>
<polygon fill="midnightblue" stroke="midnightblue" points="1964.06,-423.754 1953.91,-426.809 1963.75,-430.747 1964.06,-423.754"/>
</g>
<!-- Node41&#45;&gt;Node39 -->
<g id="edge127" class="edge"><title>Node41&#45;&gt;Node39</title>
<path fill="none" stroke="midnightblue" d="M2219.08,-761.46C2162.31,-742.006 2023.25,-694.355 1957.95,-671.977"/>
<polygon fill="midnightblue" stroke="midnightblue" points="1958.72,-668.541 1948.13,-668.61 1956.45,-675.163 1958.72,-668.541"/>
</g>
<!-- Node42 -->
<g id="node42" class="node"><title>Node42</title>
<polygon fill="white" stroke="#bfbfbf" points="2689,-705.5 2689,-724.5 2751,-724.5 2751,-705.5 2689,-705.5"/>
<text text-anchor="middle" x="2720" y="-712.5" font-family="Helvetica,sans-Serif" font-size="10.00">algorithm</text>
</g>
<!-- Node41&#45;&gt;Node42 -->
<g id="edge130" class="edge"><title>Node41&#45;&gt;Node42</title>
<path fill="none" stroke="midnightblue" d="M2282.79,-767.171C2358.48,-761.382 2531.07,-746.857 2675,-725 2676.1,-724.833 2677.22,-724.656 2678.35,-724.473"/>
<polygon fill="midnightblue" stroke="midnightblue" points="2679.35,-727.85 2688.59,-722.67 2678.14,-720.956 2679.35,-727.85"/>
</g>
<!-- Node43&#45;&gt;Node9 -->
<g id="edge147" class="edge"><title>Node43&#45;&gt;Node9</title>
<path fill="none" stroke="midnightblue" d="M1750.55,-874.228C1753.74,-873.787 1756.92,-873.373 1760,-873 2243.09,-814.571 2366.73,-828.649 2851,-781 2886.61,-777.496 2931,-807.78 2931,-772 2931,-772 2931,-772 2931,-188 2931,-89.3335 2778.66,-73.5567 2700.75,-71.9397"/>
<polygon fill="midnightblue" stroke="midnightblue" points="2700.32,-68.4337 2690.27,-71.7984 2700.22,-75.4331 2700.32,-68.4337"/>
</g>
<!-- Node43&#45;&gt;Node10 -->
<g id="edge148" class="edge"><title>Node43&#45;&gt;Node10</title>
<path fill="none" stroke="midnightblue" d="M1655.26,-881.075C1425.09,-876.273 436.235,-851.647 320,-781 156.083,-681.372 76,-616.819 76,-425 76,-425 76,-425 76,-188 76,-151.822 94.3514,-142.223 125,-123 195.496,-78.7856 296.727,-72.0647 347.848,-71.7646"/>
<polygon fill="midnightblue" stroke="midnightblue" points="347.96,-75.2647 357.967,-71.7868 347.975,-68.2647 347.96,-75.2647"/>
</g>
<!-- Node43&#45;&gt;Node41 -->
<g id="edge134" class="edge"><title>Node43&#45;&gt;Node41</title>
<path fill="none" stroke="midnightblue" d="M1750.57,-874.391C1753.76,-873.911 1756.93,-873.443 1760,-873 1882.44,-855.352 1915.18,-863.549 2036,-837 2099.36,-823.078 2171.16,-798.645 2211.67,-784.027"/>
<polygon fill="midnightblue" stroke="midnightblue" points="2213.07,-787.242 2221.27,-780.535 2210.67,-780.664 2213.07,-787.242"/>
</g>
<!-- Node43&#45;&gt;Node44 -->
<g id="edge135" class="edge"><title>Node43&#45;&gt;Node44</title>
<path fill="none" stroke="midnightblue" d="M1655.34,-879.285C1494.05,-870.098 969.636,-840.226 804.956,-830.846"/>
<polygon fill="midnightblue" stroke="midnightblue" points="804.819,-827.332 794.636,-830.258 804.421,-834.321 804.819,-827.332"/>
</g>
<!-- Node44&#45;&gt;Node9 -->
<g id="edge144" class="edge"><title>Node44&#45;&gt;Node9</title>
<path fill="none" stroke="midnightblue" d="M794.764,-825.576C1047.52,-822.808 2425.52,-806.627 2611,-781 2746.1,-762.334 2893,-796.384 2893,-660 2893,-660 2893,-660 2893,-188 2893,-103.212 2768.91,-80.6536 2700.31,-74.661"/>
<polygon fill="midnightblue" stroke="midnightblue" points="2700.45,-71.1615 2690.21,-73.8629 2699.9,-78.1398 2700.45,-71.1615"/>
</g>
<!-- Node44&#45;&gt;Node10 -->
<g id="edge145" class="edge"><title>Node44&#45;&gt;Node10</title>
<path fill="none" stroke="midnightblue" d="M715.155,-825.003C621.561,-822.166 390.29,-812.124 320,-781 135.436,-699.277 38,-626.848 38,-425 38,-425 38,-425 38,-188 38,-157.205 38.1963,-142.538 62,-123 105.257,-87.4951 275.372,-76.637 347.45,-73.5909"/>
<polygon fill="midnightblue" stroke="midnightblue" points="347.891,-77.0762 357.744,-73.1813 347.613,-70.0817 347.891,-77.0762"/>
</g>
<!-- Node44&#45;&gt;Node11 -->
<g id="edge146" class="edge"><title>Node44&#45;&gt;Node11</title>
<path fill="none" stroke="midnightblue" d="M794.806,-826.027C1081.27,-825.965 2817,-821.252 2817,-716 2817,-716 2817,-716 2817,-658 2817,-579.929 2855,-564.571 2855,-486.5 2855,-486.5 2855,-486.5 2855,-367 2855,-118.704 2427.18,-79.6761 2306.41,-73.6053"/>
<polygon fill="midnightblue" stroke="midnightblue" points="2306.48,-70.1051 2296.33,-73.1408 2306.16,-77.0977 2306.48,-70.1051"/>
</g>
<!-- Node44&#45;&gt;Node18 -->
<g id="edge140" class="edge"><title>Node44&#45;&gt;Node18</title>
<path fill="none" stroke="midnightblue" d="M755,-817.442C755,-798.936 755,-753.812 755,-716 755,-716 755,-716 755,-658 755,-580.671 1032.5,-610.846 1088,-557 1152.35,-494.57 1167.4,-381.319 1170.92,-331.788"/>
<polygon fill="midnightblue" stroke="midnightblue" points="1174.42,-331.888 1171.54,-321.693 1167.44,-331.46 1174.42,-331.888"/>
</g>
<!-- Node44&#45;&gt;Node22 -->
<g id="edge142" class="edge"><title>Node44&#45;&gt;Node22</title>
<path fill="none" stroke="midnightblue" d="M715.409,-822.993C618.081,-814.518 375,-786.312 375,-716 375,-716 375,-716 375,-658 375,-454.376 373.599,-334.957 551,-235 602.193,-206.155 777.947,-194.93 852.801,-191.387"/>
<polygon fill="midnightblue" stroke="midnightblue" points="853.256,-194.87 863.086,-190.919 852.937,-187.878 853.256,-194.87"/>
</g>
<!-- Node44&#45;&gt;Node23 -->
<g id="edge141" class="edge"><title>Node44&#45;&gt;Node23</title>
<path fill="none" stroke="midnightblue" d="M772.576,-817.439C819.99,-794.265 954.341,-728.074 1064,-669 1362.62,-508.13 1423.63,-442.711 1727,-291 1762.96,-273.016 1776.04,-276.528 1810,-255 1832.21,-240.918 1854.45,-220.293 1868.66,-206.071"/>
<polygon fill="midnightblue" stroke="midnightblue" points="1871.54,-208.129 1876.04,-198.535 1866.54,-203.231 1871.54,-208.129"/>
</g>
<!-- Node44&#45;&gt;Node27 -->
<g id="edge143" class="edge"><title>Node44&#45;&gt;Node27</title>
<path fill="none" stroke="midnightblue" d="M715.211,-824.871C627.936,-821.849 422.572,-811.611 361,-781 325.251,-763.227 299,-755.923 299,-716 299,-716 299,-716 299,-602 299,-514.668 511.868,-317.574 574.725,-261.278"/>
<polygon fill="midnightblue" stroke="midnightblue" points="577.115,-263.836 582.251,-254.57 572.457,-258.611 577.115,-263.836"/>
</g>
<!-- Node44&#45;&gt;Node33 -->
<g id="edge138" class="edge"><title>Node44&#45;&gt;Node33</title>
<path fill="none" stroke="midnightblue" d="M715.178,-826.364C658.396,-825.029 563.186,-814.926 584,-761 628.864,-644.766 748.323,-547.316 803.86,-506.738"/>
<polygon fill="midnightblue" stroke="midnightblue" points="806.141,-509.408 812.203,-500.719 802.045,-503.731 806.141,-509.408"/>
</g>
<!-- Node44&#45;&gt;Node36 -->
<g id="edge139" class="edge"><title>Node44&#45;&gt;Node36</title>
<path fill="none" stroke="midnightblue" d="M715.178,-821.762C662.954,-815.455 575.124,-802.035 551,-781 527.789,-760.761 527,-746.795 527,-716 527,-716 527,-716 527,-602 527,-546.674 588.404,-516.453 638.878,-500.956"/>
<polygon fill="midnightblue" stroke="midnightblue" points="639.87,-504.313 648.482,-498.141 637.901,-497.596 639.87,-504.313"/>
</g>
<!-- Node44&#45;&gt;Node41 -->
<g id="edge137" class="edge"><title>Node44&#45;&gt;Node41</title>
<path fill="none" stroke="midnightblue" d="M794.827,-824.556C1003.21,-816.998 1967.14,-782.041 2195.43,-773.761"/>
<polygon fill="midnightblue" stroke="midnightblue" points="2195.56,-777.259 2205.43,-773.399 2195.31,-770.264 2195.56,-777.259"/>
</g>
<!-- Node45 -->
<g id="node45" class="node"><title>Node45</title>
<polygon fill="white" stroke="#bfbfbf" points="593.5,-761.5 593.5,-780.5 688.5,-780.5 688.5,-761.5 593.5,-761.5"/>
<text text-anchor="middle" x="641" y="-768.5" font-family="Helvetica,sans-Serif" font-size="10.00">dmlc/common.h</text>
</g>
<!-- Node44&#45;&gt;Node45 -->
<g id="edge136" class="edge"><title>Node44&#45;&gt;Node45</title>
<path fill="none" stroke="midnightblue" d="M736.936,-817.444C718.425,-808.675 689.419,-794.935 668.145,-784.858"/>
<polygon fill="midnightblue" stroke="midnightblue" points="669.515,-781.634 658.979,-780.516 666.518,-787.96 669.515,-781.634"/>
</g>
<!-- Node46&#45;&gt;Node2 -->
<g id="edge154" class="edge"><title>Node46&#45;&gt;Node2</title>
<path fill="none" stroke="midnightblue" d="M1980.97,-817.404C1964.49,-803.671 1930.16,-776.731 1897,-761 1862.64,-744.703 1821.18,-733.086 1789.63,-725.742"/>
<polygon fill="midnightblue" stroke="midnightblue" points="1790.29,-722.302 1779.76,-723.507 1788.74,-729.129 1790.29,-722.302"/>
</g>
<!-- Node46&#45;&gt;Node3 -->
<g id="edge150" class="edge"><title>Node46&#45;&gt;Node3</title>
<path fill="none" stroke="midnightblue" d="M2027.08,-825.436C2184.31,-822.805 2802.95,-810.595 2831,-781 2854.24,-756.485 2840.68,-737.361 2831,-705 2765.43,-485.792 2713.34,-420.916 2525,-291 2435.98,-229.599 2412.5,-210.335 2309,-179 2214.13,-150.278 2099.38,-139.886 2027.77,-136.128"/>
<polygon fill="midnightblue" stroke="midnightblue" points="2027.68,-132.62 2017.52,-135.62 2027.34,-139.611 2027.68,-132.62"/>
</g>
<!-- Node46&#45;&gt;Node10 -->
<g id="edge155" class="edge"><title>Node46&#45;&gt;Node10</title>
<path fill="none" stroke="midnightblue" d="M1954.77,-826.253C1694,-827.134 114,-816.327 114,-425 114,-425 114,-425 114,-188 114,-87.1962 276.714,-73.4209 347.619,-72.2036"/>
<polygon fill="midnightblue" stroke="midnightblue" points="347.813,-75.702 357.779,-72.1054 347.745,-68.7024 347.813,-75.702"/>
</g>
<!-- Node46&#45;&gt;Node14 -->
<g id="edge151" class="edge"><title>Node46&#45;&gt;Node14</title>
<path fill="none" stroke="midnightblue" d="M1992.13,-817.295C1995.18,-790.492 2001.52,-707.492 1972,-649 1965.96,-637.038 1955.33,-626.676 1945.51,-618.92"/>
<polygon fill="midnightblue" stroke="midnightblue" points="1947.35,-615.927 1937.23,-612.801 1943.19,-621.558 1947.35,-615.927"/>
</g>
<!-- Node46&#45;&gt;Node35 -->
<g id="edge152" class="edge"><title>Node46&#45;&gt;Node35</title>
<path fill="none" stroke="midnightblue" d="M1995.62,-817.339C2000.06,-808.493 2006.45,-794.22 2009,-781 2010.68,-772.271 2009.02,-769.889 2009,-761 2008.78,-661.444 2026.54,-634.815 2008,-537 2002.05,-505.617 2003.4,-493.714 1982,-470 1968.64,-455.197 1949.28,-444.562 1932.12,-437.36"/>
<polygon fill="midnightblue" stroke="midnightblue" points="1932.92,-433.913 1922.33,-433.511 1930.35,-440.427 1932.92,-433.913"/>
</g>
<!-- Node46&#45;&gt;Node41 -->
<g id="edge153" class="edge"><title>Node46&#45;&gt;Node41</title>
<path fill="none" stroke="midnightblue" d="M2027.25,-818.263C2071.38,-808.843 2146.11,-792.894 2195.25,-782.405"/>
<polygon fill="midnightblue" stroke="midnightblue" points="2196.28,-785.764 2205.33,-780.254 2194.82,-778.918 2196.28,-785.764"/>
</g>
<!-- Node48&#45;&gt;Node10 -->
<g id="edge162" class="edge"><title>Node48&#45;&gt;Node10</title>
<path fill="none" stroke="midnightblue" d="M998.308,-601.79C908.086,-600.466 711.796,-593.235 551,-557 480.767,-541.173 458.447,-541.611 399,-501 286.326,-424.026 228,-382.457 228,-246 228,-246 228,-246 228,-188 228,-157.205 230.466,-145.015 252,-123 277.887,-96.5349 319.338,-83.6055 348.023,-77.5222"/>
<polygon fill="midnightblue" stroke="midnightblue" points="348.819,-80.9329 357.961,-75.5783 347.475,-74.063 348.819,-80.9329"/>
</g>
<!-- Node48&#45;&gt;Node11 -->
<g id="edge163" class="edge"><title>Node48&#45;&gt;Node11</title>
<path fill="none" stroke="midnightblue" d="M1097.51,-601.6C1280.06,-599.859 1909.24,-591.395 1992,-557 2062.56,-527.677 2201.27,-386.007 2243,-322 2288.45,-252.282 2293.56,-226.108 2298,-143 2298.47,-134.124 2299.89,-131.687 2298,-123 2295.48,-111.401 2290.06,-99.2696 2285.11,-89.805"/>
<polygon fill="midnightblue" stroke="midnightblue" points="2288.17,-88.1014 2280.27,-81.0413 2282.04,-91.4868 2288.17,-88.1014"/>
</g>
<!-- Node48&#45;&gt;Node32 -->
<g id="edge161" class="edge"><title>Node48&#45;&gt;Node32</title>
<path fill="none" stroke="midnightblue" d="M1043.38,-593.083C1039.54,-585.691 1033.98,-574.953 1029.24,-565.811"/>
<polygon fill="midnightblue" stroke="midnightblue" points="1032.25,-564.018 1024.54,-556.751 1026.03,-567.24 1032.25,-564.018"/>
</g>
</g>
</svg>
