<?xml version="1.0" encoding="UTF-8" standalone="no"?>
<!DOCTYPE svg PUBLIC "-//W3C//DTD SVG 1.1//EN"
 "http://www.w3.org/Graphics/SVG/1.1/DTD/svg11.dtd">
<!-- Generated by graphviz version 2.38.0 (20140413.2041)
 -->
<!-- Title: include/tvm/tir/var.h Pages: 1 -->
<svg width="2524pt" height="845pt"
 viewBox="0.00 0.00 2524.00 845.00" xmlns="http://www.w3.org/2000/svg" xmlns:xlink="http://www.w3.org/1999/xlink">
<g id="graph0" class="graph" transform="scale(1 1) rotate(0) translate(4 841)">
<title>include/tvm/tir/var.h</title>
<polygon fill="white" stroke="none" points="-4,4 -4,-841 2520,-841 2520,4 -4,4"/>
<!-- Node1 -->
<g id="node1" class="node"><title>Node1</title>
<polygon fill="#bfbfbf" stroke="black" points="2384.5,-817.5 2384.5,-836.5 2495.5,-836.5 2495.5,-817.5 2384.5,-817.5"/>
<text text-anchor="middle" x="2440" y="-824.5" font-family="Helvetica,sans-Serif" font-size="10.00">include/tvm/tir/var.h</text>
</g>
<!-- Node2 -->
<g id="node2" class="node"><title>Node2</title>
<g id="a_node2"><a xlink:href="node_8h.html" target="_top" xlink:title="Definitions and helper macros for IR/AST nodes. ">
<polygon fill="white" stroke="black" points="1635,-593.5 1635,-612.5 1733,-612.5 1733,-593.5 1635,-593.5"/>
<text text-anchor="middle" x="1684" y="-600.5" font-family="Helvetica,sans-Serif" font-size="10.00">tvm/node/node.h</text>
</a>
</g>
</g>
<!-- Node1&#45;&gt;Node2 -->
<g id="edge1" class="edge"><title>Node1&#45;&gt;Node2</title>
<path fill="none" stroke="midnightblue" d="M2427.08,-817.477C2381.95,-788.196 2226.34,-691.198 2083,-649 1966.04,-614.57 1822.66,-606.181 1743.55,-604.321"/>
<polygon fill="midnightblue" stroke="midnightblue" points="1743.36,-600.816 1733.29,-604.108 1743.22,-607.815 1743.36,-600.816"/>
</g>
<!-- Node12 -->
<g id="node12" class="node"><title>Node12</title>
<polygon fill="white" stroke="#bfbfbf" points="2171,-62 2171,-81 2215,-81 2215,-62 2171,-62"/>
<text text-anchor="middle" x="2193" y="-69" font-family="Helvetica,sans-Serif" font-size="10.00">string</text>
</g>
<!-- Node1&#45;&gt;Node12 -->
<g id="edge132" class="edge"><title>Node1&#45;&gt;Node12</title>
<path fill="none" stroke="midnightblue" d="M2451.54,-817.433C2472.8,-800.571 2516,-760.799 2516,-716 2516,-716 2516,-716 2516,-188 2516,-149.868 2493.03,-142.056 2460,-123 2384.11,-79.2194 2277.82,-72.3825 2225.17,-71.9289"/>
<polygon fill="midnightblue" stroke="midnightblue" points="2225.09,-68.4289 2215.08,-71.916 2225.08,-75.4288 2225.09,-68.4289"/>
</g>
<!-- Node25 -->
<g id="node25" class="node"><title>Node25</title>
<g id="a_node25"><a xlink:href="data__type_8h.html" target="_top" xlink:title="tvm/runtime/data_type.h">
<polygon fill="white" stroke="black" points="2010,-235.5 2010,-254.5 2146,-254.5 2146,-235.5 2010,-235.5"/>
<text text-anchor="middle" x="2078" y="-242.5" font-family="Helvetica,sans-Serif" font-size="10.00">tvm/runtime/data_type.h</text>
</a>
</g>
</g>
<!-- Node1&#45;&gt;Node25 -->
<g id="edge112" class="edge"><title>Node1&#45;&gt;Node25</title>
<path fill="none" stroke="midnightblue" d="M2445.28,-817.231C2455.73,-799.043 2478,-755.601 2478,-716 2478,-716 2478,-716 2478,-546 2478,-452.405 2194.18,-303.622 2104.69,-259.038"/>
<polygon fill="midnightblue" stroke="midnightblue" points="2106.22,-255.89 2095.7,-254.587 2103.11,-262.163 2106.22,-255.89"/>
</g>
<!-- Node38 -->
<g id="node38" class="node"><title>Node38</title>
<g id="a_node38"><a xlink:href="ir_2expr_8h.html" target="_top" xlink:title="Base expr nodes in TVM. ">
<polygon fill="white" stroke="black" points="2104.5,-761.5 2104.5,-780.5 2181.5,-780.5 2181.5,-761.5 2104.5,-761.5"/>
<text text-anchor="middle" x="2143" y="-768.5" font-family="Helvetica,sans-Serif" font-size="10.00">tvm/ir/expr.h</text>
</a>
</g>
</g>
<!-- Node1&#45;&gt;Node38 -->
<g id="edge113" class="edge"><title>Node1&#45;&gt;Node38</title>
<path fill="none" stroke="midnightblue" d="M2392.94,-817.444C2337.97,-807.449 2247.47,-790.995 2191.77,-780.868"/>
<polygon fill="midnightblue" stroke="midnightblue" points="2192.26,-777.399 2181.8,-779.054 2191.01,-784.286 2192.26,-777.399"/>
</g>
<!-- Node3 -->
<g id="node3" class="node"><title>Node3</title>
<g id="a_node3"><a xlink:href="c__runtime__api_8h.html" target="_top" xlink:title="tvm/runtime/c_runtime\l_api.h">
<polygon fill="white" stroke="black" points="71.5,-56.5 71.5,-86.5 198.5,-86.5 198.5,-56.5 71.5,-56.5"/>
<text text-anchor="start" x="79.5" y="-74.5" font-family="Helvetica,sans-Serif" font-size="10.00">tvm/runtime/c_runtime</text>
<text text-anchor="middle" x="135" y="-63.5" font-family="Helvetica,sans-Serif" font-size="10.00">_api.h</text>
</a>
</g>
</g>
<!-- Node2&#45;&gt;Node3 -->
<g id="edge2" class="edge"><title>Node2&#45;&gt;Node3</title>
<path fill="none" stroke="midnightblue" d="M1634.92,-601.673C1432.79,-600.1 670.576,-591.89 569,-557 351.898,-482.428 293.136,-434.461 150,-255 112.293,-207.724 106.698,-182.588 117,-123 118.556,-114.002 121.563,-104.483 124.68,-96.1653"/>
<polygon fill="midnightblue" stroke="midnightblue" points="127.99,-97.3147 128.447,-86.7297 121.489,-94.7191 127.99,-97.3147"/>
</g>
<!-- Node7 -->
<g id="node7" class="node"><title>Node7</title>
<g id="a_node7"><a xlink:href="runtime_2container_8h.html" target="_top" xlink:title="Common POD(plain old data) container types. ">
<polygon fill="white" stroke="black" points="1461,-358.5 1461,-377.5 1593,-377.5 1593,-358.5 1461,-358.5"/>
<text text-anchor="middle" x="1527" y="-365.5" font-family="Helvetica,sans-Serif" font-size="10.00">tvm/runtime/container.h</text>
</a>
</g>
</g>
<!-- Node2&#45;&gt;Node7 -->
<g id="edge6" class="edge"><title>Node2&#45;&gt;Node7</title>
<path fill="none" stroke="midnightblue" d="M1678.23,-593.431C1655.25,-559.327 1570.02,-432.84 1538.67,-386.316"/>
<polygon fill="midnightblue" stroke="midnightblue" points="1541.48,-384.233 1532.99,-377.896 1535.68,-388.145 1541.48,-384.233"/>
</g>
<!-- Node9 -->
<g id="node9" class="node"><title>Node9</title>
<g id="a_node9"><a xlink:href="runtime_2memory_8h.html" target="_top" xlink:title="Runtime memory management. ">
<polygon fill="white" stroke="black" points="1251.5,-179.5 1251.5,-198.5 1378.5,-198.5 1378.5,-179.5 1251.5,-179.5"/>
<text text-anchor="middle" x="1315" y="-186.5" font-family="Helvetica,sans-Serif" font-size="10.00">tvm/runtime/memory.h</text>
</a>
</g>
</g>
<!-- Node2&#45;&gt;Node9 -->
<g id="edge65" class="edge"><title>Node2&#45;&gt;Node9</title>
<path fill="none" stroke="midnightblue" d="M1634.98,-600.39C1512.66,-595.275 1198.98,-575.062 1132,-501 1069.37,-431.75 1076.93,-370.438 1126,-291 1144.83,-260.515 1153.44,-253.71 1184,-235 1209.35,-219.481 1240.75,-208.458 1266.46,-201.207"/>
<polygon fill="midnightblue" stroke="midnightblue" points="1267.64,-204.515 1276.37,-198.517 1265.8,-197.759 1267.64,-204.515"/>
</g>
<!-- Node10 -->
<g id="node10" class="node"><title>Node10</title>
<g id="a_node10"><a xlink:href="object_8h.html" target="_top" xlink:title="A managed object in the TVM runtime. ">
<polygon fill="white" stroke="black" points="870.5,-123.5 870.5,-142.5 987.5,-142.5 987.5,-123.5 870.5,-123.5"/>
<text text-anchor="middle" x="929" y="-130.5" font-family="Helvetica,sans-Serif" font-size="10.00">tvm/runtime/object.h</text>
</a>
</g>
</g>
<!-- Node2&#45;&gt;Node10 -->
<g id="edge64" class="edge"><title>Node2&#45;&gt;Node10</title>
<path fill="none" stroke="midnightblue" d="M1634.69,-601.802C1442.7,-600.764 751.387,-594.435 661,-557 618.132,-539.245 584,-532.9 584,-486.5 584,-486.5 584,-486.5 584,-305.5 584,-233.278 623.968,-215.987 686,-179 714.799,-161.828 799.013,-148.851 860.241,-141.346"/>
<polygon fill="midnightblue" stroke="midnightblue" points="860.728,-144.813 870.239,-140.144 859.893,-137.863 860.728,-144.813"/>
</g>
<!-- Node11 -->
<g id="node11" class="node"><title>Node11</title>
<polygon fill="white" stroke="#bfbfbf" points="1814,-62 1814,-81 1882,-81 1882,-62 1814,-62"/>
<text text-anchor="middle" x="1848" y="-69" font-family="Helvetica,sans-Serif" font-size="10.00">type_traits</text>
</g>
<!-- Node2&#45;&gt;Node11 -->
<g id="edge111" class="edge"><title>Node2&#45;&gt;Node11</title>
<path fill="none" stroke="midnightblue" d="M1733.26,-597.259C1837.19,-584.218 2076.68,-537.382 2166,-378 2182.72,-348.161 2242.8,-381.448 2155,-235 2097.52,-139.117 1962.3,-96.8872 1892.07,-80.8853"/>
<polygon fill="midnightblue" stroke="midnightblue" points="1892.72,-77.4438 1882.2,-78.7114 1891.21,-84.28 1892.72,-77.4438"/>
</g>
<!-- Node2&#45;&gt;Node12 -->
<g id="edge108" class="edge"><title>Node2&#45;&gt;Node12</title>
<path fill="none" stroke="midnightblue" d="M1733.07,-597.94C1788.27,-592.446 1880.1,-580.503 1956,-557 2159.04,-494.128 2364,-520.051 2364,-307.5 2364,-307.5 2364,-307.5 2364,-188 2364,-121.61 2274.39,-90.8136 2224.91,-78.8691"/>
<polygon fill="midnightblue" stroke="midnightblue" points="2225.53,-75.4219 2215.01,-76.6004 2223.97,-82.2451 2225.53,-75.4219"/>
</g>
<!-- Node13 -->
<g id="node13" class="node"><title>Node13</title>
<polygon fill="white" stroke="#bfbfbf" points="680,-62 680,-81 722,-81 722,-62 680,-62"/>
<text text-anchor="middle" x="701" y="-69" font-family="Helvetica,sans-Serif" font-size="10.00">utility</text>
</g>
<!-- Node2&#45;&gt;Node13 -->
<g id="edge110" class="edge"><title>Node2&#45;&gt;Node13</title>
<path fill="none" stroke="midnightblue" d="M1634.73,-601.829C1437.08,-600.884 707.707,-594.842 612,-557 521.444,-521.195 525.296,-470.52 446,-414 331.66,-332.502 242.975,-376.733 173,-255 133.488,-186.263 129.617,-198.824 287,-123 354.795,-90.3376 585.434,-77.4228 669.779,-73.7207"/>
<polygon fill="midnightblue" stroke="midnightblue" points="669.932,-77.2174 679.774,-73.2954 669.634,-70.2238 669.932,-77.2174"/>
</g>
<!-- Node20 -->
<g id="node20" class="node"><title>Node20</title>
<polygon fill="white" stroke="#bfbfbf" points="786.5,-179.5 786.5,-198.5 833.5,-198.5 833.5,-179.5 786.5,-179.5"/>
<text text-anchor="middle" x="810" y="-186.5" font-family="Helvetica,sans-Serif" font-size="10.00">vector</text>
</g>
<!-- Node2&#45;&gt;Node20 -->
<g id="edge109" class="edge"><title>Node2&#45;&gt;Node20</title>
<path fill="none" stroke="midnightblue" d="M1634.98,-601.665C1437.92,-600.081 712.364,-591.891 679,-557 577.84,-451.209 741.243,-262.095 794.273,-206.064"/>
<polygon fill="midnightblue" stroke="midnightblue" points="796.855,-208.428 801.252,-198.789 791.803,-203.583 796.855,-208.428"/>
</g>
<!-- Node31 -->
<g id="node31" class="node"><title>Node31</title>
<g id="a_node31"><a xlink:href="reflection_8h.html" target="_top" xlink:title="Reflection and serialization of compiler IR/AST nodes. ">
<polygon fill="white" stroke="black" points="1295.5,-537.5 1295.5,-556.5 1414.5,-556.5 1414.5,-537.5 1295.5,-537.5"/>
<text text-anchor="middle" x="1355" y="-544.5" font-family="Helvetica,sans-Serif" font-size="10.00">tvm/node/reflection.h</text>
</a>
</g>
</g>
<!-- Node2&#45;&gt;Node31 -->
<g id="edge66" class="edge"><title>Node2&#45;&gt;Node31</title>
<path fill="none" stroke="midnightblue" d="M1634.75,-593.916C1576.76,-584.398 1480.37,-568.578 1417.26,-558.219"/>
<polygon fill="midnightblue" stroke="midnightblue" points="1417.47,-554.707 1407.04,-556.541 1416.34,-561.615 1417.47,-554.707"/>
</g>
<!-- Node32 -->
<g id="node32" class="node"><title>Node32</title>
<g id="a_node32"><a xlink:href="structural__equal_8h.html" target="_top" xlink:title="Structural equality comparison. ">
<polygon fill="white" stroke="black" points="1796.5,-470.5 1796.5,-500.5 1907.5,-500.5 1907.5,-470.5 1796.5,-470.5"/>
<text text-anchor="start" x="1804.5" y="-488.5" font-family="Helvetica,sans-Serif" font-size="10.00">tvm/node/structural</text>
<text text-anchor="middle" x="1852" y="-477.5" font-family="Helvetica,sans-Serif" font-size="10.00">_equal.h</text>
</a>
</g>
</g>
<!-- Node2&#45;&gt;Node32 -->
<g id="edge106" class="edge"><title>Node2&#45;&gt;Node32</title>
<path fill="none" stroke="midnightblue" d="M1709.06,-593.359C1729.68,-585.597 1759.13,-572.974 1782,-557 1801.69,-543.25 1820.66,-523.605 1833.88,-508.543"/>
<polygon fill="midnightblue" stroke="midnightblue" points="1836.74,-510.582 1840.6,-500.714 1831.43,-506.024 1836.74,-510.582"/>
</g>
<!-- Node34 -->
<g id="node34" class="node"><title>Node34</title>
<g id="a_node34"><a xlink:href="node_2container_8h.html" target="_top" xlink:title="Array/Map container in the DSL graph. ">
<polygon fill="white" stroke="black" points="1708.5,-414.5 1708.5,-433.5 1827.5,-433.5 1827.5,-414.5 1708.5,-414.5"/>
<text text-anchor="middle" x="1768" y="-421.5" font-family="Helvetica,sans-Serif" font-size="10.00">tvm/node/container.h</text>
</a>
</g>
</g>
<!-- Node2&#45;&gt;Node34 -->
<g id="edge105" class="edge"><title>Node2&#45;&gt;Node34</title>
<path fill="none" stroke="midnightblue" d="M1690.81,-593.333C1703.74,-576.482 1731.99,-537.727 1748,-501 1756.16,-482.28 1761.61,-459.471 1764.74,-443.753"/>
<polygon fill="midnightblue" stroke="midnightblue" points="1768.22,-444.193 1766.61,-433.722 1761.33,-442.912 1768.22,-444.193"/>
</g>
<!-- Node35 -->
<g id="node35" class="node"><title>Node35</title>
<g id="a_node35"><a xlink:href="structural__hash_8h.html" target="_top" xlink:title="tvm/node/structural\l_hash.h">
<polygon fill="white" stroke="black" points="1628.5,-470.5 1628.5,-500.5 1739.5,-500.5 1739.5,-470.5 1628.5,-470.5"/>
<text text-anchor="start" x="1636.5" y="-488.5" font-family="Helvetica,sans-Serif" font-size="10.00">tvm/node/structural</text>
<text text-anchor="middle" x="1684" y="-477.5" font-family="Helvetica,sans-Serif" font-size="10.00">_hash.h</text>
</a>
</g>
</g>
<!-- Node2&#45;&gt;Node35 -->
<g id="edge107" class="edge"><title>Node2&#45;&gt;Node35</title>
<path fill="none" stroke="midnightblue" d="M1684,-593.319C1684,-575.967 1684,-536.457 1684,-510.658"/>
<polygon fill="midnightblue" stroke="midnightblue" points="1687.5,-510.545 1684,-500.545 1680.5,-510.545 1687.5,-510.545"/>
</g>
<!-- Node36 -->
<g id="node36" class="node"><title>Node36</title>
<g id="a_node36"><a xlink:href="repr__printer_8h.html" target="_top" xlink:title="Printer class to print repr string of each AST/IR nodes. ">
<polygon fill="white" stroke="black" points="688,-537.5 688,-556.5 818,-556.5 818,-537.5 688,-537.5"/>
<text text-anchor="middle" x="753" y="-544.5" font-family="Helvetica,sans-Serif" font-size="10.00">tvm/node/repr_printer.h</text>
</a>
</g>
</g>
<!-- Node2&#45;&gt;Node36 -->
<g id="edge102" class="edge"><title>Node2&#45;&gt;Node36</title>
<path fill="none" stroke="midnightblue" d="M1634.94,-600.451C1504.25,-596.099 1136.82,-582.389 832,-557 830.723,-556.894 829.435,-556.783 828.138,-556.669"/>
<polygon fill="midnightblue" stroke="midnightblue" points="828.348,-553.174 818.066,-555.729 827.698,-560.143 828.348,-553.174"/>
</g>
<!-- Node4 -->
<g id="node4" class="node"><title>Node4</title>
<polygon fill="white" stroke="#bfbfbf" points="0,-0.5 0,-19.5 90,-19.5 90,-0.5 0,-0.5"/>
<text text-anchor="middle" x="45" y="-7.5" font-family="Helvetica,sans-Serif" font-size="10.00">dlpack/dlpack.h</text>
</g>
<!-- Node3&#45;&gt;Node4 -->
<g id="edge3" class="edge"><title>Node3&#45;&gt;Node4</title>
<path fill="none" stroke="midnightblue" d="M113.671,-56.3993C99.5146,-47.0402 80.9885,-34.7924 66.7469,-25.3771"/>
<polygon fill="midnightblue" stroke="midnightblue" points="68.3679,-22.2531 58.0958,-19.6578 64.5074,-28.0923 68.3679,-22.2531"/>
</g>
<!-- Node5 -->
<g id="node5" class="node"><title>Node5</title>
<polygon fill="white" stroke="#bfbfbf" points="108.5,-0.5 108.5,-19.5 161.5,-19.5 161.5,-0.5 108.5,-0.5"/>
<text text-anchor="middle" x="135" y="-7.5" font-family="Helvetica,sans-Serif" font-size="10.00">stdint.h</text>
</g>
<!-- Node3&#45;&gt;Node5 -->
<g id="edge4" class="edge"><title>Node3&#45;&gt;Node5</title>
<path fill="none" stroke="midnightblue" d="M135,-56.3993C135,-48.4664 135,-38.458 135,-29.8583"/>
<polygon fill="midnightblue" stroke="midnightblue" points="138.5,-29.6577 135,-19.6578 131.5,-29.6578 138.5,-29.6577"/>
</g>
<!-- Node6 -->
<g id="node6" class="node"><title>Node6</title>
<polygon fill="white" stroke="#bfbfbf" points="179.5,-0.5 179.5,-19.5 234.5,-19.5 234.5,-0.5 179.5,-0.5"/>
<text text-anchor="middle" x="207" y="-7.5" font-family="Helvetica,sans-Serif" font-size="10.00">stddef.h</text>
</g>
<!-- Node3&#45;&gt;Node6 -->
<g id="edge5" class="edge"><title>Node3&#45;&gt;Node6</title>
<path fill="none" stroke="midnightblue" d="M152.063,-56.3993C163.065,-47.3076 177.365,-35.4899 188.618,-26.1909"/>
<polygon fill="midnightblue" stroke="midnightblue" points="191.044,-28.726 196.523,-19.6578 186.585,-23.33 191.044,-28.726"/>
</g>
<!-- Node8 -->
<g id="node8" class="node"><title>Node8</title>
<polygon fill="white" stroke="#bfbfbf" points="1363,-62 1363,-81 1449,-81 1449,-62 1363,-62"/>
<text text-anchor="middle" x="1406" y="-69" font-family="Helvetica,sans-Serif" font-size="10.00">dmlc/logging.h</text>
</g>
<!-- Node7&#45;&gt;Node8 -->
<g id="edge7" class="edge"><title>Node7&#45;&gt;Node8</title>
<path fill="none" stroke="midnightblue" d="M1529.98,-358.454C1535.67,-343.218 1549.35,-311.08 1570,-291 1598.07,-263.706 1656.08,-269.729 1638,-235 1596.11,-154.513 1494.08,-105.631 1440.37,-84.6082"/>
<polygon fill="midnightblue" stroke="midnightblue" points="1441.52,-81.3005 1430.93,-81.0055 1439.02,-87.8406 1441.52,-81.3005"/>
</g>
<!-- Node7&#45;&gt;Node9 -->
<g id="edge8" class="edge"><title>Node7&#45;&gt;Node9</title>
<path fill="none" stroke="midnightblue" d="M1524.8,-358.032C1521.59,-342.704 1517.47,-311.173 1532,-291 1559.09,-253.38 1650.29,-270.091 1620,-235 1616.21,-230.611 1477.75,-211.538 1388.71,-199.676"/>
<polygon fill="midnightblue" stroke="midnightblue" points="1389.02,-196.187 1378.64,-198.338 1388.09,-203.126 1389.02,-196.187"/>
</g>
<!-- Node7&#45;&gt;Node10 -->
<g id="edge19" class="edge"><title>Node7&#45;&gt;Node10</title>
<path fill="none" stroke="midnightblue" d="M1460.98,-364.506C1405.21,-360.416 1324.24,-349.736 1259,-322 1160.75,-280.229 1160.82,-228.063 1066,-179 1037.19,-164.091 1002.44,-152.745 975.15,-145.175"/>
<polygon fill="midnightblue" stroke="midnightblue" points="976.024,-141.786 965.457,-142.558 974.199,-148.544 976.024,-141.786"/>
</g>
<!-- Node7&#45;&gt;Node11 -->
<g id="edge61" class="edge"><title>Node7&#45;&gt;Node11</title>
<path fill="none" stroke="midnightblue" d="M1535.26,-358.374C1551.89,-341.072 1589.01,-302.781 1603,-291 1624.22,-273.126 1631.6,-271.373 1654,-255 1687.3,-230.66 1697.26,-226.498 1728,-199 1768.97,-162.351 1812.2,-114.046 1833.86,-89.0606"/>
<polygon fill="midnightblue" stroke="midnightblue" points="1836.71,-91.1137 1840.59,-81.2529 1831.41,-86.5451 1836.71,-91.1137"/>
</g>
<!-- Node7&#45;&gt;Node12 -->
<g id="edge60" class="edge"><title>Node7&#45;&gt;Node12</title>
<path fill="none" stroke="midnightblue" d="M1572.34,-358.492C1607.43,-351.099 1656.82,-338.908 1698,-322 1862.1,-254.616 1882.34,-196.041 2044,-123 2083.13,-105.318 2130.4,-90.3071 2161.05,-81.3555"/>
<polygon fill="midnightblue" stroke="midnightblue" points="2162.13,-84.687 2170.77,-78.557 2160.19,-77.9602 2162.13,-84.687"/>
</g>
<!-- Node7&#45;&gt;Node13 -->
<g id="edge62" class="edge"><title>Node7&#45;&gt;Node13</title>
<path fill="none" stroke="midnightblue" d="M1460.74,-364.884C1333.72,-360.295 1060.53,-347.707 970,-322 865.211,-292.243 831.108,-279.756 758,-199 729.001,-166.968 712.656,-117.718 705.469,-91.1058"/>
<polygon fill="midnightblue" stroke="midnightblue" points="708.805,-90.0253 702.939,-81.2026 702.023,-91.7577 708.805,-90.0253"/>
</g>
<!-- Node16 -->
<g id="node16" class="node"><title>Node16</title>
<g id="a_node16"><a xlink:href="packed__func_8h.html" target="_top" xlink:title="Type&#45;erased function used across TVM API. ">
<polygon fill="white" stroke="black" points="1268.5,-291.5 1268.5,-321.5 1381.5,-321.5 1381.5,-291.5 1268.5,-291.5"/>
<text text-anchor="start" x="1276.5" y="-309.5" font-family="Helvetica,sans-Serif" font-size="10.00">tvm/runtime/packed</text>
<text text-anchor="middle" x="1325" y="-298.5" font-family="Helvetica,sans-Serif" font-size="10.00">_func.h</text>
</a>
</g>
</g>
<!-- Node7&#45;&gt;Node16 -->
<g id="edge20" class="edge"><title>Node7&#45;&gt;Node16</title>
<path fill="none" stroke="midnightblue" d="M1498.06,-358.475C1468.02,-349.626 1420.22,-335.549 1382.47,-324.428"/>
<polygon fill="midnightblue" stroke="midnightblue" points="1383.19,-320.991 1372.61,-321.523 1381.21,-327.706 1383.19,-320.991"/>
</g>
<!-- Node7&#45;&gt;Node20 -->
<g id="edge63" class="edge"><title>Node7&#45;&gt;Node20</title>
<path fill="none" stroke="midnightblue" d="M1460.88,-361.826C1314.13,-349.392 966.277,-314.377 866,-255 846.444,-243.421 830.307,-222.554 820.459,-207.585"/>
<polygon fill="midnightblue" stroke="midnightblue" points="823.201,-205.369 814.924,-198.756 817.271,-209.087 823.201,-205.369"/>
</g>
<!-- Node29 -->
<g id="node29" class="node"><title>Node29</title>
<polygon fill="white" stroke="#bfbfbf" points="1430.5,-297 1430.5,-316 1479.5,-316 1479.5,-297 1430.5,-297"/>
<text text-anchor="middle" x="1455" y="-304" font-family="Helvetica,sans-Serif" font-size="10.00">cstring</text>
</g>
<!-- Node7&#45;&gt;Node29 -->
<g id="edge58" class="edge"><title>Node7&#45;&gt;Node29</title>
<path fill="none" stroke="midnightblue" d="M1516.68,-358.475C1505.35,-349.108 1486.93,-333.884 1473.16,-322.508"/>
<polygon fill="midnightblue" stroke="midnightblue" points="1475.23,-319.681 1465.3,-316.009 1470.78,-325.077 1475.23,-319.681"/>
</g>
<!-- Node30 -->
<g id="node30" class="node"><title>Node30</title>
<polygon fill="white" stroke="#bfbfbf" points="1612.5,-297 1612.5,-316 1689.5,-316 1689.5,-297 1612.5,-297"/>
<text text-anchor="middle" x="1651" y="-304" font-family="Helvetica,sans-Serif" font-size="10.00">initializer_list</text>
</g>
<!-- Node7&#45;&gt;Node30 -->
<g id="edge59" class="edge"><title>Node7&#45;&gt;Node30</title>
<path fill="none" stroke="midnightblue" d="M1544.77,-358.475C1565.48,-348.534 1599.95,-331.995 1623.99,-320.461"/>
<polygon fill="midnightblue" stroke="midnightblue" points="1625.77,-323.491 1633.27,-316.009 1622.74,-317.18 1625.77,-323.491"/>
</g>
<!-- Node9&#45;&gt;Node10 -->
<g id="edge9" class="edge"><title>Node9&#45;&gt;Node10</title>
<path fill="none" stroke="midnightblue" d="M1253.84,-179.444C1184.1,-169.687 1070.36,-153.776 997.643,-143.603"/>
<polygon fill="midnightblue" stroke="midnightblue" points="998.052,-140.126 987.664,-142.207 997.082,-147.059 998.052,-140.126"/>
</g>
<!-- Node9&#45;&gt;Node11 -->
<g id="edge18" class="edge"><title>Node9&#45;&gt;Node11</title>
<path fill="none" stroke="midnightblue" d="M1344.84,-179.462C1373.95,-170.932 1419.37,-157.094 1458,-143 1479.71,-135.079 1483.73,-129.18 1506,-123 1610.58,-93.9789 1738.05,-80.7599 1803.9,-75.4989"/>
<polygon fill="midnightblue" stroke="midnightblue" points="1804.23,-78.9842 1813.93,-74.7217 1803.69,-72.0051 1804.23,-78.9842"/>
</g>
<!-- Node9&#45;&gt;Node13 -->
<g id="edge17" class="edge"><title>Node9&#45;&gt;Node13</title>
<path fill="none" stroke="midnightblue" d="M1275.29,-179.491C1215.03,-166.672 1096.83,-141.898 996,-123 900.002,-105.008 785.935,-86.2112 732.089,-77.4917"/>
<polygon fill="midnightblue" stroke="midnightblue" points="732.576,-74.0251 722.146,-75.8854 731.459,-80.9355 732.576,-74.0251"/>
</g>
<!-- Node15 -->
<g id="node15" class="node"><title>Node15</title>
<polygon fill="white" stroke="#bfbfbf" points="1291.5,-123.5 1291.5,-142.5 1338.5,-142.5 1338.5,-123.5 1291.5,-123.5"/>
<text text-anchor="middle" x="1315" y="-130.5" font-family="Helvetica,sans-Serif" font-size="10.00">cstdlib</text>
</g>
<!-- Node9&#45;&gt;Node15 -->
<g id="edge16" class="edge"><title>Node9&#45;&gt;Node15</title>
<path fill="none" stroke="midnightblue" d="M1315,-179.083C1315,-172.006 1315,-161.861 1315,-152.986"/>
<polygon fill="midnightblue" stroke="midnightblue" points="1318.5,-152.751 1315,-142.751 1311.5,-152.751 1318.5,-152.751"/>
</g>
<!-- Node10&#45;&gt;Node3 -->
<g id="edge11" class="edge"><title>Node10&#45;&gt;Node3</title>
<path fill="none" stroke="midnightblue" d="M870.459,-127.071C854.128,-125.722 836.375,-124.28 820,-123 597.695,-105.628 334.673,-86.6905 209.027,-77.7432"/>
<polygon fill="midnightblue" stroke="midnightblue" points="208.983,-74.2313 198.76,-77.0125 208.486,-81.2137 208.983,-74.2313"/>
</g>
<!-- Node10&#45;&gt;Node8 -->
<g id="edge10" class="edge"><title>Node10&#45;&gt;Node8</title>
<path fill="none" stroke="midnightblue" d="M987.968,-124.644C1081.69,-112.953 1263.21,-90.3109 1353.03,-79.1075"/>
<polygon fill="midnightblue" stroke="midnightblue" points="1353.5,-82.5754 1362.99,-77.8645 1352.64,-75.6292 1353.5,-82.5754"/>
</g>
<!-- Node10&#45;&gt;Node11 -->
<g id="edge12" class="edge"><title>Node10&#45;&gt;Node11</title>
<path fill="none" stroke="midnightblue" d="M987.535,-128.21C1158.19,-117.161 1652.66,-85.147 1803.68,-75.3698"/>
<polygon fill="midnightblue" stroke="midnightblue" points="1804.19,-78.8437 1813.95,-74.7048 1803.74,-71.8583 1804.19,-78.8437"/>
</g>
<!-- Node10&#45;&gt;Node12 -->
<g id="edge13" class="edge"><title>Node10&#45;&gt;Node12</title>
<path fill="none" stroke="midnightblue" d="M987.564,-129.286C1137.7,-122.322 1548.63,-103.227 1891,-87 1989.06,-82.3522 2105.04,-76.7561 2160.4,-74.0782"/>
<polygon fill="midnightblue" stroke="midnightblue" points="2160.83,-77.5619 2170.65,-73.5827 2160.49,-70.5701 2160.83,-77.5619"/>
</g>
<!-- Node10&#45;&gt;Node13 -->
<g id="edge14" class="edge"><title>Node10&#45;&gt;Node13</title>
<path fill="none" stroke="midnightblue" d="M896.333,-123.475C852.424,-112.016 774.926,-91.792 731.926,-80.5706"/>
<polygon fill="midnightblue" stroke="midnightblue" points="732.591,-77.1271 722.031,-77.9885 730.824,-83.9002 732.591,-77.1271"/>
</g>
<!-- Node14 -->
<g id="node14" class="node"><title>Node14</title>
<polygon fill="white" stroke="#bfbfbf" points="414,-62 414,-81 464,-81 464,-62 414,-62"/>
<text text-anchor="middle" x="439" y="-69" font-family="Helvetica,sans-Serif" font-size="10.00">atomic</text>
</g>
<!-- Node10&#45;&gt;Node14 -->
<g id="edge15" class="edge"><title>Node10&#45;&gt;Node14</title>
<path fill="none" stroke="midnightblue" d="M870.381,-124.882C767.457,-112.384 557.285,-86.8632 474.061,-76.7574"/>
<polygon fill="midnightblue" stroke="midnightblue" points="474.447,-73.2786 464.098,-75.5476 473.603,-80.2276 474.447,-73.2786"/>
</g>
<!-- Node16&#45;&gt;Node3 -->
<g id="edge22" class="edge"><title>Node16&#45;&gt;Node3</title>
<path fill="none" stroke="midnightblue" d="M1268.22,-304.303C1063.01,-299.769 366.921,-282.498 271,-255 264.879,-253.245 175.792,-203.193 171,-199 147.588,-178.512 138.838,-172.515 129,-143 124.016,-128.049 125.535,-110.377 128.29,-96.466"/>
<polygon fill="midnightblue" stroke="midnightblue" points="131.713,-97.1999 130.551,-86.669 124.892,-95.6259 131.713,-97.1999"/>
</g>
<!-- Node16&#45;&gt;Node8 -->
<g id="edge21" class="edge"><title>Node16&#45;&gt;Node8</title>
<path fill="none" stroke="midnightblue" d="M1381.61,-291.534C1402.93,-283.816 1425.88,-272.189 1442,-255 1460.08,-235.72 1457.49,-225.041 1462,-199 1469.27,-157.031 1439.59,-112.503 1420.67,-89.1017"/>
<polygon fill="midnightblue" stroke="midnightblue" points="1423.16,-86.6207 1414.04,-81.2169 1417.8,-91.1243 1423.16,-86.6207"/>
</g>
<!-- Node16&#45;&gt;Node10 -->
<g id="edge49" class="edge"><title>Node16&#45;&gt;Node10</title>
<path fill="none" stroke="midnightblue" d="M1294.2,-291.324C1273.73,-281.64 1246.4,-268.214 1223,-255 1168.36,-224.144 1161.55,-204.016 1104,-179 1067.34,-163.066 1023.82,-151.845 989.349,-144.593"/>
<polygon fill="midnightblue" stroke="midnightblue" points="989.92,-141.138 979.421,-142.561 988.516,-147.996 989.92,-141.138"/>
</g>
<!-- Node16&#45;&gt;Node11 -->
<g id="edge57" class="edge"><title>Node16&#45;&gt;Node11</title>
<path fill="none" stroke="midnightblue" d="M1367.13,-291.406C1394.69,-281.861 1431.34,-268.559 1463,-255 1533.16,-224.953 1548.35,-212.365 1617,-179 1668.85,-153.799 1681.64,-147.122 1734,-123 1762.73,-109.765 1795.8,-95.1854 1818.9,-85.1085"/>
<polygon fill="midnightblue" stroke="midnightblue" points="1820.38,-88.2835 1828.15,-81.0825 1817.58,-81.8654 1820.38,-88.2835"/>
</g>
<!-- Node16&#45;&gt;Node12 -->
<g id="edge53" class="edge"><title>Node16&#45;&gt;Node12</title>
<path fill="none" stroke="midnightblue" d="M1381.68,-296.904C1454.27,-285.703 1575.94,-266.227 1620,-255 1795.69,-210.227 1832.61,-175.997 2006,-123 2060.09,-106.468 2123.82,-89.8613 2161.18,-80.4137"/>
<polygon fill="midnightblue" stroke="midnightblue" points="2162.14,-83.7802 2170.99,-77.9449 2160.43,-76.992 2162.14,-83.7802"/>
</g>
<!-- Node16&#45;&gt;Node13 -->
<g id="edge56" class="edge"><title>Node16&#45;&gt;Node13</title>
<path fill="none" stroke="midnightblue" d="M1268.15,-302.435C1162.26,-296.202 938.952,-280.445 866,-255 821.873,-239.609 809.996,-232.096 777,-199 756.278,-178.215 757.157,-168.133 742,-143 731.187,-125.071 719.186,-104.331 710.977,-90.0106"/>
<polygon fill="midnightblue" stroke="midnightblue" points="713.962,-88.1801 705.961,-81.2352 707.885,-91.6539 713.962,-88.1801"/>
</g>
<!-- Node17 -->
<g id="node17" class="node"><title>Node17</title>
<g id="a_node17"><a xlink:href="runtime_2module_8h.html" target="_top" xlink:title="Runtime container of the functions generated by TVM, This is used to support dynamically link...">
<polygon fill="white" stroke="black" points="1232,-235.5 1232,-254.5 1356,-254.5 1356,-235.5 1232,-235.5"/>
<text text-anchor="middle" x="1294" y="-242.5" font-family="Helvetica,sans-Serif" font-size="10.00">tvm/runtime/module.h</text>
</a>
</g>
</g>
<!-- Node16&#45;&gt;Node17 -->
<g id="edge23" class="edge"><title>Node16&#45;&gt;Node17</title>
<path fill="none" stroke="midnightblue" d="M1311.81,-291.399C1306.55,-283.288 1301.04,-273.007 1297.24,-264.281"/>
<polygon fill="midnightblue" stroke="midnightblue" points="1300.41,-262.76 1293.58,-254.658 1293.87,-265.249 1300.41,-262.76"/>
</g>
<!-- Node19 -->
<g id="node19" class="node"><title>Node19</title>
<polygon fill="white" stroke="#bfbfbf" points="1396.5,-179.5 1396.5,-198.5 1453.5,-198.5 1453.5,-179.5 1396.5,-179.5"/>
<text text-anchor="middle" x="1425" y="-186.5" font-family="Helvetica,sans-Serif" font-size="10.00">memory</text>
</g>
<!-- Node16&#45;&gt;Node19 -->
<g id="edge55" class="edge"><title>Node16&#45;&gt;Node19</title>
<path fill="none" stroke="midnightblue" d="M1376.52,-291.464C1394.71,-283.779 1413.29,-272.194 1424,-255 1432.57,-241.244 1431.84,-222.467 1429.55,-208.63"/>
<polygon fill="midnightblue" stroke="midnightblue" points="1432.96,-207.873 1427.52,-198.784 1426.11,-209.284 1432.96,-207.873"/>
</g>
<!-- Node16&#45;&gt;Node20 -->
<g id="edge52" class="edge"><title>Node16&#45;&gt;Node20</title>
<path fill="none" stroke="midnightblue" d="M1268.18,-301.925C1169.78,-295.189 971.934,-279.094 907,-255 876.294,-243.607 845.711,-220.705 827.326,-205.359"/>
<polygon fill="midnightblue" stroke="midnightblue" points="829.206,-202.361 819.333,-198.516 824.653,-207.678 829.206,-202.361"/>
</g>
<!-- Node22 -->
<g id="node22" class="node"><title>Node22</title>
<g id="a_node22"><a xlink:href="ndarray_8h.html" target="_top" xlink:title="A device&#45;independent managed NDArray abstraction. ">
<polygon fill="white" stroke="black" points="280.5,-235.5 280.5,-254.5 403.5,-254.5 403.5,-235.5 280.5,-235.5"/>
<text text-anchor="middle" x="342" y="-242.5" font-family="Helvetica,sans-Serif" font-size="10.00">tvm/runtime/ndarray.h</text>
</a>
</g>
</g>
<!-- Node16&#45;&gt;Node22 -->
<g id="edge33" class="edge"><title>Node16&#45;&gt;Node22</title>
<path fill="none" stroke="midnightblue" d="M1268.26,-302.066C1099.44,-291.847 600.505,-261.647 413.692,-250.339"/>
<polygon fill="midnightblue" stroke="midnightblue" points="413.895,-246.845 403.701,-249.735 413.472,-253.833 413.895,-246.845"/>
</g>
<!-- Node16&#45;&gt;Node25 -->
<g id="edge44" class="edge"><title>Node16&#45;&gt;Node25</title>
<path fill="none" stroke="midnightblue" d="M1381.5,-296.182C1394.45,-294.265 1408.18,-292.405 1421,-291 1629.37,-268.166 1876.27,-254.957 1999.63,-249.299"/>
<polygon fill="midnightblue" stroke="midnightblue" points="1999.91,-252.79 2009.74,-248.839 1999.59,-245.797 1999.91,-252.79"/>
</g>
<!-- Node26 -->
<g id="node26" class="node"><title>Node26</title>
<polygon fill="white" stroke="#bfbfbf" points="1548.5,-235.5 1548.5,-254.5 1611.5,-254.5 1611.5,-235.5 1548.5,-235.5"/>
<text text-anchor="middle" x="1580" y="-242.5" font-family="Helvetica,sans-Serif" font-size="10.00">functional</text>
</g>
<!-- Node16&#45;&gt;Node26 -->
<g id="edge50" class="edge"><title>Node16&#45;&gt;Node26</title>
<path fill="none" stroke="midnightblue" d="M1381.59,-292.295C1429.14,-281.202 1495.97,-265.608 1538.63,-255.653"/>
<polygon fill="midnightblue" stroke="midnightblue" points="1539.46,-259.053 1548.4,-253.372 1537.87,-252.236 1539.46,-259.053"/>
</g>
<!-- Node27 -->
<g id="node27" class="node"><title>Node27</title>
<polygon fill="white" stroke="#bfbfbf" points="1374.5,-235.5 1374.5,-254.5 1415.5,-254.5 1415.5,-235.5 1374.5,-235.5"/>
<text text-anchor="middle" x="1395" y="-242.5" font-family="Helvetica,sans-Serif" font-size="10.00">tuple</text>
</g>
<!-- Node16&#45;&gt;Node27 -->
<g id="edge51" class="edge"><title>Node16&#45;&gt;Node27</title>
<path fill="none" stroke="midnightblue" d="M1341.59,-291.399C1352.29,-282.308 1366.19,-270.49 1377.13,-261.191"/>
<polygon fill="midnightblue" stroke="midnightblue" points="1379.46,-263.801 1384.81,-254.658 1374.93,-258.468 1379.46,-263.801"/>
</g>
<!-- Node28 -->
<g id="node28" class="node"><title>Node28</title>
<polygon fill="white" stroke="#bfbfbf" points="182,-235.5 182,-254.5 224,-254.5 224,-235.5 182,-235.5"/>
<text text-anchor="middle" x="203" y="-242.5" font-family="Helvetica,sans-Serif" font-size="10.00">limits</text>
</g>
<!-- Node16&#45;&gt;Node28 -->
<g id="edge54" class="edge"><title>Node16&#45;&gt;Node28</title>
<path fill="none" stroke="midnightblue" d="M1268.46,-304.406C1074.9,-300.42 439.77,-285.3 238,-255 236.744,-254.811 235.467,-254.596 234.181,-254.36"/>
<polygon fill="midnightblue" stroke="midnightblue" points="234.843,-250.922 224.328,-252.225 233.36,-257.763 234.843,-250.922"/>
</g>
<!-- Node17&#45;&gt;Node3 -->
<g id="edge25" class="edge"><title>Node17&#45;&gt;Node3</title>
<path fill="none" stroke="midnightblue" d="M1231.73,-241.639C1008.39,-233.131 260.179,-204.265 249,-199 202.18,-176.948 166.086,-125.904 147.942,-95.8295"/>
<polygon fill="midnightblue" stroke="midnightblue" points="150.765,-93.7247 142.691,-86.8652 144.725,-97.2628 150.765,-93.7247"/>
</g>
<!-- Node17&#45;&gt;Node9 -->
<g id="edge27" class="edge"><title>Node17&#45;&gt;Node9</title>
<path fill="none" stroke="midnightblue" d="M1297.47,-235.083C1300.31,-227.77 1304.43,-217.181 1307.96,-208.103"/>
<polygon fill="midnightblue" stroke="midnightblue" points="1311.23,-209.34 1311.6,-198.751 1304.71,-206.803 1311.23,-209.34"/>
</g>
<!-- Node17&#45;&gt;Node10 -->
<g id="edge26" class="edge"><title>Node17&#45;&gt;Node10</title>
<path fill="none" stroke="midnightblue" d="M1284.57,-235.42C1268.38,-221.204 1233.67,-192.952 1199,-179 1133.74,-152.736 1053.67,-141.8 997.738,-137.246"/>
<polygon fill="midnightblue" stroke="midnightblue" points="997.823,-133.743 987.585,-136.468 997.288,-140.722 997.823,-133.743"/>
</g>
<!-- Node17&#45;&gt;Node12 -->
<g id="edge30" class="edge"><title>Node17&#45;&gt;Node12</title>
<path fill="none" stroke="midnightblue" d="M1326.23,-235.476C1360.08,-226.501 1414.82,-211.91 1462,-199 1583.07,-165.872 1610.76,-146.831 1734,-123 1892.29,-92.3892 2085.15,-78.7074 2160.57,-74.2476"/>
<polygon fill="midnightblue" stroke="midnightblue" points="2161.05,-77.726 2170.83,-73.6555 2160.65,-70.7376 2161.05,-77.726"/>
</g>
<!-- Node17&#45;&gt;Node16 -->
<g id="edge32" class="edge"><title>Node17&#45;&gt;Node16</title>
<path fill="none" stroke="midnightblue" d="M1303.44,-254.658C1308.76,-261.881 1314.86,-272.519 1319.47,-282.199"/>
<polygon fill="midnightblue" stroke="midnightblue" points="1316.28,-283.641 1323.49,-291.399 1322.69,-280.835 1316.28,-283.641"/>
</g>
<!-- Node18 -->
<g id="node18" class="node"><title>Node18</title>
<polygon fill="white" stroke="#bfbfbf" points="751,-123.5 751,-142.5 811,-142.5 811,-123.5 751,-123.5"/>
<text text-anchor="middle" x="781" y="-130.5" font-family="Helvetica,sans-Serif" font-size="10.00">dmlc/io.h</text>
</g>
<!-- Node17&#45;&gt;Node18 -->
<g id="edge24" class="edge"><title>Node17&#45;&gt;Node18</title>
<path fill="none" stroke="midnightblue" d="M1254.17,-235.46C1158.55,-214.956 916.83,-163.125 821.015,-142.58"/>
<polygon fill="midnightblue" stroke="midnightblue" points="821.648,-139.136 811.136,-140.462 820.18,-145.981 821.648,-139.136"/>
</g>
<!-- Node17&#45;&gt;Node19 -->
<g id="edge28" class="edge"><title>Node17&#45;&gt;Node19</title>
<path fill="none" stroke="midnightblue" d="M1314.76,-235.444C1336.32,-226.557 1370.26,-212.563 1394.79,-202.451"/>
<polygon fill="midnightblue" stroke="midnightblue" points="1396.43,-205.563 1404.34,-198.516 1393.76,-199.092 1396.43,-205.563"/>
</g>
<!-- Node17&#45;&gt;Node20 -->
<g id="edge29" class="edge"><title>Node17&#45;&gt;Node20</title>
<path fill="none" stroke="midnightblue" d="M1231.72,-237.051C1128.24,-225.506 924.323,-202.755 843.828,-193.774"/>
<polygon fill="midnightblue" stroke="midnightblue" points="844.079,-190.281 833.752,-192.65 843.302,-197.237 844.079,-190.281"/>
</g>
<!-- Node21 -->
<g id="node21" class="node"><title>Node21</title>
<polygon fill="white" stroke="#bfbfbf" points="1626.5,-179.5 1626.5,-198.5 1719.5,-198.5 1719.5,-179.5 1626.5,-179.5"/>
<text text-anchor="middle" x="1673" y="-186.5" font-family="Helvetica,sans-Serif" font-size="10.00">unordered_map</text>
</g>
<!-- Node17&#45;&gt;Node21 -->
<g id="edge31" class="edge"><title>Node17&#45;&gt;Node21</title>
<path fill="none" stroke="midnightblue" d="M1354.98,-235.48C1419,-226.509 1522.6,-211.92 1612,-199 1613.46,-198.789 1614.93,-198.576 1616.42,-198.359"/>
<polygon fill="midnightblue" stroke="midnightblue" points="1616.99,-201.814 1626.38,-196.908 1615.98,-194.887 1616.99,-201.814"/>
</g>
<!-- Node22&#45;&gt;Node3 -->
<g id="edge34" class="edge"><title>Node22&#45;&gt;Node3</title>
<path fill="none" stroke="midnightblue" d="M296.844,-235.409C248.805,-223.635 175.01,-197.403 140,-143 131.322,-129.515 130.201,-111.425 131.183,-96.9466"/>
<polygon fill="midnightblue" stroke="midnightblue" points="134.694,-97.0244 132.254,-86.7145 127.732,-96.296 134.694,-97.0244"/>
</g>
<!-- Node22&#45;&gt;Node10 -->
<g id="edge35" class="edge"><title>Node22&#45;&gt;Node10</title>
<path fill="none" stroke="midnightblue" d="M365.171,-235.402C403.776,-221.417 483.946,-193.819 554,-179 610.81,-166.982 768.503,-150.055 860.299,-140.763"/>
<polygon fill="midnightblue" stroke="midnightblue" points="860.737,-144.236 870.335,-139.751 860.035,-137.272 860.737,-144.236"/>
</g>
<!-- Node22&#45;&gt;Node13 -->
<g id="edge43" class="edge"><title>Node22&#45;&gt;Node13</title>
<path fill="none" stroke="midnightblue" d="M353.14,-235.251C364.382,-226.336 382.155,-212.011 397,-199 434.125,-166.462 434.4,-146.151 478,-123 540.805,-89.651 624.908,-78.2466 669.749,-74.4046"/>
<polygon fill="midnightblue" stroke="midnightblue" points="670.05,-77.8918 679.745,-73.619 669.502,-70.9134 670.05,-77.8918"/>
</g>
<!-- Node22&#45;&gt;Node14 -->
<g id="edge41" class="edge"><title>Node22&#45;&gt;Node14</title>
<path fill="none" stroke="midnightblue" d="M302.745,-235.475C283.004,-228.99 260.816,-217.843 249,-199 244.278,-191.469 246.389,-187.497 249,-179 257.834,-150.248 263.013,-141.147 287,-123 321.718,-96.7343 370.819,-83.7075 403.727,-77.5503"/>
<polygon fill="midnightblue" stroke="midnightblue" points="404.558,-80.9581 413.804,-75.7845 403.35,-74.0632 404.558,-80.9581"/>
</g>
<!-- Node22&#45;&gt;Node20 -->
<g id="edge42" class="edge"><title>Node22&#45;&gt;Node20</title>
<path fill="none" stroke="midnightblue" d="M403.664,-236.885C503.702,-225.342 698.037,-202.919 776.218,-193.898"/>
<polygon fill="midnightblue" stroke="midnightblue" points="776.924,-197.34 786.457,-192.716 776.122,-190.386 776.924,-197.34"/>
</g>
<!-- Node23 -->
<g id="node23" class="node"><title>Node23</title>
<g id="a_node23"><a xlink:href="serializer_8h.html" target="_top" xlink:title="Serializer extension to support TVM data types Include this file to enable serialization of DLDataTyp...">
<polygon fill="white" stroke="black" points="258,-179.5 258,-198.5 388,-198.5 388,-179.5 258,-179.5"/>
<text text-anchor="middle" x="323" y="-186.5" font-family="Helvetica,sans-Serif" font-size="10.00">tvm/runtime/serializer.h</text>
</a>
</g>
</g>
<!-- Node22&#45;&gt;Node23 -->
<g id="edge36" class="edge"><title>Node22&#45;&gt;Node23</title>
<path fill="none" stroke="midnightblue" d="M333.696,-235.083C329.669,-227.927 325.617,-217.635 323.119,-208.691"/>
<polygon fill="midnightblue" stroke="midnightblue" points="326.501,-207.774 320.948,-198.751 319.662,-209.268 326.501,-207.774"/>
</g>
<!-- Node23&#45;&gt;Node3 -->
<g id="edge39" class="edge"><title>Node23&#45;&gt;Node3</title>
<path fill="none" stroke="midnightblue" d="M308.869,-179.319C278.797,-160.843 207.838,-117.249 166.463,-91.83"/>
<polygon fill="midnightblue" stroke="midnightblue" points="168.214,-88.7978 157.862,-86.5453 164.55,-94.7622 168.214,-88.7978"/>
</g>
<!-- Node23&#45;&gt;Node18 -->
<g id="edge37" class="edge"><title>Node23&#45;&gt;Node18</title>
<path fill="none" stroke="midnightblue" d="M388.134,-180.32C484.329,-168.979 661.537,-148.085 740.82,-138.737"/>
<polygon fill="midnightblue" stroke="midnightblue" points="741.369,-142.197 750.891,-137.55 740.55,-135.245 741.369,-142.197"/>
</g>
<!-- Node23&#45;&gt;Node22 -->
<g id="edge40" class="edge"><title>Node23&#45;&gt;Node22</title>
<path fill="none" stroke="midnightblue" d="M331.21,-198.751C335.237,-205.858 339.3,-216.136 341.823,-225.101"/>
<polygon fill="midnightblue" stroke="midnightblue" points="338.453,-226.074 344.029,-235.083 345.288,-224.563 338.453,-226.074"/>
</g>
<!-- Node24 -->
<g id="node24" class="node"><title>Node24</title>
<polygon fill="white" stroke="#bfbfbf" points="296,-123.5 296,-142.5 390,-142.5 390,-123.5 296,-123.5"/>
<text text-anchor="middle" x="343" y="-130.5" font-family="Helvetica,sans-Serif" font-size="10.00">dmlc/serializer.h</text>
</g>
<!-- Node23&#45;&gt;Node24 -->
<g id="edge38" class="edge"><title>Node23&#45;&gt;Node24</title>
<path fill="none" stroke="midnightblue" d="M326.303,-179.083C328.982,-171.849 332.849,-161.409 336.186,-152.397"/>
<polygon fill="midnightblue" stroke="midnightblue" points="339.568,-153.344 339.759,-142.751 333.004,-150.913 339.568,-153.344"/>
</g>
<!-- Node25&#45;&gt;Node3 -->
<g id="edge45" class="edge"><title>Node25&#45;&gt;Node3</title>
<path fill="none" stroke="midnightblue" d="M2034.99,-235.471C1969.05,-222.52 1838.96,-197.451 1728,-179 1559.17,-150.925 1517.43,-138.735 1347,-123 929.802,-84.4808 823.531,-106.235 405,-87 338.589,-83.9479 263.025,-79.8351 208.759,-76.7692"/>
<polygon fill="midnightblue" stroke="midnightblue" points="208.723,-73.2616 198.541,-76.1901 208.327,-80.2504 208.723,-73.2616"/>
</g>
<!-- Node25&#45;&gt;Node8 -->
<g id="edge46" class="edge"><title>Node25&#45;&gt;Node8</title>
<path fill="none" stroke="midnightblue" d="M2062.83,-235.402C2022.29,-212.849 1907.46,-151.749 1804,-123 1683.82,-89.6069 1537.03,-78.221 1459.66,-74.3935"/>
<polygon fill="midnightblue" stroke="midnightblue" points="1459.36,-70.876 1449.21,-73.9021 1459.04,-77.8682 1459.36,-70.876"/>
</g>
<!-- Node25&#45;&gt;Node11 -->
<g id="edge47" class="edge"><title>Node25&#45;&gt;Node11</title>
<path fill="none" stroke="midnightblue" d="M2071.28,-235.33C2054.3,-213.882 2007.47,-157.574 1958,-123 1934.59,-106.642 1905.04,-93.4211 1882.46,-84.6158"/>
<polygon fill="midnightblue" stroke="midnightblue" points="1883.53,-81.2777 1872.94,-81.0009 1881.05,-87.8221 1883.53,-81.2777"/>
</g>
<!-- Node25&#45;&gt;Node12 -->
<g id="edge48" class="edge"><title>Node25&#45;&gt;Node12</title>
<path fill="none" stroke="midnightblue" d="M2083.86,-235.26C2102.01,-208.191 2157.52,-125.413 2181.63,-89.4622"/>
<polygon fill="midnightblue" stroke="midnightblue" points="2184.62,-91.2742 2187.29,-81.0194 2178.81,-87.3757 2184.62,-91.2742"/>
</g>
<!-- Node31&#45;&gt;Node3 -->
<g id="edge67" class="edge"><title>Node31&#45;&gt;Node3</title>
<path fill="none" stroke="midnightblue" d="M1295.42,-544.36C1205.15,-540.973 1028.72,-530.814 882,-501 792.934,-482.901 185.309,-266.096 173,-255 132.374,-218.378 132.997,-196.579 122,-143 118.809,-127.456 122.022,-109.907 126.05,-96.2069"/>
<polygon fill="midnightblue" stroke="midnightblue" points="129.418,-97.1698 129.198,-86.5772 122.764,-94.9951 129.418,-97.1698"/>
</g>
<!-- Node31&#45;&gt;Node9 -->
<g id="edge69" class="edge"><title>Node31&#45;&gt;Node9</title>
<path fill="none" stroke="midnightblue" d="M1295.45,-541.046C1225.53,-531.593 1119,-504.195 1119,-425 1119,-425 1119,-425 1119,-367 1119,-280.495 1225.46,-225.357 1281.46,-202.339"/>
<polygon fill="midnightblue" stroke="midnightblue" points="1282.98,-205.501 1290.97,-198.54 1280.38,-199 1282.98,-205.501"/>
</g>
<!-- Node31&#45;&gt;Node10 -->
<g id="edge68" class="edge"><title>Node31&#45;&gt;Node10</title>
<path fill="none" stroke="midnightblue" d="M1295.43,-542.78C1155.2,-531.491 806.853,-480.88 684,-255 644.101,-181.641 774.913,-151.957 860.533,-140.57"/>
<polygon fill="midnightblue" stroke="midnightblue" points="861.001,-144.039 870.477,-139.302 860.115,-137.095 861.001,-144.039"/>
</g>
<!-- Node31&#45;&gt;Node11 -->
<g id="edge101" class="edge"><title>Node31&#45;&gt;Node11</title>
<path fill="none" stroke="midnightblue" d="M1380.97,-537.435C1428,-522.168 1530.61,-489.984 1619,-470 1714.36,-448.441 1764.71,-500.892 1836,-434 1934.29,-341.777 1876.2,-150.073 1854.86,-90.5368"/>
<polygon fill="midnightblue" stroke="midnightblue" points="1858.09,-89.1846 1851.35,-81.012 1851.52,-91.6054 1858.09,-89.1846"/>
</g>
<!-- Node31&#45;&gt;Node12 -->
<g id="edge100" class="edge"><title>Node31&#45;&gt;Node12</title>
<path fill="none" stroke="midnightblue" d="M1414.79,-545.162C1547.67,-542.723 1863.79,-533.576 1965,-501 2151.99,-440.815 2326,-442.435 2326,-246 2326,-246 2326,-246 2326,-188 2326,-157.205 2322.89,-145.631 2302,-123 2281.45,-100.738 2249.13,-87.4813 2225.01,-80.1773"/>
<polygon fill="midnightblue" stroke="midnightblue" points="2225.81,-76.7659 2215.24,-77.4026 2223.9,-83.5 2225.81,-76.7659"/>
</g>
<!-- Node31&#45;&gt;Node16 -->
<g id="edge70" class="edge"><title>Node31&#45;&gt;Node16</title>
<path fill="none" stroke="midnightblue" d="M1353.9,-537.229C1349.69,-503.805 1334.58,-383.692 1328.05,-331.734"/>
<polygon fill="midnightblue" stroke="midnightblue" points="1331.51,-331.222 1326.79,-321.737 1324.57,-332.095 1331.51,-331.222"/>
</g>
<!-- Node31&#45;&gt;Node20 -->
<g id="edge99" class="edge"><title>Node31&#45;&gt;Node20</title>
<path fill="none" stroke="midnightblue" d="M1295.2,-540.839C1249.08,-535.244 1184.52,-523.841 1132,-501 1006.68,-446.496 983.748,-413.225 882,-322 852.238,-295.316 839.619,-290.881 822,-255 814.887,-240.515 811.968,-222.33 810.781,-208.881"/>
<polygon fill="midnightblue" stroke="midnightblue" points="814.273,-208.637 810.138,-198.882 807.287,-209.087 814.273,-208.637"/>
</g>
<!-- Node31&#45;&gt;Node22 -->
<g id="edge71" class="edge"><title>Node31&#45;&gt;Node22</title>
<path fill="none" stroke="midnightblue" d="M1295.29,-543.099C1194.67,-537.642 995.853,-524.255 930,-501 906.054,-492.544 905.417,-479.828 882,-470 814.791,-441.792 790.707,-458.333 722,-434 580.367,-383.84 422.987,-294.135 365.031,-259.846"/>
<polygon fill="midnightblue" stroke="midnightblue" points="366.68,-256.755 356.296,-254.651 363.102,-262.771 366.68,-256.755"/>
</g>
<!-- Node31&#45;&gt;Node25 -->
<g id="edge72" class="edge"><title>Node31&#45;&gt;Node25</title>
<path fill="none" stroke="midnightblue" d="M1414.69,-544.848C1539.58,-541.848 1824.42,-531.757 1916,-501 1995.15,-474.418 2019.51,-452.094 2058,-378 2070.33,-354.27 2075.02,-348.274 2080,-322 2082.56,-308.463 2080.31,-304.774 2080,-291 2079.81,-282.391 2079.41,-272.863 2079.02,-264.799"/>
<polygon fill="midnightblue" stroke="midnightblue" points="2082.51,-264.429 2078.5,-254.623 2075.52,-264.79 2082.51,-264.429"/>
</g>
<!-- Node31&#45;&gt;Node32 -->
<g id="edge73" class="edge"><title>Node31&#45;&gt;Node32</title>
<path fill="none" stroke="midnightblue" d="M1414.64,-539.631C1491.7,-531.297 1629.97,-515.983 1748,-501 1760.42,-499.424 1773.65,-497.651 1786.37,-495.899"/>
<polygon fill="midnightblue" stroke="midnightblue" points="1787.02,-499.343 1796.44,-494.503 1786.06,-492.41 1787.02,-499.343"/>
</g>
<!-- Node31&#45;&gt;Node35 -->
<g id="edge93" class="edge"><title>Node31&#45;&gt;Node35</title>
<path fill="none" stroke="midnightblue" d="M1402.14,-537.475C1458.89,-527.211 1554.53,-509.915 1618.45,-498.355"/>
<polygon fill="midnightblue" stroke="midnightblue" points="1619.21,-501.774 1628.43,-496.551 1617.96,-494.886 1619.21,-501.774"/>
</g>
<!-- Node32&#45;&gt;Node12 -->
<g id="edge92" class="edge"><title>Node32&#45;&gt;Node12</title>
<path fill="none" stroke="midnightblue" d="M1907.86,-474.31C2008.97,-452.291 2212,-390.133 2212,-246 2212,-246 2212,-246 2212,-188 2212,-153.405 2203.6,-113.745 2197.97,-91.0547"/>
<polygon fill="midnightblue" stroke="midnightblue" points="2201.29,-89.9237 2195.41,-81.1136 2194.51,-91.6707 2201.29,-89.9237"/>
</g>
<!-- Node32&#45;&gt;Node25 -->
<g id="edge74" class="edge"><title>Node32&#45;&gt;Node25</title>
<path fill="none" stroke="midnightblue" d="M1907.59,-476.493C1937.54,-469.647 1973.29,-457.054 1998,-434 2048.77,-386.633 2068.67,-301.783 2075.23,-264.468"/>
<polygon fill="midnightblue" stroke="midnightblue" points="2078.7,-264.94 2076.85,-254.507 2071.79,-263.813 2078.7,-264.94"/>
</g>
<!-- Node33 -->
<g id="node33" class="node"><title>Node33</title>
<g id="a_node33"><a xlink:href="functor_8h.html" target="_top" xlink:title="Defines the Functor data structures. ">
<polygon fill="white" stroke="black" points="916.5,-235.5 916.5,-254.5 1023.5,-254.5 1023.5,-235.5 916.5,-235.5"/>
<text text-anchor="middle" x="970" y="-242.5" font-family="Helvetica,sans-Serif" font-size="10.00">tvm/node/functor.h</text>
</a>
</g>
</g>
<!-- Node32&#45;&gt;Node33 -->
<g id="edge75" class="edge"><title>Node32&#45;&gt;Node33</title>
<path fill="none" stroke="midnightblue" d="M1796.26,-476.504C1631.64,-452.842 1158.14,-384.41 1143,-378 1076.82,-349.986 1013.47,-290.722 985.287,-262.117"/>
<polygon fill="midnightblue" stroke="midnightblue" points="987.474,-259.344 978,-254.602 982.449,-264.217 987.474,-259.344"/>
</g>
<!-- Node32&#45;&gt;Node34 -->
<g id="edge81" class="edge"><title>Node32&#45;&gt;Node34</title>
<path fill="none" stroke="midnightblue" d="M1832.09,-470.399C1819.01,-461.129 1801.92,-449.025 1788.68,-439.647"/>
<polygon fill="midnightblue" stroke="midnightblue" points="1790.41,-436.582 1780.22,-433.658 1786.36,-442.294 1790.41,-436.582"/>
</g>
<!-- Node33&#45;&gt;Node8 -->
<g id="edge76" class="edge"><title>Node33&#45;&gt;Node8</title>
<path fill="none" stroke="midnightblue" d="M991.339,-235.431C1022.46,-222.949 1082.13,-199.066 1133,-179 1220.41,-144.524 1323.78,-104.363 1374.6,-84.6626"/>
<polygon fill="midnightblue" stroke="midnightblue" points="1375.98,-87.8807 1384.04,-81.0032 1373.45,-81.3538 1375.98,-87.8807"/>
</g>
<!-- Node33&#45;&gt;Node10 -->
<g id="edge77" class="edge"><title>Node33&#45;&gt;Node10</title>
<path fill="none" stroke="midnightblue" d="M966.783,-235.368C960.136,-217.537 944.765,-176.295 935.81,-152.272"/>
<polygon fill="midnightblue" stroke="midnightblue" points="938.974,-150.739 932.202,-142.591 932.415,-153.184 938.974,-150.739"/>
</g>
<!-- Node33&#45;&gt;Node11 -->
<g id="edge79" class="edge"><title>Node33&#45;&gt;Node11</title>
<path fill="none" stroke="midnightblue" d="M999.448,-235.445C1075,-213.77 1282.14,-156.075 1458,-123 1582.39,-99.6052 1731.14,-83.6112 1803.74,-76.5675"/>
<polygon fill="midnightblue" stroke="midnightblue" points="1804.27,-80.0331 1813.89,-75.5934 1803.6,-73.0651 1804.27,-80.0331"/>
</g>
<!-- Node33&#45;&gt;Node13 -->
<g id="edge80" class="edge"><title>Node33&#45;&gt;Node13</title>
<path fill="none" stroke="midnightblue" d="M961.193,-235.395C939.034,-214.094 878.541,-158.096 820,-123 791.578,-105.96 756.354,-91.7769 731.63,-82.8234"/>
<polygon fill="midnightblue" stroke="midnightblue" points="732.648,-79.4711 722.054,-79.4267 730.308,-86.0684 732.648,-79.4711"/>
</g>
<!-- Node33&#45;&gt;Node20 -->
<g id="edge78" class="edge"><title>Node33&#45;&gt;Node20</title>
<path fill="none" stroke="midnightblue" d="M944.648,-235.444C917.256,-226.199 873.491,-211.428 843.332,-201.25"/>
<polygon fill="midnightblue" stroke="midnightblue" points="844.263,-197.87 833.669,-197.988 842.025,-204.502 844.263,-197.87"/>
</g>
<!-- Node34&#45;&gt;Node7 -->
<g id="edge85" class="edge"><title>Node34&#45;&gt;Node7</title>
<path fill="none" stroke="midnightblue" d="M1729.81,-414.444C1687.86,-405.043 1620.41,-389.929 1574.93,-379.739"/>
<polygon fill="midnightblue" stroke="midnightblue" points="1575.53,-376.288 1565.01,-377.516 1574,-383.118 1575.53,-376.288"/>
</g>
<!-- Node34&#45;&gt;Node9 -->
<g id="edge83" class="edge"><title>Node34&#45;&gt;Node9</title>
<path fill="none" stroke="midnightblue" d="M1766.39,-414.442C1761.85,-392.11 1747.18,-331.031 1716,-291 1689.78,-257.331 1677.62,-250.851 1638,-235 1626.54,-230.414 1480.69,-211.18 1388.94,-199.392"/>
<polygon fill="midnightblue" stroke="midnightblue" points="1389.23,-195.9 1378.86,-198.099 1388.34,-202.843 1389.23,-195.9"/>
</g>
<!-- Node34&#45;&gt;Node10 -->
<g id="edge82" class="edge"><title>Node34&#45;&gt;Node10</title>
<path fill="none" stroke="midnightblue" d="M1708.17,-422.354C1601.19,-419.082 1372.22,-402.362 1200,-322 1095.36,-273.173 987.418,-184.616 946.305,-149.218"/>
<polygon fill="midnightblue" stroke="midnightblue" points="948.418,-146.417 938.572,-142.505 943.829,-151.703 948.418,-146.417"/>
</g>
<!-- Node34&#45;&gt;Node11 -->
<g id="edge86" class="edge"><title>Node34&#45;&gt;Node11</title>
<path fill="none" stroke="midnightblue" d="M1775.17,-414.287C1781.9,-405.628 1791.7,-391.697 1797,-378 1836.85,-274.922 1845.59,-140.448 1847.48,-91.4253"/>
<polygon fill="midnightblue" stroke="midnightblue" points="1850.98,-91.4541 1847.82,-81.343 1843.99,-91.2207 1850.98,-91.4541"/>
</g>
<!-- Node34&#45;&gt;Node12 -->
<g id="edge91" class="edge"><title>Node34&#45;&gt;Node12</title>
<path fill="none" stroke="midnightblue" d="M1778.51,-414.336C1834.89,-367.839 2101.73,-147.769 2174.59,-87.6866"/>
<polygon fill="midnightblue" stroke="midnightblue" points="2176.99,-90.2377 2182.48,-81.175 2172.54,-84.8373 2176.99,-90.2377"/>
</g>
<!-- Node34&#45;&gt;Node13 -->
<g id="edge90" class="edge"><title>Node34&#45;&gt;Node13</title>
<path fill="none" stroke="midnightblue" d="M1708.16,-423.796C1585.39,-424.423 1296.62,-420.728 1059,-378 974.031,-362.721 949.462,-362.086 873,-322 778.495,-272.455 745.442,-244.653 713,-143 707.579,-126.014 704.464,-105.9 702.773,-91.5122"/>
<polygon fill="midnightblue" stroke="midnightblue" points="706.234,-90.9494 701.706,-81.3706 699.272,-91.682 706.234,-90.9494"/>
</g>
<!-- Node34&#45;&gt;Node16 -->
<g id="edge84" class="edge"><title>Node34&#45;&gt;Node16</title>
<path fill="none" stroke="midnightblue" d="M1708.28,-420.956C1643.61,-417.27 1538.15,-406.942 1452,-378 1416.02,-365.912 1378.45,-343.667 1353.59,-327.388"/>
<polygon fill="midnightblue" stroke="midnightblue" points="1355.3,-324.32 1345.04,-321.69 1351.42,-330.146 1355.3,-324.32"/>
</g>
<!-- Node34&#45;&gt;Node20 -->
<g id="edge87" class="edge"><title>Node34&#45;&gt;Node20</title>
<path fill="none" stroke="midnightblue" d="M1708.35,-423.459C1596.42,-423.275 1347.75,-417.901 1143,-378 1063.68,-362.541 1044.66,-352.943 970,-322 909.588,-296.962 883.997,-302.453 839,-255 826.655,-241.982 818.985,-222.823 814.658,-208.676"/>
<polygon fill="midnightblue" stroke="midnightblue" points="817.916,-207.324 811.879,-198.617 811.169,-209.188 817.916,-207.324"/>
</g>
<!-- Node34&#45;&gt;Node21 -->
<g id="edge89" class="edge"><title>Node34&#45;&gt;Node21</title>
<path fill="none" stroke="midnightblue" d="M1771.1,-414.191C1780.6,-385.517 1806.4,-293.346 1768,-235 1757.59,-219.179 1740,-208.79 1722.78,-202.029"/>
<polygon fill="midnightblue" stroke="midnightblue" points="1723.88,-198.708 1713.29,-198.634 1721.53,-205.299 1723.88,-198.708"/>
</g>
<!-- Node34&#45;&gt;Node30 -->
<g id="edge88" class="edge"><title>Node34&#45;&gt;Node30</title>
<path fill="none" stroke="midnightblue" d="M1759.21,-414.319C1739.64,-395.004 1692.27,-348.237 1667.19,-323.483"/>
<polygon fill="midnightblue" stroke="midnightblue" points="1669.47,-320.817 1659.9,-316.282 1664.55,-325.798 1669.47,-320.817"/>
</g>
<!-- Node35&#45;&gt;Node12 -->
<g id="edge97" class="edge"><title>Node35&#45;&gt;Node12</title>
<path fill="none" stroke="midnightblue" d="M1739.59,-477.011C1804.59,-467.674 1907.78,-450.878 1943,-434 2054.21,-380.708 2091.87,-360.931 2155,-255 2186.71,-201.798 2192.24,-126.155 2193.02,-91.3512"/>
<polygon fill="midnightblue" stroke="midnightblue" points="2196.52,-91.2429 2193.13,-81.2051 2189.52,-91.1661 2196.52,-91.2429"/>
</g>
<!-- Node35&#45;&gt;Node25 -->
<g id="edge94" class="edge"><title>Node35&#45;&gt;Node25</title>
<path fill="none" stroke="midnightblue" d="M1739.51,-476.49C1798.07,-467.321 1885.84,-451.318 1915,-434 1988.65,-390.266 2045.99,-301.497 2068.11,-263.691"/>
<polygon fill="midnightblue" stroke="midnightblue" points="2071.24,-265.262 2073.18,-254.846 2065.17,-261.78 2071.24,-265.262"/>
</g>
<!-- Node35&#45;&gt;Node26 -->
<g id="edge98" class="edge"><title>Node35&#45;&gt;Node26</title>
<path fill="none" stroke="midnightblue" d="M1687.26,-470.259C1696,-430.614 1717.97,-319.985 1698,-291 1680.9,-266.184 1648.15,-255.044 1621.48,-250.048"/>
<polygon fill="midnightblue" stroke="midnightblue" points="1622.04,-246.592 1611.61,-248.418 1620.9,-253.499 1622.04,-246.592"/>
</g>
<!-- Node35&#45;&gt;Node33 -->
<g id="edge95" class="edge"><title>Node35&#45;&gt;Node33</title>
<path fill="none" stroke="midnightblue" d="M1628.28,-484.49C1479.18,-483.196 1076.57,-470.988 991,-378 962.413,-346.934 963.852,-293.355 967.078,-264.953"/>
<polygon fill="midnightblue" stroke="midnightblue" points="970.583,-265.147 968.439,-254.772 963.644,-264.22 970.583,-265.147"/>
</g>
<!-- Node35&#45;&gt;Node34 -->
<g id="edge96" class="edge"><title>Node35&#45;&gt;Node34</title>
<path fill="none" stroke="midnightblue" d="M1703.91,-470.399C1716.99,-461.129 1734.08,-449.025 1747.32,-439.647"/>
<polygon fill="midnightblue" stroke="midnightblue" points="1749.64,-442.294 1755.78,-433.658 1745.59,-436.582 1749.64,-442.294"/>
</g>
<!-- Node36&#45;&gt;Node33 -->
<g id="edge103" class="edge"><title>Node36&#45;&gt;Node33</title>
<path fill="none" stroke="midnightblue" d="M759.26,-537.345C789.146,-496.029 917.509,-318.568 957.831,-262.824"/>
<polygon fill="midnightblue" stroke="midnightblue" points="960.689,-264.844 963.714,-254.69 955.017,-260.741 960.689,-264.844"/>
</g>
<!-- Node37 -->
<g id="node37" class="node"><title>Node37</title>
<polygon fill="white" stroke="#bfbfbf" points="704.5,-476 704.5,-495 763.5,-495 763.5,-476 704.5,-476"/>
<text text-anchor="middle" x="734" y="-483" font-family="Helvetica,sans-Serif" font-size="10.00">iostream</text>
</g>
<!-- Node36&#45;&gt;Node37 -->
<g id="edge104" class="edge"><title>Node36&#45;&gt;Node37</title>
<path fill="none" stroke="midnightblue" d="M750.278,-537.475C747.569,-528.992 743.326,-515.704 739.851,-504.822"/>
<polygon fill="midnightblue" stroke="midnightblue" points="743.093,-503.47 736.717,-495.009 736.425,-505.6 743.093,-503.47"/>
</g>
<!-- Node38&#45;&gt;Node2 -->
<g id="edge115" class="edge"><title>Node38&#45;&gt;Node2</title>
<path fill="none" stroke="midnightblue" d="M2147.88,-761.202C2154.54,-747.898 2164.4,-722.375 2153,-705 2118.71,-652.74 2084.23,-665.706 2024,-649 1927.95,-622.358 1812.13,-611.317 1743.47,-606.866"/>
<polygon fill="midnightblue" stroke="midnightblue" points="1743.47,-603.359 1733.27,-606.231 1743.04,-610.346 1743.47,-603.359"/>
</g>
<!-- Node38&#45;&gt;Node10 -->
<g id="edge114" class="edge"><title>Node38&#45;&gt;Node10</title>
<path fill="none" stroke="midnightblue" d="M2104.43,-769.706C1844.28,-767.479 356,-750.772 356,-660 356,-660 356,-660 356,-484.5 356,-317.439 425.003,-252.555 575,-179 599.99,-166.746 764.329,-149.522 860.069,-140.343"/>
<polygon fill="midnightblue" stroke="midnightblue" points="860.628,-143.806 870.251,-139.373 859.964,-136.838 860.628,-143.806"/>
</g>
<!-- Node38&#45;&gt;Node11 -->
<g id="edge131" class="edge"><title>Node38&#45;&gt;Node11</title>
<path fill="none" stroke="midnightblue" d="M2181.75,-767.871C2245.13,-762.071 2364,-740.466 2364,-660 2364,-660 2364,-660 2364,-484.5 2364,-373.248 2288,-357.252 2288,-246 2288,-246 2288,-246 2288,-188 2288,-106.805 2004.15,-81.5293 1892.42,-74.7253"/>
<polygon fill="midnightblue" stroke="midnightblue" points="1892.35,-71.2152 1882.16,-74.1233 1891.94,-78.2031 1892.35,-71.2152"/>
</g>
<!-- Node38&#45;&gt;Node12 -->
<g id="edge128" class="edge"><title>Node38&#45;&gt;Node12</title>
<path fill="none" stroke="midnightblue" d="M2181.61,-769.707C2230.26,-767.806 2315.09,-759.298 2378,-725 2413.05,-705.891 2440,-699.923 2440,-660 2440,-660 2440,-660 2440,-546 2440,-465.541 2478,-449.459 2478,-369 2478,-369 2478,-369 2478,-188 2478,-152.35 2460.88,-142.445 2431,-123 2366.82,-81.2326 2274.18,-73.2959 2225.58,-72.2208"/>
<polygon fill="midnightblue" stroke="midnightblue" points="2225.39,-68.718 2215.34,-72.0829 2225.29,-75.7173 2225.39,-68.718"/>
</g>
<!-- Node38&#45;&gt;Node28 -->
<g id="edge130" class="edge"><title>Node38&#45;&gt;Node28</title>
<path fill="none" stroke="midnightblue" d="M2104.34,-770.044C1849.77,-770.207 421.737,-769.149 342,-725 311.697,-708.222 299,-694.638 299,-660 299,-660 299,-660 299,-367 299,-320.058 254.111,-280.736 225.724,-260.562"/>
<polygon fill="midnightblue" stroke="midnightblue" points="227.393,-257.463 217.165,-254.7 223.438,-263.239 227.393,-257.463"/>
</g>
<!-- Node38&#45;&gt;Node34 -->
<g id="edge116" class="edge"><title>Node38&#45;&gt;Node34</title>
<path fill="none" stroke="midnightblue" d="M2150.15,-761.364C2156.77,-752.763 2166.16,-738.873 2170,-725 2172.37,-716.434 2172.14,-713.628 2170,-705 2141.61,-590.37 2141.92,-538.892 2046,-470 2013.54,-446.689 1909.19,-434.8 1837.99,-429.251"/>
<polygon fill="midnightblue" stroke="midnightblue" points="1837.98,-425.74 1827.74,-428.478 1837.45,-432.72 1837.98,-425.74"/>
</g>
<!-- Node39 -->
<g id="node39" class="node"><title>Node39</title>
<g id="a_node39"><a xlink:href="span_8h.html" target="_top" xlink:title="Span information for debugging purposes. ">
<polygon fill="white" stroke="black" points="1914,-649.5 1914,-668.5 1994,-668.5 1994,-649.5 1914,-649.5"/>
<text text-anchor="middle" x="1954" y="-656.5" font-family="Helvetica,sans-Serif" font-size="10.00">tvm/ir/span.h</text>
</a>
</g>
</g>
<!-- Node38&#45;&gt;Node39 -->
<g id="edge117" class="edge"><title>Node38&#45;&gt;Node39</title>
<path fill="none" stroke="midnightblue" d="M2104.21,-769.394C2067.07,-766.763 2011.7,-757.181 1977,-725 1963.99,-712.936 1958.34,-693.052 1955.88,-678.448"/>
<polygon fill="midnightblue" stroke="midnightblue" points="1959.35,-677.976 1954.56,-668.526 1952.41,-678.901 1959.35,-677.976"/>
</g>
<!-- Node40 -->
<g id="node40" class="node"><title>Node40</title>
<g id="a_node40"><a xlink:href="ir_2type_8h.html" target="_top" xlink:title="IR/AST nodes for the unified type system in TVM. ">
<polygon fill="white" stroke="black" points="1986.5,-705.5 1986.5,-724.5 2063.5,-724.5 2063.5,-705.5 1986.5,-705.5"/>
<text text-anchor="middle" x="2025" y="-712.5" font-family="Helvetica,sans-Serif" font-size="10.00">tvm/ir/type.h</text>
</a>
</g>
</g>
<!-- Node38&#45;&gt;Node40 -->
<g id="edge121" class="edge"><title>Node38&#45;&gt;Node40</title>
<path fill="none" stroke="midnightblue" d="M2124.3,-761.444C2105.06,-752.636 2074.85,-738.812 2052.8,-728.722"/>
<polygon fill="midnightblue" stroke="midnightblue" points="2054.16,-725.495 2043.61,-724.516 2051.25,-731.86 2054.16,-725.495"/>
</g>
<!-- Node41 -->
<g id="node41" class="node"><title>Node41</title>
<polygon fill="white" stroke="#bfbfbf" points="2082,-705.5 2082,-724.5 2144,-724.5 2144,-705.5 2082,-705.5"/>
<text text-anchor="middle" x="2113" y="-712.5" font-family="Helvetica,sans-Serif" font-size="10.00">algorithm</text>
</g>
<!-- Node38&#45;&gt;Node41 -->
<g id="edge129" class="edge"><title>Node38&#45;&gt;Node41</title>
<path fill="none" stroke="midnightblue" d="M2138.05,-761.083C2133.9,-753.613 2127.85,-742.724 2122.73,-733.52"/>
<polygon fill="midnightblue" stroke="midnightblue" points="2125.78,-731.793 2117.86,-724.751 2119.66,-735.192 2125.78,-731.793"/>
</g>
<!-- Node39&#45;&gt;Node2 -->
<g id="edge119" class="edge"><title>Node39&#45;&gt;Node2</title>
<path fill="none" stroke="midnightblue" d="M1913.87,-649.974C1866.77,-640.554 1788.52,-624.903 1736.6,-614.519"/>
<polygon fill="midnightblue" stroke="midnightblue" points="1737.07,-611.045 1726.58,-612.516 1735.7,-617.909 1737.07,-611.045"/>
</g>
<!-- Node39&#45;&gt;Node10 -->
<g id="edge118" class="edge"><title>Node39&#45;&gt;Node10</title>
<path fill="none" stroke="midnightblue" d="M1913.74,-657.199C1702.19,-652.7 724.657,-628.163 612,-557 564.11,-526.749 546,-370.27 546,-369 546,-369 546,-369 546,-305.5 546,-232.717 584.77,-211.287 650,-179 685.938,-161.212 789.732,-147.793 860.075,-140.416"/>
<polygon fill="midnightblue" stroke="midnightblue" points="860.611,-143.879 870.199,-139.372 859.893,-136.916 860.611,-143.879"/>
</g>
<!-- Node39&#45;&gt;Node12 -->
<g id="edge120" class="edge"><title>Node39&#45;&gt;Node12</title>
<path fill="none" stroke="midnightblue" d="M1994.15,-651.845C2104.11,-632.486 2402,-562.212 2402,-369 2402,-369 2402,-369 2402,-188 2402,-108.383 2284.38,-83.2204 2225.61,-75.6169"/>
<polygon fill="midnightblue" stroke="midnightblue" points="2225.71,-72.1038 2215.37,-74.3923 2224.88,-79.0543 2225.71,-72.1038"/>
</g>
<!-- Node40&#45;&gt;Node2 -->
<g id="edge124" class="edge"><title>Node40&#45;&gt;Node2</title>
<path fill="none" stroke="midnightblue" d="M2024.79,-705.251C2023.94,-691.048 2020.06,-663.144 2003,-649 1964.55,-617.118 1824.47,-607.819 1743.29,-605.11"/>
<polygon fill="midnightblue" stroke="midnightblue" points="1743.31,-601.609 1733.21,-604.797 1743.1,-608.606 1743.31,-601.609"/>
</g>
<!-- Node40&#45;&gt;Node10 -->
<g id="edge122" class="edge"><title>Node40&#45;&gt;Node10</title>
<path fill="none" stroke="midnightblue" d="M1986.29,-713.474C1739.3,-709.874 394,-686.48 394,-604 394,-604 394,-604 394,-484.5 394,-401.612 533.814,-215.972 608,-179 630.104,-167.984 772.84,-150.915 860.369,-141.275"/>
<polygon fill="midnightblue" stroke="midnightblue" points="860.936,-144.734 870.495,-140.166 860.173,-137.776 860.936,-144.734"/>
</g>
<!-- Node40&#45;&gt;Node12 -->
<g id="edge127" class="edge"><title>Node40&#45;&gt;Node12</title>
<path fill="none" stroke="midnightblue" d="M2054.51,-705.482C2149.32,-676.122 2440,-569.739 2440,-369 2440,-369 2440,-369 2440,-188 2440,-94.3111 2292.37,-76.4515 2225.38,-73.1702"/>
<polygon fill="midnightblue" stroke="midnightblue" points="2225.49,-69.6719 2215.36,-72.7594 2225.2,-76.666 2225.49,-69.6719"/>
</g>
<!-- Node40&#45;&gt;Node25 -->
<g id="edge123" class="edge"><title>Node40&#45;&gt;Node25</title>
<path fill="none" stroke="midnightblue" d="M2035.93,-705.21C2061.98,-683.451 2127.25,-623.97 2150,-557 2186.94,-448.237 2116.87,-311.737 2088.85,-263.701"/>
<polygon fill="midnightblue" stroke="midnightblue" points="2091.69,-261.631 2083.57,-254.835 2085.68,-265.217 2091.69,-261.631"/>
</g>
<!-- Node40&#45;&gt;Node34 -->
<g id="edge125" class="edge"><title>Node40&#45;&gt;Node34</title>
<path fill="none" stroke="midnightblue" d="M2029.72,-705.456C2039.27,-687.337 2060,-643.48 2060,-604 2060,-604 2060,-604 2060,-546 2060,-450.196 1924.19,-428.788 1837.81,-424.861"/>
<polygon fill="midnightblue" stroke="midnightblue" points="1837.92,-421.363 1827.8,-424.473 1837.65,-428.358 1837.92,-421.363"/>
</g>
<!-- Node40&#45;&gt;Node39 -->
<g id="edge126" class="edge"><title>Node40&#45;&gt;Node39</title>
<path fill="none" stroke="midnightblue" d="M2013.59,-705.324C2002.89,-697.185 1986.66,-684.839 1973.84,-675.087"/>
<polygon fill="midnightblue" stroke="midnightblue" points="1975.69,-672.102 1965.61,-668.834 1971.46,-677.673 1975.69,-672.102"/>
</g>
</g>
</svg>
