<?xml version="1.0" encoding="UTF-8" standalone="no"?>
<!DOCTYPE svg PUBLIC "-//W3C//DTD SVG 1.1//EN"
 "http://www.w3.org/Graphics/SVG/1.1/DTD/svg11.dtd">
<!-- Generated by graphviz version 2.38.0 (20140413.2041)
 -->
<!-- Title: include/tvm/runtime/vm.h Pages: 1 -->
<svg width="1322pt" height="442pt"
 viewBox="0.00 0.00 1322.00 442.00" xmlns="http://www.w3.org/2000/svg" xmlns:xlink="http://www.w3.org/1999/xlink">
<g id="graph0" class="graph" transform="scale(1 1) rotate(0) translate(4 438)">
<title>include/tvm/runtime/vm.h</title>
<polygon fill="white" stroke="none" points="-4,4 -4,-438 1318,-438 1318,4 -4,4"/>
<!-- Node1 -->
<g id="node1" class="node"><title>Node1</title>
<polygon fill="#bfbfbf" stroke="black" points="612,-414.5 612,-433.5 752,-433.5 752,-414.5 612,-414.5"/>
<text text-anchor="middle" x="682" y="-421.5" font-family="Helvetica,sans-Serif" font-size="10.00">include/tvm/runtime/vm.h</text>
</g>
<!-- Node2 -->
<g id="node2" class="node"><title>Node2</title>
<g id="a_node2"><a xlink:href="object_8h.html" target="_top" xlink:title="A managed object in the TVM runtime. ">
<polygon fill="white" stroke="black" points="360.5,-123.5 360.5,-142.5 477.5,-142.5 477.5,-123.5 360.5,-123.5"/>
<text text-anchor="middle" x="419" y="-130.5" font-family="Helvetica,sans-Serif" font-size="10.00">tvm/runtime/object.h</text>
</a>
</g>
</g>
<!-- Node1&#45;&gt;Node2 -->
<g id="edge1" class="edge"><title>Node1&#45;&gt;Node2</title>
<path fill="none" stroke="midnightblue" d="M652,-414.465C581.939,-392.608 409.386,-327.109 355,-199 351.526,-190.818 350.903,-186.889 355,-179 362.153,-165.226 375.671,-154.783 388.447,-147.441"/>
<polygon fill="midnightblue" stroke="midnightblue" points="390.317,-150.412 397.517,-142.64 387.042,-144.225 390.317,-150.412"/>
</g>
<!-- Node9 -->
<g id="node9" class="node"><title>Node9</title>
<polygon fill="white" stroke="#bfbfbf" points="1098,-62 1098,-81 1142,-81 1142,-62 1098,-62"/>
<text text-anchor="middle" x="1120" y="-69" font-family="Helvetica,sans-Serif" font-size="10.00">string</text>
</g>
<!-- Node1&#45;&gt;Node9 -->
<g id="edge60" class="edge"><title>Node1&#45;&gt;Node9</title>
<path fill="none" stroke="midnightblue" d="M752.05,-417.477C916.599,-403.565 1314,-364.106 1314,-307.5 1314,-307.5 1314,-307.5 1314,-188 1314,-113.615 1207.4,-86.043 1152.24,-76.7556"/>
<polygon fill="midnightblue" stroke="midnightblue" points="1152.68,-73.2821 1142.25,-75.1801 1151.59,-80.1965 1152.68,-73.2821"/>
</g>
<!-- Node10 -->
<g id="node10" class="node"><title>Node10</title>
<polygon fill="white" stroke="#bfbfbf" points="74,-62 74,-81 116,-81 116,-62 74,-62"/>
<text text-anchor="middle" x="95" y="-69" font-family="Helvetica,sans-Serif" font-size="10.00">utility</text>
</g>
<!-- Node1&#45;&gt;Node10 -->
<g id="edge62" class="edge"><title>Node1&#45;&gt;Node10</title>
<path fill="none" stroke="midnightblue" d="M611.901,-418.425C437.866,-406.132 0,-369.083 0,-307.5 0,-307.5 0,-307.5 0,-188 0,-143.018 43.5101,-106.021 71.6387,-86.8025"/>
<polygon fill="midnightblue" stroke="midnightblue" points="73.725,-89.6196 80.1562,-81.2 69.8782,-83.7713 73.725,-89.6196"/>
</g>
<!-- Node12 -->
<g id="node12" class="node"><title>Node12</title>
<g id="a_node12"><a xlink:href="runtime_2memory_8h.html" target="_top" xlink:title="Runtime memory management. ">
<polygon fill="white" stroke="black" points="180.5,-179.5 180.5,-198.5 307.5,-198.5 307.5,-179.5 180.5,-179.5"/>
<text text-anchor="middle" x="244" y="-186.5" font-family="Helvetica,sans-Serif" font-size="10.00">tvm/runtime/memory.h</text>
</a>
</g>
</g>
<!-- Node1&#45;&gt;Node12 -->
<g id="edge11" class="edge"><title>Node1&#45;&gt;Node12</title>
<path fill="none" stroke="midnightblue" d="M637.969,-414.468C558.587,-397.103 389.911,-350.899 284,-255 269.457,-241.832 258.356,-222.153 251.58,-207.899"/>
<polygon fill="midnightblue" stroke="midnightblue" points="254.715,-206.336 247.424,-198.649 248.33,-209.205 254.715,-206.336"/>
</g>
<!-- Node14 -->
<g id="node14" class="node"><title>Node14</title>
<g id="a_node14"><a xlink:href="packed__func_8h.html" target="_top" xlink:title="Type&#45;erased function used across TVM API. ">
<polygon fill="white" stroke="black" points="670.5,-291.5 670.5,-321.5 783.5,-321.5 783.5,-291.5 670.5,-291.5"/>
<text text-anchor="start" x="678.5" y="-309.5" font-family="Helvetica,sans-Serif" font-size="10.00">tvm/runtime/packed</text>
<text text-anchor="middle" x="727" y="-298.5" font-family="Helvetica,sans-Serif" font-size="10.00">_func.h</text>
</a>
</g>
</g>
<!-- Node1&#45;&gt;Node14 -->
<g id="edge16" class="edge"><title>Node1&#45;&gt;Node14</title>
<path fill="none" stroke="midnightblue" d="M683.954,-414.412C686.947,-401.804 693.152,-377.653 701,-358 704.667,-348.818 709.45,-339.081 713.912,-330.634"/>
<polygon fill="midnightblue" stroke="midnightblue" points="717.044,-332.2 718.737,-321.742 710.891,-328.862 717.044,-332.2"/>
</g>
<!-- Node17 -->
<g id="node17" class="node"><title>Node17</title>
<polygon fill="white" stroke="#bfbfbf" points="364.5,-179.5 364.5,-198.5 421.5,-198.5 421.5,-179.5 364.5,-179.5"/>
<text text-anchor="middle" x="393" y="-186.5" font-family="Helvetica,sans-Serif" font-size="10.00">memory</text>
</g>
<!-- Node1&#45;&gt;Node17 -->
<g id="edge59" class="edge"><title>Node1&#45;&gt;Node17</title>
<path fill="none" stroke="midnightblue" d="M657.467,-414.494C604.66,-394.928 479.623,-341.643 413,-255 402.664,-241.559 397.631,-222.743 395.203,-208.812"/>
<polygon fill="midnightblue" stroke="midnightblue" points="398.663,-208.278 393.764,-198.884 391.735,-209.282 398.663,-208.278"/>
</g>
<!-- Node18 -->
<g id="node18" class="node"><title>Node18</title>
<polygon fill="white" stroke="#bfbfbf" points="1013.5,-179.5 1013.5,-198.5 1060.5,-198.5 1060.5,-179.5 1013.5,-179.5"/>
<text text-anchor="middle" x="1037" y="-186.5" font-family="Helvetica,sans-Serif" font-size="10.00">vector</text>
</g>
<!-- Node1&#45;&gt;Node18 -->
<g id="edge63" class="edge"><title>Node1&#45;&gt;Node18</title>
<path fill="none" stroke="midnightblue" d="M744.695,-414.495C813.77,-402.754 925.817,-376.512 1007,-322 1039.7,-300.044 1051.24,-291.905 1065,-255 1071.21,-238.349 1061.46,-219.766 1051.81,-206.749"/>
<polygon fill="midnightblue" stroke="midnightblue" points="1054.34,-204.309 1045.34,-198.718 1048.89,-208.701 1054.34,-204.309"/>
</g>
<!-- Node19 -->
<g id="node19" class="node"><title>Node19</title>
<polygon fill="white" stroke="#bfbfbf" points="1078.5,-179.5 1078.5,-198.5 1171.5,-198.5 1171.5,-179.5 1078.5,-179.5"/>
<text text-anchor="middle" x="1125" y="-186.5" font-family="Helvetica,sans-Serif" font-size="10.00">unordered_map</text>
</g>
<!-- Node1&#45;&gt;Node19 -->
<g id="edge61" class="edge"><title>Node1&#45;&gt;Node19</title>
<path fill="none" stroke="midnightblue" d="M752.221,-421.227C831.719,-415.557 960.597,-394.778 1041,-322 1077.96,-288.541 1105.11,-235.203 1117.51,-207.693"/>
<polygon fill="midnightblue" stroke="midnightblue" points="1120.72,-209.074 1121.53,-198.509 1114.31,-206.266 1120.72,-209.074"/>
</g>
<!-- Node27 -->
<g id="node27" class="node"><title>Node27</title>
<g id="a_node27"><a xlink:href="registry_8h.html" target="_top" xlink:title="This file defines the TVM global function registry. ">
<polygon fill="white" stroke="black" points="710,-358.5 710,-377.5 832,-377.5 832,-358.5 710,-358.5"/>
<text text-anchor="middle" x="771" y="-365.5" font-family="Helvetica,sans-Serif" font-size="10.00">tvm/runtime/registry.h</text>
</a>
</g>
</g>
<!-- Node1&#45;&gt;Node27 -->
<g id="edge54" class="edge"><title>Node1&#45;&gt;Node27</title>
<path fill="none" stroke="midnightblue" d="M696.299,-414.324C710.183,-405.9 731.492,-392.971 747.804,-383.074"/>
<polygon fill="midnightblue" stroke="midnightblue" points="750.002,-385.834 756.736,-377.655 746.371,-379.85 750.002,-385.834"/>
</g>
<!-- Node3 -->
<g id="node3" class="node"><title>Node3</title>
<polygon fill="white" stroke="#bfbfbf" points="376,-62 376,-81 462,-81 462,-62 376,-62"/>
<text text-anchor="middle" x="419" y="-69" font-family="Helvetica,sans-Serif" font-size="10.00">dmlc/logging.h</text>
</g>
<!-- Node2&#45;&gt;Node3 -->
<g id="edge2" class="edge"><title>Node2&#45;&gt;Node3</title>
<path fill="none" stroke="midnightblue" d="M419,-123.475C419,-115.08 419,-101.981 419,-91.1631"/>
<polygon fill="midnightblue" stroke="midnightblue" points="422.5,-91.0091 419,-81.0091 415.5,-91.0091 422.5,-91.0091"/>
</g>
<!-- Node4 -->
<g id="node4" class="node"><title>Node4</title>
<g id="a_node4"><a xlink:href="c__runtime__api_8h.html" target="_top" xlink:title="tvm/runtime/c_runtime\l_api.h">
<polygon fill="white" stroke="black" points="765.5,-56.5 765.5,-86.5 892.5,-86.5 892.5,-56.5 765.5,-56.5"/>
<text text-anchor="start" x="773.5" y="-74.5" font-family="Helvetica,sans-Serif" font-size="10.00">tvm/runtime/c_runtime</text>
<text text-anchor="middle" x="829" y="-63.5" font-family="Helvetica,sans-Serif" font-size="10.00">_api.h</text>
</a>
</g>
</g>
<!-- Node2&#45;&gt;Node4 -->
<g id="edge3" class="edge"><title>Node2&#45;&gt;Node4</title>
<path fill="none" stroke="midnightblue" d="M477.743,-123.475C550.895,-112.859 675.89,-94.7196 755.368,-83.1856"/>
<polygon fill="midnightblue" stroke="midnightblue" points="755.915,-86.643 765.308,-81.7431 754.909,-79.7156 755.915,-86.643"/>
</g>
<!-- Node8 -->
<g id="node8" class="node"><title>Node8</title>
<polygon fill="white" stroke="#bfbfbf" points="275,-62 275,-81 343,-81 343,-62 275,-62"/>
<text text-anchor="middle" x="309" y="-69" font-family="Helvetica,sans-Serif" font-size="10.00">type_traits</text>
</g>
<!-- Node2&#45;&gt;Node8 -->
<g id="edge7" class="edge"><title>Node2&#45;&gt;Node8</title>
<path fill="none" stroke="midnightblue" d="M403.24,-123.475C385.024,-113.622 354.827,-97.2883 333.532,-85.7697"/>
<polygon fill="midnightblue" stroke="midnightblue" points="335.192,-82.6883 324.731,-81.0091 331.862,-88.8453 335.192,-82.6883"/>
</g>
<!-- Node2&#45;&gt;Node9 -->
<g id="edge8" class="edge"><title>Node2&#45;&gt;Node9</title>
<path fill="none" stroke="midnightblue" d="M477.582,-124.05C480.766,-123.679 483.921,-123.326 487,-123 716.629,-98.6608 994.25,-80.3433 1087.61,-74.4872"/>
<polygon fill="midnightblue" stroke="midnightblue" points="1088.05,-77.9663 1097.82,-73.8506 1087.62,-70.9799 1088.05,-77.9663"/>
</g>
<!-- Node2&#45;&gt;Node10 -->
<g id="edge9" class="edge"><title>Node2&#45;&gt;Node10</title>
<path fill="none" stroke="midnightblue" d="M372.579,-123.475C305.535,-111.163 183.386,-88.7313 126.152,-78.2208"/>
<polygon fill="midnightblue" stroke="midnightblue" points="126.717,-74.766 116.249,-76.4022 125.452,-81.6509 126.717,-74.766"/>
</g>
<!-- Node11 -->
<g id="node11" class="node"><title>Node11</title>
<polygon fill="white" stroke="#bfbfbf" points="558,-62 558,-81 608,-81 608,-62 558,-62"/>
<text text-anchor="middle" x="583" y="-69" font-family="Helvetica,sans-Serif" font-size="10.00">atomic</text>
</g>
<!-- Node2&#45;&gt;Node11 -->
<g id="edge10" class="edge"><title>Node2&#45;&gt;Node11</title>
<path fill="none" stroke="midnightblue" d="M442.497,-123.475C470.629,-113.269 517.929,-96.108 549.789,-84.5492"/>
<polygon fill="midnightblue" stroke="midnightblue" points="551.34,-87.7098 559.546,-81.0091 548.952,-81.1295 551.34,-87.7098"/>
</g>
<!-- Node5 -->
<g id="node5" class="node"><title>Node5</title>
<polygon fill="white" stroke="#bfbfbf" points="694,-0.5 694,-19.5 784,-19.5 784,-0.5 694,-0.5"/>
<text text-anchor="middle" x="739" y="-7.5" font-family="Helvetica,sans-Serif" font-size="10.00">dlpack/dlpack.h</text>
</g>
<!-- Node4&#45;&gt;Node5 -->
<g id="edge4" class="edge"><title>Node4&#45;&gt;Node5</title>
<path fill="none" stroke="midnightblue" d="M807.671,-56.3993C793.515,-47.0402 774.989,-34.7924 760.747,-25.3771"/>
<polygon fill="midnightblue" stroke="midnightblue" points="762.368,-22.2531 752.096,-19.6578 758.507,-28.0923 762.368,-22.2531"/>
</g>
<!-- Node6 -->
<g id="node6" class="node"><title>Node6</title>
<polygon fill="white" stroke="#bfbfbf" points="802.5,-0.5 802.5,-19.5 855.5,-19.5 855.5,-0.5 802.5,-0.5"/>
<text text-anchor="middle" x="829" y="-7.5" font-family="Helvetica,sans-Serif" font-size="10.00">stdint.h</text>
</g>
<!-- Node4&#45;&gt;Node6 -->
<g id="edge5" class="edge"><title>Node4&#45;&gt;Node6</title>
<path fill="none" stroke="midnightblue" d="M829,-56.3993C829,-48.4664 829,-38.458 829,-29.8583"/>
<polygon fill="midnightblue" stroke="midnightblue" points="832.5,-29.6577 829,-19.6578 825.5,-29.6578 832.5,-29.6577"/>
</g>
<!-- Node7 -->
<g id="node7" class="node"><title>Node7</title>
<polygon fill="white" stroke="#bfbfbf" points="873.5,-0.5 873.5,-19.5 928.5,-19.5 928.5,-0.5 873.5,-0.5"/>
<text text-anchor="middle" x="901" y="-7.5" font-family="Helvetica,sans-Serif" font-size="10.00">stddef.h</text>
</g>
<!-- Node4&#45;&gt;Node7 -->
<g id="edge6" class="edge"><title>Node4&#45;&gt;Node7</title>
<path fill="none" stroke="midnightblue" d="M846.063,-56.3993C857.065,-47.3076 871.365,-35.4899 882.618,-26.1909"/>
<polygon fill="midnightblue" stroke="midnightblue" points="885.044,-28.726 890.523,-19.6578 880.585,-23.33 885.044,-28.726"/>
</g>
<!-- Node12&#45;&gt;Node2 -->
<g id="edge12" class="edge"><title>Node12&#45;&gt;Node2</title>
<path fill="none" stroke="midnightblue" d="M271.729,-179.444C301.426,-170.28 348.716,-155.688 381.669,-145.519"/>
<polygon fill="midnightblue" stroke="midnightblue" points="382.877,-148.809 391.4,-142.516 380.813,-142.121 382.877,-148.809"/>
</g>
<!-- Node12&#45;&gt;Node8 -->
<g id="edge15" class="edge"><title>Node12&#45;&gt;Node8</title>
<path fill="none" stroke="midnightblue" d="M250.319,-179.248C256.64,-170.331 266.478,-156.004 274,-143 284.02,-125.677 294.03,-105.101 300.763,-90.6636"/>
<polygon fill="midnightblue" stroke="midnightblue" points="304.038,-91.9177 305.039,-81.3702 297.679,-88.9918 304.038,-91.9177"/>
</g>
<!-- Node12&#45;&gt;Node10 -->
<g id="edge14" class="edge"><title>Node12&#45;&gt;Node10</title>
<path fill="none" stroke="midnightblue" d="M232.801,-179.319C207.561,-159.753 145.979,-112.017 114.389,-87.5295"/>
<polygon fill="midnightblue" stroke="midnightblue" points="116.377,-84.6424 106.329,-81.282 112.088,-90.1748 116.377,-84.6424"/>
</g>
<!-- Node13 -->
<g id="node13" class="node"><title>Node13</title>
<polygon fill="white" stroke="#bfbfbf" points="218.5,-123.5 218.5,-142.5 265.5,-142.5 265.5,-123.5 218.5,-123.5"/>
<text text-anchor="middle" x="242" y="-130.5" font-family="Helvetica,sans-Serif" font-size="10.00">cstdlib</text>
</g>
<!-- Node12&#45;&gt;Node13 -->
<g id="edge13" class="edge"><title>Node12&#45;&gt;Node13</title>
<path fill="none" stroke="midnightblue" d="M243.67,-179.083C243.408,-172.006 243.032,-161.861 242.703,-152.986"/>
<polygon fill="midnightblue" stroke="midnightblue" points="246.192,-152.615 242.324,-142.751 239.197,-152.874 246.192,-152.615"/>
</g>
<!-- Node14&#45;&gt;Node2 -->
<g id="edge45" class="edge"><title>Node14&#45;&gt;Node2</title>
<path fill="none" stroke="midnightblue" d="M670.144,-299.463C629.572,-293.144 574.985,-280.404 533,-255 493.967,-231.382 495.472,-212.028 464,-179 454.547,-169.079 443.69,-158.208 435.01,-149.637"/>
<polygon fill="midnightblue" stroke="midnightblue" points="437.338,-147.017 427.752,-142.505 432.431,-152.01 437.338,-147.017"/>
</g>
<!-- Node14&#45;&gt;Node3 -->
<g id="edge17" class="edge"><title>Node14&#45;&gt;Node3</title>
<path fill="none" stroke="midnightblue" d="M670.209,-301.613C623.127,-296.358 555.772,-284.008 504,-255 462.871,-231.956 468.557,-206.129 430,-179 398.444,-156.796 371.874,-175.451 351,-143 336.48,-120.426 365.713,-98.889 390.267,-85.691"/>
<polygon fill="midnightblue" stroke="midnightblue" points="392.032,-88.7198 399.348,-81.0562 388.85,-82.4849 392.032,-88.7198"/>
</g>
<!-- Node14&#45;&gt;Node4 -->
<g id="edge18" class="edge"><title>Node14&#45;&gt;Node4</title>
<path fill="none" stroke="midnightblue" d="M783.639,-301.5C895.208,-292.234 1136.41,-264.85 1180,-199 1247.56,-96.9528 1024.2,-76.6305 902.548,-72.986"/>
<polygon fill="midnightblue" stroke="midnightblue" points="902.628,-69.487 892.538,-72.7168 902.44,-76.4845 902.628,-69.487"/>
</g>
<!-- Node14&#45;&gt;Node8 -->
<g id="edge53" class="edge"><title>Node14&#45;&gt;Node8</title>
<path fill="none" stroke="midnightblue" d="M670.03,-303.592C540.936,-297.93 232.545,-276.413 171,-199 133.282,-151.558 223.742,-106.109 275.653,-84.9234"/>
<polygon fill="midnightblue" stroke="midnightblue" points="277.169,-88.087 285.165,-81.1356 274.58,-81.5836 277.169,-88.087"/>
</g>
<!-- Node14&#45;&gt;Node9 -->
<g id="edge49" class="edge"><title>Node14&#45;&gt;Node9</title>
<path fill="none" stroke="midnightblue" d="M783.714,-306.208C861.256,-305.396 1003.56,-297.492 1116,-255 1157.63,-239.269 1178.11,-238.293 1199,-199 1203.17,-191.151 1199.55,-187.872 1199,-179 1197.44,-153.966 1204.93,-144.491 1192,-123 1182.16,-106.641 1164.75,-94.2149 1149.52,-85.7821"/>
<polygon fill="midnightblue" stroke="midnightblue" points="1150.89,-82.5508 1140.4,-81.0482 1147.66,-88.7631 1150.89,-82.5508"/>
</g>
<!-- Node14&#45;&gt;Node10 -->
<g id="edge52" class="edge"><title>Node14&#45;&gt;Node10</title>
<path fill="none" stroke="midnightblue" d="M670.084,-304.071C555.895,-300.51 303.031,-288.938 224,-255 158.735,-226.974 141.802,-206.51 110,-143 101.865,-126.755 98.133,-106.26 96.426,-91.5612"/>
<polygon fill="midnightblue" stroke="midnightblue" points="99.8728,-90.833 95.4457,-81.2075 92.9039,-91.4929 99.8728,-90.833"/>
</g>
<!-- Node15 -->
<g id="node15" class="node"><title>Node15</title>
<g id="a_node15"><a xlink:href="runtime_2module_8h.html" target="_top" xlink:title="Runtime container of the functions generated by TVM, This is used to support dynamically link...">
<polygon fill="white" stroke="black" points="896,-235.5 896,-254.5 1020,-254.5 1020,-235.5 896,-235.5"/>
<text text-anchor="middle" x="958" y="-242.5" font-family="Helvetica,sans-Serif" font-size="10.00">tvm/runtime/module.h</text>
</a>
</g>
</g>
<!-- Node14&#45;&gt;Node15 -->
<g id="edge19" class="edge"><title>Node14&#45;&gt;Node15</title>
<path fill="none" stroke="midnightblue" d="M775.621,-291.475C815.24,-280.918 870.768,-266.655 910.175,-256.936"/>
<polygon fill="midnightblue" stroke="midnightblue" points="911.201,-260.288 920.079,-254.506 909.533,-253.49 911.201,-260.288"/>
</g>
<!-- Node14&#45;&gt;Node17 -->
<g id="edge51" class="edge"><title>Node14&#45;&gt;Node17</title>
<path fill="none" stroke="midnightblue" d="M670.258,-300.993C596.796,-294.261 473.712,-279.659 436,-255 418.886,-243.81 406.993,-223.179 400.12,-208.154"/>
<polygon fill="midnightblue" stroke="midnightblue" points="403.292,-206.669 396.162,-198.833 396.849,-209.405 403.292,-206.669"/>
</g>
<!-- Node14&#45;&gt;Node18 -->
<g id="edge48" class="edge"><title>Node14&#45;&gt;Node18</title>
<path fill="none" stroke="midnightblue" d="M783.598,-303.868C861.554,-300.36 996.093,-289.361 1029,-255 1040.42,-243.078 1041.46,-223.772 1040.22,-209.292"/>
<polygon fill="midnightblue" stroke="midnightblue" points="1043.64,-208.42 1038.89,-198.947 1036.69,-209.311 1043.64,-208.42"/>
</g>
<!-- Node20 -->
<g id="node20" class="node"><title>Node20</title>
<g id="a_node20"><a xlink:href="ndarray_8h.html" target="_top" xlink:title="A device&#45;independent managed NDArray abstraction. ">
<polygon fill="white" stroke="black" points="554.5,-235.5 554.5,-254.5 677.5,-254.5 677.5,-235.5 554.5,-235.5"/>
<text text-anchor="middle" x="616" y="-242.5" font-family="Helvetica,sans-Serif" font-size="10.00">tvm/runtime/ndarray.h</text>
</a>
</g>
</g>
<!-- Node14&#45;&gt;Node20 -->
<g id="edge29" class="edge"><title>Node14&#45;&gt;Node20</title>
<path fill="none" stroke="midnightblue" d="M700.695,-291.399C682.736,-281.773 659.076,-269.09 641.329,-259.577"/>
<polygon fill="midnightblue" stroke="midnightblue" points="642.619,-256.297 632.151,-254.658 639.312,-262.467 642.619,-256.297"/>
</g>
<!-- Node23 -->
<g id="node23" class="node"><title>Node23</title>
<g id="a_node23"><a xlink:href="data__type_8h.html" target="_top" xlink:title="tvm/runtime/data_type.h">
<polygon fill="white" stroke="black" points="496,-123.5 496,-142.5 632,-142.5 632,-123.5 496,-123.5"/>
<text text-anchor="middle" x="564" y="-130.5" font-family="Helvetica,sans-Serif" font-size="10.00">tvm/runtime/data_type.h</text>
</a>
</g>
</g>
<!-- Node14&#45;&gt;Node23 -->
<g id="edge40" class="edge"><title>Node14&#45;&gt;Node23</title>
<path fill="none" stroke="midnightblue" d="M670.159,-297.331C622.632,-289.199 560.232,-275.034 545,-255 521.822,-224.515 540.658,-177.039 553.866,-151.565"/>
<polygon fill="midnightblue" stroke="midnightblue" points="556.999,-153.13 558.717,-142.675 550.855,-149.777 556.999,-153.13"/>
</g>
<!-- Node24 -->
<g id="node24" class="node"><title>Node24</title>
<polygon fill="white" stroke="#bfbfbf" points="695.5,-235.5 695.5,-254.5 758.5,-254.5 758.5,-235.5 695.5,-235.5"/>
<text text-anchor="middle" x="727" y="-242.5" font-family="Helvetica,sans-Serif" font-size="10.00">functional</text>
</g>
<!-- Node14&#45;&gt;Node24 -->
<g id="edge46" class="edge"><title>Node14&#45;&gt;Node24</title>
<path fill="none" stroke="midnightblue" d="M727,-291.399C727,-283.466 727,-273.458 727,-264.858"/>
<polygon fill="midnightblue" stroke="midnightblue" points="730.5,-264.658 727,-254.658 723.5,-264.658 730.5,-264.658"/>
</g>
<!-- Node25 -->
<g id="node25" class="node"><title>Node25</title>
<polygon fill="white" stroke="#bfbfbf" points="776.5,-235.5 776.5,-254.5 817.5,-254.5 817.5,-235.5 776.5,-235.5"/>
<text text-anchor="middle" x="797" y="-242.5" font-family="Helvetica,sans-Serif" font-size="10.00">tuple</text>
</g>
<!-- Node14&#45;&gt;Node25 -->
<g id="edge47" class="edge"><title>Node14&#45;&gt;Node25</title>
<path fill="none" stroke="midnightblue" d="M743.589,-291.399C754.285,-282.308 768.188,-270.49 779.128,-261.191"/>
<polygon fill="midnightblue" stroke="midnightblue" points="781.462,-263.801 786.814,-254.658 776.928,-258.468 781.462,-263.801"/>
</g>
<!-- Node26 -->
<g id="node26" class="node"><title>Node26</title>
<polygon fill="white" stroke="#bfbfbf" points="836,-235.5 836,-254.5 878,-254.5 878,-235.5 836,-235.5"/>
<text text-anchor="middle" x="857" y="-242.5" font-family="Helvetica,sans-Serif" font-size="10.00">limits</text>
</g>
<!-- Node14&#45;&gt;Node26 -->
<g id="edge50" class="edge"><title>Node14&#45;&gt;Node26</title>
<path fill="none" stroke="midnightblue" d="M757.808,-291.399C779.328,-281.55 807.837,-268.501 828.768,-258.922"/>
<polygon fill="midnightblue" stroke="midnightblue" points="830.448,-262.002 838.084,-254.658 827.534,-255.637 830.448,-262.002"/>
</g>
<!-- Node15&#45;&gt;Node2 -->
<g id="edge22" class="edge"><title>Node15&#45;&gt;Node2</title>
<path fill="none" stroke="midnightblue" d="M896.399,-235.474C840.089,-227.33 754.622,-214.086 681,-199 602.019,-182.816 510.874,-159.03 459.58,-145.168"/>
<polygon fill="midnightblue" stroke="midnightblue" points="460.435,-141.774 449.867,-142.533 458.602,-148.53 460.435,-141.774"/>
</g>
<!-- Node15&#45;&gt;Node4 -->
<g id="edge21" class="edge"><title>Node15&#45;&gt;Node4</title>
<path fill="none" stroke="midnightblue" d="M959.767,-235.35C963.622,-213.947 970.518,-157.735 945,-123 934.192,-108.289 918.176,-97.8069 901.472,-90.3589"/>
<polygon fill="midnightblue" stroke="midnightblue" points="902.73,-87.0918 892.15,-86.5256 900.068,-93.5658 902.73,-87.0918"/>
</g>
<!-- Node15&#45;&gt;Node9 -->
<g id="edge26" class="edge"><title>Node15&#45;&gt;Node9</title>
<path fill="none" stroke="midnightblue" d="M963.407,-235.153C971.494,-222.224 987.555,-197.676 1004,-179 1035.22,-143.548 1077.14,-107.438 1101.09,-87.7067"/>
<polygon fill="midnightblue" stroke="midnightblue" points="1103.52,-90.2448 1109.05,-81.2101 1099.09,-84.8218 1103.52,-90.2448"/>
</g>
<!-- Node15&#45;&gt;Node12 -->
<g id="edge23" class="edge"><title>Node15&#45;&gt;Node12</title>
<path fill="none" stroke="midnightblue" d="M895.685,-235.891C892.751,-235.576 889.844,-235.276 887,-235 651.125,-212.089 591.332,-216.576 355,-199 343.025,-198.109 330.327,-197.121 317.961,-196.135"/>
<polygon fill="midnightblue" stroke="midnightblue" points="317.924,-192.621 307.676,-195.31 317.364,-199.598 317.924,-192.621"/>
</g>
<!-- Node15&#45;&gt;Node14 -->
<g id="edge28" class="edge"><title>Node15&#45;&gt;Node14</title>
<path fill="none" stroke="midnightblue" d="M929.873,-254.506C896.114,-263.72 838.646,-278.619 793.43,-289.939"/>
<polygon fill="midnightblue" stroke="midnightblue" points="792.545,-286.552 783.69,-292.369 794.239,-293.344 792.545,-286.552"/>
</g>
<!-- Node16 -->
<g id="node16" class="node"><title>Node16</title>
<polygon fill="white" stroke="#bfbfbf" points="876,-123.5 876,-142.5 936,-142.5 936,-123.5 876,-123.5"/>
<text text-anchor="middle" x="906" y="-130.5" font-family="Helvetica,sans-Serif" font-size="10.00">dmlc/io.h</text>
</g>
<!-- Node15&#45;&gt;Node16 -->
<g id="edge20" class="edge"><title>Node15&#45;&gt;Node16</title>
<path fill="none" stroke="midnightblue" d="M952.716,-235.193C947.434,-226.233 939.225,-211.873 933,-199 925.445,-183.375 917.962,-165.08 912.797,-151.887"/>
<polygon fill="midnightblue" stroke="midnightblue" points="916.059,-150.619 909.194,-142.549 909.528,-153.139 916.059,-150.619"/>
</g>
<!-- Node15&#45;&gt;Node17 -->
<g id="edge24" class="edge"><title>Node15&#45;&gt;Node17</title>
<path fill="none" stroke="midnightblue" d="M895.677,-235.974C892.745,-235.636 889.841,-235.309 887,-235 717.666,-216.561 515.105,-199.752 431.743,-193.062"/>
<polygon fill="midnightblue" stroke="midnightblue" points="431.96,-189.568 421.713,-192.259 431.402,-196.546 431.96,-189.568"/>
</g>
<!-- Node15&#45;&gt;Node18 -->
<g id="edge25" class="edge"><title>Node15&#45;&gt;Node18</title>
<path fill="none" stroke="midnightblue" d="M970.693,-235.324C982.901,-226.979 1001.58,-214.212 1016,-204.352"/>
<polygon fill="midnightblue" stroke="midnightblue" points="1018.06,-207.187 1024.34,-198.655 1014.11,-201.408 1018.06,-207.187"/>
</g>
<!-- Node15&#45;&gt;Node19 -->
<g id="edge27" class="edge"><title>Node15&#45;&gt;Node19</title>
<path fill="none" stroke="midnightblue" d="M984.462,-235.444C1012.68,-226.32 1057.54,-211.813 1088.97,-201.651"/>
<polygon fill="midnightblue" stroke="midnightblue" points="1090.22,-204.923 1098.66,-198.516 1088.07,-198.263 1090.22,-204.923"/>
</g>
<!-- Node20&#45;&gt;Node2 -->
<g id="edge31" class="edge"><title>Node20&#45;&gt;Node2</title>
<path fill="none" stroke="midnightblue" d="M601.3,-235.485C579.64,-222.969 537.84,-198.93 502,-179 482.6,-168.212 460.499,-156.245 443.983,-147.365"/>
<polygon fill="midnightblue" stroke="midnightblue" points="445.433,-144.171 434.967,-142.526 442.123,-150.339 445.433,-144.171"/>
</g>
<!-- Node20&#45;&gt;Node4 -->
<g id="edge30" class="edge"><title>Node20&#45;&gt;Node4</title>
<path fill="none" stroke="midnightblue" d="M674.429,-235.49C734.053,-226.211 819.211,-211.073 829,-199 852.426,-170.108 844.856,-124.078 837.049,-96.2313"/>
<polygon fill="midnightblue" stroke="midnightblue" points="840.357,-95.0794 834.109,-86.5228 833.657,-97.1079 840.357,-95.0794"/>
</g>
<!-- Node20&#45;&gt;Node10 -->
<g id="edge39" class="edge"><title>Node20&#45;&gt;Node10</title>
<path fill="none" stroke="midnightblue" d="M554.094,-244.446C447.114,-244.133 233.129,-238.411 171,-199 131.273,-173.799 109.435,-119.667 100.263,-91.0729"/>
<polygon fill="midnightblue" stroke="midnightblue" points="103.511,-89.7229 97.2675,-81.1634 96.8108,-91.7484 103.511,-89.7229"/>
</g>
<!-- Node20&#45;&gt;Node11 -->
<g id="edge37" class="edge"><title>Node20&#45;&gt;Node11</title>
<path fill="none" stroke="midnightblue" d="M621.264,-235.384C633.008,-214.974 658.953,-162.436 641,-123 634.1,-107.844 620.156,-95.4688 607.669,-86.7625"/>
<polygon fill="midnightblue" stroke="midnightblue" points="609.245,-83.6118 598.956,-81.084 605.423,-89.4763 609.245,-83.6118"/>
</g>
<!-- Node20&#45;&gt;Node18 -->
<g id="edge38" class="edge"><title>Node20&#45;&gt;Node18</title>
<path fill="none" stroke="midnightblue" d="M677.836,-236.048C680.595,-235.694 683.326,-235.343 686,-235 802.359,-220.061 940.422,-202.371 1003.07,-194.346"/>
<polygon fill="midnightblue" stroke="midnightblue" points="1003.69,-197.795 1013.17,-193.053 1002.8,-190.852 1003.69,-197.795"/>
</g>
<!-- Node21 -->
<g id="node21" class="node"><title>Node21</title>
<g id="a_node21"><a xlink:href="serializer_8h.html" target="_top" xlink:title="Serializer extension to support TVM data types Include this file to enable serialization of DLDataTyp...">
<polygon fill="white" stroke="black" points="690,-179.5 690,-198.5 820,-198.5 820,-179.5 690,-179.5"/>
<text text-anchor="middle" x="755" y="-186.5" font-family="Helvetica,sans-Serif" font-size="10.00">tvm/runtime/serializer.h</text>
</a>
</g>
</g>
<!-- Node20&#45;&gt;Node21 -->
<g id="edge32" class="edge"><title>Node20&#45;&gt;Node21</title>
<path fill="none" stroke="midnightblue" d="M632.936,-235.444C654.142,-226.438 690.606,-212.189 718.255,-202.049"/>
<polygon fill="midnightblue" stroke="midnightblue" points="719.79,-205.215 727.998,-198.516 717.404,-198.635 719.79,-205.215"/>
</g>
<!-- Node21&#45;&gt;Node4 -->
<g id="edge35" class="edge"><title>Node21&#45;&gt;Node4</title>
<path fill="none" stroke="midnightblue" d="M762.664,-179.394C770.312,-170.591 782.166,-156.35 791,-143 801.037,-127.831 810.738,-109.757 817.827,-95.7064"/>
<polygon fill="midnightblue" stroke="midnightblue" points="820.982,-97.2214 822.288,-86.7074 814.711,-94.112 820.982,-97.2214"/>
</g>
<!-- Node21&#45;&gt;Node16 -->
<g id="edge33" class="edge"><title>Node21&#45;&gt;Node16</title>
<path fill="none" stroke="midnightblue" d="M778.926,-179.444C804.219,-170.399 844.302,-156.064 872.68,-145.916"/>
<polygon fill="midnightblue" stroke="midnightblue" points="873.948,-149.179 882.186,-142.516 871.591,-142.588 873.948,-149.179"/>
</g>
<!-- Node21&#45;&gt;Node20 -->
<g id="edge36" class="edge"><title>Node21&#45;&gt;Node20</title>
<path fill="none" stroke="midnightblue" d="M738.158,-198.516C716.998,-207.506 680.543,-221.754 652.868,-231.906"/>
<polygon fill="midnightblue" stroke="midnightblue" points="651.321,-228.744 643.114,-235.444 653.708,-235.324 651.321,-228.744"/>
</g>
<!-- Node22 -->
<g id="node22" class="node"><title>Node22</title>
<polygon fill="white" stroke="#bfbfbf" points="688,-123.5 688,-142.5 782,-142.5 782,-123.5 688,-123.5"/>
<text text-anchor="middle" x="735" y="-130.5" font-family="Helvetica,sans-Serif" font-size="10.00">dmlc/serializer.h</text>
</g>
<!-- Node21&#45;&gt;Node22 -->
<g id="edge34" class="edge"><title>Node21&#45;&gt;Node22</title>
<path fill="none" stroke="midnightblue" d="M751.697,-179.083C749.018,-171.849 745.151,-161.409 741.814,-152.397"/>
<polygon fill="midnightblue" stroke="midnightblue" points="744.996,-150.913 738.241,-142.751 738.432,-153.344 744.996,-150.913"/>
</g>
<!-- Node23&#45;&gt;Node3 -->
<g id="edge42" class="edge"><title>Node23&#45;&gt;Node3</title>
<path fill="none" stroke="midnightblue" d="M543.225,-123.475C518.568,-113.357 477.255,-96.4046 449.098,-84.8507"/>
<polygon fill="midnightblue" stroke="midnightblue" points="450.317,-81.5674 439.736,-81.0091 447.659,-88.0434 450.317,-81.5674"/>
</g>
<!-- Node23&#45;&gt;Node4 -->
<g id="edge41" class="edge"><title>Node23&#45;&gt;Node4</title>
<path fill="none" stroke="midnightblue" d="M601.968,-123.475C642.219,-114.438 706.756,-99.9473 756.751,-88.7219"/>
<polygon fill="midnightblue" stroke="midnightblue" points="757.554,-92.1288 766.545,-86.523 756.021,-85.2988 757.554,-92.1288"/>
</g>
<!-- Node23&#45;&gt;Node8 -->
<g id="edge43" class="edge"><title>Node23&#45;&gt;Node8</title>
<path fill="none" stroke="midnightblue" d="M525.442,-123.437C485.689,-114.55 421.933,-100.139 367,-87 362.325,-85.8818 357.443,-84.6936 352.583,-83.4974"/>
<polygon fill="midnightblue" stroke="midnightblue" points="353.256,-80.0585 342.708,-81.0505 351.573,-86.853 353.256,-80.0585"/>
</g>
<!-- Node23&#45;&gt;Node9 -->
<g id="edge44" class="edge"><title>Node23&#45;&gt;Node9</title>
<path fill="none" stroke="midnightblue" d="M632.177,-124.704C752.848,-111.791 999.622,-85.3822 1087.79,-75.9464"/>
<polygon fill="midnightblue" stroke="midnightblue" points="1088.41,-79.4008 1097.98,-74.8565 1087.66,-72.4406 1088.41,-79.4008"/>
</g>
<!-- Node27&#45;&gt;Node9 -->
<g id="edge56" class="edge"><title>Node27&#45;&gt;Node9</title>
<path fill="none" stroke="midnightblue" d="M832.166,-365.138C966.616,-359.382 1276,-336.324 1276,-246 1276,-246 1276,-246 1276,-188 1276,-126.752 1197.37,-94.2533 1151.75,-80.5547"/>
<polygon fill="midnightblue" stroke="midnightblue" points="1152.6,-77.1555 1142.02,-77.7649 1150.67,-83.8846 1152.6,-77.1555"/>
</g>
<!-- Node27&#45;&gt;Node10 -->
<g id="edge58" class="edge"><title>Node27&#45;&gt;Node10</title>
<path fill="none" stroke="midnightblue" d="M709.984,-367.345C598.094,-365.5 355.479,-349.827 180,-255 125.955,-225.795 114.375,-202.476 99,-143 94.5937,-125.955 93.8723,-105.848 94.0881,-91.4779"/>
<polygon fill="midnightblue" stroke="midnightblue" points="97.5904,-91.4579 94.4097,-81.3518 90.594,-91.2356 97.5904,-91.4579"/>
</g>
<!-- Node27&#45;&gt;Node14 -->
<g id="edge55" class="edge"><title>Node27&#45;&gt;Node14</title>
<path fill="none" stroke="midnightblue" d="M764.696,-358.475C759.127,-350.944 750.757,-339.626 743.318,-329.566"/>
<polygon fill="midnightblue" stroke="midnightblue" points="746.13,-327.482 737.37,-321.523 740.502,-331.644 746.13,-327.482"/>
</g>
<!-- Node27&#45;&gt;Node18 -->
<g id="edge57" class="edge"><title>Node27&#45;&gt;Node18</title>
<path fill="none" stroke="midnightblue" d="M832.084,-361.634C897.987,-352.213 999.931,-326.286 1048,-255 1057.37,-241.103 1052.42,-221.833 1046.47,-207.886"/>
<polygon fill="midnightblue" stroke="midnightblue" points="1049.61,-206.344 1042.15,-198.824 1043.29,-209.357 1049.61,-206.344"/>
</g>
</g>
</svg>
